<?xml version="1.0" encoding="UTF-8"?>
<svg id="Layer_5" data-name="Layer 5" xmlns="http://www.w3.org/2000/svg" xmlns:xlink="http://www.w3.org/1999/xlink" viewBox="0 0 991.05 991.05">
  <defs>
    <style>
      .cls-1, .cls-2, .cls-3, .cls-4 {
        fill: none;
      }

      .cls-5 {
        fill: #45488f;
      }

      .cls-6, .cls-2, .cls-3, .cls-7, .cls-8, .cls-9, .cls-10, .cls-4, .cls-11 {
        stroke-miterlimit: 10;
      }

      .cls-6, .cls-3, .cls-7 {
        stroke: #7e973b;
      }

      .cls-6, .cls-12, .cls-10 {
        fill: #7d953b;
      }

      .cls-13 {
        fill: #4f2f26;
      }

      .cls-14 {
        fill: #f3bb38;
      }

      .cls-15, .cls-11 {
        fill: #010101;
      }

      .cls-16 {
        fill: #9ad1a4;
      }

      .cls-17 {
        fill: #e9aa27;
      }

      .cls-18 {
        fill: #a4c244;
      }

      .cls-19 {
        fill: #fece34;
      }

      .cls-20 {
        fill: #235a5d;
      }

      .cls-21 {
        fill: #030303;
      }

      .cls-22 {
        fill: #363a73;
      }

      .cls-23 {
        fill: #5a3223;
      }

      .cls-2, .cls-9 {
        stroke: #231f20;
      }

      .cls-24, .cls-7 {
        fill: #8eac3d;
      }

      .cls-25 {
        fill: #623020;
      }

      .cls-26 {
        fill: #333232;
      }

      .cls-27 {
        fill: #cd8c2a;
      }

      .cls-28 {
        fill: #255a5e;
      }

      .cls-29 {
        fill: #a282ac;
      }

      .cls-30 {
        fill: url(#linear-gradient);
        opacity: .81;
      }

      .cls-31 {
        fill: #8b5635;
      }

      .cls-32 {
        fill: #020202;
      }

      .cls-33 {
        fill: #552e24;
      }

      .cls-8 {
        fill: #6d7c34;
      }

      .cls-8, .cls-10 {
        stroke: #5f7232;
      }

      .cls-34, .cls-9 {
        fill: #fff;
      }

      .cls-35 {
        fill: #f0ebf5;
      }

      .cls-36 {
        fill: #171514;
      }

      .cls-37 {
        fill: #f8d979;
      }

      .cls-38 {
        fill: #563935;
      }

      .cls-39 {
        fill: #b63127;
      }

      .cls-40 {
        fill: #924b3c;
      }

      .cls-41 {
        fill: #7c5146;
      }

      .cls-42 {
        fill: #3a2319;
      }

      .cls-43 {
        fill: #f1e7cb;
      }

      .cls-44 {
        fill: #868887;
      }

      .cls-4 {
        stroke: #7d953b;
      }

      .cls-45 {
        fill: #3f221a;
      }

      .cls-46 {
        fill: #77533a;
      }

      .cls-47 {
        fill: #0f1a20;
      }

      .cls-11 {
        stroke: #010101;
        stroke-width: .14px;
      }

      .cls-48 {
        fill: #b21e44;
      }

      .cls-49 {
        fill: #b06d50;
      }

      .cls-50 {
        fill: #3b1d3e;
      }

      .cls-51 {
        fill: #ea1e52;
      }

      .cls-52 {
        clip-path: url(#clippath);
      }

      .cls-53 {
        fill: #b06d4e;
      }
    </style>
    <clipPath id="clippath">
      <circle class="cls-1" cx="495.52" cy="495.52" r="495.52"/>
    </clipPath>
    <linearGradient id="linear-gradient" x1="-2379.23" y1="4405.65" x2="-1291.93" y2="4405.65" gradientTransform="translate(-3968.07 2247.03) rotate(90) scale(1 -1)" gradientUnits="userSpaceOnUse">
      <stop offset="0" stop-color="#f0e9de"/>
      <stop offset=".18" stop-color="#eee6db" stop-opacity=".99"/>
      <stop offset=".33" stop-color="#e8dfd2" stop-opacity=".97"/>
      <stop offset=".46" stop-color="#ded2c2" stop-opacity=".94"/>
      <stop offset=".59" stop-color="#d1c0ad" stop-opacity=".89"/>
      <stop offset=".71" stop-color="#bfa991" stop-opacity=".82"/>
      <stop offset=".83" stop-color="#aa8d6f" stop-opacity=".74"/>
      <stop offset=".95" stop-color="#916d47" stop-opacity=".65"/>
      <stop offset="1" stop-color="#855d34" stop-opacity=".6"/>
    </linearGradient>
  </defs>
  <path class="cls-40" d="M10.06,690.27c.47,0,1.23-.13,1.42-.64.17-.45-.15-.84-.64-.84-.47,0-1.23.13-1.42.64-.17.45.15.84.64.84h0Z"/>
  <g class="cls-52">
    <polyline class="cls-43" points="1130.78 943.15 1130.78 -94.15 -230.29 -99.6 -236.28 955.42"/>
    <polyline class="cls-30" points="1130.78 951.52 -255.61 951.52 -255.61 -135.78 1130.78 -135.78"/>
    <path class="cls-20" d="M624.68,674.12c-7.31-19.45-7.88-41.87-11.48-62.21l-218.22,53.94s-26.57,8.38-55.2-4.81l-32.77,30.02c6.25,20.43.88,67.25,10.73,73.5,23.28,37.59,85.39,14.36,111.67,4.97,37.54-13.42,74.76-27.66,110.86-44.69,17.26-8.15,73.47-27.32,90.35-36.21.13-.07,3.19,1.17,3.51.99-2.53-4.48-7.58-10.53-9.45-15.5Z"/>
    <path class="cls-49" d="M209.91,263.35s-4.33,58.01-22.49,87.78c-2.91,4.78-32.23,12.04-32.23,12.04l5.54,9.96c4.78,8.6,66.64,142.99,74.7,148.62,40.16,28.05,50.8-79.09,77.11-101.75l-5.83-25.13s-7.27-3.91-7.23-10.51c.04-6.6,18.39-54.14,18.39-54.14"/>
    <path class="cls-31" d="M201.79,285.43c-.02.12-.03.22-.05.34-.01-.15,0-.28.05-.34Z"/>
    <path class="cls-49" d="M265.12,371.34l38.24,7.61,19.97.22c1.92.49,14.9-16.95,16.8-19.1,5.89-6.68,12.74-16.97,17.23-24.68,4.8-8.26,13.11-13.11,17.01-23.5,2.86-7.61,4.2-13.1,3.04-26.9-.29-3.51.45-6.75,2.08-10.05,3.46-6.95,6.13-15.4,10.55-24.76.35-.74,2.15-4.26,2.04-5.18,0,0,8.85-41.38,4.93-57.85-3.92-16.47-10.67-25.15-20.82-30.51-10.15-5.37-42.51-11.06-42.51-11.06l-42.57-16.86-41.9,9.57-29.91,40.96-9.9,53.48-5.65,48.54"/>
    <path class="cls-45" d="M286.37,367.38c-.35.12-19.7-7.21-20.08-7.33l-9.13-7.34s-.04-.05-.05-.06c-1.02.14-2.14-.07-3.28-.79-5.92-3.77-10.68-8.71-15.1-14.1-3.97-4.85-6.88-17.38-11.82-21.31-2.34-1.86-1.22-2.44-3.04-4.66.06.64-.91,4.11-.84,4.74,6.95,15.45,20.14,47.67,32.75,58.2.97.52,4.01,2.23,12.53,5.05,11.18,3.7,19.95,6.36,31.48,7.54,2.15-8,3.9-17.67,5.93-25.7-4.08-1.05-6.12,1.25-19.37,5.77Z"/>
    <path class="cls-21" d="M299.25,246.56c-2.09-1.87-5.19-1.52-7.14-.53-.46.23-1.7.91-2.58,2.38-1.12,1.87-.9,4.38,0,6.11,1.22,2.31,3.97,3.36,6.41,2.91,3.31-.61,5.18-3.92,5.12-6.69-.01-.51-.13-2.66-1.82-4.18"/>
    <path class="cls-21" d="M366.25,264.39c2.74-.63,5.28,1.18,6.5,2.99.29.42,1.04,1.62,1.1,3.33.07,2.18-1.33,4.27-2.97,5.34-2.18,1.43-5.1,1.02-7.01-.56-2.59-2.14-2.64-5.94-1.24-8.33.26-.44,1.4-2.26,3.61-2.77"/>
    <path class="cls-21" d="M348.35,269.52s11.16-7.48,17.66-6.5c9.48,1.43,11.25,4.38,13.29,9.99,0,0-4.76-6.53-11.48-7.34-6.42-.77-19.47,3.85-19.47,3.85Z"/>
    <path class="cls-21" d="M317.78,258.93s-12.18-12.94-19.27-14.97c-10.35-2.96-24.36-.03-29,4.1,0,0,18.71-4.81,25.94-2.53,6.92,2.18,22.33,13.41,22.33,13.41Z"/>
    <path class="cls-21" d="M324.13,224.91c1.18,1.01.42,1.92-.23,4.4-.21.79-.51,2.02-.82,3.31-.58,2.41-3.38,3.55-5.46,2.21-3.74-2.41-7.01-4.77-9.7-6-7.29-3.34-14.61-7.29-22.65-8.09-3.85-.38-7.35-.27-10.93.84-1.13.35-4.44,2.28-5.72,1.23-.53-.43,1.24-3.23,1.43-3.51,3.6-5.63,9.48-6.83,16.24-6.64,13.78.39,25.06,7.15,37.85,12.26"/>
    <path class="cls-21" d="M394.11,241.9s-3.65-1.88-3.68-1.89c-7.88-4.1-16.23-6.22-24.87-7.27-4.38-.53-8.43,2.46-9.34,6.78,0,.03-.01.05-.02.08-.18.86-1.21,3.36-.83,4.17.07.16.21.27.35.38,1.51,1.13,3.43,1.61,5.32,1.67,2.34.08,4.6-.53,6.92-.54,6.68-.02,13.72-.13,19.92,2.46.49.2,3.13,1.36,3.59,1.59,2.79-3.03,3.41-6.68,2.62-7.42Z"/>
    <g>
      <path class="cls-21" d="M327.66,307.62c-3.47.85-8.02-.74-10.59-3.48-.57-.61-2.95-.78-2.15.08,3.39,3.62,10,5.58,14.48,4.49.44-.11.45-.43,0-.73-.46-.31-1.28-.48-1.75-.36"/>
      <path class="cls-21" d="M313.83,302.99c-1.79-1.52-3.96-2.64-6.2-3.41-.33-.11-.8-.1-1.1.07-.24.13-.34.35-.13.56.9.89,2.18,1.5,3.42,1.8.39.09.93.13,1.24-.16.29-.26-.04-.57-.34-.64-1.03-.24-2.02-.72-2.76-1.46-.41.21-.82.42-1.23.63,2.01.69,3.93,1.71,5.53,3.07.32.27.87.29,1.25.18.28-.09.63-.36.31-.64"/>
      <path class="cls-21" d="M304.65,300.92c-2.66-.76-5.51-2.77-6.29-5.18-1.19-3.63,1.92-7.98,5.78-9.11.42-.12.3-.45-.05-.63-.45-.23-1.07-.19-1.51-.07-3.37.98-6.28,4.44-6.6,7.48-.29,2.84,1.78,5.41,4.78,7.03.89.48,1.87.9,2.87,1.19.4.11,1.17.18,1.45-.1.29-.28-.05-.52-.43-.62"/>
      <path class="cls-21" d="M332.93,307.5c-.06-.35.26-.49.47-.43.72.21,1.51.19,2.26-.16.16.36.32.71.48,1.07-1.49-.21-3.07-.1-4.6.45-.3.11-.65-.1-.82-.36-.13-.19-.23-.59.08-.7"/>
      <path class="cls-21" d="M330.8,307.37c1.71-.62,3.47-.72,5.14-.48.24.04.52.24.63.52.09.21.06.46-.16.56"/>
      <path class="cls-21" d="M338.41,309.31c1.76.38,4.12-.28,5.51-2.13,2.1-2.78,1.85-6.8.19-9.35-.18-.28.02-.53.28-.54.34-.03.66.25.85.54,1.45,2.23,1.95,5.37.91,8.22-.97,2.66-3.14,4.14-5.43,4.39-.68.07-1.38.06-2.04-.08-.27-.06-.71-.31-.75-.66-.05-.36.23-.44.48-.39"/>
    </g>
    <path class="cls-25" d="M314.97,323.13c-11.64-3.05-30.16-9.35-30.16-9.35,0,0-2.97,31.83,24.03,38.9,27,7.07,31.36-23.62,31.36-23.62,0,0-13.59-2.87-25.24-5.92Z"/>
    <path class="cls-21" d="M315.08,323.16c-5.54-1.45-27.61-8.22-27.61-8.22,0,0,3.9,22.69,23.92,27.93,21.71,5.68,27.35-14.2,27.35-14.2l-23.66-5.5Z"/>
    <path class="cls-35" d="M315.11,324.05c-5.54-1.45-22.14-6.79-22.14-6.79,0,0,4.48,7.64,21.09,11.99,16.61,4.35,23.42-.15,23.42-.15l-22.37-5.04Z"/>
    <path class="cls-25" d="M341.53,327.12c-.53-.29-1.46-.43-4.05-1.36-4.32-1.55-5.43-2.41-8.57-3.5-5.36-1.87-9.42-.55-11.8-1.17-2.38-.62-5.27-3.77-10.86-4.76-3.27-.58-11.53-1.46-16.06-2.22-2.72-.46-5.55-2.34-6.16-2.35-.84,0-.88,6.39,29.04,14.22,29.92,7.83,29.19,1.55,28.46,1.14Z"/>
    <path class="cls-49" d="M229.78,233.17c-.22,4.1-4.47,19.9-4.92,23.91l-20.81-5.27c-3.13-15.16-7.06-22.14-8.61-26.37-2.41-6.61.55-28.9,1.43-35.74,1.49-11.55,8.69-25.22,15.25-35.25,7.22-11.04,14.38-16.97,25.37-23.9,22.41-14.13,57.06-17.05,88.27-7.45,2.96.91,5.9,1.94,8.71,3.04,26.62,10.43,46.59,22.76,58.9,49.64,8.88,19.39,6.18,34.72.33,58.38,4.46-22.77,1.23-42.78,1.04-43.53-4.04-17.13-12.68-23.78-19.23-26.35-5.71-2.24-10.5-1.7-11.46-1.56-7.04-.07-16.64-3.26-23.47-5.94-5.09-1.99-9.06-3.87-10.14-4.38-2.99-3.27-7.9-6.29-14.22-8.77-14.68-5.75-37.31-8.23-43.38-2.68-6.73,6.16-24.12,29.63-25.61,35.71,0,0-15.88,27.02-17.46,56.52Z"/>
    <path class="cls-49" d="M321.56,368.73c-.25-.1-.48-.25-.65-.44-3.38-3.64-3.33-5.21-5.19-6.16-.43-.22-.62-.44-1.99-.98-5.49-2.16-8.81-3.58-26.36,2.41-.35.12-19.7-7.21-20.08-7.33l-9.13-7.34c-1.47-1.48-32.24-43.25-32.24-43.25-.32-1.22-5.44-10.63-5.47-11.73-.11-.09-.21-.19-.32-.26-.04-.03-.13-.09-.22-.16-.03.06-.08.15-.1.19-.18.43-.28.9-.36,1.35-.38,1.96,3.36-10.49,3.49-8.49.21,3.07-.1,7.03,0,10.1.03,1.08-.18,16.02-.05,17.09,3.74,3.79,22.15,45.25,36.2,56.99.97.52,1.73,2.43,10.25,5.25,16.01,5.3,31.79,9.08,49,8.28,4.49-.21,8.59-2.39,11.21-5.88,7.48-9.95,24.04-32.11,30.64-48.07-6.76,8.54-21.12,26.88-30.97,39.35-.3.38-6.59-.77-7.14-.75"/>
    <path class="cls-32" d="M229.78,233.17c-.22,4.1-4.47,19.9-4.92,23.91l-20.81-5.27c-3.13-15.16-7.06-22.14-8.61-26.37-2.41-6.61.55-28.9,1.43-35.74,1.49-11.55,5.72-32.5,12.27-42.53,7.22-11.04,17.62-17.89,28.6-24.82,22.41-14.13,56.8-8.84,88,.76,2.96.91,5.9,1.94,8.71,3.04,26.62,10.43,46.59,22.76,58.9,49.64,8.88,19.39,6.94,34.66,3.24,45.86,4.46-22.77.18-31.81-.11-32.52-5.37-13.51-11.92-24.97-18.46-27.53-5.71-2.24-13.03,1-13.98,1.14-7.04-.07-16.64-3.26-23.47-5.94-5.09-1.99-9.06-3.87-10.14-4.38-2.99-3.27-20.91-14.62-27.23-17.1-14.68-5.75-26.05-4.89-32.13.66-6.73,6.16-22.36,34.62-23.85,40.7,0,0-15.88,27.02-17.46,56.52Z"/>
    <path class="cls-49" d="M207.16,287.72c-15.82,14.07-17.64-16.59-17.64-16.59-8.28-17.28-4.44-32.49-1.38-42.78,3.06-10.29,14.46-7.25,14.46-7.25,9.45,3.51,12.48,9.82,12.33,44.66"/>
    <path class="cls-33" d="M202.65,246.86c-3.95.14-5.97,3.51-6.73,7.01-.22,1.03-.26,2.05-.39,3.09-.16,1.26-.49,2.46-.54,3.75-.06,1.5.05,3.01.31,4.49.4,2.22,1.16,4.78,2.74,6.47.96,1.03,2.46,1.56,3.68.59,1.01-.81,1.12-2.32,1.18-3.52.08-1.72-.04-3.44-.03-5.16,0-.82-.2-3.66.71-4.14.27-.14.92.23,1.26.36.81.32,1.62.61,2.43.92.61.23,1.5-.17,1.44-.89-.46-5.3-.82-10.58-1.96-15.79-.71-3.22-1.64-6.5-3.31-9.37-.63-1.09-1.44-2.26-2.52-2.96s-2.13.23-2.96.98c-3.73,3.35-5.53,8.29-6.18,13.15-.13.96,1.75.74,1.86-.12.49-3.7,1.63-7.39,3.94-10.37.58-.76,1.23-1.47,1.97-2.08.22-.18.47-.33.68-.52s.07-.05.11-.08l-.94.07c.18.07-.13-.14.02.01s.37.26.53.4c.56.47,1.2,1.36,1.66,2.12,2.42,3.99,3.36,8.92,4.06,13.46.6,3.85.84,7.72,1.18,11.59l1.44-.89c-1.88-.71-4.87-2.54-6.45-.37-.75,1.04-.81,2.52-.85,3.75-.05,1.59.04,3.18.04,4.77,0,.92.21,2.95-.5,3.69-.16.17-.34,0-.68-.29-.71-.6-1.2-1.55-1.57-2.38-1.12-2.48-1.57-5.32-1.45-8.03.06-1.53.46-3,.59-4.51.25-3.04,1.31-7.67,5.07-7.81,1.06-.04,1.4-1.45.15-1.4h0Z"/>
    <path class="cls-49" d="M343.52,637.95l7.77-9.17c-7.17,4.07-21.73,5.56-21.85,5.34-.24-.44-2.75-3.82-2.78-3.88-25.55,15.34-52.59,43.4-42.62,74.75,12.01,21.05,30.35,27.52,72.49,9.94,3.25-1.35,36.52-18.58,45.09-24.24-6.84-22.64-48.73-31.11-58.11-52.74Z"/>
    <path class="cls-49" d="M335,496.56c-14.12-1.16-16.6,20.73-30.75,19.92-9.72-.55-19.46-.85-29.18-.57-4.41.13-8.69.82-12.97,1.53.03.9.07,1.8.11,2.7,1.71,34.73,6.64,46.22,11.36,80.62,3.12,22.72,2.08,45.96,7.06,68.44,2.54,11.45,6.72,22.53,13.42,32.22,8.1,11.72,18.96,14.89,32.87,15.98,3.92.31,33.63-64.69,32.24-72-8.59-45.35-20.67-120.82-24.17-148.84Z"/>
    <path class="cls-33" d="M357.12,633.02c-8.39,2.95-16.43,7.06-23.21,12.87-4.98,4.26-9.12,9.35-12.51,14.94-1.57,2.59-2.97,5.28-4.34,7.98-.38.75,1.09.78,1.39.19,2.45-4.85,5.07-9.61,8.4-13.93,4.41-5.74,9.9-10.56,16.08-14.3,4.56-2.76,9.45-4.95,14.47-6.72.86-.3.61-1.35-.28-1.04h0Z"/>
    <path class="cls-20" d="M305.73,393.99s64.07,41.57,79.15,59.69c13.25,15.92,19.29,44.78,21.38,64.41,6.41,60.14,4.06,146.97,11.57,207l-91.18-17.85-36.76-100.87,18.08-212.48-2.25.11Z"/>
    <path class="cls-20" d="M382.75,506.78l-2.55-30.94s-8.22-22.9-27.43-33.12c-11.44-6.08-39.74-46.3-46.55-49.86,3,19.57,4.19,22.8-7.19,30.61-3.52,2.41-21.62,4.16-33.44,2.35-11.34-1.74-29.2-6.84-39.12-12.48-18.57-10.56-43.3-46.52-46.25-59.07l-14.9,4.92s-59.05,12.26-69.4,14.45c-10.36,2.19-37.31,258.6-37.31,258.6l-46.81,78.88c-4.06,9.85-64.97,91.35-45.22,178.27,0,0,226.26-27.27,248.79-23.56,26.17,4.32,76.83,11.61,85.67.35,8.85-11.26,81.7-359.39,81.7-359.39Z"/>
    <path class="cls-47" d="M327.44,774.43c.95-3.05,1.66-6.18,2.42-9.28,1.41-5.75,2.77-11.51,4.11-17.28,1.81-7.75,3.59-15.5,5.36-23.25,2.05-8.95,4.08-17.91,6.1-26.86,2.14-9.47,4.28-18.95,6.4-28.43,2.09-9.28,4.17-18.57,6.24-27.86,1.88-8.38,3.75-16.76,5.62-25.14,1.51-6.76,3.02-13.53,4.54-20.29.99-4.43,1.99-8.87,3-13.3,2.21-9.68,4.11-19.55,7.49-28.9,1.33-3.67,2.92-7.24,4.84-10.63.58-1.03-1.62-1.01-2.07-.21-6.59,11.62-9.02,25.01-11.99,37.88-.86,3.7-1.69,7.42-2.52,11.13-1.41,6.26-2.81,12.52-4.21,18.78-1.8,8.03-3.59,16.07-5.39,24.1-2.05,9.17-4.1,18.33-6.16,27.5-2.13,9.5-4.27,18.99-6.41,28.49-2.07,9.19-4.16,18.39-6.25,27.58-1.84,8.09-3.7,16.18-5.57,24.27-1.47,6.35-2.95,12.69-4.48,19.02-.92,3.83-1.83,7.66-2.88,11.45-.13.48-.27.96-.42,1.43-.3.97,1.92.72,2.2-.18h0Z"/>
    <path class="cls-38" d="M211.35,558.72c.08,0,.16.02.23.05,0,.3.1.63-.18.87-.02-.31-.03-.62-.05-.93Z"/>
    <path class="cls-38" d="M243.17,627.96c-.07.04-.15.06-.23.07-.01-.19-.02-.39-.03-.58.09.17.17.34.26.51Z"/>
    <path class="cls-41" d="M282.49,555.23c-.11-.02-.21-.04-.32-.06.11-.05.22-.09.32-.13.04.07.03.13,0,.2Z"/>
    <path class="cls-41" d="M281.52,555.21c-.14,0-.28.01-.43.02.14-.14.28-.14.43-.02Z"/>
    <path class="cls-40" d="M49.69,679.45c.45,0,1.23-.13,1.42-.63.17-.45-.15-.78-.63-.78-.45,0-1.23.13-1.42.63-.17.45.15.78.63.78h0Z"/>
    <path class="cls-20" d="M155.19,363.17c-127.5,9.04-132.74,50.18-142.87,79.45-19.95,73.73-78.19,247.05-45.86,292.2,56.24,78.54,300.36,44.34,300.36,44.34l13.54-59.86-210.1-44.24s65.07-250.64,58.18-265.45"/>
    <path class="cls-44" d="M64.02,678.39c-15.16-1.68-29.24,9.14-37.36,21.02-.61.89,1.59.79,2.05.13,7.5-10.98,20.44-21.33,34.5-19.77.93.1,2.27-1.21.81-1.37h0Z"/>
    <path class="cls-49" d="M310.52,749.71l5.13-.31s46.67,23.95,62.15,25.64c11.29.79,22.84-.06,34.31-2.52l12.02,5.25c5.54,2.42,11.98,2.68,18.23.75l4.82-1.48s12.8,10.91,16.98,6.6c4.18-4.31.61-9.83-2.85-15.19-3.46-5.36-88.17-61.42-88.17-61.42,9.57-2.4,25.19,1.65,34.81.91,14.78-1.03,20.71-6.88,15.77-12.72-3.05-3.6-14.13-7.23-22.59-4.53-8.43,2.68-43.17-10.35-58.2-7.19-15.03,3.16-29.16,20.12-29.16,20.12-7.87,2.69-4.28,1.27-4.28,1.27l1.03,44.83Z"/>
    <path class="cls-33" d="M446.52,776.27c-5.48-3.8-11.61-6.77-17.49-9.89-7.4-3.93-14.85-7.77-22.14-11.9-2.8-1.59-5.66-3.18-8.24-5.13-.53-.4-2.22.33-1.7.73,5.35,4.03,11.56,7.06,17.44,10.21,7.39,3.96,14.84,7.79,22.18,11.84,2.88,1.59,5.79,3.17,8.49,5.05.5.35,2.2-.39,1.46-.9h0Z"/>
    <path class="cls-33" d="M410.75,771.25c-9.55-4.14-19.1-8.27-28.65-12.41-1.35-.58-2.69-1.17-4.04-1.75-.45-.2-2.13.51-1.49.79,9.55,4.14,19.1,8.27,28.65,12.41,1.35.58,2.69,1.17,4.04,1.75.45.2,2.13-.51,1.49-.79h0Z"/>
    <polygon class="cls-49" points="258.61 420.21 256.63 465.79 271.67 420.21 258.61 420.21"/>
    <polygon class="cls-49" points="194.02 687.78 321.79 699.42 310.52 749.71 195.25 758.91 194.02 687.78"/>
    <path class="cls-47" d="M240.82,435.07c-18.92-4.33-36.36-15.43-50.23-28.79-3.37-3.25-6.56-6.69-9.47-10.35-3.06-3.85-5.75-7.98-8.5-12.05-3.97-5.86-7.91-11.74-11.78-17.67-1.27-1.94-2.54-3.88-3.75-5.87l-1,.62c7.06-1.86,14.11-3.71,21.17-5.57,1.02-.27,2.03-.53,3.05-.8l-1.17-.04c1.84,6.21,4.75,12.21,7.83,17.88,6.94,12.77,16.16,24.44,27.55,33.53,7.97,6.36,16.95,11.32,26.57,14.67.48.17,2.41-.62,1.79-.83-16.3-5.67-30.41-16.17-41.33-29.45-7.43-9.03-13.5-19.28-17.93-30.1-.84-2.06-1.67-4.14-2.3-6.28-.1-.32-1.02-.08-1.17-.04-7.06,1.86-14.11,3.71-21.17,5.57-1.02.27-2.03.53-3.05.8-.11.03-1.16.36-1,.62,4.39,7.19,9.2,14.15,13.91,21.13,2.8,4.15,5.52,8.39,8.53,12.39,2.68,3.57,5.63,6.95,8.76,10.15,6.9,7.05,14.68,13.26,23.04,18.49,9.21,5.76,19.26,10.39,29.88,12.82.47.11,1.1-.06,1.52-.28.17-.09.76-.44.27-.55h0Z"/>
    <path class="cls-47" d="M268.67,426.3c8.45,1.06,17.41,1.65,25.75-.47,4.45-1.13,8.91-3.24,11.65-7.06,2.9-4.04,2.85-8.76,1.73-13.37-.39-1.61-.45-3.37-.66-5.01-.33-2.61-.66-5.22-.99-7.82l-2.09.75c2.35,2.25,4.69,4.49,7.04,6.74l4.89,4.68c.76.73,1.66,1.42,2.33,2.23-.15-.18-.08-.15,0,.03.1.19.17.41.24.61.27.72.49,1.46.68,2.2.64,2.54.85,5.18.56,7.78-.82,7.52-5.94,13.55-12.05,17.62-7.27,4.83-15.97,5.92-24.36,3.79-.49-.13-1.2,0-1.54.41-.29.36-.26.82.25.95,7.71,1.96,15.81,1.51,23.03-1.98,6.61-3.2,13.05-8.84,15.64-15.86,1.83-4.95,1.82-10.65-.08-15.59-.28-.74-.59-1.07-1.16-1.62l-4.3-4.12c-3.06-2.93-6.11-5.86-9.17-8.78-.57-.54-2.21-.2-2.09.75.27,2.12.54,4.24.81,6.37.26,2.09.34,4.31.8,6.36.27,1.19.62,2.32.74,3.55.25,2.55-.14,5.26-1.34,7.58-1.79,3.45-5.16,5.62-8.76,6.85-8.47,2.88-18.09,2.09-26.79,1-.98-.12-2.25,1.27-.79,1.45h0Z"/>
    <path class="cls-47" d="M240.89,420.33c-.1,3.79-.21,7.58-.31,11.36-.25,9.1-.5,18.2-.76,27.3l-.91,33.04c-.26,9.56-.53,19.12-.79,28.67-.09,3.14-.17,6.27-.26,9.41-.04,1.47-.21,3-.12,4.47,0,.06,0,.13,0,.2,0,.29.16.46.44.53,4.9,1.28,9.81,2.55,14.71,3.83.48.12,1.71-.09,1.74-.76.17-3.82.34-7.64.51-11.47.4-9.13.81-18.27,1.21-27.4.49-11.04.98-22.08,1.47-33.13.42-9.58.85-19.16,1.27-28.73.14-3.13.28-6.27.42-9.4.07-1.48.27-3.02.2-4.5,0-.06,0-.13,0-.19.01-.28-.16-.47-.44-.53-5.54-1.15-11.08-2.3-16.63-3.46-.49-.1-1.19,0-1.54.41-.28.34-.27.78.24.88,5.54,1.15,11.08,2.3,16.63,3.46l-.44-.53c-.17,3.82-.34,7.64-.51,11.47-.4,9.13-.81,18.27-1.21,27.4-.49,11.04-.98,22.08-1.47,33.13-.42,9.58-.85,19.16-1.27,28.73l-.42,9.4c-.06,1.42-.38,3.08-.2,4.5,0,.06,0,.13,0,.19l1.74-.76c-4.9-1.28-9.81-2.55-14.71-3.83l.44.53c.1-3.79.21-7.58.31-11.36.25-9.1.5-18.2.76-27.3l.91-33.04c.26-9.56.53-19.12.79-28.67.09-3.14.17-6.27.26-9.41.04-1.47.21-3,.12-4.47,0-.06,0-.13,0-.2.03-.99-2.16-.59-2.18.23Z"/>
    <path class="cls-47" d="M284.85,427.79c-1.07,3.49-2.14,6.98-3.21,10.47-2.57,8.38-5.13,16.76-7.7,25.13-3.09,10.09-6.18,20.18-9.27,30.27-2.67,8.73-5.34,17.45-8.02,26.18-.89,2.89-1.77,5.78-2.66,8.68-.4,1.31-1.08,2.76-1.26,4.12,0,.06-.04.12-.06.18l2.18-.24c.26-5.56.51-11.11.77-16.67.47-10.14.93-20.28,1.4-30.43.17-3.71.34-7.42.51-11.13.06-1.26-.03-2.63.2-3.87.44-2.4,1.35-4.8,2.02-7.14,1.31-4.65,2.63-9.3,3.94-13.95,1.35-4.79,2.7-9.57,4.05-14.36.78-2.75,1.77-5.53,2.35-8.33.03-.14.08-.29.12-.43l-1.5.79c5.6.42,11.2.84,16.81,1.27.91.07,2.28-1.24.81-1.35-5.6-.42-11.2-.84-16.81-1.27-.53-.04-1.34.22-1.5.79-1.83,6.47-3.65,12.93-5.48,19.4l-6.79,24.04c-.27.97-.29,1.84-.34,2.85-.15,3.23-.3,6.46-.44,9.69-.46,10.03-.92,20.06-1.38,30.1-.3,6.63-.7,13.27-.91,19.9,0,.11-.01.22-.02.33-.05,1.03,1.96.49,2.18-.24,1.07-3.49,2.14-6.98,3.21-10.47,2.57-8.38,5.13-16.76,7.7-25.13,3.09-10.09,6.18-20.18,9.27-30.27,2.67-8.73,5.34-17.45,8.02-26.18l2.66-8.68c.4-1.31,1.09-2.77,1.26-4.12,0-.06.04-.12.06-.18.26-.85-1.94-.57-2.18.24Z"/>
    <g>
      <path class="cls-28" d="M-12.1,755.72c1.5,1.13,6.55,3.11,20.15,6.73,14.24,3.79,28.81,6.23,43.51,7.29,46.2,3.33,158.75,8.5,255.45-10.27h0v-62.76l-120.54-10.77-122.52-18.89s39.07-134.05,52.03-192.66c3.66-16.54,6.45-28.32-.46-43.78-3.78-8.46-9.11-17.61-16.49-20.8"/>
      <path class="cls-47" d="M-13.12,756.1c1.55,1.14,3.57,1.76,5.36,2.38,4.67,1.64,9.47,2.95,14.25,4.23,12.96,3.47,26.2,5.87,39.57,7.11,15.51,1.44,31.13,2.09,46.69,2.69,20.26.78,40.54,1.1,60.81.93,23.78-.2,47.56-1.09,71.27-2.9,24.49-1.86,48.93-4.68,73.12-8.98,2.96-.53,5.92-1.08,8.88-1.65.31-.06,1.28-.26,1.28-.73v-62.76c0-.14-.33-.17-.39-.18-13.91-1.24-27.83-2.49-41.74-3.73-21.7-1.94-43.4-3.88-65.09-5.81-4.54-.41-9.12-.68-13.65-1.22-3.59-.43-7.16-1.1-10.73-1.65l-62.77-9.68c-16.1-2.48-32.2-4.97-48.3-7.45l-.77-.12.38.29c1.95-6.69,3.88-13.39,5.8-20.08,4.63-16.13,9.21-32.27,13.73-48.43,5.63-20.12,11.18-40.26,16.56-60.45,4.85-18.19,9.61-36.41,13.9-54.74,2.53-10.79,5.72-21.89,5.83-33.03.07-6.88-1.45-13.55-4.23-19.82-2.57-5.78-5.65-11.63-10.08-16.21-1.92-1.98-4.09-3.6-6.61-4.73-.49-.22-2.47.57-1.78.88,5.87,2.64,9.84,8.33,12.88,13.78,3.33,5.97,6.08,12.39,7.13,19.18,1.88,12.12-1.65,24.46-4.34,36.2-4.08,17.83-8.68,35.54-13.36,53.22-5.29,19.98-10.76,39.92-16.31,59.83-4.68,16.8-9.43,33.58-14.23,50.35-1.56,5.44-3.12,10.88-4.69,16.32-.5,1.72-.99,3.44-1.49,5.16-.24.81-.69,1.76-.76,2.61,0,.11-.07.23-.1.34-.07.24.21.26.38.29,6.05.93,12.1,1.87,18.15,2.8,13.42,2.07,26.84,4.14,40.26,6.21s27.82,4.29,41.73,6.44c7.34,1.13,14.67,2.39,22.02,3.4,4.88.67,9.86.9,14.77,1.34,13.14,1.17,26.28,2.35,39.41,3.52,14.2,1.27,28.4,2.54,42.6,3.8l15.51,1.38c2.66.24,5.37.65,8.05.72.13,0,.4-.01.52.05-.58-.29-.23-.16-.36.21-.15.42,0,1.18,0,1.61v60.77l1.28-.73c-24.02,4.65-48.32,7.76-72.69,9.86-23.55,2.03-47.17,3.11-70.8,3.49-20.86.34-41.73.13-62.59-.56-15.35-.51-30.7-1.28-46.03-2.34-12.26-.85-24.43-2.44-36.44-5.1-6.15-1.36-12.24-2.97-18.28-4.75-3.22-.95-6.52-1.89-9.59-3.27-.65-.29-1.3-.6-1.88-1.02-.51-.37-2.41.49-2.04.76h0Z"/>
    </g>
    <g>
      <path class="cls-28" d="M63.96,667.05s-36.27,1.86-47.53,27.92"/>
      <path class="cls-47" d="M64.13,666.15c-4.54.24-9.13,1.17-13.52,2.3-9.02,2.33-17.82,6.19-24.95,12.28-4.53,3.87-8.21,8.69-10.6,14.16-.6,1.38,2.29,1.15,2.73.17,4.01-9.16,11.53-15.94,20.42-20.28,6.63-3.23,13.92-5.3,21.1-6.34,1.48-.21,2.98-.41,4.48-.49s2.34-1.91.34-1.81h0Z"/>
    </g>
    <path class="cls-15" d="M723.68,375.57c4.94,2.19,8.2,7.64,7.72,12.9-.48,5.27-4.68,9.96-9.93,11.11,2.74,5.95,5.55,12.23,5.03,18.7-.51,6.47-5.61,13.03-12.23,12.81,2.67,4.84,5.43,10.03,4.97,15.48-.46,5.45-5.66,10.78-11.04,9.32,2,4.37,4.05,9,3.58,13.74-.47,4.74-4.45,9.46-9.29,8.99,2.93,4.8,4.74,10.96,2.09,15.84-2.66,4.88-11.29,5.98-13.65.9-1.41-3.03-.07-6.5,1.27-9.53,1.6-3.62,3.21-7.25,4.81-10.87-5.66-6.42-3.16-17.85,4.65-21.26-6.51-7.87-2.75-21.49,6.86-24.88-6.91-9.49-3.75-24.41,6.41-30.19-7.48-8.73-3.36-24.17,7.46-27.97"/>
    <path class="cls-15" d="M743.31,374.75c4.94,2.19,8.2,7.64,7.72,12.9-.48,5.27-4.68,9.96-9.93,11.11,2.74,5.95,5.55,12.23,5.03,18.7-.51,6.47-5.61,13.03-12.23,12.81,2.67,4.84,5.43,10.03,4.97,15.48-.46,5.45-5.66,10.78-11.04,9.32,2,4.37,4.05,9,3.58,13.74-.47,4.74-4.45,9.46-9.29,8.99,2.93,4.8,4.74,10.96,2.09,15.84-2.66,4.88-11.29,5.98-13.65.9-1.41-3.03-.07-6.5,1.27-9.53,1.6-3.62,3.21-7.25,4.81-10.87-5.66-6.42-3.16-17.85,4.65-21.26-6.51-7.87-2.75-21.49,6.86-24.88-6.91-9.49-3.75-24.41,6.41-30.19-7.48-8.73-3.36-24.17,7.46-27.97"/>
    <path class="cls-53" d="M668.8,557.71c18.46,5.76,36.99,11.51,55.64,16.84-4.19,18.14-9.61,36.13-14.44,53.74-10.27,37.45-20.07,75.01-33.9,111.37-9.19,24.16-19.24,42.8-40.63,59.21-.81-9.69-3.48-8.69-6.96-17.63-7.01-18.01-18.38-34.88-33.47-47.09-4.31-3.49-5.31-2.1-10.27-4.58,5.54-25.06,28.5-121.5,51.18-182.09,10.96,3.38,21.91,6.81,32.86,10.23Z"/>
    <path class="cls-39" d="M702.77,722.36s5.26-24.59,3.09-44.14c-2.16-19.55-14.58-31.37-11.07-49.84,3.51-18.47,15.53-48.02,15.53-48.02l34.49,22.53,3.76,55.38-45.79,64.09Z"/>
    <path class="cls-15" d="M723.99,528.44c1.14,4.2,1.31,8.8,1.11,13.11-.22,4.6-.88,9.28-2.76,13.51-3.07,6.89-6.86,13.46-10.23,20.21-4.71,9.43-9.06,19.08-12.41,29.08-3.48,10.39-5.99,21.33-5.81,32.34.17,10.52,3.06,20.88,9.52,29.3.85,1.11,1.75,2.17,2.69,3.19.38.41,1.76-.13,1.34-.6-7.34-8-11.23-18.17-11.97-28.94-.74-10.94,1.45-21.95,4.68-32.35,3.2-10.3,7.54-20.21,12.29-29.87,3.47-7.07,7.35-13.95,10.7-21.08,1.5-3.18,2.38-6.24,2.9-9.76.86-5.79.84-11.88-.39-17.62-.07-.31-.13-.61-.22-.92-.15-.57-1.6-.18-1.45.39h0Z"/>
    <polygon class="cls-53" points="850.47 494.22 834.46 520.33 838.83 491.07 850.47 494.22"/>
    <path class="cls-15" d="M862.39,500.17c-4.54,7.36-9.09,14.72-13.63,22.08-7.23,11.72-14.47,23.44-21.7,35.16-1.65,2.68-3.3,5.35-4.95,8.03l1.25-.34c-3.03-.85-6.06-1.7-9.1-2.55l-2.46-.69c-.37-.1-.89-.15-1.22-.34.19.11,0,.26.17.07.1-.11.17-.28.24-.4,2.41-4.01,4.82-8.01,7.23-12.02,4.16-6.91,8.32-13.83,12.48-20.74,4.08-6.78,8.15-13.55,12.23-20.33l4.22-7.02c.64-1.06,1.64-2.25,2.06-3.42.02-.05.06-.11.09-.16l-1.18.45c4.83.84,9.65,1.69,14.48,2.53.38.07,1.68-.55.91-.69-4.83-.84-9.65-1.69-14.48-2.53-.38-.07-.97.11-1.18.45-4.37,7.26-8.74,14.52-13.1,21.79-6.91,11.49-13.82,22.98-20.74,34.48-1.6,2.65-3.19,5.3-4.79,7.96-.05.09.07.19.13.21,4.27,1.2,8.55,2.39,12.82,3.59.34.1,1.04,0,1.25-.34,4.54-7.36,9.09-14.72,13.63-22.08,7.23-11.72,14.47-23.44,21.7-35.16,1.65-2.68,3.3-5.35,4.95-8.03.31-.5-1.12-.3-1.33.04Z"/>
    <path class="cls-15" d="M825.21,489.34c-1.8,8.17-3.6,16.34-5.4,24.51-2.87,13.02-5.74,26.05-8.61,39.07-.66,2.99-1.32,5.98-1.98,8.97-.16.72,1.21.35,1.42,0,5.51-9.16,11.02-18.32,16.52-27.48,1.39-2.31,2.78-4.62,4.16-6.92.59-.97,1.37-1.98,1.82-3.03.49-1.15.63-2.59.91-3.8.72-3.06,1.45-6.13,2.17-9.19,1.3-5.5,2.6-11,3.9-16.5.05-.21-.15-.33-.31-.39-4.49-1.92-8.98-3.84-13.46-5.77-.56-.24-1.68.57-.85.92,4.49,1.92,8.98,3.84,13.46,5.77l-.31-.39c-1.09,4.61-2.18,9.22-3.27,13.83-.78,3.28-1.55,6.57-2.33,9.85-.43,1.82-.74,3.73-1.3,5.51-.05.17-.06.16,0,.06-.05.11-.13.23-.2.33-.33.51-.63,1.04-.94,1.56-1.24,2.06-2.48,4.13-3.72,6.19-3.57,5.94-7.14,11.87-10.71,17.81-2.31,3.84-4.62,7.68-6.93,11.52h1.42c1.8-8.17,3.6-16.34,5.4-24.52,2.87-13.02,5.74-26.05,8.61-39.07.66-2.99,1.32-5.98,1.98-8.97.15-.66-1.33-.47-1.46.13Z"/>
    <path class="cls-53" d="M887.6,815.95c8.18.11,17.4.9,24.83-1.65.38-1.11.37-1.11.69-2.24,4.71-16.44,4.47-34.43.39-50.98-2.82-11.43-1.6-21.17-9.22-30.33-1.36,1.89-4.83,7.11-4.83,7.11l-197.08-23.01s-20.25,32.62-20.25,32.63c64.78,31.35,129.75,53.13,200.31,67.45,1.72.35,3.44.7,5.17,1.02Z"/>
    <path class="cls-15" d="M697.83,605.94c-3.5-1.29-6.85-3.18-9.9-5.29-2.78-1.92-5.38-4.15-7.52-6.79-.27-.33-.53-.67-.78-1.01-.13-.17-.25-.35-.37-.52-.04-.06-.4-.56-.34-.32,0-.03-.04.15-.02-.01.01-.11.14-.27.19-.37.42-.82.85-1.64,1.27-2.46.91-1.76,1.82-3.52,2.73-5.28l-1.36.23c1.68,2.17,3.63,4.18,5.64,6.04,3.44,3.18,7.47,6.17,12.14,7.15.75.16,1.44-.92.48-1.12-4.51-.95-8.43-4.02-11.73-7.1-1.86-1.74-3.65-3.61-5.22-5.63-.35-.45-1.13-.22-1.36.23-1.41,2.74-2.83,5.48-4.24,8.21-.07.13-.04.31.04.43,3.04,4.6,7.42,8.18,12.12,10.99,2.35,1.4,4.83,2.72,7.41,3.67.66.24,1.69-.71.82-1.03h0Z"/>
    <path class="cls-15" d="M670.51,684.97c3.02.77,5.41,2.75,7.74,4.73,2.63,2.24,5.26,4.49,7.89,6.73,5.26,4.49,10.52,8.98,15.78,13.47.32.28,1.64-.28,1.36-.52-5.38-4.6-10.77-9.19-16.15-13.79-2.61-2.23-5.22-4.47-7.83-6.69-2.28-1.93-4.65-3.79-7.6-4.55-.37-.09-1.65.49-1.18.61h0Z"/>
    <path class="cls-53" d="M638.01,563.71c3.09-10.39,2.73-8.73.28.27-.2-.15-.3-.24-.28-.27Z"/>
    <path class="cls-29" d="M639.95,633.67c-10.73,30.93-5.14,64.04,4.25,76.28,12.02,15.67,16.82,22.48,22.78,35.12,11.78,25-9.24,68.8-19.71,104.62,0,0,95.44,15.95,160.16,21.56,64.72,5.61,142.3-13.82,142.3-13.82-23.92-58.34-33.83-93.87-33.83-93.87l.91-100.7,28.22-94.01c7.39-56.96-19.62-87.99-52.43-104.26l-55.85-32.79s-32.36,70.29-86.52,62.32l-6.67-.73c-45.85-9.31-19.09-50.26-19.09-50.26,0,0-47.24,27.48-60.24,37.63-13,10.15-30.33,26.06-39.17,61.57-8.84,35.51-19.8,70.62-22.94,76.5-3.14,5.89,39.3,17.32,39.3,17.32"/>
    <path class="cls-53" d="M712.16,776.19l168.27-46.2s3.2-9.16,3.67-11.7c12.03,5.58,17.22-.5,25.51,9.65,11.21,13.74,12.02,46.98,14.62,66.6-1.92,2.75-4.03,5.36-6.36,7.76-1.92,1.75-3.7,3.62-5.92,5.09-3.03,2.01-.16-3.68-3.38-1.98-1.1.58-2.21,1.13-3.33,1.66-2.22.73.37-.74-1.71.37-9.37,1.85-1.17,5.23-7.38,6.34-11.7,2.08-28.95,5.54-40.73,7.13-23.35,3.14-57.22,2.35-100.87,3.3-22.29.49-44.85-10.39-67.13-9.85-19.75.48,8.1-10.17-11.65-10.22-8.19-.02-16.39-.07-24.58-.14l60.99-27.83Z"/>
    <path class="cls-53" d="M887.25,552.24c19.31.88,38.7,1.74,58.1,2.16.55,18.61-.12,37.38-.32,55.65-.42,38.83-.36,77.65-4.5,116.33-2.75,25.7-2.59,50.4-19.12,71.7-3.24-9.16-10.72-11.64-16.35-19.4-11.36-15.64-26.63-29.07-44.33-37.04-5.06-2.28-5.67-.68-11.1-1.82-1-25.64-3.29-124.76,3.26-189.12,11.46.48,22.92,1.02,34.38,1.55Z"/>
    <path class="cls-29" d="M844.35,447.94s84.41,20.03,103.16,57.76c18.74,37.73,12.87,128.49,12.87,128.49,0,0-84.77,12.2-127.06,1.9-42.3-10.3,11.04-188.16,11.04-188.16Z"/>
    <path class="cls-53" d="M865.6,807.28s14.99,14.35,43.27,2.75c28.28-11.6,27.36-68.41,26.47-92.62-.91-24.84-72.27,19.02-72.27,19.02l2.53,70.85Z"/>
    <path class="cls-53" d="M460.32,840.18l132.44-113.61s-1.01-9.65-1.68-12.15c13.26-.09,15.36-7.81,27.19-2.16,16,7.64,30.93,37.35,41.65,53.99-.56,3.31-1.36,6.57-2.44,9.74-.99,2.41-1.8,4.86-3.18,7.13-1.89,3.11-1.72-3.26-3.9-.35-.74.99-1.51,1.97-2.3,2.93-1.69,1.61.02-.82-1.39,1.06-7.68,5.67,1.18,5.23-3.97,8.88-9.69,6.88-23.82,17.37-33.79,23.83-19.77,12.81-50.74,26.56-89.81,46.05-19.95,9.95-44.99,9.75-64.91,19.76-17.65,8.87,2.98-12.66-14.9-4.27-7.42,3.48-14.85,6.93-22.29,10.37l43.27-51.2Z"/>
    <path class="cls-13" d="M889.81,754.17c-4.3-3.5-7.73-7.94-11.8-11.69-4.52-4.16-9.85-7.35-16.02-8.19-4.32-.58-8.71-.04-12.9,1.08-1.79.48-1.25,2.51.55,2.03,6.51-1.73,13.3-1.65,19.29,1.68,4.85,2.69,8.65,6.76,12.42,10.75,1.99,2.1,3.99,4.2,6.23,6.03,1.02.83,3.53-.63,2.23-1.7h0Z"/>
    <path class="cls-50" d="M645.95,536.06c.96,1.37,1.38,3.14,1.76,4.74.59,2.51.96,5.07,1.25,7.63.74,6.39,1.03,12.85,1.11,19.28.07,5.59.03,11.22-.46,16.79-.55,6.25-2.6,12.33-4.31,18.34-3.06,10.78-6.15,21.62-7.48,32.78l1.66-.87c-.19-.02.16.03.11.02-.13-.04-.29-.04-.42-.06-.48-.08-.96-.16-1.44-.26-1.81-.35-3.6-.78-5.38-1.27-6.02-1.66-11.86-3.97-17.41-6.82-4.21-2.16-8.24-4.65-12.07-7.42l.18.66c1.74-3.75,3.48-7.5,5.22-11.25l-2.07.55c3.63,2.05,7.56,3.65,11.41,5.23,6.84,2.82,13.88,5.72,21.08,7.51.73.18,1.56.44,2.32.43.5,0,1.34-.15,1.58-.68.22-.48-.19-.79-.67-.79-.09,0-.4-.04-.22-.02s-.28-.05-.38-.07c-.27-.05-.54-.11-.81-.18-2.28-.54-4.51-1.28-6.72-2.03-7.58-2.58-15.11-5.5-22.34-8.94-1.13-.54-2.26-1.08-3.35-1.69-.55-.31-1.78-.06-2.07.55-1.74,3.75-3.48,7.5-5.22,11.25-.14.3-.08.47.18.66,10.33,7.48,22.39,13.1,34.94,15.61.88.18,1.77.34,2.66.46.47.06,1.58-.26,1.66-.87,1.21-10.1,3.85-19.95,6.61-29.72,1.22-4.32,2.48-8.62,3.59-12.97.62-2.41,1.21-4.79,1.47-7.26.57-5.37.62-10.82.58-16.22-.04-6.52-.28-13.06-.93-19.55-.3-2.98-.68-5.96-1.32-8.89-.42-1.93-.92-4.01-2.07-5.65-.5-.72-2.82.11-2.22.97h0Z"/>
    <path class="cls-50" d="M960.35,633.21c-3.63.58-7.27,1.08-10.91,1.56-8.97,1.2-17.96,2.23-26.97,3.09-11.45,1.09-22.94,1.89-34.44,2.2s-22.2.22-33.2-1.11c-2.39-.29-4.77-.64-7.13-1.09-1.57-.3-3.12-.78-4.7-.98l-11.39-1.39-1.08-.13.44.42c1.59-15.45,2.96-30.92,4.22-46.39.78-9.63,1.47-19.29,2.69-28.88.89-7,2.17-13.94,4.24-20.7,2.44-7.97,5.56-16.15,10.05-23.19,3.67-5.76,8.12-11.12,13.16-15.74,4.65-4.25,10.14-8.38,16.38-9.85,1.34-.31,2.7-.45,4.08-.43.42,0,1.41-.17,1.59-.63.19-.48-.16-.59-.62-.59-6.16-.1-11.99,2.71-16.96,6.12-5.79,3.98-10.83,9.11-15.18,14.62-3.73,4.72-6.88,9.8-9.3,15.31-1.57,3.57-3.04,7.18-4.32,10.87-2.33,6.71-3.92,13.63-4.96,20.66-1.36,9.16-2.05,18.42-2.81,27.64-1.21,14.8-2.45,29.6-3.91,44.37-.24,2.39-.48,4.78-.72,7.16-.03.28.19.39.44.42,3.44.42,6.88.84,10.32,1.26s7.03,1.34,10.58,1.87c10.74,1.62,21.69,1.85,32.53,1.7,11.71-.17,23.41-.9,35.08-1.93,9.56-.84,19.11-1.89,28.63-3.12,4.54-.59,9.1-1.14,13.61-1.91.06-.01.13-.02.19-.03.34-.05,1.36-.29,1.38-.76s-.67-.47-1.01-.41h0Z"/>
    <path class="cls-50" d="M830,617.72c4.79.5,9.6.9,14.4,1.28,11.1.88,22.22,1.55,33.36,1.93,12.55.43,25.16.56,37.7-.28,11.34-.76,22.78-1.84,33.99-3.79,2.1-.37,4.22-.75,6.28-1.33.7-.2,1.48-.39,2.12-.74.11-.06.21-.12.31-.18.45-.29.57-.89.13-1.23-.49-.39-1.26-.14-1.72.15.58-.36.12-.02,0-.03s-.58.21-.08.04c-.2.07-.39.13-.59.2-1.68.53-3.42.87-5.15,1.2-10.42,1.97-21.08,2.85-31.63,3.73-12.26,1.02-24.6,1.01-36.89.67-11.34-.32-22.68-.95-33.99-1.81-5.72-.43-11.43-1.03-17.15-1.49-.09,0-.17-.02-.26-.03-1.17-.12-2.45,1.57-.83,1.73h0Z"/>
    <path class="cls-15" d="M847.34,344.28c5.13,1.7,8.87,6.81,8.86,12.1,0,5.29-3.76,10.35-8.89,11.99,3.27,5.66,6.64,11.64,6.71,18.12.07,6.49-4.42,13.49-11.04,13.91,3.1,4.56,6.32,9.46,6.36,14.92.04,5.46-4.66,11.26-10.17,10.32,2.39,4.16,4.85,8.57,4.81,13.33-.04,4.76-3.58,9.83-8.45,9.82,3.35,4.5,5.72,10.45,3.51,15.55-2.21,5.1-10.71,7.02-13.53,2.19-1.68-2.88-.66-6.46.4-9.59,1.27-3.76,2.54-7.51,3.81-11.27-6.22-5.85-4.77-17.45,2.71-21.59-7.2-7.21-4.69-21.11,4.59-25.4-7.75-8.78-5.94-23.92,3.66-30.64-8.25-7.97-5.54-23.72,4.91-28.53"/>
    <path class="cls-15" d="M887.66,332.91c5.28,1.14,9.58,5.82,10.17,11.07.59,5.26-2.56,10.7-7.47,12.89,3.89,5.27,7.91,10.85,8.72,17.29.81,6.44-2.86,13.9-9.39,15.02,3.6,4.19,7.35,8.72,8,14.15.66,5.43-3.35,11.71-8.93,11.36,2.85,3.88,5.79,8,6.29,12.73.5,4.74-2.44,10.17-7.28,10.68,3.84,4.11,6.86,9.77,5.25,15.09-1.61,5.31-9.84,8.14-13.19,3.64-1.99-2.68-1.38-6.36-.69-9.58.84-3.87,1.67-7.75,2.51-11.62-6.84-5.14-6.71-16.84.25-21.76-7.97-6.39-7.05-20.49,1.68-25.76-8.69-7.9-8.61-23.14.16-30.86-9.09-7.04-8.19-22.99,1.64-28.9"/>
    <path class="cls-15" d="M889.73,384.22c5.28,1.14,9.58,5.82,10.17,11.07.59,5.26-2.56,10.7-7.47,12.89,3.89,5.27,7.91,10.85,8.72,17.29.81,6.44-2.86,13.9-9.39,15.02,3.6,4.19,7.35,8.72,8,14.15.66,5.43-3.35,11.71-8.93,11.36,2.85,3.88,5.79,8,6.29,12.73.5,4.74-2.44,10.17-7.28,10.68,3.84,4.11,6.86,9.77,5.25,15.09-1.61,5.31-9.84,8.14-13.19,3.64-1.99-2.68-1.38-6.36-.69-9.58.84-3.87,1.67-7.75,2.51-11.62-6.84-5.14-6.71-16.84.25-21.76-7.97-6.39-7.05-20.49,1.68-25.76-8.69-7.9-8.61-23.14.16-30.86-9.09-7.04-8.19-22.99,1.64-28.9"/>
    <path class="cls-15" d="M878.58,337.2c5.13,1.7,8.87,6.81,8.86,12.1,0,5.29-3.76,10.35-8.89,11.99,3.27,5.66,6.64,11.64,6.71,18.12.07,6.49-4.42,13.49-11.04,13.91,3.1,4.56,6.32,9.46,6.36,14.92.04,5.46-4.66,11.26-10.17,10.32,2.39,4.16,4.85,8.57,4.81,13.33-.04,4.76-3.58,9.83-8.45,9.82,3.35,4.5,5.72,10.45,3.51,15.55-2.21,5.1-10.71,7.02-13.53,2.19-1.68-2.88-.66-6.46.4-9.59,1.27-3.76,2.54-7.51,3.81-11.27-6.22-5.85-4.77-17.45,2.71-21.59-7.2-7.21-4.69-21.11,4.59-25.4-7.75-8.78-5.94-23.92,3.66-30.64-8.25-7.97-5.54-23.72,4.91-28.53"/>
    <path class="cls-15" d="M858.11,383.93c4.98,2.08,8.31,7.45,7.89,12.72-.42,5.27-4.56,10.03-9.8,11.29,2.82,5.89,5.71,12.09,5.28,18.56-.43,6.47-5.46,13.12-12.09,13.04,2.74,4.77,5.56,9.9,5.17,15.35-.39,5.44-5.53,10.88-10.95,9.52,2.06,4.33,4.17,8.9,3.76,13.64-.41,4.74-4.34,9.53-9.2,9.16,2.99,4.73,4.89,10.84,2.29,15.76-2.6,4.92-11.23,6.2-13.66,1.17-1.45-2.99-.15-6.49,1.15-9.53,1.56-3.65,3.12-7.3,4.68-10.95-5.75-6.29-3.39-17.75,4.39-21.31-6.62-7.73-3.03-21.39,6.56-24.98-7.05-9.33-4.06-24.29,6.04-30.26-7.6-8.56-3.67-24.06,7.12-28.07"/>
    <path class="cls-15" d="M870.57,378.72c5.28,1.14,9.58,5.82,10.17,11.07.59,5.26-2.56,10.7-7.47,12.89,3.89,5.27,7.91,10.85,8.72,17.29.81,6.44-2.86,13.9-9.39,15.02,3.6,4.19,7.35,8.72,8,14.15.66,5.43-3.35,11.71-8.93,11.36,2.85,3.88,5.79,8,6.29,12.73.5,4.74-2.44,10.17-7.28,10.68,3.84,4.11,6.86,9.77,5.25,15.09-1.61,5.31-9.84,8.14-13.19,3.64-1.99-2.68-1.38-6.36-.69-9.58.84-3.87,1.67-7.75,2.51-11.62-6.84-5.14-6.71-16.84.25-21.76-7.97-6.39-7.05-20.49,1.68-25.76-8.69-7.9-8.61-23.14.16-30.86-9.09-7.04-8.19-22.99,1.64-28.9"/>
    <path class="cls-11" d="M738.15,217.8c5.06-1.8,12.83-.08,12.83-.08,0,0,7.13-8.09,16.75-11.62,9.62-3.53,21.94,3.06,21.94,3.06,0,0,4.47-5.36,15.29-6.2,10.81-.84,20.91,8.84,20.91,8.84,0,0,12.34-6.01,23.75,1.37,9.61,6.22,12.48,14.18,12.48,14.18,22.38,2.78,27.39,18.81,26.24,35.44,3.16,1.6,6.71,3.78,8.23,6.68,14.24,27.21,5.37,61.59-4.53,68.65l-15.29-6,2.28-33.78c-1.33,3.17-2.27,5.08-2.27,5.08l-11.32,25.51-21.66-77.32s-89.85-17.61-100.34-17.24c-10.5.37-22.29,20.25-22.29,20.25,2.08-8.45,4.88-32.51,17-36.81Z"/>
    <path class="cls-53" d="M842.91,379.48s-15.98,39.74-12.05,70.45c.55,4.28,17.44,15.25,17.44,15.25l-30.85,10.08c-16.95-.21-44.97-3.35-66.71-12.27-9.49-3.9-23.49-7.57-28.96-16.25h0s19.65-1.36,21.85-5.95c2.2-4.59,9.09-46.49,9.09-46.49"/>
    <path class="cls-53" d="M709.36,453.58c9.03-1.47,21.3-12.12,22.19-12.57.53-.27,1.07-.55,1.45-.99.57-.67.67-1.59.74-2.45,2.07-24.2,3.46-48.45,4.72-72.71l102.69,6.26s-15.76,48.42-7.44,71.22c.11.3,2.04,3.7,2.04,3.7l21.7,18.46c-15.94,10.19-21.38,19.96-39.5,24.77-19.4,5.15-39.7,8.12-59.7,5-11.24-1.75-22.09-5.36-32.83-9.08-7.13-2.47-9.39-4.32-13.56-7.48-2.13-4.37-3.82-9.08-4.93-13.87.08-6.79-2.21-4.08,2.44-10.27Z"/>
    <path class="cls-42" d="M814.93,411.77s-4.84,35.16-61.71,27.87l-19.49-2.07.67-9.85,80.53-15.95Z"/>
    <path class="cls-53" d="M875.81,339.32l-.54-1.32c-3.81-4.34-11.5-7.4-15.99-2.11-1.59,2.37-3.87,4.97-5.46,7.35-1.65,2.74-4.32,8.36-6.71,10.61,0,0,12.92-26.49,14.4-33.38,1.47-6.88,3.9-24.07-6.92-35.86,0,0-4.91-6.67-9.67-13.66-2.7-2.17-5.51-4.22-8.42-6.11-9.86-6.4-20.64-11.19-31.79-14.85-10.74-3.53-21.92-6.28-33.13-7.81-15.68-2.14-32.56-1.47-46.23,6.29-3.3,4.75-8.67,13.25-14.68,25.81-8.1,16.94-8.7,44.81-9.21,50.72-.44,5.12-3.55,11.31-4.98,16.48-7.78,28.05,5.23,48.65,19.73,83.41,4.24,10.17,30.56,10.82,39.51,11.45,38.28,2.68,48.3-11.14,59.23-24.57l21.56-17.03,3.11-5.72c1.92,12.03,18.66,7.08,22.42-8.25,13.56-11.93,18.6-32.23,13.79-41.45Z"/>
    <path class="cls-53" d="M762.87,261.21c15.11,6.69,27.08,17.94,37.8,30.28,5.24,6.03,10.23,12.28,15.36,18.41,4.29,5.13,7.77,10.79,11.46,16.35,3.62,5.46,7.59,11.27,12.98,15.13,4.76,3.41,10.27,4.15,16,3.52,4.93-.55,9.74-1.75,14.54-2.92,1.14-2.84,19.72-50.07,6.06-79.96-14.09-30.83-50.9-42.64-79.45-43.31-28.56-.67-47.79.94-63.63,21.11-2.86,3.64-5.69,8.06-8.41,12.88,12.74,1.52,25.45,3.27,37.29,8.51Z"/>
    <g>
      <path class="cls-15" d="M838.59,282.23c-.93,1.59-1.88,3.24-2.11,5.07-.23,1.83.44,3.91,2.07,4.77.82.44,1.83.55,2.5,1.19,2.19,2.12-1.94,5.79-.82,8.62.86,2.16,4.11,2.24,5.41,4.17,2.16,3.22-2.71,8.5.22,11.05,1.67,1.45,4.93.68,5.82,2.71.4.91.06,1.97-.26,2.91-.91,2.69-1.33,6.19.95,7.88,2.25,1.66,6.33.85,7.28,3.48.47,1.3-.23,2.78.16,4.11.52,1.74,2.67,2.43,4.48,2.29,1.81-.14,5.11-3.04,6.92-2.89,3.62.29,5.08,6.02,8.68,5.54,2.55-.34,4.53-3,4.17-5.55-.36-2.55-2.97-4.54-5.52-4.27-.99.11-1.98.5-2.96.34-3.29-.55-2.99-6.03-5.93-7.61-.73-.39-1.62-.51-2.22-1.09-1.39-1.33-.19-3.92-1.32-5.49-1.23-1.72-4.29-.99-5.6-2.66-1.81-2.31,1.88-5.81.56-8.43-1.06-2.12-4.57-1.94-5.64-4.05-1.2-2.38,1.75-5.46.38-7.74-1.62-2.71-7.66-1.43-7.53-4.59.02-.5.24-.97.26-1.46.07-1.69-1.94-2.53-3.48-3.25-2.6-1.22-4.72-3.42-5.84-6.06"/>
      <path class="cls-15" d="M838.43,282.21c-1.57,2.69-3.69,7.06-.58,9.57,1.41,1.14,3.92,1.05,3.66,3.46-.16,1.45-1.01,2.75-1.4,4.14-.35,1.23-.35,2.52.58,3.5,1,1.05,2.5,1.39,3.68,2.19,3.12,2.12.95,5.81.47,8.68-.18,1.09-.16,2.28.61,3.15.89,1.01,2.29,1.17,3.53,1.45.77.17,1.67.36,2.21.99.9,1.04.39,2.41.02,3.56-.49,1.54-.84,3.21-.61,4.83.51,3.55,3.69,3.7,6.5,4.53.75.22,1.55.54,2.03,1.19.78,1.05.43,2.32.4,3.52-.04,1.51.67,2.65,2.08,3.22,2.96,1.21,5.09-.72,7.63-1.94,1.86-.9,3.3-.43,4.76.94,1,.94,1.81,2.08,2.86,2.97,2.01,1.7,4.65,1.21,6.27-.82,2.04-2.56,1.17-6.16-1.74-7.62-.59-.3-1.24-.49-1.9-.55-1.05-.09-2,.35-3.03.37-2.05.04-2.94-1.44-3.68-3.12-.53-1.19-.97-2.48-1.8-3.5-1.07-1.3-3.33-1.3-3.91-2.94-.52-1.48.18-3.26-.78-4.61-.8-1.12-2.34-1.23-3.56-1.56-4.79-1.27-.95-5.36-1.18-8.42-.25-3.4-5-2.63-6.04-5.41-.99-2.65,2.5-5.95-.13-8.2-.96-.82-2.3-1.08-3.49-1.36-1.12-.27-2.86-.52-3.32-1.78-.3-.83.25-1.62.15-2.45-.07-.63-.43-1.13-.89-1.54-1.27-1.11-3.01-1.54-4.38-2.52-1.78-1.26-3.15-2.99-4.03-4.98-.06-.14-.4-.04-.34.09.72,1.61,1.73,3.06,3.06,4.24s2.82,1.77,4.32,2.6c.76.42,1.63.98,1.87,1.87.23.85-.33,1.64-.17,2.49s.88,1.34,1.65,1.65c2.29.91,6.52.82,6.2,4.32-.25,2.7-2.37,5.61.8,7.38,1.25.7,2.9.98,3.82,2.16,1.14,1.45.31,3.34-.22,4.85-.39,1.11-.86,2.41-.34,3.55s1.76,1.5,2.88,1.77c.74.17,1.54.29,2.2.68,1.06.61,1.3,1.67,1.34,2.8.05,1.28-.1,2.8,1.09,3.63.65.46,1.49.57,2.17,1,.61.38,1.06.97,1.42,1.57.7,1.17,1.09,2.48,1.73,3.68.5.94,1.17,1.83,2.23,2.15.57.17,1.15.14,1.74.06,1.4-.2,2.59-.51,3.95.07,1.9.8,3.27,2.69,3.12,4.8-.16,2.16-2.02,4.34-4.26,4.45-2.9.14-4.41-3.66-6.61-4.98-2.37-1.42-4.52.36-6.62,1.48-1.67.89-3.58,1.23-5.27.1-2.17-1.46-.56-3.76-1.38-5.73-1.06-2.54-4.89-1.96-6.91-3.17-1.66-.99-2.09-2.91-1.97-4.72.06-.85.23-1.7.46-2.52.26-.94.74-1.9.69-2.9-.17-3.22-4.81-1.99-6.37-3.94-1.75-2.19.55-5.77.7-8.17.07-1.14-.2-2.24-1.04-3.06-1.01-.99-2.44-1.34-3.59-2.11-3.3-2.22-.11-5.41.12-8.24.09-1.16-.51-1.99-1.55-2.47-.91-.42-1.83-.59-2.54-1.35-.66-.71-1.01-1.67-1.13-2.62-.29-2.32.98-4.48,2.11-6.41.09-.16-.26-.15-.33-.03h0Z"/>
    </g>
    <g>
      <path class="cls-15" d="M845.65,271.03c-1.66,1.3-2.33,3.71-1.59,5.68s2.84,3.34,4.94,3.22c-1.22,2.44,0,5.78,2.5,6.86,1.07.46,2.34.58,3.18,1.39,2.06,2-.24,6.15,1.86,8.11.79.74,2,.9,2.77,1.66,1.59,1.55.41,4.41,1.49,6.35,1.32,2.38,5.28,2.23,6.46,4.68.83,1.72-.01,4.23,1.53,5.35.81.59,2.03.51,2.68,1.27.79.92.22,2.3.08,3.5-.35,2.97,2.92,5.74,5.8,4.91-.17,2,.55,4.07,1.91,5.54,1.47-1.79,2.98-3.64,3.61-5.87.63-2.23.16-4.94-1.73-6.27-.73-.52-1.64-.81-2.23-1.49-1.48-1.73-.08-4.84-1.69-6.45-1.08-1.08-3.14-1-3.83-2.36-.33-.66-.21-1.44-.24-2.17-.11-2.6-2.52-4.89-5.13-4.87-.74,0-1.53.16-2.18-.21-1.85-1.06.2-4.01-.51-6.03-.69-1.98-3.82-2.33-4.31-4.37-.16-.68.03-1.39-.07-2.09-.15-1.1-.96-1.97-1.74-2.75-4.01-4.03-8.15-7.92-12.42-11.67"/>
      <path class="cls-15" d="M845.5,271.04c-2.02,1.71-2.58,4.79-.91,6.95.72.93,1.76,1.6,2.9,1.88.39.1,1.08-.05,1.22.37.04.12-.24.74-.26.89-.06.31-.09.63-.09.94,0,2.57,1.68,4.39,4.01,5.14,1.52.49,2.71,1.08,3.01,2.78.22,1.23,0,2.48.05,3.72.05,1.11.32,2.18,1.25,2.88,1.38,1.03,2.93,1.14,3.3,3.11.23,1.23.02,2.51.32,3.73.31,1.25,1.16,2.04,2.27,2.62.97.52,2.04.85,2.98,1.42,1.34.81,1.84,1.95,1.98,3.47.1,1.1.03,2.43.89,3.27,1.04,1.02,3.01.6,3.3,2.39.14.85-.23,1.72-.31,2.57-.07.77.06,1.51.39,2.21.52,1.1,1.47,1.99,2.58,2.48.6.27,1.26.41,1.92.4.76-.01.78-.25.89.62.23,1.82.71,3.35,1.94,4.75.06.07.27-.01.32-.07,1.66-2.02,3.49-4.23,3.83-6.92.3-2.34-.56-4.48-2.61-5.68-1.16-.68-2.02-1.33-2.25-2.73-.19-1.15,0-2.35-.3-3.49-.25-.96-.85-1.56-1.74-1.98-1.09-.51-2.5-.71-2.92-2.02-.37-1.14,0-2.32-.49-3.47-.42-.99-1.16-1.84-2.06-2.43-.72-.47-1.55-.77-2.42-.83-1.4-.1-3.17.21-3.25-1.68-.09-1.96,1.23-4.01-.47-5.64-.68-.66-1.56-1.06-2.31-1.62-1.26-.95-1.22-1.86-1.28-3.31s-.99-2.39-1.95-3.35c-1.28-1.29-2.58-2.56-3.88-3.81-2.73-2.62-5.52-5.18-8.37-7.68-.07-.07-.39.07-.32.12,2.43,2.14,4.82,4.31,7.17,6.54,1.09,1.03,2.17,2.07,3.24,3.12,1.13,1.11,2.67,2.28,3.4,3.71.58,1.13.05,2.37.54,3.49.35.81,1.12,1.31,1.84,1.77.82.53,1.79,1.05,2.24,1.98.49,1.03.17,2.23-.02,3.29-.31,1.72-.14,3.26,1.96,3.25,1.51,0,2.73.1,3.96,1.07,1.06.83,1.81,2.06,1.98,3.4.12.99-.17,2.06.53,2.89s1.92.97,2.83,1.47c2.27,1.22,1.25,3.88,1.87,5.9.41,1.34,1.55,1.74,2.63,2.46,1.22.81,1.91,2.14,2.09,3.58.44,3.37-1.8,6.17-3.8,8.62l.32-.07c-1.37-1.56-2.01-3.46-1.9-5.53,0-.06-.17-.02-.19-.02-2.48.6-5.11-1.29-5.57-3.76-.29-1.6,1.17-4.01-.67-5.06-1-.58-2.2-.46-2.8-1.65-.43-.85-.38-1.89-.47-2.82-.19-1.89-1.09-2.94-2.77-3.75-1.54-.74-3.5-1.26-4.24-2.97-.79-1.81.16-4.19-1.12-5.81-.47-.59-1.14-.86-1.79-1.18-1.11-.54-1.84-1.21-2.07-2.47-.32-1.74.31-3.61-.31-5.3-.79-2.15-3.38-1.85-4.93-3.12-1.8-1.47-2.39-4.08-1.43-6.18.02-.05-.08-.05-.1-.05-4.76.08-6.84-5.8-3.27-8.83.08-.07-.25-.04-.31.02h0Z"/>
    </g>
    <g>
      <path class="cls-15" d="M850.26,265.7c-1.07,3.1.97,6.9,4.15,7.73.62.16,1.3.24,1.81.63,1.07.82.84,2.44,1.13,3.76.65,2.97,4.06,4.4,7.08,4.77,1.93.24,4.39.65,4.81,2.55.17.75-.06,1.57.23,2.28.77,1.89,4.36,1.44,4.72,3.45.17.92-.55,1.81-.43,2.74.25,1.97,3.35,1.77,4.67,3.25.61.68.76,1.66.88,2.57.37,2.78.73,5.56,1.1,8.34.09.68.25,1.47.86,1.79,1.03.53,2.04-.76,2.46-1.84,2.35-6.1,3.12-12.81,2.19-19.28-.23-1.62-.96-3.59-2.6-3.69-.54-.03-1.13.16-1.6-.11-.76-.45-.48-1.58-.29-2.45.78-3.57-2.57-7.4-6.21-7.11-.98.08-2.14.34-2.81-.38-.44-.48-.45-1.21-.66-1.83-.55-1.59-2.39-2.31-4.06-2.51-1.67-.21-3.44-.12-4.92-.92-1.85-1-2.93-3.25-4.96-3.82-2.46-.69-5.49,1.33-7.44-.31"/>
      <path class="cls-15" d="M850.08,265.72c-.59,1.92-.18,3.98,1.02,5.59.52.7,1.19,1.3,1.96,1.72,1.17.64,2.92.49,3.57,1.82.45.92.32,2.03.54,3.01.23.99.76,1.84,1.5,2.53,1.43,1.32,3.43,1.95,5.32,2.24,2.18.33,5.01.56,5.14,3.31.05.95.03,1.72.83,2.35.65.51,1.49.72,2.25,1.01s1.63.7,1.8,1.6c.21,1.1-.78,2.11-.3,3.21.62,1.44,2.79,1.54,3.96,2.32s1.35,2.2,1.52,3.52c.22,1.63.43,3.27.65,4.9.16,1.25-.04,5.06,2.01,4.89,1.89-.16,2.52-3.29,2.94-4.66.84-2.76,1.37-5.62,1.58-8.51.2-2.77.16-5.63-.31-8.37-.26-1.51-.91-3.42-2.68-3.58-.8-.07-1.75.21-1.97-.85-.11-.54.09-1.11.18-1.64.18-1.02.13-2.02-.23-3-.68-1.86-2.27-3.41-4.18-3.97-1.02-.3-1.9-.14-2.94-.11-2.31.07-1.73-1.46-2.63-2.87-1.42-2.23-4.55-1.86-6.78-2.24-1.68-.29-2.82-1.14-3.98-2.31-.77-.78-1.56-1.62-2.61-2.02-2.51-.96-5.46,1.28-7.73-.4-.09-.07-.41.07-.32.13,1.43,1.06,3.13.6,4.75.35,1.49-.24,2.88-.23,4.13.71.85.64,1.53,1.48,2.32,2.19,1.74,1.56,3.77,1.55,5.98,1.8,1.16.13,2.38.43,3.29,1.2.98.83.8,1.9,1.4,2.88.35.57.94.75,1.57.78,1.3.05,2.48-.25,3.76.23,2.07.78,3.7,2.84,3.94,5.04.13,1.19-1.1,3.86.65,4.29.67.17,1.33-.13,2,.22.52.28.87.74,1.13,1.27.48.94.62,2.01.74,3.05.67,5.66.06,11.46-1.77,16.85-.24.71-.46,1.49-.85,2.14-.53.9-1.88,1.63-2.44.38s-.51-3.09-.69-4.46-.34-2.62-.52-3.92c-.16-1.19-.18-2.62-1.02-3.57-1.09-1.23-3.03-1.1-4.15-2.24-1.38-1.39.85-3.33-.64-4.7-1.1-1.01-3.03-.83-3.93-2.09-.69-.96-.13-2.2-.65-3.22-.32-.62-.91-1.04-1.54-1.32-2.05-.92-4.42-.71-6.51-1.6-1.11-.48-2.18-1.17-2.9-2.16-.75-1.05-.81-2.18-.98-3.41-.13-.92-.39-1.82-1.27-2.27-1.17-.6-2.39-.57-3.48-1.43-1.98-1.56-2.87-4.26-2.12-6.67.03-.11-.31-.06-.34.05h0Z"/>
    </g>
    <g>
      <path class="cls-15" d="M855.63,262.61c3.73,2.33,9.01-2.98,12.68-.57,1.78,1.17,2.7,3.95,4.82,3.86.97-.04,1.9-.75,2.84-.52,1.97.46,1.19,3.59,2.29,5.29,1.37,2.12,5.16,1.26,6.59,3.35.4.59.53,1.32.89,1.94.67,1.16,1.99,1.72,3.12,2.43,1.13.71,2.23,1.89,1.97,3.2,3.37-4.22,3.11-10.92-.59-14.86-.4-.42-.84-.84-1.06-1.38-.21-.53-.18-1.12-.2-1.68-.13-2.86-1.9-5.59-4.46-6.87-.89-.45-1.92-.77-2.51-1.58-.82-1.14-.42-2.73-.75-4.1-.78-3.19-4.97-3.99-7.18-6.41-.92-1.01-1.48-2.29-2.33-3.36-.91-1.14-2.14-2.02-3.52-2.5-1.1-.38-2.49-.44-3.24.45-.51.61-.56,1.48-.92,2.19-.92,1.79-3.39,1.95-5.4,1.74s-4.37-.41-5.69,1.11c-1.88,2.15.05,5.57-.7,8.33-.33,1.21-1.17,2.24-1.39,3.48-.2,1.13.15,2.27.5,3.37.61,1.93,1.22,3.87,1.83,5.8"/>
      <path class="cls-15" d="M855.49,262.72c2.32,1.33,4.96.19,7.29-.54,1.56-.49,3.34-1.01,4.91-.28s2.24,2.34,3.48,3.39c.88.74,1.81.88,2.9.55,1.15-.34,2.41-.54,2.94.76.26.63.31,1.34.42,2.01.2,1.19.5,2.32,1.57,3.01s2.49.8,3.72,1.2c1.04.34,1.83.87,2.29,1.88.36.81.58,1.54,1.25,2.17,1.52,1.44,4.68,2.11,4.39,4.75-.02.17.28.11.34.03,1.72-2.23,2.54-4.99,2.38-7.81-.09-1.58-.47-3.14-1.16-4.56-.65-1.33-1.64-2.24-2.5-3.4-.62-.84-.47-1.81-.58-2.79-.1-.83-.33-1.64-.67-2.4-.58-1.27-1.46-2.39-2.57-3.24-1.44-1.08-3.6-1.34-4.11-3.3-.39-1.49.02-2.94-.84-4.32-1.47-2.36-4.54-3.07-6.45-4.97-1.28-1.28-1.91-3.05-3.22-4.32-.98-.95-2.26-1.74-3.62-2-.97-.18-2.11-.09-2.8.71-.39.45-.51,1.05-.7,1.6-.41,1.17-1.17,1.84-2.39,2.14-2.67.66-5.97-.98-8.38.81-2.89,2.14-.41,6.42-1.41,9.26-.33.92-.9,1.75-1.16,2.7s-.14,1.85.1,2.77c.59,2.3,1.42,4.57,2.14,6.84.05.16.42.06.37-.1-.56-1.79-1.13-3.57-1.69-5.36-.22-.7-.47-1.4-.59-2.12-.23-1.36.11-2.36.69-3.57s.89-2.35.81-3.74c-.08-1.54-.55-3.14-.2-4.67.9-3.91,5.74-2.12,8.53-2.44.88-.1,1.79-.35,2.5-.91,1.34-1.08.92-3.47,3.01-3.74,1.78-.23,3.75,1.14,4.87,2.41s1.75,2.93,3.03,4.1c1.76,1.62,4.24,2.35,5.8,4.18,1.05,1.23.99,2.56,1.13,4.09.14,1.44.78,2.28,2.06,2.92s2.52,1.27,3.51,2.44c1.07,1.26,1.76,2.85,1.92,4.5.08.81-.03,1.61.38,2.35.34.62.94,1.08,1.38,1.62,1.03,1.26,1.74,2.76,2.13,4.33.84,3.4.16,7.08-1.98,9.87l.34.03c.18-1.61-1.05-2.71-2.32-3.48-.85-.52-1.84-.97-2.47-1.78-.56-.72-.69-1.64-1.2-2.37-1.77-2.55-6.1-.95-7.03-4.45-.31-1.15-.17-2.67-.97-3.64s-1.98-.53-3.02-.25c-2.35.64-3.3-1.53-4.69-2.94-.91-.92-2-1.4-3.3-1.39-3.34.02-7,3.09-10.23,1.23-.13-.07-.46.11-.29.2h0Z"/>
    </g>
    <g>
      <path class="cls-15" d="M843.99,260.87c-2.2-1.43-2.65-4.94-.87-6.88.59-.64,1.44-1.33,1.22-2.18-.09-.36-.38-.64-.61-.94-1.5-1.87-1-5,1-6.3.42-.28.91-.49,1.23-.87,1.33-1.61-1.05-4.65.61-5.92,1.4-1.07,3.38.96,5.06.45,1.63-.5,1.83-2.99,3.4-3.68,2.32-1.02,5.44,2.7,7.1.78.86-1,.09-2.65-1.06-3.31-1.15-.66-2.54-.73-3.78-1.18-3.23-1.17-4.97-4.61-7.67-6.74-2.81-2.21-6.51-2.87-10.03-3.46-1.51-.25-3.08-.5-4.57-.14-2.3.56-4.11,2.7-4.3,5.06-.04.46-.04.98-.38,1.29-.2.18-.47.25-.73.31-1.31.31-2.61.62-3.92.93-.5.12-1.04.27-1.33.69-.66.97.63,2.13,1.77,2.4,1.14.27,2.59.48,2.94,1.6.66,2.09-3.43,3.04-3.33,5.23.11,2.26,4.3,2.22,4.68,4.45.23,1.33-1.13,2.45-1.19,3.79-.06,1.38,1.24,2.43,2.5,2.99,1.26.57,2.7.97,3.54,2.06.64.83.82,1.92,1.19,2.91,1.13,2.99,3.99,4.91,6.68,6.63"/>
      <path class="cls-15" d="M844.15,260.81c-2.06-1.46-2.64-4.57-1.07-6.61.64-.83,1.87-1.57,1.28-2.77-.25-.5-.71-.86-.95-1.38-.26-.56-.38-1.18-.39-1.8,0-1.22.47-2.47,1.37-3.3.83-.76,1.92-.96,2.13-2.2.15-.91-.17-1.84-.31-2.73-.07-.47-.16-1.03,0-1.49.48-1.4,2.09-.83,3.06-.5,1.34.45,2.62.59,3.6-.59.66-.79.98-1.98,1.83-2.59,1.32-.95,2.96.09,4.21.62,1,.42,2.27.86,3.19.04.62-.55.67-1.4.36-2.13-.49-1.15-1.59-1.65-2.72-1.97-1.34-.37-2.66-.61-3.84-1.39-1.08-.71-1.98-1.66-2.85-2.62-1.93-2.13-3.74-4.03-6.46-5.13s-5.8-1.66-8.7-1.93c-2-.19-3.98.14-5.49,1.55-.78.73-1.37,1.66-1.67,2.69-.16.56-.1,1.2-.3,1.74-.36,1-1.87,1.07-2.81,1.29-1.02.24-4.71.62-3.32,2.6,1.01,1.43,6.08,1.35,4.33,4.02-.84,1.28-3.17,2.06-3.07,3.85.1,1.93,2.89,2.24,4.03,3.33,1.24,1.19.35,2.48-.23,3.77-.54,1.21-.29,2.32.69,3.2,1.13,1.01,2.65,1.27,3.92,2.05,1.6.98,1.75,2.63,2.44,4.21,1.24,2.87,4.02,4.67,6.55,6.28.08.05.37-.09.33-.12-2.32-1.49-4.84-3.1-6.2-5.58-.63-1.14-.76-2.51-1.44-3.62-.62-1.01-1.66-1.51-2.72-1.95-1.18-.5-2.52-.99-3.2-2.16-.81-1.37.17-2.51.66-3.77.71-1.84-.69-2.73-2.14-3.46-.73-.37-1.64-.74-2.08-1.47-.57-.94-.07-1.89.63-2.59.84-.85,2.72-1.79,2.49-3.23-.14-.87-.96-1.28-1.72-1.52-.88-.27-3.5-.66-3.21-2.16.09-.47,1.38-1.09,1.78-1.24.34-.12.73-.17,1.09-.26.73-.17,1.46-.33,2.18-.52s1.19-.3,1.41-1.05c.2-.67.13-1.39.37-2.06.2-.55.48-1.08.84-1.55,1.64-2.17,4.23-2.4,6.74-2.01,2.92.45,5.96.93,8.62,2.26,2.36,1.18,3.95,3.13,5.71,5.03.75.81,1.55,1.61,2.48,2.22,1.09.72,2.25.99,3.5,1.31,1.33.33,2.73.87,3.15,2.32.17.57.13,1.41-.43,1.78-.72.48-1.59.2-2.3-.08-1.32-.52-2.77-1.46-4.25-1.02-1.69.51-1.78,2.49-3.06,3.43-1.78,1.31-3.69-1.19-5.51-.22-1.79.96-.35,3.46-.47,4.95-.11,1.41-1.52,1.72-2.35,2.62-.78.84-1.18,2-1.17,3.13,0,.51.09,1.03.27,1.51.25.66.76,1.07,1.07,1.67.7,1.33-1.14,2.32-1.68,3.4-1.04,2.05-.37,4.69,1.49,6.01.08.05.37-.09.33-.12h0Z"/>
    </g>
    <g>
      <path class="cls-15" d="M841.09,266.7c.14-3.27-4.62-3.91-6.99-6.16-1.81-1.72-2.3-4.63-4.42-5.95-1.52-.95-3.76-.99-4.6-2.57-.49-.92-.28-2.05-.53-3.07-.94-3.88-7.49-4.18-8.29-8.1-.72-3.52,4.03-7,2.28-10.13-.55-.98-1.64-1.59-2.05-2.63-.83-2.09,1.48-4,3.46-5.07,2.76-1.5,5.51-3,8.27-4.51-5.24-3.69-11.57-5.82-17.97-6.06-2.35-.09-4.83.11-6.81,1.4-1.97,1.28-3.22,3.94-2.24,6.08.29.63.74,1.18.92,1.85.8,2.92-3.82,5.99-1.97,8.4.43.56,1.13.86,1.54,1.43,1.21,1.66-.72,4.17.22,5.99.81,1.59,3.16,1.57,4.44,2.81.77.75,1.06,1.86,1.58,2.8.73,1.31,1.91,2.3,3.07,3.25,3.29,2.71,6.58,5.42,9.87,8.13,2.33,1.92,4.87,3.92,7.87,4.12,1.2,5.57,7.36,9.54,12.93,8.35"/>
      <path class="cls-15" d="M841.26,266.69c0-1.72-1.21-2.74-2.59-3.55-1.89-1.11-3.98-1.86-5.29-3.72-1.22-1.74-1.87-4.02-3.85-5.09-.95-.51-2.05-.7-3-1.21-1.47-.77-1.52-1.97-1.68-3.45-.45-4.1-5.26-4.45-7.54-7.15-3.17-3.77,2.64-7.2,1.72-11.07-.28-1.17-1.27-1.82-1.95-2.74-1.29-1.75-.03-3.5,1.43-4.62,1.39-1.07,3.04-1.81,4.57-2.65,1.74-.95,3.48-1.9,5.22-2.85.07-.04.15-.13.06-.19-3.35-2.33-7.08-4.06-11.04-5.07-3.49-.89-7.48-1.5-11.05-.75-2.85.6-5.8,2.81-5.57,6.04.13,1.83,1.75,3.02,1.16,4.95-.42,1.37-1.36,2.5-1.93,3.8-.39.89-.59,1.89,0,2.74.49.71,1.34,1.03,1.75,1.8.46.86.2,1.88.03,2.78-.25,1.31-.46,2.7.64,3.68,1.25,1.11,3.14,1.09,4.2,2.48.51.67.76,1.5,1.15,2.24.48.9,1.15,1.66,1.9,2.35,1.61,1.48,3.38,2.82,5.07,4.22,1.83,1.51,3.67,3.02,5.5,4.53,1.57,1.29,3.14,2.64,4.97,3.57.74.38,1.53.69,2.34.87.66.15.99.12,1.26.76.2.47.32.96.54,1.42.71,1.51,1.77,2.82,3.06,3.88,2.61,2.14,6.04,3.11,9.37,2.46.22-.04.15-.27-.06-.23-5.6,1.09-11.43-2.75-12.73-8.28-.01-.05-.07-.07-.11-.07-3.24-.3-5.76-2.42-8.18-4.41-2.72-2.24-5.44-4.48-8.16-6.72-1.21-1-2.53-1.96-3.55-3.16-.91-1.08-1.22-2.45-2.05-3.56-1.45-1.93-5.08-1.51-5.03-4.55.02-1.16.55-2.28.44-3.45-.1-1.08-.73-1.5-1.49-2.17-2.03-1.8.08-4.1.98-5.92.36-.73.68-1.54.62-2.37-.09-1.25-1.12-2.16-1.3-3.39-.58-3.84,3.43-5.98,6.64-6.27,6.22-.56,12.91,1.44,18.21,4.6.32.19,1.75.85,1.8,1.15.07.47-1.41,1.04-1.77,1.24-1.6.87-3.19,1.74-4.79,2.61-1.81.98-4.3,2.13-4.93,4.29-.72,2.48,2.55,3.46,2.5,5.83-.04,2.22-1.8,4.11-2.46,6.17-1.33,4.18,2.77,5.65,5.58,7.49.97.63,1.91,1.41,2.34,2.52.49,1.24.06,2.72.85,3.85.59.84,1.62,1.19,2.55,1.52,1.48.53,2.6,1.11,3.51,2.44.77,1.14,1.29,2.43,2.12,3.53.7.92,1.62,1.56,2.61,2.13,1.93,1.09,5.04,2.08,5.03,4.74,0,.17.35.12.35-.03h0Z"/>
    </g>
    <g>
      <path class="cls-15" d="M834.63,271.53c-3.97,2.01-9.31.71-11.92-2.9-.87-1.21-1.45-2.62-2.45-3.72-2.89-3.21-8.38-3.02-11.1-6.38-1.48-1.83-1.82-4.37-3.23-6.25-2.81-3.76-8.95-3.84-11.5-7.78-.65-1.01-1.02-2.21-1.86-3.07-1.35-1.36-3.55-1.48-5.02-2.72-1.94-1.63-2.11-4.75-4.14-6.26-1.21-.9-2.93-1.08-3.86-2.27-1.61-2.07.35-5.58-1.41-7.52-.68-.76-1.78-1.05-2.47-1.8-1.68-1.81-.01-4.81,2.06-6.14,2.64-1.7,5.81-2.3,8.9-2.87.72-.13,1.45-.27,2.17-.4,3.68-.68,8.08-1.13,10.57,1.66.49.55.87,1.37.48,2-.2.32-.56.5-.91.66-2.53,1.2-5.06,2.41-7.58,3.61,2.1.86,2.09,3.83,1.51,6.03-.59,2.2-1.27,4.88.35,6.47.82.8,2.14,1.19,2.52,2.27.3.84-.11,1.76-.05,2.64.17,2.64,3.72,3.24,5.89,4.75,1.52,1.06,2.45,2.76,3.57,4.24,1.29,1.71,2.88,3.17,4.46,4.62,1.43,1.31,2.86,2.62,4.28,3.93,3.99,3.66,7.98,7.33,12.19,10.73,2.96,2.39,6.03,4.64,9.2,6.76"/>
      <path class="cls-15" d="M834.52,271.49c-3.96,1.91-9.06.64-11.65-2.92-1.22-1.68-1.93-3.56-3.67-4.8-1.38-.98-3-1.54-4.57-2.12-1.73-.65-3.54-1.34-4.87-2.68-1.57-1.59-1.99-3.83-3.03-5.73-1.68-3.07-5.04-4.08-7.99-5.53-1.73-.84-3.34-1.89-4.34-3.59s-1.57-3.04-3.48-3.89c-.93-.41-1.91-.7-2.77-1.25s-1.48-1.47-1.95-2.41c-.74-1.45-1.26-3.15-2.62-4.17-1.52-1.13-3.79-1.23-4.37-3.35-.46-1.67.18-3.43-.21-5.1-.49-2.05-2.9-2.12-3.65-3.93-.89-2.13,1.2-4.48,2.87-5.49,2.54-1.53,5.53-2.07,8.4-2.61,2.35-.44,4.74-.97,7.15-.9,1.17.03,2.37.21,3.45.7s2.57,1.48,2.59,2.75-3.21,2.34-4.3,2.86c-1.41.67-2.83,1.35-4.24,2.02-.05.02-.11.08-.04.11,4.35,2.07-.42,8.35,1.22,11.64.39.78,1.07,1.22,1.77,1.7,1.19.82,1.54,1.59,1.37,3.07-.22,1.82.6,2.9,2.15,3.79,1.68.97,3.52,1.54,4.87,3,1.74,1.88,2.99,4.1,4.84,5.92,4.01,3.95,8.27,7.71,12.48,11.44,4.82,4.28,9.85,8.28,15.2,11.86.09.06.39-.08.32-.13-7.22-4.84-13.76-10.48-20.16-16.35-3.16-2.9-6.65-5.67-9.4-8.97-1.17-1.4-2.04-3.07-3.38-4.33-1.05-.99-2.39-1.52-3.66-2.16s-2.71-1.41-2.95-2.91c-.25-1.6.62-2.81-.84-4-.54-.43-1.19-.72-1.68-1.22-.7-.72-.98-1.65-.99-2.63-.02-1.75.67-3.35.9-5.05.17-1.25.16-2.7-.56-3.79-.14-.21-.94-.76-.96-.9-.06-.37,2.44-1.33,2.81-1.51,1.04-.5,2.08-.99,3.12-1.49.64-.31,1.53-.56,2.05-1.06,1.1-1.06-.21-2.47-1.1-3.14-2.27-1.68-5.39-1.54-8.05-1.17-3.41.47-7.04,1.04-10.26,2.27-2.41.92-5.5,2.76-5.52,5.73,0,1.76,1.36,2.27,2.59,3.16,1.47,1.06,1.39,2.73,1.32,4.36-.06,1.3-.13,2.74.78,3.79,1.05,1.2,2.81,1.33,4,2.35,1.26,1.09,1.73,2.8,2.5,4.22.66,1.22,1.53,2.09,2.79,2.67,1.85.84,3.45,1.28,4.52,3.16.78,1.38,1.38,2.6,2.67,3.6,2.32,1.79,5.28,2.45,7.71,4.06,1.49.99,2.49,2.31,3.21,3.94.65,1.49,1.14,3.09,2.21,4.34,1.96,2.29,5.13,2.88,7.77,4.06,1.61.72,2.96,1.67,3.95,3.15.93,1.38,1.61,2.89,2.85,4.04,2.03,1.88,4.9,2.8,7.65,2.55,1.2-.11,2.33-.44,3.41-.96.21-.1-.11-.12-.21-.07h0Z"/>
    </g>
    <g>
      <path class="cls-15" d="M789.98,248.64c1.39-1,.58-3.33-.85-4.29-1.42-.96-3.24-1.25-4.56-2.35-1.71-1.44-2.16-3.89-3.58-5.61-1.5-1.83-3.88-2.63-5.88-3.88-2-1.26-3.82-3.56-3.07-5.81.4-1.2,1.5-2.47.84-3.55-.67-1.1-2.62-.84-3.21-1.99-.67-1.29,1.09-2.64.99-4.09-.07-.97-.96-1.68-1.88-2-3.16-1.09-6.44,1.08-9.08,3.14-3.08,2.4-6.15,4.79-9.23,7.19-.21.17-.43.33-.59.55-.71,1,.22,2.47,1.4,2.82,1.18.34,2.43-.04,3.64-.27,1.21-.23,2.61-.25,3.48.62.87.87.87,2.29,1.5,3.35,1.54,2.6,5.63,1.76,8.13,3.45,1.55,1.04,2.34,2.97,3.91,3.99,1.59,1.04,3.67.94,5.44,1.63,2.49.96,4.11,3.3,5.95,5.24,1.84,1.94,4.51,3.64,7.04,2.78"/>
      <path class="cls-15" d="M790.12,248.67c1.1-.94.84-2.44.06-3.52-1.29-1.79-3.82-1.86-5.44-3.23-1.6-1.34-2.08-3.5-3.24-5.16s-2.9-2.51-4.6-3.42c-2.01-1.07-4.3-2.5-4.77-4.93-.26-1.31.36-2.22.84-3.37.26-.63.48-1.34.09-1.97-.89-1.44-3.89-.79-3.23-3.2.43-1.59,1.89-2.97.11-4.35-3.12-2.43-7.53.5-10.03,2.41-2.11,1.61-4.19,3.27-6.29,4.9-1.02.8-2.06,1.59-3.08,2.4-.6.48-1.13.91-1.04,1.74.16,1.55,1.81,2.11,3.13,2.04,1.26-.07,2.47-.58,3.74-.52,1.94.09,2.41,1.44,2.94,3.01,1.25,3.68,5.39,2.73,8.22,4.28,2.05,1.13,2.83,3.62,5.01,4.6,1.07.48,2.26.61,3.39.86,1.48.33,2.71.97,3.85,1.97,3.02,2.65,5.84,7.83,10.64,6.44.2-.06.16-.24-.05-.18-4.81,1.39-7.59-4.28-10.71-6.77-1.37-1.09-2.85-1.53-4.54-1.87-1.17-.23-2.34-.49-3.31-1.23-.8-.61-1.37-1.42-2.01-2.19-.97-1.17-2-1.96-3.46-2.39-1.55-.46-3.26-.51-4.72-1.24-1.82-.91-1.7-2.59-2.61-4.15-.78-1.33-2.29-1.48-3.68-1.29s-2.8.78-4.18.23-1.64-2.03-.68-3.02c.75-.78,1.8-1.41,2.66-2.07.96-.75,1.92-1.5,2.88-2.25,1.94-1.51,3.84-3.14,5.9-4.48s5.37-2.87,7.7-1.07c2.13,1.64-.37,3.12-.25,4.95.09,1.37,1.62,1.43,2.57,1.92,2.23,1.15-.21,3.51-.22,5.23-.02,1.58,1.04,3.01,2.18,3.99,1.49,1.29,3.39,1.95,5.02,3.02,2.09,1.36,2.85,3.29,4.03,5.38,1.03,1.82,2.43,2.58,4.29,3.37.98.42,1.99.86,2.63,1.75.71.99,1.03,2.44-.01,3.33-.15.13.19.13.28.06h0Z"/>
    </g>
    <g>
      <path class="cls-15" d="M766.57,240.29c-1.39-2.5-5.37-1.54-7.7-3.2-1.43-1.02-2.16-3-3.84-3.5-2.01-.61-4.47,1.23-6.13-.06-1.12-.87-1.12-2.72-2.31-3.48-1.09-.7-2.52-.11-3.64.55-3.81,2.23-7.24,5.11-10.11,8.47-.32.38-.65.78-.72,1.27-.16,1.1,1.14,1.97,2.24,1.81,1.1-.16,1.97-.99,2.73-1.81.76-.82,1.53-1.7,2.59-2.05,3.11-1.02,6.09,3.14,9.27,2.33.97-.25,1.81-.95,2.81-1.03,2.31-.2,3.97,2.87,6.27,2.6.85-.1,1.56-.66,2.35-.99,1.29-.55,2.82-.51,4.07.13.59.3,1.14.73,1.79.8.65.07,1.43-.45,1.28-1.09"/>
      <path class="cls-15" d="M766.73,240.22c-1.4-2.26-4.49-1.8-6.67-2.66-2.51-.99-3.24-4.4-6.3-4.18-1.63.12-3.71,1.23-5.02-.23-.84-.93-.88-2.47-2-3.18-2.19-1.39-5.53,1.53-7.13,2.69-1.45,1.05-2.82,2.2-4.12,3.43-1.1,1.05-2.66,2.34-3.35,3.73-.48.98.07,1.89,1.03,2.27.91.36,1.86.07,2.64-.45,1.58-1.04,2.42-3.01,4.43-3.39,1.54-.29,3.19.84,4.49,1.51,1.01.52,2.1,1.05,3.26,1.06,1.57.01,2.94-1.44,4.49-1.08s2.53,1.67,3.91,2.26c1.09.47,2.04.26,3.07-.25,1.54-.76,3.01-1.15,4.66-.44.67.29,1.29.85,2.05.9s1.55-.41,1.52-1.24c0-.11-.35-.04-.34.09.07,1.91-1.94.6-2.41.36-.37-.19-.72-.38-1.13-.5-.42-.13-.87-.2-1.31-.22-1.05-.03-1.97.29-2.89.75-2.06,1.05-3.13.38-4.8-.8-.72-.51-1.49-1.04-2.38-1.16-.77-.1-1.46.16-2.15.47-1.89.85-3.2.66-4.98-.23-1.63-.81-3.4-2.05-5.32-1.62-.89.2-1.61.75-2.25,1.37-1.2,1.17-3.41,4.01-5.12,1.85-1.13-1.44,1.51-3.55,2.39-4.45,1.1-1.11,2.27-2.16,3.5-3.13,1.33-1.05,2.73-2.03,4.18-2.9,1.15-.68,2.75-1.6,3.98-.57.54.45.77,1.17,1.06,1.79.91,1.99,2.29,2.18,4.3,1.78,1.03-.21,2.15-.53,3.17-.08.69.3,1.21.87,1.69,1.43.78.92,1.49,1.88,2.62,2.4,2.21,1.01,5.47.43,6.9,2.75.06.1.4-.01.32-.13h0Z"/>
    </g>
    <path class="cls-15" d="M848.3,368.72c2.63-4.01,5.45-7.95,8.75-11.45,1.77-1.89,3.71-3.71,5.94-5.05.93-.55,2-1.12,3.1-1.22.68-.06.74.76.96,1.4,1.44,4.27.6,8.99-1.05,13.07-.02.04.25.02.28-.05,1.6-3.96,2.43-8.48,1.2-12.66-.18-.59-.33-1.88-1.09-1.88-.93,0-1.92.45-2.73.86-2.09,1.06-3.92,2.63-5.59,4.26-3.87,3.8-7.07,8.26-10.04,12.77-.02.02.24.02.28-.05h0Z"/>
    <path class="cls-27" d="M850.01,388.88c2.33,2.16,2.85,5.79.76,8.32-.98,1.18-2.57,2.06-4.13,2.07-.71,0-1.47-.23-2.12-.49-1.71-.68-2.97-2.01-3.58-3.74-.04-.13-.37-.04-.32.09.84,2.43,3.24,4.3,5.86,4.35,3.08.07,5.71-2.65,5.92-5.62.14-1.95-.69-3.79-2.11-5.1-.09-.09-.4.04-.3.13h0Z"/>
    <path class="cls-15" d="M848.02,368.97c1.15.17,2.95.47,3.32,1.81.29,1.05-.39,2.24-.87,3.12-1.14,2.09-3.22,4.64-2.65,7.19.21.95.84,1.99,1.89,2.08s2.18-.55,3.01-1.17c1.48-1.11,2.66-2.62,3.59-4.21.61-1.05,1.11-2.17,1.49-3.32.18-.53.29-.96.56-1.43,1.53-2.73,3.11-7.23-.22-9.29-.07-.04-.31.07-.27.1,3.08,1.91,1.9,5.91.57,8.56-.17.34-.39.66-.55,1-.34.74-.51,1.58-.83,2.34-.8,1.94-1.94,3.77-3.43,5.26-.94.94-2.68,2.5-4.14,1.96-1.07-.39-1.5-1.88-1.46-2.91.1-2.5,1.96-4.63,3.03-6.78.41-.83.91-1.93.47-2.85-.54-1.14-2.17-1.4-3.27-1.57-.07-.01-.31.1-.23.11h0Z"/>
    <path class="cls-15" d="M852.35,336.18c-1.87,2.11-3.55,4.39-5,6.8-.62,1.02-1.2,2.09-1.42,3.27-.17.88-.12,1.78-.23,2.67-.32,2.81-2.04,5.26-2.83,7.98-.29.99-.45,2.07-.09,3.04.36.97,1.38,1.75,2.39,1.53,1.09-.23,1.66-1.39,2.08-2.42.72-1.77,1.44-3.54,2.16-5.31.64-1.57,1.34-3.21,2.7-4.22,2.07-1.52,5.25-1.22,6.94-3.17,1.03-1.19,1.21-2.93,2.19-4.16.65-.82,1.66-1.43,1.91-2.45.31-1.3-.79-2.49-1.87-3.28-2.11-1.53-3.37-9-5.91-9.58"/>
    <path class="cls-15" d="M872.53,335.6c2.45,1.72-11.47.42-11.08-2.55.39-2.97,1.99-10.29.05-12.58-1.94-2.29,8.6,8.07,9.16-6.43,2.82-1.36,5.06,8.53,8.16,8.12,4.04-.53-.6-7.36-1.81-11.26-1.21-3.89-.97-5.26-2.39-9.08-.53-1.44,2.46-3.82,3.89-4.38.54-.21,1.14-.13,1.71-.13,2.53,0,4.82-1.83,5.92-4.11,1.09-2.29-5.86-7.07-6.26-9.58-.68-4.27.57-7.33-2.38-10.49-1.19-1.27,1.21-1.31.61-2.94-.6-1.63,0-3.87,1.68-4.3.99-.25,2.02.19,2.95.63,4.2,2.02,8.38,4.37,11.4,7.93,3.02,3.56,4.69,8.56,3.24,12.99-.57,1.75-1.61,3.42-1.56,5.26.06,2.3,1.8,4.23,2.22,6.49.85,4.57-3.8,8.99-2.54,13.46.39,1.4,1.33,2.58,1.82,3.95.88,2.43.14,5.36-1.78,7.1-1.15,1.04-2.65,1.65-3.8,2.7-4.29,3.92-1.82,11.43-4.84,16.4-2.91,4.79-6.67,5.42-9.61.65"/>
    <path class="cls-15" d="M860.91,228.4c-2.64-.16-4.51-2.49-6.46-4.27-3.04-2.77-6.99-4.52-11.08-4.91-3.09-.29-6.32.15-9.21-.98-1.67-.65-3.09-1.79-4.58-2.79-5.19-3.49-11.39-5.46-17.64-5.6-1.34-.03-2.72.02-3.99-.42-1.5-.52-2.7-1.66-4.03-2.52-3.05-1.97-7.01-2.46-10.45-1.3-5.09,1.72-9.46,6.84-14.7,5.67-3.9-.87-7.49-5.16-11.05-3.35-1.66.84-2.48,2.78-3.99,3.86-3.25,2.33-8.16-.05-11.62,1.94-2.85,1.64-3.61,5.62-6.37,7.42-1.82,1.19-4.14,1.19-6.22,1.83-2.08.64-4.17,2.58-3.57,4.66l-1.96,2.47c-11.78,7.13-18.31,27.81-15.99,27.11,2.32-.7,15.78-11.04,16.55-13.34,4.87-14.41,19.27-19.22,23.3-19.87,3.64-.59,7.48-.49,10.83-2.02,2.13-.97,5.39,1.59,7.72,1.36,3.14-.3,4.85-2.14,7.94-2.79,1.63-.34,3.35,2.54,4.67,1.52,3.46-2.68,8.91-1.58,13.11-.34,3.54,1.05,4.72-2.98,8.33-2.22,2.37.5,3.07,4.91,5.5,4.87,3.51-.06,5.97.14,9.24,1.42,5.65,2.21,13.97.41,19.62,2.62,3.79,1.48,6.38,7.98,9.44,10.66,4.43,3.87,8.43,5.09,14,6.97,2.25-3.17,2.66-7.55,1.05-11.09-1.61-3.54-5.18-6.1-9.05-6.49"/>
    <g>
      <path class="cls-32" d="M737.99,369.27c2.56,1.85,6.84,2.13,9.88.82.68-.29,2.69.38,1.74.79-4.02,1.73-10.12,1.05-13.43-1.33-.33-.24-.22-.5.24-.58.48-.09,1.21.05,1.56.3"/>
      <path class="cls-32" d="M750.94,370.27c1.99-.6,4.15-.76,6.26-.61.31.02.69.19.88.43.15.18.16.4-.09.49-1.04.41-2.3.46-3.42.27-.35-.06-.81-.21-.96-.55-.14-.31.22-.44.5-.39.93.15,1.9.11,2.76-.23.27.31.53.61.8.92-1.88-.13-3.82.03-5.6.57-.35.11-.82-.06-1.09-.28-.2-.16-.4-.5-.04-.61"/>
      <path class="cls-32" d="M759.18,371.74c2.45.3,5.47-.34,6.94-1.99,2.22-2.49,1.17-7.11-1.62-9.31-.3-.24-.09-.46.26-.48.45-.03.95.21,1.26.46,2.43,1.93,3.62,5.76,2.85,8.29-.73,2.36-3.31,3.71-6.33,3.98-.9.08-1.84.09-2.76-.02-.37-.05-1.02-.25-1.16-.57-.14-.32.22-.4.56-.35"/>
      <path class="cls-32" d="M733.7,367.38c.17-.26-.04-.48-.24-.5-.66-.08-1.31-.36-1.8-.9-.25.23-.51.46-.76.69,1.3.34,2.56.96,3.62,1.92.21.19.56.14.8,0,.18-.11.39-.39.18-.58"/>
      <path class="cls-32" d="M735.5,368.01c-1.19-1.07-2.6-1.75-4.06-2.13-.21-.05-.51.02-.7.2-.15.14-.2.34-.06.5"/>
      <path class="cls-32" d="M728.59,366.97c-1.58-.29-3.29-1.62-3.8-3.56-.77-2.93.8-6.05,3.04-7.52.24-.16.17-.43-.04-.53-.27-.14-.63-.02-.89.14-1.95,1.28-3.44,3.61-3.56,6.24-.11,2.45,1.16,4.36,2.96,5.34.53.29,1.12.52,1.71.63.24.04.69,0,.85-.27.16-.27-.04-.43-.26-.47"/>
    </g>
    <path class="cls-36" d="M715.67,318.86c-1.93-1.39-4.75-.9-6.29.11-.36.24-1.1,1.01-1.71,2.33-.77,1.68-.36,3.77.56,5.14,1.23,1.83,3.64,2.47,5.65,1.86,2.73-.82,4-3.76,3.7-6.09-.06-.43-.35-2.23-1.91-3.35"/>
    <path class="cls-36" d="M736.44,328.34s-8.99-9.49-14.11-10.77c-7.47-1.87-17.43.97-20.67,4.34,0,0,13.29-4.47,18.51-3.01,5,1.4,16.27,9.43,16.27,9.43Z"/>
    <path class="cls-36" d="M779.06,328.5c2.25-.78,5.56.02,6.75,1.43.28.33,1.03,1.27,1.23,2.7.26,1.83-.73,3.71-2.01,4.76-1.71,1.4-4.2,1.32-5.95.16-2.38-1.56-2.76-4.75-1.8-6.89.18-.39-.12-1.24,1.69-1.87"/>
    <path class="cls-36" d="M769.41,332.13s12.55-5.62,18.22-4.96c8.27.97,17.4,7.23,19.49,11.56,0,0-11.93-9.01-17.77-9.53-5.59-.5-19.94,2.93-19.94,2.93Z"/>
    <path d="M742.6,385.04c8.74,1.04,26.87,1.96,30.35,5.8,0,0-11.01,16.02-31.28,13.6-20.27-2.42-19.82-19-19.82-19,0,0,9.62-1.72,20.76-.39Z"/>
    <path class="cls-34" d="M766.45,390.29s-11.71.36-20.52-.69c-8.81-1.05-23-3.97-23-3.97,0,0,2.38-3.91,18.35-2,15.97,1.91,25.17,6.66,25.17,6.66Z"/>
    <path class="cls-23" d="M741.52,402.19c9.65-.21,23.08-14.51,34.07-12.51,0,0-7.92,24.23-31.75,21.38-23.83-2.85-23.61-25.54-23.61-25.54,5.36.64,11.96,14.18,21.3,16.66Z"/>
    <path class="cls-23" d="M732.8,379.09c5.05.23,8,2.5,10.18,2.76,2.18.26,5.85-2.18,10.54-.28,13.31,5.38,23.3,7.19,23.3,7.19-4.14,4.56-19.34-.29-34.41-2.09-15.07-1.8-23.32,1.05-23.02-1.61.09-.79,8.69-6.17,13.42-5.96Z"/>
    <path class="cls-36" d="M703.74,307.83c-.19-.17-.42-.29-.68-.39-.04-.44-.08-.88-.1-1.32,0-.29.04-.58.09-.86.02-.07.05-.14.08-.2,2.08-2.22,4.22-3.32,4.44-3.44,0,0,2.99-1.57,7.35-1.8,3.01-.16,11.06.96,21.36,4.48-.29,1.48-.57,2.97-.86,4.46-.22,1.13-.45,2.27-.67,3.39-3.47-1.72-6.48-3-8.77-3.91-4.83-1.91-7.31-2.87-10.3-2.97-3.15-.11-5.96.53-7.05.78-1.54.36-2.57.58-3.86,1.19-.38.18-.69.38-1.02.58Z"/>
    <path class="cls-36" d="M767.68,306.71c-.06,1.51-.11,3.03-.16,4.55-.04,1.16-.07,2.31-.1,3.47,4.84-.68,8.98-1.07,12.1-1.3,6.6-.48,9.97-.71,13.77.04,3.98.78,7.33,2.19,8.63,2.75,1.83.78,3.06,1.28,4.51,2.24,3.16,2.08,4.39,4.28,4.93,4.12.49-.14-.23-2.05-.3-2.25-1.84-4.81-6.24-7.86-6.57-8.11,0,0-3.31-2.36-8.73-3.81-3.74-1-14.15-2.2-28.07-1.7"/>
    <path class="cls-29" d="M839.49,439.69s-38.69,43.99-83.19,43.99c-44.5,0-31-31.21-29.05-41.45l-42.51,24.81s-4.82,31.89,69.75,33.33c74.58,1.44,113.9-46.31,113.9-46.31l-28.9-14.37Z"/>
    <path class="cls-50" d="M839.23,439.35c-4.12,4.68-8.79,8.94-13.52,12.99-10.43,8.93-21.92,16.81-34.46,22.48-14.36,6.49-30.51,9.88-46.2,6.99-5.19-.96-10.59-2.83-14.39-6.65-2.83-2.85-4.47-6.51-5.08-10.45-1.08-7.04.9-14.02,2.5-20.81.14-.58.27-1.17.38-1.76.18-.94-1.28-.78-1.74-.6-2.64,1.04-5.36,1.97-7.95,3.12-.75.33-1.05.89-1.45,1.56-1.59,2.66-2.89,5.51-3.9,8.43-1.5,4.37-2.36,8.97-1.98,13.61.44,5.43,2.82,10.48,6.71,14.29,5.91,5.8,14.1,8.72,22.03,10.48,10.78,2.4,21.84,2.94,32.74,1.07,19.33-3.31,37.05-13.09,52.27-25.16,8.69-6.9,16.99-14.64,24.03-23.25.11-.13.21-.26.32-.39.25-.32.32-.78-.08-1.03-2.76-1.75-5.53-3.5-8.29-5.26-.88-.56-2.99.65-1.85,1.37,2.76,1.75,5.53,3.5,8.29,5.26l-.08-1.03c-4.94,6.24-10.76,11.91-16.69,17.18-12.67,11.26-27.14,21.03-43.2,26.73-9.05,3.21-18.57,5.07-28.19,5.02-5.31-.02-10.64-.68-15.85-1.69-4.46-.86-8.89-2.07-13.08-3.85-5.61-2.39-10.9-6.01-13.99-11.39-2.29-3.98-3.04-8.64-2.66-13.18.33-3.94,1.42-7.79,2.96-11.42.9-2.14,2.06-4.09,3.15-6.13.05-.1.12-.19.18-.28l-.62.56c2.75-1.08,5.49-2.16,8.24-3.23l-1.74-.6c-1.31,6.82-3.54,13.36-3.12,20.42.24,4.08,1.36,8.1,3.8,11.43,2.99,4.08,7.58,6.63,12.34,8.11,7.38,2.3,15.51,2.65,23.17,2.06,8.04-.62,15.91-2.58,23.45-5.39,13.82-5.16,26.51-13.21,37.93-22.46,4.09-3.32,8.04-6.81,11.82-10.48,1.9-1.84,3.85-3.7,5.57-5.71.08-.09.16-.17.23-.26,1-1.13-1.29-1.5-2-.69Z"/>
    <path class="cls-15" d="M852.76,404.37c5.28,1.14,9.58,5.82,10.17,11.07.59,5.26-2.56,10.7-7.47,12.89,3.89,5.27,7.91,10.85,8.72,17.29.81,6.44-2.86,13.9-9.39,15.02,3.6,4.19,7.35,8.72,8,14.15.66,5.43-3.35,11.71-8.93,11.36,2.85,3.88,5.79,8,6.29,12.73.5,4.74-2.44,10.17-7.28,10.68,3.84,4.11,6.86,9.77,5.25,15.09-1.61,5.31-9.84,8.14-13.19,3.64-1.99-2.68-1.38-6.36-.69-9.58.84-3.87,1.67-7.75,2.51-11.62-6.84-5.14-6.71-16.84.25-21.76-7.97-6.39-7.05-20.49,1.68-25.76-8.69-7.9-8.61-23.14.16-30.86-9.09-7.04-8.19-22.99,1.64-28.9"/>
    <path class="cls-15" d="M875.8,385.6c5.28,1.14,9.58,5.82,10.17,11.07.59,5.26-2.56,10.7-7.47,12.89,3.89,5.27,7.91,10.85,8.72,17.29.81,6.44-2.86,13.9-9.39,15.02,3.6,4.19,7.35,8.72,8,14.15.66,5.43-3.35,11.71-8.93,11.36,2.85,3.88,5.79,8,6.29,12.73.5,4.74-2.44,10.17-7.28,10.68,3.84,4.11,6.86,9.77,5.25,15.09-1.61,5.31-9.84,8.14-13.19,3.64-1.99-2.68-1.38-6.36-.69-9.58.84-3.87,1.67-7.75,2.51-11.62-6.84-5.14-6.71-16.84.25-21.76-7.97-6.39-7.05-20.49,1.68-25.76-8.69-7.9-8.61-23.14.16-30.86-9.09-7.04-8.19-22.99,1.64-28.9"/>
    <rect class="cls-46" x="-228.45" y="823.11" width="1344.3" height="205.76"/>
    <g>
      <g>
        <polygon class="cls-8" points="652.88 886.49 652.56 889.54 625.28 864.99 625.6 861.94 652.88 886.49"/>
        <polygon class="cls-8" points="800.9 889.39 800.58 892.43 652.61 889.57 652.56 889.54 652.88 886.49 652.92 886.53 800.9 889.39"/>
      </g>
      <polygon class="cls-24" points="793.49 882.72 793.49 882.72 780.98 871.47 780.98 871.47 773.57 864.8 752.34 864.39 752.34 864.39 647.63 862.37 647.63 862.37 625.6 861.94 652.92 886.53 800.9 889.39 793.49 882.72"/>
      <polygon class="cls-3" points="782.19 879.35 782.19 879.35 771.16 869.43 771.16 869.43 767.43 868.29 748.7 867.93 748.7 867.93 656.38 866.14 636.96 865.77 636.96 865.77 658.26 882.71 788.72 885.23 782.19 879.35"/>
      <path class="cls-6" d="M773.57,864.8l-21.23-.41h0c4.05,3.65,16.81,6.79,28.64,7.08l-7.41-6.67"/>
      <path class="cls-6" d="M793.49,882.72c-11.69-.17-17.88,2.61-13.83,6.25h0s21.23.42,21.23.42l-7.41-6.67"/>
      <path class="cls-6" d="M647.63,862.37l-22.03-.43,7.41,6.67c.14,0,.28,0,.42.01,11.94.23,18.29-2.57,14.2-6.25h0"/>
      <path class="cls-6" d="M645.93,879.87c-.14,0-.28,0-.42,0l7.41,6.67,22.03.43h0c-4.09-3.69-17.08-6.86-29.01-7.09"/>
      <path class="cls-18" d="M704.69,870.24c-14.29-.71-21.77,1.17-16.71,4.19,5.06,3.03,20.74,6.06,35.03,6.77,14.29.71,21.77-1.17,16.71-4.19-5.06-3.03-20.74-6.06-35.03-6.77"/>
      <path class="cls-12" d="M661.66,872.45c-4.96-.1-7.6,1.07-5.9,2.59,1.7,1.53,7.09,2.84,12.05,2.94,4.96.1,7.6-1.07,5.9-2.59-1.7-1.53-7.1-2.85-12.05-2.94"/>
      <path class="cls-12" d="M759.8,874.34c-4.96-.1-7.6,1.07-5.9,2.59,1.7,1.53,7.09,2.84,12.05,2.94,4.96.1,7.6-1.07,5.9-2.59-1.7-1.53-7.1-2.85-12.05-2.94"/>
    </g>
    <g>
      <g>
        <polygon class="cls-8" points="49.44 864.88 49.13 867.92 21.84 843.37 22.16 840.33 49.44 864.88"/>
        <polygon class="cls-8" points="197.46 867.77 197.14 870.81 49.17 867.96 49.13 867.92 49.44 864.88 49.49 864.91 197.46 867.77"/>
      </g>
      <polygon class="cls-24" points="190.05 861.1 190.05 861.1 177.55 849.85 177.55 849.85 170.13 843.18 148.9 842.77 148.9 842.77 44.19 840.75 44.19 840.75 22.16 840.33 49.49 864.91 197.46 867.77 190.05 861.1"/>
      <polygon class="cls-4" points="178.75 857.73 178.75 857.73 167.72 847.81 167.72 847.81 163.99 846.67 145.27 846.31 145.27 846.31 52.95 844.53 33.53 844.15 33.53 844.15 54.82 861.1 185.28 863.61 178.75 857.73"/>
      <path class="cls-6" d="M170.13,843.18l-21.23-.41h0c4.05,3.65,16.81,6.79,28.64,7.08l-7.41-6.67"/>
      <path class="cls-6" d="M190.05,861.1c-11.69-.17-17.88,2.61-13.83,6.25h0s21.23.42,21.23.42l-7.41-6.67"/>
      <path class="cls-6" d="M44.19,840.75l-22.03-.43,7.41,6.67c.14,0,.28,0,.42.01,11.94.23,18.29-2.57,14.2-6.25h0"/>
      <path class="cls-6" d="M42.49,858.25c-.14,0-.28,0-.42,0l7.41,6.67,22.03.43h0c-4.09-3.69-17.08-6.86-29.01-7.09"/>
      <path class="cls-18" d="M101.26,848.63c-14.29-.71-21.77,1.17-16.71,4.19,5.06,3.03,20.74,6.06,35.03,6.77,14.29.71,21.77-1.17,16.71-4.19-5.06-3.03-20.74-6.06-35.03-6.77"/>
      <path class="cls-12" d="M58.22,850.83c-4.96-.1-7.6,1.07-5.9,2.59,1.7,1.53,7.09,2.84,12.05,2.94,4.96.1,7.6-1.07,5.9-2.59-1.7-1.53-7.1-2.85-12.05-2.94"/>
      <path class="cls-12" d="M156.36,852.73c-4.96-.1-7.6,1.07-5.9,2.59,1.7,1.53,7.09,2.84,12.05,2.94,4.96.1,7.6-1.07,5.9-2.59-1.7-1.53-7.1-2.85-12.05-2.94"/>
    </g>
    <g>
      <polygon class="cls-8" points="136.2 893.9 135.93 896.94 -12.07 896.2 -12.12 896.17 -11.84 893.12 -11.8 893.16 136.2 893.9"/>
      <polygon class="cls-24" points="128.7 887.33 128.7 887.33 116.03 876.26 116.03 876.26 108.53 869.7 87.29 869.6 87.29 869.6 -17.44 869.07 -17.44 869.07 -39.48 868.96 -11.8 893.16 136.2 893.9 128.7 887.33"/>
      <polygon class="cls-4" points="117.35 884.13 117.35 884.13 106.18 874.37 106.18 874.37 102.43 873.28 83.71 873.18 83.71 873.18 -8.63 872.72 -28.06 872.62 -28.06 872.62 -6.52 889.26 123.96 889.91 117.35 884.13"/>
      <path class="cls-6" d="M108.53,869.7l-21.24-.11h0c4.1,3.59,16.9,6.55,28.74,6.67l-7.51-6.56"/>
      <path class="cls-6" d="M128.7,887.33c-11.7,0-17.84,2.86-13.74,6.45h0s21.24.11,21.24.11l-7.51-6.56"/>
      <path class="cls-6" d="M-18.89,886.59c-.14,0-.28,0-.42,0l7.51,6.56,22.03.11h0c-4.14-3.63-17.17-6.61-29.11-6.67"/>
      <path class="cls-18" d="M39.73,876.13c-14.3-.51-21.75,1.48-16.65,4.43,5.1,2.96,20.82,5.76,35.12,6.27,14.3.51,21.75-1.48,16.65-4.43-5.1-2.96-20.83-5.76-35.12-6.27"/>
      <path class="cls-12" d="M-3.26,878.95c-4.96-.02-7.58,1.17-5.86,2.68,1.72,1.5,7.13,2.74,12.09,2.77,4.96.02,7.58-1.17,5.86-2.68-1.72-1.5-7.14-2.74-12.09-2.77"/>
      <path class="cls-12" d="M94.89,879.44c-4.96-.02-7.58,1.17-5.86,2.68,1.72,1.5,7.13,2.74,12.09,2.77,4.96.02,7.58-1.17,5.86-2.68-1.72-1.5-7.14-2.74-12.09-2.77"/>
    </g>
    <path class="cls-10" d="M62.52,867.25l-21.16,1.8h0c4.4,3.21,17.42,5,29.22,4.06l-8.06-5.86"/>
    <path class="cls-12" d="M49.81,878.18c-4.94.42-7.45,1.85-5.6,3.19,1.85,1.34,7.35,2.09,12.29,1.67,4.94-.42,7.45-1.85,5.6-3.19-1.85-1.34-7.35-2.09-12.29-1.67"/>
    <polygon class="cls-8" points="144.19 873.53 144.19 876.59 -3.3 888.92 -3.35 888.89 -3.34 885.83 -3.3 885.86 144.19 873.53"/>
    <polygon class="cls-24" points="136.14 867.65 136.14 867.65 122.54 857.74 122.54 857.74 114.49 851.87 93.32 853.64 93.32 853.64 -11.05 862.37 -11.05 862.37 -33 864.2 -3.3 885.86 144.19 873.53 136.14 867.65"/>
    <polygon class="cls-4" points="124.55 865.46 124.55 865.46 112.56 856.73 112.56 856.73 108.73 855.97 90.07 857.53 90.07 857.53 -1.95 865.23 -21.3 866.84 -21.3 866.84 1.62 881.51 131.65 870.64 124.55 865.46"/>
    <polygon class="cls-4" points="-3.3 885.86 -33 864.2 114.49 851.87 144.19 873.53 -3.3 885.86"/>
    <path class="cls-6" d="M114.49,851.87l-21.16,1.77h0c4.4,3.21,17.41,5.03,29.21,4.1l-8.06-5.87"/>
    <path class="cls-6" d="M136.14,867.65c-11.65,1.03-17.52,4.43-13.12,7.64h0s21.16-1.76,21.16-1.76l-8.06-5.87"/>
    <path class="cls-6" d="M-10.94,879.95c-.14.01-.28.02-.42.04l8.06,5.87,21.96-1.84h0c-4.45-3.25-17.69-5.07-29.59-4.07"/>
    <path class="cls-18" d="M46.53,864.35c-14.29.76-21.54,3.39-16.19,5.89,5.34,2.49,21.25,3.9,35.54,3.14,14.29-.76,21.54-3.39,16.2-5.89-5.34-2.49-21.25-3.9-35.54-3.14"/>
    <path class="cls-12" d="M3.95,870.96c-4.94.41-7.45,1.84-5.6,3.19,1.85,1.35,7.35,2.1,12.29,1.69,4.94-.41,7.45-1.84,5.6-3.19-1.85-1.35-7.35-2.1-12.29-1.69"/>
    <path class="cls-12" d="M101.76,862.78c-4.94.41-7.45,1.84-5.6,3.19,1.85,1.35,7.35,2.1,12.29,1.69,4.94-.41,7.45-1.84,5.6-3.19-1.85-1.35-7.35-2.1-12.29-1.69"/>
    <g>
      <g>
        <polygon class="cls-8" points="642.46 879.29 642.46 882.35 612.77 860.77 612.77 857.71 642.46 879.29"/>
        <polygon class="cls-8" points="789.98 866.78 789.98 869.84 642.51 882.39 642.46 882.35 642.46 879.29 642.51 879.33 789.98 866.78"/>
      </g>
      <polygon class="cls-24" points="781.49 860.17 781.49 860.17 767.89 850.28 767.89 850.28 759.82 844.42 738.66 846.22 738.66 846.22 634.3 855.1 634.3 855.1 612.35 856.97 642.09 878.58 789.56 866.04 781.49 860.17"/>
      <polygon class="cls-3" points="770.32 858.74 770.32 858.74 758.33 850.03 758.33 850.03 754.49 849.28 735.83 850.86 735.83 850.86 643.83 858.69 624.48 860.34 624.48 860.34 647.42 874.97 777.43 863.91 770.32 858.74"/>
      <path class="cls-6" d="M760.24,845.17l-21.16,1.8h0c4.4,3.21,17.42,5,29.22,4.06l-8.06-5.86"/>
      <path class="cls-6" d="M781.91,860.92c-11.65,1.05-17.51,4.45-13.11,7.66h0s21.16-1.79,21.16-1.79l-8.06-5.86"/>
      <path class="cls-6" d="M634.73,855.85l-21.95,1.87,8.06,5.86c.14-.01.28-.02.42-.03,11.9-1.01,17.93-4.45,13.48-7.69h0"/>
      <path class="cls-6" d="M634.86,873.43c-.14.01-.28.02-.42.04l8.06,5.86,21.95-1.87h0c-4.45-3.24-17.7-5.04-29.59-4.03"/>
      <path class="cls-18" d="M692.3,857.75c-14.29.78-21.53,3.42-16.19,5.91,5.34,2.49,21.26,3.87,35.54,3.09,14.28-.78,21.53-3.42,16.19-5.91-5.35-2.49-21.26-3.87-35.54-3.09"/>
      <path class="cls-12" d="M649.73,864.42c-4.94.42-7.45,1.85-5.6,3.19,1.85,1.34,7.35,2.09,12.29,1.67,4.94-.42,7.45-1.85,5.6-3.19-1.85-1.34-7.35-2.09-12.29-1.67"/>
      <path class="cls-12" d="M747.53,856.09c-4.94.42-7.45,1.85-5.6,3.19,1.85,1.34,7.35,2.09,12.29,1.67,4.94-.42,7.45-1.85,5.6-3.19-1.85-1.34-7.35-2.09-12.29-1.67"/>
    </g>
    <path class="cls-16" d="M574.13,731.35c4.56,6.26,4.92,13.77.82,16.8-4.1,3.02-11.16.36-15.72-5.9-4.56-6.26-4.92-13.75-.82-16.8s11.16-.24,15.72,5.9Z"/>
    <path class="cls-16" d="M586.39,731.49c3.14,7.08,1.92,14.4-2.74,16.56-4.66,2.16-10.99-1.99-14.13-9.07-3.14-7.08-1.9-14.4,2.76-16.56s10.97,1.99,14.11,9.07Z"/>
    <path class="cls-15" d="M581.04,749.8c-2.03-.06-3.99-.7-5.66-1.85-3.09-2.1-5.5-5.05-6.94-8.5-3.41-7.66-1.92-15.79,3.34-18.14,5.26-2.35,12.31,2.02,15.72,9.6h0c1.57,3.38,2.14,7.15,1.63,10.85-.34,3.09-2.22,5.8-4.99,7.2-.96.5-2.02.78-3.1.84ZM574.9,723.07c-.74,0-1.47.15-2.14.46-4.06,1.8-4.99,8.52-2.14,14.97,1.25,3.01,3.35,5.6,6.05,7.44,2.49,2.23,6.31,2.01,8.54-.48.99-1.1,1.54-2.53,1.54-4.01.44-3.23-.07-6.51-1.46-9.46-2.38-5.4-6.67-8.93-10.39-8.93Z"/>
    <path class="cls-7" d="M630.93,786.42l-25.97-114.4c-.07-.31-.26-.59-.53-.77-.27-.17-.6-.22-.91-.14l-56.83,12.91s0,0-.01,0c-.65.15-1.05.79-.9,1.44l25.97,114.4c.07.31.27.58.55.74.19.12.4.19.62.19l.26-.05,56.85-12.89s.03,0,.04,0c.63-.16,1.01-.8.85-1.43Z"/>
    <path class="cls-4" d="M619.55,769.14l-19.97-88c-.05-.24-.2-.45-.41-.59-.21-.13-.46-.17-.7-.11l-43.71,9.93s0,0,0,0c-.5.11-.81.61-.69,1.11l19.97,88c.06.24.21.45.42.57.14.09.31.14.48.15l.2-.04,43.73-9.91s.02,0,.03,0c.48-.12.78-.62.65-1.1Z"/>
    <path class="cls-18" d="M599.34,733.44c2.08,9.23-1.11,17.81-7.18,19.19-6.06,1.38-12.68-4.98-14.79-14.21-2.11-9.23,1.14-17.81,7.21-19.19,6.06-1.38,12.6,4.98,14.76,14.21Z"/>
    <path class="cls-12" d="M586.52,701.38c1.13,5.01-.6,9.67-3.9,10.42-3.29.75-6.89-2.7-8.03-7.71-1.15-5.01.62-9.67,3.91-10.42s6.84,2.7,8.02,7.71Z"/>
    <path class="cls-6" d="M546.27,683.87c-.65.15-1.05.79-.9,1.44l4.34,19.12c.57.15,1.15.26,1.75.28,6.47.26,11.8-7.07,11.95-16.39.02-2.89-.46-5.63-1.31-8.04l-15.82,3.59s0,0-.01,0Z"/>
    <path class="cls-6" d="M605.06,672.02c-.07-.31-.26-.59-.53-.77-.27-.17-.6-.22-.91-.14l-11.81,2.68c0,1.86.22,3.82.73,5.8,2.31,9.04,9.31,15.2,15.63,13.77.57-.13,1.1-.33,1.61-.57l-4.71-20.77Z"/>
    <path class="cls-7" d="M616.43,786.47l-58-101.96c-.16-.28-.42-.49-.73-.58-.31-.08-.64-.04-.91.13l-50.65,28.82s0,0,0,0c-.58.33-.78,1.06-.45,1.64l58,101.96c.16.28.43.48.74.55.21.06.44.06.65,0l.24-.12,50.68-28.81s.02-.01.04-.02c.56-.34.73-1.06.4-1.61Z"/>
    <path class="cls-4" d="M600.53,773.23l-44.62-78.44c-.12-.22-.32-.38-.56-.45-.24-.06-.49-.03-.7.1l-38.96,22.17s0,0,0,0c-.44.25-.6.82-.34,1.26l44.62,78.44c.12.22.33.37.57.42.16.05.34.05.5,0l.18-.09,38.98-22.16s.02-.01.03-.02c.43-.26.56-.81.31-1.24Z"/>
    <path class="cls-18" d="M570.85,744.92c4.66,8.23,4.1,17.37-1.31,20.44-5.4,3.07-13.58-1.09-18.27-9.31-4.69-8.22-4.07-17.38,1.34-20.45,5.4-3.07,13.5,1.12,18.25,9.32Z"/>
    <path class="cls-12" d="M549.29,717.95c2.53,4.47,2.22,9.43-.71,11.1s-7.37-.59-9.92-5.06c-2.55-4.46-2.21-9.43.73-11.1,2.93-1.67,7.33.61,9.91,5.06Z"/>
    <path class="cls-6" d="M505.69,712.85c-.58.33-.78,1.06-.45,1.64l9.69,17.04c.59-.02,1.18-.09,1.76-.24,6.27-1.62,9.24-10.19,6.68-19.15-.82-2.77-2.07-5.26-3.58-7.32l-14.1,8.02s0,0,0,0Z"/>
    <path class="cls-6" d="M558.52,684.48c-.16-.28-.42-.49-.73-.58-.31-.08-.64-.04-.91.13l-10.52,5.99c.53,1.78,1.31,3.59,2.38,5.34,4.83,7.98,13.31,11.85,18.94,8.65.5-.29.95-.63,1.38-1.01l-10.53-18.51Z"/>
    <path class="cls-53" d="M621.31,747.95s-41.73,15.86-43.84,17.45-22.73,20.61-23.78,23.25l-1.06,2.64c-.33,1.68.76,3.31,2.43,3.64.24.05.49.07.73.06,0,0-4.22,6.34-.53,9.6,3.7,3.26,8.98.53,8.98.53,0,0-4.8,7.39.53,8.98,3.99.93,8.11,1.11,12.17.53,0,0-1.06,2.64,17.42,6.34,18.48,3.7,38.06,5.28,46.51,3.7,8.45-1.58,27.48-3.7,27.48-3.7,0,0,86.72,4.85,103.64,3.27,16.92-1.58,67.02-7.7,72.3-16.14s-27.97-13.02-34.33-22.52c-6.36-9.5,5.38-17.61-12.07-18.14-13.19.15-34.43-3.31-46.74,1.43-9.6,4.22-50.04,9.32-52.15,9.85s-24.84-1.06-24.84-1.06c0,0-43.84-29.08-46.48-29.61-2.11-.32-4.25-.34-6.36-.07Z"/>
    <path class="cls-13" d="M556.44,795.84c9.41-5.49,18.81-10.98,28.22-16.48,1.14-.67,2.28-1.34,3.42-2,.4-.23-.32.08.05-.02.2-.05.4-.1.6-.15l2.43-.6,18.67-4.6c4.87-1.2,9.75-2.4,14.62-3.6,1.8-.44,1.27-2.43-.53-1.99-10.57,2.6-21.15,5.21-31.72,7.81-1.54.38-3.11.69-4.63,1.14-1.01.3-1.9.95-2.8,1.47-5.42,3.17-10.84,6.33-16.26,9.5-4.45,2.6-8.9,5.2-13.35,7.8-1.69.99-.15,2.55,1.28,1.71h0Z"/>
    <path class="cls-13" d="M564.8,805.66c8.9-3.69,17.8-7.38,26.71-11.07l2.23-.93c.19-.08.39-.15.58-.24.4-.2.28.1-.57.13,1.11-.03,2.31-.44,3.39-.65l17.1-3.26c4.32-.82,8.65-1.65,12.97-2.47.44-.08,1.63-.34,1.66-.95s-.8-.64-1.23-.56c-9.55,1.82-19.1,3.64-28.65,5.46-2.47.47-4.85.82-7.18,1.78l-15.23,6.31c-4.3,1.78-8.6,3.56-12.9,5.34-.42.17-1.12.58-.79,1.1.31.49,1.54.15,1.91,0h0Z"/>
    <path class="cls-13" d="M576.69,815.23c8.15-1.5,16.3-3,24.45-4.51,6.43-1.19,12.91-1.87,19.4-2.65,3.99-.48,7.98-.96,11.96-1.44.36-.04,1.67-.35,1.68-.85.02-.56-.83-.42-1.19-.38-8.13.98-16.26,1.95-24.4,2.93-6.83.82-13.6,2.38-20.36,3.62-3.69.68-7.38,1.36-11.07,2.04-.36.07-1.67.34-1.68.85-.02.54.83.45,1.19.38h0Z"/>
    <g>
      <path class="cls-17" d="M552.44,877.84v2.62c0,3.31-6.34,5.99-14.17,5.99s-14.17-2.68-14.17-5.99v-2.62c0,3.31,6.34,5.99,14.17,5.99s14.17-2.68,14.17-5.99Z"/>
      <path class="cls-19" d="M538.27,871.85c-7.83,0-14.17,2.68-14.17,5.99s6.34,5.99,14.17,5.99,14.17-2.68,14.17-5.99-6.34-5.99-14.17-5.99Z"/>
      <path class="cls-17" d="M538.27,873.49c-5.68,0-10.29,1.95-10.29,4.35s4.61,4.35,10.29,4.35,10.29-1.95,10.29-4.35-4.61-4.35-10.29-4.35Z"/>
      <path class="cls-34" d="M539.12,875.02v.46c1.06.02,2.13.14,3.2.33l-.95.96c-1.11-.21-2.12-.32-3.01-.32-.43,0-.73.02-.9.07-.17.04-.26.11-.26.19,0,.07.06.14.19.18.12.05.34.1.65.16.31.06.74.13,1.29.21,1.11.17,1.91.36,2.4.57.48.21.73.49.73.82,0,.38-.28.69-.85.92-.57.24-1.39.38-2.48.44v.65h-1.65v-.63c-1.17-.02-2.29-.13-3.37-.33v-1.12c.62.13,1.29.24,2.01.33.72.09,1.36.13,1.91.13.45,0,.78-.02.99-.07.21-.05.31-.12.31-.23,0-.07-.08-.14-.23-.19-.15-.05-.4-.11-.76-.18-.35-.07-.83-.14-1.43-.24-.68-.11-1.22-.22-1.64-.36-.42-.13-.72-.28-.91-.44-.19-.16-.28-.37-.28-.61,0-.37.28-.66.85-.87.56-.21,1.41-.34,2.54-.39v-.46h1.65Z"/>
    </g>
    <g>
      <path class="cls-17" d="M552.44,873.73v2.62c0,3.31-6.34,5.99-14.17,5.99s-14.17-2.68-14.17-5.99v-2.62c0,3.31,6.34,5.99,14.17,5.99s14.17-2.68,14.17-5.99Z"/>
      <path class="cls-19" d="M538.27,867.74c-7.83,0-14.17,2.68-14.17,5.99s6.34,5.99,14.17,5.99,14.17-2.68,14.17-5.99-6.34-5.99-14.17-5.99Z"/>
      <path class="cls-17" d="M538.27,869.38c-5.68,0-10.29,1.95-10.29,4.35s4.61,4.35,10.29,4.35,10.29-1.95,10.29-4.35-4.61-4.35-10.29-4.35Z"/>
      <path class="cls-34" d="M539.12,870.91v.46c1.06.02,2.13.14,3.2.33l-.95.96c-1.11-.21-2.12-.32-3.01-.32-.43,0-.73.02-.9.07-.17.04-.26.11-.26.19,0,.07.06.14.19.18.12.05.34.1.65.16.31.06.74.13,1.29.21,1.11.17,1.91.36,2.4.57.48.21.73.49.73.82,0,.38-.28.68-.85.92-.57.24-1.39.38-2.48.44v.65h-1.65v-.63c-1.17-.02-2.29-.13-3.37-.33v-1.12c.62.13,1.29.24,2.01.33.72.09,1.36.13,1.91.13.45,0,.78-.02.99-.07.21-.05.31-.12.31-.23,0-.07-.08-.14-.23-.19-.15-.05-.4-.11-.76-.18-.35-.07-.83-.14-1.43-.24-.68-.11-1.22-.22-1.64-.36-.42-.13-.72-.28-.91-.44-.19-.16-.28-.37-.28-.61,0-.37.28-.66.85-.87.56-.21,1.41-.34,2.54-.39v-.46h1.65Z"/>
    </g>
    <g>
      <path class="cls-17" d="M552.44,869.31v2.62c0,3.31-6.34,5.99-14.17,5.99s-14.17-2.68-14.17-5.99v-2.62c0,3.31,6.34,5.99,14.17,5.99s14.17-2.68,14.17-5.99Z"/>
      <path class="cls-19" d="M538.27,863.32c-7.83,0-14.17,2.68-14.17,5.99s6.34,5.99,14.17,5.99,14.17-2.68,14.17-5.99-6.34-5.99-14.17-5.99Z"/>
      <path class="cls-17" d="M538.27,864.96c-5.68,0-10.29,1.95-10.29,4.35s4.61,4.35,10.29,4.35,10.29-1.95,10.29-4.35-4.61-4.35-10.29-4.35Z"/>
      <path class="cls-34" d="M539.12,866.49v.46c1.06.02,2.13.14,3.2.33l-.95.96c-1.11-.21-2.12-.32-3.01-.32-.43,0-.73.02-.9.07-.17.04-.26.11-.26.19,0,.07.06.14.19.18.12.05.34.1.65.16.31.06.74.13,1.29.21,1.11.17,1.91.36,2.4.57.48.21.73.49.73.82,0,.38-.28.69-.85.92-.57.24-1.39.38-2.48.44v.65h-1.65v-.63c-1.17-.02-2.29-.13-3.37-.33v-1.12c.62.13,1.29.24,2.01.33.72.09,1.36.13,1.91.13.45,0,.78-.02.99-.07.21-.05.31-.12.31-.23,0-.07-.08-.14-.23-.19-.15-.05-.4-.11-.76-.18-.35-.07-.83-.14-1.43-.24-.68-.11-1.22-.22-1.64-.36-.42-.13-.72-.28-.91-.44-.19-.16-.28-.37-.28-.61,0-.37.28-.66.85-.87.56-.21,1.41-.34,2.54-.39v-.46h1.65Z"/>
    </g>
    <g>
      <path class="cls-17" d="M552.44,865.2v2.62c0,3.31-6.34,5.99-14.17,5.99s-14.17-2.68-14.17-5.99v-2.62c0,3.31,6.34,5.99,14.17,5.99s14.17-2.68,14.17-5.99Z"/>
      <path class="cls-19" d="M538.27,859.21c-7.83,0-14.17,2.68-14.17,5.99s6.34,5.99,14.17,5.99,14.17-2.68,14.17-5.99-6.34-5.99-14.17-5.99Z"/>
      <path class="cls-17" d="M538.27,860.85c-5.68,0-10.29,1.95-10.29,4.35s4.61,4.35,10.29,4.35,10.29-1.95,10.29-4.35-4.61-4.35-10.29-4.35Z"/>
      <path class="cls-34" d="M539.12,862.38v.46c1.06.02,2.13.14,3.2.33l-.95.96c-1.11-.21-2.12-.32-3.01-.32-.43,0-.73.02-.9.07-.17.04-.26.11-.26.19,0,.07.06.14.19.18.12.05.34.1.65.16.31.06.74.13,1.29.21,1.11.17,1.91.36,2.4.57.48.21.73.49.73.82,0,.38-.28.69-.85.92-.57.24-1.39.38-2.48.44v.65h-1.65v-.63c-1.17-.02-2.29-.13-3.37-.33v-1.12c.62.13,1.29.24,2.01.33.72.09,1.36.13,1.91.13.45,0,.78-.02.99-.07.21-.05.31-.12.31-.23,0-.07-.08-.14-.23-.19-.15-.05-.4-.11-.76-.18-.35-.07-.83-.14-1.43-.24-.68-.11-1.22-.22-1.64-.36-.42-.13-.72-.28-.91-.44-.19-.16-.28-.37-.28-.61,0-.37.28-.66.85-.87.56-.21,1.41-.34,2.54-.39v-.46h1.65Z"/>
    </g>
    <g>
      <path class="cls-17" d="M552.44,861.47v2.62c0,3.31-6.34,5.99-14.17,5.99s-14.17-2.68-14.17-5.99v-2.62c0,3.31,6.34,5.99,14.17,5.99s14.17-2.68,14.17-5.99Z"/>
      <path class="cls-19" d="M538.27,855.48c-7.83,0-14.17,2.68-14.17,5.99s6.34,5.99,14.17,5.99,14.17-2.68,14.17-5.99-6.34-5.99-14.17-5.99Z"/>
      <path class="cls-17" d="M538.27,857.12c-5.68,0-10.29,1.95-10.29,4.35s4.61,4.35,10.29,4.35,10.29-1.95,10.29-4.35-4.61-4.35-10.29-4.35Z"/>
      <path class="cls-34" d="M539.12,858.65v.46c1.06.02,2.13.14,3.2.33l-.95.96c-1.11-.21-2.12-.32-3.01-.32-.43,0-.73.02-.9.07-.17.04-.26.11-.26.19,0,.07.06.14.19.18.12.05.34.1.65.16.31.06.74.13,1.29.21,1.11.17,1.91.36,2.4.57.48.21.73.49.73.82,0,.38-.28.69-.85.92-.57.24-1.39.38-2.48.44v.65h-1.65v-.63c-1.17-.02-2.29-.13-3.37-.33v-1.12c.62.13,1.29.24,2.01.33.72.09,1.36.13,1.91.13.45,0,.78-.02.99-.07.21-.05.31-.12.31-.23,0-.07-.08-.14-.23-.19-.15-.05-.4-.11-.76-.18-.35-.07-.83-.14-1.43-.24-.68-.11-1.22-.22-1.64-.36-.42-.13-.72-.28-.91-.44-.19-.16-.28-.37-.28-.61,0-.37.28-.66.85-.87.56-.21,1.41-.34,2.54-.39v-.46h1.65Z"/>
    </g>
    <g>
      <path class="cls-17" d="M552.44,857.36v2.62c0,3.31-6.34,5.99-14.17,5.99s-14.17-2.68-14.17-5.99v-2.62c0,3.31,6.34,5.99,14.17,5.99s14.17-2.68,14.17-5.99Z"/>
      <path class="cls-19" d="M538.27,851.37c-7.83,0-14.17,2.68-14.17,5.99s6.34,5.99,14.17,5.99,14.17-2.68,14.17-5.99-6.34-5.99-14.17-5.99Z"/>
      <path class="cls-14" d="M538.27,853.01c-5.68,0-10.29,1.95-10.29,4.35s4.61,4.35,10.29,4.35,10.29-1.95,10.29-4.35-4.61-4.35-10.29-4.35Z"/>
    </g>
    <g>
      <path class="cls-17" d="M583.45,880.28v3.23c0,4.08-7.82,7.39-17.48,7.39s-17.48-3.31-17.48-7.39v-3.23c0,4.08,7.83,7.39,17.48,7.39s17.48-3.31,17.48-7.39Z"/>
      <path class="cls-19" d="M565.97,872.89c-9.65,0-17.48,3.31-17.48,7.39s7.83,7.39,17.48,7.39,17.48-3.31,17.48-7.39-7.82-7.39-17.48-7.39Z"/>
      <path class="cls-17" d="M565.97,874.91c-7.01,0-12.69,2.4-12.69,5.36s5.68,5.36,12.69,5.36,12.69-2.4,12.69-5.36-5.68-5.36-12.69-5.36Z"/>
      <path class="cls-34" d="M567.03,876.79v.56c1.31.03,2.62.17,3.95.41l-1.17,1.19c-1.37-.26-2.61-.39-3.71-.39-.53,0-.9.03-1.11.08-.21.05-.32.13-.32.24,0,.09.08.17.23.23.15.06.42.13.8.2.38.07.91.16,1.59.26,1.37.21,2.36.44,2.96.7.6.26.9.6.9,1.01,0,.47-.35.84-1.05,1.14-.7.29-1.72.47-3.06.54v.8h-2.04v-.78c-1.44-.03-2.82-.16-4.16-.41v-1.38c.76.16,1.59.3,2.48.41.89.11,1.68.16,2.36.16.56,0,.97-.03,1.23-.09.26-.06.39-.15.39-.28,0-.09-.09-.17-.28-.23-.19-.06-.5-.14-.94-.22s-1.03-.18-1.77-.29c-.83-.13-1.51-.28-2.02-.44-.51-.16-.88-.34-1.12-.55-.23-.2-.35-.45-.35-.75,0-.46.35-.82,1.04-1.07.7-.26,1.74-.42,3.13-.48v-.57h2.04Z"/>
    </g>
    <g>
      <path class="cls-17" d="M583.45,875.21v3.23c0,4.08-7.82,7.39-17.48,7.39s-17.48-3.31-17.48-7.39v-3.23c0,4.08,7.83,7.39,17.48,7.39s17.48-3.31,17.48-7.39Z"/>
      <path class="cls-19" d="M565.97,867.82c-9.65,0-17.48,3.31-17.48,7.39s7.83,7.39,17.48,7.39,17.48-3.31,17.48-7.39-7.82-7.39-17.48-7.39Z"/>
      <path class="cls-17" d="M565.97,869.84c-7.01,0-12.69,2.4-12.69,5.36s5.68,5.36,12.69,5.36,12.69-2.4,12.69-5.36-5.68-5.36-12.69-5.36Z"/>
      <path class="cls-34" d="M567.03,871.72v.56c1.31.03,2.62.17,3.95.41l-1.17,1.19c-1.37-.26-2.61-.39-3.71-.39-.53,0-.9.03-1.11.08-.21.05-.32.13-.32.24,0,.09.08.17.23.23.15.06.42.13.8.2.38.07.91.16,1.59.26,1.37.21,2.36.44,2.96.7.6.26.9.6.9,1.01,0,.47-.35.84-1.05,1.14-.7.29-1.72.47-3.06.54v.8h-2.04v-.78c-1.44-.03-2.82-.16-4.16-.41v-1.38c.76.16,1.59.3,2.48.41.89.11,1.68.16,2.36.16.56,0,.97-.03,1.23-.09.26-.06.39-.15.39-.28,0-.09-.09-.17-.28-.23-.19-.06-.5-.14-.94-.22s-1.03-.18-1.77-.29c-.83-.13-1.51-.28-2.02-.44-.51-.16-.88-.34-1.12-.55-.23-.2-.35-.45-.35-.75,0-.46.35-.82,1.04-1.07.7-.26,1.74-.42,3.13-.48v-.57h2.04Z"/>
    </g>
    <g>
      <path class="cls-17" d="M583.45,869.76v3.23c0,4.08-7.82,7.39-17.48,7.39s-17.48-3.31-17.48-7.39v-3.23c0,4.08,7.83,7.39,17.48,7.39s17.48-3.31,17.48-7.39Z"/>
      <path class="cls-19" d="M565.97,862.37c-9.65,0-17.48,3.31-17.48,7.39s7.83,7.39,17.48,7.39,17.48-3.31,17.48-7.39-7.82-7.39-17.48-7.39Z"/>
      <path class="cls-17" d="M565.97,864.39c-7.01,0-12.69,2.4-12.69,5.36s5.68,5.36,12.69,5.36,12.69-2.4,12.69-5.36-5.68-5.36-12.69-5.36Z"/>
      <path class="cls-34" d="M567.03,866.27v.56c1.31.03,2.62.17,3.95.41l-1.17,1.19c-1.37-.26-2.61-.39-3.71-.39-.53,0-.9.03-1.11.08-.21.05-.32.13-.32.24,0,.09.08.17.23.23.15.06.42.13.8.2.38.07.91.16,1.59.26,1.37.21,2.36.44,2.96.7.6.26.9.6.9,1.01,0,.47-.35.84-1.05,1.14-.7.29-1.72.47-3.06.54v.8h-2.04v-.78c-1.44-.03-2.82-.16-4.16-.41v-1.38c.76.16,1.59.3,2.48.41.89.11,1.68.16,2.36.16.56,0,.97-.03,1.23-.09.26-.06.39-.15.39-.28,0-.09-.09-.17-.28-.23-.19-.06-.5-.14-.94-.22-.44-.08-1.03-.18-1.77-.29-.83-.13-1.51-.28-2.02-.44-.51-.16-.88-.34-1.12-.55-.23-.2-.35-.45-.35-.75,0-.46.35-.82,1.04-1.07.7-.26,1.74-.42,3.13-.48v-.57h2.04Z"/>
    </g>
    <g>
      <path class="cls-17" d="M583.45,864.69v3.23c0,4.08-7.82,7.39-17.48,7.39s-17.48-3.31-17.48-7.39v-3.23c0,4.08,7.83,7.39,17.48,7.39s17.48-3.31,17.48-7.39Z"/>
      <path class="cls-19" d="M565.97,857.3c-9.65,0-17.48,3.31-17.48,7.39s7.83,7.39,17.48,7.39,17.48-3.31,17.48-7.39-7.82-7.39-17.48-7.39Z"/>
      <path class="cls-17" d="M565.97,859.32c-7.01,0-12.69,2.4-12.69,5.36s5.68,5.36,12.69,5.36,12.69-2.4,12.69-5.36-5.68-5.36-12.69-5.36Z"/>
      <path class="cls-34" d="M567.03,861.2v.56c1.31.03,2.62.17,3.95.41l-1.17,1.19c-1.37-.26-2.61-.39-3.71-.39-.53,0-.9.03-1.11.08-.21.05-.32.13-.32.24,0,.09.08.17.23.23.15.06.42.13.8.2.38.07.91.16,1.59.26,1.37.21,2.36.44,2.96.7.6.26.9.6.9,1.01,0,.47-.35.84-1.05,1.14-.7.29-1.72.47-3.06.54v.8h-2.04v-.78c-1.44-.03-2.82-.16-4.16-.41v-1.38c.76.16,1.59.3,2.48.41.89.11,1.68.16,2.36.16.56,0,.97-.03,1.23-.09.26-.06.39-.15.39-.28,0-.09-.09-.17-.28-.23-.19-.06-.5-.14-.94-.22s-1.03-.18-1.77-.29c-.83-.13-1.51-.28-2.02-.44-.51-.16-.88-.34-1.12-.55-.23-.2-.35-.45-.35-.75,0-.46.35-.82,1.04-1.07.7-.26,1.74-.42,3.13-.48v-.57h2.04Z"/>
    </g>
    <g>
      <path class="cls-17" d="M583.45,860.08v3.23c0,4.08-7.82,7.39-17.48,7.39s-17.48-3.31-17.48-7.39v-3.23c0,4.08,7.83,7.39,17.48,7.39s17.48-3.31,17.48-7.39Z"/>
      <path class="cls-19" d="M565.97,852.7c-9.65,0-17.48,3.31-17.48,7.39s7.83,7.39,17.48,7.39,17.48-3.31,17.48-7.39-7.82-7.39-17.48-7.39Z"/>
      <path class="cls-17" d="M565.97,854.72c-7.01,0-12.69,2.4-12.69,5.36s5.68,5.36,12.69,5.36,12.69-2.4,12.69-5.36-5.68-5.36-12.69-5.36Z"/>
      <path class="cls-34" d="M567.03,856.6v.56c1.31.03,2.62.17,3.95.41l-1.17,1.19c-1.37-.26-2.61-.39-3.71-.39-.53,0-.9.03-1.11.08-.21.05-.32.13-.32.24,0,.09.08.17.23.23.15.06.42.13.8.2.38.07.91.16,1.59.26,1.37.21,2.36.44,2.96.7.6.26.9.6.9,1.01,0,.47-.35.84-1.05,1.14-.7.29-1.72.47-3.06.54v.8h-2.04v-.78c-1.44-.03-2.82-.16-4.16-.41v-1.38c.76.16,1.59.3,2.48.41.89.11,1.68.16,2.36.16.56,0,.97-.03,1.23-.09.26-.06.39-.15.39-.28,0-.09-.09-.17-.28-.23-.19-.06-.5-.14-.94-.22s-1.03-.18-1.77-.29c-.83-.13-1.51-.28-2.02-.44-.51-.16-.88-.34-1.12-.55-.23-.2-.35-.45-.35-.75,0-.46.35-.82,1.04-1.07.7-.26,1.74-.42,3.13-.48v-.57h2.04Z"/>
    </g>
    <g>
      <path class="cls-17" d="M583.45,855.01v3.23c0,4.08-7.82,7.39-17.48,7.39s-17.48-3.31-17.48-7.39v-3.23c0,4.08,7.83,7.39,17.48,7.39s17.48-3.31,17.48-7.39Z"/>
      <path class="cls-19" d="M565.97,847.63c-9.65,0-17.48,3.31-17.48,7.39s7.83,7.39,17.48,7.39,17.48-3.31,17.48-7.39-7.82-7.39-17.48-7.39Z"/>
      <path class="cls-17" d="M565.97,849.65c-7.01,0-12.69,2.4-12.69,5.36s5.68,5.36,12.69,5.36,12.69-2.4,12.69-5.36-5.68-5.36-12.69-5.36Z"/>
      <path class="cls-34" d="M567.03,851.53v.56c1.31.03,2.62.17,3.95.41l-1.17,1.19c-1.37-.26-2.61-.39-3.71-.39-.53,0-.9.03-1.11.08-.21.05-.32.13-.32.24,0,.09.08.17.23.23.15.06.42.13.8.2.38.07.91.16,1.59.26,1.37.21,2.36.44,2.96.7.6.26.9.6.9,1.01,0,.47-.35.84-1.05,1.14-.7.29-1.72.47-3.06.54v.8h-2.04v-.78c-1.44-.03-2.82-.16-4.16-.41v-1.38c.76.16,1.59.3,2.48.41.89.11,1.68.16,2.36.16.56,0,.97-.03,1.23-.09.26-.06.39-.15.39-.28,0-.09-.09-.17-.28-.23-.19-.06-.5-.14-.94-.22s-1.03-.18-1.77-.29c-.83-.13-1.51-.28-2.02-.44-.51-.16-.88-.34-1.12-.55-.23-.2-.35-.45-.35-.75,0-.46.35-.82,1.04-1.07.7-.26,1.74-.42,3.13-.48v-.57h2.04Z"/>
    </g>
    <g>
      <path class="cls-17" d="M583.45,849.56v3.23c0,4.08-7.82,7.39-17.48,7.39s-17.48-3.31-17.48-7.39v-3.23c0,4.08,7.83,7.39,17.48,7.39s17.48-3.31,17.48-7.39Z"/>
      <path class="cls-19" d="M565.97,842.18c-9.65,0-17.48,3.31-17.48,7.39s7.83,7.39,17.48,7.39,17.48-3.31,17.48-7.39-7.82-7.39-17.48-7.39Z"/>
      <path class="cls-17" d="M565.97,844.2c-7.01,0-12.69,2.4-12.69,5.36s5.68,5.36,12.69,5.36,12.69-2.4,12.69-5.36-5.68-5.36-12.69-5.36Z"/>
      <path class="cls-34" d="M567.03,846.08v.56c1.31.03,2.62.17,3.95.41l-1.17,1.19c-1.37-.26-2.61-.39-3.71-.39-.53,0-.9.03-1.11.08-.21.05-.32.13-.32.24,0,.09.08.17.23.23.15.06.42.13.8.2.38.07.91.16,1.59.26,1.37.21,2.36.44,2.96.7.6.26.9.6.9,1.01,0,.47-.35.84-1.05,1.14-.7.29-1.72.47-3.06.54v.8h-2.04v-.78c-1.44-.03-2.82-.16-4.16-.41v-1.38c.76.16,1.59.3,2.48.41.89.11,1.68.16,2.36.16.56,0,.97-.03,1.23-.09.26-.06.39-.15.39-.28,0-.09-.09-.17-.28-.23s-.5-.14-.94-.22c-.44-.08-1.03-.18-1.77-.29-.83-.13-1.51-.28-2.02-.44-.51-.16-.88-.34-1.12-.55-.23-.2-.35-.45-.35-.75,0-.46.35-.82,1.04-1.07.7-.26,1.74-.42,3.13-.48v-.57h2.04Z"/>
    </g>
    <g>
      <path class="cls-17" d="M583.45,844.49v3.23c0,4.08-7.82,7.39-17.48,7.39s-17.48-3.31-17.48-7.39v-3.23c0,4.08,7.83,7.39,17.48,7.39s17.48-3.31,17.48-7.39Z"/>
      <path class="cls-19" d="M565.97,837.11c-9.65,0-17.48,3.31-17.48,7.39s7.83,7.39,17.48,7.39,17.48-3.31,17.48-7.39-7.82-7.39-17.48-7.39Z"/>
      <path class="cls-14" d="M565.97,839.13c-7.01,0-12.69,2.4-12.69,5.36s5.68,5.36,12.69,5.36,12.69-2.4,12.69-5.36-5.68-5.36-12.69-5.36Z"/>
    </g>
    <g>
      <path class="cls-17" d="M569.41,889.29v2.62c0,3.31-6.34,5.99-14.17,5.99s-14.17-2.68-14.17-5.99v-2.62c0,3.31,6.34,5.99,14.17,5.99s14.17-2.68,14.17-5.99Z"/>
      <path class="cls-19" d="M555.24,883.3c-7.83,0-14.17,2.68-14.17,5.99s6.34,5.99,14.17,5.99,14.17-2.68,14.17-5.99-6.34-5.99-14.17-5.99Z"/>
      <path class="cls-14" d="M555.24,884.94c-5.68,0-10.29,1.95-10.29,4.35s4.61,4.35,10.29,4.35,10.29-1.95,10.29-4.35-4.61-4.35-10.29-4.35Z"/>
    </g>
    <g>
      <path class="cls-17" d="M668.52,855.51v2.62c0,3.31-6.34,5.99-14.17,5.99s-14.17-2.68-14.17-5.99v-2.62c0,3.31,6.34,5.99,14.17,5.99s14.17-2.68,14.17-5.99Z"/>
      <path class="cls-19" d="M654.35,849.53c-7.83,0-14.17,2.68-14.17,5.99s6.34,5.99,14.17,5.99,14.17-2.68,14.17-5.99-6.34-5.99-14.17-5.99Z"/>
      <path class="cls-14" d="M654.35,851.17c-5.68,0-10.29,1.95-10.29,4.35s4.61,4.35,10.29,4.35,10.29-1.95,10.29-4.35-4.61-4.35-10.29-4.35Z"/>
    </g>
    <path class="cls-13" d="M626.5,745.47l-2.22-.09c-.65-.03-1.55.07-2.05.55-.38.36-.43.76.22.82,3.48.32,6.54,2,9.38,3.94,2.97,2.03,5.82,4.24,8.74,6.33,6.23,4.45,12.58,8.74,19.04,12.87.53.34,1.34.14,1.89-.07.19-.07,1.33-.66.82-.98-6.73-4.3-13.34-8.78-19.83-13.44-5.5-3.94-11.17-9.38-18.22-10.02l-1.83,1.37,2.22.09c.65.03,1.55-.07,2.05-.55.36-.34.45-.79-.22-.82h0Z"/>
    <polygon class="cls-34" points="356.33 838.29 528.44 880.16 366.17 883.45 194.05 841.58 356.33 838.29"/>
    <rect class="cls-51" x="301.01" y="798.98" width="8.43" height="127.98" transform="translate(1212.18 739.23) rotate(101.71)"/>
    <rect class="cls-48" x="303.6" y="799.01" width="3.13" height="127.98" transform="translate(1212.14 739.32) rotate(101.71)"/>
    <polygon class="cls-37" points="368.64 871.9 381.12 878.92 366.96 880.16 368.64 871.9"/>
    <polygon class="cls-26" points="381.12 878.92 377.44 876.85 376.95 879.28 381.12 878.92"/>
    <rect class="cls-5" x="278.13" y="809.41" width="8.43" height="127.98" transform="translate(1198.05 809.96) rotate(103.95)"/>
    <rect class="cls-22" x="280.72" y="809.44" width="3.13" height="127.98" transform="translate(1198.01 810.06) rotate(103.95)"/>
    <polygon class="cls-37" points="345.36 884.81 357.55 892.3 343.36 892.99 345.36 884.81"/>
    <polygon class="cls-26" points="357.55 892.3 353.96 890.1 353.37 892.51 357.55 892.3"/>
    <rect class="cls-37" x="237.9" y="848.47" width="8.34" height="2.79" transform="translate(1121.37 762.09) rotate(100.2)"/>
    <rect class="cls-37" x="214.83" y="856.31" width="8.34" height="2.79" transform="translate(1104.2 851.97) rotate(103.95)"/>
    <path class="cls-9" d="M395.79,871.55c6.29.15,12.58.3,18.87.46,1.63.04,3.3.07,4.85-.45,1.41-.48,2.64-1.4,4.03-1.95,3.96-1.57,8.47.07,12.68-.6"/>
    <path class="cls-2" d="M378.75,867.42c3.38.02,6.76.04,10.13.06.8,0,1.62,0,2.38-.26.86-.31,1.56-.94,2.33-1.45,6.13-4.02,15.21.93,21.35-3.07"/>
    <path class="cls-2" d="M363.87,862.84c10.35-.9,20.65-2.42,30.83-4.55"/>
    <path class="cls-2" d="M359.14,845.57c-4.79.03-9.57.06-14.36.09-1.91.01-4.25.3-4.96,2.07-.53,1.31.22,2.86,1.38,3.67s2.62,1.03,4.03,1.14c6.55.52,13.24-.88,19.04-3.98.17-.46-.03-1.04-.46-1.28"/>
    <path class="cls-2" d="M322.35,847.79c-5.36-.17-10.73-.1-16.08.21,1.41,3.17,4.64,5.24,8.01,6.09,3.36.86,6.89.68,10.36.5.79-.04,1.63-.1,2.3-.52s1.09-1.37.68-2.05"/>
  </g>
</svg>