<?xml version="1.0" encoding="UTF-8"?>
<svg xmlns="http://www.w3.org/2000/svg" xmlns:xlink="http://www.w3.org/1999/xlink" viewBox="0 0 1334 1000">
  <defs>
    <style>
      .cls-1 {
        fill: #f1e9d0;
      }

      .cls-2 {
        fill: #99533b;
      }

      .cls-3 {
        fill: #775239;
      }

      .cls-4 {
        fill: #0c9146;
      }

      .cls-5 {
        fill: #e22041;
      }

      .cls-6 {
        fill: #77c043;
      }

      .cls-7 {
        fill: #c5203d;
      }

      .cls-8 {
        fill: #feeb46;
      }

      .cls-8, .cls-9, .cls-10, .cls-11 {
        opacity: .5;
      }

      .cls-12 {
        fill: #ffd10a;
      }

      .cls-13 {
        fill: #196533;
      }

      .cls-9 {
        fill: #fff;
      }

      .cls-14 {
        opacity: .8;
      }

      .cls-14, .cls-15 {
        fill: #2c3166;
      }

      .cls-14, .cls-10, .cls-11 {
        mix-blend-mode: screen;
      }

      .cls-16 {
        fill: #78c143;
      }

      .cls-17, .cls-18 {
        mix-blend-mode: multiply;
        opacity: .3;
      }

      .cls-17, .cls-19 {
        fill: #f99c1c;
      }

      .cls-20 {
        isolation: isolate;
      }

      .cls-21, .cls-11 {
        fill: #aad039;
      }

      .cls-22 {
        fill: #58141b;
      }

      .cls-23 {
        fill: #f57f20;
      }

      .cls-24 {
        fill: url(#linear-gradient);
        opacity: .81;
      }

      .cls-10 {
        fill: #267c3d;
      }

      .cls-25 {
        fill: #783219;
      }

      .cls-26, .cls-18 {
        fill: #f99d1c;
      }

      .cls-27 {
        fill: #f37b7f;
        opacity: .68;
      }

      .cls-28 {
        fill: #ee213d;
      }

      .cls-29 {
        fill: #febf10;
      }

      .cls-30 {
        fill: #ef4455;
      }

      .cls-31 {
        fill: #d0de64;
      }

      .cls-32 {
        fill: #41a848;
      }

      .cls-33 {
        fill: #150e40;
      }

      .cls-34 {
        fill: #1a421e;
      }

      .cls-35 {
        fill: #ffe3aa;
      }

      .cls-36 {
        fill: #9e4b23;
      }

      .cls-37 {
        fill: #f26921;
      }

      .cls-38 {
        fill: #9c1b35;
      }
    </style>
    <linearGradient id="linear-gradient" x1="-1114.66" y1="3431.97" x2="-410.42" y2="3431.97" gradientTransform="translate(-2772.55 1051.51) rotate(90) scale(1 -1)" gradientUnits="userSpaceOnUse">
      <stop offset="0" stop-color="#f1ece1"/>
      <stop offset=".18" stop-color="#efe9de" stop-opacity=".99"/>
      <stop offset=".33" stop-color="#e9e1d5" stop-opacity=".97"/>
      <stop offset=".46" stop-color="#dfd5c6" stop-opacity=".94"/>
      <stop offset=".59" stop-color="#d0c3b1" stop-opacity=".88"/>
      <stop offset=".72" stop-color="#beab95" stop-opacity=".82"/>
      <stop offset=".84" stop-color="#a78f74" stop-opacity=".74"/>
      <stop offset=".95" stop-color="#8d6d4d" stop-opacity=".64"/>
      <stop offset="1" stop-color="#825f3c" stop-opacity=".6"/>
    </linearGradient>
  </defs>
  <g class="cls-20">
    <g id="Layer_1" data-name="Layer 1">
      <polyline class="cls-1" points="1425.67 688.91 1425.67 -54.91 -70.44 -58.82 -77.02 697.71"/>
      <polyline class="cls-24" points="1425.67 638.77 -106.83 638.77 -106.83 -65.47 1425.67 -65.47"/>
      <path class="cls-13" d="M892.19,408.58c42.05,77.93,168.37,103.57,201.28,109.93,8.42,1.62,17.13,1.17,25.27-1.5,11.3-3.71,23.7-12.23,23.01-31.79-.05-1.33-.15-2.64-.31-3.94-.25-2.03-.65-4.02-1.19-5.96-5.59-20.09-26.77-35.82-68.01-48.83-46.23-14.58-84.32-50.7-105.42-84.96,0,0,0,0,0-.01-.7-1.14-1.39-2.28-2.05-3.42-.29-.5-.59-.99-.9-1.46-.11-.17-.22-.34-.33-.51-.04-.07-.09-.14-.14-.21-.13-.2-.26-.39-.4-.58-.01-.02-.03-.04-.04-.06-.13-.18-.25-.37-.38-.54-.05-.08-.11-.15-.17-.23-.12-.16-.24-.32-.36-.48-.36-.48-.73-.95-1.11-1.41-.16-.2-.33-.4-.5-.59-.18-.21-.35-.41-.54-.61-.14-.16-.28-.32-.43-.47-.16-.17-.31-.34-.47-.5-.04-.04-.08-.09-.13-.13-.13-.14-.26-.27-.4-.41-.85-.86-1.73-1.67-2.65-2.44-.15-.13-.3-.25-.45-.38-.04-.03-.08-.06-.12-.1-.16-.13-.32-.26-.49-.39-.08-.06-.16-.12-.24-.19-.13-.1-.25-.19-.38-.29-.11-.08-.22-.16-.32-.24-.19-.14-.39-.29-.59-.42-.65-.47-1.32-.91-1.99-1.33-.09-.06-.18-.11-.27-.17-.21-.13-.42-.26-.63-.38-.24-.14-.49-.28-.73-.42-.01,0-.03-.02-.04-.02-.25-.13-.49-.27-.74-.4-.25-.14-.51-.27-.76-.4-.23-.12-.46-.23-.69-.34-.06-.03-.12-.06-.18-.08-.23-.11-.45-.21-.68-.32-.26-.12-.52-.23-.78-.34-.25-.11-.51-.21-.76-.32-.02-.01-.05-.02-.07-.03-.2-.08-.4-.16-.6-.24-.21-.08-.43-.16-.64-.24-.15-.06-.3-.11-.45-.16-.02,0-.03-.01-.05-.02-.47-.16-.94-.32-1.41-.47-.76-.24-1.52-.45-2.3-.65-.15-.04-.3-.08-.45-.11-.21-.05-.42-.1-.64-.15-.26-.06-.52-.12-.79-.17-.23-.05-.45-.09-.68-.13-.02,0-.05,0-.08-.02-.07-.01-.14-.03-.22-.04-.52-.1-1.04-.18-1.56-.26-.28-.04-.56-.08-.85-.12-.25-.03-.51-.06-.76-.09-.05,0-.11-.01-.16-.02-.26-.03-.52-.05-.78-.08-.29-.03-.57-.05-.86-.07-.54-.04-1.09-.07-1.63-.09-.05,0-.09,0-.14,0-.26-.01-.53-.02-.79-.02-.01,0-.03,0-.05,0-.28,0-.55,0-.83,0-.29,0-.58,0-.87,0-.25,0-.51,0-.76.02-.06,0-.11,0-.17,0-.2,0-.4.01-.6.03-.88.04-1.75.11-2.63.2-.12.01-.24.03-.36.04-.22.02-.44.05-.66.08-.24.03-.49.06-.73.1-.26.04-.53.08-.79.12-.02,0-.04,0-.07.01-.13.02-.26.04-.38.06-.49.08-.98.17-1.46.27-.67.13-1.33.28-1.99.44-28.35,6.84-51.81,38.94-24.54,89.47Z"/>
      <path class="cls-34" d="M892.19,408.58c42.05,77.93,168.37,103.57,201.28,109.93,8.42,1.62,17.13,1.17,25.27-1.5,11.3-3.71,23.7-12.23,23.01-31.79-.05-1.33-.15-2.64-.31-3.94,0,0,0,0,0,0,0,0-4.73,12.74-48.03,8.69-43.3-4.06-153.22-59.75-171.34-106.94-11.76-30.63-11.61-51-5.34-63.91-28.35,6.84-51.81,38.94-24.54,89.47Z"/>
      <path class="cls-10" d="M936.83,318.54c15.67,48.9,61.49,99.47,120.43,116.21,57.26,16.26,82.79,41.04,82.79,41.04.07-.15.14-.31.2-.47-5.59-20.09-26.77-35.82-68.01-48.83-46.23-14.58-84.32-50.7-105.42-84.96,0,0,0,0,0-.01-.7-1.14-1.39-2.28-2.05-3.42-.29-.5-.59-.99-.9-1.46-.11-.17-.22-.34-.33-.51-.04-.07-.09-.14-.14-.21-.13-.2-.26-.39-.4-.58-.01-.02-.03-.04-.04-.06-.13-.18-.25-.37-.38-.54-.05-.08-.11-.15-.17-.23-.12-.16-.24-.32-.36-.48-.36-.48-.73-.95-1.11-1.41-.16-.2-.33-.4-.5-.59-.18-.21-.35-.41-.54-.61-.14-.16-.28-.32-.43-.47-.16-.17-.31-.34-.47-.5-.04-.04-.08-.09-.13-.13-.13-.14-.26-.27-.4-.41-.85-.86-1.73-1.67-2.65-2.44-.15-.13-.3-.25-.45-.38-.04-.03-.08-.06-.12-.1-.16-.13-.32-.26-.49-.39-.08-.06-.16-.12-.24-.19-.13-.1-.25-.19-.38-.29-.11-.08-.22-.16-.32-.24-.19-.14-.39-.29-.59-.42-.65-.47-1.32-.91-1.99-1.33-.09-.06-.18-.11-.27-.17-.21-.13-.42-.26-.63-.38-.24-.14-.49-.28-.73-.42-.01,0-.03-.02-.04-.02-.25-.13-.49-.27-.74-.4-.25-.14-.51-.27-.76-.4-.23-.12-.46-.23-.69-.34-.06-.03-.12-.06-.18-.08-.23-.11-.45-.21-.68-.32-.26-.12-.52-.23-.78-.34-.25-.11-.51-.21-.76-.32-.02-.01-.05-.02-.07-.03-.2-.08-.4-.16-.6-.24-.21-.08-.43-.16-.64-.24-.15-.06-.3-.11-.45-.16-.02,0-.03-.01-.05-.02-.47-.16-.94-.32-1.41-.47-.76-.24-1.52-.45-2.3-.65-.15-.04-.3-.08-.45-.11-.21-.05-.42-.1-.64-.15-.26-.06-.52-.12-.79-.17-.23-.05-.45-.09-.68-.13-.02,0-.05,0-.08-.02Z"/>
      <g>
        <path class="cls-28" d="M458.13,404.08c-38.96,28.92-74.28,9.54-74.28,9.54,0,0-31.33,10.86-62.02-18.48-1.8-1.71-3.59-3.56-5.37-5.56-18.06-20.26-25.03-56.3-19.23-85.86,4.56-23.28,17.03-42.56,38.21-46.95,32.46-6.72,49.98,2.98,57.93,10,3.83,3.38,5.44,6.14,5.44,6.14,0,0,4.67-4.59,14-7.77,2.66-.91,5.69-1.69,9.11-2.23h0c7.08-1.12,15.79-1.14,26.12,1.18,5.65,1.26,11.79,3.23,18.42,6.1,45.07,19.5,30.63,104.98-8.33,133.9Z"/>
        <path class="cls-7" d="M401.79,282.88c-13.04-.16-12.74-12.01-12.74-12.01,1.54-1.87,1.79-2.89,4.32-4.11,3.83,3.38,5.44,6.14,5.44,6.14,0,0,4.67-4.59,14-7.77,1.25,6.11,2.37,17.92-11.02,17.75Z"/>
        <path class="cls-27" d="M382.34,264.07s-35.46-10.93-60.69,6.96c-19.78,14.02-24.19,62.81-3.66,81.63,0,0-7.78-44.93,11.74-66.17,21.67-23.59,52.6-22.41,52.6-22.41Z"/>
        <path class="cls-32" d="M399.98,271.57s-17.73.54-25.04-2.03c-3.68-1.29-3.13-3.82-1.68-6,1.43-2.15,3.74-3.98,3.74-3.98,0,0-15.3,1.57-20.05-3.16-.17-.17-.33-.34-.46-.51-3.58-4.51,5.54-8.3,5.54-8.3,0,0-10.85-.08-15.43-3.38-1.05-.76-1.78-1.69-1.95-2.84-.45-2.9,1.87-4.63,4.43-5.65,2.83-1.13,5.96-1.39,5.96-1.39,0,0-1.64-2.19-3.07-5.09-.61-1.24-1.19-2.61-1.58-3.99-1.06-3.71-.84-7.55,3.41-9.32,7.93-3.31,16.48,4.79,19.16,7.63.51.54.81.89.85.94-.03-.1-.49-1.84-.54-3.76h0c-.03-1.15.09-2.35.53-3.33.58-1.27,1.71-2.14,3.8-1.92.21.02.42.07.63.14,1.27.4,2.67,1.58,4.09,3.22h0c2.25,2.58,4.56,6.31,6.55,9.92,3.18,5.75,5.55,11.21,5.55,11.21,0,0-.03-2.92,1.63-4.1.88-.62,2.24-.76,4.33.3,1.37.69,2.09,2.88,2.41,5.86,1.05,10.18-2.81,29.55-2.81,29.55Z"/>
        <path class="cls-4" d="M386.08,252.29s-17.58-8.92-39.46-8.1c-1.05-.76-1.78-1.69-1.95-2.84-.45-2.9,1.87-4.63,4.43-5.65,8.43.32,20.08,1.98,31.61,7.6l5.38,8.98Z"/>
        <path class="cls-4" d="M389.04,251.94l-7.04-7.75c-1.5-9.34-.93-18.11.33-25.35,2.25,2.58,4.56,6.31,6.55,9.92-1.6,13.24.16,23.18.16,23.18Z"/>
        <path class="cls-4" d="M375.16,237.14s-12.55-5.24-23.19-7.91c-.61-1.24-1.19-2.61-1.58-3.99,5.63.8,14.85,2.74,22.62,7.4.66.39,1.31.81,1.94,1.25l.1,1.51.12,1.75Z"/>
        <path class="cls-4" d="M376.07,235.97l-1.03-.58-1.82-1.02c-.09-.58-.16-1.15-.22-1.73-.33-3.05-.3-6.13-.04-9.09.51.54.81.89.85.94-.03-.1-.49-1.84-.54-3.76h0c.15-1.15.33-2.26.53-3.33.58-1.27,1.71-2.14,3.8-1.92.21.02.42.07.63.14-1.63,9.84-2.17,20.35-2.17,20.35Z"/>
        <path class="cls-4" d="M394.07,265.38c-6.28-2.1-14.14-2.27-20.8-1.84,1.43-2.15,3.74-3.98,3.74-3.98,0,0-15.3,1.57-20.05-3.16-.17-.17-.33-.34-.46-.51,13.91-2.84,34.41,3.99,34.41,3.99l3.15,5.51Z"/>
        <path class="cls-4" d="M397.17,263.92l-4.21-4.76s.07-12.08,3.09-23.3c.88-.62,2.24-.76,4.33.3,1.37.69,2.09,2.88,2.41,5.86-2.79,6.44-5.59,14.69-5.62,21.9Z"/>
        <path class="cls-6" d="M401.35,269.82c-1.54-4.27-15.53-29.23-34.32-42.89,0,0,21.89,26.01,29.88,44.23.5,1.15,1.6,1.95,2.84,1.75.59-.1,1.16-.4,1.52-1.09.32-.62.32-1.35.08-2Z"/>
        <path class="cls-2" d="M481.02,221.93c-.2,2.08-.92,4.2-2.21,6.38,0,0-54.65-15.28-74.55,44.9,0,0-5.31,6.71-7.19-1.03,0,0-.43-12.79,6.93-26.59,8.8-16.49,28.75-34.43,73.9-33.67,2.35,3.21,3.46,6.54,3.12,10Z"/>
        <path class="cls-25" d="M481.02,221.93c-.2,2.08-.92,4.2-2.21,6.38,0,0-54.65-15.28-74.55,44.9,0,0-5.31,6.71-7.19-1.03,0,0-.43-12.79,6.93-26.59-.26,4.47,2.15,7.03,7.18,1.58,8.85-9.61,20.37-21.65,42.65-25.7,14.99-2.72,23.33-.98,27.18.46Z"/>
      </g>
      <rect class="cls-3" x="-91.57" y="612.36" width="1555.38" height="489.89"/>
      <path class="cls-19" d="M1088.19,513.66c0,54.24-45.36,94.93-99.59,94.93-39.01,0-71.99-21.05-87.43-53.05-6.03-12.49-9.39-26.66-9.39-41.88,0-50.08,30.03-89.48,78.54-91.94,13.13-.66,11.47,4.23,18.23,4.54,4.55.21,5.78-2.12,10.13-3.71,1.3-.48,2.88-.89,4.9-1.14,46.08-5.85,84.61,41.41,84.61,92.25Z"/>
      <path class="cls-23" d="M1088.19,513.66c0,54.24-45.36,94.93-99.59,94.93-20.54,0-39.41-5.84-54.93-16.04-13.95-9.16-25.19-21.86-32.51-37.01,52.53,38.79,134.82,18.54,139.95-51.1,5.47-74.3-42.45-81.9-42.45-81.9,1.3-.48,2.88-.89,4.9-1.14,5.1-.65,10.1-.64,14.97-.06h0s0,0,0,0c39.15,4.71,69.63,47.09,69.63,92.31Z"/>
      <path class="cls-29" d="M969.99,427.07s-90.2,9.67-65.49,123.7c0,0-9.78-93.36,82.69-119.41,0,0-8.06-4.3-17.21-4.3Z"/>
      <path class="cls-37" d="M1088.19,513.66c0,54.24-45.36,94.93-99.59,94.93-20.54,0-39.41-5.84-54.93-16.04,60.24,21.95,128.03-7.66,132.98-77.58,5.69-80.52-47.24-93.38-48.09-93.62,39.15,4.71,69.63,47.09,69.63,92.31Z"/>
      <path class="cls-13" d="M1040.41,644c84.91-25.15,135.94-143.51,148.92-174.41,3.32-7.9,4.67-16.52,3.72-25.04-1.31-11.82-7.11-25.71-26.38-29.05-1.31-.23-2.62-.4-3.92-.5-2.04-.17-4.06-.19-6.08-.06-20.81,1.34-40.56,18.84-61.76,56.53-23.76,42.25-66.93,72.11-104.8,85.72,0,0-.01,0-.02,0-1.26.45-2.52.89-3.77,1.31-.55.18-1.09.37-1.62.58-.19.07-.38.14-.56.22-.08.03-.15.06-.23.09-.22.08-.44.18-.65.27-.03,0-.05.02-.07.03-.21.08-.41.17-.61.26-.09.04-.17.07-.26.11-.18.08-.37.17-.55.25-.55.26-1.08.52-1.61.8-.23.12-.46.24-.68.36-.24.13-.47.26-.71.4-.18.1-.37.21-.55.32-.2.12-.4.24-.59.36-.05.03-.1.06-.16.1-.16.1-.32.2-.48.3-1.02.66-1.99,1.35-2.93,2.09-.15.12-.31.24-.46.37-.04.03-.08.06-.12.1-.16.13-.32.26-.48.4-.08.06-.15.13-.23.19-.12.1-.24.21-.36.31-.1.09-.2.18-.3.27-.18.16-.36.32-.53.49-.59.54-1.16,1.1-1.71,1.68-.08.08-.15.15-.22.23-.17.18-.34.36-.5.54-.19.21-.38.42-.56.63-.01.01-.02.02-.03.03-.18.21-.36.42-.54.64-.18.22-.37.44-.54.67-.16.2-.32.4-.47.61-.04.05-.08.1-.12.16-.15.2-.3.4-.45.6-.17.23-.33.46-.5.7-.16.23-.31.45-.47.68-.02.02-.03.04-.04.07-.12.18-.24.36-.35.54-.12.19-.25.38-.36.58-.09.14-.17.27-.25.41,0,.01-.02.03-.03.04-.26.42-.51.85-.75,1.29-.39.69-.76,1.4-1.1,2.11-.07.14-.14.28-.2.42-.1.2-.19.39-.28.59-.11.24-.22.49-.33.74-.09.21-.18.42-.27.63-.01.02-.02.05-.03.07-.03.07-.06.13-.08.2-.2.49-.39.98-.58,1.48-.1.27-.2.54-.29.81-.08.24-.17.48-.25.73-.02.05-.03.1-.05.16-.08.25-.16.5-.24.75-.09.27-.17.55-.25.82-.15.52-.29,1.05-.42,1.57-.01.05-.02.09-.03.14-.07.26-.12.51-.18.77,0,.01,0,.03-.01.05-.06.27-.12.54-.18.81-.06.28-.12.57-.17.85-.05.25-.09.5-.14.75-.01.06-.02.11-.03.17-.03.2-.07.39-.1.59-.14.87-.25,1.74-.34,2.62-.01.12-.02.24-.03.36-.02.22-.04.44-.06.66-.02.24-.04.49-.06.73-.02.26-.03.53-.05.8,0,.02,0,.04,0,.07,0,.13-.01.26-.02.39-.02.49-.03.99-.04,1.48,0,.68,0,1.36.02,2.04.87,29.15,27.47,58.7,82.52,42.4Z"/>
      <path class="cls-13" d="M960.8,583.5c.18-.5.37-.99.58-1.48-.2.49-.39.98-.58,1.48Z"/>
      <path class="cls-13" d="M959.31,588.34c.13-.53.27-1.05.42-1.57-.15.52-.29,1.05-.42,1.57Z"/>
      <path class="cls-34" d="M1040.41,644c84.91-25.15,135.94-143.51,148.92-174.41,3.32-7.9,4.67-16.52,3.72-25.04-1.31-11.82-7.11-25.71-26.38-29.05-1.31-.23-2.62-.4-3.92-.5,0,0,0,0,0,0,0,0,11.5,7.25-1.36,48.79-12.86,41.54-89.94,137.68-139.85,145.72-32.39,5.21-52.3.89-63.64-7.9.87,29.15,27.47,58.7,82.52,42.4Z"/>
      <path class="cls-10" d="M961.46,581.82c51.07-5.3,109.98-39.75,138.47-94,27.67-52.7,57.17-72.59,57.17-72.59-.14-.1-.27-.2-.41-.29-20.81,1.34-40.56,18.84-61.76,56.53-23.76,42.25-66.93,72.11-104.8,85.72,0,0-.01,0-.02,0-1.26.45-2.52.89-3.77,1.31-.55.18-1.09.37-1.62.58-.19.07-.38.14-.56.22-.08.03-.15.06-.23.09-.22.08-.44.18-.65.27-.03,0-.05.02-.07.03-.21.08-.41.17-.61.26-.09.04-.17.07-.26.11-.18.08-.37.17-.55.25-.55.26-1.08.52-1.61.8-.23.12-.46.24-.68.36-.24.13-.47.26-.71.4-.18.1-.37.21-.55.32-.2.12-.4.24-.59.36-.05.03-.1.06-.16.1-.16.1-.32.2-.48.3-1.02.66-1.99,1.35-2.93,2.09-.15.12-.31.24-.46.37-.04.03-.08.06-.12.1-.16.13-.32.26-.48.4-.08.06-.15.13-.23.19-.12.1-.24.21-.36.31-.1.09-.2.18-.3.27-.18.16-.36.32-.53.49-.59.54-1.16,1.1-1.71,1.68-.08.08-.15.15-.22.23-.17.18-.34.36-.5.54-.19.21-.38.42-.56.63-.01.01-.02.02-.03.03-.18.21-.36.42-.54.64-.18.22-.37.44-.54.67-.16.2-.32.4-.47.61-.04.05-.08.1-.12.16-.15.2-.3.4-.45.6-.17.23-.33.46-.5.7-.16.23-.31.45-.47.68-.02.02-.03.04-.04.07-.12.18-.24.36-.35.54-.12.19-.25.38-.36.58-.09.14-.17.27-.25.41,0,.01-.02.03-.03.04-.26.42-.51.85-.75,1.29-.39.69-.76,1.4-1.1,2.11-.07.14-.14.28-.2.42-.1.2-.19.39-.28.59-.11.24-.22.49-.33.74-.09.21-.18.42-.27.63-.01.02-.02.05-.03.07Z"/>
      <path class="cls-19" d="M523.99,481.32s0,0,0,0t0,0h0Z"/>
      <g>
        <path class="cls-29" d="M820.43,474.74c-79.53,46.08-160.14-41.4-123.12-43.26,2.26-.11,4.44-.38,6.57-.79,6.9-1.33,13.14-4.18,19.02-8.22,2.15-1.48,4.25-3.11,6.32-4.9,0,0,.01,0,.02-.01t0,0h0c19.11-16.46,35.22-45.11,59.19-73.18,26.5-31.02,54.49-21.48,67.3-14.39,4.52,2.5,7.15,4.7,7.15,4.7,5.21,3.54,9.7,7.68,13.4,12.3,0,0,0,0,0,0,25.79,32.13,13.67,87.47-55.86,127.75Z"/>
        <path class="cls-8" d="M848.39,332.93s-29.78-15.43-59.54,19.81c-29.76,35.24-33.48,52.01-57.48,70.67,0,0,23.49-3.81,51.63-44.87,31.04-45.3,47.11-45.38,65.38-45.61Z"/>
        <path class="cls-17" d="M820.42,474.74c-79.53,46.07-160.14-41.4-123.12-43.26,9.58-.48,17.9-3.73,25.59-9.01-8.23,7.34-12.63,16.96,7.34,28.33,28.27,16.09,77.97,10.41,116.21-41.38,20.01-27.11,21.62-47.6,18.6-60.97-1.12.91-3.05,1.21-6.21.42-13.12-3.29-18.5-15.69-18.5-15.69,4.44-4.81,12.95-2,18.45.63-1.73-2.53-3.07-3.81-3.07-3.81h0c4.52,2.5,7.15,4.7,7.15,4.7,41.49,28.22,37.08,93.98-42.45,140.06Z"/>
        <path class="cls-32" d="M858.29,334.49c-.48,1.08-1.15,2.14-2,3.19,0,0-1.02.09-2.79.09-11-.04-51.1-3.92-57.47-57.89,0,0,72.65,31.38,62.26,54.62Z"/>
        <path class="cls-6" d="M858.29,334.49c-.48,1.08-1.15,2.14-2,3.19,0,0-1.02.09-2.79.09-4.08-6.02-15.33-20.29-39.19-36.05,0,0,27.63,11.31,43.98,32.78Z"/>
        <path class="cls-2" d="M926.34,298.13c-.26,1.71-.95,3.44-2.12,5.19,0,0-44.62-15.15-63.86,33.84,0,0-4.71,5.32-5.91-1.18,0,0,.22-10.63,6.96-21.73,8.05-13.28,25.4-27.24,62.81-24.56,1.8,2.77,2.57,5.58,2.13,8.44Z"/>
        <path class="cls-25" d="M926.34,298.13c-.26,1.71-.95,3.44-2.12,5.19,0,0-44.62-15.15-63.86,33.84,0,0-4.71,5.32-5.91-1.18,0,0,.22-10.63,6.96-21.73-.42,3.7,1.47,5.93,5.88,1.63,7.78-7.57,17.88-17.03,36.54-19.37,12.56-1.58,19.39.25,22.52,1.61Z"/>
      </g>
      <g>
        <path class="cls-29" d="M654.29,490.68c-79.53,46.08-160.14-41.4-123.12-43.26,2.26-.11,4.44-.38,6.57-.79,6.9-1.33,13.14-4.18,19.02-8.22,2.15-1.48,4.25-3.11,6.32-4.9,0,0,.01,0,.02-.01t0,0h0c19.11-16.46,35.22-45.11,59.19-73.18,26.5-31.02,54.49-21.48,67.3-14.39,4.52,2.5,7.15,4.7,7.15,4.7,5.21,3.54,9.7,7.68,13.4,12.3,0,0,0,0,0,0,25.79,32.13,13.67,87.47-55.86,127.75Z"/>
        <path class="cls-8" d="M682.26,348.87s-29.78-15.43-59.54,19.81c-29.76,35.24-33.48,52.01-57.48,70.67,0,0,23.49-3.81,51.63-44.87,31.04-45.3,47.11-45.38,65.38-45.61Z"/>
        <path class="cls-17" d="M654.29,490.68c-79.53,46.07-160.14-41.4-123.12-43.26,9.58-.48,17.9-3.73,25.59-9.01-8.23,7.34-12.63,16.96,7.34,28.33,28.27,16.09,77.97,10.41,116.21-41.38,20.01-27.11,21.62-47.6,18.6-60.97-1.12.91-3.05,1.21-6.21.42-13.12-3.29-18.5-15.69-18.5-15.69,4.44-4.81,12.95-2,18.45.63-1.73-2.53-3.07-3.81-3.07-3.81h0c4.52,2.5,7.15,4.7,7.15,4.7,41.49,28.22,37.08,93.98-42.45,140.06Z"/>
        <path class="cls-32" d="M692.15,350.43c-.48,1.08-1.15,2.14-2,3.19,0,0-1.02.09-2.79.09-11-.04-51.1-3.92-57.47-57.89,0,0,72.65,31.38,62.26,54.62Z"/>
        <path class="cls-6" d="M692.15,350.43c-.48,1.08-1.15,2.14-2,3.19,0,0-1.02.09-2.79.09-4.08-6.02-15.33-20.29-39.19-36.05,0,0,27.63,11.31,43.98,32.78Z"/>
        <path class="cls-2" d="M760.21,314.07c-.26,1.71-.95,3.44-2.12,5.19,0,0-44.62-15.15-63.86,33.84,0,0-4.71,5.32-5.91-1.18,0,0,.22-10.63,6.96-21.73,8.05-13.28,25.4-27.24,62.81-24.56,1.8,2.77,2.57,5.58,2.13,8.44Z"/>
        <path class="cls-25" d="M760.21,314.07c-.26,1.71-.95,3.44-2.12,5.19,0,0-44.62-15.15-63.86,33.84,0,0-4.71,5.32-5.91-1.18,0,0,.22-10.63,6.96-21.73-.42,3.7,1.47,5.93,5.88,1.63,7.78-7.57,17.88-17.03,36.54-19.37,12.56-1.58,19.39.25,22.52,1.61Z"/>
      </g>
      <g>
        <path class="cls-28" d="M396.38,551.84c-38.96,28.92-74.28,9.54-74.28,9.54,0,0-31.33,10.86-62.02-18.48-1.8-1.71-3.59-3.56-5.37-5.56-18.06-20.26-25.03-56.3-19.23-85.86,4.56-23.28,17.03-42.56,38.21-46.95,32.46-6.72,49.98,2.98,57.93,10,3.83,3.38,5.44,6.14,5.44,6.14,0,0,4.67-4.59,14-7.77,2.66-.91,5.69-1.69,9.11-2.23h0c7.08-1.12,15.79-1.14,26.12,1.18,5.65,1.26,11.79,3.23,18.42,6.1,45.07,19.5,30.63,104.98-8.33,133.9Z"/>
        <path class="cls-7" d="M340.03,430.64c-13.04-.16-12.74-12.01-12.74-12.01,1.54-1.87,1.79-2.89,4.32-4.11,3.83,3.38,5.44,6.14,5.44,6.14,0,0,4.67-4.59,14-7.77,1.25,6.11,2.37,17.92-11.02,17.75Z"/>
        <path class="cls-27" d="M320.59,411.83s-35.46-10.93-60.69,6.96c-19.78,14.02-24.19,62.81-3.66,81.63,0,0-7.78-44.93,11.74-66.17,21.67-23.59,52.6-22.41,52.6-22.41Z"/>
        <path class="cls-32" d="M338.22,419.33s-17.73.54-25.04-2.03c-3.68-1.29-3.13-3.82-1.68-6,1.43-2.15,3.74-3.98,3.74-3.98,0,0-15.3,1.57-20.05-3.16-.17-.17-.33-.34-.46-.51-3.58-4.51,5.54-8.3,5.54-8.3,0,0-10.85-.08-15.43-3.38-1.05-.76-1.78-1.69-1.95-2.84-.45-2.9,1.87-4.63,4.43-5.65,2.83-1.13,5.96-1.39,5.96-1.39,0,0-1.64-2.19-3.07-5.09-.61-1.24-1.19-2.61-1.58-3.99-1.06-3.71-.84-7.55,3.41-9.32,7.93-3.31,16.48,4.79,19.16,7.63.51.54.81.89.85.94-.03-.1-.49-1.84-.54-3.76h0c-.03-1.15.09-2.35.53-3.33.58-1.27,1.71-2.14,3.8-1.92.21.02.42.07.63.14,1.27.4,2.67,1.58,4.09,3.22h0c2.25,2.58,4.56,6.31,6.55,9.92,3.18,5.75,5.55,11.21,5.55,11.21,0,0-.03-2.92,1.63-4.1.88-.62,2.24-.76,4.33.3,1.37.69,2.09,2.88,2.41,5.86,1.05,10.18-2.81,29.55-2.81,29.55Z"/>
        <path class="cls-4" d="M324.32,400.05s-17.58-8.92-39.46-8.1c-1.05-.76-1.78-1.69-1.95-2.84-.45-2.9,1.87-4.63,4.43-5.65,8.43.32,20.08,1.98,31.61,7.6l5.38,8.98Z"/>
        <path class="cls-4" d="M327.28,399.7l-7.04-7.75c-1.5-9.34-.93-18.11.33-25.35,2.25,2.58,4.56,6.31,6.55,9.92-1.6,13.24.16,23.18.16,23.18Z"/>
        <path class="cls-4" d="M313.4,384.9s-12.55-5.24-23.19-7.91c-.61-1.24-1.19-2.61-1.58-3.99,5.63.8,14.85,2.74,22.62,7.4.66.39,1.31.81,1.94,1.25l.1,1.51.12,1.75Z"/>
        <path class="cls-4" d="M314.31,383.73l-1.03-.58-1.82-1.02c-.09-.58-.16-1.15-.22-1.73-.33-3.05-.3-6.13-.04-9.09.51.54.81.89.85.94-.03-.1-.49-1.84-.54-3.76h0c.15-1.15.33-2.26.53-3.33.58-1.27,1.71-2.14,3.8-1.92.21.02.42.07.63.14-1.63,9.84-2.17,20.35-2.17,20.35Z"/>
        <path class="cls-4" d="M332.31,413.14c-6.28-2.1-14.14-2.27-20.8-1.84,1.43-2.15,3.74-3.98,3.74-3.98,0,0-15.3,1.57-20.05-3.16-.17-.17-.33-.34-.46-.51,13.91-2.84,34.41,3.99,34.41,3.99l3.15,5.51Z"/>
        <path class="cls-4" d="M335.42,411.68l-4.21-4.76s.07-12.08,3.09-23.3c.88-.62,2.24-.76,4.33.3,1.37.69,2.09,2.88,2.41,5.86-2.79,6.44-5.59,14.69-5.62,21.9Z"/>
        <path class="cls-6" d="M339.59,417.58c-1.54-4.27-15.53-29.23-34.32-42.89,0,0,21.89,26.01,29.88,44.23.5,1.15,1.6,1.95,2.84,1.75.59-.1,1.16-.4,1.52-1.09.32-.62.32-1.35.08-2Z"/>
        <path class="cls-2" d="M419.27,369.69c-.2,2.08-.92,4.2-2.21,6.38,0,0-54.65-15.28-74.55,44.9,0,0-5.31,6.71-7.19-1.03,0,0-.43-12.79,6.93-26.59,8.8-16.49,28.75-34.43,73.9-33.67,2.35,3.21,3.46,6.54,3.12,10Z"/>
        <path class="cls-25" d="M419.27,369.69c-.2,2.08-.92,4.2-2.21,6.38,0,0-54.65-15.28-74.55,44.9,0,0-5.31,6.71-7.19-1.03,0,0-.43-12.79,6.93-26.59-.26,4.47,2.15,7.03,7.18,1.58,8.85-9.61,20.37-21.65,42.65-25.7,14.99-2.72,23.33-.98,27.18.46Z"/>
      </g>
      <g>
        <path class="cls-28" d="M595.04,540.1c-38.96,28.92-74.28,9.54-74.28,9.54,0,0-31.33,10.86-62.02-18.48-1.8-1.71-3.59-3.56-5.37-5.56-18.06-20.26-25.03-56.3-19.23-85.86,4.56-23.28,17.03-42.56,38.21-46.95,32.46-6.72,49.98,2.98,57.93,10,3.83,3.38,5.44,6.14,5.44,6.14,0,0,4.67-4.59,14-7.77,2.66-.91,5.69-1.69,9.11-2.23h0c7.08-1.12,15.79-1.14,26.12,1.18,5.65,1.26,11.79,3.23,18.42,6.1,45.07,19.5,30.63,104.98-8.33,133.9Z"/>
        <path class="cls-7" d="M538.7,418.9c-13.04-.16-12.74-12.01-12.74-12.01,1.54-1.87,1.79-2.89,4.32-4.11,3.83,3.38,5.44,6.14,5.44,6.14,0,0,4.67-4.59,14-7.77,1.25,6.11,2.37,17.92-11.02,17.75Z"/>
        <path class="cls-27" d="M519.25,400.09s-35.46-10.93-60.69,6.96c-19.78,14.02-24.19,62.81-3.66,81.63,0,0-7.78-44.93,11.74-66.17,21.67-23.59,52.6-22.41,52.6-22.41Z"/>
        <path class="cls-32" d="M536.89,407.59s-17.73.54-25.04-2.03c-3.68-1.29-3.13-3.82-1.68-6,1.43-2.15,3.74-3.98,3.74-3.98,0,0-15.3,1.57-20.05-3.16-.17-.17-.33-.34-.46-.51-3.58-4.51,5.54-8.3,5.54-8.3,0,0-10.85-.08-15.43-3.38-1.05-.76-1.78-1.69-1.95-2.84-.45-2.9,1.87-4.63,4.43-5.65,2.83-1.13,5.96-1.39,5.96-1.39,0,0-1.64-2.19-3.07-5.09-.61-1.24-1.19-2.61-1.58-3.99-1.06-3.71-.84-7.55,3.41-9.32,7.93-3.31,16.48,4.79,19.16,7.63.51.54.81.89.85.94-.03-.1-.49-1.84-.54-3.76h0c-.03-1.15.09-2.35.53-3.33.58-1.27,1.71-2.14,3.8-1.92.21.02.42.07.63.14,1.27.4,2.67,1.58,4.09,3.22h0c2.25,2.58,4.56,6.31,6.55,9.92,3.18,5.75,5.55,11.21,5.55,11.21,0,0-.03-2.92,1.63-4.1.88-.62,2.24-.76,4.33.3,1.37.69,2.09,2.88,2.41,5.86,1.05,10.18-2.81,29.55-2.81,29.55Z"/>
        <path class="cls-4" d="M522.99,388.31s-17.58-8.92-39.46-8.1c-1.05-.76-1.78-1.69-1.95-2.84-.45-2.9,1.87-4.63,4.43-5.65,8.43.32,20.08,1.98,31.61,7.6l5.38,8.98Z"/>
        <path class="cls-4" d="M525.95,387.96l-7.04-7.75c-1.5-9.34-.93-18.11.33-25.35,2.25,2.58,4.56,6.31,6.55,9.92-1.6,13.24.16,23.18.16,23.18Z"/>
        <path class="cls-4" d="M512.07,373.16s-12.55-5.24-23.19-7.91c-.61-1.24-1.19-2.61-1.58-3.99,5.63.8,14.85,2.74,22.62,7.4.66.39,1.31.81,1.94,1.25l.1,1.51.12,1.75Z"/>
        <path class="cls-4" d="M512.98,371.99l-1.03-.58-1.82-1.02c-.09-.58-.16-1.15-.22-1.73-.33-3.05-.3-6.13-.04-9.09.51.54.81.89.85.94-.03-.1-.49-1.84-.54-3.76h0c.15-1.15.33-2.26.53-3.33.58-1.27,1.71-2.14,3.8-1.92.21.02.42.07.63.14-1.63,9.84-2.17,20.35-2.17,20.35Z"/>
        <path class="cls-4" d="M530.98,401.4c-6.28-2.1-14.14-2.27-20.8-1.84,1.43-2.15,3.74-3.98,3.74-3.98,0,0-15.3,1.57-20.05-3.16-.17-.17-.33-.34-.46-.51,13.91-2.84,34.41,3.99,34.41,3.99l3.15,5.51Z"/>
        <path class="cls-4" d="M534.08,399.94l-4.21-4.76s.07-12.08,3.09-23.3c.88-.62,2.24-.76,4.33.3,1.37.69,2.09,2.88,2.41,5.86-2.79,6.44-5.59,14.69-5.62,21.9Z"/>
        <path class="cls-6" d="M538.26,405.84c-1.54-4.27-15.53-29.23-34.32-42.89,0,0,21.89,26.01,29.88,44.23.5,1.15,1.6,1.95,2.84,1.75.59-.1,1.16-.4,1.52-1.09.32-.62.32-1.35.08-2Z"/>
        <path class="cls-2" d="M617.93,357.95c-.2,2.08-.92,4.2-2.21,6.38,0,0-54.65-15.28-74.55,44.9,0,0-5.31,6.71-7.19-1.03,0,0-.43-12.79,6.93-26.59,8.8-16.49,28.75-34.43,73.9-33.67,2.35,3.21,3.46,6.54,3.12,10Z"/>
        <path class="cls-25" d="M617.93,357.95c-.2,2.08-.92,4.2-2.21,6.38,0,0-54.65-15.28-74.55,44.9,0,0-5.31,6.71-7.19-1.03,0,0-.43-12.79,6.93-26.59-.26,4.47,2.15,7.03,7.18,1.58,8.85-9.61,20.37-21.65,42.65-25.7,14.99-2.72,23.33-.98,27.18.46Z"/>
      </g>
      <path class="cls-32" d="M928.34,422.3s-12.76,219.05-237.51,247.13c-63.5,7.93-114.34-3.08-154.61-22.95-102.28-50.48-136.39-158.16-136.39-158.16l528.51-66.02Z"/>
      <path class="cls-6" d="M423.56,485.35l481.04-60.09s-11.62,199.38-216.17,224.93c-204.56,25.55-264.86-164.84-264.86-164.84Z"/>
      <path class="cls-31" d="M880.25,428.31s-10.44,179.19-194.29,202.16c-183.85,22.96-238.05-148.16-238.05-148.16l432.34-54Z"/>
      <path class="cls-30" d="M875.09,428.95c-3.37,29.12-28.15,173-190.16,193.23-162.02,20.24-221.42-113.12-231.85-140.52l422.01-52.71Z"/>
      <path class="cls-38" d="M542.73,528.19s-3.44,16.13-12.09,20.13c-.05.02-.1.05-.16.07-6.19,2.75-12.44-4.18-9.08-10.05.03-.05.06-.1.09-.15,4.85-8.21,21.24-10,21.24-10Z"/>
      <path class="cls-38" d="M582.26,559.78s2.88,16.24-3.64,23.19c-.04.04-.08.08-.12.12-4.7,4.87-13.1.81-12.2-5.9,0-.06.02-.11.02-.17,1.41-9.43,15.93-17.25,15.93-17.25Z"/>
      <path class="cls-38" d="M631.34,576.24s6.36,15.21,1.52,23.43c-.03.05-.06.1-.09.15-3.52,5.78-12.61,3.65-13.19-3.09,0-.06,0-.11-.01-.17-.68-9.51,11.77-20.31,11.77-20.31Z"/>
      <path class="cls-38" d="M684.23,577.05s12.33,10.95,11.53,20.45c0,.06,0,.11-.02.17-.66,6.74-9.77,8.76-13.23,2.94-.03-.05-.06-.1-.09-.15-4.74-8.27,1.79-23.41,1.79-23.41Z"/>
      <path class="cls-38" d="M519.16,496.4s-10.04,13.08-19.57,12.97c-.06,0-.11,0-.17,0-6.77-.18-9.44-9.12-3.88-12.98.05-.03.09-.06.14-.1,7.91-5.32,23.48.11,23.48.11Z"/>
      <path class="cls-38" d="M807.25,495.15s7.3,14.79,16.67,16.53c.06.01.11.02.17.03,6.67,1.14,11.03-7.11,6.33-11.98-.04-.04-.08-.08-.12-.12-6.72-6.76-23.05-4.46-23.05-4.46Z"/>
      <path class="cls-38" d="M776.71,535.49s1.21,16.45,9.23,21.59c.05.03.1.06.15.09,5.75,3.56,12.89-2.44,10.37-8.72-.02-.05-.04-.11-.07-.16-3.69-8.79-19.68-12.8-19.68-12.8Z"/>
      <path class="cls-38" d="M733.19,563.52s-2.42,16.31,4.29,23.08c.04.04.08.08.12.12,4.83,4.74,13.12.44,12.02-6.24,0-.06-.02-.11-.03-.17-1.68-9.38-16.41-16.79-16.41-16.79Z"/>
      <path class="cls-38" d="M822.28,458.53s12.95,10.21,22.16,7.76c.06-.01.11-.03.17-.05,6.51-1.84,6.9-11.16.57-13.54-.05-.02-.11-.04-.16-.06-8.98-3.21-22.73,5.88-22.73,5.88Z"/>
      <path class="cls-38" d="M574.83,485.12s-2.48,11.63-8.72,14.51c-.04.02-.08.03-.11.05-4.46,1.98-8.97-3.01-6.55-7.25.02-.04.04-.07.06-.11,3.5-5.92,15.32-7.21,15.32-7.21Z"/>
      <path class="cls-38" d="M603.33,507.89s2.07,11.71-2.62,16.72c-.03.03-.06.06-.09.09-3.39,3.51-9.44.58-8.79-4.25,0-.04.01-.08.02-.12,1.02-6.8,11.48-12.43,11.48-12.43Z"/>
      <path class="cls-38" d="M638.71,519.76s4.58,10.97,1.09,16.89c-.02.04-.04.07-.06.11-2.54,4.17-9.09,2.63-9.51-2.23,0-.04,0-.08,0-.12-.49-6.86,8.49-14.64,8.49-14.64Z"/>
      <path class="cls-38" d="M676.84,520.35s8.89,7.89,8.32,14.74c0,.04,0,.08-.01.12-.48,4.86-7.05,6.32-9.54,2.12-.02-.04-.04-.07-.06-.11-3.42-5.96,1.29-16.88,1.29-16.88Z"/>
      <path class="cls-38" d="M765.54,461.3s5.26,10.66,12.02,11.92c.04,0,.08.01.12.02,4.81.82,7.95-5.12,4.57-8.64-.03-.03-.06-.06-.09-.09-4.85-4.87-16.62-3.22-16.62-3.22Z"/>
      <path class="cls-38" d="M743.52,490.38s.87,11.86,6.66,15.56c.03.02.07.04.1.07,4.15,2.57,9.3-1.76,7.48-6.29-.02-.04-.03-.08-.05-.11-2.66-6.34-14.19-9.23-14.19-9.23Z"/>
      <path class="cls-38" d="M712.15,510.59s-1.74,11.76,3.09,16.64c.03.03.06.06.09.09,3.49,3.41,9.46.32,8.67-4.5,0-.04-.01-.08-.02-.12-1.21-6.77-11.83-12.11-11.83-12.11Z"/>
      <path class="cls-4" d="M998.14,638.38c-7.78,22.6-19.93,38.36-36.2,46.93-23.19,12.21-48.46,6.31-61.46,1.71-4.19-1.48-7.23-2.86-8.72-3.59-1.62-.38-4.84-1.21-9.03-2.7-10.45-3.7-27.59-11.74-39.28-27.27-2.85-3.78-5.38-8.01-7.41-12.73-.28-.65-.55-1.3-.8-1.96-7.3-18.77-5.32-41.13,5.9-66.48.05-.12.11-.24.16-.36,22.88-51.35,61.75-81.19,90.33-97.18,10.7-5.99,23.49-7.08,35.07-2.97,1.36.48,2.68,1.03,3.97,1.64,9.72,4.58,17.4,12.69,21.42,22.74,12.15,30.42,23.58,78.07,9.05,132.37-.92,3.42-1.92,6.71-3,9.86Z"/>
      <path class="cls-32" d="M998.14,638.38c-7.69,16.88-18.38,28.99-31.92,36.12-23.19,12.21-48.46,6.31-61.45,1.71-4.19-1.48-7.22-2.86-8.72-3.59-1.62-.38-4.84-1.21-9.03-2.7-10.84-3.84-28.86-12.33-40.55-29.01-2.33-3.33-4.42-6.98-6.14-10.99-7.08-16.49-6.8-35.84.81-57.64,1.28-3.65,2.76-7.38,4.45-11.17,22.88-51.35,61.75-81.19,90.33-97.18,9.17-5.13,19.85-6.66,30.01-4.42,1.7.38,3.4.86,5.06,1.45,11.58,4.1,20.84,12.99,25.39,24.38,12.15,30.42,23.58,78.07,9.05,132.37-2.01,7.53-4.45,14.42-7.29,20.66Z"/>
      <path class="cls-21" d="M898.72,665.09s-83.34-16.65-45.88-100.73c22.07-49.53,59.73-78.25,86.95-93.48,18.28-10.23,41.44-2.02,49.21,17.42,11.57,28.97,22.77,74.98,8.75,127.37-23.79,88.92-99.04,49.42-99.04,49.42Z"/>
      <path class="cls-11" d="M951.66,472.67s-45.3,18.76-73.03,57.52c-31.83,44.5-35.34,84.58-17.78,102.66,0,0-6.33-83.2,90.81-160.18Z"/>
      <path class="cls-9" d="M969.38,584.32c-9.1,25.69-33.13,40.62-53.68,33.34-20.55-7.28-29.84-34-20.74-59.69,9.1-25.69,33.13-40.62,53.68-33.34,20.55,7.28,29.84,34,20.74,59.69Z"/>
      <path class="cls-25" d="M918.35,610.18c-18.9-6.69-27.44-31.27-19.07-54.89,7.35-20.73,25.27-33.84,42.32-32.2,2.37.22,4.73.74,7.04,1.55,18.9,6.69,27.44,31.27,19.08,54.89-8.37,23.62-30.47,37.35-49.36,30.66Z"/>
      <path class="cls-22" d="M918.35,610.18c-18.9-6.69-27.44-31.27-19.07-54.89,7.35-20.73,25.27-33.84,42.32-32.2-.51.34-29.58,9.83-30.15,41.99-.53,30.12,43.6,38.03,56.26,14.45-8.37,23.62-30.47,37.35-49.36,30.66Z"/>
      <path class="cls-36" d="M963.25,561.09c-4.24,2.67-11.6-1.41-16.44-9.1-4.83-7.69-5.31-16.09-1.07-18.76,4.24-2.67,11.6,1.41,16.44,9.1,4.84,7.69,5.31,16.09,1.07,18.75Z"/>
      <path class="cls-29" d="M477.36,511.73c-2.15,6.93-7.29,14.44-14.78,22.03-41.24,41.84-153.55,86.05-228.01,47.25-87.97-45.84-102.04-154.58-102.04-154.58l10.17-3.97,10.12-3.95,6.6-2.58s41.93,40.54,105.11,71.59c73.34,36.04,181.39,4.57,196.85-.25.72-.22,1.24-.39,1.55-.49.21-.07.32-.1.32-.1l14.11,25.06Z"/>
      <path class="cls-25" d="M159.42,415.92l-26.89,10.51-9.1-10.46-7.65-8.79s9.51-10.24,21.08-14.06c3.73-1.24,7.68-1.8,11.59-1.14l10.96,23.95Z"/>
      <path class="cls-22" d="M159.42,415.92l-26.89,10.51-9.1-10.46s15.04,2.52,19.87-4.96c4.65-7.21-5.53-17.06-6.43-17.89,3.73-1.24,7.68-1.8,11.59-1.14l10.96,23.95Z"/>
      <path class="cls-26" d="M477.36,511.73c-14.02,45.1-154.82,115.12-242.79,69.28-87.97-45.84-102.04-154.58-102.04-154.58l10.17-3.97c.25.33.49.69.74,1.07,0,0,25.79,144.1,166.5,137.43,79.87-3.79,131.23-34.76,151.45-73.69,1.22-.38,1.87-.59,1.87-.59l14.11,25.06Z"/>
      <path class="cls-25" d="M462.93,486.77s-5.48,7.34-1.06,16.13c6.65,13.24,15.49,8.83,15.49,8.83,0,0,3.95-16.41-14.43-24.96Z"/>
      <path class="cls-12" d="M462.93,486.77c-25.03,21.36-61.83,40.85-115,46.67-133.46,14.61-195.11-114.94-195.11-114.94l6.6-2.58s41.93,40.54,105.11,71.59c73.34,36.04,181.39,4.57,196.85-.25.72-.22,1.24-.39,1.55-.49Z"/>
      <path class="cls-18" d="M462.58,533.76h0c-41.24,41.85-153.55,86.05-228.01,47.25-87.97-45.84-102.04-154.58-102.04-154.58l10.17-3.97,10.12-3.95,6.6-2.58s25.74,115.54,114.58,149.75c88.83,34.22,188.58-31.91,188.58-31.91Z"/>
      <path class="cls-29" d="M398.23,638.65c-4.77,5.46-12.51,10.25-22.43,14.17-54.65,21.57-175.24,16.53-227.62-49.09-61.89-77.53-30.74-182.66-30.74-182.66l10.91.48,10.86.48,7.08.31s21.93,54.04,67.14,108c52.48,62.64,164.02,77.6,180.11,79.46.75.09,1.3.15,1.61.18.22.02.34.03.34.03l2.76,28.63Z"/>
      <path class="cls-25" d="M146.28,422.35l-28.84-1.28-4.08-13.25-3.44-11.13s12.84-5.52,24.97-4.33c3.91.38,7.75,1.46,11.06,3.65l.33,26.34Z"/>
      <path class="cls-22" d="M146.28,422.35l-28.84-1.28-4.08-13.25s12.73,8.39,20.17,3.51c7.17-4.71,1.85-17.84,1.36-18.97,3.91.38,7.75,1.46,11.06,3.65l.33,26.34Z"/>
      <path class="cls-26" d="M398.23,638.65c-31.08,35.57-188.17,42.6-250.05-34.92-61.89-77.53-30.74-182.66-30.74-182.66l10.91.48c.09.41.17.83.25,1.28,0,0-34.74,142.21,96.62,193.06,74.57,28.86,134.07,21.33,168.31-6.08,1.27.15,1.95.21,1.95.21l2.76,28.63Z"/>
      <path class="cls-25" d="M395.14,609.99s-7.98,4.49-7.5,14.32c.72,14.8,10.59,14.35,10.59,14.35,0,0,10.25-13.41-3.09-28.66Z"/>
      <path class="cls-12" d="M395.14,609.99c-31.54,9.4-73.08,12.33-124.05-3.87-127.95-40.66-131.89-184.08-131.89-184.08l7.08.31s21.93,54.04,67.14,108c52.48,62.64,164.02,77.6,180.11,79.46.75.09,1.3.15,1.61.18Z"/>
      <path class="cls-18" d="M375.8,652.81h0c-54.65,21.57-175.24,16.54-227.62-49.08-61.89-77.53-30.74-182.66-30.74-182.66l10.91.48,10.86.48,7.08.31s-23.22,116.07,44.16,183.32c67.38,67.25,185.36,47.15,185.36,47.15Z"/>
      <path class="cls-29" d="M237.35,739.34c-6.86,2.35-15.96,2.63-26.51,1.07-58.12-8.6-160.08-73.18-172.7-156.19-14.91-98.07,64.58-173.6,64.58-173.6l9.21,5.87,9.17,5.84,5.98,3.81s-7.98,57.77,4.24,127.1c14.19,80.47,103.36,149.13,116.37,158.78.61.45,1.05.77,1.31.96.18.13.27.2.27.2l-11.91,26.18Z"/>
      <path class="cls-25" d="M127.07,426.12l-24.35-15.51,3.08-13.52,2.58-11.36s13.88,1.63,23.79,8.72c3.2,2.29,5.98,5.14,7.76,8.68l-12.86,22.98Z"/>
      <path class="cls-22" d="M127.07,426.12l-24.35-15.51,3.08-13.52s6.84,13.63,15.73,13.11c8.56-.5,10.51-14.53,10.65-15.75,3.2,2.29,5.98,5.14,7.76,8.68l-12.86,22.98Z"/>
      <path class="cls-26" d="M237.35,739.34c-44.69,15.3-184.3-57.05-199.21-155.12-14.91-98.07,64.58-173.6,64.58-173.6l9.21,5.87c-.12.4-.26.8-.42,1.23,0,0-101.11,105.86-12.69,215.51,50.19,62.24,105.5,85.43,148.86,78.78,1.03.76,1.58,1.16,1.58,1.16l-11.91,26.18Z"/>
      <path class="cls-25" d="M248.99,712.96s-9.15-.09-13.65,8.66c-6.77,13.18,2.01,17.72,2.01,17.72,0,0,15.58-6.49,11.63-26.38Z"/>
      <path class="cls-12" d="M248.99,712.96c-32.02-7.61-69.47-25.81-105.54-65.3-90.55-99.12-22.35-225.35-22.35-225.35l5.98,3.81s-7.98,57.77,4.24,127.1c14.19,80.47,103.36,149.13,116.37,158.78.61.45,1.05.77,1.31.96Z"/>
      <path class="cls-18" d="M210.85,740.41h0c-58.12-8.6-160.08-73.18-172.7-156.19-14.91-98.07,64.58-173.6,64.58-173.6l9.21,5.87,9.17,5.84,5.98,3.81s-78.08,88.97-53.28,180.88c24.8,91.91,137.05,133.41,137.05,133.41Z"/>
      <path class="cls-19" d="M742.1,689.07c-20.82-5.33-36.65-13.48-48.66-23.14h0c-49.53-39.88-33.95-105.55-33.95-105.55l147.02,46.16,53.39,16.77s-27.67,88.84-117.8,65.76Z"/>
      <path class="cls-29" d="M659.49,560.38l200.41,62.94s-35.46,78.67-117.02,56.54c-93.18-25.28-83.39-119.48-83.39-119.48Z"/>
      <path class="cls-35" d="M679.81,566.77l160.16,50.3s-26.79,64.5-93.52,45.19c-78.34-22.67-66.64-95.48-66.64-95.48Z"/>
      <path class="cls-38" d="M754.55,603.22s9.67-.66,14.25,3.08c.03.02.06.05.08.07,3.21,2.69,1.22,6.85-2.89,6.04-.03,0-.07-.01-.1-.02-5.79-1.22-11.33-9.17-11.33-9.17Z"/>
      <path class="cls-19" d="M860.43,784.73c-20.21,7.3-37.89,9.46-53.25,8.22h0c-63.38-5.12-87.42-68.19-87.42-68.19l147.53-44.5,53.58-16.16s27.07,89.02-60.43,120.62Z"/>
      <path class="cls-29" d="M719.75,724.77l201.11-60.65s14.91,84.99-64.98,112.55c-91.27,31.49-136.14-51.91-136.14-51.91Z"/>
      <path class="cls-35" d="M740.14,718.62l160.73-48.47s14.12,68.4-51.93,89.95c-77.53,25.3-108.8-41.48-108.8-41.48Z"/>
      <path class="cls-38" d="M822.45,706.73s7.62-5.99,13.52-5.46c.04,0,.07,0,.11.01,4.17.42,4.86,4.98,1,6.62-.03.01-.07.03-.1.04-5.47,2.25-14.53-1.21-14.53-1.21Z"/>
      <path class="cls-2" d="M1311.36,538.72c-1.24,1.83-2.99,3.44-5.29,4.82,0,0-43.11-41.92-92.14,4,0,0-8.35,3.55-6.17-4.6,0,0,6.08-12.13,19.93-21.23,16.55-10.89,44.2-17.47,85.84,6.12.55,4.18-.1,7.84-2.17,10.89Z"/>
      <path class="cls-25" d="M1311.36,538.72c-1.24,1.83-2.99,3.44-5.29,4.82,0,0-43.11-41.92-92.14,4,0,0-8.35,3.55-6.17-4.6,0,0,6.08-12.13,19.93-21.23-2.51,4.03-1.56,7.64,5.88,5.1,13.11-4.46,29.94-9.82,52.72-2.3,15.33,5.06,22.21,10.91,25.07,14.2Z"/>
      <path class="cls-21" d="M1160.63,519.26c-6.46,17.95-26.26,27.27-44.21,20.8-17.95-6.46-27.27-26.26-20.8-44.21,6.46-17.95,26.26-27.27,44.21-20.81,5.21,1.88,9.7,4.88,13.28,8.63,8.76,9.17,12.11,22.84,7.52,35.58Z"/>
      <path class="cls-11" d="M1141.26,478.51c-7.9-3.77-23.99-5.83-37.61,10.48,0,0,25.15-13.6,48.02,5.91,0,0,.36-1.26.29-3.26-.22-5.97-5.09-10.45-10.7-13.13Z"/>
      <path class="cls-16" d="M1160.63,519.26c-6.46,17.95-26.26,27.27-44.21,20.8-17.95-6.46-27.27-26.26-20.8-44.21,8.18,20.73,32.57,24.82,42.92,20.32,22.47-9.78,14.56-32.49,14.56-32.49,8.76,9.17,12.11,22.84,7.52,35.58Z"/>
      <path class="cls-21" d="M1209.98,548.44c-6.46,17.95-26.26,27.27-44.21,20.8-17.95-6.46-27.27-26.25-20.8-44.21,6.46-17.95,26.26-27.27,44.21-20.81,5.21,1.88,9.7,4.88,13.28,8.63,8.76,9.17,12.11,22.84,7.53,35.58Z"/>
      <path class="cls-11" d="M1189.45,507.3c-7.9-3.77-23.99-5.83-37.61,10.48,0,0,25.15-13.6,48.02,5.91,0,0,.36-1.26.29-3.26-.22-5.97-5.09-10.45-10.7-13.13Z"/>
      <path class="cls-16" d="M1209.98,548.44c-6.46,17.95-26.26,27.27-44.21,20.8-17.95-6.46-27.27-26.25-20.8-44.21,13.01,15.39,32.48,19.92,42.83,15.42,22.47-9.78,14.65-27.59,14.65-27.59,8.76,9.17,12.11,22.84,7.53,35.58Z"/>
      <path class="cls-21" d="M1259.29,587.64c-6.46,17.95-26.26,27.27-44.21,20.8-17.95-6.46-27.27-26.26-20.8-44.21,6.46-17.95,26.26-27.27,44.21-20.81,5.21,1.88,9.7,4.88,13.28,8.63,8.76,9.17,12.11,22.84,7.53,35.58Z"/>
      <path class="cls-11" d="M1239.81,547.03c-7.9-3.77-23.99-5.83-37.61,10.48,0,0,25.15-13.6,48.02,5.91,0,0,.36-1.26.29-3.26-.22-5.97-5.09-10.45-10.7-13.13Z"/>
      <path class="cls-16" d="M1259.29,587.64c-6.46,17.95-26.26,27.27-44.21,20.8-17.95-6.46-27.27-26.26-20.8-44.21,7.45,17.21,32.15,28.3,49.05,17.66,13.23-8.33,8.43-29.83,8.43-29.83,8.76,9.17,12.11,22.84,7.53,35.58Z"/>
      <path class="cls-21" d="M1145.1,566.03c-6.46,17.95-26.26,27.27-44.21,20.8-17.95-6.46-27.27-26.26-20.8-44.21,6.46-17.95,26.26-27.27,44.21-20.81,5.21,1.88,9.7,4.88,13.28,8.63,8.76,9.17,12.11,22.84,7.53,35.58Z"/>
      <path class="cls-11" d="M1123.55,524.18c-8.11-3.29-24.3-4.38-36.91,12.72,0,0,24.29-15.09,48.29,3.01,0,0,.28-1.28.09-3.27-.58-5.95-5.71-10.12-11.47-12.46Z"/>
      <path class="cls-16" d="M1145.1,566.03c-6.46,17.95-26.26,27.27-44.21,20.8-17.95-6.46-27.27-26.26-20.8-44.21,2.19,18.01,30.61,28.9,41.13,24.31,23.61-10.29,16.35-36.49,16.35-36.49,8.76,9.17,12.11,22.84,7.53,35.58Z"/>
      <path class="cls-21" d="M1307.72,630.15c-6.46,17.95-26.26,27.27-44.21,20.8-17.95-6.46-27.27-26.26-20.8-44.21,6.46-17.95,26.26-27.27,44.21-20.81,5.21,1.88,9.7,4.88,13.28,8.63,8.76,9.17,12.11,22.84,7.53,35.58Z"/>
      <path class="cls-16" d="M1307.72,630.15c-6.46,17.95-26.26,27.27-44.21,20.8-17.95-6.46-27.27-26.26-20.8-44.21-2.97,22.45,31.31,30.99,45.91,21.98,19.72-12.16,11.58-34.16,11.58-34.16,8.76,9.17,12.11,22.84,7.53,35.58Z"/>
      <path class="cls-21" d="M1198.08,591.59c-6.46,17.95-26.26,27.27-44.21,20.8s-27.27-26.26-20.8-44.21c6.46-17.95,26.26-27.27,44.21-20.81,5.21,1.88,9.7,4.88,13.28,8.63,8.76,9.17,12.11,22.84,7.53,35.58Z"/>
      <path class="cls-11" d="M1176.6,550.13c-8.11-3.29-24.3-4.38-36.91,12.72,0,0,24.29-15.09,48.29,3.01,0,0,.28-1.28.09-3.27-.58-5.95-5.71-10.12-11.47-12.46Z"/>
      <path class="cls-16" d="M1198.08,591.59c-6.46,17.95-26.26,27.27-44.21,20.8s-27.27-26.26-20.8-44.21c-2.97,22.45,28.34,31.07,42.94,22.08,27.44-16.9,14.54-34.25,14.54-34.25,8.76,9.17,12.11,22.84,7.53,35.58Z"/>
      <path class="cls-21" d="M1249.26,631.67c-6.46,17.95-26.26,27.27-44.21,20.8-17.95-6.46-27.27-26.26-20.8-44.21,6.46-17.95,26.26-27.27,44.21-20.81,5.21,1.88,9.7,4.88,13.28,8.63,8.76,9.17,12.11,22.84,7.52,35.58Z"/>
      <path class="cls-16" d="M1249.26,631.67c-6.46,17.95-26.26,27.27-44.21,20.8-17.95-6.46-27.27-26.26-20.8-44.21,9.51,9.97,27.02,15.61,42.99,9.33,17.17-6.75,14.5-21.51,14.5-21.51,8.76,9.17,12.11,22.84,7.52,35.58Z"/>
      <path class="cls-11" d="M1227.36,589.03c-8.11-3.29-24.3-4.38-36.91,12.72,0,0,24.29-15.09,48.29,3.01,0,0,.28-1.28.09-3.27-.58-5.95-5.71-10.12-11.47-12.46Z"/>
      <path class="cls-21" d="M1146.68,624.78c-6.46,17.95-26.26,27.27-44.21,20.8-17.95-6.46-27.27-26.26-20.8-44.21,6.46-17.95,26.26-27.27,44.21-20.81,5.21,1.88,9.7,4.88,13.28,8.63,8.76,9.17,12.11,22.84,7.53,35.58Z"/>
      <path class="cls-11" d="M1124.75,583.48c-8.11-3.29-24.3-4.38-36.91,12.72,0,0,24.29-15.09,48.29,3.01,0,0,.28-1.28.09-3.27-.58-5.95-5.71-10.12-11.47-12.46Z"/>
      <path class="cls-16" d="M1146.68,624.78c-6.46,17.95-26.26,27.27-44.21,20.8-17.95-6.46-27.27-26.26-20.8-44.21-2.97,22.45,27.58,29.57,40.23,24.49,29.91-11.99,17.26-36.67,17.26-36.67,8.76,9.17,12.11,22.84,7.53,35.58Z"/>
      <path class="cls-21" d="M1199.89,650.62c-6.46,17.95-26.26,27.27-44.21,20.8-17.95-6.46-27.27-26.26-20.8-44.21,6.46-17.95,26.26-27.27,44.21-20.81,5.21,1.88,9.7,4.88,13.28,8.63,8.76,9.17,12.11,22.84,7.52,35.58Z"/>
      <path class="cls-11" d="M1180.4,609.17c-8.11-3.29-24.3-4.38-36.91,12.72,0,0,24.29-15.09,48.29,3.01,0,0,.28-1.28.09-3.27-.58-5.95-5.71-10.12-11.47-12.46Z"/>
      <path class="cls-16" d="M1199.89,650.62c-6.46,17.95-26.26,27.27-44.21,20.8-17.95-6.46-27.27-26.26-20.8-44.21-2.97,22.45,29.9,34.12,44.55,25.2,25.38-15.45,12.94-37.38,12.94-37.38,8.76,9.17,12.11,22.84,7.52,35.58Z"/>
      <path class="cls-21" d="M1142.3,684.68c-8.6,17.03-29.38,23.87-46.41,15.27-17.03-8.6-23.87-29.38-15.27-46.41,8.6-17.03,29.38-23.87,46.41-15.27,4.95,2.5,9.03,6.02,12.13,10.19,7.57,10.17,9.24,24.14,3.14,36.23Z"/>
      <path class="cls-11" d="M1123.28,638.72c-8.11-3.29-24.3-4.38-36.91,12.72,0,0,24.29-15.09,48.29,3.01,0,0,.28-1.28.09-3.27-.58-5.95-5.71-10.12-11.47-12.46Z"/>
      <path class="cls-16" d="M1142.3,684.68c-8.6,17.03-29.38,23.87-46.41,15.27-17.03-8.6-23.87-29.38-15.27-46.41-5.68,21.93,25.52,37.51,41.15,30.44,27.07-12.25,17.39-35.52,17.39-35.52,7.57,10.17,9.24,24.14,3.14,36.23Z"/>
      <path class="cls-11" d="M1287.78,589.53c-7.9-3.77-23.99-5.83-37.61,10.48,0,0,25.15-13.6,48.02,5.91,0,0,.36-1.26.29-3.26-.22-5.97-5.09-10.45-10.7-13.13Z"/>
      <path class="cls-5" d="M1055.67,666.71c1.41-9.78-2.03-19.42-6.88-27.65-10.58-17.96-28.8-30.28-49.4-33.41-9.45-1.43-19.68-1.03-28.23,3.92-20.02,11.59-24.82,66.9-19.91,102.92,1.06,7.79,8.68,12.94,16.31,11.03,35.26-8.86,84.81-33.91,88.11-56.81Z"/>
      <path class="cls-30" d="M1048.87,673.02c1.35-9.38-1.95-18.62-6.6-26.51-4.73-8.03-11.06-14.9-18.48-20.23-8.47-6.1-18.35-10.2-28.89-11.8-9.06-1.38-18.87-1-27.06,3.75-19.2,11.11-23.8,64.15-19.1,98.69.29,2.12,1.08,4.03,2.24,5.64,1.76,2.47,4.36,4.23,7.3,4.95h0c1.93.48,4.01.5,6.09-.02,33.81-8.49,81.32-32.52,84.49-54.47Z"/>
      <path class="cls-5" d="M1048.87,673.02c1.35-9.38-1.95-18.62-6.6-26.51-4.73-8.03-11.06-14.9-18.48-20.23-4.91-1.06-8.15-.44-8.15-.44,0,0,22.08,33.29,3.91,57.45-18.03,23.97-60.59,43.92-61.25,44.23,1.93.48,4.01.5,6.09-.02,33.81-8.49,81.32-32.52,84.49-54.47Z"/>
      <path class="cls-38" d="M956.01,695.71s-2.48-6.01-.55-9.24c.01-.02.02-.04.03-.06,1.4-2.27,4.97-1.42,5.19,1.24,0,.02,0,.04,0,.07.25,3.75-4.68,7.98-4.68,7.98Z"/>
      <path class="cls-38" d="M978.28,687.01s-.57-6.47,2.23-8.98c.02-.02.03-.03.05-.04,2.01-1.75,5.17.14,4.58,2.74,0,.02,0,.04-.02.07-.88,3.65-6.85,6.22-6.85,6.22Z"/>
      <path class="cls-38" d="M1014.86,689.96s3.24-5.63,6.97-6.08c.02,0,.04,0,.07,0,2.65-.28,4.16,3.07,2.19,4.87-.02.02-.03.03-.05.04-2.81,2.49-9.18,1.17-9.18,1.17Z"/>
      <path class="cls-38" d="M961.99,717.29s-.57-6.47,2.23-8.98c.02-.02.03-.03.05-.04,2.01-1.75,5.17.14,4.58,2.74,0,.02,0,.04-.02.07-.88,3.65-6.85,6.22-6.85,6.22Z"/>
      <path class="cls-38" d="M991,709.44s1.87-6.22,5.4-7.52c.02,0,.04-.02.06-.02,2.52-.88,4.75,2.04,3.25,4.24-.01.02-.03.04-.04.06-2.17,3.07-8.67,3.24-8.67,3.24Z"/>
      <path class="cls-38" d="M984.79,655.24s-1.53-6.32.86-9.21c.01-.02.03-.03.04-.05,1.73-2.03,5.13-.64,4.94,2.02,0,.02,0,.04,0,.07-.32,3.74-5.84,7.18-5.84,7.18Z"/>
      <path class="cls-38" d="M1010.52,642.87s-.03-6.5,2.97-8.76c.02-.01.04-.03.05-.04,2.15-1.58,5.14.56,4.34,3.11,0,.02-.01.04-.02.06-1.18,3.57-7.34,5.63-7.34,5.63Z"/>
      <path class="cls-38" d="M962.5,657.59s-2.77-5.88-1.01-9.2c.01-.02.02-.04.03-.06,1.28-2.34,4.9-1.66,5.25.99,0,.02,0,.04,0,.07.44,3.73-4.28,8.2-4.28,8.2Z"/>
      <path class="cls-38" d="M1009.06,665.23s.02-6.5,3.03-8.74c.02-.01.04-.03.05-.04,2.16-1.56,5.14.6,4.32,3.14,0,.02-.01.04-.02.06-1.21,3.56-7.38,5.58-7.38,5.58Z"/>
      <path class="cls-38" d="M1037.13,676.48s1.31-6.36,4.71-7.96c.02,0,.04-.02.06-.03,2.43-1.1,4.91,1.61,3.61,3.94-.01.02-.02.04-.03.06-1.89,3.25-8.35,3.99-8.35,3.99Z"/>
      <path class="cls-38" d="M975.58,627.37s-2.05-6.16.09-9.25c.01-.02.03-.04.04-.06,1.55-2.17,5.06-1.07,5.09,1.6,0,.02,0,.04,0,.07,0,3.76-5.22,7.64-5.22,7.64Z"/>
      <path class="cls-32" d="M1028.72,613.99s-.17-6.73-11.1-10.05c-15.08-4.59-25.93-13.71-25.93-13.71,0,0,.22,14.8,14.72,21.86,0,0-17.37,3.59-19.94,21.92,0,0,9.14-6.01,17.05-4.6,7.91,1.42,19.67,3.25,23.34-.45,0,0-3.92,24.99,15.34,37.22,0,0-1.39-9,1.82-16.47,3.45-8.02-6.64-21.2-6.64-21.2,0,0,13.7,4.74,27.81,3.66,0,0-9.12-7.74-19.37-15.85-10.25-8.11-17.11-2.33-17.11-2.33Z"/>
      <path class="cls-16" d="M1027.57,617.21s-1.77-5.59-8.3-9.02c-6.53-3.43-14.85-5.38-19.94-10.07,0,0-.59,6.23,8.55,10.83,9.14,4.6,5.6,6.34,5.6,6.34,0,0-13.28-.13-19.72,9.68,0,0,18.4-3.33,25.75.33,7.35,3.66,10.23-2.35,14.07-2.51s21.01,6.15,21.01,6.15c0,0-12.9-15.09-27.03-11.73Z"/>
      <path class="cls-16" d="M1026.49,622.52s.25,3.12,6.63,8.81c6.38,5.69,4.96,22.04,4.96,22.04,0,0,5.73-5.27,4.74-10.21-.98-4.95-7.37-16.74-12.45-20.56s-3.89-.07-3.89-.07Z"/>
      <path class="cls-32" d="M1029.44,622.42s12.68-17.99,34.51-20.09c0,0,1.23-8.64-8.94-10.81,0,0-17.33,7.99-32.06,26.87,0,0,1.98,4.41,6.48,4.03Z"/>
      <path class="cls-5" d="M1094.34,706.7c-9.7,1.89-17.67,8.31-23.85,15.6-13.47,15.9-19.11,37.16-15.28,57.65,1.76,9.39,5.5,18.92,12.99,25.36,17.53,15.09,71.35,1.42,103.74-15.08,7.01-3.57,9.36-12.46,5.05-19.03-19.97-30.38-59.93-68.92-82.64-64.5Z"/>
      <path class="cls-30" d="M1102.54,711.04c-9.3,1.81-16.94,7.97-22.86,14.96-6.03,7.11-10.43,15.35-13.02,24.11-2.97,10.01-3.59,20.69-1.64,31.16,1.68,9.01,5.27,18.14,12.45,24.32,16.81,14.48,68.41,1.36,99.48-14.45,1.9-.97,3.45-2.35,4.59-3.97,1.75-2.48,2.55-5.51,2.27-8.53h0c-.18-1.99-.85-3.95-2.02-5.75-19.15-29.13-57.47-66.09-79.25-61.85Z"/>
      <path class="cls-5" d="M1102.54,711.04c-9.3,1.81-16.94,7.97-22.86,14.96-6.03,7.11-10.43,15.35-13.02,24.11.61,4.99,2.26,7.84,2.26,7.84,0,0,24.17-31.8,52.96-22.6,28.57,9.14,61.41,42.76,61.93,43.28-.18-1.98-.85-3.95-2.02-5.74-19.15-29.13-57.47-66.09-79.25-61.85Z"/>
      <path class="cls-38" d="M1154.53,791.25s-4.86,4.32-8.54,3.56c-.02,0-.04,0-.07-.01-2.6-.57-2.97-4.23-.53-5.31.02,0,.04-.02.06-.03,3.46-1.47,9.08,1.79,9.08,1.79Z"/>
      <path class="cls-38" d="M1138.98,773.1s-5.93,2.67-9.21.85c-.02-.01-.04-.02-.06-.03-2.31-1.33-1.57-4.93,1.08-5.23.02,0,.04,0,.07,0,3.74-.37,8.13,4.42,8.13,4.42Z"/>
      <path class="cls-38" d="M1129.73,737.58s-6.39-1.21-8.04-4.58c0-.02-.02-.04-.03-.06-1.14-2.41,1.53-4.94,3.88-3.67.02.01.04.02.06.03,3.28,1.84,4.13,8.28,4.13,8.28Z"/>
      <path class="cls-38" d="M1172.94,778.51s-5.93,2.67-9.21.85c-.02-.01-.04-.02-.06-.03-2.31-1.33-1.57-4.93,1.08-5.23.02,0,.04,0,.07,0,3.74-.37,8.13,4.42,8.13,4.42Z"/>
      <path class="cls-38" d="M1155.98,753.7s-6.49.29-8.87-2.62c-.01-.02-.03-.03-.04-.05-1.66-2.09.36-5.16,2.94-4.46.02,0,.04.01.07.02,3.61,1.04,5.92,7.11,5.92,7.11Z"/>
      <path class="cls-38" d="M1106.85,777.41s-5.46,3.52-8.98,2.22c-.02,0-.04-.02-.06-.02-2.49-.96-2.29-4.64.28-5.33.02,0,.04-.01.07-.02,3.64-.93,8.7,3.15,8.7,3.15Z"/>
      <path class="cls-38" d="M1086.69,757.18s-6.13,2.17-9.25.08c-.02-.01-.04-.03-.06-.04-2.2-1.51-1.16-5.04,1.51-5.12.02,0,.05,0,.07,0,3.76-.06,7.73,5.08,7.73,5.08Z"/>
      <path class="cls-38" d="M1116.4,797.68s-4.64,4.55-8.35,3.98c-.02,0-.04,0-.07-.01-2.63-.44-3.18-4.08-.8-5.28.02-.01.04-.02.06-.03,3.38-1.64,9.15,1.34,9.15,1.34Z"/>
      <path class="cls-38" d="M1108.29,751.2s-6.14,2.12-9.25.02c-.02-.01-.04-.03-.06-.04-2.19-1.53-1.12-5.05,1.54-5.11.02,0,.04,0,.07,0,3.76-.03,7.7,5.14,7.7,5.14Z"/>
      <path class="cls-38" d="M1109.68,720.99s-6.44.86-9.07-1.83c-.02-.02-.03-.03-.05-.05-1.84-1.93-.09-5.17,2.53-4.7.02,0,.04,0,.07.01,3.69.72,6.52,6.57,6.52,6.57Z"/>
      <path class="cls-38" d="M1083.56,795.27s-5.15,3.97-8.76,2.96c-.02,0-.04-.01-.07-.02-2.56-.75-2.67-4.43-.17-5.34.02,0,.04-.02.06-.02,3.55-1.23,8.93,2.41,8.93,2.41Z"/>
      <path class="cls-32" d="M1053.43,749.5s-6.3,2.38-5.84,13.79c.63,15.75-4.41,29-4.41,29,0,0,13.9-5.08,15.79-21.09,0,0,9.11,15.22,27.26,11.61,0,0-8.69-6.65-9.95-14.59-1.27-7.94-3.4-19.64-8.11-21.89,0,0,24.89-4.52,30.1-26.73,0,0-8.04,4.27-16.15,3.7-8.71-.62-17.84,13.25-17.84,13.25,0,0-.03-14.5-5.7-27.47,0,0-4.31,11.16-8.59,23.51-4.29,12.35,3.43,16.92,3.43,16.92Z"/>
      <path class="cls-16" d="M1056.86,749.52s-4.7,3.52-5.79,10.81c-1.09,7.3-.2,15.79-2.95,22.14,0,0,6.07-1.5,7.41-11.64,1.34-10.14,4.15-7.38,4.15-7.38,0,0,4.25,12.59,15.63,15.44,0,0-9.2-16.28-8.16-24.42,1.03-8.15-5.59-8.89-7-12.46s-1.11-21.87-1.11-21.87c0,0-10,17.15-2.18,29.38Z"/>
      <path class="cls-16" d="M1062.22,748.8s2.86-1.26,6.14-9.16c3.27-7.9,19.18-11.94,19.18-11.94,0,0-6.86-3.67-11.2-1.12-4.35,2.56-13.38,12.46-15.32,18.52-1.94,6.06,1.21,3.69,1.21,3.69Z"/>
      <path class="cls-32" d="M1061.16,746.04s-21.16-6.06-30.33-25.98c0,0-8.56,1.69-7.26,12,0,0,13.24,13.73,35.93,21.43,0,0,3.51-3.32,1.67-7.45Z"/>
      <path class="cls-15" d="M477.21,712.08c-80.86-12.92-143.37-101.77-164.43-150.98-4.46-10.41-4.07-20.7-.5-29.47,8.46-20.75,34.76-32.99,57.04-18.1.47.31.92.63,1.38.94,29.21,20.72,82.19,73.19,150.63,78.65,1.54.13,3.05.31,4.51.56,63.54,10.71,53.91,134.79-48.64,118.39Z"/>
      <path class="cls-14" d="M370.56,524.16s54.66,59.7,128.92,71.93c0,0-35.96,11.44-74-8.84-30.99-16.52-54.92-63.09-54.92-63.09Z"/>
      <path class="cls-33" d="M477.21,712.08c-80.86-12.92-143.37-101.77-164.43-150.98-4.46-10.41-4.07-20.7-.5-29.47,6.12-1.22,13.35-1.46,21.82-.56,0,0,18.62,53.34,91.54,93.9,72.92,40.56,130.69,12.99,100.2-31.29,63.54,10.71,53.91,134.79-48.64,118.39Z"/>
      <path class="cls-16" d="M313.26,519.52s-14.81,16.56-1.34,43.08c0,0,.66-17.99,6.42-23.51,0,0,12,17.47,22.28,25.14,0,0-8.69-30.9-6.06-39.18,0,0,15.19,7.63,24.25,16.54,0,0-4.9-17.64-15.01-24.63,0,0,14.96-8.96,27.92-3.02,0,0-26.17-23.72-58.47,5.57Z"/>
      <path class="cls-32" d="M314.78,519.96s-16.27-24.13-45.07-27.53c0,0-1.38-11.46,12.12-14.04,0,0,22.68,11.04,41.63,36.42,0,0-2.73,5.77-8.69,5.15Z"/>
      <path class="cls-15" d="M609.52,795.05c-75.31,32.15-175.55-9.71-219.59-40.12-9.32-6.44-14.48-15.34-16.13-24.67-3.9-22.07,11.83-46.44,38.62-45.72.56.01,1.11.04,1.67.06,35.76,1.96,108.55,18.13,169.38-13.72,1.37-.72,2.74-1.36,4.12-1.93,59.47-24.8,117.44,85.32,21.94,126.1Z"/>
      <path class="cls-14" d="M419.13,692.87s78.06,21.38,147.42-7.84c0,0-24.33,28.85-67.33,31.95-35.03,2.53-80.09-24.12-80.09-24.12Z"/>
      <path class="cls-33" d="M609.52,795.05c-75.31,32.15-175.55-9.71-219.59-40.12-9.32-6.44-14.48-15.34-16.13-24.67,4.53-4.29,10.52-8.35,18.17-12.1,0,0,44.18,35.21,127.5,30.67,83.32-4.54,117.51-58.65,68.12-79.87,59.47-24.8,117.44,85.32,21.94,126.1Z"/>
      <path class="cls-16" d="M368.17,719.49s-3.71,21.9,21.82,37.17c0,0-9.03-15.57-7.1-23.31,0,0,19.46,8.38,32.26,9.4,0,0-23.82-21.52-26.01-29.92,0,0,16.92-1.63,29.34,1.07,0,0-13.55-12.31-25.82-12.85,0,0,7.89-15.55,22.02-17.44,0,0-34.79-6.13-46.51,35.87Z"/>
      <path class="cls-32" d="M369.69,719.05s-26.63-11.75-52.81.73c0,0-7.27-8.96,2.78-18.34,0,0,25.08-2.74,54.64,8.63,0,0,.76,6.34-4.61,8.98Z"/>
    </g>
  </g>
</svg>