<?xml version="1.0" encoding="UTF-8"?>
<svg xmlns="http://www.w3.org/2000/svg" xmlns:xlink="http://www.w3.org/1999/xlink" viewBox="0 0 1334 1000">
  <defs>
    <style>
      .cls-1 {
        fill: #f1e9d0;
      }

      .cls-2 {
        fill: #becfdc;
      }

      .cls-3 {
        fill: #aa7769;
      }

      .cls-4, .cls-5, .cls-6, .cls-7, .cls-8, .cls-9, .cls-10 {
        mix-blend-mode: screen;
      }

      .cls-4, .cls-11 {
        fill: #fdf385;
      }

      .cls-12, .cls-13, .cls-14, .cls-15, .cls-16, .cls-17, .cls-18, .cls-19, .cls-20 {
        mix-blend-mode: multiply;
      }

      .cls-12, .cls-21 {
        fill: #e9e9e9;
      }

      .cls-22 {
        fill: #775239;
      }

      .cls-5, .cls-23 {
        fill: #fbf4a0;
      }

      .cls-6, .cls-24, .cls-19 {
        fill: #d4a688;
      }

      .cls-7, .cls-25, .cls-20 {
        fill: #206cb5;
      }

      .cls-26 {
        fill: #dcddde;
      }

      .cls-13 {
        fill: #ddcba6;
        opacity: .49;
      }

      .cls-27, .cls-8 {
        fill: #f8d47a;
      }

      .cls-28 {
        fill: #20608d;
      }

      .cls-29 {
        fill: #a99b68;
      }

      .cls-14 {
        opacity: .57;
      }

      .cls-14, .cls-30 {
        fill: #f2a926;
      }

      .cls-31, .cls-17, .cls-18 {
        fill: #ebb057;
      }

      .cls-15 {
        fill: #eae8e2;
      }

      .cls-32 {
        isolation: isolate;
      }

      .cls-33 {
        fill: #f0eff0;
      }

      .cls-17 {
        opacity: .35;
      }

      .cls-18 {
        opacity: .54;
      }

      .cls-34 {
        fill: #eceadb;
      }

      .cls-35 {
        fill: url(#linear-gradient);
        opacity: .81;
      }

      .cls-36, .cls-9 {
        fill: #fff;
      }

      .cls-37 {
        fill: #0e89cb;
      }

      .cls-38 {
        fill: #ee3224;
      }

      .cls-9 {
        opacity: .65;
      }

      .cls-39 {
        fill: #d28f66;
      }

      .cls-40 {
        fill: #9f3d27;
      }

      .cls-10 {
        fill: #eddbc0;
      }

      .cls-41 {
        fill: #fad156;
      }
    </style>
    <linearGradient id="linear-gradient" x1="2563.28" y1="-372.72" x2="3336.34" y2="-372.72" gradientTransform="translate(1029.78 -2750.82) rotate(90) scale(1 -1)" gradientUnits="userSpaceOnUse">
      <stop offset="0" stop-color="#f1ece1"/>
      <stop offset=".18" stop-color="#efe9de" stop-opacity=".99"/>
      <stop offset=".33" stop-color="#e9e1d5" stop-opacity=".97"/>
      <stop offset=".46" stop-color="#dfd5c6" stop-opacity=".94"/>
      <stop offset=".59" stop-color="#d0c3b1" stop-opacity=".88"/>
      <stop offset=".72" stop-color="#beab95" stop-opacity=".82"/>
      <stop offset=".84" stop-color="#a78f74" stop-opacity=".74"/>
      <stop offset=".95" stop-color="#8d6d4d" stop-opacity=".64"/>
      <stop offset="1" stop-color="#825f3c" stop-opacity=".6"/>
    </linearGradient>
  </defs>
  <g class="cls-32">
    <g id="Layer_1" data-name="Layer 1">
      <polyline class="cls-1" points="1498.2 659.98 1498.2 -156.54 -144.12 -160.83 -151.34 669.63"/>
      <polyline class="cls-35" points="1498.2 582.97 -184.07 582.97 -184.07 -190.09 1498.2 -190.09"/>
      <rect class="cls-22" x="-156.34" y="583.56" width="1707.39" height="453.31"/>
      <g>
        <g>
          <g>
            <g>
              <path class="cls-26" d="M454.82,638.27v-227.02c0-27.81.19-55.63.03-83.44-.14-24.29-11.33-45.29-24.49-64.02-38.77-53.49-49.51-140.66-49.51-140.66,0,0-25.05,8.19-64.81,7.47h-39.53c-39.76.71-64.81-7.47-64.81-7.47,0,0-10.74,87.17-49.51,140.66-13.15,18.73-24.35,39.73-24.49,64.02-.16,27.81.03,55.63.03,83.44v227.02c0,16.56-2.78,33.19,6.68,47.44,8.67,13.04,22.59,19.3,36.86,20.53,0,0,50.49,4.61,115,3.06,64.5,1.55,114.99-3.06,114.99-3.06,14.27-1.23,28.19-7.49,36.86-20.53,9.47-14.24,6.68-30.88,6.68-47.44Z"/>
              <path class="cls-2" d="M322.88,710.79c-8.53,0-17.44-.09-26.63-.31-63.78,1.54-114.57-3.02-115.08-3.07-16.24-1.41-29.64-8.88-37.72-21.05-7.92-11.9-7.49-25.62-7.07-38.89.1-3.05.19-6.12.19-9.19v-227.03c0-9.86-.02-19.73-.05-29.59-.05-17.65-.09-35.9.01-53.85.15-26.38,13.28-48.43,24.7-64.68,38.16-52.64,49.2-139.26,49.3-140.13l.17-1.41,1.35.44c.25.08,25.36,8.17,64.43,7.42h39.55c39.15.75,64.2-7.34,64.45-7.42l1.35-.44.18,1.41c.11.87,11.15,87.49,49.29,140.12,11.43,16.27,24.56,38.31,24.71,64.7.1,17.98.06,36.27.01,53.96-.02,9.83-.05,19.66-.05,29.49v227.03c0,3.07.1,6.14.19,9.19.41,13.27.84,26.98-7.07,38.89-8.09,12.17-21.49,19.65-37.73,21.05-.43.04-37.72,3.38-88.49,3.38ZM296.25,708.13c63.75,1.53,114.41-3.01,114.91-3.06,15.53-1.34,28.31-8.45,35.99-20.01,7.5-11.28,7.1-24.02,6.68-37.52-.1-3.08-.19-6.18-.19-9.27v-227.03c0-9.83.02-19.66.05-29.49.04-17.68.08-35.96-.02-53.93-.15-25.73-13.05-47.37-24.28-63.35-35.84-49.44-47.94-128.46-49.52-139.82-5.74,1.65-29.53,7.75-63.85,7.13h-39.51c-34.32.62-58.09-5.48-63.83-7.13-1.58,11.36-13.69,90.37-49.53,139.83-11.22,15.97-24.12,37.61-24.27,63.34-.1,17.94-.06,36.19-.01,53.83.02,9.86.05,19.73.05,29.6v227.03c0,3.09-.1,6.18-.19,9.26-.42,13.5-.82,26.24,6.68,37.53,7.69,11.56,20.47,18.67,35.99,20.01.51.05,51.16,4.58,114.87,3.06Z"/>
            </g>
            <path class="cls-36" d="M441.4,630.08c0-19.02.17-278.15.03-305.52-.12-23.91-10.35-44.57-22.36-63-25.1-37.33-37.32-91.29-42.32-119.55-7.17,1.84-14.52,3.05-21.82,3.92-24.81,2.94-49.9,1.88-74.82,2.04-12.75.08-25.55.07-38.25-1.2-8.49-.85-17.16-2.19-25.28-5.03-4.96,28.18-17.18,82.37-42.37,119.82-12.01,18.43-25.92,51.24-26.05,75.15-.14,27.37.78,271.43.78,290.45,0,16.29.4,35.59,9.04,49.6,7.91,12.83,20.62,18.99,33.65,20.21,0,0,46.1,4.53,105,3.01,58.9,1.52,105-3.01,105-3.01,13.03-1.21,25.74-7.37,33.66-20.21,8.64-14.01,6.1-30.39,6.1-46.68Z"/>
            <path class="cls-12" d="M169.57,598.76c1.28-46.5-.02-93.02-.18-139.52-.08-21.89.08-43.79.75-65.67.61-20.27,2.02-40.73,7.16-60.42,2.48-9.49,5.87-18.58,10.46-27.26,4.75-8.99,10.27-17.55,15.81-26.08,5.49-8.45,11.02-16.88,15.93-25.68,5.21-9.35,9.36-19.14,12.93-29.22,10.85-30.65,16.46-62.72,21.01-94.87-26.13-1.8-41.74-6.9-41.74-6.9,0,0-10.74,87.17-49.51,140.66-13.15,18.73-24.35,39.73-24.49,64.02-.16,27.81.03,55.63.03,83.44v227.02c0,16.56-2.78,33.19,6.68,47.44,6.43,9.67,15.75,15.6,25.95,18.53-3.88-34.99-1.77-70.35-.81-105.48Z"/>
            <path class="cls-12" d="M454.82,638.27v-227.02c0-27.81.19-55.63.03-83.44-.14-24.29-11.33-45.29-24.49-64.02-38.77-53.49-49.51-140.66-49.51-140.66,0,0-21.01,6.86-55.07,7.47,1.68,17.5,3.08,35.03,5.93,52.39,1.8,10.99,4.28,21.59,8.04,32.07,3.55,9.89,7.44,19.68,10.18,29.83,4.27,15.82,1.36,41.25-12.09,45.74-16.32,5.44-69.67,7.44-82.18,14.35,7.74,9.76,23.98,10.23,35.25,10.51,13.17.33,26.52-1.25,39.65.06,6.29.63,13.06,2.17,18.88,4.65,6.44,2.75,10.68,7.51,13.35,13.93,5.61,13.45.81,345.02,1.87,374.76,28.45-.99,46.61-2.65,46.61-2.65,14.27-1.23,28.19-7.49,36.86-20.53,9.47-14.24,6.68-30.88,6.68-47.44Z"/>
          </g>
          <g>
            <g>
              <path class="cls-36" d="M392.83,107.69l-181.77.92-10.9-.92s-3.81,9.17,0,19.35c0,7.15,43.13,12.95,96.33,12.95s96.33-5.8,96.33-12.95c0,0,2.82-5.3,0-19.35Z"/>
              <path class="cls-2" d="M296.5,141.16c-38.89,0-96.61-3.7-97.5-13.88-3.82-10.42-.09-19.64.08-20.03l.33-.79,11.75.99,182.63-.93.19.94c2.57,12.78.55,18.61,0,19.87-1.08,10.14-58.66,13.83-97.49,13.83ZM200.97,108.93c-.77,2.38-2.67,9.77.3,17.7l.07.41c0,4.92,36.2,11.78,95.16,11.78s95.16-6.86,95.16-11.78v-.29l.14-.26s2.44-5,.07-17.62l-180.79.91-10.11-.85Z"/>
            </g>
            <path class="cls-12" d="M392.83,107.69l-181.77.92-10.9-.92s-.11.27-.27.74c.01.02.02.04.03.07,1.72,3.23,4.44,5.79,7.47,7.79,6.22,4.1,13.6,6.25,20.8,7.87,6.9,1.54,13.91,2.48,20.9,3.45,18.57,2.57,40.54-.81,55.62,12.34,49.35-.56,88.11-6.12,88.11-12.9,0,0,2.82-5.3,0-19.35Z"/>
            <g>
              <path class="cls-36" d="M392.61,107.69c0,7.15-43.13,12.95-96.33,12.95s-96.33-5.8-96.33-12.95,43.13-12.95,96.33-12.95,96.33,5.8,96.33,12.95Z"/>
              <path class="cls-2" d="M296.28,121.81c-39.2,0-97.51-3.76-97.51-14.12s58.31-14.12,97.51-14.12,97.5,3.76,97.5,14.12-58.31,14.12-97.5,14.12ZM296.28,95.92c-58.96,0-95.16,6.86-95.16,11.77s36.21,11.78,95.16,11.78,95.16-6.86,95.16-11.78-36.2-11.77-95.16-11.77Z"/>
            </g>
            <g>
              <path class="cls-36" d="M386.32,107.62c0,5.45-40.31,9.88-90.04,9.88s-90.04-4.42-90.04-9.88,40.31-9.88,90.04-9.88,90.04,4.42,90.04,9.88Z"/>
              <path class="cls-2" d="M296.28,118.66c-31.55,0-91.21-2.31-91.21-11.05s59.66-11.05,91.21-11.05,91.21,2.31,91.21,11.05-59.66,11.05-91.21,11.05ZM296.28,98.91c-53.95,0-88.12,5.07-88.87,8.71.75,3.62,34.92,8.69,88.87,8.69s88.06-5.07,88.86-8.7c-.8-3.64-34.96-8.7-88.86-8.7Z"/>
            </g>
          </g>
          <path class="cls-12" d="M386.83,184.66c0,5.72-39.91,10.36-89.14,10.36s-89.15-4.64-89.15-10.36,39.91-10.36,89.15-10.36,89.14,4.64,89.14,10.36Z"/>
        </g>
        <g>
          <g>
            <path class="cls-25" d="M392.51,100.18l-174.38.26-18.07-.91s-9.59,16.84-.35,32.3c0,7.15,43.13,12.95,96.33,12.95s93.88-4.43,96.33-12.95c0,0,8.17-11.18.13-31.65Z"/>
            <path class="cls-28" d="M296.05,145.95c-38.73,0-96.14-3.67-97.48-13.76-9.24-15.79.07-32.53.48-33.24l.36-.63,18.79.95,175.12-.26.3.75c7.74,19.73.88,31.05-.16,32.6-4.23,12.27-69.44,13.59-97.39,13.59ZM200.75,100.74c-1.56,3.14-7.83,17.45-.03,30.48l.17.28v.32c0,4.92,36.2,11.78,95.16,11.78,63.36,0,93.47-6.08,95.21-12.1l.18-.36c.08-.1,7.47-10.7.28-29.78l-173.58.26-17.38-.87Z"/>
          </g>
          <path class="cls-7" d="M201.34,115.37c-.12-5.12.45-10.73,2.41-15.65l-3.69-.19s-9.59,16.84-.35,32.3c0,1.69,2.44,3.3,6.82,4.78-3.49-6.43-5.02-14.04-5.19-21.24Z"/>
          <path class="cls-20" d="M392.51,100.18l-174.38.26-18.07-.91s-.1.18-.24.45c3.71,3.47,8.26,6.17,12.71,8.39,16.86,8.38,35.67,11.62,54.21,13.75,10.95,1.26,22,1.75,33.01,2.22,5.26.22,10.49.42,15.75.28,4.97-.13,9.96-.26,14.88.61.97.17,1,1.35.52,1.97-2.39,3.08-6.17,4.79-9.75,6.04-3.9,1.36-7.96,2.18-12.01,2.92-9.99,1.83-19.99,2.83-30.13,3.3-10.1.46-20.24.95-30.35.92-16.24-.05-32.96-1.47-48.3-7.07,5.44,6.46,46.19,11.48,95.7,11.48,53.2,0,93.88-4.43,96.33-12.95,0,0,8.17-11.18.13-31.65Z"/>
          <g>
            <path class="cls-37" d="M392.61,100.18c0,7.15-43.13,12.95-96.33,12.95s-96.33-5.8-96.33-12.95,43.13-12.95,96.33-12.95,96.33,5.8,96.33,12.95Z"/>
            <path class="cls-28" d="M296.28,114.3c-39.2,0-97.51-3.76-97.51-14.12s58.31-14.12,97.51-14.12,97.5,3.76,97.5,14.12-58.31,14.12-97.5,14.12ZM296.28,88.4c-58.96,0-95.16,6.86-95.16,11.78s36.21,11.77,95.16,11.77,95.16-6.86,95.16-11.77-36.2-11.78-95.16-11.78Z"/>
          </g>
          <path class="cls-20" d="M392.61,100.18c0,7.15-43.13,12.95-96.33,12.95s-96.33-5.8-96.33-12.95,43.13-12.95,96.33-12.95,96.33,5.8,96.33,12.95Z"/>
          <ellipse class="cls-25" cx="273.1" cy="100.1" rx="67.97" ry="9.14"/>
        </g>
      </g>
      <g>
        <g>
          <path class="cls-31" d="M738.2,577.97c.87-3.89-.1-8.07-.33-11.98-.44-7.3-1.13-14.56-1.77-21.83-1.31-15.08.5-30.25-.44-45.35-.46-7.41-1.13-14.8-1.5-22.21-.38-7.52-.56-15.03-.77-22.56-.06-2.19-.12-4.38-.18-6.57.01-.01.02-.02.03-.03-.07-.53-.14-1.06-.2-1.59-.4-.45-.87-.81-1.41-1.13-.4-.24-.79-.47-1.18-.71-3.05-1.44-8.2-1.44-10.28-1.5-10.85-.32-21.69-2.7-32.41-4.31-11.5-1.73-23.07-2.89-34.62-4.19-5.82-.65-11.7-1.18-17.48-2.12-2.14-.35-4.58-.98-6.81-1.47-3.49-.76-7-1.51-10.56-1.82-1.12-.1-3.08-.28-4.5.22-.87-.03-1.74-.03-2.62.07-3.76.43-7.39,2.23-10.87,3.64-7.72,3.13-15.49,6.1-23.22,9.21-15.27,6.14-30.43,12.57-45.43,19.34-15.14,6.83-30.04,14.17-45.11,21.17-15.28,7.09-30.62,14.05-46.04,20.83-7.92,3.48-15.9,6.84-23.74,10.51-3.91,1.83-7.79,3.76-11.59,5.82-1.59.87-3.15,1.76-4.68,2.72-.24-.06-.55.02-.71.21-.11.12-.17.26-.27.39-.46.27-.91.56-1.03,1.11-.05.26,0,.47.08.68-.95,2.85.02,6.12.27,9.15.09,1.14.14,2.29.17,3.43-.11,4.17-.23,8.33-.22,12.5,0,7.58.13,15.15.33,22.73.4,14.92,1.15,29.83,2.34,44.71.51,6.4,1.32,12.78,1.78,19.18.3,4.18.49,8.38,1.13,12.53.49,3.2,1.03,6.2,4.24,7.6,4.09,1.77,9.01,1.57,13.38,1.7,5.78.17,11.31,1.37,16.98,2.48,7.35,1.43,14.69,2.93,22.01,4.48,14.53,3.07,28.96,6.51,43.41,9.91,4.45,1.05,15.39,6.62,19.54,2.4.49-.1,6.29-3.04,8.6-4.18,4.96-2.47,9.82-5.09,14.83-7.46,15.4-7.3,30.67-14.84,46.1-22.09,15.57-7.31,31.34-14.16,47.1-21.05,15.85-6.93,31.72-13.84,47.62-20.66,8.69-3.73,17.36-7.53,26.12-11.1,7.07-2.88,14.42-5.47,20.97-9.45,0,.12,0,.25,0,.38.81-.37,1.48-.92,2.01-1.67.13-.09.27-.17.41-.26.84-.58.86-1.3.48-1.72,0-.03.02-.06.03-.09Z"/>
          <path class="cls-11" d="M400.48,523.84c6.4-3.12,12.73-6.34,19.24-9.25,6.9-3.09,13.89-5.97,20.82-8.99,14.64-6.37,29.21-12.92,43.73-19.57,14.63-6.71,29.09-13.8,43.74-20.46,14.51-6.59,29.17-12.86,43.94-18.85,8.3-3.36,16.67-6.55,24.98-9.87.35-.14.71-.3,1.07-.44.22-.11.45-.22.68-.32,5.01-2.4,11.78-6.7,17.76-5.45,1.26.09,2.52.27,3.76.55.06-.06.14-.11.2-.17,2.37.48,4.73,1.02,7.08,1.58,2.21.53,4.41,1.14,6.64,1.53,4.74.83,9.58,1.28,14.36,1.85,10.91,1.29,21.85,2.39,32.74,3.85,10.75,1.45,21.41,3.52,32.19,4.67,3.6.38,7.23.38,10.83.78,1.55.17,3.52.46,4.76,1.44-12.2,5.65-24.58,10.81-36.99,16-15.05,6.28-30.09,12.6-45.04,19.12-14.68,6.4-29.13,13.18-43.49,20.27-7.03,3.47-14.06,6.93-21.18,10.2-7.23,3.32-14.6,6.24-21.94,9.29-8.2,3.41-16.24,7.15-24.43,10.57-3.53,1.47-7.13,2.61-10.72,3.91-2.09.76-4.19,1.7-6.03,2.99-.43.13-.85.27-1.29.37-.32.07-.66.13-1,.17-3.09-1.16-7.66-1.18-9.59-1.23-10.85-.32-21.7-2.7-32.41-4.31-11.49-1.72-23.07-2.89-34.62-4.19-5.82-.65-11.7-1.18-17.48-2.12-2.14-.35-4.58-.98-6.81-1.47-3.49-.76-7-1.51-10.56-1.83-1.24-.11-3.54-.37-4.96.36-.02-.06-.03-.11-.05-.17.01-.27.02-.54.06-.8Z"/>
          <path class="cls-4" d="M423.35,523.64c-1.19-.2-1.14-1.81-.31-2.37,1.86-1.25,3.79-2.37,5.78-3.38,4.06-2.06,8.3-3.73,12.52-5.42,4.49-1.79,8.89-3.73,13.28-5.76,9.67-4.46,19.24-9.11,28.94-13.49,9.5-4.29,19.22-8.07,28.85-12.06,9.86-4.08,19.68-8.23,29.45-12.51,9.81-4.3,19.57-8.72,29.25-13.31,8.55-4.05,16.75-8.74,25.52-12.36,8.67-3.57,17.82-6.27,27.24-6.61,10.45-.37,21.06.61,31.47,1.41,9.03.69,18.05,1.51,27.08,2.2-.4-.06-.79-.12-1.19-.17-10.89-1.47-21.83-2.57-32.74-3.85-4.78-.56-9.62-1.02-14.36-1.85-2.24-.39-4.44-1-6.64-1.53-2.35-.56-4.71-1.1-7.08-1.58-.06.07-.13.11-.2.17-1.24-.28-2.5-.46-3.76-.55-5.98-1.25-12.75,3.05-17.76,5.45-.23.11-.45.21-.68.32-.36.15-.72.3-1.07.44-8.31,3.32-16.68,6.51-24.98,9.87-14.77,5.99-29.43,12.26-43.94,18.85-14.65,6.66-29.11,13.75-43.74,20.46-14.52,6.65-29.09,13.2-43.73,19.57-6.93,3.02-13.92,5.9-20.82,8.99-6.51,2.91-12.84,6.14-19.24,9.25-.04.27-.05.53-.06.8.02.06.03.11.05.17,1.42-.72,3.72-.47,4.96-.36,3.56.32,7.07,1.07,10.56,1.83,2.23.48,4.67,1.12,6.81,1.47,5.78.94,11.66,1.47,17.48,2.12,11.55,1.29,23.12,2.46,34.62,4.19,5.35.8,10.73,1.77,16.13,2.6-22.49-4.67-45.01-9.23-67.67-13.01Z"/>
          <path class="cls-23" d="M523.31,672.06c-.1.93-.22,1.88-.68,2.55,0,0,0,.02,0,.02,0,.17-.06.33-.15.48-.08.15-.19.27-.33.37-.13.11-.27.19-.44.23-.51.12-1.02.13-1.53,0-.14-.04-.28-.1-.41-.16-1.52-.01-3.1-.32-4.52-.63-2.07-.46-4.1-1.07-6.13-1.67-5.78-1.71-11.78-2.78-17.67-4.07-7.03-1.54-14.06-3.05-21.09-4.57-7.02-1.51-14.05-2.99-21.09-4.41-6.79-1.37-13.62-2.95-20.48-3.95-4.26-.62-8.61-.31-12.89-.68-2.09-.18-4.27-.42-6.23-1.2-1.5-.59-2.17-1.38-2.6-2.91-1.09-3.92-1.15-8.17-1.34-12.2-.23-4.92-.69-9.8-1.14-14.71-2.51-27.25-3.34-54.59-4.19-81.93.3-2.73.6-5.47.76-8.23.12-2.04,0-3.97-.36-5.98-.14-.79-.26-1.6-.33-2.42.43-.23,1.43-.04,1.81-.01,1.18.1,2.35.29,3.52.5,2.97.55,5.93,1.24,8.87,1.95,2.2.53,4.41,1.14,6.64,1.53,4.74.83,9.58,1.28,14.36,1.85,10.91,1.29,21.85,2.39,32.74,3.86,10.75,1.45,21.41,3.52,32.19,4.67,3.6.38,7.23.38,10.83.78,2.39.27,5.8.77,5.98,3.75.01.23.09.38.18.51-.11,12.52.39,25.05,1.27,37.54.51,7.21,1.21,14.39,1.4,21.63.19,7.21.21,14.43.43,21.64.22,7.17.88,14.28,1.54,21.42.55,5.94.76,11.89,1.17,17.84.15,2.18.16,4.42-.08,6.6Z"/>
          <path class="cls-5" d="M408.29,653.57c1.73-16.49-.02-33.24-1.6-49.68-.76-7.87-1.29-15.74-1.99-23.62-.69-7.84-1.55-15.67-1.7-23.54-.07-3.84.02-7.69.43-11.51.28-2.64.53-5.44,1.13-8.03.34-1.47,1.18-2.46,2.67-2.83,2.44-.6,5.3-.52,7.79-.45,8.05.22,15.85,2.42,23.81,3.39,8.5,1.04,17.25.27,25.79.18,5.25-.06,10.5-.05,15.75-.01-3.99-.63-7.98-1.26-11.99-1.8-10.89-1.47-21.83-2.57-32.74-3.86-4.78-.56-9.62-1.02-14.36-1.85-2.24-.39-4.44-1-6.64-1.53-2.94-.71-5.9-1.4-8.87-1.95-1.16-.21-2.34-.4-3.52-.5-.37-.03-1.38-.22-1.8.01.07.81.19,1.62.33,2.42.35,2.01.48,3.94.36,5.98-.16,2.76-.45,5.49-.76,8.23.84,27.34,1.68,54.68,4.19,81.93.45,4.91.91,9.79,1.14,14.71.19,4.04.25,8.28,1.34,12.2.26.95.65,1.59,1.25,2.1Z"/>
          <path class="cls-41" d="M736.15,576.19c-.08.76-.17,1.54-.44,2.17-6.38,3.62-13.21,6.23-20.01,8.95-7.7,3.07-15.29,6.41-22.91,9.67-15.51,6.63-31,13.33-46.46,20.1-15.41,6.74-30.83,13.48-46.08,20.56-15.27,7.1-30.36,14.58-45.51,21.95-6.43,3.13-12.92,6.1-19.15,9.6-2.59,1.45-5.2,2.9-7.89,4.15-.74.34-1.65.81-2.6,1.22.08-.24.19-.45.25-.72.87-3.89-.1-8.07-.33-11.98-.44-7.3-1.13-14.56-1.77-21.84-1.31-15.08.5-30.25-.45-45.35-.46-7.41-1.13-14.8-1.5-22.22-.38-7.52-.55-15.03-.76-22.55-.06-2.25-.13-4.5-.19-6.75,1.44-1.68,3.82-2.56,5.64-3.69,1.58-.98,3.1-2.08,4.76-2.91.27-.13.54-.26.81-.39,1.26-.43,2.52-.87,3.77-1.36,7.29-2.85,14.43-6.09,21.64-9.13,7.25-3.06,14.59-5.85,21.78-9.06,7.15-3.19,14.21-6.6,21.24-10.05,14.21-6.98,28.43-13.87,42.94-20.22,14.85-6.51,29.78-12.82,44.73-19.08,14.25-5.96,28.52-11.83,42.53-18.34,0,.04.02.06.02.09.01.23.09.39.18.51-.11,12.52.39,25.05,1.28,37.54.51,7.21,1.21,14.39,1.4,21.63.19,7.21.21,14.43.43,21.65.22,7.17.89,14.28,1.55,21.42.55,5.94.76,11.89,1.17,17.84.15,2.18.16,4.42-.08,6.6Z"/>
          <path class="cls-5" d="M523.26,640.01c.63,7.28,1.33,14.54,1.77,21.84.02.43.06.86.1,1.29,1.16-8.77,2.15-17.56,2.13-26.42-.02-6.64-.82-13.22-1.17-19.85-.36-6.84-.4-13.7-.16-20.54.24-6.76.76-13.5,1.53-20.22.64-5.55.34-11.15,1.2-16.69.63-4.08,1.98-8.95,5.35-11.66,1.33-1.07,2.89-1.72,4.47-2.33,2.38-.92,4.73-1.82,7.02-2.95,11.49-5.65,22.5-12.21,33.59-18.59,11.37-6.55,22.93-12.55,34.8-18.15,12.04-5.68,24.14-11.21,36.06-17.14,11.7-5.83,23.34-11.75,35.15-17.36,15.11-7.18,30.3-14.2,45.32-21.57,0-.04,0-.09,0-.13-.09-.12-.16-.27-.18-.51,0-.03-.02-.06-.02-.09-14.01,6.51-28.28,12.38-42.53,18.34-14.95,6.25-29.88,12.57-44.73,19.08-14.51,6.36-28.73,13.24-42.94,20.22-7.03,3.45-14.08,6.86-21.24,10.05-7.18,3.2-14.53,6-21.78,9.06-7.21,3.04-14.35,6.28-21.64,9.13-1.25.49-2.51.92-3.77,1.36-.27.13-.55.25-.81.39-1.67.84-3.18,1.93-4.76,2.91-1.82,1.13-4.2,2.01-5.64,3.69.06,2.25.12,4.5.19,6.75.21,7.52.39,15.04.76,22.55.37,7.42,1.04,14.81,1.5,22.22.94,15.1-.86,30.27.45,45.35Z"/>
        </g>
        <path class="cls-17" d="M738.2,577.97c.87-3.89-.1-8.07-.33-11.98-.44-7.3-1.13-14.56-1.77-21.83-1.31-15.08.5-30.25-.44-45.35-.46-7.41-1.13-14.8-1.5-22.21-.38-7.52-.56-15.03-.77-22.56-.06-2.19-.12-4.38-.18-6.57.01-.01.02-.02.03-.03-.07-.53-.14-1.06-.2-1.59-.4-.45-.87-.81-1.41-1.13-.28-.17-.55-.33-.83-.5-19.83,6.87-39.54,14.1-59.14,21.61-23.18,8.89-46.23,18.13-69.21,27.52-11.39,4.65-22.77,9.34-34.14,14.04-11.01,4.55-21.97,9.28-33.09,13.56-10.97,4.23-22.19,7.39-33.99,7.91-6.24.28-12.49,0-18.72-.4-6.1-.4-12.19-.65-18.29-1.05-12.06-.78-24.08-1.83-36.17-2.13-8.93-.22-18.1-.3-26.85-2.32,1.36.65,2.76,1.22,4.2,1.71,5.71,1.94,11.7,2.83,17.61,3.98,6.76,1.31,13.49,2.73,20.26,3.97,6.96,1.27,13.93,2.51,20.87,3.9,6.61,1.33,13.27,2.31,19.92,3.42,5.97,1,12.39,1.82,18.02,4.12,3.1,1.26,5.61,3.23,6.73,6.47,1.49,4.32.94,9.49,1.09,13.97.22,6.98.45,13.95.67,20.93.45,14.14.9,28.27,1.36,42.41.17,5.4.17,10.79.89,16.15.56,4.19,1.16,8.49.87,12.73-.24,3.54-1.36,6.73-5.11,7.77-4.11,1.14-8.54-.17-12.64-.74-3.19-.44-6.48-.44-9.69-.66-3.48-.24-6.96-.51-10.43-.8-6.89-.58-13.78-1.25-20.66-2.03-5.44-.61-10.79-1.18-16.27-1.2-2.41-.01-4.81.04-7.22.09,2.43.42,4.86.9,7.31,1.39,7.35,1.43,14.69,2.93,22.01,4.48,14.53,3.07,28.96,6.51,43.41,9.91,4.45,1.05,15.39,6.62,19.54,2.4.49-.1,6.29-3.03,8.6-4.18,4.96-2.47,9.82-5.09,14.83-7.46,15.4-7.3,30.67-14.84,46.1-22.09,15.57-7.31,31.34-14.16,47.1-21.05,15.85-6.93,31.72-13.84,47.62-20.66,8.69-3.73,17.36-7.53,26.12-11.1,7.07-2.88,14.42-5.47,20.97-9.45,0,.12,0,.25,0,.38.81-.37,1.48-.92,2.01-1.67.13-.09.27-.17.41-.26.84-.58.86-1.3.48-1.72,0-.03.02-.06.03-.09ZM711.35,461.25c-2.37,2.83-4.74,5.67-7.11,8.5-19.18,22.96-38.34,45.93-57.62,68.81-19.32,22.92-38.75,45.75-58.42,68.37-9.7,11.15-19.54,22.18-29.29,33.29-4.55,5.19-9.11,10.44-14.49,14.81-3.73,3.04-12.19,8.88-14.82,1.5-1.34-3.75-1.16-8.18-1.13-12.11.02-3.64.32-7.33,0-10.96-1.3-14.87-.71-29.81-1.31-44.7-.36-8.82-1.26-17.61-1.7-26.42-.96-4.29-1.87-8.64-1.63-13.02.14-2.58.71-5.3,2.49-7.27.93-1.03,2.28-1.41,3.59-1.75,1.61-.42,3.14-.79,4.71-1.38,14.85-5.62,28.48-13.85,42.99-20.2,14.72-6.44,29.81-11.99,44.84-17.68,7.65-2.89,15.31-5.78,22.86-8.93,7.43-3.1,14.67-6.68,21.82-10.38,14.28-7.38,28.21-15.42,42.65-22.51,1.36-.67,2.51.91,1.57,2.04Z"/>
        <path class="cls-18" d="M524.87,670.08c.16-4.96-.29-9.8-.71-14.73-.45-5.16-.82-10.32-1.27-15.48-.72-8.25-1.67-16.49-3.33-24.6-.78,5.38-.55,10.91-.38,16.34.31,9.59,0,19.37-.94,28.93-.45,4.61-1.1,9.26-2.47,13.69-.4,1.29-.9,2.59-1.48,3.86,3.8.99,7.56,1.33,9.63-.78.08-.02.37-.14.74-.31.04-2.31.14-4.62.21-6.93Z"/>
        <path class="cls-18" d="M738.2,577.97c.87-3.89-.1-8.07-.33-11.98-.44-7.3-1.13-14.56-1.77-21.83-1.31-15.08.5-30.25-.44-45.35-.46-7.41-1.13-14.8-1.5-22.21-.38-7.52-.56-15.03-.77-22.56-.06-2.19-.12-4.38-.18-6.57.01-.01.02-.02.03-.03-.07-.53-.14-1.06-.2-1.59-.4-.45-.87-.81-1.41-1.13-.14-.09-.29-.17-.43-.26-.36,1.43-.69,2.88-.98,4.33-4.69,23.21-1.73,47-2.85,70.46-.3,6.34-.69,12.67-1.02,19-.3,5.65-.36,11.26-.45,16.9-.07,4.41-.16,9.63-2.75,13.4-2.5,3.63-6.42,6.05-10.23,8.1-20.98,11.28-42.63,21.35-64,31.87-10.94,5.38-21.91,10.71-32.7,16.39-10.8,5.69-21.16,12.01-31.58,18.35-10.54,6.42-21.07,12.88-31.41,19.61,13.42-6.42,26.78-12.95,40.25-19.28,15.57-7.31,31.34-14.16,47.1-21.05,15.85-6.93,31.72-13.84,47.62-20.66,8.69-3.73,17.36-7.53,26.12-11.1,7.07-2.88,14.42-5.47,20.97-9.45,0,.12,0,.25,0,.38.81-.37,1.48-.92,2.01-1.67.13-.09.27-.17.41-.26.84-.58.86-1.3.48-1.72,0-.03.02-.06.03-.09Z"/>
      </g>
      <g>
        <g>
          <path class="cls-26" d="M1081.96,371.88h-238.34c-14.16,34.33-35.75,89.77-40.78,119.95-7.64,45.82,0,145.1,0,145.1,0,0,.64,38.82,23.55,41.37,0,0,40.56,10.59,136.4,10.19,95.85.4,136.4-10.19,136.4-10.19,22.91-2.54,23.55-41.37,23.55-41.37,0,0,7.64-99.28,0-145.1-5.03-30.18-26.62-85.62-40.78-119.95Z"/>
          <path class="cls-2" d="M967.96,689.46c-1.71,0-3.43,0-5.17-.01-94.84.43-136.23-10.12-136.64-10.23-9.64-1.06-16.97-8.77-21.04-22.28-3.03-10.04-3.22-19.59-3.22-19.99-.07-.93-7.55-99.86.01-145.27,5.14-30.84,27.79-88.52,40.84-120.16l.25-.59h239.62l.25.59c13.05,31.64,35.7,89.33,40.84,120.16,7.57,45.41.09,144.34,0,145.33,0,.34-.19,9.9-3.22,19.93-4.07,13.51-11.4,21.23-21.18,22.31-.27.08-40.14,10.21-131.34,10.21ZM962.79,687.53c94.55.41,135.76-10.06,136.17-10.16,21.94-2.45,22.82-40.08,22.83-40.45.08-1.05,7.54-99.75.01-144.93-5.07-30.45-27.42-87.46-40.48-119.15h-237.05c-13.05,31.69-35.4,88.69-40.48,119.15-7.53,45.18-.07,143.88,0,144.87.01.44.89,38.07,22.7,40.49.54.13,41.64,10.6,136.3,10.19Z"/>
        </g>
        <path class="cls-36" d="M1116.5,489.33c-3.92-23.9-17.68-62.42-30.25-94.66-14.9,4.36-31.68,7.04-47.09,8.91-17.07,2.08-33.22,2.62-50.38,3.7-17.35,1.09-34.74,1.59-52.12,1.26-17.38-.33-34.75-1.48-51.99-3.74-15.7-2.06-31.27-5.04-46.56-9.16-12.33,31.78-26.05,70.41-29.87,93.7-7.36,44.87,0,142.08,0,142.08,0,0,.61,38.01,22.69,40.51,0,0,39.08,10.37,131.44,9.98,92.36.39,131.44-9.98,131.44-9.98,22.08-2.49,22.69-40.51,22.69-40.51,0,0,7.36-97.21,0-142.08Z"/>
        <path class="cls-15" d="M1116.5,489.33c-2.28-13.87-7.87-32.66-14.61-52.29-2.06,2.51-4.75,4.05-8.71,3.44-2.75-.42-5.32-1.55-7.91-2.53-2.92-1.1-6.01-1.65-9.07-2.2-6.68-1.19-13.59-1.9-20.39-1.54-3.32.18-6.56,1.07-9.89,1.15-2.63.06-4.91-.52-7.2-1.77-2.59-1.4-4.92-3.01-7.78-3.84-3.25-.95-6.58-1.61-9.92-2.13-21.9-3.41-46.47-3.8-66.84,6.08,6.21-1.4,12.44-2.69,18.73-3.63,12.29-1.84,24.6-2.02,36.93-.53,5.37.65,10.75,1.57,15.92,3.22,4.33,1.38,8.74,3.3,11.95,6.61.47.48.3,1.15-.19,1.52-4.06,2.95-8.77,6.23-10.77,10.99,2.08-.93,4.13-1.92,6.17-2.94,5.11-2.55,10.25-4.63,15.95-5.43,5.71-.8,11.73-.76,17.4.35,5.49,1.07,11.33,3.45,14.86,7.98,2.75,3.52,3.38,8.21.39,11.8-3.36,4.04-8.97,5.21-13.96,5.14-5.73-.08-11.37-1.41-17.02-2.22-6.53-.94-13.2-.4-19.71.44-7.57.98-15.04,2.62-22.45,4.43-6.48,1.58-13.06,3.97-19.78,4.2-6.15.21-11.84-1.92-17.51-4.03-13.54-5.03-28.12-7.63-42.5-8.59-14.48-.97-28.95,1.08-42.79,5.34-6.22,1.91-11.91,4.81-17.72,7.69-5.51,2.73-11.25,5.49-17.4,6.33-10,1.36-20.84-3.6-27.44-10.99-3.55-3.97-5.94-8.69-7.08-13.69-3.64,11.93-6.49,22.87-7.92,31.64-7.36,44.87,0,142.08,0,142.08,0,0,.61,38.01,22.69,40.51,0,0,39.08,10.37,131.44,9.98,92.36.39,131.44-9.98,131.44-9.98,22.08-2.49,22.69-40.51,22.69-40.51,0,0,7.36-97.21,0-142.08Z"/>
        <path class="cls-12" d="M828.96,629.61c-.81-25.92-1.32-51.84-1.28-77.77.02-12.76.18-25.53.51-38.28.3-11.69.8-23.2,3.1-34.7,4.35-21.81,13.16-42.48,23.19-62.22,7.72-15.19,16.28-29.92,24.64-44.76h-35.51c-14.16,34.33-35.75,89.77-40.78,119.95-7.64,45.82,0,145.1,0,145.1,0,0,.64,38.82,23.55,41.37,0,0,1.45.38,4.43.99-.69-16.56-1.34-33.11-1.85-49.68Z"/>
        <g>
          <g>
            <path class="cls-36" d="M1086.47,361.58l-238.11,1.14-14.28-1.14s-4.99,11.42,0,24.09c0,8.9,56.5,16.12,126.19,16.12s126.19-7.22,126.19-16.12c0,0,3.7-6.59,0-24.09Z"/>
            <path class="cls-2" d="M960.28,402.74c-61.27,0-126.37-5.91-127.15-16.88-4.98-12.83-.13-24.19.07-24.67l.27-.63,14.96,1.2,238.81-1.15.16.76c3.41,16.13.63,23.22,0,24.54-.97,10.93-65.96,16.83-127.14,16.83ZM834.73,362.59c-.91,2.52-3.87,12.24.26,22.72l.07.35c0,7.17,51.43,15.16,125.23,15.16s125.23-7.99,125.23-15.16v-.25l.12-.22c.03-.06,3.35-6.41.06-22.66l-237.32,1.14-13.65-1.09Z"/>
          </g>
          <path class="cls-12" d="M1086.47,361.58l-238.11,1.14-14.28-1.14s-.31.71-.69,1.95c3.08,5.11,9.03,8.59,14.49,10.91,11.06,4.69,23.27,6.71,35.12,8.19,9.54,1.19,19.13,1.65,28.68,2.62,23.74,2.41,47.59,3.02,71.43,2.94,9.98-.03,20.58-1.3,30.17,2.16,3.89,1.4,6.9,3.7,9.2,7.14.46.69.89,1.39,1.32,2.1,37.47-2.8,62.66-7.98,62.66-13.93,0,0,3.7-6.59,0-24.09Z"/>
          <g>
            <path class="cls-36" d="M1086.47,361.58c0,8.9-56.5,16.12-126.19,16.12s-126.19-7.22-126.19-16.12,56.5-16.12,126.19-16.12,126.19,7.22,126.19,16.12Z"/>
            <path class="cls-2" d="M960.28,378.66c-61.64,0-127.15-5.99-127.15-17.08s65.51-17.08,127.15-17.08,127.15,5.99,127.15,17.08-65.51,17.08-127.15,17.08ZM960.28,346.41c-73.8,0-125.23,7.99-125.23,15.16s51.43,15.16,125.23,15.16,125.23-7.99,125.23-15.16-51.43-15.16-125.23-15.16Z"/>
          </g>
          <path class="cls-2" d="M961.83,374.74c-57.64,0-118.91-4.65-118.91-13.25s61.26-13.26,118.91-13.26,118.9,4.65,118.9,13.26-61.26,13.25-118.9,13.25ZM961.83,350.15c-72.48,0-116.99,6.6-116.99,11.34s44.51,11.33,116.99,11.33,116.99-6.6,116.99-11.33-44.5-11.34-116.99-11.34Z"/>
        </g>
        <g class="cls-16">
          <path class="cls-21" d="M1091.25,469.4c-1.27.18-2.57.29-3.86.25-1.98.24-3.99.3-5.97.26-7.28-.15-14.49-1.76-21.66-2.91-8.09-1.29-16.16-2.04-24.36-1.52-8.01.52-15.91,1.97-23.66,4.04-8.04,2.16-15.97,4.86-23.57,8.27-1.13.22-2.23.51-3.33.85-1.27-.66-2.53-1.32-3.77-2.02-3.6-2.03-7.23-4.01-11.07-5.55-4.35-1.74-8.91-2.64-13.52-3.39-5.01-.82-10.06-1.39-15.13-1.76-9.89-.73-19.95-.98-29.86-.48-9.54.48-19.07,1.96-28.14,4.98-5.05,1.69-9.94,3.87-14.6,6.46-2.23,1.24-4.42,2.56-6.56,3.96-1.23.8-2.4,1.77-3.67,2.56-2.04-.3-4.12-.38-6.21-.19-5.93.54-12.24,2.92-16.84,6.88,1.57-.8,3.19-1.52,4.84-2.14,9.86-3.7,22.25-4.56,31.31,1.37-.02-.03-.03-.06-.06-.08-3.36-2.86-7.38-4.76-11.63-5.62.08-.05.17-.1.25-.15,1.99-1.29,3.99-2.52,6.06-3.66,4.06-2.23,8.22-4.26,12.54-5.94,8.92-3.48,18.45-5.27,27.98-5.97,9.82-.72,19.77-.49,29.6.07,4.97.28,9.93.71,14.86,1.37,4.76.64,9.63,1.37,14.22,2.83,4.54,1.45,8.76,3.66,12.93,5.92,1.04.57,2.09,1.15,3.14,1.74-2.36,1-4.62,2.28-6.71,3.84-1.51,1.12-2.96,2.36-4.22,3.76-.82.91-1.71,1.93-2.31,3.06,2.13-1.85,4.33-3.63,6.66-5.25,6.11-4.23,12.98-7.06,20.52-6.57,5.9.38,11.49,2.35,17.14,3.98-2.29-2.04-5.33-3.31-8.23-4.18-3.45-1.04-7.09-1.44-10.68-1.32-.09,0-.17.01-.26.02,5.26-1.73,10.51-3.51,15.85-4.99,7.99-2.21,16.2-3.85,24.48-4.45,8.45-.61,16.76.11,25.1,1.47,7.15,1.16,14.37,2.78,21.64,2.92,3.28.07,6.62-.12,9.83-.85.05-.01.1-.02.15-.03,1.32-.6,2.54-1.42,3.6-2.41-.94.23-1.89.44-2.84.58Z"/>
          <path class="cls-21" d="M1108.43,453.39c-2.02-4.9-6.59-8.38-11.29-10.53-6.39-2.92-13.23-4.64-20.16-5.67-7.01-1.05-14.13-1.69-21.23-1.67-3.78.01-7.67.15-11.39.92-.08.01-.16.04-.24.06-2.29-.96-4.52-2.04-6.81-3.06-4.3-1.91-8.88-3.19-13.45-4.27-9.42-2.22-18.99-3.46-28.67-3.5-18.92-.08-38.16,2.39-55.8,9.48-4.22,1.7-8.41,3.6-12.39,5.81-.15.08-.29.17-.44.25-4.54-.48-9.05-1.03-13.52-2.02-5.15-1.14-10.22-2.6-15.28-4.1-9.92-2.93-19.92-5.97-30.3-6.68-7.54-.51-15.21.46-22.58,2.08-6.79,1.49-13.79,3.72-19.42,7.94-2.8,2.1-5.25,4.8-6.54,8.09-.61,1.57-.95,3.25-1,4.94-.02.65-.12,1.73.35,2.26-2.36,2.95-3.71,6.64-3.48,10.45.43,7.11,7.01,11.92,12.81,14.91,3.35,1.72,6.92,3.38,10.58,4.31.4.1,1.23-.59.69-.89-2.56-1.44-5.31-2.54-7.89-3.97-2.89-1.6-5.7-3.4-8.2-5.57-2.25-1.95-4.34-4.42-5.18-7.34-.95-3.29-.2-6.96,1.57-9.84.85-1.38,1.98-2.65,3.24-3.79.63-1.11,1.35-2.17,2.16-3.16-.56.26-1.12.54-1.67.88-1.34.82-2.6,1.81-3.7,2.94,0-.02,0-.03,0-.06-.01-.85.17-1.79.35-2.62.29-1.4.77-2.77,1.47-4.03,1.42-2.58,3.47-4.65,5.87-6.33,5.34-3.76,11.91-5.71,18.23-7.07,7-1.5,14.21-2.4,21.37-1.92,9.91.65,19.49,3.54,28.97,6.32,5.32,1.56,10.65,3.14,16.08,4.29,3.96.84,8.03,1.58,12.09,1.76-1.32.86-2.59,1.8-3.76,2.85,2.81-1.48,5.54-3.12,8.51-4.27,1.94-.75,3.91-1.44,5.89-2.11,1.25-.55,2.5-1.1,3.77-1.62,8.31-3.4,16.99-5.89,25.84-7.4,9.25-1.58,18.77-2.28,28.15-2.38,9.59-.1,19.03.9,28.39,2.95,4.98,1.09,10.01,2.38,14.7,4.39,1.17.5,2.34,1.04,3.51,1.58,1.23.16,2.47.31,3.7.48,2.48.35,4.98.78,7.48,1.11-.08-.1-.18-.18-.37-.23-.59-.15-1.15-.35-1.72-.53.9-.07,1.78-.16,2.69-.19,6.81-.17,13.6.34,20.36,1.12,6.39.74,12.76,1.9,18.87,3.96,5.4,1.82,10.95,4.23,14.5,8.88,1.47,1.93,2.6,4.29,2.53,6.76-.08,2.57-1.49,4.51-3.14,6.3,2.02-1.16,3.82-2.77,5.16-4.67.63-2.11.62-4.39-.29-6.59Z"/>
        </g>
        <g>
          <path class="cls-9" d="M847.16,615.39c9.85,2.85,20.06,4.09,30.31,4.8.06-11.17.39-22.35.6-33.52.3-15.82.49-31.65,1.06-47.47.91-25.65,2.79-51.33,6.85-76.68-2.13-1.48-4.66-2.43-7.13-3.07-3.37-.88-7-1.34-10.48-1.09-3.06.22-5.88,1.14-8.37,2.62-4.03,12.11-6.8,24.63-8.79,37.24-2.22,14.11-3.47,28.37-4.27,42.63-.85,15.12-1.18,30.26-1.3,45.4-.08,9.57-.02,19.14.16,28.72.45.14.9.29,1.36.42Z"/>
          <path class="cls-9" d="M877.5,629.32c-10.53-.14-21.14-1.7-31.43-4.19.08,2.93.14,5.86.25,8.79.26,6.53.61,13.07,1.03,19.59,0,0,.01,0,.02,0,9.39,2.52,19.08,4.09,28.79,4.48.78-1.18,1.33-2.54,1.72-3.93-.03-6.87-.22-13.75-.36-20.6-.03-1.38-.02-2.77-.03-4.15Z"/>
        </g>
      </g>
      <g>
        <g>
          <path class="cls-3" d="M1179.5,836.97c-.85-3.34-2.84-6.17-5.72-8.04-2.29-1.49-4.78-2.64-7.14-4.02-1.49-.5-2.98-.95-4.45-1.34-4.89-1.29-9.89-2.05-14.91-2.68-19.73-2.45-39.69-2.66-59.52-1.61-20.18,1.07-40.26,3.45-60.27,6.22-20.13,2.79-40.18,6.07-60.37,8.4-10.46,1.2-20.94,2.2-31.44,2.96-7,.51-14.02,1.02-21.04,1.26-2.94.09-5.88.17-8.83.23-2.26.05-4.53-.08-6.71-.66-3.78-.15-7.55-.38-11.3-.83-9.58-1.14-19.01-3.73-28.27-6.36-9.52-2.7-18.91-5.82-28.23-9.12-6.32-2.24-12.64-4.46-19.08-6.35-12.93-3.8-26.32-6.6-39.84-6.58-13.07.02-26.21,3.06-37,10.67-4.41,3.11-8.7,7.05-10.35,12.35-.78,2.48-.88,5.04-.49,7.54-.72,4.14-.76,8.33.38,12.55,1.9,7.04,6.42,12.77,11.61,17.74,13.11,12.53,30.73,20.2,48.49,23.18,17.72,2.97,35.99,1.52,53.52-2.01,8.63-1.74,16.89-4.48,24.85-8.24,3.54-1.67,7-3.53,10.41-5.44,4.02-1.34,7.81-3.29,11.57-5.22,4.89-2.51,9.81-4.84,15.02-6.62,5.41-1.85,10.96-3.41,16.67-3.99,5.4-.55,10.84-.32,16.24,0,5.47.32,10.93.74,16.41.64,6.18-.11,12.36-.32,18.55-.41,12.35-.19,24.7-.23,37.05-.21,24.76.04,49.51.32,74.27.09,12.28-.12,24.57-.37,36.85-.83,10.87-.41,21.8-.76,32.53-2.65,7.77-1.37,15.22-3.49,21.94-7.69,2.68-1.67,6.33-4.26,8.39-7.4.55-1.74.72-3.56.23-5.51Z"/>
          <path class="cls-24" d="M730.99,825.74c4-4.68,9.79-8.08,15.39-10.49,5.87-2.52,12.19-3.91,18.55-4.49,13.12-1.18,26.4.94,39.09,4.21,14.68,3.78,28.76,9.46,43.21,14.01,9.12,2.87,18.33,5.42,27.67,7.46,8.55,1.87,17.09,2.66,25.83,2.59,18.81.63,37.67-.56,56.39-2.43,19.96-1.99,39.77-5.01,59.62-7.85,19.39-2.78,38.83-5.31,58.36-6.8,19.56-1.49,39.24-1.94,58.82-.38,9.75.78,19.83,1.64,29.21,4.53,3.38,1.04,7.49,2.24,10.11,4.78,1.7,1.66,1.78,3.69.98,5.83-.37.99-.89,1.91-1.44,2.81-.39.37-.81.72-1.24,1.05-4.09,3.03-9.38,4.69-14.22,6.05-5.81,1.63-11.77,2.65-17.74,3.48-6.15.86-12.33,1.61-18.52,2.12-13.54,1.11-27.14,1.21-40.71,1.75-13.65.54-27.3.46-40.96.21-13.75-.25-27.5-.63-41.26-.61-14.06.03-28.11.34-42.17.47-7.02.07-14.05.12-21.07.14-6.25.02-12.55-.25-18.78.4-8.54.9-17.2,3.1-25.08,6.75-2.17.81-4.32,1.66-6.45,2.54-5.63,2.34-11.21,4.78-16.79,7.21-6.32,2.75-12.58,5.73-19.34,7.24-6.39,1.43-12.97,1.73-19.36,3.15-9.36.65-18.77.59-28.1-.33-15.06-1.49-30.53-5.04-44.03-12.07-8.9-4.63-17.66-10.83-23.96-18.73-2.85-3.58-5.28-7.71-5.93-12.3-.64-4.54.98-8.88,3.92-12.32Z"/>
          <path class="cls-6" d="M853.53,833.91c8.27,3.44,17.05,5.73,25.88,7.18,11.95,1.96,24.22,2.16,36.3,1.67,13.57-.55,27.14-1.84,40.64-3.29,27.64-2.96,55.1-7.3,82.64-11.06,26.24-3.58,52.87-7.27,79.42-6.69,19.41.43,38.92,3.65,56.26,12.08-.1-1.05-.52-2.03-1.42-2.91-2.62-2.55-6.73-3.74-10.11-4.78-9.38-2.89-19.47-3.75-29.21-4.53-19.57-1.57-39.25-1.11-58.82.38-19.54,1.49-38.97,4.02-58.36,6.8-19.85,2.84-39.66,5.86-59.62,7.85-18.72,1.87-37.58,3.06-56.39,2.43-8.74.07-17.28-.73-25.83-2.59-9.34-2.04-18.55-4.59-27.67-7.46-2.29-.72-4.57-1.47-6.85-2.24,4.02,3.02,8.69,5.32,13.15,7.18Z"/>
          <path class="cls-39" d="M1170.55,847.34c-6.27,4.26-13.22,6.46-20.63,7.86-10.55,2-21.31,2.4-32.01,2.8-12.02.45-24.05.72-36.07.85-24.16.25-48.33,0-72.49-.06-12.06-.03-24.12-.01-36.17.14-11.57.15-23.14.81-34.7.12-5.28-.31-10.56-.71-15.85-.59-5.39.12-10.64.88-15.85,2.27-5.23,1.4-10.36,3.16-15.29,5.39-4.8,2.17-9.34,4.83-14.01,7.25-.3.16-.61.29-.92.45-.03-.33-.08-.65-.12-.98-1.86,1.12-3.73,2.22-5.62,3.26-7.48,4.1-15.24,7.71-23.42,10.17-8.37,2.51-17.19,3.89-25.86,4.84-8.86.97-17.8,1.25-26.69.53-17.81-1.45-35.69-7.44-49.98-18.35-6.76-5.17-13.47-11.6-16.65-19.67-1.13-2.88-1.72-5.95-1.96-9.06,4.28,9.29,13.01,16.38,21.4,21.83,11.16,7.25,23.85,11.69,36.82,14.43,6.66,1.41,13.41,2.31,20.2,2.79,3.65.15,7.3.2,10.95.08,8.39-.28,16.81-1.15,25.09-2.5,8.11-1.32,16.11-3.47,23.69-6.67,3.92-1.66,7.68-3.65,11.62-5.28,3.82-1.58,7.75-2.88,11.63-4.33,2.85-1.07,5.71-2.17,8.59-3.17,3.88-1.51,7.88-2.74,11.99-3.61,5.42-1.64,11.06-2.53,16.7-2.85,5.51-.3,22.52,1.1,25.49,1.08,14.37-.12,28.74-.38,43.1-.5,14.01-.12,28.02.24,42.03.51,14,.27,28.01.45,42.01-.05,13.83-.49,27.7-.66,41.51-1.71,6.5-.49,12.97-1.27,19.43-2.16,5.93-.81,11.87-1.78,17.67-3.29,5.38-1.4,10.99-3.19,15.74-6.15,1.55-.96,3.07-2.16,4.19-3.64.65-.58,1.19-1.16,1.63-1.74.03-.1.06-.2.09-.3.14,1.06-.02,2.17-.6,3.32-1.43,2.83-4.1,4.96-6.67,6.71Z"/>
          <path class="cls-3" d="M870.01,849.7c-1.83-5.37-6.52-9-11.28-11.72-5.04-2.87-10.5-4.85-15.7-7.39-14.17-6.92-29.32-11.69-44.73-14.92-8.25-1.73-16.42-2.82-24.85-3.11-3.23-.11-6.46-.27-9.69-.05-2.87.19-5.9.64-8.27,2.38-.19.14.06.27.21.19,5.08-2.61,11.26-1.62,16.72-1.24,6.91.47,13.62,1.3,20.42,2.69,14.63,3,29.13,6.99,42.81,13.04,5.26,2.33,10.5,4.77,15.72,7.19,4.98,2.3,10.34,4.99,13.77,9.42,3.37,4.35,3.94,10.06,1.02,14.79-2.88,4.67-7.94,7.78-12.87,9.9-6.74,2.9-14.02,4.77-21.21,6.16-7.66,1.47-15.36,1.96-23.09,2.86-.42.05-.51.61-.02.62,7.22.1,14.6-.86,21.73-2.01,7.12-1.15,14.29-2.72,21.15-4.97,9.72-3.2,22.2-12.02,18.18-23.84Z"/>
          <path class="cls-19" d="M844.44,875.79c.14-.05.28-.06.41-.07,3.28-1.12,6.56-2.28,9.82-3.48.5-.42,1.01-.83,1.53-1.22,1.92-1.45,3.79-2.92,5.54-4.58,2.88-2.72,5.65-5.92,6.63-9.85,2.48-9.93-7.09-17.55-14.51-22.11-9.02-5.55-19.05-9.43-29.07-12.75-16.54-5.48-34.09-9.29-51.58-9.2-8.83.05-17.99,1.09-26.06,4.87-4.29,2.01-7.91,4.97-11.08,8.46-2.94,3.25-5.6,6.75-8.71,9.85-.12.12-.26.18-.4.24,0,.69.02,1.39.12,2.09.65,4.6,3.08,8.72,5.93,12.3,6.3,7.9,15.05,14.09,23.96,18.73,13.5,7.02,28.97,10.58,44.03,12.07.32.03.64.05.95.08,2.6-.27,5.2-.51,7.81-.73,11.06-.96,22.2-1.89,33-4.24.56-.15,1.12-.29,1.68-.47Z"/>
          <path class="cls-19" d="M1146.14,847.99c-17.65,2.29-35.49,1.55-53.23,1.36-33.45-.36-66.91,0-100.37-.4-15.26-.19-30.51-.73-45.77-1.05-14.56-.3-29.2-.25-43.68,1.51-7.14.87-14.15,2.24-21.11,4.05-1.61.42-3.43.99-5.03.21-1.95-.95-3.23-3.24-4.56-4.85-3.05-3.66-6.52-7.09-10.33-9.94-.45-.34-.95-.69-1.46-1.05,1.59,1.84,2.96,3.86,3.92,5.94.85,1.85,1.39,4.05.55,6-.98,2.27-3.6,3.43-5.92,3.73-5.19.67-10.2-3.81-13.92-6.81-2.07-1.67-4.08-3.48-6.32-4.93-1.89-1.22-4.03-2.12-6.09-3.02-9.84-4.3-20.39-7.06-31.01-8.58-20.52-2.94-46.47-1.82-60.91,15.31-.54.64-1.5.48-1.96-.15-2.37-3.25-3.92-7.05-4.11-11.11-.25-5.62,1.92-10.92,4.89-15.61-3.27,1.95-6.34,4.3-8.75,7.12-2.94,3.44-4.56,7.78-3.92,12.32.65,4.6,3.08,8.72,5.93,12.3,6.3,7.9,15.05,14.09,23.96,18.73,13.5,7.02,28.97,10.58,44.03,12.07,9.33.92,18.74.98,28.1.33,6.39-1.42,12.97-1.72,19.36-3.15,6.77-1.51,13.02-4.49,19.34-7.24,5.58-2.43,11.17-4.87,16.79-7.21,2.13-.88,4.28-1.73,6.45-2.54,7.88-3.66,16.54-5.85,25.08-6.75,6.23-.65,12.53-.38,18.78-.4,7.02-.02,14.05-.07,21.07-.14,14.05-.13,28.11-.44,42.17-.47,13.75-.03,27.5.36,41.26.61,13.65.25,27.31.33,40.96-.21,13.57-.54,27.17-.63,40.71-1.75,6.19-.51,12.37-1.26,18.52-2.12,5.97-.83,11.93-1.85,17.74-3.48,3.18-.89,6.56-1.93,9.66-3.38-6.68,2.5-13.82,3.85-20.85,4.76Z"/>
        </g>
        <path class="cls-33" d="M869.44,856.66c2.11-5.66.49-11.27-4.02-15.13-.36-4.42-3.45-7.92-7.12-10.42-2.28-1.54-4.8-2.76-7.39-3.72-1.6-4.92-6.89-8.61-11.07-11.01-6.99-4.02-15.1-5.41-22.29-9.01-4.14-2.08-10.17-5.92-10.39-11.16-.21-4.91,6.83-6.56,10.47-7.47.43-.11,1.05-.71.39-1.02-4.45-2.11-9.86-1.18-14.39.15-5.01,1.47-10.07,3.83-14.06,7.24-.97.82-1.83,1.76-2.58,2.78-1.52-.54-3.35-.53-4.9-.34-1.92.22-3.8.81-5.55,1.6-1.8.81-3.48,1.82-5.06,3-.76.57-1.49,1.17-2.21,1.8-.65.57-1.54,1.23-1.99,1.99-1.08-.19-2.16-.33-3.26-.37-2.11-.08-4.25.2-6.35.43-1.99.21-3.99.53-5.88,1.23-3.48,1.28-6.58,3.78-7.99,7.25-5.72.95-12.24,2.03-16.03,6.86-4.52,5.75-2.68,13.23.32,19.19,3.48,6.92,7.92,13.06,13.7,18.25,6.01,5.38,12.98,9.39,20.37,12.55,15.4,6.57,32.23,9.22,48.91,9.1,16.02-.11,32.45-2.56,46.51-10.7,5.17-2.99,9.72-7.33,11.85-13.03Z"/>
        <path class="cls-36" d="M858.94,867.01c-6.02,4.2-13.24,6.87-20.29,8.74-7.41,1.97-15.01,2.83-22.66,3.12-15.47.59-31.11-1.1-45.81-6.1-14.48-4.93-28.34-13.14-36.72-26.3-3.89-6.11-8.31-13.68-6.11-21.16,2.09-7.1,9.82-8.87,16.24-10.28-1.08,3.12-.63,6.37.53,9.37.02-1.83.05-3.67.33-5.48.13-.8.32-1.58.58-2.32.13-.51.29-1.02.49-1.51,1.46-3.5,4.8-5.91,8.4-6.86,1.68-.44,3.44-.61,5.16-.76,2.03-.19,4.03-.4,6.07-.19.51.05,1.01.15,1.51.23,1.5-.11,3.01-.14,4.51-.07,1.07.05,2.14.15,3.22.29-1.81-.49-3.62-1.01-5.45-1.43.49-.42.95-.92,1.41-1.35.65-.59,1.32-1.17,2.01-1.7,1.43-1.11,2.97-2.1,4.58-2.91,1.57-.79,3.26-1.39,4.99-1.68,1.57-.27,3.07-.19,4.63-.15-1.56,2.33-2.45,5.04-2.22,7.93.35,4.23,2.87,8,5.9,10.83,2.06,1.93,4.44,3.53,7.01,4.69,1.13.09,2.28.08,3.42-.05-6.36-2.22-12.58-7.18-14.32-13.65-2.56-9.54,7.29-15.51,14.83-18.38,4.3-1.63,9.82-3.18,14.44-1.74-2.92.77-5.93,1.8-8.12,3.85-2.95,2.75-2.21,6.47-.05,9.49,5.07,7.11,14.73,9.57,22.55,12.27,6.03,2.08,12.02,4.91,16.39,9.71,1.86,2.04,3.53,4.74,3.3,7.62-.32,3.84-3.68,6.68-6.89,8.32-4.61,2.35-10.02,3.13-15.15,3.26-2.42.06-5.13.1-7.78-.18-1.24.02-2.48.04-3.73,0,2.23.67,4.6.94,6.93,1.05,4.44.2,8.96.03,13.31-.87,6.22-1.3,15.82-5.36,14.99-13.25-.03-.23-.11-.44-.15-.67,4.64,2.87,10.13,5.5,11.65,11.15.15.54.21,1.09.25,1.63-.12.18-.12.38.04.58.02.96-.1,1.92-.31,2.87-.04,2.72-.9,5.24-2.27,7.53.89-.77,1.68-1.66,2.35-2.55,1.26-1.67,2.05-3.65,2.37-5.71,2.62,3.07,3.61,6.94,2.43,11.13-1.33,4.73-4.79,8.89-8.78,11.68Z"/>
        <path class="cls-15" d="M837.96,854.66c-7.33,6.97-18.98,7.89-28.64,7.02-5.34-.49-10.62-1.59-15.69-3.32-7.99-2.74-15.82-6.38-22.53-11.57-2.78-2.15-5.56-4.57-7.96-7.23-1.8-1.63-3.46-3.43-5.06-5.33-.29-.35-.59-.7-.89-1.06.39,1.16.84,2.3,1.46,3.36,2.18,3.7,5.32,6.76,8.49,9.59,6.6,5.89,14.67,9.89,22.91,12.95,11.27,4.18,24.38,6.32,36.22,3.35,1.83-.46,3.61-1.08,5.32-1.83,2.45-1.58,4.72-3.56,6.36-5.93Z"/>
      </g>
      <g>
        <g>
          <path class="cls-41" d="M1059.59,688.95c-.05-2.66-.03-5.34-.1-8-.04-1.38-.06-2.79-.31-4.16-.04-.19-.09-.46-.16-.71-.19-.4-.39-.79-.61-1.18-.9-.45-1.94-.63-2.93-.75-1.35-.16-2.71-.18-4.07-.26-3.93-.25-7.86-1.07-11.73-1.76-4.04-.72-8.07-1.44-12.08-2.31-3.97-.86-7.95-1.82-11.98-2.36-2.3-.3-4.64-.33-6.92-.75-.51-.09-1.05-.26-1.59-.38.1-.04.2-.09.3-.13-.78-.11-1.55-.19-2.34-.22-4.64,2.04-9.27,4.14-13.92,6.16-6.76,2.94-13.56,5.82-20.38,8.62-3.5,1.44-7.03,2.82-10.5,4.34-1.73.76-3.45,1.56-5.14,2.42-.71.36-1.4.74-2.08,1.14-.1-.03-.24,0-.31.08-.05.05-.08.11-.12.17-.2.11-.4.24-.46.48-.03.11,0,.21.03.3-.45,1.23-.06,2.68.02,4.01.03.5.04,1,.04,1.51-.09,1.82-.19,3.64-.23,5.47-.08,3.32-.11,6.64-.1,9.95.02,6.54.18,13.07.54,19.6.15,2.81.44,5.61.57,8.41.09,1.83.12,3.67.36,5.5.18,1.41.38,2.73,1.78,3.37,1.77.82,3.93.79,5.84.89,2.53.14,4.94.72,7.41,1.27,3.2.71,6.4,1.44,9.59,2.2,6.33,1.5,12.6,3.16,18.89,4.81,1.94.5,6.67,3.06,8.53,1.26.21-.04,2.79-1.26,3.81-1.74,2.2-1.03,4.35-2.12,6.57-3.11,6.82-3.03,13.59-6.16,20.42-9.17,6.89-3.03,13.87-5.86,20.84-8.7.66-.27,1.31-.53,1.97-.8.08-.71.19-1.42.35-2.12-.02-.41-.09-.83-.12-1.22-.11-1.32-.07-2.65-.08-3.98-.02-2.51-.15-5.01-.16-7.52-.03-5.16.16-10.32.35-15.48.18-5.05.31-10.11.23-15.16Z"/>
          <path class="cls-11" d="M953.04,689.42c2.84-1.29,5.64-2.64,8.52-3.84,3.05-1.28,6.15-2.46,9.21-3.71,6.48-2.63,12.93-5.34,19.35-8.1,5.19-2.22,10.33-4.54,15.51-6.8.52.07,1.11.38,1.5.53.82.32,1.67.45,2.54.58,1.85.28,3.72.39,5.58.66,3.84.56,7.62,1.48,11.41,2.3,3.85.84,7.73,1.53,11.61,2.23,3.81.69,7.63,1.34,11.49,1.77,1.4.15,2.81.15,4.21.26.85.06,1.79.15,2.66.39-4.86,2.05-9.69,4.17-14.48,6.39-3.11,1.44-6.23,2.88-9.38,4.24-3.2,1.38-6.46,2.58-9.7,3.83-3.62,1.4-7.19,2.96-10.81,4.36-1.56.61-3.15,1.07-4.74,1.6-.92.31-1.85.7-2.67,1.24-.19.05-.38.11-.57.15-.14.03-.29.05-.44.06-1.34-.54-3.34-.6-4.19-.64-4.75-.26-9.47-1.42-14.14-2.24-5.01-.88-10.07-1.52-15.11-2.21-2.54-.35-5.11-.64-7.63-1.12-.94-.18-1.99-.48-2.97-.72-1.52-.37-3.05-.74-4.6-.91-.54-.06-1.54-.2-2.17.1,0-.02-.01-.05-.02-.07,0-.12.02-.24.03-.35Z"/>
          <path class="cls-23" d="M1005.21,755.63c-.06.41-.12.82-.32,1.11,0,0,0,0,0,.01,0,.07-.03.14-.07.21-.04.07-.09.12-.15.15-.06.05-.12.08-.2.1-.22.05-.45.04-.67-.02-.06-.02-.12-.05-.18-.07-.67-.02-1.35-.17-1.97-.32-.9-.22-1.78-.51-2.67-.79-2.51-.81-5.13-1.34-7.69-1.97-3.06-.75-6.12-1.49-9.18-2.23-3.06-.74-6.12-1.46-9.19-2.16-2.96-.67-5.93-1.44-8.92-1.95-1.86-.32-3.77-.23-5.64-.44-.91-.1-1.86-.23-2.71-.59-.65-.28-.94-.63-1.11-1.3-.43-1.73-.41-3.59-.45-5.36-.05-2.16-.2-4.3-.34-6.45-.8-11.96-.87-23.93-.95-35.91.16-1.19.32-2.39.42-3.59.07-.89.04-1.74-.09-2.62-.05-.35-.1-.71-.12-1.06.19-.1.63,0,.79.01.51.06,1.03.15,1.53.26,1.3.27,2.58.61,3.86.95.96.25,1.92.55,2.89.74,2.07.41,4.18.66,6.27.96,4.76.68,9.54,1.28,14.29,2.04,4.69.75,9.33,1.77,14.04,2.39,1.57.21,3.16.25,4.73.46,1.04.14,2.53.4,2.58,1.71,0,.1.03.17.07.22-.18,5.48-.1,10.97.15,16.44.15,3.16.37,6.31.38,9.48,0,3.16-.06,6.32-.04,9.48.02,3.14.23,6.26.44,9.39.18,2.61.2,5.21.32,7.82.04.95.02,1.94-.11,2.89Z"/>
          <path class="cls-41" d="M1058.02,688.65c.12,9.8-.59,19.58-.63,29.38,0,2.73.08,5.46.15,8.19.04,1.39.01,2.78.06,4.17.02.55.05,1.09.11,1.63.05.49.18,1.08-.03,1.54-.02.05-.02.1-.02.15-6.15,2.51-12.3,5.03-18.39,7.68-6.76,2.94-13.45,6.05-20.15,9.12-2.85,1.3-5.72,2.53-8.49,3.99-1.15.61-2.31,1.22-3.5,1.73-.33.14-.73.34-1.15.51.04-.1.09-.2.12-.31.42-1.69.04-3.53-.02-5.25-.11-3.2-.34-6.38-.54-9.58-.41-6.61.55-13.23.3-19.85-.12-3.25-.33-6.49-.42-9.74-.08-3.29-.08-6.59-.09-9.88,0-.99,0-1.97,0-2.96.65-.72,1.7-1.08,2.51-1.56.7-.41,1.38-.87,2.12-1.22.12-.06.24-.11.36-.16.56-.17,1.11-.35,1.67-.55,3.22-1.17,6.38-2.51,9.57-3.77,3.2-1.26,6.45-2.4,9.63-3.73,3.17-1.32,6.29-2.73,9.4-4.17,5.74-2.65,11.49-5.25,17.33-7.68.07.45.1.91.11,1.37.04,1.24.06,2.47.04,3.71-.04,2.41-.06,4.82-.03,7.23Z"/>
          <path class="cls-17" d="M1059.17,727.11c-.02-2.51-.15-5.01-.16-7.52-.03-5.16.16-10.32.35-15.48.18-5.05.31-10.11.23-15.16-.05-2.66-.03-5.34-.1-8-.04-1.38-.06-2.79-.31-4.16-.04-.19-.09-.46-.16-.71-.19-.4-.39-.79-.61-1.18-.9-.45-1.94-.63-2.93-.75-1.35-.16-2.71-.18-4.07-.26-3.93-.25-7.86-1.07-11.73-1.76-4.04-.72-8.07-1.44-12.08-2.31-3.97-.86-7.95-1.82-11.98-2.36-1.45-.19-2.91-.28-4.37-.42.81.42,1.61.84,2.4,1.26,3.02,1.59,6.28,2.9,9.05,4.91,1.71,1.25,3.49,3.09,2.34,5.31-1.03,1.99-3.4,3.26-5.31,4.24-2.4,1.25-4.94,2.24-7.48,3.16-2.52.91-5.06,1.85-7.65,2.56-8.78,2.43-18.03,2.76-27.09,2.29-7.54-.4-15.24.2-22.76-.75.97.74,2.04,1.37,3.14,1.91,2.68,1.32,5.58,2.18,8.46,2.91,4.82,1.21,9.73,2.12,14.57,3.25,2.88.67,5.88,1.5,8.37,3.15,2.55,1.69,3.91,4.14,4.36,7.14.46,3.08.11,6.18.04,9.28-.08,4.04.04,8.1.12,12.14.09,4.17.24,8.33.3,12.5.06,3.51.63,7.08-.03,10.56-.07.35-.48.53-.8.45-3.44-.87-6.93-1.54-10.45-2.01-3.88-.52-7.78-.8-11.69-.97,2.28.51,4.55,1.03,6.83,1.57,6.33,1.5,12.6,3.16,18.89,4.81,1.94.5,6.67,3.06,8.53,1.26.21-.04,2.79-1.26,3.81-1.74,2.2-1.03,4.35-2.12,6.57-3.11,6.82-3.03,13.59-6.16,20.42-9.17,6.89-3.03,13.87-5.86,20.84-8.7.66-.27,1.31-.53,1.97-.8.08-.71.19-1.42.35-2.12-.02-.41-.09-.83-.12-1.22-.11-1.32-.07-2.65-.08-3.98Z"/>
          <path class="cls-17" d="M1059.17,727.11c-.02-2.51-.15-5.01-.16-7.52-.03-5.16.16-10.32.35-15.48.18-5.05.31-10.11.23-15.16-.05-2.66-.03-5.34-.1-8-.04-1.38-.06-2.79-.31-4.16-.04-.19-.09-.46-.16-.71-.19-.4-.39-.79-.61-1.18-.9-.45-1.94-.63-2.93-.75-1.35-.16-2.71-.18-4.07-.26-.64-.04-1.29-.12-1.94-.19-.76.68-1.54,1.33-2.35,1.94-5.25,3.96-11.24,6.78-17.01,9.87-4.15,2.22-8.04,4.97-12.15,7.26,4.83-1.56,9.55-3.44,14.34-5.12,2.57-.9,5.25-1.56,7.78-2.55,2-.78,4.17-1.95,6.37-1.91,1.16.02,2.73,0,2.63,1.53-.06.99,0,1.96-.01,2.96,0,1.47-.17,2.95-.36,4.41-.39,2.91-.99,5.79-1.15,8.73-.18,3.38-.2,6.77-.29,10.15-.09,3.22-.11,6.41-.04,9.62.07,3.25.1,6.53-.28,9.76-.16,1.36-.39,2.73-.85,4.02-.43,1.21-.94,2.07-1.98,2.83-1.94,1.4-4.3,2.17-6.41,3.27-2.99,1.56-5.99,3.08-9.03,4.54-2.15,1.03-4.32,2-6.43,3.09-1.82.94-3.66,1.87-5.58,2.6-1.69.64-3.58,1.23-5.41,1-3.98-.51-4.31-5.69-4.69-8.82-.23-1.91-.43-3.8-.71-5.7-.33-2.2-.49-4.47-1.07-6.62-.3,2.07-.36,4.18-.34,6.28.05,4.72.62,9.44.17,14.16-.21,2.15-.48,4.3-.59,6.46-.02.36-.03.73-.04,1.09.56-.06,1.06-.24,1.44-.61.21-.04,2.79-1.26,3.81-1.74,2.2-1.03,4.35-2.12,6.57-3.11,6.82-3.03,13.59-6.16,20.42-9.17,6.89-3.03,13.87-5.86,20.84-8.7.66-.27,1.31-.53,1.97-.8.08-.71.19-1.42.35-2.12-.02-.41-.09-.83-.12-1.22-.11-1.32-.07-2.65-.08-3.98Z"/>
        </g>
        <g>
          <path class="cls-41" d="M1118.09,701.55c-.05-2.66-.04-5.34-.11-8-.04-1.38-.06-2.79-.31-4.16-.04-.19-.09-.45-.16-.71-.19-.4-.39-.79-.61-1.18-.9-.45-1.94-.63-2.93-.75-1.35-.16-2.71-.18-4.07-.26-3.93-.25-7.86-1.07-11.73-1.76-4.04-.72-8.07-1.44-12.08-2.31-3.97-.86-7.95-1.82-11.98-2.36-2.3-.3-4.64-.33-6.92-.75-.51-.09-1.05-.26-1.59-.37.1-.04.2-.09.3-.13-.78-.11-1.56-.19-2.34-.22-4.65,2.04-9.27,4.14-13.92,6.16-6.76,2.94-13.56,5.82-20.38,8.62-3.5,1.44-7.03,2.82-10.5,4.34-1.73.76-3.45,1.56-5.14,2.42-.71.36-1.4.74-2.08,1.14-.1-.03-.24,0-.32.08-.05.05-.08.11-.12.17-.2.11-.4.24-.46.48-.03.11,0,.21.03.3-.45,1.23-.06,2.68.02,4.01.03.5.04,1,.04,1.51-.09,1.82-.19,3.64-.23,5.47-.08,3.32-.11,6.64-.1,9.95.02,6.54.18,13.07.54,19.6.15,2.81.44,5.61.57,8.41.09,1.83.12,3.67.36,5.5.18,1.41.38,2.73,1.78,3.37,1.77.82,3.93.78,5.84.89,2.53.14,4.94.72,7.41,1.27,3.2.71,6.4,1.44,9.59,2.2,6.33,1.5,12.6,3.16,18.9,4.81,1.94.51,6.67,3.07,8.53,1.26.21-.04,2.78-1.26,3.81-1.74,2.2-1.03,4.35-2.12,6.57-3.11,6.82-3.03,13.59-6.16,20.42-9.17,6.89-3.03,13.87-5.86,20.84-8.7.66-.27,1.31-.53,1.97-.8.08-.71.19-1.42.35-2.12-.02-.41-.09-.83-.12-1.22-.11-1.32-.07-2.65-.08-3.98-.02-2.51-.15-5.01-.16-7.52-.03-5.16.17-10.32.35-15.48.18-5.05.31-10.11.23-15.16Z"/>
          <path class="cls-11" d="M1011.54,702.03c2.84-1.29,5.64-2.64,8.52-3.84,3.05-1.28,6.14-2.47,9.21-3.71,6.48-2.63,12.93-5.34,19.35-8.09,5.19-2.22,10.33-4.54,15.51-6.8.52.07,1.11.38,1.5.53.81.32,1.67.45,2.53.58,1.85.28,3.72.39,5.58.66,3.83.56,7.62,1.48,11.41,2.3,3.85.84,7.73,1.53,11.61,2.23,3.81.69,7.64,1.34,11.49,1.77,1.4.16,2.8.16,4.2.26.85.06,1.79.15,2.66.39-4.86,2.05-9.69,4.17-14.48,6.39-3.11,1.44-6.23,2.88-9.38,4.24-3.2,1.38-6.46,2.58-9.7,3.83-3.62,1.4-7.19,2.96-10.81,4.36-1.56.61-3.15,1.07-4.74,1.6-.92.31-1.85.7-2.67,1.24-.19.05-.38.11-.57.15-.14.03-.29.05-.44.06-1.34-.54-3.34-.6-4.19-.64-4.75-.26-9.47-1.41-14.14-2.23-5.01-.88-10.07-1.52-15.11-2.21-2.54-.35-5.11-.64-7.63-1.12-.94-.17-1.99-.48-2.97-.72-1.52-.37-3.05-.73-4.6-.91-.54-.06-1.55-.2-2.17.1,0-.03-.01-.05-.02-.07,0-.12.02-.24.04-.35Z"/>
          <path class="cls-23" d="M1063.71,768.23c-.06.41-.12.82-.32,1.11,0,0,0,0,0,.01,0,.07-.03.15-.07.21-.04.07-.09.12-.15.16-.06.05-.12.08-.2.1-.23.05-.45.04-.67-.01-.06-.02-.12-.05-.18-.08-.67-.02-1.35-.17-1.97-.32-.9-.22-1.78-.51-2.67-.79-2.51-.81-5.13-1.34-7.69-1.97-3.06-.75-6.12-1.48-9.18-2.22-3.06-.74-6.12-1.46-9.19-2.16-2.96-.67-5.93-1.44-8.92-1.95-1.86-.32-3.77-.23-5.64-.44-.91-.1-1.86-.23-2.71-.59-.65-.28-.94-.63-1.11-1.3-.43-1.73-.41-3.59-.45-5.36-.05-2.16-.2-4.3-.34-6.45-.8-11.96-.87-23.93-.95-35.91.16-1.19.32-2.39.42-3.59.07-.89.04-1.74-.09-2.62-.05-.35-.1-.71-.12-1.06.19-.1.63,0,.79.01.52.06,1.03.15,1.54.26,1.29.27,2.58.61,3.86.95.96.26,1.92.55,2.89.74,2.07.42,4.18.66,6.27.96,4.76.68,9.54,1.28,14.29,2.04,4.69.75,9.33,1.77,14.04,2.39,1.57.21,3.16.24,4.73.46,1.04.14,2.53.4,2.58,1.71,0,.1.03.17.07.22-.18,5.48-.1,10.97.15,16.45.15,3.16.37,6.31.38,9.48,0,3.16-.06,6.32-.04,9.48.02,3.14.23,6.26.45,9.39.18,2.61.2,5.21.32,7.82.04.95.02,1.94-.11,2.89Z"/>
          <path class="cls-41" d="M1116.52,701.25c.12,9.8-.59,19.58-.63,29.38,0,2.73.08,5.46.15,8.19.04,1.39.01,2.78.06,4.17.02.55.05,1.09.11,1.63.05.49.18,1.08-.03,1.54-.02.05-.02.1-.02.15-6.15,2.51-12.3,5.03-18.39,7.68-6.76,2.94-13.45,6.05-20.16,9.12-2.85,1.3-5.72,2.53-8.49,3.99-1.15.61-2.31,1.22-3.5,1.73-.33.14-.73.33-1.15.5.04-.1.09-.19.12-.31.42-1.69.04-3.53-.02-5.25-.11-3.2-.34-6.38-.54-9.58-.41-6.61.54-13.23.3-19.86-.12-3.25-.33-6.49-.42-9.74-.08-3.3-.08-6.59-.09-9.88,0-.99,0-1.97,0-2.96.65-.72,1.7-1.08,2.51-1.56.7-.41,1.38-.87,2.12-1.22.12-.06.24-.11.36-.16.56-.17,1.11-.35,1.67-.55,3.22-1.17,6.38-2.51,9.57-3.76,3.2-1.26,6.45-2.4,9.63-3.73,3.16-1.32,6.29-2.73,9.4-4.17,5.74-2.65,11.49-5.25,17.33-7.68.07.45.1.91.11,1.37.04,1.24.06,2.47.04,3.71-.04,2.41-.06,4.82-.03,7.23Z"/>
          <path class="cls-17" d="M1117.68,739.71c-.02-2.51-.15-5.01-.16-7.52-.03-5.16.17-10.32.35-15.48.18-5.05.31-10.11.23-15.16-.05-2.66-.04-5.34-.11-8-.04-1.38-.06-2.79-.31-4.16-.04-.19-.09-.45-.16-.71-.19-.4-.39-.79-.61-1.18-.9-.45-1.94-.63-2.93-.75-1.35-.16-2.71-.18-4.07-.26-3.93-.25-7.86-1.07-11.73-1.76-4.04-.72-8.07-1.44-12.08-2.31-3.97-.86-7.95-1.82-11.98-2.36-1.45-.19-2.91-.28-4.37-.42.81.42,1.61.84,2.4,1.26,3.02,1.59,6.28,2.89,9.04,4.91,1.71,1.25,3.49,3.1,2.34,5.31-1.03,1.99-3.4,3.26-5.31,4.24-2.4,1.25-4.94,2.24-7.48,3.16-2.52.91-5.06,1.84-7.64,2.56-8.78,2.43-18.04,2.76-27.09,2.29-7.54-.4-15.24.2-22.76-.75.97.74,2.05,1.37,3.14,1.91,2.68,1.32,5.58,2.18,8.47,2.91,4.82,1.21,9.73,2.12,14.57,3.25,2.88.67,5.87,1.5,8.37,3.15,2.55,1.69,3.91,4.14,4.36,7.14.46,3.08.11,6.18.04,9.28-.08,4.04.04,8.1.12,12.14.09,4.17.24,8.33.3,12.5.06,3.51.63,7.08-.03,10.56-.07.35-.48.53-.8.45-3.44-.87-6.93-1.54-10.45-2.01-3.88-.52-7.78-.8-11.69-.98,2.28.51,4.55,1.03,6.83,1.57,6.33,1.5,12.6,3.16,18.9,4.81,1.94.51,6.67,3.07,8.53,1.26.21-.04,2.78-1.26,3.81-1.74,2.2-1.03,4.35-2.12,6.57-3.11,6.82-3.03,13.59-6.16,20.42-9.17,6.89-3.03,13.87-5.86,20.84-8.7.66-.27,1.31-.53,1.97-.8.08-.71.19-1.42.35-2.12-.02-.41-.09-.83-.12-1.22-.11-1.32-.07-2.65-.08-3.98Z"/>
          <path class="cls-17" d="M1117.68,739.71c-.02-2.51-.15-5.01-.16-7.52-.03-5.16.17-10.32.35-15.48.18-5.05.31-10.11.23-15.16-.05-2.66-.04-5.34-.11-8-.04-1.38-.06-2.79-.31-4.16-.04-.19-.09-.45-.16-.71-.19-.4-.39-.79-.61-1.18-.9-.45-1.94-.63-2.93-.75-1.35-.16-2.71-.18-4.07-.26-.65-.04-1.29-.12-1.94-.18-.76.67-1.54,1.32-2.35,1.94-5.25,3.96-11.24,6.78-17.01,9.87-4.15,2.22-8.04,4.97-12.15,7.26,4.83-1.56,9.55-3.44,14.33-5.12,2.57-.91,5.25-1.56,7.78-2.55,1.99-.78,4.17-1.95,6.37-1.91,1.17.02,2.73,0,2.63,1.53-.06.99,0,1.96-.01,2.96-.01,1.48-.17,2.95-.36,4.41-.39,2.91-.99,5.79-1.15,8.73-.18,3.38-.2,6.77-.29,10.15-.09,3.22-.11,6.41-.04,9.62.07,3.25.1,6.53-.28,9.76-.16,1.36-.39,2.73-.85,4.03-.43,1.21-.94,2.07-1.98,2.83-1.94,1.4-4.3,2.17-6.41,3.27-2.99,1.56-5.99,3.08-9.03,4.54-2.15,1.03-4.32,2-6.43,3.09-1.82.94-3.66,1.87-5.58,2.6-1.69.64-3.59,1.23-5.41,1-3.98-.51-4.31-5.69-4.69-8.82-.23-1.9-.43-3.8-.71-5.7-.32-2.2-.49-4.47-1.07-6.62-.3,2.08-.36,4.18-.34,6.28.05,4.72.62,9.44.17,14.16-.21,2.15-.48,4.3-.59,6.46-.02.36-.03.73-.04,1.09.56-.06,1.06-.24,1.44-.6.21-.04,2.78-1.26,3.81-1.74,2.2-1.03,4.35-2.12,6.57-3.11,6.82-3.03,13.59-6.16,20.42-9.17,6.89-3.03,13.87-5.86,20.84-8.7.66-.27,1.31-.53,1.97-.8.08-.71.19-1.42.35-2.12-.02-.41-.09-.83-.12-1.22-.11-1.32-.07-2.65-.08-3.98Z"/>
        </g>
        <g>
          <path class="cls-41" d="M1093.15,634.99c-.04-2.67-.03-5.34-.1-8-.04-1.38-.06-2.79-.31-4.16-.04-.19-.09-.46-.16-.71-.19-.4-.39-.79-.61-1.18-.9-.45-1.94-.63-2.93-.75-1.35-.16-2.71-.18-4.07-.26-3.93-.25-7.86-1.07-11.73-1.76-4.04-.72-8.07-1.44-12.08-2.31-3.97-.86-7.95-1.82-11.98-2.36-2.3-.31-4.64-.33-6.92-.75-.51-.09-1.05-.26-1.59-.37.1-.04.2-.09.3-.13-.78-.11-1.55-.19-2.34-.22-4.64,2.04-9.27,4.14-13.92,6.16-6.76,2.94-13.56,5.82-20.38,8.62-3.5,1.44-7.03,2.82-10.5,4.35-1.73.76-3.45,1.56-5.13,2.42-.71.36-1.4.73-2.08,1.14-.1-.03-.24,0-.32.08-.05.05-.08.11-.12.17-.2.12-.4.24-.46.48-.03.11,0,.21.03.3-.45,1.23-.06,2.68.02,4.01.03.5.04,1,.04,1.51-.09,1.82-.19,3.64-.24,5.47-.08,3.32-.11,6.64-.1,9.95.02,6.54.18,13.07.54,19.6.15,2.81.44,5.61.57,8.41.09,1.83.13,3.67.36,5.5.18,1.41.38,2.73,1.78,3.37,1.77.82,3.93.78,5.84.89,2.53.13,4.94.72,7.41,1.27,3.2.71,6.4,1.44,9.59,2.2,6.33,1.5,12.6,3.17,18.89,4.81,1.94.51,6.67,3.07,8.53,1.26.21-.04,2.79-1.26,3.81-1.74,2.2-1.03,4.35-2.12,6.57-3.11,6.82-3.03,13.59-6.17,20.42-9.17,6.89-3.03,13.87-5.86,20.84-8.7.66-.27,1.31-.53,1.97-.8.08-.71.19-1.42.34-2.12-.02-.41-.09-.83-.12-1.22-.11-1.32-.07-2.65-.08-3.98-.02-2.51-.15-5.01-.16-7.52-.03-5.16.17-10.32.35-15.48.18-5.05.31-10.11.23-15.16Z"/>
          <path class="cls-11" d="M986.61,635.46c2.84-1.3,5.64-2.64,8.52-3.84,3.05-1.28,6.15-2.46,9.21-3.71,6.48-2.63,12.93-5.34,19.35-8.09,5.19-2.23,10.33-4.54,15.51-6.8.52.07,1.11.38,1.5.53.82.32,1.67.45,2.54.58,1.85.28,3.72.39,5.58.66,3.84.56,7.62,1.48,11.41,2.3,3.85.84,7.73,1.53,11.6,2.23,3.81.69,7.64,1.34,11.49,1.77,1.4.15,2.81.15,4.21.26.85.06,1.79.15,2.66.39-4.86,2.05-9.69,4.16-14.48,6.39-3.11,1.44-6.23,2.88-9.38,4.24-3.2,1.38-6.46,2.57-9.7,3.83-3.62,1.4-7.19,2.96-10.81,4.36-1.56.61-3.15,1.07-4.74,1.6-.92.31-1.85.7-2.67,1.24-.19.05-.38.11-.57.15-.14.03-.29.05-.44.06-1.34-.54-3.34-.6-4.19-.64-4.75-.26-9.47-1.42-14.14-2.24-5.01-.88-10.07-1.52-15.11-2.21-2.54-.35-5.11-.64-7.63-1.12-.94-.17-1.99-.48-2.97-.72-1.52-.37-3.05-.73-4.6-.91-.54-.06-1.55-.2-2.17.1,0-.02-.01-.05-.02-.07,0-.12.02-.23.04-.35Z"/>
          <path class="cls-23" d="M1038.77,701.67c-.06.41-.12.82-.32,1.11,0,0,0,0,0,0,0,.08-.03.15-.07.21-.04.06-.09.12-.15.15-.06.05-.12.08-.2.1-.22.05-.45.05-.67-.01-.06-.02-.12-.05-.18-.07-.67-.02-1.35-.17-1.97-.32-.9-.22-1.78-.51-2.67-.8-2.51-.81-5.13-1.34-7.69-1.97-3.06-.75-6.12-1.49-9.18-2.23-3.06-.74-6.12-1.46-9.18-2.16-2.96-.67-5.93-1.44-8.92-1.95-1.86-.32-3.77-.23-5.64-.44-.91-.1-1.86-.23-2.71-.59-.65-.28-.94-.63-1.11-1.3-.43-1.73-.41-3.59-.45-5.36-.05-2.16-.2-4.3-.34-6.45-.81-11.96-.87-23.93-.95-35.91.16-1.2.32-2.39.42-3.59.07-.89.04-1.74-.09-2.62-.05-.35-.1-.71-.12-1.06.19-.1.63,0,.79.01.52.06,1.03.15,1.54.26,1.3.27,2.58.61,3.86.95.96.26,1.92.55,2.89.74,2.07.41,4.18.66,6.27.96,4.76.68,9.54,1.28,14.29,2.04,4.69.75,9.33,1.77,14.04,2.39,1.57.21,3.16.24,4.73.46,1.04.14,2.53.4,2.58,1.71,0,.1.03.17.07.22-.18,5.48-.1,10.97.15,16.45.14,3.16.37,6.31.38,9.48,0,3.16-.06,6.32-.04,9.48.02,3.14.23,6.26.45,9.39.18,2.61.2,5.21.32,7.82.04.95.02,1.94-.1,2.89Z"/>
          <path class="cls-41" d="M1091.58,634.69c.12,9.8-.59,19.58-.63,29.38,0,2.73.08,5.46.15,8.19.04,1.39.01,2.78.06,4.17.02.55.05,1.09.11,1.63.05.49.18,1.08-.03,1.55-.02.05-.02.1-.02.15-6.15,2.51-12.3,5.03-18.39,7.68-6.76,2.94-13.45,6.06-20.15,9.12-2.85,1.3-5.72,2.53-8.49,3.99-1.15.61-2.31,1.21-3.5,1.73-.33.14-.73.34-1.15.51.04-.11.09-.19.12-.31.42-1.69.04-3.53-.02-5.25-.11-3.2-.34-6.38-.54-9.58-.41-6.61.54-13.24.29-19.86-.12-3.25-.33-6.49-.42-9.74-.08-3.29-.08-6.59-.09-9.88,0-.99,0-1.97,0-2.96.65-.72,1.7-1.08,2.51-1.55.7-.41,1.38-.87,2.12-1.22.12-.06.24-.11.36-.16.56-.17,1.11-.35,1.67-.55,3.22-1.17,6.38-2.51,9.57-3.76,3.2-1.26,6.45-2.4,9.63-3.73,3.17-1.32,6.29-2.74,9.4-4.17,5.74-2.65,11.49-5.25,17.33-7.68.07.45.1.91.12,1.37.04,1.24.06,2.47.04,3.71-.04,2.41-.06,4.82-.03,7.23Z"/>
          <path class="cls-17" d="M1092.74,673.15c-.02-2.51-.15-5.01-.16-7.52-.03-5.16.17-10.32.35-15.48.18-5.05.31-10.11.23-15.16-.04-2.67-.03-5.34-.1-8-.04-1.38-.06-2.79-.31-4.16-.04-.19-.09-.46-.16-.71-.19-.4-.39-.79-.61-1.18-.9-.45-1.94-.63-2.93-.75-1.35-.16-2.71-.18-4.07-.26-3.93-.25-7.86-1.07-11.73-1.76-4.04-.72-8.07-1.44-12.08-2.31-3.97-.86-7.95-1.82-11.98-2.36-1.45-.19-2.91-.28-4.37-.42.81.42,1.6.84,2.4,1.26,3.02,1.59,6.28,2.89,9.04,4.91,1.71,1.25,3.49,3.09,2.34,5.31-1.03,1.99-3.4,3.26-5.3,4.24-2.4,1.25-4.94,2.24-7.48,3.16-2.53.91-5.06,1.84-7.65,2.56-8.78,2.43-18.03,2.76-27.09,2.28-7.54-.39-15.24.2-22.76-.75.97.74,2.04,1.37,3.14,1.91,2.68,1.32,5.58,2.18,8.47,2.91,4.82,1.21,9.72,2.12,14.57,3.25,2.88.67,5.87,1.5,8.37,3.15,2.55,1.68,3.91,4.14,4.36,7.14.46,3.08.11,6.18.04,9.27-.08,4.04.04,8.1.12,12.14.08,4.17.24,8.33.3,12.5.05,3.52.63,7.08-.03,10.56-.07.35-.48.53-.8.45-3.44-.88-6.93-1.54-10.45-2.01-3.88-.52-7.78-.8-11.69-.98,2.28.51,4.55,1.03,6.83,1.57,6.33,1.5,12.6,3.17,18.89,4.81,1.94.51,6.67,3.07,8.53,1.26.21-.04,2.79-1.26,3.81-1.74,2.2-1.03,4.35-2.12,6.57-3.11,6.82-3.03,13.59-6.17,20.42-9.17,6.89-3.03,13.87-5.86,20.84-8.7.66-.27,1.31-.53,1.97-.8.08-.71.19-1.42.34-2.12-.02-.41-.09-.83-.12-1.22-.11-1.32-.07-2.65-.08-3.98Z"/>
          <path class="cls-17" d="M1092.74,673.15c-.02-2.51-.15-5.01-.16-7.52-.03-5.16.17-10.32.35-15.48.18-5.05.31-10.11.23-15.16-.04-2.67-.03-5.34-.1-8-.04-1.38-.06-2.79-.31-4.16-.04-.19-.09-.46-.16-.71-.19-.4-.39-.79-.61-1.18-.9-.45-1.94-.63-2.93-.75-1.35-.16-2.71-.18-4.07-.26-.64-.04-1.29-.12-1.94-.18-.76.67-1.54,1.32-2.35,1.94-5.25,3.96-11.24,6.78-17.01,9.87-4.15,2.22-8.04,4.97-12.15,7.26,4.83-1.56,9.55-3.44,14.34-5.12,2.57-.91,5.25-1.56,7.78-2.55,2-.78,4.17-1.95,6.37-1.91,1.17.02,2.73,0,2.64,1.53-.06.99,0,1.96-.01,2.96,0,1.48-.17,2.95-.36,4.41-.39,2.91-.99,5.79-1.15,8.73-.18,3.38-.2,6.77-.29,10.15-.09,3.22-.11,6.4-.04,9.62.07,3.25.1,6.53-.28,9.76-.16,1.36-.39,2.73-.85,4.03-.43,1.21-.94,2.07-1.98,2.83-1.94,1.39-4.3,2.17-6.41,3.27-2.99,1.56-5.99,3.08-9.03,4.53-2.15,1.03-4.32,1.99-6.44,3.09-1.82.94-3.66,1.87-5.58,2.6-1.69.64-3.58,1.23-5.41,1-3.98-.51-4.31-5.69-4.69-8.82-.23-1.9-.43-3.8-.71-5.7-.32-2.2-.49-4.47-1.07-6.62-.3,2.08-.36,4.18-.34,6.28.05,4.72.62,9.44.17,14.16-.21,2.15-.48,4.29-.59,6.46-.02.36-.03.73-.04,1.09.56-.06,1.06-.24,1.44-.61.21-.04,2.79-1.26,3.81-1.74,2.2-1.03,4.35-2.12,6.57-3.11,6.82-3.03,13.59-6.17,20.42-9.17,6.89-3.03,13.87-5.86,20.84-8.7.66-.27,1.31-.53,1.97-.8.08-.71.19-1.42.34-2.12-.02-.41-.09-.83-.12-1.22-.11-1.32-.07-2.65-.08-3.98Z"/>
        </g>
        <g>
          <path class="cls-41" d="M1184.96,716.89c-.04-2.67-.03-5.34-.1-8-.04-1.39-.06-2.79-.31-4.16-.04-.19-.09-.45-.16-.71-.19-.4-.39-.79-.61-1.18-.9-.45-1.94-.63-2.93-.75-1.35-.16-2.71-.18-4.07-.26-3.93-.25-7.86-1.07-11.73-1.76-4.04-.72-8.07-1.44-12.08-2.31-3.97-.86-7.95-1.82-11.98-2.36-2.3-.3-4.64-.33-6.92-.75-.51-.09-1.05-.26-1.59-.37.1-.04.2-.09.3-.13-.77-.11-1.55-.19-2.33-.22-4.65,2.04-9.27,4.14-13.92,6.16-6.76,2.94-13.56,5.82-20.38,8.62-3.5,1.44-7.03,2.82-10.5,4.34-1.73.76-3.45,1.56-5.13,2.42-.71.36-1.4.74-2.08,1.14-.1-.03-.24,0-.32.08-.05.05-.08.11-.12.17-.2.12-.4.24-.46.48-.03.11,0,.21.03.3-.45,1.23-.06,2.68.02,4,.03.5.04,1,.04,1.51-.09,1.82-.19,3.64-.23,5.47-.08,3.32-.11,6.64-.1,9.95.02,6.54.18,13.07.54,19.6.15,2.81.44,5.61.57,8.41.09,1.83.12,3.67.36,5.5.18,1.41.38,2.73,1.78,3.37,1.77.82,3.93.78,5.84.89,2.53.13,4.94.72,7.41,1.27,3.2.71,6.4,1.44,9.59,2.2,6.33,1.5,12.61,3.16,18.9,4.81,1.94.51,6.67,3.07,8.53,1.26.22-.04,2.79-1.26,3.81-1.74,2.2-1.03,4.35-2.12,6.57-3.11,6.82-3.03,13.59-6.17,20.41-9.17,6.89-3.03,13.87-5.86,20.84-8.7.66-.27,1.31-.53,1.97-.8.08-.71.19-1.42.35-2.12-.02-.42-.09-.83-.12-1.22-.11-1.32-.07-2.65-.08-3.98-.02-2.51-.15-5.01-.16-7.52-.03-5.16.17-10.32.35-15.48.18-5.05.31-10.11.23-15.16Z"/>
          <path class="cls-11" d="M1078.41,717.37c2.84-1.29,5.64-2.64,8.52-3.84,3.05-1.28,6.14-2.46,9.21-3.71,6.48-2.63,12.93-5.34,19.35-8.1,5.19-2.22,10.34-4.54,15.51-6.8.52.07,1.11.38,1.5.53.82.32,1.67.45,2.54.58,1.85.28,3.72.39,5.58.66,3.84.56,7.62,1.48,11.41,2.3,3.85.84,7.73,1.53,11.61,2.23,3.81.69,7.63,1.34,11.49,1.77,1.39.16,2.8.15,4.2.26.85.06,1.79.15,2.66.39-4.86,2.05-9.69,4.16-14.48,6.39-3.11,1.44-6.23,2.88-9.38,4.24-3.2,1.38-6.46,2.57-9.7,3.83-3.62,1.4-7.19,2.96-10.81,4.36-1.56.61-3.15,1.07-4.74,1.6-.92.31-1.85.7-2.67,1.24-.19.05-.38.11-.57.15-.14.03-.29.05-.44.06-1.34-.54-3.34-.6-4.19-.64-4.75-.26-9.47-1.41-14.14-2.23-5.01-.88-10.06-1.52-15.11-2.21-2.54-.35-5.11-.64-7.63-1.12-.94-.17-2-.48-2.97-.72-1.52-.37-3.05-.74-4.6-.91-.54-.06-1.55-.2-2.17.1,0-.02-.01-.05-.02-.07,0-.12.02-.23.03-.35Z"/>
          <path class="cls-23" d="M1130.58,783.57c-.06.41-.12.82-.32,1.11,0,0,0,0,0,0,0,.08-.03.15-.07.21-.04.06-.09.12-.15.16-.06.05-.12.08-.2.1-.22.05-.45.04-.67-.02-.06-.02-.12-.05-.18-.07-.67-.02-1.35-.17-1.97-.32-.9-.22-1.78-.51-2.67-.8-2.51-.81-5.13-1.34-7.69-1.97-3.06-.75-6.12-1.48-9.18-2.22-3.06-.74-6.12-1.46-9.18-2.16-2.96-.67-5.93-1.44-8.92-1.95-1.85-.32-3.77-.23-5.64-.44-.91-.1-1.86-.23-2.71-.59-.65-.28-.94-.63-1.11-1.3-.43-1.73-.42-3.59-.45-5.36-.05-2.16-.2-4.3-.34-6.45-.81-11.96-.87-23.93-.95-35.91.16-1.2.32-2.39.42-3.59.07-.89.04-1.74-.09-2.62-.05-.35-.1-.71-.12-1.06.19-.1.63,0,.79.01.52.06,1.03.15,1.53.26,1.3.27,2.58.61,3.86.95.96.25,1.92.55,2.89.74,2.07.41,4.18.66,6.27.96,4.76.68,9.54,1.28,14.29,2.04,4.69.75,9.33,1.77,14.04,2.39,1.57.21,3.16.25,4.73.46,1.04.14,2.53.4,2.58,1.71,0,.1.03.17.07.22-.18,5.48-.1,10.97.15,16.45.14,3.16.37,6.31.38,9.48,0,3.16-.06,6.32-.04,9.48.02,3.14.23,6.26.45,9.39.18,2.61.2,5.21.32,7.82.04.95.02,1.94-.11,2.89Z"/>
          <path class="cls-41" d="M1183.39,716.59c.12,9.8-.59,19.58-.62,29.38-.01,2.73.07,5.46.15,8.19.04,1.39.01,2.78.06,4.17.02.55.05,1.09.11,1.63.05.49.18,1.08-.03,1.55-.02.05-.02.1-.02.15-6.15,2.51-12.3,5.03-18.39,7.68-6.76,2.94-13.45,6.06-20.16,9.12-2.85,1.3-5.72,2.53-8.49,3.99-1.15.61-2.31,1.22-3.5,1.73-.33.14-.73.34-1.15.51.04-.11.09-.19.12-.31.42-1.69.04-3.53-.02-5.25-.11-3.2-.34-6.38-.54-9.58-.41-6.61.55-13.24.3-19.86-.12-3.25-.33-6.49-.42-9.74-.08-3.29-.08-6.59-.09-9.88,0-.99,0-1.97-.01-2.96.65-.72,1.7-1.08,2.51-1.55.7-.41,1.38-.87,2.12-1.22.12-.06.24-.11.36-.16.56-.17,1.11-.35,1.67-.55,3.22-1.17,6.38-2.51,9.57-3.76,3.2-1.26,6.45-2.4,9.63-3.73,3.17-1.32,6.29-2.73,9.4-4.17,5.74-2.65,11.49-5.25,17.33-7.68.07.45.1.91.12,1.37.04,1.24.06,2.47.04,3.71-.04,2.41-.06,4.81-.03,7.23Z"/>
          <path class="cls-17" d="M1184.54,755.05c-.02-2.51-.15-5.01-.16-7.52-.03-5.16.17-10.32.35-15.48.18-5.05.31-10.11.23-15.16-.04-2.67-.03-5.34-.1-8-.04-1.39-.06-2.79-.31-4.16-.04-.19-.09-.45-.16-.71-.19-.4-.39-.79-.61-1.18-.9-.45-1.94-.63-2.93-.75-1.35-.16-2.71-.18-4.07-.26-3.93-.25-7.86-1.07-11.73-1.76-4.04-.72-8.07-1.44-12.08-2.31-3.97-.86-7.95-1.82-11.98-2.36-1.45-.19-2.91-.28-4.37-.42.81.42,1.61.84,2.4,1.26,3.02,1.59,6.28,2.89,9.04,4.91,1.71,1.25,3.49,3.09,2.34,5.31-1.03,1.99-3.4,3.26-5.3,4.24-2.4,1.24-4.94,2.24-7.48,3.16-2.52.91-5.06,1.84-7.65,2.56-8.78,2.43-18.03,2.76-27.09,2.28-7.54-.39-15.24.2-22.76-.75.97.74,2.04,1.37,3.14,1.91,2.68,1.32,5.58,2.18,8.47,2.91,4.82,1.21,9.72,2.12,14.57,3.25,2.88.67,5.88,1.5,8.37,3.15,2.55,1.69,3.91,4.14,4.36,7.14.46,3.08.11,6.18.04,9.28-.08,4.04.04,8.1.12,12.14.08,4.17.24,8.33.3,12.5.06,3.51.63,7.08-.03,10.56-.07.35-.48.53-.8.45-3.44-.88-6.93-1.54-10.45-2.01-3.88-.52-7.78-.8-11.69-.97,2.28.52,4.55,1.03,6.83,1.57,6.33,1.5,12.61,3.16,18.9,4.81,1.94.51,6.67,3.07,8.53,1.26.22-.04,2.79-1.26,3.81-1.74,2.2-1.03,4.35-2.12,6.57-3.11,6.82-3.03,13.59-6.17,20.41-9.17,6.89-3.03,13.87-5.86,20.84-8.7.66-.27,1.31-.53,1.97-.8.08-.71.19-1.42.35-2.12-.02-.42-.09-.83-.12-1.22-.11-1.32-.07-2.65-.08-3.98Z"/>
          <path class="cls-17" d="M1184.54,755.05c-.02-2.51-.15-5.01-.16-7.52-.03-5.16.17-10.32.35-15.48.18-5.05.31-10.11.23-15.16-.04-2.67-.03-5.34-.1-8-.04-1.39-.06-2.79-.31-4.16-.04-.19-.09-.45-.16-.71-.19-.4-.39-.79-.61-1.18-.9-.45-1.94-.63-2.93-.75-1.35-.16-2.71-.18-4.07-.26-.64-.04-1.29-.12-1.94-.18-.76.67-1.54,1.32-2.35,1.94-5.25,3.96-11.24,6.78-17.01,9.87-4.15,2.22-8.04,4.97-12.15,7.26,4.83-1.56,9.55-3.43,14.34-5.12,2.57-.91,5.25-1.56,7.78-2.55,2-.78,4.17-1.95,6.37-1.91,1.16.02,2.73,0,2.63,1.53-.06.99,0,1.96-.01,2.96-.01,1.47-.17,2.95-.36,4.41-.39,2.91-.99,5.79-1.15,8.73-.18,3.38-.2,6.77-.29,10.15-.09,3.22-.11,6.41-.04,9.62.07,3.25.1,6.53-.28,9.76-.16,1.36-.39,2.73-.85,4.02-.43,1.21-.94,2.07-1.98,2.83-1.94,1.4-4.3,2.17-6.41,3.27-2.99,1.56-5.99,3.08-9.03,4.53-2.15,1.03-4.32,2-6.43,3.09-1.82.95-3.66,1.87-5.58,2.6-1.69.64-3.59,1.23-5.42,1-3.98-.51-4.31-5.69-4.69-8.82-.23-1.9-.43-3.8-.71-5.7-.33-2.2-.49-4.47-1.07-6.62-.3,2.08-.36,4.18-.34,6.28.05,4.72.62,9.44.16,14.16-.21,2.15-.48,4.3-.59,6.46-.02.36-.03.73-.04,1.09.56-.06,1.06-.24,1.44-.61.22-.04,2.79-1.26,3.81-1.74,2.2-1.03,4.35-2.12,6.57-3.11,6.82-3.03,13.59-6.17,20.41-9.17,6.89-3.03,13.87-5.86,20.84-8.7.66-.27,1.31-.53,1.97-.8.08-.71.19-1.42.35-2.12-.02-.42-.09-.83-.12-1.22-.11-1.32-.07-2.65-.08-3.98Z"/>
        </g>
        <g>
          <path class="cls-41" d="M1163.36,649.39c-.04-2.67-.03-5.34-.1-8-.04-1.38-.06-2.79-.31-4.16-.04-.19-.09-.46-.16-.71-.19-.4-.39-.79-.61-1.18-.9-.45-1.94-.63-2.93-.74-1.35-.16-2.71-.18-4.07-.26-3.93-.25-7.86-1.07-11.73-1.76-4.04-.72-8.07-1.44-12.08-2.31-3.97-.86-7.95-1.82-11.98-2.36-2.3-.3-4.64-.33-6.92-.75-.51-.09-1.05-.26-1.59-.38.1-.04.2-.09.3-.13-.77-.11-1.55-.19-2.33-.22-4.65,2.04-9.27,4.14-13.92,6.16-6.76,2.94-13.56,5.82-20.38,8.62-3.51,1.44-7.03,2.82-10.5,4.34-1.73.76-3.45,1.56-5.14,2.42-.71.36-1.4.74-2.08,1.14-.1-.03-.24,0-.32.08-.05.05-.08.11-.12.17-.2.11-.4.24-.46.48-.03.11,0,.21.03.3-.45,1.24-.06,2.68.02,4.01.03.5.03,1,.04,1.51-.09,1.82-.19,3.65-.23,5.47-.08,3.32-.11,6.64-.1,9.95.02,6.54.18,13.07.54,19.6.15,2.81.44,5.61.57,8.41.09,1.83.12,3.67.36,5.5.18,1.41.38,2.73,1.78,3.37,1.77.82,3.93.78,5.84.89,2.53.13,4.94.72,7.41,1.26,3.2.71,6.39,1.44,9.59,2.2,6.33,1.5,12.6,3.17,18.9,4.81,1.93.51,6.67,3.07,8.53,1.26.21-.04,2.79-1.26,3.81-1.74,2.2-1.03,4.35-2.12,6.57-3.1,6.82-3.03,13.59-6.17,20.42-9.17,6.89-3.03,13.87-5.86,20.84-8.71.66-.27,1.31-.53,1.97-.8.08-.71.19-1.42.35-2.12-.02-.41-.09-.83-.12-1.22-.11-1.32-.07-2.65-.08-3.98-.02-2.51-.15-5.01-.16-7.52-.03-5.16.17-10.32.35-15.48.18-5.05.31-10.11.23-15.16Z"/>
          <path class="cls-11" d="M1056.81,649.86c2.84-1.29,5.64-2.64,8.52-3.84,3.05-1.28,6.15-2.46,9.21-3.71,6.48-2.63,12.93-5.34,19.35-8.1,5.19-2.22,10.33-4.54,15.51-6.8.52.07,1.11.38,1.51.53.81.32,1.67.45,2.53.58,1.85.28,3.72.39,5.58.66,3.84.56,7.63,1.48,11.41,2.3,3.85.84,7.73,1.53,11.61,2.23,3.81.69,7.64,1.34,11.49,1.77,1.4.15,2.8.15,4.2.26.85.06,1.79.15,2.66.4-4.86,2.05-9.69,4.16-14.48,6.39-3.11,1.44-6.23,2.88-9.38,4.24-3.2,1.38-6.46,2.57-9.71,3.83-3.62,1.4-7.19,2.96-10.81,4.36-1.56.61-3.15,1.07-4.74,1.6-.92.31-1.85.7-2.67,1.24-.19.05-.38.11-.57.15-.14.03-.29.05-.44.06-1.34-.54-3.34-.6-4.18-.64-4.75-.26-9.47-1.42-14.14-2.24-5.01-.88-10.07-1.52-15.1-2.21-2.54-.35-5.11-.64-7.63-1.12-.94-.17-2-.48-2.97-.71-1.52-.37-3.05-.74-4.6-.91-.54-.06-1.55-.2-2.17.1,0-.02-.01-.05-.02-.07,0-.12.02-.24.04-.35Z"/>
          <path class="cls-23" d="M1108.97,716.07c-.05.41-.12.82-.32,1.11,0,0,0,0,0,.01,0,.08-.03.15-.07.21-.04.06-.09.12-.15.15-.06.05-.12.08-.19.1-.23.05-.45.04-.67-.01-.06-.02-.12-.05-.18-.07-.67-.02-1.35-.17-1.97-.32-.9-.22-1.78-.51-2.67-.8-2.51-.81-5.13-1.34-7.69-1.97-3.06-.75-6.12-1.49-9.18-2.23-3.06-.74-6.12-1.46-9.18-2.16-2.96-.67-5.93-1.44-8.92-1.95-1.86-.32-3.77-.23-5.64-.44-.91-.1-1.86-.23-2.71-.59-.65-.28-.94-.63-1.11-1.3-.43-1.73-.41-3.59-.45-5.36-.05-2.16-.2-4.3-.34-6.45-.8-11.96-.87-23.93-.95-35.91.16-1.19.32-2.39.42-3.59.07-.89.04-1.73-.09-2.62-.05-.35-.1-.71-.12-1.06.19-.1.63,0,.79.01.52.06,1.03.15,1.53.26,1.3.27,2.58.61,3.86.95.96.26,1.92.55,2.89.74,2.07.42,4.18.66,6.27.96,4.76.68,9.54,1.28,14.29,2.04,4.69.75,9.33,1.77,14.04,2.39,1.57.21,3.16.24,4.73.46,1.04.14,2.53.4,2.58,1.71,0,.1.03.17.07.22-.18,5.48-.1,10.97.15,16.45.15,3.16.37,6.31.38,9.48,0,3.16-.06,6.32-.04,9.48.02,3.14.23,6.26.45,9.39.18,2.61.2,5.21.32,7.82.04.96.02,1.94-.11,2.89Z"/>
          <path class="cls-41" d="M1161.78,649.09c.12,9.8-.59,19.58-.63,29.37,0,2.73.08,5.46.15,8.19.04,1.39.02,2.78.06,4.17.02.55.05,1.09.11,1.63.05.49.18,1.08-.03,1.54-.02.05-.02.1-.02.15-6.15,2.51-12.3,5.03-18.39,7.68-6.76,2.94-13.45,6.05-20.16,9.12-2.85,1.3-5.72,2.53-8.49,3.99-1.15.61-2.3,1.21-3.5,1.73-.33.14-.73.33-1.15.5.04-.1.09-.19.12-.31.42-1.69.04-3.53-.02-5.25-.11-3.2-.34-6.38-.54-9.58-.41-6.61.54-13.23.29-19.85-.12-3.25-.33-6.49-.42-9.74-.08-3.29-.08-6.59-.09-9.88,0-.99,0-1.97,0-2.96.65-.72,1.7-1.08,2.51-1.56.7-.41,1.38-.87,2.12-1.22.12-.06.24-.11.36-.16.56-.17,1.11-.35,1.67-.55,3.22-1.17,6.38-2.51,9.57-3.76,3.21-1.26,6.45-2.4,9.63-3.73,3.17-1.32,6.29-2.73,9.4-4.17,5.74-2.65,11.49-5.25,17.33-7.68.07.46.1.91.11,1.38.04,1.24.06,2.47.04,3.71-.04,2.41-.06,4.81-.03,7.23Z"/>
          <path class="cls-17" d="M1162.94,687.55c-.02-2.51-.15-5.01-.16-7.52-.03-5.16.17-10.32.35-15.48.18-5.05.31-10.11.23-15.16-.04-2.67-.03-5.34-.1-8-.04-1.38-.06-2.79-.31-4.16-.04-.19-.09-.46-.16-.71-.19-.4-.39-.79-.61-1.18-.9-.45-1.94-.63-2.93-.74-1.35-.16-2.71-.18-4.07-.26-3.93-.25-7.86-1.07-11.73-1.76-4.04-.72-8.07-1.44-12.08-2.31-3.97-.86-7.95-1.82-11.98-2.36-1.45-.19-2.91-.28-4.37-.42.81.42,1.61.84,2.4,1.26,3.02,1.59,6.28,2.9,9.04,4.91,1.71,1.25,3.49,3.09,2.34,5.31-1.03,1.99-3.4,3.26-5.3,4.24-2.4,1.25-4.94,2.24-7.48,3.16-2.52.91-5.06,1.84-7.65,2.56-8.78,2.43-18.03,2.76-27.09,2.29-7.55-.4-15.24.2-22.76-.75.97.74,2.04,1.37,3.14,1.91,2.68,1.32,5.58,2.18,8.47,2.91,4.82,1.21,9.72,2.12,14.57,3.25,2.88.68,5.88,1.5,8.37,3.15,2.55,1.69,3.91,4.14,4.36,7.14.46,3.08.11,6.18.04,9.27-.08,4.04.04,8.1.12,12.14.08,4.17.24,8.33.3,12.5.06,3.51.63,7.08-.03,10.56-.07.35-.48.53-.8.45-3.44-.88-6.93-1.54-10.45-2.01-3.88-.52-7.78-.8-11.69-.97,2.28.51,4.55,1.03,6.83,1.57,6.33,1.5,12.6,3.17,18.9,4.81,1.93.51,6.67,3.07,8.53,1.26.21-.04,2.79-1.26,3.81-1.74,2.2-1.03,4.35-2.12,6.57-3.1,6.82-3.03,13.59-6.17,20.42-9.17,6.89-3.03,13.87-5.86,20.84-8.71.66-.27,1.31-.53,1.97-.8.08-.71.19-1.42.35-2.12-.02-.41-.09-.83-.12-1.22-.11-1.32-.07-2.65-.08-3.98Z"/>
          <path class="cls-17" d="M1162.94,687.55c-.02-2.51-.15-5.01-.16-7.52-.03-5.16.17-10.32.35-15.48.18-5.05.31-10.11.23-15.16-.04-2.67-.03-5.34-.1-8-.04-1.38-.06-2.79-.31-4.16-.04-.19-.09-.46-.16-.71-.19-.4-.39-.79-.61-1.18-.9-.45-1.94-.63-2.93-.74-1.35-.16-2.71-.18-4.07-.26-.64-.04-1.29-.12-1.93-.19-.76.67-1.54,1.33-2.35,1.94-5.25,3.96-11.24,6.78-17.01,9.87-4.15,2.22-8.04,4.97-12.16,7.26,4.83-1.56,9.55-3.43,14.34-5.12,2.57-.91,5.25-1.55,7.78-2.55,1.99-.78,4.17-1.95,6.37-1.91,1.17.02,2.73,0,2.64,1.53-.06.99,0,1.96-.01,2.96,0,1.48-.17,2.95-.36,4.41-.39,2.91-.99,5.8-1.15,8.73-.18,3.38-.2,6.77-.3,10.15-.09,3.22-.11,6.41-.04,9.62.07,3.26.1,6.53-.27,9.77-.16,1.36-.39,2.73-.85,4.02-.43,1.21-.94,2.07-1.98,2.83-1.94,1.4-4.3,2.17-6.41,3.27-2.99,1.56-5.99,3.07-9.03,4.53-2.15,1.03-4.32,1.99-6.44,3.09-1.82.95-3.66,1.87-5.58,2.6-1.69.64-3.59,1.23-5.42,1-3.98-.51-4.31-5.69-4.69-8.82-.23-1.91-.43-3.8-.71-5.7-.32-2.2-.49-4.47-1.07-6.63-.3,2.08-.36,4.18-.34,6.28.05,4.72.62,9.44.17,14.16-.21,2.15-.48,4.29-.59,6.45-.02.36-.03.73-.04,1.1.56-.06,1.06-.24,1.44-.61.21-.04,2.79-1.26,3.81-1.74,2.2-1.03,4.35-2.12,6.57-3.1,6.82-3.03,13.59-6.17,20.42-9.17,6.89-3.03,13.87-5.86,20.84-8.71.66-.27,1.31-.53,1.97-.8.08-.71.19-1.42.35-2.12-.02-.41-.09-.83-.12-1.22-.11-1.32-.07-2.65-.08-3.98Z"/>
        </g>
      </g>
      <g>
        <path class="cls-40" d="M854.82,587.94c-.09-.15-.31-.08-.43.05-1.56-3.13-4.58-6.14-6.37-8.16-11.04-12.48-24.34-22.9-38.62-31.41-14.81-8.83-30.61-15.25-47.46-18.97-8.52-1.88-17.16-3.18-25.83-4.11-8.64-.93-17.52-1.94-26.21-1.82-8.58.11-16.51,2.89-24.2,6.5-6.96,3.26-13.63,7.03-20.16,11.05-10.56,5.41-21.01,11.02-31.28,16.97-10,5.81-19.83,11.92-29.38,18.45-9.76,6.67-19.27,13.72-29.04,20.38-4.72,3.22-9.55,6.19-14.42,9.17-2.74,1.67-5.44,3.5-7.81,5.68-.53.3-1.06.6-1.56.94-1.44,1-3.26,2.45-3.43,4.34-.11,1.21.31,2.39.76,3.56.09,2.03.37,4.03.69,6.04.97,5.99,1.44,12.1,2,18.14,1.26,13.65.97,27.37,2.38,41.01.07.71.17,1.41.26,2.12,0,.23-.03.46-.04.69-.14,5.16.53,10.3.42,15.46-.03,1.45-.07,3.05.78,4.31,1.1,1.63,3.23,2.16,5.08,2.16.35,0,.69-.02,1.03-.03,3.95,1.35,8.45,1.22,12.54,1.27,5.69.07,11.34.8,17.01,1.2,14.09,1,28.17,1.21,42.29,1.29,14.07.08,28.13.06,42.2-.08,28.25-.28,56.47-1.23,84.7-2.36,13.94-.56,27.89-1.34,41.84-1.76,12.02-.36,24.16.26,36.08-1.7,2.84-.47,5.63-1.1,8.38-1.95.38-.12.78-.33,1.09-.63.7-.09,1.56-.64,1.66-1.35,2.08-15.58,2.45-31.3,3.25-46.98.4-7.77,1.05-15.51,1.57-23.26.53-7.95.98-15.9,1.65-23.83.6-7.17,2.58-15.8-1.4-22.38Z"/>
        <path class="cls-29" d="M777.55,670.42c-8.56-6.42-18.09-10.8-28.09-14.51-10.88-4.03-22.07-7.16-33.4-9.63-23.17-5.04-46.84-7.3-70.46-8.96-11.65-.81-23.31-1.47-34.97-2.22-9.15-.59-18.26-1.32-27.42-1.56-8.01-.21-16.1-.56-23.95-2.32-3.02-.68-6.13-1.63-8.98-3.03.81,5.47,1.26,11.04,1.77,16.54,1.26,13.65.97,27.37,2.38,41.01.07.71.17,1.41.26,2.12,0,.23-.03.46-.04.69-.14,5.16.53,10.3.42,15.46-.03,1.45-.07,3.05.78,4.31,1.1,1.63,3.23,2.16,5.08,2.16.35,0,.69-.02,1.03-.03,3.95,1.35,8.45,1.22,12.54,1.27,5.69.07,11.34.8,17.01,1.2,14.09,1,28.17,1.21,42.29,1.29,14.07.08,28.13.06,42.2-.08,28.25-.28,56.48-1.23,84.7-2.36,13.94-.56,27.89-1.34,41.84-1.76,2.25-.07,4.5-.1,6.76-.12-7.12-15.46-18.2-29.32-31.75-39.48Z"/>
        <path class="cls-38" d="M562.11,607.53c4.11-2.52,8.21-4.98,12.21-7.67,9.63-6.49,18.96-13.41,28.49-20.04,18.79-13.08,38.6-24.63,58.73-35.5,9.36-5.06,18.83-9.92,28.33-14.71,4.51-1.78,9.13-3.17,14.03-3.69,7.81-.83,15.96.21,23.76.87,8.3.7,16.59,1.68,24.8,3.14,16.33,2.91,32.05,7.89,46.73,15.64,13.88,7.33,26.94,16.37,38.35,27.17,3.17,3,6.21,6.16,9.07,9.45,2.22,2.56,5.36,5.51,6.21,8.89.91,3.63-2.58,4.56-5.51,4.78-2.26.61-4.62.89-6.95,1.02-1.89.1-3.78.07-5.67-.05-.03.07-.09.12-.11.19-9.28-.41-18.6.01-27.87.55-10.02.58-20.02,1.34-30.03,2.06-20.41,1.47-40.85,2.12-61.27,3.33-20.43,1.21-40.83,2.82-61.24,4.14-20.17,1.31-40.39,2.16-60.46,4.61-4.06.49-8.12.99-12.13,1.81-3.38.69-6.76,1.45-10.15,2.07-3.66.68-7.38,1.25-11.11,1.32-2.65.05-5.57-.12-7.93-1.46,2.56-3.34,6.19-5.75,9.74-7.93Z"/>
        <path class="cls-34" d="M853.85,608.86c-.78,7.81-1.18,15.66-1.69,23.5-.5,7.77-1.18,15.52-1.6,23.29-.42,7.76-.71,15.53-1.13,23.3-.44,8.31-1.06,16.62-2.12,24.87-.04,0-.07,0-.1,0-11.35,3.5-23.45,3.35-35.21,3.45-13.08.11-26.16.91-39.22,1.45-27.55,1.14-55.11,2.22-82.68,2.65-13.72.22-27.44.31-41.17.3-13.69,0-27.41.08-41.1-.47-11.97-.48-23.9-1.9-35.88-1.93-.91-.22-1.82-.45-2.75-.69-.88-.22-1.77-.34-2.65-.41-.2.02-.4.05-.6.07-1.66.13-3.42.14-5.03-.36-1.48-.45-2.99-1.49-3.33-3.09-.37-1.69-.06-3.51.19-5.19,0-.02.01-.05.02-.07-.4-4.62-.97-9.2-.95-13.86.01-4.09-.07-8.17-.96-12.17-.14-5.78-.18-11.57-.41-17.34-.35-8.71-1.23-17.37-2.42-25.99-.02-2.25.14-4.5.07-6.76-.07-2.22-1.04-3.93-1.66-5.99,4.35,2.21,10.22,1.55,14.78,1.01,6.06-.72,11.96-2.21,17.97-3.22,9.67-1.62,19.56-2.37,29.32-3.14,10.25-.8,20.51-1.38,30.76-2,20.62-1.24,41.21-2.86,61.83-4.16,20.56-1.29,41.15-1.88,61.7-3.28,11.34-.77,22.68-1.68,34.03-2.39,11.58-.72,23.17-1.06,34.75-1.63.08,0,.16-.04.25-.07.41.07.82.13,1.21.18.16.02.31,0,.47.02.66,0,1.31.01,1.97-.01.51-.02,1.01-.06,1.52-.11.05,0,.09-.01.14-.02.13-.02.25-.04.38-.06.25-.04.5-.09.75-.14.31-.07.61-.02.87.09,1.34-.12,2.67-.24,4.01-.37,1.73-.16,3.54-.4,5.13-1.13.44-.2,1.07-.57,1.64-1.04.02.68.02,1.36,0,2.04-.17,3.62-.7,7.22-1.06,10.82Z"/>
        <path class="cls-10" d="M571.37,707.18c-3.21-1.67-5.19-4.06-6.31-7.49-2.34-7.19-1.42-15.05-1.68-22.48-.42-11.69-.53-23.5-.22-35.19.1-3.86-.61-7.89.09-11.71.67-3.67,3.08-6.13,6.46-7.58,4.1-1.77,8.72-1.48,13.08-1.39,5.39.11,10.79-.27,16.14-.95,5.77-.73,11.47-1.88,17.22-2.78,5.94-.93,11.88-1.89,17.83-2.84,11.8-1.88,23.62-3.7,35.5-5.03,11.68-1.31,23.44-1.69,35.13-2.9,3.7-.38,7.38-.88,11.05-1.42-3.18.17-6.36.33-9.54.53-20.62,1.29-41.21,2.92-61.83,4.16-10.26.61-20.52,1.19-30.76,2-9.77.77-19.65,1.52-29.32,3.14-6.01,1-11.91,2.5-17.97,3.22-4.56.54-10.43,1.2-14.78-1.01.61,2.06,1.59,3.78,1.66,5.99.07,2.25-.08,4.5-.07,6.76,1.19,8.62,2.06,17.28,2.42,25.99.24,5.77.27,11.56.41,17.34.9,4,.97,8.07.96,12.17-.01,4.66.55,9.23.95,13.86,0,.02-.01.04-.02.07-.25,1.68-.56,3.5-.19,5.19.35,1.6,1.86,2.63,3.33,3.09,1.61.49,3.37.48,5.03.36.2-.02.4-.05.6-.07.89.08,1.77.19,2.65.41.93.24,1.84.48,2.75.7,1.67,0,3.34.09,5,.14-1.91-.61-3.79-1.3-5.57-2.23Z"/>
        <path class="cls-13" d="M853.01,657.42c.4-7.77,1.05-15.51,1.57-23.26.53-7.95.98-15.9,1.65-23.83.6-7.17,2.58-15.8-1.4-22.38-.09-.15-.31-.08-.43.05-1.56-3.13-4.58-6.14-6.37-8.16-11.04-12.48-24.34-22.9-38.62-31.41-14.81-8.83-30.61-15.25-47.46-18.97-8.52-1.88-17.16-3.18-25.83-4.11-8.64-.93-17.52-1.94-26.21-1.82-.79.01-1.57.07-2.35.12,13.59,1.14,27.05,4.34,40.06,8.33,12.3,3.77,24.44,7.89,35.99,13.58,9.77,4.81,19.72,10.11,28.07,17.19,5.06,4.29,12.65,12.42,5.7,18.58-1.75,1.55-3.94,2.58-6.12,3.37-4.37,1.59-8.93,2.76-13.45,3.83-10.31,2.44-20.83,3.94-31.38,4.94-20.95,1.99-42.01,1.99-63.02,3.04-10.83.54-21.63,1.62-32.46,2.4-11.24.81-22.49,1.53-33.71,2.49-11.31.96-22.6,2.15-33.81,3.91-9.11,1.43-18.45,2.94-27.26,5.74-3.05.97-6.1,1.98-9.24,2.67-2.7.6-5.77,1.15-8.49.36-2.13-.62-3.17-1.89-3.52-3.41-.43.36-.9.68-1.32,1.06-.53.3-1.06.6-1.56.94-.99.68-2.14,1.58-2.83,2.68,2.08,3.71,8.81,4.44,12.42,4.78,8.04.76,16.22.11,24.22-.77,5.84-.64,11.63-1.6,17.45-2.37,6.21-.82,12.53-1.1,18.77-1.64,8.45-.73,16.91-1.45,25.37-2.1,33.58-2.54,67.66-3.98,101.1.96,5.15.76,10.36,1.02,15.52,1.68,5.23.67,10.85,1.59,15.41,4.42,4.24,2.64,6.12,7.28,6.92,12.04.96,5.7.64,11.58.13,17.31-.5,5.75-1.23,11.41-1.32,17.19-.13,7.98.03,15.97.06,23.95.03,6.62-.03,13.28-.38,19.92,5.89-.26,11.77-.53,17.66-.7,12.02-.36,24.16.26,36.08-1.7,2.84-.47,5.63-1.1,8.38-1.95.38-.12.78-.33,1.09-.63.7-.09,1.56-.64,1.66-1.35,2.08-15.58,2.45-31.3,3.25-46.98Z"/>
        <path class="cls-38" d="M854.92,595.99c-.57.47-1.2.84-1.64,1.04-1.6.73-3.4.96-5.13,1.13-1.34.13-2.67.25-4.01.37-.26-.11-.56-.16-.87-.09-.25.05-.5.1-.75.14-.13.02-.25.04-.38.06-.05,0-.09.01-.14.02-.5.05-1.01.09-1.52.11-.66.03-1.31.02-1.97.01-.16-.01-.31,0-.47-.02-.4-.04-.8-.11-1.21-.18-.08.03-.17.06-.25.07-11.58.57-23.18.9-34.75,1.63-11.35.71-22.69,1.62-34.03,2.39-20.55,1.39-41.14,1.99-61.7,3.28-20.62,1.29-41.21,2.92-61.83,4.16-10.26.62-20.52,1.2-30.76,2-9.77.77-19.65,1.52-29.32,3.14-6.01,1-11.91,2.5-17.97,3.22-4.56.54-10.43,1.2-14.78-1.01.61,2.06,1.59,3.78,1.66,5.99.01.4,0,.81,0,1.21,12.38,1.7,24.85-1.32,36.99-3.4,13.63-2.33,27.51-2.28,41.3-2.7,29.81-.91,59.57-1.81,89.3-4.19,14.76-1.18,29.51-2.46,44.27-3.56,7.4-.55,14.8-1.05,22.21-1.47,6.85-.39,13.75-.45,20.59-1.05,5.7-.49,11.42-1.26,17.16-1.04,4.76.18,10.65.91,13.58,5.15,2.73,3.95,2.11,9.27,2.08,13.81-.05,7.25-.46,14.52-.78,21.77-.65,14.79-1.36,29.58-2.26,44.36-.28,4.6-.61,9.2-.98,13.8,3.6-.5,7.16-1.22,10.65-2.3.04-.01.07,0,.1,0,1.06-8.26,1.68-16.56,2.12-24.87.42-7.76.7-15.53,1.13-23.3.42-7.77,1.1-15.52,1.6-23.29.51-7.83.92-15.68,1.69-23.5.36-3.6.89-7.2,1.06-10.82.03-.68.03-1.36,0-2.04Z"/>
      </g>
      <g>
        <g>
          <path class="cls-30" d="M664.94,706.28c-13.95-6.52-28.95-10.4-43.17-16.26-11.41-4.71-22.48-10.29-33.47-15.97-.02-.06-.07-.08-.1-.12-1.07.83-2.29,1.46-3.52,2.06-.58.4-1.19.78-1.91,1.12-1.77.84-3.66,1.38-5.6,1.68-3.16.48-6.38.15-9.4-.84-1.91-2-3.49-4.51-4.74-6.94-.69-1.35-.99-2.95-1.42-4.39-.52-1.77-1.09-3.64-2.01-5.24-.38-.66-.89-1.41-1.56-1.79.09-.31.14-.62.26-.92-8.87-4.47-17.76-8.92-26.65-13.37-9.43-4.71-18.95-9.35-28.21-14.44-.37,1.19-.9,2.33-1.55,3.39,0,.2.03.39,0,.61-.27,1.9-1.55,3.46-2.97,4.65-2.69,2.26-6.23,3.33-9.72,3.29.02-.08.05-.16.04-.23-.05-.45-.31-.84-.4-1.28-.11-.53-.12-1.08-.16-1.62-.1-1.3-.21-2.59-.22-3.9-.02-2.05,0-4.34.7-6.3.52-1.47,1.28-2.98,1.4-4.56.04-.59-.16-1.1-.47-1.54.11-.05.21-.13.32-.18-.15-.1-.31-.19-.46-.28-6.31-4.06-12.91-8.53-20.29-10.35-7.55-1.86-14.38,1.88-21.56,3.64-.31.07-.52.37-.56.63-3.56,1.06-7.12,2.11-10.66,3.23-10.02,3.15-19.89,6.77-29.55,10.89-19.03,8.13-36.81,18.46-54.19,29.64-9.71,6.25-19.29,12.71-29.13,18.74-.3.18-.63.77-.42,1.14-.63,3.68-.49,7.48-.42,11.19.07,3.87.2,7.74.38,11.61.33,7.17.78,14.34,1.31,21.5.32-.13.66-.2,1-.28.08.07.21.1.39.06,4.26-1.04,8.13,3.81,9.42,7.29,1.62,4.36,1.7,9.36.85,13.9-.43,2.32-1.21,4.63-2.13,6.8-.76,1.79-2.15,5.32-4.61,4.48-.58-.19-1.53.58-1.5,1.15-.18.01-.36.06-.54.05.5,5.21.98,10.42,1.52,15.62.56,5.44,1.03,10.91,1.63,16.36-.02,0-.04,0-.07,0,.06.39.12.77.18,1.16.73.04,1.47.16,2.18.35.54.06,1.08.13,1.62.2,5.51.77,11.03,1.33,16.57,1.75,11.25.84,22.52,1.24,33.8,1.48,11.11.23,22.23.29,33.34.43,11.35.14,22.7.57,34.05.74,22.54.35,45.07-.33,67.6-.71,22.57-.38,45.12.06,67.68.01,12.78-.03,25.55-.16,38.33-.3,7.98-.09,15.97-.15,23.95-.25,3.16-.36,6.33-.37,9.5-.34.16-5.16.39-10.32.75-15.47.16-2.28.34-4.57.53-6.85-.15-.09-.29-.2-.44-.3.5-.68.36-1.79-.74-1.48-.1.03-.21.03-.31.06-3.08-1.46-4.7-5.25-5.65-8.29-1.03-3.3-1.52-6.68-1.4-10.13.13-3.83.87-7.65,2.37-11.18.73-1.72,1.68-3.41,2.91-4.83.57-.66,1.19-1.29,1.85-1.85.51-.43,1.08-.8,1.58-1.24.93-.63,1.86-1.26,2.79-1.9.1-2.04.19-4.08.33-6.12.2-3.07.33-6.15.26-9.23.11-.84.22-1.69.31-2.55-.03-2.38-.02-4.75.16-7.12Z"/>
          <path class="cls-30" d="M664.94,706.28c-13.95-6.52-28.95-10.4-43.17-16.26-11.41-4.71-22.48-10.29-33.47-15.97-.02-.06-.07-.08-.1-.12-1.07.83-2.29,1.46-3.52,2.06-.58.4-1.19.78-1.91,1.12-1.77.84-3.66,1.38-5.6,1.68-3.16.48-6.38.15-9.4-.84-1.91-2-3.49-4.51-4.74-6.94-.69-1.35-.99-2.95-1.42-4.39-.52-1.77-1.09-3.64-2.01-5.24-.38-.66-.89-1.41-1.56-1.79.09-.31.14-.62.26-.92-8.87-4.47-17.76-8.92-26.65-13.37-9.43-4.71-18.95-9.35-28.21-14.44-.37,1.19-.9,2.33-1.55,3.39,0,.2.03.39,0,.61-.27,1.9-1.55,3.46-2.97,4.65-2.69,2.26-6.23,3.33-9.72,3.29.02-.08.05-.16.04-.23-.05-.45-.31-.84-.4-1.28-.11-.53-.12-1.08-.16-1.62-.1-1.3-.21-2.59-.22-3.9-.02-2.05,0-4.34.7-6.3.52-1.47,1.28-2.98,1.4-4.56.04-.59-.16-1.1-.47-1.54.11-.05.21-.13.32-.18-.15-.1-.31-.19-.46-.28-6.31-4.06-12.91-8.53-20.29-10.35-7.55-1.86-14.38,1.88-21.56,3.64-.31.07-.52.37-.56.63-3.56,1.06-7.12,2.11-10.66,3.23-10.02,3.15-19.89,6.77-29.55,10.89-19.03,8.13-36.81,18.46-54.19,29.64-9.71,6.25-19.29,12.71-29.13,18.74-.3.18-.63.77-.42,1.14-.63,3.68-.49,7.48-.42,11.19.07,3.87.2,7.74.38,11.61.33,7.17.78,14.34,1.31,21.5.32-.13.66-.2,1-.28.08.07.21.1.39.06,4.26-1.04,8.13,3.81,9.42,7.29,1.62,4.36,1.7,9.36.85,13.9-.43,2.32-1.21,4.63-2.13,6.8-.76,1.79-2.15,5.32-4.61,4.48-.58-.19-1.53.58-1.5,1.15-.18.01-.36.06-.54.05.5,5.21.98,10.42,1.52,15.62.56,5.44,1.03,10.91,1.63,16.36-.02,0-.04,0-.07,0,.06.39.12.77.18,1.16.73.04,1.47.16,2.18.35.54.06,1.08.13,1.62.2,5.51.77,11.03,1.33,16.57,1.75,11.25.84,22.52,1.24,33.8,1.48,11.11.23,22.23.29,33.34.43,11.35.14,22.7.57,34.05.74,22.54.35,45.07-.33,67.6-.71,22.57-.38,45.12.06,67.68.01,12.78-.03,25.55-.16,38.33-.3,7.98-.09,15.97-.15,23.95-.25,3.16-.36,6.33-.37,9.5-.34.16-5.16.39-10.32.75-15.47.16-2.28.34-4.57.53-6.85-.15-.09-.29-.2-.44-.3.5-.68.36-1.79-.74-1.48-.1.03-.21.03-.31.06-3.08-1.46-4.7-5.25-5.65-8.29-1.03-3.3-1.52-6.68-1.4-10.13.13-3.83.87-7.65,2.37-11.18.73-1.72,1.68-3.41,2.91-4.83.57-.66,1.19-1.29,1.85-1.85.51-.43,1.08-.8,1.58-1.24.93-.63,1.86-1.26,2.79-1.9.1-2.04.19-4.08.33-6.12.2-3.07.33-6.15.26-9.23.11-.84.22-1.69.31-2.55-.03-2.38-.02-4.75.16-7.12Z"/>
          <path class="cls-30" d="M477.99,636.96c-.93-1.64-1.24-3.63-.56-5.42.65-1.71,2.09-2.92,3.63-3.83,1.81-1.07,4.12-2.12,6.45-2.57.06-.06.12-.13.18-.19.21-.19.45-.35.67-.52-.01.04-.03.07-.04.12-.14.74-.25,1.44-.49,2.16-.48,1.42-1.17,2.77-1.43,4.26-.42,2.38-.54,4.89-.33,7.3.09,1.08.29,2.14.59,3.18.11.38.23.8.4,1.17-3.63-.53-7.24-2.42-9.08-5.67Z"/>
          <path class="cls-27" d="M376.43,647.87c17.94-10.36,36.95-18.76,56.57-25.38,5.59-1.88,11.24-3.57,16.85-5.37,2.71-.87,5.43-1.72,8.18-2.43,3.31-.65,6.65-.92,9.88-.18,6.61,1.51,12.55,5.3,18.19,8.9.33.21.66.4.98.6-1.92.35-3.81,1.01-5.56,1.84-3.96,1.9-7.53,5.64-6.23,10.36,1.31,4.74,6.22,7.6,10.81,8.32,4.77.74,9.92-.47,13.7-3.52,2.04-1.65,3.84-3.8,4.24-6.47.03-.2,0-.41,0-.61.1.05.19.11.29.16,7.49,3.93,15.02,7.76,22.58,11.55,10.14,5.09,20.29,10.15,30.42,15.26,0,0,.01.01.02.02-1.78,3.07-1.78,6.98-.5,10.26,1.46,3.75,4.25,6.43,7.9,8.04,4.21,1.86,8.93,2.26,13.44,1.35,2.29-.47,4.48-1.28,6.52-2.43.8-.45,1.91-1.08,2.69-1.88,9.11,4.65,18.26,9.2,27.58,13.41,14.29,6.45,29.48,10.51,44,16.37-8.65-.8-17.33-1.22-26.02-1.67-11.27-.58-22.5-1.63-33.73-2.62-22.53-1.97-45.06-3.96-67.61-5.68-11.25-.85-22.52-1.56-33.77-2.5-11.33-.94-22.66-2.02-33.98-2.99-11.14-.96-22.3-1.71-33.41-2.98-11.05-1.26-22.07-2.77-33.14-3.89-21.8-2.2-43.76-1.81-65.61-3.06-1.85-.11-3.74-.33-5.48-.98,16.66-10.7,33.05-21.9,50.2-31.8Z"/>
          <path class="cls-8" d="M341.01,679.81c-.54-.32-.69-1.01-.4-1.54,2.61-4.84,7.78-8.01,12.38-10.7,4.97-2.91,10.08-5.53,14.94-8.62,12.45-7.92,25.71-14.56,39.1-20.73,12.95-5.97,26.41-10.79,40.16-14.58,9.37-2.58,18.85-4.65,28.41-6.35-2.47-1.19-5.02-2.17-7.67-2.78-3.23-.74-6.57-.46-9.88.18-2.75.71-5.47,1.56-8.18,2.43-5.61,1.81-11.26,3.49-16.85,5.37-19.62,6.62-38.64,15.01-56.57,25.38-17.15,9.91-33.53,21.1-50.2,31.8,1.74.65,3.63.88,5.48.98,4.27.25,8.55.42,12.83.57-1.24-.32-2.44-.77-3.54-1.42Z"/>
          <path class="cls-8" d="M421.96,656.83c1.84,4.94-.46,10.24-4.98,12.94-4.45,2.66-9.82,3.1-14.97,3.54,2.29,1.03,4.92,1.35,7.4,1.26,6.11-.22,13.76-3.04,15.64-9.5.79-2.71.06-5.53-2.04-7.44-.33-.3-.69-.57-1.06-.8Z"/>
          <path class="cls-8" d="M492.35,648.17c3.27-.64,7.14-1.82,9.89-4.08-.88.26-1.76.53-2.64.78-5.33,1.5-10.9,2.92-16.47,2.99-1.18.02-2.43-.08-3.62-.31,3.98,1.59,8.79,1.4,12.83.61Z"/>
          <path class="cls-8" d="M556.04,664.97c-1.19,1.51-2.25,3.13-3,4.89.26.83.62,1.64,1.16,2.39,1.78,2.47,4.64,3.98,7.47,5.14-2.13-1.57-3.81-3.62-4.82-6.21-.76-1.95-1.06-4.12-.81-6.21Z"/>
          <path class="cls-8" d="M552.14,673.07c-.12,1.02-.08,2.06.24,3.05.76,2.37,3.01,3.8,5.2,4.7,2.54,1.04,5.26,1.76,7.97,2.14,1.61.23,3.43.39,5.13.15-1.16-.47-2.33-.9-3.51-1.31-3.95-1.37-8.13-2.66-11.57-5.13-1.42-1.02-2.58-2.24-3.46-3.6Z"/>
          <path class="cls-27" d="M662.31,714.14c-.12.92-.26,1.83-.4,2.75-.69,4.71-1.02,9.4-1.31,14.15,0,0,0,.01,0,.02-3.35-.86-6.77,1.05-9.53,3.14-3.61,2.74-6.52,6.29-8.37,10.44-3.46,7.78-2.79,18.83,4.07,24.63,2.79,2.36,7.27,4.09,11.14,3.69-.57,6.69-.98,13.41-.7,20.12-19.89-.3-39.81.18-59.69.29-22.57.12-45.14-.38-67.7-.1-22.54.28-45.07,1.03-67.61.93-11.14-.05-22.26-.47-33.4-.68-11.34-.21-22.69-.27-34.04-.4-12.46-.14-24.93-.42-37.38-1.08-6.24-.33-12.49-.76-18.71-1.35-1.87-.18-3.78-.27-5.7-.36-.28-4.68-.68-9.37-1.05-14.02-.46-5.77-.97-11.53-1.49-17.3,3.86-.23,6.42-7.39,7.3-10.14,2.1-6.53,2.5-14.83-1.44-20.76-1.87-2.83-5.39-5.3-8.87-4.81-.45-5.97-.87-11.94-1.19-17.92-.24-4.39-.44-8.79-.62-13.18-.15-3.63-.1-7.38-.69-10.98,3.4,1.42,7.27,1.28,10.9,1.4,5.36.17,10.72.69,16.08.88,11.37.4,22.76.45,34.11,1.27,11.2.81,22.36,2.2,33.51,3.55,11.19,1.35,22.37,2.45,33.6,3.31,22.7,1.75,45.36,3.88,68.07,5.51,22.9,1.65,45.77,3.62,68.64,5.62,11.31.99,22.62,2.13,33.95,2.88,11.1.74,22.23.99,33.31,2.01,1.84.17,3.67.42,5.5.65-.44,1.9-.35,3.9-.28,5.83Z"/>
          <path class="cls-27" d="M662.31,714.14c-.12.92-.26,1.83-.4,2.75-.69,4.71-1.02,9.4-1.31,14.15,0,0,0,.01,0,.02-3.35-.86-6.77,1.05-9.53,3.14-3.61,2.74-6.52,6.29-8.37,10.44-3.46,7.78-2.79,18.83,4.07,24.63,2.79,2.36,7.27,4.09,11.14,3.69-.57,6.69-.98,13.41-.7,20.12-19.89-.3-39.81.18-59.69.29-22.57.12-45.14-.38-67.7-.1-22.54.28-45.07,1.03-67.61.93-11.14-.05-22.26-.47-33.4-.68-11.34-.21-22.69-.27-34.04-.4-12.46-.14-24.93-.42-37.38-1.08-6.24-.33-12.49-.76-18.71-1.35-1.87-.18-3.78-.27-5.7-.36-.28-4.68-.68-9.37-1.05-14.02-.46-5.77-.97-11.53-1.49-17.3,3.86-.23,6.42-7.39,7.3-10.14,2.1-6.53,2.5-14.83-1.44-20.76-1.87-2.83-5.39-5.3-8.87-4.81-.45-5.97-.87-11.94-1.19-17.92-.24-4.39-.44-8.79-.62-13.18-.15-3.63-.1-7.38-.69-10.98,3.4,1.42,7.27,1.28,10.9,1.4,5.36.17,10.72.69,16.08.88,11.37.4,22.76.45,34.11,1.27,11.2.81,22.36,2.2,33.51,3.55,11.19,1.35,22.37,2.45,33.6,3.31,22.7,1.75,45.36,3.88,68.07,5.51,22.9,1.65,45.77,3.62,68.64,5.62,11.31.99,22.62,2.13,33.95,2.88,11.1.74,22.23.99,33.31,2.01,1.84.17,3.67.42,5.5.65-.44,1.9-.35,3.9-.28,5.83Z"/>
          <path class="cls-8" d="M326.25,705.39c.33,5.98.74,11.95,1.19,17.92,3.48-.49,6.99,1.98,8.87,4.81,3.94,5.93,3.53,14.23,1.44,20.76-.56,1.75-1.8,5.27-3.62,7.67.83-.43,1.66-.85,2.43-1.37,1.76-1.2,3.14-3.18,4.2-5,2.12-3.65,3.1-7.88,2.93-12.09-.17-3.91-1.37-7.41-4.01-10.32-2.12-2.35-4.76-4.15-6.92-6.45-2.37-2.52-3.37-5.63-4.05-8.97-.88-4.3-1.07-8.72-1.03-13.1.06-5.68.55-11.4.6-17.1-1.14-.19-2.26-.48-3.33-.92.59,3.61.54,7.36.69,10.98.19,4.4.38,8.79.62,13.18Z"/>
          <path class="cls-8" d="M488.89,768.05c2.47,2.22,5.86,2.93,9.22,2.46,8.49-1.18,16.45-7.74,20.59-15.03,1.76-3.11,2.94-6.7,2.8-10.29-.85,2.97-2.46,5.74-4.44,8.21-6.66,8.29-17.61,13.4-28.17,14.66Z"/>
          <path class="cls-8" d="M372.02,697.91c-3.94,1.58-7.08,5.19-7.99,9.35-.79,3.64.55,6.89,3.1,9.21-.51-2.6-.96-5.23-.7-7.86.34-3.45,1.97-6.6,4.83-8.62,1.82-1.29,4.23-2.17,6.67-2.42-.19-.17-.36-.34-.55-.51-1.82-.09-3.64.15-5.36.85Z"/>
          <path class="cls-30" d="M657.9,734.2c-1.25.96-2.29,2.16-3.21,3.43-1.96,2.73-3.19,6-3.91,9.26-1.37,6.15-1.06,12.54,1.23,18.43.74,1.9,1.71,3.81,3.08,5.32-2.07-.44-4.11-1.37-5.64-2.44-3.08-2.14-4.91-5.56-5.81-9.13-1.95-7.8.5-16.03,6.22-21.64,2.58-2.54,6.74-5.92,10.68-5.16,0,.13-.02.27-.02.4-.95.29-1.9.97-2.61,1.51Z"/>
          <path class="cls-30" d="M387.91,705.97c-.37-2.52-2.11-4.56-4.38-5.6-2.3-1.05-4.84-1.02-7.23-.37-2.9.19-5.69,2.28-7.41,4.68-2.59,3.62-3.09,8.81.27,12.17,2.98,2.98,7.72,2.54,11.23.81,4.23-2.09,8.26-6.67,7.53-11.69Z"/>
          <path class="cls-30" d="M417.19,653.29c-2.48-1.41-5.22-2.27-8.04-2.73-4.09-1.24-8.28-1.13-12.61-.21-3.98.85-8.28,1.96-11.58,4.45-3.01,2.27-5.26,6.18-4.47,10.04.76,3.72,4.28,6.04,7.52,7.45,8.54,3.72,19.33,2.58,27.56-1.52,3.21-1.6,6.97-4.1,7.75-7.87.88-4.26-2.77-7.7-6.13-9.62Z"/>
          <path class="cls-30" d="M514.26,727.34c-.39-.18-.77-.37-1.16-.55-3.3-1.46-7-1.8-10.58-1.61-5.53.3-10.06,3.9-15.09,5.87-.8.53-1.6,1.07-2.34,1.66-3.98,3.17-7.55,7.3-8.97,12.28-1.42,4.97-.44,10.34,2.78,14.41,7.5,9.46,21.69,6.47,30.55.7,8.43-5.5,15.9-17.24,10.49-27.28-1.29-2.4-3.32-4.2-5.67-5.49Z"/>
          <path class="cls-30" d="M557.67,661.45c.33.65.54,1.4.7,1.86.62,1.76,1.06,3.57,1.57,5.36.42,1.47.82,2.92,1.6,4.24.69,1.18,1.5,2.3,2.41,3.33-2.1-1.3-3.85-3.09-5-5.31-1.3-2.5-2.13-5.83-1.36-8.66.01-.27.06-.54.08-.82Z"/>
        </g>
        <path class="cls-14" d="M389.23,650.55c-3.77,1.53-7.73,4.32-9.01,8.38-2.62,8.29,8.01,18.21,16.08,15.31-2.32-1.65-4.16-3.9-4.52-6.84-.43-3.51,1.36-6.8,3.66-9.32,4.33-4.74,10.61-6.42,16.77-7.69-2.85-1.17-6-1.73-8.98-1.92-4.72-.29-9.59.3-13.99,2.08Z"/>
        <path class="cls-14" d="M437.8,794.1c-11.4-.74-22.79-1.63-34.15-2.86-22.94-2.48-45.67-6.84-68.78-7.64-.48-.02-.98-.33-1.09-.83-1.34-5.88-2.49-12.48-1.46-18.49.31-1.83.99-4.13,2.67-5.18.73-.45,1.58-.68,2.33-1.08,1.17-.63,2.25-1.46,3.19-2.39,3.91-3.89,4.17-9.96,3.07-15.06-1.17-5.45-3.84-11.04-8.66-14.14-3.09-1.99-6.61-2.58-10.1-2.27.01.21.03.42.04.63.32-.13.66-.2,1-.28.08.07.21.1.39.06,4.26-1.04,8.13,3.81,9.42,7.29,1.62,4.36,1.7,9.36.85,13.9-.43,2.32-1.21,4.63-2.13,6.8-.76,1.79-2.15,5.32-4.61,4.48-.58-.19-1.53.58-1.5,1.15-.18.01-.36.06-.54.05.5,5.21.98,10.42,1.52,15.62.56,5.44,1.03,10.91,1.63,16.36-.02,0-.04,0-.07,0,.06.39.12.77.18,1.16.73.04,1.47.16,2.18.35.54.06,1.08.13,1.62.2,5.51.77,11.03,1.33,16.57,1.75,11.25.84,22.52,1.24,33.8,1.48,11.11.23,22.23.29,33.34.43,11.35.14,22.7.57,34.05.74,6.22.09,12.43.1,18.65.07-11.1-1.26-22.3-1.57-33.44-2.3Z"/>
        <path class="cls-14" d="M494.15,726.26c-2.37,1.08-4.66,2.34-6.83,3.75-7.54,4.87-15.89,13.21-13.5,23.07,1.26,5.19,5.19,9.38,10.35,10.8,4.42,1.22,9.13.48,13.28-1.36-2.6-1.91-4.95-4.18-6.49-7.04-3.34-6.18-2.14-13.62.94-19.65,2.36-4.62,6.18-9.02,11.05-10.92-2.93-.26-5.95.36-8.78,1.35Z"/>
        <path class="cls-14" d="M373.21,703.63c-.2-1.21-.06-2.31.28-3.32-.56.34-1.09.69-1.56,1.09-2.35,1.93-3.84,4.6-3.91,7.69-.05,2.13.88,4.04,2.69,5.2,3.41,2.17,8.32,1.82,11.85-.2-1.2-.59-2.36-1.25-3.43-2.06-2.69-2.04-5.36-4.92-5.93-8.38Z"/>
      </g>
    </g>
  </g>
</svg>