<?xml version="1.0" encoding="UTF-8"?>
<svg xmlns="http://www.w3.org/2000/svg" xmlns:xlink="http://www.w3.org/1999/xlink" viewBox="0 0 1334 1000">
  <defs>
    <style>
      .cls-1 {
        fill: #f1e9d0;
      }

      .cls-2 {
        fill: #99533b;
      }

      .cls-3 {
        fill: #aa7769;
      }

      .cls-4 {
        fill: #c37e49;
      }

      .cls-5 {
        fill: #775239;
      }

      .cls-6 {
        fill: #4d93c9;
      }

      .cls-7 {
        fill: #0c9146;
      }

      .cls-8 {
        fill: #77c043;
      }

      .cls-9 {
        fill: #44385f;
        opacity: .75;
      }

      .cls-9, .cls-10, .cls-11, .cls-12 {
        mix-blend-mode: multiply;
      }

      .cls-13 {
        fill: #e0b190;
      }

      .cls-14 {
        fill: #c5203d;
      }

      .cls-15 {
        fill: #ffd10a;
      }

      .cls-16, .cls-10 {
        fill: #b8c3dd;
      }

      .cls-10 {
        opacity: .32;
      }

      .cls-17 {
        fill: #b2774f;
      }

      .cls-11 {
        fill: #eae8e2;
      }

      .cls-18 {
        isolation: isolate;
      }

      .cls-19 {
        fill: #f0eff0;
      }

      .cls-20 {
        fill: #58141b;
      }

      .cls-12 {
        fill: #d4a688;
      }

      .cls-21 {
        fill: url(#linear-gradient);
        opacity: .81;
      }

      .cls-22 {
        fill: #783219;
      }

      .cls-23 {
        fill: #643117;
        opacity: .26;
      }

      .cls-24 {
        fill: #f99d1c;
      }

      .cls-25 {
        fill: #fff;
      }

      .cls-26 {
        fill: #f37b7f;
        opacity: .68;
      }

      .cls-27 {
        fill: #377ca3;
      }

      .cls-28 {
        fill: #878787;
      }

      .cls-29 {
        fill: #ee213d;
      }

      .cls-30 {
        fill: #febf10;
      }

      .cls-31 {
        opacity: .6;
      }

      .cls-32 {
        fill: #a05f4a;
      }

      .cls-33 {
        fill: #41a848;
      }

      .cls-34 {
        fill: #cd9468;
      }

      .cls-35 {
        fill: #999;
      }
    </style>
    <linearGradient id="linear-gradient" x1="4445.48" y1="-2344.09" x2="5469.05" y2="-2344.09" gradientTransform="translate(3021.15 -4742.19) rotate(90) scale(1 -1)" gradientUnits="userSpaceOnUse">
      <stop offset="0" stop-color="#f1ece1"/>
      <stop offset=".18" stop-color="#efe9de" stop-opacity=".99"/>
      <stop offset=".33" stop-color="#e9e1d5" stop-opacity=".97"/>
      <stop offset=".46" stop-color="#dfd5c6" stop-opacity=".94"/>
      <stop offset=".59" stop-color="#d0c3b1" stop-opacity=".88"/>
      <stop offset=".72" stop-color="#beab95" stop-opacity=".82"/>
      <stop offset=".84" stop-color="#a78f74" stop-opacity=".74"/>
      <stop offset=".95" stop-color="#8d6d4d" stop-opacity=".64"/>
      <stop offset="1" stop-color="#825f3c" stop-opacity=".6"/>
    </linearGradient>
  </defs>
  <g class="cls-18">
    <g id="Layer_1" data-name="Layer 1">
      <polyline class="cls-1" points="1518.2 825.43 1518.2 -255.67 -124.12 -261.35 -131.34 838.22"/>
      <polyline class="cls-21" points="1518.2 723.48 -164.07 723.48 -164.07 -300.09 1518.2 -300.09"/>
      <path class="cls-30" d="M945.8,358.43c-1.93,11.54-8.66,24.88-19.23,39.04-58.26,78.04-233.21,180.79-365.12,141.73-155.84-46.15-204.46-213.12-204.46-213.12l15.85-9.25,15.77-9.21,10.29-6.01s78.64,51.41,190.13,81.6c129.41,35.04,300.32-46.41,324.7-58.55,1.14-.57,1.96-.98,2.44-1.23.34-.17.5-.26.5-.26l29.13,35.27Z"/>
      <path class="cls-22" d="M398.89,301.6l-41.91,24.48-17.45-13.77-14.67-11.57s13.29-18.93,31.5-28.36c5.87-3.05,12.25-5.1,18.86-5.22l23.68,34.45Z"/>
      <path class="cls-20" d="M398.89,301.6l-41.91,24.48-17.45-13.77s25.4-.47,31.62-13.67c5.98-12.72-13.1-25.22-14.79-26.26,5.87-3.05,12.25-5.1,18.86-5.22l23.68,34.45Z"/>
      <path class="cls-24" d="M945.8,358.43c-12.6,75.13-228.51,226.92-384.35,180.77-155.84-46.15-204.46-213.12-204.46-213.12l15.85-9.25c.49.45.98.93,1.48,1.46,0,0,76.22,219.16,306.79,167.08,130.87-29.56,208.37-93.47,232.63-160.71,1.93-.96,2.94-1.49,2.94-1.49l29.13,35.27Z"/>
      <path class="cls-22" d="M916.16,323.42s-7.32,13.16,2.02,25.7c14.06,18.87,27.62,9.32,27.62,9.32,0,0,2.68-26.99-29.64-35.02Z"/>
      <path class="cls-15" d="M916.16,323.42c-36.31,41.01-92.46,82.57-178.81,107.43-216.76,62.43-348.75-123.24-348.75-123.24l10.29-6.01s78.64,51.41,190.13,81.6c129.41,35.04,300.32-46.41,324.7-58.55,1.14-.57,1.96-.98,2.44-1.23Z"/>
      <rect class="cls-5" x="-136.34" y="543.03" width="1707.39" height="535.99"/>
      <g>
        <path class="cls-6" d="M719.95,324.8l-16.5,54c-2.98,9.74,4.31,19.58,14.49,19.58h14.81l.3,129.07c.05,19.89,16.18,35.99,36.07,35.99h98.88c20.57,0,37.23-16.71,37.16-37.28l-.41-127.78h14.76c11.73,0,20.18-11.26,16.89-22.52l-17.07-58.51c-4.29-14.7-17.77-24.81-33.08-24.81h-122.71c-20.05,0-37.75,13.1-43.61,32.27Z"/>
        <path class="cls-6" d="M717.64,398.38h202.2v145.37c0,10.88-10.42,19.69-23.28,19.69h-156.82c-12.37,0-22.4-8.49-22.38-18.96l.28-146.11Z"/>
        <path class="cls-9" d="M736.45,380.19l152.93-.15c17.23-.02,34.48-.05,29.61-16.58l-11.42-38.82c-3.42-11.62-14.09-19.61-26.2-19.61h-111.54c-16.14,0-30.6,9.96-36.35,25.04l-11.36,39.92c-3.79,9.95,3.67,10.21,14.32,10.2Z"/>
        <g>
          <path class="cls-25" d="M919.83,366.85c-.23,1.13.2,3.43-.36,4.53-6.13,12.19-23.6,8.61-35.39,8.81-34.22.57-117.57,1.61-151.97.89-16.71-.35-9.98-11.09-4.43-26.35,2.6-7.16,5.26-14.81,12.14-18.06-1.92-5.36,1.1-11.48,5.65-14.9,4.55-3.41,10.3-4.72,15.87-5.87-5.49-23.89,40.56-34.03,56.05-31.23,19.25,3.48,32.69,17.29,50.95,22.46,8.05,2.28,16.51,4.44,22.77,9.97,6.27,5.54,9.39,15.69,4.39,22.4,9.11,3.88,26.21,18.22,24.32,27.36Z"/>
          <path class="cls-10" d="M910.34,362c-.23,1.13-.62,2.26-1.17,3.36-6.13,12.19-27.25,13.31-39.03,13.51-34.22.57-64.91-6.17-99.31-6.9-16.71-.35-44.73,5.14-43.47-17.66.42-7.6,5.26-14.81,12.14-18.06-1.92-5.36,1.1-11.48,5.65-14.9,4.55-3.41,10.3-4.72,15.87-5.87-5.49-23.89,40.56-34.03,56.05-31.23,11.49,2.07,22.51,8.33,32.25,14.07-.29.45-.67.53-1.19.53-6.1-.05-12.2-.6-18.22-1.63-2.43-.42-4.9-.92-7.34-.53-2.43.39-4.87,1.87-5.6,4.22-.76,2.46.49,5.08,2.02,7.15,5.55,7.46,14.77,11.21,23.82,13.34-15.09,3.24-30.72-.2-46.16-.34-.99,0-2.15.08-2.7.9-.73,1.08.12,2.5.98,3.47,5.85,6.58,14.06,11.01,22.76,12.31,5.55.83,11.49.49,16.41,3.19-13.96.88-27.93,1.77-41.89,2.65-2.12.13-4.87.88-4.94,3-.03.91.51,1.74,1.08,2.45,3.29,4.12,8.1,6.73,13.01,8.67,11.17,4.41,23.27,5.82,35.24,6.68,19.69,1.42,39.77,1.43,58.83-3.73,2.86-.77,5.75-1.69,8.12-3.48,2.37-1.78,4.15-4.58,3.99-7.54.08,1.47,1.97,3.51,2.42,5.03.7,2.33.86,4.95.37,7.33Z"/>
          <g class="cls-31">
            <path class="cls-16" d="M764.6,302.29c-11.62,5.87,3.06,16.43,9.35,19.82,25.58,11.8,53.56,18.31,81.69,19.52,12.53.53,25.1.03,37.55-1.56-12.41,2.03-25.01,2.86-37.58,2.5-28.29-.86-56.53-7.43-82.02-19.79-6.45-3.52-20.96-14.85-8.98-20.49h0Z"/>
            <path class="cls-16" d="M744.06,324.01c-3.81.97-5.27,5.65-4.31,9.12,1.06,3.63,4.12,6.18,7.21,8.13,6.38,3.9,13.21,7.08,20.29,9.5,14.18,4.92,29.05,7.41,43.92,9.2,14.9,1.78,29.83,3.66,44.82,4.15,14.96.49,30.16-.81,44.32-5.96-14.03,5.58-29.33,7.21-44.34,6.9-15.06-.29-30-2.18-44.95-3.88-14.9-1.9-29.88-4.37-44.08-9.53-7.1-2.55-13.93-5.84-20.3-9.88-3.11-2.08-6.19-4.8-7.18-8.56-.89-3.57.71-8.3,4.6-9.19h0Z"/>
            <path class="cls-16" d="M812.73,299.83c-.05,5.17,5.33,7.77,9.38,9.7,4.36,2.04,8.89,3.69,13.53,4.96,6.96,1.87,14.18,2.91,21.4,2.95,2.42.08,4.83-.07,7.25-.18-2.39.39-4.81.66-7.24.78-7.31.36-14.66-.46-21.73-2.37-6.39-1.93-23.8-7.42-22.59-15.84h0Z"/>
          </g>
        </g>
      </g>
      <path class="cls-30" d="M640.52,608.89c-8.91,7.59-22.64,13.47-39.85,17.51-94.82,22.23-294.85-11.72-370.67-126.52-89.57-135.62-19.32-294.71-19.32-294.71l18.09,3.12,18,3.1,11.74,2.02s27.1,89.96,93,184.82c76.49,110.11,259.72,157.76,286.2,164.16,1.24.3,2.13.51,2.66.63.37.08.55.13.55.13l-.41,45.75Z"/>
      <path class="cls-22" d="M258.51,213.41l-47.83-8.24-4.49-21.77-3.78-18.3s22.36-5.93,42.36-1.44c6.45,1.45,12.66,3.98,17.79,8.14l-4.05,41.61Z"/>
      <path class="cls-20" d="M258.51,213.41l-47.83-8.24-4.49-21.77s19.75,15.99,33,9.88c12.77-5.88,6.2-27.73,5.58-29.62,6.45,1.45,12.66,3.98,17.79,8.14l-4.05,41.61Z"/>
      <path class="cls-24" d="M640.52,608.89c-57.99,49.39-320.94,26.61-410.51-109.01-89.57-135.62-19.32-294.71-19.32-294.71l18.09,3.12c.08.66.15,1.34.19,2.07,0,0-82.71,216.79,127.27,325.32,119.19,61.6,219.64,62.57,281.48,26.71,2.1.51,3.21.75,3.21.75l-.41,45.75Z"/>
      <path class="cls-22" d="M640.37,563.02s-14.08,5.36-15,20.97c-1.39,23.5,15.14,24.91,15.14,24.91,0,0,19.42-18.93-.15-45.87Z"/>
      <path class="cls-15" d="M640.43,563.07c-54.19,8.02-123.92,3.68-206.03-32.86-206.11-91.74-187.63-318.82-187.63-318.82l11.74,2.02s27.11,89.97,93.02,184.85c76.5,110.13,259.76,157.79,286.24,164.19,1.24.3,2.13.51,2.66.63Z"/>
      <g>
        <path class="cls-29" d="M1109.39,592.74c-51.41,38.16-98.02,12.59-98.02,12.59,0,0-41.34,14.33-81.84-24.39-2.37-2.26-4.73-4.7-7.09-7.34-23.84-26.73-33.03-74.29-25.38-113.31,6.01-30.72,22.47-56.16,50.42-61.95,42.84-8.87,65.95,3.93,76.44,13.19,5.05,4.46,7.18,8.1,7.18,8.1,0,0,6.16-6.06,18.47-10.25,3.51-1.2,7.51-2.23,12.02-2.94h0c9.35-1.47,20.83-1.5,34.47,1.56,7.46,1.67,15.56,4.26,24.3,8.04,59.47,25.73,40.42,138.54-10.99,176.69Z"/>
        <path class="cls-14" d="M1035.04,432.81c-17.21-.21-16.81-15.85-16.81-15.85,2.04-2.47,2.37-3.81,5.7-5.42,5.05,4.46,7.18,8.1,7.18,8.1,0,0,6.16-6.06,18.47-10.25,1.65,8.06,3.13,23.64-14.55,23.43Z"/>
        <path class="cls-26" d="M1009.38,407.98s-46.8-14.42-80.08,9.18c-26.1,18.51-31.92,82.88-4.83,107.71,0,0-10.27-59.29,15.49-87.32,28.6-31.12,69.42-29.57,69.42-29.57Z"/>
        <path class="cls-33" d="M1032.65,417.89s-23.4.71-33.04-2.68c-4.86-1.71-4.13-5.04-2.21-7.92,1.89-2.84,4.94-5.25,4.94-5.25,0,0-20.2,2.07-26.45-4.18-.22-.22-.43-.45-.61-.68-4.72-5.95,7.31-10.95,7.31-10.95,0,0-14.32-.1-20.36-4.46-1.39-1-2.35-2.24-2.58-3.74-.59-3.82,2.47-6.11,5.84-7.45,3.74-1.49,7.86-1.83,7.86-1.83,0,0-2.16-2.89-4.06-6.72-.8-1.63-1.57-3.44-2.09-5.27-1.4-4.9-1.1-9.96,4.5-12.3,10.46-4.37,21.75,6.32,25.29,10.07.67.71,1.06,1.17,1.12,1.24-.03-.13-.65-2.42-.71-4.96h0c-.04-1.52.11-3.1.7-4.39.77-1.67,2.26-2.82,5.02-2.54.27.03.55.09.83.18,1.68.52,3.52,2.08,5.4,4.24h0c2.96,3.41,6.01,8.33,8.64,13.09,4.19,7.59,7.32,14.79,7.32,14.79,0,0-.04-3.85,2.15-5.4,1.17-.82,2.96-1,5.72.39,1.8.91,2.76,3.8,3.17,7.73,1.39,13.43-3.7,39-3.7,39Z"/>
        <path class="cls-7" d="M1014.31,392.45s-23.19-11.77-52.08-10.69c-1.39-1-2.35-2.24-2.58-3.74-.59-3.82,2.47-6.11,5.84-7.45,11.13.42,26.49,2.61,41.71,10.02l7.1,11.86Z"/>
        <path class="cls-7" d="M1018.21,391.98l-9.3-10.23c-1.98-12.32-1.23-23.9.44-33.45,2.96,3.41,6.01,8.33,8.64,13.09-2.12,17.48.22,30.59.22,30.59Z"/>
        <path class="cls-7" d="M999.9,372.45s-16.56-6.92-30.6-10.44c-.8-1.63-1.57-3.44-2.09-5.27,7.43,1.05,19.6,3.62,29.84,9.77.87.52,1.73,1.07,2.57,1.64l.13,1.99.15,2.31Z"/>
        <path class="cls-7" d="M1001.1,370.9l-1.35-.76-2.4-1.35c-.12-.76-.22-1.52-.29-2.28-.44-4.03-.4-8.09-.06-11.99.67.71,1.06,1.17,1.12,1.24-.03-.13-.65-2.42-.71-4.96h0c.2-1.51.44-2.98.7-4.39.77-1.67,2.26-2.82,5.02-2.54.27.03.55.09.83.18-2.15,12.99-2.86,26.86-2.86,26.86Z"/>
        <path class="cls-7" d="M1024.85,409.71c-8.29-2.77-18.66-3-27.45-2.43,1.89-2.84,4.94-5.25,4.94-5.25,0,0-20.2,2.07-26.45-4.18-.22-.22-.43-.45-.61-.68,18.36-3.75,45.41,5.26,45.41,5.26l4.16,7.28Z"/>
        <path class="cls-7" d="M1028.95,407.79l-5.56-6.28s.09-15.94,4.07-30.74c1.17-.82,2.96-1,5.72.39,1.8.91,2.76,3.8,3.17,7.73-3.68,8.5-7.37,19.38-7.41,28.9Z"/>
        <path class="cls-8" d="M1034.46,415.58c-2.03-5.63-20.49-38.57-45.29-56.6,0,0,28.88,34.32,39.43,58.36.66,1.51,2.12,2.57,3.74,2.31.78-.13,1.53-.53,2-1.44.42-.81.42-1.78.11-2.64Z"/>
        <path class="cls-2" d="M1139.6,352.38c-.26,2.74-1.21,5.54-2.92,8.42,0,0-72.11-20.16-98.38,59.26,0,0-7.01,8.86-9.49-1.36,0,0-.57-16.88,9.15-35.09,11.61-21.76,37.93-45.43,97.51-44.43,3.09,4.24,4.56,8.63,4.11,13.2Z"/>
        <path class="cls-22" d="M1139.6,352.38c-.26,2.74-1.21,5.54-2.92,8.42,0,0-72.11-20.16-98.38,59.26,0,0-7.01,8.86-9.49-1.36,0,0-.57-16.88,9.15-35.09-.34,5.9,2.84,9.28,9.47,2.08,11.68-12.69,26.88-28.57,56.29-33.92,19.78-3.59,30.79-1.29,35.87.6Z"/>
      </g>
      <g>
        <g>
          <path class="cls-35" d="M1289.15,653.25c-1.16-4.58-3.88-8.45-7.84-11.02-3.14-2.04-6.55-3.61-9.78-5.51-2.03-.69-4.08-1.3-6.1-1.84-6.7-1.77-13.55-2.81-20.42-3.67-27.03-3.36-54.36-3.64-81.53-2.2-27.64,1.47-55.15,4.73-82.55,8.52-27.57,3.82-55.04,8.32-82.7,11.5-14.33,1.64-28.69,3.01-43.07,4.05-9.59.7-19.21,1.4-28.82,1.72-4.03.12-8.06.23-12.09.31-3.1.07-6.21-.11-9.19-.9-5.17-.21-10.34-.52-15.47-1.13-13.13-1.56-26.04-5.11-38.73-8.72-13.04-3.71-25.9-7.98-38.67-12.5-8.66-3.07-17.32-6.1-26.13-8.69-17.71-5.2-36.05-9.04-54.57-9.01-17.9.03-35.9,4.2-50.69,14.62-6.04,4.26-11.91,9.65-14.17,16.92-1.06,3.4-1.21,6.9-.68,10.33-.98,5.67-1.05,11.41.52,17.18,2.61,9.64,8.79,17.5,15.9,24.29,17.95,17.16,42.09,27.67,66.42,31.75,24.28,4.07,49.29,2.08,73.31-2.75,11.82-2.38,23.13-6.13,34.04-11.29,4.86-2.29,9.58-4.84,14.26-7.45,5.51-1.83,10.69-4.51,15.85-7.16,6.7-3.44,13.44-6.63,20.58-9.07,7.42-2.54,15.02-4.67,22.84-5.47,7.39-.75,14.84-.44,22.25,0,7.49.44,14.98,1.01,22.48.88,8.47-.15,16.93-.43,25.4-.57,16.92-.27,33.84-.32,50.76-.29,33.91.06,67.82.44,101.73.12,16.83-.16,33.66-.5,50.47-1.13,14.89-.56,29.86-1.04,44.55-3.63,10.64-1.88,20.84-4.78,30.05-10.54,3.67-2.29,8.67-5.84,11.49-10.13.76-2.38.99-4.88.31-7.55Z"/>
          <path class="cls-28" d="M1276.88,667.45c-8.59,5.84-18.11,8.85-28.26,10.76-14.45,2.73-29.19,3.29-43.85,3.84-16.47.62-32.94.98-49.41,1.16-33.1.35-66.2,0-99.3-.09-16.51-.04-33.03-.02-49.55.19-15.84.2-31.7,1.11-47.54.16-7.23-.43-14.46-.98-21.71-.81-7.39.17-14.57,1.2-21.71,3.11-7.17,1.92-14.19,4.33-20.94,7.39-6.57,2.98-12.79,6.61-19.19,9.93-.41.21-.84.4-1.26.61-.05-.45-.11-.89-.16-1.34-2.55,1.53-5.1,3.04-7.7,4.47-10.24,5.61-20.88,10.57-32.08,13.92-11.46,3.44-23.55,5.33-35.43,6.64-12.13,1.33-24.39,1.71-36.56.72-24.4-1.99-48.89-10.19-68.46-25.14-9.27-7.08-18.46-15.88-22.81-26.94-1.55-3.94-2.35-8.14-2.68-12.41,5.86,12.72,17.82,22.43,29.31,29.9,15.28,9.93,32.67,16.01,50.44,19.76,9.12,1.93,18.37,3.16,27.68,3.82,5,.21,10,.27,15,.1,11.49-.39,23.02-1.57,34.36-3.42,11.11-1.81,22.07-4.75,32.45-9.14,5.37-2.27,10.52-5,15.92-7.23,5.24-2.17,10.61-3.95,15.93-5.93,3.91-1.46,7.82-2.97,11.77-4.34,5.32-2.07,10.8-3.75,16.42-4.95,7.42-2.24,15.15-3.47,22.87-3.9,7.54-.42,30.85,1.51,34.92,1.48,19.68-.16,39.36-.52,59.04-.69,19.19-.17,38.38.33,57.57.7,19.18.37,38.37.61,57.54-.07,18.95-.67,37.95-.91,56.86-2.34,8.9-.67,17.77-1.74,26.61-2.95,8.13-1.11,16.25-2.44,24.2-4.5,7.37-1.91,15.05-4.37,21.56-8.42,2.12-1.32,4.21-2.96,5.74-4.98.89-.79,1.63-1.59,2.24-2.38.05-.14.08-.27.12-.4.19,1.45-.02,2.97-.82,4.55-1.95,3.87-5.62,6.8-9.14,9.19Z"/>
          <path class="cls-3" d="M865.21,670.68c-2.5-7.35-8.94-12.32-15.45-16.05-6.9-3.93-14.38-6.65-21.5-10.12-19.41-9.48-40.16-16.01-61.28-20.44-11.31-2.37-22.49-3.87-34.04-4.25-4.43-.15-8.85-.37-13.28-.07-3.93.26-8.09.88-11.33,3.26-.26.19.08.36.28.26,6.95-3.58,15.43-2.21,22.9-1.7,9.47.64,18.66,1.78,27.97,3.69,20.03,4.1,39.9,9.58,58.64,17.87,7.21,3.19,14.38,6.54,21.53,9.85,6.82,3.16,14.17,6.83,18.87,12.91,4.62,5.96,5.39,13.78,1.4,20.26-3.94,6.4-10.88,10.66-17.63,13.57-9.24,3.97-19.2,6.54-29.05,8.43-10.49,2.02-21.05,2.69-31.63,3.91-.58.07-.69.84-.02.84,9.9.13,20.01-1.17,29.76-2.75,9.76-1.57,19.57-3.72,28.97-6.8,13.32-4.38,30.41-16.47,24.9-32.66Z"/>
          <path class="cls-12" d="M830.17,706.42c.2-.07.39-.09.57-.09,4.5-1.53,8.98-3.13,13.45-4.76.68-.58,1.39-1.14,2.1-1.68,2.63-1.99,5.19-4,7.59-6.27,3.94-3.73,7.73-8.11,9.08-13.49,3.4-13.6-9.71-24.04-19.88-30.29-12.35-7.61-26.09-12.92-39.82-17.47-22.66-7.5-46.7-12.73-70.66-12.6-12.09.06-24.64,1.5-35.69,6.68-5.88,2.76-10.84,6.8-15.18,11.59-4.03,4.46-7.68,9.24-11.93,13.5-.16.16-.36.24-.55.33,0,.95.03,1.9.17,2.86.89,6.3,4.22,11.95,8.13,16.85,8.62,10.82,20.62,19.31,32.82,25.65,18.49,9.62,39.68,14.49,60.31,16.53.44.04.87.06,1.31.11,3.56-.37,7.13-.69,10.7-1.01,15.16-1.32,30.41-2.6,45.2-5.8.77-.21,1.54-.4,2.3-.65Z"/>
          <path class="cls-28" d="M1243.45,668.34c-24.18,3.14-48.61,2.13-72.91,1.87-45.82-.5-91.65.01-137.48-.55-20.9-.25-41.79-1-62.69-1.43-19.95-.41-39.99-.34-59.83,2.07-9.78,1.19-19.39,3.06-28.92,5.55-2.2.57-4.7,1.35-6.88.29-2.67-1.3-4.42-4.44-6.25-6.64-4.17-5.01-8.94-9.71-14.15-13.62-.62-.46-1.3-.95-2-1.43,2.18,2.52,4.05,5.28,5.36,8.14,1.16,2.53,1.9,5.55.75,8.22-1.34,3.11-4.92,4.69-8.1,5.11-7.1.92-13.97-5.21-19.06-9.33-2.83-2.29-5.59-4.77-8.66-6.75-2.59-1.67-5.52-2.91-8.34-4.14-13.48-5.89-27.93-9.67-42.48-11.76-28.11-4.03-63.66-2.49-83.43,20.97-.74.87-2.06.66-2.68-.2-3.25-4.46-5.37-9.66-5.63-15.21-.35-7.69,2.63-14.96,6.7-21.39-4.49,2.67-8.68,5.88-11.98,9.75-4.03,4.71-6.25,10.65-5.37,16.88.89,6.3,4.22,11.95,8.13,16.85,8.62,10.82,20.62,19.31,32.82,25.65,18.49,9.62,39.68,14.49,60.31,16.53,12.78,1.26,25.67,1.34,38.49.45,8.75-1.95,17.76-2.36,26.52-4.32,9.27-2.07,17.84-6.15,26.5-9.92,7.65-3.33,15.3-6.68,23-9.88,2.92-1.21,5.87-2.37,8.83-3.48,10.8-5.01,22.65-8.02,34.35-9.25,8.53-.89,17.16-.52,25.72-.55,9.62-.03,19.24-.1,28.86-.19,19.25-.18,38.51-.61,57.76-.64,18.84-.03,37.68.49,56.51.83,18.7.34,37.41.45,56.1-.29,18.59-.73,37.22-.87,55.77-2.39,8.49-.7,16.94-1.73,25.37-2.9,8.18-1.14,16.34-2.54,24.3-4.77,4.36-1.22,8.98-2.64,13.24-4.64-9.15,3.42-18.93,5.27-28.55,6.52Z"/>
        </g>
        <path class="cls-19" d="M864.43,680.22c2.89-7.75.68-15.44-5.5-20.72-.49-6.05-4.73-10.85-9.76-14.27-3.12-2.11-6.58-3.78-10.12-5.09-2.19-6.74-9.44-11.79-15.16-15.09-9.57-5.5-20.69-7.41-30.53-12.35-5.67-2.85-13.93-8.11-14.23-15.29-.28-6.72,9.35-8.98,14.34-10.23.59-.15,1.44-.97.53-1.39-6.1-2.89-13.5-1.62-19.72.2-6.86,2.02-13.79,5.25-19.26,9.92-1.33,1.13-2.51,2.42-3.54,3.8-2.08-.75-4.59-.72-6.71-.47-2.62.31-5.21,1.11-7.61,2.19-2.46,1.1-4.77,2.49-6.93,4.11-1.04.78-2.05,1.6-3.02,2.46-.88.78-2.12,1.69-2.72,2.73-1.47-.26-2.96-.45-4.47-.51-2.9-.11-5.83.27-8.7.58-2.73.29-5.47.73-8.05,1.68-4.77,1.75-9.01,5.17-10.95,9.93-7.84,1.3-16.76,2.77-21.95,9.39-6.19,7.88-3.66,18.12.44,26.28,4.77,9.48,10.85,17.9,18.77,24.99,8.23,7.37,17.77,12.87,27.9,17.19,21.1,9,44.15,12.62,67,12.46,21.94-.15,44.45-3.51,63.7-14.65,7.09-4.1,13.31-10.04,16.23-17.86Z"/>
        <path class="cls-25" d="M850.05,694.39c-8.24,5.75-18.13,9.41-27.79,11.97-10.16,2.7-20.56,3.88-31.04,4.28-21.19.8-42.62-1.5-62.74-8.36-19.83-6.76-38.82-18-50.31-36.03-5.33-8.37-11.39-18.74-8.38-28.98,2.86-9.72,13.46-12.16,22.24-14.08-1.47,4.27-.86,8.72.72,12.84.02-2.51.06-5.03.46-7.51.18-1.1.45-2.16.79-3.18.18-.7.39-1.39.67-2.06,2-4.79,6.57-8.1,11.5-9.4,2.31-.61,4.71-.83,7.07-1.05,2.78-.25,5.52-.55,8.31-.26.7.07,1.38.21,2.07.32,2.06-.14,4.12-.19,6.18-.1,1.47.06,2.94.2,4.41.39-2.48-.68-4.96-1.38-7.46-1.95.67-.58,1.3-1.26,1.93-1.85.89-.81,1.8-1.6,2.76-2.34,1.96-1.52,4.06-2.88,6.28-3.99,2.15-1.08,4.46-1.9,6.83-2.3,2.15-.37,4.21-.26,6.34-.21-2.13,3.19-3.36,6.91-3.04,10.87.47,5.79,3.94,10.96,8.08,14.83,2.83,2.64,6.08,4.83,9.6,6.42,1.55.13,3.12.11,4.68-.07-8.72-3.04-17.23-9.83-19.61-18.7-3.5-13.07,9.98-21.25,20.31-25.18,5.89-2.24,13.45-4.35,19.78-2.39-4,1.06-8.12,2.47-11.13,5.28-4.04,3.77-3.03,8.86-.07,13,6.94,9.73,20.18,13.11,30.88,16.81,8.26,2.85,16.46,6.72,22.46,13.3,2.55,2.8,4.84,6.49,4.52,10.43-.43,5.26-5.05,9.15-9.43,11.39-6.32,3.23-13.73,4.28-20.75,4.47-3.32.08-7.03.14-10.65-.25-1.7.03-3.4.05-5.11,0,3.05.91,6.29,1.29,9.49,1.44,6.08.28,12.27.05,18.23-1.2,8.53-1.78,21.67-7.34,20.53-18.15-.04-.32-.15-.61-.21-.92,6.36,3.93,13.88,7.53,15.95,15.27.2.75.29,1.49.35,2.23-.17.25-.17.52.05.8.03,1.32-.13,2.63-.43,3.92-.05,3.72-1.24,7.18-3.11,10.31,1.22-1.05,2.31-2.28,3.22-3.49,1.72-2.29,2.8-5,3.25-7.83,3.6,4.21,4.95,9.51,3.33,15.24-1.82,6.48-6.57,12.18-12.02,15.99Z"/>
        <path class="cls-11" d="M821.3,677.48c-10.04,9.55-26,10.81-39.23,9.61-7.31-.66-14.55-2.18-21.49-4.55-10.95-3.75-21.67-8.74-30.86-15.84-3.81-2.94-7.61-6.25-10.9-9.9-2.47-2.24-4.73-4.7-6.94-7.31-.4-.47-.81-.95-1.22-1.45.54,1.59,1.15,3.15,2.01,4.61,2.98,5.06,7.29,9.26,11.63,13.14,9.04,8.07,20.09,13.55,31.38,17.74,15.44,5.73,33.4,8.65,49.61,4.59,2.51-.63,4.95-1.48,7.28-2.51,3.35-2.16,6.46-4.87,8.72-8.12Z"/>
      </g>
      <rect class="cls-27" x="717.64" y="398.38" width="202.2" height="9.41"/>
      <g>
        <g>
          <g>
            <path class="cls-4" d="M224.07,615.96s-31.4-14.76-70.72-.04c-39.33,14.73-44.01,39.52-36.11,63.07s44.22,24.4,64.6,9.57c20.39-14.83,40.04-57.99,42.64-64.25,2.6-6.25,4.83-7.48-.41-8.36Z"/>
            <path class="cls-32" d="M118.01,658.19s10.28-30.99,50.05-38.74c39.77-7.75,50.38.21,50.38.21,0,0-26.44-6.45-57.54,4.58-31.1,11.02-42.89,33.95-42.89,33.95Z"/>
            <path class="cls-32" d="M193.44,626.1s-44.51,5.13-70.69,38.58c0,0,33.45-29.14,70.69-38.58Z"/>
            <path class="cls-32" d="M212.1,624.79s-53.99,34.19-87.56,51.95c0,0,39.6-15.91,87.56-51.95Z"/>
            <path class="cls-32" d="M220.56,623.13s-34.44,41.66-73.48,52.3c0,0,38.88-3.27,73.48-52.3Z"/>
            <path class="cls-32" d="M210.63,643.92s-30.07,50.6-78.52,43.42c0,0,38.93,18.43,78.52-43.42Z"/>
          </g>
          <path class="cls-23" d="M227.04,617.16c-.7,1.24-29.41,51.57-63.61,63.07-31.1,10.45-45.49-4.85-48.1-8.08.51,2.29,1.15,4.58,1.92,6.85,7.9,23.55,44.22,24.4,64.6,9.57,20.39-14.83,40.04-57.99,42.64-64.25,1.26-3.03,2.41-4.86,2.69-6.06l-.09-1.05s-.03-.03-.04-.05Z"/>
        </g>
        <g>
          <g>
            <path class="cls-34" d="M156.4,715.61s21.1-27.54,62.79-32.54c41.69-5,57.26,14.87,61.06,39.42,3.81,24.55-28.05,41.99-52.97,38.2-24.92-3.79-62.22-33.1-67.4-37.46-5.18-4.36-7.73-4.42-3.48-7.62Z"/>
            <path class="cls-32" d="M270,704.36s-23.38-22.8-62.26-11.4c-38.88,11.4-44.64,23.35-44.64,23.35,0,0,20.51-17.88,53.2-22.39,32.69-4.51,53.69,10.44,53.69,10.44Z"/>
            <path class="cls-32" d="M188.26,710.54s41.89-15.9,80.51,1.77c0,0-43.1-10.5-80.51-1.77Z"/>
            <path class="cls-32" d="M171.09,717.95s63.66,5.55,101.65,5.89c0,0-42.48,4.08-101.65-5.89Z"/>
            <path class="cls-32" d="M162.82,720.36s49.74,21.17,89.3,12.68c0,0-36.03,14.97-89.3-12.68Z"/>
            <path class="cls-32" d="M181.19,734.26s49.96,31.11,89.69,2.46c0,0-26.1,34.26-89.69-2.46Z"/>
          </g>
          <path class="cls-23" d="M280.25,722.49c-.38-2.47-.89-4.89-1.53-7.24-3.37,10.48-12.28,22.76-35.34,25.68-41.95,5.3-86.99-25.31-86.99-25.31-4.25,3.19-1.7,3.26,3.48,7.62,5.18,4.36,42.47,33.67,67.4,37.46,24.92,3.79,56.78-13.65,52.97-38.2Z"/>
        </g>
      </g>
      <g>
        <g>
          <g>
            <path class="cls-4" d="M317.72,750.89s33.3,9.74,69.88-10.88c36.58-20.62,37.39-45.84,25.95-67.89-11.44-22.05-47.45-17.28-65.31.51-17.86,17.79-30.61,63.48-32.21,70.06-1.6,6.58-3.62,8.14,1.69,8.2Z"/>
            <path class="cls-32" d="M416,692.81s-5.38,32.21-43.48,46c-38.1,13.79-49.81,7.56-49.81,7.56,0,0,27.11,2.29,56.14-13.4,29.03-15.69,37.14-40.16,37.14-40.16Z"/>
            <path class="cls-32" d="M346.42,736.14s43.18-11.94,63.89-49.02c0,0-28.55,33.95-63.89,49.02Z"/>
            <path class="cls-32" d="M328.18,740.31s48.07-42.11,78.5-64.84c0,0-36.67,21.82-78.5,64.84Z"/>
            <path class="cls-32" d="M320.09,743.26s27.6-46.48,64.53-63.01c0,0-37.91,9.22-64.53,63.01Z"/>
            <path class="cls-32" d="M326.69,721.19s21.9-54.63,70.88-55.01c0,0-41.31-12.2-70.88,55.01Z"/>
          </g>
          <path class="cls-23" d="M314.6,750.16c.5-1.34,21.1-55.49,53.12-72.13,29.11-15.13,45.7-2.22,48.77.57-.86-2.18-1.84-4.35-2.95-6.48-11.44-22.05-47.45-17.28-65.31.51-17.86,17.79-30.61,63.48-32.21,70.06-.77,3.18-1.63,5.17-1.72,6.4l.25,1.02s.04.03.05.05Z"/>
        </g>
        <g>
          <g>
            <path class="cls-34" d="M369.21,641.99s-16.6,30.47-57.02,41.84c-40.42,11.37-58.86-5.85-66.41-29.52-7.55-23.67,21.24-45.82,46.45-45.91,25.21-.1,66.58,23.1,72.37,26.61,5.79,3.51,8.32,3.18,4.62,6.99Z"/>
            <path class="cls-32" d="M258.7,670.63s26.61,18.92,63.27,1.66c36.66-17.26,40.5-29.95,40.5-29.95,0,0-17.51,20.83-49.11,30.33-31.6,9.5-54.66-2.03-54.66-2.03Z"/>
            <path class="cls-32" d="M338.51,651.92s-38.93,22.17-79.82,10.67c0,0,44.2,3.73,79.82-10.67Z"/>
            <path class="cls-32" d="M354.33,641.94s-63.76,4.34-101.34,9.86c0,0,41.34-10.58,101.34-9.86Z"/>
            <path class="cls-32" d="M362.14,638.29s-52.41-13.24-90.18,1.25c0,0,33.29-20.35,90.18-1.25Z"/>
            <path class="cls-32" d="M341.84,627.39s-54.16-23.03-89,11.4c0,0,20.5-37.88,89-11.4Z"/>
          </g>
          <path class="cls-23" d="M245.78,654.3c.76,2.38,1.63,4.69,2.63,6.92,1.71-10.87,8.62-24.39,30.95-30.82,40.63-11.71,89.85,11.59,89.85,11.59,3.71-3.81,1.18-3.48-4.62-6.99-5.79-3.51-47.16-26.71-72.37-26.61-25.21.1-54,22.24-46.45,45.91Z"/>
        </g>
      </g>
      <path class="cls-34" d="M523.04,760.22s-7.01-10.79-25.9-9.17-17.27,42.08,21.04,55.03,90.64-2.7,90.1-32.91-24.28-25.69-31.29-22.29-12.86,21.21-30.17,19.59-23.78-10.25-23.78-10.25Z"/>
      <path class="cls-17" d="M534.53,767.73s-5,1.9-4.23,4.73,14,8.99,24.28,5.27,10.8-7.38,6.24-10.88c0,0-5.85,3.43-12.92,3.05s-13.37-2.16-13.37-2.16Z"/>
      <path class="cls-13" d="M556.66,689.51s-7.01-10.79-25.9-9.17-17.27,42.08,21.04,55.03,90.64-2.7,90.1-32.91-24.28-25.69-31.29-22.29-12.86,21.21-30.17,19.59-23.78-10.25-23.78-10.25Z"/>
      <path class="cls-17" d="M568.16,697.02s-5,1.9-4.23,4.73,14,8.99,24.28,5.27,10.8-7.38,6.24-10.88c0,0-5.85,3.43-12.92,3.05s-13.37-2.16-13.37-2.16Z"/>
      <path class="cls-13" d="M446.2,791.7s-7.01-10.79-25.9-9.17-17.27,42.08,21.04,55.03,90.64-2.7,90.1-32.91-24.28-25.69-31.29-22.29-12.86,21.21-30.17,19.59-23.78-10.25-23.78-10.25Z"/>
      <path class="cls-17" d="M457.69,799.21s-5,1.9-4.23,4.73,14,8.99,24.28,5.27,10.8-7.38,6.24-10.88c0,0-5.85,3.43-12.92,3.05s-13.37-2.16-13.37-2.16Z"/>
      <path class="cls-34" d="M663.22,755.54s-7.01-10.79-25.9-9.17-17.27,42.08,21.04,55.03,90.64-2.7,90.1-32.91-24.28-25.69-31.29-22.29-12.86,21.21-30.17,19.59-23.78-10.25-23.78-10.25Z"/>
      <path class="cls-17" d="M674.71,763.05s-5,1.9-4.23,4.73,14,8.99,24.28,5.27,10.8-7.38,6.24-10.88c0,0-5.85,3.43-12.92,3.05s-13.37-2.16-13.37-2.16Z"/>
    </g>
  </g>
</svg>