<?xml version="1.0" encoding="UTF-8"?>
<svg xmlns="http://www.w3.org/2000/svg" xmlns:xlink="http://www.w3.org/1999/xlink" viewBox="0 0 1334 1000">
  <defs>
    <style>
      .cls-1 {
        fill: #fff;
      }

      .cls-1, .cls-2, .cls-3, .cls-4, .cls-5, .cls-6, .cls-7, .cls-8, .cls-9, .cls-10, .cls-11, .cls-12, .cls-13, .cls-14 {
        mix-blend-mode: multiply;
      }

      .cls-15, .cls-16, .cls-13, .cls-17 {
        fill: #fcbe84;
      }

      .cls-15, .cls-18, .cls-19, .cls-20, .cls-21, .cls-22, .cls-17 {
        mix-blend-mode: screen;
      }

      .cls-23 {
        fill: #f1e9d0;
      }

      .cls-24 {
        fill: #cca9ae;
      }

      .cls-25, .cls-3, .cls-18, .cls-9 {
        fill: #ad3f3c;
      }

      .cls-26 {
        fill: #775239;
      }

      .cls-2 {
        fill: #9bbcc4;
      }

      .cls-2, .cls-4, .cls-11 {
        opacity: .42;
      }

      .cls-27 {
        fill: #6e292b;
      }

      .cls-4 {
        fill: #7598a9;
      }

      .cls-28 {
        fill: #3e3a3b;
      }

      .cls-5 {
        opacity: .5;
      }

      .cls-5, .cls-6 {
        fill: #e8c2c5;
      }

      .cls-6 {
        opacity: .41;
      }

      .cls-29, .cls-19, .cls-14 {
        fill: #535d6d;
      }

      .cls-30 {
        isolation: isolate;
      }

      .cls-31 {
        fill: #e0dec6;
      }

      .cls-31, .cls-7, .cls-32 {
        opacity: .46;
      }

      .cls-7 {
        fill: #dfe0e0;
      }

      .cls-8 {
        fill: #ecded5;
      }

      .cls-33 {
        fill: #c2765f;
      }

      .cls-34 {
        fill: url(#linear-gradient);
        opacity: .81;
      }

      .cls-9, .cls-13 {
        opacity: .61;
      }

      .cls-35 {
        fill: #5d6887;
      }

      .cls-10 {
        opacity: .47;
      }

      .cls-10, .cls-36 {
        fill: #d24640;
      }

      .cls-37 {
        fill: #ebe3e2;
      }

      .cls-38 {
        fill: #7e8183;
      }

      .cls-11 {
        fill: #738e95;
      }

      .cls-32 {
        fill: #fefbdf;
      }

      .cls-39 {
        fill: #3f4344;
      }

      .cls-40 {
        fill: #323a46;
      }

      .cls-12 {
        opacity: .58;
      }

      .cls-12, .cls-41 {
        fill: #f89920;
      }

      .cls-42 {
        fill: #cec9a0;
      }

      .cls-43 {
        fill: #575a5b;
      }

      .cls-44, .cls-22 {
        fill: #ebd5d0;
      }

      .cls-45, .cls-20 {
        fill: #b2b4b7;
      }

      .cls-46, .cls-21 {
        fill: #b62226;
      }

      .cls-22 {
        opacity: .44;
      }

      .cls-47 {
        fill: #ee2961;
      }

      .cls-17 {
        opacity: .62;
      }

      .cls-14 {
        opacity: .52;
      }
    </style>
    <linearGradient id="linear-gradient" x1="255.89" y1="1934.68" x2="1028.95" y2="1934.68" gradientTransform="translate(-1277.61 -443.42) rotate(90) scale(1 -1)" gradientUnits="userSpaceOnUse">
      <stop offset="0" stop-color="#f1ece1"/>
      <stop offset=".18" stop-color="#efe9de" stop-opacity=".99"/>
      <stop offset=".33" stop-color="#e9e1d5" stop-opacity=".97"/>
      <stop offset=".46" stop-color="#dfd5c6" stop-opacity=".94"/>
      <stop offset=".59" stop-color="#d0c3b1" stop-opacity=".88"/>
      <stop offset=".72" stop-color="#beab95" stop-opacity=".82"/>
      <stop offset=".84" stop-color="#a78f74" stop-opacity=".74"/>
      <stop offset=".95" stop-color="#8d6d4d" stop-opacity=".64"/>
      <stop offset="1" stop-color="#825f3c" stop-opacity=".6"/>
    </linearGradient>
  </defs>
  <g class="cls-30">
    <g id="Layer_1" data-name="Layer 1">
      <polyline class="cls-23" points="1498.2 659.98 1498.2 -156.54 -144.12 -160.83 -151.34 669.63"/>
      <polyline class="cls-34" points="1498.2 582.97 -184.07 582.97 -184.07 -190.09 1498.2 -190.09"/>
      <rect class="cls-26" x="-156.34" y="499.1" width="1707.39" height="537.77"/>
      <g>
        <g>
          <g>
            <path class="cls-28" d="M1258.58,509.83c.65-.52,1.3-1.04,2.04-1.42.71-.37.26-1.46-.07-1.9-1.17-1.59-2.12-2.69-1.97-4.77.17-2.32.16-4.59-.44-6.84-.76-2.84-2.05-5.52-3.3-8.12-1.25-2.62-2.36-5.3-3.58-7.93-4.36-9.36-12.08-15.86-18.98-22.75-1.92-1.92-3.93-3.67-6.16-5.13-1.87-1.22-3.9-2.12-5.76-3.36-.82-.55-1.9-1.21-2.33-2.22-.44-1.04-.24-2.32-.59-3.41-.66-2.02-2.61-3.65-4.1-4.86-1.91-1.54-3.98-2.81-6.03-4.1-2.09-1.32-4.08-2.83-6.2-4.08-4.93-2.91-10.36-4.56-15.71-6.18-4.48-1.37-9.04-2.62-13.64-3.54,4.62-.82,9.21-1.96,13.72-3.21,5.39-1.5,10.86-3.01,15.86-5.8,2.15-1.2,4.18-2.67,6.31-3.93,2.08-1.24,4.19-2.45,6.13-3.95,1.52-1.17,3.51-2.76,4.22-4.76.38-1.07.21-2.36.67-3.39.45-.99,1.55-1.63,2.38-2.16,1.89-1.2,3.93-2.04,5.83-3.22,2.26-1.4,4.32-3.11,6.28-4.98,7.07-6.72,14.95-13.03,19.53-22.27,1.29-2.6,2.46-5.26,3.77-7.84,1.31-2.57,2.67-5.21,3.5-8.03.66-2.24.72-4.5.6-6.83-.1-2.09.88-3.16,2.09-4.72.34-.43.81-1.51.11-1.9-.72-.4-1.36-.94-2-1.47,2.53-1.91,5.23-3.58,7.4-6.01.79-.89.41-2.36-.83-2.07-7.71,1.78-15.58,2.29-23.38,3.32-7.11.93-14.08,2.63-21.05,4.39-13.35,3.38-26.57,7.36-39.59,12.11-25.96,9.47-51.16,22.09-73.92,39.09-10.88,8.12-21.25,17.24-30.39,27.72-.19.2-.4.4-.58.6-.91.99-1.86,2.11-2.68,3.28-.5.61-1.01,1.2-1.49,1.81-.27.34-.14.58.08.66-.03.07-.07.13-.09.19-.62,1.56-.51,3.09-.02,4.54-.19.09-.28.33-.04.65.25.33.52.65.77.98.7,1.24,1.64,2.38,2.66,3.39,9.16,11.31,19.74,21.14,30.9,29.9,22.34,17.55,47.22,30.78,72.94,40.88,12.89,5.06,26.02,9.37,39.28,13.08,6.93,1.93,13.86,3.8,20.94,4.91,7.78,1.21,15.63,1.92,23.3,3.89,1.23.32,1.65-1.14.88-2.05-2.11-2.49-4.77-4.22-7.25-6.19Z"/>
            <path class="cls-2" d="M1239.12,511.08c-7.73-1.33-15.36-3.58-22.92-5.77-26.14-7.59-51.81-17.61-75.87-31.41-12.01-6.89-23.55-14.76-34.46-23.65-8.64-7.05-16.78-14.8-24.62-22.91.42-.36.64-.92.21-1.34-2.51-2.41-6.17-6.41-4.96-10.21.43-1.35,1.18-2.66,1.98-3.88,8.97-9.01,18.25-17.62,28.16-25.31,11.12-8.62,22.85-16.21,35.02-22.8,24.38-13.21,50.29-22.6,76.61-29.55,7.62-2.01,15.3-4.06,23.06-5.21,7.24-1.07,14.54-1.59,21.75-2.89-1.72,1.29-3.54,2.46-5.17,3.86-.47.4-1.27,1.65-.42,2.19.82.52,1.55,1.17,2.32,1.76-.78,1.02-1.53,2.11-1.87,3.35-.37,1.36-.07,2.84-.08,4.23-.05,5.16-2.78,9.56-4.95,13.92-2.28,4.58-4.16,9.14-7.39,13.04-3.02,3.64-6.57,6.66-9.95,9.85-3.76,3.56-7.24,7.18-11.77,9.52-1.98,1.02-4.05,2.02-5.76,3.54-.69.61-1.33,1.31-1.76,2.18-.51,1.04-.44,2.14-.72,3.23-.56,2.14-3,3.59-4.62,4.68-2.01,1.35-4.12,2.49-6.16,3.76-2.24,1.39-4.39,2.83-6.76,3.92-2.52,1.16-5.13,2.04-7.77,2.83-6.29,1.89-12.66,3.62-19.1,4.7-6.57,1.1-21.01,1.21-21.24,1.83-.05.1-.07.2-.08.31,0,.04-.02.08-.02.11,0,.04.01.07.02.11,0,.11.02.22.07.32.22.62,14.65,1.08,21.19,2.35,6.42,1.23,12.74,3.12,18.98,5.16,2.61.85,5.2,1.8,7.7,3.02,2.35,1.15,4.46,2.64,6.66,4.09,2.01,1.32,4.1,2.51,6.07,3.91,1.59,1.12,4,2.64,4.5,4.79.26,1.11.16,2.2.64,3.25.4.88,1.03,1.59,1.7,2.22,1.68,1.57,3.72,2.61,5.67,3.68,4.47,2.45,7.85,6.15,11.53,9.8,3.3,3.28,6.77,6.38,9.7,10.09,3.14,3.97,4.9,8.58,7.07,13.21,2.07,4.41,4.69,8.88,4.61,14.04-.02,1.39-.36,2.86-.02,4.23.31,1.25,1.03,2.36,1.79,3.4-.79.57-1.53,1.2-2.37,1.7-.86.52-.1,1.78.37,2.2,1.6,1.44,3.38,2.66,5.07,3.99-7.18-1.47-14.46-2.18-21.67-3.42Z"/>
            <g>
              <path class="cls-35" d="M1251.74,331.27c-12.33,1.5-24.44,3.74-36.43,7.03-11.87,3.26-23.53,7.24-34.93,11.86-22.8,9.23-45.12,20.35-65.6,34.02-5.6,3.74-11,7.72-16.06,12.17-5.09,4.47-9.48,9.69-14.73,13.98-.84.68-.2,1.7.73,1.07,4.63-3.13,8.15-7.66,12.21-11.45,4.57-4.26,9.44-8.18,14.57-11.75,10.04-7,20.59-13.25,31.41-18.97,21.69-11.45,44.47-21.27,68.02-28.16,13.35-3.9,27.04-7.15,40.78-9.31.29-.05.42-.52.04-.47Z"/>
              <path class="cls-35" d="M1246.12,350.94c-11.93,2.03-23.66,4.99-35.34,8.11-11.41,3.05-22.84,6.02-34.12,9.52-11.18,3.47-22.17,7.44-33.02,11.86-9.82,4-19.75,7.74-29.36,12.24-3.91,1.83-7.83,3.78-11.65,5.92,3.6-2.69,7.28-5.27,11.13-7.67,9-5.64,18.43-10.56,27.96-15.23,10.35-5.06,20.86-9.8,31.58-14.05,10.83-4.3,21.87-7.88,32.95-11.44,12.52-4.03,25.34-8.15,38.48-9.54.31-.03.44-.53.04-.5-11.74,1.14-23.08,3.89-34.38,7.2-11.21,3.29-22.35,6.83-33.26,11.01-11.26,4.31-22.3,9.17-33.15,14.41-9.58,4.63-19.06,9.49-28.14,15.05-8.24,5.06-16.27,10.78-23.48,17.31-2.67,1.94-5.23,4.01-7.61,6.27-.67.64.18,1.41.86.86.6-.49,1.23-.94,1.84-1.41.08-.03.17-.03.25-.09.15-.12.3-.22.45-.33.1-.04.2-.03.28-.11.22-.2.45-.4.67-.59,6.89-5.05,14.9-7.99,22.85-11.02,9.96-3.8,20.01-7.33,30.15-10.59,20.77-6.66,41.6-13.14,62.43-19.62,12.11-3.76,24.24-7.52,36.39-11.13.31-.09.46-.64.04-.53-21.46,5.67-42.71,12.01-63.89,18.61-21.13,6.59-42.33,13.03-63.05,20.84-4.4,1.66-8.82,3.32-13.14,5.19,3.61-2.21,7.33-4.26,11.19-6.13,9.37-4.54,19.09-8.29,28.74-12.17,10.54-4.24,21.09-8.31,31.9-11.81,11.29-3.66,22.75-6.7,34.16-9.91,12.98-3.66,25.98-7.38,39.21-10.02.3-.06.44-.56.04-.49Z"/>
              <path class="cls-35" d="M1237.14,368.46c-18.39,6.37-36.72,12.95-55.29,18.81-19.03,6-38.42,10.75-57.57,16.32-5.07,1.47-10.09,3.1-15.17,4.55-2.59.74-5.18,1.45-7.81,2.04-2.73.62-5.53.97-8.23,1.69-.53.14-1.18,1.15-.27,1.2,4.64.27,9.54-1.23,13.99-2.42,4.66-1.25,9.24-2.75,13.86-4.13,9.71-2.89,19.49-5.52,29.26-8.18,18.95-5.17,37.66-10.88,56.15-17.5,10.48-3.75,20.84-7.79,31.21-11.82.4-.16.33-.72-.14-.55Z"/>
              <path class="cls-35" d="M1232.78,365.14c-9.33,2.22-18.64,4.43-27.87,7.07-9.17,2.63-18.27,5.45-27.38,8.29-9.21,2.88-18.46,5.66-27.67,8.56-9.26,2.91-18.43,6.06-27.67,9.03-4.99,1.6-10.03,2.96-15.08,4.36-4.63,1.28-9.31,2.6-13.5,5-.81.46-.39,1.49.51,1.17,4.25-1.49,8.48-2.96,12.83-4.17,4.18-1.16,8.38-2.24,12.53-3.54,9.04-2.85,18.01-5.93,27.04-8.84,18.2-5.86,36.47-11.49,54.72-17.19,10.43-3.25,20.89-6.61,31.5-9.25.29-.07.43-.59.04-.49Z"/>
              <path class="cls-35" d="M1219.88,385.63c-15.05,4.88-30.59,8.28-46.05,11.56-15.49,3.28-31.01,6.52-46.6,9.31-4.56.82-9.14,1.55-13.74,2.17-4.59.62-9.27.81-13.83,1.62-.45.08-.89.89-.21.95,3.95.3,8.01-.25,11.94-.65,4.05-.41,8.08-.94,12.1-1.55,8.18-1.24,16.28-2.87,24.38-4.54,15.7-3.22,31.48-6.21,46.99-10.28,8.52-2.24,16.9-4.96,25.13-8.08.37-.14.31-.65-.12-.51Z"/>
              <path class="cls-35" d="M1213.55,395.68c-14.48,4.16-29.42,6.93-44.26,9.49-7.49,1.29-15,2.67-22.55,3.56-7.66.9-15.36,1.17-23.04,1.83-3.42.29-6.8.82-10.2,1.29-4.12-.2-8.22-.41-12.33-1.34-.47-.11-1.48.65-.85,1.06.64.41,1.32.73,2.03,1.01-.86-.02-1.72-.03-2.58.03-.47.03-1.21.75-.52,1.06,2.9,1.31,6.72.83,9.81.55.59-.06,1.17-.14,1.76-.21,1.64.06,3.25.08,4.75.14,6.59.28,13.14,1.14,19.74,1.39,6.84.26,13.65-.03,20.47-.44,6.57-.4,13.27-.72,19.78-1.81,7.18-1.21,13.94-4.05,21.04-5.6.28-.06.41-.52.03-.46-5.96.93-11.71,2.75-17.63,3.86-6.5,1.22-13.27,1.38-19.86,1.78-6.58.41-13.17.74-19.75.63-5.36-.09-10.69-.5-16.02-.95,6.53-.57,13.09-.76,19.61-1.38,7.69-.73,15.33-2.15,22.95-3.46,7.58-1.3,15.14-2.71,22.65-4.4,8.46-1.9,16.77-4.34,25.01-7.05.32-.1.38-.68-.04-.57Z"/>
            </g>
            <g>
              <path class="cls-35" d="M1249.58,507.94c-12.29-1.8-24.34-4.33-36.25-7.92-11.78-3.55-23.34-7.81-34.63-12.71-22.57-9.79-44.61-21.44-64.74-35.62-5.51-3.87-10.81-7.99-15.76-12.56-4.98-4.6-9.23-9.92-14.38-14.34-.82-.7-.16-1.7.75-1.05,4.55,3.24,7.96,7.86,11.93,11.75,4.47,4.37,9.23,8.41,14.27,12.11,9.87,7.24,20.26,13.75,30.93,19.73,21.4,11.97,43.93,22.35,67.32,29.82,13.25,4.23,26.85,7.81,40.53,10.31.29.05.41.53.02.47Z"/>
              <path class="cls-35" d="M1244.44,488.13c-11.88-2.32-23.53-5.57-35.14-8.98-11.33-3.33-22.68-6.57-33.87-10.35-11.1-3.74-21.99-7.98-32.72-12.66-9.72-4.23-19.55-8.22-29.05-12.95-3.87-1.92-7.74-3.97-11.51-6.21,3.54,2.77,7.16,5.44,10.94,7.94,8.85,5.86,18.16,11.01,27.58,15.91,10.22,5.32,20.62,10.31,31.22,14.82,10.72,4.56,21.67,8.41,32.66,12.24,12.42,4.33,25.13,8.76,38.23,10.48.31.04.42.54.03.5-11.71-1.42-22.98-4.45-34.19-8.04-11.12-3.56-22.18-7.37-32.98-11.82-11.15-4.59-22.07-9.71-32.8-15.22-9.46-4.87-18.82-9.95-27.76-15.74-8.11-5.26-16-11.17-23.05-17.87-2.62-2-5.13-4.14-7.46-6.46-.66-.66.21-1.41.88-.84.59.5,1.2.97,1.8,1.45.08.03.17.03.25.1.14.12.3.23.44.34.1.04.2.04.28.12.21.21.44.41.66.61,6.76,5.22,14.7,8.35,22.57,11.58,9.86,4.04,19.82,7.82,29.88,11.32,20.61,7.17,41.27,14.16,61.94,21.14,12.02,4.06,24.04,8.11,36.11,12.02.3.1.45.65.03.53-21.31-6.19-42.4-13.04-63.42-20.17-20.96-7.1-42-14.06-62.52-22.38-4.36-1.77-8.74-3.54-13.01-5.5,3.55,2.3,7.22,4.44,11.03,6.4,9.25,4.77,18.88,8.75,28.44,12.87,10.43,4.49,20.88,8.82,31.6,12.59,11.19,3.93,22.58,7.25,33.91,10.75,12.89,3.97,25.79,8.01,38.95,10.98.3.07.42.57.03.49Z"/>
              <path class="cls-35" d="M1235.89,470.4c-18.23-6.82-36.4-13.85-54.81-20.16-18.87-6.47-38.14-11.69-57.15-17.72-5.03-1.6-10.01-3.34-15.05-4.92-2.57-.81-5.15-1.58-7.76-2.23-2.72-.68-5.5-1.11-8.19-1.89-.52-.15-1.15-1.18-.24-1.21,4.65-.15,9.51,1.46,13.93,2.77,4.62,1.36,9.17,2.98,13.76,4.47,9.63,3.12,19.35,5.99,29.05,8.9,18.82,5.63,37.38,11.8,55.71,18.87,10.38,4,20.64,8.3,30.91,12.58.4.17.32.73-.15.55Z"/>
              <path class="cls-35" d="M1231.45,473.61c-9.28-2.45-18.53-4.89-27.69-7.76-9.1-2.85-18.13-5.89-27.16-8.96-9.14-3.1-18.32-6.12-27.45-9.24-9.18-3.14-18.28-6.52-27.45-9.71-4.95-1.72-9.96-3.2-14.97-4.72-4.59-1.39-9.24-2.83-13.37-5.33-.8-.48-.36-1.5.54-1.15,4.21,1.59,8.41,3.17,12.72,4.48,4.15,1.26,8.33,2.45,12.43,3.85,8.97,3.07,17.86,6.37,26.82,9.5,18.04,6.3,36.18,12.38,54.29,18.52,10.35,3.51,20.72,7.11,31.26,10.02.29.08.41.59.03.49Z"/>
              <path class="cls-35" d="M1219.05,452.82c-14.92-5.24-30.38-9.03-45.75-12.68-15.41-3.65-30.84-7.28-46.35-10.45-4.54-.93-9.1-1.77-13.68-2.5-4.57-.73-9.25-1.03-13.79-1.96-.45-.09-.87-.92-.18-.95,3.96-.2,8,.45,11.92.94,4.04.51,8.05,1.13,12.06,1.84,8.14,1.44,16.21,3.27,24.26,5.14,15.61,3.61,31.32,6.98,46.73,11.42,8.46,2.44,16.77,5.37,24.93,8.69.37.15.29.66-.14.51Z"/>
              <path class="cls-35" d="M1212.98,442.61c-14.38-4.51-29.24-7.64-44.01-10.57-7.45-1.48-14.93-3.04-22.45-4.11-7.63-1.09-15.33-1.54-22.99-2.39-3.41-.38-6.78-.99-10.16-1.53-4.13.1-8.23.2-12.36,1.04-.47.1-1.46-.68-.82-1.08s1.34-.7,2.06-.96c-.86,0-1.72,0-2.58-.09-.47-.04-1.2-.77-.5-1.07,2.94-1.24,6.74-.66,9.82-.31.59.07,1.17.17,1.75.25,1.64-.02,3.25,0,4.76-.02,6.59-.11,13.17-.82,19.77-.91,6.84-.09,13.65.37,20.46.94,6.56.56,13.26,1.05,19.73,2.3,7.15,1.38,13.83,4.38,20.89,6.11.27.07.4.53.02.46-5.93-1.07-11.64-3.03-17.53-4.29-6.46-1.38-13.23-1.7-19.81-2.27-6.56-.57-13.14-1.06-19.74-1.11-5.36-.04-10.7.24-16.04.56,6.51.73,13.07,1.08,19.57,1.86,7.67.92,15.27,2.53,22.86,4.02,7.55,1.48,15.07,3.08,22.53,4.95,8.41,2.11,16.66,4.75,24.83,7.66.32.11.36.69-.06.57Z"/>
            </g>
          </g>
          <path class="cls-43" d="M1111.03,411.79c-3.14-3.98-8.71-4.63-13.39-5.2-6.23-.77-12.52-.82-18.75-1.6-6.92-.86-13.85-1.6-20.7-2.9-3.46-.66-6.88-1.49-10.26-2.47-1.69-.49-3.4-.97-5.1-1.51-1.77-.7-3.54-1.38-5.31-2.06-.08-.04-.16-.07-.26-.1-5.68-2.19-11.39-4.31-17.08-6.39-26.05-9.49-52.39-18.42-78.8-26.85-52.73-16.84-107.28-27.53-162.14-34.42-55.42-6.96-111.28-10-167.1-11.04-28.47-.53-56.84-.26-85.26,1.65-28.76,1.94-57.42,5.05-86.02,8.62-26.63,3.32-53.31,6.64-79.79,11.03-24.28,4.02-48.71,9.18-71.55,18.6-.08.03-.15.07-.23.1-6.57,1.47-13.18,2.77-19.71,4.38-15.53,3.82-30.68,9.13-45.51,15.07-29.03,11.63-57.96,23.84-84.99,39.68-14.15,8.29-27.76,17.46-41.45,26.47-3.45,2.27-6.92,4.49-10.36,6.77-2.6,1.73-4.97,3.85-6.71,6.46-2.89,4.35-3.61,11.46,1.29,14.77.73.49,1.52.88,2.34,1.23-.32.19-.59.48-.64.8-1.09,7.39,2.98,13.66,7.88,18.8,5.44,5.7,11.74,10.53,18.45,14.63,7.1,4.34,14.63,7.94,22.23,11.29,8.05,3.55,16.26,6.66,24.69,9.18,33.78,10.08,69.29,11.25,104.29,10.26,7.2.18,14.41.14,21.63-.22,9.58-.47,19.27-1.2,28.63-3.38,48.86,9.27,99.51,10.5,149.02,10.34,54.28-.18,108.73-1.83,162.95-4.44,52.09-2.51,104.12-7.08,155.64-15.25,51.35-8.14,102.18-19.91,151.47-36.54,32.51-10.97,64.56-23.95,95.32-39.38,2.71-.97,5.27-2.31,7.86-3.56,2.87-1.39,5.79-2.51,8.77-3.63,5.94-2.23,11.58-5.18,17.55-7.36,8.2-3.01,16.7-5.07,25.2-7.01,4.37-.99,8.73-2.14,13.12-3.02,3.57-.71,7.37-.76,10.66-2.49,3.61-1.89,4.73-5.98,2.11-9.3Z"/>
          <path class="cls-45" d="M307.81,530.85s-.02,0-.03,0c-1.64.42-3.33.7-5.01.85.05,0,.09.02.14.03-6.85,1.22-13.83,2.02-20.78,1.83-4.22.36-8.45.65-12.69.84-17.19.77-34.54.86-51.72-.08-17.22-.94-34.4-3.24-51.13-7.5-16.5-4.2-32.55-10.46-47.6-18.45-7.98-4.24-15.56-9.19-22.2-15.35-5.67-5.26-11.82-12.2-11.36-20.48,3.32,1.11,7.09,1.38,10.38,1.76,2.36.28,4.76.45,7.09.97,3.38.77,6.7,2.1,9.96,3.26,15.1,5.36,29.77,11.85,44.3,18.6,14.52,6.75,28.92,14.04,44.33,18.57,4.48,1.32,9.05,2.45,13.7,2.98,4.27.49,9.21.59,13.02-1.72,1.68-1.02,2.92-2.49,3.66-4.31.58-1.41-1.73-1.12-2.16-.06-1.68,4.09-6.87,4.44-10.68,4.3-4.35-.15-8.64-1.07-12.84-2.17-14.42-3.79-27.95-10.19-41.39-16.51-13.75-6.45-27.6-12.71-41.75-18.26-3.56-1.4-7.14-2.74-10.75-4.03-2.89-1.03-5.82-2.27-8.83-2.94-4.66-1.05-9.46-1.15-14.13-2.16-2.03-.44-4.2-1-5.88-2.28-2.16-1.65-2.88-4.93-2.47-7.5,1.14-7.11,9.19-10.81,14.54-14.32,13.12-8.61,26.14-17.38,39.54-25.55,25.75-15.68,53.43-27.77,81.3-39.12,14.18-5.77,28.46-11.35,43.16-15.68,4.79-1.41,9.61-2.58,14.45-3.7,4.18.12,8.26-1.99,12.32-2.77,3.02-.58,6.1-.83,9.18-.79,2.07.03,4.23.4,6.35.5,0,0,.01,0,.02,0,4.99,1.74,9.37,4.99,12.92,8.86,8.26,9,13.2,20.78,17.03,32.22,3.7,11.06,6.31,22.43,8.75,33.81,3.72,17.38,6.28,35.14,3.5,52.88-.76,4.84-1.94,9.61-3.63,14.2-1.43,3.87-3.32,7.5-5.24,11.14-2.15,4.09-4.86,9.49-8.81,12.71-1.56.92-3.31,1.62-4.97,2.22-.12-.04-.29-.05-.5,0-1.39.67-2.89,1.15-4.45,1.5-2.86.63-5.75,1.15-8.64,1.68Z"/>
          <path class="cls-2" d="M103.48,473c3.01.67,5.93,1.91,8.83,2.94,3.6,1.28,7.18,2.63,10.75,4.03,14.15,5.55,27.99,11.8,41.75,18.26,13.45,6.31,26.98,12.72,41.39,16.51,1.29.34,2.59.64,3.89.93,4.62.72,9.34,1.1,13.96.61.71-.07,1.44-.19,2.16-.34,1.53-.64,2.81-1.67,3.5-3.34.44-1.06,2.74-1.34,2.16.06-.21.53-.48,1.01-.77,1.47,1.63-1,2.93-2.38,3.49-4.36-8.57-1.33-17.36-.21-25.92-1.84-8.79-1.67-17.37-5.62-25.34-9.58-14.8-7.35-28.65-16.45-43.39-23.93-7.28-3.7-14.97-7.22-23.05-8.73-6.65-1.25-13.89-1.25-20.07-4.32-5.99-2.97-4.9-8.85-2.43-13.92-5.29,3.31-12.35,6.98-13.4,13.6-.41,2.57.32,5.85,2.47,7.5,1.68,1.28,3.85,1.84,5.88,2.28,4.66,1.02,9.47,1.12,14.13,2.16Z"/>
          <path class="cls-2" d="M103.48,473c3.01.67,5.93,1.91,8.83,2.94,3.6,1.28,7.18,2.63,10.75,4.03,14.15,5.55,27.99,11.8,41.75,18.26,8.83,4.14,17.69,8.31,26.81,11.77,15.45,1.71,30.55-.27,45.04-7.96,15.55-8.27,27.63-21.46,42.05-31.37,19.05-13.1,40.87-22.31,63.24-29.31-.44-2.28-.9-4.56-1.39-6.83-2.44-11.39-5.05-22.76-8.75-33.81-3.83-11.44-8.77-23.22-17.03-32.22-3.55-3.87-7.93-7.12-12.92-8.86,0,0-.02,0-.02,0-2.11-.1-4.27-.47-6.35-.5-3.08-.04-6.15.21-9.18.79-4.06.77-8.15,2.88-12.32,2.77-4.84,1.12-9.67,2.29-14.45,3.7-14.7,4.33-28.98,9.91-43.16,15.68-27.87,11.35-55.55,23.44-81.3,39.12-13.41,8.17-26.43,16.93-39.54,25.55-5.35,3.51-13.4,7.22-14.54,14.32-.41,2.57.32,5.85,2.47,7.5,1.68,1.28,3.85,1.84,5.88,2.28,4.66,1.02,9.47,1.12,14.13,2.16Z"/>
          <path class="cls-45" d="M1108.26,419.08c-2.71,1.51-5.77,1.44-8.72,2.01-9.77,1.87-19.48,3.76-29.03,6.59-1.96.71-3.9,1.44-5.85,2.18-4.25,1.63-8.58,3.14-12.76,4.94-5.61,2.42-11.14,5.58-17.1,7.07-2.98,1.41-6.01,2.68-9.14,3.64-25.26,12.73-51.36,23.8-77.93,33.49-49.11,17.91-99.98,30.72-151.44,39.73-51.36,8.99-103.31,14.21-155.34,17.19-53.2,3.05-106.63,4.44-159.91,5.18-54.03.76-107.99-.91-161.55-8.49-1.08-.15-2.15-.33-3.23-.49,1.45-.43,2.9-.9,4.34-1.42,3.83-1.39,9.12-3.29,10.64-7.45.58-.7,1.12-1.42,1.63-2.15,2.09-3.02,3.8-6.28,5.49-9.53,2.11-4.05,4.05-8.11,5.46-12.46,6.23-19.3,4.59-40.6.49-60.15-2.42-11.58-4.94-23.18-8.4-34.5-3.75-12.24-8.51-24.98-16.69-35.01-3.56-4.36-7.84-8.22-13.02-10.53-1.75-.78-3.57-1.32-5.41-1.68-.47-.06-.94-.11-1.41-.19-.06-.01-.1-.04-.15-.06-.35-.05-.7-.11-1.04-.14.2-.05.4-.09.6-.14-.02-.03-.03-.07-.05-.1.15-.05.3-.11.43-.16,1.28-.46,2.52-1.04,3.76-1.57,1.26-.54,2.5-1.15,3.77-1.67,1.3-.53,2.63-.85,4-1.19.27-.07.54-.41.55-.67,35.61-10.46,73.64-14.04,109.98-18.78,56.87-7.42,113.97-13.5,171.4-12.87,54.94.6,109.91,2.96,164.56,8.85,54.86,5.92,109.47,15.41,162.54,30.7,26.34,7.59,52.28,16.71,78.19,25.64,14.27,4.92,28.46,10.06,42.47,15.65,6.14,1.8,12.39,3.16,18.7,4.28-.44-.19-.86-.4-1.3-.59,3.85.77,7.73,1.36,11.62,1.89,5.79.78,11.56,1.55,17.38,1.94,5.73.38,11.88.45,17.38,2.28,2.02.67,4.1,2.01,5.15,3.92.97,1.76.81,3.78-1.02,4.79Z"/>
          <path class="cls-2" d="M299.22,357.01c.05.02.1.05.15.06.47.08.94.13,1.41.19,1.85.36,3.66.9,5.41,1.68,5.18,2.31,9.46,6.17,13.02,10.53,8.18,10.03,12.94,22.77,16.69,35.01,3.46,11.32,5.98,22.92,8.4,34.5.11.51.21,1.03.31,1.55,11.37-3.46,22.86-6.38,34.19-8.94,80.02-18.11,161.38-20.45,243.07-18.87,43.82.84,87.59,1.58,131.42.98,43.87-.6,87.74-1.76,131.61-1.38,44.05.37,87.84,3.91,131.82,5.78,21.6.92,43.23,1.28,64.85.47,9.41-.35,18.81-.89,28.22-1.45.2-.89.01-1.89-.5-2.82-1.05-1.9-3.13-3.24-5.15-3.92-5.5-1.84-11.65-1.9-17.38-2.28-5.82-.39-11.59-1.16-17.38-1.94-3.89-.53-7.77-1.12-11.62-1.89.44.19.87.4,1.3.59-6.31-1.12-12.57-2.48-18.7-4.28-14.01-5.59-28.2-10.73-42.47-15.65-25.91-8.93-51.85-18.05-78.19-25.64-53.07-15.29-107.68-24.78-162.54-30.7-54.65-5.89-109.62-8.25-164.56-8.85-57.43-.63-114.52,5.45-171.4,12.87-36.33,4.74-74.37,8.33-109.98,18.78,0,.26-.28.6-.55.67-1.36.34-2.69.66-4,1.19-1.27.52-2.51,1.12-3.77,1.67-1.24.54-2.49,1.12-3.76,1.57-.14.05-.29.11-.43.16.02.03.03.07.05.1-.2.05-.4.09-.6.14.35.03.7.09,1.04.14Z"/>
          <path class="cls-38" d="M316.11,488.25c-.26-6.26-2.41-11.97-4.22-17.88-.13-.42-.82-.05-.75.32,1.18,5.56,2.4,11.37,2.59,17.07.09,2.72-.06,5.46-.67,8.12-.67,2.89-2.15,5.33-3.86,7.72-.32.45.3.73.64.45,4.67-3.76,6.52-9.98,6.28-15.8Z"/>
          <path class="cls-38" d="M326.42,491.25c-.24-4.94-1.17-9.81-2.16-14.65-1.02-4.98-1.8-9.96-2.65-14.97-1.89-11.21-5.08-22.24-9.72-32.62-2.55-5.71-5.69-11.1-9.09-16.34-3.44-5.29-7.38-10.33-10.61-15.75-.17-.29-.75.1-.58.39,2.62,4.55,5.04,9.21,7.71,13.74,2.65,4.5,5.26,9.05,7.56,13.73,4.77,9.7,8.09,20.24,10.37,30.8,1.08,5.02,1.73,10.08,2.63,15.13.84,4.65,1.93,9.24,2.69,13.91,1.54,9.4,1.43,19.27-5.33,26.71-6.88,7.56-17.16,9.76-26.83,11.39-.5.08-1,1.09-.23,1.07,8.84-.31,18.12-2.05,25.31-7.55,7.92-6.06,11.41-15.19,10.94-24.99Z"/>
          <path class="cls-39" d="M273.27,426.57c-.74-5.1-3.11-9.77-7.31-13.47-.18-.16-.44-.18-.69-.11-5-4.86-11.6-7.7-18.54-8.44-13.48-1.44-27.91,4.81-33.91,17.39-5.77,12.11-2.25,27.37,8.71,35.22,11.22,8.03,27.15,7.71,38.17-.49,6.9-5.13,11.5-12.56,13.23-20.96.29-1.43.44-2.85.51-4.25.23-1.63.14-3.28-.18-4.9Z"/>
          <path class="cls-42" d="M270.98,433.18c-.76,7.15-3.93,13.84-8.93,18.99-9.19,9.48-23.79,11.58-35.47,5.49-11.18-5.83-16.7-18.62-13.53-30.84,3.22-12.35,14.89-19.9,27.24-20.59,8.05-.45,16.49,1.75,22.68,7.07.62.54,1.25,1.13,1.86,1.75,4.59,5.02,6.88,11.3,6.15,18.15Z"/>
          <path class="cls-39" d="M262.45,421.78c-5.38-10.14-19.25-13.84-29.59-9.5-3.88,1.1-7.45,3.25-10.22,6.22-4,4.29-6.66,10.27-6.29,16.21.34,5.6,3.34,10.84,7.32,14.67,4,3.85,9.04,6.65,14.62,7.18,5.51.52,11.21-.89,15.93-3.74,10.46-6.32,13.89-20.36,8.23-31.03Z"/>
          <path class="cls-20" d="M234.64,413.46c-4.08-1.42-8.59.55-11.49,3.45-.23.23-.46.5-.68.75-1.26.82-2.42,1.95-3,2.67-2.45,3.02-2.49,7.34-.52,10.63,2.23,3.73,6.58,4.61,10.41,2.9,4.24-1.88,7.76-5.99,9.16-10.39,1.24-3.9.37-8.54-3.88-10.02Z"/>
          <path class="cls-20" d="M225.73,440.48s-.07-.05-.1-.08c0-.1,0-.19-.05-.28-.02-.09-.07-.16-.15-.21-.08-.1-.2-.17-.33-.21-.19-.05-.39-.05-.59-.02-.17.03-.33.09-.47.18-.16.08-.31.18-.43.31-.05.05-.1.1-.15.15-.07.09-.14.18-.21.27,0,0-.01,0-.01,0-.12.1-.25.21-.37.31-.21.21-.37.45-.47.73-.01.04-.03.08-.05.12-.03.13-.05.25-.08.38.01.12.02.24.03.36.05.11.1.22.15.33.1.16.24.27.41.33.11.07.23.11.36.11.13.04.27.04.4.01.15,0,.29-.03.42-.08.23-.06.45-.15.64-.3.03-.02.06-.04.09-.06.14-.1.28-.2.39-.33.1-.11.21-.25.3-.37.03-.05.07-.1.1-.15.09-.16.17-.32.24-.49.05-.13.08-.32.1-.47.02-.21-.03-.4-.14-.57Z"/>
          <path class="cls-4" d="M339.44,417.41c-1.47-13.3-2.95-26.8,7.06-36.6,7.13-6.97,17.58-9.16,26.93-11.43,13.56-3.3,26.88-7.33,40.56-10.16,60.91-12.59,123.55-13.07,185.49-13.78,67.04-.77,133.62,3.76,200.07,12.57,33.09,4.39,66.06,9.64,98.93,15.39,33.12,5.79,65.92,12.84,98.81,19.82,16.46,3.5,32.97,6.59,49.53,9.59,12.96,2.35,25.75,5.64,38.61,8.47,7.9,1.73,16.08,3.5,24.37,4.91-.03-.63-.17-1.27-.51-1.9-1.05-1.9-3.13-3.24-5.15-3.92-5.5-1.84-11.65-1.9-17.38-2.28-5.82-.39-11.59-1.16-17.38-1.94-3.89-.53-7.77-1.12-11.62-1.89.44.19.87.4,1.3.59-6.31-1.12-12.57-2.48-18.7-4.28-14.01-5.59-28.2-10.73-42.47-15.65-25.91-8.93-51.85-18.05-78.19-25.64-53.07-15.29-107.68-24.78-162.54-30.7-54.65-5.89-109.62-8.25-164.56-8.85-57.43-.63-114.52,5.45-171.4,12.87-36.33,4.74-74.37,8.33-109.98,18.78,0,.26-.28.6-.55.67-1.36.34-2.69.66-4,1.19-1.27.52-2.51,1.12-3.77,1.67-1.24.54-2.49,1.12-3.76,1.57-.14.05-.29.11-.43.16.02.03.03.07.05.1-.2.05-.4.09-.6.14.35.03.7.09,1.04.14.05.02.1.05.15.06.47.08.94.13,1.41.19,1.85.36,3.66.9,5.41,1.68,5.18,2.31,9.46,6.17,13.02,10.53,8.18,10.03,12.94,22.77,16.69,35.01,1.31,4.27,2.45,8.59,3.54,12.93Z"/>
        </g>
        <path class="cls-11" d="M312.13,441.57c-.71-7.81-5.44-15.02-10.08-21.09-4.81-6.3-10.16-12.43-16.34-17.42-13.2-10.67-30.58-16.52-47.45-13.48-2.47.82-4.85,1.93-7.15,3.19,7.98-2.11,16.09-2.77,24.32-1.36,8.43,1.45,16.45,4.85,23.55,9.61,6.7,4.49,12.23,10.17,17.4,16.31,4.83,5.74,9.64,12.03,12.13,19.18,1.16,3.33,1.76,7.04.91,10.52-.89,3.6-3.36,6.89-5.81,9.58-5.28,5.81-12.26,9.83-19.37,12.99-15.69,6.99-33.35,12.18-50.55,8.66-10.66-2.18-20.26-7.36-29.22-13.39-8.39-5.65-16.24-12.2-23.62-19.13,2.93,4.11,6.31,7.89,10.05,11.3,4.09,3.73,8.55,7.03,13.23,9.96,5.1,3.2,10.21,6.29,15.66,8.85,2.21,1.04,4.48,2.11,6.77,3.14.31.1.61.21.93.3,9,2.66,18.44,3.08,27.69,1.63,8.83-1.38,17.52-4.33,25.8-7.66,7.67-3.09,15.2-6.96,21.41-12.5,5.46-4.88,10.42-11.51,9.72-19.2Z"/>
        <path class="cls-11" d="M296.49,403.03c-4.02-4.07-8.28-7.81-13.06-10.94l-1.69-.02c5.08,3.32,9.18,7.8,13.61,11.91.45.42,1.59-.49,1.13-.95Z"/>
        <path class="cls-11" d="M328.76,408.14c-4.48-8.59-9.77-16.75-14.54-25.2-3.65-4.24-7.77-8.06-12.55-10.92-.49-.29-1-.53-1.5-.8-1.98-.44-3.97-.81-5.98-1.12,5.35,2.45,10.18,5.8,14.37,10.17,6.75,7.04,12.16,15.4,16.73,23.98,1.92,3.6,3.62,7.28,5.27,10.99-.61-2.37-1.21-4.73-1.79-7.1Z"/>
        <path class="cls-20" d="M299.3,395.29c1.27,2.94,2.72,5.81,4.31,8.61,5.72,10.07,12.88,19.21,17.61,29.85,2.41,5.42,4.36,11.01,6.09,16.67,1.05,2.75,1.95,5.55,2.63,8.4,1.29-3.82.42-8.41-.34-12.21-.97-4.77-2.17-9.61-3.66-14.23-1.81-5.64-4.53-10.71-7.53-15.78-2.81-4.75-5.65-9.48-8.91-13.93-3.37-4.6-7.27-9-12.07-12.14.38,1.11.8,2.2,1.24,3.28.23.49.43.99.64,1.49Z"/>
        <g>
          <path class="cls-40" d="M507.31,398.07c-2.36-.95-4.89-.98-7.41-.93-2.91.06-5.82,0-8.73.04-6.3.07-12.61.36-18.9.77-12.26.79-24.49,2.15-36.62,4.18-22.95,3.84-45.64,9.96-66.13,21.23-4.05,2.23-8.27,4.37-12.12,6.92-1.9,1.26-4,2.79-5.64,4.63-.51.44-1.04.91-1.58,1.41-2.25,1.66-4.82,3.99-4.62,6.74.04.5.32.86.85.87,15.11.36,29.97-3.52,45.08-2.99,7.01.25,13.94,1.48,20.32,4.49,5.78,2.72,11,6.68,15.36,11.34,2.12,2.26,4.17,4.69,5.85,7.3,1.28,1.98,2.37,4.33,4.98,4.65,2.67.33,5.59-.78,8.01-1.78,2.86-1.19,5.58-2.69,8.3-4.16,5.2-2.81,10.32-5.6,14.98-9.28,4.51-3.57,8.56-7.69,11.89-12.39,3.94-5.56,6.84-11.99,9.03-18.43,1.11-3.27,1.95-7.01.82-10.4-.2-.58-.71-1.31-.77-1.91-.08-.89.54-1.41,1.2-1.88,1.14-.82,2.07-1.49,2.68-2.79.14-.29.05-.64-.15-.86,4.93-1.1,10.43-1.08,13.66-5.41.37-.49.21-1.14-.35-1.36Z"/>
          <path class="cls-29" d="M497.66,402.1c-2.81.53-5.78.9-8.35,2.24-.72.37-1.66,2.08-.15,2.06.65,0,1.27.03,1.9.11-.61.47-1.38.85-1.88,1.35-.77.76-1.4,1.88-1.37,2.99.02,1.12.8,2.15,1.06,3.23.4,1.65.29,3.38,0,5.03-.59,3.27-2.03,6.33-3.28,9.38-1.17,2.84-2.44,5.61-4.01,8.26-5.99,10.11-15.21,17.56-25.54,22.94-4.89,2.55-10.14,6.25-15.75,6.84-3.25.34-4.18-2.79-5.76-5.02-1.76-2.48-3.72-4.83-5.83-7.01-8.74-9.02-19.77-14.38-32.28-15.54-16.16-1.5-32.1,2.91-48.23,2.72.05-.2.16-.38.24-.57.6-.65,1.19-1.31,1.81-1.92,1.31-1.28,2.73-2.47,4.2-3.57,2.85-2.15,5.85-4.16,8.93-5.95,3.35-1.94,6.78-3.68,10.23-5.43,3.32-1.68,6.74-3.2,9.83-5.3.2-.14.23-.31.18-.44,4.98-2.1,10.04-3.99,15.18-5.66,22.12-7.2,45.63-10.66,68.77-12.4,6.61-.5,13.23-.85,19.85-1,3.26-.08,6.52-.03,9.78-.05,2.5-.02,5.02-.19,7.44.42-1.89,1.48-4.74,1.89-6.96,2.31Z"/>
          <path class="cls-40" d="M484.15,407.75c-9.37.88-18.79,1.34-28.14,2.44-9.29,1.09-18.51,2.84-27.69,4.63-17.76,3.47-35.2,8.31-52.4,13.92-9.23,3.01-18.56,6.33-27.17,10.88,3.01-2.5,6.4-4.34,9.96-5.95,3.55-1.62,7.07-3.31,10.62-4.93,8.26-3.78,16.81-6.89,25.47-9.61,17.86-5.59,36.01-9.7,54.56-12.16,10.66-1.41,21.29-3.95,32.08-4,.19,0,.39-.34.12-.35-9.62-.26-19.05,1.35-28.54,2.66-9.6,1.32-19.17,2.57-28.65,4.63-9.27,2.01-18.47,4.55-27.54,7.33-8.85,2.7-17.59,5.78-26.05,9.54-4.3,1.91-8.59,3.92-12.83,5.97-3.68,1.78-7.51,3.76-10.32,6.79-.29.32-.13.53.12.58-.69.43-.63,1.55.32,1.12.38-.17.76-.33,1.14-.5-.1.38.06.75.68.67,8.21-1.08,16.48-1.64,24.71-2.6.03,0,.06,0,.1-.01-.25.31-.32.69.21.74,3.3.3,6.64.21,9.96.4,3.38.19,6.74.6,10.11.89,6.81.59,13.63,1.05,20.39,2.12,12.83,2.04,25.96,3.32,38.97,2.89,7.4-.25,14.7-1.12,21.93-2.68.3-.06.44-.55.04-.49-13.01,1.98-26.35,2.14-39.45,1.15-6.41-.48-12.78-1.27-19.14-2.19-6.63-.96-13.27-1.53-19.95-1.99-6.58-.45-13.15-1.18-19.75-1.21,7.29-.8,14.61-1.41,21.95-1.29,16.54.27,33,2.17,49.54,2.31,9.37.08,18.74-.56,27.95-2.33.31-.06.45-.57.04-.51-16.77,2.28-33.72,1.39-50.54.31-8.26-.53-16.52-1.1-24.8-1.29-8.1-.19-16.14.41-24.18,1.3-4.56.51-9.11,1.14-13.68,1.56-2.18.2-4.37.36-6.57.55,5.94-1.15,12-1.73,18.02-2.32,8.67-.85,17.36-1.29,26.06-1.7,16.92-.79,33.86-.81,50.77-1.9,4.6-.29,9.2-.65,13.79-1.16,4.89-.54,9.69-1.46,14.55-2.2.33-.05.46-.59.04-.53-4.23.65-8.57.88-12.83,1.27-4.44.4-8.89.72-13.34.97-8.38.48-16.77.73-25.16.96-16.93.46-33.88.84-50.75,2.35-4.61.41-9.2.96-13.8,1.5-.74.08-1.49.18-2.23.27,4.41-1.14,8.84-2.13,13.39-2.8,8.13-1.19,16.3-2.07,24.45-3.07,8.5-1.05,17.06-1.35,25.6-1.71,8.38-.35,16.75-.89,25.12-1.43,9.42-.6,18.81-1.43,28.21-2.25.29-.03.54-.6.13-.59-16.97.7-33.91,1.88-50.88,2.54-8.26.32-16.53.62-24.76,1.47-7.59.79-15.19,1.77-22.76,2.82,5.45-1.25,10.91-2.46,16.39-3.56,16.55-3.31,33.28-5.67,50.04-7.57,9.59-1.09,19.19-2.18,28.8-3.09.22-.02.39-.45.1-.43-17.28,1.03-34.47,2.5-51.62,4.94-17.38,2.47-34.53,5.96-51.61,10-2.14.51-4.29,1-6.44,1.53,1.98-.74,3.97-1.46,5.98-2.14,8.43-2.85,16.99-5.33,25.53-7.83,8.93-2.61,17.99-4.72,27.11-6.55,8.94-1.8,17.94-3.6,26.98-4.85,10.47-1.46,21-2.34,31.48-3.75.31-.04.44-.53.04-.49Z"/>
          <path class="cls-40" d="M465.76,449.69c-9.21-.11-18.4-.94-27.54-2.1-4.69-.59-9.33-1.36-13.95-2.35-4.34-.93-8.83-2.27-13.28-2.47-.6-.03-1.57,1.12-.67,1.35.94.24,1.9.42,2.86.62.04.11.12.21.29.29,4.55,2.06,8.71,4.84,13.02,7.34,4.54,2.64,9.1,5.25,13.66,7.86.28.16.81-.3.49-.51-4.49-2.9-8.99-5.81-13.5-8.69,1.55.51,3.11,1.02,4.66,1.54,6.58,2.24,13.17,4.25,19.9,6.01.29.07.71-.41.34-.54-6.41-2.2-12.87-4.28-19.26-6.53-2.72-.96-5.48-1.83-8.19-2.84-1.48-.55-2.88-1.23-4.27-1.92-.45-.28-.9-.56-1.36-.84,1.67.31,3.34.62,4.99.96,4.44.93,8.9,1.64,13.41,2.2,9.36,1.17,18.78,1.72,28.21,1.15.29-.02.63-.55.2-.56Z"/>
          <path class="cls-14" d="M497.17,399.38c-1.69.01-3.38,0-5.07,0-1.15.36-2.3.73-3.42,1.2-2.25.94-4.89,2.25-6.06,4.52-.77,1.51-.59,3.13-.34,4.75.3,1.96.37,3.75.02,5.71-1.09,6.11-5.35,12.45-10.85,15.42-4.9,2.65-10.66,2.9-16.09,2.33-6.13-.65-12.08-2.27-18.12-3.47-8.73-1.73-17.6-2.77-26.5-3.14-4.36-.18-8.7-.06-13.06.2-4.19.26-8.52.47-12.62,1.45-3.57.86-7.19,2.27-10.92,2.1-2.03-.09-4.94-.82-4.6-3.44.04-.28.11-.56.2-.83-2.15,1.11-4.29,2.24-6.39,3.46-3.09,1.79-6.08,3.8-8.93,5.95-1.46,1.1-2.88,2.29-4.2,3.57-.63.61-1.21,1.27-1.81,1.92-.08.19-.2.37-.24.57,16.14.2,32.08-4.21,48.23-2.72,12.51,1.16,23.54,6.52,32.28,15.54,2.12,2.19,4.07,4.53,5.83,7.01,1.58,2.23,2.51,5.36,5.76,5.02,5.62-.59,10.86-4.29,15.75-6.84,10.33-5.37,19.55-12.83,25.54-22.94,1.57-2.65,2.84-5.42,4.01-8.26,1.25-3.05,2.69-6.11,3.28-9.38.3-1.66.4-3.38,0-5.03-.26-1.08-1.03-2.11-1.06-3.23-.02-1.11.6-2.23,1.37-2.99.5-.5,1.27-.88,1.88-1.35-.62-.08-1.25-.11-1.9-.11-1.5.02-.56-1.68.15-2.06,2.57-1.34,5.54-1.71,8.35-2.24,2.22-.42,5.06-.83,6.96-2.31-2.42-.61-4.94-.44-7.44-.42Z"/>
          <path class="cls-19" d="M378.12,425.08c21.84-9.41,45.08-15.9,68.41-20.39,12.21-2.35,24.81-4.63,37.27-4.78,6.57-.07,13.16.35,19.74.52.37-.19.75-.38,1.08-.63-2.42-.61-4.94-.44-7.44-.42-3.26.02-6.52-.02-9.78.05-6.62.15-13.25.5-19.85,1-23.14,1.75-46.65,5.2-68.77,12.4-5.14,1.67-10.2,3.56-15.18,5.66.05.13.02.3-.18.44-3.09,2.1-6.51,3.62-9.83,5.3-3.45,1.75-6.88,3.49-10.23,5.43-3.09,1.79-6.08,3.8-8.93,5.95-1.46,1.1-2.88,2.29-4.2,3.57-.34.33-.66.7-.99,1.05,9.23-5.77,18.88-10.85,28.88-15.16Z"/>
        </g>
      </g>
      <g>
        <g>
          <path class="cls-33" d="M947.25,533.57c0,62.87-43.06,113.84-96.19,113.84s-96.19-50.97-96.19-113.84,43.06-140.89,96.19-140.89,96.19,78.02,96.19,140.89Z"/>
          <path class="cls-16" d="M945.02,533.26c0,61.42-42.07,111.2-93.96,111.2s-93.96-49.79-93.96-111.2,42.07-137.64,93.96-137.64,93.96,76.22,93.96,137.64Z"/>
          <path class="cls-13" d="M920.56,446.41c1.77,4.27,3.36,8.62,4.79,12.96,5.74,17.43,9.34,35.58,9.22,53.98-.19,27.59-8.53,56.86-28.16,77.01-19.83,20.35-49.45,27.32-76.98,22.56-13.76-2.38-27.03-7.9-38.07-16.49-11.92-9.27-20.16-21.79-25.54-35.8-5.91-15.43-8.03-31.9-7.18-48.3-1,7.07-1.54,14.09-1.54,20.92,0,61.42,42.07,111.2,93.96,111.2s93.96-49.79,93.96-111.2c0-28.82-9.27-60.91-24.46-86.84Z"/>
          <path class="cls-17" d="M834.35,418.64c-3.1-8.02-13.76-5.62-19.43-2.16-4.22,2.57-7.67,6.27-10.59,10.38-8.93,10.07-14.31,25.63-16.73,38.65-.41,2.19-.7,4.53.16,6.58,1.94,4.62,7.42,2.86,10.74,1.12,4.84-2.54,9.07-6.24,12.95-10.05,4.69-4.61,8.96-9.68,12.76-15.05,3.54-5,6.78-10.36,8.93-16.12,1.52-4.07,2.85-9.11,1.21-13.35Z"/>
          <path class="cls-17" d="M790.2,485.45c-2.23-2.67-4.84-1.73-6.97.27-1.17.55-2.1,1.49-2.92,2.49-1.25,1.52-2.08,3.4-2.67,5.27-.93,2.97-1.71,7.73,1.14,9.97,1.45,1.14,3.61,1.11,5.24.41,2.16-.93,3.79-2.94,4.95-4.93,1.28-2.2,2.18-4.67,2.55-7.19.32-2.19.16-4.52-1.32-6.29Z"/>
        </g>
        <g>
          <path class="cls-33" d="M1004.84,667.56c58.52,22.97,121.7,1.51,141.11-47.94,19.41-49.45-12.3-108.16-70.82-131.13-58.52-22.97-146.89-11.4-166.3,38.05-19.41,49.45,37.49,118.04,96.01,141.02Z"/>
          <path class="cls-16" d="M1005.38,665.37c57.17,22.44,118.89,1.47,137.85-46.83,18.96-48.31-12.01-105.66-69.18-128.1-57.17-22.44-143.5-11.13-162.46,37.18-18.96,48.31,36.62,115.32,93.79,137.76Z"/>
          <path class="cls-13" d="M933.48,610.87c3.33,3.21,6.8,6.28,10.31,9.19,14.13,11.72,29.7,21.7,46.88,28.31,25.76,9.9,56.04,12.84,81.97,1.93,26.2-11.02,43.5-36.05,49.13-63.41,2.81-13.68,2.53-28.04-1.44-41.46-4.27-14.48-12.92-26.73-24-36.85-12.2-11.14-26.76-19.13-42.34-24.34,6.95,1.66,13.68,3.71,20.04,6.2,57.17,22.44,88.14,79.79,69.18,128.1-18.96,48.3-80.68,69.27-137.85,46.83-26.83-10.53-53.31-30.88-71.9-54.5Z"/>
          <path class="cls-17" d="M952,524.23c6.15.1,12.32-.95,18.27-2.42,6.38-1.58,12.66-3.7,18.66-6.38,4.96-2.22,9.95-4.8,14.08-8.38,2.83-2.45,6.47-6.91,2.88-10.4-1.59-1.55-3.88-2.13-6.06-2.55-13-2.51-29.45-3.19-42.09,1.44-4.89,1.22-9.59,3.08-13.53,6.07-5.29,4.02-11.42,13.06-5.09,18.87,3.35,3.08,8.53,3.68,12.87,3.75Z"/>
          <path class="cls-17" d="M1022.82,507.3c2.49.58,5.11.65,7.63.26,2.27-.35,4.73-1.14,6.39-2.81,1.25-1.26,2.07-3.26,1.54-5.03-1.04-3.47-5.76-4.48-8.87-4.7-1.96-.14-4.01-.05-5.88.55-1.22.4-2.44.92-3.38,1.81-2.65,1.26-4.48,3.34-2.8,6.4,1.1,2.02,3.22,3.02,5.37,3.52Z"/>
          <path class="cls-33" d="M541.44,667.47c58.52,22.97,121.7,1.51,141.11-47.94,19.41-49.45-12.3-108.16-70.82-131.13-58.52-22.97-146.89-11.4-166.3,38.05-19.41,49.45,37.49,118.04,96.01,141.02Z"/>
          <path class="cls-16" d="M541.99,665.28c57.17,22.44,118.89,1.47,137.85-46.83,18.96-48.31-12.01-105.66-69.18-128.1-57.17-22.44-143.5-11.13-162.46,37.18-18.96,48.31,36.62,115.32,93.79,137.76Z"/>
          <path class="cls-13" d="M470.09,610.78c3.33,3.21,6.8,6.28,10.31,9.19,14.13,11.72,29.7,21.7,46.88,28.31,25.76,9.9,56.04,12.84,81.97,1.93,26.2-11.02,43.5-36.05,49.13-63.41,2.81-13.68,2.53-28.04-1.44-41.46-4.27-14.48-12.92-26.73-24-36.85-12.2-11.14-26.76-19.13-42.34-24.34,6.95,1.66,13.68,3.71,20.04,6.2,57.17,22.44,88.14,79.79,69.18,128.1-18.96,48.3-80.68,69.27-137.85,46.83-26.83-10.53-53.31-30.88-71.9-54.5Z"/>
          <path class="cls-17" d="M488.6,524.14c6.15.1,12.32-.95,18.27-2.42,6.38-1.58,12.66-3.7,18.66-6.38,4.96-2.22,9.95-4.8,14.08-8.38,2.83-2.45,6.47-6.91,2.88-10.4-1.59-1.55-3.88-2.13-6.06-2.55-13-2.51-29.45-3.19-42.09,1.44-4.89,1.22-9.59,3.08-13.53,6.07-5.29,4.02-11.42,13.06-5.09,18.87,3.35,3.08,8.53,3.68,12.87,3.75Z"/>
          <path class="cls-17" d="M559.43,507.21c2.49.58,5.11.65,7.63.26,2.27-.35,4.73-1.14,6.39-2.81,1.25-1.26,2.07-3.26,1.54-5.03-1.04-3.47-5.76-4.48-8.87-4.7-1.96-.14-4.01-.05-5.88.55-1.22.4-2.44.92-3.38,1.81-2.65,1.26-4.48,3.34-2.8,6.4,1.1,2.02,3.22,3.02,5.37,3.52Z"/>
        </g>
        <g>
          <path class="cls-31" d="M1144.63,690.74c-.49-5.71-4.23-10.54-8.78-14.53-5.18-4.54-11.36-8.14-17.63-11.44-7.49-3.93-15.34-6.92-23.75-9.01-8.87-2.21-17.94-3.53-26.99-4.99-9.49-1.54-18.81-3.76-28.12-5.93-9.34-2.18-18.71-4.27-28.26-5.62-9.53-1.35-19.08-1.54-28.71-1.54-19.46,0-38.92,1.02-58.09,3.85-4.72.7-9.36,1.55-13.97,2.51-10.89,1.4-21.7,3.21-32.29,5.58-9.12,2.04-18.01,4.73-26.76,7.71-9.17,3.12-18.04,6.65-27.66,8.64-8.28,1.71-16.73,2.81-24.97,4.67-5.29,1.19-10.51,2.66-15.6,4.37-11.19,3.77-22.95,8.82-30.91,16.83-6.78,6.83-9.44,16.19-4.23,24.46,4.7,7.46,14.44,11.39,23.39,13.75,10.46,2.77,21.46,3.87,32.32,4.54,32.27,1.99,64.71,2.32,96.7,7.11,19.75,2.96,39.49,4.47,59.52,4.14,9.89-.16,19.81-.63,29.66-1.41,9.97-.8,19.81-2.42,29.6-4.2,9.68-1.76,19.34-3.6,29.09-5.06,9.79-1.47,19.62-2.76,29.38-4.4,12.28-2.07,24.09-4.9,35.41-9.54,10.33-4.23,21.33-9.82,27.69-18.31,2.71-3.62,4.34-7.83,3.96-12.19Z"/>
          <path class="cls-32" d="M1125,713.09c-9.25,5.38-19.78,9.32-30.45,12.09-16.41,4.27-33.77,5.8-50.59,8.45-18.84,2.97-37.37,7.4-56.52,8.76-19.42,1.37-38.98,1.8-58.44.37-9.74-.72-19.32-2.06-28.95-3.46-9.92-1.44-19.92-2.48-29.93-3.27-17-1.35-34.09-2.25-51.14-2.95-9.6-.4-19.21-.79-28.74-1.93-10.2-1.23-20.99-3.13-29.91-7.85-8.06-4.27-13.54-11.41-12.14-19.83,1.63-9.83,12.44-16.53,21.71-20.99,9.63-4.63,20.27-7.98,30.99-10.18,9.1-1.87,18.39-3.04,27.39-5.26,8.79-2.17,17.07-5.64,25.57-8.5,8.9-3,17.95-5.69,27.24-7.64,3.91-.82,7.84-1.55,11.79-2.23,4.97-1.8,10.78-2.03,16.02-2.68,3.85-.48,7.63-1.29,11.46-1.88,4.32-.67,8.66-1.24,13.01-1.75,8.76-1.04,17.56-2.16,26.39-2.66,9.69-.55,19.42-.31,29.07.67,6.84.11,13.65.44,20.45,1.37,18.64,2.55,36.56,8.04,55.11,11.01,17.41,2.78,34.86,5.3,50.32,13.29,6.24,3.22,12.41,6.71,17.7,11.06,4.65,3.83,8.75,8.64,9.28,14.34.89,9.51-8.43,16.85-16.69,21.66Z"/>
          <path class="cls-1" d="M1144.63,690.74c-.49-5.71-4.23-10.54-8.78-14.53-5.18-4.54-11.36-8.14-17.63-11.44-7.49-3.93-15.34-6.92-23.75-9.01-8.87-2.21-17.94-3.53-26.99-4.99-9.49-1.54-18.81-3.75-28.12-5.93-9.34-2.18-18.71-4.27-28.26-5.61-9.53-1.35-19.08-1.54-28.71-1.54-19.46-.01-38.92,1.02-58.09,3.85-4.72.7-9.36,1.55-13.97,2.51-10.89,1.4-21.7,3.21-32.29,5.58-9.12,2.04-18.01,4.74-26.76,7.71-9.17,3.12-18.04,6.65-27.66,8.64-8.28,1.71-16.73,2.81-24.97,4.67-5.29,1.19-10.51,2.66-15.6,4.37-11.19,3.77-22.95,8.82-30.91,16.83-6.78,6.83-9.44,16.19-4.23,24.46,4.7,7.46,14.44,11.39,23.39,13.75,10.46,2.77,21.46,3.87,32.32,4.54,32.27,1.99,64.71,2.32,96.7,7.11,19.75,2.96,39.49,4.47,59.52,4.14,9.89-.16,19.81-.63,29.66-1.41,9.97-.8,19.81-2.42,29.6-4.2,9.68-1.76,19.34-3.6,29.09-5.06,9.79-1.47,19.62-2.76,29.38-4.4,12.28-2.07,24.09-4.9,35.41-9.54,10.33-4.23,21.33-9.82,27.69-18.31,2.71-3.62,4.34-7.83,3.96-12.19ZM938.29,730.48c-3.4,3.15-9.57,2.88-13.84,2.75-11.19-.35-22.71-2.77-33.22-4.7-24.01-4.41-48.61-1.46-72.83-3.01-5.89-.37-11.77-1.03-17.58-2.09-3.49-.64-6.94-1.29-10.46-1.77-7-.96-14.15-1.94-20.79-4.46-5.66-2.15-11.76-5.85-13.18-12.22-1.03-4.63.69-9.07,3.69-12.58,3.59-4.2,8.64-7.12,13.57-9.46,5.96-2.83,12.26-4.95,18.62-6.67,6.05-1.64,12.22-2.94,18.42-3.87,1.21-.18,2.42-.35,3.65-.51.71-.27,1.4-.59,2.12-.83,6.15-2.01,14.34-2.84,18.44,3.32,2.94,4.42,1.95,9.71,2.83,14.66.94,5.3,5.56,9.37,9.84,12.25,4.35,2.92,9.28,5,14.1,7,5.08,2.11,10.35,3.79,15.68,5.15,8.04,2.05,16.56,3.87,24.89,3.96,5.77.06,11.54.02,17.3.41,5.49.37,11.83.74,16.75,3.47,3.33,1.85,5.24,6.21,2.02,9.2ZM980.18,728.12c-2.77,1.81-6.36,2.36-9.57,2.78-2.76.36-5.55.53-8.34.46-4.4-.11-15.78-.57-14.58-7.52.62-3.61,3.88-4.7,7.1-5.14,1.97-.27,4-.35,6.02-.28.47-.08.94-.19,1.4-.27,4.04-.67,8.24-1.19,12.34-.71,2.75.31,5.98,1.11,7.48,3.68,1.54,2.64.63,5.37-1.84,6.99ZM1089.22,692.96c-1.19,9.64-7.36,17.09-15.8,21.52-17.03,8.93-36.93,7.48-55.47,9.31-4.46.44-8.92,1.05-13.4.82-3.77-.2-8.62-.94-10.59-4.64-4.66-8.77,12.19-13.17,17.57-14.77,1.85-.55,3.72-1.05,5.58-1.6,2.54-.76,5-2,7.37-3.16,5.63-2.76,11.12-6.04,15.71-10.34,1.63-1.53,3.15-3.23,4.45-5.08,1.18-3.14,1.73-6.46,1.36-9.83-.4-3.62-2.46-6.59-4.02-9.78-1.67-3.4-4.23-11.21.81-13.19,2.04-.81,4.44-.24,6.47.31,2.59.7,5.15,1.58,7.63,2.62,5.53,2.33,10.72,5.47,15.48,9.13,8.59,6.62,18.31,16.9,16.86,28.7Z"/>
          <path class="cls-7" d="M1144.63,690.74c-.49-5.71-4.23-10.54-8.78-14.53-5.18-4.54-11.36-8.14-17.63-11.44-7.49-3.93-15.34-6.92-23.75-9.01-8.87-2.21-17.94-3.53-26.99-4.99-9.49-1.54-18.81-3.75-28.12-5.93-9.34-2.18-18.71-4.27-28.26-5.61-9.53-1.35-19.08-1.54-28.71-1.54-19.46-.01-38.92,1.02-58.09,3.85-4.72.7-9.36,1.55-13.97,2.51-10.89,1.4-21.7,3.21-32.29,5.58-9.12,2.04-18.01,4.74-26.76,7.71-.31.11-.62.22-.93.32-1,1.03-1.94,2.13-2.79,3.28-6.93,9.42-7.79,22.05-.64,31.62,7.28,9.74,19.8,14.36,31.14,17.33,28.51,7.46,58.22,8.26,87.21,3.13,13.88-2.46,27.3-6.37,40.56-11.1,5.57-1.98,11.1-4.1,16.34-6.86,4.86-2.58,9.76-5.78,13.02-10.31,3.29-4.57,2.66-9.57,1.57-14.81-.96-4.64-2.78-10.01-1.43-14.75,2.5-8.76,14.52-5.53,20.79-3.84,8.78,2.37,17.25,5.67,26.09,7.87,11.93,2.96,24.59,5.14,35.18,11.74,9.33,5.81,19.03,17.08,13.85,28.67-2,4.47-5.65,8.01-9.48,10.95-4.86,3.72-10.3,6.64-15.85,9.19-10.85,4.98-22.26,8.7-33.79,11.86,1.81-.28,3.63-.54,5.43-.84,12.28-2.07,24.09-4.9,35.41-9.54,10.33-4.23,21.33-9.82,27.69-18.31,2.71-3.62,4.34-7.83,3.96-12.19Z"/>
          <path class="cls-41" d="M1033.74,659.04c-2.1-6.27-6.35-11.56-11.23-15.91-8.15-7.25-18.47-12.56-29.17-15.5-15.09-5.52-31.43-7.95-47.42-8.06-19.2-.13-38.63,3.16-56.38,10.61-8.61,3.61-16.84,8.24-24.23,13.96-7.54,5.84-14.71,12.96-18.74,21.73-3.92,8.54-3.37,18.06,2.47,25.59,4.94,6.37,12.41,10.17,19.85,12.85,7.83,2.83,16.05,4.71,24.15,6.62,11.33,2.67,23.02,3.6,34.64,3.46,11.74-.14,23.46-1.36,35.07-3.09,9.49-1.41,19.02-2.99,28.32-5.41,16.15-4.2,33.95-11.57,41.4-27.66,2.79-6.04,3.42-12.86,1.29-19.21Z"/>
          <path class="cls-12" d="M1029.52,656.72s0-.06-.01-.09c-1.74-5.12-4.44-9.54-8.7-12.94-4.7-3.75-9.78-6.99-15.17-9.63-10.06-4.93-20.96-8.01-32.07-9.37-13.53-2.73-27.47-3.52-41.21-2.47-18.24,1.39-36.46,6.07-52.58,14.83-8.01,4.35-15.6,9.78-21.91,16.37-6.5,6.78-12.67,15.95-11.28,25.81,2.41,17.19,22.23,23.13,36.5,26.72,9.43,2.37,18.81,4.63,28.52,5.5,11.03.98,22.14.7,33.16-.28,10.91-.98,21.75-2.65,32.52-4.65,8.26-1.53,16.51-3.39,24.41-6.27,13.85-5.05,29.76-15.08,30.54-31.5.21-4.33-.86-8.34-2.71-12.02ZM983.44,655.87c-1.25,10.92-10.54,18.51-20.01,23-15.81,10.47-36.09,13.75-54.7,13.8-11.63.03-23.78-1.12-34.8-5.02-8.43-2.98-17.43-8.49-17.81-18.43-.37-9.73,6.27-18.04,13.52-23.77,2.71-2.14,5.61-4.08,8.65-5.81.11-.22.27-.43.54-.59,2.88-1.71,5.83-3.3,8.88-4.7,5.17-2.38,10.55-4.18,16.04-5.45,7.89-2.92,16.41-4.34,24.7-4.74,12.17-.58,24.79,1.05,36.07,5.8,5.34,2.24,10.49,5.12,14.12,9.75,3.56,4.56,5.47,10.37,4.8,16.17Z"/>
          <path class="cls-12" d="M1029.52,656.72s0-.06-.01-.09c-1.74-5.12-4.44-9.54-8.7-12.94-3.38-2.7-6.97-5.12-10.72-7.26,8.35,9.59,13.53,21.39,7.72,33.8-8.18,17.45-29.02,25.25-46.54,29.12-18.55,4.1-37.64,4.7-56.56,4.6-10.96-.06-22.02-.59-32.77-2.86-9.8-2.07-20.16-5.77-27.45-12.92-5.31-5.2-7.33-11.41-7.24-17.8-.8,2.86-1.09,5.83-.67,8.87,2.41,17.19,22.23,23.13,36.5,26.72,9.43,2.37,18.81,4.63,28.52,5.5,11.03.98,22.14.7,33.16-.28,10.91-.98,21.75-2.65,32.52-4.65,8.26-1.53,16.51-3.39,24.41-6.27,13.85-5.05,29.76-15.08,30.54-31.5.21-4.33-.86-8.34-2.71-12.02Z"/>
          <path class="cls-15" d="M927.46,632.61c-4.59-4.69-12.06-4.22-17.87-2.59-2.18.61-4.31,1.44-6.4,2.36-.61.17-1.22.35-1.81.54-4.41,1.39-8.73,3.24-12.73,5.56-3.27,1.9-6.91,4.32-8.72,7.77-1.8,3.42-.31,6.62,2.71,8.72,4.83,3.36,11.37,2.91,16.85,1.81,5.03-1.01,10.28-2.64,14.86-4.99,5.26-2.7,20.31-11.82,13.12-19.18Z"/>
          <g>
            <path class="cls-47" d="M873.36,664.09s0,0,0,0c0-.01.02-.02.02-.03.05-.06.06-.09-.03.03Z"/>
            <path class="cls-15" d="M877.13,657.47c-.5-1.77-1.7-3.53-3.55-4.05-2.37-.67-4.7.86-6.14,2.62-.3.36-.55.74-.79,1.13-.11.12-.23.24-.34.36-1.03,1.18-2.11,2.6-2.4,4.18-.28,1.54-.1,3.32.82,4.62,1.79,2.52,5.47,2.49,7.96,1.13,3.53-1.91,5.54-6.04,4.42-9.99Z"/>
          </g>
        </g>
      </g>
      <g>
        <path class="cls-27" d="M420.21,619.56c-.13-1.12-.28-2.26-.46-3.38.32-3.09-.12-6.29-1.38-9.45-3.11-7.78-9.22-14.15-15.4-19.62-6.81-6.02-14.32-11.17-22.17-15.72-3.16-1.83-6.36-3.59-9.64-5.17-2.65-1.28-5.37-2.25-8.13-3.09-2.25-.8-4.5-1.6-6.73-2.49-3.63-1.44-7.17-2.99-10.63-4.81-3.05-1.61-6.17-3.11-9.4-4.32-.74-.28-1.5-.52-2.26-.74-.21-.06-.42-.12-.63-.18-2.53-.7-5.13-1.1-7.76-1.09-12.2-3.37-25.1-5.84-37.78-5.31-14.81.61-29.13,5.2-42.97,10.21-13.74,4.97-27.38,10.06-41.32,14.5-26.98,8.59-54.69,16.63-78.62,32.26-8.74,5.71-17.77,11.55-25.15,18.98-3.46,3.49-6.73,7.52-8.34,12.23-.54,1.58-.78,3.15-.82,4.72-.23,1.96-.3,3.96-.27,5.94.07,5.69.99,11.33,1.51,16.98.6,6.49.38,13.1.46,19.61.07,6.31-.64,12.78.21,19.04.67,4.98,2.82,9.35,5.62,13.47,3.39,4.98,7.17,9.75,11.17,14.26,7.83,8.85,17.05,16.72,28.16,21.07,12.62,4.94,26.59,4.41,39.71,1.97,7.18-1.33,14.24-3.11,21.46-4.22,7.3-1.12,14.65-1.88,22.01-2.56,14.86-1.39,29.69-2.68,44.61-3.28,15.08-.6,30.13-1.18,45.18-2.23,14.62-1.02,29.26-1.86,43.8-3.74,13.36-1.73,26.18-5.51,38.78-10.2.82-.31,1.63-.63,2.44-.95,4.1-2.22,8.17-4.51,12.26-6.74.11-.06.22-.09.33-.1,1.69-1.39,3.15-3.06,4.24-5.07,1.61-2.96,2.28-6.19,2.75-9.49.64-4.45.97-8.94,1.18-13.42.42-9.24.31-18.51,1.17-27.72.82-8.84,2.76-17.52,3.2-26.41.23-4.58.16-9.15-.38-13.71Z"/>
        <path class="cls-36" d="M93.51,630.87c2.06-4.72,5.74-8.66,9.49-12.1,3.98-3.66,8.35-6.87,12.8-9.94,10.04-6.94,20.29-13.33,31.41-18.44,12.64-5.81,25.85-10.3,39.09-14.51,13.14-4.18,26.38-8.09,39.35-12.78,13.79-4.98,27.38-10.65,41.63-14.2,7.01-1.75,14.19-3,21.42-3.21,6.45-.18,12.95.44,19.33,1.4,7.72,1.17,15.37,2.92,22.88,5.14,7.33.26,13.29,4.6,19.63,7.94.24.09.48.19.72.28,8.14,2.94,16.36,5.78,24.02,9.85.28.15.41.38.44.62,5.04,2.86,9.91,6,14.62,9.39,7.19,5.17,14.17,10.85,19.77,17.76,4.37,5.4,8.51,12.34,7.36,19.58-.58,3.63-2.61,6.8-5.2,9.34-4.1,4.04-9.29,7.18-14.34,9.86-11.32,6.02-23.64,9.94-35.96,13.34-28.61,7.89-57.68,13.78-87.1,17.68-31.34,4.16-63.11,5.44-94.21,11.32-7.67,1.45-15.31,3.08-23.01,4.35-6.54,1.07-13.07,1.83-19.65.55-5.84-1.14-11.27-3.71-15.92-7.41-5.4-4.3-9.45-10-13.89-15.23-7.25-8.56-20.29-17.78-14.69-30.58Z"/>
        <path class="cls-9" d="M107.57,618.9c-2.19,2.49-3.83,5.47-3.76,8.87.08,4.01,2.27,7.56,4.19,10.94,4.26,7.48,8.96,14.85,14.15,21.72,5,6.61,13.4,7.25,20.94,8.39,4.69.71,11.48,3.36,15.5-.49,2.39-2.3,3.5-5.83,4.36-8.93,1.26-4.55,1.87-9.22,2.18-13.92.31-4.64.35-9.3.59-13.95.23-4.65.78-9.25,1.6-13.83,1.63-9.12,3.99-18.26,7.49-26.85,1.68-4.13,3.36-8.22,4.21-12.6-10.79,3.55-21.49,7.4-31.81,12.15-2.66,1.22-5.26,2.52-7.83,3.88-3.68,2.42-7.31,4.91-10.88,7.5-3.94,2.86-7.81,5.81-11.61,8.85-3.23,2.59-6.58,5.16-9.32,8.29Z"/>
        <path class="cls-9" d="M186.05,607.76c.78-.47,1.42-1.23,1.94-1.93,1-1.35,1.79-2.87,2.51-4.39,1.51-3.16,2.7-6.47,3.9-9.76.93-2.56,1.77-5.24,3.03-7.67,1.12-2.15,2.42-4.2,3.5-6.38,1.15-2.34,2.19-4.73,3.12-7.16.02-.06.04-.12.07-.18-4.53,1.43-9.07,2.85-13.6,4.27-.2.6-.42,1.2-.61,1.8-1.8,5.6-3.41,11.29-4.33,17.1-.72,4.52-1.32,9.91.48,14.3Z"/>
        <path class="cls-9" d="M219.87,565.88c-3.5,10.47-7.14,20.92-10.92,31.29-3.41,9.35-9.41,17.45-13.15,26.64-1.86,4.56-2.74,9.25-2.83,14.17-.08,4.79.24,9.81,1.18,14.51.57,2.86,1.67,5.72,4.41,7.12,2.67,1.36,6,1.38,8.92,1.52,4.23.2,8.56-.03,12.76-.56,4.36-.55,8.74-1.59,12.72-3.49,3.96-1.89,7.28-4.61,9.95-8.09,2.57-3.35,4.58-7.11,6.32-10.95,3.63-8.04,5.86-16.59,9.18-24.75,3.86-9.45,8.97-18.33,13.04-27.69,2.03-4.66,3.81-9.45,4.88-14.43,1-4.68,1.45-9.45,1.93-14.2.35-3.52.77-7.02,1.4-10.47-4.17.58-8.31,1.39-12.39,2.41-14.26,3.55-27.84,9.22-41.63,14.2-1.82.66-3.66,1.27-5.5,1.91-.09.29-.19.58-.28.87Z"/>
        <path class="cls-9" d="M287.04,555.74c-.87,2.89-1.62,6.22-.75,9.21.77,2.63,3.25,4.22,5.75,5.04,5.56,1.82,10.95-1.55,15.12-4.94,5.14-4.18,9.54-9.16,14.56-13.47.53-.45,1.07-.91,1.64-1.37-5.07-1.26-10.18-2.33-15.33-3.1-5.55-.84-11.2-1.38-16.83-1.4-1.65,3.23-3.12,6.55-4.16,10.04Z"/>
        <path class="cls-9" d="M350.54,560.17c-1.22-.64-2.42-1.32-3.63-2-4.41,10.44-6.81,21.84-5.69,33.15.69,6.96,2.99,13.65,5.02,20.31.7,2.3,1.03,4.69,1.56,7.03.51,2.26,1.1,4.85,2.71,6.61,2.7,2.95,6.9,3.41,10.68,3.1,4.63-.38,9.17-1.86,13.48-3.54,4.04-1.58,7.95-3.46,11.8-5.44,4.25-2.19,8.3-4.56,12-7.61,4.53-3.74,8.63-8.08,11.92-12.95.05-.07.09-.14.14-.21-.14-.18-.29-.37-.43-.55-5.6-6.91-12.58-12.59-19.77-17.76-4.7-3.38-9.58-6.53-14.62-9.39-.03-.24-.15-.47-.44-.62-7.67-4.07-15.88-6.91-24.02-9.85-.24-.09-.48-.19-.72-.28Z"/>
        <path class="cls-9" d="M308.64,581.8c-5.03-3.08-10.86-.95-15.6,1.64-3.08,1.68-6,3.68-8.73,5.88-.05.12-.12.23-.24.33-1.83,1.58-3.51,3.33-4.98,5.25-5.32,6.95-7.98,15.44-11.64,23.3-1.67,3.58-3.38,7.17-4.51,10.97-.99,3.35-1.59,6.99.13,10.2,3.16,5.91,11.08,6.57,17.02,6.28,6.93-.34,13.56-2.27,19.99-4.78,3.46-1.35,6.89-3.02,9.74-5.42,3.05-2.57,5.36-5.92,6.73-9.67,1.66-4.53,2.03-9.59,2.08-14.38.06-5.84-.53-11.77-2.18-17.39-1.35-4.57-3.57-9.62-7.8-12.21Z"/>
        <path class="cls-46" d="M418.52,630.39c-.23,8.45-1.74,16.68-2.85,25.03-1.16,8.68-1.23,17.45-1.47,26.19-.12,4.38-.29,8.76-.66,13.12-.33,3.91-.63,8.01-1.8,11.77-.91,2.93-2.49,5.6-4.84,7.59-2.01,1.69-4.43,2.84-6.91,3.73-.84.47-1.72.88-2.62,1.23-.12.2-.2.4-.19.59-10.77,3.83-21.4,7.8-32.67,10.1-14.15,2.88-28.73,3.72-43.11,4.74-14.52,1.03-29.02,2.03-43.57,2.57-14.69.54-29.33,1.2-43.97,2.56-14.09,1.32-28.25,2.35-42.19,4.89-6.87,1.25-13.62,3.01-20.56,3.9-6.96.89-14.09,1.11-21.04.06-12.14-1.82-22.79-8.03-31.82-16.14-4.47-4.02-8.57-8.45-12.42-13.06-3.52-4.22-7.18-8.56-9.54-13.56-2.26-4.78-2.69-9.94-2.42-15.16.38-7.17.2-14.32.1-21.5-.08-5.53-.48-10.91-1.12-16.4-.32-2.79-.66-5.6-.85-8.41.42,1.03.91,2.04,1.5,3.02,3.52,5.87,9,10.29,13.34,15.5,4.46,5.36,8.59,11.12,14.1,15.48,4.57,3.61,9.92,6.16,15.63,7.36,6.28,1.31,12.54.89,18.83-.08,8.03-1.23,15.97-2.92,23.94-4.45,8.04-1.54,16.12-2.77,24.24-3.79,16.25-2.05,32.58-3.37,48.87-5.09,32.04-3.38,63.97-8.4,95.21-16.37,12.37-3.16,24.78-6.32,36.72-10.87,6.04-2.3,11.94-4.98,17.53-8.24,4.72-2.74,9.65-5.91,13.26-10.07,1.4-1.61,2.45-3.36,3.22-5.17.17,2.97.21,5.96.13,8.94Z"/>
        <path class="cls-3" d="M115.94,710.8c3.61-8.89,9.41-18.63,7.47-28.59-.18-.91-.41-1.79-.69-2.65-.61-.43-1.21-.87-1.79-1.33-5.52-4.35-9.64-10.12-14.1-15.48-4.34-5.22-9.83-9.64-13.34-15.5-.59-.98-1.08-1.99-1.5-3.02.19,2.81.53,5.61.85,8.41.64,5.49,1.04,10.87,1.12,16.4.1,7.17.28,14.33-.1,21.5-.28,5.22.16,10.38,2.42,15.16,2.36,5,6.02,9.34,9.54,13.56,1.76,2.11,3.58,4.17,5.45,6.18,1.23-4.98,2.74-9.88,4.68-14.65Z"/>
        <path class="cls-25" d="M159.72,749.15c2.27-5.99,5.35-11.67,8.73-17.09,8.11-13.01,18.13-24.73,26.1-37.83,3.83-6.31,8.2-12.1,13.27-17.45-1.41.17-2.83.32-4.24.49-1.73.22-3.46.45-5.19.69-6.46,10.13-12.21,20.73-18,31.23-7.54,13.68-15.23,27.41-24.72,39.85,1.35.08,2.7.11,4.05.12Z"/>
        <path class="cls-3" d="M127.9,688.13c3.76,1.7,7.62,3.42,10.99,5.83,2.28,1.63,4.74,3.85,4.47,6.92-.33,3.81-2.5,7.55-4.29,10.83-1.79,3.27-3.79,6.41-5.65,9.63-2.5,4.32-6.07,7.78-9.57,11.29-.8.8-1.6,1.62-2.4,2.46.79.64,1.61,1.25,2.43,1.87,10.18-7.91,16.86-19.73,25.3-29.29,2.4-2.72,4.97-5.34,7.83-7.57,3-2.33,6.34-4.14,9.85-5.57,7.3-2.96,15.14-4.17,22.84-5.62,8.74-1.65,17.22-4.32,25.9-6.25,9.4-2.1,18.89-3.78,28.33-5.71,9.25-1.89,18.31-4.22,27.34-6.96-6.27.8-12.54,1.55-18.82,2.21-16.29,1.72-32.62,3.04-48.87,5.09-8.12,1.02-16.2,2.26-24.24,3.79-7.97,1.53-15.92,3.22-23.94,4.45-6.29.96-12.55,1.39-18.83.08-5.7-1.19-11.06-3.75-15.63-7.36-5.52-4.35-9.64-10.12-14.1-15.48-4.34-5.22-9.83-9.64-13.34-15.5-.59-.98-1.08-1.99-1.5-3.02.03.51.09,1.03.14,1.54,2.93,9.81,8.05,18.88,14.67,26.74,1.89,2.24,3.9,4.39,6,6.44,1.55,1.51,3.09,3.11,4.94,4.25,3.2,1.96,6.75,3.37,10.16,4.92Z"/>
        <path class="cls-3" d="M208.15,731.47c3.1-2.69,6.05-5.54,8.98-8.42,5.92-5.82,11.86-11.58,18.16-16.98,6.21-5.32,12.66-10.35,19.27-15.16,3.1-2.26,6.29-4.35,9.44-6.53,1.77-1.22,3.48-2.56,5.05-4.03-7.69,3.91-15.32,7.92-22.84,12.16-7.99,4.51-15.87,9.22-23.58,14.2-3.74,2.41-7.46,4.83-10.92,7.64-3.17,2.57-6.15,5.37-9.06,8.24-2.9,2.86-5.7,5.83-8.59,8.69-2.73,2.7-5.68,5.17-8.62,7.63-3.39,2.83-6.91,5.68-10.07,8.85,3.66-.63,7.28-1.41,10.91-2.17,4.14-2.96,8.71-5.36,13.08-7.95,3.09-1.83,6.07-3.79,8.79-6.15Z"/>
        <path class="cls-3" d="M241.06,733.85c3.04-1.99,6.15-3.86,9.13-5.94,3.81-2.66,7.2-5.82,10.3-9.27,3.43-3.81,6.56-7.88,10.01-11.67,3.67-4.02,7.86-7.6,11.97-11.15,4.19-3.62,8.43-7.18,12.53-10.9,4.05-3.69,7.94-7.56,11.74-11.49,3.46-3.58,6.87-7.22,10.35-10.79-1.52.3-3.04.6-4.57.89-.89.77-1.8,1.52-2.68,2.29-8.11,7.07-15.98,14.42-23.88,21.72-7.71,7.12-15.86,13.75-24.11,20.23-13.79,10.82-27.89,21.31-40.93,33.03,4.01-.37,8.03-.73,12.04-1.1,2.56-2.14,5.33-4.03,8.11-5.85Z"/>
        <path class="cls-3" d="M324.61,709.71c4.57-4.44,9.22-8.8,13.41-13.6,3.27-3.74,6.36-7.85,8.28-12.47-4.04,2.77-8.03,5.62-11.88,8.65-14.97,11.76-28.23,26.07-35.66,43.72.35-.02.69-.04,1.04-.07,3.88-4.67,8.13-9.02,12.37-13.37,4.17-4.27,8.16-8.7,12.44-12.86Z"/>
        <path class="cls-3" d="M343.81,716.9c3.09-2.2,6.24-4.33,9.19-6.72,3.67-2.97,7.07-6.18,10.25-9.67,3.23-3.55,6.24-7.28,9.21-11.04,2.87-3.63,6.07-6.83,9.69-9.71,3.57-2.84,7.35-5.4,10.95-8.19,3.8-2.95,7.33-6.24,10.82-9.55,4.37-4.14,8.58-8.45,12.63-12.9.9-6.21,1.79-12.4,1.96-18.72.04-1.68.04-3.36.01-5.05-3,6.96-6.07,13.89-10.22,20.25-6.18,9.49-14.92,16.39-23.37,23.73-4.08,3.54-8.06,7.24-11.41,11.49-3.54,4.49-6.55,9.39-9.88,14.05-3.25,4.54-6.78,8.9-11.07,12.5-4.26,3.57-8.72,6.91-13.08,10.36-6.45,5.11-12.67,10.51-17.96,16.76,1.98-.14,3.96-.28,5.94-.42,3.35-7.39,9.85-12.53,16.33-17.16Z"/>
        <path class="cls-3" d="M410.6,681.44c-3.04,5.25-6.69,10.03-10.88,14.41-3.67,3.84-7.61,7.41-11.34,11.2-2.47,2.51-4.77,5.01-6.59,8.03-2.36,3.91-4.48,7.97-6.64,11.99,7.44-2.16,14.7-4.82,22.01-7.42,0-.18.07-.39.19-.59.9-.35,1.78-.76,2.62-1.23,2.48-.89,4.9-2.04,6.91-3.73,2.36-1.99,3.94-4.66,4.84-7.59,1.17-3.76,1.47-7.87,1.8-11.77.37-4.36.54-8.74.66-13.12.07-2.4.12-4.8.19-7.2-1.22,2.37-2.44,4.73-3.78,7.03Z"/>
        <path class="cls-18" d="M396.9,716.5c-6.44,3.2-12.86,5.86-19.89,7.48-13.82,3.19-28.08,3.35-42.15,4.52-7.74.65-15.46,1.72-23.18,2.55-8.02.87-16.04,1.67-24.07,2.41-7.92.73-15.88,1.6-23.83,1.89-7.83.29-15.67-.04-23.5-.1-7.86-.06-15.62.34-23.41,1.45-7.46,1.06-14.88,2.4-22.32,3.61-14.78,2.42-29.88,4.51-44.87,2.92-6.08-.65-11.7-1.97-17.22-4.64-5.36-2.59-10.34-5.94-14.98-9.65-4.69-3.76-9.07-7.98-12.81-12.69-3.39-4.28-6.53-9.1-7.66-14.51-1.31-6.28-.65-12.79-.62-19.15.02-4.94.16-9.89.07-14.83-.11-5.5-.42-11.05-1.53-16.45-.2-.97-.43-1.95-.69-2.93-.25-.38-.51-.75-.75-1.14-.59-.98-1.08-1.99-1.5-3.02.19,2.81.53,5.61.85,8.41.64,5.49,1.04,10.87,1.12,16.4.1,7.17.28,14.33-.1,21.5-.28,5.22.16,10.38,2.42,15.16,2.36,5,6.02,9.34,9.53,13.56,3.85,4.62,7.94,9.04,12.42,13.06,9.03,8.11,19.68,14.32,31.82,16.14,6.96,1.05,14.08.83,21.04-.06,6.94-.89,13.69-2.65,20.56-3.9,13.94-2.54,28.1-3.57,42.19-4.89,14.64-1.37,29.28-2.03,43.97-2.56,14.55-.53,29.04-1.53,43.57-2.57,14.38-1.02,28.96-1.86,43.11-4.74,11.26-2.3,21.9-6.27,32.67-10.1,0-.18.07-.39.19-.59.9-.35,1.78-.76,2.62-1.23,2.48-.89,4.9-2.04,6.91-3.73,1.32-1.11,2.37-2.46,3.22-3.92-4.52,1.79-8.83,4.16-13.2,6.33Z"/>
        <path class="cls-10" d="M410.1,598.07c-5.6-6.91-12.58-12.59-19.77-17.76-4.7-3.38-9.58-6.53-14.62-9.39-.03-.24-.15-.47-.44-.62-7.67-4.07-15.88-6.91-24.02-9.85-.24-.09-.48-.19-.72-.28-6.34-3.34-12.3-7.68-19.63-7.94-7.51-2.21-15.16-3.97-22.88-5.14-6.37-.96-12.87-1.58-19.33-1.4-7.24.21-14.41,1.47-21.42,3.21-14.26,3.55-27.84,9.22-41.63,14.2-12.97,4.68-26.21,8.59-39.35,12.78-13.24,4.21-26.45,8.69-39.09,14.51-11.12,5.11-21.36,11.49-31.41,18.44-4.44,3.07-8.82,6.29-12.8,9.94-3.75,3.44-7.42,7.38-9.49,12.1-5.6,12.8,7.44,22.03,14.69,30.58,4.43,5.23,8.48,10.93,13.88,15.23,4.65,3.7,10.08,6.27,15.92,7.41,6.58,1.28,13.11.53,19.65-.55,7.71-1.26,15.34-2.9,23.01-4.35,31.1-5.88,62.87-7.16,94.21-11.32,29.42-3.91,58.49-9.79,87.1-17.68,12.32-3.4,24.64-7.32,35.96-13.34,5.05-2.68,10.24-5.83,14.34-9.86,2.59-2.55,4.62-5.71,5.2-9.34,1.15-7.24-2.99-14.17-7.36-19.58ZM390.15,611.36c-1,3.96-3.49,7.37-6.44,10.11-6.85,6.38-16.12,10.2-24.7,13.59-22.14,8.76-45.83,12.4-69.34,15.3-11.99,1.48-24.01,2.76-35.97,4.47-12.87,1.84-25.73,3.79-38.56,5.91-12.53,2.07-25.32,3.72-37.46,7.56-5.87,1.86-11.66,3.96-17.61,5.55-5.29,1.42-11.16,2.79-16.68,2.22-9.6-.99-17.57-7.54-24.14-14.13-3.22-3.22-6.21-6.67-9.35-9.96-3.46-3.62-6.78-7.8-8.21-12.68-.65-2.21-.96-4.77-.35-7.02.62-2.28,2.08-4.3,3.67-6.01,1.74-1.87,3.75-3.45,5.64-5.15,2.09-1.88,4.18-3.75,6.35-5.54,8.52-6.99,17.83-12.96,27.66-17.93,21.86-11.07,45.76-17.54,68.99-25.01,11.9-3.83,23.62-7.99,35.16-12.8,11.07-4.61,22.19-9.25,33.99-11.65.38-.08.68.08.87.31,6.03-1.13,12.18-1.25,18.34.32,5.91,1.51,11.54,4.18,17.04,6.76,5.66,2.66,11.31,5.3,17.12,7.64,10.68,4.31,21.63,8.24,31.48,14.31,4.3,2.65,8.43,5.72,12.16,9.13,3.65,3.33,7.03,7.19,9.03,11.76,1.75,3.98,2.41,8.7,1.34,12.96Z"/>
        <path class="cls-18" d="M128.16,707.11c-3.82,4.16-7.28,8.71-10.07,13.55,4.67-3.38,7.65-8.32,10.07-13.55Z"/>
        <path class="cls-18" d="M164.63,734.51c2.72-1.27,5.19-3,7.35-5.12,4.06-3.99,6.99-8.86,9.8-13.8-1.2,1.48-2.39,2.95-3.6,4.4-4.23,5.08-9.8,9.06-13.56,14.51Z"/>
        <path class="cls-18" d="M236.78,718.63c3.98-2.72,7.74-5.75,11.15-9.16,3.47-3.47,6.49-7.36,9.58-11.17.84-1.04,1.69-2.07,2.55-3.09-10.87,9.13-21.38,18.69-31.61,28.53,2.84-1.59,5.63-3.27,8.32-5.11Z"/>
        <path class="cls-18" d="M350.02,690.45c-3.56,2.45-7.32,4.65-10.68,7.37-2.32,1.88-4.82,4.23-5.84,7.14,3.73-2.21,7.52-4.34,11.18-6.66,3.77-2.39,7.41-5.01,10.61-8.14,3.08-3.02,5.46-6.54,7.63-10.26,1.14-1.95,2.25-3.95,3.37-5.93-2.14,2.5-4.29,4.99-6.5,7.42-3.03,3.34-6.06,6.48-9.78,9.04Z"/>
        <path class="cls-18" d="M270.1,725.78c2.65-2.2,5.03-4.7,7.1-7.49,1.04-1.41,2.01-2.87,2.96-4.34-.93.93-1.83,1.87-2.69,2.78-2.63,2.8-5.22,5.81-7.36,9.06Z"/>
        <path class="cls-18" d="M206.52,710.38c3.1-1.92,6.03-4.13,8.67-6.65,2.01-1.92,3.76-4.06,5.42-6.29-6.69,5.21-13.3,10.52-19.75,16.02,1.95-.92,3.84-1.94,5.67-3.07Z"/>
        <path class="cls-21" d="M168.25,590.93c-.37,2.31-1.76,4.24-2.94,6.2-1.05,1.75-1.82,3.6-2.41,5.55-1.31,4.37-2.2,8.78-2.36,13.34-.17,4.68-.21,9.32-.68,13.99-.48,4.65-1.03,9.38-2.11,13.93-1.24,5.24-1.57,10.62-2.83,15.85-.1.41.51.32.59.01,1.29-4.66,1.27-9.57,2.57-14.23.63-2.26,1.66-4.37,2.33-6.61.68-2.29,1.04-4.68,1.35-7.05.63-4.74.85-9.52.87-14.31,0-2.29-.01-4.59.23-6.87.24-2.29.72-4.58,1.17-6.83.49-2.48,1.26-4.74,2.37-7.01.94-1.92,1.93-3.86,2.14-6.02.02-.19-.28-.08-.3.06Z"/>
        <path class="cls-21" d="M127.02,612.65c-.06-.29-.53-.04-.54.17-.08,2.45-1.35,4.64-1.73,7.04-.42,2.67.03,5.36-.04,8.04-.07,2.58-.34,5.16-.45,7.75-.1,2.4-.58,5.19,0,7.55.1.4.72.11.79-.17.28-1.19.32-2.42.47-3.63.16-1.39.39-2.77.63-4.15.46-2.67.8-5.31.8-8.03,0-2.58-.61-5.14-.46-7.72.13-2.32.98-4.51.54-6.84Z"/>
        <path class="cls-21" d="M127.74,645.71c-.2.61-.36,1.22-.49,1.85-.06.31-.11.61-.15.92-.02.16-.05.32-.05.48s.02.31.04.46c.01.13.19.14.28.11.13-.04.23-.14.25-.28.09-.59.1-1.19.18-1.78.09-.59.21-1.18.37-1.75.08-.3-.36-.23-.43,0Z"/>
        <path class="cls-21" d="M152.22,592.61c-1.77,2.87-2.48,5.87-2.72,9.21-.25,3.52.03,7.04-.09,10.56-.06,1.75-.33,3.47-.46,5.21-.15,1.92-.17,3.83-.18,5.76-.01,1.93-.05,3.84-.27,5.77-.25,2.08-.8,4.09-1.32,6.12-.09.36.41.26.51,0,.7-1.87,1.07-3.85,1.48-5.8.38-1.81.78-3.61,1.12-5.42.69-3.67,1.29-7.39,1.46-11.13.15-3.34-.21-6.7-.35-10.03-.14-3.28-.11-7.08,1.43-10.07.23-.46-.4-.51-.6-.18Z"/>
        <path class="cls-21" d="M148.32,642.19c-.1,1.52-.56,2.95-.88,4.42-.09.4.48.3.57,0,.48-1.47.84-3.02.92-4.56.02-.38-.59-.17-.61.13Z"/>
        <path class="cls-21" d="M225.92,568.65c-2.06,3.63-3.51,7.43-4.69,11.42-1.21,4.07-2.12,8.22-3.52,12.24-.69,1.97-1.47,3.92-2.47,5.76-1.02,1.9-2.3,3.62-3.57,5.36-1.29,1.77-2.58,3.57-3.6,5.52-1,1.93-1.7,4.01-2.38,6.08-1.59,4.85-2.9,9.88-3.85,14.9-.09.46.69.24.78-.08,1.31-4.41,2.28-8.91,3.88-13.24,1.58-4.28,3.68-8.06,6.44-11.69,2.53-3.33,4.77-6.73,6.23-10.67,1.44-3.88,2.32-7.94,3.24-11.97,1.04-4.53,1.98-9.28,4.09-13.46.22-.44-.39-.5-.58-.17Z"/>
        <path class="cls-21" d="M205.04,632.26c-.16,0-.34.12-.39.27-.43,1.29-.67,2.64-1.21,3.89-.07.15.06.29.21.3.18,0,.34-.13.41-.29.53-1.26.76-2.61,1.18-3.9.05-.15-.04-.28-.2-.28Z"/>
        <path class="cls-21" d="M270.75,553.04c-3.27,6.14-6,12.51-8.61,18.95-2.53,6.24-5.16,12.38-7.24,18.79-.99,3.07-2.01,6.13-3.3,9.09-1.29,2.93-3.05,5.57-4.77,8.26-3.6,5.61-7.3,11.19-10.11,17.26-1.61,3.46-2.85,7.07-4.13,10.66-1.28,3.59-2.8,7.04-4.26,10.56-.3.72.82.57,1.08.16,1.8-2.81,2.98-6.05,4.18-9.15,1.25-3.2,2.42-6.43,3.8-9.57,2.71-6.15,6.45-11.73,10.19-17.28,1.86-2.75,3.78-5.51,5.28-8.48,1.44-2.85,2.53-5.84,3.5-8.88.94-2.93,1.81-5.89,2.81-8.81,1.1-3.18,2.43-6.29,3.61-9.44,2.74-7.35,5.29-14.84,8.75-21.89.3-.6-.55-.7-.8-.23Z"/>
        <path class="cls-21" d="M226.72,639.08c-.21-.07-.43.09-.55.25-.55.74-.97,1.56-1.33,2.4-.18.41-.34.82-.48,1.24-.14.43-.22.87-.3,1.32-.03.16.15.24.28.23.18-.02.32-.14.39-.3.19-.41.37-.81.52-1.24.14-.4.28-.81.43-1.2.3-.79.67-1.56,1.15-2.26.11-.16.07-.38-.12-.44Z"/>
        <path class="cls-21" d="M285.64,595.69c-.82,2.26-2.11,4.38-3.14,6.54-.97,2.04-1.69,4.14-2.44,6.26-1.53,4.34-3.8,8.37-5.48,12.65-.22.58.65.47.86.13,2.47-4.02,5-8.05,6.51-12.56,1.45-4.32,2.93-8.61,4.05-13.02.06-.25-.3-.18-.36,0Z"/>
        <path class="cls-21" d="M278.75,624.99c-.21,0-.43.15-.5.35-.16.46-.34.92-.55,1.36-.03.06-.09.19-.14.28-.05.1-.11.2-.16.31-.12.21-.25.42-.36.64-.1.18-.11.46.14.52.25.06.51-.09.65-.29.28-.43.5-.91.69-1.39.19-.46.35-.93.49-1.41.05-.19-.05-.36-.26-.37Z"/>
        <path class="cls-21" d="M280.2,567.88c-.95,5.22-2.96,10.36-5,15.24-2.01,4.8-4.19,9.51-6.5,14.17-2.28,4.61-4.66,9.19-6.59,13.96-2.01,4.97-3.4,10.02-4.62,15.23-.66,2.82-1.57,5.49-2.71,8.14-1.1,2.56-2.25,5.09-2.76,7.85-.05.27.43.16.48-.05,1.08-5.01,3.94-9.41,5.59-14.23,1.79-5.21,3.35-10.47,5.53-15.54,4.12-9.57,9.45-18.56,13.05-28.37,1.98-5.38,3.04-10.87,3.98-16.51.05-.27-.41-.12-.45.1Z"/>
        <path class="cls-21" d="M255.15,645.72c-.17-.04-.38.06-.47.21-.24.41-.37.88-.35,1.35,0,.08.02.14.09.19.06.04.16.05.23.03.09-.02.18-.07.25-.14.05-.06.11-.14.11-.23,0-.1,0-.21,0-.31,0-.05,0-.09.02-.14,0-.01,0-.03,0-.04,0-.02,0-.04.01-.05.02-.09.05-.19.09-.28,0-.03.02-.05.03-.08,0,0,0,0,0-.01.01-.02.02-.04.03-.06.01-.03.03-.05.04-.07.04-.07.07-.15.05-.23-.02-.07-.08-.13-.15-.15Z"/>
        <path class="cls-21" d="M338.38,599.26c-.28-3.73-.75-7.42-.68-11.17.07-3.64.38-7.29.84-10.91.54-4.27,1.35-8.47,2.42-12.63.12-.45-.56-.36-.65-.01-1.92,7.33-4.1,14.7-4.57,22.3-.24,3.76-.03,7.43.38,11.17.44,3.95.6,7.93.89,11.89.31,4.3.54,8.8,1.67,12.97.15.55.97.03.93-.41-.37-3.95-.72-7.86-.82-11.84-.09-3.78-.12-7.57-.4-11.35Z"/>
        <path class="cls-21" d="M311.02,594.55c-.27,3.08-1.38,6.01-2.28,8.95-.82,2.65-1.73,5.42-1.39,8.22.05.41.67.02.71-.23.44-2.95,1.06-5.83,1.86-8.71.76-2.74,1.42-5.5,1.64-8.34.03-.33-.51-.15-.53.11Z"/>
        <path class="cls-21" d="M355.68,565.96c.06-.45-.66-.18-.72.15-1.43,7.21-5,13.83-4.97,21.33.02,3.88,1.27,7.63.78,11.53-.44,3.51-1.79,7.09-1.22,10.66.07.43.72.04.76-.25.41-3.8,1.47-7.4,2.11-11.16.65-3.83-.25-7.61-.31-11.44-.1-7.07,2.59-13.89,3.57-20.83Z"/>
        <path class="cls-21" d="M354.74,604.96c-.2.04-.34.2-.38.39-.51,2.48-.77,5.01-1.24,7.5-.09.45.7.25.78-.08.66-2.47.72-5.06,1.18-7.57.04-.19-.2-.27-.34-.24Z"/>
        <path class="cls-21" d="M397.21,584.51c-2.97,4.83-3.98,10.34-5.98,15.56-1.01,2.65-2.48,5.05-3.79,7.56-1.17,2.22-2.59,4.96-2.25,7.55.09.73,1.24.14,1.36-.29.77-2.69,1.73-5.12,3.05-7.6,1.26-2.35,2.56-4.64,3.41-7.18,1.68-5.03,2.13-10.79,4.9-15.39.31-.51-.46-.59-.7-.2Z"/>
        <path class="cls-21" d="M387.51,592.29c-.25-.01-.47.18-.56.4-.66,1.48-1.33,2.95-1.91,4.46-.57,1.5-1.02,3-1.04,4.61,0,.49.69.17.75-.16.61-3.1,1.82-6.01,3.05-8.9.09-.21-.08-.4-.29-.41Z"/>
      </g>
      <g>
        <g>
          <path class="cls-24" d="M705.47,582.57c-2.03-4.22-5.33-7.79-9.26-10.3-1.11-.71-2.26-1.32-3.44-1.9-4.77-1.33-9.41-2.9-12.38-7.3-4.31-6.38-7.51-10.99-14.92-13.9-.38-.25-.76-.5-1.13-.75-.16-.11-.41,0-.54.13-.72-.25-1.44-.5-2.17-.72-8.22-2.39-17.62-2.51-25.85,0-3.85,1.17-7.49,2.99-10.68,5.45-3.44,2.65-5.95,5.96-8.46,9.46-5.04,7.01-10.95,13.47-18.11,18.36-7.29,4.98-16.66,8.48-25.52,9.41-5.49.96-36.71,22.31-42.2,23.15-12.53,1.91-25.06,3.75-37.58,5.63-11.48,1.72-22.93,3.58-34.38,5.42-10.45,1.68-20.91,3.42-31.28,5.59-20.52,4.3-40.94,10.38-59.21,20.9-9.82,5.65-18.46,12.76-26.84,20.33-7.55,6.83-15.75,13.57-21.04,22.41-4.67,7.79-6.29,17.78-2.38,26.25.34.74.74,1.44,1.16,2.1-3.05,10.94-4.29,22.38-2.88,33.66,2.07,16.58,10.42,31.24,22.25,42.84,12.3,12.06,27.61,20.85,43.4,27.49,15.4,6.48,31.65,11.13,48.13,13.86,17.46,2.9,35.36,3.72,52.98,1.92,17.44-1.78,34.77-6.18,50.41-14.22,15.12-7.77,27.88-19.12,38.09-32.6.81.27,1.63.5,2.48.65,6,1.08,11.19-2.41,14.58-7.07.55-.62,1-1.36,1.38-2.16.72-1.24,1.33-2.54,1.85-3.87.55-3.08,1.1-6.16,1.63-9.25,2.75-16.02,5.13-32.09,7.26-48.21,1.05-7.98,27.83-36.54,29.14-44.49.09-.88.18-1.77.27-2.65,1.13-10.55,2.14-21.37,6.42-31.2,3.63-8.32,9.15-15.69,15.75-21.89,3.29-3.1,6.83-5.93,10.52-8.55,3.09-2.19,6.27-4.4,9.7-6.04,5.63-2.7,11.72-4.41,17.62-6.39.65-.22,1.29-.41,1.91-.6,2.42-.75,4.64-1.43,6.77-3.13,2.63-2.1,5.47-3.21,7.53-5.86,2.57-3.31.67-8.46-1.01-11.95Z"/>
          <path class="cls-37" d="M553.77,811.71c-12.93,11.45-28.69,19.15-45.28,23.68-17.03,4.66-34.89,6.14-52.5,5.34-16.79-.75-33.48-3.55-49.62-8.23-16.11-4.67-31.88-11.08-46.15-19.95-14.13-8.78-27.08-20.38-34.81-35.32-7.69-14.86-8.93-32.02-5.71-48.26.31-1.58.7-3.15,1.1-4.71,2.89,3.25,6.91,5.27,11.27,6.38,6.63,1.69,13.56,1.68,20.34,2.2,6.41.49,13.22,1.29,18.54,5.21,7.93,5.85,12.8,14.72,17.49,23.16,4.83,8.7,10.05,16.96,16.96,24.19,15.07,15.74,35.54,25.17,56.98,28.25,22.35,3.2,46-.12,66.72-9,8.34-3.58,16.5-7.74,25.13-10.56.14.12.35.17.67.05,3.21-1.22,6.28-2.12,9.71-1.35,1.69.38,3.29,1.03,4.9,1.65-4.69,6.23-9.88,12.06-15.75,17.26Z"/>
          <path class="cls-22" d="M351.12,766.6c-1.7-3.22-3.51-6.41-5.59-9.39-1.97-2.81-5.03-5.8-8.56-6.37-2.74-.44-3.71,1.36-3.94,3.57-.03.69-.03,1.37-.03,2.05.06,1.11.23,2.19.39,3.01.06.33-.04.58-.21.76.16,1.57.46,3.09,1.05,4.63,1.47,3.8,3.35,7.47,5.44,10.96,2.28,3.81,4.88,7.69,8.28,10.6,2.1,1.8,5.7,3.98,8.34,1.83,2.33-1.91,1-6.48.31-8.83-1.3-4.46-3.32-8.72-5.49-12.82Z"/>
          <path class="cls-5" d="M564.62,792.8c-3.43-.77-6.5.12-9.71,1.35-.32.12-.53.07-.67-.05-8.64,2.82-16.79,6.98-25.13,10.56-20.72,8.88-44.37,12.2-66.72,9-21.44-3.07-41.91-12.51-56.98-28.25-6.92-7.22-12.13-15.49-16.96-24.19-4.69-8.44-9.56-17.31-17.49-23.16-5.32-3.92-12.14-4.71-18.54-5.21-6.78-.52-13.71-.51-20.34-2.2-4.36-1.11-8.38-3.13-11.27-6.38-.39,1.57-.78,3.13-1.1,4.71-3.22,16.24-1.98,33.41,5.71,48.26,7.73,14.94,20.68,26.54,34.81,35.32,14.27,8.87,30.04,15.27,46.15,19.95,16.14,4.68,32.83,7.48,49.62,8.23,17.61.79,35.47-.69,52.5-5.34,16.59-4.54,32.36-12.23,45.28-23.68,5.87-5.2,11.06-11.04,15.75-17.26-1.61-.63-3.21-1.28-4.9-1.65ZM433.67,827.59c-2.85,1.04-6.02,1.31-9.04,1.37-6.66.12-13.29-1-19.77-2.44-6.55-1.45-13.21-2.96-19.47-5.39-6.9-2.68-13.38-6.35-19.52-10.47-5.13-3.44-10-7.15-14.55-11.33-8.64-7.94-16.6-16.97-22.33-27.27-3.84-6.91-6.63-14.79-6.4-22.65-.63-3.02-.86-6.21.24-9.05,1.62-4.15,6.1-5.2,10.16-4.91,6.05.43,11.63,3.2,17.1,5.57,5.28,2.29,10.13,5.14,14.43,9,4.02,3.61,7.47,7.8,10.59,12.19,6.36,8.95,11.54,18.74,18.66,27.15,3.94,4.66,8.48,8.82,13.69,12.03,6.36,3.91,13.42,6.45,20,9.92,3.02,1.59,6.17,3.33,8.73,5.62,1.63,1.46,3.4,3.52,2.97,5.88-.46,2.58-3.26,3.97-5.47,4.78ZM477.98,830.82c-2.98,1.67-6.57,2.36-9.94,2.75-3.92.46-8.03.49-11.9-.37-2.87-.64-6.29-1.9-7.45-4.87-2.38-6.09,7.32-7.34,12.41-6.99.27-.05.54-.1.8-.15,3.35-.59,6.77-.89,10.17-.88,2.95,0,11.16.08,10.52,4.9-.31,2.36-2.67,4.53-4.62,5.62Z"/>
          <path class="cls-44" d="M704.58,592.46c-.91,2.36-3.05,4.31-5.05,5.76-.59.43-1.2.82-1.83,1.19-4.11,1.51-8.27,2.87-12.42,4.25-5.3,1.76-10.9,3.41-15.76,6.25-7.57,4.43-14.7,9.81-20.89,16.03-6.06,6.1-11.14,13.24-14.52,21.17-4.04,9.48-5.16,19.78-6.27,29.93-.1.91-.19,1.82-.29,2.74-1.03,4.87-1.88,9.76-2.49,14.72-.85,6.83-27.39,34.21-28.36,41.02-.99,6.9-2.03,13.8-2.97,20.72-.93,6.85-1.71,13.73-3.24,20.48-.52,2.31-.93,4.65-1.5,6.94-.04.15-.08.31-.12.46,0,.01-.01.02-.01.04-1.69,3.63-4.44,7.28-8.07,8.86-.03-.53-.66-.91-1.37-.52-2.67,1.46-5.6-.23-8.03-1.43-1.26-.62-2.49-1.26-3.89-1.52-1.79-.34-3.65-.13-5.42.19-1.89.35-3.76.88-5.57,1.51-.46.14-.92.25-1.38.4-4.79,1.5-9.44,3.44-14.03,5.47-9.47,4.19-18.75,8.79-28.84,11.33-11.26,2.83-22.84,4.42-34.46,4.29-22.01-.24-44.23-6.98-61.66-20.65-7.95-6.23-14.92-13.74-20.43-22.21-5.2-7.98-9.17-16.74-14.99-24.33-2.69-3.5-5.76-6.86-9.43-9.34-2.41-1.63-5.13-2.68-7.93-3.42-6.44-1.69-13.21-1.82-19.81-2.36-6.04-.5-12.76-1.17-17.88-4.75-.51-.35-.98-.74-1.42-1.14-.03-.01-.05-.02-.08-.04-3.08-1.78-4.6-5.02-5.07-8.49-.95-3.28-1.16-6.82-.75-10.14,1.26-10.09,8.33-18.11,15.42-24.84,7.95-7.54,16.12-15.11,24.98-21.58,16.88-12.33,36.99-19.67,57.13-24.7,20.42-5.09,41.34-8.05,62.11-11.35,12.17-1.94,24.37-3.75,36.55-5.62,2.4-.37,4.81-.73,7.22-1.09.12-.11.27-.2.47-.23,1.88-.27,3.76-.5,5.65-.71,6.09-.68,37.86-21.93,43.88-23.07,9.26-1.75,18.15-3.74,26.23-8.81,6.97-4.38,12.91-10.18,17.99-16.62,2.71-3.44,4.95-7.29,8.11-10.36,2.91-2.83,6.41-5.04,10.22-6.43,8.2-3,17.97-2.99,26.28-.49,3.11.93,6.05,2.25,8.92,3.7.85.85,1.65,1.73,2.36,2.71,1.9,2.66,2.6,5.35,2.7,8.57.06,1.95-.03,4.58.32,7.03,1.34,1.89,2.99,3.59,4.92,4.77-3.77-3.06-2.93-9.4-3.33-13.74-.02-.27-.07-.52-.11-.78.85,1.15,1.75,2.25,2.79,3.2,3.31,3.03,7.63,4.64,11.62,6.55,3.98,1.91,7.56,4.44,10.2,8.03,1.26,1.7,2.29,3.57,3.03,5.56.81,2.17,1.49,4.67.62,6.93Z"/>
          <path class="cls-24" d="M420.35,786.64c-11.46-8.02-17-20.84-23.06-32.93-5.99-11.96-12.97-24.3-25.7-30.09-7.05-3.2-14.7-4.1-22.3-5.07-.33-.04-.72.5-.28.56,6.63.93,13.42,2.34,19.57,5.06,6.13,2.71,11.33,6.97,15.52,12.2,8.42,10.53,12.78,23.65,20.03,34.93,4.06,6.32,8.93,12,15.31,16.06.44.28,1.4-.37.9-.73Z"/>
          <path class="cls-6" d="M703.96,585.53c-.74-1.98-1.78-3.86-3.03-5.56-2.65-3.59-6.22-6.12-10.2-8.03-3.99-1.91-8.31-3.52-11.62-6.56-1.03-.95-1.94-2.05-2.79-3.2.04.26.09.51.11.78.4,4.34-.44,10.68,3.33,13.74-1.93-1.17-3.58-2.87-4.92-4.77-.35-2.45-.26-5.08-.32-7.03-.09-3.21-.8-5.91-2.7-8.57-.7-.98-1.51-1.86-2.36-2.71-2.87-1.46-5.81-2.77-8.92-3.7-8.32-2.5-18.09-2.51-26.28.49-3.81,1.4-7.31,3.6-10.22,6.43-3.15,3.07-5.39,6.92-8.11,10.36-5.08,6.45-11.02,12.25-17.99,16.62-8.07,5.07-16.96,7.06-26.23,8.81-6.02,1.14-37.79,22.39-43.88,23.07-1.89.21-3.77.44-5.65.71-.2.03-.35.12-.47.23-2.41.36-4.82.73-7.22,1.09-12.18,1.87-24.38,3.68-36.55,5.62-20.76,3.3-41.68,6.26-62.11,11.35-20.14,5.02-40.24,12.36-57.13,24.7-8.86,6.47-17.03,14.03-24.98,21.58-7.09,6.73-14.17,14.75-15.42,24.84-.41,3.33-.2,6.87.75,10.14.47,3.47,2,6.71,5.07,8.49.03.01.05.02.08.04.45.4.92.79,1.42,1.14,5.12,3.57,11.84,4.25,17.88,4.75,6.6.54,13.37.67,19.81,2.36,2.8.74,5.52,1.79,7.93,3.42,3.67,2.49,6.75,5.84,9.43,9.34,5.82,7.58,9.79,16.34,14.99,24.33,5.52,8.46,12.49,15.97,20.43,22.21,17.43,13.67,39.65,20.41,61.66,20.65,11.62.13,23.21-1.46,34.46-4.29,10.09-2.54,19.37-7.14,28.84-11.33,4.59-2.03,9.24-3.96,14.03-5.47.46-.14.92-.26,1.38-.4,1.82-.62,3.68-1.16,5.57-1.51,1.78-.33,3.63-.53,5.42-.19,1.39.26,2.63.9,3.89,1.52,2.43,1.2,5.36,2.89,8.03,1.43.71-.39,1.34-.01,1.37.52,3.64-1.57,6.39-5.23,8.07-8.86,0-.01,0-.03.01-.04.04-.15.08-.31.12-.46.57-2.3.97-4.64,1.5-6.94,1.53-6.75,2.3-13.63,3.24-20.48.94-6.91,1.98-13.81,2.97-20.72.98-6.81,27.51-34.19,28.36-41.02.61-4.96,1.46-9.85,2.49-14.72.1-.91.19-1.82.29-2.73,1.11-10.15,2.23-20.45,6.27-29.93,3.38-7.93,8.46-15.06,14.52-21.17,6.18-6.22,13.32-11.6,20.89-16.03,4.85-2.84,10.45-4.48,15.76-6.25,4.15-1.38,8.31-2.75,12.42-4.25.63-.37,1.24-.76,1.83-1.19,2.01-1.45,4.14-3.4,5.05-5.76.87-2.25.2-4.76-.62-6.93ZM676.98,595.83c-5.65,4.04-12,7.06-18.29,9.96-5.98,2.76-11.89,5.66-17.79,8.58-15.12,7.49-30.16,15.27-44.28,24.57-13.9,9.16-52.65,40.43-63.07,53.49-9.27,11.63-16.31,24.98-19.98,39.41-2.85,11.2-4.79,22.67-8.79,33.54-3.52,9.56-9.11,19.46-19.09,23.35-5.39,2.11-11.34,2.18-16.99,1.19-8.54-1.51-16.69-5.1-23.53-10.45-3.43-2.68-6.6-5.86-9.07-9.46-2.33-3.39-3.8-7.32-5.01-11.23-2.14-6.93-3.39-14.59-7.27-20.83-.4,16.66,3.77,34.79,14.36,47.82.5.61-.07,1.72-.89,1.53-8.81-1.97-15.76-7.37-20.95-14.63-9.53-13.35-13.38-30.45-25.49-41.99-7.5-7.15-17.32-10-26.89-13.26-4.95-1.68-9.61-3.47-13.65-6.87-3.39-2.84-6.26-6.23-9.56-9.17-1.64,4.74,1.12,10.56,3.43,14.58.4.71-.38,1.33-1.01,1.32-2.43-.05-4.73-.82-6.77-2.13-4.23-2.71-6.91-7.55-6.84-12.58.07-5.27,2.53-10.19,5.54-14.39,6.55-9.13,16.06-16.49,25.35-22.64,20.34-13.46,43.73-21.39,67.36-26.79,11.88-2.72,23.91-4.93,35.97-6.65,12.62-1.8,25.3-3.06,37.95-4.63,12.83-1.6,51.36-24.07,63.92-27.16,6.3-1.55,12.52-3.42,18.58-5.71,5.73-2.16,11.39-4.6,16.54-7.94,4.81-3.11,9.16-6.87,13.11-11.01,3.92-4.12,7.21-8.85,11.36-12.75,3.37-3.16,7.26-5.75,11.44-7.47.07-.24.23-.45.51-.58,3.06-1.48,6.34-2.52,9.68-3.1,6.84-1.17,14.82-.24,19.24,5.72,1.92,2.59,2.71,5.36,3.01,8.54.28,2.99.33,6.26,2.47,8.61,2.53,2.78,5.96,2.89,9.41,3.27,2.62.29,4.69,1.4,4.89,4.27.44,6-4.46,10.46-8.92,13.65Z"/>
          <path class="cls-8" d="M521.4,763.51c-1.89,2.18-3.8,4.34-5.76,6.46-6.66,7.21-14.23,14.54-23.08,19.17,6.43-.24,13.17-2.65,18.29-6.37,6.03-4.38,9.59-11.88,10.55-19.26Z"/>
          <path class="cls-6" d="M640.21,626.07c-5.82,3.75-11.17,8.48-15.81,13.62-4.16,4.61-7.7,9.76-10.23,15.43-2.62,5.87-4.12,12.15-4.81,18.54-.85,7.9-.5,15.91-.28,23.84.22,8.2-25.25,36.98-25.9,45.16-.56,7-1.73,14.06-4.31,20.62-1.95,4.95-4.85,9.7-9.18,12.91-2.23,1.65-4.77,2.82-7.46,3.52-3.42.89-6.95.82-10.46.85-3.92.03-7.87.14-11.69,1.13-3.85,1.01-7.54,2.88-11.04,4.74-3.39,1.79-6.68,3.76-10.01,5.68-3.24,1.87-6.61,3.47-10.07,4.9-7.06,2.92-14.41,5.14-21.86,6.82-7.27,1.63-14.71,2.7-22.1,3.63-6.24.78-12.74,1.23-19,.24,10.25,3.26,21.03,4.93,31.77,5.05,11.62.13,23.21-1.46,34.46-4.29,10.09-2.54,19.37-7.14,28.84-11.33,4.59-2.03,9.24-3.96,14.03-5.47.46-.14.92-.26,1.38-.4,1.82-.62,3.68-1.16,5.57-1.51,1.78-.33,3.63-.53,5.42-.19,1.39.26,2.63.9,3.89,1.52,2.43,1.2,5.36,2.89,8.03,1.43.71-.39,1.34-.01,1.37.52,3.64-1.57,6.39-5.23,8.07-8.86,0-.01,0-.03.01-.04.04-.15.08-.31.12-.46.57-2.3.97-4.64,1.5-6.94,1.53-6.75,2.3-13.63,3.24-20.48.94-6.91,1.98-13.81,2.97-20.72.98-6.81,27.51-34.19,28.36-41.02.61-4.96,1.46-9.85,2.49-14.72.1-.91.19-1.82.29-2.73,1.11-10.15,2.23-20.45,6.27-29.93,3.38-7.93,8.46-15.06,14.52-21.17,3.02-3.04,6.28-5.87,9.69-8.5-6.27,2.34-12.46,4.99-18.11,8.63Z"/>
          <path class="cls-8" d="M703.96,585.53c-.5-1.33-1.17-2.58-1.91-3.8.12,7.09-4.06,14.36-8.88,19.26,1.51-.52,3.02-1.04,4.52-1.59.63-.37,1.24-.76,1.83-1.19,2.01-1.45,4.14-3.4,5.05-5.76.87-2.25.2-4.76-.62-6.93Z"/>
          <path class="cls-22" d="M434.66,647.89c-6.2,1.5-12.38,3.1-18.52,4.85-5.36,1.52-10.76,2.84-16.03,4.66-10.31,3.56-20.18,8.76-27.87,16.61-3.63,3.7-6.58,8.17-6.91,13.47-.27,4.31,1.89,8.65,4.17,12.18,2.45,3.81,5.61,7.37,9.49,9.76,1.75,1.08,3.69,1.88,5.74,2.11,1.5.17,3.34.17,4.54-.91,2.12-1.91,1.58-5.86,1.39-8.38-.26-3.51-.6-6.94.14-10.41,1.85-8.73,8.51-15.16,15.79-19.77,8.41-5.33,17.84-8.95,27.17-12.3,11.63-4.18,23.4-7.95,34.89-12.51,1.98-.79,3.95-1.63,5.82-2.65,1.03-.56,2.49-1.29,3.1-2.36.17-.3.18-.39.08-.55-.16-.25-.65-.5-.97-.64-1.43-.65-3.05-.94-4.65-1.13-12.51,2.4-24.99,4.98-37.37,7.97Z"/>
        </g>
        <path class="cls-5" d="M352.82,677.6c0-.14-.04-.28-.11-.4-.21-.34-.51-.5-.89-.58-.03,0-.06,0-.1,0,0,0-.01-.01-.02-.02-.39-.15-.78-.03-1.12.18,0,0-.01,0-.01,0,.03-.02.06-.04.1-.06-.06.04-.12.06-.19.09-.02,0-.04.01-.06.02-.01,0-.02,0-.03,0-.15.06-.29.12-.44.18,0,0,0,0-.01,0-.18.08-.35.17-.52.3-.09.07-.19.17-.26.26,0,0-.02.02-.03.03-.08.1-.15.2-.21.32-.05.11-.09.23-.12.34,0,.03-.01.05-.02.07-.04.34.02.62.16.94.12.28.3.54.48.79l.19.25c.09.06.18.11.27.17.11.03.22.06.33.09.19.03.38.03.56-.02.14-.01.27-.05.39-.12.14-.04.26-.1.37-.19.12-.06.23-.15.32-.25.15-.12.26-.27.34-.45.15-.28.28-.57.39-.87.14-.38.26-.67.24-1.07Z"/>
        <path class="cls-5" d="M357.39,693.94c-1.43-.19-3.11,2.17-1.21,2.43,1.43.19,3.11-2.17,1.21-2.43Z"/>
        <path class="cls-5" d="M370.36,717.24c-1.12-.15-2.42,1.69-.94,1.89,1.12.15,2.42-1.69.94-1.89Z"/>
        <path class="cls-5" d="M375.48,676.55c-.02-.07-.04-.14-.07-.2-.38-1.17-2.23-.16-2.59.49l-.13.24c-1.04,1.9,3.59,1.94,2.79-.53Z"/>
        <path class="cls-5" d="M383.3,657.17c-.16-.13-.35-.22-.56-.25-.24-.03-.48-.01-.71.05-.14.02-.27.05-.4.08-.11.04-.22.08-.32.13-.1.06-.2.12-.29.19-.08.08-.16.15-.23.23-.1.11-.17.24-.21.39-.04.08-.06.17-.05.26-.02.09,0,.18.03.26.01.09.05.16.12.22.07.12.17.2.3.25l.31.18c.21.09.43.12.65.1.26-.02.5-.09.74-.21.23-.12.43-.28.6-.48.12-.13.2-.27.24-.44.07-.14.09-.29.07-.45-.03-.21-.12-.37-.27-.51Z"/>
        <path class="cls-5" d="M396.41,678.51c-1.18-.16-2.57,1.8-1,2.01,1.18.16,2.57-1.8,1-2.01Z"/>
        <path class="cls-5" d="M400.82,701.89c-.01-.18-.08-.33-.2-.45-.08-.1-.08-.12-.16-.17-.11-.07-.21-.14-.32-.2l-.3-.08c-.17-.03-.34-.02-.51.02-.12.01-.24.05-.35.1-.18.06-.34.15-.48.27.09-.06.19-.13.28-.19-.04.02-.07.04-.11.06-.24.11-.53.34-.69.55-.05.05-.08.12-.11.17-.01.02-.02.04-.04.05,0,0,0,0-.01.02-.03.04-.06.09-.08.13-.03.03-.05.06-.07.09-.03.03-.07.06-.1.1-.13.14-.22.3-.26.48-.05.1-.08.21-.07.33-.02.16,0,.32.09.47.07.08.13.17.19.25.09.06.19.12.28.17.17.08.34.11.52.1.2.02.4,0,.59-.07.18-.06.35-.13.52-.21.04-.02.08-.04.12-.07.15-.09.29-.18.43-.28.02-.01.03-.03.05-.04,0,0,.02-.01.03-.02.06-.05.11-.1.16-.16.06-.05.11-.1.16-.16.07-.11.14-.22.22-.34,0,0,0,0,0-.01,0,0,.01-.02.02-.03.02-.04.04-.08.05-.11.05-.13.1-.26.14-.4,0-.01,0-.02,0-.03,0-.11.01-.23.02-.34Z"/>
        <path class="cls-5" d="M383.36,706.13c-1.2-.16-2.6,1.82-1.01,2.03,1.2.16,2.6-1.82,1.01-2.03Z"/>
        <path class="cls-5" d="M414.69,737.65c-.02-.11-.08-.21-.17-.28-.06-.04-.13-.08-.19-.12-.16-.07-.32-.09-.5-.08-.09.02-.19.03-.28.05-.2.06-.37.15-.53.28l-.47.36c-.11.08-.21.19-.27.31-.08.1-.13.21-.15.34-.03.11-.02.23.02.33.02.11.08.21.17.28.06.04.13.08.19.12.16.07.33.09.5.08.09-.02.19-.03.28-.05.2-.06.37-.15.54-.28l.47-.36c.11-.08.21-.19.27-.31.08-.1.13-.21.15-.34.03-.12.02-.23-.02-.34Z"/>
        <path class="cls-5" d="M418.85,759.2c-.1-.18-.24-.31-.43-.39-.2-.08-.42-.12-.64-.1h-.23s-.08,0-.11,0c-.23,0-.52.1-.72.21-.01,0-.03.01-.04.02-.16.08-.3.18-.42.31-.12.1-.22.23-.29.38-.03.09-.07.18-.09.27-.04.18-.02.36.06.52.1.18.24.35.44.41.03,0,.06.02.1.03.07.02.13.04.2.06.21.09.42.12.64.1.25-.02.49-.09.72-.21.11-.07.22-.14.33-.21.19-.15.34-.33.44-.54.08-.14.12-.29.11-.44.02-.15,0-.29-.08-.42Z"/>
        <path class="cls-5" d="M400.96,733.65c-1.13-.15-2.45,1.71-.95,1.91,1.13.15,2.45-1.71.95-1.91Z"/>
        <path class="cls-5" d="M444.28,754.7l-.18-.57c-.09-.16-.22-.28-.39-.35-.09-.03-.18-.05-.27-.08-.22-.03-.43-.01-.64.05-.18.04-.33.12-.48.23-.15.08-.28.19-.38.33-.11.11-.18.25-.22.39-.06.13-.08.26-.06.4.02.18.1.33.24.46.17.11.35.23.52.35.09.08.19.13.31.15.12.04.24.06.38.04.09-.02.18-.03.27-.05.15-.04.28-.1.4-.19.08-.05.16-.11.22-.18.1-.09.18-.2.24-.32.03-.08.05-.15.08-.23.03-.15.01-.3-.05-.43Z"/>
        <path class="cls-5" d="M440.83,779.19c-.09-.16-.22-.28-.39-.36.05.04.11.07.16.1-.09-.06-.16-.14-.24-.21-.07-.12-.14-.23-.18-.36l.03.1c-.02-.13-.06-.25-.15-.34-.08-.12-.19-.21-.33-.26-.15-.07-.3-.1-.46-.09-.17-.02-.35,0-.52.06-.12.05-.24.09-.35.14-.22.11-.41.27-.58.46-.06.09-.12.18-.18.28-.1.18-.13.37-.12.58.05.19.11.4.19.58.08.18.21.32.33.48.06.08.13.15.21.22.15.12.32.23.51.3.15.07.3.1.45.09.17.02.34,0,.51-.06.19-.05.35-.13.51-.24.16-.09.29-.21.41-.35.06-.09.12-.18.18-.27.09-.18.13-.37.11-.57-.03-.09-.05-.18-.08-.26Z"/>
        <path class="cls-5" d="M462.62,775.29c-.06-.13-.12-.26-.19-.39-.03-.07-.09-.12-.13-.18-.05-.06-.09-.12-.14-.18l-.54-.71c-.07-.14-.17-.24-.3-.31-.13-.1-.27-.15-.43-.17-.18-.03-.35-.02-.52.02-.19.02-.37.08-.55.18-.11.07-.22.14-.33.21-.19.15-.34.33-.45.55-.03.1-.07.2-.1.3-.04.2-.02.39.07.57.18.24.37.48.55.72.05.06.09.11.13.17.02.03.05.06.07.09.08.1.15.21.23.3.11.11.23.21.35.32.11.1.24.16.38.19.15.05.3.07.46.05.11-.02.23-.04.34-.06.19-.05.35-.13.5-.24.11-.06.2-.13.28-.22.13-.11.23-.24.3-.39.03-.09.07-.19.1-.28.04-.19.02-.37-.07-.54Z"/>
        <path class="cls-5" d="M480.55,788.42c-1.25-.16-2.72,1.9-1.06,2.12,1.25.17,2.72-1.9,1.06-2.12Z"/>
        <path class="cls-5" d="M520.52,759.78c-1.16-.15-2.51,1.76-.98,1.96,1.16.15,2.51-1.76.98-1.96Z"/>
        <path class="cls-5" d="M539.29,775.79c-1.28-.17-2.78,1.94-1.08,2.17,1.28.17,2.78-1.94,1.08-2.17Z"/>
        <path class="cls-5" d="M566.63,768.44c-1.2-.16-2.6,1.82-1.01,2.03,1.2.16,2.6-1.82,1.01-2.03Z"/>
        <path class="cls-5" d="M569.93,781.75c-1.09-.15-2.36,1.65-.92,1.84,1.09.15,2.36-1.65.92-1.84Z"/>
        <path class="cls-5" d="M518.07,791.88c-1.54-.2-3.35,2.34-1.3,2.61,1.54.21,3.35-2.34,1.3-2.61Z"/>
        <path class="cls-5" d="M574.09,734.92c-1.22-.16-2.66,1.86-1.04,2.08,1.22.16,2.66-1.86,1.04-2.08Z"/>
        <path class="cls-5" d="M541.46,736.96c-1.22-.16-2.66,1.86-1.04,2.08,1.22.16,2.66-1.86,1.04-2.08Z"/>
        <path class="cls-5" d="M504.58,722.47c-.99-.13-2.15,1.51-.84,1.68.99.13,2.15-1.51.84-1.68Z"/>
        <path class="cls-5" d="M486.01,750.47c-1.18-.16-2.57,1.8-1,2.01,1.18.16,2.57-1.8,1-2.01Z"/>
        <path class="cls-5" d="M485.32,771.04c-.93-.13-2.03,1.42-.79,1.59.93.13,2.03-1.42.79-1.59Z"/>
        <path class="cls-5" d="M507.95,742.8c-.04-.05-.08-.11-.12-.16-.11-.09-.24-.15-.39-.17-.28-.03-.57-.06-.85-.09-.12-.02-.24-.02-.36.01-.13.01-.25.06-.37.12-.12.06-.23.14-.31.24-.09.08-.17.17-.22.28-.08.18-.13.41-.02.59.04.05.08.1.12.16.11.09.23.15.37.17.28.05.55.09.83.14.12.02.25.02.37-.02.13-.02.26-.06.38-.12.12-.06.23-.14.32-.24.09-.08.17-.18.22-.29.08-.19.14-.42.02-.61Z"/>
        <path class="cls-5" d="M462.69,723.44c-.25-.31-.49-.62-.74-.94-.08-.07-.17-.12-.27-.14-.11-.04-.22-.05-.34-.04-.08.01-.16.03-.25.04-.13.04-.25.09-.36.17-.08.04-.14.09-.2.16-.09.08-.17.17-.22.28-.02.06-.05.13-.07.2-.03.14-.01.26.05.39.24.32.48.64.71.95.07.12.17.21.3.27l.21.06c.16.02.33,0,.49-.04.13-.04.25-.09.36-.17.11-.06.21-.15.3-.25.08-.09.13-.19.16-.3.04-.1.06-.2.04-.31-.02-.14-.08-.25-.18-.35Z"/>
        <path class="cls-5" d="M453.5,748c-1-.13-2.18,1.53-.85,1.7,1,.13,2.18-1.53.85-1.7Z"/>
        <path class="cls-5" d="M483.07,693.29c-.09-.43-.18-.87-.27-1.31,0-.1-.05-.18-.11-.25-.05-.08-.12-.14-.22-.17-.19-.09-.46-.08-.65-.02-.23.07-.47.2-.62.4-.12.16-.23.36-.2.57.08.44.16.88.24,1.31.03.2.15.36.34.44.19.09.46.08.66.02.24-.08.48-.21.63-.41.12-.16.25-.37.2-.58Z"/>
        <path class="cls-5" d="M436.93,697.09c-1.2-.16-2.6,1.82-1.01,2.03,1.2.16,2.6-1.82,1.01-2.03Z"/>
        <path class="cls-5" d="M435.01,720.17c-.81-.11-1.76,1.23-.69,1.38.81.11,1.76-1.23.69-1.38Z"/>
        <path class="cls-5" d="M420.36,710.35c-1.51-.2-3.29,2.3-1.28,2.57,1.51.2,3.29-2.3,1.28-2.57Z"/>
        <path class="cls-5" d="M464.91,694.83c-1.22-.16-2.66,1.86-1.04,2.08,1.23.16,2.66-1.86,1.04-2.08Z"/>
        <path class="cls-5" d="M430.15,648.33c-.92-.12-2,1.4-.78,1.56.92.12,2-1.4.78-1.56Z"/>
        <path class="cls-5" d="M421.52,670.56c0-.12-.05-.22-.13-.29-.06-.1-.14-.16-.25-.2-.08-.02-.15-.04-.23-.06-.13-.02-.26-.02-.39.02-.1,0-.19.03-.27.08-.14.04-.27.12-.38.21-.07.07-.13.13-.2.19-.11.13-.18.28-.22.44l-.19.84c-.04.16-.02.32.06.46l.14.19c.13.11.28.18.45.2.14.03.28.02.42-.02.16-.02.3-.07.44-.14.15-.07.27-.16.37-.28.11-.09.2-.2.26-.33.08-.15.11-.31.09-.48,0-.27.02-.54.03-.81Z"/>
        <path class="cls-5" d="M467.73,653.79c-.89-.12-1.94,1.36-.76,1.52.9.12,1.95-1.36.76-1.52Z"/>
        <path class="cls-5" d="M332.09,694.34c-1.03-.14-2.24,1.57-.87,1.75,1.03.14,2.24-1.57.87-1.75Z"/>
        <path class="cls-5" d="M329.47,710.98c-1.07-.14-2.33,1.63-.91,1.82,1.07.14,2.33-1.63.91-1.82Z"/>
        <path class="cls-5" d="M456.57,639.33l-.36-.47c-.05-.1-.12-.17-.21-.21-.08-.07-.18-.1-.29-.11-.12-.02-.24-.01-.35.02-.13.01-.25.06-.37.12-.07.05-.15.1-.22.14-.13.1-.23.22-.31.37-.02.07-.04.14-.07.21-.03.14-.01.26.05.39l.36.47c.05.1.11.16.2.21.08.07.18.1.29.11.12.02.24.01.36-.02.13-.01.25-.06.37-.12.07-.05.15-.1.22-.14.13-.1.23-.23.3-.37.02-.07.05-.14.07-.2.03-.14.01-.26-.05-.39Z"/>
        <path class="cls-5" d="M448.4,655.04c-.9-.12-1.95,1.36-.76,1.52.9.12,1.94-1.36.76-1.52Z"/>
        <path class="cls-5" d="M404,646.53c-.93-.13-2.03,1.42-.79,1.59.93.13,2.03-1.42.79-1.59Z"/>
        <path class="cls-5" d="M503.3,629.9c-1.01-.13-2.18,1.53-.85,1.7,1.01.13,2.18-1.53.85-1.7Z"/>
        <path class="cls-5" d="M490.41,648.53c-.05-.07-.11-.11-.2-.15-.03-.01-.06-.02-.08-.03-.06-.02-.12-.05-.19-.07-.09-.03-.18-.06-.28-.08l-.33-.05c-.12-.02-.23-.02-.34.01-.12.02-.24.05-.36.12-.12.05-.21.13-.3.22-.09.07-.16.16-.21.27-.08.17-.13.39-.02.56.04.05.08.1.12.15.1.09.22.14.36.16.22.03.44.07.65.06.08,0,.15,0,.23-.01.04,0,.07,0,.11,0,.18-.01.33-.09.49-.15.12-.06.23-.15.32-.26.06-.07.1-.15.13-.24.04-.08.05-.16.04-.24-.02-.11-.06-.2-.14-.28Z"/>
        <path class="cls-5" d="M470.19,670.33c-.85-.12-1.85,1.29-.72,1.45.85.11,1.85-1.3.72-1.45Z"/>
        <path class="cls-5" d="M443.93,679.11c-.92-.12-2,1.4-.78,1.56.92.12,2-1.4.78-1.56Z"/>
        <path class="cls-5" d="M516.6,664.41c-1.06-.14-2.3,1.61-.9,1.79,1.06.14,2.3-1.61.9-1.79Z"/>
        <path class="cls-5" d="M503.36,680.57c-1.01-.13-2.18,1.53-.85,1.7,1.01.13,2.18-1.53.85-1.7Z"/>
        <path class="cls-5" d="M496.6,664.66s-.02-.08-.05-.11c-.02-.04-.05-.06-.1-.08l-.09-.03s-.1,0-.15,0c-.03,0-.07.01-.1.03-.05.02-.1.04-.15.08-.03.02-.05.05-.08.07-.04.05-.07.1-.08.16-.04.14-.07.28-.11.42-.01.06,0,.13.02.18.02.03.04.05.06.07.05.05.11.07.18.08.06,0,.11,0,.17,0,.06,0,.12-.03.18-.06.06-.03.11-.06.15-.11.04-.04.08-.08.1-.14.03-.06.04-.12.04-.19v-.4Z"/>
        <path class="cls-5" d="M530.34,688.57c-.84-.11-1.82,1.28-.71,1.42.84.11,1.82-1.28.71-1.42Z"/>
        <path class="cls-5" d="M510.43,701.06c-1.04-.14-2.27,1.59-.88,1.77,1.04.14,2.27-1.59.88-1.77Z"/>
        <path class="cls-5" d="M486.91,717.6c-.95-.13-2.06,1.44-.8,1.61.95.13,2.06-1.44.8-1.61Z"/>
        <path class="cls-5" d="M585.12,677.5c-1.22-.16-2.66,1.86-1.04,2.08,1.22.16,2.66-1.86,1.04-2.08Z"/>
        <path class="cls-5" d="M535.11,722.48c0-.07-.03-.13-.08-.18-.04-.06-.09-.1-.15-.13-.05-.01-.09-.02-.14-.04-.08-.01-.16,0-.24.01-.06,0-.11.02-.17.05-.08.03-.16.07-.23.13-.04.04-.08.08-.12.12-.07.08-.11.17-.13.27-.03.14-.06.28-.1.42-.02.1,0,.19.03.28.03.04.06.07.09.11.08.07.17.11.27.12.09.01.17,0,.26-.01.09-.01.18-.04.26-.09.09-.04.16-.1.22-.17.06-.05.12-.12.16-.2.05-.09.06-.19.05-.29,0-.14,0-.27.01-.41Z"/>
        <path class="cls-5" d="M537.21,704.8c0-.09-.04-.17-.1-.23-.05-.07-.11-.13-.2-.16-.12-.05-.23-.09-.35-.14-.14-.06-.28-.08-.43-.06-.17.01-.33.06-.49.14-.07.05-.15.1-.22.14-.13.1-.23.22-.3.36-.05.1-.08.19-.07.3-.02.1,0,.19.05.28.13.25.45.35.72.32l.44-.04.21-.04c.11-.03.22-.08.31-.15.07-.03.13-.08.17-.14.08-.07.14-.15.19-.24.02-.06.04-.12.06-.18v-.18Z"/>
        <path class="cls-5" d="M611.94,683.08c-.88-.12-1.91,1.34-.74,1.5.88.12,1.91-1.34.74-1.5Z"/>
        <path class="cls-5" d="M575.08,720.12c-.8-.11-1.73,1.21-.67,1.35.8.11,1.73-1.21.67-1.35Z"/>
        <path class="cls-5" d="M629.32,655.08c-.98-.13-2.12,1.49-.83,1.66.98.13,2.12-1.48.83-1.66Z"/>
        <path class="cls-5" d="M597.39,632.57c-.92-.12-2,1.4-.78,1.57.92.12,2-1.4.78-1.57Z"/>
        <path class="cls-5" d="M594.22,656.11c-.78-.1-1.7,1.19-.66,1.33.78.1,1.7-1.19.66-1.33Z"/>
        <path class="cls-5" d="M566.96,647.16c-1.02-.13-2.21,1.55-.86,1.73,1.02.13,2.21-1.55.86-1.73Z"/>
        <path class="cls-5" d="M567.98,620.43c-1.07-.14-2.33,1.63-.91,1.82,1.07.14,2.33-1.63.91-1.82Z"/>
        <path class="cls-5" d="M523.93,639.7c-.05-.06-.09-.12-.14-.18-.13-.1-.27-.17-.44-.19-.14-.02-.28-.03-.42-.05-.14-.02-.27-.02-.41.02-.15.02-.29.06-.42.14-.14.07-.26.16-.36.27-.11.09-.19.2-.25.32-.03.08-.05.16-.08.23-.03.15-.01.31.06.45.05.06.09.12.14.18.13.11.27.17.43.19l.41.07c.14.02.28.02.41-.02.15-.02.3-.07.43-.14.14-.07.26-.16.36-.27.11-.09.19-.2.25-.33.03-.08.05-.16.08-.24.03-.16.01-.31-.06-.45Z"/>
        <path class="cls-5" d="M530.8,624.06c-.69-.09-1.49,1.04-.58,1.17.69.09,1.49-1.05.58-1.17Z"/>
        <path class="cls-5" d="M585.48,594.33c-.98-.13-2.12,1.48-.83,1.66.98.13,2.12-1.48.83-1.66Z"/>
        <path class="cls-5" d="M583.93,612.1c-.87-.12-1.88,1.32-.73,1.47.87.12,1.88-1.31.73-1.47Z"/>
        <path class="cls-5" d="M607.96,604.55c-.99-.13-2.15,1.5-.84,1.68.99.13,2.15-1.51.84-1.68Z"/>
        <path class="cls-5" d="M612.01,618.76c-.93-.13-2.03,1.42-.79,1.59.93.12,2.03-1.42.79-1.59Z"/>
        <path class="cls-5" d="M625.53,606.94c-.01-.08-.06-.16-.13-.21-.07-.06-.14-.1-.23-.12-.09-.03-.19-.04-.29-.03-.22.02-.44.1-.61.25-.14.13-.29.29-.32.49l-.11.84c-.02.09-.02.17.02.25.01.08.06.16.13.21.07.06.15.1.23.12.09.03.19.05.29.03.22-.02.44-.1.61-.25.14-.13.29-.29.32-.49l.11-.84c.02-.09.02-.17-.01-.25Z"/>
        <path class="cls-5" d="M614.77,582.09c-.94-.12-2.03,1.42-.79,1.59.94.12,2.03-1.42.79-1.59Z"/>
        <path class="cls-5" d="M633.13,559.38c-.98-.13-2.12,1.48-.83,1.66.98.13,2.12-1.48.83-1.66Z"/>
        <path class="cls-5" d="M657.8,569.08c-.95-.13-2.06,1.44-.8,1.61.95.13,2.06-1.44.8-1.61Z"/>
        <path class="cls-5" d="M655.02,596.68c-1.08-.14-2.36,1.65-.92,1.84,1.09.15,2.36-1.65.92-1.84Z"/>
        <path class="cls-5" d="M681.26,591.29c-1.03-.14-2.24,1.57-.87,1.75,1.03.14,2.24-1.57.87-1.75Z"/>
        <path class="cls-5" d="M646.84,589.99c-.69-.09-1.49,1.05-.58,1.17.69.09,1.49-1.05.58-1.17Z"/>
        <path class="cls-5" d="M651.23,554.56c-.98-.13-2.12,1.48-.83,1.65.98.13,2.12-1.48.83-1.65Z"/>
        <path class="cls-5" d="M646.92,622.08c-.99-.13-2.15,1.51-.84,1.68.99.13,2.15-1.5.84-1.68Z"/>
      </g>
    </g>
  </g>
</svg>