<?xml version="1.0" encoding="UTF-8"?>
<svg id="Layer_1" data-name="Layer 1" xmlns="http://www.w3.org/2000/svg" viewBox="0 0 121.68 121.1">
  <defs>
    <style>
      .cls-1 {
        fill: #010101;
      }

      .cls-2 {
        fill: #fcbd1c;
      }
    </style>
  </defs>
  <circle class="cls-2" cx="60.84" cy="60.54" r="48.55"/>
  <path class="cls-1" d="M86.15,61.98c-.15,0-.29-.02-.45-.06l-10.18-2.97c-.61-.18-1.06-.7-1.12-1.35-.06-.63.27-1.24.83-1.54,0,0,7.93-4.1,10.29-5.36.76-.41,1.71-.12,2.11.64s.12,1.71-.64,2.11c-1.34.7-4.41,2.32-6.86,3.58l6.43,1.88c.83.24,1.31,1.1,1.07,1.94-.19.69-.83,1.13-1.49,1.13h.01Z"/>
  <path class="cls-1" d="M36.51,61.98c-.68,0-1.3-.45-1.49-1.13-.24-.83.23-1.7,1.07-1.94l6.43-1.88c-2.45-1.27-5.52-2.86-6.86-3.58-.76-.41-1.06-1.35-.64-2.11s1.35-1.06,2.11-.64c2.37,1.26,10.29,5.36,10.29,5.36.57.3.9.91.84,1.54-.06.64-.51,1.18-1.12,1.35l-10.18,2.97c-.15.05-.29.06-.45.06h0Z"/>
  <path class="cls-1" d="M92.36,42.19c-.07,0-.16,0-.24-.02-7.8-1.2-11.71-7.52-11.87-7.79-.45-.74-.21-1.7.52-2.15.74-.45,1.7-.21,2.14.52,0,0,3.36,5.35,9.69,6.32.85.13,1.44.93,1.31,1.78-.12.78-.79,1.34-1.54,1.34Z"/>
  <path class="cls-1" d="M30.28,42.19c-.75,0-1.43-.56-1.54-1.34-.13-.85.45-1.65,1.31-1.78,6.37-.98,9.65-6.27,9.69-6.32.45-.74,1.41-.97,2.15-.52.73.45.97,1.41.52,2.15-.17.27-4.08,6.59-11.87,7.79-.07,0-.17.02-.24.02h-.01Z"/>
  <path class="cls-1" d="M44.45,84.05c-.58,0-1.17-.21-1.61-.66l-4.22-4.03c-.95-.9-.96-2.38-.07-3.31.9-.95,2.38-.96,3.31-.07l2.6,2.48,6.81-6.52c.91-.86,2.34-.86,3.24,0l6.81,6.52,6.81-6.52c.91-.86,2.34-.86,3.24,0l6.82,6.52,2.6-2.48c.95-.9,2.43-.86,3.31.07.9.93.86,2.43-.07,3.31l-4.22,4.03c-.91.86-2.34.86-3.24,0l-6.82-6.52-6.81,6.52c-.91.86-2.34.86-3.24,0l-6.81-6.52-6.81,6.52c-.45.44-1.04.66-1.61.66h.02-.02Z"/>
</svg>