<?xml version="1.0" encoding="UTF-8"?>
<svg id="Layer_1" data-name="Layer 1" xmlns="http://www.w3.org/2000/svg" viewBox="0 0 121.68 121.1">
  <defs>
    <style>
      .cls-1 {
        fill: #010101;
      }

      .cls-2 {
        fill: #fff;
      }

      .cls-3 {
        fill: #fcbd1c;
      }

      .cls-4 {
        fill: #e45825;
      }
    </style>
  </defs>
  <circle class="cls-3" cx="60.84" cy="60.54" r="48.55"/>
  <path class="cls-1" d="M36.71,64.38c-1.16,0-2.09.95-2.09,2.11,0,.2.03.4.09.59,2.48,9,13.22,15.86,26.11,15.86s23.77-6.94,26.18-16.03c.26-1.11-.43-2.22-1.54-2.48-.15-.04-.31-.05-.46-.05h-48.29Z"/>
  <path class="cls-2" d="M60.82,67.92c6.38.08,12.72-1.13,18.62-3.55h-37.24c5.9,2.42,12.24,3.63,18.62,3.55Z"/>
  <path class="cls-4" d="M61.27,78c-3.53-.03-6.93,1.32-9.49,3.76,2.94.78,5.96,1.17,9,1.17,3.3,0,6.58-.46,9.74-1.38-2.53-2.3-5.83-3.56-9.25-3.55Z"/>
  <path class="cls-1" d="M91.2,54.5c.39.24.89.12,1.13-.27.08-.12.12-.27.12-.41h0c-.14-3.79-3.34-6.75-7.13-6.6-3.59.14-6.47,3.01-6.6,6.6h0c0,.45.37.82.82.82.16,0,.33-.05.46-.14,3.44-2.12,7.79-2.12,11.23,0h-.03Z"/>
  <path class="cls-1" d="M42.68,54.5c.39.24.89.12,1.13-.27.08-.12.12-.27.12-.41h0c0-3.79-3.08-6.87-6.87-6.87-3.79,0-6.87,3.08-6.87,6.87h0c.02.46.4.82.86.8.14,0,.28-.05.4-.12,3.44-2.12,7.79-2.12,11.23,0Z"/>
  <path class="cls-1" d="M28.47,44.28c-.12.01-.25.01-.37,0-.9-.2-1.48-1.09-1.29-2,.57-2.85,2.51-5.24,5.19-6.37,2.6-1.17,5.59-1.09,8.12.24.81.47,1.08,1.51.62,2.32-.47.81-1.51,1.08-2.32.61h0c-1.57-.76-3.41-.79-5-.07-1.67.71-2.87,2.21-3.2,4-.2.79-.94,1.33-1.75,1.27Z"/>
  <path class="cls-1" d="M93.21,44.28c-.78,0-1.46-.52-1.65-1.28-.33-1.79-1.53-3.29-3.2-4-1.59-.72-3.43-.69-5,.07-.81.47-1.85.19-2.32-.62-.47-.81-.19-1.85.62-2.31h0c2.52-1.33,5.51-1.42,8.11-.24,2.65,1.13,4.57,3.49,5.15,6.31.19.91-.39,1.8-1.29,2-.14.04-.28.07-.42.07Z"/>
</svg>