<svg id="Layer_1" data-name="Layer 1" xmlns="http://www.w3.org/2000/svg" viewBox="0 0 121.68 121.1"><defs><style>.cls-1{fill:#fcbd1c;}.cls-2{fill:#010101;}.cls-3{fill:#fff;}.cls-4{fill:#e45825;}</style></defs><circle class="cls-1" cx="60.84" cy="60.55" r="48.55" transform="translate(-16.77 23.87) rotate(-19.57)"/><path class="cls-2" d="M36.71,64.38a2.1,2.1,0,0,0-2,2.7c2.48,9,13.22,15.86,26.11,15.86S84.59,76,87,66.91a2.06,2.06,0,0,0-2-2.53Z"/><path class="cls-3" d="M60.82,67.92a47.43,47.43,0,0,0,18.62-3.55H42.2A47.47,47.47,0,0,0,60.82,67.92Z"/><path class="cls-4" d="M61.27,78a13.6,13.6,0,0,0-9.49,3.76,35.25,35.25,0,0,0,9,1.17,34.47,34.47,0,0,0,9.74-1.38A13.67,13.67,0,0,0,61.27,78Z"/><path class="cls-2" d="M91.2,54.5a.82.82,0,0,0,1.25-.68v0a6.87,6.87,0,0,0-13.73,0v0A.82.82,0,0,0,80,54.5a10.71,10.71,0,0,1,11.23,0Z"/><path class="cls-2" d="M42.68,54.5a.82.82,0,0,0,1.25-.68v0a6.87,6.87,0,0,0-13.74,0v0a.83.83,0,0,0,1.26.68,10.71,10.71,0,0,1,11.23,0Z"/><path class="cls-2" d="M28.47,44.28a1.55,1.55,0,0,1-.37,0,1.7,1.7,0,0,1-1.29-2A8.78,8.78,0,0,1,32,35.91a9.26,9.26,0,0,1,8.12.24,1.69,1.69,0,1,1-1.7,2.93,5.89,5.89,0,0,0-5-.07,5.42,5.42,0,0,0-3.2,4A1.68,1.68,0,0,1,28.47,44.28Z"/><path class="cls-2" d="M93.21,44.28A1.68,1.68,0,0,1,91.56,43a5.42,5.42,0,0,0-3.2-4,5.89,5.89,0,0,0-5,.07,1.69,1.69,0,1,1-1.7-2.93,9.23,9.23,0,0,1,8.11-.24,8.79,8.79,0,0,1,5.15,6.31,1.7,1.7,0,0,1-1.29,2A1.55,1.55,0,0,1,93.21,44.28Z"/></svg>