<svg id="Layer_1" data-name="Layer 1" xmlns="http://www.w3.org/2000/svg" xmlns:xlink="http://www.w3.org/1999/xlink" viewBox="0 0 121.68 121.1"><defs><style>.cls-1{fill:none;}.cls-2{fill:#fcbd1c;}.cls-3{fill:#010101;}.cls-4{clip-path:url(#clip-path);}.cls-5{fill:#fff;}.cls-6{fill:#e45825;}</style><clipPath id="clip-path"><path class="cls-1" d="M85,80.31a2.11,2.11,0,0,0,2-2.71c-2.48-9-13.22-15.86-26.12-15.86s-23.76,6.9-26.16,16a2.07,2.07,0,0,0,2,2.53Z"/></clipPath></defs><circle class="cls-2" cx="60.84" cy="59.91" r="48.55" transform="translate(-16.55 23.84) rotate(-19.57)"/><path class="cls-3" d="M29.32,49.36c-.7-.35-1.62,0-1.62.71h0c0,2.51,4,4.62,8.86,4.62s8.87-2.2,8.87-4.62h0c0-.67-.92-1.06-1.61-.71a16.66,16.66,0,0,1-14.5,0Z"/><path class="cls-3" d="M92.57,42.82l-.27,0A20.32,20.32,0,0,1,78.9,34a1.77,1.77,0,0,1,3-1.84,16.93,16.93,0,0,0,10.92,7.15,1.77,1.77,0,0,1-.27,3.51Z"/><path class="cls-3" d="M29.14,42.82a1.77,1.77,0,0,1-.27-3.51A17,17,0,0,0,39.8,32.16a1.77,1.77,0,0,1,3,1.84,20.36,20.36,0,0,1-13.41,8.8Z"/><path class="cls-3" d="M92.36,50c.7-.35,1.62.05,1.62.71v0c0,2.5-4,4.62-8.86,4.62s-8.87-2.2-8.87-4.62v0c0-.66.92-1.06,1.61-.71a16.66,16.66,0,0,0,14.5,0Z"/><path class="cls-3" d="M85,80.31a2.11,2.11,0,0,0,2-2.71c-2.48-9-13.22-15.86-26.12-15.86s-23.76,6.9-26.16,16a2.07,2.07,0,0,0,2,2.53Z"/><g class="cls-4"><path class="cls-5" d="M60.86,65.29a47.43,47.43,0,0,0,18.62-3.55H42.24A47.47,47.47,0,0,0,60.86,65.29Z"/><path class="cls-6" d="M61,76.74a14.21,14.21,0,0,0-9.88,3.91,36.74,36.74,0,0,0,19.54-.21A14.21,14.21,0,0,0,61,76.74Z"/></g></svg>