<?xml version="1.0" encoding="UTF-8"?>
<svg id="Layer_1" data-name="Layer 1" xmlns="http://www.w3.org/2000/svg" viewBox="0 0 121.68 121.1">
  <defs>
    <style>
      .cls-1 {
        fill: #010101;
      }

      .cls-2 {
        fill: #fff;
      }

      .cls-3 {
        fill: #fcbd1c;
      }

      .cls-4 {
        fill: #cc342f;
      }
    </style>
  </defs>
  <circle class="cls-3" cx="60.84" cy="60.54" r="48.55"/>
  <path class="cls-2" d="M62.06,67.37c-3.67,0-6.96,1.57-9.22,4.04h18.44c-2.27-2.48-5.54-4.04-9.22-4.04h-.01Z"/>
  <path class="cls-1" d="M69.52,89.17c2.98-2.22,4.92-5.71,4.92-9.66,0-3.12-1.21-5.94-3.16-8.09h-18.44c-1.95,2.14-3.16,4.97-3.16,8.09,0,3.95,1.94,7.46,4.92,9.66,2.14-1.23,4.71-1.95,7.46-1.95s5.31.72,7.46,1.95h.01Z"/>
  <path class="cls-4" d="M69.52,89.17c-2.14-1.23-4.71-1.95-7.46-1.95s-5.33.72-7.46,1.95c2.08,1.54,4.66,2.46,7.46,2.46s5.38-.92,7.46-2.46Z"/>
  <path class="cls-1" d="M30.41,39.59c-.44,0-.89-.18-1.19-.55-.56-.65-.49-1.64.17-2.22,3.59-3.08,8.18-5.02,12.91-5.44.86-.06,1.62.55,1.69,1.41s-.55,1.62-1.42,1.71c-4.07.37-8.03,2.04-11.14,4.7-.3.24-.65.37-1.01.37h.01v.03Z"/>
  <path class="cls-1" d="M91.35,39.59c-.36,0-.72-.13-1.01-.37-3.12-2.67-7.07-4.33-11.14-4.7-.86-.08-1.49-.83-1.41-1.71s.85-1.49,1.72-1.41c4.71.42,9.31,2.36,12.91,5.44.65.56.73,1.55.17,2.22-.31.36-.74.55-1.19.55h-.01l-.03-.03Z"/>
  <path class="cls-2" d="M92.2,51.63c0,5.81-4.54,10.52-10.17,10.52s-10.17-4.71-10.17-10.52,4.54-10.52,10.17-10.52,10.17,4.71,10.17,10.52Z"/>
  <path class="cls-1" d="M86.37,51.63c0,2.48-1.95,4.49-4.34,4.49s-4.35-2.02-4.35-4.49,1.95-4.49,4.35-4.49,4.34,2.02,4.34,4.49Z"/>
  <path class="cls-2" d="M51.18,51.63c0,5.81-4.54,10.52-10.17,10.52s-10.17-4.71-10.17-10.52,4.54-10.52,10.17-10.52,10.17,4.71,10.17,10.52Z"/>
  <ellipse class="cls-1" cx="41.02" cy="51.63" rx="4.34" ry="4.49"/>
</svg>