<?xml version="1.0" encoding="UTF-8"?>
<svg id="Layer_1" data-name="Layer 1" xmlns="http://www.w3.org/2000/svg" xmlns:xlink="http://www.w3.org/1999/xlink" viewBox="0 0 97.1 97.1">
  <defs>
    <style>
      .cls-1 {
        fill: #010101;
      }

      .cls-2 {
        fill: url(#linear-gradient);
      }

      .cls-3 {
        fill: #fcbd1c;
      }
    </style>
    <linearGradient id="linear-gradient" x1="127.38" y1="177.48" x2="224.48" y2="177.48" gradientTransform="translate(226.03 -127.38) rotate(90)" gradientUnits="userSpaceOnUse">
      <stop offset="0" stop-color="#46ffff"/>
      <stop offset=".04" stop-color="#59f7e6"/>
      <stop offset=".13" stop-color="#7feab7"/>
      <stop offset=".23" stop-color="#a0de8d"/>
      <stop offset=".33" stop-color="#bdd36a"/>
      <stop offset=".43" stop-color="#d4cb4d"/>
      <stop offset=".54" stop-color="#e5c537"/>
      <stop offset=".66" stop-color="#f2c028"/>
      <stop offset=".8" stop-color="#f9bd1e"/>
      <stop offset="1" stop-color="#fcbd1c"/>
    </linearGradient>
  </defs>
  <circle class="cls-3" cx="48.55" cy="48.55" r="48.55"/>
  <circle class="cls-2" cx="48.55" cy="48.55" r="48.55"/>
  <path class="cls-1" d="M16.05,32.03c-1.02,0-1.94-.76-2.09-1.82-.18-1.16.61-2.24,1.78-2.42,8.66-1.33,13.12-8.53,13.18-8.59.61-1.01,1.92-1.32,2.92-.71.99.61,1.32,1.92.71,2.92-.23.37-5.55,8.96-16.14,10.59-.1,0-.23.03-.33.03h-.03Z"/>
  <path class="cls-1" d="M80.25,32.03h-.01c-.1,0-.23-.03-.33-.03-10.59-1.63-15.91-10.23-16.14-10.59-.61-1.01-.29-2.31.71-2.92,1.01-.61,2.31-.3,2.92.71.05.07,4.51,7.26,13.18,8.59,1.17.18,1.96,1.26,1.78,2.42-.15,1.06-1.07,1.82-2.09,1.82h-.01Z"/>
  <path class="cls-1" d="M61.38,56.16c-1.86-.78-3.82-1.3-5.82-1.58h-.03c-3.67-.51-7.4-.36-11.14-.13-4.75.3-9.41,1.63-13.45,4.15-4.41,2.75-8.01,6.72-8.48,12.4-.28,3.34,2.31,6.33,5.66,6.41,2.44.06,5.46-1.26,10.1-3.06,3.87-1.5,8.24-1.62,10.32-1.71,2.09.09,5.62-.13,9.51,1.12,3.43,1.11,5.78,2.65,7.9,3.15,5.01,1.18,9.56-3.33,8.27-8.31-1.61-6.22-7.23-10.08-12.85-12.45Z"/>
  <circle class="cls-1" cx="30.46" cy="37.55" r="5.29"/>
  <circle class="cls-1" cx="67.62" cy="37.55" r="5.29"/>
</svg>