<?xml version="1.0" encoding="UTF-8"?>
<svg id="Layer_1" xmlns="http://www.w3.org/2000/svg" xmlns:xlink="http://www.w3.org/1999/xlink" version="1.1" viewBox="0 0 85 74.9">
  <!-- Generator: Adobe Illustrator 29.1.0, SVG Export Plug-In . SVG Version: 2.1.0 Build 142)  -->
  <defs>
    <style>
      .st0 {
        fill: none;
      }

      .st1 {
        mask: url(#mask);
      }

      .st2 {
        fill: #a96b42;
      }

      .st2, .st3, .st4 {
        stroke: #010101;
        stroke-miterlimit: 10;
        stroke-width: .2px;
      }

      .st5 {
        fill: #010101;
      }

      .st6 {
        fill: #006234;
      }

      .st7 {
        fill: #fcb216;
      }

      .st8 {
        fill: #0e2e1b;
      }

      .st9 {
        mask: url(#mask-1);
      }

      .st10 {
        fill: #14100f;
      }

      .st11 {
        fill: #fff;
      }

      .st3 {
        fill: #b27a53;
      }

      .st4 {
        fill: #764828;
      }

      .st12 {
        fill: #bc2026;
      }

      .st13 {
        fill: #9a5a44;
      }

      .st14 {
        clip-path: url(#clippath);
      }
    </style>
    <clipPath id="clippath">
      <rect class="st0" y="-18.1" width="85" height="93"/>
    </clipPath>
    <mask id="mask" x="1.4" y="-18.1" width="80.7" height="66.1" maskUnits="userSpaceOnUse">
      <g id="mask0_9_181">
        <path class="st11" d="M79.9,29.3l-37.3,7.3L5.1,29.3,1.4,2.8l39-20.9,33.1,5.8,8.6,31.6-2.2,10Z"/>
      </g>
    </mask>
    <mask id="mask-1" x="39.5" y="18.9" width="30.3" height="28.3" maskUnits="userSpaceOnUse">
      <g id="mask1_9_181">
        <path class="st11" d="M67.6,44.8c2.6-2,2.4-4.1,1.7-5.9-.8-1.8-9.1-19.2-9.1-19.2l-8.9-.6s-4.7,11.2-5.7,12.9c-1.1,1.7-6.3,8.5-6.1,9,.2.4,5.8,6.4,15.9,6.4s11.5-1.9,12.3-2.5Z"/>
      </g>
    </mask>
  </defs>
  <g class="st14">
    <g>
      <path class="st2" d="M42.6,74.8l-37.3-7.7V29.4l37.3,7.2v38.2Z"/>
      <path class="st3" d="M42.6,74.8l37.3-7.7V29.4l-37.3,7.2v38.2Z"/>
      <path class="st4" d="M5.3,29.4l37.3-6.3,37.3,6.3-37.3,7.2L5.3,29.4Z"/>
      <path class="st2" d="M84.9,36.5l-37.6,7.4-4.9-7.2,37.6-7.4,4.9,7.2Z"/>
      <path class="st3" d="M.1,36.5l37.6,7.4,4.9-7.2L5.1,29.3.1,36.5Z"/>
      <g class="st1">
        <g>
          <path class="st11" d="M43.6,28.1c-2.2-8.4-10.2-12.9-18.7-10.8-8.4,2.1-13.5,10.2-11.4,18.6,2.2,8.4,10.7,13.4,19.2,11.3,8.4-2.1,13-10.7,10.9-19Z"/>
          <path class="st5" d="M24.9,17.2c-8.4,2.1-13.5,10.7-11.3,19,2.1,8.3,10.7,13.4,19.1,11.3,8.4-2.1,13.5-10.7,11.3-19-2.1-8.3-10.7-13.4-19.1-11.3ZM17.4,40.7c-2.4-2.2-3.3-5-3.4-5.3,0-3.5,1.3-5.6,1.5-5.9,1.8-.2,3.9-.7,4.6-.8.1.9.9,3.4,3.7,6-.2.5-1.2,2.9-1.5,5.8-2.9,1.1-4.7.3-4.9.2ZM30.7,22.7c.9,1.4,3.2,4.6,3.6,5.1-1.2,3.2-3,5.7-3.4,6.1-.6,0-3.8,0-6.9.5-3-2.8-3.6-5.5-3.7-5.9l3.1-5.9c.6,0,4.7-.7,7.2,0h0ZM20.2,19.9c-1.2.8-2.3,1.8-3.2,2.6,1.1-1.3,2.3-2.4,3.7-3.2-.3.3-.5.5-.6.6ZM15.2,29.3c-.2.4-1.3,2.3-1.6,5.5-.5-3.3,0-6.6,1.5-9.4-.4,2,0,3.6,0,3.9h0ZM33.8,40.1c-.2-.6-1.1-3.8-2.5-6,.4-.5,2.2-3,3.4-6.2,2.3.1,4.8,0,5.4-.1.3.4,1.7,2.5,2.6,5.9-1.6,4.2-2.9,5.7-3.1,5.9-3.4,1.1-5.3.5-5.7.4ZM44.1,33.9l-1.2-.3c-.9-3.5-2.4-5.6-2.6-6,.3-1.9,0-3.8,0-4.5.2,0,.6,0,1,.1,1.1,1.5,2,3.3,2.5,5.3.5,1.8.6,3.6.4,5.3h0ZM40.9,22.9c-.4,0-.7,0-.8,0-2.8-2.5-5.5-3.6-5.9-3.7-.6-.7-1.4-1.3-2.2-1.7,3.5.7,6.7,2.7,8.9,5.5h0ZM30.7,17.2c.8.4,2.2,1.1,3.1,2-1.7,1.2-2.8,2.7-3,3.1-2.6-.7-6.6-.1-7.3,0-1.1-1.3-2.4-2-2.9-2.3.3-.3,1.1-1.1,2.3-1.8.7-.3,1.4-.5,2.1-.7,1.9-.5,3.9-.6,5.7-.4ZM18.6,43.8h0s-.2-.2-.2-.2c-.6-.8-.9-1.9-1-2.4.6.2,1.9.5,3.9,0,.3,0,.7-.2,1-.3.2.2.9.8,1.8,1.5,1,.8,2.5,1.7,4,2.1.2,1.4.5,2.2.7,2.6-.3.1-.9.3-1.8.4-3.1-.4-6.1-1.7-8.4-3.8h0ZM30.9,47.5c-.5,0-1.1-.1-1.7-.5,0-.2-.5-1.1-.7-2.6.6-.3,3.2-1.6,5.2-4.1.5.2,2,.6,4.9-.1.3,0,.6-.2.9-.3.5,1.7,0,2.9,0,2.9v.3c-.1,0,.2,0,.2,0-1.9,1.9-4.3,3.3-7,4-.6.2-1.2.3-1.8.3h0Z"/>
          <path class="st10" d="M65.9,10.3c1.2,0,2.3-.6,3.5-.4,1.1.1,2,.9,2.6,1.8.6.9.9,2,1.2,3,.3,1.2.5,2.5.3,3.7-.5,2.3-2.7,3.9-4.9,4.9-.8.3-1.6.7-2.1,1.4.4-1.4.5-2.8.4-4.2-.6.9-1.3,1.6-2.1,2.2-.5-2.5-1-5.1-1.1-7.6,0-.7,0-1.4.2-2.1.2-.5.5-.9.9-1.3.5-.6.9-1.1,1.4-1.7"/>
          <path class="st10" d="M48.5,10.3c-1.2,0-2.3-.6-3.5-.4-1.1.1-2,.9-2.6,1.8-.6.9-.9,2-1.2,3-.3,1.2-.5,2.5-.3,3.7.5,2.3,2.7,3.9,4.9,4.9.8.3,1.6.7,2.1,1.4-.4-1.4-.5-2.8-.4-4.2.6.9,1.3,1.6,2.1,2.2.5-2.5,1-5.1,1.1-7.6,0-.7,0-1.4-.2-2.1-.2-.5-.5-.9-.9-1.3-.5-.6-.9-1.1-1.4-1.7"/>
          <path class="st13" d="M52.3,25.4c0,.4-.3.8-.5,1.1-1.6,1.9-6,12.6-6.6,13-1.5,1.3-6.1-2.9-4.5-5.6.9-1.6,4-8.4,7.8-11,1.8-1.2,4.2.4,3.8,2.5h0Z"/>
          <path class="st7" d="M64.8,11.7s2.2,2.1,3.3-.4c1.1-2.5-2.3-2.6-2.3-2.6l-1,3h0Z"/>
          <path class="st7" d="M48.2,11.8s-2.3,2-3.3-.6c-1-2.6,2.4-2.5,2.4-2.5l.8,3.1Z"/>
          <path class="st6" d="M67.6,44.5c2.6-2,2.4-4.1,1.7-5.9-.8-1.8-9.1-19.2-9.1-19.2l-8.9-.6s-4.7,11.2-5.7,12.9c-1.1,1.7-6.3,8.5-6.1,9,.2.4,5.8,6.4,15.9,6.4s11.5-1.9,12.3-2.5Z"/>
          <path class="st13" d="M53.4,3.6c3.1,2,9.3,4.7,12.8,5.9.6,4.8-1.3,10.7-9.8,11.2-8.5.5-11.1-5.8-10.2-11.5,3.5-.9,4.2-3.6,7.3-5.6Z"/>
          <path class="st10" d="M48.8,2.8c.6-.7,1.5-1.3,2.6-1.8,2.5-1.1,6.1-1.4,9.2.2,1.3.7,2.6,1.7,3.6,3.2.9,1.2,1.6,3.1,1.9,5.1-3.2,1.6-9.6-2.6-12.7-4.6-3.1,2-3.8,3.4-7.3,4.3.4-2.4,1.3-4.7,2.8-6.4Z"/>
          <path class="st5" d="M54.8,2.9c-2.1,2.1-4.5,3.9-7.3,4.9,0,0,0,0-.1,0,0,0,0,0,0-.1,2.7-1.2,5-3,7.2-4.8,0,0,.2,0,.1.1h0Z"/>
          <path class="st5" d="M52,11.8c0-.6-.3-1.1-.8-1.2-.5,0-1,.4-1.1,1,0,.6.3,1.1.8,1.2.5,0,1-.4,1.1-1Z"/>
          <path class="st5" d="M59.4,11.8c0,.6-.6,1-1.1,1-.5,0-.9-.6-.8-1.2,0-.6.6-1,1.1-1,.5,0,.9.6.8,1.2Z"/>
          <path class="st12" d="M62.5,14c0,.6-.6,1-1.1,1-.5,0-.9-.6-.8-1.2,0-.6.6-1,1.1-1,.5,0,.9.6.8,1.2Z"/>
          <path class="st12" d="M49.8,14.1c0,.6-.6,1-1.1,1-.5,0-.9-.6-.8-1.2,0-.6.6-1,1.1-1,.5,0,.9.6.8,1.2Z"/>
          <path class="st10" d="M55,17.5c-.1,0-.2,0-.4,0-3.2-.1-4.3-2.2-4.3-2.3l.7-.4c0,0,1,1.8,3.6,1.8,3.2.1,3.9-1.4,3.9-1.4l.7.3c0,0-.9,1.9-4.3,1.9Z"/>
          <g class="st9">
            <g>
              <polygon class="st8" points="56.9 25.5 54.1 22.7 51.9 25.1 49.7 21.5 47.3 24.7 46.4 22.6 46.9 22.4 47.4 23.7 49.8 20.6 52 24.3 54.1 21.9 56.8 24.7 58.8 21.1 61.8 24.2 61.4 24.5 58.9 21.9 56.9 25.5"/>
              <polygon class="st8" points="59.8 32.1 56.8 28.2 53.9 31.8 51.7 28.2 49.3 31.5 47.5 27.4 48 27.2 49.4 30.5 51.7 27.3 54 31 56.8 27.4 59.7 31.2 61.4 28.3 61.8 28.5 59.8 32.1"/>
              <polygon class="st8" points="62.1 39.2 59.1 35.3 56.2 38.9 54 35.3 50.2 38.5 48.6 34.8 45 37.2 44 34 44.4 33.8 45.2 36.4 48.8 34 50.4 37.6 54.1 34.5 56.3 38.1 59.1 34.5 62.1 38.3 63.7 35.4 64.2 35.6 62.1 39.2"/>
              <path class="st8" d="M56.9,35l-1.8-2.3,1.8-2.3,2,2.4-2,2.3ZM55.8,32.7l1.2,1.6,1.3-1.5-1.3-1.6-1.2,1.5Z"/>
              <path class="st8" d="M62,35.4l-1.8-2.3,1.8-2.3,2,2.4-2,2.3ZM60.8,33.1l1.2,1.6,1.3-1.5-1.3-1.6-1.2,1.5Z"/>
              <path class="st8" d="M51.3,34.8l-1.8-2.3,1.8-2.3,2,2.4-2,2.3ZM50.1,32.5l1.2,1.6,1.3-1.5-1.3-1.6-1.2,1.5Z"/>
              <path class="st8" d="M46.1,33.9l-1.3-2.6,2.2-1.9,1.5,2.8-2.4,1.8ZM45.4,31.4l.9,1.8,1.6-1.2-1-1.8-1.5,1.3Z"/>
              <path class="st8" d="M53.9,28.6l-1.8-2.3,1.8-2.3,2,2.4-2,2.3ZM52.8,26.3l1.2,1.6,1.3-1.5-1.3-1.6-1.2,1.5Z"/>
              <path class="st8" d="M59,29l-1.8-2.3,1.8-2.3,2,2.4-2,2.3ZM57.8,26.7l1.2,1.6,1.3-1.5-1.3-1.6-1.2,1.5Z"/>
              <path class="st8" d="M49.3,28l-1.3-2.6,2.2-1.9,1.5,2.8-2.4,1.8ZM48.6,25.5l.9,1.8,1.6-1.2-1-1.8-1.5,1.3Z"/>
            </g>
          </g>
          <path class="st13" d="M60.2,24.1c0,.4,0,.8.2,1.2,1,2.3,2.2,13.7,2.6,14.3,1.1,1.6,7.9-.3,7.1-3.4-.5-1.8-3-8.6-5.9-12.1-1.4-1.7-3.9-2.2-4,0h0Z"/>
        </g>
      </g>
    </g>
  </g>
</svg>