<?xml version="1.0" encoding="UTF-8"?>
<svg id="Layer_1" data-name="Layer 1" xmlns="http://www.w3.org/2000/svg" viewBox="0 0 114.49 114.22">
  <defs>
    <style>
      .cls-1 {
        fill: #14445f;
      }
    </style>
  </defs>
  <path class="cls-1" d="M58.01,43.63c-10.74,0-19.48-8.74-19.48-19.48S47.27,4.68,58.01,4.68s19.48,8.74,19.48,19.48-8.74,19.48-19.48,19.48ZM58.01,8.68c-8.53,0-15.48,6.94-15.48,15.48s6.94,15.48,15.48,15.48,15.48-6.94,15.48-15.48-6.94-15.48-15.48-15.48Z"/>
  <path class="cls-1" d="M60.1,107.86c3.29-1.9,16.65-8.72,39.85-9.04l1.97-.03v-56.75l-1.71-.25c-1-.14-24.12-3.29-42,11.21-16.03-14.5-41.05-11.36-42.13-11.21l-1.74.23v56.77l1.97.03c23.21.31,36.58,7.14,39.85,9.04l1.96,1.28,1.97-1.28ZM18.34,94.86v-49.27c5.88-.42,25.38-.8,37.74,10.88l.02,46.79c-5.44-2.77-17.96-7.82-37.76-8.4ZM97.92,94.86c-19.79.57-32.31,5.62-37.76,8.4l.02-46.72c13.93-11.66,32.13-11.37,37.74-10.96v49.28Z"/>
</svg>