<svg width="21" height="21" viewBox="0 0 21 21" fill="none" xmlns="http://www.w3.org/2000/svg">
<g clip-path="url(#clip0_1954_29841)">
<path d="M2.79488 2.57198C2.69454 2.59289 2.45807 2.73228 2.36995 2.80024C1.95635 3.11823 0.406677 4.70474 0.214713 5.12815C-0.581066 6.88628 1.02183 10.1908 1.96071 11.7355C3.86639 14.8702 6.69786 17.6372 9.92111 19.4014C11.36 20.189 14.2263 21.5107 15.8179 20.7936C16.2603 20.5941 17.6512 19.1897 18.0107 18.7637C18.5351 18.1416 18.4801 17.7914 17.967 17.1955C17.3397 16.4671 16.1922 15.3215 15.4619 14.6942C15.1696 14.4424 14.9706 14.283 14.5483 14.3501C14.0885 14.4232 12.8425 15.9784 12.3669 16.3469C11.9751 16.6501 11.6811 16.6736 11.2273 16.4863C8.95955 15.548 5.79214 12.4064 4.69882 10.217C4.50162 9.82231 4.30529 9.43287 4.37684 8.97809C4.44054 8.5721 5.6028 7.64512 5.94397 7.28008C6.49194 6.69374 6.97272 6.31563 6.33575 5.5385C5.56004 4.59148 4.40128 3.74116 3.59066 2.79937C3.36641 2.61292 3.08719 2.50925 2.79401 2.57023L2.79488 2.57198Z" fill="#174168"/>
<path d="M10.9411 0.00589984C11.1881 -0.032434 11.7709 0.126129 12.0414 0.190599C16.0177 1.14633 19.3579 4.29755 20.5899 8.18234C20.7069 8.55261 21.0332 9.66778 20.9966 9.99972C20.932 10.5834 20.1188 10.7542 19.8195 10.2567C19.6572 9.98665 19.5001 8.93857 19.3701 8.53083C18.3632 5.37177 15.7472 2.73022 12.6051 1.67168C12.0502 1.48524 11.4533 1.42251 10.9324 1.25436C10.216 1.02349 10.2919 0.106091 10.9411 0.00589984Z" fill="#174168"/>
<path d="M10.723 4.05085C11.0738 3.97854 11.9228 4.25733 12.2823 4.38801C14.3642 5.14423 16.0675 6.93286 16.7245 9.04297C16.803 9.29649 16.9496 9.77392 16.9653 10.0231C17.0142 10.8272 15.9715 11.0198 15.7132 10.2705C15.5876 9.90548 15.5413 9.49774 15.3973 9.10744C14.7831 7.45037 13.3241 6.05292 11.641 5.50754C11.093 5.32981 10.0913 5.34636 10.2667 4.50737C10.3051 4.3218 10.5389 4.08918 10.7239 4.05085H10.723Z" fill="#174168"/>
</g>
<defs>
<clipPath id="clip0_1954_29841">
<rect width="21" height="21" fill="white"/>
</clipPath>
</defs>
</svg>
