<svg width="32" height="33" viewBox="0 0 32 33" fill="none" xmlns="http://www.w3.org/2000/svg">
<mask id="mask0_2209_1753" style="mask-type:alpha" maskUnits="userSpaceOnUse" x="0" y="0" width="32" height="33">
<rect y="0.489746" width="32" height="32" fill="#D9D9D9"/>
</mask>
<g mask="url(#mask0_2209_1753)">
<path d="M16.8993 16.4896L12.7993 20.5896L14.666 22.4896L20.666 16.4896L14.666 10.4896L12.7993 12.3896L16.8993 16.4896ZM15.9993 29.823C14.1549 29.823 12.4216 29.473 10.7993 28.773C9.17713 28.073 7.76602 27.123 6.56602 25.923C5.36602 24.723 4.41602 23.3119 3.71602 21.6896C3.01602 20.0674 2.66602 18.3341 2.66602 16.4896C2.66602 14.6452 3.01602 12.9119 3.71602 11.2896C4.41602 9.66742 5.36602 8.25631 6.56602 7.05631C7.76602 5.85631 9.17713 4.90631 10.7993 4.20631C12.4216 3.50631 14.1549 3.15631 15.9993 3.15631C17.8438 3.15631 19.5771 3.50631 21.1994 4.20631C22.8216 4.90631 24.2327 5.85631 25.4327 7.05631C26.6327 8.25631 27.5827 9.66742 28.2827 11.2896C28.9827 12.9119 29.3327 14.6452 29.3327 16.4896C29.3327 18.3341 28.9827 20.0674 28.2827 21.6896C27.5827 23.3119 26.6327 24.723 25.4327 25.923C24.2327 27.123 22.8216 28.073 21.1994 28.773C19.5771 29.473 17.8438 29.823 15.9993 29.823ZM15.9993 27.1563C18.9771 27.1563 21.4993 26.123 23.566 24.0563C25.6327 21.9896 26.666 19.4674 26.666 16.4896C26.666 13.5119 25.6327 10.9896 23.566 8.92298C21.4993 6.85631 18.9771 5.82298 15.9993 5.82298C13.0216 5.82298 10.4993 6.85631 8.43268 8.92298C6.36602 10.9896 5.33268 13.5119 5.33268 16.4896C5.33268 19.4674 6.36602 21.9896 8.43268 24.0563C10.4993 26.123 13.0216 27.1563 15.9993 27.1563Z" fill="#4A5B63"/>
</g>
</svg>
