<?xml version="1.0" encoding="UTF-8"?>
<svg id="Layer_1" data-name="Layer 1" xmlns="http://www.w3.org/2000/svg" viewBox="0 0 114.49 114.22">
  <defs>
    <style>
      .cls-1 {
        fill: #0d4061;
      }
    </style>
  </defs>
  <path class="cls-1" d="M67.31,93.93l.77-.73c6.92-6.55,14.08-13.32,21.02-20.15,6.04-5.94,10.42-12.02,13.38-18.58,5.67-12.58,3.37-25.95-6-34.91-8.99-8.59-24.72-11.62-36.17-.32-1.07,1.05-2.04,2.17-2.86,3.13l-.28.33-.29-.33c-.92-1.08-1.93-2.22-3.05-3.32-4.47-4.36-9.49-6.72-14.91-7.01-.55-.03-1.1-.04-1.65-.04-8.39,0-16.19,3.51-21.6,9.78-5.86,6.78-8.16,15.85-6.33,24.9,1.35,6.64,4.56,12.95,10.11,19.86,6.32,7.87,13.88,14.82,20.54,20.95,3.48,3.21,6.98,6.38,10.59,9.65l6.82,6.19,1.77-1.69c2.71-2.59,5.43-5.15,8.13-7.71ZM57.33,96.16l-3.21-2.91c-3.59-3.26-7.08-6.43-10.55-9.62-6.53-6.01-13.93-12.82-20.01-20.38-5.08-6.32-7.87-11.75-9.06-17.62-1.51-7.44.37-14.88,5.15-20.42,4.66-5.4,11.64-8.33,18.99-7.93,4.17.23,7.94,2.04,11.53,5.53,1.2,1.16,2.28,2.45,3.44,3.81.53.63,1.06,1.26,1.6,1.87l1.97,2.24,1.97-2.24c.52-.59,1.03-1.2,1.55-1.81,1.08-1.27,2.16-2.56,3.3-3.69,10.2-10.07,23.11-5.11,28.86.38,7.83,7.48,9.64,18.3,4.84,28.95-2.69,5.96-6.7,11.52-12.28,17-6.85,6.73-13.97,13.48-20.87,20l-.22.21c-2.25,2.13-4.5,4.26-6.75,6.4l-.25.24Z"/>
</svg>