<?xml version="1.0" encoding="UTF-8"?>
<svg id="Layer_1" data-name="Layer 1" xmlns="http://www.w3.org/2000/svg" viewBox="0 0 114.49 114.22">
  <defs>
    <style>
      .cls-1 {
        fill: #0d4061;
      }
    </style>
  </defs>
  <path class="cls-1" d="M96.54,19.77c-8.99-8.59-24.72-11.62-36.17-.32-1.07,1.05-2.04,2.17-2.86,3.13l-.28.33-.29-.33c-.92-1.08-1.93-2.22-3.05-3.32-4.47-4.36-9.49-6.72-14.91-7.01-.55-.03-1.1-.04-1.65-.04-8.39,0-16.19,3.51-21.6,9.78-5.86,6.78-8.16,15.85-6.33,24.9,1.35,6.64,4.56,12.95,10.11,19.86,6.32,7.87,13.88,14.82,20.54,20.95,3.48,3.21,6.98,6.38,10.59,9.65l6.82,6.19,1.77-1.69c2.71-2.59,5.43-5.15,8.13-7.71l.77-.73c6.92-6.55,14.08-13.32,21.02-20.15,6.04-5.94,10.42-12.02,13.38-18.58,5.67-12.58,3.37-25.95-6-34.91Z"/>
</svg>