<svg width="42" height="35" viewBox="0 0 42 35" fill="none" xmlns="http://www.w3.org/2000/svg">
<path d="M20.8092 35C20.0376 34.9786 19.3047 34.6786 18.7633 34.1626C17.8751 33.358 16.9919 32.5206 16.1386 31.7159C15.2854 30.9113 14.4969 30.1674 13.6437 29.4049L11.4531 27.4167C8.72857 24.9372 5.88929 22.3642 3.28953 19.6743C0.330494 16.6147 -0.522786 12.5073 0.974197 8.09575C2.47118 3.52984 7.20165 0.180255 11.9521 0.301888C14.6367 0.367382 16.8921 1.39658 18.8232 3.44095C26.0686 -1.72845 32.7352 -0.324989 36.6024 2.76729C38.0263 3.88618 39.1676 5.28729 39.9442 6.86963C40.7208 8.45197 41.1133 10.1761 41.0933 11.9178C41.0933 14.561 39.0974 16.5492 36.6024 19.0708C36.1034 19.562 35.6044 20.0672 35.1054 20.6052C35.3212 21.075 35.3556 21.6006 35.2026 22.0916C35.0496 22.5826 34.7188 23.0082 34.2671 23.2952C33.8069 23.6561 33.2184 23.8411 32.6191 23.8134C32.0198 23.7856 31.4537 23.5472 31.0336 23.1455C29.866 22.1116 28.6784 21.0075 27.4109 19.7678L27.371 19.7257C27.0766 19.4404 26.5876 18.9585 26.3231 18.9585C26.2483 18.9585 26.1535 19.038 26.0936 19.0988C26.049 19.1357 26.0147 19.1823 25.9938 19.2345C25.9938 19.3515 26.373 19.6322 26.5477 19.7725C26.7233 19.9012 26.89 20.0402 27.0467 20.1889C27.6854 20.8438 28.384 21.4847 29.0426 22.1022C29.4318 22.4578 29.8161 22.818 30.2003 23.1782C30.5207 23.4493 30.7802 23.7776 30.9636 24.1439C31.147 24.5102 31.2505 24.9072 31.2681 25.3115C31.2604 25.6093 31.1883 25.9026 31.0562 26.1736C30.9241 26.4445 30.7348 26.6876 30.4997 26.888C29.4119 27.8564 27.6904 27.7207 26.5077 26.5699C26.1185 26.2003 25.7143 25.8401 25.3151 25.4846C24.4704 24.7537 23.677 23.9724 22.9399 23.1455L22.8401 23.0285C22.7353 22.9022 22.4509 22.5607 22.3411 22.5607C22.2716 22.5824 22.2096 22.6212 22.1615 22.673C22.0268 22.7853 22.0168 22.8414 22.0168 22.8461C22.0168 22.9443 22.3162 23.2203 22.4609 23.3513L22.5906 23.4683C23.0497 23.9033 23.5138 24.3337 23.9778 24.7688C24.7463 25.4892 25.5197 26.2097 26.2782 26.9395C26.5974 27.2007 26.858 27.5189 27.0448 27.8755C27.2316 28.2321 27.3407 28.62 27.366 29.0166C27.3557 29.2968 27.286 29.5722 27.161 29.8268C27.0359 30.0815 26.8579 30.3102 26.6375 30.4996C26.3676 30.7541 26.0454 30.9546 25.6904 31.0887C25.3354 31.2229 24.955 31.2881 24.5723 31.2802C24.1897 31.2723 23.8127 31.1916 23.4643 31.0429C23.1159 30.8943 22.8034 30.6808 22.5457 30.4154L21.8571 29.7885C20.7444 28.7827 19.5967 27.7395 18.5488 26.6354C18.4628 26.5341 18.3639 26.443 18.2544 26.3641C18.2283 26.378 18.2032 26.3936 18.1795 26.4109C18.0747 26.4857 18.0298 26.5512 18.0298 26.5793C18.0298 26.6073 18.0648 26.7336 18.2444 26.9021C19.2424 27.8377 20.2404 28.7733 21.2683 29.7417L22.3312 30.7288C22.9599 31.3183 23.6285 32.1323 23.2194 33.3205C23.0802 33.8026 22.7756 34.2282 22.3526 34.5318C21.9296 34.8353 21.4118 34.9999 20.8791 35H20.8092ZM11.6826 1.48079C7.61082 1.48079 3.44921 4.50758 2.14184 8.45597C0.809529 12.4979 1.52309 16.1095 4.21267 18.893C6.78249 21.5502 9.6068 24.1045 12.3413 26.5746L14.5369 28.5675C15.3752 29.3347 16.1985 30.1113 17.0318 30.9066C17.8652 31.7019 18.7633 32.5393 19.6416 33.3392C19.8212 33.5279 20.0496 33.67 20.3048 33.7519C20.56 33.8339 20.8334 33.8528 21.0986 33.8071C21.3096 33.7513 21.5013 33.6447 21.6546 33.4977C21.8078 33.3508 21.9172 33.1687 21.9719 32.9697C22.1365 32.5018 21.9719 32.1229 21.3881 31.5662L20.3202 30.551L17.2863 27.7441C17.1022 27.5926 16.9555 27.4053 16.8564 27.1953C16.7573 26.9852 16.7082 26.7575 16.7125 26.5278C16.7322 26.3253 16.7986 26.1291 16.9072 25.953C17.0158 25.777 17.1638 25.6251 17.3412 25.508C18.3392 24.7641 19.0927 25.5454 19.412 25.8775C20.41 26.9488 21.5577 27.9734 22.6505 28.9651L23.3491 29.5967C23.4915 29.7551 23.6675 29.8839 23.866 29.9748C24.0645 30.0657 24.2811 30.1168 24.5019 30.1247C24.7227 30.1327 24.9428 30.0973 25.1481 30.0208C25.3535 29.9444 25.5395 29.8286 25.6944 29.6809C25.7981 29.5992 25.883 29.4987 25.9439 29.3853C26.0048 29.2718 26.0404 29.148 26.0487 29.0213C25.9891 28.5238 25.7284 28.0667 25.3201 27.7441C24.5617 27.0143 23.7932 26.2986 23.0248 25.5828C22.5607 25.1477 22.0966 24.7173 21.6376 24.2823L21.5178 24.17C21.2885 24.0084 21.0973 23.804 20.9565 23.5697C20.8156 23.3354 20.7281 23.0763 20.6994 22.8086C20.7103 22.614 20.7643 22.4237 20.8579 22.2497C20.9516 22.0757 21.0828 21.922 21.2433 21.7982C21.3895 21.658 21.5654 21.5482 21.7596 21.4757C21.9539 21.4032 22.1622 21.3696 22.3711 21.3771C22.6603 21.4324 22.9339 21.5443 23.1738 21.7055C23.4137 21.8667 23.6146 22.0737 23.7633 22.3128L23.8531 22.4157C24.5549 23.1983 25.3117 23.9359 26.1185 24.6238C26.5277 24.9887 26.9369 25.3583 27.3361 25.7372C28.0596 26.4296 29.0127 26.5512 29.5965 26.0272C29.7114 25.9334 29.8047 25.8187 29.8707 25.69C29.9368 25.5613 29.9742 25.4214 29.9807 25.2787C29.9266 24.7829 29.6711 24.3256 29.2672 24.0016C28.8929 23.6414 28.5087 23.2905 28.1295 22.935C27.4458 22.3081 26.7423 21.6578 26.0786 20.9795C25.9598 20.8704 25.8349 20.7673 25.7044 20.6707C25.2802 20.3339 24.7463 19.9175 24.7064 19.3094C24.6985 19.1229 24.7327 18.9369 24.8066 18.7636C24.8806 18.5903 24.9926 18.4335 25.1355 18.3036C25.2763 18.148 25.4502 18.0218 25.6462 17.9332C25.8421 17.8446 26.0557 17.7954 26.2732 17.789C27.0716 17.789 27.7103 18.4158 28.2193 18.9164L28.2592 18.9585C29.5167 20.1842 30.6843 21.2976 31.837 22.294C32.0462 22.506 32.3366 22.6315 32.6444 22.6429C32.9522 22.6543 33.2523 22.5507 33.4787 22.3549C33.823 22.1163 34.2322 21.6952 33.808 20.8298C33.6421 20.4964 33.4159 20.1925 33.1394 19.9316C30.8041 17.7796 28.6185 15.4499 26.4978 13.195C25.7692 12.4137 25.0407 11.6371 24.3022 10.8559C23.9279 10.4348 23.9279 10.4348 23.399 10.8231C21.403 12.3389 19.3172 13.7891 17.5658 15.0335C15.3353 16.582 12.8253 16.2405 11.1637 14.168C10.026 12.7646 10.2006 10.0232 12.1317 8.62906C13.6287 7.57179 15.0508 6.42096 16.448 5.30755L17.8302 4.21285C17.1033 3.39125 16.1974 2.7249 15.1733 2.25853C14.1491 1.79216 13.0304 1.53655 11.8922 1.50886L11.6826 1.48079ZM23.9279 9.36354C24.1905 9.38425 24.4452 9.45814 24.6743 9.5801C24.9035 9.70206 25.1017 9.86919 25.2553 10.0699C25.9988 10.8465 26.7522 11.6278 27.4608 12.409C29.5466 14.6452 31.7222 16.9843 34.0276 19.0848C34.1768 19.2318 34.3152 19.3881 34.4417 19.5526C34.8659 19.1176 35.285 18.7012 35.6892 18.2942C38.0245 15.9551 39.8708 14.1259 39.8508 11.9459C39.8685 10.3721 39.5134 8.81422 38.8109 7.38471C38.1085 5.95521 37.0764 4.68971 35.789 3.67954C32.2212 0.807132 25.9638 -0.423231 19.1077 4.73681C18.4839 5.20463 17.8701 5.71455 17.2564 6.20108C15.8442 7.32385 14.3872 8.48404 12.8952 9.56002C11.4032 10.636 11.4531 12.5821 12.1567 13.4429C13.4091 15.0008 15.1506 15.2347 16.8223 14.0698C18.4939 12.9049 20.6196 11.4126 22.6206 9.91088C22.9776 9.59475 23.4386 9.40174 23.9279 9.36354Z" fill="#174168"/>
</svg>
