<svg width="39" height="39" viewBox="0 0 39 39" fill="none" xmlns="http://www.w3.org/2000/svg">
<g clip-path="url(#clip0_1836_40037)">
<path d="M32.1352 21.6141C31.9989 21.6141 31.918 21.657 31.8499 21.6957H27.7872C28.2854 20.2404 27.9064 18.6693 26.7779 17.6218C25.5983 16.5229 23.963 16.3254 22.5108 17.0981C20.8798 17.9695 20.1771 19.9013 20.7861 21.6957H17.1663V16.407C17.1663 16.1966 16.783 15.9906 16.7788 15.9906C16.3188 15.7888 15.9782 16.0507 15.7014 16.261C15.5906 16.3469 15.4842 16.4284 15.3734 16.4842C14.4238 16.9521 13.3293 16.716 12.7033 15.909C12.0773 15.0977 12.0518 14.0502 12.6437 13.2432C13.2399 12.4318 14.2407 12.1442 15.2031 12.5134C15.3522 12.5692 15.514 12.6851 15.6673 12.7967C16.042 13.0629 16.6042 13.4664 17.0854 12.7967L17.128 12.7409V6.18583L16.4083 5.86816H1.89932C0.881524 6.01412 0.0809129 6.85551 0 7.89007V37.081C0.08943 38.0856 0.911334 38.9141 1.92487 39.0042H30.9598C31.9563 38.9141 32.7782 38.0856 32.8677 37.0639V22.3696C32.8762 22.2194 32.8123 22.0563 32.6803 21.9146C32.561 21.7815 32.3438 21.627 32.1309 21.6227L32.1352 21.6141ZM15.6886 32.5521C15.6971 32.5865 15.7056 32.6122 15.7056 32.638V37.5232H2.16761C2.03134 37.5189 1.58419 37.2442 1.5416 37.1368V23.1724H5.10603C4.6461 24.8037 5.02511 26.2933 6.17067 27.2978C7.53767 28.4998 9.35182 28.5727 10.7912 27.4909C11.941 26.6238 12.7502 24.9797 12.0901 23.1724H15.7056V28.1392C15.7056 28.1735 15.7056 28.2036 15.7014 28.2293C15.6843 28.3881 15.6843 28.5255 15.8802 28.7316C16.3572 29.2467 16.8725 28.8432 17.1833 28.5985C17.2983 28.5083 17.4048 28.4268 17.4985 28.3796C18.3459 27.9674 19.2871 28.1005 19.9557 28.723C20.6243 29.3454 20.8287 30.2856 20.4837 31.1742C20.2708 31.7193 19.8662 32.14 19.3339 32.359C18.7803 32.5865 18.1373 32.5693 17.5709 32.3075C17.4559 32.2559 17.3239 32.1529 17.1919 32.0456C16.8426 31.7709 16.3146 31.3588 15.8419 31.9469C15.6247 32.2173 15.646 32.3847 15.6886 32.5479V32.5521ZM11.5705 12.1313C10.4207 13.5093 10.3739 15.3209 11.4428 16.7504C12.2988 17.8923 13.9255 18.6993 15.7056 18.0554V21.7H10.953C10.8338 21.6313 10.689 21.5884 10.4378 21.7C10.178 21.8116 10.0162 21.9704 9.9608 22.1765C9.86285 22.5328 10.1226 22.8934 10.327 23.1853C10.3994 23.284 10.4676 23.3785 10.5102 23.4643C11.0723 24.5547 10.6762 25.5248 10.1184 26.07C9.39867 26.7698 8.35958 26.89 7.46953 26.3791C6.57523 25.8683 6.20048 24.662 6.61782 23.636C6.66466 23.5201 6.77113 23.3785 6.88185 23.2282C7.09904 22.9363 7.34178 22.61 7.28642 22.2623C7.25661 22.0777 7.14162 21.9189 6.94999 21.7858C6.80094 21.6828 6.6817 21.6528 6.57949 21.6528C6.5071 21.6528 6.43896 21.6699 6.37934 21.6914C6.35379 21.7 6.3325 21.7086 6.31972 21.7086H1.54586V7.76128C1.60974 7.66255 1.87803 7.44791 1.92913 7.42215H15.7056V11.0066C14.1512 10.5258 12.5543 10.9551 11.5705 12.1313ZM17.2472 33.8743C18.6398 34.3508 20.1516 33.9859 21.1779 32.8999C22.2723 31.7365 22.5108 30.1138 21.7996 28.6586C20.9735 26.9672 18.9847 26.1859 17.2472 26.817V23.1724H22.4129L22.4682 23.1638C22.5789 23.1338 22.8132 22.8676 22.843 22.7989C23.0474 22.3181 22.7876 21.9876 22.5747 21.7257C22.481 21.6055 22.3916 21.4939 22.3362 21.3694C21.8209 20.2576 22.234 18.9741 23.2688 18.4546C24.3164 17.9266 25.2618 18.3001 25.7942 18.8238C26.3307 19.3518 26.7268 20.2962 26.2328 21.3737C26.1902 21.4639 26.105 21.5755 26.0114 21.6914C25.7984 21.9661 25.5514 22.2795 25.6238 22.6272C25.6664 22.829 25.8155 23.0007 26.0667 23.1381C26.3265 23.2797 26.4798 23.2583 26.6331 23.1724H31.3218V37.1197C31.2792 37.2442 30.8321 37.5189 30.7 37.5232H17.243V33.8743H17.2472Z" fill="#174168"/>
<path d="M38.2845 4.43429L38.2249 4.39995C36.7387 3.85477 35.2013 3.1808 33.7108 2.5283C31.7945 1.6912 29.8142 0.819764 27.8809 0.193017C27.8255 0.175846 27.7701 0.154382 27.7148 0.132918C27.3996 0.0170127 27.0121 -0.124649 26.6331 0.16726L26.5862 0.201603L25.2916 3.45554C25.2065 3.40832 25.1213 3.3568 25.0319 3.30529C24.8019 3.16792 24.5677 3.02626 24.2653 2.9404C22.9878 2.57552 21.6676 3.04343 20.9011 4.1338C20.1303 5.23275 20.1303 6.60215 20.9053 7.7054C21.3951 8.40083 22.1105 8.82582 23.0857 8.99324C22.975 9.36671 22.7493 9.85609 22.5236 10.3283C22.234 10.9422 21.9359 11.5775 21.855 12.0497C21.7954 12.3931 21.8933 12.6593 22.1573 12.8739L26.352 14.5953L26.3946 14.6082C26.8673 14.6898 27.1697 14.6426 27.3485 14.458C27.5828 14.2133 27.5104 13.8398 27.438 13.4792C27.3954 13.2774 27.357 13.0671 27.3698 12.8997C27.4252 12.3159 27.7957 11.8351 28.3621 11.6161C28.9199 11.4015 29.5332 11.5088 29.959 11.8995C30.5127 12.4103 30.6149 13.2903 30.1975 13.9042C30.0953 14.0544 29.9122 14.1918 29.7333 14.3206C29.3628 14.591 28.8561 14.9559 29.2436 15.587L29.2819 15.6471L34.1026 17.6175L34.175 17.5917C34.4007 17.5187 34.5966 17.3599 34.7329 17.141C34.9458 16.8018 35.1715 16.1665 35.3717 15.6041C35.4611 15.3509 35.5463 15.1105 35.6187 14.9302C35.904 14.2261 36.2149 13.4878 36.53 12.728C37.3775 10.7104 38.2505 8.61977 38.8339 6.73952C39.0724 5.96682 39.1703 5.15119 38.2803 4.42571L38.2845 4.43429ZM31.5006 14.7069C31.5986 14.5481 31.7008 14.3893 31.7774 14.1918C32.0756 13.4105 32.0543 12.5219 31.7178 11.7578C31.3857 11.0108 30.7937 10.4442 30.0442 10.1566C29.1031 9.79599 28.0938 9.89902 27.2676 10.4399C26.5053 10.9422 25.9901 11.7664 25.858 12.6893L23.6052 11.8179C23.7756 11.35 23.98 10.8778 24.1716 10.4227C24.4186 9.8475 24.6699 9.2508 24.87 8.6584C25.0063 8.24629 25.1043 7.82989 24.8871 7.55086C24.7338 7.35768 24.4697 7.28041 24.0822 7.31905C23.9033 7.33622 23.7543 7.36198 23.618 7.38773C23.1879 7.465 22.975 7.49935 22.4725 7.113C21.9913 6.74381 21.7783 6.25014 21.8635 5.72642C21.9614 5.13831 22.4341 4.58883 23.009 4.39995C23.5329 4.22824 24.0652 4.36561 24.4995 4.7906C24.589 4.87645 24.6742 5.01811 24.7593 5.15119C24.9254 5.42164 25.1128 5.73072 25.4364 5.75218C25.6792 5.76935 25.9177 5.61481 26.1902 5.27139L27.5615 1.77706L37.3945 5.75218L37.4584 5.94965L33.6427 15.763L31.3558 14.9559C31.3984 14.8744 31.4538 14.7928 31.5049 14.7069H31.5006Z" fill="#174168"/>
</g>
<defs>
<clipPath id="clip0_1836_40037">
<rect width="39" height="39" fill="white"/>
</clipPath>
</defs>
</svg>
