<svg width="15" height="19" viewBox="0 0 15 19" fill="none" xmlns="http://www.w3.org/2000/svg">
<path d="M12.354 1.22239C13.3689 1.96687 14.1179 3.11559 14.3342 4.36249C14.3735 4.84851 14.3854 5.32504 14.3816 5.8126C14.3807 5.98201 14.3798 6.15141 14.3788 6.32595C14.3399 7.47104 14.1904 8.24053 13.3451 9.07001C13.2254 9.16919 13.1058 9.26836 12.9825 9.37053C12.8255 9.52773 12.8255 9.52773 12.6654 9.6881C11.7835 10.5349 10.8381 10.9761 9.61548 11.0415C9.46533 11.0303 9.31518 11.019 9.16048 11.0074C9.12295 11.15 9.08541 11.2925 9.04673 11.4394C8.61812 12.5686 8.05368 13.8309 6.97648 14.463C6.77378 14.448 6.57108 14.433 6.36223 14.4176C5.65106 14.4666 5.56957 14.4957 5.11098 14.9859C4.59392 15.6579 4.37651 16.3488 4.18108 17.1663C4.06448 17.5549 4.06448 17.5549 3.70048 17.9187C3.33222 17.9748 3.33222 17.9748 2.90423 17.9982C2.20658 18.0585 1.87369 18.1871 1.33448 18.6462C1.09424 18.6462 0.854003 18.6462 0.606483 18.6462C0.514061 18.2448 0.423406 17.8431 0.333483 17.4412C0.282807 17.2176 0.232131 16.9939 0.17992 16.7635C-0.0899781 15.264 -0.0899781 15.264 0.413819 14.409C0.570326 14.1978 0.729479 13.9885 0.890858 13.781C1.05916 13.5551 1.22741 13.3292 1.39562 13.1032C1.47862 12.9937 1.56161 12.8841 1.64712 12.7713C3.55093 10.4724 3.55093 10.4724 4.43986 7.77913C4.37604 7.58407 4.31223 7.38901 4.24648 7.18803C3.778 5.49181 3.7773 4.41335 4.62683 2.8138C6.40205 0.0748045 9.61685 -0.256037 12.354 1.22239Z" fill="#F9F9FA"/>
<path d="M12.354 1.22239C13.3689 1.96687 14.1179 3.11559 14.3342 4.36249C14.3735 4.84851 14.3854 5.32504 14.3816 5.8126C14.3807 5.98201 14.3798 6.15141 14.3788 6.32595C14.3399 7.47104 14.1904 8.24053 13.3451 9.07001C13.2254 9.16919 13.1058 9.26836 12.9825 9.37053C12.8255 9.52773 12.8255 9.52773 12.6654 9.6881C11.7835 10.5349 10.8381 10.9761 9.61548 11.0415C9.46533 11.0303 9.31518 11.019 9.16048 11.0074C9.12295 11.15 9.08541 11.2925 9.04673 11.4394C8.61812 12.5686 8.05368 13.8309 6.97648 14.463C6.77378 14.448 6.57108 14.433 6.36223 14.4176C5.65106 14.4666 5.56957 14.4957 5.11098 14.9859C4.59392 15.6579 4.37651 16.3488 4.18108 17.1663C4.06448 17.5549 4.06448 17.5549 3.70048 17.9187C3.33222 17.9748 3.33222 17.9748 2.90423 17.9982C2.20658 18.0585 1.87369 18.1871 1.33448 18.6462C1.09424 18.6462 0.854003 18.6462 0.606483 18.6462C0.514061 18.2448 0.423406 17.8431 0.333483 17.4412C0.282807 17.2176 0.232131 16.9939 0.17992 16.7635C-0.0899781 15.264 -0.0899781 15.264 0.413819 14.409C0.570326 14.1978 0.729479 13.9885 0.890858 13.781C1.05916 13.5551 1.22741 13.3292 1.39562 13.1032C1.47862 12.9937 1.56161 12.8841 1.64712 12.7713C3.55093 10.4724 3.55093 10.4724 4.43986 7.77913C4.37604 7.58407 4.31223 7.38901 4.24648 7.18803C3.778 5.49181 3.7773 4.41335 4.62683 2.8138C6.40205 0.0748045 9.61685 -0.256037 12.354 1.22239ZM6.43048 2.64116C6.67072 2.7612 6.91096 2.88123 7.15848 3.00491C7.15848 3.12495 7.15848 3.24498 7.15848 3.36866C6.43776 3.72877 6.43776 3.72877 5.70248 4.09616C5.94272 4.15618 6.18296 4.2162 6.43048 4.27803C6.43048 4.51811 6.43048 4.75818 6.43048 5.00553C6.25406 5.05805 6.07763 5.11057 5.89586 5.16467C5.31907 5.3042 5.31907 5.3042 5.15648 5.73303C5.69702 5.613 6.23756 5.49296 6.79448 5.36928C6.55182 6.09678 6.15825 6.24916 5.52048 6.64241C5.58054 6.82246 5.6406 7.00252 5.70248 7.18803C6.00278 7.12802 6.30308 7.068 6.61248 7.00616C6.61248 7.1262 6.61248 7.24623 6.61248 7.36991C6.47359 7.43743 6.33471 7.50495 6.19161 7.57452C5.50858 8.05072 5.38767 8.59628 5.15648 9.37053C5.09642 9.55059 5.03636 9.73065 4.97448 9.91616C4.97448 10.0962 4.97448 10.2763 4.97448 10.4618C4.83935 10.5368 4.70421 10.6118 4.56498 10.6891C3.87735 11.1264 3.6894 11.5491 3.33648 12.2805C3.33648 12.4606 3.33648 12.6406 3.33648 12.8262C3.4566 12.8262 3.57672 12.8262 3.70048 12.8262C3.64042 13.0062 3.58036 13.1863 3.51848 13.3718C3.37959 13.383 3.24071 13.3943 3.09761 13.4059C2.44107 13.6042 2.39099 13.8721 2.06248 14.463C1.86719 14.6282 1.66987 14.791 1.47098 14.9518C1.07205 15.3259 0.975571 15.4735 0.940623 16.0282C0.988279 16.4844 1.055 16.9249 1.15248 17.373C1.33266 17.373 1.51284 17.373 1.69848 17.373C1.69848 17.253 1.69848 17.133 1.69848 17.0093C2.50929 16.9193 2.50929 16.9193 3.33648 16.8274C3.35901 16.713 3.38153 16.5986 3.40473 16.4807C3.71 15.2147 4.21388 14.2694 5.33848 13.5537C6.06648 13.5537 6.06648 13.5537 6.61248 13.7355C7.32272 12.9063 7.76453 12.16 8.11398 11.1211C8.33722 10.5513 8.33722 10.5513 8.61448 10.098C9.0643 9.90352 9.44421 9.87173 9.93114 9.82948C11.0485 9.61814 11.998 8.79107 12.7244 7.94324C13.3556 6.89341 13.3473 5.63963 13.1645 4.45991C12.7268 3.25662 11.978 2.37834 10.8731 1.7332C9.21617 1.04082 7.885 1.80201 6.43048 2.64116Z" fill="#008CCC"/>
<path d="M10.7987 3.55069C11.2537 3.8235 11.2537 3.8235 11.5267 4.27819C11.6792 5.12734 11.6468 5.72306 11.1855 6.46069C10.6837 6.93262 10.5285 6.99924 9.83184 7.05178C9.11952 7.00352 8.8091 6.89115 8.25071 6.46069C7.85452 5.86681 7.80533 5.69381 7.88671 5.00569C8.11279 4.605 8.11279 4.605 8.40996 4.23272C8.50709 4.10799 8.60422 3.98327 8.70429 3.85476C9.30569 3.18838 9.99232 3.35162 10.7987 3.55069Z" fill="#008CCC"/>
<path d="M7.70399 9.37012C7.59668 10.0721 7.26551 10.4682 6.81674 11.007C6.37209 11.5448 5.9339 12.082 5.51999 12.6439C5.27975 12.5838 5.03951 12.5238 4.79199 12.462C5.05938 11.6529 5.50391 11.0511 6.04324 10.4045C6.12231 10.3045 6.20137 10.2045 6.28283 10.1015C6.88836 9.37012 6.88836 9.37012 7.70399 9.37012Z" fill="#008CCC"/>
<path d="M9.88891 4.45996C10.1892 4.51998 10.4895 4.58 10.7989 4.64184C10.7534 5.16473 10.7534 5.16473 10.6169 5.73309C10.2415 5.98316 10.2415 5.98316 9.88891 6.09684C9.68416 4.86918 9.68416 4.86918 9.88891 4.45996Z" fill="#F9F9FA"/>
</svg>
