<svg width="18" height="19" viewBox="0 0 18 19" fill="none" xmlns="http://www.w3.org/2000/svg">
<path d="M10.1895 2.18451C11.6419 3.10771 12.3164 4.11235 12.8058 5.74244C12.9816 7.49925 12.5926 8.76141 11.9413 10.3803C12.1172 10.4926 12.2932 10.6049 12.4745 10.7206C14.2301 11.8559 15.9833 13.0222 17.2193 14.7453C17.2911 15.4919 17.1572 15.8718 16.6832 16.451C15.4026 17.7666 15.4026 17.7666 14.6713 18.019C13.7341 17.9423 13.155 17.1875 12.5655 16.52C11.5403 15.2604 10.4852 13.8359 9.75725 12.3809C9.01476 12.6176 9.01476 12.6176 8.30125 12.9265C6.43813 13.0916 4.28452 13.2398 2.65925 12.199C2.44212 12.0601 2.44212 12.0601 2.2206 11.9184C1.1881 11.1852 0.270299 10.3172 0.0274042 9.02472C-0.00428216 8.54088 -0.00562315 8.06855 0.00887535 7.58393C0.011632 7.41499 0.0143887 7.24606 0.0172289 7.072C0.0565045 5.87271 0.213622 4.87548 0.83925 3.83276C0.936848 3.63769 1.03445 3.44263 1.135 3.24166C3.58733 0.404074 7.17969 0.457512 10.1895 2.18451Z" fill="#008CCC"/>
<path d="M9.02912 3.46912C9.15205 3.52117 9.27499 3.57321 9.40165 3.62684C10.1112 4.03812 10.404 4.71614 10.6671 5.46974C10.8612 6.92319 10.8379 8.27098 9.93912 9.47099C8.42222 11.3876 8.42222 11.3876 7.27026 11.5327C5.70557 11.5533 4.55113 11.2481 3.22787 10.4145C2.27805 9.43739 2.06005 8.77132 2.01074 7.41353C2.05129 6.17097 2.20562 5.16538 3.02312 4.19662C4.86757 2.76434 6.89921 2.48091 9.02912 3.46912Z" fill="#F9F9FA"/>
<path d="M13.2797 13.1506C13.8009 13.3021 14.1573 13.5059 14.6028 13.8134C14.7403 13.9068 14.8778 14.0001 15.0194 14.0962C15.9061 14.7633 15.9061 14.7633 16.0474 15.3594C15.945 15.8368 15.945 15.8368 15.4559 16.3597C14.853 16.7462 14.853 16.7462 14.4016 16.7391C13.7745 16.5001 13.6192 16.1827 13.2833 15.6095C13.1796 15.436 13.0759 15.2625 12.9691 15.0837C12.8701 14.9121 12.7711 14.7405 12.669 14.5637C12.4874 14.2603 12.3055 13.9571 12.123 13.6543C12.7259 13.0965 12.7259 13.0965 13.2797 13.1506Z" fill="#F9F9FA"/>
</svg>
