<svg width="20" height="17" viewBox="0 0 20 17" fill="none" xmlns="http://www.w3.org/2000/svg">
<path d="M6.41468 0.601077C6.70613 0.600555 6.70613 0.600555 7.00347 0.600022C7.41213 0.599777 7.82078 0.600435 8.22944 0.601965C8.84239 0.603897 9.45524 0.601985 10.0682 0.599656C11.9235 0.598225 13.7687 0.628867 15.6171 0.799967C15.7618 0.812533 15.9065 0.825099 16.0556 0.838046C16.9628 0.934677 17.6838 1.13421 18.4949 1.55859C19.1838 2.46424 19.277 3.28222 19.3303 4.39632C19.3409 4.59815 19.3409 4.59815 19.3518 4.80406C19.4221 6.25305 19.4388 7.702 19.4387 9.15249C19.4391 9.60043 19.4424 10.0483 19.4458 10.4962C19.4463 10.7852 19.4467 11.0742 19.4469 11.3631C19.4482 11.495 19.4495 11.6268 19.4508 11.7627C19.4462 12.8017 19.236 13.7649 18.6769 14.6512C15.5046 16.8979 9.78315 16.3224 6.08681 16.3617C5.76864 16.3655 5.45049 16.3706 5.13237 16.3773C4.68265 16.386 4.2333 16.3885 3.7835 16.3894C3.58245 16.3947 3.58245 16.3947 3.37734 16.4001C2.36596 16.3914 1.90399 16.0868 1.20493 15.3786C-0.351548 13.7509 0.0450961 10.5718 0.0454807 8.45052C0.0446768 7.95459 0.0380163 7.45894 0.0311731 6.96306C0.0184698 5.00749 0.0568074 3.30222 1.38693 1.74043C1.50705 1.74043 1.62717 1.74043 1.75093 1.74043C1.79073 1.62504 1.83052 1.50965 1.87152 1.39076C2.11493 1.01306 2.11493 1.01306 2.55385 0.864173C3.84738 0.684768 5.109 0.595747 6.41468 0.601077Z" fill="#F9F9FA"/>
<path d="M6.41468 0.601077C6.70613 0.600555 6.70613 0.600555 7.00347 0.600022C7.41213 0.599777 7.82078 0.600435 8.22944 0.601965C8.84239 0.603897 9.45524 0.601985 10.0682 0.599656C11.9235 0.598225 13.7687 0.628867 15.6171 0.799967C15.7618 0.812533 15.9065 0.825099 16.0556 0.838046C16.9628 0.934677 17.6838 1.13421 18.4949 1.55859C19.1838 2.46424 19.277 3.28222 19.3303 4.39632C19.3409 4.59815 19.3409 4.59815 19.3518 4.80406C19.4221 6.25305 19.4388 7.702 19.4387 9.15249C19.4391 9.60043 19.4424 10.0483 19.4458 10.4962C19.4463 10.7852 19.4467 11.0742 19.4469 11.3631C19.4482 11.495 19.4495 11.6268 19.4508 11.7627C19.4462 12.8017 19.236 13.7649 18.6769 14.6512C15.5046 16.8979 9.78315 16.3224 6.08681 16.3617C5.76864 16.3655 5.45049 16.3706 5.13237 16.3773C4.68265 16.386 4.2333 16.3885 3.7835 16.3894C3.58245 16.3947 3.58245 16.3947 3.37734 16.4001C2.36596 16.3914 1.90399 16.0868 1.20493 15.3786C-0.351548 13.7509 0.0450961 10.5718 0.0454807 8.45052C0.0446768 7.95459 0.0380163 7.45894 0.0311731 6.96306C0.0184698 5.00749 0.0568074 3.30222 1.38693 1.74043C1.50705 1.74043 1.62717 1.74043 1.75093 1.74043C1.79073 1.62504 1.83052 1.50965 1.87152 1.39076C2.11493 1.01306 2.11493 1.01306 2.55385 0.864173C3.84738 0.684768 5.109 0.595747 6.41468 0.601077ZM4.31031 2.2405C4.09256 2.25729 4.09256 2.25729 3.87041 2.27441C3.32643 2.33329 2.93257 2.39556 2.50097 2.7434C1.90104 4.07171 1.87689 5.47439 1.87819 6.90872C1.87741 7.10203 1.87663 7.29533 1.87583 7.49448C1.87479 7.90037 1.87468 8.30626 1.87548 8.71214C1.87606 9.33305 1.87177 9.9538 1.86717 10.5747C1.86676 10.9703 1.86663 11.366 1.86681 11.7616C1.86514 11.9467 1.86346 12.1318 1.86173 12.3225C1.86641 13.0367 1.89844 13.6331 2.11498 14.3166C2.58047 14.7446 2.94077 14.7465 3.55966 14.7346C3.70508 14.7273 3.85051 14.7199 4.00034 14.7123C4.15306 14.7083 4.30579 14.7043 4.46315 14.7002C4.78874 14.6914 5.11429 14.6809 5.43976 14.6686C6.08336 14.6461 6.72674 14.6385 7.37065 14.6307C8.01842 14.622 8.66603 14.6079 9.31371 14.5935C9.64215 14.5865 9.9706 14.5802 10.2991 14.5745C14.0677 14.6444 14.0677 14.6444 17.5849 13.5602C18.0055 12.9298 17.9938 12.6913 17.9909 11.9485C17.9906 11.6246 17.9906 11.6246 17.9903 11.2943C17.9879 11.0632 17.9855 10.832 17.9831 10.5939C17.9816 10.3582 17.9802 10.1224 17.9787 9.8796C17.9659 8.41233 17.938 6.94578 17.8807 5.47956C17.8751 5.31857 17.8695 5.15757 17.8638 4.9917C17.8243 4.1557 17.7457 3.42688 17.4029 2.64964C14.2538 1.07646 7.77661 1.93917 4.31031 2.2405Z" fill="#008CCC"/>
<path d="M6.82398 8.95712C7.04874 8.95032 7.2735 8.94353 7.50506 8.93652C8.12074 9.01395 8.12074 9.01395 8.55085 9.33146C9.13804 10.1394 9.24332 11.0357 9.15586 12.0143C9.03074 12.4689 9.03074 12.4689 8.84874 12.6508C8.50028 12.6689 8.15116 12.6746 7.80224 12.6749C7.59015 12.6752 7.37806 12.6754 7.15955 12.6757C6.9362 12.6749 6.71285 12.6742 6.48274 12.6735C6.14771 12.6746 6.14771 12.6746 5.80592 12.6757C5.59384 12.6754 5.38175 12.6752 5.16323 12.6749C4.9671 12.6747 4.77097 12.6745 4.56889 12.6743C4.11673 12.6508 4.11673 12.6508 3.93473 12.4689C3.68399 10.6384 3.68399 10.6384 4.20631 9.90611C5.07511 9.17133 5.68043 8.97969 6.82398 8.95712Z" fill="#008CCC"/>
<path d="M13.2167 4.65039C13.6671 4.7404 13.6671 4.7404 14.1267 4.83223C14.1267 5.07226 14.1267 5.3123 14.1267 5.5596C14.3238 5.32895 14.3238 5.32895 14.5248 5.09363C15.0367 4.65039 15.0367 4.65039 15.5486 4.68449C15.6799 4.73324 15.8113 4.782 15.9467 4.83223C15.9467 5.01226 15.9467 5.19228 15.9467 5.37776C16.247 5.37776 16.5473 5.37776 16.8567 5.37776C16.8794 5.80963 16.8794 5.80963 16.8567 6.28697C16.4927 6.65065 16.4927 6.65065 15.8329 6.69256C15.5675 6.69184 15.3021 6.68915 15.0367 6.68475C14.9025 6.68463 14.7683 6.68451 14.63 6.68439C13.6318 6.6762 13.6318 6.6762 13.2167 6.46881C12.5432 6.535 11.8982 6.62077 11.2374 6.76431C10.8507 6.8325 10.8507 6.8325 10.4867 6.65065C10.3787 6.16903 10.3516 5.68835 10.3047 5.19592C11.2176 4.9987 11.9338 5.03269 12.8527 5.19592C12.9728 5.01589 13.0929 4.83587 13.2167 4.65039Z" fill="#008CCC"/>
<path d="M11.2143 7.37793C11.5669 7.52568 11.5669 7.52568 11.9423 7.74161C12.0023 7.92164 12.0624 8.10166 12.1243 8.28714C12.3833 8.28151 12.3833 8.28151 12.6475 8.27578C13.2163 8.28714 13.2163 8.28714 13.5803 8.46898C13.7605 8.34897 13.9406 8.22895 14.1263 8.1053C14.3665 8.1053 14.6068 8.1053 14.8543 8.1053C14.8543 8.22531 14.8543 8.34533 14.8543 8.46898C15.0345 8.34897 15.2146 8.22895 15.4003 8.1053C16.2267 8.20359 16.2267 8.20359 16.4923 8.46898C16.4997 8.77196 16.5 9.07522 16.4923 9.37819C16.252 9.37819 16.0118 9.37819 15.7643 9.37819C15.6442 9.44195 15.524 9.50571 15.4003 9.5714C14.9546 9.78015 14.762 9.72194 14.3083 9.56003C14.3083 9.44002 14.3083 9.32 14.3083 9.19635C14.2032 9.28636 14.0981 9.37637 13.9898 9.46911C13.5803 9.74188 13.5803 9.74188 12.8523 9.74188C12.7922 9.56185 12.7322 9.38183 12.6703 9.19635C12.5502 9.13634 12.43 9.07633 12.3063 9.01451C12.2838 9.15703 12.2612 9.29955 12.238 9.44638C12.1243 9.92372 12.1243 9.92372 11.7603 10.2874C11.3735 10.2192 11.3735 10.2192 11.0323 10.1056C11.0923 9.74551 11.1524 9.38547 11.2143 9.01451C10.974 9.01451 10.7338 9.01451 10.4863 9.01451C10.4408 8.50308 10.4408 8.50308 10.4863 7.92346C10.8503 7.5825 10.8503 7.5825 11.2143 7.37793Z" fill="#008CCC"/>
<path d="M6.67646 4.53613C7.21108 4.64978 7.21108 4.64978 7.55233 4.99074C7.91057 5.98499 7.90373 6.94648 7.56371 7.94567C7.21108 8.28663 7.21108 8.28663 6.57408 8.38891C5.93708 8.28663 5.93708 8.28663 5.62925 7.97835C5.19686 7.21749 5.27938 6.4067 5.39108 5.55899C5.74777 4.85994 5.90866 4.69269 6.67646 4.53613Z" fill="#008CCC"/>
<path d="M12.0124 10.8334C12.1975 10.8555 12.1975 10.8555 12.3863 10.8781C12.6457 10.9022 12.9052 10.9256 13.1648 10.9484C13.2947 10.9605 13.4247 10.9725 13.5586 10.9849C14.4738 11.055 15.3936 11.0286 16.3107 11.0145C16.2504 11.4664 16.2086 11.6805 15.84 11.9635C15.1215 12.1958 14.3859 12.1845 13.6376 12.2085C12.8903 12.2204 12.8903 12.2204 12.3067 12.6511C11.9427 12.617 11.9427 12.617 11.5787 12.4692C11.4586 12.2892 11.3384 12.1092 11.2147 11.9237C10.9744 11.9837 10.7342 12.0437 10.4867 12.1055C10.4266 11.9255 10.3666 11.7455 10.3047 11.56C10.8223 10.881 11.1637 10.7568 12.0124 10.8334Z" fill="#008CCC"/>
</svg>
