<?xml version="1.0" encoding="UTF-8"?>
<svg xmlns="http://www.w3.org/2000/svg" xmlns:xlink="http://www.w3.org/1999/xlink" viewBox="0 0 93 63">
  <defs>
    <style>
      .cls-1 {
        fill: none;
      }

      .cls-2 {
        mask: url(#mask);
      }

      .cls-3 {
        fill: #f78c1e;
      }

      .cls-4 {
        fill: #010101;
      }

      .cls-5 {
        fill: #d6d6d6;
      }

      .cls-6, .cls-7, .cls-8 {
        mix-blend-mode: multiply;
      }

      .cls-6, .cls-9 {
        opacity: .5;
      }

      .cls-10 {
        fill: url(#linear-gradient-2);
      }

      .cls-7 {
        opacity: .4;
      }

      .cls-11 {
        fill: #231f20;
      }

      .cls-12 {
        fill: #d3aaab;
      }

      .cls-13 {
        fill: #ccebf2;
      }

      .cls-14 {
        fill: url(#linear-gradient);
      }

      .cls-15 {
        fill: #0e2228;
      }

      .cls-16, .cls-8 {
        isolation: isolate;
      }

      .cls-17 {
        fill: #7bb642;
      }

      .cls-18 {
        mask: url(#mask-1);
      }

      .cls-8 {
        fill: url(#linear-gradient-3);
      }

      .cls-19, .cls-20 {
        fill: #fff;
      }

      .cls-21 {
        fill: #bd3826;
      }

      .cls-22 {
        fill: #eae610;
      }

      .cls-23 {
        fill: #fff1d1;
      }

      .cls-24 {
        fill: #f37121;
      }

      .cls-25 {
        fill: #008dd0;
      }

      .cls-26 {
        clip-path: url(#clippath);
      }

      .cls-27 {
        fill: #3f2314;
      }

      .cls-20 {
        stroke: #231f20;
        stroke-miterlimit: 10;
        stroke-width: .25px;
      }

      .cls-28 {
        fill: #1a4556;
      }
    </style>
    <clipPath id="clippath">
      <rect class="cls-1" y="0" width="93" height="63"/>
    </clipPath>
    <linearGradient id="linear-gradient" x1="49.8" y1="2.63" x2="49.81" y2="2.63" gradientTransform="translate(0 63.89) scale(1 -1)" gradientUnits="userSpaceOnUse">
      <stop offset="0" stop-color="#faa51a"/>
      <stop offset="1" stop-color="#f8991d"/>
    </linearGradient>
    <linearGradient id="linear-gradient-2" x1="49.89" y1="2.05" x2="49.93" y2="2.05" gradientTransform="translate(0 63.89) scale(1 -1)" gradientUnits="userSpaceOnUse">
      <stop offset="0" stop-color="#faa51a"/>
      <stop offset="1" stop-color="#f8991d"/>
    </linearGradient>
    <linearGradient id="linear-gradient-3" x1="42.37" y1="5.46" x2="49.99" y2="5.46" gradientTransform="translate(0 63.89) scale(1 -1)" gradientUnits="userSpaceOnUse">
      <stop offset="0" stop-color="#faa51a"/>
      <stop offset="1" stop-color="#f8991d"/>
    </linearGradient>
    <mask id="mask" x="2.14" y="1.45" width="47.26" height="56.17" maskUnits="userSpaceOnUse">
      <g id="mask0_9_33" data-name="mask0 9 33">
        <path class="cls-19" d="M44.56,53.05s-1.84-5.19-10.9-4.81c-11.99.5-23.93,4.29-23.93,4.29L14.62,4.83c14.21-2.47,14.24-3.05,21.25-2.36,5.79.57,8.68,4.11,8.68,4.11v46.47Z"/>
      </g>
    </mask>
    <mask id="mask-1" x="14.75" y="31.5" width="9.9" height="8.1" maskUnits="userSpaceOnUse">
      <g id="mask1_9_33" data-name="mask1 9 33">
        <path class="cls-19" d="M23.96,39.58c.25.08.52-.04.64-.28.13-.27.01-.59-.25-.72-.07-.04-.22-.23-.31-.34-.15-.18-.3-.37-.48-.51-.6-.46-1.33-.85-2.24-1.18-.75-.27-1.44-.34-2.1-.41-.25-.03-.52-.05-.79-.09-.98-.14-2.09-.65-2.2-1.43-.08-.54.14-1.16.52-1.42.24-.17.3-.51.13-.76-.17-.25-.5-.3-.74-.14-.7.5-1.09,1.52-.96,2.47.21,1.43,1.8,2.16,3.1,2.35.28.04.56.07.82.1.63.06,1.23.13,1.86.35.81.3,1.43.62,1.95,1.03.09.06.2.21.31.34.19.24.4.49.67.62.03.01.04.02.07.03h.01Z"/>
      </g>
    </mask>
  </defs>
  <g class="cls-16">
    <g id="Layer_1" data-name="Layer 1">
      <g class="cls-26">
        <g>
          <path class="cls-15" d="M92.98,60.64l-6.95-50.86c-.08-.63-.33-1-.78-1.03l-38.75-2.44L7.75,8.75c-.45.03-.7.4-.78,1.03L.02,60.64c-.11.96.25,1.54.64,1.54l40.76-.61s.98-.03,1.43.28c.66.45.99,1.16,3.66,1.16s3.01-.72,3.66-1.16c.66-.46,1.43-.28,1.43-.28l40.76.61c.4,0,.75-.57.64-1.54Z"/>
          <path class="cls-28" d="M92.97,60.49l-6.48-51.47c-.08-.63-.46-1.09-.91-1.12l-39.08-2.25L7.42,7.91c-.45.03-.83.49-.91,1.12L.03,60.49c-.07.55.23,1.05.64,1.05l40.76-.61s1.04-.03,1.33.12c.7.33,1.08,1.36,3.75,1.36s3.2-1.01,3.59-1.27c.67-.43,1.48-.21,1.48-.21l40.76.61c.4,0,.7-.5.64-1.05Z"/>
          <path class="cls-20" d="M43.49,60.07s-3.94-3.63-12.76-3.63c-5.98,0-21.84,3.1-25.45,3.37-1.19.09-3.14,0-3.14,0L8.17,8.09s3.38-.36,6.34-1.41c2.47-.88,28.35,24.68,28.35,24.68l.63,28.72h0Z"/>
          <path class="cls-5" d="M44.39,59.1l.36-8.6L15.17,5.67l-6.08,1.43S4.3,52.56,3.65,58.09c2.96,0,9.9-1.23,14.28-2.18,4.38-.96,11.76-1.58,16.24-1.2,3.84.33,8.58,4.16,9.86,4.69.11-.11.24-.21.36-.3h0Z"/>
          <path class="cls-20" d="M44.45,59.06l.35-8.49L15.22,5.74l-6.08,1.43S4.35,53.29,3.7,58.82c2.96,0,9.9-1.48,14.29-2.32,4.59-.88,10.1-1.48,14.58-1.16,4.38.3,8.73,2.09,11.92,4.76.14-.14-.19-.93-.04-1.04Z"/>
          <path class="cls-20" d="M44.93,59.06l-.48-4.34L15.21,4.91l-5.35,1.63s-4.6,47.78-5.16,51.54c1.13-.04,7.32-.97,12.92-2.27,5.59-1.31,9.69-1.72,15.63-1.56,4.95.14,10,4.36,11.46,5.19.14-.14.06-.26.21-.38h0Z"/>
          <path class="cls-20" d="M45.14,58.78l.13-4.5L16.04,4.47l-5.35,1.63s-4.6,47.44-5.16,51.2c1.13-.04,7.34-1.23,12.93-2.53,5.59-1.31,9.55-2.04,15.5-1.74,4.82.25,9.97,5.16,11.51,6.15.2-.16-.55-.3-.33-.41h0Z"/>
          <path class="cls-20" d="M46.32,58.58c-.09-8,.26-51.79.26-51.79l-31.47-2.7-3.35.61-5.21,51.77s17.24-4.79,25.39-4.8c9.08,0,11.2,4.6,14.17,7.25.23-.14-.02-.25.22-.34h-.01Z"/>
          <path class="cls-20" d="M46.37,58.33s-4.79-7.34-11.04-7.73c-13.72-.85-27.41,4.17-27.41,4.17L12.8,3.09C29.08.27,29.12-.4,37.15.39c6.63.65,9.22,6.18,9.22,6.18v51.76Z"/>
          <path class="cls-20" d="M49.2,60.07s3.94-3.63,12.76-3.63c5.98,0,21.84,3.1,25.45,3.37,1.19.09,3.14,0,3.14,0l-6.03-51.72s-3.38-.36-6.34-1.41c-2.47-.88-28.35,24.68-28.35,24.68l-.63,28.72h0Z"/>
          <path class="cls-5" d="M48.29,59.1l-.36-8.6L77.52,5.67l6.08,1.43s4.79,45.46,5.44,50.99c-2.96,0-9.9-1.23-14.28-2.18-4.38-.96-11.76-1.58-16.24-1.2-3.84.33-8.58,4.16-9.86,4.69-.11-.11-.24-.21-.36-.3h0Z"/>
          <path class="cls-20" d="M48.24,59.06l-.35-8.49L77.47,5.74l6.08,1.43s4.79,46.13,5.44,51.66c-2.96,0-9.9-1.48-14.29-2.32-4.59-.88-10.1-1.48-14.58-1.16-4.38.3-8.73,2.09-11.92,4.76-.14-.14.19-.93.04-1.04h0Z"/>
          <path class="cls-20" d="M47.75,59.06l.48-4.34L77.47,4.91l5.35,1.63s4.6,47.78,5.16,51.54c-1.13-.04-7.32-.97-12.92-2.27-5.59-1.31-9.69-1.72-15.63-1.56-4.95.14-10,4.36-11.46,5.19-.14-.14-.06-.26-.21-.38h0Z"/>
          <path class="cls-20" d="M47.54,58.78l-.13-4.5L76.65,4.47l5.35,1.63s4.6,47.44,5.16,51.2c-1.13-.04-7.34-1.23-12.93-2.53-5.59-1.31-9.55-2.04-15.5-1.74-4.82.25-9.97,5.16-11.51,6.15-.2-.16.55-.3.33-.41h0Z"/>
          <path class="cls-20" d="M46.36,58.58c.09-8,.36-51.79.36-51.79l30.84-2.7,3.35.61,5.21,51.77s-17.24-4.79-25.39-4.8c-9.08,0-11.2,4.6-14.17,7.25-.23-.14.02-.25-.22-.34h.01Z"/>
          <path class="cls-20" d="M46.31,58.33s4.79-7.34,11.04-7.73c13.72-.85,27.41,4.17,27.41,4.17l-4.88-51.68C63.61.27,63.57-.4,55.53.39c-6.63.65-9.22,6.18-9.22,6.18v51.76Z"/>
          <path class="cls-13" d="M44.51,53.05s-1.84-5.19-10.9-4.81c-11.99.5-23.93,4.29-23.93,4.29L14.58,4.83c14.21-2.47,14.24-3.05,21.25-2.36,5.79.57,8.68,4.11,8.68,4.11v46.47Z"/>
          <g class="cls-7">
            <path class="cls-14" d="M49.8,61.31h0s0-.07,0-.11v.12h0Z"/>
            <path class="cls-10" d="M49.91,61.73c-.01.05-.03.1-.02.15,0,.02,0,.04.02.06.01-.06.03-.12.02-.17,0-.02-.01-.03-.02-.05Z"/>
          </g>
          <g class="cls-9">
            <path class="cls-8" d="M46.53,58.18s-.09-.08-.13-.08c-.03,0-.07.02-.1.04.02.2.02.4,0,.6.03.02.05.04.08.04.03,0,.07-.03.11-.05.04-.18.06-.36.06-.54h-.01Z"/>
          </g>
          <path class="cls-28" d="M42.66,60.37s1.59-2.71,3.73-2.61c2.15.1,3.74,2.61,3.74,2.61,0,0-3.94,2.08-7.47,0Z"/>
          <path class="cls-19" d="M51.72,11.33c.41-.55,1.04-1.05,1.7-.9.43.1.76.45,1.18.59,1.41.5,2.84-1.5,4.23-.96.52.21.9.74,1.45.83.6.1,1.13-.36,1.62-.72.5-.36,1.22-.61,1.66-.19"/>
          <path class="cls-11" d="M51.93,11.34c.36-.45.9-.91,1.5-.72.3.09.53.32.81.45.3.14.61.19.94.17.84-.08,1.55-.62,2.32-.94.57-.24,1.07-.23,1.59.14.35.25.67.54,1.11.6.37.05.73-.06,1.05-.24.59-.32,1.4-1.27,2.1-.71.13.1.55-.08.42-.19-.91-.72-1.85.17-2.63.63-.93.56-1.4-.32-2.18-.61-.43-.16-.89-.11-1.33.03-.5.16-.96.44-1.43.67-.75.36-1.29.4-2.02-.04-1.04-.63-1.98-.17-2.69.74-.13.17.33.14.43.02h0Z"/>
          <path class="cls-19" d="M51.82,16.06c.58-.46,1.28-.96,1.98-.75.3.09.56.3.87.37.45.1.9-.14,1.32-.33.64-.28,1.37-.45,2.01-.19.31.12.57.34.89.45.85.29,1.73-.28,2.45-.82"/>
          <path class="cls-11" d="M52,16.09c.5-.39,1.11-.88,1.77-.62.33.13.6.33.96.35.9.04,1.63-.7,2.55-.66.53.02.89.34,1.36.52.29.12.6.14.91.1.75-.09,1.4-.53,1.99-.97.2-.15-.25-.14-.36-.06-.44.32-.94.7-1.49.79-.59.1-.98-.28-1.49-.49-.67-.26-1.41-.12-2.06.12-.55.21-1.04.54-1.64.26-.32-.15-.6-.3-.97-.29-.72.01-1.33.46-1.88.89-.2.15.26.14.36.06h0Z"/>
          <path class="cls-19" d="M63.39,14.72c1.13-.28,2.22.76,3.38.65.9-.08,1.79-.84,2.62-.47.21.1.39.26.6.37,1.04.52,2.3-.56,3.39-.18"/>
          <path class="cls-11" d="M63.44,14.89c.88-.18,1.71.41,2.54.59.87.19,1.57-.18,2.39-.42.62-.18.92.08,1.45.35.27.14.57.19.87.18.86-.03,1.7-.59,2.57-.34.2.06.53-.24.26-.32-.8-.23-1.53.08-2.31.25-.28.06-.57.1-.86.02-.25-.07-.43-.23-.66-.36-.32-.18-.65-.23-1.01-.19-.44.06-.85.26-1.27.4-.57.19-1.07.17-1.64-.02-.81-.27-1.55-.65-2.41-.46-.29.06-.19.39.09.33h-.01Z"/>
          <path class="cls-19" d="M52.78,29.26c.58-.46,1.28-.96,1.98-.75.3.09.56.3.87.37.45.1.9-.14,1.32-.33.64-.28,1.37-.45,2.01-.19.31.12.57.34.89.45.85.29,1.73-.28,2.45-.82"/>
          <path class="cls-11" d="M52.96,29.29c.5-.39,1.11-.88,1.77-.62.33.13.6.33.96.35.9.04,1.63-.7,2.55-.66.53.02.89.34,1.36.52.29.12.6.14.91.1.75-.09,1.4-.53,1.99-.97.2-.15-.25-.14-.36-.06-.44.32-.94.7-1.49.79-.59.1-.98-.28-1.49-.49-.67-.26-1.41-.12-2.06.12-.55.21-1.04.54-1.64.26-.32-.15-.6-.3-.97-.29-.72.01-1.33.46-1.88.89-.19.15.26.14.36.06h0Z"/>
          <path class="cls-19" d="M64.36,27.92c1.13-.28,2.22.76,3.38.65.9-.08,1.79-.84,2.62-.47.21.1.39.26.6.37,1.04.52,2.3-.56,3.39-.18"/>
          <path class="cls-11" d="M64.4,28.09c.88-.18,1.71.41,2.54.59.87.19,1.57-.18,2.39-.42.62-.18.92.08,1.45.35.27.14.57.19.87.18.86-.03,1.7-.59,2.57-.34.2.06.53-.24.26-.32-.8-.23-1.53.08-2.31.25-.28.06-.57.1-.86.02-.25-.07-.43-.23-.66-.36-.32-.18-.65-.23-1.01-.19-.44.06-.85.26-1.27.4-.57.19-1.07.17-1.64-.02-.81-.27-1.55-.65-2.41-.46-.29.06-.19.39.09.33h-.01Z"/>
          <path class="cls-19" d="M51.72,20.33c.7.12,1.28-.6,1.99-.68.6-.07,1.18.34,1.79.33.55-.02,1.01-.37,1.5-.63.48-.25,1.13-.39,1.54-.02"/>
          <path class="cls-11" d="M51.63,20.47c.53.06.98-.2,1.43-.45.32-.17.61-.28.98-.21.3.06.59.18.89.25.54.12,1.04,0,1.52-.26.53-.28,1.27-.86,1.86-.38.14.11.56-.08.42-.19-.43-.34-.97-.32-1.47-.15-.65.23-1.24.85-1.96.73-.59-.1-1.12-.41-1.73-.28-.61.14-1.15.72-1.77.65-.19-.03-.48.25-.17.28h0Z"/>
          <path class="cls-19" d="M60.46,19.42c.53-.27,1.16-.08,1.72.1.57.17,1.23.3,1.7-.06"/>
          <path class="cls-11" d="M60.56,19.53c.58-.28,1.25.08,1.82.22.57.14,1.17.15,1.65-.21.07-.05.13-.14.04-.2-.08-.06-.25-.02-.32.04-.45.34-1.08.11-1.56-.03-.59-.18-1.23-.31-1.81-.03-.07.03-.18.12-.12.2.06.08.23.05.3.01Z"/>
          <path class="cls-19" d="M65.46,19.46c.84.07,1.64-.43,2.48-.47,1.29-.07,2.51.9,3.78.66"/>
          <path class="cls-11" d="M65.31,19.55c.52.03,1.01-.1,1.51-.25.64-.19,1.21-.28,1.86-.13,1.01.24,1.93.73,2.99.56.18-.03.41-.22.09-.17-1.06.17-2.06-.5-3.1-.65-.45-.06-.88-.02-1.32.08-.58.14-1.14.39-1.74.36-.09,0-.52.17-.3.19h0Z"/>
          <path class="cls-19" d="M52.78,34.15c.84.07,1.64-.43,2.48-.47,1.29-.07,2.51.9,3.78.66"/>
          <path class="cls-11" d="M52.63,34.24c.52.03,1.01-.1,1.51-.25.64-.19,1.21-.28,1.86-.13,1.01.24,1.93.73,2.99.56.18-.03.41-.22.09-.17-1.06.17-2.06-.5-3.1-.65-.45-.06-.88-.02-1.32.08-.58.14-1.14.39-1.74.36-.09,0-.52.17-.3.19h0Z"/>
          <path class="cls-19" d="M52.26,24.85c.59-.6,1.35-1.25,2.14-1.01.14.05.28.12.43.17.94.3,1.85-.69,2.84-.66.53.02,1.01.33,1.53.41,1.14.18,2.42-.68,3.37-.02"/>
          <path class="cls-11" d="M52.46,24.83c.5-.5,1.1-1.12,1.86-.85.28.1.5.19.81.18.69-.03,1.25-.43,1.89-.62.91-.26,1.75.42,2.68.34.88-.08,1.83-.56,2.65-.05.11.06.48-.12.43-.15-.77-.48-1.65-.18-2.48-.03-.72.13-1.25-.07-1.94-.27-.38-.11-.75-.12-1.14-.03-.42.1-.8.29-1.2.45-.45.19-.81.19-1.28.03-.17-.06-.33-.11-.5-.12-.87-.05-1.62.58-2.2,1.17-.09.08.33.03.41-.05Z"/>
          <path class="cls-11" d="M60.69,34.34c.48.06.94-.06,1.39-.24.26-.1.51-.22.77-.29.35-.1.69-.07,1.04,0,.57.12,1.11.31,1.7.3.59,0,1.09-.17,1.59-.43.08-.05.11-.12.04-.18-.08-.06-.25,0-.32.05-.55.29-1.14.36-1.74.25-.5-.1-.98-.26-1.48-.3-.45-.03-.86.06-1.28.22-.46.17-.93.45-1.43.37-.09-.01-.26,0-.32.09-.05.06-.07.15.04.16h0Z"/>
          <path class="cls-11" d="M54.31,38.51c.51-.31,1.09-.62,1.7-.61.33,0,.68.17.98.29.5.19.98.39,1.52.4.47,0,.93-.12,1.38-.22.56-.13,1.04-.18,1.61-.05.3.06.57.17.87.18.81.02,1.4-.52,2.07-.88,1.16-.63,2.15.68,3.33.6.14,0,.49-.24.19-.22-1.08.08-1.89-.99-3.01-.77-.42.08-.78.29-1.14.52-.59.37-1.11.56-1.82.41-.26-.05-.5-.14-.76-.15-.57-.03-1.13.14-1.69.26-.94.21-1.63-.08-2.49-.39-1.12-.4-2.03-.05-3.01.54-.26.16.15.16.27.09h.01Z"/>
          <g class="cls-2">
            <g>
              <path class="cls-17" d="M2.14,57.62l.63-18.05c4.42-.96,15.02-2.41,23.21-1.88,9.39.6,17.37,2.44,23.42,5l-.6,11.13-46.66,3.8Z"/>
              <g class="cls-6">
                <path class="cls-17" d="M18.68,43.48c-.06,1.07,3.62,2.16,8.22,2.41,4.59.26,8.37-.4,8.42-1.47.06-1.07-3.62-2.16-8.22-2.41-4.59-.26-8.37.4-8.42,1.47Z"/>
              </g>
              <path class="cls-3" d="M33.17,41.69c-.42.91-.33,2.21-1.26,2.79-.49.3-1.04.48-1.59.53-.38.03-1.1-.12-1.43-.37-.62-.46-.42-2.21-.38-2.9.06-1.02.47-2.5,1.45-2.97.75-.35,1.5-.1,2.28-.14.53-.02,1.82-1.12,1.81-.32-.01,1.06-.56,2.7-.87,3.38Z"/>
              <path class="cls-3" d="M21.71,41.03c.32.95.09,2.24.96,2.91.45.35.98.59,1.53.7.37.08,1.11,0,1.46-.2.67-.39.65-2.14.69-2.84.05-1.02-.2-2.54-1.13-3.11-.7-.44-1.48-.28-2.26-.39-.53-.08-1.69-1.31-1.76-.53-.1,1.06.26,2.74.5,3.46h0Z"/>
              <path class="cls-3" d="M23.96,39.58c.25.08.52-.04.64-.28.13-.27.01-.59-.25-.72-.07-.04-.22-.23-.31-.34-.15-.18-.3-.37-.48-.51-.6-.46-1.33-.85-2.24-1.18-.75-.27-1.44-.34-2.1-.41-.25-.03-.52-.05-.79-.09-.98-.14-2.09-.65-2.2-1.43-.08-.54.14-1.16.52-1.42.24-.17.3-.51.13-.76-.17-.25-.5-.3-.74-.14-.7.5-1.09,1.52-.96,2.47.21,1.43,1.8,2.16,3.1,2.35.28.04.56.07.82.1.63.06,1.23.13,1.86.35.81.3,1.43.62,1.95,1.03.09.06.2.21.31.34.19.24.4.49.67.62.03.01.04.02.07.03h.01Z"/>
              <path class="cls-3" d="M32.08,30.9c-1.54-1.48-5.83-1.76-7.73-.57-2.09,1.31-3.99,7.46-2.79,9.47,1.24,2.08,10.78,2.78,11.92.68,1.25-2.31.36-7.88-1.41-9.57Z"/>
              <path class="cls-3" d="M32.1,34.77c3.35.19,6.53-2.11,7.73-5.26.5-1.34-1.31-2.19-2.08-.62-1.11,2.3-3.02,2.44-5.35,2.3-1.39-.08-1.69,3.5-.3,3.58h0Z"/>
              <path class="cls-3" d="M24.1,34c-3.33.31-6.59-1.89-7.89-5-.55-1.32,1.25-2.23,2.05-.69,1.19,2.27,3.1,2.34,5.42,2.12,1.39-.13,1.8,3.44.42,3.57Z"/>
              <path class="cls-23" d="M30.71,30.47c-1.01-1.16-3.84-1.36-5.1-.39-1.39,1.05-2.69,5.93-1.91,7.52.81,1.64,7.1,2.12,7.87.45.84-1.84.29-6.25-.86-7.57Z"/>
              <path class="cls-3" d="M32.55,18.98c-.06.99,1.31,2.44,2.28,2.5.97.06,1.97-1.78,2.02-2.78.06-.99-.09-1.29-1.06-1.34-.98-.05-3.19.63-3.25,1.63h0Z"/>
              <path class="cls-23" d="M32.58,19.66c-.04.72.94,1.76,1.65,1.8.7.04,1.42-1.28,1.46-2,.04-.72-.06-.93-.77-.97-.7-.04-2.3.45-2.34,1.17h0Z"/>
              <path class="cls-3" d="M25.24,18.56c-.06.99-1.57,2.28-2.54,2.23-.97-.06-1.76-1.99-1.71-2.99.06-.99.23-1.27,1.2-1.21.97.06,3.1.99,3.05,1.98h0Z"/>
              <path class="cls-23" d="M25.13,19.22c-.04.72-1.13,1.65-1.83,1.6-.7-.05-1.27-1.44-1.23-2.16.04-.72.16-.92.86-.88.7.04,2.24.71,2.2,1.43Z"/>
              <path class="cls-3" d="M33.75,18.68c-1.88-1.68-7.08-2.03-9.39-.68-2.54,1.48-4.82,8.46-3.35,10.76,1.52,2.37,13.11,3.2,14.48.82,1.51-2.62.4-8.96-1.75-10.89h0Z"/>
              <path class="cls-23" d="M25.42,27.39c-.08,1.54,1.22,1.9,2.84,1.99,1.62.09,2.96-.12,3.05-1.66.08-1.54-1.13-3.52-2.76-3.61-1.62-.09-3.05,1.74-3.13,3.28Z"/>
              <path class="cls-3" d="M28.58,23.54c-.51-.03-1.31,1.68-1.21,1.81.11.14,1.93.24,2.38.17,0,0-.67-1.95-1.18-1.98h0Z"/>
              <path class="cls-19" d="M30.91,24.04c-.04.66.33,1.23.83,1.26.5.03.92-.49.96-1.16.04-.66-.33-1.23-.83-1.26-.5-.03-.92.49-.96,1.16Z"/>
              <path class="cls-4" d="M31.82,23.84c.4.02.72.21.81.69-.14.47-.5.8-.89.77-.4-.03-.71-.39-.81-.87.14-.47.49-.62.88-.59h0Z"/>
              <path class="cls-4" d="M29.64,25.76c.26-.26.11-.5-.35-.52l-1.47-.08c-.45-.03-.63.19-.4.48,0,0,.85.99,1.03,1,.18.01,1.18-.87,1.18-.87h0Z"/>
              <path class="cls-27" d="M31.85,22.64s.04-.01.07-.01l-.1.02c.06-.01.12-.01.18-.01h-.09c.06,0,.11,0,.17.02l-.08-.02c.05.01.1.03.14.05l-.07-.04c.05.03.1.06.14.1l-.05-.05c.06.06.1.12.13.19l-.03-.06c.03.07.06.14.07.22.01.08.09.13.15.15.08.03.19.03.28,0,.14-.05.33-.17.3-.36-.03-.15-.09-.3-.18-.42-.09-.12-.21-.2-.34-.26-.19-.08-.42-.1-.62-.07-.06,0-.13.02-.2.04-.09.03-.18.07-.24.15-.04.05-.08.14-.06.21.06.17.28.2.43.15h0Z"/>
              <path class="cls-19" d="M24.32,23.67c-.04.66.33,1.23.83,1.26.5.03.92-.49.96-1.16.04-.66-.33-1.23-.83-1.26-.5-.03-.92.49-.96,1.16Z"/>
              <path class="cls-4" d="M25.23,23.46c.4.02.72.21.81.69-.14.47-.5.8-.89.77-.4-.03-.71-.39-.81-.87.14-.47.49-.62.88-.59h0Z"/>
              <path class="cls-27" d="M25.74,21.91c-.44-.19-.97-.12-1.33.21-.14.13-.23.3-.28.48-.02.06.04.13.08.15.07.04.17.05.25.04.17-.02.35-.1.41-.28,0-.01,0-.03.01-.04l-.03.06c.03-.08.07-.15.12-.22l-.04.06s.06-.06.09-.1c.01-.01-.08.06-.03.03,0,0,.01-.01.03-.02,0,0,.02-.01.03-.02.04-.03-.09.05-.04.03.02,0,.03-.01.05-.02.05-.02-.09.03-.06.02.01,0,.02,0,.03,0,.02,0,.03,0,.05-.01,0,0-.12.02-.07.01h.08c.05,0-.08,0-.06,0h.03s.06,0,.09,0h.02s-.09-.02-.06,0c.01,0,.03,0,.04,0,.02,0,.04.01.06.01.03,0,.04.01.07.03l-.07-.03c.08.03.15.05.25.04.09-.01.2-.05.28-.1.06-.04.13-.1.13-.17,0-.06-.02-.13-.08-.15h-.01Z"/>
              <path class="cls-23" d="M30.34,29.03c-.35.37-.69.73-1.03,1.1l-.04-.39c-.34.26-.7.48-1.07.68.03-.18.01-.37-.04-.54-.06.12-.14.23-.23.34-.03.03-.07.06-.11.06-.03,0-.06-.04-.08-.07-.11-.17-.22-.34-.33-.51.02.14-.01.34-.15.33-.08,0-.13-.09-.17-.16-.14-.26-.34-.5-.57-.7-.06-.05-.12-.1-.12-.18,0-.14.19-.15.32-.14.48.06.99.04,1.46-.08"/>
              <path class="cls-23" d="M31.6,38.03c-.24.57-.65,1.05-1.17,1.37l.08-.23-.92.48.11-.36c-.45.25-.91.46-1.4.62.04-.15.04-.37-.11-.38-.04,0-.08.01-.12.03-.09.05-.19.09-.29.14-.08.04-.16.08-.25.06-.08-.01-.14-.06-.2-.12-.19-.16-.39-.32-.59-.48-.01.14-.03.26-.04.4-.36-.14-.71-.32-1.03-.53l-.03.34c-.31-.18-.61-.4-.87-.66-.02.16-.04.32-.05.48-.38-.43-.7-.92-.93-1.45-.1-.23-.17-.52,0-.71.13-.15.36-.15.56-.13.47.05.93.12,1.39.23"/>
              <path class="cls-23" d="M28.9,44.91c.96.34,1.74.19,2.72-.02.09-.02.2-.05.28-.1.24-.17.2-.58,0-.8-.2-.22-.5-.3-.79-.37-.47-.12-.96-.24-1.43-.17-.48.06-.96.36-1.11.83,0,0-.29.43.33.64h0Z"/>
              <path class="cls-23" d="M22.91,44.67c.96.34,1.74.19,2.72-.02.09-.02.19-.05.28-.1.24-.17.2-.58,0-.8-.2-.22-.5-.3-.79-.37-.47-.12-.96-.24-1.43-.17-.48.06-.96.36-1.11.83,0,0-.29.43.33.64h0Z"/>
              <path class="cls-4" d="M31.66,21.01s-1.96-.35-3.01.66c0,0-1.18-1.15-2.82-.97,0,0,.92-.9,2.84.24,0,0,1.62-1.11,3,.08Z"/>
              <path class="cls-4" d="M32.31,19.84s-2.35-.63-3.62.59c0,0-1.25-1.34-3.23-1.14,0,0,.94-1.09,3.25.28,0,0,1.94-1.16,3.61.27Z"/>
              <path class="cls-4" d="M32.38,18.51s-2.35-.63-3.62.59c0,0-1.25-1.34-3.23-1.14,0,0,.94-1.09,3.25.28,0,0,1.94-1.16,3.6.27Z"/>
              <path class="cls-4" d="M36.02,23.97s-1.15,2.03-2.76,2.56c0,0,1.93.25,2.93-1.08,0,0,.12-.79-.16-1.48Z"/>
              <path class="cls-4" d="M36.14,27.56s-1.73.72-3.33.15c0,0,1.52,1.37,3.09.92,0,0,.14-.33.25-1.07Z"/>
              <path class="cls-4" d="M21.16,23.15s.84,2.1,2.4,2.81c0,0-1.94.02-2.79-1.4,0,0,.04-.76.39-1.41h0Z"/>
              <path class="cls-4" d="M20.55,26.65s1.64.91,3.3.52c0,0-1.69,1.18-3.2.56,0,0-.07-.34-.1-1.08h0Z"/>
              <path class="cls-19" d="M31.39,23.7l.27.78-.61-.6.34-.18Z"/>
              <path class="cls-19" d="M24.81,23.42l.27.78-.61-.59.34-.19Z"/>
              <path class="cls-4" d="M36.36,20.19s.18-1.56-.04-2.09c0,0-.87-.49-1.78-.57,0,0,.75-.48,2.23.01,0,0,.67,1.1-.42,2.65Z"/>
              <path class="cls-4" d="M21.32,19.29s-.01-1.56.26-2.07c0,0,.91-.39,1.83-.36,0,0-.69-.57-2.22-.24,0,0-.78,1.01.13,2.68h0Z"/>
              <path class="cls-27" d="M32.8,24.32h.61c.09,0,.2-.02.28-.06.06-.03.16-.08.2-.14.03-.05.04-.1,0-.15-.05-.05-.13-.06-.2-.06h-.61c-.09,0-.2.02-.28.06-.06.03-.16.08-.2.14-.03.05-.04.1,0,.15.05.05.13.06.2.06Z"/>
              <path class="cls-27" d="M23.24,23.71h.61c.09,0,.18-.01.26-.04.08-.02.18-.05.25-.1.03-.02.11-.06.09-.11-.02-.05-.09-.05-.13-.05h-.61c-.09,0-.18.01-.26.04-.08.02-.18.05-.25.1-.03.02-.11.06-.09.11.02.05.09.05.13.05Z"/>
              <path class="cls-4" d="M33.5,31.24s.69.74.84,1.61c0,0,.49-.41.23-1.68l-1.07.07Z"/>
              <path class="cls-4" d="M34.89,31.09s.83.57,1.15,1.39c0,0,.39-.5-.13-1.7l-1.03.3h0Z"/>
              <path class="cls-4" d="M36.25,30.57s.97.26,1.54.92c0,0,.21-.61-.67-1.56l-.87.64h0Z"/>
              <path class="cls-23" d="M38.74,30.08c.31,0,.57-.26.57-.58s-.25-.58-.57-.58-.57.26-.57.58.25.58.57.58Z"/>
              <path class="cls-23" d="M39.57,29.34c.13,0,.24-.11.24-.25s-.11-.25-.24-.25-.24.11-.24.25.11.25.24.25Z"/>
              <path class="cls-23" d="M39.11,28.83c.13,0,.24-.11.24-.25s-.11-.25-.24-.25-.24.11-.24.25.11.25.24.25Z"/>
              <path class="cls-23" d="M38.45,28.83c.13,0,.24-.11.24-.25s-.11-.25-.24-.25-.24.11-.24.25.11.25.24.25Z"/>
              <path class="cls-4" d="M22.7,30.51s-.67.76-.8,1.63c0,0-.5-.39-.27-1.68l1.07.05h0Z"/>
              <path class="cls-4" d="M21.25,30.44s-.82.59-1.13,1.41c0,0-.4-.5.09-1.7l1.03.28h0Z"/>
              <path class="cls-4" d="M19.89,30.03s-.96.28-1.52.95c0,0-.22-.61.64-1.57l.88.62Z"/>
              <path class="cls-23" d="M17.38,29.6c.31,0,.57-.26.57-.58s-.25-.58-.57-.58-.57.26-.57.58.25.58.57.58Z"/>
              <path class="cls-23" d="M16.55,28.87c.13,0,.24-.11.24-.25s-.11-.25-.24-.25-.24.11-.24.25.11.25.24.25Z"/>
              <path class="cls-23" d="M16.99,28.34c.13,0,.24-.11.24-.25s-.11-.25-.24-.25-.24.11-.24.25.11.25.24.25Z"/>
              <path class="cls-23" d="M17.65,28.34c.13,0,.24-.11.24-.25s-.11-.25-.24-.25-.24.11-.24.25.11.25.24.25Z"/>
              <path class="cls-4" d="M33.75,40.07c-.9-.39-1.52-1.1-1.52-1.1.57.29,1.18.41,1.72.44-.06.23-.13.46-.21.67h0Z"/>
              <path class="cls-4" d="M32.66,43.44c-.9-.39-1.52-1.1-1.52-1.1.57.29,1.18.41,1.72.44-.06.23-.13.46-.21.67h0Z"/>
              <path class="cls-4" d="M22.08,42.96c.94-.28,1.63-.93,1.63-.93-.6.23-1.22.27-1.76.24.03.24.08.47.13.69Z"/>
              <path class="cls-4" d="M34.01,35.77c-.98.09-1.85-.25-1.85-.25.64-.02,1.23-.21,1.72-.45.06.24.09.46.13.69Z"/>
              <path class="cls-4" d="M34.06,37.86c-.98-.08-1.78-.57-1.78-.57.63.1,1.25.01,1.77-.13.01.25.01.48,0,.7h0Z"/>
              <path class="cls-4" d="M21.29,39.28c.94-.28,1.63-.93,1.63-.93-.6.23-1.22.27-1.76.24.03.24.08.47.13.69Z"/>
              <path class="cls-4" d="M21.49,34.99c.96.2,1.86-.03,1.86-.03-.64-.09-1.2-.35-1.67-.64-.08.23-.14.45-.2.67h0Z"/>
              <path class="cls-4" d="M21.21,37.06c.98.03,1.83-.37,1.83-.37-.64.03-1.25-.13-1.75-.33-.04.24-.07.47-.08.7Z"/>
              <g class="cls-18">
                <g>
                  <path class="cls-4" d="M18.91,37.41l1.26.22.3-1.83-1.26-.22-.3,1.83Z"/>
                  <path class="cls-4" d="M16.5,36.85l1.2.45.62-1.74-1.2-.45-.62,1.74Z"/>
                  <path class="cls-4" d="M14.75,34.33l.35,1.26,1.74-.5-.35-1.26-1.74.5Z"/>
                  <path class="cls-4" d="M16.01,31.5l-.7,1.1,1.51,1.01.7-1.1-1.51-1.01Z"/>
                </g>
              </g>
              <path class="cls-21" d="M29.54,27.77s-.26,1.03-1.25,1.01c-.99-.03-1.2-1.08-1.2-1.08,0,0,1.12.07,1.26-.3,0,0,.35.43,1.18.37h0Z"/>
              <path class="cls-4" d="M28.1,27.49c.12.14.27.24.43.32.38.19.83.14,1.2-.06.27-.14.48-.37.65-.63.07-.1-.06-.13-.14-.12-.11,0-.3.05-.36.14-.09.14-.18.27-.3.37-.04.04-.09.07-.13.1.04-.03-.04.02-.04.03t0,0s-.03.01-.04.01c-.05.02.06-.02-.02,0-.05.01.06-.01-.01,0,.06,0-.06.01,0,0h-.07c.06,0-.01,0-.03,0-.02,0-.04,0-.06-.01.04,0-.02,0-.03,0-.02,0-.04-.01-.06-.02-.13-.05-.22-.1-.34-.19-.05-.04-.1-.08-.14-.14-.11-.12-.62.08-.51.2h0Z"/>
              <path class="cls-4" d="M26.26,27.04c.2.34.47.65.84.79.27.1.58.1.85,0,.19-.06.38-.16.53-.29.05-.04.11-.08.13-.14.03-.06.03-.16.03-.23l.04-.68c.01-.28-.53-.19-.55.05l-.04.86.05-.1s.05-.05.02-.02c-.03.02-.05.04-.08.06-.02.01-.03.03-.05.03,0,0-.02.01-.03.02-.04.03,0,0,.01,0-.04,0-.11.06-.14.08-.01,0-.03.01-.04.01-.01,0,.07-.02.02,0-.03,0-.06.02-.09.03,0,0-.03,0-.03,0,0,0,.06,0,.04,0h-.1s-.05,0,0,0c-.03,0-.07,0-.1,0-.03,0-.05-.01,0,0-.02,0-.04-.01-.06-.02-.04-.01-.08-.03-.11-.04,0,0-.02-.01-.03-.01-.03-.01-.04-.03-.06-.04-.23-.15-.39-.37-.53-.61-.07-.12-.27-.08-.36-.03-.1.05-.2.15-.13.28l-.02.02Z"/>
              <path class="cls-12" d="M45.41,12.08c-4.1.88-8.47-.86-12.07-2.77-3.6-1.91-6.64-4.53-9.55-7.31-.11-.1-.6.1-.51.19,3.18,3.04,6.57,5.89,10.52,7.8,3.54,1.72,7.57,3.15,11.52,2.3.22-.05.48-.3.09-.22h0Z"/>
              <path class="cls-25" d="M41.66,12.35l-2.76,3.2-.76-3.98,3.52.78Z"/>
              <path class="cls-24" d="M37.25,11.16l-3.21,2.72-.13-4.06,3.35,1.34Z"/>
              <path class="cls-24" d="M25.88,4.03l-4,1.21,1.42-3.79,2.57,2.58Z"/>
              <path class="cls-22" d="M33.12,9.31l-3.6,2.15.5-4.02,3.1,1.87Z"/>
              <path class="cls-25" d="M29.03,6.75l-3.88,1.55,1.11-3.9,2.77,2.35Z"/>
            </g>
          </g>
        </g>
      </g>
    </g>
  </g>
</svg>