<?xml version="1.0" encoding="UTF-8"?>
<svg id="Layer_1" data-name="Layer 1" xmlns="http://www.w3.org/2000/svg" viewBox="0 0 114.49 114.22">
  <defs>
    <style>
      .cls-1 {
        fill: #14445f;
      }
    </style>
  </defs>
  <path class="cls-1" d="M105.33,52.54l-.07-.5c0-.07-1.04-7.17-2.29-8.27-.27-.24-.56-.39-.96-.49l-10.98-.68-2.9-4.79,4.91-9.95c.23-.61.14-1.34-.27-2.06-.85-1.5-6.05-5.66-7.51-6.61-.14-.09-.28-.19-.42-.29-.76-.53-1.7-1.19-2.84-.93l-9.12,6.65-5.52-1.83s-.04-.03-.11-.22l-.04-.12c-.52-1.36-.82-3.13-1.11-4.84-.32-1.93-.66-3.93-1.33-5.5-.56-1.3-1.39-1.42-2.45-1.57l-.14-.02c-2.74-.4-7.23-.39-10,.02-1.64.24-2.04.57-2.57,2.07-.58,1.66-.94,3.53-1.28,5.35-.31,1.64-.63,3.33-1.09,4.78,0,.02-.1.07-.23.13-.36.19-4.62,1.73-5.07,1.82-.11.02-.19.03-.2.01l-9.01-6.65-.17-.08c-.29-.08-.59-.09-.95-.05-1.47.18-6.66,4.66-7.2,5.16l-.26.24c-1.42,1.3-2.8,2.66-2.79,3.85l4.99,10.75-2.85,4.67-11.06.69c-1.38.3-1.84,2.19-2.14,3.44l-.1.41c-.56,2.18-1.02,4.82-1.18,6.74l-.04.38c-.11,1.14-.26,2.7.61,3.52l10.59,4.76.84,5.5-7.89,7.47c-.25.3-.54.79-.58,1.26-.16,1.76,4.36,9.01,5.25,10.15l.23.31c.49.67,1.05,1.42,2.25,1.45h.08s10.84-3.13,10.84-3.13l4.33,3.62c-.09,1.47-.34,3.02-.58,4.53-.27,1.69-.55,3.43-.62,5.08v.26c-.05.77-.1,1.72.41,2.41.59.81,4.14,2.19,5.21,2.59,1.89.71,5.26,1.92,6.5,1.94.02,0,.05,0,.07,0,1.06,0,1.56-.56,2.05-1.11.47-.53,1.55-2.25,2.8-4.25,1.12-1.78,2.62-4.19,3.09-4.69l5.64.04c.96,1.21,1.83,2.7,2.67,4.13.96,1.63,1.95,3.31,3.08,4.64.87,1.02,1.31,1.36,2.82,1.12,2.2-.34,8.58-2.62,10.42-3.86,1.23-.83,1.18-1.81,1.12-2.85l-.02-.4c-.07-1.65-.35-3.39-.62-5.08-.24-1.5-.49-3.05-.58-4.52l4.33-3.62,11.22,3.12.11-.02c1.15-.19,2.34-1.97,3.47-3.79l.21-.33c.04-.06,3.66-5.92,3.67-7.55,0-.55-.31-1.12-.63-1.51l-7.85-7.43.88-5.61,10.29-4.48.11-.07c1.21-.97.82-3.61.56-5.35ZM90.53,59.07c-.61.55-.78,1.97-.96,3.92-.05.52-.09.98-.14,1.28-.07.36-.19.85-.33,1.39-.47,1.81-.79,3.16-.53,3.96l.04.12,8.1,7.93-3.4,5.85c-1.43-.33-2.9-.84-4.32-1.32-1.58-.54-3.22-1.1-4.82-1.44-2.41-.51-3.09.12-4.08,1.26-.33.38-.7.8-1.23,1.25-1.3,1.1-2.78,2.13-3.97,2.95l-.13.09-.64,1.67,1.33,10.57v.03c-.38.13-.9.35-1.51.6-1.34.55-4.47,1.82-4.97,1.71-.33-.25-1.58-2.27-2.58-3.9-1.84-2.99-3.1-4.98-3.85-5.52-.47-.25-.94-.33-1.41-.33-.44,0-.87.07-1.27.13-.36.06-.7.11-1.02.12-.83.01-1.68-.03-2.51-.07-1.31-.06-2.66-.13-3.98.01l-.15.02-.79.66-5.73,8.81s-.04.05-.37.02c-.39-.03-1.58-.43-3.6-1.19-.49-.19-.96-.4-1.44-.6-.39-.17-.78-.34-1.18-.5l1.27-10.98-.03-.1c-.13-.43-.28-.78-.61-1.15-.47-.53-1.5-1.26-2.5-1.96-.68-.48-1.33-.94-1.75-1.3-.3-.25-.57-.55-.87-.88-.9-.99-1.93-2.11-3.67-1.64l-9.72,2.94-3.43-5.89c.65-.75,3.29-3.11,4.61-4.29.75-.67,1.35-1.21,1.58-1.43l.23-.22c1.02-.97,1.61-1.58,1.75-2.04.28-.87-.15-2.51-.53-3.97-.14-.54-.27-1.03-.33-1.39-.06-.32-.09-.77-.13-1.26-.13-1.62-.29-3.46-1.3-4.15l-9.89-4.36c-.03-.78.4-3.46.63-4.53l.03-.14c.29-1.38.47-1.89.58-2.07l10.06-.45.29-.06c.34-.08.72-.17,1.03-.35.49-.29,1.1-1.39,2.28-3.73.28-.55.51-1.02.67-1.29.15-.26.41-.62.69-1.01.92-1.3,1.58-2.27,1.58-2.98,0-.4-.17-.77-.32-1.1-.04-.1-.09-.19-.12-.28-.25-.64-1.21-2.41-2.21-4.27-.9-1.66-2.1-3.89-2.36-4.48.14-.15.29-.31.43-.46.5-.54,1.02-1.1,1.56-1.58.68-.6,2.79-2.31,3.26-2.51l.06-.03,8.97,6.54.2.09c.93.18,2.32-.46,3.55-1.03.47-.22.9-.42,1.24-.54.28-.1.75-.24,1.3-.4,2.31-.68,3.4-1.05,3.77-1.44.27-.28.44-.75.58-1.16.58-1.8.97-3.82,1.34-5.77.27-1.43.55-2.9.91-4.26,2.33-.26,4.68-.26,7.01,0,.34,1.32.61,2.75.88,4.14.38,1.99.78,4.05,1.37,5.88.12.36.25.74.46,1.01.44.56,1.85,1,3.79,1.56.51.15.96.27,1.24.38.31.11.79.33,1.33.57,1.55.69,2.59,1.15,3.17,1.12.57-.02,1-.28,1.37-.51l.18-.11c1.44-.84,2.87-2.02,4.25-3.17,1.25-1.04,2.54-2.11,3.83-2.9.92.43,4.46,3.53,5.29,4.53-.27.68-1.46,2.88-2.35,4.52-1.01,1.87-1.96,3.63-2.22,4.28-.04.09-.08.19-.12.28-.15.33-.32.71-.32,1.1,0,.55.7,1.73,2.27,4.16.39.6.72,1.12.89,1.4.2.35.36.75.52,1.14.5,1.21,1.06,2.58,2.85,2.73l10.13.61c.48,1.75,1.32,5.68,1.21,6.57l-10.13,4.5-.13.09Z"/>
  <path class="cls-1" d="M57,38.14c-7.67.1-14.61,4.5-18.11,11.47-3.51,7-2.91,14.91,1.61,21.16,3.92,5.42,10.11,8.55,16.75,8.55.41,0,.83-.01,1.24-.04,7.04-.41,13.3-4.33,16.73-10.47,3.61-6.47,3.48-14.17-.35-20.6-3.82-6.41-10.52-10.15-17.87-10.08ZM57.19,42.88c5.88-.08,11.09,3.05,13.94,8.23,2.87,5.22,2.66,11.31-.54,16.3-2.8,4.36-7.62,7.05-12.88,7.2-5.25.14-10.25-2.27-13.3-6.49-3.56-4.91-4.04-11.09-1.28-16.52,2.76-5.43,8.01-8.69,14.06-8.72h0Z"/>
</svg>