<?xml version="1.0" encoding="UTF-8"?>
<svg id="Layer_1" data-name="Layer 1" xmlns="http://www.w3.org/2000/svg" viewBox="0 0 358.18 411.08">
  <defs>
    <style>
      .cls-1 {
        fill: #cd8c2a;
      }

      .cls-1, .cls-2, .cls-3, .cls-4, .cls-5, .cls-6, .cls-7, .cls-8, .cls-9 {
        stroke-width: 0px;
      }

      .cls-2 {
        fill: #af6b4e;
      }

      .cls-3 {
        fill: #6b3825;
      }

      .cls-4 {
        fill: #47300e;
      }

      .cls-10 {
        stroke: #000;
        stroke-miterlimit: 10;
        stroke-width: .14px;
      }

      .cls-10, .cls-6 {
        fill: #000;
      }

      .cls-5 {
        fill: #f0edf6;
      }

      .cls-7 {
        fill: #12100e;
      }

      .cls-8 {
        fill: #24170e;
      }

      .cls-9 {
        fill: #fff;
      }
    </style>
  </defs>
  <g>
    <path class="cls-6" d="M134.96,326.25c-4.03-7.26-7.74-14.72-11.15-22.3-.83-1.84.49-3.75,2.1-4.22-1.55-2.7-3.64-5.91-5.99-8.36-4.97-5.17-17.44-7.38-17.44-7.38,0,0-.13-13.07-6-13.64-5.87-.57-17.72,2.33-17.72,2.33,0,0-10.86-6.33-19.16,2.92,0,0-9.11,1.35-9.04,13.33,0,2.59.46,5.68,1.51,9.36,0,0-4.44.78-9.72,9.08-2.28,3.58-3.58,14.32.15,22.51l.11,1.93c4.91,10.78,11.47,16.84,21.05,16.24.05.1,9.76,21.35,31.69,16.42,19.04-4.28,22.96-14.55,22.96-14.55,0,0,9.61,3.16,14.03,1.21,4.64-2.04,7.59-6.45,8.95-11.34-2.17-4.48-4.26-9-6.31-13.54Z"/>
    <path class="cls-6" d="M135.12,326.2c-2.4-4.33-4.69-8.73-6.87-13.18-1.05-2.15-2.08-4.32-3.09-6.5-.48-1.04-1.24-2.21-1.42-3.36-.24-1.53.81-2.91,2.22-3.41.01,0,.12-.04.1-.07-1.86-3.21-3.94-6.66-6.78-9.11-2.18-1.88-4.89-3.12-7.56-4.11-2.28-.85-4.63-1.53-7-2.09-.51-.12-1.49-.12-1.93-.41-.23-.15-.13-.02-.18-.42-.41-3.83-.47-8.19-2.94-11.39-1.32-1.71-3-1.96-5.05-1.94-2.82.03-5.65.43-8.42.9-2.24.38-4.46.82-6.67,1.33-.2.05-.45.15-.66.16-.29,0,.15.04-.04-.02-.44-.14-.88-.44-1.31-.62-4.13-1.74-8.93-2.05-13.06-.14-1.41.65-2.7,1.54-3.84,2.6-.54.5-.76.98-1.38,1.2-1.03.37-2.03.66-2.99,1.22-4.32,2.55-5.92,7.49-5.86,12.29.02,1.87.26,3.73.62,5.56.19.96.29,2.29.75,3.15.5.93.38.17.1.44-.22.21-.87.31-1.16.45-.76.36-1.47.82-2.14,1.33-2.6,1.96-4.85,4.69-6.49,7.49-1.29,2.2-1.72,4.94-1.96,7.44-.34,3.62-.11,7.33.79,10.85.23.89.5,1.77.82,2.62.24.63.55,1.19.62,1.85.05.47,0,.97.08,1.44.14.74.7,1.58,1.05,2.25,2.79,5.48,6.77,10.92,12.75,13.11,1.27.46,2.6.77,3.95.92.63.07,1.27.11,1.9.11.29,0,1.19-.19,1.42-.04.35.24.69,1.33.9,1.7,1.68,2.91,3.79,5.61,6.23,7.92,3.51,3.33,7.78,5.84,12.52,6.91,6.19,1.41,12.52.16,18.41-1.91,6.68-2.35,13.55-6.32,16.87-12.84-.18.35-.38-.08-.05.15.22.15.68.21.94.28,1.1.31,2.22.59,3.34.82,2.52.52,5.22.93,7.79.54s5.03-2.11,6.79-4.06c1.1-1.22,2.01-2.6,2.74-4.07.38-.77.71-1.57,1-2.38.13-.38.37-.83.39-1.24.03-.45-.27-.86-.47-1.28-1.98-4.13-3.9-8.28-5.79-12.45-.03-.07-.33.04-.31.08,1.06,2.34,2.13,4.68,3.21,7.01.47,1.02.95,2.04,1.43,3.05s1.67,2.64,1.56,3.82c-.08.89-.66,1.96-1.02,2.77s-.75,1.54-1.2,2.26c-1.04,1.68-2.36,3.19-3.94,4.37-1.85,1.38-3.8,2.1-6.11,2.12-1.61.01-3.23-.19-4.82-.48-1.85-.34-3.71-.78-5.5-1.36-.06-.02-.26.02-.28.09-.72,1.87-2.2,3.56-3.59,4.95-4.41,4.42-10.33,7.12-16.28,8.79-6.6,1.85-13.39,2.11-19.73-.81-4.24-1.96-7.88-5.07-10.78-8.7-1.51-1.89-2.95-3.95-3.96-6.16-.01-.03-.07-.02-.09-.02-4.63.25-9.01-1.14-12.56-4.14-1.84-1.56-3.4-3.43-4.75-5.42-.72-1.07-1.38-2.17-2-3.3-.55-1.01-1.42-2.28-1.67-3.4-.14-.6.03-1.27-.11-1.87-.28-1.24-.98-2.46-1.32-3.71-.7-2.61-1.02-5.31-1.03-8.01,0-2.48.23-5,.86-7.41.55-2.1,1.51-3.76,2.79-5.51,1.57-2.14,3.39-4.2,5.62-5.67.73-.48,1.59-1.03,2.47-1.2.02,0,.2-.04.19-.09-1.88-6.65-3.08-15.86,3.19-20.66.81-.62,1.71-1.13,2.67-1.5.45-.17.97-.23,1.4-.42.87-.37,1.56-1.44,2.32-2.04,1.95-1.56,4.29-2.58,6.77-2.89,2.9-.36,5.9.18,8.58,1.3.93.39,1.26.76,2.21.54,2.76-.64,5.54-1.18,8.33-1.61,1.94-.29,3.9-.54,5.86-.61,1.42-.06,3.06-.19,4.34.55,2.49,1.44,3.34,4.95,3.83,7.55.34,1.83.56,3.7.58,5.56,0,.01.01.02.03.02,5,.89,10.25,2.44,14.58,5.13,1.68,1.04,3.02,2.33,4.28,3.85.8.97,1.54,1.98,2.24,3.01.64.95,1.48,1.99,1.92,3.05.31.75.25.49-.17.9-.21.2-.51.33-.73.54-.61.57-1.01,1.35-1.05,2.2-.04,1.14.68,2.25,1.14,3.25.6,1.31,1.21,2.61,1.83,3.91,2.64,5.56,5.45,11.04,8.43,16.42.04.07.33-.04.31-.08Z"/>
  </g>
  <g>
    <path class="cls-6" d="M215.57,326.25c4.03-7.26,7.74-14.72,11.15-22.3.83-1.84-.49-3.75-2.1-4.22,1.55-2.7,3.64-5.91,5.99-8.36,4.97-5.17,17.44-7.38,17.44-7.38,0,0,.13-13.07,6-13.64,5.87-.57,17.72,2.33,17.72,2.33,0,0,10.86-6.33,19.16,2.92,0,0,9.11,1.35,9.04,13.33,0,2.59-.46,5.68-1.51,9.36,0,0,4.44.78,9.72,9.08,2.28,3.58,3.58,14.32-.15,22.51l-.11,1.93c-4.91,10.78-11.47,16.84-21.05,16.24-.05.1-9.76,21.35-31.69,16.42-19.04-4.28-22.96-14.55-22.96-14.55,0,0-9.61,3.16-14.03,1.21-4.64-2.04-7.59-6.45-8.95-11.34,2.17-4.48,4.26-9,6.31-13.54Z"/>
    <path class="cls-6" d="M215.73,326.22c2.56-4.61,4.99-9.3,7.29-14.04,1.12-2.3,2.21-4.62,3.27-6.95.82-1.79,1.37-3.6-.46-5.01-.46-.36-.94-.36-.75-1.04.13-.45.6-1.01.85-1.41.65-1.05,1.33-2.08,2.06-3.07,1.22-1.68,2.54-3.35,4.2-4.61,2.87-2.2,6.41-3.52,9.84-4.56,1.97-.6,3.98-1.13,6.01-1.49.04,0,.19-.04.19-.09.02-1.52.18-3.05.41-4.55.39-2.55,1.02-5.46,2.74-7.47,1.24-1.46,2.86-1.61,4.69-1.59s3.58.22,5.35.46c3.03.41,6.04.98,9.02,1.66,1.05.24,1.23.33,2.15-.11,2.48-1.18,5.3-1.82,8.06-1.69,1.97.09,3.91.58,5.66,1.48.86.44,1.68.97,2.43,1.57.41.33.81.68,1.19,1.05.23.22.62.78.9.92.25.13.65.14.92.23.77.24,1.51.57,2.2.97,7.47,4.33,6.37,14.4,4.38,21.45,0,.02,0,.03.02.03,2.17.4,4.21,2.34,5.67,3.84,1.75,1.81,3.58,3.98,4.6,6.3.8,1.82,1.19,3.85,1.41,5.82.3,2.55.29,5.14-.01,7.69-.18,1.48-.45,2.96-.85,4.4-.18.63-.37,1.25-.6,1.87-.19.53-.56,1.1-.67,1.65-.12.6.02,1.25-.11,1.84-.26,1.24-1.24,2.67-1.86,3.77-1.22,2.2-2.62,4.31-4.3,6.18-3.82,4.27-8.88,6.6-14.65,6.28-.06,0-.23.02-.26.09-2.62,5.77-7.59,11-13.1,14.02-5.94,3.27-12.66,3.67-19.18,2.1s-12.48-4.01-17.33-8.31c-1.83-1.62-3.83-3.68-4.73-6.02-.02-.05-.18,0-.21.01-1.95.64-3.98,1.11-6.01,1.44-3.66.6-7.06.61-10.2-1.6-1.62-1.14-2.97-2.62-4.04-4.28-.97-1.5-2.03-3.39-2.36-5.16-.21-1.14.82-2.55,1.3-3.56.55-1.16,1.1-2.32,1.64-3.49,1.08-2.33,2.15-4.67,3.21-7.01.02-.04-.27-.02-.31.06-1.92,4.24-3.87,8.47-5.89,12.67-.19.4-.4.66-.37,1.06s.26.86.39,1.24c.3.87.66,1.72,1.08,2.54.74,1.46,1.66,2.83,2.77,4.03,1.99,2.15,4.56,3.78,7.52,3.97,2.64.17,5.33-.3,7.9-.9.96-.22,1.91-.47,2.85-.75.13-.04.42-.19.55-.17.17.03-.21-.1-.12.04.37.57.63,1.23,1.01,1.81,2.17,3.26,5.34,5.8,8.7,7.74,10.05,5.81,23.08,8.21,33.36,1.78,3.47-2.17,6.44-5.1,8.85-8.4.82-1.11,1.57-2.28,2.25-3.48.19-.34.35-.72.56-1.04.04-.07.08-.23.14-.28.17-.13-.02.05.13,0,.45-.18,1.46.02,1.96,0,.68-.03,1.36-.11,2.03-.22,1.25-.21,2.48-.55,3.65-1.02,2.47-1,4.66-2.59,6.51-4.5,2.3-2.37,4.1-5.18,5.61-8.1.4-.77,1.02-1.66,1.22-2.51.09-.37.05-.83.07-1.22.09-1.55,1.01-3.08,1.41-4.6.9-3.42,1.16-7.01.88-10.53-.2-2.63-.62-5.53-1.95-7.86-1.6-2.8-3.87-5.53-6.44-7.49-.72-.55-1.48-1.05-2.3-1.43-.18-.08-.97-.24-1.08-.4-.16-.22.29-1.24.39-1.63.24-.94.44-1.89.61-2.85.32-1.81.5-3.64.46-5.47-.06-2.92-.7-5.9-2.4-8.32-1.04-1.49-2.44-2.71-4.06-3.53-.81-.41-1.78-.51-2.55-.9-.42-.21-.85-.87-1.21-1.19-.7-.64-1.45-1.23-2.26-1.73-1.28-.8-2.68-1.39-4.14-1.74-2.37-.56-4.85-.47-7.21.07-1.45.33-2.96.8-4.27,1.52-.1.05-.22.14-.33.18.1-.03.29.02.02-.08-.64-.23-1.39-.32-2.06-.46-2.7-.58-5.43-1.09-8.17-1.45-2.44-.32-5.16-.74-7.61-.34-4.01.66-5.09,5.95-5.59,9.27-.22,1.44-.23,2.89-.39,4.33-.02.23.24-.06.12.02s-.43.08-.56.11c-.75.15-1.49.32-2.23.5-4.85,1.19-10.28,2.8-14.09,6.18-2.78,2.46-4.84,5.84-6.68,9.02,0,0,0,.02,0,.02.99.35,1.82,1.06,2.17,2.06.44,1.24-.17,2.34-.67,3.45-1.09,2.4-2.22,4.79-3.37,7.16-2.27,4.67-4.67,9.28-7.19,13.83-.02.03.26.02.31-.06Z"/>
  </g>
  <path class="cls-2" d="M60.53,222.14s-12.36-18.74-19.3-17.95c-4.22.48-13.22,12.85-11.95,23.62,1.7,14.4,13.49,29.71,16.89,37.85,3.4,8.14,4.28,20.27,15.48,19,4.43-.5,8.93-10.37,8.93-10.37,0,0-6.32-39.32-10.04-52.14Z"/>
  <path class="cls-4" d="M59.55,241.9c-3.12-5.1-6.48-10.12-10.51-14.56-2.1-2.32-4.42-4.56-7.12-6.17-1.21-.72-2.59-1.37-4.02-1.49-.26-.02-.53-.03-.79,0-1.39.17-1.78,1.13-2.24,2.26-2.12,5.2-1.29,11.18.59,16.31.4,1.09,3.28.25,2.9-.78-1.47-3.99-2.27-8.3-1.53-12.53.26-1.46.64-3.06,1.45-4.32l-1.54.8c.22-.03-.53.03-.14.01.08,0,.18,0,.25.02-.25-.05-.18-.04.09.03.15.04.31.08.46.12.08.02.16.05.25.08.32.1-.09-.04.14.05.5.2.98.43,1.45.69,3.8,2.11,6.85,5.59,9.53,8.93,2.98,3.7,5.61,7.67,8.09,11.72.54.89,3.35-.07,2.68-1.17h0Z"/>
  <path class="cls-4" d="M54.94,244.48c-1.54.11-3.27.71-4.09,2.11-.73,1.23-.6,2.82-.4,4.17.26,1.75.76,3.45,1.19,5.17.31,1.24.89,2.88.55,4.17-.04.16-.23.48-.24.57.02-.33,1.4-.65,1.52-.41-.02-.04-.17-.09-.21-.15-.41-.65-.98-1.17-1.36-1.87-1.24-2.26-2.09-4.76-2.84-7.22-.92-3.02-1.49-5.69-1.48-8.82.01-3.45.39-8.66,3.77-10.58.46-.26.79-.74.27-1.09s-1.57,0-2.05.28c-3.5,2-4.55,6.16-4.81,9.92-.18,2.67-.13,5.4.54,8,.78,3.04,1.71,6.07,3.03,8.93.61,1.32,1.41,3.32,2.83,3.98s3.35-.2,3.85-1.65c.46-1.35-.04-3.03-.35-4.35-.38-1.57-3.15-9.39-.13-9.6.48-.03,1.57-.37,1.65-.96.09-.65-.84-.61-1.24-.58h0Z"/>
  <path class="cls-2" d="M291.05,223.01s12.36-18.74,19.3-17.95c4.22.48,13.22,12.85,11.95,23.62-1.7,14.4-13.49,29.71-16.89,37.85-3.4,8.14-4.28,20.27-15.48,19-4.43-.5-8.93-10.37-8.93-10.37,0,0,6.32-39.32,10.04-52.14Z"/>
  <path class="cls-4" d="M294.74,243.44c3.68-6.02,7.7-12.07,12.87-16.93,1.26-1.18,2.59-2.28,4.07-3.17.13-.08.26-.15.39-.23-.09.05-.04.01.18-.09.24-.12.49-.24.74-.35.15-.06.82-.28.26-.11.18-.05.36-.11.53-.16.08-.02.17-.03.25-.06.19-.06-.47.03-.15.03.1,0,.22-.05.32-.04.27.03-.44-.04-.08,0l-.8-.32c.05.08.15.35.09.15.09.29.28.58.4.87.44,1.07.74,2.19.94,3.33.74,4.22-.08,8.54-1.54,12.52-.24.66.91.79,1.29.76.67-.06,1.38-.41,1.63-1.06,1.78-4.84,2.59-10.36.94-15.36-.24-.71-.54-1.81-1.06-2.38-.35-.38-.98-.36-1.47-.32-4.26.35-8.11,4.04-10.88,6.93-4.53,4.73-8.24,10.25-11.65,15.82-.37.6.32.96.83,1.01.66.06,1.54-.24,1.9-.83h0Z"/>
  <path class="cls-4" d="M296.36,247.22c3.59.25,1.5,6.02.97,8.06-.49,1.91-2.42,7.9,1.45,7.73,1.75-.08,2.83-1.72,3.61-3.09,1.39-2.45,2.3-5.19,3.1-7.88.96-3.21,1.5-6.05,1.42-9.39-.09-4.04-.8-9.23-4.68-11.44-.65-.37-1.49-.32-2.08.16-.44.35-.79,1.2-.14,1.57,3.06,1.75,3.76,5.83,3.92,9.05.13,2.45.04,4.92-.57,7.3-.72,2.78-1.59,5.55-2.74,8.18-.37.83-.75,1.68-1.24,2.45-.19.29-.46.55-.63.85,0,0-.2.23-.23.2-.09-.12,1.07-.2.96-.13.19-.13-.01.14,0-.19,0-.18-.1-.39-.12-.58-.06-.7.11-1.46.24-2.14.34-1.71.86-3.38,1.24-5.08s.74-3.48.27-5.12c-.5-1.74-2.03-2.58-3.76-2.7-.69-.05-1.6.19-1.88.91-.25.64.24,1.24.9,1.29h0Z"/>
  <path class="cls-6" d="M310.7,122.21c1.34-16.36-3.9-27.88-12.63-35.56-8.72-7.33-12.51-7.7-23.57-10.46-9.96-25.67-24.38-28.46-50.33-26.77-12.59-14.85-33.53-14.55-46.98-9.97,0-.22,0-.45,0-.67-13.2-5.45-36.18-6.88-49.62,8.98-25.65-2.79-40.37,1.09-50.33,26.77-11.06,2.76-16.55,4.3-25.28,11.64-8.73,7.67-16.03,23.94-10.93,34.38-14.5,11.85-18.33,32.44-9.05,48.71,1.78,2.28,3.08,4.88,3.84,7.67.17,2.04-.01,4.09-.54,6.06-2.99,14.27-1.03,26.77,10.93,35.05,1.94,1.01,4.53,6.26,5.88,7.98,1.11,2.39,2.73,6.87,2.27,9.47-.05,15.93,12.52,25.44,27.54,30.73l93.37,3.38c.45-5.81-.75-12.13-.64-17.58.15-7.78.7-15.59,1.19-23.38.5,8.35,1.13,16.71,1.29,25.04.11,5.45-1.1,11.78-.64,17.58l93.37-3.38c15.03-5.29,27.6-14.8,27.54-30.73-.47-2.6,1.15-7.07,2.27-9.47,1.35-1.72,3.94-6.97,5.88-7.98,11.97-8.28,13.92-20.79,10.93-35.05-.52-1.97-.71-4.02-.54-6.06.75-2.79,2.06-5.4,3.84-7.67,9.28-16.27,5.45-36.86-9.05-48.71Z"/>
  <path class="cls-2" d="M290.16,214.45s-4.34,1.38-.73,3.74c-2.54,12.86-2.57,29.46-4.72,45-5.71,40.97-11.32,69.58-39.16,87.68-29.17,18.98-44.5,16.59-69.69,17.53-25.19-.94-42.37-1.32-71.53-20.3-27.82-18.09-31.61-43.93-37.3-84.91-1.27-9.14-3.6-34.96-5.22-42.98-1.2-5.95.45-11.38-.65-16.98-.02-.09-2.18,16.92-2.2,16.85-.02-.06-.02-.07-.02-.07-4.02-20.56-6.45-39.54-.94-62.46,5.67-23.71,25.28-53.13,55.11-71.71h.02s.04-.02.04-.02c17.59-10.94,38.75-18.11,62.7-18.11,64.65,0,108.85,52.12,117.88,89.84,5.6,23.36.57,35.91-3.57,56.91Z"/>
  <path class="cls-1" d="M62.62,276c-4.85.54-9.21,3.98-9.76,9.03-.25,2.29.39,4.62,1.75,6.48,1.08,1.49,2.36,2.38,4.06,3.01,3.5,1.29,7.25.79,10.33-1.3.52-.35.71-1.09.15-1.5-.6-.45-1.52-.2-2.08.17-2,1.35-4.33,1.52-6.58.72-1.25-.44-2.04-.88-2.96-2.02-2.26-2.8-2.41-6.9-.15-9.75,1.28-1.6,3-2.5,4.96-2.71.63-.07,1.52-.44,1.6-1.17s-.76-1.02-1.34-.95h0Z"/>
  <path class="cls-6" d="M184.2,274.34c-3.42,2.18-8.57,1.82-11.92-.58-.74-.53-3.27.07-2.23.82,4.43,3.17,11.82,3.29,16.23.48.44-.28.37-.67-.17-.87-.56-.21-1.45-.14-1.92.16"/>
  <path class="cls-6" d="M168.36,273.43c-2.7-1.27-5.74-1.94-8.76-2.17-.44-.03-1.02.13-1.34.42-.26.23-.31.53.03.72,1.39.8,3.17,1.13,4.81,1.1.51,0,1.19-.14,1.48-.58.27-.41-.23-.67-.63-.66-1.35.03-2.73-.24-3.88-.9-.44.38-.88.76-1.32,1.14,2.7.21,5.41.83,7.83,1.97.48.23,1.17.08,1.6-.18.32-.19.67-.63.18-.86"/>
  <path class="cls-6" d="M156.47,273.81c-2.99-.09-6.5-1.62-7.97-4.27-2.22-4-.15-8.75,3.58-11.31.41-.28.19-.64-.22-.74-.54-.14-1.17.1-1.59.39-3.25,2.23-5.35,5.85-4.87,9.6.46,3.51,3.31,5.96,6.89,6.97,1.06.3,2.19.51,3.31.54.45.01,1.27-.15,1.49-.57.22-.42-.19-.61-.61-.62"/>
  <path class="cls-6" d="M187.74,273.43c2.7-1.27,5.74-1.94,8.76-2.17.44-.03,1.02.13,1.34.42.26.23.31.53-.03.72-1.39.8-3.17,1.13-4.81,1.1-.51,0-1.19-.14-1.48-.58-.27-.41.23-.67.63-.66,1.35.03,2.73-.24,3.88-.9.44.38.88.76,1.32,1.14-2.7.21-5.41.83-7.83,1.97-.48.23-1.17.08-1.6-.18-.32-.19-.67-.63-.18-.86"/>
  <path class="cls-6" d="M199.63,273.81c2.99-.09,6.5-1.62,7.97-4.27,2.22-4,.15-8.75-3.58-11.31-.41-.28-.19-.64.22-.74.54-.14,1.17.1,1.59.39,3.25,2.23,5.35,5.85,4.87,9.6-.46,3.51-3.31,5.96-6.89,6.97-1.06.3-2.19.51-3.31.54-.45.01-1.27-.15-1.49-.57-.22-.42.19-.61.61-.62"/>
  <path class="cls-7" d="M206.44,183.16c.02,2.33.04,4.66.06,7,.02,1.78.04,3.56.07,5.33,6.47-1.53,12-2.53,16.19-3.19,8.84-1.4,13.36-2.07,18.51-1.3,5.4.81,9.99,2.64,11.77,3.36,2.51,1.02,4.19,1.66,6.2,2.99,4.37,2.88,6.16,6.13,6.87,5.84.65-.26-.43-3.12-.54-3.42-2.76-7.21-8.86-11.45-9.33-11.79,0,0-4.59-3.29-11.97-4.99-5.08-1.17-19.16-1.97-37.83.16"/>
  <path class="cls-7" d="M228.87,211.28c3.03-1.57,6.57-.21,8.55,1.54.47.41,1.72,1.59,2.3,3.58.75,2.54-.27,5.43-1.86,7.18-2.13,2.34-5.69,2.74-8.41,1.47-3.7-1.73-4.9-6.18-3.98-9.42.17-.59.96-3.09,3.41-4.36"/>
  <path class="cls-7" d="M205.11,222.22s15.96-11.61,24.12-12.36c11.91-1.09,26.58,5,30.8,10.46,0,0-19.42-9.12-27.79-8.12-8,.95-27.14,10.01-27.14,10.01Z"/>
  <path class="cls-7" d="M148.94,183.41c-.02,2.33-.04,4.66-.06,7-.02,1.78-.04,3.56-.07,5.33-6.47-1.53-12-2.53-16.19-3.19-8.84-1.4-13.36-2.07-18.51-1.3-5.4.81-9.99,2.64-11.77,3.36-2.51,1.02-4.19,1.66-6.2,2.99-4.37,2.88-6.16,6.13-6.87,5.84-.65-.26.43-3.12.54-3.42,2.76-7.21,8.86-11.45,9.33-11.79,0,0,4.59-3.29,11.97-4.99,5.08-1.17,19.16-1.97,37.83.16"/>
  <path class="cls-7" d="M126.51,211.53c-3.03-1.57-6.57-.21-8.55,1.54-.47.41-1.72,1.59-2.3,3.58-.75,2.54.27,5.43,1.86,7.18,2.13,2.34,5.69,2.74,8.41,1.47,3.7-1.73,4.9-6.18,3.98-9.42-.17-.59-.96-3.09-3.41-4.36"/>
  <path class="cls-7" d="M150.27,222.47s-15.96-11.61-24.12-12.36c-11.91-1.09-26.58,5-30.8,10.46,0,0,19.42-9.12,27.79-8.12,8,.95,27.14,10.01,27.14,10.01Z"/>
  <path class="cls-9" d="M207.67,303.89c0,3.44-15.78,6.23-29.62,6.23s-29.62-2.79-29.62-6.23,15.78-6.23,29.62-6.23,29.62,2.79,29.62,6.23Z"/>
  <path class="cls-1" d="M290.87,277.88c3.92,1.55,6.4,5.7,5.43,9.89-.45,1.95-1.59,3.69-3.25,4.82-.19.13-.38.24-.57.35-.1.05-.56.21-.23.13.43-.11.26-.08-.06,0-.11.03-.22.05-.33.08.43-.1-.02,0-.14.02-.51.09-.55.09-.99.11-2.66.12-5.03-1.06-6.75-3.06-.54-.63-3.29.38-2.71,1.05,2.87,3.36,7.99,4.29,12.06,2.68,4.6-1.81,7.27-7.02,5.56-11.73-.96-2.64-3.08-4.56-5.66-5.58-.6-.24-1.5.03-2.04.33-.33.18-.93.67-.31.91h0Z"/>
  <path class="cls-3" d="M178.73,297.76c-17.02,0-44.61-1.94-44.61-1.94,0,0,5.14,41.17,44.61,41.17s44.61-41.17,44.61-41.17c0,0-27.59,1.94-44.61,1.94Z"/>
  <path class="cls-8" d="M178.89,297.76c-8.09,0-40.71-1.33-40.71-1.33,0,0,10.79,25.8,40.06,25.8,31.74,0,41.06-25.55,41.06-25.55l-40.41,1.08Z"/>
  <path class="cls-5" d="M179.25,298.94c-8.09,0-32.72-1.33-32.72-1.33,0,0,8.87,8.62,33.14,8.62s31.99-8.37,31.99-8.37l-32.41,1.08Z"/>
  <path class="cls-3" d="M225.13,293.4c-.86-.2-5.57,1.31-9.59.98-6.7-.56-14.8-2.28-19.65-2.64-8.29-.62-13.55,2.56-17.15,2.56s-8.86-3.18-17.15-2.56c-4.85.36-12.96,2.08-19.65,2.64-4.02.34-8.73-1.18-9.59-.98-1.19.28,1.12,8.82,46.41,8.82s47.58-8.53,46.39-8.82Z"/>
  <path class="cls-10" d="M291.92,125.77s6.16-16.27-2.09-18.37l-7.7-3.01s-.39-1.05-1.08-2.63h0c1.69-3.68-1.2-10.12-3.66-13.33-3.84-5-16.77-6.16-18.56-5.64-1.8.53-3.33,3.16-3.33,3.16,0,0-.25-7.63-3.07-9.48-2.81-1.84-19.21-7.63-19.21-7.63l-3.83,2.62c.1-.19,1.45-2.69-.51-4.2-1.98-1.53-23.39-11.68-37.07-10.91-.46.02-.91.06-1.35.11l-5.69,2.68-.2.09c.06-.03.14-.07.22-.11,1.01-.54,3.17-1.86,2.06-2.95-.38-.39-1.17-.74-2.54-1.03-2.01-.41-5.02-.64-8.29-.74,0-.01,0-.03,0-.04-.31,0-.62.01-.93.02-.31,0-.62-.01-.93-.02,0,.01,0,.03,0,.04-3.27.1-6.28.33-8.29.74-1.37.28-2.15.64-2.54,1.03-1.11,1.09,1.05,2.42,2.06,2.95.08.04.15.08.22.11l-.2-.09-5.69-2.68c-.44-.06-.89-.09-1.35-.11-13.68-.77-35.08,9.38-37.07,10.91-1.97,1.52-.61,4.01-.51,4.2l-3.83-2.62s-16.4,5.79-19.21,7.63c-2.82,1.85-4.09,6.24-4.09,6.24,0,0-5,1.66-6.8,1.13-1.79-.52-11.1,3.86-14.94,8.86-2.46,3.21-1.57,6.23-2.8,9.05h0c-.69,1.59-1.08,2.64-1.08,2.64l-9.62,2.91c-7.72,3.36-5.79,17.77-5.79,17.77-15.17,16.87-15.92,31.24-9.12,46.72,2.62,5.97-4.1,7.01-3.1,17.9,1.1,11.97,19.79,39.82,19.79,39.82,0,0,2.98-25.34,3.49-31.61.51-6.27-1-24.57-1-24.57l-.14-4.91s9.07-1.3,13.38-8.4c4.32-7.11,3.9-15.62,3.9-15.62l-2.31-7.64,11.47.72c11.08-1.72,11.7-12.61,11.7-12.61l-1.92-18.12,6.66,6.08s2.56,2.87,6.4,2.61c17.19-1.18,19.21-10.88,19.21-10.88l2.3-9.13,4.36,2.63c4.61,3.43,11.37,5.38,19.07,5.22.08,0,.15,0,.23,0,6.25-.22,11.39-5,12.97-11.05,1.8-6.85,5.36-18.54,5.46-20.79.09,1.95,3.32,10.64,5.57,17.2,1.78,5.2,5.06,9.79,9.57,12.93.73.51,1.36.9,1.78,1.06,7.18,2.8,15.51-1.13,20.12-4.56l4.36-2.63,1.39,8.55s-1.14,9.79,16.05,10.97c3.84.27,8.94-1.66,8.94-1.66l8.2-6.54-1.62,15.28s-1.62,14.62,12.49,15.76l10.39-1.03-2.31,7.64s-.85,10.86,3.47,17.97c4.31,7.1,7.79,10.2,7.79,10.2l4.75,2.25s-.39,16.8.12,23.07c.51,6.27,4.88,33.96,4.88,33.96,0,0,12.56-24.48,16.26-35.92,5.1-15.75-9.53-20.58-3.15-28.96,6.89-9.05.71-39.42-12.55-41.19Z"/>
</svg>