<?xml version="1.0" encoding="UTF-8"?>
<svg id="Layer_9" data-name="Layer 9" xmlns="http://www.w3.org/2000/svg" viewBox="0 0 358.18 411.08">
  <defs>
    <style>
      .cls-1 {
        fill: #af6b4e;
      }

      .cls-1, .cls-2, .cls-3, .cls-4, .cls-5, .cls-6 {
        stroke-width: 0px;
      }

      .cls-2 {
        fill: #6b3825;
      }

      .cls-3 {
        fill: #24180f;
      }

      .cls-4 {
        fill: #000;
      }

      .cls-5 {
        fill: #f1eef7;
      }

      .cls-6 {
        fill: #4f2e25;
      }
    </style>
  </defs>
  <path class="cls-1" d="M64.46,212.84s-13.41-25.97-22.51-25.91c-5.54.04-18.9,14.81-18.75,28.92.2,18.88,13.35,40.33,16.63,51.34,3.28,11.01,2.73,26.83,17.41,26.73,5.81-.04,12.99-12.19,12.99-12.19,0,0-2.74-51.78-5.77-68.9Z"/>
  <path class="cls-6" d="M57.72,233.56c-3.18-6.73-6.65-13.5-11.24-19.4-2.04-2.63-4.48-5.43-7.56-6.87-1.4-.65-2.99-1.01-4.51-.58-1.34.38-1.89,1.5-2.5,2.69-3.25,6.4-3.01,14.02-1.3,20.82.21.85,2.39.28,2.17-.58-1.53-6.08-1.89-12.75.51-18.67.47-1.15,1.19-2.13,1.72-3.22.2-.41-.22.2-.18.15-.48.54-.07-.12.01.02,0,.01-.36.1-.07.03s-.08,0,.02-.01c.1-.02.21-.03.31-.03.23,0-.21-.02.17,0,.49.02,1.17.19,1.78.47,2.72,1.22,4.87,3.58,6.72,5.85,4.88,5.98,8.47,13.01,11.75,19.94.39.82,2.52.16,2.17-.58h0Z"/>
  <path class="cls-6" d="M54.15,241.24c-1.88-.08-3.86.42-4.94,2.09-1,1.55-1,3.58-.91,5.36.12,2.28.53,4.54.84,6.8.23,1.65.71,3.82.06,5.43-.03.08-.35.58-.35.58.01.01.56-.11.56-.09,0,0-.3-.2-.32-.23-.58-.84-1.11-1.58-1.52-2.53-1.34-3.11-2.11-6.49-2.75-9.81-.43-2.23-.99-4.55-.99-6.83,0-1.65.1-3.29.28-4.93.51-4.61,1.73-11.27,6.52-13.34,1.38-.59.14-1.57-.92-1.11-4.68,2.02-6.55,7.29-7.4,11.94-.62,3.39-.92,6.94-.43,10.37.58,4,1.35,8.02,2.61,11.88.58,1.79,1.38,4.78,3.21,5.77,1.62.87,3.3-.49,3.74-2.03.51-1.81.11-3.93-.15-5.75-.37-2.66-.93-5.37-.83-8.06.08-1.97.53-4.16,2.89-4.06.45.02,1.24-.14,1.42-.63s-.16-.77-.63-.79h0Z"/>
  <path class="cls-1" d="M288.23,212.84s13.41-25.97,22.51-25.91c5.54.04,18.9,14.81,18.75,28.92-.2,18.88-13.35,40.33-16.63,51.34-3.28,11.01-2.73,26.83-17.41,26.73-5.81-.04-12.99-12.19-12.99-12.19,0,0,2.74-51.78,5.77-68.9Z"/>
  <path class="cls-6" d="M295.09,238.96c3.95-8.34,8.35-16.8,14.39-23.85,2.27-2.65,4.98-5.41,8.09-6.63-.23.09.14-.04.36-.11.14-.04.29-.07.43-.1-.65.14.61.01-.17,0l-.61-.29c1.25,1.56,2,3.61,2.54,5.5,1.55,5.41,1.13,11.13-.23,16.53-.25,1,1.97.73,2.2-.18,1.61-6.37,1.92-13.43-.73-19.58-.54-1.25-1.29-3.67-2.98-3.47s-3.18,1.09-4.51,1.98c-3.1,2.08-5.67,4.97-7.94,7.91-5.23,6.75-9.27,14.38-12.91,22.07-.51,1.09,1.68,1.04,2.07.21h0Z"/>
  <path class="cls-6" d="M298.22,242.37c5.18-.23,4.07,6.67,3.61,9.96-.31,2.25-.79,4.53-.78,6.82,0,1.26.24,3.29,1.86,3.38,2.08.12,3.31-1.52,4.1-3.19,1.45-3.07,2.23-6.5,2.9-9.81.5-2.47,1.12-5.06,1.13-7.6,0-1.76-.1-3.52-.3-5.26-.58-4.99-2.05-11.63-7.19-13.84-.41-.17-1,.01-1.39.15-.08.03-.97.43-.66.57,4.38,1.89,5.99,7.14,6.75,11.46.54,3.07.89,6.36.46,9.47-.55,3.97-1.31,7.94-2.51,11.77-.41,1.31-.87,2.61-1.48,3.83-.21.41-.43.82-.7,1.19-.1.14-.32.32-.39.47-.01.03-.16.11-.16.14.01.19.92-.27.93-.2,0,.02-.58-.51-.62-.58-.2-.29-.31-.62-.39-.97-.19-.8-.17-1.65-.12-2.47.13-2.2.55-4.37.84-6.55s.66-4.74-.05-6.92c-.66-2.02-2.38-2.75-4.4-2.66-.47.02-1.17.09-1.54.41-.25.21-.39.44.11.42h0Z"/>
  <path class="cls-1" d="M283.19,348.81c3.39-3.31,7.79-22.21,7.82-26.99.08-14.14.77-18.19,1.69-39.7.94-21.51,4.91-40.68,6.79-61.25,1.87-20.58,4.2-101.14-1.89-117.52-1.81-4.87-9.48-12.2-20.42-20.08-25.75-18.58-69.65-40.24-97.88-40.24-40.22,0-112.22,43.96-118.31,60.32-6.07,16.38-7.74,96.94-5.87,117.52,1.87,20.56,6.85,39.74,7.79,61.25.93,21.51,2.8,49.3,6.15,57.3.74,1.76,4.68,6.47,5.94,8.29,8.48,12.4,14.67,15.68,26.83,28.21,0,0,9.31,10.92,17.56,15.42,8.25,4.5,116.55.75,121.9,0,5.35-.75,41.89-42.53,41.89-42.53"/>
  <path class="cls-4" d="M55.82,244.85s-7.53-42.01-14.4-62.23c-2.5-7.37-6.22-88.71-1.85-103.7,7.01-24.05,81.91-62.83,137.97-60.82,71.18,2.56,126.99,34.05,136.13,50.56,7.42,13.39,3.06,96.6-1.87,114.02-2.81,9.92-14.39,58.84-14.39,58.84,0,0,2.92-75.17-6.53-93.49-9.45-18.31-8-54.67-12.68-59.68-4.68-5-52.89-16.84-100.66-17.15-57.16-.37-98.77,16.88-101.63,19.01-2.86,2.13-1.05,38.94-5.62,48.69-18.88,40.22-12.41,75.38-14.45,105.94Z"/>
  <path class="cls-4" d="M183.62,274.33c-5.49,2.24-9.5,2.32-13.1-.85-.8-.7-3.6.06-2.49,1.05,4.76,4.18,13.79,3.56,18.76-.09.49-.37.43-.88-.15-1.14-.61-.28-2.5.64-3.02,1.03"/>
  <path class="cls-4" d="M166.05,272.02c-3.49-1.02-7.21-1.19-10.82-.79-.53.06-1.16.4-1.47.85-.24.35-.23.75.21.92,1.83.71,4,.72,5.91.31.6-.13,1.37-.45,1.59-1.08.21-.58-.44-.81-.9-.71-1.58.34-3.26.31-4.77-.27-.42.59-.84,1.18-1.26,1.77,3.22-.35,6.55-.17,9.67.74.62.18,1.39-.17,1.83-.59.33-.32.62-.97,0-1.15"/>
  <path class="cls-4" d="M188.8,272.85c3.48-1.06,7.2-1.27,10.81-.92.53.06,1.16.39,1.48.83.25.35.24.75-.2.92-1.83.73-4,.77-5.91.38-.6-.12-1.37-.43-1.61-1.06-.22-.58.43-.82.9-.72,1.58.32,3.26.28,4.77-.32.43.59.85,1.17,1.28,1.76-3.23-.31-6.56-.09-9.66.86-.62.19-1.4-.15-1.84-.57-.33-.31-.63-.96-.01-1.15"/>
  <path class="cls-4" d="M151.83,273.68c-3.57-.12-7.76-2.13-9.52-5.6-2.65-5.25-.18-11.48,4.27-14.83.48-.36.23-.84-.26-.97-.64-.18-1.4.13-1.9.51-3.88,2.92-6.39,7.67-5.81,12.6.55,4.6,3.96,7.81,8.23,9.15,1.27.39,2.62.66,3.96.71.54.01,1.51-.19,1.78-.74.27-.55-.23-.8-.73-.81"/>
  <path class="cls-4" d="M203.36,273.81c3.57-.12,7.76-2.13,9.52-5.6,2.65-5.25.18-11.48-4.27-14.83-.48-.36-.23-.84.26-.97.64-.18,1.4.13,1.9.51,3.88,2.92,6.39,7.67,5.81,12.6-.55,4.6-3.96,7.81-8.23,9.15-1.27.39-2.62.66-3.96.71-.54.01-1.51-.19-1.78-.74-.27-.55.23-.8.73-.81"/>
  <path class="cls-4" d="M116.34,196.95c-3.62-1.87-7.85-.25-10.22,1.84-.56.49-2.06,1.9-2.75,4.28-.89,3.04.32,6.48,2.23,8.58,2.55,2.8,6.79,3.28,10.05,1.76,4.42-2.06,5.86-7.38,4.76-11.25-.2-.71-1.15-3.69-4.07-5.21"/>
  <path class="cls-4" d="M238.32,198.3c3.62-1.87,7.85-.25,10.22,1.84.56.49,2.06,1.9,2.75,4.28.89,3.04-.32,6.48-2.23,8.58-2.55,2.8-6.79,3.28-10.05,1.76-4.42-2.06-5.86-7.38-4.76-11.25.2-.71,1.15-3.69,4.07-5.21"/>
  <path class="cls-4" d="M207.45,212.87s20.85-15.16,31.51-16.14c15.55-1.43,34.72,6.54,40.23,13.67,0,0-25.36-11.91-36.29-10.61-10.45,1.24-35.44,13.08-35.44,13.08Z"/>
  <path class="cls-4" d="M148.41,210.57s-20.85-15.16-31.51-16.14c-15.55-1.43-34.72,6.54-40.23,13.67,0,0,25.36-11.91,36.29-10.61,10.45,1.24,35.44,13.08,35.44,13.08Z"/>
  <path class="cls-4" d="M149.62,155.84c-.02,3.71-.05,7.43-.08,11.16-.02,2.84-.05,5.67-.09,8.5-8.33-2.44-15.47-4.03-20.86-5.08-10.69-2.09-21.82-3.41-32.66-1.67-5.19.84-9.74,2.24-14.07,5.08-1.37.9-5.07,4.79-7.1,3.77-.83-.42.56-4.98.7-5.45,2.85-9.2,10.17-12.99,19.11-15.14,18.23-4.38,36.54-3.8,55.04-1.18"/>
  <path class="cls-4" d="M206.8,157.19c.02,3.71.05,7.43.08,11.16.02,2.84.05,5.67.09,8.5,8.2-2.44,15.22-4.03,20.53-5.08,10.52-2.09,21.48-3.41,32.14-1.67,5.1.84,9.58,2.24,13.85,5.08,1.35.9,4.99,4.79,6.99,3.77.82-.42-.55-4.98-.69-5.45-2.8-9.2-10.01-12.99-18.81-15.14-17.94-4.38-35.96-3.8-54.17-1.18"/>
  <path class="cls-2" d="M177.21,304.44c-21.19,0-55.52-2.42-55.52-2.42,0,0,6.4,50.99,55.52,50.99s55.52-50.99,55.52-50.99c0,0-34.33,2.42-55.52,2.42Z"/>
  <path class="cls-3" d="M177.42,304.44c-10.07,0-50.67-1.65-50.67-1.65,0,0,13.43,31.86,49.86,31.86,39.5,0,51.1-31.55,51.1-31.55l-50.29,1.34Z"/>
  <path class="cls-5" d="M177.86,305.91c-10.07,0-40.72-1.65-40.72-1.65,0,0,11.03,10.73,41.25,10.73s39.81-10.42,39.81-10.42l-40.34,1.34Z"/>
  <path class="cls-2" d="M234.95,299.01c-1.07-.25-6.93,1.64-11.94,1.22-8.34-.7-18.42-2.83-24.46-3.28-10.31-.77-16.86,3.18-21.35,3.18s-11.03-3.96-21.35-3.18c-6.04.45-16.12,2.59-24.46,3.28-5,.42-10.86-1.47-11.94-1.22-1.49.35,1.4,10.98,57.76,10.98s59.22-10.62,57.73-10.98Z"/>
</svg>