<?xml version="1.0" encoding="UTF-8"?>
<svg id="Layer_1" data-name="Layer 1" xmlns="http://www.w3.org/2000/svg" viewBox="0 0 1220 1257.95">
  <defs>
    <style>
      .cls-1 {
        stroke: #603913;
      }

      .cls-1, .cls-2 {
        stroke-width: .8px;
      }

      .cls-1, .cls-2, .cls-3, .cls-4, .cls-5, .cls-6, .cls-7, .cls-8, .cls-9, .cls-10, .cls-11, .cls-12 {
        stroke-miterlimit: 10;
      }

      .cls-1, .cls-2, .cls-5, .cls-6, .cls-7, .cls-8, .cls-9, .cls-10, .cls-11, .cls-12 {
        fill: none;
      }

      .cls-2, .cls-5, .cls-9, .cls-12 {
        stroke: #231f20;
      }

      .cls-13 {
        fill: #00a151;
      }

      .cls-14 {
        fill: #e6e7e8;
      }

      .cls-15, .cls-3 {
        fill: #f6ac1b;
      }

      .cls-16 {
        fill: #f05380;
      }

      .cls-17 {
        fill: #fff;
      }

      .cls-18 {
        fill: #9054a2;
      }

      .cls-19 {
        fill: #ae8578;
      }

      .cls-20 {
        fill: #bd9154;
      }

      .cls-21 {
        fill: #be9e7d;
      }

      .cls-22 {
        fill: #bf6b6b;
      }

      .cls-23 {
        fill: #c4e7f6;
      }

      .cls-24 {
        fill: #dc3b28;
      }

      .cls-25 {
        fill: #134a7e;
      }

      .cls-26 {
        fill: #1c75bc;
      }

      .cls-27 {
        fill: #3e3e3e;
      }

      .cls-28 {
        fill: #27aae1;
      }

      .cls-29 {
        fill: #517569;
      }

      .cls-30 {
        fill: #26130f;
      }

      .cls-3 {
        stroke: #8b5e3c;
      }

      .cls-3, .cls-12 {
        stroke-width: .5px;
      }

      .cls-4 {
        fill: #2b3990;
        stroke: #2b3990;
      }

      .cls-5, .cls-6, .cls-7 {
        stroke-width: 2px;
      }

      .cls-6 {
        stroke: #dc3b28;
      }

      .cls-7 {
        stroke: #fbb040;
      }

      .cls-8 {
        stroke: #0c3149;
      }

      .cls-10 {
        stroke: #8b645f;
      }

      .cls-11 {
        stroke: #808285;
      }
    </style>
  </defs>
  <circle class="cls-23" cx="610" cy="647.73" r="610"/>
  <path class="cls-20" d="M59.21,910.01l1101.56,.02s-40.51,134.1-225.6,255.47c0,0-126.14,96.99-326.48,91.64,0,0-167.61,14.2-346.6-108.88,0,0-113.96-63.88-202.88-238.26Z"/>
  <g>
    <path class="cls-30" d="M669.9,1174.46s86.72,71.71,87.82-35.51l-93-9.85,5.18,45.36Z"/>
    <path class="cls-21" d="M707.89,502.96s-12.99,110.82-9.17,149.8c0,0-119.23-26.75-223.93-29.04,0,0-8.41-41.27-65.73-39.74,0,0-31.33-25.98-44.33-12.23-12.99,13.76,44.33,35.92,44.33,35.92,0,0-121.52,33.63-119.23,45.86,2.29,12.23,19.11,3.06,19.11,3.06,0,0,32.1,9.17,44.33,4.59,0,0,39.74,29.04,96.3,8.41,0,0,191.83,81.78,261.38,95.53,0,0,88.65,26.75,107-69.55l9.03-157.52"/>
    <path class="cls-21" d="M932.68,210.01s14.93,53.83,64.55,57.22c0,0-11.7,194.36-142.59,213.29,0,0-100.9-15.33-55.82-148.93,0,0,9.31-8.88,9.06-25.42"/>
    <path class="cls-21" d="M918.12,167.51s-17.97-121.89-128.33-119.06c0,0-78,8.48-61.39,118.13,0,0,6.16,17.22,4.18,26.92,0,0-3.53,24.77,10.66,46.23,21.24,32.12,40.99,54.67,40.99,54.67,0,0,12.34,15.11,39.62,12.55,0,0,19.09-2.57,41.8-20.8,0,0,58.65-34.54,51.67-70.42,0,0,28.84,15.08,36.32-29.03,0,0,4.19-60.42-35.52-19.18Z"/>
    <path class="cls-30" d="M812.9,140.63s37.22-12.31,54.63-.34c0,0-13.13-19.36-55.7-8.57,0,0-7.43,5.82,1.08,8.91Z"/>
    <path class="cls-30" d="M723.18,146.76c.42-2.09,19-6.22,36.78-6.04,0,0,8.6,3.9,1.06,8.91,0,0-33.03-4.72-35.93,6.23,0,0-2.96-3.95-1.92-9.1Z"/>
    <path class="cls-9" d="M777.49,196.78s-12.64,24.29,14.14,23.97"/>
    <path class="cls-9" d="M948.66,174.99s-12.44-24.33-27.35,18.75c0,0,14.54-19.92,19.23-4.78"/>
    <path class="cls-30" d="M809.86,306.47s7.92,2.61,35.37-7.04c0,0,24.59-11.43,43.59-30.6,0,0-23.19,32.41-58.57,40.89,0,0-9.17,2.66-23.34,.62,0,0,4.03-.16,2.95-3.87Z"/>
    <g>
      <path class="cls-17" d="M855.35,158.98s-.05-.81-.7-1.44c-2.16-2.08-7.05-5.91-14.26-5.37-8.07,.61-11.94,8.52-13.25,11.34-.23,.49-.17,.89-.17,.89,0,0,0,.45,.3,.75,1.4,1.4,6.01,5.25,13.66,4.79,4.55-.27,10.75-3.2,14.24-9.67,.24-.45,.22-1,.19-1.29Z"/>
      <circle class="cls-30" cx="838.81" cy="161.66" r="8.37"/>
      <circle class="cls-17" cx="843.95" cy="159.56" r="2.3"/>
      <path class="cls-12" d="M826.63,163.56s8.37-20,28.32-6.11"/>
    </g>
    <g>
      <path class="cls-17" d="M761.85,172.89s.07-.76-.45-1.44c-1.71-2.25-5.71-6.51-12.49-7.03-7.59-.59-12.32,6.22-13.95,8.65-.28,.42-.29,.81-.29,.81,0,0-.06,.42,.17,.74,1.1,1.5,4.84,5.74,12.02,6.41,4.27,.4,10.46-1.44,14.63-6.95,.29-.38,.35-.9,.36-1.17Z"/>
      <circle class="cls-30" cx="746.08" cy="173" r="7.84"/>
      <circle class="cls-17" cx="751.4" cy="171.94" r="2.2"/>
      <path class="cls-12" d="M734.81,173.32s10.15-18.53,26.8-1.54"/>
    </g>
    <path class="cls-17" d="M1205.74,778.49l-59.87-260.94c-24.41-32.11,1.39-83.98,1.39-83.98,0,0,3.33-117.38-78.75-135.38-49.56-10.87-77.24-19.5-77.24-19.5-5.76,74.16-27.17,95.11-27.17,95.11-80.68,60.65-154.57,9.58-154.57,9.58-9.65-25.17-9.69-52.45-9.69-52.45-16.44,4.11-28.77,10.28-28.77,10.28-61.52,32.23-62.34,68.51-62.34,68.51l-6.17,87.01,28.93,46.12c8.06,60.82,39.34,92.48,39.34,92.48,23.68,79.5,24.38,182.8,24.38,182.8,52.78,36.83,106.57,20.68,106.57,20.68,94.59-2.77,202.42,26.26,269.49,48.17,0,0,21.45-47.01,34.46-108.47"/>
    <path class="cls-6" d="M1007.31,280.91s-.38,57.97-27.13,102.65c0,0-65.03,65.84-183.52,16.16,0,0-14.05-31.27-8.98-64.19"/>
    <path class="cls-6" d="M772.64,636.58s136.01,46.04,271.93-48.38c0,0,20.29-19.88,34.19-38.4"/>
    <g>
      <circle class="cls-24" cx="860.55" cy="488.29" r="9.83"/>
      <circle class="cls-24" cx="868.91" cy="505.7" r="9.83"/>
      <circle class="cls-24" cx="868.27" cy="524.04" r="9.83"/>
      <circle class="cls-24" cx="852.57" cy="508.39" r="9.83"/>
      <circle class="cls-24" cx="887.57" cy="512.82" r="9.83"/>
      <circle class="cls-24" cx="881" cy="493.06" r="9.83"/>
    </g>
    <g>
      <circle class="cls-24" cx="800.23" cy="484.92" r="9.83"/>
      <circle class="cls-24" cx="808.59" cy="502.33" r="9.83"/>
      <circle class="cls-24" cx="807.94" cy="520.68" r="9.83"/>
      <circle class="cls-24" cx="792.25" cy="505.02" r="9.83"/>
      <circle class="cls-24" cx="827.25" cy="509.45" r="9.83"/>
      <circle class="cls-24" cx="820.68" cy="489.69" r="9.83"/>
    </g>
    <g>
      <circle class="cls-24" cx="921.04" cy="486.94" r="9.83"/>
      <circle class="cls-24" cx="929.4" cy="504.34" r="9.83"/>
      <circle class="cls-24" cx="928.75" cy="522.69" r="9.83"/>
      <circle class="cls-24" cx="913.06" cy="507.03" r="9.83"/>
      <circle class="cls-24" cx="948.06" cy="511.46" r="9.83"/>
      <circle class="cls-24" cx="941.49" cy="491.7" r="9.83"/>
    </g>
    <g>
      <circle class="cls-24" cx="979.53" cy="467.48" r="9.83"/>
      <circle class="cls-24" cx="987.89" cy="484.88" r="9.83"/>
      <circle class="cls-24" cx="987.24" cy="503.23" r="9.83"/>
      <circle class="cls-24" cx="971.55" cy="487.57" r="9.83"/>
      <circle class="cls-24" cx="1006.55" cy="492" r="9.83"/>
      <circle class="cls-24" cx="999.98" cy="472.24" r="9.83"/>
    </g>
    <g>
      <circle class="cls-24" cx="756.93" cy="461.84" r="7.35"/>
      <circle class="cls-24" cx="766.1" cy="473" r="7.35"/>
      <circle class="cls-24" cx="768.88" cy="486.44" r="7.35"/>
      <circle class="cls-24" cx="754.7" cy="477.86" r="7.35"/>
      <circle class="cls-24" cx="780.92" cy="474.86" r="7.35"/>
      <circle class="cls-24" cx="772.63" cy="461.67" r="7.35"/>
    </g>
    <g>
      <circle class="cls-29" cx="983.9" cy="431.36" r="5.28"/>
      <circle class="cls-29" cx="983.48" cy="441.73" r="5.28"/>
      <circle class="cls-29" cx="978.55" cy="450.28" r="5.28"/>
      <circle class="cls-29" cx="975.05" cy="438.89" r="5.28"/>
      <circle class="cls-29" cx="990.55" cy="449.81" r="5.28"/>
      <circle class="cls-29" cx="992.41" cy="438.77" r="5.28"/>
    </g>
    <g>
      <circle class="cls-29" cx="951.66" cy="455.13" r="5.28"/>
      <circle class="cls-29" cx="951.24" cy="465.5" r="5.28"/>
      <circle class="cls-29" cx="946.32" cy="474.04" r="5.28"/>
      <circle class="cls-29" cx="942.81" cy="462.66" r="5.28"/>
      <circle class="cls-29" cx="958.31" cy="473.58" r="5.28"/>
      <circle class="cls-29" cx="960.17" cy="462.54" r="5.28"/>
    </g>
    <g>
      <circle class="cls-29" cx="967.08" cy="522.17" r="5.28"/>
      <circle class="cls-29" cx="966.66" cy="532.54" r="5.28"/>
      <circle class="cls-29" cx="961.73" cy="541.09" r="5.28"/>
      <circle class="cls-29" cx="958.22" cy="529.7" r="5.28"/>
      <circle class="cls-29" cx="973.73" cy="540.62" r="5.28"/>
      <circle class="cls-29" cx="975.59" cy="529.58" r="5.28"/>
    </g>
    <g>
      <circle class="cls-29" cx="901.27" cy="531.36" r="5.28"/>
      <circle class="cls-29" cx="900.85" cy="541.73" r="5.28"/>
      <circle class="cls-29" cx="895.92" cy="550.28" r="5.28"/>
      <circle class="cls-29" cx="892.41" cy="538.89" r="5.28"/>
      <circle class="cls-29" cx="907.92" cy="549.81" r="5.28"/>
      <circle class="cls-29" cx="909.78" cy="538.77" r="5.28"/>
    </g>
    <g>
      <circle class="cls-29" cx="837.36" cy="528.44" r="5.28"/>
      <circle class="cls-29" cx="836.95" cy="538.81" r="5.28"/>
      <circle class="cls-29" cx="832.02" cy="547.35" r="5.28"/>
      <circle class="cls-29" cx="828.51" cy="535.97" r="5.28"/>
      <circle class="cls-29" cx="844.01" cy="546.89" r="5.28"/>
      <circle class="cls-29" cx="845.87" cy="535.85" r="5.28"/>
    </g>
    <g>
      <circle class="cls-29" cx="767.14" cy="513.29" r="5.28"/>
      <circle class="cls-29" cx="766.72" cy="523.66" r="5.28"/>
      <circle class="cls-29" cx="761.8" cy="532.21" r="5.28"/>
      <circle class="cls-29" cx="758.29" cy="520.82" r="5.28"/>
      <circle class="cls-29" cx="773.79" cy="531.74" r="5.28"/>
      <circle class="cls-29" cx="775.65" cy="520.7" r="5.28"/>
    </g>
    <g>
      <circle class="cls-29" cx="901.91" cy="464.03" r="5.28"/>
      <circle class="cls-29" cx="897.9" cy="473.6" r="5.28"/>
      <circle class="cls-29" cx="890.29" cy="479.88" r="5.28"/>
      <circle class="cls-29" cx="890.99" cy="467.99" r="5.28"/>
      <circle class="cls-29" cx="901.69" cy="483.65" r="5.28"/>
      <circle class="cls-29" cx="907.29" cy="473.96" r="5.28"/>
    </g>
    <g>
      <circle class="cls-29" cx="841" cy="457.89" r="5.28"/>
      <circle class="cls-29" cx="843.57" cy="467.94" r="5.28"/>
      <circle class="cls-29" cx="841.29" cy="477.54" r="5.28"/>
      <circle class="cls-29" cx="834.67" cy="467.63" r="5.28"/>
      <circle class="cls-29" cx="852.65" cy="473.67" r="5.28"/>
      <circle class="cls-29" cx="851.28" cy="462.56" r="5.28"/>
    </g>
    <g>
      <circle class="cls-29" cx="795.37" cy="443.8" r="5.28"/>
      <circle class="cls-29" cx="795.91" cy="454.16" r="5.28"/>
      <circle class="cls-29" cx="791.78" cy="463.12" r="5.28"/>
      <circle class="cls-29" cx="787.25" cy="452.11" r="5.28"/>
      <circle class="cls-29" cx="803.68" cy="461.57" r="5.28"/>
      <circle class="cls-29" cx="804.52" cy="450.4" r="5.28"/>
    </g>
    <path class="cls-30" d="M769.23,65.98s83.23,121.08,183.31,111.56c0,0-6.63,44.25-37.32,38.12,0,0,10.4,57.22,50.41,70.65,0,0,20.4,16.17,51.64-10.3,36.28-30.75,39.07-75.46,6.61-119.98,0,0-53.15-40.55-89.39-105.66,0,0-75.65-91.21-167.12-28.14,0,0-60.02-3.54-77.04,48.82-9.84,30.29,6.01,95.02,12.74,137.59,0,0-1.86,109.52,100.96,116.21,0,0,5.41-5.92,5.84-18.37,0,0-20.02-1.3-33.4-21.89-13.37-20.59-19.88-24.32-33.22-44.86,0,0-14.33-20.43-10.27-49.68,0,0,.78-15.24-4.58-23.46,0,0-13.47-61.93,40.83-100.6"/>
    <path class="cls-7" d="M925.21,206.35s9.99,11.98,1.82,20.93c-8.17,8.95-5.63-10.9-5.63-10.9"/>
    <path class="cls-1" d="M410.14,640.31s-55.23-12.74-55.23,17.7"/>
    <path class="cls-1" d="M386.77,631.1s26.91-11.33,29.03-12.04"/>
    <path class="cls-1" d="M421.47,632.52s-5.66-21.24,7.08-32.57"/>
    <path class="cls-11" d="M1027.52,519.69s-14.31-31.5-12.69-70.68"/>
    <path class="cls-11" d="M731.5,542.84s-5.59-25.72,4.91-56.49"/>
    <path class="cls-27" d="M881.73,829.91s-237.96-50.63-370.06-36.1c-128.94,14.18-95.25,141.2-95.25,141.2,0,0,96.55,148.18,177.63,204.94,0,0,49.53,38.96,121.26-20.82,0,0,30.23-108.76-12.81-158.98h0l179.23-130.23Z"/>
    <path class="cls-27" d="M1136.92,811.53c-57.31-54.64-173.96-24.17-173.96-24.17,0,0-95.97,40.94-190.83,113.47-106.87,81.7-174.2,156.77-174.2,156.77,0,113.71,123.61,97,123.61,97l82.87-33.84c40.59,17.77,85.01,35.23,132.56,43.84,0,0,76.26-43.86,153.47-137.32,0,0,75.28-75.68,115.3-248.8,0,0-33.81,32.85-68.82,33.04"/>
    <path class="cls-9" d="M804.53,1120.32s83.54-25.65,187.6-85.73"/>
    <path class="cls-9" d="M721.73,1154.86c-130.4,12.81-123.81-97.26-123.81-97.26,0,0,169.05-174.82,283.8-227.69"/>
    <path class="cls-5" d="M1086.91,785.81s67.05,8.61,87.9,94.44"/>
    <path class="cls-21" d="M1144.85,439.94s9.05,178.71,3.01,220.95c-6.24,43.67-27.16,52.05-79.2,66.9-55.69,15.89-244.77,30.38-244.77,30.38,0,0-46.89,15.96-81.26,6.23,0,0,2.16,17.78-7.81,19.2,0,0-5.18,.38-14.96-14.55,0,0-8.54,9.14-16.96-13.36,0,0-10.94,9.66-17.11-8.31l-1.82-10.64s-11.07,10.19-15.44,5.12c-4.37-5.07,5.12-17.92,5.12-17.92,0,0,7.54-22.96,20.16-23.71,12.63-.75,42.97-11.12,42.97-11.12l86.73,15.83s97.63-45.73,204.42-92.81c0,0-2.28-53.07-.42-92.45,0,0,65.28-29.21,117.33-79.75Z"/>
    <path class="cls-1" d="M782.82,697.75l-46.03-8.63-42.97,11.12s-8.68,.92-14.79,11.02c-6.11,10.1-11.43,23.13-11.43,23.13,0,0-3.93,18,16.38,2.36,0,0-.16,21.84,12.07,21.31,0,0,4.41-.72,6.86-2.36,0,0,8.07,23.3,16.96,13.36,0,0-9.31-18.62-1.35-25.44,7.96-6.82,19.89-5.68,19.89-5.68"/>
    <path class="cls-1" d="M683.97,736.75s4.59-21.03,10.99-25.69c6.4-4.66,18.63-9.31,18.63-9.31"/>
    <path class="cls-1" d="M702.9,755.7s-2.12-26.59,15.34-35.9"/>
    <g>
      <path class="cls-22" d="M840.81,238.7s-15.42-2.99-31.41,7.44c0,0-15.07-3.58-27.57,6.08,0,0,4.11,14.44,20.74,14.08,22.12-.47,41.73-11.02,38.25-27.6Z"/>
      <path class="cls-2" d="M844.14,236.09s-26.11,26.68-62.32,16.13"/>
    </g>
  </g>
  <g>
    <path class="cls-25" d="M243.02,1135.74s12.58-80.28,18.63-126.02c0,0,11.63-31.82,12.35-62.85l5.16-154.44s-61.23,44.53-210.65-8.61c0,0-4.6,63.49,12.88,123.3,0,0,10.04,32.94,9.58,61.11,0,0,27.78,45.01,63.51,84.84,0,0,43.82,51.82,88.53,82.67Z"/>
    <path class="cls-8" d="M181.73,1082.48l4.87-74.78s3.56-85.45-2.37-118.68c0,0,11.89-3.4,15-11.67"/>
    <path class="cls-21" d="M291.14,571.99s22.31,16.73,24.79,22.31c0,0,78.08-45.23,92.95-50.19,0,0,4.96-45.23,21.07-42.76,16.11,2.48,17.97,6.82,17.97,6.82,0,0-1.78,10.4-19.13,6.07,0,0,9.49,31.57,10.11,53.26,0,0-2.88,2.51-6.47,2.02,0,0-57.63,63.2-91.71,81.79-34.08,18.59-63.82,.62-63.82,.62l-19.21-9.91-4.34-24.17,37.8-45.85Z"/>
    <g>
      <path class="cls-16" d="M363.12,626.57s23.07,94.45,6.32,112.22c0,0-21.39,34.18-2.48,45.46,18.91,11.28,54.18-27.31,54.18-27.31,0,0,15.43-26.23,25.64-33.62,10.21-7.39-4.6-30.23-4.6-30.23-1.38,.37-24.95-57.61-20.6-71.97,0,0-35.19,4.99-58.46,5.45Z"/>
      <path class="cls-10" d="M366.74,641.85s27.38,8.01,53.75-7.68"/>
      <path class="cls-10" d="M369.74,653.86s27.38,8.01,53.75-7.68"/>
      <path class="cls-10" d="M373.08,667.89s27.38,8.01,53.75-7.68"/>
      <path class="cls-10" d="M379.09,684.24s27.38,8.01,53.75-7.68"/>
      <path class="cls-10" d="M384.77,696.93s27.38,8.01,53.75-7.68"/>
      <path class="cls-10" d="M385.77,712.62s27.38,8.01,53.75-7.68"/>
      <path class="cls-10" d="M380.43,727.64s27.38,8.01,53.75-7.68"/>
      <path class="cls-10" d="M373.08,745s27.38,8.01,53.75-7.68"/>
      <path class="cls-10" d="M363.07,763.7s27.38,8.01,53.75-7.68"/>
    </g>
    <path class="cls-21" d="M124.81,460.97s5.94,21.15-2.68,48.95c0,0,5.05,44.6,57.4,53.59,0,0,57.29-9.07,24.74-49.85,0,0-5.15-2.24-4-10.96,0,0-61.42-4-75.46-41.72Z"/>
    <path class="cls-21" d="M238.56,364.44s13.3,12.07,11.25,46.32c-2.05,34.26-.96,42.96-10.41,69.46-9.94,27.89-48.08,28.31-48.08,28.31,0,0-60.32-14.79-66.75-48.28,0,0-15.22,15.97-26.84-7.68,0,0-13.27-25.98-.34-31.89,0,0,13.9-4.36,21.12,10.51,0,0-5.06-59.37,15.39-67.59,0,0,51.68-45.6,104.67,.82Z"/>
    <path class="cls-2" d="M216.84,438.84s9.55,17.03-9.54,17.4"/>
    <path class="cls-2" d="M97.82,433.03s6.85-14.5,16.38,10.5c0,0-8.89-11.41-11.37-2.45"/>
    <path class="cls-30" d="M200.38,507.67s-13.67,1.3-27.17-3.89c0,0-10.89-4.49-24.05-13.38,0,0,8.28,10.02,26.75,17.05,0,0,16.18,4.67,25.4,3.52,0,0-.53-1.59-.93-3.31Z"/>
    <path class="cls-19" d="M182.58,473.99s8.33-5.82,18.35-1.29c0,0,10.54-2.38,16.13,4.95,0,0-.16,7.26-17.19,5.88-7.28-.59-13.61-2.39-17.29-9.54Z"/>
    <path class="cls-15" d="M122.13,509.92s-42.69,16.72-54.74,66.45c-12.56,51.84-.28,106.13-.28,106.13,0,0,6.03,36.29-.64,100.74,0,0,130.21,66.72,212.7,9.19,0,0-1.95-16.41-6.12-32.03,0,0-7.25-61.89-6.31-114.16,0,0,30.08-12.36,40.08-65.14l-42.27-42.46s-23.05-21.65-60.27-24.98c0,0,19.6,27.07-13.07,34.54,0,0-49.47,11.2-69.07-38.27Z"/>
    <path class="cls-30" d="M188.04,403.33s-23.79-1.91-33.45,5.58c0,0,6.43-10.53,33.37-9.9,0,0,5.03,1.97,.08,4.32Z"/>
    <path class="cls-30" d="M248.96,409.73c-.17-1.06-10.81-4.95-21.16-6.67,0,0-5.14,1.02-.94,4.22,0,0,19.37,1.07,20.65,6.68,0,0,1.87-1.61,1.45-4.22Z"/>
    <path class="cls-14" d="M122.01,509.84s13.61,43.58,69.07,38.27c0,0,31.16-6.81,13.07-34.54,0,0,6.43-.07,8.66,1.41,0,0,19.43,34.13-20.6,41.18,0,0-44.61,4.52-65.74-22.17,0,0-8.46-11.15-11.42-20.41l6.96-3.74Z"/>
    <path class="cls-14" d="M66.35,680.23s108.57,49.32,200.93,5.3l-.83-21.02s-90.6,36.39-203.07-7.68l2.97,23.4Z"/>
    <path class="cls-14" d="M270.45,705.28s-88.6,49.57-202.28-3.76l.41,48.27s101.21,51.27,202.96,1.44l-1.09-45.95Z"/>
    <path class="cls-30" d="M92.21,426.29s-22.49-37.08,6.57-71.13c0,0,7.55-2.78,10.99-12.91,0,0,3.18-23.05,46.77-18.25,0,0,33.28-2.29,39.81-12.99,0,0,1.12,7.58,4.52,8.69,0,0,6.12-.33,6.59-6.12,0,0,1.49,8.45,7.34,11.42,5.85,2.97,44.94,20.3,34.31,76.04,0,0,.02-46.83-32.75-45.34,0,0-12.43,7.93-39.33-1.17-30.57-10.34-49.33,16.83-50.34,29.24s6.4,21.25-5.31,56.82c0,0-11.38-33.19-29.15-14.3Z"/>
    <g>
      <path class="cls-17" d="M164.37,420.37s.02-.57,.46-1.03c1.47-1.51,4.83-4.32,9.92-4.09,5.69,.25,8.59,5.74,9.58,7.69,.17,.34,.14,.63,.14,.63,0,0,0,.32-.2,.53-.96,1.01-4.11,3.83-9.51,3.67-3.21-.09-7.64-2.02-10.24-6.49-.18-.31-.18-.7-.16-.91Z"/>
      <circle class="cls-30" cx="176.07" cy="421.89" r="5.89"/>
      <circle class="cls-17" cx="172.25" cy="418.16" r="1.62"/>
      <path class="cls-12" d="M184.68,422.97s-6.33-13.89-20.07-3.68"/>
    </g>
    <g>
      <path class="cls-17" d="M223.64,426.1s-.06-.53,.28-1.01c1.14-1.6,3.82-4.64,8.52-5.15,5.26-.57,8.69,4.05,9.87,5.7,.2,.28,.22,.55,.22,.55,0,0,.05,.29-.1,.52-.73,1.06-3.23,4.09-8.2,4.71-2.96,.37-7.29-.77-10.3-4.51-.21-.26-.26-.62-.28-.81Z"/>
      <circle class="cls-30" cx="234.58" cy="425.83" r="5.45"/>
      <circle class="cls-17" cx="230.85" cy="423.6" r="1.53"/>
      <path class="cls-12" d="M242.41,425.81s-7.44-12.64-18.64-.49"/>
    </g>
    <path class="cls-17" d="M416.17,479.91s33.89,91.13,19.33,110.73c0,0-17.27,36.43,2.82,45.44s50.64-33.42,50.64-33.42c0,0,12.28-27.85,21.56-36.38,9.28-8.53-8.09-29.49-8.09-29.49-1.33,.52-31.48-54.32-28.83-69.09,0,0-34.37,9.04-57.43,12.21Z"/>
    <path class="cls-3" d="M266.73,646.25s-1.11-16.6-6.36-31.54"/>
    <path class="cls-21" d="M162.4,621.33s35.91,38.27,45.33,54.75c0,0,86.55-7.06,124.81-8.83,0,0,20.61-27.67,43.57-25.32,0,0,6.48,4.12-.59,8.83,0,0-15.31,5.89-2.94,9.42,12.36,3.53,26.49,2.35,38.27-8.24,0,0,9.51-3.5,7.6,3.82,0,0,7.01,5.73,0,11.78,0,0,2.23,7.01-5.73,12.74,0,0,3.18,9.55-11.78,14.33-14.97,4.78-25.8,3.18-25.8,3.18,0,0-21.34,5.73-38.54-2.23,0,0-66.88,30.89-116.89,42.68,0,0-28.03,6.69-53.51-15.29-25.48-21.98-46.82-37.26-60.51-60.2"/>
    <path class="cls-1" d="M418.45,655.77s-9.66,11.9-27.11,13.43"/>
    <path class="cls-1" d="M418.76,667.1s-9.66,11.9-27.11,13.43"/>
    <path class="cls-1" d="M412.72,680.29s-5.42,5.51-19.08,5.92"/>
    <path class="cls-1" d="M432.42,569.51s-5.57-.76-9.19-3.17"/>
    <path class="cls-3" d="M80.84,567.82s-33.6,17.09-5.89,70.73c27.7,53.64,34.78,40.67,34.78,40.67,0,0,53.64-22.4,66.61-54.82,0,0-28.88-59.53-70.14-63.66,0,0-11.2-.59-25.35,7.07Z"/>
    <rect class="cls-21" x="471.34" y="505.6" width="20.87" height="13.22" rx="4.65" ry="4.65" transform="translate(-152.42 208.47) rotate(-21.16)"/>
    <rect class="cls-21" x="474.67" y="518.48" width="20.87" height="13.22" rx="4.65" ry="4.65" transform="translate(-156.85 210.54) rotate(-21.16)"/>
    <rect class="cls-21" x="467.26" y="492.88" width="20.87" height="13.22" rx="4.65" ry="4.65" transform="translate(-148.11 206.13) rotate(-21.16)"/>
    <path class="cls-2" d="M182.58,473.99s18.29,3.45,34.48,3.66"/>
  </g>
  <g>
    <path class="cls-15" d="M628.47,993.37s-71.82-71.56-121.68-74.33c-49.86-2.77-144.04,26.32-144.04,26.32l-80.51,46.78,346.24,1.23Z"/>
    <rect class="cls-28" x="245.95" y="992.48" width="494.93" height="45.37" rx="16.07" ry="16.07"/>
    <path class="cls-28" d="M268.63,1037.85l19.47,127.93s89.36,55.18,174.41,74.19c0,0,80.64,26.71,215.29,15.02,7.04-.61,11.55-11.04,14.1-23.36l26.29-193.77"/>
    <path class="cls-13" d="M377.28,1211.58l-15.69-30.13c-1.92-3.7-6.48-5.13-10.17-3.21l-10.28,5.36c-3.7,1.92-5.13,6.48-3.21,10.17,0,0,20.91,10.77,39.36,17.81Z"/>
    <rect class="cls-13" x="401.34" y="1190.55" width="52.94" height="26.68" rx="7.54" ry="7.54" transform="translate(1298.03 268.42) rotate(62.49)"/>
    <rect class="cls-26" x="465.16" y="1191.06" width="52.94" height="26.68" rx="7.54" ry="7.54" transform="translate(1332.82 212.09) rotate(62.49)"/>
    <rect class="cls-26" x="531.45" y="1191.06" width="52.94" height="26.68" rx="7.54" ry="7.54" transform="translate(1368.49 153.3) rotate(62.49)"/>
    <rect class="cls-26" x="595.41" y="1191.06" width="52.94" height="26.68" rx="7.54" ry="7.54" transform="translate(1402.92 96.57) rotate(62.49)"/>
    <rect class="cls-24" x="362.14" y="1079.84" width="52.94" height="26.68" rx="7.54" ry="7.54" transform="translate(1178.74 243.62) rotate(62.49)"/>
    <rect class="cls-24" x="295.25" y="1079.84" width="52.94" height="26.68" rx="7.54" ry="7.54" transform="translate(1142.74 302.94) rotate(62.49)"/>
    <rect class="cls-24" x="431.46" y="1079.84" width="52.94" height="26.68" rx="7.54" ry="7.54" transform="translate(1216.04 182.13) rotate(62.49)"/>
    <rect class="cls-18" x="495.27" y="1079.84" width="52.94" height="26.68" rx="7.54" ry="7.54" transform="translate(1250.39 125.53) rotate(62.49)"/>
    <rect class="cls-18" x="561.56" y="1079.84" width="52.94" height="26.68" rx="7.54" ry="7.54" transform="translate(1286.06 66.74) rotate(62.49)"/>
    <rect class="cls-18" x="625.52" y="1079.84" width="52.94" height="26.68" rx="7.54" ry="7.54" transform="translate(1320.48 10.01) rotate(62.49)"/>
    <rect class="cls-18" x="610.26" y="1138.16" width="52.94" height="26.68" rx="7.54" ry="7.54" transform="translate(1363.99 54.93) rotate(62.49)"/>
    <rect class="cls-24" x="349.59" y="1138.14" width="52.94" height="26.68" rx="7.54" ry="7.54" transform="translate(1223.7 286.12) rotate(62.49)"/>
    <rect class="cls-24" x="413.41" y="1138.14" width="52.94" height="26.68" rx="7.54" ry="7.54" transform="translate(1258.04 229.51) rotate(62.49)"/>
    <rect class="cls-24" x="479.7" y="1138.14" width="52.94" height="26.68" rx="7.54" ry="7.54" transform="translate(1293.71 170.72) rotate(62.49)"/>
    <rect class="cls-24" x="543.66" y="1138.14" width="52.94" height="26.68" rx="7.54" ry="7.54" transform="translate(1328.13 113.99) rotate(62.49)"/>
    <path class="cls-24" d="M265.82,992.22s51.82-49.46,101.68-52.23c49.86-2.77,144.04,26.32,144.04,26.32l107.16,26.42-352.88-.51Z"/>
    <path class="cls-18" d="M716.55,992.5s-51.47-49.74-101.33-52.51c-49.86-2.77-144.04,26.32-144.04,26.32l-93.09,26.58,338.46-.39Z"/>
    <line class="cls-4" x1="284.28" y1="1036.59" x2="698.03" y2="1036.59"/>
  </g>
</svg>