<?xml version="1.0" encoding="UTF-8"?>
<svg id="Layer_1" data-name="Layer 1" xmlns="http://www.w3.org/2000/svg" viewBox="0 0 1220 1220">
  <defs>
    <style>
      .cls-1 {
        fill: #f6ac1b;
      }

      .cls-2, .cls-3 {
        fill: #fff;
      }

      .cls-4 {
        fill: #803435;
      }

      .cls-5, .cls-6 {
        fill: #be9e7d;
      }

      .cls-7 {
        fill: #bf6b6b;
      }

      .cls-8 {
        fill: #c4e7f6;
      }

      .cls-9 {
        fill: #dc3b28;
      }

      .cls-10 {
        fill: #517569;
      }

      .cls-11 {
        fill: #26130f;
      }

      .cls-3 {
        stroke: #939598;
      }

      .cls-3, .cls-12 {
        stroke-width: 2px;
      }

      .cls-3, .cls-12, .cls-13, .cls-14, .cls-6 {
        stroke-miterlimit: 10;
      }

      .cls-12 {
        stroke: #231f20;
      }

      .cls-12, .cls-13, .cls-14 {
        fill: none;
      }

      .cls-13 {
        stroke: #fbb040;
      }

      .cls-13, .cls-14 {
        stroke-width: 4px;
      }

      .cls-14 {
        stroke: #dc3b28;
      }

      .cls-6 {
        stroke: #8b5e3c;
        stroke-width: 1.5px;
      }
    </style>
  </defs>
  <circle class="cls-8" cx="610" cy="610" r="610"/>
  <g>
    <path class="cls-5" d="M587.04,739.78s-3.54,14.67-13.32,99.9c0,0-84.59-11.5-161.84-20.99,0,0-19.41-61.28-40.67-77.66-21.26-16.38-37.58-46.79-39.06-15.12l4.72,20.37s-36.62-41.5-70.88-50.01c0,0-32.59-22.07-37.9-11.54-5.31,10.54-8.51,17.03,65.64,66.58,0,0-83.01-55.8-88.14-40.08s74.6,71.99,74.6,71.99c0,0-75.95-60.96-81.93-38.46-5.97,22.5,48.06,46.35,48.06,46.35,0,0-33.69-19.63-37.9-11.54-4.2,8.09,13.41,21.44,79.4,78.6,0,0,58.28,49.38,95.43,53.94,0,0,248.19,110.48,443.42,125.61,0,0,58.31-11.24,84.03-53.61,31.71-52.24,44.58-67.12,91.81-184.31,0,0-371.48-72.17-415.49-60.03Z"/>
    <path class="cls-5" d="M874.87,346.09s20.7,74.64,89.49,79.33c0,0-16.23,269.47-197.69,295.72,0,0-139.9-21.26-77.4-206.48,0,0,25.57-22.37,25.23-45.3"/>
    <path class="cls-5" d="M885.75,290.72s-13.56-170.28-166.49-176.6c0,0-108.69,4.49-95.88,157.72,0,0,6.93,24.39,3.29,37.62,0,0-7.17,33.95,10.46,64.94,26.4,46.41,51.64,79.42,51.64,79.42,0,0,15.66,22.04,53.64,21.03,0,0,26.64-1.79,59.76-24.89,0,0,84.34-42.35,78-92.63,0,0,38.49,23.53,52.94-36.8,0,0,11.4-83.19-47.37-29.83Z"/>
    <path class="cls-11" d="M743.78,243.9s50.89-19.08,75.66-3.44c0,0-19.24-26.11-77.64-8.84,0,0-9.98,8.47,1.98,12.28Z"/>
    <path class="cls-11" d="M618.75,237c1.11-2.74,27.48-3.57,51.67,1.24,0,0,10.71,7.53-.86,12.41,0,0-43.78-14.94-50.55-.77,0,0-3.02-6.14-.26-12.89Z"/>
    <path class="cls-12" d="M688.48,318.18s-19.74,32.43,17.34,34.47"/>
    <path class="cls-12" d="M927.29,303.9s-14.96-34.81-39.57,23.4c0,0,21.95-26.2,27.04-4.83"/>
    <path class="cls-11" d="M713.99,469.31s12.22,10.29,52.3-5.86c0,0,35.07-13.53,63.13-38.29,0,0-35.09,42.69-84.81,51.13,0,0-13.15,4.58-32.34-1.31,0,0,2.87-.44,1.72-5.68Z"/>
    <path class="cls-7" d="M781.56,375.2s-25.34-6.58-54.72,3.23c0,0-25.96-3.97-48.87,2.22,0,0,4.46,41.4,43.83,48.82,39.37,7.41,61.6-30.05,59.76-54.27Z"/>
    <path class="cls-4" d="M775.44,378.43s2.04,36.73-45.73,38.9c-43.38,1.97-45.21-30.71-45.21-30.71,0,0,48.97-.02,90.94-8.19Z"/>
    <path class="cls-2" d="M769.54,379.22s-11.06,17.55-48.11,17.45c0,0-22.75,2.18-32.85-9.51,0,0,47.69-1.13,80.97-7.94Z"/>
    <path class="cls-12" d="M759.55,276.78s13.43-26.89,39.74-5.83"/>
    <path class="cls-12" d="M631.62,281.77s15.75-24.69,37.22,.36"/>
    <path class="cls-2" d="M677.59,1216.27s34.33-172.61,1.5-282.84c0,0-33.05-35.24-44.22-119.56l-51.94-76.58,12.63-111.77s4.91-54.05,55.25-97.54c0,0,17.1-8.55,39.89-14.25,0,0,.06,37.83,13.43,72.72,0,0,74.95,59.92,177.94,3.98,0,0,41.6-30.68,49.59-133.5,0,0,63.77,4.54,123.33,41.96,111,69.73,94.15,219.99,94.15,219.99,0,0,12.29,67.94,20.6,134.03,0,0-53.71,136.48-172.15,229.04,0,0-132.49,118.14-320,134.32Z"/>
    <path class="cls-14" d="M954.55,462.01s-7.42,71.56-44.5,133.5c0,0-62.3,83.92-214.88,10.17,0,0-22.28-42.09-15.26-87.73"/>
    <g>
      <circle class="cls-9" cx="759.81" cy="740.18" r="13.63"/>
      <circle class="cls-9" cx="773.53" cy="763.16" r="13.63"/>
      <circle class="cls-9" cx="774.93" cy="788.58" r="13.63"/>
      <circle class="cls-9" cx="751.3" cy="768.92" r="13.63"/>
      <circle class="cls-9" cx="800.19" cy="770.66" r="13.63"/>
      <circle class="cls-9" cx="788.64" cy="744.19" r="13.63"/>
    </g>
    <g>
      <circle class="cls-9" cx="676.22" cy="731.21" r="13.63"/>
      <circle class="cls-9" cx="689.95" cy="754.2" r="13.63"/>
      <circle class="cls-9" cx="691.35" cy="779.61" r="13.63"/>
      <circle class="cls-9" cx="667.72" cy="759.96" r="13.63"/>
      <circle class="cls-9" cx="716.61" cy="761.7" r="13.63"/>
      <circle class="cls-9" cx="705.06" cy="735.23" r="13.63"/>
    </g>
    <g>
      <circle class="cls-9" cx="843.16" cy="730.73" r="13.63"/>
      <circle class="cls-9" cx="856.88" cy="753.72" r="13.63"/>
      <circle class="cls-9" cx="858.28" cy="779.13" r="13.63"/>
      <circle class="cls-9" cx="834.65" cy="759.48" r="13.63"/>
      <circle class="cls-9" cx="883.54" cy="761.21" r="13.63"/>
      <circle class="cls-9" cx="871.99" cy="734.75" r="13.63"/>
    </g>
    <g>
      <circle class="cls-9" cx="921.48" cy="696.53" r="13.63"/>
      <circle class="cls-9" cx="935.2" cy="719.52" r="13.63"/>
      <circle class="cls-9" cx="936.61" cy="744.93" r="13.63"/>
      <circle class="cls-9" cx="912.98" cy="725.28" r="13.63"/>
      <circle class="cls-9" cx="961.86" cy="727.02" r="13.63"/>
      <circle class="cls-9" cx="950.31" cy="700.55" r="13.63"/>
    </g>
    <g>
      <circle class="cls-9" cx="958.38" cy="648.15" r="10.19"/>
      <circle class="cls-9" cx="972.43" cy="662.41" r="10.19"/>
      <circle class="cls-9" cx="977.96" cy="680.62" r="10.19"/>
      <circle class="cls-9" cx="957.31" cy="670.54" r="10.19"/>
      <circle class="cls-9" cx="993.13" cy="663.12" r="10.19"/>
      <circle class="cls-9" cx="980.04" cy="645.95" r="10.19"/>
    </g>
    <g>
      <circle class="cls-10" cx="922.99" cy="646.12" r="7.33"/>
      <circle class="cls-10" cx="923.72" cy="660.49" r="7.33"/>
      <circle class="cls-10" cx="917.98" cy="672.91" r="7.33"/>
      <circle class="cls-10" cx="911.71" cy="657.63" r="7.33"/>
      <circle class="cls-10" cx="934.49" cy="670.76" r="7.33"/>
      <circle class="cls-10" cx="935.67" cy="655.29" r="7.33"/>
    </g>
    <g>
      <circle class="cls-10" cx="881.45" cy="682.97" r="7.33"/>
      <circle class="cls-10" cx="882.18" cy="697.35" r="7.33"/>
      <circle class="cls-10" cx="876.44" cy="709.76" r="7.33"/>
      <circle class="cls-10" cx="870.17" cy="694.48" r="7.33"/>
      <circle class="cls-10" cx="892.95" cy="707.62" r="7.33"/>
      <circle class="cls-10" cx="894.13" cy="692.14" r="7.33"/>
    </g>
    <g>
      <circle class="cls-10" cx="911.14" cy="773.62" r="7.33"/>
      <circle class="cls-10" cx="911.86" cy="787.99" r="7.33"/>
      <circle class="cls-10" cx="906.13" cy="800.41" r="7.33"/>
      <circle class="cls-10" cx="899.86" cy="785.12" r="7.33"/>
      <circle class="cls-10" cx="922.63" cy="798.26" r="7.33"/>
      <circle class="cls-10" cx="923.81" cy="782.79" r="7.33"/>
    </g>
    <g>
      <circle class="cls-10" cx="821.42" cy="794.55" r="7.33"/>
      <circle class="cls-10" cx="822.14" cy="808.92" r="7.33"/>
      <circle class="cls-10" cx="816.41" cy="821.34" r="7.33"/>
      <circle class="cls-10" cx="810.14" cy="806.06" r="7.33"/>
      <circle class="cls-10" cx="832.91" cy="819.19" r="7.33"/>
      <circle class="cls-10" cx="834.1" cy="803.72" r="7.33"/>
    </g>
    <g>
      <circle class="cls-10" cx="732.81" cy="798.51" r="7.33"/>
      <circle class="cls-10" cx="733.54" cy="812.88" r="7.33"/>
      <circle class="cls-10" cx="727.81" cy="825.3" r="7.33"/>
      <circle class="cls-10" cx="721.54" cy="810.02" r="7.33"/>
      <circle class="cls-10" cx="744.31" cy="823.16" r="7.33"/>
      <circle class="cls-10" cx="745.49" cy="807.68" r="7.33"/>
    </g>
    <g>
      <circle class="cls-10" cx="999.35" cy="726.16" r="7.33"/>
      <circle class="cls-10" cx="1000.07" cy="740.54" r="7.33"/>
      <circle class="cls-10" cx="994.34" cy="752.95" r="7.33"/>
      <circle class="cls-10" cx="988.07" cy="737.67" r="7.33"/>
      <circle class="cls-10" cx="1010.84" cy="750.81" r="7.33"/>
      <circle class="cls-10" cx="1012.03" cy="735.33" r="7.33"/>
    </g>
    <g>
      <circle class="cls-10" cx="813.88" cy="701.5" r="7.33"/>
      <circle class="cls-10" cx="809.53" cy="715.22" r="7.33"/>
      <circle class="cls-10" cx="799.81" cy="724.84" r="7.33"/>
      <circle class="cls-10" cx="799.29" cy="708.33" r="7.33"/>
      <circle class="cls-10" cx="816.03" cy="728.61" r="7.33"/>
      <circle class="cls-10" cx="822.55" cy="714.53" r="7.33"/>
    </g>
    <g>
      <circle class="cls-10" cx="729.01" cy="700.64" r="7.33"/>
      <circle class="cls-10" cx="733.81" cy="714.21" r="7.33"/>
      <circle class="cls-10" cx="731.86" cy="727.75" r="7.33"/>
      <circle class="cls-10" cx="721.49" cy="714.89" r="7.33"/>
      <circle class="cls-10" cx="747.06" cy="720.98" r="7.33"/>
      <circle class="cls-10" cx="743.78" cy="705.81" r="7.33"/>
    </g>
    <g>
      <circle class="cls-10" cx="675.66" cy="680.63" r="7.33"/>
      <circle class="cls-10" cx="677.7" cy="694.88" r="7.33"/>
      <circle class="cls-10" cx="673.12" cy="707.77" r="7.33"/>
      <circle class="cls-10" cx="665.48" cy="693.12" r="7.33"/>
      <circle class="cls-10" cx="689.36" cy="704.13" r="7.33"/>
      <circle class="cls-10" cx="689.13" cy="688.61" r="7.33"/>
    </g>
    <path class="cls-11" d="M689.18,136.47s103.91,175.21,243.24,171.32c0,0-13.27,60.59-55.16,49.28,0,0,4.08,84.32,58.18,106.61,0,0,31.73,20.05,77.39-13.67,53.05-39.17,61.05-100.77,20.26-165.37,0,0-69.77-61.02-113.86-154.45,0,0-96.19-133.18-228.58-54.42,0,0-82.7-10.47-111.1,60.4-16.43,40.99-.5,132.01,4.87,191.52,0,0-35.34,167.26,106.27,186.04,0,0,25.95-12.74,23.79-44.37,0,0-18.98-.08-35.57-29.81-16.59-29.72-25.25-35.48-41.8-65.13,0,0-17.93-29.59-9.59-69.68,0,0,2.49-21.01-4.16-32.88,0,0-12.88-86.92,65.81-135.38"/>
    <path class="cls-13" d="M891.95,345.11s12.71,17.5,.58,29.13c-12.13,11.63-6.77-15.61-6.77-15.61"/>
    <path class="cls-6" d="M896.81,709.96s-37.83,104.42-72.64,211.87c0,0-295.18-44.6-372.43-54.08,0,0-19.41-61.28-40.67-77.66-21.26-16.38-37.58-46.79-39.06-15.12l4.72,20.37s-36.62-41.5-70.88-50.01c0,0-32.59-22.07-37.9-11.54-5.31,10.54-8.51,17.03,65.64,66.58,0,0-83.01-55.8-88.14-40.08-5.14,15.72,74.6,71.99,74.6,71.99,0,0-75.95-60.96-81.93-38.46-5.97,22.5,48.06,46.35,48.06,46.35,0,0-33.69-19.63-37.9-11.54-4.2,8.09,13.41,21.44,79.4,78.6,0,0,58.28,49.38,95.43,53.94,0,0,248.19,110.48,443.42,125.61,0,0,58.31-11.24,84.03-53.61,31.71-52.24,44.58-67.12,91.81-184.31,0,0-73.84-149.73-145.58-138.91Z"/>
    <path class="cls-3" d="M957.4,555.48s-67.61,54.33-66.48,167.11c0,0,79.42-17.82,151.47,126.27,0,0,54.48-53.51,65.94-100.2"/>
    <path class="cls-3" d="M634.86,813.86s-9.12-56.26-1.08-92.43"/>
  </g>
  <polygon class="cls-1" points="317.8 518.49 326.03 518.85 319.09 670.86 317.8 518.49"/>
  <polygon class="cls-1" points="235.94 512.66 244.14 511.84 258.91 663.3 235.94 512.66"/>
  <polygon class="cls-1" points="148.41 533.89 156.2 531.22 205.2 675.29 148.41 533.89"/>
  <polygon class="cls-1" points="51.33 611.67 57.15 605.84 164.7 713.5 51.33 611.67"/>
  <polygon class="cls-1" points="2.56 724.92 5.21 717.11 149.22 766.27 2.56 724.92"/>
  <polygon class="cls-1" points="22.86 867.18 20.93 859.16 168.96 823.89 22.86 867.18"/>
</svg>