<?xml version="1.0" encoding="UTF-8"?>
<svg id="Layer_1" data-name="Layer 1" xmlns="http://www.w3.org/2000/svg" viewBox="0 0 1220.51 1220.05">
  <defs>
    <style>
      .cls-1 {
        stroke-width: 1.5px;
      }

      .cls-1, .cls-2, .cls-3, .cls-4, .cls-5, .cls-6, .cls-7, .cls-8, .cls-9, .cls-10, .cls-11, .cls-12 {
        stroke-miterlimit: 10;
      }

      .cls-1, .cls-2, .cls-3, .cls-8, .cls-9, .cls-10, .cls-11, .cls-12 {
        fill: none;
      }

      .cls-1, .cls-4, .cls-6, .cls-10 {
        stroke: #231f20;
      }

      .cls-2 {
        stroke: #fbb040;
      }

      .cls-2, .cls-3 {
        stroke-width: 3px;
      }

      .cls-3 {
        stroke: #dc3b28;
      }

      .cls-13 {
        fill: #f6ac1b;
      }

      .cls-14, .cls-5, .cls-6 {
        fill: #fff;
      }

      .cls-15 {
        fill: #fbb040;
      }

      .cls-16 {
        fill: #803435;
      }

      .cls-17 {
        fill: #8b5e3c;
      }

      .cls-18, .cls-7 {
        fill: #9054a2;
      }

      .cls-19 {
        fill: #bd9154;
      }

      .cls-20 {
        fill: #be9e7d;
      }

      .cls-21 {
        fill: #be8c8c;
      }

      .cls-22 {
        fill: #bf6b6b;
      }

      .cls-23 {
        fill: #c4e7f6;
      }

      .cls-24 {
        fill: #dcbf97;
      }

      .cls-25 {
        fill: #dc3b28;
      }

      .cls-26 {
        fill: #231f20;
      }

      .cls-27 {
        fill: #1fa8df;
      }

      .cls-28, .cls-4 {
        fill: #9c2024;
      }

      .cls-29 {
        fill: #517569;
      }

      .cls-30 {
        fill: #26130f;
      }

      .cls-4, .cls-8 {
        stroke-width: 2px;
      }

      .cls-5, .cls-12 {
        stroke: #fff;
        stroke-width: .5px;
      }

      .cls-7 {
        stroke: #662d91;
      }

      .cls-8 {
        stroke: #a579b5;
      }

      .cls-9 {
        stroke: #75308e;
        stroke-width: 4px;
      }

      .cls-11 {
        stroke: #603913;
      }
    </style>
  </defs>
  <circle class="cls-23" cx="610.15" cy="610" r="610"/>
  <path class="cls-19" d="M80.79,913.33c56.65,96.84,112.72,142.25,112.72,142.25h833.23s57.66-47.1,112.72-142.25"/>
  <line class="cls-13" x1="80.79" y1="913.33" x2="1139.46" y2="913.34"/>
  <path class="cls-17" d="M1026.74,1055.58c-108.96,101.59-255.68,164.47-416.41,164.47s-307.86-62.84-416.83-164.47"/>
  <g>
    <path class="cls-20" d="M922.19,694.13l-86.95,95.04c-.07,.08-.15,.16-.23,.23-38.98,36.64-79.34,1.8-79.34,1.8,0,0-42.94-31.42-83.98-98.27-23.18-37.77-37.83-73.94-41.07-82.22-.42-1.08-1.31-1.9-2.42-2.24-15.31-4.72-14.72-18.55-14.72-18.55v-132.95c0-2.16,1.8-4,3.95-3.81,1.56,.14,3.25,1.35,4.37,5.13,.08,.27,.15,.53,.23,.78,.9,3.09,4.98,3.72,6.8,1.07s3.76-4.41,5.61-3.41c4.05,2.18,3.89,13.36,3.82,15.55,0,.26,0,.5,.05,.76,.57,3.26,4.48,26.2,3.8,33.95-.04,.45,.02,.9,.14,1.34l1.5,5.27c.21,.73,.66,1.34,1.24,1.83,1.06,.88,2.65,3.17,2.07,8.78-.09,.84,.1,1.69,.55,2.4,1.18,1.86,3.33,6.25,2.73,12.82-.8,8.78,4.36,27.2,5.1,29.79,.06,.22,.14,.42,.24,.63,1.57,3.18,16.06,30.28,81.24,93.31l38.54,37.53c1.7,1.65,4.48,1.37,5.81-.59,26.64-39.1,44.02-70,49.61-80.24,1.07-1.95,3.57-2.57,5.44-1.35l108.95,71.65"/>
    <path class="cls-20" d="M1042.22,396.05s-4.75,71.66,39.5,74.68c0,0,7.63,149.73-109.12,166.61,0,0-90-13.68-49.79-132.84,0,0,8.3-7.92,8.08-22.68"/>
    <path class="cls-20" d="M1029.24,358.14s-16.03-108.72-114.47-106.2c0,0-69.58,7.56-54.76,105.37,0,0,5.5,15.36,3.73,24.01,0,0-3.14,22.1,9.51,41.24,18.94,28.65,36.57,48.76,36.57,48.76,0,0,11,13.47,35.34,11.19,0,0,17.03-2.3,37.29-18.55,0,0,52.32-30.81,46.09-62.81,0,0,25.72,13.45,32.4-25.9,0,0,3.74-53.89-31.69-17.11Z"/>
    <path class="cls-30" d="M936.1,334.19s31.85-14.44,48.42-5.47c0,0-13.48-15.93-50.22-2.33,0,0-6.04,5.87,1.8,7.8Z"/>
    <path class="cls-30" d="M855.54,335.14c.6-1.8,17.49-3.48,33.22-1.42,0,0,7.2,4.38-.02,8,0,0-28.74-7.71-32.48,1.68,0,0-2.2-3.81-.72-8.26Z"/>
    <path class="cls-10" d="M903.8,384.25s-11.28,21.67,12.61,21.38"/>
    <path class="cls-10" d="M1056.47,364.81s-11.1-21.7-24.39,16.73c0,0,12.96-17.76,17.15-4.26"/>
    <path class="cls-30" d="M930.9,481.82s8.28,6.08,33.32-6.01c0,0,21.93-10.19,38.88-27.29,0,0-20.69,28.91-52.24,36.47,0,0-8.25,3.5-20.82,.55,0,0,1.83-.41,.86-3.72Z"/>
    <path class="cls-22" d="M965.99,416.85s-16.55-3.13-34.98,4.43c0,0-16.83-1.43-31.27,3.53,0,0,4.65,26.39,30.23,29.45,25.59,3.07,38.25-21.94,36.02-37.41Z"/>
    <path class="cls-16" d="M962.21,419.18s2.89,23.49-27.68,26.94c-27.76,3.13-30.34-17.77-30.34-17.77,0,0,31.43-2.12,58.02-9.17Z"/>
    <path class="cls-14" d="M958.46,419.95s-6.35,11.74-30.13,13.27c0,0-14.51,2.38-21.5-4.69,0,0,30.56-2.78,51.63-8.58Z"/>
    <path class="cls-1" d="M947.63,354.62s7.46-17.84,25.26-5.45"/>
    <path class="cls-1" d="M865.73,363.32s9.05-16.53,23.91-1.37"/>
    <path class="cls-14" d="M1205.81,798.78l-34.49-126.66c43.61-41.05,49.11-50.45,49.11-50.45,0,0,4.95-101.18-62.26-127.35-42.17-16.42-76.41-26.89-76.41-26.89-5.14,66.15-11.5,74.72-11.5,74.72-71.97,54.1-137.87,8.54-137.87,8.54-8.61-22.45-8.64-46.79-8.64-46.79-14.67,3.67-25.67,9.17-25.67,9.17-33,24.24-48.85,64.58-48.85,64.58l-26.89,48.98,40.44,66.29c7.19,54.25,35.09,82.49,35.09,82.49,21.12,70.91-1.26,140.02-1.26,140.02l242.85-2.1"/>
    <path class="cls-3" d="M1093.9,472.53s1.8,42.83-9.31,78.32c0,0-82.67,63.26-158.87,11.86,0,0-12.63-26.55-8.12-55.91"/>
    <path class="cls-3" d="M899.47,776.54s121.31,41.07,242.56-43.15c0,0,18.1-17.73,30.5-34.25"/>
    <g>
      <circle class="cls-25" cx="968.2" cy="649.59" r="8.77"/>
      <circle class="cls-25" cx="977.03" cy="664.38" r="8.77"/>
      <circle class="cls-25" cx="977.93" cy="680.73" r="8.77"/>
      <circle class="cls-25" cx="962.73" cy="668.08" r="8.77"/>
      <circle class="cls-25" cx="994.18" cy="669.2" r="8.77"/>
      <circle class="cls-25" cx="986.75" cy="652.17" r="8.77"/>
    </g>
    <g>
      <circle class="cls-25" cx="914.42" cy="643.82" r="8.77"/>
      <circle class="cls-25" cx="923.25" cy="658.61" r="8.77"/>
      <circle class="cls-25" cx="924.16" cy="674.96" r="8.77"/>
      <circle class="cls-25" cx="908.95" cy="662.32" r="8.77"/>
      <circle class="cls-25" cx="940.4" cy="663.43" r="8.77"/>
      <circle class="cls-25" cx="932.97" cy="646.41" r="8.77"/>
    </g>
    <g>
      <circle class="cls-25" cx="1021.82" cy="643.51" r="8.77"/>
      <circle class="cls-25" cx="1030.65" cy="658.3" r="8.77"/>
      <circle class="cls-25" cx="1031.55" cy="674.65" r="8.77"/>
      <circle class="cls-25" cx="1016.35" cy="662.01" r="8.77"/>
      <circle class="cls-25" cx="1047.8" cy="663.12" r="8.77"/>
      <circle class="cls-25" cx="1040.37" cy="646.1" r="8.77"/>
    </g>
    <g>
      <circle class="cls-25" cx="1067.64" cy="622.92" r="8.77"/>
      <circle class="cls-25" cx="1076.47" cy="637.7" r="8.77"/>
      <circle class="cls-25" cx="1077.37" cy="654.05" r="8.77"/>
      <circle class="cls-25" cx="1062.17" cy="641.41" r="8.77"/>
      <circle class="cls-25" cx="1093.62" cy="642.53" r="8.77"/>
      <circle class="cls-25" cx="1086.19" cy="625.5" r="8.77"/>
    </g>
    <g>
      <circle class="cls-25" cx="877.18" cy="623.58" r="6.56"/>
      <circle class="cls-25" cx="886.21" cy="632.76" r="6.56"/>
      <circle class="cls-25" cx="889.77" cy="644.48" r="6.56"/>
      <circle class="cls-25" cx="876.48" cy="637.99" r="6.56"/>
      <circle class="cls-25" cx="899.53" cy="633.22" r="6.56"/>
      <circle class="cls-25" cx="891.11" cy="622.17" r="6.56"/>
    </g>
    <g>
      <circle class="cls-29" cx="1073.18" cy="589.08" r="4.71"/>
      <circle class="cls-29" cx="1073.65" cy="598.32" r="4.71"/>
      <circle class="cls-29" cx="1069.96" cy="606.31" r="4.71"/>
      <circle class="cls-29" cx="1065.93" cy="596.48" r="4.71"/>
      <circle class="cls-29" cx="1080.58" cy="604.93" r="4.71"/>
      <circle class="cls-29" cx="1081.34" cy="594.98" r="4.71"/>
    </g>
    <g>
      <circle class="cls-29" cx="1046.46" cy="612.79" r="4.71"/>
      <circle class="cls-29" cx="1046.93" cy="622.03" r="4.71"/>
      <circle class="cls-29" cx="1043.24" cy="630.02" r="4.71"/>
      <circle class="cls-29" cx="1039.2" cy="620.19" r="4.71"/>
      <circle class="cls-29" cx="1053.86" cy="628.64" r="4.71"/>
      <circle class="cls-29" cx="1054.62" cy="618.69" r="4.71"/>
    </g>
    <g>
      <circle class="cls-29" cx="1065.56" cy="671.1" r="4.71"/>
      <circle class="cls-29" cx="1066.02" cy="680.35" r="4.71"/>
      <circle class="cls-29" cx="1062.33" cy="688.34" r="4.71"/>
      <circle class="cls-29" cx="1058.3" cy="678.51" r="4.71"/>
      <circle class="cls-29" cx="1072.95" cy="686.96" r="4.71"/>
      <circle class="cls-29" cx="1073.71" cy="677" r="4.71"/>
    </g>
    <g>
      <circle class="cls-29" cx="1007.84" cy="684.57" r="4.71"/>
      <circle class="cls-29" cx="1008.3" cy="693.82" r="4.71"/>
      <circle class="cls-29" cx="1004.61" cy="701.8" r="4.71"/>
      <circle class="cls-29" cx="1000.58" cy="691.97" r="4.71"/>
      <circle class="cls-29" cx="1015.23" cy="700.42" r="4.71"/>
      <circle class="cls-29" cx="1015.99" cy="690.47" r="4.71"/>
    </g>
    <g>
      <circle class="cls-29" cx="950.83" cy="687.12" r="4.71"/>
      <circle class="cls-29" cx="951.3" cy="696.37" r="4.71"/>
      <circle class="cls-29" cx="947.61" cy="704.36" r="4.71"/>
      <circle class="cls-29" cx="943.58" cy="694.52" r="4.71"/>
      <circle class="cls-29" cx="958.23" cy="702.97" r="4.71"/>
      <circle class="cls-29" cx="958.99" cy="693.02" r="4.71"/>
    </g>
    <g>
      <circle class="cls-29" cx="886.76" cy="670.08" r="4.71"/>
      <circle class="cls-29" cx="887.23" cy="679.32" r="4.71"/>
      <circle class="cls-29" cx="883.54" cy="687.31" r="4.71"/>
      <circle class="cls-29" cx="879.51" cy="677.48" r="4.71"/>
      <circle class="cls-29" cx="894.16" cy="685.93" r="4.71"/>
      <circle class="cls-29" cx="894.92" cy="675.98" r="4.71"/>
    </g>
    <g>
      <circle class="cls-29" cx="1002.99" cy="624.71" r="4.71"/>
      <circle class="cls-29" cx="1000.19" cy="633.53" r="4.71"/>
      <circle class="cls-29" cx="993.94" cy="639.73" r="4.71"/>
      <circle class="cls-29" cx="993.6" cy="629.1" r="4.71"/>
      <circle class="cls-29" cx="1004.37" cy="642.15" r="4.71"/>
      <circle class="cls-29" cx="1008.56" cy="633.09" r="4.71"/>
    </g>
    <g>
      <circle class="cls-29" cx="948.38" cy="624.15" r="4.71"/>
      <circle class="cls-29" cx="951.47" cy="632.88" r="4.71"/>
      <circle class="cls-29" cx="950.22" cy="641.59" r="4.71"/>
      <circle class="cls-29" cx="943.54" cy="633.32" r="4.71"/>
      <circle class="cls-29" cx="960" cy="637.24" r="4.71"/>
      <circle class="cls-29" cx="957.89" cy="627.48" r="4.71"/>
    </g>
    <g>
      <circle class="cls-29" cx="914.07" cy="611.28" r="4.71"/>
      <circle class="cls-29" cx="915.37" cy="620.45" r="4.71"/>
      <circle class="cls-29" cx="912.43" cy="628.74" r="4.71"/>
      <circle class="cls-29" cx="907.51" cy="619.32" r="4.71"/>
      <circle class="cls-29" cx="922.88" cy="626.4" r="4.71"/>
      <circle class="cls-29" cx="922.73" cy="616.41" r="4.71"/>
    </g>
    <path class="cls-30" d="M896.43,267.58s74.24,108,163.51,99.51c0,0-5.91,39.47-33.29,34,0,0,3.92,58.01,39.61,69.98,0,0,23.55,7.45,51.41-16.16,32.37-27.43,34.85-67.31,5.89-107.02,0,0-47.41-36.17-79.73-94.25,0,0-67.47-81.35-149.07-25.1,0,0-53.53-3.16-68.71,43.55-8.78,27.02,5.36,84.76,11.36,122.73,0,0-1.66,97.69,90.05,103.66,0,0,4.83-5.28,5.21-16.39,0,0-17.86-1.16-29.79-19.53-11.93-18.37-17.74-21.69-29.63-40.01,0,0-12.78-18.22-9.16-44.32,0,0,.7-13.59-4.08-20.93,0,0-12.01-55.24,36.42-89.73"/>
    <path class="cls-2" d="M1035.56,392.79s8.91,10.69,1.62,18.67c-7.29,7.99-5.02-9.73-5.02-9.73"/>
    <path class="cls-20" d="M1216.06,628.2s2.21,166.18-3.17,203.86c-5.57,38.96-24.22,46.43-70.65,59.67-49.68,14.18-218.33,27.1-218.33,27.1,0,0-41.82,14.24-72.48,5.55,0,0,1.93,15.86-6.97,17.13,0,0-4.62,.34-13.34-12.98,0,0-7.62,8.15-15.13-11.92,0,0-9.76,8.61-15.26-7.41l-1.62-9.49s-9.88,9.09-13.77,4.57,4.57-15.99,4.57-15.99c0,0,6.72-20.48,17.99-21.15,11.26-.67,38.33-9.92,38.33-9.92l77.36,14.12s87.08-40.79,182.34-82.79c0,0-2.03-47.34-.38-82.46,0,0,64.09-32.83,110.51-77.91Z"/>
    <path class="cls-11" d="M906.08,867.97l-59.85-10.74-38.33,9.92s-7.74,.82-13.2,9.83c-5.45,9.01-10.2,20.63-10.2,20.63,0,0-3.51,16.06,14.61,2.1,0,0-.14,19.48,10.77,19,0,0,3.94-.65,6.12-2.1,0,0,7.2,20.78,15.13,11.92,0,0-8.3-16.61-1.2-22.69s17.74-5.07,17.74-5.07"/>
    <path class="cls-11" d="M799.12,899.72s4.09-18.76,9.8-22.91,16.61-8.31,16.61-8.31"/>
    <path class="cls-11" d="M816,916.62s-1.89-23.72,13.69-32.02"/>
    <line class="cls-6" x1="1105.55" y1="706.11" x2="1105.55" y2="648.85"/>
    <path class="cls-6" d="M862.77,692.92s-7.67-40.31,3.61-62.12"/>
    <path class="cls-11" d="M646.79,517.16s-4.88-7.74-12.05,2.29-4.02,21.8-4.02,21.8c0,0,1.43,11.76-4.3,17.21"/>
    <path class="cls-11" d="M629.95,608.95s13.07-.72,20.54-4.45"/>
  </g>
  <polygon class="cls-14" points="639.29 960.39 700.56 993.86 912.77 993.23 850.88 959.76 639.29 960.39"/>
  <g>
    <path class="cls-15" d="M349.71,976.1l104.92-46.68,7.43-9.24-9.72,.39-103.69,48.78s-6.53,4.98,1.06,6.76Z"/>
    <path class="cls-24" d="M539.1,731.27s-15.68,26.33-44.3,20.08c-28.62-6.24-49.95-15.48-49.95-15.48,0,0,12.65-27.33,19.28-87.06l44.25,21.02,22.45-25.99s27.98-35.83,50.49-61.95l13.81-35.73s-4.2-36.33,.3-53.44c0,0,.9-3,3.3-2.4,0,0,.3-8.11,5.1-8.11s4.5,6.61,4.5,6.61l1.8,12.61s.9-10.51,5.1-9.61,5.1,6.91,5.1,6.91c0,0,2.75,34.2-1.75,41.7,0,0,11.25,1.08,8.14,10.17-3.83,11.19-7.78,17.95-7.78,17.95,0,0-1.02,5.19-.12,10.29,.9,5.1-3.59,19.55-12,26.46s-45.3,85.79-45.3,85.79c0,0-12.6,29.39-22.45,40.17Z"/>
    <path class="cls-11" d="M597.14,538.85s-1.36-39.27,2.47-52.83c.79-2.79,2.73-3.8,4.65-3.76,4,.08,4.08,6.55,4.08,6.55l1.8,12.61"/>
    <path class="cls-11" d="M600.42,545.15s7.4-28.38,10.79-49.24c0,0,.65-4.33,4.04-4.08,1.79,.13,4.25,1.88,5.02,8.08,3.1,24.85-1.67,40.52-1.67,40.52"/>
    <path class="cls-11" d="M597.8,568.76s9.2-10.53,12.21-19.23c3.01-8.69,8.69-10.37,12.71-8.53s5.18,7.36,3.68,11.04c-1.5,3.68-6.02,12.87-6.02,12.87,0,0-3.18,6.19-1.84,11.87s-1,16.06-9.12,26.19"/>
    <path class="cls-11" d="M601.03,612.29s-7.09,3.6-17.62,1.76"/>
    <path class="cls-24" d="M291.65,494.37s12.36,63.52-23.57,73.36c0,0,7.78,93.02,93.71,95.71,0,0,81.4-5.77,42.54-88.79l-22.1-11.84c-.35-15.84,1.83-18.36,1.83-18.36l-92.41-50.07"/>
    <path class="cls-24" d="M428.7,388.47s7.29,15.62,4.32,51.7c0,0-.8,13.47,2.48,21.3,0,0,2.89,29.62-8.03,51.57-10.92,21.94-32.06,34.95-32.06,34.95,0,0-20.71,7.17-37.39,0-16.68-7.18-40.45-10.75-57.67-51.65,0,0-12.18,10.75-20.77-9.16-8.59-19.91-18.71-26.68-10.47-43.78,8.25-17.1,26.95,16.84,26.95,16.84,0,0-14.99-32.3-4.95-64.73,10.04-32.43,51.43-54.76,51.43-54.76,0,0,59.39-17.76,86.16,47.73Z"/>
    <path class="cls-26" d="M381.84,358.48s-21.09,36.34-78.43,53.66c0,0-11.3,34.83-6.72,54.34,0,0-16.32-31.9-27.22-20.44-10.9,11.46,11.21,41.1,11.21,41.1,0,0,7.2,18.1,19.66,9.17,0,0,11.26,55.71-14.2,64-29.99,9.76-51.95,20.92-51.95,20.92,0,0-18.21-94.09,1.68-177.97,21.43-90.37,100.5-93.49,137.72-86.46,0,0,52.99,.59,66.65,57.02,0,0,4.86,25.22,.29,48.81-4.57,23.59-1.45,170.29-1.45,170.29l-57.66-25.64,.54-13.27s1.2-2.98,4.16-3.69c21.46-5.16,53.48-35.4,49.38-88.86,0,0-5.21-12.74-2.35-31.56,1.3-8.55-3.07-38.61-3.07-38.61,0,0-35.12-17.53-48.24-32.81Z"/>
    <path class="cls-26" d="M367.5,427.27s-22.93-4.04-42.37,3.82c0,0,9.02-12.92,42.65-9.28,0,0,5.71,3.12-.28,5.46Z"/>
    <path class="cls-26" d="M436.7,423.93c-16.35-.71-27.52,2.83-27.52,2.83-6.25-1.51-1.02-5.37-1.02-5.37,10.23-2.55,22.04-2.69,28.31-2.35,0,0,1.13,4.93,.23,4.89Z"/>
    <path class="cls-21" d="M364.88,502.55s11.51-5.12,26.23-2.77c0,0,12.01-3.93,23.37-2.79,0,0,1.14,20.01-16.97,26.62-18.1,6.61-31.6-9.42-32.63-21.06Z"/>
    <path class="cls-16" d="M368.04,503.6s1.92,17.59,24.77,14.87c20.75-2.47,19.05-18.13,19.05-18.13,0,0-23.25,3.84-43.81,3.26Z"/>
    <path class="cls-14" d="M371.54,503.56s6.44,8.47,24,5.36c0,0,10.92-.97,14.67-8.36,0,0-21.46,3.3-38.68,3Z"/>
    <path class="cls-10" d="M401.13,464.73s14.47,10.5,.28,18.31"/>
    <path class="cls-30" d="M386.12,550.32c-6.77,.87-18.46,1.23-28.1-2.35,0,0-17.12-4.84-35.24-17.8,0,0,12.83,15.34,44.71,22.78,0,0,6.54,1.43,15.27,1.01"/>
    <path class="cls-18" d="M490.07,656.84c-14.77-31.31-50.99-63.91-50.99-63.91l-56.22-30.13c46.91,64.1-10.72,64.55-10.72,64.55-62.12,1.52-95.1-65.07-95.1-65.07,0,0,.52-4.89-53.42,21.71-37.26,18.37-55.15,65.28-55.15,65.28,53.21,29.57,55.19,66.05,55.19,66.05-4.82,6.39-5.31,8.47-12.41,16.54l3.24,97.88-10.7,82.51c162.51,6.16,251.4,3.16,251.4,3.16l-5.19-71.82,8.76-102.87,12.41,7.09s31.75-63.73,18.9-90.97Z"/>
    <path class="cls-10" d="M270.74,461.85s5.56-9.39,12.74-.43c7.18,8.95,7.69,12.03,7.69,12.03,0,0-10.35-14.27-13.6-2.26"/>
    <path class="cls-8" d="M391.72,431.89s-9.65-5.15-15.51,2.88"/>
    <path class="cls-8" d="M322.21,438.01s24.23-15.45,54.5-2.98c0,0-1.11,27.17-17.84,28.4-16.73,1.23-28.48,8.61-36.65-25.42Z"/>
    <path class="cls-8" d="M391.62,431.38s24.23-15.45,54.5-2.98c0,0-1.11,27.17-17.84,28.4-16.73,1.23-28.48,8.61-36.65-25.42Z"/>
    <line class="cls-8" x1="322.21" y1="438.01" x2="277.82" y2="444.54"/>
    <path class="cls-9" d="M277.04,562.28s37.27,70.4,95.1,65.07c0,0,56.54-2.32,10.72-64.55"/>
    <path class="cls-1" d="M362.55,445.53s-9.64-15.48-24.33-1.26"/>
    <path class="cls-1" d="M430.05,439.01s-10.77-13.82-22.15,2.3"/>
    <g>
      <path class="cls-27" d="M326.89,753.79s-59.64-45.5-20.76-77.75c38.88-32.25,50.36-1.33,50.36-1.33,0,0,19.88,22.09,.88,80.85,0,0-3.98,21.65-38.88,42.41-34.9,20.76-60.97-3.98-56.55-17.67,4.42-13.7,15.46-29.6,64.94-26.51Z"/>
      <path class="cls-12" d="M337.75,817.26s1.8-72.04,75.65-137.78"/>
      <path class="cls-12" d="M351.71,764.13s18.46-34.22,76.55-57.18"/>
      <path class="cls-5" d="M410.34,681.03s9.06-15.39,14.39-8.92c5.32,6.47-1.29,11.22-14.39,8.92Z"/>
      <path class="cls-5" d="M422.18,709.63s7.5-6.93,9.34-2.51c1.85,4.42-2.56,5.93-9.34,2.51Z"/>
    </g>
    <path class="cls-24" d="M105.9,746.65s8.33,37.81,46.88,35.18c0,0,46.36-25,70.88-66.51,0,0-1.7-33.71-52.27-64.41l-18.03,30.15s-26.03-79.82-36.52-92.05c0,0-.87-4.18-.22-7.34,0,0,4.95-29.72-4.95-48.77,0,0-1.89-6.79-1.36-15.29,.53-8.5-7.97-5.05-7.97-5.05,0,0-5.05,3.45-4.78,11.42s.8,12.49,.8,12.49c0,0-2.56,1.13-7.97-.27-11.69-3.03-36.66-22.85-36.66-22.85,0,0-18.38-17.07-25.99-13.61,0,0-4.38,4.84,2.87,10.69,11.93,9.62,14.35,11.69,14.35,11.69,0,0,1.59,3.19-4.78,2.13s-25.24-16.47-25.24-16.47c0,0-6.11-4.75-9.57,.04s2.54,8.07,2.54,8.07c0,0-7.31-1.62-7.84,3.69s2.92,5.74,2.92,5.74l21.52,13.55s.8,1.86-4.25,1.86-11.69-4.52-15.67-1.59,5.84,8.24,5.84,8.24c0,0,45.79,3.98,68.9,41.97,0,0,5.72,10.58,4.79,16.12s13.11,106.75,21.79,141.2Z"/>
    <line class="cls-11" x1="7.9" y1="515.88" x2="43.17" y2="535.5"/>
    <path class="cls-11" d="M67.36,550.88s20.46,4.45,26.25,23.13"/>
    <path class="cls-11" d="M98.34,536.46s-1.25,6.38,.72,11.69"/>
    <path class="cls-7" d="M458.76,740.72s3.75-25.44-3.36-45.46"/>
  </g>
  <g>
    <rect class="cls-28" x="405.3" y="980.25" width="255.99" height="31.1"/>
    <polygon class="cls-28" points="294.24 951.93 405.3 980.25 661.29 980.25 540.79 949.71 294.24 951.93"/>
    <polygon class="cls-28" points="300.88 972.89 405.23 1005.38 405.3 1011.34 300.88 977.58 300.88 972.89"/>
    <polygon class="cls-14" points="300.88 954.02 405.3 980.25 405.3 1007.18 300.88 973.41 300.88 954.02"/>
    <line class="cls-4" x1="405.3" y1="980.25" x2="661.29" y2="980.25"/>
    <polygon class="cls-4" points="434.98 955.84 496.96 955.84 548.78 972.1 483.24 972.1 434.98 955.84"/>
  </g>
  <polygon class="cls-14" points="714.36 420.15 717.17 422.97 664.96 474.85 714.36 420.15"/>
  <polygon class="cls-14" points="687.11 391.28 690.3 393.68 645.99 452.46 687.11 391.28"/>
  <polygon class="cls-14" points="648.98 370.2 652.63 371.81 622.94 439.16 648.98 370.2"/>
  <polygon class="cls-14" points="588.95 366.14 592.93 365.97 596.01 439.51 588.95 366.14"/>
  <polygon class="cls-14" points="534.52 390.52 538.01 388.61 573.23 453.24 534.52 390.52"/>
  <polygon class="cls-14" points="495.19 447.84 497.13 444.35 561.4 480.23 495.19 447.84"/>
</svg>