<?xml version="1.0" encoding="UTF-8"?>
<svg id="Layer_1" data-name="Layer 1" xmlns="http://www.w3.org/2000/svg" xmlns:xlink="http://www.w3.org/1999/xlink" viewBox="0 0 991 991">
  <defs>
    <style>
      .cls-1, .cls-2 {
        fill: none;
      }

      .cls-3 {
        fill: #1c110f;
      }

      .cls-4 {
        fill: #151312;
      }

      .cls-5 {
        fill: #ad7562;
      }

      .cls-6 {
        fill: #010101;
      }

      .cls-7 {
        fill: #133a43;
      }

      .cls-8 {
        fill: #231f20;
      }

      .cls-9 {
        fill: #322415;
      }

      .cls-10 {
        fill: #f1edf6;
      }

      .cls-11 {
        fill: #533f89;
      }

      .cls-12 {
        fill: #f1eef7;
      }

      .cls-13 {
        fill: #643c2a;
      }

      .cls-14 {
        fill: #b16028;
      }

      .cls-15 {
        clip-path: url(#clippath-1);
      }

      .cls-16 {
        fill: #020202;
      }

      .cls-17 {
        fill: #badfee;
      }

      .cls-18 {
        fill: #b06c4f;
      }

      .cls-19 {
        fill: #846caa;
      }

      .cls-20 {
        fill: #cd8c2a;
      }

      .cls-2 {
        stroke: #141521;
        stroke-miterlimit: 10;
      }

      .cls-21 {
        fill: #231f1f;
      }

      .cls-22 {
        fill: #4f2f26;
      }

      .cls-23 {
        fill: #b73026;
      }

      .cls-24 {
        fill: #35783b;
      }

      .cls-25 {
        fill: #6e1810;
      }

      .cls-26 {
        fill: #6c3925;
      }

      .cls-27 {
        fill: #382561;
      }

      .cls-28 {
        fill: #161412;
      }

      .cls-29 {
        fill: #df8c28;
      }

      .cls-30 {
        clip-path: url(#clippath);
      }
    </style>
    <clipPath id="clippath">
      <circle class="cls-1" cx="495.5" cy="495.5" r="495.5"/>
    </clipPath>
    <clipPath id="clippath-1">
      <path class="cls-1" d="M619.53,669.04h0c.12-1.19.24-2.37.49-3.76.9-6.77,5.16-21.92,6.09-28.91,3.77-9.21,8.18-28.05,17.85-43.95.11.01.33-.08.45-.17,1.24-.42,5.95-2.78,9.3-3.63-.62,6.15-6.94,9.32-6.78,18.49.18,4.7-.6,8.11,3.12,10.12,5.99,3.22,22.62,5.78,29.06,4.58,2.89-.58,5.49-1.51,7.53-3.38,2.39-2.05,3.87-4.84,5.12-7.54,1.81-3.85,3.71-7.58,6.25-11.13,2.29-3.25,4.99-6.25,7.79-9.13,3.45,1.44,8.54,3.92,12.07,5.58-6.32,1.1-8.21,5.71-10.65,10.47-3.25,6.32-8.28,18.23-7.13,26.3.64,4.42.32,6.57,2.2,10.57,1.54,3.1.64,2.24,3.25,4.47,3.7,3.32,7.19,5.41,11.99,6.44,2.23.55,1.96-.02,2.61,2.23.31,1.23.28,2.64.26,3.84.36,7.23-.05,14.49-.23,21.66.31,5.59.67,13.8,1.1,23.54l5.64,6.67c1.39,36.86-4.59,104.46-4.17,117.58-8.69,4.02-12.03-2.74-23.68,3.59-10.25,5.5-15.64,1.68-23.4-2.37s-14.56-3.65-25.24-1.47c-10.68,2.19-16.34-4.38-22.34-5.31-6.01-.94-6.43,1.09-18.96-1.05-10.61-1.73-13.09-4.16-12.89-6.1-8.38-46.39,13.78-96.23,23-148.58l.29.36Z"/>
    </clipPath>
  </defs>
  <g class="cls-30">
    <polyline class="cls-17" points="1050.13 1078.6 1050.13 -78.51 -486.18 -78.51 -486.18 1078.6"/>
    <rect class="cls-24" x="-513.93" y="918.6" width="1564.07" height="169.11"/>
    <path class="cls-9" d="M428.86,584.17c-6.18,8.67-12.47,17.45-15.83,27.64-3.36,10.19-3.47,20.49-3.79,30.79-.54,17.02-.87,33.93-1.19,50.95-.11,8.67-.33,17.34-.54,26.02,0,1.63,3.79.87,3.79-.43.33-16.48.65-33.06.98-49.54.22-8.13.33-16.26.65-24.39.33-9.65.33-19.51,2.6-28.94,2.82-11.92,9.86-22.01,16.91-31.87.54-.76-.43-1.19-1.08-1.19-.87,0-1.95.33-2.49,1.08h0v-.11Z"/>
    <path class="cls-18" d="M299.11,891.94l4.06-12,8.35-48.74c.57-3.86,2.35-17.51,4.18-28.53,1.08-6.63,3.4-28.43,7.4-40.77,1.44-4.61,5.06-12.08,7.33-16.35l4.35-8.02,9.04-45.24,61.2,9.3s-6.44,24.48-17.74,54.48c-16.18,43.1-59.41,129.45-58.56,132.64,1.54,5.92,28.94,38.76,28.94,38.76,0,0,2.41,6.71-8.78,3.86-11.2-2.85-49.77-39.4-49.77-39.4h0Z"/>
    <path class="cls-18" d="M329.86,875.74l-3.4,12.76c5.78,7.64,17.62,19.57,22.08,23.51,5.82,5.13,6.75,6.25,13.6,12.62,2.7,2.48,3.88,3.42,7.28,4.9,3.41,1.38,7.39.43,8.95,4.71,1.02,2.78-.65,5.93-3.26,7.3-2.5,1.39-5.8,1.45-8.84,1.22s-6.13-.79-9.12-.57c-1.1.06-2.22.22-3.4.05-2.56-.48-4.94-2.92-7.43-2.4-.67.12-1.4.56-2.07.68-1.03.29-2.18-.1-3.22-.47-7.56-2.97-8.83-4.03-15.16-8.69-6.24-4.53-6.59-4.36-13.23-8.4-3.23-1.9-14.69-3.69-20.65-11.57-3.4-4.44-2.54-6.62-.83-10.75,3.79-9.41,11.46-18.37,12.49-23.15"/>
    <path class="cls-22" d="M345.4,939.38h0c-.55.03-.61.46-.34.83.37.49,1.12.6,1.65.68,1.3.08,2.23-.99,2.6-2.03s.21-2.16-.29-3.22c-1.1-2.24-3.18-3.75-5.02-5.34-.4-.28-1.12-.6-1.68-.47s-.2.63.09.89c1.56,1.32,3.26,2.45,4.2,4.23.44.72.62,1.73.5,2.59-.11.75-.73,1.98-1.59,1.85l-.11-.02Z"/>
    <path class="cls-22" d="M353.8,941.92h0c-.41-.17-1.18-.17-1.15.38s.84,1,1.27,1.06c1.36.42,2.53-.07,3.25-1.28.59-1.01.74-2.08.9-3.15.07-1.2-.31-2.35-1.03-3.44-.88-1.44-2.18-2.29-3.45-3.35-1.36-1.19-2.6-2.46-4.39-2.94-.41-.17-1.18-.17-1.15.38s.84,1,1.27,1.06c.63.2,1.28.96,1.77,1.36.69.54,1.27,1.06,1.96,1.6,1.18.94,2.41,2.22,2.64,3.67.07,1-.08,2.07-.44,3-.19.52-.36.93-.74,1.32-.14.2-.28.4-.49.37l-.21-.03q.11.02,0,0,.11.02,0,0h0Z"/>
    <path class="cls-22" d="M358.75,941.77h0c-.55.03.01.66.23.69.49.4,1.12.6,1.67.57,1.55-.1,2.63-1.48,3.05-2.84s.09-2.84-.6-4.14c-.79-1.32-1.81-2.57-2.98-3.61-1.25-1.17-2.64-2.14-4.05-3-.2-.14-1.22-.62-1.49-.33-.28.4.43.83.64.86,1.12.6,2.29,1.54,3.26,2.45s1.91,1.92,2.5,3.11.83,2.53.55,3.7-1.25,2.56-2.59,2.69l-.2-.14Z"/>
    <path class="cls-22" d="M361.23,928.55h0c-.21-.03-.87-.02-.6.35s.99.69,1.53.77c-.84-.23-.31-.15-.02.11.2.14.27.37.49.4.29.26.6.42.89.68.49.4,1.09.82,1.57,1.22,1.18.94,2.34,1.99,3.13,3.31s.93,2.66.26,4.2-2.05,2.77-3.72,2.96c-.55.03.01.66.23.69.49.4,1.12.6,1.67.57,1.9-.27,3.62-1.55,4.34-3.42.7-1.76.26-3.25-.73-4.71-1.1-1.48-2.57-2.68-4.03-3.88s-3.01-2.63-4.91-3.13l-.09-.12Z"/>
    <path class="cls-18" d="M394.39,899.3h0l-.87-12.25v-61.47c.22-4.55.65-20.27,1.41-33.17.43-7.7.11-30.24,3.25-44.77,1.19-5.42,4.44-14.53,6.5-19.62l4.01-9.76,8.24-55.72,51.06,2.38s.33,18-7.05,54.09c-12.68,62.33-41.41,168.35-38.16,170.52,15.61,10.19,41.3,37.4,41.3,37.4,0,0-3.47-3.58-16.59-5.53-13.12-1.95-53.01-22.22-53.01-22.22l-.11.11Z"/>
    <path class="cls-18" d="M424.42,893.01c2.82,1.95,19.62,11.82,22.77,13.23,10.52,4.66,9.43,8.35,17.78,9.54,1.73.22,3.47.33,4.88,1.3.76.54,1.3,1.19,1.84,1.84,3.36,3.69,8.46.87,12.03,4.01,2.82,2.49,2.71,5.2.98,7.37-.65.87-1.41.65-2.6.87-4.34.87-10.3,1.41-19.51-1.84-5.96-2.06-25.58-3.36-31.76-4.01-7.26-.76-15.07-.54-22.33-1.3-5.53-.54-11.92-.76-16.8-3.69-5.64-3.47-7.59-8.24-5.64-13.88,1.73-4.88,8.24-14.85,7.59-19.51"/>
    <path class="cls-6" d="M230.57,344h0l30.9,3.69,2.28,32.2c4.44-1.3,8.13-.22,10.84,3.14.76,1.3,1.19,2.93.76,4.44-.87,1.3-2.28,2.17-3.79,2.28h-.87c-4.55.22-8.46-3.36-8.67-8.02-.54-6.29-.98-12.57-1.52-18.86-.11-.76-.87-2.28-1.41-2.28-8.46-1.08-16.91-1.84-25.69-2.82.54,6.5.98,12.68,1.41,18.97,5.42-1.19,9.97.54,11.71,4.34.33.54.54.98.54,1.52.22,2.06-1.19,3.9-3.25,4.12-4.12.98-10.62-2.38-10.62-7.59-.11-5.2-.76-10.41-1.08-15.61-.43-6.5-.87-12.9-1.41-19.62l-.11.11ZM259.95,356.79h0c-.11-1.41-.22-2.49-.22-3.9l-26.88-2.82.22,3.47,26.99,3.25h-.11Z"/>
    <path class="cls-6" d="M817.31,360.49h0l26.9,3.21,1.98,28.03c3.87-1.13,7.08-.19,9.44,2.74.66,1.13,1.04,2.55.66,3.87-.76,1.13-1.98,1.89-3.3,1.98h-.76c-3.96.19-7.36-2.93-7.55-6.98-.47-5.47-.85-10.95-1.32-16.42-.09-.66-.76-1.98-1.23-1.98-7.36-.94-14.72-1.6-22.37-2.45.47,5.66.85,11.04,1.23,16.52,4.72-1.04,8.68.47,10.19,3.78.28.47.47.85.47,1.32.19,1.79-1.04,3.4-2.83,3.59-3.59.85-9.25-2.08-9.25-6.61-.09-4.53-.66-9.06-.94-13.59-.38-5.66-.76-11.23-1.23-17.08l-.09.09ZM842.89,371.63h0c-.09-1.23-.19-2.17-.19-3.4l-23.41-2.45.19,3.02,23.5,2.83h-.09Z"/>
    <path class="cls-6" d="M613.54,363.4h0l-28.94-.98,3.04,19.4c.87,5.1,1.84,9.97,2.38,15.39s7.15,8.02,11.27,6.72c.54-.11.98-.33,1.41-.65,1.63-1.19,1.95-3.58.76-5.2-2.06-3.58-6.72-4.99-12.03-3.25-.98-6.29-1.95-12.36-2.93-18.86,8.89.22,17.34.33,25.91.65.54,0,1.41,1.3,1.52,2.17.87,5.31,1.73,10.62,2.6,15.94.22,1.19.33,2.28.43,3.47.54,5.42,7.15,8.02,11.27,6.72.43-.11.98-.33,1.41-.65,1.73-1.19,2.06-3.58.87-5.2h0c-.22-.54-.54-1.08-.87-1.52-2.93-3.25-6.72-3.9-11.06-2.28-.98-6.18-1.95-12.36-2.93-18.43,8.78.22,17.24.33,25.69.65.65,0,1.52,1.3,1.63,2.17,1.08,6.18,2.06,12.47,3.04,18.65,0,.33.11.54.11.87,1.08,4.44,5.53,7.26,10.08,6.29,1.52-.33,2.82-1.3,3.58-2.6.33-1.63-.11-3.25-1.19-4.44-2.93-3.25-6.72-3.9-11.06-2.28-1.63-10.62-3.25-21.14-4.99-31.87l-31-1.08h0v.22ZM616.9,372.4c-.22-1.08-.33-2.17-.54-3.36l26.99.54.54,3.79-26.99-.98ZM587.74,371.64h0c-.11-1.19-.33-2.17-.43-3.47l27.1.54v.54c.11,1.08.33,2.06.43,3.25l-27.1-.98v.11Z"/>
    <path class="cls-6" d="M114.68,357.98h0l1.19.33c2.93,13.33,5.85,26.56,8.78,40,4.88-1.95,9.21-1.41,12.9,1.95,3.14,2.93,2.17,6.94-2.06,8.13-.33.11-.54.22-.87.22-5.31,1.08-10.62-2.38-11.71-7.7-2.06-9.32-4.01-18.65-6.07-27.97-.11-.65-.33-1.19-.54-1.73-7.26,5.31-11.6,11.27-6.18,20.38-3.9-4.44-4.99-9.11-2.71-14.31,1.19-2.71,2.71-5.31,4.34-7.7,1.73-2.82,3.04-5.64,2.28-9.11-.11-.76.54-1.84.76-2.71l-.11.22Z"/>
    <path class="cls-6" d="M766.93,352.24h0l1.19.33c2.93,13.33,5.85,26.56,8.78,40,4.88-1.95,9.21-1.41,12.9,1.95,3.25,2.93,2.28,6.94-1.95,8.13-.33.11-.54.22-.87.22-5.31,1.19-10.52-2.28-11.71-7.59-2.06-9.32-4.01-18.65-6.07-27.97-.22-.65-.43-1.19-.65-1.73-7.26,5.31-11.6,11.27-6.18,20.38-3.9-4.44-4.99-9.11-2.71-14.31,1.19-2.71,2.71-5.31,4.34-7.7,1.73-2.82,3.04-5.75,2.28-9.21-.11-.87.54-1.84.76-2.71l-.11.22Z"/>
    <path class="cls-6" d="M170.73,374.03h0c.22.43.43.98.54,1.52,1.95,9.32,4.01,18.65,6.07,27.97,0,.33.22.54.22.87,1.63,5.31,7.15,8.24,12.36,6.61,4.12-1.19,5.2-5.1,1.95-8.13-3.69-3.47-8.02-3.9-12.9-1.95-2.93-13.44-5.85-26.67-8.78-40l-1.19-.33c-.33.87-.98,1.95-.76,2.71.22.54.22,1.08.22,1.52l2.06,9.32.22-.11Z"/>
    <path class="cls-6" d="M707.96,387.36h0c.22.43.43.98.54,1.52,2.06,9.32,4.01,18.65,6.07,27.97,0,.33.22.54.22.87,1.63,5.2,7.15,8.13,12.36,6.5,4.23-1.19,5.31-5.2,2.06-8.13-3.69-3.47-8.02-3.9-12.9-1.95-2.93-13.44-5.85-26.67-8.78-40l-1.19-.33c-.22.87-.87,1.95-.65,2.71.11.54.22,1.08.22,1.52l2.06,9.32h0Z"/>
    <path class="cls-6" d="M101.98,377.62c-14.02,0-28.11-1.62-44.2-6.03l.21-.77c34.36,9.41,59.62,6.05,94.57,1.39l2.41-.32c32.6-3.24,61.92-8.59,92.98-14.24,22.23-4.05,45.21-8.24,69.41-11.56l.11.79c-24.18,3.32-47.16,7.5-69.38,11.55-31.07,5.66-60.41,11.01-93.03,14.25l-2.39.32c-18.7,2.49-34.64,4.61-50.68,4.61Z"/>
    <path class="cls-6" d="M724.44,385.47c-11.97,0-24.02-.46-36.12-1.4-53.64-5-110.81-14.1-154.62-21.47l.13-.79c43.8,7.36,100.95,16.46,154.56,21.46,74.75,5.77,147.52-6.41,210.44-35.2l.33.73c-52.85,24.18-112.65,36.66-174.72,36.66Z"/>
    <path class="cls-6" d="M94.12,394.59c-15.53,0-30.28-1.63-45.35-5.98l.22-.77c25.58,7.38,50.29,6.89,79.53,3.89,36.68-2.87,68.33-8.58,101.83-14.63,20.6-3.72,41.89-7.56,65.1-10.84,5.73-.97,18.2-3.14,18.2-3.14l.14.79s-12.47,2.17-18.21,3.14c-23.2,3.28-44.49,7.13-65.08,10.84-33.52,6.05-65.19,11.76-101.9,14.64-12.14,1.25-23.5,2.06-34.48,2.06Z"/>
    <path class="cls-6" d="M728.58,401.76c-37.18,0-72.34-4.27-103.15-8.8-18.72-2.78-37.7-5.79-56.05-8.71-9.76-1.55-19.52-3.1-29.3-4.63l-1.88-.79c9.78,1.53,21.54,3.08,31.3,4.63,18.35,2.92,37.33,5.93,56.05,8.71,41.26,6.07,90.34,11.67,141.58,7.15,47.52-4.24,91.82-15.75,131.69-34.22l.34.73c-39.95,18.51-84.35,30.05-131.95,34.29-13.04,1.15-25.95,1.65-38.62,1.65Z"/>
    <path class="cls-6" d="M95.58,411.31c-1.44,0-2.88,0-4.32-.03-15.76-.23-37.51-1.38-51.61-5.54l.23-.77c14.01,4.14,35.68,5.28,51.39,5.51,35.37.41,70.71-4.52,106.82-10.08,19.23-2.94,34.21-6.38,48.7-9.7,17.37-3.99,33.79-7.76,56.46-10.57l.1.79c-22.64,2.81-39.03,6.57-56.38,10.55-14.5,3.33-29.5,6.77-48.76,9.72-34.67,5.33-68.65,10.11-102.64,10.11Z"/>
    <path class="cls-6" d="M730.4,419.55c-47.02,0-89.68-7.84-134.5-16.08-14.87-2.73-30.25-5.56-45.97-8.13l.13-.79c15.73,2.57,31.11,5.39,45.99,8.13,51.58,9.48,100.3,18.43,156.05,15.5,54.01-3.89,104.75-16.33,146.72-35.95l.34.72c-42.06,19.67-92.89,32.13-147.01,36.03-7.36.39-14.61.57-21.75.57Z"/>
    <path class="cls-7" d="M301.71,538.31h0c-.98,7.7,11.92,252.8,11.92,252.8,0,0,48.02,20.49,107.75,17.78,10.52-.54,29.7-9.21,41.63-16.8,1.19-15.39,5.2-38.05,6.72-53.44,2.06-21.46,7.48-120.55,7.48-142.12v-88.62c0-1.19,0-7.86-.76-12.74-1.73-12.25-3.9-27.32-6.18-39.46-32.41,1.41-60.71,12.25-93.23,9.32-18.21-1.63-26.9-20.95-43.92-27.02-16.98,15.05-32.5,57.48-31.53,100.19l.11.11Z"/>
    <path class="cls-23" d="M469.34,437.71l-106.92-56.65-4.27,19.49-29.69,39.44s18.06,15.51,66.42,38.07c48.49,22.47,78.11,3.18,78.11,3.18-.93-13.03,2.14-23.22,1.46-39.2"/>
    <path class="cls-23" d="M376.27,294.55l8.94-30.3,18-3.1c23.06,13.68,32.16,20.24,47.09,9.39,0,0,19.18,9.03,20.68,6.94,1.5-2.1,32.47,41.3,32.29,43.93s-1.73,34.23-10.21,61.19-20.35,68.27-20.35,68.27c0,0-12.3,16.25-55.8-.47-43.5-16.73-60.72-36.72-60.72-36.72,0,0,7.1-27.73,6.52-29.98s-1.18-36.03-.48-34.75l14.06-54.38h0Z"/>
    <path class="cls-18" d="M421.71,217.45s-3.33,24.66-10.6,40.01c-1.02,2.15-7.91,3.69-7.91,3.69.55-.21,7.29,11.89,7.17,12.43,3.46,7.48,16.09,13.12,25.68,15.93,10.24,2.93,4.58,2.65,15.03.6,7.3-1.47,9.49-10.75,8.58-15.64l-5.4-2.11,10.75-22.56"/>
    <path class="cls-22" d="M454.98,269.23s-3.19-2.99-6.19-4.68-8.51-2.78-20.3-18.98c0,0-.36,16.9,17.69,24.66,0,0,4.62,2.16,8.09,2.12l1.66-3.41-.94.28Z"/>
    <path class="cls-18" d="M495.01,176.73s.11.11.21.22c0-.11,0-.22-.1-.44v.22h-.11ZM502.4,180.9c0,.11.21.33.32.44h0c0-.11-.2-.65-.32-.44h0ZM426.67,244.01c4.99,9.97,12.87,21.85,24.73,25.14,4.31,1.18,9,.19,12.83-1.46,5.7-2.7,11.72-5.39,16.57-9.3,4.63-3.7,6.96-6.14,10.1-11.06,3.25-5.13,3.72-6.64,4.82-12.47.49-2.59,2.63-6.55,3.55-8.81,1.14-2.69,5.81-13.21,8.12-19.56,2.3-6.35-1.01-18.45-1.01-18.45.15-1.84-.36-3.37-.87-5.11l-.75-.23s.32.33.09.87c-.97-.45-1.71-1.34-2.23-2.11h0c-1.31.19-2.26-.7-2.89-1.91,0,.22-.01.54.2.65-1.19-.24-2.14-1.13-2.67-2.01l-.02.76c-.86-.45-1.49-1.22-2.13-1.89.1.33,4.53,1.07,4.53,1.18-1.19-.24-.01.65-.64-.56l-.74-.99c-.97-.13-1.09.41-1.72-.47.1.22.04-2.06.04-1.95-1.08-.35-.75-.34-1.6-1.23,0,.22-3.47.14-3.48.25-.97-.35-.99.63-1.51-.25.1.22.88-.52,1.09-.3-1.19-.24-1.85.39-2.48-.81.1.22-3.08-3.1-3.08-3.1-1.19-.24-1.09.19-1.83-.8.21.44-5.16-2.06-5.06-1.63-.97-.35.67,4.03.04,3.25,0,.22-2.03-1.24-2.03-1.24-.97-.13.08,1.19-.44.21,0,.22-.02.76.09.87-1.31.19-2.48-.6-3.43-1.7.21.44.31.87.52,1.1-.97-.35-1.73-.36-2.46-1.35,0,.22.09.87.31.87-1.08-.02-2.16-.48-2.9-1.36,0,.22.2.65.31.87-.87-.02-1.62-.36-2.14-1.13l.31.87c-.75-.23-1.41-.03-2.48-.81,0,.22.21.44.2.65-.54-.23-1.29-.46-1.83-.8,0,.22.42.66.2.65-.75-.23-1.41-.03-2.26-.7.1.22.2.65.31.87-.75-.23-1.62-.36-2.15-.91,0,.22-.01.54.09.87-.75-.23-1.41-.03-2.26-.7,0,.22.2.65.31.87-.75-.23-1.62-.36-2.26-.7,0,.22.21.44.42.66-.75-.23-1.62-.36-2.36-1.03-.12.32-.01.54-.02.76-.54-.23-.86-.45-1.5-.68l-1.08-.02c-3.74,2.63-7.35,14.26-7.35,14.26-7.43,2.77-12.83,11.54-13.66,14.89s-4.12,10.1-4.12,10.1c-.51-1.53-1.74-4.81-1.92-6.33-.19-1.41.71-2.8.52-4.22-.8-3.38-4.8-3.68-7.53-2.66l-.55.42c-4.18,2.95-5.01,16.16-4.02,20.52-1.79,7.55,3.4,13.52,8.8,9.4l-.07,3.25"/>
    <path class="cls-14" d="M505.57,195.06c-1.27-11.63-11.15-21.06-34.02-31.74s-44.39-8.11-44.39-8.11c22.34-30.53,56.66-17.98,64.3-15.43s37.73,45.81,15.31,69.83l-1.57,2.46s.53-14.74.36-16.91h0v-.11Z"/>
    <path class="cls-14" d="M423.34,146.03s4.17-22.36,22.21-24.35c24.02-2.74,53.95,2.35,56.87,27.78l-79.08-3.32h0v-.11Z"/>
    <path class="cls-29" d="M408.34,198.62c-1.14-2.3.91-7.14.1-9.54-4.39-12.78,1.34-21.98,6.32-26.97,2.11-2.12,1.78-7.34,2.7-9.59,4.59-11.72,6.1-11.58,27.82-18.05,17.68-5.26,33.17.38,42.1,3.83,14.19,5.51,20.31,8.57,22.01,20.53.18,1.52-.81,2.37-.85,4.21-.05,2.49,3.49,3.98,3.21,7.01,0,0-21.07,1.39-39.9,4.78-18.83,3.39-58.16,27.38-60.23,37.85,0,.33-2.03-11.43-3.28-14.06h0Z"/>
    <path class="cls-14" d="M431.01,157.69c9.93-2.82,26.68-5.39,45.42.54,0,0-36.6-17.59-62.77,4.51l-.78.96c-2.01,2.56-3.59,5.45-4.63,8.58l7.95-6.66c4.31-3.59,9.35-6.31,14.7-7.82h0l.11-.11Z"/>
    <path class="cls-14" d="M508.84,163.58l-1.81-1.45c-4.16-3.34-8.76-6.04-13.6-7.99l-8.17-3.32s21.51,3.17,24.3,9.74l-.72,3.02h0Z"/>
    <path class="cls-20" d="M418.19,219.65c-2.27-.48-4.78.66-5.48,2.92-.35,1.08-.16,2.27.37,3.15.32.44.74.88,1.28,1.11,1.18.68,2.48.81,3.78.51.11,0,.44-.1.44-.32s-.43-.12-.54-.01c-1.42.4-3.03-.17-3.87-1.38-1.05-1.43-.68-3.59.64-4.76.77-.74,1.86-.94,2.83-.7.22,0,.54.01.65-.2.11-.11.11-.21,0-.33h-.11Z"/>
    <path class="cls-4" d="M432.53,193.07l-6.53,16.56-3.49-9.4s7.16-5.16,10.02-7.16h0Z"/>
    <path class="cls-21" d="M422.14,207.37c-1.08-.35-2.7-.49-2.95,1.02-.24,1.19.16,2.5-.08,3.68,0,.43-.35,1.29-.89,1.28h-.22c-.11,0-.21-.23-.32-.34-.32-.33-.53-.77-.62-1.21-.51-1.64-.58-3.48.11-4.99.57-1.29,1.49-3.65,3.12-3.73.54.01.77-.74.01-.65-1.85.18-2.97,1.78-3.65,3.28s-1.04,2.91-.96,4.53c.08,1.3.88,4.57,2.85,3.86,1.53-.51,1.56-2.14,1.49-3.55.02-.76-.18-1.52.05-2.17.12-.76.77-.53,1.42-.29.43.12,1.09-.41.56-.64h0l.11-.11Z"/>
    <path class="cls-14" d="M424.85,181.95s-14.26,7.5-16.51,11.57l.1-4.44s5.78-6.82,16.42-7.13Z"/>
    <path class="cls-6" d="M471.79,238.04c-1.63.29-3.67-.62-4.84-1.95-.21-.33-1.29-.46-.98-.02,1.48,1.77,4.49,2.81,6.56,2.53.22,0,.22-.21,0-.33-.21-.11-.54-.23-.75-.23"/>
    <path class="cls-6" d="M465.56,235.52c-.74-.77-1.71-1.34-2.78-1.79h-.54c-.11-.01-.11.09,0,.21.42.44.96.78,1.5.9h.54c.11-.09,0-.21-.1-.32-.43-.12-.97-.45-1.28-.79-.22,0-.44.21-.55.21.97.35,1.82.91,2.46,1.57.11.11.43.12.54.12s.33-.1.12-.32"/>
    <path class="cls-6" d="M461.36,234.24c-1.18-.46-2.46-1.46-2.76-2.55-.51-1.64,1.16-3.55,2.9-3.95.22,0,.11-.21,0-.33-.21-.11-.54-.12-.65-.01-1.63.29-3.08,1.89-3.32,3.18s.71,2.51,1.99,3.3l1.29.68c.22,0,.54.12.65.01.11-.11,0-.22-.21-.33"/>
    <path class="cls-6" d="M474.28,238.2c0-.11.11-.21.22-.21.32.12.65.12,1.08.02,0,.11.1.33.21.55-.65-.12-1.41-.14-2.17-.05-.11,0-.33,0-.43-.23v-.33"/>
    <path class="cls-6" d="M473.31,238.07c.76-.2,1.63-.18,2.38.05.11,0,.21.11.32.22v.22"/>
    <path class="cls-6" d="M476.76,239.12c.86.24,1.95.04,2.62-.81,1-1.17,1.04-3.01.31-4.22,0-.11,0-.22.11-.21s.32.12.43.23c.63,1.1.81,2.51.24,3.8-.57,1.18-1.56,1.81-2.64,1.79l-.98-.02c-.11,0-.32-.12-.32-.33s.11-.21.22-.1"/>
    <path class="cls-4" d="M491.63,217.97c1.2-.19,2.37.7,2.9,1.47.1.22.31.77.29,1.52-.02.98-.69,1.83-1.46,2.25-.99.52-2.28.28-3.13-.5-1.06-1-1.03-2.73-.35-3.69.11-.21.67-.96,1.65-1.16"/>
    <path class="cls-4" d="M481.21,218.4s6.45-2.36,9.15-1.76c3.89.84,7.93,4.51,8.64,6.8,0,0-5.2-5.21-7.9-5.7-2.7-.49-9.77.66-9.77.66h-.11Z"/>
    <path class="cls-4" d="M459.22,207.52c-.85-.89-2.58-1.25-3.45-.94-.22,0-.77.31-1.21.95-.56.75-.58,1.94-.17,2.71.52,1.1,1.7,1.55,2.79,1.47,1.52-.18,2.42-1.57,2.44-2.77,0-.22.34-.53-.41-1.31"/>
    <path class="cls-4" d="M464.86,212.52s-4.54-5.52-7.34-6.55c-4.09-1.5-9.85-.64-11.84.83,0,0,7.62-1.46,10.52-.32,2.69,1.03,8.65,6.04,8.65,6.04h0Z"/>
    <path class="cls-4" d="M485.4,205.26c-.23.75-.36,1.62-.59,2.37-.12.65-.24,1.19-.47,1.83,2.17.05,3.9.08,5.31.22,2.81.28,4.33.42,5.83,1.1,1.61.69,2.89,1.69,3.32,2.13.64.56,1.17.89,1.7,1.55,1.06,1.32,1.36,2.52,1.57,2.53s.13-1.08.13-1.19c-.27-2.61-1.75-4.59-1.85-4.7,0,0-1.16-1.43-3.3-2.67-1.5-.79-5.81-2.18-11.76-2.96"/>
    <path class="cls-4" d="M468.84,198.83c-.23.75-.57,1.51-.81,2.26-.23.65-.46,1.18-.58,1.72-1.93-1.23-3.75-2.14-5.04-2.82-2.79-1.47-4.18-2.15-6.02-2.41-1.84-.36-3.57-.18-4.23-.09-.98-.02-1.52.08-2.39.27-1.75.5-2.74,1.35-2.95,1.13-.21-.11.45-.97.57-1.07,1.67-2.13,4.18-2.84,4.4-2.94,0,0,1.86-.61,4.45-.34,1.84.15,6.58,1.44,12.49,4.17"/>
    <path class="cls-13" d="M464.83,244.18c-5.38-1.74-13.98-5.4-13.98-5.4,0,0-2.81,14.79,9.9,18.86,12.6,4.17,18.64-9.47,18.64-9.47,0,0-9.06-2.15-14.55-4h0Z"/>
    <path class="cls-3" d="M464.83,244.18c-2.58-.81-12.8-4.83-12.8-4.83,0,0,.99,9.56,10.36,12.58,10.12,3.36,15.59-4,15.59-4l-13.04-3.86h0l-.11.11Z"/>
    <path class="cls-10" d="M464.82,244.72c-2.58-.81-10.33-3.91-10.33-3.91,0,0,1.75,4.16,9.51,6.71,7.75,2.55,11.27.24,11.27.24l-10.45-3.04h0Z"/>
    <path class="cls-13" d="M480.16,247.43c-.21-.11-1.95-.04-3.24-.61-2.04-.91-3.21-2.02-4.71-2.7-2.58-1.14-4.65-.42-5.84-.88-1.19-.35-2.45-2.11-5.14-2.82-1.62-.36-5.62-.99-7.88-1.47-1.3-.24-2.68-1.36-2.9-1.36s-.72,3.45,13.7,8.21c14.43,4.75,16.23,1.76,15.91,1.53h0l.11.11Z"/>
    <path class="cls-5" d="M471.1,277.39h0c.18,1.6,32.18,43.91,32.18,43.91,0,0,45.77-82.09,58.08-120.06l33.03-103.59-25.18-7.5s-32.55,73.74-40.42,95.72c-7.84,21.43-17.19,42.17-28.05,62.21-7.47,13.72-29.93,27.69-29.75,29.29l.11.02Z"/>
    <path class="cls-18" d="M568.33,91.95h0l3.17-9.17c-.86-1.54-12.27-26.84-12.13-30.71.13-3.87,7.45-13.17,8.82-15.18s9.58-5.65,12.21-5.03,8.26,7.96,8.26,7.96c3.19.64,5.72,3.13,6.18,6.36.62,5.38-.25,1.06-.25,1.06,0,0,5.72-1.1,4.72,6.91-.74,5.95-1.84,7.81-3.31,7.91-.55-.02-.97-.12-1.48-.35-2.14-.84-2-.47-2-.47l-.46,2.9s6.78,11.4,4.35,22.63c-2.43,11.23-3.14,13.29-3.14,13.29l-25.06-8.03.13-.08Z"/>
    <path class="cls-18" d="M589,82.23c2.73-8.27.93-17.16-4.63-23.81-1.81-1.76-3.57-3.74-5.07-5.88-2.59-5.07-2.3-11.01.63-15.89.85-1.25,1.52-2.65,1.97-4.1.48-1.56-.02-3.23-1.11-4.27-1.14-.83-2.77-.99-4.05-.29-1.28.7-2.37,1.56-3.3,2.67-2.65,2.27-4.77,5.11-6.2,8.34-.58,1.98-.97,4.11-1.13,6.19-.57,4.77-1.14,9.53-1.7,14.3"/>
    <path class="cls-22" d="M565.3,55.7h0c-.09,1.32-.52,2.66-.92,3.9-.04-1.24.05-2.55.24-3.84.2-2.74.49-6.34.94-10.58.13-2.42.7-4.85,1.69-7.17,1.26-2.49,3.04-4.85,5.06-6.82.96-1.22,2.21-2.26,3.43-3.2,1.59-1.07,3.51-1.18,5.2-.33,1.62,1.16,2.25,3.2,1.7,5.08-.5,1.66-1.3,3.15-2.2,4.6-1.57,2.86-2.31,6.03-2.19,9.28.07,3.02,1.29,5.87,3.34,8.03,2,1.92,3.81,4.13,5.37,6.5,1.29,2.09,2.19,4.41,2.85,6.8.97,3.46,1.09,7.16.38,10.67l-.67,2.85c-.07.32-.25.61-.44.9,0,0,.32-1.37.69-3.85.37-3.48.2-6.97-.79-10.32-.69-2.28-1.64-4.4-2.93-6.48-1.56-2.37-3.4-4.48-5.4-6.4-2.24-2.31-3.52-5.4-3.74-8.68-.07-3.47.72-6.85,2.34-9.92.88-1.35,1.57-2.86,2.15-4.39.53-1.32.1-2.76-1.02-3.69-1.3-.64-2.77-.54-3.86.31-1.2.83-2.32,1.79-3.25,2.91-1.98,1.76-3.73,4.02-4.96,6.4-.94,2.12-1.49,4.44-1.62,6.86-.55,4.21-.95,7.8-1.36,10.48l-.02.11Z"/>
    <path class="cls-22" d="M585.6,55.59h0c-.44-1.44-.07-3.02.79-4.27-.11,1.42-.1,2.76.13,4.15.36,1.31,1.06,2.59,2.05,3.6.53.57,1.3,1.09,2.04,1.26.71.28,1.61.27,2.26-.13,1.2-.83.96-3.12,1.15-4.85s.17-3.08.31-4.61c0-1.45.23-2.84.65-4.19.25,1.29.35,2.76.24,4.18,0,1.45-.04,3-.07,4.55.01.89-.08,1.76-.1,2.76.07,1.13-.52,2.22-1.38,3.02-1.02.54-2.28.69-3.39.2-1.01-.46-1.77-.98-2.49-1.7-1.17-1.17-1.82-2.66-2.11-4.28l-.07.32Z"/>
    <path class="cls-22" d="M578.87,43.53h0c.34-1.92.87-3.69,1.61-5.41.02,1.79-.32,3.71-.74,5.51-.45,1.9-.47,3.9-.37,5.82.13,2.26,1.45,4.24,3.54,5.29.5.23,1.06.25,1.53.14.39-.24.7-.61.8-1.04.38-1.14.84-2.14,1.11-3.3.55-1.87.92-3.9,1.16-5.85.46-3.35.32-5.6.53-5.56.45,1.89.55,3.81.34,5.65-.13,1.97-.5,4-.97,6.01-.3,1.27-.68,2.4-1.06,3.54-.3.82-.9,1.46-1.63,1.73-.71.17-1.58.07-2.29-.21-2.51-1.15-4.15-3.65-4.29-6.36-.05-2.13.21-4.18.68-6.19l.06.24Z"/>
    <path class="cls-18" d="M349.38,136.17h0l-24.63-5.14s6.74-11.55,6.76-12.11,1.61-7.75,8.24-19.33c6.66-11.68,15.79-13.09,17.42-8.7,0,0,4.72-3.01,6.78,1.94,0,0,6.9-2.83,8.63,2.15,0,0,2.86-4.56,6.97-2.14,2.44,1.47,3.97,3.94,4.22,6.68,0,0,4.41,9.62,3.07,11.53s-6,11.28-11.11,13.08c-5.1,1.8-20.29,9.02-20.29,9.02l-5.98,3.16-.08-.13Z"/>
    <path class="cls-22" d="M350.69,117.87h0c-3.42,3.65-5.13,6.14-5.29,5.88,0,0,.28-.71,1-1.88,1.06-1.64,2.19-3.16,3.52-4.52,1.94-2.1,4.26-3.9,6.79-5.19,3.27-1.57,6.92-1.93,10.4-1.11,1.24.4,2.46.91,3.47,1.82l-.63-.15c2.61-1.17,4.69-3.35,5.86-5.97.27-1.16.23-2.4-.05-3.58s.02-2.45.82-3.48c.75-.83,1.64-1.28,2.66-1.38.68-.06,1.53.14,2.11.5.96.67,1.12,1.38,1.12,1.38,0,0-.32-.52-1.33-.98-1.4-.67-3.05-.28-3.91.97-.54.87-.76,1.82-.54,2.77.36,1.31.46,2.78.16,4.05-1.14,2.96-3.29,5.46-6.17,6.79,0,0-.34.03-.32-.07l-.32-.07c-.85-.65-1.94-1.24-2.99-1.49-3.27-.77-6.58-.44-9.58.97-2.48,1.08-4.78,2.77-6.67,4.66l-.13.08Z"/>
    <path class="cls-22" d="M362.87,97.91h0c.74-1.72,1.8-3.36,2.93-4.88-.55,1.87-1.32,3.7-2.27,5.37-.72,1.61-1.48,3.44-2.34,5.68-.46,1.01-.73,2.17-.77,3.27-.01,1,.76,1.96,1.82,2.21,2.34,0,4.59-1.03,6.04-2.92,1.24-1.49,2.22-3.26,2.9-5.22.55-1.87,1.19-3.62,1.85-5.47.1,1.92-.24,3.84-.79,5.72-.6,2.09-1.52,4.1-2.92,5.77-.8,1.04-1.79,1.92-2.94,2.54-1.3.81-2.83,1.12-4.33.87-.84-.2-1.53-.58-2.04-1.26-.53-.57-.68-1.38-.71-2.17.09-1.32.39-2.58.9-3.8.79-1.93,1.68-3.83,2.69-5.71h0Z"/>
    <path class="cls-22" d="M355.72,94.22h0c1.21-1.83,2.14-2.95,2.14-2.95.21.05-.32,1.37-1.24,3.38-.62,1.19-1.21,2.28-1.72,3.49-.77,1.38-1.44,2.78-1.78,4.26-.32,1.37.01,2.79,1,3.8.85.65,2.04.81,3.05.28,1.88-.89,2.81-2.01,3-1.85-.59,1.09-1.47,1.99-2.62,2.61-1.3.81-2.96.75-4.21-.1-1.49-1.24-2.04-3.15-1.62-4.95.4-1.69,1.09-3.2,1.96-4.55l1.9-3.34.13-.08Z"/>
    <path class="cls-22" d="M348.09,95.43h0c.83-1.14.86-2.25,1.08-2.2.13-.08.51,1.12-.41,2.69-.41.79-1.06,1.64-1.6,2.52-.65.85-1,1.88-.91,2.9.12.92.81,1.75,1.71,2.19.71.28,1.61.27,2.37-.11,1.38-.68,1.53-1.76,1.84-1.68s.23,1.39-1.36,2.46c-.94.67-2.2.82-3.33.44-1.43-.56-2.36-1.78-2.59-3.17-.1-1.47.33-2.82,1.24-3.83.67-.96,1.4-1.67,1.89-2.34l.08.13Z"/>
    <polygon class="cls-18" points="465.94 279.41 500.07 247.14 569.39 90.3 594.39 97.65 561.44 211.73 502.77 328.2 465.94 279.41"/>
    <path class="cls-23" d="M494.35,246.35h0l-32.33,32.69,39.87,52.41,40.02-79.44c-12.41-5.94-27.36-16.7-39.28-23.75l-8.15,18.01-.13.08Z"/>
    <path class="cls-18" d="M410.64,308.9h0l-18.8-43.53s-6.8-7.51-9.24-7.08c-2.04.63-10.92,5.67-12.5,7.19l-57.43-49.75s-32.17,9.34-41.56,12.8c4.35,8.49,72.79,78.11,81.14,87.54,7.61,8.81,21.69,27.95,21.51,29.69-.18,2.18,36.9-36.96,36.9-36.96l-.02.11Z"/>
    <path class="cls-23" d="M349.11,238.8h0c-9.28,13.85-20.78,31.41-31.28,44.3,15.79,16.65,30.5,31.7,34,35.76,7.48,8.89,12.69,45.32,12.51,47.06-.31,2.27,46.42-56.99,46.42-56.99l-18.8-43.53s-6.8-7.51-9.24-7.08c-2.04.63-6.65-.12-8.24,1.4l-25.57-20.96.21.05Z"/>
    <path class="cls-18" d="M314.81,219.9h0s-27.34,24.74-32.91,20.52c-5.58-4.21-17.22-11.97-11.42-28.54,5.8-16.56,58.01-87.22,58.01-87.22l23.3,6.5-36.98,88.73h0Z"/>
    <path class="cls-25" d="M367.83,322.74c-.17.74,2.34,1.89,2.46,1.36,1.66-5.62,2.53-11.66,1.35-17.5-1.18-5.85-4.24-10.8-7.31-15.76-.32-.52-1.12-.93-1.64-1.06-.21-.05-1.08-.14-.76.38,2.98,4.83,6.07,9.68,7.17,15.39,1.1,5.72.26,11.65-1.27,17.19h0Z"/>
    <path class="cls-25" d="M501.42,327.77h0c.04.79,2.6,1.73,2.54,1.04-.15-1.26-.19-2.5-.34-3.76-.55-6.15-1.45-12.26-2.82-18.26-1.48-6.92-3.47-14.07-7.39-20.12-.32-.52-1.12-.93-1.64-1.06-.21-.05-1.08-.14-.76.38,2.23,3.31,3.69,7,4.93,10.74,3.23,9.9,4.85,20.52,5.51,30.93l-.02.11Z"/>
    <path class="cls-18" d="M586.5,654.15l26.44,13.25s3.27-15.03,7.3-34.45c3.54-16.64,13.71-25.63,13.71-25.63l-5.94,84.5-5.11,3.08c-5.3,1.75-11.67.13-15.52-3.86l-25.81-25.93,4.81-10.95h.11Z"/>
    <path class="cls-18" d="M588.38,654.99l-6.4-7.84c-3.88-4.75-11.54-8.69-15.91-10.76s-7.51-4.36-8.5-1.08,2.42,5.15,2.42,5.15l.89,7.39s-.87,2.09-.51,5.07,2.35,4.81,2.35,4.81c0,0-.26,2.59,1.49,4.62,1.86,2.04,7.65,1.97,7.65,1.97l9.81.99,6.69-10.11h0l.02-.22Z"/>
    <path class="cls-22" d="M571.72,646.22s.02-.22.27-.52c.14-.31-.03-.77-.4-1.46-.65-1.15-2.38-2.31-4.25-3.26-.94-.42-1.88-.84-2.84-1.05-.85-.2-1.62-.16-2.39-.02-1.42.07-1.93.78-2.04.77,0,0,.03-.32.28-.63.36-.29.93-.56,1.6-.71.67-.15,1.67-.38,2.63-.17.97.1,2.02.53,3.05,1.07,1.05.43,1.96,1.07,2.66,1.69.81.63,1.39,1.34,1.76,2.03.18.35.26.68.33,1.01l-.09.86c-.26.41-.58.38-.58.38h0Z"/>
    <path class="cls-22" d="M578.22,652c-.22-.02.14-1.4-1.14-2.73-.69-.72-1.63-1.15-2.88-1.71-1.25-.56-2.5-1.12-3.85-1.81s-2.59-1.35-3.85-1.81c-1.15-.44-2.23-.55-3.22-.44-.98,0-1.66.27-2.13.55s-.59.48-.7.47c0,0,.03-.32.51-.71s1.27-.74,2.27-.86,2.3-.09,3.56.36,2.5,1.12,3.97,1.71c1.35.68,2.6,1.24,3.85,1.81,1.14.55,2.27,1.21,2.96,1.93.68.83.91,1.73.86,2.27l-.09.86h0l-.12.1Z"/>
    <path class="cls-22" d="M576.17,655.06s.33-.08.9-.24c.22.02.56-.16.91-.34s.7-.47.63-.81c.04-.43-.24-.9-.63-1.26s-.92-.64-1.55-.81c-1.38-.36-2.76-.72-4.36-1.09-3.08-.75-5.84-1.46-7.85-2.1-1.06-.32-1.8-.51-2.35-.46s-.69.37-.8.35c0,0,.04-.43.72-.69.57-.27,1.53-.06,2.49.14,2.03.42,4.8,1.03,7.98,1.9,1.6.38,2.97.85,4.35,1.2.64.17,1.37.47,1.85,1.06.5.49.75,1.17.69,1.81-.03.32-.17.64-.41.83s-.46.28-.58.38c-.45.17-.79.25-1.12.32-.55.05-.97-.1-.97-.1h0l.12-.1Z"/>
    <path class="cls-22" d="M568.61,659.74c-.11-.01.34-1.16-.02-3.05l.04-.43.32.03c1.26.45,2.98.74,4.96.5.99-.12,2.02-.56,1.79-1.56-.13-.88-1.14-1.64-2.17-2.29-1.75-1.05-3.77-1.47-5.51-1.54-.86-.09-1.75.04-2.44.41s-1.17.75-1.56,1.37c-.66,1.13-.78,2.32-.95,2.95-.08.75-.12,1.19-.23,1.18s-.06-.44-.1-1.21c.08-.75.09-1.95.77-3.3.39-.61,1-1.31,1.8-1.67s1.79-.47,2.66-.49c1.86-.03,3.99.4,5.94,1.58.52.27,1.13.66,1.63,1.15s.87,1.07.9,1.83c.15.67-.26,1.5-.84,1.88-.58.38-1.13.43-1.69.59-2.1.33-4.02-.08-5.38-.65l.36-.29c.12.99-.08,1.84-.24,2.37s-.3.84-.29.73h0l.23-.09Z"/>
    <path class="cls-2" d="M613.06,667.3c.12-.1,2.25,2.52,3.27,6.43s.47,7.24.25,7.22"/>
    <path class="cls-25" d="M430.57,295.23h0c.63.15,1.18-.28,1.09-.86-.04-.79-.86-1.09-1.49-1.24-4.56-.97-8.95-3.12-12.8-5.69-3.47-2.27-6.72-5.04-9.68-8.08-2.77-2.88-5.02-6.09-7.27-9.29-1.34-1.88-2.76-3.88-3.97-5.84-.24-.39-.61-.7-.83-1.2l-.27,1.16c2.73-.69,5.58-1.47,8.41-2.14l-2.07-1.16c.33.97.76,1.96,1.2,2.96,5.34,11.84,15.17,21.62,27.58,25.67,1.74.63,1.69-1.49.24-1.95-4.15-1.31-8.01-3.34-11.41-5.92-4.83-3.59-8.73-8.3-11.75-13.47-.97-1.56-1.88-3.34-2.59-5.07-.22-.5-.43-.99-.65-1.49-.06-.24.08.13-.06-.24l.02-.11c-.22-.94-1.12-1.38-2.07-1.16-2.73.69-5.58,1.47-8.41,2.14-.47.11-.41.79-.27,1.16.27.73.81,1.3,1.21,1.96,4,6.18,8.13,12.28,13.51,17.33,6.28,5.94,14,10.99,22.6,12.8l-.27-.29Z"/>
    <path class="cls-25" d="M440.54,289.34h0c-1.84-.21-.63,1.74.55,1.91,4.45.49,9.42.66,13.74-1.1,3.43-1.31,6.02-4.26,6.02-8.05,0-.45-.04-.79-.07-1.13,0,0,0,.45,0,0s-.01-.89-.02-1.34c-.11-2.37-.39-2.94-.48-5.41l-2.02.08c2.12,1.39,4.22,2.89,6.24,4.26l-.54-1.02c.37,4.1.36,6.83-1.22,10.69-2.47,6.21-9.88,8.81-16,7.36-.53-.12-1.05.2-.96.78s.99,1.01,1.51,1.14c4.33,1.02,9.05.35,12.83-1.98,5.89-3.73,6.8-10.87,6.64-17.26-.09-.58-.24.66-.33.09-.25-.84-1.07-1.14-1.73-1.63-1.75-1.08-3.37-2.24-5.09-3.43-.4-.21-2.01-.92-2.02.08.06,2.58.42,3.28.48,5.85-.02.55.09,1.02.07,1.58,0,0,.05-.21-.02.11.06.24.03.34-.02.55.04,1.24-.36,2.48-.95,3.56-3.08,5.51-11.47,5.2-16.79,4.61l.18-.29Z"/>
    <path class="cls-25" d="M432.12,289.13h0c-.12-.92-2.6-1.73-2.54-1.04.23,1.39.46,2.78.69,4.17,1.66,9.97,3.29,20.05,4.84,29.99.04.79,1.28,1.19,1.91,1.34,1.95.24,4,.5,5.95.74.21.05.66.04.63-.3-.12-1.37-.35-2.76-.58-4.15-1.47-9.81-2.86-19.5-4.33-29.31-.17-.71-1.17-1.17-1.7-1.29l-6.44-1.52c-.42-.1-.87-.09-.78.48.11.47,1.01.91,1.54,1.03,2.11.5,4.33,1.02,6.44,1.52l-1.7-1.29c.12,1.37.35,2.76.58,4.15,1.47,9.81,2.86,19.5,4.33,29.31l.63-.3c-1.95-.24-4-.5-5.95-.74l1.91,1.34c-.23-1.39-.46-2.78-.69-4.17-1.66-9.97-3.29-20.05-4.84-29.99l.11.02Z"/>
    <path class="cls-25" d="M449.42,290.88h0c.25-1.06-2.29-2.1-2.59-.83-.19,1.29-.41,2.69-.74,4.06-1.71,9.62-3.45,19.35-5.17,28.97l2.53.6c-.29-2.07-.61-4.04-.9-6.11l-1.38-9.24-.46-3.23c-.06-.24-.19-.6-.14-.81-.03-.34-.07.32,0,0,.6-4.43,1.43-8.91,2.14-13.31l-.7.61c2.13-.05,4.36-.08,6.6-.11.66.04.81-.59.59-1.09-.3-.63-1.12-.93-1.77-.98-2.13.05-4.36.08-6.6.11-.34.03-.63.3-.7.61-.36,2.48-.85,5.03-1.22,7.51l-.68,4.29c-.02.55-.3,1.27-.21,1.84.13,1.81.52,3.46.78,5.2.75,4.85,1.5,9.71,2.16,14.43.12.92,2.23,1.86,2.53.6.19-1.29.41-2.69.74-4.06,1.74-9.73,3.45-19.35,5.17-28.97l.02-.11Z"/>
    <path class="cls-18" d="M669.03,894.83c1.83,2.57,2.57,3.11,4.38,5.57,2.09,2.86,1.67,5.78-1.09,8.51-2.38,2.34-5.89,4.43-9.12,5.58-4.15,1.52-8.71,2.56-12.86,4.08-3.53,1.32-14.7,4.92-17.9,6.95-4.88,3.17-8.42,3.72-11.13,3.92-.75.12-1.18.18-1.66-.07-1.36-1-1.81-2.46-.67-4.28,1.61-2.33,5.03-1.55,6.41-3.96.25-.48.4-.94.78-1.33.65-.76,1.7-1.03,2.62-1.5,4.64-1.93,3.46-3.83,8.86-7.96,1.56-1.23,12.03-15.8,13.34-17.21"/>
    <path class="cls-18" d="M658.31,860.41c-.72-2.52-2.3-12.7-4.7-19.67-1.42-4.17-5.06-14.9-8.97-22.41-.94-1.83-2.75-4.29-4.44-6.66-10.48,4.59-21.13,8.77-32.18,11.8,15.66,28.07,41.93,78.51,40.54,80.15-6.9,7.87-12.56,15.88-12.56,15.88,0,0,1.62,1.94,8.41-.98,6.79-2.92,28.43-18.24,28.43-18.24l-7.35-9.17-7.17-30.59h0l-.02-.11Z"/>
    <path class="cls-18" d="M703.56,914.91s-32.2,17.24-39.57,17.34c-7.37.11-4.88-3.9-4.88-3.9,0,0,19.51-19.4,21.36-22.87,1.08-1.95-4.66-60.82-8.13-90.95-2.38-21.03-2.71-37.72-2.71-37.72l34.04,3.25,3.69,30.68,1.52,5.85c.76,3.04,1.84,8.46,2.06,11.6.65,8.56,1.3,22.87.98,27.21-.54,7.37-5.2,25.58-5.42,28.19l-3.47,23.09.65,8.35h0l-.11-.11Z"/>
    <path class="cls-18" d="M703.02,902.23c-.22,3.14.87,7.7,1.63,14.42.33,2.93,2.71,7.15-.33,9.32-5.42,3.79-12.03,2.38-14.42,2.93-5.2,1.3-9.43,1.3-14.42,2.93-5.1,1.73-6.07,2.06-11.71,2.49-.76,0-1.63,0-2.28-.33-.43-.22-.76-.54-1.3-.87-1.63-.76-3.58.33-5.42,0-.76,0-1.52-.43-2.28-.76-1.95-.76-4.12-.98-6.18-1.41-2.06-.43-4.23-1.08-5.64-2.49s-2.06-3.69-.76-5.31c1.84-2.38,4.34-.98,6.83-1.19,2.49-.22,3.47-.65,5.75-1.63,5.75-2.71,6.61-3.14,11.38-5.31,3.79-1.63,14.74-6.72,20.05-10.41v-12.68"/>
    <path class="cls-22" d="M661.39,932.91q-.22,0-.33-.22s-.22-.22-.22-.33c-.11-.33-.22-.65-.22-.98s0-.54.22-.87c0,0,.11-.22,0-.11,0,0,0-.11.11-.22,0-.11.22-.22.33-.33h0l.22-.22c.11-.11.11,0,.22-.22h.11s-.11,0,0,0c.33-.22.65-.33.98-.54h0s.22,0,.22-.11c.22,0,.33-.11.54-.22.33-.11.65-.22.98-.43.22,0,.98-.43.65-.76-.33-.33-1.19,0-1.52,0-1.3.54-2.49,1.08-3.69,1.84-.98.65-1.95,1.73-1.84,3.04,0,.76.54,1.41,1.19,1.63.54.11,1.19,0,1.63-.22.22-.11.76-.54.22-.76h.22Z"/>
    <path class="cls-22" d="M654.89,932.47q.22,0,0,0c.11,0,.22,0,0,0-.11,0,.22,0,0,0h0s0,.11,0,0v-.11s-.11-.22,0,0,0,0,0-.11v-.65h0v-1.41c0-.22,0,0,0,0,0,0,0-.22.11-.33,0,0,0-.22,0,0s0-.11.11-.22c0,0,.11-.22.22-.22h0c.22-.11.33-.22.54-.33-.22,0,0,0,0,0,0,0,.22-.11.33-.22.22,0,.43-.22.54-.22s0,0,0,0h.11c.11,0,.22,0,.33-.11.54-.22,1.08-.43,1.63-.76,0,0,.43-.11.22,0,.11,0,.22,0,.33-.11,0,0,.43,0,.11,0h.43c.54,0,1.19-.43,1.3-.98,0-.65-.65-.87-1.08-.87-1.3,0-2.38.65-3.58,1.08,0,0-.22,0,0,0h-.22c-.11,0-.22,0-.33.11-.33.11-.65.22-.98.43-.54.22-1.08.54-1.52.98-.76.65-1.19,1.41-1.41,2.38-.11.76-.22,1.52,0,2.28.33,1.08,1.19,1.63,2.28,1.63.54,0,1.19-.43,1.3-.98,0-.65-.65-.87-1.08-.87h0l.33-.43Z"/>
    <path class="cls-22" d="M651.74,931.72c-.87-.33-1.08-1.3-1.19-2.06s.43-1.52.98-2.06c.22-.22.65-.54.87-.65,0,0,.33-.22.54-.33,0,0,.22,0,.33-.22,0,0,.33-.22.22,0s.22,0,.22,0c0,0,.22,0,.33-.11.22,0,.43-.22.65-.22,0,0,.43-.11,0,0h.33l.54-.22c-.22,0,.43,0,0,0,.43,0,1.19-.22,1.41-.76s-.76-.43-.98-.33c-.33,0-.65.11-.87.22-.22,0-.33.11-.54.22.22,0,0,0-.11,0-.43.11-.87.33-1.3.43-.87.33-1.73.76-2.49,1.3-1.3.87-2.6,2.17-2.38,3.9,0,.98.65,1.84,1.63,2.17.54.22,1.19,0,1.63-.22.22-.11.76-.54.22-.76h0v-.33Z"/>
    <path class="cls-22" d="M647.95,931.06c-1.08-.54-1.84-1.52-2.06-2.71-.11-.98.22-1.73.98-2.38.33-.33.76-.54,1.19-.76,0,0,.22,0,.22-.11,0,0,.22,0,.33-.11.11,0,.22,0,.33-.22h.22c-.11,0,0,0,0,0,.43-.22.87-.33,1.3-.43.22,0,.54-.22.76-.22l.43-.22s-.65,0-.33,0c.54,0,1.19-.22,1.63-.43.33-.22.33-.43-.11-.43-1.19,0-2.38.54-3.47.87-.87.33-1.84.65-2.71,1.08s-1.84.98-2.49,1.73c-.65.76-.87,1.52-.65,2.49.22,1.19,1.08,2.17,2.17,2.71.43.22,1.08,0,1.52-.22,0,0,1.08-.43.76-.65h0Z"/>
    <path class="cls-22" d="M674.18,909.38c.33-.11.22,0,0,0-.22.11-.54.22-.76.43-.87.43-1.73.98-2.71,1.41-2.71,1.41-5.53,2.93-8.35,4.23-3.04,1.52-6.07,2.93-9.11,4.12-1.19.54-2.49.98-3.79,1.3-.43.11-.87.22-1.3.33h-.65q-.22,0-.11,0c-3.36-.22-7.81-.87-9.21,3.14-.33.87,2.06.65,2.38-.22.98-2.71,4.66-1.19,6.94-1.52,2.38-.22,4.77-1.3,6.94-2.17,5.85-2.38,11.49-5.2,17.02-8.24,1.41-.76,2.82-1.52,4.23-2.28.43-.22.54-.76.22-1.08-.43-.33-1.3,0-1.63.22h0l-.11.33Z"/>
    <path class="cls-6" d="M723.56,573.56c1.32,1.99,1.39,4.61.1,6.55-1.17,1.84-4.51,2.59-3.26,5.34.55,1.04,1.55,1.9.66,3.12-.88,1.11-2.33,1.51-3.31,2.61-2.1,2.4-.5,4.96-.23,7.6-.05.54-.03,1.41-.4,1.81s-1.05.66-1.43,1.16c-.26.41-.65,1.02-.7,1.56l-.02.22c.97.1,1.31.02.92-.45.05-.54.07-.65.44-1.15.76-1.01,1.91-1.66,2.46-2.8.44-1.15.24-2.37-.31-3.41-.34-.91-1.11-1.96-.58-2.89.41-.83,1.66-1.36,2.38-1.94s1.44-1.27,1.64-2.23c.25-1.39-.74-2.36-.83-3.68-.1-1.21,1.18-1.95,1.91-2.75.97-.99,1.4-2.04,1.44-3.45,0-.98-.23-1.99-.14-2.96.09-.86.39-1.7.8-2.53.82-1.66,1.96-3.18,3.09-4.7,1.25-1.62-1.6-2.45-2.6-1.24-2.13,2.73-4.39,5.66-4.53,9.24-.15,1.51.66,3.12-.44,4.31-.86,1-1.92,1.77-2.38,3.03-.58,1.47.3,2.43.59,3.87.2,1.22-.83,1.77-1.77,2.44s-1.78,1.45-2.21,2.5c-.47,1.37.17,2.63.7,3.88.81,1.72.41,2.44-.91,3.61-.97.99-2.2,2.39-1.59,3.87.43,1.13,1.57,1.68,2.66,1.69.54.05,1.22-.2,1.69-.59.71-.58.66-1.13,1.06-1.85s1.08-.98,1.58-1.58c.38-.51.65-1.02.7-1.56.38-1.6-.13-3.06-.51-4.63-.45-2.01-.13-3.06,1.61-4.09,1.28-.85,2.58-1.81,2.96-3.4.08-.75-.07-1.42-.34-2-.17-.45-1.07-1.31-1.01-1.85s1.53-1.15,2.01-1.54c.49-.5.97-.99,1.36-1.61,1.57-2.57,1.69-5.93-.02-8.39-.85-1.28-3.89-.29-2.95,1.12h0l-.3-.25Z"/>
    <path class="cls-6" d="M715.24,570.76c1.32,1.99,1.39,4.61.09,6.66-1.17,1.84-4.51,2.59-3.25,5.23.54,1.14,1.65,2.02.55,3.22-.97.99-2.33,1.51-3.31,2.61-2,2.52-.08,5.11-.14,7.83-.05.54-.12,1.19-.49,1.59s-.93.56-1.31,1.07c-.24.19-.9,1.33-.71,1.67l1.11-.21-.19-.24.09-.86c.02-.22.26-.41.38-.51.85-.89,1.9-1.55,2.36-2.81.44-1.15.11-2.17-.43-3.31-.44-1.03-1.19-2.19-.55-3.22.52-.82,1.65-1.25,2.38-1.94s1.34-1.39,1.55-2.35c.13-1.29-1.05-2.5-.81-3.79.11-1.08,1.5-1.92,2.12-2.62.98-1.1,1.31-2.16,1.14-3.7-.14-1.87-.08-3.5.75-5.26s1.97-3.29,3.2-4.69c.5-.6-.2-1.22-.84-1.39-.74-.18-1.65.16-2.15.76-2.13,2.73-4.29,5.78-4.42,9.25-.06,1.63.57,3-.76,4.28-.85.89-1.91,1.66-2.25,2.82-.47,1.37.42,2.33.61,3.66s-1.07,1.96-1.9,2.64c-.94.67-1.78,1.45-2.01,2.63-.36,1.38.38,2.65.91,3.91.16.56.43,1.13.38,1.67-.08.75-1,1.31-1.49,1.81-.96.88-1.98,2.31-1.46,3.67.43,1.13,1.57,1.68,2.66,1.69.65.07,1.33-.19,1.81-.69.72-.69.58-1.47,1.09-2.18.37-.4,1.05-.66,1.43-1.16.49-.5.78-1.23.84-1.88.15-1.51-.26-2.86-.54-4.3-.24-.9-.45-2.01.07-2.83.28-.63.97-.99,1.56-1.37,1.28-.85,2.58-1.81,2.96-3.4.08-.75-.08-1.32-.34-2s-1.27-1.44-.87-2.16c.27-.52,1.39-.84,1.76-1.24.49-.5.97-.99,1.36-1.61,1.57-2.57,1.69-5.93-.02-8.39-.75-1.17-3.9-.18-3.05,1.11h0l.18.35Z"/>
    <path class="cls-6" d="M707.31,567.34c1.42,2.11,1.35,4.93.15,7.1-.66,1.13-1.58,1.58-2.53,2.36-1.06.76-1.15,1.63-.5,2.78.74,1.27,1.41,2.21.29,3.62-.86,1-2.33,1.51-3.2,2.51-2.08,2.29.13,5.13-.03,7.84-.08.75-.25,1.39-.84,1.88-.48.39-1.04.55-1.31,1.07s-.16.53-.29.73l-.04.43c-.41.83.02.87,1.51.15,0,0-.41-.26-.51-.38-.28-.46-.23-1-.07-1.42.56-1.25,1.92-1.77,2.58-2.9s.24-2.37-.19-3.51c-.44-1.03-1.1-2.07-.55-3.22.43-1.05,1.58-1.58,2.4-2.15.71-.58,1.43-1.16,1.51-2.03.25-1.39-.85-2.37-.83-3.68s1.42-2.14,2.16-3.05c1.1-1.2,1.2-2.17,1.03-3.71-.37-3.85,1.8-7.01,4.17-9.93.38-.51-1.05-.43-1.26-.45-.54-.05-1.54.17-1.92.68-2.12,2.62-4.4,5.77-4.32,9.26-.08.75.27,1.66.19,2.42s-.58,1.47-1.08,2.07c-.73.8-1.78,1.45-2.12,2.62-.47,1.37.62,2.46.71,3.78.07,1.42-1.31,2.16-2.25,2.82-.82.57-1.65,1.25-1.87,2.32-.24,1.28.51,2.45.94,3.58.7,1.71-.06,2.72-1.27,3.9-.84.79-2.06,2.08-1.32,3.35.56.93,1.75,1.05,2.74.93.55-.05,1.33-.19,1.8-.58.7-.47.54-1.03.94-1.76s1.08-.98,1.57-1.48c.37-.4.52-.82.68-1.35.38-1.6-.33-3.19-.61-4.75-.36-1.78.1-3.15,1.62-4.19,1.17-.75,2.67-1.58,2.93-3.08s-1.8-2.69-1.32-4.17c.29-.73,1.31-1.07,1.78-1.45s.96-.88,1.34-1.39c1.66-2.45,1.67-5.71.05-8.06-.47-.7-3.5.08-3.02.78h0l.14-.31Z"/>
    <path class="cls-6" d="M726.84,575.64c-4.19,3.72-12.43,5.5-17.91,6.9-5.59,1.4-7.77,1.39-12.92-.44-10.21-3.54-19.62-9.61-26.15-18.34-6.83-8.97-9.94-20.18-8.89-31.63.81-7.98,5.03-14.2,8.35-21.16.51-.71,3.41-4.67,3.91-5.27,11.15-9,12.11-11.96,26.54-9.19,8.88,1.66,17.94-.69,28.91,9.36,2.39,2.2,4.13,6.52,6.98,9.64,4.31,4.79,8.41,11.64,8.83,17.13.71,8.03-2.72,17.16-5.88,25.77-2.4,6.51-6.38,12.43-11.64,17.02h0l-.13.2Z"/>
    <path class="cls-18" d="M652.48,549.25c1.22-4.56,4.74-11.29,6.67-13.16.76-2.1,1.54-4.42,2.6-7.36.3-.84.6-1.57.9-2.42.26-.41.41-.83.45-1.26,5.76-13.8,13.17-19.26,13.17-19.26,9.43-7,21.89-8.46,32.63-3.78,12.76,5.22,21.44,17.43,24.44,27.64,1.56,5.06,1.12,10.46-1.11,15.25-1.94,4.05-7.5,7.3-10.3,11.38,4.53,1.55,9.84,5.03,5.04,12.61-6.63,10.55-15.54,8.23-18.42,4.35-4.77,4.09-6.38,7.09-7.78,10.11-1.51,3.12-3.05,9.71-2.99,11.25l6.97,6.48c-15.7,11.92-48.84,18.59-49.83-9.3l6.17-4.93,1.97-6.56c-.32-.03.32.03-3.81-3.22-12.2-10.82-8.28-22.63-6.86-28.04h0l.09.23Z"/>
    <path class="cls-22" d="M662.27,582.72l1.01-2.4s14.08,7.31,26.56,3.45c0,0-9.39,4.5-17.17,2.73s-10.4-3.78-10.4-3.78h0Z"/>
    <path class="cls-19" d="M731.67,606.52s-11.44-9.66-17.29-12.21c-8.36-3.57-14.93-7.5-14.93-7.5,0,0-10.7,17.44-26.93,15.25-20.2-2.81-11.22-15.08-11.22-15.08,0,0-17.88,4.4-26.19,10.1-6.8,4.76-15.69,19.33-7.23,33.7s81.44,22.09,81.44,22.09c0,0,11.38-17.7,15.01-27.68,3.63-9.98,7.24-18.77,7.24-18.77h0l.1.12Z"/>
    <path class="cls-19" d="M650.98,638.23s-13.78,3.73-33.92-6.16c0,0,2.58-20.11,13.13-29.61,10.55-9.5,18.07-5.25,18.07-5.25,0,0,12.64,3.24,2.71,41.03h0Z"/>
    <path class="cls-27" d="M619.53,669.04h0c.12-1.19.24-2.37.49-3.76.9-6.77,5.16-21.92,6.09-28.91,3.77-9.21,9.43-29.66,17.85-43.95.11.01.33-.08.45-.17,1.24-.42,6.02-2.44,9.49-3.29-1.91,2.75-7.12,10.07-6.86,19.35.18,4.7-1.7,6.04,3.13,8.92,5.74,3.52,22.62,5.78,29.06,4.58,2.89-.58,5.49-1.51,7.53-3.38,2.39-2.05,3.87-4.84,5.12-7.54,1.81-3.85,3.71-7.58,6.25-11.13,2.29-3.25,4.99-6.25,7.79-9.13,3.45,1.44,8.54,3.92,12.07,5.58-6.32,1.1-8.21,5.71-10.65,10.47-3.25,6.32-8.41,17.45-7.17,25.64.64,4.42.35,7.34,2.34,11.35,1.54,3.1.64,2.24,3.25,4.47,3.7,3.32,7.19,5.41,11.99,6.44,2.23.55,1.96-.02,2.61,2.23.31,1.23.28,2.64.26,3.84.36,7.23-.05,14.49-.23,21.66h0c.31,5.59,7.15-3.85,7.59,5.78l-.95,24.42c1.39,36.86-4.59,104.46-4.17,117.58-8.69,4.02-12.03-2.74-23.68,3.59-10.25,5.5-15.64,1.68-23.4-2.37s-14.56-3.65-25.24-1.47-16.34-4.38-22.34-5.31-6.43,1.09-18.96-1.05c-10.61-1.73-13.95-4.25-13.76-6.19-2.22-25.39-2.36-28.35-.25-41.65,5.56-35.5,17.53-68.72,24.11-106.84h0l.19.24Z"/>
    <path class="cls-6" d="M717.11,559.83s.94-2.85-.8.35c-.81,1.55,3.55-2.8,5.46-3.37.9-.24,1.79-.47,2.77-.48s1.96-.02,2.8.28c1.29.13,3.59,3.31,4.6,4.06.2.13-2.32,1.4-2.22,1.52,7.45-7.96,12.31-14.99,10.38-29.35-.56-4.2-4.42-10.15-5.54-12-7.03-11.28-15.94-15.78-27.76-19.59-13.61-4.43-26.94-4.04-35.68,6.96-2.12,2.62-1.22,2.38-2.3,5.54,0,0,.02-5.56,8.05-6.38,7.93-.83,9.18-.27,18.04,3.68,10.32,4.64,14.16,4.38,20.59,11.89,5.84,6.91,5.99,10.74,5.99,10.74-.3,1.93.15,3.94.15,6.01.02,1.96-.49,3.76-1.23,5.65-1.46,3.67-.27,2.7-2.36,6.08-1.2,2.17-3.81,6.37-2.2,8.82.75,1.17.04-.43,1.34-.3h0l-.1-.12Z"/>
    <path class="cls-18" d="M721.26,555.46c-.65-.07-4.46-4.37-5.27-3.91-2.98-21.11-27.13-41.97-47.96-34.28,1.65-2.34,4-7.22,4.83-7.9,10.09-9.22,22.72-9.14,35.07-5.27,12.36,3.87,25.53,13.7,27.8,28.86,2.21,14.72-1.1,25.93-14.6,22.6h0l.12-.1Z"/>
    <path class="cls-6" d="M716.38,534.81l.37-.4c.19,1.33.84,2.48,1.84,3.35.6.5,1.3,1.11,1.12,1.86-.02.22-.26.41-.28.63-.47,1.37,2.35,1.55,2.76,2.89.32,1.12-1.31,2.16-1.1,3.37.21,1.11,1.71,1.37,1.93,2.48.19,1.33-1.76,2.33-1.23,3.58.34.91,1.76.94,2.1,1.85.17.45-.09.86-.13,1.29-2.37-.24-4.89-.17-7.38-.31.16-.53.42-.94.68-1.35.26-.41.52-.82.45-1.26-.12-.99-1.64-1.04-2.21-1.86-.94-1.51,1.85-3.19,1.26-4.88-.33-1.01-1.7-1.48-1.82-2.47-.08-1.32,2.11-2.51,1.46-3.67-.18-.35-.6-.5-.89-.85-.59-.6-.6-1.59-.31-2.32.29-.73.9-1.33,1.5-1.92h-.11Z"/>
    <path class="cls-6" d="M716.48,534.82l.37-.4-.22-.02c.21,1.11.55,2.13,1.33,2.97.29.36.81.63,1.09,1.09.19.24.39.48.47.7.16.56-.3.84-.35,1.27-.12,1.19,1.92,1.5,2.49,2.32,1.25,1.65-2.04,2.95-.36,4.65.7.62,1.74,1.16,1.4,2.32-.3.84-1.12,1.41-1.32,2.26-.07.65.23,1,.73,1.38.41.26.94.42,1.23.78s.44,1.03.19,1.33-.68.26-1,.23c-1.4-.14-2.83-.07-4.23-.21-.43-.04-1.76.15-1.81-.4s.78-1.23.93-1.65c.74-1.89-2.77-1.7-2.24-3.71.35-1.27,2.12-2.62,1.28-4.01-.45-.92-1.93-1.39-1.59-2.56.1-.97,1.13-1.52,1.44-2.36.31-.95-.65-1.15-1.13-1.75-1.16-1.43.32-3.13,1.29-4.12l-.22-.02c-.84.79-1.81,1.78-1.73,3.09-.04.43.24.9.53,1.25.4.37,1.03.54,1.08,1.2.12.99-1.05,1.75-1.46,2.58-.42.94.17,1.54.76,2.15.89.85,1.14,1.64.59,2.78-.4.72-1.13,1.52-1.22,2.38s.74,1.27,1.36,1.66,1.23.78.91,1.73c-.29.73-.78,1.23-1.07,1.96h0c2.48.25,4.89.17,7.38.31l.22.02c.36-1.38-.04-1.75-1.17-2.41-1.54-.92-.57-1.91.09-3.04.52-.82.49-1.59-.2-2.31-.4-.37-1.01-.76-1.28-1.33-.26-.68.12-1.19.51-1.8.52-.82,1.04-1.64.24-2.37-.59-.6-1.55-.81-2.14-1.42s.11-1.08.17-1.73c.04-.43-.26-.68-.44-1.03-.48-.59-1.1-.98-1.48-1.57-.47-.7-.83-1.5-.96-2.39l-.22-.02-.37.4.22.02h0l-.09-.23Z"/>
    <path class="cls-6" d="M721.65,529.02c-.91.34-1.44,1.27-1.43,2.25.12.99.8,1.82,1.76,2.03-.85.89-.69,2.54.21,3.29.4.37.93.53,1.21.99.65,1.15-.81,2.64-.17,3.8.28.46.81.63.98,1.08.45.92-.41,1.92-.19,2.92.31,1.23,2.02,1.62,2.22,2.84.13.88-.51,1.8-.04,2.5.29.36.82.52,1,.86.28.46-.11,1.08-.37,1.49-.56,1.25.58,2.89,1.88,2.91-.3.84-.19,1.83.17,2.63.82-.57,1.76-1.24,2.29-2.17s.65-2.11.08-2.93c-.29-.36-.59-.6-.78-.95-.45-.92.54-2.12.09-3.04s-1.23-.78-1.38-1.45l.1-.97c.34-1.16-.51-2.45-1.68-2.79-.32-.03-.65-.07-.95-.31-.69-.72.61-1.68.49-2.67,0-.98-1.38-1.45-1.39-2.43.03-.32.17-.64.21-.96.05-.54-.12-.99-.4-1.46-1.18-2.3-2.59-4.51-3.91-6.61"/>
    <path class="cls-6" d="M721.55,528.9c-1.14.54-1.83,1.89-1.29,3.03.09.23.28.46.38.58.1.12.82.52.92.64.18.35-.32,1.06-.27,1.61-.05.54.21,1.11.6,1.59.29.36.6.5.91.75.7.62.75,1.17.56,2.02-.07.65-.56,1.25-.3,1.93.33,1.01,1.31,1,1.28,2.42-.08.75-.48,1.48-.22,2.16.17.45.68.83,1.08,1.2.51.38.91.75,1.06,1.41.16.56-.11,1.08-.16,1.62-.08.75.35.8.73,1.38.76,1.06-.2,1.94-.08,2.93.05.55.43,1.13.83,1.5s.84.3,1.12.77l-.12,1.19c-.04.43.14.78.32,1.12l.22.02c1.06-.76,2.22-1.52,2.68-2.78.16-.53.23-1.18.07-1.74-.26-.68-1.08-1.2-1.23-1.87-.31-1.23.87-2.09-.22-3.18-.3-.25-.72-.4-.91-.75-.27-.57.1-.97.15-1.51s-.11-1.1-.39-1.56c-.29-.36-.69-.72-1.11-.88s-.54-.05-.81-.63c-.47-.7-.13-.88.15-1.51.32-1.06-.07-1.42-.74-2.36s-.06-1.53-.3-2.43c-.15-.67-.62-1.37-.99-2.06-1.01-1.85-2.13-3.7-3.37-5.46,0,0-.32-.03-.23.09,1.03,1.63,1.96,3.25,2.99,4.88.46.81,1.34,1.88,1.45,2.87.04.66-.34,1.16-.19,1.83.17.45.69.72.86,1.18.56.93.07,1.42-.23,2.26-.29.73-.11,1.08.51,1.47,1.05.43,1.98.85,2.07,2.17.04.66-.35,1.27-.19,1.83.17.45.59.6.99.97.8.73.27,1.66.18,2.52-.14,1.4,1.54,2.01,1.28,3.51-.1.97-1,2.3-1.9,2.64-.25.3-.37.4-.54-.05-.2-.13-.29-.36-.27-.57-.06-.44.11-1.08.15-1.51h-.11c-1.08-.12-1.96-1.08-1.85-2.16.07-.65.55-1.14.62-1.79.03-.32-.06-.44-.26-.68-.1-.12-.31-.14-.41-.26-.29-.36-.56-.93-.51-1.47.09-.86.36-1.38-.32-2.21-.87-1.07-2.05-1.3-1.78-2.9.09-.86.49-1.59-.09-2.3-.48-.59-1-.86-.9-1.83.05-.54.31-.95.37-1.49.08-.75.12-1.19-.48-1.68s-1.23-.78-1.46-1.67c-.25-.79-.06-1.53.43-2.14v-.11c-1.99-.64-2.17-3.16-.33-4.17.11.01.02-.22-.2-.13h0l-.19-.24Z"/>
    <path class="cls-6" d="M724.33,527.22c-.89,1.22-.42,3.12.8,3.9.2.13.52.27.71.51.39.48.1,1.21.04,1.75-.14,1.4,1.17,2.41,2.53,2.98.84.3,1.88.84,1.79,1.71-.03.32-.17.64-.11,1.08.13.88,1.74,1.16,1.64,2.13s-.51.71-.55,1.14c-.09.86,1.19,1.21,1.65,2.02.18.35.14.78.1,1.21-.13,1.29-.36,2.47-.6,3.75-.03.32-.07.65.13.88.4.37.99-.12,1.36-.52,1.76-2.33,2.92-5.15,3.33-8.16.08-.75.06-1.63-.68-1.92-.22-.02-.54-.05-.73-.29-.3-.25.08-.75.11-1.08.8-1.44-.19-3.51-1.79-3.89-.43-.04-.97-.1-1.14-.55-.19-.24.05-.54-.02-.87-.03-.77-.74-1.27-1.48-1.57s-1.48-.48-2.08-.97c-.7-.62-.91-1.73-1.73-2.25-1.02-.65-2.49-.14-3.16-1.08"/>
    <path class="cls-6" d="M724.12,527.2c-.4.72-.6,1.57-.25,2.48.24.9.86,1.18,1.46,1.67,1,.86.11,2.19.75,3.34.46.81,1.39,1.34,2.22,1.75.52.27,1.05.43,1.34.79.69.72.11,1.1.14,1.87.13.88,1.1.98,1.46,1.67.35.8-.68,1.35-.22,2.16.18.35.6.5.91.75.81.63.73,1.38.64,2.24l-.22,2.16c-.05.54-.34,1.16-.17,1.73s.47.7,1.03.54c.68-.26,1.22-1.29,1.61-1.91.66-1.13,1.33-2.37,1.68-3.64.34-1.16.8-2.53.81-3.73.08-.75-.23-1-.83-1.5l-.22-.02c-.39-.48-.46-.81-.2-1.22l.03-.32c.15-.42.09-.86.14-1.4-.14-.78-.6-1.59-1.31-2.09-.3-.25-.73-.29-1.06-.32-.73-.29-.82-.52-.85-1.28l.03-.32c-.33-1.01-1.5-1.35-2.33-1.76-.84-.3-1.34-.79-1.69-1.59-.28-.46-.45-.92-.86-1.18-1-.86-2.59-.26-3.47-1.22,0,0-.32-.03-.24.19.39.48.92.64,1.56.7.75.08,1.4.14,1.99.75.4.37.56.93.95,1.4.47.7,1.1.98,1.83,1.28.42.15.95.31,1.35.68.7.62.43,1.13.69,1.81.16.56.59.6,1.02.65,1.27.35,2.17,1.2,2.25,2.52-.07.65-.22,1.07-.5,1.69l-.05.54c.08.33.19.24.4.37.19.24.32.03.71.51.5.49.47.7.41,1.35-.24,2.37-1.26,4.88-2.45,6.94-.14.31-.38.51-.52.82-.39.61-.29.73-1.03.44s-.51-.38-.43-1.13l.09-.86c.1-.97.68-2.44.34-3.34-.27-.57-.8-.73-1.19-1.21-.99-.97.47-1.37.02-2.39-.17-.45-.8-.73-1.2-1.1-.8-.73.16-1.62-.41-2.44-.47-.7-1.43-.91-2.16-1.31-.61-.39-1.23-.78-1.59-1.47-.46-.81-.19-1.33-.12-2.08s-.33-1.01-.95-1.4c-1.22-.89-1.6-2.45-.81-3.79.01-.11-.2-.13-.22-.02h0l-.36.29Z"/>
    <path class="cls-6" d="M727.01,526.62c1.38,1.45,4.27-.22,5.53,1.32.58.71.67,2.03,1.63,2.23.43.04.88-.13,1.29.13.83.41.04,1.75.29,2.54.32,1.12,2.06,1.19,2.49,2.32.08.33.04.66.12.99.16.56.66,1.05,1.06,1.41s.76,1.06.48,1.68c2-1.43,2.73-4.41,1.65-6.59-.09-.23-.28-.46-.26-.68l.08-.75c.35-1.27-.17-2.63-1.05-3.59-.3-.25-.7-.62-.88-.96-.16-.56.13-1.29.19-1.83.15-1.51-1.72-2.35-2.35-3.72-.27-.57-.32-1.12-.59-1.69s-.65-1.15-1.26-1.54c-.41-.26-1.03-.54-1.51-.15-.35.18-.39.61-.63.81-.62.7-1.67.38-2.51.07s-1.89-.74-2.59-.26c-1.06.76-.68,2.44-1.34,3.57-.27.52-.84.79-1,1.31-.27.52-.22,1.07-.15,1.51.02.87.03,1.86.05,2.73"/>
    <path class="cls-6" d="M726.9,526.61c1.2,1.1,2.78.5,4.29.65,1.29.13,1.54.92,1.98,1.94.37.69.68.83,1.31,1,.96.21,1.27.35,1.19,1.21l-.1.97c.04.66.55,1.04,1.06,1.41.41.26.72.4,1.02.65.5.49.33,1.01.6,1.59.33,1.01,1.91,1.61,1.45,2.87-.01.11.22.02.22.02,1.06-.76,1.84-1.99,2.08-3.28l.17-1.73c-.14-.78-.61-1.48-.64-2.24s.15-1.51.01-2.29c-.15-.67-.41-1.35-.9-1.83-.19-.24-.4-.37-.7-.62-.5-.49-.56-.93-.38-1.67s.12-1.19-.03-1.86c-.27-.57-.78-.95-1.16-1.43-.69-.72-1.07-1.31-1.29-2.31-.32-1.12-1.06-2.4-2.24-2.62-.32-.03-.65-.07-.88.13s-.25.3-.49.5-1.26.63-1.49.72c-.32-.03-.75-.08-1.06-.32-.95-.31-2.09-.87-2.93-.08-1.18.86-.72,2.76-1.6,3.98-.5.6-.86,1-.95,1.86-.11,1.08-.01,2.29.09,3.39-.01.11.32.03.32.03-.05-1.64-.5-3.65.61-4.95.86-1,.83-1.77,1.17-2.93.03-.32.07-.65.41-.83.25-.3,1.46-.4,1.89-.35.22.02.43.04.53.16.53.16,1.05.43,1.69.5.32.03.65.07.88-.13.45-.17.49-.5.84-.79,1.07-.87,2.06.1,2.62,1.03.27.57.41,1.35.68,1.92.43,1.13,1.57,1.68,2.12,2.72.65,1.15-.46,2.35.42,3.42.5.49,1,.86,1.38,1.45.35.8.49,1.58.41,2.44-.08.75-.1.97.16,1.65s.52,1.36.55,2.13c.05,1.64-.77,3.3-2.08,4.37l.22.02c.32-1.06-.49-1.58-1.08-2.29s-.38-1.67-1.06-2.4c-.7-.62-1.88-.84-1.99-1.84-.15-.67.39-1.7-.09-2.3-.19-.24-.31-.14-.52-.27-.53-.16-.58.38-1.29-.13-.2-.13-.29-.36-.48-.59-.37-.69-.51-1.47-1.34-1.88-1.55-.81-3.64.39-5.03-.94,0,0-.32-.03-.23.09h0l-.33.08Z"/>
    <path class="cls-6" d="M722.12,524.38c-.78-.95-.51-2.45.53-3.11.35-.18.8-.35.84-.79.02-.22-.08-.33-.17-.45-.44-1.03.23-2.26,1.24-2.6.22.02.44-.06.68-.26.82-.57.22-2.16,1.02-2.51.79-.25,1.33.9,2.09.87.75.08,1.2-1.08,1.98-1.22,1.1-.11,1.99,1.84,3.04,1.18.46-.28.34-1.16-.06-1.53s-1.02-.65-1.53-1.03c-1.22-.89-1.58-2.67-2.55-3.85-.96-1.3-2.51-2.11-3.97-2.8-.63-.28-1.25-.56-2.01-.64-1.08-.11-2.14.66-2.46,1.71-.02.22-.04.43-.27.52l-.32-.03-1.83-.19c-.22-.02-.54-.05-.67.15-.36.29-.1.97.42,1.24s1.03.54,1.09,1.09c0,.98-1.83.9-2.15,1.85-.21.96,1.59,1.47,1.49,2.55-.07.65-.85.89-1.03,1.53s.2,1.22.71,1.6,1.01.76,1.28,1.33c.17.45.13.88.18,1.43.07,1.42,1.15,2.62,2.13,3.7"/>
    <path class="cls-6" d="M722.34,524.3c-.38-.58-.54-1.14-.35-1.89.04-.43.29-.73.65-1.02.24-.19.57-.27.82-.57s.26-.41.08-.75c-.14-.78-.41-1.35.21-2.05.64-.92,1.8-.58,2.03-1.76.03-.32,0-.98.13-1.29.13-.2.69-.37,1.01-.33.22.02.3.25.52.27s.3.25.52.27c.73.29,1.1-.11,1.69-.59,1.33-1.28,1.92.41,3.08.75.43.04.87-.02,1.13-.43.43-1.05-.81-1.72-1.42-2.11-1.13-.66-1.67-1.8-2.21-2.95s-1.32-1.99-2.35-2.63c-1.64-1.04-4.1-2.59-5.96-1.37-.36.29-.6.59-.97.99-.25.3-.39.61-.84.79s-1.08-.11-1.4-.14c-.54-.05-1.32.08-1.17.75.24.9,2.79,1.48,1.05,2.5-.46.28-1.24.42-1.52,1.04-.3.84.73,1.38,1.23,1.87.86,1.18-1.16,1.74-.63,2.99.27.57.78.95,1.17,1.32.81.63.74,1.27.86,2.27.18,1.43,1.15,2.62,2.13,3.7,0,0,.32.03.22.02-.88-.96-1.76-2.03-2.07-3.26-.21-1.11-.03-1.86-.92-2.71-.5-.49-1.22-.89-1.37-1.56-.14-.78.65-1.02.93-1.65s-.11-1.1-.51-1.47c-.3-.25-.71-.51-.78-.95-.26-.68.31-.95.89-1.22.45-.17,1.13-.43,1.19-.97s-.06-.44-.26-.68c-.3-.25-1.25-.56-1.31-1,.02-.22.51-.71.73-.8l.54.05,1.08.11c.22.02.32.03.56-.16s.4-.72.54-1.03c.77-1.12,2.08-1.21,3.34-.75,1.15.44,2.39,1.11,3.51,1.88,1.81,1.49,1.98,4.12,4.04,5.31.41.26,1.55.81,1.38,1.45-.01.11-1.04.55-1.14.54s-.22-.02-.2-.13c-.2-.13-.4-.37-.6-.5-.4-.37-.92-.64-1.49-.37-.33.08-.57.27-.7.47-.36.29-.82.57-1.25.53-.32-.03-.61-.39-.82-.52-.41-.26-.83-.41-1.19-.12-.95.78.13,1.97-1.35,2.59-.8.35-1.39.84-1.48,1.7l-.05.54c.05.55.18.35-.1.97-.28.63-.27.52-.63.81s-.25.3-.38.51c-.52.82-.51,1.8.06,2.62,0,0,.32.03.22.02h0l-.12.1Z"/>
    <path class="cls-6" d="M720.15,526.58c.47-1.37-1.51-2.33-2.26-3.5-.56-.93-.42-2.33-1.2-3.17-.59-.6-1.54-.92-1.68-1.7-.06-.44.1-.97.14-1.4.19-1.83-2.77-2.79-2.59-4.51.16-1.62,2.66-2.56,2.27-4.13-.17-.45-.56-.93-.62-1.37-.12-.99,1.13-1.52,2.14-1.74,1.34-.3,2.78-.59,4.12-.89-1.84-2.26-4.29-3.92-7.03-4.85-1.06-.32-2.12-.54-3.13-.32-1.01.33-1.88,1.34-1.76,2.33-.03.32.16.56.13.88-.03,1.41-2.4,2.15-1.87,3.41.08.33.39.48.46.81.34.91-.83,1.77-.6,2.66.14.78,1.2,1.1,1.56,1.79.28.46.24.9.29,1.45.15.67.53,1.25.9,1.83,1.14,1.64,2.19,3.16,3.33,4.8.75,1.17,1.62,2.34,2.88,2.8-.26,2.59,1.99,5.1,4.59,5.26"/>
    <path class="cls-6" d="M720.27,526.48c.09-.86-.18-1.43-.77-2.04-.5-.49-1-.86-1.38-1.45-.47-.7-.51-1.47-.75-2.26-.17-.45-.35-.8-.65-1.15-.5-.49-1.34-.79-1.58-1.58-.15-.67.25-1.39.1-2.06-.18-.35-.37-.69-.66-1.05-.68-.83-1.81-1.49-1.92-2.59-.08-1.32,1.3-2.05,1.95-3.07s.14-1.4-.08-2.41c-.54-2.23,4.51-2.59,6.08-2.98,0,0,.22.02.01-.11-2.14-2.51-5.47-5.13-8.95-5.26-1.08-.11-2.32.31-2.96,1.23-.38.51-.32,1.06-.27,1.61.19,1.33-.39,1.7-1.24,2.6-.25.3-.6.59-.65,1.02-.08.75.65,1.15.57,1.91-.07.65-.66,1.13-.63,1.9-.07.65.56.93.96,1.3.8.73.72,1.49,1.06,2.4s1.02,1.74,1.59,2.56c1.24,1.76,2.35,3.72,3.82,5.29.59.6,1.43.91,1.68,1.7s.28,1.55.75,2.26c.84,1.39,2.27,2.3,3.89,2.46.11.01.35-.18.02-.22-2.59-.26-4.54-2.53-4.49-5.14h0c-1.47-.58-2.32-1.87-3.17-3.15s-1.81-2.58-2.66-3.87c-.38-.58-.86-1.18-1.12-1.86-.17-.45-.12-.99-.4-1.46-.44-1.03-2.04-1.4-1.68-2.79.31-.95.79-1.34.45-2.24-.27-.57-.56-.93-.05-1.64.26-.41.72-.69.98-1.1.73-.8.55-1.14.43-2.14-.24-2.97,3.74-2.45,5.51-1.73,1.36.57,2.6,1.24,3.71,2.12.51.38.91.75,1.3,1.11-.3-.25.89.85.88.96-.05.54-.7.47-1.14.54-1.23.31-4.51.41-4.79,2.13-.11,1.08,1.01,1.85.24,2.97-.52.82-1.33,1.28-1.74,2.11-.79,1.34.3,2.43,1.18,3.39.39.48.88.96,1.04,1.52.15.67-.13,1.29-.2,1.94.23,1,1.4,1.23,1.86,2.04.75,1.17.51,2.45,1.4,3.41.79.84,2.12,1.63,1.78,2.9-.01.11.22.02.22.02h0l.44-.06Z"/>
    <path class="cls-6" d="M716.75,527.87c-2,.34-4.16-.86-4.84-2.78-.26-.68-.3-1.34-.57-1.91-.91-1.73-3.24-2.4-4.05-4.11-.44-1.03-.22-2.09-.66-3.12-.77-2.04-3.43-2.74-4.09-4.77-.16-.56-.11-1.1-.39-1.56-.46-.81-1.3-1.11-1.89-1.83-.67-.94-.31-2.32-.98-3.26-.38-.58-1.11-.88-1.38-1.45-.43-1.13.79-2.43.35-3.45-.17-.45-.69-.72-.87-1.07-.55-1.04.54-2.12,1.66-2.45,1.35-.41,2.86-.26,4.26-.11l.97.1c1.73.17,3.66.48,4.37,2.08.18.35.26.68-.1.97-.12.1-.35.18-.45.17-1.22.2-2.55.4-3.77.6.81.63.46,1.9-.07,2.83s-1.18,1.95-.62,2.88c.28.46.79.84.85,1.28-.04.43-.29.73-.34,1.16-.23,1.18,1.23,1.87,2,2.82s.72,1.49,1.08,2.29c.34.91.91,1.73,1.38,2.54.47.7.94,1.51,1.41,2.21,1.31,2.09,2.52,4.18,3.95,6.18.95,1.4,2,2.82,3.18,4.14"/>
    <path class="cls-6" d="M716.76,527.76c-2.43.3-4.24-1.19-4.88-3.44-.4-1.46-1.08-2.29-2.29-3.17-.6-.5-1.33-.9-1.8-1.6-.67-.94-.57-1.91-.79-2.91-.3-1.34-1.19-2.19-2.2-3.06-.6-.5-1.21-.99-1.69-1.59-.46-.81-.38-1.67-.84-2.48-.27-.57-.89-.85-1.39-1.34-.89-.85-.8-1.82-1.13-2.84-.16-.56-.45-.92-.95-1.4-1-.86-1.06-1.41-.71-2.69.16-.53.34-1.16.17-1.73-.44-1.03-1.4-1.23-.62-2.46,1.15-1.63,3.72-1.26,5.45-1.08,1.08.11,2.16.22,3.22.44.74.18,3.32,1.64,1.7,2.57-.46.28-1.33.19-1.89.35-.66.04-1.22.2-1.89.35,0,0-.22-.02-.01.11,1.09,1.09-.04,2.5-.59,3.65s-.38,1.6.18,2.52c.28.46.35.8.3,1.34-.03.32-.27.52-.2.85s.16.56.34.91c.76,1.06,1.81,1.49,2.23,2.73,1.13,2.84,2.83,5.41,4.41,8.07,1.78,2.9,3.68,5.6,5.92,8.23,0,0,.32.03.22.02-2.82-3.34-5.17-7.06-7.41-10.77-1.12-1.86-2.03-3.58-2.93-5.53-.26-.68-.54-1.14-1.03-1.63-.7-.62-1.62-1.25-1.51-2.33.05-.54.42-.94.26-1.5-.34-.91-1.08-1.2-.85-2.37.08-.75.79-1.34,1.08-2.07.28-.63.11-1.08.17-1.73.05-.54-.29-.36.49-.5.45-.17.99-.12,1.45-.29.55-.05,1.21-.1,1.66-.27.92-.45.26-1.5-.23-1.99-.8-.73-2.08-.97-3.15-1.19-1.62-.16-3.44-.46-5.1-.19-.99.12-2.01.45-2.54,1.38-.26.41-.3.84-.13,1.29.18.35.5.49.68.83.38.58.32,1.12.15,1.76-.34,1.16-.51,1.8.37,2.76.79.84,1.06,1.41,1.28,2.42.15.67.2,1.22.7,1.71.58.71,1.42,1.02,1.77,1.92.27.57.2,1.22.58,1.8.74,1.27,2.2,1.97,3.06,3.14,1.16,1.43.64,3.33,1.69,4.86.96,1.3,2.64,1.9,3.48,3.29.46.81.48,1.68.94,2.6.26.68.75,1.17,1.36,1.66,1.01.76,2.19.98,3.52.79.22.02.13-.2.01-.11h0l-.1-.12Z"/>
    <path class="cls-6" d="M700.23,512.36c.79-.25.68-1.35.2-1.94s-1.21-.99-1.69-1.59c-.57-.82-.45-2.01-.9-2.92-.44-1.03-1.36-1.66-2.05-2.39-.68-.83-1.21-2.08-.58-2.89.38-.51.96-.88.8-1.44s-1.02-.65-1.19-1.21c-.15-.67.76-1.01.93-1.65.04-.43-.24-.9-.54-1.14-1.22-.89-2.91-.29-4.38.21-1.6.71-3.29,1.3-4.89,2.01,0,0-.23.09-.35.18-.48.39-.11,1.08.29,1.45s1.06.32,1.6.38,1.19.12,1.46.69.11,1.1.27,1.66c.3,1.34,2.25,1.43,3.12,2.5.59.6.6,1.59,1.19,2.19s1.43.91,2.14,1.42c1.01.76,1.43,2,1.98,3.03.55,1.04,1.53,2.12,2.73,2.13"/>
    <path class="cls-6" d="M700.23,512.36c.57-.27.63-.81.57-1.36-.13-.88-.97-1.19-1.56-1.79-.89-.85-.9-1.83-1.23-2.96-.23-1-.93-1.62-1.72-2.35s-1.78-1.81-1.33-2.97c.17-.64,1.33-1.28.97-2.08-.19-.24-.51-.38-.7-.62-.7-.62-.23-1,.16-1.62.38-.51.42-.94.14-1.4-1.26-1.54-3.76-.49-5.12.03-1.13.43-2.27.86-3.41,1.4-.56.16-1.67.38-1.85,1.01s.42,1.24,1.06,1.41l.86.09c1.08.11,1.7.39,1.8,1.6-.07.65.2,1.22.7,1.71.7.62,1.55.81,2.26,1.32.8.73.89,1.94,1.69,2.68.89.85,2.07,1.08,2.83,2.14,1.04,1.52,1.54,4.19,3.93,4.21.11.01.24-.19.02-.22-2.29-.01-2.76-2.89-3.81-4.31-.39-.48-.89-.85-1.41-1.12-.41-.26-.94-.42-1.34-.79-.4-.37-.56-.93-.84-1.39-.26-.68-.54-1.14-1.15-1.53s-1.25-.56-1.75-1.05c-.81-.63-.63-1.26-.87-2.16-.05-.55-.45-.92-.98-1.08-.84-.3-2.51.07-2.72-1.15-.24-.9,2.34-1.62,3.02-1.87,1.71-.7,4.95-2.66,6.65-1.07.99.97-.25,1.39-.55,2.23-.16.53.14.78.55,1.04.51.38.69.72.3,1.34-.25.3-.49.5-.63.81-.28.63-.13,1.29.14,1.87.35.8,1.06,1.41,1.65,2.02.89.85,1.13,1.75,1.33,2.97.14.78.51,1.47,1.11,1.96.6.5,2.4,2.1.91,2.82-.11-.01-.02.22.22.02h0l.09.23Z"/>
    <path class="cls-6" d="M693.28,508.93c-.31-1.23-2.16-1.31-2.92-2.37-.48-.59-.6-1.59-1.22-1.98-.82-.52-2.07,0-2.64-.81-.39-.48-.19-1.33-.58-1.8s-1.06-.32-1.62-.16c-1.9.46-3.84,1.35-5.47,2.39-.23.09-.36.29-.49.5-.26.41.23,1,.76,1.06s1-.23,1.46-.4.93-.56,1.37-.62c1.53-.06,2.29,2.08,3.71,2.12.43.04.9-.24,1.32-.08,1.08.11,1.35,1.77,2.42,1.88.43.04.78-.14,1.1-.11.66-.04,1.29.13,1.79.62.19.24.39.48.7.62s.65.07.68-.26"/>
    <path class="cls-6" d="M693.4,508.83c-.32-1.12-1.61-1.36-2.42-1.88-1.02-.65-.97-2.28-2.13-2.61-.74-.18-1.75.04-2.23-.55-.39-.48-.08-1.32-.58-1.8-.79-.84-2.5-.04-3.4.2-.79.25-1.59.6-2.28.97-.58.38-1.49.72-1.98,1.22-.73.8.51,1.47,1.28,1.33.9-.24,1.52-1.04,2.49-.95s1.23.78,1.72,1.26c.4.37.8.73,1.23.78.74.18,1.55-.28,2.26.23.51.38.76,1.06,1.38,1.45.52.27.97.1,1.51.15.78-.14,1.4.14,2.01.64.19.24.4.37.72.4s.66-.04.81-.46c.01-.11-.22-.02-.22-.02-.18.74-1.36-.57-1.67-.71-.41-.26-.84-.3-1.4-.14-.43-.04-.67.15-1.1.11s-.64-.17-.93-.53-.58-.71-.88-.96c-.3-.25-.52-.27-.84-.3-.43-.04-.78.14-1.21.1-.32-.03-.64-.17-.83-.41-.71-.51-1.27-1.44-2.12-1.63-.95-.31-1.67.38-2.47.73l-.22-.02c-1.11.21-1.41-.03-1.13-.66q.04-.43.51-.71c.35-.18.58-.38.93-.56.69-.37,1.38-.73,2.18-1.09.68-.26,1.36-.52,2.03-.67s1.33-.19,1.69.5c.18.35.15.67.24.9.24.9.88.96,1.64,1.04.86.09,1.49.37,1.84,1.17.17.45.44,1.03.84,1.39.8.73,2.31.89,2.74,2.02,0,0,.32.03.22.02h0l-.23.09Z"/>
    <path class="cls-6" d="M728.31,557.92c.87,1.07-7.61-1.21-7.05-2.46s.13-3.47-.39-4.73,4.26,6.32,6.31.09c1.43-.18,1.19,4.37,2.59,4.51,1.83.19.66-3.31.52-5.18-.03-1.86.24-2.37.1-4.24-.04-.66,1.56-1.37,2.21-1.41l.75.08c1.06.32,2.31-.2,3.04-1s-1.69-3.77-1.57-4.95c.2-1.94,1.19-3.15.28-4.88-.37-.69.7-.47.67-1.24s.5-1.69,1.25-1.62c.43.04.84.3,1.24.67,1.61,1.36,3.08,2.93,3.97,4.87s.98,4.35-.18,6.08c-.51.71-1.11,1.3-1.3,2.05-.32,1.06.22,2.09.13,3.06-.21,2.05-2.74,3.43-2.74,5.5-.07.65.3,1.34.34,2,.1,1.21-.56,2.34-1.6,2.89-.57.27-1.35.41-2.03.67-2.3,1.18-2.23,4.79-4.15,6.55"/>
    <circle class="cls-6" cx="664.83" cy="534.12" r="2.93"/>
    <path class="cls-6" d="M663.24,531.17c1.66-.27,3.6-.07,6.08,1.27,4.03,2.15,3.75,8.12,3.75,8.12,0,0-.59-4.96-4.51-7.1-1.85-1.06-5.65-1.23-7.52-1.09.26-.41,1.08-.98,2.08-1.21h.11Z"/>
    <path class="cls-8" d="M723.02,568.17c.98-1.1,1.77-2.44,1.81-3.85.02-.22.07-.65-.14-.78l-.97-.1c-.78.14-1.56.39-2.26.75-1.72.81-3.24,1.85-4.76,2.9,0,0-.01.11.11.01.33-.08.88-.13,1.19.12.63.28.56.93.4,1.46-.6,1.57-2.26,1.84-3.74,1.47,0,0-.33.08-.24.19,1.59.49,3.56.36,4.19-1.54.16-.53.35-1.27-.38-1.67-.41-.26-1.08-.11-1.51-.15h.11c1.28-.84,2.58-1.8,4.07-2.52.8-.35,1.6-.71,2.49-.95.32.03.66-.04,1.09,0s.11.01,0,0h0l-.03.32c-.05,1.52-.85,2.97-1.83,4.06l.22.02h0l.19.24Z"/>
    <circle class="cls-6" cx="692.78" cy="546.16" r="2.93"/>
    <path class="cls-6" d="M685,545.47s6.37-3.71,10.82-1.41c6.21,3.24,6.22,6.4,6.61,8.95,0,0-2.38-5.58-7.26-7.93-4.46-2.2-10.17.39-10.17.39Z"/>
    <path class="cls-26" d="M669.54,561.55c3.87,1.59,10.3,3.77,10.3,3.77,0,0-3.36,9.47-14,4.79-8.97-3.96-5.46-12.76-5.46-12.76,0,0,5.3,2.5,9.17,4.09v.11Z"/>
    <path class="cls-6" d="M669.54,561.55c1.89.74,8.68,3.6,8.68,3.6,0,0-3.58,4.11-10.26,1.25-7.21-3.02-6.52-7.74-6.52-7.74l8.1,2.89h0Z"/>
    <path class="cls-12" d="M669.13,562.38c1.89.74,7.56,2.84,7.56,2.84,0,0-2.78.59-8.33-1.71-5.54-2.3-6.52-4.47-6.52-4.47l7.29,3.35h0Z"/>
    <path class="cls-26" d="M660.47,557.47c.02-.22.56-.16,1.51.15,1.59.49,2.26.23,3.43.57,1.9.63,2.86,1.92,3.7,2.23s2.26.23,4.14,1.07c1.03.54,3.6,2.11,5.16,2.81.83.41,2.12.54,2.33.67.2.13-1.45,2.47-11.79-1.96-10.35-4.32-8.49-5.44-8.36-5.64h0l-.12.1Z"/>
    <path class="cls-28" d="M690,534.86s.32.03.33-.08c5.61.57,9.61,1.95,10.95,2.74,1.02.65,1.93,1.39,2.69,2.45,0,0,2.13,2.61,2.27,3.39s-1.54-.92-1.54-.92c-.41-.26-.59-.6-1.01-.76-2.26-1.32-4.39-2.95-6.95-3.43-2.24-.45-5.53-.23-7.83-.14.32-1.06.85-1.98,1.07-3.05h0l.02-.22Z"/>
    <path class="cls-28" d="M678,530.7s-.19-.24-.18-.35c-3.81-3.22-7.03-4.85-8.42-5.1-1.07-.22-2.16-.22-3.27,0,0,0-3.1.45-3.69.93s1.6.38,1.6.38l1.19.12c2.23.55,4.62.69,6.45,1.96,1.64,1.04,3.47,3.4,4.84,4.96.54-1.03.85-1.98,1.38-2.91h.11Z"/>
    <path class="cls-16" d="M669.78,555.91c.67.94,2.04,1.4,3.26,1.2.22.02.83.41.5.49-1.54.17-3.53-.68-4.4-1.75,0,0,.02-.22.13-.2s.43.04.52.27"/>
    <path class="cls-16" d="M674.09,557.44c.75.08,1.51.15,2.14.43,0,0,.22.02.3.25l-.02.22c-.43-.04-.86-.09-1.18-.23-.11-.01-.2-.13-.3-.25s.01-.11.22.02c.32.03.63.28.97.1-.01.11.09.23.18.35-.63-.28-1.27-.35-1.92-.41-.11-.01-.32-.03-.3-.25l.02-.22"/>
    <path class="cls-16" d="M676.68,558.79c.84.3,1.92.41,2.5.04,1.05-.66,1.11-2.39.35-3.45,0,0,.02-.22.12-.1.22.02.31.14.41.26.67.94.62,2.46.11,3.17-.51.71-1.51.94-2.58.72-.32-.03-.65-.07-.95-.31-.11-.01-.31-.14-.3-.25s.01-.11.22.02"/>
    <path class="cls-16" d="M668.59,554.81l.02-.22c-.22-.02-.41-.26-.5-.49,0,0-.23.09-.35.18.41.26.81.63.99.97l.32.03s.22.02.02-.22"/>
    <path class="cls-16" d="M669.09,555.19c-.28-.46-.68-.83-1.2-1.1l-.22-.02-.02.22"/>
    <path class="cls-16" d="M666.9,554.2c-.52-.27-1-.86-.93-1.62.11-1.08.85-1.98,1.75-2.22l.02-.22-.32-.03c-.79.25-1.51.94-1.81,1.78s-.06,1.63.44,2.11c.2.13.3.25.51.38l.32.03.02-.22"/>
    <g class="cls-15">
      <circle class="cls-11" cx="735.41" cy="834.19" r="3.25"/>
      <circle class="cls-11" cx="697.55" cy="830.36" r="3.25"/>
      <circle class="cls-11" cx="718.45" cy="813.41" r="3.25"/>
      <circle class="cls-11" cx="714.61" cy="851.26" r="3.25"/>
      <circle class="cls-11" cx="716.54" cy="832.28" r="7.05"/>
      <circle class="cls-11" cx="739.25" cy="796.34" r="3.25"/>
      <circle class="cls-11" cx="701.39" cy="792.5" r="3.25"/>
      <circle class="cls-11" cx="722.28" cy="775.55" r="3.25"/>
      <circle class="cls-11" cx="718.45" cy="813.41" r="3.25"/>
      <circle class="cls-11" cx="720.37" cy="794.43" r="7.05"/>
      <circle class="cls-11" cx="659.7" cy="826.53" r="3.25"/>
      <circle class="cls-11" cx="680.59" cy="809.57" r="3.25"/>
      <circle class="cls-11" cx="676.76" cy="847.43" r="3.25"/>
      <circle class="cls-11" cx="678.68" cy="828.45" r="7.05"/>
      <circle class="cls-11" cx="663.53" cy="788.67" r="3.25"/>
      <circle class="cls-11" cx="684.43" cy="771.72" r="3.25"/>
      <circle class="cls-11" cx="680.59" cy="809.57" r="3.25"/>
      <circle class="cls-11" cx="682.51" cy="790.59" r="7.05"/>
      <circle class="cls-11" cx="699.47" cy="811.49" r="7.05"/>
      <circle class="cls-11" cx="621.84" cy="822.69" r="3.25"/>
      <circle class="cls-11" cx="642.74" cy="805.74" r="3.25"/>
      <circle class="cls-11" cx="638.9" cy="843.6" r="3.25"/>
      <circle class="cls-11" cx="640.82" cy="824.61" r="7.05"/>
      <circle class="cls-11" cx="625.68" cy="784.83" r="3.25"/>
      <circle class="cls-11" cx="646.57" cy="767.88" r="3.25"/>
      <circle class="cls-11" cx="642.74" cy="805.74" r="3.25"/>
      <circle class="cls-11" cx="644.66" cy="786.76" r="7.05"/>
      <circle class="cls-11" cx="661.61" cy="807.65" r="7.05"/>
      <circle class="cls-11" cx="583.99" cy="818.86" r="3.25"/>
      <circle class="cls-11" cx="604.88" cy="801.91" r="3.25"/>
      <circle class="cls-11" cx="601.04" cy="839.76" r="3.25"/>
      <circle class="cls-11" cx="602.97" cy="820.78" r="7.05"/>
      <circle class="cls-11" cx="587.82" cy="781" r="3.25"/>
      <circle class="cls-11" cx="608.71" cy="764.05" r="3.25"/>
      <circle class="cls-11" cx="604.88" cy="801.91" r="3.25"/>
      <circle class="cls-11" cx="606.8" cy="782.92" r="7.05"/>
      <circle class="cls-11" cx="623.75" cy="803.82" r="7.05"/>
      <circle class="cls-11" cx="565.94" cy="797.96" r="3.25"/>
      <circle class="cls-11" cx="584.93" cy="799.88" r="7.05"/>
      <circle class="cls-11" cx="705.22" cy="754.65" r="3.25"/>
      <circle class="cls-11" cx="703.3" cy="773.63" r="7.05"/>
      <circle class="cls-11" cx="726.12" cy="737.69" r="3.25"/>
      <circle class="cls-11" cx="688.26" cy="733.86" r="3.25"/>
      <circle class="cls-11" cx="709.06" cy="716.79" r="3.25"/>
      <circle class="cls-11" cx="705.22" cy="754.65" r="3.25"/>
      <circle class="cls-11" cx="707.13" cy="735.77" r="7.05"/>
      <circle class="cls-11" cx="743.08" cy="758.48" r="3.25"/>
      <circle class="cls-11" cx="724.21" cy="756.57" r="7.05"/>
      <circle class="cls-11" cx="667.37" cy="750.81" r="3.25"/>
      <circle class="cls-11" cx="665.44" cy="769.79" r="7.05"/>
      <circle class="cls-11" cx="650.4" cy="730.03" r="3.25"/>
      <circle class="cls-11" cx="671.2" cy="712.96" r="3.25"/>
      <circle class="cls-11" cx="667.37" cy="750.81" r="3.25"/>
      <circle class="cls-11" cx="669.28" cy="731.94" r="7.05"/>
      <circle class="cls-11" cx="686.35" cy="752.73" r="7.05"/>
      <circle class="cls-11" cx="629.51" cy="746.98" r="3.25"/>
      <circle class="cls-11" cx="627.59" cy="765.96" r="7.05"/>
      <circle class="cls-11" cx="612.55" cy="726.19" r="3.25"/>
      <circle class="cls-11" cx="633.34" cy="709.12" r="3.25"/>
      <circle class="cls-11" cx="629.51" cy="746.98" r="3.25"/>
      <circle class="cls-11" cx="631.42" cy="728.1" r="7.05"/>
      <circle class="cls-11" cx="648.49" cy="748.9" r="7.05"/>
      <circle class="cls-11" cx="570.86" cy="760.21" r="3.25"/>
      <circle class="cls-11" cx="591.65" cy="743.14" r="3.25"/>
      <circle class="cls-11" cx="589.73" cy="762.13" r="7.05"/>
      <circle class="cls-11" cx="595.49" cy="705.29" r="3.25"/>
      <circle class="cls-11" cx="591.65" cy="743.14" r="3.25"/>
      <circle class="cls-11" cx="593.57" cy="724.27" r="7.05"/>
      <circle class="cls-11" cx="610.64" cy="745.07" r="7.05"/>
      <circle class="cls-11" cx="747.78" cy="720.71" r="3.25"/>
      <circle class="cls-11" cx="709.92" cy="716.88" r="3.25"/>
      <circle class="cls-11" cx="730.81" cy="699.93" r="3.25"/>
      <circle class="cls-11" cx="728.9" cy="718.8" r="7.05"/>
      <circle class="cls-11" cx="751.61" cy="682.86" r="3.25"/>
      <circle class="cls-11" cx="713.75" cy="679.02" r="3.25"/>
      <circle class="cls-11" cx="734.65" cy="662.07" r="3.25"/>
      <circle class="cls-11" cx="730.81" cy="699.93" r="3.25"/>
      <circle class="cls-11" cx="732.74" cy="680.94" r="7.05"/>
      <circle class="cls-11" cx="672.06" cy="713.04" r="3.25"/>
      <circle class="cls-11" cx="692.96" cy="696.09" r="3.25"/>
      <circle class="cls-11" cx="691.05" cy="714.97" r="7.05"/>
      <circle class="cls-11" cx="675.9" cy="675.19" r="3.25"/>
      <circle class="cls-11" cx="696.79" cy="658.24" r="3.25"/>
      <circle class="cls-11" cx="692.96" cy="696.09" r="3.25"/>
      <circle class="cls-11" cx="694.88" cy="677.11" r="7.05"/>
      <circle class="cls-11" cx="711.83" cy="698" r="7.05"/>
      <circle class="cls-11" cx="634.21" cy="709.21" r="3.25"/>
      <circle class="cls-11" cx="655.1" cy="692.26" r="3.25"/>
      <circle class="cls-11" cx="653.19" cy="711.13" r="7.05"/>
      <circle class="cls-11" cx="638.04" cy="671.35" r="3.25"/>
      <circle class="cls-11" cx="658.94" cy="654.4" r="3.25"/>
      <circle class="cls-11" cx="655.1" cy="692.26" r="3.25"/>
      <circle class="cls-11" cx="657.02" cy="673.28" r="7.05"/>
      <circle class="cls-11" cx="673.98" cy="694.17" r="7.05"/>
      <circle class="cls-11" cx="596.35" cy="705.37" r="3.25"/>
      <circle class="cls-11" cx="617.24" cy="688.42" r="3.25"/>
      <circle class="cls-11" cx="615.33" cy="707.3" r="7.05"/>
      <circle class="cls-11" cx="600.18" cy="667.52" r="3.25"/>
      <circle class="cls-11" cx="621.08" cy="650.57" r="3.25"/>
      <circle class="cls-11" cx="617.24" cy="688.42" r="3.25"/>
      <circle class="cls-11" cx="619.17" cy="669.44" r="7.05"/>
      <circle class="cls-11" cx="636.12" cy="690.33" r="7.05"/>
      <circle class="cls-11" cx="578.31" cy="684.48" r="3.25"/>
      <circle class="cls-11" cx="597.29" cy="686.4" r="7.05"/>
      <circle class="cls-11" cx="717.59" cy="641.16" r="3.25"/>
      <circle class="cls-11" cx="715.67" cy="660.15" r="7.05"/>
      <circle class="cls-11" cx="738.48" cy="624.21" r="3.25"/>
      <circle class="cls-11" cx="700.63" cy="620.38" r="3.25"/>
      <circle class="cls-11" cx="721.42" cy="603.31" r="3.25"/>
      <circle class="cls-11" cx="717.59" cy="641.16" r="3.25"/>
      <circle class="cls-11" cx="719.5" cy="622.29" r="7.05"/>
      <circle class="cls-11" cx="755.44" cy="645" r="3.25"/>
      <circle class="cls-11" cx="736.57" cy="643.09" r="7.05"/>
      <circle class="cls-11" cx="679.73" cy="637.33" r="3.25"/>
      <circle class="cls-11" cx="677.81" cy="656.31" r="7.05"/>
      <circle class="cls-11" cx="662.77" cy="616.54" r="3.25"/>
      <circle class="cls-11" cx="683.57" cy="599.47" r="3.25"/>
      <circle class="cls-11" cx="679.73" cy="637.33" r="3.25"/>
      <circle class="cls-11" cx="681.64" cy="618.46" r="7.05"/>
      <circle class="cls-11" cx="698.71" cy="639.25" r="7.05"/>
      <circle class="cls-11" cx="705.8" cy="593.01" r="7.05"/>
      <circle class="cls-11" cx="641.88" cy="633.5" r="3.25"/>
      <circle class="cls-11" cx="639.95" cy="652.48" r="7.05"/>
      <circle class="cls-11" cx="624.91" cy="612.71" r="3.25"/>
      <circle class="cls-11" cx="645.71" cy="595.64" r="3.25"/>
      <circle class="cls-11" cx="641.88" cy="633.5" r="3.25"/>
      <circle class="cls-11" cx="643.79" cy="614.62" r="7.05"/>
      <circle class="cls-11" cx="660.86" cy="635.42" r="7.05"/>
      <circle class="cls-11" cx="583.22" cy="646.73" r="3.25"/>
      <circle class="cls-11" cx="604.02" cy="629.66" r="3.25"/>
      <circle class="cls-11" cx="602.1" cy="648.64" r="7.05"/>
      <circle class="cls-11" cx="587.06" cy="608.88" r="3.25"/>
      <circle class="cls-11" cx="607.85" cy="591.81" r="3.25"/>
      <circle class="cls-11" cx="604.02" cy="629.66" r="3.25"/>
      <circle class="cls-11" cx="605.93" cy="610.79" r="7.05"/>
      <circle class="cls-11" cx="623" cy="631.58" r="7.05"/>
    </g>
    <path class="cls-18" d="M747.17,677.18s-9.24-44.3-13.76-57.83-16.05-6.09-16.05-6.09l-10.94,16.54,1.33,17.02,14.76,45.73c1.47,4.83,4.41,9.16,8.58,12.09,3.57,2.43,8.03,3.54,13.32,1.89,21.15-6.57,37.36-39.69,37.36-39.69l-7.34-8.26-27.17,18.71h0l-.1-.12Z"/>
    <path class="cls-18" d="M770.91,661.17s1.88-3.51,4.81-8.77c2.94-5.37,9.68-10.57,13.55-13.34,3.88-2.77,6.55-5.55,8.1-2.56s-1.42,5.41-1.42,5.41l.45,7.35s1.22,1.98,1.47,4.83-1.39,5.09-1.39,5.09c0,0,.84,2.48-.7,4.72-1.43,2.25-7.2,3.3-7.2,3.3l-9.42,2.64-8.39-8.59h0l.12-.1Z"/>
    <path class="cls-22" d="M785.71,649.59s-.22-.02-.63-.28c-.2-.13-.28-.46-.25-.79l.1-.97c.08-.75.7-1.56,1.32-2.26s1.46-1.49,2.29-2.17c.94-.67,1.87-1.23,2.77-1.57.91-.34,1.89-.35,2.55-.4.75.08,1.4.14,1.7.39.41.26.5.49.39.48,0,0-.22-.02-.52-.27-.32-.03-.85-.2-1.62-.16-.75-.08-1.53.06-2.33.42-.8.35-1.73.91-2.55,1.49-1.65,1.25-3.11,2.74-3.56,4-.17.64-.34,1.16-.15,1.51.19.24.4.37.39.48h0l.1.12Z"/>
    <path class="cls-22" d="M780.34,656.35s-.19-.24-.35-.8-.07-1.42.46-2.35,1.48-1.7,2.54-2.47c1.06-.76,2.23-1.63,3.41-2.49,1.18-.86,2.35-1.72,3.51-2.37,1.17-.75,2.39-.96,3.37-.97.98,0,1.83.19,2.36.35.52.27.7.62.59.6,0,0-.19-.24-.72-.4s-1.28-.24-2.16-.22c-.99.12-2,.34-3.15.99-1.05.66-2.22,1.52-3.4,2.38s-2.35,1.72-3.4,2.38c-1.06.76-2,1.43-2.51,2.14-.52.82-.7,1.56-.65,2.11-.05.54.14.78.02.87h0l.09.23Z"/>
    <path class="cls-22" d="M782.9,659s-.24.19-.9.24l-1.08-.11c-.22-.02-.43-.04-.63-.28-.22-.02-.51-.38-.47-.7-.16-.56-.08-1.32.29-1.82.39-.61.97-.99,1.54-1.26,1.26-.63,2.63-1.26,4.02-1.99,2.86-1.34,5.48-2.5,7.41-3.28.92-.45,1.81-.69,2.46-.62s.83.41.82.52c0,0-.3-.25-.86-.09-.54-.05-1.34.3-2.26.75-1.83.9-4.47,2.16-7.32,3.4-1.37.62-2.74,1.25-4,1.88-.57.27-1.15.65-1.41,1.06s-.42.94-.36,1.38c.06.44.48.59.8.73l.97.1.86.09h.11Z"/>
    <path class="cls-22" d="M791.07,662.23s-.19-.24-.47-.7-.53-1.25-.54-2.23l.32.03c-1.19.97-2.89,1.67-5.07,1.67-.54-.05-1.09,0-1.73-.17s-1.11-.88-1.15-1.53c-.04-.66.14-1.4.63-1.9.38-.51.86-1,1.34-1.39,1.66-1.36,3.61-2.25,5.49-2.6.88-.13,1.88-.25,2.72.06.85.2,1.56.7,2.05,1.3.86,1.18,1.18,2.3,1.32,3.08s.2,1.22.2,1.22c0,0-.18-.35-.43-1.13-.26-.68-.58-1.8-1.46-2.76-.39-.48-1-.86-1.75-1.05-.75-.08-1.62-.16-2.41.08-1.67.38-3.6,1.16-5.16,2.53-.95.78-1.8,1.67-1.69,2.66-.04.43.24.9.76,1.06.42.15.97.1,1.4.14,1.96-.02,3.66-.61,4.82-1.36l.35-.18-.03.32c.13,1.97.69,2.9.57,3h0l-.1-.12Z"/>
    <path class="cls-22" d="M747.1,676.84c-4.93,2.44-8.66,6.97-10.17,12.15-.18.74,1.35.68,1.63.06,1.48-4.97,4.95-9.09,9.54-11.35.35-.18.38-.51.08-.75s-.86-.09-1.08-.11h0Z"/>
    <path class="cls-19" d="M743.5,644.55s-14.91,7.32-37,3.88c0,0-3.75-22.17,3.48-34.41,7.23-12.23,18.78-7.9,18.78-7.9,0,0,13.03-.64,14.75,38.32h0v.11Z"/>
  </g>
</svg>