<?xml version="1.0" encoding="UTF-8"?>
<svg id="Layer_1" data-name="Layer 1" xmlns="http://www.w3.org/2000/svg" viewBox="0 0 1220 1259.5">
  <defs>
    <style>
      .cls-1, .cls-2, .cls-3, .cls-4, .cls-5, .cls-6, .cls-7, .cls-8 {
        stroke-miterlimit: 10;
      }

      .cls-1, .cls-4, .cls-5, .cls-6, .cls-7 {
        fill: none;
      }

      .cls-1, .cls-8 {
        stroke: #754c29;
        stroke-width: 1.5px;
      }

      .cls-9 {
        fill: #00a151;
      }

      .cls-10 {
        fill: #00979c;
      }

      .cls-11, .cls-2, .cls-3 {
        fill: #fff;
      }

      .cls-12 {
        fill: #f5bc49;
      }

      .cls-13 {
        fill: #f16225;
      }

      .cls-14 {
        fill: #803435;
      }

      .cls-15, .cls-8 {
        fill: #be9e7d;
      }

      .cls-16 {
        fill: #be8c8c;
      }

      .cls-17 {
        fill: #bf6b6b;
      }

      .cls-18 {
        fill: #c4e7f6;
      }

      .cls-19 {
        fill: #dcbf97;
      }

      .cls-20 {
        fill: #dc3b28;
      }

      .cls-21 {
        fill: #231f20;
      }

      .cls-22 {
        fill: #1fa8df;
      }

      .cls-23 {
        fill: #3e3e3e;
      }

      .cls-24 {
        fill: #401c0f;
      }

      .cls-25 {
        fill: #517569;
      }

      .cls-26 {
        fill: #79c79d;
      }

      .cls-27 {
        fill: #26130f;
      }

      .cls-2 {
        stroke: #6d6e71;
      }

      .cls-2, .cls-4 {
        stroke-width: 2px;
      }

      .cls-3 {
        stroke: #006838;
      }

      .cls-4, .cls-7 {
        stroke: #231f20;
      }

      .cls-5 {
        stroke: #fbb040;
      }

      .cls-5, .cls-6 {
        stroke-width: 4px;
      }

      .cls-6 {
        stroke: #dc3b28;
      }
    </style>
  </defs>
  <circle class="cls-18" cx="610" cy="649.5" r="610"/>
  <g>
    <path class="cls-23" d="M918.19,1176.03c-86.69,15.52-226.9,18.59-342.84-24.38,0,0-23.11,32.98-57.7,100.54,0,0,109.83,16.8,207.68-3.74,0,0,101.42-16.78,192.86-72.41"/>
    <path class="cls-15" d="M782.83,309.21s21.98,79.26,95.03,84.24c0,0-17.23,286.16-209.94,314.03,0,0-148.56-22.58-82.19-219.27,0,0,13.71-13.08,13.34-37.43"/>
    <path class="cls-15" d="M761.4,246.63s-26.46-179.46-188.95-175.29c0,0-114.85,12.48-90.39,173.92,0,0,9.07,25.35,6.16,39.63,0,0-5.19,36.48,15.7,68.07,31.27,47.29,60.36,80.49,60.36,80.49,0,0,18.16,22.24,58.33,18.47,0,0,28.1-3.79,61.55-30.62,0,0,86.35-50.86,76.07-103.68,0,0,42.46,22.2,53.48-42.75,0,0,6.18-88.95-52.3-28.24Z"/>
    <path class="cls-27" d="M607.66,207.1s52.57-23.83,79.92-9.02c0,0-22.24-26.3-82.89-3.85,0,0-9.97,9.69,2.97,12.87Z"/>
    <path class="cls-27" d="M474.69,208.66c.99-2.98,28.86-5.74,54.83-2.35,0,0,11.88,7.22-.02,13.21,0,0-47.44-12.73-53.61,2.78,0,0-3.63-6.29-1.2-13.64Z"/>
    <path class="cls-4" d="M554.34,289.73s-18.61,35.77,20.82,35.3"/>
    <path class="cls-4" d="M806.36,257.63s-18.32-35.82-40.26,27.61c0,0,21.4-29.32,28.31-7.04"/>
    <path class="cls-27" d="M599.08,450.78s13.67,10.04,55-9.92c0,0,36.2-16.83,64.18-45.05,0,0-34.15,47.72-86.23,60.2,0,0-13.61,5.79-34.36,.91,0,0,3.01-.68,1.42-6.14Z"/>
    <path class="cls-17" d="M657.01,343.53s-27.31-5.17-57.74,7.3c0,0-27.78-2.37-51.62,5.83,0,0,7.67,43.55,49.91,48.61,42.24,5.06,63.13-36.21,59.46-61.74Z"/>
    <path class="cls-14" d="M650.76,347.38s4.77,38.77-45.69,44.47c-45.83,5.17-50.09-29.33-50.09-29.33,0,0,51.89-3.5,95.78-15.14Z"/>
    <path class="cls-11" d="M644.56,348.65s-10.48,19.39-49.74,21.91c0,0-23.95,3.93-35.48-7.74,0,0,50.45-4.59,85.22-14.17Z"/>
    <path class="cls-11" d="M918.1,1175.72c-45.34,25.88-108.33,23.92-171.86,25.77,0,0-93.18,4.39-170.89-49.84,0,0,4.07-99.21-30.8-216.26,0,0-46.05-46.62-57.92-136.17l-42.6-67.9,9.08-128.1s1.21-53.42,91.79-100.87c0,0,18.16-9.08,42.37-15.13,0,0,.06,40.17,14.26,77.23,0,0,108.79,75.2,227.57-14.1,0,0,31.52-30.83,40-140.03,0,0,40.75,12.71,113.72,28.71,120.85,26.5,115.95,199.32,115.95,199.32,0,0-30.86,58.77-102.85,126.53l100.07,252.58s-61.73,91.95-177.89,158.25Z"/>
    <path class="cls-6" d="M892.71,413.6s-.56,85.35-39.94,151.13c0,0-95.75,96.94-270.19,23.8,0,0-20.68-46.04-13.23-94.51"/>
    <path class="cls-6" d="M547.2,937.24s200.24,67.79,400.37-71.22c0,0,29.88-29.27,50.35-56.54"/>
    <g>
      <circle class="cls-20" cx="660.65" cy="727.7" r="14.48"/>
      <circle class="cls-20" cx="675.22" cy="752.11" r="14.48"/>
      <circle class="cls-20" cx="676.71" cy="779.1" r="14.48"/>
      <circle class="cls-20" cx="651.62" cy="758.23" r="14.48"/>
      <circle class="cls-20" cx="703.53" cy="760.07" r="14.48"/>
      <circle class="cls-20" cx="691.27" cy="731.97" r="14.48"/>
    </g>
    <g>
      <circle class="cls-20" cx="571.89" cy="718.18" r="14.48"/>
      <circle class="cls-20" cx="586.46" cy="742.59" r="14.48"/>
      <circle class="cls-20" cx="587.95" cy="769.58" r="14.48"/>
      <circle class="cls-20" cx="562.85" cy="748.71" r="14.48"/>
      <circle class="cls-20" cx="614.77" cy="750.55" r="14.48"/>
      <circle class="cls-20" cx="602.5" cy="722.45" r="14.48"/>
    </g>
    <g>
      <circle class="cls-20" cx="749.16" cy="717.67" r="14.48"/>
      <circle class="cls-20" cx="763.73" cy="742.08" r="14.48"/>
      <circle class="cls-20" cx="765.22" cy="769.06" r="14.48"/>
      <circle class="cls-20" cx="740.13" cy="748.2" r="14.48"/>
      <circle class="cls-20" cx="792.04" cy="750.04" r="14.48"/>
      <circle class="cls-20" cx="779.78" cy="721.93" r="14.48"/>
    </g>
    <g>
      <circle class="cls-20" cx="832.33" cy="681.35" r="14.48"/>
      <circle class="cls-20" cx="846.9" cy="705.77" r="14.48"/>
      <circle class="cls-20" cx="848.39" cy="732.75" r="14.48"/>
      <circle class="cls-20" cx="823.3" cy="711.88" r="14.48"/>
      <circle class="cls-20" cx="875.21" cy="713.73" r="14.48"/>
      <circle class="cls-20" cx="862.95" cy="685.62" r="14.48"/>
    </g>
    <g>
      <circle class="cls-20" cx="871.52" cy="629.97" r="10.83"/>
      <circle class="cls-20" cx="886.44" cy="645.12" r="10.83"/>
      <circle class="cls-20" cx="892.31" cy="664.46" r="10.83"/>
      <circle class="cls-20" cx="870.38" cy="653.75" r="10.83"/>
      <circle class="cls-20" cx="908.41" cy="645.87" r="10.83"/>
      <circle class="cls-20" cx="894.52" cy="627.64" r="10.83"/>
    </g>
    <g>
      <circle class="cls-20" cx="510.4" cy="684.77" r="10.83"/>
      <circle class="cls-20" cx="525.32" cy="699.92" r="10.83"/>
      <circle class="cls-20" cx="531.19" cy="719.26" r="10.83"/>
      <circle class="cls-20" cx="509.26" cy="708.55" r="10.83"/>
      <circle class="cls-20" cx="547.3" cy="700.68" r="10.83"/>
      <circle class="cls-20" cx="533.4" cy="682.44" r="10.83"/>
    </g>
    <g>
      <circle class="cls-25" cx="833.93" cy="627.82" r="7.78"/>
      <circle class="cls-25" cx="834.71" cy="643.08" r="7.78"/>
      <circle class="cls-25" cx="828.62" cy="656.27" r="7.78"/>
      <circle class="cls-25" cx="821.96" cy="640.04" r="7.78"/>
      <circle class="cls-25" cx="846.14" cy="653.99" r="7.78"/>
      <circle class="cls-25" cx="847.4" cy="637.55" r="7.78"/>
    </g>
    <g>
      <circle class="cls-25" cx="789.82" cy="666.95" r="7.78"/>
      <circle class="cls-25" cx="790.6" cy="682.22" r="7.78"/>
      <circle class="cls-25" cx="784.51" cy="695.4" r="7.78"/>
      <circle class="cls-25" cx="777.85" cy="679.18" r="7.78"/>
      <circle class="cls-25" cx="802.03" cy="693.12" r="7.78"/>
      <circle class="cls-25" cx="803.29" cy="676.69" r="7.78"/>
    </g>
    <g>
      <circle class="cls-25" cx="821.35" cy="763.21" r="7.78"/>
      <circle class="cls-25" cx="822.12" cy="778.47" r="7.78"/>
      <circle class="cls-25" cx="816.03" cy="791.66" r="7.78"/>
      <circle class="cls-25" cx="809.37" cy="775.43" r="7.78"/>
      <circle class="cls-25" cx="833.55" cy="789.38" r="7.78"/>
      <circle class="cls-25" cx="834.81" cy="772.95" r="7.78"/>
    </g>
    <g>
      <circle class="cls-25" cx="726.07" cy="785.44" r="7.78"/>
      <circle class="cls-25" cx="726.84" cy="800.7" r="7.78"/>
      <circle class="cls-25" cx="720.75" cy="813.89" r="7.78"/>
      <circle class="cls-25" cx="714.09" cy="797.66" r="7.78"/>
      <circle class="cls-25" cx="738.28" cy="811.61" r="7.78"/>
      <circle class="cls-25" cx="739.53" cy="795.18" r="7.78"/>
    </g>
    <g>
      <circle class="cls-25" cx="631.98" cy="789.65" r="7.78"/>
      <circle class="cls-25" cx="632.75" cy="804.91" r="7.78"/>
      <circle class="cls-25" cx="626.66" cy="818.1" r="7.78"/>
      <circle class="cls-25" cx="620" cy="801.87" r="7.78"/>
      <circle class="cls-25" cx="644.19" cy="815.82" r="7.78"/>
      <circle class="cls-25" cx="645.44" cy="799.38" r="7.78"/>
    </g>
    <g>
      <circle class="cls-25" cx="526.23" cy="761.51" r="7.78"/>
      <circle class="cls-25" cx="527" cy="776.78" r="7.78"/>
      <circle class="cls-25" cx="520.91" cy="789.96" r="7.78"/>
      <circle class="cls-25" cx="514.25" cy="773.74" r="7.78"/>
      <circle class="cls-25" cx="538.43" cy="787.69" r="7.78"/>
      <circle class="cls-25" cx="539.69" cy="771.25" r="7.78"/>
    </g>
    <g>
      <circle class="cls-25" cx="915.02" cy="712.82" r="7.78"/>
      <circle class="cls-25" cx="915.79" cy="728.08" r="7.78"/>
      <circle class="cls-25" cx="909.7" cy="741.27" r="7.78"/>
      <circle class="cls-25" cx="903.04" cy="725.04" r="7.78"/>
      <circle class="cls-25" cx="927.23" cy="738.99" r="7.78"/>
      <circle class="cls-25" cx="928.48" cy="722.56" r="7.78"/>
    </g>
    <g>
      <circle class="cls-25" cx="718.07" cy="686.63" r="7.78"/>
      <circle class="cls-25" cx="713.45" cy="701.2" r="7.78"/>
      <circle class="cls-25" cx="703.13" cy="711.42" r="7.78"/>
      <circle class="cls-25" cx="702.57" cy="693.89" r="7.78"/>
      <circle class="cls-25" cx="720.35" cy="715.42" r="7.78"/>
      <circle class="cls-25" cx="727.27" cy="700.46" r="7.78"/>
    </g>
    <g>
      <circle class="cls-25" cx="627.94" cy="685.72" r="7.78"/>
      <circle class="cls-25" cx="633.04" cy="700.12" r="7.78"/>
      <circle class="cls-25" cx="630.97" cy="714.5" r="7.78"/>
      <circle class="cls-25" cx="619.95" cy="700.85" r="7.78"/>
      <circle class="cls-25" cx="647.11" cy="707.31" r="7.78"/>
      <circle class="cls-25" cx="643.62" cy="691.2" r="7.78"/>
    </g>
    <g>
      <circle class="cls-25" cx="571.29" cy="664.47" r="7.78"/>
      <circle class="cls-25" cx="573.45" cy="679.6" r="7.78"/>
      <circle class="cls-25" cx="568.59" cy="693.28" r="7.78"/>
      <circle class="cls-25" cx="560.48" cy="677.73" r="7.78"/>
      <circle class="cls-25" cx="585.84" cy="689.42" r="7.78"/>
      <circle class="cls-25" cx="585.59" cy="672.94" r="7.78"/>
    </g>
    <path class="cls-27" d="M542.18,97.14c-79.94,56.93-60.11,148.11-60.11,148.11,7.89,12.11,6.74,34.55,6.74,34.55-5.98,43.07,15.11,73.15,15.11,73.15,19.64,30.24,29.22,35.73,48.91,66.04,19.69,30.32,49.17,32.23,49.17,32.23-.62,18.34-8.59,27.05-8.59,27.05-151.38-9.85-148.64-171.1-148.64-171.1-9.91-62.68-33.25-157.99-18.76-202.58,25.06-77.1,113.42-71.88,113.42-71.88,134.69-92.85,246.06,41.43,246.06,41.43,53.35,95.86,131.61,155.56,131.61,155.56,47.8,65.54,43.7,131.38-9.73,176.65-45.99,38.97-76.02,15.17-76.02,15.17-58.9-19.77-74.22-104.01-74.22-104.01,45.18,9.02,54.94-56.13,54.94-56.13-147.35,14.02-269.9-164.25-269.9-164.25"/>
    <path class="cls-5" d="M771.83,303.82s14.71,17.64,2.68,30.82c-12.03,13.18-8.28-16.05-8.28-16.05"/>
    <g>
      <path class="cls-19" d="M286.28,536.49s6.58,83.69-57.21,105.71c0,0,14.45,60.12,14.45,87.57,0,0,129.83,44.56,226.11,6.55,0,0-49.44-65.84-58.01-106.14,0,0-12.65-10.94-7.51-24.67l-117.83-69.02Z"/>
      <path class="cls-19" d="M425.68,336.14s44.96,27.56,47.86,98.62c0,0-3.81,18.98-.76,30.3,3.05,11.32,2.15,47.55-2.64,68.46-4.79,20.9-19.35,56.18-52.02,72.29-32.66,16.11-84.27-10.97-84.27-10.97,0,0-52.7-25.69-64.45-58.36,0,0-19.6,20.9-39.19,3.92-19.6-16.98-40.94-60.53-19.16-72.29,18.69-10.09,35.77,14.78,40.24,22.04,.74,1.2,1.13,1.92,1.13,1.92,0,0,7.84-142.84,54.44-148.07,0,0,42.64-39.37,118.83-7.85Z"/>
      <path class="cls-21" d="M369.93,432.73s-32.97-5.95-60.98,5.27c0,0,13.05-18.55,61.42-13.12,0,0,8.19,4.52-.43,7.86Z"/>
      <path class="cls-21" d="M473.41,435.15c-23.06-4.81-39.75-2.37-39.75-2.37-8.53-3.59-.2-7.87-.2-7.87,15.12-1.25,31.92,1.3,40.75,3.23,0,0,.46,7.26-.81,7Z"/>
      <path class="cls-16" d="M364.93,538.61s17.32-5.35,37.95,.51c0,0,17.83-3.57,33.87,0,0,0-1.78,28.78-28.78,35.15-27,6.37-43.55-18.85-43.04-35.65Z"/>
      <path class="cls-14" d="M369.26,540.65s-.25,25.47,32.85,25.47c30.07,0,30.31-22.67,30.31-22.67,0,0-33.87,1.53-63.16-2.8Z"/>
      <path class="cls-11" d="M373.37,541.01s8.21,11.79,33.83,10.56c0,0,15.8,.79,22.42-7.61,0,0-33.02,.72-56.25-2.95Z"/>
      <path class="cls-4" d="M415.06,476.38s20.06,19.19-.87,31.4"/>
      <path class="cls-27" d="M400.37,611.75s-28.58-.19-55.21-11.88c0,0-16.88-5.2-43.29-24.68,0,0,12.55,24.86,62.66,36.56,0,0,16.85,4.55,38.43,6.09,0,0-.43-2.81-2.59-6.08Z"/>
      <path class="cls-9" d="M260.54,622.44s-93.66,36.31-120.08,99.73c-30.56,73.35-25.79,87.48-25.79,87.48,0,0,25.91,45.91,86.42,30.78,0,0-23.35,130.88-24.86,236.77,0,0,150.61,82.58,314.14,4.22,0,0-12.58-157.46-11.07-242.18,0,0,36.96,1.65,52.09-33.15l-4.71-68.74s-16.41-86.02-117.77-110.23c0,0,25.49,43.67-27.46,55.77,0,0-89.14,19.72-120.91-60.46Z"/>
      <path class="cls-24" d="M187.65,1089.59c-4.15-3.96,3.91-8.57,3.91-8.57,144.3,75.28,298.81,.41,298.81,.41l-2.63,165.81s-72.86-14.22-145.43-49.35c0,0-76.82-33.91-154.66-108.31Z"/>
      <circle class="cls-26" cx="378.04" cy="718.48" r="12.94"/>
      <circle class="cls-26" cx="352.22" cy="720.39" r="12.94"/>
      <circle class="cls-26" cx="326.02" cy="715.65" r="12.94"/>
      <circle class="cls-26" cx="300.73" cy="706.74" r="12.94"/>
      <circle class="cls-26" cx="279.71" cy="690.96" r="12.94"/>
      <circle class="cls-26" cx="260.57" cy="673.87" r="12.94"/>
      <circle class="cls-26" cx="402.42" cy="709.39" r="12.94"/>
      <circle class="cls-26" cx="424.44" cy="696.58" r="12.94"/>
      <circle class="cls-26" cx="436.27" cy="673.25" r="12.94"/>
      <circle class="cls-26" cx="367.85" cy="741.32" r="12.94"/>
      <circle class="cls-26" cx="335.63" cy="739.99" r="12.94"/>
      <circle class="cls-26" cx="305.46" cy="731.88" r="12.94"/>
      <circle class="cls-26" cx="277.54" cy="716.91" r="12.94"/>
      <circle class="cls-26" cx="257.19" cy="700.23" r="12.94"/>
      <circle class="cls-26" cx="397.89" cy="734.01" r="12.94"/>
      <circle class="cls-26" cx="425.1" cy="721.83" r="12.94"/>
      <circle class="cls-26" cx="449.53" cy="695.55" r="12.94"/>
      <path class="cls-26" d="M260.54,622.44s21.39,63.87,97.08,62.71c75.69-1.16,53.99-54.98,53.99-54.98l7.25,.67s16.43,62.61-59.51,59.51c-73.77-3.02-81.48-28.38-105.15-64.13l6.34-3.78Z"/>
      <path class="cls-21" d="M472.23,463.95l-2.54-29.47c.48-49.81-25.58-71.24-25.58-71.24-50,23.86-141.17-2.19-141.17-2.19-7.93,103.06-48.4,136.14-48.4,136.14-9.32-26.37-38.59-32.49-38.59-32.49-15.92-57.72,12.4-93.96,12.4-93.96-16.13,74.21-114.96,89.83-114.96,89.83,43.88-16.13,42.04-111.77,42.04-111.77,0,0-12.26-58.08,50.98-83.25,63.24-25.17,75.5,43.24,75.5,43.24,18.07-14.2,103.25-45.82,168.43,27.1,0,0,37.15,40.57,21.88,128.06Z"/>
      <path class="cls-9" d="M228.7,328.69s-4.17,23.15,16.67,30.09c20.83,6.94,17.13-25.46,17.13-25.46,0,0,32.41,.93,31.02-11.57-1.39-12.5-19.91-31.48-25.93-23.61-6.02,7.87-8.33,24.08-8.33,24.08,0,0-25.46-1.39-30.56,6.48Z"/>
      <path class="cls-7" d="M212.1,498s10.03-15.2,21.29,.3c11.25,15.51,11.86,20.68,11.86,20.68,0,0-16.12-24.63-22.5-4.87"/>
      <g>
        <path class="cls-13" d="M238.74,477.9s14.02,18.26,0,26.76c-14.02,8.49,9.34,3.4,9.34,3.4,0,0,16.14-6.82-3.4-36.33l-5.95,6.17Z"/>
        <path class="cls-11" d="M238.74,504.66s-7.65-20.81-22.09-16.56c-14.44,4.25,.85,29.73,.85,29.73,0,0,4.25,5.95,12.32,5.52,0,0-7.65-14.02,8.92-18.69Z"/>
        <path class="cls-22" d="M203.97,478.21s-11.89,6.49-7.93-7.57c3.96-14.05,24.5-14.41,30.99-13.33,6.49,1.08,15.85,4.32,17.66,14.41,1.8,10.09-12.25,1.08-12.25,1.08,0,0-16.93-12.97-28.46,5.4Z"/>
      </g>
      <path class="cls-19" d="M556.13,902.72s11.9,51.94-34.79,76.52c0,0-13.73,6.83-36.97-3.94-23.24-10.77-22.71-33.08-22.71-33.08l94.48-39.5Z"/>
      <circle class="cls-26" cx="460.77" cy="805.64" r="135.96"/>
      <path class="cls-19" d="M596.26,814.71s17.04-5.48,20.04,4.98c3.01,10.47-2.7,13.71-2.7,13.71,0,0-10.34,8.4-21.84,7.37l4.5-26.07Z"/>
      <path class="cls-19" d="M591.39,844.66s17.83-1.52,18.42,9.35c.59,10.87-5.71,12.76-5.71,12.76,0,0-11.96,5.86-22.94,2.29l10.23-24.4Z"/>
      <path class="cls-19" d="M574.19,879.02s17.77,2.1,16.15,12.87c-1.62,10.77-8.16,11.34-8.16,11.34,0,0-12.9,3.33-22.93-2.38l14.94-21.83Z"/>
      <g>
        <circle class="cls-10" cx="457.48" cy="804.94" r="138.53"/>
        <path class="cls-12" d="M567.18,724.44s20.13,130.58-51.82,204.74c0,0-10.97,6.83-23.6,8.66,0,0,80.55-55.87,64.37-225.53,0,0,8.58,4.63,11.06,12.14Z"/>
        <path class="cls-12" d="M522.04,684.73s34.31,175.4-74.19,258.45c0,0-7.63,.17-17.61-4.85,0,0,107.28-84.13,68.43-262.3,0,0,16.4,3.76,23.37,8.71Z"/>
        <path class="cls-12" d="M457.64,667.32s56.02,152.42-71.74,257.1l-7.63-6.86s120.91-97.05,64.88-249.47l14.48-.77Z"/>
      </g>
      <path class="cls-19" d="M116.7,812.08s-7.61,81.54-.9,155.75c0,0,1.98,50.3,31.23,54.96,29.25,4.66,81.92-30.59,81.92-30.59,0,0,63.32-49.28,89.9-88.32,0,0,19.79,2.06,28.54-21.54,0,0,29.35,13.16,40.01,8.01,10.66-5.15,3.75-15.72,3.75-15.72l-54.74-21.43s64.31,5.58,65.61-9.66c1.31-15.23-9.24-14.67-9.24-14.67l-57.86-3.8s19.04-16.71,40.08-15.53c21.05,1.17,20.14-6.98,17.96-14.31s-15.17-6.29-15.17-6.29l-37.46,6.43,8.9-13.42,16.69-16.77s13.08-9.99-.77-18.43c-13.85-8.43-39.44,28.72-39.44,28.72l-23.47,55.03-15.78,21.65s-66.44,50.43-89.65,55.02l4.29-66.74s-43.9,18.14-84.39-28.35Z"/>
      <path class="cls-4" d="M327.58,461.21s20.53-22.36,38.01,1.63"/>
      <path class="cls-4" d="M426.98,460.19s20.53-22.36,38.01,1.63"/>
    </g>
    <path class="cls-15" d="M956.08,706.97s-6.03,44.6-14.37,133.05c0,0-296.35,131.14-372.63,167.46,0,0-53.48-44.82-82.49-47.43-29.01-2.62-61.68-20.96-44.59,8.91l16.19,15.91s-51.4-9.23-94.06-4.51c0,0-42.71-1.23-41.43,11.51,1.28,12.74,2.13,20.56,98.91,22.74,0,0-98.06-8.31-99.77,14-1.37,17.81,105.95,23.11,105.95,23.11,0,0-105.09-11.58-97.45,12.51,7.64,24.09,71.03,14.45,71.03,14.45,0,0-42.3,1.65-41.43,11.51,.86,9.86,24.78,11.82,118.53,25.73,0,0,82.16,11.27,118.84-6.19,0,0,265.17-42.48,452.8-142.36,0,0,50.55-49.87,49.43-103.67-1.39-66.32,2.41-83.18-.46-217.64,0,0-83.59,9.21-143,60.93Z"/>
    <path class="cls-1" d="M525.99,976.1s-29.03-16.56-39.41-16.04-34.13-8.62-44.63-8.16c-10.5,.46,.04,17.07,.04,17.07l16.19,15.91s-63.73-11.06-117.63-3.29c0,0-17.92,.95-17.87,10.3s5.99,12.54,5.99,12.54c0,0,26.49,9.13,77.64,9.59,0,0-65.77-1.37-77.64,5.02-11.87,6.39-6.39,16.9,0,17.81s63.48,12.33,63.48,12.33c0,0-48.41-2.74-57.09,4.57-8.68,7.31-3.2,16.44,1.83,18.73,5.02,2.28,28.32,9.13,44.3,8.22,0,0-22.44,2.12-21.27,9.51s28.58,11.95,28.58,11.95c0,0,88.6,14.62,100.48,15.07"/>
    <path class="cls-8" d="M109.82,816.98s-16.49,41.44,34.81,35.62c29.23-3.32-34.81-35.62-34.81-35.62Z"/>
    <path class="cls-8" d="M101.97,777.93s-15.51,19.51-5.13,29.78c10.38,10.27,18.66,19.28,37.53,23.54,18.87,4.26-1.1-23.26-1.1-23.26l-31.3-30.07Z"/>
    <path class="cls-8" d="M108.61,748.48s-24.32,19.9,5.81,48.12c30.13,28.21,26.42,5.96,26.42,5.96l-14.31-42.1-17.93-11.98Z"/>
    <path class="cls-8" d="M160.31,691.83s-40.51-23.05-49.37,20.66c-8.86,43.71,6.76,58.16,6.76,58.16,0,0,13.42,10.98,21.15-40.94,0,0,5.45-28.58,21.46-37.89Z"/>
    <path class="cls-4" d="M492.06,260.6s11.72-34.8,41.76-7.69"/>
    <path class="cls-4" d="M626.51,242.65s11.72-34.8,41.76-7.69"/>
    <path class="cls-2" d="M956.08,706.97s-15.05-78.45-13.32-126.64"/>
    <path class="cls-3" d="M201.09,840.43s4.39-42.74,6.07-72.92"/>
  </g>
</svg>