<?xml version="1.0" encoding="UTF-8"?>
<svg id="Layer_2" data-name="Layer 2" xmlns="http://www.w3.org/2000/svg" xmlns:xlink="http://www.w3.org/1999/xlink" viewBox="0 0 1334 1000">
  <defs>
    <style>
      .cls-1, .cls-2, .cls-3 {
        fill: none;
      }

      .cls-4 {
        fill: #e5e657;
      }

      .cls-5 {
        fill: #b8e0ee;
      }

      .cls-6 {
        fill: #382c13;
      }

      .cls-7 {
        fill: #f7ad1a;
      }

      .cls-8 {
        fill: #010101;
      }

      .cls-2 {
        stroke: #d8ab28;
        stroke-dasharray: .97 .97;
        stroke-width: .98px;
      }

      .cls-2, .cls-3 {
        stroke-miterlimit: 10;
      }

      .cls-3 {
        stroke: #020202;
        stroke-width: .24px;
      }

      .cls-9 {
        fill: #27153c;
      }

      .cls-10 {
        fill: #8e8e8e;
      }

      .cls-11 {
        fill: #13110f;
      }

      .cls-12 {
        fill: #f1eef7;
      }

      .cls-13 {
        fill: #d8ab28;
      }

      .cls-14 {
        fill: #100f10;
      }

      .cls-15 {
        fill: #31160e;
      }

      .cls-16 {
        fill: #0d3a59;
      }

      .cls-17 {
        fill: #0a2f44;
      }

      .cls-18 {
        fill: #6b3825;
      }

      .cls-19 {
        fill: #131429;
      }

      .cls-20 {
        fill: #fff;
      }

      .cls-21 {
        fill: #082f43;
      }

      .cls-22 {
        fill: #949395;
      }

      .cls-23 {
        fill: #a5a4a4;
      }

      .cls-24 {
        fill: #825639;
      }

      .cls-25 {
        fill: #a382ad;
      }

      .cls-26 {
        fill: #5a2b66;
      }

      .cls-27 {
        fill: #a4a4a4;
      }

      .cls-28 {
        fill: #774e80;
      }

      .cls-29 {
        fill: #3f261b;
      }

      .cls-30 {
        fill: #8c342c;
      }

      .cls-31 {
        clip-path: url(#clippath);
      }

      .cls-32 {
        fill: #24180f;
      }

      .cls-33 {
        fill: #af6b4e;
      }

      .cls-34 {
        fill: #4f2e25;
      }
    </style>
    <clipPath id="clippath">
      <path class="cls-1" d="M815.38,712.54s54.79,90.77,195.79,82.2c141-8.56,254.81-104.46,254.81-104.46,0,0-7.97-38.34-13.53-69.2-30.89-171.61-40.58-152.29-60.44-173.19-19.86-20.9-43.73-42.73-43.73-42.73l-10.92-12.57-14.44-23.18.09-5.47c7.27-29.53,49.47-224.21-96.58-241.39,0,0-99.07-21.48-122.92,74.96,0,0-12.21,62.06-9.99,102.94,1.63,30.09,10.15,80.23,13.6,99.63-.69,4.66-1.6,8.27-2.76,11.22-11.05,8.67-41.46,34.59-60.68,71.27-23.83,45.46-28.28,229.98-28.28,229.98ZM1061.59,295.03c-1.25,17.43-3.2,42.43-8.81,59.11l-6.9,14.94c-17.49,16.69-49.36,43.92-76.04,42.74-18.1-.81-23.64-5.25-30.01-11.66-9.67-9.74-14.86-20.45-21.89-31.77-6.75-10.85-9.65-17.56-12.37-30.01-2.81-12.88-2.66-16.24-.82-28.94.82-5.67,1.55-14.28,1.32-19.77-.26-6.33-2.23-31.32-2.26-45.94,0-1.26.07-2.65.18-4.13.11-2.53-.71-31.44,18.79-47.23,32.37-26.22,74.89-16.55,103.48-1.99,0,0,15.73,7.65,23.55,30.72,7.82,23.07,13.93,44.14,11.8,73.92Z"/>
    </clipPath>
  </defs>
  <rect class="cls-5" x="-44.38" y="-40.04" width="1405.56" height="1093.4" rx="12" ry="12"/>
  <ellipse class="cls-20" cx="667.35" cy="186.86" rx="158.93" ry="129.56"/>
  <polygon class="cls-20" points="783.37 219.28 848.93 296.65 748.78 278.88 783.37 219.28"/>
  <path class="cls-21" d="M637,155.23c1.54-4.46,3.82-8.25,6.84-11.37,3.02-3.12,6.69-5.56,10.99-7.3,4.3-1.74,9.22-2.61,14.76-2.61,4.3,0,8.32.64,12.07,1.92,3.74,1.28,7.04,3.15,9.91,5.61,2.87,2.46,5.12,5.43,6.76,8.92,1.64,3.49,2.46,7.48,2.46,11.99,0,5.74-1.26,10.61-3.77,14.6-2.51,4-5.71,7.84-9.61,11.53-3.18,3.18-5.71,5.66-7.61,7.46-1.9,1.79-3.3,3.56-4.23,5.3-.92,1.74-1.54,3.87-1.84,6.38-.31,2.51-.52,6.12-.62,10.84h-9.68c-.1-4.71.15-8.66.77-11.83.62-3.17,1.62-6.04,3-8.61,1.38-2.56,3.23-5.02,5.53-7.38,2.31-2.36,5.1-5.02,8.38-7.99,2.87-2.66,5.25-5.63,7.15-8.92,1.89-3.28,2.84-6.92,2.84-10.91,0-3.07-.59-5.89-1.77-8.45-1.18-2.56-2.77-4.74-4.76-6.53-2-1.79-4.33-3.2-6.99-4.23-2.67-1.02-5.48-1.54-8.45-1.54-4.1,0-7.74.72-10.91,2.15-3.18,1.44-5.79,3.41-7.84,5.92-2.05,2.51-3.59,5.46-4.61,8.84-1.03,3.38-1.49,7.07-1.38,11.07h-9.68c0-5.43.77-10.38,2.31-14.83ZM674.81,229.7v16.29h-12.91v-16.29h12.91Z"/>
  <path class="cls-33" d="M441.44,429.23c6.34,2.82,47.01,29.87,57.64,79.32,13.4,62.33,5.64,195.24,3.45,258.33-4.37,125.83,10.4,150.49-.08,276.17l-96.15-11.43s43.27-328.52,23.3-397.98c-19.97-69.46,11.84-204.42,11.84-204.42Z"/>
  <path class="cls-33" d="M238.09,264.23s11.03,60.63.34,95.99c-1.71,5.67-29.83,20.93-29.83,20.93l8.33,8.74c7.19,7.55,20.8,13.53,30.57,17.16,48.65,18.05,116.63,20.67,137.57-9.57l-13.41-21.79-9.86-5.04c-1.72-6.77,4.8-66.64,4.8-66.64"/>
  <path class="cls-17" d="M91.84,935.08l-3.46,82.7c-.98,55.13,10.91,92.89,26.15,145.88l32.35,243.46s-.16,97.34-9.93,177.77c-8.5,69.73,13.47,224.38,13.47,224.38l24.18,4.58c21.84,4.14,44.18,4.96,66.26,2.42l47.4-5.46,44.71-441.99,32.77-272.11,44.93-151.84-318.83-9.78Z"/>
  <path class="cls-17" d="M457.76,935.08l-30.96,466.72c-.02,19.52-7.84,37.23-16.8,131.17l-17.03,160.06-6.13,99.04-13.75,2.37c-18.89,3.8-38.22,5.01-57.44,3.6l-42.11-1.72,46.7-852.05,137.52-9.2Z"/>
  <path class="cls-20" d="M366.26,394.89c-2.33,8.62-6.32,18.86-23.13,21.39-25.12,3.78-49.54-1.1-80.28-24.53,0,0-22.56-15.12-25.81-29.23l-18.55,8.13c-11.71,5.17-41.8,14.08-63.66,24.26-23.24,8.36-69.31,29.03-85.14,65.76-14.49,40.23-28.03,154.21-35.7,222.1,19.04,7.11,37.83,14.65,58.4,15.84,1.12.06,3.02,2.92,4.4,3.01-5.37,40.38-9.88,74.96-12.27,95.18-6.21,52.56-17.22,127.31-12.96,160.97,4.27,33.66,196.84,51.11,267.97,43.48,35.55-3.81,88.83,2.77,119.71-24.5,7.64-6.75,7.65-61.99,8.64-86.77,2.71-67.63,1.8-135.46,3.57-203.15,2.9,2.82,20.14,2.12,29.76.43,14.66-2.58,20.47-5.17,25.6-8.94-14.83-53.03-23.05-162.71-33.39-203.39-9.69-38.1-70.08-73.83-105.63-90.12l-20.53-11.62s-2.8-1.58-2.23.37"/>
  <path class="cls-24" d="M235.65,289.02c0,.13.03.24.04.36-.05-.15-.08-.28-.04-.36Z"/>
  <path class="cls-33" d="M323.48,360.22l41.23-2.39,20.53-5.1c2.1,0,10.76-21.35,12.13-24.06,4.26-8.42,11.08-19.75,13.62-28.85,2.72-9.75,7.85-20.09,9.08-31.79.9-8.57.37-12.44-4.49-26.28-1.24-3.52-1.34-7.04-.55-10.86,1.7-8.04,2.17-17.43,4.21-28.2.16-.85,1.07-4.94.71-5.86,0,0-1.96-44.79-10.37-60.63-8.41-15.84-17.65-22.94-29.48-25.73-11.84-2.8-46.53,0-46.53,0l-48.14-5.94-40.41,20.98-19.75,49.97,4.11,57.47,7.15,51.27"/>
  <path class="cls-34" d="M344.22,345.53c-.33.22-22.12-2.14-22.54-2.17l-11.31-5.09s-.05-.04-.07-.05c-1.01.41-2.21.5-3.57.06-7.07-2.28-13.27-6.08-19.24-10.43-5.37-3.91-11.69-15.98-17.8-18.7-2.89-1.28-1.9-2.18-4.36-3.97.23.64.17,4.45.41,5.09,11.25,13.99,25.85,41.27,49.09,50.94,1.13.28,4.7,1.21,14.2,1.84,12.45.82,20.65,1.2,32.78-.66.07-8.77-.71-19.15-.78-27.93-4.47,0-4.43,2.91-16.81,11.08Z"/>
  <path d="M325.12,223.19c-2.64-1.36-5.73-.18-7.46,1.36-.41.36-1.5,1.39-2.01,3.13-.65,2.22.24,4.73,1.64,6.26,1.86,2.04,4.96,2.39,7.34,1.27,3.23-1.51,4.27-5.4,3.46-8.22-.15-.52-.84-2.69-2.98-3.8"/>
  <path d="M401.31,223.61c2.64-1.37,5.73-.19,7.46,1.34.41.36,1.5,1.38,2.01,3.12.66,2.22-.23,4.74-1.62,6.27-1.86,2.05-4.96,2.4-7.34,1.29-3.23-1.5-4.29-5.38-3.49-8.21.15-.52.84-2.7,2.97-3.81"/>
  <path d="M379.35,233.65s10.62-10.65,18.4-11.37c11.36-1.06,14.27,1.49,18.3,6.69,0,0-7.44-5.43-15.42-4.47-7.63.92-21.28,9.14-21.28,9.14Z"/>
  <path d="M342.45,230.93s-15.93-10.02-23.75-10.21c-11.4-.28-24.98,6.47-28.64,11.93,0,0,17.9-9.92,25.92-9.51,7.67.39,26.47,7.79,26.47,7.79Z"/>
  <path d="M344.95,194.36c1.48.72.94,1.85.93,4.58,0,.87.02,2.2.04,3.61.05,2.62-2.52,4.54-5.01,3.72-4.47-1.47-8.46-3.02-11.55-3.57-8.36-1.48-16.92-3.58-25.38-2.26-4.05.63-7.6,1.68-10.98,3.77-1.07.66-3.94,3.52-5.54,2.79-.65-.3.42-3.64.53-3.98,2.19-6.73,7.9-9.53,14.88-11.14,14.23-3.27,27.6.65,42.07,2.48"/>
  <path d="M421.23,193.13s-4.25-.95-4.28-.96c-9.18-2.1-18.3-2.05-27.44-.82-4.63.62-7.98,4.77-7.76,9.44,0,.03,0,.05,0,.08.04.93-.34,3.76.26,4.5.12.14.29.22.46.29,1.85.76,3.95.73,5.9.3,2.42-.54,4.57-1.77,6.96-2.39,6.84-1.8,14.03-3.79,21.08-2.79.56.08,3.57.56,4.11.67,2.05-3.85,1.72-7.76.71-8.31Z"/>
  <g>
    <path class="cls-8" d="M370.61,278.22c-3.33,1.79-8.42,1.38-11.78-.74-.75-.47-3.23-.01-2.18.65,4.44,2.8,11.74,3.06,16.04.74.43-.23.35-.57-.19-.75-.56-.19-1.44-.15-1.89.09"/>
    <path class="cls-8" d="M355.2,277.16c-2.24-1.08-4.76-1.65-7.27-1.84-.37-.03-.84.12-1.11.36-.21.19-.26.45.02.61,1.16.68,2.63.96,3.99.93.43,0,.99-.12,1.23-.49.22-.35-.19-.57-.52-.57-1.12.02-2.26-.2-3.22-.76-.37.33-.73.65-1.09.97,2.24.17,4.49.7,6.49,1.67.4.19.97.07,1.33-.15.27-.16.55-.54.15-.74"/>
    <path class="cls-8" d="M345.24,277.49c-2.94-.07-6.39-1.37-7.83-3.63-2.18-3.41-.16-8.7,3.5-10.88.4-.24.19-.54-.22-.63-.53-.12-1.15.09-1.57.33-3.19,1.91-5.25,6.23-4.77,9.43.45,2.99,3.26,5.07,6.78,5.94,1.04.25,2.16.43,3.25.46.44,0,1.24-.13,1.46-.48.22-.36-.19-.52-.6-.53"/>
    <path class="cls-8" d="M375.99,276.69c-.16-.35.13-.57.37-.57.79.02,1.6-.21,2.28-.77.26.32.52.65.78.97-1.59.18-3.18.71-4.59,1.69-.28.19-.69.07-.94-.15-.19-.16-.39-.54-.11-.74"/>
    <path class="cls-8" d="M373.77,277.13c1.59-1.09,3.36-1.66,5.14-1.86.26-.03.6.11.79.36.15.19.18.45-.01.61"/>
    <path class="cls-8" d="M382.08,277.09c1.91-.08,4.15-1.39,5.09-3.65,1.41-3.41.09-7.46-2.3-9.64-.26-.24-.12-.54.14-.63.34-.12.75.08,1.02.33,2.08,1.9,3.43,4.98,3.12,8.18-.29,2.99-2.11,5.08-4.39,5.95-.68.26-1.4.43-2.12.46-.29.01-.81-.12-.95-.48-.14-.36.12-.52.39-.53"/>
  </g>
  <path class="cls-18" d="M361.89,299.09c-12.75-.02-33.41-1.55-33.41-1.55,0,0,4.12,31.47,33.69,31.51,29.56.05,27.18-30.62,27.18-30.62,0,0-14.7.68-27.45.66Z"/>
  <path class="cls-32" d="M362.01,299.09c-6.06,0-30.5-1.07-30.5-1.07,0,0,8.72,20.26,30.65,20.3,23.77.04,25.58-19.89,25.58-19.89l-25.72.66Z"/>
  <path class="cls-12" d="M362.13,298.41c-6.06,0-24.51-1.06-24.51-1.06,0,0,6.78,8.22,24.96,8.25,18.19.03,23.83-7.98,23.83-7.98l-24.28.79Z"/>
  <path class="cls-18" d="M390.18,296.1c-.62-.16-1.61-.05-4.51-.31-4.85-.44-6.21-1.02-9.72-1.31-6-.49-9.81,1.95-12.41,1.95-2.61,0-6.41-2.46-12.41-1.99-3.51.27-12.21,1.58-17.06,2-2.91.25-6.32-.92-6.94-.76-.86.22.8,6.79,33.57,6.84,32.77.05,30.34-6.2,29.48-6.42Z"/>
  <path class="cls-19" d="M460.39,943.34c.24,0,.34-.31.04-.31-.24,0-.34.31-.04.31h0Z"/>
  <path class="cls-23" d="M480.15,511.06c0,15.29-.23,30.58-.78,45.86-.44,12.13-1.08,24.25-1.92,36.36-.72,10.3-1.58,20.59-2.47,30.88-.83,9.58-1.67,19.15-2.38,28.74-.75,10.17-1.35,20.34-1.71,30.53-.05,1.37-.09,2.74-.14,4.12l.06.07c1.81.7,3.77,1.05,5.68,1.35,5.27.82,10.66.81,15.96.29,8.03-.78,15.64-3.09,23.42-5.04,2.41-.61,4.84-1.19,7.3-1.6,1.04-.18,2.07-.36,3.04-.28.37.03.55.28.25.53l2.07-.39c-.76-5.54-1.51-11.08-2.27-16.62-.06-.42-1.53.09-1.71.17-.08.03-.16.07-.23.1-.24.1.19-.07-.11.05-.14.06-.29.11-.43.17-.95.36-1.91.69-2.88,1-3.79,1.21-7.68,2.12-11.58,2.86-9.56,1.81-19.63,3.01-29.37,2.29-1.3-.1-2.66-.19-3.92-.53-.45-.12-1.12.08-1.52.29-.19.1-.74.41-.28.53,1.16.31,2.4.4,3.59.51,3.7.33,7.44.26,11.15.07,10.55-.54,21.25-2.08,31.38-5.16,1.84-.56,3.69-1.14,5.46-1.91l-1.71.17c.76,5.54,1.51,11.08,2.27,16.62.07.51,1.87-.22,2.07-.39,1.18-.97-.68-1.22-1.39-1.21-2.35.03-4.73.59-7.01,1.1-5.21,1.16-10.31,2.75-15.5,3.99-8.66,2.06-17.87,2.99-26.71,1.52-1.04-.17-2.08-.38-3.1-.64-.45-.11-1.32-.19-1.69-.49.03.02-.1.01-.13-.05-.07-.12.09-.99.09-1.21.02-.63.04-1.27.06-1.9.07-2.07.15-4.13.24-6.2.66-15.28,1.86-30.53,3.18-45.78,1.38-15.96,2.77-31.92,3.76-47.91,1.31-21.21,1.95-42.46,2.09-63.71.02-3.24.03-6.48.03-9.72,0-.31-2.17-.01-2.17.58h0Z"/>
  <path d="M210.49,234.85s-11.34-23.18-13.52-72.39c-1.67-37.64,50.5-72.64,86.26-79.37,19.66-3.7,86.07,2.29,103.43,9.63,17.36,7.35,27.07,29.79,30.21,62.3,0,0-11.56-32.01-32.56-30.55-17.13,1.19-72.71-5.36-86.99,1.19-14.28,6.55-35.7,13.67-35.34,64.83.1,13.94-25.11,18.97-31.74,27.6-6.63,8.63-19.74,16.76-19.74,16.76Z"/>
  <path d="M250.42,227.99c.35,4.34.73,21.6,1.33,25.82l-22.74.15c-7.25-14.71-15.95-32.02-18.66-35.94-4.24-6.13-5.7-36.36-6.25-47.73l-.12-2.45c-.56-10.91,9.53-28.52,26.99-47.11,19.21-20.46,53.96-32.7,88.51-31.17,3.28.15,6.57.41,9.74.79,30.07,3.6,55.36,17.73,75.14,42.01,14.27,17.51,15.74,37.88,14.93,50.36-1.5-24.53-10.69-41.6-11.08-42.31-8.71-16.49-19.35-21-26.74-21.89-6.45-.77-11.22,1.06-12.17,1.46-7.24,1.81-17.93,1.09-25.64.16-5.75-.69-10.32-1.55-11.56-1.79-3.94-2.55-9.78-4.35-16.92-5.2-16.59-1.98-40.44,1.51-45.19,8.82-5.26,8.11-16.83,36.81-16.73,43.44"/>
  <path class="cls-33" d="M241.77,289.94c-12.47,18.65-22.51-12.31-22.51-12.31-13.1-15.51-13.21-32.13-12.82-43.5.39-11.37,12.9-11.29,12.9-11.29,10.63,1.08,15.41,6.75,24.54,42.5"/>
  <path d="M226.35,249.93c-3.7,1.1-4.53,4.95-4.32,8.39.06,1,.29,1.95.41,2.93.18,1.41.17,2.79.49,4.19.35,1.52.87,3,1.54,4.4.94,1.95,2.22,4.04,4.03,5.3.74.52,1.81,1,2.65.39.89-.65.69-2.03.54-2.96-.3-1.88-.93-3.69-1.42-5.52-.38-1.42-1.32-4.02-.36-5.38.81-1.15,3.86-.29,5.05-.16.05,0,.27-.03.24-.11-1.86-5.26-3.62-10.54-6.15-15.53-1.54-3.05-3.32-6.13-5.72-8.6-.89-.91-2.04-2.03-3.32-2.39-.79-.22-1.1.5-1.53,1.12-2.98,4.27-3.46,9.81-2.84,14.84,0,.08.31.02.3-.08-.58-4.72-.19-9.8,2.3-13.97.36-.61.82-1.48,1.41-1.91-.24.18-.17-.03.15.15,4.09,2.25,6.56,6.31,8.67,10.38,2.67,5.15,4.49,10.63,6.43,16.08l.24-.11c-1.23-.13-2.5-.37-3.74-.41-.84-.03-1.62.26-1.95,1.09-.48,1.21-.05,2.78.23,3.98.41,1.75.98,3.46,1.4,5.21.26,1.09.87,3.01.1,4.02-1.24,1.62-3.78-1.39-4.47-2.29-1.63-2.11-2.75-4.64-3.39-7.23-.43-1.73-.39-3.48-.71-5.21-.68-3.71-.61-9.16,3.78-10.46.17-.05.14-.18-.03-.12h0Z"/>
  <path class="cls-33" d="M380.66,337.53c-.28-.03-.55-.13-.79-.28-4.44-2.83-4.81-4.46-6.97-4.93-.5-.11-.75-.28-2.3-.47-6.2-.75-9.98-1.33-26.39,9.5-.33.22-22.11-2.14-22.54-2.17l-11.31-5.09c-1.9-1.13-44.58-35.75-44.58-35.75-.66-1.17-8.41-9.45-8.73-10.57-.13-.06-.26-.14-.4-.18-.05-.02-.16-.06-.27-.11-.02.07-.04.17-.06.23-.07.48-.05.99-.01,1.48.13,2.12.64-11.65,1.32-9.63,1.03,3.1,1.78,7.24,2.69,10.35.32,1.1,4.09,16.47,4.5,17.54,4.84,2.89,30.94,43.78,52.43,50.12,1.13.28,2.29.69,11.79,1.31,17.83,1.17,35.02.84,52.44-4.57,4.55-1.41,8.17-4.74,9.93-9.01,5.02-12.2,16.08-39.33,18.6-57.45-4.66,10.56-14.48,33.19-21.26,48.6-.21.47-6.96.96-7.52,1.14"/>
  <path class="cls-23" d="M234.63,364.13c4.52,5.68,9.68,10.92,14.93,15.92,11.3,10.76,23.88,20.43,37.81,27.55,7.65,3.91,15.76,7.02,24.18,8.81,8.85,1.88,18.04,2.14,27,.9,11.74-1.63,23.87-6.87,27.88-18.91,2.65-7.96,1.44-16.51-.18-24.55-.13-.66-.27-1.32-.39-1.98l-1.96.79c2.8,1.32,5.59,2.64,8.39,3.97,1.49.7,2.97,1.4,4.46,2.11.16.07.32.17.48.23.2.07.07.13-.09-.15.02.04.05.09.07.14.23.78.67,1.54.95,2.3.55,1.51,1.01,3.05,1.37,4.62,1.03,4.47,1.29,9.14.42,13.65-1.15,5.93-4.28,11.22-8.77,15.25-7.02,6.3-16.35,9.5-25.41,11.48-12.2,2.66-24.56,3.16-36.84.8-11.45-2.2-22.44-6.46-32.78-11.81-9.71-5.02-18.89-11.04-27.58-17.67-6.85-5.23-13.41-10.84-19.65-16.79-3.19-3.04-6.32-6.16-9.28-9.43-.13-.15-.26-.29-.4-.44l-.6.81c5.8-2.54,11.61-5.07,17.41-7.61,1.39-.61.11-1.21-.83-.8-5.8,2.54-11.61,5.07-17.41,7.61-.25.11-.91.46-.6.81,2.12,2.41,4.39,4.69,6.66,6.95,5.76,5.7,11.82,11.09,18.13,16.16,8.37,6.72,17.21,12.89,26.54,18.21,10.23,5.83,21.11,10.64,32.52,13.63,11.94,3.12,24.1,3.84,36.31,2.11,10.66-1.51,21.75-4.19,30.86-10.17,5.64-3.7,10.37-8.78,12.71-15.19,1.74-4.76,2.06-9.95,1.34-14.95-.46-3.19-1.3-6.36-2.57-9.33-.29-.69-.4-1.03-1.1-1.36-3.39-1.6-6.79-3.21-10.18-4.81-.94-.44-1.88-.89-2.81-1.33-.44-.21-2.1.07-1.96.79,1.42,7.44,2.95,14.94,1.53,22.52-.86,4.6-2.83,8.93-6.07,12.33-4.21,4.42-10.03,6.81-15.89,8.12-17.12,3.82-34.94.26-50.59-7.08-14.14-6.64-26.9-16.06-38.38-26.6-4.14-3.8-8.13-7.77-11.94-11.91-1.87-2.03-3.6-4.17-5.44-6.22-.08-.09-.16-.2-.24-.3-.43-.54-2.52.2-2.03.83Z"/>
  <path class="cls-33" d="M160.96,721.52l1.28-23.12c-7.51,4.29-43.68,8.82-109.4-9.44-3.73,55.21-13.92,118.87,37.37,137.16,51.85,24.97,184.16-41.09,184.16-41.09l32.44-88.45-145.86,24.93Z"/>
  <path class="cls-23" d="M155.46,442.08c9.35,2.21,17.56,8.11,24,15.08s11.38,15.05,13.38,24.13c2.96,13.46,3.99,27.38,4.64,41.12.83,17.72.7,35.49-.02,53.22-.77,19.06-2.25,38.09-4.53,57.03-2.1,17.49-4.84,34.94-8.87,52.09-.44,1.87-.89,3.73-1.37,5.58l.41-.46c-1.63.97-3,1.59-4.86,2.42-4.58,2.04-9.32,3.68-14.14,5.03-17.2,4.8-35.38,5.8-53.09,3.77-11.84-1.35-23.41-4.28-34.98-7.05-7.86-1.88-15.7-3.82-23.5-5.94-4.14-1.13-8.28-2.29-12.34-3.66-1.55-.52-3.14-1.04-4.6-1.78-.13-.07-.26-.16-.4-.21-.21-.09-.15-.05-.08-.04-.02,0-.05-.05-.07-.06-.09-.07.02.38.08.27.08-.16.07-.43.1-.61.9-5.28,1.8-10.55,2.7-15.83l.26-1.5c-.65.22-1.3.44-1.95.66,4.29,2.22,8.87,3.97,13.4,5.62,11.62,4.23,23.65,7.33,35.84,9.42,16.77,2.86,33.79,3.54,50.77,2.94,11.72-.41,23.47-1.44,34.98-3.77,4.29-.87,8.96-1.73,12.99-3.53.05-.02.1-.04.15-.06,1.4-.59.12-1.31-.86-.9-.2.08-.41.16-.61.24-.24.09-.49.18-.74.26.26-.09-.1.04-.25.08-.21.07-.42.14-.63.2-2.49.8-5.04,1.44-7.59,2.02-10.39,2.33-21.06,3.44-31.67,4-16.76.88-33.68.55-50.29-1.89-12.77-1.88-25.41-4.87-37.62-9.09-3.71-1.28-7.39-2.68-11.01-4.23-1.66-.71-3.26-1.55-4.92-2.25-.07-.03-.15-.07-.22-.11-.49-.25-1.84,0-1.95.66-.83,4.84-1.65,9.67-2.48,14.51l-.5,2.91c-.05.27-.16.57,0,.82.07.12.26.19.38.27.89.61,2.05.95,3.05,1.32,3.13,1.16,6.35,2.11,9.56,3.04,6.47,1.87,12.99,3.54,19.52,5.17,10.89,2.7,21.82,5.52,32.86,7.58,19.06,3.55,38.78,3.78,57.8-.17,9.35-1.94,18.78-4.8,27.24-9.3.5-.26,1.19-.53,1.46-1.04.43-.81.51-2.03.73-2.92.26-1.04.5-2.09.75-3.14.48-2.04.93-4.08,1.37-6.13,1.89-8.79,3.46-17.66,4.82-26.55,2.95-19.3,4.92-38.76,6.17-58.24,1.23-19.02,1.77-38.1,1.41-57.17-.29-15.58-1.08-31.27-3.51-46.68-.48-3.04-1.01-6.08-1.71-9.08-1.03-4.48-2.89-8.74-5.18-12.72-4.93-8.56-12.01-16.07-20.43-21.27-3.87-2.39-8.06-4.23-12.48-5.27-.7-.16-2.56.9-1.33,1.19h0Z"/>
  <path class="cls-33" d="M290.65,773.42l84.46-37.44s53.49,9.43,74.79,4.46c15.34-4.14,34.61-10.39,48.8-18.35l22.3-2.41c4.96-.47,9.79-1.86,14.25-4.09l7.69-3.85s21.69,6.86,25.39.02c3.7-6.84-3.41-11.62-10.31-16.25-6.9-4.63-124.07-30.53-124.07-30.53,11.68-7.04,17.49-13.27,29.96-18.43,19.19-7.79,28.02-20.47,22.35-28.66-3.98-5.75-26.52,3.73-41.61,14.81-9.81,7.21-33.46,6.95-52.06,17.31-18.61,10.36-30.2,29.51-30.2,29.51-6.95,4.94-66.16,17.85-66.16,17.85-.31,1.58-5.57,76.03-5.57,76.03Z"/>
  <path class="cls-6" d="M543.33,711c-8.67-.67-17.34-1.33-26.02-2-13.83-1.06-27.65-2.13-41.48-3.19-3.18-.24-6.35-.49-9.53-.73-1-.08-2.25,1.36-.78,1.48,8.67.67,17.34,1.33,26.02,2,13.83,1.06,27.65,2.13,41.48,3.19,3.18.24,6.35.49,9.53.73,1,.08,2.25-1.36.78-1.48h0Z"/>
  <path class="cls-6" d="M517.28,720.04c-4.86.86-9.75,1.56-14.64,2.19-9.1,1.17-18.3,2.14-27.48,2.05-4.02-.04-8.3-.15-12.15-1.45-.48-.16-1.11-.09-1.54.21-.23.16-.71.66-.19.83,3.41,1.16,7.09,1.44,10.67,1.57,4.66.17,9.34-.03,13.99-.35,8.6-.6,17.17-1.67,25.69-2.99,1.78-.28,3.57-.56,5.34-.87.34-.06,1.21-.26,1.24-.73s-.59-.51-.93-.45h0Z"/>
  <path class="cls-33" d="M151.79,719.5c-.93.2-1.86.4-2.8.6-2.1,3.17-3.91,6.56-5.44,10.08-8.7,19.96-9.35,43.71-4.77,64.76,2.83,13.03,47.63,11.88,56.18,22.37,91.24-33.55,161.15-72.32,161.15-72.32l-10.85-57.54-193.48,32.06Z"/>
  <path class="cls-6" d="M161.12,717.94c-7.18.77-14.08,5.19-19.56,9.63-6.07,4.92-10.56,11.18-13.5,18.42-1.37,3.38-2.75,7.49-1.79,11.15.14.52,2.31-.05,2.17-.58-.79-3.01.08-6.28,1.09-9.13,1.16-3.32,2.76-6.5,4.61-9.48,3.89-6.31,9.62-11.3,15.97-15.05,3.04-1.79,6.53-3.64,10.09-4.02.35-.04,1.29-.15,1.45-.53s-.13-.44-.52-.4h0Z"/>
  <path class="cls-33" d="M873.76,987.13c-.1.66,0,1.32.28,1.92,2.38,5.19,14.52,26.82,14.83,47.43.27,18.54.7,45.48.85,54.82.03,2.21-2.03,3.97-4.36,3.66-3.24-.44-7.5-2.55-10.02-9.93-2.33-8.09-3.9-16.35-4.68-24.69-.27-2.93-3.9-4.38-6.32-2.51h0c-.97.74-1.49,1.88-1.42,3.05l1.73,25.95c.09,1.41,1.04,2.63,2.43,3.15,5.14,1.92,17.49,7.25,21.01,15.31,1.06,2.42-1.03,5.04-3.82,4.92l-17.75-.72c-.24,0-.47-.04-.71-.09l-17.49-3.79c-.69-.15-1.33-.47-1.83-.94l-15.78-14.43c-.49-.45-.85-1.02-1.03-1.64l-13.31-45.65c-1.21-4.15-1.32-8.53-.22-12.71,3.15-11.97,5.63-24.09,7.42-36.3,2.87-23.91,4.46-39.34,5.16-46.47.23-2.35,2.76-3.87,5.14-3.1l41.06,13.26c1.75.57,2.83,2.21,2.58,3.93l-3.74,25.57Z"/>
  <path class="cls-14" d="M908.73,432.45c-5.65,2.17-55.95,14.57-67.3,56.87-11.35,42.3-8.43,162.9-13.64,200.06-6.71,43.31-8.41,111.78-12.53,167.5l3.29,118.42,42.72-1.08s26.46-263.16,46.79-322.37c20.33-59.21.67-219.4.67-219.4Z"/>
  <path class="cls-25" d="M877.33,676.86c2.23,2.55,5.49,4.54,5.81,66.37.06,11.2-12.06,50.99-14.7,61.58,10.24,3.11,20.71,5.55,31.35,7.22,46.5,7.33,94.14,1.38,139.54-9.26,38.83-9.11,76.52-21.85,114.01-34.95l-1.1-2.46,15.18-315.97-62.58-20.34-21.71-2.16-.7,6.64c-13.9,16.06-31.47,25.22-54.33,25.63-6.69.12-13.72-.18-20.87-.96-19.92-2.18-45.61-13-54.76-27.48-.34-.55-17.12,2.06-19.93,3.01-19.07,6.41-31.65,12.57-47.44,18.86,0,0-15.33,22.44-17.27,75.66"/>
  <path class="cls-14" d="M825.39,873.65s2.68,877.2-7.58,899.73c0,0,131.68,38.38,257.6,24.31,125.92-14.06,170.03-8.6,170.03-8.6-3.87-218.41-11.94-437.24-12.39-655.57-.27-128.91-12.54-244.9-48.15-368.97l-24.07-46.51-273.92,15.12"/>
  <path class="cls-22" d="M824.14,986.28c.44,0,1.24-.14,1.43-.62.18-.45-.15-.73-.61-.73s-1.24.14-1.43.62c-.18.45.15.73.61.73h0Z"/>
  <path class="cls-22" d="M847.6,526.36c3.75,7.21,5.11,16.55,4.28,24.53-.48,4.63-2.23,9.21-3.58,13.63-4.99,16.33-9.59,32.86-10.92,49.96-1.52,19.56,1.44,39.82,12.89,56.2.72,1.03,1.47,2.04,2.25,3.03s2.22,2.16,2.81,3.29c.14.26.17.66.24.94.53,2.12,1,4.26,1.44,6.4,1.77,8.55,3.08,17.2,3.88,25.89,1.03,11.31,1.23,22.78-.29,34.05-.8,5.98-2.49,11.72-3.72,17.6-2.24,10.64-3.91,21.41-5.62,32.15-2.45,15.48-4.75,30.98-7.01,46.49-2.48,17.02-4.91,34.05-7.33,51.07-2.18,15.34-4.34,30.67-6.56,46-1.48,10.2-2.92,20.42-4.63,30.59-.23,1.36-.46,2.72-.72,4.07-.18.92,2.03.59,2.18-.24,1.61-8.45,2.77-17.01,4.02-25.52,2.12-14.41,4.16-28.82,6.21-43.24,2.4-16.9,4.8-33.81,7.24-50.71,2.34-16.25,4.72-32.49,7.22-48.71,1.88-12.18,3.77-24.37,6.05-36.48.66-3.52,1.34-7.06,2.24-10.53,2.65-10.19,3.76-20.51,3.7-31.03-.08-16.24-2.22-32.68-6.13-48.45-.07-.29-.11-.67-.24-.94-.36-.76-1.23-1.46-1.77-2.11-.95-1.14-1.85-2.3-2.72-3.5-3.13-4.3-5.73-8.97-7.76-13.88-3.77-9.11-5.59-18.93-5.98-28.76-.75-18.47,3.24-36.81,8.38-54.45,1.76-6.05,3.78-12.03,5.4-18.13,2.01-7.56,1.38-15.62-.75-23.1-.65-2.28-1.42-4.6-2.52-6.72-.42-.81-2.54-.13-2.17.58h0Z"/>
  <path class="cls-10" d="M1079.92,409.8c-18.95,21.63-35.65,45.74-50.25,70.45-12.02,20.34-22.69,41.72-29.95,64.24-2.22,6.88-4.1,13.58-4.96,20.73-4.12,34.2-3.78,69.22-4.38,103.61-1.01,57.17-1.18,114.35-1.18,171.53,0,64.46.33,128.92.81,193.38.42,55.76.96,111.51,1.6,167.27.36,31.24.75,62.48,1.19,93.72.22,15.29.29,30.59.41,45.89.42,51.56.84,103.12,1.26,154.68.49,60.51.98,121.02,1.47,181.54.3,37.08.6,74.17.9,111.25.01,1.8.03,3.6.04,5.41,0,.09.29.03.29-.08-.22-26.5-.43-52.99-.65-79.49-.47-57.58-.93-115.17-1.4-172.75-.46-56.52-.92-113.03-1.38-169.55-.19-23.52-.3-47.04-.57-70.55-.26-22.36-.61-44.72-.89-67.08-.62-50.74-1.16-101.47-1.61-152.21-.56-63.71-.97-127.42-1.13-191.14-.15-60.53-.12-121.06.54-181.59.46-42.1.73-84.34,3.45-126.37.81-12.51,2.06-24.15,5.82-36.16,13.42-42.9,38.34-82.28,65.53-117.75,4.93-6.44,9.96-12.84,15.31-18.94.08-.09-.21-.07-.27,0h0Z"/>
  <path class="cls-10" d="M1106.57,391.08c-12.49,17.14-24.29,34.84-35.68,52.72-19.48,30.59-39.03,62.49-51.36,96.75-10.66,29.62-7.8,63-8.05,93.99-.42,53.97-.32,107.94-.17,161.91.18,66.39.54,132.79.97,199.18.39,60.38.84,120.75,1.34,181.12.3,36,.61,72.01.95,108.01.14,14.79.25,29.57.37,44.36.41,51.66.82,103.31,1.23,154.97.5,62.43.99,124.86,1.49,187.28l.92,116.27c.02,1.94.03,3.88.05,5.82,0,.04.29,0,.29-.08-.22-27.62-.44-55.23-.66-82.85-.48-60.04-.95-120.08-1.43-180.11-.46-57.35-.91-114.71-1.37-172.06-.17-21.47-.32-42.95-.51-64.42-.25-27.28-.5-54.56-.74-81.84-.48-55.87-.92-111.74-1.31-167.61-.46-66.37-.86-132.73-1.13-199.1-.23-58.77-.4-117.55-.19-176.32.12-33.01-.58-66.3,1.5-99.27,1.76-27.9,16.92-55.08,30.08-79.07,16.2-29.55,34.52-57.96,53.73-85.63,3.28-4.72,6.57-9.43,9.96-14.08.02-.02-.24-.02-.29.05h0Z"/>
  <path class="cls-10" d="M914.5,382.44c4.62,22.08,8.75,44.28,12.59,66.5,6.21,35.96,12.93,72.83,13.25,109.43.26,29.82-1.07,59.75-1.46,89.58-.71,55.48-1.3,110.96-1.87,166.43-.68,65.65-1.32,131.31-1.94,196.96-.55,58.66-1.09,117.32-1.62,175.99-.3,33.9-.6,67.79-.9,101.69-.13,15.15-.15,30.3-.2,45.44-.17,51.92-.35,103.83-.52,155.75-.21,61.67-.41,123.33-.62,185-.13,38.13-.26,76.27-.38,114.4,0,1.86-.01,3.71-.02,5.57,0,.16.29.12.29-.02.09-27.27.18-54.53.27-81.8.2-59.24.4-118.48.6-177.72.19-57.37.39-114.75.58-172.12.08-22.37.08-44.73.23-67.1.17-25.52.45-51.04.67-76.56.48-54.41.98-108.83,1.48-163.24.61-65.77,1.24-131.53,1.9-197.3.6-59.58,1.22-119.16,1.93-178.73.43-35.85.73-71.71,1.56-107.55,1.33-57.74-10.77-115.83-21.84-172.26-1.21-6.15-2.42-12.3-3.71-18.43-.03-.14-.32-.06-.29.08h0Z"/>
  <path class="cls-10" d="M978.13,735.3l-28.81-.13c-3.12-.01-5.67,2.47-5.75,5.59l-.68,28.7c-.08,3.22,2.52,5.87,5.75,5.86l29.49-.13c3.15-.01,5.7-2.57,5.7-5.72v-28.43c0-3.15-2.55-5.71-5.69-5.72Z"/>
  <path class="cls-10" d="M978.13,780.25l-28.81-.13c-3.12-.01-5.67,2.47-5.75,5.59l-.68,28.7c-.08,3.22,2.52,5.87,5.75,5.86l29.49-.13c3.15-.01,5.7-2.57,5.7-5.72v-28.43c0-3.15-2.55-5.71-5.69-5.72Z"/>
  <path class="cls-10" d="M977.04,825.2l-26.64-.12c-3.72-.02-6.76,2.94-6.85,6.66l-.63,26.49c-.09,3.84,3.01,7,6.85,6.98l27.26-.12c3.75-.02,6.79-3.07,6.79-6.82v-26.25c0-3.75-3.03-6.8-6.79-6.82Z"/>
  <path class="cls-10" d="M977.04,870.16l-26.64-.12c-3.72-.02-6.76,2.94-6.85,6.66l-.63,26.49c-.09,3.84,3.01,7,6.85,6.98l27.26-.12c3.75-.02,6.79-3.07,6.79-6.82v-26.25c0-3.75-3.03-6.8-6.79-6.82Z"/>
  <path class="cls-10" d="M977.04,915.11l-26.64-.12c-3.72-.02-6.76,2.94-6.85,6.66l-.63,26.49c-.09,3.84,3.01,7,6.85,6.98l27.26-.12c3.75-.02,6.79-3.07,6.79-6.82v-26.25c0-3.75-3.03-6.8-6.79-6.82Z"/>
  <path class="cls-10" d="M977.04,960.07l-26.64-.12c-3.72-.02-6.76,2.94-6.85,6.66l-.63,26.49c-.09,3.84,3.01,7,6.85,6.98l27.26-.12c3.75-.02,6.79-3.07,6.79-6.82v-26.25c0-3.75-3.03-6.8-6.79-6.82Z"/>
  <g>
    <ellipse class="cls-3" cx="968.98" cy="747.23" rx="9.45" ry="8.93" transform="translate(-216.48 443.99) rotate(-23.29)"/>
    <ellipse class="cls-3" cx="959.29" cy="747.34" rx="9.45" ry="8.93" transform="translate(-217.31 440.16) rotate(-23.29)"/>
    <ellipse class="cls-3" cx="968.32" cy="763.14" rx="9.45" ry="8.93" transform="translate(-222.82 445.02) rotate(-23.29)"/>
    <ellipse class="cls-3" cx="958.62" cy="763.24" rx="9.45" ry="8.93" transform="translate(-223.66 441.2) rotate(-23.29)"/>
  </g>
  <g>
    <ellipse class="cls-3" cx="968.54" cy="792.19" rx="9.45" ry="8.93" transform="translate(-234.29 447.48) rotate(-23.29)"/>
    <ellipse class="cls-3" cx="958.84" cy="792.3" rx="9.45" ry="8.93" transform="translate(-235.13 443.65) rotate(-23.29)"/>
    <ellipse class="cls-3" cx="967.88" cy="808.1" rx="9.45" ry="8.93" transform="translate(-240.64 448.51) rotate(-23.29)"/>
    <ellipse class="cls-3" cx="958.18" cy="808.2" rx="9.45" ry="8.93" transform="translate(-241.47 444.68) rotate(-23.29)"/>
  </g>
  <g>
    <ellipse class="cls-3" cx="968.77" cy="837.14" rx="9.45" ry="8.93" transform="translate(-252.05 451.23) rotate(-23.29)"/>
    <ellipse class="cls-3" cx="959.08" cy="837.25" rx="9.45" ry="8.93" transform="translate(-252.88 447.41) rotate(-23.29)"/>
    <ellipse class="cls-3" cx="968.11" cy="853.05" rx="9.45" ry="8.93" transform="translate(-258.39 452.26) rotate(-23.29)"/>
    <ellipse class="cls-3" cx="958.42" cy="853.15" rx="9.45" ry="8.93" transform="translate(-259.22 448.44) rotate(-23.29)"/>
  </g>
  <g>
    <ellipse class="cls-3" cx="968.33" cy="882.1" rx="9.45" ry="8.93" transform="translate(-269.86 454.72) rotate(-23.29)"/>
    <ellipse class="cls-3" cx="958.63" cy="882.21" rx="9.45" ry="8.93" transform="translate(-270.69 450.89) rotate(-23.29)"/>
    <ellipse class="cls-3" cx="967.67" cy="898.01" rx="9.45" ry="8.93" transform="translate(-276.2 455.75) rotate(-23.29)"/>
    <ellipse class="cls-3" cx="957.97" cy="898.11" rx="9.45" ry="8.93" transform="translate(-277.03 451.93) rotate(-23.29)"/>
  </g>
  <g>
    <ellipse class="cls-3" cx="968.77" cy="927.08" rx="9.45" ry="8.93" transform="translate(-287.61 458.56) rotate(-23.29)"/>
    <ellipse class="cls-3" cx="959.08" cy="927.19" rx="9.45" ry="8.93" transform="translate(-288.44 454.74) rotate(-23.29)"/>
    <ellipse class="cls-3" cx="968.11" cy="942.99" rx="9.45" ry="8.93" transform="translate(-293.95 459.59) rotate(-23.29)"/>
    <ellipse class="cls-3" cx="958.42" cy="943.09" rx="9.45" ry="8.93" transform="translate(-294.78 455.77) rotate(-23.29)"/>
  </g>
  <g>
    <ellipse class="cls-3" cx="968.33" cy="972.04" rx="9.45" ry="8.93" transform="translate(-305.42 462.05) rotate(-23.29)"/>
    <ellipse class="cls-3" cx="958.63" cy="972.15" rx="9.45" ry="8.93" transform="translate(-306.25 458.22) rotate(-23.29)"/>
    <ellipse class="cls-3" cx="967.67" cy="987.95" rx="9.45" ry="8.93" transform="translate(-311.76 463.08) rotate(-23.29)"/>
    <ellipse class="cls-3" cx="957.97" cy="988.05" rx="9.45" ry="8.93" transform="translate(-312.59 459.26) rotate(-23.29)"/>
  </g>
  <path class="cls-28" d="M843.66,482.57c19.22-36.67,49.63-62.6,60.68-71.27,1.16-2.95,2.07-6.57,2.76-11.22-3.45-19.4-11.97-69.54-13.6-99.63-2.22-40.87,9.99-102.94,9.99-102.94,23.86-96.44,122.92-74.96,122.92-74.96,146.06,17.18,103.85,211.86,96.58,241.39l-.09,5.47,14.44,23.18,10.92,12.57s23.88,21.83,43.73,42.73c19.86,20.9,29.54,1.58,60.44,173.19,5.56,30.86,13.53,69.2,13.53,69.2,0,0-113.8,95.9-254.81,104.46-141,8.56-195.8-82.2-195.8-82.2,0,0,4.45-184.51,28.28-229.97Z"/>
  <path class="cls-33" d="M904.01,243.74c-.03-14.63,8.71-45.89,8.71-45.89.36-1.48,5.43-23.65,6.09-24.88,22.84-8.81,55.12-21.01,78.51-14.65,22.67,6.17,74.52,21.94,74.58,50.93.02,8.85-7.61,65.28-.92,67.1.06,1.16.07,2.21,0,3.05-.63,7.49,1.08,23.74,1.08,23.74,2.23-2.7,7.12-8.5,8.5-11.63,1.37-2.73.6-6.31,1.97-9.04,4.04-6.22,12.6-4.01,17.22.07l.76,1.32c6.34,9.11-1.63,36.66-6.74,44.76-1.91,16.75-16.95,25.13-24.89,12.76l-2.52,6.48-20.24,21.21c-17.49,16.69-49.36,43.92-76.04,42.74-18.11-.8-23.64-5.25-30.01-11.66-9.68-9.74-14.86-20.45-21.89-31.77-6.75-10.85-9.65-17.56-12.37-30.01-2.81-12.88-2.66-16.24-.82-28.94.82-5.67,1.55-14.28,1.32-19.77-.26-6.33-2.23-31.32-2.26-45.94Z"/>
  <path class="cls-11" d="M920.74,280.19c-2.35-1.3-5.46-.38-7.06.96-.38.31-1.11,1.29-1.61,2.85-.64,1.99.09,4.29,1.32,5.7,1.63,1.89,4.43,2.29,6.6,1.34,2.96-1.28,4-4.77,3.34-7.34-.12-.47-.69-2.46-2.59-3.51"/>
  <path class="cls-11" d="M944.3,287.32s-8.33-6.11-14.18-7.35c-11.92-2.52-20.53-.58-23.72,3.64,0,0,11.94-3.5,22.16-1.23,5.74,1.28,15.74,4.94,15.74,4.94Z"/>
  <path class="cls-11" d="M1000.52,281.59c2.42-1.17,6.25-.73,7.78.7.36.33,1.32,1.29,1.74,2.87.54,2.02-.33,4.27-1.62,5.62-1.73,1.8-4.54,2.04-6.67.98-2.88-1.44-3.73-4.98-2.94-7.51.15-.46-.3-1.38,1.65-2.33"/>
  <path class="cls-11" d="M986.97,288.24s10.36-9.03,22.75-9.21c9.43-.14,20.41,3.98,25.66,7.9,0,0-18.55-5.17-25.2-4.98-6.35.18-23.22,6.29-23.22,6.29Z"/>
  <path class="cls-11" d="M1034.49,266.99c-1.57-.38-2.63-.83-4.24-1.06-8.84-1.26-17.61-1.74-26.54-1.12-7.85.5-15.41,2.33-22.97,4.26-.1-1.6-.6-.84-.7-2.45-.12-2.12-.25-4.23-.36-6.33,18.86-2.74,33.17-2.63,38.38-1.79,3.95.63,7.77,1.85,11.37,3.47,0,0,9.97,4.34,11.16,6s-6.1-.98-6.1-.98Z"/>
  <path class="cls-11" d="M904.57,262.37c.12-.24.22-.5.36-.73,0,0,0-.02,0-.03,1.74-.68,3.93-1.38,6.48-1.86,4.46-.83,16.52-1,32.44,1.39.05,2.95.12,5.9.19,8.86-6.53-1.84-13.06-3.53-19.82-3.99-6.35-.43-12.97-.34-19.37.58-.18-.62-.39-1.23-.52-1.86-.03-.43-.05-.86-.04-1.28.07-.36.15-.72.26-1.07Z"/>
  <path class="cls-18" d="M964.33,349.49c12.98.12,35.11-1.27,35.11-1.27,0,0-5.18,31.41-35.26,31.13-30.08-.28-31.48-31.01-31.48-31.01,0,0,18.65,1.03,31.63,1.15Z"/>
  <path class="cls-15" d="M964.2,349.49c6.17.06,31.05-.78,31.05-.78,0,0-8.27,18.98-30.59,18.77-24.19-.22-28.47-18.79-28.47-18.79l28.02.8Z"/>
  <path class="cls-12" d="M963.92,350.43c6.17.06,24.95-.84,24.95-.84,0,0-6.82,6.87-25.33,6.7-18.51-.17-24.32-6.96-24.32-6.96l24.7,1.1Z"/>
  <path class="cls-18" d="M931.88,347.59c.66-.16,1.51-.58,4.42-1.08,5.04-.88,8.32-1.75,12.02-2.01,6.32-.44,10.31,2.16,13.05,2.18,2.75.03,6.78-2.5,13.09-1.94,3.7.33,13.88,1.82,18.98,2.32,3.06.3,6.66-.89,7.32-.72.91.24-1.96,7.06-36.48,6.74-34.52-.32-33.32-5.26-32.41-5.48Z"/>
  <path class="cls-9" d="M1077.24,290.95s-18.3-81.97-101.33-87.96c-47.99-3.46-71.74,36.86-71.74,36.86,0,0,1.62-44.72,21.57-61.18,19.95-16.46,83.01-16.32,111.6-1.75,28.59,14.56,39.9,114.03,39.9,114.03Z"/>
  <path class="cls-28" d="M1112.96,227.3s-21.15-93.32-100.55-99.53c-98.64-7.49-113.46,96.25-113.46,96.25l-2.03,77.39c.12-19.97-.55-37.84,5.55-56.85,1.21-11.21-1.83-41.23,30.86-59.4,17.71-9.79,39.12-11.08,58.72-7.46,18.06,3.33,38.39,10.88,48.92,27.11,10.7,16.5,15.9,34.05,17.7,44.59,4.55,21.04,3.52,51.19.74,72.53-2.89,19.22-3.98,45.22-36.34,76.06,87.1-24.65,95-124.19,92.23-170.41l-2.33-.29Z"/>
  <g>
    <path class="cls-8" d="M954.04,330.11c2.54,1.74,6.44,1.38,9.03-.65.57-.45,2.47,0,1.67.64-3.42,2.68-9.01,2.88-12.29.63-.33-.23-.27-.55.15-.72.43-.18,1.1-.14,1.45.1"/>
    <path class="cls-8" d="M965.85,329.16c1.72-1.03,3.65-1.56,5.57-1.74.28-.02.65.12.85.36.16.19.19.44-.02.59-.89.65-2.02.91-3.06.88-.33,0-.76-.12-.94-.48-.17-.34.15-.55.4-.54.86.03,1.73-.18,2.47-.72.28.32.55.63.83.95-1.72.16-3.44.65-4.98,1.58-.31.18-.75.06-1.02-.15-.2-.16-.42-.52-.11-.71"/>
    <path class="cls-8" d="M973.48,329.54c2.25-.05,4.9-1.29,6.02-3.46,1.69-3.27.16-8.46-2.63-10.58-.3-.23-.14-.53.17-.61.4-.11.88.09,1.2.33,2.44,1.85,4,6.11,3.61,9.19-.36,2.88-2.52,4.87-5.22,5.68-.8.24-1.65.4-2.5.42-.34,0-.95-.13-1.12-.47-.17-.35.15-.5.46-.5"/>
    <path class="cls-8" d="M949.93,328.61c.12-.33-.1-.55-.28-.55-.61.02-1.23-.21-1.74-.75-.2.31-.4.62-.6.93,1.21.18,2.43.7,3.51,1.65.21.19.53.07.72-.14.15-.15.3-.52.09-.71"/>
    <path class="cls-8" d="M951.63,329.04c-1.21-1.06-2.57-1.62-3.93-1.82-.2-.03-.46.11-.6.34-.12.19-.14.43,0,.59"/>
    <path class="cls-8" d="M945.25,328.96c-1.46-.08-3.17-1.36-3.88-3.54-1.07-3.3-.04-7.19,1.8-9.27.2-.23.1-.52-.1-.61-.26-.11-.57.08-.78.31-1.6,1.82-2.65,4.78-2.43,7.87.21,2.88,1.6,4.91,3.34,5.76.52.25,1.07.42,1.62.46.22.01.62-.12.73-.46.11-.35-.09-.5-.3-.51"/>
  </g>
  <g class="cls-31">
    <g>
      <circle class="cls-4" cx="1266.13" cy="431.66" r="21.42"/>
      <path class="cls-2" d="M1256.4,450.74c10.54,5.37,23.44,1.19,28.81-9.35s1.19-23.44-9.35-28.81c-10.54-5.37-23.44-1.19-28.81,9.35s-1.19,23.44,9.35,28.81Z"/>
    </g>
    <g>
      <circle class="cls-4" cx="823.51" cy="313.6" r="21.42"/>
      <path class="cls-2" d="M813.78,332.68c10.54,5.37,23.44,1.19,28.81-9.35,5.37-10.54,1.19-23.44-9.35-28.81-10.54-5.37-23.44-1.19-28.81,9.35s-1.19,23.44,9.35,28.81Z"/>
    </g>
    <g>
      <circle class="cls-4" cx="1255.58" cy="644.24" r="21.42"/>
      <path class="cls-2" d="M1245.85,663.32c10.54,5.37,23.44,1.19,28.81-9.35,5.37-10.54,1.19-23.44-9.35-28.81-10.54-5.37-23.44-1.19-28.81,9.35-5.37,10.54-1.19,23.44,9.35,28.81Z"/>
    </g>
    <g>
      <circle class="cls-4" cx="813.26" cy="519.13" r="21.42"/>
      <path class="cls-2" d="M803.53,538.21c10.54,5.37,23.44,1.19,28.81-9.35,5.37-10.54,1.19-23.44-9.35-28.81s-23.44-1.19-28.81,9.35c-5.37,10.54-1.19,23.44,9.35,28.81Z"/>
    </g>
    <g>
      <circle class="cls-4" cx="831.34" cy="100.85" r="21.42"/>
      <path class="cls-2" d="M821.61,119.93c10.54,5.37,23.44,1.19,28.81-9.35,5.37-10.54,1.19-23.44-9.35-28.81-10.54-5.37-23.44-1.19-28.81,9.35-5.37,10.54-1.19,23.44,9.35,28.81Z"/>
    </g>
    <g>
      <circle class="cls-4" cx="813.1" cy="732.69" r="21.42"/>
      <path class="cls-2" d="M803.37,751.77c10.54,5.37,23.44,1.19,28.81-9.35,5.37-10.54,1.19-23.44-9.35-28.81-10.54-5.37-23.44-1.19-28.81,9.35s-1.19,23.44,9.35,28.81Z"/>
    </g>
    <g>
      <circle class="cls-4" cx="898.58" cy="413.45" r="21.42"/>
      <path class="cls-2" d="M888.85,432.53c10.54,5.37,23.44,1.19,28.81-9.35s1.19-23.44-9.35-28.81c-10.54-5.37-23.44-1.19-28.81,9.35-5.37,10.54-1.19,23.44,9.35,28.81Z"/>
    </g>
    <g>
      <circle class="cls-4" cx="1173.1" cy="527.97" r="21.42"/>
      <path class="cls-2" d="M1163.37,547.05c10.54,5.37,23.44,1.19,28.81-9.35,5.37-10.54,1.19-23.44-9.35-28.81s-23.44-1.19-28.81,9.35c-5.37,10.54-1.19,23.44,9.35,28.81Z"/>
    </g>
    <g>
      <circle class="cls-4" cx="1083.39" cy="633.86" r="21.42"/>
      <path class="cls-2" d="M1073.66,652.94c10.54,5.37,23.44,1.19,28.81-9.35,5.37-10.54,1.19-23.44-9.35-28.81s-23.44-1.19-28.81,9.35-1.19,23.44,9.35,28.81Z"/>
    </g>
    <g>
      <circle class="cls-4" cx="995.78" cy="520.03" r="21.42"/>
      <path class="cls-2" d="M986.05,539.1c10.54,5.37,23.44,1.19,28.81-9.35,5.37-10.54,1.19-23.44-9.35-28.81-10.54-5.37-23.44-1.19-28.81,9.35-5.37,10.54-1.19,23.44,9.35,28.81Z"/>
    </g>
    <g>
      <circle class="cls-4" cx="908.92" cy="625.31" r="21.42"/>
      <path class="cls-2" d="M899.19,644.39c10.54,5.37,23.44,1.19,28.81-9.35,5.37-10.54,1.19-23.44-9.35-28.81-10.54-5.37-23.44-1.19-28.81,9.35-5.37,10.54-1.19,23.44,9.35,28.81Z"/>
    </g>
    <g>
      <circle class="cls-4" cx="1159.77" cy="751.63" r="21.42"/>
      <path class="cls-2" d="M1150.04,770.7c10.54,5.37,23.44,1.19,28.81-9.35s1.19-23.44-9.35-28.81-23.44-1.19-28.81,9.35c-5.37,10.54-1.19,23.44,9.35,28.81Z"/>
    </g>
    <g>
      <circle class="cls-4" cx="987.58" cy="741.25" r="21.42"/>
      <path class="cls-2" d="M977.84,760.33c10.54,5.37,23.44,1.19,28.81-9.35,5.37-10.54,1.19-23.44-9.35-28.81s-23.44-1.19-28.81,9.35c-5.37,10.54-1.19,23.44,9.35,28.81Z"/>
    </g>
    <g>
      <circle class="cls-4" cx="1107.9" cy="6.79" r="21.42"/>
      <path class="cls-2" d="M1098.17,25.87c10.54,5.37,23.44,1.19,28.81-9.35s1.19-23.44-9.35-28.81c-10.54-5.37-23.44-1.19-28.81,9.35-5.37,10.54-1.19,23.44,9.35,28.81Z"/>
    </g>
    <g>
      <circle class="cls-4" cx="925.38" cy="5.9" r="21.42"/>
      <path class="cls-2" d="M915.65,24.97c10.54,5.37,23.44,1.19,28.81-9.35,5.37-10.54,1.19-23.44-9.35-28.81s-23.44-1.19-28.81,9.35c-5.37,10.54-1.19,23.44,9.35,28.81Z"/>
    </g>
    <g>
      <circle class="cls-4" cx="1183.35" cy="322.44" r="21.42"/>
      <path class="cls-2" d="M1173.62,341.52c10.54,5.37,23.44,1.19,28.81-9.35,5.37-10.54,1.19-23.44-9.35-28.81s-23.44-1.19-28.81,9.35c-5.37,10.54-1.19,23.44,9.35,28.81Z"/>
    </g>
    <g>
      <circle class="cls-4" cx="1273.58" cy="220.24" r="21.42"/>
      <path class="cls-2" d="M1263.85,239.31c10.54,5.37,23.44,1.19,28.81-9.35,5.37-10.54,1.19-23.44-9.35-28.81s-23.44-1.19-28.81,9.35c-5.37,10.54-1.19,23.44,9.35,28.81Z"/>
    </g>
    <g>
      <circle class="cls-4" cx="1093.94" cy="421.28" r="21.42"/>
      <path class="cls-2" d="M1084.21,440.36c10.54,5.37,23.44,1.19,28.81-9.35s1.19-23.44-9.35-28.81-23.44-1.19-28.81,9.35c-5.37,10.54-1.19,23.44,9.35,28.81Z"/>
    </g>
    <g>
      <circle class="cls-4" cx="923.25" cy="205.28" r="21.42"/>
      <path class="cls-2" d="M913.52,224.36c10.54,5.37,23.44,1.19,28.81-9.35,5.37-10.54,1.19-23.44-9.35-28.81-10.54-5.37-23.44-1.19-28.81,9.35s-1.19,23.44,9.35,28.81Z"/>
    </g>
    <g>
      <circle class="cls-4" cx="1006.03" cy="314.5" r="21.42"/>
      <path class="cls-2" d="M996.3,333.58c10.54,5.37,23.44,1.19,28.81-9.35,5.37-10.54,1.19-23.44-9.35-28.81-10.54-5.37-23.44-1.19-28.81,9.35-5.37,10.54-1.19,23.44,9.35,28.81Z"/>
    </g>
    <g>
      <circle class="cls-4" cx="1195.81" cy="113.58" r="21.42"/>
      <path class="cls-2" d="M1186.08,132.65c10.54,5.37,23.44,1.19,28.81-9.35s1.19-23.44-9.35-28.81c-10.54-5.37-23.44-1.19-28.81,9.35-5.37,10.54-1.19,23.44,9.35,28.81Z"/>
    </g>
    <g>
      <circle class="cls-4" cx="1021.34" cy="105.02" r="21.42"/>
      <path class="cls-2" d="M1011.61,124.1c10.54,5.37,23.44,1.19,28.81-9.35,5.37-10.54,1.19-23.44-9.35-28.81s-23.44-1.19-28.81,9.35c-5.37,10.54-1.19,23.44,9.35,28.81Z"/>
    </g>
    <g>
      <circle class="cls-4" cx="1099.38" cy="212.8" r="21.42"/>
      <path class="cls-2" d="M1089.65,231.88c10.54,5.37,23.44,1.19,28.81-9.35s1.19-23.44-9.35-28.81-23.44-1.19-28.81,9.35c-5.37,10.54-1.19,23.44,9.35,28.81Z"/>
    </g>
    <path class="cls-30" d="M1272.74,326.26s28.5-44.31-20.11-41.91c0,0,25.69,4.83,20.11,41.91Z"/>
    <path class="cls-30" d="M1270.64,326.17s-11.18-51.48-43.85-15.41c0,0,21.58-14.75,43.85,15.41Z"/>
    <path class="cls-30" d="M1269.01,327.32s-44.31-28.5-41.91,20.11c0,0,4.83-25.69,41.91-20.11Z"/>
    <path class="cls-30" d="M1269.56,329.15s-51.48,11.18-15.41,43.85c0,0-14.75-21.58,15.41-43.85Z"/>
    <path class="cls-30" d="M1270.98,330.7s-28.5,44.31,20.11,41.91c0,0-25.69-4.83-20.11-41.91Z"/>
    <path class="cls-30" d="M1272.94,331.04s11.18,51.48,43.85,15.41c0,0-21.58,14.75-43.85-15.41Z"/>
    <path class="cls-30" d="M1274.52,329.12s44.31,28.5,41.91-20.11c0,0-4.83,25.69-41.91,20.11Z"/>
    <path class="cls-30" d="M1274.86,327.16s51.48-11.18,15.41-43.85c0,0,14.75,21.58-15.41,43.85Z"/>
    <g>
      <path class="cls-26" d="M1178.58,424.9s28.5-44.31-20.11-41.91c0,0,25.69,4.83,20.11,41.91Z"/>
      <path class="cls-26" d="M1176.47,424.81s-11.18-51.48-43.85-15.41c0,0,21.58-14.75,43.85,15.41Z"/>
      <path class="cls-26" d="M1174.84,425.95s-44.31-28.5-41.91,20.11c0,0,4.83-25.69,41.91-20.11Z"/>
      <path class="cls-26" d="M1175.39,427.79s-51.48,11.18-15.41,43.85c0,0-14.75-21.58,15.41-43.85Z"/>
      <path class="cls-26" d="M1176.81,429.34s-28.5,44.31,20.11,41.91c0,0-25.69-4.83-20.11-41.91Z"/>
      <path class="cls-26" d="M1178.77,429.68s11.18,51.48,43.85,15.41c0,0-21.58,14.75-43.85-15.41Z"/>
      <path class="cls-26" d="M1180.35,427.76s44.31,28.5,41.91-20.11c0,0-4.83,25.69-41.91,20.11Z"/>
      <path class="cls-26" d="M1180.69,425.8s51.48-11.18,15.41-43.85c0,0,14.75,21.58-15.41,43.85Z"/>
    </g>
    <g>
      <path class="cls-30" d="M1185.07,220.98s28.5-44.31-20.11-41.91c0,0,25.69,4.83,20.11,41.91Z"/>
      <path class="cls-30" d="M1182.96,220.89s-11.18-51.48-43.85-15.41c0,0,21.58-14.75,43.85,15.41Z"/>
      <path class="cls-30" d="M1181.34,222.03s-44.31-28.5-41.91,20.11c0,0,4.83-25.69,41.91-20.11Z"/>
      <path class="cls-30" d="M1181.88,223.87s-51.48,11.18-15.41,43.85c0,0-14.75-21.58,15.41-43.85Z"/>
      <path class="cls-30" d="M1183.31,225.42s-28.5,44.31,20.11,41.91c0,0-25.69-4.83-20.11-41.91Z"/>
      <path class="cls-30" d="M1185.27,225.76s11.18,51.48,43.85,15.41c0,0-21.58,14.75-43.85-15.41Z"/>
      <path class="cls-30" d="M1186.84,223.84s44.31,28.5,41.91-20.11c0,0-4.83,25.69-41.91,20.11Z"/>
      <path class="cls-30" d="M1187.18,221.88s51.48-11.18,15.41-43.85c0,0,14.75,21.58-15.41,43.85Z"/>
    </g>
    <path class="cls-26" d="M1097.64,325.39s28.5-44.31-20.11-41.91c0,0,25.69,4.83,20.11,41.91Z"/>
    <path class="cls-26" d="M1095.53,325.3s-11.18-51.48-43.85-15.41c0,0,21.58-14.75,43.85,15.41Z"/>
    <path class="cls-26" d="M1093.9,326.44s-44.31-28.5-41.91,20.11c0,0,4.83-25.69,41.91-20.11Z"/>
    <path class="cls-26" d="M1094.45,328.28s-51.48,11.18-15.41,43.85c0,0-14.75-21.58,15.41-43.85Z"/>
    <path class="cls-26" d="M1095.87,329.83s-28.5,44.31,20.11,41.91c0,0-25.69-4.83-20.11-41.91Z"/>
    <path class="cls-26" d="M1097.83,330.17s11.18,51.48,43.85,15.41c0,0-21.58,14.75-43.85-15.41Z"/>
    <path class="cls-26" d="M1099.41,328.25s44.31,28.5,41.91-20.11c0,0-4.83,25.69-41.91,20.11Z"/>
    <path class="cls-26" d="M1099.75,326.29s51.48-11.18,15.41-43.85c0,0,14.75,21.58-15.41,43.85Z"/>
    <path class="cls-26" d="M1011.15,189.26s28.5-44.31-20.11-41.91c0,0,25.69,4.83,20.11,41.91Z"/>
    <path class="cls-26" d="M1009.05,189.17s-11.18-51.48-43.85-15.41c0,0,21.58-14.75,43.85,15.41Z"/>
    <path class="cls-26" d="M1007.42,190.31s-44.31-28.5-41.91,20.11c0,0,4.83-25.69,41.91-20.11Z"/>
    <path class="cls-26" d="M1007.97,192.15s-51.48,11.18-15.41,43.85c0,0-14.75-21.58,15.41-43.85Z"/>
    <path class="cls-26" d="M1009.39,193.7s-28.5,44.31,20.11,41.91c0,0-25.69-4.83-20.11-41.91Z"/>
    <path class="cls-26" d="M1011.35,194.04s11.18,51.48,43.85,15.41c0,0-21.58,14.75-43.85-15.41Z"/>
    <path class="cls-26" d="M1012.93,192.12s44.31,28.5,41.91-20.11c0,0-4.83,25.69-41.91,20.11Z"/>
    <path class="cls-26" d="M1013.27,190.16s51.48-11.18,15.41-43.85c0,0,14.75,21.58-15.41,43.85Z"/>
    <circle class="cls-13" cx="1183.35" cy="322.44" r="9.25"/>
    <circle class="cls-13" cx="1273.58" cy="220.24" r="9.25"/>
    <circle class="cls-13" cx="1266.13" cy="431.66" r="9.25"/>
    <circle class="cls-13" cx="1093.94" cy="421.28" r="9.25"/>
    <path class="cls-26" d="M1010.54,209s-11.18-51.48-43.85-15.41c0,0,21.58-14.75,43.85,15.41Z"/>
    <path class="cls-26" d="M1008.91,210.15s-44.31-28.5-41.91,20.11c0,0,4.83-25.69,41.91-20.11Z"/>
    <path class="cls-26" d="M1009.45,211.98s-51.48,11.18-15.41,43.85c0,0-14.75-21.58,15.41-43.85Z"/>
    <path class="cls-26" d="M1010.88,213.54s-28.5,44.31,20.11,41.91c0,0-25.69-4.83-20.11-41.91Z"/>
    <g>
      <path class="cls-26" d="M918.26,312.69s28.5-44.31-20.11-41.91c0,0,25.69,4.83,20.11,41.91Z"/>
      <path class="cls-26" d="M916.16,312.6s-11.18-51.48-43.85-15.41c0,0,21.58-14.75,43.85,15.41Z"/>
      <path class="cls-26" d="M914.53,313.74s-44.31-28.5-41.91,20.11c0,0,4.83-25.69,41.91-20.11Z"/>
      <path class="cls-26" d="M915.07,315.58s-51.48,11.18-15.41,43.85c0,0-14.75-21.58,15.41-43.85Z"/>
      <path class="cls-26" d="M916.5,317.13s-28.5,44.31,20.11,41.91c0,0-25.69-4.83-20.11-41.91Z"/>
      <path class="cls-26" d="M918.46,317.47s11.18,51.48,43.85,15.41c0,0-21.58,14.75-43.85-15.41Z"/>
      <path class="cls-26" d="M920.03,315.55s44.31,28.5,41.91-20.11c0,0-4.83,25.69-41.91,20.11Z"/>
      <path class="cls-26" d="M920.37,313.59s51.48-11.18,15.41-43.85c0,0,14.75,21.58-15.41,43.85Z"/>
    </g>
    <path class="cls-30" d="M827.63,207.8s28.5-44.31-20.11-41.91c0,0,25.69,4.83,20.11,41.91Z"/>
    <path class="cls-30" d="M825.52,207.71s-11.18-51.48-43.85-15.41c0,0,21.58-14.75,43.85,15.41Z"/>
    <path class="cls-30" d="M823.9,208.86s-44.31-28.5-41.91,20.11c0,0,4.83-25.69,41.91-20.11Z"/>
    <path class="cls-30" d="M824.44,210.69s-51.48,11.18-15.41,43.85c0,0-14.75-21.58,15.41-43.85Z"/>
    <path class="cls-30" d="M825.87,212.24s-28.5,44.31,20.11,41.91c0,0-25.69-4.83-20.11-41.91Z"/>
    <path class="cls-30" d="M827.83,212.58s11.18,51.48,43.85,15.41c0,0-21.58,14.75-43.85-15.41Z"/>
    <path class="cls-30" d="M829.4,210.67s44.31,28.5,41.91-20.11c0,0-4.83,25.69-41.91,20.11Z"/>
    <path class="cls-30" d="M829.74,208.71s51.48-11.18,15.41-43.85c0,0,14.75,21.58-15.41,43.85Z"/>
    <circle class="cls-13" cx="923.25" cy="205.28" r="9.25"/>
    <circle class="cls-13" cx="1006.03" cy="314.5" r="9.25"/>
    <circle class="cls-13" cx="823.51" cy="313.6" r="9.25"/>
    <g>
      <path class="cls-26" d="M1004.1,416.34s28.5-44.31-20.11-41.91c0,0,25.69,4.83,20.11,41.91Z"/>
      <path class="cls-26" d="M1002,416.25s-11.18-51.48-43.85-15.41c0,0,21.58-14.75,43.85,15.41Z"/>
      <path class="cls-26" d="M1000.37,417.4s-44.31-28.5-41.91,20.11c0,0,4.83-25.69,41.91-20.11Z"/>
      <path class="cls-26" d="M1000.91,419.23s-51.48,11.18-15.41,43.85c0,0-14.75-21.58,15.41-43.85Z"/>
      <path class="cls-26" d="M1002.34,420.78s-28.5,44.31,20.11,41.91c0,0-25.69-4.83-20.11-41.91Z"/>
      <path class="cls-26" d="M1004.3,421.12s11.18,51.48,43.85,15.41c0,0-21.58,14.75-43.85-15.41Z"/>
      <path class="cls-26" d="M1005.88,419.21s44.31,28.5,41.91-20.11c0,0-4.83,25.69-41.91,20.11Z"/>
      <path class="cls-26" d="M1006.21,417.25s51.48-11.18,15.41-43.85c0,0,14.75,21.58-15.41,43.85Z"/>
    </g>
    <g>
      <path class="cls-30" d="M827.62,411.02s28.5-44.31-20.11-41.91c0,0,25.69,4.83,20.11,41.91Z"/>
      <path class="cls-30" d="M825.51,410.93s-11.18-51.48-43.85-15.41c0,0,21.58-14.75,43.85,15.41Z"/>
      <path class="cls-30" d="M823.88,412.07s-44.31-28.5-41.91,20.11c0,0,4.83-25.69,41.91-20.11Z"/>
      <path class="cls-30" d="M824.43,413.91s-51.48,11.18-15.41,43.85c0,0-14.75-21.58,15.41-43.85Z"/>
      <path class="cls-30" d="M825.85,415.46s-28.5,44.31,20.11,41.91c0,0-25.69-4.83-20.11-41.91Z"/>
      <path class="cls-30" d="M827.82,415.8s11.18,51.48,43.85,15.41c0,0-21.58,14.75-43.85-15.41Z"/>
      <path class="cls-30" d="M829.39,413.88s44.31,28.5,41.91-20.11c0,0-4.83,25.69-41.91,20.11Z"/>
      <path class="cls-30" d="M829.73,411.92s51.48-11.18,15.41-43.85c0,0,14.75,21.58-15.41,43.85Z"/>
    </g>
    <circle class="cls-13" cx="898.58" cy="413.45" r="9.25"/>
    <path class="cls-30" d="M1262.49,531.79s28.5-44.31-20.11-41.91c0,0,25.69,4.83,20.11,41.91Z"/>
    <path class="cls-26" d="M1260.39,531.7s-11.18-51.48-43.85-15.41c0,0,21.58-14.75,43.85,15.41Z"/>
    <path class="cls-26" d="M1258.76,532.84s-44.31-28.5-41.91,20.11c0,0,4.83-25.69,41.91-20.11Z"/>
    <path class="cls-26" d="M1259.3,534.68s-51.48,11.18-15.41,43.85c0,0-14.75-21.58,15.41-43.85Z"/>
    <path class="cls-30" d="M1260.73,536.23s-28.5,44.31,20.11,41.91c0,0-25.69-4.83-20.11-41.91Z"/>
    <path class="cls-30" d="M1262.69,536.57s11.18,51.48,43.85,15.41c0,0-21.58,14.75-43.85-15.41Z"/>
    <path class="cls-30" d="M1264.27,534.65s44.31,28.5,41.91-20.11c0,0-4.83,25.69-41.91,20.11Z"/>
    <path class="cls-30" d="M1264.61,532.69s51.48-11.18,15.41-43.85c0,0,14.75,21.58-15.41,43.85Z"/>
    <g>
      <path class="cls-26" d="M1168.02,637.48s28.5-44.31-20.11-41.91c0,0,25.69,4.83,20.11,41.91Z"/>
      <path class="cls-26" d="M1165.92,637.39s-11.18-51.48-43.85-15.41c0,0,21.58-14.75,43.85,15.41Z"/>
      <path class="cls-26" d="M1164.29,638.53s-44.31-28.5-41.91,20.11c0,0,4.83-25.69,41.91-20.11Z"/>
      <path class="cls-26" d="M1164.83,640.37s-51.48,11.18-15.41,43.85c0,0-14.75-21.58,15.41-43.85Z"/>
      <path class="cls-26" d="M1166.26,641.92s-28.5,44.31,20.11,41.91c0,0-25.69-4.83-20.11-41.91Z"/>
      <path class="cls-26" d="M1168.22,642.26s11.18,51.48,43.85,15.41c0,0-21.58,14.75-43.85-15.41Z"/>
      <path class="cls-26" d="M1169.8,640.34s44.31,28.5,41.91-20.11c0,0-4.83,25.69-41.91,20.11Z"/>
      <path class="cls-26" d="M1170.13,638.38s51.48-11.18,15.41-43.85c0,0,14.75,21.58-15.41,43.85Z"/>
    </g>
    <g>
      <path class="cls-30" d="M1249.41,747.35s-44.31-28.5-41.91,20.11c0,0,4.83-25.69,41.91-20.11Z"/>
      <path class="cls-30" d="M1249.95,749.18s-51.48,11.18-15.41,43.85c0,0-14.75-21.58,15.41-43.85Z"/>
      <path class="cls-30" d="M1251.38,750.73s-28.5,44.31,20.11,41.91c0,0-25.69-4.83-20.11-41.91Z"/>
      <path class="cls-30" d="M1253.34,751.07s11.18,51.48,43.85,15.41c0,0-21.58,14.75-43.85-15.41Z"/>
      <path class="cls-30" d="M1254.91,749.15s44.31,28.5,41.91-20.11c0,0-4.83,25.69-41.91,20.11Z"/>
      <path class="cls-30" d="M1255.25,747.19s51.48-11.18,15.41-43.85c0,0,14.75,21.58-15.41,43.85Z"/>
    </g>
    <path class="cls-26" d="M1087.38,530.92s28.5-44.31-20.11-41.91c0,0,25.69,4.83,20.11,41.91Z"/>
    <path class="cls-26" d="M1085.28,530.83s-11.18-51.48-43.85-15.41c0,0,21.58-14.75,43.85,15.41Z"/>
    <path class="cls-26" d="M1083.65,531.97s-44.31-28.5-41.91,20.11c0,0,4.83-25.69,41.91-20.11Z"/>
    <path class="cls-26" d="M1084.2,533.81s-51.48,11.18-15.41,43.85c0,0-14.75-21.58,15.41-43.85Z"/>
    <path class="cls-26" d="M1085.62,535.36s-28.5,44.31,20.11,41.91c0,0-25.69-4.83-20.11-41.91Z"/>
    <path class="cls-26" d="M1087.58,535.7s11.18,51.48,43.85,15.41c0,0-21.58,14.75-43.85-15.41Z"/>
    <path class="cls-26" d="M1089.16,533.78s44.31,28.5,41.91-20.11c0,0-4.83,25.69-41.91,20.11Z"/>
    <path class="cls-26" d="M1089.5,531.82s51.48-11.18,15.41-43.85c0,0,14.75,21.58-15.41,43.85Z"/>
    <circle class="cls-13" cx="1173.1" cy="527.97" r="9.25"/>
    <circle class="cls-13" cx="1255.58" cy="644.24" r="9.25"/>
    <circle class="cls-13" cx="1083.39" cy="633.86" r="9.25"/>
    <g>
      <path class="cls-26" d="M908.01,518.21s28.5-44.31-20.11-41.91c0,0,25.69,4.83,20.11,41.91Z"/>
      <path class="cls-26" d="M905.91,518.12s-11.18-51.48-43.85-15.41c0,0,21.58-14.75,43.85,15.41Z"/>
      <path class="cls-26" d="M904.28,519.27s-44.31-28.5-41.91,20.11c0,0,4.83-25.69,41.91-20.11Z"/>
      <path class="cls-26" d="M904.82,521.1s-51.48,11.18-15.41,43.85c0,0-14.75-21.58,15.41-43.85Z"/>
      <path class="cls-26" d="M906.25,522.66s-28.5,44.31,20.11,41.91c0,0-25.69-4.83-20.11-41.91Z"/>
      <path class="cls-26" d="M908.21,523s11.18,51.48,43.85,15.41c0,0-21.58,14.75-43.85-15.41Z"/>
      <path class="cls-26" d="M909.78,521.08s44.31,28.5,41.91-20.11c0,0-4.83,25.69-41.91,20.11Z"/>
      <path class="cls-26" d="M910.12,519.12s51.48-11.18,15.41-43.85c0,0,14.75,21.58-15.41,43.85Z"/>
    </g>
    <circle class="cls-13" cx="995.78" cy="520.03" r="9.25"/>
    <circle class="cls-13" cx="813.26" cy="519.13" r="9.25"/>
    <g>
      <path class="cls-26" d="M993.55,628.92s28.5-44.31-20.11-41.91c0,0,25.69,4.83,20.11,41.91Z"/>
      <path class="cls-26" d="M991.44,628.83s-11.18-51.48-43.85-15.41c0,0,21.58-14.75,43.85,15.41Z"/>
      <path class="cls-26" d="M989.82,629.98s-44.31-28.5-41.91,20.11c0,0,4.83-25.69,41.91-20.11Z"/>
      <path class="cls-26" d="M990.36,631.81s-51.48,11.18-15.41,43.85c0,0-14.75-21.58,15.41-43.85Z"/>
      <path class="cls-26" d="M991.79,633.36s-28.5,44.31,20.11,41.91c0,0-25.69-4.83-20.11-41.91Z"/>
      <path class="cls-26" d="M993.75,633.7s11.18,51.48,43.85,15.41c0,0-21.58,14.75-43.85-15.41Z"/>
      <path class="cls-26" d="M995.32,631.79s44.31,28.5,41.91-20.11c0,0-4.83,25.69-41.91,20.11Z"/>
      <path class="cls-26" d="M995.66,629.83s51.48-11.18,15.41-43.85c0,0,14.75,21.58-15.41,43.85Z"/>
    </g>
    <g>
      <path class="cls-26" d="M817.07,623.6s28.5-44.31-20.11-41.91c0,0,25.69,4.83,20.11,41.91Z"/>
      <path class="cls-30" d="M814.96,623.51s-11.18-51.48-43.85-15.41c0,0,21.58-14.75,43.85,15.41Z"/>
      <path class="cls-30" d="M813.33,624.65s-44.31-28.5-41.91,20.11c0,0,4.83-25.69,41.91-20.11Z"/>
      <path class="cls-30" d="M813.88,626.49s-51.48,11.18-15.41,43.85c0,0-14.75-21.58,15.41-43.85Z"/>
      <path class="cls-26" d="M815.3,628.04s-28.5,44.31,20.11,41.91c0,0-25.69-4.83-20.11-41.91Z"/>
      <path class="cls-26" d="M817.26,628.38s11.18,51.48,43.85,15.41c0,0-21.58,14.75-43.85-15.41Z"/>
      <path class="cls-26" d="M818.84,626.46s44.31,28.5,41.91-20.11c0,0-4.83,25.69-41.91,20.11Z"/>
      <path class="cls-26" d="M819.18,624.5s51.48-11.18,15.41-43.85c0,0,14.75,21.58-15.41,43.85Z"/>
    </g>
    <circle class="cls-13" cx="908.92" cy="625.31" r="9.25"/>
    <g>
      <path class="cls-26" d="M1072.21,744.86s28.5-44.31-20.11-41.91c0,0,25.69,4.83,20.11,41.91Z"/>
      <path class="cls-26" d="M1070.1,744.77s-11.18-51.48-43.85-15.41c0,0,21.58-14.75,43.85,15.41Z"/>
      <path class="cls-26" d="M1068.48,745.92s-44.31-28.5-41.91,20.11c0,0,4.83-25.69,41.91-20.11Z"/>
      <path class="cls-26" d="M1069.02,747.75s-51.48,11.18-15.41,43.85c0,0-14.75-21.58,15.41-43.85Z"/>
      <path class="cls-26" d="M1070.45,749.3s-28.5,44.31,20.11,41.91c0,0-25.69-4.83-20.11-41.91Z"/>
      <path class="cls-26" d="M1072.41,749.64s11.18,51.48,43.85,15.41c0,0-21.58,14.75-43.85-15.41Z"/>
      <path class="cls-26" d="M1073.98,747.73s44.31,28.5,41.91-20.11c0,0-4.83,25.69-41.91,20.11Z"/>
      <path class="cls-26" d="M1074.32,745.77s51.48-11.18,15.41-43.85c0,0,14.75,21.58-15.41,43.85Z"/>
    </g>
    <circle class="cls-13" cx="1159.77" cy="751.63" r="9.25"/>
    <circle class="cls-13" cx="987.58" cy="741.25" r="9.25"/>
    <g>
      <path class="cls-26" d="M897.74,736.31s28.5-44.31-20.11-41.91c0,0,25.69,4.83,20.11,41.91Z"/>
      <path class="cls-26" d="M895.63,736.22s-11.18-51.48-43.85-15.41c0,0,21.58-14.75,43.85,15.41Z"/>
      <path class="cls-26" d="M894,737.36s-44.31-28.5-41.91,20.11c0,0,4.83-25.69,41.91-20.11Z"/>
      <path class="cls-26" d="M894.55,739.2s-51.48,11.18-15.41,43.85c0,0-14.75-21.58,15.41-43.85Z"/>
      <path class="cls-26" d="M895.97,740.75s-28.5,44.31,20.11,41.91c0,0-25.69-4.83-20.11-41.91Z"/>
      <path class="cls-26" d="M897.93,741.09s11.18,51.48,43.85,15.41c0,0-21.58,14.75-43.85-15.41Z"/>
      <path class="cls-26" d="M899.51,739.17s44.31,28.5,41.91-20.11c0,0-4.83,25.69-41.91,20.11Z"/>
      <path class="cls-26" d="M899.85,737.21s51.48-11.18,15.41-43.85c0,0,14.75,21.58-15.41,43.85Z"/>
    </g>
    <circle class="cls-13" cx="813.1" cy="732.69" r="9.25"/>
    <g>
      <circle class="cls-4" cx="891.3" cy="829.48" r="21.42"/>
      <path class="cls-2" d="M881.57,848.55c10.54,5.37,23.44,1.19,28.81-9.35s1.19-23.44-9.35-28.81c-10.54-5.37-23.44-1.19-28.81,9.35-5.37,10.54-1.19,23.44,9.35,28.81Z"/>
    </g>
    <g>
      <circle class="cls-4" cx="1237.96" cy="848.41" r="21.42"/>
      <path class="cls-2" d="M1228.23,867.49c10.54,5.37,23.44,1.19,28.81-9.35s1.19-23.44-9.35-28.81c-10.54-5.37-23.44-1.19-28.81,9.35s-1.19,23.44,9.35,28.81Z"/>
    </g>
    <g>
      <circle class="cls-4" cx="1065.77" cy="838.03" r="21.42"/>
      <path class="cls-2" d="M1056.04,857.11c10.54,5.37,23.44,1.19,28.81-9.35,5.37-10.54,1.19-23.44-9.35-28.81s-23.44-1.19-28.81,9.35c-5.37,10.54-1.19,23.44,9.35,28.81Z"/>
    </g>
    <g>
      <path class="cls-26" d="M1150.4,841.64s28.5-44.31-20.11-41.91c0,0,25.69,4.83,20.11,41.91Z"/>
      <path class="cls-26" d="M1148.3,841.55s-11.18-51.48-43.85-15.41c0,0,21.58-14.75,43.85,15.41Z"/>
      <path class="cls-26" d="M1146.67,842.7s-44.31-28.5-41.91,20.11c0,0,4.83-25.69,41.91-20.11Z"/>
      <path class="cls-26" d="M1147.21,844.53s-51.48,11.18-15.41,43.85c0,0-14.75-21.58,15.41-43.85Z"/>
      <path class="cls-26" d="M1148.64,846.09s-28.5,44.31,20.11,41.91c0,0-25.69-4.83-20.11-41.91Z"/>
      <path class="cls-26" d="M1150.6,846.43s11.18,51.48,43.85,15.41c0,0-21.58,14.75-43.85-15.41Z"/>
      <path class="cls-26" d="M1152.18,844.51s44.31,28.5,41.91-20.11c0,0-4.83,25.69-41.91,20.11Z"/>
      <path class="cls-26" d="M1152.51,842.55s51.48-11.18,15.41-43.85c0,0,14.75,21.58-15.41,43.85Z"/>
    </g>
    <circle class="cls-13" cx="1237.96" cy="848.41" r="9.25"/>
    <circle class="cls-13" cx="1065.77" cy="838.03" r="9.25"/>
    <g>
      <path class="cls-26" d="M975.93,833.09s28.5-44.31-20.11-41.91c0,0,25.69,4.83,20.11,41.91Z"/>
      <path class="cls-26" d="M973.82,833s-11.18-51.48-43.85-15.41c0,0,21.58-14.75,43.85,15.41Z"/>
      <path class="cls-26" d="M972.2,834.15s-44.31-28.5-41.91,20.11c0,0,4.83-25.69,41.91-20.11Z"/>
      <path class="cls-26" d="M972.74,835.98s-51.48,11.18-15.41,43.85c0,0-14.75-21.58,15.41-43.85Z"/>
      <path class="cls-26" d="M974.17,837.53s-28.5,44.31,20.11,41.91c0,0-25.69-4.83-20.11-41.91Z"/>
      <path class="cls-26" d="M976.13,837.87s11.18,51.48,43.85,15.41c0,0-21.58,14.75-43.85-15.41Z"/>
      <path class="cls-26" d="M977.7,835.95s44.31,28.5,41.91-20.11c0,0-4.83,25.69-41.91,20.11Z"/>
      <path class="cls-26" d="M978.04,833.99s51.48-11.18,15.41-43.85c0,0,14.75,21.58-15.41,43.85Z"/>
    </g>
    <g>
      <path class="cls-30" d="M799.45,827.76s28.5-44.31-20.11-41.91c0,0,25.69,4.83,20.11,41.91Z"/>
      <path class="cls-30" d="M797.34,827.67s-11.18-51.48-43.85-15.41c0,0,21.58-14.75,43.85,15.41Z"/>
      <path class="cls-30" d="M795.71,828.82s-44.31-28.5-41.91,20.11c0,0,4.83-25.69,41.91-20.11Z"/>
      <path class="cls-30" d="M796.26,830.65s-51.48,11.18-15.41,43.85c0,0-14.75-21.58,15.41-43.85Z"/>
      <path class="cls-30" d="M797.68,832.21s-28.5,44.31,20.11,41.91c0,0-25.69-4.83-20.11-41.91Z"/>
      <path class="cls-30" d="M799.64,832.55s11.18,51.48,43.85,15.41c0,0-21.58,14.75-43.85-15.41Z"/>
      <path class="cls-30" d="M801.22,830.63s44.31,28.5,41.91-20.11c0,0-4.83,25.69-41.91,20.11Z"/>
      <path class="cls-30" d="M801.56,828.67s51.48-11.18,15.41-43.85c0,0,14.75,21.58-15.41,43.85Z"/>
    </g>
    <circle class="cls-13" cx="891.3" cy="829.48" r="9.25"/>
    <g>
      <circle class="cls-4" cx="791.64" cy="915.93" r="21.42"/>
      <path class="cls-2" d="M781.91,935.01c10.54,5.37,23.44,1.19,28.81-9.35s1.19-23.44-9.35-28.81c-10.54-5.37-23.44-1.19-28.81,9.35-5.37,10.54-1.19,23.44,9.35,28.81Z"/>
    </g>
    <g>
      <circle class="cls-4" cx="1138.3" cy="934.86" r="21.42"/>
      <path class="cls-2" d="M1128.57,953.94c10.54,5.37,23.44,1.19,28.81-9.35,5.37-10.54,1.19-23.44-9.35-28.81s-23.44-1.19-28.81,9.35c-5.37,10.54-1.19,23.44,9.35,28.81Z"/>
    </g>
    <g>
      <circle class="cls-4" cx="966.11" cy="924.49" r="21.42"/>
      <path class="cls-2" d="M956.38,943.56c10.54,5.37,23.44,1.19,28.81-9.35,5.37-10.54,1.19-23.44-9.35-28.81-10.54-5.37-23.44-1.19-28.81,9.35-5.37,10.54-1.19,23.44,9.35,28.81Z"/>
    </g>
    <g>
      <path class="cls-30" d="M1050.74,928.1s28.5-44.31-20.11-41.91c0,0,25.69,4.83,20.11,41.91Z"/>
      <path class="cls-30" d="M1048.64,928.01s-11.18-51.48-43.85-15.41c0,0,21.58-14.75,43.85,15.41Z"/>
      <path class="cls-30" d="M1047.01,929.16s-44.31-28.5-41.91,20.11c0,0,4.83-25.69,41.91-20.11Z"/>
      <path class="cls-30" d="M1047.55,930.99s-51.48,11.18-15.41,43.85c0,0-14.75-21.58,15.41-43.85Z"/>
      <path class="cls-30" d="M1048.98,932.54s-28.5,44.31,20.11,41.91c0,0-25.69-4.83-20.11-41.91Z"/>
      <path class="cls-30" d="M1050.94,932.88s11.18,51.48,43.85,15.41c0,0-21.58,14.75-43.85-15.41Z"/>
      <path class="cls-30" d="M1052.52,930.96s44.31,28.5,41.91-20.11c0,0-4.83,25.69-41.91,20.11Z"/>
      <path class="cls-30" d="M1052.85,929s51.48-11.18,15.41-43.85c0,0,14.75,21.58-15.41,43.85Z"/>
    </g>
    <circle class="cls-13" cx="1138.3" cy="934.86" r="9.25"/>
    <circle class="cls-13" cx="966.11" cy="924.49" r="9.25"/>
    <g>
      <path class="cls-30" d="M876.27,919.54s28.5-44.31-20.11-41.91c0,0,25.69,4.83,20.11,41.91Z"/>
      <path class="cls-30" d="M874.16,919.45s-11.18-51.48-43.85-15.41c0,0,21.58-14.75,43.85,15.41Z"/>
      <path class="cls-30" d="M872.54,920.6s-44.31-28.5-41.91,20.11c0,0,4.83-25.69,41.91-20.11Z"/>
      <path class="cls-30" d="M873.08,922.43s-51.48,11.18-15.41,43.85c0,0-14.75-21.58,15.41-43.85Z"/>
      <path class="cls-30" d="M874.51,923.99s-28.5,44.31,20.11,41.91c0,0-25.69-4.83-20.11-41.91Z"/>
      <path class="cls-30" d="M876.47,924.33s11.18,51.48,43.85,15.41c0,0-21.58,14.75-43.85-15.41Z"/>
      <path class="cls-30" d="M878.04,922.41s44.31,28.5,41.91-20.11c0,0-4.83,25.69-41.91,20.11Z"/>
      <path class="cls-30" d="M878.38,920.45s51.48-11.18,15.41-43.85c0,0,14.75,21.58-15.41,43.85Z"/>
    </g>
    <circle class="cls-13" cx="791.64" cy="915.93" r="9.25"/>
    <g>
      <circle class="cls-4" cx="718.69" cy="777.73" r="21.42"/>
      <path class="cls-2" d="M708.96,796.81c10.54,5.37,23.44,1.19,28.81-9.35s1.19-23.44-9.35-28.81c-10.54-5.37-23.44-1.19-28.81,9.35s-1.19,23.44,9.35,28.81Z"/>
    </g>
    <circle class="cls-13" cx="718.69" cy="777.73" r="9.25"/>
    <path class="cls-30" d="M834.22-3.49s-44.31-28.5-41.91,20.11c0,0,4.83-25.69,41.91-20.11Z"/>
    <path class="cls-30" d="M834.76-1.66s-51.48,11.18-15.41,43.85c0,0-14.75-21.58,15.41-43.85Z"/>
    <path class="cls-30" d="M836.19-.11s-28.5,44.31,20.11,41.91c0,0-25.69-4.83-20.11-41.91Z"/>
    <path class="cls-30" d="M838.15.23s11.18,51.48,43.85,15.41c0,0-21.58,14.75-43.85-15.41Z"/>
    <path class="cls-30" d="M839.72-1.68s44.31,28.5,41.91-20.11c0,0-4.83,25.69-41.91,20.11Z"/>
    <g>
      <path class="cls-30" d="M1280.44,117.19s28.5-44.31-20.11-41.91c0,0,25.69,4.83,20.11,41.91Z"/>
      <path class="cls-30" d="M1278.34,117.1s-11.18-51.48-43.85-15.41c0,0,21.58-14.75,43.85,15.41Z"/>
      <path class="cls-30" d="M1276.71,118.25s-44.31-28.5-41.91,20.11c0,0,4.83-25.69,41.91-20.11Z"/>
      <path class="cls-30" d="M1277.25,120.08s-51.48,11.18-15.41,43.85c0,0-14.75-21.58,15.41-43.85Z"/>
      <path class="cls-30" d="M1278.68,121.63s-28.5,44.31,20.11,41.91c0,0-25.69-4.83-20.11-41.91Z"/>
      <path class="cls-30" d="M1280.64,121.97s11.18,51.48,43.85,15.41c0,0-21.58,14.75-43.85-15.41Z"/>
      <path class="cls-30" d="M1282.21,120.06s44.31,28.5,41.91-20.11c0,0-4.83,25.69-41.91,20.11Z"/>
      <path class="cls-30" d="M1282.55,118.09s51.48-11.18,15.41-43.85c0,0,14.75,21.58-15.41,43.85Z"/>
    </g>
    <path class="cls-30" d="M1195.77,18.74s-44.31-28.5-41.91,20.11c0,0,4.83-25.69,41.91-20.11Z"/>
    <path class="cls-30" d="M1196.31,20.57s-51.48,11.18-15.41,43.85c0,0-14.75-21.58,15.41-43.85Z"/>
    <circle class="cls-13" cx="831.34" cy="100.85" r="9.25"/>
    <circle class="cls-13" cx="1195.81" cy="113.58" r="9.25"/>
    <g>
      <path class="cls-30" d="M1020.13,4.98s28.5-44.31-20.11-41.91c0,0,25.69,4.83,20.11,41.91Z"/>
      <path class="cls-30" d="M1018.02,4.89s-11.18-51.48-43.85-15.41c0,0,21.58-14.75,43.85,15.41Z"/>
      <path class="cls-30" d="M1016.4,6.04s-44.31-28.5-41.91,20.11c0,0,4.83-25.69,41.91-20.11Z"/>
      <path class="cls-30" d="M1016.94,7.87s-51.48,11.18-15.41,43.85c0,0-14.75-21.58,15.41-43.85Z"/>
      <path class="cls-30" d="M1018.37,9.42s-28.5,44.31,20.11,41.91c0,0-25.69-4.83-20.11-41.91Z"/>
      <path class="cls-30" d="M1020.33,9.76s11.18,51.48,43.85,15.41c0,0-21.58,14.75-43.85-15.41Z"/>
      <path class="cls-30" d="M1021.9,7.85s44.31,28.5,41.91-20.11c0,0-4.83,25.69-41.91,20.11Z"/>
      <path class="cls-30" d="M1022.24,5.88s51.48-11.18,15.41-43.85c0,0,14.75,21.58-15.41,43.85Z"/>
    </g>
    <circle class="cls-13" cx="1107.9" cy="6.79" r="9.25"/>
    <circle class="cls-13" cx="925.38" cy="5.9" r="9.25"/>
    <g>
      <path class="cls-26" d="M1105.97,108.63s28.5-44.31-20.11-41.91c0,0,25.69,4.83,20.11,41.91Z"/>
      <path class="cls-26" d="M1103.86,108.54s-11.18-51.48-43.85-15.41c0,0,21.58-14.75,43.85,15.41Z"/>
      <path class="cls-26" d="M1102.24,109.69s-44.31-28.5-41.91,20.11c0,0,4.83-25.69,41.91-20.11Z"/>
      <path class="cls-26" d="M1102.78,111.52s-51.48,11.18-15.41,43.85c0,0-14.75-21.58,15.41-43.85Z"/>
      <path class="cls-26" d="M1104.21,113.08s-28.5,44.31,20.11,41.91c0,0-25.69-4.83-20.11-41.91Z"/>
      <path class="cls-26" d="M1106.17,113.42s11.18,51.48,43.85,15.41c0,0-21.58,14.75-43.85-15.41Z"/>
      <path class="cls-26" d="M1107.74,111.5s44.31,28.5,41.91-20.11c0,0-4.83,25.69-41.91,20.11Z"/>
      <path class="cls-26" d="M1108.08,109.54s51.48-11.18,15.41-43.85c0,0,14.75,21.58-15.41,43.85Z"/>
    </g>
    <g>
      <path class="cls-26" d="M929.49,103.31s28.5-44.31-20.11-41.91c0,0,25.69,4.83,20.11,41.91Z"/>
      <path class="cls-26" d="M927.38,103.22s-11.18-51.48-43.85-15.41c0,0,21.58-14.75,43.85,15.41Z"/>
      <path class="cls-26" d="M925.75,104.37s-44.31-28.5-41.91,20.11c0,0,4.83-25.69,41.91-20.11Z"/>
      <path class="cls-26" d="M926.3,106.2s-51.48,11.18-15.41,43.85c0,0-14.75-21.58,15.41-43.85Z"/>
      <path class="cls-26" d="M927.72,107.75s-28.5,44.31,20.11,41.91c0,0-25.69-4.83-20.11-41.91Z"/>
      <path class="cls-26" d="M929.68,108.09s11.18,51.48,43.85,15.41c0,0-21.58,14.75-43.85-15.41Z"/>
      <path class="cls-26" d="M931.26,106.18s44.31,28.5,41.91-20.11c0,0-4.83,25.69-41.91,20.11Z"/>
      <path class="cls-26" d="M931.6,104.21s51.48-11.18,15.41-43.85c0,0,14.75,21.58-15.41,43.85Z"/>
    </g>
    <circle class="cls-13" cx="1021.34" cy="105.02" r="9.25"/>
    <circle class="cls-13" cx="1099.38" cy="212.8" r="9.25"/>
  </g>
  <path class="cls-9" d="M816.92,672.71s56.82,91.12,197.83,82.56c117.03-7.11,215.25-74.33,245.29-97,3.54,17.94,6.47,32.02,6.47,32.02,0,0-113.8,95.9-254.81,104.46-141,8.56-196.45-81.13-196.45-81.13l1.67-40.91Z"/>
  <path class="cls-9" d="M1064.73,148.68c4.97,4.4,9.16,9.92,12.9,15.37,9.03,13.16,15.32,28.19,18.27,43.88,3.37,17.95,1.92,36.32-1.11,54.21-2.8,16.53-7.01,32.82-11.98,48.82-1.73,5.56-3.55,11.09-5.49,16.57-.96,2.7-2.11,5.38-2.98,8.11-.04.12-.09.23-.13.34-.12.31.46.31.55.07,2.69-6.85,5.04-13.85,7.28-20.85,4.95-15.43,9.19-31.12,12.23-47.04,3.36-17.55,5.5-35.72,3.26-53.55-2.09-16.66-7.92-32.77-16.86-46.98-2.92-4.64-6.16-9.08-9.74-13.23-1.69-1.96-3.45-4.19-5.5-5.8-.09-.07-.18-.16-.27-.24-.19-.17-.7.11-.45.33h0Z"/>
  <path class="cls-9" d="M1119.66,367.77c-1.16,3.79-2.5,7.54-3.85,11.26-3.35,9.17-7.06,18.22-11.12,27.1-5.33,11.63-11.29,23.01-18.16,33.81-6.95,10.92-14.86,21.41-24.4,30.21-8.7,8.02-19.04,14.75-30.76,17.19-1.39.29-2.79.51-4.19.67-.28.03-.48.37-.08.32,11.56-1.35,22.07-6.92,31-14.18,10.05-8.17,18.36-18.37,25.6-29.06,7.35-10.84,13.67-22.38,19.31-34.19,4.51-9.45,8.59-19.11,12.27-28.91,1.19-3.17,2.34-6.36,3.43-9.57.34-.99.67-1.99.99-2.99.14-.42.51-1.09.49-1.54,0-.06.04-.14.06-.2.06-.2-.52-.12-.58.07h0Z"/>
  <path class="cls-9" d="M1043.44,374.63c-4.71,10.56-9.74,21.01-15.93,30.79-6.14,9.69-13.44,19.01-22.26,26.41-8.77,7.36-19.34,12.95-30.67,15.02-5.53,1.01-11.22,1.16-16.77.24-5.75-.95-11.43-2.95-16.83-5.08-11.68-4.63-22.27-11.36-32.31-18.85-.13-.09-.62.14-.55.19,9.39,7.01,19.25,13.38,30.08,17.94,5.36,2.26,10.96,4.26,16.63,5.53,5.27,1.18,10.74,1.39,16.1.76,10.85-1.27,21.19-5.8,30.05-12.11,9.39-6.69,17.12-15.61,23.67-25.03,7.79-11.2,13.8-23.48,19.34-35.91.04-.08-.51-.04-.57.1h0Z"/>
  <path class="cls-9" d="M900.12,436.84c5.75,1.34,11.19,3.69,15.84,7.38,4.57,3.62,8.16,8.24,11.35,13.08,4.47,6.77,8.94,13.54,13.41,20.31,3.94,5.97,7.82,12.14,13.14,16.98,5.29,4.82,12.21,8.14,19.49,7.51.27-.02.49-.33.09-.29-15.52,1.35-25.06-13.63-32.46-24.84-4.38-6.63-8.75-13.27-13.13-19.9-3.14-4.75-6.65-9.28-11.1-12.88-4.76-3.84-10.35-6.27-16.28-7.66-.17-.04-.68.22-.36.29h0Z"/>
  <path class="cls-9" d="M1139.87,441.23c1.38,26.25-14.53,49.24-28.44,70.08-14.2,21.27-28.72,42.41-45.28,61.93-16.42,19.36-34.93,37.01-56.26,50.87-21.52,13.99-45.47,24.22-70.44,30.12-12.58,2.97-25.47,4.96-38.4,5.46-13.07.51-26.36-.64-38.81-4.85-3.15-1.07-6.22-2.33-9.21-3.79-.16-.08-.64.16-.54.21,23.43,11.4,50.89,10.1,75.88,5.52,24.99-4.58,49.18-13.44,71.22-26.06,22.34-12.79,41.97-29.54,59.24-48.56,17.56-19.32,32.75-40.65,47.34-62.25,7.38-10.93,14.96-21.82,21.39-33.35,6.27-11.25,11.47-23.43,12.7-36.37.29-3.03.35-6.08.19-9.12,0-.13-.59-.02-.58.16h0Z"/>
  <g>
    <path d="M1162.94,748.11l-151.04,6.81-43.86.98-1.37,50.7c51.2.83,165.35,48,252.14,23.91,15.25-4.23,33.59-24.48,38-39.41,0,0,10.56-23.73-8.61-86.94"/>
    <path class="cls-27" d="M1163.03,747.29c-7.98.36-15.95.72-23.93,1.08-17.49.79-34.97,1.58-52.46,2.37-17.34.78-34.68,1.56-52.02,2.35-7.57.34-15.14.78-22.72,1.02-14.13.45-28.27.63-42.4.95-.46.01-.91.02-1.37.03s-1.18.37-1.19.89c-.15,5.7-.31,11.4-.46,17.1l-.74,27.29c-.06,2.1-.11,4.21-.17,6.31-.02.57.54.73,1.01.74,10.68.19,21.33,2.04,31.79,4.03,13.43,2.56,26.76,5.64,40.1,8.63,15.27,3.42,30.56,6.78,45.94,9.66,16.09,3.01,32.29,5.5,48.6,6.99,16.19,1.48,32.52,1.98,48.75.79,7.85-.57,15.66-1.56,23.39-3.02,7.12-1.35,14.62-2.72,21.06-6.18s12.41-8.6,17.46-14.11c4.99-5.45,9.47-11.63,12.48-18.41,1.49-3.37,2.66-7.03,3.35-10.65,1.46-7.67,1.52-15.61,1.09-23.37-.82-14.75-3.63-29.36-7.31-43.64-1.23-4.77-2.58-9.52-4-14.24-.31-1.02-2.48-.43-2.17.58,4.83,15.97,8.77,32.31,10.58,48.91,1,9.22,1.4,18.64.25,27.87-.42,3.36-1.05,6.59-2.12,9.62-4.33,12.37-12.86,23.18-23.16,31.22-2.83,2.21-5.84,4.2-9.07,5.76s-6.5,2.36-9.89,3.19c-7.6,1.86-15.33,3.18-23.1,4.05-15.97,1.8-32.11,1.8-48.13.72-16.22-1.1-32.36-3.29-48.38-6.07-15.44-2.68-30.78-5.92-46.08-9.31-13.7-3.03-27.36-6.22-41.1-9.04-11.04-2.27-22.18-4.4-33.43-5.27-2.23-.17-4.47-.28-6.71-.32l1.01.74c.15-5.7.31-11.4.46-17.1l.74-27.29c.06-2.1.11-4.21.17-6.31l-1.19.89c13.92-.31,27.84-.62,41.76-.93,6.61-.15,13.22-.55,19.82-.85,16.66-.75,33.32-1.5,49.99-2.25,17.99-.81,35.97-1.62,53.96-2.43,9.64-.43,19.32-.66,28.95-1.31.14,0,.28-.01.42-.02,1.25-.06,1.66-1.7.18-1.63h0Z"/>
  </g>
  <path class="cls-33" d="M967.54,797.15l-18.88-.5s-32.65,11.99-49.19,13.07c-12.03.37-24.24-.78-36.28-3.44l-37.49,3.09s-14.22,9.75-18.41,5.6c-4.19-4.15-.08-9.17,3.9-14.05,3.99-4.88,83.25-49.43,83.25-49.43-10.02-2.54-15.6-5.78-25.78-6.77-15.63-1.42-24.82-8.68-22.51-15.86,1.62-5.04,20.05-3.13,33.43,1.59,8.7,3.07,25.79-2.32,41.56,1.1,15.77,3.42,29.79,19.66,29.79,19.66,6.12,2.06,17.09,4.69,17.09,4.69.57,1.08-.5,41.25-.5,41.25Z"/>
  <path class="cls-29" d="M826.32,809.95c6.16-2.4,12.31-4.79,18.47-7.19,9.77-3.8,19.54-7.61,29.31-11.41,2.26-.88,4.51-1.76,6.77-2.63.41-.16,1.31-.65.89-1.19s-1.67-.15-2.12.03c-6.16,2.4-12.31,4.79-18.47,7.19-9.77,3.8-19.54,7.61-29.31,11.41-2.26.88-4.51,1.76-6.77,2.63-.41.16-1.31.65-.89,1.19s1.67.15,2.12-.03h0Z"/>
  <path class="cls-29" d="M862.5,807.37c3.13-.08,6.29-.51,9.36-1.09,5.66-1.07,11.47-2.82,16.22-6.2.5-.36.41-.66-.2-.73-.69-.08-1.71.2-2.28.61-4.11,2.93-9.07,4.38-13.99,5.24-2.54.45-5.14.77-7.72.84-.57.01-1.83.24-2.16.78-.35.57.3.56.77.55h0Z"/>
  <path class="cls-27" d="M1165.24,748.49c14.58-3.98,27,7.61,35.74,17.67.63.73,2.7-.13,1.99-.95-4.95-5.7-10.3-11.34-16.99-15-6.41-3.52-13.98-5.12-21.14-3.17-1.33.36-.95,1.81.39,1.45h0Z"/>
  <g>
    <path class="cls-16" d="M334.18,522.02c-16.62,0-30.18-13.62-30.18-30.34s13.56-30.29,30.18-30.29,30.18,13.62,30.18,30.34-13.51,30.34-30.18,30.34v-.05ZM334.18,468.74c-12.58,0-22.83,10.3-22.83,22.94s10.25,22.94,22.83,22.94,22.83-10.3,22.83-22.94-10.25-22.94-22.83-22.94Z"/>
    <path class="cls-7" d="M423.54,573.38c-4.56-.72-17.5-.93-27.28.41-26.35,3.57-49.49,18.59-53.17,21.07h-1.5c-3.68-2.38-27.34-17.14-53.74-20.66-10.98-1.45-18.22-1.4-22.99-1.35h-4.09c-.98,0-1.76.78-1.81,1.76,0,.98.72,1.86,1.76,1.92h4.19c4.71,0,11.8-.1,22.52,1.35,27.28,3.62,52.45,20.24,52.7,20.4l.47.31h3.73l.47-.31c.26-.16,24.85-17.08,52.08-20.76,9.47-1.29,21.9-1.09,26.25-.41.98.16,1.92-.52,2.07-1.5s-.52-1.92-1.5-2.07h0l-.16-.16Z"/>
    <g>
      <path class="cls-7" d="M335.47,600.04c-7.51-4.19-23.71-12.01-44.21-14.96-28.63-4.09-37.33-1.24-37.33-1.24l12.68,43.07s33.19-7.14,68.86,11.55v-38.42h0Z"/>
      <path class="cls-7" d="M394.8,584.35c-20.92,2.23-37.17,11.03-44.47,15.69v38.62c32.36-17.08,69.12-11.65,69.12-11.65l12.68-43.07s-8.59-2.64-37.33.47v-.05Z"/>
      <path class="cls-7" d="M346.09,602.78h-6.06s-.1-.05-.31-.21v37.12h6.37v-36.97h0v.05Z"/>
    </g>
    <g>
      <path class="cls-16" d="M348.26,497.94c-.26-.26-.67-.36-1.35-.31-.52.05-1.04.47-1.5.83-.26.21-.52.41-.72.52-4.4,2.38-9.89,3.05-15.48,1.92-2.17-.47-4.19-1.45-6.06-2.43-.26-.16-.52-.31-.78-.52-.67-.47-1.4-.98-1.97-.47-.62.62-.78,1.66-.31,2.74.05.16.16.26.21.41.05.1.16.21.21.31,2.28,4.66,8.49,6.32,13.56,6.32h0c5.85,0,10.25-1.92,13.1-5.69.52-.67.88-1.45,1.09-2.23.1-.47.21-1.09-.1-1.45l.1.05Z"/>
      <path class="cls-16" d="M321.39,490.95c.72.16,1.4-.1,1.92-.72v-.1c.57-.57,1.09-1.19,1.6-1.71.72-.62,1.29-.62,2.07,0,.62.52,1.19,1.19,1.55,1.71.47.57,1.04.88,1.66.88s.72-.1,1.04-.36c.41-.31.72-.72.78-1.24.1-.52,0-1.04-.36-1.45-.67-.88-1.29-1.6-1.97-2.23-1.09-.98-2.33-1.55-3.73-1.66h-.52c-.36.05-.72.1-1.04.26-1.76.62-3.16,1.86-4.3,3.83-.26.47-.21,1.14-.16,1.35.16.72.67,1.24,1.45,1.35v.1Z"/>
      <path class="cls-16" d="M337.75,490.9c.16,0,.31.05.47.05.57,0,1.09-.26,1.55-.78l.21-.26c.41-.52.88-1.04,1.35-1.5.78-.67,1.4-.67,2.17,0,.57.47,1.09,1.09,1.5,1.66.21.26.47.52.83.67l-.31.16h1.09c.72,0,1.29-.31,1.66-.93.36-.67.36-1.35,0-1.97-.83-1.35-1.86-2.33-3-3.05-1.4-.88-2.8-1.09-4.09-.62-1.81.57-3.31,1.86-4.56,3.93-.16.26-.21.67-.16,1.04.1.78.57,1.35,1.4,1.55l-.1.05Z"/>
    </g>
    <path class="cls-16" d="M415.05,566.18h0c-4.3-10.15-12.01-18.33-21.59-22.88-4.35,6.06-11.39,9.99-19.36,9.99s-13.82-3.31-18.17-8.49c-11.44,6.58-19.73,18.53-21.9,32.67-22.06-12.89-46.85-15.43-53.17-15.84,2.43-14.34,10.82-28.22,23.35-38.21l3.73-3c1.71-1.35,1.97-3.83.62-5.54-1.35-1.71-3.83-1.97-5.54-.62l-3.73,3c-16,12.79-25.99,31.32-26.97,49.91,6.58.05,32.67,1.45,61.09,17.5h0c3,1.71,6.06,3.62,9.06,5.69,20.76-16.83,46.65-21.95,61.25-23.45h.41c6.58-.72,10.41-.52,10.92-.52,0,0,0-.1-.05-.16h0l.05-.05Z"/>
    <path class="cls-16" d="M374.04,510.16c-10.51,0-19.05,8.59-19.05,19.1s8.54,19.1,19.05,19.1,19-8.59,19-19.1-8.54-19.1-19-19.1h0ZM364.05,527.25c0-.26,0-.57.1-.78.67-1.14,1.55-2.02,2.8-2.49.31-.1.67-.16.98-.21.93.05,1.76.41,2.38,1.04.47.47.93.93,1.29,1.5s.26,1.19-.26,1.55-1.14.21-1.55-.31c-.31-.41-.67-.83-1.09-1.19-.57-.47-1.04-.47-1.6,0-.41.36-.78.78-1.14,1.24-.31.36-.67.52-1.09.41s-.72-.36-.83-.78h0ZM383.21,536c-.1.47-.36.88-.67,1.29-1.29,1.6-3.47,2.69-5.54,3.11-1.04.21-2.12.31-3.16.47-2.49-.1-4.87-.62-6.89-2.07-.62-.47-1.14-1.09-1.66-1.66-.1-.1-.21-.26-.26-.41-.26-.57-.21-1.14.16-1.45s.98.31,1.55.62c1.24.62,2.49,1.19,3.88,1.5,3.37.62,7.09.36,10.15-1.14.41-.21.88-.78,1.35-.83.78-.1,1.19,0,1.04.72h0l.05-.16ZM384.71,527.51c-.21.36-.52.52-.93.52s-.67-.21-.93-.52c-.31-.41-.67-.78-1.04-1.14-.57-.52-1.09-.52-1.71,0-.41.36-.72.78-1.09,1.19-.31.36-.72.57-1.19.41-.47-.1-.72-.41-.83-.93,0-.21,0-.41.1-.62.72-1.19,1.6-2.12,2.95-2.59.93-.31,1.81-.1,2.64.41s1.45,1.19,1.97,2.02c.26.36.26.78,0,1.14h0l.05.1Z"/>
  </g>
</svg>