<?xml version="1.0" encoding="UTF-8"?>
<svg xmlns="http://www.w3.org/2000/svg" xmlns:xlink="http://www.w3.org/1999/xlink" viewBox="0 0 1334 1000">
  <defs>
    <style>
      .cls-1 {
        fill: #af6b4e;
      }

      .cls-1, .cls-2, .cls-3, .cls-4, .cls-5, .cls-6, .cls-7, .cls-8, .cls-9, .cls-10, .cls-11, .cls-12, .cls-13 {
        stroke-width: 0px;
      }

      .cls-2 {
        fill: #6b3825;
      }

      .cls-14 {
        clip-path: url(#clippath);
      }

      .cls-3, .cls-15 {
        fill: none;
      }

      .cls-4 {
        fill: #27153c;
      }

      .cls-5 {
        fill: #27143c;
      }

      .cls-6 {
        fill: #d8ab28;
      }

      .cls-7 {
        fill: #efebf5;
      }

      .cls-8 {
        fill: #774e80;
      }

      .cls-9 {
        fill: #000;
      }

      .cls-16 {
        fill: #151311;
        stroke: #161412;
        stroke-width: .28px;
      }

      .cls-16, .cls-15 {
        stroke-miterlimit: 10;
      }

      .cls-10 {
        fill: #5a2b66;
      }

      .cls-15 {
        stroke: #d8ab28;
        stroke-dasharray: 0 0 .98 .98;
        stroke-width: .98px;
      }

      .cls-11 {
        fill: #e5e657;
      }

      .cls-12 {
        fill: #b8e0ee;
      }

      .cls-13 {
        fill: #fff;
      }
    </style>
    <clipPath id="clippath">
      <path class="cls-3" d="M393.9,1132.15c-5.53-145.34,73.57-167.52,110.17-211.33l28.72-50.47s-87.92-323.11,122.47-347.87c0,0,139.75-15.17,171.5,113.18,0,0,14.19,60.06,5.39,125.69-6.71,50.07-18.07,109.19-18.07,109.19,0,0,30.33,36.3,47.56,50.27,17.23,13.98,100.39,66,97.12,210.27"/>
    </clipPath>
  </defs>
  <g id="Layer_2" data-name="Layer 2">
    <polyline class="cls-12" points="-129.07 1243.03 -129.07 -19.72 1432.81 -19.72 1432.81 1243.03"/>
    <path class="cls-13" d="M823.28,365.66c-10.79.08-21.29-1.78-31.59-4.77-3.11-.9-4.87-.34-6.25,2.76-6.98,15.69-18.28,27.65-32.66,36.79-13.34,8.47-27.91,13.52-43.6,15.47-11.26,1.4-22.49,1.23-33.65-.65-20.69-3.49-38.91-12.19-54.25-26.62-2.17-2.04-3.75-1.97-6.02-.23-15.46,11.84-32.95,18.51-52.26,20.99-18.19,2.34-35.9.41-52.96-5.85-23.38-8.57-41.9-23.12-52.66-46.21-5.96-12.78-7.54-26.21-5.13-40.1.69-3.98.17-4.96-4.01-5.58-12.57-1.88-24.38-6-35.33-12.36-21.76-12.63-37.27-30.26-41.82-55.66-3.2-17.87.42-34.67,10.35-50.06,11.3-17.52,27.4-28.91,46.51-36.17,7.22-2.74,15-4.04,22.58-5.74,2.8-.63,3.62-1.8,3.24-4.61-2.82-21.09,3.98-39.22,17.38-55.21,9.02-10.76,20.18-18.83,32.93-24.43,20.2-8.88,41.27-12.05,63.29-8.67,13.6,2.09,26.32,6.38,38.24,13.1,2.42,1.36,3.87.81,5.37-1.16,6.53-8.56,14.37-15.76,23.48-21.47,15.74-9.87,32.88-15.28,51.52-16.37,16.97-1,33.34,1.16,49.07,7.55,23.4,9.52,41.32,24.88,51.09,48.72,1.05,2.56,1.95,5.23,2.54,7.93.55,2.51,1.83,3.18,4.24,3.04,6.78-.38,13.59-1.02,20.35-.77,27.05,1.01,50.94,10.25,70.24,29.43,15.62,15.52,23.67,34.58,22.28,56.93-.79,12.73-5.63,24.13-12.61,34.69-2.72,4.11-2.74,4.3.86,7.45,9.79,8.57,17.21,18.82,21.87,30.97,5.34,13.93,6.18,28.21,2.27,42.61-6.64,24.45-22.83,40.88-44.74,52.29-15.7,8.18-32.57,11.65-50.17,11.98Z"/>
    <path class="cls-13" d="M539.08,444.57c.03-9.9-8.21-18.05-18.22-18.02-9.96.02-18.26,8.27-18.22,18.1.04,9.66,8.31,17.81,18.15,17.88,10.02.08,18.26-8.02,18.29-17.96Z"/>
    <path class="cls-13" d="M547.34,481.77c6.25.02,11.17-4.99,11.14-11.34-.03-6.21-4.78-10.91-11.17-11.05-5.92-.13-11.21,5.09-11.23,11.09-.02,6.21,5.03,11.28,11.27,11.3Z"/>
  </g>
  <g id="Layer_4" data-name="Layer 4">
    <path class="cls-8" d="M396.9,1132.77c-14.34-141.37,69.57-167.52,106.17-211.33l28.72-50.47s-87.92-323.11,122.47-347.87c0,0,139.75-15.17,171.5,113.18,0,0,14.19,60.06,5.39,125.69-6.71,50.07-18.07,109.19-18.07,109.19,0,0,30.33,36.3,47.56,50.27,17.23,13.98,101.36,65.38,98.12,210.27"/>
    <path class="cls-8" d="M939.74,1023.06c-18.57-56.49-59.34-61.01-68.45-64.72,0-.05-.02-.11-.03-.16l-1.57-.46c-.16-.06-.26-.09-.26-.09v.02l-110.28-32.48-83.04-.24v-.08l-10.72.05-18.09-.05s0,.09,0,.14l-37.47.18-110.28,32.48v-.02s-.15.05-.37.13l-1.46.43s-.01.08-.02.11c-9.41,3.59-52.84,8.03-71.5,64.76-.44,1.66-.9,1.99-1.35,4.12l516.26,1.65c-.47-2.13-.93-4.11-1.37-5.77Z"/>
    <g class="cls-14">
      <g>
        <circle class="cls-11" cx="240.28" cy="704.11" r="17.44"/>
        <path class="cls-15" d="M248.2,719.65c-8.58,4.38-19.08.97-23.46-7.61s-.97-19.08,7.61-23.46c8.58-4.38,19.08-.97,23.46,7.61s.97,19.08-7.61,23.46Z"/>
      </g>
      <g>
        <circle class="cls-11" cx="600.65" cy="607.99" r="17.44"/>
        <circle class="cls-15" cx="600.65" cy="607.99" r="17.44" transform="translate(-163.03 991.7) rotate(-72.03)"/>
      </g>
      <g>
        <circle class="cls-11" cx="248.87" cy="877.19" r="17.44"/>
        <path class="cls-15" d="M256.79,892.72c-8.58,4.38-19.08.97-23.46-7.61-4.38-8.58-.97-19.08,7.61-23.46,8.58-4.38,19.08-.97,23.46,7.61s.97,19.08-7.61,23.46Z"/>
      </g>
      <g>
        <circle class="cls-11" cx="608.99" cy="775.33" r="17.44"/>
        <path class="cls-15" d="M616.91,790.86c-8.58,4.38-19.08.97-23.46-7.61s-.97-19.08,7.61-23.46c8.58-4.38,19.08-.97,23.46,7.61s.97,19.08-7.61,23.46Z"/>
      </g>
      <g>
        <circle class="cls-11" cx="594.27" cy="434.78" r="17.44"/>
        <path class="cls-15" d="M602.19,450.32c-8.58,4.38-19.08.97-23.46-7.61s-.97-19.08,7.61-23.46c8.58-4.38,19.08-.97,23.46,7.61s.97,19.08-7.61,23.46Z"/>
      </g>
      <g>
        <circle class="cls-11" cx="316.02" cy="782.52" r="17.44"/>
        <path class="cls-15" d="M323.95,798.06c-8.58,4.38-19.08.97-23.46-7.61s-.97-19.08,7.61-23.46c8.58-4.38,19.08-.97,23.46,7.61,4.38,8.58.97,19.08-7.61,23.46Z"/>
      </g>
      <g>
        <circle class="cls-11" cx="389.06" cy="868.74" r="17.44"/>
        <path class="cls-15" d="M396.98,884.27c-8.58,4.38-19.08.97-23.46-7.61-4.38-8.58-.97-19.08,7.61-23.46s19.08-.97,23.46,7.61c4.38,8.58.97,19.08-7.61,23.46Z"/>
      </g>
      <g>
        <circle class="cls-11" cx="460.39" cy="776.06" r="17.44"/>
        <path class="cls-15" d="M468.31,791.59c-8.58,4.38-19.08.97-23.46-7.61s-.97-19.08,7.61-23.46c8.58-4.38,19.08-.97,23.46,7.61s.97,19.08-7.61,23.46Z"/>
      </g>
      <g>
        <circle class="cls-11" cx="531.11" cy="861.77" r="17.44"/>
        <path class="cls-15" d="M539.03,877.31c-8.58,4.38-19.08.97-23.46-7.61-4.38-8.58-.97-19.08,7.61-23.46,8.58-4.38,19.08-.97,23.46,7.61s.97,19.08-7.61,23.46Z"/>
      </g>
      <g>
        <circle class="cls-11" cx="539.59" cy="689.53" r="17.44"/>
        <path class="cls-15" d="M547.51,705.07c-8.58,4.38-19.08.97-23.46-7.61-4.38-8.58-.97-19.08,7.61-23.46,8.58-4.38,19.08-.97,23.46,7.61,4.38,8.58.97,19.08-7.61,23.46Z"/>
      </g>
      <g>
        <circle class="cls-11" cx="307.68" cy="615.19" r="17.44"/>
        <path class="cls-15" d="M315.6,630.72c-8.58,4.38-19.08.97-23.46-7.61-4.38-8.58-.97-19.08,7.61-23.46s19.08-.97,23.46,7.61c4.38,8.58.97,19.08-7.61,23.46Z"/>
      </g>
      <g>
        <circle class="cls-11" cx="234.21" cy="531.98" r="17.44"/>
        <path class="cls-15" d="M242.14,547.51c-8.58,4.38-19.08.97-23.46-7.61s-.97-19.08,7.61-23.46c8.58-4.38,19.08-.97,23.46,7.61s.97,19.08-7.61,23.46Z"/>
      </g>
      <g>
        <circle class="cls-11" cx="380.47" cy="695.66" r="17.44"/>
        <path class="cls-15" d="M388.39,711.2c-8.58,4.38-19.08.97-23.46-7.61-4.38-8.58-.97-19.08,7.61-23.46,8.58-4.38,19.08-.97,23.46,7.61s.97,19.08-7.61,23.46Z"/>
      </g>
      <g>
        <circle class="cls-11" cx="519.44" cy="519.8" r="17.44"/>
        <path class="cls-15" d="M527.36,535.33c-8.58,4.38-19.08.97-23.46-7.61-4.38-8.58-.97-19.08,7.61-23.46,8.58-4.38,19.08-.97,23.46,7.61s.97,19.08-7.61,23.46Z"/>
      </g>
      <g>
        <circle class="cls-11" cx="452.04" cy="608.72" r="17.44"/>
        <path class="cls-15" d="M459.97,624.26c-8.58,4.38-19.08.97-23.46-7.61-4.38-8.58-.97-19.08,7.61-23.46s19.08-.97,23.46,7.61c4.38,8.58.97,19.08-7.61,23.46Z"/>
      </g>
      <g>
        <circle class="cls-11" cx="297.53" cy="445.14" r="17.44"/>
        <path class="cls-15" d="M305.46,460.67c-8.58,4.38-19.08.97-23.46-7.61-4.38-8.58-.97-19.08,7.61-23.46,8.58-4.38,19.08-.97,23.46,7.61,4.38,8.58.97,19.08-7.61,23.46Z"/>
      </g>
      <g>
        <circle class="cls-11" cx="439.58" cy="438.18" r="17.44"/>
        <path class="cls-15" d="M447.51,453.71c-8.58,4.38-19.08.97-23.46-7.61-4.38-8.58-.97-19.08,7.61-23.46,8.58-4.38,19.08-.97,23.46,7.61,4.38,8.58.97,19.08-7.61,23.46Z"/>
      </g>
      <g>
        <circle class="cls-11" cx="376.05" cy="525.92" r="17.44"/>
        <path class="cls-15" d="M383.97,541.46c-8.58,4.38-19.08.97-23.46-7.61s-.97-19.08,7.61-23.46,19.08-.97,23.46,7.61c4.38,8.58.97,19.08-7.61,23.46Z"/>
      </g>
      <path class="cls-10" d="M234.9,618.3s-23.2-36.07,16.37-34.12c0,0-20.91,3.93-16.37,34.12Z"/>
      <path class="cls-10" d="M236.61,618.23s9.1-41.92,35.7-12.55c0,0-17.57-12.01-35.7,12.55Z"/>
      <path class="cls-10" d="M237.94,619.16s36.07-23.2,34.12,16.37c0,0-3.93-20.91-34.12-16.37Z"/>
      <path class="cls-10" d="M237.49,620.65s41.92,9.1,12.55,35.7c0,0,12.01-17.57-12.55-35.7Z"/>
      <path class="cls-10" d="M236.33,621.92s23.2,36.07-16.37,34.12c0,0,20.91-3.93,16.37-34.12Z"/>
      <path class="cls-10" d="M234.74,622.19s-9.1,41.92-35.7,12.55c0,0,17.57,12.01,35.7-12.55Z"/>
      <path class="cls-10" d="M233.45,620.63s-36.07,23.2-34.12-16.37c0,0,3.93,20.91,34.12,16.37Z"/>
      <path class="cls-10" d="M233.18,619.03s-41.92-9.1-12.55-35.7c0,0-12.01,17.57,12.55,35.7Z"/>
      <g>
        <path class="cls-10" d="M311.57,698.61s-23.2-36.07,16.37-34.12c0,0-20.91,3.93-16.37,34.12Z"/>
        <path class="cls-10" d="M313.28,698.53s9.1-41.92,35.7-12.55c0,0-17.57-12.01-35.7,12.55Z"/>
        <path class="cls-10" d="M314.61,699.47s36.07-23.2,34.12,16.37c0,0-3.93-20.91-34.12-16.37Z"/>
        <path class="cls-10" d="M314.16,700.96s41.92,9.1,12.55,35.7c0,0,12.01-17.57-12.55-35.7Z"/>
        <path class="cls-10" d="M313,702.22s23.2,36.07-16.37,34.12c0,0,20.91-3.93,16.37-34.12Z"/>
        <path class="cls-10" d="M311.41,702.5s-9.1,41.92-35.7,12.55c0,0,17.57,12.01,35.7-12.55Z"/>
        <path class="cls-10" d="M310.12,700.94s-36.07,23.2-34.12-16.37c0,0,3.93,20.91,34.12,16.37Z"/>
        <path class="cls-10" d="M309.85,699.34s-41.92-9.1-12.55-35.7c0,0-12.01,17.57,12.55,35.7Z"/>
      </g>
      <g>
        <path class="cls-10" d="M306.28,532.58s-23.2-36.07,16.37-34.12c0,0-20.91,3.93-16.37,34.12Z"/>
        <path class="cls-10" d="M307.99,532.51s9.1-41.92,35.7-12.55c0,0-17.57-12.01-35.7,12.55Z"/>
        <path class="cls-10" d="M309.32,533.44s36.07-23.2,34.12,16.37c0,0-3.93-20.91-34.12-16.37Z"/>
        <path class="cls-10" d="M308.87,534.93s41.92,9.1,12.55,35.7c0,0,12.01-17.57-12.55-35.7Z"/>
        <path class="cls-10" d="M307.71,536.2s23.2,36.07-16.37,34.12c0,0,20.91-3.93,16.37-34.12Z"/>
        <path class="cls-10" d="M306.12,536.48s-9.1,41.92-35.7,12.55c0,0,17.57,12.01,35.7-12.55Z"/>
        <path class="cls-10" d="M304.83,534.92s-36.07,23.2-34.12-16.37c0,0,3.93,20.91,34.12,16.37Z"/>
        <path class="cls-10" d="M304.56,533.32s-41.92-9.1-12.55-35.7c0,0-12.01,17.57,12.55,35.7Z"/>
      </g>
      <path class="cls-10" d="M377.46,617.59s-23.2-36.07,16.37-34.12c0,0-20.91,3.93-16.37,34.12Z"/>
      <path class="cls-10" d="M379.18,617.52s9.1-41.92,35.7-12.55c0,0-17.57-12.01-35.7,12.55Z"/>
      <path class="cls-10" d="M380.5,618.45s36.07-23.2,34.12,16.37c0,0-3.93-20.91-34.12-16.37Z"/>
      <path class="cls-10" d="M380.06,619.94s41.92,9.1,12.55,35.7c0,0,12.01-17.57-12.55-35.7Z"/>
      <path class="cls-10" d="M378.9,621.21s23.2,36.07-16.37,34.12c0,0,20.91-3.93,16.37-34.12Z"/>
      <path class="cls-10" d="M377.3,621.48s-9.1,41.92-35.7,12.55c0,0,17.57,12.01,35.7-12.55Z"/>
      <path class="cls-10" d="M376.02,619.92s-36.07,23.2-34.12-16.37c0,0,3.93,20.91,34.12,16.37Z"/>
      <path class="cls-10" d="M375.75,618.33s-41.92-9.1-12.55-35.7c0,0-12.01,17.57,12.55,35.7Z"/>
      <path class="cls-10" d="M447.87,506.76s-23.2-36.07,16.37-34.12c0,0-20.91,3.93-16.37,34.12Z"/>
      <path class="cls-10" d="M449.59,506.68s9.1-41.92,35.7-12.55c0,0-17.57-12.01-35.7,12.55Z"/>
      <path class="cls-10" d="M450.91,507.62s36.07-23.2,34.12,16.37c0,0-3.93-20.91-34.12-16.37Z"/>
      <path class="cls-10" d="M450.47,509.11s41.92,9.1,12.55,35.7c0,0,12.01-17.57-12.55-35.7Z"/>
      <path class="cls-10" d="M449.31,510.37s23.2,36.07-16.37,34.12c0,0,20.91-3.93,16.37-34.12Z"/>
      <path class="cls-10" d="M447.71,510.65s-9.1,41.92-35.7,12.55c0,0,17.57,12.01,35.7-12.55Z"/>
      <path class="cls-10" d="M446.43,509.09s-36.07,23.2-34.12-16.37c0,0,3.93,20.91,34.12,16.37Z"/>
      <path class="cls-10" d="M446.16,507.49s-41.92-9.1-12.55-35.7c0,0-12.01,17.57,12.55,35.7Z"/>
      <circle class="cls-6" cx="307.68" cy="615.19" r="7.53"/>
      <circle class="cls-6" cx="234.21" cy="531.98" r="7.53"/>
      <circle class="cls-6" cx="240.28" cy="704.11" r="7.53"/>
      <circle class="cls-6" cx="380.47" cy="695.66" r="7.53"/>
      <path class="cls-10" d="M448.38,522.83s9.1-41.92,35.7-12.55c0,0-17.57-12.01-35.7,12.55Z"/>
      <g>
        <path class="cls-10" d="M523.5,607.25s-23.2-36.07,16.37-34.12c0,0-20.91,3.93-16.37,34.12Z"/>
        <path class="cls-10" d="M525.22,607.17s9.1-41.92,35.7-12.55c0,0-17.57-12.01-35.7,12.55Z"/>
        <path class="cls-10" d="M526.54,608.11s36.07-23.2,34.12,16.37c0,0-3.93-20.91-34.12-16.37Z"/>
        <path class="cls-10" d="M526.1,609.6s41.92,9.1,12.55,35.7c0,0,12.01-17.57-12.55-35.7Z"/>
        <path class="cls-10" d="M524.94,610.87s23.2,36.07-16.37,34.12c0,0,20.91-3.93,16.37-34.12Z"/>
        <path class="cls-10" d="M523.34,611.14s-9.1,41.92-35.7,12.55c0,0,17.57,12.01,35.7-12.55Z"/>
        <path class="cls-10" d="M522.06,609.58s-36.07,23.2-34.12-16.37c0,0,3.93,20.91,34.12,16.37Z"/>
        <path class="cls-10" d="M521.78,607.98s-41.92-9.1-12.55-35.7c0,0-12.01,17.57,12.55,35.7Z"/>
      </g>
      <path class="cls-10" d="M597.29,521.85s-23.2-36.07,16.37-34.12c0,0-20.91,3.93-16.37,34.12Z"/>
      <path class="cls-10" d="M599.01,521.78s9.1-41.92,35.7-12.55c0,0-17.57-12.01-35.7,12.55Z"/>
      <path class="cls-10" d="M600.33,522.72s36.07-23.2,34.12,16.37c0,0-3.93-20.91-34.12-16.37Z"/>
      <path class="cls-10" d="M599.89,524.21s41.92,9.1,12.55,35.7c0,0,12.01-17.57-12.55-35.7Z"/>
      <path class="cls-10" d="M598.73,525.47s23.2,36.07-16.37,34.12c0,0,20.91-3.93,16.37-34.12Z"/>
      <path class="cls-10" d="M597.13,525.75s-9.1,41.92-35.7,12.55c0,0,17.57,12.01,35.7-12.55Z"/>
      <path class="cls-10" d="M595.85,524.19s-36.07,23.2-34.12-16.37c0,0,3.93,20.91,34.12,16.37Z"/>
      <path class="cls-10" d="M595.58,522.59s-41.92-9.1-12.55-35.7c0,0-12.01,17.57,12.55,35.7Z"/>
      <circle class="cls-6" cx="519.44" cy="519.8" r="7.53"/>
      <circle class="cls-6" cx="452.04" cy="608.72" r="7.53"/>
      <circle class="cls-6" cx="600.65" cy="607.99" r="7.53"/>
      <g>
        <path class="cls-10" d="M453.62,691.64s-23.2-36.07,16.37-34.12c0,0-20.91,3.93-16.37,34.12Z"/>
        <path class="cls-10" d="M455.33,691.57s9.1-41.92,35.7-12.55c0,0-17.57-12.01-35.7,12.55Z"/>
        <path class="cls-10" d="M456.65,692.5s36.07-23.2,34.12,16.37c0,0-3.93-20.91-34.12-16.37Z"/>
        <path class="cls-10" d="M456.21,693.99s41.92,9.1,12.55,35.7c0,0,12.01-17.57-12.55-35.7Z"/>
        <path class="cls-10" d="M455.05,695.26s23.2,36.07-16.37,34.12c0,0,20.91-3.93,16.37-34.12Z"/>
        <path class="cls-10" d="M453.45,695.53s-9.1,41.92-35.7,12.55c0,0,17.57,12.01,35.7-12.55Z"/>
        <path class="cls-10" d="M452.17,693.97s-36.07,23.2-34.12-16.37c0,0,3.93,20.91,34.12,16.37Z"/>
        <path class="cls-10" d="M451.9,692.38s-41.92-9.1-12.55-35.7c0,0-12.01,17.57,12.55,35.7Z"/>
      </g>
      <g>
        <path class="cls-10" d="M597.3,687.31s-23.2-36.07,16.37-34.12c0,0-20.91,3.93-16.37,34.12Z"/>
        <path class="cls-10" d="M599.02,687.23s9.1-41.92,35.7-12.55c0,0-17.57-12.01-35.7,12.55Z"/>
        <path class="cls-10" d="M600.34,688.17s36.07-23.2,34.12,16.37c0,0-3.93-20.91-34.12-16.37Z"/>
        <path class="cls-10" d="M599.9,689.66s41.92,9.1,12.55,35.7c0,0,12.01-17.57-12.55-35.7Z"/>
        <path class="cls-10" d="M598.74,690.92s23.2,36.07-16.37,34.12c0,0,20.91-3.93,16.37-34.12Z"/>
        <path class="cls-10" d="M597.14,691.2s-9.1,41.92-35.7,12.55c0,0,17.57,12.01,35.7-12.55Z"/>
        <path class="cls-10" d="M595.86,689.64s-36.07,23.2-34.12-16.37c0,0,3.93,20.91,34.12,16.37Z"/>
        <path class="cls-10" d="M595.58,688.04s-41.92-9.1-12.55-35.7c0,0-12.01,17.57,12.55,35.7Z"/>
      </g>
      <circle class="cls-6" cx="539.53" cy="689.28" r="7.53"/>
      <path class="cls-10" d="M243.24,785.63s-23.2-36.07,16.37-34.12c0,0-20.91,3.93-16.37,34.12Z"/>
      <path class="cls-10" d="M244.96,785.56s9.1-41.92,35.7-12.55c0,0-17.57-12.01-35.7,12.55Z"/>
      <path class="cls-10" d="M246.28,786.49s36.07-23.2,34.12,16.37c0,0-3.93-20.91-34.12-16.37Z"/>
      <path class="cls-10" d="M245.84,787.98s41.92,9.1,12.55,35.7c0,0,12.01-17.57-12.55-35.7Z"/>
      <path class="cls-10" d="M244.68,789.25s23.2,36.07-16.37,34.12c0,0,20.91-3.93,16.37-34.12Z"/>
      <path class="cls-10" d="M243.08,789.53s-9.1,41.92-35.7,12.55c0,0,17.57,12.01,35.7-12.55Z"/>
      <path class="cls-10" d="M241.8,787.97s-36.07,23.2-34.12-16.37c0,0,3.93,20.91,34.12,16.37Z"/>
      <path class="cls-10" d="M241.52,786.37s-41.92-9.1-12.55-35.7c0,0-12.01,17.57,12.55,35.7Z"/>
      <g>
        <path class="cls-10" d="M320.16,871.68s-23.2-36.07,16.37-34.12c0,0-20.91,3.93-16.37,34.12Z"/>
        <path class="cls-10" d="M321.87,871.61s9.1-41.92,35.7-12.55c0,0-17.57-12.01-35.7,12.55Z"/>
        <path class="cls-10" d="M323.2,872.54s36.07-23.2,34.12,16.37c0,0-3.93-20.91-34.12-16.37Z"/>
        <path class="cls-10" d="M322.75,874.03s41.92,9.1,12.55,35.7c0,0,12.01-17.57-12.55-35.7Z"/>
        <path class="cls-10" d="M321.59,875.3s23.2,36.07-16.37,34.12c0,0,20.91-3.93,16.37-34.12Z"/>
        <path class="cls-10" d="M320,875.57s-9.1,41.92-35.7,12.55c0,0,17.57,12.01,35.7-12.55Z"/>
        <path class="cls-10" d="M318.71,874.01s-36.07,23.2-34.12-16.37c0,0,3.93,20.91,34.12,16.37Z"/>
        <path class="cls-10" d="M318.44,872.42s-41.92-9.1-12.55-35.7c0,0-12.01,17.57,12.55,35.7Z"/>
      </g>
      <path class="cls-10" d="M385.81,784.92s-23.2-36.07,16.37-34.12c0,0-20.91,3.93-16.37,34.12Z"/>
      <path class="cls-10" d="M387.53,784.85s9.1-41.92,35.7-12.55c0,0-17.57-12.01-35.7,12.55Z"/>
      <path class="cls-10" d="M388.85,785.78s36.07-23.2,34.12,16.37c0,0-3.93-20.91-34.12-16.37Z"/>
      <path class="cls-10" d="M388.41,787.28s41.92,9.1,12.55,35.7c0,0,12.01-17.57-12.55-35.7Z"/>
      <path class="cls-10" d="M387.25,788.54s23.2,36.07-16.37,34.12c0,0,20.91-3.93,16.37-34.12Z"/>
      <path class="cls-10" d="M385.65,788.82s-9.1,41.92-35.7,12.55c0,0,17.57,12.01,35.7-12.55Z"/>
      <path class="cls-10" d="M384.37,787.26s-36.07,23.2-34.12-16.37c0,0,3.93,20.91,34.12,16.37Z"/>
      <path class="cls-10" d="M384.09,785.66s-41.92-9.1-12.55-35.7c0,0-12.01,17.57,12.55,35.7Z"/>
      <circle class="cls-6" cx="316.02" cy="782.52" r="7.53"/>
      <circle class="cls-6" cx="248.87" cy="877.19" r="7.53"/>
      <circle class="cls-6" cx="389.06" cy="868.74" r="7.53"/>
      <g>
        <path class="cls-10" d="M531.85,774.58s-23.2-36.07,16.37-34.12c0,0-20.91,3.93-16.37,34.12Z"/>
        <path class="cls-10" d="M533.56,774.51s9.1-41.92,35.7-12.55c0,0-17.57-12.01-35.7,12.55Z"/>
        <path class="cls-10" d="M534.89,775.44s36.07-23.2,34.12,16.37c0,0-3.93-20.91-34.12-16.37Z"/>
        <path class="cls-10" d="M534.45,776.93s41.92,9.1,12.55,35.7c0,0,12.01-17.57-12.55-35.7Z"/>
        <path class="cls-10" d="M533.28,778.2s23.2,36.07-16.37,34.12c0,0,20.91-3.93,16.37-34.12Z"/>
        <path class="cls-10" d="M531.69,778.47s-9.1,41.92-35.7,12.55c0,0,17.57,12.01,35.7-12.55Z"/>
        <path class="cls-10" d="M530.41,776.91s-36.07,23.2-34.12-16.37c0,0,3.93,20.91,34.12,16.37Z"/>
        <path class="cls-10" d="M530.13,775.32s-41.92-9.1-12.55-35.7c0,0-12.01,17.57,12.55,35.7Z"/>
      </g>
      <circle class="cls-6" cx="460.39" cy="776.06" r="7.53"/>
      <circle class="cls-6" cx="608.99" cy="775.33" r="7.53"/>
      <g>
        <path class="cls-10" d="M462.21,864.71s-23.2-36.07,16.37-34.12c0,0-20.91,3.93-16.37,34.12Z"/>
        <path class="cls-10" d="M463.92,864.64s9.1-41.92,35.7-12.55c0,0-17.57-12.01-35.7,12.55Z"/>
        <path class="cls-10" d="M465.25,865.58s36.07-23.2,34.12,16.37c0,0-3.93-20.91-34.12-16.37Z"/>
        <path class="cls-10" d="M464.8,867.07s41.92,9.1,12.55,35.7c0,0,12.01-17.57-12.55-35.7Z"/>
        <path class="cls-10" d="M463.64,868.33s23.2,36.07-16.37,34.12c0,0,20.91-3.93,16.37-34.12Z"/>
        <path class="cls-10" d="M462.04,868.61s-9.1,41.92-35.7,12.55c0,0,17.57,12.01,35.7-12.55Z"/>
        <path class="cls-10" d="M460.76,867.05s-36.07,23.2-34.12-16.37c0,0,3.93,20.91,34.12,16.37Z"/>
        <path class="cls-10" d="M460.49,865.45s-41.92-9.1-12.55-35.7c0,0-12.01,17.57,12.55,35.7Z"/>
      </g>
      <g>
        <path class="cls-10" d="M605.89,860.38s-23.2-36.07,16.37-34.12c0,0-20.91,3.93-16.37,34.12Z"/>
        <path class="cls-10" d="M607.61,860.31s9.1-41.92,35.7-12.55c0,0-17.57-12.01-35.7,12.55Z"/>
        <path class="cls-10" d="M608.93,861.24s36.07-23.2,34.12,16.37c0,0-3.93-20.91-34.12-16.37Z"/>
        <path class="cls-10" d="M608.49,862.73s41.92,9.1,12.55,35.7c0,0,12.01-17.57-12.55-35.7Z"/>
        <path class="cls-10" d="M607.33,864s23.2,36.07-16.37,34.12c0,0,20.91-3.93,16.37-34.12Z"/>
        <path class="cls-10" d="M605.73,864.27s-9.1,41.92-35.7,12.55c0,0,17.57,12.01,35.7-12.55Z"/>
        <path class="cls-10" d="M604.45,862.71s-36.07,23.2-34.12-16.37c0,0,3.93,20.91,34.12,16.37Z"/>
        <path class="cls-10" d="M604.17,861.12s-41.92-9.1-12.55-35.7c0,0-12.01,17.57,12.55,35.7Z"/>
      </g>
      <circle class="cls-6" cx="531.11" cy="861.77" r="7.53"/>
      <g>
        <path class="cls-10" d="M228.63,448.08s-23.2-36.07,16.37-34.12c0,0-20.91,3.93-16.37,34.12Z"/>
        <path class="cls-10" d="M230.35,448.01s9.1-41.92,35.7-12.55c0,0-17.57-12.01-35.7,12.55Z"/>
        <path class="cls-10" d="M231.67,448.94s36.07-23.2,34.12,16.37c0,0-3.93-20.91-34.12-16.37Z"/>
        <path class="cls-10" d="M231.23,450.44s41.92,9.1,12.55,35.7c0,0,12.01-17.57-12.55-35.7Z"/>
        <path class="cls-10" d="M230.07,451.7s23.2,36.07-16.37,34.12c0,0,20.91-3.93,16.37-34.12Z"/>
        <path class="cls-10" d="M228.47,451.98s-9.1,41.92-35.7,12.55c0,0,17.57,12.01,35.7-12.55Z"/>
        <path class="cls-10" d="M227.19,450.42s-36.07,23.2-34.12-16.37c0,0,3.93,20.91,34.12,16.37Z"/>
        <path class="cls-10" d="M226.91,448.82s-41.92-9.1-12.55-35.7c0,0-12.01,17.57,12.55,35.7Z"/>
      </g>
      <circle class="cls-6" cx="594.27" cy="434.78" r="7.53"/>
      <circle class="cls-6" cx="297.53" cy="445.14" r="7.53"/>
      <g>
        <path class="cls-10" d="M370.68,441.12s-23.2-36.07,16.37-34.12c0,0-20.91,3.93-16.37,34.12Z"/>
        <path class="cls-10" d="M372.39,441.04s9.1-41.92,35.7-12.55c0,0-17.57-12.01-35.7,12.55Z"/>
        <path class="cls-10" d="M373.72,441.98s36.07-23.2,34.12,16.37c0,0-3.93-20.91-34.12-16.37Z"/>
        <path class="cls-10" d="M373.28,443.47s41.92,9.1,12.55,35.7c0,0,12.01-17.57-12.55-35.7Z"/>
        <path class="cls-10" d="M372.11,444.74s23.2,36.07-16.37,34.12c0,0,20.91-3.93,16.37-34.12Z"/>
        <path class="cls-10" d="M370.52,445.01s-9.1,41.92-35.7,12.55c0,0,17.57,12.01,35.7-12.55Z"/>
        <path class="cls-10" d="M369.24,443.45s-36.07,23.2-34.12-16.37c0,0,3.93,20.91,34.12,16.37Z"/>
        <path class="cls-10" d="M368.96,441.85s-41.92-9.1-12.55-35.7c0,0-12.01,17.57,12.55,35.7Z"/>
      </g>
      <g>
        <path class="cls-10" d="M514.37,436.78s-23.2-36.07,16.37-34.12c0,0-20.91,3.93-16.37,34.12Z"/>
        <path class="cls-10" d="M516.08,436.71s9.1-41.92,35.7-12.55c0,0-17.57-12.01-35.7,12.55Z"/>
        <path class="cls-10" d="M517.41,437.64s36.07-23.2,34.12,16.37c0,0-3.93-20.91-34.12-16.37Z"/>
        <path class="cls-10" d="M516.96,439.14s41.92,9.1,12.55,35.7c0,0,12.01-17.57-12.55-35.7Z"/>
        <path class="cls-10" d="M515.8,440.4s23.2,36.07-16.37,34.12c0,0,20.91-3.93,16.37-34.12Z"/>
        <path class="cls-10" d="M514.21,440.68s-9.1,41.92-35.7,12.55c0,0,17.57,12.01,35.7-12.55Z"/>
        <path class="cls-10" d="M512.92,439.12s-36.07,23.2-34.12-16.37c0,0,3.93,20.91,34.12,16.37Z"/>
        <path class="cls-10" d="M512.65,437.52s-41.92-9.1-12.55-35.7c0,0-12.01,17.57,12.55,35.7Z"/>
      </g>
      <circle class="cls-6" cx="439.58" cy="438.18" r="7.53"/>
      <circle class="cls-6" cx="376.05" cy="525.92" r="7.53"/>
      <g>
        <circle class="cls-11" cx="622.39" cy="958.66" r="17.44"/>
        <path class="cls-15" d="M630.31,974.19c-8.58,4.38-19.08.97-23.46-7.61-4.38-8.58-.97-19.08,7.61-23.46,8.58-4.38,19.08-.97,23.46,7.61,4.38,8.58.97,19.08-7.61,23.46Z"/>
      </g>
      <g>
        <circle class="cls-11" cx="325.65" cy="969.01" r="17.44"/>
        <path class="cls-15" d="M333.57,984.55c-8.58,4.38-19.08.97-23.46-7.61-4.38-8.58-.97-19.08,7.61-23.46s19.08-.97,23.46,7.61c4.38,8.58.97,19.08-7.61,23.46Z"/>
      </g>
      <g>
        <circle class="cls-11" cx="467.7" cy="962.05" r="17.44"/>
        <path class="cls-15" d="M475.62,977.58c-8.58,4.38-19.08.97-23.46-7.61-4.38-8.58-.97-19.08,7.61-23.46s19.08-.97,23.46,7.61c4.38,8.58.97,19.08-7.61,23.46Z"/>
      </g>
      <path class="cls-10" d="M475.99,1030.63s-23.2-36.07,16.37-34.12c0,0-20.91,3.93-16.37,34.12Z"/>
      <path class="cls-10" d="M474.27,1031.37s-41.92-9.1-12.55-35.7c0,0-12.01,17.57,12.55,35.7Z"/>
      <g>
        <path class="cls-10" d="M256.75,971.96s-23.2-36.07,16.37-34.12c0,0-20.91,3.93-16.37,34.12Z"/>
        <path class="cls-10" d="M258.46,971.88s9.1-41.92,35.7-12.55c0,0-17.57-12.01-35.7,12.55Z"/>
        <path class="cls-10" d="M259.79,972.82s36.07-23.2,34.12,16.37c0,0-3.93-20.91-34.12-16.37Z"/>
        <path class="cls-10" d="M259.34,974.31s41.92,9.1,12.55,35.7c0,0,12.01-17.57-12.55-35.7Z"/>
        <path class="cls-10" d="M258.18,975.57s23.2,36.07-16.37,34.12c0,0,20.91-3.93,16.37-34.12Z"/>
        <path class="cls-10" d="M256.59,975.85s-9.1,41.92-35.7,12.55c0,0,17.57,12.01,35.7-12.55Z"/>
        <path class="cls-10" d="M255.3,974.29s-36.07,23.2-34.12-16.37c0,0,3.93,20.91,34.12,16.37Z"/>
        <path class="cls-10" d="M255.03,972.69s-41.92-9.1-12.55-35.7c0,0-12.01,17.57,12.55,35.7Z"/>
      </g>
      <circle class="cls-6" cx="622.39" cy="958.66" r="7.53"/>
      <circle class="cls-6" cx="325.65" cy="969.01" r="7.53"/>
      <g>
        <path class="cls-10" d="M398.8,964.99s-23.2-36.07,16.37-34.12c0,0-20.91,3.93-16.37,34.12Z"/>
        <path class="cls-10" d="M400.51,964.92s9.1-41.92,35.7-12.55c0,0-17.57-12.01-35.7,12.55Z"/>
        <path class="cls-10" d="M401.83,965.85s36.07-23.2,34.12,16.37c0,0-3.93-20.91-34.12-16.37Z"/>
        <path class="cls-10" d="M401.39,967.34s41.92,9.1,12.55,35.7c0,0,12.01-17.57-12.55-35.7Z"/>
        <path class="cls-10" d="M400.23,968.61s23.2,36.07-16.37,34.12c0,0,20.91-3.93,16.37-34.12Z"/>
        <path class="cls-10" d="M398.63,968.88s-9.1,41.92-35.7,12.55c0,0,17.57,12.01,35.7-12.55Z"/>
        <path class="cls-10" d="M397.35,967.32s-36.07,23.2-34.12-16.37c0,0,3.93,20.91,34.12,16.37Z"/>
        <path class="cls-10" d="M397.08,965.73s-41.92-9.1-12.55-35.7c0,0-12.01,17.57,12.55,35.7Z"/>
      </g>
      <g>
        <path class="cls-10" d="M542.48,960.66s-23.2-36.07,16.37-34.12c0,0-20.91,3.93-16.37,34.12Z"/>
        <path class="cls-10" d="M544.2,960.58s9.1-41.92,35.7-12.55c0,0-17.57-12.01-35.7,12.55Z"/>
        <path class="cls-10" d="M545.52,961.52s36.07-23.2,34.12,16.37c0,0-3.93-20.91-34.12-16.37Z"/>
        <path class="cls-10" d="M545.08,963.01s41.92,9.1,12.55,35.7c0,0,12.01-17.57-12.55-35.7Z"/>
        <path class="cls-10" d="M543.92,964.27s23.2,36.07-16.37,34.12c0,0,20.91-3.93,16.37-34.12Z"/>
        <path class="cls-10" d="M542.32,964.55s-9.1,41.92-35.7,12.55c0,0,17.57,12.01,35.7-12.55Z"/>
        <path class="cls-10" d="M541.04,962.99s-36.07,23.2-34.12-16.37c0,0,3.93,20.91,34.12,16.37Z"/>
        <path class="cls-10" d="M540.76,961.39s-41.92-9.1-12.55-35.7c0,0-12.01,17.57,12.55,35.7Z"/>
      </g>
      <circle class="cls-6" cx="467.7" cy="962.05" r="7.53"/>
      <g>
        <circle class="cls-11" cx="684.34" cy="683.87" r="17.44"/>
        <path class="cls-15" d="M692.26,699.4c-8.58,4.38-19.08.97-23.46-7.61-4.38-8.58-.97-19.08,7.61-23.46,8.58-4.38,19.08-.97,23.46,7.61s.97,19.08-7.61,23.46Z"/>
      </g>
      <g>
        <circle class="cls-11" cx="1044.71" cy="587.75" r="17.44"/>
        <path class="cls-15" d="M1052.63,603.28c-8.58,4.38-19.08.97-23.46-7.61-4.38-8.58-.97-19.08,7.61-23.46,8.58-4.38,19.08-.97,23.46,7.61,4.38,8.58.97,19.08-7.61,23.46Z"/>
      </g>
      <g>
        <circle class="cls-11" cx="692.93" cy="856.95" r="17.44"/>
        <path class="cls-15" d="M700.86,872.48c-8.58,4.38-19.08.97-23.46-7.61-4.38-8.58-.97-19.08,7.61-23.46s19.08-.97,23.46,7.61c4.38,8.58.97,19.08-7.61,23.46Z"/>
      </g>
      <g>
        <circle class="cls-11" cx="1053.05" cy="755.08" r="17.44"/>
        <path class="cls-15" d="M1060.97,770.62c-8.58,4.38-19.08.97-23.46-7.61-4.38-8.58-.97-19.08,7.61-23.46,8.58-4.38,19.08-.97,23.46,7.61,4.38,8.58.97,19.08-7.61,23.46Z"/>
      </g>
      <g>
        <circle class="cls-11" cx="1038.33" cy="414.54" r="17.44"/>
        <path class="cls-15" d="M1046.26,430.07c-8.58,4.38-19.08.97-23.46-7.61-4.38-8.58-.97-19.08,7.61-23.46,8.58-4.38,19.08-.97,23.46,7.61,4.38,8.58.97,19.08-7.61,23.46Z"/>
      </g>
      <g>
        <circle class="cls-11" cx="983.59" cy="669.04" r="17.44"/>
        <path class="cls-15" d="M991.51,684.57c-8.58,4.38-19.08.97-23.46-7.61-4.38-8.58-.97-19.08,7.61-23.46,8.58-4.38,19.08-.97,23.46,7.61s.97,19.08-7.61,23.46Z"/>
      </g>
      <g>
        <circle class="cls-11" cx="760.08" cy="762.28" r="17.44"/>
        <path class="cls-15" d="M768.01,777.81c-8.58,4.38-19.08.97-23.46-7.61-4.38-8.58-.97-19.08,7.61-23.46,8.58-4.38,19.08-.97,23.46,7.61s.97,19.08-7.61,23.46Z"/>
      </g>
      <g>
        <circle class="cls-11" cx="833.12" cy="848.5" r="17.44"/>
        <path class="cls-15" d="M841.05,864.03c-8.58,4.38-19.08.97-23.46-7.61-4.38-8.58-.97-19.08,7.61-23.46s19.08-.97,23.46,7.61c4.38,8.58.97,19.08-7.61,23.46Z"/>
      </g>
      <g>
        <circle class="cls-11" cx="904.45" cy="755.81" r="17.44"/>
        <path class="cls-15" d="M912.37,771.35c-8.58,4.38-19.08.97-23.46-7.61-4.38-8.58-.97-19.08,7.61-23.46,8.58-4.38,19.08-.97,23.46,7.61s.97,19.08-7.61,23.46Z"/>
      </g>
      <g>
        <circle class="cls-11" cx="975.17" cy="841.53" r="17.44"/>
        <path class="cls-15" d="M983.1,857.06c-8.58,4.38-19.08.97-23.46-7.61-4.38-8.58-.97-19.08,7.61-23.46s19.08-.97,23.46,7.61c4.38,8.58.97,19.08-7.61,23.46Z"/>
      </g>
      <g>
        <circle class="cls-11" cx="751.74" cy="594.95" r="17.44"/>
        <path class="cls-15" d="M759.66,610.48c-8.58,4.38-19.08.97-23.46-7.61s-.97-19.08,7.61-23.46c8.58-4.38,19.08-.97,23.46,7.61s.97,19.08-7.61,23.46Z"/>
      </g>
      <g>
        <circle class="cls-11" cx="678.28" cy="511.74" r="17.44"/>
        <path class="cls-15" d="M686.2,527.27c-8.58,4.38-19.08.97-23.46-7.61-4.38-8.58-.97-19.08,7.61-23.46,8.58-4.38,19.08-.97,23.46,7.61,4.38,8.58.97,19.08-7.61,23.46Z"/>
      </g>
      <g>
        <circle class="cls-11" cx="824.53" cy="675.42" r="17.44"/>
        <path class="cls-15" d="M832.46,690.95c-8.58,4.38-19.08.97-23.46-7.61-4.38-8.58-.97-19.08,7.61-23.46s19.08-.97,23.46,7.61c4.38,8.58.97,19.08-7.61,23.46Z"/>
      </g>
      <g>
        <circle class="cls-11" cx="963.5" cy="499.56" r="17.44"/>
        <path class="cls-15" d="M971.43,515.09c-8.58,4.38-19.08.97-23.46-7.61-4.38-8.58-.97-19.08,7.61-23.46,8.58-4.38,19.08-.97,23.46,7.61,4.38,8.58.97,19.08-7.61,23.46Z"/>
      </g>
      <g>
        <circle class="cls-11" cx="896.11" cy="588.48" r="17.44"/>
        <path class="cls-15" d="M904.03,604.01c-8.58,4.38-19.08.97-23.46-7.61s-.97-19.08,7.61-23.46c8.58-4.38,19.08-.97,23.46,7.61,4.38,8.58.97,19.08-7.61,23.46Z"/>
      </g>
      <g>
        <circle class="cls-11" cx="741.6" cy="424.9" r="17.44"/>
        <path class="cls-15" d="M749.52,440.43c-8.58,4.38-19.08.97-23.46-7.61-4.38-8.58-.97-19.08,7.61-23.46s19.08-.97,23.46,7.61c4.38,8.58.97,19.08-7.61,23.46Z"/>
      </g>
      <g>
        <circle class="cls-11" cx="883.65" cy="417.93" r="17.44"/>
        <path class="cls-15" d="M891.57,433.47c-8.58,4.38-19.08.97-23.46-7.61-4.38-8.58-.97-19.08,7.61-23.46s19.08-.97,23.46,7.61c4.38,8.58.97,19.08-7.61,23.46Z"/>
      </g>
      <g>
        <circle class="cls-11" cx="820.11" cy="505.68" r="17.44"/>
        <path class="cls-15" d="M828.03,521.21c-8.58,4.38-19.08.97-23.46-7.61s-.97-19.08,7.61-23.46c8.58-4.38,19.08-.97,23.46,7.61,4.38,8.58.97,19.08-7.61,23.46Z"/>
      </g>
      <path class="cls-10" d="M678.96,598.06s-23.2-36.07,16.37-34.12c0,0-20.91,3.93-16.37,34.12Z"/>
      <path class="cls-10" d="M680.67,597.98s9.1-41.92,35.7-12.55c0,0-17.57-12.01-35.7,12.55Z"/>
      <path class="cls-10" d="M682,598.92s36.07-23.2,34.12,16.37c0,0-3.93-20.91-34.12-16.37Z"/>
      <path class="cls-10" d="M681.56,600.41s41.92,9.1,12.55,35.7c0,0,12.01-17.57-12.55-35.7Z"/>
      <path class="cls-10" d="M680.39,601.67s23.2,36.07-16.37,34.12c0,0,20.91-3.93,16.37-34.12Z"/>
      <path class="cls-10" d="M678.8,601.95s-9.1,41.92-35.7,12.55c0,0,17.57,12.01,35.7-12.55Z"/>
      <path class="cls-10" d="M677.52,600.39s-36.07,23.2-34.12-16.37c0,0,3.93,20.91,34.12,16.37Z"/>
      <path class="cls-10" d="M677.24,598.79s-41.92-9.1-12.55-35.7c0,0-12.01,17.57,12.55,35.7Z"/>
      <g>
        <path class="cls-10" d="M755.63,678.36s-23.2-36.07,16.37-34.12c0,0-20.91,3.93-16.37,34.12Z"/>
        <path class="cls-10" d="M757.34,678.29s9.1-41.92,35.7-12.55c0,0-17.57-12.01-35.7,12.55Z"/>
        <path class="cls-10" d="M758.67,679.22s36.07-23.2,34.12,16.37c0,0-3.93-20.91-34.12-16.37Z"/>
        <path class="cls-10" d="M758.22,680.72s41.92,9.1,12.55,35.7c0,0,12.01-17.57-12.55-35.7Z"/>
        <path class="cls-10" d="M757.06,681.98s23.2,36.07-16.37,34.12c0,0,20.91-3.93,16.37-34.12Z"/>
        <path class="cls-10" d="M755.47,682.26s-9.1,41.92-35.7,12.55c0,0,17.57,12.01,35.7-12.55Z"/>
        <path class="cls-10" d="M754.18,680.7s-36.07,23.2-34.12-16.37c0,0,3.93,20.91,34.12,16.37Z"/>
        <path class="cls-10" d="M753.91,679.1s-41.92-9.1-12.55-35.7c0,0-12.01,17.57,12.55,35.7Z"/>
      </g>
      <g>
        <path class="cls-10" d="M750.34,512.34s-23.2-36.07,16.37-34.12c0,0-20.91,3.93-16.37,34.12Z"/>
        <path class="cls-10" d="M752.05,512.27s9.1-41.92,35.7-12.55c0,0-17.57-12.01-35.7,12.55Z"/>
        <path class="cls-10" d="M753.38,513.2s36.07-23.2,34.12,16.37c0,0-3.93-20.91-34.12-16.37Z"/>
        <path class="cls-10" d="M752.94,514.69s41.92,9.1,12.55,35.7c0,0,12.01-17.57-12.55-35.7Z"/>
        <path class="cls-10" d="M751.77,515.96s23.2,36.07-16.37,34.12c0,0,20.91-3.93,16.37-34.12Z"/>
        <path class="cls-10" d="M750.18,516.23s-9.1,41.92-35.7,12.55c0,0,17.57,12.01,35.7-12.55Z"/>
        <path class="cls-10" d="M748.9,514.67s-36.07,23.2-34.12-16.37c0,0,3.93,20.91,34.12,16.37Z"/>
        <path class="cls-10" d="M748.62,513.08s-41.92-9.1-12.55-35.7c0,0-12.01,17.57,12.55,35.7Z"/>
      </g>
      <path class="cls-10" d="M821.53,597.35s-23.2-36.07,16.37-34.12c0,0-20.91,3.93-16.37,34.12Z"/>
      <path class="cls-10" d="M823.24,597.27s9.1-41.92,35.7-12.55c0,0-17.57-12.01-35.7,12.55Z"/>
      <path class="cls-10" d="M824.57,598.21s36.07-23.2,34.12,16.37c0,0-3.93-20.91-34.12-16.37Z"/>
      <path class="cls-10" d="M824.12,599.7s41.92,9.1,12.55,35.7c0,0,12.01-17.57-12.55-35.7Z"/>
      <path class="cls-10" d="M822.96,600.96s23.2,36.07-16.37,34.12c0,0,20.91-3.93,16.37-34.12Z"/>
      <path class="cls-10" d="M821.37,601.24s-9.1,41.92-35.7,12.55c0,0,17.57,12.01,35.7-12.55Z"/>
      <path class="cls-10" d="M820.08,599.68s-36.07,23.2-34.12-16.37c0,0,3.93,20.91,34.12,16.37Z"/>
      <path class="cls-10" d="M819.81,598.08s-41.92-9.1-12.55-35.7c0,0-12.01,17.57,12.55,35.7Z"/>
      <path class="cls-10" d="M891.94,486.51s-23.2-36.07,16.37-34.12c0,0-20.91,3.93-16.37,34.12Z"/>
      <path class="cls-10" d="M893.65,486.44s9.1-41.92,35.7-12.55c0,0-17.57-12.01-35.7,12.55Z"/>
      <path class="cls-10" d="M894.97,487.38s36.07-23.2,34.12,16.37c0,0-3.93-20.91-34.12-16.37Z"/>
      <path class="cls-10" d="M894.53,488.87s41.92,9.1,12.55,35.7c0,0,12.01-17.57-12.55-35.7Z"/>
      <path class="cls-10" d="M893.37,490.13s23.2,36.07-16.37,34.12c0,0,20.91-3.93,16.37-34.12Z"/>
      <path class="cls-10" d="M891.77,490.41s-9.1,41.92-35.7,12.55c0,0,17.57,12.01,35.7-12.55Z"/>
      <path class="cls-10" d="M890.49,488.85s-36.07,23.2-34.12-16.37c0,0,3.93,20.91,34.12,16.37Z"/>
      <path class="cls-10" d="M890.22,487.25s-41.92-9.1-12.55-35.7c0,0-12.01,17.57,12.55,35.7Z"/>
      <circle class="cls-6" cx="751.74" cy="594.95" r="7.53"/>
      <circle class="cls-6" cx="678.28" cy="511.74" r="7.53"/>
      <circle class="cls-6" cx="684.34" cy="683.87" r="7.53"/>
      <circle class="cls-6" cx="824.53" cy="675.42" r="7.53"/>
      <path class="cls-10" d="M892.44,502.59s9.1-41.92,35.7-12.55c0,0-17.57-12.01-35.7,12.55Z"/>
      <g>
        <path class="cls-10" d="M967.56,587.01s-23.2-36.07,16.37-34.12c0,0-20.91,3.93-16.37,34.12Z"/>
        <path class="cls-10" d="M969.28,586.93s9.1-41.92,35.7-12.55c0,0-17.57-12.01-35.7,12.55Z"/>
        <path class="cls-10" d="M970.6,587.87s36.07-23.2,34.12,16.37c0,0-3.93-20.91-34.12-16.37Z"/>
        <path class="cls-10" d="M970.16,589.36s41.92,9.1,12.55,35.7c0,0,12.01-17.57-12.55-35.7Z"/>
        <path class="cls-10" d="M969,590.62s23.2,36.07-16.37,34.12c0,0,20.91-3.93,16.37-34.12Z"/>
        <path class="cls-10" d="M967.4,590.9s-9.1,41.92-35.7,12.55c0,0,17.57,12.01,35.7-12.55Z"/>
        <path class="cls-10" d="M966.12,589.34s-36.07,23.2-34.12-16.37c0,0,3.93,20.91,34.12,16.37Z"/>
        <path class="cls-10" d="M965.85,587.74s-41.92-9.1-12.55-35.7c0,0-12.01,17.57,12.55,35.7Z"/>
      </g>
      <path class="cls-10" d="M1041.36,501.61s-23.2-36.07,16.37-34.12c0,0-20.91,3.93-16.37,34.12Z"/>
      <path class="cls-10" d="M1043.07,501.54s9.1-41.92,35.7-12.55c0,0-17.57-12.01-35.7,12.55Z"/>
      <path class="cls-10" d="M1044.4,502.47s36.07-23.2,34.12,16.37c0,0-3.93-20.91-34.12-16.37Z"/>
      <path class="cls-10" d="M1043.95,503.96s41.92,9.1,12.55,35.7c0,0,12.01-17.57-12.55-35.7Z"/>
      <path class="cls-10" d="M1042.79,505.23s23.2,36.07-16.37,34.12c0,0,20.91-3.93,16.37-34.12Z"/>
      <path class="cls-10" d="M1041.19,505.51s-9.1,41.92-35.7,12.55c0,0,17.57,12.01,35.7-12.55Z"/>
      <path class="cls-10" d="M1039.91,503.95s-36.07,23.2-34.12-16.37c0,0,3.93,20.91,34.12,16.37Z"/>
      <path class="cls-10" d="M1039.64,502.35s-41.92-9.1-12.55-35.7c0,0-12.01,17.57,12.55,35.7Z"/>
      <circle class="cls-6" cx="963.5" cy="499.56" r="7.53"/>
      <circle class="cls-6" cx="896.11" cy="588.48" r="7.53"/>
      <circle class="cls-6" cx="1044.71" cy="587.75" r="7.53"/>
      <g>
        <path class="cls-10" d="M897.68,671.4s-23.2-36.07,16.37-34.12c0,0-20.91,3.93-16.37,34.12Z"/>
        <path class="cls-10" d="M899.39,671.32s9.1-41.92,35.7-12.55c0,0-17.57-12.01-35.7,12.55Z"/>
        <path class="cls-10" d="M900.72,672.26s36.07-23.2,34.12,16.37c0,0-3.93-20.91-34.12-16.37Z"/>
        <path class="cls-10" d="M900.27,673.75s41.92,9.1,12.55,35.7c0,0,12.01-17.57-12.55-35.7Z"/>
        <path class="cls-10" d="M899.11,675.02s23.2,36.07-16.37,34.12c0,0,20.91-3.93,16.37-34.12Z"/>
        <path class="cls-10" d="M897.52,675.29s-9.1,41.92-35.7,12.55c0,0,17.57,12.01,35.7-12.55Z"/>
        <path class="cls-10" d="M896.23,673.73s-36.07,23.2-34.12-16.37c0,0,3.93,20.91,34.12,16.37Z"/>
        <path class="cls-10" d="M895.96,672.13s-41.92-9.1-12.55-35.7c0,0-12.01,17.57,12.55,35.7Z"/>
      </g>
      <g>
        <path class="cls-10" d="M1041.36,667.06s-23.2-36.07,16.37-34.12c0,0-20.91,3.93-16.37,34.12Z"/>
        <path class="cls-10" d="M1043.08,666.99s9.1-41.92,35.7-12.55c0,0-17.57-12.01-35.7,12.55Z"/>
        <path class="cls-10" d="M1044.4,667.92s36.07-23.2,34.12,16.37c0,0-3.93-20.91-34.12-16.37Z"/>
        <path class="cls-10" d="M1043.96,669.42s41.92,9.1,12.55,35.7c0,0,12.01-17.57-12.55-35.7Z"/>
        <path class="cls-10" d="M1042.8,670.68s23.2,36.07-16.37,34.12c0,0,20.91-3.93,16.37-34.12Z"/>
        <path class="cls-10" d="M1041.2,670.96s-9.1,41.92-35.7,12.55c0,0,17.57,12.01,35.7-12.55Z"/>
        <path class="cls-10" d="M1039.92,669.4s-36.07,23.2-34.12-16.37c0,0,3.93,20.91,34.12,16.37Z"/>
        <path class="cls-10" d="M1039.65,667.8s-41.92-9.1-12.55-35.7c0,0-12.01,17.57,12.55,35.7Z"/>
      </g>
      <circle class="cls-6" cx="983.59" cy="669.04" r="7.53"/>
      <path class="cls-10" d="M687.3,765.39s-23.2-36.07,16.37-34.12c0,0-20.91,3.93-16.37,34.12Z"/>
      <path class="cls-10" d="M689.02,765.32s9.1-41.92,35.7-12.55c0,0-17.57-12.01-35.7,12.55Z"/>
      <path class="cls-10" d="M690.34,766.25s36.07-23.2,34.12,16.37c0,0-3.93-20.91-34.12-16.37Z"/>
      <path class="cls-10" d="M689.9,767.74s41.92,9.1,12.55,35.7c0,0,12.01-17.57-12.55-35.7Z"/>
      <path class="cls-10" d="M688.74,769.01s23.2,36.07-16.37,34.12c0,0,20.91-3.93,16.37-34.12Z"/>
      <path class="cls-10" d="M687.14,769.28s-9.1,41.92-35.7,12.55c0,0,17.57,12.01,35.7-12.55Z"/>
      <path class="cls-10" d="M685.86,767.72s-36.07,23.2-34.12-16.37c0,0,3.93,20.91,34.12,16.37Z"/>
      <path class="cls-10" d="M685.59,766.13s-41.92-9.1-12.55-35.7c0,0-12.01,17.57,12.55,35.7Z"/>
      <g>
        <path class="cls-10" d="M764.22,851.44s-23.2-36.07,16.37-34.12c0,0-20.91,3.93-16.37,34.12Z"/>
        <path class="cls-10" d="M765.93,851.36s9.1-41.92,35.7-12.55c0,0-17.57-12.01-35.7,12.55Z"/>
        <path class="cls-10" d="M767.26,852.3s36.07-23.2,34.12,16.37c0,0-3.93-20.91-34.12-16.37Z"/>
        <path class="cls-10" d="M766.82,853.79s41.92,9.1,12.55,35.7c0,0,12.01-17.57-12.55-35.7Z"/>
        <path class="cls-10" d="M765.65,855.06s23.2,36.07-16.37,34.12c0,0,20.91-3.93,16.37-34.12Z"/>
        <path class="cls-10" d="M764.06,855.33s-9.1,41.92-35.7,12.55c0,0,17.57,12.01,35.7-12.55Z"/>
        <path class="cls-10" d="M762.78,853.77s-36.07,23.2-34.12-16.37c0,0,3.93,20.91,34.12,16.37Z"/>
        <path class="cls-10" d="M762.5,852.17s-41.92-9.1-12.55-35.7c0,0-12.01,17.57,12.55,35.7Z"/>
      </g>
      <path class="cls-10" d="M829.87,764.68s-23.2-36.07,16.37-34.12c0,0-20.91,3.93-16.37,34.12Z"/>
      <path class="cls-10" d="M831.59,764.61s9.1-41.92,35.7-12.55c0,0-17.57-12.01-35.7,12.55Z"/>
      <path class="cls-10" d="M832.91,765.54s36.07-23.2,34.12,16.37c0,0-3.93-20.91-34.12-16.37Z"/>
      <path class="cls-10" d="M832.47,767.03s41.92,9.1,12.55,35.7c0,0,12.01-17.57-12.55-35.7Z"/>
      <path class="cls-10" d="M831.31,768.3s23.2,36.07-16.37,34.12c0,0,20.91-3.93,16.37-34.12Z"/>
      <path class="cls-10" d="M829.71,768.57s-9.1,41.92-35.7,12.55c0,0,17.57,12.01,35.7-12.55Z"/>
      <path class="cls-10" d="M828.43,767.01s-36.07,23.2-34.12-16.37c0,0,3.93,20.91,34.12,16.37Z"/>
      <path class="cls-10" d="M828.15,765.42s-41.92-9.1-12.55-35.7c0,0-12.01,17.57,12.55,35.7Z"/>
      <circle class="cls-6" cx="760.08" cy="762.28" r="7.53"/>
      <circle class="cls-6" cx="692.93" cy="856.95" r="7.53"/>
      <circle class="cls-6" cx="833.12" cy="848.5" r="7.53"/>
      <g>
        <path class="cls-10" d="M975.91,754.34s-23.2-36.07,16.37-34.12c0,0-20.91,3.93-16.37,34.12Z"/>
        <path class="cls-10" d="M977.63,754.27s9.1-41.92,35.7-12.55c0,0-17.57-12.01-35.7,12.55Z"/>
        <path class="cls-10" d="M978.95,755.2s36.07-23.2,34.12,16.37c0,0-3.93-20.91-34.12-16.37Z"/>
        <path class="cls-10" d="M978.51,756.69s41.92,9.1,12.55,35.7c0,0,12.01-17.57-12.55-35.7Z"/>
        <path class="cls-10" d="M977.35,757.96s23.2,36.07-16.37,34.12c0,0,20.91-3.93,16.37-34.12Z"/>
        <path class="cls-10" d="M975.75,758.23s-9.1,41.92-35.7,12.55c0,0,17.57,12.01,35.7-12.55Z"/>
        <path class="cls-10" d="M974.47,756.67s-36.07,23.2-34.12-16.37c0,0,3.93,20.91,34.12,16.37Z"/>
        <path class="cls-10" d="M974.19,755.08s-41.92-9.1-12.55-35.7c0,0-12.01,17.57,12.55,35.7Z"/>
      </g>
      <circle class="cls-6" cx="904.45" cy="755.81" r="7.53"/>
      <circle class="cls-6" cx="1053.05" cy="755.08" r="7.53"/>
      <g>
        <path class="cls-10" d="M906.27,844.47s-23.2-36.07,16.37-34.12c0,0-20.91,3.93-16.37,34.12Z"/>
        <path class="cls-10" d="M907.98,844.4s9.1-41.92,35.7-12.55c0,0-17.57-12.01-35.7,12.55Z"/>
        <path class="cls-10" d="M909.31,845.33s36.07-23.2,34.12,16.37c0,0-3.93-20.91-34.12-16.37Z"/>
        <path class="cls-10" d="M908.86,846.82s41.92,9.1,12.55,35.7c0,0,12.01-17.57-12.55-35.7Z"/>
        <path class="cls-10" d="M907.7,848.09s23.2,36.07-16.37,34.12c0,0,20.91-3.93,16.37-34.12Z"/>
        <path class="cls-10" d="M906.11,848.37s-9.1,41.92-35.7,12.55c0,0,17.57,12.01,35.7-12.55Z"/>
        <path class="cls-10" d="M904.82,846.81s-36.07,23.2-34.12-16.37c0,0,3.93,20.91,34.12,16.37Z"/>
        <path class="cls-10" d="M904.55,845.21s-41.92-9.1-12.55-35.7c0,0-12.01,17.57,12.55,35.7Z"/>
      </g>
      <g>
        <path class="cls-10" d="M1049.95,840.14s-23.2-36.07,16.37-34.12c0,0-20.91,3.93-16.37,34.12Z"/>
        <path class="cls-10" d="M1051.67,840.06s9.1-41.92,35.7-12.55c0,0-17.57-12.01-35.7,12.55Z"/>
        <path class="cls-10" d="M1052.99,841s36.07-23.2,34.12,16.37c0,0-3.93-20.91-34.12-16.37Z"/>
        <path class="cls-10" d="M1052.55,842.49s41.92,9.1,12.55,35.7c0,0,12.01-17.57-12.55-35.7Z"/>
        <path class="cls-10" d="M1051.39,843.75s23.2,36.07-16.37,34.12c0,0,20.91-3.93,16.37-34.12Z"/>
        <path class="cls-10" d="M1049.79,844.03s-9.1,41.92-35.7,12.55c0,0,17.57,12.01,35.7-12.55Z"/>
        <path class="cls-10" d="M1048.51,842.47s-36.07,23.2-34.12-16.37c0,0,3.93,20.91,34.12,16.37Z"/>
        <path class="cls-10" d="M1048.24,840.87s-41.92-9.1-12.55-35.7c0,0-12.01,17.57,12.55,35.7Z"/>
      </g>
      <circle class="cls-6" cx="975.17" cy="841.53" r="7.53"/>
      <g>
        <path class="cls-10" d="M672.69,427.84s-23.2-36.07,16.37-34.12c0,0-20.91,3.93-16.37,34.12Z"/>
        <path class="cls-10" d="M674.41,427.77s9.1-41.92,35.7-12.55c0,0-17.57-12.01-35.7,12.55Z"/>
        <path class="cls-10" d="M675.73,428.7s36.07-23.2,34.12,16.37c0,0-3.93-20.91-34.12-16.37Z"/>
        <path class="cls-10" d="M675.29,430.19s41.92,9.1,12.55,35.7c0,0,12.01-17.57-12.55-35.7Z"/>
        <path class="cls-10" d="M674.13,431.46s23.2,36.07-16.37,34.12c0,0,20.91-3.93,16.37-34.12Z"/>
        <path class="cls-10" d="M672.53,431.73s-9.1,41.92-35.7,12.55c0,0,17.57,12.01,35.7-12.55Z"/>
        <path class="cls-10" d="M671.25,430.17s-36.07,23.2-34.12-16.37c0,0,3.93,20.91,34.12,16.37Z"/>
        <path class="cls-10" d="M670.97,428.58s-41.92-9.1-12.55-35.7c0,0-12.01,17.57,12.55,35.7Z"/>
      </g>
      <circle class="cls-6" cx="1038.33" cy="414.54" r="7.53"/>
      <circle class="cls-6" cx="741.6" cy="424.9" r="7.53"/>
      <g>
        <path class="cls-10" d="M814.74,420.88s-23.2-36.07,16.37-34.12c0,0-20.91,3.93-16.37,34.12Z"/>
        <path class="cls-10" d="M816.46,420.8s9.1-41.92,35.7-12.55c0,0-17.57-12.01-35.7,12.55Z"/>
        <path class="cls-10" d="M817.78,421.74s36.07-23.2,34.12,16.37c0,0-3.93-20.91-34.12-16.37Z"/>
        <path class="cls-10" d="M817.34,423.23s41.92,9.1,12.55,35.7c0,0,12.01-17.57-12.55-35.7Z"/>
        <path class="cls-10" d="M816.18,424.49s23.2,36.07-16.37,34.12c0,0,20.91-3.93,16.37-34.12Z"/>
        <path class="cls-10" d="M814.58,424.77s-9.1,41.92-35.7,12.55c0,0,17.57,12.01,35.7-12.55Z"/>
        <path class="cls-10" d="M813.3,423.21s-36.07,23.2-34.12-16.37c0,0,3.93,20.91,34.12,16.37Z"/>
        <path class="cls-10" d="M813.02,421.61s-41.92-9.1-12.55-35.7c0,0-12.01,17.57,12.55,35.7Z"/>
      </g>
      <g>
        <path class="cls-10" d="M958.43,416.54s-23.2-36.07,16.37-34.12c0,0-20.91,3.93-16.37,34.12Z"/>
        <path class="cls-10" d="M960.14,416.47s9.1-41.92,35.7-12.55c0,0-17.57-12.01-35.7,12.55Z"/>
        <path class="cls-10" d="M961.47,417.4s36.07-23.2,34.12,16.37c0,0-3.93-20.91-34.12-16.37Z"/>
        <path class="cls-10" d="M961.02,418.89s41.92,9.1,12.55,35.7c0,0,12.01-17.57-12.55-35.7Z"/>
        <path class="cls-10" d="M959.86,420.16s23.2,36.07-16.37,34.12c0,0,20.91-3.93,16.37-34.12Z"/>
        <path class="cls-10" d="M958.27,420.43s-9.1,41.92-35.7,12.55c0,0,17.57,12.01,35.7-12.55Z"/>
        <path class="cls-10" d="M956.98,418.87s-36.07,23.2-34.12-16.37c0,0,3.93,20.91,34.12,16.37Z"/>
        <path class="cls-10" d="M956.71,417.28s-41.92-9.1-12.55-35.7c0,0-12.01,17.57,12.55,35.7Z"/>
      </g>
      <circle class="cls-6" cx="883.65" cy="417.93" r="7.53"/>
      <circle class="cls-6" cx="820.11" cy="505.68" r="7.53"/>
      <g>
        <circle class="cls-11" cx="1071.21" cy="937.7" r="17.44"/>
        <path class="cls-15" d="M1079.13,953.24c-8.58,4.38-19.08.97-23.46-7.61-4.38-8.58-.97-19.08,7.61-23.46s19.08-.97,23.46,7.61c4.38,8.58.97,19.08-7.61,23.46Z"/>
      </g>
      <g>
        <circle class="cls-11" cx="774.47" cy="948.06" r="17.44"/>
        <path class="cls-15" d="M782.39,963.6c-8.58,4.38-19.08.97-23.46-7.61-4.38-8.58-.97-19.08,7.61-23.46,8.58-4.38,19.08-.97,23.46,7.61,4.38,8.58.97,19.08-7.61,23.46Z"/>
      </g>
      <g>
        <circle class="cls-11" cx="916.52" cy="941.1" r="17.44"/>
        <path class="cls-15" d="M924.44,956.63c-8.58,4.38-19.08.97-23.46-7.61-4.38-8.58-.97-19.08,7.61-23.46,8.58-4.38,19.08-.97,23.46,7.61,4.38,8.58.97,19.08-7.61,23.46Z"/>
      </g>
      <path class="cls-10" d="M924.81,1009.68s-23.2-36.07,16.37-34.12c0,0-20.91,3.93-16.37,34.12Z"/>
      <path class="cls-10" d="M926.53,1009.61s9.1-41.92,35.7-12.55c0,0-17.57-12.01-35.7,12.55Z"/>
      <path class="cls-10" d="M923.37,1012.01s-36.07,23.2-34.12-16.37c0,0,3.93,20.91,34.12,16.37Z"/>
      <path class="cls-10" d="M923.09,1010.42s-41.92-9.1-12.55-35.7c0,0-12.01,17.57,12.55,35.7Z"/>
      <path class="cls-10" d="M1074.23,1024.78s-23.2-36.07,16.37-34.12c0,0-20.91,3.93-16.37,34.12Z"/>
      <path class="cls-10" d="M1072.51,1025.51s-41.92-9.1-12.55-35.7c0,0-12.01,17.57,12.55,35.7Z"/>
      <g>
        <path class="cls-10" d="M705.57,951s-23.2-36.07,16.37-34.12c0,0-20.91,3.93-16.37,34.12Z"/>
        <path class="cls-10" d="M707.28,950.93s9.1-41.92,35.7-12.55c0,0-17.57-12.01-35.7,12.55Z"/>
        <path class="cls-10" d="M708.61,951.87s36.07-23.2,34.12,16.37c0,0-3.93-20.91-34.12-16.37Z"/>
        <path class="cls-10" d="M708.16,953.36s41.92,9.1,12.55,35.7c0,0,12.01-17.57-12.55-35.7Z"/>
        <path class="cls-10" d="M707,954.62s23.2,36.07-16.37,34.12c0,0,20.91-3.93,16.37-34.12Z"/>
        <path class="cls-10" d="M705.41,954.9s-9.1,41.92-35.7,12.55c0,0,17.57,12.01,35.7-12.55Z"/>
        <path class="cls-10" d="M704.12,953.34s-36.07,23.2-34.12-16.37c0,0,3.93,20.91,34.12,16.37Z"/>
        <path class="cls-10" d="M703.85,951.74s-41.92-9.1-12.55-35.7c0,0-12.01,17.57,12.55,35.7Z"/>
      </g>
      <circle class="cls-6" cx="1071.21" cy="937.7" r="7.53"/>
      <circle class="cls-6" cx="774.47" cy="948.06" r="7.53"/>
      <g>
        <path class="cls-10" d="M847.62,944.04s-23.2-36.07,16.37-34.12c0,0-20.91,3.93-16.37,34.12Z"/>
        <path class="cls-10" d="M849.33,943.97s9.1-41.92,35.7-12.55c0,0-17.57-12.01-35.7,12.55Z"/>
        <path class="cls-10" d="M850.65,944.9s36.07-23.2,34.12,16.37c0,0-3.93-20.91-34.12-16.37Z"/>
        <path class="cls-10" d="M850.21,946.39s41.92,9.1,12.55,35.7c0,0,12.01-17.57-12.55-35.7Z"/>
        <path class="cls-10" d="M849.05,947.66s23.2,36.07-16.37,34.12c0,0,20.91-3.93,16.37-34.12Z"/>
        <path class="cls-10" d="M847.45,947.93s-9.1,41.92-35.7,12.55c0,0,17.57,12.01,35.7-12.55Z"/>
        <path class="cls-10" d="M846.17,946.37s-36.07,23.2-34.12-16.37c0,0,3.93,20.91,34.12,16.37Z"/>
        <path class="cls-10" d="M845.9,944.78s-41.92-9.1-12.55-35.7c0,0-12.01,17.57,12.55,35.7Z"/>
      </g>
      <g>
        <path class="cls-10" d="M991.3,939.7s-23.2-36.07,16.37-34.12c0,0-20.91,3.93-16.37,34.12Z"/>
        <path class="cls-10" d="M993.02,939.63s9.1-41.92,35.7-12.55c0,0-17.57-12.01-35.7,12.55Z"/>
        <path class="cls-10" d="M994.34,940.56s36.07-23.2,34.12,16.37c0,0-3.93-20.91-34.12-16.37Z"/>
        <path class="cls-10" d="M993.9,942.06s41.92,9.1,12.55,35.7c0,0,12.01-17.57-12.55-35.7Z"/>
        <path class="cls-10" d="M992.74,943.32s23.2,36.07-16.37,34.12c0,0,20.91-3.93,16.37-34.12Z"/>
        <path class="cls-10" d="M991.14,943.6s-9.1,41.92-35.7,12.55c0,0,17.57,12.01,35.7-12.55Z"/>
        <path class="cls-10" d="M989.86,942.04s-36.07,23.2-34.12-16.37c0,0,3.93,20.91,34.12,16.37Z"/>
        <path class="cls-10" d="M989.58,940.44s-41.92-9.1-12.55-35.7c0,0-12.01,17.57,12.55,35.7Z"/>
      </g>
      <circle class="cls-6" cx="916.52" cy="941.1" r="7.53"/>
      <path class="cls-3" d="M379.71,1185.22c-30.52-115.76,62.57-167.52,99.17-211.33l28.72-50.47s-87.92-323.11,122.47-347.87c0,0,139.75-15.17,171.5,113.18,0,0,14.19,60.06,5.39,125.69-6.71,50.07-18.07,109.19-18.07,109.19,0,0,30.33,36.3,47.56,50.27,17.23,13.98,115.86,76.96,93.12,210.27"/>
    </g>
    <path class="cls-1" d="M795.19,699.53c-2.96-5.89-6.25-11.3-10.02-16.62-5.01-7.07-9.76-14.34-14.88-21.31-8.11-11.05-17.41-20.67-28.67-27.95-10.23-6.61-21.49-11.18-33.17-13.82-23.54-5.32-48.38-2.77-71.06,5.51-11.33,4.14-22.58,9.69-32.4,17.09-10.19,7.67-18.6,17.9-25.53,28.93-10.25,16.32-17.71,34.58-23.2,53.42.56,3.65,1.18,7.31,1.86,11.02,0,0,0,.02.02.08.02.08.04.16.06.27,1.14,6.2,2.39,12.55,3.63,19.13,1.67,8.87,3.32,18.22,4.63,28.33,5.86,45.37,18.45,66.22,47.11,86.25,30.05,21.01,39.06,29.19,65.01,30.23,25.95-1.04,34.96-9.22,65.01-30.23,28.68-20.03,41.25-40.88,47.13-86.25,2.22-17.2,5.45-32.19,8.07-46.43,0-.02,0-.04.02-.08,1.43-7.79,2.68-15.37,3.5-22.98-2.46-4.86-4.73-9.83-7.12-14.59Z"/>
    <path class="cls-4" d="M557.77,734.68s16.54-101.63,114.42-107.39c68.6-4.03,118.02,56.45,127.55,104.17,0,0,2.37-4.04,2.57-17.34.2-13.3-29.72-123.01-131.41-118.97-101.69,4.03-116.13,116.37-116.13,116.37l3.01,23.16Z"/>
    <path class="cls-5" d="M531.79,876.83c3.84,15.76,13.89,28.92,24.18,41.08,11.02,13.03,22.15,26.34,35.46,37.12s28.78,18.16,44.91,23.42c16.07,5.24,32.91,8.27,49.82,8.6s33.12-1.95,48.79-7.29c2.02-.69,4.03-1.43,6.01-2.22.8-.32.05-.54-.44-.34-15.67,6.21-32.46,9.18-49.3,9.33-16.87.15-33.74-2.47-49.88-7.33-16-4.81-31.64-11.68-45.08-21.73s-24.52-22.95-35.45-35.66c-10.31-11.99-20.93-24.51-26.17-39.69-.64-1.85-1.19-3.73-1.65-5.63-.08-.31-1.29,0-1.21.33h0Z"/>
    <path class="cls-5" d="M666.91,950.57c22.42,4.12,45.5-.37,66.19-9.37s41.1-23.56,57.49-40.38c8.68-8.91,16.52-18.67,23.11-29.23.34-.55-.89-.53-1.15-.11-11.85,19.01-27.76,35.57-45.68,48.96s-39.5,24.5-62.13,28.88c-12.32,2.38-25.03,2.7-37.39.43-.57-.1-1.24.68-.43.83h0Z"/>
    <path class="cls-5" d="M805.93,708.86c1.39-20.53-.89-41.31-7.06-60.96-6.06-19.3-15.86-37.43-29-52.82-7.46-8.74-15.97-16.55-25.28-23.27-.4-.29-1.48.28-.95.66,16.48,11.9,30.28,27.26,40.46,44.84,10.11,17.46,16.6,36.94,19.4,56.9,1.61,11.51,1.99,23.17,1.21,34.76-.04.59,1.19.39,1.22-.11h0Z"/>
    <path class="cls-5" d="M553.27,714.09c-3.67-20.15-3.5-40.98.63-61.04,4.08-19.78,12.03-38.81,23.84-55.23,6.66-9.26,14.53-17.61,23.4-24.78.53-.43-.67-.43-.97-.19-15.81,12.78-28.29,29.29-36.8,47.71-8.57,18.54-13.15,38.85-13.85,59.24-.4,11.59.45,23.2,2.53,34.61.07.4,1.29.11,1.21-.33h0Z"/>
    <path class="cls-9" d="M683.71,799.12c-3.54,2.25-8.86,1.88-12.33-.6-.77-.55-3.38.07-2.31.84,4.58,3.28,12.23,3.4,16.8.5.45-.29.38-.69-.17-.9-.58-.22-1.5-.15-1.99.16"/>
    <path class="cls-9" d="M667.32,798.18c-2.8-1.32-5.94-2.01-9.07-2.25-.46-.03-1.05.14-1.39.44-.26.23-.32.55.03.74,1.44.83,3.28,1.17,4.97,1.14.53,0,1.24-.14,1.54-.6.28-.42-.24-.69-.65-.69-1.4.03-2.82-.25-4.01-.93-.46.39-.91.79-1.37,1.18,2.8.21,5.6.86,8.1,2.04.5.24,1.21.08,1.66-.18.33-.2.69-.66.19-.89"/>
    <path class="cls-9" d="M655.02,798.57c-3.09-.09-6.72-1.68-8.24-4.42-2.29-4.14-.16-9.06,3.7-11.7.42-.29.2-.66-.23-.77-.55-.14-1.21.1-1.65.4-3.36,2.31-5.54,6.05-5.04,9.94.47,3.63,3.43,6.16,7.13,7.22,1.1.31,2.27.52,3.43.56.47.01,1.31-.15,1.54-.58.23-.44-.2-.63-.64-.64"/>
    <path class="cls-9" d="M687.38,798.18c2.8-1.32,5.94-2.01,9.07-2.25.46-.03,1.05.14,1.39.44.26.23.32.55-.03.74-1.44.83-3.28,1.17-4.97,1.14-.53,0-1.24-.14-1.54-.6-.28-.42.24-.69.65-.69,1.4.03,2.82-.25,4.01-.93.46.39.91.79,1.37,1.18-2.8.21-5.6.86-8.1,2.04-.5.24-1.21.08-1.66-.18-.33-.2-.69-.66-.19-.89"/>
    <path class="cls-9" d="M699.68,798.57c3.09-.09,6.72-1.68,8.24-4.42,2.29-4.14.16-9.06-3.7-11.7-.42-.29-.2-.66.23-.77.55-.14,1.21.1,1.65.4,3.36,2.31,5.54,6.05,5.04,9.94-.47,3.63-3.43,6.16-7.13,7.22-1.1.31-2.27.52-3.43.56-.47.01-1.31-.15-1.54-.58-.23-.44.2-.63.64-.64"/>
    <path class="cls-16" d="M706.17,706.78c.17,2.4.35,4.81.53,7.23.14,1.84.28,3.67.43,5.5,6.58-2.01,12.23-3.41,16.5-4.37,9.03-2.03,13.66-3.03,19.02-2.58,5.63.47,10.49,2.06,12.38,2.69,2.66.89,4.44,1.44,6.6,2.67,4.7,2.68,6.77,5.92,7.49,5.58.65-.31-.65-3.2-.79-3.49-3.33-7.26-9.92-11.24-10.42-11.56,0,0-4.96-3.09-12.69-4.35-5.33-.87-19.91-.76-39.06,2.69"/>
    <path class="cls-16" d="M650.14,738.64s-16.52,12.01-24.96,12.79c-12.32,1.13-27.51-5.18-31.87-10.83,0,0,20.09,9.44,28.75,8.4,8.28-.99,28.08-10.36,28.08-10.36Z"/>
    <path class="cls-16" d="M647.23,705.02c-.02,2.41-.04,4.82-.06,7.25-.02,1.84-.04,3.68-.07,5.52-6.69-1.58-12.42-2.62-16.75-3.3-9.15-1.44-13.83-2.15-19.15-1.35-5.59.83-10.34,2.73-12.18,3.48-2.59,1.06-4.34,1.72-6.42,3.09-4.52,2.98-6.37,6.35-7.11,6.05-.67-.27.45-3.23.56-3.54,2.85-7.46,9.17-11.85,9.65-12.2,0,0,4.75-3.41,12.38-5.16,5.26-1.21,19.82-2.04,39.15.16"/>
    <path class="cls-16" d="M706.88,738.38s16.52,12.01,24.96,12.79c12.32,1.13,27.51-5.18,31.87-10.83,0,0-20.09,9.44-28.75,8.4-8.28-.99-28.08-10.36-28.08-10.36Z"/>
    <path class="cls-2" d="M678.05,823.36c-17.61,0-39.93.36-39.93.36,0,0-.9,33.36,39.94,33.36s41.35-33.88,41.35-33.88c0,0-23.75.16-41.36.16Z"/>
    <path class="cls-9" d="M678.23,823.36c-8.37,0-37.27.49-37.27.49,0,0,6.25,15.26,36.54,15.26,32.84,0,38.15-16.61,38.15-16.61l-37.42.85Z"/>
    <path class="cls-7" d="M678.59,824.58c-8.37,0-33.86-1.38-33.86-1.38,0,0,9.17,8.92,34.3,8.92s33.1-8.66,33.1-8.66l-33.54,1.12Z"/>
    <path class="cls-2" d="M706.21,818.48c-3.41-.95-6.9-1.09-10.41-1.35-8.57-.64-14.02,2.65-17.75,2.65s-9.17-3.29-17.75-2.65c-2.9.22-5.69,1.37-8.45,2.22-3.8,1.17-5.02,1.43-10.13,3.16-1.29.44-2.3.83-3.61,1.22,6.39,2.21,16.88,4.25,39.94,4.25,7.37,0,14.76.04,22.11-.56,3.7-.31,7.39-.77,11.04-1.51,3.41-.69,5.33-.54,8.2-2.69-.87-.44-3.92-1.29-4.88-1.44l-8.32-3.28Z"/>
  </g>
</svg>