<?xml version="1.0" encoding="UTF-8"?>
<svg id="Layer_3" data-name="Layer 3" xmlns="http://www.w3.org/2000/svg" xmlns:xlink="http://www.w3.org/1999/xlink" viewBox="0 0 1163.19 1163.19">
  <defs>
    <style>
      .cls-1 {
        fill: none;
      }

      .cls-2 {
        fill: #b8e0ee;
      }

      .cls-3 {
        fill: #dd813b;
      }

      .cls-4 {
        fill: #231f20;
      }

      .cls-5 {
        fill: #a2a2a3;
      }

      .cls-6 {
        fill: #a38066;
      }

      .cls-7 {
        fill: #192b77;
      }

      .cls-8 {
        fill: #e99023;
      }

      .cls-9 {
        fill: #0f0a09;
      }

      .cls-10 {
        fill: #080707;
      }

      .cls-11 {
        fill: #a55525;
      }

      .cls-12 {
        fill: #fcf1d4;
      }

      .cls-13 {
        fill: #dfc38a;
      }

      .cls-14 {
        clip-path: url(#clippath-1);
      }

      .cls-15 {
        fill: #6b3825;
      }

      .cls-16 {
        fill: #f9f8f7;
      }

      .cls-17 {
        fill: #fff;
      }

      .cls-18 {
        fill: #816227;
      }

      .cls-19 {
        fill: #7f7f7f;
      }

      .cls-20 {
        fill: #141211;
      }

      .cls-21 {
        fill: #21572b;
      }

      .cls-22 {
        fill: #38211a;
      }

      .cls-23 {
        fill: #ac4e25;
      }

      .cls-24 {
        fill: #965549;
      }

      .cls-25 {
        fill: #f0edf6;
      }

      .cls-26 {
        clip-path: url(#clippath);
      }

      .cls-27 {
        fill: #af6b4e;
      }

      .cls-28 {
        fill: #4f2963;
      }

      .cls-29 {
        fill: #4f2e25;
      }
    </style>
    <clipPath id="clippath">
      <circle class="cls-1" cx="581.59" cy="581.59" r="581.59"/>
    </clipPath>
    <clipPath id="clippath-1">
      <path class="cls-1" d="M264.51,852.92c1.39.03,2.58.93,2.75,2.14.19,1.33-.92,2.54-2.47,2.7-.41.06-1.51.64-2.17.98-1.05.55-2.14,1.11-3.29,1.44-3.82,1.09-8.18,1.65-13.33,1.7-4.27.05-7.86-.66-11.33-1.34-1.33-.26-2.69-.53-4.13-.76-5.21-.84-11.67-.32-13.55,2.82-1.31,2.18-1.21,5.09.23,6.77.93,1.08.66,2.6-.6,3.4-1.26.8-3.03.56-3.96-.52-2.71-3.16-3-8.05-.7-11.88,3.45-5.76,12.74-6.49,19.64-5.37,1.51.25,2.94.53,4.34.8,3.3.65,6.41,1.27,10,1.22,4.62-.05,8.31-.51,11.6-1.46.55-.16,1.36-.58,2.15-.99,1.41-.73,2.86-1.49,4.43-1.65.14-.01.27-.02.4-.02Z"/>
    </clipPath>
  </defs>
  <g class="cls-26">
    <circle class="cls-2" cx="581.59" cy="582.53" r="581.59"/>
    <path class="cls-27" d="M659.2,637.83c28.9-53.05,25.42-205.76,25.42-205.76-6.42,1.34-62.55,20.05-79.73,58.34-17.18,38.29-19.43,202.36-29.31,236.59-10.81,35.26-16.02,65.01-25.41,109.62-2.45,11.64-.65,4.99-1.39,16.86l87.97-.99"/>
    <path class="cls-27" d="M846.02,248.36s-6.99,43.46,20.73,100.27c2.71,5.55,30.74,15.83,30.74,15.83l-7.24,10.3c-6.25,8.89-60.11,54.66-69.63,59.91-47.35,26.12-76.25,1.83-102.5-26.1l10.19-22s7.57-8.37,8.3-15.62c.73-7.25-13.9-61.58-13.9-61.58"/>
    <path class="cls-16" d="M628.88,691.26c-.23,12.85-.11,10.18-.34,23.04-.38,21.58-.76,43.16-1.15,64.74v84.17l13.79,1.69c5.29,28.8,38.48,28.04,70.06,24.92,31.58-3.13,81.72-2.91,125.34-9.71,11.79-1.84,28.76-17.74,47.44-10.47,22.74-2.82,45.48,13.62,67.82,8.52,21.78-4.97,43.41-11.19,64.27-19.28,3.25-9.14,10.98-18.26,9.2-27.39l-13.55-69.64.89-162.21-39.51.42s42.63,44,42.63,43.99c35.49-93.89,35.53-142.98,7.9-209.43-11.31-27.21-38.27-37.69-62.39-51.36,0,0-61.83-21.67-64.56-21.84l-28.51-13.48c-14.92,24.3-50.04,68.49-86.52,68.6-18.43.06-46.42,3.75-49.66-19.55-.64-4.6-.37-9.33.03-13.93.15-1.76,1.53-6.35-.16-7.38-1.68-1.03-12.19,5.11-14.15,5.98-20.08,8.97-51.08,28.22-70.71,38.04-14.11,7.06-22.88,24.76-32.12,38.45-17.82,26.43-32.57,112.21-32.57,112.21,0,0-18.28,63.17-18.3,63.23-1,3.36,30.19,20.17,60.21,22.13M773.64,874.37c-6.11,0-6.1-9.48,0-9.48s6.1,9.48,0,9.48Z"/>
    <path class="cls-19" d="M613.14,533.53c0,15.25,1.53,30.52,2.92,45.69,1.59,17.35,3.4,34.69,4.66,52.07.57,7.83,1.06,15.68,1.06,23.53l1.78-.76c-9.41-.3-18.96-2.03-28-4.56-7.74-2.17-15.35-5.14-22.11-9.52-1.67-1.08-3.28-2.25-4.81-3.51-.76-.63-1.5-1.28-2.22-1.95-.29-.27-1.19-.92-1.25-1.2-.1-.44.32-1.38.42-1.81l.81-3.52c1.19-5.16,2.38-10.32,3.57-15.48l-2.1.56c10.88,5.95,22.68,10.83,34.62,14.14,4.9,1.36,9.89,2.41,14.95,2.88.46.04,1.19-.09,1.54-.41.28-.26.34-.48-.14-.53-8.93-.83-17.66-3.46-26.03-6.57-6.59-2.45-13.05-5.28-19.33-8.43-1.2-.6-2.39-1.2-3.56-1.85-.42-.23-1.96-.01-2.1.56-1.05,4.56-2.1,9.12-3.15,13.68l-1.55,6.71c-.03.13-.13.34-.11.48.07.51.88,1.07,1.26,1.43,1.47,1.4,3.04,2.69,4.68,3.88,12.21,8.9,27.72,12.92,42.49,14.94,3.55.49,7.14.9,10.72,1.02.42.01,1.78-.15,1.78-.76,0-15.25-1.53-30.52-2.92-45.69-1.59-17.35-3.4-34.69-4.66-52.07-.57-7.83-1.06-15.68-1.06-23.53,0-.4-2.17-.08-2.17.58h0Z"/>
    <path class="cls-27" d="M832.18,124.57s-18.74-30.72-60.9-32.42c-31.82-1.28-89.44,15.4-109.15,31.72-28.55,23.64-27.48,59.16-27.48,59.16l197.53-58.46Z"/>
    <path class="cls-5" d="M803.76,129.8c11.1-5,16.99-12.55,29.47-9.45,1.03.26,3.47,1.47,4.4,1.83.77.29,1.21.98,1.59,1.63,9.16,15.41,21.2,30.38,26.72,47.25,2.35,7.18,4.37,14.57,4.19,22.21-.17,6.89,1.73,14.43-.22,21.24-1.71,5.97-5.66,11.94-7.37,17.91-.64,2.23-1.32,4.54-2.99,6.39-4.88,5.43-14.55,3.69-20.57.07-12.92-7.76-20.13-20.96-23.67-34.53-3.53-13.57-3.85-27.81-5.7-41.75-1.28-9.61-3.29-19.1-6.02-28.38"/>
    <g>
      <path class="cls-27" d="M836.2,269.05c-5.47-16.85-10.35-27.87-9.94-45.75-6.7-2.45-4.39-17.33-5.66-22.25-2.05-7.94-1.74-70.57-19.03-77.25,0,0-3.85,2.55-8.94,5-.37-2.36-4.18-10.85-7.69-10.02-12.9,3.06-23.08,15.03-36.27,15.29-13.74.27-29.66-9.15-43.28-7.25-26.07,3.64-34.6,16.16-54.23,33.72-1.86,1.67-14.29,16.98-16.18,15.92,0,.05-.02.08-.01.13,0,0-3.01,32.48,2.28,47.53,5.3,15.05,16.3,40.08,18.84,46.51,2.2,5.57,4.56,14.69,5.76,20.83,2.69,13.74,3.75,17.25,11.25,29.51,7.26,11.85,12.63,17.71,23.43,26.47,11.26,9.13,15.78,14.96,26.68,25.19,10.78,10.12,24.15,5.44,34.15,2.75,27.91-7.49,56.98-36.81,68.84-60.26l12.81-37.58c-.96-2.82-1.91-5.65-2.83-8.49Z"/>
      <path class="cls-27" d="M852.47,198.72l-3.54-2.87c-6.19-2.54-16.9-.24-18.79,7.61-.41,3.3-1.73,7.35-2.14,10.65-.27,3.57-1.9,6.37-3.18,9.77.07,3.11.28,6.23.64,9.32,1.76,15.28,6.35,30.06,11.27,44.61l.41-1.21.24-7.58c12.56,9.89,24.9-4.13,20.83-22.06,2.31-10.18,4.01-41.14-5.74-48.25Z"/>
    </g>
    <path class="cls-29" d="M835.59,235.87c1.11-6.87,2.5-13.94,5.42-20.3.72-1.58,1.55-3.12,2.58-4.52.32-.43.65-.83,1.04-1.22.14-.14.29-.28.44-.42.3-.28.08-.09.27-.23.13-.09.26-.17.38-.26.27-.19-.01-.05.04-.03.12.04.44-.14-.06,0l-1.17-.06c.2.14.03-.01.13.1.21.23.48.42.71.64.8.8,1.5,1.7,2.11,2.65,2.26,3.54,3.13,7.79,3.29,11.94.03.91,2.54.38,2.5-.67-.19-4.89-1.43-9.91-4.55-13.78-.98-1.21-2.15-2.79-3.85-2.07-1.06.44-1.97,1.29-2.72,2.15-1.88,2.14-3.16,4.75-4.22,7.36-2.46,6.07-3.81,12.56-4.84,19-.17,1.08,2.36.68,2.51-.27h0Z"/>
    <path class="cls-29" d="M840.09,239.73c1.04-.35,2.01,1.28,2.35,2.12.64,1.57.85,3.31,1.09,4.98.27,1.91.29,6.86,3.2,6.67,1.76-.12,2.6-1.12,2.91-2.73.49-2.52.34-5.19.14-7.73-.28-3.54-.78-6.61-2.17-9.85-1.53-3.57-4.04-7.99-8.3-8.52-.57-.07-1.23.04-1.75.32-.16.09-.9.58-.3.65,3.73.47,6.02,4.24,7.47,7.35,1.23,2.64,1.95,5.16,2.29,8.04s.55,5.59.37,8.37c-.06.94-.14,1.95-.49,2.84-.07.17-.33.5-.35.64l1.47-.39s-.1-.05-.14-.08c-.09-.12-.28-.21-.39-.33-.79-.89-.94-2.43-1.13-3.55-.27-1.63-.43-3.28-.75-4.9-.28-1.43-.66-3.11-1.75-4.16-1.25-1.2-3.16-.81-4.64-.31-.26.09-.98.35-.74.71.21.33,1.38-.06,1.61-.14h0Z"/>
    <path class="cls-29" d="M662.51,205.91s19.99-2.53,35.9-5.87c15.91-3.34,29.85-13,29.85-13,0,0-17.47,8.65-30.04,11.35-12.57,2.7-35.71,7.52-35.71,7.52Z"/>
    <path class="cls-17" d="M762.84,307.44s-14.29,8.4-26.18,12.43c-11.89,4.03-31.24,6.51-31.24,6.51,0,0-.23-4.95,21.32-12.26,21.55-7.31,36.09-6.69,36.09-6.69Z"/>
    <path class="cls-5" d="M719.65,209.37c16.09-10.35,28.18-14.71,33.3-15.56,4.02-.67,8.14-.52,12.22.24,0,0,12.26,5.94,14.05,7.67,1.79,1.74-6.21,1.04-6.21,1.04-1.65.09-2.84-.09-4.47.22-8.93,1.71-17.81,2.13-26.08,6.35-7.09,3.57-15.82,11.44-22.09,16.73-1.23-3.45-2.6-10.93-4.08-14.23"/>
    <path class="cls-5" d="M679.38,221.25c-17.09,2.38-28.01,8.96-32.36,11.39-2.1,1.17-3.67,3.02-5.07,4.39.15,1.31.42,2.58.97,3.79.42.92,1.13,2.85,1.8,3.6,6.09-2.67,13.77-6.06,19.59-7.43,7.09-1.67,11.97-2.45,19.23-2.41-.95-3.46-3.22-9.86-4.16-13.33Z"/>
    <path class="cls-10" d="M729.13,315.01c6-1.64,31.41-8.76,31.41-8.76,0,0-4.4,19.85-26.09,25.79-23.51,6.44-32.7-10.09-32.7-10.09l27.38-6.94Z"/>
    <path class="cls-25" d="M729.12,315.98c6-1.64,23.96-7.66,23.96-7.66,0,0-4.75,8.43-22.74,13.36-17.99,4.93-25.46.05-25.46.05l24.24-5.75Z"/>
    <path class="cls-24" d="M697.28,322.08c.59-.33,2.18-.28,4.88-1.52,4.87-2.24,6.7-4.69,10.22-5.96,6.01-2.16,10.58-.78,13.25-1.51s5.9-4.24,12.17-5.45c3.67-.71,11.99-.2,17.08-1.13,3.05-.56,10.16-1.57,10.84-1.59.95-.02-1.97,4.28-35.53,13.47-33.55,9.19-33.73,4.14-32.9,3.68Z"/>
    <path class="cls-27" d="M720.73,357.67c.28-.11.54-.28.74-.5,3.85-4.15,3.79-5.96,5.91-7.04.49-.25.71-.5,2.26-1.11,6.25-2.47,10.02-4.09,30.02,2.77.4.14,22.42-8.22,22.85-8.37l10.38-8.38c1.67-1.69,36.66-49.41,36.66-49.41.37-1.4,6.18-12.14,6.21-13.41.12-.1.23-.21.37-.3.05-.03.15-.11.25-.18.04.07.09.17.12.22.2.49.32,1.02.42,1.54.43,2.25.51,4.54.36,6.83-.23,3.51-.02,6.99-.12,10.49-.04,1.24-.13,2.47-.27,3.69-4.25,4.33-15.31,50.05-42.41,65.69-1.1.6-4.56,2.54-14.27,5.76-18.23,6.05-32.33,15.5-51.92,14.57-5.11-.24-9.78-2.74-12.77-6.73-8.53-11.38-37.33-56.81-44.87-75.05,7.71,9.77,30.87,39.46,42.09,53.71.34.43,6.77,5.36,7.4,5.39"/>
    <path class="cls-15" d="M728.97,315.33c14.58-3.49,37.77-10.95,37.77-10.95,0,0,4.04,35.32-29.76,43.42-33.79,8.1-36.89-26.88-36.89-26.88,0,0,14.3-2.1,28.88-5.59Z"/>
    <path class="cls-10" d="M728.83,315.36c6.93-1.66,30.52-8.46,30.52-8.46,0,0-.13,21.21-25.2,27.22-27.18,6.52-31.33-12.78-31.33-12.78l26-5.97Z"/>
    <path class="cls-25" d="M728.79,316.52c6.93-1.66,27.73-7.94,27.73-7.94,0,0-5.69,9.75-26.48,14.74-20.79,4.98-29.23-1.14-29.23-1.14l27.99-5.66Z"/>
    <path class="cls-15" d="M692.61,321.66c.69-.37.73-.76,4.1-1.89,5.61-1.89,8.82-4.33,12.9-5.66,6.96-2.27,12.16-.43,15.25-1.17,3.08-.74,6.89-4.75,14.12-5.88,4.24-.66,14.9-1.55,20.76-2.41,3.52-.52,7.21-2.88,8-2.87,1.09.02.98,8.35-37.8,17.65-38.78,9.3-38.3,2.74-37.34,2.23Z"/>
    <path class="cls-5" d="M727.37,301.45l2.32,6.15c.36.94,1.27,1.55,2.27,1.52,6.9-.24,37.98-7.81,38.27-1.66.04.86,1.65,5.86,1.79,5.81l1.2-2.14c1.23-4.42-1.62-12.65-3.93-13.11-7.05-1.43-13.27-2.2-17.07-2.41-4.75-.27-17.58,1.64-23.08,2.67-1.45.27-2.29,1.8-1.76,3.18Z"/>
    <path class="cls-5" d="M719.67,303.25l1.11,6.48c.17,1-.18,1.96-.87,2.4-4.75,3.07-28.45,10.52-25.97,16.03.35.77.57,4.27.46,4.29l-1.53-.5c-1.85.3-3.86-11.55-2.5-13.06,4.13-4.6,7.98-8.23,10.45-10.23,3.08-2.49,12.15-5.65,16.3-7.37,1.09-.45,2.32.48,2.56,1.94Z"/>
    <path class="cls-22" d="M751.75,376.04s46.78-12.99,56.22-23c9.44-10.01,18.84-25.63,24.9-47.05,0,0-4.56,45.97-28.87,56.64-32.06,14.06-50.66,17.68-50.66,17.68l-1.58-4.27Z"/>
    <path class="cls-20" d="M669.1,247.46c-2.68-.61-5.47,1.18-6.66,2.96-.28.42-.72,1.58-.77,3.25-.07,2.14,1.31,4.18,2.92,5.22,2.14,1.39,5,.98,6.87-.56,2.54-2.1,2.57-5.82,1.19-8.16-.25-.43-1.38-2.22-3.55-2.71"/>
    <path class="cls-20" d="M691.68,250.46s-13.87-6.06-19.91-5.11c-8.81,1.39-18.15,8.91-20.08,13.96,0,0,12.14-10.77,18.38-11.56,5.96-.76,21.6,2.71,21.6,2.71Z"/>
    <path class="cls-20" d="M741.06,229.35c2.04-1.84,5.93-2.49,7.84-1.53.45.23,1.67.89,2.53,2.33,1.1,1.83.9,4.29,0,5.98-1.19,2.26-3.88,3.3-6.27,2.86-3.24-.59-5.09-3.82-5.03-6.54.01-.5-.69-1.27.96-2.76"/>
    <path class="cls-20" d="M727.11,240.49s10.84-11.65,17.19-13.51c9.26-2.71,21.82-.15,26,3.52,0,0-16.78-4.22-23.25-2.14-6.18,1.99-19.94,12.12-19.94,12.12Z"/>
    <g>
      <path d="M713.24,295.08c3.56.86,8.26-.72,10.95-3.46.6-.61,3.05-.77,2.21.08-3.55,3.62-10.39,5.57-14.97,4.46-.46-.11-.46-.44,0-.73.48-.31,1.32-.48,1.81-.36"/>
      <path d="M727.54,290.47c1.87-1.52,4.11-2.63,6.44-3.4.34-.11.82-.09,1.13.07.24.13.34.36.12.57-.94.9-2.27,1.5-3.55,1.79-.4.09-.96.13-1.27-.16-.29-.27.05-.57.36-.64,1.06-.24,2.09-.72,2.86-1.46.42.21.84.42,1.26.64-2.08.69-4.08,1.7-5.75,3.06-.33.27-.9.29-1.29.17-.29-.09-.65-.37-.31-.64"/>
      <path d="M737.02,288.43c2.75-.76,5.71-2.76,6.56-5.18,1.28-3.64-1.87-8.13-5.82-9.27-.43-.12-.3-.46.06-.63.47-.23,1.1-.19,1.55-.06,3.45,1,6.41,4.59,6.69,7.64.26,2.85-1.92,5.43-5.04,7.04-.93.48-1.94.9-2.97,1.18-.42.11-1.2.18-1.49-.1-.29-.28.06-.52.45-.63"/>
      <path d="M707.81,294.94c.07-.35-.26-.49-.48-.43-.74.21-1.56.19-2.32-.17-.17.36-.34.72-.51,1.08,1.54-.21,3.16-.09,4.72.47.31.11.67-.1.85-.36.14-.19.25-.59-.07-.7"/>
      <path d="M710.01,294.82c-1.75-.62-3.56-.73-5.28-.5-.25.04-.54.24-.66.52-.1.21-.07.46.15.56"/>
      <path d="M702.15,296.74c-1.82.38-4.24-.3-5.64-2.15-2.11-2.8-1.79-6.83-.04-9.39.19-.28,0-.53-.28-.55-.35-.03-.69.25-.89.54-1.53,2.23-2.1,5.38-1.07,8.25.96,2.68,3.16,4.17,5.51,4.43.7.08,1.42.07,2.1-.07.28-.06.74-.31.79-.66.05-.36-.23-.45-.49-.39"/>
    </g>
    <path class="cls-5" d="M715.19,373.55c-.39-.13.32.18.45.26-.09-.06.37.32.47.43.5.53.94,1.14,1.29,1.78.81,1.48,1.37,3.08,2.2,4.56,2.11,3.71,6.31,4.93,10.33,3.91,2.09-.53,4.31-1.78,5.34-3.76.21-.4.4-1.03.52-1.31.43-.96,1.1-.82-2.06.23,3.18-1.07-2.21,1.25-2.63.7.08.11.29.17.39.26s.32.3.57.55c1.2,1.19,2.3,2.5,3.89,3.18,2.26.98,4.71,1.03,7.1.48,4.48-1.03,8.52-4.97,7.55-9.84l-7.76,3.44c4.34,2.62,9.35,4.33,14.38,2.67,4.04-1.33,8.83-5.17,7.42-9.99l-7.76,3.44c1.74,1.33,3.48,2.53,5.55,3.29,2.34.87,4.89.88,7.32.36s4.93-1.92,6.43-4.04c.51-.72.85-1.51,1.18-2.32.18-.44.36-.88.57-1.3.09-.17.18-.34.28-.5.18-.27.06.18.13-.14l.13-.13c-.3.35-.71.53-1.22.54l-1.01.34-1.66-.2c-.13.02-.23-.37-.11-.07.06.14.23.28.32.41.17.24.03.02,0-.04.07.12.12.25.17.38.15.34.28.68.44,1.02.82,1.79,1.94,2.92,3.98,3.21,6.13.87,9.23-4.79,12.41-8.92s6.34-8.24,9.51-12.36l-8.46.19c-.8,2.16-1.5,4.37-2.09,6.59-.63,2.39-2.16,7,.58,8.63,2.38,1.41,5.8.27,7.88-1.19,1.35-.95,2.5-2.15,3.57-3.39,2.67-3.1,5.04-6.48,7.32-9.87,1.45-2.15,2.87-4.33,4.23-6.54,1.08-1.76-.94-2.96-2.48-3.02-2.03-.09-4.58.66-5.71,2.5-2.79,4.54-5.76,9.02-9.01,13.24-.1.14-.21.27-.31.41.49-.63.12-.16,0,0-.23.28-.46.57-.69.85-.51.62-1.04,1.22-1.6,1.8-.22.23-.44.45-.67.67-.08.08-.17.16-.26.24-.41.4-.36-.02.29-.22-.17.05-.42.29-.56.4-.21.17-1.14.47.66-.36-.56.26,1.3-.39.71-.24,1.11-.28,3.22-.31,3.87.51-.22-.28.11.67.15.3,0-.05-.06-.16-.06-.21-.02-.2-.05-.43-.09-.64.15.86.03-.1.06-.42.13-1.4.46-2.78.81-4.13.6-2.3,1.33-4.58,2.15-6.82.65-1.77-2.28-2.32-3.31-2.29-2.03.05-3.91.87-5.15,2.48-2.41,3.14-4.83,6.28-7.24,9.42l-3.62,4.71-1.66,2.16c-.2.26-.38.51-.54.69-.11.14-.23.27-.36.39.43-.35.91-.6,1.45-.76l2.29-.24c.33,0,.65.35.92.36.26.01-.04-.05-.17-.28-.39-.69.11.27-.09-.18-.09-.21-.18-.42-.27-.63-.41-.95-.83-1.95-1.61-2.66-3.11-2.83-8.69-1.11-11.22,1.71-1.03,1.15-1.53,2.42-2.14,3.8-.18.4-.7,1.16-.7,1.32-.16.16-.17.17-.01.03.13-.13.29-.22.47-.28-.61.36.08.05.37-.08.46-.21-.55-.08.26-.01-.09,0-1.01-.14-.59-.04s-.54-.18-.62-.21c.21.08-.53-.24-.56-.26-1.35-.69-2.56-1.61-3.76-2.53-1.28-.98-3.91-.47-5.22.16-1.13.55-2.99,1.76-2.54,3.28.28.95.12,1.58-.32,2.33l-.19.28c.15-.2.15-.22,0-.04-.08.09-.16.17-.24.24-.2.18-.17.16.11-.08l-.29.2c.42-.21.49-.24.21-.11-.58.21,1.07-.15,0,.02.49-.08.61,0,.08-.04.73.05-.6-.07-.6-.07.37.05-.21-.06-.28-.08-.35-.09-.7-.19-1.04-.31-1.28-.45-2.53-1.2-3.71-1.91-1.44-.87-3.78-.54-5.22.16-1.22.59-2.85,1.7-2.54,3.28.13.65.08,1.4-.13,1.94-.04.11-.33.64-.5.84.18-.25.14-.23-.13.07.12-.13.26-.23.43-.29.29-.14.24-.12-.14.06.29-.15.6-.24.92-.28.51,0,.52,0,.03-.02.39.07.37.05-.07-.05.46.25-.47-.27-.48-.28-.07-.05-.53-.49-.71-.68-1.33-1.35-2.64-2.84-4.52-3.39-2.94-.85-6.71.33-8.5,2.85-.47.66-.84,1.56-1.01,2.12-.22.37-.22.39,0,.07.27-.27.6-.46.98-.56.39-.23.8-.37,1.25-.39.6.01.66,0,.19-.02.47.08.49.07.07-.03.32.15.3.14-.05-.03-.07-.04-.65-.47-.45-.29-.56-.48-1.03-1.17-1.39-1.82-.92-1.63-1.48-3.42-2.47-5.01-1.14-1.84-2.78-3.08-4.83-3.76s-4.74.2-6.15,1.65-.85,2.96.95,3.56h0Z"/>
    <path class="cls-13" d="M859.79,157.45s-103.12-72.46-214.66-12.68l22.21-65.71s43.51-25.62,104.9-18.85c61.39,6.77,73.12,33.51,73.12,33.51l14.42,63.72Z"/>
    <path class="cls-18" d="M852.18,116.22c-5.79-3.06-11.75-5.81-17.73-8.47-13.16-5.86-26.64-11.09-40.46-15.2-7.54-2.24-15.19-4.13-22.94-5.45s-15.64-1.84-23.56-1.71c-18.04.28-36.1,2.97-53.61,7.25-7.18,1.75-14.31,3.81-21.25,6.36-4.73,1.74-9.61,3.65-13.78,6.52-.68.47-1.33.97-1.94,1.53-.38.35-.16.77.25.92.5.19,1.16-.07,1.54-.41,3.1-2.83,7.42-4.51,11.25-6.06,6.39-2.59,13.02-4.61,19.68-6.37,16.92-4.49,34.39-7.34,51.89-8.14,8.07-.37,16.12-.25,24.14.84s15.28,2.76,22.75,4.83c14.05,3.89,27.76,9.03,41.12,14.83,7,3.04,13.86,6.33,20.68,9.74.1.05.19.1.29.15.74.39,2.69-.64,1.7-1.16h0Z"/>
    <path class="cls-18" d="M852.52,127.37c-2.38.32-4.71.94-6.91,1.92-1.96.87-4.23,1.98-5.67,3.62-1,1.14-1.34,3.02.52,3.42.92.2,3.1-.17,2.96-1.51-.07-.69-1.4-1.45-1.9-1.92-.87-.82-1.69-1.69-2.46-2.6-1.55-1.83-2.9-3.84-4-5.98-.52-1.01-.98-2.04-1.39-3.09-.19-.5-.37-1-.54-1.5-.08-.25-.15-.51-.24-.76l-.11-.38c-.22-.3-.2-.26.08.13.24,1.36-.59,2.01-1.83,2.3-1.41.33-2.86.54-4.28.81-1.53.29-3.05.57-4.58.86-1.22.23-2.48.41-3.62.92-1.8.8-3.45,2.83-2.12,4.75.43.63,1.9.02,2.1-.56,1.43-4.23-.87-8.3-2.64-12.04-.76-1.6-1.61-3.24-1.74-5.03-.03-.43-.05-.86-.04-1.28,0-.21.19-.84.11-1.03-.03-.07-1.38.38-1.34.6.02.1.24.31.3.41.22.32.41.65.58,1l.4-.64c-4.37,3.13-10.01,3.33-14.9,5.27-1.93.77-5.01,2.11-5.85,4.19-.88,2.2,2.15,2.95,3.44,1.58.1-.1.28-.32.21-.49-1.48-3.35-2.96-6.7-4.44-10.06-.74-1.68-1.48-3.35-2.22-5.03-.37-.84-.75-1.67-1.11-2.51-.12-.28-.25-.55-.33-.84-.02-.08-.16-1.12-.13-1.09l-.5-.1c.19.1.33.24.43.41.18.26.28.56.25.88-.09.87-.99,1.46-1.64,1.92-1.45,1.03-2.94,2.02-4.41,3.03-2.94,2.02-5.87,4.04-8.81,6.07-1.21.83.64,1.2,1.36.71,3.87-2.67,7.74-5.33,11.61-8,1.34-.93,3.43-1.95,3.96-3.64.41-1.3-.53-2.58-1.87-2.68s-2.6.75-2.6,2.12c0,.88.45,1.7.8,2.48.5,1.14,1.01,2.29,1.51,3.43,1.98,4.49,3.97,8.99,5.95,13.48l.21-.49c.72,0,.87-.15.43-.43-.16-.38-.11-.74.13-1.08.3-.5.88-.9,1.34-1.23.82-.58,1.7-1.05,2.62-1.45,1.73-.74,3.56-1.21,5.38-1.67,3.66-.93,7.39-1.83,10.51-4.06.16-.11.53-.39.4-.64-.62-1.24-1.93-3.32-3.52-1.81-.93.89-.55,3.39-.28,4.49,1.28,5.2,6.14,9.83,4.21,15.53l2.1-.56c-.73-1.05-.09-2.41.98-2.92s2.48-.61,3.67-.84c2.47-.46,4.94-.92,7.41-1.39,1.63-.31,3.54-.79,4.35-2.41.66-1.32.08-2.76-1.43-2.93-1.1-.13-2.92.42-2.92,1.78,0,.86.62,2.04.93,2.84.38,1,.8,1.97,1.28,2.92,1.83,3.68,4.33,7.02,7.39,9.76.17.15.4.4.6.52s.98.48.96.23c0,0-.27-.22-.32-.3-.19-.34-.02-.84.16-1.16.62-1.1,2.08-1.83,3.14-2.43,2.35-1.34,4.94-2.17,7.61-2.53.36-.05,1.2-.28,1.23-.76s-.58-.56-.95-.51h0Z"/>
    <path class="cls-18" d="M774.58,113.05c-1.08,0-2.21.48-3.17.92-.69.32-2.05.89-2.29,1.72-.44,1.55,4.07,1.95,4.09-.02,0-.91-.66-1.92-1.09-2.68-.74-1.32-1.6-2.58-2.46-3.82-1.99-2.84-4.25-5.44-6.36-8.18-.64-.83-1.24-1.82-1.27-2.9-.02-.74.26-2.44,1.2-1.48,1.06,1.08-.2,1.86-1.14,2.32-1.34.64-2.67,1.28-4.01,1.92-3.82,1.82-7.96,3.38-11.29,6.04-1.06.84-2.28,1.86-2.81,3.14-.37.88-.13,2.11.97,2.3s2.69-.75,2.79-1.89-.9-2.39-1.61-3.24c-2.06-2.48-4.72-4.17-7.2-6.18-1.71-1.38-5.97-4.75-3.39-7.09l-1.88.5c3.36,1.58-1.02,4.95-2.53,6.1-2.88,2.19-6.53,3.84-8.87,6.64-1.15,1.38-4.8,6.19-1.07,6.55.92.09,2.79-.3,2.46-1.59s-1.92-2.47-2.85-3.28c-1.53-1.34-3.2-2.46-4.83-3.66-2.24-1.66-4.58-4.08-4.1-7.1l-1.77.67c.89.08.64,1.45.46,2-.38,1.17-1.44,1.98-2.36,2.73-1.83,1.5-3.85,2.73-5.72,4.17-2.63,2.02-4.85,4.87-6.12,7.94-.29.7-.86,2.06.03,2.56.84.47,3.01-.01,3.54-.85.65-1.02-1.21-2.19-1.88-2.65-1.68-1.16-3.58-1.9-5.44-2.71-2.35-1.03-4.44-2.35-6.21-4.22-1.35-1.42-3.01-3.62-1.78-5.59l-2.1.56c1.31,1.43.64,3.54-.12,5.07-1,2.04-2.51,3.77-4.22,5.24-3.17,2.7-6.75,6.05-6.37,10.59.01.14.31.2.4.21,1.02.05,2.28-.25,2.79-1.25.65-1.29-.44-2.29-1.51-2.81-1.72-.84-3.59-1.43-5.37-2.13-1.39-.54-3.59-1.03-4.12-2.64-.31-.93-.2-2.13-.1-3.09.05-.43.29-.99.28-1.41,0-.05.1-.16.09-.21.02.07-1.48.28-1.55.47-.07.2.17.79.19,1.01.27,2.73-1.14,5.53-2.54,7.77-1.83,2.94-4.24,5.67-7.02,7.75-.38.28-.22.49.16.59.44.12,1.18-.15,1.54-.41,2.51-1.88,4.7-4.24,6.5-6.8,1.71-2.42,3.34-5.26,3.54-8.29.05-.75.18-2.38-.67-2.7-.8-.3-1.98.27-2.34,1-.45.93-.43,2.25-.42,3.26.01,1.17.16,2.16,1.12,2.94,1.56,1.28,3.92,1.8,5.77,2.52,1.08.42,2.25.77,3.27,1.33.46.25.95.59,1.13,1.11.04.13.08.26.08.4,0,.22-.04.42-.15.6-.24.38,0,.37.72-.01l.4.21c-.44-5.25,4.42-8.09,7.58-11.38,2.04-2.12,5.63-6.86,3-9.72-.44-.48-1.82.13-2.1.56-1.81,2.89,1.86,6.25,3.9,7.85,3.13,2.46,7.23,3.14,10.33,5.62.23.18.46.37.66.57.17.17.35.59.51.71.51.37.21-.3.25-.69.13-1.26.98-2.57,1.62-3.62.85-1.38,1.83-2.72,2.98-3.87,1.48-1.47,3.32-2.57,5.01-3.77s3.86-2.52,4.76-4.35c.61-1.23.69-3.03-1.02-3.18-.4-.03-1.68.12-1.77.67-.67,4.2,3.17,6.74,6.12,8.89,1.32.96,2.61,1.99,3.79,3.11.49.46.98.94,1.38,1.48.17.23.27.52.44.74.23.31-.19.46.34.26l1.09-.18c-2.94-.1.54-4.65,1.37-5.64,1.79-2.15,4.49-3.51,6.78-5.08,2.04-1.41,9.22-6.23,4.4-8.49-.55-.26-1.47.14-1.88.5-3.3,2.98,2.39,7.1,4.52,8.72,1.48,1.13,2.99,2.19,4.34,3.48.53.51,4.58,4.59,2.83,5.3l1.41-.07c-2.87-1.87,3.92-5.91,5.26-6.59,2.6-1.33,5.27-2.53,7.91-3.78,1.26-.6,2.53-1.2,3.79-1.81.76-.37,1.79-.83,2.12-1.69.66-1.72-1.57-2.58-2.89-2.36-1.82.31-3.13,1.74-2.96,3.64s1.87,3.49,3.05,4.93,2.37,2.97,3.49,4.5c1.21,1.65,2.39,3.32,3.41,5.09.35.61.71,1.24.96,1.91.09.23.12.55.23.77.21.44-.45.44.4.14l1.09-.18c-.98-.15-1.7-.49-.63-1.17.46-.29,1.44-.76,1.8-.76.68,0,2.35-1.01.9-1.01h0Z"/>
    <polygon class="cls-27" points="750.05 409.87 755.08 515.58 763.75 515.58 770.08 409.87 750.05 409.87"/>
    <path class="cls-19" d="M876.38,352.44c-.47,1.91-1.45,3.68-2.38,5.4-3.23,5.99-7.37,11.5-11.69,16.75-8.43,10.25-17.91,19.62-27.72,28.54s-22.06,16.13-35.36,19.22c-5.84,1.36-12.06,2.1-18.06,1.44.12.01.12.02-.07-.01-.47-.07-1.68.07-1.75.74-.32,3.26-.65,6.53-.97,9.79-.78,7.84-1.56,15.68-2.34,23.52-.94,9.48-1.89,18.96-2.83,28.45-.81,8.16-1.62,16.33-2.44,24.49l-.81,8.12c-.12,1.2-.51,2.66-.38,3.87,0,.05-.01.12-.02.17l1.51-.76c-6.85,0-13.7-.02-20.55-.02-.99,0-1.97,0-2.96,0l.67.34c-.19-3.4-.38-6.79-.57-10.19-.46-8.16-.92-16.32-1.38-24.48-.56-9.92-1.12-19.84-1.68-29.75-.48-8.54-.96-17.08-1.44-25.62l-.48-8.47c-.07-1.23.1-2.8-.23-3.99-.01-.05,0-.12-.01-.18-.01-.26-.49-.35-.67-.34-.17,0-.33,0-.5-.02-.41-.03-.03.01-.4-.05-.27-.04-.53-.09-.79-.15-1.56-.35-3.03-1-4.44-1.89-5.72-3.6-8.91-10.24-10.8-16.48-2.06-6.79-2.85-13.92-3.15-20.99-.03-.72-2.21-.28-2.17.58.44,10.61,1.85,22.31,7.87,31.39,2.59,3.9,6.3,7.27,10.91,8.49.84.22,1.76.41,2.64.38l-.67-.34c.19,3.4.38,6.79.57,10.19.46,8.16.92,16.32,1.38,24.48.56,9.92,1.12,19.84,1.68,29.75.48,8.54.96,17.08,1.44,25.62l.48,8.47c.07,1.23-.1,2.8.23,3.99.01.05,0,.12.01.18.01.27.49.34.67.34,6.85,0,13.7.02,20.55.02.99,0,1.97,0,2.96,0,.4,0,1.45-.2,1.51-.76.32-3.26.65-6.53.97-9.79.78-7.84,1.56-15.68,2.34-23.52.94-9.48,1.89-18.96,2.83-28.45.81-8.16,1.62-16.33,2.44-24.49l.81-8.12c.12-1.21.49-2.65.38-3.87,0-.05.01-.12.02-.17l-1.75.74c5.06.75,10.47.21,15.48-.65,12.47-2.13,24.19-7.56,34.26-15.15,6.56-4.95,12.49-10.8,18.32-16.58,4.53-4.5,8.92-9.13,13.11-13.94,5.2-5.98,10.2-12.27,14.17-19.14.95-1.65,1.84-3.34,2.6-5.09.25-.58.81-1.51.81-2.16,0-.03.02-.06.02-.09.2-.82-1.99-.5-2.18.26h0Z"/>
    <path d="M202.43,525.98c1.38,2.15,2.76,4.3,3.74,6.66,3.76,8.97.72,20.3-7.02,26.19-7.75,5.88-19.48,5.77-27.11-.26-.85-.67-1.95-1.44-2.9-.93-.46.25-.72.74-1.02,1.16-1.96,2.7-5.96,2.81-9.2,2.01-12.68-3.14-21.44-17.41-18.5-30.14.25-1.09.58-2.26.17-3.31-.94-2.46-4.48-2.02-6.98-2.84-4.8-1.56-5.62-7.89-5.58-12.94.03-3.25.15-6.78,2.18-9.32,4.26-5.3,4.44-9.93,11.09-11.36,0,0-10.1-8.35-5.02-16.96,5.08-8.61,27.32-5.79,27.32-5.79"/>
    <g>
      <path d="M164.18,482.88l15.07,27.19,12-88.3s90.26-29.03,101.12-29.72c10.87-.69,25.68,20.18,25.68,20.18-3.27-9.18-9.38-35.65-22.44-39.17-5.46-1.47-13.24,1.26-13.24,1.26,0,0-8.43-8.26-18.82-11.17-10.39-2.91-22.21,5.71-22.21,5.71,0,0-5.33-5.49-16.58-5.29-11.25.21-20.37,12.03-20.37,12.03,0,0-13.52-5.39-24.29,4.02-9.08,7.93-10.97,17.09-10.97,17.09-22.69,5.45-25.72,23.81-22.31,42.19-3.04,2.11-6.28,4.97-7.59,8.29-.17.43-.31.92-.45,1.38,0,.34-.03.69-.03,1.03-.04,2.51.05,5.54.28,7.36.68,5.41,2.05,9.37,5.87,12.96.13.12.18.3.29.44,1.61.89,3.22,1.83,4.3,3.25,1.43,1.88,1.1,4.26,1.07,6.49-.09,6.62-2.55,13.27-1.48,19.89,1.42,3.77,3.19,7.42,5.13,10.96,2.65,2.31,5.57,3.85,8.72,4.34l5.11-.49s-2.02,20.14,10.08,26.37c12.11,6.23,27.99.67,27.99.67,0,0,4.24,18.24,18.1,15.45,13.86-2.8,31.55-30.95,31.55-30.95"/>
      <path d="M221.39,557.65c-2.11,0-4.08-.51-5.9-1.53-2.08-1.17-3.97-3.01-5.59-5.46-2.58-3.89-3.7-8.14-3.85-8.72-.54.18-4.35,1.42-9.4,1.98-5.01.56-12.3.55-18.57-2.68-6.28-3.23-8.69-10.25-9.62-15.56-.93-5.37-.57-10.13-.51-10.79l-5.03.48c-3.05-.47-6-1.93-8.77-4.36v-.02c-2.17-3.93-3.85-7.52-5.15-10.97-.64-3.99,0-8.03.6-11.95.41-2.61.83-5.31.87-7.96,0-.32.02-.64.03-.97.06-1.91.13-3.89-1.08-5.48-1.07-1.41-2.63-2.33-4.28-3.23l-.02-.02c-.05-.06-.09-.13-.12-.2-.05-.09-.09-.17-.16-.23-4-3.75-5.25-7.9-5.89-12.99-.21-1.65-.32-4.55-.28-7.37,0-.18.01-.36.02-.55,0-.16.01-.32.02-.49v-.02c.05-.14.09-.27.13-.41.1-.33.21-.67.33-.98,1.1-2.78,3.65-5.57,7.58-8.3-1.93-10.42-1.46-19.15,1.38-25.94,3.47-8.28,10.51-13.76,20.95-16.27.15-.67,2.3-9.5,10.98-17.08,5.58-4.87,11.91-5.71,16.23-5.55,4.39.16,7.67,1.35,8.08,1.51.28-.35,2.52-3.14,5.95-5.91,3.37-2.73,8.61-6,14.45-6.11.2,0,.41,0,.61,0,10.26,0,15.48,4.79,15.98,5.27.38-.27,3.24-2.27,7.18-3.92,3.89-1.64,9.66-3.28,15.04-1.77,9.99,2.8,18.27,10.63,18.82,11.16.59-.2,8.02-2.65,13.24-1.24,11.08,2.98,17.14,22.33,20.75,33.88.66,2.1,1.22,3.91,1.73,5.32l.15.43-.27-.37c-.04-.05-3.76-5.27-8.76-10.34-4.46-4.53-10.86-9.83-16.34-9.83-.18,0-.35,0-.52.02-10.65.68-98.79,28.98-101.07,29.71l-12.02,88.45-.09-.17-15.07-27.19.11-.06,14.98,27.02,11.98-88.15h.04c.9-.3,90.39-29.06,101.14-29.74,5.63-.36,12.34,5.16,16.96,9.85,4.26,4.32,7.59,8.75,8.51,10.01-.47-1.35-.99-3.01-1.58-4.92-3.61-11.53-9.65-30.84-20.67-33.8-5.37-1.45-13.12,1.23-13.2,1.25h-.04s-.03-.01-.03-.01c-.08-.08-8.54-8.28-18.79-11.15-5.35-1.5-11.09.13-14.96,1.76-4.2,1.77-7.17,3.92-7.2,3.94l-.04.03-.04-.04s-1.36-1.38-4.06-2.71c-2.49-1.23-6.68-2.66-12.48-2.56-5.79.11-11.01,3.36-14.37,6.08-3.64,2.94-5.94,5.9-5.96,5.93l-.03.04-.04-.02s-3.43-1.35-8.09-1.52c-4.3-.16-10.59.68-16.14,5.52-8.96,7.82-10.93,16.96-10.95,17.05v.04s-.05,0-.05,0c-10.41,2.5-17.44,7.95-20.9,16.21-2.84,6.78-3.29,15.49-1.36,25.91v.04s-.03.02-.03.02c-3.93,2.72-6.47,5.5-7.57,8.27-.12.3-.22.64-.32.97-.04.14-.08.27-.13.4,0,.16-.01.32-.02.48,0,.18-.02.36-.02.54-.04,2.82.07,5.7.28,7.35.64,5.06,1.88,9.2,5.85,12.92.08.08.13.17.18.27.03.06.06.12.1.17,1.65.91,3.23,1.84,4.3,3.26,1.24,1.63,1.17,3.63,1.11,5.56-.01.32-.02.65-.03.96-.04,2.66-.46,5.36-.87,7.98-.61,3.9-1.25,7.94-.61,11.89,1.3,3.43,2.97,7.01,5.12,10.93,2.75,2.4,5.67,3.85,8.68,4.32l5.17-.49v.08c-.01.05-.5,5.1.5,10.83.92,5.29,3.32,12.27,9.55,15.47,6.24,3.21,13.5,3.22,18.49,2.66,5.41-.6,9.4-1.98,9.44-2l.07-.02.02.07s1.09,4.6,3.85,8.75c1.62,2.44,3.48,4.26,5.55,5.42,2.58,1.45,5.48,1.86,8.63,1.23,7.14-1.44,15.32-9.77,20.93-16.5,6.08-7.3,10.53-14.35,10.58-14.42l.11.07c-.04.07-4.5,7.13-10.58,14.44-5.62,6.75-13.83,15.1-21.01,16.55-.96.19-1.9.29-2.82.29Z"/>
    </g>
    <path d="M174.72,526.78c7.35,8.99,23.57,15.68,34.21,20.46,10.88,4.88,15.37,5.49,26.7,3.57,22.09-3.73,43.5-12.96,60.02-28.51,17.04-16.04,27.31-37.96,29.23-61.65,1.34-16.55-.4-32.66-4.8-48.02-.7-1.53-1.84-4.01-2.54-5.54-17.89-27.6-29.21-33.7-59.87-32.88-18.87.31-36.53-7.65-62.45,9.11-5.59,3.61-10.68,11.91-17.66,17.39-10.51,8.26-21.19,20.97-24.04,32.01-4.15,16.14-.31,36.02,3.19,54.84,2.66,14.27,8.66,27.75,17.83,38.99.06.07.12.14.17.21Z"/>
    <path class="cls-27" d="M311.32,556.03c-9.73-1.65-49.15-3.34-58.53-6.64-4.29-1.51-36.65-15.26-40.61-17.71,17.88,32.48,11.83,48.53,8.35,54.87l-1.3,31.11c29.55,30.28,99.16,40.46,120.39-28.6l-23.65-12.51-4.65-20.52Z"/>
    <path class="cls-27" d="M335.85,471.9c-1.01-4.67-2.21-10.08-3.69-16.61-.43-1.89-.89-3.7-1.37-5.48-.33-.9-.58-1.81-.75-2.75-8.89-31.37-23.44-45.33-23.44-45.33-18.54-17.64-45.03-24.08-69.56-16.89-29.03,7.85-50.95,32.12-60.24,53.38-4.62,10.53-5.2,22.4-1.63,33.34,3.04,9.35,11.27,14.33,16.41,24.03-10.31,2.06-21.26,4.59-10.97,21.43,11.34,18.57,26.64,23.79,33.98,14.04,3.13.95-3.8-5.96-1.13,1.32.65.37,7.31,16.88,7.77,17.67,4.74,8.08,15.28,11.44,23.76,13.83,8.92,2.51,18.2,4.31,27.38,5.52,12.92,1.69,26.65,2.15,39.78.02l-.5-1.62c5.61-1.81,3.15-.48,9.79-3.64,21.98-11.91,23.29-59.16,21.69-71.28-1.36-10.28-4.47-15.26-7.28-20.98Z"/>
    <path class="cls-29" d="M313.63,566.7s-28.84,12.55-65.17-3.56c0,0,11.82,11.23,31.18,13.1,19.36,1.87,35.12-5.03,35.12-5.03l-1.13-4.51Z"/>
    <path d="M206.75,504.7c-.08-.13-.85-6.16,1.44.9,1.15,3.54-6.38-7.07-10-8.78-1.65-.79-3.6-1.63-5.5-1.94-1.91-.31-8.27.28-10.23.5-2.81.02-8.45,5.42-10.87,6.75-.39.29,2.24-4.15,1.85-3.86-12.43-18.81-20.11-34.92-10.99-63.85,2.64-8.34,12.61-19.24,15.62-22.7,18.33-20.76,38.22-26.73,63.7-30.42,29.53-4.28,60.94.65,75.06,26.17,3.4,6.15,4.61,8.79,5.77,15.62,0,0-5.49-14.45-21.51-18.83-16.02-4.39-18.69-3.84-38.24,1.3-22.66,5.87-30.47,4-46.28,17.27-14.43,12.15-16.05,19.87-16.05,19.87,0,4.17-1.58,8.12-2.28,12.19-.7,4.01-.3,7.97.5,11.94,1.64,8.12,5.28,12.39,8.13,20.24,1.77,4.87,6.6,14.18,2.41,18.71-1.87,2.02.12-.88-2.53-1.07Z"/>
    <path d="M329.27,459.8c-3.43-1.14-6.84-2.03-12.71-.02-9.41,3.22-12.17,15.69-12.17,15.69,0,0,4.47-9.85,13.68-13.26,4.44-1.65,11.81-.58,15.73.33-.32-.9-2.45-1.95-4.53-2.74Z"/>
    <path class="cls-29" d="M190.01,515.34c-1.72-2.67-3-5.89-2.63-9.13.03-.3.1-.59.16-.89.02-.1.07-.52,0-.2,0-.03.09-.07.11-.09-.16.15-.02.01.14-.09.06-.04.13-.08.19-.12.23-.15-.18.09.04-.02.09-.05.17-.09.26-.13.05-.02-.18.07.11-.04.35-.14-.21.06.09-.03.35-.11-.03,0,.12-.04.2-.05.39-.06.57-.06,1.71,0,3.31.9,4.62,1.93,3.14,2.45,5.32,6.01,7.19,9.46l2.27-.84c-1.33-.54-2.86-.65-4.24-.26-1.84.53-2.58,1.86-2.32,3.7.22,1.55,1.1,3,2.39,3.89,1.98,1.38,4.53,1.39,6.82,1.06.29-.04,1.45-.3,1.46-.71.01-.46-.72-.33-1.01-.29-2.99.42-6.11-.76-7-3.87-.14-.48-.21-.98-.21-1.48,0-.26.02-.53.08-.78.04-.17.41-.69.4-.79.01.19-.77.05.02.13.24.02.48.07.71.13.29.07.58.16.86.27.33.14,2.56-.3,2.27-.84-1.85-3.41-4.01-6.92-7.04-9.42-1.58-1.3-3.48-2.3-5.56-2.37-1.53-.06-3.11.32-4.46,1.06-.61.33-1.2.65-1.37,1.35-.84,3.53.58,7.26,2.46,10.19.42.65,2.74-.3,2.5-.67h0Z"/>
    <path d="M254.76,482.6c.26,3.93,4.19,6.43,7.84,5,2.27-.89,3.76-3.25,3.6-5.69-.26-3.93-4.19-6.43-7.84-5-2.27.89-3.76,3.25-3.6,5.69Z"/>
    <path d="M318.61,465.33c.26,3.93,4.19,6.43,7.84,5,2.27-.89,3.76-3.25,3.6-5.69-.26-3.93-4.19-6.43-7.84-5-2.27.89-3.76,3.25-3.6,5.69Z"/>
    <path d="M275.74,483.21s-8.69-11.67-22.64-7.89c-11.87,3.22-14.79,10.28-16.42,14.62,0,0,5.79-7.61,17.16-11.11,10.32-3.17,21.89,4.38,21.89,4.38Z"/>
    <path class="cls-15" d="M303.37,523.48c-8.96,2.2-25.74,4.95-25.74,4.95,0,0,6.56,24.32,31.32,17.84,20.69-5.42,14.51-27.03,14.51-27.03,0,0-11.13,2.05-20.09,4.25Z"/>
    <path class="cls-9" d="M303.46,523.46c-4.26,1.04-20.17,4.76-20.17,4.76,0,0,7.98,12.74,23.39,8.96,16.71-4.09,13.68-16.97,13.68-16.97l-16.9,3.25Z"/>
    <path class="cls-25" d="M304.03,524.99c-4.26,1.04-17.4,3.53-17.4,3.53,0,0,5.77,3.34,18.55.21,12.78-3.13,15.77-8.48,15.77-8.48l-16.92,4.74Z"/>
    <path class="cls-15" d="M324.48,517.57c-.11-.46-1.08-.43-3.24-.09-3.6.57-5.06-.4-7.66.03-4.44.75-6.81,3.08-8.7,3.54-1.9.46-5.07-.51-9.36.88-2.51.81-10.14,3.64-13.59,4.8-2.07.69-4.75.51-5.17.73-.59.3,3.82,5.34,27.65-.5,23.84-5.84,20.22-8.76,20.07-9.39Z"/>
    <path d="M268.49,458.6c-.03-.23-.78-.11-.81-.33-12.36-.59-21.39.94-24.55,2.22-2.4.97-4.63,2.46-6.66,4.29,0,0-5.63,4.95-6.12,6.57-.49,1.63,3.72-1.5,3.72-1.5.93-.51,1.54-1.02,2.52-1.39,5.41-2.03,10.42-4.8,16.19-5.14,4.93-.32,12,1.34,16.97,2.3-.31-2.44-1.12-4.59-1.25-7.03Z"/>
    <path d="M298.75,453.37c-.08-.21.56-.42.49-.64,9.3-5.66,16.93-8.04,19.92-8.2,2.27-.12,4.64.29,6.99,1.09,0,0,2.81.17,3.88,1.43,1.08,1.26.15,2.13.15,2.13-.94-.07-1.63-.28-2.55-.2-5.05.42-10.11.01-14.71,2.1-3.95,1.76-8.69,6.18-12.12,9.12-.81-2.32-1.1-4.59-2.05-6.84Z"/>
    <g>
      <path d="M305.93,506.03c-1.86,1.72-5.24,2.34-7.78,1.58-.57-.17-2.1.55-1.31.8,3.36,1.01,8.15-.09,10.55-2.32.24-.22.13-.42-.25-.44-.39-.02-.96.15-1.21.39"/>
      <path d="M295.73,508.03c-1.64-.3-3.37-.22-5.03.09-.24.05-.53.22-.66.42-.1.16-.09.33.12.39.87.23,1.87.15,2.75-.1.28-.08.62-.25.72-.53.09-.26-.22-.33-.44-.27-.72.21-1.5.26-2.22.07-.18.27-.36.54-.55.81,1.49-.28,3.04-.33,4.5-.06.29.05.64-.13.84-.33.15-.15.27-.44-.03-.5"/>
      <path d="M289.31,509.98c-1.92.47-4.38.24-5.71-.95-2-1.79-1.64-5.8.37-7.83.22-.22.03-.38-.25-.36-.36.02-.73.25-.96.49-1.75,1.77-2.29,5.17-1.44,7.12.8,1.83,2.98,2.67,5.41,2.6.72-.02,1.47-.1,2.19-.28.29-.07.79-.3.87-.56.08-.27-.21-.3-.48-.23"/>
      <path d="M309.16,504.12c-.16-.19-.01-.39.14-.43.52-.12,1.01-.41,1.35-.89.22.16.45.32.67.48-1,.39-1.94,1.01-2.7,1.87-.15.17-.44.16-.64.07-.15-.07-.35-.28-.2-.45"/>
      <path d="M307.79,504.79c.85-.97,1.91-1.64,3.03-2.08.16-.06.41-.03.57.09.13.1.19.26.09.39"/>
      <path d="M313.19,503.31c1.23-.38,2.46-1.61,2.69-3.21.34-2.42-1.21-4.77-3.13-5.74-.21-.11-.17-.33-.02-.43.2-.13.5-.08.72.03,1.67.85,3.07,2.58,3.41,4.67.32,1.96-.51,3.61-1.85,4.56-.4.28-.84.52-1.3.66-.19.06-.55.06-.7-.14-.15-.2,0-.35.17-.4"/>
    </g>
    <path class="cls-27" d="M193.27,487.5c1.42.18,10.56-7.48,12.08-6.29,13.41-42.22,75.71-80.76,115.71-57.67-2.69-5.4-11.91-17.13-13.47-18.72-16.91-17.22-42.67-21.72-69.31-18.12-26.64,3.6-57.11,19.12-67.08,49.42-9.66,29.38-6.8,53.52,22.07,51.37Z"/>
    <g>
      <path d="M210.43,446.9l-.7-.89c-.78,2.59-2.53,4.87-4.83,6.28-1.36.83-3.15,1.83-2.91,3.4.07.46.32.88.39,1.34.45,2.94-5.33,2.37-6.57,5.08-1.04,2.28,2.04,4.85,1.16,7.2-.78,2.09-4.08,2.28-4.85,4.37-.96,2.59,2.85,5.48,1.4,7.83-1.05,1.69-3.98,1.33-4.96,3.07-.46.82-.31,1.83-.22,2.81,4.98.52,10.02,1.37,15.26,1.84-.19-1.08-.52-2.16-.96-3.12-.4-.85-.83-1.8-.55-2.7.62-1.99,3.75-1.61,5.16-3.14,2.47-2.68-2.63-7.12-.94-10.35,1.01-1.94,4.05-2.36,4.63-4.47.75-2.77-3.49-5.77-1.66-7.98.56-.67,1.49-.89,2.22-1.38,1.43-.98,1.85-2.99,1.44-4.68-.41-1.69-1.47-3.13-2.5-4.52Z"/>
      <path d="M210.56,446.85l-.7-.89c-.05-.06-.24,0-.26.07-.83,2.59-2.48,4.76-4.78,6.23-1.17.75-3.08,1.66-2.97,3.32.05.84.7,1.59.3,2.45s-1.42,1.2-2.22,1.5c-1.23.47-2.64.82-3.61,1.76-2.94,2.83,3.1,6.74-.63,9.45-1.18.86-2.88,1.33-3.57,2.72-.78,1.58.32,3.28.97,4.69.41.88.86,1.91.55,2.9-.43,1.33-1.91,1.66-3.07,2.09-.68.25-1.39.54-1.86,1.11-.75.89-.58,2.11-.47,3.18,0,.02.04.03.05.03,5.1.54,10.16,1.37,15.26,1.84.05,0,.23-.02.22-.1-.2-1.08-.52-2.11-.96-3.12-.5-1.14-1.07-2.45-.03-3.49,1.1-1.1,2.97-1.01,4.21-1.94,2.48-1.86.16-5.23-.53-7.42-.58-1.84-.37-3.42,1.23-4.64,1.07-.82,2.55-1.37,3.21-2.64s.02-2.75-.61-3.95-2.06-3.22-.86-4.52c.76-.83,1.96-1.01,2.74-1.82.64-.67.97-1.59,1.06-2.51.23-2.41-1.28-4.47-2.64-6.3-.05-.07-.31.02-.25.1,1.59,2.14,3.44,4.81,2.3,7.59-.57,1.4-1.76,1.66-2.88,2.44-.57.4-.97.92-1.04,1.62-.16,1.69,1.36,3.28,1.92,4.79.93,2.54-.93,3.64-2.77,4.89-1.18.8-2.03,1.8-2,3.29.04,1.8,1.07,3.43,1.62,5.1.73,2.21.14,3.83-2.17,4.64-1.19.41-2.9.73-3.33,2.12-.33,1.08.31,2.12.71,3.08.23.55.61,1.34.64,1.95.01.31.23.4-.11.66-.12.09-1.31-.13-1.47-.15-3.04-.33-6.06-.76-9.09-1.15-.7-.09-1.41-.18-2.11-.26-.6-.07-1.78.05-2.09-.63-.29-.61-.03-1.76.25-2.3.42-.78,1.17-1.12,1.96-1.41,1.26-.47,2.88-.85,3.27-2.35.44-1.7-.99-3.38-1.53-4.89-.34-.97-.45-2,.18-2.89s1.67-1.32,2.57-1.85c1.3-.77,2.33-1.77,2.09-3.4-.28-1.85-2.16-3.83-1.28-5.75,1.26-2.72,7.52-1.87,6.37-5.77-.54-1.83.66-2.75,2.1-3.66.97-.61,1.89-1.22,2.7-2.05s1.51-1.79,2.03-2.84c.09-.17.8-1.67.5-1.67.11,0,.59.74.66.84.05.07.31-.03.25-.1Z"/>
    </g>
    <g>
      <path d="M201.74,433.07c1.68,1.04,2.57,3.23,2.08,5.15-.49,1.92-2.31,3.42-4.29,3.53,1.4,2.15.61,5.41-1.62,6.68-.95.55-2.13.79-2.83,1.63-1.72,2.08.86,5.73-.89,7.78-.66.77-1.77,1.05-2.42,1.84-1.32,1.62.08,4.17-.73,6.1-.99,2.36-4.7,2.64-5.55,5.05-.6,1.69.45,3.96-.88,5.17-.7.63-1.84.69-2.38,1.47-.64.94.03,2.17.29,3.28.63,2.74-2.13,5.67-4.91,5.2.36,1.86-.09,3.86-1.21,5.38-1.56-1.52-3.17-3.1-3.99-5.11s-.66-4.6.97-6.05c.63-.56,1.45-.93,1.93-1.62,1.21-1.77-.43-4.53.91-6.2.9-1.12,2.83-1.26,3.33-2.61.24-.65.05-1.37,0-2.06-.17-2.45,1.85-4.84,4.29-5.09.69-.07,1.45,0,2.01-.42,1.62-1.19-.6-3.73-.15-5.69.44-1.92,3.33-2.58,3.57-4.54.08-.65-.17-1.3-.15-1.96.02-1.04.7-1.94,1.34-2.75,3.33-4.18,6.8-8.26,10.4-12.2"/>
      <path d="M201.63,433.15c3.6,2.43,2.35,8.08-2.09,8.51-.07,0-.19.07-.14.15,1.08,1.82.84,4.25-.62,5.8-1.18,1.26-3.34,1.3-4.16,2.93-.65,1.3-.17,2.89-.02,4.25.11.96.15,1.95-.39,2.79s-1.62,1.13-2.34,1.82c-1.29,1.25-.73,3.1-.72,4.67.02,2.25-1.42,3.2-3.18,4.23-1.06.62-2.21,1.31-2.64,2.54-.78,2.21.81,4.42-1.9,5.7-1.79.84-1.75,1.87-1.22,3.68.84,2.88-1.43,6.02-4.57,5.63-.07,0-.2.04-.18.13.24,1.44.16,3.43-.76,4.65-.53.7-.85,0-1.36-.52-.48-.49-.94-.99-1.36-1.53-1.69-2.14-2.89-5.48-.97-7.89.68-.85,1.8-1.23,2.41-2.14.5-.75.51-1.65.46-2.51-.07-1.3-.41-2.85.62-3.88.75-.75,1.91-.94,2.66-1.69.58-.57.62-1.22.59-1.99-.07-1.66,0-2.95,1.17-4.27s2.42-1.36,3.96-1.62c.64-.11,1.28-.37,1.56-1,.8-1.81-1.39-3.74-.44-5.62.8-1.57,3.13-2.14,3.39-4.04.1-.72-.21-1.43-.14-2.15.1-.98.72-1.76,1.3-2.52,1.06-1.37,2.17-2.7,3.27-4.03,2.31-2.78,4.69-5.5,7.13-8.18.11-.12-.15-.15-.22-.07-2.12,2.32-4.19,4.69-6.22,7.09-.91,1.08-1.81,2.17-2.7,3.27s-1.89,2.1-2.49,3.33-.02,2.08-.2,3.27-1.36,1.93-2.24,2.68c-1.44,1.24-1.57,2.49-1.04,4.27.13.44.29.87.37,1.32.17.92-.05,1.69-1.02,2.14-.49.22-1.21.09-1.74.19-.47.09-.93.26-1.35.49-1.68.9-2.79,2.73-2.71,4.65.03.77.29,1.56-.11,2.29-.36.65-1.11.95-1.73,1.28s-1.29.7-1.66,1.33c-1.21,2.04.72,4.62-1.19,6.43-.86.81-1.82,1.24-2.38,2.34-.48.94-.61,2.01-.51,3.05.28,2.9,2.48,5.06,4.45,6.99.07.07.2.03.25-.04.86-1.25,1.36-2.67,1.34-4.2,0-.14-.02-.29-.02-.43.02-.64-.16-.46.38-.62.45-.14.93-.09,1.39-.27,1.89-.7,3.36-2.72,3.1-4.78-.09-.7-.41-1.34-.54-2.03-.26-1.4.6-1.92,1.68-2.45.88-.42,1.4-.98,1.56-1.97.21-1.33-.28-2.74.3-4.01s1.88-1.82,2.96-2.46c.82-.49,1.69-1.01,2.22-1.83.65-1.01.55-2.2.47-3.34-.05-.68-.14-1.39,0-2.07.21-1.07.97-1.6,1.83-2.15s1.51-1.13,1.7-2.18c.52-2.81-1.71-5.78,1.72-7.42,2.05-.98,3.6-2.2,3.73-4.67.03-.64-.05-1.29-.27-1.89-.25-.68-.41-.58.16-.83,1.16-.51,2.14-.84,2.94-1.92,1.65-2.23.89-5.31-1.34-6.81-.09-.06-.33.07-.21.15h0Z"/>
    </g>
    <g>
      <path d="M196.87,428.56c1.32,2.79-.19,6.55-3.07,7.66-.57.22-1.19.36-1.63.78-.92.88-.53,2.37-.66,3.63-.29,2.85-3.34,4.54-6.13,5.2-1.78.43-4.04,1.06-4.24,2.88-.08.72.22,1.46.03,2.16-.53,1.84-3.93,1.8-4.06,3.72-.06.88.7,1.64.69,2.52-.03,1.86-2.95,2.01-4.03,3.53-.5.7-.54,1.63-.55,2.49-.05,2.64-.11,5.27-.16,7.91-.01.65-.08,1.4-.62,1.76-.91.6-1.99-.49-2.49-1.47-2.84-5.46-4.25-11.66-4.06-17.81.05-1.54.53-3.46,2.04-3.72.5-.09,1.07.03,1.48-.27.67-.5.29-1.53.02-2.32-1.1-3.26,1.63-7.19,5.07-7.29.93-.03,2.04.1,2.59-.65.36-.5.29-1.18.43-1.78.35-1.54,2-2.41,3.54-2.78,1.54-.37,3.21-.47,4.51-1.37,1.63-1.13,2.41-3.34,4.24-4.09,2.22-.9,5.27.67,6.93-1.06"/>
      <path d="M196.74,428.6c.85,1.95.51,4.23-.81,5.9-.78,1-1.72,1.42-2.87,1.89-.66.27-1.19.59-1.46,1.28-.33.83-.16,1.76-.21,2.62-.06,1.14-.51,2.13-1.28,2.96-1.6,1.73-3.84,2.15-5.99,2.81-1.14.35-2.51.89-2.98,2.09-.39,1.01.29,2.17-.29,3.12-.5.82-1.57,1.15-2.38,1.58-1.01.55-1.74,1.26-1.38,2.49s1.02,2.23-.3,3.18c-.68.49-1.5.76-2.2,1.23-1.62,1.09-1.49,2.83-1.53,4.61-.03,1.4-.06,2.8-.08,4.2-.02.98.46,5.17-1.83,4-1.06-.54-1.6-2.32-2.04-3.31-.55-1.24-1.02-2.5-1.43-3.79-.77-2.43-1.27-4.95-1.51-7.49-.2-2.08-.7-5.31.53-7.19.93-1.42,3.6-.34,3.16-2.67-.2-1.04-.61-1.86-.51-2.95s.59-2.25,1.32-3.13,1.75-1.62,2.91-1.9c.88-.21,1.81,0,2.68-.24.53-.15.92-.43,1.14-.95.27-.66.14-1.4.47-2.06.39-.78,1.16-1.3,1.93-1.65,2.08-.96,4.57-.63,6.37-2.24.76-.68,1.31-1.55,1.98-2.31,1.07-1.21,2.32-1.67,3.92-1.63s3.45.41,4.79-.82c.12-.11-.14-.14-.22-.07-1.85,1.71-4.67.14-6.84,1.01-1.72.7-2.5,2.52-3.81,3.71-1.93,1.74-4.75,1.24-6.91,2.53-.59.35-1.14.83-1.45,1.46-.19.38-.25.78-.31,1.2-.2,1.39-1.31,1.73-2.47,1.77-3.3.09-6.16,3.11-5.74,6.5.06.49.23.93.37,1.4.08.28.29.82.2,1.08-.18.5-.91.76-1.32.88-.66.19-1.1.16-1.61.72-1.32,1.46-1.03,4.06-.95,5.84.23,5.17,1.48,10.8,4.13,15.3.53.9,1.88,2.23,2.88,1.09.57-.66.42-1.79.43-2.59.03-1.65.07-3.3.1-4.94.02-1.22-.14-2.64.28-3.8.47-1.28,1.67-1.68,2.77-2.29,1.56-.86,1.76-1.73,1.13-3.37-.92-2.43,1.76-2.6,3.13-3.78.52-.45.74-.95.74-1.64,0-.6-.18-1.22-.03-1.81.2-.83.94-1.38,1.67-1.73,2.04-.97,4.28-1.07,6.19-2.38s2.44-2.89,2.47-5.11c.01-1.05.09-1.92,1.16-2.51.5-.28,1.1-.37,1.61-.65.77-.42,1.42-1.02,1.93-1.74,1.18-1.68,1.47-3.87.65-5.76-.05-.11-.31-.03-.27.07h0Z"/>
    </g>
    <g>
      <path d="M191.52,426.24c-3.24,2.56-8.74-1.85-11.92.79-1.54,1.28-2.11,3.97-4.11,4.11-.91.06-1.85-.5-2.71-.19-1.8.64-.73,3.48-1.59,5.19-1.06,2.13-4.7,1.71-5.81,3.82-.31.59-.36,1.29-.63,1.9-.5,1.15-1.68,1.82-2.66,2.6-.98.78-1.89,2-1.5,3.2-3.6-3.6-4.04-9.89-1-13.96.33-.44.7-.87.85-1.4.14-.52.05-1.06.01-1.6-.18-2.69,1.19-5.42,3.46-6.89.79-.51,1.72-.92,2.18-1.74.65-1.15.1-2.6.27-3.91.39-3.06,4.23-4.25,6.05-6.74.76-1.04,1.15-2.3,1.83-3.39.73-1.16,1.8-2.11,3.03-2.71.99-.47,2.29-.67,3.08.08.54.52.68,1.33,1.09,1.95,1.05,1.58,3.38,1.47,5.23,1.07,1.85-.4,4.04-.84,5.44.44,1.98,1.82.54,5.22,1.52,7.72.43,1.1,1.33,1.98,1.66,3.11.3,1.03.1,2.14-.11,3.2-.37,1.87-.74,3.74-1.11,5.62"/>
      <path d="M191.43,426.18c-2.61,1.91-6.1-.1-8.97-.12-1.06,0-2.11.23-2.95.92-1.02.83-1.5,2.1-2.34,3.08-.92,1.08-1.87.93-3.19.76-.53-.06-1.03-.1-1.51.17-.92.51-.95,1.69-1,2.61-.09,1.8-.34,3.17-2.15,3.97-1.11.49-2.41.73-3.36,1.53-.47.39-.74.85-.93,1.43-.51,1.53-.95,2.31-2.26,3.3s-2.69,2.11-2.31,3.88l.28-.1c-2.01-2.08-3.06-4.9-3-7.79.02-1.25.25-2.51.69-3.68.24-.64.55-1.26.92-1.84.41-.64,1.03-1.22,1.24-1.97.34-1.22-.09-2.54.21-3.81.39-1.63,1.31-3.15,2.62-4.2.83-.67,1.97-1.05,2.62-1.92.89-1.19.35-2.68.46-4.03.22-2.65,2.97-3.96,4.75-5.53,2.23-1.96,2.66-5.16,5.16-6.88.77-.53,1.79-1.06,2.76-.93,1.27.16,1.45,1.15,1.96,2.08.46.83,1.17,1.34,2.09,1.56,2.73.65,6.07-1.68,8.52.08s.74,5.79,1.93,8.26c.39.82,1.02,1.52,1.36,2.37.4,1,.28,2.05.1,3.09-.35,2.03-.8,4.05-1.2,6.07-.03.14.27.1.29-.03.38-1.95.79-3.89,1.15-5.84.31-1.66.26-2.97-.63-4.42-1.02-1.66-1.36-2.95-1.35-4.89,0-1.24.09-2.63-.54-3.75-1.27-2.26-4.12-1.67-6.2-1.25-1.84.37-4.21.56-5.24-1.36-.54-1-.86-2.02-2.15-2.16-2.4-.25-4.58,2.04-5.58,3.95-.89,1.71-1.63,3.13-3.15,4.37-.95.77-1.98,1.45-2.85,2.33-.74.75-1.33,1.65-1.47,2.71-.1.81.07,1.61.06,2.41-.02,1.24-.67,2.06-1.69,2.7-2.37,1.47-4.09,3.62-4.27,6.51-.07,1.12.24,2.17-.37,3.2-.41.69-.93,1.28-1.31,2-.7,1.33-1.09,2.81-1.18,4.31-.2,3.09.85,6.17,3.01,8.4.07.07.31.03.28-.1-.5-2.32,2.09-3.31,3.4-4.67,1.24-1.28.98-3.25,2.66-4.17,1.93-1.04,4.45-1.14,4.86-3.73.1-.63.08-1.28.13-1.92.02-.31.04-.64.13-.94.31-1.11,1.47-1.14,2.52-1.05s1.75.16,2.58-.58c.92-.83,1.38-2.05,2.2-2.97,1.22-1.37,2.91-1.45,4.62-1.19,2.53.39,5.48,1.59,7.79-.09.16-.12-.08-.2-.19-.12h0Z"/>
    </g>
    <g>
      <path d="M202.23,423.39c1.91-1.57,1.96-4.9.1-6.52-.62-.54-1.49-1.1-1.37-1.91.05-.35.29-.64.48-.94,1.21-1.9.42-4.78-1.6-5.79-.42-.21-.9-.36-1.24-.69-1.41-1.37.5-4.46-1.19-5.47-1.42-.85-3.06,1.25-4.69.95-1.58-.3-2.03-2.6-3.56-3.09-2.28-.71-4.81,3.09-6.56,1.46-.91-.85-.36-2.47.64-3.2,1.01-.74,2.3-.94,3.41-1.49,2.9-1.43,4.17-4.83,6.47-7.1,2.4-2.36,5.79-3.36,9.02-4.28,1.39-.39,2.83-.79,4.26-.6,2.21.29,4.13,2.1,4.55,4.29.08.43.14.91.49,1.17.2.15.47.18.72.22,1.26.15,2.51.31,3.77.46.48.06,1,.14,1.31.51.72.84-.36,2.06-1.4,2.43-1.04.37-2.37.72-2.58,1.8-.4,2.02,3.52,2.49,3.66,4.54.14,2.12-3.79,2.52-3.91,4.65-.08,1.26,1.31,2.17,1.51,3.42.2,1.29-.9,2.4-2.02,3.06-1.12.66-2.42,1.19-3.1,2.3-.51.85-.56,1.88-.81,2.84-.74,2.91-3.22,5.01-5.56,6.89"/>
      <path d="M202.34,423.41c1.26-1.13,1.77-2.87,1.35-4.51-.22-.89-.69-1.57-1.36-2.18-.37-.34-.99-.71-1.16-1.23-.21-.63.28-1.22.55-1.75.81-1.61.4-3.71-.89-4.94-.71-.67-1.92-.84-2.39-1.72-.51-.95-.17-2.12-.15-3.14.02-1.22-.54-2.31-1.91-2.11-.83.12-1.49.69-2.27.92-1.82.54-2.43-.52-3.41-1.73-.92-1.13-1.95-1.51-3.32-.98-.71.28-1.35.7-2.01,1.07-.49.27-1.11.64-1.7.62-1.09-.03-1.53-1.07-1.32-2,.38-1.69,2.22-2.12,3.61-2.66.95-.37,1.79-.87,2.54-1.57,1.6-1.49,2.62-3.46,4.03-5.11,2.01-2.35,4.81-3.55,7.7-4.44s6.58-2.2,9.14.37c.88.88,1.22,1.88,1.53,3.04s1.09,1.08,2.14,1.2,4.51.04,4.29,1.62c-.21,1.5-2.26,1.6-3.29,2.26-1.17.74-1.14,1.93-.15,2.8s3.46,1.76,2.81,3.54c-.6,1.65-3.03,1.81-3.69,3.45-.34.85.08,1.59.53,2.3.42.67.86,1.21.84,2.02-.01.96-.66,1.71-1.39,2.27-.99.77-2.24,1.15-3.15,2.03s-1.03,1.97-1.29,3.14c-.72,3.19-3.19,5.31-5.63,7.27-.12.09.15.09.21.04,1.92-1.55,3.95-3.21,5.05-5.47.55-1.14.6-2.36,1-3.54.62-1.78,2.28-2.25,3.69-3.2,1.71-1.15,2.22-2.62,1.09-4.39-.73-1.14-1.24-2.19-.13-3.28.6-.59,1.4-.95,2.07-1.46,1.11-.84,1.58-2.04.49-3.15-.99-1.02-4.78-2.6-2.2-4.3.89-.59,4.1-1.15,3.34-2.96-.38-.92-1.93-.84-2.69-.93s-1.61-.1-2.35-.29c-1.4-.35-1.23-1.03-1.57-2.05-.65-1.91-2.43-3.37-4.42-3.64-2.46-.34-5.21.78-7.5,1.57s-4.53,1.85-6.23,3.63-2.72,3.99-4.5,5.63c-1.18,1.09-2.57,1.46-3.99,2.08-.81.35-1.55.8-1.97,1.61-.64,1.24-.08,2.85,1.48,2.7,1.87-.18,3.56-2.7,5.52-1.76,1.55.73,1.9,3.18,3.93,3.01.86-.07,1.59-.59,2.37-.91,2.57-1.06,2.42,1.42,2.32,2.93-.05.84-.11,1.81.54,2.46.41.41,1.02.55,1.51.86.6.38,1.07.89,1.4,1.53.61,1.17.67,2.6.07,3.79-.53,1.03-.94,1.6.02,2.53s1.77,1.59,2.02,2.98c.28,1.52-.21,3.07-1.36,4.1-.11.1.15.09.21.04h0Z"/>
    </g>
    <g>
      <path d="M205.55,428.55c-.47-3.04,3.91-4.14,5.89-6.49,1.51-1.79,1.67-4.57,3.52-6.02,1.33-1.04,3.41-1.31,4.03-2.89.36-.92.05-1.95.17-2.93.47-3.73,6.57-4.69,6.91-8.44.31-3.37-4.5-6.13-3.18-9.24.41-.97,1.37-1.66,1.64-2.68.55-2.04-1.8-3.58-3.76-4.38-2.74-1.12-5.47-2.23-8.21-3.35,4.52-4,10.21-6.65,16.18-7.54,2.19-.33,4.53-.4,6.51.6s3.42,3.35,2.73,5.45c-.2.62-.57,1.18-.67,1.82-.45,2.82,4.2,5.21,2.72,7.65-.34.57-.97.93-1.29,1.5-.96,1.68,1.1,3.82.42,5.63-.6,1.57-2.79,1.8-3.86,3.09-.65.78-.8,1.85-1.19,2.78-.54,1.3-1.55,2.35-2.53,3.36-2.79,2.88-5.59,5.76-8.38,8.63-1.98,2.03-4.14,4.17-6.93,4.68-.55,5.33-5.89,9.69-11.22,9.16"/>
      <path d="M205.69,428.51c-.26-2.44,2.34-3.65,4.02-4.84s2.55-2.46,3.31-4.3c.5-1.2,1-2.48,2.05-3.32.93-.73,2.12-1.01,3.07-1.71,1.89-1.4.59-3.72,1.65-5.53,1.59-2.73,6.41-3.7,6.44-7.34.02-1.88-1.37-3.45-2.32-4.95-.52-.82-1.06-1.74-1.1-2.73-.06-1.4.97-2.17,1.59-3.28,1.01-1.82-.43-3.38-1.94-4.3-1.2-.73-2.56-1.18-3.85-1.71-1.52-.62-3.04-1.24-4.56-1.86-.29-.12-.91-.2-.98-.56s.28-.48.56-.71c.63-.51,1.28-1,1.95-1.46,1.13-.78,2.31-1.48,3.53-2.11,2.77-1.43,5.76-2.43,8.83-2.98s6.68-.76,8.88,1.74c.9,1.02,1.44,2.43,1.15,3.79-.22,1.02-.91,1.85-.76,2.94.25,1.83,1.93,3.08,2.69,4.67.48,1,.37,1.85-.38,2.68-.63.7-1.18,1.21-1.14,2.22.05,1.31.93,2.49.81,3.82-.14,1.52-1.65,2.05-2.78,2.72-.89.53-1.47,1.16-1.84,2.14-.31.8-.5,1.61-.93,2.36-.49.85-1.17,1.58-1.84,2.29-2.41,2.55-4.89,5.04-7.34,7.56s-4.73,5.29-8.19,6.01c-.03,0-.11.04-.12.08-.65,5.33-5.67,9.5-11.04,9.06-.1,0-.28.14-.1.15,2.81.23,5.55-.74,7.7-2.54,1.16-.97,2.12-2.18,2.79-3.54.28-.58.51-1.18.67-1.8.1-.38.09-.89.36-1.19s.73-.32,1.1-.46c3.42-1.28,5.92-4.58,8.38-7.11,1.56-1.61,3.13-3.22,4.69-4.83,1.21-1.24,2.6-2.48,3.39-4.05.45-.91.58-1.98,1.13-2.84.51-.79,1.35-1.2,2.15-1.64,1.05-.58,2.02-1.24,2.07-2.55.06-1.49-1.17-2.94-.73-4.43.37-1.25,1.88-1.69,1.75-3.17-.25-2.7-3.9-4.13-2.77-7.15.59-1.59.9-2.82,0-4.4-.76-1.32-2.02-2.21-3.46-2.64-3.51-1.06-7.76.08-11.11,1.24-3.92,1.36-7.53,3.48-10.65,6.2-.03.02-.04.07,0,.09,2.93,1.2,5.97,2.27,8.83,3.63,1,.48,2.07,1.11,2.71,2.05.96,1.41.18,2.57-.69,3.76-2.56,3.53,2.41,6.2,2.63,9.62.25,3.84-5.03,4.82-6.53,7.77-.41.81-.4,1.61-.39,2.5.01.76.02,1.51-.45,2.15-.54.74-1.47,1.09-2.26,1.49-1.66.82-2.57,1.92-3.29,3.61-.56,1.31-1.04,2.66-2.07,3.68-.87.86-1.95,1.49-2.95,2.19-1.38.96-2.77,2.09-2.57,3.93,0,.09.28.03.27-.07h0Z"/>
    </g>
    <g>
      <path d="M212.1,432.39c3.92,1.47,8.79-.3,10.84-3.95.69-1.22,1.09-2.6,1.9-3.74,2.37-3.3,7.52-3.7,9.72-7.12,1.2-1.86,1.25-4.27,2.37-6.18,2.24-3.81,7.97-4.53,9.94-8.48.5-1.01.72-2.18,1.42-3.06,1.12-1.41,3.17-1.76,4.41-3.06,1.64-1.72,1.48-4.67,3.22-6.29,1.04-.96,2.63-1.32,3.37-2.53,1.29-2.1-.91-5.18.53-7.18.56-.78,1.55-1.16,2.13-1.94,1.38-1.87-.49-4.5-2.57-5.53-2.64-1.31-5.68-1.55-8.62-1.76-.69-.05-1.38-.1-2.07-.15-3.51-.25-7.68-.21-9.71,2.66-.4.56-.67,1.38-.24,1.92.22.28.58.41.92.53,2.49.86,4.98,1.72,7.47,2.59-1.88,1.02-1.56,3.8-.78,5.8.78,1.99,1.69,4.43.34,6.09-.68.84-1.88,1.33-2.12,2.38-.19.81.28,1.63.32,2.47.11,2.49-3.15,3.41-5.02,5.05-1.31,1.15-2,2.83-2.9,4.33-1.03,1.73-2.36,3.26-3.69,4.78-1.2,1.38-2.4,2.75-3.6,4.13-3.35,3.84-6.7,7.68-10.29,11.3-2.52,2.54-5.16,4.97-7.9,7.28"/>
      <path d="M212.02,432.47c2.41.85,5.07.62,7.34-.55,1.12-.57,2.14-1.36,2.93-2.34.97-1.19,1.42-2.64,2.14-3.98,1.53-2.88,4.66-3.81,7.3-5.37,1.01-.6,1.98-1.31,2.69-2.25.94-1.25,1.28-2.77,1.71-4.24.51-1.72,1.26-3.13,2.64-4.29,1.14-.96,2.46-1.67,3.74-2.43,2.2-1.31,3.99-2.7,4.94-5.15.41-1.05.8-1.99,1.72-2.69.67-.51,1.45-.85,2.18-1.27,1.19-.68,2.01-1.54,2.54-2.81.57-1.35.81-2.89,1.72-4.07s2.65-1.53,3.62-2.74c1.98-2.5-1.27-5.91,1.48-8.19.91-.75,1.86-1.38,1.87-2.68s-.86-2.46-1.78-3.26c-2.44-2.12-6.23-2.37-9.31-2.6-2.91-.22-6-.64-8.87.12-1.03.27-2.03.72-2.84,1.42-.71.61-1.9,1.97-1.15,2.95.28.38.78.5,1.2.65,1.01.36,2.02.7,3.03,1.05.93.32,1.87.65,2.8.97.16.06,1.11.26,1.13.53,0,.04-.4.35-.45.41-1.85,2.14.07,5.32.66,7.52.22.82.37,1.72.18,2.56-.25,1.1-1.03,1.65-1.81,2.35-1.11,1-.95,1.79-.7,3.18.6,3.31-3.7,4.19-5.47,6.19-1.13,1.28-1.77,2.9-2.68,4.33-1.11,1.72-2.48,3.24-3.82,4.78-5.4,6.2-10.72,12.5-16.74,18.12-1.48,1.38-3,2.72-4.55,4.03-.12.1.14.11.22.05,8.16-6.89,15.08-14.99,22.06-23.03,1.46-1.68,2.84-3.4,3.92-5.36.49-.88.95-1.79,1.58-2.58.78-.98,1.81-1.61,2.85-2.26s2.42-1.45,2.86-2.73c.29-.86-.01-1.57-.15-2.42-.26-1.65.89-2.1,1.85-3.1,1.51-1.59.85-3.85.18-5.67-.73-1.97-1.8-5.03.46-6.44.06-.04.07-.1,0-.12-2.33-.81-4.67-1.61-7-2.43-1.11-.39-1.93-.99-1.29-2.22.23-.43.58-.82.94-1.15.86-.8,1.98-1.26,3.11-1.52,1.92-.44,3.92-.34,5.88-.21,2.3.16,4.64.26,6.91.72,2.14.44,4.39,1.2,5.72,3.03.57.79.98,1.78.74,2.77-.29,1.21-1.51,1.63-2.27,2.46-.96,1.04-.8,2.43-.6,3.72.13.85.33,1.74.21,2.6-.18,1.32-1.16,2.02-2.23,2.65-1.33.77-2.19,1.57-2.78,3.02-.8,1.98-1.11,3.92-3.06,5.14-1.37.86-2.91,1.35-3.72,2.85-.45.82-.66,1.75-1.09,2.57s-1.05,1.5-1.74,2.1c-2.33,2-5.5,2.93-7.5,5.35-1.19,1.44-1.52,3.23-2.07,4.96-.66,2.06-1.83,3.48-3.67,4.6-1.58.96-3.32,1.63-4.86,2.66s-2.45,2.33-3.2,4.01c-.98,2.18-2.21,3.96-4.4,5.08s-4.73,1.33-7.05.51c-.09-.03-.31.1-.16.15h0Z"/>
    </g>
    <g>
      <path d="M251.47,406.33c-1.41-.79-.89-3.06.34-4.1,1.23-1.05,2.9-1.51,4.02-2.68,1.45-1.52,1.62-3.86,2.76-5.62,1.21-1.87,3.36-2.86,5.1-4.24,1.74-1.38,3.2-3.73,2.26-5.75-.5-1.08-1.66-2.15-1.16-3.23.51-1.1,2.36-1.06,2.8-2.19.49-1.27-1.29-2.36-1.35-3.72-.04-.91.72-1.67,1.55-2.06,2.85-1.35,6.14.34,8.82,1.99,3.13,1.92,6.25,3.84,9.38,5.76.22.13.44.27.61.46.77.86.05,2.34-1.02,2.78s-2.28.22-3.43.13c-1.15-.09-2.47.04-3.19.94-.73.9-.58,2.23-1.05,3.29-1.17,2.59-5.08,2.24-7.25,4.07-1.34,1.14-1.88,3.02-3.24,4.14-1.38,1.14-3.33,1.27-4.92,2.09-2.23,1.16-3.5,3.52-5.02,5.52-1.52,2-3.84,3.88-6.29,3.34"/>
      <path d="M251.57,406.26c-1.95-1.31-.14-3.77,1.24-4.63,1.29-.8,2.71-1.35,3.61-2.64,1.04-1.48,1.25-3.37,2.2-4.89,1.06-1.7,2.82-2.67,4.41-3.8,2.4-1.71,4.35-4.37,2.58-7.22-.71-1.15-1.29-2.32.2-3.15.47-.26,1.02-.42,1.43-.78.87-.74.53-1.67,0-2.51-.48-.77-1.08-1.53-.74-2.48.59-1.63,2.82-1.95,4.32-1.77,2.21.27,4.23,1.52,6.09,2.66s3.81,2.34,5.71,3.51c.95.58,1.91,1.15,2.85,1.75.48.31,1.1.6,1.26,1.19.28,1.04-.7,1.99-1.59,2.28-1.66.54-3.47-.41-5.14.2-1.28.46-1.62,1.52-1.87,2.76-.44,2.19-1.78,3.01-3.79,3.67-1.17.39-2.4.71-3.42,1.42-1.51,1.06-2.04,2.91-3.33,4.17-1.58,1.54-4.03,1.5-5.82,2.7-3.55,2.4-5.25,9.34-10.51,8.45-.1-.02-.32.14-.16.16,3.8.65,6.12-2.92,8.05-5.58.66-.9,1.35-1.78,2.21-2.49,1.09-.91,2.37-1.28,3.69-1.72,1.68-.55,2.83-1.33,3.81-2.81.63-.95,1.17-2,2.11-2.7.88-.65,1.95-.98,2.97-1.31,1.2-.39,2.53-.76,3.44-1.69,1.6-1.64.5-4.53,3.36-5.04,1.73-.31,3.94.73,5.46-.54.89-.75,1.19-2.02.21-2.82s-2.14-1.33-3.17-1.96c-1.16-.71-2.31-1.42-3.47-2.13-3.14-1.93-7.28-5.32-11.25-4.17-1.15.33-2.57,1.23-2.39,2.61.08.67.53,1.21.87,1.77.27.44.62.96.53,1.51-.13.83-.97,1.1-1.61,1.41-1.17.58-1.71,1.41-1.06,2.69.45.88,1.13,1.62,1.23,2.65.14,1.4-.65,2.75-1.55,3.74-1.51,1.67-3.7,2.53-5.26,4.16s-1.78,3.89-2.92,5.77c-1.21,1.99-3.69,2.24-5.08,3.97-.88,1.09-1.23,2.89.08,3.77.08.06.33-.06.21-.14h0Z"/>
    </g>
    <g>
      <path d="M272.5,396.08c1.04-2.48,4.86-2,6.87-3.8,1.23-1.1,1.71-3.03,3.23-3.68,1.82-.78,4.31.68,5.73-.69.95-.93.77-2.66,1.8-3.5.94-.77,2.35-.36,3.46.13,3.8,1.69,7.31,4.02,10.34,6.87.34.32.69.67.8,1.12.26,1.01-.86,1.96-1.91,1.92-1.05-.04-1.95-.72-2.74-1.4-.79-.69-1.61-1.43-2.64-1.65-3.02-.63-5.37,3.57-8.43,3.14-.93-.13-1.79-.7-2.73-.68-2.18.05-3.41,3.1-5.6,3.08-.8,0-1.53-.45-2.3-.69-1.26-.38-2.69-.18-3.8.55-.52.34-.99.8-1.59.93s-1.38-.27-1.31-.89"/>
      <path d="M272.63,396.08c1.04-2.19,3.91-2.1,5.84-3.1,2.36-1.22,2.63-4.6,5.71-4.54,1.56.03,3.49.65,4.56-.88.24-.35.36-.75.5-1.15.09-.25.15-.5.24-.75.35-.93.38-.8,1.49-1.17s1.14-.44,2.17-.03c.25.1.49.21.73.32.78.36,1.55.75,2.31,1.16,2.73,1.49,5.4,3.33,7.62,5.52.61.6,1.15,1.34.55,2.19-1.09,1.54-2.9.35-3.84-.4s-1.77-1.67-2.98-1.92c-1.52-.32-2.91.55-4.11,1.36-.95.64-1.91,1.39-3.03,1.69-1.49.4-2.65-.63-4.08-.58-2.77.1-3.57,3.75-6.67,2.83-1.26-.37-2.22-.81-3.57-.51-.42.1-.83.25-1.21.45-.77.41-2.84,2.05-3.03.25,0-.09-.28-.03-.27.07.08.75.78,1.04,1.46.92.4-.07.75-.33,1.07-.54,1.68-1.11,3.05-1.33,4.95-.66.85.3,1.62.57,2.51.26,1.03-.36,1.78-1.22,2.6-1.91,1.14-.94,2.12-1.15,3.59-.68.5.16.98.34,1.51.36.91.04,1.77-.3,2.55-.73.97-.54,1.83-1.25,2.79-1.8.85-.48,1.78-.85,2.77-.65,1.17.24,2,1.16,2.9,1.88,1.14.92,4.07,2.1,4.61-.25.28-1.23-1.32-2.23-2.1-2.89-1.31-1.12-2.7-2.15-4.16-3.08s-2.96-1.76-4.52-2.47c-.92-.42-1.98-.89-3.02-.72-.86.14-1.41.68-1.74,1.47-.28.66-.37,1.41-.75,2.02-.83,1.33-2.34,1.02-3.6.91-1.07-.09-2.14-.1-3.04.57-1.32.98-1.72,2.75-3.1,3.69-1.99,1.36-5.28,1.03-6.45,3.48-.05.11.21.08.25,0h0Z"/>
    </g>
    <path d="M177.86,490.08c-2.12,1.87,16.23,5.38,15.56,2.64-.67-2.74.73-12.42,2.31-14.76,1.57-2.34-10.86,11.45-12.9-2.06-2.78-.98-3.84,8.5-6.79,8.44-3.83-.08-.21-6.95.52-10.72.73-3.77.36-5.02,1.29-8.74.35-1.4-2.7-3.32-4.09-3.69-.52-.14-1.08,0-1.61.06-2.37.26-4.7-1.21-5.96-3.23-1.26-2.02,4.74-7.23,4.86-9.61.2-4.06-1.3-6.8,1.14-10.06.98-1.31-1.27-1.1-.88-2.69.39-1.59-.4-3.62-2.02-3.84-.96-.13-1.87.39-2.69.9-3.72,2.33-7.39,4.96-9.83,8.6-2.45,3.64-3.49,8.49-1.68,12.49.72,1.58,1.86,3.03,2.01,4.76.18,2.16-1.25,4.14-1.4,6.3-.32,4.36,4.49,8.01,3.78,12.32-.22,1.35-.97,2.55-1.29,3.88-.57,2.37.42,5.03,2.4,6.45,1.19.85,2.65,1.27,3.83,2.13,4.42,3.21,2.89,10.5,6.23,14.84"/>
    <path d="M183.03,394.79c2.45-.42,3.96-2.8,5.6-4.66,2.55-2.9,6.06-4.95,9.85-5.74,2.86-.6,5.93-.52,8.51-1.88,1.49-.78,2.71-1.99,3.99-3.08,4.49-3.81,10.08-6.29,15.92-7.07,1.25-.17,2.55-.27,3.69-.81,1.35-.64,2.35-1.83,3.51-2.78,2.65-2.16,6.3-3.03,9.64-2.3,4.94,1.08,9.56,5.41,14.34,3.77,3.55-1.22,6.47-5.61,9.99-4.28,1.64.62,2.61,2.34,4.14,3.2,3.28,1.84,7.62-.9,11.07.6,2.84,1.24,3.96,4.88,6.73,6.28,1.83.92,4,.68,6.01,1.07,2.01.39,4.17,1.98,3.82,3.99l2.09,2.1c11.76,5.44,19.5,29.08,17.25,28.67-2.24-.41-15.38-13.66-16.34-15.73-6.05-12.97-20.02-15.97-23.87-16.16-3.47-.17-7.04.32-10.34-.76-2.09-.69-4.88,2.04-7.08,2.08-2.97.04-4.76-1.49-7.71-1.78-1.56-.15-2.86,2.73-4.2,1.91-3.52-2.14-8.5-.55-12.3,1.05-3.2,1.35-4.72-2.3-8.02-1.21-2.17.71-2.36,4.92-4.63,5.13-3.29.31-5.57.75-8.5,2.29-5.05,2.66-13.02,1.84-18.08,4.49-3.39,1.78-5.13,8.13-7.72,10.95-3.74,4.08-7.35,5.64-12.37,7.98-2.43-2.73-3.28-6.78-2.14-10.26,1.14-3.48,4.21-6.24,7.79-7.01"/>
    <path d="M180.46,399.85c-.76-1.88-.41-4.02.85-5.61,1.53-1.95,3.66-1.45,5.79-2.07.88-.26,1.74-.71,2.34-1.42.75-.89,1.02-2.06,1.57-3.06,1.08-1.98,2.97-3.55,5.15-4.19,1.11-.33,2.27-.38,3.42-.19s2.32.56,3.54.45c1.77-.15,3.29-1.04,4.46-2.34,1.33-1.47,2.18-3.3,3.32-4.91,1.33-1.89,3.24-3.3,5.52-3.83,5.61-1.28,9.61,4.02,15.08,3.78.39-.02,1.24-.14,1.41-.56s-.14-.58-.56-.57c-2.8.13-5.19-1.54-7.63-2.67-2.06-.96-4.2-1.47-6.48-1.28s-4.53.96-6.41,2.27-3.06,3.07-4.23,4.97-2.44,4.31-4.96,3.95c-1.2-.17-2.32-.51-3.55-.51-1.13,0-2.26.18-3.34.51-2.08.62-3.99,1.77-5.45,3.39-.72.8-1.28,1.7-1.71,2.68-.27.6-.47,1.25-.86,1.8-.6.85-1.4.89-2.34.98-2.3.24-4.39.82-5.92,2.68-1.44,1.75-1.95,4.18-1.1,6.31.28.69,2.37.05,2.13-.57h0Z"/>
    <polygon class="cls-6" points="1163.45 1351.87 1163.45 842.87 -8.77 842.87 148.09 1140.85 1163.45 1351.87"/>
    <path class="cls-3" d="M355.25,614.29c3.48.73,33.92,10.87,43.23,31.63,9.31,20.76,10.54,109.73,15.89,128.28,5.86,19.12,12.52,35.25,17.61,59.44,1.33,6.31.35,2.71.75,9.14l-51.53-.54-21.81,47.22s25.31-134.85,9.63-163.61c-15.67-28.76-13.78-111.57-13.78-111.57Z"/>
    <path class="cls-23" d="M158.96,776.05c2.05-2.85,5.25-11.62,8.8-22.79,28.69,14.14,58.84,24.97,89.99,33.44,24.15,6.56,47.05-1.36,72.13-.09,18.17.91,36.29,10.93,54.69,12.03,7.64,31.65,17.49,48.42,17.49,48.42,0,0,11.17,28.88-4.63,45.54-42.21-12.57-130.59,41.44-173.6,35.81-41.09-5.37-16.83-67.84-55.7-81.36.8-8.2-1.8-18.47-1.05-21.97,8.78-40.89-8.12-49.03-8.12-49.03Z"/>
    <path class="cls-28" d="M192.75,913.78s-10.39,59.97,21.74,64.25c6.58,1.32,98.42,4.67,98.42,4.67l32.16-16.54s44.63-47.38,45.06-47.84c2.67-2.83-13.91-25.12-16.2-27.23-4.82-4.45-9.71-9.65-15.37-12.19-12.5-5.61-36.35-15.47-49.01-20.41-20.77-8.1-30.23-17.57-27.69-14.88,7.92,8.35-43,49.34-43,49.34l-46.11,20.84Z"/>
    <path class="cls-4" d="M714.65,858.21c.47,0-.5-.9-.86-.9-.47,0,.5.9.86.9h0Z"/>
    <polygon class="cls-21" points="467.65 1023.69 55.97 986.46 122.52 832.79 494.28 862.14 467.65 1023.69"/>
    <g>
      <path class="cls-17" d="M478.29,856.48l10.74,6.46-27.99,156.33s-74.15-19.69-96.29-21.39c-50.35-3.85-73.27-4.37-115.93,3.77"/>
      <path class="cls-4" d="M477.67,856.53c2.61,1.57,5.22,3.14,7.83,4.71l2.01,1.21c.17.1.86.51.85.49-.05-.14-.09.24-.1.28-.57,2.32-.85,4.74-1.27,7.09-.88,4.93-1.77,9.86-2.65,14.79-1.21,6.76-2.42,13.51-3.63,20.27-1.4,7.81-2.8,15.62-4.2,23.43-1.47,8.21-2.94,16.42-4.41,24.64s-2.81,15.69-4.21,23.53c-1.2,6.71-2.4,13.42-3.61,20.14-.88,4.92-1.76,9.84-2.64,14.75l-.83,4.61c-.14.77-.44,1.67-.44,2.45,0,.1-.04.21-.05.3l1.07-.07c-6.47-1.72-12.95-3.37-19.43-5.01-13.48-3.41-26.99-6.71-40.56-9.74-11.58-2.59-23.31-5.36-35.13-6.55-10.04-1.01-20.18-1.54-30.25-2.08-9.16-.49-18.34-.82-27.52-.75-17.69.14-35.25,2.03-52.66,5.1-2.51.44-5.01.9-7.51,1.38-.63.12.7.41.97.36,17.76-3.38,35.66-5.84,53.75-6.33,19.61-.53,39.22.88,58.76,2.35,11.81.89,23.42,3.4,34.97,5.93,13.62,2.98,27.17,6.27,40.69,9.66,7.63,1.91,15.24,3.94,22.86,5.87.11.03.22.06.33.09.15.04,1.02.2,1.07-.07.93-5.18,1.86-10.36,2.78-15.54,2.23-12.44,4.46-24.88,6.68-37.32,2.7-15.05,5.39-30.11,8.09-45.16,2.33-13.02,4.66-26.03,6.99-39.05l2.31-12.87.72-4.04c.11-.64.39-1.42.37-2.07,0-.08.03-.18.05-.27,0-.05-.04-.08-.09-.1-3.58-2.15-7.16-4.31-10.74-6.46-.27-.16-1.52-.09-1.23.08h0Z"/>
    </g>
    <g>
      <path class="cls-17" d="M477.09,850.42l8.42,6.46-27.99,156.33s-74.75-23.36-96.89-25.06c-50.35-3.85-90.01-.04-111.81,12.78l1.05-3.47"/>
      <path class="cls-4" d="M476.54,850.83c2.46,1.89,4.92,3.78,7.39,5.67.17.13.79.78,1.01.77-.4.02.08-.49-.1-.31-.09.09-.09.5-.11.61l-1.42,7.95c-2.12,11.83-4.24,23.67-6.36,35.5-2.84,15.87-5.68,31.74-8.53,47.61-2.56,14.3-5.12,28.6-7.68,42.9-.87,4.84-1.74,9.69-2.6,14.53l-.8,4.46c-.14.76-.42,1.62-.43,2.39,0,.09-.04.2-.05.29l.96-.56c-6.51-2.04-13.05-4-19.6-5.94-13.47-4-26.99-7.86-40.59-11.41-6.65-1.74-13.33-3.4-20.05-4.87-5.01-1.1-10.07-2.14-15.18-2.69-10.62-1.14-21.43-1.43-32.1-1.56s-20.93.14-31.35,1.07c-15.74,1.39-32.11,4-46.41,11.07-1.4.69-2.77,1.44-4.11,2.22l1.05.39c.35-1.16.7-2.31,1.05-3.47.23-.77-1.14-.63-1.33.01-.35,1.16-.7,2.31-1.05,3.47-.2.66.73.58,1.05.39,13.28-7.77,29.21-10.75,44.32-12.43,21.41-2.38,43.11-1.91,64.56-.36,11.8.85,23.41,3.89,34.84,6.8,13.7,3.49,27.31,7.35,40.87,11.34,7.7,2.27,15.34,4.81,23.07,6.96.12.03.24.07.36.11.36.11.9-.18.96-.56.93-5.18,1.86-10.36,2.78-15.54,2.23-12.44,4.46-24.88,6.68-37.32,2.7-15.05,5.39-30.11,8.09-45.16,2.33-13.02,4.66-26.03,6.99-39.05.77-4.29,1.54-8.58,2.31-12.87.36-2.02.86-4.07,1.1-6.12.01-.09.03-.18.05-.27.02-.13,0-.32-.11-.41-2.81-2.15-5.61-4.31-8.42-6.46-.54-.41-1.71.37-1.12.82h0Z"/>
    </g>
    <g>
      <path class="cls-17" d="M250.42,995.61s-38.79-38.15-93.46-48.97c-54.68-10.82-84.91,13.42-84.91,13.42l-7.6,19.37s33.2-15.4,75.94-13.74c42.74,1.66,109.04,33.25,109.04,33.25,0,0,9.39-5.59,26.49-11.38,55.24-18.71,106.57-6.07,154.64,12.28,9.74,3.72,15.87,5.14,22.49,8.12l28.81-153.88s-7.68-7.72-18.45-1.17c-39.88,24.26-137.96,92.63-169.03,103.21-39.47,13.44-35.92,27.81-35.92,27.81"/>
      <path class="cls-4" d="M250.97,995.2c-6.2-6.09-13.27-11.43-20.35-16.42-16.32-11.51-34.21-20.96-53.18-27.27-21.52-7.15-44.74-10.23-67.25-6.53-12.31,2.03-24.68,6-35.28,12.7-1.48.94-3.16,1.71-3.81,3.38-2.22,5.66-4.44,11.31-6.65,16.97-.2.51-.4,1.03-.61,1.54-.15.38.42.3.6.21,5.6-2.59,11.58-4.51,17.48-6.24,14.44-4.23,29.41-6.77,44.45-7.4s28.48,1.04,42.54,4.35,26.54,7.38,39.47,12.1c10.15,3.7,20.18,7.73,30.09,12.05,2.77,1.21,5.53,2.44,8.28,3.7.93.43,1.88,1.2,2.88.85.92-.32,1.84-1.02,2.71-1.48,2.33-1.21,4.71-2.34,7.11-3.41,8.2-3.65,16.69-6.72,25.34-9.14,18.28-5.12,37.31-7.11,56.25-6.18,17.63.87,35.06,4.16,52.04,8.88s32.92,11.21,49.44,16.73c3.37,1.13,6.72,2.3,9.98,3.75.41.18,1.11-.24,1.19-.66,1.09-5.82,2.18-11.63,3.27-17.45,2.55-13.6,5.09-27.2,7.64-40.8,2.96-15.79,5.91-31.58,8.87-47.37,2.32-12.39,4.64-24.77,6.96-37.16l1.78-9.53c.07-.36.39-1.18.29-1.55-.4-1.39-3.71-2.64-4.87-3.07-8.64-3.23-16.27,2.96-23.2,7.33s-14.46,9.24-21.65,13.92c-17.54,11.41-35.02,22.94-52.6,34.28s-34.53,22.14-52.24,32.46c-6.89,4.02-13.84,7.94-20.98,11.5s-13.83,5.71-20.86,8.56c-8.37,3.41-17.25,7.66-23.47,14.43-2.38,2.58-4.68,5.91-4.88,9.54-.03.49-.03.99.09,1.47.09.37,1.35-.2,1.23-.69-.37-1.53.41-3.99,1.19-5.57,3.07-6.2,9.62-10.42,15.47-13.61,8.25-4.5,17.27-6.96,25.79-10.82,6.32-2.86,12.45-6.16,18.51-9.55,16.68-9.33,32.87-19.52,48.98-29.8,17.63-11.25,35.12-22.72,52.62-34.17,7.74-5.06,15.49-10.12,23.27-15.12,6.37-4.1,12.7-8.48,19.33-12.14,4.96-2.74,10.74-2.76,15.47.42.41.27.83.56,1.19.89.18.17.39.47.33.23.03.11-.07.28-.07.38-.12,2.27-.87,4.66-1.29,6.89-2.08,11.1-4.15,22.19-6.23,33.29-2.86,15.26-5.71,30.52-8.57,45.78-2.66,14.21-5.32,28.42-7.98,42.64-1.48,7.93-2.97,15.86-4.45,23.79-.07.37-.14.74-.21,1.1l1.19-.66c-5.66-2.52-11.62-4.23-17.45-6.28-7.24-2.55-14.38-5.39-21.65-7.88-14.22-4.87-28.72-9.01-43.5-11.78-30.83-5.78-62.56-4.95-92.54,4.73-9.93,3.21-20.17,6.95-29.19,12.3l.71-.12c-18.55-8.83-37.92-16.32-57.49-22.56-14.84-4.73-30.13-8.84-45.68-10.32-17.94-1.71-36.4.25-53.92,4.29-9.61,2.22-19.44,4.96-28.43,9.12l.6.21c1.92-4.9,3.84-9.79,5.76-14.69l1.39-3.55c.15-.39.78-1.44.16-.8.41-.43,1.03-.76,1.51-1.09,9.28-6.34,20.4-10.19,31.32-12.46,21.84-4.53,44.66-2.29,65.91,4.01,19.42,5.76,37.78,14.94,54.55,26.25,5.64,3.8,11.11,7.86,16.36,12.18,1.67,1.38,3.32,2.78,4.94,4.22.84.74,1.64,1.71,2.56,2.35.12.08.23.22.34.33.3.29,1.48-.44,1.1-.81h0Z"/>
    </g>
    <g>
      <path class="cls-17" d="M249.32,996.15s44.27-30.04,108.57-21.35c64.31,8.69,90.78,27.25,90.78,27.25l27.73-152.46s-55.31-22.9-95.78-26.95c-40.47-4.06-85.03,15.91-85.03,15.91l-46.27,157.61Z"/>
      <path class="cls-4" d="M449.01,1002.86l-.6-.42c-.26-.18-27.15-18.59-90.57-27.17-63.37-8.57-107.8,20.98-108.25,21.27l-1.09.74,46.7-159.09.2-.09c.45-.2,45.14-19.97,85.27-15.95,40.07,4.02,95.36,26.76,95.92,26.99l.35.15-27.93,153.57ZM334.74,972.76c7.4,0,15.16.48,23.22,1.57,58.47,7.9,86.05,24.17,90.38,26.93l27.54-151.38c-4.8-1.96-57.04-22.94-95.29-26.77-38.51-3.86-81.31,14.35-84.59,15.78l-45.85,156.19c6.18-3.82,38.5-22.31,84.61-22.31Z"/>
    </g>
    <g>
      <path class="cls-17" d="M65.65,985.44s39.52-9.49,83.45-5.57c43.93,3.93,99.25,21.78,99.25,21.78l4.19-20.83s-83.96-38.67-120.96-36.56c-37,2.12-57.91,21.27-57.91,21.27l-8.02,19.91Z"/>
      <path class="cls-4" d="M65.86,985.53c6.66-1.6,13.73-2.69,20.6-3.63,16.35-2.23,32.9-3.22,49.4-2.63s33.06,3.09,49.34,6.37c14.01,2.83,27.9,6.24,41.67,10.04,6.88,1.9,13.66,4.11,20.53,6.04.1.03.2.06.3.1.22.07,1.29,0,1.35-.3,1.4-6.94,2.79-13.89,4.19-20.83l-.03-.03c-7.62-3.51-15.37-6.77-23.14-9.95-16.31-6.68-32.86-12.87-49.73-17.98-8.46-2.56-17.02-4.87-25.7-6.54-7.21-1.39-14.62-2.46-21.98-2.14-18.91.82-38.2,6.6-53.94,17.24-1.64,1.11-3.24,2.27-4.77,3.52-.64.52-.94.76-1.24,1.51-2.36,5.86-4.72,11.72-7.08,17.58-.22.56-.45,1.12-.67,1.67.02-.04,1.24.09,1.38-.27,2.38-5.91,4.76-11.82,7.14-17.73.48-1.2.63-1.96,1.53-2.72,1.66-1.39,3.43-2.66,5.22-3.87,7.78-5.21,16.42-9.17,25.36-11.95,10.98-3.41,22.8-5.35,34.31-4.42,9.18.74,18.25,2.73,27.15,5.05,10,2.61,19.86,5.76,29.62,9.17,9.18,3.21,18.28,6.66,27.31,10.28,6.72,2.7,13.41,5.49,20.05,8.38,1.92.84,3.83,1.68,5.74,2.54.35.16,1.94.64,2.09.94s-.38,1.82-.46,2.21l-1.04,5.17c-.76,3.78-1.52,7.57-2.28,11.35-.14.69-.28,1.38-.42,2.07l1.35-.3c-5.77-1.86-11.6-3.54-17.43-5.19-13.42-3.78-26.95-7.19-40.58-10.07-16.17-3.42-32.55-6.18-49.07-7.1-16.96-.95-34.02-.17-50.87,1.89-8.45,1.04-16.97,2.28-25.26,4.24-.12.03-.24.06-.36.08-.95.23-.06.3.42.19Z"/>
    </g>
    <g>
      <path class="cls-17" d="M248.35,1001.65s-67.72-26.49-109.62-28.15c-41.9-1.66-74.28,9.7-74.28,9.7l7.28-15.33s29.64-24.25,83.24-13.42,100.68,23.33,100.68,23.33l-6.03,20.42"/>
      <path class="cls-4" d="M248.4,1001.1c-5.64-2.21-11.36-4.24-17.09-6.23-13.04-4.54-26.23-8.7-39.55-12.32-14.73-4-29.74-7.5-44.95-9.05-17.85-1.83-36.17-.6-53.85,2.3-6.52,1.07-13,2.41-19.4,4.06-2,.52-3.99,1.06-5.97,1.65-1.02.3-2.17.53-3.13.98-.13.06-.27.09-.41.14l.97.95c2.05-4.31,4.1-8.62,6.14-12.93.35-.73.64-1.55,1.07-2.24.16-.26-.12.08.14-.15.52-.47,1.16-.86,1.74-1.25,8.15-5.53,17.66-9.2,27.18-11.54,8.15-2.01,16.54-3.03,24.93-3.17,10.9-.19,21.6,1.27,32.26,3.45,21.76,4.44,43.43,9.33,65.01,14.54,7.21,1.74,14.41,3.52,21.6,5.34,3.38.86,6.79,2,10.22,2.63.15.03.31.08.46.12l-.69-.98c-2.01,6.81-4.02,13.62-6.03,20.42-.18.6.96,1.43,1.15.77,2.01-6.81,4.02-13.62,6.03-20.42.14-.47-.26-.87-.69-.98-8.85-2.35-17.75-4.56-26.65-6.73-20.99-5.13-42.06-9.95-63.2-14.37-11.22-2.35-22.38-4.58-33.87-4.95-8.9-.29-17.85.37-26.59,2.13-10.68,2.14-21.3,5.85-30.54,11.71-1.12.71-2.88,1.52-3.61,2.68-1.17,1.84-1.94,4.09-2.88,6.05-1.22,2.57-2.45,5.15-3.67,7.72-.22.47-.44.93-.66,1.4-.24.51.5,1.12.97.95,7.54-2.64,15.49-4.35,23.33-5.83,17.79-3.34,36.25-4.91,54.33-3.64,14.93,1.05,29.71,4.29,44.17,8.03s27.4,7.77,40.88,12.37c6.87,2.34,13.62,4.98,20.46,7.38.1.04.2.08.3.12.86.34.74-.86.09-1.11h0Z"/>
    </g>
    <g>
      <path class="cls-17" d="M249.42,998.93s-68.8-30.75-110.7-32.41c-41.9-1.66-74.28,12.9-74.28,12.9l7.28-18.53s29.64-24.25,83.24-13.42c53.6,10.82,100.68,23.33,100.68,23.33l-6.03,20.42"/>
      <path class="cls-4" d="M249.68,998.57c-5.68-2.54-11.44-4.88-17.22-7.18-13.15-5.23-26.48-10.05-40-14.24-14.68-4.55-29.71-8.57-45.01-10.35-17.92-2.09-36.41-.47-54.01,3.28-6.65,1.42-13.24,3.17-19.7,5.31-2.04.68-4.07,1.39-6.09,2.16-1.07.41-2.23.76-3.24,1.3-.13.07-.28.12-.41.18l1.12.52c1.74-4.44,3.49-8.87,5.23-13.31.66-1.67,1.16-3.61,2.04-5.19-.14.26-.11.11.11-.03.26-.16.49-.37.74-.55,7.37-5.32,16.13-8.87,24.82-11.33,18.47-5.23,38.09-5.03,56.82-1.27,22.5,4.52,44.89,9.57,67.19,14.94,7.47,1.8,14.93,3.64,22.38,5.53,3.53.9,7.07,2.05,10.65,2.74.15.03.31.08.46.12l-.61-.55c-2.01,6.81-4.02,13.62-6.03,20.42-.16.53,1.22.83,1.38.27,2.01-6.81,4.02-13.62,6.03-20.42.09-.31-.41-.49-.61-.55-9.23-2.45-18.5-4.74-27.77-7.01-21.8-5.32-43.69-10.3-65.67-14.85-11.26-2.33-22.46-4.25-34-4.28-8.79-.02-17.59.87-26.15,2.86-10.09,2.34-20.16,6.09-28.8,11.89-.66.44-1.4.88-1.99,1.42-.52.48-.68,1.25-.93,1.91-2.05,5.22-4.1,10.43-6.15,15.65-.17.44-.34.87-.51,1.31-.18.47.86.64,1.12.52,7.45-3.35,15.5-5.63,23.41-7.57,17.72-4.35,36.42-6.48,54.65-5.04,15.1,1.2,30,5,44.48,9.3s27.48,8.95,40.94,14.2c6.9,2.69,13.67,5.66,20.52,8.46.1.04.19.08.29.13.67.3,1.38-.34.52-.72h0Z"/>
    </g>
    <g>
      <path class="cls-17" d="M296.28,839.37l-46.41,158.09s-64.01-40.15-111.22-40.15-75.56,18.24-75.56,18.24l64.79-144.49s38.91-25.83,102.13-16.63c63.21,9.2,66.28,24.93,66.28,24.93Z"/>
      <path class="cls-4" d="M295.69,839.03c-1.54,5.24-3.07,10.47-4.61,15.71-3.69,12.58-7.39,25.16-11.08,37.74-4.47,15.22-8.94,30.44-13.4,45.66-3.86,13.16-7.73,26.33-11.59,39.49-1.28,4.36-2.56,8.72-3.84,13.08l-1.18,4.03c-.18.62-.61,1.46-.62,2.12,0,.09-.06.19-.08.27h.62c-5.79-3.63-11.8-6.93-17.83-10.13-13.49-7.17-27.39-13.64-41.72-18.95-15.55-5.76-31.97-10.48-48.63-11.14-10.12-.4-20.39.43-30.4,1.97-8.34,1.28-16.59,3.18-24.63,5.75-5.59,1.79-11.09,3.89-16.41,6.39-1.66.78-3.3,1.6-4.91,2.48-.79.43-1.79.83-2.48,1.42-.09.07-.2.12-.3.18l1.06.9c1.82-4.07,3.65-8.13,5.47-12.2,4.48-10,8.97-20,13.45-30,5.68-12.67,11.36-25.34,17.04-38.01,5.36-11.95,10.72-23.91,16.08-35.86,3.58-7.97,7.15-15.95,10.73-23.92.63-1.41,1.13-3.08,1.97-4.39.07-.11.2-.21.52-.41.93-.58,1.88-1.12,2.84-1.64,10.59-5.79,22.25-9.74,33.99-12.43,21.63-4.96,44.07-5.28,65.98-2.01,11.02,1.65,22.02,3.71,32.75,6.74,6.62,1.87,13.21,4.09,19.35,7.2,3.24,1.64,6.46,3.55,9.09,6.09,1.04,1.01,2.18,2.34,2.63,3.48.06.16.13.32.17.49.08.38,1.26,1.05,1.15.49-.16-.79-.68-1.55-1.13-2.2-1.45-2.08-3.45-3.77-5.49-5.24-4.04-2.89-8.59-5.05-13.18-6.88-7.89-3.15-16.14-5.37-24.42-7.21-23.25-5.16-47.12-7.76-70.87-4.88-15.26,1.85-30.42,5.72-44.44,12.12-3.09,1.41-6.15,2.94-9.06,4.7-.9.55-1.03.76-1.46,1.72-2.79,6.22-5.58,12.45-8.37,18.67-5.06,11.28-10.12,22.57-15.18,33.85-5.79,12.92-11.59,25.85-17.38,38.77-5,11.14-9.99,22.29-14.99,33.43-2.67,5.95-5.33,11.89-8,17.84-.12.27-.25.55-.37.82-.16.36.73,1.11,1.06.9,5.77-3.71,12.4-6.35,18.82-8.67,16.87-6.1,34.82-9.13,52.73-9.51s33.74,3.49,49.82,9.01c14.94,5.13,29.4,11.63,43.42,18.89,7.2,3.73,14.24,7.71,21.19,11.87.1.06.2.12.3.18.16.1.54.27.62,0,1.54-5.24,3.07-10.47,4.61-15.71,3.69-12.58,7.39-25.16,11.08-37.74,4.47-15.22,8.94-30.44,13.4-45.66,3.86-13.16,7.73-26.33,11.59-39.49,1.28-4.36,2.56-8.72,3.84-13.08.59-1.99,1.46-4.09,1.8-6.14.02-.09.05-.18.08-.27.11-.38-1.05-1.15-1.18-.69Z"/>
    </g>
    <path class="cls-4" d="M421.93,1006.33c.97,0,.23-.45-.32-.45-.97,0-.23.45.32.45h0Z"/>
    <path class="cls-8" d="M264.51,852.92c1.39.03,2.58.93,2.75,2.14.19,1.33-.92,2.54-2.47,2.7-.41.06-1.51.64-2.17.98-1.05.55-2.14,1.11-3.29,1.44-3.82,1.09-8.18,1.65-13.33,1.7-4.27.05-7.86-.66-11.33-1.34-1.33-.26-2.69-.53-4.13-.76-5.21-.84-11.67-.32-13.55,2.82-1.31,2.18-1.21,5.09.23,6.77.93,1.08.66,2.6-.6,3.4-1.26.8-3.03.56-3.96-.52-2.71-3.16-3-8.05-.7-11.88,3.45-5.76,12.74-6.49,19.64-5.37,1.51.25,2.94.53,4.34.8,3.3.65,6.41,1.27,10,1.22,4.62-.05,8.31-.51,11.6-1.46.55-.16,1.36-.58,2.15-.99,1.41-.73,2.86-1.49,4.43-1.65.14-.01.27-.02.4-.02Z"/>
    <path class="cls-8" d="M291.04,901.63c-10.28,3.98-32.46-1.11-40.08-8.96-8.39-8.63-7.73-37.43,1.74-44.19,9.77-6.98,59.25,4.15,61.5,14.71,2.47,11.63-11.39,33.88-23.16,38.44Z"/>
    <path class="cls-8" d="M255.83,876.72c-16.38-6.22-36.56-1.72-48.33,9.53-4.98,4.76,2.58,11.27,9.24,5.95,9.82-7.85,19.59-5.32,31.02-.98,6.81,2.59,14.88-11.92,8.08-14.5h0Z"/>
    <path class="cls-12" d="M283.43,901.43c-7.04,3.42-21.69.08-26.48-5.84-5.27-6.51-3.68-29.08,2.93-34.65,6.82-5.75,39.51,1.51,40.6,9.71,1.19,9.03-8.98,26.87-17.04,30.78Z"/>
    <path class="cls-17" d="M248.24,904.47c.77-2.37,3.1-3.89,5.21-3.39,2.1.5,3.18,2.84,2.41,5.21-.77,2.38-3.1,3.89-5.2,3.39-2.1-.5-3.18-2.83-2.41-5.21Z"/>
    <path class="cls-12" d="M300.53,870.75c-.24-2.75-1.53-5.42-3.62-7.52,0,.36.01.73.02,1.09-1.3-1.14-2.59-2.28-3.89-3.42,0,.56-.01,1.13-.02,1.69-1.84-1.71-3.87-3.28-6.04-4.68-.04.68-.44,1.61-1.21,1.45-.22-.05-.4-.19-.56-.32-.42-.33-.83-.66-1.25-1-.34-.27-.71-.56-1.17-.63-.41-.06-.82.07-1.21.19-1.25.39-2.5.79-3.75,1.18.15-.58.3-1.16.45-1.74-2.06.05-4.11.29-6.11.71.14-.5.28-1,.42-1.5-1.9.29-3.76.8-5.5,1.53.18-.71.36-1.42.54-2.12-2.67,1.25-5.09,2.87-7.15,4.78-.89.82-1.75,1.97-1.22,2.99.43.83,1.58,1.15,2.61,1.35,2.45.5,4.94.85,7.44,1.06"/>
    <polygon class="cls-17" points="277.81 912.96 280.02 910.57 276.65 911.91 277.81 912.96"/>
    <path d="M242.92,889.47s-2.15-4.21-1.32-8.08c0,0-3.18.94-4.17,6.71l5.49,1.37Z"/>
    <path d="M235.42,887.61s-3.16-3.71-3.32-7.65c0,0-2.87,1.51-2.39,7.33l5.71.32Z"/>
    <path d="M227.87,887.36s-4.42-2.6-6.1-6.26c0,0-2.12,2.24.59,7.59l5.51-1.33Z"/>
    <path class="cls-12" d="M216.25,888.98c.66-1.32-.06-2.84-1.59-3.4-1.53-.56-3.31.05-3.97,1.36-.66,1.32.06,2.84,1.59,3.4,1.53.56,3.31-.05,3.97-1.36Z"/>
    <path class="cls-12" d="M209.29,889.28c.6-.33.77-1.01.38-1.52s-1.18-.66-1.78-.33c-.6.33-.77,1.01-.38,1.52s1.18.66,1.78.33Z"/>
    <path class="cls-12" d="M210.64,892.17c.6-.33.77-1.01.38-1.52s-1.18-.66-1.78-.33c-.6.33-.77,1.01-.38,1.52s1.18.66,1.78.33Z"/>
    <path class="cls-12" d="M214.01,893.2c.6-.33.77-1.01.38-1.52-.39-.51-1.18-.66-1.78-.33-.6.33-.77,1.01-.38,1.52.39.51,1.18.66,1.78.33Z"/>
    <path d="M314.84,865.31c-5.21.31-9.55,2.45-9.55,2.45,3.39-.4,6.68.02,9.47.69.09-1.08.12-2.13.08-3.14Z"/>
    <path d="M314.98,849.44c-5.21.31-9.55,2.45-9.55,2.45,3.39-.4,6.68.02,9.47.69.09-1.08.12-2.13.08-3.14Z"/>
    <path d="M260.61,835.85c4.27,2.58,6.7,6.33,6.7,6.33-2.66-1.84-5.73-2.95-8.52-3.61.58-.97,1.19-1.88,1.82-2.72Z"/>
    <path d="M309,883.84c-4.77-1.83-9.77-1.69-9.77-1.69,3.21,1.01,5.88,2.71,7.98,4.43.67-.92,1.27-1.83,1.79-2.74Z"/>
    <path d="M312.77,875.09c-5.07-1.08-9.96-.2-9.96-.2,3.36.52,6.35,1.79,8.76,3.17.47-1.01.88-2,1.21-2.96Z"/>
    <path d="M250.47,850.28c4.27,2.58,6.7,6.33,6.7,6.33-2.66-1.84-5.73-2.95-8.52-3.61.58-.97,1.19-1.88,1.82-2.72Z"/>
    <path d="M244.29,868.73c5.18.55,9.38,2.88,9.38,2.88-3.36-.55-6.67-.29-9.5.25-.02-1.08.02-2.13.12-3.14Z"/>
    <path d="M246.34,859.57c4.99,1.32,8.65,4.25,8.65,4.25-3.19-1.05-6.51-1.29-9.4-1.17.2-1.07.45-2.1.76-3.07Z"/>
    <g class="cls-14">
      <polygon points="235.27 854.65 242.03 855.57 240.51 863.74 233.76 862.82 235.27 854.65"/>
      <polygon points="222.16 853.48 229 853.32 229.25 861.59 222.42 861.74 222.16 853.48"/>
      <polygon points="209.09 861.61 212.95 856.77 220.91 861.45 217.04 866.29 209.09 861.61"/>
      <polygon points="210.75 875.39 209.04 869.71 218.38 867.65 220.08 873.33 210.75 875.39"/>
    </g>
    <path class="cls-3" d="M384.63,726.77s-3.53,11.57-5.32,29.48c-.91,9.09-1.57,18.29-2.03,27.26-17.09.82-34.12,5.79-51.13,7.26-24.54,2.13-48.94-.91-73.15-4.81-32.73-5.26-64.45-13.09-95.06-24.71,4.99-27.12,9.48-57.12,9.48-57.12,2.74-10.61-5.16-23.8-5.16-23.8l-24.39-33.65c1.87-16.63,24.89-33.79,50.84-50.19,5.47-3.46,28.71-18.27,33.58-22.57,0,0,28.93,38.38,75.28,35.56,1.71-.1,4.65,27.27,6.36,27.38,1.56.11,1-29.7,2.38-29.87,30.74-3.86,14.43-28.4,14.43-28.4,0,0,34.47,11.6,49.82,27.53,21.94,22.75,18.64,95.16,18.64,95.16l-4.56,25.49Z"/>
    <path class="cls-3" d="M387,660.99c.79,11.37-16.28,75.16-16.28,75.16,0,0,17.3,26.93,35.18-2.82,0,0,1.21-43.16-3.33-70.06-5.2-30.81-20.59-46.62-32.02-57.15-11.43-10.53-35.49-12.79-35.49-12.79"/>
    <path class="cls-23" d="M185.51,758.26c21.87,3.78,48.33,7.3,76.08,8.6,70.05,3.28,118.15-9.06,118.15-9.06,0,0,3.01,32.63,4.84,40.83,0,0-78.47,10.44-132.64,5.48-22.98-2.1-48.32-5.96-69.91-9.7.62-12.08,2.16-24.11,3.49-36.14Z"/>
    <path class="cls-27" d="M422.27,856.6c-.07-.11-.14-.21-.22-.31-.03-.04-.04-.06-.05-.07,0,0-.01-.01-.04-.05-.04-.05-.07-.1-.1-.15-2.89-.65-4.75-1.05-4.75-1.05,6.89.64,8.81-6.97,8.81-6.97,0,0-7.94-1.96-17.71-3.44-9.77-1.48-26.18-5.33-32.72-4.95-6.54.38-31.39,16.18-31.39,16.18,0,0-2.55-.33-6.71-.9-8.5,12.17-11.45,24.01-15.33,38.25,5.08.77,9.24,1.52,11.9,2.13,12.44,2.87,20.9,6.5,30.44,9.99,9.53,3.49,24.56,9,33.05,5.7,8.49-3.3,7.73-6.42,7.73-6.42,0,0,3.31,1.51,10.65-6.6,4.84-5.36.09-9.91.09-9.91,0,0,1.19-.76,4.47-4.15,4.25-4.41-1.2-10.53-1.2-10.53,0,0,.28.02.77.05,0,0,5.68-3.1,5.41-8.96-.27-5.85-3.11-7.82-3.11-7.82Z"/>
    <path class="cls-29" d="M404.31,904.08c-.15.04-.49.11-.13.04-.17.03-.35.07-.52.1-.2.03-.41.07-.61.09-.05,0-.34.04-.13.02-.12.01-.24.03-.36.04-1.1.13-2.2.21-3.3.27-1.03.05-2.06.08-3.08.05-.79-.02-1.41-.02-2.12-.26-.53-.18-1.31.09-1.79.33-.26.12-.85.5-.31.67.79.26,1.68.28,2.5.31,1.23.04,2.47,0,3.7-.06,2.11-.11,4.35-.21,6.39-.8.24-.07,1.28-.35,1.17-.74s-1.2-.11-1.39-.06h0Z"/>
    <path class="cls-29" d="M415.55,886.97c-3.56.71-7,.87-10.62.87-.55,0-1.37.19-1.7.68s.28.68.68.68c3.79,0,7.54-.18,11.27-.92.44-.09,1.36-.28,1.47-.83s-.77-.55-1.09-.48h0Z"/>
    <path class="cls-29" d="M418.8,872.26c-3.96-.66-7.93-.77-11.92-.32-.57.06-1.34.4-1.41,1.06s.67.94,1.2.88c3.79-.42,7.5-.33,11.26.3.6.1,1.41-.21,1.67-.8s-.24-1.03-.79-1.12h0Z"/>
    <path class="cls-29" d="M421.56,855.05c-2.77-1.09-5.96-1.28-8.88-1.73-3.26-.49-6.53-.96-9.8-1.4-6.54-.88-13.1-1.64-19.67-2.3-1.2-.12-2.64,1.6-.91,1.77,6.41.64,12.8,1.39,19.18,2.24,3.11.41,6.21.85,9.31,1.32s6.4.62,9.27,1.75c1.02.41,2.99-1.06,1.5-1.65h0Z"/>
    <path class="cls-3" d="M214.73,820.68s-.08-91.69-1.1-133.51l-71.93-5.6-13.67,35.75c2.7,46.38,5.1,126.11,33.76,159.18,35.45,40.91,162.29,23.36,162.29,23.36l13.32-44.97-122.66-34.22Z"/>
    <path class="cls-11" d="M213.43,820.52c-9.76,2.26-17,11.84-16.3,21.85.07.96,2.25.45,2.17-.58-.62-8.93,5.78-17.79,14.52-19.81,1.35-.31.96-1.77-.39-1.46h0Z"/>
    <path class="cls-3" d="M218.04,635.48s9.93,19.84,12.16,49.78c1.93,25.86,5.95,52.33,5.95,52.33,0,0-61.72,16.87-106.64-3.44,0,0-5.74-53.96,8.87-91.89,5.54-14.39,34.71-31.66,48.39-40.11,13.69-8.45,42.08-13.72,42.08-13.72"/>
    <path class="cls-11" d="M202.35,652.5c5.55,7.53,8.6,16.47,10.75,25.49,1.47,6.17,2.15,12.44,2.52,18.76.87,14.98.36,30.06-.51,45.04-.41,7.06-.92,14.12-1.6,21.16-.02.24,2.11.05,2.17-.58,1.31-13.63,2.11-27.33,2.41-41.02.17-7.52.17-15.05-.17-22.56-.28-6.16-.73-12.39-1.99-18.44-2.08-10-5.3-20.12-11.42-28.42-.37-.51-2.32.39-2.17.58h0Z"/>
    <path class="cls-11" d="M381.22,761.88c2.72-11.93,4.16-24.18,5.41-36.34,1.43-13.83,2.44-27.72,2.89-41.62.21-6.31.31-12.63.08-18.93-.02-.54-2.2-.15-2.17.58.44,12.2-.17,24.46-.97,36.63-.91,13.83-2.2,27.65-4.13,41.37-.88,6.24-1.88,12.48-3.28,18.63-.15.65,2.01.32,2.16-.33h0Z"/>
    <path class="cls-11" d="M286.3,619.66c-6.48.58-13.09-.78-19.31-2.53-7.24-2.04-14.26-4.87-20.99-8.23-6.03-3.02-11.95-6.46-17.2-10.72s-9.81-8.5-14.53-12.91c-.99-.93-2.42-1.93-3.14-3.11l-.31.86c4.05-2.89,8.1-5.78,12.15-8.68l-1.7.04c3.43,4.21,7.46,8.02,11.54,11.59,8.99,7.87,19.08,14.6,30.15,19.15,7.28,2.99,14.95,4.96,22.8,5.6.95.08,2.27-1.28.8-1.4-13.42-1.09-26.12-6.26-37.4-13.45-8.1-5.17-15.58-11.36-22.22-18.31-1.26-1.32-2.52-2.66-3.67-4.08-.37-.46-1.3-.24-1.7.04-4.05,2.89-8.1,5.78-12.15,8.68-.3.21-.52.51-.31.86.57.93,1.67,1.72,2.45,2.46,4.62,4.36,9.39,8.58,14.21,12.71,5.11,4.38,10.94,7.9,16.9,10.99,6.76,3.5,13.83,6.46,21.12,8.67s14.76,3.83,22.24,3.16c1.14-.1,1.74-1.52.25-1.39h0Z"/>
    <path class="cls-11" d="M317.69,604.22c2.72-1.15,5.25-2.9,6.74-5.51,1.17-2.05,1.57-4.46,1.45-6.8-.14-2.63-1.03-4.97-1.89-7.42-.72-2.06-1.45-4.13-2.17-6.19l-1.98.71c2.02.78,4.03,1.56,6.05,2.34l4.18,1.61c.4.15.79.33,1.19.46.11.04.26.07.36.14.21.14-.17-.2-.08-.05.44.79.65,1.84.87,2.71.51,1.94.81,3.95.89,5.95.22,5.27-1.37,10.1-4.23,14.49s-6.96,7.12-11.91,8.74c-.23.07-.85.31-.65.62.19.28,1.2-.06,1.4-.12,4.47-1.46,8.67-3.71,11.68-7.4s5.26-8.4,5.76-13.27c.41-3.92-.1-8.03-1.44-11.74-.21-.58-.31-.69-.88-.91-1.18-.46-2.37-.92-3.55-1.37-2.62-1.01-5.24-2.03-7.87-3.04-.3-.12-2.15.22-1.98.71.91,2.61,1.76,5.26,2.77,7.83,1.29,3.27,1.84,7.12.7,10.51s-3.61,5.4-6.68,6.71c-.35.15-.57.33-.27.57s1.24-.16,1.52-.28h0Z"/>
    <path class="cls-11" d="M285.09,610.31c1.85,8.01,3.71,16.02,5.56,24.02,2.95,12.75,5.9,25.51,8.85,38.26.67,2.91,1.35,5.83,2.02,8.74.06.26.45.29.66.29h10.21c.39,0,1.65-.25,1.52-.88-1.72-8.09-3.45-16.17-5.17-24.26-2.74-12.83-5.47-25.66-8.21-38.49-.63-2.94-1.25-5.88-1.88-8.82-.05-.25-.46-.3-.66-.29-3.8.18-7.59.36-11.39.53-.4.02-1.26.14-1.44.58-.16.42.14.61.58.59,3.8-.18,7.59-.36,11.39-.53l-.66-.29c1.72,8.09,3.45,16.17,5.17,24.26,2.74,12.83,5.47,25.66,8.21,38.49.63,2.94,1.25,5.88,1.88,8.82l1.52-.88h-10.21l.66.29c-1.85-8.01-3.71-16.02-5.56-24.02-2.95-12.75-5.9-25.51-8.85-38.26-.67-2.91-1.35-5.83-2.02-8.74-.16-.7-2.34-.15-2.17.58Z"/>
    <path class="cls-11" d="M315.06,604.79c-.38,8.66-.75,17.33-1.13,25.99-.59,13.7-1.19,27.41-1.78,41.11-.14,3.15-.27,6.3-.41,9.45l2.17-.58c-2.28-10.68-4.55-21.36-6.83-32.04l-1.58-7.43c-.17-.78-.45-1.61-.47-2.4-.05-1.81.27-3.71.41-5.51l.75-10.12c.41-5.51.81-11.03,1.22-16.54l-.99.64c3.28-.83,6.55-1.67,9.83-2.5.18-.05,1.11-.32.99-.64s-.98-.11-1.18-.06c-3.28.83-6.55,1.67-9.83,2.5-.29.07-.97.26-.99.64-.77,10.49-1.55,20.99-2.32,31.48-.06.75.02,1.23.17,1.98l1.35,6.34c1.45,6.79,2.89,13.58,4.34,20.36.99,4.63,1.97,9.26,2.96,13.89.11.49,2.15-.04,2.17-.58.38-8.66.75-17.33,1.13-25.99.59-13.7,1.19-27.41,1.78-41.11.14-3.15.27-6.3.41-9.45.01-.34-2.15-.07-2.17.58Z"/>
    <path class="cls-27" d="M1009.69,513.21c-3.95-52.92-48.64-104.34-85.05-90.7-18.43,6.91-12.79,13.44-12.79,13.44-20.69,70.91-30.71,242.11-32.38,280.07,6.7,2,7.64.06,13.75,3.45,21.4,11.86,39.18,24.68,51.81,45.5,6.27,10.33,22.49,20.72,25.61,32.56,22.98-25.02,26.56-64.28,32.7-96.27,9.24-48.15,13.22-96.91,17.8-145.63,3.55-37.77-8.62-4.44-11.46-42.43Z"/>
    <path class="cls-27" d="M855.38,823.07s52.58,6.62,89.31-5.36c36.73-11.98,49.16-60.18,50.3-90.77,1.17-31.39-126.39-10.77-126.39-10.77l-13.23,106.91Z"/>
    <path class="cls-16" d="M927.26,385.33c-19.81,5.62-33.13,33.77-33.13,33.77-9.66,18.61-17,62.47-17.24,83.31l-12.22,119.45s66.35,17.54,105.26,22.27c38.91,4.73,75.46-4.88,75.46-4.88l-1.53-110.86s-2.62-27.97-15.94-63.14"/>
    <path class="cls-19" d="M916.93,419.04c-9.42,2.77-16.96,9.6-22.98,17.13-4.12,5.15-7.77,10.78-10.71,16.69-4.53,9.13-7.29,18.87-9.11,28.87-2.23,12.25-3.2,24.74-3.43,37.18-.16,8.6-1.02,17.21-1.62,25.79-1.08,15.5-2.16,31.01-3.24,46.51-.45,6.48-.9,12.97-1.35,19.45-.23,3.35-.65,6.75-.7,10.11,0,.16-.02.31-.03.47.04.08.1.12.19.13,7.51,2.14,15.01,4.36,22.56,6.37,15.47,4.12,31.09,7.75,46.8,10.8,10.26,1.99,20.58,3.72,30.96,4.99,7.86.96,15.84,1.82,23.77,1.79,12.57-.05,25.21-.47,37.71-1.87,3.5-.39,7-.86,10.44-1.58,2.62-.55,5.31-1.18,7.72-2.37.62-.31,1.64-.7,1.84-1.39.26-.9.15-2.07.22-3l.72-10.05c.05-.72.1-1.45.16-2.17.02-.25-.81-.13-.89-.12-6.11,1.31-12.38,2.07-18.59,2.72-15.46,1.62-31.06,1.99-46.58,1.04-9.89-.61-19.75-1.76-29.49-3.55-9.24-1.7-18.44-3.64-27.64-5.52-12.48-2.55-24.94-5.16-37.38-7.91-3.3-.73-6.6-1.47-9.9-2.22-1.38-.32-2.76-.72-4.15-.97-.06-.01-.12-.03-.17-.04-.47-.11-1.11.05-1.52.27-.18.1-.75.46-.26.58,3.82.92,7.65,1.77,11.48,2.62,11.66,2.6,23.35,5.07,35.06,7.48,18.62,3.84,37.24,8.07,56.21,9.69,16.33,1.4,32.8,1.29,49.12-.17,5.24-.47,10.46-1.08,15.66-1.86,2.44-.37,5.05-.6,7.43-1.28.11-.03.22-.04.33-.07l-.89-.12c-.37,5.12-.74,10.23-1.11,15.35l.25-.33c-1.75,1.28-4.04,1.82-6.11,2.31-3.2.75-6.48,1.22-9.74,1.61-7.6.91-15.25,1.36-22.89,1.66-5.07.2-10.14.32-15.22.35-7.25.04-14.54-.67-21.73-1.49-19.74-2.26-39.29-6.2-58.61-10.73-8.94-2.09-17.87-4.28-26.7-6.8-5.47-1.56-10.94-3.12-16.41-4.68-.15-.04-.52-.07-.65-.18-.05-.04.15.23.16.06.01-.24.03-.47.05-.71l.24-3.42c.76-10.9,1.52-21.8,2.28-32.7.96-13.81,1.92-27.62,2.88-41.43.48-6.95,1.15-13.92,1.45-20.88.21-4.85.2-9.71.49-14.57.34-5.66.86-11.3,1.6-16.92,1.48-11.14,3.77-22.42,8.24-32.78,1.85-4.29,4.09-8.44,6.57-12.4,4.39-7.02,9.63-13.72,16.13-18.91,3.35-2.67,7.12-4.94,11.25-6.15.18-.05,1.12-.31.99-.64s-.99-.11-1.18-.05h0Z"/>
    <path d="M287.53,949.1c.79-1.88,2.3-3.32,4.25-3.95,2.21-.71,4.06-.05,6.01,1.01s3.95,1.72,6.23,1.35c2.07-.33,3.97-1.25,5.85-2.15,1.67-.79,3.56-1.82,5.47-1.59,2.33.27,4.06,2.17,6.49,2.29,2.08.1,4.03-.72,5.85-1.65s3.88-2.34,6.08-1.96c1.44.25,2.76,1.01,4.12,1.51,1.5.55,3.06.82,4.65.84,3.23.04,6.37-.89,9.42-1.85.56-.18,1.37-.67,1.18-1.38s-1.16-.78-1.72-.61c-2.93.92-6.04,1.95-9.16,1.67-2.8-.25-5.13-2.06-7.92-2.35-2.27-.23-4.41.6-6.39,1.61-1.82.93-3.97,2.49-6.12,1.93-1.12-.29-2.09-1-3.13-1.47s-2.17-.72-3.34-.72c-2.16,0-4.22.85-6.15,1.75-1.83.86-3.78,2.05-5.85,2.13-2.42.1-4.29-1.88-6.55-2.48-4.67-1.25-10.16,1.23-12.04,5.74-.64,1.53,2.27,1.52,2.77.33h0Z"/>
    <path d="M360.59,944.74c1.48-.6,3.15.4,4.39,1.14,1.57.94,3.03,2.04,4.67,2.86s3.49,1.31,5.41,1.16c2.3-.18,4.41-1.14,6.63-1.66,4.36-1.02,7.73,2.46,11.81,3.28,1.02.2,2.04.24,3.07.14,1.32-.13,2.61-.52,3.92-.13,2.2.65,4.11,2.39,6.14,3.44,4.82,2.47,10.16,3.81,15.57,3.93.64.01,1.59-.19,1.9-.85.28-.61-.24-1.05-.84-1.06-5.07-.11-10.06-1.33-14.56-3.68-2.11-1.1-4.03-2.75-6.3-3.51-2.43-.82-4.74.33-7.16-.06-2.13-.34-4.03-1.56-5.97-2.41s-4.07-1.43-6.28-1.16c-2.36.29-4.51,1.35-6.83,1.75-2.06.35-3.82-.41-5.55-1.45-3.56-2.13-6.9-4.96-11.25-3.21-.49.2-1.12.8-.72,1.35s1.43.34,1.95.14h0Z"/>
    <path d="M430.63,938.97c-4.52-1.45-9.04-2.9-13.56-4.35-2.25-.72-4.51-1.45-6.84-1.84-2.13-.35-4.27-.33-6.42-.41-2.37-.09-4.46-.54-6.59-1.6-1.75-.87-3.44-1.88-5.36-2.34-3.66-.88-7.71-.01-10.91,1.89-.51.3-.32.52.16.59.63.09,1.51-.23,2.05-.55,3.57-2.11,7.19-.77,10.57.99,1.61.84,3.22,1.56,5.03,1.87s3.63.3,5.44.35c4.15.12,7.97,1.33,11.89,2.59s8.1,2.6,12.16,3.9c.59.19,1.49-.13,2.02-.38.28-.14.97-.52.37-.71h0Z"/>
    <path d="M369.72,925.52c-2.29-1.15-4.8-1.76-7.36-1.78-1.21,0-2.43.11-3.62.34-.67.13-1.35.41-2.03.34-.73-.09-1.23-.56-1.75-1.05-1.45-1.37-2.85-2.28-4.87-2.52s-3.91.05-5.82.39c-2.07.37-4.15.92-6.27.92-2.4,0-4.1-1.03-6.02-2.33s-3.7-1.87-5.96-1.2c-.96.28-1.84.74-2.63,1.36-.84.67-1.63,1.78-2.68,2.11-1.36.43-3.19-.19-4.55-.45-1.45-.28-2.91-.47-4.4-.47-3.13,0-6.17.69-9.07,1.86-.38.15-.85.45-.37.71s1.58-.2,2.02-.38c2.66-1.07,5.59-1.27,8.41-.81,2.27.38,4.51.99,6.83.68,2.19-.29,3.92-1.23,5.53-2.7.31-.28.69-.73,1.07-.91.51-.25,1.03.01,1.53.25.99.47,1.85,1.18,2.76,1.78,3.34,2.21,7.17,1.75,10.92,1.05s7.45-1.63,10.46,1.29c.74.72,1.47,1.44,2.53,1.63,1.29.24,2.56-.26,3.81-.51,2.98-.59,6.11.05,8.8,1.4.53.26,1.35,0,1.86-.19.12-.04,1.3-.57.87-.79h0Z"/>
    <path d="M433.64,919.77c-2.2-1.95-4.63-3.62-7.29-4.88-2.39-1.13-5.51-2.65-8.01-1.03-.47.3-.79.76-1.22,1.09-.49.37-.64.24-1.24-.11-1.15-.66-2.09-1.63-3.24-2.3-2.52-1.48-5.57-1.28-8.38-1.3-.61,0-1.61.19-1.9.83-.27.6.23.98.82.99,2.78.02,5.59-.2,7.96,1.51,1.88,1.36,3.65,3.02,6.15,2.33.51-.14,1-.37,1.44-.68s.77-.86,1.21-1.12c.47-.27.13-.12.61-.05.35.05.7.21,1.03.32.72.25,1.42.54,2.11.85,2.65,1.2,5.1,2.81,7.28,4.74.84.74,3.56-.4,2.68-1.19h0Z"/>
    <rect class="cls-7" x="404.33" y="779.77" width="9.23" height="64.68" transform="translate(149.38 -59.32) rotate(10.14)"/>
    <path class="cls-27" d="M615.99,737.6l276.77-27.75s6.03-7.72,7.19-10.76c12.56,9.92,20.04,3.68,27.16,18.32,5.95,12.26,5.3,27.98,4.62,41.4-.41,8.12-1.18,16.22-1.99,24.32-.59,5.93.25,16.02-2.9,21.03-1.37,2.18,16.55,7.92,14.54,9.43-19.17,14.4-63.51,10.03-85.98,9.49-14.04-.34-28.06-1.03-42.07-2-27.77-1.94-55.46-5-83.04-8.85-26.1-3.65-51.12-3.92-77.02-8.81-22.96-4.33-46.83-7.52-69.67-12.5-9.47-2.07-18.94-9.83-28.4-11.96l60.8-41.35Z"/>
    <path class="cls-29" d="M909.26,755.13c2.84-9.08,1.87-18.58-3.33-26.61-4.14-6.4-10.42-11.51-17.36-14.62-2.69-1.21-5.69-2.25-8.67-2.23-.38,0-1.27.15-1.44.57s.14.56.57.56c2.42-.01,4.85.85,7.04,1.77,3.16,1.32,6.12,3.1,8.84,5.18,6.4,4.91,11.5,11.71,13.2,19.7,1.13,5.34.61,10.81-1.01,16-.21.66,1.95.38,2.16-.3h0Z"/>
    <path class="cls-27" d="M516.81,805.21c-1.15-.05-8.99.29-10.05-.17-3.85-1.65-5.83-3.75-6.76-7.12-.31-1.41-1.68-7.27-1.52-8.68.31-2.74-.09-.92-2.59-2.08l-3.22-1.49c-1.24-.58-2.33-1.49-2.99-2.69-1.37-2.48-2.35-5.15-2.92-7.93-.73-4.77,5.59-12.41,5.59-12.41l-3.64-1.07c-3.94-1.98-5.08-3.7-5.37-8.11l-.06-2.09c.26-2.07.84-4.08,1.71-5.95,1.38-2.99.38-6.49-2.32-8.37-2.27-1.58-4.42-3.56-4.74-5.57-.48-7.91,3.65-15.35,10.56-19.14.45-.25.93-.43,1.42-.58,13.18-4.03,26.61-7.17,40.21-9.42.95-.15,15.44-6.36,16.26-6.78,6.8,3.45.56,10.68,8.42,10.52,7.25-.15,14.44-1.33,21.66-1.9,2.33-.18,4.59.94,5.94,2.85,0,.01.02.02.03.04.38.54.84,1.02,1.37,1.43l35.06,27.22c2.07,1.61,13.73-.14,13.82,2.48,1.02,28.63-4.93,61.79-4.08,61.82.95.04-21.7-5.39-28.7-1.3,0,0-46.38,8.18-83.08,6.48Z"/>
    <path class="cls-27" d="M537.19,707.14c.78-1.38,6.52-9.37,6.46-11.07-.02-.47-.07-.94-.16-1.41-2.76-13-3.54-26.33-2.31-39.56,2.11-14.24,10.04-18.02,15.32-19,2.24-.4,4.39,1.1,4.78,3.34.04.23.06.47.06.71-.16,9.26.26,18.52,1.27,27.73.88,4.59,11.87,26.04,18.73,39.15-13.39-.56-32.7,6.99-44.16.11Z"/>
    <path class="cls-29" d="M631.93,799.07c-18.82-2.2-37.94-1.79-56.65,1.27-5.3.87-10.57,1.94-15.79,3.21-1.34.33-.96,1.74.38,1.42,18.13-4.43,36.87-6.34,55.53-5.62,5.27.2,10.53.62,15.77,1.23,1.03.12,2.23-1.35.77-1.52h0Z"/>
    <path class="cls-29" d="M627.15,734.31c-2.42.06-4.9-.33-7.3-.6-1.46-.16-2.92-.34-4.37-.56-1-.15-2.06-.25-2.98-.68-2.04-.94-3.71-2.68-5.37-4.17s-3.31-3.03-4.94-4.58c-3.48-3.31-6.9-6.68-10.31-10.06-3.6-3.56-7.19-7.14-10.85-10.64-.57-.54-2.62.28-2.01.86,6.94,6.63,13.62,13.51,20.56,20.13,1.64,1.56,3.29,3.11,4.97,4.64s3.36,3.21,5.3,4.4c2.23,1.36,5.09,1.44,7.62,1.75,2.9.35,5.92.86,8.84.78.43-.01,1.24-.13,1.43-.6.18-.43-.15-.68-.6-.67h0Z"/>
  </g>
</svg>