<?xml version="1.0" encoding="UTF-8"?>
<svg id="Layer_3" data-name="Layer 3" xmlns="http://www.w3.org/2000/svg" xmlns:xlink="http://www.w3.org/1999/xlink" viewBox="0 0 1163.28 1163.33">
  <defs>
    <style>
      .cls-1, .cls-2, .cls-3, .cls-4 {
        fill: none;
      }

      .cls-5 {
        fill: #aeadae;
      }

      .cls-6 {
        fill: #171514;
      }

      .cls-2 {
        stroke: #3db3c5;
        stroke-dasharray: 3.94 3.94;
        stroke-width: 3px;
      }

      .cls-2, .cls-3, .cls-4 {
        stroke-miterlimit: 10;
      }

      .cls-7 {
        fill: #f1edf6;
      }

      .cls-8 {
        fill: url(#linear-gradient);
      }

      .cls-9 {
        fill: #a36a28;
      }

      .cls-10 {
        fill: #083d49;
      }

      .cls-3 {
        stroke: #ae5926;
      }

      .cls-11 {
        fill: #a66e53;
      }

      .cls-12 {
        fill: #3db3c5;
      }

      .cls-13 {
        fill: #663d2e;
      }

      .cls-14 {
        clip-path: url(#clippath-1);
      }

      .cls-15 {
        fill: #020202;
      }

      .cls-4 {
        stroke: #1c527f;
        stroke-width: 2px;
      }

      .cls-16 {
        fill: #a66f54;
      }

      .cls-17 {
        fill: #0a3d44;
      }

      .cls-18 {
        fill: #232f35;
      }

      .cls-19 {
        fill: #43231b;
      }

      .cls-20 {
        fill: #177b93;
      }

      .cls-21 {
        fill: #301912;
      }

      .cls-22 {
        fill: #135a60;
      }

      .cls-23 {
        fill: #653e2b;
      }

      .cls-24 {
        fill: #136572;
      }

      .cls-25 {
        clip-path: url(#clippath);
      }
    </style>
    <clipPath id="clippath">
      <circle class="cls-1" cx="585.15" cy="583.84" r="581.59"/>
    </clipPath>
    <linearGradient id="linear-gradient" x1="587.34" y1="794" x2="574.05" y2="-369.12" gradientUnits="userSpaceOnUse">
      <stop offset=".11" stop-color="#bbe5f5"/>
      <stop offset=".63" stop-color="#76c7db"/>
    </linearGradient>
    <clipPath id="clippath-1">
      <path class="cls-1" d="M786.12,250.33c4.18-58.9-14.29-96.05-58.39-117.69-62.37-72.56-192.57-60.07-273.16-42-56.49,12.67-84,64.07-96.42,99.03-24.06,25.43-28.51,43.01-30.8,58.19-1.48,9.83,2.26,31.4,2.26,31.4-15.65,25.97-3.46,92.71,6.31,121.04,3.55,10.28,19.2,42.99,28.34,50.57-6.14-43.59,86.58-171.84,170.86-209.42,12.67-5.65,27.26-9.41,42.77-11.33,97.04,20,145.92,72.62,164.24,112.92,20.43,44.93,22.33,96.74,22.33,96.74,0,0,13.53,11.08,32.89-83.59,7.64-37.38,2.81-73.19-11.22-105.88Z"/>
    </clipPath>
  </defs>
  <g class="cls-25">
    <circle class="cls-8" cx="584.94" cy="583.84" r="581.59"/>
    <path class="cls-18" d="M383.2,746.93c-.11.95-.21,1.9-.32,2.85-.3,2.7-.6,5.41-.9,8.11-.47,4.27-.95,8.54-1.42,12.81-.63,5.67-1.26,11.34-1.89,17.01l-2.27,20.51c-.87,7.83-1.74,15.66-2.61,23.49-.96,8.67-1.92,17.35-2.89,26.02-1.03,9.26-2.05,18.51-3.08,27.77-1.07,9.68-2.15,19.36-3.22,29.04-1.1,9.96-2.21,19.92-3.31,29.87-1.1,9.96-2.21,19.93-3.31,29.89-1.09,9.82-2.18,19.64-3.27,29.46-1.06,9.52-2.11,19.05-3.17,28.57-.99,8.96-1.99,17.92-2.98,26.88-.91,8.25-1.83,16.49-2.74,24.74-.82,7.37-1.63,14.74-2.45,22.11-.69,6.24-1.38,12.49-2.08,18.73-.55,4.96-1.1,9.92-1.65,14.88-.39,3.5-.78,7-1.16,10.5-.2,1.82-.4,3.63-.6,5.45-.03.23-.05.45-.08.68-.1.88,1.62.67,1.71-.12.11-.95.21-1.9.32-2.85.3-2.7.6-5.41.9-8.11l1.42-12.81c.63-5.67,1.26-11.34,1.89-17.01.76-6.84,1.52-13.67,2.27-20.51.87-7.83,1.74-15.66,2.61-23.49.96-8.67,1.92-17.35,2.89-26.02,1.03-9.26,2.05-18.51,3.08-27.77l3.22-29.04c1.1-9.96,2.21-19.92,3.31-29.87,1.1-9.96,2.21-19.93,3.31-29.89,1.09-9.82,2.18-19.64,3.27-29.46s2.11-19.05,3.17-28.57c.99-8.96,1.99-17.92,2.98-26.88.91-8.25,1.83-16.49,2.74-24.74.82-7.37,1.63-14.74,2.45-22.11.69-6.24,1.38-12.49,2.08-18.73.55-4.96,1.1-9.92,1.65-14.88.39-3.5.78-7,1.16-10.5.2-1.82.4-3.63.6-5.45.03-.23.05-.45.08-.68.1-.88-1.62-.67-1.71.12h0Z"/>
    <path class="cls-13" d="M1004.6,716.85s3.48,11.12,8.03,15.09c4.55,3.97,32.8,19.67,32.8,19.67,0,0-31.59-12.24-36.04-16.46-4.46-4.23-4.88-19.92-4.88-19.92"/>
    <path class="cls-11" d="M941.89,589.58l4.41,96.77-4.55,18.26s9.76,50.97,13.12,61.35c3.36,10.37,37.38,58.3,37.38,58.3l-11,58.76,93.88-.6s5.25-51.83,9.52-59.11c3.58-10.68,3.89-22.19.88-33.05-2.18-10.02-11.93-70.82-11.93-70.82,0,0,11.8-75.9-4.3-73.22-3.91,1.14-7.69,2.69-11.27,4.64,0,0-5.87,49.25-11.48,52.19l-10.17-1.52s-7.3-68.88-11.04-80.86c-3.73-11.97-9.29-19.26-18.82-17.07,0,0-5.63,5.35-5.09,8.53.54,3.18,10.75,79.23,6.39,79.41-4.36.19-5-6.81-5-6.81,0,0-10.2-92.71-13.3-97.4-3.49-6.42-11.28-9.14-18-6.28l.74,52.99s-7.11-42.08-16.35-46.44c-4.58-2.61-10.35-1.8-14.04,1.96Z"/>
    <path class="cls-22" d="M1086.63,861.23l-101.71-23.33-30.06,153.93-23.83-104.84c-15.85-69.72-89.76-125.89-136.08-146.68-1.14-.51-2.4-.71-3.61-1.06l-70.61-21.58,121.81,500.36,18.79,36.58c12.63,21.98,32.97,38.49,57.09,46.3,44.44,14.75,85.94-4.72,112.23-42.13,20.28-28.86,31.57-63.08,34.14-98.25"/>
    <path class="cls-22" d="M304.4,1391.67s-.91,2.08-2.57,6.08c26.35,1.11,52.7,2.46,79.03,4.01,34.49,2.02,68.97,4.36,103.43,6.92,34.52,2.56,69.03,5.33,103.53,8.21,34.47,2.87,68.93,5.85,103.4,8.81,34.42,2.96,68.85,5.9,103.29,8.73,1.56.13,3.13.25,4.69.38-.41-2.43-.75-4.87-1-7.31-1.25-12.2-.82-24.58.97-36.71,29.88-202.53,52.77-257.75,53.64-288.01,1.25-43.51-67.49-365.72-67.49-365.72l-100.66-34.44-7.31,5.23-2.44-1.42s-.49,3.46,0,5.69l.42,3.01c-16.58,29.32-47.32,50.86-83.46,53.8-12.51,1.02-24.77,1.09-36.42.38-39.78-2.45-69.77-21.67-92.86-54.16l-.76-13.06-74.6,21.43-57.4,20.93-33.33,616.34,7.9,30.91Z"/>
    <path class="cls-17" d="M794.52,1255.69c.77-7.73,1.29-15.54.71-23.29-.24-3.23-.85-6.12-.28-9.18.34-1.85,1.01-3.62,1.74-5.35s1.4-3.42,2.39-4.96c.31-.48.65-.94.99-1.4.21-.27-.15.19.11-.14.1-.12.19-.24.29-.36.22-.26.43-.52.66-.78.98-1.13,2-2.22,3.05-3.3,5.87-6.03,12.08-11.71,17.78-17.92,7.5-8.16,14.3-17.02,19.66-26.74,6.38-11.56,10.63-24.24,12.36-37.34,2.19-16.66.37-33.65-3.94-49.83-1.41-5.29-3.18-10.46-4.78-15.69-1.67-5.44-3.21-10.92-4.62-16.44-2.45-9.65-4.47-19.41-5.89-29.27-2.1-14.57-2.95-29.41-1.5-44.08.88-8.9,2.6-17.8,5.73-26.2,1.23-3.3,2.98-7.04,5.05-10.23.09-.13.18-.26.28-.39.56-.72-.43-1.31-1.02-1.39-.92-.13-1.85.28-2.4,1-1.61,2.08-2.78,4.6-3.84,6.98-3.17,7.11-5.15,14.73-6.41,22.39-2.12,12.96-2.18,26.22-1.09,39.28,1.65,19.79,6.01,39.31,11.78,58.29,2.99,9.86,6.19,19.55,7.96,29.73,1.44,8.23,2.15,16.59,1.91,24.95-.4,13.86-3.44,27.59-9.17,40.23-4.74,10.45-11.17,20.04-18.6,28.77-5.9,6.93-12.42,13.25-18.91,19.62-2.3,2.26-4.62,4.53-6.69,7s-3.5,5.26-4.77,8.37-2.17,6.35-1.94,9.88c.31,4.68.79,9.28.69,13.99-.1,4.69-.46,9.37-.93,14.03-.17,1.73,3.51,1.25,3.66-.23h0Z"/>
    <path class="cls-22" d="M121.34,1219.61l-11.83-63.37,76.53-274.76c7.68-28.66,52.84-101.69,108.62-123.21l64.66-25.06-54.44,512.09-13.78,38.75c-9.6,23.46-27.58,42.52-50.45,53.46-42.09,20.51-85.81,6.7-116.82-26.88-23.93-25.92-39.65-58.34-46.86-92.86"/>
    <path class="cls-17" d="M333.63,1260.42c-.8-8.04-1.33-16.17-.61-24.24.3-3.42.74-6.65-.24-10-1.05-3.6-2.57-7.38-4.84-10.4-1.97-2.63-4.32-4.97-6.63-7.3-6.91-6.96-13.91-13.8-20.13-21.39-8.09-9.87-14.89-20.8-19.56-32.7-5.84-14.9-8.09-30.99-7.28-46.94.51-10.02,2.16-19.96,4.64-29.68,1.49-5.85,3.31-11.62,4.91-17.44s3.1-11.7,4.48-17.6c4.06-17.4,7.23-35.2,7.72-53.11.29-10.46-.29-21.22-3.31-31.3-1.61-5.37-3.95-10.72-7.7-14.95-1.64-1.85-3.64-3.68-5.96-4.65-.1-.04-.19-.08-.29-.12-.8-.28-1.82-.42-2.65-.16-.6.19-.78.61-.05.86.11.04.21.08.31.13.4.17.02,0,.1.04.16.09.32.17.48.26.45.26.89.55,1.31.86.26.19.52.39.77.59.45.37.33.26.7.61,3.54,3.3,6,7.62,7.77,12.08,3.4,8.56,4.5,17.98,4.77,27.12.48,16.06-1.71,32.16-4.79,47.89-2.19,11.19-4.92,22.28-7.98,33.26-3,10.78-6.18,21.4-7.76,32.51-2.38,16.7-1.78,33.84,2.88,50.1,3.68,12.84,9.78,24.84,17.6,35.64,6.23,8.6,13.49,16.34,21,23.83,2.75,2.74,5.54,5.44,8.17,8.31,1.87,2.04,3.68,4.16,4.85,6.69,1.72,3.71,3.5,7.56,3.38,11.74-.05,1.75-.29,3.5-.44,5.24-.26,3.02-.35,6.04-.31,9.07.07,4.99.45,9.97.94,14.93.1.99,3.82.97,3.74.23h0Z"/>
    <path class="cls-17" d="M955.52,996.04c-1.24,4.34-2.43,8.7-3.61,13.05-2.95,10.88-5.8,21.8-8.54,32.74-3.6,14.35-7.01,28.75-10.15,43.21s-6.08,29.27-8.34,44.04c-1.8,11.73-3.4,23.66-3.23,35.55.02,1.12.05,2.23.11,3.35.02.37,2.21.01,2.17-.58-.62-11.35.81-22.84,2.4-34.05,2.08-14.67,4.89-29.24,7.96-43.73,3.09-14.56,6.48-29.07,10.05-43.52,2.84-11.47,5.8-22.92,8.87-34.33.97-3.62,1.96-7.24,2.96-10.85.31-1.1.61-2.2.92-3.3.15-.53.46-1.18.49-1.74,0-.07.04-.15.06-.22.12-.43-1.99-.16-2.14.38h0Z"/>
    <path class="cls-19" d="M949.69,681.36c4.87-10.39,9.75-20.78,14.62-31.17.69-1.47,1.38-2.95,2.07-4.42l-1.67.58c3.04.5,6.06,2.25,8.33,4.27,2.46,2.18,4.31,4.94,5.49,8,1.82,4.74,1.89,9.73,1.78,14.74-.19,8.24-.75,16.59-2.48,24.67-.2.93-.61,1.94-.65,2.88-.08,1.74.3,3.62.44,5.35.47,5.67.93,11.34,1.4,17.02.02.19.29.3.43.34,4.56,1.43,9.12,3.72,13.37,6.08,10,5.55,19.1,12.8,26.46,21.56,5.27,6.28,9.58,13.3,12.76,20.86.34.82,2.49.17,2.17-.58-5.4-12.85-14.04-24.04-24.8-32.85-7.16-5.86-15.15-10.78-23.66-14.41-1.63-.7-3.29-1.38-4.99-1.92l.43.34c-.41-4.99-.82-9.98-1.23-14.98-.19-2.35-.36-4.71-.58-7.05-.05-.52-.08,0,.05-.45.16-.54.28-1.09.41-1.64,1.75-7.65,2.34-15.6,2.59-23.42.17-5.19.37-10.46-1.17-15.49-1-3.28-2.7-6.38-5.09-8.86-2.62-2.72-6.35-5.1-10.15-5.72-.5-.08-1.42.03-1.67.58-4.87,10.39-9.75,20.78-14.62,31.17-.69,1.47-1.38,2.95-2.07,4.42-.47,1,1.71.82,2.04.11h0Z"/>
    <path class="cls-19" d="M1000.44,701.75c4.1-.62,8.31-.72,12.44-.67,9.49.1,19.06,1.43,28.08,4.45,6.1,2.04,11.91,4.88,17.16,8.61.58.42,2.55-.45,2.03-.82-15.6-11.1-35.86-14.47-54.66-13.13-1.57.11-3.15.23-4.71.47-.32.05-1.22.26-1.25.7s.6.44.92.4h0Z"/>
    <path class="cls-11" d="M670.58,693.17c-2.09-6.65-.24-77.39-.24-77.39l-104.65,16.09-104.65-16.09s2.09,78.12,0,84.77c-2.09,6.65-12.39,6.78-12.39,6.78,0,0,18.15,89.65,117.04,83.18,102.45-6.7,123.68-85.41,123.68-85.41,0,0-16.7-5.28-18.79-11.92Z"/>
    <circle class="cls-1" cx="581.59" cy="581.59" r="581.59"/>
    <path class="cls-16" d="M670.77,689.64c-2.07-6.56-.23-67.39-.23-67.39l-103.67,15.97-103.67-15.97s2.05,68.11,0,74.62c-2.05,6.51-21.37,10.31-21.37,10.31,0,0,34.88,100.97,125.04,100.97s123.65-103.93,123.65-103.93c0,0-17.69-7.97-19.74-14.58Z"/>
    <path class="cls-19" d="M455.37,628c1.74,1.24,4.65,28.2,6.49,29.45,24.97,10.69,40.12,32.97,115,34.77,48.56,1.32,70.84-20.96,92.95-32.77,0,0,1.46-33.22,4.55-35.42-70.06-.29-148.82,3.52-218.99,3.97Z"/>
    <path class="cls-16" d="M385.51,419.12s-19.88-30.51-31.1-29.26c-6.87.73,9.02,16.17,10.96,33.69,2.59,23.48-14.67,26.39-9.23,39.63,5.44,13.24,12.49,59.43,30.66,57.46,7.21-.78,14.59-16.74,14.59-16.74,0,0-9.95-63.91-15.89-84.78Z"/>
    <path class="cls-16" d="M738.89,420.86s16.69-32.37,28.02-32.29c6.92,0-6.01,7.5-6.19,25.07-.26,23.48,15.93,34.28,11.89,48.02-4.04,13.74-6.45,60.36-24.73,60.23-7.26,0-16.22-15.19-16.22-15.19,0,0,3.53-64.51,7.23-85.84Z"/>
    <path class="cls-16" d="M752.16,437.35h0c-4.02,20.45-8.99,41.96-12.44,66.66-9.07,65.13-23.72,129.45-73.56,152.54-49.84,23.09-55.58,24-95.65,25.48-40.04-1.48-55.02-8.54-106.6-28.63-47.51-18.43-61.2-84.34-70.28-149.48-2.02-14.54-4.56-27.94-7.05-40.69-1.89-9.41-3.84-18.58-5.6-27.47v-.49c-6.38-32.71-10.37-62.88-1.5-99.32,9.02-37.69,40.23-84.55,87.63-114.04h0c29.84-18.7,64.34-28.63,99.55-28.64,102.77,0,173.03,82.94,187.39,142.84,8.92,37.19,4.72,67.83-1.89,101.24Z"/>
    <path class="cls-15" d="M579.9,529.51c-5.96,3.37-13.33,3.01-18.95-.91-1.19-.86-5.18,0-3.55,1.27,7.83,5.05,17.8,5.35,25.92.78.73-.47.6-1.06-.26-1.37-1-.34-2.1-.26-3.03.23"/>
    <path class="cls-15" d="M554.71,528.09c-4.39-1.99-9.11-3.17-13.92-3.47-.76-.03-1.52.21-2.13.67-.41.36-.49.83,0,1.14,2.34,1.24,4.97,1.84,7.62,1.74.88.08,1.75-.26,2.36-.91.44-.65-.36-1.06-.98-1.06-2.15.08-4.29-.4-6.19-1.4l-2.07,1.81c4.3.27,8.52,1.32,12.44,3.11.86.33,1.82.22,2.59-.29.52-.29,1.06-.98.31-1.35"/>
    <path class="cls-15" d="M535.82,528.66c-5.08-.03-9.82-2.57-12.65-6.79-3.52-6.35-.26-13.89,5.68-17.96.62-.44.31-1.04-.36-1.19-.92-.14-1.85.1-2.59.65-5.24,3.22-8.24,9.1-7.78,15.24.75,5.57,5.18,9.41,10.99,11.09,1.69.49,3.43.77,5.18.86.73,0,2-.23,2.33-.91s-.31-.96-.98-.98"/>
    <path class="cls-15" d="M585.53,528.09c4.39-1.99,9.11-3.16,13.92-3.47.77-.03,1.53.21,2.15.67.39.36.49.83,0,1.14-2.35,1.24-4.99,1.84-7.65,1.74-.88.08-1.74-.26-2.33-.91-.44-.65.36-1.06,1.01-1.06,2.14.09,4.27-.4,6.17-1.4l2.1,1.81c-4.31.27-8.54,1.32-12.47,3.11-.86.34-1.83.23-2.59-.29-.52-.29-1.09-.98-.31-1.35"/>
    <path class="cls-15" d="M604.45,528.66c5.08-.03,9.82-2.57,12.65-6.79,3.52-6.35.26-13.89-5.68-17.96-.65-.44-.31-1.04.34-1.19.92-.13,1.85.11,2.59.67,5.23,3.24,8.23,9.13,7.78,15.27-.73,5.57-5.18,9.41-10.96,11.09-1.69.49-3.43.77-5.18.86-.75,0-2.02-.26-2.36-.91s.31-.96.98-.98"/>
    <path class="cls-5" d="M620.77,382.29c-4.24,1.77-6.69,6.25-5.89,10.78l.57,3.23h0c.75,4.28,5.26,6.78,9.29,5.16,6.45-2.59,12.07-4.7,16.81-6.37,13.48-4.73,20.26-6.92,28.62-7.13,6.53-.1,13.06.58,19.43,2.01,3.6.6,7.12,1.57,10.51,2.92,7.73,3.27,11.33,7.9,12.38,7.25.97-.61-1.22-4.23-1.7-5.06-.06-.11-.12-.21-.19-.31-4.3-6.69-10.33-12.08-17.44-15.62-.2-.1-.4-.19-.6-.27-6.29-2.58-13-4.02-19.8-4.24-8.27-.47-23.41-.81-51.97,7.65h0Z"/>
    <path class="cls-6" d="M650.95,421.61c4.61-1.96,9.95-.99,13.58,2.46,1.74,1.51,3.01,3.48,3.68,5.68.97,4.07-.14,8.36-2.98,11.43-3.5,3.55-8.87,4.49-13.37,2.36-5.36-2.88-7.99-9.1-6.32-14.95.78-2.99,2.73-5.53,5.42-7.05"/>
    <path class="cls-6" d="M613.16,439s25.35-18.45,38.33-19.65c18.95-1.74,42.27,7.96,48.96,16.61,0,0-30.87-14.49-44.06-12.96-12.83,1.58-43.23,15.99-43.23,15.99Z"/>
    <path class="cls-5" d="M524.88,390.57l-1.11,6.3c-.74,4.22-5.19,6.68-9.17,5.08-6.51-2.62-12.18-4.77-16.91-6.45-13.47-4.64-20.23-6.94-28.6-7.18-6.54-.09-13.06.58-19.44,2.02-3.62.66-7.16,1.71-10.56,3.14-7.76,3.39-11.37,7.91-12.43,7.33s1.55-4.75,1.81-5.18c4.32-6.77,10.4-12.23,17.59-15.79.18-.09.37-.17.56-.25,6.29-2.62,13-4.11,19.81-4.39,8.31-.43,23.1-.93,51.71,7.56l3.09,1.24c2.62,1.05,4.15,3.79,3.65,6.57Z"/>
    <path class="cls-6" d="M488.2,422c-4.72-2.59-10.37-.34-13.61,2.36-1.74,1.5-3.01,3.47-3.65,5.68-.98,4.06.13,8.35,2.95,11.43,3.5,3.55,8.87,4.49,13.37,2.36,5.36-2.88,7.99-9.1,6.32-14.95-.76-2.99-2.71-5.53-5.39-7.05"/>
    <path class="cls-6" d="M525.94,439.37s-25.32-18.43-38.28-19.62c-18.92-1.74-42.27,7.96-48.96,16.61,0,0,30.84-14.49,44.06-12.96,12.67,1.58,43.18,15.97,43.18,15.97Z"/>
    <path class="cls-23" d="M571.19,564.92c-29.57,0-77.5-3.37-77.5-3.37,0,0,8.94,67.39,77.5,67.39s77.5-67.39,77.5-67.39c0,0-47.9,3.37-77.5,3.37Z"/>
    <path class="cls-21" d="M571.48,564.92c-14.07,0-70.78-2.33-70.78-2.33,13.72,25.57,40.64,41.25,69.64,40.59,55.18,0,71.38-40.17,71.38-40.17l-70.24,1.92Z"/>
    <path class="cls-7" d="M572.15,566.96c-14.1,0-57.02-2.36-57.02-2.36,0,0,15.55,14.98,57.64,14.98s55.6-14.54,55.6-14.54l-56.22,1.92Z"/>
    <path class="cls-23" d="M651.98,557.4c-1.5-.34-9.69,2.36-16.67,1.71-11.74-.98-25.92-3.97-34.16-4.59-14.44-1.09-23.48,4.46-29.83,4.46s-15.4-5.55-29.83-4.46c-8.42.62-22.52,3.6-34.16,4.59-7.05.57-15.16-2.05-16.67-1.71-2.07.49,1.94,15.34,80.68,15.34s82.58-14.9,80.63-15.34Z"/>
    <path class="cls-5" d="M397.39,346.92s-20.86,39.1-19.48,56.37c1.38,17.27,11.3,73.13,11.3,73.13,0,0-37.79-30.73-35.82-60.97,1.98-30.24-3.97,6.96-8.46-16.72-4.48-23.69-22.4-48.56-9.71-70.06,12.69-21.5,6.5-38.27,5.21-57.44-1.29-19.17,14.32-72.67,47.49-87.85s34.78-4.79,50.78-15.17c16-10.38,24.07-43.78,51.4-43.78s32.3,6.39,46.62,6.39,53.89-8.78,72.56-6.39,54.35,23.16,54.64,35.94c0,0,12.24-11.18,32.4-7.19,20.16,3.99,46.03,17.12,56.71,45.07,10.68,27.95-3.1,21.38,9.07,42.94,12.17,21.56,36.7,43.31,33.72,65.67s-5.7,11.18-9.43,37.53,3.27,31.51-6.86,66.59c-10.14,35.08-14.66,15.84-15.07,28.82-.42,12.97-21.74,45.35-21.74,45.35,0,0,4.92-27.97,6.13-59.56,2.09-54.78,10.84-54.69,7.66-79.74-3.18-25.05-2.44-9.73-2.44-9.73-17.49-32.17-36.34-49.75-36.34-49.75l-112.5,14.62c-18.87,1.89-37.88,1.68-56.7-.64l-108.06-13.32-43.06,59.89Z"/>
    <path class="cls-19" d="M615.86,446.5c6.48,8.33,14.95,14.88,24.8,18.75,9.65,3.79,20.21,4.89,30.5,3.95,6.26-.57,12.44-1.88,18.43-3.76,1.3-.41.96-1.78-.37-1.36-19.45,6.09-41.4,5.7-58.6-6.27-4.87-3.39-9.12-7.56-12.76-12.23-.56-.72-2.64.1-2,.92h0Z"/>
    <path class="cls-19" d="M523.87,448.28c-6.29,8.09-14.45,14.47-24,18.22-9.33,3.67-19.55,4.67-29.49,3.71-5.95-.57-11.81-1.84-17.51-3.62-.86-.27-2.56.97-1.28,1.37,20.15,6.3,42.99,5.83,60.83-6.5,5.05-3.49,9.49-7.8,13.25-12.64.83-1.07-1.24-1.27-1.79-.55h0Z"/>
    <path class="cls-19" d="M491.23,331.4c20.14,6.29,41.31,7.73,62.3,7.05,18.98-.61,37.84-3.08,56.81-3.9,8.82-.38,17.73-.38,26.45,1.14,1.06.19,2.21-1.32.76-1.57-7.58-1.32-15.33-1.49-23-1.29-8.85.23-17.67.98-26.49,1.72-19.99,1.69-40.06,3.37-60.12,1.89-12.01-.89-23.93-2.91-35.44-6.51-.93-.29-2.56,1.05-1.26,1.46h0Z"/>
    <g>
      <path class="cls-22" d="M448.65,707.32s31.06,85.7,107.37,86.48,110.7-36.34,128.61-91.21l25.83,6.1s-22.14,105.58-138.91,111.81c-116.77,6.23-148.3-107.36-148.3-107.36l25.39-5.82Z"/>
      <path class="cls-17" d="M447.16,706.21c.94,2.6,2.06,5.14,3.21,7.66,2.85,6.22,6.08,12.27,9.62,18.12,4.97,8.2,10.55,16.04,16.82,23.31,7.09,8.22,15.06,15.75,23.95,22,9.6,6.76,20.23,11.98,31.56,15.12,13.59,3.77,27.67,3.98,41.66,3,13.71-.96,27.41-3.4,40.34-8.12,11.12-4.05,21.58-9.83,30.75-17.31s16.19-15.71,22.36-25.14c6.5-9.93,11.63-20.7,15.77-31.81,1.06-2.85,2.06-5.72,3-8.6l-.35.25c7.53,1.78,15.06,3.56,22.58,5.33l3.25.77-2.78-3.94c-.77,3.67-1.95,7.28-3.16,10.81-3.1,9.03-7.06,17.77-11.74,26.09-6.49,11.57-14.43,22.33-23.72,31.81-11.22,11.46-24.38,20.94-38.82,27.9-18.07,8.7-37.84,13.33-57.81,14.73-19.84,1.4-40-.45-58.88-6.89-15.34-5.23-29.55-13.36-41.95-23.78-5.39-4.53-10.6-9.71-15.08-14.81-1.12-1.28-2.22-2.57-3.3-3.89-.51-.62-1.01-1.24-1.51-1.86-.27-.34-.54-.68-.81-1.02-.13-.17-.27-.34-.4-.51-.09-.11-.18-.23-.26-.34.19.24.19.25.01.02-1.94-2.54-3.82-5.12-5.62-7.76-.42-.61-.83-1.22-1.23-1.84-.22-.33-.44-.66-.66-1-.11-.17-.22-.33-.32-.5-.07-.11-.54-.85-.17-.27-.8-1.24-1.58-2.5-2.34-3.76-1.48-2.44-2.89-4.91-4.25-7.41-.3-.55-.6-1.11-.9-1.67-.13-.25-.26-.5-.39-.75-.08-.15-.16-.3-.23-.45-.19-.36.2.39-.11-.2-.56-1.1-1.12-2.2-1.66-3.31-1.01-2.07-1.99-4.16-2.92-6.27-.8-1.81-1.57-3.63-2.3-5.47-.15-.38-.3-.76-.45-1.15-.07-.17-.13-.34-.2-.5-.24-.62.12.32-.11-.29-.26-.69-.52-1.38-.77-2.08-.66-1.82-1.3-3.66-1.86-5.51-.07-.23-.14-.46-.21-.7l-.05.93c7.39-1.69,14.78-3.39,22.17-5.08,1.07-.25,2.15-.49,3.22-.74.64-.15-1.4-4.42-2.88-4.08-7.39,1.69-14.78,3.39-22.17,5.08-1.07.25-2.15.49-3.22.74-.29.07-.07.85-.05.93,1.08,3.89,2.56,7.69,4.07,11.42,3.72,9.25,8.25,18.19,13.44,26.71,7.19,11.8,15.67,22.84,25.49,32.58,11.28,11.19,24.36,20.59,38.77,27.32,17.11,7.99,35.83,12.08,54.67,12.7,21.01.7,42.46-2.32,62.28-9.41,16.11-5.76,31.12-14.41,44.08-25.59,10.74-9.27,20.01-20.17,27.66-32.11,5.82-9.08,10.75-18.74,14.65-28.8,1.97-5.08,3.75-10.28,5.01-15.58.06-.24.11-.48.17-.73.28-1.32-1.54-3.65-2.78-3.94-7.53-1.78-15.06-3.56-22.58-5.33l-3.25-.77c-.19-.01-.3.07-.35.25-3.7,11.32-8.25,22.41-14.12,32.79-5.51,9.75-12.25,18.83-20.31,26.63-8.14,7.88-17.57,14.33-27.81,19.15-11.74,5.52-24.39,8.88-37.21,10.67-7.42,1.04-14.92,1.56-22.41,1.7-6.96.13-13.89-.08-20.77-1.17-11.65-1.84-22.83-5.92-33.04-11.82-9.24-5.34-17.57-12.16-24.98-19.82-3.2-3.31-6.53-7.17-9.55-11.01-.2-.25-.39-.5-.58-.75.28.36-.16-.21-.24-.32-.36-.46-.71-.93-1.06-1.4-.71-.95-1.41-1.91-2.1-2.88-1.31-1.83-2.58-3.68-3.81-5.56-.27-.42-.54-.83-.81-1.25.28.43-.05-.08-.15-.24-.17-.26-.34-.53-.5-.79-.54-.86-1.08-1.73-1.6-2.6-1.01-1.67-1.99-3.35-2.95-5.06-.87-1.54-1.71-3.1-2.53-4.67-.04-.08-.33-.63-.16-.31.15.29-.11-.21-.16-.3-.19-.37-.38-.74-.57-1.12-.33-.66-.66-1.33-.99-1.99-1.06-2.17-2.07-4.37-3.03-6.59-.31-.73-.62-1.46-.92-2.19-.11-.27-.21-.53-.32-.8-.04-.11-.08-.22-.13-.32-.17-.41.21.56.07.17-.06-.15-.12-.3-.17-.46-.39-1.07-1.08-2.23-2.04-2.89-.7-.48-1.29-.29-.94.67Z"/>
    </g>
    <path class="cls-19" d="M504.28,538.53c-8.5.51-15.27,6.52-19.82,13.3-5.36,7.99-8.63,17.55-9.85,27.06-.7,5.46-.71,10.99-.05,16.45.1.8,2.28.3,2.17-.58-1.11-9.18-.23-18.54,2.53-27.36,2.52-8.06,6.55-16.32,12.87-22.09,3.33-3.03,7.34-5.19,11.89-5.46,1.12-.07,1.77-1.4.27-1.31h0Z"/>
    <path class="cls-19" d="M636.76,539.85c8.26.49,14.62,6.96,18.79,13.58,4.88,7.75,7.87,16.78,9.01,25.84.66,5.28.66,10.61.03,15.89-.11.93,2.08.56,2.18-.24,1.16-9.65.19-19.51-2.86-28.74-2.76-8.36-7.16-17-14.11-22.64-3.52-2.86-7.66-4.75-12.22-5.02-.89-.05-2.29,1.24-.82,1.33h0Z"/>
    <path class="cls-24" d="M326.77,250.49s94.59-38.83,215.63-25.92c121.03,12.91,179.2,77.24,199.66,123.13,20.46,45.89,22.4,92.1,22.4,92.1,0,0,11.26,14.55,32.88-78.67,31.51-135.89-126.7-257.66-165.91-257.66s-248.4-4.97-304.65,147.03Z"/>
    <path class="cls-24" d="M348.47,225.36s17.91-115.34,105.68-135.42c87.76-20.08,234.28-33.41,288.27,64.41l-393.95,71.01Z"/>
    <path class="cls-20" d="M364.25,450.88c-9.14-7.75-23.84-37.19-27.39-47.7-9.78-28.93-23.5-94.1-7.83-120.62,0,0-3.74-22.03-2.26-32.07,3.09-20.87,10.08-46.19,63.69-89.53,38.45-31.08,85.19-60.06,218.16-52.89,132.96,7.17,187.12,47.78,176.85,152.59,0,0-165.98-57.58-250.36-19.2-84.38,38.38-177,164.9-170.86,209.42"/>
    <path class="cls-24" d="M321.92,332.31s143.42-151.73,301.65-153.05c0,0-202.54-22.2-292.32,100.8h0c-8.48,14.7-11.92,31.78-9.78,48.61l.46,3.64Z"/>
    <g class="cls-14">
      <g>
        <ellipse class="cls-2" cx="269.62" cy="152.38" rx="26.59" ry="26.07"/>
        <ellipse class="cls-12" cx="269.62" cy="152.38" rx="12.22" ry="11.98"/>
        <ellipse class="cls-9" cx="269.62" cy="85.65" rx="5.83" ry="5.72"/>
        <ellipse class="cls-3" cx="269.62" cy="85.65" rx="13.23" ry="12.97"/>
        <ellipse class="cls-9" cx="268.19" cy="220.1" rx="5.83" ry="5.72"/>
        <ellipse class="cls-3" cx="268.19" cy="220.1" rx="13.23" ry="12.97"/>
        <ellipse class="cls-2" cx="342.75" cy="219.6" rx="26.59" ry="26.07"/>
        <ellipse class="cls-12" cx="342.75" cy="219.6" rx="12.22" ry="11.98"/>
        <ellipse class="cls-10" cx="342.75" cy="152.87" rx="5.83" ry="5.72"/>
        <ellipse class="cls-4" cx="342.75" cy="152.87" rx="13.23" ry="12.97"/>
        <ellipse class="cls-10" cx="339.88" cy="287.32" rx="5.83" ry="5.72"/>
        <ellipse class="cls-4" cx="339.88" cy="287.32" rx="13.23" ry="12.97"/>
        <ellipse class="cls-2" cx="344.19" cy="84.86" rx="26.59" ry="26.07"/>
        <ellipse class="cls-12" cx="344.19" cy="84.86" rx="12.22" ry="11.98"/>
        <ellipse class="cls-9" cx="344.19" cy="18.14" rx="5.83" ry="5.72"/>
        <ellipse class="cls-3" cx="344.19" cy="18.14" rx="13.23" ry="12.97"/>
        <ellipse class="cls-2" cx="414.22" cy="152.52" rx="26.59" ry="26.07"/>
        <ellipse class="cls-12" cx="414.22" cy="152.52" rx="12.22" ry="11.98"/>
        <ellipse class="cls-10" cx="414.22" cy="85.8" rx="5.83" ry="5.72"/>
        <ellipse class="cls-4" cx="414.22" cy="85.8" rx="13.23" ry="12.97"/>
        <ellipse class="cls-10" cx="412.79" cy="220.24" rx="5.83" ry="5.72"/>
        <ellipse class="cls-4" cx="412.79" cy="220.24" rx="13.23" ry="12.97"/>
        <ellipse class="cls-2" cx="487.35" cy="219.75" rx="26.59" ry="26.07"/>
        <ellipse class="cls-12" cx="487.35" cy="219.75" rx="12.22" ry="11.98"/>
        <ellipse class="cls-10" cx="487.35" cy="153.02" rx="5.83" ry="5.72"/>
        <ellipse class="cls-4" cx="487.35" cy="153.02" rx="13.23" ry="12.97"/>
        <ellipse class="cls-10" cx="485.91" cy="287.47" rx="5.83" ry="5.72"/>
        <ellipse class="cls-4" cx="485.91" cy="287.47" rx="13.23" ry="12.97"/>
        <ellipse class="cls-2" cx="488.79" cy="85.01" rx="26.59" ry="26.07"/>
        <ellipse class="cls-12" cx="488.79" cy="85.01" rx="12.22" ry="11.98"/>
        <ellipse class="cls-9" cx="488.79" cy="18.28" rx="5.83" ry="5.72"/>
        <ellipse class="cls-3" cx="488.79" cy="18.28" rx="13.23" ry="12.97"/>
        <ellipse class="cls-2" cx="558.82" cy="151.95" rx="26.59" ry="26.07"/>
        <ellipse class="cls-12" cx="558.82" cy="151.95" rx="12.22" ry="11.98"/>
        <ellipse class="cls-10" cx="558.82" cy="85.23" rx="5.83" ry="5.72"/>
        <ellipse class="cls-4" cx="558.82" cy="85.23" rx="13.23" ry="12.97"/>
        <ellipse class="cls-10" cx="557.39" cy="219.67" rx="5.83" ry="5.72"/>
        <ellipse class="cls-2" cx="631.95" cy="219.18" rx="26.59" ry="26.07"/>
        <ellipse class="cls-12" cx="631.95" cy="219.18" rx="12.22" ry="11.98"/>
        <ellipse class="cls-10" cx="631.95" cy="152.45" rx="5.83" ry="5.72"/>
        <ellipse class="cls-4" cx="631.95" cy="152.45" rx="13.23" ry="12.97"/>
        <ellipse class="cls-10" cx="630.51" cy="286.9" rx="5.83" ry="5.72"/>
        <ellipse class="cls-4" cx="630.51" cy="286.9" rx="13.23" ry="12.97"/>
        <ellipse class="cls-2" cx="633.39" cy="84.44" rx="26.59" ry="26.07"/>
        <ellipse class="cls-12" cx="633.39" cy="84.44" rx="12.22" ry="11.98"/>
        <ellipse class="cls-9" cx="633.39" cy="17.71" rx="5.83" ry="5.72"/>
        <ellipse class="cls-3" cx="633.39" cy="17.71" rx="13.23" ry="12.97"/>
        <ellipse class="cls-2" cx="703.42" cy="152.1" rx="26.59" ry="26.07"/>
        <ellipse class="cls-12" cx="703.42" cy="152.1" rx="12.22" ry="11.98"/>
        <ellipse class="cls-10" cx="703.42" cy="85.37" rx="5.83" ry="5.72"/>
        <ellipse class="cls-4" cx="703.42" cy="85.37" rx="13.23" ry="12.97"/>
        <ellipse class="cls-9" cx="701.98" cy="219.82" rx="5.83" ry="5.72"/>
        <ellipse class="cls-4" cx="701.98" cy="219.82" rx="13.23" ry="12.97"/>
        <ellipse class="cls-2" cx="776.55" cy="219.32" rx="26.59" ry="26.07"/>
        <ellipse class="cls-12" cx="776.55" cy="219.32" rx="12.22" ry="11.98"/>
        <ellipse class="cls-10" cx="776.55" cy="152.59" rx="5.83" ry="5.72"/>
        <ellipse class="cls-4" cx="776.55" cy="152.59" rx="13.23" ry="12.97"/>
        <ellipse class="cls-10" cx="775.11" cy="287.04" rx="5.83" ry="5.72"/>
        <ellipse class="cls-4" cx="775.11" cy="287.04" rx="13.23" ry="12.97"/>
        <ellipse class="cls-2" cx="777.99" cy="84.58" rx="26.59" ry="26.07"/>
        <ellipse class="cls-12" cx="777.99" cy="84.58" rx="12.22" ry="11.98"/>
        <ellipse class="cls-9" cx="777.99" cy="17.86" rx="5.83" ry="5.72"/>
        <ellipse class="cls-3" cx="777.99" cy="17.86" rx="13.23" ry="12.97"/>
        <ellipse class="cls-2" cx="338.42" cy="354.62" rx="26.59" ry="26.07"/>
        <ellipse class="cls-12" cx="338.42" cy="354.62" rx="12.22" ry="11.98"/>
        <ellipse class="cls-10" cx="336.98" cy="422.34" rx="5.83" ry="5.72"/>
        <ellipse class="cls-4" cx="336.98" cy="422.34" rx="13.23" ry="12.97"/>
        <ellipse class="cls-2" cx="411.55" cy="421.84" rx="26.59" ry="26.07"/>
        <ellipse class="cls-12" cx="411.55" cy="421.84" rx="12.22" ry="11.98"/>
        <ellipse class="cls-10" cx="411.55" cy="355.11" rx="5.83" ry="5.72"/>
        <ellipse class="cls-4" cx="411.55" cy="355.11" rx="13.23" ry="12.97"/>
        <ellipse class="cls-10" cx="410.11" cy="489.56" rx="5.83" ry="5.72"/>
        <ellipse class="cls-4" cx="410.11" cy="489.56" rx="13.23" ry="12.97"/>
        <ellipse class="cls-2" cx="412.98" cy="287.1" rx="26.59" ry="26.07"/>
        <ellipse class="cls-12" cx="412.98" cy="287.1" rx="12.22" ry="11.98"/>
        <ellipse class="cls-2" cx="483.02" cy="354.76" rx="26.59" ry="26.07"/>
        <ellipse class="cls-12" cx="483.02" cy="354.76" rx="12.22" ry="11.98"/>
        <ellipse class="cls-10" cx="481.58" cy="422.48" rx="5.83" ry="5.72"/>
        <ellipse class="cls-4" cx="481.58" cy="422.48" rx="13.23" ry="12.97"/>
        <ellipse class="cls-2" cx="556.15" cy="421.99" rx="26.59" ry="26.07"/>
        <ellipse class="cls-12" cx="556.15" cy="421.99" rx="12.22" ry="11.98"/>
        <ellipse class="cls-10" cx="556.15" cy="355.26" rx="5.83" ry="5.72"/>
        <ellipse class="cls-4" cx="556.15" cy="355.26" rx="13.23" ry="12.97"/>
        <ellipse class="cls-10" cx="554.71" cy="489.71" rx="5.83" ry="5.72"/>
        <ellipse class="cls-4" cx="554.71" cy="489.71" rx="13.23" ry="12.97"/>
        <ellipse class="cls-2" cx="557.58" cy="287.25" rx="26.59" ry="26.07"/>
        <ellipse class="cls-12" cx="557.58" cy="287.25" rx="12.22" ry="11.98"/>
        <ellipse class="cls-4" cx="557.58" cy="220.52" rx="13.23" ry="12.97"/>
        <ellipse class="cls-2" cx="627.62" cy="354.19" rx="26.59" ry="26.07"/>
        <ellipse class="cls-12" cx="627.62" cy="354.19" rx="12.22" ry="11.98"/>
        <ellipse class="cls-10" cx="626.18" cy="421.91" rx="5.83" ry="5.72"/>
        <ellipse class="cls-4" cx="626.18" cy="421.91" rx="13.23" ry="12.97"/>
        <ellipse class="cls-2" cx="700.75" cy="421.42" rx="26.59" ry="26.07"/>
        <ellipse class="cls-12" cx="700.75" cy="421.42" rx="12.22" ry="11.98"/>
        <ellipse class="cls-10" cx="700.75" cy="354.69" rx="5.83" ry="5.72"/>
        <ellipse class="cls-4" cx="700.75" cy="354.69" rx="13.23" ry="12.97"/>
        <ellipse class="cls-10" cx="699.31" cy="489.14" rx="5.83" ry="5.72"/>
        <ellipse class="cls-4" cx="699.31" cy="489.14" rx="13.23" ry="12.97"/>
        <ellipse class="cls-2" cx="702.18" cy="286.68" rx="26.59" ry="26.07"/>
        <ellipse class="cls-12" cx="702.18" cy="286.68" rx="12.22" ry="11.98"/>
        <ellipse class="cls-10" cx="702.18" cy="219.95" rx="5.83" ry="5.72"/>
        <ellipse class="cls-2" cx="772.22" cy="354.34" rx="26.59" ry="26.07"/>
        <ellipse class="cls-12" cx="772.22" cy="354.34" rx="12.22" ry="11.98"/>
        <ellipse class="cls-10" cx="770.78" cy="422.06" rx="5.83" ry="5.72"/>
        <ellipse class="cls-4" cx="770.78" cy="422.06" rx="13.23" ry="12.97"/>
        <ellipse class="cls-2" cx="845.35" cy="421.56" rx="26.59" ry="26.07"/>
        <ellipse class="cls-12" cx="845.35" cy="421.56" rx="12.22" ry="11.98"/>
        <ellipse class="cls-9" cx="845.35" cy="354.83" rx="5.83" ry="5.72"/>
        <ellipse class="cls-4" cx="845.35" cy="354.83" rx="13.23" ry="12.97"/>
        <ellipse class="cls-9" cx="843.91" cy="489.28" rx="5.83" ry="5.72"/>
        <ellipse class="cls-3" cx="843.91" cy="489.28" rx="13.23" ry="12.97"/>
        <ellipse class="cls-2" cx="846.78" cy="286.82" rx="26.59" ry="26.07"/>
        <ellipse class="cls-12" cx="846.78" cy="286.82" rx="12.22" ry="11.98"/>
        <ellipse class="cls-9" cx="846.78" cy="220.1" rx="5.83" ry="5.72"/>
        <ellipse class="cls-4" cx="846.78" cy="220.1" rx="13.23" ry="12.97"/>
      </g>
    </g>
  </g>
</svg>