<?xml version="1.0" encoding="UTF-8"?>
<svg id="Layer_1" data-name="Layer 1" xmlns="http://www.w3.org/2000/svg" version="1.1" viewBox="0 0 1398.5 1051.4">
  <defs>
    <style>
      .cls-1, .cls-2, .cls-3, .cls-4, .cls-5, .cls-6, .cls-7, .cls-8, .cls-9 {
        stroke-width: 0px;
      }

      .cls-1, .cls-10, .cls-11 {
        fill: #263238;
      }

      .cls-2 {
        fill: #462921;
      }

      .cls-3 {
        fill: #5c2d0d;
      }

      .cls-12 {
        fill: none;
      }

      .cls-12, .cls-13, .cls-10 {
        stroke-miterlimit: 10;
      }

      .cls-12, .cls-13, .cls-10, .cls-11 {
        stroke: #263238;
      }

      .cls-4 {
        fill: #44211a;
      }

      .cls-13, .cls-9 {
        fill: #fff;
      }

      .cls-5 {
        fill: #e8e2d4;
      }

      .cls-11 {
        stroke-linecap: round;
        stroke-linejoin: round;
      }

      .cls-6 {
        fill: #a97e62;
      }

      .cls-7 {
        fill: #004558;
      }

      .cls-8 {
        fill: #ebe2c6;
      }
    </style>
  </defs>
  <g id="Layer_2" data-name="Layer 2">
    <rect class="cls-8" x="-18.2" y="-20.4" width="1431.1" height="1057.6" rx="12" ry="12"/>
    <rect class="cls-6" x="-28.5" y="843.3" width="1461.5" height="363"/>
    <path class="cls-7" d="M708.3,960l617,14.1c9.2.2,13.9-10.1,7.4-16.2l-84-79.3-522.2-6.2-18.1,87.6h0Z"/>
    <path class="cls-7" d="M626.9,860.7h156.6c14.5,0,26.2,11.8,26.2,26.2v60.9c0,14.5-11.8,26.2-26.2,26.2h-156.6c-14.5,0-26.2-11.8-26.2-26.2v-60.9c0-14.5,11.8-26.2,26.2-26.2Z"/>
    <path class="cls-7" d="M702.1,960l-617,14.1c-9.2.2-13.9-10.1-7.4-16.2l84-79.3,538.3-12.3,2.1,93.8Z"/>
    <polygon class="cls-4" points="708.6 943.6 1312.8 955.1 1274.5 911.1 709.7 898.1 708.6 943.6"/>
    <g>
      <path class="cls-9" d="M1260.7,873.7l-74.3-60.3c-216.3-4.7-322.8-131.3-481.2-6.5v90.7c494.5,53.1,555.5-24,555.5-24h0Z"/>
      <path class="cls-2" d="M1262.1,873.2c-10.5-8.5-21.1-17.1-31.6-25.6-13.6-11-27.1-22-40.7-33-1.3-1-1.8-1.8-3.5-1.8-9.1-.3-18.1-.6-27.2-1.3-17.3-1.2-34.5-3.3-51.6-6-30.8-4.9-61.1-12.1-91.2-20.2-26.8-7.2-53.4-15.2-80.4-21.7-24.2-5.9-48.9-10.7-73.8-11.8-24.5-1.1-49.2,1.5-72.7,8.7-27.4,8.3-52.8,22.3-75.8,39.2-1.6,1.2-3.2,2.4-4.9,3.6-.8.6-1.6,1.2-2.4,1.9-.6.5-2.2,1.3-2.5,2-.1.3,0,.6,0,.9-.3,2,0,4.3,0,6.3v83.7c0,0,.1.2.3.2,44.3,4.8,88.6,8.9,133,12.1,36.9,2.7,73.8,4.7,110.8,5.8,30,.9,59.9,1.2,89.9.6,23.6-.5,47.2-1.5,70.7-3.4,18.3-1.5,36.5-3.5,54.6-6.3,13.5-2.1,26.9-4.6,40.1-7.9,9.5-2.3,18.9-5.1,28-8.5,6.1-2.3,12.2-4.8,17.9-7.9,3.3-1.8,6.6-3.7,9.5-6,.8-.6,2.9-1.9,3.2-2.9,0,0,.2-.2.2-.3.2-.2-2.3-.2-2.8.5.2-.2-.2.2-.3.3-.5.5-.9.9-1.4,1.3-2.1,1.8-3.9,3-6.4,4.5-4.2,2.5-8.2,4.5-12.8,6.5-6.7,2.9-13.8,5.4-20.8,7.5-10.2,3.1-20.6,5.6-31,7.7-14.1,2.8-28.3,5-42.5,6.8-18.5,2.3-37.1,3.8-55.7,4.9-23.7,1.4-47.4,2-71.1,2.2-29,.2-58.1-.4-87.1-1.5-35.2-1.3-70.5-3.5-105.7-6.2-20.1-1.5-40.1-3.2-60.2-5.1-10.6-1-21.2-2-31.8-3.1-5.8-.6-11.7-1.2-17.5-1.8-2.4-.3-5.3-.2-7.6-.8s-.4.4-.8-.2c-.2-.4,0-1.6,0-2.1v-86.3c0-.5-.2-1.4,0-1.8.2-.4.5-.5.9-.8,1.9-1.4,3.7-2.9,5.6-4.3,24.8-18.7,52.5-34,82.6-42.2,25.5-6.9,52.1-8.2,78.4-5.6,27.2,2.7,53.8,9,80.1,16.1,29.1,7.8,58,16.4,87.3,23.6,33,8.1,66.5,14.5,100.3,17.8,9.4.9,18.9,1.6,28.4,2.1,2.2.1,4.4.2,6.6.3,2.4,0,5.2-.3,7.6.2.8.2.6,0,1.3.6,5.3,3.5,10.1,8.2,15,12.2,16.2,13.1,32.4,26.2,48.6,39.4,3.3,2.7,6.7,5.4,10,8.1.6.5,3.1-.7,2.7-1h0Z"/>
    </g>
    <g>
      <path class="cls-9" d="M1206.7,784.6l-80.4-53.9c-141.6,24.1-303.8-125.3-421.1,76.4v79c104.5-170.4,326.8-55.6,501.5-101.6h0Z"/>
      <path class="cls-2" d="M1207.8,783.8c-11.1-7.4-22.1-14.8-33.2-22.2-14.7-9.9-29.5-19.7-44.2-29.6-.9-.6-2-1.6-3.1-2-1.8-.7-5.1.5-7,.8-2.9.4-5.9.7-8.8,1-12,1.1-24,1-36,.2-24.7-1.6-49-6.4-73.1-11.6-24.4-5.3-48.6-11.2-73.2-15.5s-47.5-6.8-71.3-5.4c-23.8,1.4-47.2,7.2-68.3,18.3-25.2,13.2-46.1,33.1-63.3,55.5-5.2,6.8-10.1,13.8-14.7,21-2.5,3.9-5.1,7.9-7.3,12-.5.9-.5,1-.5,1.8-.3,6.4,0,12.9,0,19.3v59c0,1.4,2.4.7,2.8,0,18.2-29.5,43-54.5,74-70.5,28.9-15,61.1-21.8,93.3-24.5,34.9-3,70-1.5,104.9.6,36.4,2.1,72.8,5,109.2,5.6,35.6.5,71.5-1.2,106.4-8.8,4.2-.9,8.4-1.9,12.6-3,1.8-.5,1.3-2.2-.5-1.7-35.2,9.2-71.8,11.9-108,11.8s-73.6-2.9-110.3-5.2c-35.2-2.2-70.7-4-106-1.7-32.4,2.1-65.1,8-94.8,21.6-30.7,14.1-56.5,36.4-75.9,64-2.7,3.8-5.2,7.7-7.7,11.7h2.8v-71c0-2.4-.1-4.8,0-7.1q0-.8.4-1.5c1.9-4.2,4.9-8.2,7.3-12,16.4-25.7,36.6-49.6,62.1-66.8,20.2-13.6,43.3-22,67.4-25.2,23.4-3.1,47.1-1.5,70.4,1.8s48.4,9.2,72.5,14.6,47.7,10.5,72,13.4c11.8,1.4,23.6,2.2,35.5,2,5.9,0,11.8-.3,17.6-.9,2.9-.3,5.7-.6,8.6-1,1.4-.2,2.8-.4,4.1-.6.3,0,1.7-.2.7-.4,0,0,0,0,.1,0,1.2.4,2.6,1.7,3.7,2.5,2.6,1.8,5.2,3.5,7.9,5.3,7.9,5.3,15.7,10.5,23.6,15.8,14.2,9.5,28.4,19,42.6,28.6.8.6,1.7,1.1,2.6,1.7.9.6,3.6-.7,2.3-1.5h0Z"/>
    </g>
    <polygon class="cls-4" points="701.7 943.6 97.6 955.1 135.9 911.1 700.7 898.1 701.7 943.6"/>
    <g>
      <path class="cls-9" d="M149.6,873.7l74.3-60.3c216.3-4.7,322.8-131.3,481.2-6.5v83.5c-494.5,53.1-555.5-16.8-555.5-16.8h0Z"/>
      <path class="cls-2" d="M150.8,874c8.4-6.8,16.7-13.6,25.1-20.3,13.3-10.8,26.7-21.6,40-32.5,3.1-2.5,6.1-5,9.2-7.5-.6.2-1.1.4-1.7.6,50.3-1.1,99.8-9.3,148.5-21.5,40.6-10.2,80.5-23.1,121.4-31.9,36.9-7.9,75-11.3,112.2-3,19.9,4.5,39,12.1,56.8,21.9,10.3,5.7,20.3,12.1,29.8,19,2.7,2,5.5,4,8.1,6.1.8.7,3.1,1.8,3.4,2.5.3.9,0,2.6,0,3.5v79.8l1.6-1c-44.1,4.7-88.3,8.9-132.6,12.2-36.7,2.8-73.5,4.9-110.4,6.3-29.6,1.1-59.3,1.6-88.9,1.4-23.5-.2-47.1-.9-70.6-2.4-18.2-1.2-36.4-2.8-54.5-5.1-13.4-1.8-26.8-3.9-40-6.8-9.3-2-18.6-4.4-27.6-7.3-5.9-1.9-11.8-4.1-17.4-6.8-3.2-1.5-6.4-3.2-9.3-5.3-.9-.6-1.9-1.8-3.1-2.5,0,0,0,0-.1-.1-.7-.8-3.5.3-2.7,1.2.6.7,1.4,1.3,2.1,1.8,2.4,1.9,5.1,3.4,7.8,4.9,4.9,2.6,10.1,4.7,15.4,6.6,8.2,3,16.7,5.3,25.2,7.4,12.2,2.9,24.5,5.2,36.9,7,16.8,2.5,33.8,4.3,50.7,5.7,22.2,1.8,44.5,2.7,66.8,3.2,28.4.6,56.9.4,85.3-.4,34.9-.9,69.8-2.7,104.7-5,42.5-2.8,85-6.5,127.3-10.7,11.5-1.2,23-2.3,34.5-3.6.4,0,1.6-.4,1.6-1v-80.5c0-1.6.4-2.9-.8-4-5.8-5.3-12.8-9.7-19.2-14-6.3-4.2-12.7-8.2-19.3-12-11.8-6.7-24.2-12.4-37-16.9-23.2-8.2-47.6-11.9-72.2-11.6-24.4.3-48.6,4.3-72.4,9.7-26.2,5.9-52,13.5-77.9,20.7-29.1,8-58.3,15.5-88,21-16.1,3-32.4,5.4-48.7,7.1-8.6.9-17.2,1.6-25.9,2.1-4.7.3-9.4.5-14.2.7-2.5,0-6.3-.6-8.4.8-3.5,2.3-6.7,5.4-10,8.1-7.2,5.8-14.4,11.7-21.6,17.5-13.4,10.9-26.9,21.8-40.3,32.7-.8.7-1.6,1.3-2.4,2-1.3,1,1.6,1.2,2.3.5h0Z"/>
    </g>
    <g>
      <path class="cls-5" d="M97.8,953.2l51.9-79.5c216.3-4.7,439.8-148,574.5,40.5l-90.5,30.8c-70.6-53.1-157,4.4-535.9,8.2h0Z"/>
      <path class="cls-2" d="M99.2,952.9c15.2-23.2,30.3-46.5,45.5-69.7,2.1-3.3,4.3-6.5,6.4-9.8-.7.3-1.4.6-2.1.8,42.2-1,84.1-7,125.5-14.8,41.3-7.8,82.2-17.4,123.5-25.6,38.6-7.7,77.7-14.5,117.2-15.8,36-1.2,72.7,2.4,106.5,15.3,35.9,13.7,66.5,37.8,90.6,67.5,3.6,4.5,7.1,9.1,10.5,13.8l.9-.7c-26.4,9-52.8,18-79.2,26.9-3.8,1.3-7.6,2.6-11.4,3.9l1.9-.2c-13.4-10.1-28.8-16.7-45.3-19.7-20-3.7-40.6-3.1-60.8-1.8-29.9,1.9-59.7,5.6-89.5,8.8-43.1,4.7-86.3,9-129.5,12.2-61.1,4.5-122.3,7.1-183.5,8.2-9.2.2-18.4.3-27.6.4-.6,0-3.3,1.2-1.9,1.2,42-.4,84-1.5,125.9-3.5,34.5-1.6,69-3.8,103.5-6.5,27.8-2.2,55.5-4.8,83.2-7.7,22-2.3,44-4.8,66-7.2,17.3-1.8,34.5-3.6,51.9-4.8,13.6-.9,27.2-1.3,40.8-.5,11,.7,22,2.3,32.5,5.5,9.9,3.1,19.2,7.7,27.7,13.5,1.9,1.3,3.5,3.2,5.9,2.5,1.7-.5,3.5-1.2,5.2-1.8,8.5-2.9,16.9-5.8,25.4-8.6,18.7-6.4,37.5-12.8,56.2-19.1,1.2-.4,2.4-.8,3.6-1.2.1,0,1.1-.5.9-.7-15.8-22.1-34.6-42.1-56.8-57.8-19.6-13.8-41.5-24-64.6-30.4-47.5-13.1-97.9-10.3-146.2-3.4-55.4,7.9-109.7,21.5-164.5,32.5-28.1,5.6-56.3,10.7-84.7,14-14.2,1.7-28.4,3-42.7,3.7-3.4.2-6.8.3-10.2.4-2.1,0-5.8-.7-7.5.8-.6.5-1,1.6-1.5,2.2-16.4,25.1-32.7,50.2-49.1,75.2-.5.7-.9,1.5-1.4,2.2-.2.3,2.4.2,2.9-.5h0Z"/>
    </g>
    <g>
      <path class="cls-5" d="M1312.6,953.2l-51.9-79.5c-200.1-4.3-450.9-124.7-555.5,16.8v36.6l71.3,18c113.6-66.2,157.2,4.4,536.1,8.2h0Z"/>
      <path class="cls-2" d="M1314,952.6c-7-10.7-14-21.5-21-32.2-9.5-14.5-19-29.1-28.5-43.6-.6-1-1.4-2.8-2.3-3.6-1.2-.9-3.7-.4-5.1-.5-3.7-.1-7.4-.3-11.1-.4-14.8-.7-29.5-2-44.2-3.6-30.6-3.4-61.1-8.5-91.4-13.9-30.6-5.5-61.1-11.5-91.7-17-29.2-5.2-58.5-10-88-13.2-26.9-2.9-54.1-4.5-81.2-3-24.3,1.3-48.6,5.2-71.5,13.6-21.6,7.9-41.6,20.1-58,36.3-4.2,4.2-8.2,8.6-11.9,13.2-1.3,1.6-4,4.1-4.6,6.1-.2.7,0,1.9,0,2.6v33.9c0,.4.2.5.6.6,15.7,4,31.5,7.9,47.2,11.9,7.5,1.9,15,3.8,22.5,5.7,2.4.6,3.6-.1,5.8-1.4,3.2-1.8,6.4-3.5,9.6-5.2,11.7-6,23.8-11.1,36.5-14.7,11.6-3.3,23.6-5.2,35.7-6,13.1-.8,26.2-.4,39.2.7,15.6,1.2,31.1,3.2,46.6,5.4,19.1,2.6,38.2,5.4,57.3,8.1,24,3.3,48,6.3,72,8.8,30.1,3.2,60.3,5.8,90.5,7.8,37.8,2.5,75.6,4,113.4,4.7,10.5.2,21,.4,31.4.5,1.1,0,3.1-1.7,1.1-1.7-62.6-.6-125.2-3.1-187.5-8.4-42.9-3.6-85.7-8.7-128.3-14.6-29-4-58-8.7-87.2-11.5-21.7-2.1-43.8-2.9-65.4.6s-41.9,11.3-61,21.6c-2.7,1.5-5.4,3-8.1,4.6l1.8-.3c-20.8-5.2-41.7-10.5-62.5-15.8l-8.8-2.2.6.6v-33.8c0-.8-.2-2,0-2.7.6-2,3.3-4.4,4.6-6,14.9-18.3,33.8-32.9,55.2-42.7,21.7-10,45.3-15.2,69-17.5,26.3-2.6,53-1.8,79.3.5,29,2.5,57.8,6.9,86.5,11.8,29.9,5.2,59.7,11,89.6,16.5,30,5.5,60.1,10.8,90.3,14.8,14.4,1.9,28.8,3.5,43.2,4.7,7.2.6,14.3,1.1,21.5,1.4,3.5.2,7.1.3,10.6.4,1.3,0,2.5-.4,3.3.2,1.1.9,2,3,2.8,4.3,1.8,2.7,3.5,5.4,5.3,8.1,5.1,7.7,10.1,15.5,15.2,23.2,8.9,13.7,17.9,27.4,26.8,41.1.5.8,1.1,1.6,1.6,2.4s3.3-.1,2.7-1.1h0Z"/>
    </g>
    <g>
      <path class="cls-9" d="M195.6,775.9l70.1-52.7c141.6,24.1,322.2-117.9,439.4,83.9v79c-185.2-205.1-334.9-64.3-509.5-110.2Z"/>
      <path class="cls-2" d="M196.8,776l23.7-17.8c12.6-9.5,25.2-18.9,37.7-28.4,2.9-2.2,5.8-4.4,8.7-6.5l-2,.5c18.1,3.1,36.6,3.4,54.9,2.3s38.2-4,57.1-7.3c19.7-3.4,39.2-7.4,58.9-11,19.6-3.6,39.3-6.9,59.2-8.7,19.2-1.8,38.6-2.2,57.7,0,19.2,2.1,38,6.9,55.6,14.9,19.4,8.8,36.8,21.2,52,36.1,8.7,8.5,16.6,17.8,23.9,27.6,4.2,5.5,8.1,11.3,11.8,17.1,1.9,3,3.8,6,5.6,9,.7,1.2,1.9,2.6,2.2,4,.2,1.2,0,2.8,0,4.1v74.7c.9-.3,1.9-.6,2.8-.9-30.1-33.3-64.5-63.4-104.5-84.3-30.9-16.2-64.5-26-99.1-29.5-32-3.2-64.3-1.3-96.2,2-32.3,3.3-64.5,8.1-97,10.2-33.4,2.2-67.1,1.3-100-5.7-4.3-.9-8.6-2-12.9-3.1-.8-.2-3.3,1-2.4,1.2,32.4,8.5,65.9,10.9,99.3,9.7,32.3-1.2,64.3-5.6,96.4-9.2,32.1-3.7,64.5-6.7,96.8-4.8,34.3,1.9,68,9.6,99.3,23.9,39.5,18,74.1,45.5,104.2,76.5,4.5,4.6,8.9,9.4,13.2,14.2.5.6,2.8,0,2.8-.9v-72.1c0-2.1.3-4.4,0-6.4-.2-1.5-1.4-2.9-2.2-4.3-2.3-3.9-4.7-7.7-7.2-11.5-16.3-24.9-36.3-47.7-61-64.4-20.3-13.8-43.3-22.8-67.5-27.2-23.8-4.3-48.3-4.3-72.4-2.1-25,2.3-49.7,6.7-74.3,11.4-24.6,4.7-49.1,9.7-73.9,12.9-23.5,3.1-47.4,4.6-71,1.9-2.9-.3-5.7-.7-8.6-1.2-1.5-.2-2.7-.5-4,.3s-2.7,2-4,3c-6.5,4.9-13.1,9.8-19.6,14.7-14.6,10.9-29.1,21.9-43.7,32.8-.9.7-1.9,1.4-2.8,2.1-1.2.9,1.6.7,2.3.3h0Z"/>
    </g>
    <g>
      <path class="cls-9" d="M1158.2,683l-68.6-51.3c-181.9,56.2-258.5-26.3-384.4,175.4v74c89.5-175.8,265.3-152.1,453-198.1h0Z"/>
      <path class="cls-2" d="M1159.5,682.5c-11.3-8.5-22.6-16.9-33.9-25.4-7.8-5.8-15.6-11.7-23.4-17.5l-7.9-5.9c-1.1-.8-2.2-1.9-3.3-2.5-.8-.4-1.3-.3-2.2,0-1.8.5-3.6,1.1-5.4,1.6-3.4,1-6.9,2-10.4,3-6.7,1.8-13.3,3.5-20,5.1-12.6,2.9-25.2,5.3-37.9,7.3-22.1,3.5-44.4,5.6-66.7,7.4-19.4,1.6-38.9,3-58.2,6-18.2,2.8-36.2,7.2-53.2,14.2-18.8,7.7-36,18.6-51.6,31.6-20.4,17-38,37.4-53.7,58.7-4.8,6.5-9.5,13.2-14.1,20-2.4,3.6-4.8,7.2-7.2,10.9-1.2,1.8-2.4,3.7-3.5,5.5-.9,1.4-2.6,3.2-3,4.9-.3,1.2,0,3,0,4.3v69.8c0,1.3,2.4.6,2.8-.1,15.7-30.8,36-59.1,61.8-82.2,22.9-20.5,49.6-36.4,78-48.2,29.3-12.2,60.3-20.3,91.3-26.8,33.3-6.9,66.9-11.9,100.5-17.2,35.8-5.7,71.6-11.7,107-19.8,4.4-1,8.8-2,13.2-3.1,1.8-.4,1.3-2-.4-1.5-35.9,8.8-72.2,15.2-108.7,21.1-34.1,5.5-68.2,10.5-102.1,17.1-31.5,6.2-62.8,13.8-92.7,25.3-28.8,11.1-56.2,25.9-80.1,45.5-26.1,21.4-47.4,48.1-64,77.5-2.3,4.1-4.5,8.2-6.6,12.3.9,0,1.9,0,2.8-.1v-72.2c0-.5,0-1,0-1.5.2-1.3,1.5-2.6,2.2-3.8,3.8-6,7.6-11.9,11.6-17.7,7-10.4,14.4-20.7,22.2-30.6,12.8-16.3,26.9-31.8,42.7-45.4,12.6-10.8,26.4-20.3,41.2-27.6,13.2-6.5,27.2-11.4,41.5-14.8,14.3-3.4,28.9-5.5,43.6-7,15.9-1.7,31.8-2.8,47.8-4.2,17.9-1.6,35.8-3.5,53.5-6.2,20.5-3.2,40.8-7.4,60.8-12.9,5.4-1.5,10.8-3,16.1-4.7l-1.6-.2c7.7,5.8,15.5,11.6,23.2,17.4,12.3,9.2,24.6,18.4,36.8,27.6,2.8,2.1,5.7,4.2,8.5,6.4.8.6,3.5-.5,2.7-1.2h0Z"/>
    </g>
    <g>
      <path class="cls-9" d="M1071.2,608.5l-60.6-60.6c-154.1,2.3-289.9,126.2-306.3,262.1l-1.7,67.9c41.6-156.2,176.3-250.5,368.6-269.4h0Z"/>
      <path class="cls-2" d="M1072.5,607.9c-7.5-7.5-14.9-15-22.4-22.4-11.1-11.1-22.2-22.2-33.2-33.2l-4-4c-.3-.3-.5-.6-.8-.8-1.3-1-3.6-.5-5.1-.4-13,.4-26,1.6-38.9,3.7-25.4,4.1-50.2,11.4-73.9,21.5-23.5,10-45.8,22.8-66.4,37.8-20.3,14.8-38.9,31.9-55.4,50.9s-30.1,38.8-41.4,60.6c-11,21.1-19.3,43.5-24.3,66.8-1.2,5.8-2.3,11.6-3.1,17.4-.3,2.1-.6,4.2-.7,6.3-.2,5.9-.3,11.9-.5,17.8l-1.2,45.4c0,1,0,2,0,3,0,1.6,2.6,1,2.9-.2,7.8-29.4,19.3-57.8,34.7-84,14.8-25.5,33.2-48.8,54.3-69.3,21.7-21,46.2-39.1,72.4-54,27.9-15.9,57.7-28.3,88.3-37.8,33.8-10.5,68.6-17.4,103.7-21.6,4.5-.5,9.1-1,13.6-1.5,1.6-.2,2.2-2.3.2-2.2-36,3.5-71.8,9.9-106.7,19.8-31.6,9-62.4,21-91.3,36.5-27,14.4-52.3,31.9-74.9,52.6-21.9,20-41.1,42.8-56.8,67.9-16.2,25.8-28.7,53.8-37.3,83-1.1,3.6-2.1,7.2-3.1,10.9l2.9-.2c.2-7.6.4-15.3.6-22.9.3-12.2.6-24.5.9-36.7,0-2.7,0-5.5.2-8.2.2-3.4.9-6.8,1.4-10.1.7-4.4,1.5-8.7,2.5-13,3.9-17.5,9.7-34.6,17-51,7.6-16.8,16.8-32.8,27.3-47.9,10.7-15.3,22.8-29.6,35.9-42.8,13.4-13.5,28-25.8,43.5-36.8,15.7-11.1,32.3-20.9,49.7-29.2,17.6-8.4,35.9-15.2,54.7-20.2s38.4-8.3,58-9.6c4.8-.3,9.7-.5,14.6-.6l-1.2-.4c6.8,6.8,13.6,13.6,20.4,20.4,10.9,10.9,21.7,21.7,32.6,32.6,2.5,2.5,5,5,7.5,7.5.9.9,3.7-.3,2.7-1.3h0Z"/>
    </g>
    <path class="cls-3" d="M704.5,908.1c-26.3-22.9-56.9-40-90.4-49.7-32.1-9.2-65.8-11.6-99-10.2-36.3,1.4-72.2,7-107.9,13.5-39.1,7.1-77.9,15.3-117,22.2-40.7,7.1-81.8,12.8-123.1,14.7-5.2.2-10.4.4-15.7.5-1.6,0-2.3,2-.3,2,41.3-.9,82.3-5.8,123-12.5,38.8-6.4,77.2-14.4,115.8-21.7,36.1-6.8,72.5-13.1,109.2-15.8,33.7-2.4,68-1.6,101.1,6.1,33.3,7.8,64.5,22.7,91.4,43.8,3.6,2.8,7.2,5.8,10.7,8.8.9.8,3.5-.5,2.2-1.6h0Z"/>
    <path class="cls-3" d="M707.8,907.8c26.4-22.9,57.1-40.1,90.7-49.7,32.6-9.3,66.8-11.7,100.7-10.4,36.6,1.4,72.9,6.9,109,13.2,38.6,6.8,77,14.6,115.6,21.1,40.7,6.9,81.6,12.4,122.9,14.2,5.1.2,10.2.4,15.3.5,1.4,0,3-2,1-2-41.8-.9-83.3-5.8-124.5-12.4-39.5-6.3-78.7-14.3-118.1-21.4-36.7-6.6-73.7-12.6-111-14.7-33.8-1.9-68.1-.6-101.2,7.4-33.3,8-64.6,23.1-91.6,44.2-3.7,2.9-7.2,5.8-10.7,8.9-1.5,1.3.8,2.2,1.9,1.3h0Z"/>
    <path class="cls-3" d="M705.3,931.5c-26.5-23-57.3-40.3-91-50.2-33-9.8-67.6-12.7-101.9-12-37.4.8-74.6,5.7-111.5,11.6-39.9,6.4-79.5,14-119.4,20.4-41.4,6.7-83,12.1-124.9,13.9-5.2.2-10.3.4-15.5.5-1.5,0-2.3,1.9-.3,1.8,41.6-.9,83-5.6,124.1-11.9,39.6-6,78.9-13.5,118.4-20.2,37.1-6.2,74.3-11.8,111.9-13.8,34.6-1.8,69.7-.5,103.6,7.6,33.8,8,65.5,23,92.9,44.3,3.8,2.9,7.4,6,11,9.1.9.8,3.6-.4,2.7-1.2h0Z"/>
    <path class="cls-3" d="M708.5,931.1c26.8-23.3,58.2-40.4,92.4-50,33.6-9.4,68.7-11.8,103.5-10.6,37.6,1.3,74.9,6.5,111.9,12.7,39.5,6.5,78.8,14.2,118.4,20.6,40.8,6.6,81.8,11.9,123.1,13.8,5.2.2,10.4.4,15.6.5,1,0,3.1-1.4,1.2-1.5-42.5-1-84.8-5.9-126.7-12.4-40.3-6.3-80.4-14-120.7-20.9-37.6-6.4-75.5-12-113.6-13.9-34.7-1.7-69.9-.1-103.8,8.1-33.7,8.2-65.4,23.2-92.8,44.6-3.6,2.8-7.2,5.8-10.6,8.8-1.2,1,1.7.9,2.3.3h0Z"/>
    <g>
      <path class="cls-9" d="M230.9,682l68.5-51.3c113.2-5.8,279.7-25.3,405.7,176.5v74c-111.7-206-303.1-188-474.3-199.2h0Z"/>
      <path class="cls-2" d="M231.9,682.5c10.7-8,21.5-16.1,32.2-24.1,7.7-5.8,15.4-11.5,23.1-17.3,2.8-2.1,5.6-4.2,8.5-6.3,1.5-1.1,3.1-2.1,4.5-3.3,0,0,.2-.2.3-.2.2-.1-.7.3-.6.3.4.2,1.4,0,1.9,0,2.3-.1,4.6-.2,6.9-.4,4.6-.2,9.1-.5,13.7-.8,9.7-.5,19.4-1,29-1.4,20.7-.8,41.4-1,62.1.1,22.1,1.2,44.2,3.8,65.9,8.6,23.3,5.1,46.1,12.6,67.7,22.7,23.9,11.2,46.4,25.4,66.8,42.1,23.9,19.5,45,42.2,63.7,66.8,5.3,7,10.4,14,15.3,21.3,2.6,3.8,5.1,7.7,7.6,11.5,1,1.6,2.7,3.5,3.4,5.2.1.3.1.2.2.5.3,1.8,0,4,0,5.8v67.9l2.8-.8c-19.6-36.1-44-69.6-74.4-97.5-25.8-23.6-55.4-42.7-87.4-56.7-30.9-13.5-63.6-22.4-96.7-28.3-33.6-6-67.6-9-101.6-11.1-34.2-2.1-68.6-3.1-102.8-5.1-4.1-.2-8.1-.5-12.1-.7-1.2,0-3,1.7-1.1,1.8,33.9,2.2,67.8,3.3,101.7,5.1,34,1.8,67.9,4.4,101.6,9.6,33.3,5.2,66.4,13.2,97.8,25.6,32.3,12.8,62.6,30.6,89.1,53.1,30.2,25.7,55.2,57.1,75.3,91.2,2.8,4.7,5.4,9.4,8,14.2.4.8,2.8.2,2.8-.8v-68.9c0-1.6.3-3.5,0-5.1,0-.4-.2-.5-.3-.9-1-2.1-2.6-4.2-3.9-6.1-2.5-3.9-5-7.7-7.6-11.5-18.4-26.9-39.3-52.2-63.4-74.3-20.1-18.5-42.4-34.6-66.5-47.6-21.5-11.5-44.3-20.5-67.8-26.8-21.9-5.9-44.5-9.6-67.1-11.5-21.2-1.8-42.5-2.1-63.7-1.7-19.5.5-38.9,1.6-58.4,2.7-2.2.1-4.4.2-6.6.4-1.1,0-2,0-3,.7-1.5,1-2.9,2.2-4.3,3.2-6.5,4.9-13,9.7-19.5,14.6-14,10.5-27.9,20.9-41.9,31.4-.9.7-1.8,1.3-2.6,2-1.6,1.2.8,1.8,1.9,1h0Z"/>
    </g>
    <path class="cls-3" d="M702.8,955.8c-26.8-23.3-58.1-40.5-92.1-50.8-33.7-10.2-69.1-13.6-104.2-13.4-38.4.2-76.7,4.5-114.7,9.8-40.6,5.7-81.1,12.8-121.7,18.8-41.9,6.2-84.1,11.5-126.5,13.3-5.3.2-10.6.4-15.8.5-1.1,0-3.1,1.7-1.1,1.6,41.7-.9,83.3-5.4,124.6-11.2,40.6-5.7,81-12.7,121.5-18.8,38.3-5.8,76.9-10.8,115.6-12.2,35.6-1.2,71.6.7,106.3,9.2,34.3,8.4,66.6,23.5,94.4,45.3,3.7,2.9,7.3,5.8,10.8,8.9.8.7,3.5-.5,2.7-1.1h0Z"/>
    <path class="cls-3" d="M706.1,955.3c27.1-23.6,59-40.8,93.5-50.6,34.3-9.8,70.2-12.6,105.7-11.9,38.7.7,77.3,5.5,115.6,11.1,40.4,6,80.7,13.2,121.1,19.2,41.2,6.2,82.7,11.3,124.4,13.1,5.1.2,10.3.4,15.4.5,1,0,3.1-1.4,1.2-1.5-42.9-1-85.5-5.7-127.9-11.9-41.2-6-82.2-13.3-123.4-19.5-38.7-5.9-77.6-11-116.8-12.3-35.7-1.2-71.8.9-106.5,9.5-34,8.4-66.1,23.5-93.7,45-3.7,2.9-7.3,5.9-10.8,9-1.2,1,1.7.9,2.3.3h0Z"/>
    <path class="cls-4" d="M794.1,955.1c0-36.8-54.1-49.9-88.9-50.1-36.2-.2-88.9,13.3-88.9,50.1s0,3.3.2,4.9h177.3c.2-1.6.2-3.3.2-4.9h0Z"/>
    <path class="cls-1" d="M561.5,642.9c-.2,0,.7-2.6,1.2-7,1.2-11.5-4-22.7-13.5-29.2-3.6-2.5-6.2-3.4-6.1-3.6.7,0,1.3.2,1.9.5,1.7.6,3.2,1.4,4.7,2.3,10.2,6.4,15.7,18.2,14,30.2-.2,1.8-.7,3.5-1.3,5.1-.4,1.2-.8,1.8-.8,1.7h0Z"/>
    <path class="cls-1" d="M627.8,651.4c-.2,0-.9-2.1-3.1-4.9-5.8-7.7-16.6-9.6-24.7-4.3-3,1.9-4.4,3.7-4.6,3.6.9-1.8,2.3-3.3,4.1-4.4,8.3-6,19.8-4.1,25.8,4.2,0,.1.2.2.3.4,1.3,1.6,2.1,3.5,2.3,5.5h0Z"/>
    <path class="cls-1" d="M771.3,541.7c-.7,0-1.4,0-2.1-.2-1.9-.4-3.7-1.1-5.4-2.1-11.7-6.1-16.2-20.5-10.1-32.2.2-.4.4-.8.7-1.2,1-1.7,2.2-3.2,3.5-4.6,1-.9,1.6-1.4,1.7-1.3-1.6,2-3.1,4.1-4.4,6.4-6.2,11.4-2.1,25.6,9.1,32.1,2.3,1.2,4.6,2.3,7.1,3.1h0Z"/>
    <path class="cls-1" d="M718.3,496.7c-.5.4-1.1.8-1.8,1-1.7.7-3.6,1.2-5.4,1.5-13,2-25.3-6.3-28.3-19.1-.5-1.8-.7-3.7-.7-5.6,0-.7,0-1.4.3-2,.3,2.5.7,4.9,1.3,7.4,3.3,12,14.8,19.9,27.2,18.5,4.6-.6,7.2-1.9,7.3-1.6h0Z"/>
    <path class="cls-11" d="M655.3,124.4l5.4,96.6c.5,13.4,11.5,23.9,24.9,23.9h8.3s23.1,35.1,65.6,31.4c0,0-24.9-17.5-21.2-38.8h17.6c13.7,0,24.9-11.1,24.9-24.9v-72.5c0-11.7-8.1-21.8-19.5-24.3l-75.7-16.5c-13.4-2.9-26.7,5.6-29.6,19-.4,2-.6,4.1-.6,6.2h0Z"/>
    <path class="cls-13" d="M646.6,121.7l5.4,96.6c.5,13.4,11.5,23.9,24.9,23.9h8.3s23.1,35.1,65.6,31.4c0,0-24.9-17.5-21.2-38.8h17.6c13.7,0,24.9-11.1,24.9-24.9v-72.5c0-11.7-8.1-21.8-19.5-24.3l-75.7-16.5c-13.4-2.9-26.7,5.6-29.6,19-.4,2-.6,4.1-.6,6.2h0Z"/>
    <path class="cls-11" d="M373.4,309.4c6.7-9.6,10.6-21.2,10.6-33.8,0-32.7-26.5-59.2-59.2-59.2s-59.2,26.5-59.2,59.2,26.5,59.2,59.2,59.2,24.4-4,34-10.7l25.2,8.4-10.6-23.1h0Z"/>
    <path class="cls-13" d="M365,307c6.7-9.6,10.6-21.2,10.6-33.8,0-32.7-26.5-59.2-59.2-59.2s-59.2,26.5-59.2,59.2,26.5,59.2,59.2,59.2,24.4-4,34-10.7l25.2,8.4-10.6-23.1h0Z"/>
    <path class="cls-11" d="M871.9,176.8c-5-7.1-7.9-15.8-7.9-25.2,0-24.4,19.8-44.2,44.2-44.2s44.2,19.8,44.2,44.2-19.8,44.1-44.2,44.1-18.2-3-25.3-8l-18.8,6.2,7.9-17.2h0Z"/>
    <path class="cls-13" d="M866,172.8c-5-7.1-7.9-15.8-7.9-25.2,0-24.4,19.8-44.2,44.2-44.2s44.2,19.8,44.2,44.2-19.8,44.1-44.2,44.1-18.2-3-25.3-8l-18.8,6.2,7.9-17.2h0Z"/>
    <path class="cls-11" d="M901.5,451.5h-78.8c-5.7,0-10.4,4.7-10.4,10.4v44.4c0,5.7,4.7,10.4,10.4,10.4h49.2c1.2,4.8,4,11.3,10.5,14.7,0,0-3.3-7.2-2.1-14.7h21.2c5.7,0,10.4-4.7,10.4-10.4v-44.4c0-5.7-4.7-10.4-10.4-10.4h0Z"/>
    <path class="cls-1" d="M778.2,343.2h-214.1c-9,0-16.3,7.3-16.3,16.3v35.4c0,9,7.3,16.3,16.3,16.3h13.8c0,6.7-2.2,15.4-11.1,20.1,0,0,26-.3,35.8-20.1h175.7c9,0,16.3-7.3,16.3-16.3v-35.4c0-9-7.3-16.3-16.3-16.3h0Z"/>
    <path class="cls-13" d="M895.7,449.8h-78.8c-5.7,0-10.4,4.7-10.4,10.4v44.4c0,5.7,4.7,10.4,10.4,10.4h49.2c1.2,4.8,4,11.3,10.5,14.7,0,0-3.3-7.2-2.1-14.7h21.2c5.7,0,10.4-4.7,10.4-10.4v-44.4c0-5.7-4.7-10.4-10.4-10.4h0Z"/>
    <path class="cls-1" d="M490.8,397l-183,25.3c-7.3,0-13.3,6-13.3,13.3v78c0,7.3,6,13.3,13.3,13.3h33.3l-4.6,48.1,38.8-48.1h100.8c7.3,0,13.3-6,13.3-13.3l14.7-103.2c0-7.3-6-13.3-13.3-13.3h0Z"/>
    <path class="cls-12" d="M280.2,438.2s-8.1-29,23.5-30.6"/>
    <path class="cls-12" d="M464.6,533.4s32.3,6.1,32.9-28.4"/>
    <path class="cls-12" d="M548.4,171.3s23.9-3.9,24.3,22.6"/>
    <path class="cls-12" d="M436,243.9s-4.6,23.9,22.8,25.2"/>
    <path class="cls-12" d="M860.5,260.5s20.5-23.1,61.4-19.4"/>
    <path class="cls-12" d="M1114.6,449s5.3,16.8-17.1,37.7"/>
    <path class="cls-1" d="M571,530.8l28.4-22.2,176.3,41.8c1.2-.5,2.4-1,3.6-1.3l1.3-.5-1.2.5c-.8.3-2,.8-3.6,1.5-4.5,2.1-8.7,5-12.3,8.5-5.8,5.6-10,12.7-11.9,20.5-2.6,10.5-1.1,21.7,4,31.2,0,0,.2.2.3.3h-.1c0,0,1,2,1,2l-1.7-1.6c-1.7-1.8-3.7-3.2-5.9-4.3-2.3-1.1-4.9-1.4-7.4-.7-2.6.8-4.9,2.2-6.7,4.2-1.9,2-3.6,4.3-5,6.8,2.2,8,2.6,16.3,1.2,24.4-1.5,8.9-5.2,17.2-10.7,24.2,0,.1,0,.3-.1.4h-.1s0,0-.2,0l-1.8,2.1.8-2.6c4.7-15.9.3-33-11.5-44.6-4.8,3-8.3,7.6-10.1,12.9l-.3.8-.7-.5c-3.9-3.5-8.5-6-13.5-7.5-5.1-1.6-10.6-1.2-15.4,1-10.1,4.2-18.7,11.5-24.6,20.7h0c0,0,0,0,0,0,0,.1-.2.2-.2.3l-1.1,1.8v-2.1c-.5-6.2-3.4-11.9-8.2-15.8-4.8-4.1-10.8-6.7-17-7.2-6.5-.4-12.9.8-18.8,3.4-6,2.7-11.6,6.2-16.5,10.6l-1.5,1.3.4-2c1-4.7,1.8-9.4,2.2-14.2.5-4.8,0-9.7-1.5-14.3-1.5-4.6-4.6-8.6-8.7-11.3-4.2-2.7-8.9-4.4-13.9-4.9-7.4-.8-14.6-2.2-21.7-1,0,0,0,0,0,0h0c0,0-.2,0-.2,0l-5.9,1.1,5.5-2.4c6.2-2.9,11.6-7.5,15.4-13.2,3.8-5.6,6.7-11.8,8.5-18.3,3.4-12.7,1.1-26.2-6.2-37.1,0,0-.2-.2-.3-.2h0c0-.1,0-.2-.1-.2l1-.8c4.5,4.6,10.7,7.2,17.1,7.1,6.3,0,12.4-2.1,17.3-6,4.7-4,8.1-9.3,9.9-15.1,1.8-5.7,2.3-11.8,1.4-17.8l-.4-2.9,1.6,2.5c9.8,15.6,30.4,20.4,46,10.6,8.5-5.3,14.2-14.2,15.5-24.2l.5-3.7.6,3.7c1.6,8.3,6.3,15.6,13.2,20.4,6.3,4.6,13.8,7.4,21.6,8.2,7.2.6,14.4.2,21.4-1.4,6.4-1.4,12.7-3.3,18.8-5.6l.8-.3-.2.8c-3.4,10.6-2.1,22.1,3.5,31.7,4.2,7.1,10.6,12.5,18.2,15.6,4.7,2,9.7,3,14.8,3.1,1.7,0,3,0,4-.2h1.3l-1.3.2"/>
    <path class="cls-13" d="M767.1,553.1c1.2-.5,2.4-1,3.6-1.3l1.3-.5-1.2.5c-.8.3-2,.8-3.6,1.5-4.5,2.1-8.7,5-12.3,8.5-5.8,5.6-10,12.7-11.9,20.5-2.6,10.5-1.1,21.7,4,31.2,0,0,.2.2.3.3h-.1c0,0,1,2,1,2l-1.7-1.6c-1.7-1.8-3.7-3.2-5.9-4.3-2.3-1.1-4.9-1.4-7.4-.7-2.6.8-4.9,2.2-6.7,4.2-1.9,2-3.6,4.3-5,6.8,2.2,8,2.6,16.3,1.2,24.4-1.5,8.9-5.2,17.2-10.7,24.2,0,.1,0,.3-.1.4h-.1s0,0-.2,0l-1.8,2.1.8-2.6c4.7-15.9.3-33-11.5-44.6-4.8,3-8.3,7.6-10.1,12.9l-.3.8-.7-.5c-3.9-3.5-8.5-6-13.5-7.5-5.1-1.6-10.6-1.2-15.4,1-10.1,4.2-18.7,11.5-24.6,20.7h0c0,0,0,0,0,0,0,.1-.2.2-.2.3l-1.1,1.8v-2.1c-.5-6.2-3.4-11.9-8.2-15.8-4.8-4.1-10.8-6.7-17-7.2-6.5-.4-12.9.8-18.8,3.4-6,2.7-11.6,6.2-16.5,10.6l-1.5,1.3.4-2c1-4.7,1.8-9.4,2.2-14.2.5-4.8,0-9.7-1.5-14.3-1.5-4.6-4.6-8.6-8.7-11.3-4.2-2.7-8.9-4.4-13.9-4.9-7.4-.8-14.6-2.2-21.7-1,0,0,0,0,0,0h0c0,0-.2,0-.2,0l-5.9,1.1,5.5-2.4c6.2-2.9,11.6-7.5,15.4-13.2,3.8-5.6,6.7-11.8,8.5-18.3,3.4-12.7,1.1-26.2-6.2-37.1,0,0-.2-.2-.3-.2h0c0-.1,0-.2-.1-.2l1-.8c4.5,4.6,10.7,7.2,17.1,7.1,6.3,0,12.4-2.1,17.3-6,4.7-4,8.1-9.3,9.9-15.1,1.8-5.7,2.3-11.8,1.4-17.8l-.4-2.9,1.6,2.5c9.8,15.6,30.4,20.4,46,10.6,8.5-5.3,14.2-14.2,15.5-24.2l.5-3.7.6,3.7c1.6,8.3,6.3,15.6,13.2,20.4,6.3,4.6,13.8,7.4,21.6,8.2,7.2.6,14.4.2,21.4-1.4,6.4-1.4,12.7-3.3,18.8-5.6l.8-.3-.2.8c-3.4,10.6-2.1,22.1,3.5,31.7,4.2,7.1,10.6,12.5,18.2,15.6,4.7,2,9.7,3,14.8,3.1,1.7,0,3,0,4-.2h1.3l-1.3.2"/>
    <path class="cls-13" d="M771.4,336h-214.1c-9,0-16.3,7.3-16.3,16.3v35.4c0,9,7.3,16.3,16.3,16.3h13.8c0,6.7-2.2,15.4-11.1,20.1,0,0,26-.3,35.8-20.1h175.7c9,0,16.3-7.3,16.3-16.3v-35.4c0-9-7.3-16.3-16.3-16.3h0Z"/>
    <path class="cls-13" d="M483.7,390.4l-183,25.3c-7.3,0-13.3,6-13.3,13.3v78c0,7.3,6,13.3,13.3,13.3h33.3l-4.6,48.1,38.8-48.1h100.8c7.3,0,13.3-6,13.3-13.3l14.7-103.2c0-7.3-6-13.3-13.3-13.3h0Z"/>
    <path class="cls-12" d="M534.4,357.7s-7.6-30.2,32.4-29.7"/>
    <path class="cls-12" d="M770.7,418.7s32.1,5.1,33.3-24.7"/>
    <path class="cls-12" d="M799.9,463.8s-3.2-21.2,18.5-21.8"/>
    <path class="cls-12" d="M902.7,523.6s19.6.5,18.5-19"/>
    <path class="cls-12" d="M251.8,245.6s14.2-33.7,50.5-39.3"/>
    <line class="cls-12" x1="384" y1="308.6" x2="393.7" y2="332.4"/>
    <line class="cls-12" x1="996.9" y1="512.6" x2="1002.6" y2="494.1"/>
  </g>
  <g id="Layer_3" data-name="Layer 3">
    <g id="freepik--speech-bubble-2--inject-2">
      <path class="cls-11" d="M555.9,181.1h-99.5c-5.7,0-10.4,4.6-10.3,10.4h0v59.3c0,5.7,4.6,10.3,10.4,10.3h51.9l13,25.1,2.4-25.1h32.1c5.7,0,10.3-4.6,10.3-10.4v-59.3c0-5.7-4.6-10.4-10.3-10.4h0,0Z"/>
      <path class="cls-13" d="M553.4,178.2h-99.5c-5.7,0-10.4,4.6-10.4,10.4v59.3c0,5.7,4.6,10.3,10.4,10.3h51.9l13,25.1,2.4-25.1h32.1c5.7,0,10.3-4.6,10.3-10.4v-59.3c0-5.7-4.6-10.4-10.3-10.4h0Z"/>
      <path class="cls-1" d="M490,219.9c0-1.9-1.6-3.5-3.5-3.5-1.9,0-3.5,1.6-3.5,3.5,0,1.9,1.6,3.5,3.5,3.5h0c1.9,0,3.5-1.6,3.5-3.5h0Z"/>
      <path class="cls-1" d="M506.9,219.9c0-1.9-1.6-3.5-3.5-3.5-1.9,0-3.5,1.6-3.5,3.5,0,1.9,1.6,3.5,3.5,3.5h0c1.9,0,3.5-1.6,3.5-3.5h0Z"/>
      <path class="cls-1" d="M523.7,219.9c0-1.9-1.6-3.5-3.5-3.5-1.9,0-3.5,1.6-3.5,3.5,0,1.9,1.6,3.5,3.5,3.5h0c1.9,0,3.5-1.6,3.5-3.5h0Z"/>
    </g>
    <g id="freepik--speech-bubble-1--inject-2">
      <path class="cls-10" d="M1042.5,397.6c-8.1,0-16.1,1.2-23.9,3.6l-18.6-21.2c11.8-13.1,18.4-30,18.5-47.6,0-42.9-39.6-77.7-88.4-77.7s-88.4,34.8-88.4,77.8,39.6,77.8,88.4,77.8c21.6.2,42.5-7,59.5-20.3l17.2,16.1c-16.9,8.8-27.9,23.5-27.9,40.3s18.1,39.6,43.1,46.1l-10.1,28.9,25.5-26.5c1.7,0,3.3.2,5,.2,35.1,0,63.5-21.8,63.5-48.7s-28.4-48.6-63.5-48.6h0Z"/>
      <path class="cls-13" d="M1036,392.3c-8.1,0-16.1,1.2-23.8,3.6l-18.6-21.2c11.8-13,18.4-30,18.5-47.6,0-42.9-39.6-77.7-88.4-77.7s-88.4,34.8-88.4,77.7,39.6,77.8,88.4,77.8c21.6.2,42.5-7,59.5-20.3l17.3,16.1c-16.9,8.8-27.9,23.5-27.9,40.3s18.1,39.6,43.1,46.1l-10.1,28.9,25.5-26.5c1.6,0,3.3.2,5,.2,35.1,0,63.5-21.8,63.5-48.7s-28.4-48.7-63.5-48.7h0Z"/>
      <circle class="cls-1" cx="905.2" cy="327.5" r="3.5"/>
      <circle class="cls-1" cx="921.9" cy="327.5" r="3.5"/>
      <path class="cls-1" d="M942,327.5c0-1.9-1.6-3.5-3.5-3.5s-3.5,1.6-3.5,3.5,1.6,3.5,3.5,3.5h0c1.9,0,3.5-1.6,3.5-3.5Z"/>
      <path class="cls-1" d="M1022.3,443.3c0-2.2-1.8-4-4-4s-4,1.8-4,4,1.8,4,4,4h0c2.2,0,4-1.8,4-4Z"/>
      <path class="cls-1" d="M1041.5,443.3c0-2.2-1.8-4-4-4s-4,1.8-4,4,1.8,4,4,4h0c2.2,0,4-1.8,4-4Z"/>
      <path class="cls-1" d="M1060.7,443.3c0-2.2-1.8-4-4-4s-4,1.8-4,4,1.8,4,4,4h0c2.2,0,4-1.8,4-4Z"/>
    </g>
    <g>
      <path class="cls-1" d="M693.2,178.6c0-2.2-1.8-4.1-4-4.1-2.2,0-4,1.8-4.1,4,0,2.2,1.8,4.1,4,4.1h0c2.2,0,4-1.8,4-4Z"/>
      <path class="cls-1" d="M712.6,178.6c0-2.2-1.8-4.1-4-4.1-2.2,0-4,1.8-4.1,4,0,2.2,1.8,4.1,4,4.1h0c2.2,0,4-1.8,4-4Z"/>
      <path class="cls-1" d="M732.1,178.6c0-2.2-1.8-4.1-4-4.1-2.2,0-4,1.8-4.1,4,0,2.2,1.8,4.1,4,4.1h0c2.2,0,4-1.8,4-4Z"/>
    </g>
    <g>
      <path class="cls-1" d="M649,371.9c0-2.2-1.8-4-4-4.1-2.2,0-4,1.8-4.1,4,0,2.2,1.8,4,4,4.1h0c2.2,0,4-1.8,4-4Z"/>
      <path class="cls-1" d="M668.4,371.9c0-2.2-1.8-4-4-4.1-2.2,0-4,1.8-4.1,4,0,2.2,1.8,4,4,4.1h0c2.2,0,4-1.8,4-4Z"/>
      <path class="cls-1" d="M687.8,371.9c0-2.2-1.8-4-4-4.1-2.2,0-4,1.8-4.1,4,0,2.2,1.8,4,4,4.1h0c2.2,0,4-1.8,4-4Z"/>
    </g>
    <g>
      <path class="cls-1" d="M302.3,275.7c0-2-1.6-3.7-3.7-3.7s-3.7,1.6-3.7,3.7,1.6,3.7,3.7,3.7h0c2,0,3.7-1.6,3.7-3.7h0Z"/>
      <path class="cls-1" d="M320,275.7c0-2-1.6-3.7-3.7-3.7s-3.7,1.6-3.7,3.7,1.6,3.7,3.7,3.7h0c2,0,3.7-1.6,3.7-3.7h0Z"/>
      <path class="cls-1" d="M337.6,275.7c0-2-1.6-3.7-3.7-3.7s-3.7,1.6-3.7,3.7,1.6,3.7,3.7,3.7h0c2,0,3.7-1.6,3.7-3.7h0Z"/>
    </g>
    <g>
      <path class="cls-1" d="M846.2,483.2c0-1.7-1.3-3-3-3s-3,1.3-3,3,1.3,3,3,3h0c1.7,0,3-1.3,3-3h0Z"/>
      <path class="cls-1" d="M860.7,483.2c0-1.7-1.3-3-3-3s-3,1.3-3,3,1.3,3,3,3h0c1.7,0,3-1.3,3-3h0Z"/>
      <path class="cls-1" d="M875.1,483.2c0-1.7-1.3-3-3-3s-3,1.3-3,3,1.3,3,3,3h0c1.7,0,3-1.3,3-3h0Z"/>
    </g>
    <g>
      <path class="cls-1" d="M363.8,463.3c0-2.8-2.2-5-5-5s-5,2.2-5,5,2.2,5,5,5h0c2.8,0,5-2.2,5-5Z"/>
      <path class="cls-1" d="M387.9,463.3c0-2.8-2.2-5-5-5s-5,2.2-5,5,2.2,5,5,5h0c2.8,0,5-2.2,5-5Z"/>
      <path class="cls-1" d="M412.1,463.3c0-2.8-2.2-5-5-5s-5,2.2-5,5,2.2,5,5,5h0c2.8,0,5-2.2,5-5Z"/>
    </g>
    <g>
      <path class="cls-1" d="M623.4,572.1c0-3.4-2.7-6.2-6.1-6.2-3.4,0-6.2,2.7-6.2,6.1,0,3.4,2.7,6.2,6.1,6.2h0c3.4,0,6.1-2.7,6.2-6.1h0Z"/>
      <path class="cls-1" d="M652.9,572.1c0-3.4-2.7-6.2-6.1-6.2-3.4,0-6.2,2.7-6.2,6.1,0,3.4,2.7,6.2,6.1,6.2h0c3.4,0,6.1-2.7,6.2-6.1h0Z"/>
      <path class="cls-1" d="M682.3,572.1c0-3.4-2.7-6.2-6.1-6.2-3.4,0-6.2,2.7-6.2,6.1,0,3.4,2.7,6.2,6.1,6.2h0c3.4,0,6.1-2.7,6.2-6.1h0Z"/>
    </g>
    <circle class="cls-1" cx="889.4" cy="147.2" r="2.9"/>
    <circle class="cls-1" cx="903.2" cy="147.2" r="2.9"/>
    <path class="cls-1" d="M919.9,147.2c0-1.6-1.3-2.9-2.9-2.9s-2.9,1.3-2.9,2.9,1.3,2.9,2.9,2.9h0c1.6,0,2.9-1.3,2.9-2.9Z"/>
  </g>
</svg>