<?xml version="1.0" encoding="UTF-8"?>
<svg xmlns="http://www.w3.org/2000/svg" xmlns:xlink="http://www.w3.org/1999/xlink" viewBox="0 0 1334 1000">
  <defs>
    <style>
      .cls-1, .cls-2, .cls-3 {
        fill: none;
      }

      .cls-4 {
        fill: #d2edf4;
      }

      .cls-5 {
        fill: #0258a0;
      }

      .cls-6 {
        fill: #dfdfdf;
      }

      .cls-7 {
        fill: #3b2314;
      }

      .cls-8 {
        fill: #4c4b4c;
      }

      .cls-9 {
        fill: #ffab94;
      }

      .cls-10 {
        fill: #d7b529;
      }

      .cls-11 {
        fill: #ffcfc0;
      }

      .cls-12 {
        fill: #e99023;
      }

      .cls-13 {
        fill: #f79c00;
      }

      .cls-14 {
        fill: #fc3e52;
      }

      .cls-15 {
        fill: #263238;
      }

      .cls-16 {
        fill: #fcf1d4;
      }

      .cls-17 {
        isolation: isolate;
      }

      .cls-2 {
        stroke: #263238;
        stroke-width: 1.04px;
      }

      .cls-2, .cls-3 {
        stroke-miterlimit: 10;
      }

      .cls-18 {
        clip-path: url(#clippath-3);
      }

      .cls-19 {
        clip-path: url(#clippath-4);
      }

      .cls-20 {
        clip-path: url(#clippath-2);
      }

      .cls-21, .cls-22 {
        fill: #87b448;
      }

      .cls-23 {
        fill: #06c;
      }

      .cls-22 {
        mix-blend-mode: multiply;
        opacity: .5;
      }

      .cls-24 {
        fill: #008bcd;
      }

      .cls-25 {
        fill: #ffecab;
      }

      .cls-26 {
        fill: #fff;
      }

      .cls-27 {
        fill: #ffc000;
      }

      .cls-28 {
        fill: #00cda6;
      }

      .cls-29 {
        fill: #eae745;
      }

      .cls-30 {
        opacity: .3;
      }

      .cls-31 {
        fill: #dc1f26;
      }

      .cls-32 {
        fill: #b7131f;
      }

      .cls-33 {
        fill: #ff911c;
      }

      .cls-34 {
        fill: #ffe500;
      }

      .cls-35 {
        fill: #72451b;
      }

      .cls-36 {
        fill: #21572b;
      }

      .cls-37 {
        fill: #5c4098;
      }

      .cls-38 {
        fill: #ba8f6c;
      }

      .cls-39 {
        fill: #e47725;
      }

      .cls-3 {
        stroke: #c1c1c1;
      }

      .cls-40 {
        fill: #87402a;
      }

      .cls-41 {
        fill: #af3f27;
      }

      .cls-42 {
        fill: #af6b4e;
      }

      .cls-43 {
        fill: #f2ead0;
      }

      .cls-44 {
        fill: #4f2e25;
      }
    </style>
    <clipPath id="clippath-2">
      <path class="cls-1" d="M648.31,192.86s-261.36-67.91-487.04-48.4l-5.49,617.44,131.27-3.6c88.65-5.39,155.48-6.17,228.2-6.25h133.06V192.86Z"/>
    </clipPath>
    <clipPath id="clippath-3">
      <path class="cls-1" d="M1165.7,771.56l10.31-614.18c-250.48-20.13-472.4,35.49-472.4,35.49v559.69s302.94,3.51,462.1,19Z"/>
    </clipPath>
    <clipPath id="clippath-4">
      <path class="cls-1" d="M996.6,645.47c-3.3.94-6.87-.67-8.31-3.89-1.57-3.53.01-7.66,3.54-9.24.91-.47,3.02-2.85,4.28-4.27,2.02-2.28,4.11-4.63,6.55-6.38,8.08-5.8,17.91-10.51,30.02-14.41,10.03-3.24,19.11-3.92,27.9-4.57,3.37-.25,6.8-.51,10.39-.91,13.01-1.48,27.82-7.62,29.6-17.65,1.24-6.96-1.47-14.9-6.3-18.48-3.11-2.3-3.76-6.68-1.46-9.79,2.3-3.11,6.69-3.76,9.79-1.46,9.09,6.73,13.92,19.97,11.75,32.18-3.26,18.37-24.56,27.16-41.81,29.11-3.77.42-7.38.7-10.92.96-8.33.63-16.21,1.19-24.64,3.93-10.86,3.5-19.18,7.47-26.16,12.47-1.17.84-2.73,2.59-4.23,4.3-2.7,3.04-5.49,6.18-9.06,7.76-.31.14-.62.25-.93.34Z"/>
    </clipPath>
  </defs>
  <g class="cls-17">
    <g id="Layer_16" data-name="Layer 16">
      <polyline class="cls-43" points="1362.43 1000.11 1362.43 -33.61 -36.03 -39.04 -34 1012.34"/>
      <path class="cls-36" d="M73.66,157.16l-14.79,637.88c-.44,18.4,16.93,33.75,38.8,34.3.87.02,1.73.02,2.59,0l576.51-11.47,2.14-646.93L121.37,121.75c-23.96-2.12-45.23,12.49-47.52,32.63-.1.92-.17,1.85-.19,2.78Z"/>
      <polygon class="cls-6" points="155.78 120.73 101.87 134.93 86.69 789.49 86.37 803.02 144.24 804.37 155.78 120.73"/>
      <path class="cls-26" d="M681.17,169.62s-205.49-70.72-552.45-52.12l-11.76,687.04,294.51-6.45,264.82-5.8,4.88-622.67Z"/>
      <path class="cls-15" d="M109.47,132.65c-.1,6-.2,12-.3,17.99-.27,16.18-.53,32.36-.8,48.54-.4,24.08-.79,48.16-1.19,72.24-.48,29.18-.96,58.36-1.44,87.53-.53,32.18-1.06,64.35-1.59,96.53-.53,32.26-1.06,64.52-1.59,96.78-.5,30.28-1,60.57-1.49,90.85-.42,25.42-.84,50.84-1.25,76.26-.3,18.41-.61,36.81-.91,55.22-.14,8.66-.34,17.33-.43,25.99,0,.38-.01.76-.02,1.14-.03,1.61,3.28,1.06,3.3-.3.1-6,.2-12,.3-17.99.27-16.18.53-32.36.8-48.54.4-24.08.79-48.16,1.19-72.24.48-29.18.96-58.36,1.44-87.53.53-32.18,1.06-64.35,1.59-96.53.53-32.26,1.06-64.52,1.59-96.78.5-30.28,1-60.57,1.49-90.85.42-25.42.84-50.84,1.25-76.26.3-18.41.61-36.81.91-55.22.14-8.66.34-17.33.43-25.99,0-.38.01-.76.02-1.14.03-1.61-3.28-1.06-3.3.3h0Z"/>
      <path class="cls-36" d="M1284.49,168.54l-3.67,638c-.09,18.4-17.9,33.37-39.78,33.43-.87,0-1.73-.02-2.59-.06l-561.68-22.05,2.27-648.9,558.79-36.87c24.01-1.59,44.85,13.49,46.56,33.67.08.93.11,1.86.11,2.78Z"/>
      <path class="cls-26" d="M676.82,167.6s207.47-66.17,553.78-39.92l-8.13,687.08-294.23-12.94-251.95-9.53.53-624.69Z"/>
      <line class="cls-2" x1="675.91" y1="766.58" x2="676.4" y2="192.86"/>
      <path class="cls-15" d="M124.32,125.59c-.1,6.08-.19,12.16-.29,18.24-.26,16.4-.52,32.8-.79,49.2-.39,24.41-.78,48.82-1.17,73.23l-1.42,88.73c-.52,32.61-1.04,65.23-1.56,97.84-.52,32.7-1.05,65.4-1.57,98.1-.49,30.7-.98,61.39-1.47,92.09-.41,25.77-.82,51.53-1.24,77.3-.3,18.66-.6,37.31-.89,55.97-.14,8.78-.31,17.56-.42,26.34,0,.38-.01.77-.02,1.15-.02,1.45,3.26.82,3.28-.37.1-6.08.19-12.16.29-18.24.26-16.4.52-32.8.79-49.2.39-24.41.78-48.82,1.17-73.23.47-29.58.95-59.15,1.42-88.73.52-32.61,1.04-65.23,1.56-97.84.52-32.7,1.05-65.4,1.57-98.1.49-30.7.98-61.39,1.47-92.09.41-25.77.82-51.53,1.24-77.3.3-18.66.6-37.31.89-55.97.14-8.78.31-17.56.42-26.34,0-.38.01-.77.02-1.15.02-1.45-3.26-.82-3.28.37h0Z"/>
      <polygon class="cls-6" points="1203.45 130.31 1256.94 145.69 1253.17 800.38 1253.09 813.92 1195.2 813.99 1203.45 130.31"/>
      <path class="cls-15" d="M1241.31,143.46c-.03,6-.06,12-.09,18-.08,16.18-.16,32.37-.24,48.55-.12,24.09-.24,48.18-.36,72.27-.15,29.19-.29,58.38-.44,87.57-.16,32.19-.32,64.37-.48,96.56-.16,32.27-.32,64.54-.48,96.81l-.45,90.88c-.13,25.43-.25,50.86-.38,76.29-.09,18.41-.18,36.82-.28,55.24-.04,8.66-.16,17.33-.13,26,0,.38,0,.76,0,1.14,0,1.77,3.31,1.34,3.32-.22.03-6,.06-12,.09-18,.08-16.18.16-32.37.24-48.55.12-24.09.24-48.18.36-72.27.15-29.19.29-58.38.44-87.57.16-32.19.32-64.37.48-96.56.16-32.27.32-64.54.48-96.81.15-30.29.3-60.59.45-90.88.13-25.43.25-50.86.38-76.29.09-18.41.18-36.82.28-55.24.04-8.66.16-17.33.13-26,0-.38,0-.76,0-1.14,0-1.77-3.31-1.34-3.32.22h0Z"/>
      <path class="cls-15" d="M1229.8,138.68c-.06,6.05-.13,12.11-.19,18.16-.17,16.33-.34,32.66-.51,48.99-.25,24.3-.5,48.61-.75,72.91-.3,29.45-.61,58.9-.91,88.35l-1.01,97.42c-.34,32.56-.67,65.12-1.01,97.67-.32,30.56-.63,61.13-.95,91.69-.27,25.66-.53,51.31-.8,76.97-.19,18.58-.38,37.15-.58,55.73-.09,8.74-.26,17.49-.27,26.23,0,.38,0,.76-.01,1.15-.02,1.75,3.3,1.3,3.32-.23.06-6.05.13-12.11.19-18.16.17-16.33.34-32.66.51-48.99.25-24.3.5-48.61.75-72.91.3-29.45.61-58.9.91-88.35l1.01-97.42c.34-32.56.67-65.12,1.01-97.67.32-30.56.63-61.13.95-91.69.27-25.66.53-51.31.8-76.97.19-18.58.38-37.15.58-55.73.09-8.74.26-17.49.27-26.23,0-.38,0-.76.01-1.15.02-1.75-3.3-1.3-3.32.23h0Z"/>
    </g>
    <g id="Layer_18" data-name="Layer 18">
      <g class="cls-20">
        <path class="cls-4" d="M679.04,168.96S351.62,103.01,125.96,125.41l-5.42,612.61,232.03-8c39.21-5.91,110.48-4.11,150.06-.91l174.9,2.04,1.51-562.18Z"/>
        <path class="cls-21" d="M136.05,800.41l1.88-122.73c49-12.04,167.15-31.95,259.23-30.34,105.67,1.85,196.23,17.15,265.57,40.92l1.53,90.65-528.2,21.5Z"/>
        <path class="cls-22" d="M318.4,674.07c-.04,11.14,41.83,20.63,93.51,21.19,51.69.56,93.59-5.34,93.64-19.15.04-11.14-41.83-20.63-93.51-21.2-51.68-.56-93.6,8.01-93.64,19.15Z"/>
        <path class="cls-35" d="M484.46,629.32c-4.86,11.11-2.78,26.73-14.6,34.07-6.15,3.82-13.2,6.28-20.34,7.17-4.91.61-14.38-.84-18.81-3.62-8.34-5.24-6.93-26.21-6.88-34.59.07-12.26,4.46-30.23,16.91-36.36,9.49-4.66,19.43-2.08,29.58-2.83,6.96-.52,22.88-14.33,23.25-4.86.5,12.74-5.45,32.63-9.12,41.02Z"/>
        <path class="cls-35" d="M335.36,627.69c4.79,11.22,2.61,26.79,14.38,34.39,6.13,3.96,13.16,6.57,20.29,7.61,4.91.71,14.39-.52,18.83-3.21,8.37-5.06,7.1-26.06,7.1-34.44,0-12.26-4.26-30.33-16.67-36.72-9.46-4.87-19.41-2.5-29.56-3.48-6.95-.67-22.78-14.83-23.22-5.36-.58,12.73,5.24,32.74,8.85,41.21Z"/>
        <path class="cls-35" d="M463.19,500.59c-20.99-16.87-76.82-18.01-100.7-2.7-26.26,16.84-46.89,91.49-29.93,115.01,17.5,24.26,141.86,27.44,155.26,1.66,14.74-28.37-.58-94.65-24.62-113.97Z"/>
        <path class="cls-35" d="M466,547.04c43.55.54,83.41-28.81,96.86-67.23,5.69-16.25-25.57-27.91-34.36-8.76-12.96,28.25-30.58,33.28-60.97,32.89-18.11-.22-19.62,42.87-1.53,43.1h0Z"/>
        <path class="cls-35" d="M368.95,535.23c-40.92,13.8-89.02-1.74-115.45-33.91-11.17-13.6,13.09-34.99,28.22-19.6,22.33,22.71,41.83,22.93,70.39,13.29,17.01-5.74,33.84,34.48,16.84,40.22h0Z"/>
        <path class="cls-16" d="M445.22,496.21c-13.85-13.34-50.7-14.16-66.47-1.99-17.35,13.39-30.99,72.58-19.81,91.19,11.54,19.21,93.63,21.54,102.49,1.09,9.74-22.51-.34-75.02-16.21-90.29Z"/>
        <g>
          <path class="cls-35" d="M461.34,357.5c-.04,11.96,18.65,28.57,31.29,28.71,12.64.14,27.01-17.52,27.05-29.49.04-11.96-10.13-23.06-22.77-23.2-12.64-.14-35.53,12.01-35.57,23.97Z"/>
          <path class="cls-16" d="M462.27,365.5c-.03,8.63,13.45,20.61,22.57,20.71,9.11.1,17.57-16.18,17.6-24.81.03-8.63-1.46-11.12-10.57-11.22-9.12-.1-29.57,6.69-29.6,15.32Z"/>
        </g>
        <g>
          <path class="cls-35" d="M366.28,356.43c-.04,11.96-18.83,28.16-31.47,28.03-12.64-.14-27.01-17.78-26.97-29.74.04-11.96,10.47-24.27,23.1-24.13,12.64.14,35.38,13.88,35.34,25.85Z"/>
          <path class="cls-16" d="M365.29,364.4c-.03,8.63-13.58,20.31-22.7,20.21-9.11-.1-17.47-16.56-17.44-25.19.03-8.63,1.53-11.08,10.64-10.98,9.12.1,29.53,7.33,29.5,15.96Z"/>
        </g>
        <path class="cls-35" d="M476.86,353.24c-25.51-19.2-93.33-20.54-122.35-3.15-31.9,19.13-56.95,103.99-36.34,130.76,21.26,27.6,172.36,31.31,188.63,2.01,17.9-32.25-.73-107.63-29.94-129.62Z"/>
        <g>
          <path class="cls-16" d="M374.45,462.1c-.06,18.47,17.09,22.17,38.27,22.4,21.17.23,38.35-3.1,38.41-21.56.06-18.47-17.03-41.63-38.21-41.86-21.18-.23-38.42,22.56-38.47,41.02Z"/>
          <path class="cls-35" d="M412.97,414.27c-6.66-.08-15.93,20.81-14.45,22.36,1.58,1.65,25.2,1.8,31.02.72,0,0-9.96-23.01-16.57-23.08Z"/>
          <path class="cls-26" d="M443.52,419.08c-.03,8.02,5.17,14.58,11.61,14.65,6.44.07,11.67-6.38,11.7-14.39.03-8.02-5.17-14.58-11.6-14.65-6.43-.07-11.68,6.37-11.7,14.39Z"/>
          <path d="M455.19,416.07c5.14.06,9.49,2.1,11.02,7.87-1.57,5.74-5.93,9.85-11.07,9.79-5.14-.06-9.48-4.26-11.01-10.03,1.57-5.74,5.93-7.69,11.07-7.63Z"/>
          <path d="M428.12,440.31c3.21-3.26,1.04-5.98-4.82-6.04l-19.1-.21c-5.86-.06-8.05,2.6-4.86,5.93,0,0,11.72,11.38,14.04,11.4,2.4.02,14.74-11.09,14.74-11.09Z"/>
        </g>
        <path class="cls-26" d="M357.65,418.15c-.03,8.02,5.17,14.58,11.61,14.65,6.44.07,11.67-6.38,11.7-14.39.03-8.02-5.17-14.58-11.6-14.65-6.43-.07-11.68,6.37-11.7,14.39Z"/>
        <path d="M369.32,415.13c5.14.06,9.49,2.1,11.02,7.87-1.57,5.74-5.93,9.85-11.07,9.79-5.14-.06-9.48-4.26-11.01-10.03,1.57-5.74,5.93-7.69,11.07-7.63Z"/>
        <path class="cls-16" d="M439.35,479.19c-4.23,4.56-8.46,9.12-12.7,13.67-.27-1.54-.55-3.09-.82-4.63-4.22,3.27-8.73,6.2-13.47,8.76.29-2.19-.05-4.45-.97-6.48-.73,1.48-1.66,2.88-2.76,4.14-.35.4-.82.83-1.37.75-.44-.06-.75-.43-1.01-.77-1.52-1.98-3.04-3.96-4.57-5.94.34,1.65.07,4.08-1.71,4.06-1.06-.01-1.77-1.01-2.33-1.87-2.04-3.11-4.71-5.86-7.82-8.05-.77-.55-1.66-1.2-1.67-2.11-.02-1.61,2.36-1.93,4.06-1.79,6.36.54,12.82-.06,18.92-1.77"/>
        <path class="cls-16" d="M461.63,586.27c-2.69,6.93-7.76,12.99-14.27,17.05.29-.93.59-1.86.88-2.8-3.91,2.1-7.82,4.2-11.72,6.3.42-1.46.84-2.91,1.25-4.37-5.63,3.23-11.57,5.97-17.74,8.17.43-1.79.22-4.44-1.72-4.51-.55-.02-1.07.22-1.56.46-1.23.59-2.46,1.18-3.69,1.76-1.01.48-2.1.98-3.23.86-1.01-.11-1.87-.7-2.69-1.27-2.62-1.82-5.25-3.63-7.87-5.45-.09,1.6-.19,3.19-.28,4.79-4.78-1.45-9.4-3.39-13.76-5.77-.06,1.38-.12,2.76-.18,4.14-4.23-1.96-8.18-4.49-11.69-7.47-.12,1.94-.24,3.88-.36,5.82-5.28-4.93-9.72-10.67-13.06-16.93-1.44-2.7-2.59-6.2-.55-8.49,1.65-1.85,4.59-1.94,7.16-1.81,6.11.3,12.21.99,18.24,2.06"/>
        <path class="cls-35" d="M431.21,670.23c12.6,3.48,22.72,1.33,35.39-1.69,1.24-.29,2.5-.65,3.5-1.39,3.01-2.23,2.23-7.07-.55-9.6-2.78-2.53-6.77-3.36-10.53-4.08-6.18-1.19-12.54-2.38-18.73-1.34-6.19,1.04-12.26,4.84-13.87,10.6,0,0-3.48,5.23,4.79,7.52Z"/>
        <path class="cls-35" d="M353.25,670.57c12.6,3.48,22.72,1.33,35.39-1.69,1.24-.29,2.5-.65,3.5-1.39,3.01-2.23,2.23-7.07-.55-9.6-2.78-2.53-6.77-3.36-10.53-4.08-6.18-1.19-12.54-2.38-18.73-1.34-6.19,1.04-12.26,4.84-13.87,10.6,0,0-3.48,5.23,4.79,7.52Z"/>
        <polygon class="cls-26" points="449.46 414.67 453.5 423.89 445.19 417.07 449.46 414.67"/>
        <polygon class="cls-26" points="363.85 414.83 367.89 424.05 359.57 417.23 363.85 414.83"/>
        <path class="cls-41" d="M428.22,464.42s-2.65,12.51-15.48,12.76c-12.83.25-16.31-12.36-16.31-12.36,0,0,14.56.26,16.15-4.28,0,0,4.83,4.96,15.63,3.87Z"/>
        <path d="M412.23,460.84c4.33,4.15,11.21,5.91,16.62,2.9,2.98-1.66,5.21-4.33,7.01-7.17.33-.52-.56-.7-.81-.31-2.68,4.24-6.58,8.26-11.92,8.31-3.12.03-6.14-1.28-8.64-3.07-.53-.38-1.06-.78-1.53-1.23-.32-.31-1.14.18-.73.57h0Z"/>
        <path d="M387.8,456.07c2.69,3.73,6.18,7.3,10.74,8.57,2.82.78,5.78.56,8.51-.43,1.89-.68,3.68-1.72,5.23-3,.22-.18.66-.45.78-.72.23-.55,0-1.66.01-2.24,0-2.71.02-5.42.03-8.13,0-.22-.95-.06-.96.26,0,2.04-.01,4.08-.02,6.12,0,1.15,0,2.3-.01,3.45,0,.19.06.53,0,.71.04-.11,0-.05-.12.07-.97,1.09-2.51,1.93-3.79,2.56-2.54,1.24-5.38,1.71-8.16,1.12-4.85-1.03-8.55-4.8-11.34-8.68-.15-.21-1.08.1-.89.35h0Z"/>
        <path class="cls-1" d="M591.84,185.77s-147.74-53.15-393.65-30.59l4.44,585.98,123.64-8.99c56.54-2.25,121.8-3.29,176.76-5.89l95.02.94-6.21-541.45Z"/>
      </g>
      <path class="cls-6" d="M928.83,413.88l-.48-.06c.16.03.32.05.48.06Z"/>
      <g class="cls-30">
        <path d="M852.2,593.02h0c-.38-.02-.76-.09-1.12-.19.37.1.74.16,1.12.19Z"/>
      </g>
      <g class="cls-18">
        <path class="cls-4" d="M648.31,192.86s304.66-82.68,555.14-62.55l24.52,662.8-202.58-18.26c-43.57-5.66-122.44-2.51-166.19,1.59l-203.85-1.51-7.04-582.07Z"/>
        <path class="cls-21" d="M1280.74,802.46l-4.17-119.56c-58.02-14.01-197.6-36.48-305.87-32.7-124.25,4.33-230.3,25.07-311.13,55.94l4,113.54,617.16-17.21Z"/>
        <path class="cls-22" d="M1065.03,697.52c.39,13.84-48.57,26.43-109.34,28.13-60.77,1.69-110.35-8.15-110.74-21.99-.39-13.84,48.57-26.43,109.34-28.13,60.77-1.69,110.35,8.15,110.73,21.99Z"/>
        <path class="cls-12" d="M874.34,669.23c5.24,11.85,3.54,28.64,15.74,36.32,6.35,4,13.58,6.52,20.86,7.35,5.01.57,14.59-1.14,19.01-4.2,8.33-5.76,6.34-28.24,6.07-37.23-.4-13.16-5.33-32.37-18.15-38.73-9.77-4.85-19.8-1.91-30.14-2.55-7.08-.44-23.63-15-23.75-4.83-.17,13.68,6.4,34.92,10.36,43.86Z"/>
        <path class="cls-12" d="M1025.81,665.01c-4.57,12.12-1.94,28.79-13.69,37.14-6.12,4.35-13.2,7.26-20.42,8.5-4.97.85-14.63-.32-19.22-3.13-8.64-5.29-7.91-27.85-8.14-36.83-.33-13.16,3.52-32.62,15.96-39.68,9.48-5.38,19.66-3.01,29.95-4.22,7.05-.84,22.75-16.29,23.45-6.14.93,13.64-4.45,35.22-7.9,44.37Z"/>
        <path class="cls-12" d="M996.6,645.47c-3.3.94-6.87-.67-8.31-3.89-1.57-3.53.01-7.66,3.54-9.24.91-.47,3.02-2.85,4.28-4.27,2.02-2.28,4.11-4.63,6.55-6.38,8.08-5.8,17.91-10.51,30.02-14.41,10.03-3.24,19.11-3.92,27.9-4.57,3.37-.25,6.8-.51,10.39-.91,13.01-1.48,27.82-7.62,29.6-17.65,1.24-6.96-1.47-14.9-6.3-18.48-3.11-2.3-3.76-6.68-1.46-9.79,2.3-3.11,6.69-3.76,9.79-1.46,9.09,6.73,13.92,19.97,11.75,32.18-3.26,18.37-24.56,27.16-41.81,29.11-3.77.42-7.38.7-10.92.96-8.33.63-16.21,1.19-24.64,3.93-10.86,3.5-19.18,7.47-26.16,12.47-1.17.84-2.73,2.59-4.23,4.3-2.7,3.04-5.49,6.18-9.06,7.76-.31.14-.62.25-.93.34Z"/>
        <path class="cls-12" d="M892.52,530.75c20.88-18.45,77.57-20.61,102.25-4.57,27.14,17.63,50.08,97.39,33.48,122.91-17.13,26.32-143.42,31.8-157.72,4.36-15.73-30.2-1.93-101.57,21.98-122.7Z"/>
        <path class="cls-12" d="M890.9,580.64c-44.24,1.3-85.52-29.53-100.21-70.53-6.21-17.34,18.17-27.66,27.61-7.26,13.92,30.09,39.03,32.48,69.9,31.57,18.4-.54,21.08,45.68,2.7,46.22h0Z"/>
        <path class="cls-12" d="M996.84,573.65c43.96,5.17,87.77-21.93,106-61.5,7.7-16.73-15.68-29.14-26.87-9.64-16.5,28.76-41.72,28.94-72.4,25.33-18.28-2.15-25,43.66-6.74,45.81h0Z"/>
        <path class="cls-16" d="M910.67,525.75c13.72-14.54,51.14-16.04,67.49-3.24,17.98,14.07,33.43,77.36,22.56,97.52-11.21,20.8-94.57,24.67-104.11,2.87-10.5-23.99-1.65-80.5,14.06-97.15Z"/>
        <g>
          <path class="cls-12" d="M890.59,377.18c.36,12.83-18.19,30.97-31.03,31.33-12.84.36-25.36-23.67-25.72-36.5-.36-12.84,1.64-16.57,14.48-16.93,12.84-.36,41.91,9.27,42.27,22.11Z"/>
          <path class="cls-16" d="M889.86,385.78c.26,9.26-13.12,22.34-22.38,22.59-9.26.26-18.29-17.07-18.55-26.33-.26-9.26,1.18-11.95,10.44-12.21,9.26-.26,30.23,6.68,30.48,15.94Z"/>
        </g>
        <g>
          <path class="cls-12" d="M987.16,374.45c.36,12.83,19.89,29.91,32.73,29.55,12.84-.36,24-25.05,23.64-37.88-.36-12.84-2.56-16.45-15.4-16.1-12.84.36-41.33,11.59-40.97,24.43Z"/>
          <path class="cls-16" d="M988.37,382.99c.26,9.26,14.34,21.57,23.6,21.31,9.26-.26,17.31-18.06,17.05-27.32-.26-9.26-1.85-11.87-11.11-11.61-9.26.26-29.81,8.36-29.55,17.62Z"/>
        </g>
        <path class="cls-12" d="M874.7,372.87c25.41-21.02,94.29-23.59,124.24-5.41,32.93,20,60.64,110.64,40.41,139.7-20.87,29.97-174.31,36.46-191.61,5.3-19.05-34.31-2.13-115.5,26.97-139.58Z"/>
        <g>
          <path class="cls-16" d="M981.67,487.98c.55,19.82-16.78,24.07-38.29,24.67-21.51.6-39.05-2.68-39.6-22.5-.55-19.81,16.2-44.95,37.71-45.55,21.51-.6,39.64,23.56,40.19,43.38Z"/>
          <path class="cls-12" d="M941.26,437.3c6.76-.19,16.74,22.07,15.28,23.75-1.56,1.8-25.56,2.35-31.5,1.29,0,0,9.51-24.85,16.23-25.04Z"/>
          <path class="cls-26" d="M910.34,442.97c.24,8.6-4.87,15.73-11.4,15.91-6.54.18-12.03-6.65-12.27-15.25-.24-8.61,4.86-15.73,11.4-15.91,6.54-.18,12.03,6.64,12.27,15.25Z"/>
          <path d="M898.4,439.93c-5.22.15-9.58,2.41-10.98,8.63,1.74,6.13,6.29,10.47,11.51,10.32,5.22-.15,9.52-4.73,10.92-10.95-1.75-6.13-6.23-8.15-11.45-8Z"/>
          <path d="M926.55,465.49c-3.35-3.45-1.22-6.4,4.74-6.56l19.4-.54c5.96-.17,8.25,2.66,5.09,6.29,0,0-11.6,12.4-13.96,12.47-2.44.06-15.27-11.65-15.27-11.65Z"/>
          <path class="cls-7" d="M899.76,420.82c-3.55-1.12-7.94-.52-10.59,2.21-1.35,1.38-2.12,3.19-2.59,5.04-.14.56,1.04.42,1.17-.09.68-2.72,2.22-5.25,4.95-6.27,1.69-.63,3.57-.66,5.32-.36.47.08.65.11,1.07.24.5.16,1.36-.56.67-.78h0Z"/>
        </g>
        <path class="cls-26" d="M997.57,440.53c.24,8.6-4.87,15.73-11.4,15.91-6.54.18-12.03-6.65-12.27-15.25-.24-8.61,4.86-15.73,11.4-15.91,6.54-.18,12.03,6.64,12.27,15.25Z"/>
        <path d="M985.63,437.49c-5.22.15-9.58,2.41-10.98,8.63,1.74,6.13,6.29,10.47,11.51,10.32,5.22-.15,9.52-4.73,10.92-10.95-1.75-6.13-6.23-8.15-11.45-8Z"/>
        <path class="cls-7" d="M983.26,420.28c.1-.04-.1.04-.07.03.07-.02.13-.05.2-.07.22-.07.45-.13.68-.19.74-.18,1.46-.29,2.24-.34,2.19-.13,4.42.46,6.06,1.97,1.34,1.23,2.17,2.87,2.71,4.59.14.46,1.29.14,1.15-.31-.92-2.95-2.78-5.51-5.8-6.52-1.99-.66-4.18-.6-6.21-.15-.49.11-.97.24-1.44.42-.2.08-.43.3-.29.52s.58.12.77.05h0Z"/>
        <path class="cls-16" d="M916.18,507.39c4.42,4.82,8.84,9.64,13.26,14.46.24-1.66.47-3.32.71-4.98,4.38,3.44,9.04,6.51,13.92,9.18-.35-2.34-.07-4.77.81-6.97.78,1.58,1.76,3.06,2.91,4.4.37.43.85.88,1.41.78.44-.08.75-.48,1.01-.85,1.49-2.15,2.99-4.3,4.48-6.45-.31,1.78.04,4.38,1.84,4.32,1.08-.03,1.77-1.12,2.32-2.05,1.99-3.38,4.63-6.37,7.73-8.77.77-.6,1.65-1.32,1.64-2.29-.02-1.72-2.45-2.03-4.17-1.85-6.45.68-13.02.14-19.28-1.58"/>
        <path class="cls-16" d="M896.4,622.67c2.92,7.39,8.23,13.81,14.95,18.06-.32-1-.65-1.99-.97-2.99,4.03,2.19,8.05,4.38,12.08,6.57-.46-1.56-.93-3.11-1.39-4.67,5.81,3.37,11.92,6.21,18.24,8.47-.49-1.91-.34-4.76,1.63-4.87.56-.03,1.09.22,1.6.46,1.26.61,2.53,1.22,3.79,1.83,1.04.5,2.16,1.02,3.3.87,1.02-.14,1.89-.78,2.7-1.4,2.62-1.99,5.24-3.99,7.86-5.98.14,1.71.28,3.42.41,5.13,4.82-1.64,9.46-3.79,13.83-6.41.1,1.48.2,2.96.3,4.44,4.25-2.18,8.19-4.95,11.67-8.21.17,2.08.35,4.16.52,6.24,5.24-5.37,9.59-11.61,12.82-18.39,1.39-2.92,2.47-6.7.33-9.12-1.73-1.96-4.72-2-7.32-1.82-6.21.42-12.38,1.26-18.48,2.51"/>
        <path class="cls-16" d="M929.54,712.25c-12.71,3.95-23.05,1.8-36.01-1.22-1.27-.3-2.56-.65-3.6-1.44-3.12-2.35-2.45-7.55.3-10.31,2.75-2.76,6.79-3.72,10.59-4.56,6.25-1.38,12.68-2.76,18.99-1.75,6.32,1.01,12.59,4.99,14.37,11.14,0,0,3.67,5.56-4.67,8.14Z"/>
        <path class="cls-16" d="M1008.77,711.32c-12.71,3.95-23.05,1.8-36.01-1.22-1.27-.3-2.56-.65-3.6-1.44-3.12-2.35-2.45-7.55.3-10.31,2.75-2.76,6.79-3.72,10.59-4.56,6.25-1.38,12.68-2.76,18.99-1.75,6.32,1.01,12.59,4.99,14.37,11.14,0,0,3.67,5.56-4.67,8.14Z"/>
        <path d="M901.52,403.6s25.99-3.85,39.61,9.55c0,0,15.97-14.33,37.65-11.54,0,0-11.82-11.89-37.57,2.07,0,0-21.05-14.85-39.68-.07Z"/>
        <path d="M893.37,388.21s31.24-7.25,47.64,8.88c0,0,17.01-16.82,43.12-13.46,0,0-12-14.39-43.02,2.43,0,0-25.29-15.65-47.74,2.15Z"/>
        <path d="M892.89,371.21s31.24-7.25,47.64,8.88c0,0,17.01-16.82,43.12-13.46,0,0-12-14.39-43.02,2.43,0,0-25.29-15.65-47.74,2.15Z"/>
        <path d="M842.93,440.04s14.38,26.58,35.59,33.99c0,0-25.6,2.42-38.25-14.91,0,0-1.33-10.27,2.66-19.07Z"/>
        <path d="M839.97,486.24s22.58,9.89,44,3.12c0,0-20.6,17.03-41.12,10.72,0,0-1.69-4.28-2.89-13.85Z"/>
        <path d="M1039.37,434.89s-11.91,26.76-32.67,35.34c0,0,25.69.99,37.36-17.02,0,0-.21-9.75-4.69-18.31Z"/>
        <path d="M1046.32,480.26s-21.99,11.13-43.76,5.57c0,0,21.96,15.79,42.09,8.34,0,0,1.01-4.29,1.67-13.91Z"/>
        <polygon class="cls-26" points="904.19 438.33 900.33 448.29 908.59 440.83 904.19 438.33"/>
        <polygon class="cls-26" points="991.18 437.08 987.32 447.04 995.59 439.58 991.18 437.08"/>
        <path d="M839.79,391.33s-1.81-20.05,1.25-26.91c0,0,11.63-6.02,23.72-6.66,0,0-9.68-6.54-29.5-.64,0,0-9.19,13.88,4.53,34.22Z"/>
        <path d="M1038.73,385.14s.69-20.12-2.75-26.8c0,0-11.95-5.37-24.06-5.33,0,0,9.3-7.07,29.42-2.29,0,0,9.95,13.34-2.62,34.42Z"/>
        <path class="cls-7" d="M883.75,442.77c-2.68-.07-5.36-.15-8.04-.22-.24,0-.63.09-.76.31s.12.32.31.33c2.68.07,5.36.15,8.04.22.24,0,.63-.09.76-.31s-.12-.32-.31-.33h0Z"/>
        <path class="cls-7" d="M1009.13,439.15c-2.68-.07-5.36-.15-8.04-.22-.27,0-.59.07-.82.22-.17.12-.17.24.07.24,2.68.07,5.36.15,8.04.22.27,0,.59-.07.82-.22.17-.12.17-.24-.07-.24h0Z"/>
        <path d="M873.6,534.65s-9.4,9.33-11.59,20.46c0,0-6.3-5.41-2.48-21.78l14.07,1.32Z"/>
        <path d="M855.37,532.12s-11.19,7.09-15.72,17.48c0,0-4.99-6.64,2.26-21.8l13.46,4.32Z"/>
        <path d="M837.48,524.99s-12.91,2.95-20.65,11.24c0,0-2.49-7.92,9.4-19.8l11.25,8.56Z"/>
        <circle class="cls-16" cx="805.03" cy="510.33" r="7.47"/>
        <circle class="cls-16" cx="794.23" cy="504.85" r="3.17"/>
        <circle class="cls-16" cx="800.4" cy="498.32" r="3.17"/>
        <circle class="cls-16" cx="809.22" cy="498.61" r="3.17"/>
        <path d="M1016.48,529.14s8.66,10.02,9.99,21.28c0,0,6.7-4.91,4.14-21.52l-14.13.24Z"/>
        <path d="M1035.76,528.77s10.61,7.92,14.34,18.63c0,0,5.48-6.24-.59-21.91l-13.75,3.27Z"/>
        <path d="M1053.82,523.94s12.65,3.93,19.73,12.79c0,0,3.09-7.71-7.86-20.46l-11.87,7.67Z"/>
        <circle class="cls-16" cx="1087.3" cy="511.81" r="7.47"/>
        <circle class="cls-16" cx="1098.49" cy="507.17" r="3.17"/>
        <circle class="cls-16" cx="1092.83" cy="500.19" r="3.17"/>
        <circle class="cls-16" cx="1084.01" cy="499.8" r="3.17"/>
        <path d="M867.24,648.1c12.04-4.66,20.46-13.7,20.46-13.7-7.66,3.57-15.78,4.82-22.94,5,.71,3.04,1.54,5.95,2.48,8.7Z"/>
        <path d="M880.4,691.89c12.04-4.66,20.46-13.7,20.46-13.7-7.66,3.57-15.78,4.82-22.94,5,.71,3.04,1.54,5.95,2.48,8.7Z"/>
        <path d="M1020.31,689.62c-12.28-3.98-21.19-12.53-21.19-12.53,7.84,3.13,16.03,3.93,23.18,3.71-.54,3.08-1.2,6.03-1.99,8.82Z"/>
        <path d="M865.27,592.83c12.81,1.55,24.5-2.47,24.5-2.47-8.44-.45-16.2-3.16-22.6-6.37-.8,3.02-1.44,5.98-1.9,8.84Z"/>
        <path d="M863.81,619.66c12.89-.72,23.69-6.71,23.69-6.71-8.38,1.03-16.5-.29-23.36-2.33-.26,3.11-.37,6.14-.32,9.04Z"/>
        <path d="M1032,642.52c-12.28-3.98-21.19-12.53-21.19-12.53,7.84,3.13,16.03,3.93,23.18,3.71-.54,3.08-1.2,6.03-1.99,8.82Z"/>
        <path d="M1030.89,587.22c-12.71,2.26-24.6-1.1-24.6-1.1,8.4-.92,15.99-4.06,22.21-7.62.97,2.97,1.77,5.89,2.39,8.72Z"/>
        <path d="M1033.84,613.94c-12.91,0-24.02-5.38-24.02-5.38,8.43.56,16.46-1.2,23.2-3.63.44,3.09.72,6.1.83,9.01Z"/>
        <g class="cls-19">
          <rect x="1045.65" y="596.89" width="16.9" height="23.82" transform="translate(-75.52 155.23) rotate(-8.13)"/>
          <rect x="1075.84" y="592.57" width="16.9" height="23.82" transform="translate(-136.48 379.07) rotate(-18.68)"/>
          <rect x="1097.72" y="573.75" width="16.9" height="23.82" transform="translate(218.71 1468.29) rotate(-72.74)"/>
          <rect x="1090.25" y="545.93" width="16.9" height="23.82" transform="translate(1199.22 1785.94) rotate(-121.6)"/>
        </g>
        <path class="cls-41" d="M927.09,491.36s3.03,13.38,16.07,13.43c13.04.05,16.24-13.53,16.24-13.53,0,0-14.79.52-16.53-4.32,0,0-4.78,5.4-15.78,4.42Z"/>
        <path d="M942.47,486.96c-1.87,1.97-4.47,3.54-7.08,4.25-6.73,1.85-12.09-3.14-15.43-8.44-.15-.24-.97.07-.86.23,2.86,4.55,7.02,8.93,12.76,9.03,3.45.06,6.79-1.39,9.5-3.44.67-.5,1.33-1.04,1.91-1.65.21-.22-.63-.15-.79.03h0Z"/>
        <path d="M967.07,481.5c-2.53,3.88-5.9,7.82-10.51,9.16-2.75.8-5.64.49-8.26-.61-1.68-.71-3.28-1.71-4.65-2.93-.11-.09-.25-.19-.33-.31-.06-.09.02.21-.02-.15-.11-1.02-.06-2.08-.09-3.11-.07-2.57-.14-5.14-.22-7.71-.01-.44-.88-.29-.87.07.07,2.53.14,5.07.21,7.6.03,1.03-.16,2.36.09,3.36.09.34.21.43.49.68,3.63,3.24,8.73,5.04,13.54,3.74,5.03-1.36,8.69-5.5,11.42-9.71.25-.39-.63-.38-.82-.08h0Z"/>
        <polygon class="cls-39" points="983.95 187.04 1036.3 204.03 1018.82 154.76 983.95 187.04"/>
        <polygon class="cls-29" points="886.36 252.49 933.12 281.51 927.94 229.5 886.36 252.49"/>
        <polygon class="cls-24" points="941.53 219.46 991.04 243.49 980.51 192.29 941.53 219.46"/>
      </g>
      <path class="cls-6" d="M402.94,425.76l-1.07-.35c.35.14.71.26,1.07.35Z"/>
      <path class="cls-6" d="M377.92,445.99c1.29.31,2.62.39,3.94.26-1.28-.36-2.62-.44-3.94-.26Z"/>
      <polygon class="cls-6" points="377.92 445.99 377.86 445.97 377.88 445.99 377.92 445.99"/>
      <g class="cls-30">
        <path d="M277.05,870.56c-.94.3-1.9.5-2.88.6h0c.98-.1,1.95-.3,2.88-.6Z"/>
      </g>
      <path class="cls-37" d="M362.99,349.92l25.29-93.17,51.67,84.7s-45.6,32.55-76.96,8.46Z"/>
      <path class="cls-10" d="M378.71,290.75s10.39,4.2,30.81.82l5.52,9.05s-16.97,8.68-39.33.98l3-10.85Z"/>
      <path class="cls-10" d="M371.14,320.47s36.68,7.13,54.07-3.17l5.59,9.17s-28.81,18.87-62.66,4.86l3-10.85Z"/>
      <ellipse class="cls-16" cx="268.82" cy="493.79" rx="9.51" ry="5.77" transform="translate(-178.48 153.18) rotate(-24.15)"/>
      <ellipse class="cls-16" cx="256.88" cy="490.33" rx="2.76" ry="1.67" transform="translate(-178.11 147.99) rotate(-24.15)"/>
      <ellipse class="cls-16" cx="262.07" cy="484.75" rx="2.76" ry="1.67" transform="translate(-175.37 149.62) rotate(-24.15)"/>
      <ellipse class="cls-16" cx="270" cy="482.76" rx="2.76" ry="1.67" transform="translate(-173.86 152.69) rotate(-24.15)"/>
      <ellipse class="cls-16" cx="545.67" cy="479.66" rx="5.77" ry="9.51" transform="translate(-11.05 946.46) rotate(-81.3)"/>
      <ellipse class="cls-16" cx="537.51" cy="470.28" rx="1.67" ry="2.76" transform="translate(-8.69 930.43) rotate(-81.3)"/>
      <ellipse class="cls-16" cx="544.9" cy="468.41" rx="1.67" ry="2.76" transform="translate(-.57 936.15) rotate(-81.3)"/>
      <ellipse class="cls-16" cx="552.64" cy="471.04" rx="1.67" ry="2.76" transform="translate(3.4 946.03) rotate(-81.3)"/>
      <path class="cls-16" d="M358.08,400.31s5.42-7.06,14.78-6.9,2.56-9.36-3.97-5.75-10.81,12.65-10.81,12.65Z"/>
      <path class="cls-16" d="M466.1,402.03s-5.42-7.06-14.78-6.9-2.56-9.36,3.97-5.75,10.81,12.65,10.81,12.65Z"/>
      <path class="cls-42" d="M270,785.11s-5.18,27.03-14.64,58.8c-9.46,31.77-4.26,70.9-31.71,106.36-9.45,12.21-49.65,38.15-72.59,52.43-10.44,6.49-17.96,16.75-21.02,28.66-9.23,35.93-29.9,115.91-45.23,171.45-4.57,16.57-11.32,21.7-15.17,45.54l-203.8,23.61c7.83-16.24,15.59-30.87,22.83-43.35,33.18-57.19,91.01-224.76,99.79-266.81,8.78-42.05-1.14-50.36,1.33-84.67,2.46-34.32,6.3-88.42,29.73-108.58,23.43-20.16,32.66-12.83,32.66-12.83,0,0-.15-12.4,37.53-21.29,24.87-5.87,32.99,15.8,32.99,15.8,0,0,4.27-2.36,20.34-6.69,20.87-5.63,33.14,20.7,33.14,20.7,0,0,33.34-84.16,45.96-99.63,12.62-15.46,12.38-16.54,26.01-6.17,16.08,12.23-19.05,135.69-19.05,135.69,8-21.75,40.93-9.03,40.93-9.03Z"/>
      <path class="cls-44" d="M47.67,757.33c-3.43,3.57-6.07,8-8.61,12.21-3.15,5.23-6.09,10.62-8.5,16.24-.87,2.04-1.81,4.23-2.04,6.46-.2,1.94,2.39,2.19,3.79,2s4.72-1.1,4.92-3.03c.19-1.84.89-3.63,1.57-5.33.11-.26.22-.53.33-.79.04-.1.43-.99.22-.51.27-.62.56-1.23.85-1.85.6-1.27,1.23-2.53,1.88-3.78,2.71-5.23,5.7-10.34,8.99-15.22.72-1.06,1.45-2.11,2.22-3.13.31-.41.62-.81.94-1.2.07-.09.15-.17.22-.26.34-.42-.47.49-.19.22.15-.15.29-.32.43-.47,1.25-1.3.98-2.79-.87-3.23-1.9-.46-4.75.2-6.15,1.65h0Z"/>
      <path class="cls-44" d="M114.32,751.9c-4.27,3.85-7.53,8.28-9.56,13.67-1.93,5.14-3.15,10.49-5.21,15.59-.26.65.38,1.25.87,1.49.8.39,2.01.39,2.86.26,1.81-.27,4.2-1.03,4.96-2.89,1.99-4.92,3.21-10.07,5.01-15.04,1.67-4.62,4.38-8.5,8.02-11.78,1.32-1.19.97-2.6-.79-2.96-1.96-.4-4.65.3-6.15,1.65h0Z"/>
      <path class="cls-44" d="M170.99,767.63c-1.74,6.26-3.84,12.41-6.53,18.33-2.68,5.92-5.93,11.56-9.48,17-.91,1.39,3.13,1.05,3.52.98,1.71-.32,4.05-.89,5.07-2.45,3.56-5.44,6.8-11.07,9.48-17,2.68-5.92,4.78-12.08,6.53-18.33.43-1.56-2.78-1.12-3.52-.98-1.14.21-2.27.53-3.31,1.04-.56.28-1.58.75-1.76,1.41h0Z"/>
      <path class="cls-44" d="M228.2,789.3c-.1,5.99-.35,12.26-2.02,18.05-2.49,8.65-4.97,17.29-7.47,25.94-4.8,16.58-9.72,33.13-15.05,49.55-3.12,9.59-6.38,19.14-9.79,28.63-.58,1.61,2.85,1.28,3.56,1.15,1.43-.25,4.45-.9,5.05-2.55,6-16.69,11.5-33.55,16.66-50.51,5.16-16.95,10.01-34,14.91-51.03,1.06-3.67,1.84-7.19,2.21-10.99.34-3.51.57-7.04.63-10.57.03-1.75-8.65-.46-8.69,2.33h0Z"/>
      <path class="cls-44" d="M217.11,682.74c.51-.05.55-.05.13,0,.47.05.54.05.23.01.54.1,1.08.28,1.6.46,1.08.37,2.12.83,3.19,1.23,2.17.8,4.4,1.1,6.71,1.02,4.51-.16,8.86-2.01,12.25-4.95,2.59-2.25,3.88-5.15,4.82-8.35.79-2.69,1.58-5.44,2.02-8.21.61-3.82-8.21-2.46-8.74.91-.39,2.48-1.09,4.94-1.77,7.36-.18.64-.36,1.27-.56,1.9-.07.23-.14.46-.22.69s-.47,1.05-.05.18c-.29.61-.56,1.21-.93,1.78-.07.11-.73.95-.36.52-.26.3-.53.59-.81.86-.13.13-1.05.85-.38.36-.27.2-.55.4-.83.58-.19.12-.38.24-.58.35.48-.26.5-.28.07-.06-.05.02-.93.38-.94.4.6-.21.66-.23.17-.07-.22.06-.43.12-.65.17-.9.26.86-.05-.15.02-.13,0-1.38.06-.79.08s-.68-.06-.79-.07c-.85-.05.4.17-.35-.06-.51-.16-1.03-.28-1.54-.46-.94-.33-1.86-.73-2.79-1.08-2.25-.85-4.54-1.23-6.95-1.02-1.73.15-4.55,1.2-4.88,3.19-.33,2.06,2.48,2.41,3.87,2.29h0Z"/>
      <path class="cls-44" d="M261.4,811.41c-1.22.02.44.06-.26,0-.33-.03-.66-.03-.98-.05-1.12-.08.25.12-.34-.05-.12-.03-.78-.31-.42-.12-.74-.38-1.15-1.04-1.41-1.89-.69-2.3.2-4.79.7-7.21.6-2.86,1.45-5.54,2.42-8.3.43-1.22.74-2.64,1.19-3.65.19-.42.63-1.22.75-1.37-.18.23.38-.39.44-.45-.56.53.65-.31-.27.18,1.36-.71,3.48-2.41,2.15-4.11-1.23-1.58-4.31-1.25-5.85-.44-2.02,1.06-3.63,2.41-4.85,4.36-.89,1.43-1.29,3.06-1.77,4.65-.54,1.8-1.31,3.52-1.86,5.32s-.92,3.66-1.3,5.51c-.69,3.33-1.44,6.61.4,9.72,2.12,3.59,6.63,3.76,10.33,3.69,1.78-.03,4.57-1.33,4.85-3.3.31-2.18-2.42-2.51-3.92-2.48h0Z"/>
      <g>
        <polyline class="cls-3" points="236.37 314.49 243.02 313.24 264.69 495.62 273.58 339.82"/>
        <path class="cls-23" d="M279.14,249.97c0-27.6-21.68-49.98-48.43-49.98s-48.43,22.38-48.43,49.98,27.05,64.75,53.38,66l-2.93,6.08s6.21,2.97,10.11.56c2.02-1.24.84-4.65-1.08-7,23.81-4.23,37.38-39.72,37.38-65.64Z"/>
        <path class="cls-5" d="M274.95,276.86c-7.79,4.92-16.9,7.81-26.6,7.81-28.67,0-53.01-22.63-53.52-51.68-.13-7.18,1.3-14.16,3.96-20.58-10.11,9.16-16.51,22.59-16.51,37.57,0,27.14,27.05,64.75,53.38,66l-2.93,6.08s6.21,2.97,10.11.56c2.02-1.24.84-4.65-1.08-7,16.07-2.85,27.48-19.96,33.19-38.76Z"/>
        <line class="cls-3" x1="295.6" y1="286.13" x2="264.69" y2="495.62"/>
        <path class="cls-31" d="M263.44,214.81c0,28.46,14.25,71.32,40.39,71.32s54.26-42.86,54.26-71.32-21.19-51.53-47.32-51.53-47.32,23.07-47.32,51.53Z"/>
        <path class="cls-32" d="M325.84,240.61c-25.45,0-47.05-20.08-47.5-45.87-.14-7.87,1.81-15.46,5.34-22.19-12.24,9.31-20.25,24.76-20.25,42.25,0,28.46,14.25,71.32,40.39,71.32,22.2,0,45.82-30.93,52.44-57.68-8.12,7.48-18.78,12.16-30.42,12.16Z"/>
        <path class="cls-27" d="M322.15,282.69c0-24.51-19.25-44.38-43.01-44.38s-43.01,19.87-43.01,44.38c0,23.18,15.67,53.85,37.46,57.11,0,0,0,0,0,.01l-4.44,7.12s5.85,3.62,9.99,1.64c2.58-1.23.89-6.1-1.44-8.49,23.63-.28,44.45-33,44.45-57.4Z"/>
        <path class="cls-13" d="M312.62,314.53c-4.74,1.52-9.76,2.36-14.96,2.36-28.67,0-53.01-22.63-53.52-51.68-.06-3.16.2-6.27.72-9.33-5.48,7.45-8.74,16.73-8.74,26.81,0,23.18,15.67,53.85,37.46,57.11,0,0,0,0,0,.01l-4.44,7.12s5.85,3.62,9.99,1.64c2.58-1.23.89-6.1-1.44-8.49,13.8-.16,26.63-11.39,34.92-25.56Z"/>
      </g>
      <path class="cls-26" d="M330.04,182.41s16.73,16.19,15.62,35.16c0,0,6.57-28.74-15.62-35.16Z"/>
      <path class="cls-26" d="M296.51,251.54s16.73,16.19,15.62,35.16c0,0,6.57-28.74-15.62-35.16Z"/>
      <g>
        <path class="cls-40" d="M781.19,447.92c-27.32,0-49.47,5.48-49.47,12.25,0,.24.03.47.09.7,0,0,4.2,35.4,4.86,41.21.06.5.09.78.09.8,0,6.77,20.15,12.25,45,12.25s45-5.48,45-12.25l3.91-42.72c0-6.77-22.15-12.25-49.47-12.25Z"/>
        <path class="cls-38" d="M827.99,484.65c-4.61,5.95-22.48,11.59-46.65,11.59-22.77,0-39.95-5-45.73-10.56l.5,4.96c9.16,6.2,27.58,9.47,45.23,9.47s37.49-3.53,46.24-10.21l.41-5.25Z"/>
        <path class="cls-9" d="M731.38,460.14s-.8,13.95,3.33,12.29c4.13-1.65,5.02,6.34,8.84,5.97,3.83-.37,3.32-3.12,7.71-1.19,4.38,1.93,5.21,4.98,11.73,1.21,6.52-3.78,6.61,1,9.09,2.37s8.53,1.22,12.03-2.85c3.5-4.07,6.79,2.57,10.47,2.02,3.67-.55,5.05-5.42,8.17-4.13,3.12,1.29,6.15,3.76,9.37.64,3.21-3.12,4.13-4.77,7.9-3.49s5.88-1.19,6.43-3.49c.55-2.3,1.38,1.02,3.35.19,1.97-.83,2.71-10.84,0-12.58-2.71-1.74-18.68,7.8-18.68,7.8l-19.74,4.77-29.75-1.84-30.23-7.7Z"/>
        <ellipse class="cls-11" cx="781.23" cy="459.8" rx="49.88" ry="14.18"/>
        <path class="cls-40" d="M781.19,415.54c-20.78,0-37.63,4.17-37.63,9.32,0,.18.03.36.07.53l3.86,31.32c-.05.21-.09.43-.09.65,0,5.15,15.33,9.32,34.23,9.32s34.23-4.17,34.23-9.32l2.97-32.5c0-5.15-16.85-9.32-37.63-9.32Z"/>
        <path class="cls-38" d="M817.07,442.43c-3.52,4.54-17.17,8.85-35.62,8.85-17.38,0-30.5-3.82-34.91-8.06l.38,3.78c7,4.73,21.06,7.23,34.53,7.23s28.62-2.7,35.31-7.79l.31-4.01Z"/>
        <path class="cls-9" d="M743.55,424.23s-2.47,10.65,2.94,10.03c3.32-.38,3.76,4.75,6.63,4.48,2.87-.28,2.49-2.34,5.78-.9,3.29,1.45,3.91,3.74,8.8.9,4.89-2.83,4.96.75,6.82,1.78,1.86,1.03,6.4.92,9.02-2.14,2.63-3.05,5.1,1.93,7.85,1.52,2.76-.41,3.79-4.06,6.13-3.1,2.34.96,4.61,2.82,7.03.48s3.1-3.58,5.92-2.62,4.41-.9,4.82-2.62c.41-1.72,1.03.76,2.51.14s2.03-8.13,0-9.44c-2.03-1.31-14.02,5.85-14.02,5.85l-14.81,3.58-22.32-1.38-23.12-6.58Z"/>
        <ellipse class="cls-11" cx="781.19" cy="424.86" rx="37.63" ry="9.32"/>
        <path class="cls-14" d="M747.84,421.13c0,3.09,1.92,3.23,4.28,3.23s4.28-.14,4.28-3.23-1.92-5.59-4.28-5.59-4.28,2.5-4.28,5.59Z"/>
        <path class="cls-14" d="M764.73,428.18c0,3.09,1.92,3.23,4.28,3.23s4.28-.14,4.28-3.23-1.92-5.59-4.28-5.59-4.28,2.5-4.28,5.59Z"/>
        <path class="cls-14" d="M787.32,428.18c0,3.09,1.92,3.23,4.28,3.23s4.28-.14,4.28-3.23-1.92-5.59-4.28-5.59-4.28,2.5-4.28,5.59Z"/>
        <path class="cls-14" d="M806.6,422.67c0,3.09,1.92,3.23,4.28,3.23s4.28-.14,4.28-3.23-1.92-5.59-4.28-5.59-4.28,2.5-4.28,5.59Z"/>
        <path class="cls-14" d="M764.73,416.72c0,3.09,1.92,3.23,4.28,3.23s4.28-.14,4.28-3.23-1.92-5.59-4.28-5.59-4.28,2.5-4.28,5.59Z"/>
        <path class="cls-14" d="M788.66,416.72c0,3.09,1.92,3.23,4.28,3.23s4.28-.14,4.28-3.23-1.92-5.59-4.28-5.59-4.28,2.5-4.28,5.59Z"/>
        <g>
          <path class="cls-25" d="M784.46,422.81c0,.71-4.62.71-4.62,0v-20.97c0-.71.56-1.28,1.24-1.28h2.13c.69,0,1.24.57,1.24,1.28v20.97Z"/>
          <polygon class="cls-28" points="784.46 419.59 779.83 417.37 779.83 420.35 784.46 422.58 784.46 419.59"/>
          <polygon class="cls-28" points="784.46 412 779.83 409.77 779.83 412.75 784.46 414.98 784.46 412"/>
          <polygon class="cls-28" points="784.46 404.4 779.83 402.18 779.83 405.16 784.46 407.38 784.46 404.4"/>
        </g>
        <g>
          <path class="cls-25" d="M776.55,420.57c.02.71-4.6.83-4.62.12l-.55-20.96c-.02-.71.52-1.29,1.21-1.31l2.13-.06c.69-.02,1.26.54,1.28,1.25l.55,20.96Z"/>
          <polygon class="cls-28" points="776.47 417.36 771.79 415.25 771.87 418.23 776.55 420.34 776.47 417.36"/>
          <polygon class="cls-28" points="776.27 409.76 771.59 407.66 771.67 410.64 776.35 412.74 776.27 409.76"/>
          <polygon class="cls-28" points="776.07 402.17 771.39 400.06 771.47 403.04 776.15 405.15 776.07 402.17"/>
        </g>
        <g>
          <path class="cls-25" d="M791.78,419.97c-.03.71-4.65.48-4.62-.22l1.01-20.94c.03-.71.62-1.25,1.3-1.22l2.13.1c.69.03,1.22.63,1.18,1.34l-1.01,20.94Z"/>
          <polygon class="cls-28" points="791.93 416.76 787.42 414.32 787.28 417.29 791.79 419.74 791.93 416.76"/>
          <polygon class="cls-28" points="792.3 409.17 787.79 406.73 787.65 409.7 792.16 412.15 792.3 409.17"/>
          <polygon class="cls-28" points="792.66 401.58 788.15 399.14 788.01 402.12 792.52 404.56 792.66 401.58"/>
        </g>
        <g>
          <path class="cls-34" d="M774.08,397.24s-5.94-.25-.53-9.24c0,0,5.76,5.88.53,9.24Z"/>
          <path class="cls-33" d="M773.98,397.17s-4.01-.17-.36-6.24c0,0,3.88,3.97.36,6.24Z"/>
        </g>
        <g>
          <path class="cls-34" d="M782.45,399.61s-5.94-.25-.53-9.24c0,0,5.76,5.88.53,9.24Z"/>
          <path class="cls-33" d="M782.35,399.54s-4.01-.17-.36-6.24c0,0,3.89,3.97.36,6.24Z"/>
        </g>
        <g>
          <path class="cls-34" d="M789.94,396.42s-5.94-.25-.53-9.24c0,0,5.76,5.88.53,9.24Z"/>
          <path class="cls-33" d="M789.84,396.34s-4.01-.17-.36-6.24c0,0,3.88,3.97.36,6.24Z"/>
        </g>
      </g>
      <g>
        <path class="cls-26" d="M324.82,721.11c8.98-85.58,103.71-145.79,211.6-134.47,107.89,11.32,188.07,89.87,179.09,175.45-8.98,85.58-103.71,145.79-211.6,134.47-11.88-1.25-38.56-4.9-49.69-7.69l-67.03,41.36,17.84-66.69c-53.57-33.09-86.1-86.24-80.21-142.43Z"/>
        <path class="cls-8" d="M326,720.79c3.37-31.51,18.93-60.19,41.64-82,24.61-23.63,56.4-38.96,89.43-46.65,37.27-8.67,76.72-7.79,113.76,1.59,34.65,8.78,67.68,25.41,94.02,49.74,23.29,21.52,41.3,49.45,47.64,80.79,6.18,30.59.59,62.59-15.29,89.42-16.57,27.99-42.81,49.2-72.03,62.92-33.3,15.64-70.67,21.97-107.31,20.1-17-.87-34.04-3.37-50.8-6.27-3.54-.61-7.07-1.26-10.57-2.06-1.37-.31-2.19-.51-3.37.21-2.34,1.43-4.67,2.88-7.01,4.33-18.4,11.35-36.8,22.71-55.21,34.06-1.45.89-2.89,1.78-4.34,2.68l1.77.47c2-7.48,4-14.95,6-22.43,3.21-12,6.42-24,9.63-36,.74-2.75,1.47-5.51,2.21-8.26.05-.18.05-.49-.15-.61-19.94-12.36-37.99-28.02-52.05-46.87-12.97-17.38-22.5-37.48-26.5-58.87-2.24-11.96-2.72-24.2-1.48-36.31.11-1.11-2.26-.39-2.36.64-2.08,20.31.84,40.85,8.18,59.88,7.55,19.59,19.52,37.31,34.06,52.39,7.72,8.01,16.17,15.29,25.16,21.83,2.35,1.71,4.74,3.37,7.16,4.98,1.13.75,2.27,1.49,3.42,2.22.62.39,1.27.75,1.87,1.18.12.09.29-.39.38-.23.2.35-.58,2.17-.68,2.54-3.04,11.38-6.09,22.76-9.13,34.14-2.62,9.81-5.41,19.58-7.87,29.43-.04.18-.1.36-.14.53-.29,1.1,1.28.77,1.77.47,7.53-4.64,15.05-9.29,22.58-13.93,12.06-7.44,24.12-14.88,36.18-22.32,2.76-1.7,5.51-3.4,8.27-5.1l-1.19.33c13.52,3.36,27.6,5.01,41.41,6.73,15.22,1.9,30.5,2.79,45.84,2.07,30.82-1.43,61.57-8.75,89.23-22.57,24.76-12.37,47.16-30.06,63.17-52.78,15.34-21.76,24.06-47.79,24.07-74.47.01-26.78-8.82-52.87-23.53-75.11-15.86-23.99-37.98-43.4-62.76-57.79-27.82-16.15-59.15-26-91.06-29.74s-64.94-1.42-95.91,7.79c-27.67,8.22-53.94,21.96-75.32,41.49-19.72,18.02-34.91,41.13-41.72,67.1-1.63,6.22-2.77,12.56-3.45,18.95-.12,1.11,2.25.39,2.36-.64Z"/>
      </g>
      <g>
        <path class="cls-26" d="M1283.3,186.68c-9.45-90.1-106.53-153.77-216.84-142.2-110.3,11.57-192.06,94-182.61,184.1,9.45,90.1,106.53,153.77,216.84,142.2,12.14-1.27,39.43-5.03,50.79-7.94l68.69,43.74-18.45-70.25c54.68-34.66,87.79-90.5,81.58-149.65Z"/>
        <path class="cls-8" d="M1284.48,186.37c-2.97-27.86-14.58-54.01-32.38-75.55-18.66-22.57-43.42-39.68-70.3-51.03-29.67-12.52-62.06-18.15-94.2-17.5-33.53.68-67.04,8.12-97.48,22.27-27.38,12.73-52.46,31.01-71.77,54.33-17.9,21.62-30.69,47.56-34.88,75.44-4.13,27.52.33,55.92,12.6,80.89,12.56,25.56,32.69,46.85,56.29,62.56,25.69,17.1,55.34,27.83,85.78,32.5,16.51,2.53,33.29,3.29,49.97,2.37,14.97-.83,29.9-3,44.69-5.38,6.26-1.01,12.56-2.04,18.72-3.6l-1.03-.14c7.75,4.93,15.5,9.87,23.24,14.8,12.3,7.83,24.59,15.66,36.89,23.49,2.85,1.82,5.7,3.63,8.55,5.45.78.49,2.41-.17,2.14-1.23-2.08-7.91-4.16-15.82-6.23-23.73-3.31-12.61-6.62-25.22-9.94-37.83-.76-2.9-1.52-5.79-2.28-8.69l-.51,1.09c20.6-13.1,39.06-29.7,53.44-49.49,13.47-18.55,23.21-39.91,27.26-62.53,2.28-12.7,2.76-25.67,1.44-38.51-.12-1.18-2.47-.38-2.36.64,2.31,22.45-1.05,45.12-9.45,66.05-8.64,21.54-22.32,40.86-38.9,57.02-9.95,9.7-20.96,18.25-32.68,25.71-.38.24-.62.65-.51,1.09,2.08,7.91,4.16,15.82,6.23,23.73,3.31,12.61,6.62,25.22,9.94,37.83.76,2.9,1.52,5.79,2.28,8.69l2.14-1.23c-16.15-10.28-32.29-20.56-48.44-30.85-6.61-4.21-13.1-8.75-19.89-12.66-1.33-.77-2.84,0-4.28.32-3.79.84-7.61,1.53-11.44,2.18-8.87,1.51-17.79,2.78-26.71,3.91-18.53,2.35-37.11,3.19-55.75,1.58s-36.95-5.39-54.57-11.49c-32.48-11.24-62.63-30.46-84.31-57.38-20.54-25.5-32.17-57.46-31.47-90.3.7-32.97,13.85-64.51,34.44-89.99,22.61-27.98,53.4-48.69,86.86-61.48,36.74-14.04,77.2-18.77,116.21-13.83,35.66,4.52,70.64,17.35,99.49,39.02,26.28,19.74,47.04,46.93,56.23,78.71,2.21,7.64,3.71,15.46,4.56,23.37.13,1.18,2.47.38,2.36-.64Z"/>
      </g>
      <path class="cls-42" d="M1469.08,1003.18s-121.04-35.92-145.22-43.54c-24.18-7.62-55.01-6.14-76.83-3.21-21.83,2.92-72.48-10.29-91.37-12.8-18.88-2.51-72.62-8.14-88.42-18.24-15.8-10.11-53.97-55.84-67-61.88-13.03-6.03-68.43-32.97-80.94-40.27s-12.95-20.74-2.13-27.4c10.82-6.66,32.27-10.48,53.54-4.78,21.27,5.7,75.31,26.92,88.44,38.15l13.13,11.23s-17.04-37.89-30.4-52.16c-13.36-14.28-87.96-79.24-110.73-88.49-22.78-9.26-89.52-56.89-97.77-68.81-12.12-17.49-13.63-36.18-5.11-40.82,8.52-4.65,29.52,5.36,46.96,16.87,17.44,11.51,74.1,38.96,88.16,42.46,14.06,3.5,26.43,12.95,26.43,12.95,0,0-8.22-26.93,8.17-32.8,16.39-5.87,24.26-7.1,37.05-4.11,12.79,2.99,19.63,4.29,19.63,4.29,0,0-7.17-17.94,6.96-24.95,14.14-7.01,22.66-11.66,40-5.35,17.34,6.31,49.96,23.99,49.96,23.99,0,0,8.8-8.96,18.69-7.89s70.8,16.24,83.32,23.54c12.52,7.3,22.97,19.66,27.24,27.29,4.27,7.63,60.89,89.62,68.72,95.75,7.83,6.13,33.89,18.19,63.41,23.56,29.52,5.36,102.02,35.56,102.02,35.56l169.19,38.66-215.08,143.2Z"/>
      <path class="cls-44" d="M985.29,661.42c15.87,8.35,31.74,16.7,47.62,25.05,4.56,2.4,9.11,4.79,13.67,7.19,1.48.78,4.12-.12,5.56-.64.37-.13,3.85-1.58,2.66-2.21-15.87-8.35-31.74-16.7-47.62-25.05-4.56-2.4-9.11-4.79-13.67-7.19-1.48-.78-4.12.12-5.56.64-.37.13-3.85,1.58-2.66,2.21h0Z"/>
      <path class="cls-44" d="M1050.42,630.05c15.7,8.27,32.25,14.88,49.34,19.65,1.92.54,4.37-.17,6.09-1.05.82-.42,2.94-1.96,1-2.5-16.72-4.66-32.91-11.07-48.27-19.16-1.64-.86-4.01-.28-5.63.37-.41.16-4,1.91-2.53,2.69h0Z"/>
      <path class="cls-44" d="M1148.86,625.09c7.09,1.96,13.94,4.67,20.44,8.12,1.61.86,4.03.22,5.62-.41.4-.16,3.98-1.86,2.55-2.62-6.84-3.63-14.05-6.52-21.51-8.59-1.89-.52-4.4.18-6.09,1.07-.8.42-2.96,1.89-1.02,2.43h0Z"/>
      <path class="cls-44" d="M949.46,833.87c3.21-8.56,10.52-16.07,9.09-25.86-.59-4.05-3.08-7.24-6.55-9.27-3.18-1.87-6.92-2.61-10.5-3.35-4.05-.83-7.51-1.39-11.16-3.58-.69-.41-2.12-.28-2.83-.19-1.11.15-2.32.53-3.3,1.09-1.28.74-2.52,2.04-.86,3.04,3.17,1.9,6.83,2.76,10.42,3.52,3.52.74,6.3,1.11,9.47,2.5,2.99,1.32,5.41,3.73,6.3,7.07,1.09,4.04.05,8.32-1.6,12.06-2.14,4.86-5.29,9.2-7.16,14.19-.66,1.76,2.82,1.68,3.67,1.55,1.66-.26,4.31-.97,4.99-2.77h0Z"/>
      <path class="cls-44" d="M823.95,612.33c2.76,1.88,5.52,3.86,8.56,5.26,2.82,1.3,5.88,2.04,8.93,2.53,7.94,1.29,16.16.44,23.18-3.76,3.67-2.2,6.54-5.21,8.38-9.07.3-.63-.42-1.29-.88-1.52-.8-.4-2.01-.4-2.86-.28-1.94.29-4.06,1.05-4.95,2.91-.31.66-.78,1.37-1.24,1.99-.26.36-.54.71-.83,1.04-.26.29-.29.33-.11.12-.16.16-.31.31-.47.47-.32.31-.66.6-1,.88-.17.14-.35.28-.53.41.34-.24.33-.23-.03.02-.38.24-.75.49-1.14.71-.18.1-1.49.73-.52.29-.42.19-.83.38-1.25.55-.28.11-1.52.79-.48.19-.36.21-.93.28-1.33.38-.26.07-1.67.55-.52.13-.82.29-1.9.28-2.76.35,1.04-.08-.45,0-.64,0-.46,0-.92,0-1.38-.03-.23-.01-.46-.03-.69-.05.4.04.38.04-.06,0-.53-.07-1.05-.14-1.58-.22-.98-.15-1.95-.31-2.92-.5-.83-.17-1.66-.36-2.47-.58-.19-.05-.38-.11-.57-.16.33.1.33.1-.03-.02-.35-.13-.7-.25-1.05-.38-3.13-1.23-5.93-3.15-8.69-5.03-1.65-1.13-3.98-.84-5.74-.05-.7.31-3.99,2.29-2.34,3.42h0Z"/>
      <path class="cls-44" d="M1066.36,837.83c5.07,9.1,11.67,17.18,19.73,23.79,1.53,1.25,4.08.85,5.76.09.85-.39,3.88-2.22,2.32-3.5-7.68-6.31-14.27-14.02-19.11-22.71-.92-1.65-3.33-1.49-4.93-1.02-1.04.3-2.09.72-2.9,1.46-.42.38-1.21,1.26-.86,1.88h0Z"/>
      <g>
        <polyline class="cls-3" points="480.91 773.18 487.56 771.93 519.59 877.26 518.12 798.51"/>
        <path class="cls-23" d="M523.68,708.66c0-27.6-21.68-49.98-48.43-49.98s-48.43,22.38-48.43,49.98,27.05,64.75,53.38,66l-2.93,6.08s6.21,2.97,10.11.56c2.02-1.24.84-4.65-1.08-7,23.81-4.23,37.38-39.72,37.38-65.64Z"/>
        <path class="cls-5" d="M519.49,735.55c-7.79,4.92-16.9,7.81-26.6,7.81-28.67,0-53.01-22.63-53.52-51.68-.13-7.18,1.3-14.16,3.96-20.58-10.11,9.16-16.51,22.59-16.51,37.57,0,27.14,27.05,64.75,53.38,66l-2.93,6.08s6.21,2.97,10.11.56c2.02-1.24.84-4.65-1.08-7,16.07-2.85,27.48-19.96,33.19-38.76Z"/>
        <line class="cls-3" x1="540.14" y1="744.82" x2="519.59" y2="877.26"/>
        <path class="cls-31" d="M507.98,673.5c0,28.46,14.25,71.32,40.39,71.32s54.26-42.86,54.26-71.32-21.19-51.53-47.32-51.53-47.32,23.07-47.32,51.53Z"/>
        <path class="cls-32" d="M570.38,699.3c-25.45,0-47.05-20.08-47.5-45.87-.14-7.87,1.81-15.46,5.34-22.19-12.24,9.31-20.25,24.76-20.25,42.25,0,28.46,14.25,71.32,40.39,71.32,22.2,0,45.82-30.93,52.44-57.68-8.12,7.48-18.78,12.16-30.42,12.16Z"/>
        <path class="cls-27" d="M566.69,741.38c0-24.51-19.25-44.38-43.01-44.38s-43.01,19.87-43.01,44.38c0,23.18,15.67,53.85,37.46,57.11,0,0,0,0,0,.01l-4.44,7.12s5.85,3.62,9.99,1.64c2.58-1.23.89-6.1-1.44-8.49,23.63-.28,44.45-33,44.45-57.4Z"/>
        <path class="cls-13" d="M557.16,773.22c-4.74,1.52-9.76,2.36-14.96,2.36-28.67,0-53.01-22.63-53.52-51.68-.06-3.16.2-6.27.72-9.33-5.48,7.45-8.74,16.73-8.74,26.81,0,23.18,15.67,53.85,37.46,57.11,0,0,0,0,0,.01l-4.44,7.12s5.85,3.62,9.99,1.64c2.58-1.23.89-6.1-1.44-8.49,13.8-.16,26.63-11.39,34.92-25.56Z"/>
      </g>
      <g>
        <path class="cls-40" d="M1082.49,194.5c-53.16,0-96.26,10.67-96.26,23.84,0,.46.06.91.17,1.37,0,0,8.17,68.87,9.46,80.2.11.97.17,1.52.17,1.56,0,13.16,39.2,23.84,87.55,23.84s87.55-10.67,87.55-23.84l7.61-83.13c0-13.16-43.1-23.84-96.26-23.84Z"/>
        <path class="cls-38" d="M1173.56,265.98c-8.97,11.57-43.75,22.54-90.78,22.54-44.3,0-77.74-9.74-88.97-20.54l.97,9.64c17.83,12.06,53.67,18.43,88,18.43s72.94-6.87,89.98-19.86l.8-10.22Z"/>
        <path class="cls-9" d="M985.58,218.28s-1.56,27.14,6.48,23.92c8.04-3.22,9.76,12.33,17.21,11.61,7.45-.71,6.46-6.07,14.99-2.32,8.53,3.75,10.14,9.7,22.82,2.35,12.68-7.35,12.86,1.94,17.69,4.62,4.82,2.68,16.59,2.38,23.4-5.54,6.81-7.92,13.22,5,20.37,3.93,7.15-1.07,9.83-10.54,15.9-8.04,6.07,2.5,11.97,7.32,18.22,1.25,6.25-6.07,8.04-9.29,15.36-6.79,7.32,2.5,11.43-2.32,12.51-6.79,1.07-4.47,2.68,1.98,6.52.37,3.84-1.62,5.27-21.09,0-24.48-5.27-3.39-36.35,15.19-36.35,15.19l-38.41,9.29-57.88-3.57-58.83-14.99Z"/>
        <ellipse class="cls-11" cx="1082.58" cy="217.63" rx="97.06" ry="27.6"/>
        <path class="cls-40" d="M1082.49,131.5c-40.44,0-73.22,8.12-73.22,18.13,0,.35.05.7.13,1.04l7.5,60.94c-.11.42-.18.84-.18,1.26,0,10.01,29.82,18.13,66.6,18.13s66.6-8.12,66.6-18.13l5.79-63.24c0-10.01-32.78-18.13-73.22-18.13Z"/>
        <path class="cls-38" d="M1152.3,183.82c-6.85,8.83-33.4,17.21-69.31,17.21-33.82,0-59.36-7.43-67.93-15.68l.74,7.36c13.61,9.21,40.98,14.08,67.19,14.08s55.69-5.25,68.7-15.16l.61-7.81Z"/>
        <path class="cls-9" d="M1009.27,148.41s-4.81,20.72,5.72,19.51c6.45-.75,7.32,9.25,12.91,8.71,5.58-.54,4.85-4.56,11.25-1.74,6.4,2.81,7.61,7.27,17.12,1.76,9.52-5.51,9.65,1.46,13.27,3.47,3.62,2.01,12.45,1.79,17.56-4.15,5.11-5.94,9.92,3.75,15.28,2.95,5.36-.8,7.37-7.91,11.93-6.03,4.56,1.88,8.98,5.49,13.67.94,4.69-4.56,6.03-6.97,11.53-5.09,5.49,1.88,8.58-1.74,9.38-5.09s2.01,1.49,4.89.27c2.88-1.21,3.95-15.82,0-18.37-3.95-2.55-27.27,11.39-27.27,11.39l-28.81,6.97-43.42-2.68-44.99-12.81Z"/>
        <ellipse class="cls-11" cx="1082.49" cy="149.63" rx="73.22" ry="18.13"/>
        <path class="cls-14" d="M1017.6,142.37c0,6,3.73,6.28,8.33,6.28s8.33-.28,8.33-6.28-3.73-10.87-8.33-10.87-8.33,4.87-8.33,10.87Z"/>
        <path class="cls-14" d="M1050.48,156.09c0,6,3.73,6.28,8.33,6.28s8.33-.28,8.33-6.28-3.73-10.87-8.33-10.87-8.33,4.87-8.33,10.87Z"/>
        <path class="cls-14" d="M1094.43,156.09c0,6,3.73,6.28,8.33,6.28s8.33-.28,8.33-6.28-3.73-10.87-8.33-10.87-8.33,4.87-8.33,10.87Z"/>
        <path class="cls-14" d="M1131.94,145.37c0,6,3.73,6.28,8.33,6.28s8.33-.28,8.33-6.28-3.73-10.87-8.33-10.87-8.33,4.87-8.33,10.87Z"/>
        <path class="cls-14" d="M1050.48,133.79c0,6,3.73,6.28,8.33,6.28s8.33-.28,8.33-6.28-3.73-10.87-8.33-10.87-8.33,4.87-8.33,10.87Z"/>
        <path class="cls-14" d="M1097.04,133.79c0,6,3.73,6.28,8.33,6.28s8.33-.28,8.33-6.28-3.73-10.87-8.33-10.87-8.33,4.87-8.33,10.87Z"/>
        <g>
          <path class="cls-25" d="M1088.85,145.64c0,1.38-8.99,1.38-8.99,0v-40.8c0-1.38,1.08-2.49,2.42-2.49h4.15c1.34,0,2.42,1.12,2.42,2.49v40.8Z"/>
          <polygon class="cls-28" points="1088.85 139.39 1079.86 135.06 1079.86 140.86 1088.85 145.19 1088.85 139.39"/>
          <polygon class="cls-28" points="1088.85 124.61 1079.86 120.28 1079.86 126.08 1088.85 130.41 1088.85 124.61"/>
          <polygon class="cls-28" points="1088.85 109.82 1079.86 105.5 1079.86 111.3 1088.85 115.63 1088.85 109.82"/>
        </g>
        <g>
          <path class="cls-25" d="M1073.48,141.28c.04,1.38-8.95,1.61-8.99.24l-1.07-40.78c-.04-1.38,1.02-2.52,2.35-2.55l4.15-.11c1.34-.03,2.45,1.05,2.49,2.43l1.07,40.78Z"/>
          <polygon class="cls-28" points="1073.31 135.03 1064.21 130.94 1064.36 136.74 1073.46 140.83 1073.31 135.03"/>
          <polygon class="cls-28" points="1072.92 120.26 1063.82 116.17 1063.97 121.96 1073.08 126.05 1072.92 120.26"/>
          <polygon class="cls-28" points="1072.54 105.48 1063.43 101.39 1063.58 107.19 1072.69 111.28 1072.54 105.48"/>
        </g>
        <g>
          <path class="cls-25" d="M1103.1,140.12c-.07,1.37-9.05.94-8.98-.43l1.96-40.75c.07-1.37,1.2-2.44,2.54-2.37l4.15.2c1.34.06,2.36,1.23,2.3,2.6l-1.96,40.75Z"/>
          <polygon class="cls-28" points="1103.4 133.88 1094.63 129.12 1094.35 134.91 1103.12 139.67 1103.4 133.88"/>
          <polygon class="cls-28" points="1104.11 119.11 1095.34 114.35 1095.06 120.15 1103.84 124.9 1104.11 119.11"/>
          <polygon class="cls-28" points="1104.83 104.34 1096.05 99.59 1095.77 105.38 1104.55 110.14 1104.83 104.34"/>
        </g>
        <g>
          <path class="cls-34" d="M1068.66,95.9s-11.56-.48-1.04-17.98c0,0,11.2,11.43,1.04,17.98Z"/>
          <path class="cls-33" d="M1068.46,95.75s-7.8-.33-.7-12.13c0,0,7.56,7.72.7,12.13Z"/>
        </g>
        <g>
          <path class="cls-34" d="M1084.95,100.51s-11.56-.48-1.04-17.98c0,0,11.2,11.43,1.04,17.98Z"/>
          <path class="cls-33" d="M1084.76,100.36s-7.8-.33-.7-12.13c0,0,7.56,7.72.7,12.13Z"/>
        </g>
        <g>
          <path class="cls-34" d="M1099.52,94.3s-11.56-.48-1.04-17.98c0,0,11.2,11.43,1.04,17.98Z"/>
          <path class="cls-33" d="M1099.33,94.15s-7.8-.33-.7-12.13c0,0,7.56,7.72.7,12.13Z"/>
        </g>
      </g>
      <path class="cls-26" d="M575.18,643.55s16.73,16.19,15.62,35.16c0,0,6.57-28.74-15.62-35.16Z"/>
      <path class="cls-26" d="M541.65,712.68s16.73,16.19,15.62,35.16c0,0,6.57-28.74-15.62-35.16Z"/>
    </g>
  </g>
</svg>