<?xml version="1.0" encoding="UTF-8"?>
<svg xmlns="http://www.w3.org/2000/svg" xmlns:xlink="http://www.w3.org/1999/xlink" viewBox="0 0 1334 1000">
  <defs>
    <style>
      .cls-1, .cls-2, .cls-3 {
        fill: none;
      }

      .cls-4 {
        fill: #d2edf4;
      }

      .cls-5 {
        fill: #67988f;
      }

      .cls-6 {
        fill: #7626dd;
      }

      .cls-7 {
        fill: #0258a0;
      }

      .cls-8 {
        fill: #dfdfdf;
      }

      .cls-9 {
        fill: #541212;
      }

      .cls-10 {
        fill: #010101;
      }

      .cls-11 {
        fill: #9633ff;
      }

      .cls-12 {
        fill: #036177;
      }

      .cls-13 {
        fill: #ff5a92;
      }

      .cls-14 {
        fill: #3b2314;
      }

      .cls-15 {
        fill: #11363f;
      }

      .cls-16 {
        fill: #ffab94;
      }

      .cls-17 {
        fill: #d7b529;
      }

      .cls-18 {
        fill: #ffcfc0;
      }

      .cls-19 {
        fill: #593125;
      }

      .cls-20 {
        fill: #00b292;
      }

      .cls-21 {
        fill: #11394c;
      }

      .cls-22 {
        fill: #e99023;
      }

      .cls-23 {
        fill: #f79c00;
      }

      .cls-24 {
        fill: #00141c;
      }

      .cls-25 {
        fill: #fc3e52;
      }

      .cls-26 {
        fill: #263238;
      }

      .cls-27 {
        fill: #59697d;
      }

      .cls-28 {
        fill: #fcf1d4;
      }

      .cls-29 {
        fill: #331d16;
      }

      .cls-30 {
        isolation: isolate;
      }

      .cls-31 {
        fill: #151311;
      }

      .cls-32 {
        fill: #009377;
      }

      .cls-33 {
        fill: #004358;
      }

      .cls-34 {
        clip-path: url(#clippath-1);
      }

      .cls-35 {
        clip-path: url(#clippath-2);
      }

      .cls-36, .cls-37 {
        fill: #87b448;
      }

      .cls-38 {
        fill: #6b3825;
      }

      .cls-39 {
        fill: #06c;
      }

      .cls-40 {
        fill: #7d7576;
      }

      .cls-37 {
        mix-blend-mode: multiply;
        opacity: .5;
      }

      .cls-41 {
        fill: #008bcd;
      }

      .cls-42 {
        fill: #ffecab;
      }

      .cls-43, .cls-44 {
        fill: #fff;
      }

      .cls-45 {
        fill: #ffc000;
      }

      .cls-46 {
        fill: #5419b2;
      }

      .cls-47 {
        fill: #5e3627;
      }

      .cls-48 {
        fill: #b2b1aa;
      }

      .cls-49 {
        fill: #cc0019;
      }

      .cls-50 {
        fill: #a9c9d2;
      }

      .cls-51 {
        fill: #00cda6;
      }

      .cls-52 {
        fill: #047689;
      }

      .cls-44 {
        stroke: #4f2e25;
        stroke-width: .5px;
      }

      .cls-44, .cls-2, .cls-3 {
        stroke-miterlimit: 10;
      }

      .cls-53 {
        fill: #a3021d;
      }

      .cls-54 {
        fill: #20585b;
      }

      .cls-55 {
        fill: #eae745;
      }

      .cls-2 {
        stroke: #ccabab;
        stroke-width: .72px;
      }

      .cls-56 {
        opacity: .3;
      }

      .cls-57 {
        fill: #6d17dd;
      }

      .cls-58 {
        fill: #062735;
      }

      .cls-59 {
        fill: #dc1f26;
      }

      .cls-60 {
        fill: #643729;
      }

      .cls-61 {
        fill: #c7cd8c;
      }

      .cls-62 {
        fill: #b7131f;
      }

      .cls-63 {
        fill: #ff911c;
      }

      .cls-64 {
        fill: #ffe500;
      }

      .cls-65 {
        fill: #a57351;
      }

      .cls-66 {
        fill: #8c694f;
      }

      .cls-67 {
        fill: #27143c;
      }

      .cls-68 {
        fill: #af6c4e;
      }

      .cls-69 {
        fill: #008cb2;
      }

      .cls-70 {
        fill: #5c4098;
      }

      .cls-71 {
        fill: #00e5b9;
      }

      .cls-72 {
        fill: #ba8f6c;
      }

      .cls-73 {
        fill: #e47725;
      }

      .cls-74 {
        fill: #680016;
      }

      .cls-3 {
        stroke: #c1c1c1;
      }

      .cls-75 {
        fill: #87402a;
      }

      .cls-76 {
        fill: #f0edf6;
      }

      .cls-77 {
        clip-path: url(#clippath);
      }

      .cls-78 {
        fill: #af3f27;
      }

      .cls-79 {
        fill: #ccabab;
      }

      .cls-80 {
        fill: #f2ead0;
      }

      .cls-81 {
        fill: #4f2e25;
      }

      .cls-82 {
        fill: #03444f;
      }
    </style>
    <clipPath id="clippath">
      <path class="cls-1" d="M766.97,504.55s56.09-9.72,141.68,15.74l-42.49,219.44-43.2-11.92c-19.89-4.75-42.95-9.65-62.25-14.43l-33.75-6.22,40.01-202.62Z"/>
    </clipPath>
    <clipPath id="clippath-1">
      <path class="cls-1" d="M818.32,679.06c-1.22.08-2.34-.74-2.6-1.96-.29-1.34.57-2.66,1.91-2.95.35-.1,1.26-.77,1.8-1.17.87-.64,1.77-1.31,2.75-1.74,3.24-1.42,7-2.33,11.5-2.8,3.73-.39,6.93.05,10.04.47,1.19.16,2.4.33,3.68.45,4.63.44,10.23-.6,11.59-3.95.94-2.33.59-5.29-.83-6.89-.91-1.03-.82-2.6.21-3.51,1.03-.91,2.6-.81,3.51.22,2.66,3.01,3.37,7.97,1.71,12.05-2.49,6.15-10.54,7.63-16.68,7.04-1.34-.13-2.62-.3-3.87-.47-2.94-.4-5.72-.78-8.86-.45-4.03.42-7.22,1.18-10.01,2.41-.47.2-1.14.7-1.79,1.18-1.16.86-2.36,1.74-3.72,2.03-.12.03-.23.04-.35.05Z"/>
    </clipPath>
    <clipPath id="clippath-2">
      <path class="cls-1" d="M770.12,360.25c-2.12.5-4.34-.63-5.16-2.72-.89-2.29.24-4.87,2.53-5.76.59-.27,2-1.72,2.85-2.58,1.35-1.38,2.75-2.81,4.35-3.85,5.31-3.44,11.69-6.13,19.5-8.24,6.47-1.75,12.26-1.91,17.85-2.05,2.15-.06,4.34-.12,6.63-.26,8.3-.54,17.9-3.99,19.33-10.31,1-4.38-.48-9.51-3.44-11.93-1.9-1.56-2.19-4.36-.63-6.26,1.56-1.9,4.36-2.18,6.26-.63,5.57,4.55,8.23,13.1,6.48,20.79-2.63,11.57-16.42,16.5-27.44,17.21-2.41.15-4.71.22-6.96.28-5.31.14-10.33.26-15.77,1.75-7,1.89-12.4,4.16-16.99,7.12-.77.5-1.81,1.56-2.82,2.6-1.81,1.85-3.67,3.76-5.99,4.66-.2.08-.4.14-.6.19Z"/>
    </clipPath>
  </defs>
  <g class="cls-30">
    <g id="Layer_16" data-name="Layer 16">
      <polyline class="cls-80" points="1400.53 991.6 1400.53 -14.89 -59.67 -14.89 -59.67 991.6"/>
      <polyline class="cls-66" points="-93.02 1018.08 1361.29 1018.08 1361.29 713.53 -93.02 713.53"/>
      <polygon class="cls-5" points="1397.46 1012.98 -106.48 1012.98 -50.64 741.4 1341.62 741.4 1397.46 1012.98"/>
      <g id="freepik--Nightstand--inject-2">
        <rect class="cls-47" x="673.77" y="195.6" width="597.51" height="422.86"/>
        <polygon class="cls-47" points="1200.66 613.3 1249.27 714.15 1278.27 714.15 1250.49 613.3 1200.66 613.3"/>
        <polygon class="cls-47" points="749.03 613.3 700.42 714.15 671.42 714.15 699.2 613.3 749.03 613.3"/>
      </g>
      <path d="M1244.95,360.81c-4.86,0-9.72,0-14.59,0-13.11,0-26.23,0-39.34,0-19.44,0-38.88,0-58.33,0-23.72,0-47.44,0-71.16,0-25.89,0-51.78,0-77.67,0-26.31,0-52.62,0-78.93,0-24.37,0-48.73,0-73.1,0-20.66,0-41.33,0-61.99,0-14.86,0-29.71,0-44.57,0-6.94,0-14.14-.56-21.07,0-.3.02-.62,0-.92,0l.85.38c0-15.72,0-31.43,0-47.15,0-25.05,0-50.09,0-75.14,0-5.74,0-11.49,0-17.23l-1.96,1.13c4.86,0,9.72,0,14.59,0,13.11,0,26.23,0,39.34,0h58.33c23.72,0,47.44,0,71.16,0,25.89,0,51.78,0,77.67,0,26.31,0,52.62,0,78.93,0,24.37,0,48.73,0,73.1,0,20.66,0,41.33,0,61.99,0,14.86,0,29.71,0,44.57,0,6.94,0,14.14.56,21.07,0,.3-.02.62,0,.92,0l-.85-.38c0,15.72,0,31.43,0,47.15,0,25.05,0,50.09,0,75.14,0,5.74,0,11.49,0,17.23,0,.8,2.81.29,2.81-.75,0-15.72,0-31.43,0-47.15,0-25.05,0-50.09,0-75.14,0-5.74,0-11.49,0-17.23,0-.33-.65-.38-.85-.38-4.86,0-9.72,0-14.59,0-13.11,0-26.23,0-39.34,0-19.44,0-38.88,0-58.33,0-23.72,0-47.44,0-71.16,0-25.89,0-51.78,0-77.67,0-26.31,0-52.62,0-78.93,0-24.37,0-48.73,0-73.1,0-20.66,0-41.33,0-61.99,0-14.86,0-29.71,0-44.57,0-7.02,0-14.05-.06-21.07,0-.31,0-.61,0-.92,0-.65,0-1.96.3-1.96,1.13,0,15.72,0,31.43,0,47.15,0,25.05,0,50.09,0,75.14,0,5.74,0,11.49,0,17.23,0,.33.65.38.85.38,4.86,0,9.72,0,14.59,0,13.11,0,26.23,0,39.34,0,19.44,0,38.88,0,58.33,0,23.72,0,47.44,0,71.16,0,25.89,0,51.78,0,77.67,0,26.31,0,52.62,0,78.93,0,24.37,0,48.73,0,73.1,0,20.66,0,41.33,0,61.99,0,14.86,0,29.71,0,44.57,0,7.02,0,14.05.06,21.07,0,.31,0,.61,0,.92,0,1.01,0,3-1.52,1.11-1.52Z"/>
      <path d="M1244.91,570.27c-4.86,0-9.72,0-14.59,0-13.11,0-26.23,0-39.34,0-19.44,0-38.88,0-58.33,0-23.72,0-47.44,0-71.16,0-25.89,0-51.78,0-77.67,0-26.31,0-52.62,0-78.93,0-24.37,0-48.73,0-73.1,0-20.66,0-41.33,0-61.99,0-14.86,0-29.71,0-44.57,0-4.61,0-9.22,0-13.82,0-2.35,0-4.9-.28-7.24,0-.3.04-.62,0-.92,0l.9.77c0-6.22,0-12.45,0-18.67,0-14.85,0-29.7,0-44.56,0-18.05,0-36.11,0-54.16,0-15.54,0-31.07,0-46.61v-15.4c0-1.62,0-3.24,0-4.86,0-.7.23-1.88,0-2.54-.03-.08,0-.23,0-.32l-1.93,1.05c4.86,0,9.72,0,14.59,0,13.11,0,26.23,0,39.34,0,19.44,0,38.88,0,58.33,0,23.72,0,47.44,0,71.16,0,25.89,0,51.78,0,77.67,0,26.31,0,52.62,0,78.93,0,24.37,0,48.73,0,73.1,0,20.66,0,41.33,0,61.99,0,14.86,0,29.71,0,44.57,0h13.82c2.35,0,4.9.28,7.24,0,.3-.04.62,0,.92,0l-.9-.77c0,6.22,0,12.45,0,18.67v44.56c0,18.05,0,36.11,0,54.16,0,15.54,0,31.07,0,46.61v15.4c0,2.28-.48,5.16,0,7.4.02.1,0,.22,0,.32,0,1.33,2.83.81,2.83-.28,0-6.22,0-12.45,0-18.67v-44.56c0-18.05,0-36.11,0-54.16,0-15.54,0-31.07,0-46.61v-15.4c0-2.3.44-5.12,0-7.4-.02-.1,0-.22,0-.32,0-.49-.42-.77-.9-.77-4.86,0-9.72,0-14.59,0-13.11,0-26.23,0-39.34,0-19.44,0-38.88,0-58.33,0-23.72,0-47.44,0-71.16,0-25.89,0-51.78,0-77.67,0-26.31,0-52.62,0-78.93,0-24.37,0-48.73,0-73.1,0-20.66,0-41.33,0-61.99,0-14.86,0-29.71,0-44.57,0-7.02,0-14.04-.01-21.07,0-.31,0-.61,0-.92,0-.53,0-1.93.25-1.93,1.05,0,6.22,0,12.45,0,18.67,0,14.85,0,29.7,0,44.56,0,18.05,0,36.11,0,54.16,0,15.54,0,31.07,0,46.61v15.4c0,2.3-.44,5.12,0,7.4.02.1,0,.22,0,.32,0,.49.42.77.9.77,4.86,0,9.72,0,14.59,0,13.11,0,26.23,0,39.34,0h58.33c23.72,0,47.44,0,71.16,0,25.89,0,51.78,0,77.67,0,26.31,0,52.62,0,78.93,0,24.37,0,48.73,0,73.1,0,20.66,0,41.33,0,61.99,0,14.86,0,29.71,0,44.57,0,7.02,0,14.04.01,21.07,0,.31,0,.61,0,.92,0,1.2,0,2.92-1.82,1.03-1.82Z"/>
      <ellipse class="cls-48" cx="895.41" cy="286.83" rx="22.83" ry="15.25"/>
      <ellipse class="cls-48" cx="984.87" cy="470.66" rx="22.83" ry="15.25"/>
      <ellipse class="cls-48" cx="991.35" cy="293.54" rx="22.83" ry="15.25"/>
      <g>
        <rect class="cls-43" x="1087.18" y="64.63" width="111.01" height="129.07"/>
        <path class="cls-65" d="M1086.23,66.03c3.67,0,7.34,0,11.01,0,8.85,0,17.71,0,26.56,0,10.67,0,21.35,0,32.02,0,9.26,0,18.52,0,27.78,0,3.04,0,6.08,0,9.11,0,1.4,0,2.94.18,4.32,0,.06,0,.13,0,.19,0l-1.5-1.09c0,4.29,0,8.58,0,12.87,0,10.3,0,20.6,0,30.89v37.23c0,10.73,0,21.45,0,32.18v10.67c0,1.65-.14,3.36,0,5.01,0,.08,0,.15,0,.23l3.42-1.71c-3.67,0-7.34,0-11.01,0h-26.56c-10.67,0-21.35,0-32.02,0-9.26,0-18.52,0-27.78,0-3.04,0-6.08,0-9.11,0-1.4,0-2.94-.18-4.32,0-.06,0-.13,0-.19,0l1.5,1.09c0-4.29,0-8.58,0-12.87,0-10.3,0-20.6,0-30.89,0-12.41,0-24.82,0-37.23,0-10.73,0-21.45,0-32.18,0-5.23,0-10.45,0-15.68,0-.08,0-.15,0-.23,0-1.08-1.28-1.16-2.13-1.06-.7.09-2.8.65-2.8,1.67,0,4.29,0,8.58,0,12.87,0,10.3,0,20.6,0,30.89v37.23c0,10.73,0,21.45,0,32.18,0,5.23,0,10.45,0,15.68,0,.08,0,.15,0,.23,0,.82.76,1.09,1.5,1.09,3.67,0,7.34,0,11.01,0h26.56c10.67,0,21.35,0,32.02,0,9.26,0,18.52,0,27.78,0,4.48,0,8.96.07,13.44,0,.06,0,.13,0,.19,0,.77,0,3.42-.47,3.42-1.71,0-4.29,0-8.58,0-12.87v-30.89c0-12.41,0-24.82,0-37.23,0-10.73,0-21.45,0-32.18,0-5.23,0-10.45,0-15.68,0-.08,0-.15,0-.23,0-.82-.76-1.09-1.5-1.09-3.67,0-7.34,0-11.01,0-8.85,0-17.71,0-26.56,0-10.67,0-21.35,0-32.02,0-9.26,0-18.52,0-27.78,0-4.48,0-8.96-.07-13.44,0-.06,0-.13,0-.19,0-1.05,0-2.67.34-3.25,1.34s.48,1.45,1.34,1.45Z"/>
      </g>
      <rect class="cls-61" x="1113.96" y="89.63" width="57.87" height="81.94"/>
      <path class="cls-80" d="M1113.75,116.01c2.96.18,5.89.93,8.52,2.26,7.1,3.58,11.78,10.87,19.3,13.56,5.74,2.05,12.28,1.02,17.82-1.48,4.48-2.02,8.43-4.94,12.23-7.99v-35.18h-57.87s0,28.83,0,28.83Z"/>
      <path class="cls-54" d="M356.04,281.61c-2.55,0-127.18,47.57-127.18,47.57l-.23,202.17-29.71,220.9,73.44,60.43s251.86-72.31,254.42-74.28c2.56-1.97-3.92-90.18-3.92-92.73s6.6-103.97,6.6-103.97c0,0-3.3-10.79,3.49-38.87,6.79-28.08,1.32-10,1.32-10l-20.65-143.97-25.18-10.05-132.41-57.21Z"/>
      <path class="cls-15" d="M455.89,739.23c3.3-2.2,157.36-40.35,210.18-52.45,52.82-12.1,81.43-5.84,113.34,29.38,31.91,35.21,25.17,48.63-3.67,88.58-30.01,41.56-82.07,62.69-140.48,89.5-43.94,20.17-161.76,4.59-161.76,4.59v-75.93l-17.61-83.67Z"/>
      <path class="cls-68" d="M547.65,843.83c3.17,6.11,4.75,16.01,8.85,29.95,1.81,6.13.57,16.49,8.52,18.18,14.06,2.98,28.92-6.05,34.33-6.95,11.41-1.88,11.56-2.44,22.89-3.34,11.49-.91,13.9-.97,25.3-4.9,1.57-.54,3.18-1.27,4.22-2.52.7-.84,1.1-1.85,1.8-2.68,2.48-2.94,7.36-2.44,10.77-4.42,1.51-.87,2.65-2.19,3.89-3.37,3.29-3.12,7.36-5.4,11.13-7.99,3.77-2.6,7.41-5.72,9.11-9.73,1.7-4.01.88-9.04-2.89-11.12-5.7-3.13-9.39,1.64-14.65,3.31-5.25,1.67-7.49,1.66-12.82,1.49-13.6-.45-15.81-.77-27.14-.83-8.8-.05-33.26-1.92-46.81-4.72l-1.95-8.11"/>
      <g>
        <path class="cls-54" d="M461.99,352.73s53.88,7.9,83.72,47.31c22.25,29.38,50.9,96.07,62.32,121.83,11.41,25.76,50.3,107.59,50.3,107.59l-84.89,35.96-82.24-123.23-29.21-189.47Z"/>
        <path class="cls-54" d="M503.34,537.71l85.3-53.19s-30.05-96.75-64.19-127.78c-23.26-21.14-70.53-24.04-70.53-24.04l49.42,205Z"/>
      </g>
      <path class="cls-9" d="M936.47,527.34l-41.94,228.34c-1.2,6.59-7.43,10.97-13.9,9.78-.26-.05-.51-.1-.76-.17l-166.57-41.19,44.17-230.03,167.55,17.63c7.2.76,12.4,7.31,11.61,14.63-.04.34-.08.67-.15,1Z"/>
      <polygon class="cls-8" points="914.96 509.17 929.78 517.63 886.74 751.95 885.86 756.8 868.74 753.63 914.96 509.17"/>
      <path class="cls-43" d="M756.89,493.47s65.57-12.26,166.26,16.26l-46.4,245.68-86.15-20.87-77.46-18.77,43.75-222.3Z"/>
      <path class="cls-8" d="M707.52,536.62c.49.13,1.01.18,1.52.15-.49-.15-1.01-.2-1.52-.15Z"/>
      <polygon class="cls-8" points="709.05 536.77 709.06 536.76 709.04 536.76 709.05 536.77"/>
      <path class="cls-8" d="M836.18,545.6l-.46-.15c.15.06.3.11.46.15Z"/>
      <path class="cls-8" d="M676.1,523.23l-.38-.21c.12.08.25.15.38.21Z"/>
      <path class="cls-9" d="M577.47,460.67c1.87-7.13,9.05-11.4,16.05-9.55l162.88,43.07-41.11,230.59-169.68-26.55c-.26-.03-.52-.07-.77-.12-6.47-1.19-10.73-7.5-9.52-14.08l41.94-222.37c.06-.33.13-.66.22-.99Z"/>
      <polygon class="cls-8" points="560.39 694.42 543.02 692.63 543.91 687.79 586.95 454.96 603.82 452.32 560.39 694.42"/>
      <path class="cls-44" d="M716.94,715.78l-166.41-22.7,45.43-243.15c104.25,9.13,161.19,43.89,161.19,43.89l-40.21,221.96Z"/>
      <path class="cls-8" d="M665.08,528.94c.46.22.96.35,1.47.4-.46-.23-.96-.37-1.47-.4Z"/>
      <polygon class="cls-8" points="665.08 528.94 665.06 528.93 665.06 528.94 665.08 528.94"/>
      <path class="cls-8" d="M559.28,498.02l-.48-.02c.16.02.32.03.48.02Z"/>
      <path class="cls-8" d="M701.1,527.93l-.43.07c.14-.01.29-.03.43-.07Z"/>
      <path class="cls-26" d="M925.22,516.12c-.39,2.15-.77,4.29-1.16,6.44l-3.13,17.36c-1.55,8.61-3.11,17.23-4.66,25.84l-5.65,31.31c-2.08,11.51-4.15,23.02-6.23,34.53s-4.16,23.08-6.25,34.61c-1.96,10.83-3.91,21.67-5.87,32.5-1.64,9.09-3.28,18.18-4.92,27.28-1.19,6.58-2.38,13.17-3.56,19.75-.56,3.09-1.2,6.19-1.68,9.29-.02.14-.05.27-.07.41-.06.32,1.11.13,1.17-.19.39-2.15.77-4.29,1.16-6.44,1.04-5.79,2.09-11.57,3.13-17.36,1.55-8.61,3.11-17.23,4.66-25.84,1.88-10.44,3.77-20.87,5.65-31.31,2.08-11.51,4.15-23.02,6.23-34.53s4.16-23.08,6.25-34.61c1.96-10.83,3.91-21.67,5.87-32.5,1.64-9.09,3.28-18.18,4.92-27.28,1.19-6.58,2.38-13.17,3.56-19.75.56-3.09,1.2-6.19,1.68-9.29.02-.14.05-.27.07-.41.06-.32-1.11-.13-1.17.19h0Z"/>
      <path class="cls-26" d="M922.11,510.44c-.39,2.19-.79,4.37-1.18,6.56-1.07,5.95-2.14,11.89-3.21,17.84-1.58,8.8-3.17,17.59-4.75,26.39-1.93,10.73-3.86,21.46-5.79,32.19-2.12,11.75-4.23,23.51-6.35,35.26s-4.27,23.73-6.41,35.59c-1.99,11.06-3.98,22.12-5.97,33.18-1.68,9.31-3.35,18.63-5.03,27.94-1.21,6.72-2.42,13.45-3.63,20.17-.57,3.18-1.23,6.36-1.72,9.55-.02.14-.05.27-.07.41-.06.32,1.11.13,1.17-.19.39-2.19.79-4.37,1.18-6.56,1.07-5.95,2.14-11.89,3.21-17.84,1.58-8.8,3.17-17.59,4.75-26.39,1.93-10.73,3.86-21.46,5.79-32.19,2.12-11.75,4.23-23.51,6.35-35.26,2.14-11.86,4.27-23.73,6.41-35.59,1.99-11.06,3.98-22.12,5.97-33.18l5.03-27.94c1.21-6.72,2.42-13.45,3.63-20.17.57-3.18,1.23-6.36,1.72-9.55.02-.14.05-.27.07-.41.06-.32-1.11-.13-1.17.19h0Z"/>
      <path class="cls-26" d="M588.42,454.29c-.39,2.15-.77,4.29-1.16,6.44-1.04,5.79-2.09,11.57-3.13,17.36-1.55,8.61-3.11,17.23-4.66,25.84-1.88,10.44-3.77,20.87-5.65,31.31-2.08,11.51-4.15,23.02-6.23,34.53-2.08,11.54-4.16,23.08-6.25,34.61-1.96,10.83-3.91,21.67-5.87,32.5-1.64,9.09-3.28,18.18-4.92,27.28-1.19,6.58-2.38,13.17-3.56,19.75-.56,3.09-1.2,6.19-1.68,9.29-.02.14-.05.27-.07.41-.06.32,1.11.13,1.17-.19.39-2.15.77-4.29,1.16-6.44,1.04-5.79,2.09-11.57,3.13-17.36,1.55-8.61,3.11-17.23,4.66-25.84,1.88-10.44,3.77-20.87,5.65-31.31,2.08-11.51,4.15-23.02,6.23-34.53,2.08-11.54,4.16-23.08,6.25-34.61,1.96-10.83,3.91-21.67,5.87-32.5,1.64-9.09,3.28-18.18,4.92-27.28,1.19-6.58,2.38-13.17,3.56-19.75.56-3.09,1.2-6.19,1.68-9.29.02-.14.05-.27.07-.41.06-.32-1.11-.13-1.17.19h0Z"/>
      <path class="cls-26" d="M593.92,451.6c-.39,2.15-.77,4.3-1.16,6.45-1.05,5.83-2.1,11.65-3.15,17.48-1.56,8.65-3.11,17.29-4.67,25.94-1.89,10.51-3.78,21.02-5.68,31.53-2.07,11.51-4.14,23.02-6.22,34.53-2.1,11.66-4.2,23.32-6.3,34.98-1.95,10.83-3.9,21.67-5.85,32.5-1.65,9.19-3.31,18.37-4.96,27.56-1.18,6.58-2.37,13.16-3.55,19.74-.56,3.11-1.21,6.23-1.68,9.36-.02.14-.05.27-.07.4-.06.32,1.11.13,1.17-.19.39-2.15.77-4.3,1.16-6.45,1.05-5.83,2.1-11.65,3.15-17.48,1.56-8.65,3.11-17.29,4.67-25.94,1.89-10.51,3.78-21.02,5.68-31.53,2.07-11.51,4.14-23.02,6.22-34.53,2.1-11.66,4.2-23.32,6.3-34.98,1.95-10.83,3.9-21.67,5.85-32.5,1.65-9.19,3.31-18.37,4.96-27.56,1.18-6.58,2.37-13.16,3.55-19.74.56-3.11,1.21-6.23,1.68-9.36.02-.14.05-.27.07-.4.06-.32-1.11-.13-1.17.19h0Z"/>
      <path class="cls-68" d="M331.9,231.86s3.22,17.69-3.59,38.18c-9.81,29.56-11.53,26.62-11.53,26.62h0c1.02,12.96,5.25,25.46,12.29,36.39l10.56,16.38c31.21,25.81,83.7,24.68,88.38-13.65,0,0-.99-1.36.18-5.61,1.65-5.95,19.13-44.46,19.13-44.46"/>
      <path class="cls-50" d="M307.78,535.73l38.53-27.83c-.57.15,11.3,17.21,26.64,24.39,24.17,11.31,52.42,7.49,48.44-24.08l36.07,12.47s38.66,52.47,38.52,72.31c-.35,49.95,9.03,147.57,9.03,147.57,0,0-57.84,23.26-85.71,21.95-27.88-1.31-142.91,13.61-142.91,13.61l35.76-199.59-4.37-40.79Z"/>
      <polygon class="cls-33" points="578.31 732.02 587.55 723.01 493.47 732.02 438.61 753.71 498.18 789.37 578.31 732.02"/>
      <path class="cls-15" d="M85.28,808.59s58.32,89.4,106.74,107.01c48.42,17.61,304.23,0,304.23,0l-12.62-134.52-210.18-12.1-188.17,39.62Z"/>
      <g>
        <path class="cls-68" d="M600.74,718.81c23.92-5.65,46.45,15.25,41.16,39.25-.17.77-.36,1.55-.59,2.33-8,28.35-66.57,80.92-78.37,88.43-11.8,7.51-95.04,35.97-95.04,35.97l-8.64-78.21s86.21-54.2,109.78-72.87c10.43-8.26,22.01-12.61,31.69-14.9Z"/>
        <path class="cls-68" d="M269.73,766.7c3.57,0,95.71-33.43,128.52-35.54,23.23-1.49,54.16,22.54,92.42,46.63,46.29,29.14,94.78,59.39,94.07,60.45-1.29,1.94-34.28,49.8-34.28,49.8l-129.85-65.08-45.39,5.41c-34.41-.38-105.49-61.67-105.49-61.67Z"/>
        <path class="cls-81" d="M497.1,782.45c15.98,10.05,32.15,19.79,48.43,29.35,10.19,5.98,20.49,11.8,30.61,17.91,1.32.8,2.65,1.6,3.93,2.47.21.14.41.28.61.43.16.11-.22-.19.04.03.06.05.13.1.19.16.53.43.02.19.32-.38-.86,1.63,2.9,1.3,3.51.14.41-.78-.3-1.23-.86-1.65-.93-.69-1.91-1.3-2.89-1.91-3.72-2.31-7.52-4.5-11.3-6.7-13.45-7.84-26.92-15.66-40.27-23.67-9.85-5.91-19.64-11.92-29.36-18.04-1.09-.69-4.53.89-2.97,1.88h0Z"/>
      </g>
      <path class="cls-58" d="M289.07,755.29c9.23,4.49,18.71,8.49,27.56,13.69.84-11.17,6.57-20.02,6.57-20.02l-34.13,6.33Z"/>
      <g class="cls-56">
        <path d="M725.26,705.79h0c-.37-.1-.72-.24-1.06-.41.34.17.69.31,1.06.41Z"/>
      </g>
      <g class="cls-56">
        <path d="M594.15,681.73c-.38.04-.76.04-1.14,0h0c.38.04.76.04,1.14,0Z"/>
      </g>
      <path class="cls-24" d="M522.59,576.22c.23-16.72,2-33.38,3.73-50,1.78-17.12,3.61-34.28,3.97-51.51.19-9.21-.06-18.43-1.09-27.59-.03-.26-1.49.02-1.45.39,1.85,16.54,1.22,33.26-.08,49.82-1.35,17.22-3.49,34.36-4.99,51.56-.8,9.22-1.42,18.46-1.54,27.72,0,.21,1.44.02,1.45-.39h0Z"/>
      <path class="cls-50" d="M531.87,623.13s-10.33-56.46-17.93-69.64c-11.33-19.66-61.99-34.67-61.99-34.67l30.69,128.82,49.24-24.52Z"/>
      <path class="cls-27" d="M635.83,740.96c4.79-2.86,9.58-5.72,14.37-8.57,4.6-2.74,9.25-5.42,14.14-7.6.77-.34,1.43-1.29.9-2.1-.56-.84-1.89-.68-2.66-.34-4.9,2.18-9.54,4.86-14.14,7.6-4.79,2.85-9.58,5.72-14.37,8.57-.72.43-1.47,1.23-.9,2.1.52.78,1.94.77,2.66.34h0Z"/>
      <g>
        <path class="cls-81" d="M653.86,872.34c2.06-1.64,1.13-4.99-.61-6.49-1.97-1.69-4.8-1.98-7.29-2.07-1.5-.06-3.01-.01-4.51-.02-.6,0-.6.93,0,.93,2.94.01,6.01-.23,8.85.64,1.3.4,2.57,1.11,3.25,2.32s.86,3.06-.35,4.02c-.47.37.19,1.03.66.66h0Z"/>
        <path class="cls-81" d="M664.93,867.84c3.1-1.35,1.55-5.48.19-7.55-.92-1.4-2.08-2.31-3.68-2.87-2.22-.78-4.49-.57-6.79-.51-2.32.06-4.79-.34-6.98.64-.55.25-.07,1.05.47.81,1.71-.77,3.77-.53,5.59-.51,1.98.02,3.94-.27,5.91.07,1.58.28,3.17.9,4.19,2.18.82,1.02,1.45,2.25,1.78,3.51.35,1.35.27,2.81-1.16,3.43-.55.24-.07,1.04.47.81h0Z"/>
        <path class="cls-81" d="M671.9,861.9c2.63-2.4,1.33-6.89-1.14-8.87-2.59-2.08-6.23-2.5-9.44-2.51-.95,0-1.9.04-2.85.12-1.12.09-2.25.15-3.35.37-.59.12-.34,1.02.25.9,1.58-.32,3.29-.39,4.9-.44s3.14,0,4.69.25c2.74.44,5.87,1.57,6.98,4.36.66,1.66.72,3.88-.7,5.17-.44.41.22,1.06.66.66h0Z"/>
        <path class="cls-81" d="M679.24,857.07c2.76-2.89,3.23-8.65-.28-11.19-1.48-1.07-3.38-1.46-5.16-1.68-1.98-.24-3.98-.21-5.97-.1-.97.05-1.94.15-2.91.2-1.17.06-2.47-.02-3.55.52-.54.27-.07,1.07.47.81.86-.43,1.97-.35,2.91-.39.79-.03,1.58-.11,2.37-.17,1.75-.11,3.5-.17,5.25-.07,1.7.1,3.49.32,5.05,1.05s2.52,2.04,2.91,3.76c.53,2.32-.1,4.87-1.75,6.6-.41.43.24,1.09.66.66h0Z"/>
      </g>
      <g class="cls-77">
        <path class="cls-4" d="M767.16,505.63s56.09-9.72,141.68,15.74l-42.49,219.44-47.56-14.65c-14.73-5.18-42.38-9.9-57.89-11.7l-33.75-6.22,40.01-202.62Z"/>
        <path class="cls-36" d="M905.53,754.58l9.57-52.3c-19.14-9.15-66.01-27.25-103.93-33.92-43.52-7.65-81.91-8.26-112.29-3.49l-9.19,50.2,215.83,39.51Z"/>
        <path class="cls-37" d="M837.61,707.29c-.89,4.84-18.83,5.61-40.09,1.72-21.25-3.89-37.76-10.97-36.88-15.81.89-4.84,18.83-5.61,40.09-1.72s37.76,10.97,36.88,15.81Z"/>
        <path class="cls-22" d="M774.06,678.31c.95,4.5-.88,10.22,2.8,13.79,1.91,1.86,4.24,3.27,6.71,4.09,1.7.57,5.16.68,6.92-.06,3.32-1.39,4.29-9.35,4.85-12.5.83-4.6.53-11.65-3.45-14.8-3.04-2.4-6.74-2.12-10.29-3.11-2.43-.68-7.11-6.96-7.9-3.43-1.07,4.74-.35,12.61.37,16.01Z"/>
        <path class="cls-22" d="M827.03,688.01c-2.48,3.88-2.8,9.87-7.5,11.9-2.45,1.06-5.12,1.55-7.72,1.45-1.79-.07-5.06-1.19-6.45-2.5-2.61-2.48-.7-10.26-.11-13.4.85-4.6,3.63-11.08,8.47-12.62,3.69-1.17,7.06.4,10.72.74,2.51.23,9.11-3.99,8.6-.41-.68,4.81-4.14,11.92-6.02,14.84Z"/>
        <path class="cls-22" d="M818.32,679.06c-1.22.08-2.34-.74-2.6-1.96-.29-1.34.57-2.66,1.91-2.95.35-.1,1.26-.77,1.8-1.17.87-.64,1.77-1.31,2.75-1.74,3.24-1.42,7-2.33,11.5-2.8,3.73-.39,6.93.05,10.04.47,1.19.16,2.4.33,3.68.45,4.63.44,10.23-.6,11.59-3.95.94-2.33.59-5.29-.83-6.89-.91-1.03-.82-2.6.21-3.51,1.03-.91,2.6-.81,3.51.22,2.66,3.01,3.37,7.97,1.71,12.05-2.49,6.15-10.54,7.63-16.68,7.04-1.34-.13-2.62-.3-3.87-.47-2.94-.4-5.72-.78-8.86-.45-4.03.42-7.22,1.18-10.01,2.41-.47.2-1.14.7-1.79,1.18-1.16.86-2.36,1.74-3.72,2.03-.12.03-.23.04-.35.05Z"/>
        <path class="cls-22" d="M790.59,631.51c8.62-4.87,28.49-1.45,35.89,5.95,8.13,8.13,10.23,37.55,2.58,45.2-7.9,7.89-52.2.48-55.15-10.11-3.24-11.66,6.82-35.46,16.69-41.04Z"/>
        <path class="cls-22" d="M786.35,648.73c-15.48-2.81-27.55-16.57-29.64-31.91-.88-6.49,8.36-8.28,10.13-.49,2.62,11.49,11.17,14.17,21.98,16.13,6.44,1.17,3.96,17.43-2.47,16.27h0Z"/>
        <path class="cls-22" d="M823.7,654.11c14.9,5.04,32.13-1.15,41.38-13.57,3.91-5.25-3.3-11.29-8.63-5.33-7.86,8.78-16.64,6.99-27.04,3.47-6.2-2.09-11.91,13.33-5.72,15.43h0Z"/>
        <path class="cls-28" d="M797.27,631.11c5.84-4.04,18.96-1.81,23.7,3.85,5.21,6.22,5.92,29.36.65,35.57-5.43,6.4-34.7,1.61-36.41-6.68-1.88-9.11,5.36-28.11,12.05-32.74Z"/>
        <g>
          <path class="cls-22" d="M801.24,577.97c-.82,4.49-8.61,9.43-13.1,8.6-4.49-.82-7.07-10.1-6.25-14.59.82-4.49,1.79-5.64,6.28-4.82s13.89,6.31,13.07,10.8Z"/>
          <path class="cls-28" d="M800.35,580.91c-.59,3.24-6.21,6.8-9.45,6.21s-5.1-7.28-4.51-10.52c.59-3.24,1.29-4.07,4.53-3.48,3.24.59,10.02,4.55,9.42,7.79Z"/>
        </g>
        <g>
          <path class="cls-22" d="M835.01,584.14c-.82,4.49,4.71,11.86,9.2,12.69,4.49.82,10.19-6.94,11.01-11.43.82-4.49.32-5.91-4.17-6.73-4.49-.82-15.22.98-16.04,5.47Z"/>
          <path class="cls-28" d="M834.8,587.2c-.59,3.24,3.4,8.56,6.64,9.15,3.24.59,7.35-5,7.94-8.24.59-3.24.23-4.26-3.01-4.85-3.24-.59-10.98.71-11.57,3.95Z"/>
        </g>
        <path class="cls-22" d="M796.03,575.3c10.38-5.44,34.52-1.25,43.59,7.28,9.97,9.38,12.93,42.94,3.75,51.55-9.46,8.88-63.29-.17-67.01-12.28-4.09-13.33,7.77-40.31,19.67-46.54Z"/>
        <g>
          <path class="cls-28" d="M824.74,623.21c-1.27,6.93-7.61,7.13-15.13,5.76-7.52-1.38-13.38-3.81-12.11-10.74,1.27-6.93,8.95-14.43,16.47-13.06,7.52,1.38,12.04,11.11,10.77,18.04Z"/>
          <path class="cls-22" d="M814.42,602.61c2.36.43,4.19,8.91,3.56,9.38-.68.51-9.06-1.07-11.05-1.87,0,0,5.14-7.94,7.49-7.51Z"/>
          <path class="cls-43" d="M803.25,602.3c-.55,3.01-2.85,5.11-5.14,4.69-2.29-.42-3.69-3.2-3.14-6.21.55-3.01,2.85-5.11,5.14-4.69,2.29.42,3.69,3.2,3.14,6.21Z"/>
          <path d="M799.33,600.36c-1.83-.33-3.51.13-4.45,2.19.15,2.26,1.42,4.1,3.24,4.44,1.83.33,3.66-.94,4.6-3-.15-2.26-1.57-3.29-3.39-3.63Z"/>
          <path d="M807.23,611.33c-.91-1.44.05-2.31,2.13-1.93l6.79,1.24c2.08.38,2.67,1.53,1.31,2.56,0,0-4.95,3.46-5.77,3.31-.85-.16-4.45-5.18-4.45-5.18Z"/>
          <path class="cls-14" d="M802.04,593.55c-1.63-.92-3.77-.79-5.32.25-.65.43-1.12,1.06-1.46,1.76-.07.14.09.25.19.29.19.07.48.06.67.02.4-.07,1-.22,1.2-.63.13-.27.24-.46.42-.69.08-.1.17-.2.26-.29.02-.02.15-.13.07-.07s.07-.06.1-.08c.04-.03.09-.06.13-.09.12-.09-.17.09,0,0,.04-.02.09-.05.13-.07.18-.1-.18.07-.04.02.04-.01.09-.03.13-.05-.3.14-.18.06-.07.03.05-.01.22-.05.01,0s-.02,0,.04,0c.02,0,.04,0,.07,0,.12-.02-.25.02-.13.01.04,0,.09,0,.13,0s.08,0,.13,0c.18,0-.17-.01-.04,0,.17.01.34.03.51.06.16.03-.04-.01-.02,0,.03.01.07.02.1.03.08.02.15.04.23.06.12.04.24.08.36.13.09.04.18.08.27.12.03.01.05.03.08.04.06.03-.17-.09-.1-.05.4.22.95.11,1.36-.06.11-.05.97-.49.59-.7h0Z"/>
        </g>
        <path class="cls-43" d="M833.76,607.88c-.55,3.01-2.85,5.11-5.14,4.69-2.29-.42-3.69-3.2-3.14-6.21.55-3.01,2.85-5.11,5.14-4.69,2.29.42,3.69,3.2,3.14,6.21Z"/>
        <path d="M829.84,605.95c-1.83-.33-3.51.13-4.45,2.19.15,2.26,1.42,4.1,3.24,4.44,1.83.33,3.66-.94,4.6-3-.15-2.26-1.57-3.29-3.39-3.63Z"/>
        <path class="cls-14" d="M830.01,600.02s-.35.05-.23.03c.03,0,.05,0,.08,0,.04,0,.07,0,.11,0,.02,0,.04,0,.06,0-.36.03-.2,0-.11,0,.13,0,.26,0,.39,0,.04,0,.07,0,.11,0-.04,0-.18-.02-.04,0,.08.01.17.02.25.03.18.03.35.08.52.12.1.03-.09-.04-.02,0,.02,0,.04.01.06.02.04.02.09.03.13.05.1.04.19.09.29.14.38.2.7.48.92.8.37.53.53,1.16.59,1.8.01.12.31.12.36.12.25,0,.52-.05.76-.11s.5-.15.71-.28c.1-.06.26-.15.25-.29-.1-1.09-.57-2.13-1.55-2.69-.69-.39-1.52-.53-2.31-.52-.31,0-.61.03-.91.08-.26.04-.55.13-.79.24-.11.05-.37.17-.43.3-.14.32.75.17.82.16h0Z"/>
        <path class="cls-28" d="M800.54,625.13c1.18,2,2.36,4,3.55,6.01l.61-1.68c1.27,1.52,2.66,2.93,4.16,4.22.05-.84.33-1.66.8-2.36.16.61.39,1.19.69,1.74.1.18.23.37.43.38.16,0,.3-.11.41-.22.68-.64,1.36-1.27,2.03-1.91-.24.6-.31,1.52.32,1.64.38.07.7-.26.96-.54.94-1.03,2.08-1.87,3.33-2.48.31-.15.67-.34.74-.68.12-.6-.7-.89-1.31-.95-2.29-.24-4.54-.91-6.58-1.97"/>
        <path class="cls-28" d="M785.16,663.75c.47,2.78,1.84,5.41,3.87,7.38-.04-.37-.08-.74-.12-1.11,1.24,1.06,2.48,2.12,3.72,3.17l-.14-1.72c1.77,1.6,3.69,3.04,5.72,4.29-.03-.7.23-1.68.92-1.57.2.03.36.16.52.28.39.31.79.61,1.18.92.32.25.68.51,1.09.54.36.03.71-.13,1.04-.29,1.06-.5,2.11-1,3.17-1.5-.08.6-.16,1.21-.23,1.81,1.8-.21,3.57-.62,5.28-1.21-.07.52-.15,1.04-.22,1.57,1.64-.44,3.21-1.12,4.66-2-.09.74-.19,1.47-.28,2.21,2.22-1.48,4.19-3.33,5.81-5.45.7-.91,1.35-2.15.79-3.15-.46-.81-1.49-1.04-2.41-1.17-2.19-.31-4.4-.47-6.61-.49"/>
        <path class="cls-28" d="M790.08,697.33c-4.71.44-8.15-1.07-12.43-3.08-.42-.2-.84-.42-1.14-.76-.91-1.05-.3-2.81.87-3.56s2.63-.79,4.02-.8c2.27-.02,4.61-.03,6.73.79,2.12.82,4.01,2.66,4.18,4.93,0,0,.87,2.2-2.22,2.49Z"/>
        <path class="cls-28" d="M817.69,702.85c-4.71.44-8.15-1.07-12.43-3.08-.42-.2-.84-.42-1.14-.76-.91-1.05-.3-2.81.87-3.56s2.63-.79,4.02-.8c2.27-.02,4.61-.03,6.73.79,2.12.82,4.01,2.66,4.18,4.93,0,0,.87,2.2-2.22,2.49Z"/>
        <path d="M803.09,587.96s9.32.58,13.07,6.24c0,0,6.61-3.8,13.94-1.24,0,0-3.23-5.01-13.21-2.05,0,0-6.22-6.71-13.79-2.95Z"/>
        <path d="M801.39,582.01s11.4-.22,15.91,6.6c0,0,7.15-4.59,15.98-1.5,0,0-3.11-5.89-15.14-2.33,0,0-7.64-7.31-16.76-2.77Z"/>
        <path d="M802.48,576.07s11.4-.22,15.91,6.6c0,0,7.15-4.59,15.98-1.5,0,0-3.11-5.89-15.14-2.33,0,0-7.64-7.31-16.76-2.77Z"/>
        <path d="M780.04,596.31s3.04,10.3,9.87,14.44c0,0-9.08-1.05-12.2-8,0,0,.29-3.67,2.33-6.43Z"/>
        <path d="M775.6,612.16s7.12,5.1,15.07,4.33c0,0-8.42,4.4-15.08.7,0,0-.27-1.61.02-5.03Z"/>
        <path d="M848.71,609s-6.11,8.42-13.96,9.88c0,0,8.86,2.24,14.24-3.16,0,0,.65-3.41-.28-6.71Z"/>
        <path d="M847.78,625.29s-8.47,2.25-15.62-1.29c0,0,6.47,7.11,14.02,6,0,0,.67-1.42,1.61-4.71Z"/>
        <polygon class="cls-43" points="801.46 600.23 799.38 603.41 802.81 601.43 801.46 600.23"/>
        <polygon class="cls-43" points="831.8 606.21 829.72 609.39 833.14 607.41 831.8 606.21"/>
        <path d="M782.53,579.15s.85-7.1,2.42-9.26c0,0,4.49-1.24,8.74-.57,0,0-2.88-2.99-10.21-2.4,0,0-4.22,4.15-.95,12.23Z"/>
        <path d="M852.15,591.66s1.72-6.94,1.02-9.52c0,0-3.76-2.75-7.97-3.63,0,0,3.76-1.77,10.4,1.37,0,0,2.47,5.37-3.45,11.77Z"/>
        <path class="cls-14" d="M794.78,599.97c-.93-.22-1.85-.45-2.78-.67-.2-.05-.46-.01-.66.02-.26.05-.55.13-.79.25-.14.07-.37.16-.43.31-.05.13.06.19.17.21l2.78.67c.2.05.46.01.66-.02.26-.05.55-.13.79-.25.14-.07.37-.16.43-.31.05-.13-.06-.19-.17-.21h0Z"/>
        <path class="cls-14" d="M838.59,607.91c-.93-.22-1.85-.45-2.78-.67-.2-.05-.46-.01-.66.02-.26.05-.55.13-.79.25-.14.07-.37.16-.43.31-.05.13.06.19.17.21.93.22,1.85.45,2.78.67.2.05.46.01.66-.02.26-.05.55-.13.79-.25.14-.07.37-.16.43-.31.05-.13-.06-.19-.17-.21h0Z"/>
        <path d="M783.73,631.47s-3.96,2.55-5.54,6.26c0,0-1.79-2.35.74-7.75l4.8,1.5Z"/>
        <path d="M777.57,629.24s-4.41,1.64-6.75,4.92c0,0-1.25-2.68,2.39-7.41l4.36,2.49Z"/>
        <path d="M771.88,625.45s-4.71.07-8.01,2.39c0,0-.28-2.94,4.73-6.19l3.28,3.8Z"/>
        <circle class="cls-28" cx="761.68" cy="617.96" r="2.65"/>
        <circle class="cls-28" cx="758.33" cy="615.26" r="1.13"/>
        <circle class="cls-28" cx="760.95" cy="613.44" r="1.13"/>
        <circle class="cls-28" cx="764" cy="614.19" r="1.13"/>
        <path d="M833.8,640.08s2.27,4.12,1.9,8.14c0,0,2.69-1.21,3.03-7.18l-4.93-.96Z"/>
        <path d="M840.54,641.37s3.11,3.54,3.61,7.54c0,0,2.37-1.76,1.41-7.66l-5.02.13Z"/>
        <path d="M847.17,641.03s4.11,2.3,5.92,5.9c0,0,1.64-2.45-1.22-7.69l-4.69,1.79Z"/>
        <circle class="cls-28" cx="859.7" cy="639.28" r="2.65"/>
        <circle class="cls-28" cx="863.93" cy="638.49" r="1.13"/>
        <circle class="cls-28" cx="862.48" cy="635.65" r="1.13"/>
        <circle class="cls-28" cx="859.44" cy="634.86" r="1.13"/>
        <path d="M773.15,670.44c4.53-.73,8.12-3.25,8.12-3.25-2.93.68-5.84.51-8.34.05.02,1.11.1,2.18.22,3.21Z"/>
        <path d="M774.5,686.63c4.53-.73,8.12-3.25,8.12-3.25-2.93.68-5.84.51-8.34.05.02,1.11.1,2.18.22,3.21Z"/>
        <path d="M823.31,696.16c-3.97-2.29-6.44-5.92-6.44-5.92,2.5,1.67,5.28,2.55,7.79,3-.41,1.03-.86,2.01-1.34,2.92Z"/>
        <path d="M776.54,651.08c4.34,1.48,8.7.95,8.7.95-2.9-.78-5.4-2.29-7.39-3.88-.5.99-.94,1.97-1.31,2.93Z"/>
        <path d="M774.06,660.3c4.53.7,8.73-.59,8.73-.59-2.99-.26-5.72-1.32-7.95-2.53-.32,1.06-.58,2.11-.78,3.12Z"/>
        <path d="M830.84,680.64c-3.97-2.29-6.44-5.92-6.44-5.92,2.5,1.67,5.28,2.55,7.79,3-.41,1.03-.86,2.01-1.34,2.92Z"/>
        <path d="M834.53,661.34c-4.58-.15-8.47-2.2-8.47-2.2,2.99.3,5.86-.23,8.28-1.01.12,1.1.18,2.18.19,3.21Z"/>
        <path d="M833.59,670.84c-4.49-.95-7.96-3.64-7.96-3.64,2.89.82,5.81.79,8.33.45-.08,1.11-.2,2.18-.38,3.19Z"/>
        <g class="cls-34">
          <rect x="838.01" y="666.32" width="6.01" height="8.47" transform="translate(46.78 -54.8) rotate(3.84)"/>
          <rect x="848.82" y="667.04" width="6.01" height="8.47" transform="translate(-72.57 104.07) rotate(-6.71)"/>
          <rect x="857.82" y="662.11" width="6.01" height="8.47" transform="translate(-141.02 1092.19) rotate(-60.77)"/>
          <rect x="857.27" y="651.89" width="6.01" height="8.47" transform="translate(531.23 1686.8) rotate(-109.63)"/>
        </g>
        <path class="cls-78" d="M805.51,620.36s.07,4.87,4.6,5.85c4.53.98,6.64-3.51,6.64-3.51,0,0-5.18-.91-5.43-2.72,0,0-2.06,1.53-5.81.37Z"/>
        <path class="cls-70" d="M801.88,572.98l10.9-22.73,9.26,24.2s-13.25,6.2-20.17-1.47Z"/>
        <path class="cls-17" d="M808.72,558.53s2.47,1.57,7.87,1.67l.99,2.59s-4.77,1.42-10.15-1.61l1.28-2.64Z"/>
        <path class="cls-17" d="M805.36,565.8s9.08,3.57,14.04,1.74l1,2.62s-8.29,3.48-16.32-1.72l1.28-2.64Z"/>
        <path class="cls-59" d="M855.63,550.41c-.94,12.44,8.32,23.28,15.31,23.81,5.25.4,18.13-9.53,19.07-21.96.94-12.44-6.26-22.37-15.66-23.08-9.4-.71-17.78,8.8-18.72,21.23Z"/>
        <path class="cls-59" d="M866.27,582.27c-.41-.57-.1-1.94.05-2.5.33-1.2,2.01-3.16,3.43-3.05.25.02,3.1,1.92,2.94,4-.05.6-.2,1.33-.59,1.82-.43.53-.67.27-1.32.29-.3,0-.53.19-.8.22-.33.04-.6-.14-.92-.17-.53-.07-1.02-.36-1.53-.41-.42-.04-.85.24-1.2-.12-.02-.02-.05-.05-.07-.08Z"/>
        <path class="cls-43" d="M877.45,534.78s8.63,8.36,8.06,18.14c0,0,3.39-14.83-8.06-18.14Z"/>
        <path class="cls-2" d="M869.07,582.87s-3.95,4.38-4.02,13.73c-.07,9.35,2.84,26.7,1.24,31.78-2.64,8.41-6.49,12.11-6.49,12.11"/>
        <path d="M810.71,619.91c-.14.1.17-.09,0,0-.13.07-.25.15-.38.21-.08.04-.16.08-.24.12.23-.11-.11.04-.18.07-.06.02-.12.05-.18.07-.04.01-.21.07-.08.03.14-.05-.06.02-.09.03-.08.02-.15.04-.23.06-.06.02-.12.03-.19.04.23-.05,0,0-.06,0-.07.01-.13.02-.2.03-.04,0-.08,0-.11.01-.09.01.14,0,0,0-.07,0-.14,0-.21,0-.04,0-.23,0-.18,0,.05,0-.12,0-.16-.01-.09,0-.19-.02-.28-.04-.62-.11-1.27-.45-1.77-.89-.9-.8-1.45-1.9-1.86-3.02-.17-.46-1.71,0-1.56.42.71,1.92,1.93,3.77,4.06,4.21,1.44.3,2.97-.09,4.27-.71.3-.14.6-.31.88-.5s.17-.4-.12-.45c-.37-.06-.8.09-1.1.3h0Z"/>
        <path d="M819.63,619.72c-.92.92-2.02,1.81-3.33,2.08-.69.14-1.49.03-2.16-.29-.86-.41-1.58-1.04-2.1-1.85l.07.27c.24-1.29.47-2.58.71-3.87.14-.74-1.46-.53-1.58.13-.16.86-.32,1.72-.47,2.58-.07.4-.18.82-.22,1.22-.02.2.05.33.16.48,1.11,1.56,2.96,2.56,4.89,2.47,2.09-.09,3.9-1.38,5.33-2.81.26-.26.12-.6-.19-.71-.37-.13-.83.03-1.1.3h0Z"/>
        <path class="cls-79" d="M749.25,533.96c13.11,6.35,28.4,6.24,42.54,4.36,15.41-2.04,30.26-6.43,44.45-12.76,8.45-3.77,16.62-8.11,24.67-12.67.9-.51-.52-.47-.91-.25-13.66,7.73-27.76,14.88-42.78,19.59-7.03,2.2-14.24,3.8-21.52,4.94-7.15,1.12-14.4,1.77-21.64,1.51-8.02-.3-16.08-1.75-23.34-5.27-.42-.2-1.68.44-1.46.54h0Z"/>
        <polygon class="cls-41" points="766.76 538.47 775.92 555.74 783.64 538.84 766.76 538.47"/>
        <polygon class="cls-73" points="788.15 538.01 799.93 553.62 804.88 535.72 788.15 538.01"/>
        <polygon class="cls-73" points="847.71 518.75 864.66 528.52 862.21 510.1 847.71 518.75"/>
        <polygon class="cls-55" points="808.96 534.31 823.07 547.85 825.11 529.38 808.96 534.31"/>
        <polygon class="cls-41" points="830.36 527.42 846.44 538.56 845.54 520.01 830.36 527.42"/>
      </g>
      <path class="cls-81" d="M261.28,696.54c-.01.12-.02.25-.03.37v.05c-.03.17,0,.33.09.47.06.16.16.28.3.38.15.11.31.18.5.21.19.06.39.08.6.06l.43-.07c.28-.07.53-.2.76-.37l.27-.27c.15-.18.24-.39.27-.62.01-.12.02-.25.03-.37v-.05c.03-.17,0-.33-.09-.47-.06-.16-.16-.28-.3-.38-.15-.11-.31-.18-.5-.21-.19-.06-.39-.08-.6-.06l-.43.07c-.28.07-.53.2-.76.37l-.27.27c-.15.18-.24.39-.27.62h0Z"/>
      <path class="cls-50" d="M287.89,672.44l64.6-19.66-43.09-117.58s-27.63,13.85-34.55,44.11c-8.38,36.63,13.05,93.13,13.05,93.13Z"/>
      <g>
        <path class="cls-50" d="M372.87,645.82c2.48-1.37,4.95-2.74,7.43-4.1-7.57-15.62-25.34-13.55-25.9-30.9-.97-29.8-7.52-36.84-23.14-44.41"/>
        <path class="cls-21" d="M373.42,645.84c2.48-1.37,4.95-2.74,7.43-4.1.03-.02.21-.14.17-.22-3.1-6.29-8.43-10.2-14.18-13.91-5.14-3.32-9.97-6.97-11.3-13.3-.42-2-.43-4.04-.52-6.07-.1-2.32-.25-4.63-.46-6.94-.34-3.69-.84-7.38-1.68-10.99-1.22-5.21-3.24-10.27-6.78-14.36-3.81-4.41-8.99-7.28-14.17-9.79-.38-.18-1.53.41-1.36.49,4.8,2.33,9.61,4.97,13.33,8.87,3.93,4.12,6.16,9.42,7.47,14.9.9,3.76,1.41,7.6,1.76,11.45.22,2.39.36,4.79.46,7.18.09,2.05.12,4.08.6,6.08,1.51,6.39,6.65,9.98,11.85,13.33,3.16,2.04,6.3,4.13,8.92,6.85,1.51,1.57,2.83,3.33,3.89,5.23.33.59.77,1.01.23,1.51s-1.53.84-2.19,1.21c-1.53.84-3.06,1.69-4.59,2.53-.61.34.84.2,1.11.05h0Z"/>
      </g>
      <path class="cls-81" d="M283.55,681.35c3.61-6.3,7.82-13.68,15.3-15.85.54-.16,1.33-.63,1.16-1.3s-1.15-.69-1.65-.55c-8.53,2.46-13.33,10.16-17.48,17.41-.35.61.31,1.06.84,1.13.68.09,1.49-.24,1.84-.85h0Z"/>
      <path class="cls-40" d="M617.6,532.36c-1.17,2.51,1.36,4.86,3.73,5.16,1.54.2,3.12-.1,4.59-.53,1.79-.53,3.54-1.57,5.41-1.74,3.34-.3,4.31,2.85,6.18,4.86,1.95,2.09,4.86,1.51,7.18.41.93-.44,2.04-1.4,3.1-1.45,1.27-.05,2.45,1.19,3.23,2.04,1.76,1.94,3.22,4.04,5.96,4.55,3.15.59,6.21-.66,9.35-.58,3.15.08,5.36,2.42,8.1,3.61,1.49.65,3.02.81,4.62.58,1.66-.24,3.39-1.15,5.07-1.08,3.2.13,4.1,4.41,6.78,5.62.57.26,1.31.07,1.87-.14.12-.04,1.33-.64.85-.86-2.35-1.06-3.07-3.83-5.21-5.14-2.7-1.65-5.67-.04-8.44.41-3.05.49-5.54-2.21-8.13-3.38-2.74-1.25-5.67-.82-8.55-.39-1.53.23-3.13.49-4.64.04-1.33-.4-2.34-1.31-3.26-2.32-1.54-1.71-2.94-3.89-5.44-4.15-1.34-.14-2.7.2-3.93.7-1.12.46-2.31,1.5-3.5,1.72-2.27.41-3.82-3.61-5.12-4.86-2.56-2.44-6.64-1.3-9.54-.21-1.83.69-3.89,1.75-5.77.64-1.37-.81-2.35-2.42-1.63-3.98.23-.5-2.51-.27-2.86.49h0Z"/>
      <path class="cls-40" d="M612.28,564.73c.52,3.21,2.93,5.77,5.93,6.9,1.51.57,3.17.74,4.77.54,1.98-.25,3.67-1.17,5.5-1.89,3.66-1.43,5.65,3.22,8.97,3.9,1.73.36,3.53-.06,5.19-.57s3.42-1.33,5.01-.07c.8.64,1.37,1.52,2.16,2.18s1.7,1.11,2.65,1.4c2.04.63,4.23.62,6.34.57.54-.01,1.64-.21,1.93-.73s-.26-.64-.73-.63c-1.85.04-3.78.06-5.55-.57-1.89-.68-2.71-2.24-4.23-3.38-2.83-2.12-6.25-.1-9.22.47-3.33.63-5.13-3.27-8.06-4.1-1.76-.5-3.66-.06-5.32.58-1.62.62-3.14,1.66-4.93,1.54-3.7-.24-6.92-3.32-7.51-6.92-.12-.75-3.04-.1-2.9.78h0Z"/>
      <path class="cls-81" d="M368.87,642.83c.69,0,2.35-1.03.9-1.03-.69,0-2.35,1.03-.9,1.03h0Z"/>
      <path class="cls-68" d="M598.33,528.13l-43.8-3.36c-6.57,1.46-24.04,5.42-31.76,7.99,4.3,4.68,8.42,9.27,12.7,13.96l15.28-5.34c-.3-.1,2.34-.9,2.34-.9,11.43.89,32.84,2.27,41.45-2.9,8.62-5.17,3.79-9.45,3.79-9.45Z"/>
      <path class="cls-67" d="M256.87,621.04c1.83.35,3.67.7,5.5,1.04.65.12,1.54-.07,2.03-.54.16-.15.35-.36.29-.61s-.34-.34-.55-.38c-1.83-.35-3.67-.7-5.5-1.04-.65-.12-1.54.07-2.03.54-.16.15-.35.36-.29.61s.34.34.55.38h0Z"/>
      <path class="cls-68" d="M531.56,625.12c1.86,4.59,3.55,12.61,3.55,12.61l64.62-40.02,25.18,19.48s-49.46,62.72-92.29,75.72c-11.45,3.47-24.67-1.27-34.07-12.32,0,0-1.24-20.06-1.11-33.04.02-1.77-.08-3.85,0-5.19"/>
      <path class="cls-68" d="M617.75,578.68c2.35-7.24,6.85-7.44,8.6-11.14,1.55-3.29,1.13-5.91.1-7.84-1.26-2.36-4.58-2.58-6.1-.37-1.55,2.26-4.38,5.61-9.52,10.27-.51.46-.77,1.3-1.35,1.77,0,7.55,5.45,4.7,8.26,7.31Z"/>
      <path class="cls-68" d="M668.43,561.22c-12.39,4.82-15.89,4.44-29.25,10.19l-1.19.49s-1.25.48-1.27.48c-1.69.73-.96.51-2.58,1.25-4.06,1.61-8.71,5.04-13.41,4.87-3.2-.11-4.66-1.87-5.33-4.41-2.08-.07,2.15-4.51.07-4.58-2-.06-3.02.49-5.04.58-3.43,3.71-9.72,12.99-10.33,16.1-.71,3.61-.86,7.25-.45,10.84l-4.46,5.78c1.45,4.88,3.95,9.39,7.45,13.27,4.35,4.81,4.69,9.14,10.73,11.48,1.81-1.11,8.86-1.36,10.99-1.75,8.9-1.69,26.68-11.48,26.68-11.48.71-.32,1.35-.74,1.91-1.23,0,0,0,0,.01,0,0,0,0,0,0-.01.6-.53,3.12-2.18,3.52-2.85,2.36-3.14,3.13-6.99,3.99-8.55.1-.16.18-.32.26-.48,0,0,0,0,0,0,.48-.99.54-2.04.03-3.16-.57-1.28-1.42-1.98-2.47-2.28l1.33-3.99c.18-.72.13-1.45-.2-2.21-.76-1.7-2.12-2.34-3.92-2.28-.14-.24-.28-.47-.43-.7.51-1.41.92-2.59.92-2.59h0c.23-.77.21-1.55-.15-2.36-1.55-3.49-5.6-2.53-10.85-.28.02.05.02.1.02.16-1.57.35-3.14.72-4.7,1.12,1.69-.78,3.06-1.38,3.77-1.69.34-.14.72,0,.88.33,7.72-3.67,10.82-5.56,18.44-9.44,3.81-1.95.99.45,4.42-2.12,4.71-3.54,2.2-9.07.61-8.47ZM658.11,595.83c-.02-.2-.03-.41-.05-.61.02.03.04.05.05.08.07.18.06.37,0,.53Z"/>
      <path class="cls-81" d="M645.13,580.61c-2.97,1.16-5.91,2.42-8.79,3.8-2.98,1.43-7.12,3.03-6.94,7,.05,1.08.59,2.05,1.34,2.81.9.9,2.3,2,3.63,1.6.69-.21,1.36-.53,2.03-.79,3.54-1.39,7.08-2.79,10.62-4.18,2.72-1.07,5.45-2.15,8.17-3.22.26-.1.84-.37.6-.72-.22-.32-1.14-.04-1.38.05-6.03,2.37-12.06,4.75-18.09,7.12-.87.34-1.74.68-2.6,1.03l1.25-.13c-2.63-1.34-4.3-3.56-2.91-6.46.71-1.48,2.74-2.27,4.11-2.97,3.15-1.61,6.43-3,9.73-4.29.26-.1.84-.37.6-.72-.22-.32-1.14-.04-1.38.05h0Z"/>
      <path class="cls-81" d="M633.86,596.39c-.58,1.14-1.02,2.39-.77,3.68.32,1.65,1.7,2.81,3.08,3.61.87.51,1.46.51,2.35.17.63-.24,1.26-.49,1.88-.74l14.27-5.62c1.39-.55,2.79-1.1,4.18-1.65.31-.12.83-.46.57-.84s-1.1-.13-1.4-.01c-6.03,2.37-12.06,4.75-18.09,7.12-.87.34-1.74.68-2.6,1.03l1.26-.08c-1.41-.72-2.92-1.7-3.34-3.33-.29-1.13.06-2.29.57-3.3.45-.89-1.66-.65-1.97-.04h0Z"/>
      <path class="cls-81" d="M654.24,596.28c-1.91.74-3.8,1.54-5.67,2.37-2.74,1.21-5.71,2.43-8.09,4.28-1,.78-1.55,1.78-1.82,3.03-.36,1.68.25,3.26,1.53,4.39.84.74,2.21,1.89,3.39,1.47.22-.08.42-.19.63-.29l3.18-1.56c2.29-1.13,4.58-2.25,6.87-3.38.32-.16.84-.52.54-.92-.28-.37-1.08-.23-1.41-.06-3.52,1.73-7.03,3.45-10.55,5.18l1.27-.05c-1.95-.98-3.83-2.54-3.35-4.94.08-.39.2-.76.36-1.12.08-.18.16-.35.25-.52.02-.04.05-.08.07-.12.09-.14-.1.11.03-.03.4-.45.72-.64,1.28-.99,2.97-1.9,6.33-3.26,9.58-4.61.92-.39,1.85-.77,2.78-1.13.33-.13.83-.54.54-.92s-1.06-.2-1.41-.06h0Z"/>
      <path class="cls-81" d="M620.91,626.24c-3.16-.19-5.72-2.83-7.67-5.09-2.1-2.43-3.78-5.37-3.79-8.67,0-.4-2.29-.07-2.29.61,0,3.46,1.86,6.49,4.08,9.02s4.78,4.89,8.19,5.09c.52.03,1.19-.12,1.62-.43.34-.25.33-.51-.14-.53h0Z"/>
      <path class="cls-68" d="M445.82,696.02l-81.9-5.77-8.16-20.51c-16.16,3.67-32.52,6.44-48.9,8.94-3.62.55-7.25,1.09-10.88,1.62.77,3.97,1.49,7.45,2.11,10.4,2.5,11.82,14.22,35.85,24.66,42.63,10.44,6.78,27.22,7.49,43.67,6.01,21.18-1.91,40.17-7.85,40.17-7.85l61.13-12.81-21.92-22.66Z"/>
      <path class="cls-68" d="M511.4,687.98l3.3-1.07c-2.9-3.03-5.13-5.84-8.08-8.82-5.12.88-9.53.95-10.34,1.26-1.49.58-30.92,12.64-50.45,16.67-19.54,4.02-47.59,3.22-47.59,3.22-25.53,10.01-17.22,32.41-17.22,32.41,20.09-4.87,67.48-12.61,73.38-10.86,4.13,1.22,9.14,5.83,13.65,8.61,1.93,1.18,3.78,2.05,5.43,2.14,5.45.32,23.31-4.41,23.31-4.41-1.39,5.23,6.19,7.35,6.19,7.35,6.24-4.72,18.93-4.67,20.81-8.22,1.88-3.56.68-9.51.68-9.51,0,0,.72-.58,2.05-1.08,4.4-1.65,3.42-8.87,2.32-9.8-1.11-.93-2.71-1.56-2.71-1.56,0,0,1.99-1.74,2.71-2.31,1.95-1.54,1.73-6.55-.4-8.02-1.67-1.14-12.5-4.59-17.03-6.01Z"/>
      <path class="cls-68" d="M552.71,683.45l-28.36-6.75c-4.46.28-16.32,1.06-21.65,1.94,2.33,3.51,4.56,6.95,6.88,10.47l10.57-1.91c-.19-.1,1.63-.35,1.63-.35,7.4,1.77,21.29,4.89,27.47,2.4,6.18-2.49,3.47-5.8,3.47-5.8Z"/>
      <path class="cls-81" d="M495.94,727.29c-.72,3.02,1.34,5.26,3.84,6.6.76.41,1.65.87,2.5,1.05,1.15.24,2.42-1.09,3.41-1.57,3.54-1.73,7.46-2.47,11.25-3.43,2.3-.58,5.78-1.18,7.24-3.31,1.82-2.65,1.47-6.99.88-10l-.26.45c1.31-1.03,2.97-1.22,4.08-2.57,1-1.22,1.42-2.84,1.48-4.39.05-1.25-.03-2.65-.55-3.8s-2.09-1.84-3.24-2.3l.02.52c1.58-1.38,3.55-2.52,4.03-4.69.46-2.07.08-5.02-1.87-6.24-1.88-1.17-4.29-1.78-6.37-2.5-3-1.04-6.03-2.01-9.05-2.97l-.52.87c2.38-.43,4.76-.86,7.14-1.29.25-.04.93-.24.81-.64v-.03c-.15.18-.29.36-.43.54,1.12-.58,2.67.19,3.88.46,2.05.47,4.11.9,6.18,1.29,4.15.77,8.39,1.42,12.62,1.37,3.34-.04,7.25-.56,9.74-3.04.96-.96,1.9-3.31.53-4.43-.23-.19-.62-.22-.9-.29l-2.2-.52c-2.45-.58-4.9-1.17-7.34-1.75-5.29-1.26-10.57-2.52-15.86-3.77-.67-.16-1.34-.35-2.02-.48-.91-.17-1.88,0-2.8.06-5.18.34-10.36.71-15.51,1.28l.58.15c-.46-.47-1.65-.03-2.21.04-1.3.16-2.59.37-3.89.5-1.62.16-3.48.07-5.05.57-.86.27-.66,1.09.22.81,1.23-.39,2.75-.32,4.02-.44,2.04-.19,4.1-.44,6.13-.78l-.58-.15c.43.44,1.56.08,2.07.03,1.16-.12,2.33-.23,3.5-.33,2.29-.2,4.57-.38,6.86-.54,1.81-.13,3.62-.29,5.43-.36.53-.02-.11-.06.25-.01.2.03.4.1.6.14,4.44,1.06,8.87,2.11,13.31,3.17s9.03,2.15,13.55,3.23c.18.04.37.1.56.13.28.05.12.12-.03-.07.35.46.54,1.08.52,1.66-.07,1.84-2.15,2.92-3.63,3.49s-3.26.76-4.91.81c-4.72.14-9.47-.67-14.08-1.58-2.14-.42-4.27-.9-6.4-1.39-1.22-.29-2.53-.53-3.72.08-.18.09-.5.28-.43.54v.03c.28-.21.55-.43.82-.64-2.38.43-4.76.86-7.14,1.29-.35.06-1.31.62-.52.87,2.7.85,5.39,1.72,8.07,2.63,2.2.75,4.48,1.45,6.58,2.47s2.48,3.6,2.12,5.64c-.37,2.11-2.3,3.19-3.81,4.51-.15.13-.22.43.02.52,1.02.41,2.47.97,2.96,2.01s.56,2.38.52,3.5c-.06,1.35-.36,2.8-1.19,3.9-.96,1.27-2.62,1.44-3.83,2.39-.14.11-.31.24-.26.45.45,2.24.56,4.66.14,6.91-.23,1.26-.58,2.57-1.69,3.31-.9.6-1.98.94-3.01,1.25-5.57,1.68-11.85,2.26-16.66,5.82l.89-.17c-3.11-.89-6.77-3.32-5.89-7.01.14-.59-1.33-.38-1.46.16h0Z"/>
      <path class="cls-81" d="M497.19,728.08c2.44-1.56,5.08-2.88,7.95-3.43,1.41-.27,2.88-.33,4.3-.11,1.53.24,3.01.69,4.57.56,1.07-.09,1.08-1.78,0-1.69-1.64.14-3.2-.4-4.81-.6-1.51-.18-3.03-.08-4.52.21-3,.58-5.8,1.97-8.35,3.6-.91.58-.07,2.05.85,1.46h0Z"/>
      <path class="cls-81" d="M524.63,717.54c-.52-1.74-1.61-3.22-3.05-4.32s-3.28-1.67-4.94-2.37c-2.81-1.18-5.62-1.87-8.63-2.37-1.06-.18-1.52,1.45-.45,1.63,2.72.45,5.34,1.02,7.9,2.07,3.03,1.24,6.51,2.33,7.54,5.81.31,1.04,1.94.6,1.63-.45h0Z"/>
      <path class="cls-81" d="M526.74,703.3c-2.41-2.09-4.88-4.35-7.83-5.66-2.97-1.32-6.22-1.51-9.43-1.49-1.09,0-1.09,1.7,0,1.69,2.94-.02,6.01.09,8.73,1.33,2.76,1.26,5.06,3.36,7.33,5.33.82.71,2.02-.48,1.19-1.19h0Z"/>
      <path class="cls-68" d="M620.87,920.05c3.07-2.95,1.05-8.1-.17-11.45-.12-.32-.25-.63-.38-.94-.37-.91-.66-1.8-.12-2.76,1.57-2.78.6-7.93-.46-10.67-.16-.41-.34-.82-.64-1.14-.3-.31-.69-.52-1.09-.69-.98-.42-2.02-.68-3.09-.76-4.05-.3.9-4.49,1.3-6.12-1.11-2.28-2.31-4.38-3.6-6.24-6.48-9.35-18.32-13.81-29.76-14.72-11.44-.91-22.87,1.16-34.3,2.12-11.43.96-23.45.69-33.66-4.49-6.38-3.24-11.74-8.26-18.26-11.23-9.98-4.56-30.19-1.14-47.18,12.09,0,0-16.9-1.7-37.44-11.45l-8.67,57.81c46.5,6.62,100.82,11.19,152.83,24.19,7.09,1.77,29.61,7.47,36.92,7.36,7.09-.11,18.21,3.35,23.08-1.7.42-1.37.47-2.84.31-4.43-.05-.45.38-.97.82-1.06,1.01-.2,2.39-.46,3.01-1.33.72-1,1.06-2.2,1.34-3.38,0,0,1.31-1.96,1.08-4.71-.23-2.75-1.89-4.29-1.89-4.29Z"/>
      <path class="cls-81" d="M589.38,893.09c4.48-.35,8.8.02,13.24.59,3.77.49,7.97.34,10.94-2.34,2.19-1.98,2.93-4.66,3.13-7.5s-.39-5.28-2.28-7.52c-4.68-5.53-11.14-9.39-17.99-11.6-7.76-2.5-15.95-2.78-24.04-2.29-16.98,1.04-35,5.72-51.49-.68-2.85-1.1-5.54-2.59-8.26-3.96-2.9-1.46-5.81-2.91-8.72-4.35s-5.8-2.86-8.71-4.25c-2.26-1.08-4.53-2.32-6.94-3.02-5.06-1.47-10.38-.66-15.27,1.04-6.67,2.31-12.74,6.28-18.43,10.38-1.8,1.3-3.56,2.63-5.31,3.99l2.36-.63c-8.26-.84-16.53-3.3-24.31-6.07-4.36-1.56-8.64-3.34-12.83-5.31-.83-.39-3.9.89-2.7,1.45,8.32,3.93,17.03,7.07,25.97,9.27,3.79.93,7.8,1.99,11.72,2.24,2.07.13,3.57-1.54,5.1-2.69,2.03-1.53,4.1-3.01,6.2-4.43,3.38-2.28,6.92-4.43,10.67-6.05,5.5-2.38,11.2-3.28,16.8-.73,6.73,3.06,13.34,6.42,19.95,9.73,3.3,1.65,6.57,3.5,10.01,4.84,4.39,1.71,9.08,2.65,13.76,3.09,10.33.97,20.63-.47,30.9-1.54,10.07-1.06,20.5-1.79,30.31,1.24,4.19,1.29,8.19,3.17,11.76,5.72,1.72,1.23,3.34,2.6,4.81,4.12s2.92,3.01,3.4,5.09c.66,2.87.33,6.64-1.35,9.09-1.38,2.01-3.22,2.45-5.56,2.26-2.57-.21-5.1-.71-7.67-.86-2.6-.15-5.2-.13-7.8.07-.64.05-1.87.21-2.22.85s.28.8.85.76h0Z"/>
      <path class="cls-81" d="M595.75,905.07c2.19-.28,4.33.42,6.4,1.07,1.93.61,3.85,1.18,5.86,1.43,3.95.51,8.06.25,11.65-1.61.59-.31.38-.62-.18-.66-.79-.06-1.67.28-2.36.63-1.37.71-3.15.61-4.64.54-1.77-.08-3.54-.39-5.24-.87-3.33-.93-6.48-2.24-10.01-1.79-.64.08-1.82.23-2.24.78s.36.53.77.48h0Z"/>
      <path class="cls-81" d="M598.94,919.92c8.06,1.63,16.9,4.92,24.49-.11.5-.33.94-.93.28-1.35s-1.81-.07-2.37.3c-6.05,4.01-14.01.59-20.37-.7-.77-.16-1.79.07-2.36.63-.48.48-.4,1.08.33,1.23h0Z"/>
      <path class="cls-81" d="M601.17,930.19c5.6,3.59,13.65,5.6,19.93,2.63.38-.18,1.03-.48.44-.76-.54-.26-1.84.23-2.32.45-1.11.53-2.38.48-3.59.4-1.29-.09-2.58-.3-3.84-.61-2.65-.64-5.16-1.75-7.46-3.22-.52-.33-1.62.06-2.13.24-.17.06-1.46.57-1.02.85h0Z"/>
      <path class="cls-15" d="M229.52,707.94s-112.8-78.07-155.24-14.9c-34.39,51.18-3.74,101.35,11,115.54,29.71,28.61,134.25,73.73,196.98,92.44,62.72,18.71,141.95,26.27,141.95,26.27l43.8-85.47s-201.08-101.97-238.49-133.88Z"/>
      <path class="cls-27" d="M370.38,917.52c-16.6-1.76-33.04-4.9-49.3-8.61-17.72-4.05-35.27-8.86-52.65-14.15-16.69-5.08-33.25-10.61-49.63-16.62-13.25-4.86-26.41-10-39.29-15.78-4.55-2.05-9.25-4.25-13.45-6.5-2.92-1.56-5.88-3.18-8.5-5.22-.42-.33-.83-.67-1.21-1.03-1.29-1.21-4.66.72-3,2.28,2.11,1.99,4.73,3.47,7.23,4.89,4.13,2.33,8.4,4.42,12.69,6.42,12.34,5.74,25.01,10.78,37.75,15.56,16.14,6.05,32.46,11.61,48.91,16.74,17.53,5.47,35.22,10.44,53.08,14.71,16.63,3.98,33.43,7.42,50.4,9.54,1.88.23,3.75.45,5.63.65.92.1,2.14-.29,2.54-1.21.38-.88-.35-1.59-1.2-1.68h0Z"/>
      <path class="cls-40" d="M622.81,501.17c-1.18,2.55.91,5.05,3.4,5.66,3.62.89,6.69-1.51,10.1-2.09,3.53-.61,4.4,2.48,6.37,4.59,1.98,2.13,4.79,1.85,7.21.64.98-.49,2.06-1.34,3.17-1.46,1.28-.14,2.35.97,3.13,1.83,1.85,2.03,3.37,4.19,6.25,4.73,3.05.58,6.01-.53,9.05-.57,3.27-.04,5.47,2.36,8.31,3.58,1.44.62,2.93.85,4.49.66,1.77-.22,3.58-1.21,5.37-1.12,1.64.09,2.63,1.54,3.53,2.73s1.75,2.25,3.08,2.85c.64.29,1.48.16,2.06-.24.38-.26.88-.96.22-1.26-2.31-1.04-3.07-3.83-5.21-5.14-2.84-1.73-5.79.01-8.7.39s-5.36-2.24-7.88-3.37c-2.72-1.21-5.55-.9-8.41-.47-1.48.22-3.04.51-4.52.18-1.39-.31-2.39-1.21-3.31-2.23-1.57-1.74-2.99-3.89-5.48-4.3-1.24-.21-2.49.03-3.65.49-1.28.5-2.47,1.51-3.81,1.83-2.26.53-3.6-3.09-4.84-4.4-2.51-2.64-6.33-1.95-9.4-.83-1.69.62-3.86,1.82-5.71,1.18-1.4-.48-2.81-2.2-2.1-3.72.63-1.35-2.28-1.12-2.72-.15h0Z"/>
      <path class="cls-68" d="M943.12,586.34h0c-2.55,3.5-7.09,4.06-10.09,1.25l-9.8-9.18c-3-2.81-3.38-7.98-.83-11.48h0c2.55-3.5,7.09-4.06,10.09-1.25l9.8,9.18c3,2.81,3.38,7.98.83,11.48Z"/>
      <path class="cls-68" d="M940.84,597.67h0c-1.17,4.26-5.2,6.58-8.96,5.16l-13.52-5.13c-3.76-1.43-5.88-6.08-4.71-10.34h0c1.17-4.26,5.2-6.58,8.96-5.16l13.52,5.13c3.76,1.43,5.88,6.08,4.71,10.34Z"/>
      <path class="cls-68" d="M944.16,567.11h0c-2.67,3.52-6.91,4.5-9.44,2.17l-6.43-5.93c-2.52-2.33-2.4-7.11.27-10.63h0c2.67-3.52,6.91-4.5,9.44-2.17l6.43,5.93c2.52,2.33,2.4,7.11-.27,10.63Z"/>
      <path class="cls-68" d="M932.43,611.5h0c-.95,4.31-4.21,7.03-7.23,6.05l-7.72-2.52c-3.03-.99-4.73-5.33-3.78-9.64h0c.95-4.31,4.21-7.03,7.23-6.05l7.72,2.52c3.03.99,4.73,5.33,3.78,9.64Z"/>
      <path class="cls-68" d="M541.77,543.57l4.69-2.31c-4.98-3.9-8.9-7.61-13.94-11.43-7.45,2.41-14.02,3.46-15.15,4.09-2.11,1.18-37.3,25.16-65.56,35.35-28.28,10.18-69.23,28.66-69.23,28.66-35.94,20.4-36.49,55.89-36.49,55.89,28.93-11.56,108.51-45.45,117.69-44.11,6.42.94,14.87,1.72,22.2,4.9,3.14,1.35,6.08,2.25,8.55,2.03,8.2-.69,33.83-11.57,33.83-11.57-.95,8.1,10.8,9.64,10.8,9.64,8.29-8.38,27.24-11.02,29.27-16.71,2.04-5.72-1.03-14.34-1.03-14.34,0,0,.94-1.02,2.82-2.05,6.21-3.4,3.21-13.97,1.37-15.11-1.86-1.15-4.37-1.74-4.37-1.74,0,0,2.6-3.02,3.55-4.02,2.58-2.71,1.18-10.15-2.31-11.87-2.74-1.34-19.63-4.17-26.68-5.32Z"/>
      <path class="cls-81" d="M553.1,595.89c-2.28.54-4.61.06-6.93.1-2.03.03-4.07.38-6.01.98-4.02,1.25-7.64,3.49-10.92,6.09-.88.7-1.95,1.31-2.18,2.46-.18.89-.23,1.85-.16,2.75.23,2.92,1.73,5.3,4.5,6.42,2.79,1.13,6.11,1.84,9.13,1.35,1.61-.26.93-2.71-.68-2.45.17-.03.16,0-.15,0-.46.02-.91.04-1.37.03-1.45-.04-2.89-.3-4.28-.71-2.61-.76-4.46-1.98-4.62-4.86-.03-.65,0-1.48.09-1.91.06-.29.16-.31.07-.22-.27.28.32-.14.31-.13.17-.11.33-.27.48-.4.4-.33.81-.66,1.23-.97,2.85-2.15,5.99-4.01,9.42-5.04,1.96-.59,3.96-.88,6.01-.83,2.27.06,4.48.34,6.73-.19,1.59-.37.92-2.83-.68-2.45h0Z"/>
      <path class="cls-81" d="M568.71,583.48c-2.27-4.79-9.08-5.58-13.62-6.77-4.71-1.24-9.29-1.74-14.15-1.85-1.64-.04-1.64,2.51,0,2.54,4.4.1,8.56.48,12.83,1.59,2.4.62,4.84,1.19,7.21,1.93,2.18.69,4.49,1.65,5.53,3.84.7,1.48,2.89.19,2.2-1.28h0Z"/>
      <path class="cls-81" d="M567.81,563.04c-4.06-2.6-8.23-5.42-12.92-6.74s-9.62-.84-14.39-.12c-1.61.24-.93,2.69.68,2.45,4.4-.66,8.97-1.08,13.3.2,4.37,1.29,8.25,3.97,12.04,6.4,1.38.89,2.66-1.31,1.28-2.2h0Z"/>
      <path class="cls-54" d="M236.98,326.09c-26.34,6.19-75.62,40.58-77.07,92.89-2.1,86.85-8.47,238.12,30.22,265.34,95.94,67.49,279.47-62.76,279.47-62.76l-2.28-62.32-195.8,49.31s-6.44-197.07-14.96-210.39"/>
      <path class="cls-24" d="M271.98,607.04c-.1-2.32-.2-4.65-.3-6.97-.27-6.17-.55-12.35-.84-18.52-.41-8.89-.84-17.78-1.28-26.67-.52-10.47-1.06-20.94-1.63-31.41s-1.22-21.93-1.9-32.9c-.63-10.23-1.3-20.46-2.06-30.69-.62-8.41-1.3-16.82-2.14-25.22-.32-3.18-.66-6.36-1.07-9.53-.22-1.7-.53-3.38-.6-5.08-.31-7.26-1.25-14.55-2.87-21.64-2.01-8.79-5.2-18.9-12.46-24.82-1.56-1.28-3.32-2.29-5.22-2.98-.38-.14-1.7.45-1.17.64,8.88,3.2,13.25,13.14,15.81,21.5,2.46,8.06,3.73,16.5,4.31,24.89.11,1.52.08,3.08.3,4.59.42,2.78.75,5.57,1.06,8.36.87,7.8,1.52,15.63,2.14,23.45.78,9.91,1.45,19.84,2.09,29.76.69,10.81,1.33,21.63,1.93,32.45.6,10.67,1.16,21.35,1.7,32.03.47,9.32.93,18.64,1.36,27.96.33,6.92.64,13.83.95,20.75.15,3.32.16,6.68.43,9.99.01.15.01.29.02.44.02.37,1.47.11,1.45-.39h0Z"/>
      <path class="cls-24" d="M273.83,606.87c-11.76-4.77-25.73-2.27-35.63,5.51-2.87,2.25-5.34,4.97-7.32,8.03-.38.58,1.08.48,1.36.06,6.48-10.06,18.56-15.79,30.44-15.11,3.43.2,6.81.95,10,2.24.46.19,1.77-.47,1.15-.73h0Z"/>
      <path class="cls-81" d="M533.68,636.89c-5.29,2.31-9.2,7.79-11.75,12.72-1.66,3.2-2.87,6.61-3.79,10.1-.25.96,2.79.52,3.04-.43,1.39-5.27,3.47-10.43,6.73-14.83,1.03-1.4,2.17-2.73,3.46-3.91.48-.44.97-.86,1.48-1.25.2-.15.4-.3.6-.45.11-.08.21-.15.32-.22.02-.01-.11.07.1-.06.31-.2.62-.38.95-.56.08-.05.17-.08.25-.13.12-.06-.43.2-.23.11.37-.16,1.25-.6.85-1.11-.37-.47-1.59-.14-2,.04h0Z"/>
      <path class="cls-24" d="M289.13,700.78c-14.7,1.79-29.54,3.56-44.37,3.29-8.19-.15-16.32-1.25-24.31-3-2.59-.57-5.19-1.21-7.7-2.08-1.74-.6-3.77-1.29-5.04-2.69-.29-.32-1.66.2-1.36.53,1.06,1.16,2.68,1.83,4.12,2.39,2.16.84,4.41,1.45,6.65,1.99,4.09.99,8.24,1.75,12.39,2.37,10.67,1.6,21.46,1.4,32.19.64,9.09-.64,18.15-1.67,27.19-2.77.64-.08,1.25-.79.23-.67h0Z"/>
      <path class="cls-81" d="M408.71,731.11c-18.85-2.56-38.2.15-55.74,7.49-.45.19-1.13.56-.49.88s2.04-.26,2.61-.5c15.89-6.65,33.45-8.8,50.51-6.48.86.12,1.84-.14,2.61-.5.25-.12,1.33-.76.49-.88h0Z"/>
      <path class="cls-68" d="M427.44,514.08c-2.35-.2-6.52,4.76-8.85,4.46-9.59-1.23-19.44-2.58-28.86-4.77-14.53-3.38-30.9-16.67-42.68-25.2-.1,9.17,3.63,24.63,0,30.88l.21,2.69c19.56,32.55,15.64,33.15,84.34,15.04l-2.98-22.18-1.19-.91Z"/>
      <g>
        <path class="cls-50" d="M425.53,508.26s7.64,27.1-13.58,34.14c0,0,18.22,4.19,24.48,16.81,0,0,14.99-14.03,11.16-42.46,0,0-6.27-4.64-14.27-7.4-8-2.76-7.79-1.09-7.79-1.09Z"/>
        <path class="cls-21" d="M424.8,508.46c.83,2.95,1.19,6.1,1.31,9.16.22,5.95-.77,12.24-4.28,17.19-2.45,3.45-6.02,5.82-9.99,7.17-.33.11-1.01.7-.32.86,6.65,1.54,13.44,4.83,18.53,9.37,2.29,2.05,4.27,4.45,5.66,7.19.24.48,1.01.26,1.32-.03,1.33-1.25,2.44-2.77,3.47-4.26,2.65-3.85,4.63-8.15,6.01-12.61,2.11-6.78,2.75-13.94,2.3-21.02-.07-1.06-.16-2.12-.28-3.18-.07-.61,0-1.48-.39-1.95-.37-.44-1.12-.78-1.59-1.09-2.96-1.94-6.1-3.63-9.36-5.02-2.16-.92-4.37-1.72-6.64-2.33-1.19-.32-2.45-.64-3.69-.62-.64,0-2.16.21-2.06,1.16.06.56,1.51.23,1.45-.39.01.11-.07.17-.08.17-.06-.03.2-.02.35-.01.49.01.97.08,1.44.16,3.71.69,7.36,2.19,10.74,3.84,2.51,1.23,4.95,2.62,7.27,4.18.23.15.61.33.78.54.25.3.18.13.18.65-.01.98.23,2.03.31,3.01.08,1.01.14,2.03.18,3.04.39,10.75-1.97,21.83-7.99,30.86-1.06,1.59-2.22,3.21-3.62,4.52l1.32-.03c-4.32-8.53-13.53-13.59-22.34-16.37-.8-.25-1.61-.5-2.43-.69l-.32.86c6.97-2.36,12.13-7.4,14.26-14.48,1.61-5.35,1.56-11.16.68-16.64-.2-1.22-.42-2.45-.75-3.64-.16-.58-1.61-.19-1.45.39Z"/>
      </g>
      <g>
        <line class="cls-50" x1="415" y1="543.63" x2="418.1" y2="571.32"/>
        <path class="cls-21" d="M414.28,543.82c.91,8.09,1.81,16.17,2.72,24.26.13,1.15.26,2.29.38,3.44.07.62,1.52.28,1.45-.39-.91-8.09-1.81-16.17-2.72-24.26-.13-1.15-.26-2.29-.38-3.44-.07-.62-1.52-.28-1.45.39h0Z"/>
      </g>
      <ellipse class="cls-21" cx="407.76" cy="554.61" rx="2.79" ry="3.86" transform="translate(-157.3 947.76) rotate(-88.51)"/>
      <ellipse class="cls-21" cx="409.8" cy="568.41" rx="2.79" ry="3.86" transform="translate(-169.11 963.24) rotate(-88.51)"/>
      <path class="cls-81" d="M351.56,441.08c.48,0,1.56-.72.59-.72-.48,0-1.56.72-.59.72h0Z"/>
      <g>
        <path class="cls-50" d="M323.96,520.35s7.55-17.09,22.06-20.55c0,0,34.49,43.04,64.96,43.07,0,0-21.19,10.86-22.89,25.37,0,0-66.3-26.94-64.13-47.89"/>
        <path class="cls-21" d="M324.64,520.4c2.76-6.23,7.43-12.2,12.95-16.16,2.59-1.86,5.44-3.25,8.54-4.01l-.78-.12c4.2,5.24,8.91,10.13,13.72,14.8,9.31,9.03,19.66,17.54,31.42,23.18,6.31,3.03,13.17,5.22,20.22,5.25l-.03-.81c-2.63,1.35-5.13,2.98-7.53,4.7-4.65,3.33-9.07,7.24-12.24,12.04-1.8,2.74-3.14,5.8-3.55,9.07l1.3-.45c-7.52-3.06-14.88-6.56-22.11-10.26-6.36-3.26-12.62-6.73-18.64-10.59-5.67-3.63-11.26-7.59-16-12.4-3.67-3.72-7.76-8.75-7.23-14.34.06-.65-1.4-.41-1.46.15-.47,4.85,2.44,9.29,5.49,12.79,4.29,4.92,9.63,8.93,15.02,12.56,11.16,7.54,23.28,13.7,35.53,19.26,2.73,1.24,5.48,2.46,8.26,3.59.36.15,1.23.06,1.3-.45.73-5.82,4.36-10.76,8.44-14.76,3.44-3.37,7.36-6.25,11.48-8.74.85-.51,1.7-1.02,2.54-1.45.41-.21.64-.81-.03-.81-12.93-.07-25.04-7.16-35.12-14.64-9.09-6.75-17.37-14.63-24.93-23.04-1.54-1.71-3.06-3.43-4.5-5.22-.17-.21-.55-.18-.78-.12-9.58,2.36-16.83,10.22-21.45,18.59-.42.76-.83,1.53-1.19,2.33-.31.69,1.14.59,1.36.09h0Z"/>
      </g>
      <path class="cls-68" d="M445.26,424.39c-.64-4.09-1.42-8.83-2.38-14.55-.28-1.66-.59-3.24-.92-4.81-.24-.79-.41-1.6-.52-2.41-6.16-27.58-18.07-40.37-18.07-40.37-15.19-16.17-37.79-23.03-59.37-18.02-25.5,5.37-45.66,25.31-54.74,43.25-4.52,8.89-5.6,19.13-3.04,28.77,2.17,8.24,8.7,15,12.67,23.64-9.02,1.28-17.18,6.15-10.81,22.02,8.8,21.89,24.8,26.17,30.5,18.61,1.64-.02,6.81,9.44,8.08,14.12.1.36,1.07,5.8,1.17,6.19,13.35,5.94,41.24,23.08,56.14,23.75,9.35.42,9.87-1.04,19.19-1.73,2.25-.17.92-7.26,3.17-7.52l-1.84-9.96c.64-.17,1.21-.24,3.93-1.7,19.6-9.23,23.67-38.17,22.88-48.74-.68-8.96-3.91-25.44-6.06-30.53Z"/>
      <path class="cls-29" d="M424.52,505.35s-24.01,6.57-48.68-3.72c0,0,4.04,6.83,20.7,9.39,16.66,2.56,28.74-1.72,28.74-1.72l-.76-3.95Z"/>
      <ellipse cx="433.27" cy="419.28" rx="5.55" ry="5.54" transform="translate(-7.98 830.17) rotate(-87.02)"/>
      <path d="M438.84,413.51c-2.91-1.16-6.69-1.57-11.87-.12-8.3,2.33-10.14,13.63-10.14,13.63,0,0,2.98-8.92,11.11-11.43,3.92-1.21,10.95-.09,14.3.89-.23-.79-1.64-2.19-3.4-2.98Z"/>
      <path class="cls-60" d="M317.85,462.86c-1.09-1.92-1.88-4.11-1.85-6.34,0-.59.07-1.18.2-1.75.04-.17.11-.34.14-.51-.03.19-.02.06,0-.02l-.85.59c.16-.05-.42.06-.1.02.3-.03-.21-.03-.02,0,.11.01.22.02.33.03.35.03-.08-.04.23.04.18.05.35.09.53.15.5.16.79.3,1.24.53,3.87,2.01,7,5.48,9.82,8.72l1.85-1.06c-1.14-.54-2.5-.87-3.74-.52-1.65.47-2.19,1.94-2.03,3.51.14,1.4.87,2.68,1.95,3.56,1.63,1.32,3.85,1.54,5.87,1.37.44-.04,1.16-.32,1.21-.83s-.58-.67-.98-.64c-2.53.21-5.14-.7-5.76-3.41-.11-.46-.27-1.92.12-2.19.19-.13.75.04,1.02.11.19.06.38.13.57.19s.18.08.1.04c.46.22.99.17,1.43-.08.3-.18.73-.61.41-.97-2.15-2.48-4.43-4.88-7.01-6.92-1.34-1.06-2.78-2.03-4.38-2.65-.77-.3-1.63-.52-2.47-.45-.99.08-1.43.66-1.64,1.58-.69,3.04.36,6.2,1.84,8.82.44.77,2.53,0,2-.92h0Z"/>
      <ellipse cx="376.75" cy="430.53" rx="5.55" ry="5.54" transform="translate(-72.79 784.38) rotate(-87.02)"/>
      <path d="M392.7,431.24s-10.27-9.51-19.42-7.02c-12.87,3.51-14.13,9.36-15.88,14.03,0,0,6.55-9.4,16.57-11.87,9.09-2.24,18.73,4.86,18.73,4.86Z"/>
      <path class="cls-38" d="M414.87,467.39c-7.84,1.46-20.71,2.93-20.71,2.93,0,0,2.43,22.88,24.11,18.5,18.12-3.67,15.2-25.39,15.2-25.39,0,0-10.75,2.51-18.59,3.97Z"/>
      <path d="M414.94,467.38c-3.73.69-17.64,3.13-17.64,3.13,0,0,5.02,13,18.5,10.49,14.62-2.72,15.22-15.78,15.22-15.78l-16.09,2.16Z"/>
      <path class="cls-76" d="M415.42,469.07c-3.73.69-15.18,2.2-15.18,2.2,0,0,5.03,2.24,16.21.16,11.18-2.08,13.81-5.63,13.81-5.63l-14.84,3.27Z"/>
      <path class="cls-38" d="M433.37,463.32c-.07-.4-.92-.43-2.8-.24-3.13.32-4.34-.6-6.61-.35-3.87.43-6.02,2.33-7.68,2.64-1.66.31-4.35-.69-8.12.3-2.2.58-7.59,2.39-10.63,3.22-1.82.5-4.12.21-4.5.37-.53.23,1.7,5.07,22.56,1.19,20.86-3.88,17.88-6.59,17.78-7.14Z"/>
      <path class="cls-31" d="M387.62,409.59c-.01-.2-.67-.13-.69-.33-10.67-1.11-18.56-.23-21.36.72-2.13.72-4.13,1.9-5.97,3.39,0,0-5.11,4-5.62,5.39-.5,1.38,3.29-1.12,3.29-1.12.83-.39,1.38-.81,2.25-1.08,4.78-1.5,9.25-3.65,14.26-3.66,4.28-.04,10.31,1.74,14.57,2.82-.15-2.13-.75-4.03-.74-6.15Z"/>
      <path class="cls-31" d="M411.64,406.7c-.06-.19.51-.34.45-.53,8.32-4.45,15.04-6.13,17.64-6.12,1.97,0,4,.48,6,1.29,0,0,5.5,2.14,6.37,3.28.87,1.14-3.05,0-3.05,0-.81-.1-1.39-.32-2.19-.3-4.39.12-8.75-.48-12.84,1.1-3.5,1.33-7.82,4.93-10.93,7.3-.58-2.05-.73-4.03-1.44-6.02Z"/>
      <g>
        <path class="cls-10" d="M416.67,456.69c-1.62,1.36-4.45,1.76-6.54,1.02-.46-.16-1.77.38-1.12.61,2.76.97,6.79.23,8.87-1.53.21-.18.13-.35-.19-.38-.33-.04-.81.09-1.03.28"/>
        <path class="cls-10" d="M408.11,457.98c-1.35-.31-2.8-.31-4.19-.12-.2.03-.45.16-.57.33-.09.13-.09.27.08.33.71.23,1.55.2,2.29.02.23-.06.53-.18.62-.41.08-.21-.17-.28-.35-.24-.61.15-1.26.16-1.85-.02-.16.22-.32.44-.49.66,1.25-.18,2.54-.16,3.75.12.24.06.54-.08.71-.24.13-.12.24-.36,0-.41"/>
        <path class="cls-10" d="M402.69,459.35c-1.62.32-3.66.03-4.71-1.01-1.59-1.57-1.15-4.89.6-6.51.19-.18.04-.32-.19-.31-.3,0-.62.18-.82.37-1.52,1.41-2.1,4.22-1.47,5.88.6,1.55,2.38,2.33,4.41,2.37.6.01,1.23-.03,1.84-.15.24-.05.67-.22.74-.44.08-.22-.16-.26-.39-.21"/>
        <path class="cls-10" d="M419.44,455.22c-.13-.17,0-.32.14-.35.44-.08.85-.3,1.16-.69.18.14.36.29.54.43-.85.29-1.66.77-2.32,1.46-.13.14-.37.12-.53.03-.12-.06-.28-.24-.15-.38"/>
        <path class="cls-10" d="M418.27,455.73c.74-.77,1.65-1.3,2.6-1.62.14-.05.34-.01.47.1.1.09.15.22.06.33"/>
        <path class="cls-10" d="M422.82,454.7c1.04-.27,2.11-1.25,2.36-2.57.37-2-.82-4.02-2.39-4.9-.17-.1-.13-.28,0-.36.17-.1.42-.04.6.05,1.36.77,2.46,2.26,2.67,4.02.19,1.64-.56,2.98-1.71,3.73-.34.22-.72.4-1.1.5-.16.04-.46.03-.58-.14-.12-.18,0-.29.15-.33"/>
      </g>
      <g>
        <path class="cls-50" d="M497.12,617.6c.47,19.59.32,23.93.32,23.93,0,0,23.86,1.43,38-10.31l-3.3-11.21s-25.09,8.29-32.48,8.45"/>
        <path class="cls-21" d="M496.38,617.65c.19,7.95.59,15.97.32,23.93,0,.27.22.48.49.5,3.07.18,6.18.04,9.23-.22,6.48-.54,12.96-1.81,19.02-4.22,3.77-1.5,7.35-3.49,10.49-6.07.16-.13.3-.33.24-.55-1.1-3.74-2.2-7.47-3.3-11.21-.1-.34-.57-.42-.86-.33-8.3,2.74-16.71,5.35-25.24,7.28-2.31.52-4.68,1.07-7.05,1.13-.84.02-1.1,1.14-.12,1.11,4.78-.13,9.66-1.67,14.24-2.92,5.09-1.38,10.14-2.91,15.16-4.51,1.09-.35,2.19-.7,3.28-1.06l-.86-.33c1.1,3.74,2.2,7.47,3.3,11.21l.24-.55c-9.38,7.7-22.46,10.05-34.3,10.16-1.02,0-2.04,0-2.97-.05l.49.5c.27-7.96-.13-15.98-.32-23.93-.02-.78-1.49-.59-1.47.1h0Z"/>
      </g>
      <path class="cls-24" d="M316.06,296.14c.36,4.62,1.3,9.25,2.41,13.75,2.3,9.29,5.83,18.49,11.37,26.36,3.4,4.84,7.62,9.09,12.64,12.24l-.04-.58c-3.84,4.07-7.69,8.13-11.53,12.2l1.26-.12c-5.34-4.84-10.09-10.51-14.27-16.36-3.77-5.28-7.01-10.92-9.34-16.98-2.05-5.33-3.51-10.9-4.49-16.52-.49-2.78-.97-6.21-1.09-8.75l-.42.46c4.84-1.83,9.69-3.65,14.53-5.48.93-.35.1-1.05-.62-.78-4.84,1.83-9.69,3.65-14.53,5.48-.15.06-.43.26-.42.46.38,7.82,2.16,15.76,4.71,23.13,3.91,11.27,10.78,21.23,18.76,30.02,1.87,2.05,3.79,4.09,5.84,5.95.35.32.95.21,1.26-.12,3.84-4.07,7.69-8.13,11.53-12.2.17-.18.19-.45-.04-.58-8.89-5.57-14.96-14.54-19.01-24.04-3.15-7.38-5.26-15.23-6.49-23.15-.24-1.57-.47-3.15-.6-4.74-.05-.6-1.5-.27-1.45.39Z"/>
      <path d="M333.72,458.7c-.07-.13-.54-.6-.61-.73-1.86-2.99-5.88-8.35-8.99-10.16-1.42-.83-3.1-1.72-4.77-2.12-1.67-.39-3.47-.86-5.21-.75-2.49-.12-4.84.39-7.05,1.53-.36.25-.73.51-1.09.76-10-18.49-19.98-36.96-10.38-63.97,2.78-7.78,12.19-17.63,15.04-20.76,17.34-18.79,35.26-23.45,58.01-25.68,26.36-2.58,50.13,6.81,61.27,31.75,2.68,6.01,1.89,4.85,3.61,10.27,0,0-4.23-14.09-18.17-19.05-13.94-4.97-14.01,6.43-31.59,10.33-20.37,4.43-29.29-5.34-44,6.47-13.42,10.81-15.25,24.76-15.25,24.76-.51,9.36-3.41,16.11,1.12,25.82,1.09,2.31,2.07,4.67,3,7.05,1.03,4.47,4.57,6.39,4.65,11.02.04,2.27,3.87,10.76,2.24,12.46-1.76,1.83.52,1.36-1.81,1.04Z"/>
      <path class="cls-24" d="M427.3,335.99c.32,6.57-2.5,13.69-7.58,17.87-.14.11-.19.27-.09.42,2.79,4.22,5.58,8.45,8.37,12.67.23.35,1.05.08,1.26-.15,3.89-4.28,6.89-9.64,8.93-15.02,1.73-4.54,2.83-9.43,2.27-14.3-.45-3.92-1.88-7.68-3.9-11.06-1.08-1.81-2.32-3.62-3.82-5.12-.32-.32-1.13-.09-1.35.26-2.24,3.6-4.05,7.8-4.51,12.04-.08.71-.76,3.39.63,3.28.7-.05,1.02-.59,1.23-1.17.19-.5-1.26-.33-1.45.17-.03.07-.13.21-.13.28.02.25-.67.19.5.04.97-.12.41.07.52-.39.18-.8.08-1.79.18-2.62.13-1.11.35-2.2.66-3.27.83-2.9,2.14-5.74,3.73-8.31l-1.35.26c3.66,3.67,6.24,8.86,7.27,13.9,1.82,8.93-2,18.28-6.8,25.67-1.14,1.76-2.37,3.53-3.79,5.09l1.26-.15c-2.79-4.22-5.58-8.45-8.37-12.67l-.09.42c5.3-4.36,8.19-11.7,7.86-18.52-.02-.49-1.48-.19-1.45.39Z"/>
    </g>
    <g id="Layer_9" data-name="Layer 9">
      <path class="cls-68" d="M390.85,311.23l36.35,4.65,18.73-1.1c1.83.34,12.87-16.86,14.51-19,5.09-6.64,10.84-16.74,14.54-24.26,3.97-8.06,11.44-13.14,14.42-23.14,2.19-7.32,3.09-12.56,1.1-25.42-.5-3.27-.02-6.36,1.29-9.56,2.79-6.74,4.74-14.84,8.28-23.9.28-.71,1.74-4.14,1.58-4.99,0,0,5.6-39.37.86-54.56-4.74-15.19-11.64-22.88-21.51-27.25-9.86-4.37-40.57-7.6-40.57-7.6l-41.01-13.03-38.66,11.7-25.38,40.35-5.8,50.78-2.13,45.87"/>
      <path class="cls-10" d="M414.72,192.03c-2.08-1.62-4.97-1.09-6.73-.03-.41.25-1.53.97-2.26,2.4-.93,1.83-.56,4.17.4,5.73,1.29,2.08,3.94,2.89,6.19,2.31,3.06-.79,4.6-4.01,4.36-6.6-.05-.47-.3-2.49-1.98-3.8"/>
      <path class="cls-10" d="M478.69,204.38c2.53-.77,5.03.77,6.29,2.38.3.38,1.08,1.45,1.25,3.05.21,2.04-.97,4.09-2.43,5.2-1.95,1.48-4.71,1.28-6.61-.07-2.57-1.84-2.86-5.39-1.7-7.73.21-.43,1.17-2.21,3.21-2.84"/>
      <path class="cls-10" d="M462.24,210.36s9.97-7.74,16.13-7.24c8.98.73,10.83,3.38,13.11,8.5,0,0-4.89-5.82-11.24-6.14-6.07-.31-18,4.88-18,4.88Z"/>
      <path class="cls-10" d="M432.9,202.42s-12.26-11.34-19.04-12.78c-9.9-2.1-22.84,1.56-26.92,5.73,0,0,17.22-5.73,24.16-4.06,6.63,1.6,21.81,11.11,21.81,11.11Z"/>
      <path class="cls-10" d="M440.57,170.65c1.22.8.62,1.74.3,4.13-.1.76-.24,1.94-.38,3.18-.26,2.31-2.73,3.71-4.83,2.7-3.77-1.81-7.1-3.63-9.75-4.46-7.19-2.26-14.48-5.08-22.07-4.89-3.64.09-6.88.61-10.09,2.06-1.01.46-3.87,2.65-5.19,1.82-.54-.34.78-3.15.92-3.44,2.7-5.67,8.04-7.48,14.36-8.1,12.9-1.25,24.21,3.72,36.73,6.99"/>
      <path class="cls-10" d="M498.92,192.13c1.71-2.03,2.13-4.55,2.66-7.05-7.16-4.07-14.82-6.36-22.79-7.68-4.09-.68-8.01,1.97-9.04,5.99,0,.02-.01.05-.02.07-.2.8-1.27,3.1-.94,3.88.06.15.19.26.32.37,1.37,1.12,3.16,1.65,4.92,1.79,2.19.17,4.34-.31,6.52-.22,6.16.25,12.65.43,18.3,2.98.02-.04.03-.08.06-.12Z"/>
      <g>
        <path class="cls-10" d="M445.33,247.42c-3.2,1.02-7.57-.17-10.15-2.57-.57-.53-2.81-.54-2.01.21,3.42,3.17,9.74,4.58,13.87,3.26.41-.13.4-.44-.04-.68-.45-.26-1.23-.37-1.67-.23"/>
        <path class="cls-10" d="M432.06,243.98c-1.78-1.31-3.88-2.21-6.03-2.79-.32-.08-.75-.04-1.03.13-.22.13-.3.35-.08.54.9.78,2.14,1.26,3.32,1.46.37.06.88.06,1.15-.23.25-.27-.07-.53-.36-.58-.98-.16-1.94-.55-2.68-1.19-.37.22-.74.45-1.11.67,1.93.52,3.8,1.35,5.39,2.52.32.23.84.22,1.18.08.26-.1.57-.38.25-.62"/>
        <path class="cls-10" d="M423.33,242.64c-2.55-.54-5.35-2.24-6.24-4.44-1.35-3.33,1.28-7.61,4.83-8.92.39-.14.25-.44-.09-.59-.44-.19-1.02-.11-1.42.04-3.09,1.14-5.59,4.57-5.7,7.44-.09,2.68,2.02,4.96,4.94,6.28.87.39,1.81.72,2.76.93.39.08,1.11.09,1.35-.18.25-.28-.08-.48-.44-.56"/>
        <path class="cls-10" d="M450.26,246.96c-.08-.33.21-.48.41-.43.69.15,1.43.08,2.11-.3.17.33.35.65.52.97-1.41-.1-2.89.1-4.28.72-.28.12-.61-.05-.8-.28-.14-.17-.25-.53.02-.66"/>
        <path class="cls-10" d="M448.26,246.98c1.56-.69,3.21-.9,4.79-.78.23.02.5.2.63.44.1.19.08.42-.11.53"/>
        <path class="cls-10" d="M455.52,248.31c1.68.24,3.85-.53,5.03-2.35,1.79-2.75,1.29-6.49-.43-8.78-.19-.25-.02-.49.23-.53.32-.05.64.19.83.45,1.5,1.99,2.18,4.9,1.39,7.64-.74,2.56-2.67,4.09-4.8,4.47-.63.11-1.29.15-1.92.06-.25-.04-.69-.24-.75-.57-.07-.34.19-.43.43-.4"/>
      </g>
      <path class="cls-68" d="M348.71,184.01c.06,3.86-2.89,18.95-3.05,22.73l-19.85-3.58c-3.92-14.01-8.06-20.3-9.79-24.17-2.69-6.04-1.37-27.13-.99-33.6.64-10.93,6.5-24.21,12-34.04,6.05-10.82,12.38-16.85,22.22-24.05,20.09-14.71,52.39-19.7,82.27-12.74,2.84.66,5.66,1.43,8.37,2.28,25.64,8.05,45.16,18.3,58.45,42.7,9.58,17.6,8.06,32.14,4.11,54.71,2.7-21.64-1.64-40.19-1.86-40.88-4.9-15.8-13.44-21.47-19.74-23.45-5.5-1.72-9.96-.91-10.85-.72-6.61.39-15.81-1.98-22.39-4.04-4.9-1.54-8.75-3.03-9.79-3.45-3.02-2.87-7.82-5.39-13.9-7.3-14.14-4.44-35.51-5.28-40.84.32-5.91,6.21-20.68,29.35-21.68,35.14,0,0-13.13,26.37-12.69,54.12Z"/>
      <path d="M348.71,184.01c.06,3.86-2.89,18.95-3.05,22.73l-19.85-3.58c-3.92-14.01-8.06-20.3-9.79-24.17-2.69-6.04-1.37-27.13-.99-33.6.64-10.93,3.24-30.85,8.74-40.67,6.05-10.82,15.35-17.92,25.2-25.13,20.09-14.71,52.67-11.99,82.55-5.02,2.84.66,5.66,1.43,8.37,2.28,25.64,8.05,45.16,18.3,58.45,42.7,9.58,17.6,8.76,32.04,6.02,42.78,2.7-21.64-1.91-29.83-2.22-30.48-5.91-12.32-12.8-22.63-19.1-24.61-5.5-1.72-12.15,1.79-13.04,1.98-6.61.39-15.81-1.98-22.39-4.04-4.9-1.54-8.75-3.03-9.79-3.45-3.02-2.87-20.56-12.35-26.65-14.26-14.14-4.44-24.74-2.89-30.07,2.71-5.91,6.21-18.7,33.91-19.7,39.71,0,0-13.13,26.37-12.69,54.12Z"/>
      <path class="cls-68" d="M331.06,236.61c-13.92,14.22-17.62-14.41-17.62-14.41-8.89-15.66-6.28-30.17-4.08-40.02,2.2-9.85,13.09-7.74,13.09-7.74,9.09,2.68,12.34,8.4,14.47,41.07"/>
      <path class="cls-81" d="M324.23,198.78c-3.56.38-5.25,3.41-5.75,6.67-.15,1-.14,1.99-.18,3-.05,1.14-.29,2.26-.26,3.42.03,1.37.19,2.73.51,4.07.47,1.99,2.86,8.91,6.16,6.54.94-.67,1-1.97,1-3.02,0-1.61-.22-3.22-.34-4.83-.07-.89-.53-3.84.47-4.45.34-.21.95.13,1.31.25.76.24,1.53.46,2.3.7.4.12,1.24-.11,1.15-.65-.77-4.91-1.45-9.81-2.84-14.6-.86-2.94-1.93-5.94-3.64-8.5-.66-.99-1.5-2.1-2.57-2.68s-1.8.27-2.51.98c-3.3,3.3-4.66,8.09-4.95,12.63-.04.7,1.42.46,1.46-.13.23-3.55,1.06-7.1,3.04-10.1.68-1.03,1.53-2.14,2.58-2.83l-.9.16c.14.04-.07-.11.07.03.13.13.36.22.51.33.68.51,1.23,1.2,1.72,1.89,2.58,3.66,3.81,8.31,4.77,12.61.79,3.5,1.26,7.05,1.81,10.59l1.15-.65c-1.68-.51-4.53-2.01-5.87-.12-.66.93-.63,2.27-.59,3.36.04,1.49.22,2.98.34,4.47.07.98.4,2.82-.2,3.71-.65.97-2.21-1.6-2.53-2.18-1.22-2.22-1.83-4.84-1.93-7.36-.07-1.69.22-3.1.25-4.54.05-2.89.78-7.4,4.32-7.79.77-.08,1.15-1.08.15-.97h0Z"/>
      <path class="cls-19" d="M410.52,306.14c-.32.14-18.94-5.48-19.3-5.57l-9.03-6.29s-.04-.04-.05-.05c-.95.2-2.01.08-3.12-.53-5.79-3.15-10.58-7.47-15.07-12.24-4.04-4.28-7.58-15.84-12.47-19.21-2.31-1.59-1.3-2.21-3.15-4.17.1.59-.58,3.91-.48,4.5,7.53,14.03,21.99,43.38,34.49,52.43.94.43,3.9,1.83,12.08,3.92,10.73,2.74,24.95,5.34,35.83,5.69,4.62-10.56,5.02-13.36,6.39-21.03-3.9-.72-13.99-2.56-26.12,2.54Z"/>
      <path class="cls-68" d="M443.6,305.11c-.24-.08-.46-.2-.64-.37-3.41-3.19-3.46-4.67-5.27-5.44-.42-.18-.61-.37-1.93-.78-5.29-1.67-8.49-2.79-24.56,3.97-.32.14-18.93-5.48-19.3-5.57l-9.03-6.29c-1.47-1.29-33.04-38.45-33.04-38.45-.38-1.13-5.79-9.61-5.89-10.64-.1-.08-.2-.16-.32-.23-.04-.02-.13-.08-.22-.14-.03.06-.06.14-.09.19-.14.41-.2.86-.25,1.29-.23,1.87,2.46-10.05,2.72-8.18.39,2.87.37,6.6.65,9.47.1,1.01.88,15.03,1.06,16.03,3.75,3.31,23.71,40.98,37.65,51.07.94.43,1.78,2.16,9.95,4.26,15.36,3.93,30.4,6.44,46.48,4.57,4.19-.49,7.9-2.8,10.13-6.24,6.37-9.82,20.44-31.67,25.6-47.06-5.78,8.45-18.05,26.58-26.47,38.91-.25.37-6.22-.3-6.74-.23"/>
      <path class="cls-38" d="M432.13,261.65c-11.44-2.12-29.72-6.83-29.72-6.83,0,0-6.21,28.37,25.63,33.76,26.61,4.5,31.51-22.58,31.51-22.58,0,0-15.98-2.23-27.42-4.35Z"/>
      <path d="M432.74,261.77c-5.5-1.03-25.94-5.07-25.94-5.07,0,0,2.79,16.51,22.69,20.22,21.57,4.03,26.53-9.61,26.53-9.61l-23.28-5.55Z"/>
      <path class="cls-76" d="M433.28,264.43c-5.67-1.06-22.76-5.15-22.76-5.15,0,0,5.86,5.67,22.88,8.85,17.02,3.18,22.75-.16,22.75-.16l-22.87-3.54Z"/>
      <path class="cls-38" d="M461.97,266.32c.13-.58-1.05-1.06-3.83-1.81-4.62-1.24-5.82-3.11-9.17-3.99-5.72-1.49-9.85-.1-12.38-.57-2.53-.47-5.78-3.24-11.67-3.92-3.45-.4-12.11-.85-16.89-1.36-2.86-.31-5.96-1.92-6.59-1.9-.88.03-.45,7.67,31.3,13.6,31.75,5.93,29.06.72,29.23-.06Z"/>
    </g>
    <g id="Layer_18" data-name="Layer 18">
      <ellipse class="cls-43" cx="772.72" cy="252.78" rx="230.91" ry="187.94"/>
      <ellipse class="cls-4" cx="773.62" cy="251.37" rx="217.73" ry="177.21"/>
      <path class="cls-36" d="M905.97,374.27c-24.99-3.94-53.17-5.61-79.77-6.27-26.9-.66-53.82-.46-80.73-.41-26.69.05-53.44.4-80.02,3.02-11.82,1.17-20.95,2.35-32.86,6.19-3.03.98-6.1,2-9.2,2.95,39.04,30.2,91.82,48.74,149.94,48.74s112.22-19.01,151.41-49.88c-6.17-1.79-12.41-3.35-18.76-4.35Z"/>
      <polygon class="cls-43" points="583.3 347.12 497.82 423.95 623.63 385.54 583.3 347.12"/>
      <g>
        <polyline class="cls-3" points="829.21 181.95 832.64 181.3 843.83 275.41 848.41 195.02"/>
        <path class="cls-39" d="M851.28,148.66c0-14.24-11.19-25.79-24.99-25.79s-24.99,11.55-24.99,25.79,13.96,33.41,27.54,34.06l-1.51,3.14s3.2,1.53,5.22.29c1.04-.64.44-2.4-.56-3.61,12.28-2.18,19.29-20.49,19.29-33.87Z"/>
        <path class="cls-7" d="M849.12,162.53c-4.02,2.54-8.72,4.03-13.73,4.03-14.8,0-27.35-11.68-27.62-26.67-.06-3.71.67-7.31,2.04-10.62-5.22,4.73-8.52,11.66-8.52,19.39,0,14.01,13.96,33.41,27.54,34.06l-1.51,3.14s3.2,1.53,5.22.29c1.04-.64.44-2.4-.56-3.61,8.29-1.47,14.18-10.3,17.13-20Z"/>
        <line class="cls-3" x1="859.78" y1="167.31" x2="843.83" y2="275.41"/>
        <path class="cls-59" d="M843.18,130.51c0,14.69,7.35,36.8,20.84,36.8s28-22.12,28-36.8-10.93-26.59-24.42-26.59-24.42,11.9-24.42,26.59Z"/>
        <path class="cls-62" d="M875.38,143.82c-13.13,0-24.28-10.36-24.51-23.67-.07-4.06.94-7.98,2.76-11.45-6.31,4.81-10.45,12.78-10.45,21.8,0,14.69,7.35,36.8,20.84,36.8,11.46,0,23.65-15.96,27.06-29.76-4.19,3.86-9.69,6.28-15.7,6.28Z"/>
        <path class="cls-62" d="M878.2,560.14c-9.22,0-18.51-7.35-18.68-16.7-.05-2.85.15-5.33,1.43-7.77-2.06,1.07-5.37,8.78-5.37,15.12,0,10.32,5.17,25.86,14.64,25.86,8.05,0,16.61-11.21,19.01-20.91-2.94,2.71-6.81,4.41-11.03,4.41Z"/>
        <path class="cls-45" d="M873.47,165.54c0-12.65-9.94-22.9-22.19-22.9s-22.19,10.25-22.19,22.9c0,11.96,8.08,27.79,19.33,29.47,0,0,0,0,0,0l-2.29,3.68s3.02,1.87,5.16.85c1.33-.63.46-3.15-.74-4.38,12.19-.14,22.93-17.03,22.93-29.62Z"/>
        <path class="cls-23" d="M868.56,181.97c-2.45.79-5.04,1.22-7.72,1.22-14.8,0-27.35-11.68-27.62-26.67-.03-1.63.11-3.24.37-4.81-2.83,3.84-4.51,8.64-4.51,13.83,0,11.96,8.08,27.79,19.33,29.47,0,0,0,0,0,0l-2.29,3.68s3.02,1.87,5.16.85c1.33-.63.46-3.15-.74-4.38,7.12-.08,13.74-5.88,18.02-13.19Z"/>
      </g>
      <path class="cls-22" d="M691.76,371.62c2.97,7.68,1.37,18.29,8.89,23.54,3.91,2.73,8.43,4.55,13.02,5.3,3.16.51,9.3-.28,12.2-2.09,5.47-3.41,4.89-17.74,4.99-23.46.15-8.37-2.4-20.72-10.35-25.15-6.05-3.38-12.51-1.81-19.06-2.53-4.48-.5-14.55-10.24-14.94-3.79-.52,8.68,3,22.37,5.24,28.17Z"/>
      <path class="cls-22" d="M788.08,373.55c-3.27,7.56-2.11,18.22-9.83,23.17-4.02,2.57-8.6,4.21-13.22,4.78-3.18.39-9.28-.65-12.11-2.57-5.33-3.62-4.17-17.92-4.05-23.64.19-8.37,3.23-20.6,11.34-24.71,6.19-3.13,12.58-1.31,19.15-1.77,4.5-.32,14.95-9.65,15.08-3.19.18,8.69-3.9,22.23-6.36,27.94Z"/>
      <path class="cls-22" d="M770.12,360.25c-2.12.5-4.34-.63-5.16-2.72-.89-2.29.24-4.87,2.53-5.76.59-.27,2-1.72,2.85-2.58,1.35-1.38,2.75-2.81,4.35-3.85,5.31-3.44,11.69-6.13,19.5-8.24,6.47-1.75,12.26-1.91,17.85-2.05,2.15-.06,4.34-.12,6.63-.26,8.3-.54,17.9-3.99,19.33-10.31,1-4.38-.48-9.51-3.44-11.93-1.9-1.56-2.19-4.36-.63-6.26,1.56-1.9,4.36-2.18,6.26-.63,5.57,4.55,8.23,13.1,6.48,20.79-2.63,11.57-16.42,16.5-27.44,17.21-2.41.15-4.71.22-6.96.28-5.31.14-10.33.26-15.77,1.75-7,1.89-12.4,4.16-16.99,7.12-.77.5-1.81,1.56-2.82,2.6-1.81,1.85-3.67,3.76-5.99,4.66-.2.08-.4.14-.6.19Z"/>
      <path class="cls-22" d="M707.52,284.23c13.82-11.08,49.89-10.72,65.07.21,16.7,12.02,28.84,63.37,17.52,79.07-11.68,16.2-92.04,15.83-100.29-2.03-9.07-19.66,1.86-64.56,17.69-77.25Z"/>
      <path class="cls-22" d="M704.98,315.87c-28.13-.52-53.41-21.36-61.49-47.84-3.42-11.2,12.38-17.01,17.75-3.77,7.93,19.53,23.8,21.81,43.43,22.17,11.7.22,12,29.65.31,29.44h0Z"/>
      <path class="cls-22" d="M772.46,314.65c27.76,4.62,56.41-11.26,69.18-35.83,5.4-10.39-9.07-18.98-16.77-6.94-11.36,17.76-27.38,17.11-46.74,13.88-11.54-1.92-17.2,26.96-5.67,28.89h0Z"/>
      <path class="cls-28" d="M719.2,281.61c9.15-8.82,32.96-8.63,42.96,0,10.99,9.48,18.87,50.14,11.36,62.61-7.75,12.87-60.8,12.79-66.2-1.34-5.94-15.55,1.4-51.17,11.89-61.27Z"/>
      <g>
        <path class="cls-22" d="M710.97,186.66c-.16,8.16-12.49,19.11-20.66,18.95-8.16-.16-15.38-15.8-15.22-23.96.16-8.16,1.55-10.47,9.71-10.31,8.16.16,26.33,7.16,26.17,15.32Z"/>
        <path class="cls-28" d="M710.24,192.09c-.12,5.89-9.01,13.78-14.9,13.67s-11.09-11.4-10.98-17.28c.12-5.89,1.12-7.55,7-7.44,5.89.12,18.99,5.16,18.87,11.05Z"/>
      </g>
      <g>
        <path class="cls-22" d="M772.38,187.86c-.16,8.16,11.72,19.6,19.88,19.76,8.16.16,16-15.18,16.17-23.34.16-8.16-1.13-10.53-9.29-10.69-8.16-.16-26.6,6.1-26.76,14.27Z"/>
        <path class="cls-28" d="M772.89,193.32c-.12,5.89,8.45,14.13,14.34,14.25,5.89.12,11.54-10.94,11.66-16.83.12-5.89-.81-7.59-6.7-7.71s-19.18,4.4-19.3,10.29Z"/>
      </g>
      <path class="cls-22" d="M701.01,183.43c16.77-12.58,60.59-12.11,79.06.34,20.3,13.7,35.14,72.11,21.41,89.94-14.16,18.39-111.8,17.85-121.84-2.47-11.05-22.37,2.16-73.41,21.37-87.82Z"/>
      <g>
        <path class="cls-28" d="M765.43,259.79c-.25,12.6-11.39,14.78-25.07,14.5-13.68-.27-24.72-2.89-24.47-15.49.25-12.6,11.65-28.05,25.33-27.78,13.68.27,24.45,16.17,24.2,28.77Z"/>
        <path class="cls-22" d="M741.32,226.37c4.3.08,9.96,14.52,8.98,15.55-1.05,1.1-16.3.72-20.05-.14,0,0,6.8-15.49,11.07-15.41Z"/>
        <path class="cls-43" d="M721.51,229.03c-.11,5.47-3.57,9.84-7.73,9.76-4.16-.08-7.44-4.59-7.33-10.06.11-5.47,3.57-9.84,7.72-9.76,4.16.08,7.44,4.58,7.33,10.06Z"/>
        <path d="M714.02,226.74c-3.32-.07-6.16,1.24-7.24,5.14.92,3.95,3.68,6.84,7,6.9,3.32.07,6.19-2.71,7.27-6.62-.92-3.95-3.71-5.36-7.03-5.43Z"/>
        <path d="M731.12,243.83c-2.02-2.29-.58-4.1,3.21-4.02l12.34.25c3.79.08,5.16,1.94,3.04,4.15,0,0-7.75,7.52-9.25,7.49-1.55-.03-9.34-7.86-9.34-7.86Z"/>
        <path class="cls-14" d="M716.08,214.43c-2.56-.94-5.91-.5-7.95,1.34-.95.86-1.55,2.01-1.92,3.22-.17.56,1.88.29,2.07-.32.29-.95.7-1.85,1.38-2.59.15-.16.22-.24.36-.35.07-.06.14-.11.21-.17.03-.02.06-.04.09-.07,0,0,.19-.13.09-.06-.08.05.12-.07.16-.09.08-.05.17-.09.26-.13-.18.09-.04.02.06-.02.07-.03.41-.13.09-.04.15-.04.31-.08.46-.12-.32.09-.03,0,.05,0,.09-.01.17-.03.26-.04.04,0,.09,0,.13-.01,0,0-.21,0-.1.01.07,0,.15-.01.22-.01.16,0,.33,0,.49,0,.14,0-.17-.01.06,0,.07,0,.13,0,.2.01.14.01.28.03.42.05.11.02.23.03.34.05.05,0,.1.02.16.03.2.04-.11-.03.04,0,.24.06.48.11.71.2.45.16,1.06-.02,1.46-.23.23-.13.68-.5.22-.66h0Z"/>
      </g>
      <path class="cls-43" d="M776.97,230.14c-.11,5.47-3.57,9.84-7.73,9.76-4.16-.08-7.44-4.59-7.33-10.06.11-5.47,3.57-9.84,7.72-9.76,4.16.08,7.44,4.58,7.33,10.06Z"/>
      <path d="M769.49,227.85c-3.32-.07-6.16,1.24-7.24,5.14.92,3.95,3.68,6.84,7,6.9,3.32.07,6.19-2.71,7.27-6.62-.92-3.95-3.71-5.36-7.03-5.43Z"/>
      <path class="cls-14" d="M768.71,216.86c-.16.05-.35.1-.1.03.06-.02.12-.03.18-.04-.4.12-.12.03.03,0,.1-.02.2-.03.3-.05-.32.07.04,0,.18-.02.12-.01.24-.02.36-.03-.25.02-.02,0,.05,0,.08,0,.17,0,.25,0,.15,0,.29,0,.44.02.13,0,.03,0,0,0,.04,0,.08,0,.12.01.09.01.18.02.28.04.31.05.62.12.91.21.72.24,1.39.67,1.92,1.21.79.81,1.25,1.89,1.53,2.97.11.41,2.19-.13,2.08-.56-.49-1.89-1.61-3.6-3.5-4.29-1.4-.51-2.94-.5-4.39-.24-.45.08-.89.19-1.33.33-.16.05-.86.3-.63.55s1.12-.07,1.33-.14h0Z"/>
      <path class="cls-28" d="M723.26,270.12c2.66,3.2,5.32,6.39,7.98,9.59.2-1.05.4-2.09.6-3.14,2.67,2.32,5.54,4.41,8.56,6.25-.15-1.5.1-3.03.73-4.4.45,1.03,1.03,2,1.71,2.88.22.28.51.58.87.54.28-.03.49-.28.66-.51,1.01-1.32,2.03-2.64,3.04-3.96-.25,1.12-.11,2.78,1.04,2.8.69.01,1.16-.65,1.54-1.23,1.37-2.08,3.13-3.9,5.17-5.34.51-.36,1.09-.78,1.11-1.41.04-1.1-1.5-1.36-2.59-1.3-4.12.24-8.28-.3-12.19-1.59"/>
      <path class="cls-28" d="M707.19,342.72c1.63,4.78,4.81,9.02,8.95,11.92-.17-.64-.35-1.28-.52-1.93,2.49,1.51,4.98,3.03,7.47,4.54-.25-1-.49-2-.74-3.01,3.58,2.32,7.38,4.31,11.33,5.94-.25-1.23-.07-3.03,1.18-3.04.36,0,.69.17,1,.34.78.43,1.57.85,2.35,1.28.65.35,1.34.71,2.07.65.65-.06,1.22-.44,1.76-.81,1.72-1.19,3.45-2.37,5.17-3.56.04,1.09.07,2.18.11,3.27,3.11-.89,6.12-2.12,8.98-3.65.02.94.04,1.89.05,2.83,2.76-1.25,5.35-2.89,7.66-4.86.05,1.33.09,2.65.14,3.98,3.49-3.25,6.44-7.08,8.7-11.29.97-1.81,1.77-4.18.49-5.78-1.04-1.29-2.93-1.41-4.59-1.38-3.95.08-7.9.43-11.81,1.03"/>
      <path class="cls-28" d="M725.78,399.94c-8.19,2.12-14.69.44-22.83-1.87-.8-.23-1.6-.49-2.24-1.02-1.91-1.58-1.33-4.87.51-6.54,1.83-1.67,4.42-2.15,6.87-2.57,4.01-.68,8.13-1.37,12.12-.54s7.84,3.55,8.79,7.51c0,0,2.16,3.64-3.21,5.03Z"/>
      <path class="cls-28" d="M776.12,401.76c-8.19,2.12-14.69.44-22.83-1.87-.8-.23-1.6-.49-2.24-1.02-1.91-1.58-1.33-4.87.51-6.54,1.83-1.67,4.42-2.15,6.87-2.57,4.01-.68,8.13-1.37,12.12-.54,3.98.83,7.84,3.55,8.79,7.51,0,0,2.16,3.64-3.21,5.03Z"/>
      <path d="M717.11,203.76s16.62-1.65,24.86,7.27c0,0,10.58-8.61,24.26-6.18,0,0-7.15-7.91-23.92.17,0,0-12.91-10.07-25.2-1.25Z"/>
      <path d="M712.4,193.74s20.06-3.65,29.98,7.09c0,0,11.32-10.16,27.79-7.23,0,0-7.19-9.5-27.39.23,0,0-15.58-10.71-30.38-.09Z"/>
      <path d="M712.61,182.94s20.06-3.65,29.98,7.09c0,0,11.32-10.16,27.79-7.23,0,0-7.19-9.5-27.39.23,0,0-15.58-10.71-30.38-.09Z"/>
      <path d="M678.79,225.12s8.32,17.31,21.56,22.66c0,0-16.33.76-23.84-10.63,0,0-.53-6.56,2.27-12.03Z"/>
      <path d="M675.51,254.37s14.04,6.96,27.85,3.32c0,0-13.6,10.19-26.44,5.56,0,0-.94-2.77-1.41-8.88Z"/>
      <path d="M803.69,227.83s-8.38,16.63-21.82,21.45c0,0,16.29,1.41,24.24-9.67,0,0,.16-6.2-2.42-11.77Z"/>
      <path d="M806.73,256.85s-14.31,6.4-27.96,2.21c0,0,13.46,10.69,26.47,6.58,0,0,.77-2.69,1.49-8.78Z"/>
      <polygon class="cls-43" points="717.74 225.9 714.99 232.11 720.46 227.62 717.74 225.9"/>
      <polygon class="cls-43" points="773.03 227.75 770.27 233.96 775.75 229.47 773.03 227.75"/>
      <path d="M678.28,194.09s-.54-12.79,1.61-17.05c0,0,7.57-3.47,15.27-3.51,0,0-5.95-4.45-18.71-1.31,0,0-6.26,8.53,1.84,21.87Z"/>
      <path d="M804.8,196.22s1.05-12.76-.93-17.1c0,0-7.43-3.77-15.11-4.12,0,0,6.12-4.21,18.75-.56,0,0,5.91,8.78-2.71,21.77Z"/>
      <path class="cls-14" d="M705.15,227.88c-1.7-.13-3.4-.26-5.1-.39-.48-.04-1.07.14-1.47.39-.09.06-.28.17-.25.3s.27.13.36.14c1.7.13,3.4.26,5.1.39.48.04,1.07-.14,1.47-.39.09-.06.28-.17.25-.3s-.27-.13-.36-.14h0Z"/>
      <path class="cls-14" d="M784.79,229.33c-1.7-.13-3.4-.26-5.1-.39-.48-.04-1.07.14-1.47.39-.09.06-.28.17-.25.3s.27.13.36.14c1.7.13,3.4.26,5.1.39.48.04,1.07-.14,1.47-.39.09-.06.28-.17.25-.3s-.27-.13-.36-.14h0Z"/>
      <path d="M695.39,286.14s-6.25,5.64-7.98,12.64c0,0-3.84-3.63-.91-13.9l8.9,1.27Z"/>
      <path d="M683.89,283.98s-7.32,4.16-10.52,10.62c0,0-2.97-4.37,2.1-13.77l8.42,3.15Z"/>
      <path d="M672.75,278.9s-8.29,1.48-13.46,6.51c0,0-1.34-5.11,6.57-12.29l6.88,5.78Z"/>
      <circle class="cls-28" cx="652.58" cy="268.61" r="4.75"/>
      <circle class="cls-28" cx="645.89" cy="264.8" r="2.02"/>
      <circle class="cls-28" cx="650.01" cy="260.84" r="2.02"/>
      <circle class="cls-28" cx="655.61" cy="261.29" r="2.02"/>
      <path d="M786.29,286.98s5.19,6.63,5.7,13.82c0,0,4.4-2.92,3.28-13.54l-8.98-.28Z"/>
      <path d="M798.55,287.33s6.5,5.35,8.54,12.27c0,0,3.67-3.8.29-13.93l-8.83,1.66Z"/>
      <path d="M810.16,284.82s7.91,2.88,12.14,8.72c0,0,2.2-4.8-4.37-13.23l-7.77,4.51Z"/>
      <circle class="cls-28" cx="831.79" cy="278.13" r="4.75"/>
      <circle class="cls-28" cx="839.03" cy="275.53" r="2.02"/>
      <circle class="cls-28" cx="835.66" cy="270.92" r="2.02"/>
      <circle class="cls-28" cx="830.06" cy="270.41" r="2.02"/>
      <path d="M687.9,357.98c7.79-2.59,13.41-8.07,13.41-8.07-4.97,2.03-10.17,2.58-14.72,2.47.36,1.95.79,3.83,1.31,5.6Z"/>
      <path d="M694.92,386.19c7.79-2.59,13.41-8.07,13.41-8.07-4.97,2.03-10.17,2.58-14.72,2.47.36,1.95.79,3.83,1.31,5.6Z"/>
      <path d="M783.84,389.01c-7.68-2.9-13.08-8.6-13.08-8.6,4.89,2.23,10.06,2.99,14.61,3.06-.44,1.94-.95,3.79-1.53,5.54Z"/>
      <path d="M688.33,322.82c8.09,1.37,15.63-.82,15.63-.82-5.34-.54-10.19-2.5-14.16-4.74-.6,1.89-1.1,3.75-1.48,5.56Z"/>
      <path d="M686.59,339.82c8.21-.06,15.25-3.54,15.25-3.54-5.36.4-10.47-.68-14.77-2.19-.26,1.97-.42,3.88-.48,5.73Z"/>
      <path d="M792.7,359.45c-7.68-2.9-13.08-8.6-13.08-8.6,4.89,2.23,10.06,2.99,14.61,3.06-.44,1.94-.95,3.79-1.53,5.54Z"/>
      <path d="M793.67,324.3c-8.14,1.05-15.59-1.45-15.59-1.45,5.36-.33,10.28-2.09,14.33-4.17.53,1.92.95,3.79,1.25,5.61Z"/>
      <path d="M794.73,341.36c-8.2-.39-15.09-4.15-15.09-4.15,5.34.61,10.49-.26,14.84-1.6.18,1.98.27,3.9.25,5.75Z"/>
      <g class="cls-35">
        <rect x="802.38" y="331.14" width="10.74" height="15.15" transform="translate(-28.24 77.35) rotate(-5.39)"/>
        <rect x="821.68" y="329.32" width="10.74" height="15.15" transform="translate(-60.71 239.99) rotate(-15.93)"/>
        <rect x="836.15" y="318.03" width="10.74" height="15.15" transform="translate(247.72 1005.01) rotate(-70)"/>
        <rect x="832.26" y="300.14" width="10.74" height="15.15" transform="translate(972.34 1189.85) rotate(-118.85)"/>
      </g>
      <path class="cls-78" d="M730.67,260.27s1.52,8.59,9.79,9.02c8.28.43,10.72-8.1,10.72-8.1,0,0-9.41-.12-10.36-3.25,0,0-3.2,3.29-10.15,2.32Z"/>
      <path class="cls-70" d="M710.67,177.66l12.73-43.27,23.3,40.07s-21.62,14.75-36.03,3.19Z"/>
      <path class="cls-17" d="M718.59,150.18s4.81,2.06,14.38.69l2.49,4.28s-8.01,3.88-18.38.07l1.51-5.04Z"/>
      <path class="cls-17" d="M714.76,163.98s17.06,3.69,25.29-.95l2.52,4.34s-13.64,8.53-29.32,1.65l1.51-5.04Z"/>
      <path d="M740.11,257.97c.12-.12-.02.02-.12.1-.2.17-.4.33-.61.48-.6.45-1.25.84-1.94,1.15-2.1.94-4.39.81-6.35-.44-1.82-1.17-3.14-2.96-4.18-4.82-.26-.46-1.75.09-1.56.42,1.74,3.09,4.35,6.03,8.13,6.23,2.43.13,4.81-.78,6.78-2.14.45-.31.89-.65,1.28-1.03.27-.26-.23-.36-.4-.36-.37,0-.77.15-1.04.4h0Z"/>
      <path d="M755.97,255.06c-1.64,2.27-3.75,4.61-6.57,5.32-1.66.42-3.41.12-4.93-.63-1.02-.5-1.89-1.21-2.71-1.92-.04-.03-.15-.19-.19-.2.09,0,0,.4.05.09.12-.64.03-1.4.04-2.05.03-1.61.06-3.22.1-4.83.02-.78-1.56-.53-1.58.13-.03,1.56-.06,3.12-.09,4.68-.01.74-.1,1.51-.04,2.25.02.31.09.39.28.6,2.25,2.37,5.73,3.62,8.95,2.97,3.4-.69,6.03-3.29,7.99-6,.57-.79-.9-.97-1.3-.42h0Z"/>
      <g>
        <g>
          <polygon class="cls-57" points="867.56 271.24 859.1 276.71 820.01 238.77 830.06 233.3 867.56 233.3 867.56 271.24"/>
          <rect class="cls-11" x="820.01" y="238.77" width="39.09" height="37.94"/>
        </g>
        <g>
          <polygon class="cls-13" points="819.86 237.53 829.91 232.05 867.4 232.05 858.95 237.53 819.86 237.53"/>
          <polygon class="cls-46" points="869.26 240.39 860.22 245.86 818.39 237.53 829.14 232.05 869.26 232.05 869.26 240.39"/>
          <polygon class="cls-11" points="818.39 237.53 829.14 232.05 869.26 232.05 860.22 237.53 818.39 237.53"/>
          <rect class="cls-6" x="818.39" y="237.53" width="41.83" height="8.33"/>
        </g>
        <rect class="cls-20" x="835.63" y="245.86" width="6.55" height="30.85"/>
        <polygon class="cls-51" points="841.41 245.75 834.36 245.75 834.36 237.53 844.08 232.05 850.99 232.03 841.39 237.56 841.41 245.75"/>
        <polygon class="cls-71" points="834.36 237.53 844.08 232.05 850.99 232.03 841.39 237.56 834.36 237.53"/>
        <polygon class="cls-32" points="862.38 244.55 862.38 274.59 865.05 272.86 865.05 242.59 862.38 244.55"/>
        <polygon class="cls-32" points="863.12 235.77 863.12 243.88 865.79 242.15 865.79 234.15 863.12 235.77"/>
        <polygon class="cls-51" points="863.12 235.77 821.86 235.76 825.01 234.15 865.79 234.15 863.12 235.77"/>
      </g>
      <g>
        <polygon class="cls-12" points="893.9 387.3 885.85 392.52 816.52 370.03 826.09 364.81 893.9 364.81 893.9 387.3"/>
        <rect class="cls-69" x="816.52" y="370.03" width="69.33" height="22.49"/>
        <polygon class="cls-82" points="895.52 371.57 886.9 376.78 814.97 368.84 825.21 363.63 895.52 363.63 895.52 371.57"/>
        <polygon class="cls-52" points="814.97 368.84 825.21 363.63 895.52 363.63 886.9 368.84 814.97 368.84"/>
        <rect class="cls-12" x="814.97" y="368.84" width="71.94" height="7.94"/>
      </g>
      <g>
        <polygon class="cls-53" points="885.94 363.08 881.15 367.3 839.96 345.81 845.64 342.59 885.94 342.59 885.94 363.08"/>
        <rect class="cls-49" x="839.96" y="345.81" width="41.2" height="21.49"/>
        <polygon class="cls-74" points="886.9 349.35 881.78 352.56 839.03 344.62 845.12 341.4 886.9 341.4 886.9 349.35"/>
        <polygon class="cls-49" points="839.03 344.62 845.12 341.4 886.9 341.4 881.78 344.62 839.03 344.62"/>
        <rect class="cls-53" x="839.03" y="344.62" width="42.75" height="7.94"/>
      </g>
      <g>
        <path class="cls-75" d="M628.49,215.1c-21.5,0-38.93,4.32-38.93,9.64,0,.19.03.37.07.55,0,0,3.3,27.86,3.83,32.44.04.39.07.61.07.63,0,5.32,15.86,9.64,35.41,9.64s35.41-4.32,35.41-9.64l3.08-33.62c0-5.32-17.43-9.64-38.93-9.64Z"/>
        <path class="cls-72" d="M665.33,244.01c-3.63,4.68-17.7,9.12-36.72,9.12-17.92,0-31.45-3.94-35.99-8.31l.39,3.9c7.21,4.88,21.71,7.46,35.59,7.46s29.5-2.78,36.39-8.03l.32-4.14Z"/>
        <path class="cls-16" d="M589.29,224.72s-.63,10.98,2.62,9.68c3.25-1.3,3.95,4.99,6.96,4.7,3.01-.29,2.61-2.46,6.06-.94,3.45,1.52,4.1,3.92,9.23.95,5.13-2.97,5.2.79,7.15,1.87,1.95,1.08,6.71.96,9.47-2.24,2.76-3.2,5.35,2.02,8.24,1.59,2.89-.43,3.97-4.26,6.43-3.25,2.46,1.01,4.84,2.96,7.37.51,2.53-2.46,3.25-3.76,6.21-2.75,2.96,1.01,4.62-.94,5.06-2.75.43-1.81,1.08.8,2.64.15,1.55-.65,2.13-8.53,0-9.9-2.13-1.37-14.7,6.14-14.7,6.14l-15.54,3.76-23.41-1.45-23.79-6.06Z"/>
        <ellipse class="cls-18" cx="628.53" cy="224.46" rx="39.26" ry="11.16"/>
        <path class="cls-75" d="M628.49,189.62c-16.36,0-29.62,3.28-29.62,7.33,0,.14.02.28.05.42l3.03,24.65c-.04.17-.07.34-.07.51,0,4.05,12.06,7.33,26.94,7.33s26.94-3.28,26.94-7.33l2.34-25.58c0-4.05-13.26-7.33-29.62-7.33Z"/>
        <path class="cls-72" d="M656.73,210.78c-2.77,3.57-13.51,6.96-28.03,6.96-13.68,0-24.01-3.01-27.48-6.34l.3,2.98c5.51,3.73,16.58,5.69,27.18,5.69s22.53-2.12,27.79-6.13l.25-3.16Z"/>
        <path class="cls-16" d="M598.88,196.46s-1.95,8.38,2.32,7.89c2.61-.3,2.96,3.74,5.22,3.52,2.26-.22,1.96-1.84,4.55-.7,2.59,1.14,3.08,2.94,6.92.71,3.85-2.23,3.9.59,5.37,1.4,1.46.81,5.03.72,7.1-1.68,2.07-2.4,4.01,1.52,6.18,1.19,2.17-.33,2.98-3.2,4.82-2.44,1.84.76,3.63,2.22,5.53.38s2.44-2.82,4.66-2.06c2.22.76,3.47-.7,3.79-2.06s.81.6,1.98.11,1.6-6.4,0-7.43c-1.6-1.03-11.03,4.61-11.03,4.61l-11.65,2.82-17.56-1.08-18.2-5.18Z"/>
        <ellipse class="cls-18" cx="628.49" cy="196.96" rx="29.62" ry="7.33"/>
        <path class="cls-25" d="M602.25,194.02c0,2.43,1.51,2.54,3.37,2.54s3.37-.11,3.37-2.54-1.51-4.4-3.37-4.4-3.37,1.97-3.37,4.4Z"/>
        <path class="cls-25" d="M615.54,199.57c0,2.43,1.51,2.54,3.37,2.54s3.37-.11,3.37-2.54-1.51-4.4-3.37-4.4-3.37,1.97-3.37,4.4Z"/>
        <path class="cls-25" d="M633.32,199.57c0,2.43,1.51,2.54,3.37,2.54s3.37-.11,3.37-2.54-1.51-4.4-3.37-4.4-3.37,1.97-3.37,4.4Z"/>
        <path class="cls-25" d="M648.5,195.23c0,2.43,1.51,2.54,3.37,2.54s3.37-.11,3.37-2.54-1.51-4.4-3.37-4.4-3.37,1.97-3.37,4.4Z"/>
        <path class="cls-25" d="M615.54,190.55c0,2.43,1.51,2.54,3.37,2.54s3.37-.11,3.37-2.54-1.51-4.4-3.37-4.4-3.37,1.97-3.37,4.4Z"/>
        <path class="cls-25" d="M634.38,190.55c0,2.43,1.51,2.54,3.37,2.54s3.37-.11,3.37-2.54-1.51-4.4-3.37-4.4-3.37,1.97-3.37,4.4Z"/>
        <g>
          <path class="cls-42" d="M631.07,195.34c0,.56-3.64.56-3.64,0v-16.5c0-.56.44-1.01.98-1.01h1.68c.54,0,.98.45.98,1.01v16.5Z"/>
          <polygon class="cls-51" points="631.07 192.81 627.43 191.06 627.43 193.41 631.07 195.16 631.07 192.81"/>
          <polygon class="cls-51" points="631.07 186.83 627.43 185.08 627.43 187.43 631.07 189.18 631.07 186.83"/>
          <polygon class="cls-51" points="631.07 180.85 627.43 179.1 627.43 181.45 631.07 183.2 631.07 180.85"/>
        </g>
        <g>
          <path class="cls-42" d="M624.85,193.58c.01.56-3.62.65-3.64.1l-.43-16.5c-.01-.56.41-1.02.95-1.03l1.68-.04c.54-.01.99.43,1.01.98l.43,16.5Z"/>
          <polygon class="cls-51" points="624.78 191.05 621.1 189.4 621.16 191.74 624.84 193.4 624.78 191.05"/>
          <polygon class="cls-51" points="624.62 185.07 620.94 183.42 621 185.76 624.69 187.42 624.62 185.07"/>
          <polygon class="cls-51" points="624.47 179.1 620.78 177.44 620.85 179.79 624.53 181.44 624.47 179.1"/>
        </g>
        <g>
          <path class="cls-42" d="M636.83,193.11c-.03.56-3.66.38-3.63-.17l.79-16.48c.03-.56.49-.99,1.03-.96l1.68.08c.54.03.96.5.93,1.05l-.79,16.48Z"/>
          <polygon class="cls-51" points="636.95 190.58 633.4 188.66 633.29 191 636.84 192.92 636.95 190.58"/>
          <polygon class="cls-51" points="637.24 184.61 633.69 182.69 633.58 185.03 637.13 186.95 637.24 184.61"/>
          <polygon class="cls-51" points="637.53 178.64 633.98 176.71 633.87 179.06 637.41 180.98 637.53 178.64"/>
        </g>
        <g>
          <path class="cls-64" d="M622.9,175.22s-4.67-.2-.42-7.27c0,0,4.53,4.62.42,7.27Z"/>
          <path class="cls-63" d="M622.82,175.16s-3.16-.13-.28-4.91c0,0,3.06,3.12.28,4.91Z"/>
        </g>
        <g>
          <path class="cls-64" d="M629.49,177.09s-4.67-.2-.42-7.27c0,0,4.53,4.62.42,7.27Z"/>
          <path class="cls-63" d="M629.41,177.03s-3.16-.13-.28-4.91c0,0,3.06,3.12.28,4.91Z"/>
        </g>
        <g>
          <path class="cls-64" d="M635.38,174.57s-4.67-.2-.42-7.27c0,0,4.53,4.62.42,7.27Z"/>
          <path class="cls-63" d="M635.3,174.51s-3.16-.13-.28-4.91c0,0,3.06,3.12.28,4.91Z"/>
        </g>
      </g>
      <path class="cls-43" d="M877.55,113.79s8.63,8.36,8.06,18.14c0,0,3.39-14.83-8.06-18.14Z"/>
      <path class="cls-43" d="M860.25,149.46s8.63,8.36,8.06,18.14c0,0,3.39-14.83-8.06-18.14Z"/>
    </g>
  </g>
</svg>