<?xml version="1.0" encoding="UTF-8"?>
<svg xmlns="http://www.w3.org/2000/svg" xmlns:xlink="http://www.w3.org/1999/xlink" viewBox="0 0 1334 1000">
  <defs>
    <style>
      .cls-1 {
        fill: none;
      }

      .cls-2 {
        fill: #122e1d;
      }

      .cls-3 {
        fill: #273339;
      }

      .cls-4 {
        fill: #1d4824;
      }

      .cls-5 {
        fill: #010101;
      }

      .cls-6 {
        fill: #2a5d8f;
      }

      .cls-7 {
        fill: #af4127;
      }

      .cls-8 {
        fill: #4c1815;
      }

      .cls-9 {
        fill: #b27b54;
      }

      .cls-9, .cls-10, .cls-11 {
        stroke: #020202;
        stroke-miterlimit: 10;
        stroke-width: .2px;
      }

      .cls-12 {
        fill: #231f20;
      }

      .cls-13 {
        fill: #066334;
      }

      .cls-14 {
        fill: #e0e0df;
      }

      .cls-15 {
        fill: #27153c;
      }

      .cls-16 {
        fill: #75471e;
      }

      .cls-17 {
        fill: #8e3923;
      }

      .cls-18 {
        mix-blend-mode: multiply;
        opacity: .5;
      }

      .cls-18, .cls-19 {
        fill: #88b546;
      }

      .cls-20 {
        isolation: isolate;
      }

      .cls-21 {
        fill: #d7a86f;
      }

      .cls-22 {
        fill: #f1ece1;
      }

      .cls-23 {
        fill: url(#linear-gradient);
        opacity: .72;
      }

      .cls-10 {
        fill: #aa6c42;
      }

      .cls-24 {
        fill: #020202;
      }

      .cls-25 {
        fill: #fff;
      }

      .cls-26 {
        fill: #876756;
      }

      .cls-27 {
        fill: #f2a06c;
      }

      .cls-28 {
        fill: #d2edf3;
      }

      .cls-29 {
        fill: #fbf1d4;
      }

      .cls-30 {
        fill: #4f2f26;
      }

      .cls-31 {
        fill: #24582c;
      }

      .cls-32 {
        fill: #9a5b45;
      }

      .cls-11 {
        fill: #774a29;
      }

      .cls-33 {
        fill: #fbb217;
      }

      .cls-34 {
        fill: #bc2328;
      }

      .cls-35 {
        clip-path: url(#clippath);
      }

      .cls-36 {
        fill: #3b2416;
      }

      .cls-37 {
        fill: #161312;
      }
    </style>
    <linearGradient id="linear-gradient" x1="-1599.49" y1="3899" x2="-682.41" y2="3899" gradientTransform="translate(-3272.19 1551.16) rotate(90) scale(1 -1)" gradientUnits="userSpaceOnUse">
      <stop offset="0" stop-color="#f1ece1"/>
      <stop offset=".18" stop-color="#efe9de" stop-opacity=".99"/>
      <stop offset=".33" stop-color="#e9e1d5" stop-opacity=".97"/>
      <stop offset=".46" stop-color="#dfd5c6" stop-opacity=".94"/>
      <stop offset=".59" stop-color="#d0c3b1" stop-opacity=".88"/>
      <stop offset=".72" stop-color="#beab95" stop-opacity=".82"/>
      <stop offset=".84" stop-color="#a78f74" stop-opacity=".74"/>
      <stop offset=".95" stop-color="#8d6d4d" stop-opacity=".64"/>
      <stop offset="1" stop-color="#825f3c" stop-opacity=".6"/>
    </linearGradient>
    <clipPath id="clippath">
      <path class="cls-1" d="M574.17,118.24l123.62,417.87c3.68,12.66.63,33.95-11.82,37.57-.49.14-53.33,15.56-53.83,15.67l-249.44,63.18L247.75,190.08l292.45-89.28c13.35-5.01,25.62-6.72,30.68,6.87.23.62,3.1,9.92,3.29,10.56Z"/>
    </clipPath>
  </defs>
  <g class="cls-20">
    <g id="Layer_3" data-name="Layer 3">
      <polyline class="cls-22" points="-39.39 1024.32 -39.39 -34.12 1345.28 -34.12 1345.28 1024.32"/>
      <polyline class="cls-23" points="1345.28 865.72 -91.67 865.72 -91.68 -51.36 1345.28 -51.36"/>
      <path class="cls-11" d="M251.29,541.65l404.74-68.36,404.74,68.36-404.74,78.13-404.74-78.13Z"/>
    </g>
    <g id="Layer_1" data-name="Layer 1">
      <path class="cls-17" d="M475.46,327.02c-5.35-1.58-10.59-3.65-15.73-5.83-11.24-4.77-22.17-10.56-31.96-17.9-11.22-8.41-20.07-19.49-28.22-30.82-2.19-3.05-4.34-6.18-6.12-9.5-.59-1.1-1.33-2.34-1.57-3.58-.07-.38-.11-.03.1-.38.77-1.3,1.47-2.65,2.2-3.97,2.01-3.62,4.02-7.24,6.02-10.85.14-.26.28-.51.43-.77l-2.1.56c4.39,5.86,9.31,11.38,14.32,16.71,10.73,11.43,22.51,22.07,35.65,30.68,7.8,5.11,16.14,9.5,25.03,12.38.47.15,1.11.04,1.53-.23.22-.14.73-.58.22-.75-15.96-5.17-30.12-15.01-42.72-25.88-9.83-8.48-18.92-17.85-27.25-27.81-1.62-1.94-3.24-3.9-4.75-5.92-.42-.56-1.85.11-2.1.56-1.61,2.9-3.22,5.8-4.83,8.7l-3.09,5.56c-.27.49-.87,1.19-.9,1.77-.04.75.62,1.79.92,2.43,1.29,2.72,2.95,5.27,4.63,7.76,3.56,5.28,7.5,10.3,11.52,15.23,4.65,5.7,9.4,11.12,15.08,15.82,9.68,8.01,20.78,14.27,32.2,19.43,6.29,2.84,12.77,5.51,19.4,7.48.1.03.2.06.3.09.48.14,1.11.04,1.53-.23.21-.13.73-.59.22-.75h0Z"/>
      <g>
        <path class="cls-30" d="M350.28,549.87c.13-.14.73-.17.75-.22-.02.04-.11-.07-.09-.03-.05-.09-.37-.23-.46-.29-.43-.32-.8-.72-1.16-1.11-1.16-1.27-2.17-2.69-3.1-4.14-3.03-4.72-5.25-9.98-6.79-15.36-3.78-13.18-3.39-27.73,1.76-40.5.85-2.11,1.83-4.2,3.05-6.12.38-.59.77-1.19,1.25-1.71.12-.13.35-.3.42-.42.06-.1.11-.05.09-.07-.06-.04-.52.07-.57.03.46.35,1.8-.31,1.16-.8-1.91-1.46-4.72,4.48-5.18,5.39-2.87,5.65-4.59,11.94-5.43,18.21-1.92,14.38,1.06,29.92,9.01,42.17.69,1.06,4.5,7.46,6.51,5.32.62-.66-.81-.78-1.22-.35h0Z"/>
        <path class="cls-6" d="M539.88,535.7c-15.17,3.22-30.33,6.43-45.5,9.65-3.24-47.99-11.64-95.62-25-141.82,15-4.7,29.99-9.39,44.99-14.09,1.51-.47,3.28-.91,4.58-.01.81.56,1.23,1.52,1.62,2.42,18.41,43.76,30.81,90.04,36.75,137.14"/>
        <path class="cls-15" d="M539.77,535.29c-15.17,3.22-30.33,6.43-45.5,9.65l1.07.15c-1.27-18.7-3.31-37.34-6.12-55.87-2.82-18.53-6.41-36.94-10.76-55.16-2.46-10.33-5.18-20.59-8.12-30.79l-.85.67c13.26-4.15,26.52-8.3,39.78-12.45,1.66-.52,3.31-1.04,4.97-1.56s3.41-.99,4.58.64c.86,1.2,1.33,2.84,1.88,4.2.58,1.43,1.15,2.87,1.71,4.31,2.23,5.8,4.24,11.69,6.05,17.63,7.36,24.25,11.28,49.49,12.55,74.77.74,14.6.58,29.23-.36,43.81-.04.68,1.88.28,1.92-.28,1.7-26.32.88-52.86-3.17-78.94-2-12.89-4.8-25.66-8.5-38.17-1.81-6.11-3.83-12.15-6.09-18.1-1.12-2.97-2.2-6.03-3.58-8.89-1.18-2.45-3.32-2.8-5.8-2.21-3.91.93-7.76,2.39-11.59,3.59s-7.58,2.37-11.37,3.56c-7.74,2.42-15.47,4.84-23.21,7.27-.22.07-.96.3-.85.67,5.2,18,9.66,36.22,13.35,54.59s6.61,36.9,8.76,55.52c1.22,10.55,2.18,21.12,2.9,31.71.03.37.93.18,1.07.15,15.17-3.22,30.33-6.43,45.5-9.65,1.16-.25.93-1.07-.22-.82h0Z"/>
        <path class="cls-15" d="M496.36,528.23c14.53-2.26,28.78-6.11,42.46-11.49,1.26-.49.1-1.03-.74-.7-13.35,5.25-27.26,9.01-41.43,11.22-.88.14-1.63,1.18-.29.97h0Z"/>
        <path class="cls-15" d="M492.81,495.18c8.81-1.09,17.54-2.66,26.18-4.72,4.35-1.04,8.67-2.2,12.95-3.49,3.09-.93,6.42-1.91,8.47-4.57.2-.26-.71-.16-.76-.15-.37.06-.89.19-1.14.51-2.23,2.9-6.39,3.6-9.7,4.55-3.76,1.08-7.55,2.06-11.36,2.94-7.85,1.82-15.79,3.22-23.78,4.21-.3.04-1.15.14-1.29.45s.11.32.45.28h0Z"/>
        <path class="cls-15" d="M489.36,468.44c15.78-3.58,30.83-12.3,47.4-11.5.39.02,1.08-.04,1.36-.37.2-.23.33-.49-.14-.51-17.15-.83-32.51,7.96-48.82,11.66-.2.04-.98.3-.87.62s.85.15,1.06.1h0Z"/>
        <path class="cls-15" d="M483.67,442.66c8.58-3.18,17.16-6.36,25.74-9.55,7.17-2.66,15.67-6.1,23.06-2.28.85.44,2.2-.8,1.09-1.37-7.36-3.81-15.91-.97-23.14,1.71-9.04,3.35-18.09,6.71-27.13,10.06-1.14.42-.8,1.86.38,1.42h0Z"/>
        <path class="cls-15" d="M477.1,419.43c7.95-3.25,15.97-6.35,24.06-9.26,3.84-1.39,7.69-2.85,11.61-4s7.87-1.78,11.6-.06c.83.38,2.23-.81,1.11-1.33-3.54-1.63-7.46-1.37-11.16-.49-4.29,1.02-8.47,2.7-12.61,4.18-8.56,3.07-17.05,6.34-25.47,9.78-1.22.5-.14,1.59.86,1.18h0Z"/>
        <path class="cls-30" d="M363.84,522.5c-1.54-5.02-1.22-10.43.89-15.24,5.15-12.31,19.1-24.32,36.45-32.34,14.89-6.41,30.68-10.47,46.81-12.03,6.57-1.21,13.28-1.49,19.92-.82-6.21,2.24-12.66,3.75-19.22,4.48-15.56,2.56-30.75,6.95-45.28,13.08-16.5,7.56-29.97,18.76-35.2,29.14-2.11,4.09-2.9,8.72-2.28,13.28.47,3.24,1.17,4.88,1.09,5.16-.34.14-1.85-1.21-3.19-4.71Z"/>
        <path class="cls-30" d="M431.82,443.47c13.03-12.53,24.39-21.85,25.33-20.8.94,1.05-8.77,12.06-21.79,24.54-13.01,12.47-24.32,21.82-25.31,20.74-.96-1,8.74-11.95,21.77-24.48Z"/>
        <path class="cls-30" d="M474.49,414.29c.39,16.75,7,28.62,6.09,29.66-.91,1.04-10.55-11.07-11.22-29.46-.68-18.39,8.33-31.22,9.3-30.28,1.41.66-4.56,13.32-4.17,30.07Z"/>
        <path class="cls-8" d="M349.76,401.88c1.63-22.07,2.58-44.19,2.85-66.32.27-22.05-.14-44.1-1.22-66.13-.61-12.46-1.44-24.9-2.48-37.33-.02-.29-1.64,0-1.61.43,1.85,22.06,3.03,44.17,3.52,66.29.49,22.04.31,44.1-.56,66.14-.49,12.46-1.19,24.91-2.11,37.35-.02.22,1.57.05,1.61-.43h0Z"/>
        <path class="cls-4" d="M648.78,67.21l141.38,487.57c4.09,14.06-3.8,28.71-17.61,32.73-.55.16-1.1.3-1.65.42l-364.24,86.01-140.48-496.63L611.07,47.86c14.82-5.56,31.39,2.16,37.01,17.25.26.69.49,1.39.7,2.11Z"/>
        <polygon class="cls-14" points="578.25 58.28 626.21 54.77 771.29 555.1 774.29 565.44 737.71 575.99 578.25 58.28"/>
        <path class="cls-3" d="M618.75,56.1c1.34,4.56,2.68,9.13,4.02,13.69,3.63,12.37,7.26,24.74,10.88,37.11,5.36,18.28,10.72,36.56,16.09,54.84,6.56,22.38,13.13,44.76,19.69,67.14,7.17,24.43,14.33,48.87,21.5,73.3,7.23,24.66,14.47,49.33,21.7,73.99,6.77,23.07,13.53,46.14,20.3,69.21,5.7,19.43,11.4,38.86,17.1,58.29,4.1,13.98,8.2,27.95,12.3,41.93,1.94,6.62,3.62,13.39,5.84,19.92.09.28.17.56.25.84.08.26.68.09.6-.16-1.34-4.56-2.68-9.13-4.02-13.69-3.63-12.37-7.26-24.74-10.88-37.11-5.36-18.28-10.72-36.56-16.09-54.84-6.56-22.38-13.13-44.76-19.69-67.14-7.17-24.43-14.33-48.87-21.5-73.3-7.23-24.66-14.47-49.33-21.7-73.99-6.77-23.07-13.53-46.14-20.3-69.21-5.7-19.43-11.4-38.86-17.1-58.29-4.1-13.98-8.2-27.95-12.3-41.93-1.94-6.62-3.62-13.39-5.84-19.92-.09-.28-.17-.56-.25-.84-.08-.26-.68-.09-.6.16h0Z"/>
        <path class="cls-3" d="M611.8,57.22c1.37,4.61,2.74,9.21,4.12,13.82l11.2,37.61c5.52,18.54,11.05,37.08,16.57,55.62,6.74,22.62,13.48,45.24,20.22,67.86,7.36,24.69,14.71,49.38,22.07,74.07,7.45,25,14.9,50,22.34,75,6.92,23.24,13.84,46.47,20.77,69.71,5.87,19.7,11.74,39.41,17.61,59.11,4.22,14.16,8.44,28.33,12.66,42.49,1.98,6.64,3.54,13.62,5.99,20.1.1.27.17.57.25.85.05.16.65,0,.6-.16-1.37-4.61-2.74-9.21-4.12-13.82-3.73-12.54-7.47-25.07-11.2-37.61-5.52-18.54-11.05-37.08-16.57-55.62-6.74-22.62-13.48-45.24-20.22-67.86-7.36-24.69-14.71-49.38-22.07-74.07-7.45-25-14.9-50-22.34-75-6.92-23.24-13.84-46.47-20.77-69.71-5.87-19.7-11.74-39.41-17.61-59.11-4.22-14.16-8.44-28.33-12.66-42.49-1.98-6.64-3.54-13.62-5.99-20.1-.1-.27-.17-.57-.25-.85-.05-.16-.65,0-.6.16h0Z"/>
        <path class="cls-3" d="M602.46,57.22c1.37,4.61,2.74,9.21,4.12,13.82,3.73,12.54,7.47,25.07,11.2,37.61,5.52,18.54,11.05,37.08,16.57,55.62,6.74,22.62,13.48,45.24,20.22,67.86,7.36,24.69,14.71,49.38,22.07,74.07,7.45,25,14.9,50,22.34,75,6.92,23.24,13.84,46.47,20.77,69.71,5.87,19.7,11.74,39.41,17.61,59.11,4.22,14.16,8.44,28.33,12.66,42.49,1.98,6.64,3.54,13.62,5.99,20.1.1.27.17.57.25.85.05.16.65,0,.6-.16-1.37-4.61-2.74-9.21-4.12-13.82-3.73-12.54-7.47-25.07-11.2-37.61-5.52-18.54-11.05-37.08-16.57-55.62-6.74-22.62-13.48-45.24-20.22-67.86-7.36-24.69-14.71-49.38-22.07-74.07-7.45-25-14.9-50-22.34-75-6.92-23.24-13.84-46.47-20.77-69.71-5.87-19.7-11.74-39.41-17.61-59.11-4.22-14.16-8.44-28.33-12.66-42.49-1.98-6.64-3.54-13.62-5.99-20.1-.1-.27-.17-.57-.25-.85-.05-.16-.65,0-.6.16h0Z"/>
        <path class="cls-31" d="M595.58,71.99l141.38,487.57c4.09,14.06.7,37.69-13.12,41.71-.55.16-1.1.3-1.65.42l-370.96,89.6L201.76,163.22l356.11-110.59c14.82-5.56,31.39,2.16,37.01,17.25.26.69.49,1.39.7,2.11Z"/>
        <g class="cls-35">
          <path class="cls-28" d="M567.19,75.31l127.36,439.21c3.68,12.66.63,33.95-11.82,37.57-.49.14-.99.27-1.49.38l-322.44,88.81L220.11,157.49l313.11-99.62c13.35-5.01,28.28,1.95,33.34,15.54.23.62.44,1.26.63,1.9Z"/>
          <path class="cls-19" d="M823.93,540.33l-37.14-127.79c-53.08.96-178.26,12.93-270.6,40.46-105.97,31.6-192.6,73.24-255.24,117.94l35.64,122.65,527.33-153.25Z"/>
          <path class="cls-18" d="M614.73,498.4c3.44,11.82-35.87,33.64-87.8,48.73-51.93,15.09-96.81,17.74-100.24,5.91-3.44-11.82,35.87-33.64,87.8-48.74,51.93-15.09,96.81-17.74,100.24-5.91Z"/>
          <path class="cls-16" d="M444.25,516.83c7.16,9.02,9.47,23.85,21.69,27.73,6.37,2.02,13.15,2.56,19.6,1.65,4.44-.63,12.3-4.25,15.42-7.88,5.88-6.83-.88-25.73-3.13-33.4-3.3-11.23-11.85-26.66-24.31-29.27-9.49-1.98-17.47,2.8-26.51,4.57-6.2,1.21-23.7-7.61-21.53,1.18,2.92,11.81,13.34,28.62,18.75,35.43Z"/>
          <path class="cls-16" d="M573.67,479.21c-1.21,11.46,4.79,25.21-3.45,35.04-4.29,5.11-9.73,9.21-15.66,11.9-4.09,1.84-12.67,3-17.24,1.62-8.62-2.61-13.05-22.19-15.26-29.88-3.24-11.25-4.29-28.86,4.84-37.74,6.95-6.76,16.25-7,24.83-10.35,5.88-2.3,15.93-19.13,18.8-10.55,3.86,11.54,4.07,31.31,3.16,39.96Z"/>
          <path class="cls-16" d="M428.84,393.55c13.83-20.56,62.15-35.14,86.99-26.87,27.31,9.09,64.96,72.59,56.39,98.28-8.84,26.5-116.31,59.54-134.77,39.13-20.31-22.47-24.45-86.99-8.6-110.54Z"/>
          <path class="cls-16" d="M438.63,436.86c-37.78,11.05-81.29.86-103.14-31.13-9.23-13.53,10.5-34.98,23.2-19.54,18.73,22.78,40.88,19.2,67.25,11.49,15.71-4.59,28.39,34.59,12.69,39.18h0Z"/>
          <path class="cls-16" d="M528.25,407.08c38.99-5.41,73.58-26.62,80.39-64.76,2.88-16.13-22.99-33.5-28.24-14.22-7.75,28.46-29.42,34.27-56.63,38.04-16.21,2.25-11.72,43.18,4.48,40.94h0Z"/>
          <path class="cls-21" d="M443.34,385.18c8.54-15.59,40.42-25.28,57.36-17.93,18.63,8.08,46.12,59.09,41.29,78.88-4.98,20.42-75.86,42.45-88.96,25.83-14.42-18.29-19.48-68.92-9.69-86.77Z"/>
          <g>
            <path class="cls-16" d="M392.73,261.81c3.19,10.97-8.71,30.74-19.68,33.93-10.97,3.19-28.38-3.93-31.57-14.89-3.19-10.97-1.06-25.39,9.91-28.58,10.97-3.19,38.15-1.42,41.34,9.55Z"/>
            <path class="cls-27" d="M394.03,269.38c2.3,7.91-6.28,22.17-14.19,24.47-7.91,2.3-19.57-10.59-21.87-18.5-2.3-7.91-1.66-10.55,6.25-12.85,7.91-2.3,27.51-1.03,29.81,6.88Z"/>
          </g>
          <g>
            <path class="cls-16" d="M475.23,237.8c3.19,10.97,23.83,21.28,34.8,18.09,10.97-3.19,21.52-20.42,18.34-31.38-3.19-10.97-12.38-20.11-23.35-16.92-10.97,3.19-32.97,19.25-29.78,30.22Z"/>
            <path class="cls-27" d="M478.19,244.88c2.3,7.91,17.18,15.35,25.1,13.05,7.91-2.3,10.85-19.43,8.55-27.34-2.3-7.91-4.25-9.8-12.16-7.5-7.91,2.3-23.78,13.88-21.48,21.79Z"/>
          </g>
          <path class="cls-16" d="M378.09,261.66c17.15-23.79,75.86-41.45,105.72-32.53,32.83,9.82,77.01,81.63,66.12,111.18-11.24,30.47-141.85,70.48-163.73,47.54-24.09-25.26-27.74-98.93-8.1-126.19Z"/>
          <g>
            <path class="cls-29" d="M495.97,336.74c4.92,16.93-9.04,24.48-27.42,29.83-18.38,5.34-34.21,6.45-39.14-10.48-4.92-16.93,3.86-42.32,22.24-47.66,18.38-5.34,39.4,11.39,44.32,28.32Z"/>
            <path class="cls-25" d="M424.48,314c2.14,7.35-.66,14.63-6.25,16.25-5.59,1.62-11.85-3.02-13.98-10.37-2.14-7.36.66-14.63,6.24-16.25,5.58-1.62,11.85,3.02,13.98,10.37Z"/>
            <path class="cls-5" d="M413.53,314.06c-4.46,1.3-7.71,4.22-7.52,9.89,2.88,4.89,7.76,7.6,12.22,6.3,4.46-1.3,7.14-6.2,6.95-11.87-2.88-4.89-7.19-5.62-11.65-4.32Z"/>
            <path class="cls-5" d="M443.49,329.75c-3.66-2.21-2.48-5.23,2.61-6.71l16.58-4.82c5.09-1.48,7.7.44,5.8,4.27,0,0-7.21,13.28-9.22,13.86-2.09.6-15.76-6.6-15.76-6.6Z"/>
            <path class="cls-36" d="M410.45,297.42c-1.15-.06-2.36.14-3.47.45-2.16.59-4.18,1.81-5.31,3.79-.85,1.48-1.12,3.17-1.1,4.85,0,.31,1.22.1,1.22-.33-.03-2.54.75-5.09,2.87-6.64,1.35-.99,2.76-1.34,4.33-1.48-.16.01.09,0,.14,0,.07,0,.15,0,.22-.01.11,0,.21,0,.32,0,.1,0,.19,0,.29,0,.23.01.69-.09.81-.32.13-.24-.11-.29-.31-.3h0Z"/>
          </g>
          <path class="cls-25" d="M499.01,292.34c2.14,7.35-.66,14.63-6.25,16.25s-11.85-3.02-13.98-10.37c-2.14-7.36.66-14.63,6.24-16.25,5.58-1.62,11.85,3.02,13.98,10.37Z"/>
          <path class="cls-5" d="M488.06,292.4c-4.46,1.3-7.71,4.22-7.52,9.89,2.88,4.89,7.76,7.6,12.22,6.3,4.46-1.3,7.14-6.2,6.95-11.87-2.88-4.89-7.19-5.62-11.65-4.32Z"/>
          <path class="cls-36" d="M482.35,277.95c1.06-.75,2.4-1.27,3.7-1.47,3.2-.47,5.83,1.43,7.46,4.04.19.31,1.33-.15,1.22-.33-1.47-2.35-3.64-4.13-6.48-4.29-1.95-.11-3.95.44-5.68,1.32-.39.2-.79.42-1.15.67-.2.14-.14.24.08.28.25.05.66-.08.86-.23h0Z"/>
          <path class="cls-29" d="M443.96,368.14c4.89,3.16,9.77,6.31,14.66,9.47-.17-1.48-.34-2.97-.51-4.45,4.54,1.98,9.24,3.58,14.04,4.78-.83-1.94-1.13-4.09-.87-6.18,1.03,1.18,2.2,2.24,3.49,3.13.41.29.93.56,1.39.36.37-.16.54-.58.68-.95.8-2.18,1.61-4.37,2.41-6.55.14,1.6,1.01,3.76,2.56,3.31.92-.27,1.28-1.36,1.54-2.28.96-3.35,2.56-6.52,4.68-9.28.53-.69,1.13-1.5.9-2.34-.41-1.48-2.57-1.2-4-.66-5.4,2.04-11.18,3.05-16.94,2.96"/>
          <path class="cls-21" d="M452.79,471.8c4.17,5.71,10.19,10.04,16.92,12.19-.5-.78-1-1.57-1.5-2.35,3.96.98,7.91,1.96,11.87,2.94-.75-1.23-1.5-2.47-2.24-3.7,5.75,1.6,11.65,2.67,17.6,3.2-.85-1.53-1.36-4.02.31-4.55.48-.15.99-.06,1.48.04,1.22.24,2.45.48,3.67.73,1.01.2,2.09.39,3.04,0,.85-.35,1.45-1.09,2.01-1.81,1.81-2.3,3.61-4.61,5.42-6.91.5,1.44,1,2.88,1.51,4.32,3.78-2.49,7.29-5.39,10.46-8.62.42,1.25.83,2.5,1.25,3.76,3.17-2.83,5.94-6.1,8.21-9.69.62,1.75,1.23,3.5,1.85,5.26,3.3-5.8,5.65-12.15,6.91-18.7.54-2.82.62-6.32-1.76-7.92-1.93-1.3-4.51-.67-6.71.07-5.25,1.76-10.37,3.87-15.34,6.31"/>
          <polygon class="cls-25" points="418.15 311.39 417.06 320.83 422.5 312.56 418.15 311.39"/>
          <polygon class="cls-25" points="492.74 290.8 491.66 300.24 497.1 291.96 492.74 290.8"/>
          <path class="cls-36" d="M401.38,319.94c-2.32.54-4.65,1.08-6.97,1.61-.11.03-.61.17-.56.35s.57.04.66.02c2.32-.54,4.65-1.08,6.97-1.61.11-.03.61-.17.56-.35s-.57-.04-.66-.02h0Z"/>
          <path class="cls-36" d="M508.28,288.47c-2.32.54-4.65,1.08-6.97,1.61-.22.05-.58.26-.51.53s.5.25.71.21c2.32-.54,4.65-1.08,6.97-1.61.22-.05.58-.26.51-.53s-.5-.25-.71-.21h0Z"/>
          <path class="cls-7" d="M449.76,351.9s5.61,10.84,16.84,7.96c11.23-2.88,10.94-15.29,10.94-15.29,0,0-12.62,3.76-15.2,0,0,0-2.9,5.72-12.59,7.34Z"/>
          <path class="cls-5" d="M461.89,344.64c-2.45,4.44-7.39,7.66-12.53,6.23-2.92-.81-5.41-2.69-7.59-4.73-.17-.16-1,.18-.86.31,3.52,3.31,8.07,6.05,13.07,4.91,3.04-.69,5.6-2.62,7.52-5.02.47-.59.93-1.2,1.29-1.86.06-.11-.77-.07-.9.16h0Z"/>
          <path class="cls-5" d="M481.88,334.34c-2.05,6.15-6.25,12.4-13.5,11.72-1.68-.16-3.34-.63-4.87-1.35-.24-.11-.6-.23-.8-.41.23.22.02-.14-.04-.34l-.44-1.51c-.72-2.49-1.45-4.98-2.17-7.47-.12-.42-1.04-.18-.91.25.7,2.4,1.39,4.8,2.09,7.2.18.63.29,1.87.73,2.38.18.21.6.34.84.45,3.88,1.86,8.61,2.2,12.42-.02s6.14-6.6,7.54-10.79c.17-.5-.75-.5-.88-.11h0Z"/>
        </g>
        <path class="cls-12" d="M332.75,215.48c5.08,4.59,13.96,3.44,18.64-1.21,2.62-2.6,3.1-6.18,4.43-9.46.57-1.41,1.6-3.72,3.39-3.77s3.48,1.3,4.84,2.27c2.77,1.97,5.48,3.63,8.92,2.2,1.58-.66,2.68-1.89,3.66-3.25,1.05-1.45,2.09-3.41,3.81-4.16,1.53-.67,3.56.2,4.97.83,1.73.77,3.37,1.74,5.1,2.53,3.05,1.39,6.3,1.93,9.42.39,5.89-2.92,5.26-11.09,10.13-14.92,2.7-2.12,6.14-.25,8.62,1.32,2.8,1.77,5.41,4.01,8.55,5.18,2.8,1.04,5.99.72,8.51-.93,2.3-1.52,3.67-4.05,4.77-6.49,1.2-2.67,2.1-5.55,3.72-8.01.6-.91,1.44-2.02,2.51-2.4,1.42-.51,3.14.34,4.34,1.04,2.92,1.72,5.54,4.54,9.23,3.78,3.47-.72,4.76-3.55,6.28-6.41.67-1.26,1.7-3.33,3.35-3.28,2.46.08,4.59,1.93,6.98,2.44,4.45.95,9.04-.84,12.78-3.16,2.07-1.28,4-2.79,5.87-4.35.39-.33-.35-.37-.51-.36-.49.01-1.08.21-1.45.52-3.73,3.1-8.51,7.1-13.69,6.68-2.57-.21-4.61-1.74-7.03-2.43-1.73-.49-3.62-.27-5.2.58-2.77,1.5-3.48,4.83-5.18,7.25-.43.61-1,1.34-1.71,1.64-.83.35-1.89-.07-2.65-.43-1.61-.76-2.98-1.94-4.47-2.89-2.57-1.63-5.49-2.22-8.32-.87-2.25,1.08-3.56,3.26-4.59,5.44-1.22,2.59-2.11,5.32-3.51,7.83s-3.33,4.91-6.37,4.46c-6.28-.93-10.21-7.87-16.75-8.03-2.92-.07-5.72,1.26-7.5,3.56-1.91,2.46-2.82,5.53-4.18,8.3s-3.33,5.59-6.86,4.85-6.34-3.04-9.64-4.19c-3.07-1.07-6.57-.6-8.92,1.76-1.24,1.25-2.07,2.82-3.19,4.17-.48.59-1.11,1.34-1.85,1.6-.83.3-1.87-.09-2.63-.45-2.91-1.37-5.2-4.33-8.6-4.5s-5.85,2.01-7.08,5.03c-1.35,3.32-1.8,7-4.57,9.54s-6.36,3.28-9.83,2.41c-1.68-.42-3.19-1.24-4.48-2.4-.43-.39-2.38.44-2.05.74h0Z"/>
      </g>
      <rect class="cls-26" x="-75.03" y="712.48" width="1420.31" height="371.34"/>
      <rect class="cls-1" x="149.45" y="-35.82" width="1000.99" height="1095.2"/>
      <g>
        <path class="cls-25" d="M722.9,508.25c-25.91-98.92-120.12-151.91-220.22-127.18-98.92,24.73-158.98,120.12-134.25,219.04,25.91,98.92,126.01,157.8,226.11,133.07,98.92-24.73,153.09-126.01,128.36-223.75v-1.18Z"/>
        <path class="cls-24" d="M502.68,379.88c-98.92,24.73-158.98,126.01-133.07,223.75,24.73,97.74,126.01,157.8,224.93,133.07,98.92-24.73,158.98-126.01,133.07-223.75-24.73-97.74-126.01-157.8-224.93-133.07ZM414.36,656.63c-28.26-25.91-38.86-58.88-40.04-62.41,0-41.22,15.31-65.95,17.66-69.48,21.2-2.36,45.93-8.24,54.17-9.42,1.18,10.6,10.6,40.04,43.57,70.66-2.36,5.89-14.13,34.15-17.66,68.3-34.15,12.95-55.35,3.53-57.7,2.36ZM570.99,444.65c10.6,16.49,37.68,54.17,42.39,60.06-14.13,37.68-35.33,67.12-40.04,71.84-7.07,0-44.75,0-81.26,5.89-35.33-32.97-42.39-64.77-43.57-69.48l36.51-69.48c7.07,0,55.35-8.24,84.79,0h0l1.18,1.18ZM447.33,411.68c-14.13,9.42-27.09,21.2-37.68,30.62,12.95-15.31,27.09-28.26,43.57-37.68-3.53,3.53-5.89,5.89-7.07,7.07h1.18ZM388.45,522.38c-2.36,4.71-15.31,27.09-18.84,64.77-5.89-38.86,0-77.72,17.66-110.7-4.71,23.55,0,42.39,0,45.93h1.18ZM607.49,649.56c-2.36-7.07-12.95-44.75-29.44-70.66,4.71-5.89,25.91-35.33,40.04-73.01,27.09,1.18,56.53,0,63.59-1.18,3.53,4.71,20.02,29.44,30.62,69.48-18.84,49.46-34.15,67.12-36.51,69.48-40.04,12.95-62.41,5.89-67.12,4.71l-1.18,1.18ZM728.79,576.55l-14.13-3.53c-10.6-41.22-28.26-65.95-30.62-70.66,3.53-22.37,0-44.75,0-52.99,2.36,0,7.07,0,11.78,1.18,12.95,17.66,23.55,38.86,29.44,62.41,5.89,21.2,7.07,42.39,4.71,62.41h0l-1.18,1.18ZM691.1,447.01h-9.42c-32.97-29.44-64.77-42.39-69.48-43.57-7.07-8.24-16.49-15.31-25.91-20.02,41.22,8.24,78.9,31.8,104.81,64.77h0v-1.18ZM570.99,379.88c9.42,4.71,25.91,12.95,36.51,23.55-20.02,14.13-32.97,31.8-35.33,36.51-30.62-8.24-77.72-1.18-85.97,0-12.95-15.31-28.26-23.55-34.15-27.09,3.53-3.53,12.95-12.95,27.09-21.2,8.24-3.53,16.49-5.89,24.73-8.24,22.37-5.89,45.93-7.07,67.12-4.71v1.18ZM428.49,693.13h0l-2.36-2.36c-7.07-9.42-10.6-22.37-11.78-28.26,7.07,2.36,22.37,5.89,45.93,0,3.53,0,8.24-2.36,11.78-3.53,2.36,2.36,10.6,9.42,21.2,17.66,11.78,9.42,29.44,20.02,47.11,24.73,2.36,16.49,5.89,25.91,8.24,30.62-3.53,1.18-10.6,3.53-21.2,4.71-36.51-4.71-71.84-20.02-98.92-44.75h0v1.18ZM573.34,736.71c-5.89,0-12.95-1.18-20.02-5.89,0-2.36-5.89-12.95-8.24-30.62,7.07-3.53,37.68-18.84,61.24-48.28,5.89,2.36,23.55,7.07,57.7-1.18,3.53,0,7.07-2.36,10.6-3.53,5.89,20.02,0,34.15,0,34.15v3.53c-1.18,0,2.36,0,2.36,0-22.37,22.37-50.64,38.86-82.43,47.11-7.07,2.36-14.13,3.53-21.2,3.53h0v1.18Z"/>
        <path class="cls-37" d="M985.51,298.63c14.13,0,27.09-7.07,41.22-4.71,12.95,1.18,23.55,10.6,30.62,21.2,7.07,10.6,10.6,23.55,14.13,35.33,3.53,14.13,5.89,29.44,3.53,43.57-5.89,27.09-31.8,45.93-57.7,57.7-9.42,3.53-18.84,8.24-24.73,16.49,4.71-16.49,5.89-32.97,4.71-49.46-7.07,10.6-15.31,18.84-24.73,25.91-5.89-29.44-11.78-60.06-12.95-89.5,0-8.24,0-16.49,2.36-24.73,2.36-5.89,5.89-10.6,10.6-15.31,5.89-7.07,10.6-12.95,16.49-20.02"/>
        <path class="cls-37" d="M780.6,298.63c-14.13,0-27.09-7.07-41.22-4.71-12.95,1.18-23.55,10.6-30.62,21.2-7.07,10.6-10.6,23.55-14.13,35.33-3.53,14.13-5.89,29.44-3.53,43.57,5.89,27.09,31.8,45.93,57.7,57.7,9.42,3.53,18.84,8.24,24.73,16.49-4.71-16.49-5.89-32.97-4.71-49.46,7.07,10.6,15.31,18.84,24.73,25.91,5.89-29.44,11.78-60.06,12.95-89.5,0-8.24,0-16.49-2.36-24.73-2.36-5.89-5.89-10.6-10.6-15.31-5.89-7.07-10.6-12.95-16.49-20.02"/>
        <path class="cls-32" d="M825.35,476.45c0,4.71-3.53,9.42-5.89,12.95-18.84,22.37-70.66,148.38-77.72,153.09-17.66,15.31-71.84-34.15-52.99-65.95,10.6-18.84,47.11-98.92,91.86-129.54,21.2-14.13,49.46,4.71,44.75,29.44h0Z"/>
        <path class="cls-33" d="M972.56,315.11s25.91,24.73,38.86-4.71c12.95-29.44-27.09-30.62-27.09-30.62l-11.78,35.33h0Z"/>
        <path class="cls-33" d="M777.07,316.29s-27.09,23.55-38.86-7.07c-11.78-30.62,28.26-29.44,28.26-29.44l9.42,36.51h1.18Z"/>
        <path class="cls-13" d="M1005.53,701.38c30.62-23.55,28.26-48.28,20.02-69.48-9.42-21.2-107.16-226.11-107.16-226.11l-104.81-7.07s-55.35,131.89-67.12,151.91c-12.95,20.02-74.19,100.1-71.84,105.99,2.36,4.71,68.3,75.37,187.24,75.37s135.43-22.37,144.85-29.44l-1.18-1.18Z"/>
        <path class="cls-32" d="M838.31,219.73c36.51,23.55,109.52,55.35,150.74,69.48,7.07,56.53-15.31,126.01-115.41,131.89-100.1,5.89-130.72-68.3-120.12-135.43,41.22-10.6,49.46-42.39,85.97-65.95h-1.18Z"/>
        <path class="cls-37" d="M784.14,210.3c7.07-8.24,17.66-15.31,30.62-21.2,29.44-12.95,71.84-16.49,108.34,2.36,15.31,8.24,30.62,20.02,42.39,37.68,10.6,14.13,18.84,36.51,22.37,60.06-37.68,18.84-113.05-30.62-149.56-54.17-36.51,23.55-44.75,40.04-85.97,50.64,4.71-28.26,15.31-55.35,32.97-75.37h-1.18Z"/>
        <path class="cls-24" d="M854.79,211.48c-24.73,24.73-52.99,45.93-85.97,57.7h-1.18v-1.18c31.8-14.13,58.88-35.33,84.79-56.53,0,0,2.36,0,1.18,1.18h0l1.18-1.18Z"/>
        <path class="cls-24" d="M821.82,316.29c0-7.07-3.53-12.95-9.42-14.13-5.89,0-11.78,4.71-12.95,11.78,0,7.07,3.53,12.95,9.42,14.13,5.89,0,11.78-4.71,12.95-11.78Z"/>
        <path class="cls-24" d="M908.97,316.29c0,7.07-7.07,11.78-12.95,11.78s-10.6-7.07-9.42-14.13c0-7.07,7.07-11.78,12.95-11.78s10.6,7.07,9.42,14.13Z"/>
        <path class="cls-34" d="M945.47,342.2c0,7.07-7.07,11.78-12.95,11.78s-10.6-7.07-9.42-14.13c0-7.07,7.07-11.78,12.95-11.78s10.6,7.07,9.42,14.13Z"/>
        <path class="cls-34" d="M795.91,343.38c0,7.07-7.07,11.78-12.95,11.78s-10.6-7.07-9.42-14.13c0-7.07,7.07-11.78,12.95-11.78s10.6,7.07,9.42,14.13Z"/>
        <path class="cls-37" d="M855.97,382.24c-1.18,0-.89-.07-3.24-.07-28.45-.89-42.97-14.49-48.38-21.61-1.6-2.11-.96-5.14,1.34-6.45l.87-.5c1.9-1.08,4.29-.61,5.64,1.11,4.62,5.89,17,18.1,40.24,18.1,28.35.89,40.04-8.89,44.09-13.79,1.25-1.52,3.34-2.05,5.15-1.28h0c2.7,1.16,3.55,4.61,1.65,6.85-5.59,6.57-19.19,17.64-47.35,17.64h0Z"/>
        <g>
          <path class="cls-2" d="M901.9,425.81l-23.55,42.39-31.8-32.97-24.73,28.26-19.96-33.56c-.95,2.22-2.15,4.31-3.73,6.16l22.51,36.83,25.91-28.26,32.97,32.97,23.55-42.39,29.44,30.62,4.71-3.53-35.33-36.51Z"/>
          <polygon class="cls-2" points="913.68 555.35 878.35 509.42 844.2 551.82 818.29 509.42 790.02 548.28 768.83 500 774.72 497.65 791.2 536.51 818.29 498.82 845.37 542.4 878.35 500 912.5 544.75 932.52 510.6 937.23 512.96 913.68 555.35"/>
          <polygon class="cls-2" points="940.76 638.96 905.43 593.03 871.28 635.43 845.37 593.03 800.62 630.72 781.78 587.15 739.39 615.41 727.61 577.73 732.32 575.37 741.74 605.99 784.14 577.73 802.98 620.12 846.55 583.61 872.46 626.01 905.43 583.61 940.76 628.36 959.6 594.21 965.49 596.57 940.76 638.96"/>
          <path class="cls-2" d="M879.52,589.5l-21.2-27.09,21.2-27.09,23.55,28.26-23.55,27.09v-1.18ZM866.57,562.42l14.13,18.84,15.31-17.66-15.31-18.84s-14.13,17.66-14.13,17.66Z"/>
          <path class="cls-2" d="M939.58,594.21l-21.2-27.09,21.2-27.09,23.55,28.26-23.55,27.09v-1.18ZM925.45,567.13l14.13,18.84,15.31-17.66-15.31-18.84-14.13,17.66Z"/>
          <path class="cls-2" d="M813.58,587.15l-21.2-27.09,21.2-27.09,23.55,28.26-23.55,27.09v-1.18ZM799.45,560.06l14.13,18.84,15.31-17.66-15.31-18.84-14.13,17.66Z"/>
          <path class="cls-2" d="M780.6,556.53l-17.66-32.97-6.92,5.98c-1.55,3.82-3.04,7.66-4.6,11.49-.21.51-.44,1.02-.69,1.52l11.03-9.56,11.78,21.2-18.84,14.13-8.8-17.6c-1.27,2.2-2.35,4.48-2.81,7.02-.01.07-.04.13-.06.2l9.31,18.62v1.18l28.26-21.2Z"/>
          <path class="cls-2" d="M844.2,514.13l-21.2-27.09,21.2-27.09,23.55,28.26-23.55,27.09v-1.18ZM831.24,487.05l14.13,18.84,15.31-17.66-15.31-18.84-14.13,17.66Z"/>
          <path class="cls-2" d="M904.25,518.84l-21.2-27.09,21.2-27.09,23.55,28.26-23.55,27.09v-1.18ZM890.12,491.76l14.13,18.84,15.31-17.66-15.31-18.84-14.13,17.66Z"/>
          <path class="cls-2" d="M818.29,487.05l-17.66-32.97-16.98,14.66s0,.05,0,.07c-1.23,5.2-3.03,10.26-5.16,15.17l11.55,23.09v1.18l28.26-21.2ZM782.19,478.45l17.25-14.95,11.78,21.2-18.84,14.13-10.19-20.38Z"/>
        </g>
        <path class="cls-32" d="M918.39,461.14c0,4.71,0,9.42,2.36,14.13,11.78,27.09,25.91,161.34,30.62,168.4,12.95,18.84,93.03-3.53,83.61-40.04-5.89-21.2-35.33-101.28-69.48-142.49-16.49-20.02-45.93-25.91-47.11,0h0Z"/>
      </g>
      <path class="cls-10" d="M656.03,964.28l-404.74-83.55v-339.08l404.74,78.13v344.5Z"/>
      <path class="cls-9" d="M656.03,964.28l404.74-83.55v-339.08l-404.74,78.13s0,344.5,0,344.5Z"/>
      <path class="cls-10" d="M1115.02,618.69l-407.99,80.3-53.17-78.13,407.99-80.3,53.17,78.13Z"/>
      <path class="cls-9" d="M194.87,618.69l407.99,80.3,53.17-78.13-406.91-80.3-54.25,78.13Z"/>
    </g>
  </g>
</svg>