<?xml version="1.0" encoding="UTF-8"?>
<svg id="Layer_1" data-name="Layer 1" xmlns="http://www.w3.org/2000/svg" viewBox="0 0 1359.5 1057.58">
  <defs>
    <style>
      .cls-1 {
        fill: #b9dfee;
      }

      .cls-2 {
        fill: #9f752b;
      }

      .cls-3 {
        fill: #010101;
      }

      .cls-4 {
        fill: #3c55a5;
      }

      .cls-5 {
        fill: #815739;
      }

      .cls-6 {
        fill: #f3ab1d;
      }

      .cls-7 {
        fill: #3f271c;
      }

      .cls-8 {
        fill: #f1edf6;
      }

      .cls-9 {
        fill: #1d1514;
      }

      .cls-10 {
        fill: #19546e;
      }

      .cls-11 {
        fill: #a4a4a5;
      }

      .cls-12 {
        fill: #9e2d63;
      }

      .cls-13, .cls-14 {
        fill: #fff;
      }

      .cls-15 {
        fill: #082f43;
      }

      .cls-16 {
        fill: #0e3b59;
      }

      .cls-17 {
        fill: #412b12;
      }

      .cls-18 {
        fill: #b06c4f;
      }

      .cls-19 {
        fill: #542d24;
      }

      .cls-20 {
        fill: #161413;
      }

      .cls-21 {
        fill: #eeebf5;
      }

      .cls-22 {
        fill: #cd8c2a;
      }

      .cls-23 {
        fill: #4f2f26;
      }

      .cls-24 {
        fill: #14162a;
      }

      .cls-25 {
        fill: #6c3925;
      }

      .cls-26 {
        fill: #bb8e2d;
      }

      .cls-27 {
        fill: #251810;
      }

      .cls-28 {
        fill: #cd5898;
      }

      .cls-29 {
        fill: #f39b1f;
      }

      .cls-30 {
        fill: #b06d4f;
      }

      .cls-14 {
        isolation: isolate;
        opacity: .3;
      }
    </style>
  </defs>
  <rect class="cls-1" x="-37.54" y="-29.21" width="1434.59" height="1115.99" rx="12" ry="12"/>
  <polygon class="cls-29" points="1039.05 80 1048.58 102.89 1072.81 107.98 1054.02 124.1 1056.66 148.75 1035.5 135.86 1012.89 145.97 1018.63 121.86 1001.99 103.49 1026.7 101.51 1039.05 80"/>
  <polygon class="cls-28" points="488.56 134.26 496.67 153.72 517.26 158.04 501.29 171.74 503.53 192.69 485.55 181.74 466.33 190.33 471.2 169.83 457.06 154.22 478.06 152.54 488.56 134.26"/>
  <polygon class="cls-28" points="1167.38 118.29 1172.38 130.29 1185.08 132.95 1175.23 141.4 1176.61 154.32 1165.53 147.56 1153.68 152.86 1156.68 140.22 1147.96 130.6 1160.91 129.56 1167.38 118.29"/>
  <polygon class="cls-4" points="484.01 249.53 493.16 271.5 516.42 276.38 498.38 291.86 500.92 315.51 480.61 303.14 458.91 312.85 464.41 289.7 448.44 272.07 472.16 270.17 484.01 249.53"/>
  <polygon class="cls-29" points="946.29 258.68 951.52 271.25 964.81 274.03 954.5 282.88 955.95 296.4 944.34 289.33 931.94 294.88 935.08 281.65 925.95 271.57 939.51 270.48 946.29 258.68"/>
  <polygon class="cls-29" points="94.77 303.02 100 315.58 113.29 318.37 102.98 327.22 104.43 340.74 92.82 333.67 80.41 339.22 83.56 325.98 74.43 315.91 87.99 314.82 94.77 303.02"/>
  <polygon class="cls-28" points="950.87 163.47 956.1 176.04 969.39 178.82 959.08 187.67 960.53 201.19 948.92 194.12 936.52 199.67 939.66 186.44 930.54 176.36 944.09 175.27 950.87 163.47"/>
  <path class="cls-18" d="M536.87,497.44s-2.34-66.96-2.09-74.89c.22-7.01,30.83-60.79,38.99-75.78h0c6.7,4.09,9.61,11.66,7.36,18.87-5.18,16.63-16.32,47.96-16.32,47.96,0,0,8.65,1.06,10.16.2,18.91-10.7,23.89-1,23.89-1,0,0,3.43-.04,11.02,4.51,9.49,5.69,4.29,19.48,4.29,19.48,0,0,4.79-2.05,11.34,7.49,6.55,9.53-13.51,16.53-13.51,16.53,0,0,2.14-.51-.84,22.97-2.98,23.49-26.9,38.52-26.9,38.52l-14.77,57.7-53.42-13.56,20.79-69Z"/>
  <path class="cls-17" d="M576.71,410.56c1.97,2.18,2.78,5.02,3.33,7.85.5,2.57,1.7,7.14-1.35,8.65-.73.36-.07.87.5.59,3.28-1.63,2.76-5.47,2.23-8.48-.57-3.24-1.35-6.58-3.62-9.09-.31-.35-1.45.1-1.09.49h0Z"/>
  <path class="cls-17" d="M598.19,412.27c2.07,6.2,1.62,13.05-1.28,18.9-.27.54.92.46,1.12.06,2.97-5.97,3.47-12.95,1.36-19.28-.15-.46-1.34-.13-1.19.32h0Z"/>
  <path class="cls-18" d="M890.22,491.75s-1.76-64.84-2.48-72.49c-.63-6.76-33.44-56.88-42.23-70.88h0c-6.23,4.36-8.58,11.84-5.98,18.67,6,15.76,18.65,45.36,18.65,45.36,0,0-8.3,1.54-9.81.81-18.91-9.2-23.14.46-23.14.46,0,0-3.32.17-10.38,5.02-8.83,6.07-2.97,19.08-2.97,19.08,0,0-4.75-1.69-10.51,7.91-5.76,9.6,14.05,15.16,14.05,15.16,0,0-2.1-.37,2.19,22.15,4.29,22.51,29.3,35.6,29.3,35.6l18.81,58.14,48.73,11.11-24.23-96.12Z"/>
  <path class="cls-17" d="M847.92,411.15c-2.08,2.61-2.71,5.87-3.08,9.11-.34,2.88-.83,7.05,2.48,8.44.4.17,1.47-.4.93-.63-3.18-1.34-2.51-5.49-2.19-8.22.36-2.96.92-6.05,2.83-8.44.45-.57-.68-.63-.97-.27h0Z"/>
  <path class="cls-26" d="M783.03,466.38c-7.76.04-13.32-.3-13.82-.33l.99-15.33c.33,0,35.51,2.12,53.56-5.27,14.36-5.93,30.04-46.48,36.88-82.25,4.35-22.67,1.88-29.78,0-32.04-.4-.46-1.47-1.76-5.54-1.74l-14.02.07c-4,12.24-10.43,24.57-20.22,24.62l-28.28.14-.08-15.29,27.14-.14c2.32-2.34,6.11-10.96,8.3-18.96l1.54-5.6,25.54-.13c6.63-.43,13.08,2.28,17.42,7.3,6.7,7.99,7.67,21.78,3.26,44.71-3.55,18.46-8.89,36.54-15.94,53.97-9.11,21.76-19.27,35.1-30.17,39.59-13.43,5.46-33.3,6.6-46.56,6.67Z"/>
  <path class="cls-26" d="M652.51,467.05c7.76-.04,13.32-.43,13.82-.47l-1.11-15.31c-.37,0-35.52,2.48-53.61-4.72-14.45-5.79-30.51-46.17-37.75-81.87-4.54-22.62-2.15-29.76-.16-32.04.4-.47,1.46-1.77,5.52-1.79l14.02-.07c4.13,12.2,10.72,24.46,20.47,24.41l28.31-.14-.08-15.29-27.14.14c-3.95-5.73-6.83-12.12-8.52-18.87l-1.59-5.59-25.54.13c-6.63-.35-13.05,2.41-17.35,7.48-6.62,8.06-7.42,21.85-2.8,44.74,3.75,18.43,9.29,36.45,16.53,53.8,9.3,21.67,19.59,34.9,30.54,39.28,13.35,5.33,33.24,6.26,46.46,6.19Z"/>
  <polygon class="cls-26" points="798.62 619.4 798.66 628 638.57 628.81 638.52 620.22 652.24 620.15 662.36 605.45 708.86 586.66 708.39 495.74 727.44 495.64 727.91 586.56 774.6 604.87 784.89 619.47 798.62 619.4"/>
  <rect class="cls-2" x="703.17" y="498.25" width="29.57" height="9.56" transform="translate(1438.47 1002.4) rotate(179.71)"/>
  <path class="cls-26" d="M814.93,304.09s-6.86,123.9-26.2,158.23c-19.34,34.34-60.99,37.45-70.71,37.5-9.72.05-51.37-2.67-71.06-36.77-19.69-34.1-27.82-157.96-27.82-157.96l195.79-1Z"/>
  <path class="cls-14" d="M717.7,498.42c16.64-2.92,42.01-11.5,55.84-36.02,19.34-34.34,26.2-158.23,26.2-158.23l-18.42.09c-2.4,26.02-6.85,125.39-20.83,154.37-12.06,25.34-40.67,39.04-42.79,39.78Z"/>
  <polygon class="cls-2" points="652.24 620.15 784.89 619.47 781.2 614.23 655.67 615.19 652.24 620.15"/>
  <polygon class="cls-2" points="717.14 343.69 706.73 365.09 683.23 368.61 700.34 385.11 696.43 408.57 717.42 397.41 738.52 408.36 734.37 384.93 751.34 368.26 727.78 364.98 717.14 343.69"/>
  <path class="cls-17" d="M824.67,413.09c-1.67,6.25-.76,12.95,2.47,18.55.22.38,1.37-.01,1.1-.49-3.16-5.48-4-12.08-2.37-18.19.13-.48-1.07-.32-1.19.13h0Z"/>
  <g>
    <path class="cls-30" d="M811.83,438.32c4.14,3.56,8.28,7.12,12.42,10.69,2.06,1.77,4.2,3.59,6.8,4.41,2.29.72,5.14.44,6.61-1.47,1.08-1.39,1.17-3.35.68-5.03-.49-1.69-9.65-14.07-10.64-15.52"/>
    <path class="cls-17" d="M811.37,438.66c4.6,3.96,9.14,8.02,13.83,11.88,3.1,2.55,7.64,5.14,11.59,2.77,2.81-1.69,2.98-5.34,1.42-7.92-1.58-2.62-3.41-5.1-5.18-7.58-1.59-2.23-3.24-4.41-4.79-6.66-.3-.43-1.43.02-1.09.52,2.75,4,5.71,7.85,8.43,11.88,1.39,2.06,2.9,3.95,2.31,6.62s-3.19,3.52-5.62,3.09-4.36-1.91-6.15-3.38c-4.69-3.86-9.23-7.92-13.83-11.88-.39-.34-1.43.23-.92.68h0Z"/>
  </g>
  <g>
    <path class="cls-30" d="M818.72,444.52c1.52,2.44,7.07,9.95,8.34,12.53.51,1.04,1.01,2.26.57,3.33-.21.5-.66.84-1.02,1.24-6.21,6.75-16.37-2.75-19.97-4.51,0,0-6.15-2.43-6.31-8.38"/>
    <path class="cls-17" d="M818.18,444.77c1.87,2.98,4.02,5.8,5.98,8.72.89,1.32,1.85,2.66,2.5,4.12.7,1.55.67,2.64-.55,3.87-.75.76-1.55,1.4-2.56,1.77-3.56,1.3-7.6-.89-10.57-2.7-2.08-1.26-4.01-2.82-6.19-3.89-3.16-1.55-5.7-4.32-5.87-7.98-.03-.58-1.22-.37-1.2.11.17,3.65,2.46,6.56,5.61,8.25,2.37,1.27,4.54,2.84,6.84,4.23,3.17,1.92,7.07,3.83,10.87,2.93,1.89-.45,3.66-1.7,4.81-3.25,1.29-1.74-.08-3.95-1.04-5.52-2.34-3.83-5.17-7.35-7.56-11.15-.26-.41-1.4.01-1.09.5h0Z"/>
  </g>
  <g>
    <path class="cls-18" d="M862.23,492.18c-7.58-5.01-13.44-12.58-16.4-21.18-.85-2.47-1.47-5.07-1.29-7.68.21-2.93,1.41-5.68,2.59-8.36,1.75-3.97,3.5-7.94,5.26-11.91-8.86-.33-20.69,1.75-23.25-11.25,3.68-3.31,9.32-2.43,14.27-2.57,5.15-.14,10.15-1.61,15.19-2.65,5.04-1.03,10.37-1.62,15.27-.04,4.9,1.58,9.25,5.81,9.54,10.95"/>
    <path class="cls-17" d="M862.7,491.87c-7.19-4.8-12.82-11.82-15.87-19.91-.84-2.23-1.55-4.56-1.69-6.95-.17-2.74.61-5.36,1.64-7.87,1.94-4.73,4.11-9.37,6.18-14.04.11-.25-.09-.4-.34-.41-4.23-.14-8.54.24-12.72-.59-4.56-.91-8.03-3.58-9.54-8.06-.17-.51-.44-1.13-.47-1.66-.05-.93.81-1.29,1.6-1.66,1.44-.68,3.04-.93,4.62-1.04,3.19-.22,6.38.1,9.57-.21,7.32-.72,14.34-3.63,21.76-3.5,6.92.12,14.81,3.99,15.39,11.71.03.44,1.22.18,1.19-.32-.27-3.59-2.34-6.65-5.18-8.78-3.27-2.45-7.37-3.36-11.41-3.36-4.58,0-9.05,1.06-13.49,2.06-2.46.55-4.92,1.09-7.43,1.38-2.22.26-4.44.23-6.68.22-3.93-.03-8.05.13-11.18,2.82-.08.07-.13.18-.11.29,1.06,5.17,4.08,9.07,9.26,10.51,4.66,1.3,9.59.8,14.37.96l-.34-.41c-1.72,3.9-3.44,7.79-5.16,11.69-1.56,3.54-3.06,7.12-2.69,11.07.34,3.7,1.82,7.36,3.5,10.65,1.54,3.02,3.44,5.86,5.65,8.43,2.52,2.93,5.43,5.48,8.64,7.63.36.24,1.44-.28.93-.62h0Z"/>
  </g>
  <path class="cls-18" d="M464.72,652.44c9.73-6.73,18.69-14.55,26.32-23.4,6.24,29.33,11.82,55.99,16.27,70.46,3.85,11.91,7.63,25.9,11.36,41.06-14.29,2.29-28.58,4.6-42.85,6.97-7.52,1.25-13.17,18.49-20.69,19.78-22.45-12.32-24.04-77.84-32.2-93.29-.15-.28-.3-.58-.44-.86,15.07-4.79,29.39-11.84,42.23-20.71Z"/>
  <path class="cls-18" d="M955.46,645.7c-9.11-6.3-13.15-12.61-20.3-20.9-5.85,27.48-15.43,51.43-19.6,64.97-3.6,11.16-7.14,24.26-10.65,38.46,13.39,2.15,26.77,4.31,40.14,6.53,7.05,1.17-2.73,31.73,4.31,32.93,31.06-19.28,37.59-87.33,45.23-101.8.14-.26.28-.54.42-.81-14.12-4.49-27.53-11.09-39.55-19.4Z"/>
  <g>
    <path class="cls-3" d="M1156.22,422.33c2.68-7.69,16.6-11.08,18.64-18.99.5-1.92-1.05-3.59-2.64-3.8,1.04-2.87,2.51-6.31,4.35-9.06,3.88-5.78,15.3-9.81,15.3-9.81,0,0-1.9-12.77,3.54-14.2,5.45-1.44,17.07-.39,17.07-.39,0,0,9.26-7.8,18.52-.02,0,0,8.8-.05,10.59,11.64.39,2.53.45,5.61.03,9.36,0,0,4.31.1,10.58,7.39,2.71,3.15,5.6,13.43,3.35,21.97l.19,1.9c-2.96,11.25-8.2,18.15-17.33,19-.03.11-5.89,22.29-27.34,20.76-18.62-1.32-23.91-10.75-23.91-10.75,0,0-8.57,4.52-13.04,3.29-4.69-1.29-8.16-5.16-10.2-9.71,1.35-4.7-8.97-13.85-7.74-18.58Z"/>
    <path class="cls-3" d="M1156.41,422.31c1.4-3.84,5.14-6.32,8.36-8.55,3.1-2.14,6.56-4.23,8.79-7.35.94-1.31,2.04-3.27,1.38-4.92-.4-1-1.12-1.34-1.94-1.9-.08-.05-.29-.04-.35-.11-.33-.41.15-1.01.3-1.41.28-.71.57-1.42.88-2.12,1.07-2.44,2.29-5,4.13-6.96,1.5-1.6,3.32-2.89,5.18-4.03,2.73-1.66,5.84-3.15,8.77-4.19.07-.02.17-.07.16-.16-.55-3.71-.85-8.48.95-11.89,1.45-2.74,4.85-2.68,7.58-2.82,3.15-.16,6.31-.07,9.46.12.97.06,2.11.42,2.88-.13,2.16-1.55,4.64-2.66,7.28-3.04,2.01-.29,4.06-.1,5.97.57,1.12.39,2.17.93,3.15,1.58.5.34,1.06.98,1.62,1.16.3.1.72.05,1.03.11.78.13,1.55.37,2.28.69,7.56,3.27,7.93,13.11,7.16,20.1,0,.07.06.1.12.1,2.18.07,4.46,1.75,6.07,3.03,1.95,1.55,4,3.41,5.28,5.57,1.12,1.91,1.82,4.09,2.33,6.22.65,2.73.98,5.55.93,8.35-.02,1.37-.14,2.74-.37,4.09-.15.9-.46,1.72-.37,2.63.23,2.27-.78,4.56-1.6,6.66-.83,2.12-1.84,4.18-3.13,6.06-2.9,4.23-7.14,6.89-12.26,7.41-.08,0-.19.05-.21.14-1.55,5.91-5.35,11.74-10.08,15.54-4.58,3.69-10.3,5.38-16.15,5.13-6.52-.28-13.34-1.82-18.9-5.35-2.13-1.35-4.49-3.15-5.76-5.4-.04-.07-.2-.04-.25-.02-2.02,1.06-4.17,1.94-6.35,2.61-1.7.52-3.53.97-5.32.84-2.02-.14-4.01-1.2-5.61-2.4-1.74-1.3-3.17-2.99-4.31-4.83-.53-.86-1.29-1.9-1.3-2.93,0-.54.05-1.02-.06-1.56-.55-2.8-2.5-5.34-4.02-7.68-1.02-1.57-2.07-3.15-2.88-4.84-.61-1.27-1.18-2.73-.85-4.15.04-.16-.34-.11-.38.04-.47,2.05.77,4.19,1.75,5.89,1.43,2.48,3.16,4.78,4.55,7.29.6,1.08,1.18,2.23,1.44,3.45.11.51.11.99.09,1.51-.02.71.21,1.14.57,1.81,1.56,2.95,3.81,5.63,6.76,7.26,2.47,1.36,4.85,1.63,7.58,1.05,2.53-.54,4.98-1.5,7.31-2.6.28-.13.65-.25.9-.44.33-.25.24.02.05-.16.12.12.21.33.3.46.63.9,1.39,1.7,2.2,2.44,3.49,3.22,7.99,5.24,12.55,6.44,6.08,1.6,12.85,2.29,18.92.3,7.96-2.62,13.66-9.46,16.69-17.06.29-.73.44-1.79.86-2.44.26-.4.48-.18,1.1-.28,1.3-.21,2.57-.55,3.78-1.05,5.44-2.24,8.79-7.35,10.84-12.65.62-1.6,1.39-3.39,1.64-5.09.14-.98-.17-1.89.05-2.89.84-3.76.77-7.71.12-11.5-.51-2.98-1.33-6.1-2.93-8.69s-4.34-4.99-6.93-6.65c-.86-.55-1.76-1.04-2.72-1.39-.45-.17-1.09-.19-1.5-.41-.04-.02-.23,0-.26-.03.02.03.24-1.2.25-1.33.05-.6.09-1.2.12-1.81.08-1.83.04-3.66-.19-5.48-.62-4.88-2.88-9.84-7.73-11.72-.62-.24-1.25-.42-1.9-.54-.32-.06-.75-.02-1.05-.13s-.53-.38-.8-.59c-.93-.71-1.95-1.31-3.02-1.77-1.45-.63-3.01-1-4.59-1.08-2.67-.13-5.33.58-7.7,1.79-.75.38-1.48.82-2.17,1.31-.16.12-.32.26-.48.36-.24.16.29,0,.02,0-1.92,0-3.87-.26-5.79-.32-2.96-.09-5.95-.09-8.89.28-1.94.25-3.73.59-4.85,2.34-1.18,1.84-1.44,4.22-1.53,6.35-.08,1.8,0,3.61.21,5.4.02.19.05.39.07.58.03.26.23-.1.08,0-.41.27-1.05.4-1.5.58-4.76,1.94-10.11,4.48-13.36,8.61-2.23,2.84-3.63,6.41-4.86,9.77-.02.05.04.09.08.09,2.31.45,3.05,2.61,2.26,4.63-.43,1.11-1.11,2.11-1.88,3.01-1.76,2.04-4.01,3.6-6.21,5.12-3.8,2.63-8.58,5.35-10.26,9.93-.05.15.32.1.38-.04Z"/>
  </g>
  <g>
    <path class="cls-3" d="M1023.33,394.15c13.75-10.91,15.66-29.51,13.19-45.9-2.37-15.69,8.34-40.4-10.72-38.76-.19.02,1.6-3.91,2.47-7.37.63.98,1.29,1.95,1.99,2.88,1.36,1.77,4.47-.11,3.35-2.09-1.94-3.43-3.69-6.98-5.13-10.65-2.45-6.22-4.08-12.93-4-19.65.07-6.06,1.5-11.97,4.26-17.33,41.48-61.37,96.77-50.55,129.85-47.5,65.97,6.09,101.23,71.92,83.67,139.45-18,69.21-63.97,92.67-130.21,93.5-28.3.36-67.01-21.41-89.3-46.17.19-.14.38-.28.57-.43Z"/>
    <path class="cls-3" d="M1111.39,440.83c-13.22,0-29.62-4.84-46.27-13.68-16.23-8.61-31.29-20.16-42.41-32.52l-.06-.06.07-.05c.08-.06.15-.11.23-.17.11-.08.23-.17.34-.26h0c6.33-5.02,10.59-12.04,12.65-20.85,1.73-7.37,1.9-15.78.51-24.98-.73-4.86-.21-10.58.29-16.12.77-8.46,1.49-16.45-2.32-20.28-1.87-1.88-4.68-2.63-8.6-2.29h-.04s-.04-.03-.04-.03c-.06-.08,0-.24.51-1.59.57-1.49,1.43-3.73,1.95-5.83l.04-.17.1.15c.73,1.14,1.37,2.06,1.99,2.87.7.91,1.82.8,2.57.3.71-.47,1.19-1.36.66-2.3-2.08-3.69-3.76-7.17-5.14-10.66-2.73-6.93-4.07-13.55-4-19.68.07-6.16,1.51-12,4.27-17.36,38.55-57.03,89.07-51.77,122.5-48.28,2.6.27,5.06.53,7.42.74,14.46,1.34,27.82,5.56,39.7,12.56,11.33,6.68,21.02,15.69,28.82,26.79,9.23,13.15,15.53,29.09,18.2,46.1,2.77,17.63,1.77,35.83-2.97,54.09-4.4,16.93-10.67,31.64-18.63,43.71-7.67,11.64-17.23,21.3-28.41,28.72-20.74,13.77-47.97,20.68-83.24,21.12-.22,0-.45,0-.67,0ZM1022.87,394.59c11.11,12.32,26.13,23.83,42.31,32.42,16.91,8.98,33.56,13.82,46.87,13.66,35.24-.44,62.44-7.34,83.16-21.1,11.16-7.41,20.71-17.06,28.37-28.68,7.95-12.06,14.21-26.75,18.61-43.67,4.74-18.24,5.74-36.41,2.97-54.02-2.67-16.99-8.96-32.91-18.18-46.04-7.78-11.08-17.46-20.08-28.77-26.74-11.86-6.99-25.19-11.21-39.63-12.54-2.36-.22-4.82-.47-7.42-.75-33.39-3.48-83.86-8.73-122.35,48.21-2.74,5.33-4.18,11.15-4.25,17.28-.07,6.11,1.27,12.71,3.99,19.62,1.37,3.48,3.05,6.96,5.13,10.64.58,1.03.06,2-.71,2.51-.83.55-2.05.61-2.77-.34-.6-.78-1.21-1.66-1.9-2.74-.53,2.06-1.36,4.23-1.92,5.68-.25.65-.47,1.22-.51,1.41,3.92-.32,6.75.44,8.64,2.34,3.87,3.88,3.14,11.91,2.37,20.41-.5,5.52-1.02,11.24-.29,16.08,1.39,9.22,1.22,17.64-.51,25.03-2.07,8.85-6.35,15.89-12.71,20.94h0c-.11.09-.23.17-.34.26-.05.04-.11.08-.16.12Z"/>
  </g>
  <path class="cls-13" d="M970.97,687.82c17.58,1.72,2.12-3.48,18.21,3.78,4.38,1.97,8.86,3.73,13.43,5.25,26.97-56.77,48.67-203.62,48.67-203.62-5.49,1.31-68.05,15.33-84.81,54.97-9.86,23.31-31.37,66.31-39.98,108.85,2.45,3.08,21.48,28.53,44.49,30.78Z"/>
  <path class="cls-10" d="M1240.83,1449.96c-21.53-129.93,27.4-275.66,41.3-329.98,28.79-112.48,21.07-188.26-14.08-235.69l-294,22.86-1.12,52.44c-14.81,58.65,17.26,287.52,25.03,445.9"/>
  <path class="cls-13" d="M977.63,591.55c1.08-52.55,14.19-70.31,14.19-70.31,14.52-6.38,41.56-21.77,59.11-28.31,2.59-.96,11.1-5.7,11.43-5.16,8.66,14.2,24.83,31.19,43.29,33.13,6.62.69,2.73-13.7,8.92-13.89,21.14-.65,47.14-12.01,59.78-28.01l16.34,7.16,63.02,24.32-9.82,312.08,1.05,2.42c-34.5,13.33-69.19,26.32-104.99,35.73-41.85,11-85.84,17.38-128.95,10.65-9.86-1.54-25.43,38.76-34.94,35.79,2.3-10.48,12.3-92.31,12.1-103.37-1.13-61.03-4.25-63.21-6.35-65.71"/>
  <path class="cls-18" d="M1169.59,389.54s-12.38,50.35.57,84.71c1.8,4.79,5.22,4.27,5.22,4.27l-19.25,22.38c-4.41,4.97-20.08,19.91-37.21,26.42-31.49,11.98-39.01,2.1-47.48-.19-6.99-1.89-11.34-15.67-11.34-26.05l1.64-13.08s4.79-.03,6.07-5.92c1.28-5.89-3.02-50.61-3.02-50.61"/>
  <path class="cls-13" d="M994.68,803.62s-26.46,128.81-34.97,151.17c0,0,118.45,41.04,225.67,25.53,107.22-15.51,97.5-25.64,97.5-25.64l-38.46-133.97-3.22-45.8-233.41,18.47"/>
  <path class="cls-18" d="M1332.46,699.59c-4.16,2.05-8.43,3.85-12.69,5.54-6.29,2.5-12.67,4.71-19.07,6.84-3.75,1.25-7.5,2.47-11.33,3.38-6.37,1.52-12.86,2.41-19.37,2.9-8.06.6-16.13.59-24.2.49l23.97,130.04-29.85,236.71h54.06c7.78-28.04,55.45-178.09,55.44-238.39,0-13.22-9.62-108.14-16.95-147.51Z"/>
  <path class="cls-11" d="M971.46,589.85c1.8,3.7,2.82,7.91,3.5,11.95.99,5.9,1.02,11.74-.32,17.56-1.35,5.83-2.99,11.59-4.43,17.39-1.96,7.88-3.68,15.82-4.91,23.85-1.3,8.46-1.96,16.96-1.96,25.52.77-.34,1.55-.67,2.32-1.01-2.34-.41-4.66-1.05-6.92-1.79-3.8-1.26-7.94-3-10.53-6.18-.7-.85-3.48.2-2.68,1.18,2.71,3.32,6.98,5.16,10.93,6.52,2.42.83,4.93,1.54,7.45,1.98.6.1,2.32-.09,2.32-1.01,0-15.86,2.54-31.45,6.25-46.84,1.49-6.16,3.2-12.27,4.7-18.43.47-1.95.95-3.92,1.21-5.92.45-3.45.26-7.09-.13-10.54-.56-5.05-1.68-10.4-3.92-15.01-.53-1.09-3.37-.19-2.9.78h0Z"/>
  <path class="cls-18" d="M204.82,309.3s11.09,60.98.34,96.55c-1.72,5.71-30,21.06-30,21.06l8.38,8.79c7.24,7.59,20.92,13.61,30.75,17.25,48.93,18.15,117.31,20.79,138.37-9.63l-13.49-21.92-9.92-5.07c-1.73-6.81,4.83-67.03,4.83-67.03"/>
  <path class="cls-15" d="M308.3,1420.32l32.96-273.69,45.19-152.72-320.69-9.84-3.48,83.18c-.99,55.45,10.97,93.43,26.3,146.73l32.54,244.88"/>
  <path class="cls-15" d="M308.3,1420.32l-1.81-427,138.32-9.26-31.14,469.43"/>
  <path class="cls-13" d="M335.1,438.67c-2.34,8.67-7.72,21.02-24.63,23.57-25.26,3.8-50.83,2.89-81.74-20.68,0,0-21.69-19.21-24.96-33.4l-18.66,8.18c-11.78,5.2-33.99,14.16-55.98,24.4-23.37,8.41-63.71,29.2-79.63,66.14-14.57,40.46-23.2,110.11-30.9,178.4,19.15,7.15,31.05,14.74,51.74,15.93,1.13.06,3.04,2.93,4.42,3.03-5.4,40.62-13.94,120.4-16.34,140.73-6.25,52.86-17.32,128.05-13.03,161.91,4.29,33.85,197.99,51.4,269.53,43.74,71.54-7.67,130.21-11.54,136.74-31.7,1.05-3.23.26-63.55-2.18-71.35-3.27-37.04-.75-46.76-5.01-93.53l4.51-171.38c2.92,2.84,20.26,2.13,29.93.43,14.74-2.6,30.19-9.66,35.35-13.45-14.92-53.34-30.27-122.68-44.56-162.41-15.57-43.27-78.53-62.26-114.29-78.64l-20.65-9.68s-2.81-1.59-2.24.38"/>
  <path class="cls-5" d="M202.36,334.24c0,.13.03.24.04.36-.05-.15-.08-.28-.04-.36Z"/>
  <path class="cls-18" d="M290.71,405.85l41.47-2.4,20.65-5.13c2.11,0,11.82-21.48,13.2-24.2,4.28-8.47,10.15-19.86,12.7-29.02,2.74-9.81,7.89-20.21,9.13-31.98.91-8.62.37-12.51-4.52-26.43-1.24-3.54-1.35-7.08-.55-10.92,1.71-8.09,2.19-17.53,4.24-28.37.16-.85,1.07-4.97.72-5.89,0,0-1.98-45.05-10.43-60.98-8.45-15.93-17.75-23.07-29.65-25.88-11.91-2.82-46.8,0-46.8,0l-48.42-5.97-40.64,21.11-19.86,50.26,4.13,57.8,7.19,51.57"/>
  <path class="cls-23" d="M311.57,391.08c-.33.22-22.24-2.15-22.67-2.18l-11.38-5.12s-.06-.04-.07-.05c-1.02.42-2.22.5-3.59.06-7.11-2.3-13.35-6.12-19.35-10.49-5.4-3.93-11.76-16.08-17.9-18.81-2.91-1.29-1.91-2.19-4.38-3.99.23.64.17,4.48.41,5.12,11.31,14.07,26,41.51,49.38,51.24,1.14.28,4.73,1.22,14.28,1.85,12.53.82,20.77,1.21,32.97-.67.07-8.83-.72-19.26-.78-28.09-4.49,0-4.46,2.93-16.91,11.15Z"/>
  <path class="cls-3" d="M284.85,267.04c-2.66-1.37-5.76-.18-7.5,1.37-.41.36-1.51,1.4-2.02,3.15-.65,2.23.24,4.76,1.65,6.3,1.87,2.05,4.99,2.4,7.39,1.28,3.24-1.52,4.29-5.43,3.48-8.27-.15-.52-.85-2.71-3-3.82"/>
  <path class="cls-3" d="M364.36,268.45c2.65-1.38,5.76-.19,7.51,1.34.41.36,1.51,1.39,2.03,3.14.66,2.23-.23,4.76-1.63,6.3-1.87,2.06-4.99,2.41-7.38,1.3-3.25-1.51-4.31-5.42-3.51-8.26.15-.52.84-2.71,2.98-3.83"/>
  <path class="cls-3" d="M346.9,278.54s10.68-10.71,18.51-11.44c11.42-1.07,14.36,1.5,18.41,6.73,0,0-7.49-5.46-15.51-4.49-7.67.93-21.4,9.2-21.4,9.2Z"/>
  <path class="cls-3" d="M309.79,275.82s-16.03-10.08-23.89-10.27c-11.47-.28-25.12,6.5-28.81,12,0,0,18-9.98,26.07-9.57,7.72.4,26.62,7.84,26.62,7.84Z"/>
  <path class="cls-3" d="M312.3,239.03c1.49.72.95,1.86.94,4.6,0,.87.02,2.22.04,3.63.05,2.64-2.53,4.57-5.04,3.74-4.5-1.48-8.51-3.04-11.62-3.59-8.41-1.49-17.02-3.6-25.53-2.27-4.07.64-7.65,1.69-11.05,3.79-1.07.66-3.96,3.54-5.57,2.8-.66-.3.42-3.66.53-4.01,2.2-6.77,7.94-9.59,14.97-11.2,14.32-3.29,27.76.65,42.32,2.49"/>
  <path class="cls-3" d="M389.03,240.79s-4.27-.96-4.31-.97c-9.23-2.11-18.41-2.06-27.6-.83-4.66.63-8.03,4.8-7.81,9.49,0,.03,0,.05,0,.08.04.93-.34,3.79.27,4.52.12.14.29.22.46.29,1.86.76,3.97.74,5.93.3,2.43-.54,4.6-1.78,7-2.41,6.88-1.81,14.12-3.81,21.2-2.81.56.08,3.59.57,4.13.67,2.06-3.87,1.73-7.8.72-8.35Z"/>
  <g>
    <path class="cls-3" d="M338.12,323.38c-3.35,1.8-8.47,1.39-11.85-.75-.75-.47-3.25-.01-2.2.66,4.47,2.82,11.81,3.07,16.13.75.43-.23.35-.57-.19-.75-.56-.19-1.45-.15-1.9.1"/>
    <path class="cls-3" d="M322.61,322.31c-2.26-1.09-4.79-1.66-7.31-1.85-.37-.03-.85.12-1.12.36-.21.2-.26.46.02.62,1.16.68,2.65.96,4.01.94.43,0,1-.12,1.24-.5.22-.35-.19-.57-.53-.57-1.13.02-2.28-.2-3.24-.76-.37.33-.73.65-1.1.98,2.25.17,4.51.71,6.53,1.68.4.19.98.07,1.34-.15.27-.16.56-.54.15-.74"/>
    <path class="cls-3" d="M312.6,322.64c-2.95-.07-6.42-1.38-7.88-3.65-2.2-3.43-.16-8.75,3.52-10.94.4-.24.19-.55-.22-.64-.53-.12-1.16.09-1.57.34-3.21,1.92-5.28,6.26-4.8,9.48.46,3.01,3.28,5.1,6.82,5.97,1.05.26,2.17.43,3.27.46.45,0,1.25-.13,1.47-.49.22-.36-.19-.52-.61-.53"/>
    <path class="cls-3" d="M343.52,321.84c-.16-.35.13-.57.37-.57.8.02,1.61-.21,2.29-.77.26.33.52.65.78.98-1.6.18-3.19.72-4.62,1.7-.28.2-.69.07-.95-.15-.19-.16-.39-.54-.11-.74"/>
    <path class="cls-3" d="M341.29,322.28c1.59-1.09,3.38-1.67,5.17-1.87.26-.03.6.11.79.36.15.19.18.45-.01.62"/>
    <path class="cls-3" d="M349.65,322.24c1.92-.08,4.17-1.4,5.12-3.67,1.42-3.43.09-7.51-2.31-9.7-.26-.24-.12-.55.14-.64.34-.12.75.08,1.02.33,2.09,1.91,3.45,5.01,3.14,8.23-.29,3.01-2.12,5.11-4.42,5.99-.68.26-1.41.44-2.13.47-.29.01-.81-.13-.96-.48-.14-.36.12-.52.39-.53"/>
  </g>
  <path class="cls-25" d="M328.54,344.36c-13.18-.02-34.53-1.56-34.53-1.56,0,0,4.11,33.9,34.67,33.95,30.55.05,28.24-33.05,28.24-33.05,0,0-15.19.68-28.37.66Z"/>
  <path class="cls-27" d="M328.67,344.36c-6.27-.01-31.52-1.08-31.52-1.08,0,0,8.86,22.64,31.53,22.67,24.57.04,26.58-22.26,26.58-22.26l-26.59.67Z"/>
  <path class="cls-8" d="M326.92,343.69c-6.76-.01-27.34-1.07-27.34-1.07,0,0,7.56,8.27,27.85,8.3,20.29.03,26.58-8.02,26.58-8.02l-27.08.79Z"/>
  <path class="cls-25" d="M357.79,341.36c-.64-.16-1.66-.05-4.67-.32-5.01-.44-6.42-1.03-10.05-1.32-6.2-.49-10.14,1.96-12.83,1.96-2.69,0-6.63-2.47-12.82-2-3.63.27-12.62,1.59-17.63,2.01-3.01.25-6.53-.93-7.17-.77-.89.22.83,6.83,34.69,6.88s31.36-6.23,30.47-6.45Z"/>
  <path class="cls-24" d="M436.46,992.37c.24,0,.34-.31.04-.31-.24,0-.34.31-.04.31h0Z"/>
  <path class="cls-11" d="M455.98,557.67c0,13.61-.11,27.22-.58,40.82-.28,8.13-.71,16.26-1.46,24.35-.5,5.33-1.18,10.64-1.9,15.95-.72,5.34-1.41,10.68-1.91,16.05-.76,8.08-1.18,16.19-1.47,24.3-.05,1.34-.09,2.69-.13,4.03l.08.09c3.22,1.24,6.87,1.62,10.27,1.86,9.4.65,18.88-.8,27.92-3.32,8.11-2.26,16.31-4.87,23.77-8.83,1.55-.82,3.07-1.72,4.47-2.78.31-.23,1.14-.71,1.27-1.12.17-.49-.36-1.58-.48-2.05-.4-1.53-.8-3.05-1.21-4.58-.61-2.33-1.23-4.66-1.84-6.99-.14-.55-2,.15-2.27.25-.32.13.3-.11-.13.05s-.9.34-1.35.51c-1.5.55-3.01,1.08-4.53,1.58-4.99,1.66-10.06,3.09-15.19,4.22-9.91,2.18-20.42,3.48-30.59,2.77-1.4-.1-2.87-.19-4.24-.56-.61-.16-1.47.14-2.02.39-.25.12-.99.5-.38.67,1.19.32,2.47.41,3.69.52,3.97.33,7.96.25,11.93.02,12.34-.73,24.4-3.19,36.16-6.97,2.79-.89,5.57-1.84,8.29-2.93l-2.27.25c.63,2.41,1.27,4.82,1.9,7.23l1.23,4.67c.1.37.15,1,.35,1.33.11.18.04.33.19.05-.35.67-1.56,1.3-2.12,1.67-2.36,1.56-4.94,2.8-7.53,3.92-4.86,2.11-9.9,3.78-14.98,5.27-6.16,1.8-12.42,3.16-18.84,3.64-4.19.31-8.43.25-12.6-.33-1.28-.18-2.55-.4-3.8-.7-.61-.14-1.52-.27-1.98-.54-.07-.04-.29-.05-.34-.12-.03-.05.07-.74.08-.88.02-.62.04-1.24.06-1.87.07-2.12.15-4.25.25-6.37.16-3.53.34-7.05.58-10.57.36-5.35.84-10.69,1.48-16.02,1.06-8.89,2.43-17.74,3.2-26.67,1.52-17.56,1.73-35.24,1.83-52.85.02-3.4.03-6.8.03-10.2,0-.36-2.9.02-2.9.78h0Z"/>
  <path class="cls-3" d="M177.06,279.75s-11.4-23.31-13.6-72.81c-1.68-37.86,50.79-73.06,86.76-79.83,19.78-3.72,86.57,2.3,104.03,9.69,17.46,7.39,27.23,29.96,30.39,62.67,0,0-11.63-32.2-32.75-30.73-17.23,1.2-73.14-5.39-87.5,1.19-14.36,6.58-35.9,13.75-35.55,65.21.1,14.03-25.25,19.08-31.93,27.76-6.67,8.68-19.85,16.86-19.85,16.86Z"/>
  <path class="cls-3" d="M217.22,272.86c.35,4.36.73,21.72,1.34,25.97l-22.87.15c-7.29-14.8-16.05-32.2-18.77-36.15-4.26-6.16-5.73-36.57-6.29-48.01l-.12-2.47c-.56-10.97,9.59-28.69,27.15-47.39,19.33-20.58,54.27-32.89,89.03-31.35,3.3.15,6.6.42,9.8.8,30.25,3.62,55.68,17.84,75.58,42.26,14.35,17.61,15.83,38.1,15.01,50.65-1.51-24.68-10.75-41.84-11.15-42.56-8.76-16.58-19.46-21.12-26.89-22.02-6.48-.78-11.29,1.06-12.24,1.46-7.28,1.82-18.03,1.09-25.79.17-5.78-.69-10.38-1.56-11.63-1.8-3.96-2.57-9.84-4.37-17.02-5.23-16.68-2-40.68,1.52-45.45,8.87-5.29,8.15-16.92,37.02-16.83,43.69"/>
  <path class="cls-18" d="M208.52,335.16c-12.54,18.75-22.64-12.38-22.64-12.38-13.17-15.6-13.29-32.32-12.89-43.75.39-11.44,12.97-11.35,12.97-11.35,10.69,1.09,15.5,6.79,24.69,42.75"/>
  <path class="cls-19" d="M192.95,294.69c-4.02,1.2-5.08,5.01-4.85,8.84.06,1,.29,1.96.41,2.95.2,1.55.2,3.05.58,4.58.37,1.51.91,2.97,1.61,4.36,1.08,2.15,4.44,7.72,7.59,5.33,1.03-.78.83-2.23.64-3.35-.33-1.87-.95-3.68-1.43-5.52-.34-1.28-1.31-3.95-.36-5.18.36-.46.99-.2,1.57-.14.87.1,1.74.19,2.61.29.22.02,1.32-.14,1.18-.54-1.87-5.27-3.63-10.55-6.15-15.56-1.58-3.13-3.4-6.3-5.87-8.82-.93-.95-2.07-1.99-3.37-2.4s-1.94.55-2.58,1.48c-2.97,4.34-3.47,9.89-2.84,14.98.05.39,1.51.09,1.45-.39-.5-4.06-.28-8.27,1.35-12.07.57-1.34,1.31-2.76,2.37-3.79l-1.12.37s.49.15.76.29c.88.43,1.65,1.1,2.35,1.78,3.63,3.53,5.96,8.41,7.94,12.98,1.63,3.78,2.91,7.67,4.28,11.54l1.18-.54c-1.84-.2-5.76-1.35-6.67,1.07-.47,1.27-.03,2.9.27,4.15.42,1.74.98,3.44,1.4,5.18.27,1.13.77,2.76.13,3.84-.16.28-.02.18-.33.09-.37-.11-.71-.3-1.02-.52-.81-.56-1.48-1.32-2.08-2.09-1.62-2.11-2.74-4.64-3.37-7.21-.43-1.74-.4-3.5-.72-5.24-.61-3.32-.75-8.93,3.29-10.13.84-.25.7-.86-.16-.6h0Z"/>
  <path class="cls-18" d="M348.22,383.03c-.28-.03-.56-.13-.79-.28-4.46-2.84-4.84-4.48-7.01-4.96-.5-.11-.76-.28-2.31-.47-6.24-.76-10.04-1.33-26.54,9.55-.33.22-22.24-2.15-22.67-2.18l-11.38-5.12c-1.91-1.13-44.84-35.96-44.84-35.96-.66-1.18-8.46-9.5-8.79-10.63-.13-.06-.26-.14-.4-.19-.05-.02-.16-.06-.27-.11-.02.07-.04.17-.06.23-.07.49-.05,1-.01,1.49.14,2.13.65-11.72,1.32-9.69,1.04,3.11,1.79,7.28,2.7,10.41.32,1.11,4.11,16.57,4.53,17.64,4.87,2.91,31.12,44.04,52.73,50.41,1.14.28,2.31.69,11.86,1.32,17.93,1.18,37.22,1.84,54.75-3.6,4.57-1.42,8.22-4.77,9.99-9.07,5.05-12.27,14.18-40.55,16.71-58.78-4.68,10.63-14.57,33.39-21.38,48.88-.21.47-7,.97-7.56,1.14"/>
  <path class="cls-7" d="M1066.81,459.15c-.06-8.88-.62-7.57-.8-16.68-.01-.77-.12-1.47-.26-2.15,26.68-.26,64.27-12.86,86.77-13.41-.84.64-1.99,18.58-14.42,29.79-19.98,18-34.92,20.95-54.15,22.3l-9.67-.22s-6.01.19-6.13-.68l.11-18.96h-1.44Z"/>
  <g>
    <path class="cls-18" d="M1174.31,394.99c.64-10.23-1.62-12.47,1.96-22.11,2.71-7.3,14.14-19.58,19.47-25.25,4.31-2.21,10.04.25,13.23,3.66l.58,1.28c5.02,8.92.7,29.12-12.27,41.37-2.89,13.69-19.04,14.29-25.52,8.72.05-2.49,2.4-5.18,2.56-7.67Z"/>
    <path class="cls-18" d="M1016.56,384.07c.63-5.94,5.92-15.45,5.47-21.14-.52-6.57-4.92-37.04.83-57.11,2.43-8.47,4.88-15.47,7.04-21,.25-.2.46-.47.6-.84.47-1.25,1.13-2.7,1.7-3.73,6.21-11.18,18.92-17.37,30.75-21.2,6.67-2.16,11.8-14.9,18.73-15.92,4.1-.61,10.16,10.2,14.34,9.93-.18.39-.17.54.2.29,0,.19,1.12-.08,2.31-.43,1.21-.06,2.41-.1,3.58-.12-.03.08-.06.15-.11.22-.08.51-.46,1.48-.86,1.49,2.69,1.2,5.81.33,8.47-1.35-.88.84-1.32,1.67-1.76,2.08,2.23-.03,4.02.36,6.23-1.32,0,.41-.87,1.66-1.32,1.66,2.24.79,4.91.34,7.13-.92,0,.41-.88,1.25-1.32,1.66,1.78.39,3.57.36,5.34-.9l-1.32,1.66c1.78-.02,3.13.78,5.8-.08,0,.41-.89.83-.88,1.25,1.34-.02,3.13-.04,4.46-.47,0,.41-1.32,1.25-.88,1.25,1.59-.02,2.83.6,4.65.14.12.05.25.11.37.17-.33.43-.65.97-.99,1.28,1.24-.02,2.47.15,3.71-.02.41.2.81.4,1.22.61-.14.22-.29.43-.45.58.69,0,1.32.1,1.96.2.63.33,1.26.67,1.88,1.02.12.07.24.14.36.21-.06.06-.12.11-.17.16.15,0,.3,0,.46,0,13.28,7.6,24.51,18.3,33.86,30.26,7,8.95,13,18.65,18,28.84.1,2.32.06,4.35,0,5.92-.07,1.47-.63,3.75-1.5,6.47-3.93,4.47-7.18,9.45-9.73,14.86-5.11,10.86-7.2,22.96-7.61,34.88-.3,8.51-3.47,8.34-2.47,16.79l-5.44,14.87-7.2,16.67c-20.21,23.37-45.14,37.94-65.18,40.94-6.6.99-20.34.77-28.64.52-5.64-.17-11.24-1.52-16.02-4.51-24.41-15.21-38.62-57.09-35.59-85.82Z"/>
  </g>
  <path class="cls-19" d="M1188.07,378.73c1.84-4.76,3.9-9.48,6.56-13.84,1.38-2.26,2.93-4.51,4.9-6.3.5-.46,1.04-.89,1.62-1.24.22-.13.45-.25.52-.28s.15-.07.23-.1c.24-.09-.07.02.08-.03.69-.24-.45.2-.36-.13-.04.15.95,1.39,1.04,1.56,2.19,4.04,2.32,8.87,1.54,13.31-.09.5,1.36.26,1.44-.2.77-4.35.69-9.05-1.31-13.07-.31-.62-.73-1.64-1.31-2.08-.3-.23-.62-.17-.97-.1-3.36.73-5.97,4.43-7.73,7.06-3.24,4.83-5.6,10.24-7.69,15.64-.16.42,1.27.25,1.44-.2h0Z"/>
  <path class="cls-19" d="M1187.04,379.28c1.34-.08,3.22-.02,3.56,1.6.26,1.25-.31,2.64-.69,3.81-.8,2.46-2.25,5.94-.12,8.14,2.43,2.5,5.83-1.39,6.96-3.35,1.78-3.11,2.55-6.73,2.1-10.28-.45-3.47-1.5-8.45-5.22-9.82-.28-.1-.66-.02-.93.09-.05.02-.66.31-.44.4,3.27,1.2,4.38,5.27,4.93,8.35s.42,5.89-.68,8.92c-.7,1.93-1.74,3.99-3.35,5.31-.49.4-.86.69-1.45.36s-1.07-1.05-1.31-1.69c-.98-2.63.7-5.63,1.37-8.14.27-1.01.62-2.35-.06-3.28-.86-1.17-2.77-1.06-4.04-.99-.38.02-1.58.62-.63.56h0Z"/>
  <path class="cls-20" d="M1040.19,348.94c-2.47-1.52-5.51-1.89-7.29-.5-.42.32-1.55,1.26-2.16,2.93-.78,2.14-.1,4.67,1.15,6.26,1.66,2.13,4.64,2.69,7.03,1.76,3.23-1.26,4.52-5,3.93-7.83-.11-.52-.66-1.39-2.65-2.62"/>
  <path class="cls-20" d="M1113.93,350.62c2.65-1.16,5.57.21,7.14,1.83.37.38,1.36,1.46,1.73,3.21.48,2.22-.55,4.63-2.01,6.04-1.94,1.88-4.97,2.01-7.2.76-3.02-1.7-3.78-5.58-2.8-8.3.18-.5,1-2.59,3.14-3.53"/>
  <path class="cls-20" d="M1090.8,358.2s14.19-8.96,21.13-9.16c12.52-.35,23.58,7.59,26.82,12.51,0,0-17.28-10.69-24.41-10.33-6.82.34-23.54,6.98-23.54,6.98Z"/>
  <g>
    <path class="cls-3" d="M1059.66,398.42c2.79,1.57,7.15,1.4,10.08-.23.65-.36,2.76.09,1.84.6-3.87,2.15-10.11,2.12-13.72.1-.36-.2-.28-.47.18-.6.48-.14,1.23-.08,1.61.14"/>
    <path class="cls-3" d="M1072.85,398.04c1.95-.81,4.11-1.19,6.26-1.27.31,0,.72.12.94.33.17.17.2.38-.04.5-1.01.52-2.28.7-3.43.63-.36-.02-.84-.13-1.04-.44-.18-.29.18-.46.46-.45.95.05,1.94-.09,2.77-.52.3.28.6.55.91.83-1.92.07-3.85.43-5.59,1.16-.35.14-.83.02-1.13-.17-.22-.14-.46-.46-.11-.61"/>
    <path class="cls-3" d="M1081.34,398.63c2.51.04,5.49-.92,6.79-2.71,1.96-2.71.39-7.46-2.67-9.36-.33-.21-.14-.45.2-.51.45-.08.98.11,1.33.32,2.67,1.66,4.3,5.62,3.79,8.21-.47,2.43-2.93,4.04-5.96,4.63-.9.17-1.85.28-2.79.27-.38,0-1.06-.14-1.23-.44-.18-.3.17-.42.53-.41"/>
    <path class="cls-3" d="M1055.12,397c.14-.28-.1-.47-.3-.47-.68,0-1.36-.22-1.92-.7-.23.26-.46.51-.69.77,1.35.2,2.69.68,3.87,1.52.23.17.59.08.81-.09.17-.13.35-.43.11-.6"/>
    <path class="cls-3" d="M1057,397.43c-1.32-.94-2.82-1.46-4.33-1.68-.22-.03-.51.07-.68.27-.13.15-.17.36,0,.5"/>
    <path class="cls-3" d="M1049.91,397.13c-1.63-.12-3.5-1.27-4.24-3.14-1.11-2.83.14-6.1,2.24-7.8.23-.19.12-.44-.1-.52-.29-.11-.64.04-.88.24-1.83,1.48-3.07,3.96-2.9,6.58.16,2.45,1.65,4.22,3.58,5,.57.23,1.18.4,1.79.45.25.02.69-.08.83-.36.13-.29-.09-.43-.32-.44"/>
  </g>
  <path class="cls-20" d="M1053.8,357.74s-11.91-10.4-18.22-11.36c-9.21-1.39-12.49,1.99-16,6.42,0,0,7.1-5.74,13.56-4.57,6.18,1.12,20.66,9.51,20.66,9.51Z"/>
  <path class="cls-25" d="M1062.58,415.1c13.26.06,39.17-1.38,39.17-1.38,0,0,0,32.62-34.21,31.13-30.71-1.33-27.87-30.92-27.87-30.92,0,0,9.65,1.1,22.91,1.16Z"/>
  <path class="cls-9" d="M1062.45,415.1c6.3.03,36.13-.87,36.13-.87,0,0-5.19,21.43-32.63,21.19-23.95-.21-22.23-21.11-22.23-21.11l18.72.79Z"/>
  <path class="cls-21" d="M1062.17,416.09c6.3.08,6.32.37,29.91-.9,0,0-6.94,7.22-25.85,7.14-18.91-.08-25.65-7.11-25.65-7.11l21.6.87Z"/>
  <path class="cls-25" d="M1038.29,414.22c.67-.17.79,0,4.56-2.11,1.34-.75,2.61-1.84,6.39-2.13,6.46-.49,10.54,2.2,13.35,2.21,2.81.01,6.92-2.64,13.37-2.09,3.78.32,14.5,1.9,19.71,2.39,3.13.3,6.8-.97,7.47-.79.93.24-.91,7.42-36.18,7.26-35.27-.16-29.61-4.5-28.67-4.74Z"/>
  <ellipse class="cls-22" cx="1184.34" cy="407.01" rx="7.69" ry="7.96" transform="translate(-49.23 191.11) rotate(-9.04)"/>
  <path class="cls-3" d="M1093.26,327.88c19.43-2.11,26.42-.89,39.94,3.23,5.2,1.59,8.89,4.19,11.09,9.24.33.75,1.7,5.14.37,5.57-1.49.49-3.66-3.39-4.55-4.21-3.22-2.96-7.13-3.65-11.15-4.2-7.39-1.02-15.64-1.26-23.04-1.06-3.73.1-8.06,1.27-13.94,2.02-1.03-.73-.56-4.63-.2-6.68.47-2.69.09-.4.56-3.07,0,0-.23-.7.92-.83Z"/>
  <path class="cls-3" d="M1019.18,329.74c-.14-.97-.28-2.24-.29-3.05,0-.58.03-1.16.1-1.74,10.36-1.22,17.68-.72,33.42,3.61,1.08.3.75.96.75.96.05,2.72.03.39.07,3.13.03,2.08-.11,6.01-1.21,6.57-5.53-1.63-9.51-3.45-13.07-4.11-6.12-1.15-12.89-2.04-19.3-2.34-.16-1.01-.33-2.01-.48-3.02Z"/>
  <path class="cls-3" d="M1239.08,311.67c-11.6-17.29-24.57-34.07-41.41-46.3-15.78-11.46-34.3-18.45-52.74-24.82-12.4-4.29-24.99-8.38-38.03-9.88-13.04-1.5-26.69-.26-38.39,5.68-9.77,4.95-17.96,13.02-28.4,16.33-1.23.39-2.59.71-3.79.22-1.41-.57-3.38,2.62-3.89,1.18-2.89-8.16.95-19.5,7.14-25.56,6.19-6.05,15.74-8.1,23.68-8.11,1.98-7.63,10.12-12.23,17.41-15.23,7.29-3,18.06-2.8,24.84,1.23,1.39.83-1.59.3,0,0,1.03-.2,1.86-.91,2.67-1.58,4.92-4.11,10.56-7.57,16.83-8.88,6.27-1.32,13.25-.25,18.18,3.85,1.65,1.37,3.09,3.08,5.05,3.95,4.22,1.89,8.95-.66,13.46-1.69,6.74-1.54,14.21.65,19.05,5.58,1.42,1.44,2.74,3.18,4.69,3.72,1.27.35,2.63.13,3.93-.13,4.04-.84,5.89-.05,9.74,1.41,10.85,4.1,14.93,8.22,15.58,17.09.07.97,1.73,1.79,2.37,2.51.7.79,1.85.94,2.9.99,5.96.29,8.63,4.52,13.33,8.19,4.8,3.74,9.01,19.67,8.95,25.76-.05,5.55-.11-2.81-3.47,1.61,0,0,4.92-3.22,9.41,1.4,4.49,4.62,12.83,21.49,8.2,36.68-4.64,15.2-6.89,14.41-6.89,14.41,0,0,.74,20.64.37,27.76-.38,7.11-10.95,20.68-24.2,21.62,0,0,7.21-.14,7.91,4.27.7,4.42,1.96,4.92-2.91,5.32-4.87.4,8.42-68.57,8.42-68.57Z"/>
  <path class="cls-3" d="M1199.79,330.77c-5.2,9.56-10.4,19.11-15.59,28.67-2.79,5.13-3.66,14.39-7.63,10.1-2.21-2.39-3.15-10.4-2.15-13.5,3.01-9.36,5.94-26.44,8.96-35.8-9.42-.35-22.78-11.64-26.15-20.44-3.37-8.8-1.44-12.56-1.13-21.98-4.21,5.77-13.24,5.93-19.38,2.3-6.15-3.63-10.1-9.97-13.81-16.07-2.88,6.2-17.39,5.81-23.53,2.8-6.14-3.01-7.1-3.6-9.84-9.87-2.73-6.27-2.55-8.05-2.94-14.01-.89,9.2-8.84,17.03-12.47,18.53-8.54,3.54-19.94,5.19-27.02-.76,1.98,4.56-.32,10.08-4.11,13.3-3.79,3.21-8.76,4.62-13.58,5.82-.99.25-2.06.49-3.01.12-2.59-.98-1.93-4.82-.67-7.28,12.64-24.65,39.44-41.38,67.14-41.9,25.48-.48,49.45,11.59,71.05,25.12,14.69,9.21,29.82,20.51,34.67,37.16"/>
  <path class="cls-3" d="M1171.29,309.03c-3.03,3.07-3.44,7.96-2.33,12.12.73,2.74,2.07,5.37,4.1,7.35,2.03,1.98,4.79,3.29,7.63,3.28.46,0,.96-.05,1.3-.36.26-.24.38-.58.49-.91,1.83-5.6,2.82-11.46,2.92-17.35.02-.93,0-1.9-.45-2.72-1.39-2.5-5.45-1.64-7.56-3.58"/>
  <path class="cls-11" d="M200.91,409.76c2.02,4.92,5.11,9.54,8.25,13.78,7.68,10.37,17.5,19.12,28.61,25.68,16.61,9.82,35.8,14.41,54.99,15.03,14.43.47,33.37-1.72,40.29-16.57,4.08-8.76,2.91-18.74,1.09-27.92-.15-.77-.31-1.53-.45-2.3-.87.37-1.73.74-2.6,1.11,3.41,1.61,6.81,3.22,10.22,4.83.83.39,1.66.78,2.49,1.18.19.09.42.25.62.29.46.1-.23.22-.1-.23-.03.11.21.52.25.62,1.36,3.49,2.25,7.2,2.75,10.91.83,6.1.47,12.42-1.67,18.24-2.8,7.61-8.66,13.43-15.74,17.2-11.65,6.22-25.68,7.6-38.67,7.8-13.37.2-26.78-1.5-39.54-5.57-10.37-3.31-20.22-8.2-29.14-14.45-7.31-5.12-13.97-11.17-19.85-17.88-4.35-4.97-8.29-10.3-11.71-15.95-1.08-1.78-2.1-3.59-3.05-5.44-.52-1.01-.93-2.1-1.49-3.09-.07-.13-.12-.27-.18-.41l-.87,1.02c5.84-2.55,11.68-5.1,17.52-7.65.42-.18,1.16-.68.76-1.21s-1.47-.25-1.92-.05c-5.84,2.55-11.68,5.1-17.52,7.65-.29.13-1.05.56-.87,1.02.89,2.17,2.03,4.25,3.17,6.29,2.99,5.33,6.44,10.4,10.27,15.16,5.45,6.79,11.67,12.98,18.53,18.35,8.43,6.6,17.79,11.98,27.78,15.86,12.18,4.74,25.11,7.27,38.15,7.9,7.71.37,15.48.13,23.15-.74,6.84-.78,13.64-2.14,20.11-4.5,8.6-3.14,16.78-8.41,21.52-16.44,3.46-5.87,4.77-12.65,4.51-19.4-.18-4.7-1.07-9.39-2.57-13.85-.23-.68-.42-1.57-.81-2.18-.25-.38-.66-.5-1.07-.69-.82-.39-1.63-.77-2.45-1.16-2.24-1.06-4.47-2.11-6.71-3.17-1.2-.57-2.41-1.14-3.61-1.71-.67-.32-2.8.03-2.6,1.11,1.62,8.49,3.31,17.23.87,25.75-1.47,5.15-4.58,9.67-9.04,12.69-6.63,4.48-15.04,5.7-22.88,5.91-19.22.5-38.99-3.63-55.99-12.72-11.58-6.19-21.87-14.73-30.03-25.02-2.61-3.29-5-6.75-7.1-10.38-.98-1.69-1.8-3.49-2.71-5.24-.04-.08-.07-.16-.1-.24-.43-1.04-3.29-.18-2.9.78Z"/>
  <path class="cls-11" d="M1173.95,478.77c-3.66,5.27-7.87,10.21-12.17,14.96-9.23,10.19-19.57,19.61-31.26,26.9-6.21,3.87-12.87,7.16-19.92,9.19-7.52,2.17-15.36,2.7-23.13,1.69-6.18-.81-12.43-2.7-17.27-6.78-3.66-3.08-6.12-7.24-7.41-11.82-2.24-7.92-1.19-16.29.21-24.26.12-.68.24-1.37.35-2.05.09-.55-2.36.26-2.55.37-2.65,1.43-5.3,2.87-7.95,4.3-1.22.66-2.5,1.26-3.68,1.99-.28.17-.44.31-.59.58-.43.78-.66,1.78-.93,2.62-.52,1.66-.93,3.35-1.24,5.06-.88,4.8-1.01,9.76,0,14.55,1.3,6.13,4.54,11.61,9.18,15.81,6.89,6.25,16.1,9.48,25.07,11.33,5.59,1.15,11.29,1.88,17,1.74,5.22-.13,10.39-.88,15.46-2.1,10.18-2.45,19.84-6.82,28.81-12.16,8.63-5.14,16.69-11.21,24.24-17.8,6.08-5.31,11.86-10.97,17.32-16.92,2.85-3.11,5.65-6.3,8.26-9.61.12-.15.24-.3.35-.45.05-.09.03-.17-.06-.22-5.1-2.55-10.2-5.1-15.3-7.65-.53-.26-1.35,0-1.86.18-.12.04-1.3.57-.87.79,2.74,1.37,5.47,2.74,8.21,4.11,1.74.87,3.48,1.74,5.22,2.61.47.24,1.03.64,1.54.77.45.11.14.22.25-.03-.42.89-1.41,1.76-2.03,2.51-1.65,1.99-3.34,3.94-5.07,5.85-5.7,6.33-11.76,12.33-18.16,17.95-8.1,7.11-16.78,13.62-26.15,18.98-9.61,5.5-20.07,9.85-31.08,11.44-5.55.8-11.18.84-16.74.1-6.2-.83-12.39-2.14-18.24-4.4-7.66-2.96-14.92-7.71-19.14-14.93-3.01-5.14-4.22-11.11-4.02-17.03.14-4.06.9-8.11,2.2-11.96.16-.46.32-.91.5-1.36.24-.62.26-.27-.12-.2.32-.06.72-.39,1-.54l2.26-1.22,5.59-3.03c.99-.54,1.98-1.07,2.97-1.61-.85.12-1.7.24-2.55.37-1.32,7.91-2.72,15.92-1.14,23.91.92,4.66,2.91,9.05,6.18,12.54,4.1,4.38,9.78,6.83,15.56,8.08,15.71,3.39,31.73-.38,45.7-7.8,12.84-6.82,24.14-16.42,34.15-26.89,3.74-3.91,7.32-7.98,10.71-12.19,1.11-1.38,2.21-2.78,3.28-4.2.56-.74,1.23-1.49,1.69-2.3.06-.1.14-.2.21-.3.29-.42-1.05-.26-1.15-.25-.54.09-1.37.28-1.7.77Z"/>
  <path class="cls-18" d="M933.99,635.81c6.37,15.76,18.42,37.51,21.32,54.25,1.26,7.31-3.45,8.59-4.28,15.95-2.26,20.28,22.47,52-5.49,63.6-9.3,3.86-20.18,2.07-29.2-2.42-42.41-21.16-45.32-90.62-51.45-125.73-3.52-20.2-14.56-104.31-14.96-124.8l2.02-12.82,35.44-1.4,34.76,98.87"/>
  <path class="cls-13" d="M1244.7,727.57l-13.88-70.87,5.3-152.71s52.76,11.86,70.65,55.56c9.18,26.66,23.67,86.66,34.56,139.26,0,0-9.64,11.25-38.81,20.28-29.17,9.03-55.64,8.48-55.64,8.48"/>
  <path class="cls-11" d="M1248.33,540.1c-10.22,2.72-16.97,11.29-21.06,20.6-2.2,5.01-3.71,10.28-4.89,15.61-1.58,7.07-2.75,14.24-3.52,21.45-2.95,27.74.45,55.58,6.17,82.75,3.35,15.92,7.42,31.68,11.42,47.45.1.39.57.62.94.63,13.03.25,26.21-.87,39.08-2.79,10.98-1.64,21.85-4.06,32.32-7.79,7.64-2.73,15.68-5.29,22.69-9.46,4.09-2.44,7.24-6.02,10.82-9.11.31-.27.59-.57.5-1.01-.97-4.59-1.93-9.18-2.9-13.78-.17-.83-1.57-.71-2.08-.43-9.59,5.37-19.57,10.16-29.68,14.47-8.14,3.47-16.45,6.57-25.04,8.71-9.55,2.38-19.31,3.83-29.11,4.71-5.16.46-10.35.82-15.53.83-1.62,0-2.25,2.04-.28,2.04,13.81-.02,27.86-1.74,41.32-4.71,16.94-3.74,33.01-10.84,48.46-18.59,3.74-1.88,7.46-3.79,11.11-5.83-.69-.14-1.39-.28-2.08-.43.97,4.59,1.93,9.18,2.9,13.78l.5-1.01c-3.2,2.77-5.85,5.81-9.25,8.12-5.55,3.77-12.58,6.06-18.93,8.39-10.49,3.84-21.14,6.74-32.17,8.56-9.2,1.52-18.5,2.47-27.82,2.96-3.38.18-6.77.3-10.15.35-.98.01-1.96.02-2.93.02-.15,0-.29,0-.44,0,.46,0,.06-.07,0,0-.03.03-.23,0-.28,0l.94.63c-6.81-26.85-13.94-53.79-17.08-81.37-1.54-13.53-2.06-27.19-1.13-40.79.47-6.97,1.31-13.91,2.54-20.79,1.07-5.98,2.29-12,4.25-17.77,3.48-10.27,9.68-21.47,20.93-24.46,1.78-.47,1.28-2.38-.51-1.9h0Z"/>
  <path class="cls-13" d="M981.8,738.08s-13.64-20.07-15.25-33.53c-1.6-13.47-.45-28.01-.45-28.01l24.84,9.46-9.14,52.08Z"/>
  <path class="cls-23" d="M938.78,653.67c3.91,5.61,6.51,12.17,9.03,18.49,3.3,8.27,6.28,16.67,9.38,25.01.19.52,1.63.1,1.45-.39-3.15-8.48-6.18-17.02-9.55-25.42-2.51-6.25-5.1-12.72-8.97-18.27-.29-.41-1.69.08-1.34.57h0Z"/>
  <path class="cls-18" d="M472.32,669.09c-8.29,18.14-14.39,36.24-18.66,55.72-1.87,8.51,4.15,4.25,4.74,12.91.5,7.4-6.95,19.28-4.94,26.44,0,.03-3.51-2.44-3.49-2.41,6.5,8.42,21.09,18.24,25.27,19.22,21.04,4.94,34.92,1.95,50.67-11.59,19.14-16.47,28.62-66.98,34.81-89.86,6.29-23.22,26.24-154.95,27.78-178.96l-10.1,18.07-42.04-18.65-45.37,129.26"/>
  <path class="cls-11" d="M966.75,669.28c-6.79-.5-14.01-2.14-20.04-5.38.46.73.92,1.47,1.39,2.18.15.22.21.47.22.72.32.12.64.24.96.35,4.01,1.4,8.19,2.32,12.4,2.88.89.12,1.78.23,2.67.3.68.05,1.4-.11,2.02-.4.17-.08,1.04-.61.38-.66Z"/>
  <path class="cls-23" d="M464.69,684.66c-.95,2.25-1.63,4.63-2.24,6.98-1.6,6.14-2.49,12.46-2.82,18.8-.05,1,2.14.61,2.19-.22.32-6.24,1.19-12.47,2.75-18.53.59-2.31,1.26-4.72,2.17-6.89.44-1.05-1.73-.89-2.05-.14h0Z"/>
  <path class="cls-18" d="M31.86,692.39c5.38,1.78,12.84,3.17,18.29,4.5,8.03,1.97,16.13,3.58,24.23,5.09,4.75.88,9.48,1.73,14.28,2.19,7.97.77,15.97.76,23.92.26,9.85-.62,19.62-1.99,29.37-3.46l-12.62,139.9,10.17,41.77c1.99,8.19,3.52,16.49,4.57,24.85l24.46,194.85-69.25,20.06c-44.52-190.22-63.82-210.79-71.62-269.8-7.06-53.4,1.92-111.35,4.21-160.23Z"/>
  <path class="cls-13" d="M27.88,609.72l-12.19,101.93s71.57,21.34,151.8,9.44c79.16-11.74,64.72-85.91,64.72-85.91l-204.34-25.45Z"/>
  <path class="cls-11" d="M134.52,488.34c5.13,1.09,9.39,5.08,12.79,8.84,4.61,5.1,8.39,10.95,11.7,16.95s6.32,12.53,8.72,19.11c1.84,5.03,3.56,10.31,4.08,15.67.68,7.07.55,14.31.54,21.41-.01,8.25-.24,16.49-.61,24.73-.82,18.33-2.3,36.63-4.03,54.9-1.99,21.01-4.32,41.99-6.7,62.96-.32,2.79-.63,5.58-.95,8.37l1.27-.87c-.32.08-.65.16-.97.23-.4.09-.8.18-1.2.26-.12.02-.23.05-.35.07-.4.08.18-.04-.08.02-.32.06-.63.13-.95.19-3.68.7-7.4,1.25-11.12,1.71-13.85,1.69-27.85,2.05-41.78,1.54-19.92-.73-39.59-3.67-59.22-6.94-6.05-1.01-12.09-2.06-18.09-3.28-1.85-.38-3.71-.77-5.55-1.2-.68-.16-1.37-.33-2.05-.5-.27-.07-.54-.14-.81-.21-.16-.04-.78-.22-.63-.17-.72-.21-1.43-.42-2.13-.69-.21-.08-.41-.17-.61-.26-.11-.05-.59-.28-.23-.11-.02,0-.22-.16-.21-.17.01-.01,0,.05.03.03,0,0-.31.48-.48.62.1-.09-.4.18-.3.14.29-.11.83-.38.89-.74,1.05-6.76,2.1-13.52,3.15-20.28-.87.29-1.74.58-2.61.87,4.05,1.96,8.36,3.45,12.62,4.85,11.28,3.73,22.92,6.38,34.67,8.14,16.72,2.51,33.59,2.84,50.48,2.69,11.94-.11,23.88-.52,35.78-1.59,4.36-.39,8.76-.79,13.07-1.59.05,0,.1-.02.15-.03.43-.08,1.63-.34,1.66-.95s-.8-.64-1.23-.55c-3.36.64-6.79.98-10.18,1.33-10.65,1.08-21.37,1.54-32.07,1.74-16.84.32-33.77.29-50.5-1.82-12.41-1.57-24.74-4.1-36.69-7.83-3.54-1.1-7.05-2.31-10.5-3.67-1.59-.62-3.13-1.38-4.72-1.99-.07-.03-.13-.06-.2-.09-.61-.29-2.47.03-2.61.87-1.05,6.76-2.1,13.52-3.15,20.28l.89-.74c-.44.17-1.15.59-.98,1.16.2.64,1.43.96,1.96,1.15,2.23.8,4.57,1.32,6.88,1.84,4.93,1.11,9.9,2.03,14.88,2.91,19.36,3.43,38.85,6.59,58.49,7.85,15.66,1.01,31.43.94,47.05-.64,6.55-.66,13.3-1.39,19.69-3.07.08-.02.16-.04.24-.06.35-.09,1.21-.4,1.27-.87,2.47-21.6,4.91-43.2,7.03-64.83,1.85-18.81,3.46-37.66,4.43-56.54.81-15.95,1.19-31.95.5-47.92-.23-5.44-1.39-10.56-3.08-15.73-2.15-6.54-4.89-12.9-8.04-19.03-3.22-6.27-6.9-12.39-11.32-17.9-3.5-4.36-7.67-8.77-12.88-11.05-1.04-.46-2.14-.81-3.25-1.04-.63-.13-1.58.09-2.05.55-.43.41-.36.82.25.95h0Z"/>
  <g>
    <path class="cls-16" d="M306.41,599.82c-17.37,0-31.54-14.23-31.54-31.7s14.17-31.65,31.54-31.65,31.54,14.23,31.54,31.7-14.12,31.7-31.54,31.7v-.05ZM306.41,544.16c-13.15,0-23.86,10.77-23.86,23.97s10.71,23.97,23.86,23.97,23.86-10.77,23.86-23.97-10.71-23.97-23.86-23.97Z"/>
    <path class="cls-6" d="M399.78,653.49c-4.76-.76-18.28-.97-28.51.43-27.54,3.73-51.72,19.42-55.56,22.02h-1.57c-3.84-2.49-28.56-17.91-56.15-21.58-11.47-1.51-19.04-1.46-24.02-1.41h-4.27c-1.03,0-1.84.81-1.89,1.84,0,1.03.76,1.95,1.84,2h4.38c4.92,0,12.33-.11,23.53,1.41,28.51,3.79,54.8,21.15,55.07,21.31l.49.32h3.9l.49-.32c.27-.16,25.97-17.85,54.42-21.69,9.9-1.35,22.88-1.14,27.43-.43,1.03.16,2-.54,2.16-1.57s-.54-2-1.57-2.16h0l-.16-.16Z"/>
    <g>
      <path class="cls-6" d="M307.76,681.35c-7.84-4.38-24.78-12.55-46.2-15.63-29.92-4.27-39-1.3-39-1.3l13.25,45.01s34.68-7.47,71.95,12.06v-40.14h0Z"/>
      <path class="cls-6" d="M369.75,664.96c-21.86,2.33-38.84,11.52-46.47,16.39v40.36c33.81-17.85,72.22-12.17,72.22-12.17l13.25-45.01s-8.98-2.76-39,.49v-.05Z"/>
      <path class="cls-6" d="M318.85,684.22h-6.33s-.11-.05-.32-.22v38.79h6.65v-38.63h0v.05Z"/>
    </g>
    <g>
      <path class="cls-16" d="M321.12,574.67c-.27-.27-.7-.38-1.41-.32-.54.05-1.08.49-1.57.87-.27.22-.54.43-.76.54-4.6,2.49-10.33,3.19-16.18,2-2.27-.49-4.38-1.51-6.33-2.54-.27-.16-.54-.32-.81-.54-.7-.49-1.46-1.03-2.06-.49-.65.65-.81,1.73-.32,2.87.05.16.16.27.22.43.05.11.16.22.22.32,2.38,4.87,8.87,6.6,14.17,6.6h0c6.11,0,10.71-2,13.69-5.95.54-.7.92-1.51,1.14-2.33.11-.49.22-1.14-.11-1.51l.11.05Z"/>
      <path class="cls-16" d="M293.04,567.37c.76.16,1.46-.11,2-.76v-.11c.6-.6,1.14-1.24,1.68-1.79.76-.65,1.35-.65,2.16,0,.65.54,1.24,1.24,1.62,1.79.49.6,1.08.92,1.73.92s.76-.11,1.08-.38c.43-.32.76-.76.81-1.3.11-.54,0-1.08-.38-1.51-.7-.92-1.35-1.68-2.06-2.33-1.14-1.03-2.43-1.62-3.9-1.73h-.54c-.38.05-.76.11-1.08.27-1.84.65-3.3,1.95-4.49,4-.27.49-.22,1.19-.16,1.41.16.76.7,1.3,1.51,1.41v.11Z"/>
      <path class="cls-16" d="M310.14,567.31c.16,0,.32.05.49.05.6,0,1.14-.27,1.62-.81l.22-.27c.43-.54.92-1.08,1.41-1.57.81-.7,1.46-.7,2.27,0,.6.49,1.14,1.14,1.57,1.73.22.27.49.54.87.7l-.32.16h1.14c.76,0,1.35-.32,1.73-.97.38-.7.38-1.41,0-2.06-.87-1.41-1.95-2.43-3.14-3.19-1.46-.92-2.92-1.14-4.27-.65-1.89.6-3.46,1.95-4.76,4.11-.16.27-.22.7-.16,1.08.11.81.6,1.41,1.46,1.62l-.11.05Z"/>
    </g>
    <path class="cls-16" d="M390.91,645.97h0c-4.49-10.6-12.55-19.15-22.56-23.91-4.54,6.33-11.9,10.44-20.23,10.44s-14.44-3.46-18.99-8.87c-11.96,6.87-20.61,19.37-22.88,34.14-23.05-13.47-48.96-16.12-55.56-16.55,2.54-14.98,11.31-29.48,24.4-39.92l3.9-3.14c1.79-1.41,2.06-4,.65-5.79-1.41-1.79-4-2.06-5.79-.65l-3.9,3.14c-16.72,13.36-27.16,32.73-28.18,52.15,6.87.05,34.14,1.51,63.83,18.28h0c3.14,1.79,6.33,3.79,9.47,5.95,21.69-17.58,48.74-22.94,64-24.51h.43c6.87-.76,10.87-.54,11.41-.54,0,0,0-.11-.05-.16h0l.05-.05Z"/>
    <path class="cls-16" d="M348.06,587.44c-10.98,0-19.91,8.98-19.91,19.96s8.93,19.96,19.91,19.96,19.85-8.98,19.85-19.96-8.93-19.96-19.85-19.96h0ZM337.62,605.29c0-.27,0-.6.11-.81.7-1.19,1.62-2.11,2.92-2.6.32-.11.7-.16,1.03-.22.97.05,1.84.43,2.49,1.08.49.49.97.97,1.35,1.57s.27,1.24-.27,1.62-1.19.22-1.62-.32c-.32-.43-.7-.87-1.14-1.24-.6-.49-1.08-.49-1.68,0-.43.38-.81.81-1.19,1.3-.32.38-.7.54-1.14.43s-.76-.38-.87-.81h0ZM357.64,614.43c-.11.49-.38.92-.7,1.35-1.35,1.68-3.62,2.81-5.79,3.25-1.08.22-2.22.32-3.3.49-2.6-.11-5.09-.65-7.19-2.16-.65-.49-1.19-1.14-1.73-1.73-.11-.11-.22-.27-.27-.43-.27-.6-.22-1.19.16-1.51s1.03.32,1.62.65c1.3.65,2.6,1.24,4.06,1.57,3.52.65,7.41.38,10.6-1.19.43-.22.92-.81,1.41-.87.81-.11,1.24,0,1.08.76h0l.05-.16ZM359.2,605.56c-.22.38-.54.54-.97.54s-.7-.22-.97-.54c-.32-.43-.7-.81-1.08-1.19-.6-.54-1.14-.54-1.79,0-.43.38-.76.81-1.14,1.24-.32.38-.76.6-1.24.43-.49-.11-.76-.43-.87-.97,0-.22,0-.43.11-.65.76-1.24,1.68-2.22,3.08-2.7.97-.32,1.89-.11,2.76.43.87.54,1.51,1.24,2.06,2.11.27.38.27.81,0,1.19h0l.05.11Z"/>
  </g>
  <g>
    <path class="cls-16" d="M1079.4,638.95c-15.93,0-28.94-13.05-28.94-29.09s13-29.04,28.94-29.04,28.94,13.05,28.94,29.09-12.96,29.09-28.94,29.09v-.05ZM1079.4,587.87c-12.06,0-21.89,9.88-21.89,21.99s9.83,21.99,21.89,21.99,21.89-9.88,21.89-21.99-9.83-21.99-21.89-21.99Z"/>
    <path class="cls-6" d="M1165.07,688.18c-4.37-.69-16.78-.89-26.16.4-25.26,3.42-47.45,17.82-50.98,20.2h-1.44c-3.52-2.28-26.21-16.43-51.52-19.8-10.52-1.39-17.47-1.34-22.04-1.29h-3.92c-.94,0-1.69.74-1.74,1.69,0,.94.69,1.79,1.69,1.84h4.02c4.52,0,11.32-.1,21.59,1.29,26.16,3.47,50.28,19.41,50.53,19.56l.45.3h3.57l.45-.3c.25-.15,23.83-16.38,49.93-19.9,9.08-1.24,21-1.04,25.17-.4.94.15,1.84-.5,1.99-1.44s-.5-1.84-1.44-1.99h0l-.15-.15Z"/>
    <g>
      <path class="cls-6" d="M1080.64,713.75c-7.2-4.02-22.73-11.52-42.39-14.34-27.45-3.92-35.79-1.19-35.79-1.19l12.16,41.3s31.82-6.85,66.02,11.07v-36.83h0Z"/>
      <path class="cls-6" d="M1137.52,698.71c-20.05,2.13-35.64,10.57-42.64,15.04v37.03c31.02-16.38,66.26-11.17,66.26-11.17l12.16-41.3s-8.24-2.53-35.79.45v-.05Z"/>
      <path class="cls-6" d="M1090.81,716.38h-5.81s-.1-.05-.3-.2v35.59h6.11v-35.44h0v.05Z"/>
    </g>
    <g>
      <path class="cls-16" d="M1092.9,615.86c-.25-.25-.65-.35-1.29-.3-.5.05-.99.45-1.44.79-.25.2-.5.4-.69.5-4.22,2.28-9.48,2.93-14.84,1.84-2.08-.45-4.02-1.39-5.81-2.33-.25-.15-.5-.3-.74-.5-.65-.45-1.34-.94-1.89-.45-.6.6-.74,1.59-.3,2.63.05.15.15.25.2.4.05.1.15.2.2.3,2.18,4.47,8.14,6.06,13,6.06h0c5.61,0,9.83-1.84,12.56-5.46.5-.65.84-1.39,1.04-2.13.1-.45.2-1.04-.1-1.39l.1.05Z"/>
      <path class="cls-16" d="M1067.14,609.16c.69.15,1.34-.1,1.84-.69v-.1c.55-.55,1.04-1.14,1.54-1.64.69-.6,1.24-.6,1.99,0,.6.5,1.14,1.14,1.49,1.64.45.55.99.84,1.59.84s.69-.1.99-.35c.4-.3.69-.69.74-1.19.1-.5,0-.99-.35-1.39-.65-.84-1.24-1.54-1.89-2.13-1.04-.94-2.23-1.49-3.57-1.59h-.5c-.35.05-.69.1-.99.25-1.69.6-3.03,1.79-4.12,3.67-.25.45-.2,1.09-.15,1.29.15.69.65,1.19,1.39,1.29v.1Z"/>
      <path class="cls-16" d="M1082.82,609.11c.15,0,.3.05.45.05.55,0,1.04-.25,1.49-.74l.2-.25c.4-.5.84-.99,1.29-1.44.74-.65,1.34-.65,2.08,0,.55.45,1.04,1.04,1.44,1.59.2.25.45.5.79.65l-.3.15h1.04c.69,0,1.24-.3,1.59-.89.35-.65.35-1.29,0-1.89-.79-1.29-1.79-2.23-2.88-2.93-1.34-.84-2.68-1.04-3.92-.6-1.74.55-3.18,1.79-4.37,3.77-.15.25-.2.65-.15.99.1.74.55,1.29,1.34,1.49l-.1.05Z"/>
    </g>
    <path class="cls-16" d="M1156.93,681.28h0c-4.12-9.73-11.52-17.57-20.7-21.94-4.17,5.81-10.92,9.58-18.56,9.58s-13.25-3.18-17.42-8.14c-10.97,6.3-18.91,17.77-21,31.32-21.15-12.36-44.92-14.79-50.98-15.19,2.33-13.75,10.37-27.05,22.39-36.63l3.57-2.88c1.64-1.29,1.89-3.67.6-5.31-1.29-1.64-3.67-1.89-5.31-.6l-3.57,2.88c-15.34,12.26-24.92,30.03-25.86,47.85,6.3.05,31.32,1.39,58.57,16.78h0c2.88,1.64,5.81,3.47,8.69,5.46,19.9-16.13,44.72-21.05,58.72-22.49h.4c6.3-.69,9.98-.5,10.47-.5,0,0,0-.1-.05-.15h0l.05-.05Z"/>
    <path class="cls-16" d="M1117.62,627.58c-10.08,0-18.27,8.24-18.27,18.32s8.19,18.32,18.27,18.32,18.22-8.24,18.22-18.32-8.19-18.32-18.22-18.32h0ZM1108.04,643.96c0-.25,0-.55.1-.74.65-1.09,1.49-1.94,2.68-2.38.3-.1.65-.15.94-.2.89.05,1.69.4,2.28.99.45.45.89.89,1.24,1.44s.25,1.14-.25,1.49-1.09.2-1.49-.3c-.3-.4-.65-.79-1.04-1.14-.55-.45-.99-.45-1.54,0-.4.35-.74.74-1.09,1.19-.3.35-.65.5-1.04.4s-.69-.35-.79-.74h0ZM1126.4,652.35c-.1.45-.35.84-.65,1.24-1.24,1.54-3.33,2.58-5.31,2.98-.99.2-2.04.3-3.03.45-2.38-.1-4.67-.6-6.6-1.99-.6-.45-1.09-1.04-1.59-1.59-.1-.1-.2-.25-.25-.4-.25-.55-.2-1.09.15-1.39s.94.3,1.49.6c1.19.6,2.38,1.14,3.72,1.44,3.23.6,6.8.35,9.73-1.09.4-.2.84-.74,1.29-.79.74-.1,1.14,0,.99.69h0l.05-.15ZM1127.84,644.21c-.2.35-.5.5-.89.5s-.65-.2-.89-.5c-.3-.4-.65-.74-.99-1.09-.55-.5-1.04-.5-1.64,0-.4.35-.69.74-1.04,1.14-.3.35-.69.55-1.14.4-.45-.1-.69-.4-.79-.89,0-.2,0-.4.1-.6.69-1.14,1.54-2.04,2.83-2.48.89-.3,1.74-.1,2.53.4s1.39,1.14,1.89,1.94c.25.35.25.74,0,1.09h0l.05.1Z"/>
  </g>
  <g>
    <path class="cls-18" d="M565.76,496.09c7.5-5.66,13.05-13.83,15.55-22.88.72-2.6,1.19-5.32.84-8-.4-3.01-1.82-5.77-3.21-8.46-2.06-3.98-4.12-7.96-6.18-11.94,9.11-.9,21.45.47,23.25-13.09-4.01-3.18-9.76-1.91-14.88-1.73-5.31.18-10.56-1.01-15.83-1.75s-10.79-1.01-15.74.93c-4.95,1.94-9.16,6.59-9.13,11.9"/>
    <path class="cls-17" d="M566.13,496.3c5.55-4.23,10.07-9.72,13.09-16.02,1.57-3.27,2.84-6.81,3.4-10.41.66-4.2-.4-7.92-2.27-11.66-2.27-4.55-4.67-9.05-7.01-13.56l-.66.53c4.99-.48,10.17-.29,14.96-1.98,5.27-1.86,8.19-6.1,8.96-11.55.02-.12-.04-.18-.13-.24-3.1-2.35-7.05-2.32-10.76-2.08-2.34.15-4.67.37-7.01.27-2.61-.11-5.2-.48-7.78-.89-8.26-1.32-17.94-3.14-25.26,2.18-3.31,2.41-5.78,6.05-5.83,10.25,0,.54,1.19.32,1.19-.13.09-7.13,6.66-11.74,13.14-12.68,7.53-1.1,14.95,1.31,22.41,1.91,3.36.27,6.64-.07,9.99-.23,1.69-.08,3.41-.09,5.07.25.68.14,1.35.34,1.99.62.81.35,1.72.66,1.68,1.62-.12,2.35-1.4,5.02-2.94,6.78-1.39,1.59-3.23,2.68-5.22,3.35-4.58,1.56-9.57,1.35-14.32,1.81-.15.01-.82.23-.66.53,1.95,3.76,3.89,7.52,5.84,11.28,1.86,3.59,3.78,7.23,3.66,11.39-.1,3.75-1.35,7.54-2.82,10.95-1.33,3.1-3.02,6.04-5.03,8.75-2.39,3.23-5.24,6.1-8.44,8.54-.64.49.35.73.76.42h0Z"/>
  </g>
  <g>
    <path class="cls-30" d="M614.26,437.33c-4.04,3.94-8.08,7.88-12.12,11.81-2.01,1.96-4.1,3.97-6.73,4.98-2.32.89-5.27.78-6.91-1.09-1.2-1.36-1.42-3.38-1.02-5.15s9.05-15.12,9.98-16.68"/>
    <path class="cls-17" d="M613.77,437.16c-4.04,3.94-8.08,7.88-12.12,11.81-1.83,1.78-3.72,3.64-6.1,4.65-2.17.92-5.19.97-6.72-1.13-1.87-2.57-.62-5.15.72-7.49,1.49-2.6,3.09-5.14,4.68-7.68,1.27-2.02,2.59-4.01,3.81-6.06.33-.56-.87-.56-1.13-.13-2.91,4.85-6.14,9.51-8.9,14.45-.4.72-.88,1.48-1.1,2.28-.53,1.9-.12,4.27,1.3,5.67,3.38,3.33,8.7.8,11.68-1.7,2.48-2.07,4.71-4.46,7.02-6.71,2.61-2.55,5.23-5.1,7.84-7.64.53-.51-.62-.7-.99-.34h0Z"/>
  </g>
  <g>
    <path class="cls-30" d="M607.56,444.16c-1.41,2.62-6.65,10.71-7.79,13.45-.46,1.11-.9,2.39-.37,3.47.25.5.73.83,1.14,1.22,6.84,6.56,16.7-3.89,20.3-5.93,0,0,3.46-2.02,5.39-5.62"/>
    <path class="cls-17" d="M606.99,444.12c-1.75,3.21-3.79,6.26-5.63,9.41-.83,1.43-1.72,2.87-2.32,4.41-.35.92-.68,1.96-.39,2.94s1.25,1.67,2.01,2.27c6.14,4.88,13.86-1.62,18.73-5.28.88-.66,1.82-1.21,2.7-1.85,1.91-1.39,3.53-3.15,4.68-5.21.31-.55-.89-.51-1.12-.1-1.5,2.69-3.69,4.31-6.12,6.02s-4.75,3.72-7.38,5.24c-2.96,1.71-6.67,3.05-9.83,1.06-.76-.48-1.7-1.16-2.21-1.91-.77-1.13-.16-2.65.34-3.76.58-1.29,1.32-2.52,2.03-3.74,1.84-3.15,3.88-6.21,5.63-9.41.3-.56-.9-.52-1.12-.1h0Z"/>
  </g>
  <polygon class="cls-29" points="721.56 74.86 726.79 87.42 740.08 90.21 729.77 99.05 731.23 112.57 719.62 105.5 707.21 111.05 710.36 97.82 701.23 87.74 714.78 86.65 721.56 74.86"/>
  <polygon class="cls-12" points="761.13 163.47 766.36 176.04 779.65 178.82 769.34 187.67 770.79 201.19 759.18 194.12 746.77 199.67 749.92 186.44 740.79 176.36 754.35 175.27 761.13 163.47"/>
  <polygon class="cls-12" points="580.17 203.47 585.4 216.04 598.69 218.82 588.38 227.67 589.83 241.19 578.23 234.12 565.82 239.67 568.96 226.44 559.84 216.36 573.39 215.27 580.17 203.47"/>
  <polygon class="cls-12" points="95.31 160.16 102.96 178.51 122.38 182.59 107.31 195.51 109.43 215.27 92.47 204.94 74.34 213.05 78.94 193.71 65.6 178.99 85.41 177.4 95.31 160.16"/>
  <polyline class="cls-28" points="650.04 183.86 671.04 182.18 681.54 163.9 689.65 183.36 710.24 187.68 694.27 201.38 696.51 222.33 678.53 211.38 659.31 219.97 664.18 199.48 650.04 183.86"/>
  <polygon class="cls-4" points="851.61 187.54 861.27 210.71 885.79 215.86 866.77 232.18 869.44 257.13 848.03 244.08 825.13 254.32 830.94 229.91 814.1 211.31 839.11 209.31 851.61 187.54"/>
  <polygon class="cls-4" points="159.31 74.76 165.04 88.53 179.61 91.58 168.31 101.28 169.9 116.1 157.18 108.35 143.58 114.43 147.03 99.93 137.02 88.88 151.88 87.69 159.31 74.76"/>
  <polygon class="cls-4" points="1258.73 148.69 1264.47 162.45 1279.04 165.51 1267.74 175.2 1269.33 190.02 1256.6 182.28 1243 188.35 1246.45 173.85 1236.45 162.81 1251.31 161.62 1258.73 148.69"/>
</svg>