<?xml version="1.0" encoding="UTF-8"?>
<svg id="Layer_3" data-name="Layer 3" xmlns="http://www.w3.org/2000/svg" xmlns:xlink="http://www.w3.org/1999/xlink" viewBox="0 0 1163.19 1163.19">
  <defs>
    <style>
      .cls-1 {
        fill: none;
      }

      .cls-2 {
        fill: #151312;
      }

      .cls-3 {
        fill: #805639;
      }

      .cls-4 {
        fill: #24170f;
      }

      .cls-5 {
        fill: #b8e0ee;
      }

      .cls-6 {
        fill: #1c1413;
      }

      .cls-7 {
        fill: #cc8b2a;
      }

      .cls-8 {
        fill: #18536d;
      }

      .cls-9 {
        fill: #ba8e2e;
      }

      .cls-10 {
        fill: #f39a1e;
      }

      .cls-11 {
        fill: #ede9f4;
      }

      .cls-12 {
        fill: #b06d4f;
      }

      .cls-13 {
        fill: #f0ecf5;
      }

      .cls-14 {
        fill: #062f43;
      }

      .cls-15 {
        fill: #0d3a59;
      }

      .cls-16 {
        fill: #6b3825;
      }

      .cls-17 {
        fill: #cc5897;
      }

      .cls-18, .cls-19 {
        fill: #fff;
      }

      .cls-20 {
        fill: #412b12;
      }

      .cls-21 {
        fill: #3c55a4;
      }

      .cls-22 {
        fill: #a3a3a3;
      }

      .cls-23 {
        fill: #9e2d64;
      }

      .cls-24 {
        fill: #f2aa1d;
      }

      .cls-25 {
        fill: #9e762b;
      }

      .cls-26 {
        fill: #af6c4e;
      }

      .cls-27 {
        fill: #141529;
      }

      .cls-28 {
        fill: #0b363d;
      }

      .cls-29 {
        fill: #3f261b;
      }

      .cls-30 {
        clip-path: url(#clippath);
      }

      .cls-31 {
        fill: #542d23;
      }

      .cls-32 {
        fill: #4f2e25;
      }

      .cls-19 {
        isolation: isolate;
        opacity: .3;
      }
    </style>
    <clipPath id="clippath">
      <circle class="cls-1" cx="580.74" cy="582.26" r="581.59"/>
    </clipPath>
  </defs>
  <g class="cls-30">
    <circle class="cls-5" cx="581.17" cy="581.33" r="581.59"/>
    <polygon class="cls-10" points="764.26 166.92 773.05 188.02 795.37 192.7 778.06 207.56 780.49 230.28 761 218.4 740.16 227.72 745.44 205.49 730.11 188.56 752.88 186.74 764.26 166.92"/>
    <polygon class="cls-17" points="503.77 120.12 511.24 138.05 530.21 142.03 515.49 154.66 517.57 173.97 500.99 163.87 483.28 171.79 487.77 152.9 474.74 138.51 494.09 136.96 503.77 120.12"/>
    <polygon class="cls-17" points="900.4 230.28 905 241.33 916.7 243.79 907.63 251.57 908.9 263.47 898.68 257.25 887.76 262.13 890.53 250.49 882.5 241.62 894.43 240.66 900.4 230.28"/>
    <polygon class="cls-21" points="421.45 339.68 429.89 359.93 451.31 364.43 434.69 378.69 437.03 400.49 418.32 389.09 398.32 398.03 403.39 376.7 388.67 360.45 410.53 358.7 421.45 339.68"/>
    <polygon class="cls-10" points="809.89 349.36 814.71 360.93 826.96 363.5 817.46 371.65 818.8 384.11 808.1 377.6 796.66 382.71 799.56 370.52 791.15 361.23 803.65 360.23 809.89 349.36"/>
    <polygon class="cls-10" points="108.95 429.6 113.77 441.17 126.01 443.74 116.51 451.89 117.85 464.36 107.15 457.84 95.72 462.95 98.62 450.76 90.21 441.47 102.7 440.47 108.95 429.6"/>
    <polygon class="cls-17" points="814.11 261.61 818.93 273.19 831.18 275.76 821.68 283.91 823.02 296.37 812.32 289.86 800.89 294.97 803.79 282.78 795.37 273.49 807.87 272.49 814.11 261.61"/>
    <path class="cls-26" d="M453.58,568.14s-2.16-61.7-1.93-69.01c.2-6.46,28.41-56.02,35.93-69.84h0c6.17,3.77,8.85,10.74,6.78,17.39-4.77,15.33-15.04,44.2-15.04,44.2,0,0,7.97.97,9.36.19,17.42-9.86,22.02-.93,22.02-.93,0,0,3.16-.03,10.16,4.16,8.75,5.24,3.95,17.95,3.95,17.95,0,0,4.41-1.88,10.45,6.9,6.04,8.78-12.45,15.24-12.45,15.24,0,0,1.98-.47-.77,21.17-2.75,21.64-24.79,35.5-24.79,35.5l-13.61,53.18-49.23-12.5,19.16-63.59Z"/>
    <path class="cls-20" d="M490.25,488.1c1.81,2.01,2.56,4.62,3.06,7.22.45,2.34,1.57,6.55-1.21,7.93-.73.36-.07.87.5.59,3.05-1.51,2.58-5.06,2.09-7.85-.53-2.99-1.25-6.07-3.34-8.39-.32-.35-1.45.1-1.09.49h0Z"/>
    <path class="cls-20" d="M506.04,504.67c1.92,5.75,1.48,12.08-1.21,17.51-.16.32,1,.21,1.18-.16,2.71-5.47,3.15-11.89,1.22-17.67-.13-.39-1.31-.06-1.19.32h0Z"/>
    <path class="cls-26" d="M751.44,565.46s1.51-59.75,1.22-66.83c-.26-6.25-28.03-53.96-35.44-67.27h0c-5.94,3.71-8.47,10.48-6.4,16.89,4.76,14.8,14.97,42.65,14.97,42.65,0,0-7.71,1.02-9.06.27-16.96-9.38-21.32-.69-21.32-.69,0,0-3.06,0-9.79,4.12-8.42,5.16-3.65,17.41-3.65,17.41,0,0-4.29-1.78-10.05,6.78-5.76,8.56,12.2,14.63,12.2,14.63,0,0-1.92-.44.95,20.49,2.86,20.93,25.25,34.18,25.25,34.18l14.5,54.42,44.31,12.58-17.66-89.63Z"/>
    <path class="cls-20" d="M719.21,489.84c-1.92,2.41-2.5,5.42-2.85,8.41-.31,2.67-.77,6.51,2.3,7.8.26.11.61.09.85-.09.14-.11.37-.41.09-.53-2.92-1.23-2.3-5.05-2-7.55.33-2.72.84-5.56,2.6-7.76.45-.57-.68-.63-.97-.27h0Z"/>
    <path class="cls-9" d="M654.31,539.77c-5.94.03-10.21-.23-10.59-.25l.76-11.74c.26,0,27.21,1.62,41.03-4.04,11-4.55,23.01-35.61,28.26-63.01,3.33-17.37,1.44-22.82,0-24.55-.31-.36-1.13-1.35-4.24-1.33l-10.74.05c-3.06,9.38-7.99,18.82-15.49,18.86l-21.66.11-.06-11.71,20.79-.11c1.78-1.8,4.68-8.39,6.36-14.52l1.18-4.29,19.57-.1c5.08-.33,10.02,1.74,13.35,5.6,5.13,6.12,5.88,16.68,2.5,34.25-2.72,14.15-6.81,27.99-12.21,41.35-6.98,16.67-14.76,26.89-23.11,30.33-10.29,4.19-25.51,5.05-35.67,5.11Z"/>
    <path class="cls-9" d="M554.32,540.28c5.94-.03,10.2-.33,10.59-.36l-.85-11.73c-.28,0-27.21,1.9-41.07-3.62-11.07-4.43-23.37-35.37-28.92-62.72-3.48-17.33-1.65-22.8-.13-24.54.3-.36,1.12-1.36,4.23-1.37l10.74-.05c3.16,9.35,8.21,18.74,15.69,18.7l21.69-.11-.06-11.71-20.79.11c-3.02-4.39-5.24-9.29-6.53-14.46l-1.22-4.28-19.57.1c-5.08-.27-10,1.85-13.29,5.73-5.07,6.17-5.68,16.74-2.15,34.28,2.87,14.12,7.11,27.92,12.66,41.22,7.13,16.6,15.01,26.74,23.4,30.09,10.23,4.08,25.46,4.79,35.59,4.74Z"/>
    <polygon class="cls-9" points="678.19 679.61 678.23 687.46 531.92 688.21 531.88 680.36 544.42 680.29 553.66 666.85 596.16 649.68 595.74 566.59 613.15 566.5 613.57 649.59 656.24 666.33 665.65 679.67 678.19 679.61"/>
    <rect class="cls-25" x="590.96" y="568.89" width="27.03" height="8.74" transform="translate(1211.87 1143.42) rotate(179.71)"/>
    <path class="cls-9" d="M693.1,391.43s-6.27,113.23-23.95,144.61c-17.68,31.38-55.74,34.22-64.63,34.27-8.89.05-46.95-2.44-64.94-33.61-18-31.17-25.42-144.36-25.42-144.36l178.94-.91Z"/>
    <path class="cls-19" d="M604.24,569.04c15.21-2.66,38.39-10.51,51.03-32.92,17.68-31.38,23.95-144.61,23.95-144.61l-16.83.09c-2.19,23.78-6.26,114.6-19.03,141.09-11.02,23.16-37.17,35.68-39.11,36.36Z"/>
    <polygon class="cls-25" points="544.42 680.29 665.65 679.67 662.28 674.88 547.55 675.76 544.42 680.29"/>
    <polygon class="cls-25" points="603.73 427.63 594.21 447.18 572.74 450.4 588.37 465.48 584.8 486.92 603.98 476.72 623.27 486.73 619.48 465.32 634.99 450.08 613.45 447.09 603.73 427.63"/>
    <path class="cls-20" d="M695.01,491.65c-1.54,5.76-.69,11.95,2.28,17.11.22.38,1.37-.01,1.1-.49-2.91-5.05-3.68-11.13-2.18-16.75.13-.48-1.07-.32-1.19.13h0Z"/>
    <g>
      <path class="cls-12" d="M683.22,514.89c3.82,3.28,7.63,6.57,11.45,9.85,1.9,1.64,3.87,3.31,6.26,4.06,2.11.67,4.74.4,6.09-1.35.99-1.28,1.08-3.08.62-4.64-.45-1.55-8.9-12.97-9.81-14.3"/>
      <path class="cls-20" d="M682.66,515.1c4.29,3.69,8.5,7.5,12.89,11.07,2.89,2.35,6.77,4.39,10.45,2.51,2.79-1.43,3.07-4.83,1.56-7.29s-3.08-4.59-4.68-6.84c-1.48-2.07-3.01-4.1-4.45-6.2-.22-.31-1.31.14-1.19.32,2.52,3.66,5.22,7.18,7.71,10.86,1.12,1.66,2.38,3.21,2.36,5.31-.03,2.81-2.27,4.4-4.97,3.94-2.22-.37-4.14-1.77-5.84-3.16-4.32-3.55-8.49-7.29-12.73-10.93-.26-.22-1.33.23-1.11.42h0Z"/>
    </g>
    <g>
      <path class="cls-12" d="M689.57,520.61c1.4,2.25,6.51,9.16,7.68,11.55.47.96.93,2.08.52,3.07-.19.46-.61.78-.94,1.15-5.73,6.22-15.09-2.54-18.4-4.16,0,0-5.67-2.24-5.81-7.72"/>
      <path class="cls-20" d="M688.98,520.77c1.71,2.72,3.66,5.29,5.46,7.95.78,1.16,1.6,2.34,2.23,3.59.56,1.13,1.07,2.46.16,3.57-.66.8-1.53,1.59-2.47,2.02-3.29,1.52-7.43-.88-10.19-2.58-1.87-1.16-3.62-2.52-5.6-3.5-2.95-1.46-5.2-4.11-5.36-7.49,0-.2-1.2,0-1.19.32.16,3.32,2.33,5.97,5.21,7.47,2.29,1.19,4.34,2.75,6.56,4.06,2.91,1.71,6.35,3.25,9.79,2.38,1.72-.43,3.16-1.44,4.31-2.77,1.38-1.6.09-3.67-.84-5.18-2.15-3.48-4.71-6.7-6.89-10.16-.18-.29-1.28.17-1.19.32h0Z"/>
    </g>
    <g>
      <path class="cls-12" d="M729.66,564.53c-6.99-4.62-12.39-11.6-15.12-19.52-.78-2.28-1.36-4.67-1.19-7.07.19-2.7,1.3-5.23,2.39-7.71,1.61-3.66,3.23-7.31,4.84-10.97-8.16-.3-19.07,1.61-21.43-10.37,3.39-3.05,8.59-2.24,13.15-2.36,4.74-.13,9.35-1.49,14-2.44,4.65-.95,9.56-1.49,14.07-.04,4.52,1.46,8.52,5.36,8.79,10.09"/>
      <path class="cls-20" d="M730.22,564.33c-6.64-4.44-11.84-10.89-14.68-18.37-.78-2.05-1.43-4.19-1.58-6.38-.17-2.42.44-4.72,1.31-6.95,1.79-4.55,3.93-8.99,5.91-13.47.05-.12-.13-.13-.2-.14-7.48-.25-17.23,1.02-20.48-7.62-.2-.52-.36-1.06-.5-1.6-.24-.94-.08-1.23.78-1.75,1.45-.88,3.16-1.14,4.83-1.24,2.94-.18,5.88.1,8.81-.2,6.78-.71,13.32-3.41,20.2-3.2,6.33.2,13.43,3.89,13.97,10.9.02.21,1.21,0,1.19-.32-.59-7.7-8.75-11.16-15.53-11.07-4.26.06-8.4,1.07-12.54,2-2.39.53-4.8,1.04-7.24,1.26-1.98.18-3.95.1-5.94.1-3.48,0-7.15.3-9.9,2.66-.04.03-.06.07-.06.11.86,4.14,3.06,7.61,7.12,9.15,3.48,1.32,7.34,1.26,11.01,1.26.91,0,1.83,0,2.74.02.55.01.4-.13.36.34-.02.23-.33.74-.4.91-.4.91-.81,1.83-1.21,2.74-1.43,3.24-3,6.46-4.25,9.78-1.16,3.07-1.5,6.09-.75,9.31.68,2.91,1.87,5.73,3.29,8.35,3.01,5.55,7.37,10.31,12.62,13.82.28.18,1.28-.3,1.12-.4h0Z"/>
    </g>
    <path class="cls-26" d="M403.68,710.98c8.97-6.2,17.22-13.41,24.26-21.57,5.75,27.03,10.89,51.6,14.99,64.93,3.54,10.98,7.03,23.86,10.47,37.84-13.17,2.11-26.33,4.24-39.49,6.43-6.93,1.15-5.99,20.76-12.92,21.95-20.69-11.35-28.3-75.46-35.81-89.69-.14-.26-.27-.53-.41-.8,13.89-4.42,27.09-10.91,38.91-19.08Z"/>
    <path class="cls-26" d="M781.48,706.01c-8.4-5.81-12.11-11.62-18.7-19.26-5.39,25.32-14.22,47.39-18.06,59.88-3.32,10.28,5.63,16.88,2.4,29.97,12.34,1.98,12.46,9.44,24.78,11.49,6.5,1.08,4.5,29.36,10.99,30.47,28.63-17.77,27.62-80.59,34.66-93.92.13-.24.25-.5.38-.75-13.01-4.14-25.37-10.22-36.45-17.88Z"/>
    <g>
      <path d="M966.49,500.16c2.47-7.09,15.3-10.21,17.18-17.5.46-1.77-.96-3.31-2.43-3.5.96-2.64,2.31-5.82,4.01-8.35,3.58-5.33,14.1-9.04,14.1-9.04,0,0-1.76-11.77,3.26-13.09,5.02-1.32,15.74-.36,15.74-.36,0,0,8.53-7.19,17.07-.02,0,0,8.11-.05,9.76,10.73.36,2.33.42,5.17.02,8.62,0,0,3.97.09,9.75,6.81,2.49,2.9,5.16,12.37,3.09,20.25l.18,1.75c-2.72,10.37-7.56,16.72-15.97,17.51-.02.1-5.43,20.54-25.19,19.13-17.16-1.22-22.03-9.9-22.03-9.9,0,0-7.9,4.17-12.02,3.03-4.32-1.19-7.52-4.75-9.4-8.95,1.24-4.33-8.26-12.76-7.13-17.12Z"/>
      <path d="M966.67,500.15c1.29-3.54,4.73-5.82,7.7-7.87,2.86-1.97,6.05-3.9,8.1-6.77.87-1.21,1.88-3.01,1.27-4.53-.37-.92-1.03-1.23-1.79-1.75-.07-.05-.27-.04-.32-.1-.31-.38.14-.93.28-1.3.26-.66.53-1.31.81-1.95.99-2.25,2.11-4.6,3.8-6.41,1.38-1.48,3.06-2.66,4.78-3.71,2.51-1.53,5.39-2.9,8.08-3.86.06-.02.16-.06.14-.15-.5-3.42-.79-7.82.88-10.96,1.33-2.52,4.47-2.47,6.99-2.6,2.9-.15,5.82-.06,8.71.11.89.05,1.95.39,2.65-.12,1.99-1.43,4.28-2.45,6.71-2.8,1.85-.26,3.74-.09,5.51.53,1.03.36,2,.86,2.91,1.46.47.31.98.9,1.49,1.07.28.09.66.05.95.1.72.12,1.43.34,2.11.63,6.97,3.01,7.3,12.08,6.6,18.52,0,.06.06.09.11.09,2.01.06,4.11,1.61,5.6,2.79,1.79,1.42,3.69,3.14,4.86,5.13,1.03,1.76,1.67,3.77,2.15,5.74.6,2.51.91,5.11.86,7.7-.02,1.26-.13,2.52-.34,3.77-.14.83-.42,1.59-.34,2.43.21,2.09-.72,4.2-1.47,6.13s-1.7,3.85-2.88,5.58c-2.67,3.89-6.58,6.35-11.3,6.83-.07,0-.17.05-.19.13-1.42,5.44-4.93,10.81-9.29,14.32-4.22,3.4-9.49,4.96-14.88,4.73-6.01-.26-12.29-1.68-17.41-4.93-1.96-1.25-4.14-2.9-5.31-4.98-.04-.07-.18-.04-.23-.01-1.86.98-3.85,1.79-5.86,2.41-1.57.48-3.25.89-4.91.78-1.86-.13-3.7-1.11-5.17-2.21-1.6-1.2-2.92-2.76-3.97-4.46-.49-.79-1.19-1.75-1.2-2.7,0-.5.04-.94-.05-1.44-.51-2.58-2.31-4.92-3.71-7.08-.94-1.45-1.91-2.9-2.66-4.46-.56-1.17-1.08-2.51-.78-3.82.03-.15-.31-.1-.35.03-.43,1.89.71,3.86,1.61,5.43,1.32,2.29,2.91,4.41,4.19,6.72.55,1,1.08,2.05,1.32,3.18.1.47.1.91.08,1.39-.02.66.19,1.05.52,1.67,1.44,2.72,3.51,5.19,6.23,6.69,2.27,1.26,4.47,1.5,6.99.96,2.33-.49,4.59-1.38,6.74-2.39.26-.12.6-.23.83-.4.31-.23.22.02.05-.15.11.11.19.3.28.43.58.83,1.28,1.57,2.02,2.25,3.22,2.97,7.36,4.83,11.56,5.93,5.61,1.48,11.84,2.11,17.44.27,7.34-2.41,12.59-8.71,15.38-15.72.27-.67.41-1.65.79-2.25.24-.37.44-.17,1.01-.26,1.19-.19,2.37-.51,3.49-.97,5.02-2.06,8.1-6.77,9.98-11.65.57-1.47,1.29-3.13,1.51-4.69.13-.9-.16-1.74.05-2.66.77-3.47.71-7.11.11-10.6-.47-2.74-1.23-5.62-2.7-8.01s-4-4.6-6.39-6.13c-.79-.51-1.63-.96-2.51-1.29-.41-.15-1.01-.18-1.39-.38-.04-.02-.22,0-.24-.03.02.03.22-1.1.23-1.23.05-.55.08-1.11.11-1.66.07-1.68.04-3.38-.18-5.05-.57-4.5-2.65-9.07-7.13-10.8-.57-.22-1.16-.39-1.76-.49-.29-.05-.69-.02-.97-.12s-.49-.35-.74-.54c-.85-.65-1.8-1.21-2.78-1.64-1.34-.58-2.77-.92-4.23-.99-2.46-.12-4.91.53-7.1,1.65-.69.35-1.36.75-2,1.2-.15.11-.29.24-.45.33-.22.14.27,0,.02,0-1.77,0-3.56-.24-5.33-.29-2.73-.08-5.49-.09-8.2.26-1.79.23-3.44.54-4.47,2.16-1.08,1.7-1.32,3.89-1.41,5.85-.07,1.66,0,3.33.19,4.98.02.18.04.36.07.54.03.24.21-.09.07,0-.37.25-.96.36-1.38.53-4.39,1.78-9.32,4.13-12.31,7.93-2.05,2.62-3.35,5.91-4.48,9-.02.04.04.08.07.09,2.13.42,2.81,2.41,2.08,4.27-.4,1.02-1.02,1.94-1.73,2.77-1.62,1.88-3.69,3.32-5.72,4.72-3.5,2.42-7.91,4.93-9.45,9.16-.05.13.3.09.35-.03Z"/>
    </g>
    <g>
      <path d="M844.03,474.19c12.67-10.05,14.43-27.2,12.15-42.3-2.18-14.46,7.68-37.23-9.88-35.72-.18.02,1.47-3.6,2.27-6.79.58.91,1.19,1.8,1.84,2.65,1.25,1.63,4.12-.1,3.09-1.92-1.79-3.16-3.4-6.43-4.73-9.81-2.26-5.73-3.76-11.91-3.68-18.11.07-5.58,1.39-11.03,3.93-15.97,38.23-56.55,89.17-46.59,119.66-43.77,60.8,5.62,93.29,66.28,77.11,128.51-16.59,63.78-58.95,85.4-120,86.17-26.08.33-61.76-19.73-82.29-42.55.17-.13.35-.26.53-.39Z"/>
      <path d="M925.18,517.21c-12.19,0-27.3-4.46-42.64-12.61-14.95-7.94-28.83-18.58-39.09-29.97l-.05-.06.06-.05c.07-.05.14-.11.21-.16.11-.08.21-.16.31-.24h0c5.83-4.63,9.76-11.09,11.66-19.22,1.59-6.8,1.75-14.54.47-23.02-.68-4.48-.2-9.75.26-14.85.71-7.8,1.37-15.16-2.14-18.69-1.72-1.73-4.32-2.42-7.92-2.11h-.04s-.03-.03-.03-.03c-.05-.07,0-.22.47-1.47.52-1.37,1.31-3.44,1.8-5.37l.04-.16.09.14c.68,1.05,1.26,1.9,1.83,2.65.64.84,1.68.73,2.37.28.65-.43,1.1-1.26.61-2.12-1.92-3.4-3.47-6.61-4.73-9.82-2.51-6.38-3.75-12.48-3.69-18.13.07-5.67,1.39-11.06,3.94-16,35.52-52.55,82.08-47.71,112.89-44.5,2.4.25,4.66.49,6.84.69,13.33,1.23,25.64,5.13,36.58,11.58,10.44,6.15,19.37,14.46,26.55,24.69,8.51,12.12,14.31,26.81,16.77,42.49,2.56,16.25,1.63,33.02-2.74,49.84-4.06,15.6-9.84,29.16-17.17,40.28-7.07,10.72-15.88,19.63-26.18,26.47-19.11,12.69-44.21,19.06-76.71,19.47-.21,0-.41,0-.62,0ZM843.61,474.59c10.23,11.35,24.08,21.96,39,29.88,15.58,8.27,30.93,12.74,43.19,12.59,32.47-.41,57.54-6.77,76.63-19.44,10.29-6.83,19.08-15.72,26.14-26.43,7.33-11.11,13.1-24.65,17.15-40.24,4.37-16.81,5.29-33.56,2.74-49.79-2.46-15.66-8.26-30.33-16.75-42.43-7.17-10.21-16.09-18.5-26.51-24.65-10.93-6.44-23.22-10.33-36.52-11.56-2.18-.2-4.44-.44-6.84-.69-30.77-3.21-77.28-8.05-112.75,44.43-2.53,4.92-3.85,10.28-3.91,15.93-.07,5.63,1.17,11.71,3.68,18.08,1.26,3.21,2.81,6.41,4.73,9.8.53.95.06,1.84-.65,2.31-.77.51-1.89.56-2.56-.31-.55-.72-1.11-1.53-1.75-2.52-.49,1.9-1.26,3.9-1.77,5.23-.23.6-.43,1.13-.47,1.3,3.62-.3,6.22.41,7.96,2.16,3.56,3.58,2.89,10.97,2.18,18.8-.46,5.09-.94,10.36-.27,14.82,1.28,8.5,1.12,16.26-.47,23.07-1.91,8.15-5.85,14.65-11.71,19.3h0c-.1.08-.21.16-.32.24-.05.04-.1.07-.15.11Z"/>
    </g>
    <path class="cls-18" d="M795.78,744.82c16.2,1.58,1.95-3.2,16.78,3.48,4.03,1.82,8.17,3.44,12.37,4.84,24.86-52.32,44.85-187.65,44.85-187.65-5.06,1.21-62.71,14.12-78.16,50.66-9.08,21.48-28.91,61.1-36.84,100.31,2.26,2.83,19.79,26.29,41,28.37Z"/>
    <path class="cls-8" d="M1044.46,1447.17c-19.84-119.74,25.25-254.03,38.06-304.09,26.53-103.65,19.42-173.49-12.97-217.2l-270.93,21.06-1.03,48.32c-13.64,54.05,15.9,264.96,23.07,410.92"/>
    <path class="cls-28" d="M880.98,1229.01c-1.03-21.8-2.05-43.6-3.08-65.4-.17-3.62-.11-7.34-.51-10.94-1.05-9.25-5.43-19.38-11.02-26.71-4.4-5.77-10.31-10.07-17.5-11.49-.44-.09-1.38.58-.69.71,18.03,3.56,27.45,25.18,28.25,42.03.87,18.53,1.74,37.06,2.62,55.59,1.32,28.14,2.65,56.28,3.97,84.43"/>
    <path class="cls-18" d="M801.91,656.11c1-48.43,13.08-64.79,13.08-64.79,13.38-5.88,38.3-20.07,54.48-26.09,2.39-.89,10.23-5.25,10.53-4.76,7.98,13.08,22.88,28.74,39.89,30.53,6.1.64,2.51-12.62,8.22-12.8,19.48-.6,43.44-11.07,55.09-25.81l15.06,6.6,58.08,22.41-9.05,287.59.97,2.23c-31.79,12.29-63.77,24.25-96.75,32.92-38.57,10.14-79.1,16.02-118.83,9.82-9.09-1.42-23.44,35.71-32.2,32.99,2.12-9.66,11.34-85.07,11.15-95.26-1.04-56.24-3.92-58.25-5.85-60.55"/>
    <path class="cls-26" d="M978.81,469.94s-11.41,46.4.52,78.06c1.66,4.41,4.81,3.93,4.81,3.93l-17.74,20.63c-4.07,4.58-18.5,18.34-34.29,24.35-29.02,11.04-35.95,1.93-43.75-.17-6.44-1.74-10.45-14.44-10.45-24.01l1.51-12.06s4.41-.03,5.59-5.46c1.18-5.43-2.78-46.63-2.78-46.63"/>
    <path class="cls-18" d="M817.62,851.54s-24.39,118.7-32.23,139.31c0,0,109.16,37.82,207.97,23.53,98.81-14.29,89.85-23.63,89.85-23.63l-35.44-123.46-2.97-42.21-215.1,17.02"/>
    <path class="cls-26" d="M1128.91,755.67c-3.83,1.89-7.77,3.55-11.7,5.11-5.8,2.3-11.68,4.34-17.58,6.31-3.46,1.15-6.91,2.27-10.44,3.12-5.87,1.4-11.85,2.22-17.85,2.67-7.43.56-14.86.55-22.3.46l22.09,119.84-27.51,218.14h49.81c7.17-25.84,51.1-164.11,51.09-219.68,0-12.18-8.86-99.66-15.62-135.94Z"/>
    <path class="cls-22" d="M796.23,654.54c1.66,3.41,2.6,7.29,3.22,11.01.91,5.44.94,10.82-.3,16.18-1.24,5.37-2.76,10.68-4.08,16.03-1.8,7.26-3.39,14.58-4.53,21.97-1.2,7.8-1.81,15.63-1.81,23.52.71-.31,1.43-.62,2.14-.93-2.16-.38-4.3-.97-6.38-1.65-3.5-1.16-7.31-2.77-9.71-5.7-.64-.79-3.21.19-2.47,1.09,2.5,3.06,6.43,4.75,10.08,6.01,2.23.77,4.54,1.42,6.87,1.82.55.1,2.14-.08,2.14-.93,0-14.62,2.34-28.99,5.76-43.17,1.37-5.68,2.95-11.31,4.33-16.98.44-1.8.88-3.62,1.12-5.45.42-3.18.24-6.53-.12-9.71-.51-4.65-1.55-9.59-3.61-13.83-.49-1-3.11-.18-2.67.72h0Z"/>
    <path class="cls-26" d="M164.16,394.77s10.22,56.2.32,88.98c-1.59,5.26-27.65,19.4-27.65,19.4l7.72,8.1c6.67,6.99,19.28,12.54,28.34,15.9,45.09,16.73,108.11,19.16,127.52-8.87l-12.43-20.2-9.14-4.67c-1.59-6.28,4.45-61.77,4.45-61.77"/>
    <path class="cls-14" d="M259.53,1418.62l30.37-252.22,41.64-140.74-295.53-9.07-3.2,76.65c-.91,51.1,10.11,86.1,24.24,135.22l29.98,225.66"/>
    <path class="cls-14" d="M259.53,1418.62l-1.67-393.5,127.47-8.53-28.7,432.6"/>
    <path d="M246.02,1312.79c.98-21.72,1.96-43.45,2.94-65.17,1.3-28.74-.95-58.44,10.59-85.5,4.67-10.95,11.46-21.05,20.97-28.35.53-.41-.28-.67-.64-.39h0c-18.96,14.56-26.88,38.9-29.64,61.78-1.75,14.55-1.22,29.12-1.88,43.72-.78,17.33-1.56,34.66-2.34,51.99"/>
    <path class="cls-18" d="M284.22,513.99c-2.16,7.99-7.11,19.37-22.7,21.72-23.28,3.5-46.84,2.66-75.33-19.05,0,0-19.99-17.7-23-30.78l-17.2,7.54c-10.86,4.79-31.33,13.05-51.59,22.48-21.54,7.75-58.72,26.91-73.38,60.95-13.43,37.29-21.38,101.47-28.48,164.4,17.65,6.59,28.62,13.58,47.68,14.68,1.04.06,2.8,2.7,4.08,2.79-4.98,37.43-12.85,110.95-15.06,129.69-5.76,48.71-15.96,118.01-12.01,149.2,3.96,31.2,182.45,47.37,248.38,40.31,65.93-7.06,119.99-10.64,126.02-29.21.97-2.98.24-58.57-2.01-65.75-3.01-34.13-.69-43.09-4.62-86.2l4.15-157.93c2.69,2.62,18.67,1.97,27.59.4,13.58-2.39,27.82-8.9,32.58-12.39-13.75-49.15-27.89-113.06-41.06-149.67-14.35-39.88-72.37-57.38-105.33-72.47l-19.03-8.92s-2.59-1.47-2.07.35"/>
    <path class="cls-3" d="M161.9,417.75c0,.12.02.22.03.34-.05-.14-.07-.26-.03-.34Z"/>
    <path class="cls-26" d="M243.31,483.74l38.22-2.21,19.03-4.73c1.94,0,10.9-19.79,12.17-22.31,3.95-7.8,9.35-18.3,11.71-26.74,2.52-9.04,7.27-18.63,8.41-29.47.84-7.94.34-11.53-4.17-24.36-1.15-3.26-1.25-6.53-.51-10.07,1.57-7.46,2.02-16.15,3.9-26.14.15-.79.99-4.58.66-5.43,0,0-1.82-41.51-9.61-56.2-7.79-14.68-16.36-21.26-27.33-23.85-10.97-2.59-43.13,0-43.13,0l-44.62-5.5-37.45,19.45-18.31,46.32,3.81,53.27,6.63,47.52"/>
    <path class="cls-32" d="M262.54,470.13c-.31.2-20.5-1.98-20.89-2.01l-10.49-4.72s-.05-.04-.06-.04c-.94.38-2.05.46-3.31.06-6.55-2.12-12.3-5.64-17.83-9.67-4.97-3.62-10.83-14.81-16.5-17.33-2.68-1.19-1.76-2.02-4.04-3.68.22.59.16,4.13.38,4.71,10.43,12.96,23.96,38.25,45.5,47.22,1.05.26,4.36,1.12,13.16,1.7,11.54.76,19.14,1.12,30.38-.61.07-8.13-.66-17.75-.72-25.89-4.14,0-4.11,2.7-15.58,10.27Z"/>
    <path d="M237.92,355.82c-2.45-1.26-5.31-.16-6.91,1.26-.38.33-1.39,1.29-1.86,2.9-.6,2.06.22,4.39,1.52,5.8,1.73,1.89,4.6,2.21,6.81,1.18,2.99-1.4,3.96-5,3.21-7.62-.14-.48-.78-2.5-2.76-3.52"/>
    <path d="M311.19,357.12c2.45-1.27,5.31-.18,6.92,1.24.38.33,1.39,1.28,1.87,2.89.61,2.06-.21,4.39-1.5,5.81-1.72,1.9-4.59,2.23-6.8,1.2-2.99-1.39-3.97-4.99-3.23-7.61.14-.48.78-2.5,2.75-3.53"/>
    <path d="M295.1,366.42s9.84-9.87,17.06-10.54c10.53-.98,13.23,1.38,16.97,6.21,0,0-6.9-5.03-14.3-4.14-7.07.85-19.73,8.48-19.73,8.48Z"/>
    <path d="M260.9,363.91s-14.77-9.29-22.01-9.47c-10.57-.26-23.15,5.99-26.55,11.06,0,0,16.59-9.2,24.03-8.81,7.11.37,24.53,7.22,24.53,7.22Z"/>
    <path d="M263.22,330.01c1.37.66.87,1.72.87,4.24,0,.81.02,2.04.04,3.35.04,2.43-2.33,4.21-4.64,3.45-4.15-1.37-7.84-2.8-10.7-3.31-7.75-1.37-15.68-3.32-23.53-2.09-3.75.59-7.05,1.56-10.18,3.5-.99.61-3.65,3.26-5.13,2.58-.61-.28.39-3.37.49-3.69,2.03-6.24,7.32-8.83,13.79-10.32,13.19-3.04,25.58.6,39,2.3"/>
    <path d="M333.92,331.63s-3.94-.88-3.97-.89c-8.51-1.95-16.96-1.9-25.43-.76-4.29.58-7.4,4.42-7.2,8.75,0,.03,0,.05,0,.08.04.86-.32,3.49.24,4.17.11.13.27.21.43.27,1.72.7,3.66.68,5.47.28,2.24-.5,4.24-1.64,6.45-2.22,6.34-1.67,13.01-3.51,19.54-2.59.52.07,3.31.52,3.81.62,1.9-3.56,1.59-7.19.66-7.7Z"/>
    <g>
      <path d="M287,407.74c-3.09,1.66-7.8,1.28-10.92-.69-.69-.44-2.99,0-2.02.6,4.12,2.6,10.88,2.83,14.87.69.4-.21.32-.53-.17-.69-.52-.18-1.33-.14-1.75.09"/>
      <path d="M272.72,406.75c-2.08-1-4.41-1.53-6.73-1.71-.34-.02-.78.11-1.03.34-.2.18-.24.42.02.57,1.07.63,2.44.89,3.7.86.4,0,.92-.11,1.14-.46.21-.32-.18-.53-.48-.52-1.04.02-2.1-.19-2.98-.7-.34.3-.67.6-1.01.9,2.08.16,4.16.65,6.02,1.55.37.18.9.06,1.23-.14.25-.15.51-.5.14-.68"/>
      <path d="M263.49,407.06c-2.72-.07-5.92-1.27-7.26-3.36-2.02-3.16-.15-8.06,3.24-10.09.37-.22.17-.51-.2-.59-.49-.11-1.06.08-1.45.31-2.96,1.77-4.87,5.77-4.42,8.74.42,2.77,3.03,4.7,6.28,5.5.97.24,2,.4,3.02.42.41,0,1.15-.12,1.35-.45.2-.33-.17-.48-.56-.49"/>
      <path d="M291.98,406.32c-.15-.32.12-.53.34-.53.73.02,1.48-.19,2.11-.71.24.3.48.6.72.9-1.47.17-2.94.66-4.26,1.56-.26.18-.64.06-.87-.14-.17-.15-.36-.5-.1-.68"/>
      <path d="M289.92,406.72c1.47-1.01,3.12-1.54,4.76-1.73.24-.03.55.1.73.33.14.18.17.42-.01.57"/>
      <path d="M297.63,406.69c1.77-.07,3.85-1.29,4.71-3.38,1.31-3.16.08-6.92-2.13-8.93-.24-.22-.11-.5.13-.59.32-.11.69.08.94.31,1.93,1.76,3.18,4.62,2.89,7.58-.27,2.77-1.96,4.71-4.07,5.52-.63.24-1.3.4-1.96.43-.27,0-.75-.12-.88-.45-.13-.33.11-.48.36-.49"/>
    </g>
    <path class="cls-16" d="M278.18,427.08c-12.15-.02-31.82-1.44-31.82-1.44,0,0,3.79,31.24,31.95,31.29,28.16.05,26.02-30.46,26.02-30.46,0,0-14,.63-26.15.61Z"/>
    <path class="cls-4" d="M278.3,427.08c-5.77,0-29.05-.99-29.05-.99,0,0,8.17,20.86,29.05,20.89,22.64.04,24.5-20.52,24.5-20.52l-24.5.62Z"/>
    <path class="cls-13" d="M276.68,426.45c-6.23,0-25.19-.99-25.19-.99,0,0,6.97,7.62,25.66,7.65,18.69.03,24.49-7.39,24.49-7.39l-24.96.73Z"/>
    <path class="cls-16" d="M305.13,424.31c-.59-.15-1.53-.05-4.3-.29-4.62-.41-5.91-.95-9.26-1.21-5.71-.45-9.34,1.81-11.82,1.81-2.48,0-6.11-2.28-11.82-1.84-3.35.25-11.63,1.46-16.24,1.85-2.77.23-6.02-.85-6.61-.71-.82.2.76,6.29,31.97,6.34,31.21.05,28.9-5.74,28.08-5.95Z"/>
    <path class="cls-27" d="M377.63,1024.25c.24,0,.34-.31.04-.31-.24,0-.34.31-.04.31h0Z"/>
    <path class="cls-22" d="M395.62,623.65c0,12.54-.1,25.09-.54,37.62-.26,7.49-.65,14.98-1.35,22.44-.46,4.91-1.09,9.81-1.75,14.7-.67,4.92-1.3,9.85-1.76,14.79-.7,7.45-1.09,14.92-1.36,22.39-.04,1.24-.08,2.48-.12,3.72l.07.08c2.96,1.14,6.33,1.5,9.46,1.71,8.66.6,17.4-.74,25.73-3.06,7.47-2.08,15.03-4.49,21.9-8.14,1.42-.76,2.83-1.58,4.12-2.56.28-.22,1.05-.66,1.17-1.04.15-.45-.33-1.46-.45-1.89-.37-1.41-.74-2.81-1.11-4.22-.57-2.15-1.13-4.29-1.7-6.44-.13-.5-1.85.13-2.09.23-.3.12.27-.1-.12.05s-.83.31-1.24.47c-1.38.51-2.78.99-4.18,1.46-4.6,1.53-9.27,2.85-14,3.89-9.13,2.01-18.82,3.2-28.19,2.56-1.29-.09-2.65-.18-3.91-.51-.56-.15-1.36.13-1.86.36-.23.11-.91.46-.35.61,1.1.29,2.28.38,3.4.47,3.66.3,7.34.23,11,.01,11.37-.67,22.48-2.94,33.32-6.42,2.57-.82,5.13-1.7,7.64-2.7l-2.09.23c.58,2.22,1.17,4.44,1.75,6.66l1.13,4.31c.09.34.13.92.32,1.22.11.17.04.3.18.04-.32.61-1.44,1.2-1.95,1.54-2.17,1.44-4.55,2.58-6.94,3.61-4.48,1.94-9.13,3.49-13.81,4.86-5.68,1.66-11.45,2.92-17.36,3.35-3.86.29-7.77.23-11.61-.3-1.18-.16-2.35-.37-3.5-.64-.56-.13-1.4-.25-1.83-.5-.07-.04-.26-.04-.31-.11-.03-.04.07-.69.07-.81.02-.57.04-1.15.06-1.72.07-1.96.14-3.92.23-5.87.14-3.25.32-6.5.54-9.74.33-4.93.78-9.85,1.36-14.76.98-8.2,2.24-16.35,2.95-24.58,1.4-16.18,1.59-32.47,1.68-48.71.02-3.13.02-6.27.03-9.4,0-.33-2.67.02-2.67.72h0Z"/>
    <path d="M138.58,367.54s-10.51-21.49-12.53-67.1c-1.55-34.89,46.81-67.33,79.95-73.57,18.23-3.43,79.78,2.12,95.87,8.93,16.09,6.81,25.09,27.61,28,57.75,0,0-10.72-29.67-30.18-28.32-15.88,1.1-67.4-4.97-80.63,1.1-13.24,6.07-33.09,12.67-32.76,60.09.09,12.93-23.27,17.59-29.42,25.58s-18.3,15.53-18.3,15.53Z"/>
    <path d="M175.59,361.18c.32,4.02.67,20.02,1.24,23.93l-21.08.14c-6.72-13.64-14.79-29.68-17.3-33.31-3.93-5.68-5.28-33.7-5.8-44.24l-.11-2.27c-.52-10.11,8.84-26.44,25.02-43.67,17.81-18.97,50.01-30.31,82.04-28.89,3.04.14,6.09.38,9.03.73,27.87,3.33,51.31,16.44,69.65,38.94,13.23,16.23,14.59,35.11,13.84,46.68-1.39-22.74-9.91-38.56-10.27-39.22-8.07-15.28-17.93-19.47-24.78-20.29-5.98-.71-10.4.98-11.28,1.35-6.71,1.67-16.62,1.01-23.77.15-5.33-.64-9.57-1.44-10.72-1.66-3.65-2.36-9.06-4.03-15.68-4.82-15.37-1.84-37.49,1.4-41.88,8.17-4.88,7.51-15.6,34.12-15.51,40.26"/>
    <path class="cls-26" d="M167.57,418.6c-11.56,17.28-20.86-11.41-20.86-11.41-12.14-14.37-12.24-29.78-11.88-40.32.36-10.54,11.95-10.46,11.95-10.46,9.85,1,14.29,6.25,22.75,39.39"/>
    <path class="cls-31" d="M153.22,381.3c-3.71,1.11-4.68,4.62-4.47,8.14.06.92.26,1.81.38,2.72.18,1.43.18,2.81.53,4.22s.84,2.74,1.48,4.02c.99,1.98,4.09,7.12,7,4.91.95-.72.76-2.06.59-3.09-.3-1.72-.87-3.4-1.32-5.08-.31-1.18-1.2-3.64-.33-4.77.33-.42.91-.19,1.45-.13.8.09,1.6.18,2.4.26.2.02,1.22-.12,1.09-.5-1.72-4.85-3.34-9.72-5.67-14.34-1.45-2.89-3.13-5.8-5.41-8.13-.86-.88-1.91-1.83-3.11-2.21s-1.79.5-2.38,1.36c-2.74,4-3.2,9.12-2.62,13.81.04.36,1.39.08,1.34-.36-.46-3.74-.26-7.62,1.24-11.12.53-1.23,1.21-2.54,2.18-3.49l-1.03.34s.45.14.7.27c.81.4,1.52,1.01,2.17,1.64,3.34,3.25,5.49,7.75,7.31,11.96,1.5,3.48,2.68,7.07,3.94,10.63l1.09-.5c-1.7-.19-5.31-1.25-6.15.99-.44,1.17-.03,2.67.25,3.83.38,1.6.9,3.17,1.29,4.78.25,1.04.71,2.54.12,3.54-.15.26-.02.17-.3.09-.34-.1-.65-.28-.94-.48-.74-.52-1.37-1.22-1.92-1.93-1.49-1.94-2.52-4.27-3.11-6.64-.4-1.6-.37-3.23-.66-4.83-.56-3.06-.69-8.23,3.03-9.34.78-.23.65-.79-.15-.55h0Z"/>
    <path class="cls-26" d="M296.31,462.71c-.26-.03-.51-.12-.73-.26-4.11-2.62-4.46-4.13-6.46-4.57-.46-.1-.7-.26-2.13-.44-5.75-.7-9.25-1.23-24.46,8.8-.3.2-20.5-1.98-20.89-2.01l-10.49-4.72c-1.76-1.04-41.32-33.14-41.32-33.14-.61-1.08-7.8-8.76-8.1-9.8-.12-.06-.24-.13-.37-.17-.05-.02-.15-.06-.25-.1-.02.07-.04.16-.05.21-.06.45-.04.92-.01,1.37.12,1.96.6-10.8,1.22-8.93.96,2.87,1.65,6.71,2.49,9.6.3,1.02,3.79,15.27,4.17,16.25,4.49,2.68,28.68,40.58,48.6,46.45,1.05.26,2.13.64,10.93,1.22,16.53,1.08,34.3,1.7,50.45-3.32,4.21-1.31,7.57-4.39,9.2-8.36,4.65-11.31,13.07-37.37,15.4-54.17-4.32,9.79-13.42,30.77-19.7,45.05-.19.43-6.45.89-6.97,1.05"/>
    <path class="cls-29" d="M884.1,534.1c-.05-8.19-.57-6.98-.74-15.37-.01-.71-.11-1.36-.24-1.99,24.58-.24,59.23-11.85,79.96-12.36-.78.59-1.83,17.12-13.29,27.45-18.41,16.59-32.18,19.3-49.9,20.55l-8.91-.2s-5.54.18-5.65-.63l.1-17.47h-1.33Z"/>
    <g>
      <path class="cls-26" d="M983.16,474.96c.59-9.43-1.49-11.49,1.8-20.38,2.5-6.73,13.03-18.04,17.94-23.27,3.97-2.04,9.25.23,12.19,3.37l.53,1.18c4.63,8.22.64,26.84-11.31,38.12-2.66,12.62-17.55,13.17-23.52,8.04.04-2.29,2.22-4.78,2.36-7.06Z"/>
      <path class="cls-26" d="M837.79,464.9c.58-5.47,5.45-14.24,5.04-19.48-.48-6.06-4.53-34.14.77-52.63,2.24-7.81,4.5-14.26,6.49-19.35.23-.18.43-.43.56-.77.43-1.15,1.04-2.49,1.56-3.44,5.72-10.31,17.43-16,28.34-19.54,6.15-1.99,10.87-13.73,17.26-14.67,3.78-.56,9.36,9.4,13.21,9.15-.17.36-.15.5.18.26,0,.18,1.03-.07,2.13-.39,1.11-.05,2.22-.09,3.3-.11-.02.07-.06.14-.1.21-.07.47-.43,1.37-.79,1.37,2.48,1.1,5.35.31,7.8-1.25-.81.77-1.22,1.54-1.62,1.92,2.06-.03,3.7.33,5.74-1.22,0,.38-.8,1.53-1.22,1.53,2.07.73,4.53.32,6.57-.85,0,.38-.81,1.15-1.21,1.53,1.64.36,3.29.33,4.92-.83l-1.21,1.53c1.64-.02,2.89.72,5.35-.07,0,.38-.82.77-.81,1.15,1.24-.02,2.88-.04,4.11-.44,0,.38-1.22,1.15-.81,1.15,1.46-.02,2.61.56,4.28.13.11.05.23.1.34.15-.3.39-.6.89-.91,1.18,1.14-.02,2.28.14,3.42-.01.38.18.75.37,1.12.56-.13.2-.27.4-.41.54.64,0,1.22.1,1.81.18.58.31,1.16.62,1.74.94.11.06.22.13.33.19-.06.05-.11.1-.16.15.14,0,.28,0,.42,0,12.24,7,22.59,16.87,31.21,27.89,6.45,8.25,11.98,17.19,16.59,26.58.09,2.14.06,4.01,0,5.45-.06,1.36-.58,3.46-1.38,5.96-3.62,4.12-6.62,8.71-8.97,13.69-4.7,10-6.63,21.16-7.01,32.14-.27,7.84-3.2,7.69-2.28,15.47l-5.01,13.71-6.64,15.36c-18.62,21.54-41.6,34.96-60.07,37.73-6.08.91-18.75.71-26.4.48-5.19-.16-10.35-1.4-14.76-4.15-22.5-14.02-35.59-52.61-32.8-79.09Z"/>
    </g>
    <path class="cls-31" d="M995.84,459.98c1.7-4.38,3.59-8.73,6.05-12.75,1.27-2.08,2.7-4.16,4.51-5.8.46-.42.95-.82,1.49-1.14.2-.12.41-.23.48-.26s.14-.06.21-.09c.22-.09-.07.02.07-.03.64-.22-.42.18-.33-.12-.04.14.87,1.28.96,1.44,2.02,3.72,2.14,8.18,1.42,12.26-.08.46,1.26.24,1.33-.18.71-4.01.64-8.34-1.21-12.05-.29-.57-.67-1.51-1.21-1.92-.28-.21-.57-.16-.89-.09-3.1.67-5.5,4.09-7.12,6.51-2.98,4.45-5.16,9.44-7.09,14.42-.15.39,1.17.23,1.33-.18h0Z"/>
    <path class="cls-31" d="M994.89,460.49c1.24-.07,2.97-.02,3.28,1.48.24,1.15-.29,2.43-.64,3.51-.74,2.27-2.08,5.47-.11,7.5,2.24,2.3,5.38-1.28,6.41-3.09,1.64-2.87,2.35-6.21,1.93-9.47s-1.38-7.79-4.81-9.05c-.26-.1-.61-.02-.86.08-.04.02-.61.29-.4.37,3.01,1.11,4.04,4.86,4.55,7.7s.38,5.43-.62,8.22c-.64,1.78-1.6,3.67-3.09,4.9-.45.37-.79.64-1.34.33s-.99-.97-1.21-1.55c-.9-2.42.64-5.19,1.27-7.5.25-.93.57-2.17-.06-3.02-.79-1.08-2.55-.98-3.72-.91-.35.02-1.46.57-.58.52h0Z"/>
    <path class="cls-2" d="M859.56,432.53c-2.27-1.4-5.08-1.74-6.72-.46-.39.3-1.43,1.16-1.99,2.7-.72,1.97-.09,4.3,1.06,5.77,1.53,1.96,4.28,2.48,6.47,1.62,2.98-1.16,4.16-4.61,3.62-7.22-.1-.48-.61-1.28-2.44-2.41"/>
    <path class="cls-2" d="M927.52,434.07c2.45-1.07,5.13.19,6.58,1.68.34.35,1.25,1.35,1.6,2.95.44,2.05-.51,4.27-1.85,5.57-1.79,1.73-4.58,1.86-6.64.7-2.79-1.57-3.48-5.15-2.58-7.65.17-.46.92-2.39,2.9-3.26"/>
    <path class="cls-2" d="M906.2,441.06s13.08-8.26,19.47-8.44c11.54-.33,21.73,6.99,24.71,11.53,0,0-15.92-9.85-22.49-9.52-6.28.32-21.69,6.43-21.69,6.43Z"/>
    <g>
      <path d="M877.51,478.13c2.57,1.45,6.58,1.29,9.29-.21.6-.33,2.54.09,1.7.55-3.57,1.98-9.32,1.95-12.64.09-.33-.19-.26-.44.17-.56.44-.13,1.14-.07,1.49.13"/>
      <path d="M889.66,477.78c1.79-.75,3.79-1.1,5.77-1.17.29,0,.66.11.86.31.16.15.19.35-.03.46-.93.48-2.1.64-3.16.58-.34-.02-.78-.12-.95-.41-.17-.27.16-.42.43-.41.88.05,1.78-.09,2.55-.48.28.26.56.51.84.77-1.77.06-3.55.4-5.15,1.07-.32.13-.77.02-1.04-.15-.2-.13-.42-.42-.1-.56"/>
      <path d="M897.49,478.32c2.31.03,5.06-.85,6.26-2.5,1.81-2.5.36-6.87-2.46-8.62-.31-.19-.13-.42.19-.47.42-.07.9.1,1.22.3,2.46,1.53,3.96,5.18,3.5,7.57-.44,2.24-2.7,3.72-5.49,4.27-.83.16-1.71.26-2.57.25-.35,0-.97-.13-1.14-.41-.16-.28.16-.38.49-.38"/>
      <path d="M873.32,476.82c.13-.26-.09-.43-.27-.44-.62,0-1.25-.2-1.77-.64-.21.24-.42.47-.64.71,1.24.18,2.48.63,3.57,1.4.22.15.54.07.74-.08.15-.12.32-.39.11-.55"/>
      <path d="M875.06,477.21c-1.22-.86-2.6-1.35-3.99-1.55-.2-.03-.47.07-.63.25-.12.14-.16.33,0,.46"/>
      <path d="M868.52,476.94c-1.5-.11-3.23-1.17-3.9-2.89-1.02-2.61.13-5.62,2.07-7.18.21-.17.11-.41-.09-.48-.27-.1-.59.04-.81.22-1.69,1.37-2.83,3.65-2.68,6.06.15,2.26,1.52,3.89,3.3,4.61.53.21,1.09.37,1.65.41.23.02.64-.07.76-.33.12-.27-.08-.39-.29-.41"/>
    </g>
    <path class="cls-2" d="M872.11,440.63s-10.97-9.59-16.79-10.47c-8.49-1.28-11.51,1.83-14.75,5.91,0,0,6.54-5.29,12.5-4.21,5.69,1.03,19.04,8.76,19.04,8.76Z"/>
    <path class="cls-16" d="M880.19,493.5c12.22.05,36.1-1.27,36.1-1.27,0,0,0,30.06-31.53,28.69-28.3-1.23-25.68-28.49-25.68-28.49,0,0,8.89,1.02,21.11,1.07Z"/>
    <path class="cls-6" d="M880.08,493.5c5.81.03,33.3-.8,33.3-.8,0,0-4.78,19.75-30.07,19.53-22.07-.19-20.48-19.45-20.48-19.45l17.25.72Z"/>
    <path class="cls-11" d="M879.82,494.41c5.81.07,5.82.34,27.56-.83,0,0-6.4,6.66-23.82,6.58-17.43-.08-23.64-6.56-23.64-6.56l19.9.81Z"/>
    <path class="cls-16" d="M857.82,492.68c.62-.16.73,0,4.2-1.95,1.23-.69,2.4-1.7,5.89-1.97,5.95-.45,9.72,2.03,12.3,2.04,2.59.01,6.37-2.44,12.32-1.93,3.48.3,13.36,1.75,18.17,2.21,2.88.27,6.27-.89,6.89-.73.86.22-.84,6.84-33.34,6.69-32.51-.14-27.28-4.15-26.42-4.37Z"/>
    <ellipse class="cls-7" cx="992.41" cy="486.05" rx="7.09" ry="7.33" transform="translate(-64.03 161.94) rotate(-9.04)"/>
    <path d="M908.47,413.12c17.9-1.94,24.35-.82,36.81,2.98,4.79,1.46,8.19,3.87,10.22,8.52.3.69,1.56,4.73.34,5.13-1.37.45-3.37-3.13-4.2-3.88-2.96-2.73-6.57-3.36-10.28-3.87-6.81-.94-14.41-1.17-21.23-.98-3.44.09-7.43,1.17-12.84,1.86-.95-.67-.51-4.27-.18-6.16.43-2.48.08-.37.52-2.83,0,0-.21-.65.84-.76Z"/>
    <path d="M840.21,414.84c-.13-.89-.26-2.06-.27-2.81,0-.53.03-1.07.09-1.61,9.55-1.13,16.3-.66,30.8,3.33,1,.27.69.88.69.88.04,2.51.03.36.07,2.88.03,1.92-.1,5.54-1.11,6.06-5.1-1.5-8.76-3.18-12.05-3.79-5.64-1.06-11.88-1.88-17.78-2.16-.15-.93-.31-1.85-.44-2.79Z"/>
    <path d="M1042.85,398.18c-10.69-15.93-22.64-31.4-38.16-42.67-14.54-10.56-31.61-17-48.6-22.88-11.43-3.95-23.03-7.72-35.04-9.1-12.01-1.38-24.6-.24-35.38,5.23-9,4.57-16.55,12-26.17,15.05-1.14.36-2.39.65-3.49.2-1.3-.52-3.11,2.41-3.58,1.09-2.67-7.52.87-17.97,6.58-23.55,5.7-5.58,14.5-7.47,21.82-7.47,1.83-7.03,9.33-11.27,16.05-14.04,6.72-2.76,16.64-2.58,22.89,1.13,1.28.76-1.47.28,0,0,.95-.18,1.72-.84,2.46-1.45,4.54-3.78,9.73-6.97,15.51-8.19,5.78-1.21,12.21-.23,16.75,3.55,1.52,1.26,2.84,2.84,4.65,3.64,3.89,1.74,8.25-.6,12.4-1.55,6.21-1.42,13.09.6,17.56,5.14,1.31,1.33,2.53,2.93,4.32,3.42,1.17.33,2.43.12,3.62-.12,3.72-.77,5.43-.04,8.98,1.3,9.99,3.78,13.76,7.58,14.36,15.75.07.89,1.59,1.65,2.19,2.32.64.72,1.71.86,2.67.91,5.49.26,7.95,4.17,12.28,7.55,4.42,3.45,8.3,18.13,8.25,23.74-.05,5.11-.1-2.59-3.2,1.48,0,0,4.54-2.97,8.67,1.29,4.14,4.26,11.82,19.8,7.55,33.81-4.27,14-6.35,13.28-6.35,13.28,0,0,.69,19.02.34,25.58-.35,6.55-10.09,19.06-22.3,19.92,0,0,6.64-.13,7.29,3.94.65,4.07,1.81,4.54-2.68,4.91-4.49.37,7.76-63.19,7.76-63.19Z"/>
    <path d="M1006.64,415.79c-4.79,8.81-9.58,17.61-14.37,26.42-2.57,4.73-3.37,13.26-7.03,9.31-2.04-2.21-2.9-9.58-1.98-12.44,2.78-8.63,5.48-24.37,8.25-32.99-8.68-.32-20.99-10.73-24.1-18.84-3.11-8.11-1.32-11.58-1.04-20.26-3.88,5.31-12.2,5.47-17.86,2.12-5.67-3.35-9.31-9.19-12.72-14.81-2.65,5.71-16.03,5.35-21.68,2.58-5.66-2.77-6.55-3.32-9.06-9.1-2.52-5.77-2.35-7.41-2.71-12.91-.82,8.48-8.14,15.69-11.49,17.08-7.87,3.27-18.37,4.79-24.9-.7,1.82,4.2-.29,9.29-3.79,12.25-3.5,2.96-8.07,4.26-12.52,5.37-.91.23-1.9.45-2.78.11-2.38-.9-1.78-4.44-.61-6.71,11.65-22.72,36.35-38.13,61.87-38.61,23.48-.44,45.57,10.68,65.48,23.15,13.54,8.48,27.48,18.91,31.95,34.25"/>
    <path d="M980.38,395.75c-2.79,2.83-3.17,7.33-2.15,11.17.67,2.53,1.9,4.95,3.78,6.78,1.87,1.83,4.42,3.03,7.03,3.02.42,0,.88-.05,1.2-.33.24-.22.35-.53.45-.84,1.69-5.16,2.6-10.57,2.7-15.99.02-.86,0-1.75-.42-2.5-1.28-2.3-5.03-1.51-6.96-3.29"/>
    <path class="cls-22" d="M160.56,487.34c1.86,4.53,4.7,8.79,7.6,12.7,7.07,9.56,16.13,17.62,26.36,23.67,15.31,9.05,32.99,13.28,50.67,13.85,13.3.43,30.75-1.59,37.13-15.27,3.76-8.08,2.68-17.27,1.01-25.73-.14-.71-.28-1.41-.42-2.12-.8.34-1.6.68-2.39,1.02,3.14,1.48,6.28,2.97,9.42,4.45.76.36,1.53.72,2.29,1.08.17.08.38.23.57.27.42.09-.21.2-.09-.21-.03.1.19.48.23.57,1.25,3.22,2.07,6.64,2.53,10.06.76,5.63.43,11.45-1.54,16.81-2.58,7.02-7.98,12.37-14.51,15.85-10.74,5.73-23.67,7.01-35.63,7.19-12.32.18-24.68-1.38-36.44-5.13-9.55-3.05-18.64-7.56-26.85-13.31-6.74-4.72-12.87-10.3-18.29-16.48-4.01-4.58-7.64-9.49-10.79-14.7-.99-1.64-1.93-3.31-2.81-5.01-.48-.93-.86-1.94-1.37-2.85-.07-.12-.11-.25-.16-.37l-.8.94c5.38-2.35,10.76-4.7,16.14-7.05.39-.17,1.07-.63.7-1.11s-1.36-.23-1.77-.05c-5.38,2.35-10.76,4.7-16.14,7.05-.27.12-.97.52-.8.94.82,2,1.87,3.92,2.92,5.8,2.75,4.91,5.94,9.58,9.46,13.97,5.03,6.26,10.76,11.96,17.08,16.91,7.77,6.09,16.4,11.04,25.6,14.62,11.22,4.37,23.14,6.7,35.16,7.28,7.1.34,14.27.12,21.33-.68,6.3-.71,12.57-1.97,18.54-4.15,7.93-2.89,15.47-7.75,19.83-15.15,3.19-5.41,4.39-11.65,4.16-17.88-.16-4.33-.98-8.66-2.37-12.76-.21-.62-.38-1.45-.75-2.01-.23-.35-.61-.46-.98-.64-.75-.36-1.5-.71-2.25-1.07-2.06-.97-4.12-1.95-6.18-2.92-1.11-.52-2.22-1.05-3.33-1.57-.62-.29-2.58.03-2.39,1.02,1.49,7.82,3.05,15.87.81,23.73-1.36,4.75-4.22,8.91-8.33,11.69-6.11,4.13-13.86,5.25-21.08,5.44-17.71.46-35.93-3.35-51.6-11.73-10.67-5.71-20.15-13.57-27.67-23.06-2.4-3.03-4.61-6.22-6.55-9.56-.9-1.56-1.66-3.22-2.5-4.83-.04-.07-.06-.15-.09-.22-.39-.96-3.03-.17-2.67.72Z"/>
    <path class="cls-22" d="M982.83,552.18c-3.37,4.86-7.25,9.41-11.22,13.79-8.51,9.39-18.03,18.07-28.81,24.79-5.73,3.57-11.86,6.6-18.36,8.47-6.93,2-14.16,2.49-21.31,1.55-5.7-.74-11.45-2.49-15.91-6.24-3.37-2.84-5.64-6.67-6.83-10.89-2.06-7.3-1.09-15.01.2-22.36.11-.63.22-1.26.33-1.89.09-.51-2.17.24-2.35.34-2.44,1.32-4.89,2.64-7.33,3.97-1.13.61-2.31,1.17-3.4,1.84-.25.16-.41.29-.54.53-.4.72-.61,1.64-.86,2.42-.47,1.53-.86,3.09-1.14,4.66-.81,4.42-.93,9,0,13.41,1.2,5.65,4.19,10.7,8.46,14.57,6.35,5.76,14.84,8.73,23.11,10.44,5.15,1.06,10.4,1.73,15.67,1.6,4.81-.12,9.57-.81,14.24-1.93,9.38-2.25,18.28-6.29,26.55-11.21,7.95-4.73,15.38-10.33,22.34-16.41,5.61-4.89,10.93-10.11,15.96-15.6,2.63-2.87,5.2-5.8,7.62-8.86.11-.14.22-.28.33-.42.05-.09.03-.15-.06-.21-4.7-2.35-9.4-4.7-14.1-7.05-.48-.24-1.24,0-1.72.17-.11.04-1.2.53-.8.73,2.52,1.26,5.04,2.52,7.56,3.78,1.6.8,3.21,1.6,4.81,2.41.44.22.95.59,1.42.71.41.1.12.2.23-.03-.38.82-1.3,1.63-1.87,2.32-1.52,1.83-3.08,3.63-4.67,5.4-5.25,5.83-10.84,11.37-16.74,16.54-7.47,6.55-15.47,12.55-24.1,17.5-8.85,5.07-18.5,9.08-28.64,10.54-5.11.74-10.31.78-15.43.09-5.71-.76-11.42-1.98-16.81-4.06-7.06-2.73-13.75-7.1-17.64-13.76-2.77-4.74-3.89-10.24-3.7-15.69.13-3.74.83-7.48,2.03-11.02.14-.42.29-.84.46-1.25.22-.57.24-.25-.11-.18.29-.06.66-.36.92-.5l2.08-1.13,5.15-2.79c.91-.49,1.82-.99,2.74-1.48l-2.35.34c-1.22,7.29-2.51,14.67-1.05,22.04.85,4.29,2.69,8.34,5.69,11.56,3.78,4.04,9.01,6.29,14.34,7.44,14.47,3.13,29.24-.35,42.12-7.19,11.83-6.28,22.25-15.13,31.47-24.78,3.45-3.6,6.74-7.35,9.87-11.23,1.03-1.27,2.04-2.56,3.02-3.87.52-.68,1.13-1.37,1.56-2.12.05-.1.13-.18.19-.27.27-.39-.97-.24-1.06-.23-.5.09-1.26.26-1.57.71Z"/>
    <path class="cls-18" d="M1048.03,781.45l-12.79-65.31,4.88-140.73s48.62,10.93,65.1,51.2c8.46,24.56,21.81,79.86,31.85,128.33,0,0-8.88,10.37-35.77,18.69-26.89,8.32-51.28,7.82-51.28,7.82"/>
    <path class="cls-22" d="M1051.37,608.7c-9.42,2.51-15.64,10.4-19.41,18.99-2.03,4.62-3.41,9.47-4.51,14.39-1.45,6.52-2.54,13.12-3.25,19.76-2.72,25.57.41,51.22,5.69,76.26,3.09,14.67,6.84,29.2,10.53,43.73.09.36.52.57.86.58,12.01.23,24.15-.8,36.01-2.58,10.12-1.52,20.13-3.74,29.78-7.18,7.04-2.51,14.45-4.87,20.91-8.72,3.77-2.25,6.68-5.55,9.97-8.4.28-.25.54-.53.46-.93-.89-4.23-1.78-8.46-2.67-12.7-.16-.76-1.44-.66-1.92-.39-8.84,4.95-18.03,9.37-27.35,13.34-7.5,3.2-15.15,6.05-23.07,8.03-8.8,2.2-17.8,3.53-26.83,4.34-4.75.42-9.54.76-14.32.77-1.5,0-2.07,1.88-.26,1.88,12.73-.02,25.67-1.61,38.08-4.34,15.61-3.44,30.42-9.99,44.66-17.13,3.44-1.73,6.88-3.49,10.24-5.37-.64-.13-1.28-.26-1.92-.39.89,4.23,1.78,8.46,2.67,12.7l.46-.93c-2.95,2.56-5.39,5.35-8.52,7.48-5.12,3.48-11.59,5.58-17.45,7.73-9.67,3.54-19.48,6.21-29.64,7.89-8.48,1.4-17.05,2.27-25.64,2.73-3.12.17-6.24.28-9.36.32-.9.01-1.8.02-2.7.01-.13,0-.27,0-.4,0,.43,0,.06-.06,0,0-.02.03-.21,0-.26,0l.86.58c-6.27-24.75-12.84-49.57-15.74-74.99-1.42-12.47-1.89-25.06-1.05-37.59.43-6.42,1.21-12.82,2.34-19.16.98-5.51,2.11-11.06,3.91-16.38,3.21-9.47,8.92-19.79,19.29-22.55,1.64-.44,1.18-2.19-.47-1.75h0Z"/>
    <path class="cls-18" d="M805.76,791.14s-12.57-18.49-14.05-30.9-.41-25.81-.41-25.81l22.89,8.72-8.43,47.99Z"/>
    <path class="cls-26" d="M492.45,579.72l-39.8-14.56-33.77,121.64-14.71,37.79c-6.51,17.19-11,34.21-13.73,52.38-.46,3.09-.92,5.46-1.24,7.69.04,4.02.32,7.99.83,11.82,1.05,7.93,3.69,16.29,8.64,22.31,5.08,4.07,10.63,7.16,13.84,8.18.82.14,1.67.25,2.55.3.65.04,1.22.21,1.72.47,17.93,2.39,29.91-1.51,42.83-14.23,16.59-16.32,22.19-63.35,26.48-84.76,4.35-21.74,14.59-144.09,14.53-166.26l-8.18,17.23Z"/>
    <path class="cls-26" d="M4.77,747.8c4.96,1.64,11.83,2.92,16.86,4.15,7.4,1.81,14.86,3.3,22.33,4.69,4.37.81,8.74,1.6,13.16,2.02,7.34.71,14.72.7,22.05.24,9.08-.57,18.08-1.83,27.07-3.18l-11.63,128.93,9.37,38.49c1.84,7.55,3.24,15.2,4.21,22.9l22.54,179.56-63.82,18.49C25.87,968.79,8.08,949.84.9,895.45c-6.5-49.21,1.77-102.61,3.88-147.66Z"/>
    <path class="cls-18" d="M1.11,671.62l-11.23,93.93s65.96,19.67,139.89,8.7c72.95-10.82,59.65-79.17,59.65-79.17L1.11,671.62Z"/>
    <path class="cls-22" d="M99.38,559.76c4.73,1,8.65,4.68,11.78,8.14,4.25,4.7,7.73,10.09,10.78,15.62s5.82,11.55,8.03,17.61c1.69,4.63,3.28,9.5,3.76,14.44.63,6.51.51,13.19.5,19.73-.01,7.6-.22,15.2-.56,22.79-.75,16.9-2.12,33.76-3.72,50.59-1.83,19.36-3.98,38.69-6.17,58.02-.29,2.57-.59,5.14-.88,7.72l1.17-.8c-.3.08-.6.14-.89.21-.37.08-.74.16-1.11.24-.11.02-.22.04-.32.07-.37.08.17-.03-.08.02-.29.06-.59.12-.88.17-3.4.65-6.82,1.15-10.25,1.57-12.76,1.55-25.66,1.89-38.5,1.42-18.35-.67-36.48-3.38-54.57-6.4-5.57-.93-11.14-1.9-16.68-3.02-1.71-.35-3.42-.71-5.11-1.11-.63-.15-1.26-.3-1.88-.46-.25-.06-.5-.13-.75-.2-.15-.04-.72-.2-.58-.16-.66-.19-1.32-.39-1.96-.64-.19-.07-.37-.16-.56-.24-.1-.05-.54-.26-.21-.1-.02,0-.2-.15-.19-.16.01-.01,0,.04.02.03,0,0-.29.44-.45.57.1-.08-.37.17-.27.13.26-.1.77-.35.82-.68.97-6.23,1.93-12.46,2.9-18.69-.8.27-1.6.53-2.4.8,3.73,1.8,7.7,3.18,11.63,4.47,10.4,3.44,21.12,5.88,31.95,7.5,15.41,2.31,30.96,2.62,46.52,2.48,11-.1,22.01-.48,32.97-1.46,4.02-.36,8.07-.73,12.05-1.46.05,0,.09-.02.14-.03.4-.08,1.5-.32,1.53-.87s-.73-.59-1.14-.51c-3.09.59-6.26.91-9.39,1.22-9.82.99-19.69,1.42-29.55,1.61-15.52.3-31.12.27-46.54-1.68-11.44-1.44-22.8-3.77-33.81-7.21-3.26-1.02-6.5-2.13-9.68-3.38-1.46-.57-2.88-1.27-4.35-1.83-.06-.02-.12-.06-.18-.09-.56-.27-2.28.02-2.4.8-.97,6.23-1.93,12.46-2.9,18.69l.82-.68c-.41.15-1.06.54-.9,1.07.18.59,1.31.89,1.8,1.06,2.06.73,4.21,1.22,6.34,1.7,4.54,1.02,9.13,1.87,13.71,2.68,17.84,3.16,35.8,6.07,53.9,7.24,14.43.93,28.96.86,43.36-.59,6.03-.61,12.26-1.28,18.14-2.83.07-.02.15-.04.22-.06.32-.08,1.12-.37,1.17-.8,2.27-19.9,4.52-39.81,6.48-59.74,1.7-17.34,3.19-34.7,4.08-52.1.75-14.7,1.09-29.45.46-44.16-.22-5.01-1.28-9.73-2.84-14.5-1.98-6.03-4.51-11.89-7.41-17.54-2.97-5.78-6.36-11.42-10.43-16.49-3.22-4.02-7.07-8.08-11.87-10.19-.96-.42-1.97-.74-3-.96-.58-.12-1.45.09-1.89.51-.39.38-.33.75.23.87h0Z"/>
    <g>
      <path class="cls-15" d="M257.78,662.49c-16,0-29.06-13.11-29.06-29.21s13.06-29.16,29.06-29.16,29.06,13.11,29.06,29.21-13.01,29.21-29.06,29.21v-.05ZM257.78,611.2c-12.11,0-21.99,9.92-21.99,22.08s9.87,22.08,21.99,22.08,21.99-9.92,21.99-22.08-9.87-22.08-21.99-22.08Z"/>
      <path class="cls-24" d="M343.83,711.95c-4.39-.7-16.85-.9-26.27.4-25.38,3.44-47.66,17.9-51.2,20.29h-1.45c-3.54-2.29-26.32-16.5-51.75-19.89-10.57-1.4-17.55-1.35-22.13-1.3h-3.94c-.95,0-1.7.75-1.74,1.69,0,.95.7,1.79,1.7,1.84h4.04c4.54,0,11.37-.1,21.69,1.3,26.27,3.49,50.5,19.49,50.75,19.64l.45.3h3.59l.45-.3c.25-.15,23.93-16.45,50.15-19.99,9.12-1.25,21.09-1.05,25.28-.4.95.15,1.84-.5,1.99-1.45s-.5-1.84-1.45-1.99h0l-.15-.15Z"/>
      <g>
        <path class="cls-24" d="M259.03,737.62c-7.23-4.04-22.83-11.57-42.57-14.41-27.57-3.94-35.94-1.2-35.94-1.2l12.21,41.48s31.96-6.88,66.3,11.12v-36.99h0Z"/>
        <path class="cls-24" d="M316.16,722.52c-20.14,2.14-35.79,10.62-42.82,15.11v37.19c31.16-16.45,66.55-11.22,66.55-11.22l12.21-41.48s-8.28-2.54-35.94.45v-.05Z"/>
        <path class="cls-24" d="M269.25,740.27h-5.83s-.1-.05-.3-.2v35.74h6.13v-35.6h0v.05Z"/>
      </g>
      <g>
        <path class="cls-15" d="M271.34,639.31c-.25-.25-.65-.35-1.3-.3-.5.05-1,.45-1.45.8-.25.2-.5.4-.7.5-4.24,2.29-9.52,2.94-14.91,1.84-2.09-.45-4.04-1.4-5.83-2.34-.25-.15-.5-.3-.75-.5-.65-.45-1.35-.95-1.89-.45-.6.6-.75,1.6-.3,2.64.05.15.15.25.2.4.05.1.15.2.2.3,2.19,4.49,8.18,6.08,13.06,6.08h0c5.63,0,9.87-1.84,12.61-5.48.5-.65.85-1.4,1.05-2.14.1-.45.2-1.05-.1-1.4l.1.05Z"/>
        <path class="cls-15" d="M245.47,632.58c.7.15,1.35-.1,1.84-.7v-.1c.55-.55,1.05-1.15,1.55-1.65.7-.6,1.25-.6,1.99,0,.6.5,1.15,1.15,1.5,1.65.45.55,1,.85,1.6.85s.7-.1,1-.35c.4-.3.7-.7.75-1.2.1-.5,0-1-.35-1.4-.65-.85-1.25-1.55-1.89-2.14-1.05-.95-2.24-1.5-3.59-1.6h-.5c-.35.05-.7.1-1,.25-1.69.6-3.04,1.79-4.14,3.69-.25.45-.2,1.1-.15,1.3.15.7.65,1.2,1.4,1.3v.1Z"/>
        <path class="cls-15" d="M261.22,632.53c.15,0,.3.05.45.05.55,0,1.05-.25,1.5-.75l.2-.25c.4-.5.85-1,1.3-1.45.75-.65,1.35-.65,2.09,0,.55.45,1.05,1.05,1.45,1.6.2.25.45.5.8.65l-.3.15h1.05c.7,0,1.25-.3,1.6-.9.35-.65.35-1.3,0-1.89-.8-1.3-1.79-2.24-2.89-2.94-1.35-.85-2.69-1.05-3.94-.6-1.74.55-3.19,1.79-4.39,3.79-.15.25-.2.65-.15,1,.1.75.55,1.3,1.35,1.5l-.1.05Z"/>
      </g>
      <path class="cls-15" d="M335.65,705.02h0c-4.14-9.77-11.57-17.65-20.79-22.04-4.19,5.83-10.97,9.62-18.65,9.62s-13.31-3.19-17.5-8.18c-11.02,6.33-18.99,17.85-21.09,31.46-21.24-12.41-45.12-14.86-51.2-15.26,2.34-13.81,10.42-27.17,22.48-36.79l3.59-2.89c1.65-1.3,1.89-3.69.6-5.33-1.3-1.65-3.69-1.89-5.33-.6l-3.59,2.89c-15.4,12.31-25.03,30.16-25.97,48.06,6.33.05,31.46,1.4,58.83,16.85h0c2.89,1.65,5.83,3.49,8.72,5.48,19.99-16.2,44.92-21.14,58.98-22.58h.4c6.33-.7,10.02-.5,10.52-.5,0,0,0-.1-.05-.15h0l.05-.05Z"/>
      <path class="cls-15" d="M296.17,651.08c-10.12,0-18.35,8.28-18.35,18.4s8.23,18.4,18.35,18.4,18.3-8.28,18.3-18.4-8.23-18.4-18.3-18.4h0ZM286.55,667.53c0-.25,0-.55.1-.75.65-1.1,1.5-1.94,2.69-2.39.3-.1.65-.15.95-.2.9.05,1.69.4,2.29,1,.45.45.9.9,1.25,1.45s.25,1.15-.25,1.5-1.1.2-1.5-.3c-.3-.4-.65-.8-1.05-1.15-.55-.45-1-.45-1.55,0-.4.35-.75.75-1.1,1.2-.3.35-.65.5-1.05.4s-.7-.35-.8-.75h0ZM304.99,675.95c-.1.45-.35.85-.65,1.25-1.25,1.55-3.34,2.59-5.33,2.99-1,.2-2.04.3-3.04.45-2.39-.1-4.69-.6-6.63-1.99-.6-.45-1.1-1.05-1.6-1.6-.1-.1-.2-.25-.25-.4-.25-.55-.2-1.1.15-1.4s.95.3,1.5.6c1.2.6,2.39,1.15,3.74,1.45,3.24.6,6.83.35,9.77-1.1.4-.2.85-.75,1.3-.8.75-.1,1.15,0,1,.7h0l.05-.15ZM306.44,667.78c-.2.35-.5.5-.9.5s-.65-.2-.9-.5c-.3-.4-.65-.75-1-1.1-.55-.5-1.05-.5-1.65,0-.4.35-.7.75-1.05,1.15-.3.35-.7.55-1.15.4-.45-.1-.7-.4-.8-.9,0-.2,0-.4.1-.6.7-1.15,1.55-2.04,2.84-2.49.9-.3,1.74-.1,2.54.4s1.4,1.15,1.89,1.94c.25.35.25.75,0,1.1h0l.05.1Z"/>
    </g>
    <g>
      <path class="cls-15" d="M895.7,699.78c-14.68,0-26.67-12.03-26.67-26.8s11.98-26.76,26.67-26.76,26.67,12.03,26.67,26.8-11.94,26.8-26.67,26.8v-.05ZM895.7,652.71c-11.12,0-20.17,9.1-20.17,20.26s9.06,20.26,20.17,20.26,20.17-9.1,20.17-20.26-9.06-20.26-20.17-20.26Z"/>
      <path class="cls-24" d="M974.65,745.16c-4.03-.64-15.46-.82-24.11.37-23.28,3.16-43.73,16.42-46.98,18.62h-1.33c-3.25-2.1-24.15-15.14-47.48-18.25-9.7-1.28-16.1-1.24-20.31-1.19h-3.61c-.87,0-1.56.69-1.6,1.56,0,.87.64,1.65,1.56,1.69h3.71c4.16,0,10.43-.09,19.9,1.19,24.11,3.2,46.34,17.89,46.57,18.02l.41.27h3.29l.41-.27c.23-.14,21.96-15.09,46.02-18.34,8.37-1.14,19.35-.96,23.19-.37.87.14,1.69-.46,1.83-1.33s-.46-1.69-1.33-1.83h0l-.14-.14Z"/>
      <g>
        <path class="cls-24" d="M896.84,768.71c-6.63-3.71-20.95-10.61-39.06-13.22-25.3-3.61-32.98-1.1-32.98-1.1l11.21,38.06s29.32-6.31,60.84,10.2v-33.94h0Z"/>
        <path class="cls-24" d="M949.26,754.85c-18.48,1.97-32.84,9.74-39.29,13.86v34.12c28.59-15.09,61.07-10.29,61.07-10.29l11.21-38.06s-7.59-2.33-32.98.41v-.05Z"/>
        <path class="cls-24" d="M906.22,771.14h-5.35s-.09-.05-.27-.18v32.8h5.63v-32.66h0v.05Z"/>
      </g>
      <g>
        <path class="cls-15" d="M908.14,678.51c-.23-.23-.59-.32-1.19-.27-.46.05-.91.41-1.33.73-.23.18-.46.37-.64.46-3.89,2.1-8.74,2.7-13.68,1.69-1.92-.41-3.71-1.28-5.35-2.15-.23-.14-.46-.27-.69-.46-.59-.41-1.24-.87-1.74-.41-.55.55-.69,1.46-.27,2.42.05.14.14.23.18.37.05.09.14.18.18.27,2.01,4.12,7.5,5.58,11.98,5.58h0c5.17,0,9.06-1.69,11.57-5.03.46-.59.78-1.28.96-1.97.09-.41.18-.96-.09-1.28l.09.05Z"/>
        <path class="cls-15" d="M884.4,672.34c.64.14,1.24-.09,1.69-.64v-.09c.5-.5.96-1.05,1.42-1.51.64-.55,1.14-.55,1.83,0,.55.46,1.05,1.05,1.37,1.51.41.5.91.78,1.46.78s.64-.09.91-.32c.37-.27.64-.64.69-1.1.09-.46,0-.91-.32-1.28-.59-.78-1.14-1.42-1.74-1.97-.96-.87-2.06-1.37-3.29-1.46h-.46c-.32.05-.64.09-.91.23-1.56.55-2.79,1.65-3.8,3.38-.23.41-.18,1.01-.14,1.19.14.64.59,1.1,1.28,1.19v.09Z"/>
        <path class="cls-15" d="M898.85,672.29c.14,0,.27.05.41.05.5,0,.96-.23,1.37-.69l.18-.23c.37-.46.78-.91,1.19-1.33.69-.59,1.24-.59,1.92,0,.5.41.96.96,1.33,1.46.18.23.41.46.73.59l-.27.14h.96c.64,0,1.14-.27,1.46-.82.32-.59.32-1.19,0-1.74-.73-1.19-1.65-2.06-2.65-2.7-1.24-.78-2.47-.96-3.61-.55-1.6.5-2.93,1.65-4.03,3.48-.14.23-.18.59-.14.91.09.69.5,1.19,1.24,1.37l-.09.05Z"/>
      </g>
      <path class="cls-15" d="M967.14,738.8h0c-3.8-8.97-10.61-16.19-19.07-20.22-3.84,5.35-10.06,8.83-17.11,8.83s-12.21-2.93-16.06-7.5c-10.11,5.81-17.43,16.38-19.35,28.86-19.49-11.39-41.4-13.63-46.98-14,2.15-12.67,9.56-24.93,20.63-33.76l3.29-2.65c1.51-1.19,1.74-3.38.55-4.89-1.19-1.51-3.38-1.74-4.89-.55l-3.29,2.65c-14.13,11.3-22.96,27.67-23.83,44.1,5.81.05,28.86,1.28,53.98,15.46h0c2.65,1.51,5.35,3.2,8,5.03,18.34-14.87,41.21-19.39,54.11-20.72h.37c5.81-.64,9.19-.46,9.65-.46,0,0,0-.09-.05-.14h0l.05-.05Z"/>
      <path class="cls-15" d="M930.92,689.31c-9.29,0-16.83,7.59-16.83,16.88s7.55,16.88,16.83,16.88,16.79-7.59,16.79-16.88-7.55-16.88-16.79-16.88h0ZM922.09,704.4c0-.23,0-.5.09-.69.59-1.01,1.37-1.78,2.47-2.2.27-.09.59-.14.87-.18.82.05,1.56.37,2.1.91.41.41.82.82,1.14,1.33s.23,1.05-.23,1.37-1.01.18-1.37-.27c-.27-.37-.59-.73-.96-1.05-.5-.41-.91-.41-1.42,0-.37.32-.69.69-1.01,1.1-.27.32-.59.46-.96.37s-.64-.32-.73-.69h0ZM939.01,712.13c-.09.41-.32.78-.59,1.14-1.14,1.42-3.06,2.38-4.89,2.74-.91.18-1.88.27-2.79.41-2.2-.09-4.3-.55-6.08-1.83-.55-.41-1.01-.96-1.46-1.46-.09-.09-.18-.23-.23-.37-.23-.5-.18-1.01.14-1.28s.87.27,1.37.55c1.1.55,2.2,1.05,3.43,1.33,2.97.55,6.27.32,8.97-1.01.37-.18.78-.69,1.19-.73.69-.09,1.05,0,.91.64h0l.05-.14ZM940.34,704.63c-.18.32-.46.46-.82.46s-.59-.18-.82-.46c-.27-.37-.59-.69-.91-1.01-.5-.46-.96-.46-1.51,0-.37.32-.64.69-.96,1.05-.27.32-.64.5-1.05.37-.41-.09-.64-.37-.73-.82,0-.18,0-.37.09-.55.64-1.05,1.42-1.88,2.61-2.29.82-.27,1.6-.09,2.33.37s1.28,1.05,1.74,1.78c.23.32.23.69,0,1.01h0l.05.09Z"/>
    </g>
    <g>
      <path class="cls-12" d="M480.19,566.9c6.91-5.21,12.03-12.75,14.33-21.09.66-2.4,1.1-4.9.77-7.37-.37-2.77-1.67-5.31-2.96-7.79-1.9-3.67-3.8-7.33-5.7-11,8.39-.83,19.76.44,21.43-12.07-3.7-2.93-9-1.76-13.71-1.59-4.9.17-9.74-.93-14.59-1.62s-9.95-.93-14.51.86c-4.56,1.79-8.44,6.07-8.42,10.97"/>
      <path class="cls-20" d="M480.57,567.1c5.16-3.94,9.36-9.04,12.15-14.91,1.47-3.1,2.67-6.46,3.13-9.87.51-3.77-.53-7.11-2.21-10.45-2.08-4.15-4.27-8.26-6.4-12.38l-.67.52c4.6-.44,9.38-.27,13.79-1.82,4.88-1.71,7.59-5.62,8.3-10.67.02-.12-.04-.17-.13-.24-2.88-2.18-6.56-2.14-10-1.91-2.11.14-4.2.33-6.32.25-2.48-.1-4.94-.46-7.39-.85-7.62-1.22-16.54-2.84-23.25,2.1-3.03,2.23-5.27,5.56-5.32,9.4,0,.53,1.18.3,1.19-.13.09-6.52,6.06-10.79,12.02-11.66,6.86-1,13.63,1.15,20.42,1.74,3.06.27,6.05,0,9.1-.17,1.56-.09,3.16-.12,4.7.15,1.03.18,3.72.74,3.71,2,0,2.18-1.35,4.82-2.76,6.41-1.29,1.46-3,2.45-4.84,3.06-4.19,1.4-8.73,1.21-13.08,1.63-.14.01-.82.23-.67.52,2.24,4.32,4.58,8.6,6.7,12.98.96,1.98,1.8,4.07,2.01,6.28.24,2.5-.29,5.01-.99,7.39-2.35,8.01-7.31,15.18-13.95,20.25-.64.49.35.7.75.4h0Z"/>
    </g>
    <g>
      <path class="cls-12" d="M524.9,512.75c-3.72,3.63-7.45,7.26-11.17,10.89-1.85,1.81-3.78,3.66-6.2,4.59-2.14.82-4.86.72-6.37-1-1.1-1.26-1.31-3.11-.94-4.74s8.34-13.94,9.2-15.38"/>
      <path class="cls-20" d="M524.4,512.58c-3.72,3.63-7.44,7.26-11.17,10.89-1.67,1.63-3.41,3.33-5.59,4.26-2.02.86-4.73.87-6.16-1.04-1.76-2.35-.51-4.8.72-6.94,1.37-2.37,2.82-4.7,4.28-7.02,1.16-1.86,2.37-3.69,3.5-5.56.33-.56-.87-.56-1.13-.13-2.69,4.49-5.68,8.79-8.23,13.37-1.29,2.33-1.9,5.32.31,7.4,3.17,2.97,8.02.63,10.77-1.67,2.24-1.88,4.26-4.03,6.36-6.07,2.44-2.38,4.89-4.76,7.33-7.14.53-.51-.62-.7-.99-.34h0Z"/>
    </g>
    <g>
      <path class="cls-12" d="M518.71,519.05c-1.3,2.41-6.13,9.87-7.18,12.4-.43,1.02-.83,2.21-.34,3.2.23.46.67.76,1.05,1.12,6.3,6.05,15.39-3.58,18.71-5.46,0,0,3.19-1.86,4.97-5.18"/>
      <path class="cls-20" d="M518.15,519c-1.62,2.97-3.51,5.8-5.22,8.72-.77,1.31-1.58,2.64-2.12,4.06-.34.89-.63,1.9-.29,2.83.32.86,1.24,1.54,1.96,2.08,5.69,4.3,12.74-1.68,17.19-5.02.81-.6,1.67-1.11,2.48-1.7,1.75-1.29,3.25-2.9,4.31-4.8.31-.55-.89-.51-1.12-.1-1.38,2.46-3.38,3.96-5.62,5.52s-4.28,3.35-6.64,4.73c-2.65,1.56-6.03,2.89-8.95,1.2-.77-.44-1.67-1.1-2.2-1.82-.77-1.05-.19-2.47.28-3.52.55-1.21,1.24-2.36,1.91-3.5,1.69-2.88,3.54-5.67,5.14-8.59.3-.56-.9-.52-1.12-.1h0Z"/>
    </g>
    <polygon class="cls-10" points="484.14 288.66 488.96 300.24 501.21 302.81 491.71 310.96 493.05 323.42 482.35 316.9 470.91 322.02 473.82 309.82 465.4 300.53 477.9 299.53 484.14 288.66"/>
    <polygon class="cls-23" points="644.26 272.61 649.08 284.19 661.33 286.76 651.83 294.91 653.16 307.37 642.47 300.86 631.03 305.97 633.93 293.78 625.52 284.49 638.01 283.49 644.26 272.61"/>
    <polygon class="cls-23" points="570.46 194.74 575.28 206.31 587.53 208.88 578.03 217.03 579.36 229.5 568.67 222.98 557.23 228.09 560.13 215.9 551.72 206.61 564.21 205.61 570.46 194.74"/>
    <polygon class="cls-23" points="416.05 221.34 423.1 238.25 441 242.01 427.11 253.92 429.07 272.13 413.44 262.61 396.73 270.08 400.97 252.26 388.67 238.69 406.93 237.23 416.05 221.34"/>
    <polyline class="cls-17" points="541.89 291.4 561.24 289.85 570.92 273.01 578.39 290.94 597.36 294.92 582.64 307.55 584.71 326.86 568.14 316.76 550.43 324.68 554.92 305.79 541.89 291.4"/>
    <polygon class="cls-21" points="722.65 283.79 731.54 305.15 754.14 309.89 736.61 324.93 739.07 347.92 719.34 335.9 698.24 345.33 703.59 322.83 688.08 305.7 711.12 303.85 722.65 283.79"/>
    <polygon class="cls-21" points="349.65 154.92 354.94 167.6 368.36 170.42 357.95 179.36 359.41 193.01 347.69 185.87 335.16 191.47 338.34 178.11 329.12 167.93 342.81 166.83 349.65 154.92"/>
    <polygon class="cls-21" points="1097.82 416.21 1103.11 428.89 1116.53 431.71 1106.12 440.65 1107.58 454.3 1095.86 447.16 1083.33 452.76 1086.51 439.4 1077.29 429.22 1090.98 428.12 1097.82 416.21"/>
    <path class="cls-26" d="M781.89,700.96c4.11,15.11,12.24,40.45,13.07,56.08.36,6.83,2.82,15.39,2.52,26.86-.35,13.21,2.71,29.41-22.32,37.98-8.78,3.01-18.69,1.55-26.45-3.55-36.51-23.98-31.63-87.85-33.41-120.65-1.03-18.86-6.84-109.59-6.57-115.83l9.69-11.51,32.59,2.57,21.07,94.25"/>
  </g>
</svg>