<?xml version="1.0" encoding="UTF-8"?>
<svg id="Layer_1" data-name="Layer 1" xmlns="http://www.w3.org/2000/svg" xmlns:xlink="http://www.w3.org/1999/xlink" viewBox="0 0 1334 1000">
  <defs>
    <style>
      .cls-1, .cls-2, .cls-3 {
        fill: none;
      }

      .cls-4 {
        fill: #070707;
      }

      .cls-5 {
        fill: #e4e657;
      }

      .cls-6 {
        fill: #111011;
      }

      .cls-7 {
        fill: #010101;
      }

      .cls-8 {
        fill: #0c0a09;
      }

      .cls-2 {
        stroke: #020202;
        stroke-width: .24px;
      }

      .cls-2, .cls-3 {
        stroke-miterlimit: 10;
      }

      .cls-9 {
        fill: #27153b;
      }

      .cls-10 {
        fill: #b8deec;
      }

      .cls-11 {
        clip-path: url(#clippath-1);
      }

      .cls-12 {
        fill: #6b3825;
      }

      .cls-13 {
        fill: #f0e8cf;
      }

      .cls-14 {
        fill: #fff;
      }

      .cls-3 {
        stroke: #d6aa28;
        stroke-dasharray: .98 .98;
        stroke-width: .98px;
      }

      .cls-15 {
        fill: #643b29;
      }

      .cls-16 {
        fill: #8b352c;
      }

      .cls-17 {
        opacity: .4;
      }

      .cls-18 {
        fill: #8d8d8d;
      }

      .cls-19 {
        fill: #774f80;
      }

      .cls-20 {
        fill: #af6c4e;
      }

      .cls-21 {
        fill: #0f1930;
      }

      .cls-22 {
        fill: #301810;
      }

      .cls-23 {
        fill: #5a2b66;
      }

      .cls-24 {
        fill: #f0edf6;
      }

      .cls-25 {
        clip-path: url(#clippath);
      }

      .cls-26 {
        fill: #4c94a9;
      }

      .cls-27 {
        fill: #d6aa28;
      }

      .cls-28 {
        fill: #263238;
        opacity: .36;
      }

      .cls-29 {
        fill: #4f2e25;
      }
    </style>
    <clipPath id="clippath">
      <polyline class="cls-1" points="534.53 1146.87 714.53 -84.4 -124.14 -84.4 -124.14 1146.87"/>
    </clipPath>
    <clipPath id="clippath-1">
      <path class="cls-1" d="M445.97,484.49c-19.02-36.28-49.1-61.93-60.04-70.5-1.15-2.92-2.05-6.5-2.73-11.1,3.41-19.19,11.84-68.8,13.46-98.57,2.19-40.44-9.88-101.84-9.88-101.84-23.6-95.41-121.61-74.16-121.61-74.16-144.5,17-102.74,209.59-95.55,238.81l.09,5.41-14.29,22.94-10.8,12.44s-23.62,21.6-43.27,42.27c-19.64,20.67-33.27,35.22-44.18,165.57-2.59,30.92-1.9,87.24-1.9,87.24,0,0,85.48,62.52,224.98,70.99,139.5,8.47,193.7-61.99,193.7-61.99,0,0-4.41-182.54-27.98-227.52ZM242.03,225.83c7.73-22.83,23.29-30.39,23.29-30.39,28.28-14.41,70.35-23.98,102.37,1.97,19.29,15.62,18.48,44.23,18.59,46.73.11,1.46.18,2.84.18,4.08-.03,14.47-1.98,39.19-2.24,45.45-.22,5.42.49,13.94,1.31,19.56,1.82,12.56,1.97,15.89-.81,28.63-2.69,12.32-5.56,18.95-12.24,29.69-6.96,11.19-12.09,21.79-21.66,31.43-6.31,6.35-11.78,10.74-29.69,11.54-26.39,1.17-57.92-25.77-75.23-42.28l-6.83-14.78c-5.55-16.5-7.48-41.24-8.72-58.48-2.11-29.46,3.94-50.3,11.67-73.13Z"/>
    </clipPath>
  </defs>
  <rect class="cls-10" x="-64.32" y="-38.5" width="1436.96" height="1092.4"/>
  <g class="cls-25">
    <polyline class="cls-13" points="533.79 1148.87 723.79 -82.4 -124.88 -82.4 -124.88 1148.87"/>
    <path class="cls-6" d="M133.75,736.43s-116.37,197.75-45.6,311.41c25.76,52.45,164.6,34.23,164.6,34.23l194.36-183.82-20.96-134.57-292.4-27.25Z"/>
    <path class="cls-6" d="M412.31,1107.88c3.3,21.59,5.81,44.56,7.67,68.16,1.86.3-11.54,262.95-9.68,263.25,65.01,10.41,123.43,19.02,186.13,0,6.92-39.82,24.38-345.27,29.52-377.49,13.45-84.23,3.98-123.12-33.52-144.27-56.56-31.88-237.25-135.64-287.78-123.09-32.1,7.97,85.71,169.82,107.67,313.44Z"/>
    <path class="cls-6" d="M569.81,1087.04c1.73-8.12,3.84-16.13,6.23-24,5.39-17.8,12.25-35.01,20.12-51.56,8.09-17.01,17.33-33.33,27.67-48.66,7.03-10.42-31.93-29.43-23.8-38.76-146.44-49.66-412.71-49.05-412.71-49.05,0,0-122.61,21.91-99.63,133.04,21.95,106.17,353.43,77.44,480.46,79.4.58,0,1.11-.27,1.66-.4Z"/>
    <path class="cls-6" d="M313.74,1405.23c0,13.78,60.11,28.78,80.72,32.08,39.31,6.3,99.3-16.96,138.83-17.93,26.14-126.89,59.14-465.8,59.14-465.8,0,0-17.17-2.08-41.26,1.14,3.85-12.73,4.83-22.02,4.83-22.02-2.45-2.85-5.03-5.75-7.73-8.71-13.55,5.4-26.69,12.25-39.36,20.08-14.74,9.11-28.87,19.59-42.26,31.23-12.9,11.22-25.12,23.61-36.25,37.2-3.15,3.85-41.16,2.63-44.12,6.69.42.11-18.56,20.24-18.15,20.34-20.85,31.19-56.53,316.54-54.4,365.7Z"/>
    <path class="cls-20" d="M525.97,558.03l-7.7,35.69c-2.23,10.43-3.6,20.61-13.47,24.52h0l-8.85,28.92-43.92-21.41,8.69-44.51,50.03-36.56,15.21,13.35Z"/>
    <path class="cls-6" d="M514.19,625.34c-5.61,30.9-19.52,60.31-28.08,90.53-5.97,21.07-11.41,43.49-20.7,63.37-.29.61-.58,1.23-.9,1.85-9.07,18-29.94,40.49-51.99,29.31-12.31-6.24-9.42-23.78-17.03-33.67-.58-.76-1.21-1.48-1.9-2.16-9.93-9.79-20.58-14.45-25.3-27.76,2.74-.24,10.16-.61,10.16-.61l92.43-158.84"/>
    <path class="cls-6" d="M427.3,707.23s.02.12.05.3l9.61-.3h-9.67Z"/>
    <path class="cls-6" d="M163.32,875.06c93.73,29.83,193.48,65.08,286.27,36-7.32-75.99-21.31-198.19-22.24-203.51l-281.78,8.94-33.66,93.34c-4.58,12.71-8.67,25.57-12.29,38.56,20.4,10.7,41.67,19.68,63.7,26.69Z"/>
    <path class="cls-6" d="M189.75,754.88c-1.94-24.56-11.67-122.14-24.76-198.08h-92.79c1.67,13.34-7.73,26.62-6.04,39.68,5.64,43.51,10.74,87.07,20.53,129.92,5.49,24,11.03,55.56,25.43,77.89,2.63,5.8,6.16,10.82,10.87,14.66,23.43,19.07,49.65,16.26,49.65,16.26l10.38-79.58c2.17.06,4.4.03,6.72-.75Z"/>
    <g>
      <ellipse class="cls-2" cx="321.98" cy="746.33" rx="8.84" ry="9.35" transform="translate(-490.84 747) rotate(-66.71)"/>
      <ellipse class="cls-2" cx="331.57" cy="746.43" rx="8.84" ry="9.35" transform="translate(-485.13 755.87) rotate(-66.71)"/>
      <ellipse class="cls-2" cx="322.64" cy="762.06" rx="8.84" ry="9.35" transform="translate(-504.89 757.12) rotate(-66.71)"/>
      <ellipse class="cls-2" cx="332.23" cy="762.17" rx="8.84" ry="9.35" transform="translate(-499.19 765.99) rotate(-66.71)"/>
    </g>
    <path class="cls-19" d="M445.97,484.49c-19.02-36.28-49.1-61.93-60.03-70.5-1.15-2.92-2.05-6.5-2.73-11.1,3.41-19.19,11.84-68.8,13.46-98.57,2.19-40.44-9.88-101.84-9.88-101.84-23.6-95.41-121.61-74.15-121.61-74.15-144.5,17-102.74,209.59-95.55,238.81l.09,5.41-14.29,22.94-10.8,12.44s-23.62,21.6-43.27,42.27c-19.64,20.68-35.84,42.91-42.67,157.2-2.71,45.3-3.4,95.62-3.4,95.62,0,0,85.48,62.52,224.98,70.99,139.5,8.47,193.7-61.99,193.7-61.99,0,0-4.41-182.54-27.98-227.52Z"/>
    <path class="cls-20" d="M386.27,248.21c.03-14.47-8.62-45.4-8.62-45.4-.36-1.47-5.37-23.4-6.02-24.61-22.59-8.71-54.53-20.79-77.67-14.49-22.43,6.1-73.72,21.7-73.78,50.39-.02,8.75,7.52,64.58.91,66.38-.06,1.15-.07,2.18,0,3.01.63,7.41-1.06,23.49-1.06,23.49-2.2-2.68-7.04-8.41-8.41-11.5-1.35-2.7-.6-6.24-1.95-8.94-4-6.15-12.46-3.96-17.04.07l-.75,1.31c-6.27,9.01,1.61,36.27,6.67,44.28,1.89,16.57,16.77,24.86,24.63,12.62l2.49,6.41,20.03,20.98c17.3,16.51,48.84,43.45,75.23,42.28,17.91-.8,23.39-5.19,29.69-11.54,9.57-9.64,14.7-20.23,21.66-31.43,6.68-10.74,9.55-17.37,12.24-29.69,2.78-12.74,2.63-16.07.81-28.63-.81-5.61-1.53-14.13-1.31-19.56.25-6.26,2.2-30.98,2.24-45.45Z"/>
    <path d="M361.77,283.38c2.33-1.29,5.4-.37,6.99.95.37.31,1.09,1.27,1.59,2.82.64,1.97-.09,4.24-1.3,5.64-1.61,1.87-4.38,2.26-6.53,1.33-2.92-1.27-3.96-4.72-3.31-7.26.12-.47.69-2.43,2.57-3.47"/>
    <path d="M346.4,291.32s8.24-6.05,14.03-7.27c11.8-2.49,20.31-.58,23.47,3.6,0,0-11.81-3.47-21.92-1.22-5.68,1.26-15.57,4.89-15.57,4.89Z"/>
    <path d="M283.07,283.61c-2.4-1.16-6.19-.72-7.7.69-.36.33-1.31,1.28-1.72,2.84-.53,2,.32,4.23,1.61,5.56,1.71,1.78,4.49,2.02,6.6.97,2.85-1.43,3.69-4.93,2.91-7.43-.15-.46.3-1.37-1.64-2.3"/>
    <path d="M304.19,292.24s-10.25-8.93-22.51-9.11c-9.33-.13-20.19,3.94-25.39,7.81,0,0,18.35-5.12,24.93-4.92,6.28.18,22.97,6.22,22.97,6.22Z"/>
    <path d="M257.18,271.21c1.55-.38,2.61-.82,4.2-1.05,8.74-1.25,17.42-1.72,26.26-1.11,7.76.5,15.24,2.3,22.72,4.22.1-1.59.59-.83.69-2.42.12-2.09.24-4.18.36-6.27-18.66-2.72-32.82-2.6-37.97-1.77-3.9.63-7.68,1.83-11.25,3.43,0,0-9.86,4.3-11.04,5.94-1.18,1.64,6.04-.97,6.04-.97Z"/>
    <path d="M385.71,266.64c-.12-.24-.22-.49-.36-.73,0,0,0-.02,0-.03-1.72-.68-3.89-1.37-6.42-1.84-4.42-.82-16.34-.99-32.1,1.37-.05,2.92-.12,5.84-.19,8.76,6.46-1.82,12.92-3.5,19.61-3.95,6.29-.42,12.83-.34,19.16.57.18-.61.38-1.21.51-1.84.03-.42.05-.85.03-1.27-.07-.36-.15-.71-.25-1.06Z"/>
    <path class="cls-12" d="M326.59,352.83c-12.84.12-34.73-1.25-34.73-1.25,0,0,5.12,31.07,34.88,30.8,29.76-.28,31.14-30.68,31.14-30.68,0,0-18.45,1.02-31.29,1.13Z"/>
    <path class="cls-22" d="M326.71,352.83c-6.1.06-30.71-.77-30.71-.77,0,0,8.19,18.78,30.26,18.57,23.93-.22,28.17-18.59,28.17-18.59l-27.72.79Z"/>
    <path class="cls-24" d="M326.99,353.76c-6.1.06-24.69-.83-24.69-.83,0,0,6.75,6.8,25.06,6.63,18.31-.17,24.06-6.89,24.06-6.89l-24.43,1.09Z"/>
    <path class="cls-12" d="M358.69,350.95c-.65-.16-1.49-.57-4.37-1.07-4.99-.87-8.23-1.74-11.89-1.99-6.25-.44-10.2,2.13-12.91,2.16-2.72.03-6.71-2.47-12.95-1.92-3.66.32-13.73,1.8-18.78,2.29-3.03.3-6.59-.88-7.24-.71-.9.24,1.94,6.98,36.09,6.67,34.15-.32,32.96-5.21,32.06-5.43Z"/>
    <path class="cls-9" d="M214.88,294.92s18.11-81.1,100.24-87.02c47.48-3.42,70.97,36.47,70.97,36.47,0,0-1.6-44.24-21.34-60.52-19.73-16.28-82.13-16.14-110.41-1.74-28.28,14.41-39.48,112.81-39.48,112.81Z"/>
    <path class="cls-19" d="M179.54,231.95s20.92-92.32,99.48-98.46c97.59-7.41,112.24,95.22,112.24,95.22l2.01,76.56c-.11-19.75.54-37.44-5.49-56.25-1.2-11.1,1.81-40.79-30.53-58.76-17.52-9.68-38.71-10.96-58.09-7.38-17.86,3.3-37.98,10.76-48.4,26.82-10.59,16.32-15.73,33.69-17.51,44.12-4.5,20.81-3.49,50.65-.73,71.76,2.86,19.01,3.94,44.74,35.96,75.24-86.17-24.38-93.98-122.86-91.25-168.58l2.3-.29Z"/>
    <g>
      <path class="cls-7" d="M336.77,333.66c-2.52,1.72-6.37,1.36-8.93-.65-.57-.44-2.45,0-1.65.63,3.38,2.65,8.91,2.85,12.16.62.32-.22.26-.54-.14-.71-.42-.18-1.09-.14-1.43.1"/>
      <path class="cls-7" d="M325.08,332.72c-1.7-1.02-3.61-1.55-5.51-1.72-.28-.02-.64.11-.84.35-.16.19-.19.43.02.58.88.64,2,.9,3.03.87.32,0,.75-.12.93-.48.17-.33-.15-.54-.4-.54-.85.03-1.72-.18-2.44-.71-.28.31-.55.62-.83.93,1.7.15,3.4.65,4.93,1.56.3.18.74.06,1.01-.15.2-.16.42-.52.11-.7"/>
      <path class="cls-7" d="M317.54,333.09c-2.22-.05-4.85-1.28-5.95-3.42-1.67-3.24-.16-8.37,2.61-10.47.3-.23.14-.52-.17-.6-.4-.11-.87.09-1.19.33-2.41,1.83-3.95,6.04-3.57,9.09.36,2.85,2.49,4.82,5.16,5.62.79.24,1.64.4,2.47.42.34,0,.94-.13,1.1-.47.17-.35-.14-.49-.46-.5"/>
      <path class="cls-7" d="M340.84,332.17c-.12-.33.1-.55.28-.54.6.02,1.21-.21,1.72-.74.2.31.39.62.59.92-1.2.18-2.4.7-3.47,1.63-.21.19-.52.07-.71-.14-.14-.15-.3-.51-.09-.7"/>
      <path class="cls-7" d="M339.16,332.6c1.2-1.04,2.54-1.6,3.89-1.8.2-.03.45.1.6.34.11.18.14.43,0,.58"/>
      <path class="cls-7" d="M345.46,332.52c1.45-.08,3.14-1.34,3.84-3.5,1.06-3.26.03-7.11-1.78-9.18-.2-.22-.1-.52.1-.6.26-.11.57.08.77.31,1.58,1.8,2.62,4.73,2.4,7.78-.21,2.85-1.58,4.86-3.3,5.7-.51.25-1.06.42-1.6.45-.22.01-.61-.11-.72-.45-.11-.34.09-.49.29-.51"/>
    </g>
    <g class="cls-11">
      <g>
        <circle class="cls-5" cx="28.01" cy="434.12" r="21.19"/>
        <circle class="cls-3" cx="28.01" cy="434.12" r="21.19" transform="translate(-249.93 99.46) rotate(-36.02)"/>
      </g>
      <g>
        <circle class="cls-5" cx="465.9" cy="317.33" r="21.19"/>
        <circle class="cls-3" cx="465.9" cy="317.33" r="21.19" transform="translate(-34.53 57.86) rotate(-6.85)"/>
      </g>
      <g>
        <circle class="cls-5" cx="38.45" cy="644.43" r="21.19"/>
        <circle class="cls-3" cx="38.45" cy="644.43" r="21.19" transform="translate(-586.4 482.13) rotate(-72.02)"/>
      </g>
      <g>
        <circle class="cls-5" cx="476.04" cy="520.66" r="21.19"/>
        <circle class="cls-3" cx="476.04" cy="520.66" r="21.19" transform="translate(-64.97 67.88) rotate(-7.64)"/>
      </g>
      <g>
        <circle class="cls-5" cx="458.16" cy="106.85" r="21.19"/>
        <circle class="cls-3" cx="458.16" cy="106.85" r="21.19" transform="translate(-12.25 113.49) rotate(-13.94)"/>
      </g>
      <g>
        <circle class="cls-5" cx="476.2" cy="731.94" r="21.19"/>
        <circle class="cls-3" cx="476.2" cy="731.94" r="21.19" transform="translate(-139.07 112.31) rotate(-11.75)"/>
      </g>
      <g>
        <circle class="cls-5" cx="391.63" cy="416.11" r="21.19"/>
        <circle class="cls-3" cx="391.63" cy="416.11" r="21.19" transform="translate(-46.85 49.7) rotate(-6.85)"/>
      </g>
      <g>
        <circle class="cls-5" cx="120.05" cy="529.4" r="21.19"/>
        <circle class="cls-3" cx="120.05" cy="529.4" r="21.19" transform="translate(-420.57 480.21) rotate(-72.02)"/>
      </g>
      <g>
        <circle class="cls-5" cx="208.8" cy="634.17" r="21.19"/>
        <circle class="cls-3" cx="208.8" cy="634.17" r="21.19" transform="translate(-458.85 637.07) rotate(-72.02)"/>
      </g>
      <g>
        <circle class="cls-5" cx="295.47" cy="521.55" r="21.19"/>
        <circle class="cls-3" cx="295.47" cy="521.55" r="21.19" transform="translate(-282.25 361.69) rotate(-45)"/>
      </g>
      <g>
        <circle class="cls-5" cx="381.41" cy="625.7" r="21.19"/>
        <circle class="cls-3" cx="381.41" cy="625.7" r="21.19" transform="translate(-119.42 90.78) rotate(-11.75)"/>
      </g>
      <g>
        <circle class="cls-5" cx="133.24" cy="750.67" r="21.19"/>
        <circle class="cls-3" cx="133.24" cy="750.67" r="21.19" transform="translate(-628.8 727.03) rotate(-78.16)"/>
      </g>
      <g>
        <circle class="cls-5" cx="303.59" cy="740.4" r="21.19"/>
        <circle class="cls-3" cx="303.59" cy="740.4" r="21.19" transform="translate(-181.9 104.27) rotate(-15.06)"/>
      </g>
      <g>
        <circle class="cls-5" cx="184.55" cy="13.8" r="21.19"/>
        <circle class="cls-3" cx="184.55" cy="13.8" r="21.19" transform="translate(81.13 167.27) rotate(-60.3)"/>
      </g>
      <g>
        <circle class="cls-5" cx="365.12" cy="12.91" r="21.19"/>
        <circle class="cls-3" cx="365.12" cy="12.91" r="21.19" transform="translate(13.67 112.72) rotate(-17.88)"/>
      </g>
      <g>
        <circle class="cls-5" cx="109.91" cy="326.07" r="21.19"/>
        <circle class="cls-3" cx="109.91" cy="326.07" r="21.19" transform="translate(-234.17 329.99) rotate(-72.02)"/>
      </g>
      <g>
        <circle class="cls-5" cx="20.64" cy="224.96" r="21.19"/>
        <circle class="cls-3" cx="20.64" cy="224.96" r="21.19" transform="translate(-204.56 207.16) rotate(-80.24)"/>
      </g>
      <g>
        <circle class="cls-5" cx="198.36" cy="423.86" r="21.19"/>
        <circle class="cls-3" cx="198.36" cy="423.86" r="21.19" transform="translate(-257.18 531.02) rotate(-78.16)"/>
      </g>
      <g>
        <circle class="cls-5" cx="367.23" cy="210.16" r="21.19"/>
        <circle class="cls-3" cx="367.23" cy="210.16" r="21.19" transform="translate(-54.09 249.04) rotate(-35.05)"/>
      </g>
      <g>
        <circle class="cls-5" cx="285.33" cy="318.21" r="21.19"/>
        <circle class="cls-3" cx="285.33" cy="318.21" r="21.19" transform="translate(-105.4 491.42) rotate(-72.02)"/>
      </g>
      <g>
        <circle class="cls-5" cx="97.58" cy="119.44" r="21.19"/>
        <circle class="cls-3" cx="97.58" cy="119.44" r="21.19" transform="translate(-22.53 216.2) rotate(-89.61)"/>
      </g>
      <g>
        <circle class="cls-5" cx="270.19" cy="110.98" r="21.19"/>
        <circle class="cls-3" cx="270.19" cy="110.98" r="21.19" transform="translate(98.22 347.08) rotate(-76.26)"/>
      </g>
      <g>
        <circle class="cls-5" cx="192.98" cy="217.6" r="21.19"/>
        <circle class="cls-3" cx="192.98" cy="217.6" r="21.19" transform="translate(-73.55 334.01) rotate(-72.02)"/>
      </g>
      <path class="cls-16" d="M21.47,329.85s-28.2-43.83,19.9-41.46c0,0-25.41,4.78-19.9,41.46Z"/>
      <path class="cls-16" d="M23.55,329.76s11.06-50.93,43.38-15.25c0,0-21.35-14.59-43.38,15.25Z"/>
      <path class="cls-16" d="M25.16,330.89s43.83-28.2,41.46,19.9c0,0-4.78-25.41-41.46-19.9Z"/>
      <path class="cls-16" d="M24.62,332.71s50.93,11.06,15.25,43.38c0,0,14.59-21.35-15.25-43.38Z"/>
      <path class="cls-16" d="M23.21,334.24s28.2,43.83-19.9,41.46c0,0,25.41-4.78,19.9-41.46Z"/>
      <path class="cls-16" d="M21.27,334.58s-11.06,50.93-43.38,15.25c0,0,21.35,14.59,43.38-15.25Z"/>
      <path class="cls-16" d="M19.71,332.68s-43.83,28.2-41.46-19.9c0,0,4.78,25.41,41.46,19.9Z"/>
      <path class="cls-16" d="M19.38,330.74s-50.93-11.06-15.25-43.38c0,0-14.59,21.35,15.25,43.38Z"/>
      <g>
        <path class="cls-23" d="M114.63,427.43s-28.2-43.83,19.9-41.46c0,0-25.41,4.78-19.9,41.46Z"/>
        <path class="cls-23" d="M116.72,427.34s11.06-50.93,43.38-15.25c0,0-21.35-14.59-43.38,15.25Z"/>
        <path class="cls-23" d="M118.32,428.48s43.83-28.2,41.46,19.9c0,0-4.78-25.41-41.46-19.9Z"/>
        <path class="cls-23" d="M117.79,430.29s50.93,11.06,15.25,43.38c0,0,14.59-21.35-15.25-43.38Z"/>
        <path class="cls-23" d="M116.38,431.83s28.2,43.83-19.9,41.46c0,0,25.41-4.78,19.9-41.46Z"/>
        <path class="cls-23" d="M114.44,432.16s-11.06,50.93-43.38,15.25c0,0,21.35,14.59,43.38-15.25Z"/>
        <path class="cls-23" d="M112.88,430.27s-43.83,28.2-41.46-19.9c0,0,4.78,25.41,41.46,19.9Z"/>
        <path class="cls-23" d="M112.54,428.33s-50.93-11.06-15.25-43.38c0,0-14.59,21.35,15.25,43.38Z"/>
      </g>
      <g>
        <path class="cls-16" d="M108.2,225.69s-28.2-43.83,19.9-41.46c0,0-25.41,4.78-19.9,41.46Z"/>
        <path class="cls-16" d="M110.29,225.6s11.06-50.93,43.38-15.25c0,0-21.35-14.59-43.38,15.25Z"/>
        <path class="cls-16" d="M111.9,226.74s43.83-28.2,41.46,19.9c0,0-4.78-25.41-41.46-19.9Z"/>
        <path class="cls-16" d="M111.36,228.55s50.93,11.06,15.25,43.38c0,0,14.59-21.35-15.25-43.38Z"/>
        <path class="cls-16" d="M109.95,230.09s28.2,43.83-19.9,41.46c0,0,25.41-4.78,19.9-41.46Z"/>
        <path class="cls-16" d="M108.01,230.42s-11.06,50.93-43.38,15.25c0,0,21.35,14.59,43.38-15.25Z"/>
        <path class="cls-16" d="M106.45,228.53s-43.83,28.2-41.46-19.9c0,0,4.78,25.41,41.46,19.9Z"/>
        <path class="cls-16" d="M106.12,226.59s-50.93-11.06-15.25-43.38c0,0-14.59,21.35,15.25,43.38Z"/>
      </g>
      <path class="cls-23" d="M194.71,328.99s-28.2-43.83,19.9-41.46c0,0-25.41,4.78-19.9,41.46Z"/>
      <path class="cls-23" d="M196.79,328.9s11.06-50.93,43.38-15.25c0,0-21.35-14.59-43.38,15.25Z"/>
      <path class="cls-23" d="M198.4,330.03s43.83-28.2,41.46,19.9c0,0-4.78-25.41-41.46-19.9Z"/>
      <path class="cls-23" d="M197.86,331.85s50.93,11.06,15.25,43.38c0,0,14.59-21.35-15.25-43.38Z"/>
      <path class="cls-23" d="M196.45,333.38s28.2,43.83-19.9,41.46c0,0,25.41-4.78,19.9-41.46Z"/>
      <path class="cls-23" d="M194.51,333.72s-11.06,50.93-43.38,15.25c0,0,21.35,14.59,43.38-15.25Z"/>
      <path class="cls-23" d="M192.95,331.82s-43.83,28.2-41.46-19.9c0,0,4.78,25.41,41.46,19.9Z"/>
      <path class="cls-23" d="M192.62,329.88s-50.93-11.06-15.25-43.38c0,0-14.59,21.35,15.25,43.38Z"/>
      <path class="cls-23" d="M280.26,194.31s-28.2-43.83,19.9-41.46c0,0-25.41,4.78-19.9,41.46Z"/>
      <path class="cls-23" d="M282.35,194.22s11.06-50.93,43.38-15.25c0,0-21.35-14.59-43.38,15.25Z"/>
      <path class="cls-23" d="M283.96,195.36s43.83-28.2,41.46,19.9c0,0-4.78-25.41-41.46-19.9Z"/>
      <path class="cls-23" d="M283.42,197.17s50.93,11.06,15.25,43.38c0,0,14.59-21.35-15.25-43.38Z"/>
      <path class="cls-23" d="M282.01,198.71s28.2,43.83-19.9,41.46c0,0,25.41-4.78,19.9-41.46Z"/>
      <path class="cls-23" d="M280.07,199.04s-11.06,50.93-43.38,15.25c0,0,21.35,14.59,43.38-15.25Z"/>
      <path class="cls-23" d="M278.51,197.15s-43.83,28.2-41.46-19.9c0,0,4.78,25.41,41.46,19.9Z"/>
      <path class="cls-23" d="M278.17,195.21s-50.93-11.06-15.25-43.38c0,0-14.59,21.35,15.25,43.38Z"/>
      <circle class="cls-27" cx="109.91" cy="326.07" r="9.15"/>
      <circle class="cls-27" cx="20.64" cy="224.96" r="9.15"/>
      <circle class="cls-27" cx="28.01" cy="434.12" r="9.15"/>
      <circle class="cls-27" cx="198.36" cy="423.86" r="9.15"/>
      <path class="cls-23" d="M280.87,213.85s11.06-50.93,43.38-15.25c0,0-21.35-14.59-43.38,15.25Z"/>
      <path class="cls-23" d="M282.48,214.98s43.83-28.2,41.46,19.9c0,0-4.78-25.41-41.46-19.9Z"/>
      <path class="cls-23" d="M281.95,216.8s50.93,11.06,15.25,43.38c0,0,14.59-21.35-15.25-43.38Z"/>
      <path class="cls-23" d="M280.53,218.33s28.2,43.83-19.9,41.46c0,0,25.41-4.78,19.9-41.46Z"/>
      <g>
        <path class="cls-23" d="M372.16,316.42s-28.2-43.83,19.9-41.46c0,0-25.41,4.78-19.9,41.46Z"/>
        <path class="cls-23" d="M374.25,316.33s11.06-50.93,43.38-15.25c0,0-21.35-14.59-43.38,15.25Z"/>
        <path class="cls-23" d="M375.86,317.47s43.83-28.2,41.46,19.9c0,0-4.78-25.41-41.46-19.9Z"/>
        <path class="cls-23" d="M375.32,319.28s50.93,11.06,15.25,43.38c0,0,14.59-21.35-15.25-43.38Z"/>
        <path class="cls-23" d="M373.91,320.82s28.2,43.83-19.9,41.46c0,0,25.41-4.78,19.9-41.46Z"/>
        <path class="cls-23" d="M371.97,321.15s-11.06,50.93-43.38,15.25c0,0,21.35,14.59,43.38-15.25Z"/>
        <path class="cls-23" d="M370.41,319.26s-43.83,28.2-41.46-19.9c0,0,4.78,25.41,41.46,19.9Z"/>
        <path class="cls-23" d="M370.07,317.32s-50.93-11.06-15.25-43.38c0,0-14.59,21.35,15.25,43.38Z"/>
      </g>
      <path class="cls-16" d="M461.83,212.66s-28.2-43.83,19.9-41.46c0,0-25.41,4.78-19.9,41.46Z"/>
      <path class="cls-16" d="M463.91,212.57s11.06-50.93,43.38-15.25c0,0-21.35-14.59-43.38,15.25Z"/>
      <path class="cls-16" d="M465.52,213.7s43.83-28.2,41.46,19.9c0,0-4.78-25.41-41.46-19.9Z"/>
      <path class="cls-16" d="M464.98,215.52s50.93,11.06,15.25,43.38c0,0,14.59-21.35-15.25-43.38Z"/>
      <path class="cls-16" d="M463.57,217.05s28.2,43.83-19.9,41.46c0,0,25.41-4.78,19.9-41.46Z"/>
      <path class="cls-16" d="M461.63,217.39s-11.06,50.93-43.38,15.25c0,0,21.35,14.59,43.38-15.25Z"/>
      <path class="cls-16" d="M460.07,215.49s-43.83,28.2-41.46-19.9c0,0,4.78,25.41,41.46,19.9Z"/>
      <path class="cls-16" d="M459.74,213.55s-50.93-11.06-15.25-43.38c0,0-14.59,21.35,15.25,43.38Z"/>
      <circle class="cls-27" cx="367.23" cy="210.16" r="9.15"/>
      <circle class="cls-27" cx="285.33" cy="318.21" r="9.15"/>
      <circle class="cls-27" cx="465.9" cy="317.33" r="9.15"/>
      <g>
        <path class="cls-23" d="M287.24,418.97s-28.2-43.83,19.9-41.46c0,0-25.41,4.78-19.9,41.46Z"/>
        <path class="cls-23" d="M289.32,418.88s11.06-50.93,43.38-15.25c0,0-21.35-14.59-43.38,15.25Z"/>
        <path class="cls-23" d="M290.93,420.01s43.83-28.2,41.46,19.9c0,0-4.78-25.41-41.46-19.9Z"/>
        <path class="cls-23" d="M290.39,421.83s50.93,11.06,15.25,43.38c0,0,14.59-21.35-15.25-43.38Z"/>
        <path class="cls-23" d="M288.98,423.36s28.2,43.83-19.9,41.46c0,0,25.41-4.78,19.9-41.46Z"/>
        <path class="cls-23" d="M287.04,423.7s-11.06,50.93-43.38,15.25c0,0,21.35,14.59,43.38-15.25Z"/>
        <path class="cls-23" d="M285.49,421.8s-43.83,28.2-41.46-19.9c0,0,4.78,25.41,41.46,19.9Z"/>
        <path class="cls-23" d="M285.15,419.86s-50.93-11.06-15.25-43.38c0,0-14.59,21.35,15.25,43.38Z"/>
      </g>
      <g>
        <path class="cls-16" d="M461.84,413.7s-28.2-43.83,19.9-41.46c0,0-25.41,4.78-19.9,41.46Z"/>
        <path class="cls-16" d="M463.92,413.61s11.06-50.93,43.38-15.25c0,0-21.35-14.59-43.38,15.25Z"/>
        <path class="cls-16" d="M465.53,414.75s43.83-28.2,41.46,19.9c0,0-4.78-25.41-41.46-19.9Z"/>
        <path class="cls-16" d="M464.99,416.56s50.93,11.06,15.25,43.38c0,0,14.59-21.35-15.25-43.38Z"/>
        <path class="cls-16" d="M463.58,418.1s28.2,43.83-19.9,41.46c0,0,25.41-4.78,19.9-41.46Z"/>
        <path class="cls-16" d="M461.64,418.43s-11.06,50.93-43.38,15.25c0,0,21.35,14.59,43.38-15.25Z"/>
        <path class="cls-16" d="M460.08,416.54s-43.83,28.2-41.46-19.9c0,0,4.78,25.41,41.46,19.9Z"/>
        <path class="cls-16" d="M459.75,414.6s-50.93-11.06-15.25-43.38c0,0-14.59,21.35,15.25,43.38Z"/>
      </g>
      <circle class="cls-27" cx="391.63" cy="416.11" r="9.15"/>
      <path class="cls-16" d="M31.61,533.18s-28.2-43.83,19.9-41.46c0,0-25.41,4.78-19.9,41.46Z"/>
      <path class="cls-23" d="M33.69,533.09s11.06-50.93,43.38-15.25c0,0-21.35-14.59-43.38,15.25Z"/>
      <path class="cls-23" d="M35.3,534.23s43.83-28.2,41.46,19.9c0,0-4.78-25.41-41.46-19.9Z"/>
      <path class="cls-23" d="M34.76,536.04s50.93,11.06,15.25,43.38c0,0,14.59-21.35-15.25-43.38Z"/>
      <path class="cls-16" d="M33.35,537.58s28.2,43.83-19.9,41.46c0,0,25.41-4.78,19.9-41.46Z"/>
      <path class="cls-16" d="M31.41,537.91s-11.06,50.93-43.38,15.25c0,0,21.35,14.59,43.38-15.25Z"/>
      <path class="cls-16" d="M29.86,536.02s-43.83,28.2-41.46-19.9c0,0,4.78,25.41,41.46,19.9Z"/>
      <path class="cls-16" d="M29.52,534.08s-50.93-11.06-15.25-43.38c0,0-14.59,21.35,15.25,43.38Z"/>
      <g>
        <path class="cls-23" d="M125.07,637.74s-28.2-43.83,19.9-41.46c0,0-25.41,4.78-19.9,41.46Z"/>
        <path class="cls-23" d="M127.15,637.65s11.06-50.93,43.38-15.25c0,0-21.35-14.59-43.38,15.25Z"/>
        <path class="cls-23" d="M128.76,638.79s43.83-28.2,41.46,19.9c0,0-4.78-25.41-41.46-19.9Z"/>
        <path class="cls-23" d="M128.23,640.6s50.93,11.06,15.25,43.38c0,0,14.59-21.35-15.25-43.38Z"/>
        <path class="cls-23" d="M126.81,642.14s28.2,43.83-19.9,41.46c0,0,25.41-4.78,19.9-41.46Z"/>
        <path class="cls-23" d="M124.87,642.47s-11.06,50.93-43.38,15.25c0,0,21.35,14.59,43.38-15.25Z"/>
        <path class="cls-23" d="M123.32,640.58s-43.83,28.2-41.46-19.9c0,0,4.78,25.41,41.46,19.9Z"/>
        <path class="cls-23" d="M122.98,638.64s-50.93-11.06-15.25-43.38c0,0-14.59,21.35,15.25,43.38Z"/>
      </g>
      <g>
        <path class="cls-16" d="M44.56,746.44s43.83-28.2,41.46,19.9c0,0-4.78-25.41-41.46-19.9Z"/>
        <path class="cls-16" d="M44.02,748.25s50.93,11.06,15.25,43.38c0,0,14.59-21.35-15.25-43.38Z"/>
        <path class="cls-16" d="M42.61,749.79s28.2,43.83-19.9,41.46c0,0,25.41-4.78,19.9-41.46Z"/>
        <path class="cls-16" d="M40.67,750.12s-11.06,50.93-43.38,15.25c0,0,21.35,14.59,43.38-15.25Z"/>
        <path class="cls-16" d="M39.11,748.23s-43.83,28.2-41.46-19.9c0,0,4.78,25.41,41.46,19.9Z"/>
        <path class="cls-16" d="M38.77,746.29s-50.93-11.06-15.25-43.38c0,0-14.59,21.35,15.25,43.38Z"/>
      </g>
      <path class="cls-23" d="M204.85,532.32s-28.2-43.83,19.9-41.46c0,0-25.41,4.78-19.9,41.46Z"/>
      <path class="cls-23" d="M206.93,532.23s11.06-50.93,43.38-15.25c0,0-21.35-14.59-43.38,15.25Z"/>
      <path class="cls-23" d="M208.54,533.37s43.83-28.2,41.46,19.9c0,0-4.78-25.41-41.46-19.9Z"/>
      <path class="cls-23" d="M208,535.18s50.93,11.06,15.25,43.38c0,0,14.59-21.35-15.25-43.38Z"/>
      <path class="cls-23" d="M206.59,536.71s28.2,43.83-19.9,41.46c0,0,25.41-4.78,19.9-41.46Z"/>
      <path class="cls-23" d="M204.65,537.05s-11.06,50.93-43.38,15.25c0,0,21.35,14.59,43.38-15.25Z"/>
      <path class="cls-23" d="M203.09,535.15s-43.83,28.2-41.46-19.9c0,0,4.78,25.41,41.46,19.9Z"/>
      <path class="cls-23" d="M202.76,533.21s-50.93-11.06-15.25-43.38c0,0-14.59,21.35,15.25,43.38Z"/>
      <circle class="cls-27" cx="120.05" cy="529.4" r="9.15"/>
      <circle class="cls-27" cx="38.45" cy="644.43" r="9.15"/>
      <circle class="cls-27" cx="208.8" cy="634.17" r="9.15"/>
      <g>
        <path class="cls-23" d="M382.3,519.75s-28.2-43.83,19.9-41.46c0,0-25.41,4.78-19.9,41.46Z"/>
        <path class="cls-23" d="M384.39,519.66s11.06-50.93,43.38-15.25c0,0-21.35-14.59-43.38,15.25Z"/>
        <path class="cls-23" d="M386,520.8s43.83-28.2,41.46,19.9c0,0-4.78-25.41-41.46-19.9Z"/>
        <path class="cls-23" d="M385.46,522.61s50.93,11.06,15.25,43.38c0,0,14.59-21.35-15.25-43.38Z"/>
        <path class="cls-23" d="M384.05,524.15s28.2,43.83-19.9,41.46c0,0,25.41-4.78,19.9-41.46Z"/>
        <path class="cls-23" d="M382.11,524.48s-11.06,50.93-43.38,15.25c0,0,21.35,14.59,43.38-15.25Z"/>
        <path class="cls-23" d="M380.55,522.59s-43.83,28.2-41.46-19.9c0,0,4.78,25.41,41.46,19.9Z"/>
        <path class="cls-23" d="M380.21,520.65s-50.93-11.06-15.25-43.38c0,0-14.59,21.35,15.25,43.38Z"/>
      </g>
      <circle class="cls-27" cx="295.47" cy="521.55" r="9.15"/>
      <circle class="cls-27" cx="476.04" cy="520.66" r="9.15"/>
      <g>
        <path class="cls-23" d="M297.68,629.28s-28.2-43.83,19.9-41.46c0,0-25.41,4.78-19.9,41.46Z"/>
        <path class="cls-23" d="M299.76,629.19s11.06-50.93,43.38-15.25c0,0-21.35-14.59-43.38,15.25Z"/>
        <path class="cls-23" d="M301.37,630.32s43.83-28.2,41.46,19.9c0,0-4.78-25.41-41.46-19.9Z"/>
        <path class="cls-23" d="M300.83,632.14s50.93,11.06,15.25,43.38c0,0,14.59-21.35-15.25-43.38Z"/>
        <path class="cls-23" d="M299.42,633.67s28.2,43.83-19.9,41.46c0,0,25.41-4.78,19.9-41.46Z"/>
        <path class="cls-23" d="M297.48,634.01s-11.06,50.93-43.38,15.25c0,0,21.35,14.59,43.38-15.25Z"/>
        <path class="cls-23" d="M295.92,632.11s-43.83,28.2-41.46-19.9c0,0,4.78,25.41,41.46,19.9Z"/>
        <path class="cls-23" d="M295.59,630.17s-50.93-11.06-15.25-43.38c0,0-14.59,21.35,15.25,43.38Z"/>
      </g>
      <g>
        <path class="cls-23" d="M472.28,624.01s-28.2-43.83,19.9-41.46c0,0-25.41,4.78-19.9,41.46Z"/>
        <path class="cls-16" d="M474.36,623.92s11.06-50.93,43.38-15.25c0,0-21.35-14.59-43.38,15.25Z"/>
        <path class="cls-16" d="M475.97,625.06s43.83-28.2,41.46,19.9c0,0-4.78-25.41-41.46-19.9Z"/>
        <path class="cls-16" d="M475.43,626.87s50.93,11.06,15.25,43.38c0,0,14.59-21.35-15.25-43.38Z"/>
        <path class="cls-23" d="M474.02,628.4s28.2,43.83-19.9,41.46c0,0,25.41-4.78,19.9-41.46Z"/>
        <path class="cls-23" d="M472.08,628.74s-11.06,50.93-43.38,15.25c0,0,21.35,14.59,43.38-15.25Z"/>
        <path class="cls-23" d="M470.52,626.84s-43.83,28.2-41.46-19.9c0,0,4.78,25.41,41.46,19.9Z"/>
        <path class="cls-23" d="M470.19,624.9s-50.93-11.06-15.25-43.38c0,0-14.59,21.35,15.25,43.38Z"/>
      </g>
      <circle class="cls-27" cx="381.41" cy="625.7" r="9.15"/>
      <g>
        <path class="cls-23" d="M219.86,743.98s-28.2-43.83,19.9-41.46c0,0-25.41,4.78-19.9,41.46Z"/>
        <path class="cls-23" d="M221.95,743.89s11.06-50.93,43.38-15.25c0,0-21.35-14.59-43.38,15.25Z"/>
        <path class="cls-23" d="M223.55,745.02s43.83-28.2,41.46,19.9c0,0-4.78-25.41-41.46-19.9Z"/>
        <path class="cls-23" d="M223.02,746.84s50.93,11.06,15.25,43.38c0,0,14.59-21.35-15.25-43.38Z"/>
        <path class="cls-23" d="M221.61,748.37s28.2,43.83-19.9,41.46c0,0,25.41-4.78,19.9-41.46Z"/>
        <path class="cls-23" d="M219.67,748.71s-11.06,50.93-43.38,15.25c0,0,21.35,14.59,43.38-15.25Z"/>
        <path class="cls-23" d="M218.11,746.81s-43.83,28.2-41.46-19.9c0,0,4.78,25.41,41.46,19.9Z"/>
        <path class="cls-23" d="M217.77,744.87s-50.93-11.06-15.25-43.38c0,0-14.59,21.35,15.25,43.38Z"/>
      </g>
      <circle class="cls-27" cx="133.24" cy="750.67" r="9.15"/>
      <circle class="cls-27" cx="303.59" cy="740.4" r="9.15"/>
      <g>
        <path class="cls-23" d="M392.47,735.51s-28.2-43.83,19.9-41.46c0,0-25.41,4.78-19.9,41.46Z"/>
        <path class="cls-23" d="M394.55,735.43s11.06-50.93,43.38-15.25c0,0-21.35-14.59-43.38,15.25Z"/>
        <path class="cls-23" d="M396.16,736.56s43.83-28.2,41.46,19.9c0,0-4.78-25.41-41.46-19.9Z"/>
        <path class="cls-23" d="M395.62,738.37s50.93,11.06,15.25,43.38c0,0,14.59-21.35-15.25-43.38Z"/>
        <path class="cls-23" d="M394.21,739.91s28.2,43.83-19.9,41.46c0,0,25.41-4.78,19.9-41.46Z"/>
        <path class="cls-23" d="M392.27,740.25s-11.06,50.93-43.38,15.25c0,0,21.35,14.59,43.38-15.25Z"/>
        <path class="cls-23" d="M390.72,738.35s-43.83,28.2-41.46-19.9c0,0,4.78,25.41,41.46,19.9Z"/>
        <path class="cls-23" d="M390.38,736.41s-50.93-11.06-15.25-43.38c0,0-14.59,21.35,15.25,43.38Z"/>
      </g>
      <circle class="cls-27" cx="476.2" cy="731.94" r="9.15"/>
      <g>
        <circle class="cls-5" cx="398.84" cy="827.69" r="21.19"/>
        <circle class="cls-3" cx="398.84" cy="827.69" r="21.19" transform="translate(-89 49.13) rotate(-6.34)"/>
      </g>
      <g>
        <circle class="cls-5" cx="55.88" cy="846.42" r="21.19"/>
        <circle class="cls-3" cx="55.88" cy="846.42" r="21.19" transform="translate(-766.47 638.36) rotate(-72.02)"/>
      </g>
      <g>
        <circle class="cls-5" cx="226.23" cy="836.15" r="21.19"/>
        <circle class="cls-3" cx="226.23" cy="836.15" r="21.19" transform="translate(-637.8 897.72) rotate(-78.94)"/>
      </g>
      <g>
        <path class="cls-23" d="M142.5,839.73s-28.2-43.83,19.9-41.46c0,0-25.41,4.78-19.9,41.46Z"/>
        <path class="cls-23" d="M144.59,839.64s11.06-50.93,43.38-15.25c0,0-21.35-14.59-43.38,15.25Z"/>
        <path class="cls-23" d="M146.2,840.77s43.83-28.2,41.46,19.9c0,0-4.78-25.41-41.46-19.9Z"/>
        <path class="cls-23" d="M145.66,842.59s50.93,11.06,15.25,43.38c0,0,14.59-21.35-15.25-43.38Z"/>
        <path class="cls-23" d="M144.25,844.12s28.2,43.83-19.9,41.46c0,0,25.41-4.78,19.9-41.46Z"/>
        <path class="cls-23" d="M142.31,844.46s-11.06,50.93-43.38,15.25c0,0,21.35,14.59,43.38-15.25Z"/>
        <path class="cls-23" d="M140.75,842.56s-43.83,28.2-41.46-19.9c0,0,4.78,25.41,41.46,19.9Z"/>
        <path class="cls-23" d="M140.41,840.62s-50.93-11.06-15.25-43.38c0,0-14.59,21.35,15.25,43.38Z"/>
      </g>
      <circle class="cls-27" cx="55.88" cy="846.42" r="9.15"/>
      <circle class="cls-27" cx="226.23" cy="836.15" r="9.15"/>
      <g>
        <path class="cls-23" d="M315.11,831.26s-28.2-43.83,19.9-41.46c0,0-25.41,4.78-19.9,41.46Z"/>
        <path class="cls-23" d="M317.19,831.17s11.06-50.93,43.38-15.25c0,0-21.35-14.59-43.38,15.25Z"/>
        <path class="cls-23" d="M318.8,832.31s43.83-28.2,41.46,19.9c0,0-4.78-25.41-41.46-19.9Z"/>
        <path class="cls-23" d="M318.27,834.12s50.93,11.06,15.25,43.38c0,0,14.59-21.35-15.25-43.38Z"/>
        <path class="cls-23" d="M316.85,835.66s28.2,43.83-19.9,41.46c0,0,25.41-4.78,19.9-41.46Z"/>
        <path class="cls-23" d="M314.91,835.99s-11.06,50.93-43.38,15.25c0,0,21.35,14.59,43.38-15.25Z"/>
        <path class="cls-23" d="M313.36,834.1s-43.83,28.2-41.46-19.9c0,0,4.78,25.41,41.46,19.9Z"/>
        <path class="cls-23" d="M313.02,832.16s-50.93-11.06-15.25-43.38c0,0-14.59,21.35,15.25,43.38Z"/>
      </g>
      <g>
        <path class="cls-16" d="M489.71,826s-28.2-43.83,19.9-41.46c0,0-25.41,4.78-19.9,41.46Z"/>
        <path class="cls-16" d="M491.79,825.91s11.06-50.93,43.38-15.25c0,0-21.35-14.59-43.38,15.25Z"/>
        <path class="cls-16" d="M493.4,827.04s43.83-28.2,41.46,19.9c0,0-4.78-25.41-41.46-19.9Z"/>
        <path class="cls-16" d="M492.86,828.86s50.93,11.06,15.25,43.38c0,0,14.59-21.35-15.25-43.38Z"/>
        <path class="cls-16" d="M491.45,830.39s28.2,43.83-19.9,41.46c0,0,25.41-4.78,19.9-41.46Z"/>
        <path class="cls-16" d="M489.51,830.73s-11.06,50.93-43.38,15.25c0,0,21.35,14.59,43.38-15.25Z"/>
        <path class="cls-16" d="M487.96,828.83s-43.83,28.2-41.46-19.9c0,0,4.78,25.41,41.46,19.9Z"/>
        <path class="cls-16" d="M487.62,826.89s-50.93-11.06-15.25-43.38c0,0-14.59,21.35,15.25,43.38Z"/>
      </g>
      <circle class="cls-27" cx="398.84" cy="827.69" r="9.15"/>
      <g>
        <circle class="cls-5" cx="497.43" cy="913.22" r="21.19"/>
        <circle class="cls-3" cx="497.43" cy="913.22" r="21.19" transform="translate(-255.35 195.77) rotate(-17.8)"/>
      </g>
      <g>
        <circle class="cls-5" cx="154.48" cy="931.95" r="21.19"/>
        <path class="cls-3" d="M164.1,950.83c-10.42,5.32-23.18,1.18-28.5-9.25-5.32-10.42-1.18-23.18,9.25-28.5,10.42-5.32,23.18-1.18,28.5,9.25,5.32,10.42,1.18,23.18-9.25,28.5Z"/>
      </g>
      <g>
        <circle class="cls-5" cx="324.83" cy="921.68" r="21.19"/>
        <circle class="cls-3" cx="324.83" cy="921.68" r="21.19" transform="translate(-440.91 314.51) rotate(-32.17)"/>
      </g>
      <g>
        <path class="cls-16" d="M241.1,925.26s-28.2-43.83,19.9-41.46c0,0-25.41,4.78-19.9,41.46Z"/>
        <path class="cls-16" d="M243.18,925.17s11.06-50.93,43.38-15.25c0,0-21.35-14.59-43.38,15.25Z"/>
        <path class="cls-16" d="M244.79,926.3s43.83-28.2,41.46,19.9c0,0-4.78-25.41-41.46-19.9Z"/>
        <path class="cls-16" d="M244.25,928.12s50.93,11.06,15.25,43.38c0,0,14.59-21.35-15.25-43.38Z"/>
        <path class="cls-16" d="M242.84,929.65s28.2,43.83-19.9,41.46c0,0,25.41-4.78,19.9-41.46Z"/>
        <path class="cls-16" d="M240.9,929.99s-11.06,50.93-43.38,15.25c0,0,21.35,14.59,43.38-15.25Z"/>
        <path class="cls-16" d="M239.34,928.09s-43.83,28.2-41.46-19.9c0,0,4.78,25.41,41.46,19.9Z"/>
        <path class="cls-16" d="M239.01,926.15s-50.93-11.06-15.25-43.38c0,0-14.59,21.35,15.25,43.38Z"/>
      </g>
      <circle class="cls-27" cx="154.48" cy="931.95" r="9.15"/>
      <circle class="cls-27" cx="324.83" cy="921.68" r="9.15"/>
      <g>
        <path class="cls-16" d="M413.71,916.79s-28.2-43.83,19.9-41.46c0,0-25.41,4.78-19.9,41.46Z"/>
        <path class="cls-16" d="M415.79,916.71s11.06-50.93,43.38-15.25c0,0-21.35-14.59-43.38,15.25Z"/>
        <path class="cls-16" d="M417.4,917.84s43.83-28.2,41.46,19.9c0,0-4.78-25.41-41.46-19.9Z"/>
        <path class="cls-16" d="M416.86,919.65s50.93,11.06,15.25,43.38c0,0,14.59-21.35-15.25-43.38Z"/>
        <path class="cls-16" d="M415.45,921.19s28.2,43.83-19.9,41.46c0,0,25.41-4.78,19.9-41.46Z"/>
        <path class="cls-16" d="M413.51,921.52s-11.06,50.93-43.38,15.25c0,0,21.35,14.59,43.38-15.25Z"/>
        <path class="cls-16" d="M411.95,919.63s-43.83,28.2-41.46-19.9c0,0,4.78,25.41,41.46,19.9Z"/>
        <path class="cls-16" d="M411.62,917.69s-50.93-11.06-15.25-43.38c0,0-14.59,21.35,15.25,43.38Z"/>
      </g>
      <circle class="cls-27" cx="497.43" cy="913.22" r="9.15"/>
      <g>
        <circle class="cls-5" cx="569.6" cy="776.49" r="21.19"/>
        <circle class="cls-3" cx="569.6" cy="776.49" r="21.19" transform="translate(-252.45 274.87) rotate(-22.35)"/>
      </g>
      <circle class="cls-27" cx="569.6" cy="776.49" r="9.15"/>
      <path class="cls-16" d="M451.61,2.58s-28.2-43.83,19.9-41.46c0,0-25.41,4.78-19.9,41.46Z"/>
      <path class="cls-16" d="M453.7,2.49s11.06-50.93,43.38-15.25c0,0-21.35-14.59-43.38,15.25Z"/>
      <path class="cls-16" d="M455.31,3.62s43.83-28.2,41.46,19.9c0,0-4.78-25.41-41.46-19.9Z"/>
      <path class="cls-16" d="M454.77,5.44s50.93,11.06,15.25,43.38c0,0,14.59-21.35-15.25-43.38Z"/>
      <path class="cls-16" d="M453.36,6.97s28.2,43.83-19.9,41.46c0,0,25.41-4.78,19.9-41.46Z"/>
      <path class="cls-16" d="M451.42,7.31s-11.06,50.93-43.38,15.25c0,0,21.35,14.59,43.38-15.25Z"/>
      <path class="cls-16" d="M449.86,5.41s-43.83,28.2-41.46-19.9c0,0,4.78,25.41,41.46,19.9Z"/>
      <path class="cls-16" d="M449.53,3.47s-50.93-11.06-15.25-43.38c0,0-14.59,21.35,15.25,43.38Z"/>
      <g>
        <path class="cls-16" d="M13.85,123.01s-28.2-43.83,19.9-41.46c0,0-25.41,4.78-19.9,41.46Z"/>
        <path class="cls-16" d="M15.94,122.93s11.06-50.93,43.38-15.25c0,0-21.35-14.59-43.38,15.25Z"/>
        <path class="cls-16" d="M17.55,124.06s43.83-28.2,41.46,19.9c0,0-4.78-25.41-41.46-19.9Z"/>
        <path class="cls-16" d="M17.01,125.87s50.93,11.06,15.25,43.38c0,0,14.59-21.35-15.25-43.38Z"/>
        <path class="cls-16" d="M15.6,127.41s28.2,43.83-19.9,41.46c0,0,25.41-4.78,19.9-41.46Z"/>
        <path class="cls-16" d="M13.66,127.75s-11.06,50.93-43.38,15.25c0,0,21.35,14.59,43.38-15.25Z"/>
        <path class="cls-16" d="M12.1,125.85s-43.83,28.2-41.46-19.9c0,0,4.78,25.41,41.46,19.9Z"/>
        <path class="cls-16" d="M11.76,123.91s-50.93-11.06-15.25-43.38c0,0-14.59,21.35,15.25,43.38Z"/>
      </g>
      <path class="cls-16" d="M97.62,25.61s43.83-28.2,41.46,19.9c0,0-4.78-25.41-41.46-19.9Z"/>
      <path class="cls-16" d="M97.08,27.43s50.93,11.06,15.25,43.38c0,0,14.59-21.35-15.25-43.38Z"/>
      <circle class="cls-27" cx="458.16" cy="106.85" r="9.15"/>
      <circle class="cls-27" cx="97.58" cy="119.44" r="9.15"/>
      <g>
        <path class="cls-16" d="M271.38,12s-28.2-43.83,19.9-41.46c0,0-25.41,4.78-19.9,41.46Z"/>
        <path class="cls-16" d="M273.47,11.91s11.06-50.93,43.38-15.25c0,0-21.35-14.59-43.38,15.25Z"/>
        <path class="cls-16" d="M275.08,13.05s43.83-28.2,41.46,19.9c0,0-4.78-25.41-41.46-19.9Z"/>
        <path class="cls-16" d="M274.54,14.86s50.93,11.06,15.25,43.38c0,0,14.59-21.35-15.25-43.38Z"/>
        <path class="cls-16" d="M273.13,16.4s28.2,43.83-19.9,41.46c0,0,25.41-4.78,19.9-41.46Z"/>
        <path class="cls-16" d="M271.19,16.73s-11.06,50.93-43.38,15.25c0,0,21.35,14.59,43.38-15.25Z"/>
        <path class="cls-16" d="M269.63,14.84s-43.83,28.2-41.46-19.9c0,0,4.78,25.41,41.46,19.9Z"/>
        <path class="cls-16" d="M269.3,12.9s-50.93-11.06-15.25-43.38c0,0-14.59,21.35,15.25,43.38Z"/>
      </g>
      <circle class="cls-27" cx="184.55" cy="13.8" r="9.15"/>
      <circle class="cls-27" cx="365.12" cy="12.91" r="9.15"/>
      <g>
        <path class="cls-23" d="M186.46,114.55s-28.2-43.83,19.9-41.46c0,0-25.41,4.78-19.9,41.46Z"/>
        <path class="cls-23" d="M188.55,114.46s11.06-50.93,43.38-15.25c0,0-21.35-14.59-43.38,15.25Z"/>
        <path class="cls-23" d="M190.15,115.6s43.83-28.2,41.46,19.9c0,0-4.78-25.41-41.46-19.9Z"/>
        <path class="cls-23" d="M189.62,117.41s50.93,11.06,15.25,43.38c0,0,14.59-21.35-15.25-43.38Z"/>
        <path class="cls-23" d="M188.21,118.95s28.2,43.83-19.9,41.46c0,0,25.41-4.78,19.9-41.46Z"/>
        <path class="cls-23" d="M186.27,119.28s-11.06,50.93-43.38,15.25c0,0,21.35,14.59,43.38-15.25Z"/>
        <path class="cls-23" d="M184.71,117.39s-43.83,28.2-41.46-19.9c0,0,4.78,25.41,41.46,19.9Z"/>
        <path class="cls-23" d="M184.37,115.45s-50.93-11.06-15.25-43.38c0,0-14.59,21.35,15.25,43.38Z"/>
      </g>
      <g>
        <path class="cls-23" d="M361.06,109.28s-28.2-43.83,19.9-41.46c0,0-25.41,4.78-19.9,41.46Z"/>
        <path class="cls-23" d="M363.14,109.19s11.06-50.93,43.38-15.25c0,0-21.35-14.59-43.38,15.25Z"/>
        <path class="cls-23" d="M364.75,110.33s43.83-28.2,41.46,19.9c0,0-4.78-25.41-41.46-19.9Z"/>
        <path class="cls-23" d="M364.21,112.14s50.93,11.06,15.25,43.38c0,0,14.59-21.35-15.25-43.38Z"/>
        <path class="cls-23" d="M362.8,113.68s28.2,43.83-19.9,41.46c0,0,25.41-4.78,19.9-41.46Z"/>
        <path class="cls-23" d="M360.86,114.01s-11.06,50.93-43.38,15.25c0,0,21.35,14.59,43.38-15.25Z"/>
        <path class="cls-23" d="M359.31,112.12s-43.83,28.2-41.46-19.9c0,0,4.78,25.41,41.46,19.9Z"/>
        <path class="cls-23" d="M358.97,110.18s-50.93-11.06-15.25-43.38c0,0-14.59,21.35,15.25,43.38Z"/>
      </g>
      <circle class="cls-27" cx="270.19" cy="110.98" r="9.15"/>
      <circle class="cls-27" cx="192.98" cy="217.6" r="9.15"/>
    </g>
    <path class="cls-9" d="M472.42,672.59s-56.22,70.81-195.71,62.34c-115.78-7.03-192.33-41.19-222.04-63.61-3.5,17.75.6,31.67.6,31.67,0,0,84.96,62.52,224.46,70.99,139.5,8.47,194.35-60.92,194.35-60.92l-1.65-40.47Z"/>
    <path class="cls-9" d="M226.85,153.88c-4.9,4.34-9.03,9.74-12.72,15.09-8.9,12.91-15.15,27.64-18.14,43.03-3.44,17.7-2.14,35.83.79,53.51,2.74,16.52,6.92,32.8,11.86,48.79,1.74,5.61,3.58,11.19,5.53,16.73.96,2.71,1.8,5.59,3.01,8.2.05.11.09.23.13.35.1.25.67.08.58-.16-2.59-6.59-4.85-13.33-7.03-20.07-4.9-15.2-9.09-30.65-12.13-46.33-3.36-17.32-5.55-35.26-3.45-52.88,1.98-16.61,7.71-32.69,16.59-46.86,4.26-6.8,9.22-13.46,15.12-18.95.05-.05.32-.29.23-.21.29-.26-.17-.43-.38-.25h0Z"/>
    <path class="cls-9" d="M172.34,370.96c1.17,3.83,2.52,7.6,3.89,11.36,3.39,9.27,7.15,18.4,11.28,27.36,5.3,11.48,11.21,22.7,18.03,33.35s14.95,21.34,24.58,30.04c8.56,7.73,18.69,14.13,30.11,16.46,1.34.27,2.69.48,4.05.64.16.02.67-.25.36-.28-11.69-1.37-22.24-7.15-31.17-14.6-9.76-8.13-17.84-18.18-24.9-28.68-7.19-10.7-13.38-22.06-18.9-33.7-4.39-9.23-8.36-18.66-11.94-28.24-1.15-3.08-2.26-6.18-3.32-9.3-.33-.96-.65-1.92-.96-2.88-.14-.43-.22-1.13-.48-1.5-.03-.05-.04-.13-.06-.19-.05-.18-.63-.01-.58.16h0Z"/>
    <path class="cls-9" d="M247.75,377.73c4.8,10.78,9.95,21.45,16.35,31.39,6.23,9.67,13.64,18.98,22.63,26.23,8.54,6.89,18.69,12.08,29.54,14.1,5.33.99,10.82,1.18,16.18.39,5.58-.82,11.05-2.69,16.31-4.69,12.09-4.61,23.02-11.49,33.35-19.2.31-.23-.15-.46-.39-.28-9.09,6.79-18.65,12.99-29.11,17.46-5.28,2.26-10.79,4.22-16.38,5.55s-10.89,1.5-16.33.86c-11.04-1.32-21.5-6.11-30.37-12.7-9.06-6.74-16.54-15.61-22.87-24.9-7.33-10.76-13.05-22.49-18.33-34.35-.12-.27-.69-.1-.58.16h0Z"/>
    <path class="cls-9" d="M389.87,438.9c-5.28,1.23-10.32,3.3-14.72,6.51-4.42,3.22-8.02,7.41-11.12,11.89-4.28,6.18-8.3,12.54-12.44,18.81-3.97,6.01-7.74,12.31-12.67,17.61-5.44,5.85-12.95,10.47-21.22,9.74-.29-.03-.59.4-.2.43,14.14,1.23,23.65-11.09,30.6-21.58,4.4-6.65,8.79-13.31,13.18-19.96,3.39-5.13,6.79-10.26,11.43-14.38,4.94-4.39,10.87-7.16,17.27-8.65.36-.08.25-.5-.11-.41h0Z"/>
    <path class="cls-9" d="M152.34,443.54c-1.37,26.02,14.37,48.8,28.16,69.46,14.37,21.53,29.07,42.93,45.93,62.61,16.57,19.35,35.3,36.88,56.88,50.54,21.39,13.54,45.12,23.38,69.82,28.96,12.4,2.8,25.1,4.66,37.82,5.01s25.74-.94,37.84-5.2c2.83-1,5.59-2.16,8.29-3.47.36-.17.04-.45-.25-.31-23.47,11.42-51.07,9.88-76.05,5.13-24.81-4.71-48.8-13.74-70.58-26.5-21.86-12.8-41.01-29.49-57.9-48.29-16.92-18.85-31.62-39.54-45.77-60.51-7.12-10.54-14.41-21.05-20.64-32.15-6.19-11.03-11.36-22.96-12.71-35.65-.34-3.21-.42-6.43-.25-9.66.01-.28-.57-.19-.59.05h0Z"/>
    <path class="cls-6" d="M218.28,813.9c-3.48,2.94-7.14,5.66-11,8.08-5.28,3.31-29.38,15.84-45.71,13.38-20.03-3.02,1.93-35.81-6.05-54.35-4.46-10.38-10.64-17.82-12.47-27.77-.65-3.51,2.82-6.39,6.19-5.23.04.01.16.05.12.04-7.97-1.53,6.38-21.19,7.65-22.52l149.47-145.14c1.5-1.56,9.21,6.35,11.09,7.43,8.2,4.73,27.28,33.27,36.22,38.42,2.18,1.26,2.99,4.02,1.83,6.26-35.06,67.92-71.27,106.57-120.82,164.69-5.07,5.95-10.54,11.65-16.53,16.71Z"/>
    <path class="cls-18" d="M145.62,767.88c-3.28-12.71.23-25.59,7.38-36.32.11-.16-1.19-.11-1.43.25-7.18,10.76-10.69,23.7-7.4,36.46.08.33,1.54-.05,1.45-.39h0Z"/>
    <path class="cls-20" d="M508.23,569.6c5.7-4.31,12.94-6.07,19.99-4.84,4.44.44,8.31,3.24,10.12,7.32,1.03,4.86-1.41,9.79-5.9,11.92-4.42,1.99-9.24,2.94-14.09,2.79l-7.51.31c-2.94.4-5.94-.06-8.63-1.3-4.03-2.95-5.06-8.53-2.36-12.73,2.83-4.03,7.49-6.37,12.41-6.21"/>
    <path class="cls-20" d="M494.62,533.64c-.76-9.51-3.87-18.68-9.06-26.69-1.99-4-4.83-7.52-8.32-10.3-3.64-2.48-8.19-3.21-12.41-1.99-3.4.75-5.76,3.85-5.59,7.32.54,3.49,1.97,6.78,4.16,9.56,6.21,10.93,7.45,17.38,4.9,22.28"/>
    <path class="cls-14" d="M482.7,633.81h0l-51.46-1.74h0c-7.24-6.15-13.53-13.69-18.62-22.29-5.31-8.93-9.5-18.71-12.41-29.04-3.91-13.57-5.86-27.8-5.77-42.11h0c3.47-3.74,7.78-6.25,12.41-7.26,17.68-4.84,35.88-6.61,54-5.23h3.97c35.32,0,50.09,7.99,62.07,16.26h0c0,.87-.99,3.49-1.92,7.26-3.6,13.87-10.99,42.62-20.3,57.51-13.35,21.27-21.85,26.43-21.97,26.5v.15Z"/>
    <path class="cls-14" d="M500.85,601.02c9.06,5.92,24.65,8.11,33.99,2.66,12.46-6.99,20.19-24.24,13.51-37.27-4.62-8.99-16.78-13.43-26.54-13.06l-3.92,11.13s24.58,4.37,20.67,17.32c-6.39,21.19-31.46,8.5-31.46,8.5l-6.26,10.72Z"/>
    <path class="cls-20" d="M550.55,534.45s12.41,15.89,0,24.39c-12.41,8.5-30.11,9-32.65,5.65-2.55-3.35-6.21-10.86,2.11-12.1,8.32-1.24,30.54-17.94,30.54-17.94Z"/>
    <path class="cls-20" d="M504.24,530.27l10.86-6.99,11.73-6.21c4.62-2.32,9.84-3.19,14.96-2.48,6.03,3.18,9.79,9.45,9.75,16.26,0,10.18-30.48,26.32-35.51,21.73-3.73-2.85-4.44-8.19-1.59-11.92.6-.78,1.32-1.45,2.15-1.98,4.59-2.98,5.28-6.02,5.28-6.02l-4.29,1.92-13.34-4.3Z"/>
    <path class="cls-29" d="M538.1,517.61c-5.47,4.16-10.67,8.68-15.52,13.55-4.2,4.22-10.56,8.46-10.18,15.17.13,2.37,1.36,4.02,2.87,5.7,1.17,1.3,2.38,2.54,4.22,2.67,3.28.23,6.59-.84,9.64-1.89s5.76-2.44,8.44-4.05c2.94-1.76,5.67-3.88,8.11-6.28s4.82-5.15,6.22-8.42c.3-.7-1.15-.59-1.37-.09-2.22,5.2-6.85,9.46-11.42,12.65-2.39,1.67-4.97,3.15-7.63,4.32-2.82,1.24-5.94,2.35-9,2.71-1.36.16-2.89.39-4.07-.46-.62-.45-1.15-1.02-1.66-1.59-1.32-1.46-2.51-2.83-2.83-4.87-1-6.46,5.26-10.6,9.18-14.59,4.96-5.04,10.29-9.72,15.92-14,.78-.59-.42-.92-.93-.53h0Z"/>
    <g class="cls-17">
      <path d="M408.38,533.97c-33.77,7.08,68.78,15.21,107.76,4.72.51-.19.78-.76.59-1.28-.1-.27-.31-.48-.59-.59-10.18-3.72-49.04-15.15-107.76-2.86Z"/>
    </g>
    <path class="cls-20" d="M403.93,545.99c3.54-7.61,4.83-16.07,3.72-24.39-.35-4.72-2.43-9.14-5.83-12.41-3.7-3.27-9.31-3.08-12.79.43-2.79,3.54-1.61,8.63-1.55,13.1-.24,6.6-2.54,12.96-6.58,18.19-4.02,5.09-8.55,9.75-13.53,13.9"/>
    <path class="cls-20" d="M325.55,586.69l-3.57-2.97c.87-2.23,10.65-14.95,10.65-14.95,22.64-11.45,35.74-20.74,60.12-27.75,6.7.56,55.06,6.21,61.39,8.07,10.55,2.67,7.7,13.9,3.97,13.59-8.19-.68-38.98-1.68-38.98-1.68l42.21,7.95,9.31,2.05s4.97,1.3,4.47,5.77c-.68,6.21-4.22,8.19-10.61,8.19s-58.6-5.65-58.6-5.65l56.55,14.59c3.14.55,5.24,3.55,4.68,6.69-.06.34-.15.68-.27,1.01-1.61,5.65-7.95,6.21-16.33,5.28.48.94.72,1.99.68,3.04-.61,4.69-4.91,8-9.6,7.38-.13-.02-.26-.04-.39-.06-6.21-.37-79.52-2.61-79.52-2.61l-4.45,7.94-31.73-35.9Z"/>
    <path class="cls-29" d="M361.74,552.97c8.4-2.64,16.8-5.29,25.15-8.09,1.77-.59,3.58-1.13,5.28-1.86.62-.27,2.03-.53,2.97-.58,3.35-.21,6.79.14,10.11.51.74.08,1.46-.99.49-1.1-2.39-.27-4.79-.44-7.18-.53s-4.87-.21-7.01.78c-2.76,1.28-5.92,2.06-8.83,3.02-3.58,1.18-7.16,2.33-10.74,3.48-3.51,1.12-7.02,2.22-10.53,3.32-.88.28-.61,1.33.28,1.05h0Z"/>
    <path class="cls-29" d="M426.29,560.71c-8.16.16-15.85-3.28-23.97-3.6-.53-.02-1.55.75-.57.79,8.12.32,15.8,3.76,23.97,3.6.52-.01,1.54-.81.57-.79h0Z"/>
    <path class="cls-29" d="M412.32,581c-3.04-.5-6.05-1.22-9.03-1.97-2.95-.74-5.93-1.51-8.79-2.54-.61-.22-1.7.66-.84.97,2.95,1.06,6.01,1.85,9.05,2.6s6.05,1.48,9.12,1.98c.71.12,1.47-.89.5-1.05h0Z"/>
    <path class="cls-29" d="M450.98,606.32c-19.91-2.09-39.68-5.35-59.19-9.79-.56-.13-1.71.71-.85.91,19.63,4.46,39.51,7.75,59.53,9.85.66.07,1.5-.87.52-.97h0Z"/>
    <path class="cls-28" d="M484.32,345.15c1.78.07,3.5-.7,4.64-2.07,2.16-1.9,2.53-5.13.85-7.47-2.59-2.78-6.72-3.51-10.1-1.76-4,2.35-6.24,6.84-5.7,11.45.6,5.39,2.66,10.51,5.98,14.81,3.89,4.95,6.87,10.55,8.82,16.54,1.7,6.97-.57,14.3-5.91,19.09-5.3,4.85-11.55,7.49-16.38,11.34-2.33,1.81-4.07,4.28-4.99,7.09-.82,2.69-.69,5.57.35,8.18,2.21,4.95,5.6,9.28,9.88,12.61,3.87,3.07,7.25,6.7,10.04,10.78,3.85,6.14,5.44,13.44,4.48,20.62-.24,1.91-.69,3.8-1.34,5.61-.19.65-.49,1.27-.87,1.84.58-2.49,1.03-5.01,1.34-7.55.57-6.92-1.17-13.83-4.94-19.66-2.84-3.85-6.2-7.3-9.97-10.24-4.59-3.48-8.23-8.05-10.59-13.31-1.21-3.03-1.37-6.38-.46-9.51,1.02-3.22,2.99-6.06,5.64-8.16,5.16-4.34,11.35-6.94,16.25-11.36,4.8-4.24,6.83-10.8,5.28-17-1.84-5.74-4.65-11.12-8.31-15.91-3.49-4.62-5.62-10.12-6.16-15.88-.48-5.31,2.22-10.41,6.89-12.99,4.03-1.97,8.88-.94,11.78,2.48,1.14,1.45,1.53,3.36,1.04,5.14-.38,1.43-1.15,2.73-2.23,3.75-1.41,1.5-3.46,2.2-5.5,1.88-.68-.14-1.3-.49-1.78-.99.11-.21.62.33,1.99.67Z"/>
    <path class="cls-28" d="M471.43,471.63c.76-4.42.16-8.97-1.73-13.05-2.97-5.98-7.07-11.34-12.07-15.76-6.48-5.56-11.33-12.77-14.04-20.87-1.25-4.44-.85-9.17,1.12-13.34,1.99-3.67,4.8-6.83,8.22-9.23,6.25-4.62,12.18-8.08,15.24-12.88,2.49-3.67,3.02-8.33,1.42-12.47-.73-1.46-1.69-2.79-2.85-3.93.05-.08.47.1,1.21.62,1.03.77,1.87,1.77,2.44,2.92,2.04,4.44,1.67,9.61-.99,13.71-3.11,5.32-9.36,9.15-15.28,13.67-3.13,2.24-5.71,5.17-7.53,8.56-1.7,3.71-2.02,7.9-.9,11.82,2.68,7.73,7.34,14.62,13.53,19.98,5.09,4.68,9.19,10.34,12.06,16.64,1.84,4.37,2.22,9.21,1.07,13.81-.37,1.22-.89,2.39-1.54,3.48-.52.73-.86,1-.86,1-.21-.11.88-1.57,1.5-4.67Z"/>
    <path class="cls-18" d="M111.32,810.13c2.37.96,4.5,2.65,6.54,4.15,3.03,2.23,5.97,4.57,8.92,6.9s6.12,4.84,9.25,7.17c2.38,1.77,4.81,3.58,7.45,4.96,1.43.75,2.99,1.15,4.53,1.6,2.79.83,5.61,1.59,8.45,2.25,5.52,1.29,11.13,2.22,16.8,2.48,10.8.5,21.58-1.64,30.96-7.17,4.39-2.59,8.19-6.03,11.84-9.56,4.96-4.79,9.65-9.86,14.26-14.99,10.83-12.06,21.16-24.57,31.4-37.12,8.17-10.01,16.18-20.16,24.49-30.05.62-.73,1.24-1.46,1.86-2.19.35-.41-1.06-.27-1.33.04-7.61,8.82-14.79,18.02-22.13,27.06-10.08,12.4-20.22,24.77-30.74,36.8-4.73,5.4-9.53,10.75-14.54,15.9-3.77,3.88-7.64,7.74-11.92,11.06-7.48,5.79-16.89,8.88-26.27,9.48-11.43.73-22.83-1.8-33.69-5.13-2.56-.79-4.72-2.15-6.91-3.67-2.98-2.07-5.84-4.29-8.69-6.53-5.51-4.31-10.88-9.01-16.83-12.72-.81-.5-1.64-.99-2.52-1.35-.37-.15-1.69.42-1.17.63h0Z"/>
    <path class="cls-18" d="M442.54,807.54c.49-2.96.31-6.06.15-9.03-.24-4.43-.69-8.85-1.21-13.26-1.14-9.61-2.62-19.21-4.53-28.7-.7-3.49-1.4-7.04-2.53-10.42-.18-.53-1.62-.12-1.45.39.97,2.88,1.59,5.89,2.21,8.86.92,4.43,1.72,8.88,2.45,13.34,1.54,9.43,2.88,18.94,3.51,28.48.23,3.45.52,7.07-.05,10.51-.1.58,1.37.34,1.45-.17h0Z"/>
  </g>
  <path class="cls-26" d="M1228.74,1054.13c-3.39-51.75-11.79-412.61-10.49-432.54,1.19-18.1-17.72-45.16-27.96-78.05-19.41-62.37-50.74-139.67-50.74-139.67l-75.59-16.43-161.95,5.07s-109.22,38.71-109.22,38.71c-2.01,10.42,2.96,31.65,2.7,42.2-.56,23.33-1.04,46.66-1.51,69.99-.49,24.37-17.84,48.74-18.31,73.11-.43,22.41-8.15,142.8.32,199l-3.03,242.62,32.2.94,280.92-2.29,142.65-2.65Z"/>
  <path class="cls-26" d="M809.71,832.62c-56.23,12.35-172.22,19.77-185.86-15.05-14.97-38.22-.47-56.91,5.63-75.99,14.64-45.8,45.5-124.66,59.57-157.92,18.46-43.63,34.13-126.74,82.99-145.08,51.55-19.35,140.41-46.07,140.41-46.07,0,0-30.8,140.6-81.34,202.81l-18.59,39.69-24.35,72.58,98.77,5.92-59.34,121.05-17.89-1.93Z"/>
  <path class="cls-20" d="M1044.63,595.43s-34.29-36.15-37.93-44.58c-3.64-8.43-11.43-30.13-15.9-31.61-4.47-1.48-7.32,6.67-7.98,15.23-.66,8.56,10.71,25.41,7.04,28.74-3.66,3.34-58.62-6.53-69.9-8.25-11.27-1.72-42.68-4.54-42.03,10.74,0,0-15,.96-15.25,7.52-.25,6.56.93,9.05.93,9.05,0,0-1.54,11.93,8.31,14.78,9.85,2.86,16.65,3.1,16.65,3.1,0,0-7.22,4.7.32,12.05,7.54,7.35,50.69,19.36,50.69,19.36,0,0,20.83,16.7,37.72,19.13,16.89,2.42,49.47-1.09,49.47-1.09l17.85-54.19Z"/>
  <path class="cls-26" d="M1129.87,402.51c15.89,1.58,67.16,19.92,76.91,23.77,20.58,8.12,24.82,19.17,39.11,37.11,29.11,36.55,43.82,83.73,72.17,120.91,14.88,19.52,57.2,96.22,62.03,122.97,4.83,26.75,1.79,97.9-52.21,97.9,0,0-195.61-230.18-197.5-229.41-1.9.77,25.29,18.87,25.29,18.87,0,0-18.52-52.81-26.97-81.01-7.24-24.14-3.94-53.69-2.49-78.55.34-5.81-1.26-27.5,2.88-31.83.25-.26.45-.76.79-.72Z"/>
  <path class="cls-26" d="M1075.3,577.51s99.4,46.84,141.99,49.63c42.58,2.79,94.93,11.36,116.21,30.55,21.29,19.18,14.03,140.52,14.03,140.52,0,0-18.76,17.27-66.11,1.07-47.36-16.2-246.46-115.89-246.46-115.89l40.34-105.88Z"/>
  <path class="cls-29" d="M873.57,566.11c-.49.77-.92.32-.38.33.2,0,.42-.07.62-.11.58-.09,1.17-.18,1.75-.25,1.04-.14,2.09-.25,3.13-.35,2.39-.23,4.78-.41,7.18-.54,5-.28,10.01-.35,15.02-.26,10.86.19,21.72,1.17,32.43,3.01,2.6.45,5.2.95,7.78,1.51,1.17.25,2.34.52,3.5.82.63.16,1.26.33,1.88.51.13.04.88.18.95.32.25.51,2.34-.24,2.17-.58-.19-.38-1.14-.51-1.49-.61-1.13-.33-2.26-.61-3.4-.88-2.6-.61-5.22-1.13-7.85-1.61-5.26-.96-10.56-1.68-15.88-2.23-11.68-1.21-23.47-1.51-35.19-.79-2.89.18-5.78.4-8.65.75-1.22.15-2.46.3-3.67.53-.6.12-1.67.24-2.04.82-.21.33.78.21.86.19.39-.07,1.04-.21,1.28-.58h0Z"/>
  <path class="cls-29" d="M864.61,581.9c.04-.13-.84.75-.78.62.04-.08-.04.02-.1.02.17,0,.35-.05.52-.07.55-.06,1.1-.09,1.64-.12,1.89-.1,3.78-.12,5.67-.13,6.86-.03,13.72.21,20.57.58,17.65.95,35.29,2.66,52.86,4.47,2.72.28,5.44.56,8.16.91.78.1,1.57.2,2.35.33.23.04.46.11.69.13.34.03-.03.09-.09-.19.16.78,2.34.24,2.17-.58-.13-.64-2.13-.68-2.57-.74-2.22-.31-4.44-.55-6.67-.79-7.94-.86-15.89-1.59-23.84-2.3-17.64-1.58-35.32-3.19-53.04-3.09-2.2.01-4.41.04-6.61.18-.83.05-2.81,0-3.12,1.02-.24.8,1.95.5,2.18-.26h0Z"/>
  <path class="cls-29" d="M889.96,599.08c-.34.72-1.29.48-.71.5.16,0,.34-.03.5-.04.76-.05,1.52-.07,2.28-.08,2.06-.04,4.12-.02,6.18.02,4.3.09,8.59.31,12.87.62,9.24.66,18.46,1.72,27.59,3.28,2.3.39,4.59.82,6.87,1.32.74.16,1.47.33,2.2.53.2.06.79.28.78.22.15.58,2.33.01,2.17-.58-.14-.53-1.87-.73-2.26-.83-2.04-.49-4.11-.88-6.18-1.26-4.59-.84-9.21-1.52-13.83-2.1-10.15-1.28-20.39-2.08-30.62-2.22-2.35-.03-4.7-.07-7.05.08-.78.05-2.55.03-2.96.89-.21.45,1.87.26,2.15-.34h0Z"/>
  <path class="cls-20" d="M947.38,742.05s30.33-28.11,35.63-35.56c5.3-7.45,17.39-26.99,22.06-27.47,4.67-.48,5.78,8.1,4.66,16.61-1.13,8.51-13.57,22.08-10.68,26.13,2.89,4.05,67.16,6.87,78.54,7.61,11.37.74,42.66,4.76,38.87,19.56,0,0,14.46,4.18,13.35,10.64-1.11,6.47-2.78,8.64-2.78,8.64,0,0-.95,11.99-11.17,12.66-10.22.67-16.92-.55-16.92-.55,0,0,6.09,6.15-2.8,11.71-8.89,5.56-53.54,8-53.54,8,0,0-23.81,11.84-40.82,10.57-17.01-1.27-48.13-11.73-48.13-11.73l-6.27-56.82Z"/>
  <path class="cls-29" d="M1119.5,748.74c-9.16-3.38-18.82-5.65-28.39-7.46-10.47-1.98-21.11-3.22-31.76-3.6-2.76-.1-5.53-.15-8.29-.11-1.16.02-2.33.05-3.48.14-.67.05-1.6.07-2.06.65-.85,1.08,1.21,1.42,1.82.64-.67.85-.89.3-.46.34.21.02.46-.04.67-.06.52-.04,1.04-.06,1.57-.08,1-.04,2-.06,3-.07,2.39-.01,4.79.04,7.18.13,4.63.18,9.26.54,13.87,1.03,10.51,1.13,20.94,3,31.16,5.65,4.69,1.22,9.38,2.55,13.93,4.23.93.34,2.54-.99,1.25-1.47h0Z"/>
  <path class="cls-29" d="M1128.27,767.69c-.04-.46-1.65-.75-1.94-.84-1.78-.52-3.6-.95-5.41-1.37-6.89-1.6-13.86-2.88-20.84-4.05-18.3-3.04-36.78-5.29-55.22-7.35-2.57-.29-5.13-.58-7.71-.78-.94-.07-3.37-.51-3.87.65-.24.55,1.88.33,2.16-.32-.13.3-1.14.68-1.27.65.06.02.13,0,.2,0,.22.03.47.01.57.02.72.04,1.44.11,2.16.17,2.37.22,4.74.48,7.1.75,7.74.88,15.47,1.85,23.2,2.85,16.69,2.16,33.41,4.33,49.86,7.95,2.21.49,4.42.99,6.6,1.59.59.16,1.18.32,1.76.52.16.06.33.11.49.19s0,.03,0-.05c.05.58,2.24.15,2.17-.58h0Z"/>
  <path class="cls-29" d="M1105.97,780.76c-.16-.69-1.72-.9-2.25-1.04-1.97-.53-3.97-.96-5.97-1.38-4.51-.94-9.04-1.73-13.59-2.42-10.1-1.53-20.3-2.6-30.51-3.01-2.45-.1-4.9-.18-7.35-.12-.87.02-2.56-.11-3.04.84-.53,1.05,1.66.99,2.06.19-.41.82-1.11.46-.59.51.18.02.39-.03.58-.04.73-.04,1.47-.04,2.21-.04,2.06,0,4.12.08,6.18.17,4.22.19,8.43.49,12.64.89,9.26.86,18.5,2.13,27.62,3.9,2.28.44,4.55.92,6.81,1.46.77.19,1.55.38,2.32.6.2.06.43.18.64.2.36.04.15.24.06-.14.22.93,2.4.37,2.17-.58h0Z"/>
  <path class="cls-20" d="M1053.87,380.35c-1.26-4.01.42-31.5.42-31.5l-71.55,9.71-71.55-9.71s1.99,33.08.73,37.09c-1.26,4.01-8.9,9.29-8.9,9.29,0,0-3.35,51.84,78.63,51.84s82.33-56.51,82.33-56.51c0,0-8.85-6.2-10.1-10.21Z"/>
  <path class="cls-21" d="M778.33,719.46c-.06-3.71-.12-7.42-.18-11.14-.15-9.36-.3-18.72-.45-28.08-.19-12.34-.38-24.68-.57-37.03-.19-12.66-.37-25.32-.53-37.98-.12-9.08-.09-18.24-2.24-27.13-.34-1.41-.74-2.8-1.23-4.16-.32-.89-2.48-.28-2.17.58,3.06,8.58,3.28,17.96,3.4,26.97.16,12.53.34,25.06.52,37.59.18,12.45.37,24.91.57,37.36.15,9.81.31,19.61.47,29.42.05,3.1.1,6.2.15,9.31.02,1.42-.06,2.88.07,4.3,0,.06,0,.13,0,.2.02,1.05,2.2.65,2.19-.21h0Z"/>
  <path class="cls-21" d="M1332.1,685.96c-18.27-11.38-37.49-21.71-57.26-30.22-13.61-5.86-27.82-10.05-42.01-14.24-14.55-4.29-29.15-8.37-43.78-12.38-8.56-2.34-17.18-4.49-25.69-7.02-5.6-1.66-11.13-3.6-16.67-5.47-19.31-6.52-38.56-13.21-57.81-19.9-13.21-4.59-26.41-9.2-39.61-13.82-.21-.07-.42-.15-.63-.22-.66-.23-1.54.12-1.73.81-.87,3.19-1.76,6.37-2.6,9.56-.09.32-.16.56-.1.37-.05.16-.11.32-.17.48-.27.77-.53,1.54-.8,2.32l-7.22,21.02c-3.79,11.04-7.79,22.03-11.28,33.18-2.31,7.37-4.61,14.73-6.92,22.1-.08.26-.1.59.2.74,1.75.88,3.49,1.76,5.24,2.63,4.76,2.39,9.51,4.78,14.27,7.17,7.04,3.53,14.07,7.07,21.11,10.6,8.63,4.33,17.26,8.67,25.89,13,9.41,4.73,18.82,9.45,28.23,14.18,9.5,4.77,19,9.54,28.49,14.31,8.86,4.45,17.71,8.9,26.57,13.34,7.49,3.76,14.97,7.52,22.46,11.28l16.16,8.12c2.56,1.29,5.1,2.63,7.69,3.86.11.05.22.11.33.16.83.42,2.74-.71,1.68-1.24-1.75-.88-3.49-1.76-5.24-2.63-4.76-2.39-9.51-4.78-14.27-7.17-7.04-3.53-14.07-7.07-21.11-10.6-8.63-4.33-17.26-8.67-25.89-13-9.41-4.73-18.82-9.45-28.23-14.18s-19-9.54-28.49-14.31c-8.86-4.45-17.71-8.9-26.57-13.34-7.49-3.76-14.97-7.52-22.46-11.28-5.39-2.71-10.78-5.41-16.16-8.12l-5.04-2.53c-.81-.41-1.77-1.12-2.66-1.33-.11-.03-.22-.11-.33-.16l.2.74c3.14-10.03,6.13-20.12,9.54-30.06,5.13-14.94,10.27-29.89,15.4-44.83,1.65-4.79,2.94-9.65,4.27-14.54l-1.73.81c11.07,3.88,22.14,7.74,33.21,11.6,19.6,6.82,39.21,13.64,58.87,20.32,6.61,2.25,13.22,4.51,19.88,6.63s13.09,3.69,19.64,5.48c13.71,3.73,27.41,7.5,41.07,11.42,14.34,4.12,28.87,8.07,42.86,13.29,14.25,5.31,27.96,12.1,41.34,19.29,8.43,4.53,16.77,9.27,24.94,14.26.41.25.82.5,1.23.76.8.5,2.71-.6,1.68-1.24h0Z"/>
  <path class="cls-21" d="M1209.25,629.94v-73.05c0-.95-2.18-.52-2.18.25v67.54c0,1.84,0,3.67,0,5.51,0,.95,2.18.52,2.18-.25h0Z"/>
  <path class="cls-20" d="M1070.01,249.06s10.81-20.94,18.14-20.89c4.46.03,15.23,11.94,15.11,23.31-.16,15.22-10.77,32.51-13.41,41.39-2.64,8.88-2.2,21.63-14.03,21.55-4.68-.03-10.47-9.83-10.47-9.83,0,0,2.21-41.74,4.65-55.54Z"/>
  <path d="M1072.28,275.88c2.61-5.52,5.48-10.99,9.05-15.96,1.84-2.56,3.89-5.1,6.39-7.06,1.01-.79,2.18-1.59,3.4-1.88.18-.04.2,0,.24-.05,0,0,.11,0,.11-.01,0,0,.03,0,.03,0,.01.15.84-2.25-.19-.06-.73,1.56-.14-.32-.18-.04,0,.02.06.06.06.08,0,.07.19.27.23.33.29.44.54.9.76,1.37,2.4,4.99,2.15,10.83.83,16.08-.12.46.91.33,1.02-.09,1.28-5.12,1.54-10.76-.58-15.7-.35-.82-.92-2.73-2.04-2.65s-2.37.83-3.32,1.45c-2.46,1.64-4.5,3.92-6.3,6.24-4.25,5.44-7.51,11.63-10.46,17.85-.24.5.78.47.96.09h0Z"/>
  <path d="M1075.54,278.63c4.44-.18,3.19,5.93,2.79,8.66-.21,1.43-1.71,7.42,1,7.59,1.41.09,2.21-1.65,2.67-2.69,1.13-2.55,1.77-5.34,2.3-8.07.68-3.48.97-6.52.56-10.02-.48-4.05-1.7-9.34-5.85-11.15-.31-.14-1.23.31-.8.5,3.6,1.57,4.85,5.94,5.44,9.49.43,2.64.61,5.29.22,7.93-.45,3.06-1.06,6.12-2,9.07-.22.7-1.4,4.6-2.37,4.21-1.03-.41-.68-2.96-.61-3.71.18-1.84.53-3.66.73-5.5.33-3.01.32-7.08-3.71-6.92-.39.02-1.06.62-.39.59h0Z"/>
  <path class="cls-20" d="M896.12,249.06s-10.81-20.94-18.14-20.89c-4.46.03-15.23,11.94-15.11,23.31.16,15.22,10.77,32.51,13.41,41.39,2.64,8.88,2.2,21.63,14.03,21.55,4.68-.03,10.47-9.83,10.47-9.83,0,0-2.21-41.74-4.65-55.54Z"/>
  <path d="M894.82,275.7c-2.7-5.71-5.67-11.36-9.4-16.48-1.92-2.64-4.08-5.25-6.73-7.19-1.05-.77-2.29-1.56-3.6-1.79-1.13-.2-1.55,1-2,1.87-2.59,5.12-2.36,11.24-.99,16.67.12.49,1.13.23,1.01-.27-1.25-5-1.53-10.48.52-15.32.23-.53.48-1.06.77-1.56.08-.14.53-.66.52-.81-.01-.25-.41.29-.48.15.01.02.24.02.27.04.95.4,2.05.8,3.01,1.49,2.44,1.73,4.43,4.06,6.22,6.43,3.96,5.25,7.07,11.13,9.88,17.05.22.46,1.22.18,1.01-.27h0Z"/>
  <path d="M890.57,278c-7.74-.31-2.33,11.35-3.4,15.31-.15.55-.31,1.07-.83.72-.6-.4-.97-1.38-1.25-2.01-1.12-2.53-1.74-5.29-2.27-7.99-.64-3.27-.95-6.11-.61-9.4.41-3.92,1.44-9.41,5.5-11.18.64-.28.07-.73-.42-.51-3.66,1.59-5.09,5.78-5.75,9.42-.5,2.74-.74,5.59-.33,8.35.47,3.24,1.1,6.51,2.14,9.62.44,1.32,1.07,3.69,2.45,4.41.99.51,1.93-.26,2.28-1.17.5-1.31.2-2.97.02-4.32-.33-2.57-2.57-10.78,2.11-10.59.44.02,1.05-.63.37-.66h0Z"/>
  <path class="cls-20" d="M885.68,259.02c1.52,16.58,4.72,32.04,5.48,49.38.75,17.34,2.19,40.08,4.9,46.53,1.39,3.32,5.66,6.28,8.26,8.74,14.14,13.41,31.67,27.11,49.84,34.58,7.91,3.25,28.41,3.25,28.41,3.25,0,0,20.5,0,28.41-3.25,11.11-4.57,21.16-12.69,31.01-19.49,9.64-6.64,21.62-14.83,27.93-24.93,1.94-3.11,1.73-7.29,2.11-10.8,1.24-11.49,1.45-23.09,1.95-34.63.76-17.34,3.97-32.8,5.48-49.38,1.51-16.59,3.39-85.47-1.51-98.68-4.91-13.19-63.18-54.14-95.6-54.14-22.76,0-58.15,17.46-78.9,32.44-8.82,6.36-14.77,17.78-16.24,21.7-4.91,13.21-3.03,82.08-1.52,98.68Z"/>
  <path d="M978.88,300.33c4.42,1.8,7.66,1.87,10.56-.69.64-.57,2.91.05,2,.85-3.83,3.37-11.12,2.87-15.13-.07-.4-.29-.35-.71.12-.92.49-.22,2.01.52,2.44.83"/>
  <path d="M993.05,298.47c2.81-.82,5.82-.96,8.72-.64.42.05.93.33,1.18.69.2.28.18.61-.17.74-1.48.57-3.23.58-4.77.25-.48-.1-1.1-.36-1.29-.87-.17-.47.35-.65.73-.57,1.27.28,2.63.25,3.85-.22.34.48.68.95,1.02,1.43-2.6-.28-5.28-.14-7.8.6-.5.15-1.12-.13-1.48-.48-.27-.26-.5-.78,0-.93"/>
  <path d="M974.71,299.14c-2.8-.85-5.8-1.02-8.71-.74-.43.04-.94.32-1.19.67-.2.28-.19.61.16.74,1.47.59,3.22.62,4.76.31.49-.1,1.11-.35,1.3-.86.18-.47-.34-.66-.72-.58-1.27.26-2.63.22-3.84-.26-.35.47-.69.94-1.03,1.42,2.6-.25,5.29-.07,7.79.69.5.15,1.13-.12,1.48-.46.27-.25.51-.77,0-.93"/>
  <path d="M1004.51,299.81c2.88-.09,6.26-1.71,7.67-4.52,2.13-4.23.15-9.26-3.44-11.96-.39-.29-.18-.68.21-.78.52-.14,1.13.11,1.53.41,3.13,2.36,5.15,6.18,4.69,10.15-.44,3.71-3.19,6.3-6.63,7.37-1.02.32-2.11.53-3.19.57-.44.01-1.22-.16-1.43-.6-.22-.45.18-.64.59-.65"/>
  <path d="M962.97,299.92c-2.88-.09-6.26-1.71-7.67-4.52-2.13-4.23-.15-9.26,3.44-11.96.39-.29.18-.68-.21-.78-.52-.14-1.13.11-1.53.41-3.13,2.36-5.15,6.18-4.69,10.15.44,3.71,3.19,6.3,6.63,7.37,1.02.32,2.11.53,3.19.57.44.01,1.22-.16,1.43-.6.22-.45-.18-.64-.59-.65"/>
  <path d="M1004.19,243.81s14.27,12.22,21.57,13.01c10.65,1.15,23.77-5.27,27.54-11.02,0,0-17.37,9.6-24.85,8.55-7.15-1-24.27-10.54-24.27-10.54Z"/>
  <path d="M962.67,244.57s-14.89,12.22-22.5,13.01c-11.11,1.15-24.79-5.27-28.73-11.02,0,0,18.11,9.6,25.92,8.55,7.46-1,25.31-10.54,25.31-10.54Z"/>
  <path d="M1001.9,206.01c.02,2.99.04,5.99.07,9,.02,2.29-.1,7.51-.07,9.79,7.18-1.96,13.64-4.88,18.28-5.73,9.2-1.68,18.62-4.05,27.95-2.64,4.47.67,8.39,1.81,12.12,4.1,1.18.72,4.36,3.86,6.11,3.04.72-.34-.48-4.01-.6-4.39-2.45-7.42-8.76-10.47-16.46-12.21-15.7-3.53-31.47-3.06-47.4-.95"/>
  <path d="M962.67,206.01c-.02,2.99-.04,5.99-.07,9-.02,2.29.1,6.41.07,8.69-7.32-1.96-13.63-4.28-18.37-5.13-9.38-1.68-19.26-3.56-28.78-2.15-4.55.67-8.55,1.81-12.36,4.1-1.2.72-4.45,3.86-6.24,3.04-.73-.34.49-4.01.62-4.39,2.5-7.42,8.93-10.47,16.78-12.21,16.01-3.53,32.09-3.06,48.34-.95"/>
  <path d="M1071.95,343.82s-3.67,7.34-8.28,10.41c-13.16,8.77-38.84,21.06-46.43,26.84-7.23,5.51-11.19,6.49-11.19,6.49,0,0-12.12-3.56-24.36-4.05-12.24-.49-23.38,4.61-23.38,4.61,0,0-43.2-27.54-56.6-34.38-.95-.48-7.14-8.13-7.74-8.32,0,0-5.09,10.48,24.69,30.84,20.71,14.16,26.14,20.92,42.73,24.4,16.58,3.48,39.48,2.3,49.59-2.41,15.65-7.3,51.49-33.74,57.1-40.69,3.6-4.46,3.87-13.74,3.87-13.74Z"/>
  <path d="M996.98,356.73l-30.69-1.18c.68,1.72,3.06,14.48,16.14,13.12,11.57-1.21,9.07-6.82,14.55-11.94Z"/>
  <path class="cls-15" d="M982.19,323.44c15.06,0,39.48-1.72,39.48-1.72,0,0-4.55,39.96-39.48,39.96-34.92,0-39.48-39.96-39.48-39.96,0,0,24.41,1.72,39.48,1.72Z"/>
  <path class="cls-8" d="M982.05,323.44c7.16,0,36.03-1.18,36.03-1.18,0,0-9.55,26.35-35.45,26.35-28.09,0-36.34-26.13-36.34-26.13l35.76.96Z"/>
  <path class="cls-24" d="M981.73,324.48c7.16,0,28.96-1.18,28.96-1.18,0,0-7.85,7.63-29.33,7.63-21.48,0-28.31-7.41-28.31-7.41l28.68.96Z"/>
  <path class="cls-15" d="M941.13,319.57c.76-.18,4.93,1.16,8.49.87,5.93-.5,13.1-2.01,17.39-2.33,7.33-.55,11.99,2.26,15.18,2.26,3.19,0,7.84-2.81,15.18-2.26,4.3.32,11.47,1.84,17.39,2.33,3.56.3,7.73-1.05,8.49-.87,1.06.25-.99,7.8-41.07,7.8-40.07,0-42.11-7.55-41.05-7.8Z"/>
  <path d="M987.12,308.23l1.07,6.9c.2,1.01,1.01,1.79,2.03,1.93,7.03.98,33.75,4.62,40.12,4.54.15,0,.29-.02.44-.05l2,1.76c2.38-.47-.47-7.15-2.73-8.03-6.88-2.68-13.28-5.07-17.09-5.96-4.76-1.11-17.76-4.04-23.51-3.97-1.51.02-2.63,1.41-2.34,2.89Z"/>
  <path d="M980.42,308.24l-2,7.11c-.21,1.01-1.02,1.78-2.05,1.91-7.04.91-33.79,4.32-40.16,4.18-.15,0-.29-.02-.44-.05l-2.04-.42c-2.37-.49-.72-5.18,1.54-6.04,6.9-2.62,14.6-4.76,18.42-5.61,4.77-1.07,18.66-4.1,24.41-3.98,1.51.03,2.62,1.43,2.31,2.91Z"/>
  <path d="M885.68,259.02s2.1-74.44,1.81-86.56c-.29-12.12,37.07-49.6,56.62-56.49,19.54-6.89-22.33-4.63-32.59-2.72-10.26,1.92-10.97,8.31-10.97,8.31,0,0-6.63.64-9.35,3.84l-2.72,3.2s-8.31,1.92-8.63,5.75c-.32,3.84-1.46,12.15-1.46,12.15,0,0-6.38,3.29-6.38,12.87s-.41,4.89-.41,4.89c0,0-5.61,6.29-2.88,11.4,2.73,5.11,1.87,4.48,1.87,4.48,0,0-1.25,2.04-2.43,5.81-1.18,3.77-3.44,18.58.57,27.53,4,8.95,3.86,17.73,3.86,17.73l13.11,27.81Z"/>
  <path d="M1079.89,259.02s-2.1-74.44-1.81-86.56c.29-12.12-37.52-49.6-57.06-56.49-20.24-7.14,21.8-4.73,32.59-2.72,10.26,1.92,10.97,8.31,10.97,8.31,0,0,6.63.64,9.35,3.84l2.72,3.2s8.31,1.92,8.63,5.75c.32,3.84,1.46,12.15,1.46,12.15,0,0,6.82,3.29,6.82,12.87,0,9.58.41,4.89.41,4.89,0,0,5.61,6.29,2.88,11.4-2.73,5.11-1.87,4.48-1.87,4.48,0,0,1.25,2.04,2.43,5.81,1.18,3.77,3.44,18.58-.57,27.53-4,8.95-3.86,17.73-3.86,17.73l-13.11,27.81Z"/>
  <path d="M912.41,113.48s13.27-7.3,17.28-6.73c4.01.56,5.86,3.35,5.86,3.35,0,0,1.36-5.26,6.23-4.64,4.88.62,6.73,1.29,6.73,1.29,0,0,3.39-4.06,5.55-4.06s5.25,2.78,5.25,2.78c0,0,1.54-3.39,5.25-2.78s4.63,2.47,4.63,2.47c0,0,1.85-3.54,5.86-2.54,4.01,1,6.3,2.85,6.3,2.85,0,0,3.88-4.52,6.35-3.03l2.47,1.49s2.78-3.88,4.94-1.79c2.16,2.1,3.7,3.02,3.7,3.02,0,0,.93-1.85,4.01-1.23,3.09.62,4.32,1.61,4.32,1.61,0,0,3.09-1,5.55-.75,2.47.25,2.78,3.03,2.78,3.03,0,0,1.77-4.57,5.98-2.29l4.2,2.29s5.55,1.35,8.33,3.2c2.78,1.86,1.54,7.71,1.54,7.71l16.6,16.75s-26.23-19.17-68.17-19.25c-41.67-.08-73.54,17.86-73.54,17.86l1.99-20.6Z"/>
  <path d="M1015.42,115.81c-1.66-1.38-4.25-1.85-6.68-2.25l-2.61-.82c-7.7-.05-15.4.13-23.08.53-1.93.1-3.94.23-5.62.96-.18.08-.35.17-.52.26-5.7-.18-11.4-.3-17.11-.26l-2.61.71c-2.42.35-5.01.75-6.68,1.96-1.66,1.2-1.69,3.47.55,4.16,2.33.73,5.79-.53,7.4.79,1.78,1.45-1.6,3.62-.54,5.35.67,1.08,2.73,1.43,4.07,2.19,1.6.92,2.14,2.42,3.64,3.4,1.53,1.01,4.04,1.33,6.05.77,2.16.16,5.05-.73,5.74.75.18.4.08.83.06,1.25-.09,1.64,1.28,3.28,3.29,3.93,2.01.65,4.53.29,6.07-.88,1.5-1.14,2.04-2.87,3.64-3.92.5-.33,1.11-.59,1.7-.86.54.5,1.23.91,2.01,1.17,2.01.65,4.53.29,6.07-.88,1.5-1.14,2.04-2.87,3.64-3.92,1.35-.88,3.41-1.28,4.07-2.53,1.06-1.98-2.32-4.49-.54-6.16,1.62-1.52,5.07-.07,7.4-.91,2.24-.8,2.21-3.41.55-4.8Z"/>
  <path d="M958.58,389.88c1.26,1.05,3.23,1.41,5.07,1.71l1.98.62c5.84.04,11.68-.1,17.51-.4,1.47-.08,2.99-.18,4.26-.73.14-.06.27-.13.4-.2,4.32.14,8.65.23,12.98.2l1.98-.54c1.84-.26,3.8-.57,5.07-1.48,1.26-.91,1.28-2.63-.42-3.16-1.77-.55-4.39.4-5.62-.6-1.35-1.1,1.21-2.75.41-4.06-.51-.82-2.07-1.08-3.09-1.66-1.22-.69-1.63-1.83-2.76-2.58-1.16-.77-3.06-1.01-4.59-.58-1.64-.12-3.83.55-4.35-.57-.14-.3-.06-.63-.04-.95.06-1.25-.97-2.49-2.5-2.98-1.52-.5-3.44-.22-4.61.67-1.14.86-1.55,2.18-2.76,2.98-.38.25-.84.45-1.29.65-.41-.38-.93-.69-1.53-.88-1.52-.5-3.44-.22-4.61.67-1.14.86-1.55,2.18-2.76,2.98-1.02.67-2.58.97-3.09,1.92-.8,1.51,1.76,3.41.41,4.67-1.23,1.15-3.85.05-5.62.69-1.7.61-1.68,2.59-.42,3.64Z"/>
  <path d="M934.75,317.59c-2.02,1.79-4.18,3.87-4.36,6.56-.07.98.14,1.95.35,2.91.32,1.48.64,2.96.96,4.44.06.29.14.6.34.83.22.24.56.33.88.41,1.02.26,2.08.51,3.11.31s2.02-1.02,2.07-2.07c.02-.43-.11-.89.06-1.28.34-.77,1.43-.68,2.24-.89,2.04-.54,2.46-3.17,3.35-5.08,1.21-2.59,3.81-4.28,6.51-5.22,1.37-.47,2.8-.79,4.04-1.53s2.29-2.03,2.22-3.48"/>
  <path d="M1030.38,319.02c2.02,1.79,4.18,3.87,4.36,6.56.07.98-.14,1.95-.35,2.91-.32,1.48-.64,2.96-.96,4.44-.06.29-.14.6-.34.83-.22.24-.56.33-.88.41-1.02.26-2.08.51-3.11.31-1.03-.21-2.02-1.02-2.07-2.07-.02-.43.11-.89-.06-1.28-.34-.77-1.43-.68-2.24-.89-2.04-.54-2.46-3.17-3.35-5.08-1.21-2.59-3.81-4.28-6.51-5.22-1.37-.47-2.8-.79-4.04-1.53-1.24-.74-2.29-2.03-2.22-3.48"/>
  <path d="M893.92,350.1c2.84,4.23,5.52,8.7,6.08,13.76,1.83-1.3,4.27.56,5.43,2.49,1.16,1.92,2.35,4.33,4.59,4.56,1.31.14,2.82-.54,3.86.28,1.11.87.68,2.62,1.04,3.98,1.16,4.34,9.23,2.89,10.7,7.13.45,1.3.1,2.85.85,4,1.9,2.92,7.46-.41,9.68,2.27.87,1.05.81,2.68,1.76,3.67,1.84,1.9,5.39-.27,7.62,1.17,1.57,1.01,1.77,3.39,3.31,4.46,2,1.39,4.94-.23,7.12.86,2.42,1.21,2.97,5.3,5.67,5.44,2.04.11,3.37-2.28,5.36-2.74,3.62-.83,6.38,4.93,9.95,3.93,1.24-.35,2.13-1.46,3.35-1.89,3.06-1.09,6.23,2.53,9.36,1.67,2.16-.59,3.57-3.18,5.81-3.14,1.25.02,2.31.89,3.51,1.23,0,0,4.23,2.44,6.22-.56l1.99-3s3.34,1.06,5.84.22c2.5-.84,4.97-5.38,4.97-5.38,0,0,6.19-.48,7.3-2.16,1.12-1.68,2.95-4.21,2.95-4.21,0,0,4.59-.26,6.26-1.37s2.73-4.71,2.73-4.71c0,0,6.48-.04,7.6-1.71,1.12-1.68,1.95-5.03,1.95-5.03,0,0,3.07,1.4,5.86,0,2.79-1.4,4.03-7.66,4.03-7.66,0,0,3.79-.71,5.18-1.55,1.4-.84,3.48-6.27,3.48-6.27,0,0,8.63-3.23,6.59-4.62-2.03-1.39.07-12.19.07-12.19,0,0-5.57,9.41-8.36,11.21-2.78,1.79-7.07.48-7.93,2.94-.87,2.46-5.47,5.08-5.47,5.08,0,0-3.08-.05-6.49,3.58-3.41,3.63-4.52,5.86-4.52,5.86,0,0-.23-5.31-4.72-.84s-6.73,5.58-6.73,5.58c0,0-5.19-3.07-6.33-.28s-5.36,6.7-5.36,6.7c0,0-3.39-4.19-6.18-1.12s-6.71,5.07-6.71,5.07l-40.76-.27s-1.11-1.44-3.07-1.44-6.21-.22-6.21-.22c0,0-.84-5.61-3.15-4.53-2.31,1.08-5.7,0-5.7,0,0,0-1.71-2.12-3.57-3.29-1.86-1.16-5.1-2.81-5.1-2.81,0,0,1.02-5.27-2.23-4.51-3.26.75-6.3-1.12-6.3-1.12,0,0-.19-4.72-2.64-3.91-2.45.81-5.58,1.12-5.58,1.12,0,0-2.76-3.86-3.38-4.23s-2.76-1.63-2.76-1.63c0,0-3.64-6.91-5.31-6.95-1.68-.03-4.47,0-4.47,0,0,0-3.08-7.75-5.03-6.61-1.95,1.14-4.1-7.11-4.1-7.11,0,0-3.46,5.57.06,10.8Z"/>
  <path class="cls-4" d="M1082.47,243.77l-9.6-11.05.67-2.41c-27.43-10.67-61.85-7.82-83.17,6.27l-1.01-.12-9.15-.31-3.55.31-1.01.12c-21.32-14.09-55.74-16.94-83.17-6.27l.71,2.53c0,.06.04.18.09.31l-12.46,11.73.78,5.14,13.2-11.66c3.79,13.34,8.14,26.85,12.35,30.59,2.99,2.66,12.88,4.03,21.05,4.69,3.08.27,5.9.42,7.93.53,2.44.1,24.07,1.03,27.72-1.88,3.65-2.91,10.07-24.85,11.92-31.79l7.25-.22,7.25.22c1.84,6.93,8.27,28.87,11.92,31.79,3.65,2.91,25.28,1.99,27.72,1.88,2.03-.11,4.85-.25,7.93-.53,8.17-.66,18.06-2.03,21.05-4.69,4.26-3.78,8.66-17.55,12.48-31.04l10.34,11,.78-5.14ZM961.68,269.98v.07c-3.98,2.78-47.06,1.35-52.23-3.23-4.26-3.79-9.71-22.95-11.93-30.86l.11-.1-.28-.8c24.49-8.34,56.58-6.14,75.12,5.77-3.46,11.97-8.51,27.33-10.79,29.14ZM1068.67,235.37c-2.12,7.53-7.73,27.56-12.1,31.44-5.17,4.58-48.25,6.01-52.24,3.23v-.07c-2.28-1.81-7.33-17.18-10.78-29.14,18.54-11.91,50.63-14.11,75.12-5.77v.31Z"/>
  <path class="cls-21" d="M775.32,836.66c5.97-.58,11.93-1.15,17.9-1.73,14.32-1.38,28.64-2.77,42.97-4.15,17.32-1.67,34.63-3.34,51.95-5.02,14.89-1.44,29.77-2.87,44.66-4.31,7.27-.7,14.57-1.25,21.83-2.11.1-.01.2-.02.3-.03.51-.05,1.26-.37,1.21-.98-.67-8.47-1.3-16.94-2.09-25.4-1.3-14-2.6-28-3.9-42-.38-4.12-.76-8.23-1.15-12.35-.02-.18-.29-.34-.44-.37-5.87-1.06-11.81-1.72-17.73-2.39-9.01-1.01-18.04-1.88-27.07-2.72-11.11-1.03-22.22-1.99-33.34-2.92-11.96-1-23.93-1.97-35.9-2.92-11.74-.93-23.48-1.85-35.21-2.77-10.38-.81-20.76-1.62-31.14-2.45-7.93-.63-15.85-1.27-23.78-1.98-4.02-.36-8.06-.96-12.09-1.14-7.67-.34-15.45.26-22.99,1.66-11.26,2.1-22.66,6.29-31.07,14.34-2.14,2.05-4.04,4.35-5.67,6.83-.6.92,1.6.83,2.05.14,6.63-10.1,17.73-15.8,29.15-18.74,8.38-2.16,17.15-3.06,25.8-2.9,3.66.07,7.29.59,10.94.92,7.25.67,14.51,1.26,21.77,1.85,9.85.8,19.71,1.57,29.56,2.34,11.45.9,22.9,1.79,34.34,2.69,11.85.94,23.7,1.89,35.55,2.86,11.27.93,22.54,1.88,33.8,2.9,9.5.85,19,1.74,28.48,2.74,6.72.71,13.46,1.44,20.14,2.45,1.05.16,2.07.32,3.1.51l-.44-.37c.98,10.56,1.96,21.11,2.94,31.67.9,9.67,1.92,19.34,2.68,29.02.5,6.35,1.01,12.7,1.51,19.05l1.21-.98c-5.97.58-11.93,1.15-17.9,1.73-14.32,1.38-28.64,2.77-42.97,4.15-17.32,1.67-34.63,3.34-51.95,5.02l-44.66,4.31c-7.27.7-14.57,1.25-21.83,2.11-.1.01-.2.02-.3.03-1.14.11-1.74,1.53-.25,1.38h0Z"/>
  <path class="cls-21" d="M900.92,392.61c-.07,1.93.16,3.9.43,5.81.68,4.67,2.04,9.25,3.98,13.55,2.76,6.11,6.69,11.63,11.55,16.24,6.56,6.21,14.56,10.64,23.03,13.65,12.29,4.36,25.49,5.85,38.46,5.95,13.52.1,27.23-1.23,40.15-5.42,9.23-3,18.03-7.48,25.44-13.79,5.65-4.82,10.41-10.62,13.97-17.13,2.63-4.82,4.61-10.02,5.86-15.36.61-2.62,1.39-5.64,1.26-8.36,0-.13.01-.26.01-.39l-1.74.78c3.93.85,7.85,1.71,11.78,2.56l-.46-.58c.07,2.12-.12,4.27-.35,6.37-.57,5.28-1.73,10.5-3.42,15.54-2.31,6.9-5.69,13.49-10.08,19.29-5.48,7.25-12.49,13.26-20.42,17.7-10.62,5.94-22.56,9.14-34.58,10.59-8.02.97-16.09,1.15-24.15.9-8.53-.27-17.06-.92-25.5-2.2-12.12-1.83-24.34-4.93-35.18-10.8-7.26-3.93-13.79-9.17-18.67-15.87-3.7-5.09-6.3-10.84-8.07-16.86-1.34-4.57-2.11-9.26-3.26-13.87-.21-.84-.44-1.67-.72-2.49l-.62.86c4.28-2.06,8.56-4.12,12.85-6.19,1.34-.65.14-1.66-.93-1.15-4.28,2.06-8.56,4.12-12.85,6.19-.28.13-.75.48-.62.86,1.4,4.12,1.97,8.52,3.01,12.74,1.46,5.91,3.54,11.66,6.66,16.92,3.99,6.73,9.59,12.36,16.07,16.72,9.42,6.34,20.41,10.11,31.43,12.52,7.61,1.67,15.36,2.72,23.12,3.36,8.79.73,17.65,1.05,26.47.67,13.36-.58,26.83-2.89,39.17-8.18,9.09-3.9,17.48-9.48,24.25-16.73,5.42-5.79,9.74-12.57,12.82-19.88,2.35-5.57,4.02-11.44,4.96-17.41.49-3.09.84-6.25.82-9.39,0-.14,0-.28,0-.43,0-.29-.15-.52-.46-.58-3.93-.85-7.85-1.71-11.78-2.56-.5-.11-1.73.05-1.74.78-.02,1.9-.31,3.81-.64,5.67-.82,4.68-2.23,9.25-4.15,13.6-2.72,6.15-6.47,11.82-11.1,16.7-6.07,6.4-13.54,11.31-21.62,14.81-11.21,4.86-23.44,7.04-35.58,7.76-13.75.81-27.89.11-41.27-3.36-9.26-2.4-18.23-6.25-25.81-12.16-5.49-4.28-10.12-9.64-13.48-15.75-2.45-4.45-4.21-9.3-5.22-14.28-.53-2.6-.87-5.35-.89-7.76,0-.12,0-.24,0-.36.04-1.05-2.16-.69-2.19.2Z"/>
  <path class="cls-21" d="M936.97,737.62c.79,9.35,1.57,18.69,2.36,28.04,1.25,14.87,2.5,29.74,3.75,44.61.28,3.37.57,6.75.85,10.12.08.99,2.26.47,2.17-.58-.79-9.35-1.57-18.69-2.36-28.04-1.25-14.87-2.5-29.74-3.75-44.61-.28-3.37-.57-6.75-.85-10.12-.08-.99-2.26-.47-2.17.58h0Z"/>
  <path class="cls-21" d="M1031.17,678.12c.97-2.98,1.94-5.96,2.91-8.94,2.34-7.2,4.69-14.4,7.03-21.6l8.47-26.04c2.45-7.54,4.91-15.08,7.36-22.62l2.42-7.43c.25-.78.51-1.56.76-2.33.12-.36.37-.83.39-1.21,0-.05.04-.11.05-.16.19-.59-1.95-.32-2.16.33-.97,2.98-1.94,5.96-2.91,8.94-2.34,7.2-4.69,14.4-7.03,21.6-2.82,8.68-5.65,17.36-8.47,26.04-2.45,7.54-4.91,15.08-7.36,22.62-.81,2.48-1.61,4.95-2.42,7.43l-.76,2.33c-.12.36-.37.83-.39,1.21,0,.05-.04.11-.05.16-.19.59,1.95.32,2.16-.33h0Z"/>
</svg>