<?xml version="1.0" encoding="UTF-8"?>
<svg id="Layer_1" xmlns="http://www.w3.org/2000/svg" version="1.1" viewBox="0 0 637.3 635.8">
  <!-- Generator: Adobe Illustrator 29.6.1, SVG Export Plug-In . SVG Version: 2.1.1 Build 9)  -->
  <defs>
    <style>
      .st0 {
        fill: #6696a3;
      }

      .st1 {
        fill: #b05e27;
      }

      .st2 {
        fill: #638e9f;
      }

      .st3 {
        fill: #12100e;
      }

      .st4 {
        fill: #263238;
      }

      .st5 {
        fill: #cd8c2a;
      }

      .st6 {
        fill: #632a11;
      }

      .st7 {
        fill: #a66e53;
      }

      .st8 {
        fill: #a03f22;
      }

      .st9 {
        fill: #f2725f;
      }

      .st10 {
        fill: #dea726;
      }

      .st11 {
        fill: #131429;
      }

      .st12 {
        fill: #fff;
      }

      .st13 {
        fill: #42221a;
      }

      .st14 {
        fill: #97712b;
      }

      .st15 {
        fill: #643b29;
      }

      .st16 {
        opacity: .3;
      }

      .st17 {
        fill: #1b3b53;
      }

      .st18 {
        fill: #465b65;
      }

      .st19 {
        fill: #de8b26;
      }

      .st20 {
        fill: #d16152;
      }

      .st21 {
        fill: #593425;
      }

      .st22 {
        fill: #221e1f;
      }

      .st23 {
        fill: #f0edf6;
      }

      .st24 {
        fill: #722b14;
      }
    </style>
  </defs>
  <path class="st17" d="M343.1,573.4s-4.2,50.9,0,77.9l187.7,1.9s2.3-79.2-2.3-110.9-185.4,31.1-185.4,31.1h0Z"/>
  <g id="Layer_11">
    <path class="st17" d="M341.3,631.5c71.3-5.5,138-37.3,187.2-89.2l-180.1-3.3c0,.9-9.8,43.4-7.1,92.5Z"/>
    <path class="st20" d="M298.8,344.6l-30-9.6-8-2-.6-.4c0,.5-.1,1,0,1.5v.8c-4.7,7.6-12.9,12.4-21.9,12.8-3.1.1-6.2,0-9.3-.3-10.1-1.1-17.6-6.3-23.1-14.9v-2.1l-19.3,3.5-40.9,11.8,11.3,151.7-3.8,7.8s-9.8,23.7-19.5,60c47.6,39.8,106.9,63.1,168.9,66.5-1.4-20-3.6-44.5-6-61.6-1.5-10.8-3.1-21.5-5-32.3-1.6-9.5-4.5-19-2.6-28.7,2.8-14.1,4.6-28.5,5.4-42.8,9.8-12.1,11.5-22.7,11.7-26,.5-12.8-2-28-2.7-31.2-7.1-32.2-4.3-64.2-4.3-64.2l-.3-.3Z"/>
    <path class="st24" d="M584.9,304.1c3-2.3,3.9-6.4,2.1-9.7-7.1-16,.9-1.7-11.1-14-11.4-11.6-25.2-20.5-40.5-26-15.3-5.1-31.6-6.4-47.5-3.8-16.3,2.2-33.2,3-49.7,1.2-16.9-1.8-32.2-4.3-48.2-9.8-3.4-1.2-14-4.6-14.7-1.1-.9,4,8.3,13.8,11.7,14.9,17.6,6,35.4,11.7,54,13,16.4,1.1,32.9.6,49.2-1.7,15-2.5,29.4,1.4,43.6,6.6,27.7,11,29.2.9,41.8,28.4,1.8,3.1,5.8,4.1,8.8,2.2,0,0,.3-.2.4-.3h0q0,.1,0,.1Z"/>
    <path class="st13" d="M404.7,199.8c-.2-1.6-.6-3.2-1.2-4.8-.8-1.9-2.1-3.6-3.8-4.8-1.5-1.2-3.4-1.8-5.4-1.7l.5.6c0-2.4-.2-4.8-.5-7.1,0-.9-.2-1.8-.4-2.7-.3.9-.3,1.8-.2,2.8,0,1.7.2,4.3.1,7v.6h.6c1.7,0,3.3.5,4.6,1.5,3.3,2.4,4.4,6.1,4.9,8.8s.7,4.4.9,4.3.2-1.8,0-4.5h-.1Z"/>
    <path class="st20" d="M269.2,425.7c-8.3-6.7,2.9-32-2.1-41.5-4.8-9.1-6.8-31.9-7.3-42.1,2.3-1.5,39.9-4.9,47.2-8.7,19.1-9.9,23.9-10.8,27.2-13.3,5.1-3.9,101.1-48.5,102.5-50.9l34.6,29.1s-74.1,25.8-101.1,60.2c-22.2,28.3-73.4,35.4-100.9,67.1h-.1q0,.1,0,0Z"/>
    <path class="st7" d="M382.8,219.8s2.5,25.4-2,35.5c-1.3,3-42.3,21.1-42.3,21.1l93.1,30.8,49.1-15.3s-27.7-9.3-29.5-12.8c-4.9-9.5-1.8-57.1-1.8-57.1"/>
    <path class="st7" d="M374.5,178.2s-5.2-10.1-8.8-10.1-7.4,5.8-7.3,11.3c0,7.4,5.2,15.8,6.5,20.1s1.1,10.5,6.8,10.4c2.3,0,5.1-4.8,5.1-4.8,0,0-1.1-20.2-2.2-26.9h-.1Z"/>
    <path d="M373,188.2c-1.3-2.8-2.8-5.5-4.6-8.1-.9-1.3-2-2.5-3.3-3.5-.5-.4-1.1-.7-1.8-.9-.4-.1-.8,0-1.1.1-.3.3-.6.6-.7,1-1.1,2.6-1.3,5.5-.5,8.2.1.6,1.6.2,1.5-.4-.6-2.1-.6-4.3-.1-6.4.1-.5.4-1.1.6-1.6,0-.1.2-.3.3-.4s.2-.2,0,0l-.9.3h.1s-.2,0,0,0h.4l.2.2c.2.1.5.3.7.4,1.7,1.4,3.2,3,4.3,4.9,1.3,2,2.5,4.2,3.5,6.4.3.6,1.7.1,1.5-.4h0v.2Z"/>
    <path d="M370.8,189.2c-.8,0-1.7.2-2.3.7-.4.5-.6,1.2-.6,1.8,0,1.6.6,3.3.4,4.9v.5h.9c0-.1-.3-.4-.3-.4-.2-.2-.3-.4-.4-.7-.5-1.2-.9-2.4-1.1-3.7-.4-1.6-.5-3.2-.4-4.8.2-1.7.6-4.5,2.3-5.3,1-.4,0-.7-.5-.4-1.9.8-2.7,2.7-3.1,4.6-.3,1.3-.4,2.5-.2,3.8.2,1.7.5,3.3,1,4.9.2.7.5,1.9,1.3,2.3.7.3,1.6,0,2-.6.3-.6.3-1.3.1-2-.1-1.1-.3-2.1-.4-3.1,0-.5,0-1,.1-1.4,0-.2.2-.3.2-.5s0,0,.1-.1-.3,0,0,0,.8,0,1.1-.3c.2-.2.2-.4-.1-.4h0v.2q-.1,0-.1,0Z"/>
    <path class="st7" d="M458.8,178.2s5.2-10.1,8.8-10.1,7.4,5.8,7.3,11.3c0,7.4-5.2,15.8-6.5,20.1s-1.1,10.5-6.8,10.4c-2.3,0-5.1-4.8-5.1-4.8,0,0,1-20.2,2.2-26.9h.1Z"/>
    <path d="M461.8,188.4c1.4-3.3,3.3-6.4,5.6-9.3.6-.7,1.2-1.3,1.9-1.8.2-.2.5-.3.7-.5.1,0,0,0,0,0h.1l.3-.2c.1,0-.2,0,0,0s.2,0,0,0c.1,0,.3,0,0,0h-.4c.5.5.8,1.2,1,2,.5,2.1.5,4.3,0,6.4-.1.6,1.4.4,1.5-.2.7-2.5.6-5.2-.3-7.7-.3-.7-.6-1.5-1.4-1.4-2.1.3-3.9,2.4-5.2,4-2,2.7-3.7,5.6-5.1,8.7-.3.7,1.2.5,1.4,0h-.1Z"/>
    <path d="M462.9,190.2c1.7,0,.9,3.1.8,4.1s-.8,3.9,1.1,3.8c.9,0,1.4-1,1.7-1.7.5-1.4.9-2.8,1.2-4.2.3-1.6.4-3.3.2-4.9-.3-2.1-1-4.5-3.1-5.5-.6-.3-1.7.6-.9,1,1.6.7,2.1,2.8,2.4,4.4.2,1.2.2,2.5,0,3.7-.2,1.5-.5,3-1,4.4-.1.5-.3.9-.6,1.4,0,0-.2.2-.2.3h.2c1.1.3.4,0,.4,0,0,0-.1-.5-.1-.7v-1.1c.1-.9.3-1.7.4-2.6.1-.8,0-1.7-.3-2.5-.4-.7-1.3-1.1-2.1-1-.9,0-1.1,1.2-.1,1.1h0Z"/>
    <path class="st7" d="M463.8,183c-.7,8-2.3,15.5-2.6,23.9-.3,8.4-1.1,19.4-2.4,22.6-.7,1.6-2.8,3-4,4.2-6.9,6.5-15.4,13.1-24.1,16.8-3.8,1.6-13.8,1.6-13.8,1.6,0,0-9.9,0-13.8-1.6-5.4-2.2-10.2-6.1-15-9.4s-10.5-7.2-13.5-12.1c-.9-1.5-.8-3.5-1-5.2-.6-5.6-.7-11.2-.9-16.8-.4-8.4-1.9-15.9-2.6-23.9s-1.6-41.4.7-47.8c2.3-6.4,30.5-23.6,46.2-23.6s28.2,8.4,38.2,15.7c4.3,3.1,7.3,5.9,8,7.8,2.3,6.4,1.4,39.8.7,47.8h-.1Z"/>
    <path class="st22" d="M419.8,203.9c-2.1.9-3.7.9-5.1-.3-.3-.3-1.4,0-1,.4,1.9,1.6,5.4,1.4,7.3,0,.2-.1.2-.3,0-.4s-1,.2-1.2.4"/>
    <path class="st22" d="M412.9,203c-1.4-.4-2.8-.5-4.2-.3-.2,0-.4.1-.6.3v.4c.7.3,1.5.3,2.3.1.3,0,.5-.2.6-.4,0-.2-.2-.3-.4-.3-.6.1-1.3.1-1.9-.1l-.5.7c1.3-.2,2.6,0,3.8.3.3,0,.5,0,.7-.2.1-.1.2-.4,0-.4"/>
    <path class="st22" d="M421.8,203.3c1.4-.4,2.8-.5,4.2-.4.2,0,.4.1.6.3v.3h0c-.7.3-1.5.3-2.3.1-.3,0-.5-.2-.6-.4,0-.2.2-.3.4-.3.6.1,1.3,0,1.9-.1l.5.7c-1.3-.1-2.5,0-3.8.3-.3,0-.5,0-.7-.2-.1-.1-.2-.4,0-.4"/>
    <path class="st22" d="M407.4,203.7c-1.5,0-2.9-.9-3.7-2.2-.9-2.1-.2-4.5,1.7-5.8.2-.1,0-.3-.1-.4-.3,0-.5,0-.7.2-1.6,1.1-2.4,3-2.3,4.9.3,1.7,1.5,3.1,3.2,3.6.5.2,1,.3,1.5.3s.6,0,.7-.3,0-.3-.3-.3"/>
    <path class="st22" d="M427.5,203.7c1.5,0,2.9-.9,3.7-2.2.9-2.1.2-4.5-1.7-5.8-.2-.1,0-.3.1-.4.3,0,.5,0,.7.2,1.6,1.1,2.4,3,2.3,4.9-.3,1.7-1.5,3.1-3.2,3.6-.5.2-1,.3-1.5.3s-.6,0-.7-.3,0-.3.3-.3"/>
    <path d="M394.2,174.2c-1.4-.6-2.9-.3-4,.7-.5.4-.9,1-1.1,1.7-.3,1.2,0,2.4.9,3.4,1,1,2.6,1.3,3.9.7,1.6-.8,2.4-2.7,1.9-4.4-.2-.9-.8-1.6-1.6-2"/>
    <path d="M441.1,174.2c1.4-.6,2.9-.3,4,.7.5.4.9,1,1.1,1.7.3,1.2,0,2.4-.9,3.4-1,1-2.6,1.3-3.9.7-1.6-.8-2.4-2.7-1.9-4.4.2-.9.8-1.6,1.6-2"/>
    <path d="M429.1,179.9s8.1-5.9,12.3-6.3c6.1-.6,13.6,2.6,15.7,5.3,0,0-9.9-4.6-14.2-4.1-4.1.5-13.8,5.1-13.8,5.1Z"/>
    <path d="M406.7,179.5s-8.1-5.9-12.3-6.3c-6.1-.6-13.6,2.6-15.7,5.3,0,0,9.9-4.6,14.2-4.1,4.1.5,13.8,5.1,13.8,5.1Z"/>
    <path d="M407.2,158.2v9.1c-3.2-.9-6.2-2.4-8.3-2.8-4.2-.8-8.4-2-12.7-1.3-2,.3-3.8.9-5.5,2-.5.4-2,1.9-2.8,1.5-.3-.2.2-1.9.3-2.1,1.1-3.6,4-5.1,7.5-5.9,7.1-1.7,14.3-1.5,21.5-.5"/>
    <path d="M428.8,158.2v8.6c3.2-.9,6-2.1,8-2.5,4.1-.8,8.4-1.7,12.6-1.1,1.9.3,3.8.9,5.4,2,.5.4,2,1.9,2.7,1.5.3-.2-.2-1.9-.3-2.1-1.1-3.6-3.9-5.1-7.4-5.9-7-1.7-14-1.5-21.2-.5"/>
    <path d="M373.6,224.1s1.8,3.6,4,5c6.4,4.2,18.8,10.2,22.5,13,3.5,2.7,5.4,3.1,5.4,3.1,3.9-1.1,7.8-1.8,11.8-2,3.9,0,7.7.7,11.3,2.2,0,0,20.9-13.3,27.4-16.6.5-.2,3.5-4,3.8-4,0,0,2.5,5.1-12,14.9-10,6.9-12.7,10.1-20.7,11.8s-19.1,1.1-24-1.2c-7.5-3.5-24.9-16.3-27.6-19.6-1.7-2.2-1.9-6.7-1.9-6.7h0q0,.1,0,.1Z"/>
    <path d="M410.6,229.7l14.9-.6c-.3.8-1.5,7-7.8,6.4-5.6-.6-4.4-3.3-7-5.8h-.1Z"/>
    <path class="st15" d="M418,214.4c-7.3,0-19.1-.8-19.1-.8,0,0,2.2,18,19.1,18s19.1-18,19.1-18c0,0-11.8.8-19.1.8Z"/>
    <path d="M418.1,214.4c-3.5,0-17.5-.6-17.5-.6,0,0,4.6,11.5,17.2,11.5s17.6-11.4,17.6-11.4l-17.3.5h0Z"/>
    <path class="st23" d="M418.3,214.9c-3.5,0-14-.6-14-.6,0,0,3.8,3.7,14.2,3.7s13.7-3.6,13.7-3.6l-13.9.5h0Z"/>
    <path class="st15" d="M437.9,212.6c-.4,0-2.4.6-4.1.4-2.9-.2-6.3-1-8.4-1.1-3.5-.3-5.8,1.1-7.4,1.1s-3.8-1.4-7.4-1.1c-2.1.1-5.5.9-8.4,1.1-1.7.1-3.7-.5-4.1-.4s.5,3.8,19.9,3.8,20.4-3.7,19.9-3.8Z"/>
    <path d="M415.6,207.1l-.5,3.4c0,.5-.5.9-1,.9-3.4.5-16.4,2.2-19.4,2.2h-.2l-1,.9c-1.1-.2.2-3.5,1.3-3.9,2.7-1.1,5.5-2.1,8.3-2.9,2.3-.5,8.6-2,11.4-1.9.6,0,1.2.5,1.2,1.1v.2h-.1,0Z"/>
    <path d="M418.9,207.1l1,3.4c.1.5.5.9,1,.9,3.4.4,16.4,2.1,19.5,2h.2l1-.2c1.1-.2.4-2.5-.8-2.9-2.9-1.1-5.9-2-8.9-2.7-2.3-.5-9-2-11.8-1.9-.6,0-1.2.5-1.2,1.1v.3h0Z"/>
    <path class="st4" d="M369.6,177.9l5.5-1.1.7,1.9c1.1,3.6,4.2,10.6,5.6,12.5,1.9,2.6,21.2,2.6,24.8.2,3.3-2.2,4.9-11.7,5.8-15.3,1.2-.4,4.4-1.5,6.2-1.4,2,.2,4,.5,5.9,1.1.9,3.2,2.4,13.4,5.9,15.7,3.6,2.4,22.9,2.5,24.8-.2,1.4-1.9,4.5-8.9,5.6-12.5l.7-1.9v-.9l5.7,1.2.4-1.6-5.4-1.9c.2-.6.4-1.1.7-1.6l-4.4-1.5c-10.2-4.6-24.9-2.4-33.7,2.7-2-.6-4-.9-6.1-.9s-4.3.4-6.4.9c-8.8-5.1-23.5-7.3-33.7-2.6l-4.4,1.5c.4.8.6,1.6.9,2.5l-5.5,1.9.4,1.6v-.3h0ZM425.8,175.5c8.6-4.9,25-6.3,34-1.6-1.9,5.6-4.3,11-7.2,16.2-1.2,1.7-18.1,2.4-21.8-.1-2.6-1.7-3.8-9.8-4.9-14.5h-.1ZM376.4,173.9c9.1-4.8,25.5-3.3,34,1.6-1.1,4.7-2.3,12.8-4.9,14.5-3.8,2.5-20.6,1.8-21.8.1-2.9-5.2-5.3-10.6-7.2-16.2h-.1Z"/>
    <path d="M463.8,183s-1-36.1-.9-41.9c.1-5.8-18.1-21.4-27.5-24.7-9.4-3.3,10.8-2.2,15.8-1.3s5.3,4,5.3,4c0,0,3.2.3,4.5,1.9l1.3,1.6s4,.9,4.2,2.8.7,5.9.7,5.9c0,0,3.2-1.1,3.2,3.6s.2,2.4.2,2.4c0,0,2.7,3,1.4,5.5-1.3,2.5-.9,2.2-.9,2.2.5.9.9,1.8,1.2,2.8.6,1.8,1.7,9-.3,13.3-1.2,2.7-1.8,5.6-1.9,8.6l-6.4,13.5v-.2q.1,0,0,0Z"/>
    <path d="M369.7,183s1-36.1.9-41.9c-.1-5.8,18.1-21.4,27.5-24.7,9.8-3.5-10.6-2.3-15.8-1.3-5,.9-5.3,4-5.3,4,0,0-3.2.3-4.5,1.9l-1.3,1.6s-4,.9-4.2,2.8-.7,5.9-.7,5.9c0,0-3.2-1.1-3.2,3.6s-.2,2.4-.2,2.4c0,0-2.7,3-1.4,5.5,1.3,2.5.9,2.2.9,2.2-.5.9-.9,1.8-1.2,2.8-.6,1.8-1.7,9,.3,13.3,1.2,2.7,1.8,5.6,1.9,8.6l6.4,13.5v-.2q-.1,0,0,0Z"/>
    <path d="M450.8,115.2s-6.4-3.5-8.4-3.3c-1.1,0-2.1.7-2.8,1.6,0,0-.7-2.5-3-2.2-1.1,0-2.2.3-3.3.6,0,0-1.6-2-2.7-2s-2.5,1.3-2.5,1.3c-.5-1-1.5-1.5-2.5-1.3-1.8.3-2.2,1.2-2.2,1.2-.6-1-1.7-1.5-2.8-1.2-1.1.3-2.1.7-3.1,1.4,0,0-1.9-2.2-3.1-1.5l-1.2.7s-1.3-1.9-2.4-.9c-.5.5-1.1,1-1.8,1.5,0,0-.5-.9-2-.6-.7,0-1.5.4-2.1.8-.9-.3-1.8-.4-2.7-.4-1.2,0-1.4,1.5-1.4,1.5-.4-1-1.5-1.6-2.5-1.3-.1,0-.2,0-.4.2l-2,1.1c-1.4.3-2.7.9-4,1.6-1.3.9-.7,3.7-.7,3.7l-8,8.1s12.7-9.3,33-9.3,24.6,3,35.6,8.7l-1-10h0Z"/>
    <path d="M429.1,115.9c1.1,0,2.2.4,3.2,1,.5.3.7.9.4,1.5-.1.3-.4.5-.7.5-1.1.3-2.8-.2-3.6.4s.8,1.8.3,2.6c-.3.5-1.3.7-2,1.1s-1,1.2-1.8,1.7c-.9.5-1.9.6-2.9.4-1-.3-1.6-1-1.6-1.7v-.5c-.4-.8-2.7,0-3.6-.6-.4-.3-.3-.7-.4-1.1-.2-.3-.5-.6-.8-.9l-2.2-1.8c-.3-.2-.5-.4-.7-.7-.2-.6.4-1.2,1.2-1.5.9-.3,1.8-.4,2.7-.4,3.7-.2,7.5-.2,11.2-.2"/>
    <path d="M404.1,115.2c-1.2,0-2.3.5-3.2,1.1-.6.4-.8,1.2-.4,1.8.2.2.4.4.6.5,1.1.4,2.8-.3,3.6.4s-.8,2-.3,3c.3.6,1.3.8,2,1.2s1,1.3,1.8,1.9c.9.6,2,.7,3,.4.9-.2,1.5-1,1.6-1.9v-.6c.4-.9,2.7,0,3.6-.6.4-.3.3-.8.4-1.3.2-.4.4-.7.8-1l2.2-2c.3-.2.5-.5.7-.8.2-.7-.4-1.4-1.2-1.8-.9-.3-1.8-.5-2.7-.5-3.7-.2-7.4-.3-11.2-.3"/>
    <path d="M410.6,117.4c-1.2,0-2.3.5-3.2,1.1-.6.4-.8,1.2-.4,1.8.2.2.4.4.6.5,1.1.4,2.8-.3,3.6.4s-.8,2-.3,3c.3.6,1.3.8,2,1.2s1,1.3,1.8,1.9c.9.6,1.9.7,2.9.4.9-.2,1.5-1,1.6-1.9v-.6c.4-.9,2.7,0,3.6-.6.4-.3.3-.8.4-1.3.2-.4.5-.7.8-1l2.2-2.1c.3-.2.5-.5.7-.8.2-.7-.4-1.4-1.2-1.8-.9-.3-1.8-.5-2.7-.5-3.7-.2-7.5-.3-11.2-.3"/>
    <path d="M441,211.6c1,.9,2,1.9,2.1,3.2,0,.5,0,1-.2,1.4l-.5,2.1c0,.1,0,.3-.2.4-.1.1-.3.2-.4.2-.5.2-1,.2-1.5.1-.5,0-.9-.5-1-1v-.6c-.2-.4-.7-.3-1.1-.4-1-.3-1.2-1.5-1.6-2.5-.7-1.2-1.8-2.1-3.2-2.5s-1.4-.4-2-.7-1-1-1.1-1.7"/>
    <path d="M394.7,212.3c-1,.9-2,1.9-2.1,3.2,0,.5,0,.9.2,1.4l.5,2.2c0,.1,0,.3.2.4.1.1.3.2.4.2.5.2,1,.2,1.5.1.5,0,.9-.5,1-1v-.6c.2-.4.7-.3,1.1-.4,1-.3,1.2-1.5,1.6-2.5.7-1.2,1.8-2.1,3.2-2.5s1.4-.4,2-.7,1-1,1.1-1.7"/>
    <path class="st7" d="M386.2,29.5c.8,0-5.6,28-8.5,31s-18.4,9.1-22.9,7.5-13.6,8.1-15.7,9.8l-24.8-19.1,8.2-10.4,8.8-26.9c1.3-4.3,3.8-8.2,7.2-11.1,3.7-3.2,8.5-6.2,11.1-3.9,4.8,4.3,4.1,6,4.1,6,0,0,7-2.9,6.8,3.3,0,0,8.7-2.6,9.6,5.2,0,0,9.2-1.8,7.5,9.3l-1.8,7.4s2.2-8.7,10.3-8.1h.1,0Z"/>
    <path class="st13" d="M350.9,53.3c1.3-1.1,2.8-2,4.5-2.5,5.5-2.2,11.5-2.8,17.2-1.6l-.6.3c1.2-3.4,1.9-6.4,2.6-8.6.3-1.2.8-2.3,1.4-3.3-.1,1.2-.4,2.3-.7,3.5-.6,2.9-1.3,5.9-2.2,8.7v.4c-.1,0-.6-.2-.6-.2-1.6-.3-3.2-.5-4.8-.5-4,0-8.1.5-11.9,1.9-3.1,1-4.8,2-4.8,1.8h-.1Z"/>
    <path class="st13" d="M343.8,16.8c.2.6.2,1.2.1,1.9,0,1.8-.5,3.6-1.6,5-.8.9-2.2,1.2-2.8,2-.6,1-.7,2.3-.1,3.4,1.3,2.6,4.4,3.6,7,2.3h.1c1.3-.9,2.2-2.1,2.8-3.6.6-1.4,1.1-2.8,1.6-4.1.8-2.4,1.6-4.8,2.1-7.2.5-1.6.7-3.3.5-4.9-.2-.6-.4-1.2-.6-1.7,0,0,.6.4,1,1.6.3,1.7.3,3.5-.1,5.2-.5,2.5-1.1,4.9-1.9,7.4-.5,1.4-1,2.9-1.6,4.2-.7,1.6-1.7,2.9-3.2,3.9-3,1.7-6.7.6-8.4-2.4h0c0-.1-.1-.3-.2-.4-.6-1.4-.5-3.1.4-4.3.4-.5,1-.9,1.6-1.2.5-.2.9-.5,1.3-.9,1.1-1.3,1.7-2.8,1.8-4.4,0-.6,0-1.2.2-1.8h0Z"/>
    <path class="st13" d="M346.2,31.9c0,.5.1.9.3,1.3.4,1.1,1.2,2,2.3,2.6,1.6.7,3.4.6,4.9-.3,1.9-1.1,3.3-2.8,4.2-4.8,1.8-3.7,2.7-7.7,2.7-11.8s-.1-3.5-.4-5.2c.7,1.6,1.1,3.3,1.1,5.1.3,4.2-.6,8.5-2.4,12.3-1,2.2-2.6,4.1-4.7,5.3-1.8,1.1-4,1.1-5.8.2-1.2-.6-2-1.8-2.4-3.1,0-1,.2-1.5.3-1.5,0,0-.1-.1-.1-.1Z"/>
    <path class="st13" d="M354.9,35.8c.1.4.3.8.5,1.1.5,1,1.3,1.7,2.3,2.2,1.4.8,3.1.9,4.5.3,1.8-.7,3.4-2,4.4-3.7,2.2-3.7,2.2-7.8,2.7-10.6.1-1.6.5-3.1,1-4.6.1,1.6,0,3.1-.2,4.7-.1,1.5-.2,3.1-.6,5.1-.3,2.1-.9,4.1-2,6s-2.9,3.4-5,4.1c-1.8.6-3.7.3-5.2-.6-1.1-.6-1.9-1.6-2.3-2.7-.3-.8-.2-1.3,0-1.3h-.1,0Z"/>
    <path class="st13" d="M365.4,38.8v1.4c-.1,1.2,0,2.4.3,3.6.5,1.7,1.9,2.9,3.6,3.2,2.1,0,3.9-1.7,4.4-3.7,1.4-3.9,2.4-7.9,3.2-12,.2-1.7.5-3.4.9-5.1.2,1.7.2,3.5-.1,5.2-.5,4.2-1.5,8.3-2.9,12.3-.6,2.6-2.9,4.4-5.5,4.4-2.1-.3-3.8-1.9-4.3-3.9-.3-1.3-.3-2.6,0-3.9,0-.5.2-.9.5-1.4,0,0-.1,0-.1,0Z"/>
    <path class="st2" d="M513.3,377.9c4.1-27.9-6.2-84.9-6.2-84.9l-41.1-11.5-14.2-5.5c-25.9,9.7-57.4.9-69.4-25.8-.2-.4-.3-.8-.3-1.2l-22.2-8.6s-26.3-9.9-38.3-19.7-23.9-44.6-23.9-44.6l47.5-98.7-32.8-24.1s-96.6,116.6-91.2,138.5c5.4,21.9,79.7,127.4,79.7,127.4l21.8,86.5,23,77.7s-9.9,4.4-4.4,19.7c5.5,15.3,12.5,22,5.5,25.2-11.4,5.2-3.9,14.3-3.9,14.3l102,12.9c8.1,1,45.4-3,65.9-5.6,7.6-1,14.7-4.5,20-10.1h0s-21.7-134.4-17.6-161.8h0Z"/>
    <g id="freepik--Character--inject-2">
      <path class="st2" d="M555.7,460.8c7.2,1.9,13.1,2.5,19.7-1.4,1.2-.6,2.4-1.3,3.6-2.1,2.2-1.9,4-4.3,5.2-6.9,17.3-40.2,32-118.9,32-118.9l-32.8-13.5-36.8,79.2c0,.1,0,.3,0,.4,1.3,6.2,2,12.5,2,18.9.2,5.6.2,11.1.8,16.7.6,5.9,2.1,11.7,4.3,17.2,1.2,3,.6,7.6,2,10.5h0Z"/>
      <path class="st2" d="M555.7,460.8c-.3-2.5,3.6-3.1,3.4-5.7-1.1-12.7-1.1-25.7,2.8-37.9,3.4-10.6,8.5-20.5,10.6-31.5l-46.1-80.4c-3.3-5.7-8.7-9.7-15-11.3l-8.8-2.2c-2,23.9-7.8,47.4-8.1,71.4-.2,14.3,2.1,28.5,5.4,42.3,3.1,13.1,7.3,25.8,12.7,38.1l-2.1-28.9c10.6,16.4,25.5,40,45.1,45.9v.2Z"/>
      <path class="st8" d="M561.8,263.5c-19.3-8.3-65.4,9-87,8.9-20.8,0-27.3,2-47.8-2-15.2-3-38.3-14.2-51.3-30.4l-6.5,11.2c3.7,12.8,13,18.6,23.9,25.1,11.4,6.6,42.4,15.5,76.9,15.6,30.4.1,60.6-19.6,84-9.9"/>
      <path class="st7" d="M611.1,302.2c1.6-4.3,2.9-8.7,4-13.1l-9.2-25-17.7,26s6.6,22.3,7.3,23.2c0,0,15.1-10.9,15.6-11.1h0Z"/>
      <path class="st9" d="M551.1,243.4h0c18.9-9.3,41.8-1.6,51.2,17.3,9.4,18.9,1.6,41.8-17.3,51.2-18.9,9.4-41.8,1.6-51.2-17.3h0c-9.3-18.9-1.6-41.8,17.3-51.2h0Z"/>
      <path class="st14" d="M551.1,243.4h0c18.9-9.3,41.8-1.6,51.2,17.3,9.4,18.9,1.6,41.8-17.3,51.2-18.9,9.4-41.8,1.6-51.2-17.3h0c-9.3-18.9-1.6-41.8,17.3-51.2h0Z"/>
      <path class="st10" d="M548.6,239.1h0c18.9-9.3,41.8-1.6,51.2,17.3,9.3,18.9,1.6,41.8-17.3,51.2-18.9,9.3-41.8,1.6-51.2-17.3h0c-9.3-18.9-1.6-41.8,17.3-51.2h0Z"/>
      <path class="st4" d="M537.2,280.6c-2.6-11.4,1.7-23.2,11-30.3,4.3-3.2,9.4-5.3,14.7-5.9,2.9-.4,5.8-.3,8.7.2,3,.5,5.8,1.5,8.5,2.9,14.8,7.6,20.7,25.7,13.1,40.5-1.3,2.6-3.1,5-5.1,7.2-.8.8-1.6,1.6-2.5,2.3-12.6,10.6-31.4,8.9-42-3.7h0c-1.6-1.9-2.9-4-3.8-6.2,1.3,2,2.7,4,4.2,5.9.6.6,1.1,1.2,1.8,1.8,11.6,11.1,30,10.8,41.2-.9,3.9-4.1,6.5-9.3,7.5-14.9,2.2-12.3-3.9-24.6-15-30.4-2.5-1.4-5.3-2.3-8.2-2.8-2.7-.5-5.5-.6-8.2-.3-9.7,1.1-18.3,7-22.7,15.7-2.9,5.9-3.9,12.6-2.6,19,.6,2.3,1.3,4.6,2.1,6.9-1.3-2.2-2.1-4.5-2.6-7h-.1Z"/>
      <g class="st16">
        <path d="M561.6,261.9l10.8,24.1-5.6,2.5-8.8-19.6-4.8,2.2-2-4.5,10.4-4.7h0Z"/>
      </g>
      <path class="st7" d="M586.6,319.2l25.8,10.8,13.6-25.8s8.8-15.9,7.9-19.2c-.6-2-1.6-3.9-2.9-5.6,0,0,3.5-3.8,1.4-7.1-1.8-2.3-4.2-3.9-7-4.8,0,0-.6-7.6-3.2-8.9s-32.5-4.9-32.5-4.9c0,0-2.9,6.1,1.6,7.4l-5.3,1.2v.6c-.3,2.9,1.8,5.4,4.7,5.7l-6.5,2.3s1.6,6.1,5.8,7.1l-6.1,1.7c.3,3.5,2.3,6.6,5.3,8.3,5,2.5,16-.3,16-.3l6,6.9s-15.5,12.1-19,16.9-5.6,7.8-5.6,7.8h0Z"/>
      <path class="st13" d="M589.5,277.8c4.2-1.6,8.6-2.8,13-3.5,2.5-.3,5-.2,7.5.3,2,.5,3.9,1.1,5.8,1.8,3.2,1.2,5.2,1.5,5.2,1.7s-2.2.2-5.5-.8c-1.8-.5-3.6-1-5.8-1.5-2.3-.4-4.7-.5-7-.1-4.3.7-8.6,1.8-12.8,3.1-1.8.6-3.6.9-5.5.9,1.6-.8,3.3-1.4,5.1-1.9Z"/>
      <path class="st13" d="M611.5,294.5v1.2c-1.3-1-2.3-2-3.3-3.1-1.4-1.5-2.7-3.2-3.8-4.9l.9.2c-2.3,1-4.8,1.5-7.3,1.4-1.8,0-2.8-.2-2.8-.4s1-.2,2.8-.5c2.3-.2,4.5-.9,6.6-1.8l.5-.3.3.5c1.2,1.7,2.4,3.2,3.8,4.7,1,1,2.1,2.2,3.1,3.1l.8.7-.9.5c-5.7,3.1-9.4,6.6-9.6,6.3,2.3-3.2,5.4-5.8,8.9-7.6h0Z"/>
      <path class="st13" d="M613.5,268.4l-5.5-1c-1-.3-2.1-.4-3.1-.4s-2.3,0-3.4.3c-4.7.7-9,2-12.1,2.7-1.6.6-3.4.9-5.1.9,1.5-.8,3.1-1.5,4.8-1.9,4-1.4,8-2.5,12.2-3.2,1.2-.2,2.4-.3,3.7-.2,1.1,0,2.3.3,3.4.6l5.5,1.3c1.7.3,3.3.7,4.9,1.5-1.7.1-3.4,0-5.1-.4l-.2-.2h0Z"/>
      <path class="st13" d="M613.9,261.4l-5.2-.6-3.1-.4-1.6-.2h-.8c0-.1-.7-.1-.7-.1-4.4.5-8.5,1.3-11.5,1.8-1.6.4-3.2.5-4.9.5,1.5-.8,3-1.3,4.7-1.5,3.8-1,7.7-1.7,11.6-2.2h1.8c0,.1,1.6.4,1.6.4l3.1.5,5.2.9c3,.6,4.8,1.1,4.8,1.3-1.6.2-3.3,0-4.9-.2v-.2q0,0,0,0Z"/>
    </g>
    <path class="st14" d="M571.4,275.6h-.3c0,0-.2-.2-.2-.3l-.4-2.5-2,.7h-.4c0,0-.2-.2-.2-.3l-.2-.7v-.4c0-.1.2-.2.3-.2l2.2-.7-.7-3.7-2.2.7h-.4c0,0-.2-.2-.2-.3l-.2-.7c0-.2,0-.5.2-.6h0l2.5-.8-.4-2.5v-.3c0-.1,0-.2.3-.2l.7-.2h.3c0,0,.2.2.2.3l.5,2.5,3-1-.5-2.5v-.3c0-.1,0-.2.2-.2l.7-.2h.3c0,0,.2.2.2.3l.4,2.5,1.9-.6h.4c0,0,.2.2.2.3l.2.7v.4c0,.1-.2.2-.3.2l-2.2.7.7,3.7,2.2-.7h.4c0,0,.2.2.2.3l.2.7v.4c0,.1-.2.2-.3.2l-2.4.8.5,2.5c0,.2,0,.5-.3.6h0l-.7.2h-.3c0,0-.2-.2-.2-.3l-.4-2.5-2.9,1,.4,2.5c0,.2,0,.5-.3.6h0l-.8.2v-.3q0,0,0,0ZM571.7,270.6l2.9-1-.7-3.7-2.9,1,.6,3.7h.1Z"/>
    <path class="st7" d="M260.4,330.1c-.5-1.7.8-19.8.8-19.8l-26.9,3-26.6-5.3s-.3,20-.9,21.7c-.6,1.7-16.4,4.7-16.4,4.7,0,0,7.4,18,42.1,19.5s44.5-15.7,44.5-15.7c0,0-16.1-6.3-16.6-8h0Z"/>
    <path class="st13" d="M207.8,309c.4.3,3.3,4.6,3.8,4.9,10.6,8.3,12.2,10.5,21.6,11.2,9.5,0,13.6-1.1,24.3-10.2,3.6-3.1,2.9-4.2,3.6-4.7-17-.8-36.2-.6-53.3-1.3h0Z"/>
    <path class="st7" d="M192.8,254.8s-4.8-8.1-7.7-7.9c-1.8.1,2.1,4.3,2.4,8.8.4,6.1-4.1,6.7-2.8,10.1s2.6,15.5,7.3,15.2c1.9-.1,3.9-4.2,3.9-4.2,0,0-1.8-16.6-3.1-22h0Z"/>
    <path class="st5" d="M190.3,276.9c-2.1,0-3.9,1.6-4.3,3.7-.1.9.1,1.9.7,2.7.4.6,1,1,1.7,1.3,1.4.5,3,.4,4.3-.5.2-.1.4-.5.1-.7-.3-.1-.7-.1-1,.1-.8.4-1.7.5-2.5.1-.2,0-.5-.2-.7-.4h-.2c0-.1-.2-.4-.2-.4-.9-1.2-.9-2.8,0-4,.2-.3.5-.5.8-.7.1,0,.2-.1.3-.1h.7c.3,0,.8-.2.8-.5s-.4-.4-.6-.4h0v-.2Z"/>
    <path class="st7" d="M278.3,258.3s4.7-8.2,7.6-8c1.8,0-2.1,4.3-2.3,8.8-.3,6.1,4.2,6.6,3,10.1s-2.3,15.5-7.1,15.3c-1.9,0-4-4.1-4-4.1,0,0,1.6-16.6,2.8-22.1h0Z"/>
    <path class="st7" d="M284.4,263.5h0c-1.3,5.2-2.8,10.7-4,17.1-3.1,16.7-8.4,24.2-20.1,31.1-12.3,7.3-16,10.1-26.4,10.1-10.3-.8-13.8-4-25.4-12.3-11.1-7.9-15.8-15.9-17.4-32.8-.4-3.8-.9-7.3-1.4-10.6-.4-2.5-.8-4.8-1.1-7.1h0c-1.3-8.6-1.9-16.4.7-25.7,2.8-9.6,11.3-21.3,23.9-28.4h0c7.9-4.5,16.9-6.7,26-6.3,26.5,1.2,43.7,23.3,46.7,38.9,1.9,9.7.5,17.5-1.6,26.1h.1Z"/>
    <path d="M239,283.3c-1.6.8-3.5.6-4.9-.5-.3-.2-1.3,0-.9.3,2,1.4,4.5,1.6,6.6.5.2-.1.2-.3,0-.4-.3-.1-.5-.1-.8,0"/>
    <path d="M232.5,282.7c-1.1-.6-2.3-.9-3.6-1-.2,0-.4,0-.6.1-.1,0-.1.2,0,.3.6.4,1.3.5,2,.5s.5,0,.6-.2,0-.3-.2-.3c-.6,0-1.1-.2-1.6-.4l-.6.4c1.1.1,2.2.5,3.2,1h.7c.1,0,.3-.2,0-.4"/>
    <path d="M227.6,282.6c-1.3,0-2.5-.8-3.2-1.9-.7-1.7,0-3.7,1.7-4.6.2-.1,0-.3,0-.3-.2,0-.5,0-.7.1-1.4.8-2.2,2.3-2.2,3.9.2,1.5,1.3,2.6,2.7,3,.4.2.9.2,1.4.3.2,0,.5,0,.6-.2s0-.2-.2-.3"/>
    <path d="M240.5,283c1.2-.5,2.4-.7,3.6-.7s.4,0,.5.2c.1.1.1.2,0,.3-.6.3-1.3.4-2,.4s-.4,0-.6-.3c-.1-.2.1-.3.3-.3.6,0,1.1,0,1.6-.3l.5.5c-1.1,0-2.2.3-3.2.7-.2,0-.5,0-.6-.1-.1,0-.3-.3,0-.4"/>
    <path d="M245.3,283.4c1.3,0,2.6-.6,3.3-1.6.9-1.7.3-3.7-1.3-4.7-.2-.1,0-.3.1-.3.2,0,.5,0,.6.2,1.3.9,2,2.4,1.8,4-.3,1.4-1.5,2.5-2.9,2.7-.4.1-.9.2-1.4.2s-.5,0-.6-.3,0-.2.3-.2"/>
    <path class="st3" d="M249.7,246.3c0,.9,0,1.9-.1,2.9v2.2c2.7-.5,5-.8,6.7-1,3.6-.4,5.5-.6,7.6-.2,1.6.3,3.2.9,4.8,1.6.9.4,1.7.8,2.5,1.3,1.7,1.3,2.4,2.6,2.7,2.5s-.1-1.3-.2-1.4c-.7-2-2-3.7-3.6-5-1.5-1-3.1-1.8-4.8-2.3-2.1-.6-7.8-1.1-15.5-.6"/>
    <path class="st3" d="M258.4,258.3c1.6-.7,3.5,0,4.2,1.7.5,1.2.2,2.6-.7,3.5-.9.9-2.3,1.1-3.5.5-1.4-.8-2-2.4-1.5-3.9.2-.7.8-1.4,1.5-1.7"/>
    <path class="st3" d="M248.5,262.3s6.8-4.5,10.1-4.6c4.9-.2,10.8,2.5,12.5,4.8,0,0-7.8-4.1-11.2-3.8-3.3.2-11.3,3.6-11.3,3.6h-.1,0Z"/>
    <path class="st3" d="M226.2,245.4c0,1,0,1.9-.1,2.9v2.2c-2.7-.7-5-1.2-6.7-1.6-3.6-.7-5.4-1.1-7.6-.9-1.7.2-3.3.6-4.9,1.2-.9.3-1.8.6-2.6,1.1-1.9,1.1-2.6,2.4-2.9,2.3s.2-1.3.3-1.4c.9-1.9,2.3-3.5,4-4.7,1.5-.9,3.2-1.5,5-1.8,2.1-.4,7.9-.5,15.5.7"/>
    <path class="st3" d="M216.5,256.5c-1.2-.6-2.6-.4-3.5.5-.5.4-.8.9-1,1.4-.3,1,0,2.2.6,3,.9,1,2.2,1.3,3.4.8,1.4-.7,2.2-2.3,1.8-3.8-.2-.8-.6-1.4-1.3-1.9"/>
    <path class="st3" d="M226,261.5s-6.3-5.1-9.7-5.5c-4.9-.7-11,1.6-12.8,3.7,0,0,8.1-3.4,11.5-2.8s10.9,4.6,10.9,4.6h.1Z"/>
    <path class="st1" d="M182.5,214.6c16-6.1,33.3-7.8,50.1-4.9,27.8,4.8,40.5,23,44.6,35.8,2.6,8.3,3.9,16.8,4.1,25.5,0,0,6.7,3.8,12.8-21.6,8.9-37-30.5-71.7-39.5-72.1s-57.3-3.9-72.1,37.3h0Z"/>
    <path class="st1" d="M188,203.9s-3.4-29.6,17.1-34.2,63.6-12.6,74.9,14.8l-92,19.5h0q0-.1,0-.1Z"/>
    <path class="st19" d="M184.3,264.3c-2-2.2-3.4-4.9-4.1-7.8-1.9-8-5.1-24.6-1.2-31.7,1.7-3.1,2.8-12.5,3-15.3,1.4-14.5-2.2-10.2,19-25.9s24.5-10.9,55.1-7.6c30.6,3.3,39,13.6,35.4,42.3,0,0-40.8-13.7-60.8-4s-42.4,42.7-41.5,55c0,.4-2.7-2.5-4.9-5Z"/>
    <path class="st1" d="M177.3,239.3s33-38.6,69.5-37.3c0,0-46.5-8.1-68.7,24.7l-.8,12.6Z"/>
    <path class="st1" d="M291.8,204.9s-35.5-14.7-49.3-16.4,43.7,3,49,9.5l.3,6.9Z"/>
    <ellipse class="st12" cx="235.9" cy="295.4" rx="2.6" ry="12.2" transform="translate(-69.5 518.2) rotate(-87.5)"/>
    <path class="st5" d="M281.4,282.3c1.5,0,2.8,1.2,3.1,2.8.1.7,0,1.5-.4,2.1,0,.2-.2.3-.3.5,0,0-.3.2-.1.1h-.2c-.1.2.1.1,0,.1h-.3c0,.1-.3.2-.3.2-.1,0,.1,0,0,0h-.2c-.2.1-.4.1-.6.2-.6,0-1.2-.1-1.7-.5-.3-.1-.7-.1-1,.1-.2.2-.4.5,0,.7,1.2.7,2.5.8,3.8.4.7-.2,1.4-.6,1.9-1.1,1.3-1.5,1.4-3.7,0-5.2-.8-.9-1.9-1.4-3.1-1.4s-.7.1-.9.4c-.2.3.1.5.4.5h-.1q0,.1,0,0Z"/>
    <path class="st15" d="M236.3,292.9c-7-.3-18.3-1.6-18.3-1.6,0,0,1.5,16.5,17.7,17.2s18.9-15.6,18.9-15.6c0,0-11.3.3-18.3,0h0Z"/>
    <path d="M236.4,292.9c-3.3-.1-16.7-1.3-16.7-1.3,2.9,6.4,9.1,10.6,16.1,10.8,13,.6,17.1-9.3,17.1-9.3l-16.6-.3h.1q0,.1,0,0Z"/>
    <path class="st23" d="M236.5,293.3c-3.3-.1-13.4-1.1-13.4-1.1,0,0,3.5,3.7,13.5,4.1s13.3-2.9,13.3-2.9h-13.4q0-.1,0-.1Z"/>
    <path class="st15" d="M255.4,291.9c-1.3.2-2.7.3-4,.2-2.7-.4-6-1.2-8-1.4-3.4-.4-5.6.8-7.1.8s-3.6-1.5-7-1.4c-2,0-5.4.6-8.1.7-1.3,0-2.6-.3-3.9-.6-.5,0,.3,3.6,18.9,4.4s19.7-2.6,19.2-2.8h0q0,.1,0,0Z"/>
    <path class="st20" d="M154.3,402.5s-9.8,26.3-7.2,38.9,18.1,28.1,18.1,28.1c0,0,5.3-53.1-11-67.1h.1q0,.1,0,.1Z"/>
    <path class="st7" d="M96.2,226.5l-2.2-16.1s4.2-20.4,3.5-23.2-2.1-16.6-2.1-16.6l-14.8-14.8c-2,0-3.8,1.3-4.5,3.1,0,0-6.3-.2-7.5,4.2-1.8-.9-4,0-4.8,1.7h0c-.2.5-.3,1-.3,1.5-.2,1.3-.3,2.7-.2,4.1-.9.3-6,1.8-6,4.4.4,4,1.3,7.9,2.9,11.6.6,1.3,1.9,2.3,3.3,2.5h0l2,7s2,11.6,5,16.9l2.1,3.1,1.5,15.8c7.7.4,15.4-1.4,22.1-5.3h0Z"/>
    <path class="st13" d="M81.9,161.4c0,.4,0,.8-.2,1.1-.3,1-.6,1.9-1,2.9-.2.6-.4,1.3-.7,2-.3.8-.7,1.5-1.2,2.1-.6.7-1.3,1.3-2.1,1.7-.9.5-2,.6-2.9.3-.5-.2-.9-.6-1.2-1.1-.2-.5-.2-1,0-1.5,0-.9.2-1.8.5-2.7.4-1.5.9-2.9,1.5-4.3.5-1.2,1-2,1.4-2.7.2-.3.4-.6.6-.9,0,.3-.3.7-.4,1-.3.6-.8,1.6-1.2,2.8-.6,1.4-1,2.8-1.4,4.2-.2.9-.3,1.7-.4,2.6v1.3c.2.4.5.7.9.8.9.3,1.8.2,2.6-.2.8-.4,1.5-.9,2-1.6.5-.6.9-1.3,1.2-2,.3-.7.5-1.4.8-2,.5-1.2.9-2.1,1.1-2.8s.3-1,.3-1h-.1Z"/>
    <path class="st13" d="M73.9,171.4v1.2c0,1.1-.2,2.2-.7,3.3-.7,1.6-1.7,2.9-3,4-.8.7-1.8.9-2.9.8-.6,0-1.1-.4-1.5-.8-.4-.4-.6-1-.6-1.6,0-1.1,0-2.1.4-3.2.2-1,.4-2,.6-2.8.4-1.8.8-3.4,1.2-4.8s.6-2.5.7-3.2c0-.4.2-.8.3-1.2v1.2c0,1.1-.3,2.2-.6,3.3-.3,1.4-.7,3-1.1,4.8-.2.9-.4,1.8-.6,2.8s-.3,2-.3,3,.2.9.5,1.3c.3.3.7.6,1.2.6.9.1,1.8-.1,2.6-.7,1.3-1,2.3-2.3,3-3.7.4-1,.7-2,.8-3.1v-1.2h0Z"/>
    <path class="st13" d="M71,179.1c0,.1,0,.2.2.4,0,.3.2.7.3,1,.3,1.3.4,2.6.2,3.9,0,2-.9,3.9-2.2,5.4-.8.9-1.9,1.4-3.2,1.5-.7,0-1.3-.2-1.8-.7s-.8-1.1-.9-1.8c-.3-2.4-.4-4.8-.3-7.2l.2-5.8v-5.3,1.5c0,.9.2,2.3.2,3.9v5.8c0,2.4,0,4.7.3,7.1,0,.6.3,1.1.7,1.6.4.4,1,.6,1.5.6,1.1-.1,2.1-.6,2.8-1.4,1.3-1.4,2.1-3.2,2.2-5.1.2-1.8,0-3.5-.3-5.2,0,0,0-.2.1-.2Z"/>
    <path class="st0" d="M175.6,99.9l-.5-1-.6,1c-.5.8-1.2,1.4-2,1.8l-1,.5,1,.6c.8.5,1.4,1.2,1.8,2l.5,1,.6-.9c.5-.8,1.2-1.4,2-1.8l1-.5-.9-.6c-.8-.5-1.4-1.2-1.8-2.1h-.1Z"/>
    <path class="st0" d="M206.1,91.5l-.3-.6-.3.5c-.3.4-.7.8-1.1,1l-.6.3.6.3c.4.3.8.7,1,1.1l.3.6.3-.6c.3-.4.7-.8,1.1-1l.6-.3-.5-.3c-.4-.3-.8-.7-1-1.1h-.1Z"/>
    <path class="st0" d="M50.7,109.9l-.5-1-.6,1c-.5.8-1.2,1.4-2,1.8l-1,.5,1,.6c.8.5,1.4,1.2,1.8,2l.5,1,.6-1c.5-.8,1.2-1.4,2-1.8l1-.5-1-.6c-.8-.5-1.4-1.2-1.8-2Z"/>
    <path class="st0" d="M55.9,72.1l-.8-1.7-1,1.6c-.8,1.3-1.9,2.3-3.3,3l-1.7.8,1.6,1c1.3.8,2.3,1.9,3,3.3l.8,1.7,1-1.6c.8-1.3,1.9-2.3,3.3-3l1.7-.7-1.6-1c-1.3-.8-2.3-2-3-3.4Z"/>
    <path class="st0" d="M146.1,66.8l-1.1-1.5-.6,1.8c-.5,1.4-1.4,2.7-2.6,3.6l-1.5,1.1,1.8.7c1.4.5,2.7,1.4,3.6,2.6l1.1,1.5.6-1.8c.5-1.4,1.4-2.7,2.6-3.6l1.5-1.1-1.8-.7c-1.4-.5-2.7-1.4-3.6-2.6Z"/>
    <path class="st0" d="M146.9,211l.4-1.6-1.6.5c-1.3.4-2.6.4-3.9,0l-1.6-.4.5,1.6c.4,1.3.4,2.7,0,4l-.5,1.6,1.6-.5c1.2-.3,2.5-.3,3.8,0l1.6.5-.5-1.6c-.4-1.3-.4-2.7,0-4h.2Z"/>
    <path class="st20" d="M99.8,212.7l4.9,88.4,84.6,33.6c-.7,3.4-21.5,18.3-22.2,21.6-3.3,14.7-7.3,29.3-14.2,42.7-1.5,3-.5,16.7-2.3,19.4-1-5.9-4.4-20.7-4.4-20.7-27.1-21.6-52.4-45.4-75.7-71.1-10.5-11.7-2.8-106.8-3.9-108.1s33.1-5.8,33.1-5.8h0,0Z"/>
    <path class="st10" d="M170.6,152.4c3,3.2,6.1,6.3,9.1,9.7,2.7,2.8,3.9,6.7,3.4,10.5-.7,3.9-2.9,7.4-6.2,9.6-10,7.8-22.4,14.4-35.4,13.6-8.8-.7-17.1-4.8-23-11.5-2.5-2.6,1.6-6.4,4.1-3.8,4.5,5.1,10.5,8.5,17.2,9.6,5.7.7,11.5-.1,16.8-2.3,5.1-2,9.9-4.7,14.3-7.9,2.4-1.4,4.4-3.2,6-5.4,1.5-2.8,1-6.2-1.2-8.5-3-3.3-6.1-6.5-9.1-9.7-1-1.2-.8-2.9.4-3.9,1.1-.9,2.7-.8,3.7.1h-.1q0-.1,0-.1Z"/>
    <path class="st10" d="M109.2,94.2c-2.8-3-5.7-6.1-8.6-9.1-1.5-1.9-3.9-3-6.3-3-3.3.2-5.2,2.6-7.2,4.9-7.1,8.2-13.4,18.4-13.5,29.5,0,7.5,3.1,14.6,8.4,19.9,2.4,2.6-1.7,6.5-4.1,3.9-5.5-5.7-9-13.1-9.8-21-.4-6.9,1.1-13.7,4.1-19.8,2.8-5.7,6.2-11,10.4-15.7,2.1-3,5-5.2,8.3-6.6,4-1.2,8.4-.4,11.7,2.2,3.8,3.4,7.4,7.2,10.7,11.1.9,1.3.5,3-.8,3.9-1,.7-2.3.6-3.3,0h0s0,0,0,0Z"/>
    <path class="st10" d="M73.8,174.9l6,4h0v.2h.3l3.7,6.4s-9.7,10.4-13.5,21.3l-9.3-9.9-.2-.3-9.3-9.9c11.2-2.9,22.3-11.8,22.3-11.8Z"/>
    <rect class="st10" x="76.7" y="163" width="9.3" height="29.3" rx="4.6" ry="4.6" transform="translate(-99.4 103.5) rotate(-43.1)"/>
    <path class="st10" d="M118.8,78.2l32.2,34.4,1.7,1.8,30.4,32.5c-.5.9-64.9,67.5-99.3,28.5h0c-36.7-36.9,34.2-96.8,35-97.2h0Z"/>
    <path class="st10" d="M73.7,204.7l-20.6-22c-5.4-5.8-14.4-6.1-20.1-.7h-.2c0,.1,40.1,43.1,40.1,43.1h.2c5.8-5.5,6.1-14.6.7-20.3h0q0-.1,0,0Z"/>
    <rect class="st21" x="23.6" y="179.4" width="35.2" height="73" transform="translate(-136.4 86.4) rotate(-43.1)"/>
    <rect class="st14" x="33.1" y="189.7" width="17.2" height="51.7" transform="translate(-136 86.6) rotate(-43.1)"/>
    <path class="st4" d="M70.3,172.8s3.2,3.6,7.2,7.8,7.3,7.7,7.3,7.7c0,0-3.2-3.5-7.2-7.8s-7.3-7.7-7.3-7.7Z"/>
    <path class="st4" d="M76.8,166.1s3.4,3.8,7.7,8.4c4.3,4.6,7.9,8.4,7.9,8.3s-3.4-3.8-7.7-8.4c-4.3-4.6-7.8-8.3-7.9-8.3Z"/>
    <path class="st4" d="M53.4,182.7s4.3,4.7,9.6,10.5c5.3,5.8,9.8,10.2,9.8,10.2,0,0-4.2-4.7-9.6-10.5s-9.8-10.3-9.8-10.2Z"/>
    <path class="st18" d="M118.8,78.2v.2l.3.6,1.3,2.5.9,1.8,1.2,2.1c.8,1.5,1.7,3.2,2.9,5,.6.9,1.2,1.9,1.8,2.9s1.3,2.1,1.9,3.1l1.1,1.6c.2.3.4.6.5.8l.6.8,2.4,3.4c3.7,5,7.6,9.8,11.7,14.3,4.2,4.5,8.6,8.8,13.3,12.9l3.2,2.7.8.6.8.6,1.6,1.1c1,.8,2,1.6,2.9,2.1l2.8,2c1.7,1.3,3.4,2.3,4.8,3.3l2,1.3,1.7,1,2.4,1.4.6.4h.2c0,.1-.2,0-.2,0l-.6-.4-2.3-1.5-1.7-1.1c-.6-.4-1.3-.9-2-1.3-1.4-1-3.1-2-4.8-3.3l-2.7-2c-.9-.7-2-1.5-2.9-2.1l-1.5-1.2-.8-.6-.8-.7-3.2-2.7c-4.6-4-9-8.3-13.2-12.8-4.2-4.6-8.1-9.3-11.7-14.3l-2.3-3.3-.6-.8-.5-.8-1.1-1.6c-.7-1.1-1.4-2.1-1.9-3.1l-1.7-2.9c-1.1-1.8-2.1-3.5-2.9-5-.4-.8-.8-1.4-1.2-2.1l-.9-1.8-1.3-2.4-.3-.7-.2-.2s-.4.2-.4.2Z"/>
    <polygon class="st14" points="133.2 128 119.4 132.2 108.1 123.1 107.8 137.6 95.7 145.6 109.4 150.3 113.2 164.3 121.9 152.7 136.4 153.4 128.1 141.6 133.2 128"/>
    <path class="st18" d="M118.8,78.2l-.2.2-.6.5c-.5.4-1.3,1.1-2.3,2-2,1.7-4.8,4.3-8.1,7.6s-7.2,7.3-11.2,12.1c-4.4,5.1-8.3,10.6-11.9,16.4-3.6,5.7-6.5,11.8-8.6,18.2-.9,2.8-1.6,5.7-2.1,8.6l-.2,1v6.7c0,3.7.6,7.4,1.9,10.9.4,1.2.8,2.2,1.1,2.8l.3.7v.2-.2c0-.3-.2-.5-.3-.7-.3-.6-.6-1.6-1.1-2.8-1.2-3.5-1.9-7.2-2-10.9,0-1.2,0-2.4,0-3.7v-3l.2-1c.5-2.9,1.2-5.8,2.1-8.6,2.2-6.4,5-12.5,8.6-18.2s7.5-11.2,11.9-16.3c4-4.8,7.8-8.8,11.2-12.2,2.6-2.7,5.3-5.2,8.2-7.6,1-.9,1.8-1.6,2.3-2l.6-.5v-.2s0,0,0,0Z"/>
    <path class="st12" d="M90.3,183.4c.6,1,.4,2.3-.5,3.1-.6.6-1.3,1-2.1,1.3l-1,.4c.3,0,.7,0,1-.2.8-.3,1.5-.7,2.1-1.3s.9-1.5.8-2.4c0-.3,0-.5-.3-.7v-.2h0Z"/>
    <path class="st7" d="M94.3,186.9l-16.7-17c-2.4,2.8-3,6.7-1.4,10,1.6,3.2,3.8,6.1,6.5,8.5-6.7,3.2-11.1,11.2-5.6,19.8"/>
    <path d="M405.3,247.5c.7.5,1.6.8,2.5.8l1,.3c2.8,0,5.7,0,8.5-.2.7,0,1.4-.1,2.1-.4h6.5l1-.3c.9,0,1.7-.3,2.5-.7s.6-.7.3-1.1c-.1-.2-.3-.4-.5-.4-.9-.3-2.1.2-2.7-.3s.6-1.3.2-2c-.2-.4-1-.5-1.5-.8s-.8-.9-1.4-1.3c-.7-.4-1.5-.5-2.2-.3-.8,0-1.9.3-2.1-.3v-.5c0-.7-.5-1.3-1.2-1.4-.8-.2-1.6-.1-2.2.3-.5.4-.8,1.1-1.3,1.4l-.6.3c-.2-.2-.5-.3-.7-.4-.8-.2-1.6-.1-2.2.3-.6.4-.8,1.1-1.4,1.4s-1.3.5-1.5.9c-.4.7.9,1.7.2,2.3s-1.9,0-2.7.3c-.5.1-.8.7-.7,1.2,0,.2.2.4.4.6l-.3.3h0Z"/>
    <path d="M373.8,228.1c1.5,2,2.6,4.3,3,6.7.9-.6,2.1.3,2.6,1.2s1.1,2.1,2.2,2.2c.6,0,1.4-.3,1.9.1s.3,1.3.5,1.9c.6,2.1,4.5,1.4,5.2,3.5.2.6,0,1.4.4,1.9.9,1.4,3.6-.2,4.7,1.1.4.5.4,1.3.9,1.8.9.9,2.6-.1,3.7.6.8.5.9,1.6,1.6,2.2,1,.7,2.4-.1,3.5.4s1.5,2.6,2.8,2.6,1.6-1.1,2.6-1.3c1.8-.4,3.1,2.4,4.9,1.9.6-.2,1-.7,1.6-.9,1.5-.5,3,1.2,4.6.8,1-.3,1.7-1.6,2.8-1.5.6.1,1.2.3,1.7.6,0,0,2.1,1.2,3-.3l1-1.5c.9.3,1.9.3,2.8.1,1.2-.4,2.4-2.6,2.4-2.6,0,0,3-.2,3.6-1.1.6-.9,1.4-2.1,1.4-2.1,1,0,2.1-.3,3-.7.6-.6,1.1-1.4,1.3-2.3,0,0,3.2,0,3.7-.8.4-.8.7-1.6,1-2.4.9.4,1.9.4,2.9,0,1.4-.7,2-3.7,2-3.7.9-.1,1.7-.4,2.5-.8.7-.4,1.7-3.1,1.7-3.1,0,0,4.2-1.6,3.2-2.2s0-5.9,0-5.9c0,0-2.7,4.6-4.1,5.5s-3.5.2-3.9,1.4-2.7,2.5-2.7,2.5c-1.2.1-2.4.8-3.2,1.7-.9.9-1.6,1.8-2.2,2.9,0,0-.1-2.6-2.3-.4-1,1.1-2.1,2-3.3,2.7,0,0-2.5-1.5-3.1-.1-.7,1.2-1.6,2.3-2.6,3.3,0,0-1.6-2.1-3-.6-1,1-2.1,1.8-3.3,2.5h-19.9c-.4-.6-.9-.8-1.5-.8-1,0-3-.1-3-.1,0,0-.4-2.7-1.5-2.2-.9.3-1.9.3-2.8,0-.5-.6-1.1-1.2-1.7-1.6-.9-.6-2.5-1.4-2.5-1.4,0,0,.5-2.6-1.1-2.2-1.1.2-2.1,0-3.1-.6,0,0,0-2.3-1.3-1.9-.9.3-1.8.4-2.7.5-.5-.7-1-1.4-1.6-2.1l-1.4-.8s-1.8-3.4-2.6-3.4h-2.2s-1.5-3.8-2.5-3.2-2-3.5-2-3.5c-1,1.6-1,3.6,0,5.3l.4.2h0Z"/>
    <path class="st11" d="M517.4,424c0-7.6-1.2-15.4-2.1-22.9-1.4-11.1-2.8-22.1-4.2-33.2-.7-6.1-1.4-12.3-2-18.5,0-.8-3-.2-2.9.8,2,21.3,5.4,42.3,7.5,63.6.4,3.7.7,7.3.8,11,0,.8,2.9.2,2.9-.8h0Z"/>
    <path class="st11" d="M558.8,365.9c-9.4,12-13.1,27.5-10.2,42.4.2.8,3.1,0,2.9-.8-2.9-14.7.8-29.9,10-41.8.4-.5-.4-.6-.7-.6-.7,0-1.4.2-1.9.7h0q0,.1,0,0Z"/>
    <path class="st6" d="M153.7,400.8c-.5-11.1-4.4-21.9-11-30.9-.6-.8-3.4.2-2.7,1.1,6.5,8.9,10.3,19.5,10.8,30.5,0,.9,2.9.3,2.9-.8h0q0,.1,0,0Z"/>
    <path class="st6" d="M301.7,396.7c.3-1.8.8-3.6,1.4-5.4.5-1.6,1-3.2,1.7-4.7,1.2-3.1,3-5.8,5.4-8,.5-.4.2-1-.3-1.2-.7-.2-1.5,0-2,.5-2.6,2.3-4.5,5.3-5.8,8.5-.6,1.6-1.2,3.2-1.7,4.8-.7,1.9-1.2,3.8-1.5,5.8-.2,1.3,2.8.9,2.9-.3h-.1Z"/>
  </g>
  <path class="st20" d="M137.3,552.1s-16.8,57.8-16.8,96l184.1,3.2s-5.1-63.2-9.1-88.3-158.2-10.9-158.2-10.9h0Z"/>
</svg>