<?xml version="1.0" encoding="UTF-8"?>
<svg id="Layer_1" data-name="Layer 1" xmlns="http://www.w3.org/2000/svg" viewBox="0 0 637.3 635.8">
  <defs>
    <style>
      .cls-1 {
        fill: #12172c;
      }

      .cls-2 {
        fill: #5e9fae;
      }

      .cls-3 {
        fill: #24170e;
      }

      .cls-4 {
        fill: #aaa;
      }

      .cls-5 {
        fill: #263238;
      }

      .cls-6 {
        fill: #622514;
      }

      .cls-7 {
        fill: #a66e53;
      }

      .cls-8 {
        fill: #5e5f5e;
      }

      .cls-9 {
        fill: #a43b23;
      }

      .cls-10 {
        fill: #643b29;
      }

      .cls-11 {
        fill: #ccb631;
      }

      .cls-12 {
        stroke: #151210;
        stroke-miterlimit: 10;
        stroke-width: .13px;
      }

      .cls-13 {
        fill: #706027;
      }

      .cls-14 {
        fill: #f0edf6;
      }

      .cls-15 {
        fill: #4f2e25;
      }
    </style>
  </defs>
  <path class="cls-11" d="M297.9,409.07c7.53,16.08,26.48,53.36,40.18,65.16,11.04,9.5,35.59,17.89,54.14,14.81,10.71-1.78,24.67-4.14,49.51-10.87,27.83-7.54,112.15-39.25,112.15-39.25l-17.23-41.75-127.9,17.38-15.24,1.48-56.26-127.21s-7.75-20.81-23.73-25.09"/>
  <path class="cls-7" d="M443.94,327.49c-3.56,1.23-51.23,25.23-60.01,53.27-8.78,28.05-12.67,111.48-17.46,136.33-5.97,28.92-.4,115.22-1.23,122.43l-2.93,22.64,20.67-4.06s13.57-147.82,28.58-186.9c15.01-39.08,32.39-143.71,32.39-143.71Z"/>
  <path class="cls-7" d="M527.12,278.38s-11.06,36.9-9.03,50.48c.49,3.3,17.63,16.02,17.63,16.02l-82.91,24.94-29.84-30.97s28.59-14.45,30.37-17.96c1.78-3.51,6.16-34.67,6.16-34.67"/>
  <path class="cls-2" d="M366.47,496.8c-2.96-1.3-1.71-2.09-4.1-3.21-.45-.21,10.58-67.01,10.88-69.74,1.19-10.97,7.04-34.84,9.59-45.57,3.3-13.9,9.08-24.48,20.6-32.61,17.15-12.1,10.56-6.63,26.98-15.11l21.78-7.99s-13.59,16.84,12.3,20.77c31.4,4.77,54.3-22.64,54.3-22.64,0,0,10.27,5.08,30.36,16.3,7.71,4.32,34.02,26.27,38.23,34.39,7.63,14.72,11,23.87,13.08,78.59l-35.15,21.04-8.21,4.34c1.47,26.19-3.64,79.58-7.1,120.56-.48,5.5-.97,10.99-1.49,16.48-.31,3.26,5.1,53.59,3.26,56.15-1.74,2.42-15.19,4.29-18.24,5.19-32.67,9.58-117.36.32-117.36.32-13.25-2.6-26.54,3.55-38.01-3.28-8.13-4.83-3.5.85-7.8-3.45,2.87-11.6,4.36-76.43,5.39-88.32,1.66-19.12,1.19-33.15,2.47-52.31.07-1.09.63-26.28.31-27.1-3.02-1.73-5.09,0-12.07-2.8Z"/>
  <path class="cls-7" d="M592.06,465.91s5.93,77.21,5.38,86.6c-1.84,31.68-35.75,129.07-35.75,129.07l-24.78-10.96s2.85-109.86,11.33-126.24l-9.93-70.94,53.75-7.53Z"/>
  <path class="cls-1" d="M379.62,499.45c-.14-11.92.57-23.88,1.12-35.79.69-14.71,1.49-29.41,2.32-44.11.32-5.75.66-11.49.98-17.23.07-1.16-2.15-.87-2.21.15-.67,11.92-1.36,23.84-2,35.77-.79,14.7-1.55,29.4-2.07,44.11-.2,5.74-.41,11.5-.35,17.25.01,1.17,2.22.87,2.21-.15h0Z"/>
  <path class="cls-2" d="M596.92,412.14l8.17,86.71s-5.74,11.9-70.69,7.79c-13.29-.84-11.64-45.87-11.64-45.87l74.15-48.64Z"/>
  <path class="cls-1" d="M551.51,362.29c-3.08-.22-6.37.84-9.07,2.23-7.14,3.69-11.56,10.9-14.07,18.31-2.23,6.59-3.21,13.56-3.6,20.49-.51,9.08-.28,18.24.05,27.33.59,16.51,1.96,32.99,3.84,49.41.65,5.7,1.37,11.39,2.16,17.07.38,2.71.65,5.48,1.2,8.16.03.12.04.25.06.37.05.32.44.48.72.53,4.06.61,8.12,1.23,12.18,1.84,1.1.17,2.19-1.41.74-1.63-4.06-.61-8.12-1.23-12.18-1.84l.72.53c-1.06-6.52-1.91-13.08-2.72-19.63-1.89-15.41-3.33-30.88-4.13-46.38-.46-8.91-.72-17.84-.65-26.77.06-7.82.38-15.66,2.09-23.31,1.84-8.26,5.42-17.08,12.7-22.01,1.95-1.32,3.88-2.16,6.07-2.68.92-.22,1.03-.24,2-.33.42-.04.84-.05,1.27-.05.1,0-.34-.02-.1,0,.49.03,1.23-.14,1.41-.68.17-.48-.16-.92-.67-.96h0Z"/>
  <path class="cls-15" d="M454.79,314.01s12.92,2.57,17.32,2.52c4.4-.06,11.97-.35,35.2-11.69,0,0-11.02,16.63-33.62,16.65,0,0-18.46-.62-19.54-4.13l.64-3.35Z"/>
  <path class="cls-12" d="M437.23,200.49s0,0,0,0c-.65-7.75-.59-12.47,2.22-17.31,1.99-3.42,8.72-6.19,8.72-6.19,0,0,3.15-10.71,7.67-8.39,0,0,7.09-13.8,20.37-7.7,0,0,4.42-.4,6.32,2.73,0,0,8.63-11.45,19.14-.72,0,0,5.13-2.29,6.05,1.76,0,0,9.34-6.53,16.18,1.18,0,0,20.83-.71,23.58,13.23,0,0,10.62-3.48,14.05,6.99,0,0,4.99,1.27,3.8,8.55,0,0,7.17,3.58,7.07,8.47,0,0,3.75,4.31,2.18,11.88-.45,2.16-1.05,1.46-2.22,4.3,2.71,9.39-3.81,9.36-3.81,9.36,5.12,9.16-4.7,17.8-4.7,17.8,0,0,2.17,6.8-.26,10.5-3.32,5.05-14.46,9.34-14.46,9.34,0,0,.02-15.12,2.14-24.35,2.12-9.23-2.51-26.72-4.34-30.65-1.83-3.93-20.31-.53-46.98-4.98-26.67-4.45-31.21-10.29-34.53-9.94-6.9.73-16.46,24.05-17.49,31.42-1.03,7.37-5.48,20.84-5.48,20.84,0,0-13.13-8.65-7.29-20.32,0,0-3.19-9.66-.49-14.71,0,0,.58-2.19,2.13-3.09-.02-.03-3.91-6.29.42-10.01Z"/>
  <path class="cls-7" d="M513.87,299.83c-12.56,10.53-26.64,16.79-42.2,17.68-15.26.87-26.41-5.73-28.16-8.22-9.57-13.66-12.15-22.97-14.35-37.67-.6-3.99-.12-8.13.75-12.31,1.31-6.27,4.27-18.23,5.06-24.3,2.01-15.44,5.75-29.16,16.11-40.87,21.6-24.4,63.63-17.72,78.18-8.02,17,11.34,22.68,30.19,21.07,49.12-.52,6.17-1.98,11.81-4.28,16.88-3.01,2.49-5.72,5.28-8.1,8.31"/>
  <g>
    <path d="M450.86,195.72s-1.4,1.02-12.34,20.1c2.89-6.16,5.34-15.68,11.7-23.93,22.2-28.82,77.03-16.45,91.41-5.49,16.8,12.81,20.63,34.09,18.6,56.12-.82,8.94-.86,21.91-4.37,28.91-.13.08-10.62,5.46-10.62,5.46,0,0-8.67-10.19-15.7-.16l-1.16-4.87s-5.1-11.59-.41-37.81c0,0,1.57-11.16,2.2-14.49,1.94-10.26-6.95-9.36-13.12-8.59-3.84.48-11.92-.07-15.71-.71-9.7-1.65-21.77-5.03-26.34-5.66-6.42-.88-24.14-8.87-24.14-8.87Z"/>
    <path d="M450.74,195.66c-.47.35-.82,1.01-1.14,1.48-1.89,2.74-3.59,5.62-5.3,8.47-2.02,3.38-3.99,6.79-5.95,10.21l.36.02c1.84-3.95,3.21-8.1,4.94-12.09,2-4.61,4.42-9.08,7.65-12.95,4.52-5.43,10.47-9.44,17-12.06,6.69-2.68,13.89-3.97,21.07-4.36,7.23-.4,14.51.1,21.65,1.28,6.31,1.04,12.57,2.6,18.58,4.81,4.7,1.74,9.31,3.87,13.2,7.07,6.89,5.67,11.74,13.33,14.49,21.79,2.87,8.86,3.57,18.32,3.16,27.58-.21,4.61-.67,9.21-.98,13.81s-.66,9.34-1.6,13.92c-.42,2.04-.95,4.08-1.79,5.99-.21.48-.21.69-.62.9s-.78.4-1.16.6c-2.47,1.27-4.95,2.54-7.43,3.81-.56.29-1.12.58-1.68.86h.26c-2.65-3.1-7.2-5.69-11.31-4.12-2,.76-3.53,2.33-4.75,4.04l.38-.04c-.47-1.96-.88-3.92-1.51-5.83-.93-2.84-1.39-5.85-1.69-8.82-.63-6.31-.38-12.69.31-18.98.35-3.2.93-6.35,1.38-9.54.3-2.14.61-4.28.93-6.41.35-2.39.7-4.79,1.12-7.17s.72-5.06-.82-7.07c-1.23-1.6-3.29-2.18-5.22-2.37-2.27-.22-4.58.03-6.83.31-3.06.37-6.19.24-9.26.04-3.26-.21-6.45-.63-9.66-1.24-7.01-1.36-13.89-3.24-20.88-4.67-2.01-.41-4.02-.68-5.99-1.25-2.54-.74-5.03-1.64-7.5-2.59-4.18-1.6-8.32-3.33-12.41-5.15-.24-.11-.47-.21-.71-.32-.13-.06-.48.12-.3.2,3.04,1.37,6.11,2.66,9.2,3.91,2.53,1.02,5.07,2.01,7.64,2.91,2.17.76,4.38,1.51,6.65,1.94,2.37.45,4.74.88,7.09,1.42,3.6.83,7.19,1.71,10.8,2.51s6.95,1.57,10.47,2.04c3.24.43,6.52.65,9.78.69,1.4.02,2.81,0,4.2-.12,1.14-.11,2.27-.28,3.41-.37,2.22-.18,4.62-.27,6.74.53,5.23,1.96,3.25,8.26,2.61,12.42-.71,4.64-1.4,9.29-2.11,13.93-1.06,6.92-1.63,13.96-1.29,20.96.18,3.72.6,7.49,1.58,11.1.19.68.4,1.36.64,2.02.35.93.5,1.96.73,2.92.17.71.34,1.42.51,2.14.04.15.32.03.38-.04,1.99-2.8,4.9-4.91,8.47-4.14,2.21.48,4.2,1.79,5.84,3.31.36.33.71.68,1.03,1.05.06.07.19.05.26.01,1.9-.98,3.8-1.95,5.71-2.93,1.23-.63,2.45-1.26,3.68-1.89.34-.18.69-.35,1.03-.53.37-.19.45-.46.62-.86,1.78-3.96,2.38-8.43,2.85-12.71.51-4.73.72-9.48,1.1-14.22s.71-9.53.58-14.32-.6-9.38-1.56-13.97c-1.82-8.72-5.51-17.09-11.53-23.74-2.34-2.59-4.99-4.99-7.96-6.85-2.02-1.27-4.18-2.33-6.37-3.27-5.67-2.45-11.66-4.18-17.7-5.43-6.99-1.45-14.14-2.26-21.29-2.26-7.27,0-14.6.8-21.58,2.88-6.71,2-13.09,5.25-18.28,9.99-3.15,2.88-5.77,6.28-7.92,9.97-2.47,4.23-4.28,8.78-6.05,13.34-.74,1.9-1.47,3.8-2.34,5.64-.09.18.3.14.36.02,2.89-5.04,5.8-10.08,8.87-15.01,1-1.6,1.98-3.26,3.16-4.74.04-.06.29-.33.25-.29.21-.16-.11-.23-.25-.14Z"/>
  </g>
  <path class="cls-7" d="M522.81,287.99c6.63,9.15,15.35-.69,15.35-.69,8.85-7.99,10.23-17.66,10.9-24.31.67-6.65-6.61-7.59-6.61-7.59-6.27-.21-5.5.64-16.39,17.02"/>
  <path d="M490.69,248.94c1.94-.58,3.87.6,4.83,1.84.23.29.83,1.12.95,2.35.16,1.57-.75,3.15-1.88,3.99-1.5,1.13-3.63.98-5.08-.07-1.97-1.42-2.19-4.15-1.29-5.95.17-.33.9-1.7,2.47-2.17"/>
  <path d="M479.88,254.79s7.84-7.27,14.45-6.07c9.3,1.69,10.53,7.02,12.05,9.96,0,0-4.86-7.12-12.08-8.27-6.55-1.04-14.42,4.38-14.42,4.38Z"/>
  <path d="M445.1,240.34c-1.48-1.23-3.56-.8-4.84.02-.3.19-1.11.75-1.65,1.86-.69,1.41-.45,3.2.23,4.39.91,1.59,2.8,2.19,4.43,1.73,2.21-.63,3.35-3.11,3.2-5.1-.03-.36-.19-1.91-1.38-2.9"/>
  <path d="M455.34,250.36s-3.74-9.38-9.45-10.42c-8.04-1.47-10.89,3.12-13.13,5.37,0,0,6.38-5.07,12.56-3.78,5.61,1.18,10.01,8.83,10.01,8.83Z"/>
  <g>
    <path d="M457.9,274.57c1.57,1.21,4.24,1.46,6.16.69.43-.17,1.67.29,1.07.53-2.54,1.02-6.34.49-8.37-1.07-.2-.16-.13-.32.16-.36.3-.05.76.05.97.22"/>
    <path d="M465.97,275.43c1.26-.35,2.61-.41,3.92-.28.19.02.43.13.54.28.09.12.09.25-.06.31-.66.24-1.45.25-2.14.11-.22-.04-.5-.15-.59-.36-.08-.2.15-.27.32-.24.58.11,1.19.1,1.73-.09.16.2.32.4.48.59-1.18-.11-2.38-.05-3.51.26-.22.06-.51-.05-.67-.2-.12-.11-.24-.32-.01-.39"/>
    <path d="M471.09,276.5c1.53.23,3.43-.12,4.37-1.13,1.43-1.53.88-4.63-.83-6.06-.19-.16-.05-.29.17-.3.28-.01.59.15.78.31,1.48,1.26,2.14,3.86,1.61,5.44-.5,1.48-2.13,2.28-4.03,2.4-.56.03-1.15.02-1.72-.06-.23-.04-.63-.18-.71-.38-.08-.2.14-.25.36-.21"/>
    <path d="M455.25,273.31c.11-.16-.02-.3-.14-.32-.41-.06-.81-.25-1.11-.6-.16.14-.32.28-.49.42.81.23,1.58.65,2.23,1.27.13.12.35.1.5,0,.11-.07.25-.24.12-.36"/>
    <path d="M456.36,273.73c-.73-.69-1.6-1.15-2.5-1.41-.13-.04-.32,0-.44.11-.09.08-.13.21-.05.31"/>
    <path d="M452.06,272.96c-.98-.21-2.03-1.08-2.31-2.31-.43-1.86.61-3.8,2.03-4.68.15-.1.11-.27-.02-.33-.17-.09-.39-.03-.56.08-1.24.77-2.21,2.22-2.33,3.87-.11,1.54.65,2.77,1.75,3.42.33.19.69.35,1.05.43.15.03.43,0,.53-.16.11-.17-.02-.27-.16-.3"/>
  </g>
  <path d="M483.82,231.79c-.24,1.48-.47,2.97-.71,4.46-.18,1.13-.35,2.27-.53,3.4,3.49-.42,8.21-.38,10.43-.44,4.4-.13,8.94.08,13.15,1.49,2.02.68,3.74,1.54,5.28,2.96.49.45,1.71,2.25,2.59,1.98.36-.11.11-2.03.08-2.22-.53-3.86-3.2-5.86-6.63-7.31-6.99-2.95-14.34-3.93-21.9-4.11"/>
  <path d="M435.63,227.77c.48-.83.88-1.71,1.14-2.65.75-.16,1.54-.26,2.35-.33,7.45-.56,14.61.86,21.71,3.11-.25,1.48-.51,2.96-.77,4.45-.2,1.13-.4,2.26-.6,3.39-3.11-1.51-5.81-2.61-7.86-3.38-4.06-1.53-8.35-2.78-12.72-2.79-1.27,0-2.45.11-3.61.37l.36-2.17Z"/>
  <path class="cls-10" d="M461.79,284.24c6.64.86,17.29,2.22,17.29,2.22,0,0-3.88,15.03-19.27,13.03-15.39-2-13.68-17.82-13.68-17.82,0,0,9.02,1.71,15.66,2.57Z"/>
  <path class="cls-3" d="M461.73,284.23c3.16.41,15.73,2.33,15.73,2.33,0,0-5.94,8.49-17.36,7-12.38-1.61-12.07-10.62-12.07-10.62l13.7,1.28Z"/>
  <path class="cls-14" d="M461.51,284.79c3.16.41,12.61,1.93,12.61,1.93,0,0-3.78,2.89-13.25,1.66-9.47-1.23-12.17-4.84-12.17-4.84l12.81,1.25Z"/>
  <path class="cls-10" d="M445.84,280.96c.35-.06.35-.06,1.96-.02,2.68.07,3.92-.86,5.86-.79,3.31.12,5.18,1.96,6.61,2.15,1.42.18,3.7-1.12,6.94-.39,1.89.43,6.29,2.82,8.9,3.44,1.57.37,2.7.69,3.03.83.45.2.05,2.55-17.83.23-17.88-2.32-15.95-5.37-15.46-5.45Z"/>
  <path class="cls-7" d="M201.87,160.6s-5.23,31.16-17.04,54.27c-1.65,3.22-26.81,15.06-26.81,15.06l32.76,15.8c17.26,5.98,60.64,28.17,78.4,23.86l11.72-20.96s-17.8-11.2-18.23-15.45c-.43-4.24,6.13-35.31,6.13-35.31"/>
  <path class="cls-11" d="M325.36,547.9c-.86-45.64-2.17-46.41-2.17-46.41l-3.65-15.35-1.12-31.32c6.31-19.87,17.02-28.02,20.12-60.58l-7.33-48.12-24.05-78.09-43.1-33.22c1.36,3.24,18.23,25.97-13.4,30.63-.02,0-7.57-.75-7.59-.74-39.42-6.18-64.91-45.24-64.91-45.24l-54.16,15.91-48.87,184.46s-48.51,83.7-54.37,121.03c-7.2,45.83-4.91,94.74,6.39,136.57,1.15,4.27,60.89,18.25,67.12,19.6,23.38,5.07,47.13,8.47,71,10.16,46.91,3.33,93.18-2.39,139.64-6.37,0,0,21.31-107.29,20.45-152.92Z"/>
  <path class="cls-11" d="M273.23,239.7s50.92,23.12,57.04,41.29c9.29,27.59,12.93,53.73,12.93,53.73l-32.93,18.59-37.04-113.6Z"/>
  <path class="cls-11" d="M289.36,429.82l-120.19-2.02-19.67-107.36-2.83-90.35s-73.74,7.45-73.47,73.36c1.46,35.77-2.46,82.19,8.29,125.84.45-.1,10.51,30.51,13.42,40.19,2.04,15.46,16.84,35.1,29.1,37.3,29.38,5.27,59.81-8.19,59.81-8.19,0,0,13.17-3.75,13.73-3.88,29.43-5.6,48.14-9.92,100.9-29.54l9.97-1.67c-6.15-13.76-14.16-19.43-19.06-33.68Z"/>
  <path class="cls-7" d="M326.28,515.67l8.67-1.69s33.91,20.79,45.26,22.49c8.28.87,16.77.39,25.23-1.44l8.75,4.59c4.03,2.11,8.75,2.46,13.37.98l3.56-1.14s9.24,9.31,12.37,5.8c3.13-3.5.6-8.16-1.87-12.67-2.46-4.52-63.83-52.71-63.83-52.71,7.06-1.81,18.47,1.86,25.55,1.43,10.86-.57,15.31-5.32,11.77-10.26-2.18-3.05-10.27-6.27-16.52-4.2-6.23,2.07-31.55-9.43-42.63-7.09-11.08,2.34-21.71,16.15-21.71,16.15-5.82,2.08-9.72.42-9.72.42-1.43,4.09,1.75,39.35,1.75,39.35Z"/>
  <path class="cls-15" d="M430.94,538.51c-3.74-3.07-8.01-5.57-12.1-8.15-5-3.15-10.05-6.24-14.94-9.55-1.99-1.35-4.01-2.72-5.81-4.32-.78-.69-2.63.45-1.66,1.31,3.61,3.22,7.9,5.75,11.97,8.34,4.99,3.18,10.04,6.25,14.98,9.5,2.01,1.32,4.04,2.65,5.9,4.18.8.66,2.66-.49,1.66-1.31h0Z"/>
  <path class="cls-15" d="M404.76,533.7c-6.94-3.61-13.89-7.23-20.83-10.84-.99-.51-1.98-1.03-2.96-1.54-.7-.37-2.67.63-1.71,1.13,6.94,3.61,13.89,7.23,20.83,10.84.99.51,1.98,1.03,2.96,1.54.7.37,2.67-.63,1.71-1.13h0Z"/>
  <g>
    <path class="cls-11" d="M77.94,409.22c1.85,17.66,7.53,56.89,16.61,72.53,7.31,12.6,27.76,27.51,46.3,30.67,10.71,1.83,24.67,4.17,50.33,5.95,28.76,1.99,140.02,2.85,140.02,2.85l-2.59-45.09-147.73-36.09-14.88-3.6-11.47-138.63s-.51-22.2-14.2-31.48"/>
    <path class="cls-13" d="M76.5,409.6c1.28,12.18,3.09,24.32,5.46,36.33,1.33,6.72,2.84,13.41,4.76,19.99,1.56,5.32,3.35,10.65,6,15.53,3.14,5.77,7.89,10.63,12.89,14.81,6.02,5.04,12.72,9.3,19.9,12.48,3.55,1.57,7.21,2.9,10.99,3.82,2.58.63,5.2,1.02,7.82,1.46,5.33.89,10.67,1.69,16.03,2.38,12.22,1.56,24.53,2.68,36.84,3.27,8.72.42,17.46.66,26.19.88,11.03.28,22.06.49,33.09.68,11.04.19,22.08.35,33.13.48,8.93.11,17.87.21,26.8.3,4.55.05,9.11.09,13.66.12.2,0,.41,0,.61,0,.77,0,2.04-.33,1.98-1.31-.29-5.06-.58-10.12-.87-15.18-.47-8.11-.93-16.23-1.4-24.34-.11-1.86-.21-3.71-.32-5.57-.01-.24-.4-.44-.58-.48-5.89-1.44-11.78-2.88-17.67-4.32-13.63-3.33-27.26-6.66-40.89-9.99-15.52-3.79-31.05-7.58-46.57-11.38-11.57-2.83-23.14-5.65-34.71-8.48-6.75-1.65-13.51-3.29-20.27-4.92-.84-.2-1.67-.4-2.51-.61l.58.48c-.52-6.32-1.05-12.65-1.57-18.97-1.19-14.34-2.37-28.67-3.56-43.01-1.27-15.39-2.55-30.79-3.82-46.18-.79-9.5-1.57-18.99-2.36-28.49-.05-.64-.11-1.28-.16-1.92-.01-.17,0,.13,0,.17-.01-.24-.02-.49-.03-.73-.05-.97-.14-1.94-.25-2.9-.94-8.28-3.47-16.95-8.83-23.49-1.56-1.9-3.38-3.57-5.41-4.96-.9-.62-3.52.66-2.27,1.52,7.76,5.34,11.42,14.85,13.04,23.79.42,2.33.72,4.69.84,7.06.02.33-.03-.37,0,.26,0,.04,0,.08.01.12.02.25.04.5.06.75.7,8.43,1.39,16.85,2.09,25.28,1.24,15.01,2.48,30.01,3.72,45.02,1.22,14.74,2.44,29.48,3.66,44.22l1.28,15.45c.2,2.45.22,5,.61,7.43.02.11.02.23.03.34.02.24.39.44.58.48,6.76,1.63,13.53,3.27,20.29,4.92l32.17,7.86c15.36,3.75,30.72,7.51,46.09,11.26,14.15,3.46,28.31,6.91,42.46,10.37,4.8,1.17,9.59,2.34,14.39,3.52,1.51.37,3.02.74,4.53,1.11.77.19,1.59.5,2.38.58.1.01.2.05.3.07l-.58-.48c.29,5.06.58,10.12.87,15.18.47,8.11.93,16.23,1.4,24.34.11,1.86.21,3.71.32,5.57l1.98-1.31c-3.14-.02-6.28-.05-9.42-.08-7.98-.07-15.96-.16-23.94-.25-10.61-.13-21.22-.27-31.82-.43-11.17-.17-22.34-.37-33.51-.62-9.53-.21-19.06-.45-28.59-.82-10.48-.4-20.94-1.15-31.38-2.2-6.38-.64-12.75-1.42-19.09-2.35-4.94-.73-9.96-1.39-14.84-2.49-7.64-1.72-14.87-5.08-21.49-9.21-6.33-3.94-12.26-8.69-17.15-14.34-7.83-9.06-10.89-21.15-13.56-32.56-3-12.81-5.1-25.85-6.73-38.91-.3-2.4-.58-4.8-.83-7.2-.12-1.12-3.03-.46-2.9.78h0Z"/>
  </g>
  <path class="cls-13" d="M166.16,435.09c-4.16-.3-7.8,3.15-10.2,6.14-4.08,5.07-6.66,11.24-8.23,17.51-.32,1.28,2.63.9,2.92-.27,1.4-5.62,3.66-11.22,7.19-15.87,1.2-1.58,2.55-3.11,4.16-4.28.6-.44,1.24-.83,1.94-1.1.37-.14.82-.22,1.17-.19.65.05,1.59-.21,1.9-.85s-.27-1.04-.85-1.08h0Z"/>
  <path class="cls-11" d="M264.06,234.82s53.41,28.33,63.78,39.63c20.3,22.1,13.33,54.46,13.33,54.46l-32.93,20.85-44.18-114.94Z"/>
  <path class="cls-8" d="M186.55,61.29c5.39-6.14,13.17-9.81,20.71-6.91,1.24-15.19,16.86-22.59,32.06-21.44,7.77.95,15.4,5.29,23.02,3.48,4.75-1.12,8.59-4.35,12.82-6.94,17.68-10.45,41.96,6.36,54.31,22.78,12.35,16.41,7.16,32.74-1.95,51.13-4.23,8.55-4.21,13.45-6.21,22.85-1.89,8.87-9.06,24.97-10.09,33.86s11.91,19.67,2.85,19.44l-96.65-21.76c-14.84,1.35-23.67-4.02-29.77-17.62-3.94-9.21-2.28-9.44-1.88-19.43.2-13.1-11.97-24.23-9.83-37.16,1.09-8.15,5.58-15.79,10.6-22.29Z"/>
  <path class="cls-9" d="M174.45,59.47s35.59-13.24,78.73-3.84c43.14,9.4,61.65,38.38,67.27,58.35,5.62,19.98-4.62,39.29-4.62,39.29,0,0,10.6,4.1,21.96-34.42,16.56-56.15-38.34-96.79-52.47-98.08-14.14-1.29-84.78-23.43-110.88,38.68Z"/>
  <path class="cls-15" d="M263.28,227.4s-7.15-2.01-12.02-3.98c-4.86-1.97-13.5-2.63-34.4-25.28,0,0,4.05,25.44,33,34.01,0,0,7.46,2.45,12.61,1.79l.81-6.54Z"/>
  <path class="cls-7" d="M305.94,80.23c.09.1.19.19.29.29-.09-.19-.18-.38-.23-.56l-.06.27ZM317.97,85.23c.15.21.32.41.5.62l.05-.23s-.49-.67-.54-.4ZM214.07,194.96c9.39,14.28,22.58,29.57,49.03,34.01,6.67,1.12,13.13,1.52,19.4-5.75,6.34-7.35,11.42-9.84,18.07-16.51,6.38-6.4,9.44-10.55,13.3-18.69,3.99-8.42,4.42-10.76,5.17-19.8.34-4.04,1.21-10.08,2.24-13.82,1.19-4.32,6.52-21.21,8.87-31.28,2.35-10.07-1.95-30.78-1.95-30.78-.04-2.86-4.1-2.16-5.15-4.65l-1.19-.24s.54.39.37,1.22c-1.47-.54-2.81-1.66-3.78-2.81v.04c-1.97.46-3.59-.73-4.8-2.4-.06.27.13.88.43.94-1.84-.09-3.47-1.27-4.44-2.61-.06.27.13.88.08,1.16-1.31-.52-2.52-1.5-3.5-2.47.2.42,7.14.73,7.1.92-1.84-.09.08.92-1.13-.75l-1.27-1.32c-1.55-.03-1.67.88-2.65-.45.24.33-.21-3.18-.27-2.91-1.79-.36-1.28-.38-2.6-1.51-.06.27-5.24.79-5.29,1.06-1.49-.3-1.37,1.15-2.35-.19.24.33,1.31-.93,1.55-.59-1.84-.09-2.75.92-3.96-.75.24.34-5.29-4.2-5.29-4.2-1.85-.09-1.66.54-2.93-.86.49.67-8.15-2.18-7.97-1.57-1.49-.3,1.74,6.04.72,4.98-.06.28-3.26-1.52-3.26-1.52-1.55-.03.41,1.79-.56.46-.06.27.08,1.15.38,1.22-1.96.46-3.93-.51-5.5-1.97.49.67.67,1.28.92,1.61-1.49-.3-2.74-.27-4.01-1.67-.06.27.37,1.22.67,1.28-1.6.24-3.34-.39-4.66-1.51-.06.27.43.94.67,1.27-1.24.03-2.44-.21-3.46-1.27l.67,1.28c-1.19-.24-2.2.12-3.88-.79-.06.27.49.67.43.94-.9-.18-2.09-.42-2.93-.88-.06.27.73,1,.43.94-1.19-.24-2.2.12-3.58-.72.24.33.43.94.67,1.28-1.19-.24-2.44-.21-3.52-1-.06.27.13.88.37,1.22-1.19-.24-2.2.12-3.58-.73-.06.27.43.94.67,1.27-1.19-.24-2.44-.21-3.58-.73-.06.27.49.67.73,1-1.19-.24-2.44-.21-3.82-1.06-.11.55.13.88.08,1.15-.89-.18-1.43-.57-2.33-.76l-1.6.24c-5.28,4.63-20.05-2.97-20.05-2.97-10.74,5.52-6.02,45.84-6.78,51.1-.76,5.26-4,6.11-4,6.11-1.1-2.22-4.07,3.08-4.52.71-.51-2.1.59-4.44.08-6.54-1.8-4.92-8.04-4.76-11.87-2.69l-.73.79c-5.82,5.26-4.72,25.51-2.48,31.9-1.35,11.84,7.67,20,15.11,12.75l.7,4.86"/>
  <g>
    <path d="M280.24,177.64c-2.43.7-5.73-.25-7.67-2.06-.43-.4-2.13-.44-1.52.12,2.56,2.39,7.34,3.54,10.47,2.63.31-.09.3-.32-.02-.5-.34-.2-.93-.29-1.26-.19"/>
    <path d="M270.23,174.89c-1.34-.99-2.92-1.7-4.55-2.16-.24-.07-.57-.04-.78.08-.16.1-.23.26-.07.4.67.59,1.61.97,2.51,1.13.28.05.67.06.87-.15.19-.19-.05-.39-.27-.43-.74-.14-1.46-.43-2.02-.92-.28.16-.56.32-.85.48,1.45.41,2.87,1.05,4.06,1.94.24.18.63.17.9.08.2-.07.43-.27.2-.45"/>
    <path d="M263.62,173.76c-1.93-.44-4.03-1.74-4.69-3.38-.99-2.48,1.05-5.67,3.74-6.58.29-.1.19-.32-.06-.43-.33-.14-.77-.1-1.08,0-2.35.79-4.29,3.36-4.39,5.47-.09,1.98,1.49,3.69,3.69,4.71.66.3,1.37.56,2.09.73.29.07.84.09,1.03-.11.19-.2-.06-.36-.33-.42"/>
    <path d="M283.99,177.39c-.06-.24.16-.35.32-.31.52.12,1.08.08,1.6-.19.13.24.26.48.39.73-1.07-.1-2.19.03-3.25.46-.21.09-.46-.05-.6-.22-.1-.13-.19-.4.02-.49"/>
    <path d="M282.46,177.37c1.19-.48,2.43-.61,3.63-.5.17.02.38.15.47.34.07.14.06.31-.09.39"/>
    <path d="M287.95,178.46c1.27.21,2.92-.33,3.83-1.65,1.38-2,1.03-4.77-.25-6.49-.14-.19,0-.37.18-.39.24-.03.48.15.63.35,1.12,1.5,1.61,3.65.99,5.66-.58,1.88-2.06,2.97-3.67,3.22-.48.07-.98.09-1.45.01-.19-.03-.52-.19-.56-.44-.05-.25.15-.32.33-.29"/>
  </g>
  <path d="M308.29,143.65c1.83-.52,3.82.61,4.71,1.79.21.28.56,1.06.65,2.22.13,1.47-.75,2.94-1.81,3.72-1.42,1.04-3.41.87-4.76-.13-1.83-1.35-2-3.92-1.13-5.59.16-.3.87-1.58,2.34-2"/>
  <path d="M292.39,146.18s9.34-4.71,13.55-4.28c6.13.62,12.87,5.46,14.39,8.87,0,0-8.79-6.97-13.13-7.28-4.14-.3-14.81,2.7-14.81,2.7Z"/>
  <path d="M257.99,134.1c-1.48-1.19-4.19-1.5-5.47-.76-.3.17-1.12.68-1.66,1.7-.69,1.31-.45,3,.22,4.13.91,1.52,2.8,2.13,4.44,1.74,2.21-.53,3.36-2.83,3.22-4.71-.03-.34.43-.9-.77-1.87"/>
  <path d="M267.55,140.65s-7.93-7.63-12.38-8.67c-6.49-1.52-15.07.73-17.81,3.42,0,0,11.42-3.55,15.97-2.36,4.34,1.14,14.22,7.61,14.22,7.61Z"/>
  <path class="cls-4" d="M326.63,137.72c.06-.13.12-.26.18-.39.05-.13.1-.26.15-.4.02-.06.04-.12.05-.17,0-.01,0-.02,0-.04.05-.28.08-.55.08-.84,0-.27.14-.5.33-.67-1.12-2.09-2.47-3.42-2.61-3.56,0,0-2.16-2.16-5.95-3.75-2.62-1.1-10.08-2.85-20.29-3.49-.21,1.22-.41,2.45-.62,3.69-.15.94-.31,1.87-.46,2.81,3.61-.19,6.67-.2,8.97-.15,4.87.1,7.35.17,10.04,1.06,2.82.93,5.11,2.33,6,2.88,1.25.77,2.09,1.27,3.05,2.16.38.35.7.7.99,1.03.03-.05.06-.11.08-.16Z"/>
  <path class="cls-4" d="M280.84,120.02c-.39,1.18-.79,2.36-1.18,3.55-.3.9-.61,1.8-.92,2.7-3.75-2.07-7.02-3.68-9.5-4.85-5.24-2.47-7.93-3.72-11.24-4.35-3.47-.67-6.61-.65-7.84-.64-1.72.02-2.87,0-4.33.28-3.17.59-4.82,1.89-5.21,1.6-.36-.26.78-1.5.9-1.63,2.89-3.11,7.36-4.05,7.7-4.13,0,0,3.38-.76,8.22-.15,3.34.42,12.18,2.82,23.39,7.62"/>
  <path d="M201.07,143.3c-1.05-3.84-2.27-7.69-4.06-11.25-.88-1.76-1.91-3.54-3.32-4.94-.52-.51-1.15-1.07-1.87-1.3-1.02-.32-1.69.56-2.22,1.29-2.06,2.84-2.56,6.49-2.32,9.91.03.42,1.49.13,1.45-.39-.19-2.72.11-5.52,1.31-8,.4-.84,1.06-1.89,1.66-2.41l-1.02.27c.12.02-.12-.08.01,0,.11.07.25.1.36.16.45.24.9.62,1.29,1.01,2.01,2,3.3,4.73,4.38,7.31,1.18,2.83,2.1,5.77,2.91,8.72.13.46,1.58.08,1.45-.39h0Z"/>
  <path d="M197.07,142.04c-5.04-1.09-3.56,5.96-4.24,8.72-.02.08-.35.77-.35.76l.51-.09s-.02-.02-.03-.03c0-.04-.13-.14-.15-.19-.07-.23-.22-.45-.29-.68-.49-1.48-.57-3.13-.64-4.67-.09-2.21-.03-4.23.55-6.35s1.71-5.51,4.19-6.12c.88-.21.67-1.01-.21-.8-2.51.61-3.92,2.9-4.8,5.16-.67,1.72-1.14,3.54-1.19,5.39-.06,2.01-.02,4.05.28,6.04.13.86.28,2.46,1.15,2.97.74.43,1.72-.08,2.13-.74.48-.78.48-1.85.52-2.74.05-1.15-.33-6.25,1.71-5.81.32.07.81,0,1.02-.27.18-.23.19-.49-.15-.57h0Z"/>
  <path class="cls-15" d="M313.28,108.84s-13.17-.08-23.73-1.23c-10.56-1.16-20.23-7.76-20.23-7.76,0,0,11.91,5.41,20.25,6.37s23.71,2.62,23.71,2.62Z"/>
  <path class="cls-4" d="M323.98,79.43c-.11-.21.05.09,0,0-2.17-4.01-3.35-8.14-5.69-12.04-2.3-3.83-4.57-7.32-7.08-11.01-.15-.22-3.59-.73-3.73-.95-.03-.04-.13-.18-.16-.23-.08-.12-.16-.23-.24-.35-.19-.27-.38-.53-.57-.8-15.49-9.13-35.13-12.55-53.63-9.25-35.94,6.41-59.87,40.74-53.46,76.67.55,3.08-1.66,6.46,1.04,8.48,2.7,2.03,3.15,1.24,6.14-.34,2.88-1.76,5.32-4.17,7.11-7.03,9.27-13.4,13.87-35.96,12.4-52.18,1.56,3.22,15.28,1.74,18,4.05,10.79,9.14,26.94,7.8,36.08-2.99.99,1.91,2.14,3.73,3.43,5.44,11.81,15.72,28.62,24.69,44.58,16.54.59-.3-2.87-11.49-4.22-14.03Z"/>
  <path class="cls-5" d="M235.36,127.55l.8,5.91c.26,4.52,1.9,13.68,2.94,16.29,1.47,3.66,24.16,9.24,29.16,7.46,5-1.78,10-14.41,11.77-17.22l9.08,2.25c.07,4.09.58,17.07,2.01,19.08,1.42,2.01,12,3.7,13.19,3.88.99.15,2.38.35,3.9.51,4.03.46,8.98.7,10.74-.49,2.62-1.77,6.61-9.64,10.18-17.14l.57-1.17c.13-.28.26-.47.28-.56h0l.64-1.35c-12.01-8.79-29.54-11.03-41.53-5.28l.06.16-8.85-2.23c-8.83-8.62-25.61-15.58-39.03-13.09h0l-40.02-.86-.77,3.42,34.87.44ZM292.44,160.25c-.89-1.25-1.51-10.4-1.77-17.48,10.39-4.81,26.18-2.77,37.05,4.42l-.04.17c-1.92,4.02-7.01,14.7-9.58,16.44-3.05,2.05-24.07-1.54-25.67-3.51v-.04ZM242,149.33c-1.91-6.93-3.2-14.02-3.84-21.18,12.08-2.96,30.91,3.53,39.57,11.77-2.62,5.18-6.43,14.39-10.01,15.65-5.16,1.83-24.81-3.93-25.72-6.24h0Z"/>
  <path class="cls-6" d="M181.49,126.05s-30.16-27.66-14.66-51.84c2.98-4.64,3.05-3,3.69-7.23,3.31-22.21-5.1-17.79,30.56-40.1,35.66-22.31,40.41-21.31,89.82-11.85,25.49,4.88,38.32,17.24,43.47,34.34,2.31,7.69,3.07,16.33,2.73,25.67,0,0-50.8-21.03-84.02-7.77-33.22,13.26-72.39,64.39-67.74,82.77,1.3,5.16-3.84-23.99-3.84-23.99Z"/>
  <path class="cls-9" d="M164.02,99.32s52.06-59.8,111.7-54.94c0,0-72.49-16.31-111.02,32.37l-1.19,6.11c-.74,3.8-.82,7.7-.24,11.53l.75,4.93Z"/>
  <path class="cls-13" d="M335.81,323.6c-8.75,20.49-2.9,42.65-.51,63.8,1.26,11.13,1.58,22.45-1.06,33.41-1.47,6.1-3.82,11.95-6.96,17.38-1.67,2.88-3.54,5.64-5.57,8.28-.63.82-1.28,1.62-1.94,2.42-.38.45-1.05,1-1.24,1.58-.06.17-.03.41-.05.58-.48,6.11-.95,12.22-1.43,18.33-.1,1.25,2.82.73,2.91-.33.44-5.64.88-11.28,1.32-16.92.04-.54-.01-1.58.18-1.96.25-.5,1.05-1.18,1.47-1.69.51-.62,1.01-1.25,1.5-1.88,1.13-1.47,2.21-2.97,3.24-4.52,3.44-5.19,6.2-10.82,8.11-16.74,7.05-21.77,1.02-44.1-1.16-66.1-1.18-11.98-.9-24.29,3.9-35.52.58-1.35-2.31-1.07-2.72-.13h0Z"/>
  <path class="cls-10" d="M270.59,186.15c-9.37-2.4-24.38-6.27-24.38-6.27,0,0-2.6,21.3,19.11,26.85,21.71,5.55,23.5-15.75,23.5-15.75,0,0-8.87-2.43-18.24-4.83Z"/>
  <path class="cls-3" d="M270.68,186.18c-4.45-1.14-22.34-5.31-22.34-5.31,0,0,3.57,14.01,19.68,18.13,17.46,4.47,17.65-7.84,17.65-7.84l-14.99-4.98Z"/>
  <path class="cls-14" d="M269.34,186.73c-4.45-1.14-17.94-4.18-17.94-4.18,0,0,3.57,5.69,16.93,9.11,13.36,3.42,17.36-.22,17.36-.22l-16.34-4.71Z"/>
  <path class="cls-10" d="M290.71,189.66q-.43-.26-2.55-1.04c-3.54-1.3-4.5-2.96-7.07-3.87-4.39-1.56-6.16.05-8.12-.45-1.96-.5-4.27-3.35-8.87-4.09-2.7-.43-9.68.36-13.41-.2-2.24-.33-3.88-.52-4.39-.5-.7.02-1.38,3.25,23.2,9.54,24.58,6.29,21.81.97,21.21.61Z"/>
  <path d="M530.52,273.27c1.78-2.95,3.69-5.85,5.95-8.47,1.2-1.38,2.51-2.75,4.06-3.75.47-.3.81-.49,1.19-.64.08-.03.17-.06.25-.1.02,0-.13.03.07-.02.06-.02.13-.03.19-.05.16-.04-.21.06.02,0,.19-.05.13.03.04,0,.11.05.1.07-.05-.01-.28-.16-.25-.16-.15.04.13.26.25.52.36.8,1.16,3.04.68,6.43-.4,9.41-.16.44,1.28.26,1.44-.2,1.05-2.92,1.53-6.24.53-9.24-.13-.4-.32-1.15-.65-1.44-.18-.16-.52-.12-.74-.1-2.56.25-4.8,2.43-6.47,4.18-2.73,2.87-4.95,6.22-6.98,9.61-.33.55,1.11.38,1.34,0h0Z"/>
  <path d="M533.21,273.73c3.98.26-2.21,9.83,1.48,9.58.97-.06,1.58-.9,2.02-1.68.81-1.43,1.35-3.04,1.82-4.61.6-2,.94-3.75.89-5.83-.06-2.44-.49-5.51-2.83-6.83-.45-.25-1.77.38-1.14.74,1.92,1.09,2.36,3.66,2.49,5.68.09,1.47.05,2.96-.31,4.4-.43,1.71-.93,3.41-1.62,5.03-.24.57-.51,1.14-.84,1.66-.1.16-.27.32-.35.48,0,0-.17.15-.17.16,0-.06.46,0,.47-.12.02-.18-.23-.59-.23-.84,0-.45.09-.91.19-1.35.21-1.01.5-2,.71-3.01.41-1.94.46-4.2-2.04-4.36-.6-.04-1.52.82-.55.89h0Z"/>
</svg>