<?xml version="1.0" encoding="UTF-8"?>
<svg id="Layer_1" data-name="Layer 1" xmlns="http://www.w3.org/2000/svg" viewBox="0 0 637.3 635.8">
  <defs>
    <style>
      .cls-1 {
        fill: #c2b2d6;
      }

      .cls-2 {
        fill: #101931;
      }

      .cls-3 {
        fill: #010101;
      }

      .cls-4 {
        fill: #f1edf6;
      }

      .cls-5 {
        fill: #643c2a;
      }

      .cls-6 {
        fill: #a66e53;
      }

      .cls-7 {
        fill: #131429;
      }

      .cls-8 {
        stroke: #131429;
      }

      .cls-8, .cls-9, .cls-10, .cls-11, .cls-12, .cls-13, .cls-14 {
        stroke-miterlimit: 10;
      }

      .cls-8, .cls-9, .cls-10, .cls-11, .cls-13 {
        fill: none;
      }

      .cls-8, .cls-13 {
        stroke-width: 2px;
      }

      .cls-15 {
        fill: #fff;
      }

      .cls-16 {
        fill: #665786;
      }

      .cls-17 {
        fill: #070505;
      }

      .cls-18 {
        fill: #040404;
      }

      .cls-19 {
        fill: #42221a;
      }

      .cls-20 {
        fill: #0c0906;
      }

      .cls-21 {
        fill: #643b29;
      }

      .cls-22 {
        fill: #381c13;
      }

      .cls-23 {
        fill: #a86e57;
      }

      .cls-24, .cls-14 {
        fill: #14110f;
      }

      .cls-25 {
        fill: #151210;
      }

      .cls-9, .cls-10, .cls-13 {
        stroke: #42221a;
      }

      .cls-26 {
        fill: #628e9f;
      }

      .cls-10 {
        stroke-width: 1.5px;
      }

      .cls-11, .cls-12 {
        stroke-width: 1.2px;
      }

      .cls-11, .cls-14 {
        stroke: #151210;
      }

      .cls-27 {
        fill: #221e1f;
      }

      .cls-12 {
        fill: #852;
        stroke: #852;
      }

      .cls-14 {
        stroke-width: .5px;
      }

      .cls-28 {
        fill: #4f2e25;
      }
    </style>
  </defs>
  <path class="cls-26" d="M80.5,615.6l88.9-95.4c14.1-25.2,61.8-187.6,83.2-213.7,34.1-41.6,78-60.5,78-60.5l28.5,141-130.5,187.1c-5.3,16.2.6,34.8-13.2,44.7l-74.3,53.3-60.7-56.5h.1Z"/>
  <path class="cls-26" d="M324.9,249v11.7l17.7,162.9-47.4,35.4-56.8,64.8s-34.8,3.3-29.1-23.3c5.7-26.6,25.4-173,44.6-198.5,15-19.9,71-52.9,71-52.9h0v-.1Z"/>
  <path class="cls-26" d="M260.9,298.9c13.7-18.1,63.8-42.6,63.8-42.6l.6,5.1,16.2,148.2-28.8,83.9-77.2,19.1s-1-4.8,4.2-29"/>
  <path class="cls-23" d="M326.4,188.3s13.5,40.4,13.3,45.9c-.2,5.5-5.6,12.2-5.6,12.2l-6.7,17.1c21.1,19.9,73.1,6.8,107.6-15.1,6.9-4.4,16.5-11.2,20.8-18.2l5-8.1s-24.2-7.2-26.4-11.3c-14-25.5-15.4-74.1-15.4-74.1"/>
  <path class="cls-23" d="M423.5,151.8l-2.9-40.7-6.2-45-23.4-35.3-34.6-9.6-37.7,6.2s-25.7,6.7-34.3,10.8c-8.7,4.1-16.9,14.7-20.8,28.2-3.9,13.6,4.2,48,4.2,48-.1.8,1.2,3.8,1.5,4.4,3.3,8,5.2,15.1,7.9,21.1,1.2,2.8,1.7,5.5,1.3,8.5-1.5,11.5-.6,16.1,1.5,22.5,2.9,8.8,8.8,14.4,12.5,21.5,3.4,6.6,9.5,14.2,14.2,20,1.5,1.9,11.7,16.9,13.3,16.6l16.7.6,32.2-4.9"/>
  <path d="M400.4,48.6c-1.3-20.3-20.4-24.4-28.4-26.4-6.8-1.7-25.6-4.1-38.1.3-5.4,1.9-.6,13.1-3.2,15.8-.9.4-11.8,5.1-16.1,6.6-5.9,2-11.2,3.8-17.2,3.6-.8-.2-4.8-.8-9.7.9-5.6,1.9-14.1-11.2-23.4,4.4-1.6,2.7,2-3,2.1,5.5-2.8-9.7-7.6,9.7.5-6.6,11.2-22.5,30.9-25.8,53.7-33.8,2.4-.8,4.9-1.6,7.5-2.3,36.8-9.7,35.7-9.2,64.6,10.9,16.8,11.7,27.7,23.9,29.1,32.6l.3,2c1.5,9.1,15.3,31.8,13.1,37.4-1.4,3.6-5.2,18.7-8.4,31.5l-17.7,3.7c-.3-3.4.8-21.4.3-24.9"/>
  <path d="M323,224.2c-.5,0-5.7.7-6,.4-7.7-10.8-19-26.6-24.3-34,4.9,13.6,17.9,32.7,23.7,41.3,2.1,3,5.4,5,9.1,5.3,14.3,1.3,27.6-1.2,41.2-5,7.2-2,9.8-3.3,10.6-3.7,12.2-9.3,30-43.5,33.3-46.5.1-.9.3-1.8.3-2.7.2-2.6.2-5.1.4-7.7.2-1.7.2-3.3,0-5,0-.4-.1-.8-.2-1.1v-.2l-.2.1c-.1,0-.2.1-.3.2,0,.9-4.7,8.6-5,9.6,0,0-27.3,33.7-28.5,34.8l-7.9,5.8c-.3,0-16.7,5.5-17,5.4-14.4-5.7-17.2-4.6-21.9-3-1.2.4-1.3.6-1.7.7-1.6.7-1.6,2-4.6,4.9-.2.2-.4.3-.6.3"/>
  <path class="cls-23" d="M414.7,138.5c1.2-29.1,4-34.2,12-36.8,0,0,9.6-2.1,11.8,6.6,2.2,8.7,4.8,21.5-2.8,35.6,0,0-2.7,25.5-15.3,13.2"/>
  <path d="M283.2,31.3c12.2-8.7,60.6-22.9,76.5-23.3,15.8-.4,50,6.4,62,34.3,12,28,11.9,26.9,13.5,57.3,0,0-2.6-2.3-9.2-8-6.6-5.7-9.2,13.3-15.4,3.9-18.6-28.5-5.6-54-14.9-62.3-4-3.6-32.5-17.5-39.9-15.6-17.9,4.5-51.3,20.4-64.6,23.1"/>
  <path d="M345.2,119.2c-1.5,1.2-1.6,3-1.7,3.4-.2,2.3,1.3,5.1,4,5.8,2,.5,4.4-.3,5.5-2.2.8-1.4,1.1-3.5.2-5.1-.7-1.3-1.7-1.9-2.1-2.1-1.6-.9-4.2-1.3-6,.2"/>
  <path d="M280.7,133.5c-1.5,1.2-1.6,3-1.7,3.4-.2,2.3,1.3,5.1,4,5.8,2,.5,4.4-.3,5.5-2.2.8-1.4,1.1-3.5.2-5.1-.7-1.3-1.7-1.9-2.1-2.1-1.6-.9-4.2-1.3-6,.2"/>
  <path d="M305.1,136.2s-11.9-4.1-17.9-3.6c-6.3.6-11.2,6-11.2,6,2.3-4.7,4.1-7.1,13-8.1,6.1-.7,16,5.8,16,5.8h0l.1-.1Z"/>
  <path d="M352.2,117.7c6.1-1.6,21.5,3.1,21.5,3.1-3.7-3.6-15.3-6.6-24-4.5-6,1.4-16.6,11.8-16.6,11.8,0,0,13.3-8.8,19.1-10.3v-.1Z"/>
  <path d="M323.9,100.7c10.3-5.1,20.9-9.1,32.3-10.4,5.6-.6,10.6,0,14,4.4.2.2,1.8,2.4,1.4,2.8-1,1-3.9-.4-4.8-.6-3.1-.7-6-.5-9.2,0-6.6,1.2-12.5,5-18.3,8.3-2.9,1.7-6.6,5.1-11,8.1-.5-1.5-1.7-5.1-2.2-6.6-.7-2-1.4-4-2.1-6.1"/>
  <path d="M266.1,112.2c-.8.6-.3,3.7,2.2,6.2.4-.2,2.9-1.2,3.4-1.4,5.8-2.2,12.3-2.1,18.5-2.2,3.1,0,7.4.8,12.3,1.2-.3-1.6-1-4.5-1.3-6.1-.4-2.1-.8-4.2-1.2-6.3-10.6.6-20.8,2.3-30.4,6.8l-3.5,1.6h0v.2Z"/>
  <path d="M338.6,205c-5.3,2-13.5-4.4-13.5-4.4l22-7.1c-2.1,5-5.2,10.3-8.4,11.5h-.1Z"/>
  <path class="cls-3" d="M319.1,169.1c-.4-.1-1.1,0-1.5.2s-.4.5,0,.6c3.7,1.1,9.3-.3,12.2-3.2.7-.7-1.3-.6-1.8-.1-2.2,2.2-6.1,3.3-9,2.5"/>
  <path class="cls-3" d="M330.8,165.8c-.3.2,0,.5.2.5.3.1.8.1,1,0,1.4-1.1,3-1.8,4.7-2.3-.3-.2-.7-.4-1-.6-.6.6-1.5.9-2.4,1.1-.3,0-.5.3-.3.5.2.3.7.2,1,.2,1.1-.2,2.1-.7,2.9-1.4.2-.2.1-.4,0-.5-.3-.1-.6-.2-.9,0-1.9.6-3.7,1.4-5.3,2.6"/>
  <path class="cls-3" d="M338.6,164.4c-.3,0-.6.3-.4.5s.9.2,1.2.1c.8-.2,1.7-.5,2.4-.9,2.6-1.2,4.4-3.3,4.3-5.7-.2-2.5-2.4-5.5-5.2-6.5-.4-.1-.9-.2-1.3,0-.3.1-.4.4,0,.5,3.2,1.1,5.6,4.8,4.5,7.8-.7,2-3.2,3.5-5.4,4.1"/>
  <path class="cls-3" d="M316.5,168.8c.3.1.2.4,0,.6-.2.2-.5.4-.7.3-1.2-.5-2.6-.7-3.8-.6.1-.3.3-.6.4-.9.6.3,1.3.4,1.9.2.2,0,.4,0,.4.4"/>
  <path class="cls-3" d="M311.8,169.1c-.2,0-.2-.3-.1-.5s.3-.4.5-.4c1.4-.1,2.9,0,4.3.6"/>
  <path class="cls-3" d="M310.1,170.1c.2,0,.4,0,.4.3s-.4.5-.7.5h-1.7c-1.9-.3-3.6-1.6-4.4-3.9-.8-2.4-.2-5,1.1-6.8.2-.2.5-.5.7-.4.2,0,.4.2.2.5-1.5,2.1-1.8,5.4-.2,7.8,1.1,1.6,3,2.2,4.5,2"/>
  <path d="M285.3,47.5c-.8,1-.5,2.5.9,2.7,1.5.2,3.3-1,4.4-.3,1.2.8-.5,2.6.4,3.7.5.7,1.8.6,2.7,1,1.1.4,1.6,1.4,2.6,1.9s2.5.4,3.7-.2c.4-.2.8-.6,1-.9.4,0,.8.2,1.1.3,1.1.4,1.6,1.4,2.6,1.9s2.5.4,3.7-.2c1.1-.6,1.7-1.7,1.5-2.7,0-.2-.2-.5-.1-.7.2-.9,2-.8,3.3-1.1,1.2.1,2.7-.4,3.4-1.1.8-.7.9-1.7,1.7-2.4.7-.6,1.9-1,2.1-1.7.4-1.1-1.8-2-.9-3.1.8-1,3-.6,4.2-1.3s1-2-.2-2.5-2.7-.5-4.1-.4h-1.6c-3.3.5-6.7,1.2-10,2h-.3c-1.1-.2-2.3,0-3.4,0-4.5.6-9.1,1.4-13.6,2.3l-1.4.8c-1.4.5-2.8,1.1-3.6,2.1h0l-.1-.1Z"/>
  <path d="M354,223.9c.7-.8.5-2-.6-2.3-1.2-.2-2.7.7-3.6,0-1-.7.5-2.1-.1-3-.4-.5-1.4-.6-2.1-.9-.8-.4-1.2-1.2-2-1.6-.8-.5-2-.5-3,0-.4.2-.7.4-.9.7-.3,0-.6-.2-.9-.3-.8-.4-1.2-1.2-2-1.6-.8-.5-2-.5-3,0-.9.4-1.5,1.3-1.3,2.1,0,.2.1.4,0,.6-.2.7-1.7.5-2.7.7-1-.1-2.2.2-2.8.8-.7.6-.8,1.3-1.5,1.9-.6.5-1.6.8-1.8,1.3-.4.9,1.4,1.7.6,2.5-.7.7-2.4.4-3.5.9-1,.5-.9,1.6,0,2,.9.5,2.1.5,3.3.5l1.3.2c2.7-.4,5.4-.8,8.2-1.2h.3c.9.2,1.8.2,2.7,0,3.7-.3,7.4-.7,11.1-1.2l1.2-.6c1.1-.3,2.3-.7,3-1.5h.1Z"/>
  <path d="M413.7,26.9c.6-1.1,2.4-.6,3.1.5.7,1.1.6,2.4,1,3.6.8,2.5,3.8,4.1,6.4,3.4-1.4,3.5-2.4,8.5,1,10.3.8.4,1.8.6,2.5,1.2,1.2.9,1.4,2.7.8,4.1-.6,1.4,1,1.4,0,2.4,2.4,1.5,5.2,4.2,3.9,6.7-.7,1.4,2.4,1.2,2.6,2.7.3,1.8.3,3,1.5,4.4,1,1.1.8,3-.1,4.2-.9,1.2,2.5,1.9,1.1,2.6-.3,2.1,0,.6,1.5,2.1,1.3,1.4,1,5.9-.7,6.7-1.7.8-1.5-.5-2.7,1.1,2.1.8,4.7,2.3,4.2,4.6-.6,2.8-5,2.7-6.4,5.1.2,2.2,3.8,1.9,5.1,3.7.8,1.2.2,2.8-.8,3.7-1.1.9-2.5,1.2-3.8,1.5"/>
  <path d="M299.8,21.8c-.3-2.2,3.7-7.2,5.9-7.1s4.6,1,6.6.2c2.5-1,3.9-4.2,6.6-4.3,1.6,0-1.9,2.3-.4,2.1,2.2-.3,3.4-3,5.6-3.5,2.7-.7,5.4,2.3,8.1,1.5,1.7-.5,2.7-2.5,4.3-3.2,3.3-1.4,7.4,2.6,10.4.6,1.3-.9,1.8-2.6,3.1-3.4,3-1.9,6.4,3.6,9.8,2.6,2.1-.6,3.4-3.2,5.6-3.2,2.4,0-.7,3,1.7,2.8,1.3-.1,2.4-1.2,3.7-1.4,3.6-.6,5.7,4.3,9.3,4.7,1.7.2,3.3-.9,5-.6,2.4.6,3.3,3.9,5.7,4.3,1.6.2,3.1-1,4.7-.7,2.5.5,3.6,4.5,6.1,4.2,1.1-.1,2.3-1.2,3.3-.7s.9,1.9,1.1,3c.5,2.2,3.4,3.4,5.4,2.3.7,1.6,3.5,9.2,4.2,10.8"/>
  <path d="M377,18.2c-13.7-2.8-20.2-1.6-34,.2-5.2.7-10.4,2.3-15.6,4.3l77.6,13.1c-8.4-11.1-14.4-14.8-28.1-17.6h.1Z"/>
  <path d="M272,37c-.8,4.2-1.5,8.3-2.2,12.5,3.2-2.5,7.4-4.2,10.5-6.6,4.3-3.2,9.5-5,14.6-6.5,10.7-3.2,21.5-9.4,32.5-13.7l-27.3-3.9c-2.9,1.4-6.3,1.6-9.3.5.6,2.8-1.9,5.9-4.7,5.9-1.1,0-2.2-.4-3.3-.2-3.8.6-5.3,7.1-9.1,6.3,1.8.9.9,3.7-.7,5-.3.2-.6.5-1,.7h0Z"/>
  <path d="M299.8,205.1s18.8,27.4,26,29.3c7.1,1.9,41.8-7.1,41.8-7.1l9.2-6.2,32-45.9c2.3,2.4.8,7.3-2.5,7.9,1.8,1.8.2,5.5-2.3,5.4,2.3,2.2.2,7-3.1,6.7,1.1,1.6,0,4.2-1.9,4.5-.8.1-1.7,0-2.3.5-.9.8-.1,2.2.1,3.4.5,2.3-1.9,4.7-4.2,4.2,1.7,2.8-1,7-4.2,6.7.4,2.8-2.5,5.5-5.2,5.1.8,2.8-1.3,6-4.1,6.4,1.6,2-.7,5.5-3.2,4.8-.7-.2-1.3-.6-2-.6-1.9.1-2.3,3.4-4.1,3.6-.8,0-1.5-.4-2.2-.7-2.2-.8-3.4-.8-3.9,1.5,0,0,0,2.2-3.1,1.8-1.8-.2-3.4-1.8-4.6-.4-.5.6-.8,1.4-1.4,1.9-1.5,1.1-3.6-.4-5.3,0-1.6.4-2.7,2.5-4.3,2.2-1.7-.3-2.1-2.9-3.7-3.6-3-1.3-5.5,5-8.5,3.7-.9-.4-1.5-1.4-2.4-1.6-1.5-.4-2.8,1.3-4.3,1.7-2.5.5-4.1-2.5-4.8-5-1,1.1-3.1.8-3.7-.6-.3-.7-.2-1.5-.7-2-.8-.9-2.9-.6-3.1-1.8-.1-.6.3-1.1.4-1.7.1-1.2-1.2-1.9-2.3-2.5s-2.1-2-1.3-2.9c-1.5-.1-3.3-.7-3.3-2.2,0-.5.3-.9.3-1.4,0-1.3-1.5-2.1-2.6-2.8s-2-2.6-.8-3.2c-2.3-2.7-2.9-6.2-4.3-9.4h0l-.1.3Z"/>
  <path d="M329.6,25.6l1.1,12.7c.8-2.2,2.5-8.8,4.3-10.2.4-.3.9-.6,1.4-.6,1.2,0,1.9,1.2,2.7,2,2.2,1.9,6.4.1,6.4-2.8.9,1.9,3.3,2.5,5.3,2.1,2-.5,3.7-1.8,5.2-3.1-.8,1.5,1,3.4,2.7,3.4s3.3-1,4.9-1.7,3.6-1.2,4.9,0c.6.5,1,1.2,1.7,1.6,2.5,1.3,6.2-3.1,7.8-.8.6.9.2,2.3.9,3.1,1,1.2,2.9.1,4.4-.3,3-.8,6.1,6.9,5.6,10,1.6-1.1,3.7.7,4.2,2.6.5,1.8.3,3.9,1.3,5.5s3.1,3.1,2.2,4.7c-.4.8-1.4,1.1-2,1.9-1.6,2.1,1.7,4.9,1.2,7.5-.3,1.5-1.7,2.5-2.1,4-.7,3,3.4,5,4.2,8,.7,2.7-1.3,5.7,0,8.2.6,1.3,2,2.1,2.8,3.3,1.7,2.8-.3,6.8,1.6,9.4.3.4.6.7.9.9h0s-.6,5.2-.6,10.1,2.5,6.8,2.5,6.8c-1.8.8-2.1,3.6-.6,4.9,1,.8,2.6,1.2,2.7,2.4,0,1-.9,1.6-1.4,2.4-1,1.6-.1,3.6.9,5.1s2.3,3.1,2.1,4.9c0,.8-.3,1.8.4,2.1.3.1.6,0,.9,0,1-.3,1.9-.5,2.9-.8l-3.5-42.9h0l2.2-29.5-16.6-34.7-31.6-12.6-34.2,10.6h0l.3-.2Z"/>
  <path class="cls-18" d="M377.7,111.8l36.7,4.5-.9-4-44.1-3.9h0c-16.1-2.9-36.3,5.3-47,15.4l-10.7,2.6v-.2c-14.2-6.8-35.3-4.2-49.9,6.2l.7,1.6h0c0,.1.2.3.3.7l.7,1.4c4.2,8.8,8.8,18.1,12,20.2,2.1,1.4,8,1.1,12.9.6,1.8-.2,3.5-.4,4.7-.6,1.4-.2,14.2-2.2,15.9-4.6,1.7-2.4,2.6-17.7,2.7-22.5l10.9-2.6c2.1,3.3,7.9,18.2,13.9,20.3,6,2.1,33.3-4.5,35.1-8.8,1.3-3.1,4.6-13.9,5-19.3l1-7h.1ZM307.5,150.4h0c-1.9,2.4-27.2,6.6-30.9,4.2-3.1-2.1-9-14.7-11.3-19.4v-.2c13.1-8.5,32.1-10.9,44.5-5.2-.4,8.3-1.3,19.1-2.4,20.6h.1ZM368.2,137.5h0c-1.1,2.7-24.8,9.5-31,7.4-4.3-1.5-8.7-12.3-11.8-18.5,10.5-9.7,34.5-17.7,48.9-14.2-.9,8.4-2.8,18.6-6.2,25.3h.1Z"/>
  <path d="M357.3,170.4h0c.2.2.7.6,1,.6s.4,0,.2-.3c-.9-.9-2.1-1.6-3.3-1.8-.7-.1-1.4,0-2.1,0s-.3.2-.7-.2c-.2-.2-.5-.4-.7-.6-1.2-.8-2.2-.5-3.5-.2-.8.2-1.5.3-2.3.3-.9,0-1.4-.3-2.2-.7-.4-.2-.9-.4-1.4-.4-.7,0-1,.5-1.5.9-.8.7-1.4.4-2.1-.1-.5-.4-1.1-.7-1.8-.8-1.2-.3-2.6-.1-3.8.5-.4.2-.9.5-1.4.7-.2.1-.5.2-.7.3h-.3c-.5,0-.3.2.6.5-.2-.2-.7-.5-1-.6-.3,0-.4,0-.2.3,1.4,1.6,3.1.2,4.6-.5.7-.3,1.4-.5,2.2-.4.9,0,1.5.5,2.2.9.9.5,2,.9,2.8.1.7-.6,1-1.1,2-.8.6.2,1.1.6,1.7.8,1.2.4,2.6,0,3.8-.2.7-.2,1.5-.6,2-.1.4.4.8.7,1.3.9,1.5.7,3.2-.6,4.6.8h0v.1Z"/>
  <path d="M318.1,172.7h0c.4,0,.4-.3.3-.6-.2-.3-.7-.5-1-.5-2.2,0-2.5,2.7-4.2,3.4-.4.2-.9.2-1.3.5-.6.3-.7.8-.9,1.4-.4,1.3-1.8.8-2.9.8-1.3,0-1.8.7-2,1.9,0,.7-.2,1.4-.9,1.8-.5.3-1,.3-1.5.5s-1.1.5-1.4,1-.2.9-.2,1.5c0,.8-.4.8-.9,1.2-.3.3-.4.5-.3,1,.1.6,1.7,1,1.5.2,0-.2.9-.7,1-.8.3-.3.4-.7.3-1.1,0-.7-.1-1.2.6-1.6.5-.3,1.1-.4,1.7-.6,1-.4,1.6-1,1.7-2,0-.5,0-1.4.7-1.7.5-.2,1.2,0,1.7,0,.8,0,1.8,0,2.3-.8.3-.5.2-1.2.7-1.5.4-.3,1-.3,1.5-.5.8-.4,1.3-1.1,1.8-1.7s1-1.5,1.9-1.5h0l-.2-.3Z"/>
  <path class="cls-26" d="M435.6,213.7c-1.2,11.4-15.2,25.8-15.2,25.8-21.8,21.2-29.7,26.1-62.1,25.3-36.4-.9-17.2-28-17.2-28l-51.2,36c-1.4,4-12,11.7-12,11.7l-4.9,76.9,13.7,162.4c1.6,52.5,11.7,71.6,14.6,111.4l79.5,25.2c30.8,1.1,61.6-2.2,91.5-9.7l61.2-15.4c-5.7-38.5-13.7-76.7-24-114.3-15.6-56.5-15.6-131.4-15.3-141.5.4-20.8,85.9-99.2,62.8-121.5-15.4-14.9-85.4-33.6-105.9-39.9l-15.3-4.6h0l-.2.2Z"/>
  <path class="cls-26" d="M570.1,362.8l-151.2-13.5s-146.7,38.8-142.2,146.3c4.3,104.2,4.8,142.8,7.4,173.8,3.4,35.9,77.6,41,131.7,41.9,54.1.9,180.1,14,184.7-56.9,1.6-25.1.3-76.6-7.9-115-8.2-38.4-22.5-176.5-22.5-176.5h0v-.1Z"/>
  <path class="cls-7" d="M256.5,371.5h0c-.2-.7-1.7-1-1.5-.2,2.4,10,4.5,20.1,6.2,30.2,3,17.1,5,34.3,7,51.5,2,17.9,4,35.8,6.6,53.6.1.7,1.6,1.1,1.5.2-1.5-10.2-2.8-20.4-4-30.6-2-17.2-3.8-34.5-6.1-51.7-2.4-17.8-5.5-35.5-9.7-52.9h0v-.1Z"/>
  <path class="cls-26" d="M436.9,213.1l15.1,4.1s-1.7,5.6-14.7,23c-10.9,14.6-30.8,28.9-47.3,33.8-28.1,8.5-52.4,4.5-59.8-4.4-7.5-8.9-5.2-20.7-5.2-20.7l15-11-4,8.5s-4.6,23.7,40.6,16.9c45.2-6.8,60.4-50.3,60.4-50.3h0l-.1.1Z"/>
  <path class="cls-2" d="M437.7,213.5c.2-.5-1.3-1.1-1.4-.8,0,0,0,.2-.1.3-.8,1.9-1.6,3.9-2.5,5.7-1.9,3.8-4,7.4-6.4,10.9-7,10.2-16.1,19.1-26.9,25.1-6.8,3.8-14.1,6.4-21.7,7.8-8.2,1.5-16.9,2.3-25.2,1.1-4.5-.6-9.2-2-12.6-5.2-2-1.9-3.4-4.4-4-7.1-.3-1.3-.5-3.2-.2-4.4.2-1,.9-1.9,1.3-2.8.9-1.9,1.8-3.9,2.8-5.8.2-.4-1.1-1-1.4-.8s-.5.4-.8.6c-3.8,2.8-7.6,5.5-11.4,8.3l-2.1,1.6c-.2.2-.6.3-.8.6-.2.3-.1.8-.2,1.1-.1.9-.2,1.9-.2,2.9,0,6.3,1.8,13.1,6.3,17.7,3.9,4,9.7,6.1,15.1,7.3,7.9,1.8,16.1,1.9,24.1,1.1,9.4-.9,18.9-2.9,27.6-6.6,8.1-3.4,15.7-8.1,22.6-13.4,6.8-5.2,13.2-11.2,18.3-18.1,4.3-5.8,8.6-11.7,12.2-18,.9-1.6,2-3.3,2.5-5,.1-.4-.7-.7-1-.8-.6-.2-1.3-.3-1.9-.5-4.4-1.2-8.8-2.4-13.1-3.6-1-.3,0,.7.5.8.6.2,1.3.3,1.9.5,4.4,1.2,8.8,2.4,13.1,3.6l-1-.8v.2c-.4.7-.7,1.5-1,2.2-.9,1.7-1.9,3.4-2.9,5-1.7,2.8-3.6,5.6-5.5,8.3-2.5,3.6-5.1,7.3-8,10.7-5.6,6.7-12.3,12.5-19.4,17.5-6.8,4.8-14.1,9-22,11.8-8.8,3.2-18.4,5-27.8,5.6-7.6.5-15.5,0-22.9-2.1-2.7-.8-5.3-1.8-7.7-3.4-2.4-1.6-4.2-3.7-5.6-6.2-2.7-4.8-3.6-10.7-3-16.1,0-.3,0-.5.1-.8,0,0,0-.3,0-.2.2-.3.7-.5.9-.6l5.1-3.7c3-2.2,6-4.4,9-6.6l-1.4-.8-.9,1.9-1.9,3.9c-.4.8-.9,1.7-1.2,2.6,0,.3-.1.6-.1.9-.2,1.9.1,3.9.8,5.8,3.1,8.6,13.2,11.5,21.4,12.2,4.1.3,8.2.2,12.3-.1,4.7-.4,9.4-1,13.9-2.1,7.5-1.8,14.6-4.8,21.1-8.8,10.4-6.4,19-15.5,25.5-25.7,2.9-4.6,5.7-9.5,7.5-14.6h0l.3-.1Z"/>
  <path class="cls-22" d="M419.6,129.6h0c0,.5.9.9,1,.3.7-3.5,1.5-7.1,2.6-10.5,1-3,2.3-6.3,4.4-8.8.5-.6,1.2-1.4,2-1.5h-.6c.9.5,1.6,1.5,2.1,2.5,1.6,2.8,2.2,6,2.2,9.2,0,.5,1,.8,1,.3,0-4-.9-8.1-3.5-11.3-.5-.6-1.2-1.7-2.1-1.4-.9.3-1.6,1.1-2.1,1.8-1.5,1.8-2.6,4-3.4,6.1-1.7,4.3-2.8,8.8-3.7,13.3h.1Z"/>
  <path class="cls-22" d="M423.1,130h0c-.7,0,0,.9.4.8,1.5-.2,1.9.7,2.1,2,.2,1.5.1,3,0,4.4,0,1.1-.1,2.2.2,3.3.2.8.9,1.7,1.8,1.4,1-.3,1.3-2,1.5-2.9.6-2.3.8-4.7.9-7,.1-2.3-.2-4.5-.9-6.7-.8-2.7-2.2-5.6-5.1-6.5-.7-.2-.7.6,0,.8,3,.9,4.1,4.9,4.7,7.6.5,2.5.4,4.8.1,7.4-.2,1.8-.4,3.9-1.2,5.6-.1.2-.2.5-.4.7,0,.1-.3.1-.1.2-.3,0-.4-.7-.4-.9-.6-2.8,1.6-11.2-3.7-10.4h0l.1.2Z"/>
  <path d="M316.6,180.8c.3.9-.2,2-.9,2.7-.7.7-1.6,1.2-2.4,1.7-1.6,1.1-3,2.6-3.4,4.5-.4,1.9,0,3.2-1.3,3.9-.5.3-1.2.4-1.3,1,0,.3.1.6.2.8.1.7-.4,1.4-1,1.7s-1.4.3-2.1.3c-.2,0-.5,0-.6-.1-.2-.1-.3-.3-.4-.5-.5-.9-.9-1.8-1.4-2.7-.3-.6-.6-1.2-.7-1.8-.3-1.8.7-3.5,1.7-5"/>
  <path class="cls-5" d="M331,179c-9.5,2.4-21.7,4-21.7,4,0,0,4.6,23.3,26.6,17.6,22-5.7,19.7-29,19.7-29,0,0-15.1,5-24.6,7.4h0Z"/>
  <path class="cls-17" d="M330.5,179.1l-19.5,1.7s2.6,14.4,20.7,11.8c16.7-2.3,20.6-17.1,20.6-17.1,0,0-17.1,3-21.7,3.6h-.1Z"/>
  <path class="cls-4" d="M330.8,180l-18.7,4.2s5.6,3.3,19.4-.3c13.9-3.6,17.8-9.4,17.8-9.4,0,0-13.9,4.3-18.5,5.5h0Z"/>
  <path class="cls-5" d="M307.5,183.6c-.6.3-1.9,4.7,24-1.9,25.9-6.7,26.1-11.5,25.4-11.5-.5,0-3,1.5-5.4,1.9-3.9.7-11,1.5-13.8,2.1-4.8.9-7.4,3.3-9.5,3.9-2.1.5-5.5-.4-10.2,1.2-2.7.9-3.5,2.2-7.2,3.5-2.3.8-2.8.7-3.3.9h0v-.1Z"/>
  <path d="M329,171.1c-.4-1,.2-2.1,1.2-2.3,4-.8,13.6-.8,17.1-.7,2.8.1,7.4.6,12.6,1.5,1.7.3,4,5.7,2.4,6.3l-1,.3v-1.9c-4.5.9-23.7,2-28.7,2.3-.7,0-1.4-.4-1.7-1.1l-1.8-4.5h0l-.1.1Z"/>
  <path d="M321.3,172.9c-.2-1.1-1.2-1.7-2-1.3-3.2,1.4-9.2,5.9-11.6,7.8-1.9,1.6-3.9,3.7-7,7.2-1,1.2-.5,4.7,1,4.5l1.2-.2h.3c3.5-1.5,15.4-9.5,19-11.9.5-.4.8-1.1.6-1.8l-1.5-4.1h0v-.2Z"/>
  <path d="M344.4,174.2c.2,1,1.1,1.6,2.1,1.9.9.3,1.9.2,2.9.3,1.9.1,3.9.8,5.2,2.3.9,1.1,1.6,2.7,3.1,2.7.6,0,1.3-.2,1.6.2.2.2.2.5.3.8.2.7,1,1,1.7,1s1.4-.4,2-.7c.2-.1.4-.2.5-.4v-.6c0-1,0-2-.1-3.1,0-.7,0-1.3-.3-2-.6-1.7-2.4-2.7-4-3.5"/>
  <path class="cls-26" d="M617.1,558.4h-4.6l-120.7-98.2-17.6-150.4s22.3-69.6,54.5-64.7c32.2,5,44.8,23,61.3,95.8,11.8,63.1,27.3,129.5,29.8,163.6,3.6,28.5,4.3,46.5,4.3,46.5l-6.9,7.4h-.1Z"/>
  <path class="cls-26" d="M583.1,600.6l-17.2-90.9s54.1,5.8,57.7,34c4.9,38.8-40.5,56.9-40.5,56.9h0Z"/>
  <path class="cls-8" d="M311.85,526.56l-.8,9s67.35,23.9,126.21,42.03c9.46,2.91,19.34,4.1,28.92,6.57,78.6,20.23,114.01,16.64,114.01,16.64,0,0,17.9-4.7,19.3-9.7"/>
  <path class="cls-24" d="M41.5,357.3l-.4,1.5c1,9.3,4.4,15.6,11.8,17.6,0,0,2,18.5,19.7,20.3,15.4,1.6,20.9-5.1,20.9-5.1,0,0,6.4,4.8,10.2,4.4,8.6-.8,14.2-11.7,12.4-18.6-1.8-6.9-3.5-17-3.5-17,0,0-.7-7.4-3.1-12.6-2.4-5.2-11.3-9.9-11.3-9.9,0,0,3.2-9.8-1.1-11.8-4.3-1.9-14-2.7-14-2.7,0,0-6.5-7.5-15.2-2.6,0,0-7.2-1.3-10.1,7.7-.7,2.4-1.1,4.9-1.2,7.4,0,0-3.5-.5-9.6,4.4-2.6,2.1-6.3,9.8-5.5,17h.1-.1Z"/>
  <path class="cls-25" d="M40.7,357.4c-.2.4-.3.9-.4,1.4,0,.8,0,1.7.3,2.5.3,1.9.8,3.8,1.4,5.7,1,3,3,5.7,5.6,7.6.7.5,1.4.9,2.1,1.2.4.2.7.3,1.1.5.4,0,.8.2,1.2.4,0,0,0-.2,0,0v.5c.2,1.4.6,2.9,1.1,4.2,1.5,4.8,4.5,9,8.6,12.1,6,4.2,14.5,4.6,21.5,3.3,3.7-.7,8.3-2.2,10.9-5.2l-1.4.3c2.9,2.1,6.8,4.7,10.6,4.6,5-.2,9.3-3.9,11.7-8.1,1.2-2.2,2-4.6,2.2-7.1s-.5-4.9-1.1-7.3c-1-4.5-2-9-2.7-13.6-.6-4.4-1.2-8.9-3.3-13-2.1-4.1-6.5-6.9-10.3-9.2-.2-.2-.4-.3-.7-.4-.4,0,0-.1,0,.1.1-.4.3-.8.3-1.2.5-1.8.8-3.7.8-5.6s-.3-3.8-1.8-4.8c-1.8-1.3-4.6-1.6-6.7-2-2.1-.4-4.4-.7-6.6-.9-.4,0-.9-.1-1.3-.1.4,0,.4.3.2,0-.1-.2-.3-.3-.5-.5-3-2.9-7.3-4.2-11.6-3.5-1.4.3-2.8.9-4.1,1.6l.9-.2c-2.3-.3-4.6.2-6.5,1.5-4.6,3-5.8,9-6,14.2l1.2-.5c-1.1,0-2.2,0-3.2.4-2.8.9-5.4,2.4-7.6,4.4-1.8,1.9-3.2,4.2-4,6.7-1.3,3.3-1.8,6.9-1.5,10.4,0,.5,1.6.2,1.5-.4-.2-3.1.2-6.3,1.2-9.3.7-2.5,1.9-4.7,3.6-6.7,1.9-1.9,4.1-3.3,6.6-4.1.6-.2,1.3-.4,2-.5.1,0,.8,0,.6,0,.3,0,1.2,0,1.2-.5.3-5.2,1.6-12.8,7.5-14.5.9-.2,1.8-.3,2.6-.2,1.3,0,2.5-1,3.8-1.3,1.5-.3,3-.3,4.5,0,2.1.5,4,1.5,5.6,2.9.7.6.9,1,1.8,1.1,2.1.2,4.2.5,6.3.8,1.3.2,2.7.5,4,.8,1.2.2,2.4.6,3.4,1.3,1.8,1.5,1.6,4.5,1.3,6.6-.2,1.5-.5,3.1-1,4.5,0,.1,0,.2.2.3,3.9,2.1,8.1,5,10.6,8.7,2.6,4,3,9.2,3.7,13.9.9,5.6,2.1,11.2,3.5,16.7,1.4,5.5-1.5,12-5.7,15.5-1.3,1-2.8,1.8-4.4,2.2-1.6.3-3.3.1-4.9-.6-2.2-.9-4.2-2.1-6.1-3.5-.5-.2-1.1-.1-1.4.3-.3.3-.7.6-1,.9-1,.8-2.2,1.5-3.4,2-4.8,2.1-10.3,2.4-15.6,1.8-4.7-.4-9.2-2.5-12.6-5.9-2.3-2.5-4.1-5.5-5.2-8.7-.7-1.7-1.1-3.5-1.3-5.4,0-.1-.2-.2-.3-.2-3.9-1.1-7.1-3.7-8.8-7.3-.9-1.9-1.6-3.8-2-5.9-.3-1.2-.5-2.4-.6-3.7,0-.6.2-1.2.4-1.8.1-.6-1.3-.3-1.5.2l-.3-.2-.2-.2Z"/>
  <path class="cls-23" d="M122.1,386.1l-21.5,15.2s59.3,75,89.7-1.8l-39.2-20.1-29.1,6.7h.1Z"/>
  <path class="cls-24" d="M215.8,310.3l-1.2-1c-8.9-2.9-16-2.3-20.8,3.6,0,0-11.9-4-20.7,11.6-7.6,13.5-3.7,21.2-3.7,21.2,0,0-7,3.9-8.2,7.5-2.8,8.1-.5,22.9,6.4,24.1s8,4.3,8,4.3c0,0,10.9,1.9,16.5,1.7,5.6-.2,13.5-6.8,13.5-6.8,0,0,12.7.3,16.2-2.8,3.5-3.1,4.7-12.3,4.7-12.3,0,0,13-2.3,12-12.2,0,0,4.1-6-2.9-12.5-1.9-1.6-4-3-6.3-4.1,0,0,1.9-3-.1-10.6-.9-3.2-6.5-9.7-13.3-12h0l-.1.3Z"/>
  <path class="cls-25" d="M216.5,310c-.4-.4-.8-.7-1.2-1-1.2-.5-2.5-.9-3.8-1.1-2.4-.6-4.9-.8-7.3-.6-4.3.3-8.2,2.3-11,5.6l1.3-.4c-4.2-1.4-9.2-.1-13,2.1-4.3,2.6-7.4,6.7-9.8,11.2-2.4,4.3-3.8,9-4,14-.1,2.1.2,4.1,1,6l.3-.4c-2.5,1.4-4.8,3.1-6.7,5.1-2.4,2.6-2.8,6.4-2.9,9.8-.2,3.9.5,7.8,1.9,11.5,1.1,2.6,3,5.1,5.9,5.7,2.2.5,4.6,1,6.4,2.5.6.4,1,1,1.3,1.6,0,.1.2.2.3.2,4.1.7,8.2,1.3,12.4,1.6,2.4.3,4.9.2,7.3-.3,2.6-.8,5-2,7.3-3.6,1.4-.9,2.8-1.9,4.1-3l-.9.3c3.8.1,7.6-.2,11.4-.9,2-.4,4.2-.9,5.8-2.3,1.9-1.7,2.8-4.4,3.5-6.7.5-1.8,1-3.7,1.2-5.6l-.9.5c3.9-.6,7.5-2.5,10.3-5.2.9-1,1.7-2.2,2.1-3.5.2-.6.3-1.3.4-2v-1.7c.2-.7.7-1.4.9-2.1.4-1.4.4-2.8,0-4.2-1.1-5-6-8.2-10.3-10.4v.3c.6-1,.9-2,.9-3.1.3-2.9-.1-5.8-1.2-8.5-1.1-2.3-2.8-4.4-4.7-6.1-2.4-2.2-5.2-3.9-8.3-5-.4-.1-1.8.5-1.2.7,3,1,5.8,2.7,8.1,4.9,1.9,1.6,3.5,3.7,4.6,6,1.1,2.6,1.5,5.5,1.2,8.3,0,1-.3,2-.7,2.9v.3c5.9,3,12.8,8.6,9.3,16-.2.8-.3,1.7-.2,2.5-.1,1.4-.6,2.7-1.4,3.8-1.4,2-3.4,3.5-5.7,4.4-.9.4-1.9.7-2.8,1l-.9.2c-.3,0,0,0-.2,0s-.8.2-.9.5c-.4,3.1-1.2,6.1-2.4,8.9-.6,1.7-1.9,3.1-3.5,3.9-1.8.7-3.8,1.1-5.7,1.3-1.9.2-3.7.3-5.6.4h-2.5c-.8,0-1.6.9-2.3,1.4-1.7,1.3-3.4,2.4-5.2,3.4-2,1.2-4.2,1.9-6.6,2-2.3,0-4.6-.2-6.9-.5-2.1-.2-4.2-.5-6.4-.9l-1.7-.3h-.5c-.2,0,.2.3.2,0-.3-.8-.9-1.4-1.5-1.9-1.7-1.2-3.7-2.1-5.8-2.4-1.8-.2-3.5-1.2-4.6-2.7-1.1-1.6-2-3.3-2.5-5.2-1.4-4.9-1.5-10-.3-15,1-3.8,4.9-6.4,8.2-8.3,0,0,.4-.2.3-.4-.5-1.2-.9-2.6-.9-3.9-.2-3.9.4-7.8,1.9-11.6,2.9-7.5,8.8-16.5,17.7-17.2,1.4-.1,2.9,0,4.3.4.5.1,1,0,1.3-.4,2.4-3,6-4.8,9.9-4.9,2,0,4,.2,6,.7,1.2.2,2.3.5,3.4,1,.4.3.8.6,1.1.9.3.2,1.8-.4,1.4-.7v.3-.1Z"/>
  <path class="cls-11" d="M213.3,308.4s20.3,2.7,22.6,15.6l.5,9s9.3.6,9.7,7"/>
  <path class="cls-23" d="M105.4,337.6s14.1,28.3,5.8,47.8c-1.6,3.7-10.6,15.8-10.6,15.8l23.5,10.9c28.3,9.7,24.1,3.5,49.6-12.1l7.5-1.5s.7,1.6-.6-2.9c-1.3-4.5,1.3-40.1,1.3-40.1"/>
  <path class="cls-14" d="M75,298.2s-33.7-56.5,4.1-65.2c1.4-5,4.3-9.5,8.3-12.9,8.2-7,18.4-2.9,18.4-2.9,0,0,6.9-8.9,15.5-9,8.5-.1,12.6,4.1,12.6,4.1,0,0,8.9-6.4,16.9-4.2,8,2.2,14.2,8.5,14.2,8.5,0,0,5.9-2,10-.9,9.8,2.7,14.4,22.8,16.8,29.7,0,0-11.7-22.9-20-22.4s-76.2,29-76.2,29l-9.5,66.8-11.3-20.7h.2v.1Z"/>
  <path class="cls-19" d="M134.3,365.1s5.6,7.8,37.3,14.8c0,0,8.1.2,9-.7v-7.4c.1,0-46.3-6.5-46.3-6.5h0v-.2Z"/>
  <path class="cls-23" d="M115.4,355.8c15.1,10.7,44.8,21,62.3,20.6,17.2-.4,21.4-7.1,23.1-10,9.4-16.2,14.5-31.5,15.7-48.2.1-4.6-.5-9.3-2-13.7-2-6.9-6.4-20-7.9-26.7-3.7-17.1-14.7-30.1-27.3-42.3-26.4-25.3-67.4-16-82.8-3.8-18,14.3-22.6,35.9-19.1,57,1,6.5,3.2,12.8,6.3,18.5,3.6,2.5,6.8,5.3,9.8,8.5"/>
  <path class="cls-24" d="M177.1,228.6s6.8,9.2,20.5,28c-3.7-6.1-7.1-15.8-14.9-23.7-26.9-27.6-84.2-9.9-99.5,2.9-17.8,15.1-20.5,37.6-16.6,60.3,1.6,9.2,2.5,15.1,7,22,.2,0,2.1,1.4,2.1,1.4,0,0,19.1-.7,27.7,9l-2-9.7s-.8-6-1-29.3c0,0-.4-3.6,2.6-19.1s8.5-21,8.5-21c0,0,28.6-11.8,35.8-13.3,7.1-1.5,29.6-7.4,29.6-7.4h0l.2-.1Z"/>
  <path class="cls-25" d="M176.4,228.9c4.1,5.6,8.2,11.3,12.4,16.9l8.1,11.2c.3.4,1.7,0,1.4-.6-2.5-4.2-4.4-8.7-6.9-13-2.6-4.7-5.9-8.9-9.9-12.7-6.1-5.3-13.4-9-21.3-10.9-16.3-4-34-1.9-49.8,2.8-6.8,1.9-13.5,4.6-19.8,7.8-6.4,3.4-12,8.2-16.3,14.1-12.6,17.4-11.3,40.1-6.9,60.1,1,4.6,2.5,9.4,5.2,13.4.4.5.9.9,1.5,1.2.4.3.8.5,1.2.6h1.5c7.1.1,14.7,1.3,20.9,4.9,1.8,1,3.4,2.4,4.8,3.9.3.3,1.6,0,1.5-.5-.7-3.2-1.5-6.5-2-9.8-.3-2.6-.5-5.3-.5-7.9-.3-7.1-.3-14.3-.5-21.4,0-4.2.6-8.3,1.4-12.5,1.4-8.1,3-16.7,7.2-23.9.5-.8,1-1.6,1.5-2.3.2-.2.8-.8.9-1.1,0,0-.6.2,0,0s1.1-.4,1.6-.6c10.2-4.1,20.6-8.5,31.2-11.9,4.9-1.5,10-2.5,15.1-3.7,5.3-1.3,10.8-2.7,16.1-4l.9-.2c.9-.2.7-1-.2-.7-9.9,2.5-19.9,5-29.9,7.4-5.1,1.4-10.1,3.1-15,5.1-5.6,2.1-11.2,4.3-16.7,6.5-1.3.5-2.6,1-3.9,1.6-.6.4-1.1.8-1.4,1.4-3.8,5.1-5.8,11.7-7.2,17.8-1,4.5-1.8,9.1-2.4,13.9-.3,2.1-.5,4.2-.6,6.3-.2,5.8.1,11.8.3,17.7.1,4.1.2,8.1.6,12.3.4,2.9,1,5.7,1.7,8.5l.4,2,1.5-.5c-5.2-5.8-13.5-7.9-21-8.7-2.2-.3-4.5-.4-6.8-.4h-.4c.6.1,0-.2-.2-.3l-1.1-.7c-.8-.7-1.4-1.5-1.8-2.5-.6-1.1-1.1-2.2-1.6-3.4-1.9-4.6-2.8-9.5-3.6-14.4-1-5.2-1.6-10.6-1.8-15.9-.4-10,1-20.4,5.2-29.5,3.5-7.8,9.2-14.5,16.4-19.2,5.5-3.4,11.4-6.1,17.5-8.1,15.3-5.3,32.4-8,48.5-5.6,8,1.1,15.8,4,22.5,8.5,8.3,5.8,13.4,14.5,17.9,23.3.9,1.8,1.9,3.6,2.9,5.4l1.4-.6c-6.4-8.8-13-17.8-19.4-26.6l-1-1.4c-.3-.4-1.7,0-1.4.6l.2.3h-.1Z"/>
  <path class="cls-23" d="M111.1,347.6c-6.6,10.9-17-1.4-17-1.4-10.7-8.1-15.2-18.5-16.6-25.9-1.4-7.4,6.7-9.1,6.7-9.1,7-.8,6.2.2,19.9,17.6"/>
  <path class="cls-27" d="M97.8,330.2c-2-3.1-4.3-6-6.9-8.7-1.3-1.4-2.8-2.6-4.5-3.6-.7-.4-1.5-.7-2.4-.8h-.4c-.7,0-.8.7-1,1.2-1.2,3.2-.5,6.9.8,9.9.2.5,1.3.1,1.2-.3-1.1-2.4-1.5-5.1-1.3-7.7,0-1,.4-1.9.8-2.7l-.6.3c.1,0,0,0,0,0h.3c.5.1,1,.3,1.4.5,2.4,1.3,4.5,3.1,6.2,5.3,1.9,2.2,3.7,4.6,5.3,7,.2.4,1.4,0,1.1-.5h0v.1Z"/>
  <path class="cls-27" d="M98.2,333.6c-4.6,1.3.4,6.6.8,9.2v.6h.3c-.3-.2-.7-.5-1-.8-.9-1.1-1.8-2.2-2.4-3.5-1.1-1.7-1.9-3.5-2.3-5.5-.5-2.3-1-5.6.9-7.4.5-.5-.6-.6-1-.3-1.8,1.7-1.8,4.4-1.4,6.7.3,1.9.9,3.8,1.9,5.5.8,1.5,1.7,3,2.8,4.4.5.6,1.2,1.5,2.1,1.6,2.3.2.9-2.9.5-3.8-.6-1.2-3.2-5.3-.9-6,.7-.2.5-.9-.2-.7h-.1Z"/>
  <path class="cls-24" d="M146,298.3c-2.2-.5-4.2,1-5.2,2.5-.5.8-.8,1.7-.9,2.7,0,1.7,1,3.3,2.5,4.3,1.8,1.1,4.1.8,5.7-.5,1.9-1.8,2.2-4.6.9-6.8-.7-1.1-1.7-1.9-3-2.2"/>
  <path class="cls-24" d="M158,303.7s-9.6-8.2-16.9-6.2c-10.2,2.8-11.1,9.4-12.4,13.2,0,0,4.6-9.1,12.7-11.1,7.2-1.8,16.7,4.1,16.7,4.1h-.1Z"/>
  <path class="cls-24" d="M195.7,283.5c1.7-1.5,4.2-1.3,5.8-.5.9.4,1.6,1.1,2.1,1.9.8,1.5.9,3.4,0,4.9-1,1.8-3.1,2.8-5.1,2.4-2.5-.6-4.3-2.8-4.2-5.4,0-1.3.5-2.5,1.4-3.4"/>
  <path class="cls-24" d="M183,296.9s3.5-11.9,10.2-13.8c9.4-2.6,13.4,2.7,16.3,5.2,0,0-8.1-5.6-15.5-3.4-6.6,2-11.2,11.9-11.2,11.9h.1l.1.1Z"/>
  <path class="cls-24" d="M205,272s-.6-1.5-.6-1.6c-.8-.5-1.8-.9-2.7-1.1-7.5-2.3-11.4-2.3-23.2-.2v.3c-.1,1.5,0,.7-.1,2.1,0,1.1-.2,2.3-.2,3.4,3.6-.7,6.1-1.6,8.4-1.8,4.5-.5,9.8-1.7,14.3-.6,1.7.3,3.4.9,4.9,1.8,0-1-.8-1.3-.7-2.3h-.1,0Z"/>
  <path class="cls-24" d="M149.9,279.3c.8,1.3.3.6,1.1,1.9l1.7,3c-3.6,1-6.4,1.4-8.6,2.3-4.4,1.7-9.8,3.1-13.6,6.1-1.8,1.4-4.3,3.1-4.6,5.7-.1.7.2,3.3-.8,3.4-.4,0-.8-1.9-.9-2-.8-3.8,1.1-6.8,4.1-9.5,6-5.6,9.5-7.4,21.6-11.1"/>
  <path d="M184.5,323.9c-1.9,1.5-4.5,2-6.8,1.3-.5-.1-1.8.5-1.1.7,3.2.8,6.6,0,9.2-2,.2-.2.1-.4-.2-.4s-.8.1-1.1.3"/>
  <path d="M175.5,325.6c-1.5-.2-2.9-.2-4.4,0-.2,0-.4.2-.6.4,0,.1,0,.3.1.3.8.2,1.6.2,2.4,0,.2,0,.6-.2.6-.5s-.2-.3-.4-.2c-.6.2-1.3.2-1.9,0l-.5.7c1.3-.2,2.6-.2,3.9,0,.3,0,.5,0,.7-.3.1-.1.2-.4,0-.4"/>
  <path d="M169.8,327.3c-1.7.4-3.8.2-5-.9-1.7-1.6-1.4-5.1.4-6.8.2-.2,0-.3-.2-.3-.3,0-.6.2-.8.4-1.5,1.7-2,4.1-1.3,6.2.7,1.6,2.6,2.3,4.7,2.3s1.3,0,1.9-.2c.2,0,.7-.2.8-.5s-.2-.3-.4-.2"/>
  <path d="M187.3,322.3v-.3h0c.5-.1.9-.4,1.2-.8l.6.4c-.9.3-1.7.9-2.4,1.6-.2.1-.4.2-.6,0-.1,0-.3-.2-.2-.4"/>
  <path d="M186.1,322.9c.7-.8,1.6-1.4,2.7-1.8h.5c.1,0,.2.2,0,.3h0"/>
  <path d="M190.8,321.6c1.2-.4,2.2-1.5,2.4-2.8.2-2.1-.9-4-2.7-5-.1,0-.1-.2-.1-.3h.1c.2-.2.4-.2.6-.1,1.6.8,2.7,2.3,2.9,4.1.3,1.5-.4,3.1-1.6,4-.3.3-.7.4-1.1.6-.2,0-.4,0-.6-.1-.1-.2,0-.3.1-.4"/>
  <path class="cls-14" d="M181.4,221.4c-3.8-1.8-11-3.7-17.1-3-.2,0-.5,0-.7.1l-3,1.8h-.1.1c.5-.4,1.7-1.2,1-1.9-.4-.3-.9-.5-1.4-.5-1.5-.2-3.1-.3-4.6-.2h-1c-1.5.1-3,.3-4.5.7-.5.1-1,.3-1.4.7-.6.7.7,1.4,1.2,1.7h.1-.1l-3.2-1.4h-.8c-7.6,0-19.1,6.8-20.1,7.8s-.2,2.5-.1,2.6l-2.2-1.5s-8.8,4-10.3,5.2c-1.5,1.2-2,3.9-2,3.9,0,0-2.7,1.2-3.7.9s-6,2.7-7.9,5.9c-1.2,2-.7,3.8-1.2,5.6h0c-.3,1-.5,1.6-.5,1.6l-5.2,2.1c-4.1,2.3-2.6,11.1-2.6,11.1-7.8,10.8-7.7,19.6-3.4,28.8,1.7,3.5-8.5,7.8-1.9,7.3s17.1,21.5,17.1,21.5c0,0,1.7-9.7,1.7-13.6s-2.4-15.1-2.4-15.1l3.2-.6s1.9-.9,4-5.4c2.1-4.5-2.7-12-2.7-12l-1.5-4.6h6.4c6-1.3,6-7.9,6-7.9l-1.7-11.1,3.9,3.5c.9,1,2.3,1.5,3.6,1.4,9.4-1.3,10.2-7.2,10.2-7.2l1-5.6,2.5,1.5c2.6,1.9,10.7,4.7,14.5,2.8,3.8-1.9,5.2-4.1,5.9-4.6,1.6-1.5,2.5-3.6,2.6-5.8,2.4,2.1,5.6,4.2,8.4,4.1,3.4,0,10.6-1.9,11.4-3.5.5-1.1-.5-1.1.7-1.2,1.1,0,2.1.6,2.8,1.4,0,0,4,8.8,12.8,11.7,8.8,2.9,6.9-17.7-1.2-20.1,0,0-2-10.9-12.3-8.9h-.3Z"/>
  <path class="cls-14" d="M67.1,262s-8.6,3.7-10.8,9c-5.5,13.7,3.6,44,12.1,49.2l7.6.4-8.8-58.7h-.1v.1Z"/>
  <path class="cls-11" d="M68.7,316.8s-13.1.3-14.4,8.5l-.5,3.9s-14.8-1.6-18.3,5.6-3,20.9-3,20.9"/>
  <path class="cls-12" d="M217.6,441.2s13.7,14.3,22.6,26.6c0,0-12.7-24-22.6-26.6Z"/>
  <path class="cls-1" d="M252.9,671.9v-99.8c3.6-12.5,5.9-25.3,6.9-38.3,1.7-24.4-15.7-48-15.7-48l-11-73.6c-5.4-.3-46.2-15.8-46.2-15.8,0,0-4,28.1-33.2,31-29.2,2.9-48.1-35.7-48.1-35.7-19.4,5.1-51,19.9-51,19.9l10,63.6-26.6,196.6c44.9,63.7,214.7,0,214.7,0h.1l.1.1Z"/>
  <path class="cls-1" d="M269.3,449.3c-6.9-14.6-12.4-24.5-21.2-31.2-4.1-3.2-28.8-9.1-28.8-9.1l3.1,68.8,13.3,65.6,60.9-19.2s-18.2-55.8-27.2-75h0l-.1.1Z"/>
  <path class="cls-23" d="M117.4,562s-33.5-17.1-41.3-19.1-32.7,3.6-33,9.6c-.2,3.2-.2,6.3,0,9.5,0,0-7.3,5.1-4.2,10.6,3.1,5.5,6.2,5.3,6.2,5.3,0,0-4.5,3.9-2,7.6,2.5,3.7,5.2,8.1,5.2,8.1,0,0-1.1,4.8,1.8,6.7,2.9,1.9,22.9,5.1,37.3,4.2,14.4-.9,21.4-2.8,21.4-2.8l8.5-39.9h0l.1.2Z"/>
  <path class="cls-23" d="M290.2,526.2c1.4,2.9,12.6,47.1,13.4,66.6.8,20-8.6,31.1-28.9,31-20.3-.1-112.6-11.1-141.7-26l-11.5-3.3,8.4-28.3c.4-1.4,29.6-.9,31.8-1,19-.7,37.9-2.2,56.8-3.9,10.7-1,22.3-.8,32.7,1.8l1.7-16.8v-9l20.6-5.7,16.7-5.2h.1l-.1-.2Z"/>
  <path class="cls-23" d="M130.8,417.7l-32.3,117.9-8.6-16.3-54.9,22.1c4.1,11.1,8.8,21.8,14.2,32.3,16.5,63.9,57.4,58.4,76.7,52.2,19.3-6.1,29.1-81.9,33.3-109.7,4.8-32.2,5.6-101.5,5.6-101.5l-34,3h0Z"/>
  <path class="cls-23" d="M164.3,437.9s.9-19.9,1.2-27.8c.3-7.9-12.4-38.9-12.7-39.6s-1.8-10.4-1.8-10.4c0,0,2.8,1.4,5.5-2.3,1.5-2.2-1-9.1-3.3-10.7-2.3-1.6-6.2-.1-6.2-.1,0,0,0-4.5-6.8-4.3,0,0-1-6.9-15.1-4.6,0,0,.1-1.8-4.1-1.5s-16.3,2.9-17.1,5.7,2.6,19.8,2.6,24.6.1,5.1,2.2,9.3c2.1,4.2,18.6,31.2,22.5,37.1l-4.6,19.5"/>
  <path class="cls-13" d="M150.4,354c.3.2.5.5.7.8.4.8.6,1.6.6,2.5.2,1.2.1,2.3-.2,3.5"/>
  <path class="cls-10" d="M141,366.8c-.5-1.1-.9-2.2-1.2-3.4-.7-2.8-1.1-5.7-1-8.5,0-.8.2-1.7.4-2.5.3-.8.7-1.4,1.2-2,1-.9,2.1-1.6,3.4-2,2-.8,3.2-1.5,3.2-1.4"/>
  <path class="cls-10" d="M127.8,365c-.1-.8-.2-2.1-.4-3.6s-.3-3.4-.5-5.3c0-1-.2-2.1-.3-3.1-.1-1.1-.2-2.3-.2-3.4s.3-2.4.9-3.4c.7-.9,1.7-1.4,2.9-1.6l5.2-1c1.5-.3,2.7-.5,3.5-.7"/>
  <path class="cls-10" d="M116.5,363.1c-.2-.8-.4-2-.8-3.5s-.7-3.3-1.1-5.2-.9-4.1-1.2-6.5c-.1-1.2,0-2.4.6-3.5.5-1,1.2-1.9,2-2.5.8-.6,1.6-1.1,2.5-1.5l2.3-.9c1.5-.7,3.1-1.2,4.8-1.4"/>
  <path class="cls-1" d="M54.8,411.6s-35.3,13.1-34.7,61.7c.4,25.6,3.9,51,10.3,75.9l66.3-21-22.9-72.8c0-1.3-19-43.6-19-43.6h-.1l.1-.2Z"/>
  <path class="cls-19" d="M166.3,423.5c-.1-2-.2-4-.2-6,0-3,.4-6.1.1-9.1-.5-4.5-2-8.9-3.4-13.3-2.7-8.2-6-16.3-9-24.4-.4-1.5-.8-3-.9-4.6-.3-2-.6-4.1-1-6.1l-1.3.6c1.7.7,3.7.3,5.1-.9,2.3-1.8,2.5-4,1.7-6.6-.6-2.1-1.7-5.1-3.8-6.2-1.9-1-4.6-.7-6.6,0l.8.3c0-3.6-4.3-4.7-7.2-4.7l.4.2c-.3-1.4-1.2-2.6-2.4-3.4-3.7-2.6-9-2.1-13.3-1.5l.6.4c0-.9-1-1.4-1.7-1.6-1.9-.5-4.1-.1-6,.2-4.2.7-8.9,1.6-12.8,3.7-1.1.4-2,1.4-2.2,2.6,0,1.5,0,3,.2,4.5.5,4.6,1.3,9.1,1.9,13.8.2,1.8.5,3.6.6,5.4,0,2.2-.1,4.3.6,6.4,1.1,2.8,2.4,5.5,4.1,8,4.3,7.5,8.8,14.9,13.5,22.2,2,3.3,4.1,6.6,6.2,9.9.4.6.4.3.2,1l-.9,2.8-1.4,4.5c-.2.6,1.3.4,1.4-.2l1.1-3.5.8-2.5c.2-.5.4-1.1.5-1.7,0-.7-1-1.8-1.4-2.4-.8-1.3-1.7-2.7-2.5-4-4.5-7.2-8.9-14.5-13.3-21.8-1.6-2.6-3.2-5.3-4.6-7.9-.8-1.3-1.4-2.7-2-4.2-.8-2.1-.7-4.2-.8-6.5-.2-3.7-.7-7.4-1.3-11.1-.6-3.9-1.4-7.9-1.4-12s.6-2.2,2-2.9c2.2-1.1,4.6-1.8,7-2.4,2.2-.5,4.4-.9,6.7-1.2.9,0,4.2-.3,4.2,1.1s.4.4.6.4c3.9-.6,9-1.1,12.5,1.4,1,.7,1.7,1.8,2,3,0,.2.3.2.4.2,2,0,4.3.3,5.6,2,.3.4.5.9.6,1.4,0,.1.1.7,0,.6,0,.4.6.4.8.3,1.6-.5,3.7-.9,5.3,0s2.5,3.1,3.1,4.7c.6,1.6,1.3,3.9.4,5.5-.7,1.4-2.7,2.9-4.3,2.1-.4-.2-1.4,0-1.3.6.3,1.7.5,3.4.8,5.1.2,1.8.5,3.6,1,5.4.8,2.5,2,5,3,7.5,1.9,5,3.8,9.9,5.5,15.1,1.7,4.6,3,9.2,3.9,14.1.5,3.1,0,6.3,0,9.5s0,4.6.2,6.9c0,.5,1.5.2,1.4-.4h0v-.4l.2.1Z"/>
  <path class="cls-19" d="M97.4,535.7c-1.2,2-2.2,4.2-2.9,6.4-2.2,6.7-3.7,13.8-4.4,20.9,0,.6,2.1.2,2.2-.3.7-7.1,2.1-14.1,4.4-20.9.7-2.2,1.7-4.4,2.8-6.5.2-.4-.8-.3-.9-.3-.5,0-.9.3-1.3.6h.1v.1Z"/>
  <path class="cls-20" d="M184.9,336.7c-6.1,1.7-18.8,9.1-20.9,12.4,0,0,8.4,6.9,22.7,3,14.3-3.9,15.4-13.5,15.4-13.5,0,0-9.3-4.1-17.2-1.9Z"/>
  <path class="cls-15" d="M169.1,344.7s7.2-2.6,13.1-4.2c5.8-1.6,13.4-3,13.4-3,0,0-.2-4.6-10.9-1.7-10.7,2.9-15.6,8.9-15.6,8.9h0Z"/>
  <path class="cls-21" d="M187.2,350.1c-6.9.9-15.5-3.7-23.2-1.1,0,0,5.6,12.4,22.5,7.7,16.9-4.6,15.6-18.2,15.6-18.2-7.9,1.6-8.4,8.7-14.9,11.6h0Z"/>
  <path class="cls-21" d="M191.3,331.4c-3.6.7-5.5,2.6-7,3.1s-4.1-.3-7.6.9c-3.2,1.1-15.1,13.1-13.2,13.7,1.9.6,11.2-8.2,21.8-11.3,10.7-3,16.1,2,17.4.5,1.3-1.5-7.9-7.6-11.3-6.9h-.1,0Z"/>
  <path class="cls-19" d="M42,562.3c3.5,10.7,7.5,21.1,12.1,31.3,1.4,3.1,2.9,6.1,4.7,9,.6.8,2.6,0,2-1-3.6-5.5-6-12-8.5-18.1-2.3-5.9-4.6-12-6.7-18-.5-1.3-.9-2.6-1.3-3.8-.3-1-2.5-.4-2.2.6h-.1Z"/>
  <path class="cls-19" d="M144.6,602c3.8-12,6.3-24.3,7.6-36.8,0-.7-2.1-.2-2.2.3-1.3,12.5-3.8,24.8-7.6,36.8-.2.5,2,.3,2.1-.3h.1,0Z"/>
  <path class="cls-16" d="M66.5,424.7c6.4,1.1,11.4,7,14.7,12.4,3.2,5.6,5.7,11.6,7.4,17.8,3.7,12.5,6.6,25.2,8.7,38.1,1.3,7.7,2.4,15.5,3.5,23.2.2,1.3,3.1.6,2.9-.8-1.9-13.4-3.8-26.8-6.8-40-1.6-7-3.3-14.1-5.3-20.9-1.7-6.2-4.2-12.4-7.4-18-3.6-6.2-9.2-12.4-16.6-13.7-1.4-.2-2.9,1.7-1,2h-.1v-.1Z"/>
  <path class="cls-16" d="M254.5,537.47c2.9-10.7.2-15.47-2.5-25.87-2.9-11.2-5.7-22.3-6.7-33.8-.6-6.7-.4-13.5.7-20.1.1-.9-2.7-.4-2.9.5-1.9,11.7-.8,23.3,1.4,34.9,1.1,5.6,2.4,11.2,3.9,16.7,1.5,5.3,2.8,10.9,3.7,16.3.9,6,.12,4.34-1.48,10.24-.2.8,2.6.4,2.9-.4l.98,1.53v1.8-1.8Z"/>
  <path class="cls-9" d="M162.5,282.4s3.4-.9,2.3-4.9-3.2-4.2-3.2-4.2"/>
  <path d="M275.3,34.2c.5,1.7-3,1.7-3.6,3.4-.4,1.3,1.2,2.9.3,3.8-.6.6-1.7.3-2.3,1-.6.8.3,2-.2,2.9-.3.6-1.1.7-1.7,1-1.5.8-1.7,3.1-.4,4.2-1.6.5-3.6,1.3-3.7,3,0,1.3,1,2.5.6,3.7-.4,1-1.9,1.4-2.3,2.4-.5,1.2.7,2.4,1.6,3.2s-.7-.7-1.6.3c-.7.8-.5,2.1.2,2.9.2.3-.6,3.4-.3,3.5.6.3.8,1.2.5,1.9-.2.7,1.1.5.8,1.1-1.1,2.1-2.7,4.1-.7,5.3,1.6-2,1.1-5,.7-7.5-.4-2.6,1.6-2.1,1.7-7.2,0-1,1.9-.9,2.3-1.8.3-.8,0-1.6,0-2.4,0-1.1.9-2.1,2-2.4.6-.2,1.4-.1,1.8-.6.9-1-.9-2.6-.4-3.8.6-1.7,4.2-.8,4.2-2.6,0-.6-.5-1.1-.5-1.7,0-.9,1.2-1.3,2.1-1.6s2-1.2,1.4-2"/>
  <path class="cls-13" d="M251.1,563.1s26.5,5.4,31.8,23.4"/>
  <path class="cls-8" d="M501.4,269.2s-16.9,17.1-15.2,44.1c1.7,27,40,194,40,194l-207.55-23.78-2.27,8.26"/>
  <path class="cls-8" d="M526.2,506.3s34.4.8,49.5,31.4"/>
  <path class="cls-6" d="M312.75,530.26l-13.45-.81s-45.91,12.24-59.35,10.91c-9.69-1.25-19.12-4-28.04-8.17l-11.57,2.42c-5.36,1.06-10.84.14-15.47-2.51l-3.61-2.12s-13.82,7.03-16.06,2.67c-2.36-4.39,2.24-8.52,6.66-12.43,4.41-3.91,91.18-36.88,91.18-36.88-7.34-3.76-21.6-2.96-29.45-5.29-12.11-3.45-15.45-9.53-9.69-13.61,3.54-2.58,13.84-3.64,20.27.13,6.3,3.74,39.12-1.28,50.86,4.03,11.75,5.31,18.86,22.28,18.86,22.28,1,.65,2.49.92,2.49.92.35,1.65-3.51,38.51-3.51,38.51l-.12-.03Z"/>
  <path class="cls-28" d="M182.93,530.55c5.4-2.22,11.22-3.55,16.85-5.19,5.64-1.64,13.6-3.71,20.25-5.73,6.65-2.02,5.39-1.7,8.03-2.83,2.64-1.13-.16-1.86-1.2-1.36-5.31,2.38-11.16,3.83-16.76,5.34-5.6,1.52-13.6,3.71-20.25,5.73s-5.52,1.67-8.12,2.68c-2.61,1,.19,1.74,1.2,1.36h0Z"/>
  <path class="cls-28" d="M213.46,532.21c9.36-1.96,18.82-3.76,28.18-5.72l3.98-.77c1.5-.26.35-1.34-.63-1.08-9.36,1.96-18.82,3.76-28.18,5.72l-3.98.77c-1.5.26-.35,1.34.63,1.08h0Z"/>
  <path class="cls-28" d="M253.27,540.53c12.49-.64,27.69-1.46,38.61-8.12,2.47-1.51-3.32-1.01-4.48-.31-5.63,3.43-13.36,4.06-19.77,4.86-3.95.49-7.92.86-11.89,1.07-1.66.09-6.28,2.7-2.46,2.51h0Z"/>
</svg>