<?xml version="1.0" encoding="UTF-8"?>
<svg id="Layer_1" data-name="Layer 1" xmlns="http://www.w3.org/2000/svg" viewBox="0 0 114.49 114.22">
  <defs>
    <style>
      .cls-1 {
        fill: #0d4061;
        stroke-width: 0px;
      }
    </style>
  </defs>
  <path class="cls-1" d="M57.12,74.68l-5.14-4.67c-2.62-2.38-5.16-4.68-7.69-7.01-4.85-4.46-10.35-9.53-14.96-15.26-4.06-5.06-6.42-9.68-7.41-14.55-1.35-6.65.35-13.33,4.66-18.33,4.25-4.92,10.49-7.53,17.12-7.17,4,.22,7.71,1.96,11.01,5.17.8.78,1.54,1.61,2.24,2.43.66-.77,1.34-1.55,2.09-2.29,8.44-8.33,20.04-6.1,26.67.23,6.9,6.59,8.59,16.43,4.42,25.68-2.16,4.8-5.36,9.24-9.78,13.59-5.02,4.94-10.24,9.88-15.28,14.65-2.15,2.04-4.31,4.08-6.47,6.14l-1.47,1.4ZM42.49,12.02c-4.91,0-9.46,2.04-12.61,5.69-3.42,3.96-4.76,9.29-3.68,14.61.86,4.22,2.87,8.13,6.53,12.69,4.4,5.48,9.77,10.42,14.51,14.78,2.52,2.32,5.06,4.62,7.67,6.99l2.14,1.95c1.67-1.59,3.34-3.17,5.01-4.75,5.03-4.76,10.23-9.68,15.22-14.59,4.03-3.96,6.93-7.97,8.86-12.27,3.44-7.63,2.15-15.38-3.46-20.73-4.1-3.92-13.32-7.46-20.59-.28-.83.82-1.62,1.75-2.38,2.66-.38.45-.75.89-1.13,1.32l-1.63,1.86-1.64-1.86c-.39-.45-.78-.9-1.17-1.36-.83-.98-1.62-1.91-2.48-2.75-2.56-2.49-5.24-3.78-8.2-3.94-.32-.02-.65-.03-.97-.03Z"/>
  <g>
    <path class="cls-1" d="M51.85,78.31c-4.97-5.98-9.54-11.41-13.96-16.62-2.25-2.65-5.27-2.97-7.9-.84-2.39,1.94-2.7,5.23-.72,7.83,1.52,1.99,3.05,3.98,4.58,5.96.9,1.16,1.79,2.32,2.68,3.48.34.45.68.9,1.04,1.41l.08.11c-1.71.17-3.03-.41-4.13-1.79l-1.3-1.64c-2-2.52-4.07-5.12-6-7.75-.58-.79-.96-1.89-.96-2.81-.03-3.31.02-6.69.06-9.95.03-1.9.05-3.8.07-5.7.02-3.82-2.31-6.51-5.81-6.71-3.65-.21-6.3,2.24-6.63,6.07-.31,3.6-.59,7.21-.86,10.82-.26,3.44-.53,6.88-.82,10.32-.29,3.39.5,6.4,2.36,8.96.99,1.36,2.14,2.73,3.51,4.17,3.84,4.03,8.38,8.77,12.93,13.37,1.96,1.98,2.41,3.85,1.45,6.05-.2.46-.21.97-.22,1.43,0,.12,0,.24-.01.36-.05.98.12,1.65.54,2.09.42.44,1.06.65,2,.66,3.3.01,6.43.02,9.43.02s6.13,0,9.02-.02c2.08-.01,2.79-.72,2.83-2.83.03-1.41.05-2.82.07-4.23.05-3.26.11-6.63.22-9.95.17-5.25-.95-9.15-3.55-12.27ZM33.67,94.86c-3.99-3.9-7.84-7.89-11.41-11.63-1.15-1.2-2.22-2.52-3.26-3.8-.35-.43-.69-.85-1.04-1.27-2.03-2.45-2.8-5.12-2.45-8.4.45-4.19.74-8.46,1.01-12.59.12-1.88.25-3.76.39-5.63.05-.66.14-1.39.27-2.22.2-1.25,1-1.95,2.13-1.9,1.12.06,1.91.93,1.91,2.11,0,3-.02,5.99-.05,8.98l-.03,3.25c0,.2-.02.4-.04.59-.57,4.54.62,8.22,3.63,11.24,1.29,1.29,2.41,2.82,3.5,4.3.6.82,1.2,1.64,1.83,2.43,2.78,3.47,7.25,4.6,11.13,2.81,1.22-.56,1.84-1.13,2.02-1.85.18-.71-.1-1.5-.9-2.54-1.75-2.31-3.52-4.6-5.28-6.9l-3.44-4.5c-.12-.15-.25-.3-.38-.45-.28-.32-.56-.64-.61-.92-.12-.68-.02-1.48.2-1.69.18-.17.93-.2,1.67,0,.24.07.53.44.78.76.08.1.16.2.24.3,2.07,2.49,4.14,4.99,6.22,7.48,2.17,2.61,4.33,5.22,6.5,7.83,1.93,2.32,2.85,4.91,2.8,7.92-.05,3.5-.04,6.93-.03,10.57,0,1.37,0,2.76.01,4.16h-15.03c.03-.21.06-.42.11-.62.66-3.04-.13-5.6-2.41-7.83Z"/>
    <path class="cls-1" d="M103.23,71.3c-.54-7.45-1.12-15-1.72-22.45-.23-2.88-2.32-5.08-5.2-5.48-1.91-.27-3.71.24-5.06,1.42-1.38,1.19-2.13,2.94-2.14,4.92,0,2.82.02,5.64.04,8.46.02,2.62.04,5.24.04,7.86,0,.35,0,1.27-.32,1.7-3.11,4.1-5.73,7.45-8.24,10.51-.95,1.16-2.19,1.66-3.79,1.51.75-.98,1.49-1.94,2.23-2.89,2.14-2.76,4.15-5.37,6.17-8.05,1.98-2.63,1.58-5.97-.95-7.95-2.41-1.88-5.77-1.45-7.83,1.01-4.6,5.51-9.19,11.04-13.76,16.57-2.18,2.64-3.3,5.5-3.33,8.51-.04,4.7,0,9.48.05,14.09l.04,4.19c.01,1.46.88,2.34,2.32,2.35,3.33.01,6.38.02,9.23.02,3.1,0,5.97,0,8.73-.02,1.01,0,1.56-.39,1.84-.72.29-.33.6-.94.46-1.96l-.06-.48c-.1-.82-.21-1.66-.45-2.47-.48-1.59-.25-2.69.75-3.69.91-.9,1.78-1.82,2.66-2.74.88-.93,1.77-1.85,2.68-2.75,1.5-1.48,3.02-2.95,4.53-4.42,2.62-2.53,5.33-5.15,7.91-7.82,2.33-2.41,3.43-5.6,3.17-9.24ZM77.43,102.09c.11.32.17.67.24,1.08,0,.02,0,.03,0,.05h-14.13v-9.38c0-.7,0-1.41-.02-2.11-.01-1.39-.03-2.82,0-4.23.06-2.45.96-4.68,2.73-6.82,3.35-4.05,6.7-8.09,10.05-12.13l3.17-3.82c.09-.11.18-.23.29-.33.91-.91,1.53-.64,1.96-.31.69.52.75,1.16.21,1.89-1.9,2.55-3.82,5.08-5.75,7.61l-1.53,2.01c-.31.41-.63.81-.94,1.21-.58.74-1.19,1.51-1.74,2.3-.41.58-.85,1.34-.67,2.1.17.76.88,1.24,1.55,1.61,3.71,2.06,8.47,1.29,11.07-1.81,3.12-3.72,6.09-7.63,8.86-11.32.72-.96.79-2.34.79-2.89,0-3.86-.05-7.79-.1-11.58-.02-1.74-.04-3.48-.06-5.22-.02-1.49.67-2.43,1.84-2.5,1.24-.08,1.96.63,2.22,2.25.03.18.06.37.07.55l.23,3.01c.26,3.49.52,6.99.77,10.48.06.85.1,1.7.15,2.55.07,1.41.15,2.87.3,4.3.32,2.97-.51,5.5-2.47,7.53-2.24,2.32-4.59,4.61-6.87,6.83-1.34,1.31-2.68,2.62-4.01,3.94-1.55,1.54-3.08,3.1-4.6,4.66-.83.85-1.66,1.69-2.49,2.54-1.59,1.61-1.96,3.55-1.14,5.94Z"/>
  </g>
</svg>