<?xml version="1.0" encoding="UTF-8"?>
<svg id="Layer_15" data-name="Layer 15" xmlns="http://www.w3.org/2000/svg" xmlns:xlink="http://www.w3.org/1999/xlink" viewBox="0 0 991.05 991.05">
  <defs>
    <style>
      .cls-1 {
        fill: none;
      }

      .cls-2 {
        stroke: #000;
        stroke-miterlimit: 10;
        stroke-width: .17px;
      }

      .cls-3 {
        fill: #5e2214;
      }

      .cls-4 {
        fill: #12100e;
      }

      .cls-5 {
        fill: #7a968f;
      }

      .cls-6 {
        fill: #34255e;
      }

      .cls-7 {
        fill: #674114;
      }

      .cls-8 {
        fill: #efe3cf;
      }

      .cls-8, .cls-9, .cls-10 {
        isolation: isolate;
      }

      .cls-11 {
        fill: #efe8d4;
      }

      .cls-12 {
        fill: #c28e40;
      }

      .cls-13 {
        fill: #22180f;
      }

      .cls-14 {
        fill: #d18e3e;
      }

      .cls-15 {
        fill: #4a3027;
      }

      .cls-16 {
        clip-path: url(#clippath-1);
      }

      .cls-17 {
        fill: #211e1f;
      }

      .cls-18, .cls-10 {
        fill: #fff;
      }

      .cls-19 {
        fill: #a46234;
      }

      .cls-20 {
        fill: #4f3f82;
      }

      .cls-21 {
        fill: #4f7af5;
      }

      .cls-22 {
        fill: #816ba7;
      }

      .cls-23 {
        fill: #643b29;
      }

      .cls-24, .cls-10 {
        opacity: .3;
      }

      .cls-25 {
        fill: #daa58f;
      }

      .cls-26 {
        fill: #cceaed;
      }

      .cls-9 {
        fill: #d9cab3;
      }

      .cls-27 {
        fill: #283237;
      }

      .cls-28 {
        fill: #a8392d;
      }

      .cls-29 {
        fill: #0e1314;
      }

      .cls-30 {
        fill: #4a803e;
      }

      .cls-31 {
        fill: #243841;
      }

      .cls-32 {
        clip-path: url(#clippath);
      }

      .cls-33 {
        fill: #af6b4e;
      }

      .cls-34 {
        fill: #eeecf4;
      }
    </style>
    <clipPath id="clippath">
      <circle class="cls-1" cx="495.52" cy="495.52" r="495.52"/>
    </clipPath>
    <clipPath id="clippath-1">
      <path class="cls-1" d="M779.43,518.03c-2.02-13.39,2.73-23.91,2.61-32.68-2.93-.03-16.04,6.13-18.91,7.69.16,1.27-.44,4.97-.64,6.29-1.35,8.8-1.75,14.74-1.64,23.65.09,7.71-1.61,14.51-3.85,22.02-4.75,15.9-14.85,23.4-30.36,24.61-13.55,1.06-25.27,6.45-29.04-7.29-2.83-10.34-2.52-32.36,0-42.54q1.18-4.78,2.1-6.25l-12.46,1.7c-9.18,8.46-7.5,23.22-10.18,33.34-5.35,20.23.34,73.67,13.86,119.53,6.8,23.1,10.39,39.86,12.27,50.81l-15.89,15.5c-8.24,2.42-15.85,6.51-23.22,11.05-3.88,2.14-7.61,4.47-10.99,6.94.02.01.04.03.06.04-1.67,1.08-3.34,2.15-5.02,3.19-2.33,1.45-4.88,4.38-3.15,6.52,1.01,1.25,2.87,1.23,4.47,1.38,6.04.58,11.34,5.67,12.18,11.67.81,5.79-1.81,12.76,2.3,16.91,1.33,1.34,3.15,2.07,4.95,2.64,7.68,2.41,17.18,3.36,20.94,10.47,2.32,4.38,1.5,9.67,1.49,14.62,0,4.96,1.48,10.74,6.08,12.6,1.63.66,3.44.71,5.2.75,7.49.18,11.6,1.49,18.98,1.7,0,.06.01.12.01.18,23.58-.36,71.54-.51,90.65-.92,0,0-.04-.23-.13-.67,31.93.39,81.3-9.56,76.45-75.91-.65-8.87-4.25-30.78-7.42-39.12l-7.58-15.63h0l-1.55-3.2-.48-.46c-4.09-7.23-13.99-23.98-25.98-39.02-3.96-4.97-6.88-11.81-9.06-19.54,1.96-.1,1.37-.26-.11-.39-6.9-24.91-6.1-58.83-6.9-69.47-.32-7.46.21-11.71-.72-11.8-5.57-.56-27.5,3.03-38.75-6.34"/>
    </clipPath>
  </defs>
  <g class="cls-32">
    <polyline class="cls-11" points="-133.1 857.65 -133.1 -13.51 1134 -13.51 1134 857.65"/>
    <path class="cls-33" d="M438.92,399.37s84.67,35.37,95.19,43.04,1.19,33.42-10.63,38.96c-24.88,11.66-122.71-32.8-122.71-32.8l38.14-49.2Z"/>
    <path class="cls-33" d="M134.02,333.47s-91.68,3.82-104.21,7.37c-12.53,3.54-12.7,30.93-3.54,40.23,19.29,19.57,126.47,11.78,126.47,11.78l-18.72-59.37Z"/>
    <path class="cls-28" d="M343.23,330.28s21.04,10.36,39.32,22.85c5.57,3.8,19.6,15.48,26.15,20.47,19.62,14.94,56.54,33.15,56.54,33.15,0,0,.74,41.55-27.11,64.62l-63.67-15.4c-17.57,4.78-32.59,32.74-32.59,32.74,0,0-32.05-74.69-19.25-99.45,12.8-24.76,20.59-58.98,20.59-58.98Z"/>
    <path class="cls-3" d="M464.27,406.25c-1.14,7.79-2.21,15.64-3.98,23.33-1.16,5.02-2.83,9.84-4.91,14.55-3.01,6.78-6.15,13.76-10.63,19.71-1.45,1.92-3.05,3.8-4.98,5.27-.63.48-1.04.76-1.6,1.04-.2.1-.41.19-.62.29-.33.14.23-.08-.23.08-.75.26.37-.2.46.1-.09-.3-2.36-.82-2.66-.92-2.2-.76-4.4-1.52-6.6-2.28l.1,1.37c5.62-4.82,10.39-10.89,14.36-17.1,7.52-11.79,11.18-25.57,13.02-39.33.47-3.53.87-7.1.97-10.67l-1.98.92c3.27,1.46,6.55,2.91,9.82,4.37,1.02.45,2.88-1.01,1.44-1.65-3.27-1.46-6.55-2.91-9.82-4.37-.6-.27-1.96.13-1.98.92-.26,9.08-1.86,18.3-4.2,27.05-1.88,7.02-4.47,13.79-8.16,20.06-2.75,4.67-5.99,9.05-9.59,13.1-1.3,1.46-2.65,2.88-4.05,4.23-.66.64-.92.89-1.46,1.35-.49.42-.66,1.11.1,1.37,1.98.68,3.95,1.37,5.93,2.05,1.23.43,2.89,1.38,4.24,1.18,2.87-.43,5.46-2.98,7.31-5,5.3-5.78,8.66-13.11,11.94-20.14,2.27-4.87,4.27-9.84,5.64-15.04,2.25-8.52,3.38-17.34,4.65-26.04.18-1.23-2.36-.9-2.52.2h0Z"/>
    <polygon class="cls-5" points="-130.48 1018.51 1144.55 1018.51 1144.55 777.46 -125.68 777.46 -130.48 1018.51"/>
    <path class="cls-33" d="M845.9,496.06l11.82-.5-51.69-50.85c8.4-5.45,13.59-10.56,21.76-16.35,20.62,17.61,78.42,54.8,87.62,65.27,13.5,15.36,12.32,40.28.54,47.43-17.73,10.75-80.28,3.95-80.28,3.95l10.23-48.95Z"/>
    <path class="cls-22" d="M772.14,488.79c23.31-11.63,61.92,3.75,76.51,4.09,1.36,1.31,3.77,5.75,4.16,6.29,0,0,1.06,3.3,2.38,7.44,3.52,11.01,5.14,22.54,4.78,34.09l-.4,12.97s-40.98,8.24-66.97,7.34c-9.47-.33-37.65,27.68-58.22,23.13-25.56-5.65-43.19-44.05-43.19-44.05,0,0,63.39-42.53,80.95-51.29Z"/>
    <path class="cls-33" d="M634.65,482.56l-22.22,58.29,21.71-4.34,13.2,41.07s-60.94,20.33-73.58,14.84c-12.64-5.49-22.1-11.29-13.34-39.02,4.35-13.77,39.32-50.96,49.46-75.67,9.67,1.97,15.55,1.7,24.77,4.83Z"/>
    <path class="cls-22" d="M712.32,517.61s-21.1-7.59-47.28,2.45c-26.66,10.22-42.41,16.24-42.41,16.24l-.19,4.13c-.61,13.36,1.09,26.73,5.04,39.51l4.07,13.19,7.09-.57c14.65-1.19,28.49-8.81,39.11,15.81l2.29,5.54,84.28-40.81-52-55.48Z"/>
    <path class="cls-6" d="M699.29,513.41q-.91,1.47-2.1,6.25c-2.52,10.18-2.83,32.2,0,42.54,3.76,13.74,15.49,8.35,29.04,7.29,15.52-1.22,25.61-8.71,30.36-24.61,2.24-7.51,3.95-14.31,3.85-22.02-.11-8.91.29-14.85,1.64-23.65.2-1.32.79-5.02.64-6.29,2.87-1.56,15.99-7.72,18.91-7.69.12,8.77-4.63,19.29-2.61,32.68,1.74,11.51,1.72,27.18,10.61,34.59,11.24,9.37,33.18,5.78,38.75,6.34.93.09.39,4.34.72,11.8,1.05,14.01-.67,68.4,16.06,89.4,15.82,19.85,28,42.68,28,42.68,0,0-44.18,23.89-98.01,39.29-53.82,15.4-70.31-7.27-70.31-7.27,0,0-.82-20.91-14.32-66.75-13.52-45.86-19.21-99.3-13.86-119.53,2.67-10.12,1-24.88,10.18-33.34l12.46-1.7Z"/>
    <path class="cls-33" d="M760.45,499.4c-3.61,11.17-4.54,32.24-38.37,43.26-36.06,11.75-22.31-27.09-22.31-27.09l3.2-6.79c8.88-8.18,6.64,3.75,6.64,3.75l32-12.05s4.51-1.88,18.84-1.08Z"/>
    <path class="cls-33" d="M631.52,492.7s15.08-13.75,12.2-29.55c-2.88-15.8-28-40.42-33.76-35.89-3.79,2.98,3.01,10.02,7.85,16.59,2.53,3.44,4.23,8.95,4.23,8.95,0,0-12.15-3.66-12.94,2.36,0,0-5.98-.86-7.54,2.92l-1.56,3.78s-5.35-1.77-6.89,3.88c-1.54,5.65,4.85,19.79,11.88,20.97,7.02,1.19,6.36-1.83,6.36-1.83l20.19,7.8Z"/>
    <path class="cls-15" d="M617.48,458.73c.82,2.37,1.5,4.79,2.05,7.24.44,1.93.8,3.9.91,5.87.08,1.37.16,3.26-.74,4.41-.13.16-.25.26-.41.37-.04.03-.12.05-.31.09-.26.06-.89.08-1.3.05-1.52-.13-2.98-.78-4.17-1.72-4.11-3.25-5.07-9.39-5.14-14.3-.02-1.95.14-4.09,1.07-5.85.21-.4.47-.74.78-1.06.01-.01.31-.19.11-.1.33-.17.52-.39.21-.64s-1.13.09-1.41.22c-1.96.98-2.52,3.84-2.69,5.77-.28,3.14.09,6.47.9,9.51.65,2.45,1.78,4.86,3.64,6.63,2.29,2.17,5.84,3.21,8.87,2.09,3.43-1.26,2.72-5.87,2.28-8.72-.55-3.52-1.49-7.02-2.66-10.39-.2-.57-2.18.01-2,.54h0Z"/>
    <path class="cls-15" d="M613.15,476.59c.39,1.15.61,2.49.38,3.69-.15.78-.5,1.51-1.36,1.6-1.13.13-2.26-.42-3.19-1-2.41-1.51-4.3-3.94-5.77-6.34-1.33-2.18-2.69-4.91-2.63-7.54.04-1.75.27-3.51.4-5.26.07-.85-1.95-.48-2,.23-.14,1.78-.37,3.57-.41,5.35-.05,2.96,1.46,5.91,2.99,8.35,1.64,2.61,3.84,5.29,6.66,6.67,2.12,1.04,5.58,1.23,6.9-1.16.83-1.5.54-3.58.01-5.14-.25-.74-2.24-.17-2,.54h0Z"/>
    <path class="cls-15" d="M608.5,483.09c-.16.39-.37.77-.59,1.06-.12.17-.25.33-.39.48-.07.08-.15.16-.23.23-.04.03-.07.07-.11.1-.01.01-.15.14-.09.08.07-.06-.05.04-.07.06-.05.04-.09.07-.14.11-.08.06-.16.12-.24.17-.05.03-.1.07-.15.1-.02.01-.17.1-.06.04s-.04.02-.06.03c-.05.03-.1.06-.16.08-.08.04-.19.07-.27.13.14-.06.16-.07.07-.03l-.05.02c-.05.02-.11.04-.16.06-.05.02-.09.03-.14.05-.12.04.24-.07.07-.02-.11.03-.23.06-.34.09-.22.05-.49.16-.68.3-.09.06-.26.2-.22.34.09.35.91.15,1.1.1,2.1-.48,4.04-1.88,4.88-3.9.15-.37-.67-.3-.82-.27-.26.05-.53.12-.76.24-.15.08-.33.18-.4.34h0Z"/>
    <path class="cls-33" d="M636.03,457.83s-10.25-.26-16.86,5.52c-6.61,5.78-8.79,11.49-3.53,11.91,5.26.42,20.34-6.26,20.34-6.26"/>
    <path class="cls-15" d="M636.37,457.09c-5.56-.13-11.6,1.37-16.21,4.51-1.95,1.33-3.71,3.06-5.24,4.86-1.21,1.42-2.39,3.03-2.96,4.83-.36,1.14-.46,2.48.37,3.45.89,1.05,2.45,1.28,3.75,1.28,4.34-.03,8.13-3.05,10.75-6.25l-.93.44c3.33-.16,6.66-.32,9.99-.48,1.14-.05,1.54-1.54.17-1.48-2.54.12-5.07.24-7.61.36-.85.04-1.98-.1-2.79.21-.64.24-1.06,1-1.51,1.48-.52.57-1.08,1.1-1.68,1.59-.92.76-1.92,1.42-3.02,1.91-1.38.62-3.38,1.14-4.83.4-1.58-.8-.8-2.88-.19-4.07,1.28-2.49,3.39-4.63,5.49-6.43,1.89-1.61,4.11-2.79,6.46-3.59,2.09-.71,4.26-1.16,6.45-1.4.73-.08,1.46-.13,2.19-.16.17,0,1.22,0,.64-.02.46.01,1.11-.12,1.3-.62.17-.43-.15-.84-.61-.85h0Z"/>
    <path class="cls-33" d="M808.61,448.48s-20-4.05-25.64-19.09c-5.64-15.03,3.27-49.06,10.53-48.13,4.78.61,2.57,10.14,1.79,18.27-.41,4.25.97,9.85.97,9.85,0,0,8.55-9.38,12.31-4.63,0,0,4.69-3.81,7.97-1.37l3.28,2.45s3.69-4.27,7.91-.21c4.22,4.06,6,19.47.59,24.09s-5.72,3.51-5.72,3.51l-13.99,15.25Z"/>
    <path class="cls-15" d="M801.22,412.67c.57,2.76,1.34,5.49,2.26,8.15.67,1.94,1.44,3.88,2.51,5.63.75,1.23,1.76,2.6,3.25,2.91,2.99.63,6.09-2.2,7.32-4.63,2.67-5.26.08-11.83-2.71-16.48-1.31-2.18-3.59-5.33-6.53-5.11-.96.07-1.68,1.16-.29,1.06-.28.02-.23-.02-.05.03.33.11.63.19.97.37,1.29.68,2.31,1.89,3.15,3.06,1.77,2.48,3.09,5.46,3.91,8.39.65,2.34.91,4.84.24,7.2-.46,1.63-1.39,3.16-2.74,4.2-.69.53-1.52,1.03-2.18.81-1.29-.43-2.19-2.03-2.79-3.14-.86-1.58-1.51-3.27-2.1-4.97-.9-2.62-1.65-5.32-2.22-8.03-.14-.65-2.14-.16-2,.54h0Z"/>
    <path class="cls-15" d="M814.11,425.77c.33,1.51,1.07,3.31,2.4,4.21,2.15,1.45,5.12-.15,6.48-1.98,1.8-2.41,2.36-5.68,2.53-8.61s.03-6.08-1.21-8.72c-.88-1.87-2.35-3.52-3.55-5.2-.34-.47-2.27.17-1.87.74.73,1.02,1.45,2.05,2.18,3.07,1.59,2.24,2.24,4.55,2.44,7.28s-.04,5.72-.9,8.41c-.44,1.38-2.06,5.47-4.14,4.33-1.35-.74-2.05-2.63-2.36-4.06-.13-.58-2.14-.09-2,.54h0Z"/>
    <path class="cls-15" d="M821.57,429.14c1.76,1.3,4.14,1.52,6.19.86.23-.08.48-.15.68-.3.09-.06.26-.2.22-.34-.09-.34-.92-.16-1.1-.1-.1.03-.21.07-.32.09-.05.01-.11.03-.16.04.14-.03.15-.03.03,0-.11.02-.22.04-.32.05.21-.03-.03,0-.08,0-.11,0-.22,0-.33.01-.1,0-.11,0-.03,0-.05,0-.11,0-.16,0-.2-.01-.41-.04-.61-.07-.72-.13-1.51-.48-2.13-.94-.33-.24-.96-.07-1.3.07-.14.06-.9.41-.58.64h0Z"/>
    <path class="cls-33" d="M786.2,423.88s7.81-6.65,16.58-6.32c8.78.33,14.06,3.39,10.24,7.04s-19.75,7.93-19.75,7.93"/>
    <path class="cls-15" d="M787.5,421.33s.21-.13.01-.01c.18-.1.35-.21.53-.31.61-.34,1.24-.66,1.87-.95,2.02-.95,4.14-1.69,6.32-2.16,5.01-1.08,10.95-.31,15.36,2.41,1.05.64,2.67,1.83,2.17,3.28s-2.64,2.2-4.03,2.45c-1.07.19-2.18.2-3.26.09-.75-.08-1.5-.2-2.23-.38-.79-.19-1.58-.6-2.37-.72-.84-.13-1.7.54-2.41.92-2.44,1.31-4.88,2.61-7.32,3.92-1.2.64-.12,1.7.88,1.16,2.94-1.57,5.88-3.15,8.82-4.72l-1.02.09c3.66,1.3,7.85,1.9,11.53.31,2.01-.87,4.44-2.91,3.13-5.3-1.57-2.85-5.93-4.01-8.82-4.69-4.37-1.04-8.67-.89-12.97.41-2.62.79-5.22,1.86-7.54,3.32-.39.24-.46.73-.11,1.02.39.33,1.07.11,1.43-.12h0Z"/>
    <path class="cls-15" d="M611.37,540.19c-1.2,4.1-2.17,8.31-3.92,12.22-1.49,3.33-3.8,7.05-7.74,7.58-.36.05-1.1.27-1.12.73s.52.57.89.52c9.67-1.3,11.69-13.65,13.91-21.27.23-.8-1.79-.54-2.01.21h0Z"/>
    <path class="cls-15" d="M630.95,491.72c-2.49.67-5.23,1.44-7.77.61-2.23-.73-4-2.39-5.69-3.94-.67-.62-2.4.38-1.54,1.17,1.92,1.76,3.96,3.59,6.54,4.28,2.95.79,5.97.06,8.84-.71.41-.11.93-.48.81-.97s-.8-.54-1.19-.44h0Z"/>
    <path class="cls-15" d="M809.09,449.49c5.22-1.81,10.8-4.22,13.57-9.32.47-.87-1.54-.7-1.87-.08-2.47,4.54-7.32,6.7-11.98,8.32-.31.11-.97.36-.86.81.11.41.85.37,1.14.27h0Z"/>
    <path class="cls-15" d="M855.29,496.35c2.74,4.3,5.46,8.59,9.23,12.09,4.94,4.59,11.14,7.14,17.9,7.19.69,0,2.14-1.03.8-1.04-6.69-.05-12.71-2.85-17.46-7.49-3.46-3.39-6.02-7.44-8.61-11.5-.32-.5-2.27.12-1.86.75h0Z"/>
    <path class="cls-33" d="M512.43,482.59c18.33,1.94,36.46-15.82,31.34-42.69-3.49-18.32-44.86-100.41-56.66-134.7-13.34,1.12-22.8,3.49-36.18,4.07l25.04,93.69s6.92,76.51,36.46,79.64Z"/>
    <path class="cls-33" d="M454.08,317.82s-23.03-20.7-19.33-41.86c3.7-21.16,35.48-56.23,43.22-50.23,5.1,3.95-3.93,13.43-10.34,22.27-3.36,4.63-3.98,13.92-3.98,13.92,0,0,16.22-5.01,17.33,3.03,0,0,7.99-1.21,10.11,3.83l2.12,5.05s7.14-2.41,9.26,5.13c2.11,7.54-6.3,26.51-15.68,28.16-9.38,1.66-8.97.17-8.97.17l-23.74,10.53Z"/>
    <path class="cls-15" d="M467.46,269.72c1.16,2.13,1.85,4.63,2.14,7.02.5,4.21-.88,7.67-2.77,11.33-.75,1.45-3.12,4.89-1.16,6.26,1.02.72,2.56.83,3.77.8,12.4-.25,15.84-15.79,14.78-25.64-.24-2.27-.93-6.04-3.31-7.2-.56-.27-2.4.55-1.6.94.19.09,0-.02.2.14.26.21.49.45.71.72.87,1.08,1.34,2.47,1.65,3.81.63,2.76.57,5.65.3,8.45-.34,3.48-.94,7.02-2.41,10.22-1.68,3.64-4.8,7.05-9,7.44-1,.09-2.33.09-3.22-.46-1.8-1.12.94-5.05,1.55-6.23,1.76-3.44,2.95-6.78,2.56-10.71-.25-2.53-.96-5.17-2.18-7.42-.35-.65-2.28,0-2,.54h0Z"/>
    <path class="cls-15" d="M473.43,293.45c-.59,1.81-.93,4.08-.32,5.91,1.12,3.33,5.35,3.01,7.99,1.9,3.78-1.58,6.75-4.94,9.01-8.26s4.32-7.2,4.66-11.21c.22-2.7-.33-5.53-.56-8.23-.05-.54-2.06-.14-2,.54.15,1.77.3,3.55.45,5.32.32,3.78-.73,7.11-2.49,10.45s-4.31,6.87-7.45,9.27c-2.03,1.56-6.07,3.3-7.49.02-.79-1.82-.42-4.17.18-6.01.19-.57-1.79-.31-1.99.29h0Z"/>
    <g>
      <path class="cls-33" d="M444.98,268.77s13.71-.44,22.61,7.23c8.9,7.67,11.87,15.28,4.83,15.9-3.48.31-8.83-1.45-13.9-7.64l-13.37-.54"/>
      <path class="cls-15" d="M444.89,269.5c3.39-.1,7.13.47,10.47,1.36,7.06,1.87,12.98,6.01,17.32,11.9,1.26,1.71,3.32,4.63,2.47,6.92-.74,1.99-3.84,1.65-5.47,1.28-3.23-.74-6.11-2.77-8.41-5.09-.73-.74-1.46-2.16-2.52-2.33-.53-.08-1.12-.05-1.65-.07-3.86-.16-7.73-.31-11.59-.47-.44-.02-1.13.12-1.3.61-.15.43.14.81.61.83,4.46.18,8.91.36,13.37.54l-.57-.28c3.21,3.86,7.59,7.44,12.78,7.91,3.28.3,7.43-.96,6.9-4.98-.28-2.1-1.53-4.08-2.77-5.75-1.9-2.57-4.24-4.91-6.73-6.92-3.95-3.19-8.84-5.01-13.77-6.02-2.92-.6-5.96-.97-8.95-.88-1.13.03-1.55,1.49-.18,1.45h0Z"/>
    </g>
    <path class="cls-15" d="M452.55,316.86c3.32.67,6.54,1.22,9.94,1.05,3.6-.17,7.15-1.08,10.25-2.94.33-.2.53-.58.16-.83s-1.08-.03-1.42.17c-2.76,1.65-5.96,2.35-9.15,2.43-2.93.07-5.71-.44-8.57-1.02-.45-.09-1.1.02-1.41.38-.26.3-.26.67.2.76h0Z"/>
    <path d="M763.09,444.35c3.4,1.01,5.74,4.11,6.32,7.55.34,2.03-.25,3.52-.79,5.42-.57,2.01.49,3.22,2.29,3.9,1.72.65,3.14,1,3.27,3.14.14,2.27-1.34,4.3-1.42,6.56-.16,4.6,5.15,5.87,7.22,9.19.51.83.83,1.83.63,2.8s-.74,1.8-.49,2.84c.12.48.4.9.57,1.35.06.16.08.92.13,1-.23-.38,3.12-.55,2.87-.94-.07-.11-.2.02-.32-.19-.3-.51-.54-.83-.65-1.44-.36-2.15.98-4.36.14-6.48-.64-1.63-2.17-2.44-3.64-3.2-1.29-.67-2.78-1.36-3.16-2.9-.42-1.7.51-3.46.87-5.09s.3-3.31-1.02-4.54-3.48-1.53-3.99-3.47.46-4.13.23-6.17c-.27-2.41-2.5-3.62-3.79-5.45-2.72-3.84-2.74-9.06-2.76-13.57,0-1.36-5.8-.4-5.8,1.55.02,4.34.09,9.07,2.35,12.92.57.97,1.24,1.85,2.02,2.64.83.84,1.75,1.59,2.07,2.78.52,1.98-.4,4.03-.23,6.04.18,2.24,1.83,3.11,3.55,4.16,1.85,1.13,1.99,2.63,1.46,4.59-.46,1.7-1.28,3.66-.67,5.43s2.26,2.58,3.78,3.37c1.68.87,3.16,1.75,3.2,3.86.03,2.24-1.27,4.72.32,6.72s5.08,1.25,6.96.28c.84-.43,1.73-1.03,2-1.98.35-1.24-.75-2.05-.77-3.21-.02-.97.63-1.87.63-2.87,0-1.12-.46-2.1-1.1-3.01-1.33-1.9-3.38-2.98-5.03-4.56-1.93-1.85-2.03-3.82-1.22-6.29.65-1.96,1.44-4.32.21-6.22-.61-.94-1.57-1.42-2.6-1.79-.73-.26-1.79-.41-2.27-1.1-.71-1.01.28-2.47.55-3.48s.34-2.03.29-3.05c-.22-4.38-3.36-8.39-7.55-9.64-1.31-.39-2.91,0-4.08.64-.58.32-1.94,1.48-.61,1.88h0Z"/>
    <path d="M750.87,448.62c3.41,1.02,5.77,4.22,6.34,7.65.34,2.05-.23,3.55-.77,5.47s.47,3.08,2.26,3.76,3.16,1.08,3.3,3.23c.15,2.26-1.28,4.28-1.41,6.52-.27,4.58,5.21,5.92,7.21,9.23.51.85.84,1.85.64,2.85s-.74,1.77-.5,2.79c.12.48.4.9.57,1.35.07.18.19.47.19.68,0,0-.14.49-.13.53l1.61-.49c1.7-.2,2.15-.39,1.35-.57-.07-.07-.28-.19-.33-.24-.41-.36-.57-.98-.66-1.49-.36-2.15.97-4.37.14-6.48-.62-1.57-2.11-2.36-3.53-3.08s-2.88-1.42-3.27-3.01c-.43-1.73.49-3.48.86-5.13s.32-3.22-.99-4.44-3.48-1.54-4-3.52.46-4.12.23-6.17c-.27-2.42-2.55-3.61-3.82-5.47-2.65-3.9-2.72-9-2.74-13.55,0-1.07-5.8-.2-5.8,1.55.02,4.34.09,9.07,2.35,12.92.56.95,1.24,1.81,2.01,2.59.85.86,1.76,1.61,2.08,2.83.52,1.99-.4,4.03-.23,6.04.18,2.22,1.83,3.07,3.54,4.11,1.86,1.14,2.02,2.71,1.49,4.69-.45,1.68-1.28,3.63-.68,5.38s2.2,2.5,3.67,3.26c1.73.89,3.26,1.8,3.31,3.97s-1.3,4.77.33,6.71,5.07,1.02,6.91.14c.83-.4,1.75-.94,2.03-1.87.37-1.2-.71-2.03-.76-3.16-.04-.97.61-1.88.63-2.87.02-1.14-.48-2.14-1.14-3.04-1.35-1.85-3.35-2.92-4.97-4.48-1.95-1.87-2.06-3.91-1.25-6.38.64-1.92,1.47-4.31.23-6.17-.62-.92-1.57-1.34-2.58-1.7-.77-.28-1.79-.44-2.29-1.17-.73-1.06.25-2.5.53-3.56.25-.97.35-2,.3-3-.22-4.39-3.34-8.3-7.52-9.55-1.26-.37-2.93.15-4.06.71-.56.28-1.95,1.24-.68,1.62h0Z"/>
    <path d="M738.66,452.11c3.4,1.02,5.76,4.19,6.34,7.63.34,2.04-.23,3.54-.78,5.46s.48,3.11,2.27,3.79,3.15,1.06,3.29,3.21c.15,2.26-1.29,4.28-1.41,6.52-.25,4.59,5.19,5.91,7.21,9.23.51.84.84,1.85.64,2.84s-.74,1.78-.5,2.8c.12.48.4.9.57,1.35.11.3.04.84.15,1.07-.4-.89,3.35-.01,2.87-.94-.05-.09-.27-.13-.33-.23-.29-.52-.55-.86-.66-1.48-.36-2.15.98-4.37.14-6.48-.62-1.57-2.11-2.37-3.53-3.1-1.34-.69-2.88-1.41-3.27-3-.43-1.72.49-3.47.86-5.12s.31-3.24-1-4.46-3.48-1.53-4-3.5.46-4.12.23-6.17c-.27-2.42-2.55-3.61-3.82-5.47-2.66-3.89-2.72-9.01-2.74-13.55,0-1.14-5.8-.25-5.8,1.55.02,4.34.09,9.07,2.35,12.92.56.95,1.24,1.82,2.01,2.61.85.86,1.76,1.61,2.08,2.82.52,1.99-.4,4.03-.23,6.04.18,2.23,1.83,3.08,3.54,4.12,1.86,1.13,2.01,2.69,1.48,4.67-.45,1.69-1.28,3.64-.68,5.39s2.2,2.51,3.67,3.27c1.72.89,3.26,1.8,3.31,3.96s-1.29,4.77.33,6.72,5.07,1.07,6.92.17c.83-.4,1.74-.96,2.03-1.9.36-1.21-.72-2.04-.76-3.17-.04-.97.62-1.88.63-2.87.02-1.14-.48-2.13-1.14-3.04-1.34-1.86-3.35-2.93-4.98-4.49-1.94-1.86-2.06-3.89-1.24-6.36.64-1.93,1.47-4.31.22-6.18-.61-.93-1.57-1.36-2.58-1.72-.77-.27-1.78-.44-2.28-1.15-.73-1.04.26-2.5.53-3.54.25-.97.35-2,.3-3.01-.22-4.38-3.35-8.32-7.53-9.57-1.27-.38-2.93.11-4.06.69-.57.29-1.95,1.3-.66,1.68h0Z"/>
    <path class="cls-2" d="M770.09,441.91c-1.56,8.12-9.5,17.85-14.57,24.47-5.19,6.77-7.81,8.68-15.61,11.37-15.2,5.24-31.86,6.81-47.6,2.77-16.23-4.17-30.21-14.31-39.53-28.43-6.51-9.86-7.14-21.1-9.62-32.18-.08-1.2-.23-8.53-.31-9.72,4.87-20.69,3.12-25.01,22.73-35,12.01-6.27,20.42-17.28,42.5-15.7,4.76.34,10.81,3.77,17.09,4.8,9.45,1.55,20.54,5.82,26.11,11.73,8.14,8.64,12.52,22.35,16.75,35.29,3.21,9.81,4.03,20.26,2.1,30.42-.01.06-.02.13-.04.19Z"/>
    <path class="cls-33" d="M700.57,508.35l1.38,4.85c.81-.1,1.64-.16,2.46-.17,3.36-.01,6.71-.08,10.06-.32.21-.01.81-.07,1.47-.14.92-.15,2.51-.4,2.9-.48,2.34-.51,4.56-1.38,6.84-2.03.17-.09.35-.16.52-.25,1.12-.58,2.22-1.2,3.3-1.86,1.11-.68,2.17-1.44,3.26-2.15.41-.34.82-.68,1.23-1.02,2.19-1.92,6.29,3.76,8.27,1.63,3.46-3.71,14.37-3.78,18.2-7.01-1.62-3.4-9.28-16.11-9.92-19.08-1.05-4.9-5.58-12.6-3.76-21.79,6.91,1.89,19.3-3.6,17.35-21.9-1.41-13.27-10.63-12.49-17.33-10.06-.43-7.41,3.08-16.18,1.57-22.65-1.76-7.57-6.26-14.23-12.63-18.69-12.84-9.01-34.07-15.33-53.65-9.64-16.74,4.48-29.85,17.52-34.41,34.24,0,0-3.54,13.18,2.31,34.44.23.6.4,1.22.53,1.85.35,1.2.71,2.4,1.13,3.65,1.43,4.29,1.07,7.33,2.12,10.38-.53,3.9,1.91,15.96,4.73,22.38,3.32,7.57,10.59,24.19,34.66,25.67,7.88.05,6.96.28,7.43.17Z"/>
    <path class="cls-15" d="M701.45,511.86l-1.05-3.68s23.04-4.46,33.97-20.32c0,0-6.7,13.82-17.4,18.89-10.71,5.07-15.52,5.12-15.52,5.12Z"/>
    <g>
      <path d="M744.07,435.2c0-.11-1.57-4.13-.59,1.05.49,2.6,1.57-6.58,3.25-8.89.76-1.05,1.69-2.24,2.77-3.08,1.08-.84,2.24-1.79,3.53-2.31,1.76-.94,7.12.5,9.08.51.34.04-1.47,3.72-1.13,3.77,1.35-15.97.65-28.63-14.89-43.58-4.48-4.3-14.42-7.71-17.48-8.84-18.51-6.71-32.95-3.66-50.11,2.71-19.88,7.38-34.96,20.02-35.08,40.75-.03,5,.12,7.05,1.72,11.71,0,0-4.33-9.74,4.17-17.93,8.5-8.19,10.35-8.76,24.3-12.21,16.13-4.06,20.37-7.89,34.76-4.99,13.14,2.67,16.78,6.93,16.78,6.93,1.41,2.6,3.75,4.53,5.58,6.83,1.8,2.27,2.9,4.87,3.75,7.62,1.75,5.63,1.97,3.4,2.87,9.27.56,3.64,1.34,10.82,5.5,12.22,1.86.62-.37-.51,1.21-1.53Z"/>
      <path d="M744.34,435.13c-.1-.59-1.32-2.71-1.45-1.12-.06.71.13,1.65.32,2.31.06.21.08.49.32.58.53.18.72-.69.82-1.01.82-2.64,1-5.63,2.37-8.07,1.23-2.2,3.47-4.13,5.67-5.32,1.78-.96,3.73-.62,5.65-.34.97.14,1.94.32,2.92.44.9.11,1.03-.16.7.76-.16.44-1.39,2.68-.88,3.04.15.11.46.03.48-.18.48-5.76.77-11.58-.08-17.32s-2.97-11.24-6.17-16.13c-3.59-5.5-8.21-10.78-14.03-13.95-4.71-2.56-9.86-4.51-14.97-6.13-7.01-2.22-14.35-3.22-21.7-2.72s-14.3,2.36-21.15,4.69c-11.28,3.85-22.63,9-30.67,18.09-3.57,4.04-6.3,8.78-7.81,13.96-.81,2.75-1.28,5.6-1.44,8.46-.17,3.01-.2,6.15.34,9.13.29,1.62.79,3.2,1.32,4.76l.53-.14c-1.2-2.73-1.37-6.09-.82-8.98,1.12-5.84,5.77-10,10.22-13.55,3.15-2.51,6.66-4.05,10.5-5.18,6.16-1.8,12.42-3.19,18.56-5.07,4.88-1.49,9.77-3.01,14.92-3.09,6.34-.1,12.98,1.38,18.87,3.67,1.8.7,3.56,1.52,5.19,2.56.66.43,1.43.9,1.95,1.5.39.46.65,1.04,1.01,1.53,1.02,1.43,2.27,2.67,3.45,3.97,2.51,2.78,3.96,5.91,5.1,9.45.63,1.94,1.68,3.77,2.16,5.75.64,2.61.81,5.32,1.4,7.95.52,2.31,1.31,4.93,3.17,6.53.49.42,1.8,1.37,2.5,1.12.17-.06.26-.1.32-.28.23-.72-.8-.62.33-1.49.29-.22-.14-.44-.36-.27-.27.21-.54.42-.65.76s.14.62.08.89l.04.11c.02-.21-.1-.31-.35-.29-.28-.16-.6-.24-.88-.41-.58-.36-1.07-.85-1.48-1.4-1.53-2.04-2.1-4.73-2.54-7.19-.41-2.32-.54-4.74-1.28-6.98-.64-1.96-1.57-3.82-2.21-5.8-1.09-3.34-2.65-6.25-5.02-8.86-1.13-1.25-2.32-2.44-3.31-3.82-.36-.51-.63-1.09-1.03-1.56-1.69-1.95-4.7-3.14-7.01-4.06-5.67-2.26-12-3.68-18.12-3.82-5.06-.11-9.87,1.14-14.67,2.59-6.33,1.92-12.72,3.49-19.09,5.26-3.84,1.06-7.52,2.39-10.77,4.75-2.13,1.55-4.06,3.37-5.96,5.19-2.43,2.32-4.38,4.98-5.29,8.26s-.86,7.21.52,10.37c.11.24.62.12.53-.14-3.73-10.96-1.59-23.87,5.24-33.18s17.33-15.07,27.9-19.01c6.81-2.54,13.81-4.79,21.02-5.84s14.26-.77,21.24.84c5.47,1.27,10.88,3.28,16,5.58,2.68,1.2,5.35,2.55,7.69,4.34,2.77,2.13,5.18,4.95,7.34,7.69,4.18,5.28,7.21,11.32,8.48,17.96,1.19,6.25.9,12.66.37,18.96l.48-.18c-.15-.11,1.03-2.71,1.12-3.01.27-.9-.09-.77-.92-.86-2.57-.26-5.73-1.43-8.27-.51-1.73.63-3.46,2.01-4.74,3.3-.99,1-1.94,2.14-2.48,3.44-.97,2.33-1.3,4.88-2.01,7.29-.05.16-.2.42-.19.58,0,.06-.08.12-.08.18,0,.09.2,0,.21-.09.04-.31-.15-.76-.2-1.08-.06-.39,0-1.09-.16-1.44-.1-.22-.2-.12-.19.08.01.15.21.4.27.54.11.23.24.5.29.75s.58.13.53-.14Z"/>
    </g>
    <path class="cls-33" d="M744.95,426.29c-.82.6-9.14-1.07-9.68.19-22.75-21.78-69.9-23.96-86.99,4.07-.16-4.29-1.87-12.03-1.61-13.59,3.35-19.91,18.03-31.4,35.88-38.23,17.85-6.83,42.14-7.52,58.68,7.99,16.04,15.04,22.47,31.08,3.72,39.56Z"/>
    <g>
      <path d="M720.41,406.81l.13-.79c1.36,1.35,3.24,2.17,5.15,2.27,1.13.06,2.59.07,2.97,1.13.11.31.1.66.21.97.72,1.99,4.13-.34,5.83.93,1.43,1.07.38,3.72,1.73,4.89,1.2,1.04,3.32.04,4.52,1.08,1.48,1.29.09,4.39,1.79,5.36,1.23.7,2.94-.52,4.14.23.57.36.82,1.03,1.1,1.68-2.93,2.02-5.79,4.26-8.89,6.35-.25-.73-.41-1.52-.46-2.27-.04-.67-.09-1.41-.57-1.87-1.07-1.03-2.89.27-4.29-.2-2.46-.83-.78-5.34-2.94-6.78-1.29-.87-3.33-.09-4.41-1.21-1.41-1.47.21-4.79-1.68-5.54-.58-.23-1.23-.04-1.85-.1-1.23-.12-2.17-1.24-2.49-2.43-.32-1.19-.15-2.45.02-3.68Z"/>
      <path d="M720.54,406.77l.13-.79-.24.07c1.13,1.06,2.5,1.82,4.03,2.13,1.44.29,3.67-.2,4.17,1.58.26.94.48,1.46,1.55,1.51,1.25.05,2.51-.56,3.76-.23,2.74.73.4,5.15,3.52,5.68,1.43.24,3.3-.28,3.93,1.45.41,1.14.06,2.42.48,3.55.34.92,1.14,1.23,2.06,1.17.98-.06,2.11-.53,2.96.11.29.22.67.71.75,1.09.14.63-.4.89-.86,1.21-1.48,1.05-2.94,2.14-4.41,3.2-.55.4-1.11.8-1.67,1.19-.3.21-.79.71-1.14.79-.85.2-.78-1.58-.85-2.25-.42-3.91-4.6-.02-5.97-2.78-.89-1.78.05-4.87-2.11-5.9-1.47-.7-3.77.18-4.53-1.7-.51-1.26.04-2.7-.43-3.96-.6-1.63-2.43-.67-3.64-1.34-2.06-1.15-1.8-3.83-1.53-5.79,0-.02-.24,0-.25.07-.25,1.83-.5,4.03,1.01,5.42.43.39.93.63,1.5.7.99.12,2.1-.22,2.61.9.57,1.26-.06,2.78.46,4.07.55,1.37,2.01,1.3,3.26,1.43,4,.43,1.85,4.44,3.67,6.65.65.79,1.62.75,2.54.6,1.24-.2,2.63-.45,3.03,1.03.29,1.07.24,2.2.58,3.28.02.05.19-.01.22-.03,3.02-2.04,5.9-4.27,8.89-6.35,0,0,.04-.02.03-.03-.46-1.06-.93-1.93-2.2-1.94-.57,0-1.12.17-1.69.2-1.16.06-1.94-.34-2.19-1.48s.04-2.37-.48-3.42c-.47-.96-1.45-1.13-2.43-1.17-1.76-.06-3.03-.34-3.31-2.27-.15-1.05-.02-2.44-.98-3.16-1.67-1.26-5.24,1.23-5.9-1.25-.39-1.46-1.23-1.67-2.67-1.77-2.15-.15-4.01-.79-5.6-2.29-.04-.04-.23.02-.24.07l-.13.79s.23,0,.25-.07Z"/>
    </g>
    <g>
      <path d="M721.13,395.22c-.7,1.22-.5,2.89.46,3.92.96,1.03,2.6,1.34,3.88.74-.14,1.82,1.46,3.58,3.29,3.62.78.02,1.6-.24,2.32.05,1.78.71,1.41,3.87,3.21,4.55.68.26,1.46.05,2.13.32,1.38.56,1.37,2.63,2.53,3.56,1.42,1.14,3.83.04,5.18,1.26.95.85,1.07,2.62,2.31,2.93.65.16,1.39-.2,1.98.11.72.37.72,1.37.94,2.14.54,1.93,3.26,2.81,4.83,1.57.41,1.28,1.37,2.38,2.59,2.95.46-1.48.92-3.01.75-4.55-.17-1.54-1.15-3.1-2.66-3.44-.59-.13-1.22-.08-1.76-.36-1.36-.69-1.28-2.97-2.68-3.56-.94-.4-2.2.18-2.97-.49-.37-.32-.5-.84-.7-1.28-.73-1.58-2.8-2.39-4.41-1.71-.46.19-.91.49-1.4.42-1.42-.19-.89-2.53-1.84-3.6-.93-1.05-2.96-.48-3.77-1.61-.27-.38-.34-.87-.57-1.27-.37-.64-1.09-.97-1.78-1.26-3.5-1.48-7.05-2.84-10.64-4.07"/>
      <path d="M721.02,395.21c-.75,1.52-.46,3.44,1.01,4.44.6.41,1.33.61,2.05.6.9-.01,1.12-.49,1.33.5.32,1.54,1.72,2.75,3.3,2.81.7.03,1.35-.17,2.04.03s1.07.58,1.4,1.24c.36.74.54,1.56.95,2.28.26.46.61.84,1.11,1.04.36.14.73.13,1.11.16,1.06.09,1.66.44,2.14,1.36.74,1.41,1.11,2.68,2.9,2.91,1.03.13,2.2-.1,3.17.37s1.22,1.55,1.76,2.39c.33.5.71.83,1.31.91.8.11,1.98.18,2.37.97.22.45.18,1.02.37,1.5.56,1.36,2.16,2.09,3.58,1.88.26-.04.48-.14.73-.21.6-.16.45-.17.8.47.52.95,1.3,1.64,2.25,2.13.06.03.2,0,.22-.08.84-2.73,1.61-7.44-2.32-8.11-1.13-.19-1.84-.4-2.38-1.44-.26-.5-.43-1.04-.73-1.52-1.01-1.62-2.81-.44-3.97-1.57-.57-.56-.69-1.41-1.28-2-.43-.43-.98-.74-1.57-.91-.54-.15-1.11-.19-1.66-.09-.91.17-2.1,1.01-2.74-.01s-.25-2.38-1.25-3.17c-.49-.38-1.15-.46-1.74-.58-.38-.08-.8-.13-1.15-.3-.67-.32-.79-.86-1.07-1.46-.36-.79-1-1.18-1.78-1.53-1.14-.51-2.31-.96-3.47-1.42-2.43-.96-4.88-1.87-7.35-2.72-.08-.03-.3.09-.2.12,2.17.75,4.33,1.54,6.46,2.37,1.03.4,2.06.82,3.08,1.24,1.13.47,2.43.83,3,2.01.26.55.34,1.03.86,1.38.56.37,1.28.39,1.91.54,2.24.54,1.55,2.05,2.43,3.61.44.78,1.14.77,1.89.47,1.31-.52,2.57-.61,3.74.26.82.61.91,1.47,1.49,2.23.31.41.71.57,1.21.63,1.15.14,2.19-.15,2.91,1.01.63,1.01.84,2.41,2.11,2.83,1.01.33,1.96.19,2.81.99.72.69,1.13,1.67,1.25,2.65.1.83-.01,1.69-.19,2.51-.08.35-.22,1.54-.54,1.68-.86.39-2.15-2.06-2.36-2.65-.03-.07-.16-.03-.2,0-2.04,1.44-4.29-.08-4.77-2.18-.13-.59-.25-1.25-.83-1.56-.68-.37-1.55.1-2.25-.2-1.4-.62-1.24-2.73-2.84-3.28s-3.65.3-4.86-1.34c-.75-1.03-.86-2.65-2.25-3.08-.97-.3-1.96.03-2.71-.84-.49-.57-.68-1.37-.96-2.05-.4-1.01-.91-1.92-2.09-2.05s-2.22.27-3.31-.41-1.68-1.83-1.66-3.08c0-.08-.13-.06-.17-.04-3,1.22-5.52-1.88-4.17-4.6.05-.11-.19-.08-.23,0h0Z"/>
    </g>
    <g>
      <path d="M722.63,390.75c.13,2.19,2.35,4.02,4.53,3.73.43-.06.86-.18,1.28-.07.87.23,1.14,1.3,1.65,2.04,1.15,1.68,3.63,1.69,5.59,1.16,1.26-.34,2.88-.71,3.63.36.29.42.36.99.72,1.35.96.97,3.06-.21,3.8.94.34.53.12,1.26.43,1.81.65,1.15,2.52.25,3.72.83.55.27.89.83,1.19,1.37.93,1.63,1.86,3.25,2.79,4.88.23.4.53.85.99.89.77.07,1.07-.99,1.06-1.76-.09-4.37-1.32-8.72-3.53-12.49-.55-.94-1.51-1.98-2.54-1.62-.34.12-.66.39-1.02.34-.59-.08-.7-.86-.8-1.44-.42-2.41-3.46-3.93-5.64-2.82-.59.3-1.24.76-1.84.48-.4-.19-.58-.64-.87-.97-.74-.85-2.07-.82-3.15-.53s-2.16.8-3.28.68c-1.4-.15-2.64-1.27-4.04-1.11-1.7.19-3.06,2.21-4.69,1.7"/>
      <path d="M722.5,390.78c.15,1.36.9,2.52,2.09,3.22.55.32,1.16.53,1.8.57.88.06,1.91-.32,2.63.36.48.45.64,1.19,1.05,1.7s.96.88,1.6,1.09c1.07.37,2.26.31,3.35.1,1-.2,2.01-.63,3.04-.43,1.19.23,1.1,1.08,1.75,1.85.79.95,2.07.32,3.1.57,1.56.38.5,2.55,2.21,2.9.54.11,1.11,0,1.65.03,1.51.05,2.05,1.18,2.73,2.36.5.88,1.01,1.76,1.51,2.64.37.65.73,1.66,1.36,2.12.46.33.98.27,1.36-.17.84-1,.32-3.19.17-4.31-.26-1.95-.74-3.87-1.44-5.72-.6-1.59-1.31-3.43-2.44-4.73-.35-.41-.81-.82-1.36-.92-.45-.08-.74.21-1.13.21-1.42.03-1.15-1.04-1.53-1.96-.23-.56-.61-1.05-1.07-1.44-.82-.7-1.91-1.1-2.99-1.06-.49.02-.95.13-1.4.32-.61.26-1.62.61-2.18.23-.3-.2-.45-.65-.74-.89-.98-.77-2.36-.51-3.45-.19-.65.19-1.33.49-2.01.54-.95.06-1.74-.22-2.59-.57-.66-.27-1.33-.56-2.06-.53-1.77.06-3.03,2.12-4.85,1.71-.07-.02-.29.1-.15.13.81.18,1.47-.05,2.19-.44,1.04-.58,1.9-1.41,3.25-1.23.89.12,1.67.66,2.52.91,1.17.35,2.19.08,3.33-.27s2.54-.79,3.6.04c.43.34.62.97,1.13,1.2.98.45,2.15-.7,3.06-.81,1.64-.2,3.41.79,4.12,2.28.33.69.19,2.12,1.12,2.33.15.03.32-.05.47-.06.82,0,1.34-.49,2.1.14.5.41.84,1,1.16,1.55,1.73,3.03,2.81,6.46,3.18,9.93.08.76.38,2.07.09,2.78-.89,2.19-1.99-.22-2.45-1.01-.81-1.41-1.51-3.01-2.5-4.31-.7-.92-1.54-.97-2.62-.96-.85.01-1.71.03-2.01-.93-.21-.66.01-1.4-.67-1.82s-1.54-.15-2.26-.19c-1.74-.11-1.39-2.03-2.93-2.41-1.22-.3-2.52.32-3.71.5-1.08.16-2.27.16-3.27-.33s-1.29-1.23-1.82-2.09c-.68-1.11-1.25-1-2.42-.92-2.25.14-4.18-1.46-4.42-3.7,0-.08-.26-.02-.25.07h0Z"/>
    </g>
    <g>
      <path d="M725.17,387.48c2.9.5,4.82-4.13,7.71-3.57,1.4.27,2.67,1.76,3.96,1.17.59-.27.98-.94,1.63-1.05,1.34-.21,1.64,1.92,2.76,2.7,1.39.97,3.52-.53,4.93.4.4.26.66.68,1.04.97.71.55,1.67.56,2.55.72.88.15,1.86.61,2.03,1.48,1.02-3.47-.84-7.55-4.13-9.05-.35-.16-.73-.3-1-.58-.26-.27-.39-.65-.55-.99-.8-1.74-2.59-2.98-4.5-3.12-.67-.05-1.38.01-1.95-.34-.8-.5-.95-1.59-1.5-2.35-1.29-1.78-4.09-1.21-6.07-2.15-.83-.39-1.5-1.04-2.3-1.49-.85-.48-1.84-.71-2.82-.66-.78.04-1.66.36-1.89,1.1-.16.51.03,1.06-.02,1.59-.11,1.34-1.61,2.07-2.9,2.45-1.29.38-2.81.85-3.24,2.13-.62,1.81,1.44,3.44,1.68,5.33.1.83-.15,1.69.02,2.5.16.75.67,1.37,1.16,1.96.87,1.04,1.74,2.08,2.6,3.13"/>
      <path d="M725.09,387.55c1.95.23,3.31-1.3,4.7-2.41.72-.57,1.55-1.2,2.52-1.2.86,0,1.59.49,2.33.87s1.49.67,2.28.31,1.52-1.43,2.43-.66c.42.36.66.98.96,1.43.6.88,1.26,1.29,2.33,1.25.66-.03,1.31-.22,1.98-.23,1.27-.03,1.59.63,2.46,1.27,1.38,1.02,3.91.19,4.55,2.17.03.09.25.02.27-.05.53-1.99.25-4.08-.76-5.88-.41-.74-.94-1.42-1.57-1.99-.82-.74-2.08-1.03-2.82-1.79-.41-.43-.57-1.11-.9-1.62-.26-.4-.57-.77-.93-1.09-.72-.65-1.61-1.11-2.56-1.32-1.4-.31-2.67,0-3.45-1.49-.4-.75-.63-1.45-1.36-1.95s-1.62-.66-2.46-.8c-1.43-.24-2.69-.45-3.92-1.29-1.45-.99-3.09-1.97-4.93-1.44-.45.13-.95.36-1.2.78s-.18.82-.17,1.3c.02,1.05-.24,1.62-1.09,2.21-1.46,1.01-3.96.88-4.9,2.64-.47.89-.19,1.82.22,2.67.64,1.3,1.36,2.31,1.33,3.82-.03,1.17-.02,2.06.7,3.06.94,1.3,2.06,2.5,3.09,3.73.06.07.31-.03.25-.1-1.53-1.83-3.88-3.75-3.8-6.3.03-.88.03-1.59-.32-2.42s-.94-1.6-1.24-2.48c-1.5-4.32,5.98-2.82,6.05-6.69,0-.36-.1-.82.02-1.17.38-1.11,2-1.1,2.93-.92.81.16,1.51.51,2.18.97.74.5,1.41,1.04,2.27,1.32,1.63.53,3.82.26,5.12,1.54s1,2.81,3.02,3.03c1.13.12,2.13.19,3.14.8,1.13.69,1.63,1.57,2.27,2.68.52.9,1.15,1.05,2.03,1.56.96.56,1.78,1.36,2.4,2.28,1.27,1.88,1.69,4.21,1.1,6.4l.27-.05c-.47-1.45-1.98-1.43-3.23-1.69-1.1-.24-1.54-.94-2.4-1.5-.38-.25-.8-.33-1.24-.34-1.63-.05-3.25.82-4.4-.84-.48-.69-.88-1.87-1.86-1.95-.23-.02-.48.05-.69.14-.23.1-.35.26-.55.38-.9.52-1.77.66-2.68.21-.96-.49-1.85-1.05-2.97-.83-2.52.49-3.89,3.89-6.63,3.56-.08,0-.31.12-.16.14h0Z"/>
    </g>
    <g>
      <path d="M717.52,389.35c-1.73-.33-2.89-2.39-2.28-4.04.2-.55.55-1.19.2-1.66-.15-.2-.4-.3-.62-.42-1.4-.77-1.89-2.84-.98-4.16.19-.28.44-.53.54-.85.42-1.33-1.83-2.61-1.12-3.82.59-1.01,2.34-.26,3.25-1,.88-.72.38-2.32,1.17-3.14,1.18-1.22,4.05.29,4.59-1.32.28-.84-.62-1.66-1.49-1.78s-1.75.19-2.64.23c-2.29.1-4.25-1.6-6.45-2.23-2.3-.66-4.76-.13-7.09.4-1,.23-2.03.47-2.86,1.07-1.28.93-1.86,2.72-1.38,4.22.09.29.22.62.09.89-.08.16-.23.27-.37.38-.73.52-1.46,1.05-2.19,1.57-.28.2-.58.43-.65.76-.16.77.93,1.16,1.7,1.04.78-.12,1.72-.36,2.22.24.94,1.12-1.35,2.75-.73,4.08.64,1.37,3.22.29,4.03,1.57.48.76-.08,1.8.22,2.65.31.87,1.38,1.19,2.3,1.22s1.92-.09,2.71.38c.61.35.99.98,1.47,1.5,1.45,1.57,3.71,2.03,5.82,2.41"/>
      <path d="M717.6,389.27c-1-.25-1.78-.94-2.17-1.9-.43-1.08-.05-1.7.19-2.75.12-.5.14-.8-.22-1.16s-.84-.49-1.19-.89-.56-.9-.65-1.41c-.21-1.14.35-1.69.8-2.63.25-.52.23-.93-.01-1.46s-.72-.99-.92-1.56c-.22-.61-.26-.35.37-1.03.75-.81.27-.47.81-.59.37-.09.77-.01,1.15-.09,1.05-.22,1.32-.96,1.49-1.94.09-.51.14-1.17.53-1.56.51-.52,1.32-.48,1.97-.47.5,0,1.04.07,1.54-.04.84-.17,1.47-.91.99-1.77-.67-1.19-2.13-.94-3.24-.8-2.38.31-4.09-.85-6.19-1.73-1.73-.72-3.51-.81-5.35-.56-2.73.38-6.73.83-7.36,4.12-.14.75.13,1.29.14,2.01.03,1.32-1.58,1.88-2.48,2.61-.71.58-1.02,1.35,0,1.8.55.24,1.07.12,1.64.05.65-.08,1.59-.09,1.8.69.12.45-.19.99-.38,1.38-.4.79-1.12,1.92-.26,2.68,1.16,1.04,3.5-.24,3.89,1.78.15.78-.26,1.59.2,2.33.34.54.99.8,1.59.91,1.11.21,2.26-.1,3.32.43.82.41,1.31,1.43,2.02,2.01,1.5,1.21,3.48,1.58,5.32,1.91.11.02.25-.14.09-.17-1.98-.36-4.13-.77-5.62-2.24-.98-.97-1.5-1.89-2.99-2.01-.95-.08-1.99.11-2.87-.38-1.21-.67-.64-1.76-.79-2.83-.12-.87-.72-1.22-1.53-1.36-.67-.11-1.42-.01-2.04-.3-1.08-.49-.71-1.53-.3-2.37.35-.72,1.02-1.7.26-2.38-.31-.28-.72-.32-1.13-.31-.25,0-.49.07-.73.09-.3.03-.44.07-.77.02-1.05-.16-.81-1.32-.19-1.89.78-.73,2.42-1.1,2.25-2.36-.13-.92-.36-1.66-.06-2.59.41-1.26,1.38-2.07,2.62-2.5,1.97-.68,4.24-1.12,6.32-1.09s3.79,1.01,5.7,1.83c1.51.66,2.69.68,4.29.51.84-.09,2.16-.19,2.55.79.27.68.05,1.29-.66,1.49s-1.41.04-2.1.07c-.8.04-1.53.23-1.93.97-.28.53-.25,1.16-.38,1.73-.34,1.45-1.75,1.18-2.83,1.44-.56.13-1.05.48-1.09,1.1-.04.57.4,1.09.68,1.54.65,1.05.71,1.55.05,2.63s-.61,2.6.25,3.62c.69.82,1.72.94,1.27,2.28-.2.59-.36,1.1-.27,1.74.18,1.34,1.17,2.4,2.46,2.72.1.02.29-.12.15-.15h0Z"/>
    </g>
    <g>
      <path d="M717.21,393.69c-.74-2.06-3.85-1.25-5.89-2.04-1.55-.6-2.6-2.28-4.24-2.56-1.18-.2-2.58.34-3.5-.43-.54-.45-.69-1.2-1.1-1.77-1.56-2.17-5.69-.69-7.18-2.91-1.34-2,.72-5.36-1.16-6.85-.59-.47-1.42-.57-1.94-1.11-1.04-1.09-.09-2.85.85-4.02,1.33-1.63,2.65-3.26,3.98-4.89-4.18-.95-8.64-.67-12.66.8-1.48.54-2.96,1.3-3.86,2.59-.9,1.3-.99,3.25.15,4.33.34.32.76.54,1.04.91,1.24,1.61-.85,4.68.91,5.7.41.24.92.25,1.32.5,1.17.72.61,2.76,1.66,3.65.91.78,2.35.17,3.46.61.67.27,1.13.88,1.69,1.33.78.63,1.77.94,2.72,1.24,2.72.84,5.45,1.69,8.17,2.53,1.93.6,4.01,1.19,5.92.56,2.16,3.14,6.98,4.04,10.12,1.89"/>
      <path d="M717.33,393.66c-.46-1.05-1.41-1.35-2.48-1.51-1.49-.22-2.98-.15-4.3-1.01-1.16-.76-2.11-1.94-3.56-2.11-.68-.08-1.37.08-2.05.02-1.51-.14-1.6-1.16-2.35-2.18-1.5-2.06-4.65-.9-6.54-2.27-2.54-1.83.39-5.48-1.7-7.4-.74-.68-1.95-.71-2.38-1.75-.37-.9.19-1.99.67-2.73,1.28-1.99,3.02-3.78,4.51-5.62.01-.01-.01-.02-.02-.02-4.76-1.04-10.75-.82-15.01,1.86-1.73,1.09-3.26,3.41-2,5.43.59.96,1.7,1.26,1.85,2.51.12.99-.22,1.97-.23,2.95-.01.9.26,1.44,1.08,1.81.69.32,1.19.29,1.56,1.04.23.46.27,1,.38,1.5.2.9.52,1.61,1.49,1.83.48.11.97.06,1.46.08,1.03.03,1.63.36,2.36,1.02,2.12,1.9,5.39,2.38,8.04,3.2s5.55,2.18,8.33,1.84c.63-.08.86-.15,1.36.27.42.35.74.78,1.19,1.1.97.7,2.11,1.16,3.29,1.35,1.91.32,3.84-.06,5.47-1.11.1-.06-.14-.03-.19,0-3.22,2.08-7.68,1.15-9.9-1.92-.02-.03-.1-.01-.13,0-2.49.72-5.03-.33-7.4-1.06-2.12-.66-4.24-1.31-6.35-1.97-.9-.28-1.84-.54-2.63-1.08-.69-.47-1.2-1.23-1.99-1.55-1.48-.6-3.42.36-4.05-1.65-.34-1.08-.23-2.23-1.4-2.77-.84-.39-1.53-.44-1.7-1.49-.1-.63.05-1.29.13-1.91.17-1.35.13-2.33-.96-3.23-1.45-1.19-1.59-3.1-.55-4.64,1.47-2.19,4.7-3,7.13-3.47s4.81-.52,7.21-.21c.28.04,1.36.06,1.53.26.36.41-.27.91-.5,1.2-.71.88-1.43,1.75-2.14,2.63-.91,1.12-2.51,2.69-2.2,4.31s2.53,1.41,3.05,2.97c.44,1.31-.07,2.78,0,4.13.15,3.16,3.18,2.89,5.51,3.41.83.19,1.64.49,2.16,1.2.45.61.6,1.43,1.26,1.87.52.35,1.14.35,1.75.33,1.32-.04,2.27.05,3.36.85,1.31.96,2.29,1.83,3.95,2.05,1.54.21,3.68,0,4.42,1.69.02.06.26-.02.25-.07h0Z"/>
    </g>
    <g>
      <path d="M714.43,398.32c-1.95,2.25-5.58,2.8-8.11,1.23-.84-.53-1.56-1.25-2.46-1.68-2.6-1.26-5.95.25-8.49-1.13-1.38-.76-2.23-2.24-3.58-3.05-2.69-1.61-6.51-.11-9.09-1.9-.66-.46-1.19-1.11-1.93-1.43-1.18-.5-2.58-.02-3.8-.41-1.61-.52-2.51-2.41-4.15-2.82-.98-.25-2.09.07-2.96-.43-1.52-.87-1.2-3.54-2.78-4.3-.62-.3-1.37-.2-1.99-.48-1.5-.69-1.23-2.97-.28-4.33,1.2-1.72,3.01-2.9,4.78-4.04.41-.27.83-.53,1.24-.8,2.1-1.35,4.72-2.75,6.96-1.65.44.22.89.63.8,1.12-.04.25-.22.45-.39.64-1.26,1.39-2.52,2.77-3.78,4.16,1.52,0,2.27,1.84,2.46,3.35s.45,3.34,1.86,3.91c.71.29,1.62.19,2.14.76.4.44.38,1.11.64,1.65.78,1.59,3.13,1.06,4.85,1.45,1.21.27,2.21,1.08,3.28,1.72,1.23.73,2.59,1.23,3.93,1.73,1.22.45,2.43.9,3.65,1.35,3.4,1.26,6.8,2.51,10.27,3.55,2.44.73,4.91,1.35,7.41,1.85"/>
      <path d="M714.32,398.32c-1.21,1.31-2.9,2.07-4.7,2.06-1.66-.01-2.92-.66-4.22-1.63-2.04-1.51-3.87-1.5-6.33-1.46-1.64.03-3.16-.15-4.46-1.23-.85-.7-1.5-1.61-2.41-2.24-1.99-1.37-4.49-.92-6.75-1.2-.69-.08-1.4-.23-2.02-.54-.7-.35-1.21-.92-1.85-1.37-.91-.64-1.77-.66-2.85-.67-1.73-.02-2.6-.61-3.82-1.7-.71-.64-1.41-1.2-2.38-1.35-1.44-.22-2.73.06-3.49-1.45-.41-.8-.54-1.75-1.06-2.49-.62-.89-1.45-.79-2.4-1.09-1.48-.48-1.65-1.98-1.18-3.31.55-1.55,1.91-2.71,3.2-3.66,1.4-1.03,2.9-2,4.41-2.87,1.02-.59,2.25-1.22,3.44-1.31.61-.05,1.31-.04,1.88.19,1.02.41,1.3.93.77,1.86-.42.73-1.32,1.45-1.89,2.08-.63.69-1.26,1.39-1.89,2.08-.04.05.04.07.07.07,2.38.19,2.24,3.31,2.67,4.98.39,1.54,1.12,2.17,2.6,2.52s1.17,1.37,1.9,2.4c.33.47.84.71,1.39.84.6.15,1.24.16,1.85.2,1.25.09,2.28.35,3.36,1,4.05,2.42,8.55,3.84,12.98,5.43s9.03,2.98,13.7,3.94c.08.02.29-.1.15-.13-5.9-1.21-11.56-3.14-17.21-5.23-2.61-.96-5.41-1.76-7.84-3.14-1.01-.58-1.95-1.35-3.07-1.71-.85-.27-1.74-.26-2.61-.33-1.41-.11-2.37-.46-2.83-1.88-.25-.77-.48-1.2-1.29-1.45-1.42-.43-2.27-.66-2.75-2.2-.33-1.06-.3-2.18-.65-3.23-.22-.66-.56-1.37-1.15-1.78-.04-.03-.77-.3-.79-.34-.19-.31.77-1.09,1-1.34.47-.52.94-1.04,1.42-1.56.41-.45,1.06-.96,1.35-1.51.4-.77-.18-1.3-.86-1.6-1.67-.74-3.57-.11-5.1.67-2.2,1.12-4.51,2.58-6.36,4.23-1.28,1.14-2.59,2.74-2.31,4.59.1.66.44,1.22,1.05,1.51.38.19.82.19,1.22.27.89.2,1.39.55,1.78,1.36.74,1.52.85,3.22,2.84,3.45,1.29.15,2.27.1,3.35.96.71.57,1.3,1.3,2.11,1.74.88.48,1.79.39,2.75.42,1.1.04,1.9.31,2.75,1.02.41.34.79.67,1.26.92,1.92,1.02,4.21.61,6.28.88,1.53.2,2.64.82,3.73,1.89.83.82,1.6,1.7,2.71,2.14,2.45.97,5.19-.2,7.64.75,1.32.51,2.26,1.66,3.56,2.23.91.39,1.9.55,2.88.51,1.8-.08,3.47-.86,4.68-2.18.07-.07-.18-.06-.23,0h0Z"/>
    </g>
    <g>
      <path d="M680.99,395.47c.61-.97-.49-2.21-1.61-2.44-1.12-.23-2.33.05-3.42-.3-1.42-.46-2.32-1.86-3.64-2.57-1.39-.75-3.07-.64-4.63-.91-1.56-.27-3.27-1.24-3.37-2.82-.06-.85.3-1.91-.38-2.41-.69-.51-1.83.14-2.49-.42-.74-.63,0-1.91-.42-2.78-.29-.58-1.02-.8-1.67-.76-2.24.12-3.71,2.3-4.82,4.25-1.3,2.26-2.59,4.53-3.89,6.79-.09.16-.18.32-.22.49-.19.8.77,1.47,1.58,1.39.82-.09,1.49-.64,2.18-1.09s1.55-.82,2.31-.5c.76.32,1.12,1.19,1.78,1.69,1.61,1.22,3.93-.33,5.91.07,1.22.25,2.2,1.24,3.43,1.48,1.25.24,2.51-.35,3.78-.37,1.79-.04,3.38,1,5.01,1.73,1.63.73,3.72,1.11,5.06-.06"/>
      <path d="M681.12,395.45c.48-1.03-.34-2.02-1.31-2.38-1.56-.57-3.21.1-4.71-.88-1.17-.77-2-1.9-3.37-2.38s-2.86-.34-4.26-.68c-1.54-.37-3-1.34-3.02-3.06,0-.99.26-2.11-1.01-2.31-.75-.12-1.86.24-2.16-.7-.2-.63.15-1.33-.02-1.97-.26-.98-1.31-1.17-2.19-1.04-2.12.31-3.47,2.27-4.47,3.97-.89,1.5-1.74,3.03-2.61,4.55-.48.84-1.03,1.67-1.46,2.55-.23.46-.37.84-.02,1.32.44.6,1.22.68,1.88.51.31-.08.58-.22.86-.37.36-.2.68-.5,1.04-.68,1.91-.96,2.26-.55,3.14.45.69.78,1.31,1.25,2.38,1.26,1.85.02,3.48-.9,5.32-.03,1.29.62,2.21,1.27,3.7,1.11,1.26-.13,2.4-.54,3.69-.26.94.2,1.81.65,2.66,1.06,2.01.97,4.43,1.95,6.42.43.05-.04-.18-.02-.22.02-2.92,2.25-6.18-1.26-9.05-1.68-.97-.14-1.84.08-2.79.23-1.31.21-2.09.1-3.17-.46-.51-.26-.99-.57-1.52-.77-2.21-.81-5.02,1.3-6.81-.59-.61-.65-1.04-1.4-2.01-1.44-.62-.02-1.2.24-1.72.55-.29.17-.56.44-.87.57-.46.2-2.03.56-2.45.23-.74-.59-.3-1.29.06-1.92.76-1.35,1.54-2.69,2.31-4.03.68-1.19,1.33-2.42,2.09-3.57.33-.5.69-.99,1.1-1.43,1-1.05,3.49-2.49,4.39-.77.41.79-.24,1.8.24,2.56.7,1.1,2.47-.21,3.02,1.11.38.92-.19,1.93.31,2.87.43.81,1.28,1.32,2.12,1.63,1.27.47,2.65.39,3.97.63,1.61.3,2.5,1.18,3.71,2.16,1.04.85,1.99,1.11,3.31,1.15.88.02,1.8-.04,2.56.49.69.48,1.1,1.22.73,2.03-.02.04.21.02.24-.04h0Z"/>
    </g>
    <g>
      <path d="M669.88,397.79c-1.49-1.19-3.72.41-5.58-.03-1.14-.27-2.1-1.31-3.27-1.2-1.4.13-2.46,1.9-3.81,1.52-.91-.25-1.38-1.4-2.31-1.57-.85-.16-1.59.57-2.11,1.26-1.79,2.35-3.19,5-4.11,7.81-.1.31-.2.65-.12.97.18.72,1.2.93,1.84.55.64-.38.97-1.11,1.23-1.81.26-.7.52-1.44,1.08-1.92,1.67-1.42,4.57.4,6.33-.91.54-.4.88-1.04,1.47-1.35,1.38-.71,3.19.77,4.54.02.5-.28.8-.8,1.2-1.21.66-.67,1.62-1.03,2.55-.95.44.04.89.16,1.31.04.42-.12.77-.64.52-1"/>
      <path d="M669.97,397.72c-1.65-1.14-3.55.25-5.33,0s-2.84-1.88-4.68-.87c-1.25.68-2.19,1.77-3.58.54-.52-.46-.98-1.02-1.74-.99-1.61.06-2.77,2.41-3.49,3.58-.6.99-1.14,2.01-1.61,3.07-.4.89-1.13,2.19-1.12,3.19.01,1.26,1.55,1.36,2.33.72.69-.56.91-1.48,1.24-2.27.68-1.62,1.92-1.91,3.53-1.77s2.93.3,4.12-.89c.47-.47.46-.49,1.2-.76.82-.3,1.06-.24,1.89-.06.4.09.79.2,1.2.21.71.03,1.25-.2,1.76-.7.94-.93,1.59-1.75,3.09-1.68.44.02.91.18,1.34.04.51-.17.85-.58.65-1.12-.04-.1-.28-.03-.25.07.4,1.09-2.28.82-2.77.94-.6.15-1.14.47-1.59.91-.7.68-.81,1.32-2.14,1.38-.43.02-.88-.14-1.3-.24-.55-.12-1.13-.26-1.69-.16-.52.09-.89.37-1.26.74-.39.39-.73.84-1.24,1.06-.65.28-1.38.24-2.06.18-1.1-.08-2.34-.35-3.37.18-.47.24-.82.62-1.07,1.08-.21.37-.34.79-.5,1.18-.08.2-.15.4-.25.6-.35.73-.49.79-1.35.97-.8.17-1.21.29-1.23-.65,0-.26.05-.4.11-.63.15-.6.42-1.21.66-1.79.39-.95.84-1.88,1.34-2.78.56-1,1.17-1.97,1.86-2.89.29-.38.7-1.04,1.14-1.24.24-.11,1.36-.14,1.57-.05.27.12.46.39.67.58.74.68,1.45,1.03,2.42.58.86-.39,1.56-1.26,2.54-1.34,1.17-.1,2.12.93,3.21,1.19,1.84.44,3.87-1.14,5.55.02.08.06.3-.06.19-.13h0Z"/>
    </g>
    <path d="M755.44,422.65c1.96.44-9.98,5.57-10.49,3.64-.51-1.94-3-4.19-4.78-5.12-1.78-.93,10.68,3.44,7.35-5.68,1.4-1.56,5.29,4,7.11,2.96,2.37-1.35-2.24-4.41-3.97-6.51-1.74-2.1-1.93-3.01-3.78-5.02-.69-.75.55-2.99,1.3-3.7.28-.27.67-.37,1.03-.51,1.57-.65,2.52-2.36,2.62-4.05.1-1.69-5.42-2.89-6.3-4.34-1.51-2.47-1.51-4.68-4.13-5.89-1.06-.48.42-1.12-.37-1.98-.78-.86-.98-2.39-.05-3.09.55-.41,1.3-.4,1.98-.35,3.11.18,6.3.58,9.07,2.02,2.77,1.44,5.07,4.11,5.3,7.22.09,1.23-.13,2.53.37,3.65.62,1.41,2.19,2.16,3.02,3.46,1.69,2.61-.07,6.53,1.84,8.98.6.77,1.48,1.26,2.13,1.98,1.16,1.28,1.45,3.28.7,4.84-.45.94-1.22,1.69-1.67,2.63-1.67,3.51,1.77,7.54,1.17,11.38"/>
    <path d="M654.63,448.67c1.78-1.67,4.4-3.04,8.58-3.46,6.68-.67,11.23,7,11.23,7,0,0-4.7-5.62-11.31-5.13-3.19.24-7.97,3.05-10.12,4.71-.06-.64.56-2.05,1.62-3.13Z"/>
    <path class="cls-15" d="M759.19,439.4c.13-2.13-.16-4.31-1.31-6.15-.38-.61-.83-1.35-1.65-1.15-1.66.41-2.81,2.42-3.54,3.77-1.35,2.51-2.21,5.29-2.94,8.03-.17.62,1.12.36,1.32.1.25-.32.81-1,1.26-.92.59.1.92,1.3,1.01,1.77.38,2.11-1.21,3.54-3.02,4.25-.26.1-.54.39-.36.67s.73.16.97.06c2.39-.94,4.65-3.12,3.72-5.9-.34-1.04-1.09-1.94-2.28-1.81-.98.1-1.89.79-2.49,1.54l1.32.1c.86-3.21,1.85-6.68,3.84-9.4.36-.49.8-.96,1.2-1.26.17-.13.23-.03.27-.16,0,.02-.05.02-.21.05l-.59-.17c1.8,1.57,2.13,4.51,2,6.72-.04.68,1.42.43,1.46-.14h0Z"/>
    <path d="M693.14,448.4s4.74-9.82,12.09-10.61c10.33-1.11,12.91,2.77,15.5,5.66,0,0-7.42-4.95-15.39-3.89-7.22.96-12.2,8.85-12.2,8.85Z"/>
    <path class="cls-23" d="M688.13,480.9c6.04-1.43,15.68-4.44,15.68-4.44,0,0,4.73,15.96-12.1,19.67-14.06,3.1-15.78-11.69-15.78-11.69,0,0,6.15-2.11,12.2-3.55Z"/>
    <path d="M688.07,480.92c2.87-.68,13.55-3.33,13.55-3.33,0,0-.7,10.29-11.1,12.75-11.27,2.67-12.85-6.39-12.85-6.39l10.4-3.03Z"/>
    <path class="cls-34" d="M688.26,482.27c2.87-.68,11.51-3.22,11.51-3.22,0,0-2.88,3.18-11.5,5.22-8.62,2.04-11.61.34-11.61.34l11.6-2.35Z"/>
    <path class="cls-23" d="M673.66,483.83c-.08-.31.52-.59,1.92-1.05,2.33-.76,2.91-1.8,4.6-2.33,2.89-.92,5.02-.24,6.3-.54,1.28-.3,2.88-1.86,5.88-2.34,1.75-.28,6.16-.69,8.59-1.05,1.46-.22,3-1.15,3.32-1.15.45,0,.38,4.14-15.7,7.95-16.08,3.81-14.81.94-14.91.52Z"/>
    <path class="cls-4" d="M690.66,431.25c-.05-.15.45-.29.41-.43,7.42-3.84,13.39-5.44,15.69-5.55,1.75-.08,3.54.21,5.3.76,0,0,4.85,1.45,5.6,2.31.76.86-2.7.13-2.7.13-.72-.05-1.23-.19-1.94-.14-3.89.28-7.75-.01-11.38,1.4-3.11,1.19-6.98,4.2-9.76,6.19-.49-1.59-.6-3.13-1.21-4.67Z"/>
    <path class="cls-4" d="M672.42,435.99c-.01-.15-.46-.1-.48-.25-7.3-.86-12.65-.16-14.53.58-1.43.56-2.76,1.48-3.98,2.64,0,0-3.38,3.12-3.69,4.19-.31,1.08,2.21-.87,2.21-.87.56-.31.92-.63,1.51-.84,3.22-1.17,6.21-2.84,9.62-2.85,2.92-.03,7.07,1.35,10.01,2.18-.16-1.65-.62-3.13-.67-4.78Z"/>
    <g>
      <path d="M683.02,473.81c1.6.4,3.71-.29,4.92-1.52.27-.27,1.37-.34.99.05-1.6,1.62-4.67,2.48-6.73,1.96-.2-.05-.21-.2,0-.33.22-.14.6-.21.81-.16"/>
      <path d="M689.46,471.78c.84-.68,1.85-1.18,2.9-1.52.15-.05.37-.04.51.04.11.06.15.16.05.26-.42.4-1.02.67-1.6.8-.18.04-.43.05-.57-.08-.13-.12.02-.26.16-.29.48-.11.94-.32,1.29-.65.19.1.38.2.56.29-.93.3-1.83.75-2.59,1.36-.15.12-.41.13-.58.07-.13-.04-.29-.17-.14-.29"/>
      <path d="M693.72,470.89c1.24-.33,2.57-1.23,2.96-2.32.58-1.64-.87-3.82-2.64-4.35-.19-.06-.13-.21.03-.29.21-.1.5-.08.7-.02,1.55.46,2.91,2.23,3.04,3.61.11,1.29-.87,2.45-2.27,3.17-.42.21-.87.4-1.34.52-.19.05-.54.08-.67-.05-.13-.13.03-.23.2-.28"/>
      <path d="M680.59,473.73c.03-.16-.11-.22-.21-.2-.33.09-.7.08-1.04-.09-.08.16-.15.32-.23.48.69-.09,1.42-.03,2.12.23.14.05.3-.04.38-.16.06-.09.11-.26-.03-.32"/>
      <path d="M681.57,473.68c-.78-.29-1.6-.34-2.37-.24-.11.02-.24.11-.3.23-.04.1-.03.21.07.25"/>
      <path d="M678.04,474.52c-.82.16-1.9-.15-2.53-.99-.95-1.27-.8-3.09,0-4.24.09-.13,0-.24-.12-.25-.16-.01-.31.11-.4.24-.69,1-.95,2.42-.49,3.72.43,1.21,1.41,1.9,2.47,2.02.31.04.64.04.95-.03.12-.03.33-.14.35-.3.02-.16-.1-.2-.22-.18"/>
    </g>
    <path class="cls-33" d="M280.25,310.85c-.49.7-5.87,4.85-8.78,5.29,1.97,6.69-.8,25.27,4.28,30.3,9.61,9.51,32.75,37.51,46.14,39.02,11.91,1.34,32.4-14.7,30.16-30.13-2.54-8.42-4.33-14.85-4.31-16.24.06-4.2,11.78-32.72,11.78-32.72l-63.04-45.36s-1.63,28.83-16.23,49.84Z"/>
    <path class="cls-15" d="M349.81,331s-4.72-5.59-9.31-7.95c-4.59-2.37-12.98-3.79-31.41-27.86.16.21-.05,1.48-.03,1.76.08,1.65.4,3.28.85,4.87,1.78,6.19,5.69,11.61,10.16,16.15,3.38,3.43,7.12,6.49,11.12,9.17,3.71,2.49,7.53,4.73,11.82,6,1.25.37,2.52.69,3.8.92.33.06,1.92.82,1.98.55l1.03-3.59Z"/>
    <path class="cls-33" d="M407.88,190.83c.08.1.17.21.26.31-.07-.19-.14-.39-.18-.57l-.08.26ZM419.21,196.81c.13.22.27.44.43.66l.07-.22s-.42-.7-.5-.44ZM307.57,294.9c7.91,14.83,24.17,32.48,42.18,36.97,6.45,1.61,14.22,3.1,19.82.26,5.43-2.76,9.63-6.94,14.09-10.97,4.04-3.64,8.41-6.85,12.18-10.85,8.42-8.95,16.67-14.92,18.09-32.91.31-3.97.93-8.99,2.28-12.56,1.55-4.12,7.48-21.13,10.69-30.78,3.21-9.65-1.47-26.78-1.47-26.78.22-2.8-.66-5.07-1.46-7.61l-1.15-.34s.49.43.26,1.22c-1.39-.66-2.6-1.88-3.46-3.05-1.96.27-3.44-1.03-4.48-2.78-.08.26.05.87.34.96-1.8-.25-3.28-1.56-4.11-2.96-.08.26.05.88-.03,1.14-1.23-.63-2.33-1.7-3.2-2.74.16.43,6.93,1.36,6.87,1.54-1.8-.25,0,.91-1.04-.83l-1.13-1.41c-1.51-.17-1.72.71-2.55-.68.21.35.08-3.13,0-2.87-1.72-.52-1.22-.49-2.41-1.71-.08.26-5.2.3-5.28.56-1.43-.43-1.45,1-2.28-.4.21.35,1.37-.79,1.57-.44-1.8-.25-2.78.66-3.81-1.09.21.35-4.8-4.59-4.8-4.59-1.8-.25-1.67.38-2.79-1.11.42.7-7.79-2.87-7.66-2.26-1.43-.43,1.16,6.07.25,4.94-.08.26-3.06-1.78-3.06-1.78-1.51-.17.24,1.8-.59.4-.08.26-.03,1.14.26,1.22-1.96.27-3.81-.86-5.21-2.43.42.7.54,1.31.75,1.66-1.43-.43-2.66-.51-3.77-1.99-.08.26.26,1.22.54,1.31-1.59.09-3.23-.68-4.43-1.9-.08.26.34.96.54,1.31-1.22-.08-2.37-.43-3.28-1.56l.54,1.31c-1.15-.34-2.16-.08-3.73-1.12-.08.26.42.7.34.96-.86-.26-2.01-.6-2.79-1.12-.08.26.62,1.05.34.96-1.15-.34-2.16-.08-3.44-1.03.21.35.34.96.54,1.31-1.15-.34-2.37-.43-3.36-1.3-.08.26.05.87.26,1.23-1.15-.34-2.16-.08-3.44-1.03-.08.26.34.96.55,1.31-1.15-.34-2.37-.43-3.44-1.03-.08.26.42.7.62,1.05-1.15-.34-2.37-.42-3.65-1.38-.16.53.05.87-.03,1.14-.86-.26-1.35-.69-2.21-.95l-1.59.09c-5.59,4.06-10.6,21.77-10.6,21.77-11.02,4.43-18.8,17.87-20.02,22.95-1.22,5.08-5.89,15.44-5.89,15.44-.88-2.27-2.85-7.16-3.07-9.53-.31-2.1.98-4.29.67-6.39-1.31-4.98-7.44-5.39-11.38-3.71l-.79.71c-6.17,4.63-6.92,24.55-5.31,31.01-2.39,11.47,5.71,20.28,13.65,13.85l.25,4.83"/>
    <path class="cls-19" d="M426.15,218.06c-2.35-17.41-19.32-31.28-54.23-46.58-34.91-15.29-67.21-10.54-67.21-10.54,32.43-46.84,84.57-29.34,96.31-25.81,11.74,3.53,58.59,67.45,25.86,104.53l-2.83,2.85s2.53-21.28,2.1-24.45Z"/>
    <path class="cls-19" d="M298.63,147.37s5.42-33.82,32.43-37.61c36.09-5.06,81.28,1.49,86.76,39.55l-119.19-1.94Z"/>
    <path class="cls-14" d="M278.21,227.25c-1.83-3.44,1.13-10.75-.23-14.39-7.12-19.11,1.21-33.22,8.44-40.93,3.14-3.35,2.46-11.1,3.68-14.5,6.42-17.82,8.67-17.76,41.19-28.27,26.47-8.55,50.03-.74,63.57,4.12,21.68,7.79,30.98,12.08,33.99,30.02.39,2.34-.72,2.81-.62,5.52.15,3.83,5.02,6.68,4.6,11.36,0,0-31.69,2.89-59.87,8.71-28.18,5.82-86.48,43.63-89.28,59.36-.09.49-3.45-17.2-5.48-21Z"/>
    <path class="cls-19" d="M276.18,195.78s70.21-48.55,115.8-35.35c0,0-68.84-21.83-107.25,12.42l-1.12,1.49c-2.94,3.93-5.16,8.35-6.57,13.06l-.87,8.38Z"/>
    <path class="cls-12" d="M293.4,258.95c-2.84-.55-4.84,1.29-5.84,3.54-1.81,4.04,1.61,8.63,5.91,7.58.16-.04.33-.09.5-.14,0,0-5.94,3.91-9.35-.37-3.41-4.28-.09-8.95,1.78-9.94,4.15-2.19,7-.66,7-.66Z"/>
    <path class="cls-4" d="M314.42,217.85l-9.21,25.13-5.6-14s10.56-7.99,14.81-11.13Z"/>
    <path class="cls-17" d="M299.31,239.84c-1.73-.5-4.05-.55-4.43,1.67-.32,1.85.41,3.75.15,5.62-.09.67-.43,1.85-1.25,1.99.11-.02-.14-.06-.25-.12-.21-.1-.38-.28-.53-.45-.47-.52-.79-1.18-1.04-1.83-.9-2.37-1.02-5.14-.16-7.54.41-1.17.92-2.32,1.59-3.36s1.64-2.25,2.95-2.42c.82-.1,1.15-1.21.13-1.09-2.73.34-4.4,2.79-5.46,5.11s-1.47,4.37-1.2,6.87c.22,2.02,1.51,6.92,4.54,5.74,2.23-.87,2.35-3.31,2.18-5.35-.09-1.07-.33-2.22-.14-3.29.2-1.13,1.1-.82,2.05-.55.64.18,1.76-.74.86-1h0Z"/>
    <g>
      <path d="M376.98,284.89c-2.31.51-5.24-.65-6.84-2.55-.35-.42-1.91-.58-1.41.01,2.11,2.52,6.38,3.97,9.36,3.31.3-.07.31-.29.03-.49-.29-.22-.82-.35-1.14-.28"/>
      <path d="M368.05,281.49c-1.13-1.06-2.51-1.86-3.96-2.43-.21-.08-.52-.08-.73.03-.16.08-.24.23-.1.38.56.62,1.38,1.06,2.19,1.28.25.07.61.1.82-.08.2-.17,0-.39-.2-.44-.67-.18-1.3-.53-1.76-1.04-.28.13-.55.27-.83.41,1.3.51,2.53,1.23,3.53,2.18.2.19.56.21.82.14.19-.05.43-.23.23-.43"/>
      <path d="M362.09,279.92c-1.73-.57-3.53-1.98-3.96-3.63-.66-2.49,1.55-5.45,4.13-6.15.28-.08.21-.3-.01-.43-.29-.16-.7-.15-.99-.07-2.24.6-4.29,2.97-4.61,5.03-.29,1.92.99,3.7,2.9,4.86.57.34,1.2.65,1.84.86.26.08.76.14.96-.04.2-.18-.01-.35-.26-.43"/>
      <path d="M380.45,284.9c-.03-.24.19-.33.32-.28.47.15.99.16,1.49-.07.09.25.19.49.28.74-.97-.17-2.01-.13-3.03.22-.2.07-.42-.08-.53-.26-.08-.13-.13-.4.07-.47"/>
      <path d="M379.05,284.78c1.14-.39,2.3-.42,3.39-.23.16.03.33.18.4.36.05.15.02.31-.12.37"/>
      <path d="M383.98,286.23c1.14.29,2.72-.12,3.69-1.34,1.47-1.85,1.44-4.58.44-6.34-.11-.19.03-.36.2-.36.22-.01.43.18.54.38.88,1.54,1.1,3.68.32,5.59-.73,1.79-2.2,2.75-3.71,2.88-.45.04-.91.02-1.34-.09-.17-.05-.46-.22-.47-.46-.02-.25.17-.3.33-.26"/>
    </g>
    <path class="cls-4" d="M408.25,254.88c1.84-.35,3.69.94,4.45,2.18.18.29.45,1.09.44,2.23,0,1.45-1,2.81-2.11,3.48-1.49.89-3.42.54-4.65-.55-1.67-1.49-1.6-4.02-.61-5.58.18-.28.99-1.47,2.48-1.75"/>
    <path class="cls-4" d="M390.95,254.93s9.58-3.77,13.65-2.97c5.95,1.16,12.11,6.5,13.29,9.98,0,0-7.98-7.62-12.2-8.32-4.03-.67-14.75,1.3-14.75,1.3Z"/>
    <path class="cls-4" d="M360.34,240.43c-1.34-1.3-3.97-1.84-5.29-1.23-.31.14-1.15.56-1.78,1.52-.79,1.22-.72,2.89-.15,4.06.75,1.57,2.55,2.34,4.19,2.1,2.22-.32,3.55-2.47,3.58-4.32,0-.34.5-.85-.58-1.9"/>
    <path class="cls-4" d="M366.51,246.65s-7.08-8.19-11.34-9.61c-6.22-2.07-14.82-.64-17.75,1.75,0,0,11.51-2.45,15.85-.87,4.15,1.51,13.24,8.73,13.24,8.73Z"/>
    <path class="cls-4" d="M420.87,251.46c.2-.06.41-.06.65-.04.18-.3.36-.61.53-.93.09-.22.17-.44.22-.66,0-.06,0-.12,0-.18-.82-2.37-2.07-3.93-2.2-4.1,0,0-1.73-2.21-4.97-3.94-2.23-1.19-8.72-3.25-17.73-4.34-.29,1.19-.58,2.38-.86,3.57-.22.91-.43,1.82-.65,2.72,3.22-.02,5.94.12,7.98.27,4.32.32,6.52.51,8.83,1.5,2.43,1.04,4.34,2.51,5.08,3.09,1.04.81,1.75,1.34,2.52,2.25.23.27.39.53.58.79Z"/>
    <path class="cls-4" d="M374.66,228.46c-.46,1.13-.93,2.26-1.4,3.4-.36.86-.72,1.72-1.08,2.58-3.15-2.13-5.91-3.81-8.01-5.03-4.44-2.58-6.72-3.88-9.62-4.61-3.04-.77-5.85-.86-6.94-.89-1.54-.04-2.56-.09-3.89.12-2.89.46-4.49,1.66-4.81,1.37-.29-.27.84-1.43.96-1.55,2.88-2.92,6.97-3.67,7.29-3.74,0,0,3.1-.62,7.36.14,2.94.52,10.61,3.15,20.16,8.2"/>
    <path class="cls-23" d="M366.66,294.43c-9.05-2.96-22.07-11.34-22.07-11.34,0,0-6.57,24.34,14.42,31.2,20.99,6.85,26.63-14.05,26.63-14.05,0,0-9.93-2.85-18.98-5.81Z"/>
    <path class="cls-13" d="M366.75,294.46c-4.3-1.41-19.5-9.04-19.5-9.04,0,0-.76,16.68,14.8,21.77,16.88,5.51,20.61-7.41,20.61-7.41l-15.91-5.32Z"/>
    <path class="cls-34" d="M366.72,295.19c-4.3-1.41-17.15-6.44-17.15-6.44,0,0,3.11,6.44,16.03,10.66,12.91,4.22,18.57.8,18.57.8l-17.44-5.02Z"/>
    <path class="cls-23" d="M386.99,299.22c-.42-.27-1.85-1.01-1.85-1.01-3.46-1.48-3.65-2.5-6.16-3.55-4.29-1.79-7.68-.9-9.6-1.52-1.92-.63-4.12-3.35-8.65-4.43-2.65-.64-6.33-1.55-9.79-3.02-5.06-2.16-6.47-5.42-6.96-5.45-.69-.05-2.23,8.87,21.86,16.74,24.08,7.87,21.73,2.63,21.15,2.26Z"/>
    <path class="cls-33" d="M135.2,804.71c-3.24-6.1-11.49-12.1-17.18-14.7-5.69-2.6-11.96.93-13.63,1.84-12.5,6.78-18.21,18.22-27.57,28.5-7.18,7.88-15.33,14.87-24.2,20.78-9.02,6.01-16.49,9.59-25.68,15.12-.07.04-1.01.08-1.08.12-4.56,2.74-7.13,7-8.91,12.01-.65,1.83-1.32,3.63-2.08,5.35-1.05,2.38-2.26,4.2-.68,6.73,2.92,4.67,10.59-1.74,12.89-2.99.43-.23.9-.35,1.39-.35,1.95-.02,5.02-.36,14.42-3.38.91-.29,1.8-.51,2.69-.69.03.05-.03-.05,0,0,5.02-1.3,27.91-4.59,31.99-5.39,8.06-1.58,32.44-9.27,32.44-9.27,2.8-.67,51.17-31.55,65.87-24.36l-12.65-18.72s-24.8-4.49-28.05-10.59Z"/>
    <path class="cls-33" d="M155.28,736.96c-4.12-5.54-13.17-10.24-19.19-11.96-6.02-1.72-11.68,2.71-13.2,3.86-11.34,8.58-15.27,20.75-22.98,32.31-5.92,8.87-12.92,17-20.81,24.18-8.01,7.29-17.47,12.35-25.73,19.2-.06.05-.12.1-.18.15-4.1,3.39-6.87,8.12-7.88,13.34-.37,1.91-.76,3.79-1.25,5.6-.68,2.51-1.61,4.49.34,6.76,3.59,4.18,10.21-3.3,12.3-4.9.39-.29.84-.48,1.32-.55,1.92-.31,7.52-1.51,16.36-5.9.86-.43,1.71-.78,2.56-1.09.03.05-.03-.05,0,0,4.77-2.04,26.9-8.72,30.82-10.13,7.73-2.77,30.68-14.03,30.68-14.03,2.67-1.08,34.74-18.67,50.36-13.77l-4.21-36.81s-25.2-.71-29.32-6.26Z"/>
    <path class="cls-33" d="M107.17,731.77c8.03,28.23-22.57,58.9,14.81,69.82l8.8,12.87c-9.27,24.42-22.75,13.89-13.73,38.41l36.14-15.04s190.24,33.48,226.64,16.81c14.77-3.94,42.94-38.25,37.06-84.13-5.88-45.88-25.44-34.18-38.61-39.49-13.17-5.31-146.37-13.08-195.2-8.15l-58.72-30.5-17.19,39.39Z"/>
    <path class="cls-31" d="M110.01,563.74c.25-.98,1.53,5.25,1.73,4.13,2.1-1.42,1.12-2.65,5.8-6.1,7.29,2.58,1.61-1.62,9.14.09,18.35,4.19,28.97,32.46,47.73,32.04,20.53-.46,40.97-2.56,61.39-4.53,17.68-1.7,35.4-3.34,53.16-3.75l2.95,37.36,113.68,82.24s73.27,61.83,30.12,99.93c-32.39,28.6-126.28,11.57-126.28,11.57-.87,1.59-22.85-4.56-35.74-6.35-15.99-3.57-117.36-12.6-126.67-14.43-46.05-9.09-84.74-35.78-88.93-83.65-2.29-26.19.83-59.3,13.06-82.69,16.49-31.54,35.7-53.55,38.87-65.86Z"/>
    <path class="cls-15" d="M77.58,820.53c1.76-2.14,3.51-4.27,5.27-6.41,1.54-1.87,3.25-3.67,4.61-5.67,3.99-5.83,6.43-12.71,12.16-17.2,4.29-3.36,9.63-4.59,15-4.62.37,0,1.07-.12,1.22-.53.14-.38-.12-.62-.52-.62-4.98.02-9.93.92-14.29,3.4-3.44,1.96-6.21,4.84-8.46,8.07-2.07,2.98-3.68,6.23-5.54,9.34-1.33,2.24-2.97,4.14-4.61,6.14-2.12,2.57-4.23,5.14-6.35,7.72-.71.87,1.07.91,1.51.38h0Z"/>
    <path class="cls-33" d="M869.45,739.5c-.79,19.94,3.96,63.07-55.72,65.4l27.28-5.86-.58,48.53s-167.64-2.41-172.86-2.54c-10.04-.23-33.66-13.79-36.96-45.05-3.3-31.26,21.97-38.86,29.57-44.49,7.6-5.63,91.52-32.2,123.48-36.79l77.22,9.53,8.56,11.28Z"/>
    <path class="cls-33" d="M854.01,818.9c1.96-4.24,7.29-8.62,11.04-10.59,3.74-1.97,8.11.17,9.28.72,8.7,4.1,13,11.61,19.71,18.19,5.15,5.05,10.92,9.45,17.14,13.1,6.32,3.71,13.29,5.74,19.71,9.12.05.02.09.05.14.07,3.18,1.68,5.68,4.42,7.07,7.73.51,1.21,1.03,2.4,1.61,3.53.8,1.57,1.69,2.75.72,4.52-1.79,3.27-7.29.97-8.89.21-.3-.14-.62-.2-.95-.18-1.31.06-5.19.05-11.65-1.63-.63-.16-1.24-.28-1.84-.37-.02.04-.03.07-.04.11-3.44-.69-18.69-1.8-21.48-2.19-5.5-.76-22.49-7.08-22.49-7.08,0,0-22.41-4.02-29.94.21l-7.66-27.26s16.58-3.98,18.54-8.23Z"/>
    <path class="cls-33" d="M877.77,764.44c-.79,19.94,3.96,63.07-55.72,65.4l27.28-5.86,2.24,29.33s-149.85,21.81-175.68,16.65c-10.04-.23-33.66-13.79-36.96-45.05-3.3-31.26,21.97-38.86,29.57-44.49,7.6-5.63,91.52-32.2,123.48-36.79l77.22,9.53,8.56,11.28Z"/>
    <path class="cls-15" d="M642.07,832c-1.01-9.77.32-19.69,4.76-28.52,3.28-6.51,8.07-12.12,13.6-16.83,2.88-2.46,5.95-5.11,9.27-6.73,4.11-2.01,8.48-3.55,12.78-5.11,14.67-5.31,29.59-9.96,44.55-14.39,16.08-4.76,32.26-9.28,48.63-12.93,3.24-.72,6.48-1.4,9.75-2,1.47-.27,2.95-.53,4.43-.76.31-.05.63-.07.94-.14.05-.01.63-.09.22-.08.06,0,.13.02.19.02,2.89.15,5.82.72,8.69,1.07,12.78,1.57,25.56,3.14,38.34,4.71,9.84,1.21,19.67,2.42,29.51,3.63.28.03.6.03.88.11.24.06-.15-.11-.12-.07.19.2.35.46.52.68l5.53,7.24c.75.99,1.62,1.95,2.29,2.99.36.56.18,1.17.16,1.97-.05,2.18-.07,4.36-.11,6.55-.21,10.74-1.12,21.8-5.94,31.59-2.75,5.58-6.77,10.46-11.77,14.18-6.43,4.8-14.17,7.56-21.99,9.09-5,.98-10.09,1.48-15.18,1.69l-.2.73c8.03-1.71,16.05-3.42,24.08-5.13l3.37-.72c.88-.19.69-.86-.18-.68-8.03,1.71-16.05,3.42-24.08,5.13l-3.37.72c-.45.1-.99.76-.2.73,16.18-.65,33.93-4.35,45.09-17.08,7.75-8.84,10.61-20.51,11.44-31.97.35-4.85.35-9.72.46-14.58.02-.72.25-1.83-.02-2.48-.34-.79-1.2-1.57-1.72-2.25-1.99-2.61-3.98-5.22-5.98-7.82-.59-.77-.77-1.21-1.69-1.32l-3.76-.46-15.21-1.87c-13.72-1.69-27.43-3.37-41.15-5.06-4.68-.58-9.37-1.15-14.05-1.73-.93-.11-1.86-.28-2.79-.34-.66-.04-1.32.1-1.98.2-1.48.23-2.96.49-4.43.76-15.78,2.9-31.33,7.15-46.76,11.52-16.26,4.61-32.44,9.56-48.44,15.02-5.64,1.93-11.28,3.89-16.8,6.14-3.13,1.27-5.97,2.62-8.69,4.61-4.89,3.59-9.51,7.52-13.38,12.22-5.4,6.56-9.11,14.39-10.54,22.77-.87,5.08-.92,10.26-.39,15.37.05.44,1.5.13,1.45-.39h0Z"/>
    <path class="cls-6" d="M724.91,679.48c-1.67-18.04-3.14-25.13-4.73-43.14,7.45,1.12,14.91,2.15,22.39,3.02,11.03,1.29,22.1,2.3,33.19,2.91,10.08.56,20.09.78,30.17.16,9.82-.6,19.61-1.57,29.44-1.91,8.38-.3-13-1.34-4.74.21-2.25,14.78,20.14,32.46,21.5,40.11l19.48,18.66,9.13,18.83c3.18,8.34,6.78,30.25,7.42,39.12,7.11,97.34-102.48,73.29-102.48,73.29,0,0-15.78-26.42-19.3-32.84l-7.72-12.33c-2.94.21-12.57-19.01-21.1-27.33-18.26-17.82-51.96-22.7-51.96-22.7l32.22-31.42,7.08-24.64Z"/>
    <path class="cls-6" d="M732.4,827.98c1.68,1.43.88,4.41-.95,5.63s-7.69,1.22-9.9,1.17c-7.62-.18-11.74-1.53-19.35-1.72-1.76-.04-3.56-.09-5.2-.75-4.6-1.86-6.09-7.64-6.08-12.6,0-4.96.82-10.24-1.49-14.62-3.76-7.12-13.26-8.06-20.94-10.47-1.8-.57-3.62-1.29-4.95-2.64-4.12-4.15-1.5-11.12-2.3-16.91-.84-6.01-6.14-11.09-12.18-11.67-1.6-.15-3.46-.13-4.47-1.38-1.73-2.13.82-5.06,3.15-6.52,13.06-8.15,25.93-17.83,40.98-21.74,9.79-2.54,24.27-15.81,34.06-18.35,0,0,38.11,28.42,60.34,55.01,22.23,26.59,28.72,63.61,28.72,63.61-19.11.4-67.07.55-90.65.92-.44-9.3-5.3-17.16-11.57-24.29-4.44-9.2-13.02-17.02-19.93-24.01-5.73-5.79-11.53-11.33-17.49-16.66-5.81-6.85-12.09-13.29-19.51-17.73,3.68-2.69,7.77-5.22,12.02-7.51"/>
    <g class="cls-16">
      <circle class="cls-20" cx="883.08" cy="829.21" r="4.6"/>
      <circle class="cls-20" cx="829.89" cy="829.21" r="4.6"/>
      <circle class="cls-20" cx="856.48" cy="802.62" r="4.6"/>
      <circle class="cls-20" cx="856.48" cy="855.81" r="4.6"/>
      <circle class="cls-20" cx="856.48" cy="829.21" r="9.78"/>
      <circle class="cls-20" cx="883.08" cy="776.02" r="4.6"/>
      <circle class="cls-20" cx="829.89" cy="776.02" r="4.6"/>
      <circle class="cls-20" cx="856.48" cy="749.42" r="4.6"/>
      <circle class="cls-20" cx="856.48" cy="802.62" r="4.6"/>
      <circle class="cls-20" cx="856.48" cy="776.02" r="9.78"/>
      <circle class="cls-20" cx="776.69" cy="829.21" r="4.6"/>
      <circle class="cls-20" cx="803.29" cy="802.62" r="4.6"/>
      <circle class="cls-20" cx="803.29" cy="855.81" r="4.6"/>
      <circle class="cls-20" cx="803.29" cy="829.21" r="9.78"/>
      <circle class="cls-20" cx="776.69" cy="776.02" r="4.6"/>
      <circle class="cls-20" cx="803.29" cy="749.42" r="4.6"/>
      <circle class="cls-20" cx="803.29" cy="802.62" r="4.6"/>
      <circle class="cls-20" cx="803.29" cy="776.02" r="9.78"/>
      <circle class="cls-20" cx="829.89" cy="802.62" r="9.78"/>
      <circle class="cls-20" cx="723.5" cy="829.21" r="4.6"/>
      <circle class="cls-20" cx="750.1" cy="802.62" r="4.6"/>
      <circle class="cls-20" cx="750.1" cy="855.81" r="4.6"/>
      <circle class="cls-20" cx="750.1" cy="829.21" r="9.78"/>
      <circle class="cls-20" cx="723.5" cy="776.02" r="4.6"/>
      <circle class="cls-20" cx="750.1" cy="749.42" r="4.6"/>
      <circle class="cls-20" cx="750.1" cy="802.62" r="4.6"/>
      <circle class="cls-20" cx="750.1" cy="776.02" r="9.78"/>
      <circle class="cls-20" cx="776.69" cy="802.62" r="9.78"/>
      <circle class="cls-20" cx="670.3" cy="829.21" r="4.6"/>
      <circle class="cls-20" cx="696.9" cy="802.62" r="4.6"/>
      <circle class="cls-20" cx="696.9" cy="855.81" r="4.6"/>
      <circle class="cls-20" cx="696.9" cy="829.21" r="9.78"/>
      <circle class="cls-20" cx="670.3" cy="776.02" r="4.6"/>
      <circle class="cls-20" cx="696.9" cy="749.42" r="4.6"/>
      <circle class="cls-20" cx="696.9" cy="802.62" r="4.6"/>
      <circle class="cls-20" cx="696.9" cy="776.02" r="9.78"/>
      <circle class="cls-20" cx="723.5" cy="802.62" r="9.78"/>
      <circle class="cls-20" cx="642.24" cy="802.62" r="4.6"/>
      <circle class="cls-20" cx="668.84" cy="802.62" r="9.78"/>
      <circle class="cls-20" cx="829.89" cy="722.83" r="4.6"/>
      <circle class="cls-20" cx="829.89" cy="749.42" r="9.78"/>
      <circle class="cls-20" cx="856.48" cy="696.23" r="4.6"/>
      <circle class="cls-20" cx="803.29" cy="696.23" r="4.6"/>
      <circle class="cls-20" cx="829.89" cy="669.63" r="4.6"/>
      <circle class="cls-20" cx="829.89" cy="722.83" r="4.6"/>
      <circle class="cls-20" cx="829.89" cy="696.23" r="9.78"/>
      <circle class="cls-20" cx="883.08" cy="722.83" r="4.6"/>
      <circle class="cls-20" cx="856.48" cy="722.83" r="9.78"/>
      <circle class="cls-20" cx="776.69" cy="722.83" r="4.6"/>
      <circle class="cls-20" cx="776.69" cy="749.42" r="9.78"/>
      <circle class="cls-20" cx="750.1" cy="696.23" r="4.6"/>
      <circle class="cls-20" cx="776.69" cy="669.63" r="4.6"/>
      <circle class="cls-20" cx="776.69" cy="722.83" r="4.6"/>
      <circle class="cls-20" cx="776.69" cy="696.23" r="9.78"/>
      <circle class="cls-20" cx="803.29" cy="722.83" r="9.78"/>
      <circle class="cls-20" cx="723.5" cy="722.83" r="4.6"/>
      <circle class="cls-20" cx="723.5" cy="749.42" r="9.78"/>
      <circle class="cls-20" cx="696.9" cy="696.23" r="4.6"/>
      <circle class="cls-20" cx="723.5" cy="669.63" r="4.6"/>
      <circle class="cls-20" cx="723.5" cy="722.83" r="4.6"/>
      <circle class="cls-20" cx="723.5" cy="696.23" r="9.78"/>
      <circle class="cls-20" cx="750.1" cy="722.83" r="9.78"/>
      <circle class="cls-20" cx="643.71" cy="749.42" r="4.6"/>
      <circle class="cls-20" cx="670.3" cy="722.83" r="4.6"/>
      <circle class="cls-20" cx="670.3" cy="749.42" r="9.78"/>
      <circle class="cls-20" cx="670.3" cy="669.63" r="4.6"/>
      <circle class="cls-20" cx="670.3" cy="722.83" r="4.6"/>
      <circle class="cls-20" cx="670.3" cy="696.23" r="9.78"/>
      <circle class="cls-20" cx="696.9" cy="722.83" r="9.78"/>
      <circle class="cls-20" cx="884.3" cy="669.63" r="4.6"/>
      <circle class="cls-20" cx="831.11" cy="669.63" r="4.6"/>
      <circle class="cls-20" cx="857.7" cy="643.04" r="4.6"/>
      <circle class="cls-20" cx="857.7" cy="669.63" r="9.78"/>
      <circle class="cls-20" cx="884.3" cy="616.44" r="4.6"/>
      <circle class="cls-20" cx="831.11" cy="616.44" r="4.6"/>
      <circle class="cls-20" cx="857.7" cy="589.84" r="4.6"/>
      <circle class="cls-20" cx="857.7" cy="643.04" r="4.6"/>
      <circle class="cls-20" cx="857.7" cy="616.44" r="9.78"/>
      <circle class="cls-20" cx="777.91" cy="669.63" r="4.6"/>
      <circle class="cls-20" cx="804.51" cy="643.04" r="4.6"/>
      <circle class="cls-20" cx="804.51" cy="669.63" r="9.78"/>
      <circle class="cls-20" cx="777.91" cy="616.44" r="4.6"/>
      <circle class="cls-20" cx="804.51" cy="589.84" r="4.6"/>
      <circle class="cls-20" cx="804.51" cy="643.04" r="4.6"/>
      <circle class="cls-20" cx="804.51" cy="616.44" r="9.78"/>
      <circle class="cls-20" cx="831.11" cy="643.04" r="9.78"/>
      <circle class="cls-20" cx="724.72" cy="669.63" r="4.6"/>
      <circle class="cls-20" cx="751.32" cy="643.04" r="4.6"/>
      <circle class="cls-20" cx="751.32" cy="669.63" r="9.78"/>
      <circle class="cls-20" cx="724.72" cy="616.44" r="4.6"/>
      <circle class="cls-20" cx="751.32" cy="589.84" r="4.6"/>
      <circle class="cls-20" cx="751.32" cy="643.04" r="4.6"/>
      <circle class="cls-20" cx="751.32" cy="616.44" r="9.78"/>
      <circle class="cls-20" cx="777.91" cy="643.04" r="9.78"/>
      <circle class="cls-20" cx="671.52" cy="669.63" r="4.6"/>
      <circle class="cls-20" cx="698.12" cy="643.04" r="4.6"/>
      <circle class="cls-20" cx="698.12" cy="669.63" r="9.78"/>
      <circle class="cls-20" cx="671.52" cy="616.44" r="4.6"/>
      <circle class="cls-20" cx="698.12" cy="589.84" r="4.6"/>
      <circle class="cls-20" cx="698.12" cy="643.04" r="4.6"/>
      <circle class="cls-20" cx="698.12" cy="616.44" r="9.78"/>
      <circle class="cls-20" cx="724.72" cy="643.04" r="9.78"/>
      <circle class="cls-20" cx="643.46" cy="643.04" r="4.6"/>
      <circle class="cls-20" cx="670.06" cy="643.04" r="9.78"/>
      <circle class="cls-20" cx="831.11" cy="563.25" r="4.6"/>
      <circle class="cls-20" cx="857.7" cy="536.65" r="4.6"/>
      <circle class="cls-20" cx="804.51" cy="536.65" r="4.6"/>
      <circle class="cls-20" cx="831.11" cy="510.05" r="4.6"/>
      <circle class="cls-20" cx="831.11" cy="563.25" r="4.6"/>
      <circle class="cls-20" cx="831.11" cy="536.65" r="9.78"/>
      <circle class="cls-20" cx="884.3" cy="563.25" r="4.6"/>
      <circle class="cls-20" cx="857.7" cy="563.25" r="9.78"/>
      <circle class="cls-20" cx="777.91" cy="563.25" r="4.6"/>
      <circle class="cls-20" cx="777.91" cy="589.84" r="9.78"/>
      <circle class="cls-20" cx="751.32" cy="536.65" r="4.6"/>
      <circle class="cls-20" cx="777.91" cy="510.05" r="4.6"/>
      <circle class="cls-20" cx="777.91" cy="563.25" r="4.6"/>
      <circle class="cls-20" cx="770.88" cy="536.65" r="9.78"/>
      <circle class="cls-20" cx="804.51" cy="563.25" r="9.78"/>
      <circle class="cls-20" cx="807.89" cy="497.97" r="9.78"/>
      <circle class="cls-20" cx="724.72" cy="563.25" r="4.6"/>
      <circle class="cls-20" cx="724.72" cy="589.84" r="9.78"/>
      <circle class="cls-20" cx="698.12" cy="536.65" r="4.6"/>
      <circle class="cls-20" cx="724.72" cy="510.05" r="4.6"/>
      <circle class="cls-20" cx="724.72" cy="563.25" r="4.6"/>
      <circle class="cls-20" cx="724.72" cy="536.65" r="9.78"/>
      <circle class="cls-20" cx="751.32" cy="563.25" r="9.78"/>
      <circle class="cls-20" cx="644.93" cy="589.84" r="4.6"/>
      <circle class="cls-20" cx="671.52" cy="563.25" r="4.6"/>
      <circle class="cls-20" cx="671.52" cy="589.84" r="9.78"/>
      <circle class="cls-20" cx="644.93" cy="536.65" r="4.6"/>
      <circle class="cls-20" cx="671.52" cy="510.05" r="4.6"/>
      <circle class="cls-20" cx="671.52" cy="563.25" r="4.6"/>
      <circle class="cls-20" cx="671.52" cy="536.65" r="9.78"/>
      <circle class="cls-20" cx="698.12" cy="563.25" r="9.78"/>
    </g>
    <path class="cls-18" d="M668.3,303.97c25.3,13.35,55.46,21.09,87.83,21.09,89.48,0,162.02-59.19,162.02-132.21,0-73.02-72.54-132.21-162.02-132.21-89.48,0-162.02,59.19-162.02,132.21,0,27.21,10.07,52.49,27.34,73.51,0,0,22.51,27.83,46.86,37.61Z"/>
    <path class="cls-26" d="M672.25,298.6c24.85,12.67,50.07,20.03,81.86,20.03,87.88,0,159.11-56.2,159.11-125.52,0-69.32-71.24-125.52-159.11-125.52-87.88,0-154.72,56.2-154.72,125.52,0,25.83,9.89,49.83,26.85,69.79,0,0,22.11,26.43,46.02,35.7Z"/>
    <polygon class="cls-18" points="773.72 294.2 772.24 357.78 816.85 296.69 773.72 294.2"/>
    <path class="cls-30" d="M628.2,265.72s12.6,20.27,44.73,34.35c24.16,12.19,52.94,19.27,83.85,19.27,62.49,0,116.32-28.94,140.73-70.59h-281.46c3.47,5.93,7.54,11.6,12.15,16.97Z"/>
    <path class="cls-31" d="M246.78,799.95s-29.35,32.89-17.91,57.86c2.11,4.61,84.56,4.97,84.56,4.97,0,0,78.43,10.7,108.74-19.17,52.48-51.7,42.7-93.24-17.45-138.39-61.49-46.16,0,0,0,0l-121.81,104.52"/>
    <path class="cls-29" d="M241.22,806.33c12.27.46,24.5,2.49,36.6,4.39,13.35,2.1,26.66,4.46,40.04,6.3,5.55.76,11.13,1.48,16.73,1.68.56.02,1.63-.21,1.92-.77s-.25-.76-.77-.78c-11.16-.4-22.32-2.48-33.32-4.25-13.65-2.19-27.28-4.55-40.99-6.34-6.33-.82-12.68-1.55-19.06-1.79-.56-.02-1.64.21-1.92.77-.3.58.25.76.77.78h0Z"/>
    <g>
      <path class="cls-7" d="M853.95,159.88c6.65,14.91,7.58,32.07,2.79,47.66-.65,2.12,2.67,3.03,3.31.92,5.08-16.52,3.89-34.55-3.14-50.31-.89-2.02-3.87-.28-2.97,1.73h.01Z"/>
      <path class="cls-9" d="M692.05,209.5c.93.45,6.54,24.83,7,30.47.47,5.63,2.33,17,0,22.57s-4.44,15.38-4.44,15.38h11.21s-1.17-6.91,3.03-9.14c0,0-4.2-15.15,0-25.07,4.2-9.92,10.04-34.2,10.04-34.2h-26.84.01Z"/>
      <path class="cls-9" d="M813.28,223.19s9.26,5.29,9.64,21.15c.38,15.86-4.82,24.74-4.82,24.74h11.24l2.83-10.2s-3.1-14.59-2.08-22.48,2.08-22.69,2.08-22.69l-18.89,9.46h0Z"/>
      <path class="cls-25" d="M793.75,213.11c2.1,3.38,4.98,6.29,8.37,8.38-.41,1.78-.47,3.65-.15,5.45.17.99.57,2.09,1.53,2.41,1.06.37,2.21-.53,2.55-1.58.34-1.07.09-2.21-.15-3.3,1.49.89,3.21,1.41,4.94,1.47-.2,1.55-.36,3.2.29,4.62s2.37,2.49,3.8,1.82c.93-.44,1.46-1.48,1.56-2.5.1-1.02-.15-2.04-.4-3.04,4.77.13,9.57-1.24,13.57-3.84l4.98-11.69-6.73-9.97-13.71-6.47-20.44,18.24h0Z"/>
      <path class="cls-8" d="M691.22,132.87s35.54,8.45,64.09,8.44c18.91,0,34.41-1.02,46.99-2.04,6.47-.53,12.19-.95,17.18-1.4,18.13-1.63,36.33,15.38,36.33,21.21s-15.44,53.6-11.94,63.21c3.5,9.61-1.17,7-1.46,13.98-.29,7-1.17,16.31,0,20.39,1.17,4.08,1.17,7.87,1.17,7.87l-2.04,9.9h-9.03s1.74-6.41,2.33-15.73c.59-9.33-2.04-22.44-3.2-27.09-1.17-4.66-1.46-24.76-11.94-26.22-10.48-1.46-25.64,19.81-43.12,19.81s-43.82-2.32-48.06-1.46c-7.94,1.61-28.84,6.11-38.45-7-9.61-13.11-6.7-32.34-13.4-40.49s-10.78-12.53-10.78-12.53l25.35-30.88h-.02Z"/>
      <path class="cls-7" d="M741.82,140.78h.01c-9-.76-20.21-2.09-29.17-3.57l-21.37,5.7-2.03,8.69c2.29.07,10.67,4.9,10.93,7.17,0,.04,0,.07,0,.11.49,2.22,1.13,4.83,3.08,5.92,3.32,1.86,7.69-.27,11.17-.51.08,0,.16,0,.24,0,.82-.39,1.7-.59,2.6-.47,1.53.21,2.8,1.24,4.24,1.78,3.6,1.37,8.12-.96,9.1-4.68.65-2.47.08-5.56,2.04-7.19,1.8-1.49,4.61-.7,6.73-1.69,1.81-.85,2.82-2.91,2.97-4.91.15-2,0-4.43-.55-6.35Z"/>
      <path class="cls-8" d="M707.14,209.5c.93.45,6.54,24.83,7,30.47.47,5.63,2.33,17,0,22.57-2.33,5.57-4.44,15.38-4.44,15.38h11.21s-1.17-6.91,3.03-9.14c0,0-4.2-15.15,0-25.07,4.2-9.92,10.04-34.2,10.04-34.2h-26.84.01Z"/>
      <path class="cls-27" d="M866.87,216.88c-2.33-3.97-5.69-7.21-9-10.4l-.88.13c-2.84,8.33-.41,18.2,5.96,24.27,2.43,2.32,5.64,4.62,5.62,7.98,2.8-7.08,2.14-15.42-1.7-21.98h0Z"/>
      <g>
        <path class="cls-21" d="M655.73,129.02c-.02.08-1.82-7.34-17.32-2.52,0,0-.52,3.26,2.09,5.86,2.6,2.6,5.44,6.84,9.38,7.03,3.93.21,5.86-1.56,5.86-1.56v-8.81h-.01Z"/>
        <path class="cls-8" d="M655.73,129.02c-.02.08-1.82-7.34-17.32-2.52,0,0-.52,3.26,2.09,5.86,2.6,2.6,5.44,6.84,9.38,7.03,3.93.21,5.86-1.56,5.86-1.56v-8.81h-.01Z"/>
        <g class="cls-24">
          <path d="M648.04,130.85c-2.25-.81-3.6-1.7-5.99-1.58,0,0,2.37,3.52,4.63,4.97,2.26,1.45,4.9,3.74,7.35,2.64-.36-2.36-3.75-5.21-5.99-6.03h-.01Z"/>
        </g>
        <path d="M650.91,111.56c-.52.39-3.38,6.78,0,11.6s11.99,8.99,11.99,8.99c0,0,3.77-4.69,2.21-8.34l-1.56-3.65s-7.42-.39-9.38-1.7c-1.96-1.31-3.26-6.91-3.26-6.91h0Z"/>
        <path class="cls-7" d="M689.47,123.25s-7.69-4.55-14.2-5.35c-3.56-.42-8.44.86-12.15,2.11-3.29,1.11-5.83,3.79-6.82,7.11l-1.61,5.37s-1.27,5.39-1.04,7.81c.06.58,1.56,11.85,0,13.94-1.56,2.09-4.37,2.91-4.37,8.12s2.02,9.2,7.63,10.9c5.6,1.7,10.58.42,16.31-1.42,5.91-1.9,11.83-9.52,16.25-15.38,4.43-5.86,3.77-12.24,3.77-12.24,0,0,2.06-12.72,1.8-15.22-.32-3.14-5.57-5.75-5.57-5.75h0Z"/>
        <path d="M702.11,114.64c.52.39,3.38,6.78,0,11.6-3.38,4.82-11.99,8.99-11.99,8.99,0,0-3.77-4.69-2.21-8.34l1.56-3.65s7.42-.39,9.38-1.7c1.95-1.31,3.26-6.91,3.26-6.91h0Z"/>
        <path class="cls-21" d="M692.72,135.23s8.44-11.64,18.99.46c.09.1.18.22.28.32,0,0-3.65,7.81-11.85,9.25s-8.86-2.34-8.86-2.34l1.43-7.69Z"/>
        <path class="cls-8" d="M692.72,135.23s8.44-11.64,18.99.46c.09.1.18.22.28.32,0,0-3.65,7.81-11.85,9.25s-8.86-2.34-8.86-2.34l1.43-7.69Z"/>
        <path class="cls-10" d="M654.69,155.94c.76-.17,7.95-.26,11.21,1.56,3.26,1.82,5.47,7.17,4.04,10.42-1.43,3.26-9.12,5.98-13.16,4.54s-4.3-2.18-5.08-3.44c-1.16-1.89-5.99-11,2.99-13.09h0Z"/>
        <path d="M677.03,142.68c0,1.9.81,3.44,1.82,3.44s1.82-1.54,1.82-3.44-.81-3.44-1.82-3.44-1.82,1.54-1.82,3.44Z"/>
        <path d="M658.28,142.68c0,1.8.71,3.27,1.58,3.27s1.58-1.47,1.58-3.27-.71-3.27-1.58-3.27-1.58,1.47-1.58,3.27Z"/>
        <path d="M666.69,162.38c-.28-.26-.72-.21-1.08-.08-1.67.54-3.11,2.52-3.67,4.19,1.07-.16,2.16-.33,3.11-.84.95-.5,1.77-1.4,1.87-2.48.02-.29,0-.6-.22-.79h-.01Z"/>
        <path d="M650.83,161.32c-.31.22-.33.67-.29,1.04.22,1.74,1.92,3.51,3.45,4.38.03-1.08.07-2.18-.25-3.2-.32-1.03-1.06-2-2.09-2.28-.28-.08-.59-.1-.83.07h0Z"/>
        <path d="M651.38,168.98c3.14-.62,6.47-.84,9.59,0,3.09.87,6.26,1.06,9.41.33-3.02,1.19-6.45,1.04-9.53.23-3.1-.89-6.27-.71-9.46-.56h0Z"/>
        <g class="cls-24">
          <path d="M706.48,135.94c-5.1.63-13.19,7.24-13.19,7.24,10.01-1.3,16.47-6.66,16.47-6.66l-3.28-.56h0Z"/>
        </g>
      </g>
      <path class="cls-7" d="M826.85,147.33c-1.48-3.87-3.43-8.2-7.38-9.45l-.02.02c-.09.09-17.03,1.41-27.08,2.12-10.28.72-28.54,1.1-30.59,1.15-2.37.06-8.13,2.91-8.89,5.16-.76,2.25-.28,4.73.37,7.01.64,2.28,1.45,4.59,1.3,6.96-.14,2.18-1.06,4.22-1.55,6.34-1.3,5.67,1,12.2,6,15.19,5,2.98,12.36,1.55,15.32-3.46,1.32-2.25,1.73-4.94,3.02-7.21,1.28-2.28,4.09-4.14,6.45-3.01,1.52.73,2.27,2.43,2.62,4.1.96,1.54,2.33,2.69,4.16,3.19,1.98.53,4.54.36,6.35-.65,1.01-.56,1.86-1.35,2.85-1.93.2-.12.4-.21.61-.3.16-.21.33-.41.54-.58,2.72-2.32,7.23.15,10.33-1.59,3.73-2.1,2.65-8.37,6.06-10.95,2.7-2.04,7.05-.84,9.43-3.23,2.2-2.23,1.23-5.93.1-8.86Z"/>
      <g class="cls-24">
        <path d="M663.13,120.01c-.73.25-1.42.58-2.08.97-.23.23-.44.47-.62.75-1.58,2.45-.32,4.71,1.08,6.19,1,1.04,2.14,1.93,2.82,3.31,1.09,2.23.67,5.07.2,7.6-.77,4.23-1.62,8.65-3.5,12.22-.64,1.22.08,2.84,1.25,2.86,1.46.01,3.02-.22,3.64-.65,1.11-.77,1.96-2,2.75-3.25,1.63-2.57,3.12-5.31,4.08-8.36,1.09-3.48,1.63-7.58,4.04-9.81,1.75-1.63,4.15-1.84,5.98-3.34,1.32-1.09,2.24-2.76,3.13-4.4.39-.71.77-1.53.8-2.36-2.82-1.4-7.36-3.37-11.44-3.87-3.56-.42-8.44.86-12.15,2.11v.02Z"/>
      </g>
    </g>
    <path class="cls-7" d="M742.06,186.84c-1.19.78-.98-2.54-2.19-3.29-1.29-.81-2.67-1.64-4.19-1.66s-3.16,1.15-3.06,2.67c.05.72.43,1.56-.07,2.08-.34.36-.92.32-1.41.26-2.21-.25-4.55-.34-6.54.63-2.66,1.3-4.2,4.56-3.52,7.44.17.71.47,1.42,1,1.93.62.6,1.48.87,2.32,1.05,2.12.45,4.31.4,6.45.75s4.33,1.19,5.6,2.95c.78,1.08,1.16,2.46,2.16,3.34.97.85,2.34,1.08,3.63,1.02,4.21-.19,7.81-2.99,10.95-5.8.38-.34.77-.71.91-1.2.19-.69-.18-1.4-.55-2-2.49-4.07,1.02-8.41-2.8-11.26,0,0-1.73-3.47-8.66,1.08Z"/>
    <path class="cls-7" d="M829.72,163.67c-2.86,1.5-5.1,4.14-6.11,7.2-.65,1.97-.62,4.52,1.09,5.69.63.43,1.39.6,2.14.74,3.39.67,6.85,1.03,10.3,1.08.47,0,.96,0,1.35-.24.42-.26.66-.74.82-1.21.99-2.79.51-6.02,1.89-8.63.58-1.1,1.45-2.01,2.04-3.11s.83-2.51.12-3.53c-.68-.97-1.97-1.25-3.14-1.4-3.3-.45-7.16-.34-9.33,2.19"/>
    <path class="cls-7" d="M690.77,186.4c-1.64-1.75-3.32-3.51-5.34-4.8-1.95-1.24-4.29-2-6.57-1.7,2.42,6.25,2.86,15.19,5.26,23.75.33-.1.66-.21.98-.34,4.3-1.83,7.45-6.12,7.91-10.78.14-1.38.04-2.83-.61-4.06-.41-.78-1.02-1.43-1.62-2.07Z"/>
    <path class="cls-7" d="M781.95,224.14c1.23-2.05,2.52-5.84,3.23-7.04.91-1.52-1.26-4.75-2.24-6.23-.47-.72-1.21-1.29-1.52-2.1-.68-1.81,1.03-3.54,1.72-5.35,1.18-3.07-.9-6.67-3.85-8.13-2.95-1.46-7.18,1.26-10.41,1.92-5.91.34-11.29,5.06-12.4,10.88-.33,1.76-.33,3.63-1.19,5.2-1.05,1.94-3.17,2.99-5.05,4.15-1.88,1.15-3.8,2.78-3.95,4.98-.04.61.07,1.2.29,1.76,9.17.47,19.84,1.02,28.39,1.02,2.37,0,4.69-.4,6.96-1.07Z"/>
    <path class="cls-15" d="M476.38,416.14c-1.39,10.72-.43,21.65,2.82,31.96.27.87,2.27.32,2-.54-3.22-10.21-4.18-20.99-2.8-31.6.13-.97-1.91-.68-2.02.17h0Z"/>
    <path class="cls-15" d="M482.45,299.52c-.34,1.81.16,3.79,1.37,5.19,1.29,1.49,3.15,2.24,5.1,2.27.44,0,1.05-.34,1.1-.82.06-.53-.53-.66-.93-.67.14,0-.17-.01-.17-.01-.09,0-.18-.02-.26-.03s-.18-.03-.26-.04c0,0-.25-.05-.18-.04-.37-.09-.75-.23-1.1-.41-.6-.31-1.17-.77-1.6-1.31-.96-1.21-1.32-2.78-1.04-4.29.09-.49-.55-.71-.93-.67-.47.05-1,.31-1.1.82h0Z"/>
    <path class="cls-33" d="M36.22,386.04c-17.87-4.54-28.72-27.48-14.6-50.91,9.63-15.97,76.89-78.63,99.85-106.7,12.12,5.68,20.18,11.17,32.52,16.36l-55.97,79.2s-33.02,69.37-61.81,62.06Z"/>
    <path class="cls-33" d="M148.08,251.72s28.78-11.43,32.64-32.56c3.86-21.13-13.78-65.05-23.12-62.1-6.15,1.94-.97,13.96,1.98,24.47,1.54,5.5-1.09,14.44-1.09,14.44,0,0-13.48-10.32-17.31-3.17,0,0-7.07-3.91-10.81.09l-3.74,4s-5.86-4.74-10.46,1.6c-4.6,6.34-3.28,27.05,4.94,31.85,8.23,4.81,8.36,3.27,8.36,3.27l18.62,18.11Z"/>
    <path class="cls-15" d="M150.56,201.21c-3.53,3.1-6.25,7.88-6.39,12.62-.09,3.06.8,6.07.7,9.11-.02.52-.13.94-.28,1.42-.08.24.12.17-.19.12-.55-.08-1.08-.11-1.62-.27-3.7-1.12-6.26-4.49-7.26-8.11-.86-3.11-.74-6.41-.18-9.57s1.44-6.65,2.88-9.7c.82-1.73,1.89-3.55,3.45-4.72.41-.31.6-.41.94-.54-.1.04.23-.03.01,0,.96-.1,1.68-1.2.29-1.06-2.24.23-4.12,2.29-5.27,4.03-1.65,2.48-2.66,5.37-3.41,8.23-.98,3.71-1.66,7.61-1.18,11.46.56,4.47,3,8.78,7.28,10.6,1.27.54,2.75.91,4.14.68,2.79-.45,2.51-3.2,2.27-5.39-.47-4.31-1.03-8.3.87-12.38,1.07-2.3,2.65-4.56,4.57-6.24.85-.75-1.12-.71-1.59-.29h0Z"/>
    <path class="cls-15" d="M136.5,221.93c-.05,1.42-.5,3.76-1.52,5.14-1.99,2.68-5.53-1-6.76-2.77-2.16-3.12-3.33-6.97-3.98-10.68-.57-3.28-.91-7.07.29-10.26.86-2.26,2.06-4.44,3.09-6.63.23-.48-1.71-.3-1.99.29-1.03,2.19-2.23,4.37-3.09,6.63-1.35,3.56-.85,7.92-.1,11.55.81,3.93,2.24,8.18,4.99,11.2,2.13,2.33,5.85,3.71,8.57,1.48,1.82-1.5,2.41-4.25,2.49-6.5.02-.48-1.97-.17-2,.54h0Z"/>
    <g>
      <path class="cls-33" d="M173.61,208.87s-12.71-5.17-23.71-1.06c-11,4.11-16.43,10.22-10.04,13.24,3.15,1.49,8.79,1.7,15.69-2.35l12.73,4.13"/>
      <path class="cls-15" d="M174.19,208.2c-7.59-3.07-17.01-3.85-24.73-.97-4.35,1.62-9.74,3.94-12.41,7.98-.74,1.12-1.23,2.52-.71,3.84.59,1.49,2.14,2.39,3.56,2.93,5.3,2.03,11.43-.01,16.09-2.7l-1.02.09c4.24,1.38,8.48,2.75,12.73,4.13.85.27,2.35-.95,1.16-1.34-3.14-1.02-6.28-2.04-9.43-3.06-1.07-.35-2.19-.85-3.3-1.07-.75-.15-1.23.22-1.87.57-.93.51-1.9.97-2.88,1.36-1.64.65-3.38,1.12-5.14,1.28-2.33.21-5.09-.06-6.97-1.61-1.62-1.33-1.17-3.15.03-4.6,1.94-2.37,4.87-3.93,7.6-5.19,3.52-1.63,7.1-2.69,10.99-2.86,5.05-.22,10.47.66,15.17,2.56.84.34,2.33-.86,1.16-1.34h0Z"/>
    </g>
    <path class="cls-15" d="M150.08,250.03c-3.13-.49-6.15-1.01-9.08-2.26s-5.75-3.12-7.81-5.69c-.46-.57-2.38.14-1.85.8,2.12,2.64,4.98,4.58,8.08,5.89s6.19,1.89,9.45,2.39c.47.07,1.06-.02,1.41-.38.27-.28.25-.69-.2-.76h0Z"/>
    <path class="cls-15" d="M91.14,335.86c-2.36,10.34-6.97,20.1-13.48,28.48-.77.99,1.13,1.21,1.66.53,6.68-8.61,11.41-18.57,13.84-29.19.21-.92-1.83-.66-2.02.17h0Z"/>
    <path class="cls-15" d="M125.87,224.37c-.23,1.34-.99,2.53-2.09,3.28-.46.31-1.15.57-1.71.64-.74.09-1.45.02-2.16-.23-.47-.16-1.09,0-1.41.38-.3.36-.18.83.26.98,2.04.72,4.33.43,6.16-.72,1.57-.99,2.67-2.65,2.98-4.48.08-.5-.55-.69-.93-.67-.46.03-1.02.32-1.1.82h0Z"/>
    <path class="cls-28" d="M266.46,312.77s-59.58-11.74-89.94,1.28c-31.97,13.7-79.86,17.83-79.86,17.83,0,0,4.28,35.23-1.43,70.88,0,0,50.34-7.83,67.25,6.33,4.61,3.86,1.49,33.2,1.49,33.2l102.5-129.5Z"/>
    <path class="cls-28" d="M367.98,461.71c-2.97,1.37.89-33.63-2.21-32.57-8.77,3-6.96,2.37-13.81-5.61-7.15-8.34-6.71-22.75-5.61-32.96.82-7.52,2.41-14.91,3.94-22.32-9.29,8.96-21.12,6.87-21.12,6.87-4.08,3.27-3.65,10.45-4.88,10.42v-11.11c-38.76-7.22-47.44-63.72-47.44-63.72l-45.71,9.29c-26.16,3.42-54.95,22.87-63.23,63.4l-9.29,57.59-13.24,77.23s-18.59,18.56-48.52,52.72c0,0,51.84,34.69,97.24,46,45.4,11.31,111.07,14.52,111.07,14.52,1.24-26.85-1.08-64.3,12.79-78.57,7.17-7.39,17.43-9.74,25.68-15.37,8.26-5.64,13.74-15.21,16.77-24.53,5.41-16.62,3.71-34.34,7.56-51.27"/>
    <path class="cls-3" d="M315.08,379.77c-6.25-1.8-11.98-5.47-17.13-9.35-5.45-4.1-10.6-8.85-14.75-14.29-2.18-2.85-3.87-6.01-5.5-9.21-1.8-3.55-3.43-7.18-4.84-10.9-2-5.28-3.59-10.75-4.5-16.33-.37-2.29-.73-4.89-.66-7.05l-1.07.82c3.13-.64,6.26-1.27,9.39-1.91l-1.43-.35c.65,5.6,2.15,11.19,3.88,16.53,3.64,11.25,9.16,22.16,17.24,30.88,5.25,5.66,11.58,10.27,18.68,13.31.55.24,1.27.13,1.77-.21.31-.22.77-.8.2-1.05-12.3-5.27-21.68-15.13-28.13-26.69-4.8-8.6-8.12-18.08-10.15-27.7-.4-1.9-.78-3.82-1-5.74-.07-.56-1.12-.41-1.43-.35-3.13.64-6.26,1.27-9.39,1.91-.32.06-1.05.4-1.07.82-.06,1.97.17,3.98.44,5.93.74,5.37,2.16,10.65,3.96,15.76,1.32,3.74,2.87,7.4,4.6,10.96s3.38,6.88,5.54,10c3.88,5.59,8.97,10.4,14.28,14.61,5.82,4.62,12.34,8.96,19.55,11.04.86.25,2.93-1.02,1.5-1.43h0Z"/>
    <path class="cls-3" d="M336.8,375.87c4.03-.39,8.08-1.55,11.3-4.09,2.67-2.1,4.45-5.09,5.35-8.35,1.86-6.79.22-14.19-1.69-20.78-.71-2.43-1.72-4.88-2.12-7.39l-.24.58,1.2-1.13-1.76.47c2.25.78,4.51,1.56,6.76,2.34l-.49-.38c1.84,4.52,2.95,9.47,3.53,14.3,1.05,8.69.02,18.42-6.27,25.05-1.97,2.08-4.22,3.28-6.93,4.19-3.5,1.18-7.16,1.88-10.83,2.2-1.27.11-2.03,1.64-.31,1.49,4.02-.35,8.05-1.14,11.87-2.45,2.93-1,5.56-2.28,7.77-4.48,4.04-4.03,6.35-9.37,7.17-14.98,1.22-8.39-.32-17.35-3.24-25.25-.08-.22-.14-.52-.27-.72-.3-.46-1.01-.57-1.51-.75-1.92-.66-3.83-1.32-5.75-1.99-.55-.19-1.36.09-1.76.47-.72.68-1.55,1.12-1.35,2.18.18.94.5,1.86.78,2.77.88,2.89,1.78,5.77,2.46,8.71,1.56,6.76,2.43,14.9-1.9,20.86-2.68,3.69-7.07,5.21-11.46,5.63-.43.04-1.38.34-1.4.88-.03.58.66.65,1.09.6h0Z"/>
    <path class="cls-3" d="M166.42,408.31c1.72-6.63,2.44-13.61,2.24-20.45-.18-6.34-1.03-13.54-5.07-18.71-.72-.92-3.08.08-2.27,1.11,3.96,5.06,4.72,12.25,4.84,18.46.12,6.61-.59,13.35-2.25,19.76-.32,1.23,2.23.96,2.52-.17h0Z"/>
    <path class="cls-3" d="M95.4,332.21c.53,7.74.9,15.49,1.15,23.25.2,6.14.32,12.29.18,18.44-.15,6.43-.88,12.81-1.58,19.2-.36,3.28-.7,6.56-1.18,9.82-.06.4.44.56.76.54,3.58-.18,7.17-.36,10.75-.54.55-.03,1.54-.21,1.73-.86.79-2.68,1.17-5.53,1.57-8.29,1.32-9.14,1.86-18.39,2.15-27.6.3-9.75.61-19.68-.43-29.4-.18-1.67-.37-3.39-.87-4.99-.16-.5-.36-1.18-.78-1.52-.77-.62-2.3-.13-3.12-.04-2.97.33-5.93.66-8.9,1-.39.04-1.39.32-1.41.84-.03.55.67.57,1.07.52,2.54-.28,5.08-.57,7.62-.85l2.01-.23c.28-.03.96.03,1.2-.13,0,0-.65-.07-.66-.06-.14.05-.04-.13.11.18.04.09,0-.04.1.19.08.17.15.35.21.53.48,1.37.67,2.87.85,4.31,1.11,9.05.83,18.34.61,27.42-.24,9.54-.74,19.11-2,28.58-.44,3.29-.85,6.69-1.79,9.88l1.73-.86c-3.58.18-7.17.36-10.75.54l.76.54c.37-2.56.65-5.14.95-7.71.73-6.43,1.54-12.87,1.76-19.34.4-11.72-.12-23.48-.75-35.18-.16-2.94-.32-5.88-.53-8.82-.05-.79-2.55-.28-2.49.67h0Z"/>
    <path class="cls-3" d="M315.45,372.47c-.49,5.63-.99,11.27-1.48,16.9-.79,9.03-1.59,18.05-2.38,27.08-.18,2.06-.36,4.13-.54,6.19-.03.35.21.55.52.65,2.24.73,4.47,1.46,6.71,2.19.6.2,1.91-.11,1.99-.89.6-5.65,1.19-11.3,1.79-16.96.95-9.02,1.9-18.04,2.85-27.06.22-2.08.44-4.17.66-6.25.04-.34-.21-.57-.52-.65-2.53-.7-5.06-1.39-7.59-2.09-.56-.15-1.38,0-1.76.47-.34.41-.29.92.29,1.07,2.53.7,5.06,1.39,7.59,2.09l-.52-.65c-.6,5.65-1.19,11.3-1.79,16.96-.95,9.02-1.9,18.04-2.85,27.06-.22,2.08-.44,4.17-.66,6.25l1.99-.89c-2.24-.73-4.47-1.46-6.71-2.19l.52.65c.49-5.63.99-11.27,1.48-16.9.79-9.03,1.59-18.05,2.38-27.08.18-2.06.36-4.13.54-6.19.1-1.17-2.42-.77-2.51.24Z"/>
    <path class="cls-3" d="M335.73,375.52c-2.03,5.56-4.05,11.12-6.08,16.69-3.23,8.86-6.46,17.71-9.68,26.57-.74,2.02-1.47,4.04-2.21,6.06l2.5-.28c.77-7.34,1.55-14.69,2.32-22.03.19-1.77.37-3.53.56-5.3.07-.65.07-1.35.21-1.98.24-1.05.73-2.1,1.09-3.11l2.2-6.31c1.26-3.61,2.53-7.23,3.79-10.84l-1.72.89c2.6.09,5.2.17,7.8.26.51.02,1.39-.17,1.64-.7s-.21-.79-.69-.81c-2.6-.09-5.2-.17-7.8-.26-.62-.02-1.49.24-1.72.89-1.06,3.03-2.12,6.05-3.17,9.08-1.26,3.62-2.69,7.22-3.8,10.88-.57,1.87-.51,4.08-.71,6.01-.49,4.69-.99,9.38-1.48,14.07-.33,3.18-.67,6.35-1,9.53-.12,1.15,2.22.48,2.5-.28,2.03-5.56,4.05-11.12,6.08-16.69,3.23-8.86,6.46-17.71,9.68-26.57.74-2.02,1.47-4.04,2.21-6.06.33-.9-2.17-.6-2.5.28Z"/>
    <path class="cls-3" d="M368.06,467.74c.18-3.07.36-6.15.96-9.16.64-3.24,1.46-6.49,2.34-9.67,2.16-7.81,6.61-14.73,12.2-20.53,1.05-1.09-1.36-1.27-2.04-.57-5.64,5.83-10.12,12.75-12.44,20.57-.98,3.3-1.8,6.72-2.5,10.1-.65,3.14-.84,6.33-1.03,9.52-.07,1.16,2.45.73,2.5-.25h0Z"/>
  </g>
</svg>