<?xml version="1.0" encoding="UTF-8"?>
<svg id="Layer_15" data-name="Layer 15" xmlns="http://www.w3.org/2000/svg" xmlns:xlink="http://www.w3.org/1999/xlink" viewBox="0 0 991.05 991.05">
  <defs>
    <style>
      .cls-1 {
        fill: none;
      }

      .cls-2 {
        fill: #6a4422;
      }

      .cls-3 {
        fill: #926232;
      }

      .cls-4 {
        fill: #a98d72;
      }

      .cls-5 {
        clip-path: url(#clippath-11);
      }

      .cls-6 {
        clip-path: url(#clippath-10);
      }

      .cls-7 {
        clip-path: url(#clippath-1);
      }

      .cls-8 {
        clip-path: url(#clippath-3);
      }

      .cls-9 {
        clip-path: url(#clippath-4);
      }

      .cls-10 {
        clip-path: url(#clippath-2);
      }

      .cls-11 {
        clip-path: url(#clippath-7);
      }

      .cls-12 {
        clip-path: url(#clippath-6);
      }

      .cls-13 {
        clip-path: url(#clippath-9);
      }

      .cls-14 {
        clip-path: url(#clippath-8);
      }

      .cls-15 {
        clip-path: url(#clippath-5);
      }

      .cls-16 {
        fill: #c1e0e5;
      }

      .cls-17 {
        fill: #322012;
      }

      .cls-18 {
        fill: #482d17;
      }

      .cls-19 {
        clip-path: url(#clippath);
      }
    </style>
    <clipPath id="clippath">
      <ellipse class="cls-1" cx="248.9" cy="499.54" rx="31.17" ry="15.58" transform="translate(-54.18 30.89) rotate(-6.41)"/>
    </clipPath>
    <clipPath id="clippath-1">
      <ellipse class="cls-1" cx="586.37" cy="394.95" rx="31.17" ry="15.58" transform="translate(-40.4 67.89) rotate(-6.41)"/>
    </clipPath>
    <clipPath id="clippath-2">
      <ellipse class="cls-1" cx="362.04" cy="436.99" rx="31.17" ry="15.58" transform="translate(-46.5 43.12) rotate(-6.41)"/>
    </clipPath>
    <clipPath id="clippath-3">
      <ellipse class="cls-1" cx="546.15" cy="439.28" rx="31.17" ry="15.58" transform="translate(-45.6 63.68) rotate(-6.41)"/>
    </clipPath>
    <clipPath id="clippath-4">
      <path class="cls-1" d="M468.21,421.35c.96,8.55-12.13,17.04-29.23,18.96s-31.75-3.46-32.71-12.01,10.07-35.34,27.18-37.26c17.1-1.92,33.8,21.76,34.76,30.31Z"/>
    </clipPath>
    <clipPath id="clippath-5">
      <ellipse class="cls-1" cx="319.9" cy="575.12" rx="31.17" ry="15.58" transform="translate(-62.17 39.28) rotate(-6.41)"/>
    </clipPath>
    <clipPath id="clippath-6">
      <ellipse class="cls-1" cx="397.62" cy="469.03" rx="31.17" ry="15.58" transform="translate(-49.85 47.29) rotate(-6.41)"/>
    </clipPath>
    <clipPath id="clippath-7">
      <ellipse class="cls-1" cx="657.38" cy="470.53" rx="31.17" ry="15.58" transform="translate(-48.39 76.28) rotate(-6.41)"/>
    </clipPath>
    <clipPath id="clippath-8">
      <ellipse class="cls-1" cx="433.04" cy="512.57" rx="31.17" ry="15.58" transform="translate(-54.49 51.52) rotate(-6.41)"/>
    </clipPath>
    <clipPath id="clippath-9">
      <ellipse class="cls-1" cx="213.93" cy="467.42" rx="31.17" ry="15.58" transform="translate(-50.82 26.79) rotate(-6.41)"/>
    </clipPath>
    <clipPath id="clippath-10">
      <path class="cls-1" d="M499.67,539.97c.96,8.55-12.13,17.04-29.23,18.96-17.1,1.92-31.75-3.46-32.71-12.01-.96-8.55,10.07-35.34,27.18-37.26,17.1-1.92,33.8,21.76,34.76,30.31Z"/>
    </clipPath>
    <clipPath id="clippath-11">
      <path class="cls-1" d="M648.17,511.89c.96,8.55-12.13,17.04-29.23,18.96-17.1,1.92-31.75-3.46-32.71-12.01-.96-8.55,10.07-35.34,27.18-37.26,17.1-1.92,33.8,21.76,34.76,30.31Z"/>
    </clipPath>
  </defs>
  <circle class="cls-16" cx="495.52" cy="495.52" r="495.52"/>
  <polygon class="cls-2" points="969.5 526.37 966.8 501.82 931.98 507.06 969.5 526.37"/>
  <polygon class="cls-2" points="79.75 488.73 31.17 494.46 27.44 459.53 76.02 453.79 79.75 488.73"/>
  <polygon class="cls-2" points="969.5 526.37 202.4 674.5 31.21 494.84 769.68 351.67 969.5 526.37"/>
  <polygon class="cls-3" points="966.9 502.02 204.12 649.64 26 459.71 764.47 316.54 966.9 502.02"/>
  <ellipse class="cls-2" cx="214.76" cy="467.33" rx="31.17" ry="15.58" transform="translate(-50.8 26.88) rotate(-6.41)"/>
  <ellipse class="cls-2" cx="248.9" cy="499.54" rx="31.17" ry="15.58" transform="translate(-54.18 30.89) rotate(-6.41)"/>
  <ellipse class="cls-2" cx="290.13" cy="455" rx="31.17" ry="15.58" transform="translate(-48.95 35.21) rotate(-6.41)"/>
  <ellipse class="cls-2" cx="324.27" cy="487.2" rx="31.17" ry="15.58" transform="translate(-52.33 39.22) rotate(-6.41)"/>
  <ellipse class="cls-2" cx="362.86" cy="436.9" rx="31.17" ry="15.58" transform="translate(-46.48 43.21) rotate(-6.41)"/>
  <ellipse class="cls-2" cx="397" cy="469.1" rx="31.17" ry="15.58" transform="translate(-49.86 47.22) rotate(-6.41)"/>
  <ellipse class="cls-2" cx="438.23" cy="424.56" rx="31.17" ry="15.58" transform="translate(-44.63 51.55) rotate(-6.41)"/>
  <ellipse class="cls-2" cx="472.38" cy="456.77" rx="31.17" ry="15.58" transform="translate(-48.01 55.56) rotate(-6.41)"/>
  <ellipse class="cls-2" cx="511" cy="407.28" rx="31.17" ry="15.58" transform="translate(-42.25 59.56) rotate(-6.41)"/>
  <ellipse class="cls-2" cx="545.15" cy="439.49" rx="31.17" ry="15.58" transform="translate(-45.63 63.57) rotate(-6.41)"/>
  <ellipse class="cls-2" cx="586.37" cy="394.95" rx="31.17" ry="15.58" transform="translate(-40.4 67.89) rotate(-6.41)"/>
  <ellipse class="cls-2" cx="620.52" cy="427.15" rx="31.17" ry="15.58" transform="translate(-43.78 71.9) rotate(-6.41)"/>
  <ellipse class="cls-2" cx="662.29" cy="381.45" rx="31.17" ry="15.58" transform="translate(-38.42 76.28) rotate(-6.41)"/>
  <ellipse class="cls-2" cx="696.43" cy="413.65" rx="31.17" ry="15.58" transform="translate(-41.8 80.29) rotate(-6.41)"/>
  <g class="cls-19">
    <circle class="cls-17" cx="256.77" cy="503.49" r="15.58"/>
    <circle class="cls-18" cx="238.77" cy="514.68" r="15.58"/>
  </g>
  <g class="cls-7">
    <circle class="cls-17" cx="594.24" cy="398.9" r="15.58"/>
    <circle class="cls-18" cx="576.25" cy="410.09" r="15.58"/>
  </g>
  <g class="cls-10">
    <circle class="cls-18" cx="362.92" cy="444.82" r="15.58"/>
  </g>
  <g class="cls-8">
    <circle class="cls-4" cx="547.02" cy="447.11" r="15.58"/>
  </g>
  <g class="cls-9">
    <circle class="cls-17" cx="425.67" cy="433.75" r="15.58"/>
    <circle class="cls-18" cx="449.1" cy="432.05" r="15.58"/>
  </g>
  <path class="cls-2" d="M880.87,458.88h0c-1.07-1.31-2.37-2.52-3.9-3.6l-26.39-24.34h0c-6.04-6.35-18.2-9.88-31.7-8.36-18.44,2.07-32.37,12.75-31.12,23.85.34,3.02,1.77,5.75,4.04,8.1h0s0,0,0,0c.55.57,1.14,1.11,1.78,1.63l27.24,24.89c5.93,6.56,18.28,10.23,32,8.68,18.44-2.07,32.37-12.75,31.12-23.85-.29-2.56-1.37-4.92-3.07-7.01Z"/>
  <path class="cls-2" d="M189.89,502.86h0c-1.07-1.31-2.37-2.52-3.9-3.6l-26.39-24.34h0c-6.04-6.35-18.2-9.88-31.7-8.36-18.44,2.07-32.37,12.75-31.12,23.85.34,3.02,1.77,5.75,4.04,8.1h0s0,0,0,0c.55.57,1.14,1.11,1.78,1.63l27.24,24.89c5.93,6.56,18.28,10.23,32,8.68,18.44-2.07,32.37-12.75,31.12-23.85-.29-2.56-1.37-4.92-3.07-7.01Z"/>
  <ellipse class="cls-2" cx="285.76" cy="542.91" rx="31.17" ry="15.58" transform="translate(-58.79 35.27) rotate(-6.41)"/>
  <ellipse class="cls-2" cx="319.9" cy="575.12" rx="31.17" ry="15.58" transform="translate(-62.17 39.28) rotate(-6.41)"/>
  <ellipse class="cls-2" cx="361.13" cy="530.58" rx="31.17" ry="15.58" transform="translate(-56.94 43.61) rotate(-6.41)"/>
  <ellipse class="cls-2" cx="395.27" cy="562.78" rx="31.17" ry="15.58" transform="translate(-60.32 47.62) rotate(-6.41)"/>
  <ellipse class="cls-2" cx="433.86" cy="512.48" rx="31.17" ry="15.58" transform="translate(-54.47 51.61) rotate(-6.41)"/>
  <ellipse class="cls-2" cx="468" cy="544.68" rx="31.17" ry="15.58" transform="translate(-57.85 55.62) rotate(-6.41)"/>
  <ellipse class="cls-2" cx="509.23" cy="500.14" rx="31.17" ry="15.58" transform="translate(-52.62 59.94) rotate(-6.41)"/>
  <ellipse class="cls-2" cx="543.38" cy="532.35" rx="31.17" ry="15.58" transform="translate(-56 63.95) rotate(-6.41)"/>
  <ellipse class="cls-2" cx="582" cy="482.86" rx="31.17" ry="15.58" transform="translate(-50.24 67.95) rotate(-6.41)"/>
  <ellipse class="cls-2" cx="616.15" cy="515.07" rx="31.17" ry="15.58" transform="translate(-53.62 71.96) rotate(-6.41)"/>
  <ellipse class="cls-2" cx="657.38" cy="470.53" rx="31.17" ry="15.58" transform="translate(-48.39 76.28) rotate(-6.41)"/>
  <ellipse class="cls-2" cx="691.52" cy="502.73" rx="31.17" ry="15.58" transform="translate(-51.77 80.29) rotate(-6.41)"/>
  <ellipse class="cls-2" cx="733.29" cy="457.03" rx="31.17" ry="15.58" transform="translate(-46.41 84.67) rotate(-6.41)"/>
  <ellipse class="cls-2" cx="767.43" cy="489.23" rx="31.17" ry="15.58" transform="translate(-49.79 88.68) rotate(-6.41)"/>
  <g class="cls-15">
    <circle class="cls-17" cx="327.77" cy="579.07" r="15.58"/>
    <circle class="cls-18" cx="309.77" cy="590.26" r="15.58"/>
  </g>
  <g class="cls-12">
    <circle class="cls-17" cx="405.49" cy="472.99" r="15.58"/>
    <circle class="cls-18" cx="387.5" cy="484.18" r="15.58"/>
  </g>
  <g class="cls-11">
    <circle class="cls-17" cx="665.24" cy="474.48" r="15.58"/>
    <circle class="cls-18" cx="647.25" cy="485.67" r="15.58"/>
  </g>
  <g class="cls-14">
    <circle class="cls-18" cx="433.92" cy="520.4" r="15.58"/>
  </g>
  <g class="cls-13">
    <circle class="cls-4" cx="214.81" cy="475.25" r="15.58"/>
  </g>
  <g class="cls-6">
    <circle class="cls-17" cx="457.13" cy="552.36" r="15.58"/>
    <circle class="cls-18" cx="480.56" cy="550.67" r="15.58"/>
  </g>
  <g class="cls-5">
    <circle class="cls-17" cx="605.64" cy="524.29" r="15.58"/>
    <circle class="cls-18" cx="629.06" cy="522.59" r="15.58"/>
  </g>
  <circle class="cls-17" cx="868.62" cy="565.91" r="15.58"/>
  <circle class="cls-4" cx="904.44" cy="537.85" r="15.58"/>
  <circle class="cls-18" cx="922.29" cy="557.08" r="15.58"/>
  <circle class="cls-17" cx="160.45" cy="391.7" r="15.58"/>
  <circle class="cls-4" cx="196.27" cy="363.64" r="15.58"/>
  <circle class="cls-18" cx="214.11" cy="382.87" r="15.58"/>
</svg>