<?xml version="1.0" encoding="UTF-8"?>
<svg id="Layer_7" data-name="Layer 7" xmlns="http://www.w3.org/2000/svg" xmlns:xlink="http://www.w3.org/1999/xlink" viewBox="0 0 1334 1000">
  <defs>
    <style>
      .cls-1 {
        fill: #151312;
      }

      .cls-2, .cls-3, .cls-4, .cls-5, .cls-6, .cls-7 {
        stroke-miterlimit: 10;
      }

      .cls-2, .cls-4, .cls-5, .cls-6, .cls-7 {
        fill: none;
      }

      .cls-2, .cls-5, .cls-6 {
        stroke: #4a3027;
      }

      .cls-3 {
        stroke: #000;
        stroke-width: .13px;
      }

      .cls-8 {
        fill: #010101;
      }

      .cls-9 {
        fill: #110e0d;
      }

      .cls-10 {
        fill: #7f3a24;
      }

      .cls-11 {
        fill: #9a5a31;
      }

      .cls-12 {
        fill: #7d6432;
      }

      .cls-13 {
        fill: url(#linear-gradient-2);
      }

      .cls-14 {
        fill: #161514;
      }

      .cls-15 {
        fill: #a1a1a1;
      }

      .cls-16 {
        fill: #a15430;
      }

      .cls-17 {
        fill: #425a2e;
      }

      .cls-18 {
        fill: #dac290;
      }

      .cls-19 {
        fill: url(#linear-gradient);
      }

      .cls-20 {
        fill: #090808;
      }

      .cls-21 {
        fill: #181513;
      }

      .cls-22 {
        fill: #49311b;
      }

      .cls-23 {
        fill: #1b1510;
      }

      .cls-24 {
        fill: #5b3e29;
      }

      .cls-25 {
        fill: #4a3027;
      }

      .cls-26 {
        fill: #35221b;
      }

      .cls-27 {
        fill: #f7f7f6;
      }

      .cls-28 {
        fill: #fff;
      }

      .cls-29 {
        fill: #cf8449;
      }

      .cls-4 {
        stroke: #7f3a24;
        stroke-linecap: round;
      }

      .cls-30 {
        fill: #643b29;
      }

      .cls-31 {
        fill: #2a3c1d;
      }

      .cls-32 {
        fill: #e0c642;
      }

      .cls-33 {
        fill: #415a31;
      }

      .cls-34 {
        fill: #7f7f7f;
      }

      .cls-35 {
        fill: #efedf5;
      }

      .cls-5 {
        stroke-width: .17px;
      }

      .cls-6 {
        stroke-width: .29px;
      }

      .cls-36 {
        fill: #a56f54;
      }

      .cls-7 {
        stroke: #010101;
        stroke-width: .37px;
      }

      .cls-37 {
        fill: #ede6d4;
      }

      .cls-38 {
        fill: #8e584d;
      }

      .cls-39 {
        fill: #334823;
      }
    </style>
    <linearGradient id="linear-gradient" x1="637.1" y1="1026.38" x2="694.07" y2="-326.37" gradientUnits="userSpaceOnUse">
      <stop offset=".29" stop-color="#c1e2f1"/>
      <stop offset=".81" stop-color="#88c3d8"/>
    </linearGradient>
    <linearGradient id="linear-gradient-2" x1="669.48" y1="1094.91" x2="680.44" y2="834.62" gradientUnits="userSpaceOnUse">
      <stop offset=".01" stop-color="#7c9748"/>
      <stop offset=".98" stop-color="#4f6936"/>
    </linearGradient>
  </defs>
  <rect class="cls-19" x="-83.09" y="-123.07" width="1491.85" height="1076.63"/>
  <path class="cls-33" d="M1670.83-364.55c1.58,31.33,9.41,62.25,23.17,91.54-46.09-56.88-136.09-87.81-218.25-75.13l84.7-37.55c-29.27-12.56-64.64-11.08-92.19,3.85,17.95-26.39,41.62-49.92,69.87-69.44-42.69-6.09-88.85,15.31-104.18,48.31,11.84-25.43,15.41-52.91,10.35-79.79-12.15,18.5-24.31,37.02-36.46,55.57,1.79-64.6-64.21-125.71-143.26-132.56,7.74-10.58,25.39-11.84,40.18-14.4,15.32-2.66,33.1-12.6,27.31-25.07-2.87-6.17-10.71-9.85-18.82-9.77-25.51.27-37.99,23.5-61.18,26.97,20.5-22.35,32.22-49.21,33.63-77.08.3-6.37-.76-14.06-9.97-15.7-6.42-1.14-13,1.71-16.15,6.4-16.12,23.94-27.77,49.7-34.58,76.41,7.81-31.05-18.55-65.19-56.3-72.88,3.87,25.87,12.24,51.17,24.86,75.13-37.18-46.44-117.47-66.21-180.18-44.37,31.98,13.1,60.93,30.6,85.56,51.75-43.1-8.42-87.18-10.9-130.55-7.77-23.69-25.22-72.8-64.31-137.94-46.07l74.9,54.7c-3.13.64-6.23,1.37-9.34,2.07-44.58-20.56-101.32-36.03-158.77-22.84l77.35,49.07c-1.3.58-2.59,1.19-3.89,1.8-3.81,1.68-7.63,3.34-11.38,5.12l10.06-4.48c-48.41,23.39-92.58,67.73-100.03,117.91-9.46-25.27-46.13-41.34-77.25-33.91l64.11,60.78c-4.73-2.49-9.69-4.63-14.79-6.47-26.75-22.55-68.89-45.22-121.51-30.49l74.9,54.7c-3.13.64-6.23,1.37-9.34,2.07-44.59-20.56-101.32-36.03-158.77-22.84l77.35,49.07c-1.3.58-2.59,1.19-3.89,1.8-3.81,1.68-7.63,3.34-11.38,5.12l10.06-4.48c-48.41,23.39-92.58,67.73-100.03,117.91-9.46-25.28-46.13-41.34-77.25-33.9l64.11,60.78c-19.99-10.53-43.82-15.3-67.66-13.44-4.66.36-9.03,2.64-10.91,6.13-3.31,6.18,3.09,11.1,9.01,14.51,14.17,8.22,29.35,15.2,45.24,20.93-37.03-9.6-82.1,3.64-101.04,31.75l89.11.58c-39.59,7.84-72.1,30.76-87.28,61.54l93.12-24.17c-44.87,23.55-74.68,62.02-81.44,105.13l49.85-29.15L382.43.08c-49.89-5.3-102.36,18.37-123.27,55.63,37.49-13.23,77.77-20.44,118.62-21.22-46.52,9.74-84.03,37.72-99.99,74.6l90.11-15.66c-45.95,24.01-72.25,66.43-68.69,110.78,22.74-22.46,50.85-40.91,82.62-54.25-24.85,29.45-37.93,64.42-37.46,100.14l79.11-75.65c.14,33.27.3,66.55.47,99.82l59.74-70.67c-11.58,24.75-7.84,52.52,10.06,74.63l44.54-27.16c52.47,10.04,31.76-3.8,77.74,19.09-28.88,22.62-8.36,60.36,4.04,72.84,28.22-17.06,56.47-34.1,84.73-51.11-24.6,22.27-34,53.04-25.07,82.1,17.06-23.27,40.24-43.19,67.87-58.31-19.12,26.59-23.86,58.45-13.07,87.98,24.5-23.9,42.61-51.7,53.15-81.63-1.51,35.34,14.89,69.64,45.38,94.83,1.77-24.31,3.53-48.61,5.3-72.88,12.85,30.4,25.71,60.84,38.61,91.34,22.24-31.53,24.06-69.93,4.87-102.76,32.67-9.73,68.76-8.46,100.28,3.53,39.1,28.26,99.23,24.4,132.4-8.5l10.21-10.13c-11.63,23.61-12.9,49.77-3.58,74.05,9.3-28.47,25.87-55.03,48.63-77.93-11.8,30.52-13.52,63.04-5.01,94.28,30.68-24.78,47.06-58.96,45.09-94.11,11.6,17.49,23.18,35.08,34.74,52.77,11.68-23.92,11.85-50.56.47-74.57,19.58,9.56,35.86,23,47.35,39.06,9.77-22.39,3.73-47.34-15.76-65.04l64.41-18.23,24.79,78.7s26.07-5.66,33.03-55.18c2.49-17.73-1.08-29.76-6.63-38l28.87-8.17c1.16-21.37,3.09-42.68,6.62-63.81,5.95-35.57,16.82-70.22,33.9-102.06,17.25-32.15,38.24-62,62.86-88.92,16.26-17.78,33.86-34.3,52.4-49.68,2.98-9.52,6.26-18.94,9.93-28.24,22.15-56.14,56.09-106.97,97.16-151.02,11.48-12.32,23.5-24.1,35.97-35.39,1.02-28.33-17.89-57.4-49.12-70.53Z"/>
  <path class="cls-33" d="M548.2,239.04s-14.48,21.35-10.67,54.13l3.81,32.78s67.09-26.68,70.14-74.71c3.05-48.03-63.27-12.2-63.27-12.2Z"/>
  <path class="cls-33" d="M909.03,313.09s-7.16,21.48,18.8,46.55l25.96,25.07s14.32-54.61-5.37-71.62c-19.69-17.01-39.39,0-39.39,0Z"/>
  <path class="cls-33" d="M1296.16,244.04s-7.16,21.48,18.8,46.55l25.96,25.07s14.32-54.61-5.37-71.62c-19.69-17.01-39.39,0-39.39,0Z"/>
  <path class="cls-36" d="M977.32,533.1c.37-.94-1.71-6.11-2.46-6.6,3.84-5.46,13.53-7.5,20.11-9.25-.46,1.33-2.2,6.78-2.82,8.05-4.53,9.26-11.1,22.72-13.38,27.39-.54,1.1-1.98,1.52-3.03.85-1.46-.94-2.99-2.93-2.36-7.15.9-4.53,2.22-8.97,3.94-13.29Z"/>
  <path class="cls-36" d="M1046.18,445.35c-10.42-.12-20.86.44-31.2,1.54-.39-6.37-.65-12.41-.66-17.9-.3-17.13,2.26-61.48,3.54-81.39,1.74-27.08,17.77-57.27,20.13-58.62,0,0,14.86,86.84,9.99,114.92-1.52,8.76-1.94,24.27-1.79,41.45Z"/>
  <path class="cls-36" d="M1026.71,417.48c7.95,5.79,28.23,25.49,35.38,32.21-25.42,26.45-79.55,60.78-79.55,60.78l-8.94-3.54c-6.75-5.57,1.76-5.44-6.81-7.87l-1.48-.97,16.83-24.61c10.53-12.44,34.55-44.36,44.57-55.99Z"/>
  <path class="cls-22" d="M998.95,550.88c-3-13.77-15.33-23.81-29.65-23.24-15.96.63-28.38,14.19-27.97,30.38h-.02s13.28,335.43,13.28,335.43l6.57-.26-10.95-335.23c-.37-11.33,8.3-20.84,19.45-21.29,9.98-.4,18.57,6.62,20.63,16.22.45,2.1,2.37,3.53,4.48,3.44,2.75-.11,4.78-2.72,4.18-5.45Z"/>
  <path class="cls-36" d="M950.1,537.56l5.53-25.49c.5-2.32,1.59-4.49,3.21-6.29,4.49-4.99,10.58-11.12,14.52-16.52,5.69-.38,9.47,1.21,14.82,3.27,3.47,1.34,6.66,3.18,9.61,5.34l-.03.04c-.22.3-.35.65-.37,1.01-.17,2.42-.1,11.16-2.56,19.72-4.17,1-8.39,1.97-12.27,3.75-4.55,2.08-6.35,3.63-8.48,8.02-.27.56-1.93,2.69-1.61,3.03l-5.12,11.32c-.32.71-.19,1.53.35,2.11,1.97,2.13,6.5,7.6,6.09,12.37-.12,1.43-1.81,2.23-3.12,1.54l-8.34-4.45c-.11-.06-.22-.13-.32-.21l-7.41-5.9c-.29-.23-.51-.54-.64-.88l-3.81-10.73c-.12-.34-.14-.7-.07-1.05Z"/>
  <rect class="cls-23" x="931.05" y="885.98" width="15.7" height="11.32" transform="translate(-34.55 37.85) rotate(-2.27)"/>
  <rect class="cls-23" x="933.76" y="876.04" width="9.5" height="11.32" transform="translate(-34.15 37.83) rotate(-2.27)"/>
  <path class="cls-36" d="M1130.81,123.95s-6.5-15.76-26.12-19.66c-14.8-2.95-43,.61-53.43,6.8-15.11,8.96-17.22,25.66-17.22,25.66l96.77-12.8Z"/>
  <path class="cls-21" d="M1033.04,883.47s-2.37,2.75-1.07,7.54,28.46-.04,37.84,1.17c9.38,1.21,46.91,6.03,56.13,3.71,9.22-2.32.71-14.26.71-14.26l-93.61,1.84Z"/>
  <path class="cls-21" d="M1197.11,892.16s1.94,1.86,2.04,8.49c.13,8.87-29.97,8.27-37.3,8.87-7.33.6-30.74,5.86-47.25,6.37-16.51.51-34.81-4.7-34.87-14.8-.03-5.47.4-7.59,3.94-8.93,3.54-1.35,102.72-5.35,102.72-5.35l10.72,5.35Z"/>
  <path class="cls-36" d="M1186.9,854.24c-.5,5.54,3.19,11.52,7.11,22.58,1.98,5.59,3.95,15.17-1.56,18.74-6.55,4.25-21.59,2.44-25.92,3.44-9.11,2.09-16.75,2.33-25.5,5.14-8.87,2.84-.06,1.6-9.79,2.15-1.34.08-10.21,2.11-11.37,1.5-.78-.41-2.89.08-3.67-.32-2.76-1.44-6.26.43-9.41,0-1.39-.19-2.65-.82-3.95-1.33-3.42-1.33-7.16-1.78-10.77-2.57-3.62-.79-7.3-2.01-9.8-4.49-2.5-2.48-3.43-6.49-1.24-9.2,3.3-4.09,7.53-1.65,11.97-2.01,4.44-.36,6.11-1.05,10.04-2.82,10.04-4.5,11.59-5.42,20.05-8.94,6.57-2.73,24.79-9.35,34.06-15.6l-1.53-8.95"/>
  <g>
    <path class="cls-25" d="M1116.39,907.64c-1.27-.37-1.75-1.88-1.63-3.08s.86-2.14,1.73-2.87c1.87-1.59,4.32-2.36,6.55-3.29.17-.07.1-.35-.08-.28-1.98.82-4.05,1.53-5.85,2.74-1.57,1.06-2.91,2.64-2.62,4.65.15,1.06.73,2.1,1.81,2.42.18.05.26-.23.08-.28h0Z"/>
    <path class="cls-25" d="M1106.6,907.63c-2.44-.06-2.33-3.47-1.96-5.15.65-3.04,3.65-4.15,6.27-5.11,1.73-.63,3.44-1.74,5.34-1.69.19,0,.19-.28,0-.29-1.86-.05-3.56.99-5.25,1.64s-3.36,1.15-4.76,2.33c-1,.84-1.62,1.83-1.89,3.1-.23,1.12-.3,2.35,0,3.47s1.04,1.97,2.25,1.99c.19,0,.19-.28,0-.29h0Z"/>
    <path class="cls-25" d="M1099.69,905.36c-1.68-.62-2.38-2.7-2.21-4.36.16-1.55,1.11-2.86,2.25-3.86,1.21-1.06,2.66-1.83,4.13-2.46,1.56-.66,3.27-1.28,4.93-1.61.18-.04.11-.31-.08-.28-1.49.29-3.01.84-4.43,1.4-1.3.52-2.57,1.14-3.72,1.94-2.04,1.42-3.73,3.54-3.33,6.17.22,1.42.97,2.82,2.38,3.34.17.06.25-.21.08-.28h0Z"/>
    <path class="cls-25" d="M1092.76,904.01c-2.8-1.26-4.82-5.33-2.77-8.04.85-1.12,2.1-1.9,3.33-2.54,1.3-.68,2.67-1.21,4.05-1.69.68-.23,1.36-.44,2.04-.67.85-.3,1.77-.77,2.69-.71.19.01.19-.28,0-.29-.84-.05-1.66.32-2.43.6-.69.25-1.4.46-2.1.7-1.5.51-2.99,1.08-4.39,1.81-1.27.66-2.57,1.48-3.44,2.64s-1,2.71-.65,4.14c.46,1.87,1.76,3.51,3.53,4.3.17.08.32-.17.15-.25h0Z"/>
  </g>
  <path class="cls-36" d="M1131.89,855.68c-1.31,4.56.15,14.82,1.27,19.95,1.29,5.91-1.31,10.35-7.71,12.79-5.39,2.05-8.14,1.91-13.96,1.55-7.6-.47-15.71-1.94-23.31-2.4-6.52-.4-27-2.32-33.41-1.21-9.98,1.72-16.1.2-20.5-1.43-1.22-.45-1.98-.39-2.54-1.34-1.45-2.46-1.24-5.15,2.05-7.19,4.15-2.57,9.07,1.06,12.95-1.97.69-.54,1.33-1.15,2.13-1.53,1.56-.76,3.42-.56,5.18-.53,8.77.16,8.15-3.69,19.67-6.59,3.38-.85,25.25-12.23,28.39-13.67"/>
  <path class="cls-25" d="M1056.85,873.45c-2.39.52-4.69,1.42-6.92,2.41-.76.39-1.61.73-2.09,1.37-1.74-1.31-4.03-1.73-6.21-1.45,2.1-.44,4.46-.14,6.27,1.16l-.2.04c.28-.4.65-.58,1-.81,2.54-1.33,5.31-2.29,8.14-2.72h0Z"/>
  <path class="cls-6" d="M1132.52,872.32s-30.83,16.39-39.54,15.54l-5.55-.05s-3.38-1-5.25.08"/>
  <path class="cls-21" d="M1061.76,886.8s-.57-10.43-4.67-14.16c0,0,10.94-6.71,18.92-8.3,0,0,9.47,8.78,7.41,23.47l-21.66-1.01Z"/>
  <path class="cls-21" d="M1126.91,908.73s3.32-8.28-16.64-17.34c-12.17-5.52-13.06-4.28-13.06-4.28,0,0,7.65-7.68,21.02-8.69,0,0,25.6,3.21,32.23,25.72l-23.55,4.59Z"/>
  <g>
    <path class="cls-27" d="M1109.49,489.83l132.11-1.83,1.56,37.88c.3,25.25-6.52,42.46-15.27,66.62l-19.09,102.33s-.35,44.57,4.74,81.45c3.5,25.24-1.24,51.91-5.91,76.8-2.21,11.77,4.49,15.97-9.63,19.15-22.33,5.04-47.55,4.7-69-1.09,0,0-2.27-5.09-2.28-5.09-11.74.33-39.79,3.31-47.39-6.9-4.37-5.87-4.66-27.74-6.01-34.86l-8.79-73.39c-4.58-43.07-9.89-49.82-11-72.28l-8.55-194.89,64.49,6.09Z"/>
    <path class="cls-34" d="M1109.46,490.12c10.14-.14,20.28-.28,30.41-.42,19.8-.27,39.6-.55,59.4-.82,13.53-.19,27.05-.37,40.58-.56.39,0,1.02.11,1.39-.02.54-.19-.01-.09-.01-.09-.17.89.08,2.05.12,2.95.08,1.89.16,3.78.23,5.67.37,8.93.73,17.86,1.1,26.78.55,13.5-1.46,26.91-5.21,39.86-2.44,8.41-5.46,16.64-8.45,24.86-.77,2.11-1.48,3.98-1.88,6.15l-8.5,45.58c-3.11,16.7-6.23,33.4-9.34,50.1-.52,2.78-.89,5.12-.88,7.94.03,11.73.37,23.45.95,35.16.42,8.32.98,16.64,1.74,24.93.82,8.95,2.34,17.85,2.94,26.81,1.34,19.7-1.59,39.43-5.08,58.77-.74,4.09-1.8,8.22-2.13,12.37-.19,2.4,0,4.77.1,7.16.08,1.77.11,3.71-1.08,5.16-1.82,2.21-5.3,2.88-7.93,3.48-18.41,4.22-37.93,4.66-56.55,1.55-2.13-.36-4.26-.76-6.37-1.22-1.1-.24-2.19-.49-3.29-.76-.62-.15-2.06-.26-2.42-.67-.56-.62-.87-1.94-1.21-2.7s-.65-1.47-.98-2.2c-.07-.15-.19-.2-.35-.19-10.3.3-20.62,1.29-30.9.01-4.73-.59-9.92-1.58-13.83-4.49-3.53-2.63-4.49-6.84-5.27-10.96-1.64-8.68-1.83-17.56-3.07-26.3-.6-4.24-1.02-8.52-1.53-12.77-1.94-16.23-3.89-32.46-5.83-48.69-1.94-16.2-3.66-32.42-6.77-48.45-2.37-12.23-5.14-24.24-5.69-36.73-.36-8.19-.72-16.38-1.08-24.58-.67-15.19-1.33-30.38-2-45.57-.77-17.51-1.54-35.02-2.3-52.53-.67-15.2-1.33-30.4-2-45.6-.35-8.09-.71-16.18-1.06-24.27-.02-.37-.03-.75-.05-1.12l-.51.31c18.85,1.78,37.71,3.56,56.56,5.34,2.64.25,5.29.5,7.93.75.39.04.77-.53.26-.58-18.85-1.78-37.71-3.56-56.56-5.34-2.64-.25-5.29-.5-7.93-.75-.17-.02-.53.08-.51.31.21,4.76.42,9.53.63,14.29.52,11.81,1.04,23.62,1.55,35.43.68,15.52,1.36,31.04,2.04,46.56.68,15.55,1.36,31.09,2.05,46.64.53,12.12,1.06,24.24,1.59,36.36.23,5.19.43,10.38.68,15.56.68,14.17,4.31,27.85,6.77,41.76,2.51,14.19,3.98,28.53,5.7,42.83,1.79,14.93,3.58,29.86,5.37,44.79,1.24,10.38,2.49,20.73,3.51,31.13.47,4.79.97,9.64,2.13,14.32.82,3.3,2.02,6.21,4.82,8.3,3.22,2.39,7.3,3.48,11.19,4.17,4.76.85,9.62,1.07,14.45,1.09,4.71.02,9.42-.19,14.12-.42.95-.05,1.9-.09,2.84-.14.46-.02.92-.04,1.38-.06.13,0,1.19-.06.94-.2.3.17.61,1.36.75,1.66.41.91.81,1.82,1.22,2.73.71,1.59,3.22,1.55,4.78,1.92,3.44.8,6.91,1.45,10.4,1.97,6.96,1.04,14.01,1.55,21.05,1.59,7.29.04,14.59-.43,21.81-1.43,3.48-.48,6.94-1.09,10.37-1.82,2.41-.52,4.89-1.05,7.12-2.14,2.48-1.22,3.8-3.07,3.88-5.84.11-3.89-.44-7.63.23-11.52,2.63-15.14,5.58-30.18,6.68-45.54.54-7.59.68-15.21.16-22.8-.46-6.84-1.58-13.61-2.31-20.42-2.33-21.91-3.25-44-3.33-66.03-.02-6.1,1.55-12.02,2.67-18.01,2.72-14.57,5.44-29.14,8.15-43.71,2.39-12.81,4.78-25.63,7.17-38.44.61-3.26,1.19-6.11,2.32-9.23,4.54-12.48,9.2-25.01,11.77-38.07,1.81-9.22,2.54-18.61,2.15-27.99l-.88-21.29c-.19-4.59-.38-9.19-.57-13.78,0-.2-.18-.27-.36-.27-14.96.21-29.91.41-44.87.62-23.66.33-47.32.65-70.98.98-5.42.07-10.84.15-16.26.22-.44,0-.58.59-.06.59Z"/>
  </g>
  <path class="cls-34" d="M1078.3,544.24c10.29,5.64,17.07,15.52,19.66,26.86,1.55,6.79,1.72,13.79,1.71,20.73,0,1.34-.03,2.67.04,4.01l1.43,24.67c.8,13.9,1.61,27.8,2.41,41.69.69,11.93,1.38,23.86,2.07,35.8.21,3.7.26,7.44.73,11.12.86,6.77,1.73,13.54,2.59,20.31l4.74,37.21c1.8,14.11,3.6,28.23,5.39,42.34,1.56,12.26,3.12,24.52,4.69,36.79.83,6.49,1.65,12.99,2.48,19.48.04.3.08.61.12.91.05.36.81.17.76-.2-.58-4.59-1.17-9.18-1.75-13.77-1.43-11.24-2.86-22.48-4.3-33.73-1.8-14.1-3.59-28.19-5.39-42.29-1.68-13.15-3.35-26.31-5.03-39.46-1.07-8.4-2.14-16.8-3.21-25.19-.39-3.08-.59-5.62-.77-8.78-.62-10.68-1.24-21.36-1.86-32.05-.82-14.07-1.63-28.15-2.45-42.22-.58-10.04-1.16-20.08-1.74-30.12-.21-3.61-.16-7.19-.22-10.81-.19-11.79-1.99-23.73-9.34-33.33-3.29-4.3-7.45-7.82-12.19-10.42-.3-.17-.96.24-.58.45h0Z"/>
  <path class="cls-15" d="M1117.12,124.3c5.57-1.52,8.88-4.62,14.49-2.25.46.2,1.52.95,1.93,1.18.34.19.49.55.63.88,3.15,7.89,6.63,15.62,7.97,23.92.57,3.54.97,7.14.32,10.7-.59,3.21-.25,6.88-1.67,9.92-1.24,2.67-2.48,5.34-3.72,8-.46,1-.95,2.03-1.87,2.77-2.68,2.18-7.08.65-9.63-1.48-5.47-4.58-7.88-11.29-8.53-17.91-.65-6.61.25-13.3.41-19.96.11-4.59-.13-9.18-.72-13.73"/>
  <path class="cls-36" d="M1125.07,187.81s-4.53,18.21,4.09,34.4c1.24,2.33,27.71,12.81,27.71,12.81l-50.68,86.65c-12.27,5.03-20.1-13.21-33.14-15.67l-20.87-54.02,18.89-11.51c.15-3.11-4.58-23.18-4.58-23.18"/>
  <path class="cls-36" d="M1034.67,133.76s.01-.04.02-.06c.81.63,7.75-5.62,8.75-6.26,10.48-6.77,15.4-12,27.87-11.78,6.51.11,13.27,5.7,19.72,6.59,6.19.85,11.84-4,18.1-4.48,2.17-.17,3.45,6.77,2.59,5.34,2.69-.79,4.82-1.76,4.82-1.76,7.6,4.4,2.84,33.69,3.21,37.56.37,3.87,2.01,9.84,2.01,9.84.87-1.58,1.9-2.79,2.31-4.51.44-1.51,1.35-3.31,1.79-4.83,1.47-3.53,6.65-3.82,9.36-2.18l1.45,1.61c4.04,4.05.96,18.41-.87,23.01.58,8.69-6.22,14.34-11.38,8.79l-.67,3.53-9.77,18.55c-7.28,10.1-23.05,21.68-36.67,23.13-4.88.52-11.48,1.72-15.78-3.81-4.35-5.59-6.04-8.65-10.63-13.76-4.41-4.9-6.49-8.04-9.02-14.12-2.61-6.29-2.84-8.01-3.09-14.64-.11-2.96-.54-7.41-1.16-10.18-.72-3.2-4.02-15.72-5.39-23.16-1.37-7.44,2.44-22.42,2.44-22.42Z"/>
  <path class="cls-7" d="M1125.51,174.42c3.84-11.81,7.28-12.2,7.28-12.2,0,0,2.57,2.42,1.89,7.8"/>
  <path class="cls-7" d="M1127.39,175.29c3.07-.59,1.21,5.38,2.19,6.65.98,1.27,1.79-2.42,1.78-6.79,0,0-.53-5.85-3.55-6.66"/>
  <path class="cls-25" d="M1045.39,149.51s9.55.29,17.24-.1c7.69-.39,14.93-3.88,14.93-3.88,0,0-8.82,2.76-14.9,3.1-6.08.33-17.27.89-17.27.89Z"/>
  <path class="cls-28" d="M1084.87,204.43s-7.31,2.88-13.17,3.89c-5.86,1.01-15.1.74-15.1.74,0,0,.26-2.33,10.88-4.17,10.63-1.83,17.39-.47,17.39-.47Z"/>
  <path class="cls-15" d="M1071.92,154.43c8.27-3,14.24-3.92,16.7-3.92,1.93,0,3.85.32,5.71.88,0,0,5.32,3.11,6.04,3.9.72.79-2.98,0-2.98,0-.78-.07-1.32-.22-2.11-.2-4.3.09-8.49-.32-12.67.79-3.57.93-8.22,3.44-11.53,5.1-.33-1.42-.44-4.43-.91-5.82"/>
  <path class="cls-15" d="M1033,161.67c.05-.12.03-.99.09-1.11,0,0,.08-.13.08-.13.84-.43,1.83-1.23,3.09-1.61,2.21-.67,7.79-2.53,15.96-2.35.19,1.41.8,4.05,1.01,5.47-3.4-.48-5.74-.49-9.18-.3-3.23.18-7.78.66-10.96,1.49-.13-.28.03,0-.07-.3-.04-.2-.07-.41-.09-.61.01-.18.03-.35.07-.53Z"/>
  <path class="cls-38" d="M1068.59,205.48c6.16-.69,17.36-1.44,17.36-1.44,0,0-1.47,13.78-15.75,15.37-14.28,1.59-16.67-12.66-16.67-12.66,0,0,8.9-.59,15.06-1.28Z"/>
  <path class="cls-20" d="M1068.53,205.49c2.93-.33,15.35-1.78,15.35-1.78,0,0-3.53,8.97-14.11,10.15-11.48,1.28-14.56-7.13-14.56-7.13l13.33-1.23Z"/>
  <path class="cls-35" d="M1068.45,205.95c2.93-.33,11.78-1.82,11.78-1.82,0,0-2.85,3.6-11.63,4.57-8.78.98-11.92-1.85-11.92-1.85l11.77-.9Z"/>
  <path class="cls-38" d="M1053.1,206.45c.3-.11,1.04.03,2.4-.35,2.45-.69,3.48-1.7,5.22-2.03,2.97-.57,5.01.41,6.31.27s3.07-1.55,6.1-1.65c1.77-.06,5.63.79,8.08.73,1.47-.04,4.87.01,5.19.05.44.06-1.24,1.86-17.62,3.69-16.38,1.83-16.09-.55-15.67-.7Z"/>
  <path class="cls-36" d="M1061.45,224.84c.14-.03.27-.09.39-.18,2.11-1.66,2.21-2.51,3.28-2.86.25-.08.37-.18,1.14-.35,3.11-.69,4.99-1.17,13.85,3.51.18.1,11.1-2.2,11.31-2.23l5.48-3.16c.91-.67,20.8-20.42,20.8-20.42.27-.63,3.79-5.23,3.9-5.82.06-.04.13-.08.19-.11.02-.01.08-.04.13-.07.01.04.03.09.04.11.06.24.07.5.08.75.04,1.08-.1,2.16-.34,3.22-.37,1.63-.53,3.27-.83,4.9-.11.58-.24,1.15-.4,1.71-2.31,1.71-10.86,22.3-24.7,27.62-.56.2-2.32.85-7.1,1.64-8.98,1.49-16.28,4.87-25.38,2.99-2.37-.49-4.38-2-5.48-4.09-3.15-5.96-13.29-29.34-15.47-38.44,2.89,5.14,11.54,20.74,15.74,28.25.13.23,2.77,3.01,3.07,3.07"/>
  <path class="cls-30" d="M1068.44,205.63c7.08-.56,18.49-2.34,18.49-2.34,0,0-.71,16.83-17.13,18.13-16.42,1.3-16.84-14.59-16.84-14.59,0,0,8.4-.64,15.48-1.2Z"/>
  <path class="cls-20" d="M1068.37,205.63c3.37-.27,14.91-1.71,14.91-1.71,0,0-1.63,9.92-13.8,10.88-13.2,1.05-15.2-8.05-15.2-8.05l14.09-1.13Z"/>
  <path class="cls-35" d="M1068.26,206.17c3.37-.27,13.56-1.67,13.56-1.67,0,0-3.38,4.15-13.48,4.95-10.1.8-13.6-2.69-13.6-2.69l13.52-.58Z"/>
  <path class="cls-30" d="M1050.95,205.91c.35-.12.4-.3,2.06-.58,2.77-.47,4.45-1.38,6.46-1.7,3.42-.55,5.73.7,7.22.58,1.5-.12,3.58-1.71,7.04-1.71,2.03,0,7.09.37,9.9.4,1.68.02,3.59-.82,3.96-.75.51.09-.16,3.98-18.99,5.47-18.84,1.49-18.13-1.54-17.64-1.71Z"/>
  <path class="cls-15" d="M1068.71,199.02l.63,3.05c.1.47.48.82.95.88,3.25.39,18.35-.86,18.04,2.05-.04.4.34,2.86.41,2.85l.72-.91c.9-1.98.13-4.98-.92-5.37-3.19-1.19-6.05-2.01-7.81-2.39-2.2-.48-8.31-1.59-10.96-1.51-.7.02-1.2.67-1.06,1.36Z"/>
  <path class="cls-15" d="M1064.97,199.29l.04,3.12c0,.48-.23.9-.59,1.06-2.45,1.08-14.09,2.83-13.34,5.59.1.39-.05,2.04-.1,2.04l-.68-.35c-.89,0-1.02-4.1-.27-4.71,2.27-1.85,4.34-3.26,5.64-4.02,1.63-.94,6.17-3.34,8.24-3.84.55-.13,1.05.4,1.06,1.1Z"/>
  <path class="cls-26" d="M1072.36,236.44s22.85-2.63,28.01-6.62c5.16-3.99,10.71-10.61,15.12-20.19,0,0-5.52,21.18-17.69,24.38-16.04,4.22-25.02,4.54-25.02,4.54l-.43-2.12Z"/>
  <g>
    <path class="cls-27" d="M1017.19,286.28c10.42-25.55,48.25-44.39,51.72-45.93-1.96,19.42,12.96,20.1,12.96,20.1l5.61,45.08,1.96-.02,4.26-46.23c36.16-11.47,40.34-36.04,40.34-36.04,9.37,1.81,29.61,6.88,47.17,13.41,14.65,7.68,14.79,25.16,20.42,35.64,7.16,13.35,6.65,50.76,14.76,77.71-20.25,8.41,6.19,44.43-3.42,46.13.57,2.93,1.04,5.23,1.58,7.85.29,1.19.56,2.48.81,3.83.86,3.98,1.67,7.42,2.4,10.12-.31.03-.61.05-.92.08.99,8.9,22.57,38.7,26.34,65.72,6.45,46.25-2.43,101.79-2.83,108.65-.79,13.66-91.31,24.15-130.68,25.22-38.66,1.05-65.1-4.81-72.52-13.33v-37.51c-.97-20.72-3.15-37.47-5.47-65.14-.18-2.16-.28-4.33-.33-6.49-.3-13.4-1.75-67.27-1.61-67.29l-3.36-31.99c-10.77,1.17-18.93-.88-23.18-1.31,2.72-31.1,8.84-95.63,13.99-108.28Z"/>
    <path class="cls-34" d="M1017.56,286.24c4.33-10.46,12.43-18.98,21.01-26.14,7.39-6.16,15.47-11.52,23.88-16.18,2.16-1.2,4.34-2.4,6.6-3.4l-.52-.11c-.62,6.63.51,14.02,6.49,17.94,1.55,1.01,3.31,1.73,5.12,2.1.39.08,1.01.05,1.37.21.33.15-.1-.31,0,.15.92,4,1.04,8.37,1.55,12.44.83,6.69,1.66,13.38,2.5,20.07.51,4.11,1.02,8.22,1.53,12.33.01.09.16.12.23.11.65,0,1.31-.01,1.96-.02.13,0,.49-.07.51-.26,1.23-13.31,2.45-26.63,3.68-39.94.12-1.32.24-2.65.37-3.97.05-.55-.06-1.61.19-2.11.19-.37.33-.21.99-.39,1.69-.49,3.34-1.16,4.97-1.81,2.94-1.17,5.81-2.5,8.59-4.02,8.16-4.44,15.55-10.56,20.65-18.39,2.25-3.45,4.45-7.52,5.16-11.64l-.59.25c8.3,1.62,16.52,3.77,24.64,6.1,5.32,1.52,10.62,3.16,15.86,4.95,2.51.86,5.29,1.56,7.59,2.89,1.97,1.14,3.77,2.55,5.35,4.18,5.49,5.66,7.8,13.36,10.11,20.69,1.05,3.33,2.12,6.67,3.7,9.78,1.29,2.54,2.24,5.17,2.96,7.92,2.05,7.79,2.97,15.88,3.96,23.85,1.2,9.57,2.3,19.16,3.98,28.67.81,4.6,1.75,9.18,2.94,13.69.26.98.77,2.1.86,3.11.08.93-.19.84-.97,1.26-1.11.6-2.15,1.34-3.04,2.24-3.51,3.55-3.93,8.76-3.42,13.48.68,6.32,2.87,12.35,4.69,18.4.66,2.21,3.89,10.48-.12,11.29-.12.02-.35.14-.32.29,1.43,7.3,2.88,14.61,4.79,21.8l.42-.31c-.31.03-.61.06-.92.08-.14.01-.44.12-.42.31.45,3.57,2.43,7.05,4,10.22,2.64,5.31,5.46,10.54,8.13,15.84,6.28,12.51,12.22,25.69,14.21,39.66,4.07,28.52,2.55,57.85-.36,86.42-.74,7.26-1.77,14.48-2.44,21.75-.41,4.48-6.28,6.57-9.85,7.97-8.1,3.18-16.75,5.07-25.26,6.78-10.99,2.21-22.09,3.9-33.2,5.35-21.13,2.76-42.48,4.89-63.8,5.35-15,.32-30.21-.17-44.99-2.92-5.09-.95-10.17-2.16-15.01-4.02-3.35-1.29-6.78-2.89-9.43-5.37-.72-.68-.95-.8-.95-1.71v-3.45c0-3.98,0-7.96,0-11.94,0-6.97.08-13.95,0-20.92-.14-11.5-1.53-23.07-2.62-34.51-1.3-13.68-2.93-27.37-3.26-41.12-.44-18.44-.96-36.88-1.38-55.33-.08-3.54,0-7.05-.36-10.46-.84-7.98-1.68-15.97-2.52-23.95-.21-1.99-.42-3.99-.63-5.98-.01-.12-.24-.12-.32-.11-6.18.63-12.3.27-18.43-.65-.96-.14-1.92-.3-2.89-.44-.3-.04-.78-.01-1.05-.14-.55-.26-.32-.02-.42-.67-.27-1.68.35-3.97.5-5.68.81-9.06,1.66-18.12,2.57-27.17,1.88-18.79,3.81-37.63,6.8-56.28.97-6.08,1.75-12.63,4.06-18.38.1-.24-.64-.16-.74.09-1.63,4.05-2.34,8.53-3.11,12.8-1.25,6.94-2.23,13.94-3.14,20.93-2.18,16.71-3.9,33.47-5.51,50.24-.78,8.1-1.52,16.2-2.22,24.3-.01.13.12.16.23.17,6.53.7,12.82,1.9,19.44,1.6.57-.03,3.38-.48,3.52-.33.12.13.08.75.1.92l.43,4.07c.87,8.29,1.74,16.57,2.61,24.86.37,3.5.29,7.42.38,11.23.23,9.99.49,19.99.75,29.98.23,8.95.47,17.9.67,26.85.36,15.29,2.47,30.6,3.86,45.82.92,10.06,1.96,20.19,1.96,30.31,0,8.59,0,17.18,0,25.77,0,1.73,0,3.47,0,5.2,0,.92-.19,2.06,0,2.97.4,1.93,3.95,3.7,5.56,4.58,9.23,5.03,20.41,6.71,30.7,7.89,24.99,2.88,50.35,1.13,75.3-1.33,22.71-2.24,45.66-5.03,67.84-10.53,6.88-1.71,14.38-3.52,20.45-7.35,1.49-.94,3.19-2.17,3.84-3.89.67-1.77.54-4.12.76-5.98,3-25.31,5.25-50.72,4.5-76.24-.46-15.58-1.65-31.18-7.01-45.93-4.67-12.84-11.35-24.72-17.43-36.91-1.61-3.23-3.64-6.78-4.1-10.42l-.42.31c.31-.03.61-.06.92-.08.12-.01.47-.12.42-.31-1.12-4.21-1.99-8.47-2.93-12.73-.46-2.1-.9-4.21-1.32-6.32-.1-.48-.69-2.41-.62-2.52.06-.08.58-.2.69-.26,2.21-1.16,1.6-4.35,1.21-6.32-1.82-9.07-6.36-17.63-6.26-27.05.06-5.52,2.39-10.22,7.63-12.47.08-.04.26-.14.22-.25-3.62-12.15-5.33-24.8-6.91-37.35-1.38-10.93-2.26-22.13-5.07-32.81-1.02-3.85-2.8-7.16-4.28-10.81-1.82-4.49-3-9.21-4.63-13.78s-3.77-9.23-7.06-12.97c-1.68-1.91-3.65-3.57-5.83-4.89-2.65-1.62-5.87-2.44-8.8-3.43-13.03-4.4-26.4-8.2-39.9-10.84-.17-.03-.56.03-.59.25-.52,3.02-1.93,6-3.38,8.65-3.97,7.24-9.96,13.23-16.78,17.81-6.11,4.1-12.87,7.1-19.87,9.34-.1.03-.31.1-.32.23-1.24,13.5-2.48,26.99-3.73,40.49-.18,1.91-.35,3.83-.53,5.74l.51-.26c-.38,0-.78-.02-1.16.01-.31.03-.78-.14-.57.11-.07-.08-.05-.42-.06-.51-.1-.88-.22-1.76-.33-2.64-.43-3.47-.86-6.95-1.3-10.42-1.05-8.46-2.1-16.92-3.16-25.39-.25-2.04-.51-4.08-.76-6.12-.01-.09-.16-.11-.23-.11-2.52-.13-5.15-1.27-7.13-2.78-5.29-4.01-6.18-10.96-5.61-17.15.02-.24-.39-.17-.52-.11-5.71,2.54-11.15,5.88-16.39,9.26-9.26,5.97-18.13,12.85-25.42,21.15-4.14,4.71-7.72,9.92-10.13,15.72-.1.24.63.16.74-.09Z"/>
  </g>
  <path class="cls-14" d="M1042.92,170.13c-1.21-.48-2.65.15-3.34.89-.16.17-.45.69-.6,1.47-.19,1,.31,2.05.98,2.66.9.81,2.27.83,3.26.24,1.34-.8,1.63-2.54,1.16-3.73-.09-.22-.48-1.14-1.46-1.53"/>
  <path class="cls-14" d="M1055.76,172.51s-6.05-3.86-8.94-3.86c-4.23,0-9.15,2.83-10.43,5.05,0,0,6.48-4.15,9.46-4.06,2.85.08,9.91,2.86,9.91,2.86Z"/>
  <path class="cls-14" d="M1078.44,166.88c1.09-.71,2.96-.73,3.78-.14.19.14.71.54,1.01,1.28.38.94.1,2.07-.44,2.8-.72.97-2.06,1.26-3.14.88-1.47-.52-2.1-2.17-1.87-3.43.04-.23-.23-.65.65-1.22"/>
  <path class="cls-14" d="M1073.08,170.46s5.93-4.66,9.04-5.06c4.53-.58,10.22,1.54,11.91,3.57,0,0-7.54-3.21-10.73-2.71-3.04.48-10.23,4.2-10.23,4.2Z"/>
  <g>
    <path class="cls-8" d="M1062.56,194.99c1.6.66,3.92.27,5.38-.81.32-.24,1.48-.14,1.03.2-1.93,1.43-5.27,1.84-7.34.98-.21-.09-.18-.24.06-.34.25-.11.65-.13.87-.03"/>
    <path class="cls-8" d="M1069.6,193.89c.99-.57,2.12-.93,3.26-1.12.17-.03.39.02.52.12.1.08.14.19.01.27-.5.35-1.17.53-1.79.58-.2.01-.46-.01-.58-.17-.12-.15.06-.26.22-.27.52-.04,1.03-.18,1.45-.47.18.13.36.26.54.39-1.02.17-2.03.5-2.92,1.01-.18.1-.44.07-.62-.01-.13-.06-.28-.22-.1-.32"/>
    <path class="cls-8" d="M1074.18,193.63c1.35-.15,2.88-.87,3.45-1.94.87-1.61-.27-3.94-2.04-4.77-.19-.09-.11-.24.08-.29.24-.07.53,0,.73.09,1.54.72,2.66,2.62,2.57,4.07-.09,1.35-1.3,2.4-2.88,2.93-.47.16-.97.28-1.48.34-.2.02-.58,0-.69-.16-.12-.15.07-.24.26-.26"/>
    <path class="cls-8" d="M1060.03,194.52c.06-.16-.08-.25-.19-.24-.36.04-.74-.03-1.08-.25-.11.16-.21.31-.32.47.74.02,1.49.19,2.18.57.14.08.32,0,.43-.1.08-.08.16-.26.02-.33"/>
    <path class="cls-8" d="M1061.07,194.63c-.77-.42-1.61-.6-2.43-.62-.12,0-.27.07-.35.19-.06.09-.07.21.03.27"/>
    <path class="cls-8" d="M1057.25,194.95c-.88.04-1.96-.45-2.48-1.42-.78-1.47-.33-3.33.67-4.4.11-.12.03-.25-.09-.28-.16-.04-.34.07-.45.19-.88.93-1.38,2.36-1.11,3.78.25,1.32,1.17,2.18,2.25,2.48.32.09.66.14.99.12.13,0,.37-.09.42-.25.05-.17-.08-.23-.2-.22"/>
  </g>
  <g>
    <path class="cls-37" d="M1026.52,397.25c-1.96-25.93-2.64-46.62-8.11-72.04"/>
    <path class="cls-34" d="M1026.89,397.15c-1.4-18.59-2.29-37.26-5.11-55.71-.84-5.47-1.84-10.92-3-16.33-.03-.16-.76.01-.72.19,3.92,18.28,5.63,36.83,6.93,55.45.39,5.53.76,11.06,1.18,16.59.01.14.74,0,.72-.19h0Z"/>
  </g>
  <path class="cls-34" d="M1139.6,224.77c.14,1.75-.2,3.6-.6,5.3-1.09,4.56-3.37,8.77-6.29,12.4-4.81,5.98-11.27,10.01-17.66,14.1-3.58,2.29-7.18,4.59-10.95,6.57-.7.37-1.41.75-2.15,1.01-.25.09-.36.02-.12.1-.15-.05-.62,0-.65.22-.69,5.55-1.39,11.09-2.08,16.64-1.11,8.85-2.21,17.71-3.32,26.56-.26,2.05-.51,4.1-.77,6.15l.51-.24c-2.06.08-4.11.15-6.17.23l-4.08.15c-.44.02-.89.02-1.34.05-.11,0-.23.02-.34.01-.29-.02.02.02.05.09-.26-.6-.28-1.46-.4-2.09-.34-1.78-.68-3.56-1.01-5.34-2.08-10.99-4.17-21.99-6.25-32.98-.56-2.98-1.13-5.96-1.69-8.94,0-.05-.09-.08-.14-.08-5.21-.56-9.08-5.75-10.75-10.24-1.21-3.24-1.69-6.7-1.85-10.14,0-.2-.74-.06-.72.19.32,7.07,2.3,15.2,8.85,19.05,1.25.73,2.52.99,3.83,1.47.26.1.03-.19.1.19.09.5.19.99.28,1.49,2.26,11.91,4.51,23.82,6.77,35.72.75,3.97,1.5,7.93,2.26,11.9.02.08.16.09.22.09,4.03-.15,8.06-.3,12.1-.44.12,0,.49-.07.51-.24.69-5.55,1.39-11.09,2.08-16.64,1.11-8.85,2.21-17.71,3.32-26.56.26-2.05.51-4.1.77-6.15l-.65.22c.57.18,1.45-.35,1.92-.58,3.16-1.47,6.14-3.38,9.1-5.22,10.92-6.8,22.95-14.07,26.98-27.1.69-2.23,1.26-4.74,1.07-7.1-.02-.2-.74-.06-.72.19h0Z"/>
  <path class="cls-34" d="M1026.08,389.15c-2.84-.08-5.68-.3-8.5-.61-4.38-.49-9.4-.99-13.29-3.22-.28-.16-.91.22-.56.42,3.86,2.21,8.76,2.77,13.1,3.28,2.99.35,6,.59,9,.67.36,0,.74-.52.25-.54h0Z"/>
  <path class="cls-34" d="M1241.49,579.01c-.07.6-.47,1.23-.83,1.75-1.26,1.87-3.14,3.32-4.99,4.55-3.99,2.65-8.49,4.53-12.99,6.12-7.84,2.77-15.98,4.67-24.13,6.23-21.01,4.02-42.32,7-63.59,9.23-15.61,1.64-31.5,3.11-47.21,2.32-8.02-.4-16.16-1.27-24.06-2.73-7.43-1.38-14.58-3.74-21.17-7.48-1.74-.99-3.43-2.05-5.09-3.16-.24-.16-.9.18-.57.4,6.35,4.27,13.22,7.52,20.65,9.44,8.39,2.17,17.11,2.95,25.72,3.72,14.92,1.34,30.15.05,45.02-1.35,21.49-2.02,42.89-5.11,64.15-8.8,9.08-1.57,18.13-3.41,26.92-6.19,5.1-1.61,10.18-3.52,14.82-6.2,2.37-1.37,4.75-2.98,6.52-5.11.46-.55,1.63-1.86,1.55-2.68,0-.04.02-.08.02-.12.04-.35-.7-.24-.74.07h0Z"/>
  <path class="cls-15" d="M1058.4,232.81c1.05.54,1.26,1.97,1.61,2.97.31.89.73,1.78,1.52,2.34.73.51,1.67.71,2.54.54.56-.11,2.01-.76,1.99-1.53.13-.16.07-.21-.19-.17-.3-.09-.34-.06-.13.07.02.09.37.4.44.49.29.35.54.74.87,1.06.69.68,1.64,1.04,2.6,1.02,1.99-.04,3.75-1.62,3.67-3.66-.68.25-1.36.51-2.04.76,1.66,1.27,3.7,2.44,5.86,1.85,1.79-.48,3.21-1.99,2.98-3.9l-2.02,1c1.51,1.45,3.33,2.75,5.54,2.16.97-.26,1.71-.88,2.24-1.72.15-.25.31-.67.52-.88.31-.3.26-.34.5.01.2.29.21.78.4,1.1,1.28,2.2,3.59.01,4.69-1.11,2.11-2.17,4.23-4.34,6.34-6.52-.69-.18-1.38-.36-2.07-.54-.73,1.44-1.43,2.95-1.88,4.51-.19.68-.5,1.67,0,2.31.56.71,1.63.51,2.34.16,1.93-.96,3.5-2.98,4.9-4.57,1.09-1.23,2.14-2.49,3.16-3.78.91-1.15-1.24-1.64-1.94-.76-1.92,2.44-3.93,4.99-6.3,7-.23.19-.54.36-.74.57-.07.07-.2.13-.19.1.02-.14.72.38.85.2.08-.11.07-.62.1-.77.09-.39.23-.77.37-1.15.44-1.2.97-2.37,1.54-3.5.63-1.25-1.54-1.09-2.07-.54-1.71,1.76-3.43,3.52-5.14,5.28-.46.47-.91.94-1.37,1.41-.25.26-.5.51-.76.77.34.1.42.01.23-.26.03-.54-.46-1.38-.85-1.72-1.26-1.11-3.16-.2-4,.98-.58.81-.81,1.96-2.05,1.72-1.02-.2-1.88-1.15-2.6-1.84s-2.13.09-2.02,1c.14,1.18-1.03,1.8-2.04,1.59s-1.94-.9-2.76-1.53c-.56-.43-2.07-.12-2.04.76s-.46,2.13-1.6,1.59c-.64-.3-.98-1.06-1.43-1.56-.88-.98-2.2-1.31-3.3-.42-.26.21-.43.45-.6.73-.21.35-.11.54-.6.42-.82-.2-1.13-1.57-1.34-2.22-.47-1.46-1.01-2.7-2.43-3.44-1.01-.52-2.61.95-1.3,1.63h0Z"/>
  <path class="cls-36" d="M1250.18,438.8c-1.12-28.45-5.35-38.82-5.09-52.22-.91.18-12.61-12.15-13.49-11.89-2.78.83-8.75-3.15-11.65-2.82-5.31.6-8.7,6.34-14.01,6.91-6.77.74-9.47-1.72-16.26-2.18l15.6,62.22c14.81-.49,30.31-1.95,44.9-.03Z"/>
  <path class="cls-36" d="M1225.09,408.99l-99.46-32.69-18.05,22.23c17.66,6.69,91.15,53.56,108.9,57.55,5.02-13.29,6.46-33.18,8.61-47.08Z"/>
  <path class="cls-36" d="M1135.46,379.76l-10.96-29.74-13.08-9.24-14.82-6.93-30.17-2.2s-3.08,2.81,3.53,5.73c6.15,2.35,12.59,4.28,19.27,5.77l10.93,12.03.14,8.2-4.73,2.01s-9.46-14.98-14.61-16.54c-.84-.25-.75-.43-1.45-.66-2.93-.96-5.37-.61-6.25,2.35h0s15.67,25.41,15.67,25.41c0,0,9.01,9.87,11.55,11.94,2.86,1.83,12.48,7.98,15.75,9.36"/>
  <g>
    <path class="cls-27" d="M1174.49,264.87c-8.2,6.68-11.98,12.54-12.73,19.78-.98,9.51,9.54,80.37,16.75,106.84,0,0,31.67,11.21,74.51-8.18,0,0-20.35-92.48-25.6-106.54-5.25-14.06-19.15-32.35-49.5-42.11"/>
    <path class="cls-34" d="M1174.2,264.79c-6.35,5.21-12.46,11.92-12.85,20.57-.17,3.78.32,7.64.7,11.4,1.43,14.24,3.56,28.42,5.83,42.55,2.39,14.9,4.96,29.82,8.35,44.53.32,1.4.66,2.8,1,4.2.16.64.32,1.29.49,1.93.1.39.19,1.42.48,1.69.34.32,1.25.41,1.67.53,4.03,1.13,8.19,1.8,12.35,2.23,17.75,1.84,35.84-1.19,52.48-7.43,2.86-1.07,5.68-2.25,8.47-3.51.1-.04.24-.14.21-.27-1.24-5.61-2.49-11.23-3.75-16.84-2.76-12.33-5.57-24.65-8.43-36.95-2.89-12.44-5.81-24.87-9-37.24-2.18-8.48-4.25-16.9-8.76-24.49-8.52-14.34-22.63-24.42-37.9-30.57-2.44-.98-4.91-1.87-7.42-2.68-.26-.08-.85.3-.43.43,16.77,5.43,32.71,14.92,42.87,29.65,2.95,4.28,5.41,8.95,7.03,13.9,1.19,3.64,2.16,7.35,3.14,11.06,3.12,11.87,5.94,23.83,8.73,35.78,2.94,12.56,5.81,25.14,8.64,37.72,1.01,4.49,2.02,8.99,3.02,13.48.32,1.44.64,2.88.96,4.33.15.69.19,1.67.51,2.31.04.08.05.21.07.3l.21-.27c-17.63,7.94-37.03,12.36-56.42,11.16-4.88-.3-9.77-.94-14.52-2.11-.87-.21-2.14-.34-2.92-.81-.4-.24-.17-.09-.34-.73-.34-1.28-.67-2.57-.98-3.86-3.38-13.91-5.85-28.05-8.19-42.16-2.39-14.43-4.58-28.9-6.23-43.43-.52-4.53-1.04-9.1-1.19-13.66-.21-6.5,2.47-12.33,6.82-17.11,1.81-1.98,3.81-3.77,5.88-5.47.33-.27-.39-.32-.59-.16h0Z"/>
  </g>
  <path class="cls-34" d="M1250.31,376.14c-8.08,2.14-16.32,3.8-24.57,5.13-12.99,2.1-26.14,2.83-39.29,2.98-3.09.03-6.19.05-9.28-.03-.25,0-.78.36-.29.37,8.57.2,17.18-.03,25.74-.52,13.02-.74,25.87-2.64,38.6-5.44,3.07-.67,6.13-1.38,9.17-2.18.43-.11.35-.43-.08-.31h0Z"/>
  <path class="cls-18" d="M1141.31,141.37s-42.93-41.52-99.54-21.76l15.24-29.12s22.26-8.78,50.49-1.09c28.23,7.69,31.76,21.08,31.76,21.08l2.05,30.89Z"/>
  <path class="cls-12" d="M1140.64,121.62c-8.12-6.07-17.01-11.39-26.18-15.68-6.87-3.21-13.93-5.57-21.47-6.54-8.34-1.07-16.86-1.09-25.23-.33-3.72.34-7.44.83-11.08,1.65-2.18.49-4.57,1.04-6.47,2.28-.26.17.36.1.48.03,1.85-1.2,4.22-1.7,6.35-2.17,3.26-.71,6.58-1.16,9.9-1.48,8.24-.79,16.61-.8,24.83.19,14.34,1.71,27.35,8.55,39.38,16.22,3.02,1.92,6.02,3.91,8.89,6.05.14.11.69-.14.59-.22h0Z"/>
  <path class="cls-12" d="M1140.14,126.9c-1.35-.02-2.68.16-3.96.59-.75.25-2.4.73-2.65,1.65-.18.67.45.99,1.03.83.85-.23.38-.68-.01-1.17-1.11-1.37-1.97-2.95-2.54-4.62-.24-.7-.61-1.64-.6-2.39l-.06-.41c.63-.89.3-.56-1,.97-.41.13-1.05.03-1.47.04-1.09.03-6.43-.48-5.52,2.12.07.19.56-.01.62-.13.79-1.61.39-3.26-.09-4.91-.26-.89-.64-1.83-.72-2.75-.02-.22-.03-1.64.19-1.72l-.41.02c1,.86-.2,1.22-1.01,1.41-.95.22-1.94.29-2.91.39-1.23.12-2.47.23-3.65.63-.6.2-2.31.75-2.24,1.63.06.73.76.62,1.22.42.04-.02.14-.08.13-.15-.42-1.57-.83-3.13-1.25-4.7-.39-1.46-1-3-1.18-4.5-.1-.85.43-.25.44.12,0,.46-1.06.89-1.44,1.07-.64.31-1.29.62-1.93.92-1.5.72-3,1.44-4.5,2.16-.37.18.2.21.37.12,1.64-.79,3.29-1.57,4.93-2.36.88-.42,2.51-.83,3.05-1.74.78-1.34-1.61-1.92-1.56-.26.02.75.38,1.57.57,2.29.23.86.46,1.72.69,2.58s.46,1.72.69,2.58c.04.17.2,1.32.37,1.41-.74-.38,2.04-1.46,2.16-1.49,2.68-.75,5.5-.34,8.07-1.58.04-.02.15-.08.13-.15-.12-.37-.24-.77-.55-1.03-.1-.08-.31-.02-.41.02-.96.35-.55,2.37-.38,3.06.54,2.16,1.67,4.43.61,6.61l.62-.13c-.2-.56,1.03-1.45,1.53-1.57.35-.08.78-.02,1.15-.04.82-.02,1.63-.05,2.45-.07s1.9.08,2.64-.38c1.09-.67.54-2.23-.67-1.59-.75.39-.28,1.41-.14,2.06.28,1.27.73,2.5,1.33,3.66.28.55.6,1.09.95,1.6.16.23.32.46.49.68.12.16.25.32.38.48.14.21.17.21.09,0-.36.02,1.15-1.1,1.44-1.22.42-.18.86-.33,1.31-.45.97-.26,1.95-.35,2.95-.34.2,0,.68-.29.26-.29h0Z"/>
  <path class="cls-12" d="M1104.65,114.36c-.64-.06-1.58.13-2.12.5-.59.41-.36.97.43,1,1.81.07-.49-3.78-.76-4.31-.69-1.36-1.62-2.64-2.24-4.03-.17-.38-.42-1.03-.18-1.44,1.47-.41,1.52-.15.15.78-.3.09-.6.18-.9.27-1.12.33-2.24.67-3.36,1-.84.25-6.36,1.94-4.71,3.58.07.07.25.04.33.01,2.04-.59-.22-3.16-.98-4.01-.87-.97-4.54-3.95-2.68-5.27l-.54.08c2.03,1.47-2.75,3.32-3.74,3.78s-1.99.93-2.79,1.71c-.42.41-1.53,1.39-1.37,2.1.2.86,2.09.75,1.24-.69-1.27-2.13-4.95-3.97-4.17-6.8l-.56.18c1.31.47-.9,2.02-1.22,2.21-.68.39-1.39.72-2.1,1.07-1,.5-1.88,1.03-2.69,1.8-.39.37-2.9,2.88-1.39,3.12.31.05.9-.02,1.03-.37.21-.56-.92-1.39-1.28-1.67-1.15-.91-2.5-1.49-3.53-2.56-.84-.87-2.29-2.62-1.33-3.85l-.6.09c1.17,1.97-1.94,4.02-3.28,4.87-1.53.98-3.06,2.21-3.25,4.14,0,.07.05.1.11.1.85.04,1.57-.68.88-1.47-1.2-1.38-4.73-1.67-4.42-3.98.04-.33.11-.68.22-.99.03-.1.23-.4.21-.48l-.31.29v.47c-.2.89-.5,1.63-1.02,2.38-1.15,1.68-2.82,3.11-4.61,4.07-.37.2.2.23.37.14,2.32-1.25,5.07-3.5,5.77-6.16.12-.47.4-1.64-.43-1.39-.69.2-.8,1.44-.85,2-.12,1.51,1.59,2.08,2.69,2.72,0,0,2.69,1.59,2.04,1.85-.01,0,.61-1.48.64-1.52.26-.37.59-.7.93-1,1.18-1.04,2.66-1.65,3.76-2.79.81-.84,1.88-2.22,1.17-3.41-.1-.17-.51-.03-.6.09-1.16,1.48.73,3.6,1.83,4.54,1.03.89,2.31,1.43,3.34,2.34.26.23.74.61.85.94.09.27-.18.27-.19.05,0-.16.08-.31.14-.45.93-2.2,3.36-3.35,5.33-4.35.81-.41,1.94-.89,2.47-1.68.33-.49.49-1.2-.17-1.44-.14-.05-.52.01-.56.18-.65,2.35,1.66,3.9,3.03,5.43.18.2,1.7,1.98,1.46,2.15-.4.27-.26-.6-.24-.71.06-.27.38-.63.56-.84.36-.43.77-.88,1.22-1.21.93-.69,8.6-3.36,6-5.23-.14-.1-.41,0-.54.08-1.89,1.34.97,3.89,1.93,4.88.87.89,1.82,1.88,2.28,3.06.08.2.28.67.15.89-.15.25-.12-.47-.07-.59.34-.75,1.56-1.25,2.27-1.56,1.92-.83,4.07-1.28,6.08-1.88.64-.19,2.48-.62,1.59-1.68-.53-.63-1.54-.33-1.97.24-.89,1.19.33,2.64.92,3.67.81,1.41,1.59,2.85,2.21,4.35.21.51.51,1.12.5,1.69,0,.04.01.14-.02.19.27-.38-.37-.12-.04-.58.22-.31.92-.43,1.29-.39.17.02.73-.26.39-.3h0Z"/>
  <path class="cls-24" d="M961.01,260.69s21.45,42.57,21.26,73.43c-.19,30.86,8.92,64.91,5.95,100.03-2.98,35.12-40.83,455.48-40.83,455.48l170.19,3.8s-11.37-377.99-15.6-451.68c-3.72-64.82-140.96-181.06-140.96-181.06Z"/>
  <path class="cls-24" d="M1463.66,11.52s-258.73,66.86-262.15,55.55c-3.42-11.31,85.67-126.91,85.67-126.91l111.21-81.78-10.84-9.3-118.84,75.3,93.66-161.21-20.6,3.07-110.03,154.74s-60.41,131.54-68.87,124.66c-8.46-6.89-64.86-129.24-64.86-129.24l-13.46,5.68,59.9,165.41-79.44,153.38c-1.11,3.19-2.38,7.15-3.65,11.66l-71.49-53.97-41.98-164.34,84.12-99.73h-11.92l-72.21,85-97.83-187.81-17.36,12.19,118.52,323.99-112.52-79.34L732.99,2.49l-11.92,22.08,134.37,112.78-179.73-49.87v10.21l184.77,55.52,131.67,141.62c1.79,19.77,29.11,119.88,40.33,183.18l72.72,25.56c1.96-11.58,17.08-125.36,12.37-135.68,2.6-76.48,15.54-101.13,15.54-101.13-.99-9.65,13.31-33.28,19.86-50.06,8.22-21.54,45.36-87.25,63.83-107.67,18.47-20.42,255.35-84.46,255.35-84.46l-8.5-13.05Z"/>
  <polygon class="cls-24" points="761.47 9.62 572.68 -64.66 526.83 -70.45 766.73 49.86 761.47 9.62"/>
  <polygon class="cls-24" points="764.15 47.84 715.2 -115.63 727.98 -175.78 806.63 61.15 764.15 47.84"/>
  <path class="cls-39" d="M712.51,939.51c12.66-13.7,26.07-29.19,26.45-47.84.38-18.65-21.1-37.27-36.64-26.96,4.51-11.21.28-25.27-9.66-32.13-9.94-6.86-24.59-5.83-33.47,2.36-5.04-27.05-46.37-37.72-63.87-16.49,1.64-10.56-13.28-17.66-22.57-12.37-9.29,5.29-12.47,17.36-11.73,28.02-6.08-12.48-20.34-20.45-34.15-19.09-13.81,1.36-26.24,11.96-29.77,25.38-1.32-11.8-3.27-24.82-12.38-32.44-9.11-7.62-27.23-3.31-26.99,8.57,2.73-16.78-6.61-34.82-21.9-42.26-15.28-7.44-35.25-3.68-46.77,8.82-2.24-16.45-8.39-33.59-22.03-43.04-13.65-9.45-35.99-6.98-42.94,8.1-7.86-12.86-20.46-24.62-35.53-24.61-15.07,0-29.06,17.88-20.9,30.54-11.14-18.59-45.87-11.26-48.55,10.24-8.01-12.42-24.71-18.47-38.82-14.06s-24.39,18.9-23.89,33.67c-14.03-8.64-33.52-7.25-46.18,3.29-12.66,10.54-17.56,29.45-11.61,44.82-42.17,3.37-72.97,54.02-56.57,93.02"/>
  <path class="cls-31" d="M-442.8,930.68c-12.68-13.72-26.11-29.23-26.49-47.91-.38-18.68,21.13-37.33,36.7-27.01-4.52-11.22-.28-25.31,9.67-32.19,9.96-6.87,24.63-5.84,33.53,2.36,5.04-27.1,46.44-37.78,63.97-16.51-1.65-10.58,13.3-17.69,22.6-12.39,9.3,5.3,12.49,17.39,11.75,28.07,6.09-12.5,20.37-20.48,34.2-19.12,13.83,1.36,26.28,11.98,29.81,25.42,1.33-11.82,3.28-24.86,12.4-32.49,9.13-7.63,27.28-3.31,27.04,8.58-2.74-16.81,6.62-34.87,21.93-42.33,15.31-7.46,35.3-3.69,46.85,8.83,2.24-16.47,8.4-33.64,22.07-43.11,13.67-9.46,36.05-6.99,43.01,8.11,7.87-12.88,20.49-24.66,35.58-24.65,15.09,0,29.11,17.91,20.93,30.59,11.16-18.62,45.94-11.28,48.62,10.26,8.02-12.44,24.75-18.5,38.88-14.08,14.13,4.42,24.43,18.93,23.93,33.73,14.06-8.65,33.57-7.26,46.26,3.3,12.68,10.56,17.59,29.5,11.63,44.89,42.24,3.38,73.09,54.11,56.66,93.17"/>
  <path class="cls-39" d="M1419.33,798.83c-11.78,5.19-21.27,15.71-24.55,28.2-1.64-14.64-4.06-30.78-15.36-40.24-10.3-8.62-29.89-4.93-33.04,6.96,1.56-19.72-9.75-40.05-27.6-48.75-18.96-9.23-43.72-4.56-58.02,10.94-2.77-20.4-10.4-41.66-27.33-53.38-16.93-11.72-44.64-8.65-53.26,10.04-9.74-15.95-25.38-30.54-44.06-30.53-18.69.01-36.05,22.18-25.92,37.88-13.82-23.06-56.89-13.97-60.21,12.7-9.94-15.41-30.65-22.91-48.15-17.44-17.5,5.47-30.25,23.44-29.64,41.77-17.41-10.72-41.57-8.99-57.28,4.09-15.71,13.08-21.78,36.53-14.4,55.59-52.31,4.18-90.51,67.01-70.16,115.37l588.99,12.69v-145.9Z"/>
  <path class="cls-17" d="M334.92,914.95c-13.47-14.58-27.74-31.05-28.14-50.9-.4-19.84,22.45-39.66,38.98-28.69-4.8-11.92-.3-26.89,10.28-34.19,10.58-7.3,26.16-6.2,35.61,2.51,5.36-28.79,49.34-40.14,67.96-17.54-1.75-11.24,14.13-18.79,24.01-13.16,9.88,5.63,13.27,18.47,12.48,29.82,6.47-13.28,21.64-21.75,36.33-20.31,14.7,1.45,27.92,12.72,31.67,27.01,1.41-12.56,3.48-26.41,13.17-34.51,9.69-8.11,28.97-3.52,28.72,9.12-2.91-17.85,7.04-37.04,23.3-44.96,16.26-7.92,37.5-3.92,49.76,9.38,2.38-17.5,8.92-35.74,23.44-45.79,14.52-10.05,38.29-7.42,45.68,8.61,8.36-13.68,21.77-26.2,37.8-26.19,16.03,0,30.92,19.02,22.24,32.49,11.85-19.78,48.8-11.99,51.65,10.9,8.52-13.22,26.29-19.65,41.3-14.96,15.01,4.7,25.95,20.11,25.42,35.83,14.93-9.19,35.66-7.71,49.14,3.51,13.47,11.22,18.69,31.34,12.35,47.69,44.87,3.59,77.64,57.48,60.19,98.97"/>
  <path class="cls-13" d="M1466.89,1053.57H-118.03v-152.49l491.25-2.09c63.08-1.15,547.92-.68,611.01.43l482.66,1.66v152.49Z"/>
  <g>
    <path class="cls-28" d="M812.93,753.14s-2.55-9.63,3.8-9.94c6.35-.3,1.93,10.89,1.93,10.89,0,0,10.36-7.21,13.11-1.28,2.76,5.94-8.21,7.18-8.21,7.18,0,0,13.3-.88,12.55,4.76-.75,5.63-14.18,1.05-14.18,1.05,0,0,12.13,9.04,6.07,12.57-6.05,3.53-11.86-8.44-11.86-8.44,0,0,2.99,11.11-3.95,11.69-6.94.58-6.2-14.91-6.2-14.91,0,0-6.71,10.42-9.32,5.81-2.62-4.6,7.88-9.95,7.88-9.95,0,0-12.8-4.27-9.74-9.6,3.06-5.33,13.54,3.27,13.54,3.27,0,0-8.47-7.37-4.58-10.38,3.9-3.01,9.16,7.29,9.16,7.29Z"/>
    <path class="cls-32" d="M816.56,762.19c.69,1.5,2.48,2.16,3.99,1.46,1.5-.7,2.15-2.48,1.46-3.99-.7-1.51-2.48-2.16-3.99-1.46-1.5.7-2.16,2.48-1.46,3.99Z"/>
    <path class="cls-32" d="M806.29,758.83c.7,1.5,2.48,2.16,3.99,1.46,1.5-.7,2.16-2.48,1.46-3.99-.7-1.51-2.49-2.16-3.99-1.46-1.5.7-2.16,2.48-1.46,3.99Z"/>
    <path class="cls-32" d="M810.22,765.71c.7,1.51,2.49,2.16,3.99,1.46,1.51-.7,2.16-2.48,1.46-3.99-.7-1.51-2.48-2.16-3.99-1.46-1.51.7-2.16,2.48-1.46,3.99Z"/>
  </g>
  <g>
    <path class="cls-28" d="M823.89,816.01s-1.92-7.23,2.85-7.46c4.77-.23,1.45,8.17,1.45,8.17,0,0,7.77-5.41,9.84-.96,2.07,4.45-6.16,5.38-6.16,5.38,0,0,9.98-.66,9.41,3.57-.56,4.23-10.64.79-10.64.79,0,0,9.1,6.78,4.56,9.43-4.54,2.65-8.9-6.34-8.9-6.34,0,0,2.24,8.34-2.96,8.77-5.21.43-4.65-11.19-4.65-11.19,0,0-5.03,7.82-6.99,4.36-1.97-3.45,5.91-7.47,5.91-7.47,0,0-9.61-3.2-7.31-7.2,2.29-4,10.16,2.45,10.16,2.45,0,0-6.36-5.53-3.44-7.79,2.92-2.26,6.87,5.47,6.87,5.47Z"/>
    <path class="cls-32" d="M826.62,822.8c.52,1.13,1.86,1.62,2.99,1.09,1.13-.52,1.62-1.86,1.09-2.99-.52-1.13-1.86-1.62-2.99-1.1-1.13.53-1.62,1.86-1.09,3Z"/>
    <path class="cls-32" d="M821.86,825.44c.53,1.13,1.87,1.62,2.99,1.1,1.13-.52,1.62-1.86,1.1-2.99-.52-1.13-1.86-1.62-2.99-1.1-1.13.52-1.62,1.86-1.1,2.99Z"/>
  </g>
  <g>
    <path class="cls-28" d="M874.89,786.74s-1-3.77,1.49-3.89c2.49-.12.76,4.26.76,4.26,0,0,4.06-2.82,5.13-.5,1.08,2.32-3.21,2.81-3.21,2.81,0,0,5.21-.34,4.91,1.86-.29,2.21-5.55.41-5.55.41,0,0,4.75,3.54,2.38,4.92-2.37,1.38-4.64-3.31-4.64-3.31,0,0,1.17,4.35-1.55,4.58-2.72.23-2.43-5.84-2.43-5.84,0,0-2.63,4.08-3.65,2.28-1.03-1.8,3.09-3.9,3.09-3.9,0,0-5.01-1.67-3.82-3.76,1.2-2.09,5.3,1.28,5.3,1.28,0,0-3.32-2.89-1.79-4.06,1.53-1.18,3.59,2.85,3.59,2.85Z"/>
    <path class="cls-32" d="M876.31,790.28c.27.59.97.84,1.56.57.59-.27.84-.97.57-1.56-.27-.59-.97-.85-1.56-.57-.59.27-.84.97-.57,1.56Z"/>
    <path class="cls-32" d="M873.83,791.66c.27.59.97.84,1.56.57.59-.27.85-.97.57-1.56-.27-.59-.97-.85-1.56-.57-.59.27-.84.97-.57,1.56Z"/>
  </g>
  <path class="cls-28" d="M339.75,822.46s-1.04-3.94,1.55-4.06c2.6-.12.79,4.45.79,4.45,0,0,4.23-2.95,5.36-.52,1.13,2.43-3.35,2.93-3.35,2.93,0,0,5.43-.36,5.13,1.94-.3,2.3-5.79.43-5.79.43,0,0,4.96,3.69,2.48,5.14-2.47,1.44-4.85-3.45-4.85-3.45,0,0,1.22,4.54-1.61,4.78-2.84.24-2.53-6.1-2.53-6.1,0,0-2.74,4.26-3.81,2.38-1.07-1.88,3.22-4.07,3.22-4.07,0,0-5.23-1.74-3.98-3.92,1.25-2.18,5.53,1.34,5.53,1.34,0,0-3.46-3.01-1.87-4.24,1.59-1.23,3.74,2.98,3.74,2.98Z"/>
  <path class="cls-32" d="M341.23,826.16c.28.61,1.01.88,1.63.6.61-.29.88-1.02.6-1.63-.28-.62-1.02-.88-1.63-.6-.61.29-.88,1.02-.59,1.63Z"/>
  <path class="cls-32" d="M338.64,827.6c.29.62,1.02.88,1.63.6.62-.29.88-1.01.6-1.63-.29-.62-1.02-.88-1.63-.6-.62.29-.88,1.01-.6,1.63Z"/>
  <path class="cls-28" d="M376.95,841.69s-1.77-6.69,2.64-6.9c4.41-.21,1.34,7.56,1.34,7.56,0,0,7.19-5.01,9.1-.89,1.91,4.12-5.7,4.98-5.7,4.98,0,0,9.23-.61,8.71,3.3-.52,3.91-9.84.73-9.84.73,0,0,8.42,6.28,4.22,8.73-4.2,2.45-8.23-5.86-8.23-5.86,0,0,2.08,7.72-2.74,8.12-4.82.4-4.3-10.36-4.3-10.36,0,0-4.66,7.23-6.47,4.04-1.82-3.2,5.47-6.91,5.47-6.91,0,0-8.89-2.96-6.77-6.66,2.12-3.7,9.4,2.27,9.4,2.27,0,0-5.88-5.12-3.18-7.21,2.7-2.09,6.36,5.06,6.36,5.06Z"/>
  <path class="cls-32" d="M379.47,847.97c.48,1.04,1.72,1.5,2.77,1.01,1.04-.48,1.5-1.72,1.01-2.77-.48-1.05-1.72-1.5-2.77-1.02-1.04.49-1.5,1.73-1.01,2.77Z"/>
  <path class="cls-32" d="M375.07,850.42c.49,1.05,1.73,1.5,2.77,1.01,1.05-.48,1.5-1.72,1.01-2.77-.49-1.05-1.72-1.5-2.77-1.01-1.05.48-1.5,1.72-1.02,2.77Z"/>
  <g>
    <path class="cls-28" d="M749.92,759.1s-1.92-7.23,2.85-7.46c4.77-.23,1.45,8.17,1.45,8.17,0,0,7.77-5.41,9.84-.96,2.07,4.45-6.16,5.38-6.16,5.38,0,0,9.98-.66,9.41,3.57-.56,4.23-10.64.79-10.64.79,0,0,9.1,6.78,4.56,9.43-4.54,2.65-8.9-6.34-8.9-6.34,0,0,2.24,8.34-2.96,8.77-5.21.43-4.65-11.19-4.65-11.19,0,0-5.03,7.82-6.99,4.36-1.97-3.45,5.91-7.47,5.91-7.47,0,0-9.61-3.2-7.31-7.2,2.29-4,10.16,2.45,10.16,2.45,0,0-6.36-5.53-3.44-7.79,2.92-2.26,6.87,5.47,6.87,5.47Z"/>
    <path class="cls-32" d="M752.65,765.89c.52,1.13,1.86,1.62,2.99,1.09,1.13-.52,1.62-1.86,1.09-2.99-.52-1.13-1.86-1.62-2.99-1.1-1.13.53-1.62,1.86-1.09,3Z"/>
    <path class="cls-32" d="M744.94,763.36c.52,1.13,1.86,1.62,2.99,1.09,1.13-.52,1.62-1.86,1.09-2.99-.52-1.13-1.87-1.62-2.99-1.1-1.13.52-1.62,1.86-1.09,2.99Z"/>
    <path class="cls-32" d="M747.96,768.69c.49,1.04,1.8,1.46,2.92.94,1.13-.52,1.65-1.79,1.17-2.84-.49-1.05-1.79-1.47-2.92-.94-1.13.52-1.65,1.79-1.17,2.84Z"/>
  </g>
  <g>
    <path class="cls-28" d="M941.42,823.12s-1.92-7.23,2.85-7.46c4.77-.23,1.45,8.17,1.45,8.17,0,0,7.77-5.41,9.84-.96,2.07,4.45-6.16,5.38-6.16,5.38,0,0,9.98-.66,9.41,3.57-.56,4.23-10.64.79-10.64.79,0,0,9.1,6.78,4.56,9.43-4.54,2.65-8.9-6.34-8.9-6.34,0,0,2.24,8.34-2.96,8.77-5.21.43-4.65-11.19-4.65-11.19,0,0-5.03,7.82-6.99,4.36-1.97-3.45,5.91-7.47,5.91-7.47,0,0-9.61-3.2-7.31-7.2,2.29-4,10.16,2.45,10.16,2.45,0,0-6.36-5.53-3.44-7.79,2.92-2.26,6.87,5.47,6.87,5.47Z"/>
    <path class="cls-32" d="M944.14,829.91c.52,1.13,1.86,1.62,2.99,1.09,1.13-.52,1.62-1.86,1.09-2.99-.52-1.13-1.86-1.62-2.99-1.1-1.13.53-1.62,1.86-1.09,3Z"/>
    <path class="cls-32" d="M936.44,827.39c.52,1.13,1.86,1.62,2.99,1.09,1.13-.52,1.62-1.86,1.09-2.99-.52-1.13-1.87-1.62-2.99-1.1-1.13.52-1.62,1.86-1.09,2.99Z"/>
    <path class="cls-32" d="M939.46,832.71c.49,1.04,1.8,1.46,2.92.94,1.13-.52,1.65-1.79,1.17-2.84-.49-1.05-1.79-1.47-2.92-.94-1.13.52-1.65,1.79-1.17,2.84Z"/>
  </g>
  <g>
    <path class="cls-28" d="M686.19,787.94s-1.92-7.23,2.85-7.46c4.77-.23,1.45,8.17,1.45,8.17,0,0,7.77-5.41,9.84-.96,2.07,4.45-6.16,5.38-6.16,5.38,0,0,9.98-.66,9.41,3.57-.56,4.23-10.64.79-10.64.79,0,0,9.1,6.78,4.56,9.43-4.54,2.65-8.9-6.34-8.9-6.34,0,0,2.24,8.34-2.96,8.77-5.21.43-4.65-11.19-4.65-11.19,0,0-5.03,7.82-6.99,4.36-1.97-3.45,5.91-7.47,5.91-7.47,0,0-9.61-3.2-7.31-7.2,2.29-4,10.16,2.45,10.16,2.45,0,0-6.36-5.53-3.44-7.79,2.92-2.26,6.87,5.47,6.87,5.47Z"/>
    <path class="cls-32" d="M688.91,794.73c.52,1.13,1.86,1.62,2.99,1.09,1.13-.52,1.62-1.86,1.09-2.99-.52-1.13-1.86-1.62-2.99-1.1-1.13.53-1.62,1.86-1.09,3Z"/>
    <path class="cls-32" d="M681.2,792.2c.52,1.13,1.86,1.62,2.99,1.09,1.13-.52,1.62-1.86,1.09-2.99-.52-1.13-1.87-1.62-2.99-1.1-1.13.52-1.62,1.86-1.09,2.99Z"/>
    <path class="cls-32" d="M682.66,799.38c.53,1.13,1.87,1.62,2.99,1.1,1.13-.52,1.62-1.86,1.1-2.99-.52-1.13-1.86-1.62-2.99-1.1-1.13.52-1.62,1.86-1.1,2.99Z"/>
  </g>
  <g>
    <path class="cls-28" d="M752.45,806.12s-2.48-9.35,3.68-9.64c6.16-.29,1.87,10.56,1.87,10.56,0,0,10.05-7,12.72-1.24,2.67,5.76-7.96,6.96-7.96,6.96,0,0,12.9-.85,12.17,4.62-.72,5.47-13.76,1.02-13.76,1.02,0,0,11.77,8.77,5.89,12.2-5.87,3.43-11.5-8.19-11.5-8.19,0,0,2.9,10.78-3.83,11.35-6.74.56-6.02-14.47-6.02-14.47,0,0-6.51,10.11-9.04,5.64-2.54-4.47,7.65-9.66,7.65-9.66,0,0-12.42-4.14-9.46-9.31,2.97-5.17,13.14,3.17,13.14,3.17,0,0-8.22-7.15-4.44-10.07,3.78-2.92,8.89,7.07,8.89,7.07Z"/>
    <path class="cls-32" d="M755.97,814.9c.67,1.46,2.41,2.09,3.87,1.42,1.46-.68,2.09-2.41,1.41-3.87-.68-1.46-2.41-2.1-3.87-1.42-1.46.68-2.09,2.41-1.41,3.87Z"/>
    <path class="cls-32" d="M746.01,811.63c.68,1.46,2.41,2.09,3.87,1.42,1.46-.68,2.09-2.41,1.42-3.87-.68-1.46-2.41-2.1-3.87-1.42-1.46.68-2.09,2.41-1.41,3.87Z"/>
    <path class="cls-32" d="M747.89,820.92c.68,1.46,2.41,2.09,3.87,1.42,1.46-.68,2.1-2.41,1.42-3.87-.68-1.46-2.41-2.09-3.87-1.42-1.46.68-2.09,2.41-1.42,3.87Z"/>
  </g>
  <g>
    <path class="cls-28" d="M256.92,791.69s-2.48-9.35,3.68-9.64c6.16-.29,1.87,10.56,1.87,10.56,0,0,10.05-7,12.72-1.24,2.67,5.76-7.96,6.96-7.96,6.96,0,0,12.9-.85,12.17,4.62-.72,5.47-13.76,1.02-13.76,1.02,0,0,11.77,8.77,5.89,12.2-5.87,3.43-11.5-8.19-11.5-8.19,0,0,2.9,10.78-3.83,11.35-6.74.56-6.02-14.47-6.02-14.47,0,0-6.51,10.11-9.04,5.64-2.54-4.47,7.65-9.66,7.65-9.66,0,0-12.42-4.14-9.46-9.31,2.97-5.17,13.14,3.17,13.14,3.17,0,0-8.22-7.15-4.44-10.07,3.78-2.92,8.89,7.07,8.89,7.07Z"/>
    <path class="cls-32" d="M260.44,800.47c.67,1.46,2.41,2.09,3.87,1.42,1.46-.68,2.09-2.41,1.41-3.87-.68-1.46-2.41-2.1-3.87-1.42-1.46.68-2.09,2.41-1.41,3.87Z"/>
    <path class="cls-32" d="M250.48,797.21c.68,1.46,2.41,2.09,3.87,1.42,1.46-.68,2.09-2.41,1.42-3.87-.68-1.46-2.41-2.1-3.87-1.42-1.46.68-2.09,2.41-1.41,3.87Z"/>
    <path class="cls-32" d="M252.36,806.49c.68,1.46,2.41,2.09,3.87,1.42,1.46-.68,2.1-2.41,1.42-3.87-.68-1.46-2.41-2.09-3.87-1.42-1.46.68-2.09,2.41-1.42,3.87Z"/>
  </g>
  <g>
    <path class="cls-28" d="M522.03,822.53s-2.48-9.35,3.68-9.64c6.16-.29,1.87,10.56,1.87,10.56,0,0,10.05-7,12.72-1.24,2.67,5.76-7.96,6.96-7.96,6.96,0,0,12.9-.85,12.17,4.62-.72,5.47-13.76,1.02-13.76,1.02,0,0,11.77,8.77,5.89,12.2-5.87,3.43-11.5-8.19-11.5-8.19,0,0,2.9,10.78-3.83,11.35-6.74.56-6.02-14.47-6.02-14.47,0,0-6.51,10.11-9.04,5.64-2.54-4.47,7.65-9.66,7.65-9.66,0,0-12.42-4.14-9.46-9.31,2.97-5.17,13.14,3.17,13.14,3.17,0,0-8.22-7.15-4.44-10.07,3.78-2.92,8.89,7.07,8.89,7.07Z"/>
    <path class="cls-32" d="M525.55,831.31c.67,1.46,2.41,2.09,3.87,1.42,1.46-.68,2.09-2.41,1.41-3.87-.68-1.46-2.41-2.1-3.87-1.42-1.46.68-2.09,2.41-1.41,3.87Z"/>
    <path class="cls-32" d="M515.59,828.04c.68,1.46,2.41,2.09,3.87,1.42,1.46-.68,2.09-2.41,1.42-3.87-.68-1.46-2.41-2.1-3.87-1.42-1.46.68-2.09,2.41-1.41,3.87Z"/>
    <path class="cls-32" d="M517.47,837.33c.68,1.46,2.41,2.09,3.87,1.42,1.46-.68,2.1-2.41,1.42-3.87-.68-1.46-2.41-2.09-3.87-1.42-1.46.68-2.09,2.41-1.42,3.87Z"/>
  </g>
  <g>
    <path class="cls-28" d="M629.56,819.03s-1.33-5,1.97-5.16c3.3-.16,1,5.65,1,5.65,0,0,5.38-3.74,6.81-.66,1.43,3.08-4.26,3.73-4.26,3.73,0,0,6.9-.46,6.51,2.47-.39,2.93-7.36.54-7.36.54,0,0,6.3,4.69,3.15,6.53-3.14,1.83-6.16-4.38-6.16-4.38,0,0,1.55,5.77-2.05,6.07-3.61.3-3.22-7.74-3.22-7.74,0,0-3.48,5.41-4.84,3.02-1.36-2.39,4.09-5.17,4.09-5.17,0,0-6.65-2.22-5.06-4.98,1.59-2.77,7.03,1.7,7.03,1.7,0,0-4.4-3.83-2.38-5.39,2.02-1.56,4.76,3.79,4.76,3.79Z"/>
    <path class="cls-32" d="M631.44,823.73c.36.78,1.29,1.12,2.07.76.78-.36,1.12-1.29.76-2.07-.36-.78-1.29-1.12-2.07-.76-.78.36-1.12,1.29-.76,2.07Z"/>
    <path class="cls-32" d="M626.11,821.99c.36.78,1.29,1.12,2.07.76.78-.36,1.12-1.29.76-2.07-.36-.78-1.29-1.12-2.07-.76-.78.36-1.12,1.29-.76,2.07Z"/>
    <path class="cls-32" d="M628.15,825.56c.36.78,1.29,1.12,2.07.76.78-.36,1.12-1.29.76-2.07-.36-.78-1.29-1.12-2.07-.76-.78.36-1.12,1.29-.76,2.07Z"/>
  </g>
  <path class="cls-36" d="M1249.65,429.2s4.47,26.82-15.78,32.24c-20.25,5.42-100.65-52.45-100.65-52.45l83.25,15.87,33.17,4.34Z"/>
  <path class="cls-2" d="M1195.35,399.21s23.14,1.87,33.69,21.28"/>
  <path d="M287.83,939.13s-1.36,1.68-.5,4.52c.86,2.84,16.96-.53,22.58.01,5.61.55,28.07,2.75,33.53,1.2,5.46-1.55.17-8.52.17-8.52l-55.78,2.78Z"/>
  <path class="cls-36" d="M347.98,924.86c.73,3.18,1.28,4.01,2.04,7.05.88,3.5-.59,6.19-4.37,7.76-3.17,1.32-7.46,2.03-10.93,1.92-4.54-.14-9.4-.87-13.94-1.01-3.89-.12-16.14-.89-19.94-.12-5.92,1.2-9.6.41-12.25-.48-.73-.25-1.19-.2-1.54-.75-.91-1.44-.83-3.05,1.1-4.32,2.43-1.61,5.43.47,7.69-1.41.4-.33.77-.71,1.24-.95.92-.48,2.03-.4,3.08-.41,5.23-.06,4.79-2.35,11.61-4.28,2-.57,17.68-10.65,19.52-11.57"/>
  <path d="M386.12,518.29c-.38,1.06-.77,2.12-.96,3.22-.74,4.22,1.67,8.79,5.57,10.57,3.9,1.77,8.93.58,11.62-2.75.3-.37.7-.81,1.16-.68.22.06.38.25.55.4,1.11.97,2.83.63,4.15-.03,5.14-2.58,7.52-9.57,5.01-14.75-.22-.45-.47-.92-.4-1.41.17-1.15,1.73-1.31,2.72-1.9,1.91-1.14,1.65-3.94,1.14-6.1-.33-1.4-.72-2.9-1.85-3.79-2.35-1.86-2.88-3.83-5.87-3.8,0,0,3.53-4.57.5-7.78-3.02-3.21-12.3.17-12.3.17"/>
  <path class="cls-3" d="M398.36,496.05l-3.83,13.15-13.76-36.77s-41.61-3.69-46.35-2.92c-4.74.76-9.07,11.17-9.07,11.17.51-4.26.56-16.23,5.83-19.01,2.2-1.16,5.81-.75,5.81-.75,0,0,2.82-4.37,7-6.63,4.18-2.26,10.1.29,10.1.29,0,0,1.75-2.88,6.61-3.89,4.86-1.01,9.93,3.19,9.93,3.19,0,0,5.28-3.63,10.83-.64,4.67,2.52,6.38,6.27,6.38,6.27,10.28.13,13.37,7.72,13.69,15.95,1.51.61,3.18,1.53,4.07,2.82.12.17.22.37.33.55.04.15.08.29.12.44.26,1.08.52,2.38.6,3.19.23,2.39.03,4.23-1.26,6.14-.05.07-.05.15-.08.22-.61.54-1.2,1.1-1.53,1.82-.43.95-.06,1.94.17,2.89.69,2.83,2.39,5.45,2.57,8.4-.24,1.76-.65,3.5-1.14,5.21-.91,1.25-2.02,2.2-3.32,2.71l-2.24.29s2.83,8.46-1.77,12.31c-4.6,3.85-11.96,3.01-11.96,3.01,0,0-.05,8.25-6.27,8.4-6.23.15-16.57-10.23-16.57-10.23"/>
  <path d="M398.11,515.94c-2.28,4.58-8.6,9.03-12.71,12.12-4.2,3.16-6.07,3.85-11.12,4.14-9.85.55-19.95-1.33-28.57-6.41-8.88-5.23-15.43-13.65-18.57-23.64-2.19-6.98-3.01-14.07-2.61-21.1.15-.73.4-1.9.55-2.63,5-13.6,9.27-17.32,22.52-19.96,8.14-1.7,14.95-6.84,27.72-2.17,2.75,1.01,5.75,4.08,9.28,5.75,5.32,2.52,11.15,6.95,13.45,11.41,3.36,6.53,3.64,15.45,3.97,23.88.25,6.39-1.02,12.77-3.87,18.49-.02.04-.04.07-.05.11Z"/>
  <path class="cls-36" d="M342.26,541.81c4.02-1.65,20.79-6.22,24.5-8.55,1.7-1.07,14.26-10.13,15.72-11.57-4.52,15.7-.36,22,1.75,24.39l4.04,4.46c-9.75,15.89-40.35,32.86-56.2,5.26l10.18-7.14v-6.85Z"/>
  <path class="cls-36" d="M323.53,508.05c-.02-2.1-.03-4.55-.03-7.5,0-.86.02-1.67.05-2.49.05-.42.07-.83.06-1.25.76-14.35,5.66-21.76,5.66-21.76,6.25-9.39,17-14.73,28.25-14.03,13.24.54,25.02,8.84,31.08,17.07,3.01,4.07,4.42,9.12,3.95,14.17-.4,4.31-3.45,7.26-4.71,11.92,4.63-.12,9.58-.1,6.8,8.14-3.06,9.08-9.13,12.82-13.23,9.34-1.25.71,1.05-2.93.61.46-.24.22-1.5,7.97-1.62,8.35-1.25,3.93-5.45,6.4-8.86,8.26-3.59,1.95-7.4,3.63-11.23,5.04-5.38,1.98-11.24,3.52-17.09,3.88l.06-.74c-2.59-.23-1.4.1-4.56-.61-10.6-2.98-15.77-23.15-16.26-28.51-.42-4.55.44-6.99,1.08-9.73Z"/>
  <path class="cls-25" d="M342.31,546.62s13.62,2.58,27.66-7.88c0,0-3.99,5.98-12.12,8.66-8.14,2.69-15.58,1.26-15.58,1.26l.05-2.05Z"/>
  <path d="M382.19,509.57c.02-.06-.24-2.73-.53.53-.15,1.63,2.05-3.66,3.44-4.75.63-.5,1.39-1.05,2.18-1.37.79-.32,3.58-.69,4.44-.78,1.21-.27,4.16,1.5,5.33,1.84.2.08-1.37-1.56-1.17-1.48,3.51-9.29,5.24-16.96-1.49-28.51-1.94-3.33-7.29-7.04-8.92-8.23-9.9-7.14-19.03-7.76-30.33-6.87-13.1,1.03-26.12,6.22-29.7,18.56-.86,2.98-1.13,4.23-.96,7.27,0,0,.95-6.74,7.41-10.19,6.46-3.44,7.66-3.47,16.56-3.17,10.31.31,13.48-1.25,21.57,2.91,7.38,3.81,8.83,6.97,8.83,6.97.4,1.79,1.47,3.34,2.17,5.02.69,1.66.9,3.4.95,5.18.09,3.65-1.06,5.84-1.52,9.49-.29,2.27-1.45,6.73.79,8.27,1,.69-.14-.36.98-.71Z"/>
  <path d="M325.18,502.21c1.36-.83,2.74-1.54,5.46-1.25,4.36.47,6.76,5.56,6.76,5.56,0,0-2.78-3.18-7.07-3.75-2.07-.27-5.23.29-6.83,1.06.05-.42.86-1.08,1.68-1.62Z"/>
  <path class="cls-25" d="M391.36,512.5c.51-1.41.75-3.09.14-4.51-.14-.33-.24-.42-.58-.53-1.38-.48-2.81.25-3.72,1.3-1.23,1.42-1.87,3.29-2.37,5.07-.08.29.49.18.6.1.28-.2.77-.48,1.11-.29.39.23.43.95.39,1.34-.14,1.4-1.36,2.02-2.64,2.13-.38.03-.58.51-.08.47,1.63-.14,3.44-1.03,3.46-2.89,0-.63-.18-1.39-.88-1.55-.62-.14-1.33.17-1.83.52l.6.1c.43-1.53.97-3.09,1.89-4.39.45-.63,1.04-1.26,1.79-1.49.4-.13.78-.11,1.17,0,.25.07.25.06.33.25.6,1.44.41,3.01-.11,4.45-.1.29.63.2.73-.07h0Z"/>
  <path d="M350.46,507.06s2.6-5.86,8.96-5.6c5.41.23,7.36,2.98,8.48,4.68,0,0-3.23-2.71-8.46-3.1-4.74-.36-8.98,4.01-8.98,4.01Z"/>
  <path class="cls-30" d="M342.51,527.05c4.06.07,11.54-.38,11.54-.38,0,0-.45,11.09-11.72,10.72-9.42-.31-8.87-10.2-8.87-10.2,0,0,4.98-.2,9.05-.13Z"/>
  <path class="cls-9" d="M342.47,527.05c1.93.03,9.13.08,9.13.08,0,0-2.19,6.25-9.18,6.13-7.58-.13-7.53-5.96-7.53-5.96l7.58-.25Z"/>
  <path class="cls-35" d="M342.37,527.76c1.93.03,7.82-.18,7.82-.18,0,0-2.15,2-7.95,1.9-5.8-.1-7.6-2.11-7.6-2.11l7.73.39Z"/>
  <path class="cls-30" d="M332.86,526.57c0-.21.42-.29,1.38-.35,1.6-.1,2.13-.67,3.29-.73,1.98-.11,3.22.66,4.08.68.86.01,2.13-.71,4.11-.53,1.16.11,4.71.58,6.31.74.96.1,2.09-.24,2.29-.19.28.07-1.12,2.67-11.93,2.48-10.81-.19-9.54-1.8-9.54-2.08Z"/>
  <path class="cls-1" d="M351.18,495.78c-.01-.1.33-.12.32-.22,5.25-1.46,9.28-1.68,10.77-1.44,1.13.18,2.23.61,3.28,1.2,0,0,2.9,1.58,3.27,2.23.37.65-1.74-.28-1.74-.28-.45-.13-.76-.29-1.22-.35-2.52-.35-4.94-1.05-7.46-.63-2.15.34-5.02,1.74-7.07,2.64-.1-1.08.04-2.08-.15-3.14Z"/>
  <path class="cls-1" d="M337.66,496.48c.01-.1-.28-.13-.27-.23-4.55-1.53-8.06-1.81-9.36-1.58-.99.17-1.96.58-2.9,1.15,0,0-1.19.35-1.53.99-.34.65.14.93.14.93.4-.12.67-.28,1.07-.33,2.21-.31,4.35-.98,6.53-.53,1.87.37,4.34,1.81,6.1,2.74.12-1.08.03-2.08.22-3.14Z"/>
  <path class="cls-36" d="M351.57,931.83s-26.81,6.5-34.51,6.74c-7.69.25-8.5-2.24-8.5-2.24,0,0,8.53-5.52,18.2-10.5,2.03-1.05-4.94-67.84-9.29-99.15-3.03-21.75-1.42-39.12-1.42-39.12l35.47,2.55-.51,33.23,1.67,6.05c.87,3.16.84,9.2,1.15,12.48.84,8.85,2.19,20.62,1.95,25.16-.41,7.68-2.79,18.15-3.01,20.85l-4.79,32.3,3.6,11.66Z"/>
  <path class="cls-36" d="M390.84,932.28s-33.58,17.7-41.27,17.71c-7.7.01-5.05-4.08-5.05-4.08,0,0,20.41-19.97,22.38-23.64,1.08-2.01-4.34-63.21-7.74-94.64-2.36-21.83-2.51-39.21-2.51-39.21l35.38,3.64,3.57,31.88,1.49,6.09c.78,3.18,1.86,8.84,2.07,12.12.57,8.87,1.14,23.78.76,28.31-.65,7.67-5.58,26.51-5.89,29.2l-3.82,23.93.62,8.68Z"/>
  <path d="M392.35,942.05s1.16.06,1.23,4.02c.1,5.29-16.3,4.53-20.67,4.91-4.37.38-18.31,4.62-28.16,4.96-9.85.34-19.85-5.63-20.83-8.74-.98-3.11.22-4.53,2.33-5.34,2.11-.81,63.09-2.98,63.09-2.98l3.02,3.18Z"/>
  <path class="cls-36" d="M390.37,919.1c-.28,3.31.84,8.01,1.59,14.97.33,3.07,2.79,7.45-.44,9.67-5.71,3.93-12.48,2.32-15.06,2.92-5.43,1.27-9.76,1.25-14.97,2.94-5.28,1.72-6.37,2.14-12.17,2.49-.8.05-1.65.02-2.34-.34-.47-.24-.83-.62-1.3-.86-1.65-.85-3.73.27-5.61.02-.83-.11-1.58-.49-2.36-.78-2.04-.78-4.27-1.04-6.43-1.5-2.16-.46-4.36-1.18-5.86-2.65-1.5-1.47-2.06-3.86-.77-5.48,1.96-2.45,4.48-1,7.14-1.23,2.65-.23,3.64-.64,5.98-1.71,5.98-2.71,6.9-3.26,11.93-5.38,3.91-1.65,15.4-6.92,20.92-10.67v-13.13"/>
  <g>
    <path class="cls-25" d="M345.8,951c-.76-.22-1.05-1.12-.98-1.84s.5-1.27,1.01-1.71c1.11-.96,2.58-1.43,3.91-1.99.1-.04.06-.21-.05-.16-1.19.5-2.44.93-3.52,1.67-.93.64-1.7,1.6-1.51,2.79.1.62.45,1.22,1.08,1.4.11.03.15-.13.05-.16h0Z"/>
    <path class="cls-25" d="M339.96,951.02c-1.46-.03-1.4-2.08-1.18-3.09.39-1.83,2.21-2.47,3.77-3.06,1.01-.38,2.02-1.03,3.13-1,.11,0,.11-.17,0-.17-1.09-.03-2.09.58-3.08.97s-2,.69-2.84,1.38c-.61.5-.99,1.1-1.15,1.87-.14.68-.18,1.42,0,2.09s.63,1.16,1.35,1.18c.11,0,.11-.17,0-.17h0Z"/>
    <path class="cls-25" d="M335.84,949.68c-1-.37-1.43-1.61-1.33-2.6.09-.94.67-1.73,1.36-2.33.73-.64,1.6-1.1,2.49-1.48.91-.39,1.91-.75,2.88-.95.11-.02.06-.19-.05-.16-.88.18-1.78.5-2.61.84-.78.31-1.55.69-2.24,1.18-1.2.84-2.2,2.1-1.97,3.66.13.86.58,1.7,1.43,2.01.1.04.15-.13.05-.16h0Z"/>
    <path class="cls-25" d="M331.7,948.9c-1.25-.56-2.1-1.84-2.14-3.21-.03-1.16.65-1.95,1.56-2.57s1.95-1.06,2.98-1.43c.43-.16.86-.3,1.3-.44.58-.19,1.21-.54,1.83-.51.11,0,.11-.16,0-.17-.5-.03-.99.19-1.45.36-.42.15-.84.28-1.26.43-.88.3-1.76.64-2.59,1.08-.76.4-1.53.89-2.05,1.59-.53.72-.6,1.62-.38,2.47.28,1.12,1.06,2.09,2.11,2.56.1.04.19-.1.09-.15h0Z"/>
  </g>
  <path class="cls-25" d="M301.85,932.72c-1.81.55-3.88,1.14-5.3,2.4-1.05-.76-2.44-.94-3.72-.74,1.25-.31,2.65-.14,3.75.58l-.11.03c1.43-1.29,3.54-1.84,5.38-2.27h0Z"/>
  <path class="cls-5" d="M351.36,931.15s-14.37,8.6-19.57,8.11c0,0-3.83-.7-5.49.02-1.66.72-2.21,2.33-2.21,2.33"/>
  <path d="M346.92,932.56c-1.45,0-2.84.59-3.86,1.63l-6.23,6.46,1.71-.33,9.65-7.76h-1.27Z"/>
  <path d="M337.24,940.64s.58-1.36,2.98-1.68c7.56-1.02,24.44-.77,26.49,10.3l-2.76,1.07s-3.44-8.4-10.46-9.12c-7.03-.72-16.25-.57-16.25-.57Z"/>
  <path d="M298.77,933.73s6.98-2.38,6.88,6.93l4.17.08s-1.5-8.66-5.42-8.99c-3.91-.33-5.63,1.98-5.63,1.98Z"/>
  <path class="cls-29" d="M342.26,548.66c-5.27,1.55-17.11,7.24-20.21,9.08-21.91,13.05-14.47,28.73-15.9,45.36,3.87,8.72,2.56,9.92,2.56,9.92,0,0,.7,26.4.35,38.53-.24.65,2.4,5.82,2.16,7.07,14.47,2.13,25.45,4.44,39.97,4.22,11.85-.18,22.7-3.75,34.32-6.26,8.52-1.84,14.21-4.96,22.85-6.02-2.98-4.25-2.06-14.61-3.8-23.82,0,0,5.88,3.93,10.56.9,0,0,14.1-51.3-7.65-67.68-6.32-4.76-16.55-9.93-22.44-13.88,0,0-13.41,18.27-31.32,16.21-.66-.08-1.29-.16-1.89-.25-.6-.09-1.79,7.15-2.33,7.04-.57-.11-.49-7.58-1-7.71-14.09-3.54-6.22-12.72-6.22-12.72Z"/>
  <path class="cls-16" d="M423.88,707.49c5.16,59.89,2.99,177.56,4.75,198.86-8.24,7.96-9.37,1.12-23.3,9.75-7.35,4.55-15.46,5.3-23.59,0-8.13-5.3-14.9-3.54-25.39,1.77-10.5,5.3-16.77-4.46-22.86-4.91-6.09-.44-6.58,2.86-19.29,1.55-10.81-1.12-6.8-11.47-13.24-11.03,2.73-85.26-1.44-172.19,8.27-256.56,9.25,6.94,22.43,11.21,36.83,11.01,11.9-.17,48.38-.4,61.52-10.17h0c.5,4.77,12.84,24.86,15.12,50.27"/>
  <path class="cls-11" d="M399.94,644.54c-1.6-8.46-3-16.97-4.26-25.49-.98-6.63-1.87-13.27-2.46-19.95-.47-5.29-.94-10.74.08-15.99.79-4.07,2.32-8.09,4.95-11.33.74-.91,1.58-1.77,2.51-2.49.25-.19.5-.37.77-.54.06-.04.41-.24.24-.15.46-.24.04-.52-.31-.34-3.58,1.86-6.01,6.04-7.41,9.63-2.23,5.73-2.27,11.63-1.88,17.67.85,13.16,3.01,26.26,5.23,39.24.57,3.32,1.15,6.63,1.77,9.94.05.28.82.09.76-.2h0Z"/>
  <g>
    <path class="cls-8" d="M339.71,519.8c.97.56,2.48.5,3.5-.08.23-.13.96.03.64.21-1.35.76-3.51.75-4.76.03-.12-.07-.1-.17.06-.21.17-.05.43-.03.56.05"/>
    <path class="cls-8" d="M344.29,519.67c.68-.29,1.43-.42,2.17-.45.11,0,.25.04.33.12.06.06.07.13-.01.18-.35.18-.79.25-1.19.22-.13,0-.29-.05-.36-.16-.06-.1.06-.16.16-.16.33.02.67-.03.96-.18.11.1.21.2.31.3-.67.02-1.34.15-1.94.41-.12.05-.29,0-.39-.06-.08-.05-.16-.16-.04-.22"/>
    <path class="cls-8" d="M347.23,519.88c.87.01,1.91-.33,2.36-.96.68-.96.14-2.65-.92-3.33-.12-.07-.05-.16.07-.18.16-.03.34.04.46.11.92.59,1.49,2,1.31,2.92-.17.86-1.02,1.44-2.07,1.65-.31.06-.64.1-.97.09-.13,0-.37-.05-.43-.16-.06-.11.06-.15.18-.15"/>
    <path class="cls-8" d="M338.13,519.3c.05-.1-.03-.17-.1-.17-.24,0-.47-.08-.67-.25-.08.09-.16.18-.24.27.47.07.93.24,1.34.54.08.06.2.03.28-.03.06-.04.12-.15.04-.21"/>
    <path class="cls-8" d="M338.79,519.45c-.46-.33-.98-.52-1.5-.6-.08-.01-.18.03-.24.1-.05.05-.06.13,0,.18"/>
    <path class="cls-8" d="M336.32,519.34c-.56-.04-1.21-.45-1.47-1.12-.38-1.01.05-2.17.78-2.77.08-.07.04-.16-.03-.19-.1-.04-.22.02-.31.08-.64.53-1.07,1.41-1.01,2.34.05.87.57,1.5,1.24,1.78.2.08.41.14.62.16.09,0,.24-.03.29-.13.05-.1-.03-.15-.11-.16"/>
  </g>
  <path class="cls-36" d="M386.31,500.87c-.59.22-5.27-2.19-5.8-1.52-9.87-16.84-40.4-27.33-55.33-13.51.63-2.58,3.45-8.52,3.97-9.35,5.59-9.04,16.22-13.49,28.02-14.53,11.8-1.05,26.4,2.65,33.63,14.7,7.01,11.68,8.14,22.34-4.48,24.22Z"/>
  <g>
    <path d="M374.98,485.09l.21-.45c.59,1.04,1.56,1.84,2.69,2.23.66.23,1.53.48,1.58,1.18.01.2-.05.41-.04.61.09,1.31,2.52.5,3.32,1.54.67.88-.4,2.28.2,3.21.54.82,1.97.58,2.51,1.41.66,1.02-.69,2.63.16,3.5.61.63,1.84.19,2.43.84.28.31.31.76.37,1.19-2.09.71-4.17,1.56-6.38,2.28-.03-.48.01-.98.11-1.43.09-.4.18-.85-.03-1.21-.46-.79-1.77-.33-2.52-.85-1.32-.91.44-3.31-.6-4.54-.62-.73-1.97-.62-2.42-1.47-.59-1.11.94-2.82-.06-3.59-.31-.24-.73-.23-1.09-.38-.71-.28-1.09-1.1-1.08-1.87.01-.77.33-1.49.64-2.19Z"/>
    <path d="M375.11,485.11l.21-.45-.25.04c.48.8,1.13,1.46,1.96,1.92.38.21.79.33,1.19.49.14.05.28.1.41.17.29.12.51.32.66.61.02.26.02.52,0,.78.24,1.21,1.82.86,2.7,1.18,1.87.69-.32,3.08,1.3,4.04.71.42,1.93.34,2.18,1.32.21.83-.36,1.64-.28,2.46.06.56.41.89.93,1.04.36.11.75.08,1.12.17.48.11.94.42.96.97s-.28.54-.76.71c-1.16.42-2.32.86-3.48,1.28-.29.1-1.39.68-1.63.57-.41-.21-.06-1.09,0-1.48.34-2.4-2.6-.79-3.08-2.54-.34-1.28.89-2.97-.31-4.03-.68-.6-1.97-.5-2.32-1.45-.33-.89.42-1.77.36-2.66-.04-.68-.47-.9-1.08-1.07-1.98-.57-1.44-2.61-.81-4.06.06-.14-.21-.16-.26-.04-.43.97-.9,2.09-.47,3.15.15.37.39.7.73.91.38.23.95.2,1.29.48.78.64-.08,1.98-.11,2.79-.03.76.39,1.19,1.05,1.48.46.2,1.02.29,1.4.65.46.42.49,1.04.43,1.63-.07.76-.4,1.63-.16,2.39.22.68.81.88,1.46.97.77.11,1.69.08,1.62,1.19-.04.66-.22,1.26-.2,1.93,0,.08.09.11.16.09,2.15-.71,4.24-1.55,6.38-2.28.06-.02.12-.06.11-.13-.14-1.09-.48-1.5-1.55-1.67-.88-.13-1.62-.33-1.52-1.39.05-.5.24-.97.29-1.47.07-.83-.32-1.33-1.07-1.62-.55-.21-1.28-.26-1.63-.8-.37-.57-.08-1.31,0-1.91.1-.74-.04-1.39-.76-1.71s-1.79-.08-2.45-.57c-.51-.38-.1-1.02-.38-1.52-.15-.27-.42-.43-.69-.56-.59-.29-1.23-.42-1.79-.76-.7-.43-1.25-1.03-1.68-1.74-.05-.09-.21-.04-.25.04l-.21.45c-.07.14.2.15.26.04Z"/>
  </g>
  <g>
    <path d="M377.37,478.31c-.62.61-.79,1.64-.39,2.41.4.78,1.33,1.24,2.19,1.1-.39,1.06.27,2.38,1.35,2.71.46.14.99.13,1.38.43.94.73.19,2.55,1.14,3.26.36.27.86.28,1.22.56.73.57.37,1.8.91,2.55.65.92,2.28.68,2.88,1.63.42.67.19,1.75.88,2.14.36.2.86.12,1.16.4.37.34.2.94.2,1.44,0,1.24,1.47,2.23,2.62,1.76.02.83.41,1.65,1.04,2.19.52-.8,1.06-1.64,1.22-2.59.16-.95-.16-2.04-1.01-2.5-.33-.18-.71-.26-.99-.51-.69-.64-.26-1.99-.99-2.58-.5-.4-1.34-.27-1.69-.8-.17-.26-.15-.58-.2-.88-.17-1.07-1.27-1.9-2.34-1.77-.3.04-.62.14-.91.02-.81-.35-.1-1.66-.49-2.46-.38-.78-1.68-.78-1.98-1.6-.1-.27-.05-.58-.12-.86-.11-.44-.49-.77-.85-1.05-1.84-1.47-3.72-2.89-5.66-4.23"/>
    <path d="M377.25,478.31c-.87,1.02-.82,2.58.42,3.3.37.22,1.11.17,1.29.5.06.12-.02.7.01.85.06.28.18.55.34.79.35.53.82.76,1.41.92,1.01.27,1.47.59,1.59,1.69.06.58.02,1.27.43,1.74.23.26.52.3.81.45.56.3.91.55,1.06,1.18s.1,1.34.6,1.83c.45.45,1.13.52,1.69.74.9.35,1.13.85,1.32,1.72.14.62.27,1,.88,1.23.82.31,1.07.42,1.06,1.38,0,.31-.03.57.08.88.19.54.65.98,1.18,1.2.3.12,1.03,0,1.22.11.28.17.34.97.5,1.26.18.33.41.58.68.84.05.05.21,0,.25-.05.72-1.11,1.53-2.4,1.18-3.78-.13-.53-.41-.97-.85-1.28-.58-.41-1.2-.47-1.46-1.23-.19-.56-.07-1.25-.46-1.75-.3-.38-.69-.37-1.1-.55-.5-.23-.79-.43-.93-1-.08-.31-.07-.56-.21-.86-.22-.45-.61-.82-1.05-1.03s-.76-.19-1.22-.21c-.5-.02-.92.15-1.17-.43-.12-.29,0-.66,0-.97.04-1.43-.7-1.36-1.67-2.12-.59-.46-.36-1.08-.67-1.67-.33-.64-1.15-1.09-1.7-1.53-1.53-1.2-3.09-2.35-4.68-3.46-.07-.05-.31.06-.25.1,1.48,1.03,2.93,2.1,4.35,3.2.68.53,1.87,1.19,2.14,2.07.14.45.02.88.38,1.24.4.41,1.03.47,1.44.87.53.52.35,1.18.36,1.85,0,1.17.74,1,1.66,1.03,1.01.04,1.78.67,1.99,1.67.11.49.07.85.52,1.16.67.47,1.41.19,1.76,1.14.2.53.09,1.15.38,1.66.25.42.57.51.98.72.76.39,1.18,1.02,1.26,1.87.07.8-.28,2.05-.84,2.67-.4.45-.49.3-.8-.26-.24-.43-.33-.88-.38-1.36,0-.05-.13-.03-.15-.02-.94.29-2.06-.25-2.37-1.18-.16-.49.04-.99-.06-1.48-.09-.44-.25-.55-.66-.72-.75-.31-1.05-.36-1.27-1.15s-.25-1.35-1.04-1.75c-1.04-.53-2.17-.45-2.48-1.83-.18-.79-.13-1.54-.93-1.96-.65-.34-1.16-.37-1.38-1.2-.11-.43-.08-.89-.15-1.33-.13-.79-.45-1.18-1.23-1.39-.72-.2-1.3-.32-1.74-.98-.38-.57-.46-1.17-.27-1.84.02-.06-.09-.05-.11-.05-2.01.18-2.9-2.03-1.69-3.45.07-.08-.2-.06-.25,0h0Z"/>
  </g>
  <g>
    <path d="M379.02,475.89c-.3,1.33.72,2.8,2.07,2.99.26.04.55.04.78.17.48.29.46.97.64,1.5.4,1.19,1.88,1.62,3.14,1.64.81,0,1.84.06,2.1.83.1.3.05.65.2.93.41.74,1.86.39,2.11,1.2.11.37-.14.77-.05,1.15.19.8,1.46.58,2.08,1.12.28.25.39.65.48,1.02.28,1.13.56,2.26.84,3.38.07.28.17.59.44.7.45.17.81-.41.93-.87.69-2.62.69-5.42,0-8.05-.17-.66-.56-1.44-1.24-1.4-.22.01-.46.12-.66.03-.34-.15-.27-.63-.23-.99.16-1.51-1.4-2.93-2.89-2.64-.4.08-.87.24-1.18-.03-.2-.18-.24-.48-.36-.72-.3-.63-1.09-.84-1.79-.85-.7,0-1.42.11-2.07-.15-.81-.33-1.36-1.2-2.22-1.34-1.04-.17-2.2.8-3.08.22"/>
    <path d="M378.89,475.91c-.13.77.06,1.52.56,2.13.24.29.54.54.89.7.59.28,1.45.12,1.76.81.36.79.27,1.49,1.05,2.04.64.45,1.45.61,2.21.65.54.03,1.11-.02,1.62.19.67.28.57.74.75,1.32.24.76,1.03.68,1.65.94,1.03.42.05,1.44.75,2.04.74.62,1.72.2,2.16,1.29s.6,2.38.89,3.52c.14.53.33,1.26,1.02,1.01.49-.18.65-.79.76-1.23.31-1.21.44-2.48.44-3.74s-.14-2.51-.43-3.72c-.16-.64-.41-1.57-1.17-1.72-.39-.08-.92.18-1.07-.37-.1-.38.07-.84-.02-1.24-.18-.81-.81-1.51-1.56-1.84-.38-.16-.74-.18-1.14-.2-.1,0-.2.04-.29.04-1.64-.05-.99-.23-1.5-.93-.54-.73-1.55-.67-2.35-.67-1,0-1.63-.21-2.4-.81-.38-.3-.75-.6-1.24-.69-1.04-.19-2.09.74-3.08.22-.07-.04-.31.07-.22.12.53.28,1.04.19,1.6.04.63-.16,1.28-.4,1.92-.12.58.26.99.8,1.55,1.09.66.34,1.34.27,2.06.27.75,0,1.61.07,2.01.81.14.25.15.56.38.75s.46.14.73.14c.61-.01,1.15-.21,1.75.05.88.37,1.55,1.27,1.56,2.23,0,.59-.2,1.12.49,1.28.38.09.74-.06,1.09.21.42.32.55,1.07.66,1.55.54,2.37.56,4.91-.04,7.27-.12.47-.68,1.69-1.12.64-.2-.49-.27-1.08-.4-1.6-.21-.86-.28-2.14-.83-2.86-.42-.55-1.13-.49-1.7-.75-.93-.42-.09-1.34-.63-1.95-.43-.48-1.26-.28-1.74-.69-.64-.55-.15-1.43-1.09-1.81-.74-.31-1.61-.14-2.38-.28-1.24-.22-1.99-.83-2.31-2.05-.1-.38-.17-.76-.52-.99s-.84-.16-1.23-.29c-1.15-.41-1.8-1.67-1.61-2.84.01-.09-.25-.04-.27.04h0Z"/>
  </g>
  <g>
    <path d="M381.1,474.37c1.64.79,3.57-1.64,5.2-.82.79.4,1.29,1.5,2.16,1.37.4-.06.75-.4,1.15-.35.83.1.65,1.42,1.19,2.07.66.81,2.19.28,2.87,1.07.19.22.28.52.46.76.33.45.9.62,1.4.86.5.24,1.01.68.96,1.23,1.19-1.9.78-4.64-.93-6.09-.18-.16-.39-.31-.5-.52-.11-.21-.13-.45-.16-.68-.18-1.17-1.04-2.21-2.16-2.62-.39-.14-.83-.23-1.11-.53-.39-.43-.3-1.11-.5-1.65-.47-1.28-2.23-1.41-3.26-2.31-.43-.37-.72-.88-1.12-1.28-.43-.43-.98-.73-1.57-.87-.47-.11-1.05-.07-1.31.33-.18.28-.16.64-.28.95-.3.78-1.31.96-2.14.97-.84,0-1.82.03-2.29.72-.67.97.28,2.29.1,3.46-.08.51-.38.98-.41,1.5-.03.47.17.93.36,1.36.34.77.68,1.54,1.02,2.31"/>
    <path d="M380.98,474.44c1.22.49,2.36-.31,3.47-.74.72-.28,1.44-.34,2.08.16.3.24.54.54.85.78.48.38.79.36,1.35.28.28-.04.88-.26,1.16-.07.14.09.23.44.28.6.11.34.16.7.33,1.01.31.55.82.69,1.41.78.49.08,1.06.08,1.47.4.38.3.47.83.85,1.15.72.61,2.04.66,2.1,1.82,0,.09.25,0,.28-.04.63-1.06.83-2.28.59-3.49-.11-.55-.32-1.09-.61-1.57-.37-.62-1.06-1.01-1.38-1.61s-.27-1.27-.63-1.86c-.31-.52-.76-.95-1.28-1.25-.75-.42-1.58-.39-1.83-1.38-.16-.63-.17-1.2-.66-1.68-.89-.87-2.25-.99-3.1-1.94-.81-.89-1.6-1.97-2.96-1.92-.28.01-.62.08-.84.27-.71.61-.16,1.48-1.36,1.86-1.01.32-2.3-.05-3.21.64-1.28.98,0,2.8-.29,4.07-.18.79-.49,1.27-.21,2.1.32.97.83,1.9,1.24,2.84.04.09.32,0,.29-.08-.53-1.2-1.64-2.8-1.28-4.15.14-.52.36-.96.32-1.52-.04-.61-.28-1.19-.34-1.8-.21-2.07,2.14-1.54,3.45-1.9.28-.08.57-.19.8-.37.41-.33.34-.72.56-1.16.09-.18.98-.58,1.22-.58.18,0,.51.16.7.26.3.15.58.36.82.59.48.48.81,1.07,1.37,1.47.81.58,1.92.76,2.62,1.51.8.86.27,2.14,1.52,2.64,1.33.53,2.31,1.26,2.6,2.76.14.7.34.89.85,1.38s.85,1.04,1.09,1.67c.53,1.38.42,2.94-.34,4.21l.28-.04c-.05-.94-.93-1.19-1.64-1.56-.83-.43-.97-1.44-1.89-1.72s-1.97-.05-2.41-1.13c-.2-.49-.2-1.25-.72-1.53-.77-.41-1.5.58-2.31-.05-.57-.45-.96-1.06-1.72-1.2-1.66-.29-3.07,1.64-4.71.98-.08-.03-.34.09-.23.13h0Z"/>
  </g>
  <g>
    <path d="M376.22,474.19c-.97-.49-1.32-1.91-.68-2.79.21-.29.53-.62.4-.95-.06-.15-.19-.25-.3-.36-.71-.7-.65-2.01.12-2.64.16-.13.35-.24.47-.42.47-.72-.65-1.87-.02-2.47.53-.5,1.44.24,2.11-.05.65-.28.62-1.32,1.23-1.67.91-.53,2.37.86,2.96,0,.31-.45-.09-1.1-.59-1.31-.5-.22-1.08-.18-1.61-.31-1.38-.33-2.26-1.67-3.47-2.42-1.26-.78-2.81-.88-4.29-.96-.64-.03-1.29-.07-1.89.16-.92.34-1.57,1.31-1.54,2.29,0,.19.03.41-.1.55-.07.08-.18.12-.29.16-.52.19-1.05.38-1.57.56-.2.07-.42.16-.51.34-.23.43.36.85.84.91s1.09.08,1.29.52c.37.83-1.27,1.41-1.13,2.31.15.93,1.87.72,2.13,1.62.16.54-.35,1.06-.32,1.62.04.57.62.94,1.17,1.12s1.16.27,1.55.69c.3.31.43.75.62,1.14.6,1.18,1.87,1.84,3.06,2.42"/>
    <path d="M376.32,474.12c-.53-.31-.87-.8-.95-1.41-.1-.71.26-1.08.57-1.66.14-.27.22-.47.06-.75s-.43-.45-.57-.76-.18-.68-.12-1.01c.12-.67.58-.9.97-1.38.19-.24.23-.49.19-.8-.05-.4-.35-.82-.3-1.22.02-.21.45-.59.69-.63.13-.02.42.1.58.13.16.03.31.06.47.06.71-.02.95-.55,1.23-1.12.63-1.3,1.73-.34,2.71-.33.45,0,.89-.28.9-.77.01-.9-1.04-1.12-1.72-1.22-1.45-.21-2.24-1.03-3.32-1.93-.85-.71-1.79-1.14-2.88-1.34-1.68-.31-4.31-.76-5.43.92-.24.35-.38.76-.42,1.18s.01.64-.44.9c-.27.15-.63.23-.92.33-.46.17-1.56.47-1.02,1.18.19.25.54.36.83.42s.72.03.97.22c.44.34.26.74,0,1.07-.34.42-1,.86-.89,1.49.13.77,1.21.81,1.74,1.15.8.52.12,1.24.09,1.94-.02.4.19.71.5.95.42.32.94.4,1.43.57.96.34,1.07,1.03,1.54,1.8.66,1.08,1.86,1.68,2.96,2.22.09.05.33-.08.21-.14-1.01-.5-2.12-1.04-2.79-1.99-.56-.8-.64-1.64-1.65-2.02-.53-.2-1.13-.26-1.56-.66-.68-.63-.13-1.19-.05-1.92.06-.6-.36-.89-.86-1.09-.36-.15-.84-.23-1.11-.53-.42-.47-.01-.98.33-1.35.3-.33.8-.75.64-1.25-.08-.25-.28-.39-.51-.49-.14-.06-.3-.08-.45-.1-.14-.02-.28-.02-.41-.06-.17,0-.32-.07-.45-.19-.33-.09-.35-.26-.07-.53.22-.45.4-.45.84-.6.26-.09.53-.18.79-.28s.47-.16.57-.43c.15-.39.02-.86.18-1.28.33-.88,1.1-1.4,2.03-1.48,1.25-.11,2.74.04,3.94.37,1.25.35,2.07,1.12,3.02,1.94.64.55,1.3.98,2.14,1.13.42.07.87.06,1.26.25.19.09.36.19.5.37.26.35.16.36-.17.7-.4.42-.43.35-.89.21-.21-.06-.41-.13-.62-.18-.46-.1-.94-.12-1.31.21-.23.21-.35.51-.48.78-.08.18-.18.48-.34.59-.4.29-.88.14-1.31.07-.45-.08-.99-.09-1.22.4-.13.28-.05.58.03.86.19.72.39,1.1-.21,1.72-.56.58-.92,1.23-.67,2.08.18.61.81.91.59,1.62-.13.41-.5.65-.58,1.13-.14.85.28,1.69,1.01,2.11.09.05.33-.07.21-.14h0Z"/>
  </g>
  <g>
    <path d="M375.29,476.73c-.09-1.35-2.08-1.4-3.17-2.22-.82-.62-1.16-1.8-2.1-2.25-.67-.32-1.6-.23-2.01-.85-.24-.36-.21-.83-.36-1.24-.57-1.56-3.28-1.38-3.79-2.95-.46-1.42,1.34-3.07.47-4.28-.27-.38-.75-.58-.97-.99-.44-.82.43-1.71,1.19-2.25,1.07-.75,2.13-1.49,3.2-2.24-2.33-1.28-5.04-1.86-7.69-1.66-.97.07-1.99.27-2.74.89s-1.14,1.77-.64,2.61c.15.25.36.45.47.72.47,1.17-1.3,2.65-.42,3.55.2.21.51.3.7.52.57.63-.1,1.75.37,2.46.41.62,1.37.5,1.96.95.35.27.52.72.78,1.08.36.51.89.86,1.42,1.2,1.48.96,2.96,1.93,4.44,2.89,1.05.68,2.19,1.39,3.43,1.33.75,2.24,3.47,3.59,5.71,2.84"/>
    <path d="M375.43,476.7c-.14-.89-.93-1.21-1.68-1.51-.56-.22-1.14-.41-1.6-.81s-.76-.96-1.16-1.44c-.31-.37-.65-.66-1.11-.83-.92-.33-1.57-.22-1.94-1.33-.32-.96-.51-1.38-1.46-1.85-.87-.43-2.13-.7-2.48-1.74-.39-1.18.66-2.25.71-3.4.05-1.39-2.05-1.67-.98-3.2.46-.66,1.25-1.09,1.9-1.54.75-.52,1.49-1.05,2.24-1.57.01,0,.05-.04.02-.06-2.69-1.43-6.42-2.37-9.43-1.38-1.02.34-1.96,1.06-2.1,2.2-.11.89.51,1.17.7,1.92s-.29,1.42-.53,2.08c-.14.39-.27.82-.05,1.2.18.31.56.43.79.69.39.45.26.87.24,1.44-.07,1.76,1.38,1.18,2.33,2.15.53.54.73,1.17,1.36,1.65.85.65,1.8,1.19,2.69,1.78,1.5.97,3.08,2.35,4.85,2.79.19.05.55.05.71.11.43.17.51.6.75.95.43.64,1.03,1.15,1.7,1.51,1.14.61,2.44.73,3.67.37.15-.05.13-.15-.03-.1-2.28.68-4.74-.63-5.57-2.83-.01-.03-.05-.03-.08-.03-1.55-.01-2.8-.95-4.05-1.76-1.25-.82-2.51-1.62-3.76-2.45-.43-.28-.88-.57-1.22-.96-.31-.35-.47-.81-.78-1.14-.61-.64-1.91-.45-2.25-1.35-.28-.73.28-1.59-.27-2.25-.33-.4-.85-.45-.94-1.03-.07-.49.27-1.04.45-1.47.27-.66.41-1.16.08-1.82s-.69-1.02-.47-1.83c.3-1.13,1.35-1.67,2.42-1.9,1.33-.29,2.81-.2,4.14.02.63.1,4.18.71,4.1,1.67-.02.19-1.42.99-1.6,1.12-.51.36-1.05.69-1.54,1.09-.56.46-1.29,1.17-1.01,1.97.31.89,1.39,1.06,1.23,2.21-.12.86-.67,1.6-.75,2.47-.15,1.75,1.82,2,2.97,2.71.39.24.71.53.89.97.2.5.12,1.06.55,1.45.35.32.88.35,1.31.48.63.19,1.04.49,1.44,1,.62.8,1.07,1.46,2.02,1.88.89.39,2.14.61,2.32,1.74.01.07.28,0,.27-.07h0Z"/>
  </g>
  <g>
    <path d="M372.85,479.02c-1.54,1.01-3.8.73-5.04-.64-.41-.46-.72-1.01-1.18-1.42-1.34-1.19-3.59-.86-4.87-2.11-.7-.68-.95-1.72-1.62-2.43-1.33-1.42-3.87-1.17-5.1-2.67-.32-.38-.52-.86-.91-1.18-.62-.5-1.53-.45-2.19-.89-.87-.58-1.09-1.86-2-2.39-.54-.31-1.26-.31-1.69-.76-.76-.78-.12-2.31-.93-3.03-.32-.28-.78-.35-1.1-.63-.78-.67-.23-1.98.57-2.63,1.01-.82,2.29-1.22,3.53-1.6.29-.09.58-.18.88-.27,1.48-.45,3.28-.84,4.43.2.23.2.42.53.29.8-.07.14-.21.23-.34.32-.99.61-1.97,1.23-2.96,1.84.91.26,1.04,1.48.9,2.41-.14.93-.3,2.07.45,2.65.37.29.94.39,1.14.82.16.33.04.73.1,1.09.19,1.08,1.68,1.16,2.65,1.68.68.37,1.14,1.02,1.67,1.58.61.64,1.33,1.17,2.05,1.7.65.47,1.3.95,1.95,1.42,1.81,1.32,3.63,2.65,5.52,3.85,1.33.85,2.7,1.63,4.1,2.36"/>
    <path d="M372.77,478.97c-1.06.63-2.32.73-3.47.29-1-.39-1.51-1.18-2.17-1.95-.85-.99-2.01-1.22-3.21-1.55-.86-.23-1.69-.54-2.28-1.24-.51-.61-.75-1.4-1.26-2.01-.78-.92-1.97-1.2-3.06-1.57-.8-.27-1.59-.58-2.15-1.24-.41-.48-.64-1.06-1.22-1.38-.79-.44-1.69-.37-2.34-1.1-.45-.52-.67-1.21-1.18-1.68-.34-.32-.71-.44-1.14-.6-1.13-.4-1.25-1.07-1.36-2.12-.05-.49-.1-1-.49-1.36-.67-.63-1.66-.67-1.38-1.89.5-2.11,3.88-2.75,5.67-3.24.52-.14,1.06-.26,1.6-.29.34-.02.67,0,1,.07.69.15.88.23,1.03.95.18.91.15.43-.3.86-.22.21-.58.36-.85.53-.56.35-1.13.7-1.69,1.05-.07.04-.06.11,0,.14,1.45.61.68,2.49.73,3.64.04.97.43,1.16,1.1,1.7.78.63.45,1.72,1.2,2.34.82.68,1.96.69,2.78,1.41.96.84,1.73,1.79,2.76,2.56,1.28.95,2.57,1.89,3.86,2.82,2.59,1.87,5.24,3.6,8.07,5.08.09.05.33-.08.21-.15-3.55-1.85-6.79-4.14-10.01-6.5-1.58-1.15-2.99-2.3-4.37-3.68-.36-.36-.72-.65-1.18-.87-.69-.32-1.68-.41-2.16-1.07-.4-.55,0-1.25-.46-1.78-.48-.55-1.18-.48-1.45-1.31-.39-1.19.44-2.48-.13-3.65-.25-.51-.55-.39-.36-.84.09-.23,1.05-.65,1.27-.79.41-.25.89-.49,1.27-.79.75-.61.27-1.25-.5-1.62-.9-.44-1.97-.31-2.92-.11-1.51.33-3.16.79-4.53,1.52-.83.44-1.68,1.06-1.92,2.03-.42,1.65,1.47,1.42,1.81,2.71.28,1.04-.08,2.11,1.07,2.66.7.34,1.31.39,1.83,1.05.4.5.62,1.14,1.11,1.57.46.41.99.47,1.55.67,1.08.4,1.26,1.09,2,1.8.88.86,2.17,1.05,3.28,1.48,1,.38,1.67.94,2.22,1.86.37.64.67,1.3,1.27,1.76,1.27.98,3.07.76,4.36,1.69.7.5,1.05,1.3,1.69,1.87.52.47,1.17.78,1.85.92,1.1.24,2.18.02,3.14-.55.15-.09-.07-.17-.17-.11h0Z"/>
  </g>
  <g>
    <path d="M353.4,471.66c.53-.48.08-1.4-.55-1.73-.63-.33-1.39-.37-1.99-.76-.77-.51-1.07-1.5-1.73-2.15-.7-.68-1.72-.9-2.6-1.33-.88-.42-1.74-1.29-1.53-2.25.11-.51.5-1.09.18-1.5-.33-.42-1.12-.23-1.42-.67-.33-.5.33-1.14.22-1.73-.07-.4-.47-.65-.87-.74-1.35-.3-2.6.75-3.6,1.72-1.16,1.13-2.31,2.26-3.47,3.39-.08.08-.16.16-.22.26-.25.44.21,1.01.71,1.1s1-.13,1.49-.28c.49-.15,1.06-.22,1.46.09.4.32.46.9.77,1.31.75,1,2.4.47,3.51,1.04.69.36,1.1,1.11,1.79,1.46.71.35,1.55.22,2.32.42,1.07.28,1.85,1.17,2.69,1.88.85.71,2.03,1.29,3.03.82"/>
    <path d="M353.51,471.7c.31-.38.32-.78.08-1.22-.41-.73-1.21-.82-1.93-1.08-1.08-.38-1.43-1.21-2.08-2.06-.52-.67-1.22-1.02-1.98-1.33-1.01-.41-2.52-.98-2.5-2.32,0-.62.66-1.36.11-1.9-.17-.17-.4-.16-.6-.26-1.12-.57-.7-.73-.53-1.54.12-.58-.11-.98-.65-1.21-1.4-.59-2.87.61-3.82,1.5-.82.78-1.62,1.58-2.43,2.37-.47.46-1.64,1.15-1.53,1.91.06.41.47.71.85.79,1.14.25,2.5-1.17,3.28.37.28.55.46.99,1.07,1.23.77.31,1.65.16,2.44.4,1.02.31,1.48,1.38,2.48,1.74.43.15.9.16,1.34.2.72.07,1.3.28,1.89.7,1.41,1.01,2.72,2.84,4.67,2.1.17-.06.02-.22-.12-.16-2,.76-3.34-1.58-4.83-2.4-.58-.32-1.16-.4-1.82-.46-1.12-.1-1.62-.55-2.41-1.26-1.06-.96-2.27-.54-3.49-1.03-.84-.34-.77-1.25-1.39-1.76-.3-.25-.69-.28-1.07-.25-.29.03-.55.15-.84.21-.66.14-2.34.22-1.55-1.03.22-.35.69-.68.99-.97.41-.4.83-.81,1.24-1.21.67-.66,1.33-1.36,2.06-1.95.35-.29.74-.56,1.16-.74.76-.33,2.37-.41,2.19.91-.06.43-.44.88-.17,1.32s.78.27,1.15.51c.76.49-.04,1.48.07,2.18.09.59.53,1.08.99,1.43.63.47,1.4.67,2.1.99.93.43,1.41,1.09,1.96,1.9.36.53.75.94,1.35,1.19.41.17.86.23,1.27.41.59.26,1.33,1.02.75,1.71-.11.13.14.18.22.08h0Z"/>
  </g>
  <g>
    <path d="M343.36,469.3c-.69-.97-2.28-.39-3.32-.96-.64-.35-1.03-1.14-1.74-1.27-.86-.16-1.79.71-2.53.26-.5-.31-.59-1.07-1.11-1.33-.48-.24-1.04.07-1.47.39-1.47,1.1-2.75,2.44-3.77,3.96-.11.17-.23.35-.24.56-.01.46.56.76,1.01.64s.77-.5,1.04-.87c.27-.37.55-.77.97-.96,1.24-.56,2.66,1.01,3.93.53.39-.15.7-.47,1.11-.56.94-.19,1.77,1,2.71.78.35-.08.61-.34.92-.52.51-.29,1.14-.34,1.68-.13.26.1.5.25.77.25s.57-.25.48-.51"/>
    <path d="M343.49,469.25c-.73-.89-1.97-.53-2.95-.82-1.09-.33-1.51-1.65-2.8-1.42-.76.14-1.61.71-2.21-.1-.3-.41-.45-.93-1.01-1.05-1.02-.22-2.14,1.02-2.79,1.63-.55.51-1.06,1.06-1.54,1.64-.36.44-.97,1.05-1.12,1.61-.24.91.93,1.09,1.51.74.48-.29.72-.81,1.1-1.21.84-.9,1.7-.47,2.65-.11.43.16.87.31,1.33.28.74-.04,1.33-.78,2.09-.6.58.14,1.03.61,1.62.73s.94-.15,1.39-.44c.65-.4,1.29-.37,1.99-.1.24.09.46.17.72.1.31-.08.49-.3.46-.61,0-.11-.28-.05-.27.07l-.33.15c-.17.18-.34.2-.52.07-.1-.02-.2-.08-.29-.11-.18-.06-.37-.09-.57-.1-.4-.01-.8.09-1.15.28-.3.16-.44.27-.78.39-.49.17-.74.06-1.17-.16-.38-.2-.76-.46-1.2-.52-.24-.03-.46,0-.68.09-.21.08-.37.22-.57.32-.51.25-.91.29-1.45.13-.78-.22-1.56-.74-2.4-.61-.31.05-.58.19-.82.39-.38.33-.59.92-1,1.19l-.56.13c-.39.27-.67.2-.84-.2-.04-.14.09-.46.15-.59.15-.3.42-.61.62-.88.41-.53.84-1.03,1.31-1.51s.95-.91,1.46-1.32c.47-.37,1.28-1.08,1.93-.49.17.16.27.4.39.59.41.65.92.78,1.64.59.25-.07.49-.17.75-.24.61-.16,1.07.06,1.5.46.33.31.62.64,1.05.82.99.43,2.36-.06,3.12.86.07.08.33-.02.25-.11h0Z"/>
  </g>
  <path d="M393.18,500.48c1.09.6-6.45,3.89-6.43,2.65.02-1.24-1.52-5.27-2.43-6.12-.9-.85,5.78,3.86,5.34-2.14,1.1-.69,2.48,3.28,3.74,2.97,1.64-.41-.59-3.01-1.27-4.55s-.64-2.12-1.41-3.63c-.29-.57.84-1.69,1.4-1.99.21-.11.46-.1.7-.13,1.04-.12,1.9-.98,2.25-1.97.35-.99-2.74-2.64-3.02-3.66-.48-1.73-.1-3.05-1.47-4.21-.55-.47.44-.6.11-1.24s-.18-1.59.49-1.85c.4-.15.84-.02,1.24.12,1.83.64,3.66,1.41,5.06,2.74,1.41,1.33,2.33,3.31,1.94,5.2-.15.75-.51,1.48-.4,2.24.13.95.94,1.66,1.22,2.57.56,1.84-1.15,3.88-.42,5.66.23.56.67,1,.93,1.54.47.96.31,2.2-.4,3.01-.43.48-1.01.8-1.44,1.29-1.59,1.81-.22,4.79-1.23,6.98"/>
  <path d="M381.69,460.03c-1.09.06-1.97-.82-2.86-1.46-1.38-1-3.09-1.54-4.79-1.51-1.29.02-2.6.35-3.84.02-.72-.19-1.36-.59-2.02-.94-2.3-1.2-4.95-1.72-7.53-1.49-.55.05-1.12.13-1.66.01-.64-.14-1.19-.56-1.78-.85-1.35-.67-3-.69-4.37-.05-2.02.95-3.58,3.26-5.79,3.02-1.65-.18-3.33-1.78-4.71-.87-.65.42-.89,1.26-1.47,1.78-1.23,1.11-3.36.36-4.7,1.34-1.1.81-1.23,2.48-2.28,3.35-.69.57-1.65.68-2.48,1.04s-1.6,1.26-1.25,2.09l-.69,1.11c-4.53,3.48-5.54,14.4-4.62,14s5.28-7.37,5.49-8.35c1.34-6.16,7.05-8.81,8.68-9.27,1.47-.41,3.06-.55,4.37-1.34.83-.5,2.3.4,3.25.2,1.28-.27,1.9-1.11,3.14-1.52.66-.22,1.5.89,1.99.41,1.3-1.26,3.6-1.06,5.39-.75,1.51.27,1.81-1.45,3.33-1.3,1,.1,1.49,1.88,2.49,1.75,1.44-.19,2.47-.22,3.87.16,2.43.65,5.77-.48,8.2.17,1.63.44,3,2.99,4.38,3.95,2.01,1.39,3.71,1.71,6.09,2.22.78-1.41.75-3.23-.08-4.62-.83-1.38-2.42-2.27-4.03-2.25"/>
  <path d="M384.83,461.69c.14-1.25-.54-2.41-1.7-2.92-.51-.22-1.03-.27-1.58-.24-.5.03-.84.13-1.33-.04s-.65-.49-.97-.87c-1.78-2.15-4.19-1.99-6.62-1.28-.77.22-1.12.12-1.75-.42-.53-.45-.97-.99-1.48-1.45-.97-.87-2.19-1.31-3.48-1.34s-2.52.27-3.62.85c-.54.28-1.02.65-1.49,1.03s-1.13,1.13-1.76,1.26c-.25.05-1.22.24-1.24.59s.63.27.86.23c1.04-.22,1.97-.59,2.84-1.22,1.19-.87,2.16-2.11,3.79-1.77,2.32.48,3.27,3.39,5.7,3.41,1.21.01,2.26-.87,3.44-.8,1.5.09,2.24,1.08,3.16,2.09.78.87,1.63.71,2.69.66,1.58-.08,2.61,1.31,2.44,2.81-.03.3,2.05.09,2.13-.57h0Z"/>
  <path class="cls-10" d="M314.2,892.65c12.71,1.32,13.19-1.99,19.29-1.55,6.1.44,12.36,10.21,22.86,4.91,10.5-5.3,17.27-7.07,25.39-1.77,8.13,5.3,16.24,4.55,23.59,0,13.61-8.43,15.02-2.14,22.76-9.26.07,9.96.22,17.44.54,21.36-8.24,7.96-9.37,1.12-23.3,9.75-7.35,4.55-15.46,5.3-23.59,0-8.13-5.3-14.9-3.54-25.39,1.77-10.5,5.3-16.77-4.46-22.86-4.91-6.09-.44-6.58,2.86-19.29,1.55-10.81-1.12-6.8-11.47-13.24-11.03.23-7.27.4-14.55.55-21.84,5.62.21,2.22,9.92,12.69,11.01Z"/>
  <g>
    <path class="cls-4" d="M303,864.37c5.62.21.73,9.92,11.2,11.01,12.71,1.32,13.19-1.99,19.29-1.55,6.1.44,12.36,10.21,22.86,4.91,10.5-5.3,17.27-7.07,25.39-1.77,8.13,5.3,16.24,4.55,23.59,0,13.61-8.43,13.9-1.78,21.64-8.9"/>
    <path class="cls-4" d="M426.93,878.27c-8.24,7.96-7.66-.19-21.59,8.44-7.35,4.55-15.46,5.3-23.59,0-8.13-5.3-14.9-3.54-25.39,1.77-10.5,5.3-16.77-4.46-22.86-4.91-6.09-.44-6.58,2.86-19.29,1.55-10.81-1.12-4.53-10.22-10.96-9.77"/>
  </g>
  <path class="cls-11" d="M356.83,567.29c6.12.51,12.55-1.99,17.95-4.62,2.82-1.37,5.59-2.95,8.05-4.91,2.35-1.86,4.57-3.94,6.75-5.99.57-.54,1.24-1.07,1.7-1.72.06-.08.01-.19-.06-.24-1.88-1.19-3.75-2.39-5.63-3.58-.17-.11-.49-.04-.61.11-4.61,5.65-11.03,10.38-17.7,13.23-3.27,1.4-6.72,2.31-10.27,2.61-.41.03-.6.56-.08.51,10.37-.88,19.78-6.83,26.88-14.18.62-.64,1.23-1.29,1.8-1.98l-.61.11c1.73,1.1,3.46,2.2,5.19,3.3.1.06.24.19.35.22.2.06-.01-.13.06-.24-.03.04-.09.14-.13.15-.4.18-.87.88-1.19,1.18-2.58,2.46-5.23,5-8.13,7.07-3.35,2.4-7.1,4.28-10.93,5.78-4.09,1.6-8.67,3.02-13.11,2.65-.35-.03-.79.47-.27.51h0Z"/>
  <path class="cls-11" d="M343.58,559.66c-1.57-.68-2.84-1.85-3.23-3.56-.26-1.13-.14-2.33.18-3.44.43-1.47,1.24-2.84,1.9-4.21.08-.17-.47-.05-.51-.03-1.03.4-2.06.8-3.08,1.19-.59.23-1.17.45-1.76.68-.22.09-.51.15-.67.34-.27.32-.41.96-.53,1.35-.29.9-.47,1.84-.54,2.78-.17,2.38.6,4.56,1.94,6.5,1.34,1.94,3.25,3.11,5.47,3.84.18.06.86-.23.62-.31-1.93-.64-3.69-1.62-4.96-3.24-1.36-1.72-2.27-3.81-2.33-6.01-.03-1.04.11-2.09.38-3.09.16-.6.46-1.17.62-1.76.08-.29.15-.1-.13-.05.12-.02.25-.1.36-.14l1.58-.61c1.1-.43,2.2-.85,3.31-1.28l-.51-.03c-.7,1.46-1.58,2.92-1.98,4.51-.29,1.14-.37,2.37-.04,3.51.48,1.64,1.76,2.71,3.29,3.37.17.07.86-.2.62-.31h0Z"/>
  <path class="cls-11" d="M356.58,562.49c-2.12,9.18-4.25,18.36-6.37,27.54-.31,1.32-.61,2.64-.92,3.96l.52-.29c-1.51,0-3.02,0-4.53,0l.24.21c1.97-9.26,3.95-18.52,5.92-27.78.28-1.32.56-2.63.84-3.95l-.52.29c1.68.08,3.37.16,5.05.24.33.02.79-.48.28-.5-1.68-.08-3.37-.16-5.05-.24-.18,0-.48.07-.52.29-1.97,9.26-3.95,18.52-5.92,27.78-.28,1.32-.56,2.63-.84,3.95-.03.13.14.21.24.21,1.51,0,3.02,0,4.53,0,.19,0,.47-.07.52-.29,2.12-9.18,4.25-18.36,6.37-27.54.31-1.32.61-2.64.92-3.96.08-.33-.7-.23-.77.07Z"/>
  <path class="cls-11" d="M343.27,559.5c.44,10.07.87,20.15,1.31,30.22.06,1.44.12,2.88.19,4.32,0,.15.72-.01.76-.17,1.02-4.78,2.04-9.56,3.06-14.33.29-1.36.81-2.85.89-4.24.04-.79-.12-1.64-.18-2.43l-.33-4.45c-.18-2.47-.36-4.94-.55-7.42-.01-.03-.04-.04-.07-.05-1.46-.57-2.92-1.14-4.39-1.71-.17-.07-.85.21-.62.3,1.3.51,2.6,1.01,3.9,1.52.37.14.34.1.43.28.14.32.07.95.1,1.29l.72,9.83c.12,1.68.26,2.9-.08,4.48l-2.03,9.5c-.54,2.52-1.07,5.03-1.61,7.55l.76-.17c-.44-10.07-.87-20.15-1.31-30.22-.06-1.44-.12-2.88-.19-4.32,0-.13-.77-.01-.76.2Z"/>
  <path class="cls-36" d="M332.57,516.62c.1,2.66-4.73,8.82-4.73,8.82,0,0,.76,16.28-.5,19.64-1.31,3.49-4.32,3.98-5.61,6.27-3.93,6.98-5.63,14.34-5.63,14.34l-16.16-6.02,5.6-13.33-.91-17.27,1.23-16.43,11.85-10.1c.1.05.19.1.28.16.8.55.9,1.56.23,2.24l4.61-3.47c3.35,2.01-1.37,7.79-1.37,7.79l5.58-4.9c2.9,2.34-.42,6.47-.42,6.47l-5.67,7.47s-.34,5.12.11,6.81.75,3.48.75,3.48l1.4-5.68,7.78-9.98s1.47,1.05,1.58,3.71Z"/>
  <path class="cls-25" d="M317.41,502.69c.9.52,1.1,1.42.46,2.22-.22.28.52.14.63.06,1.54-1.16,3.08-2.31,4.61-3.47l-.58.12c2.68,1.77.02,5.84-1.42,7.61-.21.27.51.16.63.06,1.86-1.63,3.72-3.26,5.58-4.9l-.63.08c3.02,2.68-.55,6.49-2.3,8.8-1.12,1.48-2.24,2.96-3.37,4.43-.72.95-.53,2.05-.56,3.23s-.06,2.45.11,3.65c.2,1.36.63,2.69.86,4.06.04.26.68.04.72-.14.41-1.66.82-3.31,1.23-4.97.24-.96.87-1.58,1.55-2.45,2.13-2.73,4.26-5.46,6.39-8.19l-.67.14c1.09.81,1.6,2.52,1.54,3.82-.07,1.61-1.1,3.21-1.91,4.54-.75,1.24-1.58,2.43-2.45,3.59-.3.4-.34.46-.34.92.03,5.61.53,11.25-.07,16.85-.18,1.65-.55,3.11-1.67,4.42-1.31,1.54-3.29,2.38-4.37,4.14-.17.28.55.21.67.01,1-1.64,2.82-2.47,4.11-3.85,1-1.08,1.61-2.35,1.84-3.78.49-2.99.42-6.1.41-9.12,0-2.82-.08-5.64-.19-8.46-.03-.68-.12-.64.23-1.07.92-1.13,1.73-2.4,2.49-3.64.83-1.36,1.89-3.03,1.97-4.68.06-1.34-.46-3.13-1.6-3.98-.19-.14-.54-.04-.67.14-2.17,2.78-4.34,5.56-6.51,8.34-.61.78-1.22,1.37-1.46,2.32-.41,1.68-.83,3.36-1.24,5.04l.72-.14c-.21-1.23-.54-2.43-.79-3.65-.24-1.19-.21-2.46-.19-3.67.01-.85-.11-1.95.11-2.78.06-.21.33-.54.54-.81,1.79-2.35,3.68-4.65,5.36-7.08,1.32-1.9,2.15-4.52.17-6.28-.16-.14-.49-.04-.63.08-1.86,1.63-3.72,3.26-5.58,4.9l.63.06c1.56-1.93,4.19-6.08,1.32-7.97-.16-.11-.45.02-.58.12-1.54,1.16-3.08,2.31-4.61,3.47l.63.06c.76-.96.48-1.98-.56-2.58-.2-.12-.87.18-.58.35h0Z"/>
  <path class="cls-25" d="M320.97,508.83c-.99,1.2-1.72,2.57-2.57,3.87-.9,1.37-2.07,2.46-3.11,3.71-1.07,1.3-1.2,2.67-1.28,4.3-.11,2.11-.21,4.22-.32,6.32,0,.1.71.02.72-.19.1-1.93.2-3.85.29-5.78.05-.95.03-1.94.26-2.87.2-.82.65-1.45,1.19-2.08.94-1.1,1.98-2.09,2.8-3.29.91-1.34,1.64-2.79,2.68-4.05.14-.17-.54-.08-.66.06h0Z"/>
  <path class="cls-25" d="M309.66,524.36c.11-2.11.23-4.22.34-6.33.06-1.05.11-2.11.17-3.16.06-1.15-.03-2.1.9-2.93,2.69-2.44,5.09-5.24,7.87-7.58.3-.25-.41-.21-.57-.08-1.42,1.19-2.7,2.53-3.99,3.86s-2.82,2.61-4.16,3.97c-.6.61-.68,1.24-.73,2.07-.06,1.12-.12,2.24-.18,3.36-.12,2.31-.25,4.61-.37,6.92-.01.25.71.1.72-.11h0Z"/>
  <path class="cls-36" d="M349.47,521.14c-.08,2.66,4.8,8.79,4.8,8.79,0,0-.62,16.29.66,19.64,1.33,3.48,4.35,3.96,5.66,6.24,3.99,6.95,5.75,14.3,5.75,14.3l14.82-5.62-4.42-13.79.77-17.27-1.37-16.43-11.93-10.03c-.1.05-.19.1-.28.16-.79.56-.89,1.56-.21,2.24l-4.64-3.44c-3.33,2.03,1.43,7.79,1.43,7.79l-5.62-4.86c-2.88,2.36.47,6.46.47,6.46l5.73,7.43s.39,5.12-.05,6.81c-.44,1.69-.72,3.48-.72,3.48l-1.45-5.68-7.86-9.93s-1.47,1.06-1.55,3.72Z"/>
  <path class="cls-25" d="M367.01,574.33c-.68-3.85-1.68-7.67-2.92-11.37-.87-2.57-1.8-5.55-3.45-7.75-1.65-2.19-4.37-3.01-5.36-5.8-.54-1.52-.56-3.27-.65-4.86-.13-2.32-.15-4.65-.14-6.97,0-1.97.04-3.94.09-5.91.02-.65.2-1.45-.09-2.02-.41-.81-1.17-1.56-1.69-2.31-.76-1.1-1.48-2.24-2.08-3.44-.98-1.96-1.47-4.92.57-6.46l-.62.11c2.14,2.71,4.29,5.41,6.43,8.12.68.85,1.34,1.49,1.6,2.5.42,1.65.84,3.31,1.27,4.96.04.17.7,0,.72-.16.37-2.27.95-4.35.93-6.67-.01-1.14.25-2.91-.35-3.91-.87-1.44-2.11-2.74-3.14-4.07-.8-1.04-1.62-2.08-2.42-3.13-1.38-1.84-2.51-4.54-.48-6.36l-.67.15c1.87,1.62,3.74,3.24,5.62,4.86.13.12.81-.1.68-.25-1.44-1.75-4.16-5.86-1.49-7.64l-.62.11c1.55,1.15,3.09,2.29,4.64,3.44.13.1.81-.09.68-.25-.65-.81-.47-1.74.43-2.26l-.62.11c2.67,2.25,5.35,4.5,8.02,6.75,1.17.99,2.69,1.94,3.69,3.11.36.42.25,1.21.29,1.87l.67,12.77c.13,2.49.44,5.04.36,7.54-.13,3.89-.35,7.78-.52,11.67,0,.12.71.03.72-.19.16-3.59.32-7.17.48-10.76.1-2.29-.11-4.57-.23-6.85-.23-4.48-.47-8.95-.7-13.43-.03-.65-.07-1.31-.1-1.96,0-.19.04-.54-.05-.71-.12-.23-.54-.46-.73-.62l-1.91-1.61c-3.1-2.61-6.21-5.22-9.31-7.83-.15-.12-.49.03-.62.11-1.03.6-1.32,1.6-.55,2.55l.68-.25c-1.55-1.15-3.09-2.29-4.64-3.44-.15-.11-.49.02-.62.11-2.86,1.92-.21,6,1.37,7.93l.68-.25c-1.87-1.62-3.74-3.24-5.62-4.86-.15-.13-.55.04-.67.15-2.81,2.53-.05,5.91,1.69,8.16l3.58,4.65c.26.34.76.78.91,1.18.17.46.08,1.39.1,1.92.06,1.35.12,2.72-.03,4.06-.16,1.43-.62,2.83-.85,4.25l.72-.16c-.44-1.7-.87-3.41-1.31-5.11-.23-.9-.9-1.52-1.48-2.25-2.18-2.76-4.36-5.51-6.55-8.27-.1-.13-.52.04-.62.11-1.32.99-1.88,3.11-1.53,4.66.5,2.2,2.02,4.27,3.3,6.08.52.73,1.38,1.46,1.38,2.31,0,1.54-.09,3.09-.11,4.63-.06,4.35-.26,8.89.45,13.2.38,2.28,1.74,3.87,3.54,5.24,1.14.87,2.07,1.66,2.77,2.94s1.31,2.66,1.85,4.04c1.76,4.5,3.04,9.26,3.89,14.02.03.16.76,0,.72-.19h0Z"/>
  <path class="cls-25" d="M359.85,513.21c.96,1.11,1.88,2.25,2.86,3.34s2.11,2.15,3.05,3.33c1.06,1.33,1.02,2.95,1.12,4.57.11,1.91.23,3.81.34,5.72.01.22.74.07.72-.19-.11-1.91-.23-3.81-.34-5.72-.09-1.55-.05-3.17-1.03-4.48-.89-1.19-2.01-2.2-3-3.3-1.04-1.16-2.03-2.37-3.05-3.55-.16-.18-.85.07-.67.28h0Z"/>
  <path class="cls-25" d="M372.66,527.43c-.12-1.96-.24-3.93-.37-5.89l-.18-2.95c-.06-.89.07-2.08-.35-2.89-.35-.68-1.09-1.14-1.67-1.6-.76-.62-1.52-1.23-2.28-1.85-1.57-1.27-3.13-2.54-4.7-3.82-.18-.15-.85.13-.68.27,1.52,1.23,3.04,2.47,4.56,3.7.76.62,1.52,1.23,2.28,1.85.65.53,1.6,1.08,1.87,1.92.26.79.18,1.78.23,2.61l.18,2.95c.12,1.96.24,3.93.37,5.89.01.2.74.06.72-.19h0Z"/>
  <path class="cls-29" d="M383.43,556.91l23.36,54.52c1.8,3.99,9.95,2.17,10.23,6.54.19,3.07-3.07,16.98-6.47,20.94-4,4.66-7.51,3.81-13.56,4.86-.14.02,6.31,2.93,6.18,2.96-5.63,1.52-18.5-2.79-22-9.62-8.67-16.91-20.98-68.67-20.98-68.67l23.24-11.53Z"/>
  <path class="cls-11" d="M403.62,643.08c-5.25,1.38-11.38-.06-15.95-2.77-3.42-2.03-6.21-4.99-8.17-8.45-1.72-3.05-2.78-6.47-3.9-9.77-4.73-13.95-8.71-28.16-12.64-42.35-1.01-3.66-2.02-7.32-3-10.98l-.23.25c6.78-3.36,13.56-6.72,20.34-10.08.97-.48,1.94-.96,2.91-1.44l-.53-.05c2.45,5.54,4.9,11.08,7.35,16.62,3.91,8.83,7.81,17.66,11.72,26.49.9,2.03,1.79,4.06,2.69,6.09.11.26.86.02.76-.2-2.45-5.54-4.9-11.08-7.35-16.62-3.91-8.83-7.81-17.66-11.72-26.49-.9-2.03-1.79-4.06-2.69-6.09-.08-.18-.4-.11-.53-.05-6.78,3.36-13.56,6.72-20.34,10.08-.97.48-1.94.96-2.91,1.44-.08.04-.26.13-.23.25,2.71,10.17,5.56,20.31,8.52,30.42,2.2,7.5,4.45,15,6.95,22.4,1.15,3.42,2.23,6.97,3.98,10.13,1.84,3.32,4.41,6.18,7.59,8.25,4.92,3.21,11.69,4.81,17.48,3.28.46-.12.36-.49-.1-.37h0Z"/>
  <path class="cls-29" d="M297.99,556.73l-11.45,39.25c-1.78,4.01-6.03,19.16-6.28,23.54-.3,5.34.82,9.12,2.16,11.38,1.14,1.95,1.99,7.56,10.98,9.02,5.64,1.48,12.14.29,15.6-6.56,8.55-16.98,10.3-71.14,10.3-71.14l-21.31-5.48Z"/>
  <path class="cls-11" d="M309.37,633.29c2.12-4.25,3.28-8.99,4.28-13.61,1.27-5.9,2.16-11.87,2.91-17.86,1.38-11.03,2.23-22.13,2.81-33.23.12-2.31.23-4.63.31-6.94,0-.11-.75-.02-.76.2-.21,6.45-.61,12.9-1.09,19.33-.91,12.23-2.09,24.52-4.5,36.56-1.06,5.31-2.27,10.81-4.71,15.68-.05.11.65.06.75-.13h0Z"/>
</svg>