<?xml version="1.0" encoding="UTF-8"?>
<svg id="Layer_15" data-name="Layer 15" xmlns="http://www.w3.org/2000/svg" xmlns:xlink="http://www.w3.org/1999/xlink" viewBox="0 0 991.05 991.05">
  <defs>
    <style>
      .cls-1, .cls-2, .cls-3, .cls-4, .cls-5, .cls-6 {
        fill: none;
      }

      .cls-7 {
        fill: #151312;
      }

      .cls-2, .cls-8, .cls-3, .cls-4, .cls-5, .cls-6 {
        stroke-miterlimit: 10;
      }

      .cls-2, .cls-4, .cls-5 {
        stroke: #4a3027;
      }

      .cls-8 {
        stroke: #000;
        stroke-width: .13px;
      }

      .cls-9 {
        fill: #010101;
      }

      .cls-10 {
        fill: #110e0d;
      }

      .cls-11 {
        fill: #7f3a24;
      }

      .cls-12 {
        fill: #9a5a31;
      }

      .cls-13 {
        fill: #7d6432;
      }

      .cls-14 {
        fill: url(#linear-gradient-2);
      }

      .cls-15 {
        fill: #161514;
      }

      .cls-16 {
        fill: #a1a1a1;
      }

      .cls-17 {
        fill: #a15430;
      }

      .cls-18 {
        fill: #425a2e;
      }

      .cls-19 {
        fill: #dac290;
      }

      .cls-20 {
        fill: url(#linear-gradient);
      }

      .cls-21 {
        fill: #090808;
      }

      .cls-22 {
        fill: #181513;
      }

      .cls-23 {
        fill: #49311b;
      }

      .cls-24 {
        fill: #1b1510;
      }

      .cls-25 {
        fill: #5b3e29;
      }

      .cls-26 {
        fill: #4a3027;
      }

      .cls-27 {
        fill: #35221b;
      }

      .cls-28 {
        fill: #f7f7f6;
      }

      .cls-29 {
        fill: #fff;
      }

      .cls-30 {
        fill: #cf8449;
      }

      .cls-3 {
        stroke: #7f3a24;
        stroke-linecap: round;
      }

      .cls-31 {
        fill: #643b29;
      }

      .cls-32 {
        fill: #e0c642;
      }

      .cls-33 {
        fill: #415a31;
      }

      .cls-34 {
        fill: #7f7f7f;
      }

      .cls-35 {
        fill: #efedf5;
      }

      .cls-4 {
        stroke-width: .17px;
      }

      .cls-5 {
        stroke-width: .29px;
      }

      .cls-36 {
        fill: #a56f54;
      }

      .cls-6 {
        stroke: #010101;
        stroke-width: .37px;
      }

      .cls-37 {
        clip-path: url(#clippath);
      }

      .cls-38 {
        fill: #ede6d4;
      }

      .cls-39 {
        fill: #8e584d;
      }

      .cls-40 {
        fill: #334823;
      }
    </style>
    <clipPath id="clippath">
      <circle class="cls-1" cx="495.52" cy="495.52" r="495.52"/>
    </clipPath>
    <linearGradient id="linear-gradient" x1="447.27" y1="1025.45" x2="499.54" y2="-215.72" gradientUnits="userSpaceOnUse">
      <stop offset=".29" stop-color="#c1e2f1"/>
      <stop offset=".81" stop-color="#88c3d8"/>
    </linearGradient>
    <linearGradient id="linear-gradient-2" x1="374.1" y1="1088.32" x2="384.16" y2="849.51" gradientUnits="userSpaceOnUse">
      <stop offset=".01" stop-color="#7c9748"/>
      <stop offset=".98" stop-color="#4f6936"/>
    </linearGradient>
  </defs>
  <g class="cls-37">
    <rect class="cls-20" x="-213.51" y="-29.19" width="1368.8" height="987.83"/>
    <path class="cls-33" d="M1292.86-250.76c1.45,28.75,8.63,57.12,21.26,83.99-42.29-52.18-124.87-80.57-200.25-68.93l77.71-34.45c-26.86-11.52-59.31-10.17-84.58,3.53,16.47-24.21,38.19-45.8,64.11-63.71-39.17-5.59-81.52,14.04-95.59,44.32,10.87-23.33,14.14-48.55,9.5-73.21-11.15,16.98-22.3,33.97-33.45,50.98,1.64-59.27-58.92-115.34-131.44-121.63,7.1-9.71,23.3-10.86,36.87-13.21,14.06-2.44,30.37-11.56,25.06-23-2.63-5.67-9.83-9.04-17.26-8.96-23.4.25-34.86,21.56-56.13,24.75,18.81-20.5,29.57-45.16,30.86-70.72.28-5.84-.7-12.9-9.15-14.4-5.89-1.05-11.92,1.57-14.82,5.87-14.79,21.97-25.48,45.6-31.73,70.1,7.16-28.49-17.02-59.81-51.65-66.87,3.55,23.74,11.23,46.95,22.81,68.93-34.11-42.61-107.78-60.75-165.32-40.71,29.34,12.02,55.9,28.08,78.5,47.48-39.55-7.73-79.99-10-119.78-7.13-21.74-23.14-66.79-59.01-126.57-42.27l68.72,50.19c-2.87.59-5.71,1.26-8.57,1.9-40.91-18.87-92.96-33.06-145.68-20.96l70.97,45.02c-1.19.54-2.38,1.09-3.57,1.65-3.49,1.54-7,3.06-10.44,4.7l9.23-4.11c-44.42,21.46-84.95,62.14-91.78,108.19-8.68-23.19-42.32-37.93-70.88-31.11l58.82,55.77c-4.34-2.28-8.89-4.25-13.57-5.93-24.54-20.69-63.21-41.49-111.49-27.97l68.72,50.19c-2.87.59-5.71,1.26-8.57,1.9-40.91-18.87-92.96-33.06-145.68-20.96l70.97,45.02c-1.19.54-2.38,1.09-3.57,1.65-3.49,1.54-7,3.06-10.44,4.7l9.23-4.11c-44.42,21.46-84.95,62.15-91.78,108.19-8.68-23.19-42.32-37.93-70.88-31.11l58.82,55.77c-18.34-9.66-40.21-14.04-62.08-12.33-4.28.33-8.29,2.42-10.01,5.63-3.04,5.67,2.84,10.18,8.27,13.31,13,7.55,26.93,13.94,41.51,19.2-33.98-8.81-75.33,3.34-92.7,29.13l81.76.54C80.84-48.75,51.01-27.72,37.09.53l85.44-22.18C81.35-.04,54.01,35.26,47.8,74.81l45.74-26.75,17.19,35.74c-45.77-4.87-93.91,16.85-113.1,51.04,34.4-12.14,71.35-18.75,108.83-19.47-42.69,8.94-77.09,34.61-91.74,68.45l82.68-14.36c-42.16,22.03-66.29,60.95-63.03,101.65,20.87-20.6,46.66-37.54,75.81-49.78-22.8,27.02-34.8,59.1-34.37,91.88l72.59-69.41c.13,30.53.27,61.06.43,91.59l54.81-64.84c-10.63,22.71-7.19,48.19,9.23,68.48l40.86-24.92c48.14,9.21,29.14-3.48,71.33,17.52-26.5,20.76-7.67,55.38,3.7,66.84,25.89-15.66,51.81-31.29,77.75-46.89-22.57,20.43-31.19,48.66-23,75.32,15.65-21.35,36.92-39.62,62.27-53.5-17.55,24.4-21.89,53.63-11.99,80.73,22.48-21.93,39.09-47.44,48.76-74.9-1.39,32.43,13.67,63.89,41.63,87.01,1.62-22.31,3.24-44.6,4.86-66.87,11.79,27.89,23.59,55.82,35.42,83.8,20.41-28.93,22.08-64.17,4.47-94.29,29.98-8.93,63.09-7.76,92.01,3.24,35.87,25.93,91.04,22.39,121.48-7.8l9.37-9.29c-10.67,21.66-11.83,45.66-3.29,67.94,8.53-26.12,23.74-50.49,44.62-71.5-10.82,28.01-12.41,57.84-4.6,86.5,28.15-22.73,43.18-54.1,41.37-86.34,10.65,16.05,21.27,32.19,31.87,48.42,10.72-21.95,10.87-46.39.43-68.42,17.96,8.77,32.91,21.1,43.44,35.84,8.97-20.55,3.42-43.44-14.46-59.68l59.1-16.72,22.74,72.21s23.92-5.19,30.3-50.63c2.28-16.27-.99-27.31-6.08-34.87l26.49-7.5c1.07-19.6,2.83-39.16,6.07-58.54,5.46-32.64,15.43-64.43,31.11-93.64,15.83-29.5,35.09-56.88,57.68-81.59,14.92-16.31,31.07-31.47,48.08-45.59,2.73-8.73,5.75-17.38,9.11-25.91,20.32-51.51,51.47-98.14,89.15-138.57,10.53-11.3,21.56-22.11,33-32.48.93-25.99-16.42-52.66-45.07-64.71Z"/>
    <path class="cls-33" d="M262.82,303.05s-13.29,19.58-9.79,49.66l3.5,30.08s61.55-24.48,64.35-68.55c2.8-44.07-58.06-11.19-58.06-11.19Z"/>
    <path class="cls-33" d="M593.89,370.99s-6.57,19.71,17.25,42.71l23.82,23s13.14-50.1-4.93-65.71c-18.07-15.61-36.14,0-36.14,0Z"/>
    <path class="cls-33" d="M949.09,307.64s-6.57,19.71,17.25,42.71l23.82,23s13.14-50.1-4.93-65.71c-18.07-15.61-36.14,0-36.14,0Z"/>
    <path class="cls-36" d="M656.55,572.85c.34-.86-1.57-5.61-2.26-6.05,3.52-5.01,12.41-6.88,18.45-8.49-.43,1.22-2.02,6.22-2.59,7.38-4.16,8.5-10.18,20.85-12.27,25.13-.49,1.01-1.82,1.4-2.78.78-1.34-.86-2.75-2.69-2.16-6.56.83-4.16,2.04-8.23,3.62-12.19Z"/>
    <path class="cls-36" d="M719.73,492.34c-9.56-.11-19.14.4-28.63,1.42-.36-5.85-.59-11.39-.61-16.43-.27-15.72,2.08-56.41,3.25-74.68,1.6-24.84,16.31-52.54,18.47-53.79,0,0,13.63,79.67,9.16,105.44-1.4,8.04-1.78,22.27-1.64,38.03Z"/>
    <path class="cls-36" d="M701.86,466.77c7.3,5.32,25.9,23.38,32.46,29.55-23.32,24.27-72.99,55.76-72.99,55.76l-8.2-3.25c-6.19-5.11,1.62-4.99-6.25-7.22l-1.36-.89,15.45-22.58c9.66-11.42,31.7-40.7,40.89-51.37Z"/>
    <path class="cls-23" d="M676.4,589.16c-2.75-12.63-14.06-21.85-27.21-21.33-14.64.58-26.04,13.02-25.66,27.88h-.02s12.19,307.76,12.19,307.76l6.03-.24-10.05-307.58c-.34-10.39,7.62-19.12,17.85-19.53,9.16-.36,17.04,6.07,18.93,14.88.41,1.92,2.18,3.23,4.11,3.16,2.52-.1,4.38-2.49,3.84-5Z"/>
    <path class="cls-36" d="M631.58,576.94l5.07-23.39c.46-2.13,1.46-4.12,2.95-5.77,4.12-4.58,9.71-10.2,13.32-15.16,5.22-.35,8.69,1.11,13.6,3,3.19,1.23,6.11,2.92,8.82,4.9l-.03.04c-.2.28-.32.59-.34.93-.15,2.22-.09,10.24-2.35,18.1-3.82.91-7.69,1.81-11.26,3.44-4.17,1.91-5.82,3.33-7.78,7.36-.25.51-1.77,2.47-1.47,2.78l-4.7,10.39c-.3.65-.17,1.4.32,1.93,1.81,1.96,5.97,6.97,5.59,11.35-.11,1.31-1.66,2.05-2.86,1.41l-7.65-4.09c-.1-.05-.2-.12-.29-.19l-6.8-5.42c-.27-.21-.47-.49-.58-.81l-3.5-9.85c-.11-.31-.13-.64-.06-.96Z"/>
    <rect class="cls-24" x="614.1" y="896.62" width="14.4" height="10.39" transform="translate(-35.2 25.29) rotate(-2.27)"/>
    <rect class="cls-24" x="616.58" y="887.5" width="8.72" height="10.39" transform="translate(-34.84 25.27) rotate(-2.27)"/>
    <path class="cls-36" d="M797.38,197.45s-5.97-14.46-23.96-18.04c-13.58-2.7-39.46.56-49.02,6.24-13.86,8.22-15.8,23.55-15.8,23.55l88.79-11.74Z"/>
    <path class="cls-22" d="M707.67,894.32s-2.18,2.52-.98,6.92c1.2,4.4,26.11-.03,34.72,1.07,8.61,1.11,43.04,5.53,51.5,3.41,8.46-2.13.65-13.09.65-13.09l-85.89,1.69Z"/>
    <path class="cls-22" d="M858.21,902.3s1.78,1.71,1.87,7.79c.12,8.14-27.5,7.59-34.23,8.14-6.73.55-28.2,5.38-43.35,5.84-15.15.46-31.94-4.31-31.99-13.58-.03-5.02.37-6.96,3.62-8.2,3.25-1.24,94.25-4.9,94.25-4.9l9.83,4.9Z"/>
    <path class="cls-36" d="M848.84,867.51c-.46,5.09,2.92,10.57,6.52,20.72,1.82,5.13,3.62,13.91-1.44,17.19-6.01,3.9-19.81,2.24-23.78,3.15-8.36,1.92-15.37,2.14-23.4,4.71-8.14,2.61-.06,1.46-8.98,1.97-1.23.07-9.37,1.93-10.44,1.37-.72-.38-2.65.08-3.37-.3-2.53-1.32-5.74.39-8.64,0-1.28-.18-2.43-.76-3.62-1.22-3.13-1.22-6.57-1.63-9.89-2.35-3.32-.72-6.7-1.84-8.99-4.12-2.29-2.27-3.15-5.96-1.14-8.44,3.03-3.75,6.9-1.52,10.98-1.85,4.07-.33,5.61-.97,9.21-2.58,9.21-4.13,10.63-4.98,18.39-8.21,6.02-2.51,22.74-8.58,31.25-14.31l-1.4-8.21"/>
    <g>
      <path class="cls-26" d="M784.15,916.49c-1.16-.34-1.6-1.72-1.48-2.82s.79-1.96,1.58-2.63c1.72-1.46,3.96-2.17,6.01-3.02.17-.07.1-.35-.08-.28-1.82.76-3.72,1.4-5.37,2.51-1.44.97-2.67,2.43-2.41,4.28.14.98.68,1.94,1.67,2.23.18.05.26-.23.08-.28h0Z"/>
      <path class="cls-26" d="M775.17,916.48c-2.23-.05-2.12-3.18-1.79-4.71.6-2.78,3.35-3.8,5.74-4.68,1.58-.58,3.16-1.6,4.89-1.55.19,0,.19-.28,0-.29-1.71-.05-3.27.91-4.82,1.5-1.54.59-3.09,1.05-4.37,2.14-.92.78-1.49,1.68-1.73,2.85-.22,1.03-.27,2.16,0,3.19s.96,1.81,2.08,1.84c.19,0,.19-.28,0-.29h0Z"/>
      <path class="cls-26" d="M768.83,914.39c-1.53-.57-2.17-2.47-2.02-3.99.15-1.41,1.01-2.61,2.05-3.52,1.1-.97,2.42-1.68,3.77-2.25,1.44-.62,3.02-1.19,4.56-1.49.18-.04.11-.31-.08-.28-1.36.27-2.74.76-4.02,1.27-1.21.48-2.39,1.05-3.46,1.8-1.9,1.32-3.46,3.3-3.05,5.74.21,1.28.91,2.53,2.18,3,.17.06.25-.21.08-.28h0Z"/>
      <path class="cls-26" d="M762.48,913.16c-1.92-.87-3.22-2.85-3.27-4.96-.04-1.75.99-2.95,2.38-3.89,1.39-.95,2.97-1.61,4.55-2.17.69-.25,1.39-.48,2.09-.7.9-.29,1.86-.82,2.82-.77.19.01.19-.28,0-.29-.77-.05-1.53.29-2.24.55-.65.24-1.32.43-1.98.66-1.38.47-2.74.99-4.03,1.67-1.14.6-2.3,1.34-3.08,2.38-.82,1.09-.94,2.46-.63,3.77.41,1.75,1.61,3.27,3.25,4.01.17.08.32-.17.15-.25h0Z"/>
    </g>
    <path class="cls-36" d="M798.37,868.83c-1.2,4.19.14,13.6,1.16,18.31,1.18,5.42-1.2,9.5-7.08,11.74-4.94,1.88-7.46,1.75-12.8,1.43-6.98-.43-14.41-1.78-21.39-2.21-5.98-.36-24.77-2.12-30.66-1.11-9.15,1.58-14.77.18-18.81-1.31-1.12-.41-1.82-.36-2.33-1.23-1.33-2.25-1.14-4.73,1.88-6.59,3.81-2.36,8.33.97,11.89-1.81.64-.5,1.22-1.05,1.95-1.41,1.43-.69,3.14-.51,4.75-.48,8.05.15,7.48-3.39,18.05-6.04,3.1-.78,23.16-11.22,26.05-12.54"/>
    <path class="cls-26" d="M729.52,885.13c-2.19.49-4.3,1.31-6.34,2.22-.7.36-1.48.67-1.92,1.26-1.59-1.2-3.7-1.6-5.7-1.34,1.93-.41,4.09-.14,5.76,1.05l-.2.04c.52-.65,1.23-.91,1.94-1.26,2.06-.9,4.22-1.66,6.46-1.97h0Z"/>
    <path class="cls-5" d="M798.95,884.1s-28.29,15.04-36.28,14.25l-5.1-.05s-3.1-.92-4.82.08"/>
    <path class="cls-22" d="M734.03,897.38s-.52-9.57-4.29-12.99c0,0,10.04-6.16,17.36-7.61,0,0,8.68,8.06,6.8,21.53l-19.88-.93Z"/>
    <path class="cls-22" d="M793.8,917.5s3.04-7.6-15.27-15.91c-11.16-5.06-11.98-3.92-11.98-3.92,0,0,7.02-7.05,19.29-7.97,0,0,23.49,2.94,29.57,23.59l-21.61,4.21Z"/>
    <g>
      <path class="cls-28" d="M777.82,533.15l121.22-1.68,1.43,34.76c.27,23.16-5.98,38.96-14.01,61.13l-17.51,93.89s-.32,40.89,4.35,74.73c3.21,23.16-1.13,47.62-5.43,70.46-2.03,10.8,4.12,14.65-8.83,17.57-20.49,4.62-43.63,4.31-63.31-1,0,0-2.08-4.67-2.09-4.67-10.78.3-36.51,3.03-43.48-6.33-4.01-5.39-4.27-25.45-5.51-31.99l-8.07-67.34c-4.2-39.51-9.07-45.71-10.09-66.32l-7.84-178.82,59.17,5.58Z"/>
      <path class="cls-34" d="M777.79,533.45c13.72-.19,27.45-.38,41.17-.57,21.71-.3,43.42-.6,65.13-.9,4.97-.07,9.94-.14,14.92-.21l-.36-.27c.4,9.66.79,19.33,1.19,28.99.22,5.45.33,10.83-.11,16.29-.85,10.78-3.48,21.24-6.88,31.47-1.77,5.34-3.7,10.62-5.63,15.9-.49,1.34-1.05,2.62-1.31,4.01-.5,2.67-1,5.35-1.5,8.02-2.02,10.85-4.05,21.7-6.07,32.55-2.22,11.9-4.44,23.81-6.66,35.71-.76,4.07-1.52,8.13-2.28,12.2-.28,1.52-.72,3.09-.86,4.63-.33,3.51.02,7.22.07,10.74.13,8.63.42,17.27.87,25.89.55,10.58,1.35,21.16,2.59,31.69.7,5.92,1.57,11.79,1.82,17.75.25,6.2.07,12.41-.41,18.59-.95,12.3-3.03,24.48-5.28,36.61-.74,4.01-1.33,7.76-1.09,11.84.13,2.31.51,5.01-1.43,6.7-1.3,1.14-3.09,1.69-4.72,2.15-2.59.73-5.27,1.22-7.92,1.69-6,1.05-12.08,1.69-18.16,1.93-11.78.47-23.67-.49-35.16-3.15-.69-.16-1.37-.33-2.05-.5-.34-.09-1.4-.21-1.62-.4-.3-.26-.49-1.09-.65-1.45-.46-1.04-.91-2.08-1.39-3.12-.07-.15-.19-.2-.35-.19-9.45.28-18.91,1.18-28.34.01-4.34-.54-9.09-1.45-12.68-4.12-3.23-2.41-4.12-6.27-4.83-10.04-1.5-7.97-1.68-16.11-2.82-24.13-.55-3.89-.94-7.82-1.4-11.72-1.78-14.89-3.57-29.78-5.35-44.67-1.78-14.86-3.36-29.74-6.21-44.45-2.17-11.22-4.72-22.23-5.22-33.69-.33-7.52-.66-15.03-.99-22.55-.61-13.94-1.22-27.87-1.83-41.81-.7-16.07-1.41-32.13-2.11-48.2-.61-13.95-1.22-27.89-1.83-41.84-.33-7.42-.65-14.85-.98-22.27-.02-.34-.03-.69-.05-1.03l-.51.31c17.3,1.63,34.6,3.27,51.89,4.9,2.43.23,4.85.46,7.28.69.39.04.77-.53.26-.58-17.3-1.63-34.6-3.27-51.89-4.9-2.43-.23-4.85-.46-7.28-.69-.17-.02-.53.08-.51.31.19,4.37.38,8.74.58,13.11.48,10.84.95,21.67,1.43,32.51.62,14.24,1.25,28.48,1.87,42.72.63,14.26,1.25,28.53,1.88,42.79.49,11.12.98,22.24,1.46,33.37.21,4.76.4,9.52.63,14.28.62,13.01,3.96,25.55,6.22,38.32s3.65,26.18,5.23,39.3c1.64,13.7,3.28,27.4,4.92,41.09,1.14,9.52,2.29,19.02,3.22,28.56.43,4.4.89,8.85,1.96,13.14.76,3.04,1.85,5.71,4.43,7.62,2.95,2.2,6.71,3.2,10.28,3.83,4.37.78,8.83.98,13.26,1s8.64-.17,12.96-.38c.87-.04,1.74-.09,2.61-.12.42-.02.84-.04,1.27-.05.12,0,1.13-.02.83-.2.28.17.56,1.24.68,1.53.37.83.74,1.67,1.12,2.5.66,1.47,2.96,1.44,4.41,1.77,3.16.73,6.34,1.33,9.55,1.81,6.39.95,12.86,1.42,19.32,1.46,6.69.04,13.38-.39,20.01-1.31,3.19-.44,6.37-1,9.52-1.67,2.21-.48,4.5-.97,6.54-1.97,2.28-1.12,3.51-2.82,3.58-5.38.1-3.57-.41-7,.21-10.57,2.41-13.89,5.12-27.69,6.13-41.78.5-6.96.62-13.96.15-20.92-.43-6.27-1.45-12.49-2.12-18.74-2.14-20.1-2.98-40.37-3.05-60.58-.02-5.6,1.42-11.03,2.45-16.53,2.49-13.37,4.99-26.74,7.48-40.11,2.19-11.76,4.39-23.51,6.58-35.27.56-2.99,1.09-5.6,2.13-8.47,4.16-11.45,8.45-22.95,10.8-34.94,1.66-8.46,2.33-17.08,1.98-25.69-.27-6.51-.54-13.03-.8-19.54-.17-4.21-.35-8.43-.52-12.64,0-.2-.18-.27-.36-.27-13.72.19-27.45.38-41.17.57-21.71.3-43.42.6-65.13.9-4.97.07-9.94.14-14.92.21-.44,0-.58.59-.06.59Z"/>
    </g>
    <path class="cls-34" d="M749.17,583.09c9.44,5.18,15.66,14.24,18.03,24.64,1.42,6.23,1.58,12.65,1.57,19.02,0,1.23-.03,2.45.04,3.68.44,7.55.87,15.09,1.31,22.64.74,12.75,1.48,25.5,2.22,38.26.63,10.95,1.27,21.9,1.9,32.84.2,3.39.24,6.83.67,10.21.79,6.21,1.58,12.43,2.37,18.64,1.45,11.38,2.9,22.76,4.35,34.14,1.65,12.95,3.3,25.9,4.95,38.85,1.43,11.25,2.87,22.5,4.3,33.75.76,5.96,1.52,11.92,2.28,17.87.04.28.07.56.11.83.04.35.81.16.76-.2-.54-4.21-1.07-8.42-1.61-12.64-1.31-10.31-2.63-20.63-3.94-30.94-1.65-12.93-3.3-25.87-4.94-38.8-1.54-12.07-3.07-24.14-4.61-36.21-.98-7.71-1.96-15.41-2.94-23.12-.36-2.83-.54-5.14-.71-8.05-.57-9.8-1.14-19.6-1.7-29.4-.75-12.91-1.5-25.83-2.24-38.74-.53-9.21-1.07-18.42-1.6-27.63-.19-3.31-.14-6.59-.2-9.92-.17-10.82-1.82-21.78-8.57-30.58-3.02-3.94-6.83-7.17-11.19-9.56-.29-.16-.96.23-.59.44h0Z"/>
    <path class="cls-16" d="M784.82,197.77c5.11-1.4,8.15-4.24,13.3-2.06.42.18,1.39.87,1.77,1.08.31.18.45.5.57.81,2.89,7.24,6.09,14.33,7.32,21.95.52,3.24.89,6.55.3,9.82-.54,2.95-.23,6.31-1.53,9.11-1.14,2.45-2.28,4.9-3.41,7.34-.42.91-.88,1.86-1.71,2.54-2.46,2-6.5.6-8.84-1.36-5.02-4.21-7.23-10.36-7.83-16.43-.6-6.07.23-12.21.38-18.32.1-4.22-.12-8.43-.66-12.6"/>
    <path class="cls-36" d="M792.12,256.04s-4.16,16.71,3.75,31.56c1.14,2.14,25.43,11.75,25.43,11.75l-46.5,79.51c-11.26,4.62-18.45-12.12-30.4-14.38l-19.15-49.56,17.34-10.56c.13-2.86-4.2-21.26-4.2-21.26"/>
    <path class="cls-36" d="M709.17,206.45s.01-.03.01-.06c.74.58,7.12-5.15,8.03-5.74,9.62-6.21,14.13-11.01,25.57-10.81,5.97.11,12.17,5.23,18.09,6.04,5.68.78,10.86-3.67,16.61-4.11,1.99-.15,3.17,6.21,2.38,4.9,2.47-.72,4.43-1.62,4.43-1.62,6.97,4.04,2.6,30.91,2.95,34.46.34,3.55,1.85,9.03,1.85,9.03.8-1.45,1.75-2.56,2.12-4.14.4-1.39,1.24-3.04,1.64-4.43,1.34-3.24,6.1-3.51,8.58-2l1.33,1.47c3.71,3.71.88,16.89-.8,21.11.54,7.98-5.71,13.16-10.44,8.06l-.62,3.24-8.97,17.02c-6.68,9.27-21.15,19.89-33.64,21.22-4.48.48-10.54,1.58-14.48-3.49-3.99-5.13-5.54-7.94-9.75-12.62-4.05-4.49-5.96-7.37-8.27-12.95-2.39-5.77-2.61-7.35-2.84-13.43-.1-2.72-.5-6.8-1.07-9.34-.66-2.93-3.69-14.43-4.95-21.25-1.26-6.82,2.23-20.57,2.23-20.57Z"/>
    <path class="cls-6" d="M792.51,243.76c3.52-10.84,6.68-11.2,6.68-11.2,0,0,2.35,2.22,1.73,7.16"/>
    <path class="cls-6" d="M794.24,244.56c2.81-.54,1.11,4.93,2.01,6.1.9,1.17,1.64-2.22,1.63-6.23,0,0-.48-5.37-3.26-6.11"/>
    <path class="cls-26" d="M719.01,220.9s8.76.26,15.82-.09c7.06-.36,13.7-3.56,13.7-3.56,0,0-8.09,2.53-13.67,2.84-5.58.31-15.84.81-15.84.81Z"/>
    <path class="cls-29" d="M755.23,271.3s-6.71,2.64-12.08,3.57c-5.38.93-13.86.68-13.86.68,0,0,.24-2.14,9.99-3.82,9.75-1.68,15.95-.43,15.95-.43Z"/>
    <path class="cls-16" d="M743.35,225.42c7.59-2.75,13.06-3.59,15.32-3.59,1.77,0,3.53.3,5.24.81,0,0,4.88,2.85,5.54,3.58.66.73-2.74,0-2.74,0-.71-.07-1.22-.2-1.93-.19-3.95.08-7.79-.29-11.62.72-3.28.86-7.54,3.16-10.58,4.68-.3-1.31-.41-4.07-.83-5.34"/>
    <path class="cls-16" d="M707.64,232.06c.04-.11.03-.91.08-1.02,0,0,.07-.12.07-.12.77-.4,1.68-1.13,2.84-1.48,2.03-.61,7.14-2.32,14.65-2.16.18,1.3.74,3.72.92,5.02-3.12-.44-5.27-.45-8.42-.28-2.97.17-7.14.61-10.05,1.37-.12-.26.03,0-.06-.28-.04-.19-.07-.37-.08-.56.01-.16.03-.32.06-.48Z"/>
    <path class="cls-39" d="M740.29,272.26c5.65-.63,15.93-1.32,15.93-1.32,0,0-1.35,12.64-14.45,14.11-13.1,1.46-15.3-11.61-15.3-11.61,0,0,8.17-.54,13.82-1.17Z"/>
    <path class="cls-21" d="M740.24,272.27c2.69-.3,14.08-1.64,14.08-1.64,0,0-3.23,8.23-12.95,9.31-10.53,1.17-13.36-6.55-13.36-6.55l12.23-1.13Z"/>
    <path class="cls-35" d="M740.17,272.68c2.69-.3,10.81-1.67,10.81-1.67,0,0-2.61,3.3-10.67,4.2-8.06.9-10.94-1.7-10.94-1.7l10.8-.83Z"/>
    <path class="cls-39" d="M726.08,273.15c.28-.1.95.03,2.2-.32,2.24-.63,3.19-1.56,4.79-1.87,2.73-.52,4.6.38,5.79.25,1.2-.13,2.82-1.42,5.59-1.52,1.63-.05,5.17.72,7.41.67,1.35-.03,4.47.01,4.76.05.41.05-1.14,1.71-16.17,3.38-15.03,1.68-14.77-.5-14.38-.64Z"/>
    <path class="cls-36" d="M733.74,290.02c.13-.03.25-.08.35-.16,1.93-1.52,2.03-2.3,3.01-2.62.23-.07.34-.17,1.05-.32,2.85-.64,4.58-1.08,12.7,3.22.16.09,10.18-2.02,10.38-2.05l5.03-2.9c.83-.61,19.09-18.74,19.09-18.74.25-.58,3.48-4.8,3.58-5.34.06-.04.11-.08.18-.1.02-.01.07-.04.12-.06.01.03.03.08.04.1.05.22.07.46.07.69.03.99-.09,1.98-.31,2.96-.34,1.49-.48,3-.76,4.5-.1.53-.22,1.05-.37,1.57-2.12,1.57-9.96,20.46-22.66,25.34-.51.18-2.13.78-6.52,1.51-8.24,1.36-14.93,4.47-23.29,2.74-2.18-.45-4.02-1.84-5.03-3.75-2.89-5.46-12.19-26.92-14.19-35.27,2.65,4.72,10.59,19.03,14.44,25.92.12.21,2.55,2.76,2.81,2.81"/>
    <path class="cls-31" d="M740.15,272.39c6.5-.51,16.96-2.15,16.96-2.15,0,0-.66,15.44-15.72,16.64-15.06,1.19-15.45-13.39-15.45-13.39,0,0,7.71-.59,14.2-1.1Z"/>
    <path class="cls-21" d="M740.09,272.4c3.09-.24,13.68-1.57,13.68-1.57,0,0-1.49,9.1-12.66,9.98-12.11.96-13.95-7.38-13.95-7.38l12.93-1.03Z"/>
    <path class="cls-35" d="M739.99,272.89c3.09-.24,12.44-1.53,12.44-1.53,0,0-3.1,3.8-12.37,4.54-9.27.73-12.48-2.47-12.48-2.47l12.4-.54Z"/>
    <path class="cls-31" d="M724.1,272.65c.32-.11.37-.28,1.89-.54,2.54-.43,4.08-1.26,5.92-1.56,3.14-.5,5.25.64,6.63.53s3.28-1.57,6.46-1.57c1.86,0,6.5.34,9.08.37,1.54.02,3.29-.75,3.63-.69.47.08-.14,3.65-17.43,5.02-17.28,1.37-16.63-1.42-16.19-1.57Z"/>
    <path class="cls-16" d="M740.4,266.33l.58,2.8c.09.43.44.75.87.8,2.98.36,16.84-.79,16.55,1.88-.04.37.31,2.63.38,2.61l.66-.84c.83-1.82.12-4.57-.84-4.92-2.93-1.09-5.55-1.84-7.17-2.19-2.02-.44-7.62-1.46-10.05-1.39-.64.02-1.1.62-.97,1.25Z"/>
    <path class="cls-16" d="M736.97,266.58l.04,2.86c0,.44-.21.83-.54.97-2.25,1-12.93,2.59-12.24,5.13.1.35-.04,1.87-.09,1.87l-.62-.32c-.82,0-.93-3.76-.25-4.32,2.08-1.69,3.98-2.99,5.18-3.68,1.49-.86,5.66-3.07,7.56-3.52.5-.12.96.36.97,1.01Z"/>
    <path class="cls-27" d="M743.75,300.67s20.97-2.42,25.7-6.07c4.73-3.66,9.83-9.73,13.88-18.52,0,0-5.07,19.44-16.23,22.37-14.72,3.87-22.95,4.16-22.95,4.16l-.39-1.94Z"/>
    <g>
      <path class="cls-28" d="M693.14,346.39c9.56-23.44,44.27-40.73,47.45-42.14-1.8,17.82,11.9,18.44,11.9,18.44l5.14,41.36,1.8-.02,3.9-42.42c33.18-10.52,37.01-33.07,37.01-33.07,8.6,1.66,27.17,6.32,43.28,12.31,13.44,7.05,13.57,23.08,18.73,32.7,6.57,12.25,6.1,46.58,13.54,71.3-18.58,7.72,5.68,40.77-3.14,42.32.53,2.68.95,4.8,1.45,7.2.27,1.09.51,2.28.74,3.51.79,3.65,1.53,6.81,2.2,9.29-.28.03-.56.05-.84.08.91,8.17,20.71,35.51,24.17,60.3,5.91,42.44-2.23,93.4-2.6,99.69-.73,12.53-83.78,22.16-119.9,23.14-35.47.97-59.73-4.41-66.54-12.23v-34.41c-.89-19.02-2.89-34.38-5.02-59.77-.17-1.98-.26-3.97-.3-5.96-.28-12.29-1.61-61.72-1.48-61.74l-3.08-29.35c-9.88,1.08-17.37-.81-21.26-1.2,2.49-28.54,8.11-87.74,12.84-99.34Z"/>
      <path class="cls-34" d="M693.5,346.35c3.97-9.59,11.4-17.41,19.27-23.98,6.78-5.65,14.19-10.57,21.91-14.84,1.98-1.1,3.98-2.2,6.05-3.12l-.52-.11c-.57,6.09.47,12.87,5.96,16.47,1.42.93,3.04,1.59,4.71,1.93.37.08.92.04,1.26.19.31.14-.1-.3,0,.13.76,3.72.95,7.65,1.42,11.41.76,6.14,1.53,12.27,2.29,18.41.47,3.77.94,7.54,1.41,11.31.01.09.16.12.23.11.6,0,1.2-.01,1.8-.02.13,0,.49-.07.51-.26,1.12-12.22,2.25-24.43,3.37-36.65l.34-3.65c.05-.5-.06-1.48.18-1.93.18-.34.25-.16.88-.34,1.55-.44,3.07-1.07,4.57-1.66,2.7-1.07,5.34-2.3,7.89-3.69,7.49-4.08,14.28-9.7,18.96-16.88,2.06-3.17,4.08-6.9,4.73-10.69l-.59.25c7.62,1.49,15.15,3.46,22.61,5.59,4.88,1.4,9.74,2.9,14.55,4.54,2.3.79,4.85,1.43,6.96,2.65,1.8,1.05,3.45,2.34,4.9,3.83,5.04,5.19,7.15,12.25,9.28,18.98.96,3.05,1.94,6.12,3.4,8.97,1.19,2.33,2.05,4.74,2.72,7.27,1.88,7.15,2.72,14.57,3.64,21.88,1.1,8.78,2.11,17.58,3.65,26.3.74,4.22,1.61,8.42,2.7,12.56.24.91.7,1.93.79,2.85.08.85-.16.75-.88,1.14-1.02.55-1.98,1.23-2.79,2.06-3.23,3.26-3.61,8.05-3.14,12.38.63,5.79,2.63,11.34,4.3,16.88.6,2,3.56,9.6-.09,10.34-.12.02-.35.14-.32.29,1.31,6.69,2.64,13.41,4.4,20l.42-.31c-.28.03-.56.05-.84.08-.14.01-.44.12-.42.31.41,3.28,2.23,6.47,3.67,9.38,2.42,4.88,5.01,9.67,7.46,14.53,5.76,11.48,11.21,23.57,13.04,36.39,3.73,26.17,2.34,53.08-.33,79.28-.68,6.66-1.63,13.29-2.24,19.95-.38,4.1-5.75,6.01-9.02,7.29-7.43,2.92-15.36,4.65-23.17,6.22-10.08,2.03-20.26,3.58-30.46,4.91-19.38,2.53-38.97,4.48-58.53,4.9-13.76.3-27.71-.16-41.27-2.68-4.67-.87-9.33-1.98-13.77-3.69-3.07-1.18-6.22-2.65-8.65-4.92-.66-.62-.87-.72-.87-1.56,0-1.05,0-2.11,0-3.16,0-3.65,0-7.31,0-10.96,0-6.4.08-12.8,0-19.2-.12-10.55-1.41-21.17-2.4-31.67-1.19-12.55-2.69-25.12-2.99-37.73-.41-16.92-.88-33.84-1.27-50.76-.07-3.26,0-6.48-.33-9.6-.77-7.32-1.54-14.65-2.31-21.97-.19-1.83-.38-3.66-.58-5.49-.01-.12-.24-.12-.32-.11-5.67.58-11.28.25-16.9-.6-.88-.13-1.76-.28-2.65-.4-.27-.04-.71-.01-.96-.13-.51-.24-.28,0-.38-.61-.24-1.55.32-3.64.46-5.21.74-8.31,1.52-16.62,2.35-24.93,1.72-17.24,3.5-34.52,6.23-51.64.89-5.58,1.6-11.58,3.72-16.87.1-.24-.64-.16-.74.09-1.49,3.72-2.15,7.83-2.86,11.75-1.15,6.37-2.04,12.79-2.88,19.2-2,15.33-3.58,30.71-5.06,46.1-.71,7.43-1.39,14.86-2.04,22.3-.01.13.12.16.23.17,5.99.64,11.76,1.75,17.84,1.47.52-.02,3.1-.43,3.21-.31s.07.69.09.84c.13,1.25.26,2.49.39,3.74.8,7.6,1.6,15.21,2.4,22.81.34,3.19.27,6.8.35,10.31.21,9.17.45,18.34.68,27.51.21,8.21.43,16.42.62,24.63.33,14.03,2.27,28.07,3.54,42.04.84,9.23,1.8,18.53,1.8,27.8,0,7.88,0,15.76,0,23.65,0,1.59,0,3.18,0,4.77,0,.85-.17,1.89,0,2.72.36,1.78,3.62,3.41,5.11,4.22,8.48,4.61,18.73,6.16,28.18,7.24,22.93,2.64,46.2,1.04,69.09-1.22,20.84-2.05,41.9-4.61,62.25-9.67,6.31-1.57,13.21-3.24,18.78-6.75,1.38-.87,2.94-2,3.54-3.58s.5-3.78.7-5.49c2.75-23.22,4.82-46.54,4.13-69.95-.42-14.29-1.51-28.61-6.43-42.14-4.28-11.78-10.42-22.68-15.99-33.87-1.48-2.96-3.34-6.22-3.76-9.56l-.42.31c.28-.03.56-.05.84-.08.12-.01.47-.12.42-.31-1.75-6.59-3.08-13.31-4.4-20l-.32.29c4.62-.93,1.33-8.91.54-11.5-2.09-6.83-5.05-14.28-4.16-21.55.52-4.27,2.87-7.59,6.85-9.3.08-.04.26-.14.22-.25-3.32-11.15-4.89-22.75-6.34-34.27-1.26-10.03-2.07-20.3-4.66-30.1-.93-3.53-2.57-6.57-3.93-9.92-1.67-4.12-2.76-8.45-4.25-12.64-1.52-4.27-3.46-8.47-6.48-11.9-1.55-1.76-3.35-3.27-5.35-4.49-2.44-1.49-5.39-2.24-8.08-3.15-11.95-4.04-24.22-7.53-36.61-9.94-.17-.03-.56.03-.59.25-.48,2.77-1.77,5.5-3.1,7.93-3.64,6.64-9.13,12.13-15.38,16.33-5.6,3.76-11.8,6.51-18.21,8.57-.1.03-.31.1-.32.23-1.14,12.38-2.28,24.77-3.42,37.15-.16,1.76-.32,3.51-.49,5.27l.51-.26c-.35,0-.71-.02-1.06.01s-.7-.14-.51.11c-.06-.08-.05-.38-.06-.47-.08-.81-.2-1.61-.3-2.42-.4-3.19-.79-6.37-1.19-9.56-.97-7.76-1.93-15.53-2.9-23.29-.23-1.87-.47-3.74-.7-5.61-.01-.09-.16-.11-.23-.11-2.31-.11-4.71-1.17-6.53-2.55-4.85-3.68-5.67-10.05-5.14-15.72.02-.24-.39-.17-.52-.11-5.24,2.33-10.24,5.39-15.04,8.5-8.5,5.48-16.64,11.79-23.33,19.41-3.8,4.32-7.09,9.1-9.29,14.43-.1.24.63.16.74-.09Z"/>
    </g>
    <path class="cls-15" d="M716.73,239.82c-1.11-.44-2.43.14-3.06.82-.15.16-.42.63-.55,1.35-.17.91.28,1.88.9,2.44.83.74,2.08.76,2.99.22,1.23-.73,1.5-2.33,1.06-3.42-.08-.2-.44-1.04-1.34-1.4"/>
    <path class="cls-15" d="M728.52,242.01s-5.55-3.54-8.2-3.54c-3.88,0-8.4,2.6-9.57,4.64,0,0,5.94-3.8,8.68-3.72,2.61.08,9.09,2.63,9.09,2.63Z"/>
    <path class="cls-15" d="M749.33,236.84c1-.65,2.72-.67,3.47-.13.18.13.66.5.93,1.17.35.86.09,1.9-.4,2.57-.66.89-1.89,1.15-2.89.8-1.35-.47-1.93-1.99-1.72-3.15.04-.21-.21-.59.6-1.12"/>
    <path class="cls-15" d="M744.41,240.13s5.45-4.27,8.3-4.64c4.16-.54,9.38,1.41,10.93,3.27,0,0-6.92-2.95-9.84-2.49-2.79.44-9.38,3.86-9.38,3.86Z"/>
    <g>
      <path class="cls-9" d="M734.76,262.63c1.47.61,3.6.25,4.94-.74.3-.22,1.36-.12.94.19-1.77,1.31-4.84,1.69-6.73.9-.19-.08-.17-.22.05-.31.23-.1.6-.12.8-.03"/>
      <path class="cls-9" d="M741.22,261.62c.91-.53,1.95-.85,2.99-1.03.15-.02.36.02.48.11.1.07.12.18.01.25-.46.32-1.07.49-1.65.53-.18.01-.42-.01-.54-.16-.11-.13.06-.24.2-.25.47-.03.95-.17,1.33-.43.17.12.33.24.5.36-.94.15-1.87.46-2.68.93-.16.09-.41.06-.57-.01-.12-.06-.25-.2-.09-.3"/>
      <path class="cls-9" d="M745.42,261.38c1.23-.14,2.64-.8,3.17-1.78.8-1.48-.25-3.62-1.87-4.38-.18-.08-.1-.22.07-.27.22-.07.49,0,.67.08,1.41.66,2.44,2.4,2.36,3.73-.08,1.24-1.19,2.2-2.64,2.68-.43.14-.89.26-1.35.31-.19.02-.53,0-.63-.14-.11-.14.06-.22.24-.24"/>
      <path class="cls-9" d="M732.44,262.2c.05-.15-.08-.23-.18-.22-.33.04-.68-.03-.99-.23-.1.14-.19.28-.29.43.67.01,1.36.17,2,.52.13.07.29,0,.39-.1.07-.07.15-.24.02-.31"/>
      <path class="cls-9" d="M733.39,262.3c-.71-.39-1.48-.55-2.23-.57-.11,0-.25.07-.32.18-.06.08-.06.19.03.25"/>
      <path class="cls-9" d="M729.89,262.59c-.81.04-1.8-.41-2.28-1.3-.72-1.35-.31-3.05.62-4.03.1-.11.03-.23-.08-.25-.15-.04-.31.06-.42.17-.81.85-1.26,2.17-1.02,3.47.23,1.21,1.07,2,2.07,2.27.3.08.61.13.91.11.12,0,.34-.08.38-.23.05-.15-.07-.21-.18-.2"/>
    </g>
    <g>
      <path class="cls-38" d="M701.7,448.21c-1.8-23.79-2.42-42.77-7.44-66.1"/>
      <path class="cls-34" d="M702.06,448.11c-1.28-17.05-2.1-34.15-4.68-51.07-.77-5.04-1.69-10.05-2.76-15.03-.03-.16-.76.01-.72.19,3.59,16.76,5.16,33.76,6.36,50.82.36,5.09.7,10.18,1.09,15.27.01.14.74,0,.72-.19h0Z"/>
    </g>
    <path class="cls-34" d="M805.42,289.97c.12,1.44-.21,3.39-.58,4.92-1.05,4.33-3.29,8.32-6.13,11.72-4.45,5.33-10.34,8.96-16.13,12.64-3.23,2.06-6.48,4.14-9.89,5.91-.57.29-1.24.61-1.78.83-.29.12-.4.03-.17.11-.2-.06-.55.03-.58.27-.64,5.11-1.28,10.21-1.91,15.32-1.01,8.1-2.02,16.21-3.04,24.31-.24,1.88-.47,3.77-.71,5.65l.4-.29c-3.7.14-7.4.27-11.1.41l.33.17c-.97-5.09-1.93-10.19-2.9-15.28-1.54-8.13-3.08-16.25-4.62-24.38-.36-1.87-.71-3.75-1.07-5.62-.02-.1-.15-.16-.24-.16-1.96-.21-3.9-1.4-5.36-2.66-4.49-3.89-5.83-10.21-6.09-15.88-.02-.38-.75-.26-.73.06.29,6.49,2.08,13.95,8.06,17.54.94.56,2.47,1.47,3.63,1.43.38-.01.06-.19.04.04-.04.37.17.9.24,1.26,2.07,10.94,4.15,21.89,6.22,32.83.7,3.67,1.39,7.35,2.09,11.02.03.14.22.17.33.17,3.7-.14,7.4-.27,11.1-.41.16,0,.38-.12.4-.29.64-5.11,1.28-10.21,1.91-15.32,1.01-8.1,2.02-16.21,3.04-24.31.24-1.88.47-3.77.71-5.65l-.58.27c.53.17,1.32-.33,1.76-.53,2.96-1.38,5.75-3.18,8.51-4.9,10.01-6.24,20.97-12.94,24.61-24.91.62-2.04,1.12-4.31.95-6.45-.03-.33-.75-.15-.72.19h0Z"/>
    <path class="cls-34" d="M701.31,440.81c-2.6-.07-5.21-.28-7.8-.56-4.02-.45-8.62-.92-12.19-2.97-.22-.13-.88.19-.57.36,3.54,2.03,8.04,2.53,12.03,2.99,2.74.32,5.5.54,8.26.62.29,0,.76-.42.28-.44h0Z"/>
    <path class="cls-34" d="M898.9,614.99c-.07.58-.45,1.15-.76,1.62-1.17,1.73-2.91,3.08-4.64,4.22-3.63,2.4-7.71,4.1-11.79,5.55-7.42,2.63-15.14,4.4-22.86,5.85-19.13,3.59-38.48,6.33-57.84,8.36-14.31,1.5-28.88,2.84-43.28,2.09-7.4-.38-14.91-1.18-22.19-2.55-6.73-1.27-13.2-3.44-19.17-6.84-1.58-.9-3.11-1.86-4.62-2.88-.21-.14-.88.16-.58.37,5.78,3.89,12.03,6.85,18.78,8.61,7.67,2,15.64,2.72,23.51,3.43,13.75,1.24,27.76.07,41.46-1.21,19.7-1.85,39.32-4.68,58.82-8.06,8.37-1.45,16.73-3.14,24.85-5.7,4.7-1.48,9.38-3.24,13.65-5.71,2.17-1.26,4.34-2.73,5.97-4.67.4-.48,1.54-1.73,1.44-2.46,0-.03.02-.08.02-.12.04-.3-.7-.17-.74.09h0Z"/>
    <path class="cls-16" d="M730.89,297.4c.99.52,1.13,1.89,1.49,2.83.32.85.74,1.66,1.54,2.15,1.16.72,3.67.64,4.12-1.01-.54-.25-.61-.21-.2.12.14.17.28.35.41.53.25.32.5.66.82.91.68.53,1.58.76,2.43.7,1.79-.13,3.29-1.61,3.24-3.43-.68.25-1.36.51-2.04.76,1.57,1.2,3.48,2.27,5.52,1.7,1.68-.47,2.96-1.88,2.76-3.66l-2.02,1c1.47,1.42,3.27,2.62,5.4,1.92.91-.3,1.52-.92,2-1.72.14-.24.28-.66.5-.84.08-.06-.1-.39.1.03.18.36.2.77.39,1.13,1.08,2,3.2.37,4.24-.7,2.03-2.08,4.06-4.17,6.08-6.25-.69-.18-1.38-.36-2.07-.54-.69,1.36-1.34,2.77-1.75,4.24-.17.62-.42,1.47,0,2.05.53.71,1.58.54,2.27.21,1.77-.86,3.2-2.7,4.48-4.14,1.02-1.16,2.02-2.34,2.98-3.56.91-1.15-1.24-1.64-1.94-.76-1.76,2.23-3.6,4.58-5.78,6.42-.18.15-.47.3-.61.48-.18.23-.16.02-.15.09,0,.05.94.18.86.28.07-.08.07-.64.11-.78.08-.33.2-.65.31-.96.4-1.1.89-2.18,1.42-3.23.63-1.25-1.54-1.09-2.07-.54-1.62,1.67-3.24,3.33-4.87,5-.46.48-.92.96-1.39,1.43l-.4.4c.41.07.52-.04.33-.33.02-.49-.48-1.28-.85-1.57-1.14-.88-2.86-.15-3.64.86-.55.7-.7,1.78-1.79,1.7-.92-.07-1.8-1.09-2.42-1.69-.69-.67-2.12.1-2.02,1,.13,1.12-1.03,1.56-1.94,1.31-.86-.23-1.6-.81-2.29-1.34-.57-.43-2.06-.12-2.04.76.03.97-.59,1.93-1.59,1.21-.48-.34-.76-1-1.19-1.42-.81-.79-1.94-.96-2.9-.28-.41.29-.69,1.15-1.16,1.07-.69-.12-.98-1.55-1.15-2.06-.43-1.33-.95-2.4-2.23-3.07-1-.53-2.6.94-1.3,1.63h0Z"/>
    <path class="cls-36" d="M906.9,486.33c-1.03-26.11-4.91-35.62-4.67-47.91-.84.17-11.57-11.15-12.38-10.91-2.55.76-8.03-2.89-10.69-2.59-4.87.55-7.98,5.81-12.85,6.34-6.21.67-8.69-1.58-14.92-2l14.31,57.09c13.59-.45,27.81-1.79,41.2-.03Z"/>
    <path class="cls-36" d="M883.89,458.98l-91.26-30-16.56,20.39c16.21,6.13,83.63,49.14,99.92,52.8,4.61-12.2,5.93-30.44,7.9-43.2Z"/>
    <path class="cls-36" d="M801.64,432.17l-10.06-27.28-12-8.48-13.6-6.36-27.68-2.02s-2.83,2.58,3.24,5.26c5.64,2.16,11.55,3.93,17.68,5.3l10.03,11.04.13,7.53-4.34,1.84s-8.68-13.74-13.4-15.18c-.77-.23-.69-.4-1.33-.6-2.69-.88-4.92-.56-5.74,2.15h0s14.38,23.31,14.38,23.31c0,0,8.26,9.06,10.59,10.96,2.62,1.68,11.45,7.33,14.45,8.59"/>
    <g>
      <path class="cls-28" d="M837.46,326.75c-7.52,6.13-10.99,11.51-11.68,18.15-.9,8.72,8.75,73.74,15.37,98.03,0,0,29.05,10.29,68.36-7.51,0,0-18.67-84.85-23.49-97.75-4.82-12.9-17.57-29.68-45.42-38.64"/>
      <path class="cls-34" d="M837.16,326.67c-5.83,4.78-11.42,10.93-11.79,18.86-.16,3.47.29,7.02.64,10.47,1.31,13.01,3.25,25.97,5.32,38.88,2.2,13.69,4.55,27.39,7.66,40.91.3,1.29.6,2.59.92,3.88.15.61.31,1.22.46,1.83.1.39.16,1.28.43,1.58s1.13.39,1.49.49c3.69,1.04,7.5,1.66,11.31,2.06,16.31,1.71,32.93-1.07,48.22-6.8,2.64-.99,5.25-2.07,7.82-3.23.1-.04.24-.14.21-.27-1.14-5.16-2.29-10.32-3.45-15.48-2.54-11.33-5.11-22.65-7.74-33.95-2.65-11.38-5.32-22.76-8.24-34.08-2.01-7.82-3.92-15.57-8.09-22.57-7.83-13.12-20.76-22.35-34.75-27.97-2.23-.9-4.5-1.71-6.79-2.45-.26-.08-.85.3-.43.43,15.41,4.99,30.05,13.72,39.37,27.27,2.69,3.91,4.93,8.17,6.41,12.69,1.09,3.32,1.98,6.72,2.87,10.1,2.87,10.94,5.47,21.95,8.04,32.96,2.69,11.49,5.31,22.99,7.9,34.5.93,4.14,1.86,8.28,2.78,12.42.29,1.32.59,2.65.88,3.97.13.6.16,1.56.47,2.11.04.07.04.19.06.26l.21-.27c-16.17,7.29-33.97,11.34-51.76,10.23-4.49-.28-8.99-.87-13.36-1.95-.75-.19-1.98-.3-2.64-.74-.34-.23-.2-.36-.34-.9-.31-1.16-.6-2.32-.88-3.48-3.09-12.76-5.36-25.74-7.5-38.69-2.19-13.2-4.19-26.45-5.69-39.74-.47-4.17-.96-8.37-1.08-12.57-.18-5.93,2.32-11.25,6.28-15.59,1.65-1.81,3.48-3.44,5.37-4.99.33-.27-.39-.32-.59-.16h0Z"/>
    </g>
    <path class="cls-34" d="M907,428.75c-7.41,1.96-14.96,3.49-22.52,4.71-11.84,1.92-23.83,2.59-35.81,2.73-2.92.03-5.84.05-8.75-.02-.33,0-.75.49-.26.5,7.77.18,15.57-.02,23.33-.45,12.06-.67,23.95-2.41,35.74-5.01,2.81-.62,5.62-1.26,8.4-2,.44-.12.32-.58-.13-.47h0Z"/>
    <path class="cls-19" d="M807.01,213.44s-39.38-38.1-91.33-19.97l13.99-26.72s20.42-8.06,46.33-1c25.91,7.06,29.14,19.34,29.14,19.34l1.88,28.34Z"/>
    <path class="cls-13" d="M806.43,195.3c-7.47-5.58-15.64-10.47-24.08-14.41-6.28-2.93-12.73-5.08-19.62-5.97-7.7-.99-15.56-1.01-23.28-.3-3.4.31-6.8.76-10.13,1.52-1.99.45-4.17.96-5.91,2.09-.26.17.36.1.48.03,1.69-1.1,3.85-1.55,5.79-1.98,3.01-.66,6.07-1.07,9.13-1.36,7.6-.72,15.32-.72,22.9.19,13.07,1.58,24.94,7.84,35.91,14.82,2.79,1.78,5.56,3.61,8.21,5.59.14.11.69-.14.59-.22h0Z"/>
    <path class="cls-13" d="M805.95,200.15c-1.27-.01-2.52.16-3.73.58-.68.23-2.14.66-2.37,1.5-.29,1.07,1.76,1.06,1.34.09-.32-.73-1.13-1.43-1.54-2.14-.38-.65-.7-1.34-.97-2.05s-.48-1.44-.63-2.18c-.06-.27-.1-.54-.14-.81-.31.28-.63.57-.94.85-.28.11-1.05.03-1.35.04-1.03.03-5.94-.42-5.11,1.97.07.19.56,0,.62-.13.74-1.53.34-3.07-.12-4.63-.23-.78-.56-1.59-.62-2.4-.02-.22,0-1.51.15-1.57l-.41.02c1.04.9-.63,1.23-1.33,1.36-.8.15-1.61.2-2.42.28-1.16.11-2.33.24-3.42.65-.51.19-1.87.67-1.83,1.43.03.69.75.57,1.16.38.04-.02.14-.08.13-.15-.36-1.36-.72-2.73-1.09-4.09-.17-.64-.34-1.28-.51-1.93-.16-.6-.62-1.56-.58-2.17l-.06-.31.36.18c-.1.4-1.01.8-1.37,1-.58.32-1.2.58-1.8.86-1.35.65-2.7,1.29-4.04,1.94-.37.18.2.21.37.12,1.57-.75,3.15-1.51,4.72-2.26.7-.33,2.51-.83,2.74-1.76.29-1.18-1.55-1.31-1.61-.08-.03.68.34,1.51.51,2.16.21.8.43,1.61.64,2.41.23.88.47,1.77.7,2.65.17.65-.04,1.25.71.52.53-.52.98-.72,1.71-.91,2.43-.63,4.96-.31,7.27-1.41.04-.02.15-.08.13-.15-.11-.34-.23-.71-.5-.95-.1-.08-.31-.02-.41.02-.8.29-.57,1.88-.43,2.52.47,2.09,1.64,4.25.63,6.36l.62-.13c-.6-1.71,3.74-1.49,4.67-1.52.78-.02,1.78.08,2.48-.37,1.08-.7.32-2.12-.74-1.41-.55.37-.25,1.02-.13,1.6.25,1.21.66,2.39,1.22,3.5.25.5.54.99.85,1.46.15.23.31.45.48.67l.25.33c.2.38.29.45.26.19.15-.05.77-.81,1.06-.96.44-.24.96-.4,1.44-.53.89-.24,1.8-.32,2.72-.31.2,0,.68-.29.26-.29h0Z"/>
    <path class="cls-13" d="M773.39,188.64c-.6-.06-1.4.12-1.91.43-.59.35-.51.87.27.96,1.76.2-.21-3.17-.44-3.64-.65-1.31-1.47-2.52-2.12-3.83-.19-.39-.57-1.2-.22-1.61,1.27-.23,1.29.05.03.82-.22.07-.45.13-.67.2-1.04.31-2.08.62-3.12.93-.81.24-5.95,1.78-4.43,3.33.07.07.25.04.33.01,3.43-1.04-5.74-6.79-3.34-8.52l-.54.08c1.86,1.35-2.56,3.05-3.48,3.48-.99.46-1.89.92-2.66,1.71-.38.39-1.33,1.25-1.08,1.89.3.76,1.8.45,1.23-.65-1.1-2.08-4.62-3.66-3.9-6.36l-.56.18c1.22.47-.92,1.89-1.21,2.06-.68.39-1.4.71-2.1,1.06-.87.44-1.62.94-2.31,1.63-.37.37-2.4,2.36-1.27,2.75.25.09.96,0,1.08-.3.2-.47-.57-1.08-.87-1.35-1.03-.91-2.34-1.44-3.34-2.39-.84-.81-2.32-2.51-1.41-3.71l-.6.09c1.07,1.85-1.83,3.7-3.06,4.5-1.39.9-2.75,2.01-2.93,3.76-.01.1.11.11.18.11.87-.02,1.42-.76.68-1.48-1.15-1.13-4.19-1.48-3.96-3.49.03-.29.13-.57.18-.86.11-.73-.01-.2-.13.25-.22.79-.47,1.46-.95,2.15-1.06,1.52-2.57,2.81-4.19,3.69-.37.2.2.23.37.14,2.14-1.16,4.79-3.29,5.34-5.8.11-.49.26-1.37-.47-1.14-.64.2-.74,1.24-.79,1.8-.13,1.38,1.26,1.85,2.29,2.45.41.24.83.46,1.23.72.14.09,1.14.97.87,1.05.04-.01.28-.87.32-.94.2-.39.49-.73.79-1.05,1.25-1.27,6.33-3.45,4.85-6.01-.1-.17-.51-.03-.6.09-1.05,1.39.67,3.32,1.71,4.2.94.8,2.11,1.3,3.03,2.12.27.24.49.5.71.78.24.3-.12.2-.05.07.07-.14.1-.33.18-.48,1-2.03,3.14-2.99,5.03-3.97.48-.25,3.62-2.11,1.91-2.77-.14-.05-.52.01-.56.18-.58,2.16,1.48,3.54,2.74,4.94.49.55,1.2,1.37,1.31,1.94-.12-.58-.03-.8.36-1.3.35-.45.81-.92,1.27-1.24.86-.62,7.79-3.01,5.41-4.74-.14-.1-.41,0-.54.08-1.73,1.25.86,3.56,1.77,4.49.81.82,1.69,1.74,2.1,2.83.09.25.05.46.08.66.03.21-.11-.08-.08-.19.03-.14.15-.27.22-.39.47-.66,1.52-1.09,2.26-1.38,1.83-.71,3.79-1.14,5.67-1.72.6-.19,1.79-.61,1.08-1.45-.4-.48-1.17-.38-1.61-.02-1.2.96-.06,2.49.51,3.47.77,1.32,1.5,2.68,2.09,4.09.2.47.3.97.47,1.44.23.61-.11-.1.11-.32.16-.17.84-.24,1.04-.22.17.02.73-.27.39-.3h0Z"/>
    <path class="cls-25" d="M641.59,322.91s19.68,39.06,19.51,67.37c-.17,28.32,8.19,59.56,5.46,91.78-2.73,32.22-37.47,417.91-37.47,417.91l156.15,3.49s-10.43-346.81-14.31-414.43c-3.42-59.47-129.34-166.13-129.34-166.13Z"/>
    <path class="cls-25" d="M1102.77,94.29s-237.39,61.34-240.52,50.97c-3.13-10.38,78.61-116.44,78.61-116.44l102.04-75.04-9.95-8.53-109.04,69.09,85.93-147.91-18.9,2.81L889.98,11.22s-55.43,120.69-63.19,114.37c-7.76-6.32-59.51-118.58-59.51-118.58l-12.35,5.21,54.95,151.77-72.88,140.73c-1.02,2.93-2.19,6.56-3.35,10.7l-65.6-49.52-38.52-150.79,77.19-91.51h-10.93l-66.25,77.99-89.76-172.32-15.93,11.19,108.75,297.27-103.24-72.8-96.97-78.92-10.93,20.26,123.29,103.48-164.9-45.75v9.37l169.53,50.94,120.81,129.94c1.64,18.14,26.71,110,37,168.07l66.73,23.45c1.8-10.63,15.67-115.02,11.35-124.49,2.39-70.17,14.26-92.79,14.26-92.79-.91-8.85,12.21-30.54,18.22-45.93,7.54-19.77,41.62-80.05,58.56-98.79,16.95-18.73,234.29-77.49,234.29-77.49l-7.8-11.97Z"/>
    <polygon class="cls-25" points="458.5 92.55 285.28 24.4 243.22 19.09 463.33 129.47 458.5 92.55"/>
    <polygon class="cls-25" points="460.96 127.62 416.05 -22.36 427.78 -77.55 499.94 139.83 460.96 127.62"/>
    <path class="cls-40" d="M413.58,945.74c11.61-12.57,23.92-26.78,24.27-43.89s-19.36-34.2-33.62-24.74c4.14-10.28.26-23.19-8.86-29.48-9.12-6.3-22.56-5.35-30.71,2.16-4.62-24.82-42.54-34.61-58.6-15.13,1.51-9.69-12.18-16.2-20.7-11.35-8.52,4.85-11.44,15.93-10.76,25.71-5.58-11.45-18.66-18.76-31.33-17.51-12.67,1.25-24.08,10.97-27.31,23.29-1.21-10.83-3-22.77-11.36-29.76-8.36-6.99-24.99-3.03-24.77,7.86,2.51-15.4-6.07-31.95-20.09-38.77-14.02-6.83-32.34-3.38-42.92,8.09-2.05-15.09-7.69-30.82-20.22-39.49-12.52-8.67-33.02-6.4-39.39,7.43-7.21-11.8-18.77-22.59-32.6-22.58-13.82,0-26.67,16.4-19.17,28.02-10.22-17.06-42.08-10.34-44.54,9.4-7.35-11.4-22.67-16.95-35.62-12.9-12.95,4.05-22.38,17.34-21.92,30.9-12.88-7.93-30.75-6.65-42.37,3.02-11.62,9.67-16.11,27.02-10.65,41.12-38.69,3.09-66.96,49.57-51.9,85.35"/>
    <path class="cls-40" d="M1062.11,816.66c-10.8,4.76-19.52,14.41-22.53,25.87-1.51-13.43-3.72-28.25-14.09-36.92-9.45-7.91-27.43-4.52-30.32,6.38,1.43-18.09-8.95-36.75-25.32-44.73-17.4-8.47-40.11-4.19-53.23,10.04-2.55-18.72-9.54-38.23-25.07-48.98-15.53-10.75-40.96-7.94-48.86,9.21-8.94-14.63-23.28-28.02-40.43-28.01-17.15,0-33.08,20.35-23.78,34.76-12.68-21.16-52.2-12.82-55.25,11.65-9.12-14.14-28.12-21.02-44.18-16-16.06,5.02-27.75,21.51-27.19,38.32-15.97-9.83-38.15-8.25-52.56,3.75-14.41,12-19.99,33.52-13.21,51.01-47.99,3.84-83.05,61.48-64.38,105.86l540.41,11.64v-133.87Z"/>
    <path class="cls-18" d="M67.14,923.2c-12.36-13.37-25.45-28.49-25.82-46.7-.37-18.21,20.59-36.39,35.77-26.32-4.4-10.94-.28-24.67,9.43-31.37,9.7-6.7,24.01-5.69,32.67,2.3,4.92-26.41,45.27-36.83,62.35-16.09-1.6-10.31,12.96-17.24,22.03-12.07,9.06,5.16,12.17,16.95,11.45,27.36,5.93-12.18,19.85-19.96,33.34-18.63,13.48,1.33,25.62,11.67,29.06,24.78,1.29-11.52,3.19-24.23,12.09-31.67,8.89-7.44,26.58-3.23,26.35,8.37-2.67-16.38,6.46-33.99,21.38-41.26,14.92-7.27,34.41-3.59,45.66,8.61,2.18-16.06,8.19-32.79,21.51-42.01,13.32-9.22,35.13-6.81,41.91,7.9,7.67-12.55,19.97-24.04,34.68-24.03,14.71,0,28.37,17.45,20.4,29.81,10.87-18.15,44.78-11,47.39,10,7.82-12.13,24.12-18.03,37.9-13.73,13.77,4.31,23.81,18.45,23.33,32.87,13.7-8.43,32.72-7.08,45.08,3.22,12.36,10.29,17.15,28.75,11.33,43.75,41.17,3.29,71.24,52.74,55.22,90.8"/>
    <path class="cls-14" d="M1105.74,1050.39H-348.46v-139.92l450.73-1.92c57.88-1.05,502.73-.63,560.62.39l442.85,1.53v139.92Z"/>
    <g>
      <path class="cls-29" d="M505.72,774.75s-2.34-8.84,3.48-9.12c5.83-.28,1.77,9.99,1.77,9.99,0,0,9.5-6.62,12.03-1.17,2.53,5.45-7.53,6.58-7.53,6.58,0,0,12.2-.81,11.51,4.37-.68,5.17-13.01.96-13.01.96,0,0,11.12,8.29,5.57,11.53-5.55,3.24-10.88-7.75-10.88-7.75,0,0,2.74,10.2-3.62,10.73-6.37.53-5.69-13.68-5.69-13.68,0,0-6.15,9.56-8.55,5.33-2.4-4.22,7.23-9.13,7.23-9.13,0,0-11.75-3.92-8.94-8.81,2.8-4.89,12.42,3,12.42,3,0,0-7.77-6.76-4.2-9.52,3.57-2.76,8.4,6.69,8.4,6.69Z"/>
      <path class="cls-32" d="M509.05,783.05c.64,1.38,2.28,1.98,3.66,1.34,1.38-.64,1.98-2.28,1.34-3.66-.64-1.38-2.28-1.98-3.66-1.34-1.38.64-1.98,2.28-1.34,3.66Z"/>
      <path class="cls-32" d="M499.63,779.96c.64,1.38,2.28,1.98,3.66,1.34,1.38-.64,1.98-2.28,1.34-3.66-.64-1.38-2.28-1.98-3.66-1.34-1.38.64-1.98,2.28-1.34,3.66Z"/>
      <path class="cls-32" d="M503.23,786.28c.64,1.38,2.28,1.98,3.66,1.34,1.38-.64,1.98-2.28,1.34-3.66-.64-1.38-2.28-1.98-3.66-1.34-1.38.64-1.98,2.28-1.34,3.66Z"/>
    </g>
    <g>
      <path class="cls-29" d="M515.78,832.43s-1.76-6.63,2.61-6.84c4.37-.21,1.33,7.49,1.33,7.49,0,0,7.13-4.97,9.03-.88,1.9,4.09-5.65,4.94-5.65,4.94,0,0,9.15-.61,8.64,3.28-.51,3.88-9.76.72-9.76.72,0,0,8.35,6.22,4.18,8.66-4.17,2.43-8.16-5.81-8.16-5.81,0,0,2.06,7.65-2.72,8.05-4.78.4-4.27-10.27-4.27-10.27,0,0-4.62,7.17-6.42,4-1.8-3.17,5.43-6.85,5.43-6.85,0,0-8.81-2.94-6.71-6.61,2.1-3.67,9.32,2.25,9.32,2.25,0,0-5.83-5.07-3.15-7.15,2.68-2.07,6.31,5.02,6.31,5.02Z"/>
      <path class="cls-32" d="M518.28,838.66c.48,1.04,1.71,1.48,2.75,1,1.03-.48,1.48-1.71,1-2.75-.48-1.04-1.71-1.49-2.75-1.01-1.03.48-1.48,1.71-1,2.75Z"/>
      <path class="cls-32" d="M513.91,841.08c.48,1.04,1.71,1.49,2.75,1,1.04-.48,1.49-1.71,1.01-2.75-.48-1.04-1.71-1.49-2.75-1.01-1.04.48-1.49,1.71-1.01,2.75Z"/>
    </g>
    <g>
      <path class="cls-29" d="M562.57,805.57s-.92-3.46,1.36-3.57c2.28-.11.69,3.91.69,3.91,0,0,3.72-2.59,4.71-.46.99,2.13-2.95,2.58-2.95,2.58,0,0,4.78-.32,4.51,1.71-.27,2.02-5.09.38-5.09.38,0,0,4.36,3.25,2.18,4.52-2.17,1.27-4.26-3.03-4.26-3.03,0,0,1.07,3.99-1.42,4.2-2.49.21-2.23-5.36-2.23-5.36,0,0-2.41,3.74-3.35,2.09-.94-1.65,2.83-3.58,2.83-3.58,0,0-4.6-1.53-3.5-3.45,1.1-1.91,4.86,1.17,4.86,1.17,0,0-3.04-2.65-1.65-3.73,1.4-1.08,3.29,2.62,3.29,2.62Z"/>
      <path class="cls-32" d="M563.87,808.82c.25.54.89.77,1.43.52.54-.25.77-.89.52-1.43-.25-.54-.89-.78-1.43-.53-.54.25-.77.89-.52,1.43Z"/>
      <path class="cls-32" d="M561.6,810.08c.25.54.89.77,1.43.52.54-.25.78-.89.52-1.43-.25-.54-.89-.78-1.43-.52-.54.25-.78.89-.53,1.43Z"/>
    </g>
    <path class="cls-29" d="M304.28,801.3s-.96-3.61,1.42-3.73c2.38-.11.72,4.08.72,4.08,0,0,3.88-2.7,4.92-.48,1.03,2.23-3.08,2.69-3.08,2.69,0,0,4.99-.33,4.7,1.78-.28,2.11-5.32.39-5.32.39,0,0,4.55,3.39,2.28,4.71-2.27,1.32-4.45-3.17-4.45-3.17,0,0,1.12,4.17-1.48,4.38-2.6.22-2.32-5.59-2.32-5.59,0,0-2.51,3.91-3.49,2.18-.98-1.73,2.95-3.73,2.95-3.73,0,0-4.8-1.6-3.65-3.6,1.15-2,5.08,1.23,5.08,1.23,0,0-3.18-2.76-1.72-3.89,1.46-1.13,3.43,2.73,3.43,2.73Z"/>
    <path class="cls-32" d="M305.64,804.69c.26.56.93.81,1.5.55.56-.26.81-.93.55-1.5-.26-.56-.93-.81-1.5-.55-.56.26-.81.93-.55,1.5Z"/>
    <path class="cls-32" d="M303.27,806.01c.26.56.93.81,1.5.55.57-.26.81-.93.55-1.5-.26-.56-.93-.81-1.5-.55-.57.26-.81.93-.55,1.5Z"/>
    <path class="cls-29" d="M338.41,818.95s-1.63-6.14,2.42-6.33c4.05-.19,1.23,6.94,1.23,6.94,0,0,6.6-4.59,8.35-.81,1.76,3.78-5.23,4.57-5.23,4.57,0,0,8.47-.56,7.99,3.03-.48,3.59-9.03.67-9.03.67,0,0,7.73,5.76,3.87,8.01-3.86,2.25-7.55-5.38-7.55-5.38,0,0,1.91,7.08-2.52,7.45-4.42.37-3.95-9.5-3.95-9.5,0,0-4.27,6.64-5.94,3.7-1.67-2.93,5.02-6.34,5.02-6.34,0,0-8.16-2.72-6.21-6.12,1.95-3.4,8.63,2.08,8.63,2.08,0,0-5.4-4.7-2.92-6.61,2.48-1.92,5.84,4.65,5.84,4.65Z"/>
    <path class="cls-32" d="M340.72,824.71c.44.96,1.58,1.37,2.54.93.96-.44,1.37-1.58.93-2.54-.44-.96-1.58-1.38-2.54-.93-.96.45-1.37,1.58-.93,2.54Z"/>
    <path class="cls-32" d="M336.69,826.95c.45.96,1.59,1.37,2.54.93.96-.44,1.38-1.58.93-2.54-.45-.96-1.58-1.38-2.54-.93-.96.44-1.37,1.58-.93,2.54Z"/>
    <g>
      <path class="cls-29" d="M447.91,780.21s-1.76-6.63,2.61-6.84c4.37-.21,1.33,7.49,1.33,7.49,0,0,7.13-4.97,9.03-.88,1.9,4.09-5.65,4.94-5.65,4.94,0,0,9.15-.61,8.64,3.28-.51,3.88-9.76.72-9.76.72,0,0,8.35,6.22,4.18,8.66-4.17,2.43-8.16-5.81-8.16-5.81,0,0,2.06,7.65-2.72,8.05-4.78.4-4.27-10.27-4.27-10.27,0,0-4.62,7.17-6.42,4-1.8-3.17,5.43-6.85,5.43-6.85,0,0-8.81-2.94-6.71-6.61,2.1-3.67,9.32,2.25,9.32,2.25,0,0-5.83-5.07-3.15-7.15,2.68-2.07,6.31,5.02,6.31,5.02Z"/>
      <path class="cls-32" d="M450.41,786.44c.48,1.04,1.71,1.48,2.75,1,1.03-.48,1.48-1.71,1-2.75-.48-1.04-1.71-1.49-2.75-1.01-1.03.48-1.48,1.71-1,2.75Z"/>
      <path class="cls-32" d="M443.34,784.13c.48,1.04,1.71,1.49,2.75,1,1.03-.48,1.48-1.71,1-2.74-.48-1.04-1.71-1.49-2.75-1-1.03.48-1.48,1.71-1,2.75Z"/>
      <path class="cls-32" d="M446.11,789.01c.45.96,1.65,1.34,2.68.86,1.04-.48,1.52-1.65,1.07-2.6-.45-.96-1.64-1.34-2.68-.86-1.04.48-1.52,1.65-1.07,2.61Z"/>
    </g>
    <g>
      <path class="cls-29" d="M623.61,838.95s-1.76-6.63,2.61-6.84c4.37-.21,1.33,7.49,1.33,7.49,0,0,7.13-4.97,9.03-.88,1.9,4.09-5.65,4.94-5.65,4.94,0,0,9.15-.61,8.64,3.28-.51,3.88-9.76.72-9.76.72,0,0,8.35,6.22,4.18,8.66-4.17,2.43-8.16-5.81-8.16-5.81,0,0,2.06,7.65-2.72,8.05-4.78.4-4.27-10.27-4.27-10.27,0,0-4.62,7.17-6.42,4-1.8-3.17,5.43-6.85,5.43-6.85,0,0-8.81-2.94-6.71-6.61,2.1-3.67,9.32,2.25,9.32,2.25,0,0-5.83-5.07-3.15-7.15,2.68-2.07,6.31,5.02,6.31,5.02Z"/>
      <path class="cls-32" d="M626.11,845.19c.48,1.04,1.71,1.48,2.75,1,1.03-.48,1.48-1.71,1-2.75-.48-1.04-1.71-1.49-2.75-1.01-1.03.48-1.48,1.71-1,2.75Z"/>
      <path class="cls-32" d="M619.04,842.87c.48,1.04,1.71,1.49,2.75,1,1.03-.48,1.48-1.71,1-2.74-.48-1.04-1.71-1.49-2.75-1-1.03.48-1.48,1.71-1,2.75Z"/>
      <path class="cls-32" d="M621.81,847.75c.45.96,1.65,1.34,2.68.86,1.04-.48,1.52-1.65,1.07-2.6-.45-.96-1.64-1.34-2.68-.86-1.04.48-1.52,1.65-1.07,2.61Z"/>
    </g>
    <g>
      <path class="cls-29" d="M389.43,806.67s-1.76-6.63,2.61-6.84c4.37-.21,1.33,7.49,1.33,7.49,0,0,7.13-4.97,9.03-.88,1.9,4.09-5.65,4.94-5.65,4.94,0,0,9.15-.61,8.64,3.28-.51,3.88-9.76.72-9.76.72,0,0,8.35,6.22,4.18,8.66-4.17,2.43-8.16-5.81-8.16-5.81,0,0,2.06,7.65-2.72,8.05-4.78.4-4.27-10.27-4.27-10.27,0,0-4.62,7.17-6.42,4-1.8-3.17,5.43-6.85,5.43-6.85,0,0-8.81-2.94-6.71-6.61,2.1-3.67,9.32,2.25,9.32,2.25,0,0-5.83-5.07-3.15-7.15,2.68-2.07,6.31,5.02,6.31,5.02Z"/>
      <path class="cls-32" d="M391.93,812.9c.48,1.04,1.71,1.48,2.75,1,1.03-.48,1.48-1.71,1-2.75-.48-1.04-1.71-1.49-2.75-1.01-1.03.48-1.48,1.71-1,2.75Z"/>
      <path class="cls-32" d="M384.86,810.58c.48,1.04,1.71,1.49,2.75,1,1.03-.48,1.48-1.71,1-2.74-.48-1.04-1.71-1.49-2.75-1-1.03.48-1.48,1.71-1,2.75Z"/>
      <path class="cls-32" d="M386.2,817.17c.48,1.04,1.71,1.49,2.75,1,1.04-.48,1.49-1.71,1.01-2.75-.48-1.04-1.71-1.49-2.75-1.01-1.04.48-1.49,1.71-1.01,2.75Z"/>
    </g>
    <g>
      <path class="cls-29" d="M450.23,823.35s-2.27-8.58,3.38-8.85c5.65-.27,1.72,9.69,1.72,9.69,0,0,9.22-6.42,11.67-1.14,2.45,5.28-7.31,6.39-7.31,6.39,0,0,11.84-.78,11.17,4.24-.66,5.02-12.62.93-12.62.93,0,0,10.79,8.05,5.41,11.19-5.39,3.14-10.55-7.52-10.55-7.52,0,0,2.66,9.89-3.52,10.41-6.18.51-5.52-13.28-5.52-13.28,0,0-5.97,9.27-8.3,5.18-2.33-4.1,7.01-8.86,7.01-8.86,0,0-11.4-3.8-8.68-8.55,2.72-4.75,12.05,2.91,12.05,2.91,0,0-7.54-6.56-4.08-9.24,3.47-2.68,8.15,6.49,8.15,6.49Z"/>
      <path class="cls-32" d="M453.46,831.41c.62,1.34,2.21,1.92,3.55,1.3,1.34-.62,1.92-2.21,1.3-3.55-.62-1.34-2.21-1.92-3.55-1.3-1.34.62-1.92,2.21-1.3,3.55Z"/>
      <path class="cls-32" d="M444.32,828.41c.62,1.34,2.21,1.92,3.55,1.3,1.34-.62,1.92-2.21,1.3-3.55-.62-1.34-2.21-1.92-3.55-1.3-1.34.62-1.92,2.21-1.3,3.55Z"/>
      <path class="cls-32" d="M446.05,836.93c.62,1.34,2.22,1.92,3.55,1.3,1.34-.62,1.92-2.21,1.3-3.55-.62-1.34-2.21-1.92-3.55-1.3-1.34.62-1.92,2.21-1.3,3.55Z"/>
    </g>
    <g>
      <path class="cls-29" d="M-4.43,810.12s-2.27-8.58,3.38-8.85c5.65-.27,1.72,9.69,1.72,9.69,0,0,9.22-6.42,11.67-1.14,2.45,5.28-7.31,6.39-7.31,6.39,0,0,11.84-.78,11.17,4.24-.66,5.02-12.62.93-12.62.93,0,0,10.79,8.05,5.41,11.19-5.39,3.14-10.55-7.52-10.55-7.52,0,0,2.66,9.89-3.52,10.41-6.18.51-5.52-13.28-5.52-13.28,0,0-5.97,9.27-8.3,5.18-2.33-4.1,7.01-8.86,7.01-8.86,0,0-11.4-3.8-8.68-8.55,2.72-4.75,12.05,2.91,12.05,2.91,0,0-7.54-6.56-4.08-9.24,3.47-2.68,8.15,6.49,8.15,6.49Z"/>
      <path class="cls-32" d="M-1.2,818.17c.62,1.34,2.21,1.92,3.55,1.3,1.34-.62,1.92-2.21,1.3-3.55-.62-1.34-2.21-1.92-3.55-1.3-1.34.62-1.92,2.21-1.3,3.55Z"/>
    </g>
    <g>
      <path class="cls-29" d="M238.81,838.41s-2.27-8.58,3.38-8.85c5.65-.27,1.72,9.69,1.72,9.69,0,0,9.22-6.42,11.67-1.14,2.45,5.28-7.31,6.39-7.31,6.39,0,0,11.84-.78,11.17,4.24-.66,5.02-12.62.93-12.62.93,0,0,10.79,8.05,5.41,11.19-5.39,3.14-10.55-7.52-10.55-7.52,0,0,2.66,9.89-3.52,10.41-6.18.51-5.52-13.28-5.52-13.28,0,0-5.97,9.27-8.3,5.18-2.33-4.1,7.01-8.86,7.01-8.86,0,0-11.4-3.8-8.68-8.55,2.72-4.75,12.05,2.91,12.05,2.91,0,0-7.54-6.56-4.08-9.24,3.47-2.68,8.15,6.49,8.15,6.49Z"/>
      <path class="cls-32" d="M242.05,846.47c.62,1.34,2.21,1.92,3.55,1.3,1.34-.62,1.92-2.21,1.3-3.55-.62-1.34-2.21-1.92-3.55-1.3-1.34.62-1.92,2.21-1.3,3.55Z"/>
      <path class="cls-32" d="M232.9,843.47c.62,1.34,2.21,1.92,3.55,1.3,1.34-.62,1.92-2.21,1.3-3.55-.62-1.34-2.21-1.92-3.55-1.3-1.34.62-1.92,2.21-1.3,3.55Z"/>
      <path class="cls-32" d="M234.63,851.99c.62,1.34,2.22,1.92,3.55,1.3,1.34-.62,1.92-2.21,1.3-3.55-.62-1.34-2.21-1.92-3.55-1.3-1.34.62-1.92,2.21-1.3,3.55Z"/>
    </g>
    <g>
      <path class="cls-29" d="M337.47,835.2s-1.22-4.59,1.81-4.73c3.03-.14.92,5.19.92,5.19,0,0,4.93-3.44,6.25-.61,1.31,2.83-3.91,3.42-3.91,3.42,0,0,6.33-.42,5.98,2.27-.36,2.68-6.75.5-6.75.5,0,0,5.78,4.31,2.89,5.99-2.88,1.68-5.65-4.02-5.65-4.02,0,0,1.43,5.29-1.88,5.57-3.31.28-2.95-7.11-2.95-7.11,0,0-3.19,4.96-4.44,2.77-1.25-2.19,3.75-4.74,3.75-4.74,0,0-6.1-2.03-4.64-4.57,1.46-2.54,6.45,1.56,6.45,1.56,0,0-4.03-3.51-2.18-4.94,1.86-1.43,4.36,3.47,4.36,3.47Z"/>
      <path class="cls-32" d="M339.2,839.52c.33.72,1.18,1.03,1.9.69.72-.33,1.03-1.18.69-1.9-.33-.72-1.18-1.03-1.9-.7-.72.33-1.03,1.18-.69,1.9Z"/>
      <path class="cls-32" d="M334.31,837.91c.33.72,1.18,1.03,1.9.69.72-.33,1.03-1.18.69-1.9-.33-.72-1.18-1.03-1.9-.7-.72.33-1.03,1.18-.69,1.9Z"/>
      <path class="cls-32" d="M336.18,841.19c.33.72,1.19,1.03,1.9.7.72-.33,1.03-1.18.7-1.9-.33-.72-1.18-1.03-1.9-.7-.72.33-1.03,1.18-.7,1.9Z"/>
    </g>
    <path class="cls-36" d="M906.41,477.52s4.1,24.61-14.48,29.58c-18.58,4.97-92.35-48.12-92.35-48.12l76.39,14.56,30.44,3.98Z"/>
    <path class="cls-2" d="M856.59,450.01s21.23,1.72,30.91,19.52"/>
    <path d="M256.65,908.35s-1.25,1.54-.46,4.14c.79,2.6,15.56-.49,20.72.01,5.15.5,25.76,2.52,30.76,1.1,5.01-1.42.15-7.81.15-7.81l-51.17,2.55Z"/>
    <path class="cls-36" d="M311.83,895.26c.67,2.92,1.18,3.68,1.87,6.47.8,3.21-.55,5.68-4.01,7.12-2.91,1.21-6.84,1.86-10.03,1.76-4.17-.13-8.62-.8-12.79-.93-3.57-.11-14.81-.82-18.3-.11-5.43,1.1-8.8.37-11.24-.44-.67-.23-1.09-.18-1.41-.69-.83-1.32-.76-2.8,1-3.97,2.23-1.47,4.98.43,7.05-1.29.37-.31.71-.65,1.14-.87.84-.44,1.86-.36,2.83-.37,4.8-.06,4.4-2.15,10.65-3.93,1.84-.52,16.22-9.77,17.91-10.61"/>
    <path d="M346.83,522.22c-.35.97-.7,1.94-.88,2.96-.68,3.87,1.53,8.07,5.11,9.7,3.58,1.63,8.2.53,10.66-2.53.27-.34.64-.74,1.06-.62.2.06.35.23.51.36,1.01.89,2.6.58,3.8-.03,4.72-2.37,6.9-8.78,4.6-13.54-.2-.41-.43-.84-.36-1.29.15-1.05,1.58-1.2,2.5-1.74,1.75-1.05,1.51-3.61,1.04-5.6-.3-1.28-.66-2.66-1.69-3.48-2.15-1.71-2.64-3.52-5.39-3.49,0,0,3.24-4.2.46-7.14-2.77-2.94-11.29.16-11.29.16"/>
    <path class="cls-8" d="M358.06,501.81l-3.51,12.07-12.62-33.74s-38.18-3.38-42.52-2.68c-4.35.7-8.32,10.25-8.32,10.25.47-3.91.51-14.89,5.35-17.45,2.02-1.07,5.33-.69,5.33-.69,0,0,2.59-4.01,6.42-6.08,3.84-2.08,9.27.27,9.27.27,0,0,1.61-2.64,6.07-3.57,4.46-.92,9.11,2.92,9.11,2.92,0,0,4.85-3.33,9.94-.59,4.29,2.31,5.85,5.76,5.85,5.76,9.43.12,12.27,7.09,12.56,14.64,1.39.56,2.92,1.4,3.73,2.59.11.15.2.34.3.5.03.14.07.27.11.4.24.99.48,2.19.55,2.93.21,2.19.03,3.88-1.16,5.63-.04.06-.04.13-.07.2-.56.49-1.11,1.01-1.4,1.67-.4.87-.05,1.78.16,2.65.63,2.6,2.19,5,2.36,7.71-.22,1.61-.6,3.21-1.04,4.78-.84,1.15-1.85,2.02-3.05,2.49l-2.06.26s2.6,7.76-1.62,11.3c-4.22,3.54-10.97,2.76-10.97,2.76,0,0-.04,7.57-5.76,7.71-5.71.14-15.2-9.38-15.2-9.38"/>
    <path d="M357.83,520.06c-2.1,4.2-7.89,8.29-11.66,11.12-3.85,2.9-5.57,3.54-10.21,3.8-9.04.5-18.31-1.22-26.21-5.88-8.15-4.8-14.16-12.52-17.03-21.69-2.01-6.41-2.76-12.91-2.4-19.36.14-.67.37-1.74.51-2.41,4.59-12.48,8.5-15.9,20.67-18.31,7.47-1.56,13.72-6.28,25.43-1.99,2.53.93,5.28,3.74,8.52,5.28,4.88,2.32,10.23,6.38,12.34,10.47,3.08,5.99,3.34,14.17,3.64,21.91.23,5.86-.93,11.71-3.55,16.97-.02.03-.03.07-.05.1Z"/>
    <path class="cls-36" d="M306.59,543.8c3.69-1.52,19.08-5.71,22.48-7.85,1.56-.98,13.08-9.29,14.43-10.61-4.15,14.4-.33,20.19,1.61,22.38l3.71,4.1c-8.95,14.58-37.02,30.15-51.57,4.82l9.34-6.55v-6.29Z"/>
    <path class="cls-36" d="M289.4,512.82c-.02-1.93-.03-4.17-.03-6.88,0-.78.02-1.54.05-2.28.05-.38.07-.77.05-1.15.7-13.16,5.19-19.97,5.19-19.97,5.73-8.61,15.6-13.52,25.92-12.88,12.14.5,22.96,8.11,28.52,15.66,2.76,3.74,4.05,8.37,3.62,13-.36,3.96-3.16,6.66-4.32,10.94,4.25-.11,8.79-.09,6.24,7.47-2.81,8.33-8.38,11.76-12.14,8.57-1.15.65.97-2.69.56.42-.22.2-1.37,7.31-1.49,7.66-1.15,3.61-5,5.88-8.13,7.58-3.29,1.79-6.79,3.33-10.3,4.62-4.94,1.82-10.31,3.23-15.68,3.56l.05-.68c-2.37-.21-1.28.09-4.19-.56-9.73-2.73-14.47-21.24-14.92-26.16-.38-4.18.4-6.42.99-8.92Z"/>
    <path class="cls-26" d="M306.63,548.21s12.49,2.37,25.37-7.23c0,0-3.66,5.48-11.12,7.95-7.47,2.47-14.29,1.15-14.29,1.15l.04-1.88Z"/>
    <path d="M343.23,514.22c.02-.06-.22-2.5-.49.48-.14,1.5,1.88-3.36,3.16-4.36.58-.46,1.27-.96,2-1.26.72-.29,3.29-.63,4.08-.72,1.11-.24,3.82,1.38,4.89,1.69.18.08-1.25-1.44-1.07-1.36,3.22-8.53,4.81-15.56-1.37-26.16-1.78-3.05-6.69-6.46-8.19-7.55-9.08-6.55-17.46-7.12-27.83-6.3-12.02.95-23.97,5.7-27.25,17.03-.79,2.73-1.03,3.88-.88,6.67,0,0,.87-6.19,6.8-9.35,5.92-3.16,7.03-3.18,15.19-2.9,9.46.29,12.37-1.15,19.79,2.67,6.77,3.5,8.1,6.4,8.1,6.4.37,1.64,1.35,3.06,1.99,4.6.63,1.52.83,3.12.87,4.75.08,3.35-.98,5.36-1.4,8.71-.26,2.08-1.33,6.18.72,7.59.92.63-.12-.33.9-.65Z"/>
    <path d="M290.91,507.46c1.25-.76,2.51-1.41,5.01-1.14,4,.43,6.2,5.1,6.2,5.1,0,0-2.55-2.92-6.49-3.44-1.9-.25-4.8.26-6.26.98.05-.38.79-.99,1.54-1.49Z"/>
    <path class="cls-26" d="M351.65,516.99c.48-1.31.71-2.85.16-4.18-.13-.32-.23-.45-.55-.57-1.27-.47-2.57.18-3.42,1.14-1.15,1.29-1.75,3.04-2.21,4.67-.1.37.38.37.59.22s.68-.42.97-.28c.36.18.38.85.34,1.18-.12,1.26-1.26,1.81-2.4,1.9-.41.03-.55.59-.06.55,1.52-.13,3.19-.97,3.2-2.71,0-.6-.18-1.32-.84-1.49-.59-.15-1.23.15-1.71.48l.59.22c.39-1.39.87-2.83,1.71-4.02.41-.58.95-1.16,1.62-1.38.37-.12.78-.12,1.07-.03.09.03.2.1.3.12.05,0-.05-.05-.01,0-.1-.13,0,.03.01.06.5,1.34.41,2.67-.08,4.01-.15.4.58.41.7.1h0Z"/>
    <path d="M314.11,511.92s2.38-5.38,8.22-5.13c4.97.21,6.75,2.73,7.78,4.3,0,0-2.96-2.48-7.76-2.85-4.35-.33-8.24,3.68-8.24,3.68Z"/>
    <path class="cls-31" d="M306.81,530.26c3.73.06,10.59-.35,10.59-.35,0,0-.41,10.17-10.75,9.83-8.64-.29-8.14-9.36-8.14-9.36,0,0,4.57-.19,8.3-.12Z"/>
    <path class="cls-10" d="M306.78,530.26c1.77.03,8.38.07,8.38.07,0,0-2.01,5.73-8.42,5.62-6.95-.12-6.91-5.47-6.91-5.47l6.95-.23Z"/>
    <path class="cls-35" d="M306.69,530.91c1.77.03,7.17-.16,7.17-.16,0,0-1.98,1.83-7.29,1.74-5.32-.09-6.98-1.93-6.98-1.93l7.1.36Z"/>
    <path class="cls-31" d="M297.96,529.81c0-.19.39-.27,1.27-.33,1.47-.1,1.96-.61,3.02-.67,1.82-.1,2.96.61,3.75.62.79.01,1.95-.65,3.77-.49,1.06.1,4.32.53,5.79.68.88.09,1.92-.22,2.1-.18.26.07-1.03,2.45-10.95,2.27-9.92-.17-8.76-1.65-8.75-1.91Z"/>
    <path class="cls-7" d="M314.77,501.56c0-.09.3-.11.29-.2,4.82-1.34,8.52-1.54,9.88-1.32,1.03.17,2.05.56,3.01,1.1,0,0,2.66,1.45,3,2.04.34.6-1.6-.26-1.6-.26-.41-.12-.7-.26-1.12-.32-2.31-.32-4.54-.96-6.84-.58-1.97.31-4.61,1.6-6.49,2.43-.09-.99.03-1.91-.13-2.89Z"/>
    <path class="cls-7" d="M302.37,502.21c.01-.09-.26-.12-.25-.21-4.17-1.4-7.39-1.66-8.59-1.45-.91.15-1.8.53-2.66,1.06,0,0-1.09.32-1.4.91-.31.59.13.85.13.85.36-.11.62-.25.99-.31,2.03-.29,3.99-.9,5.99-.49,1.71.34,3.98,1.66,5.59,2.51.11-.99.02-1.91.2-2.88Z"/>
    <path class="cls-36" d="M315.13,901.66s-24.6,5.96-31.66,6.19c-7.06.23-7.79-2.05-7.79-2.05,0,0,7.83-5.06,16.69-9.63,1.87-.96-4.53-62.24-8.53-90.97-2.78-19.96-1.3-35.9-1.3-35.9l32.54,2.34-.47,30.49,1.53,5.55c.8,2.9.77,8.44,1.06,11.45.77,8.12,2.01,18.92,1.79,23.08-.38,7.05-2.56,16.65-2.76,19.13l-4.4,29.63,3.3,10.69Z"/>
    <path class="cls-36" d="M351.16,902.06s-30.81,16.24-37.87,16.25c-7.06.01-4.64-3.74-4.64-3.74,0,0,18.72-18.32,20.54-21.69,1-1.85-3.99-58-7.1-86.83-2.16-20.03-2.3-35.97-2.3-35.97l32.46,3.34,3.28,29.25,1.36,5.59c.71,2.92,1.71,8.11,1.9,11.12.52,8.14,1.05,21.82.7,25.97-.59,7.03-5.12,24.32-5.4,26.79l-3.5,21.96.57,7.96Z"/>
    <path d="M352.55,911.02s1.06.06,1.13,3.68c.09,4.86-14.96,4.16-18.97,4.5-4.01.35-16.8,4.24-25.84,4.55-9.03.32-18.22-5.16-19.12-8.02-.9-2.85.2-4.15,2.14-4.9,1.93-.75,57.88-2.74,57.88-2.74l2.77,2.91Z"/>
    <path class="cls-36" d="M350.72,889.97c-.26,3.03.77,7.35,1.46,13.74.3,2.81,2.56,6.84-.4,8.87-5.24,3.6-11.45,2.13-13.82,2.68-4.98,1.16-8.95,1.14-13.73,2.7-4.85,1.58-5.84,1.96-11.17,2.28-.74.04-1.51.02-2.15-.31-.43-.22-.76-.57-1.19-.79-1.51-.78-3.42.25-5.15.02-.76-.1-1.45-.45-2.16-.72-1.87-.72-3.92-.96-5.9-1.38-1.98-.42-4-1.08-5.37-2.43-1.37-1.35-1.89-3.55-.7-5.03,1.8-2.24,4.11-.92,6.55-1.13,2.43-.21,3.34-.59,5.49-1.56,5.48-2.49,6.33-2.99,10.95-4.94,3.59-1.51,14.13-6.35,19.19-9.79v-12.04"/>
    <g>
      <path class="cls-26" d="M309.83,919.23c-.69-.2-.96-1.02-.89-1.68s.46-1.16.93-1.56c1.02-.88,2.36-1.31,3.58-1.82.1-.04.06-.21-.05-.16-1.1.46-2.24.85-3.23,1.53-.85.59-1.57,1.47-1.39,2.57.09.57.41,1.12,1,1.29.11.03.15-.13.05-.16h0Z"/>
      <path class="cls-26" d="M304.48,919.25c-1.34-.03-1.27-1.91-1.08-2.82.36-1.68,2.03-2.26,3.45-2.8.93-.35,1.85-.94,2.87-.92.11,0,.11-.17,0-.17-1-.02-1.92.53-2.83.89s-1.84.63-2.61,1.27c-.56.46-.91,1.01-1.06,1.72-.13.62-.16,1.31,0,1.93.17.61.58,1.07,1.24,1.08.11,0,.11-.17,0-.17h0Z"/>
      <path class="cls-26" d="M300.69,918.02c-.92-.34-1.3-1.47-1.21-2.38.09-.86.61-1.58,1.25-2.13.67-.58,1.47-1.01,2.28-1.36s1.75-.69,2.64-.87c.11-.02.06-.19-.05-.16-.81.16-1.63.46-2.4.77-.72.29-1.42.63-2.06,1.08-1.11.78-2.03,1.93-1.81,3.36.12.79.54,1.57,1.32,1.85.1.04.15-.13.05-.16h0Z"/>
      <path class="cls-26" d="M296.9,917.3c-1.14-.51-1.92-1.69-1.96-2.94-.03-1.06.59-1.79,1.43-2.36s1.79-.97,2.74-1.31c.39-.14.79-.27,1.19-.41.53-.17,1.11-.5,1.68-.46.11,0,.11-.16,0-.17-.46-.03-.91.18-1.34.33-.38.14-.77.26-1.16.39-.81.28-1.61.59-2.37.99-.7.37-1.41.82-1.89,1.46s-.55,1.49-.35,2.27c.26,1.03.97,1.92,1.94,2.35.1.04.19-.1.09-.15h0Z"/>
    </g>
    <path class="cls-26" d="M269.51,902.47c-1.66.52-3.56,1.05-4.86,2.21-.97-.7-2.24-.87-3.42-.69,1.14-.29,2.43-.14,3.45.53l-.11.03c1.33-1.19,3.23-1.69,4.94-2.08h0Z"/>
    <path class="cls-4" d="M314.94,901.03s-13.19,7.89-17.96,7.44c0,0-3.51-.64-5.04.02-1.52.66-2.03,2.13-2.03,2.13"/>
    <path d="M310.86,902.32c-1.33,0-2.61.54-3.54,1.49l-5.72,5.93,1.57-.3,8.85-7.12h-1.16Z"/>
    <path d="M301.98,909.74s.53-1.25,2.73-1.54c6.93-.93,22.43-.71,24.31,9.45l-2.53.98s-3.15-7.71-9.6-8.37c-6.45-.66-14.91-.52-14.91-.52Z"/>
    <path d="M266.69,903.4s6.4-2.18,6.31,6.36l3.83.08s-1.38-7.95-4.97-8.25c-3.59-.3-5.17,1.82-5.17,1.82Z"/>
    <path class="cls-30" d="M306.59,550.09c-4.83,1.42-15.7,6.64-18.55,8.33-20.1,11.97-13.27,26.36-14.59,41.62,3.55,8,2.35,9.1,2.35,9.1,0,0,.65,24.22.32,35.35-.22.6,2.2,5.34,1.98,6.49,13.28,1.95,23.35,4.08,36.67,3.87,10.87-.16,20.83-3.44,31.49-5.75,7.82-1.69,13.04-4.55,20.97-5.53-2.73-3.9-1.89-13.4-3.49-21.86,0,0,5.39,3.61,9.69.82,0,0,12.93-47.06-7.02-62.09-5.8-4.37-15.19-9.11-20.59-12.73,0,0-12.31,16.76-28.74,14.88-.6-.07-1.18-.15-1.73-.23-.55-.08-1.64,6.56-2.14,6.46-.52-.1-.45-6.95-.92-7.07-12.93-3.25-5.71-11.67-5.71-11.67Z"/>
    <path class="cls-17" d="M381.47,695.81c4.74,54.95,2.74,162.91,4.36,182.46-7.56,7.3-8.59,1.03-21.38,8.94-6.74,4.17-14.19,4.87-21.64,0-7.46-4.87-13.67-3.24-23.3,1.62-9.63,4.87-15.38-4.1-20.98-4.5-5.59-.41-6.03,2.63-17.7,1.42-9.92-1.03-6.24-10.52-12.15-10.12,2.5-78.23-1.32-157.99,7.59-235.4,8.49,6.37,20.58,10.28,33.79,10.1,10.92-.15,44.39-.37,56.44-9.33h0c.46,4.38,11.78,22.81,13.88,46.13"/>
    <path class="cls-12" d="M359.54,638.05c-1.46-7.74-2.75-15.51-3.9-23.3-.9-6.11-1.72-12.24-2.27-18.39-.43-4.9-.86-9.95.11-14.81.74-3.71,2.17-7.4,4.61-10.34.86-1.03,1.94-2.16,3.12-2.77.46-.24.05-.62-.33-.42-3.31,1.72-5.57,5.62-6.84,8.95-2,5.24-2.05,10.6-1.7,16.1.78,12.07,2.76,24.09,4.8,36.01.52,3.06,1.06,6.12,1.64,9.17.06.33.83.14.76-.2h0Z"/>
    <g>
      <path class="cls-9" d="M304.25,523.61c.89.51,2.27.46,3.21-.07.21-.12.88.03.59.2-1.23.7-3.22.69-4.37.03-.11-.07-.09-.15.06-.2.15-.04.39-.02.51.05"/>
      <path class="cls-9" d="M308.45,523.49c.62-.26,1.31-.39,1.99-.41.1,0,.23.04.3.11.06.05.06.12-.01.16-.32.17-.72.23-1.09.21-.12,0-.27-.04-.33-.14-.06-.09.06-.15.15-.15.3.02.62-.03.88-.17.1.09.19.18.29.27-.61.02-1.23.14-1.78.38-.11.05-.26,0-.36-.05-.07-.05-.14-.15-.03-.2"/>
      <path class="cls-9" d="M311.15,523.68c.8.01,1.75-.3,2.16-.88.63-.88.13-2.43-.84-3.05-.11-.07-.05-.15.07-.17.14-.03.31.04.42.11.85.54,1.37,1.83,1.2,2.68-.15.79-.94,1.32-1.9,1.51-.29.06-.59.09-.89.09-.12,0-.34-.05-.39-.14-.06-.1.06-.14.17-.13"/>
      <path class="cls-9" d="M302.8,523.14c.05-.09-.03-.15-.09-.15-.22,0-.43-.07-.61-.23-.07.08-.15.17-.22.25.43.06.86.22,1.23.5.07.05.19.03.26-.03.05-.04.11-.14.04-.19"/>
      <path class="cls-9" d="M303.4,523.28c-.42-.31-.9-.48-1.38-.55-.07,0-.16.02-.22.09-.04.05-.05.12,0,.16"/>
      <path class="cls-9" d="M301.14,523.19c-.52-.04-1.11-.41-1.35-1.03-.35-.92.05-1.99.72-2.54.07-.06.04-.14-.03-.17-.09-.03-.2.01-.28.08-.58.48-.98,1.29-.93,2.15.05.8.52,1.38,1.14,1.63.18.08.38.13.57.15.08,0,.22-.02.26-.12.04-.09-.03-.14-.1-.14"/>
    </g>
    <path class="cls-36" d="M347.01,506.24c-.54.2-4.83-2.01-5.33-1.4-9.06-15.45-37.06-25.07-50.77-12.4.58-2.37,3.16-7.82,3.64-8.58,5.13-8.3,14.88-12.37,25.71-13.34,10.82-.96,24.22,2.43,30.86,13.49,6.44,10.72,7.46,20.49-4.11,22.22Z"/>
    <g>
      <path d="M336.61,491.76l.2-.41c.54.95,1.43,1.69,2.47,2.04.61.21,1.41.44,1.45,1.08.01.19-.05.38-.04.56.08,1.2,2.31.46,3.04,1.42.62.81-.37,2.1.19,2.94.49.75,1.81.54,2.3,1.29.61.94-.64,2.41.15,3.21.56.57,1.69.17,2.23.77.25.28.29.69.34,1.09-1.92.65-3.83,1.43-5.85,2.09-.02-.44.01-.9.1-1.32.08-.37.17-.78-.02-1.11-.42-.73-1.62-.3-2.32-.78-1.22-.84.4-3.04-.55-4.17-.57-.67-1.81-.57-2.22-1.35-.54-1.02.86-2.59-.06-3.29-.28-.22-.67-.22-1-.35-.65-.26-1-1.01-.99-1.72s.3-1.37.58-2.01Z"/>
      <path d="M336.74,491.78l.2-.41-.25.04c.49.82,1.18,1.48,2.05,1.89.44.21.98.28,1.38.55.61.41.29.87.49,1.43.49,1.38,3.18-.03,3.21,1.92,0,.71-.43,1.49-.06,2.17.4.73,1.33.65,1.96,1.04,1.46.91-.84,3.29,1.12,3.86.68.2,1.52,0,1.85.82s-.64.87-1.2,1.08c-1.47.53-2.93,1.09-4.41,1.58l.16.08c-.02-.62.14-1.17.18-1.77.02-.31-.01-.62-.23-.85-.57-.61-1.58-.19-2.22-.65-1.33-.94.59-3.16-.68-4.29-.63-.56-1.81-.46-2.14-1.34-.3-.8.38-1.64.33-2.44-.04-.75-.58-.82-1.17-1.03-1.68-.59-1.08-2.49-.56-3.68.06-.14-.21-.14-.26-.03-.39.89-.83,1.92-.43,2.89.14.34.36.64.68.83.36.22.86.17,1.18.44.71.58-.07,1.84-.1,2.56s.36,1.09.97,1.36c.47.21,1.05.29,1.4.71.32.38.33.9.28,1.38-.07.7-.37,1.49-.15,2.19.2.62.75.81,1.35.89.72.09,1.54.1,1.48,1.09-.04.6-.2,1.16-.18,1.77,0,.08.09.1.16.08,1.97-.65,3.89-1.42,5.85-2.09.06-.02.12-.06.11-.13-.13-.99-.44-1.39-1.43-1.53-.82-.11-1.48-.31-1.39-1.28.04-.46.22-.89.27-1.35.07-.76-.29-1.22-.99-1.48-.5-.19-1.17-.24-1.49-.73-.34-.52-.08-1.2,0-1.75.09-.68-.04-1.27-.7-1.57s-1.65-.06-2.25-.52c-.47-.36-.08-.94-.34-1.39-.14-.24-.39-.39-.64-.51-.54-.26-1.12-.38-1.64-.7-.65-.4-1.15-.95-1.54-1.6-.05-.08-.22-.03-.25.04l-.2.41c-.07.14.2.14.26.03Z"/>
    </g>
    <g>
      <path d="M338.8,485.53c-.57.56-.72,1.5-.36,2.21.36.71,1.22,1.14,2.01,1.01-.36.97.24,2.19,1.24,2.49.43.13.91.12,1.26.39.87.67.17,2.34,1.05,2.99.33.25.79.26,1.12.51.67.52.34,1.65.83,2.34.6.84,2.09.62,2.64,1.49.39.61.18,1.6.81,1.96.33.19.79.11,1.07.37.34.31.18.86.18,1.32,0,1.14,1.35,2.05,2.4,1.61.02.76.38,1.51.96,2.01.48-.74.97-1.5,1.12-2.37.14-.87-.15-1.87-.92-2.3-.3-.16-.66-.24-.91-.47-.63-.59-.24-1.82-.91-2.37-.45-.36-1.23-.24-1.55-.73-.15-.23-.14-.53-.18-.81-.15-.98-1.16-1.74-2.15-1.62-.28.03-.57.13-.83.01-.74-.32-.1-1.52-.45-2.26-.35-.72-1.54-.72-1.81-1.47-.09-.25-.05-.53-.11-.79-.1-.41-.45-.7-.78-.97-1.69-1.35-3.42-2.65-5.19-3.88"/>
      <path d="M338.67,485.56c-.93,1.09-.61,2.79.86,3.2.54.15.6-.03.68.54s.12.99.5,1.43c.56.65,1.18.47,1.88.82.73.37.68,1.17.76,1.87.07.63.2,1.09.78,1.4.46.24.86.2,1.14.73.14.26.15.57.21.86.11.56.18,1.08.67,1.43.53.38,1.24.39,1.8.72.78.47.61,1.15.9,1.88.27.66.8.53,1.3.91.69.52.15,1.32.55,2.05.25.46.72.81,1.22.94.17.04.83-.06.92,0,.21.15.28.94.41,1.19.17.3.38.53.62.77.04.04.23-.02.26-.07.68-1.05,1.45-2.28,1.04-3.57-.39-1.24-1.86-1.16-2.13-2.41-.1-.45-.07-.98-.37-1.37-.36-.46-.88-.34-1.35-.61-.62-.35-.43-1.05-.71-1.61-.24-.48-.69-.87-1.2-1.04-.3-.1-.57-.06-.88-.09-1.28-.13-1.12-.38-1.09-1.31.05-1.3-.67-1.24-1.53-1.92-.6-.48-.35-1.21-.8-1.79-.36-.46-.92-.79-1.38-1.15-1.4-1.1-2.84-2.15-4.29-3.17-.06-.04-.28.07-.25.09,1.46,1.02,2.89,2.07,4.29,3.17.58.45,1.43.93,1.66,1.67.17.53.03.9.51,1.27.41.31.96.4,1.29.82.36.47.2,1.01.2,1.56,0,1.37,1.14.68,2.01.96.71.23,1.18.79,1.34,1.51.15.66.1.92.79,1.2.6.24,1.05.24,1.3.91.19.52.08,1.15.41,1.62.31.44.88.48,1.28.8.48.38.71,1.02.73,1.61s-.29,1.87-.79,2.33c-.07.32-.19.37-.35.15-.17-.09-.28-.23-.35-.41-.24-.37-.31-.82-.35-1.25,0-.04-.17,0-.18.01-.8.25-1.65-.2-2.03-.88-.27-.48-.11-.93-.16-1.45-.04-.41-.12-.57-.47-.76-.24-.13-.59-.08-.82-.22-.3-.19-.38-.45-.46-.75-.22-.79-.24-1.39-1.07-1.76-.9-.41-1.84-.41-2.15-1.51-.24-.84-.09-1.58-1.01-1.97-1.2-.51-1.09-1.14-1.27-2.28-.13-.8-.48-1.1-1.23-1.29-1.24-.32-2.13-1.22-1.74-2.58,0-.03-.06-.03-.07-.02-1.87.17-2.71-1.87-1.57-3.2,0-.01-.21,0-.26.05h0Z"/>
    </g>
    <g>
      <path d="M340.32,483.32c-.27,1.22.66,2.57,1.9,2.74.24.03.5.03.71.16.44.26.42.89.59,1.37.37,1.1,1.72,1.49,2.88,1.5.74,0,1.69.06,1.93.76.1.28.04.6.18.85.37.68,1.71.36,1.93,1.1.1.34-.13.71-.05,1.05.18.73,1.34.53,1.9,1.03.26.23.36.59.44.93.26,1.04.51,2.07.77,3.11.06.25.16.55.4.64.41.16.74-.37.85-.8.63-2.41.63-4.98,0-7.38-.16-.6-.52-1.32-1.14-1.28-.21.01-.42.11-.61.03-.31-.14-.25-.58-.21-.91.14-1.38-1.28-2.69-2.65-2.42-.37.07-.8.22-1.08-.02-.19-.16-.22-.44-.33-.66-.27-.58-1-.77-1.64-.78-.64,0-1.31.1-1.9-.14-.74-.3-1.25-1.1-2.04-1.23-.96-.16-2.02.74-2.83.2"/>
      <path d="M340.18,483.34c-.12.71.06,1.4.52,1.96.22.27.5.5.82.65.54.26,1.32.11,1.61.73.33.73.25,1.37.97,1.88.59.42,1.33.57,2.04.61.49.03,1.01-.02,1.48.17.62.26.52.68.68,1.2.21.65.84.64,1.39.83,1.11.38.12,1.32.81,1.9.65.56,1.6.21,1.98,1.18s.55,2.18.82,3.23c.12.49.3,1.17.95.94.54-.2.67-.95.77-1.43.25-1.13.36-2.28.34-3.44s-.15-2.31-.46-3.41c-.15-.53-.42-1.2-1.04-1.31-.55-.1-.97.07-.94-.66.01-.35.04-.65-.07-1-.23-.73-.85-1.33-1.58-1.57-.29-.1-.59-.13-.89-.11-.15,0-.59.12-.66.12-.78-.03-.63-.36-.84-.76-.45-.82-1.46-.8-2.27-.79-.9.01-1.49-.19-2.19-.74-.3-.23-.59-.48-.96-.59-1.01-.31-2.06.66-3.01.16-.08-.04-.32.07-.21.13.49.26.96.18,1.48.04.59-.16,1.14-.37,1.75-.11.47.2.81.62,1.24.89.66.42,1.32.36,2.07.37.54,0,1.18.02,1.6.42.29.28.28.75.58,1,.49.4,1.38-.07,1.92.06,1.08.24,1.82,1.26,1.78,2.35-.01.35-.12.78.27.97.42.2.78-.17,1.25.29.37.36.47,1.01.58,1.49.46,2.13.46,4.41-.07,6.53-.15.58-.51,1.34-1.06.39-.21-.37-.24-.99-.35-1.41-.19-.76-.24-2.07-.87-2.64-.41-.38-1.02-.33-1.5-.57-.81-.43.05-1.34-.61-1.85-.43-.33-1.08-.2-1.49-.56-.38-.34-.21-.8-.44-1.21-.13-.22-.33-.35-.56-.45-.68-.29-1.47-.14-2.18-.26-1.22-.22-1.84-.81-2.14-1.97-.23-.87-.65-.83-1.41-1.03-1.15-.31-1.83-1.51-1.64-2.65.02-.1-.25-.06-.27.03h0Z"/>
    </g>
    <g>
      <path d="M342.22,481.93c1.51.72,3.28-1.51,4.77-.75.72.37,1.19,1.38,1.99,1.25.37-.06.68-.36,1.05-.32.77.09.6,1.31,1.09,1.9.61.74,2.01.26,2.63.99.18.21.26.48.42.69.3.41.83.57,1.28.79.46.22.92.62.88,1.13,1.1-1.74.71-4.26-.85-5.59-.17-.14-.35-.28-.46-.48-.1-.19-.11-.41-.15-.63-.17-1.08-.96-2.03-1.98-2.41-.36-.13-.76-.21-1.01-.49-.36-.4-.27-1.02-.46-1.52-.43-1.17-2.05-1.3-2.99-2.12-.39-.34-.66-.8-1.03-1.17-.39-.39-.9-.67-1.44-.8-.43-.1-.96-.06-1.21.31-.17.25-.15.58-.26.87-.27.72-1.2.88-1.97.89-.77,0-1.67.03-2.11.66-.62.89.25,2.1.09,3.18-.07.47-.35.9-.38,1.37-.03.44.15.85.33,1.25.31.71.63,1.41.94,2.12"/>
      <path d="M342.1,481.99c1.12.46,2.17-.29,3.2-.68.67-.25,1.3-.3,1.9.15.28.21.5.5.78.72.45.35.73.33,1.25.25.25-.04.79-.23,1.05-.07.13.08.21.41.26.55.1.31.15.64.31.93.28.51.76.63,1.3.72.45.07.97.07,1.34.37.35.27.43.76.78,1.05.66.56,1.87.61,1.93,1.67,0,.09.25,0,.28-.04.57-.97.77-2.09.54-3.2-.11-.57-.34-1.12-.66-1.61s-.89-.81-1.16-1.31c-.28-.53-.25-1.16-.57-1.7-.29-.47-.69-.88-1.18-1.14-.69-.38-1.45-.36-1.68-1.26-.15-.58-.15-1.1-.61-1.54-.82-.8-2.06-.91-2.85-1.78-.74-.82-1.47-1.81-2.72-1.76-.26.01-.58.07-.78.25-.64.55-.17,1.28-1.17,1.65s-2.17-.02-3.02.63c-1.18.9,0,2.56-.27,3.73-.17.73-.45,1.17-.2,1.92.3.89.76,1.75,1.14,2.6.04.09.32,0,.29-.08-.49-1.1-1.51-2.57-1.18-3.81.13-.48.33-.88.3-1.4-.03-.56-.26-1.09-.31-1.65-.1-1.15.88-1.57,1.9-1.61.43-.02.84-.02,1.25-.13.26-.07.53-.17.75-.35.38-.3.31-.66.51-1.06.08-.15,1.09-.5,1.3-.47.13.02.32.12.44.18.28.14.53.33.75.54.44.44.75.98,1.26,1.35.75.54,1.76.7,2.4,1.39.74.79.24,1.97,1.4,2.42,1.23.48,2.12,1.16,2.39,2.53.12.64.31.82.78,1.27s.78.95,1,1.53c.49,1.27.38,2.69-.31,3.86l.28-.04c-.04-.86-.86-1.09-1.51-1.43-.76-.39-.89-1.32-1.73-1.58s-1.81-.04-2.21-1.04c-.18-.45-.18-1.15-.66-1.41-.16-.09-.34-.09-.52-.06-.55.08-1.05.35-1.59.02-.58-.35-.86-.97-1.58-1.1-1.53-.27-2.82,1.5-4.32.89-.08-.03-.34.09-.23.13h0Z"/>
    </g>
    <g>
      <path d="M337.74,481.76c-.89-.45-1.21-1.75-.62-2.56.2-.27.49-.56.37-.87-.05-.13-.17-.23-.27-.33-.65-.64-.59-1.85.11-2.43.15-.12.32-.22.43-.38.43-.66-.59-1.71-.02-2.26.48-.46,1.32.22,1.93-.05.6-.26.57-1.21,1.13-1.53.83-.48,2.17.79,2.72,0,.28-.42-.08-1.01-.54-1.21-.46-.2-.99-.17-1.48-.28-1.27-.3-2.07-1.53-3.18-2.22-1.16-.72-2.58-.81-3.94-.88-.58-.03-1.19-.06-1.73.14-.84.31-1.44,1.2-1.41,2.1,0,.17.03.37-.09.5-.07.08-.17.11-.26.15-.48.17-.96.35-1.44.52-.18.07-.38.14-.47.32-.21.4.33.78.77.83s1,.07,1.18.48c.34.76-1.17,1.3-1.04,2.12.14.85,1.72.66,1.96,1.48.14.49-.32.97-.29,1.48.03.52.57.86,1.07,1.03s1.06.25,1.43.63c.28.29.39.69.57,1.05.55,1.08,1.72,1.69,2.81,2.22"/>
      <path d="M337.85,481.69c-.48-.28-.8-.74-.87-1.3-.09-.64.22-1.01.52-1.53.17-.29.2-.49,0-.78-.36-.51-.68-.85-.58-1.54.13-.85,1.18-1.1,1.06-2-.05-.39-.37-.87-.29-1.26.14-.69,1.09-.26,1.57-.27.6,0,.87-.37,1.11-.88.29-.63.81-.9,1.49-.71.34.09.68.25,1.03.25.42,0,.84-.24.85-.7.02-.78-.86-1.02-1.45-1.11-.65-.1-1.21-.22-1.75-.59-.51-.35-.94-.79-1.41-1.19-.78-.65-1.64-1.05-2.64-1.23-1.52-.28-3.89-.7-4.96.76-.23.31-.38.68-.43,1.07-.04.3-.04.65-.29.89-.19.18-.72.26-.96.35-.42.15-1.44.43-.95,1.08s2.53.31,1.72,1.48c-.3.44-1,.83-.9,1.45.12.74,1.17.72,1.64,1.09.87.68-.5,1.77.41,2.56.4.34.91.41,1.39.58.86.3.99.97,1.41,1.66.61.99,1.71,1.54,2.72,2.04.08.04.33-.08.21-.14-.93-.46-1.95-.95-2.56-1.82-.52-.74-.59-1.51-1.51-1.85-.48-.18-1.04-.24-1.43-.6-.64-.59-.12-1.08-.05-1.76.06-.6-.42-.86-.91-1.05-.29-.11-.68-.2-.89-.44-.39-.43-.01-.9.3-1.24.28-.3.74-.68.59-1.15-.07-.23-.26-.36-.47-.45-.13-.05-.28-.07-.41-.09-.16-.03-.3-.04-.46-.09-.44-.13-.61-.16-.39-.63.2-.41.36-.41.76-.55.24-.09.48-.17.72-.26s.43-.15.53-.4c.15-.35.02-.79.17-1.17.3-.79,1-1.28,1.84-1.36,1.14-.1,2.51.03,3.61.35,1.17.34,1.94,1.08,2.85,1.84.57.48,1.15.84,1.89.97.44.08.83.07,1.22.29.19.1.27.13.39.28.26.33.12.35-.2.63-.41.35-.35.33-.75.21-.19-.06-.37-.12-.57-.17-.42-.09-.87-.1-1.22.2-.22.19-.32.47-.44.72-.06.13-.12.34-.23.44-.36.32-.92.21-1.34.14-.4-.06-.87-.03-1.06.38-.39.83.7,1.52-.1,2.32-.55.54-.92,1.14-.68,1.96.16.55.76.85.54,1.49-.13.38-.46.6-.53,1.03-.13.78.25,1.54.93,1.94.08.05.32-.07.21-.14h0Z"/>
    </g>
    <g>
      <path d="M336.89,484.09c-.09-1.24-1.91-1.28-2.9-2.03-.76-.57-1.07-1.65-1.92-2.06-.62-.29-1.46-.21-1.85-.78-.22-.33-.19-.76-.33-1.14-.52-1.43-3.01-1.26-3.48-2.71-.42-1.3,1.23-2.82.43-3.93-.25-.35-.69-.53-.89-.91-.4-.76.39-1.57,1.09-2.06.98-.68,1.96-1.37,2.94-2.05-2.14-1.17-4.62-1.71-7.05-1.53-.89.07-1.82.25-2.51.82s-1.05,1.63-.59,2.39c.13.23.33.42.43.66.43,1.07-1.19,2.43-.39,3.26.19.19.46.28.64.48.53.58-.09,1.61.34,2.26.37.57,1.26.46,1.8.87.32.25.48.66.72.99.33.47.82.79,1.3,1.1,1.36.88,2.72,1.77,4.08,2.65.96.63,2.01,1.28,3.15,1.22.69,2.05,3.19,3.29,5.24,2.61"/>
      <path d="M337.03,484.06c-.13-.82-.85-1.11-1.55-1.39-.51-.2-1.04-.38-1.47-.74s-.7-.88-1.06-1.32c-.29-.35-.6-.6-1.02-.76-.82-.3-1.45-.22-1.78-1.21-.29-.88-.48-1.28-1.34-1.7-.8-.4-1.95-.64-2.27-1.59-.36-1.08.61-2.07.65-3.12.05-1.27-1.89-1.55-.9-2.93.43-.6,1.14-.99,1.74-1.41.68-.48,1.37-.96,2.05-1.44.03-.02.04-.06,0-.08-2.47-1.31-5.93-2.19-8.69-1.25-.99.34-1.95,1.14-1.92,2.28.02.66.56,1,.69,1.6.14.66-.35,1.32-.55,1.91-.11.34-.19.69,0,1.02.18.3.55.37.76.63.34.42.16.96.17,1.44.02,1.5,1.32,1.02,2.14,1.86.51.53.74,1.15,1.36,1.6.75.55,1.57,1.03,2.36,1.55,1.36.89,2.84,2.17,4.45,2.56.28.07.58.04.82.21.25.18.35.51.52.77.37.56.89,1.01,1.47,1.34,1.07.6,2.3.74,3.48.39.16-.05.13-.17-.03-.12-2.09.62-4.34-.57-5.09-2.58-.01-.03-.05-.03-.08-.03-1.43-.01-2.56-.87-3.71-1.61s-2.31-1.49-3.45-2.25c-.39-.26-.81-.52-1.12-.88-.28-.32-.43-.74-.72-1.05-.6-.63-1.81-.4-2.09-1.34-.21-.71.29-1.45-.32-2.04-.38-.36-.74-.44-.74-1.04,0-.41.24-.8.4-1.17.25-.61.37-1.07.07-1.67-.32-.64-.63-.9-.43-1.67.29-1.13,1.43-1.63,2.49-1.79,1.27-.19,2.59-.11,3.84.13.48.09,3.39.68,3.42,1.32.02.33-.88.76-1.17.96-.49.34-.99.67-1.47,1.03-.54.41-1.37,1.07-1.21,1.86.18.91,1.33,1.05,1.17,2.15-.12.85-.72,1.6-.69,2.48.03,1.35,1.52,1.64,2.48,2.14.46.24.86.53,1.06,1.02.19.46.1.97.5,1.34.26.24.64.3.97.39.61.16,1.07.37,1.48.86.62.75,1.01,1.43,1.93,1.83.81.36,1.96.56,2.12,1.59.01.08.28.02.27-.07h0Z"/>
    </g>
    <g>
      <path d="M334.66,486.19c-1.41.93-3.49.67-4.63-.59-.38-.42-.66-.93-1.08-1.3-1.23-1.09-3.3-.79-4.47-1.94-.64-.63-.87-1.57-1.49-2.23-1.22-1.3-3.55-1.07-4.68-2.45-.29-.35-.48-.79-.83-1.08-.57-.46-1.41-.41-2.01-.81-.8-.53-1-1.71-1.83-2.19-.5-.29-1.15-.29-1.55-.7-.7-.71-.11-2.12-.85-2.78-.29-.26-.72-.32-1.01-.57-.71-.61-.21-1.82.52-2.41.92-.75,2.1-1.12,3.24-1.46.27-.08.54-.16.8-.24,1.36-.41,3.01-.77,4.06.18.21.19.39.48.26.73-.06.13-.19.21-.31.29-.9.56-1.81,1.12-2.71,1.69.83.24.95,1.36.83,2.22-.13.85-.27,1.9.41,2.43.34.27.86.36,1.05.75.15.3.03.67.09,1,.18.99,1.55,1.07,2.43,1.54.62.34,1.04.94,1.53,1.45.56.59,1.22,1.08,1.88,1.56.6.44,1.19.87,1.79,1.31,1.66,1.22,3.33,2.43,5.06,3.54,1.22.78,2.48,1.5,3.76,2.16"/>
      <path d="M334.57,486.14c-1.44.84-3.27.62-4.42-.59-.47-.5-.78-1.12-1.36-1.52-1.5-1.05-3.55-.62-4.66-2.32-.41-.64-.67-1.35-1.27-1.85-.49-.42-1.11-.64-1.71-.84-.97-.33-2.03-.56-2.72-1.38-.4-.47-.61-.99-1.18-1.3-.53-.29-1.17-.26-1.68-.61-.35-.24-.58-.61-.8-.96-.41-.63-.69-1.06-1.37-1.39-.62-.29-1.15-.21-1.47-1.01-.15-.38-.09-.83-.15-1.22-.08-.57-.21-.94-.69-1.26-.57-.37-1.2-.55-1.06-1.41.15-.92.99-1.51,1.76-1.91.94-.49,2-.76,3.01-1.06s2.78-.86,3.66-.04c1.08,1.01-.34,1.48-.92,1.84-.52.32-1.03.64-1.55.96-.04.02-.08.1-.02.12,1.34.58.66,2.24.69,3.33.03.85.36,1.1.97,1.57.85.66.42,1.71,1.3,2.28.94.62,1.92.66,2.76,1.54,1.73,1.81,3.79,3.19,5.82,4.66,2.34,1.68,4.74,3.25,7.29,4.58.09.05.33-.08.21-.14-3.26-1.7-6.23-3.8-9.19-5.96-1.33-.97-2.64-1.9-3.77-3.11-.33-.35-.65-.7-1.07-.94-.57-.32-1.32-.37-1.84-.76-.73-.55-.28-1.12-.66-1.76-.29-.5-.93-.53-1.27-.98-.86-1.13.35-2.71-.39-3.91-.33-.54-.51-.39.12-.88.59-.47,1.35-.73,1.94-1.21s.4-.95-.21-1.36c-.83-.55-1.93-.45-2.85-.26-1.38.28-2.89.72-4.14,1.36-.76.39-1.54.92-1.83,1.77-.54,1.58,1.05,1.31,1.55,2.43.39.88-.11,1.93.84,2.55.68.44,1.38.42,1.93,1.14.33.44.52.97.94,1.34.49.45,1.06.45,1.65.7.9.38,1.02,1.01,1.64,1.61.79.76,1.92.94,2.9,1.31s1.65.93,2.2,1.87c.32.55.59,1.1,1.11,1.5,1.16.88,2.79.69,3.97,1.53.66.47.98,1.22,1.58,1.74.47.42,1.05.69,1.66.83,1.03.23,2.02.03,2.92-.5.16-.09-.07-.16-.17-.1h0Z"/>
    </g>
    <g>
      <path d="M316.81,479.44c.48-.44.08-1.28-.5-1.59-.58-.3-1.28-.34-1.82-.7-.71-.47-.98-1.38-1.59-1.97-.64-.63-1.58-.83-2.39-1.22-.81-.39-1.6-1.19-1.41-2.06.1-.47.46-1,.17-1.38-.3-.39-1.02-.21-1.3-.61-.31-.46.3-1.05.2-1.59-.07-.36-.43-.59-.79-.68-1.24-.28-2.39.68-3.3,1.57-1.06,1.04-2.12,2.07-3.18,3.11-.07.07-.15.14-.2.23-.23.41.19.93.65,1s.92-.12,1.36-.26.98-.2,1.34.09c.37.29.43.83.71,1.2.69.92,2.2.43,3.22.96.63.33,1.01,1.02,1.65,1.34.65.33,1.43.2,2.13.38.98.26,1.7,1.07,2.47,1.73.78.65,1.86,1.19,2.78.75"/>
      <path d="M316.93,479.43c.33-.39.25-.85-.05-1.24-.55-.72-1.57-.62-2.28-1.09-.66-.44-.92-1.23-1.43-1.8s-1.27-.86-2-1.15c-.87-.35-1.98-.95-1.95-2.04.01-.55.62-1.33.02-1.77-.26-.19-.62-.13-.89-.28-.63-.35-.19-.88-.08-1.35.14-.61-.24-.99-.81-1.13-1.27-.31-2.46.66-3.31,1.45-.68.64-1.34,1.31-2.01,1.96-.38.37-.76.74-1.14,1.11-.19.19-.46.38-.5.67-.07.57.56.87,1.04.87.22,0,.44-.05.65-.11.17-.05.36-.14.54-.17,1.19-.22,1.29.08,1.68.85.7,1.39,2.07.81,3.29,1.31.92.37,1.33,1.35,2.34,1.6.45.11.92.08,1.38.16.58.11,1.08.39,1.54.76,1.21.95,2.41,2.41,4.11,1.76.18-.07.01-.13-.1-.09-1.81.69-3.05-1.46-4.4-2.21-.58-.32-1.15-.36-1.8-.43-1.03-.12-1.45-.6-2.17-1.23-.97-.85-2.22-.38-3.27-.95-.61-.33-.61-1.02-1.06-1.47-.29-.29-.67-.33-1.06-.28-.66.07-2.27.8-2.42-.25-.06-.43.44-.76.69-1.01.38-.37.76-.74,1.14-1.11.65-.63,1.28-1.29,1.95-1.89.26-.24.53-.47.82-.66.63-.43,2.09-.97,2.56-.04.3.59-.4,1.11-.14,1.68.2.45.7.33,1.07.52.8.43-.02,1.37.09,2.03s.66,1.17,1.21,1.49c.64.38,1.39.54,2.03.91.73.42,1.05,1.08,1.53,1.74.42.57.89.83,1.55,1.03.69.21,2.24.88,1.41,1.86-.07.08.2.05.25,0h0Z"/>
    </g>
    <g>
      <path d="M307.6,477.27c-.63-.89-2.1-.35-3.05-.88-.58-.32-.94-1.04-1.6-1.16-.79-.14-1.64.66-2.32.24-.46-.28-.54-.98-1.02-1.22-.44-.22-.96.07-1.35.36-1.35,1.01-2.52,2.24-3.46,3.63-.1.16-.21.32-.22.51-.01.42.51.7.92.59s.7-.46.96-.8c.25-.34.51-.71.89-.88,1.13-.52,2.44.93,3.6.49.36-.13.64-.43,1.02-.51.86-.18,1.62.92,2.48.71.32-.07.56-.31.85-.48.46-.26,1.05-.31,1.55-.12.23.09.46.23.71.23s.52-.23.44-.47"/>
      <path d="M307.73,477.23c-.75-.91-2.1-.36-3.05-.88-.83-.46-1.17-1.35-2.25-1.14-.29.06-.56.2-.86.26-.77.17-.93-.06-1.27-.58-.26-.4-.46-.77-1-.76-.91.01-1.78.96-2.4,1.53-.53.49-1.03,1.03-1.48,1.59-.31.39-.98,1.03-.98,1.55,0,.78,1.03.71,1.48.42s.65-.82,1.05-1.17c.92-.81,1.72-.17,2.64.11.38.12.76.19,1.15.1.61-.13,1.03-.71,1.72-.49.54.17.97.62,1.56.67.41.03.68-.15,1.02-.33.51-.27.14-.68,1.47-.35.19.05.35.14.54.21s.34.1.52.07c.3-.05.54-.22.52-.54,0-.05-.27,0-.27.07.04.54-1.31.04-1.54.04-.31,0-.63.06-.91.18-.16.07-.3.18-.45.26-.61.34-.86.31-1.38.05-.36-.18-.69-.42-1.09-.5-.91-.17-1.53.75-2.48.5-.75-.2-1.47-.7-2.28-.58s-1.08.8-1.61,1.33c-.35.35-1.2.66-1.38.03-.08-.27.12-.54.26-.74.38-.56.81-1.1,1.27-1.6.39-.42.8-.83,1.23-1.2.27-.24.56-.53.87-.71.72-.4,1.2-.43,1.59.19s.69.94,1.44.79c.7-.14,1.41-.52,2.06,0,.39.31.67.72,1.14.92.92.4,2.18-.05,2.88.8.04.05.3-.04.25-.09h0Z"/>
    </g>
    <path d="M353.31,505.88c1,.55-5.92,3.57-5.9,2.43.02-1.14-1.4-4.83-2.23-5.61-.83-.78,5.31,3.54,4.9-1.96,1.01-.63,2.27,3.01,3.43,2.72,1.5-.37-.54-2.76-1.16-4.18-.62-1.42-.59-1.95-1.29-3.33-.26-.52.77-1.55,1.28-1.82.19-.1.42-.1.64-.12.96-.11,1.75-.9,2.06-1.81.32-.91-2.52-2.42-2.77-3.35-.44-1.58-.1-2.8-1.35-3.86-.5-.43.4-.55.11-1.14s-.17-1.46.45-1.7c.37-.14.77-.01,1.14.11,1.67.58,3.35,1.3,4.65,2.51,1.29,1.22,2.14,3.04,1.78,4.77-.14.69-.46,1.36-.37,2.06.12.87.86,1.52,1.12,2.36.52,1.69-1.06,3.56-.39,5.2.21.51.61.92.86,1.41.43.88.28,2.02-.37,2.76-.39.44-.93.74-1.32,1.18-1.46,1.66-.2,4.4-1.13,6.41"/>
    <path d="M342.76,468.77c-1,.05-1.81-.75-2.63-1.34-1.27-.92-2.83-1.41-4.4-1.38-1.18.02-2.38.32-3.52.02-.66-.18-1.25-.54-1.85-.86-2.11-1.1-4.54-1.58-6.91-1.37-.51.05-1.03.12-1.53.01-.59-.13-1.09-.51-1.63-.78-1.24-.61-2.76-.63-4.01-.05-1.85.87-3.29,2.99-5.32,2.77-1.51-.16-3.05-1.63-4.32-.8-.59.39-.82,1.16-1.35,1.63-1.13,1.02-3.09.33-4.31,1.23-1.01.74-1.13,2.28-2.09,3.08-.64.53-1.52.63-2.27.96s-1.47,1.15-1.15,1.91l-.64,1.02c-4.15,3.2-5.09,13.21-4.24,12.84s4.84-6.76,5.04-7.66c1.23-5.66,6.47-8.08,7.97-8.5,1.35-.38,2.81-.5,4.01-1.22.76-.46,2.11.37,2.98.19,1.18-.25,1.74-1.01,2.88-1.39.6-.2,1.37.82,1.83.38,1.2-1.16,3.3-.98,4.94-.68,1.38.25,1.66-1.33,3.05-1.19.92.09,1.37,1.73,2.28,1.61,1.33-.17,2.26-.2,3.55.14,2.23.6,5.3-.44,7.53.16,1.5.4,2.75,2.75,4.02,3.63,1.84,1.27,3.4,1.57,5.59,2.04.71-1.29.69-2.97-.07-4.24-.76-1.27-2.22-2.09-3.7-2.07"/>
    <path d="M345.74,470.47c.13-1.17-.38-2.28-1.37-2.94-.44-.29-.95-.45-1.47-.51-.64-.07-1.46.28-2-.16-.46-.36-.72-.97-1.21-1.35s-1.06-.64-1.64-.81c-1.14-.33-2.37-.26-3.48.18-.64.25-.97.47-1.59.02-.51-.37-.91-.87-1.37-1.3-.91-.86-1.99-1.4-3.25-1.52s-2.5.16-3.58.8-1.93,1.81-3.18,2.07c-1.34.28-.93,1.75.39,1.47,2.15-.45,3.52-3.08,5.8-2.77s2.96,2.9,5.15,3.15c1.07.12,1.78-.51,2.77-.7,1.27-.24,2.31.5,3.05,1.44.67.86,1.4,1.2,2.5,1.13.58-.04,1.09-.19,1.6.19.57.43.8,1.08.73,1.77-.12,1.09,2.05.81,2.16-.16h0Z"/>
    <path class="cls-11" d="M280.84,865.7c11.66,1.21,12.1-1.83,17.7-1.42,5.59.41,11.34,9.37,20.98,4.5,9.63-4.87,15.84-6.49,23.3-1.62,7.46,4.87,14.9,4.17,21.64,0,12.49-7.73,13.78-1.96,20.88-8.49.06,9.14.2,16,.5,19.6-7.56,7.3-8.59,1.03-21.38,8.94-6.74,4.17-14.19,4.87-21.64,0-7.46-4.87-13.67-3.24-23.3,1.62-9.63,4.87-15.38-4.1-20.98-4.5-5.59-.41-6.03,2.63-17.7,1.42-9.92-1.03-6.24-10.52-12.15-10.12.21-6.67.37-13.35.5-20.04,5.16.19,2.04,9.11,11.64,10.1Z"/>
    <g>
      <path class="cls-3" d="M270.57,839.76c5.16.19.67,9.11,10.28,10.1,11.66,1.21,12.1-1.83,17.7-1.42,5.59.41,11.34,9.37,20.98,4.5,9.63-4.87,15.84-6.49,23.3-1.62,7.46,4.87,14.9,4.17,21.64,0,12.49-7.73,12.75-1.64,19.85-8.17"/>
      <path class="cls-3" d="M384.27,852.51c-7.56,7.3-7.03-.17-19.81,7.74-6.74,4.17-14.19,4.87-21.64,0-7.46-4.87-13.67-3.24-23.3,1.62-9.63,4.87-15.38-4.1-20.98-4.5-5.59-.41-6.03,2.63-17.7,1.42-9.92-1.03-4.16-9.37-10.06-8.97"/>
    </g>
    <path class="cls-12" d="M319.84,567.13c5.56.46,11.37-1.76,16.3-4.11,2.6-1.24,5.15-2.68,7.44-4.44s4.33-3.71,6.39-5.64c.53-.5,1.18-1,1.61-1.6.02-.03.06-.1,0-.13-1.72-1.09-3.44-2.19-5.16-3.28-.19-.12-.57-.02-.71.15-1.98,2.43-4.4,4.58-6.87,6.51-5.38,4.2-11.74,7.39-18.62,7.98-.24.02-.81.42-.31.37,6.83-.58,13.17-3.53,18.62-7.58,2.84-2.11,5.63-4.54,7.88-7.29l-.71.15c1.56.99,3.13,2.28,4.8,3.05.14.07.36.34.36.11,0,.04-.09.1-.11.13-.19.37-.71.72-1,1-2.31,2.21-4.68,4.47-7.26,6.37-3.04,2.23-6.47,3.97-9.96,5.37-3.8,1.52-8.08,2.88-12.23,2.54-.2-.02-.88.33-.48.37h0Z"/>
    <path class="cls-12" d="M307.81,560.12c-1.44-.62-2.59-1.65-2.94-3.22-.23-1.02-.12-2.09.16-3.08.38-1.34,1.13-2.59,1.73-3.85.15-.31-.36-.27-.52-.21-.94.36-1.89.73-2.83,1.09l-1.65.64c-.23.09-.42.14-.57.34-.26.36-.39.93-.52,1.34-.28.9-.45,1.84-.49,2.78-.08,2.11.64,4.03,1.83,5.75,1.24,1.79,3.03,2.87,5.08,3.55.28.09.89-.31.45-.45-1.8-.59-3.42-1.52-4.58-3.06-1.22-1.6-2.01-3.49-2.02-5.52,0-.89.13-1.78.35-2.64.14-.53.47-1.08.57-1.61.04-.25.07,0-.11.02.11,0,.26-.1.36-.14l1.48-.57c.99-.38,1.98-.76,2.97-1.15l-.52-.21c-.64,1.35-1.45,2.7-1.82,4.15-.28,1.07-.35,2.23-.04,3.3.44,1.51,1.62,2.53,3.04,3.14.26.11.94-.25.6-.4h0Z"/>
    <path class="cls-12" d="M319.7,562.8c-1.95,8.45-3.91,16.89-5.86,25.34-.27,1.18-.55,2.37-.82,3.55l.54-.24c-1.22,0-2.52-.14-3.72,0-.52.06-.22-.11-.21.12,0-.03.01-.05.02-.08.03-.19.08-.38.12-.57l1.26-5.9c1.28-5.99,2.55-11.97,3.83-17.96.33-1.53.65-3.06.98-4.59l-.62.24c1.54.07,3.09.14,4.63.22.19,0,.88-.33.48-.35-1.54-.07-3.09-.14-4.63-.22-.15,0-.58.04-.62.24-1.81,8.49-3.62,16.99-5.43,25.48-.26,1.21-.52,2.42-.77,3.63-.03.12.15.12.22.12,1.38,0,2.77,0,4.15,0,.12,0,.5-.07.54-.24,1.95-8.45,3.91-16.89,5.86-25.34.27-1.18.55-2.37.82-3.55.05-.22-.7-.1-.75.12Z"/>
    <path class="cls-12" d="M307.48,560.04c.4,9.26.8,18.51,1.2,27.77.06,1.31.11,2.62.17,3.92,0,.19.72.01.76-.16.93-4.37,1.86-8.73,2.79-13.1.27-1.27.76-2.67.82-3.97.09-2.05-.31-4.24-.46-6.28-.17-2.27-.34-4.55-.5-6.82-.01-.03-.04-.05-.07-.06-1.34-.52-2.68-1.05-4.02-1.57-.19-.07-.88.22-.62.32,1.21.47,2.44.92,3.63,1.42.52.22.36.71.42,1.46.22,3.05.45,6.1.67,9.15.11,1.51.21,2.51-.09,3.92-.62,2.91-1.24,5.82-1.86,8.73-.49,2.31-.98,4.61-1.47,6.92l.76-.16c-.4-9.26-.8-18.51-1.2-27.77-.06-1.31-.11-2.62-.17-3.92,0-.17-.77-.04-.76.2Z"/>
    <path class="cls-36" d="M297.69,520.68c.09,2.44-4.34,8.09-4.34,8.09,0,0,.7,14.94-.46,18.02-1.2,3.2-3.96,3.65-5.15,5.75-3.61,6.4-5.16,13.15-5.16,13.15l-14.83-5.53,5.14-12.23-.84-15.84,1.13-15.08,10.87-9.27c.09.04.18.09.26.15.73.51.82,1.43.21,2.06l4.23-3.18c3.07,1.84-1.26,7.15-1.26,7.15l5.12-4.49c2.66,2.15-.38,5.93-.38,5.93l-5.2,6.85s-.32,4.7.1,6.24.69,3.19.69,3.19l1.29-5.21,7.14-9.15s1.35.96,1.45,3.4Z"/>
    <path class="cls-26" d="M283.77,507.92c.82.47,1,1.3.42,2.02-.22.28.52.14.63.06,1.41-1.06,2.82-2.12,4.23-3.18l-.58.12c2.45,1.63.01,5.34-1.3,6.97-.21.27.51.16.63.06,1.71-1.5,3.41-3,5.12-4.49l-.63.08c1.89,1.69.84,4.14-.43,5.85-1.2,1.61-2.43,3.2-3.64,4.8-.44.58-1.13,1.23-1.44,1.89-.22.47-.15,1.1-.17,1.62-.05,1.29-.09,2.61.03,3.9.13,1.39.6,2.74.83,4.11.04.26.68.04.72-.14.37-1.51.74-3.02,1.12-4.53.22-.9.8-1.48,1.44-2.29,1.95-2.5,3.9-5,5.85-7.5l-.67.14c2.69,2.01.94,5.57-.39,7.74-.68,1.11-1.43,2.17-2.2,3.21-.28.38-.29.4-.31.83-.09,2.21.16,4.48.18,6.7.03,2.94.07,5.91-.25,8.84-.17,1.54-.54,2.88-1.61,4.08-1.2,1.36-2.96,2.13-3.92,3.71-.17.28.55.21.67.01.94-1.54,2.67-2.3,3.85-3.63.86-.96,1.39-2.08,1.6-3.34.46-2.74.39-5.59.39-8.36,0-2.6-.07-5.21-.18-7.81-.03-.64-.12-.59.21-.97.83-1.01,1.56-2.15,2.24-3.26.78-1.27,1.78-2.83,1.86-4.37.06-1.23-.43-2.89-1.47-3.67-.19-.14-.54-.04-.67.14-1.99,2.55-3.98,5.1-5.97,7.65-.57.72-1.13,1.27-1.35,2.16-.38,1.54-.76,3.07-1.14,4.61l.72-.14c-.24-1.41-.72-2.8-.84-4.23-.12-1.41-.06-2.84,0-4.25.03-.69-.02-.8.36-1.29l1.9-2.5c1.79-2.35,6.63-7.09,3.36-10-.16-.14-.49-.04-.63.08-1.71,1.5-3.41,3-5.12,4.49l.63.06c1.44-1.79,3.84-5.58,1.21-7.33-.16-.11-.45.02-.58.12-1.41,1.06-2.82,2.12-4.23,3.18l.63.06c.71-.89.44-1.83-.52-2.38-.2-.12-.87.18-.58.35h0Z"/>
    <path class="cls-26" d="M287.02,513.54c-.91,1.1-1.58,2.36-2.36,3.55-.83,1.25-1.9,2.26-2.85,3.41s-1.1,2.45-1.18,3.95c-.1,1.93-.2,3.87-.29,5.8,0,.1.71.02.72-.19.09-1.77.18-3.54.27-5.3.04-.87.03-1.78.24-2.63.19-.75.59-1.33,1.09-1.9.87-1.01,1.82-1.92,2.57-3.02.83-1.23,1.5-2.56,2.45-3.71.14-.17-.54-.08-.66.06h0Z"/>
    <path class="cls-26" d="M276.71,527.79c.1-1.94.21-3.87.31-5.81l.16-2.9c.06-1.05-.03-1.92.82-2.68,2.47-2.24,4.67-4.81,7.22-6.95.3-.25-.41-.21-.57-.08-1.31,1.09-2.48,2.32-3.66,3.55-1.22,1.27-2.59,2.39-3.82,3.64-.55.56-.63,1.14-.67,1.91-.06,1.03-.11,2.06-.17,3.08-.11,2.12-.23,4.23-.34,6.35-.01.25.71.1.72-.11h0Z"/>
    <path class="cls-36" d="M313.2,524.83c-.07,2.44,4.41,8.07,4.41,8.07,0,0-.57,14.94.61,18.02,1.22,3.19,3.99,3.63,5.2,5.72,3.66,6.38,5.27,13.12,5.27,13.12l13.6-5.16-4.06-12.65.71-15.85-1.25-15.07-10.95-9.21c-.09.04-.18.09-.26.15-.73.51-.81,1.43-.19,2.06l-4.26-3.16c-3.06,1.86,1.31,7.14,1.31,7.14l-5.15-4.46c-2.64,2.17.43,5.93.43,5.93l5.26,6.82s.35,4.69-.05,6.25c-.4,1.55-.66,3.19-.66,3.19l-1.33-5.21-7.21-9.11s-1.34.97-1.42,3.41Z"/>
    <path class="cls-26" d="M329.32,573.63c-.63-3.57-1.56-7.12-2.72-10.55-.79-2.33-1.64-5.05-3.15-7.02-1.53-2.01-4.03-2.74-4.91-5.34-.46-1.38-.5-2.94-.58-4.38-.12-2.16-.14-4.33-.13-6.5,0-1.76.04-3.53.08-5.29.02-.61.18-1.37-.07-1.91-.34-.72-1.05-1.4-1.5-2.06-.68-.99-1.33-2.01-1.88-3.08-.94-1.83-1.51-4.59.44-6.06l-.62.11c1.97,2.49,3.94,4.97,5.91,7.46.59.75,1.21,1.34,1.44,2.22.39,1.53.78,3.07,1.18,4.6.04.17.7,0,.72-.16.21-1.28.6-2.53.77-3.8s.1-2.73.04-4.07c-.02-.53.05-1.22-.16-1.69-.31-.67-1.03-1.33-1.47-1.91-1.22-1.58-2.46-3.16-3.67-4.75-1.29-1.71-2.41-4.21-.51-5.92l-.67.15c1.72,1.49,3.44,2.98,5.15,4.46.13.12.81-.1.68-.25-1.32-1.61-3.81-5.36-1.38-7l-.62.11c1.42,1.05,2.84,2.1,4.26,3.16.13.1.81-.09.68-.25-.59-.74-.43-1.58.39-2.06l-.62.11c2.45,2.06,4.9,4.12,7.35,6.18.72.61,1.44,1.21,2.17,1.82.39.33.94.66,1.26,1.06s.21,1.14.24,1.73c.2,3.91.41,7.81.61,11.72.12,2.27.39,4.58.33,6.85-.1,3.58-.32,7.16-.48,10.74,0,.12.71.03.72-.19.15-3.3.29-6.61.44-9.91.09-2.1-.11-4.21-.22-6.31-.21-4.07-.43-8.15-.64-12.22-.03-.63.16-1.9-.13-2.48-.1-.21-.48-.42-.65-.56-.56-.47-1.13-.95-1.69-1.42-2.88-2.42-5.75-4.84-8.63-7.26-.15-.12-.49.03-.62.11-.95.55-1.22,1.47-.51,2.35l.68-.25c-1.42-1.05-2.84-2.1-4.26-3.16-.15-.11-.49.02-.62.11-2.63,1.77-.21,5.51,1.25,7.29l.68-.25c-1.72-1.49-3.44-2.98-5.15-4.46-.15-.13-.55.04-.67.15-3.24,2.92,1.63,7.6,3.43,9.94.64.83,1.28,1.66,1.92,2.49.37.48.33.66.37,1.31.07,1.34.14,2.7.06,4.04-.09,1.51-.58,2.97-.82,4.45l.72-.16c-.39-1.53-.78-3.07-1.18-4.6-.22-.87-.8-1.42-1.36-2.13-2.01-2.54-4.02-5.08-6.03-7.61-.1-.13-.52.04-.62.11-1.27.96-1.76,2.98-1.36,4.47.53,2,1.88,3.85,3.06,5.51.48.67,1.18,1.26,1.19,2.03.01,1.43-.08,2.86-.1,4.28-.06,3.98-.24,8.12.42,12.06.34,2.04,1.55,3.5,3.16,4.73.98.75,1.88,1.43,2.5,2.53.68,1.2,1.24,2.47,1.74,3.74,1.66,4.18,2.86,8.63,3.64,13.06.03.16.76,0,.72-.19h0Z"/>
    <path class="cls-26" d="M322.7,517.57c.88,1.02,1.73,2.06,2.62,3.07s1.94,1.97,2.79,3.05c.97,1.22.94,2.71,1.02,4.19.1,1.75.21,3.5.31,5.25.01.22.74.07.72-.19-.1-1.75-.21-3.5-.31-5.25-.08-1.43-.05-2.91-.94-4.11-.82-1.09-1.85-2.02-2.76-3.03-.96-1.06-1.86-2.17-2.79-3.26-.16-.18-.85.07-.67.28h0Z"/>
    <path class="cls-26" d="M334.51,530.6l-.34-5.4-.17-2.7c-.05-.82.06-1.9-.32-2.65-.32-.62-1-1.04-1.53-1.47-.7-.57-1.39-1.13-2.09-1.7-1.44-1.17-2.87-2.33-4.31-3.5-.18-.15-.85.13-.68.27,1.39,1.13,2.79,2.26,4.18,3.39.7.57,1.39,1.13,2.09,1.7.6.48,1.46.99,1.72,1.76.24.73.16,1.63.21,2.39l.17,2.7c.11,1.8.22,3.6.34,5.4.01.2.74.06.72-.19h0Z"/>
    <path class="cls-30" d="M344.36,557.65l21.43,50.02c1.66,3.66,9.13,1.99,9.38,6,.18,2.82-2.82,15.58-5.93,19.21-3.67,4.28-6.89,3.5-12.44,4.46-.13.02,5.79,2.69,5.67,2.72-5.16,1.4-16.97-2.56-20.18-8.83-7.96-15.52-19.25-63.01-19.25-63.01l21.33-10.57Z"/>
    <path class="cls-12" d="M362.87,636.64c-4.81,1.26-10.44-.03-14.64-2.53-3.04-1.81-5.52-4.41-7.3-7.45-1.67-2.86-2.66-6.09-3.72-9.22-4.34-12.81-8-25.85-11.61-38.88-.93-3.34-1.85-6.69-2.74-10.05l-.22.31c6.23-3.09,12.45-6.17,18.68-9.26.88-.44,1.77-.88,2.65-1.31l-.54-.11c2.25,5.09,4.51,10.19,6.76,15.28,3.57,8.08,7.15,16.16,10.72,24.24.83,1.87,1.66,3.75,2.49,5.62.14.32.89.1.76-.2-2.25-5.09-4.51-10.19-6.76-15.28-3.57-8.08-7.15-16.16-10.72-24.24-.83-1.87-1.66-3.75-2.49-5.62-.09-.2-.37-.19-.54-.11-6.23,3.09-12.45,6.17-18.68,9.26-.88.44-1.77.88-2.65,1.31-.11.05-.25.17-.22.31,2.49,9.34,5.11,18.65,7.82,27.92,2.01,6.86,4.07,13.71,6.35,20.49,1.03,3.06,2,6.24,3.53,9.09,1.7,3.16,4.12,5.91,7.13,7.87,4.52,2.95,10.74,4.43,16.06,3.03.47-.12.34-.61-.13-.49h0Z"/>
    <path class="cls-30" d="M265.97,557.49l-10.51,36.02c-1.63,3.68-5.54,17.58-5.76,21.59-.27,4.9.75,8.36,1.98,10.44,1.05,1.79,1.82,6.94,10.08,8.28,5.17,1.36,11.14.27,14.31-6.02,7.84-15.58,9.45-65.27,9.45-65.27l-19.55-5.03Z"/>
    <path class="cls-12" d="M276.44,627.73c1.96-3.92,3.02-8.29,3.94-12.56,1.16-5.39,1.97-10.85,2.65-16.31,1.26-10.1,2.05-20.26,2.57-30.42.11-2.15.22-4.3.29-6.45,0-.11-.75-.02-.76.2-.19,5.92-.56,11.83-1,17.73-.83,11.23-1.92,22.51-4.13,33.56-.97,4.86-2.09,9.9-4.32,14.37-.05.11.65.06.75-.13h0Z"/>
  </g>
</svg>