<?xml version="1.0" encoding="UTF-8"?>
<svg id="Layer_15" data-name="Layer 15" xmlns="http://www.w3.org/2000/svg" xmlns:xlink="http://www.w3.org/1999/xlink" viewBox="0 0 991.05 991.05">
  <defs>
    <style>
      .cls-1 {
        fill: #523e88;
      }

      .cls-2, .cls-3, .cls-4 {
        fill: none;
      }

      .cls-5 {
        fill: #010101;
      }

      .cls-6 {
        fill: #836baa;
      }

      .cls-7 {
        fill: #b05e27;
      }

      .cls-8 {
        fill: #12100e;
      }

      .cls-3 {
        stroke: #11111f;
      }

      .cls-3, .cls-4 {
        stroke-miterlimit: 10;
      }

      .cls-9 {
        fill: #231f20;
      }

      .cls-10 {
        fill: #ad7461;
      }

      .cls-11 {
        fill: #13110f;
      }

      .cls-12 {
        fill: #a38066;
      }

      .cls-13 {
        fill: #f1eef7;
      }

      .cls-14 {
        fill: #123a43;
      }

      .cls-15 {
        fill: #cd8c2a;
      }

      .cls-16 {
        fill: #372461;
      }

      .cls-17 {
        fill: #662f1c;
      }

      .cls-18 {
        clip-path: url(#clippath-1);
      }

      .cls-19 {
        fill: #6b3825;
      }

      .cls-20 {
        fill: #190b08;
      }

      .cls-21 {
        fill: #b82d24;
      }

      .cls-22 {
        fill: #643b29;
      }

      .cls-4 {
        stroke: #000;
        stroke-width: .75px;
      }

      .cls-23 {
        opacity: .54;
      }

      .cls-24 {
        fill: #322312;
      }

      .cls-25 {
        fill: #6f1303;
      }

      .cls-26 {
        fill: #de8b26;
      }

      .cls-27 {
        fill: #221e1f;
      }

      .cls-28 {
        fill: #f0edf6;
      }

      .cls-29 {
        clip-path: url(#clippath);
      }

      .cls-30 {
        fill: #af6b4e;
      }

      .cls-31 {
        fill: #f2ead0;
      }

      .cls-32 {
        fill: #4f2e25;
      }
    </style>
    <clipPath id="clippath">
      <circle class="cls-2" cx="495.52" cy="495.52" r="495.52"/>
    </clipPath>
    <clipPath id="clippath-1">
      <path class="cls-2" d="M597.55,671.55s.02,0,.03.01c-.04-1.06-.04-2.2.12-3.53.22-6.34,2.66-20.59,2.94-27.1,2.64-8.76,4.91-26.53,12.28-41.95.13-.06.27-.13.36-.18,1.08-.53,5.15-3.13,8.25-4.23-.02,5.67-5.54,9.19-4.45,17.63.56,4.35.21,7.51,3.77,8.99,5.75,2.39,21.32,3.24,27.13,1.47,2.56-.78,4.9-1.94,6.64-3.75,2.02-2.11,3.12-4.77,4.02-7.36,1.29-3.71,2.66-7.33,4.67-10.81,1.84-3.18,4.04-6.18,6.34-9.12,3.31.96,8.16,2.78,11.63,4.05-5.74,1.59-7.04,5.97-8.85,10.57-2.39,6.07-5.93,17.46-4.09,24.85,1,4,.87,6.04,3.05,9.54,1.66,2.68.85,1.97,3.41,3.8,3.72,2.66,7.1,4.26,11.62,4.81,2.13.26,1.81-.22,2.57,1.8.4,1.07.46,2.43.63,3.55.99,6.57,1.26,13.26,1.81,19.88h0c.77,5.08,1.87,12.59,3.17,21.46l5.79,5.64c4.74,33.73,5.49,96.31,7.11,108.3-7.57,4.48-11.34-1.37-21.4,5.49-8.87,6.05-14.2,2.99-21.66,0-7.46-2.99-13.68-1.99-23.32,1-9.64,2.99-15.4-2.51-21-2.76-5.6-.25-5.82,1.56-17.5.82-9.93-.63-12.36-2.62-12.36-4.38-11.96-41.81,3.69-89.6,7.26-138.49Z"/>
    </clipPath>
  </defs>
  <g class="cls-29">
    <polyline class="cls-31" points="1029.5 1044.07 1029.5 -23.3 -387.67 -23.3 -387.67 1044.07"/>
    <path class="cls-17" d="M874.26,712.05l-.85-.32-1.51-60.09c-2.24-45.35-14.5-78.27-40.59-80.82-17.76,0-77.84-.82-83.83,3.78-1.66-78.79,6.9-141.64-121.79-141.64l-188.29.34c-1.51,34.78,40.78,69.44,35.66,103.86-6.42,43.18,6.16,86.1-.42,129.26-3.31,21.69,25.25,43.54,22.45,65.3-2.85,22.17-5.74,44.33-8.54,66.51-4.27,33.72-8.36,67.49-11.87,101.32h405v-70.29c10.08-3.3,17.09-14.2,17.15-26.67v-50.13c-.03-19.21-8.17-31.75-22.56-40.4Z"/>
    <rect class="cls-12" x="-413.27" y="896.54" width="1442.77" height="155.99"/>
    <path class="cls-17" d="M490.79,899.53c.4-9.87.78-19.75,1.08-29.63.7-22.72,6.16-45.44,6.16-68.18l-32.82-367.92-305.27-.86c-66.1.01-77.1,62.85-78.76,141.64-5.98-4.6-66.06-3.78-83.83-3.78-26.09,2.56-38.35,35.47-40.59,80.82l-1.51,60.09-.85.32c-14.39,8.65-22.53,21.19-22.56,40.4v50.13c.05,12.47,7.06,23.37,17.15,26.67v70.29H490.79Z"/>
    <path class="cls-24" d="M-31.25,712.63c7.75-.01,15.51-.03,23.26-.04,20.92-.04,41.83-.07,62.75-.11,31.13-.05,62.27-.11,93.4-.16,37.72-.07,75.45-.13,113.17-.2,41.6-.07,83.2-.15,124.8-.22,41.71-.07,83.41-.15,125.12-.22,39.15-.07,78.31-.14,117.46-.2,32.87-.06,65.73-.11,98.6-.17,23.8-.04,47.59-.08,71.39-.12,11.2-.02,22.4.05,33.6-.06.49,0,.98,0,1.47,0,1.21,0,3.72-1.82,1.39-1.82-7.75.01-15.51.03-23.26.04-20.92.04-41.83.07-62.75.11-31.13.05-62.27.11-93.4.16-37.72.07-75.45.13-113.17.2-41.6.07-83.2.15-124.8.22l-125.12.22c-39.15.07-78.31.14-117.46.2-32.87.06-65.73.11-98.6.17-23.8.04-47.59.08-71.39.12-11.2.02-22.4-.05-33.6.06-.49,0-.98,0-1.47,0-1.21,0-3.72,1.82-1.39,1.82h0Z"/>
    <path class="cls-24" d="M-39.36,832.98c7.75-.01,15.51-.03,23.26-.04,20.92-.04,41.83-.07,62.75-.11,31.13-.05,62.27-.11,93.4-.16,37.72-.07,75.45-.13,113.17-.2,41.6-.07,83.2-.15,124.8-.22,41.71-.07,83.41-.15,125.12-.22,39.15-.07,78.31-.14,117.46-.2,32.87-.06,65.73-.11,98.6-.17,23.8-.04,47.59-.08,71.39-.12,11.2-.02,22.4.05,33.6-.06.49,0,.98,0,1.47,0,1.21,0,3.72-1.82,1.39-1.82-7.75.01-15.51.03-23.26.04-20.92.04-41.83.07-62.75.11-31.13.05-62.27.11-93.4.16-37.72.07-75.45.13-113.17.2-41.6.07-83.2.15-124.8.22-41.71.07-83.41.15-125.12.22-39.15.07-78.31.14-117.46.2-32.87.06-65.73.11-98.6.17-23.8.04-47.59.08-71.39.12-11.2.02-22.4-.05-33.6.06-.49,0-.98,0-1.47,0-1.21,0-3.72,1.82-1.39,1.82h0Z"/>
    <path class="cls-24" d="M25.26,572.58c7.77-.28,16.06.43,23.29,3.5,3.2,1.36,6.26,3.27,8.31,6.13,2.77,3.87,4.11,9.03,4.98,13.64,1.65,8.78,1.56,17.83,1.81,26.74l.83,29.94.94,34.11.35,12.58c.06,2.01-.1,4.16.17,6.16.01.09,0,.19,0,.29.03,1.11,3.54.43,3.5-.94-.15-5.27-.29-10.54-.44-15.81-.31-11.29-.62-22.57-.94-33.86-.29-10.49-.58-20.97-.87-31.46-.22-7.92-.22-15.94-1.13-23.81-.6-5.14-1.67-10.27-3.8-15.01-1.61-3.58-3.76-6.32-7.1-8.44-6.65-4.22-15.18-5.45-22.9-5.77-1.88-.08-3.76-.08-5.65-.01-.76.03-1.89.23-2.31.96-.39.68.33,1.06.95,1.04h0Z"/>
    <path class="cls-24" d="M78.64,575.06c6.02,8.34,12.13,16.88,15.28,26.78s3.23,19.99,3.57,30.03c.55,16.31.83,32.63,1.15,48.94.16,8.41.31,16.83.49,25.24.03,1.18,3.53.48,3.5-.94-.35-16.07-.61-32.14-.96-48.21-.17-7.99-.36-15.98-.62-23.96-.31-9.64-.38-19.48-2.74-28.89-2.85-11.37-9.68-21.03-16.43-30.41-.73-1.01-4.12.19-3.24,1.4h0Z"/>
    <path class="cls-24" d="M456.37,588.02c-5.74,7.95-11.52,16.09-14.61,25.5s-3.18,18.92-3.51,28.44c-.54,15.65-.8,31.3-1.1,46.95-.15,8-.3,16-.47,24.01-.03,1.52,3.48.82,3.51-.41.33-15.24.58-30.47.91-45.71.16-7.51.34-15.02.58-22.52.28-8.92.34-18,2.37-26.73,2.56-11.05,9.08-20.33,15.61-29.39.5-.69-.43-1.07-.97-1.11-.81-.06-1.82.3-2.31.98h0Z"/>
    <path class="cls-24" d="M801.15,572.36c-8.11-.29-16.55.54-24.18,3.44-3.41,1.29-6.79,3.13-9.3,5.82-3.03,3.25-4.64,7.81-5.75,12.03-2.52,9.56-2.34,19.64-2.62,29.47s-.55,19.82-.82,29.73l-.97,34.92c-.18,6.39-.39,12.77-.53,19.16,0,.1,0,.19,0,.29-.04,1.45,3.47.74,3.5-.43.14-5.14.28-10.28.43-15.42.31-11.04.61-22.08.92-33.12l.87-31.5c.2-7.14.25-14.32.82-21.45.4-5.04,1.13-10.1,2.75-14.92,1.3-3.86,3.01-7.57,6.32-10.07,5.98-4.5,14.45-5.64,21.72-5.93,1.83-.07,3.65-.07,5.48,0,.74.03,1.91-.26,2.31-.96s-.35-1.02-.95-1.04h0Z"/>
    <path class="cls-24" d="M744.5,576.07c-6,8.32-12.05,16.83-15.32,26.65s-3.41,20.12-3.76,30.25c-.56,16.45-.84,32.91-1.16,49.36-.16,8.41-.31,16.83-.49,25.24-.03,1.52,3.48.82,3.51-.41.35-16.01.61-32.02.95-48.02.17-7.9.36-15.8.61-23.7.3-9.48.36-19.14,2.53-28.42,2.71-11.58,9.56-21.32,16.41-30.81.5-.69-.43-1.07-.97-1.11-.81-.06-1.82.3-2.31.98h0Z"/>
    <path class="cls-30" d="M490.14,877.9s-40.11,28.2-50.7,29.34c-10.59,1.14-7.51-4.72-7.51-4.72,0,0,29.38-26.26,31.59-31.46,1.21-2.85-26.69-87.38-35.7-128.94-6.26-28.87-8.86-52.1-8.86-52.1l57.11-.29,2.24,42.46,2.89,7.94c1.51,4.15,3.78,11.55,4.52,15.91,2,11.78,1.21,32.04,1.31,38.16.17,10.35.02,22.96-.03,26.61l1.08,45.59,2.06,11.52Z"/>
    <path class="cls-30" d="M487.86,864.14c.26,4.46,6.07,13.69,8.34,22.78,1,4.01,1.45,6.11-2.22,9.73-6.5,6.42-17.25,6.45-20.4,7.8-6.64,2.83-6.9,2.57-13.19,5.91-6.37,3.39-7.67,4.18-14.96,5.86-1.01.23-2.09.37-3.04.04-.64-.23-1.17-.65-1.81-.87-2.25-.79-4.68,1.14-7.11,1.21-1.08.03-2.1-.31-3.14-.55-2.74-.61-5.62-.49-8.44-.65-2.83-.16-5.75-.65-7.93-2.3-2.18-1.64-3.34-4.71-2.01-7.13,2.02-3.66,5.5-2.28,8.82-3.13,3.31-.86,4.5-1.62,7.26-3.52,7.07-4.86,8.13-5.79,14.12-9.66,4.65-3.01,17.01-12.34,23.3-18.49l-1.44-12.13"/>
    <g>
      <path class="cls-32" d="M441.43,915.04c-.78-.1-1.17-1.15-1.24-1.88-.09-.84.29-1.65.79-2.29,1.14-1.47,2.84-2.33,4.37-3.32.29-.19.67-.61.2-.84s-1.18-.04-1.57.21c-1.85,1.2-3.98,2.32-5.26,4.18-.59.86-.92,1.88-.73,2.92s.92,2.06,2.06,2.21c.53.07,1.16-.06,1.57-.42.33-.29.28-.7-.2-.76h0Z"/>
      <path class="cls-32" d="M433.52,916.23c-.13.01-.14.02-.02.01-.12,0-.13,0-.02,0-.12-.06,0,.03-.16-.06s-.28-.22-.4-.38c-.27-.37-.4-.83-.5-1.27-.19-.89-.25-1.93.03-2.82.43-1.35,1.71-2.28,2.87-2.95.67-.39,1.32-.78,1.96-1.2.53-.35,1.22-.88,1.82-.96.42-.06,1.18-.28,1.26-.78s-.64-.57-.97-.53c-1.66.24-2.97,1.22-4.35,2.1-1.26.8-2.59,1.44-3.61,2.58-.78.87-1.3,1.86-1.38,3.03-.06.98,0,2.04.39,2.95.5,1.19,1.5,1.77,2.79,1.58.42-.06,1.18-.28,1.26-.78s-.64-.57-.97-.53h0Z"/>
      <path class="cls-32" d="M428.77,915.53c-1.23-.26-1.88-1.65-2.04-2.79s.27-2.34.95-3.3,1.67-1.81,2.67-2.49,2.17-1.4,3.31-1.85c.2-.08.92-.34.66-.65-.23-.28-1.2.02-1.44.12-1.43.56-2.84,1.35-4.12,2.21-1.21.81-2.34,1.75-3.2,2.93-.78,1.06-1.27,2.38-1.06,3.7s1.03,2.7,2.43,3c.5.11,1.1-.06,1.56-.28.18-.09.77-.49.27-.6h0Z"/>
      <path class="cls-32" d="M428.43,903.1c-1.78.2-3.4,1.34-4.94,2.22s-2.99,1.8-4.17,3.05c-1.11,1.19-1.71,2.53-1.3,4.16.43,1.75,1.78,3.19,3.51,3.69.48.14,1.13-.07,1.56-.28.21-.1.75-.45.27-.59-1.49-.43-2.6-1.71-3.05-3.16s-.13-2.65.82-3.76,2.12-1.88,3.32-2.61c.53-.32,1.06-.62,1.6-.91.31-.17.62-.33.92-.5.16-.09.31-.19.47-.27.27-.15.78-.22.02-.14.45-.05,1.18-.15,1.49-.53s-.27-.4-.53-.37h0Z"/>
    </g>
    <path class="cls-30" d="M418.48,878.62s-36.81,18.74-48.93,20.53c-12.12,1.8-15.34,5.11-15.34,5.11,0,0,23.68-25.09,38.08-34.52,3.03-1.98-23.54-99.76-35.22-157.35-6.75-33.31-6.51-49.9-6.51-49.9l47.09-2.16,7.64,51.4,3.71,8.98c1.94,4.69,4.92,13.09,5.98,18.07,2.88,13.44,2.59,34.24,3.01,41.26.7,11.88,1.15,26.37,1.27,30.56l.07,56.68-.86,11.33Z"/>
    <path class="cls-30" d="M419.28,867.28c-.6,4.35,5.38,13.49,6.97,18,1.83,5.2.09,9.62-5.2,12.77-4.45,2.65-10.35,2.92-15.47,3.44-6.69.68-13.93.5-20.62,1.18-5.73.58-23.82,1.8-29.28,3.73-8.5,3.01-14.02,2.51-18.04,1.66-1.11-.23-1.77-.07-2.37-.85-1.56-2.03-1.7-4.52.94-6.85,3.32-2.94,8.04-.35,11.06-3.67.54-.59,1.03-1.24,1.67-1.71,1.27-.91,2.92-1.01,4.46-1.23,7.67-1.12,6.67-4.54,16.37-8.85,2.85-1.26,18.4-10.38,20.96-12.15"/>
    <path d="M655.31,156.22c-.46,6.2-.9,12.14-1.32,18.08-.35,4.8-.89,9.59-.97,14.38-.08,4.8-5.96,7.88-9.81,7.01-1.87-.23-3.21-1.93-2.98-3.81.06-.49.22-.95.48-1.37,1.59-3.52,5.77-5.13,10.77-3.97.44-5.81.84-11.48,1.28-17.51-8.11.85-15.9,1.64-23.74,2.56-.53.06-1.22,1.38-1.29,2.15-.52,5.77-.91,11.6-1.37,17.39-.16,4.28-3.76,7.62-8.04,7.45-.28-.01-.56-.04-.84-.08-1.41-.15-2.68-.91-3.47-2.08-.36-1.42-.09-2.93.74-4.15,2.45-3.15,5.86-4.07,9.99-2.93l2.1-29.69,28.48-3.45ZM628.16,168.06l24.87-2.98.18-3.17-24.85,2.56c-.08,1.3-.14,2.34-.19,3.58Z"/>
    <path d="M219.11,174.01h0l-28.59,1c-1.55,9.88-3.06,19.58-4.59,29.42-4.04-1.49-7.5-.87-10.19,2.07-.96,1.14-1.37,2.65-1.13,4.12.7,1.22,1.89,2.08,3.27,2.36,4.17.95,8.33-1.66,9.28-5.83.06-.26.11-.52.14-.79.94-5.72,1.8-11.47,2.8-17.17.15-.77.94-2.02,1.47-2.03,7.81-.3,15.63-.42,23.72-.58-.9,5.65-1.79,11.32-2.69,16.99-4.04-1.49-7.5-.87-10.19,2.07-.34.4-.6.86-.79,1.35h0c-1.12,1.53-.78,3.68.75,4.8.39.29.85.49,1.32.59,3.77,1.18,9.87-1.24,10.35-6.16.11-1.06.24-2.13.39-3.18.79-4.9,1.55-9.81,2.41-14.7.13-.77.93-2.02,1.45-2.03,7.86-.3,15.73-.42,23.88-.58-.94,5.98-1.84,11.64-2.69,17.35-4.87-1.57-9.18-.32-11.05,3.04-1.12,1.53-.79,3.68.74,4.8.39.29.84.49,1.32.59,3.77,1.18,9.87-1.24,10.36-6.16s1.43-9.5,2.17-14.25l2.83-17.92-26.73.86ZM191.09,183.43l.46-3.5,24.9-.51c-.17,1.05-.34,2.1-.5,3.14l-24.86.87ZM242.87,181.68l-25.04.87c.15-1.05.27-1.99.4-3.02,0-.16,0-.32.07-.48l24.99-.51c-.15,1.16-.28,2.1-.43,3.19v-.05Z"/>
    <path d="M762.25,169.03c.23.83.82,1.75.65,2.49-.71,3.22.47,5.84,2.11,8.45,1.52,2.25,2.87,4.61,4.04,7.07,2.11,4.75,1.1,9.14-2.53,13.16,4.98-8.37,1.01-13.94-5.68-18.84-.22.5-.4,1.02-.55,1.55-1.88,8.59-3.74,17.19-5.63,25.78-1.04,4.93-5.88,8.09-10.81,7.05-.27-.06-.54-.13-.8-.21-3.88-1.13-4.83-4.76-1.86-7.51,3.39-3.12,7.38-3.58,11.89-1.8,2.69-12.36,5.38-24.65,8.08-36.89l1.1-.28Z"/>
    <path d="M77.54,163.74c.24.83.82,1.74.66,2.48-.73,3.23.47,5.86,2.11,8.47,1.51,2.25,2.86,4.61,4.04,7.05,2.1,4.76,1.1,9.15-2.53,13.18,4.98-8.37,1.01-13.94-5.68-18.84-.22.5-.4,1.02-.55,1.55-1.88,8.59-3.74,17.19-5.64,25.78-1.05,4.94-5.9,8.09-10.84,7.04-.26-.06-.52-.12-.78-.2-3.86-1.14-4.83-4.76-1.84-7.51,3.39-3.12,7.36-3.58,11.89-1.8,2.69-12.36,5.38-24.65,8.08-36.89l1.09-.28Z"/>
    <path d="M710.76,184.1l1.87-8.64c.02-.45.08-.9.19-1.35.16-.74-.42-1.66-.66-2.48l-1.08.31c-2.69,12.26-5.38,24.52-8.08,36.89-4.52-1.79-8.49-1.35-11.89,1.79-2.99,2.76-2.02,6.38,1.84,7.52,4.83,1.48,9.94-1.24,11.42-6.06.08-.26.15-.51.2-.78,1.9-8.6,3.76-17.2,5.64-25.79.14-.49.32-.97.54-1.43Z"/>
    <path d="M132.03,196.34l1.87-8.64c.04-.45.1-.9.19-1.35.17-.74-.42-1.66-.65-2.49l-1.09.31c-2.69,12.28-5.38,24.54-8.08,36.89-4.51-1.78-8.49-1.35-11.89,1.8-2.97,2.69-2.02,6.38,1.86,7.51,4.81,1.49,9.93-1.2,11.42-6.01.08-.27.15-.54.21-.81,1.88-8.59,3.74-17.19,5.63-25.78.14-.49.32-.97.52-1.44Z"/>
    <path class="cls-4" d="M566.26,158.58c52.45,7.24,106.51,18.58,158.82,23.81,33.13,4.36,67.14,7.85,99.57-1.01"/>
    <path class="cls-4" d="M18.42,160.39c48.37,27.23,103.3,37.69,158.23,32.46,38.36-4.36,79.34-12.21,116.08-19.79"/>
    <path class="cls-4" d="M569.7,174.25c5.41-.58,11.51,2.04,16.75,2.91,55.8,7.85,108.12,19.18,163.05,23.54,25.29,2.62,50.57,3.49,75.15-3.59"/>
    <path class="cls-4" d="M18.42,176.12c30.38,17.32,64.33,27.76,99.04,31.58,35.95,3.95,71.03-.18,106.41-6.61,21.4-3.89,42.73-8.18,64.09-12.27"/>
    <path class="cls-4" d="M579.26,190.01c38.68,4.84,67.41,12.78,105.95,18.67,32.54,4.97,65.57,9.7,98.57,9.3,13.7-.16,27.68-1.2,40.87-5.14"/>
    <path class="cls-4" d="M18.42,191.86c33.55,19.3,71.91,29.77,110.28,33.25,54.06,3.49,99.4-11.33,151.79-21.82"/>
    <g id="freepik--character-2--inject-2">
      <path class="cls-14" d="M504.23,545.59c-3.95-31.67-13.81-59.79-21.34-79.92-15.73,5.57-31.5,10.92-48.26,12.43-29.96,2.7-56.06-7.31-85.99-8.59-2.09,11.18-4.09,25.11-5.7,36.35.37.88.58,1.88.58,3.03l-1.29,90.52c0,19.87,4.99,111.27,6.92,131.07,1.38,14.21,5.09,35.07,6.25,49.3,11.03,7.03,28.69,15.01,38.41,15.46,55.14,2.54,99.41-16.4,99.41-16.4,0,0,11.89-226.12,11-233.25Z"/>
    </g>
    <path class="cls-21" d="M353,438.78c-4.02,14.23-3.42,23.97-7.04,35.54,0,0,22.53,23.65,70.77,13.67,48.24-9.98,67.68-20.15,67.68-20.15l-18.26-41.71.26-18.38-107.95,28.16"/>
    <path class="cls-21" d="M473.11,327.21l1.07,51.77c.87-1-6.83,29.18-7.79,31.1s-.48,28.27-.48,28.27c0,0-19.71,14.29-62.27,20.12-42.56,5.82-50.24-11.42-50.24-11.42,0,0-1.92-39.64-3.84-65.6-1.92-25.96,3.36-54.69,3.84-57.09s37.36-34.8,38.32-32.58,19.85-5.28,19.85-5.28c11.1,12.9,20.78,12.42,44.44,5.02l15.45,6.58,1.64,29.11Z"/>
    <path class="cls-30" d="M422.95,240.9s-4.14,28.55-10.52,42.81c-.89,1.99-8.81,5.69-8.81,5.69.47-.17-1.36,4.9-1.49,5.36-2.29,7.87,1.78,12.1,10.72,14.46,9.46,2.5,16.78-.63,26.35-2.74,6.71-1.48,14.11-11.31,16.82-14.97,0,0,.09.68-.31-1.86-.39-2.54,2.58-21.42,2.58-21.42"/>
    <path class="cls-32" d="M455.69,287.89s-4.04-2.63-6.84-4.1c-2.8-1.46-7.93-2.36-19.15-17.15,0,0,.95,15.48,17.8,22.3,0,0,4.33,1.9,7.45,1.81l.74-2.86Z"/>
    <path class="cls-30" d="M489.82,201.9c.05.06.1.13.16.19-.04-.12-.08-.24-.11-.35l-.05.16ZM496.73,205.59c.08.13.17.27.26.4l.04-.13s-.25-.43-.3-.27ZM428.1,265.31c4.8,9.1,13.31,19.75,24.33,22.56,3.95,1.01,8.32.09,11.76-1.63,5.22-2.62,10.69-5.25,15.06-8.86,4.19-3.46,6.27-5.77,9.06-10.43,2.88-4.81,3.27-6.19,4.25-11.56.44-2.4,1.31-5.97,2.14-8.15.96-2.52,5.14-12.33,7.13-18.23,1.99-5.9-1.32-16.98-1.32-16.98.14-1.72-.39-3.11-.87-4.66l-.7-.21s.3.27.15.75c-.85-.41-1.59-1.16-2.1-1.9v.03c-1.21.16-2.11-.64-2.74-1.71-.05.16.03.54.2.59-1.1-.16-2-.96-2.51-1.82-.05.16.03.54-.02.7-.75-.39-1.42-1.05-1.95-1.68.1.26,4.24.85,4.2.97-1.1-.16,0,.56-.63-.51l-.69-.86c-.93-.11-1.05.43-1.56-.43.13.21.06-1.92,0-1.76-1.05-.32-.74-.3-1.47-1.05-.05.16-3.18.17-3.23.33-.88-.27-.89.61-1.39-.25.13.21.84-.48.96-.27-1.1-.16-1.7.39-2.33-.68.13.22-2.93-2.82-2.93-2.82-1.1-.16-1.02.22-1.7-.69.25.43-4.76-1.78-4.68-1.41-.88-.27.69,3.72.14,3.02-.05.16-1.87-1.1-1.87-1.1-.93-.11.14,1.1-.36.24-.05.16-.02.7.15.75-1.2.16-2.33-.53-3.18-1.5.25.43.33.81.46,1.02-.88-.27-1.63-.32-2.3-1.23-.05.16.15.75.33.8-.97.05-1.98-.43-2.7-1.18-.05.16.2.59.33.8-.75-.05-1.45-.27-2-.96l.33.8c-.7-.21-1.32-.05-2.28-.7-.05.16.25.43.2.59-.53-.16-1.23-.38-1.7-.7-.05.16.38.64.2.59-.7-.21-1.32-.05-2.1-.64.12.21.2.59.33.8-.7-.21-1.45-.27-2.05-.8-.05.16.03.54.15.75-.7-.21-1.32-.05-2.1-.64-.05.16.2.59.33.8-.7-.21-1.45-.27-2.1-.64-.05.16.25.43.38.64-.7-.21-1.45-.27-2.23-.86-.1.32.03.54-.02.7-.53-.16-.83-.43-1.35-.59l-.97.05c-3.44,2.47-6.55,13.29-6.55,13.29-6.76,2.68-11.56,10.88-12.32,13.99-.76,3.11-3.65,9.43-3.65,9.43-.53-1.39-1.72-4.39-1.85-5.84-.18-1.29.61-2.63.43-3.91-.79-3.05-4.54-3.32-6.96-2.3l-.48.43c-3.79,2.82-4.31,15.01-3.34,18.97-1.5,7.01,3.43,12.43,8.31,8.52l.14,2.96"/>
    <path class="cls-7" d="M499.88,218.6c-1.39-10.66-10.69-19.18-32.02-28.64-21.33-9.46-41.11-6.65-41.11-6.65,19.99-28.58,51.86-17.71,59.03-15.52s35.67,41.46,15.52,64.06l-1.35,2.3s.18-13.62-.07-15.56Z"/>
    <path class="cls-7" d="M423.07,174.97s3.41-20.69,19.96-22.93c22.11-2.99,49.75,1.15,52.99,24.47l-72.96-1.54Z"/>
    <path class="cls-26" d="M410.33,223.81c-1.11-2.11.72-6.58-.1-8.81-4.3-11.72.84-20.33,5.28-25.03,1.94-2.04,1.54-6.79,2.3-8.86,3.98-10.89,5.36-10.84,25.3-17.18,16.23-5.16,30.63-.3,38.9,2.71,13.25,4.83,18.93,7.49,20.72,18.48.23,1.43-.74,2.24-.68,3.89.08,2.34,3.34,3.59,3.07,6.45,0,0-19.41,1.67-36.67,5.16-17.27,3.48-53.07,26.45-54.83,36.07-.06.3-2.06-10.54-3.29-12.87Z"/>
    <path class="cls-7" d="M430.37,185.57c9.08-2.78,24.46-5.52,41.88-.38,0,0-34.15-15.51-57.77,5.35l-.69.91c-1.81,2.4-3.19,5.1-4.06,7.97l7.21-6.31c3.9-3.41,8.46-6.02,13.42-7.54Z"/>
    <path class="cls-7" d="M502.33,189.48l-1.67-1.28c-3.88-2.97-8.17-5.37-12.74-7.11l-7.65-2.92s19.88,2.46,22.63,8.52l-.57,2.79Z"/>
    <path class="cls-15" d="M419.82,243.04c-2.06-.38-4.38.68-4.99,2.78-.29.99-.11,2.06.42,2.94.27.44.74.78,1.18,1.04,1.06.64,2.31.74,3.49.37.11-.03.44-.14.39-.31s-.39-.11-.49-.07c-1.29.4-2.81-.13-3.63-1.21-.99-1.29-.7-3.32.46-4.4.73-.68,1.67-.88,2.64-.7.2.04.47-.03.62-.17.13-.12.11-.24-.07-.27h0Z"/>
    <path class="cls-8" d="M432.52,218.16l-5.71,15.36-3.39-8.58s6.49-4.86,9.1-6.77Z"/>
    <path class="cls-27" d="M423.2,231.59c-1.05-.31-2.45-.35-2.69,1-.2,1.13.24,2.3.08,3.44-.06.4-.28,1.16-.78,1.22.05,0-.11-.04-.17-.08-.13-.07-.23-.18-.32-.28-.29-.32-.48-.72-.63-1.12-.55-1.46-.6-3.17-.08-4.62.45-1.24,1.29-3.35,2.81-3.53.49-.06.68-.71.08-.64-1.66.2-2.69,1.7-3.34,3.1s-.91,2.67-.75,4.2c.12,1.22.9,4.23,2.74,3.52,1.36-.52,1.44-2.02,1.34-3.26-.05-.66-.2-1.36-.08-2.02.13-.7.71-.51,1.29-.34.38.11,1.04-.44.51-.59h0Z"/>
    <path class="cls-7" d="M425.19,208.14s-12.98,7.18-14.97,10.99l.02-4.13s5.19-6.4,14.95-6.86Z"/>
    <g>
      <path d="M469.64,258.91c-1.5.28-3.42-.48-4.47-1.68-.23-.27-1.25-.39-.92-.01,1.4,1.58,4.19,2.55,6.12,2.19.19-.04.2-.17.01-.3-.19-.14-.54-.23-.74-.19"/>
      <path d="M463.79,256.67c-.74-.67-1.65-1.19-2.6-1.56-.14-.05-.34-.06-.47,0-.1.05-.15.14-.06.23.37.39.91.67,1.44.82.17.05.4.07.53-.04.13-.1,0-.24-.14-.27-.44-.12-.85-.35-1.16-.67-.18.08-.36.16-.54.24.85.33,1.66.8,2.32,1.4.13.12.37.14.53.1.12-.03.28-.14.14-.26"/>
      <path d="M459.9,255.61c-1.13-.38-2.31-1.28-2.61-2.3-.45-1.54.96-3.34,2.63-3.72.18-.04.14-.18-.01-.26-.19-.11-.45-.1-.64-.06-1.45.34-2.77,1.76-2.95,3.02-.17,1.18.68,2.3,1.94,3.04.37.22.79.42,1.21.56.17.06.5.1.62,0,.13-.11-.01-.22-.17-.27"/>
      <path d="M471.89,258.97c-.02-.15.12-.2.21-.17.3.1.64.11.97-.02.06.15.13.31.19.46-.63-.12-1.31-.11-1.97.09-.13.04-.27-.06-.35-.17-.05-.08-.09-.25.04-.29"/>
      <path d="M470.98,258.87c.74-.22,1.49-.22,2.2-.09.1.02.22.11.26.23.04.09.02.19-.08.23"/>
      <path d="M474.21,259.84c.75.2,1.77-.03,2.39-.77.94-1.12.9-2.8.22-3.9-.07-.12.02-.22.13-.22.15,0,.28.12.36.25.59.96.75,2.28.26,3.45-.46,1.09-1.4,1.66-2.39,1.72-.29.02-.59,0-.87-.08-.11-.03-.3-.14-.31-.29-.01-.15.11-.18.21-.15"/>
    </g>
    <path class="cls-8" d="M487.54,240.04c1.13-.21,2.25.59,2.72,1.34.11.18.27.67.26,1.37,0,.89-.62,1.72-1.3,2.12-.91.54-2.09.32-2.85-.35-1.02-.92-.97-2.46-.35-3.41.11-.17.61-.9,1.52-1.06"/>
    <path class="cls-8" d="M477.87,240.63s5.87-2.28,8.37-1.78c3.64.73,7.39,4.02,8.11,6.15,0,0-4.86-4.69-7.44-5.13-2.47-.42-9.03.75-9.03.75Z"/>
    <path class="cls-8" d="M457.38,231c-.82-.8-2.42-1.14-3.23-.77-.19.09-.71.34-1.09.92-.49.74-.45,1.77-.11,2.49.45.96,1.56,1.44,2.56,1.3,1.36-.19,2.18-1.5,2.2-2.63,0-.21.31-.52-.35-1.16"/>
    <path class="cls-8" d="M462.73,235.48s-4.31-5.03-6.91-5.91c-3.8-1.29-9.07-.44-10.87,1.02,0,0,7.05-1.46,9.71-.49,2.54.93,8.08,5.38,8.08,5.38Z"/>
    <path class="cls-8" d="M481.5,228.41c-.17.73-.33,1.46-.5,2.19-.13.56-.25,1.12-.37,1.67,1.97-.04,3.64.03,4.89.1,2.64.16,4,.26,5.42.85,1.49.62,2.68,1.5,3.14,1.85.65.49,1.08.8,1.56,1.36,1.04,1.2,1.32,2.34,1.54,2.29.21-.04.11-1.01.1-1.11-.26-2.44-1.7-4.18-1.81-4.32,0,0-1.08-1.34-3.07-2.37-1.38-.71-5.36-1.92-10.89-2.52"/>
    <path class="cls-8" d="M466.1,222.76c-.22.71-.45,1.43-.68,2.15-.17.55-.35,1.09-.52,1.63-1.84-1.08-3.45-1.9-4.67-2.5-2.58-1.26-3.91-1.89-5.56-2.14-1.74-.26-3.32-.13-3.93-.07-.87.08-1.44.12-2.19.34-1.61.47-2.47,1.31-2.66,1.15-.17-.14.43-.92.49-1,1.52-1.96,3.8-2.69,3.97-2.75,0,0,1.72-.58,4.15-.41,1.67.12,6.07,1.19,11.61,3.6"/>
    <path class="cls-22" d="M463.27,264.72c-5.05-1.54-13.03-4.73-13.03-4.73,0,0-2.26,13.66,9.45,17.24,11.72,3.58,17.03-9.14,17.03-9.14,0,0-8.4-1.82-13.45-3.37Z"/>
    <path class="cls-20" d="M463.32,264.74c-2.4-.73-11.94-4.16-11.94-4.16,0,0,1.06,8.79,9.75,11.44,9.42,2.88,14.31-3.99,14.31-3.99l-12.11-3.29Z"/>
    <path class="cls-28" d="M463.3,265.18c-2.4-.73-9.57-3.43-9.57-3.43,0,0,1.71,3.82,8.92,6.03,7.21,2.2,10.39-.03,10.39-.03l-9.74-2.56Z"/>
    <path class="cls-22" d="M477.51,267.4c-.23-.15-1.79-.05-2.95-.53-1.93-.8-2.99-1.79-4.39-2.35-2.39-.97-4.3-.33-5.37-.66-1.07-.33-2.29-1.92-4.82-2.45-1.48-.31-5.23-.8-7.28-1.21-1.23-.25-2.46-1.21-2.74-1.21-.39,0-.61,3.19,12.83,7.3,13.44,4.11,15.04,1.33,14.71,1.12Z"/>
    <path class="cls-10" d="M391.73,291.73c.53-1.44-16.69-18.72-20.55-32.56-5.47-20.28-9.47-40.93-11.97-61.79-2.44-21.44-15.98-94.51-15.98-94.51l-24.18,1.37,7.72,100.01c3.01,36.72,26.74,120.11,26.74,120.11,0,0,37.7-31.19,38.22-32.63Z"/>
    <path class="cls-30" d="M343.69,104.65l-24.2,1.9s-.16-2.01,0-12.56c.16-10.55,8.7-19.43,8.7-19.43l.21-2.67s.16-.34-1.85,0c-.46.12-.94.12-1.39,0-1.28-.43-1.92-2.28-1.28-7.81.82-7.38,5.69-5.21,5.69-5.21,0,0-1.67,3.7,0-1,1.13-2.76,3.87-4.51,6.85-4.36,0,0,6.6-5.37,9.13-5.37s9.07,4.96,9.86,7.1,5.39,12.01,4.73,15.53c-.66,3.52-16.26,23.79-17.38,24.98l.94,8.91Z"/>
    <path class="cls-30" d="M354.03,76.33c.53-4.41,1.05-8.81,1.55-13.2.34-1.91.43-3.86.27-5.8-.63-3.16-1.91-6.16-3.77-8.79-.62-1.17-1.44-2.22-2.42-3.11-1.03-.87-2.45-1.1-3.7-.62-1.24.74-1.96,2.12-1.85,3.56.13,1.4.43,2.78.91,4.11,1.64,4.96.58,10.42-2.79,14.41-1.81,1.58-3.75,3-5.8,4.25-6.39,4.75-9.88,12.45-9.25,20.39"/>
    <path class="cls-32" d="M354.05,72.61c.25-2.51.57-5.78.96-9.7.37-2.17.37-4.38,0-6.55-.64-2.44-1.69-4.76-3.11-6.85-.63-1.19-1.4-2.3-2.28-3.31-.84-.96-2.14-1.38-3.38-1.1-1.17.56-1.86,1.79-1.74,3.08.16,1.49.49,2.96.98,4.38.83,3.07.83,6.31,0,9.38-.85,2.88-2.7,5.36-5.21,7.01-2.2,1.31-4.27,2.84-6.17,4.57-1.56,1.55-2.9,3.31-3.97,5.23-1.57,2.82-2.55,5.92-2.88,9.13-.21,2.28-.21,3.56-.21,3.56-.12-.29-.18-.6-.18-.91-.09-.89-.09-1.78,0-2.67.15-3.31,1.04-6.55,2.58-9.48,1.07-2.03,2.43-3.89,4.04-5.53,1.9-1.79,3.98-3.37,6.21-4.73,2.3-1.51,3.98-3.81,4.73-6.46.77-2.86.77-5.88,0-8.75-.52-1.48-.87-3.01-1.03-4.57-.14-1.81.89-3.51,2.56-4.22,1.66-.43,3.43.11,4.57,1.39.94,1.1,1.76,2.29,2.44,3.56,1.43,2.22,2.48,4.65,3.11,7.22.39,2.27.39,4.58,0,6.85-.55,3.93-1,7.17-1.35,9.68-.13,1.19-.34,2.36-.64,3.52-.14-1.24-.16-2.5-.05-3.74Z"/>
    <path class="cls-32" d="M335.76,67.98c-.56,1.41-1.54,2.61-2.81,3.45-.77.51-1.64.84-2.56.96-1.08.18-2.18-.17-2.97-.94-.64-.86-.88-1.96-.64-3.01.16-.91.34-1.69.5-2.47.3-1.42.62-2.79.91-4.13.19-1.3.57-2.56,1.12-3.74.1,1.31,0,2.63-.3,3.9-.23,1.37-.53,2.6-.66,4.18s-.87,3.56,0,4.57c.53.48,1.26.68,1.96.55.74-.09,1.45-.34,2.08-.73,1.13-.68,2.04-1.67,2.63-2.85.51-1.18.83-2.44.96-3.72.54,1.3.46,2.77-.23,4Z"/>
    <path class="cls-32" d="M344.46,58.73c.07,1.91-.17,3.83-.71,5.66-.69,2.45-2.69,4.32-5.18,4.84-.73.14-1.49.03-2.15-.32-.62-.43-1.02-1.12-1.1-1.87-.15-1.12-.23-2.25-.25-3.38-.02-1.89.12-3.78.43-5.64.19-1.74.72-3.42,1.55-4.96.18.07-.37,1.96-.71,5.07-.2,1.83-.26,3.67-.18,5.5.05,1.07.16,2.14.32,3.2,0,.42.21.81.55,1.05.42.21.89.27,1.35.16,2.06-.48,3.71-2.01,4.34-4.02.55-1.72.85-3.51.89-5.32-.03-1.73.15-3.45.55-5.14.29,1.7.39,3.43.3,5.16Z"/>
    <path class="cls-30" d="M530.72,190.79l-4.66-4.08s-12.12-9.68-16.31-12.37-6.36-12.08-7.18-14.05c-.82-1.97,5.24-9.69,5.24-9.69.78-2.44,2.71-4.33,5.16-5.06,4.22-1.29,5.75,3.42,5.75,3.42,2.58-4.07,8.22-.15,8.22-.15,2.94-4.04,6.5-.3,6.5-.3,2.36-3.65,10.31-.35,13.77,11.46,3.46,11.81,3.36,18.64,3.27,19.11s3.49,12.31,3.49,12.31l-23.25-.59Z"/>
    <path class="cls-32" d="M533.36,173.86c-1.32-2.15-3-4.05-4.97-5.62-2.38-1.89-5.33-2.91-8.37-2.91-1.04.05-2.07.28-3.05.66l-.35.14-.33-.2c-2.26-1.83-3.74-4.46-4.13-7.35.04-1.25.37-2.47.96-3.57.39-.81.43-1.74.13-2.58-.55-1.27-1.91-1.97-3.26-1.67-.96.23-1.4.6-1.44.58s.28-.6,1.33-.99c.65-.23,1.35-.24,2.01-.03.9.29,1.64.93,2.05,1.78.46,1.06.46,2.26,0,3.32-.5.99-.77,2.09-.79,3.2.47,2.63,1.91,4.99,4.03,6.62l-.63-.14c1.12-.44,2.3-.68,3.5-.71,3.31,0,6.52,1.13,9.08,3.23,2.02,1.7,3.72,3.75,5,6.06.86,1.53,1.59,3.13,2.21,4.77.43,1.16.52,1.85.52,1.85-.23.16-1.23-2.4-3.5-6.44Z"/>
    <path class="cls-32" d="M526.76,153.47c.52,1.88.91,3.79,1.18,5.72.24,1.2.22,2.43-.06,3.61-.15.71-.54,1.35-1.09,1.82-.6.48-1.35.72-2.11.7-1.38-.1-2.67-.69-3.65-1.66-.88-.82-1.6-1.8-2.13-2.88-.86-1.8-1.34-3.77-1.4-5.77-.14-1.78.02-3.57.47-5.3.25,1.75.4,3.5.46,5.27.16,1.86.68,3.67,1.52,5.33.88,2,2.68,3.44,4.81,3.86,1.01.04,1.9-.66,2.11-1.64.22-1.04.25-2.1.08-3.15-.3-2.16-.6-4.04-.91-5.64-.48-1.72-.79-3.49-.92-5.27.74,1.59,1.28,3.27,1.62,4.99Z"/>
    <path class="cls-32" d="M534.09,151.79l1.04,3.44c.51,1.44.8,2.95.85,4.48.02,1.72-.93,3.31-2.45,4.12-1.33.52-2.83.21-3.85-.79-.9-.75-1.53-1.78-1.77-2.93.19-.13.83,1.08,2.29,2.28.8.66,1.89.83,2.85.44,1.09-.68,1.74-1.89,1.7-3.17-.06-1.41-.3-2.81-.72-4.16-.25-1.17-.52-2.32-.79-3.5-.41-2.02-.6-3.28-.44-3.32.1.06.59,1.21,1.28,3.12Z"/>
    <path class="cls-32" d="M540.72,154.26c.34.74.77,1.5,1.2,2.49.57,1.14.67,2.45.29,3.66-.5,1.25-1.63,2.13-2.96,2.32-1.08.13-2.15-.27-2.88-1.07-1.2-1.33-.95-2.47-.74-2.5s.24,1,1.32,1.89c.58.51,1.36.72,2.12.59.9-.19,1.65-.8,2.02-1.64.26-.94.18-1.94-.23-2.82-.32-.91-.71-1.79-.91-2.58-.45-1.58.11-2.62.25-2.54.15.06-.05.99.51,2.21Z"/>
    <polygon class="cls-30" points="352.43 330.59 324.43 213.61 319.05 104.24 342.95 102.87 371.98 258.36 395.82 294.6 352.43 330.59"/>
    <path class="cls-21" d="M377.21,258.8l-3.54-17.9c-12.17,3.83-27.89,10.32-40.33,12.99l19.09,79.75,46.87-38.6-22.1-36.24Z"/>
    <path class="cls-30" d="M439.19,332.7s25.04,43.05,25.29,40.96c.18-1.57,16.93-15.76,25.58-22.12,9.46-6.74,85.72-54.68,91.39-61.38-7.73-5.13-34.57-20.27-34.57-20.27l-62.13,32.47c-1.06-1.72-7.98-8.06-9.7-9.12-2.14-.91-9.76,4.35-9.76,4.35l-26.11,35.11Z"/>
    <path class="cls-21" d="M509.49,282.9l-27.35,13.35c-1.06-1.72-5.37-1.96-7.08-3.01-2.14-.91-9.76,4.35-9.76,4.35l-26.11,35.11s29.4,63.1,29.65,61.01c.18-1.57,12.57-33.2,21.22-39.56,4.05-2.89,20.35-13.33,38.11-24.85-6.7-13.81-13.31-32.02-18.69-46.39Z"/>
    <path class="cls-30" d="M544.11,273.18l-14.41-87.5,22.3-.92s31.88,74.54,33.57,90.6c1.69,16.06-10.43,20.61-16.29,23.22-5.86,2.61-25.16-25.4-25.16-25.4Z"/>
    <path class="cls-25" d="M474.67,354.34c-.25-5.33.28-10.79,2.48-15.71s5.95-8.61,9.66-12.29c.41-.41-.36-.47-.6-.47-.53,0-1.27.22-1.66.61-3.79,3.75-7.65,7.62-9.86,12.56s-2.76,10.56-2.5,15.97c.02.5,2.52.08,2.49-.67h0Z"/>
    <path class="cls-25" d="M353.66,330.38c2.75-9.21,6.54-18.42,11.54-26.63,1.9-3.12,4.04-6.11,6.68-8.65.42-.4-.37-.47-.6-.47-.54,0-1.26.23-1.66.61-4.75,4.58-8.1,10.57-10.94,16.46-2.47,5.12-4.58,10.42-6.41,15.81-.37,1.09-.74,2.19-1.07,3.29-.17.57,2.26.26,2.46-.41h0Z"/>
    <g>
      <path class="cls-30" d="M565.78,660.91l25.55,9.73s1.57-14.09,3.53-32.3c1.68-15.63,10.22-24.84,10.22-24.84l2.44,78.06-4.38,3.26c-4.72,2.07-10.65,1.23-14.6-2.07l-26.11-21.39,3.36-10.45Z"/>
      <g>
        <path class="cls-30" d="M567.63,661.51s-2.59-2.63-6.57-6.64c-3.98-4-11.43-6.92-15.6-8.41-4.17-1.49-7.26-3.26-7.88-.2s2.66,4.5,2.66,4.5l1.51,6.7s-.58,2.05-.05,4.66c.53,2.61,2.58,4.16,2.58,4.16,0,0-.08,2.4,1.82,4.07,1.9,1.66,7.25,1.09,7.25,1.09l9.08-.08,5.21-9.85Z"/>
        <path class="cls-32" d="M551.47,654.98c-.05-.04.1-.22.19-.52.11-.27-.14-.74-.49-1.26-.72-.96-2.38-1.87-4.2-2.57-.93-.33-1.85-.58-2.67-.67-.83-.11-1.55.04-2.2.18-1.31.23-1.73.91-1.81.89-.04-.01-.04-.26.23-.58.26-.32.78-.63,1.43-.85.63-.21,1.48-.46,2.41-.37.93.07,1.9.3,2.88.66.98.35,1.87.82,2.63,1.31.75.49,1.41,1.06,1.78,1.7.18.33.28.6.36.89.08.28.05.6-.06.79-.23.37-.45.43-.48.41Z"/>
        <path class="cls-32" d="M557.98,659.65c-.16.04.05-1.28-1.32-2.39-.67-.56-1.61-.93-2.77-1.29-1.18-.41-2.41-.83-3.7-1.27-1.31-.45-2.55-.95-3.67-1.27-1.11-.33-2.14-.29-3.02-.14-.87.14-1.54.39-1.92.67-.4.26-.51.53-.57.51-.04,0-.03-.35.37-.74.38-.4,1.1-.76,2.01-.98.89-.23,2.09-.34,3.31-.02,1.22.3,2.43.78,3.75,1.23,1.28.46,2.51.91,3.68,1.33,1.12.38,2.21.87,2.9,1.55.72.67,1.01,1.47,1.05,2,.05.54-.06.82-.1.82Z"/>
        <path class="cls-32" d="M556.42,662.65c0-.06.29-.11.77-.31.24-.1.53-.24.82-.44.3-.22.57-.46.52-.83-.02-.38-.26-.8-.65-1.08-.39-.29-.93-.45-1.53-.56-1.29-.2-2.64-.41-4.06-.62-2.9-.43-5.52-.85-7.41-1.2-.95-.2-1.68-.3-2.16-.16-.48.12-.64.41-.69.37-.04,0,.03-.39.59-.65.54-.27,1.41-.23,2.35-.11,1.91.21,4.55.55,7.45.97,1.45.23,2.83.45,4.1.69.64.14,1.28.34,1.79.76.5.42.81,1,.8,1.6,0,.27-.12.62-.3.8-.18.19-.36.31-.54.41-.36.2-.69.3-.96.36-.55.12-.86.06-.86.01Z"/>
        <path class="cls-32" d="M549.93,667.73c-.12,0,.15-1.09-.3-2.8l-.1-.39.4.1c1.19.3,2.85.44,4.62-.09.9-.24,1.79-.72,1.55-1.59-.16-.85-1.18-1.42-2.18-1.86-1.72-.76-3.56-1.01-5.18-.88-.81.06-1.56.23-2.16.56-.6.33-1.02.83-1.29,1.36-.52,1.09-.54,2.15-.6,2.85-.04.71-.06,1.11-.12,1.11-.05,0-.14-.39-.19-1.11-.03-.71-.12-1.8.4-3.08.26-.63.75-1.28,1.46-1.7.71-.43,1.56-.63,2.43-.72,1.74-.18,3.71.07,5.57.88.55.25,1.07.5,1.57.88.49.36.93.91,1.05,1.56.16.63-.11,1.41-.63,1.77-.49.38-1.01.52-1.48.66-1.94.52-3.72.29-4.95-.13l.3-.28c.19.93.14,1.68.06,2.18-.08.5-.19.75-.23.74Z"/>
      </g>
      <path class="cls-3" d="M591.4,670.45c.12-.14,2.3,2.06,3.59,5.58,1.31,3.51,1.07,6.59.89,6.57"/>
    </g>
    <path class="cls-25" d="M423.9,316.5c8.09.2,16.11-2.72,23.03-6.73,5.87-3.4,10.92-8,15.8-12.67.49-.47,1.08-.94,1.47-1.5.22-.31.36-.86-.08-1.08-2.38-1.24-4.77-2.47-7.15-3.71-.75-.39-1.7-.16-2.15.58-.02.03-.04.07-.06.1-.2.26,0,0-.11.17-.28.42-.57.83-.87,1.23-1.05,1.41-2.19,2.76-3.4,4.04-3.79,4.01-8.3,7.36-13.35,9.61-3.64,1.62-7.51,2.59-11.48,2.92-1.4.12-1.92,1.96-.22,1.82,12.02-1.01,22.94-7.71,30.2-17.22.59-.77,1.16-1.56,1.67-2.38l-2.15.58c2.38,1.24,4.77,2.47,7.15,3.71l-.08-1.08c-.24.35-.6.64-.9.94-1.55,1.53-3.18,2.98-4.81,4.42-2.73,2.43-5.44,4.81-8.51,6.8-3.26,2.12-6.78,3.89-10.42,5.24-4.05,1.5-8.39,2.53-12.73,2.43-.57-.01-1.38.15-1.62.76-.21.53.19,1.03.76,1.05h0Z"/>
    <path class="cls-25" d="M416.58,309.2c-4.87-.65-12.47-2.11-14.11-7.69-.32-1.11-.35-2.26-.1-3.38.04-.16.08-.32.13-.49.08-.26.03-.11.03-.1.14-.45.28-.91.4-1.37.64-2.3,1.28-4.6,1.92-6.89.25-.91-1.41-.65-1.78-.51-1.75.68-3.51,1.36-5.26,2.03-.66.26-1.52.44-1.88,1.11-.25.47-.34,1.09-.48,1.6-1.53,5.72-2.18,12.34,2.34,16.88,2.93,2.94,6.95,4.5,11.07,4.55.54,0,1.38-.16,1.63-.72.23-.52-.2-.89-.72-.9-5.81-.08-11.9-3.88-12.8-9.95-.57-3.79.22-7.99,1.43-11.6l-.73.75c2.15-.83,4.3-1.66,6.45-2.49l-1.78-.51c-.61,2.18-1.21,4.36-1.82,6.54-.11.41-.24.81-.34,1.22s0,.05-.01.09c-.1.32-.22.63-.3.97-.79,3.41.94,6.57,3.68,8.55,3.46,2.5,7.96,3.39,12.11,3.94,1.1.15,2.58-1.4.91-1.63h0Z"/>
    <path class="cls-25" d="M424.21,310.54c-3.55,8.65-7.11,17.29-10.66,25.94-.5,1.21-.99,2.42-1.49,3.62l2.02-.78c-1.84-.2-3.68-.41-5.51-.61l.45.41c3.37-8.47,6.73-16.93,10.1-25.4.48-1.21.96-2.41,1.44-3.62l-1.75.79c2.04.02,4.08.04,6.12.06.46,0,1.41-.18,1.65-.64.25-.48-.22-.57-.63-.57-2.04-.02-4.08-.04-6.12-.06-.51,0-1.53.24-1.75.79-3.37,8.47-6.73,16.93-10.1,25.4-.48,1.21-.96,2.41-1.44,3.62-.11.27.27.39.45.41,1.84.2,3.68.41,5.51.61.6.07,1.75-.14,2.02-.78,3.55-8.65,7.11-17.29,10.66-25.94.5-1.21.99-2.42,1.49-3.62.25-.62-2.17-.35-2.47.37Z"/>
    <path class="cls-25" d="M408.2,308.51c-.49,9.02-.97,18.05-1.46,27.07-.07,1.28-.14,2.56-.21,3.84-.06,1.17,2.12.76,2.43-.01,1.65-4.15,3.3-8.31,4.96-12.46.58-1.46,1.33-2.94,1.77-4.45.16-.55.14-1.16.18-1.74l.28-4.01c.16-2.34.32-4.67.49-7.01.02-.33-.2-.59-.52-.67-1.98-.49-3.95-.97-5.93-1.46-.57-.14-1.37-.01-1.76.47-.33.41-.29.95.29,1.09,1.98.49,3.95.97,5.93,1.46l-.52-.67c-.29,4.14-.52,8.3-.86,12.44-.02.27.13-.33.01.03-.08.24-.19.48-.28.71l-1.11,2.8-3.17,7.96c-.7,1.77-1.4,3.53-2.11,5.3h2.43c.49-9.04.97-18.06,1.46-27.08.07-1.28.14-2.56.21-3.84.06-1.2-2.45-.79-2.51.23Z"/>
    <path class="cls-30" d="M647.99,878.55c1.26,2.61,1.9,3.22,3.16,5.7,1.45,2.86.7,5.48-2.25,7.58-2.49,1.77-6.05,3.22-9.08,3.81-3.96.77-8.31,1.09-12.26,1.87-3.39.66-14.14,2.4-17.28,3.82-4.88,2.21-8.22,2.24-10.69,1.99-.68-.07-1.07.06-1.48-.35-1.07-1.07-1.32-2.47.1-3.96,1.79-1.87,4.79-.66,6.38-2.73.28-.37.53-.76.89-1.07.7-.59,1.68-.74,2.58-.96,4.52-1.08,3.68-2.97,9.2-5.99,1.62-.89,13.2-12.7,14.62-13.85"/>
    <path class="cls-30" d="M643.11,845.6c-.34-2.38-.34-11.9-1.5-18.63-.68-3.97-2.55-14.26-5.02-21.74-.58-1.75-1.89-4.34-3.14-6.65-10.25,2.69-20.55,5.04-30.99,6.23,10.28,27.81,27.07,77.55,25.61,78.77-7.38,6.21-13.68,12.67-13.68,12.67,0,0,1.18,1.99,7.79.26,6.61-1.73,28.54-12.63,28.54-12.63l-5.41-9.38-2.21-28.9Z"/>
    <path class="cls-30" d="M679.85,893.14s-29.68,15.94-36.51,16-4.51-3.58-4.51-3.58c0,0,17.97-17.86,19.7-21.13.95-1.79-4.29-56.07-7.51-83.94-2.24-19.36-2.49-34.78-2.49-34.78l31.42,2.99,3.39,28.27,1.36,5.4c.71,2.82,1.71,7.83,1.92,10.74.56,7.87,1.18,21.1.87,25.12-.52,6.81-4.77,23.57-5.02,25.96l-3.23,21.26.61,7.69Z"/>
    <path class="cls-30" d="M679.33,881.44c-.23,2.94.8,7.1,1.51,13.28.31,2.72,2.53,6.59-.32,8.58-5.04,3.52-11.06,2.15-13.34,2.7-4.81,1.16-8.65,1.17-13.27,2.71-4.68,1.56-5.64,1.94-10.78,2.29-.71.05-1.46.03-2.08-.29-.42-.21-.74-.55-1.16-.76-1.47-.74-3.31.27-4.98.06-.74-.09-1.41-.42-2.1-.68-1.82-.68-3.8-.9-5.72-1.29-1.92-.39-3.88-1.02-5.22-2.31-1.34-1.3-1.86-3.42-.72-4.86,1.72-2.18,3.97-.92,6.32-1.14,2.35-.22,3.23-.6,5.3-1.55,5.28-2.45,6.1-2.94,10.55-4.86,3.46-1.49,13.62-6.25,18.49-9.61l-.09-11.65"/>
    <g>
      <path class="cls-32" d="M640.86,909.66c-.17-.05-.17-.04-.32-.18-.09-.09-.16-.17-.21-.28-.14-.27-.21-.58-.21-.89,0-.24.09-.53.21-.76,0-.02.12-.21.06-.12.04-.06.09-.13.14-.19.09-.12.21-.22.31-.33.04-.04.03-.03-.03.03.03-.03.06-.05.1-.08.07-.05.13-.11.2-.16s.14-.1.21-.15c.04-.02.07-.05.11-.07-.1.06-.12.07-.06.04.3-.16.59-.33.89-.47.03-.01.06-.03.09-.04.1-.05.08-.04-.06.03.08-.01.17-.08.25-.11.15-.07.3-.13.45-.19.29-.12.58-.24.87-.36.19-.08.94-.42.62-.73-.31-.29-1.1-.08-1.42.06-1.16.5-2.35.95-3.41,1.65-.94.62-1.82,1.58-1.67,2.79.08.65.48,1.27,1.14,1.45.49.13,1.09,0,1.53-.24.2-.12.74-.55.23-.69h0Z"/>
      <path class="cls-32" d="M634.9,909.35c.15,0,.18.03.04,0,.13.04.17.06.04,0-.14-.07.17.04.03.01-.02,0-.04-.04-.06-.05-.07-.03.08.12.05.05-.02-.04-.07-.09-.1-.13-.02-.03-.11-.19-.05-.07s-.03-.08-.04-.11c-.02-.07-.04-.14-.06-.2-.03-.12-.05-.25-.06-.37-.01-.1,0,.05,0,.06,0-.03,0-.07,0-.1,0-.08,0-.15,0-.23,0-.27.03-.54.08-.8.01-.06.02-.12.04-.18.04-.17-.02.04,0,0,.04-.1.07-.21.11-.31.01-.03.09-.18.03-.07s.09-.12.12-.15c.06-.08.12-.15.19-.22.03-.04.06-.07.1-.1-.08.07-.03.03.02-.01.15-.12.3-.24.46-.34-.15.1.03-.01.09-.05.1-.05.2-.11.3-.16.18-.09.36-.16.55-.24.12-.05-.03,0-.04.02.05-.02.1-.04.14-.05.11-.04.22-.08.33-.12.53-.19,1.04-.43,1.55-.65.06-.02.36-.13.17-.07.11-.04.23-.08.35-.11.08-.02.36-.07.14-.04.12-.01.25-.02.37-.02.49,0,1.14-.39,1.19-.91.05-.58-.56-.77-1.02-.78-1.16-.02-2.24.59-3.28,1.03-.05.02-.21.07.02,0-.05.02-.1.03-.15.05-.11.04-.22.08-.34.12-.31.12-.62.23-.93.38-.49.23-.97.51-1.37.87-.7.6-1.14,1.29-1.32,2.18-.14.66-.15,1.41.03,2.07.29,1.02,1.1,1.52,2.13,1.53.49,0,1.14-.39,1.19-.91.05-.58-.56-.77-1.02-.78h0Z"/>
      <path class="cls-32" d="M632.01,908.56c-.75-.27-1.05-1.21-1.06-1.94s.4-1.39.91-1.91c.17-.18.62-.51.81-.63.06-.04.34-.2.49-.28.09-.05.19-.1.28-.15.03-.01.32-.15.21-.1s.18-.08.21-.09c.1-.04.19-.08.29-.12.19-.07.38-.15.57-.21.06-.02.37-.12.08-.03.09-.03.18-.06.27-.08.18-.06.36-.12.54-.18-.24.08.38-.09.09-.03.36-.08,1.14-.22,1.26-.66s-.7-.37-.9-.33c-.28.06-.57.12-.84.21-.17.05-.34.11-.51.17.22-.08-.06.02-.13.04-.41.13-.82.27-1.22.42-.82.32-1.61.71-2.35,1.19-1.22.8-2.37,2.04-2.2,3.6.09.88.59,1.73,1.45,2.04.47.17,1.11-.02,1.53-.24.24-.13.71-.52.23-.69h0Z"/>
      <path class="cls-32" d="M628.46,908c-1.02-.45-1.72-1.41-1.87-2.51-.13-.93.2-1.64.91-2.23.34-.28.72-.5,1.13-.71-.09.05.19-.09.22-.11.09-.04.17-.08.26-.12.12-.05.23-.1.35-.15.06-.02.12-.05.17-.07-.11.04-.1.04,0,0,.4-.15.8-.29,1.2-.43.23-.08.46-.16.69-.24.06-.02.36-.18.41-.15,0,0-.63.05-.33.07.5.02,1.11-.15,1.54-.41.35-.21.3-.4-.11-.42-1.11-.05-2.2.49-3.23.84-.85.29-1.69.62-2.5,1.02s-1.65.88-2.27,1.57c-.58.65-.76,1.43-.6,2.28.21,1.08.96,2.05,1.97,2.49.41.18,1-.01,1.39-.15.08-.03.97-.43.66-.57h0Z"/>
    </g>
    <path class="cls-32" d="M652.74,888c.26-.14.17-.09-.04.02-.23.13-.47.25-.7.38-.82.44-1.64.88-2.46,1.31-2.54,1.34-5.09,2.65-7.67,3.91-2.77,1.36-5.57,2.67-8.44,3.82-1.14.46-2.29.89-3.47,1.23-.38.11-.83.23-1.17.29-.19.03-.38.04-.58.07-.18.03-.22.02-.12.03-3.13-.24-7.16-.83-8.51,2.91-.3.84,1.9.58,2.19-.23.91-2.54,4.34-1.13,6.37-1.36,2.21-.24,4.38-1.15,6.41-1.98,5.39-2.18,10.59-4.85,15.72-7.56,1.29-.68,2.58-1.37,3.86-2.07.41-.22.52-.67.16-.97-.41-.33-1.17-.04-1.55.17h0Z"/>
    <path d="M684.14,574.2c1.41,1.67,1.7,4.07.7,6.03-.92,1.8-3.94,2.76-2.45,5.17.58.94,1.62,1.57.88,2.75-.68,1.08-2.02,1.63-2.76,2.69-1.68,2.38.09,4.59.47,7.03.08.55.14,1.26-.2,1.74s-.9.71-1.22,1.2c-.23.36-.54,1.01-.45,1.45l-.02.18c.95.04,1.23-.12.82-.46.07-.48,0-.63.3-1.09.63-1.01,1.63-1.65,1.99-2.85.34-1.13-.07-2.15-.62-3.14-.41-.75-1.18-1.67-.85-2.58.3-.84,1.37-1.44,1.97-2.05s1.17-1.35,1.27-2.24c.14-1.31-.86-2.09-1.07-3.27-.19-1.1.93-1.93,1.52-2.72.76-1.01,1.14-2.03.95-3.3-.14-.93-.43-1.76-.39-2.71.04-.82.21-1.62.48-2.39.57-1.62,1.45-3.12,2.37-4.57.99-1.57-1.69-2.13-2.45-.94-1.68,2.68-3.51,5.64-3.33,8.93.08,1.43.86,2.76-.08,4.05-.7.97-1.63,1.76-1.94,2.96-.37,1.39.52,2.23.9,3.48.34,1.14-.61,1.7-1.36,2.38s-1.55,1.48-1.79,2.54c-.29,1.29.38,2.38.99,3.46.87,1.52.59,2.15-.52,3.43-.85.98-1.77,2.37-1.11,3.7.48.96,1.6,1.44,2.64,1.32.55-.07,1.08-.28,1.49-.66.6-.56.53-1.14.8-1.83s.94-1,1.34-1.62c.29-.45.47-.97.54-1.5.2-1.5-.43-2.85-.88-4.23-.58-1.78-.37-2.75,1.06-3.93,1.07-.88,2.25-1.94,2.39-3.42.06-.66-.16-1.27-.5-1.82-.25-.4-1.11-1.06-1.09-1.56s1.3-1.24,1.65-1.63c.42-.47.78-1.02,1.06-1.58,1.23-2.47.95-5.61-.84-7.72-.9-1.06-3.64.14-2.64,1.31h0Z"/>
    <path d="M676.25,572.39c1.42,1.68,1.7,4.1.71,6.08-.89,1.77-3.92,2.76-2.47,5.12.63,1.02,1.7,1.68.79,2.94-.76,1.05-2.03,1.61-2.76,2.72-1.62,2.46.42,4.69.61,7.19.04.55,0,1.12-.35,1.55-.34.4-.81.64-1.11,1.09-.15.22-.69,1.33-.49,1.6l.98-.27-.16-.19c-.08-.26-.06-.51.06-.76.08-.2.2-.38.34-.54.68-.93,1.62-1.64,1.92-2.81.27-1.08-.13-2.02-.65-2.96-.47-.86-1.29-1.86-.75-2.87.43-.79,1.37-1.32,1.98-1.95s1.14-1.43,1.16-2.35c.03-1.25-1.16-2.16-1.12-3.36.03-1.02,1.17-1.86,1.72-2.64.78-1.1.95-2.13.7-3.46-.33-1.74-.37-3.2.24-4.9s1.54-3.16,2.46-4.64c.39-.63-.35-1.13-.88-1.21-.74-.11-1.5.26-1.89.89-1.67,2.66-3.43,5.65-3.15,8.91.14,1.55.8,2.69-.28,4.04-.69.87-1.56,1.69-1.8,2.82-.29,1.35.57,2.14.93,3.33s-.75,1.89-1.55,2.63c-.75.69-1.5,1.51-1.64,2.57-.18,1.31.62,2.36,1.2,3.45.25.47.52.99.45,1.55-.1.74-.79,1.28-1.24,1.81-.8.93-1.61,2.26-1,3.49.48.96,1.6,1.4,2.63,1.27.61-.08,1.19-.33,1.62-.77.63-.65.38-1.44.82-2.11.28-.44.88-.72,1.19-1.19.36-.54.56-1.17.59-1.82.07-1.38-.49-2.59-.91-3.87-.27-.82-.56-1.76-.22-2.6.24-.59.79-.99,1.27-1.38,1.06-.87,2.25-1.92,2.4-3.38.06-.65-.15-1.25-.49-1.79s-1.32-1.24-.99-1.93c.22-.46,1.17-.92,1.53-1.32.42-.46.78-1.01,1.06-1.57,1.23-2.46.96-5.56-.83-7.68-.85-1-3.6.16-2.65,1.27h0Z"/>
    <path d="M668.62,569.99c1.51,1.78,1.74,4.39.77,6.48-.51,1.09-1.26,1.59-2.11,2.38-.9.82-.93,1.64-.23,2.6.81,1.13,1.52,1.94.57,3.28-.73,1.04-1.97,1.59-2.7,2.63-1.65,2.33.6,4.74.66,7.17.02.7-.12,1.33-.59,1.85-.36.4-.86.6-1.11,1.1-.12.24-.13.45-.18.7l-.05.37c-.3.77.19.79,1.48.07-.05-.07-.39-.21-.49-.32-.34-.39-.31-.88-.16-1.34.38-1.16,1.58-1.83,2.1-2.91s.06-2.19-.52-3.2c-.5-.87-1.16-1.84-.82-2.88.31-.96,1.29-1.56,1.99-2.22.59-.56,1.15-1.21,1.23-2.04.11-1.26-1.03-2.12-1.1-3.34s1.07-2.12,1.73-3c.88-1.17.91-2.13.61-3.54-.74-3.54,1.03-6.61,2.86-9.51.29-.47-1.04-.34-1.17-.32-.55.09-1.37.3-1.69.81-1.66,2.64-3.48,5.67-3.06,8.93.09.73.4,1.45.4,2.19s-.37,1.37-.82,1.95c-.62.8-1.47,1.54-1.69,2.57-.29,1.35.82,2.18,1.02,3.41.22,1.31-.95,2.07-1.8,2.84-.68.62-1.37,1.34-1.48,2.29-.14,1.22.7,2.18,1.22,3.21.79,1.55.24,2.48-.81,3.69-.72.84-1.72,2.11-.94,3.22.59.84,1.7.84,2.61.64.55-.12,1.17-.33,1.6-.71.6-.52.42-1.03.67-1.7s.94-.96,1.35-1.54c.29-.41.43-.85.49-1.35.19-1.55-.57-2.9-.98-4.34-.46-1.62-.21-2.87,1.1-3.98.98-.84,2.27-1.71,2.43-3.12s-1.86-2.35-1.57-3.66c.15-.68,1.08-1.08,1.54-1.53.42-.41.79-.9,1.07-1.41,1.33-2.36,1.05-5.36-.69-7.41-.48-.56-3.2.44-2.73,1h0Z"/>
    <path d="M687.35,575.77c-3.52,3.76-10.9,6.24-15.75,8.04-4.96,1.84-6.97,1.97-11.93.79-9.67-2.31-18.87-7.03-25.73-14.41-7.07-7.61-10.96-17.62-11.11-28.16-.1-7.37,3.32-13.5,5.73-20.17.36-.66,2.73-4.57,3.08-5.23,9.44-9.28,9.97-12.15,23.52-10.87,8.35.7,16.4-2.3,27.38,5.89,2.37,1.77,4.38,5.59,7.3,8.23,4.41,3.97,8.76,9.92,9.69,14.89,1.36,7.27-.93,15.96-3.05,24.19-1.6,6.24-4.66,12.03-9.06,16.73-.03.03-.06.06-.08.09Z"/>
    <path class="cls-30" d="M616.64,558.52c.67-4.33,3.35-10.77,4.94-12.65.47-1.96,1.03-4.23,1.71-6.97.2-.79.41-1.55.63-2.3.15-.37.26-.76.34-1.15,4.04-13.15,10.33-18.91,10.33-18.91,8.01-7.28,19.28-9.75,29.6-6.5,12.22,3.57,21.28,14.01,25.02,23.06,1.86,4.48,2,9.5.39,14.08-1.37,3.92-6.16,7.36-8.42,11.41,4.35.96,9.46,3.65,5.76,11.11-5.11,10.29-13.48,9.03-16.48,5.72-4.04,4.23-5.16,7.09-6.24,10.02-1.13,3.04-1.89,9.15-1.66,10.62l7.02,5.35c-13.31,12.38-43.11,21.61-46.6-3.93l5.24-5.13,1.21-6.18c-.28-.1.28.09-3.85-2.58-12.18-8.85-9.72-19.97-8.93-25.07Z"/>
    <path class="cls-32" d="M628.71,588.31l.68-2.29s13.63,5.37,24.7.68c0,0-8.16,5.03-15.5,4.11-7.34-.92-9.89-2.51-9.89-2.51Z"/>
    <path class="cls-6" d="M694.61,603.74s-11.36-7.85-16.98-9.61c-7.98-2.51-14.41-5.45-14.41-5.45,0,0-8.22,17-23.32,16.47-18.84-.66-11.69-12.79-11.69-12.79,0,0-16,5.7-23.09,11.74-5.84,4.98-12.59,19.21-3.45,31.63,9.14,12.42,76.85,12.7,76.85,12.7,0,0,8.8-17.33,11.22-26.78s4.88-17.9,4.88-17.9Z"/>
    <path class="cls-6" d="M623.54,640.29s-12.35,4.65-31.7-2.49c0,0,.47-18.68,9.27-28.36,8.8-9.69,16.1-6.52,16.1-6.52,0,0,11.86,1.83,6.33,37.38Z"/>
    <path class="cls-16" d="M597.55,671.55s.02,0,.03.01c-.04-1.06-.04-2.2.12-3.53.22-6.34,2.66-20.59,2.94-27.1,2.64-8.76,5.87-28.09,12.28-41.95.13-.06.27-.13.36-.18,1.08-.53,5.31-2.78,8.41-3.87-1.5,2.71-5.59,9.93-4.5,18.37.56,4.35-.96,5.68,3.66,7.9,5.61,2.7,21.32,3.24,27.13,1.47,2.56-.78,4.9-1.94,6.64-3.75,2.02-2.11,3.12-4.77,4.02-7.36,1.29-3.71,2.66-7.33,4.67-10.81,1.84-3.18,4.04-6.18,6.34-9.12,3.31.96,8.16,2.78,11.63,4.05-5.74,1.59-7.04,5.97-8.85,10.57-2.39,6.07-6.09,16.8-4.24,24.19,1,4,1.03,6.69,3.2,10.2,1.66,2.68.85,1.97,3.41,3.8,3.72,2.66,7.1,4.26,11.62,4.81,2.13.26,1.81-.22,2.57,1.8.4,1.07.46,2.43.63,3.55.99,6.57,1.26,13.26,1.81,19.88h0c.77,5.08,6.25-4.22,7.55,4.64l1.42,22.45c4.74,33.73,5.49,96.31,7.11,108.3-7.57,4.48-11.34-1.37-21.4,5.49-8.87,6.05-14.2,2.99-21.66,0-7.46-2.99-13.68-1.99-23.32,1-9.64,2.99-15.4-2.51-21-2.76-5.6-.25-5.82,1.56-17.5.82-9.93-.63-13.23-2.62-13.23-4.38-4.44-23.14-4.77-25.78-4.11-38.23,1.75-33.08,9.65-64.74,12.25-100.26Z"/>
    <path d="M676.86,562.23c.04-.06.56-2.7-.67.36-.61,1.53,3.03-2.94,4.69-3.59.76-.3,1.64-.61,2.49-.69.85-.08,1.78-.19,2.64-.04,1.24.09,3.58,2.65,4.61,3.31.17.14-2.02,1.47-1.86,1.61,6.06-7.96,9.94-14.86,6.77-27.94-.92-3.77-5.01-8.89-6.24-10.51-7.5-9.74-16.13-12.97-27.3-15.37-12.94-2.78-25.13-1.18-32.13,9.7-1.69,2.62-.86,2.3-1.58,5.29,0,0-.46-5.13,6.76-6.6,7.22-1.47,8.39-1.14,16.89,1.71,9.86,3.27,13.37,2.68,19.98,9.02,6.03,5.81,6.52,9.28,6.52,9.28-.13,1.84.46,3.64.65,5.47.19,1.8-.11,3.54-.58,5.27-.97,3.55-.1,2.45-1.6,5.84-.93,2.1-2.92,6.15-1.2,8.28.77.95-.03-.39,1.15-.4Z"/>
    <path class="cls-30" d="M680.31,557.83c-.64.04-4.45-3.63-5.16-3.14-4.68-19.09-28.79-36.05-47.18-27.02,1.35-2.31,3.05-6.96,3.71-7.7,8.44-9.36,20.02-10.49,31.71-8.11,11.69,2.39,24.72,10.16,28.23,23.88,3.4,13.3,1.42,23.9-11.3,22.09Z"/>
    <g>
      <path d="M673.91,539.34l.34-.37c.27,1.17.98,2.23,1.95,2.92.58.41,1.34.9,1.19,1.59-.04.2-.17.38-.21.58-.29,1.29,2.29,1.21,2.76,2.44.39,1.04-1.05,2.09-.73,3.15.28.95,1.74,1.13,2.02,2.08.35,1.18-1.43,2.34-.85,3.42.41.78,1.72.71,2.1,1.51.18.38.08.82.02,1.25-2.22.08-4.48.31-6.81.36.11-.47.29-.94.52-1.35.2-.37.42-.77.32-1.18-.22-.9-1.61-.82-2.19-1.54-1.02-1.26,1.38-3.07.73-4.56-.39-.89-1.72-1.16-1.92-2.12-.25-1.25,1.72-2.45.97-3.48-.23-.32-.63-.44-.94-.68-.61-.48-.73-1.38-.5-2.11.23-.74.74-1.34,1.24-1.93Z"/>
      <path d="M674.03,539.34l.34-.37-.24.04c.26.98.74,1.87,1.5,2.56.35.32.79.55,1.13.88.16.15.39.38.47.6.18.51-.19.75-.2,1.21,0,1.1,1.91,1.25,2.51,1.89,1.27,1.37-1.56,2.92.11,4.3.66.55,1.67.88,1.46,1.95-.16.8-.9,1.4-.97,2.22-.05.56.31.93.78,1.18.38.2.86.3,1.18.6.28.26.53.86.32,1.23s-.57.27-.93.29c-1.31.07-2.62.17-3.93.24-.36.02-1.58.28-1.68-.17s.61-1.23.72-1.64c.5-1.85-2.68-1.29-2.37-3.18.21-1.25,1.68-2.56.77-3.83-.55-.77-1.86-1.06-1.73-2.2.1-.89.93-1.47,1.1-2.32.18-.92-.65-1.03-1.17-1.55-1.24-1.22-.01-2.91.83-3.91.06-.07-.18-.05-.23,0-.71.83-1.52,1.81-1.34,2.99.07.43.26.82.59,1.1.38.32.96.44,1.08,1,.19.87-.83,1.66-1.06,2.45-.26.87.28,1.37.93,1.86.91.69,1.25,1.39.81,2.5-.29.73-.91,1.52-.86,2.34s.76,1.09,1.41,1.36,1.21.62.99,1.45c-.18.66-.61,1.25-.79,1.92-.01.04.05.04.07.04,2.27-.06,4.54-.27,6.81-.36.04,0,.16-.02.17-.08.21-1.29-.22-1.62-1.29-2.14-1.49-.72-.74-1.71-.2-2.81.4-.82.32-1.49-.42-2.06-.43-.33-1.03-.57-1.29-1.08-.28-.56.01-1.14.26-1.65.38-.79.75-1.57-.02-2.25-.6-.52-1.51-.58-2.08-1.13s.02-.95-.03-1.58c-.03-.36-.29-.63-.54-.87-.51-.47-1.1-.77-1.55-1.31-.52-.62-.86-1.33-1.06-2.1-.02-.08-.21,0-.24.04l-.34.37c-.06.07.18.05.23,0Z"/>
    </g>
    <g>
      <path d="M678.18,533.48c-.78.41-1.23,1.35-1.07,2.22.16.86.92,1.58,1.79,1.69-.68.91-.43,2.38.52,3.01.41.27.92.41,1.21.81.7.97-.55,2.51.16,3.47.27.36.75.52,1.02.89.54.76-.16,1.84.14,2.72.37,1.07,2,1.31,2.31,2.4.21.77-.32,1.74.23,2.31.29.3.8.36,1.01.72.26.43-.08.96-.22,1.44-.36,1.2.78,2.58,2.02,2.45-.22.81-.08,1.71.38,2.42.74-.63,1.49-1.28,1.92-2.15.42-.87.43-2.02-.25-2.71-.26-.27-.62-.45-.81-.78-.48-.82.32-1.99-.22-2.77-.36-.52-1.22-.64-1.4-1.25-.09-.29.02-.61.06-.91.15-1.08-.68-2.2-1.75-2.38-.3-.05-.64-.05-.88-.25-.68-.57.38-1.63.24-2.51-.14-.86-1.4-1.24-1.45-2.12-.02-.29.11-.57.13-.86.02-.46-.25-.88-.51-1.26-1.35-1.95-2.76-3.86-4.24-5.71"/>
      <path d="M678.09,533.42c-.98.63-1.49,1.86-.88,2.94.11.2.26.38.42.53.13.12.79.38.87.51.18.3-.15,1.04-.11,1.45.05.53.28,1.04.66,1.41.27.26.6.36.91.57.71.48.8,1.03.67,1.81-.1.58-.36,1.23-.12,1.82.38.92,1.33.82,1.36,2.08.01.72-.32,1.36.06,2.04.24.44.69.7,1.09.98.45.31.93.61,1.1,1.17.16.51-.05,1.04-.02,1.55.04.73.39.69.82,1.15.85.9-.02,1.76.21,2.69.12.51.47.98.9,1.27.41.27.84.18,1.06.6.1.19-.02.83.04,1.1.08.37.23.69.42,1.02.03.06.15.04.19,0,.9-.77,1.9-1.62,2.18-2.83.12-.52.11-1.11-.11-1.6-.28-.61-1.07-.95-1.28-1.58-.36-1.11.59-2.05-.53-2.9-.26-.2-.68-.34-.86-.63-.29-.47,0-.94-.03-1.42-.03-.51-.22-.98-.55-1.37-.3-.35-.67-.59-1.11-.72s-.47-.06-.84-.51c-.52-.62-.17-.76,0-1.43.25-1.05-.19-1.35-.86-2.09s-.18-1.38-.45-2.2c-.21-.64-.73-1.22-1.11-1.75-1.14-1.61-2.33-3.19-3.56-4.74-.07-.09-.31,0-.22.11,1.08,1.36,2.13,2.75,3.15,4.16.5.7,1.39,1.58,1.56,2.45.12.59-.24,1.11.06,1.67.22.41.66.64.94.99.6.77.19,1.34-.01,2.12-.18.69-.05,1.05.63,1.27.99.32,1.86.56,2.11,1.75.12.56-.22,1.17.03,1.7.19.4.62.53.95.78.84.64.41,1.48.44,2.33.04,1.35,1.57,1.68,1.49,3.14-.04.89-.72,2.19-1.53,2.63-.17.33-.34.37-.52.1-.21-.11-.31-.28-.31-.52-.14-.43-.05-.97.03-1.4.01-.06-.07-.08-.11-.08-1.01,0-1.87-.79-1.94-1.77-.04-.59.41-1.12.36-1.69-.03-.29-.12-.42-.31-.61-.11-.12-.32-.14-.43-.25-.3-.31-.57-.84-.6-1.29-.06-.81.19-1.32-.45-1.97-.86-.87-1.99-1.02-1.9-2.53.05-.84.31-1.47-.33-2.14-.53-.55-.97-.69-.99-1.56,0-.47.2-.93.25-1.39.07-.66-.07-1.14-.63-1.54-.6-.42-1.22-.61-1.52-1.37-.27-.69-.16-1.39.22-2.01.03-.06-.03-.1-.08-.11-1.92-.41-2.32-2.7-.68-3.75.14-.09-.06-.18-.16-.12h0Z"/>
    </g>
    <g>
      <path d="M680.46,531.63c-.67,1.2-.11,2.91,1.13,3.48.24.11.52.19.7.39.38.41.17,1.07.19,1.63.05,1.27,1.35,2.11,2.56,2.49.78.24,1.76.59,1.79,1.4.01.32-.14.64-.08.95.18.83,1.69.92,1.69,1.77,0,.39-.36.71-.38,1.09-.04.83,1.25.98,1.68,1.68.2.33.19.74.17,1.12-.06,1.17-.11,2.34-.17,3.51-.01.29,0,.62.22.8.39.29.9-.16,1.15-.57,1.42-2.33,2.23-5.03,2.33-7.76.02-.68-.13-1.55-.79-1.71-.22-.05-.48-.02-.65-.16-.28-.24-.08-.69.06-1.03.59-1.41-.51-3.23-2.03-3.38-.41-.04-.91-.02-1.13-.36-.15-.23-.09-.53-.14-.8-.11-.69-.81-1.13-1.48-1.33s-1.41-.3-1.96-.74c-.69-.55-.97-1.55-1.76-1.94-.96-.47-2.35.14-3.04-.68"/>
      <path d="M680.34,531.61c-.35.73-.38,1.52-.06,2.26.34.8.87.97,1.49,1.43.98.72.33,2.05.98,2.97.53.74,1.38,1.14,2.21,1.43.45.16.99.28,1.34.61.65.61.16,1.03.32,1.69.18.75,1.13.81,1.51,1.39.42.65-.55,1.34,0,2.02.22.27.58.42.86.6.79.52.8,1.15.76,2.01-.03.65-.06,1.3-.09,1.95-.02.51-.17,1.14-.02,1.63s.55.62,1,.38c.64-.33.97-1.26,1.27-1.86.55-1.13.97-2.32,1.25-3.54.25-1.1.52-2.39.38-3.53-.09-.71-.35-.89-.86-1.26l-.23-.03c-.41-.34-.51-.68-.28-1.05,0-.06.07-.18.09-.26.11-.42.1-.84-.01-1.26-.2-.74-.72-1.41-1.41-1.75-.35-.17-.65-.16-1.02-.24-.72-.17-.79-.43-.93-1.06-.02-.1-.04-.2-.08-.3-.4-.93-1.48-1.1-2.34-1.36-.77-.23-1.27-.64-1.72-1.28-.26-.36-.49-.76-.86-1.01-.98-.68-2.37.03-3.26-.81-.08-.08-.29.05-.19.15.44.42.91.46,1.5.49.74.03,1.33-.04,1.94.49.4.35.62.84.97,1.24.48.57,1.08.79,1.78.99.44.13.91.22,1.3.48.71.46.54.99.81,1.64.19.45.56.46,1,.53,1.18.19,2.12.86,2.32,2.11.1.61-.14,1.01-.27,1.59-.04.16-.1.31-.03.48.11.3.16.18.37.34.23.17.32.1.65.36.49.39.52.56.54,1.21.05,2.25-.65,4.62-1.64,6.62-.13.27-.27.53-.42.79-.34.6-.21.72-.9.45s-.49-.33-.46-.98c.01-.26.02-.52.04-.78.04-.88.39-2.28-.08-3.09-.28-.48-.83-.62-1.23-.95-.96-.8.26-1.33-.17-2.17-.23-.44-.8-.57-1.16-.86-.75-.63-.05-1.48-.64-2.17-.51-.59-1.4-.7-2.08-.99-.6-.26-1.22-.63-1.6-1.18-.46-.66-.3-1.18-.34-1.91s-.37-.9-.98-1.23c-1.22-.66-1.68-2.14-1.08-3.38.06-.13-.19-.14-.24-.03h0Z"/>
    </g>
    <g>
      <path d="M682.9,530.76c1.36,1.23,3.92-.56,5.25.71.64.61.82,1.82,1.7,1.94.4.06.83-.17,1.21,0,.78.34.22,1.56.55,2.34.41.97,2.03.9,2.46,1.86.12.27.12.58.22.86.19.52.69.86,1.1,1.23s.78.94.57,1.46c1.7-1.48,2.09-4.26.86-6.15-.13-.2-.28-.41-.33-.64-.05-.23,0-.47.04-.71.16-1.18-.37-2.44-1.32-3.15-.33-.25-.73-.46-.91-.83-.25-.53.03-1.15,0-1.74-.08-1.37-1.75-2.01-2.48-3.17-.3-.48-.44-1.05-.71-1.55-.29-.54-.73-.99-1.26-1.29-.42-.24-.99-.37-1.37-.06-.26.21-.34.57-.54.83-.51.67-1.54.55-2.35.32s-1.76-.49-2.42.03c-.93.75-.39,2.29-.9,3.37-.22.47-.65.84-.83,1.33-.17.45-.11.95-.05,1.42.11.84.22,1.68.32,2.52"/>
      <path d="M682.8,530.83c1.16.92,2.64.2,3.95.24,1.15.04,1.5.73,2.04,1.6.38.61.66.72,1.33.82.88.12,1.22.15,1.24,1.04,0,.31-.04.63.03.93.13.64.57.92,1.13,1.19.36.17.73.3,1.04.55.47.39.41.91.65,1.42.44.94,1.89,1.3,1.61,2.55-.03.12.2.05.24.02.91-.85,1.47-1.98,1.58-3.22.05-.52.01-1.06-.1-1.57-.17-.74-.65-1.32-.84-2.02s.05-1.4-.15-2.11c-.18-.62-.53-1.2-1.02-1.63-.2-.18-.44-.31-.65-.48-.51-.41-.59-.85-.53-1.48s.1-1.1-.24-1.65c-.3-.48-.76-.84-1.18-1.22-.66-.59-1.08-1.14-1.42-1.97-.4-.98-1.16-2.13-2.34-2.23-.29-.02-.58.04-.81.22-.19.15-.23.35-.38.54s-1.07.71-1.34.75c-.31.04-.7-.1-1-.18-.87-.22-1.95-.56-2.69.16-.97.94-.37,2.64-1.11,3.76-.41.61-.69,1.01-.66,1.77.04,1.03.25,2.08.38,3.1.01.11.28.04.27-.07-.19-1.46-.79-3.27.11-4.57.66-.95.6-1.74.77-2.85.04-.26.09-.63.27-.84.25-.29,1.33-.54,1.69-.5.19.02.37.08.55.12.53.13,1.04.3,1.59.26.28-.02.56-.07.8-.2.38-.21.4-.54.68-.81.94-.87,1.94-.12,2.51.73.35.52.48,1.15.8,1.69.55.95,1.59,1.44,2.19,2.33.66.98-.21,2.25.67,3.09.45.43.99.69,1.36,1.24.44.65.62,1.4.57,2.18-.04.71-.06.93.29,1.53s.59,1.22.67,1.91c.18,1.54-.38,3.09-1.52,4.15l.24.02c.22-.98-.62-1.44-1.22-2.06s-.45-1.55-1.17-2.08c-.67-.49-1.79-.57-2.03-1.5-.15-.6.21-1.58-.33-2.06-.17-.15-.31-.14-.53-.19-.51-.12-.48.4-1.25-.06-.2-.12-.34-.35-.47-.53-.42-.61-.63-1.3-1.37-1.6-1.52-.62-3.34.73-4.73-.37-.08-.06-.32.05-.21.14h0Z"/>
    </g>
    <g>
      <path d="M678.24,529.18c-.8-.75-.72-2.23.15-2.89.29-.22.69-.44.66-.8-.01-.16-.11-.29-.18-.43-.48-.88-.04-2.13.88-2.52.19-.08.41-.13.57-.27.67-.56-.09-1.99.69-2.39.65-.33,1.32.65,2.05.56.71-.09.97-1.09,1.67-1.26,1.03-.25,2.04,1.51,2.86.84.43-.35.23-1.08-.19-1.44s-.99-.49-1.47-.76c-1.24-.72-1.7-2.26-2.65-3.34-.99-1.12-2.46-1.66-3.87-2.16-.6-.22-1.23-.44-1.87-.39-.99.06-1.89.81-2.14,1.76-.05.19-.09.4-.25.5-.09.06-.21.07-.32.07-.56.03-1.12.06-1.68.09-.21.01-.45.03-.6.18-.34.35.1.92.55,1.12s1.03.39,1.09.87c.12.91-1.63,1-1.75,1.9-.12.94,1.6,1.23,1.59,2.18,0,.56-.65.92-.77,1.47-.13.56.33,1.09.8,1.41s1.04.6,1.3,1.11c.2.39.19.85.27,1.28.24,1.31,1.28,2.31,2.26,3.22"/>
      <path d="M678.36,529.13c-.42-.45-.62-1.04-.52-1.66.06-.37.22-.74.49-1.01.2-.21.51-.33.69-.57s.17-.39.09-.67c-.21-.69-.46-1.18-.07-1.89.47-.86,1.58-.71,1.7-1.76.04-.33-.13-.9.04-1.2.14-.25.63-.42.86-.37.16.04.3.16.45.23.16.08.32.18.5.23.66.18,1.05-.22,1.47-.68,1.14-1.26,1.78.23,2.87.44.41.08.84-.12.98-.53.31-.97-.87-1.45-1.52-1.76-1.12-.52-1.67-1.53-2.3-2.53s-1.37-1.7-2.38-2.24c-1.57-.83-4.01-2.04-5.61-.73-.35.29-.54.62-.75,1.01-.18.35-.31.63-.69.75s-.95.05-1.34.07c-.49.03-1.21.16-.97.83.29.82,2.69,1.13,1.25,2.17-.44.31-1.14.51-1.28,1.1-.18.79.84,1.16,1.27,1.62.9.99-.89,1.71-.34,2.82.26.52.79.77,1.24,1.09.79.55.85,1.14,1.02,2.02.27,1.35,1.3,2.34,2.27,3.24.07.06.3-.03.23-.1-.86-.8-1.79-1.66-2.15-2.82-.3-.97-.17-1.74-1.07-2.39-.5-.36-1.21-.67-1.39-1.33-.19-.69.47-1.04.68-1.6s-.16-.96-.59-1.3c-.3-.24-.68-.44-.85-.8-.27-.58.25-.93.69-1.2.38-.24.98-.48.98-1.02,0-.26-.14-.44-.33-.6-.28-.23-1.21-.41-1.28-.79-.04-.25.44-.71.6-.77.13-.05.37-.02.5-.03.33-.02.68,0,1.01-.05.2-.03.35-.04.5-.19.25-.25.27-.72.44-1.02.63-1.07,1.85-1.27,2.97-.95s2.35.79,3.36,1.44c1.82,1.18,2.24,3.58,4.25,4.5.42.19,1.47.6,1.36,1.21-.03.14-.88.62-.96.6s-.17-.1-.24-.14c-.19-.12-.37-.26-.57-.38-.44-.26-.93-.47-1.43-.24-.26.12-.45.34-.63.55-.27.3-.69.62-1.12.59-.27-.02-.58-.3-.82-.42-.38-.17-.8-.27-1.14.04-.83.76.28,1.78-.97,2.49-.68.39-1.19.86-1.24,1.71-.01.18,0,.37.04.55.12.5.19.28.03.92-.15.58-.18.48-.5.8-.13.13-.24.29-.33.46-.41.78-.27,1.73.33,2.37.06.07.3-.02.23-.1h0Z"/>
    </g>
    <g>
      <path d="M676.62,531.36c.3-1.33-1.61-1.95-2.42-3.05-.62-.84-.6-2.07-1.38-2.77-.56-.5-1.47-.68-1.7-1.4-.13-.42.04-.86.01-1.3-.1-1.66-2.77-2.27-2.81-3.94-.04-1.5,2.18-2.58,1.68-4-.15-.44-.56-.78-.65-1.23-.18-.92.91-1.53,1.8-1.83,1.24-.41,2.49-.83,3.73-1.24-1.88-1.9-4.32-3.25-6.94-3.82-.96-.21-2-.31-2.9.07-.91.38-1.61,1.38-1.37,2.33.07.28.22.54.24.83.11,1.26-2.01,2.18-1.43,3.3.14.26.4.44.53.7.37.77-.6,1.66-.35,2.48.22.71,1.18.88,1.62,1.48.26.37.3.84.44,1.27.2.59.62,1.09,1.02,1.56,1.15,1.36,2.3,2.71,3.45,4.07.81.96,1.71,1.97,2.93,2.28.08,2.38,2.32,4.47,4.7,4.39"/>
      <path d="M676.74,531.35c.1-.79-.35-1.28-.93-1.76-.47-.4-1.02-.74-1.41-1.22-.48-.6-.59-1.33-.89-2.02-.17-.38-.38-.7-.7-.96-.51-.42-1.31-.58-1.56-1.28-.22-.59.13-1.26-.14-1.88-.15-.35-.41-.63-.68-.89-.68-.65-1.77-1.22-1.95-2.23-.22-1.22,1.02-2.03,1.51-3.01s-.06-1.3-.35-2.16c-.68-2.01,3.92-2.81,5.28-3.26.03-.01.15-.07.09-.13-2.18-2.14-5.53-4.18-8.7-4.03-1.02.05-2.07.47-2.56,1.42-.26.51-.23.95-.11,1.49.26,1.18-.19,1.57-.87,2.47-.22.29-.48.61-.49.99-.01.68.73,1.02.7,1.74-.03.61-.54,1.11-.44,1.75.1.6.57.8,1.02,1.12.81.59.81,1.3,1.21,2.13s1.09,1.48,1.67,2.15c1.27,1.5,2.48,3.25,3.98,4.53.57.49,1.39.65,1.66,1.38s.4,1.37.88,2c.92,1.22,2.33,1.92,3.84,1.93.11,0,.26-.16.09-.16-2.43-.02-4.43-1.93-4.62-4.34,0-.02-.03-.04-.05-.04-1.4-.44-2.29-1.54-3.2-2.62s-1.89-2.22-2.83-3.33c-.43-.51-.87-.99-1.17-1.59-.2-.42-.25-.9-.45-1.32-.46-.93-1.97-1.13-1.76-2.36.15-.91.64-1.27.18-2.14-.3-.55-.6-.81-.22-1.48.22-.39.58-.7.84-1.06.58-.81.37-1.13.21-2.04-.47-2.74,3.16-2.57,4.86-2.1,1.28.36,2.51.91,3.63,1.61.45.28.89.59,1.31.93-.3-.24.9.7.89.78-.05.49-.63.49-1.02.62-1.08.36-4.1.82-4.25,2.4-.1,1.03,1.06,1.57.53,2.69-.36.75-1.06,1.29-1.38,2.06-.56,1.34.52,2.19,1.44,2.98.42.36.9.76,1.09,1.29.21.58-.1,1.2.09,1.77.29.86,1.41,1,1.94,1.67.75.95.71,2.17,1.63,3.03.76.71,2.07,1.26,1.92,2.5-.01.12.24.08.25-.02h0Z"/>
    </g>
    <g>
      <path d="M673.61,532.87c-1.78.53-3.88-.4-4.68-2.07-.27-.56-.4-1.18-.73-1.71-.95-1.53-3.22-1.86-4.09-3.44-.47-.86-.42-1.93-.87-2.81-.88-1.75-3.39-2.24-4.15-4.05-.19-.46-.25-.98-.54-1.4-.45-.66-1.35-.87-1.86-1.49-.68-.81-.52-2.11-1.24-2.88-.43-.46-1.12-.66-1.42-1.22-.51-.97.55-2.27-.02-3.2-.23-.36-.65-.56-.88-.92-.56-.87.35-1.98,1.3-2.37,1.21-.5,2.56-.52,3.87-.52.31,0,.61,0,.92,0,1.56,0,3.4.13,4.22,1.47.16.26.26.63.05.86-.11.12-.27.16-.42.21-1.13.31-2.26.62-3.38.92.8.51.58,1.73.17,2.59s-.88,1.91-.33,2.68c.28.39.79.65.87,1.12.06.37-.17.71-.22,1.08-.12,1.1,1.29,1.61,2.07,2.39.55.55.8,1.31,1.15,2,.4.8.95,1.52,1.49,2.23.49.64.98,1.29,1.47,1.93,1.37,1.8,2.74,3.6,4.22,5.31,1.04,1.2,2.14,2.36,3.28,3.46"/>
      <path d="M673.59,532.8c-2.2.55-4.04-.73-4.82-2.73-.51-1.29-1.23-1.96-2.41-2.67-.62-.38-1.3-.74-1.78-1.3-.65-.76-.69-1.69-.96-2.61-.36-1.23-1.26-1.93-2.27-2.63-.58-.4-1.22-.8-1.67-1.35-.53-.65-.55-1.49-1.01-2.16-.35-.5-.9-.71-1.37-1.06-.91-.67-.92-1.6-1.3-2.55-.21-.52-.52-.84-.95-1.17-.95-.73-1.1-1.24-.88-2.39.11-.54.25-1.09-.04-1.6-.49-.87-1.44-1.05-.75-2.23.92-1.56,3.28-1.47,4.87-1.48.97,0,1.99-.06,2.95.15.72.15,3.19,1.25,1.84,2.23-.37.27-1.24.34-1.69.46-.56.15-1.13.31-1.69.46-.03,0-.15.07-.1.12,1.11.94.18,2.34-.2,3.4s-.16,1.48.44,2.3c.28.37.42.73.38,1.2-.02.28-.18.53-.14.83s.19.53.38.76c.75.88,1.76,1.25,2.34,2.33,1.34,2.51,3.06,4.7,4.8,6.95,1.91,2.48,3.93,4.85,6.17,7.03.07.06.3-.03.23-.1-2.89-2.81-5.36-5.95-7.79-9.15-1.19-1.57-2.23-3.08-3.16-4.81-.3-.56-.64-.98-1.14-1.37-.66-.52-1.62-.97-1.59-1.95.02-.51.35-.87.11-1.38-.4-.84-1.13-.98-.96-2.13.1-.71.56-1.31.76-1.99.17-.62.09-.99-.02-1.58-.1-.52-.26-.27.36-.55.38-.17.87-.24,1.27-.35.45-.12,1.14-.17,1.53-.43.77-.52.14-1.36-.44-1.8-.83-.62-1.95-.74-2.95-.78-1.53-.06-3.22-.12-4.71.26-.87.22-1.82.64-2.23,1.51-.2.43-.24.83,0,1.25.17.29.48.43.68.67.44.53.38,1.02.26,1.64-.21,1.12-.31,1.72.63,2.46.83.66,1.13,1.15,1.42,2.14.17.59.34,1.11.81,1.54.61.57,1.38.75,1.79,1.56.26.53.32,1.12.66,1.62.78,1.13,2.15,1.63,3.12,2.56,1.25,1.2.88,3.03,1.97,4.28.98,1.14,2.62,1.47,3.55,2.67.52.68.63,1.54,1.07,2.26.34.57.83,1.03,1.4,1.37,1,.59,2.14.71,3.26.44.15-.04.11-.17-.04-.14h0Z"/>
    </g>
    <g>
      <path d="M656.95,520.16c.65-.31.48-1.33-.03-1.83s-1.24-.75-1.7-1.3c-.6-.72-.6-1.76-1.06-2.57-.48-.86-1.4-1.37-2.13-2.03-.73-.66-1.31-1.75-.83-2.61.26-.47.8-.9.61-1.4-.19-.5-1.01-.54-1.17-1.05-.18-.58.64-1.01.71-1.61.04-.4-.27-.76-.62-.96-1.22-.68-2.73-.03-3.96.62-1.44.76-2.88,1.51-4.32,2.27-.1.05-.2.11-.28.18-.37.36-.09,1.03.37,1.26s1,.16,1.51.16,1.09.09,1.39.51c.3.42.19,1,.37,1.49.44,1.18,2.18,1.14,3.09,2.02.56.54.74,1.39,1.31,1.93.58.55,1.44.66,2.12,1.07.95.58,1.45,1.66,2.06,2.59.61.93,1.58,1.83,2.69,1.66"/>
      <path d="M657.03,520.21c.46-.29.55-.78.39-1.28-.24-.76-.98-1.05-1.58-1.5-.91-.68-.98-1.61-1.36-2.58-.35-.89-1.05-1.43-1.78-2.01-.77-.61-1.75-1.51-1.52-2.62.12-.62,1.14-1.3.67-1.99-.16-.24-.46-.32-.69-.48-.71-.5-.26-.91.07-1.45.29-.47.33-.9-.08-1.32-1.27-1.29-3.46-.14-4.71.52-.99.52-1.98,1.04-2.97,1.56-.47.25-1.47.51-1.6,1.15s.53,1.06,1.07,1.16c.27.05.56.03.83.03,1,0,1.61.24,1.77,1.29.1.63.26,1.09.8,1.45.67.45,1.5.56,2.16,1.03.83.58.97,1.7,1.77,2.31.91.68,2.02.75,2.79,1.69,1.11,1.34,1.83,3.69,3.97,3.51.13-.01.19-.18.03-.17-2.13.18-2.77-2.37-3.93-3.62-.4-.43-.87-.72-1.41-.94-.43-.18-.89-.32-1.26-.6-.41-.31-.63-.76-.88-1.2-.31-.56-.64-.99-1.21-1.29s-1.16-.44-1.7-.75c-.82-.48-.73-1.11-.97-1.91-.14-.49-.48-.77-.97-.89-.82-.2-2.27.3-2.6-.76-.26-.82,2.04-1.66,2.63-1.97,1.5-.79,4.35-2.88,6.01-1.57,1.03.81-.12,1.29-.29,2.07-.11.48.24.71.6.92.51.3.7.6.38,1.24-.15.28-.39.5-.5.8-.2.56-.03,1.16.26,1.66.42.72,1.11,1.17,1.74,1.69.89.74,1.22,1.5,1.55,2.57.23.74.56,1.27,1.2,1.71.59.41,2.42,1.66,1.12,2.47-.14.09.07.16.16.1h0Z"/>
    </g>
    <g>
      <path d="M650.32,517.65c-.39-1.13-2.09-1.03-2.93-1.88-.51-.52-.67-1.39-1.32-1.72-.78-.4-1.93.17-2.52-.48-.39-.44-.26-1.2-.69-1.6-.4-.37-1.03-.23-1.54-.04-1.73.64-3.36,1.56-4.78,2.73-.16.13-.32.27-.39.47-.15.44.32.89.79.91.46.01.88-.26,1.26-.54s.76-.59,1.22-.65c1.36-.19,2.27,1.74,3.64,1.64.42-.03.81-.26,1.23-.22.96.09,1.42,1.47,2.39,1.53.36.02.69-.15,1.04-.23.57-.13,1.2,0,1.66.36.22.17.41.38.68.46s.62-.08.61-.35"/>
      <path d="M650.44,517.62c-.41-.99-1.58-1.08-2.43-1.53-.99-.54-1.08-2-2.25-2.24-.66-.13-1.57.22-2.09-.33-.42-.44-.24-1.19-.7-1.61-.79-.72-2.35.19-3.08.54-.69.33-1.36.7-2,1.12-.55.36-1.35.79-1.73,1.35-.58.84.62,1.34,1.29,1.11.81-.28,1.32-1.11,2.24-1.11.63,0,1.25.64,1.72.99.37.28.78.56,1.25.64.72.11,1.41-.43,2.1,0,.51.32.82.91,1.36,1.18.48.24.9.09,1.39-.04.74-.2,1.33-.03,1.92.42.2.15.39.33.65.35.34.04.62-.13.69-.46.02-.11-.23-.07-.25.02-.14.66-1.35-.37-1.57-.46-.41-.16-.85-.18-1.28-.09-.37.08-.59.19-.99.15s-.58-.14-.87-.41c-.31-.28-.57-.63-.94-.85-.27-.16-.53-.22-.84-.19-.38.03-.72.23-1.11.21-.31-.01-.59-.14-.85-.29-.71-.42-1.29-1.16-2.13-1.33-.94-.19-1.46.54-2.22.91l-.19.11c-.98.24-1.35.04-1.12-.6.06-.44.08-.42.39-.67.26-.21.53-.41.81-.6.61-.43,1.25-.81,1.91-1.15.58-.3,1.19-.57,1.81-.79.56-.2,1.25-.32,1.59.29.15.26.16.56.26.84.27.78.9.85,1.64.84.85-.01,1.41.16,1.85.91.25.43.46.86.87,1.16.83.6,2.22.58,2.65,1.64.04.1.28.03.25-.07h0Z"/>
    </g>
    <path d="M687.05,559.43c.88.89-7.12-.41-6.74-1.6s-.18-3.21-.8-4.3c-.63-1.08,4.47,5.39,5.77-.53,1.26-.35,1.45,3.88,2.75,3.94,1.7.08.3-3.07.09-4.76-.21-1.69,0-2.23-.31-3.91-.11-.63,1.29-1.39,1.92-1.51.24-.05.48.03.71.07,1.04.18,2.12-.39,2.74-1.25.62-.86-1.89-3.34-1.87-4.4.03-1.8.78-2.97-.2-4.49-.39-.61.59-.45.47-1.16-.13-.71.29-1.59,1.01-1.64.43-.03.82.23,1.16.48,1.58,1.14,3.12,2.42,4.1,4.1.98,1.68,1.29,3.86.37,5.58-.36.68-.92,1.29-1.03,2.05-.15.95.43,1.87.43,2.83.01,1.94-2.23,3.41-2.04,5.34.06.6.36,1.16.46,1.76.18,1.06-.34,2.21-1.25,2.78-.55.34-1.21.48-1.76.83-2.05,1.29-1.59,4.56-3.2,6.38"/>
    <ellipse cx="627.15" cy="543.98" rx="2.7" ry="2.69" transform="translate(46.37 1137.21) rotate(-86.55)"/>
    <path d="M624.77,540.89c1.47-.4,3.32-.39,5.74.59,3.88,1.58,4.16,7.14,4.16,7.14,0,0-.95-4.47-4.75-6.13-1.83-.8-5.29-.64-6.96-.35.16-.37.91-.97,1.8-1.26Z"/>
    <path class="cls-9" d="M683.12,569.31c.78-1.08,1.37-2.36,1.33-3.72,0-.24.04-.63-.21-.73-.27-.1-.66,0-.92.05-.72.16-1.39.49-2.03.86-1.48.86-2.81,1.98-4.07,3.14-.09.08.06.11.12.09.35-.12.78-.2,1.13-.09.57.17.56.84.45,1.32-.36,1.55-1.94,1.93-3.33,1.65-.09-.02-.3.12-.15.15,1.5.3,3.28-.09,3.73-1.76.14-.53.15-1.24-.45-1.47-.43-.16-.98-.07-1.4.07l.12.09c1.08-1,2.22-1.96,3.46-2.76.67-.43,1.39-.84,2.16-1.07.33-.1.64-.13.98-.13.04,0,.12.04.1.02-.05-.05-.01,0,0,.05.02.11.04.23.05.34.13,1.41-.5,2.77-1.3,3.88-.07.1.19.08.24.01h0Z"/>
    <ellipse cx="653.85" cy="552.49" rx="2.7" ry="2.69" transform="translate(62.97 1171.87) rotate(-86.55)"/>
    <path d="M646.1,551.97s5.48-4.04,9.77-2.33c6.03,2.4,6.32,5.29,6.91,7.64,0,0-2.65-4.9-7.36-6.64-4.27-1.58-9.32,1.33-9.32,1.33Z"/>
    <path class="cls-19" d="M633.42,568.23c3.71,1.13,9.85,2.55,9.85,2.55,0,0-2.2,8.99-12.44,5.69-8.56-2.76-6.18-11.17-6.18-11.17,0,0,5.06,1.8,8.77,2.93Z"/>
    <path d="M633.39,568.22c1.76.54,8.35,2.47,8.35,2.47,0,0-2.92,4.08-9.29,2.13-6.92-2.11-6.71-6.52-6.71-6.52l7.66,1.92Z"/>
    <path class="cls-13" d="M633.06,569.01c1.76.54,7.22,1.89,7.22,1.89,0,0-2.55.81-7.84-.8-5.29-1.61-6.37-3.47-6.37-3.47l6.99,2.39Z"/>
    <path class="cls-19" d="M624.7,565.25c.06-.19.47-.16,1.36.04,1.5.32,2.13-.05,3.21.19,1.85.42,2.78,1.45,3.57,1.69.78.24,2.14-.1,3.91.59,1.03.4,3.54,1.57,4.96,2.14.85.34,1.98.32,2.15.43.24.14-1.1,2.36-10.96-.66-9.87-3.01-8.28-4.16-8.2-4.42Z"/>
    <path class="cls-11" d="M649.74,541.78c.02-.09.33-.03.35-.12,5.22.04,8.98.9,10.28,1.51.99.47,1.89,1.14,2.7,1.96,0,0,2.25,2.21,2.42,2.91.17.7-1.53-.72-1.53-.72-.38-.24-.62-.47-1.03-.64-2.23-.98-4.27-2.27-6.69-2.54-2.07-.25-5.08.28-7.2.57.19-1.02.58-1.91.69-2.93Z"/>
    <path class="cls-11" d="M638.29,539.08c.04-.09-.23-.19-.19-.28-3.78-2.6-6.94-3.78-8.19-3.92-.95-.11-1.96.01-2.97.3,0,0-2.77.73-3.26,1.24-.48.5,1.48.17,1.48.17.4,0,.69-.08,1.08-.02,2.12.3,4.26.24,6.14,1.23,1.62.83,3.51,2.81,4.89,4.12.39-.96.57-1.91,1.03-2.83Z"/>
    <g>
      <path class="cls-5" d="M633.13,562.96c.71.75,2.05,1.09,3.1.85.23-.05.83.28.51.36-1.39.32-3.29-.26-4.2-1.22-.09-.1-.04-.17.11-.17.16,0,.38.09.48.19"/>
      <path class="cls-5" d="M637.2,564.05c.67-.08,1.37,0,2.03.17.1.03.21.1.26.19.04.07.03.14-.06.15-.36.07-.76.01-1.11-.12-.11-.04-.25-.12-.28-.23-.03-.11.1-.13.18-.1.29.1.6.15.9.09.07.11.13.23.2.34-.59-.15-1.22-.22-1.82-.15-.12.01-.26-.07-.33-.16-.05-.06-.1-.19.02-.2"/>
      <path class="cls-5" d="M639.74,565.01c.76.24,1.77.21,2.33-.23.86-.67.82-2.3.06-3.18-.08-.1,0-.15.11-.14.15.02.29.12.38.22.66.76.79,2.15.39,2.92-.37.72-1.28,1-2.26.91-.29-.03-.59-.08-.88-.17-.12-.04-.31-.14-.34-.25-.03-.11.09-.11.2-.08"/>
      <path class="cls-5" d="M631.88,562.1c.07-.07.01-.16-.05-.18-.21-.06-.4-.19-.52-.39-.09.06-.19.12-.28.18.39.18.76.46,1.04.83.06.07.17.08.26.05.06-.02.15-.1.09-.18"/>
      <path class="cls-5" d="M632.41,562.41c-.32-.41-.73-.72-1.17-.92-.06-.03-.16-.02-.23.02-.06.04-.09.1-.05.16"/>
      <path class="cls-5" d="M630.27,561.66c-.49-.19-.95-.72-1-1.37-.07-.99.62-1.9,1.42-2.24.09-.04.08-.13.02-.17-.08-.06-.2-.04-.29,0-.7.3-1.31.96-1.51,1.8-.18.78.11,1.47.62,1.89.15.12.32.23.51.3.07.03.22.04.29-.04.07-.08.01-.14-.06-.17"/>
    </g>
    <g class="cls-23">
      <g class="cls-18">
        <circle class="cls-1" cx="719.24" cy="812.31" r="3.03"/>
        <circle class="cls-1" cx="684.14" cy="812.31" r="3.03"/>
        <circle class="cls-1" cx="701.69" cy="794.76" r="3.03"/>
        <circle class="cls-1" cx="701.69" cy="829.86" r="3.03"/>
        <circle class="cls-1" cx="701.69" cy="812.31" r="6.45"/>
        <circle class="cls-1" cx="719.24" cy="777.21" r="3.03"/>
        <circle class="cls-1" cx="684.14" cy="777.21" r="3.03"/>
        <circle class="cls-1" cx="701.69" cy="759.66" r="3.03"/>
        <circle class="cls-1" cx="701.69" cy="794.76" r="3.03"/>
        <circle class="cls-1" cx="701.69" cy="777.21" r="6.45"/>
        <circle class="cls-1" cx="649.04" cy="812.31" r="3.03"/>
        <circle class="cls-1" cx="666.59" cy="794.76" r="3.03"/>
        <circle class="cls-1" cx="666.59" cy="829.86" r="3.03"/>
        <circle class="cls-1" cx="666.59" cy="812.31" r="6.45"/>
        <circle class="cls-1" cx="649.04" cy="777.21" r="3.03"/>
        <circle class="cls-1" cx="666.59" cy="759.66" r="3.03"/>
        <circle class="cls-1" cx="666.59" cy="794.76" r="3.03"/>
        <circle class="cls-1" cx="666.59" cy="777.21" r="6.45"/>
        <circle class="cls-1" cx="684.14" cy="794.76" r="6.45"/>
        <circle class="cls-1" cx="613.94" cy="812.31" r="3.03"/>
        <circle class="cls-1" cx="631.49" cy="794.76" r="3.03"/>
        <circle class="cls-1" cx="631.49" cy="829.86" r="3.03"/>
        <circle class="cls-1" cx="631.49" cy="812.31" r="6.45"/>
        <circle class="cls-1" cx="613.94" cy="777.21" r="3.03"/>
        <circle class="cls-1" cx="631.49" cy="759.66" r="3.03"/>
        <circle class="cls-1" cx="631.49" cy="794.76" r="3.03"/>
        <circle class="cls-1" cx="631.49" cy="777.21" r="6.45"/>
        <circle class="cls-1" cx="649.04" cy="794.76" r="6.45"/>
        <circle class="cls-1" cx="578.83" cy="812.31" r="3.03"/>
        <circle class="cls-1" cx="596.38" cy="794.76" r="3.03"/>
        <circle class="cls-1" cx="596.38" cy="829.86" r="3.03"/>
        <circle class="cls-1" cx="596.38" cy="812.31" r="6.45"/>
        <circle class="cls-1" cx="578.83" cy="777.21" r="3.03"/>
        <circle class="cls-1" cx="596.38" cy="759.66" r="3.03"/>
        <circle class="cls-1" cx="596.38" cy="794.76" r="3.03"/>
        <circle class="cls-1" cx="596.38" cy="777.21" r="6.45"/>
        <circle class="cls-1" cx="613.94" cy="794.76" r="6.45"/>
        <circle class="cls-1" cx="560.31" cy="794.76" r="3.03"/>
        <circle class="cls-1" cx="577.87" cy="794.76" r="6.45"/>
        <circle class="cls-1" cx="684.14" cy="742.11" r="3.03"/>
        <circle class="cls-1" cx="684.14" cy="759.66" r="6.45"/>
        <circle class="cls-1" cx="701.69" cy="724.56" r="3.03"/>
        <circle class="cls-1" cx="666.59" cy="724.56" r="3.03"/>
        <circle class="cls-1" cx="684.14" cy="707.01" r="3.03"/>
        <circle class="cls-1" cx="684.14" cy="742.11" r="3.03"/>
        <circle class="cls-1" cx="684.14" cy="724.56" r="6.45"/>
        <circle class="cls-1" cx="719.24" cy="742.11" r="3.03"/>
        <circle class="cls-1" cx="701.69" cy="742.11" r="6.45"/>
        <circle class="cls-1" cx="649.04" cy="742.11" r="3.03"/>
        <circle class="cls-1" cx="649.04" cy="759.66" r="6.45"/>
        <circle class="cls-1" cx="631.49" cy="724.56" r="3.03"/>
        <circle class="cls-1" cx="649.04" cy="707.01" r="3.03"/>
        <circle class="cls-1" cx="649.04" cy="742.11" r="3.03"/>
        <circle class="cls-1" cx="649.04" cy="724.56" r="6.45"/>
        <circle class="cls-1" cx="666.59" cy="742.11" r="6.45"/>
        <circle class="cls-1" cx="613.94" cy="742.11" r="3.03"/>
        <circle class="cls-1" cx="613.94" cy="759.66" r="6.45"/>
        <circle class="cls-1" cx="596.38" cy="724.56" r="3.03"/>
        <circle class="cls-1" cx="613.94" cy="707.01" r="3.03"/>
        <circle class="cls-1" cx="613.94" cy="742.11" r="3.03"/>
        <circle class="cls-1" cx="613.94" cy="724.56" r="6.45"/>
        <circle class="cls-1" cx="631.49" cy="742.11" r="6.45"/>
        <circle class="cls-1" cx="561.28" cy="759.66" r="3.03"/>
        <circle class="cls-1" cx="578.83" cy="742.11" r="3.03"/>
        <circle class="cls-1" cx="578.83" cy="759.66" r="6.45"/>
        <circle class="cls-1" cx="578.83" cy="707.01" r="3.03"/>
        <circle class="cls-1" cx="578.83" cy="742.11" r="3.03"/>
        <circle class="cls-1" cx="578.83" cy="724.56" r="6.45"/>
        <circle class="cls-1" cx="596.38" cy="742.11" r="6.45"/>
        <circle class="cls-1" cx="720.05" cy="707.01" r="3.03"/>
        <circle class="cls-1" cx="684.94" cy="707.01" r="3.03"/>
        <circle class="cls-1" cx="702.5" cy="689.46" r="3.03"/>
        <circle class="cls-1" cx="702.5" cy="707.01" r="6.45"/>
        <circle class="cls-1" cx="720.05" cy="671.91" r="3.03"/>
        <circle class="cls-1" cx="684.94" cy="671.91" r="3.03"/>
        <circle class="cls-1" cx="702.5" cy="654.36" r="3.03"/>
        <circle class="cls-1" cx="702.5" cy="689.46" r="3.03"/>
        <circle class="cls-1" cx="702.5" cy="671.91" r="6.45"/>
        <circle class="cls-1" cx="649.84" cy="707.01" r="3.03"/>
        <circle class="cls-1" cx="667.39" cy="689.46" r="3.03"/>
        <circle class="cls-1" cx="667.39" cy="707.01" r="6.45"/>
        <circle class="cls-1" cx="649.84" cy="671.91" r="3.03"/>
        <circle class="cls-1" cx="667.39" cy="654.36" r="3.03"/>
        <circle class="cls-1" cx="667.39" cy="689.46" r="3.03"/>
        <circle class="cls-1" cx="667.39" cy="671.91" r="6.45"/>
        <circle class="cls-1" cx="684.94" cy="689.46" r="6.45"/>
        <circle class="cls-1" cx="614.74" cy="707.01" r="3.03"/>
        <circle class="cls-1" cx="632.29" cy="689.46" r="3.03"/>
        <circle class="cls-1" cx="632.29" cy="707.01" r="6.45"/>
        <circle class="cls-1" cx="614.74" cy="671.91" r="3.03"/>
        <circle class="cls-1" cx="632.29" cy="654.36" r="3.03"/>
        <circle class="cls-1" cx="632.29" cy="689.46" r="3.03"/>
        <circle class="cls-1" cx="632.29" cy="671.91" r="6.45"/>
        <circle class="cls-1" cx="649.84" cy="689.46" r="6.45"/>
        <circle class="cls-1" cx="579.64" cy="707.01" r="3.03"/>
        <circle class="cls-1" cx="597.19" cy="689.46" r="3.03"/>
        <circle class="cls-1" cx="597.19" cy="707.01" r="6.45"/>
        <circle class="cls-1" cx="579.64" cy="671.91" r="3.03"/>
        <circle class="cls-1" cx="597.19" cy="654.36" r="3.03"/>
        <circle class="cls-1" cx="597.19" cy="689.46" r="3.03"/>
        <circle class="cls-1" cx="597.19" cy="671.91" r="6.45"/>
        <circle class="cls-1" cx="614.74" cy="689.46" r="6.45"/>
        <circle class="cls-1" cx="561.12" cy="689.46" r="3.03"/>
        <circle class="cls-1" cx="578.67" cy="689.46" r="6.45"/>
        <circle class="cls-1" cx="684.94" cy="636.8" r="3.03"/>
        <circle class="cls-1" cx="684.94" cy="654.36" r="6.45"/>
        <circle class="cls-1" cx="702.5" cy="619.25" r="3.03"/>
        <circle class="cls-1" cx="667.39" cy="619.25" r="3.03"/>
        <circle class="cls-1" cx="684.94" cy="601.7" r="3.03"/>
        <circle class="cls-1" cx="684.94" cy="636.8" r="3.03"/>
        <circle class="cls-1" cx="684.94" cy="619.25" r="6.45"/>
        <circle class="cls-1" cx="720.05" cy="636.8" r="3.03"/>
        <circle class="cls-1" cx="702.5" cy="636.8" r="6.45"/>
        <circle class="cls-1" cx="649.84" cy="636.8" r="3.03"/>
        <circle class="cls-1" cx="649.84" cy="654.36" r="6.45"/>
        <circle class="cls-1" cx="632.29" cy="619.25" r="3.03"/>
        <circle class="cls-1" cx="649.84" cy="601.7" r="3.03"/>
        <circle class="cls-1" cx="649.84" cy="636.8" r="3.03"/>
        <circle class="cls-1" cx="649.84" cy="619.25" r="6.45"/>
        <circle class="cls-1" cx="667.39" cy="636.8" r="6.45"/>
        <circle class="cls-1" cx="669.62" cy="593.73" r="6.45"/>
        <circle class="cls-1" cx="614.74" cy="636.8" r="3.03"/>
        <circle class="cls-1" cx="614.74" cy="654.36" r="6.45"/>
        <circle class="cls-1" cx="597.19" cy="619.25" r="3.03"/>
        <circle class="cls-1" cx="614.74" cy="601.7" r="3.03"/>
        <circle class="cls-1" cx="614.74" cy="636.8" r="3.03"/>
        <circle class="cls-1" cx="614.74" cy="619.25" r="6.45"/>
        <circle class="cls-1" cx="632.29" cy="636.8" r="6.45"/>
        <circle class="cls-1" cx="562.09" cy="654.36" r="3.03"/>
        <circle class="cls-1" cx="579.64" cy="636.8" r="3.03"/>
        <circle class="cls-1" cx="579.64" cy="654.36" r="6.45"/>
        <circle class="cls-1" cx="562.09" cy="619.25" r="3.03"/>
        <circle class="cls-1" cx="579.64" cy="601.7" r="3.03"/>
        <circle class="cls-1" cx="579.64" cy="636.8" r="3.03"/>
        <circle class="cls-1" cx="579.64" cy="619.25" r="6.45"/>
        <circle class="cls-1" cx="597.19" cy="636.8" r="6.45"/>
      </g>
    </g>
    <path class="cls-30" d="M715.43,667.06s-12.62-39.83-18.03-51.81c-5.41-11.98-15.28-4.13-15.28-4.13l-8.51,16.19,2.79,15.46,17.85,40.58c1.76,4.34,4.88,8.04,8.97,10.32,3.48,1.94,7.66,2.55,12.38.55,18.75-7.96,30.56-39.88,30.56-39.88l-7.51-6.94-23.21,19.67Z"/>
    <g>
      <path class="cls-30" d="M735.73,650.2s1.41-3.39,3.57-8.55c2.17-5.16,7.94-10.63,11.22-13.55,3.28-2.92,5.46-5.71,7.18-3.12,1.72,2.59-.77,5.13-.77,5.13l1.1,6.72s1.3,1.67,1.78,4.27c.49,2.6-.82,4.79-.82,4.79,0,0,.97,2.18-.16,4.42-1.13,2.24-6.27,3.7-6.27,3.7l-8.38,3.3-8.46-7.13Z"/>
      <path class="cls-32" d="M748.17,638.18s-.24.04-.57-.21c-.17-.13-.31-.4-.33-.69-.03-.29-.03-.58.01-.94.1-.71.49-1.47,1.01-2.19.51-.73,1.15-1.48,1.92-2.17.77-.69,1.57-1.26,2.39-1.67.82-.43,1.68-.52,2.34-.56.68-.05,1.26.03,1.62.23.36.18.46.4.44.42-.04.04-.19-.1-.53-.19-.33-.1-.84-.11-1.47,0-.65.1-1.38.23-2.11.64-.73.4-1.49.97-2.23,1.62-1.42,1.33-2.61,2.79-2.91,3.97-.12.61-.17,1.14.05,1.37.21.25.42.34.39.39Z"/>
      <path class="cls-32" d="M743.92,644.89s-.22-.21-.37-.72c-.15-.5-.18-1.33.24-2.2.38-.88,1.2-1.71,2.09-2.48.91-.82,1.88-1.68,2.89-2.59,1.04-.9,1.99-1.8,2.98-2.53.99-.75,2.12-1.09,3.02-1.22.92-.14,1.7-.09,2.2.13.51.2.65.51.63.52-.04.04-.23-.17-.7-.28-.46-.12-1.18-.11-2.04.08-.87.19-1.84.53-2.75,1.25-.91.71-1.87,1.63-2.91,2.53-1.03.89-2,1.75-2.93,2.55-.93.76-1.67,1.47-2.07,2.24-.42.75-.47,1.47-.4,1.95.06.48.18.74.12.77Z"/>
      <path class="cls-32" d="M746.47,647.07s-.25.2-.8.28c-.27.04-.61.07-1.01.01-.2-.03-.42-.07-.64-.18-.23-.1-.46-.35-.55-.6-.22-.52-.15-1.16.14-1.72.31-.56.82-.98,1.35-1.34,1.07-.69,2.26-1.4,3.51-2.16,2.51-1.47,4.8-2.77,6.48-3.69.81-.47,1.59-.83,2.17-.79.6.03.81.35.78.36-.03.05-.28-.16-.77-.1-.5.04-1.15.41-1.95.93-1.62,1.02-3.87,2.38-6.38,3.85-1.23.74-2.4,1.44-3.51,2.09-.52.33-.96.69-1.21,1.11-.25.42-.32.91-.19,1.28.11.38.47.5.83.59.35.08.67.09.93.09.52,0,.81-.08.82-.03Z"/>
      <path class="cls-32" d="M754.33,649.34s-.21-.18-.46-.61c-.25-.43-.56-1.1-.73-2.02l.32.12c-.98.83-2.52,1.7-4.49,1.93-.48.05-1.01.11-1.58-.05-.59-.14-1.1-.73-1.19-1.35-.12-.62.07-1.27.38-1.78.31-.52.7-.95,1.1-1.38,1.4-1.43,3.11-2.39,4.76-2.87.83-.24,1.68-.37,2.47-.24.8.12,1.48.53,1.95,1,.94.97,1.28,2,1.52,2.66.22.68.3,1.07.26,1.08-.05.02-.2-.35-.5-.99-.31-.62-.72-1.6-1.6-2.42-.44-.4-1.03-.72-1.72-.8-.69-.09-1.45.04-2.23.28-1.55.49-3.16,1.41-4.47,2.75-.76.79-1.5,1.7-1.33,2.59.08.44.34.76.75.88.4.13.88.1,1.34.06,1.84-.18,3.33-.93,4.3-1.66l.27-.2.04.33c.23,1.76.9,2.64.81,2.68Z"/>
    </g>
    <path class="cls-32" d="M715.32,666.81c-4.26,2.7-7.28,7.15-8.22,12.1-.14.71,1.34.53,1.47-.11.89-4.66,3.71-8.8,7.71-11.34.27-.17.35-.54.08-.74-.3-.23-.76-.09-1.04.09h0Z"/>
    <path class="cls-6" d="M708.95,637.5s-13.03,8.1-33.63,7.03c0,0-5.53-20,0-31.86,5.53-11.86,16.49-8.99,16.49-8.99,0,0,11.87-1.78,17.14,33.81Z"/>
  </g>
</svg>