<?xml version="1.0" encoding="UTF-8"?>
<svg xmlns="http://www.w3.org/2000/svg" viewBox="0 0 1334 1000">
  <defs>
    <style>
      .cls-1 {
        fill: #151312;
      }

      .cls-2 {
        fill: #8fab97;
      }

      .cls-3 {
        fill: #4d3936;
      }

      .cls-4 {
        fill: #010101;
      }

      .cls-5 {
        fill: #e0c38b;
      }

      .cls-6 {
        fill: #846351;
      }

      .cls-7 {
        fill: #bc967d;
      }

      .cls-8 {
        fill: #13110f;
      }

      .cls-9 {
        fill: #f1eef7;
      }

      .cls-10 {
        fill: #eee6d2;
      }

      .cls-11 {
        fill: #080707;
      }

      .cls-12 {
        fill: #222b2b;
      }

      .cls-13 {
        fill: #6ab0df;
      }

      .cls-14 {
        fill: #4a3027;
      }

      .cls-15 {
        fill: #6b3825;
      }

      .cls-16 {
        fill: #9d806a;
      }

      .cls-17 {
        fill: #7d7d7d;
      }

      .cls-18 {
        fill: #f9f8f7;
      }

      .cls-19 {
        fill: #fff;
      }

      .cls-20 {
        fill: #643b29;
      }

      .cls-21 {
        fill: #221f20;
      }

      .cls-22 {
        fill: #816227;
      }

      .cls-23 {
        fill: #a3a3a3;
      }

      .cls-24 {
        fill: #262828;
      }

      .cls-25 {
        fill: #1c384a;
      }

      .cls-26 {
        fill: #301e18;
      }

      .cls-27 {
        fill: #7f7f7f;
      }

      .cls-28 {
        fill: #efedf5;
      }

      .cls-29 {
        fill: #f0e9d2;
      }

      .cls-30 {
        fill: #38211a;
      }

      .cls-31 {
        fill: #975449;
      }

      .cls-32 {
        fill: #af6b4e;
      }

      .cls-33 {
        fill: #4f2e25;
      }
    </style>
  </defs>
  <g id="Layer_14" data-name="Layer 14">
    <polyline class="cls-29" points="-74.05 900.22 -74.05 -56.1 1389.91 -56.1 1389.91 900.22"/>
    <path class="cls-32" d="M803.74,844.85l-.04-.02c6.23-9.99,11.83-20.13,15.95-29.57,16.61-38.06,43.71-67.04,68.38-122.52l-129.53-41.54c-8.25,11.42-17.05,40.98-29.75,66.02-2.59,5.1-24.51,42.65-26.29,46.93-1.25,3.03-16,37.85-16.93,39.99,0,.19.02.37.02.56-8.77,12.2-67.99,98.81,3.42,117.51,71.55,18.74,111.2-70.55,114.78-77.37Z"/>
  </g>
  <g id="Layer_10" data-name="Layer 10">
    <path class="cls-32" d="M1024.45,254.17s-4.03,39.23,18.7,70.34c3.27,4.48,61.44,18.43,61.44,18.43l-79.75,195.28c-24.03,14.1-45.74-21.52-73.58-22.78l-59.42-106.18,25.9-49.54c-.62-6.52-6.4-26.85-6.4-26.85"/>
    <g>
      <path class="cls-18" d="M861.53,774.96l-7.98-37.74-8.56,13.39c-91.97-3.01-96.25-33.39-116.78-65.79,19.8-45.1,64.01-203.13,81.42-244.3,18.67-44.15,101.86-69.36,108.7-73.21-2.73,31.14,29.8,32.87,29.8,32.87l13.18,112.99,4.01-.38-1.28-113.82c72.08-30.49,81.43-70.88,81.43-70.88,19.53,2.22,66.65,17.03,103.8,27.81,31.39,13.72,26.71,46.07,40.1,67.27,17.06,27.01,22.67,106.23,44.08,161.83-40.01,21.29,20.6,92.92,1.19,98.16,0,0,11.8,45.51,11.83,45.62,3.82,14.72,13.41,27.58,19.17,41.6,13.06,31.79,30.24,60.26,31.34,94.73.6,18.76,1.74,43.98,1.66,62.75-.07,17.59,1.7,36.72-6.19,53.12-1.88,3.9-48.54,4.85-52.86,4.7-30.51-1.07-15.06-82.69-15.14-112.65-3.35,1.52-6.93,3.14-10.73,4.86-10.46,33.31-21.22,105.24-21.22,105.24-190.26,59.15-298.01-96.14-415.27-90.65-8.33.39,64.77-44.66,64.05-52.99-.33-3.79,5.37-33.57,9.52-41l10.69-23.54Z"/>
      <path class="cls-27" d="M862.98,774.57c-2.66-12.58-5.32-25.16-7.98-37.74-.13-.62-2.64.3-2.87.66-2.85,4.46-5.71,8.92-8.56,13.39.79-.27,1.58-.54,2.38-.82-23.46-.8-48.49-2.78-70.07-12.83-12.75-5.94-22.85-15.14-30.62-26.8-3.47-5.2-6.52-10.67-9.64-16.08-1.67-2.89-3.56-5.69-5.13-8.63-.86-1.61-.38-2.23.29-3.83.61-1.46,1.21-2.92,1.79-4.39,6.01-15.09,11.14-30.54,16.22-45.96,13.42-40.74,25.81-81.8,38.77-122.68,5.35-16.88,10.73-33.76,16.62-50.46,2.03-5.76,4.11-11.51,6.45-17.15,3.45-8.3,8.7-15.57,14.95-21.98,24.39-25.02,58.41-37.73,90.19-50.37,1.23-.49,2.49-.96,3.65-1.6-.85.13-1.7.26-2.54.4-.64,8.26,1.04,16.54,6.85,22.73,4.08,4.35,9.53,7.14,15.21,8.77,1.93.56,3.9.99,5.89,1.27.56.08,1.12.13,1.67.2.82.1.27.13.18-.09.7,1.79.52,4.47.74,6.35,3.15,27.04,6.31,54.07,9.46,81.11.99,8.5,1.98,17.01,2.98,25.51.03.24.7.14.81.13,1.34-.13,2.67-.26,4.01-.38.4-.04,2.1-.31,2.09-.91-.14-12.83-.29-25.66-.43-38.5l-.69-61.09c-.05-4.75-.11-9.49-.16-14.24l-.63.52c21.4-9.11,42.21-20.84,59.01-37.14,8.5-8.24,16.27-17.8,21.06-28.71.77-1.75,1.53-3.57,1.97-5.43-.87.27-1.75.53-2.62.8,16.53,1.95,32.87,7.15,48.82,11.7,10.48,2.99,20.92,6.08,31.37,9.17,5.19,1.54,10.38,3.07,15.58,4.6,5.13,1.51,9.98,2.94,14.54,5.81,14.26,8.97,19.46,24.37,23.93,39.73,2.09,7.19,4.19,14.48,7.75,21.1,2.95,5.48,5.89,10.63,8.03,16.52,5.64,15.49,8.89,31.86,12.26,47.96,4.14,19.78,8,39.63,12.91,59.24,2.45,9.79,5.14,19.52,8.31,29.1.71,2.16,1.45,4.31,2.22,6.45.38,1.06.76,2.11,1.16,3.16.66,1.76.87,1.76-.42,2.77-2.08,1.63-4.23,2.91-6.05,4.89-7.47,8.12-7.5,19.75-5.55,29.98,2.31,12.14,7.18,23.63,11.68,35.07,1.85,4.7,3.74,9.43,5.09,14.3.85,3.07,1.98,7.04.79,10.17-.37.98-1.09,2.13-2.16,2.44-.21.06-1.45.38-1.35.77,2.4,9.27,4.81,18.53,7.21,27.8,3.11,12,5.79,23.72,11.41,34.89,2.62,5.2,5.49,10.26,8.13,15.44,2.68,5.25,4.86,10.69,7.2,16.09,4.71,10.9,9.82,21.62,14.42,32.56,4.51,10.72,8.54,21.68,11.08,33.04,2.56,11.41,2.89,22.86,3.31,34.49.82,22.77,1.51,45.55,1.35,68.33-.04,5.84-.28,11.69-1.13,17.47-.46,3.1-1.09,6.18-1.96,9.19-.36,1.26-.77,2.5-1.22,3.73s-1.06,3.77-1.97,4.68c-.97.97-2.85,1.05-4.14,1.27-2.92.5-5.88.79-8.84,1.06-12.05,1.08-24.29,1.7-36.39,1.57-10.5-.11-15.12-9.56-17.23-18.61-3.27-14-2.62-28.95-1.86-43.2.77-14.29,2.35-28.53,3.11-42.82.14-2.62.24-5.25.23-7.88,0-.49-2.09.18-2.27.26-3.01,1.36-6.03,2.73-9.04,4.09-2.54,1.15-2.47,1.66-3.24,4.28-1.16,3.94-2.21,7.92-3.2,11.91-2.29,9.19-4.27,18.46-6.14,27.74-3.44,17.13-6.46,34.35-9.24,51.6-.59,3.66-1.17,7.32-1.72,10.98l.97-.65c-27.25,8.42-55.59,13.18-84.14,13.18-24.48,0-48.85-3.48-72.51-9.71-43.28-11.4-83.21-31.79-122.94-51.92-34.1-17.28-69.47-35.72-107.79-41.15-4.42-.63-8.87-1.06-13.33-1.29-2.08-.11-4.16-.17-6.25-.18-1.04,0-2.09,0-3.13.02-.39,0-3.51.4-3.76.12-.85-.95,5.73-5.62,6.6-6.28,13.52-10.3,27.75-19.64,41.24-29.98,5.07-3.88,10.5-7.84,14.66-12.73,3.01-3.54,2.41-8.54,3.17-12.96,1.72-9.92,3.52-20.52,7.46-29.84,2.65-6.28,5.69-12.43,8.5-18.63,1.03-2.27,2.07-4.55,3.1-6.82.15-.32-2.53-.16-2.85.55-2.99,6.58-5.98,13.16-8.97,19.75-3.12,6.87-5.41,13.71-7.14,21.1-1.14,4.86-2.15,9.76-3,14.68-.53,3.07-.64,6.21-1.12,9.25-.28,1.75-1.69,3.19-2.86,4.44-2.18,2.31-4.63,4.37-7.07,6.38-13.52,11.14-28.2,20.82-42.35,31.12-2.65,1.93-5.31,3.88-7.87,5.93-1.26,1.01-3.37,2.3-4.15,3.78-.52,1-.52,1.07.56,1.36,1.58.42,4.15-.14,5.81-.14,2.29,0,4.58.04,6.87.15,39.46,1.86,76.39,19.98,111.07,37.37,39.82,19.98,79.31,41.07,122.17,53.91,49.16,14.72,100.56,16.73,150.53,4.73,6.87-1.65,13.67-3.56,20.42-5.64.29-.09.91-.28.97-.65,4.23-28.25,9.13-56.52,15.65-84.33,1.1-4.7,2.27-9.39,3.56-14.04.47-1.71.77-4.73,1.8-6.15s3.57-2.01,5.12-2.71c1.73-.78,3.46-1.57,5.2-2.35-.76.09-1.51.17-2.27.26,0,29.11-6.75,58.26-2.68,87.37,1.29,9.26,4.25,22.28,14.8,24.95,3.76.95,7.99.48,11.82.39,6.93-.16,13.85-.42,20.77-.85,6.35-.39,12.77-.77,19.04-1.91,1.83-.33,3.79-.68,5.48-1.49,2.56-1.22,3.12-4.42,3.98-6.92,3.88-11.29,4.08-23.4,3.97-35.21-.1-11.53-.11-23.06-.42-34.59-.31-11.82-.78-23.63-1.19-35.45-.42-12.24-1.87-24.04-5.3-35.83s-8.17-23.08-13.15-34.25c-4.99-11.21-9.69-22.59-14.85-33.71-5.03-10.84-11.73-20.91-15.74-32.22-1.47-4.15-2.46-8.47-3.56-12.72-3.07-11.83-6.14-23.67-9.21-35.5-.23-.9-.47-1.8-.7-2.7l-1.35.77c4.37-1.28,5.65-4.43,5.18-8.78-.71-6.49-3.53-12.84-5.89-18.87-6.03-15.4-14.11-32.24-13.04-49.19.6-9.4,5.22-17.18,13.54-21.71.06-.03.41-.23.35-.38-9.57-25-15.3-51.33-20.74-77.47-4.74-22.73-8.54-46.04-16.04-68.08-1.34-3.93-2.83-7.81-4.66-11.54-1.88-3.82-4.32-7.31-6.07-11.21-4.18-9.27-6.18-19.31-9.48-28.89-3.25-9.43-7.92-18.41-15.67-24.92-10.16-8.54-24.01-10.72-36.42-14.39-14.98-4.43-29.97-8.88-45.05-12.96-11.18-3.02-22.55-6.23-34.08-7.59-.5-.06-2.47.15-2.62.8-1.25,5.31-4.25,10.45-7.14,14.99-8.68,13.63-20.92,24.79-34.08,34-12.34,8.63-25.77,15.59-39.6,21.48-.19.08-.63.25-.63.52.14,12.83.29,25.66.43,38.5l.69,61.09c.05,4.75.11,9.49.16,14.24.7-.3,1.4-.61,2.09-.91-1.34.13-2.67.26-4.01.38l.81.13c-1.49-12.74-2.97-25.48-4.46-38.21l-7.07-60.64c-.55-4.71-1.1-9.42-1.65-14.13-.02-.16-.43-.15-.5-.15-4.68-.26-11.14-2.21-15.74-4.82-10.32-5.84-14.46-16.37-13.57-27.9.04-.52-2.34.28-2.54.4-3.66,2-8.23,3.3-12.2,4.84-7.87,3.05-15.68,6.25-23.37,9.73-18.91,8.56-37.74,18.67-53.32,32.55-7.29,6.49-13.95,13.97-18.43,22.69-3.03,5.89-5.18,12.31-7.42,18.54-6.33,17.64-12.01,35.51-17.67,53.38-13.74,43.32-26.79,86.85-41.18,129.96-2.89,8.67-5.84,17.32-8.96,25.91-1.29,3.56-2.61,7.12-3.99,10.65-1.09,2.81-2.93,5.86-3.59,8.79-.35,1.55.81,2.69,1.68,4.11.95,1.57,1.89,3.16,2.81,4.75,1.72,2.95,3.4,5.93,5.12,8.88,3.4,5.82,6.97,11.56,11.27,16.78,10.2,12.39,24.05,20.07,39.3,24.6,12.01,3.57,24.5,5.4,36.96,6.51,3.41.3,6.82.54,10.23.74,3.14.18,7.57,1.14,10.62.26,2.3-.66,3.57-4.16,4.74-6,1.71-2.68,3.43-5.36,5.14-8.04l-2.87.66c2.66,12.58,5.32,25.16,7.98,37.74.11.51,3.03-.17,2.9-.78Z"/>
    </g>
    <g>
      <path class="cls-10" d="M855.74,747.94c-8.76-54.5-28.41-146-44.52-198.8"/>
      <path class="cls-27" d="M857.19,747.55c-1.91-11.87-4.03-23.7-6.25-35.51-2.57-13.62-5.29-27.21-8.13-40.77-2.96-14.13-6.06-28.22-9.3-42.29-3.13-13.58-6.39-27.12-9.85-40.62-3.07-11.97-6.29-23.9-9.81-35.74-.38-1.29-.77-2.58-1.17-3.87-.33-1.09-3.22-.3-2.9.78,3.5,11.49,6.68,23.08,9.71,34.71,3.49,13.41,6.78,26.86,9.92,40.36s6.41,28.14,9.4,42.26c2.89,13.63,5.66,27.29,8.28,40.98,2.32,12.14,4.54,24.3,6.55,36.5.22,1.33.44,2.66.65,3.99.17,1.07,3.08.38,2.9-.78h0Z"/>
    </g>
    <path class="cls-27" d="M1061.58,329.22c.05.69-.02,1.62-.14,2.59-.3,2.58-.94,5.11-1.77,7.56-3.34,9.86-9.74,18.57-16.86,26.03-5.35,5.6-11.3,10.64-17.34,15.49-4.78,3.84-9.71,7.51-14.85,10.87-6.13,4.01-13.19,8.05-19.81,10.28-1.09.37-2.2.7-3.32.97-.23.06-.45.11-.68.16-.13.03-.84.17-.31.07-.35.07-.7.13-1.05.18-.27.04-.54.07-.81.1-.33.04-.63.04-.25.03-.15,0-.3.01-.45,0-.47-.02-1.99.29-2.01,1-.11,3.86-.21,7.73-.32,11.59-.25,9.23-.51,18.47-.76,27.7-.31,11.21-.62,22.41-.92,33.62-.27,9.65-.53,19.3-.8,28.95-.09,3.18-.18,6.37-.26,9.55-.04,1.45-.32,3.11-.12,4.54,0,.06,0,.14,0,.2.55-.33,1.1-.65,1.65-.98-8.84,1.22-17.68,2.45-26.51,3.67-1.25.17-2.5.35-3.75.52l1.25.41c-.45-3.88-.89-7.76-1.34-11.65-1.07-9.32-2.15-18.64-3.22-27.96-1.29-11.23-2.59-22.45-3.88-33.68-1.12-9.71-2.24-19.42-3.35-29.12l-1.11-9.64c-.17-1.45-.12-3.17-.53-4.58-.02-.06-.02-.14-.02-.2-.03-.24-.39-.34-.56-.4-.1-.03-.39-.13,0,0-.25-.08-.49-.16-.74-.25-.85-.3-1.7-.61-2.54-.95-2.73-1.09-5.4-2.36-7.95-3.81-6.24-3.54-12.52-8.55-14.98-15.54-1.61-4.57-1.17-9.36.56-13.82.36-.93-2.53-.6-2.9.36-1.58,4.09-2.13,8.55-1,12.82.98,3.7,3.13,7.02,5.74,9.79,4.77,5.05,11.07,8.63,17.44,11.27,1.5.62,3.03,1.21,4.59,1.68l-.56-.4c.45,3.88.89,7.76,1.34,11.65,1.07,9.32,2.15,18.64,3.22,27.96,1.29,11.23,2.59,22.45,3.88,33.68,1.12,9.71,2.24,19.42,3.35,29.12.37,3.21.74,6.43,1.11,9.64.17,1.44.11,3.18.53,4.58.02.06.02.14.02.2.05.47.96.45,1.25.41,8.84-1.22,17.68-2.45,26.51-3.67,1.25-.17,2.5-.35,3.75-.52.43-.06,1.63-.37,1.65-.98.11-3.86.21-7.73.32-11.59.25-9.23.51-18.47.76-27.7.31-11.21.62-22.41.92-33.62.27-9.65.53-19.3.8-28.95.09-3.18.18-6.37.26-9.55.04-1.46.3-3.09.12-4.54,0-.07,0-.14,0-.2l-2.01,1c2.23.11,4.61-.56,6.72-1.18,6.77-1.99,13.14-5.35,19.14-9.02,5.03-3.08,9.85-6.48,14.54-10.05,6.2-4.73,12.28-9.72,17.93-15.09,8.39-7.98,16.01-17.28,20.4-28.1,1.16-2.86,2.09-5.84,2.6-8.89.2-1.22.64-2.98.34-4.23-.01-.06,0-.13,0-.19-.07-.93-2.98-.33-2.9.78h0Z"/>
    <g>
      <path class="cls-32" d="M1282.6,660.75l-.04.02c-1.89-11.3-4.33-22.29-7.39-31.83-12.3-38.42-11.35-77.06-28.97-133.36l-118.94,54.06c1.36,13.65,13.85,40.83,20.68,67.24,1.39,5.38,9.58,46.88,11.03,51.15,1.03,3.01,12.61,37.87,13.31,40.03.12.14.25.26.37.4,1.49,14.55,14.19,115.89,77.08,83.05,63.02-32.91,34.64-123.48,32.87-130.75Z"/>
      <path class="cls-32" d="M1282.6,660.75l.15-.06c-.27-.58-.3-.53-.15.06Z"/>
    </g>
    <g>
      <path class="cls-18" d="M1139.49,409.92c-17.36,14.22-23.05,27.1-26.93,42.05-10.32,39.77,8.67,175.79,24.11,231.94,0,0,67.26,17.27,158.1-24.12,0,0-45.25-201.09-56.47-230.92-11.22-29.83-35.46-55.34-99.95-75.91"/>
      <path class="cls-27" d="M1138.52,409.23c-9.44,7.77-17.55,16.98-22.53,28.24-3.14,7.1-5.32,14.74-6.4,22.43-2.12,15.14-1.64,30.7-.92,45.92.94,20.1,2.88,40.16,5.29,60.14,2.51,20.83,5.58,41.6,9.22,62.26,3.03,17.15,6.38,34.29,10.73,51.16.42,1.64.86,3.28,1.31,4.92.07.27.35.54.62.61,9.33,2.39,19.26,3.09,28.84,3.47,25.09,1.01,50.29-2.03,74.64-8.05,19.27-4.76,38.03-11.45,56.1-19.66.47-.21.92-.72.8-1.27-.72-3.2-1.44-6.4-2.17-9.59-1.92-8.46-3.85-16.93-5.78-25.39-2.77-12.09-5.55-24.17-8.35-36.26-3.23-13.92-6.48-27.83-9.77-41.73-3.33-14.09-6.7-28.17-10.13-42.24-3.07-12.57-6.18-25.14-9.41-37.67-2.42-9.4-4.88-18.79-7.63-28.1-2.41-8.14-5.31-16.02-9.44-23.47-6.66-12.02-16.05-22.23-26.92-30.58-15.13-11.62-32.69-19.87-50.48-26.54-5.6-2.1-11.26-4.04-16.95-5.86-1.28-.41-3.41,1.43-1.66,1.99,19.98,6.39,39.86,14.18,57.56,25.58,12.21,7.86,23.27,17.58,31.46,29.65,5.41,7.96,9.41,16.73,12.27,25.9,2.6,8.32,4.84,16.76,7.05,25.19,3.13,11.92,6.13,23.89,9.07,35.86,3.4,13.82,6.73,27.66,10.03,41.5,3.34,14.03,6.64,28.07,9.91,42.12,2.93,12.57,5.83,25.14,8.72,37.71,2.16,9.42,4.32,18.85,6.46,28.28,1.04,4.57,1.79,9.33,3.13,13.82.06.2.09.41.14.61.27-.42.53-.85.8-1.27-29.21,13.27-60.36,22.5-92.3,25.97-18.35,1.99-37.07,2.26-55.38-.35-2.28-.33-4.56-.7-6.82-1.16-.6-.12-1.19-.25-1.79-.38s-.16-.09-.16-.03c0,0-.14-.04-.17-.04l.62.61c-4.37-15.91-7.66-32.13-10.65-48.35-3.71-20.12-6.83-40.36-9.45-60.65-2.62-20.27-4.76-40.61-5.99-61.01-.97-16.03-1.62-32.28-.13-48.3.6-6.49,1.79-12.76,3.74-18.98,3.38-10.76,8.96-20.29,16.85-28.37,2.51-2.57,5.19-4.96,7.96-7.24,1.52-1.25-.79-2.31-1.94-1.37h0Z"/>
    </g>
    <path class="cls-27" d="M1288.94,644.44c-5.01,1.99-10.08,3.86-15.15,5.69-11.63,4.2-23.35,8.13-35.2,11.66-13.33,3.98-26.86,7.57-40.62,9.77-7.81,1.25-15.72,1.89-23.62,2.22-7.14.3-14.29.28-21.42-.22-6.42-.45-12.87-1.24-19.09-2.98-.07-.02-.15-.05-.22-.07-.61-.21-.87.76-.27.96,1.24.42,2.53.7,3.81.98,3.82.83,7.7,1.36,11.59,1.75,6.43.64,12.9.84,19.36.75,8.42-.12,16.87-.64,25.22-1.72,13.59-1.77,26.97-5.14,40.13-8.91,12.48-3.57,24.82-7.62,37.05-11.97,6.17-2.19,12.34-4.43,18.42-6.85.09-.03.17-.07.26-.1.59-.24.33-1.2-.27-.96h0Z"/>
    <path class="cls-27" d="M740.69,668.84c.74,3.04,2.22,5.98,3.71,8.7,4,7.32,9.5,13.79,15.73,19.31,9.97,8.84,21.84,15.01,34.03,20.19,11.6,4.93,23.61,8.87,35.85,11.89,5.92,1.46,11.94,2.83,17.99,3.64.68.09,1.41-.05,2.03-.36.2-.1,1.03-.69.35-.78-4.84-.65-9.65-1.69-14.41-2.79-11.61-2.68-23.04-6.19-34.12-10.57-20.81-8.22-41.82-19.73-53.56-39.58-1.9-3.22-3.8-6.77-4.69-10.43-.16-.66-3.07.08-2.9.78h0Z"/>
    <path class="cls-32" d="M1017.47,119.63s-18.2-30.86-60.16-33.17c-31.66-1.74-89.28,14.02-109.14,29.97-28.78,23.12-28.23,58.49-28.23,58.49l197.52-55.29Z"/>
    <path class="cls-23" d="M989.09,124.42c11.13-4.82,17.1-12.24,29.48-8.97,1.02.27,3.44,1.52,4.36,1.88.76.3,1.19.99,1.56,1.64,8.89,15.47,18.43,30.53,23.68,47.4,2.23,7.18,4.14,14.57,3.84,22.17-.27,6.85,1.51,14.39-.53,21.14-1.79,5.92-3.58,11.84-5.37,17.75-.67,2.21-1.38,4.5-3.07,6.32-4.94,5.33-14.54,3.46-20.48-.23-12.75-7.91-19.74-21.16-23.05-34.72-3.32-13.56-3.42-27.75-5.06-41.65-1.13-9.59-2.99-19.07-5.57-28.35"/>
    <path class="cls-32" d="M820.36,168.53c0-.05.02-.08.01-.13,1.87,1.08,14.47-13.98,16.35-15.61,19.8-17.19,28.48-29.53,54.49-32.77,13.58-1.69,29.29,7.93,42.98,7.86,13.13-.07,23.44-11.83,36.33-14.69,4.46-.99,9.19,13.05,6.97,10.33,5.37-2.44,9.51-5.1,9.51-5.1,17.12,6.91,15.89,69.25,17.81,77.19,1.92,7.94,7.11,19.87,7.11,19.87,1.35-3.55,3.13-6.38,3.46-10.07.46-3.28,1.83-7.29,2.29-10.57,2-7.79,12.69-9.92,18.82-7.3l3.49,2.91c9.6,7.22,7.46,38.02,5.01,48.12,3.79,17.91-8.7,31.69-21.06,21.65l-.35,7.54-14.83,41.48c-12.15,23.18-41.53,51.94-69.42,58.99-10,2.53-23.38,6.99-33.96-3.24-10.7-10.34-15.12-16.21-26.19-25.47-10.62-8.88-15.89-14.8-22.94-26.7-7.29-12.31-8.29-15.83-10.77-29.54-1.11-6.13-3.32-15.25-5.43-20.82-2.43-6.44-13.02-31.52-18.07-46.58-5.05-15.06-1.57-47.35-1.57-47.35Z"/>
    <path class="cls-33" d="M1022.48,226.09c1.2-6.83,2.7-13.83,5.7-20.13.73-1.54,1.56-3.06,2.6-4.41.59-.77,1.31-1.53,1.89-1.94.12-.08.24-.16.37-.24.14-.09-.17.16.09-.04s.02-.01-.01,0l-1.03-.08c.99.71,2.1,2.15,2.84,3.34,2.2,3.52,3.06,7.75,3.16,11.85.02,1.05,2.21.65,2.19-.21-.11-4.87-1.21-9.87-4.22-13.82-.88-1.15-2.07-2.92-3.7-2.27-1.02.41-1.91,1.23-2.64,2.03-1.89,2.07-3.21,4.66-4.3,7.23-2.55,6.02-3.99,12.49-5.12,18.9-.17.98,2.04.67,2.19-.21h0Z"/>
    <path class="cls-33" d="M1025.67,227.89c3.08-.99,3.53,4.9,3.76,6.72s.16,6.99,3,6.97c1.66,0,2.44-1.22,2.74-2.68.53-2.5.41-5.18.25-7.71-.22-3.57-.7-6.66-2.06-9.95-1.52-3.66-3.97-7.96-8.28-8.56-.46-.06-1.2.07-1.54.41-.29.29-.32.55.16.61,3.64.51,5.85,4.43,7.2,7.47,1.16,2.61,1.82,5.09,2.12,7.92.29,2.81.49,5.7.23,8.52-.08.86-.17,1.82-.52,2.63-.05.12-.32.47-.32.57l1.13-.26-.11-.04c-.07-.13-.32-.24-.42-.36-.76-.86-.89-2.34-1.05-3.43-.25-1.62-.38-3.26-.67-4.88-.26-1.45-.6-3.13-1.65-4.24s-2.8-1.04-4.2-.59c-.23.07-1.1.34-.97.73s.96.22,1.2.14h0Z"/>
    <path class="cls-33" d="M847.34,198.12s19.94-2.23,35.83-5.32c15.89-3.09,29.91-12.5,29.91-12.5,0,0-17.52,8.36-30.08,10.85-12.55,2.5-35.66,6.96-35.66,6.96Z"/>
    <path class="cls-19" d="M945.74,300.68s-14.35,8.15-26.24,11.99c-11.89,3.84-31.19,6.02-31.19,6.02,0,0-.16-4.93,21.41-11.89,21.57-6.96,36.03-6.13,36.03-6.13Z"/>
    <path class="cls-23" d="M903.98,200.49c16.31-8.68,28.46-12.37,33.58-13.1,4.01-.57,8.11-.47,12.13.15,0,0,11.99,4.89,13.72,6.32,1.73,1.44-6.2.89-6.2.89-1.64.08-2.82-.07-4.45.2-8.93,1.46-17.76,1.85-26.12,5.4-7.16,3-16.07,9.59-22.48,14.02-1.11-2.87-2.24-9.09-3.61-11.83"/>
    <path class="cls-23" d="M825.17,227.08c.06-.27-.23-2.06-.15-2.33,0,0,.12-.29.13-.3,1.62-1.15,3.44-3.1,5.95-4.27,4.4-2.05,15.45-7.57,32.51-9.62.82,2.88,2.88,8.2,3.71,11.07-7.21,0-12.08.67-19.19,2.09-6.67,1.33-15.98,3.68-22.35,6.35-.35-.55.07-.03-.23-.61-.15-.41-.27-.83-.37-1.25-.02-.37-.03-.74-.01-1.12Z"/>
    <path class="cls-31" d="M912.19,307.68c12.61-3.25,35.69-8.14,35.69-8.14,0,0,1.03,29.11-28.2,36.65-29.23,7.54-38.44-21.39-38.44-21.39,0,0,18.34-3.86,30.95-7.12Z"/>
    <path class="cls-11" d="M912.07,307.71c5.99-1.55,31.4-8.26,31.4-8.26,0,0-4.68,19.7-26.36,25.29-23.51,6.07-32.4-10.53-32.4-10.53l27.36-6.51Z"/>
    <path class="cls-9" d="M912.04,308.69c5.99-1.55,23.97-7.28,23.97-7.28,0,0-4.86,8.32-22.84,12.96-17.98,4.64-25.35-.32-25.35-.32l24.22-5.36Z"/>
    <path class="cls-31" d="M880.26,314.29c.6-.32,2.17-.24,4.88-1.44,4.89-2.16,6.74-4.57,10.26-5.78,6.01-2.06,10.54-.62,13.21-1.31,2.67-.69,5.93-4.14,12.2-5.25,3.67-.65,11.94-.03,17.02-.88,3.04-.51,10.14-1.42,10.82-1.42.94,0-2.03,4.24-35.57,12.89-33.54,8.65-33.64,3.63-32.81,3.18Z"/>
    <path class="cls-32" d="M903.08,350.06c.28-.11.54-.27.75-.49,3.89-4.08,3.86-5.87,5.98-6.92.49-.24.71-.49,2.27-1.08,6.26-2.36,10.04-3.92,29.84,3.2.4.15,22.44-7.86,22.87-7.99l10.46-8.19c1.69-1.66,37.23-48.65,37.23-48.65.38-1.39,6.34-12,6.38-13.26.12-.1.24-.21.37-.3.05-.03.15-.11.25-.18.04.07.09.17.12.22.19.49.3,1.02.39,1.54.4,2.24.44,4.53.25,6.81-.28,3.49-.12,6.96-.28,10.44-.05,1.23-.17,2.46-.33,3.67-4.3,4.25-15.98,49.61-43.19,64.78-1.11.58-4.58,2.46-14.29,5.53-18.23,5.75-32.42,14.95-51.91,13.74-5.08-.32-9.7-2.87-12.62-6.88-8.32-11.45-36.33-57.11-43.57-75.38,7.53,9.84,30.15,39.74,41.12,54.1.33.43,6.66,5.43,7.29,5.47"/>
    <path class="cls-15" d="M911.91,308.03c14.56-3.26,37.76-10.34,37.76-10.34,0,0,3.5,35.22-30.26,42.79-33.76,7.57-39.35-25.36-39.35-25.36,0,0,17.28-3.82,31.85-7.09Z"/>
    <path class="cls-11" d="M911.76,308.06c6.92-1.55,30.51-7.97,30.51-7.97,0,0-.44,21.11-25.49,26.73-27.15,6.09-34-12.24-34-12.24l28.98-6.52Z"/>
    <path class="cls-9" d="M911.7,309.21c6.92-1.55,27.72-7.5,27.72-7.5,0,0-5.81,9.63-26.58,14.28-20.77,4.66-29.09-1.56-29.09-1.56l27.95-5.22Z"/>
    <path class="cls-15" d="M875.61,313.8c.69-.35.74-.75,4.11-1.83,5.61-1.8,8.85-4.18,12.93-5.45,6.96-2.16,12.12-.24,15.2-.94s6.93-4.62,14.15-5.64c4.23-.6,14.86-1.32,20.7-2.09,3.51-.46,7.23-2.76,8-2.74,1.08.03.85,8.33-37.89,17.01-38.74,8.69-38.17,2.16-37.21,1.67Z"/>
    <path class="cls-23" d="M910.51,294.19l2.22,6.16c.35.94,1.24,1.56,2.24,1.54,6.87-.14,37.93-7.22,38.13-1.09.03.85,1.56,5.86,1.69,5.81l1.22-2.11c1.29-4.38-1.2-10.39-3.5-10.89-6.99-1.52-13.18-2.39-16.96-2.66-4.73-.34-17.75-.85-23.24.1-1.45.25-2.3,1.76-1.8,3.14Z"/>
    <path class="cls-23" d="M902.82,295.87l1.01,6.47c.15.99-.21,1.95-.9,2.38-4.78,2.98-28.48,10.05-26.09,15.58.33.77.51,4.26.39,4.28l-1.51-.52c-1.85.27-3.33-8.23-1.96-9.71,4.18-4.51,8.07-8.08,10.55-10.03,3.11-2.44,11.84-8.78,16-10.42,1.1-.43,2.3.52,2.52,1.97Z"/>
    <path class="cls-30" d="M929.19,370.97s46.76-12.25,56.31-22.07c9.54-9.82,19.14-25.24,25.48-46.47,0,0-5.22,45.7-29.58,55.97-32.12,13.53-50.7,16.85-50.7,16.85l-1.51-4.27Z"/>
    <path class="cls-1" d="M848.3,241.74c-2.66-.64-5.46,1.1-6.68,2.85-.29.41-.74,1.56-.81,3.23-.1,2.13,1.25,4.18,2.83,5.24,2.11,1.42,4.96,1.05,6.85-.46,2.56-2.05,2.64-5.76,1.31-8.11-.25-.43-1.34-2.23-3.49-2.75"/>
    <path class="cls-1" d="M875.73,242.9s-13.72-6.23-19.74-5.38c-8.79,1.25-18.2,8.6-20.19,13.6,0,0,12.25-10.54,18.47-11.24,5.95-.67,21.47,3.02,21.47,3.02Z"/>
    <path class="cls-1" d="M921.25,224.46c2.06-1.8,5.94-2.4,7.83-1.41.44.23,1.65.91,2.48,2.35,1.07,1.84.83,4.29-.08,5.96-1.22,2.23-3.91,3.23-6.28,2.76-3.22-.64-5.01-3.88-4.91-6.59.02-.49-.67-1.27,1-2.73"/>
    <path class="cls-1" d="M911.16,233.5s10.97-11.44,17.31-13.2c9.26-2.56,21.72.18,25.83,3.89,0,0-16.65-4.45-23.12-2.47-6.19,1.89-20.03,11.77-20.03,11.77Z"/>
    <g>
      <path class="cls-4" d="M896.54,287.64c3.53.91,8.24-.59,10.95-3.28.6-.6,3.04-.72,2.2.12-3.59,3.55-10.42,5.39-14.97,4.22-.45-.12-.45-.44.01-.73.48-.3,1.33-.46,1.81-.33"/>
      <path class="cls-4" d="M910.85,283.26c1.88-1.49,4.13-2.56,6.46-3.29.34-.1.82-.08,1.13.09.24.13.34.36.11.57-.95.88-2.28,1.46-3.56,1.73-.4.09-.96.11-1.27-.18-.28-.27.06-.57.37-.63,1.06-.23,2.09-.68,2.87-1.41.42.22.83.44,1.24.65-2.08.65-4.08,1.63-5.77,2.96-.33.27-.9.28-1.29.15-.29-.09-.64-.37-.3-.64"/>
      <path class="cls-4" d="M920.31,281.37c2.75-.71,5.73-2.67,6.61-5.06,1.33-3.61-1.74-8.12-5.66-9.31-.43-.13-.29-.46.07-.63.47-.22,1.1-.17,1.55-.04,3.42,1.04,6.31,4.66,6.55,7.7.21,2.84-1.99,5.37-5.12,6.94-.93.46-1.94.87-2.97,1.14-.42.11-1.2.16-1.48-.12-.29-.28.07-.52.46-.62"/>
      <path class="cls-4" d="M891.14,287.42c.07-.35-.25-.49-.47-.44-.74.19-1.55.16-2.31-.2-.18.35-.35.71-.52,1.06,1.54-.19,3.15-.05,4.69.53.31.12.66-.09.86-.34.14-.19.25-.58-.05-.7"/>
      <path class="cls-4" d="M893.33,287.33c-1.73-.65-3.53-.78-5.25-.57-.25.03-.54.24-.67.5-.1.21-.07.45.14.56"/>
      <path class="cls-4" d="M885.47,289.13c-1.82.35-4.21-.36-5.58-2.22-2.06-2.82-1.68-6.83.1-9.35.19-.27,0-.53-.27-.55-.35-.03-.69.24-.89.53-1.55,2.2-2.17,5.33-1.19,8.19.91,2.68,3.08,4.2,5.42,4.49.7.09,1.42.09,2.09-.04.27-.05.74-.29.79-.65.06-.36-.22-.45-.48-.4"/>
    </g>
    <path class="cls-23" d="M898.46,367.35c2.76.84,3.73,4.95,5.06,7.15,1.88,3.11,5.29,4.39,8.81,3.45,1.67-.45,3.36-1.42,4.16-3.01.2-.4.33-.84.49-1.26.31-.82.65-.73-.98-.25-1.83.54-1.43.13-.86.63.27.23.54.45.8.69,1.16,1.1,2.21,2.3,3.73,2.91,1.82.72,3.83.75,5.72.29,3.87-.94,7.11-4.44,6.18-8.6-1.73.75-3.46,1.5-5.18,2.25,4.11,2.35,8.8,3.92,13.45,2.14,3.34-1.28,6.85-4.72,5.61-8.61-1.73.75-3.46,1.5-5.18,2.25,3.47,2.52,7.15,4.33,11.54,3.29,2.05-.48,4.02-1.58,5.24-3.32.52-.73.84-1.59,1.16-2.42.16-.41.3-.83.49-1.22.12-.25.5-.65.55-.9.08-.38.37.07-.08-.07-.05-.02-1.41.19-1.39.14,0,.01.4.45.43.49.33.48.52,1.04.77,1.56.69,1.42,1.59,2.41,3.25,2.58,5.08.53,7.62-4.74,10.16-8.22,3.05-4.18,6.1-8.36,9.15-12.54l-5.63.19c-.75,2.21-1.41,4.45-1.94,6.72-.47,1.98-1.92,6.55.48,7.85,1.79.97,4.26.06,5.77-1.05,1.35-.99,2.43-2.25,3.48-3.53,2.47-3.01,4.62-6.29,6.71-9.57,1.36-2.14,2.69-4.3,3.96-6.49.69-1.18-.6-1.84-1.62-1.9-1.27-.07-3.12.45-3.81,1.63-2.65,4.56-5.47,9.07-8.58,13.34-.98,1.34-1.75,2.36-2.7,3.41-.4.44-.84.85-1.27,1.26-.49.46.32-.23-.1.07-.03.02-.26.16-.26.16-.05-.1.88-.38.88-.39.99-.27,1.76,0,2.28.22-.18-.08.07.03.07.16,0-.09-.1-.21-.11-.3-.1-.69-.12-.63-.09-1.16.07-1.4.37-2.79.68-4.15.54-2.34,1.22-4.67,2-6.95.4-1.16-1.5-1.45-2.18-1.43-1.29.05-2.66.55-3.44,1.62-3.1,4.25-6.2,8.5-9.3,12.74l-2.32,3.19c-.39.53-.75,1.09-1.16,1.59-.08.13-.18.26-.29.36-.86.75-.15.65,2.13-.29.06,0,.11.02.15.06-.11-.11-.21-.23-.3-.37-.16-.24-.27-.5-.4-.76-.33-.71-.63-1.46-1.11-2.09-1.51-1.98-4.43-1.77-6.5-.91-2.31.97-3.52,2.77-4.39,5.01-.32.81-.66,1.52-1.14,2.24-.1.15-.47.26-.09.14-.32.1-.73.07-1.07.02-2.02-.31-3.87-1.83-5.47-2.99-1.21-.88-5.83.23-5.18,2.25.32,1,.24,1.93-.29,2.84-.25.42-.57.8-.96,1.1-.11.09-.66.34-.49.29-.55.17-2.03-.08-2.93-.36-1.41-.44-2.74-1.18-4.02-1.91s-5.67.1-5.18,2.25c.26,1.16.08,3.21-1.15,3.86.35-.19-.29-.06-.58-.15-.7-.2-1.2-.7-1.71-1.19-1.2-1.17-2.41-2.54-4.09-2.99-2.16-.58-4.92.26-6.25,2.09-.43.59-.79,1.42-.95,2.14-.17.81-.22.13,0,.25.23-.13.49-.2.76-.22.23.02.17.02-.18,0-.3-.18-.88-.33-1.27-.65-.66-.55-1.17-1.32-1.59-2.06-1.87-3.25-2.84-6.78-6.83-7.99-1.31-.4-3.14.15-4.1,1.1s-.59,1.89.6,2.25h0Z"/>
    <path class="cls-5" d="M1044.47,152.77s-101.6-73.66-213.52-15.78l23.08-65.09s43.7-24.86,104.71-17.22c61.02,7.64,72.31,34.44,72.31,34.44l13.42,63.66Z"/>
    <path class="cls-22" d="M1036.89,112.01c-5.71-3.12-11.59-5.94-17.49-8.68-13-6.02-26.34-11.42-40.02-15.7-7.43-2.33-14.98-4.32-22.65-5.73-7.66-1.41-15.34-2.04-23.13-2.03-17.82.02-35.71,2.4-53.07,6.35-7.25,1.65-14.46,3.6-21.48,6.08-4.58,1.62-9.32,3.39-13.39,6.1-.64.42-1.25.88-1.82,1.39-.28.25.33.33.52.16,3.24-2.87,7.68-4.55,11.65-6.09,6.5-2.52,13.23-4.46,19.99-6.14,16.92-4.21,34.36-6.8,51.79-7.33,8.13-.25,16.24-.02,24.29,1.19,7.72,1.16,15.33,3,22.82,5.2,13.85,4.06,27.33,9.35,40.48,15.28,4.73,2.13,9.43,4.36,14.07,6.69,2.23,1.12,4.41,2.39,6.67,3.45.1.05.19.1.29.16.22.12.78-.18.49-.35h0Z"/>
    <path class="cls-22" d="M1037.56,123.14c-2.24.27-4.42.82-6.5,1.7-1.84.78-4.04,1.81-5.38,3.34-.79.9-1.17,2.51.34,2.87.56.13,1.78-.04,1.72-.86-.05-.7-1.31-1.36-1.81-1.84-.85-.83-1.66-1.71-2.41-2.63-1.54-1.88-2.87-3.93-3.95-6.11-.5-1.01-.94-2.04-1.33-3.1-.18-.5-.35-1-.51-1.5-.07-.24-.19-.52-.23-.76l-.11-.38c.7-1.01,1.24-1.1,1.62-.25.68,1.59-1.33,2.58-2.54,2.84-1.48.32-2.99.53-4.48.78s-3.05.53-4.57.79c-1.08.19-2.2.32-3.21.76-1.56.68-2.84,2.46-1.75,4.1.11.17.52.07.58-.11,1.27-3.59-.19-7.08-1.69-10.35-.8-1.74-1.83-3.56-2.26-5.44-.1-.46-.4-3.49.04-3.5.14,0,.44.6.51.73.18.3.42.55.28.87s-1.05.64-1.35.8c-.43.23-.87.43-1.32.62-1.74.73-3.58,1.19-5.41,1.63-3.26.78-6.64,1.46-9.54,3.23-1.02.62-3.2,1.93-2.68,3.43.32.93,1.51,1.09,2.14.44.03-.03.08-.11.05-.16-1.39-3.28-2.78-6.57-4.17-9.85-.68-1.6-1.36-3.21-2.04-4.81-.36-.84-.71-1.68-1.07-2.52-.26-.62-.75-1.5-.66-2.2.09-.63.93-.9,1.42-.41.27.27.37.77.31,1.14-.14.95-1.08,1.61-1.81,2.11-1.42.98-2.87,1.92-4.3,2.87-3.05,2.03-6.09,4.06-9.14,6.1-.35.24.17.41.41.25,2.42-1.62,4.85-3.23,7.27-4.85,2.24-1.5,4.64-2.88,6.77-4.55,1.1-.86,2.19-2.51.77-3.66-.73-.59-1.82-.41-2.21.48-.3.7,0,1.54.25,2.19.54,1.39,1.17,2.75,1.75,4.12,1.13,2.67,2.27,5.34,3.4,8.02.55,1.3,1.1,2.6,1.65,3.89.16.37.93,1.5.27,1.7-.39.12-.42-1.24-.46-1.06.16-.67.78-1.22,1.29-1.62,1.79-1.39,3.94-2.21,6.09-2.83,4.43-1.27,9.16-1.79,13.04-4.48.05-.04.15-.13.11-.21-.28-.58-1.1-2.57-2.03-1.96-.86.56-.44,3.19-.27,4.04.52,2.54,2.06,4.95,3.06,7.32,1.14,2.68,1.96,5.56.95,8.41l.58-.11c-.91-1.37.11-2.92,1.44-3.5,1.26-.55,2.74-.65,4.08-.88,2.52-.44,5.06-.84,7.58-1.31,1.35-.25,2.92-.7,3.45-2.13.38-1.02-.04-2.15-1.19-2.28-.86-.1-1.78.39-1.68,1.32.21,1.91,1.31,4.06,2.14,5.76,1.8,3.7,4.3,7.07,7.37,9.82.1.09.26.19.34.3l.3.26c-.01.6-.2.81-.57.62-.94-.12-.72-1.33-.39-1.87.74-1.23,2.49-2.1,3.71-2.74,2.46-1.3,5.13-2.1,7.89-2.43.33-.04.49-.47.07-.42h0Z"/>
    <path class="cls-22" d="M959.86,107.58c-1.22-.02-2.98.77-3.86,1.59-1.08,1.01.45,2.03,1.54,1.75,2.24-.58-3.04-7.63-3.57-8.38-1.5-2.14-3.08-4.23-4.74-6.26-1.08-1.32-2.37-2.9-1.86-4.73.21-.76.45-1,1.25-1.21.73-.2,1.3-.14,1.64.63.61,1.4-1.42,2-2.37,2.43-3.64,1.68-7.36,3.25-10.95,5.04-2.05,1.02-4.19,2.39-5.65,4.19-.46.56-.97,1.31-.86,2.08.07.47.5,1.16,1.03,1.18s1.18-.63,1.32-1.12c.23-.76-.19-1.58-.57-2.21-2.27-3.83-6.44-5.93-9.56-8.94-.8-.77-1.6-1.62-2.12-2.61-.35-.66-.87-2.31.04-2.83.78-.44,1.35,1.07,1.23,1.67-.19.94-.98,1.74-1.64,2.38-3.53,3.43-8.86,5.08-11.77,9.11-.79,1.1-2.74,3.3-2.07,4.78.39.87,2.5,1.28,2.55,0,.03-.65-.64-1.36-1.03-1.81-.72-.84-1.56-1.59-2.39-2.31-2.14-1.84-4.75-3.27-6.56-5.46-1.18-1.43-1.9-3.09-1.57-4.96l-.42.25c1.26.13.76,1.89.4,2.58-.57,1.09-1.76,1.9-2.72,2.64-2,1.53-4.19,2.79-6.15,4.37-2.29,1.85-4.4,4.7-5.43,7.47-.21.57-.59,1.59.03,2.05.52.38,1.9.14,2.2-.46.42-.86-1-1.84-1.54-2.26-1.5-1.15-3.22-1.92-4.93-2.68-2.42-1.08-4.62-2.3-6.49-4.19-1.47-1.48-3.52-3.94-2.14-6.07l-.59.1c1.35,1.51.6,3.66-.23,5.25-1.09,2.08-2.69,3.78-4.49,5.27-3.08,2.54-6.52,5.79-6.22,10.13,0,.12.09.2.21.21.74.05,1.32-.33,1.56-1.06.34-1.07-.47-1.89-1.33-2.38-1.57-.88-3.4-1.44-5.07-2.12-1.48-.6-4.03-1.18-4.57-2.91-.29-.92-.16-2.07-.06-3.01.05-.5.11-1.09.32-1.55.17-.36.03-.18.09.06.09.36.14.72.16,1.09.13,2.81-1.39,5.62-2.91,7.89-1.88,2.81-4.25,5.38-6.99,7.37-.34.25.16.47.42.29,3.7-2.69,6.99-6.5,8.92-10.67.8-1.73,1.42-3.71,1.13-5.64-.07-.46-.09-1.09-.67-1.1-.41,0-.63.38-.77.71-.53,1.24-.6,3.19-.31,4.5.5,2.23,3.75,2.92,5.53,3.65,1.36.55,2.77,1.03,4.09,1.68.74.36,1.6.97,1.46,1.9l-.27.62c-.34.15-.45.04-.33-.33-.06-.29.05-.79.1-1.08.5-2.98,2.86-5.34,5.05-7.23,2.07-1.79,4.03-3.49,5.39-5.92.97-1.74,1.88-4.2.37-5.9-.16-.18-.47-.08-.59.1-1.79,2.77,1.54,6,3.49,7.64,3.04,2.56,7.06,3.34,10.19,5.74.4.31,1.28.86,1.37,1.4s-.91.86-1.19.41c-.12-.19-.03-.53,0-.73.25-1.42,1.22-2.84,2.01-4.01.89-1.31,1.89-2.62,3.09-3.66,1.69-1.46,3.64-2.6,5.46-3.89,1.49-1.06,3.53-2.32,4.17-4.13.37-1.05.35-2.46-1-2.6-.17-.02-.39.07-.42.25-.72,4.13,3.12,6.73,5.98,8.88,1.39,1.05,2.76,2.16,3.98,3.41.46.47.94.96,1.28,1.53.1.16.32.45.29.65-.08.59-1,.28-1.24-.09-.74-1.12,1.1-3.31,1.68-4.14,1.28-1.81,2.94-3.05,4.78-4.25,2.4-1.56,4.91-3.03,7.01-4.99,1.67-1.56,3.13-3.83.43-5.15-.11-.05-.3,0-.39.07-3.79,3.33,3.75,8.26,5.99,9.97,2.02,1.54,4.36,3.47,5.43,5.83.24.53.47,1.19.06,1.7-.58.73-.99-.3-.9-.86.2-1.36,1.8-2.53,2.81-3.3,3.19-2.43,7.1-3.83,10.71-5.49,1.12-.51,2.23-1.03,3.35-1.54.81-.37,1.85-.69,2.51-1.32.81-.77.7-1.87-.19-2.53-.83-.62-1.91-.56-2.68.11-1.09.94-1.18,2.57-.67,3.82.59,1.45,1.76,2.62,2.73,3.83.96,1.21,1.89,2.45,2.8,3.7,1.05,1.45,2.07,2.92,3.01,4.43.71,1.13,1.49,2.34,1.88,3.63.12.38.28.77-.09.87-.25.07-1.03-.27-1.06-.56-.03-.26.26-.43.44-.58.76-.61,2.17-1.25,3.17-1.24.36,0,.48-.46.05-.46h0Z"/>
  </g>
  <g id="Layer_7" data-name="Layer 7">
    <path class="cls-17" d="M429.15,666.03h0c-.38,5.76,5.17,10.62,10.62,10.62,6.01,0,10.25-4.9,10.62-10.62.82-12.46.78-96.26-.22-108.71-.54-6.68-1.34-13.36-2.36-19.99-.76-4.95-1.98-9.97-4.61-14.3-6.62-10.92-18.6-12.82-30.35-12.08-12.58.8-25.12,2.34-37.55,4.43-5.69.95-8.82,7.98-7.42,13.07,1.63,5.93,7.42,8.37,13.07,7.42,9.88-1.66,19.72-2.82,29.81-3.53,2.27-.16,4.54-.33,6.81-.37,1.12-.02,2.23.02,3.34.07,1.83.07-.03-.12.98.14.53.11,1.05.24,1.56.41-.71-.38-.73-.4-.08-.06.46.23,2.02,1.32.89.5.78.85.95,1.02.52.51-.41-.52-.3-.3.34.65.8,1.61.07-.18.42.86,2.97,8.75,3.24,18.86,3.77,28,.61,10.55.52,92.43-.18,102.97h0Z"/>
    <g>
      <path class="cls-17" d="M103.91,665.79h0c-.38,5.76,5.17,10.62,10.62,10.62,6.01,0,10.25-4.9,10.62-10.62.82-12.46.78-96.26-.22-108.71-.54-6.68-1.34-13.36-2.36-19.99-.76-4.95-1.98-9.97-4.61-14.3-6.62-10.92-18.6-12.82-30.35-12.08-12.58.8-25.12,2.34-37.55,4.43-5.69.95-8.82,7.98-7.42,13.07,1.63,5.93,7.42,8.37,13.07,7.42,9.88-1.66,19.72-2.82,29.81-3.53,2.27-.16,4.54-.33,6.81-.37,1.12-.02,2.23.02,3.34.07,1.83.07-.03-.12.98.14.53.11,1.05.24,1.56.41-.71-.38-.73-.4-.08-.06.46.23,2.02,1.32.89.5.78.85.95,1.02.52.51-.41-.52-.3-.3.34.65.8,1.61.07-.18.42.86,2.97,8.75,3.24,18.86,3.77,28,.61,10.55.52,92.43-.18,102.97h0Z"/>
      <path class="cls-24" d="M459.65,611.49s-363.72-7.11-363.69,11.94c.02,14.38,6.04,291.61,0,306.49h374.82"/>
    </g>
    <path class="cls-14" d="M375.79,714.18c9.78,2.61,19.76,4.43,29.84,5.44,9.95,1.81,20.03,2.82,30.14,3.02-9.77-2.63-19.73-4.45-29.8-5.46-9.96-1.81-20.05-2.82-30.18-3Z"/>
    <path class="cls-14" d="M380.35,700.7c0,.67,13.19,1.43,29.34,3.44,16.15,2,29.18,4.34,29.33,3.65-9.38-3.25-19.12-5.31-29.01-6.12-9.8-1.6-19.77-1.93-29.66-.96Z"/>
    <path class="cls-24" d="M92.01,510.57s-8.54,15.12.32,21.17l-52.79,6.81s-9.19-9.68-4.87-20.49c4.33-10.82,57.33-7.48,57.33-7.48Z"/>
    <path class="cls-32" d="M374.47,530.87c-.78-9.56-3-19.92-5.33-25.34-.71-4.36-1.57-9.42-2.64-15.51-.31-1.77-.66-3.46-1.01-5.13-.26-.84-.45-1.7-.57-2.57-6.76-29.4-19.55-42.97-19.55-42.97-16.31-17.16-40.48-24.33-63.48-18.83-27.18,5.9-48.56,27.31-58.13,46.52-4.76,9.51-5.85,20.46-3.05,30.72,2.37,8.78,6.4,18.37,10.69,27.57-9.62,1.43-18.3,6.68-11.39,23.57,9.53,23.3,26.64,27.76,32.68,19.66,1.75-.03,6.56,6.65,7.95,11.63,2.66,9.54,3.64,24.82.53,34.22l2.8,4.71c27.07,29.14,63.15,54.36,122.77-1.45l-42.11-13.82-2.3-10.85c2.6-.7,5.05-2.05,7.58-3.07,10.38-4.2,16.27-13.03,20.15-23.02,3.28-8.46,4.57-25.2,4.48-34.35,0-.56-.03-1.13-.07-1.69Z"/>
    <path class="cls-26" d="M342.2,593.07s-25.58,7.18-51.98-3.65c0,0,4.36,7.26,22.15,9.89,17.8,2.63,30.66-2.02,30.66-2.02l-.83-4.21Z"/>
    <ellipse cx="356.31" cy="500.17" rx="5.93" ry="5.91" transform="translate(-159.66 833.19) rotate(-87.37)"/>
    <path d="M362.22,493.97c-3.11-1.22-7.15-1.63-12.67-.04-8.84,2.54-10.74,14.62-10.74,14.62,0,0,3.12-9.54,11.78-12.27,4.18-1.31,11.69-.17,15.27.86-.25-.84-1.76-2.33-3.65-3.16Z"/>
    <path class="cls-14" d="M228.01,548.47c-1.18-2.05-2.04-4.39-2.02-6.78,0-.63.06-1.26.2-1.87.04-.18.12-.36.14-.54.02-.12-.06.15.01-.03l-.85.59c.2-.06-.41.06-.09.02s-.2-.02,0,0c.12.01.23.02.35.03.07,0,.14.02.21.03-.31-.05-.01,0,.05.01.19.05.38.1.56.16.5.16.89.34,1.34.56,4.15,2.12,7.52,5.8,10.55,9.25.62-.35,1.23-.7,1.85-1.06-1.2-.56-2.63-.9-3.93-.53-1.73.49-2.26,2.05-2.09,3.68.16,1.48.93,2.83,2.09,3.76,1.73,1.39,4.09,1.61,6.22,1.42.44-.04,1.16-.32,1.21-.83s-.58-.67-.98-.63c-2.72.25-5.55-.71-6.24-3.62-.12-.49-.35-2.08.17-2.41.26-.17.86.03,1.14.11.21.06.41.13.61.2.09.03.44.2.12.04.46.22.99.17,1.43-.08.3-.17.73-.61.41-.97-2.31-2.63-4.76-5.18-7.52-7.33-1.43-1.12-2.97-2.14-4.68-2.79-.82-.31-1.72-.54-2.6-.46-.23.02-.45.06-.66.14-.72.26-.85.83-1,1.49-.72,3.23.42,6.6,2.02,9.38.44.77,2.53,0,2-.92h0Z"/>
    <ellipse cx="296.06" cy="512.54" rx="5.93" ry="5.91" transform="translate(-229.5 784.81) rotate(-87.37)"/>
    <path d="M313.09,513.2s-11.03-10.09-20.77-7.36c-13.71,3.83-15.02,10.08-16.85,15.08,0,0,6.93-10.07,17.6-12.77,9.68-2.45,20.02,5.06,20.02,5.06Z"/>
    <path class="cls-20" d="M336.28,551.78c-8.09,1.56-23.53,2.51-23.53,2.51,0,0,4.9,23.75,27.26,19.06,18.69-3.91,15.44-25.81,15.44-25.81,0,0-11.09,2.68-19.17,4.23Z"/>
    <path d="M336.58,551.72c-3.87.74-18.31,3.36-18.31,3.36,0,0,5.33,12.59,19.32,9.9,15.18-2.92,15.7-15.58,15.7-15.58l-16.71,2.32Z"/>
    <path class="cls-28" d="M337.59,553.42c-3.97.76-16.19,2.44-16.19,2.44,0,0,5.38,2.36,17.3.07,11.92-2.29,14.7-6.1,14.7-6.1l-15.81,3.59Z"/>
    <path class="cls-20" d="M356.71,547.16c-.08-.43-.98-.45-2.98-.24-3.34.36-4.64-.61-7.06-.33-4.13.48-6.41,2.53-8.18,2.87-1.77.34-4.65-.71-8.66.37-2.35.63-8.09,2.6-11.32,3.51-1.94.54-7.53-.19-7.93,0-.56.25,4.98,5.83,27.21,1.55,22.23-4.28,19.03-7.15,18.93-7.73Z"/>
    <path class="cls-8" d="M307.53,490.12c-.01-.21-.72-.13-.74-.34-11.39-1.12-19.8-.12-22.79.91-2.27.79-4.39,2.06-6.35,3.66,0,0-5.43,4.31-5.96,5.79-.53,1.48,3.5-1.21,3.5-1.21.89-.42,1.47-.87,2.4-1.17,5.09-1.63,9.85-3.95,15.19-4,4.57-.07,11.02,1.79,15.57,2.92-.18-2.27-.83-4.29-.83-6.56Z"/>
    <path class="cls-8" d="M333.15,486.88c-.06-.2.54-.36.48-.56,8.85-4.8,16.01-6.64,18.79-6.65,2.11,0,4.27.48,6.41,1.33,0,0,5.88,2.25,6.82,3.46.94,1.21-3.26.02-3.26.02-.87-.11-1.49-.33-2.34-.3-4.69.15-9.34-.46-13.69,1.26-3.73,1.44-8.32,5.31-11.62,7.86-.64-2.18-.81-4.3-1.58-6.42Z"/>
    <g>
      <path d="M348.77,442.91c-12.05-26.54-33.84-33.27-61.96-30.34-24.26,2.53-47.87,4.7-66.25,24.87-3.02,3.36-13,13.93-15.91,22.26-10.07,28.89,1.9,53.67,12.69,73.33.39-.27.77-.54,1.16-.81,2.36-1.23,4.86-1.79,7.52-1.68,1.86-.13,3.78.36,5.57.77,1.78.41,3.58,1.35,5.1,2.23,3.33,1.91,5.5,4.8,7.5,7.97.08.14.11.29.18.43,2.49.33-.57-1.99,1.3-3.95,1.74-1.82,2.11-4.44,2.05-6.86-.11-4.94-1.87-9.6-2.99-14.36-1-2.53-2.06-5.04-3.24-7.5-4.89-10.33-1.84-17.56-1.36-27.55,0,0,1.86-14.9,16.11-26.52,15.61-12.7,25.2-2.33,46.91-7.19,18.74-4.28,18.73-16.44,33.65-11.23,0,0,4.59.38,6.64,2.01,2.05,1.63,5.32,4.13,5.32,4.13Z"/>
      <path class="cls-21" d="M349.09,442.83c-3.17-6.93-7.39-13.42-13.07-18.56-5.05-4.57-11.1-7.87-17.61-9.86-6.89-2.1-14.14-2.78-21.32-2.69-8.61.12-17.29,1.24-25.81,2.4-8.31,1.13-16.6,2.72-24.5,5.61-8.18,2.99-15.74,7.42-22.17,13.31-5.42,4.96-10.41,10.8-14.69,16.76-2.25,3.13-4.37,6.44-5.63,10.1-1.69,4.88-2.84,9.95-3.38,15.09-1.95,18.68,4.67,36.45,13.22,52.72.96,1.83,1.95,3.65,2.94,5.46.09.16.39.07.49,0,4.64-3.26,11.25-3.06,16.31-.81,2.26,1.01,4.39,2.34,6.13,4.11,1.5,1.53,3.26,3.54,4.07,5.55.04.09.11.13.2.14.62.06,1.4.05,1.46-.72.03-.4-.2-.84-.28-1.23-.22-1.14.2-1.72.88-2.59,2.4-3.05,1.88-7.59,1.2-11.14-.88-4.62-2.18-9.27-4.03-13.58-1.82-4.24-3.82-8.19-4.29-12.85-.4-3.94.14-7.88.62-11.79.29-2.38.3-4.84.72-7.2.76-4.22,2.42-8.33,4.48-12.07,3.76-6.84,9.42-13.19,16.28-17.02,5.45-3.05,11.31-3.44,17.41-3.01,6.65.47,13.21,1.03,19.85.08,6.88-.98,13.24-3.26,18.97-7.19,3.86-2.65,7.56-6.07,12.51-6.15,2.6-.04,4.89,1.03,7.4,1.36,1.42.19,2.86.48,4.2,1.02,1.62.66,2.95,1.96,4.32,3.02.85.66,1.71,1.32,2.56,1.97.21.16.77-.14.49-.35-1.09-.84-2.18-1.68-3.27-2.52-1.43-1.11-2.71-2.22-4.45-2.8-1.34-.44-2.71-.6-4.09-.84s-2.78-.83-4.21-1.07c-2.51-.43-5.04-.26-7.42.69s-4.36,2.47-6.38,3.93c-2.75,1.98-5.56,3.84-8.66,5.22-4.37,1.95-9.11,3-13.86,3.51-4.08.44-8.17.38-12.26.09-3.28-.23-6.55-.59-9.83-.61-3.08-.01-6.17.33-9.1,1.32-3.61,1.21-6.86,3.26-9.78,5.68-6.1,5.06-10.92,11.63-13.8,19.02-.77,1.97-1.41,4-1.85,6.08-.46,2.2-.45,4.47-.71,6.7-.51,4.35-1.19,8.7-.76,13.09.54,5.37,3.11,9.94,5.12,14.84,1,2.43,1.57,5.02,2.25,7.56.72,2.71,1.36,5.47,1.45,8.29.09,2.6-.36,4.91-1.99,6.98-.38.49-.67.97-.7,1.6s.31,1.18.32,1.77c.02,1.2-.89-.42-1.1-.74-.65-.99-1.33-1.96-2.08-2.88-1.39-1.7-3.02-3.18-4.93-4.3-4.16-2.43-9.1-3.63-13.91-2.87-2.17.34-4.09,1.15-5.88,2.4h.49c-8.53-15.55-16.21-32.14-16.45-50.22-.06-4.82.4-9.65,1.39-14.37s2.22-9.07,4.5-13.13c3.54-6.29,8.41-11.75,13.24-17.08,5.83-6.44,12.7-11.71,20.57-15.44,7.7-3.64,16-5.78,24.37-7.19,8.3-1.4,16.75-2.37,25.14-3,7.46-.56,15.05-.45,22.4,1.03,6.66,1.34,13.07,3.87,18.62,7.81,5.9,4.19,10.61,9.81,14.18,16.07,1.04,1.83,1.99,3.71,2.87,5.62.12.27.74.08.63-.17Z"/>
    </g>
    <g>
      <path class="cls-4" d="M338.85,540.2c-1.71,1.47-4.74,1.9-6.97,1.13-.5-.17-1.89.42-1.19.66,2.95,1.02,7.25.2,9.46-1.69.22-.19.13-.37-.2-.4-.35-.04-.86.1-1.09.3"/>
      <path class="cls-4" d="M329.71,541.63c-1.45-.32-2.99-.32-4.48-.1-.22.03-.48.18-.6.35-.1.14-.09.29.09.35.76.24,1.66.2,2.45,0,.25-.06.56-.2.65-.44.09-.23-.18-.3-.38-.25-.65.16-1.35.18-1.98-.01-.17.23-.34.47-.51.7,1.33-.2,2.71-.19,4,.1.26.06.58-.09.76-.26.13-.13.25-.38,0-.44"/>
      <path class="cls-4" d="M323.94,543.13c-1.72.35-3.9.06-5.04-1.04-1.71-1.66-1.26-5.21.6-6.95.2-.19.04-.34-.21-.33-.32,0-.66.2-.87.4-1.62,1.51-2.22,4.52-1.53,6.28.65,1.65,2.56,2.47,4.72,2.5.64,0,1.31-.04,1.96-.17.26-.05.71-.24.79-.47.08-.24-.18-.27-.42-.22"/>
      <path class="cls-4" d="M341.79,538.62c-.14-.18,0-.34.14-.37.47-.09.91-.33,1.23-.74.19.15.38.3.58.45-.9.31-1.76.83-2.46,1.57-.14.15-.39.13-.57.04-.13-.07-.3-.26-.16-.41"/>
      <path class="cls-4" d="M340.55,539.16c.79-.83,1.75-1.4,2.76-1.74.15-.05.36-.01.51.1.11.09.16.23.07.35"/>
      <path class="cls-4" d="M345.4,538.04c1.1-.3,2.24-1.34,2.5-2.76.39-2.14-.91-4.28-2.58-5.21-.18-.1-.14-.3,0-.38.19-.11.45-.05.64.05,1.46.81,2.64,2.4,2.87,4.27.22,1.75-.58,3.19-1.8,3.99-.36.24-.76.43-1.18.54-.17.04-.49.04-.62-.15-.13-.19,0-.31.16-.35"/>
    </g>
    <path class="cls-32" d="M434.4,683.18l2.53,4.53c-11.07-19.71-39.28-53.44-52.7-53.83,0,0-16.52,16.02-19.6,36.07-3.07,19.99,5.23,34.3,31.15,74.28l22.06,34.67c19.48,30.85,32.74,45.86,37.5,51.66,21,25.61,118.03,82.33,118.03,82.33l11.4-25.87s-68.28-70.34-93.68-92.53l-56.69-111.31Z"/>
    <path class="cls-2" d="M345.66,604.41c10.53,3.2,47.16,12.56,53.35,16.38,43.79,27,57.2,82.66,71.77,113.2-8.67,18.77-53.45,28.79-53.45,28.79,0,0-.83,26.8-.13,51.91.48,1.36,1.64,23.93,2.12,26.53-28.93,4.4-36.24,6.27-65.25,5.81-23.68-.37-38.02,14.14-61.23,8.94-17.03-3.81-67.76-2.63-85.01-4.83,1.98-2.93-2.74-3.57-1.91-9.11,3.9-26.03,7.63-66.39-3.92-89.65-5.35-10.79,15.69-23.97,12.06-26.4,0,0-46.47-67.59-3.02-101.49,12.63-9.86,32.66-20.17,51.18-25.93,0,0,21.14,38.48,60.81,37.92,33.54-.48,22.62-32.04,22.62-32.04Z"/>
    <path class="cls-25" d="M416.23,675.06c.91,11.75.81,23.62.99,35.39.22,14.01.36,28.03.48,42.04.02,3.04.05,6.09.07,9.13,0,.69,1.46.43,1.46-.14-.05-8.51-.13-17.02-.22-25.52-.16-15.02-.33-30.05-.7-45.07-.13-5.4-.21-10.83-.63-16.22-.04-.57-1.5-.25-1.45.39h0Z"/>
    <path class="cls-17" d="M281.71,843.66c-.6-5.9-1.49-11.8-2.63-17.65-.85-4.37-2.2-8.81-5.13-12.63-6.05-7.92-18.86-10.04-29.53-10.91-12.07-.99-64-.79-85.19-.45-12.01-.33-24.05-.52-36.01.45-10.67.87-23.47,2.99-29.53,10.91-2.92,3.82-4.28,8.26-5.13,12.63-1.14,5.85-2.03,11.75-2.63,17.65-.04.44-.09,16.79-.13,17.42,7.75-.18,15.88-.48,23.57.41.5-7.24,1.08-30.71,3.99-37.49.06-.13.05-.13.07-.17.03-.02.12-.13.4-.58,1.41-1.68,3.81-1.82,6.29-1.9,10.89-.39,21.8-.62,32.7-.77,1.89,0,3.78-.04,5.62-.07,2.52.04,5.17.15,7.71.03,19.65.15,70.58.42,81.38.81,2.49.09,4.88.22,6.29,1.9.29.45.37.56.4.58.02.04.01.04.07.17,3.31,7.73,3.61,16.66,4.2,24.73.68,9.31.58,81.63-.2,90.94-.42,5.08,5.75,9.38,11.83,9.38,6.7,0,11.41-4.33,11.83-9.38.92-11,.87-85.02-.24-96.01Z"/>
    <path class="cls-24" d="M77.89,988.46s-8.17-105.73,0-125.7c18.08-9.56,205.49-1.72,218.47,12.01,16.33,20.92,15.59,124.32,15.59,124.32l-234.05-10.63Z"/>
    <path class="cls-32" d="M149.56,1054.65c-4.81-5.67-10.1-11.04-15.84-16.07l-4.81-18.52,3.78-8.88,5.53.27s-.64,23.74,3.58,28.06c4.22,4.31,6.56,4.46,6.56,4.46l4.29-5.15-3-35.3s-3.98-15.21-5.45-18.74c-1.88-3.43-4.08-6.73-6.57-9.88l.27-17.53-31.65.16c.79,4.87,1.23,13.02,2.5,18.59l-5.77,37.01,8.21,16.63,10.99,15.03,28.06,17.81s4.31-1.43-.68-7.96Z"/>
    <path class="cls-12" d="M478.16,1068.32c-.34-15.35-2.92-30.62-4.91-45.82-1-7.61-1.96-15.23-2.52-22.88-.28-3.71-.32-7.42-.52-11.14-.25-4.61-.86-9.19-1.66-13.73-.8-4.58-1.8-9.12-2.77-13.67s-1.61-8.73-2.61-13.03c-.79-3.4-2.16-6.73-3.78-9.82-1.17-2.24-2.55-4.76-4.68-6.23-1.98-1.36-4.2-2.39-6.35-3.42-2.69-1.28-5.41-2.48-8.14-3.65-6.22-2.67-12.47-5.27-18.83-7.57-14.25-5.16-28.93-8.98-43.03-14.58-2.2-.87-4.38-1.78-6.55-2.7-.17-.07-.83.2-.59.3,7.68,3.27,15.49,6.18,23.42,8.76,6.76,2.2,13.58,4.21,20.32,6.48,7.22,2.44,14.29,5.23,21.32,8.19,5.07,2.14,10.19,4.26,15.04,6.85,1.91,1.02,3.58,2.03,4.9,3.78,2.18,2.9,3.75,6.32,4.99,9.71,1.33,3.64,1.86,7.44,2.63,11.22.91,4.52,1.93,9.01,2.85,13.53.91,4.48,1.73,8.98,2.27,13.52.5,4.19.58,8.38.78,12.59.34,7.4,1.18,14.77,2.1,22.12,1.93,15.45,4.54,30.88,5.43,46.45.09,1.64.16,3.29.2,4.94,0,.15.73.03.72-.19h0Z"/>
    <path class="cls-25" d="M261.5,598.73c2.56,4.47,5.79,8.63,9.13,12.52,7.1,8.28,15.62,15.6,25.5,20.36,11.62,5.59,25.44,7.17,37.83,3.21,4.36-1.39,8.62-3.66,11.41-7.4,2.14-2.86,3.17-6.34,3.29-9.88.1-3.07-.4-6.13-1.27-9.06-.33-1.11-.72-2.21-1.15-3.29-.24-.58-.45-1.33-.82-1.85-.05-.07-.08-.17-.13-.25l-1.31.53c3.29,1.22,6.58,2.43,9.87,3.65.48.18,1.13.3,1.57.58-.09-.06-.09-.17.01.12.25.74.55,1.45.79,2.2,2.28,7.25,2.28,15.61-2.04,22.14-3.61,5.46-9.45,8.59-15.49,10.68-7.95,2.75-16.48,3.62-24.83,2.71-16.07-1.76-30.39-9.58-42.74-19.66-5.6-4.57-10.94-9.48-15.88-14.75-1.54-1.64-3.04-3.32-4.49-5.04-.77-.92-1.45-1.98-2.28-2.84-.1-.11-.19-.25-.28-.37l-.59.61c4.91-1.58,9.81-3.17,14.72-4.75.84-.27.69-.94-.18-.66-4.91,1.58-9.81,3.17-14.72,4.75-.2.06-.82.29-.59.61,1.51,2.08,3.22,4.03,4.93,5.95,4.61,5.15,9.61,9.94,14.86,14.43,12.41,10.62,26.5,19.3,42.85,22,7.97,1.32,16.17,1.12,24.04-.75,6.84-1.63,14.02-4.3,19.09-9.36,6.33-6.31,7.7-15.35,5.69-23.79-.29-1.2-.64-2.39-1.06-3.55-.15-.4-.27-1.01-.6-1.29-.28-.23-.89-.33-1.22-.45-.97-.36-1.94-.72-2.91-1.08-2.07-.77-4.14-1.53-6.21-2.3-.38-.14-.77-.28-1.15-.43-.22-.08-1.54.09-1.31.53,1.82,3.46,2.93,7.51,3.29,11.39.3,3.29-.05,6.68-1.42,9.72-1.72,3.81-4.99,6.6-8.74,8.33-5.8,2.67-12.62,3.47-18.95,3.27-6.3-.19-12.51-1.68-18.31-4.15-10.01-4.27-18.67-11.28-25.93-19.29-2.64-2.91-5.11-5.98-7.39-9.18-1.15-1.62-2.11-3.4-3.3-4.99-.05-.07-.1-.16-.14-.24-.26-.46-1.65.04-1.45.39Z"/>
    <path class="cls-3" d="M112.96,752.33c.05.12.12.24.21.34.22-.24.44-.48.66-.72-.29.13-.58.25-.87.38Z"/>
    <rect class="cls-16" x="-48.84" y="832.48" width="1424.79" height="223.79"/>
    <g>
      <polygon points="462.14 832.25 468.54 832.84 467.1 838.13 460.7 837.53 462.14 832.25"/>
      <polygon points="449.71 831.49 456.19 831.39 456.43 836.74 449.95 836.84 449.71 831.49"/>
      <polygon points="437.33 836.75 440.99 833.62 448.52 836.65 444.86 839.78 437.33 836.75"/>
    </g>
    <path class="cls-13" d="M238.38,959.2l3.49-1.26-3.49,1.26Z"/>
    <path class="cls-32" d="M265.31,792.9s-14.56-96.22-22.66-134.97l-65.4,12-1.54,8.31c10.44,42.72,9.38,138.9,41.71,164.8,39.99,32.03,185.18-12.43,185.18-12.43l3.46-31.91-140.75-5.8Z"/>
    <path class="cls-14" d="M265.61,791.74c-8.47,3.68-13.51,13.58-11.21,22.58.15.58,1.6.2,1.45-.39-2.15-8.43,2.34-17.99,10.37-21.48.92-.4.09-1.02-.6-.72h0Z"/>
    <path class="cls-2" d="M222.43,619.01s-47.37,13.5-51.15,59.47c-1.67,20.32,2.18,57.55,5.88,71.99,4.95,19.33,3.25,21.15,27.38,18.24,18.11-2.19,38.52-.79,60.39-12.78,21.06-11.54-29.16-131.64-29.16-131.64"/>
    <path class="cls-25" d="M220.39,641.81c9.38-.33,16.96,5.78,22.42,12.83,5.16,6.65,8.83,14.26,12.4,21.84,3.5,7.44,5.49,15.37,7.08,23.41,1.95,9.84,3.29,19.81,4.38,29.78.96,8.76,1.72,17.55,2.24,26.35l.43-.53c-2.84,1.02-5.67,2.03-8.51,3.05-.95.34-.09.92.59.67,2.84-1.02,5.67-2.03,8.51-3.05.23-.08.44-.28.43-.53-1.06-18.03-2.85-36.14-6.18-53.9-1.56-8.33-3.37-16.88-7.01-24.58-3.55-7.5-7.08-15.06-12.01-21.78-5.9-8.05-14.1-14.8-24.58-14.44-.75.03-1.18.91-.18.88h0Z"/>
    <path class="cls-32" d="M483.65,792.14c-7.63,4.03-17.96,9.27-19.37,8.87s-11.28-1.58-19.91-2.58c-4.43-.3-7.77-4.14-7.47-8.56.08-1.15,20.95-5.06,18.83-14.47l-18.18-.44c-5.91.71-11.7,2.16-17.24,4.34-6.72,3.12-22.73,18.24-22.73,18.24l-23.13,1.91.62,35.82,22.96-3.21,21.83,9.3s42.09,3.57,47.36.35c5.26-3.22,11.62-15.32,11.62-15.32,7.57-3.05,8.86-14.23,8.86-14.23,10.84-9.12,2.18-11.58,2.18-11.58.44-.22.81-.56,1.06-.98,2.82-4.54-2.75-9.87-7.28-7.43Z"/>
    <path class="cls-14" d="M468.08,842c3.46-2.18,5.95-5.73,8.17-9.1,1.44-2.19,2.81-4.44,4.02-6.76l-.9.68c5.52-2.32,8.39-7.88,9.52-13.5.07-.36.05-1.1.24-1.41.11-.18.96-.76,1.2-.98.38-.36.76-.73,1.12-1.11.66-.69,1.28-1.42,1.8-2.21,1.15-1.73,1.97-3.96.61-5.81-.66-.9-1.75-1.59-2.82-1.9l-.3.95c3.35-1.98,2.94-6.56,0-8.72-1.39-1.03-3.09-1.44-4.8-1.27-2.1.21-3.87,1.34-5.7,2.29-3.9,2.03-7.82,4.07-11.84,5.85-.66.29-1.33.58-2.01.84-.35.14-1.33.38-1.4.48-.08.11.11-.15.31,0,.06.05-.37-.09-.52-.12-.54-.11-1.08-.19-1.62-.27-4.2-.63-8.43-1.11-12.65-1.6-1.24-.15-2.48-.29-3.73-.44s-2.44-.19-3.58-.63c-1.81-.69-3.33-2.13-4.15-3.89-.42-.91-.67-1.89-.73-2.89-.01-.19.04-.52-.01-.69-.09-.33.09,0-.07-.08-.01,0-.2.21-.17.14.1-.2-.08.03.05-.03.15-.07.3-.12.45-.18.39-.15.78-.29,1.17-.43,2.29-.81,4.6-1.6,6.84-2.56,4.54-1.96,11.86-5.58,10.59-11.67-.07-.33-.63-.31-.85-.32-3.11-.08-6.23-.15-9.34-.23-2.09-.05-4.18-.1-6.28-.15-1.14-.03-2.27-.11-3.4.03-4.31.53-8.6,1.48-12.74,2.8-2.83.9-5.5,1.87-7.99,3.49-4.36,2.82-8.35,6.25-12.27,9.66-2.73,2.38-5.43,4.8-8.07,7.29-.51.48.44.67.74.67.69,0,1.43-.27,1.93-.74,5.68-5.36,11.58-10.66,17.93-15.21,1.84-1.31,3.64-2.42,5.77-3.19,4.01-1.45,8.17-2.5,12.39-3.15,3.2-.49,6.47-.18,9.7-.1,3.48.08,6.97.17,10.45.25l-.85-.32c1.08,5.2-4.83,8.26-8.76,9.96-2.19.95-4.44,1.72-6.69,2.51-1.02.36-3.1.8-3.39,2-.39,1.68.53,3.85,1.46,5.2,1.03,1.5,2.55,2.64,4.28,3.21,2.15.72,4.62.73,6.86.99,2.37.28,4.75.56,7.12.86,1.9.24,3.81.48,5.7.75.92.13,1.89.38,2.64.45,1.12.11,2.29-.32,3.33-.7,1.56-.56,3.07-1.26,4.57-1.96,2.2-1.02,4.37-2.1,6.53-3.2,2.19-1.11,4.34-2.39,6.58-3.41,1.65-.75,3.65.57,4.65,1.85,1.14,1.46,1.8,4.77-.17,5.93-.27.16-.99.75-.3.95,1.45.42,2.82,1.58,2.98,3.17.2,1.95-1.28,3.8-2.5,5.14-1.09,1.2-2.76,1.99-3.05,3.62-.61,3.5-1.87,7.11-4.14,9.88-.66.8-1.4,1.53-2.26,2.11-.75.52-1.86.74-2.37,1.51-.6.91-1.06,1.93-1.62,2.87-1.31,2.23-2.72,4.42-4.27,6.49-1.45,1.94-3.06,4.08-5.14,5.38-.39.25-.85.61-.3.95.48.3,1.61-.05,2.04-.32h0Z"/>
    <path class="cls-14" d="M444.64,812.79c2.22,1.12,4.6,1.9,7.06,2.32,5.8,1.62,11.9,1.86,17.82.7,5.77-1.7,11-4.88,15.16-9.23,1.88-1.57,3.5-3.42,4.81-5.49-2.06,1.28-3.97,2.77-5.71,4.46-4.24,3.85-9.28,6.71-14.75,8.37-5.68,1.08-11.51,1.03-17.17-.15-2.36-.59-4.78-.92-7.21-.98Z"/>
    <path class="cls-14" d="M446.14,823.06c1.88,1.34,4.06,2.2,6.35,2.49,2.4.55,4.84.92,7.29,1.1,3.07.35,6.17.07,9.12-.84,2.77-1.16,5.39-2.63,7.82-4.38l5.87-4.1c1.92-1.14,3.65-2.55,5.16-4.2-2.11.72-4.11,1.75-5.92,3.05-1.76,1.03-3.84,2.3-6.11,3.76-2.37,1.6-4.88,2.96-7.51,4.07-2.73.88-5.61,1.22-8.47,1.01-2.38-.09-4.75-.31-7.1-.65-4.04-.59-6.48-1.3-6.51-1.31Z"/>
    <path class="cls-14" d="M448.85,835.12c-.08.78,7.43,1.45,16.47,1.65,1.25,0,2.48-.32,3.58-.93.95-.46,1.87-.97,2.76-1.55,1.51-.93,2.92-2,4.22-3.2,2.23-2.06,3.18-3.73,2.97-3.87s-1.47,1.13-3.83,2.82c-1.36.99-2.76,1.91-4.22,2.75-.86.5-1.75.95-2.66,1.36-.83.46-1.77.71-2.72.72-4.62-.15-8.7-.08-11.69-.04-1.63-.08-3.27.02-4.88.31Z"/>
  </g>
  <g id="Layer_9" data-name="Layer 9">
    <path class="cls-32" d="M942.38,812.52c40.67,10.53,273.87-2.58,308.58-21.48,4.13-2.25,7.97-5,11.76-7.87-2.53-18.26-14.04-28.63-26.27-43.58-14.94-18.26-17.53-32.42-38.17-43.63l-42.38,6.37c-34.14,3.79-214.76,63.45-233.45,63.51l-.2-.74,20.12,47.42Z"/>
    <polygon class="cls-7" points="808.42 843.3 706.79 870.7 706.79 705.3 808.42 677.9 808.42 843.3"/>
    <path class="cls-32" d="M1027.73,801.86l-60.3,10.01s-71.35,36.6-92.43,41.37c-15.34,2.85-30.9,3.5-46.23,1.91l-29.35,10.33c-2.33.82-4.77,1.25-7.24,1.28l-11.2.12s-20.13,12.64-25.46,7.35c-5.32-5.29-.81-11.7,7-16.98,92.17-62.36,106.27-88.58,106.27-88.58-12.76-1.81-19.87-5.49-32.83-5.01-19.91.9-31.61-8-28.64-18.99,2.09-7.72,25.57-8.44,42.61-4.07,11.08,2.84,32.88-8.35,52.97-6.35,20.09,2,38.63,24.77,38.63,24.77,7.8,1.85,79.04-15.55,79.04-15.55.72,1.48,7.17,58.41,7.17,58.41Z"/>
    <path class="cls-33" d="M782.2,865.95c17.93-11.49,37.81-19.6,55.44-31.59,4.83-3.28,9.45-6.87,13.72-10.84.38-.35-.33-.43-.53-.43-.49,0-1.09.2-1.45.54-15.56,14.48-35.31,23.29-53.78,33.36-5.12,2.79-10.18,5.69-15.08,8.83-.4.26-.2.46.15.55.46.12,1.16-.17,1.54-.41h0Z"/>
    <path class="cls-33" d="M828.82,856.8c6.98-2.12,13.58-5.23,20.24-8.18s14.03-5.7,21.08-8.44c.35-.13.83-.49.57-.9s-1.13-.16-1.44-.04c-6.91,2.68-13.87,5.25-20.65,8.25-6.61,2.92-13.17,6.07-20.1,8.18-1.28.39-1.01,1.53.3,1.13h0Z"/>
    <rect class="cls-7" x="493.04" y="705.3" width="214.08" height="165.4"/>
    <polygon class="cls-7" points="815.97 676.88 708.72 705.31 708.72 680.75 815.97 652.33 815.97 676.88"/>
    <rect class="cls-7" x="483.14" y="680.75" width="225.92" height="24.56"/>
    <polygon class="cls-7" points="709.35 681.25 483.43 681.25 590.05 652.33 815.97 652.33 709.35 681.25"/>
    <path class="cls-6" d="M707.55,870.6c.03-5.42.06-10.84.09-16.26.07-12.92.14-25.84.21-38.76.09-15.62.17-31.23.26-46.85.07-13.5.15-27.01.22-40.51.04-6.59.2-13.19.11-19.77,0-.09,0-.18,0-.27,0-.77-.7-1-1.36-1.01-1.91-.02-3.82-.04-5.73-.06-5.19-.05-10.39-.11-15.58-.16-7.68-.08-15.37-.16-23.05-.23l-28.12-.29c-10.22-.1-20.45-.21-30.67-.31-10.4-.11-20.81-.21-31.21-.32-9.62-.1-19.25-.2-28.87-.29-8.17-.08-16.33-.17-24.5-.25-5.87-.06-11.75-.12-17.62-.18-2.78-.03-5.57-.15-8.34-.08-.12,0-.24,0-.36,0-1.69-.02-2.19,2.2-.23,2.22s3.82.04,5.73.06c5.19.05,10.39.11,15.58.16,7.68.08,15.37.16,23.05.23,9.37.1,18.75.19,28.12.29,10.22.1,20.45.21,30.67.31,10.4.11,20.81.21,31.21.32,9.62.1,19.25.2,28.87.29,8.17.08,16.33.17,24.5.25,5.87.06,11.75.12,17.62.18,2.75.03,5.6.27,8.34.08.12,0,.24,0,.36,0l-1.36-1.01c-.03,5.42-.06,10.84-.09,16.26-.07,12.92-.14,25.84-.21,38.76-.09,15.62-.17,31.23-.26,46.85-.07,13.5-.15,27.01-.22,40.51-.04,6.59-.2,13.19-.11,19.77,0,.09,0,.18,0,.27,0,1.56,2.94,1.18,2.94-.19h0Z"/>
    <path class="cls-6" d="M709.99,704.84c.01-6.91.02-13.83.03-20.74,0-.98,0-1.96,0-2.94,0-.76-.7-1.01-1.36-1.01h-215.98c-2.92,0-5.85-.08-8.77,0-.12,0-.25,0-.37,0-1.69,0-2.19,2.22-.23,2.22h215.98c2.89,0,5.89.23,8.77,0,.12,0,.25,0,.37,0l-1.36-1.01c-.01,6.91-.02,13.83-.03,20.74,0,.98,0,1.96,0,2.94,0,1.57,2.94,1.18,2.94-.19h0Z"/>
    <path class="cls-6" d="M583.52,756.39c3.86-5.63,9.92-9.8,16.8-10.48,6.68-.66,14.23,1.81,16.95,8.45,2.54,6.17,1.24,14.58-3.66,19.22-5.72,5.42-13.8,6.52-21,8.82-1.69.54-3.46,1.35-4.09,3.15-.32.91-.26,1.89-.26,2.85,0,1.22,0,2.44,0,3.66,0,4.88,0,9.75.01,14.63,0,1.32,2.91.77,2.91-.31,0-4.63,0-9.27-.01-13.9,0-1.14,0-2.28,0-3.41,0-1.06-.13-2.22.1-3.26.44-2,3.27-2.17,4.93-2.62,7.54-2.03,16.2-4.34,21.34-10.68,4.35-5.37,5.23-14.29,1.93-20.38-3.49-6.45-11.35-8.56-18.22-8.05-8.3.62-15.79,5.38-20.46,12.17-.4.59.35.94.82.99.68.06,1.51-.25,1.9-.83h0Z"/>
    <path class="cls-6" d="M588.48,822.58c1.03.85,2.43,1.06,3.73.9,1.39-.18,3.06-.82,3.67-2.18.43-.95.19-2.07-.56-2.79-1.07-1.03-2.75-1.11-4.11-.7s-3.13,1.46-2.96,3.14c.02.24.39.37.57.42.33.08.76.04,1.08-.06.5-.15,1.32-.49,1.25-1.14,0-.05,0-.1,0-.15v.21c0-.2.05-.39.13-.58l-.1.22c.06-.13.14-.25.23-.37.1-.14-.02.04-.06.07.03-.02.05-.05.08-.08.06-.06.13-.11.19-.17.09-.09-.24.15-.13.09.04-.02.08-.05.12-.08.03-.02.07-.04.1-.06.16-.1-.16.09-.17.09.04.01.2-.09.24-.11.06-.02.22-.08-.05.01-.28.1-.07.03-.02.01.04-.01.08-.02.12-.03.19-.05-.21.04-.21.04.07.02.2-.03.27-.03.16-.02-.34,0-.18,0,.05,0,.1,0,.15,0,.03,0,.1.02.12,0-.02.01-.31-.05-.14-.02.09.02.18.03.27.06.04.01.18.06,0,0s0,0,.03.02c.16.07.3.15.44.25l-.19-.14c.26.19.48.43.64.71l-.11-.18c.17.31.27.65.28,1.01v-.21c0,.27-.06.53-.17.77l.1-.22c-.04.08-.08.15-.12.22-.03.04-.06.09-.09.13-.1.14.16-.15.06-.07-.06.06-.13.12-.19.18-.11.1.28-.19.11-.08-.05.03-.09.06-.14.09-.03.02-.06.03-.1.05.37-.23.24-.12.13-.07-.04.02-.09.04-.13.05-.22.09.16-.06.19-.06-.09,0-.19.05-.28.08-.24.07.41-.07.16-.03-.05,0-.1.01-.15.02-.08,0-.42.03-.14.02s-.07,0-.14,0c-.13,0-.47-.09-.06,0-.1-.02-.19-.03-.29-.05s-.19-.05-.28-.07c-.2-.05.19.08.08.03-.04-.02-.09-.03-.13-.05-.19-.08-.36-.18-.53-.3l.19.14s-.09-.07-.13-.1c-.51-.42-1.35-.31-1.92-.04-.28.13-.62.3-.77.58-.1.18-.19.45,0,.62h0Z"/>
    <path class="cls-6" d="M708.78,682.1c3.57-.96,7.13-1.92,10.7-2.88,8.56-2.31,17.12-4.61,25.68-6.92,10.31-2.78,20.63-5.56,30.94-8.33,8.95-2.41,17.91-4.82,26.86-7.23,4.35-1.17,8.73-2.24,13.05-3.51.06-.02.12-.03.18-.05.49-.13,1.4-.59,1.22-1.24s-1.2-.59-1.68-.46c-3.57.96-7.13,1.92-10.7,2.88l-25.68,6.92c-10.31,2.78-20.63,5.56-30.94,8.33-8.95,2.41-17.91,4.82-26.86,7.23-4.35,1.17-8.73,2.24-13.05,3.51-.06.02-.12.03-.18.05-.49.13-1.4.59-1.22,1.24s1.2.59,1.68.46h0Z"/>
    <path class="cls-6" d="M707.2,709.14c3.38-.98,6.76-1.97,10.14-2.95,8.12-2.37,16.23-4.73,24.35-7.1,9.82-2.86,19.64-5.72,29.46-8.59,8.49-2.48,16.99-4.95,25.48-7.43,4.13-1.2,8.29-2.34,12.4-3.61.06-.02.12-.03.18-.05.49-.14,1.4-.58,1.22-1.24s-1.21-.6-1.68-.46c-3.38.98-6.76,1.97-10.14,2.95-8.12,2.37-16.23,4.73-24.35,7.1-9.82,2.86-19.64,5.72-29.46,8.59-8.49,2.48-16.99,4.95-25.48,7.43-4.13,1.2-8.29,2.34-12.4,3.61-.06.02-.12.03-.18.05-.49.14-1.4.58-1.22,1.24s1.21.6,1.68.46h0Z"/>
    <path class="cls-33" d="M848.07,765.74c-6.47-1.17-12.89-2.6-19.32-3.95-6.31-1.32-12.25-3.02-17.78-6.43-.54-.33-2.36.55-2.05.75,5.46,3.36,11.34,5.14,17.58,6.44,6.59,1.38,13.16,2.85,19.79,4.05.49.09,1.09-.03,1.52-.27.16-.09.77-.5.26-.59h0Z"/>
  </g>
  <g id="Layer_13" data-name="Layer 13">
    <path class="cls-33" d="M1168.1,700.76c7.82-.3,15.43,1.56,22.35,5.19,6.81,3.58,12.8,8.53,18.45,13.7,3.37,3.09,6.65,6.3,9.94,9.48.44.43,1.81-.15,1.33-.62-11.23-10.86-22.98-23.18-38.58-27.32-4.35-1.16-8.84-1.6-13.34-1.42-.8.03-1.14,1.03-.15.99h0Z"/>
  </g>
</svg>