<?xml version="1.0" encoding="UTF-8"?>
<svg xmlns="http://www.w3.org/2000/svg" xmlns:xlink="http://www.w3.org/1999/xlink" viewBox="0 0 1334 1000">
  <defs>
    <style>
      .cls-1, .cls-2, .cls-3, .cls-4 {
        fill: none;
      }

      .cls-5 {
        stroke: #000;
        stroke-width: .13px;
      }

      .cls-5, .cls-2, .cls-3, .cls-6, .cls-7, .cls-4 {
        stroke-miterlimit: 10;
      }

      .cls-8 {
        fill: #4d3935;
      }

      .cls-9 {
        fill: #010101;
      }

      .cls-10 {
        fill: #542d63;
      }

      .cls-11 {
        fill: #cb83b0;
      }

      .cls-2 {
        stroke: #6a3f74;
      }

      .cls-12 {
        fill: #0e0a09;
      }

      .cls-13 {
        fill: #a36f53;
      }

      .cls-14 {
        fill: #777;
      }

      .cls-15 {
        fill: #13110f;
      }

      .cls-16 {
        fill: #efe8d4;
      }

      .cls-17 {
        fill: #2d1710;
      }

      .cls-18 {
        fill: #352962;
      }

      .cls-3 {
        stroke: #d0ac46;
        stroke-dasharray: .98 .98;
        stroke-width: .98px;
      }

      .cls-19, .cls-7 {
        fill: #100f10;
      }

      .cls-20 {
        fill: #dedede;
      }

      .cls-21 {
        fill: #9e352c;
      }

      .cls-22 {
        fill: #a46e53;
      }

      .cls-23 {
        fill: #e4e56f;
      }

      .cls-24 {
        fill: #4a3027;
      }

      .cls-25 {
        clip-path: url(#clippath-1);
      }

      .cls-26 {
        fill: #c8793d;
      }

      .cls-27 {
        fill: #fff;
      }

      .cls-6 {
        stroke: #221f20;
        stroke-width: .19px;
      }

      .cls-28 {
        fill: #734a24;
      }

      .cls-29 {
        fill: #d0ac46;
      }

      .cls-30 {
        fill: #b9b3d2;
      }

      .cls-31 {
        fill: #71507d;
      }

      .cls-32 {
        fill: #3c326e;
      }

      .cls-33 {
        fill: #643b29;
      }

      .cls-34 {
        fill: #513835;
      }

      .cls-7 {
        stroke: #777;
      }

      .cls-35 {
        fill: #66443b;
      }

      .cls-36 {
        fill: #221f20;
      }

      .cls-37 {
        fill: #3e2c16;
      }

      .cls-38 {
        opacity: .3;
      }

      .cls-4 {
        stroke: #100d0c;
        stroke-width: .81px;
      }

      .cls-39 {
        fill: #ad6533;
      }

      .cls-40 {
        fill: #24163a;
      }

      .cls-41 {
        fill: #efedf5;
      }

      .cls-42 {
        fill: #885e4b;
      }

      .cls-43 {
        clip-path: url(#clippath);
      }

      .cls-44 {
        fill: #100d0c;
      }

      .cls-45 {
        fill: #4f2e25;
      }

      .cls-46 {
        fill: #813a30;
      }
    </style>
    <clipPath id="clippath">
      <path class="cls-1" d="M613.25,453.06c-8.08-39.49-29.52-71.94-37.52-83.03-.29-3.08-.17-6.7.44-11.24,8.46-17.22,29.96-61.81,39.61-89.51,13.1-37.63,18.44-98.97,18.44-98.97,3.71-96.63-94.74-103.28-94.74-103.28-141.24-23.35-154.31,170.11-155.48,199.69l-1.39,5.14-19.77,17.78-13.6,8.81s-28.22,13.97-52.43,28.16c-24.21,14.19-28.06-6.5-103.27,145.67-13.53,27.36-31.33,61.07-31.33,61.07,0,0,80.55,120.4,210.12,166.46,129.56,46.07,263.72-94.45,263.72-94.45,0,0-12.79-103.35-22.81-152.3ZM491.02,152.91c13.54-19.47,30.31-22.38,30.31-22.38,30.66-5.9,73.05-3.47,96.24,29.79,13.97,20.03,5.41,46.85,4.82,49.24-.29,1.41-.6,2.73-.94,3.91-3.98,13.67-12.56,36.51-14.51,42.36-1.69,5.07-3.34,13.31-4.1,18.84-1.71,12.37-2.47,15.56-8.58,26.84-5.9,10.91-10.43,16.4-19.67,24.72-9.63,8.68-17.37,17.3-29.05,23.8-7.69,4.28-14.07,6.94-31.22,2.81-25.27-6.09-47.73-40.16-59.58-60.49l-2.42-15.83c-.75-17.12,4.17-41.03,7.71-57.66,6.05-28.43,17.45-46.48,30.98-65.95Z"/>
    </clipPath>
    <clipPath id="clippath-1">
      <path class="cls-1" d="M782.86,858.71c-14.96-11.49-13.73-23.35-9.43-33.78,4.29-10.43,51.45-109.53,51.45-109.53l50.3-3.68s26.38,63.8,32.51,73.62c6.13,9.82,35.62,48.55,34.39,51-1.23,2.45-32.81,36.41-89.87,36.41s-64.89-10.6-69.36-14.04Z"/>
    </clipPath>
  </defs>
  <g id="Layer_8" data-name="Layer 8">
    <polyline class="cls-16" points="-221.27 1272.46 -221.27 -62.25 1545.97 -62.25 1545.97 1272.46"/>
    <path class="cls-22" d="M671.21,691.6c2.64-5.52,5.93,3.98,21.24,8.43,0,0-23.15-18.96-13.96-27.71,2.42-2.31,9.34,8.65,14.48,12.02,5.25,3.44,8.73,4.61,8.73,4.61,0,0-16.91-17.12-12.2-22.15,2.31-2.47,8.16,4.48,13.47,8.04,5.51,3.7,10.44,4.08,10.44,4.08,0,0-10.63-8.04-6.62-13,4.01-4.95,14.24,2.55,21.45,8.81,4.57,3.97,13.06,19.44,16.81,28.01,12.68,8.26,47.96,12.89,59.19,21.1l83.07-35.24,13.91,70.26s-91.89,22.28-105.74,17.09c-23.14-8.67-49.77-17.98-71.09-38.48-21.34-2.02-34.05-12.63-38.79-14.58-8.89-3.65-15.08-11.35-13.7-14.87.59-1.5,16.5,4.64,16.5,4.64,0,0-19.81-15.55-17.17-21.07Z"/>
    <path class="cls-19" d="M488.58,466.4s-7.67,22.89,4.02,68.68c11.69,45.79,39.64,170.59,99.8,197.89,57.05,25.88,244.9-19.09,244.9-19.09l-15.94-51.57-173.27-20.94s-42.16-74.27-58.53-107.38c-16.37-33.12-101-67.59-101-67.59Z"/>
    <path class="cls-22" d="M957.18,599.97c8.05-1.04,40.53-1.18,48.36-3.59,3.58-1.1,30.63-11.38,33.97-13.27-15.74,26.15-11.28,39.53-8.62,44.86l5.14,10.01c-25.28,23.96-88.5,48.5-103.75-8.97l22.33-7.92,2.58-21.12Z"/>
    <path class="cls-26" d="M1061.83,842.05l14.3-11.06,4.1-32.82,1.34-16.45c1.55-1.35,3.53-26.04,3.93-27.88.98-4.52,1.75-9.09,2.5-13.65.76-4.61.06-2.64.8-7.25,0,0,12.17,1.34,12.76-1.24.83-3.66,4.16-31.05,4.02-34.81-.8-22.03.05-10.87-3.05-26.36-2.46-8.81-8.57-19.2-15.06-25.66-7.02-6.98-18.76-11.2-27.94-14.24-30.51-10.11-31.75-13.86-31.75-13.86,0,0-18.26,40.56-64.76,38.21-28.84-1.46-9.59-33.24-9.59-33.24l-2,.35c-20.3-.17-57.95,16.52-73.53,44.41-6.42,11.5-19.72,28.62-21.61,41.58,1.25.43,35.52,39.88,36.32,40.75l7.07-5.97s7.57,78.19,7.57,100.95,28.4,18.17,83.94,18.17"/>
    <g>
      <ellipse class="cls-44" cx="789.32" cy="640.36" rx="17.78" ry="15.98"/>
      <ellipse class="cls-44" cx="785.91" cy="660.93" rx="17.78" ry="15.98"/>
      <ellipse class="cls-44" cx="789.32" cy="684.24" rx="17.78" ry="15.98"/>
      <ellipse class="cls-44" cx="905.54" cy="650.92" rx="17.78" ry="15.98"/>
      <ellipse class="cls-44" cx="905.54" cy="673.71" rx="17.78" ry="15.98"/>
      <ellipse class="cls-44" cx="799.73" cy="618.96" rx="17.78" ry="15.98"/>
      <ellipse class="cls-44" cx="821.47" cy="608.4" rx="17.78" ry="15.98"/>
      <ellipse class="cls-44" cx="845.13" cy="603.49" rx="17.78" ry="15.98"/>
      <ellipse class="cls-44" cx="866.45" cy="604.39" rx="17.78" ry="15.98"/>
      <ellipse class="cls-44" cx="887.77" cy="615.68" rx="17.78" ry="15.98"/>
      <ellipse class="cls-44" cx="898" cy="631.66" rx="17.78" ry="15.98"/>
    </g>
    <path class="cls-30" d="M1441.6,970.38l-1719.81-21.21v147.47l1719.18,8.7c19.9.1,36.08-16,36.08-35.9v-63.16c0-19.65-15.8-35.65-35.45-35.89Z"/>
    <path class="cls-19" d="M494.61,375.33l46.13,36.97c2.97,2.42,18.91,18.06,21.64,20.71-2.12,17.1-2.36,27.7-2.14,44.89.15,11.87.58,23.73.95,35.59.38,12.3.3,24.55-.15,36.84-.47,12.77.1,32.8-2.46,45.33-2.18,10.67-7.93,27.28-13.96,36.32-5.63,8.45-21.64,17.69-26.41,26.68-4.6,8.67-4.5,16.75-4.5,16.75-4.53,20.18,2.12,24.45-.79,52.76-.18,1.75,2.75,3.15,3.16,4.87-20.3,5.33-40.44,12.12-61.35,13.54-10.64.72-20.82,4.54-31.34,6.3-26.19,4.38-51.08-4.82-76.29-9.95-27.26-5.55-67.6-.97-122.41,8.47l-75.27,7.47s-3.17-30.63,8.45-56.14c11.62-25.51,81.14-107.61,81.14-107.61,0,0,2.96-217.3,20.11-227.21,10.74-6.24,104.36-26.06,128.05-28.92,0,0,27.55,65.32,74.47,73.71,46.92,8.39,32.99-37.35,32.99-37.35Z"/>
    <path class="cls-18" d="M980.27,994.2c-45.38-39-67.5-181.77-124.36-201.92-33.57-11.9-180.39,42.69-215.84,38.46-253.78-30.3-283.59,1.43-484.48,14.06-67.79,4.26-200.84-3.39-307.75-.75-39.43.98-80.97,2.23-126.05,3.36v434.83c87.15,4.17,174.39,6.77,261.64,7.77,371.24,4.26,478.05-63.93,1028.56-8.7,2.56-93.03,39.87-225.58-31.72-287.11Z"/>
    <path class="cls-19" d="M652.4,818.18c.03-.09.04-.19.07-.28-64.46-49.78-203.19-128.23-203.19-128.23,0,0-56.8,20.19-120.86,50.44v-14.5l-157.99-19.9s-56.78,104.39-18.86,189.26c.02.09.03.19.05.28,16.61,69.91,146.74,90.22,276.69,90.7-.73,5.24-1.57,11.03-2.59,17.6-13.68,88.15,4.7,270.17-6.74,316.42,14.95,23.68,152.42,32.29,152.42,32.29.05-.22,31.76,1.37,31.81,1.15,34.82,2.53,42.92-2.75,42.92-2.75,33.28-104.42,50.05-264.96,66.82-369.41,10.92-68.02-20.03-142.91-60.55-163.07Z"/>
    <path class="cls-19" d="M408.22,1324.48s110.51,35.18,190.14-57.99c79.62-93.17,90.59-335.8,78.24-388.65-12.35-52.84-37.42-71.59-60.48-86.9-23.06-15.31-102.17-68.44-102.17-68.44,0,0-93.86,21.36-185.93,1.93-92.07-19.43-150.26-66.97-150.26-66.97,0,0-44.22,62.71-44.63,162.59-.42,99.88,48.39,153.38,145.06,160.89,96.67,7.51,137.97,12.46,137.97,12.46l-7.93,331.08Z"/>
    <path class="cls-7" d="M260.26,381.59s-20.35,12.99-40.03,55.95c-19.68,42.96-95.36,198.17-84.43,263.33,12.88,76.72,240.21,92.38,240.21,92.38l20.01-50.13-159.33-78.5s51.58-130.94,59.66-166.98c8.08-36.04-36.09-116.04-36.09-116.04Z"/>
    <path class="cls-19" d="M568.65,433.91s20.52,21.61,25.88,32.07c5.36,10.47,26.14,144.98,26.14,144.98,0,0-17.73,21.92-86.09,12.24-68.36-9.68,34.06-189.3,34.06-189.3Z"/>
    <path class="cls-31" d="M613.25,453.06c-8.08-39.49-29.52-71.94-37.52-83.03-.29-3.08-.17-6.7.44-11.24,8.46-17.22,29.96-61.81,39.61-89.51,13.1-37.63,18.44-98.97,18.44-98.97,3.71-96.63-94.74-103.28-94.74-103.28-141.24-23.35-154.31,170.11-155.48,199.69l-1.39,5.14-19.77,17.78-13.6,8.81s-28.22,13.97-52.43,28.16c-24.21,14.19-28.06-6.5-103.27,145.67-13.53,27.36-31.33,61.07-31.33,61.07,0,0,80.55,120.4,210.11,166.47,129.56,46.06,265.23-89.59,265.23-89.59,0,0-14.29-108.21-24.31-157.16Z"/>
    <path class="cls-22" d="M621.27,213.41c3.98-13.67,4.24-45.27,4.24-45.27.06-1.49,1.31-23.59,1.02-24.91-18.98-14.4-45.88-34.53-69.47-34.89-22.87-.35-75.61.41-83.5,27.5-2.41,8.27-10.51,63.11-17.25,63-.37,1.07-.66,2.04-.82,2.85-1.43,7.18-7.41,21.92-7.41,21.92-1.35-3.13-4.36-9.87-4.81-13.17-.54-2.92,1.14-6.06.6-8.98-2.1-6.9-10.7-7.15-16.12-4.58l-1.06,1.03c-8.39,6.81-8.37,34.73-5.77,43.68-2.73,16.18,9.07,28.08,19.84,18.65l.61,6.74,13.21,25.3c11.85,20.33,34.31,54.4,59.58,60.49,17.15,4.13,23.53,1.47,31.22-2.81,11.68-6.5,19.41-15.12,29.05-23.8,9.24-8.33,13.77-13.81,19.67-24.73,6.1-11.28,6.87-14.47,8.58-26.84.76-5.53,2.41-13.78,4.1-18.84,1.95-5.85,10.53-28.69,14.51-42.36Z"/>
    <path class="cls-15" d="M590.73,242.58c2.55-.58,5.21,1.12,6.35,2.81.27.4.69,1.5.74,3.1.07,2.04-1.25,3.98-2.77,4.98-2.04,1.33-4.76.94-6.54-.53-2.42-2-2.45-5.54-1.15-7.77.24-.41,1.31-2.11,3.37-2.58"/>
    <path class="cls-15" d="M571.82,243.29s9.44-3.47,15.24-3.04c11.83.86,19.36,5,21.2,9.81,0,0-10.22-6.5-20.39-7.13-5.71-.36-16.05.37-16.05.37Z"/>
    <path class="cls-15" d="M516.89,221.64c-1.95-1.75-5.65-2.37-7.46-1.44-.43.22-1.59.85-2.4,2.22-1.05,1.75-.85,4.09,0,5.7,1.13,2.15,3.7,3.14,5.97,2.72,3.08-.57,4.84-3.65,4.78-6.23-.01-.47.66-1.21-.92-2.62"/>
    <path class="cls-15" d="M531.67,232.65s-7.25-11.24-18.79-14.75c-8.79-2.67-20.16-1.78-26.13.46,0,0,18.74.17,24.91,2.14,5.89,1.89,20.02,12.15,20.02,12.15Z"/>
    <path class="cls-15" d="M492.96,199.94c1.57.06,2.69-.07,4.25.15,8.6,1.2,16.94,3.13,25.12,6.11,7.2,2.59,13.78,6.33,20.33,10.19.53-1.47.79-.62,1.31-2.1.69-1.95,1.37-3.89,2.05-5.83-16.9-7.66-30.31-11.41-35.41-12.04-3.86-.47-7.76-.36-11.57.18,0,0-10.5,1.37-12.06,2.6-1.56,1.23,5.97.73,5.97.73Z"/>
    <path class="cls-15" d="M615.71,230.68c-.05-.26-.07-.53-.14-.78,0,0,0-.02,0-.03-1.45-1.11-3.31-2.35-5.56-3.49-3.95-1.98-15.18-5.39-30.72-7.46-.85,2.75-1.7,5.49-2.57,8.23,6.6.04,13.16.22,19.61,1.62,6.06,1.31,12.22,3.18,17.96,5.77.34-.53.69-1.04.99-1.6.15-.39.28-.79.38-1.19.03-.35.06-.71.05-1.07Z"/>
    <path class="cls-33" d="M536.31,296.03c-12.17-3.39-32.49-10.66-32.49-10.66,0,0-3.64,30.77,24.57,38.63,28.21,7.86,37.81-20.5,37.81-20.5,0,0-17.72-4.08-29.89-7.46Z"/>
    <path class="cls-17" d="M536.43,296.07c-5.78-1.61-28.82-9.11-28.82-9.11,0,0,2.62,19.98,23.54,25.81,22.69,6.32,31.7-9.89,31.7-9.89l-26.42-6.81Z"/>
    <path class="cls-41" d="M536.43,297.03c-5.78-1.61-23.11-7.52-23.11-7.52,0,0,4.53,8.27,21.88,13.1,17.35,4.83,24.62.05,24.62.05l-23.39-5.64Z"/>
    <path class="cls-33" d="M567.17,303.01c-.57-.33-1.26-.95-3.84-2.21-4.48-2.19-7.31-3.89-10.7-5.13-5.79-2.12-10.22-.77-12.8-1.48-2.58-.72-5.67-4.16-11.72-5.35-3.55-.69-13.47-2.04-18.38-2.95-2.94-.55-5.99-2.63-6.65-2.65-.91-.02-.07,7.13,32.3,16.15,32.37,9.02,32.58,4.07,31.79,3.62Z"/>
    <path class="cls-40" d="M446.5,210.81s39.24-71.73,118.5-54.91c45.82,9.72,57.15,53.84,57.15,53.84,0,0,10.56-42.26-3.66-63.04-14.22-20.77-73.23-37.66-103.9-31.76-30.66,5.9-68.09,95.88-68.09,95.88Z"/>
    <path class="cls-31" d="M430.28,141.64s44.96-81.57,120.9-65.95c94.27,19.62,80.13,120.64,80.13,120.64l-18.99,72.92c5.28-18.71,10.72-35.24,10.16-54.67,1.89-10.82,12.84-38.07-12.83-63.88-13.92-13.93-33.6-20.92-52.9-22.83-17.79-1.76-38.84-.19-53.07,12.16-14.46,12.54-24.06,27.55-28.59,36.93-9.93,18.45-17.11,46.93-20.27,67.64-2.49,18.75-8.49,43.37,13.46,80.94-74.81-46.56-55.33-141.79-40.27-184.26l2.25.36Z"/>
    <g>
      <path class="cls-9" d="M551.17,280.69c-2.85.94-6.4-.45-8.27-3.05-.42-.58-2.31-.66-1.73.15,2.47,3.43,7.65,5.13,11.33,3.91.37-.12.4-.44.06-.71-.35-.28-.99-.43-1.38-.3"/>
      <path class="cls-9" d="M540.37,276.61c-1.33-1.43-2.99-2.45-4.74-3.13-.26-.1-.63-.07-.89.1-.2.13-.3.36-.14.56.66.85,1.64,1.39,2.62,1.64.31.08.74.09,1.01-.2.25-.27.01-.55-.23-.62-.81-.2-1.57-.64-2.11-1.34-.35.22-.69.44-1.04.66,1.56.61,3.04,1.54,4.23,2.82.24.25.68.26.99.13.23-.09.53-.38.3-.63"/>
      <path class="cls-9" d="M533.14,274.9c-2.09-.66-4.23-2.53-4.69-4.86-.69-3.52,2.13-7.96,5.32-9.19.35-.13.27-.45,0-.61-.35-.21-.85-.15-1.21-.01-2.78,1.07-5.39,4.64-5.86,7.62-.44,2.79,1.04,5.24,3.34,6.72.68.44,1.44.82,2.22,1.07.32.1.93.14,1.17-.14.25-.28,0-.5-.3-.6"/>
      <path class="cls-9" d="M555.42,280.39c-.02-.34.24-.49.41-.44.56.18,1.2.14,1.83-.23.1.34.21.69.31,1.03-1.18-.16-2.46,0-3.73.59-.25.12-.51-.08-.64-.32-.09-.18-.14-.57.11-.69"/>
      <path class="cls-9" d="M553.71,280.34c1.42-.66,2.84-.82,4.17-.64.19.03.4.22.47.48.06.2.01.44-.17.55"/>
      <path class="cls-9" d="M559.69,281.98c1.39.32,3.34-.41,4.59-2.26,1.89-2.79,1.97-6.72.82-9.16-.13-.27.05-.52.26-.54.28-.04.52.23.65.5,1.01,2.13,1.19,5.19.15,8.01-.97,2.64-2.82,4.16-4.68,4.48-.55.1-1.12.11-1.64,0-.21-.05-.55-.28-.56-.63-.01-.35.22-.44.42-.4"/>
    </g>
    <g class="cls-43">
      <g>
        <circle class="cls-23" cx="231.87" cy="291.43" r="20.85"/>
        <path class="cls-3" d="M235.82,311.9c-11.31,2.18-22.24-5.21-24.42-16.52-2.18-11.3,5.21-22.24,16.52-24.42,11.3-2.18,22.24,5.21,24.42,16.52s-5.21,22.24-16.52,24.42Z"/>
      </g>
      <g>
        <circle class="cls-23" cx="677.69" cy="300.48" r="20.85"/>
        <path class="cls-3" d="M681.65,320.95c-11.31,2.18-22.24-5.21-24.42-16.52s5.21-22.24,16.52-24.42c11.3-2.18,22.24,5.21,24.42,16.52s-5.21,22.24-16.52,24.42Z"/>
      </g>
      <g>
        <circle class="cls-23" cx="184.36" cy="493.09" r="20.85"/>
        <path class="cls-3" d="M188.32,513.56c-11.3,2.18-22.24-5.21-24.42-16.52-2.18-11.3,5.21-22.24,16.52-24.42,11.31-2.18,22.24,5.21,24.42,16.52,2.18,11.3-5.21,22.24-16.52,24.42Z"/>
      </g>
      <g>
        <circle class="cls-23" cx="631.81" cy="495.46" r="20.85"/>
        <path class="cls-3" d="M635.76,515.93c-11.31,2.18-22.24-5.21-24.42-16.52-2.18-11.3,5.21-22.24,16.52-24.42,11.3-2.18,22.24,5.21,24.42,16.52s-5.21,22.24-16.52,24.42Z"/>
      </g>
      <g>
        <circle class="cls-23" cx="727.79" cy="99.39" r="20.85"/>
        <path class="cls-3" d="M731.74,119.86c-11.3,2.18-22.24-5.21-24.42-16.52-2.18-11.3,5.21-22.24,16.52-24.42,11.31-2.18,22.24,5.21,24.42,16.52,2.18,11.3-5.21,22.24-16.52,24.42Z"/>
      </g>
      <g>
        <circle class="cls-23" cx="574.32" cy="695.24" r="20.85"/>
        <path class="cls-3" d="M578.27,715.71c-11.3,2.18-22.24-5.21-24.42-16.52s5.21-22.24,16.52-24.42c11.31-2.18,22.24,5.21,24.42,16.52,2.18,11.3-5.21,22.24-16.52,24.42Z"/>
      </g>
      <g>
        <circle class="cls-23" cx="580.54" cy="373.6" r="20.85"/>
        <path class="cls-3" d="M584.49,394.07c-11.3,2.18-22.24-5.21-24.42-16.52s5.21-22.24,16.52-24.42c11.31-2.18,22.24,5.21,24.42,16.52s-5.21,22.24-16.52,24.42Z"/>
      </g>
      <g>
        <circle class="cls-23" cx="292.88" cy="406.61" r="20.85"/>
        <path class="cls-3" d="M296.84,427.08c-11.31,2.18-22.24-5.21-24.42-16.52-2.18-11.3,5.21-22.24,16.52-24.42,11.3-2.18,22.24,5.21,24.42,16.52s-5.21,22.24-16.52,24.42Z"/>
      </g>
      <g>
        <circle class="cls-23" cx="348.21" cy="529.86" r="20.85"/>
        <path class="cls-3" d="M352.16,550.33c-11.31,2.18-22.24-5.21-24.42-16.52s5.21-22.24,16.52-24.42c11.3-2.18,22.24,5.21,24.42,16.52s-5.21,22.24-16.52,24.42Z"/>
      </g>
      <g>
        <circle class="cls-23" cx="460.87" cy="447.04" r="20.85"/>
        <path class="cls-3" d="M464.82,467.51c-11.3,2.18-22.24-5.21-24.42-16.52s5.21-22.24,16.52-24.42c11.31-2.18,22.24,5.21,24.42,16.52s-5.21,22.24-16.52,24.42Z"/>
      </g>
      <g>
        <circle class="cls-23" cx="513.69" cy="568.95" r="20.85"/>
        <path class="cls-3" d="M517.64,589.42c-11.31,2.18-22.24-5.21-24.42-16.52s5.21-22.24,16.52-24.42c11.3-2.18,22.24,5.21,24.42,16.52s-5.21,22.24-16.52,24.42Z"/>
      </g>
      <g>
        <circle class="cls-23" cx="244.99" cy="619.39" r="20.85"/>
        <path class="cls-3" d="M248.94,639.86c-11.31,2.18-22.24-5.21-24.42-16.52s5.21-22.24,16.52-24.42c11.3-2.18,22.24,5.21,24.42,16.52s-5.21,22.24-16.52,24.42Z"/>
      </g>
      <g>
        <circle class="cls-23" cx="408.83" cy="656.15" r="20.85"/>
        <path class="cls-3" d="M412.79,676.62c-11.3,2.18-22.24-5.21-24.42-16.52s5.21-22.24,16.52-24.42c11.31-2.18,22.24,5.21,24.42,16.52,2.18,11.3-5.21,22.24-16.52,24.42Z"/>
      </g>
      <g>
        <circle class="cls-23" cx="665.47" cy="-14.8" r="20.85"/>
        <path class="cls-3" d="M669.42,5.67c-11.31,2.18-22.24-5.21-24.42-16.52s5.21-22.24,16.52-24.42c11.3-2.18,22.24,5.21,24.42,16.52s-5.21,22.24-16.52,24.42Z"/>
      </g>
      <g>
        <circle class="cls-23" cx="338.77" cy="211.63" r="20.85"/>
        <path class="cls-3" d="M342.72,232.09c-11.31,2.18-22.24-5.21-24.42-16.52s5.21-22.24,16.52-24.42c11.3-2.18,22.24,5.21,24.42,16.52s-5.21,22.24-16.52,24.42Z"/>
      </g>
      <g>
        <circle class="cls-23" cx="281.96" cy="91.69" r="20.85"/>
        <path class="cls-3" d="M285.91,112.16c-11.3,2.18-22.24-5.21-24.42-16.52s5.21-22.24,16.52-24.42c11.31-2.18,22.24,5.21,24.42,16.52,2.18,11.3-5.21,22.24-16.52,24.42Z"/>
      </g>
      <g>
        <circle class="cls-23" cx="395.71" cy="328.2" r="20.85"/>
        <path class="cls-3" d="M399.66,348.67c-11.3,2.18-22.24-5.21-24.42-16.52s5.21-22.24,16.52-24.42c11.31-2.18,22.24,5.21,24.42,16.52s-5.21,22.24-16.52,24.42Z"/>
      </g>
      <g>
        <circle class="cls-23" cx="613.65" cy="172.25" r="20.85"/>
        <path class="cls-3" d="M617.6,192.72c-11.3,2.18-22.24-5.21-24.42-16.52-2.18-11.3,5.21-22.24,16.52-24.42,11.31-2.18,22.24,5.21,24.42,16.52,2.18,11.3-5.21,22.24-16.52,24.42Z"/>
      </g>
      <g>
        <circle class="cls-23" cx="506.75" cy="252.05" r="20.85"/>
        <path class="cls-3" d="M510.7,272.52c-11.3,2.18-22.24-5.21-24.42-16.52s5.21-22.24,16.52-24.42c11.31-2.18,22.24,5.21,24.42,16.52,2.18,11.3-5.21,22.24-16.52,24.42Z"/>
      </g>
      <g>
        <circle class="cls-23" cx="383.49" cy="12.92" r="20.85"/>
        <path class="cls-3" d="M387.44,33.39c-11.3,2.18-22.24-5.21-24.42-16.52s5.21-22.24,16.52-24.42c11.31-2.18,22.24,5.21,24.42,16.52s-5.21,22.24-16.52,24.42Z"/>
      </g>
      <g>
        <circle class="cls-23" cx="548.97" cy="52.01" r="20.85"/>
        <path class="cls-3" d="M552.92,72.48c-11.3,2.18-22.24-5.21-24.42-16.52s5.21-22.24,16.52-24.42c11.31-2.18,22.24,5.21,24.42,16.52s-5.21,22.24-16.52,24.42Z"/>
      </g>
      <g>
        <circle class="cls-23" cx="446.9" cy="131.75" r="20.85"/>
        <path class="cls-3" d="M450.85,152.22c-11.3,2.18-22.24-5.21-24.42-16.52s5.21-22.24,16.52-24.42c11.31-2.18,22.24,5.21,24.42,16.52,2.18,11.3-5.21,22.24-16.52,24.42Z"/>
      </g>
      <path class="cls-46" d="M254.13,191.07s-14.7-49.13,30.12-33.76c0,0-25.33-2.42-30.12,33.76Z"/>
      <path class="cls-46" d="M256.13,191.55s24.35-45.13,45.17-2.58c0,0-16.2-19.62-45.17,2.58Z"/>
      <path class="cls-46" d="M257.34,193.07s49.13-14.7,33.76,30.12c0,0,2.42-25.33-33.76-30.12Z"/>
      <path class="cls-46" d="M256.34,194.63s45.13,24.35,2.58,45.17c0,0,19.62-16.2-2.58-45.17Z"/>
      <path class="cls-46" d="M254.58,195.7s14.7,49.13-30.12,33.76c0,0,25.33,2.42,30.12-33.76Z"/>
      <path class="cls-46" d="M252.66,195.49s-24.35,45.13-45.17,2.58c0,0,16.2,19.62,45.17-2.58Z"/>
      <path class="cls-46" d="M251.7,193.27s-49.13,14.7-33.76-30.12c0,0-2.42,25.33,33.76,30.12Z"/>
      <path class="cls-46" d="M251.91,191.35s-45.13-24.35-2.58-45.17c0,0-19.62,16.2,2.58,45.17Z"/>
      <g>
        <path class="cls-10" d="M315.58,308.74s-14.7-49.13,30.12-33.76c0,0-25.33-2.42-30.12,33.76Z"/>
        <path class="cls-10" d="M317.58,309.22s24.35-45.13,45.17-2.58c0,0-16.2-19.62-45.17,2.58Z"/>
        <path class="cls-10" d="M318.79,310.73s49.13-14.7,33.76,30.12c0,0,2.42-25.33-33.76-30.12Z"/>
        <path class="cls-10" d="M317.79,312.3s45.13,24.35,2.58,45.17c0,0,19.62-16.2-2.58-45.17Z"/>
        <path class="cls-10" d="M316.03,313.37s14.7,49.13-30.12,33.76c0,0,25.33,2.42,30.12-33.76Z"/>
        <path class="cls-10" d="M314.11,313.15s-24.35,45.13-45.17,2.58c0,0,16.2,19.62,45.17-2.58Z"/>
        <path class="cls-10" d="M313.15,310.94s-49.13,14.7-33.76-30.12c0,0-2.42,25.33,33.76,30.12Z"/>
        <path class="cls-10" d="M313.36,309.01s-45.13-24.35-2.58-45.17c0,0-19.62,16.2,2.58,45.17Z"/>
      </g>
      <g>
        <path class="cls-46" d="M364.54,116.27s-14.7-49.13,30.12-33.76c0,0-25.33-2.42-30.12,33.76Z"/>
        <path class="cls-46" d="M366.54,116.75s24.35-45.13,45.17-2.58c0,0-16.2-19.62-45.17,2.58Z"/>
        <path class="cls-46" d="M367.75,118.26s49.13-14.7,33.76,30.12c0,0,2.42-25.33-33.76-30.12Z"/>
        <path class="cls-46" d="M366.75,119.83s45.13,24.35,2.58,45.17c0,0,19.62-16.2-2.58-45.17Z"/>
        <path class="cls-46" d="M364.99,120.9s14.7,49.13-30.12,33.76c0,0,25.33,2.42,30.12-33.76Z"/>
        <path class="cls-46" d="M363.07,120.69s-24.35,45.13-45.17,2.58c0,0,16.2,19.62,45.17-2.58Z"/>
        <path class="cls-46" d="M362.11,118.47s-49.13,14.7-33.76-30.12c0,0-2.42,25.33,33.76,30.12Z"/>
        <path class="cls-46" d="M362.33,116.54s-45.13-24.35-2.58-45.17c0,0-19.62,16.2,2.58,45.17Z"/>
      </g>
      <path class="cls-10" d="M418.14,237.51s-14.7-49.13,30.12-33.76c0,0-25.33-2.42-30.12,33.76Z"/>
      <path class="cls-10" d="M420.13,238s24.35-45.13,45.17-2.58c0,0-16.2-19.62-45.17,2.58Z"/>
      <path class="cls-10" d="M421.35,239.51s49.13-14.7,33.76,30.12c0,0,2.42-25.33-33.76-30.12Z"/>
      <path class="cls-10" d="M420.34,241.08s45.13,24.35,2.58,45.17c0,0,19.62-16.2-2.58-45.17Z"/>
      <path class="cls-10" d="M418.59,242.15s14.7,49.13-30.12,33.76c0,0,25.33,2.42,30.12-33.76Z"/>
      <path class="cls-10" d="M416.66,241.93s-24.35,45.13-45.17,2.58c0,0,16.2,19.62,45.17-2.58Z"/>
      <path class="cls-10" d="M415.71,239.72s-49.13,14.7-33.76-30.12c0,0-2.42,25.33,33.76,30.12Z"/>
      <path class="cls-10" d="M415.92,237.79s-45.13-24.35-2.58-45.17c0,0-19.62,16.2,2.58,45.17Z"/>
      <path class="cls-10" d="M535.76,133.54s-14.7-49.13,30.12-33.76c0,0-25.33-2.42-30.12,33.76Z"/>
      <path class="cls-10" d="M537.75,134.02s24.35-45.13,45.17-2.58c0,0-16.2-19.62-45.17,2.58Z"/>
      <path class="cls-10" d="M538.97,135.54s49.13-14.7,33.76,30.12c0,0,2.42-25.33-33.76-30.12Z"/>
      <path class="cls-10" d="M537.96,137.1s45.13,24.35,2.58,45.17c0,0,19.62-16.2-2.58-45.17Z"/>
      <path class="cls-10" d="M536.21,138.17s14.7,49.13-30.12,33.76c0,0,25.33,2.42,30.12-33.76Z"/>
      <path class="cls-10" d="M534.28,137.96s-24.35,45.13-45.17,2.58c0,0,16.2,19.62,45.17-2.58Z"/>
      <path class="cls-10" d="M533.33,135.74s-49.13,14.7-33.76-30.12c0,0-2.42,25.33,33.76,30.12Z"/>
      <path class="cls-10" d="M533.54,133.82s-45.13-24.35-2.58-45.17c0,0-19.62,16.2,2.58,45.17Z"/>
      <circle class="cls-29" cx="338.77" cy="211.63" r="9"/>
      <circle class="cls-29" cx="281.96" cy="91.69" r="9"/>
      <circle class="cls-29" cx="231.87" cy="291.43" r="9"/>
      <circle class="cls-29" cx="395.71" cy="328.2" r="9"/>
      <path class="cls-10" d="M531.01,152.17s24.35-45.13,45.17-2.58c0,0-16.2-19.62-45.17,2.58Z"/>
      <path class="cls-10" d="M532.22,153.69s49.13-14.7,33.76,30.12c0,0,2.42-25.33-33.76-30.12Z"/>
      <path class="cls-10" d="M531.22,155.25s45.13,24.35,2.58,45.17c0,0,19.62-16.2-2.58-45.17Z"/>
      <path class="cls-10" d="M529.46,156.32s14.7,49.13-30.12,33.76c0,0,25.33,2.42,30.12-33.76Z"/>
      <g>
        <path class="cls-10" d="M589.33,274.05s-14.7-49.13,30.12-33.76c0,0-25.33-2.42-30.12,33.76Z"/>
        <path class="cls-10" d="M591.32,274.53s24.35-45.13,45.17-2.58c0,0-16.2-19.62-45.17,2.58Z"/>
        <path class="cls-10" d="M592.53,276.04s49.13-14.7,33.76,30.12c0,0,2.42-25.33-33.76-30.12Z"/>
        <path class="cls-10" d="M591.53,277.61s45.13,24.35,2.58,45.17c0,0,19.62-16.2-2.58-45.17Z"/>
        <path class="cls-10" d="M589.78,278.68s14.7,49.13-30.12,33.76c0,0,25.33,2.42,30.12-33.76Z"/>
        <path class="cls-10" d="M587.85,278.47s-24.35,45.13-45.17,2.58c0,0,16.2,19.62,45.17-2.58Z"/>
        <path class="cls-10" d="M586.89,276.25s-49.13,14.7-33.76-30.12c0,0-2.42,25.33,33.76,30.12Z"/>
        <path class="cls-10" d="M587.11,274.32s-45.13-24.35-2.58-45.17c0,0-19.62,16.2,2.58,45.17Z"/>
      </g>
      <path class="cls-46" d="M702.4,200.41s-14.7-49.13,30.12-33.76c0,0-25.33-2.42-30.12,33.76Z"/>
      <path class="cls-46" d="M704.39,200.9s24.35-45.13,45.17-2.58c0,0-16.2-19.62-45.17,2.58Z"/>
      <path class="cls-46" d="M705.61,202.41s49.13-14.7,33.76,30.12c0,0,2.42-25.33-33.76-30.12Z"/>
      <path class="cls-46" d="M704.6,203.98s45.13,24.35,2.58,45.17c0,0,19.62-16.2-2.58-45.17Z"/>
      <path class="cls-46" d="M702.85,205.05s14.7,49.13-30.12,33.76c0,0,25.33,2.42,30.12-33.76Z"/>
      <path class="cls-46" d="M700.92,204.83s-24.35,45.13-45.17,2.58c0,0,16.2,19.62,45.17-2.58Z"/>
      <path class="cls-46" d="M699.97,202.62s-49.13,14.7-33.76-30.12c0,0-2.42,25.33,33.76,30.12Z"/>
      <path class="cls-46" d="M700.18,200.69s-45.13-24.35-2.58-45.17c0,0-19.62,16.2,2.58,45.17Z"/>
      <circle class="cls-29" cx="613.65" cy="172.25" r="9"/>
      <circle class="cls-29" cx="506.75" cy="252.05" r="9"/>
      <circle class="cls-29" cx="677.69" cy="300.48" r="9"/>
      <g>
        <path class="cls-10" d="M481.07,347.82s-14.7-49.13,30.12-33.76c0,0-25.33-2.42-30.12,33.76Z"/>
        <path class="cls-10" d="M483.06,348.31s24.35-45.13,45.17-2.58c0,0-16.2-19.62-45.17,2.58Z"/>
        <path class="cls-10" d="M484.27,349.82s49.13-14.7,33.76,30.12c0,0,2.42-25.33-33.76-30.12Z"/>
        <path class="cls-10" d="M483.27,351.39s45.13,24.35,2.58,45.17c0,0,19.62-16.2-2.58-45.17Z"/>
        <path class="cls-10" d="M481.52,352.45s14.7,49.13-30.12,33.76c0,0,25.33,2.42,30.12-33.76Z"/>
        <path class="cls-10" d="M479.59,352.24s-24.35,45.13-45.17,2.58c0,0,16.2,19.62,45.17-2.58Z"/>
        <path class="cls-10" d="M478.64,350.02s-49.13,14.7-33.76-30.12c0,0-2.42,25.33,33.76,30.12Z"/>
        <path class="cls-10" d="M478.85,348.1s-45.13-24.35-2.58-45.17c0,0-19.62,16.2,2.58,45.17Z"/>
      </g>
      <g>
        <path class="cls-46" d="M647.56,390.47s-14.7-49.13,30.12-33.76c0,0-25.33-2.42-30.12,33.76Z"/>
        <path class="cls-46" d="M649.56,390.96s24.35-45.13,45.17-2.58c0,0-16.2-19.62-45.17,2.58Z"/>
        <path class="cls-46" d="M650.77,392.47s49.13-14.7,33.76,30.12c0,0,2.42-25.33-33.76-30.12Z"/>
        <path class="cls-46" d="M649.77,394.04s45.13,24.35,2.58,45.17c0,0,19.62-16.2-2.58-45.17Z"/>
        <path class="cls-46" d="M648.01,395.11s14.7,49.13-30.12,33.76c0,0,25.33,2.42,30.12-33.76Z"/>
        <path class="cls-46" d="M646.09,394.89s-24.35,45.13-45.17,2.58c0,0,16.2,19.62,45.17-2.58Z"/>
        <path class="cls-46" d="M645.13,392.68s-49.13,14.7-33.76-30.12c0,0-2.42,25.33,33.76,30.12Z"/>
        <path class="cls-46" d="M645.34,390.75s-45.13-24.35-2.58-45.17c0,0-19.62,16.2,2.58,45.17Z"/>
      </g>
      <circle class="cls-29" cx="580.54" cy="373.6" r="9"/>
      <path class="cls-46" d="M208.25,386.06s-14.7-49.13,30.12-33.76c0,0-25.33-2.42-30.12,33.76Z"/>
      <path class="cls-10" d="M210.24,386.54s24.35-45.13,45.17-2.58c0,0-16.2-19.62-45.17,2.58Z"/>
      <path class="cls-10" d="M211.46,388.05s49.13-14.7,33.76,30.12c0,0,2.42-25.33-33.76-30.12Z"/>
      <path class="cls-10" d="M210.45,389.62s45.13,24.35,2.58,45.17c0,0,19.62-16.2-2.58-45.17Z"/>
      <path class="cls-46" d="M208.7,390.69s14.7,49.13-30.12,33.76c0,0,25.33,2.42,30.12-33.76Z"/>
      <path class="cls-46" d="M206.77,390.48s-24.35,45.13-45.17,2.58c0,0,16.2,19.62,45.17-2.58Z"/>
      <path class="cls-46" d="M205.82,388.26s-49.13,14.7-33.76-30.12c0,0-2.42,25.33,33.76,30.12Z"/>
      <path class="cls-46" d="M206.03,386.33s-45.13-24.35-2.58-45.17c0,0-19.62,16.2,2.58,45.17Z"/>
      <g>
        <path class="cls-10" d="M268.08,510.4s-14.7-49.13,30.12-33.76c0,0-25.33-2.42-30.12,33.76Z"/>
        <path class="cls-10" d="M270.07,510.88s24.35-45.13,45.17-2.58c0,0-16.2-19.62-45.17,2.58Z"/>
        <path class="cls-10" d="M271.28,512.4s49.13-14.7,33.76,30.12c0,0,2.42-25.33-33.76-30.12Z"/>
        <path class="cls-10" d="M270.28,513.96s45.13,24.35,2.58,45.17c0,0,19.62-16.2-2.58-45.17Z"/>
        <path class="cls-10" d="M268.53,515.03s14.7,49.13-30.12,33.76c0,0,25.33,2.42,30.12-33.76Z"/>
        <path class="cls-10" d="M266.6,514.82s-24.35,45.13-45.17,2.58c0,0,16.2,19.62,45.17-2.58Z"/>
        <path class="cls-10" d="M265.65,512.6s-49.13,14.7-33.76-30.12c0,0-2.42,25.33,33.76,30.12Z"/>
        <path class="cls-10" d="M265.86,510.68s-45.13-24.35-2.58-45.17c0,0-19.62,16.2,2.58,45.17Z"/>
      </g>
      <g>
        <path class="cls-46" d="M162.31,591.19s49.13-14.7,33.76,30.12c0,0,2.42-25.33-33.76-30.12Z"/>
        <path class="cls-46" d="M161.31,592.76s45.13,24.35,2.58,45.17c0,0,19.62-16.2-2.58-45.17Z"/>
        <path class="cls-46" d="M159.55,593.83s14.7,49.13-30.12,33.76c0,0,25.33,2.42,30.12-33.76Z"/>
        <path class="cls-46" d="M157.63,593.61s-24.35,45.13-45.17,2.58c0,0,16.2,19.62,45.17-2.58Z"/>
        <path class="cls-46" d="M156.67,591.4s-49.13,14.7-33.76-30.12c0,0-2.42,25.33,33.76,30.12Z"/>
        <path class="cls-46" d="M156.89,589.47s-45.13-24.35-2.58-45.17c0,0-19.62,16.2,2.58,45.17Z"/>
      </g>
      <path class="cls-10" d="M372.26,432.5s-14.7-49.13,30.12-33.76c0,0-25.33-2.42-30.12,33.76Z"/>
      <path class="cls-10" d="M374.25,432.99s24.35-45.13,45.17-2.58c0,0-16.2-19.62-45.17,2.58Z"/>
      <path class="cls-10" d="M375.46,434.5s49.13-14.7,33.76,30.12c0,0,2.42-25.33-33.76-30.12Z"/>
      <path class="cls-10" d="M374.46,436.07s45.13,24.35,2.58,45.17c0,0,19.62-16.2-2.58-45.17Z"/>
      <path class="cls-10" d="M372.71,437.13s14.7,49.13-30.12,33.76c0,0,25.33,2.42,30.12-33.76Z"/>
      <path class="cls-10" d="M370.78,436.92s-24.35,45.13-45.17,2.58c0,0,16.2,19.62,45.17-2.58Z"/>
      <path class="cls-10" d="M369.82,434.7s-49.13,14.7-33.76-30.12c0,0-2.42,25.33,33.76,30.12Z"/>
      <path class="cls-10" d="M370.04,432.78s-45.13-24.35-2.58-45.17c0,0-19.62,16.2,2.58,45.17Z"/>
      <circle class="cls-29" cx="292.88" cy="406.61" r="9"/>
      <circle class="cls-29" cx="184.36" cy="493.09" r="9"/>
      <circle class="cls-29" cx="348.21" cy="529.86" r="9"/>
      <g>
        <path class="cls-10" d="M543.44,469.03s-14.7-49.13,30.12-33.76c0,0-25.33-2.42-30.12,33.76Z"/>
        <path class="cls-10" d="M545.44,469.52s24.35-45.13,45.17-2.58c0,0-16.2-19.62-45.17,2.58Z"/>
        <path class="cls-10" d="M546.65,471.03s49.13-14.7,33.76,30.12c0,0,2.42-25.33-33.76-30.12Z"/>
        <path class="cls-10" d="M545.64,472.6s45.13,24.35,2.58,45.17c0,0,19.62-16.2-2.58-45.17Z"/>
        <path class="cls-10" d="M543.89,473.67s14.7,49.13-30.12,33.76c0,0,25.33,2.42,30.12-33.76Z"/>
        <path class="cls-10" d="M541.97,473.45s-24.35,45.13-45.17,2.58c0,0,16.2,19.62,45.17-2.58Z"/>
        <path class="cls-10" d="M541.01,471.24s-49.13,14.7-33.76-30.12c0,0-2.42,25.33,33.76,30.12Z"/>
        <path class="cls-10" d="M541.22,469.31s-45.13-24.35-2.58-45.17c0,0-19.62,16.2,2.58,45.17Z"/>
      </g>
      <circle class="cls-29" cx="460.87" cy="447.04" r="9"/>
      <circle class="cls-29" cx="631.81" cy="495.46" r="9"/>
      <g>
        <path class="cls-10" d="M433.56,549.49s-14.7-49.13,30.12-33.76c0,0-25.33-2.42-30.12,33.76Z"/>
        <path class="cls-10" d="M435.56,549.97s24.35-45.13,45.17-2.58c0,0-16.2-19.62-45.17,2.58Z"/>
        <path class="cls-10" d="M436.77,551.48s49.13-14.7,33.76,30.12c0,0,2.42-25.33-33.76-30.12Z"/>
        <path class="cls-10" d="M435.77,553.05s45.13,24.35,2.58,45.17c0,0,19.62-16.2-2.58-45.17Z"/>
        <path class="cls-10" d="M434.01,554.12s14.7,49.13-30.12,33.76c0,0,25.33,2.42,30.12-33.76Z"/>
        <path class="cls-10" d="M432.09,553.91s-24.35,45.13-45.17,2.58c0,0,16.2,19.62,45.17-2.58Z"/>
        <path class="cls-10" d="M431.13,551.69s-49.13,14.7-33.76-30.12c0,0-2.42,25.33,33.76,30.12Z"/>
        <path class="cls-10" d="M431.34,549.76s-45.13-24.35-2.58-45.17c0,0-19.62,16.2,2.58,45.17Z"/>
      </g>
      <g>
        <path class="cls-10" d="M600.06,592.14s-14.7-49.13,30.12-33.76c0,0-25.33-2.42-30.12,33.76Z"/>
        <path class="cls-10" d="M602.05,592.62s24.35-45.13,45.17-2.58c0,0-16.2-19.62-45.17,2.58Z"/>
        <path class="cls-10" d="M603.26,594.13s49.13-14.7,33.76,30.12c0,0,2.42-25.33-33.76-30.12Z"/>
        <path class="cls-10" d="M602.26,595.7s45.13,24.35,2.58,45.17c0,0,19.62-16.2-2.58-45.17Z"/>
        <path class="cls-10" d="M600.51,596.77s14.7,49.13-30.12,33.76c0,0,25.33,2.42,30.12-33.76Z"/>
        <path class="cls-10" d="M598.58,596.56s-24.35,45.13-45.17,2.58c0,0,16.2,19.62,45.17-2.58Z"/>
        <path class="cls-10" d="M597.63,594.34s-49.13,14.7-33.76-30.12c0,0-2.42,25.33,33.76,30.12Z"/>
        <path class="cls-10" d="M597.84,592.41s-45.13-24.35-2.58-45.17c0,0-19.62,16.2,2.58,45.17Z"/>
      </g>
      <circle class="cls-29" cx="513.69" cy="568.95" r="9"/>
      <g>
        <path class="cls-10" d="M328.71,636.69s-14.7-49.13,30.12-33.76c0,0-25.33-2.42-30.12,33.76Z"/>
        <path class="cls-10" d="M330.7,637.18s24.35-45.13,45.17-2.58c0,0-16.2-19.62-45.17,2.58Z"/>
        <path class="cls-10" d="M331.91,638.69s49.13-14.7,33.76,30.12c0,0,2.42-25.33-33.76-30.12Z"/>
        <path class="cls-10" d="M330.91,640.25s45.13,24.35,2.58,45.17c0,0,19.62-16.2-2.58-45.17Z"/>
        <path class="cls-10" d="M329.16,641.32s14.7,49.13-30.12,33.76c0,0,25.33,2.42,30.12-33.76Z"/>
        <path class="cls-10" d="M327.23,641.11s-24.35,45.13-45.17,2.58c0,0,16.2,19.62,45.17-2.58Z"/>
        <path class="cls-10" d="M326.28,638.89s-49.13,14.7-33.76-30.12c0,0-2.42,25.33,33.76,30.12Z"/>
        <path class="cls-10" d="M326.49,636.97s-45.13-24.35-2.58-45.17c0,0-19.62,16.2,2.58,45.17Z"/>
      </g>
      <circle class="cls-29" cx="244.99" cy="619.39" r="9"/>
      <circle class="cls-29" cx="408.83" cy="656.15" r="9"/>
      <g>
        <path class="cls-10" d="M494.19,675.78s-14.7-49.13,30.12-33.76c0,0-25.33-2.42-30.12,33.76Z"/>
        <path class="cls-10" d="M496.19,676.26s24.35-45.13,45.17-2.58c0,0-16.2-19.62-45.17,2.58Z"/>
        <path class="cls-10" d="M497.4,677.77s49.13-14.7,33.76,30.12c0,0,2.42-25.33-33.76-30.12Z"/>
        <path class="cls-10" d="M496.39,679.34s45.13,24.35,2.58,45.17c0,0,19.62-16.2-2.58-45.17Z"/>
        <path class="cls-10" d="M494.64,680.41s14.7,49.13-30.12,33.76c0,0,25.33,2.42,30.12-33.76Z"/>
        <path class="cls-10" d="M492.72,680.2s-24.35,45.13-45.17,2.58c0,0,16.2,19.62,45.17-2.58Z"/>
        <path class="cls-10" d="M491.76,677.98s-49.13,14.7-33.76-30.12c0,0-2.42,25.33,33.76,30.12Z"/>
        <path class="cls-10" d="M491.97,676.05s-45.13-24.35-2.58-45.17c0,0-19.62,16.2,2.58,45.17Z"/>
      </g>
      <circle class="cls-29" cx="574.32" cy="695.24" r="9"/>
      <g>
        <circle class="cls-23" cx="475.07" cy="764.65" r="20.85"/>
        <path class="cls-3" d="M479.02,785.12c-11.31,2.18-22.24-5.21-24.42-16.52s5.21-22.24,16.52-24.42c11.3-2.18,22.24,5.21,24.42,16.52s-5.21,22.24-16.52,24.42Z"/>
      </g>
      <g>
        <circle class="cls-23" cx="145.74" cy="688.8" r="20.85"/>
        <path class="cls-3" d="M149.69,709.27c-11.3,2.18-22.24-5.21-24.42-16.52-2.18-11.3,5.21-22.24,16.52-24.42,11.31-2.18,22.24,5.21,24.42,16.52,2.18,11.3-5.21,22.24-16.52,24.42Z"/>
      </g>
      <g>
        <circle class="cls-23" cx="309.58" cy="725.57" r="20.85"/>
        <path class="cls-3" d="M313.53,746.04c-11.31,2.18-22.24-5.21-24.42-16.52s5.21-22.24,16.52-24.42c11.3-2.18,22.24,5.21,24.42,16.52s-5.21,22.24-16.52,24.42Z"/>
      </g>
      <g>
        <path class="cls-10" d="M229.45,706.1s-14.7-49.13,30.12-33.76c0,0-25.33-2.42-30.12,33.76Z"/>
        <path class="cls-10" d="M231.45,706.59s24.35-45.13,45.17-2.58c0,0-16.2-19.62-45.17,2.58Z"/>
        <path class="cls-10" d="M232.66,708.1s49.13-14.7,33.76,30.12c0,0,2.42-25.33-33.76-30.12Z"/>
        <path class="cls-10" d="M231.66,709.67s45.13,24.35,2.58,45.17c0,0,19.62-16.2-2.58-45.17Z"/>
        <path class="cls-10" d="M229.9,710.74s14.7,49.13-30.12,33.76c0,0,25.33,2.42,30.12-33.76Z"/>
        <path class="cls-10" d="M227.98,710.52s-24.35,45.13-45.17,2.58c0,0,16.2,19.62,45.17-2.58Z"/>
        <path class="cls-10" d="M227.02,708.31s-49.13,14.7-33.76-30.12c0,0-2.42,25.33,33.76,30.12Z"/>
        <path class="cls-10" d="M227.24,706.38s-45.13-24.35-2.58-45.17c0,0-19.62,16.2,2.58,45.17Z"/>
      </g>
      <circle class="cls-29" cx="145.74" cy="688.8" r="9"/>
      <circle class="cls-29" cx="309.58" cy="725.57" r="9"/>
      <g>
        <path class="cls-10" d="M394.94,745.19s-14.7-49.13,30.12-33.76c0,0-25.33-2.42-30.12,33.76Z"/>
        <path class="cls-10" d="M396.93,745.68s24.35-45.13,45.17-2.58c0,0-16.2-19.62-45.17,2.58Z"/>
        <path class="cls-10" d="M398.15,747.19s49.13-14.7,33.76,30.12c0,0,2.42-25.33-33.76-30.12Z"/>
        <path class="cls-10" d="M397.14,748.75s45.13,24.35,2.58,45.17c0,0,19.62-16.2-2.58-45.17Z"/>
        <path class="cls-10" d="M395.39,749.82s14.7,49.13-30.12,33.76c0,0,25.33,2.42,30.12-33.76Z"/>
        <path class="cls-10" d="M393.46,749.61s-24.35,45.13-45.17,2.58c0,0,16.2,19.62,45.17-2.58Z"/>
        <path class="cls-10" d="M392.51,747.39s-49.13,14.7-33.76-30.12c0,0-2.42,25.33,33.76,30.12Z"/>
        <path class="cls-10" d="M392.72,745.47s-45.13-24.35-2.58-45.17c0,0-19.62,16.2,2.58,45.17Z"/>
      </g>
      <g>
        <path class="cls-46" d="M561.43,787.84s-14.7-49.13,30.12-33.76c0,0-25.33-2.42-30.12,33.76Z"/>
        <path class="cls-46" d="M563.43,788.33s24.35-45.13,45.17-2.58c0,0-16.2-19.62-45.17,2.58Z"/>
        <path class="cls-46" d="M564.64,789.84s49.13-14.7,33.76,30.12c0,0,2.42-25.33-33.76-30.12Z"/>
        <path class="cls-46" d="M563.64,791.41s45.13,24.35,2.58,45.17c0,0,19.62-16.2-2.58-45.17Z"/>
        <path class="cls-46" d="M561.88,792.47s14.7,49.13-30.12,33.76c0,0,25.33,2.42,30.12-33.76Z"/>
        <path class="cls-46" d="M559.96,792.26s-24.35,45.13-45.17,2.58c0,0,16.2,19.62,45.17-2.58Z"/>
        <path class="cls-46" d="M559,790.04s-49.13,14.7-33.76-30.12c0,0-2.42,25.33,33.76,30.12Z"/>
        <path class="cls-46" d="M559.22,788.12s-45.13-24.35-2.58-45.17c0,0-19.62,16.2,2.58,45.17Z"/>
      </g>
      <circle class="cls-29" cx="475.07" cy="764.65" r="9"/>
      <g>
        <circle class="cls-23" cx="544.94" cy="872.41" r="20.85"/>
        <path class="cls-3" d="M548.89,892.88c-11.31,2.18-22.24-5.21-24.42-16.52s5.21-22.24,16.52-24.42c11.31-2.18,22.24,5.21,24.42,16.52s-5.21,22.24-16.52,24.42Z"/>
      </g>
      <g>
        <circle class="cls-23" cx="215.61" cy="796.55" r="20.85"/>
        <path class="cls-3" d="M219.57,817.02c-11.31,2.18-22.24-5.21-24.42-16.52-2.18-11.31,5.21-22.24,16.52-24.42,11.3-2.18,22.24,5.21,24.42,16.52,2.18,11.31-5.21,22.24-16.52,24.42Z"/>
      </g>
      <g>
        <circle class="cls-23" cx="379.46" cy="833.32" r="20.85"/>
        <path class="cls-3" d="M383.41,853.79c-11.3,2.18-22.24-5.21-24.42-16.52-2.18-11.31,5.21-22.24,16.52-24.42,11.31-2.18,22.24,5.21,24.42,16.52,2.18,11.31-5.21,22.24-16.52,24.42Z"/>
      </g>
      <g>
        <path class="cls-46" d="M299.33,813.86s-14.7-49.13,30.12-33.76c0,0-25.33-2.42-30.12,33.76Z"/>
        <path class="cls-46" d="M301.32,814.34s24.35-45.13,45.17-2.58c0,0-16.2-19.62-45.17,2.58Z"/>
        <path class="cls-46" d="M302.53,815.85s49.13-14.7,33.76,30.12c0,0,2.42-25.33-33.76-30.12Z"/>
        <path class="cls-46" d="M301.53,817.42s45.13,24.35,2.58,45.17c0,0,19.62-16.2-2.58-45.17Z"/>
        <path class="cls-46" d="M299.78,818.49s14.7,49.13-30.12,33.76c0,0,25.33,2.42,30.12-33.76Z"/>
        <path class="cls-46" d="M297.85,818.28s-24.35,45.13-45.17,2.58c0,0,16.2,19.62,45.17-2.58Z"/>
        <path class="cls-46" d="M296.9,816.06s-49.13,14.7-33.76-30.12c0,0-2.42,25.33,33.76,30.12Z"/>
        <path class="cls-46" d="M297.11,814.13s-45.13-24.35-2.58-45.17c0,0-19.62,16.2,2.58,45.17Z"/>
      </g>
      <circle class="cls-29" cx="215.61" cy="796.55" r="9"/>
      <circle class="cls-29" cx="379.46" cy="833.32" r="9"/>
      <g>
        <path class="cls-46" d="M464.81,852.94s-14.7-49.13,30.12-33.76c0,0-25.33-2.42-30.12,33.76Z"/>
        <path class="cls-46" d="M466.81,853.43s24.35-45.13,45.17-2.58c0,0-16.2-19.62-45.17,2.58Z"/>
        <path class="cls-46" d="M468.02,854.94s49.13-14.7,33.76,30.12c0,0,2.42-25.33-33.76-30.12Z"/>
        <path class="cls-46" d="M467.02,856.51s45.13,24.35,2.58,45.17c0,0,19.62-16.2-2.58-45.17Z"/>
        <path class="cls-46" d="M465.26,857.58s14.7,49.13-30.12,33.76c0,0,25.33,2.42,30.12-33.76Z"/>
        <path class="cls-46" d="M463.34,857.36s-24.35,45.13-45.17,2.58c0,0,16.2,19.62,45.17-2.58Z"/>
        <path class="cls-46" d="M462.38,855.15s-49.13,14.7-33.76-30.12c0,0-2.42,25.33,33.76,30.12Z"/>
        <path class="cls-46" d="M462.59,853.22s-45.13-24.35-2.58-45.17c0,0-19.62,16.2,2.58,45.17Z"/>
      </g>
      <circle class="cls-29" cx="544.94" cy="872.41" r="9"/>
      <g>
        <circle class="cls-23" cx="650.46" cy="762.84" r="20.85"/>
        <path class="cls-3" d="M654.41,783.31c-11.31,2.18-22.24-5.21-24.42-16.52-2.18-11.3,5.21-22.24,16.52-24.42,11.3-2.18,22.24,5.21,24.42,16.52s-5.21,22.24-16.52,24.42Z"/>
      </g>
      <circle class="cls-29" cx="650.46" cy="762.84" r="9"/>
      <path class="cls-46" d="M753.26,1.02s49.13-14.7,33.76,30.12c0,0,2.42-25.33-33.76-30.12Z"/>
      <path class="cls-46" d="M752.26,2.59s45.13,24.35,2.58,45.17c0,0,19.62-16.2-2.58-45.17Z"/>
      <path class="cls-46" d="M750.5,3.66s14.7,49.13-30.12,33.76c0,0,25.33,2.42,30.12-33.76Z"/>
      <path class="cls-46" d="M748.58,3.45s-24.35,45.13-45.17,2.58c0,0,16.2,19.62,45.17-2.58Z"/>
      <path class="cls-46" d="M747.62,1.23s-49.13,14.7-33.76-30.12c0,0-2.42,25.33,33.76,30.12Z"/>
      <g>
        <path class="cls-46" d="M306.56-4.54s49.13-14.7,33.76,30.12c0,0,2.42-25.33-33.76-30.12Z"/>
        <path class="cls-46" d="M305.56-2.98s45.13,24.35,2.58,45.17c0,0,19.62-16.2-2.58-45.17Z"/>
        <path class="cls-46" d="M303.81-1.91s14.7,49.13-30.12,33.76c0,0,25.33,2.42,30.12-33.76Z"/>
        <path class="cls-46" d="M301.88-2.12s-24.35,45.13-45.17,2.58c0,0,16.2,19.62,45.17-2.58Z"/>
      </g>
      <circle class="cls-29" cx="727.79" cy="99.39" r="9"/>
      <circle class="cls-29" cx="383.49" cy="12.92" r="9"/>
      <g>
        <path class="cls-46" d="M579.3-37.67s45.13,24.35,2.58,45.17c0,0,19.62-16.2-2.58-45.17Z"/>
        <path class="cls-46" d="M577.55-36.6s14.7,49.13-30.12,33.76c0,0,25.33,2.42,30.12-33.76Z"/>
      </g>
      <g>
        <path class="cls-10" d="M468.84,32.55s-14.7-49.13,30.12-33.76c0,0-25.33-2.42-30.12,33.76Z"/>
        <path class="cls-10" d="M470.84,33.03s24.35-45.13,45.17-2.58c0,0-16.2-19.62-45.17,2.58Z"/>
        <path class="cls-10" d="M472.05,34.54s49.13-14.7,33.76,30.12c0,0,2.42-25.33-33.76-30.12Z"/>
        <path class="cls-10" d="M471.05,36.11s45.13,24.35,2.58,45.17c0,0,19.62-16.2-2.58-45.17Z"/>
        <path class="cls-10" d="M469.29,37.18s14.7,49.13-30.12,33.76c0,0,25.33,2.42,30.12-33.76Z"/>
        <path class="cls-10" d="M467.37,36.97s-24.35,45.13-45.17,2.58c0,0,16.2,19.62,45.17-2.58Z"/>
        <path class="cls-10" d="M466.41,34.75s-49.13,14.7-33.76-30.12c0,0-2.42,25.33,33.76,30.12Z"/>
        <path class="cls-10" d="M466.63,32.82s-45.13-24.35-2.58-45.17c0,0-19.62,16.2,2.58,45.17Z"/>
      </g>
      <g>
        <path class="cls-10" d="M635.34,75.2s-14.7-49.13,30.12-33.76c0,0-25.33-2.42-30.12,33.76Z"/>
        <path class="cls-10" d="M637.33,75.68s24.35-45.13,45.17-2.58c0,0-16.2-19.62-45.17,2.58Z"/>
        <path class="cls-10" d="M638.54,77.2s49.13-14.7,33.76,30.12c0,0,2.42-25.33-33.76-30.12Z"/>
        <path class="cls-10" d="M637.54,78.76s45.13,24.35,2.58,45.17c0,0,19.62-16.2-2.58-45.17Z"/>
        <path class="cls-10" d="M635.79,79.83s14.7,49.13-30.12,33.76c0,0,25.33,2.42,30.12-33.76Z"/>
        <path class="cls-10" d="M633.86,79.62s-24.35,45.13-45.17,2.58c0,0,16.2,19.62,45.17-2.58Z"/>
        <path class="cls-10" d="M632.91,77.4s-49.13,14.7-33.76-30.12c0,0-2.42,25.33,33.76,30.12Z"/>
        <path class="cls-10" d="M633.12,75.48s-45.13-24.35-2.58-45.17c0,0-19.62,16.2,2.58,45.17Z"/>
      </g>
      <circle class="cls-29" cx="548.97" cy="52.01" r="9"/>
      <circle class="cls-29" cx="446.9" cy="131.75" r="9"/>
    </g>
    <path class="cls-40" d="M496.12,80.49c-5.84,2.78-11.26,6.79-16.24,10.86-11.89,9.74-21.8,21.88-28.85,35.55-8.2,15.88-11.97,33.51-14.05,51.15-1.93,16.43-2.42,33.03-2.1,49.56.11,5.79.33,11.57.67,17.35.17,2.84.22,5.75.61,8.56.02.13.02.26.03.38.06.66,1.51.31,1.45-.39-.66-7.04-.96-14.12-1.17-21.18-.47-15.77-.2-31.6,1.24-47.32,1.59-17.34,4.49-34.95,11.43-51.03,6.43-14.9,16.18-28.31,28.32-39.09,5.8-5.14,12.12-9.81,19-13.41.1-.05.2-.1.3-.15.89-.42.1-1.21-.64-.85h0Z"/>
    <path class="cls-40" d="M385.12,271.29c.06,3.92.31,7.85.58,11.76.67,9.69,1.74,19.36,3.2,28.97,1.88,12.35,4.43,24.62,7.99,36.59s8.25,24.02,14.9,34.79c5.99,9.71,13.85,18.61,24.06,23.98,1.22.64,2.46,1.22,3.73,1.75.43.18,1.75-.45,1.15-.7-10.61-4.45-18.97-12.73-25.36-22.14-7.06-10.39-11.98-22.16-15.8-34.08s-6.59-24.4-8.64-36.86c-1.63-9.95-2.82-19.97-3.59-30.01-.25-3.23-.46-6.47-.61-9.71-.05-.99-.09-1.98-.12-2.98-.02-.46.09-1.13-.04-1.57-.02-.05,0-.13,0-.19,0-.45-1.46-.17-1.45.39h0Z"/>
    <path class="cls-40" d="M454.56,298.27c1.66,11.94,3.71,23.86,7.29,35.39,3.39,10.94,8.05,21.83,14.87,31.08,6.02,8.17,13.76,15.25,22.86,19.83,4.51,2.27,9.36,3.92,14.36,4.7,5.44.86,11.06.64,16.54.25,13.29-.96,26.06-4.58,38.48-9.26.96-.36.05-.51-.49-.31-11.09,4.18-22.47,7.55-34.31,8.74-5.77.58-11.78.94-17.56.23-4.96-.61-9.8-2.08-14.32-4.2-9.17-4.3-17.04-11.17-23.19-19.17-6.72-8.74-11.39-19.03-14.87-29.44-4.14-12.41-6.41-25.32-8.21-38.25-.04-.27-1.5.03-1.45.39h0Z"/>
    <path class="cls-40" d="M572.94,394.49c-5.51-.28-11,.35-16.19,2.26s-9.84,4.98-14.09,8.46c-5.62,4.62-11.09,9.44-16.62,14.17-5.24,4.47-10.38,9.27-16.27,12.89-6.68,4.11-14.89,6.51-22.51,3.58-.4-.15-1.72.45-1.16.66,12.78,4.91,25.21-3.48,34.58-11.39,5.69-4.81,11.34-9.67,17.01-14.51,4.88-4.17,9.67-8.51,15.41-11.48,6-3.11,12.56-4.23,19.28-3.88.51.03,1.55-.7.58-.75h0Z"/>
    <path class="cls-40" d="M346.41,334.42c-8.8,25.43,1.06,52.64,8.84,76.99,7.77,24.32,16.01,48.58,26.87,71.72,10.5,22.37,23.58,43.53,40.27,61.83,15.98,17.52,34.83,32.42,55.57,43.9,10.65,5.9,21.81,11.02,33.38,14.84,12.35,4.08,25.38,6.61,38.43,5.93,3.13-.16,6.25-.52,9.35-1.06.61-.11,1.26-.79.25-.61-25.8,4.48-52.09-5.05-74.72-16.77-20.72-10.73-39.7-24.83-55.98-41.55s-30.72-37.91-41.64-59.77c-11.27-22.57-19.78-46.39-27.58-70.35-3.99-12.25-8.15-24.53-11.23-37.05-3.14-12.75-5.08-26.16-2.75-39.21.55-3.09,1.35-6.13,2.38-9.1.12-.34-1.3-.17-1.43.23h0Z"/>
    <path d="M1047.7,578.72c-1.2,1.72-2.41,3.45-3.29,5.35-3.38,7.26-1.24,16.68,4.94,21.76,6.18,5.09,15.84,5.37,22.31.65.72-.52,1.65-1.13,2.42-.67.37.22.57.63.8.98,1.53,2.28,4.81,2.5,7.5,1.95,10.53-2.18,18.19-13.63,16.18-24.2-.17-.91-.4-1.88-.04-2.73.85-1.99,3.75-1.52,5.83-2.11,4-1.13,4.88-6.31,5-10.47.08-2.68.1-5.58-1.5-7.73-3.33-4.5-3.34-8.31-8.76-9.7,0,0,8.58-6.55,4.67-13.79-3.91-7.25-22.29-5.63-22.29-5.63"/>
    <path class="cls-5" d="M1080.54,544.5l-13.27,21.88-7.05-73.01s-73.31-26.76-82.22-27.68c-8.92-.92-21.76,15.78-21.76,15.78,2.98-7.45,8.85-29.03,19.71-31.5,4.53-1.03,10.85,1.46,10.85,1.46,0,0,7.2-6.52,15.84-8.58,8.64-2.06,18.08,5.41,18.08,5.41,0,0,4.56-4.35,13.81-3.82,9.25.53,16.37,10.55,16.37,10.55,0,0,11.29-4,19.85,4.08,7.21,6.81,8.48,14.4,8.48,14.4,18.49,5.2,20.39,20.4,17,35.41,2.44,1.83,5,4.29,5.98,7.06.13.36.22.77.33,1.15,0,.28,0,.57,0,.85-.05,2.07-.21,4.55-.46,6.04-.74,4.43-1.98,7.64-5.24,10.47-.11.1-.15.24-.25.35-1.36.68-2.71,1.4-3.64,2.54-1.24,1.5-1.04,3.47-1.09,5.3-.13,5.45,1.67,10.99.58,16.4-1.29,3.06-2.86,6-4.57,8.85-2.25,1.82-4.7,2.99-7.31,3.29l-4.19-.56s1.02,16.63-9.14,21.36c-10.16,4.73-23.04-.34-23.04-.34,0,0-4.07,14.87-15.38,12.13-11.31-2.74-24.96-26.47-24.96-26.47"/>
    <path class="cls-6" d="M1070.48,580.27c-6.34,7.16-19.89,12.14-28.79,15.73-9.1,3.67-12.81,4.02-22.08,2.09-18.05-3.77-35.37-12.05-48.46-25.37-13.5-13.74-21.25-32.09-22.08-51.64-.57-13.66,1.37-26.85,5.48-39.35.63-1.24,1.64-3.24,2.27-4.48,15.6-22.13,25.1-26.78,50.3-25.13,15.51.86,30.29-5.12,51.07,9.49,4.48,3.15,8.41,10.14,13.97,14.87,8.38,7.13,16.76,17.93,18.75,27.1,2.9,13.41-.89,29.64-4.38,45.01-2.64,11.65-8.01,22.55-15.91,31.5-.05.06-.1.11-.15.17Z"/>
    <path class="cls-22" d="M939.7,529.98c.98-3.81,2.14-8.22,3.57-13.54.41-1.54.85-3.01,1.3-4.46.3-.73.53-1.47.71-2.24,8.31-25.52,20.73-36.54,20.73-36.54,15.82-13.92,37.81-18.36,57.76-11.67,23.62,7.38,40.88,28.05,47.84,45.83,3.47,8.81,3.57,18.59.27,27.47-2.8,7.59-9.73,11.43-14.26,19.24,8.41,2.03,17.34,4.46,8.34,17.98-9.92,14.91-22.67,18.72-28.4,10.46-2.6.68,3.32-4.78.89,1.12-.55.28-6.55,13.65-6.96,14.29-4.16,6.49-12.94,8.92-19.99,10.62-7.41,1.78-15.1,2.97-22.7,3.66-10.68.98-21.99.91-32.72-1.26l.46-1.31c-4.56-1.67-2.57-.5-7.94-3.31-17.7-10.5-17.27-49.4-15.56-59.32,1.45-8.41,4.17-12.41,6.66-17.03Z"/>
    <path class="cls-24" d="M955.76,609.59s22.51,10.32,52.9-1.77c0,0-10.08,8.86-26.07,9.78-15.98.92-27.23-4.43-27.23-4.43l.4-3.57Z"/>
    <g>
      <path d="M1044.83,561.08c.07-.11.89-5.04-1.22.69-1.06,2.88,5.47-5.61,8.5-6.91,1.38-.59,3.01-1.22,4.59-1.42,1.58-.2,6.8.49,8.4.74,2.31.11,6.78,4.73,8.73,5.9.31.25-1.71-3.48-1.39-3.24,10.82-15.08,17.65-28.08,11.08-52.17-1.9-6.94-9.75-16.23-12.12-19.17-14.42-17.66-30.58-23.2-51.42-27.06-24.15-4.47-50.15-1.41-62.57,19.13-3,4.95-4.07,7.08-5.25,12.66,0,0,4.98-11.71,18.29-14.8,13.32-3.1,15.5-2.56,31.41,2.29,18.45,5.55,24.94,4.26,37.52,15.68,11.48,10.45,12.57,16.86,12.57,16.86-.14,3.43,1.04,6.73,1.49,10.1.44,3.32-.01,6.57-.8,9.81-1.61,6.63-4.74,10.02-7.34,16.39-1.61,3.95-5.88,11.45-2.58,15.31,1.47,1.72-.07-.72,2.11-.8Z"/>
      <path class="cls-36" d="M1045.12,561.05c.16-.4.4-1.53.2-1.93-.24-.49-.64-.23-.91.13-.48.63-.75,1.61-1.01,2.34-.07.19-.34.68-.13.88.36.34,1.08-.37,1.31-.57,2.33-2.05,4.21-4.65,6.79-6.41,3.8-2.59,8.32-1.87,12.56-1.28,2.12.29,3.59,1.22,5.27,2.54.86.68,1.7,1.4,2.55,2.09.55.45,1.2,1.1,1.87,1.4.16.07.46,0,.52-.18.11-.35-.48-1.17-.63-1.47s-.94-1.44-.82-1.79l-.52.18h.03c.16.08.4.02.5-.12,3.95-5.51,7.74-11.21,10.3-17.51,2.65-6.51,3.7-13.48,3.28-20.49-.26-4.36-1.04-8.67-2.12-12.9-.91-3.54-2.49-6.7-4.45-9.77-3.63-5.7-8.01-11.21-12.73-16.04-5.24-5.37-11.32-9.85-18.05-13.18s-13.55-5.38-20.65-7c-14.52-3.33-29.92-5.15-44.54-1.34-6.57,1.71-12.85,4.62-18.09,8.99-2.73,2.28-5.15,4.94-7.17,7.86s-3.92,6.07-5.15,9.4c-.65,1.76-1.09,3.58-1.48,5.41-.05.25.51.09.58-.07,1.12-2.63,3.06-5.13,5.05-7.19,2.09-2.16,4.51-3.98,7.19-5.34,3.19-1.61,6.68-2.35,10.16-3.05,2.79-.56,5.62-1,8.47-.95,2.65.05,5.27.54,7.84,1.17,7.18,1.77,14.19,4.19,21.38,5.97,5.23,1.3,10.56,2.46,15.44,4.84,6.02,2.94,11.22,7.53,15.74,12.4,3.03,3.26,6.17,7.03,7.66,11.3.48,1.36.28,2.79.48,4.22.32,2.23.94,4.4,1.26,6.63s.23,4.67-.15,6.98c-.67,4.13-2.11,7.92-4.07,11.6-1.72,3.23-3.26,6.47-4.75,9.81-1.23,2.73-2.57,5.59-2.87,8.6-.13,1.33-.04,2.72.6,3.92.24.45.88,1.67,1.54,1.51.87-.2-.04-1.26,1.39-1.4.29-.03.48-.37.08-.33-.66.06-1.56.34-1.62,1.15-.02.28-.13.22.08.28.33.1-.33-.57-.34-.58-.51-.62-.85-1.33-1.03-2.12-.73-3.2.84-6.73,2.09-9.6,1.48-3.41,2.98-6.78,4.75-10.05,1.87-3.46,3.49-6.92,4.35-10.78.47-2.15.78-4.34.75-6.54s-.5-4.35-.95-6.5c-.22-1.06-.44-2.13-.57-3.21-.12-.93-.03-1.87-.14-2.79-.02-.19-.09-.39-.15-.57-1.17-3.87-3.95-7.36-6.55-10.35-4.47-5.12-9.76-9.96-15.77-13.2-4.74-2.55-9.96-3.85-15.15-5.14-3.45-.85-6.89-1.71-10.31-2.69-3.9-1.12-7.76-2.39-11.69-3.42-5.22-1.37-10.22-1.81-15.57-.91-6.29,1.06-12.39,2.58-17.45,6.66-3.05,2.46-5.72,5.62-7.46,9.14-.09.19-.18.37-.26.56l.58-.07c1.52-7.14,5.16-13.79,10.14-19.14s10.98-8.85,17.65-11.09c14.28-4.79,29.76-3.46,44.25-.46,7.12,1.48,14.2,3.36,20.88,6.27s12.73,6.8,18.07,11.66c4.88,4.44,9.12,9.63,13,14.96,2.18,2.99,4.28,6.13,5.77,9.53,1.61,3.68,2.35,7.85,2.94,11.8,1.06,7.13.86,14.41-1.21,21.34-1.88,6.32-5.16,12.08-8.83,17.52-.96,1.42-1.95,2.83-2.95,4.22l.5-.13h-.03c-.16-.08-.46-.02-.52.17-.11.35.48,1.17.63,1.47s.94,1.44.82,1.79l.52-.18c-1.3-.56-2.5-1.93-3.59-2.82-1.25-1.02-2.57-2.16-4.08-2.79-1.08-.46-2.36-.49-3.52-.63-1.69-.21-3.4-.43-5.11-.45-2.88-.04-5.89,1.2-8.06,3.06-1.99,1.71-3.94,3.65-5.72,5.58-.06.06-.13.11-.2.17-.33.29-.05-.04-.02.16-.02-.14.04-.36.11-.48.28-.54.44-1.18.69-1.74.09-.2.4-.61.43-.84.1-.73-.31.25-.27.15-.03.09.02.22,0,.32-.04.2-.03.43-.06.64-.03.27-.05.58-.15.84-.08.19.5.13.58-.07Z"/>
    </g>
    <ellipse cx="949.28" cy="525.59" rx="5.28" ry="5.26" transform="translate(383.17 1451.28) rotate(-87.52)"/>
    <path d="M945.5,520.24c2.86-.83,5.69-1.45,10.46.39,7.64,2.95,9.51,13.29,9.51,13.29,0,0-3.48-7.09-10.95-10.19-3.6-1.49-9.57-2.01-12.83-1.38.29-.73,2.07-1.53,3.81-2.11Z"/>
    <path class="cls-24" d="M1060.65,570.79c1.67-2.38,2.84-5.27,2.51-8.23-.09-.77-.25-1.08-.87-1.52-2.55-1.79-6.01-.9-8.41.7-3.03,2.02-5.21,5.22-7.04,8.3-.23.39,0,.76.37.93.51.23,1.11.08,1.61-.1-.79.28.16-.03.38-.07-.33.07.3-.03.41-.03-.14,0,.23.04.28.07.55.33.41,1.4.27,1.99-.54,2.23-2.44,2.76-4.51,2.39-.7-.13-1.55,0-2.05.55-.39.43-.35,1.1.33,1.22,3.62.65,8.16-.36,9.15-4.44.34-1.4.07-2.98-1.46-3.47-1.3-.41-2.75-.11-4,.35l1.98.83c1.46-2.46,3.12-5,5.37-6.82.77-.63,1.23-.9,2.05-1.25.07-.03.28-.1-.04,0,.07-.02.15-.05.22-.07.16-.04.32-.08.48-.12.22-.05-.38.04-.04,0,.07,0,.13-.02.2-.03.12,0,.62-.01.19-.02.12,0,.23,0,.35.01.06,0,.46.06.24.02s.17.04.21.05c.12.03.23.07.35.1.09.02.36.15.04,0,.08.03.15.06.23.1.15.08.3.16.44.25.1.06.19.14.29.21.11.08-.14-.22,0,0,.11.17-.09-.29-.06-.16.03.15.07.31.1.46.45,2.69-.8,5.43-2.3,7.57-.41.59.36,1,.84,1.04.71.07,1.49-.25,1.9-.84h0Z"/>
    <path d="M1006.94,541.84c-.38,3.59-4.07,5.75-7.37,4.31-2.05-.9-3.33-3.11-3.1-5.34.38-3.59,4.07-5.75,7.37-4.31,2.05.9,3.33,3.11,3.1,5.34Z"/>
    <path d="M988.77,541.21s7.52-9.32,18.87-5.77c9.66,3.03,11.84,8.93,13.03,12.55,0,0-4.52-6.45-13.76-9.69-8.39-2.94-18.15,2.9-18.15,2.9Z"/>
    <path class="cls-33" d="M964.76,573.44c7.3,2.09,21.01,4.89,21.01,4.89,0,0-6.18,19.79-26.33,13.67-16.85-5.12-11.07-22.7-11.07-22.7,0,0,9.09,2.04,16.39,4.13Z"/>
    <path class="cls-12" d="M964.69,573.42c3.47.99,16.44,4.56,16.44,4.56,0,0-6.97,10.22-19.52,6.62-13.61-3.9-10.71-14.4-10.71-14.4l13.8,3.21Z"/>
    <path class="cls-41" d="M964.17,574.67c3.47.99,14.19,3.46,14.19,3.46,0,0-4.85,2.57-15.26-.42-10.41-2.98-12.7-7.48-12.7-7.48l13.77,4.44Z"/>
    <path class="cls-33" d="M947.59,567.91c.1-.38.91-.32,2.67.03,2.94.59,4.17-.17,6.3.27,3.63.76,5.5,2.75,7.04,3.19,1.54.44,4.19-.26,7.67,1.02,2.04.75,8.22,3.32,11.03,4.38,1.68.64,3.89.57,4.23.76.48.27-3.31,4.27-22.73-1.29-19.42-5.57-16.35-7.85-16.21-8.36Z"/>
    <path class="cls-15" d="M995.53,521.2c.03-.19.65-.06.68-.25,10.19-.09,17.56,1.46,20.12,2.61,1.95.88,3.73,2.17,5.34,3.74,0,0,4.47,4.25,4.82,5.6.35,1.35-3.01-1.35-3.01-1.35-.75-.45-1.23-.89-2.03-1.22-4.38-1.84-8.42-4.28-13.15-4.75-4.04-.42-9.91.72-14.03,1.35.34-2,1.07-3.74,1.26-5.75Z"/>
    <path class="cls-15" d="M970.8,515.93c.07-.17-.45-.36-.38-.54-7.47-4.96-13.67-7.15-16.13-7.38-1.87-.18-3.82.09-5.78.68,0,0-2.31.05-3.24,1.05-.93,1-.19,1.75-.19,1.75.78-.03,1.35-.18,2.1-.08,4.14.51,8.32.33,12.04,2.2,3.19,1.57,6.95,5.36,9.68,7.89.74-1.89,1.06-3.74,1.91-5.56Z"/>
    <g>
      <path class="cls-9" d="M963.22,559.01c1.48,1.48,4.23,2.1,6.35,1.54.47-.12,1.71.52,1.05.7-2.8.73-6.7-.34-8.6-2.24-.19-.19-.09-.35.22-.36.32,0,.79.16.99.36"/>
      <path class="cls-9" d="M971.54,560.99c1.36-.19,2.78-.08,4.14.23.2.05.43.2.53.37.08.14.06.28-.11.31-.72.16-1.55.07-2.26-.17-.22-.07-.5-.22-.57-.46-.06-.22.19-.27.37-.21.59.2,1.23.27,1.82.13.14.23.28.46.42.69-1.21-.28-2.49-.37-3.7-.2-.24.03-.52-.12-.68-.3-.11-.13-.21-.37.04-.41"/>
      <path class="cls-9" d="M976.76,562.79c1.56.44,3.6.33,4.72-.6,1.7-1.41,1.54-4.72-.05-6.45-.17-.19-.01-.31.22-.29.3.03.59.23.77.43,1.38,1.51,1.72,4.32.95,5.91-.72,1.48-2.54,2.1-4.53,1.97-.59-.04-1.21-.13-1.79-.3-.24-.07-.64-.27-.7-.49-.06-.22.18-.24.4-.17"/>
      <path class="cls-9" d="M960.62,557.34c.14-.15.02-.32-.1-.35-.42-.12-.81-.37-1.08-.77-.19.13-.38.25-.57.38.81.35,1.57.89,2.16,1.63.12.15.35.15.52.08.13-.05.29-.22.18-.36"/>
      <path class="cls-9" d="M961.72,557.93c-.67-.82-1.52-1.41-2.42-1.81-.13-.06-.33-.04-.47.06-.11.08-.17.2-.09.32"/>
      <path class="cls-9" d="M957.33,556.55c-1-.35-1.97-1.4-2.11-2.73-.2-2,1.14-3.89,2.75-4.62.17-.08.15-.26.03-.35-.16-.12-.41-.08-.59,0-1.4.64-2.61,2.02-2.96,3.73-.32,1.6.31,2.98,1.37,3.81.32.24.67.45,1.05.59.15.05.45.07.58-.09.13-.16.02-.29-.12-.34"/>
    </g>
    <path class="cls-22" d="M1056.47,547.37c-1.18.11-8.44-6.49-9.74-5.56-9.68-35.16-59.69-68.84-93.32-51.13,2.38-4.36,10.34-13.71,11.68-14.97,14.46-13.62,35.79-16.5,57.59-12.69,21.79,3.81,46.36,17.55,53.59,42.79,7.01,24.48,3.88,44.24-19.79,41.54Z"/>
    <g>
      <path d="M1043.65,513.43l.6-.71c.56,2.15,1.93,4.08,3.78,5.32,1.09.73,2.53,1.6,2.29,2.89-.07.38-.29.71-.37,1.09-.47,2.4,4.31,2.12,5.24,4.39.79,1.91-1.83,3.93-1.19,5.89.57,1.74,3.28,2.01,3.85,3.75.71,2.16-2.52,4.41-1.4,6.39.81,1.43,3.23,1.22,3.98,2.68.35.69.2,1.52.09,2.32-4.11.27-8.28.8-12.61,1.03.19-.88.49-1.76.89-2.53.35-.69.74-1.45.54-2.2-.45-1.65-3.03-1.44-4.15-2.75-1.95-2.29,2.39-5.77,1.11-8.49-.77-1.63-3.26-2.07-3.66-3.82-.53-2.3,3.06-4.63,1.62-6.51-.44-.57-1.2-.78-1.78-1.2-1.15-.85-1.42-2.52-1.04-3.89.39-1.38,1.31-2.53,2.2-3.64Z"/>
      <path d="M1043.76,513.47c.12-.14.3-.45.45-.52.29-.15-.18-.27.01.17.07.17.12.35.18.53.3.82.73,1.59,1.24,2.29.48.65,1.05,1.24,1.68,1.75.79.63,1.82,1.08,2.44,1.9.78,1.03,0,1.72.01,2.77,0,.44.18.78.5,1.09.72.69,1.84.96,2.72,1.35.67.3,1.43.67,1.85,1.3.63.95.24,2-.19,2.94-.52,1.14-1.31,2.45-.61,3.69s2.42,1.56,3.3,2.69c1.23,1.59-.31,3.34-.94,4.83-.44,1.05-.47,2.15.5,2.9,1.33,1.02,4.41,1.18,3.56,3.71-.3.89-2.3.68-3.14.75-1.24.11-2.48.23-3.71.34s-2.36.21-3.54.3c-.41.03-1.55.28-1.8-.06-.33-.43.33-1.55.56-2.04.56-1.18,1.19-2.54-.12-3.46s-3.38-.82-3.83-2.58c-.68-2.62,2.82-4.99,1.54-7.65-.75-1.57-2.97-1.89-3.57-3.53-.66-1.83,1.23-3.39,1.74-5,.56-1.77-.85-2.12-2.01-3.02-2.64-2.05-.34-5.54,1.18-7.42.1-.13-.15-.16-.22-.07-1.54,1.92-3.84,5.39-1.29,7.54.69.58,1.77.79,2.12,1.71.27.71-.09,1.48-.42,2.1-.57,1.07-1.48,2.15-1.5,3.41-.05,2.81,4.33,2.86,3.92,5.98-.26,1.99-2.64,4.43-1.58,6.49.59,1.14,1.97,1.37,3.04,1.84,1.44.63,1.65,1.69,1.02,3.1-.43.97-.83,1.87-1.08,2.91-.02.07.08.08.12.08,4.21-.23,8.4-.74,12.61-1.03.06,0,.14-.04.15-.1.21-1.56.13-2.72-1.4-3.45-1.63-.78-3.54-1.35-2.66-3.58.48-1.23,1.56-2.42,1.49-3.82-.06-1.23-1.11-1.89-2.05-2.48-.61-.38-1.28-.76-1.68-1.38-.63-1-.17-2.11.27-3.08.49-1.06,1.22-2.32.58-3.49-.97-1.77-5.5-1.82-5.13-4.14.13-.84.6-1.31.19-2.16-.37-.75-1.19-1.24-1.86-1.7-1.98-1.35-3.37-3.14-4.02-5.47-.03-.1-.2-.06-.24,0l-.6.71c-.11.13.15.16.22.07Z"/>
    </g>
    <g>
      <path d="M1051.25,502.34c-1.42.8-2.21,2.57-1.87,4.17.34,1.59,1.79,2.88,3.41,3.04-1.22,1.72-.67,4.43,1.12,5.55.77.48,1.73.71,2.28,1.43,1.35,1.77-.89,4.68.49,6.43.52.66,1.43.92,1.93,1.59,1.04,1.37-.2,3.43.41,5.04.74,1.97,3.78,2.32,4.41,4.33.44,1.41-.5,3.24.56,4.28.55.54,1.49.63,1.91,1.28.5.79-.09,1.79-.34,2.69-.61,2.24,1.57,4.74,3.87,4.43-.36,1.52-.05,3.18.82,4.47,1.33-1.2,2.7-2.45,3.44-4.08.74-1.63.69-3.77-.6-5.01-.5-.48-1.16-.81-1.53-1.4-.94-1.49.5-3.71-.55-5.13-.7-.95-2.29-1.13-2.66-2.25-.18-.54,0-1.13.06-1.69.21-2.01-1.37-4.04-3.37-4.32-.57-.08-1.19-.05-1.64-.41-1.29-1.03.61-3.05.31-4.67-.3-1.6-2.66-2.23-2.79-3.85-.05-.54.18-1.07.19-1.61.01-.86-.51-1.62-1.02-2.31-2.6-3.55-5.33-7.01-8.16-10.37"/>
      <path d="M1051.16,502.3c-1.57.99-2.45,2.93-1.77,4.74.31.83.91,1.54,1.66,2,.31.19.66.27.97.44.64.35.35.44.15,1.06-.53,1.68.14,3.65,1.62,4.61.99.64,2.24.88,2.61,2.15.3,1.03-.11,2.19-.26,3.22-.11.74-.17,1.56.23,2.23.6,1.03,1.98,1.22,2.39,2.41.68,1.95-.87,3.94.92,5.6.69.64,1.56,1.03,2.31,1.59,1.12.84,1.46,1.74,1.39,3.14-.04.81-.23,1.76.25,2.49.8,1.19,2.62.85,2.22,2.82-.25,1.23-.79,2.05-.34,3.31.33.93,1.04,1.74,1.92,2.19.43.22.81.25,1.27.38.1.03.31-.05.37.01.27.25.07.78.07,1.08-.03,1.21.34,2.33.98,3.34.04.06.19,0,.23-.03,2.32-2.09,6.04-6.28,2.73-9.27-.8-.72-1.6-1.16-1.72-2.34-.1-.96.25-1.91.17-2.87-.17-2.04-2.49-1.8-3.05-3.44-.32-.94.22-2.02-.04-3.02-.22-.81-.7-1.56-1.33-2.11-.47-.41-1.04-.72-1.65-.87-.53-.13-1.16-.05-1.66-.29-.71-.34-.78-.98-.64-1.67.29-1.42,1.26-2.76.22-4.11-.43-.56-1.03-.95-1.52-1.45-.31-.31-.59-.63-.73-1.06-.22-.69.11-1.29.11-1.97,0-.9-.52-1.64-1.03-2.34-.82-1.15-1.69-2.27-2.55-3.39-1.82-2.37-3.69-4.69-5.62-6.98-.06-.07-.31.03-.25.1,1.67,1.98,3.3,4,4.9,6.04.77.99,1.53,1.99,2.29,3,.71.95,1.79,2.05,1.96,3.26.14.95-.42,1.8.07,2.7.31.57.85.98,1.33,1.4.7.62,1.32,1.28,1.26,2.28-.05.89-.54,1.69-.71,2.55-.4,1.99,1.37,1.7,2.7,2.15,1.04.35,1.91,1.2,2.36,2.19.5,1.12.08,2.08.2,3.21.18,1.79,2.61,1.72,3.05,3.4s-.8,3.53.69,4.95c.89.85,1.78,1.38,2.06,2.69s-.07,2.72-.76,3.87c-.42.7-.96,1.33-1.53,1.91-.19.2-.39.39-.6.58-.33.31-.43.63-.84.36-1.02-.68-.86-3-.66-3.98.01-.06-.08-.05-.11-.05-1.94.15-3.75-1.49-3.86-3.43-.07-1.37,1.43-3.09-.04-4.12-.74-.52-1.61-.62-1.88-1.65-.2-.77.02-1.62.02-2.41,0-1.37-.69-2.17-1.79-2.91s-2.5-1.37-2.84-2.79.59-3.07-.14-4.43c-.35-.67-1.02-.95-1.59-1.4-.68-.53-.97-1.18-.97-2.03,0-1.29.6-2.57.39-3.86-.27-1.67-1.98-1.82-3.08-2.74-1.52-1.27-1.78-3.57-.74-5.21.02-.04,0-.06-.04-.07-3.6-.52-4.64-5.13-1.54-7.1.15-.1-.08-.12-.16-.07h0Z"/>
    </g>
    <g>
      <path d="M1055.39,498.78c-1.17,2.25-.05,5.4,2.28,6.4.46.2.97.33,1.31.69.72.75.36,1.97.43,3.01.15,2.35,2.6,3.84,4.87,4.47,1.45.41,3.29,1,3.39,2.51.04.59-.23,1.19-.09,1.77.37,1.53,3.17,1.61,3.22,3.19.02.72-.63,1.33-.65,2.05-.04,1.53,2.36,1.75,3.2,3.03.39.6.39,1.36.38,2.07-.04,2.17-.08,4.34-.12,6.51-.01.53.02,1.16.45,1.47.73.53,1.65-.34,2.1-1.13,2.51-4.4,3.87-9.45,3.91-14.52,0-1.27-.32-2.86-1.56-3.12-.41-.09-.88,0-1.21-.27-.53-.43-.19-1.27.06-1.91,1.01-2.64-1.11-5.97-3.93-6.16-.76-.05-1.68.02-2.11-.62-.28-.42-.2-.98-.29-1.48-.23-1.28-1.57-2.05-2.82-2.4-1.25-.35-2.62-.49-3.66-1.27-1.3-.98-1.87-2.83-3.36-3.5-1.8-.81-4.36.38-5.67-1.1"/>
      <path d="M1055.26,498.8c-.67,1.41-.6,3.02.15,4.4.33.6.77,1.14,1.33,1.55.8.59,2.08.69,2.46,1.71.3.82,0,1.76.11,2.61.09.77.43,1.45.92,2.03,1.09,1.29,2.69,1.91,4.25,2.38.82.25,1.72.51,2.37,1.09.98.89.45,1.72.59,2.86.17,1.35,1.71,1.57,2.6,2.32,1.51,1.27-.71,2.62.29,3.99.88,1.21,2.73,1.17,3.18,2.81.26.95.09,2.08.07,3.05-.02,1.24-.05,2.48-.07,3.72-.02.91-.33,2.93,1.15,2.8,1.37-.12,2.1-2.15,2.58-3.13,1-2.08,1.77-4.28,2.26-6.53.46-2.07.76-4.25.71-6.37-.03-1.23-.31-2.6-1.61-3-.92-.29-1.66-.19-1.35-1.46.1-.39.29-.74.38-1.13.17-.71.15-1.44-.04-2.15-.36-1.35-1.31-2.58-2.57-3.2-.85-.41-1.63-.3-2.52-.48-1.65-.32-.98-1.8-1.71-2.88-1.14-1.68-3.44-1.58-5.13-2.26-1.99-.81-2.47-3.19-4.36-4.05s-4.14.39-5.67-1.1c-.05-.05-.3.05-.25.1.99.96,2.3.8,3.58.79,1.05,0,2.06.12,2.88.83.62.54,1.04,1.27,1.55,1.91,1.16,1.48,2.57,1.79,4.32,2.24.85.22,1.76.52,2.4,1.15.81.79.58,1.52.91,2.47.48,1.39,2.67.86,3.75,1.39,1.46.72,2.54,2.27,2.68,3.91.07.85-.17,1.53-.42,2.31-.19.6-.29,1.27.4,1.57.74.32,1.48.1,1.99.92.4.63.48,1.45.5,2.18.11,4.31-1.03,8.79-2.87,12.67-.22.47-.46.94-.71,1.4-.11.2-.21.4-.32.59-.42.66-.35.56-1.29.57-1.1,0-.98-.1-.99-.97-.01-.62.02-1.24.04-1.86.02-1.09.04-2.17.06-3.26.02-.95.19-2.06-.13-2.99-.43-1.24-1.77-1.52-2.7-2.26-1.61-1.28.55-2.53-.26-3.91-.54-.92-1.84-1.08-2.56-1.81s-.28-1.6-.38-2.53c-.06-.66-.43-1.13-.95-1.51-1.41-1.03-3.33-1.13-4.84-2.02-1.89-1.12-2.5-2.6-2.45-4.71.02-.89-.1-1.62-.92-2.08s-1.6-.67-2.26-1.36c-1.36-1.43-1.72-3.6-.88-5.38.03-.05-.23-.03-.26.04h0Z"/>
    </g>
    <g>
      <path d="M1059.86,497.04c2.59,2.21,7.24-1.24,9.78,1.03,1.23,1.1,1.61,3.33,3.25,3.51.75.08,1.54-.35,2.24-.07,1.46.58.49,2.89,1.14,4.32.81,1.79,3.81,1.56,4.66,3.32.24.5.25,1.07.46,1.58.38.96,1.32,1.55,2.11,2.23.78.67,1.49,1.71,1.14,2.68,3.07-2.84,3.64-8,1.27-11.45-.26-.37-.55-.74-.65-1.18-.1-.43,0-.88.04-1.31.23-2.2-.81-4.5-2.62-5.77-.63-.44-1.38-.81-1.74-1.5-.5-.97,0-2.14-.1-3.23-.23-2.53-3.34-3.63-4.76-5.74-.59-.88-.87-1.93-1.4-2.84-.56-.98-1.41-1.8-2.41-2.33-.8-.42-1.86-.63-2.53-.03-.46.41-.6,1.07-.96,1.57-.91,1.27-2.82,1.1-4.34.71-1.51-.39-3.3-.82-4.49.19-1.69,1.43-.61,4.27-1.5,6.3-.39.89-1.15,1.58-1.46,2.5-.28.84-.15,1.76,0,2.64.24,1.55.49,3.1.73,4.66"/>
      <path d="M1059.73,497.09c2.35,1.83,5.44-.09,8.05.27,1.76.25,2.37,1.65,3.27,2.98.71,1.06,1.33,1.28,2.55,1.26,1.66-.03,2.16.17,2.25,1.65.04.69-.05,1.4.1,2.08.29,1.33,1.49,1.8,2.63,2.27.6.25,1.25.5,1.73.95.74.7.62,1.69,1.08,2.53.89,1.64,3.62,2.31,3.1,4.59-.02.08.25-.01.27-.04,1.61-1.55,2.55-3.63,2.72-5.86.09-1.18-.04-2.38-.4-3.5-.17-.53-.4-1.05-.68-1.54-.33-.57-.86-1.1-1.01-1.75s.08-1.38.07-2.05c-.01-.61-.12-1.23-.31-1.81-.38-1.17-1.1-2.24-2.06-3.01-1.05-.85-2.23-1.31-2.25-2.87-.01-1.35.34-2.46-.47-3.67-1.26-1.87-3.5-2.75-4.56-4.82s-2.08-4.77-4.78-4.9c-.51-.03-1.03.09-1.43.42-.3.25-.44.61-.63.95-.17.29-.31.64-.56.89-.85.85-2.17.74-3.21.55-1.62-.3-3.55-1.1-5.1-.11-2.25,1.43-.87,4.82-1.98,6.86-.77,1.42-1.58,2.22-1.43,3.94.15,1.85.57,3.71.85,5.54,0,.05.3,0,.29-.08-.18-1.16-.37-2.33-.55-3.49-.2-1.27-.6-2.71-.11-3.95.31-.79.94-1.41,1.31-2.17s.45-1.53.49-2.33c.05-.94,0-1.92.27-2.82.53-1.74,2.38-1.99,3.97-1.67,1.39.28,2.78.79,4.21.41.35-.09.7-.23.99-.45.18-.14.34-.3.48-.49.15-.2.22-.45.36-.65.31-.47,1.32-1.16,1.9-1.16.97,0,2.12,1.08,2.7,1.75.74.86,1.09,1.88,1.58,2.89.7,1.45,1.87,2.36,3.07,3.38,1.51,1.29,2.29,2.44,2.11,4.46-.07.8-.16,1.58.34,2.27.53.73,1.48,1.09,2.14,1.68,1.48,1.35,2.19,3.32,2.04,5.3-.09,1.15.08,1.68.7,2.63.49.76.85,1.58,1.08,2.46.45,1.74.37,3.61-.2,5.32-.27.8-.64,1.56-1.13,2.25-.2.29-.76.97-.79.94-.02-.02-.1-1.03-.17-1.18-.34-.7-.95-1.2-1.54-1.68-.94-.78-1.44-1.41-1.78-2.57-.47-1.62-1.55-1.99-3-2.62-.71-.31-1.45-.66-1.83-1.37s-.31-1.53-.33-2.3c-.03-1.58-.47-2.29-2.08-2.19-.81.05-1.48.16-2.12-.4-.39-.35-.66-.83-.93-1.27-.39-.65-.76-1.33-1.35-1.81-2.79-2.27-6.82,1.27-9.67-.94-.06-.05-.31.07-.27.1h0Z"/>
    </g>
    <g>
      <path d="M1051.15,494.36c-1.52-1.35-1.46-4.09.13-5.37.53-.42,1.26-.85,1.19-1.53-.03-.29-.22-.54-.36-.79-.94-1.6-.19-3.94,1.5-4.71.36-.16.75-.27,1.04-.53,1.2-1.08-.27-3.68,1.15-4.46,1.19-.65,2.48,1.13,3.82.93,1.31-.19,1.75-2.08,3.03-2.42,1.89-.51,3.86,2.7,5.35,1.41.78-.67.38-2.02-.43-2.66-.8-.64-1.86-.85-2.76-1.34-2.34-1.27-3.27-4.11-5.09-6.04-1.9-2.02-4.65-2.95-7.29-3.81-1.13-.37-2.3-.74-3.49-.63-1.82.17-3.46,1.6-3.88,3.38-.08.35-.14.75-.44.94-.17.12-.39.14-.6.15-1.04.09-2.07.17-3.11.26-.39.03-.83.08-1.09.37-.62.67.23,1.7,1.08,2.04.84.34,1.93.66,2.07,1.56.26,1.67-2.98,1.93-3.15,3.62-.18,1.74,3.03,2.2,3.07,3.95.02,1.04-1.15,1.74-1.35,2.77-.21,1.05.67,2,1.57,2.58.9.58,1.95,1.05,2.47,1.99.4.71.4,1.57.57,2.36.52,2.42,2.49,4.22,4.35,5.85"/>
      <path d="M1051.27,494.31c-1.75-1.73-1.22-4.21.54-5.66.66-.54.95-.96.57-1.76-.47-.99-.73-1.8-.39-2.91.4-1.32,1.36-1.61,2.4-2.31.47-.32.73-.6.84-1.18.17-.83-.14-1.72.06-2.54.15-.59.03-.44.77-.73s.78-.23,1.44.1c.33.16.64.36.99.49,1.08.38,1.84,0,2.57-.83.26-.3.48-.62.76-.9.65-.64,1.65-.6,2.42-.21s1.37.94,2.14,1.23c.67.25,1.48.21,1.93-.44,1.12-1.62-1.2-2.87-2.34-3.34-2.23-.92-3.35-2.6-4.65-4.55-1.22-1.84-2.67-3.24-4.68-4.22s-4.17-1.82-6.27-2.14c-1.33-.21-2.66.05-3.75.87-.64.49-1.17,1.14-1.49,1.88-.29.7-.16,1.31-1.06,1.67-.58.23-1.61.13-2.22.18-.76.06-2.61,0-2.36,1.29.32,1.62,4.18,1.58,3.21,3.54-.6,1.22-2.61,1.28-2.99,2.7-.41,1.49,1.62,2.17,2.43,3,1.83,1.87-1.78,3.35-.38,5.42.63.94,1.69,1.36,2.58,1.99,1.3.92,1.34,2.05,1.66,3.48.56,2.48,2.52,4.25,4.36,5.86.05.05.29-.05.25-.09-1.63-1.43-3.41-2.98-4.14-5.09-.35-1-.26-2.17-.78-3.11-.41-.74-1.16-1.19-1.87-1.62-.87-.53-1.95-1.18-2.16-2.27-.23-1.16.75-1.77,1.16-2.71.58-1.34-.59-2.11-1.55-2.8-.51-.37-1.15-.79-1.31-1.44-.24-.97.65-1.57,1.35-2.02.75-.48,2.05-1.07,1.73-2.19-.19-.67-.88-.95-1.46-1.21-1.01-.45-3.19-1.97-.74-2.54,1.05-.25,2.2-.07,3.27-.28.36-.07.63-.13.85-.45.45-.66.44-1.54.94-2.23,1.33-1.83,3.51-2,5.55-1.41,2.16.62,4.41,1.37,6.31,2.59,3.19,2.05,4.07,6.33,7.62,7.87,1.07.46,2.31.8,2.76,2.01.31.82.05,1.99-1.3,1.78-.39-.06-.81-.37-1.13-.57-.9-.55-1.92-1.36-3.05-1.07-1.7.43-1.86,2.97-4.07,2.2-.92-.32-1.84-1.23-2.87-.68-1.24.67-.54,2.51-.77,3.6s-1.63,1.32-2.35,2.04c-.55.55-.9,1.28-1.01,2.05-.14,1.03.3,1.55.59,2.46.39,1.21-.98,1.67-1.59,2.5-1.07,1.47-.85,3.56.42,4.81.05.05.29-.05.25-.09h0Z"/>
    </g>
    <g>
      <path d="M1048.25,498.49c.48-2.49-3.08-3.53-4.64-5.53-1.19-1.52-1.23-3.81-2.7-5.07-1.06-.9-2.77-1.19-3.22-2.5-.27-.76.02-1.61-.05-2.41-.27-3.08-5.25-4.07-5.41-7.16-.15-2.78,3.9-4.9,2.91-7.5-.31-.81-1.07-1.41-1.27-2.25-.39-1.7,1.6-2.89,3.23-3.48,2.29-.83,4.57-1.66,6.86-2.49-3.59-3.43-8.19-5.8-13.07-6.72-1.79-.34-3.72-.47-5.38.28s-2.92,2.64-2.42,4.4c.15.51.43.99.49,1.52.28,2.33-3.62,4.15-2.48,6.2.27.48.77.79,1.02,1.28.73,1.41-1.03,3.11-.52,4.62.44,1.31,2.24,1.57,3.07,2.66.51.66.6,1.55.89,2.33.4,1.09,1.2,1.98,1.97,2.85,2.21,2.46,4.41,4.91,6.62,7.37,1.56,1.74,3.27,3.57,5.55,4.07.28,4.4,4.53,8.16,8.94,7.89"/>
      <path d="M1048.38,498.48c.18-1.26-.54-2.14-1.47-2.91-1.44-1.19-3.05-2.04-3.85-3.82-.66-1.45-.94-3.12-2.3-4.12-.62-.46-1.36-.71-1.99-1.15-1.35-.94-.86-2.13-.99-3.52-.25-2.78-3.72-3.64-4.98-5.8-1.86-3.2,2.75-5.12,2.64-8.1-.04-1.11-.93-1.71-1.3-2.67-.61-1.57.84-2.71,2.1-3.33,2.46-1.2,5.23-1.96,7.8-2.89.04-.01.11-.08.07-.13-2.23-2.1-4.78-3.81-7.59-5.04-2.61-1.14-5.65-2.11-8.53-1.98-2.22.1-4.66,1.32-5.06,3.72-.21,1.27.78,2.34.51,3.58-.24,1.12-1.19,1.98-1.84,2.88-.41.56-.87,1.23-.8,1.96.05.49.31.82.62,1.19.69.83.91,1.47.59,2.52-.3,1-.93,2.07-.39,3.1.47.91,1.57,1.25,2.34,1.83,1.21.9,1.17,2.39,1.84,3.62.89,1.63,2.41,2.99,3.64,4.36,2.22,2.47,4.33,5.25,6.86,7.42.68.59,1.42,1.11,2.25,1.47s1.02.46,1.2,1.35c.28,1.36.94,2.63,1.83,3.7,1.76,2.1,4.36,3.32,7.09,3.22.14,0,.21-.18.03-.18-4.45.17-8.43-3.42-8.82-7.84,0-.02-.04-.04-.05-.05-2.49-.63-4.19-2.57-5.84-4.41-1.82-2.03-3.64-4.05-5.46-6.08-.75-.83-1.56-1.64-2.18-2.58-.67-1.01-.72-2.18-1.31-3.2-.84-1.46-3.32-1.65-3.34-3.56-.02-1.68,1.47-3.01.19-4.56-.66-.8-1.05-1.4-.58-2.41.37-.79,1.03-1.43,1.54-2.12,1-1.37.97-2.16.48-3.74-1.05-3.33,2.72-5.12,5.45-5.01,4.79.2,9.7,2.51,13.4,5.47.23.19,1.42.97,1.35,1.36s-1.07.53-1.42.66c-1.37.5-2.74,1-4.11,1.5s-3.31,1.1-4.04,2.57c-.9,1.81,1.34,2.86,1.23,4.6s-1.67,2.98-2.45,4.35c-1.63,2.89.66,4.58,2.73,6.28.74.6,1.5,1.28,1.87,2.19.4,1.01-.04,2.04.21,3.06.21.84.89,1.31,1.6,1.72.99.56,1.91,1.01,2.51,2.03,1.05,1.8,1.23,3.67,2.92,5.08,1.41,1.17,3.88,2.26,3.58,4.44-.02.12.25.08.27-.03h0Z"/>
    </g>
    <g>
      <path d="M1042.74,501.44c-3.27,1.08-7.22-.53-8.79-3.6-.53-1.02-.81-2.17-1.44-3.13-1.84-2.79-6.07-3.28-7.77-6.17-.92-1.57-.89-3.56-1.75-5.16-1.72-3.2-6.41-3.98-7.91-7.29-.38-.85-.52-1.81-1.07-2.56-.87-1.2-2.55-1.55-3.53-2.66-1.3-1.47-1.07-3.89-2.45-5.27-.82-.83-2.12-1.17-2.69-2.19-.99-1.77.91-4.23-.21-5.92-.44-.66-1.24-1.01-1.69-1.66-1.08-1.58.55-3.68,2.29-4.47,2.22-1,4.72-1.09,7.15-1.17.57-.02,1.14-.04,1.71-.06,2.89-.1,6.32.07,7.9,2.5.31.48.51,1.15.13,1.58-.19.22-.49.32-.77.4-2.08.63-4.15,1.26-6.23,1.89,1.51.9,1.16,3.18.46,4.79-.7,1.61-1.53,3.59-.48,4.99.53.71,1.5,1.16,1.67,2.03.13.68-.29,1.33-.34,2.02-.17,2.04,2.48,2.91,3.97,4.32,1.04.99,1.56,2.39,2.24,3.66.79,1.46,1.84,2.76,2.88,4.05.94,1.17,1.88,2.34,2.83,3.51,2.63,3.27,5.26,6.53,8.1,9.63,1.99,2.17,4.08,4.25,6.26,6.24"/>
      <path d="M1042.72,501.37c-3.47,1.05-7.3-.67-8.83-3.95-.62-1.34-1-2.69-2.09-3.74-.95-.92-2.14-1.53-3.28-2.17-1.2-.67-2.45-1.38-3.31-2.49-1.12-1.46-1.14-3.31-1.78-4.96-.9-2.32-3.09-3.48-5.06-4.78-1.1-.73-2.2-1.54-2.89-2.69-.79-1.31-.81-2.84-2.09-3.84s-2.77-1.43-3.49-3.08c-.55-1.27-.64-2.76-1.53-3.87s-2.72-1.43-3.13-3c-.36-1.38.47-2.78.38-4.17s-1.07-1.69-1.85-2.59c-1.62-1.9.7-4.08,2.4-4.78,2.1-.86,4.45-.91,6.68-.99,1.91-.07,3.87-.21,5.76.17,1.3.26,5.91,2.36,3.21,4.1-.8.51-2.2.67-3.11.94-1.04.31-2.08.63-3.11.94-.05.02-.17.08-.09.14,3.17,2.22-1.57,6.47-.32,9.28.27.61.79.99,1.25,1.44,1.03,1.02.44,1.86.34,3.05-.09,1.11.69,1.91,1.51,2.54,1.38,1.06,2.72,1.81,3.62,3.36.97,1.69,1.78,3.36,2.99,4.92,2.62,3.39,5.35,6.72,8.1,10,3.14,3.75,6.47,7.31,10.08,10.61.07.07.33-.04.25-.11-5.11-4.67-9.57-9.91-13.91-15.3-2.02-2.5-4.32-4.95-5.94-7.73-.7-1.2-1.17-2.55-2.07-3.62-.74-.88-1.74-1.43-2.65-2.09-1.06-.77-1.86-1.63-1.63-3.02s.44-1.88-.69-2.95c-2.63-2.48.12-5.04.35-7.87.07-.92-.21-1.49-.59-2.27-.25-.52-.28.06-.12-.38.04-.12.95-.29,1.11-.34.89-.27,1.78-.54,2.67-.81.79-.24,2.28-.35,2.86-1.06s-.03-1.64-.51-2.19c-1.44-1.63-3.81-1.96-5.87-2.01-2.67-.07-5.54-.03-8.16.49-1.95.39-4.21,1.23-5.02,3.23-.34.84-.24,1.7.36,2.39.37.43.9.7,1.27,1.13.57.69.61,1.49.5,2.34-.14,1.06-.58,2.18-.32,3.25s1.24,1.57,2.11,2.15c2.32,1.58,1.69,4.7,3.78,6.38.97.78,2.26,1.15,3.02,2.18.79,1.09.87,2.52,1.7,3.61,1.41,1.85,3.69,2.74,5.47,4.17,1.17.94,1.94,2.05,2.36,3.51.4,1.36.56,2.8,1.37,4,1.49,2.2,4.3,2.89,6.29,4.5,2.28,1.84,2.35,5.06,4.74,6.88,1.98,1.51,4.57,1.98,6.94,1.27.16-.05.12-.2-.04-.15h0Z"/>
    </g>
    <g>
      <path d="M1011.19,478.75c1.18-.6.83-2.49-.15-3.39-.98-.9-2.34-1.33-3.22-2.33-1.14-1.3-1.21-3.23-2.09-4.71-.94-1.57-2.67-2.46-4.06-3.65-1.39-1.19-2.51-3.17-1.68-4.8.45-.88,1.43-1.72,1.05-2.62-.39-.92-1.91-.95-2.23-1.89-.36-1.06,1.14-1.9,1.23-3.02.06-.75-.54-1.4-1.21-1.75-2.3-1.2-5.06.09-7.32,1.36-2.63,1.48-5.26,2.96-7.9,4.44-.18.1-.37.21-.51.36-.66.68-.11,1.92.75,2.32s1.86.25,2.82.22c.95-.04,2.03.11,2.6.87.57.77.4,1.85.76,2.74.88,2.17,4.11,2,5.83,3.58,1.07.98,1.45,2.54,2.53,3.5,1.1.98,2.7,1.15,3.98,1.88,1.8,1.02,2.77,3.01,3.95,4.7,1.18,1.7,3.03,3.31,5.07,2.95"/>
      <path d="M1011.28,478.81c.88-.57.95-1.6.56-2.52-.54-1.27-1.89-1.78-2.95-2.51-1.79-1.24-1.91-3.17-2.77-4.99-.62-1.32-1.74-2.2-2.88-3.05-1.52-1.13-3.58-2.69-3.39-4.86.11-1.21,1.84-2.44,1.32-3.68-.58-1.38-3.12-1.12-1.86-3.19.62-1.03,1.36-1.92.31-2.98-2.21-2.24-5.98-.35-8.16.86-1.94,1.08-3.88,2.18-5.82,3.27-.85.48-2.77,1.06-2.94,2.2s.91,1.86,1.87,2.02c2.03.34,4.52-.68,5.03,2.14.25,1.37.57,2.3,1.85,2.99,1.19.64,2.59.86,3.73,1.6,1.58,1.03,1.91,3.07,3.4,4.17,1.66,1.22,3.73,1.27,5.2,2.88,2.17,2.38,3.63,6.91,7.61,6.43.14-.02.21-.2.03-.18-3.95.48-5.32-4.2-7.52-6.49-.8-.84-1.73-1.34-2.8-1.74-.79-.29-1.63-.53-2.31-1.04s-1.11-1.23-1.54-1.96c-.67-1.13-1.32-1.99-2.52-2.57-1.08-.52-2.3-.75-3.32-1.38-1.42-.88-1.21-2.08-1.7-3.48-.36-1.03-1.23-1.44-2.26-1.54-1.36-.13-4.3.6-4.48-1.5-.11-1.26,1.9-1.92,2.79-2.42.97-.55,1.94-1.09,2.91-1.64,2.56-1.44,8.13-5.56,10.82-2.41,1.15,1.35-.4,2.17-.78,3.36s.7,1.49,1.47,1.98c1.75,1.11-.04,2.37-.47,3.63-.4,1.19.1,2.45.81,3.41.9,1.22,2.23,1.98,3.38,2.92,1.57,1.27,2.1,2.77,2.75,4.6.49,1.38,1.24,2.3,2.47,3.07.76.47,1.64.89,2.16,1.65.59.85.82,2.19-.19,2.84-.15.1.07.17.17.11h0Z"/>
    </g>
    <g>
      <path d="M994.22,469.65c-.77-2.07-3.94-1.8-5.53-3.34-.98-.95-1.31-2.55-2.54-3.13-1.47-.7-3.57.42-4.69-.75-.75-.79-.55-2.21-1.37-2.93-.75-.66-1.92-.37-2.85,0-3.18,1.27-6.14,3.08-8.72,5.32-.29.25-.58.53-.7.89-.25.83.64,1.64,1.51,1.64s1.63-.53,2.3-1.07c.67-.54,1.37-1.13,2.22-1.27,2.5-.42,4.3,3.11,6.83,2.85.77-.08,1.49-.52,2.27-.47,1.79.11,2.71,2.66,4.51,2.71.66.02,1.27-.32,1.91-.49,1.05-.28,2.22-.06,3.1.57.41.3.79.69,1.28.82s1.15-.18,1.11-.69"/>
      <path d="M994.36,469.61c-.81-1.82-3.03-1.89-4.6-2.71-1.8-.94-2.06-3.59-4.16-4-1.33-.25-3.1.55-4.1-.66-.67-.81-.45-2.1-1.29-2.82-1.5-1.28-4.4.56-5.73,1.25-1.21.63-2.38,1.34-3.5,2.12-.93.65-2.49,1.56-3.08,2.55-.88,1.47,1.02,2.34,2.22,1.96,1.4-.44,2.22-1.82,3.68-2.12s2.52.65,3.61,1.44c.69.5,1.41,1.04,2.26,1.24,1.21.29,2.26-.48,3.44-.28,1.31.23,1.95,1.41,2.99,2.12.85.58,1.6.53,2.55.24,1.33-.4,2.52-.51,3.74.31.42.29.81.74,1.33.83.61.11,1.17-.17,1.29-.79.02-.11-.25-.07-.27.03-.28,1.48-1.8.02-2.15-.21s-.72-.42-1.12-.54c-.85-.26-1.66-.17-2.49.08s-1.64.52-2.44.06c-.41-.24-.75-.57-1.09-.9-.55-.52-1.1-1.13-1.84-1.39-.47-.16-.94-.14-1.43-.03-.75.16-1.44.49-2.22.34-.54-.11-1.04-.38-1.49-.67-1.19-.75-2.29-1.95-3.74-2.15-.56-.08-1.1.02-1.61.24-.99.44-1.73,1.59-2.77,1.87l-1.02-.13c-.7.18-1.14-.03-1.34-.63-.06-.47.39-1.12.66-1.43.44-.51,1.1-.92,1.64-1.33,1.02-.77,2.1-1.48,3.21-2.12s2.25-1.2,3.42-1.68c.81-.33,1.96-.83,2.82-.34.64.36.81,1.11.99,1.76.45,1.59,1.36,2.01,2.95,1.93s2.73.04,3.65,1.46c.49.76.87,1.57,1.61,2.13,1.59,1.19,4.27,1.01,5.16,3.03.05.1.31.02.27-.07h0Z"/>
    </g>
    <path d="M1069.06,549.99c1.68,1.6-13.52,3.9-12.88,1.67.64-2.23-.21-10.24-1.43-12.22-1.22-1.98,8.57,9.76,10.67-1.28,2.32-.71,2.89,7.12,5.31,7.16,3.16.06.39-5.71-.09-8.83-.48-3.12-.13-4.14-.78-7.23-.24-1.16,2.33-2.64,3.49-2.91.44-.1.88.04,1.33.1,1.94.29,3.91-.84,5.01-2.47,1.1-1.62-3.67-6.1-3.69-8.06-.03-3.35,1.28-5.55-.61-8.31-.76-1.11,1.08-.87.81-2.18s.45-2.96,1.78-3.1c.79-.08,1.53.38,2.18.83,2.99,2.03,5.92,4.32,7.81,7.39,1.9,3.07,2.6,7.1.98,10.32-.64,1.28-1.63,2.43-1.8,3.85-.22,1.77.89,3.45.95,5.23.12,3.6-3.95,6.44-3.5,10.02.14,1.12.72,2.13.94,3.23.39,1.96-.51,4.12-2.18,5.23-1,.67-2.22.96-3.22,1.63-3.74,2.5-2.71,8.55-5.6,12"/>
    <path d="M1067.86,471.45c-2-.43-3.17-2.43-4.46-4.01-2.01-2.47-4.83-4.27-7.92-5.04-2.33-.58-4.86-.62-6.94-1.82-1.2-.69-2.16-1.73-3.18-2.66-3.57-3.27-8.09-5.5-12.87-6.33-1.03-.18-2.08-.3-3.01-.78-1.09-.57-1.87-1.58-2.8-2.39-2.11-1.86-5.09-2.69-7.85-2.2-4.09.73-8.04,4.15-11.92,2.64-2.88-1.12-5.14-4.82-8.08-3.84-1.37.45-2.22,1.84-3.51,2.5-2.75,1.41-6.24-.98-9.12.14-2.38.93-3.42,3.89-5.74,4.95-1.53.7-3.31.43-4.98.69-1.66.25-3.49,1.49-3.27,3.16l-1.79,1.66c-9.85,4.1-16.96,23.3-15.11,23.03,1.86-.27,13.09-10.74,13.94-12.41,5.39-10.48,16.98-12.49,20.15-12.53,2.86-.03,5.78.49,8.53-.3,1.74-.5,3.95,1.84,5.76,1.93,2.44.13,3.96-1.08,6.4-1.22,1.29-.08,2.27,2.34,3.4,1.71,2.96-1.65,7.01-.18,10.08,1.26,2.59,1.21,3.96-1.74,6.63-.74,1.76.66,1.78,4.12,3.65,4.37,2.7.36,4.56.8,6.91,2.16,4.07,2.35,10.65,1.93,14.72,4.27,2.73,1.57,3.96,6.85,6,9.26,2.95,3.48,5.87,4.87,9.92,6.95,2.09-2.17,2.91-5.47,2.09-8.37-.82-2.89-3.27-5.27-6.18-6.01"/>
    <path d="M1071.67,476.03c1.34-3.05-.45-6.71-3.74-7.43-.91-.2-1.98-.13-2.82-.58-1-.54-1.18-1.76-1.61-2.71-.77-1.65-2.08-3.01-3.67-3.89s-3.44-1.28-5.26-1.12c-1.08.09-2.22.57-3.27.12-.75-.32-1.31-.98-1.77-1.63-1.05-1.44-1.7-3.15-2.83-4.53s-2.84-2.48-4.63-3.03c-2-.61-4.18-.56-6.17.09-2.37.78-4.67,2.56-7.25,2.36-.92-.07-2.22,1.25-.78,1.36,1.88.15,3.62-.4,5.33-1.15,1.91-.85,3.75-1.87,5.91-1.7,1.92.15,3.8,1.04,5.15,2.42,1.2,1.23,1.89,2.83,2.79,4.28.74,1.2,1.68,2.36,3.05,2.85,1.79.63,3.55-.26,5.36-.06,1.93.2,3.75,1.26,4.98,2.75,1.1,1.33,1.25,3.45,2.66,4.49,1.56,1.15,3.72.51,5.24,1.77s2.12,3.44,1.34,5.22c-.45,1.03,1.68.88,2.01.14h0Z"/>
    <path class="cls-32" d="M1241.89,970.5c-111.46,2.58-198.68-2.91-201.03-44-1.55-27.04.37-58.88,51.18-78.03,1.35-.49,2.14-.78,2.14-.78,25.91-9.48,57.26-16.63,92.7-20.23,108.42-10.98,165.95,6.5,192.92,32.09l.13.08c.13.08.2.24.33.39,10.64,10.11.08,34.36,2.36,45.78,7.66,38.89.96,61.39-140.73,64.71Z"/>
    <path class="cls-18" d="M1241.89,971.87c-111.46,2.58-216.42-6.05-219.39-19.14-5.92-26.08,18.73-83.75,69.54-102.89-11.31,4.44-71.67,42.37-31.34,73.03,24.28,18.46,80.91,1.03,160.27-32.68,103.45-43.96,163.05-24.4,159.3-28.8,10.64,10.11,18.4,75.34,20.67,86.75,7.66,38.89-17.36,20.41-159.04,23.73Z"/>
    <path class="cls-39" d="M1089.14,859.02c-8.8-40.8-8.92-84.38-8.92-84.38,0,0-34.84,53.42-51.01,60.68-16.17,7.26-116.79-10.6-116.79-10.6-6.39,7.4-23.4,15.17-39.74,21.35,13.64,10.37,25.7,22.8,36.43,36.87,12.08,15.84,14.04,27.68,24.31,44.72,6.79,11.27,7.82,16.75,26.14,42.22,49.75.21,102.92-.87,116.75-7.41,29.92-14.15,21.63-62.66,12.83-103.46Z"/>
    <path class="cls-8" d="M742.94,954.1c.07.02.14.03.21.03-.02-.18-.04-.35-.06-.53-.05.17-.1.33-.15.5Z"/>
    <path class="cls-8" d="M771.63,847.74c.09,0,.18-.02.27-.06-.1-.2-.21-.4-.31-.6.01.22.03.44.04.66Z"/>
    <path class="cls-37" d="M777.05,799.41c0,6.69,3.27,13.96,8.93,17.66,2.9,1.9,6.28,2.82,9.71,3.13.48.04,1.21-.11,1.58-.42.31-.26.34-.47-.14-.51-5.6-.52-10.75-3.08-13.94-7.81-2.06-3.05-3.24-6.66-3.72-10.3-.1-.78-.19-1.57-.19-2.35,0-.39-2.23-.06-2.23.6h0Z"/>
    <path class="cls-28" d="M1058.6,647.93c-6.42,1.81-12.71,4.47-17.81,8.85-3.88,3.33-6.54,7.43-8.72,11.99-4.83,10.11-8.48,20.93-11.47,31.72-1.29,4.66-2.63,9.5-2.94,14.35l.04.05c2.33,1.26,4.66,2.53,6.98,3.79.36.2,1.52-.4,1.37-.49-1.66-.9-3.32-1.8-4.98-2.7-.4-.22-1.75-.67-1.99-1.08-.1-.17.1-.93.12-1.16.06-.51.13-1.03.2-1.54.85-5.6,2.43-11.12,4.08-16.53,1.91-6.29,4.07-12.51,6.51-18.61,1.85-4.64,3.77-9.45,6.53-13.65,5.09-7.74,13.48-12.14,22.18-14.59.83-.23.74-.66-.11-.42h0Z"/>
    <path class="cls-28" d="M900.41,742.82c-.01-6.58-.66-13.19-1.09-19.75-.6-8.92-1.24-17.83-1.77-26.75-.18-2.98-.4-5.97-.4-8.96,0-.75-1.47-.53-1.47.11.01,6.58.66,13.19,1.09,19.75.6,8.92,1.24,17.83,1.77,26.75.18,2.98.4,5.97.4,8.96,0,.75,1.47.53,1.47-.11h0Z"/>
    <g>
      <path class="cls-27" d="M1015.86,763.8c-.83-1.97.28-4.52,2.29-5.26,2.01-.73,4.5.51,5.13,2.55.8-2.08,2.57-3.86,4.75-4.27,2.19-.41,4.68.81,5.34,2.94.31.99.56,2.41,1.6,2.39.31,0,.59-.16.87-.29,2.86-1.29,6.65,1.2,6.61,4.34,0,.58-.12,1.18.12,1.71.28.61.96.93,1.41,1.43,1.02,1.15.58,3.1-.59,4.11-1.16,1.01-2.8,1.27-4.34,1.3-1.97.03-4.09-.33-5.47-1.73-1.35,2.02-3.29,3.79-5.67,4.26-2.38.47-5.17-.73-5.92-3.04-.23-.7-.37-1.59-1.07-1.82-.39-.13-.81.02-1.2.16-1.57.56-3.23,1.03-4.89.81s-3.29-1.3-3.7-2.92c-.58-2.33,1.44-4.43,3.27-5.98"/>
      <path class="cls-36" d="M1015.97,763.77c-.74-1.89.17-4.26,2.07-5.05,2-.83,4.44.4,5.12,2.41.04.12.19.11.24,0,1.17-2.92,4.35-5.25,7.52-3.83.64.29,1.23.71,1.67,1.26.48.59.67,1.25.88,1.96.25.81.66,1.93,1.72,1.73.69-.13,1.26-.55,1.99-.6.65-.05,1.31.06,1.92.28,1.3.48,2.45,1.5,2.96,2.8.28.71.26,1.38.24,2.12-.01.68.12,1.23.62,1.71.54.53,1.17.87,1.41,1.64.25.81.04,1.72-.4,2.42-1.04,1.67-3.26,2-5.06,2s-3.82-.35-5.19-1.7c-.06-.06-.15-.04-.19.02-1.31,1.93-3.15,3.69-5.5,4.18-2.03.43-4.47-.36-5.54-2.22-.42-.72-.42-1.76-1.04-2.36-.74-.71-1.88-.02-2.67.22-2.36.73-5.51.96-7.05-1.42-1.67-2.57,1.01-5.24,2.83-6.79.12-.1-.05-.28-.17-.17-1.64,1.4-3.71,3.35-3.37,5.73s2.7,3.44,4.79,3.43c1.48,0,2.82-.51,4.21-.94.54-.17,1.07-.21,1.43.32.16.24.24.52.33.78.16.51.3,1,.59,1.46,1.06,1.68,3.2,2.48,5.12,2.29,2.68-.27,4.82-2.26,6.27-4.39l-.19.02c1.18,1.16,2.79,1.62,4.4,1.74s3.49.02,4.93-.84c1.16-.69,1.97-2,1.82-3.38-.07-.69-.41-1.24-.93-1.69-.38-.33-.84-.61-1.04-1.09-.24-.55-.11-1.14-.12-1.72-.03-2.68-2.71-4.87-5.32-4.72-.73.04-1.28.36-1.95.57-1.06.32-1.41-.88-1.64-1.66-.41-1.4-1.13-2.48-2.47-3.14-3.34-1.64-6.77.77-8.03,3.9h.24c-.71-2.12-3.23-3.43-5.36-2.61s-3.1,3.35-2.3,5.38c.06.15.29.08.24-.07h0Z"/>
    </g>
    <g>
      <path class="cls-27" d="M846.61,696.77c-2.52-1.03-3.93-4.24-2.88-6.75,1.05-2.51,4.44-3.75,6.82-2.41.82-1.58,1.66-3.19,2.9-4.48,1.24-1.29,2.95-2.23,4.73-2.14,1.72.09,3.29,1.15,4.28,2.56.29.41.55.87.99,1.11.92.51,2.01-.17,2.97-.61,3.02-1.37,7.02.11,8.43,3.11.22.48.39.98.67,1.43.39.62.97,1.09,1.52,1.57,1.18,1.03,2.28,2.23,2.77,3.72.49,1.49.21,3.31-1.01,4.29-.67.54-1.53.77-2.38.92-1.93.34-3.92.32-5.84-.06-.47-.09-.96-.2-1.42-.07-.76.22-1.18,1.01-1.67,1.63-1.11,1.4-2.98,2.14-4.74,1.89-1.76-.25-3.35-1.49-4.03-3.13-.18-.43-.35-.95-.8-1.1-.41-.14-.84.1-1.21.33-1.81,1.09-3.89,1.92-6,1.72-2.11-.2-4.19-1.68-4.55-3.77"/>
      <path class="cls-36" d="M846.67,696.67c-2.44-1.04-3.87-4.09-2.82-6.6s4.29-3.62,6.64-2.36c.06.03.14.02.17-.04,1.32-2.54,2.87-5.43,5.81-6.33,1.42-.43,2.9-.2,4.14.6.53.34,1.01.77,1.41,1.25s.69,1.11,1.21,1.48c.95.66,2.08.05,2.98-.38,1.08-.51,2.24-.72,3.43-.58s2.33.6,3.28,1.31c1.08.81,1.64,1.84,2.18,3.04s1.66,1.96,2.6,2.89c1.01,1,1.92,2.21,2.15,3.64.22,1.35-.18,2.86-1.36,3.65s-2.99.92-4.41.96c-.78.02-1.57-.02-2.34-.11-.71-.09-1.46-.34-2.18-.32-1.14.04-1.62,1.1-2.28,1.86-1.9,2.19-5.3,2.32-7.36.28-.57-.56-.89-1.19-1.21-1.91-.16-.37-.35-.75-.76-.89-.59-.21-1.2.29-1.68.56-.76.43-1.55.81-2.38,1.08-1.52.5-3.19.63-4.7.03s-2.61-1.75-2.91-3.3c-.03-.15-.27-.09-.24.07.29,1.47,1.33,2.62,2.65,3.28,1.52.75,3.24.74,4.84.3.89-.25,1.75-.63,2.56-1.07.53-.29,1.25-.91,1.89-.65.39.16.52.81.69,1.16.64,1.4,1.92,2.47,3.4,2.89s3.13.1,4.39-.77c.6-.42,1.05-.95,1.48-1.53.27-.36.55-.75.96-.97.58-.32,1.25-.11,1.86,0,1.96.35,4.01.36,5.97-.04,1.52-.31,2.81-1.08,3.25-2.65s-.06-3.12-.97-4.39c-.5-.71-1.11-1.33-1.75-1.9-.74-.66-1.48-1.25-1.92-2.17-.35-.75-.64-1.49-1.17-2.14-.44-.54-.97-1-1.56-1.38-1.2-.76-2.64-1.17-4.06-1.1-.7.03-1.38.18-2.03.44-.89.37-2.05,1.22-3.03.69-.45-.25-.71-.74-1-1.14-.23-.32-.49-.62-.77-.89-.54-.52-1.17-.96-1.87-1.25-3.52-1.49-6.62,1.38-8.29,4.2-.24.4-.46.81-.68,1.22-.07.14-.23.59-.35.66-.14.08-.21,0-.37-.07-.6-.25-1.25-.36-1.89-.34-1.33.03-2.65.58-3.6,1.5-2.05,1.98-1.72,5.31.18,7.28.48.5,1.05.88,1.68,1.16.14.06.27-.15.12-.21h0Z"/>
    </g>
    <path class="cls-26" d="M930.47,861.66s79.89,11.84,113.64,4.95c33.75-6.9,49.23-17.11,49.23-17.11l-10.2-74.86,6.19-42.84"/>
    <g>
      <path class="cls-42" d="M943.18,926.68c-3.14-5.78-6.13-13.12-13.72-24.31-17.67-26.05-41.11-58.44-41.11-58.44l-24.78,13.95s8.75,37.43,20.61,64.29c4.25,9.62,8.89,17.89,13.68,22.59,18.16,17.81,55.77,1.16,45.32-18.08Z"/>
      <path class="cls-42" d="M994.58,890.73c-3.09-5.95-9.65-12.8-17.61-19.67-22.23-19.18-55.48-38.47-55.48-38.47l-20.57,19.63s24.14,31.87,43.9,56.37c8.49,10.52,10.54,11.52,15.15,16.21,15.35,15.61,46.35-11.51,34.62-34.07Z"/>
      <path class="cls-42" d="M869.43,748.77c.47,2.22,1.47,4.28,2.92,6.02,9.16,10.91,34.15,71.49,37.25,74.15,8.33,7.13,34.56-16.42,25.41-31.61-5.33-8.85-22.72-47.93-44.32-62.76-10.24-7.03-23.82,2.03-21.27,14.19h0Z"/>
      <path class="cls-11" d="M782.86,857.34c-14.96-11.49-13.73-23.35-9.43-33.78,4.29-10.43,51.45-109.53,51.45-109.53l50.3-3.68s26.38,63.8,32.51,73.62c6.13,9.82,35.62,48.55,34.39,51-1.23,2.45-32.81,36.41-89.87,36.41s-64.89-10.6-69.36-14.04Z"/>
      <path class="cls-42" d="M863.69,624.31c-17.73,11.57-52.61,26.55-72.25,33.71-3.66,27.54,7.43,60.75,55.52,63.87,47.92,3.1,62.77-33.1,57.91-65.78-19.73-5.34-23.67-20.47-41.17-31.8Z"/>
      <path class="cls-44" d="M889.26,619.93c-3.45-4-8.5-7.58-14.53-10.3-14.38-6.49-34.42-8.05-52.15,1.39-7.45,3.96-14.49,9.86-20.53,18.16-5.03,6.92-9.09,17.4-10.61,28.85,18.39,9.18,54.27-14.78,72-26.35,17.5,11.33,21.69,19.09,41.42,24.44-2.04-13.74-7.57-26.87-15.6-36.18Z"/>
      <path d="M816.82,624.21c9.5-7.95,10.46-6.68.17.22-.13.1-.31-.1-.17-.22h0Z"/>
      <path d="M865.31,615.47c2.05,1.73,6.2,5.18,8.27,6.89.06.05.07.14.02.2-.04.05-.12.06-.18.03-3.03-1.96-5.82-4.29-8.3-6.91-.12-.12.06-.31.19-.2h0Z"/>
      <ellipse cx="876.7" cy="670.54" rx="5.53" ry="6.2" transform="translate(-72.67 107.59) rotate(-6.74)"/>
      <path d="M829.56,671.19c.4,3.4,3.19,5.86,6.22,5.51,3.03-.36,5.17-3.41,4.77-6.8-.4-3.4-3.19-5.86-6.22-5.51-3.03.36-5.17,3.41-4.77,6.8Z"/>
      <path class="cls-21" d="M812.17,683.57c.4,3.4,3.19,5.86,6.22,5.51,3.03-.36,5.17-3.41,4.77-6.8-.4-3.4-3.19-5.86-6.22-5.51-3.03.36-5.17,3.41-4.77,6.8Z"/>
      <path class="cls-21" d="M884.11,684.42c.4,3.4,3.19,5.86,6.22,5.51,3.03-.36,5.17-3.41,4.77-6.8-.4-3.4-3.19-5.86-6.22-5.51-3.03.36-5.17,3.41-4.77,6.8Z"/>
      <path class="cls-4" d="M831.9,691.28c.05.15,7.4,10.32,27.3,9.59,16.8-.62,19.52-11.77,19.52-11.77"/>
      <g class="cls-25">
        <polyline class="cls-2" points="901.74 732.22 897.65 741.89 884.25 723.75 871.49 744.46 859.33 730.79 843.91 746.75 832.38 726.42 816.92 742.64"/>
        <polyline class="cls-2" points="816.92 765.45 827.36 783.98 844.41 761.99 860.46 782.7 873.22 761.99 886.61 780.13 895.42 759.33"/>
        <polyline class="cls-2" points="803.7 805.88 814.14 824.42 831.19 802.43 847.24 823.13 860 802.43 881.24 820.57 890.04 799.77 910.48 813.27 915.61 796.79"/>
        <polygon class="cls-2" points="843.37 779.02 833.99 790.45 843.37 801.15 851.9 790.09 843.37 779.02"/>
        <polygon class="cls-2" points="814.8 781.18 805.42 792.6 814.8 803.3 823.33 792.24 814.8 781.18"/>
        <polygon class="cls-2" points="875.34 777.64 865.96 789.07 875.34 799.77 883.87 788.7 875.34 777.64"/>
        <polygon class="cls-2" points="899.91 773.06 893 786.12 904.32 794.74 910.48 782.2 899.91 773.06"/>
        <polygon class="cls-2" points="860.34 742.64 850.96 754.07 860.34 764.76 868.87 753.7 860.34 742.64"/>
        <polygon class="cls-2" points="831.76 744.79 822.38 756.22 831.76 766.91 840.29 755.85 831.76 744.79"/>
        <polygon class="cls-2" points="882.04 739.71 875.13 752.78 886.45 761.39 892.61 748.85 882.04 739.71"/>
        <path class="cls-2" d="M768.13,824.09s28.67,24.97,80.13,20.89c51.46-4.08,84.09-29.67,84.09-29.67"/>
        <path class="cls-2" d="M770.86,833.89s28.25,20.92,79.71,16.84c51.46-4.08,84.09-29.67,84.09-29.67"/>
        <path class="cls-2" d="M768.87,840.67s31.52,21.57,82.99,17.49c51.46-4.08,87.23-32.81,87.23-32.81"/>
      </g>
      <path class="cls-42" d="M824.76,740.98c.18,2.26-.2,4.52-1.11,6.6-5.72,13.05-12.67,78.21-14.9,81.64-5.98,9.19-44.76-1.99-40.25-19.14,2.63-9.99,16.92-48.78,33.48-69.09,7.85-9.63,21.82-12.39,22.79,0h0Z"/>
    </g>
    <path class="cls-13" d="M1073.52,731.82c-21.19-1.76-38.31-8.38-38.31-8.38-3.31-1.62-6.52-3.43-9.8-5.11l-33.72,75.48c2.5,1.49,8.36,12.08,10.44,14.11,8.98,8.76-8.2,32.3,11.64,23.18,5.51-2.53,14.46,2.73,21.38,2.02,14.68-7.22,48.98-89.1,53.65-100.19-5.1-.2-10.2-.7-15.28-1.12Z"/>
    <path class="cls-13" d="M1034.46,831.88c-6.16-10.92-13.75-21.3-22.94-29.88-5.49-5.13-7.33-12.31-14.8-14.37l-5,2.89c-14.04,2.92-75.58,34.53-91.08,38.92.56,1.09,1.11,2.19,1.62,3.31,3.92,8.51,6.48,17.61,7.05,26.99.33,5.41-5.12-4.05-6.02,1.27,2.05-1.56,7.4,3.07,9.44,1.11,30.35-2.04,98.89-17.1,122.42-28.99-.23-.42-.46-.83-.69-1.25Z"/>
    <g>
      <path class="cls-19" d="M237.06,666.13s-26.93-8.77-45.74,20.73"/>
      <path class="cls-14" d="M237.94,665.33c-3.47-1.12-7.39-1.35-11.01-1.24-8.45.27-16.67,3.06-23.5,8.06-5.42,3.96-9.84,9.04-13.46,14.67-.74,1.15,2.17.92,2.71.09,5.47-8.53,13.06-15.97,22.83-19.25,5.55-1.87,11.7-2.37,17.36-1.45,1.11.18,2.24.39,3.31.74.95.31,3.39-1.08,1.76-1.61h0Z"/>
    </g>
    <path class="cls-40" d="M411.63,724.82c-182.25-8.98-252.13-195.35-252.13-195.35,0,0,7.79-12.59,17.54-28.7,20.28,31.29,72.92,156.7,231.85,188.91,0,0,76.08-.7,127.28-24.76,64.75-30.43,105.86-77.04,98.29-77.49l9.11,42.09s-64.88,103.54-231.94,95.31Z"/>
    <path class="cls-13" d="M831.81,845.18c7.57,1.76,17.76,3.95,18.9,3.27,1.14-.68,9.45-3.97,16.73-6.81,3.78-1.28,5.82-5.38,4.54-9.17-.33-.99-19.4.41-19.72-8.27l15.72-4.56c5.3-.74,10.68-.8,16-.18,6.57,1.17,23.97,10.66,23.97,10.66l19.88-6.26,8.91,35.97-20.72,2.47-17.41,11.06s-35.82,12.77-41.14,11.18c-5.32-1.59-13.63-10.67-13.63-10.67-7.29-.91-10.98-10.35-10.98-10.35-11.52-5.45-4.55-9.58-4.55-9.58-.43-.09-.83-.3-1.15-.61-3.5-3.31.13-9.22,4.63-8.13Z"/>
    <path class="cls-24" d="M870.28,853.33c-1.68,1.49-3.57,2.71-5.61,3.64-4.68,2.74-9.93,4.35-15.35,4.7-5.41-.15-10.69-1.72-15.31-4.55-2-.93-3.83-2.17-5.45-3.67,2.08.64,4.09,1.5,5.99,2.57,4.57,2.38,9.61,3.71,14.76,3.9,5.19-.36,10.26-1.74,14.91-4.07,1.92-1.06,3.95-1.9,6.05-2.51Z"/>
    <path class="cls-24" d="M871.32,862.61c-1.32,1.6-3.03,2.85-4.95,3.62-1.96,1.03-4,1.91-6.09,2.64-2.59,1.01-5.36,1.47-8.13,1.36-2.67-.37-5.3-1.05-7.81-2.02l-6.05-2.22c-1.93-.55-3.77-1.38-5.45-2.47,2,.14,3.97.58,5.85,1.3,1.77.49,3.87,1.12,6.18,1.87,2.43.85,4.93,1.46,7.48,1.82,2.58.14,5.16-.22,7.6-1.07,2.05-.63,4.06-1.36,6.03-2.19,3.38-1.44,5.34-2.62,5.36-2.63Z"/>
    <path class="cls-24" d="M871.73,873.72c.25.66-6.14,2.96-13.96,5.22-1.09.29-2.23.29-3.33,0-.93-.18-1.85-.42-2.75-.71-1.52-.46-3-1.07-4.41-1.82-2.41-1.28-3.62-2.52-3.47-2.69s1.54.65,3.98,1.58c1.41.55,2.84,1.03,4.3,1.42.86.24,1.74.43,2.62.57.83.21,1.7.21,2.53,0,3.98-1.19,7.55-2.07,10.17-2.72,1.4-.44,2.85-.73,4.32-.85Z"/>
    <path class="cls-34" d="M610.92,674.16c.05.12.12.23.21.33.21-.23.43-.47.64-.7-.28.12-.57.25-.85.37Z"/>
    <path class="cls-20" d="M669.3,654.77l-.48-.06c.16.03.32.05.48.06Z"/>
    <path class="cls-20" d="M497.7,672.74c.5.12,1.02.15,1.53.1-.5-.14-1.02-.17-1.53-.1Z"/>
    <g class="cls-38">
      <path d="M592.38,834.55h0c-.38-.02-.76-.09-1.13-.19.37.1.74.17,1.13.19Z"/>
    </g>
    <g class="cls-38">
      <path d="M458.63,837.21c-.36.12-.74.19-1.12.23h0c.38-.04.75-.12,1.12-.23Z"/>
    </g>
    <path class="cls-24" d="M441.58,722.77c3.64,16.16,9.67,31.61,14.5,47.42.15.5,1.6.11,1.45-.39-4.83-15.81-10.86-31.26-14.5-47.42-.11-.5-1.57-.13-1.45.39h0Z"/>
    <path class="cls-22" d="M390.87,739.97c3.87-.24,4.06.18,7.82-.62,0,0,15.06-16.06,31.15-17.4,16.09-1.34,32.65,8.6,41.6,6.52,10.13-2.36,30.44.63,33.73,4.84,5.33,6.84-2.82,15.09-18.66,14.21-10.31-.5-20.64-.12-30.89,1.15,0,0,77.37,62.8,81.11,68.93,3.74,6.13,7.59,12.44,3.14,16.45s-18.24-9.24-18.24-9.24l-6.66.36c-2.14.12-4.28-.26-6.25-1.09l-19.84-8.4c-12.29,1.07-29.53.12-41.64-2.21-16.61-3.85-46.3-25.42-46.3-25.42l-22.39-3.19c.19-2.28,11.35-39.3,12.31-44.87Z"/>
    <path class="cls-35" d="M521.86,823.6c-3.91-3.3-8.28-6.08-12.51-8.94-5.16-3.48-10.36-6.9-15.42-10.53-2.05-1.47-4.1-2.96-5.97-4.65-.4-.37-2.14.35-1.78.67,3.78,3.42,8.16,6.23,12.37,9.1,5.15,3.5,10.36,6.92,15.46,10.49,2.07,1.45,4.14,2.91,6.07,4.53.42.36,2.14-.37,1.78-.67h0Z"/>
    <path class="cls-35" d="M498.2,818.24c-8.34-4.84-16.67-9.68-25.01-14.52-1.19-.69-2.38-1.38-3.57-2.07-.46-.27-1.99.51-1.79.63,8.34,4.84,16.67,9.68,25.01,14.52,1.19.69,2.38,1.38,3.57,2.07.46.27,1.99-.51,1.79-.63h0Z"/>
    <path class="cls-24" d="M994.51,789.09c7.66-.8,15.35,3.89,18.34,10.95.16.39,1.58-.07,1.45-.39-3.13-7.41-11.21-12.04-19.18-11.2-.24.03-.85.09-.97.36s.09.31.36.29h0Z"/>
    <polygon class="cls-27" points="753.07 211.07 646.09 297.11 820.03 299.25 753.07 211.07"/>
  </g>
  <g id="Layer_16" data-name="Layer 16">
    <ellipse class="cls-27" cx="941.44" cy="227.41" rx="239.12" ry="192.03"/>
    <ellipse class="cls-1" cx="942.86" cy="228.43" rx="239.12" ry="192.03"/>
    <path class="cls-22" d="M1008.59,331.17c1.72-.14,13.47-.04,15.03-.77,5.68-2.67,8.53-5.91,9.74-11,.39-2.12,2.13-10.96,1.82-13.06-.6-4.09.08-1.37,3.77-3.25l4.73-2.4c1.83-.93,3.4-2.35,4.33-4.18,1.91-3.78,3.25-7.83,3.95-12.02.85-7.17-9.01-18.28-9.01-18.28l5.38-1.79c5.8-3.17,7.41-5.8,7.61-12.41l-.02-3.13c-.5-3.08-1.47-6.05-2.86-8.81-2.22-4.4-.91-9.69,3.03-12.64,3.31-2.48,6.42-5.56,6.8-8.58.31-11.85-6.26-22.78-16.8-28.08-.68-.34-1.41-.6-2.15-.8-19.92-5.34-40.18-9.34-60.64-11.99-1.43-.18-23.44-8.71-24.67-9.29-9.99,5.51-.29,16.01-12.04,16.17-10.86.15-21.67-1.23-32.51-1.71-3.5-.15-6.81,1.65-8.73,4.58-.01.02-.02.04-.04.06-.55.83-1.21,1.58-1.97,2.22l-51.03,42.55c-3.02,2.52-20.54.51-20.54,4.43-.03,42.88,10.59,92.18,9.33,92.28-1.42.11,32.18-9.2,42.87-3.44,0,0,69.81,9.82,124.63,5.36Z"/>
    <path class="cls-22" d="M972.98,185.51c-1.24-2.02-10.24-13.67-10.24-16.22,0-.71.05-1.42.17-2.12,3.45-19.59,3.92-39.58,1.4-59.31-3.9-21.2-15.95-26.43-23.91-27.62-3.38-.48-6.51,1.87-6.98,5.25-.05.35-.07.71-.06,1.06.72,13.85.57,27.73-.46,41.55-1.08,6.91-16.4,39.58-25.98,59.55,20.01-1.54,49.29,8.75,66.06-2.15Z"/>
    <path class="cls-45" d="M934.13,232.45c12.62,6.58,21.46,18.77,23.84,32.8.13.77,2.07.29,1.93-.52-2.41-14.23-11.46-26.63-24.26-33.31-.64-.33-2.38.56-1.51,1.02h0Z"/>
    <path class="cls-45" d="M1047.61,229.06c-1.33.25-2.88.1-4.23.1-.96,0-1.91,0-2.87,0-1.71-.01-3.42-.04-5.14-.06-4.88-.06-9.77-.1-14.65-.18-9.1-.15-18.19-.39-27.29-.58-7.41-.16-15,.2-22.3-1.18-4.84-.91-9.32-3.62-12.46-7.4-3.73-4.49-3.76-10.53-1.07-15.54,5.61-10.43,18.88-11.27,29.33-11.43,5.25-.08,10.5-.13,15.75-.22,8.01-.13,16.02-.27,24.03-.26.61,0,1.22,0,1.83,0,.15,0,.3,0,.45.01.2,0,.48.05.69.02.36-.04.63.24.22-.17.63.63,2.45-.17,1.76-.86-.77-.77-2.46-.45-3.5-.45-1.44,0-2.87,0-4.31,0s-2.82.03-4.23.05c-5.27.07-10.55.12-15.82.2-4.43.06-8.86.15-13.28.22-9.87.17-20.82-.09-29.09,6.15-4.1,3.1-7.39,7.81-7.75,13.08-.18,2.68.41,5.36,1.61,7.75,1.11,2.2,3.05,4.1,4.96,5.62,3.91,3.12,8.39,4.5,13.29,5.06,5.77.66,11.53.6,17.32.75,9.55.24,19.11.41,28.66.61,8.01.17,16.02.26,24.03.27,1.47,0,2.94.09,4.39-.19,1.22-.23.84-1.59-.37-1.36h0Z"/>
    <path class="cls-45" d="M1040.25,264.29c-2.1.3-4.24.04-6.35-.07l-6.7-.35c-5.28-.28-10.56-.77-15.82-1.31-8.63-.87-17.2-2.1-25.8-3.22s-17.68-2.78-21.98-10.88c-1.92-3.62-2.55-8.22-1-12.09.74-1.84,1.89-3.5,3.4-4.8.81-.69,1.7-1.28,2.66-1.73s2.35-1.12,3.4-.95l-.54-.24.05.05c.57.55,2.4-.21,1.78-.81-.99-.97-3.5.11-4.53.52-1.75.68-3.37,1.7-4.74,2.98-2.78,2.6-4.3,6.26-4.29,10.05s1.39,7.46,3.73,10.42c2.59,3.28,6.49,5.49,10.46,6.69,4.7,1.42,9.69,1.87,14.52,2.57s9.79,1.35,14.7,1.91c7.12.82,14.28,1.63,21.44,2.02,2.48.14,4.97.26,7.45.39,2.62.14,5.35.5,7.95.13,1.01-.15,1.53-1.47.21-1.28h0Z"/>
    <path class="cls-45" d="M1029.57,297.55c-3.21.01-6.45-.64-9.62-1.1-1.96-.28-3.92-.54-5.87-.85-4.28-.68-8.55-1.43-12.83-2.14-6.33-1.06-12.67-2.12-19-3.17-1.67-.28-3.34-.57-5.02-.84-4.49-.72-9.33-1.24-13.52-3.1-2.85-1.27-5.69-3.35-7.27-6.09s-1.96-6.31-.87-9.39c2.4-6.77,10.16-11.03,17.2-9.86.43.07.97-.04,1.35-.25.13-.07.69-.42.24-.49-5.57-.93-11.81,1-16.14,4.54s-6.74,10.02-3.98,15.44c4.16,8.18,14.94,8.85,22.89,10.18,11.55,1.93,23.09,3.86,34.64,5.79,1.71.29,3.42.51,5.13.76,3.75.54,7.62,1.36,11.41,1.35.37,0,1.1-.06,1.36-.37.18-.21.37-.42-.11-.41h0Z"/>
    <path class="cls-45" d="M1013.9,327.65c-5.76-1.72-11.13-4.39-16.59-6.86-5.79-2.62-11.57-5.29-17.34-7.97-3.08-1.43-6.15-2.87-9.22-4.3-4.19-1.96-9.14-3.87-11.22-8.34-1.48-3.17-1.12-6.7,1.61-9.06,1.36-1.18,3.03-1.93,4.83-2.05.41-.03,3.37-.11,3.53.55.11.49,2.05.01,1.93-.52-.11-.48-1.4-.69-1.75-.76-1.45-.29-3.01-.23-4.46.04-2.68.51-5.46,1.92-7.1,4.16-1.82,2.49-1.75,5.63-.43,8.32,1.44,2.95,4.13,4.76,6.94,6.29,3.17,1.72,6.58,3.11,9.84,4.64,5.6,2.62,11.22,5.21,16.84,7.79,3.12,1.43,6.26,2.83,9.39,4.24,3.83,1.73,7.59,3.43,11.63,4.64.48.14,2.2-.62,1.57-.8h0Z"/>
    <path class="cls-45" d="M879.39,318.1c-5.75-4.03-10.78-9.17-13.98-15.47-2.98-5.86-4.24-12.5-3.64-19.05.36-3.91,1.34-7.73,2.75-11.4.2-.52-1.7-.3-1.92.28-2.45,6.37-3.54,13.27-2.53,20.06.99,6.6,3.95,12.75,8.21,17.86,2.7,3.23,5.87,6.02,9.31,8.43.51.35,2.23-.41,1.8-.72h0Z"/>
  </g>
</svg>