<?xml version="1.0" encoding="UTF-8"?>
<svg xmlns="http://www.w3.org/2000/svg" xmlns:xlink="http://www.w3.org/1999/xlink" viewBox="0 0 991.05 991.05">
  <defs>
    <style>
      .cls-1, .cls-2, .cls-3, .cls-4 {
        fill: none;
      }

      .cls-5 {
        stroke: #000;
        stroke-width: .13px;
      }

      .cls-5, .cls-2, .cls-3, .cls-6, .cls-7, .cls-4 {
        stroke-miterlimit: 10;
      }

      .cls-8 {
        fill: #4d3935;
      }

      .cls-9 {
        fill: #010101;
      }

      .cls-10 {
        fill: #542d63;
      }

      .cls-11 {
        fill: #cb83b0;
      }

      .cls-2 {
        stroke: #6a3f74;
      }

      .cls-12 {
        fill: #0e0a09;
      }

      .cls-13 {
        fill: #a36f53;
      }

      .cls-14 {
        fill: #777;
      }

      .cls-15 {
        fill: #13110f;
      }

      .cls-16 {
        fill: #efe8d4;
      }

      .cls-17 {
        fill: #2d1710;
      }

      .cls-18 {
        fill: #352962;
      }

      .cls-3 {
        stroke: #d0ac46;
        stroke-dasharray: .97 .97;
        stroke-width: .98px;
      }

      .cls-19, .cls-7 {
        fill: #100f10;
      }

      .cls-20 {
        fill: #dedede;
      }

      .cls-21 {
        fill: #9e352c;
      }

      .cls-22 {
        fill: #a46e53;
      }

      .cls-23 {
        fill: #e4e56f;
      }

      .cls-24 {
        fill: #4a3027;
      }

      .cls-25 {
        clip-path: url(#clippath-1);
      }

      .cls-26 {
        clip-path: url(#clippath-3);
      }

      .cls-27 {
        clip-path: url(#clippath-2);
      }

      .cls-28 {
        fill: #c8793d;
      }

      .cls-29 {
        fill: #fff;
      }

      .cls-6 {
        stroke: #221f20;
        stroke-width: .19px;
      }

      .cls-30 {
        fill: #734a24;
      }

      .cls-31 {
        fill: #d0ac46;
      }

      .cls-32 {
        fill: #b9b3d2;
      }

      .cls-33 {
        fill: #71507d;
      }

      .cls-34 {
        fill: #3c326e;
      }

      .cls-35 {
        fill: #643b29;
      }

      .cls-36 {
        fill: #513835;
      }

      .cls-7 {
        stroke: #777;
      }

      .cls-37 {
        fill: #66443b;
      }

      .cls-38 {
        fill: #221f20;
      }

      .cls-39 {
        fill: #3e2c16;
      }

      .cls-40 {
        opacity: .3;
      }

      .cls-4 {
        stroke: #100d0c;
        stroke-width: .81px;
      }

      .cls-41 {
        fill: #ad6533;
      }

      .cls-42 {
        fill: #24163a;
      }

      .cls-43 {
        fill: #efedf5;
      }

      .cls-44 {
        fill: #885e4b;
      }

      .cls-45 {
        clip-path: url(#clippath);
      }

      .cls-46 {
        fill: #100d0c;
      }

      .cls-47 {
        fill: #4f2e25;
      }

      .cls-48 {
        fill: #813a30;
      }
    </style>
    <clipPath id="clippath">
      <circle class="cls-1" cx="-1285.96" cy="495.52" r="495.52"/>
    </clipPath>
    <clipPath id="clippath-1">
      <circle class="cls-1" cx="495.52" cy="495.52" r="495.52"/>
    </clipPath>
    <clipPath id="clippath-2">
      <path class="cls-1" d="M407.73,425.83c-6.97-34.04-25.45-62.02-32.35-71.58-.25-2.65-.14-5.78.38-9.69,7.29-14.84,25.83-53.29,34.15-77.17,11.3-32.44,15.9-85.33,15.9-85.33,3.2-83.31-81.68-89.04-81.68-89.04-121.77-20.13-133.04,146.66-134.05,172.16l-1.2,4.43-17.04,15.33-11.73,7.6s-24.33,12.05-45.21,24.28c-20.87,12.23-24.19-5.6-89.03,125.59-11.66,23.59-27.01,52.65-27.01,52.65,0,0,69.45,103.8,181.15,143.52,111.7,39.71,227.37-81.43,227.37-81.43,0,0-11.03-89.1-19.66-131.31ZM302.36,167.05c11.67-16.78,26.13-19.29,26.13-19.29,26.44-5.09,62.98-2.99,82.97,25.68,12.04,17.27,4.66,40.39,4.16,42.46-.25,1.22-.52,2.36-.81,3.37-3.43,11.78-10.83,31.47-12.51,36.52-1.46,4.37-2.88,11.48-3.53,16.25-1.47,10.67-2.13,13.41-7.4,23.14-5.09,9.41-8.99,14.14-16.96,21.32-8.31,7.49-14.98,14.91-25.04,20.52-6.63,3.69-12.13,5.99-26.91,2.42-21.79-5.25-41.15-34.63-51.37-52.15l-2.09-13.65c-.65-14.76,3.6-35.37,6.65-49.71,5.21-24.51,15.04-40.07,26.71-56.86Z"/>
    </clipPath>
    <clipPath id="clippath-3">
      <path class="cls-1" d="M553.96,775.56c-12.9-9.91-11.84-20.13-8.13-29.12,3.7-8.99,44.36-94.43,44.36-94.43l43.37-3.17s22.74,55.01,28.03,63.47c5.29,8.46,30.71,41.86,29.65,43.97-1.06,2.12-28.29,31.39-77.48,31.39s-55.94-9.14-59.8-12.1Z"/>
    </clipPath>
  </defs>
  <g id="Layer_11" data-name="Layer 11">
    <g class="cls-45">
      <circle class="cls-1" cx="7.55" cy="483.17" r="495.52"/>
    </g>
  </g>
  <g id="Layer_15" data-name="Layer 15">
    <g class="cls-25">
      <polyline class="cls-16" points="-311.74 1132.27 -311.74 -18.44 1211.88 -18.44 1211.88 1132.27"/>
      <path class="cls-22" d="M457.71,631.49c2.27-4.76,5.11,3.43,18.31,7.27,0,0-19.96-16.35-12.04-23.89,2.09-1.99,8.05,7.46,12.48,10.36,4.53,2.97,7.52,3.97,7.52,3.97,0,0-14.58-14.76-10.52-19.1,1.99-2.13,7.03,3.86,11.61,6.93,4.75,3.19,9,3.51,9,3.51,0,0-9.17-6.93-5.71-11.2,3.46-4.27,12.28,2.2,18.49,7.6,3.94,3.42,11.26,16.76,14.49,24.15,10.93,7.12,41.35,11.11,51.03,18.19l71.62-30.38,11.99,60.57s-79.22,19.21-91.16,14.74c-19.95-7.47-42.91-15.5-61.29-33.17-18.4-1.74-29.35-10.89-33.44-12.57-7.67-3.15-13-9.79-11.81-12.82.51-1.29,14.22,4,14.22,4,0,0-17.08-13.41-14.8-18.17Z"/>
      <path class="cls-19" d="M300.25,437.33s-6.61,19.74,3.47,59.21c10.08,39.47,34.18,147.08,86.05,170.61,49.18,22.32,211.14-16.46,211.14-16.46l-13.74-44.46-149.38-18.05s-36.35-64.03-50.46-92.58c-14.11-28.55-87.07-58.27-87.07-58.27Z"/>
      <path class="cls-22" d="M704.26,552.48c6.94-.9,34.94-1.02,41.69-3.09,3.09-.95,26.41-9.81,29.28-11.44-13.57,22.54-9.72,34.08-7.43,38.68l4.43,8.63c-21.79,20.66-76.3,41.82-89.45-7.74l19.26-6.83,2.23-18.21Z"/>
      <path class="cls-28" d="M794.47,761.19l12.33-9.53,3.53-28.29,1.16-14.18c1.34-1.16,3.05-22.45,3.39-24.04.84-3.9,1.51-7.83,2.16-11.76.66-3.98.05-2.27.69-6.25,0,0,10.5,1.16,11-1.07.71-3.16,3.58-26.77,3.47-30.01-.69-18.99.04-9.37-2.63-22.73-2.12-7.59-7.39-16.55-12.99-22.12-6.06-6.02-16.17-9.65-24.09-12.28-26.3-8.72-27.37-11.95-27.37-11.95,0,0-15.74,34.97-55.84,32.94-24.87-1.26-8.26-28.66-8.26-28.66l-1.73.3c-17.5-.15-49.96,14.24-63.39,38.29-5.53,9.91-17.01,24.67-18.63,35.85,1.08.37,30.62,34.38,31.31,35.13l6.1-5.15s6.53,67.41,6.53,87.03,24.49,15.67,72.37,15.67"/>
      <g>
        <ellipse class="cls-46" cx="559.53" cy="587.31" rx="15.33" ry="13.78"/>
        <ellipse class="cls-46" cx="556.59" cy="605.04" rx="15.33" ry="13.78"/>
        <ellipse class="cls-46" cx="559.53" cy="625.14" rx="15.33" ry="13.78"/>
        <ellipse class="cls-46" cx="659.73" cy="596.41" rx="15.33" ry="13.78"/>
        <ellipse class="cls-46" cx="659.73" cy="616.07" rx="15.33" ry="13.78"/>
        <ellipse class="cls-46" cx="568.5" cy="568.86" rx="15.33" ry="13.78"/>
        <ellipse class="cls-46" cx="587.25" cy="559.76" rx="15.33" ry="13.78"/>
        <ellipse class="cls-46" cx="607.65" cy="555.52" rx="15.33" ry="13.78"/>
        <ellipse class="cls-46" cx="626.03" cy="556.29" rx="15.33" ry="13.78"/>
        <ellipse class="cls-46" cx="644.41" cy="566.03" rx="15.33" ry="13.78"/>
        <ellipse class="cls-46" cx="653.23" cy="579.81" rx="15.33" ry="13.78"/>
      </g>
      <path class="cls-32" d="M1121.89,871.83l-1482.73-18.29v127.14l1482.19,7.5c17.15.09,31.1-13.79,31.1-30.95v-54.45c0-16.94-13.62-30.74-30.57-30.94Z"/>
      <path class="cls-19" d="M305.45,358.81l39.77,31.87c2.56,2.09,16.3,15.57,18.66,17.85-1.83,14.74-2.04,23.88-1.85,38.7.13,10.23.5,20.46.82,30.68.33,10.6.26,21.16-.13,31.76-.41,11.01.09,28.28-2.12,39.08-1.88,9.2-6.84,23.52-12.04,31.31-4.85,7.28-18.66,15.25-22.77,23-3.96,7.47-3.88,14.44-3.88,14.44-3.9,17.4,1.82,21.08-.68,45.49-.15,1.51,2.37,2.72,2.72,4.2-17.5,4.6-34.86,10.45-52.89,11.67-9.18.62-17.95,3.91-27.02,5.43-22.58,3.77-44.04-4.15-65.77-8.58-23.5-4.79-58.28-.83-105.54,7.31l-64.9,6.44s-2.73-26.41,7.28-48.4c10.02-21.99,69.96-92.77,69.96-92.77,0,0,2.55-187.35,17.34-195.89,9.26-5.38,89.98-22.46,110.4-24.94,0,0,23.75,56.31,64.2,63.55,40.45,7.23,28.44-32.2,28.44-32.2Z"/>
      <path class="cls-18" d="M724.16,892.37c-39.13-33.63-58.2-156.71-107.21-174.09-28.94-10.26-155.52,36.8-186.09,33.15-218.8-26.12-244.5,1.24-417.69,12.12-58.45,3.67-173.15-2.93-265.33-.64-33.99.84-69.81,1.92-108.67,2.9v374.89c75.14,3.59,150.35,5.83,225.57,6.7,320.06,3.67,412.15-55.12,886.77-7.5,2.2-80.2,34.37-194.48-27.35-247.53Z"/>
      <path class="cls-19" d="M441.49,740.62c.02-.08.04-.16.06-.24-55.57-42.92-175.18-110.55-175.18-110.55,0,0-48.97,17.41-104.2,43.49v-12.5l-136.21-17.16s-48.95,90-16.26,163.17c.02.08.02.16.04.24,14.32,60.27,126.51,77.78,238.55,78.19-.63,4.52-1.36,9.51-2.23,15.17-11.79,76,4.05,232.92-5.81,272.8,12.89,20.41,131.41,27.84,131.41,27.84.05-.19,27.38,1.19,27.43.99,30.02,2.18,37.01-2.37,37.01-2.37,28.69-90.03,43.15-228.43,57.61-318.49,9.41-58.64-17.27-123.21-52.2-140.59Z"/>
      <path class="cls-19" d="M230.97,1177.12s95.28,30.33,163.93-49.99c68.65-80.33,78.1-289.51,67.46-335.07s-32.26-61.72-52.14-74.92c-19.89-13.2-88.08-59.01-88.08-59.01,0,0-80.92,18.42-160.3,1.66-79.38-16.75-129.55-57.74-129.55-57.74,0,0-38.12,54.06-38.48,140.17-.36,86.11,41.72,132.23,125.06,138.71,83.35,6.47,118.95,10.74,118.95,10.74l-6.84,285.44Z"/>
      <path class="cls-7" d="M103.41,364.21s-17.55,11.2-34.51,48.24c-16.96,37.04-82.22,170.85-72.79,227.02,11.1,66.14,207.09,79.64,207.09,79.64l17.25-43.22-137.36-67.68s44.47-112.89,51.43-143.96c6.97-31.08-31.12-100.04-31.12-100.04Z"/>
      <path class="cls-19" d="M369.28,409.32s17.69,18.63,22.31,27.65c4.62,9.02,22.54,124.99,22.54,124.99,0,0-15.28,18.9-74.22,10.56-58.94-8.34,29.37-163.2,29.37-163.2Z"/>
      <path class="cls-33" d="M407.73,425.83c-6.97-34.04-25.45-62.02-32.35-71.58-.25-2.65-.14-5.78.38-9.69,7.29-14.84,25.83-53.29,34.15-77.17,11.3-32.44,15.9-85.33,15.9-85.33,3.2-83.31-81.68-89.04-81.68-89.04-121.77-20.13-133.04,146.66-134.04,172.16l-1.2,4.43-17.04,15.33-11.73,7.6s-24.33,12.05-45.21,24.28c-20.87,12.23-24.19-5.6-89.03,125.59-11.66,23.59-27.01,52.65-27.01,52.65,0,0,69.45,103.8,181.15,143.52,111.7,39.71,228.66-77.24,228.66-77.24,0,0-12.32-93.29-20.96-135.5Z"/>
      <path class="cls-22" d="M414.65,219.22c3.43-11.79,3.65-39.03,3.65-39.03.05-1.28,1.13-20.34.88-21.47-16.36-12.42-39.55-29.77-59.89-30.08-19.71-.3-65.19.35-71.99,23.71-2.08,7.13-9.06,54.41-14.87,54.32-.32.92-.57,1.76-.71,2.46-1.23,6.19-6.39,18.89-6.39,18.89-1.17-2.7-3.76-8.51-4.15-11.35-.47-2.52.98-5.23.51-7.74-1.81-5.95-9.22-6.16-13.9-3.95l-.92.89c-7.23,5.87-7.22,29.94-4.98,37.66-2.35,13.95,7.82,24.2,17.1,16.08l.52,5.81,11.39,21.81c10.22,17.53,29.58,46.9,51.37,52.15,14.79,3.56,20.28,1.27,26.91-2.42,10.07-5.61,16.74-13.03,25.04-20.52,7.97-7.18,11.87-11.91,16.96-21.32,5.26-9.73,5.92-12.48,7.4-23.14.66-4.77,2.08-11.88,3.53-16.25,1.68-5.05,9.08-24.74,12.51-36.52Z"/>
      <path class="cls-15" d="M388.32,244.37c2.2-.5,4.49.97,5.47,2.42.23.34.59,1.3.63,2.67.06,1.75-1.07,3.43-2.39,4.29-1.76,1.15-4.1.81-5.64-.46-2.08-1.72-2.12-4.77-.99-6.7.21-.35,1.13-1.82,2.91-2.23"/>
      <path class="cls-15" d="M372.01,244.98s8.14-2.99,13.14-2.62c10.2.74,16.69,4.31,18.28,8.45,0,0-8.81-5.6-17.58-6.15-4.92-.31-13.84.32-13.84.32Z"/>
      <path class="cls-15" d="M324.66,226.31c-1.68-1.51-4.87-2.04-6.44-1.24-.37.19-1.37.73-2.07,1.91-.9,1.51-.73,3.52,0,4.91.98,1.85,3.19,2.7,5.15,2.34,2.66-.49,4.17-3.15,4.12-5.37-.01-.41.56-1.04-.79-2.26"/>
      <path class="cls-15" d="M337.4,235.8s-6.25-9.69-16.2-12.72c-7.57-2.3-17.38-1.54-22.53.4,0,0,16.16.15,21.47,1.85,5.08,1.63,17.26,10.47,17.26,10.47Z"/>
      <path class="cls-15" d="M304.03,207.6c1.35.06,2.32-.06,3.67.13,7.42,1.04,14.61,2.7,21.66,5.27,6.21,2.23,11.88,5.46,17.53,8.78.46-1.27.68-.54,1.13-1.81.59-1.68,1.18-3.35,1.77-5.02-14.57-6.6-26.13-9.84-30.53-10.38-3.33-.41-6.69-.31-9.98.15,0,0-9.05,1.18-10.4,2.24-1.35,1.06,5.15.63,5.15.63Z"/>
      <path class="cls-15" d="M409.86,234.11c-.04-.22-.06-.45-.12-.68,0,0,0-.02,0-.02-1.25-.96-2.85-2.03-4.8-3.01-3.41-1.71-13.09-4.65-26.48-6.43-.73,2.37-1.47,4.73-2.21,7.1,5.69.04,11.35.19,16.91,1.39,5.22,1.13,10.54,2.74,15.48,4.97.29-.45.6-.9.85-1.38.13-.34.24-.68.33-1.03.03-.31.05-.61.04-.92Z"/>
      <path class="cls-35" d="M341.4,290.45c-10.49-2.92-28.01-9.19-28.01-9.19,0,0-3.13,26.53,21.19,33.3,24.32,6.77,32.6-17.68,32.6-17.68,0,0-15.28-3.51-25.77-6.44Z"/>
      <path class="cls-17" d="M341.5,290.48c-4.99-1.39-24.85-7.85-24.85-7.85,0,0,2.26,17.23,20.29,22.25,19.56,5.45,27.33-8.53,27.33-8.53l-22.78-5.87Z"/>
      <path class="cls-43" d="M341.51,291.3c-4.99-1.39-19.92-6.48-19.92-6.48,0,0,3.9,7.13,18.86,11.3,14.96,4.17,21.23.05,21.23.05l-20.17-4.86Z"/>
      <path class="cls-35" d="M368,296.47c-.49-.28-1.08-.82-3.31-1.9-3.86-1.89-6.3-3.35-9.22-4.42-4.99-1.83-8.81-.66-11.03-1.28-2.22-.62-4.89-3.59-10.11-4.61-3.06-.6-11.62-1.76-15.84-2.55-2.54-.47-5.17-2.27-5.73-2.28-.79-.02-.06,6.15,27.85,13.92,27.91,7.77,28.09,3.51,27.41,3.12Z"/>
      <path class="cls-42" d="M263.98,216.97s33.83-61.84,102.17-47.34c39.5,8.38,49.27,46.41,49.27,46.41,0,0,9.1-36.44-3.15-54.35-12.26-17.91-63.14-32.47-89.58-27.38-26.44,5.09-58.71,82.66-58.71,82.66Z"/>
      <path class="cls-33" d="M249.99,157.34s38.76-70.32,104.24-56.86c81.28,16.92,69.09,104.01,69.09,104.01l-16.37,62.87c4.55-16.13,9.25-30.38,8.76-47.13,1.63-9.33,11.07-32.82-11.06-55.07-12-12.01-28.97-18.04-45.61-19.68-15.33-1.51-33.48-.16-45.75,10.48-12.47,10.81-20.74,23.76-24.65,31.84-8.56,15.9-14.75,40.46-17.47,58.31-2.14,16.17-7.32,37.39,11.61,69.78-64.5-40.14-47.7-122.24-34.72-158.86l1.94.31Z"/>
      <g>
        <path class="cls-9" d="M354.21,277.22c-2.46.81-5.52-.39-7.13-2.63-.36-.5-2-.57-1.5.13,2.13,2.95,6.59,4.42,9.76,3.37.32-.11.34-.38.05-.61-.3-.24-.86-.37-1.19-.26"/>
        <path class="cls-9" d="M344.9,273.71c-1.15-1.23-2.58-2.11-4.09-2.7-.22-.08-.55-.06-.77.09-.17.11-.26.31-.12.48.57.73,1.42,1.2,2.26,1.42.27.07.64.08.87-.17.21-.23,0-.48-.2-.53-.7-.18-1.36-.55-1.82-1.15-.3.19-.59.38-.89.57,1.35.52,2.62,1.33,3.65,2.43.2.22.59.22.86.11.2-.08.46-.32.26-.55"/>
        <path class="cls-9" d="M338.67,272.23c-1.8-.57-3.65-2.18-4.05-4.19-.6-3.03,1.84-6.86,4.59-7.92.3-.12.24-.39,0-.53-.3-.18-.73-.13-1.04-.01-2.39.93-4.64,4-5.05,6.57-.38,2.4.9,4.51,2.88,5.8.59.38,1.24.71,1.91.92.27.08.8.12,1.01-.12.22-.24,0-.44-.26-.51"/>
        <path class="cls-9" d="M357.87,276.96c-.02-.3.21-.42.35-.38.49.15,1.04.12,1.58-.2.09.3.18.59.27.89-1.02-.14-2.12,0-3.22.51-.22.1-.44-.07-.55-.28-.08-.16-.12-.49.09-.59"/>
        <path class="cls-9" d="M356.4,276.92c1.22-.57,2.45-.71,3.59-.55.17.02.34.19.41.42.05.18.01.38-.14.47"/>
        <path class="cls-9" d="M361.56,278.33c1.2.27,2.88-.36,3.95-1.95,1.63-2.41,1.7-5.79.71-7.9-.11-.23.04-.44.23-.47.24-.03.44.2.56.43.87,1.84,1.02,4.47.13,6.91-.84,2.28-2.43,3.59-4.03,3.87-.48.08-.96.09-1.41,0-.18-.04-.47-.24-.48-.54,0-.31.19-.38.36-.34"/>
      </g>
      <g class="cls-27">
        <g>
          <circle class="cls-23" cx="78.93" cy="286.48" r="17.97"/>
          <path class="cls-3" d="M82.34,304.13c-9.75,1.88-19.17-4.49-21.05-14.24-1.88-9.75,4.49-19.17,14.24-21.05,9.75-1.88,19.17,4.49,21.06,14.24,1.88,9.75-4.49,19.17-14.24,21.05Z"/>
        </g>
        <g>
          <circle class="cls-23" cx="463.29" cy="294.28" r="17.97"/>
          <circle class="cls-3" cx="463.29" cy="294.28" r="17.97" transform="translate(-78.74 208.03) rotate(-23.38)"/>
        </g>
        <g>
          <circle class="cls-23" cx="37.97" cy="460.34" r="17.97"/>
          <circle class="cls-3" cx="37.97" cy="460.34" r="17.97" transform="translate(-422.42 497.75) rotate(-89.93)"/>
        </g>
        <g>
          <circle class="cls-23" cx="423.74" cy="462.39" r="17.97"/>
          <path class="cls-3" d="M427.14,480.03c-9.75,1.88-19.17-4.49-21.05-14.24-1.88-9.75,4.49-19.17,14.24-21.05,9.75-1.88,19.17,4.49,21.05,14.24,1.88,9.75-4.49,19.17-14.24,21.05Z"/>
        </g>
        <g>
          <circle class="cls-23" cx="506.49" cy="120.91" r="17.97"/>
          <circle class="cls-3" cx="506.49" cy="120.91" r="17.97" transform="translate(-9.35 192.06) rotate(-21.28)"/>
        </g>
        <g>
          <circle class="cls-23" cx="374.17" cy="634.62" r="17.97"/>
          <circle class="cls-3" cx="374.17" cy="634.62" r="17.97" transform="translate(-199.79 172.76) rotate(-20.65)"/>
        </g>
        <g>
          <circle class="cls-23" cx="379.53" cy="357.32" r="17.97"/>
          <path class="cls-3" d="M382.94,374.97c-9.75,1.88-19.17-4.49-21.05-14.24s4.49-19.17,14.24-21.05c9.75-1.88,19.17,4.49,21.06,14.24s-4.49,19.17-14.24,21.05Z"/>
        </g>
        <g>
          <circle class="cls-23" cx="131.53" cy="385.78" r="17.97"/>
          <path class="cls-3" d="M134.94,403.43c-9.75,1.88-19.17-4.49-21.05-14.24-1.88-9.75,4.49-19.17,14.24-21.05,9.75-1.88,19.17,4.49,21.05,14.24,1.88,9.75-4.49,19.17-14.24,21.05Z"/>
        </g>
        <g>
          <circle class="cls-23" cx="179.23" cy="492.04" r="17.97"/>
          <circle class="cls-3" cx="179.23" cy="492.04" r="17.97" transform="translate(-342.81 450.73) rotate(-65.46)"/>
        </g>
        <g>
          <circle class="cls-23" cx="276.36" cy="420.64" r="17.97"/>
          <circle class="cls-3" cx="276.36" cy="420.64" r="17.97" transform="translate(-210.59 547.89) rotate(-71.34)"/>
        </g>
        <g>
          <circle class="cls-23" cx="321.9" cy="525.74" r="17.97"/>
          <circle class="cls-3" cx="321.9" cy="525.74" r="17.97" transform="translate(-6.49 4.03) rotate(-.71)"/>
        </g>
        <g>
          <circle class="cls-23" cx="90.24" cy="569.23" r="17.97"/>
          <circle class="cls-3" cx="90.24" cy="569.23" r="17.97" transform="translate(-227.31 88.26) rotate(-24.43)"/>
        </g>
        <g>
          <circle class="cls-23" cx="231.5" cy="600.92" r="17.97"/>
          <circle class="cls-3" cx="231.5" cy="600.92" r="17.97"/>
        </g>
        <g>
          <circle class="cls-23" cx="452.76" cy="22.46" r="17.97"/>
          <circle class="cls-3" cx="452.75" cy="22.46" r="17.97" transform="translate(228.14 416.22) rotate(-63.14)"/>
        </g>
        <g>
          <circle class="cls-23" cx="171.09" cy="217.68" r="17.97"/>
          <circle class="cls-3" cx="171.09" cy="217.68" r="17.97" transform="translate(-70.99 83.32) rotate(-22.8)"/>
        </g>
        <g>
          <circle class="cls-23" cx="122.12" cy="114.27" r="17.97"/>
          <circle class="cls-3" cx="122.12" cy="114.27" r="17.97" transform="translate(-34.25 54.94) rotate(-22.32)"/>
        </g>
        <g>
          <circle class="cls-23" cx="220.18" cy="318.18" r="17.97"/>
          <circle class="cls-3" cx="220.18" cy="318.18" r="17.97" transform="translate(-113.41 122.14) rotate(-24.88)"/>
        </g>
        <g>
          <circle class="cls-23" cx="408.08" cy="183.73" r="17.97"/>
          <circle class="cls-3" cx="408.08" cy="183.73" r="17.97" transform="translate(-1.75 3.94) rotate(-.55)"/>
        </g>
        <g>
          <circle class="cls-23" cx="315.92" cy="252.53" r="17.97"/>
          <path class="cls-3" d="M319.32,270.18c-9.75,1.88-19.17-4.49-21.05-14.24-1.88-9.75,4.49-19.17,14.24-21.05,9.75-1.88,19.17,4.49,21.05,14.24s-4.49,19.17-14.24,21.05Z"/>
        </g>
        <g>
          <circle class="cls-23" cx="209.65" cy="46.37" r="17.97"/>
          <circle class="cls-3" cx="209.65" cy="46.37" r="17.97" transform="translate(98.64 230.16) rotate(-71.34)"/>
        </g>
        <g>
          <circle class="cls-23" cx="352.32" cy="80.06" r="17.97"/>
          <circle class="cls-3" cx="352.32" cy="80.06" r="17.97" transform="translate(-.97 4.37) rotate(-.71)"/>
        </g>
        <g>
          <circle class="cls-23" cx="264.31" cy="148.81" r="17.97"/>
          <circle class="cls-3" cx="264.31" cy="148.81" r="17.97" transform="translate(-.49 .88) rotate(-.19)"/>
        </g>
        <path class="cls-48" d="M98.12,199.95s-12.67-42.36,25.97-29.11c0,0-21.83-2.08-25.97,29.11Z"/>
        <path class="cls-48" d="M99.84,200.37s20.99-38.91,38.95-2.22c0,0-13.97-16.91-38.95,2.22Z"/>
        <path class="cls-48" d="M100.89,201.67s42.36-12.67,29.11,25.97c0,0,2.08-21.83-29.11-25.97Z"/>
        <path class="cls-48" d="M100.02,203.03s38.91,20.99,2.22,38.95c0,0,16.91-13.97-2.22-38.95Z"/>
        <path class="cls-48" d="M98.51,203.95s12.67,42.36-25.97,29.11c0,0,21.83,2.08,25.97-29.11Z"/>
        <path class="cls-48" d="M96.85,203.76s-20.99,38.91-38.95,2.22c0,0,13.97,16.91,38.95-2.22Z"/>
        <path class="cls-48" d="M96.03,201.85s-42.36,12.67-29.11-25.97c0,0-2.08,21.83,29.11,25.97Z"/>
        <path class="cls-48" d="M96.21,200.19s-38.91-20.99-2.22-38.95c0,0-16.91,13.97,2.22,38.95Z"/>
        <g>
          <path class="cls-10" d="M151.1,301.4s-12.67-42.36,25.97-29.11c0,0-21.83-2.08-25.97,29.11Z"/>
          <path class="cls-10" d="M152.82,301.82s20.99-38.91,38.95-2.22c0,0-13.97-16.91-38.95,2.22Z"/>
          <path class="cls-10" d="M153.87,303.12s42.36-12.67,29.11,25.97c0,0,2.08-21.83-29.11-25.97Z"/>
          <path class="cls-10" d="M153,304.47s38.91,20.99,2.22,38.95c0,0,16.91-13.97-2.22-38.95Z"/>
          <path class="cls-10" d="M151.49,305.39s12.67,42.36-25.97,29.11c0,0,21.83,2.08,25.97-29.11Z"/>
          <path class="cls-10" d="M149.83,305.21s-20.99,38.91-38.95,2.22c0,0,13.97,16.91,38.95-2.22Z"/>
          <path class="cls-10" d="M149.01,303.3s-42.36,12.67-29.11-25.97c0,0-2.08,21.83,29.11,25.97Z"/>
          <path class="cls-10" d="M149.19,301.64s-38.91-20.99-2.22-38.95c0,0-16.91,13.97,2.22,38.95Z"/>
        </g>
        <g>
          <path class="cls-48" d="M193.31,135.46s-12.67-42.36,25.97-29.11c0,0-21.83-2.08-25.97,29.11Z"/>
          <path class="cls-48" d="M195.03,135.88s20.99-38.91,38.95-2.22c0,0-13.97-16.91-38.95,2.22Z"/>
          <path class="cls-48" d="M196.08,137.18s42.36-12.67,29.11,25.97c0,0,2.08-21.83-29.11-25.97Z"/>
          <path class="cls-48" d="M195.21,138.54s38.91,20.99,2.22,38.95c0,0,16.91-13.97-2.22-38.95Z"/>
          <path class="cls-48" d="M193.7,139.46s12.67,42.36-25.97,29.11c0,0,21.83,2.08,25.97-29.11Z"/>
          <path class="cls-48" d="M192.04,139.27s-20.99,38.91-38.95,2.22c0,0,13.97,16.91,38.95-2.22Z"/>
          <path class="cls-48" d="M191.22,137.36s-42.36,12.67-29.11-25.97c0,0-2.08,21.83,29.11,25.97Z"/>
          <path class="cls-48" d="M191.4,135.7s-38.91-20.99-2.22-38.95c0,0-16.91,13.97,2.22,38.95Z"/>
        </g>
        <path class="cls-10" d="M239.52,240s-12.67-42.36,25.97-29.11c0,0-21.83-2.08-25.97,29.11Z"/>
        <path class="cls-10" d="M241.24,240.41s20.99-38.91,38.95-2.22c0,0-13.97-16.91-38.95,2.22Z"/>
        <path class="cls-10" d="M242.28,241.72s42.36-12.67,29.11,25.97c0,0,2.08-21.83-29.11-25.97Z"/>
        <path class="cls-10" d="M241.42,243.07s38.91,20.99,2.22,38.95c0,0,16.91-13.97-2.22-38.95Z"/>
        <path class="cls-10" d="M239.91,243.99s12.67,42.36-25.97,29.11c0,0,21.83,2.08,25.97-29.11Z"/>
        <path class="cls-10" d="M238.25,243.81s-20.99,38.91-38.95,2.22c0,0,13.97,16.91,38.95-2.22Z"/>
        <path class="cls-10" d="M237.42,241.9s-42.36,12.67-29.11-25.97c0,0-2.08,21.83,29.11,25.97Z"/>
        <path class="cls-10" d="M237.61,240.24s-38.91-20.99-2.22-38.95c0,0-16.91,13.97,2.22,38.95Z"/>
        <path class="cls-10" d="M340.93,150.35s-12.67-42.36,25.97-29.11c0,0-21.83-2.08-25.97,29.11Z"/>
        <path class="cls-10" d="M342.65,150.77s20.99-38.91,38.95-2.22c0,0-13.97-16.91-38.95,2.22Z"/>
        <path class="cls-10" d="M343.69,152.08s42.36-12.67,29.11,25.97c0,0,2.08-21.83-29.11-25.97Z"/>
        <path class="cls-10" d="M342.83,153.43s38.91,20.99,2.22,38.95c0,0,16.91-13.97-2.22-38.95Z"/>
        <path class="cls-10" d="M341.31,154.35s12.67,42.36-25.97,29.11c0,0,21.83,2.08,25.97-29.11Z"/>
        <path class="cls-10" d="M339.65,154.16s-20.99,38.91-38.95,2.22c0,0,13.97,16.91,38.95-2.22Z"/>
        <path class="cls-10" d="M338.83,152.25s-42.36,12.67-29.11-25.97c0,0-2.08,21.83,29.11,25.97Z"/>
        <path class="cls-10" d="M339.01,150.59s-38.91-20.99-2.22-38.95c0,0-16.91,13.97,2.22,38.95Z"/>
        <circle class="cls-31" cx="171.09" cy="217.68" r="7.76"/>
        <circle class="cls-31" cx="122.12" cy="114.27" r="7.76"/>
        <circle class="cls-31" cx="78.93" cy="286.48" r="7.76"/>
        <circle class="cls-31" cx="220.18" cy="318.18" r="7.76"/>
        <path class="cls-10" d="M336.83,166.42s20.99-38.91,38.95-2.22c0,0-13.97-16.91-38.95,2.22Z"/>
        <path class="cls-10" d="M337.87,167.72s42.36-12.67,29.11,25.97c0,0,2.08-21.83-29.11-25.97Z"/>
        <path class="cls-10" d="M337.01,169.08s38.91,20.99,2.22,38.95c0,0,16.91-13.97-2.22-38.95Z"/>
        <path class="cls-10" d="M335.5,170s12.67,42.36-25.97,29.11c0,0,21.83,2.08,25.97-29.11Z"/>
        <g>
          <path class="cls-10" d="M387.11,271.49s-12.67-42.36,25.97-29.11c0,0-21.83-2.08-25.97,29.11Z"/>
          <path class="cls-10" d="M388.83,271.91s20.99-38.91,38.95-2.22c0,0-13.97-16.91-38.95,2.22Z"/>
          <path class="cls-10" d="M389.87,273.21s42.36-12.67,29.11,25.97c0,0,2.08-21.83-29.11-25.97Z"/>
          <path class="cls-10" d="M389.01,274.56s38.91,20.99,2.22,38.95c0,0,16.91-13.97-2.22-38.95Z"/>
          <path class="cls-10" d="M387.5,275.49s12.67,42.36-25.97,29.11c0,0,21.83,2.08,25.97-29.11Z"/>
          <path class="cls-10" d="M385.84,275.3s-20.99,38.91-38.95,2.22c0,0,13.97,16.91,38.95-2.22Z"/>
          <path class="cls-10" d="M385.01,273.39s-42.36,12.67-29.11-25.97c0,0-2.08,21.83,29.11,25.97Z"/>
          <path class="cls-10" d="M385.2,271.73s-38.91-20.99-2.22-38.95c0,0-16.91,13.97,2.22,38.95Z"/>
        </g>
        <path class="cls-48" d="M484.59,208.01s-12.67-42.36,25.97-29.11c0,0-21.83-2.08-25.97,29.11Z"/>
        <path class="cls-48" d="M486.31,208.43s20.99-38.91,38.95-2.22c0,0-13.97-16.91-38.95,2.22Z"/>
        <path class="cls-48" d="M487.36,209.73s42.36-12.67,29.11,25.97c0,0,2.08-21.83-29.11-25.97Z"/>
        <path class="cls-48" d="M486.49,211.08s38.91,20.99,2.22,38.95c0,0,16.91-13.97-2.22-38.95Z"/>
        <path class="cls-48" d="M484.98,212s12.67,42.36-25.97,29.11c0,0,21.83,2.08,25.97-29.11Z"/>
        <path class="cls-48" d="M483.32,211.82s-20.99,38.91-38.95,2.22c0,0,13.97,16.91,38.95-2.22Z"/>
        <path class="cls-48" d="M482.5,209.91s-42.36,12.67-29.11-25.97c0,0-2.08,21.83,29.11,25.97Z"/>
        <path class="cls-48" d="M482.68,208.25s-38.91-20.99-2.22-38.95c0,0-16.91,13.97,2.22,38.95Z"/>
        <circle class="cls-31" cx="408.08" cy="183.73" r="7.76"/>
        <circle class="cls-31" cx="315.92" cy="252.53" r="7.76"/>
        <circle class="cls-31" cx="463.29" cy="294.28" r="7.76"/>
        <g>
          <path class="cls-10" d="M293.77,335.1s-12.67-42.36,25.97-29.11c0,0-21.83-2.08-25.97,29.11Z"/>
          <path class="cls-10" d="M295.49,335.52s20.99-38.91,38.95-2.22c0,0-13.97-16.91-38.95,2.22Z"/>
          <path class="cls-10" d="M296.54,336.82s42.36-12.67,29.11,25.97c0,0,2.08-21.83-29.11-25.97Z"/>
          <path class="cls-10" d="M295.67,338.17s38.91,20.99,2.22,38.95c0,0,16.91-13.97-2.22-38.95Z"/>
          <path class="cls-10" d="M294.16,339.09s12.67,42.36-25.97,29.11c0,0,21.83,2.08,25.97-29.11Z"/>
          <path class="cls-10" d="M292.5,338.91s-20.99,38.91-38.95,2.22c0,0,13.97,16.91,38.95-2.22Z"/>
          <path class="cls-10" d="M291.68,337s-42.36,12.67-29.11-25.97c0,0-2.08,21.83,29.11,25.97Z"/>
          <path class="cls-10" d="M291.86,335.34s-38.91-20.99-2.22-38.95c0,0-16.91,13.97,2.22,38.95Z"/>
        </g>
        <g>
          <path class="cls-48" d="M437.32,371.87s-12.67-42.36,25.97-29.11c0,0-21.83-2.08-25.97,29.11Z"/>
          <path class="cls-48" d="M439.04,372.29s20.99-38.91,38.95-2.22c0,0-13.97-16.91-38.95,2.22Z"/>
          <path class="cls-48" d="M440.08,373.59s42.36-12.67,29.11,25.97c0,0,2.08-21.83-29.11-25.97Z"/>
          <path class="cls-48" d="M439.22,374.94s38.91,20.99,2.22,38.95c0,0,16.91-13.97-2.22-38.95Z"/>
          <path class="cls-48" d="M437.7,375.86s12.67,42.36-25.97,29.11c0,0,21.83,2.08,25.97-29.11Z"/>
          <path class="cls-48" d="M436.04,375.68s-20.99,38.91-38.95,2.22c0,0,13.97,16.91,38.95-2.22Z"/>
          <path class="cls-48" d="M435.22,373.77s-42.36,12.67-29.11-25.97c0,0-2.08,21.83,29.11,25.97Z"/>
          <path class="cls-48" d="M435.4,372.11s-38.91-20.99-2.22-38.95c0,0-16.91,13.97,2.22,38.95Z"/>
        </g>
        <circle class="cls-31" cx="379.53" cy="357.32" r="7.76"/>
        <path class="cls-48" d="M58.56,368.06s-12.67-42.36,25.97-29.11c0,0-21.83-2.08-25.97,29.11Z"/>
        <path class="cls-10" d="M60.28,368.48s20.99-38.91,38.95-2.22c0,0-13.97-16.91-38.95,2.22Z"/>
        <path class="cls-10" d="M61.33,369.78s42.36-12.67,29.11,25.97c0,0,2.08-21.83-29.11-25.97Z"/>
        <path class="cls-10" d="M60.46,371.13s38.91,20.99,2.22,38.95c0,0,16.91-13.97-2.22-38.95Z"/>
        <path class="cls-48" d="M58.95,372.05s12.67,42.36-25.97,29.11c0,0,21.83,2.08,25.97-29.11Z"/>
        <path class="cls-48" d="M57.29,371.87s-20.99,38.91-38.95,2.22c0,0,13.97,16.91,38.95-2.22Z"/>
        <path class="cls-48" d="M56.47,369.96s-42.36,12.67-29.11-25.97c0,0-2.08,21.83,29.11,25.97Z"/>
        <path class="cls-48" d="M56.65,368.3s-38.91-20.99-2.22-38.95c0,0-16.91,13.97,2.22,38.95Z"/>
        <g>
          <path class="cls-10" d="M110.15,475.26s-12.67-42.36,25.97-29.11c0,0-21.83-2.08-25.97,29.11Z"/>
          <path class="cls-10" d="M111.87,475.68s20.99-38.91,38.95-2.22c0,0-13.97-16.91-38.95,2.22Z"/>
          <path class="cls-10" d="M112.91,476.98s42.36-12.67,29.11,25.97c0,0,2.08-21.83-29.11-25.97Z"/>
          <path class="cls-10" d="M112.04,478.34s38.91,20.99,2.22,38.95c0,0,16.91-13.97-2.22-38.95Z"/>
          <path class="cls-10" d="M110.53,479.26s12.67,42.36-25.97,29.11c0,0,21.83,2.08,25.97-29.11Z"/>
          <path class="cls-10" d="M108.87,479.07s-20.99,38.91-38.95,2.22c0,0,13.97,16.91,38.95-2.22Z"/>
          <path class="cls-10" d="M108.05,477.16s-42.36,12.67-29.11-25.97c0,0-2.08,21.83,29.11,25.97Z"/>
          <path class="cls-10" d="M108.23,475.5s-38.91-20.99-2.22-38.95c0,0-16.91,13.97,2.22,38.95Z"/>
        </g>
        <g>
          <path class="cls-48" d="M18.96,544.92s42.36-12.67,29.11,25.97c0,0,2.08-21.83-29.11-25.97Z"/>
          <path class="cls-48" d="M18.09,546.27s38.91,20.99,2.22,38.95c0,0,16.91-13.97-2.22-38.95Z"/>
          <path class="cls-48" d="M16.58,547.19s12.67,42.36-25.97,29.11c0,0,21.83,2.08,25.97-29.11Z"/>
          <path class="cls-48" d="M14.92,547.01s-20.99,38.91-38.95,2.22c0,0,13.97,16.91,38.95-2.22Z"/>
          <path class="cls-48" d="M14.1,545.09s-42.36,12.67-29.11-25.97c0,0-2.08,21.83,29.11,25.97Z"/>
          <path class="cls-48" d="M14.28,543.43s-38.91-20.99-2.22-38.95c0,0-16.91,13.97,2.22,38.95Z"/>
        </g>
        <path class="cls-10" d="M199.96,408.1s-12.67-42.36,25.97-29.11c0,0-21.83-2.08-25.97,29.11Z"/>
        <path class="cls-10" d="M201.68,408.52s20.99-38.91,38.95-2.22c0,0-13.97-16.91-38.95,2.22Z"/>
        <path class="cls-10" d="M202.73,409.83s42.36-12.67,29.11,25.97c0,0,2.08-21.83-29.11-25.97Z"/>
        <path class="cls-10" d="M201.86,411.18s38.91,20.99,2.22,38.95c0,0,16.91-13.97-2.22-38.95Z"/>
        <path class="cls-10" d="M200.35,412.1s12.67,42.36-25.97,29.11c0,0,21.83,2.08,25.97-29.11Z"/>
        <path class="cls-10" d="M198.69,411.91s-20.99,38.91-38.95,2.22c0,0,13.97,16.91,38.95-2.22Z"/>
        <path class="cls-10" d="M197.87,410s-42.36,12.67-29.11-25.97c0,0-2.08,21.83,29.11,25.97Z"/>
        <path class="cls-10" d="M198.05,408.34s-38.91-20.99-2.22-38.95c0,0-16.91,13.97,2.22,38.95Z"/>
        <circle class="cls-31" cx="131.53" cy="385.78" r="7.76"/>
        <circle class="cls-31" cx="37.97" cy="460.34" r="7.76"/>
        <circle class="cls-31" cx="179.23" cy="492.04" r="7.76"/>
        <g>
          <path class="cls-10" d="M347.55,439.6s-12.67-42.36,25.97-29.11c0,0-21.83-2.08-25.97,29.11Z"/>
          <path class="cls-10" d="M349.27,440.02s20.99-38.91,38.95-2.22c0,0-13.97-16.91-38.95,2.22Z"/>
          <path class="cls-10" d="M350.31,441.32s42.36-12.67,29.11,25.97c0,0,2.08-21.83-29.11-25.97Z"/>
          <path class="cls-10" d="M349.45,442.67s38.91,20.99,2.22,38.95c0,0,16.91-13.97-2.22-38.95Z"/>
          <path class="cls-10" d="M347.94,443.59s12.67,42.36-25.97,29.11c0,0,21.83,2.08,25.97-29.11Z"/>
          <path class="cls-10" d="M346.28,443.41s-20.99,38.91-38.95,2.22c0,0,13.97,16.91,38.95-2.22Z"/>
          <path class="cls-10" d="M345.45,441.5s-42.36,12.67-29.11-25.97c0,0-2.08,21.83,29.11,25.97Z"/>
          <path class="cls-10" d="M345.64,439.84s-38.91-20.99-2.22-38.95c0,0-16.91,13.97,2.22,38.95Z"/>
        </g>
        <circle class="cls-31" cx="276.36" cy="420.64" r="7.76"/>
        <circle class="cls-31" cx="423.74" cy="462.39" r="7.76"/>
        <g>
          <path class="cls-10" d="M252.82,508.96s-12.67-42.36,25.97-29.11c0,0-21.83-2.08-25.97,29.11Z"/>
          <path class="cls-10" d="M254.54,509.38s20.99-38.91,38.95-2.22c0,0-13.97-16.91-38.95,2.22Z"/>
          <path class="cls-10" d="M255.58,510.68s42.36-12.67,29.11,25.97c0,0,2.08-21.83-29.11-25.97Z"/>
          <path class="cls-10" d="M254.72,512.03s38.91,20.99,2.22,38.95c0,0,16.91-13.97-2.22-38.95Z"/>
          <path class="cls-10" d="M253.21,512.95s12.67,42.36-25.97,29.11c0,0,21.83,2.08,25.97-29.11Z"/>
          <path class="cls-10" d="M251.55,512.77s-20.99,38.91-38.95,2.22c0,0,13.97,16.91,38.95-2.22Z"/>
          <path class="cls-10" d="M250.72,510.86s-42.36,12.67-29.11-25.97c0,0-2.08,21.83,29.11,25.97Z"/>
          <path class="cls-10" d="M250.9,509.2s-38.91-20.99-2.22-38.95c0,0-16.91,13.97,2.22,38.95Z"/>
        </g>
        <g>
          <path class="cls-10" d="M396.36,545.73s-12.67-42.36,25.97-29.11c0,0-21.83-2.08-25.97,29.11Z"/>
          <path class="cls-10" d="M398.08,546.15s20.99-38.91,38.95-2.22c0,0-13.97-16.91-38.95,2.22Z"/>
          <path class="cls-10" d="M399.12,547.46s42.36-12.67,29.11,25.97c0,0,2.08-21.83-29.11-25.97Z"/>
          <path class="cls-10" d="M398.26,548.81s38.91,20.99,2.22,38.95c0,0,16.91-13.97-2.22-38.95Z"/>
          <path class="cls-10" d="M396.75,549.73s12.67,42.36-25.97,29.11c0,0,21.83,2.08,25.97-29.11Z"/>
          <path class="cls-10" d="M395.09,549.54s-20.99,38.91-38.95,2.22c0,0,13.97,16.91,38.95-2.22Z"/>
          <path class="cls-10" d="M394.26,547.63s-42.36,12.67-29.11-25.97c0,0-2.08,21.83,29.11,25.97Z"/>
          <path class="cls-10" d="M394.45,545.97s-38.91-20.99-2.22-38.95c0,0-16.91,13.97,2.22,38.95Z"/>
        </g>
        <circle class="cls-31" cx="321.9" cy="525.74" r="7.76"/>
        <g>
          <path class="cls-10" d="M162.42,584.15s-12.67-42.36,25.97-29.11c0,0-21.83-2.08-25.97,29.11Z"/>
          <path class="cls-10" d="M164.14,584.56s20.99-38.91,38.95-2.22c0,0-13.97-16.91-38.95,2.22Z"/>
          <path class="cls-10" d="M165.18,585.87s42.36-12.67,29.11,25.97c0,0,2.08-21.83-29.11-25.97Z"/>
          <path class="cls-10" d="M164.32,587.22s38.91,20.99,2.22,38.95c0,0,16.91-13.97-2.22-38.95Z"/>
          <path class="cls-10" d="M162.8,588.14s12.67,42.36-25.97,29.11c0,0,21.83,2.08,25.97-29.11Z"/>
          <path class="cls-10" d="M161.14,587.96s-20.99,38.91-38.95,2.22c0,0,13.97,16.91,38.95-2.22Z"/>
          <path class="cls-10" d="M160.32,586.04s-42.36,12.67-29.11-25.97c0,0-2.08,21.83,29.11,25.97Z"/>
          <path class="cls-10" d="M160.5,584.38s-38.91-20.99-2.22-38.95c0,0-16.91,13.97,2.22,38.95Z"/>
        </g>
        <circle class="cls-31" cx="90.24" cy="569.23" r="7.76"/>
        <circle class="cls-31" cx="231.5" cy="600.92" r="7.76"/>
        <g>
          <path class="cls-10" d="M305.09,617.84s-12.67-42.36,25.97-29.11c0,0-21.83-2.08-25.97,29.11Z"/>
          <path class="cls-10" d="M306.81,618.26s20.99-38.91,38.95-2.22c0,0-13.97-16.91-38.95,2.22Z"/>
          <path class="cls-10" d="M307.85,619.57s42.36-12.67,29.11,25.97c0,0,2.08-21.83-29.11-25.97Z"/>
          <path class="cls-10" d="M306.99,620.92s38.91,20.99,2.22,38.95c0,0,16.91-13.97-2.22-38.95Z"/>
          <path class="cls-10" d="M305.48,621.84s12.67,42.36-25.97,29.11c0,0,21.83,2.08,25.97-29.11Z"/>
          <path class="cls-10" d="M303.82,621.65s-20.99,38.91-38.95,2.22c0,0,13.97,16.91,38.95-2.22Z"/>
          <path class="cls-10" d="M302.99,619.74s-42.36,12.67-29.11-25.97c0,0-2.08,21.83,29.11,25.97Z"/>
          <path class="cls-10" d="M303.18,618.08s-38.91-20.99-2.22-38.95c0,0-16.91,13.97,2.22,38.95Z"/>
        </g>
        <circle class="cls-31" cx="374.17" cy="634.62" r="7.76"/>
        <g>
          <circle class="cls-23" cx="288.6" cy="694.47" r="17.97"/>
          <circle class="cls-3" cx="288.6" cy="694.47" r="17.97" transform="translate(-455.74 587.05) rotate(-59.22)"/>
        </g>
        <g>
          <circle class="cls-23" cx="4.67" cy="629.07" r="17.97"/>
          <path class="cls-3" d="M8.08,646.72c-9.75,1.88-19.17-4.49-21.05-14.24-1.88-9.75,4.49-19.17,14.24-21.05,9.75-1.88,19.17,4.49,21.06,14.24,1.88,9.75-4.49,19.17-14.24,21.05Z"/>
        </g>
        <g>
          <circle class="cls-23" cx="145.93" cy="660.77" r="17.97"/>
          <circle class="cls-3" cx="145.93" cy="660.77" r="17.97" transform="translate(-259.6 119.05) rotate(-24.37)"/>
        </g>
        <g>
          <path class="cls-10" d="M76.85,643.99s-12.67-42.36,25.97-29.11c0,0-21.83-2.08-25.97,29.11Z"/>
          <path class="cls-10" d="M78.57,644.41s20.99-38.91,38.95-2.22c0,0-13.97-16.91-38.95,2.22Z"/>
          <path class="cls-10" d="M79.61,645.71s42.36-12.67,29.11,25.97c0,0,2.08-21.83-29.11-25.97Z"/>
          <path class="cls-10" d="M78.75,647.06s38.91,20.99,2.22,38.95c0,0,16.91-13.97-2.22-38.95Z"/>
          <path class="cls-10" d="M77.23,647.98s12.67,42.36-25.97,29.11c0,0,21.83,2.08,25.97-29.11Z"/>
          <path class="cls-10" d="M75.57,647.8s-20.99,38.91-38.95,2.22c0,0,13.97,16.91,38.95-2.22Z"/>
          <path class="cls-10" d="M74.75,645.89s-42.36,12.67-29.11-25.97c0,0-2.08,21.83,29.11,25.97Z"/>
          <path class="cls-10" d="M74.93,644.23s-38.91-20.99-2.22-38.95c0,0-16.91,13.97,2.22,38.95Z"/>
        </g>
        <circle class="cls-31" cx="4.67" cy="629.07" r="7.76"/>
        <circle class="cls-31" cx="145.93" cy="660.77" r="7.76"/>
        <g>
          <path class="cls-10" d="M219.52,677.69s-12.67-42.36,25.97-29.11c0,0-21.83-2.08-25.97,29.11Z"/>
          <path class="cls-10" d="M221.24,678.11s20.99-38.91,38.95-2.22c0,0-13.97-16.91-38.95,2.22Z"/>
          <path class="cls-10" d="M222.28,679.41s42.36-12.67,29.11,25.97c0,0,2.08-21.83-29.11-25.97Z"/>
          <path class="cls-10" d="M221.42,680.76s38.91,20.99,2.22,38.95c0,0,16.91-13.97-2.22-38.95Z"/>
          <path class="cls-10" d="M219.91,681.68s12.67,42.36-25.97,29.11c0,0,21.83,2.08,25.97-29.11Z"/>
          <path class="cls-10" d="M218.25,681.5s-20.99,38.91-38.95,2.22c0,0,13.97,16.91,38.95-2.22Z"/>
          <path class="cls-10" d="M217.42,679.59s-42.36,12.67-29.11-25.97c0,0-2.08,21.83,29.11,25.97Z"/>
          <path class="cls-10" d="M217.61,677.93s-38.91-20.99-2.22-38.95c0,0-16.91,13.97,2.22,38.95Z"/>
        </g>
        <g>
          <path class="cls-48" d="M363.06,714.46s-12.67-42.36,25.97-29.11c0,0-21.83-2.08-25.97,29.11Z"/>
          <path class="cls-48" d="M364.78,714.88s20.99-38.91,38.95-2.22c0,0-13.97-16.91-38.95,2.22Z"/>
          <path class="cls-48" d="M365.83,716.18s42.36-12.67,29.11,25.97c0,0,2.08-21.83-29.11-25.97Z"/>
          <path class="cls-48" d="M364.96,717.53s38.91,20.99,2.22,38.95c0,0,16.91-13.97-2.22-38.95Z"/>
          <path class="cls-48" d="M363.45,718.45s12.67,42.36-25.97,29.11c0,0,21.83,2.08,25.97-29.11Z"/>
          <path class="cls-48" d="M361.79,718.27s-20.99,38.91-38.95,2.22c0,0,13.97,16.91,38.95-2.22Z"/>
          <path class="cls-48" d="M360.97,716.36s-42.36,12.67-29.11-25.97c0,0-2.08,21.83,29.11,25.97Z"/>
          <path class="cls-48" d="M361.15,714.7s-38.91-20.99-2.22-38.95c0,0-16.91,13.97,2.22,38.95Z"/>
        </g>
        <circle class="cls-31" cx="288.6" cy="694.47" r="7.76"/>
        <g>
          <circle class="cls-23" cx="348.84" cy="787.37" r="17.97"/>
          <circle class="cls-3" cx="348.84" cy="787.37" r="17.97" transform="translate(-371.19 314.94) rotate(-32.83)"/>
        </g>
        <g>
          <circle class="cls-23" cx="64.91" cy="721.97" r="17.97"/>
          <path class="cls-3" d="M68.32,739.62c-9.75,1.88-19.17-4.49-21.05-14.24-1.88-9.75,4.49-19.17,14.24-21.05,9.75-1.88,19.17,4.49,21.05,14.24s-4.49,19.17-14.24,21.05Z"/>
        </g>
        <g>
          <circle class="cls-23" cx="206.17" cy="753.67" r="17.97"/>
          <path class="cls-3" d="M209.58,771.32c-9.75,1.88-19.17-4.49-21.05-14.24s4.49-19.17,14.24-21.05c9.75-1.88,19.17,4.49,21.05,14.24s-4.49,19.17-14.24,21.05Z"/>
        </g>
        <g>
          <path class="cls-48" d="M137.09,736.89s-12.67-42.36,25.97-29.11c0,0-21.83-2.08-25.97,29.11Z"/>
          <path class="cls-48" d="M138.81,737.31s20.99-38.91,38.95-2.22c0,0-13.97-16.91-38.95,2.22Z"/>
          <path class="cls-48" d="M139.85,738.61s42.36-12.67,29.11,25.97c0,0,2.08-21.83-29.11-25.97Z"/>
          <path class="cls-48" d="M138.99,739.96s38.91,20.99,2.22,38.95c0,0,16.91-13.97-2.22-38.95Z"/>
          <path class="cls-48" d="M137.48,740.88s12.67,42.36-25.97,29.11c0,0,21.83,2.08,25.97-29.11Z"/>
          <path class="cls-48" d="M135.82,740.7s-20.99,38.91-38.95,2.22c0,0,13.97,16.91,38.95-2.22Z"/>
          <path class="cls-48" d="M134.99,738.79s-42.36,12.67-29.11-25.97c0,0-2.08,21.83,29.11,25.97Z"/>
          <path class="cls-48" d="M135.18,737.13s-38.91-20.99-2.22-38.95c0,0-16.91,13.97,2.22,38.95Z"/>
        </g>
        <circle class="cls-31" cx="64.91" cy="721.97" r="7.76"/>
        <circle class="cls-31" cx="206.17" cy="753.67" r="7.76"/>
        <g>
          <path class="cls-48" d="M279.76,770.59s-12.67-42.36,25.97-29.11c0,0-21.83-2.08-25.97,29.11Z"/>
          <path class="cls-48" d="M281.48,771.01s20.99-38.91,38.95-2.22c0,0-13.97-16.91-38.95,2.22Z"/>
          <path class="cls-48" d="M282.52,772.31s42.36-12.67,29.11,25.97c0,0,2.08-21.83-29.11-25.97Z"/>
          <path class="cls-48" d="M281.66,773.66s38.91,20.99,2.22,38.95c0,0,16.91-13.97-2.22-38.95Z"/>
          <path class="cls-48" d="M280.15,774.58s12.67,42.36-25.97,29.11c0,0,21.83,2.08,25.97-29.11Z"/>
          <path class="cls-48" d="M278.49,774.4s-20.99,38.91-38.95,2.22c0,0,13.97,16.91,38.95-2.22Z"/>
          <path class="cls-48" d="M277.66,772.49s-42.36,12.67-29.11-25.97c0,0-2.08,21.83,29.11,25.97Z"/>
          <path class="cls-48" d="M277.85,770.83s-38.91-20.99-2.22-38.95c0,0-16.91,13.97,2.22,38.95Z"/>
        </g>
        <circle class="cls-31" cx="348.84" cy="787.37" r="7.76"/>
        <g>
          <circle class="cls-23" cx="439.82" cy="692.9" r="17.97"/>
          <circle class="cls-3" cx="439.82" cy="692.9" r="17.97" transform="translate(-216.13 199.66) rotate(-20.65)"/>
        </g>
        <circle class="cls-31" cx="439.82" cy="692.9" r="7.76"/>
        <path class="cls-48" d="M525.68,34.39s-12.67-42.36,25.97-29.11c0,0-21.83-2.08-25.97,29.11Z"/>
        <path class="cls-48" d="M527.4,34.8s20.99-38.91,38.95-2.22c0,0-13.97-16.91-38.95,2.22Z"/>
        <path class="cls-48" d="M528.44,36.11s42.36-12.67,29.11,25.97c0,0,2.08-21.83-29.11-25.97Z"/>
        <path class="cls-48" d="M527.58,37.46s38.91,20.99,2.22,38.95c0,0,16.91-13.97-2.22-38.95Z"/>
        <path class="cls-48" d="M526.07,38.38s12.67,42.36-25.97,29.11c0,0,21.83,2.08,25.97-29.11Z"/>
        <path class="cls-48" d="M524.41,38.2s-20.99,38.91-38.95,2.22c0,0,13.97,16.91,38.95-2.22Z"/>
        <path class="cls-48" d="M523.58,36.28s-42.36,12.67-29.11-25.97c0,0-2.08,21.83,29.11,25.97Z"/>
        <path class="cls-48" d="M523.77,34.62s-38.91-20.99-2.22-38.95c0,0-16.91,13.97,2.22,38.95Z"/>
        <g>
          <path class="cls-48" d="M140.56,29.59S127.89-12.77,166.53.48c0,0-21.83-2.08-25.97,29.11Z"/>
          <path class="cls-48" d="M142.28,30s20.99-38.91,38.95-2.22c0,0-13.97-16.91-38.95,2.22Z"/>
          <path class="cls-48" d="M143.33,31.31s42.36-12.67,29.11,25.97c0,0,2.08-21.83-29.11-25.97Z"/>
          <path class="cls-48" d="M142.46,32.66s38.91,20.99,2.22,38.95c0,0,16.91-13.97-2.22-38.95Z"/>
          <path class="cls-48" d="M140.95,33.58s12.67,42.36-25.97,29.11c0,0,21.83,2.08,25.97-29.11Z"/>
          <path class="cls-48" d="M139.29,33.4s-20.99,38.91-38.95,2.22c0,0,13.97,16.91,38.95-2.22Z"/>
          <path class="cls-48" d="M138.47,31.48s-42.36,12.67-29.11-25.97c0,0-2.08,21.83,29.11,25.97Z"/>
          <path class="cls-48" d="M138.65,29.82s-38.91-20.99-2.22-38.95c0,0-16.91,13.97,2.22,38.95Z"/>
        </g>
        <path class="cls-48" d="M230.88-28.74s38.91,20.99,2.22,38.95c0,0,16.91-13.97-2.22-38.95Z"/>
        <circle class="cls-31" cx="506.49" cy="120.91" r="7.76"/>
        <circle class="cls-31" cx="209.65" cy="46.37" r="7.76"/>
        <g>
          <path class="cls-48" d="M378.29.1s20.99-38.91,38.95-2.22c0,0-13.97-16.91-38.95,2.22Z"/>
          <path class="cls-48" d="M379.33,1.4s42.36-12.67,29.11,25.97c0,0,2.08-21.83-29.11-25.97Z"/>
          <path class="cls-48" d="M378.47,2.75s38.91,20.99,2.22,38.95c0,0,16.91-13.97-2.22-38.95Z"/>
          <path class="cls-48" d="M376.96,3.67s12.67,42.36-25.97,29.11c0,0,21.83,2.08,25.97-29.11Z"/>
          <path class="cls-48" d="M375.3,3.49s-20.99,38.91-38.95,2.22c0,0,13.97,16.91,38.95-2.22Z"/>
          <path class="cls-48" d="M374.47,1.58s-42.36,12.67-29.11-25.97c0,0-2.08,21.83,29.11,25.97Z"/>
        </g>
        <circle class="cls-31" cx="452.76" cy="22.46" r="7.76"/>
        <g>
          <path class="cls-10" d="M283.23,63.28s-12.67-42.36,25.97-29.11c0,0-21.83-2.08-25.97,29.11Z"/>
          <path class="cls-10" d="M284.95,63.7s20.99-38.91,38.95-2.22c0,0-13.97-16.91-38.95,2.22Z"/>
          <path class="cls-10" d="M286,65.01s42.36-12.67,29.11,25.97c0,0,2.08-21.83-29.11-25.97Z"/>
          <path class="cls-10" d="M285.13,66.36s38.91,20.99,2.22,38.95c0,0,16.91-13.97-2.22-38.95Z"/>
          <path class="cls-10" d="M283.62,67.28s12.67,42.36-25.97,29.11c0,0,21.83,2.08,25.97-29.11Z"/>
          <path class="cls-10" d="M281.96,67.09s-20.99,38.91-38.95,2.22c0,0,13.97,16.91,38.95-2.22Z"/>
          <path class="cls-10" d="M281.14,65.18s-42.36,12.67-29.11-25.97c0,0-2.08,21.83,29.11,25.97Z"/>
          <path class="cls-10" d="M281.32,63.52s-38.91-20.99-2.22-38.95c0,0-16.91,13.97,2.22,38.95Z"/>
        </g>
        <g>
          <path class="cls-10" d="M426.78,100.06s-12.67-42.36,25.97-29.11c0,0-21.83-2.08-25.97,29.11Z"/>
          <path class="cls-10" d="M428.5,100.47s20.99-38.91,38.95-2.22c0,0-13.97-16.91-38.95,2.22Z"/>
          <path class="cls-10" d="M429.54,101.78s42.36-12.67,29.11,25.97c0,0,2.08-21.83-29.11-25.97Z"/>
          <path class="cls-10" d="M428.68,103.13s38.91,20.99,2.22,38.95c0,0,16.91-13.97-2.22-38.95Z"/>
          <path class="cls-10" d="M427.17,104.05s12.67,42.36-25.97,29.11c0,0,21.83,2.08,25.97-29.11Z"/>
          <path class="cls-10" d="M425.51,103.87s-20.99,38.91-38.95,2.22c0,0,13.97,16.91,38.95-2.22Z"/>
          <path class="cls-10" d="M424.68,101.96s-42.36,12.67-29.11-25.97c0,0-2.08,21.83,29.11,25.97Z"/>
          <path class="cls-10" d="M424.86,100.3s-38.91-20.99-2.22-38.95c0,0-16.91,13.97,2.22,38.95Z"/>
        </g>
        <circle class="cls-31" cx="352.32" cy="80.06" r="7.76"/>
        <circle class="cls-31" cx="264.31" cy="148.81" r="7.76"/>
      </g>
      <path class="cls-42" d="M306.71,104.56c-5.07,2.41-9.78,5.89-14.09,9.44-10.2,8.37-18.7,18.79-24.77,30.51-7.11,13.72-10.38,28.96-12.17,44.21-1.67,14.16-2.09,28.45-1.82,42.7.1,5,.29,10,.58,15,.14,2.42.09,5.02.52,7.41.02.11.02.22.03.33.06.66,1.51.31,1.45-.39-.57-6.08-.83-12.2-1.01-18.3-.4-13.56-.17-27.17,1.07-40.68,1.37-14.91,3.84-30.06,9.79-43.89,5.53-12.86,13.92-24.44,24.38-33.75,5.04-4.48,10.5-8.37,16.42-11.6.09-.05.18-.09.27-.13.89-.43.1-1.21-.64-.85h0Z"/>
      <path class="cls-42" d="M210.95,269.14c.05,3.39.26,6.77.5,10.15.58,8.37,1.5,16.71,2.76,25,1.62,10.65,3.82,21.23,6.9,31.55s7.12,20.69,12.84,29.97c5.17,8.37,11.94,16.04,20.75,20.67,1.05.55,2.13,1.06,3.22,1.52.43.18,1.75-.45,1.15-.7-9.12-3.83-16.3-10.93-21.8-19-6.12-8.98-10.37-19.17-13.68-29.48s-5.66-20.96-7.42-31.66c-1.42-8.6-2.44-17.27-3.11-25.96-.21-2.78-.39-5.56-.52-8.35-.04-.86-.08-1.72-.1-2.58-.01-.39.08-.97-.04-1.35-.02-.05,0-.12,0-.17,0-.45-1.46-.17-1.45.39h0Z"/>
      <path class="cls-42" d="M270.82,292.4c1.44,10.35,3.22,20.69,6.34,30.69,2.92,9.35,6.9,18.66,12.74,26.58,5.27,7.16,12.07,13.36,20.08,17.32,3.82,1.89,7.91,3.24,12.11,3.9,4.75.74,9.66.55,14.44.19,11.41-.85,22.39-3.97,33.06-7.99.96-.36.05-.51-.49-.31-9.55,3.6-19.36,6.51-29.55,7.52-4.98.5-10.17.81-15.16.18-4.29-.54-8.47-1.82-12.37-3.67-16.91-8.01-26.95-24.72-32.67-41.88-3.57-10.68-5.51-21.8-7.06-32.93-.04-.27-1.5.03-1.45.39h0Z"/>
      <path class="cls-42" d="M373.02,375.28c-4.73-.24-9.45.3-13.92,1.92s-8.47,4.24-12.13,7.22c-4.85,3.95-9.54,8.12-14.3,12.18s-8.97,8.02-14.06,11.18c-5.77,3.58-12.83,5.7-19.44,3.17-.4-.15-1.72.45-1.16.66,10.95,4.19,21.64-2.84,29.7-9.63,4.79-4.03,9.53-8.13,14.3-12.19,4.31-3.68,8.52-7.56,13.56-10.25s10.97-3.8,16.87-3.5c.51.03,1.55-.71.58-.75h0Z"/>
      <path class="cls-42" d="M177.58,323.56c-7.58,21.93.9,45.37,7.61,66.37,6.7,20.95,13.79,41.86,23.14,61.8s20.39,37.63,34.82,53.45c13.74,15.05,29.95,27.86,47.77,37.74,9.21,5.11,18.88,9.55,28.89,12.85,10.64,3.51,21.87,5.69,33.12,5.11,2.72-.14,5.42-.45,8.1-.91.61-.11,1.26-.79.25-.61-22.28,3.86-44.99-4.4-64.51-14.54-17.85-9.27-34.19-21.43-48.21-35.85-14.65-15.06-26.36-32.56-35.73-51.32s-17.04-39.94-23.76-60.56c-3.46-10.61-7.06-21.23-9.73-32.06s-4.39-22.56-2.39-33.82c.48-2.68,1.17-5.31,2.06-7.88.12-.34-1.3-.17-1.43.23h0Z"/>
      <path d="M782.3,534.17c-1.03,1.48-2.07,2.98-2.84,4.62-2.92,6.26-1.07,14.38,4.26,18.76,5.33,4.39,13.65,4.63,19.23.56.62-.45,1.42-.97,2.08-.58.32.19.49.54.69.85,1.32,1.97,4.15,2.16,6.47,1.68,9.08-1.88,15.69-11.75,13.95-20.86-.15-.78-.35-1.62-.03-2.35.74-1.71,3.23-1.31,5.03-1.82,3.45-.98,4.2-5.44,4.31-9.02.07-2.31.08-4.81-1.29-6.67-2.87-3.88-2.88-7.17-7.55-8.36,0,0,7.4-5.64,4.03-11.89-3.37-6.25-19.21-4.86-19.21-4.86"/>
      <path class="cls-5" d="M810.61,504.66l-11.44,18.87-6.08-62.94s-63.2-23.07-70.89-23.86c-7.69-.79-18.76,13.6-18.76,13.6,2.57-6.42,7.63-25.02,16.99-27.15,3.91-.89,9.35,1.26,9.35,1.26,0,0,6.21-5.62,13.65-7.4,7.45-1.78,15.59,4.66,15.59,4.66,0,0,3.93-3.75,11.91-3.29,7.97.46,14.12,9.1,14.12,9.1,0,0,9.73-3.45,17.12,3.52,6.22,5.87,7.31,12.42,7.31,12.42,15.94,4.49,17.58,17.59,14.66,30.53,2.1,1.58,4.31,3.7,5.15,6.09.11.31.19.66.28.99,0,.24,0,.49,0,.73-.04,1.78-.19,3.92-.4,5.21-.63,3.82-1.71,6.59-4.52,9.03-.1.08-.13.21-.21.31-1.17.58-2.33,1.21-3.14,2.19-1.06,1.29-.9,2.99-.94,4.57-.12,4.7,1.44,9.48.5,14.14-1.11,2.63-2.47,5.17-3.94,7.63-1.94,1.57-4.05,2.58-6.3,2.84l-3.61-.49s.88,14.34-7.88,18.42c-8.76,4.08-19.86-.3-19.86-.3,0,0-3.51,12.82-13.26,10.46-9.75-2.36-21.52-22.82-21.52-22.82"/>
      <path class="cls-6" d="M801.93,535.5c-5.46,6.17-17.15,10.47-24.82,13.56-7.85,3.16-11.05,3.47-19.03,1.8-15.56-3.25-30.49-10.39-41.78-21.87-11.64-11.85-18.32-27.67-19.03-44.52-.49-11.77,1.18-23.15,4.73-33.92.54-1.07,1.41-2.79,1.96-3.86,13.45-19.08,21.64-23.09,43.36-21.66,13.38.74,26.11-4.42,44.03,8.18,3.86,2.72,7.25,8.74,12.05,12.82,7.23,6.15,14.45,15.46,16.17,23.36,2.5,11.56-.77,25.55-3.78,38.8-2.28,10.04-6.9,19.44-13.72,27.16-.04.05-.09.1-.13.15Z"/>
      <path class="cls-22" d="M689.18,492.15c.84-3.28,1.84-7.09,3.07-11.67.36-1.33.74-2.6,1.12-3.85.26-.63.46-1.27.61-1.93,7.17-22,17.87-31.5,17.87-31.5,13.64-12,32.6-15.83,49.79-10.06,20.37,6.36,35.24,24.18,41.25,39.51,2.99,7.59,3.07,16.03.24,23.68-2.41,6.55-8.39,9.85-12.3,16.59,7.25,1.75,14.95,3.84,7.19,15.5-8.55,12.85-19.55,16.14-24.48,9.02-2.24.58,2.86-4.12.77.96-.47.25-5.65,11.77-6,12.32-3.59,5.6-11.15,7.69-17.23,9.15-6.39,1.53-13.02,2.56-19.57,3.16-9.2.84-18.96.79-28.21-1.08l.4-1.13c-3.93-1.44-2.22-.43-6.84-2.85-15.26-9.05-14.89-42.59-13.42-51.14,1.25-7.25,3.59-10.7,5.74-14.68Z"/>
      <path class="cls-24" d="M703.03,560.78s19.4,8.89,45.61-1.53c0,0-8.69,7.63-22.47,8.43-13.78.79-23.48-3.82-23.48-3.82l.34-3.08Z"/>
      <g>
        <path d="M779.82,518.96c.06-.09.77-4.34-1.05.6-.91,2.48,4.72-4.84,7.33-5.95,1.19-.51,2.59-1.05,3.95-1.22,1.36-.17,5.86.42,7.24.63,1.99.09,5.84,4.07,7.52,5.08.27.21-1.47-3-1.2-2.79,9.33-13,15.22-24.21,9.56-44.97-1.64-5.98-8.41-13.99-10.45-16.53-12.43-15.23-26.37-20.01-44.33-23.33-20.82-3.85-43.23-1.21-53.95,16.49-2.58,4.27-3.51,6.1-4.52,10.92,0,0,4.29-10.1,15.77-12.76,11.48-2.67,13.36-2.21,27.08,1.98,15.9,4.79,21.5,3.67,32.34,13.52,9.9,9.01,10.84,14.53,10.84,14.53-.12,2.95.89,5.8,1.28,8.71.38,2.86-.01,5.66-.69,8.46-1.38,5.72-4.09,8.64-6.32,14.13-1.39,3.41-5.07,9.87-2.22,13.2,1.27,1.49-.06-.62,1.82-.69Z"/>
        <path class="cls-38" d="M780.11,518.93c.2-.53.38-2.76-.64-1.61-.34.38-1.39,2.47-1.05,2.84.29.32.86-.18,1.07-.35,2.11-1.72,3.68-4.05,5.94-5.61,3.29-2.27,7.23-1.64,10.92-1.12,1.83.25,3.11,1.11,4.55,2.26.8.64,1.57,1.3,2.37,1.94.4.32.9.83,1.4,1,.12.04.45-.03.47-.2.07-.95-1.32-1.87-1.25-2.81l-.47.2h.02c.14.06.36-.03.45-.14,3.41-4.76,6.68-9.68,8.89-15.13s3.19-11.67,2.81-17.73c-.23-3.74-.9-7.44-1.83-11.07-.79-3.07-2.18-5.81-3.88-8.47-3.14-4.92-6.93-9.67-11.02-13.84-4.48-4.57-9.66-8.39-15.39-11.23s-11.75-4.68-17.91-6.09c-12.5-2.86-25.72-4.42-38.31-1.18-5.69,1.47-11.14,3.98-15.68,7.76s-8.51,9.19-10.63,14.81c-.58,1.55-.97,3.16-1.32,4.78-.05.25.51.09.58-.07,1.02-2.38,2.77-4.6,4.58-6.42s3.94-3.38,6.27-4.51c2.88-1.39,6.05-2.02,9.17-2.62,4.66-.88,8.98-.75,13.57.41,6.15,1.55,12.16,3.6,18.33,5.12,4.58,1.13,9.25,2.17,13.49,4.31,5.2,2.62,9.71,6.66,13.6,10.94,2.47,2.72,5.07,5.88,6.25,9.43.46,1.4.26,2.94.52,4.4.3,1.68.74,3.33.96,5.02.28,2.19.12,4.39-.28,6.55-.75,3.99-2.42,7.45-4.32,11-1.49,2.77-2.74,5.66-3.97,8.56-1.06,2.49-2.42,5.75-1.38,8.46.2.52.82,1.89,1.51,1.83.81-.07.21-1.1,1.28-1.22.29-.03.48-.38.08-.33-.59.06-1.18.24-1.4.86-.05.14-.08.29-.1.43.02-.22.26.02.18-.24-.03-.09-.21-.23-.27-.31-.45-.54-.75-1.17-.9-1.86-.61-2.77.76-5.82,1.84-8.3,1.29-2.95,2.6-5.88,4.13-8.71,1.61-2.98,2.99-5.97,3.71-9.3.4-1.85.66-3.75.62-5.65s-.49-3.88-.89-5.8c-.19-.91-.36-1.82-.46-2.75-.07-.68.02-1.43-.09-2.09-.03-.18-.09-.37-.15-.55-1.04-3.35-3.44-6.37-5.71-8.96-3.88-4.43-8.47-8.61-13.71-11.39-4.11-2.18-8.62-3.28-13.11-4.39-6.37-1.57-12.6-3.62-18.95-5.27-4.45-1.15-8.71-1.5-13.25-.73-5.43.92-10.7,2.23-15.06,5.75-2.63,2.12-4.95,4.85-6.45,7.9-.08.16-.16.32-.23.48l.58-.07c2.66-12.45,12.24-22.18,24.18-26.12,12.31-4.06,25.64-2.86,38.11-.26s23.99,6.88,33.37,15.45c4.18,3.81,7.81,8.26,11.14,12.82,1.9,2.61,3.73,5.34,5.02,8.3,1.37,3.14,2,6.7,2.51,10.08.92,6.15.75,12.42-1.03,18.41-1.62,5.45-4.45,10.42-7.61,15.1-.83,1.23-1.69,2.45-2.56,3.66l.45-.15h-.02c-.12-.05-.45.03-.47.19-.07.95,1.32,1.87,1.25,2.81l.47-.2c-.5-.17-1.02-.75-1.43-1.08-.64-.52-1.26-1.05-1.9-1.57-1.01-.81-2.08-1.71-3.29-2.2-.94-.38-2.05-.41-3.05-.53-1.39-.17-2.79-.34-4.19-.38-2.44-.06-5.06.91-6.93,2.47s-3.28,3.36-5.04,4.9c-.13.12-.26.25-.42.34.09-.05.1.02.23-.19.23-.38.33-.92.51-1.33.06-.14.5-.83.47-.99-.02-.1-.26.06-.27.07-.03.07.02.19,0,.27-.04.15-.03.35-.05.51-.03.25-.05.53-.14.77-.07.2.5.13.58-.07Z"/>
      </g>
      <ellipse cx="697.44" cy="488.36" rx="4.55" ry="4.53" transform="translate(179.41 1164.06) rotate(-87.52)"/>
      <path d="M694.18,483.75c2.46-.72,4.91-1.25,9.02.34,6.58,2.54,8.2,11.46,8.2,11.46,0,0-3-6.11-9.44-8.79-3.1-1.29-8.25-1.73-11.06-1.19.25-.63,1.79-1.32,3.29-1.82Z"/>
      <path class="cls-24" d="M793.64,527.34c1.45-2.07,2.47-4.59,2.17-7.16-.08-.68-.24-.97-.8-1.36-2.28-1.59-5.39-.8-7.53.63-2.64,1.76-4.54,4.54-6.13,7.22-.23.39,0,.77.37.93.52.22,1.09.09,1.61-.1-.78.28.06,0,.27-.04-.38.09.16-.01.3-.02-.2,0,.12.04.14.05-.08-.05.08.08.13.17.08.15.1.35.12.52.01.15-.04.64-.1.92-.09.36-.19.58-.39.91-.15.26-.47.57-.64.7-.25.18-.61.31-.78.34-.58.11-1.19.07-1.76-.04-.71-.13-1.53,0-2.05.55-.4.43-.34,1.1.33,1.22,2.01.36,4.1.29,5.88-.82,1.15-.71,2-1.83,2.32-3.15s.03-2.66-1.34-3.09c-1.19-.38-2.51-.09-3.65.32l1.98.83c1.24-2.09,2.73-4.33,4.57-5.82.31-.25.63-.46.96-.68.06-.04.31-.18.05-.04.07-.04.14-.08.21-.11.17-.08.34-.15.51-.23.21-.11-.26.06.11-.04.14-.03.28-.07.41-.11-.12.03-.2.01.08,0,.14,0,.56.01.12-.02.1,0,.2,0,.3.01.06,0,.43.05.19.02s.11.03.16.04c.1.03.2.06.3.09.09.03.34.15,0-.01.06.03.13.06.19.09.13.07.26.14.38.22.08.06.16.12.25.18.1.06-.15-.23-.02-.01.09.16-.05-.33-.07-.17-.01.11.07.29.09.4.38,2.25-.69,4.62-1.97,6.46-.41.58.35,1,.84,1.04.72.06,1.49-.25,1.9-.84h0Z"/>
      <path d="M747.15,502.37c-.33,3.1-3.51,4.96-6.35,3.71-1.77-.77-2.87-2.68-2.67-4.6.33-3.1,3.51-4.96,6.35-3.71,1.77.77,2.87,2.68,2.67,4.6Z"/>
      <path d="M731.49,501.83s6.48-8.04,16.27-4.97c8.33,2.61,10.21,7.7,11.24,10.82,0,0-3.89-5.56-11.87-8.35-7.23-2.53-15.64,2.5-15.64,2.5Z"/>
      <path class="cls-35" d="M710.79,529.62c6.29,1.8,18.11,4.22,18.11,4.22,0,0-5.32,17.06-22.7,11.79-14.52-4.41-9.54-19.57-9.54-19.57,0,0,7.84,1.76,14.13,3.56Z"/>
      <path class="cls-12" d="M710.73,529.6c2.99.86,14.17,3.93,14.17,3.93,0,0-6.01,8.81-16.83,5.71-11.73-3.36-9.23-12.41-9.23-12.41l11.9,2.77Z"/>
      <path class="cls-43" d="M710.28,530.67c2.99.86,12.24,2.98,12.24,2.98,0,0-4.18,2.21-13.16-.36-8.98-2.57-10.95-6.45-10.95-6.45l11.87,3.83Z"/>
      <path class="cls-35" d="M695.99,524.85c.09-.32.78-.28,2.3.03,2.54.5,3.6-.15,5.43.23,3.13.65,4.74,2.37,6.07,2.75,1.33.38,3.61-.22,6.61.88,1.76.65,7.09,2.86,9.51,3.78,1.45.55,3.35.49,3.65.66.41.23-2.85,3.68-19.6-1.12-16.74-4.8-14.1-6.77-13.97-7.21Z"/>
      <path class="cls-15" d="M737.31,484.57c.02-.16.56-.05.59-.21,8.78-.08,15.14,1.26,17.35,2.25,1.68.76,3.22,1.87,4.6,3.23,0,0,3.86,3.66,4.16,4.83.3,1.17-2.59-1.17-2.59-1.17-.65-.39-1.06-.77-1.75-1.06-3.78-1.59-7.26-3.69-11.34-4.09-3.49-.36-8.54.62-12.1,1.17.29-1.72.92-3.22,1.08-4.95Z"/>
      <path class="cls-15" d="M716,480.03c.06-.15-.39-.31-.33-.46-6.44-4.27-11.78-6.17-13.9-6.36-1.61-.15-3.3.08-4.99.58,0,0-2,.05-2.79.91-.8.86-.17,1.51-.17,1.51.67-.02,1.16-.15,1.81-.07,3.57.44,7.17.29,10.38,1.9,2.75,1.36,5.99,4.62,8.34,6.8.64-1.63.91-3.23,1.65-4.8Z"/>
      <g>
        <path class="cls-9" d="M709.46,517.18c1.27,1.27,3.65,1.81,5.48,1.33.41-.11,1.47.45.91.6-2.41.63-5.78-.29-7.42-1.93-.16-.16-.08-.3.19-.31.28,0,.68.14.85.31"/>
        <path class="cls-9" d="M716.63,518.88c1.17-.17,2.4-.07,3.57.2.17.04.37.17.46.32.07.12.05.24-.09.27-.62.14-1.33.06-1.95-.15-.19-.06-.44-.19-.49-.39-.05-.19.16-.23.32-.18.51.17,1.06.23,1.57.11.12.2.24.39.37.59-1.05-.24-2.14-.32-3.19-.17-.21.03-.45-.11-.58-.26-.1-.11-.18-.32.03-.35"/>
        <path class="cls-9" d="M721.13,520.43c1.35.38,3.1.29,4.07-.52,1.46-1.22,1.33-4.07-.04-5.56-.15-.16,0-.27.19-.25.26.02.51.2.67.37,1.19,1.3,1.48,3.73.82,5.09-.62,1.27-2.19,1.81-3.91,1.7-.51-.03-1.04-.11-1.55-.26-.2-.06-.55-.23-.6-.42-.05-.19.16-.21.35-.15"/>
        <path class="cls-9" d="M707.22,515.73c.12-.13.02-.27-.09-.31-.36-.1-.7-.32-.93-.67-.16.11-.32.22-.49.33.7.3,1.35.77,1.86,1.4.1.13.3.13.45.07.11-.05.25-.19.15-.31"/>
        <path class="cls-9" d="M708.17,516.24c-.57-.71-1.31-1.22-2.09-1.56-.11-.05-.29-.03-.41.05-.1.07-.15.18-.08.28"/>
        <path class="cls-9" d="M704.38,515.05c-.86-.3-1.7-1.21-1.82-2.35-.17-1.73.99-3.35,2.37-3.99.15-.07.13-.23.02-.3-.14-.1-.35-.07-.51,0-1.21.55-2.25,1.74-2.55,3.22-.28,1.38.26,2.57,1.19,3.28.27.21.58.39.9.51.13.05.39.06.5-.08.12-.14.02-.25-.11-.29"/>
      </g>
      <path class="cls-22" d="M789.86,507.14c-1.01.09-7.28-5.6-8.4-4.79-8.34-30.31-51.46-59.35-80.46-44.08,2.06-3.76,8.92-11.82,10.07-12.9,12.47-11.74,30.86-14.22,49.65-10.94,18.79,3.29,39.97,15.13,46.2,36.89,6.04,21.1,3.35,38.14-17.06,35.82Z"/>
      <g>
        <path d="M778.8,477.88l.52-.61c.48,1.86,1.66,3.52,3.25,4.59.94.63,2.19,1.38,1.97,2.49-.06.32-.25.61-.32.94-.4,2.07,3.71,1.83,4.52,3.78.68,1.65-1.58,3.38-1.02,5.07.5,1.5,2.83,1.73,3.32,3.24.61,1.86-2.17,3.8-1.21,5.51.69,1.23,2.79,1.06,3.43,2.31.3.59.17,1.31.08,2-3.54.23-7.14.69-10.87.89.16-.76.43-1.52.77-2.18.31-.59.64-1.25.46-1.9-.39-1.43-2.62-1.24-3.57-2.37-1.68-1.97,2.06-4.97.95-7.32-.66-1.4-2.81-1.78-3.16-3.29-.46-1.98,2.63-4,1.4-5.61-.38-.49-1.03-.67-1.53-1.04-.99-.73-1.23-2.17-.89-3.36.34-1.19,1.13-2.18,1.9-3.14Z"/>
        <path d="M778.92,477.87l.52-.61-.26.04c.43,1.49,1.2,2.84,2.36,3.89s3.21,1.69,2.71,3.64c-.24.92-.17,1.46.7,1.99.94.57,2.09.75,2.97,1.44,2.46,1.93-1.85,4.62.19,6.72.88.9,2.48,1.21,2.83,2.57s-.86,2.55-1.27,3.72c-.35,1.01-.1,1.87.85,2.42.51.29,1.09.43,1.61.69.48.24.87.54,1.06,1.05s.27,1.43-.26,1.74c-.32.19-1.27.1-1.62.13-.32.03-.64.06-.97.08-1.1.1-2.2.2-3.29.3s-2.21.19-3.32.27c-.74.05-1.01,0-.89-.78.08-.5.41-1.01.62-1.46.53-1.12.6-2.13-.58-2.77s-2.95-.77-3.06-2.43c-.15-2.2,2.72-4.44,1.16-6.59-.83-1.15-2.82-1.56-2.96-3.17-.13-1.52,1.32-2.61,1.66-4,.4-1.62-1.28-1.8-2.12-2.75-1.72-1.94.1-4.53,1.36-6.11.07-.08-.2-.06-.25,0-1.04,1.29-2.19,2.76-2.04,4.52.07.79.4,1.53,1.03,2.02.67.52,1.65.69,1.81,1.68.22,1.39-1.3,2.62-1.64,3.91-.37,1.42.63,2.18,1.68,2.93,1.53,1.08,1.96,2.21,1.28,3.99-.44,1.14-1.33,2.37-1.23,3.64.1,1.36,1.37,1.77,2.47,2.2.94.37,1.75.86,1.55,2.03s-.96,2.17-1.23,3.31c0,.04.05.05.08.05,3.63-.2,7.24-.64,10.87-.89.04,0,.18-.02.19-.09.17-1.27.11-2.3-1.13-2.92s-3.04-1.03-2.46-2.9c.36-1.16,1.4-2.19,1.37-3.46-.02-1.15-1.02-1.71-1.88-2.26-1.42-.89-1.93-1.89-1.24-3.5.44-1.01,1.26-2.2.64-3.31-.89-1.58-4.87-1.52-4.37-3.72.16-.69.45-1.08.08-1.75-.33-.61-.98-1-1.53-1.37-1.72-1.18-2.93-2.72-3.51-4.75-.02-.09-.22,0-.26.04l-.52.61c-.07.08.2.05.25,0Z"/>
      </g>
      <g>
        <path d="M785.35,468.31c-1.22.69-1.91,2.22-1.62,3.59.29,1.37,1.54,2.49,2.94,2.62-1.05,1.49-.58,3.82.96,4.78.66.41,1.49.62,1.96,1.24,1.16,1.52-.77,4.04.42,5.54.45.57,1.23.79,1.66,1.37.89,1.18-.17,2.95.35,4.34.63,1.7,3.26,2,3.8,3.73.38,1.22-.43,2.8.48,3.69.48.47,1.29.54,1.64,1.11.43.68-.08,1.54-.29,2.32-.53,1.93,1.36,4.08,3.34,3.82-.31,1.31-.04,2.74.71,3.85,1.15-1.03,2.33-2.11,2.97-3.52.64-1.41.6-3.25-.52-4.32-.43-.41-1-.7-1.32-1.21-.81-1.29.43-3.2-.47-4.42-.61-.82-1.97-.97-2.29-1.94-.15-.47,0-.97.06-1.46.18-1.73-1.18-3.48-2.9-3.73-.49-.07-1.03-.05-1.42-.35-1.12-.89.53-2.63.27-4.03-.26-1.38-2.29-1.92-2.41-3.32-.04-.46.16-.92.16-1.38.01-.74-.44-1.39-.88-1.99-2.24-3.06-4.59-6.04-7.04-8.94"/>
        <path d="M785.27,468.26c-1.32.85-2.09,2.46-1.57,4.02.23.68.69,1.28,1.27,1.69.3.22.62.33.95.49.48.23.43.05.32.62-.29,1.53-.35,3.01,1.03,4.1.76.6,1.84.73,2.34,1.64s.16,1.89,0,2.81c-.11.65-.23,1.37,0,2.01.35.94,1.39,1.11,1.94,1.87,1.12,1.53-.54,3.62.88,5.16,1.29,1.39,3.4,1.63,3.36,3.93-.01.77-.26,1.69.17,2.4.63,1.02,2.27.83,1.95,2.47-.22,1.11-.7,1.84-.26,2.97.3.77.91,1.45,1.66,1.82.32.16.63.19.97.3.55.18.41.08.47.73.09,1.15.21,2.09.84,3.1.05.07.19.02.23-.03,1.96-1.76,5.03-5.11,2.58-7.79-.68-.74-1.57-1.09-1.69-2.21-.08-.78.16-1.55.14-2.33-.05-1.71-1.48-1.62-2.38-2.7-.58-.69-.14-1.61-.2-2.42-.05-.76-.37-1.48-.86-2.06-.38-.45-.88-.81-1.43-1.02-.97-.37-2.52-.19-2.4-1.59.11-1.25,1.12-2.33.36-3.57-.35-.57-.96-.95-1.42-1.42-.75-.76-.63-1.45-.56-2.44.06-.79-.32-1.43-.76-2.05-.72-1.02-1.48-2.01-2.24-3-1.59-2.07-3.22-4.1-4.9-6.1-.07-.08-.32.02-.25.11,1.42,1.69,2.82,3.41,4.18,5.16.68.87,1.35,1.75,2.01,2.64.6.8,1.5,1.73,1.68,2.75.14.78-.33,1.51,0,2.26.25.57.8.96,1.24,1.36.6.55,1.11,1.12,1.04,1.99-.06.77-.5,1.44-.62,2.19-.22,1.33.73,1.5,1.81,1.7,1.2.22,2.17,1,2.63,2.15.36.9.02,1.71.1,2.61.14,1.54,2.22,1.46,2.62,2.87s-.63,2.93.43,4.16c.75.87,1.63,1.18,1.93,2.41.27,1.11-.01,2.3-.57,3.28-.31.55-.71,1.05-1.14,1.51-.24.26-.76.97-1.11,1.09-1.11.37-1-2.91-.9-3.44.01-.06-.08-.07-.12-.07-1.42.09-2.7-.84-3.15-2.17-.35-1.05.13-1.78.32-2.78.1-.55.09-1.01-.34-1.43-.33-.32-.82-.38-1.17-.66-.57-.44-.69-1.02-.68-1.69.02-1.47.21-2.51-1.07-3.5-1.45-1.13-3-1.58-2.9-3.74.07-1.37.45-2.56-.77-3.52-.98-.77-1.59-1.22-1.49-2.55.06-.75.3-1.48.34-2.24.08-1.39-.63-1.97-1.78-2.56-1.88-.97-2.73-3.13-1.54-5.02.04-.06-.03-.09-.08-.09-3.1-.47-3.93-4.38-1.29-6.08.15-.1-.07-.16-.17-.1h0Z"/>
      </g>
      <g>
        <path d="M788.92,465.25c-1.01,1.94-.05,4.65,1.97,5.52.4.17.83.29,1.13.59.62.65.31,1.7.37,2.6.13,2.03,2.25,3.31,4.2,3.86,1.25.35,2.83.87,2.92,2.16.04.51-.2,1.03-.08,1.53.32,1.32,2.74,1.39,2.77,2.75.02.62-.54,1.14-.56,1.77-.03,1.32,2.04,1.51,2.76,2.61.34.51.34,1.17.32,1.78-.04,1.87-.07,3.74-.11,5.61,0,.46.02,1,.39,1.26.63.45,1.42-.3,1.81-.97,2.16-3.79,3.33-8.15,3.37-12.52,0-1.09-.28-2.47-1.35-2.69-.35-.07-.76,0-1.04-.23-.46-.37-.16-1.09.05-1.64.87-2.28-.96-5.14-3.39-5.31-.66-.05-1.45.01-1.82-.53-.24-.36-.17-.84-.25-1.27-.2-1.1-1.35-1.76-2.43-2.07-1.08-.3-2.26-.42-3.16-1.1-1.12-.85-1.61-2.44-2.9-3.02-1.55-.7-3.76.33-4.88-.95"/>
        <path d="M788.8,465.24c-.52,1.12-.54,2.35-.04,3.49.23.53.56,1.01.98,1.41.57.53,1.32.65,1.91,1.1.81.62.6,1.49.61,2.4,0,.68.16,1.31.54,1.88.73,1.11,2.01,1.79,3.23,2.21.74.25,1.54.4,2.23.8,1.22.69,1,1.41,1.02,2.61.02,1.13,1.07,1.46,1.89,1.97.95.59.96,1.15.59,2.16-.16.43-.33.81-.14,1.26.51,1.2,2.32,1.18,2.83,2.45.39.96.14,2.29.12,3.31-.02,1.09-.05,2.18-.06,3.28,0,.78-.04,2.08,1.08,1.91s1.76-1.84,2.18-2.71c.83-1.71,1.46-3.51,1.89-5.36s.7-3.75.67-5.64c-.02-1.08-.2-2.04-1.13-2.65-.51-.34-1.49-.28-1.46-1.17,0-.3.21-.61.29-.89.18-.62.22-1.23.09-1.87-.25-1.24-1.09-2.38-2.21-2.96-.56-.29-1.12-.36-1.73-.42-.94-.08-1.47-.51-1.61-1.42-.05-.34-.1-.64-.27-.95-.81-1.43-2.7-1.51-4.08-1.95-1.96-.62-2.31-2.52-3.92-3.49s-3.75.25-5.15-1.08c-.07-.07-.32.03-.25.11.76.73,1.69.72,2.69.71.85,0,1.74-.06,2.49.4s1.18,1.25,1.7,1.91c.81,1.04,1.74,1.48,3,1.79.8.2,1.63.35,2.34.8.45.29.86.66,1.05,1.18.16.42.06.89.21,1.3.41,1.09,1.72.73,2.62.97,1.5.4,2.64,1.82,2.89,3.32.13.78-.05,1.39-.28,2.11-.11.35-.3.82-.1,1.18.22.4.56.3.92.43,1.26.45,1.56,1.15,1.62,2.39.2,3.78-.91,7.85-2.54,11.23-.24.5-.57,1.46-1,1.84-1.96,1.73-1.75-.4-1.75-1.06,0-.47.02-.94.03-1.4.02-.94.04-1.87.05-2.81.01-.75.15-1.69-.14-2.41-.43-1.06-1.61-1.25-2.39-1.93-1.22-1.07.46-2.06-.09-3.22-.42-.9-1.71-1.01-2.33-1.72-.87-1.01.24-2.32-.93-3.31-1.07-.91-2.68-.99-3.9-1.62-.79-.4-1.55-.95-2.04-1.7-.61-.94-.43-1.81-.48-2.87-.08-1.7-1.53-1.54-2.57-2.51-1.31-1.21-1.68-3.18-.94-4.78.06-.12-.21-.09-.25,0h0Z"/>
      </g>
      <g>
        <path d="M792.78,463.75c2.23,1.91,6.25-1.07,8.43.89,1.06.95,1.39,2.87,2.8,3.03.65.07,1.33-.3,1.93-.06,1.26.5.43,2.49.98,3.72.7,1.54,3.28,1.34,4.02,2.87.21.43.22.92.39,1.37.33.83,1.14,1.34,1.82,1.92.68.58,1.28,1.47.98,2.31,2.65-2.45,3.14-6.9,1.09-9.87-.22-.32-.47-.64-.56-1.01-.09-.37,0-.76.03-1.13.2-1.9-.7-3.88-2.26-4.98-.55-.38-1.19-.7-1.5-1.29-.43-.84,0-1.85-.09-2.78-.19-2.18-2.88-3.13-4.1-4.95-.51-.76-.75-1.66-1.21-2.45-.49-.85-1.21-1.55-2.08-2-.69-.36-1.6-.54-2.19-.03-.4.35-.52.92-.83,1.36-.79,1.09-2.43.95-3.74.61-1.3-.34-2.84-.71-3.87.16-1.45,1.23-.53,3.68-1.29,5.43-.34.76-1,1.37-1.26,2.16-.24.73-.13,1.52,0,2.27.21,1.34.42,2.68.63,4.01"/>
        <path d="M792.64,463.8c1.89,1.44,4.33.19,6.44.21,1.79.02,2.38,1.17,3.26,2.49.57.86,1.04,1.17,2.04,1.23.69.04,1.71-.18,2.04.58.1.22.11.53.12.77.04.58-.04,1.17.08,1.75.22,1.1,1.1,1.54,2.05,1.94.56.23,1.21.44,1.66.86.59.56.57,1.26.85,1.96.66,1.61,3.24,2.14,2.8,4.21-.02.11.22.03.26,0,1.4-1.37,2.23-3.16,2.37-5.11.06-.9-.02-1.82-.26-2.69-.31-1.1-1.15-1.92-1.48-2.96s.09-2.2-.2-3.26c-.27-.98-.8-1.9-1.55-2.59-.87-.81-2.08-1.13-2.23-2.48-.13-1.17.35-2.07-.26-3.17-.45-.82-1.23-1.41-1.93-2.01-1-.83-1.8-1.63-2.35-2.83-.74-1.61-1.77-3.53-3.76-3.78-.5-.06-1,.01-1.4.33-.19.15-.3.36-.43.56-.18.27-.23.56-.44.83-.7.9-1.89.85-2.84.69-1.51-.25-3.39-1.08-4.75.07-1.62,1.37-.56,4.04-1.49,5.77-.62,1.15-1.3,1.84-1.22,3.23.1,1.64.49,3.31.75,4.93.01.09.3.02.29-.08-.15-.97-.3-1.93-.46-2.9-.17-1.07-.51-2.3-.17-3.37.24-.75.84-1.31,1.18-2,.32-.65.4-1.35.43-2.07.12-2.28.4-4.37,3.47-3.85,1.25.21,2.48.72,3.76.39.35-.09.67-.23.95-.46.18-.15.31-.31.44-.5.51-.79.3-.95,1.45-1.13.99-.15,1.2-.1,1.97.49.29.22.55.48.79.76.67.79.95,1.77,1.43,2.68.64,1.21,1.73,1.97,2.74,2.86.5.44.97.89,1.3,1.48.5.91.29,1.75.26,2.73-.04,1.7,1.34,2.01,2.38,3.05,1.43,1.44,1.57,3.04,1.51,4.93-.02.65.26,1.09.6,1.61.46.71.81,1.45,1.02,2.27.4,1.57.29,3.27-.28,4.79-.27.72-.64,1.43-1.14,2.02-.58.68-.31-.18-.63-.74-.4-.69-1.08-1.11-1.66-1.63-.85-.76-.84-1.59-1.3-2.53s-1.56-1.23-2.44-1.61c-1.57-.69-1.76-1.66-1.8-3.24-.03-1.21-.38-1.82-1.62-1.83-.77,0-1.49.21-2.11-.4-.3-.3-.51-.68-.73-1.04-.31-.51-.6-1.05-1.04-1.45-2.38-2.11-5.95,1.01-8.43-.89-.08-.06-.34.06-.27.11h0Z"/>
      </g>
      <g>
        <path d="M785.26,461.43c-1.31-1.17-1.26-3.53.11-4.63.45-.37,1.08-.74,1.02-1.32-.03-.25-.19-.46-.31-.68-.81-1.38-.17-3.4,1.29-4.06.31-.14.65-.23.9-.46,1.04-.93-.23-3.18.99-3.85,1.03-.56,2.14.97,3.3.8,1.13-.17,1.51-1.79,2.61-2.09,1.63-.44,3.33,2.32,4.61,1.22.67-.58.32-1.74-.37-2.29s-1.6-.73-2.38-1.15c-2.02-1.09-2.82-3.54-4.39-5.21-1.64-1.74-4.01-2.54-6.28-3.29-.98-.32-1.98-.64-3.01-.55-1.57.14-2.99,1.38-3.34,2.92-.07.3-.12.64-.38.81-.15.1-.34.12-.52.13-.89.07-1.79.15-2.68.22-.34.03-.71.07-.94.32-.53.58.2,1.47.93,1.76.73.29,1.66.57,1.78,1.35.23,1.44-2.57,1.67-2.72,3.12-.16,1.5,2.61,1.89,2.65,3.41.02.9-.99,1.5-1.17,2.38-.18.91.57,1.73,1.35,2.23.78.5,1.69.91,2.13,1.71.34.61.35,1.35.49,2.04.45,2.09,2.14,3.64,3.75,5.04"/>
        <path d="M785.39,461.38c-.7-.7-1.03-1.62-.92-2.61.12-1.07.74-1.64,1.49-2.32.38-.34.64-.65.51-1.18-.1-.39-.39-.7-.5-1.09-.16-.55-.12-1.16.05-1.7.4-1.25,1.28-1.39,2.2-2.07.42-.31.56-.68.62-1.19.08-.67-.18-1.42.04-2.06.47-1.42,1.88-.3,2.75,0,.92.32,1.57,0,2.19-.71.48-.54.64-.84,1.38-1.07.69-.21,1.01-.11,1.59.22s1.06.75,1.66.96c.68.24,1.49.09,1.76-.67.51-1.43-1.19-2.25-2.2-2.67-1.86-.76-2.82-2.17-3.88-3.78-1-1.51-2.13-2.71-3.74-3.57-1.69-.89-3.75-1.68-5.64-2.01-1.2-.21-2.37-.03-3.36.7-.55.4-1,.95-1.28,1.57-.13.28-.14.71-.3.96-.42.69-1.32.6-2.01.66s-2.69-.12-2.61,1.1c.09,1.51,4.27,1.71,2.48,3.5-.68.69-2.08.95-2.29,2.05-.26,1.31,1.55,1.86,2.22,2.64,1.29,1.51-1.5,2.72-.52,4.42.46.8,1.29,1.18,2.04,1.67,1.34.88,1.38,1.91,1.75,3.35.52,2.05,2.18,3.54,3.72,4.88.07.06.32-.04.25-.11-1.38-1.21-2.89-2.53-3.54-4.31-.3-.83-.25-1.76-.62-2.56-.28-.62-.79-1.02-1.35-1.39-.76-.49-1.68-.91-2.05-1.79-.48-1.14.36-1.67.8-2.61.47-.99-.11-1.65-.9-2.24-.44-.33-1.02-.62-1.33-1.1-.58-.92.16-1.61.9-2.09.59-.38,1.56-.79,1.61-1.62.03-.5-.31-.85-.7-1.1-.26-.17-.56-.25-.84-.38-.21-.1-.36-.16-.57-.29-.21-.1-.39-.25-.53-.44l.71-1.32c.27-.17,1.02-.08,1.34-.11.48-.04,1.01-.03,1.48-.13.32-.07.52-.13.72-.41.12-.17.13-.42.19-.61.18-.54.38-1.01.74-1.46,1.09-1.34,2.74-1.56,4.34-1.14,1.91.5,3.95,1.18,5.63,2.24,2.83,1.8,3.63,5.54,6.76,6.89.82.35,2.16.74,2.32,1.8.08.52.16.19-.52.84s-.39.6-1,.39c-.33-.11-.64-.37-.93-.55-.7-.43-1.5-.95-2.36-.7-.4.12-.7.38-.98.68-.25.27-.47.68-.75.89-.82.6-1.5.42-2.28.04-.67-.33-1.48-.76-2.14-.15-.33.31-.4.74-.41,1.17-.05,1.21.26,1.99-.92,2.83-.48.35-.97.47-1.36.97-.43.55-.66,1.25-.67,1.94,0,.76.77,1.82.53,2.54-.12.37-.82.7-1.1.99-.22.22-.4.49-.54.77-.61,1.26-.34,2.76.64,3.73.07.07.32-.03.25-.11h0Z"/>
      </g>
      <g>
        <path d="M782.77,465c.42-2.14-2.66-3.04-4-4.77-1.02-1.31-1.06-3.29-2.33-4.37-.91-.78-2.39-1.03-2.78-2.16-.23-.66.02-1.38-.04-2.08-.23-2.66-4.53-3.51-4.67-6.17-.13-2.4,3.36-4.22,2.51-6.46-.26-.7-.92-1.22-1.09-1.94-.34-1.46,1.38-2.49,2.79-3,1.97-.72,3.94-1.43,5.91-2.15-3.09-2.96-7.06-5-11.26-5.79-1.54-.29-3.2-.41-4.63.24s-2.52,2.28-2.09,3.79c.13.44.37.85.42,1.31.24,2.01-3.12,3.58-2.14,5.35.23.41.66.68.88,1.1.63,1.22-.89,2.68-.45,3.98.38,1.13,1.93,1.35,2.65,2.3.44.57.51,1.33.76,2.01.35.94,1.03,1.71,1.7,2.45,1.9,2.12,3.8,4.23,5.71,6.35,1.34,1.5,2.82,3.07,4.79,3.51.24,3.8,3.91,7.03,7.71,6.8"/>
        <path d="M782.9,464.99c.14-1.09-.46-1.84-1.26-2.51-1.24-1.03-2.62-1.76-3.33-3.29-.53-1.16-.76-2.52-1.77-3.4-.55-.47-1.25-.7-1.84-1.1-1.22-.84-.82-1.81-.95-3.07-.23-2.38-3.13-3.13-4.26-4.95-1.75-2.83,2.48-4.51,2.22-7.17-.06-.67-.49-1.12-.82-1.67-.89-1.48.04-2.61,1.39-3.3,2.13-1.1,4.59-1.73,6.84-2.55.04-.01.11-.08.07-.13-1.93-1.81-4.14-3.3-6.57-4.36-2.24-.97-4.9-1.83-7.38-1.69-1.88.1-3.87,1.08-4.32,3.06-.25,1.12.58,2.03.44,3.1s-1.07,1.85-1.65,2.66c-.32.45-.68.98-.65,1.56.01.39.17.66.39.96.59.81.96,1.23.67,2.26-.25.89-.84,1.86-.34,2.78.44.81,1.45,1.09,2.12,1.65.96.8.95,2.14,1.56,3.18.83,1.41,2.15,2.6,3.23,3.8,1.89,2.1,3.67,4.47,5.84,6.28.52.44,1.09.84,1.72,1.12.83.38.97.44,1.18,1.34.27,1.18.86,2.27,1.65,3.18,1.52,1.74,3.71,2.74,6.02,2.66.15,0,.21-.19.03-.18-3.84.13-7.24-2.94-7.59-6.75,0-.02-.04-.04-.06-.05-2.08-.54-3.51-2.11-4.9-3.66-1.53-1.7-3.06-3.41-4.6-5.12-.65-.72-1.34-1.43-1.92-2.21-.69-.95-.76-2-1.3-2.98-.75-1.37-3.05-1.48-2.9-3.34.11-1.35,1.21-2.43.18-3.68-.63-.76-.94-1.29-.45-2.23.35-.67.91-1.21,1.34-1.82.8-1.13.72-1.84.32-3.1-.32-1.01-.03-2.07.66-2.86,1.08-1.25,2.75-1.52,4.33-1.41,4.19.27,8.45,2.34,11.63,5.01.63.53,1.07.72.22,1.15-.42.21-.92.33-1.36.5-1.14.41-2.28.82-3.41,1.24s-2.63,1.03-3.04,2.27c-.51,1.52,1.39,2.45,1.13,3.98-.23,1.38-1.5,2.41-2.13,3.6-1.34,2.51.76,3.93,2.5,5.39.63.52,1.3,1.13,1.56,1.92.3.92-.16,1.93.23,2.82.25.57.78.89,1.3,1.19.91.52,1.69.92,2.21,1.88.79,1.44.99,2.96,2.28,4.1s3.51,2.01,3.25,3.97c-.02.13.25.09.27-.02h0Z"/>
      </g>
      <g>
        <path d="M778.02,467.54c-2.82.93-6.22-.46-7.58-3.1-.45-.88-.7-1.87-1.24-2.7-1.59-2.41-5.23-2.83-6.69-5.32-.8-1.36-.77-3.07-1.51-4.45-1.48-2.76-5.53-3.43-6.82-6.28-.33-.73-.45-1.56-.92-2.21-.75-1.03-2.2-1.33-3.05-2.29-1.12-1.27-.92-3.35-2.11-4.55-.71-.71-1.83-1.01-2.32-1.88-.85-1.53.78-3.65-.18-5.11-.38-.57-1.07-.87-1.45-1.43-.93-1.36.47-3.17,1.98-3.85,1.91-.86,4.07-.94,6.16-1.01.49-.02.98-.03,1.47-.05,2.49-.08,5.45.06,6.81,2.15.27.41.44.99.12,1.37-.17.19-.42.27-.67.35-1.79.54-3.58,1.09-5.37,1.63,1.3.78,1,2.74.39,4.13-.61,1.39-1.32,3.09-.41,4.31.46.61,1.29,1,1.44,1.75.11.58-.25,1.15-.3,1.74-.15,1.76,2.14,2.51,3.42,3.72.9.85,1.34,2.06,1.93,3.15.68,1.26,1.59,2.38,2.48,3.49.81,1.01,1.62,2.02,2.44,3.02,2.27,2.82,4.54,5.63,6.98,8.3,1.72,1.87,3.52,3.67,5.4,5.38"/>
        <path d="M778.01,467.5c-3.03.9-6.3-.63-7.62-3.48-.53-1.14-.86-2.27-1.78-3.17-.82-.79-1.84-1.31-2.82-1.87s-2.05-1.16-2.79-2.09c-.9-1.13-1.01-2.53-1.44-3.87-.71-2.27-2.6-3.32-4.47-4.55-.98-.65-1.97-1.37-2.57-2.41s-.67-2.3-1.62-3.13c-1.03-.9-2.35-1.17-3.02-2.48-.54-1.06-.6-2.32-1.24-3.33s-1.83-1.26-2.53-2.16c-.85-1.08-.26-2.39-.11-3.61.12-1.01-.1-1.7-.87-2.36-1.35-1.17-1.5-2.44-.16-3.76,1.7-1.68,4.55-1.72,6.8-1.81,1.77-.07,3.61-.22,5.36.12.75.15,1.5.39,2.15.81.5.33,1.56,1.17,1.42,1.83-.1.49-1.2,1.04-1.6,1.21-.56.24-1.21.37-1.79.54-.89.27-1.79.54-2.68.81,0,0-.16.05-.11.09,1.79,1.28.51,3.62-.06,5.2-.29.8-.56,1.74-.29,2.59.23.72.81,1.06,1.29,1.59.88.98.09,1.75.18,2.83.05.67.47,1.18.95,1.6.54.48,1.18.84,1.77,1.27.87.64,1.46,1.43,1.96,2.38,2.08,3.97,5.15,7.34,7.98,10.8,3.11,3.8,6.38,7.43,10.01,10.74.05.05.29-.05.25-.09-4.45-4.07-8.31-8.63-12.09-13.31-1.82-2.26-3.93-4.46-5.3-7.04-.47-.88-.84-1.82-1.48-2.59s-1.56-1.28-2.38-1.88c-.89-.66-1.57-1.4-1.35-2.58.2-1.11.38-1.61-.5-2.45-1.12-1.08-1.34-2.03-.88-3.53.31-1.02.87-1.93,1.04-2.99.15-.93-.08-1.45-.42-2.25-.11-.26-.3-.05-.11-.42.03-.07.75-.23.89-.27.82-.25,1.64-.5,2.46-.75.57-.17,1.9-.31,2.33-.87.49-.64-.05-1.44-.51-1.93-1.35-1.44-3.54-1.64-5.4-1.65-2.33-.01-4.8-.02-7.08.53-1.6.38-3.59,1.24-4.02,3.03-.19.81.13,1.43.71,1.97,1.12,1.05,1.44,1.58,1.18,3.13-.14.8-.43,1.68-.18,2.49.29.98,1.2,1.33,1.97,1.89,1.87,1.35,1.35,4.05,3.15,5.44.94.72,2.13,1.06,2.73,2.16.53.97.65,2.04,1.37,2.92,1.25,1.52,3.16,2.27,4.66,3.5,1.05.87,1.69,1.89,2.05,3.2.33,1.22.52,2.49,1.33,3.51,1.39,1.75,3.74,2.3,5.39,3.75,1.18,1.04,1.48,2.41,2.18,3.75.51.97,1.27,1.77,2.19,2.35,1.66,1.05,3.66,1.31,5.54.75.15-.05.13-.13-.02-.08h0Z"/>
      </g>
      <g>
        <path d="M750.82,447.98c1.02-.52.71-2.14-.13-2.92-.84-.78-2.02-1.15-2.78-2.01-.99-1.12-1.04-2.78-1.8-4.06-.81-1.36-2.3-2.12-3.5-3.15-1.2-1.03-2.17-2.73-1.45-4.14.39-.75,1.24-1.48.91-2.26-.33-.8-1.64-.82-1.92-1.63-.31-.92.98-1.64,1.06-2.6.05-.64-.47-1.21-1.04-1.51-1.98-1.04-4.36.07-6.31,1.17-2.27,1.28-4.54,2.55-6.81,3.83-.16.09-.32.18-.44.31-.57.59-.1,1.66.65,2s1.61.22,2.43.19c.82-.03,1.75.1,2.24.75.49.66.35,1.6.66,2.36.76,1.87,3.54,1.73,5.03,3.09.92.84,1.25,2.19,2.18,3.02.95.85,2.33.99,3.43,1.62,1.55.88,2.39,2.59,3.41,4.05,1.02,1.46,2.62,2.86,4.37,2.54"/>
        <path d="M750.91,448.04c.71-.47.82-1.26.55-2.03-.42-1.2-1.61-1.63-2.57-2.31-1.61-1.13-1.65-2.8-2.46-4.42-.57-1.14-1.55-1.88-2.55-2.62-1.27-.95-2.86-2.19-2.82-3.96.02-1.11,1.82-2.42,1.01-3.54-.16-.22-.43-.37-.66-.5-.3-.18-.84-.36-1.02-.69-.39-.69.12-1.16.44-1.65.51-.8.75-1.55,0-2.29-1.92-1.9-5.14-.27-7.03.77-1.64.9-3.26,1.83-4.89,2.75-.76.43-2.51.95-2.68,1.99-.13.84.62,1.49,1.33,1.7,1.9.56,4.16-.72,4.65,2.07.18.99.45,1.72,1.33,2.27,1.01.63,2.22.81,3.25,1.39,1.53.87,1.79,2.76,3.19,3.76,1.49,1.07,3.25,1.11,4.55,2.58,1.82,2.07,3.07,5.8,6.46,5.42.15-.02.2-.22.02-.2-3.43.39-4.57-3.63-6.49-5.62-.65-.68-1.4-1.1-2.27-1.43-.7-.27-1.44-.46-2.06-.9-.68-.49-1.05-1.18-1.47-1.88-1.13-1.92-2.62-2.12-4.5-3.02-.64-.31-1.22-.71-1.51-1.4-.23-.55-.18-1.17-.37-1.74-.25-.76-.77-1.19-1.55-1.36-1.24-.28-3.83.58-4.23-1.11-.34-1.44,3.6-3,4.58-3.55,1.29-.73,2.57-1.51,3.9-2.16,1.54-.75,4.49-1.81,5.75.04.94,1.38-.88,1.93-.84,3.16.02.63.57.91,1.05,1.18.19.1.68.33.81.56.45.79-.12,1.33-.47,1.9-.18.28-.36.54-.46.86-.32,1.02.11,2.08.71,2.9.74,1.02,1.83,1.66,2.8,2.43,1.39,1.1,1.89,2.3,2.45,3.92.4,1.16.95,2,1.99,2.67s3.95,2.58,1.89,3.95c-.15.1.07.2.18.13h0Z"/>
      </g>
      <g>
        <path d="M736.19,440.13c-.67-1.79-3.39-1.55-4.76-2.88-.84-.82-1.13-2.19-2.19-2.7-1.27-.6-3.08.37-4.04-.65-.65-.68-.47-1.91-1.18-2.53-.65-.57-1.65-.32-2.46,0-2.74,1.09-5.29,2.65-7.52,4.59-.25.22-.5.45-.6.77-.21.71.55,1.41,1.3,1.42s1.4-.46,1.98-.92c.58-.46,1.18-.97,1.91-1.09,2.16-.36,3.71,2.68,5.89,2.46.67-.07,1.29-.44,1.96-.4,1.55.1,2.34,2.29,3.88,2.34.57.02,1.1-.28,1.65-.42.91-.24,1.91-.05,2.68.49.36.26.68.59,1.1.7s.99-.16.96-.59"/>
        <path d="M736.32,440.09c-.74-1.65-2.75-1.61-4.13-2.43-1.5-.89-1.71-3.15-3.63-3.38-1.21-.15-2.86.49-3.54-.88-.34-.68-.28-1.57-.9-2.1-1.35-1.15-3.99.57-5.17,1.19-.96.51-1.89,1.07-2.78,1.69-.81.56-2.2,1.37-2.71,2.24-.78,1.33,1,2.03,2.04,1.65,1.41-.51,2.31-2.26,4.04-1.8.94.25,1.7.97,2.48,1.51.57.4,1.2.79,1.91.88,1.25.16,2.37-.81,3.58.07.73.53,1.28,1.39,2.15,1.73.74.29,1.34.02,2.07-.18,1.21-.32,2.15-.12,3.13.59.32.23.62.5,1.03.53.5.04.91-.2,1.01-.7.02-.11-.25-.07-.27.03-.23,1.2-2.24-.47-2.62-.6-.66-.23-1.33-.24-2-.09-.58.13-.98.32-1.61.28-.68-.04-.95-.19-1.45-.62s-.93-.98-1.52-1.31c-.42-.23-.83-.31-1.31-.26-.53.06-1.02.34-1.56.38-.58.04-1.12-.15-1.62-.42-1.15-.63-2.11-1.79-3.45-2.03-1.41-.25-2.18.83-3.28,1.46-.62.35-1.73.89-2.2.21l-.24-.19.15-1.32c.26-.47,1.06-.91,1.47-1.22.85-.65,1.74-1.25,2.67-1.8.97-.57,1.98-1.08,3.02-1.52.81-.35,2.04-.91,2.81-.22.45.4.53.93.7,1.48.38,1.22,1.13,1.58,2.36,1.54,1.31-.04,2.4-.07,3.2,1.12.45.66.76,1.4,1.39,1.91,1.37,1.1,3.73.9,4.53,2.67.05.1.31.02.27-.07h0Z"/>
      </g>
      <path d="M800.71,509.4c1.45,1.38-11.66,3.37-11.1,1.44.55-1.92-.18-8.83-1.23-10.53-1.05-1.7,7.39,8.42,9.2-1.1,2-.62,2.49,6.14,4.58,6.17,2.72.05.34-4.92-.07-7.61-.41-2.69-.12-3.57-.67-6.23-.21-1,2.01-2.28,3-2.51.38-.09.76.03,1.14.09,1.67.25,3.37-.73,4.32-2.13.95-1.4-3.17-5.25-3.18-6.95-.03-2.89,1.11-4.78-.53-7.16-.66-.95.93-.75.7-1.88s.38-2.56,1.54-2.67c.68-.07,1.32.33,1.88.71,2.57,1.75,5.1,3.72,6.74,6.37,1.64,2.65,2.24,6.12.85,8.9-.55,1.1-1.4,2.1-1.56,3.32-.19,1.53.77,2.97.82,4.51.11,3.1-3.41,5.56-3.02,8.64.12.96.62,1.84.81,2.79.34,1.69-.44,3.56-1.88,4.51-.87.57-1.91.83-2.78,1.4-3.23,2.16-2.34,7.37-4.83,10.35"/>
      <path d="M799.67,441.68c-1.72-.37-2.73-2.09-3.84-3.46-1.73-2.13-4.16-3.68-6.82-4.34-2.01-.5-4.19-.53-5.98-1.57-1.04-.6-1.86-1.49-2.75-2.3-3.08-2.82-6.98-4.74-11.09-5.45-.88-.15-1.8-.26-2.59-.67-.94-.49-1.61-1.36-2.41-2.06-1.82-1.6-4.38-2.32-6.77-1.9-3.53.63-6.93,3.57-10.27,2.28-2.49-.96-4.43-4.15-6.96-3.31-1.18.39-1.91,1.59-3.02,2.15-2.37,1.21-5.38-.85-7.86.12-2.05.8-2.95,3.35-4.94,4.26-1.32.6-2.85.37-4.29.59-1.44.22-3.01,1.29-2.82,2.72l-1.54,1.43c-8.49,3.53-14.63,20.09-13.02,19.86,1.6-.23,11.28-9.26,12.02-10.7,4.65-9.03,14.64-10.77,17.37-10.8,2.46-.03,4.99.42,7.35-.26,1.5-.43,3.4,1.58,4.96,1.67,2.11.11,3.41-.93,5.52-1.05,1.11-.07,1.96,2.01,2.93,1.47,2.55-1.42,6.04-.16,8.69,1.08,2.23,1.04,3.41-1.5,5.72-.64,1.52.57,1.54,3.55,3.14,3.76,2.33.31,3.93.69,5.96,1.86,3.51,2.02,9.18,1.66,12.69,3.68,2.35,1.36,3.42,5.91,5.17,7.98,2.54,3,5.06,4.2,8.55,6,1.8-1.87,2.51-4.72,1.8-7.22-.71-2.5-2.82-4.54-5.33-5.19"/>
      <path d="M803.16,445.43c1.15-2.66-.61-5.65-3.37-6.24-.86-.18-1.98-.09-2.68-.74s-.81-1.68-1.23-2.46c-.71-1.33-1.84-2.39-3.18-3.08s-2.9-.98-4.4-.85c-.98.09-2,.51-2.93,0-.64-.35-1.12-.96-1.53-1.56-.86-1.26-1.44-2.72-2.45-3.88s-2.44-2-3.93-2.42c-1.79-.51-3.68-.42-5.44.16-2,.66-3.91,2.13-6.08,1.98-.8-.06-2.26,1.08-.83,1.18,1.59.12,3.1-.33,4.55-.96,1.61-.7,3.16-1.63,4.97-1.51,1.7.11,3.36.91,4.55,2.13,1.01,1.04,1.6,2.38,2.35,3.61.65,1.06,1.45,2.09,2.68,2.51,1.57.53,3.1-.25,4.68-.06,1.67.2,3.21,1.14,4.26,2.43.94,1.15,1.06,3,2.32,3.86,1.41.97,3.29.4,4.61,1.62s1.62,3,.95,4.54c-.28.64,1.83.41,2.12-.27h0Z"/>
      <path class="cls-34" d="M949.72,871.94c-96.1,2.23-171.29-2.51-173.32-37.94-1.33-23.31.32-50.76,44.12-67.27,1.16-.42,1.85-.67,1.85-.67,22.34-8.17,49.37-14.34,79.92-17.44,93.47-9.47,143.07,5.61,166.33,27.66l.11.06c.11.06.17.2.29.34,9.18,8.72.07,29.63,2.03,39.47,6.61,33.53.82,52.92-121.33,55.79Z"/>
      <path class="cls-18" d="M949.72,873.12c-96.1,2.23-186.59-5.22-189.15-16.5-5.1-22.49,16.15-72.2,59.95-88.71-9.75,3.83-61.79,36.53-27.02,62.96,20.93,15.91,69.76.89,138.17-28.18,89.19-37.9,140.58-21.03,137.34-24.83,9.18,8.72,15.86,64.95,17.82,74.79,6.61,33.53-14.97,17.6-137.12,20.46Z"/>
      <path class="cls-41" d="M818.02,775.83c-7.58-35.17-7.69-72.75-7.69-72.75,0,0-30.04,46.05-43.98,52.31-13.94,6.26-100.69-9.14-100.69-9.14-5.51,6.38-20.18,13.08-34.26,18.41,11.76,8.94,22.16,19.66,31.41,31.79,10.41,13.66,12.11,23.86,20.96,38.55,5.85,9.71,6.74,14.44,22.54,36.4,42.89.18,88.73-.75,100.65-6.38,25.79-12.2,18.65-54.02,11.06-89.2Z"/>
      <path class="cls-8" d="M519.55,857.79c.06.02.12.03.18.03-.02-.15-.04-.3-.06-.46-.04.14-.09.29-.13.43Z"/>
      <path class="cls-8" d="M544.28,766.1c.08,0,.16-.02.23-.05-.09-.17-.18-.34-.27-.51.01.19.03.38.04.56Z"/>
      <path class="cls-39" d="M548.8,724.48c0,5.77,2.83,12.05,7.71,15.24,2.52,1.64,5.44,2.44,8.41,2.71.49.05,1.19-.12,1.58-.42.32-.26.32-.47-.14-.51-4.81-.44-9.23-2.65-11.96-6.71-1.77-2.63-2.8-5.75-3.21-8.88-.09-.67-.16-1.35-.16-2.03,0-.39-2.23-.06-2.23.6h0Z"/>
      <path class="cls-30" d="M791.69,593.8c-5.57,1.57-11.04,3.88-15.46,7.69-3.3,2.84-5.58,6.34-7.45,10.22-4.18,8.71-7.33,18.05-9.91,27.35-1.13,4.06-2.29,8.26-2.57,12.48l.04.05,6.02,3.27c.36.2,1.52-.4,1.37-.49l-4.17-2.26c-.38-.21-1.58-.6-1.82-.99-.2-.32.18-1.72.24-2.14.7-4.81,2.07-9.55,3.47-14.19,1.64-5.42,3.49-10.78,5.59-16.04,1.61-4.06,3.29-8.27,5.69-11.95,4.36-6.68,11.58-10.47,19.07-12.59.83-.23.74-.66-.11-.42h0Z"/>
      <path class="cls-30" d="M655.41,675.64c-.01-5.69-.57-11.41-.95-17.09-.51-7.63-1.06-15.26-1.52-22.9-.16-2.61-.35-5.22-.35-7.83,0-.75-1.47-.53-1.47.11.01,5.69.57,11.41.95,17.09.51,7.63,1.06,15.26,1.52,22.9.16,2.61.35,5.22.35,7.83,0,.75,1.47.53,1.47-.11h0Z"/>
      <g>
        <path class="cls-29" d="M754.84,693.74c-.72-1.7.24-3.9,1.98-4.53,1.73-.63,3.88.44,4.43,2.2.69-1.79,2.21-3.33,4.1-3.68,1.88-.36,4.04.7,4.61,2.53.27.86.48,2.08,1.38,2.06.27,0,.51-.14.75-.25,2.46-1.11,5.74,1.04,5.7,3.74,0,.5-.1,1.02.11,1.47.24.53.83.8,1.21,1.23.88.99.5,2.67-.51,3.54-1,.87-2.41,1.1-3.74,1.12-1.7.03-3.53-.28-4.72-1.49-1.16,1.74-2.84,3.27-4.89,3.67-2.05.4-4.46-.63-5.1-2.62-.19-.6-.32-1.37-.92-1.57-.34-.11-.7.01-1.03.13-1.35.48-2.79.89-4.21.7s-2.84-1.12-3.19-2.52c-.5-2.01,1.24-3.82,2.82-5.16"/>
        <path class="cls-38" d="M754.96,693.7c-.65-1.66.18-3.75,1.89-4.38s3.71.43,4.28,2.11c.04.12.19.11.24,0,1.02-2.55,3.82-4.56,6.56-3.24.54.26,1.02.63,1.39,1.11.4.52.54,1.1.73,1.71s.52,1.46,1.32,1.42c.61-.03,1.15-.46,1.77-.53.58-.06,1.17.03,1.72.23,1.15.41,2.17,1.32,2.6,2.48.38,1.03-.17,2.31.65,3.17.47.49,1.06.77,1.28,1.46.21.65.06,1.38-.26,1.97-.84,1.55-2.86,1.84-4.45,1.84s-3.26-.31-4.44-1.46c-.06-.06-.15-.04-.19.02-1.11,1.63-2.65,3.12-4.63,3.58-1.77.41-3.9-.24-4.85-1.86-.37-.62-.37-1.48-.87-2.02-.58-.61-1.41-.17-2.06.04-2.05.68-4.83,1.04-6.28-.99-1.59-2.23.75-4.59,2.35-5.96.12-.1-.05-.28-.17-.17-1.42,1.21-3.22,2.92-2.91,4.99s2.43,2.98,4.26,2.94c1.26-.03,2.36-.5,3.55-.82,1-.27,1.27.32,1.51,1.11.13.43.28.84.53,1.21.96,1.4,2.8,2.06,4.45,1.86,2.28-.27,4.08-1.97,5.32-3.79l-.19.02c1.04,1.01,2.43,1.41,3.85,1.51s3.03,0,4.28-.77c1-.62,1.69-1.79,1.51-2.99-.07-.47-.29-.88-.62-1.22-.25-.25-.56-.43-.8-.69-.49-.53-.37-1.15-.37-1.8,0-2.3-2.21-4.2-4.46-4.16-.58.01-1.07.18-1.6.4-1.1.45-1.4-.56-1.64-1.39-.35-1.19-1-2.11-2.14-2.66-2.89-1.4-5.84.69-6.92,3.39h.24c-.61-1.81-2.74-2.95-4.58-2.29s-2.76,2.9-2.06,4.68c.06.15.29.08.24-.07h0Z"/>
      </g>
      <g>
        <path class="cls-29" d="M608.92,635.94c-2.17-.89-3.39-3.66-2.48-5.82.91-2.16,3.83-3.23,5.88-2.08.71-1.36,1.43-2.75,2.5-3.86,1.07-1.11,2.54-1.92,4.08-1.84,1.48.08,2.84.99,3.69,2.21.25.35.48.75.85.95.8.44,1.74-.15,2.56-.52,2.61-1.18,6.05.09,7.26,2.68.19.41.34.85.58,1.23.33.53.84.94,1.31,1.35,1.02.89,1.97,1.92,2.39,3.2.42,1.28.18,2.86-.87,3.7-.58.46-1.32.66-2.05.79-1.66.29-3.38.27-5.03-.05-.4-.08-.83-.18-1.22-.06-.66.19-1.02.87-1.44,1.4-.95,1.2-2.57,1.85-4.09,1.63-1.52-.22-2.89-1.28-3.47-2.7-.15-.37-.3-.82-.69-.95-.35-.12-.72.09-1.04.28-1.56.94-3.35,1.66-5.17,1.48-1.82-.18-3.61-1.45-3.92-3.25"/>
        <path class="cls-38" d="M608.99,635.84c-2.09-.9-3.33-3.51-2.43-5.67s3.68-3.1,5.7-2.02c.06.03.14.02.17-.04,1.16-2.22,2.53-4.76,5.13-5.49,1.26-.35,2.54-.07,3.6.67.52.36.96.82,1.32,1.32.26.36.49.78.9,1,.83.45,1.75-.09,2.51-.44.94-.43,1.95-.6,2.98-.46s1.98.54,2.79,1.16c.9.7,1.36,1.57,1.82,2.58.49,1.07,1.45,1.69,2.26,2.5s1.6,1.85,1.82,3.04-.15,2.61-1.28,3.28-2.75.75-4.06.75c-.71,0-1.42-.06-2.13-.17-.5-.08-1.05-.26-1.56-.19-.95.14-1.35,1.12-1.94,1.75-1.73,1.84-4.7,1.75-6.37-.11-.41-.46-.63-.95-.88-1.5-.17-.36-.39-.71-.82-.76s-.81.24-1.15.44c-.66.38-1.34.72-2.06.97-1.35.46-2.84.6-4.18.05-1.23-.5-2.21-1.5-2.47-2.82-.03-.15-.27-.09-.24.07.58,2.91,3.91,3.79,6.44,3.1.72-.2,1.41-.49,2.07-.83.39-.2.82-.57,1.25-.68.8-.2.91.53,1.15,1.04.54,1.14,1.56,2.03,2.76,2.42,1.26.41,2.68.2,3.8-.5.51-.32.93-.74,1.29-1.22.22-.29.42-.61.7-.84.58-.5,1.23-.31,1.91-.19,1.73.3,3.54.31,5.26-.07,1.25-.28,2.29-.95,2.66-2.23s-.02-2.69-.79-3.79c-.96-1.37-2.59-2.2-3.28-3.73-.54-1.2-1.18-2.17-2.32-2.88-1.01-.63-2.22-.97-3.42-.93-.61.02-1.22.15-1.78.38-.78.32-1.76,1.07-2.62.6-.62-.33-.96-1.18-1.45-1.68s-1.13-.94-1.81-1.21c-3.04-1.18-5.65,1.31-7.08,3.73-.26.44-.48.91-.74,1.35-.22.37-.29.2-.64.07-.62-.21-1.28-.26-1.93-.17-1.23.17-2.41.84-3.13,1.87-1.6,2.29-.31,5.63,2.14,6.68.14.06.27-.15.12-.21h0Z"/>
      </g>
      <path class="cls-28" d="M681.22,778.1s68.88,10.21,97.97,4.27c29.1-5.95,42.44-14.75,42.44-14.75l-8.79-64.54,5.34-36.93"/>
      <g>
        <path class="cls-44" d="M692.19,834.16c-2.71-4.98-5.28-11.31-11.83-20.96-15.23-22.46-35.44-50.38-35.44-50.38l-21.36,12.03s7.54,32.27,17.77,55.43c3.66,8.29,7.66,15.43,11.79,19.47,15.66,15.35,48.08,1,39.07-15.59Z"/>
        <path class="cls-44" d="M736.5,803.17c-2.67-5.13-8.32-11.04-15.19-16.96-19.16-16.54-47.83-33.16-47.83-33.16l-17.74,16.92s20.81,27.48,37.85,48.6c7.32,9.07,9.08,9.94,13.06,13.98,13.24,13.46,39.96-9.92,29.85-29.37Z"/>
        <path class="cls-44" d="M628.6,680.77c.4,1.92,1.26,3.69,2.52,5.19,7.9,9.41,29.44,61.64,32.12,63.93,7.18,6.15,29.79-14.16,21.91-27.25-4.59-7.63-19.59-41.32-38.21-54.11-8.83-6.06-20.53,1.75-18.34,12.24h0Z"/>
        <path class="cls-11" d="M553.96,774.38c-12.9-9.91-11.84-20.13-8.13-29.12,3.7-8.99,44.36-94.43,44.36-94.43l43.37-3.17s22.74,55.01,28.03,63.47c5.29,8.46,30.71,41.86,29.65,43.97-1.06,2.12-28.29,31.39-77.48,31.39s-55.94-9.14-59.8-12.1Z"/>
        <path class="cls-44" d="M623.65,573.47c-15.29,9.98-45.36,22.89-62.29,29.06-3.16,23.75,6.41,52.38,47.86,55.07,41.31,2.67,54.12-28.54,49.93-56.72-17.01-4.61-20.41-17.65-35.5-27.42Z"/>
        <path class="cls-46" d="M645.69,569.7c-2.97-3.45-7.33-6.54-12.53-8.88-12.4-5.6-29.67-6.94-44.96,1.2-6.42,3.42-12.49,8.5-17.7,15.66-4.34,5.97-7.84,15-9.15,24.87,15.85,7.92,46.79-12.74,62.08-22.72,15.09,9.77,18.7,16.46,35.71,21.07-1.76-11.85-6.53-23.16-13.45-31.19Z"/>
        <path d="M583.23,573.37c8.15-6.93,9.11-5.67.17.22-.13.1-.3-.1-.17-.22h0Z"/>
        <path d="M625.06,565.84c2.09,1.7,5.03,4.2,7.13,5.94.06.05.07.14.02.2-.04.05-.12.06-.18.03-2.63-1.67-5.04-3.68-7.15-5.96-.11-.12.06-.31.19-.2h0Z"/>
        <ellipse cx="634.87" cy="613.32" rx="4.77" ry="5.34" transform="translate(-67.63 78.79) rotate(-6.74)"/>
        <path d="M594.23,613.89c.35,2.93,2.75,5.06,5.36,4.75,2.62-.31,4.46-2.94,4.11-5.87-.35-2.93-2.75-5.06-5.36-4.75-2.62.31-4.46,2.94-4.11,5.87Z"/>
        <path class="cls-21" d="M579.23,624.56c.35,2.93,2.75,5.06,5.36,4.75,2.62-.31,4.46-2.94,4.11-5.87-.35-2.93-2.75-5.06-5.36-4.75-2.62.31-4.46,2.94-4.11,5.87Z"/>
        <path class="cls-21" d="M641.26,625.3c.35,2.93,2.75,5.06,5.36,4.75,2.62-.31,4.46-2.94,4.11-5.87-.35-2.93-2.75-5.06-5.36-4.75-2.62.31-4.46,2.94-4.11,5.87Z"/>
        <path class="cls-4" d="M596.24,631.21c.04.13,6.38,8.9,23.54,8.27,14.49-.53,16.83-10.15,16.83-10.15"/>
        <g class="cls-26">
          <polyline class="cls-2" points="656.45 666.51 652.93 674.84 641.37 659.2 630.38 677.06 619.89 665.28 606.59 679.04 596.65 661.51 583.33 675.49"/>
          <polyline class="cls-2" points="583.33 695.15 592.33 711.13 607.03 692.17 620.87 710.02 631.86 692.17 643.41 707.81 651 689.88"/>
          <polyline class="cls-2" points="571.93 730.01 580.93 745.99 595.63 727.03 609.47 744.89 620.46 727.03 638.78 742.67 646.37 724.74 663.99 736.38 668.41 722.18"/>
          <polygon class="cls-2" points="606.13 706.86 598.05 716.71 606.13 725.93 613.49 716.39 606.13 706.86"/>
          <polygon class="cls-2" points="581.5 708.71 573.41 718.56 581.5 727.78 588.85 718.25 581.5 708.71"/>
          <polygon class="cls-2" points="633.69 705.67 625.61 715.52 633.69 724.74 641.05 715.2 633.69 705.67"/>
          <polygon class="cls-2" points="654.88 701.71 648.92 712.98 658.68 720.4 663.99 709.59 654.88 701.71"/>
          <polygon class="cls-2" points="620.76 675.49 612.67 685.34 620.76 694.56 628.11 685.02 620.76 675.49"/>
          <polygon class="cls-2" points="596.12 677.34 588.04 687.19 596.12 696.41 603.48 686.88 596.12 677.34"/>
          <polygon class="cls-2" points="639.47 672.96 633.51 684.23 643.27 691.65 648.58 680.84 639.47 672.96"/>
          <path class="cls-2" d="M541.27,745.71s24.72,21.53,69.08,18.01c44.37-3.52,72.5-25.58,72.5-25.58"/>
          <path class="cls-2" d="M543.62,754.16s24.35,18.03,68.72,14.52c44.37-3.52,72.5-25.58,72.5-25.58"/>
          <path class="cls-2" d="M541.9,760.01s27.18,18.6,71.55,15.08c44.37-3.52,75.2-28.29,75.2-28.29"/>
        </g>
        <path class="cls-44" d="M590.09,674.06c.15,1.95-.17,3.9-.96,5.69-4.93,11.25-10.92,67.43-12.85,70.38-5.16,7.92-38.59-1.72-34.71-16.5,2.26-8.61,14.59-42.06,28.86-59.57,6.77-8.3,18.81-10.68,19.65,0h0Z"/>
      </g>
      <path class="cls-13" d="M804.55,666.16c-18.27-1.52-33.03-7.22-33.03-7.22-2.85-1.4-5.62-2.96-8.45-4.4l-29.07,65.08c2.16,1.28,7.21,10.42,9,12.16,7.74,7.55-7.07,27.85,10.04,19.99,4.75-2.18,12.47,2.35,18.43,1.74,12.66-6.23,42.23-76.81,46.25-86.38-4.4-.17-8.79-.6-13.18-.97Z"/>
      <path class="cls-13" d="M770.88,752.43c-5.31-9.42-11.85-18.37-19.78-25.76-4.74-4.42-6.32-10.61-12.76-12.39l-4.31,2.49c-12.1,2.52-65.16,29.77-78.52,33.56.48.94.96,1.89,1.4,2.85,3.38,7.34,5.59,15.18,6.08,23.27.28,4.66-4.41-3.49-5.19,1.1,1.76-1.35,6.38,2.64,8.14.95,26.17-1.76,85.26-14.74,105.55-24.99-.2-.36-.4-.72-.6-1.08Z"/>
      <g>
        <path class="cls-19" d="M83.4,609.53s-23.22-7.56-39.43,17.88"/>
        <path class="cls-14" d="M84.28,608.72c-3.02-.98-6.43-1.17-9.57-1.07-7.32.24-14.46,2.65-20.39,6.97-4.71,3.44-8.56,7.84-11.7,12.74-.74,1.15,2.17.92,2.71.09,4.69-7.3,11.17-13.69,19.54-16.51,4.73-1.59,9.99-2.02,14.8-1.24.96.16,1.93.34,2.86.64s3.39-1.08,1.76-1.61h0Z"/>
      </g>
      <path class="cls-42" d="M233.91,660.12c-157.13-7.75-217.37-168.42-217.37-168.42,0,0,6.72-10.85,15.12-24.74,17.48,26.97,62.87,135.1,199.89,162.87,0,0,65.59-.61,109.73-21.35,55.82-26.24,91.27-66.42,84.74-66.81l7.86,36.29s-55.94,89.27-199.96,82.17Z"/>
      <path class="cls-13" d="M596.17,763.89c6.52,1.51,15.31,3.4,16.29,2.82.98-.58,8.15-3.42,14.43-5.87,3.26-1.1,5.01-4.64,3.91-7.9-.29-.85-16.72.35-17-7.13l13.56-3.93c4.57-.64,9.21-.69,13.8-.16,5.66,1.01,20.67,9.19,20.67,9.19l17.14-5.4,7.68,31.02-17.86,2.13-15.01,9.53s-30.88,11.01-35.47,9.64c-4.59-1.37-11.75-9.2-11.75-9.2-6.28-.79-9.47-8.92-9.47-8.92-9.93-4.7-3.93-8.26-3.93-8.26-.37-.08-.72-.26-.99-.53-3.01-2.85.11-7.95,3.99-7.01Z"/>
      <path class="cls-24" d="M629.33,770.92c-1.45,1.28-3.08,2.34-4.84,3.14-4.03,2.36-8.56,3.75-13.23,4.05-4.67-.13-9.22-1.48-13.2-3.93-1.72-.8-3.3-1.87-4.69-3.17,1.8.55,3.53,1.29,5.16,2.21,3.94,2.05,8.29,3.2,12.73,3.36,4.47-.31,8.84-1.5,12.86-3.51,1.65-.91,3.4-1.63,5.22-2.16Z"/>
      <path class="cls-24" d="M630.23,778.92c-1.14,1.38-2.61,2.45-4.27,3.12-1.69.89-3.45,1.65-5.25,2.27-2.23.87-4.62,1.27-7.01,1.18-2.3-.32-4.57-.9-6.74-1.74l-5.22-1.92c-1.66-.47-3.25-1.19-4.7-2.13,1.73.12,3.43.5,5.04,1.12,1.52.42,3.33.97,5.33,1.61,2.09.73,4.25,1.26,6.44,1.57,2.22.12,4.45-.19,6.55-.92,1.77-.54,3.5-1.17,5.2-1.89,2.91-1.24,4.6-2.26,4.62-2.27Z"/>
      <path class="cls-24" d="M630.58,788.5c.22.57-5.29,2.56-12.04,4.5-.94.25-1.93.25-2.87,0-.8-.15-1.6-.36-2.38-.62-1.31-.4-2.59-.92-3.8-1.57-2.08-1.11-3.12-2.17-2.99-2.32s1.33.56,3.43,1.36c1.21.48,2.45.89,3.71,1.23.74.21,1.5.37,2.26.49.72.18,1.47.18,2.18,0,3.43-1.03,6.51-1.78,8.77-2.35,1.21-.38,2.46-.63,3.72-.74Z"/>
      <path class="cls-36" d="M405.73,616.45c.04.1.1.2.18.28.19-.2.37-.4.56-.61-.24.11-.49.22-.73.32Z"/>
      <path class="cls-20" d="M456.05,599.74l-.41-.05c.14.02.27.04.41.05Z"/>
      <path class="cls-20" d="M308.12,615.22c.43.1.88.13,1.32.09-.43-.12-.88-.15-1.32-.09Z"/>
      <g class="cls-40">
        <path d="M389.74,754.73h0c-.33-.02-.65-.08-.97-.16.32.09.64.14.97.16Z"/>
      </g>
      <g class="cls-40">
        <path d="M274.43,757.02c-.31.1-.64.17-.96.2h0c.33-.03.65-.1.96-.2Z"/>
      </g>
      <path class="cls-24" d="M259.63,658.38c3.14,13.93,8.33,27.25,12.5,40.88.16.52,1.6.12,1.45-.39-4.17-13.63-9.36-26.95-12.5-40.88-.12-.51-1.57-.15-1.45.39h0Z"/>
      <path class="cls-22" d="M216.01,673.19c3.33-.21,3.5.16,6.74-.54,0,0,12.98-13.84,26.86-15,13.87-1.16,28.15,7.42,35.87,5.62,8.74-2.04,26.25.54,29.08,4.17,4.6,5.9-2.43,13.01-16.09,12.25-8.89-.43-17.8-.1-26.63.99,0,0,66.7,54.14,69.93,59.43s6.55,10.72,2.7,14.18-15.72-7.96-15.72-7.96l-5.74.31c-1.84.1-3.69-.22-5.39-.94l-17.11-7.24c-10.59.93-25.46.11-35.9-1.91-14.32-3.32-39.91-21.91-39.91-21.91l-19.3-2.75c.16-1.97,9.78-33.89,10.62-38.69Z"/>
      <path class="cls-37" d="M329.07,745.24c-3.34-2.82-7.08-5.21-10.7-7.65-4.47-3.01-8.97-5.98-13.35-9.12-1.77-1.27-3.55-2.56-5.18-4.03-.4-.37-2.14.35-1.78.67,3.24,2.93,6.98,5.34,10.58,7.79,4.46,3.03,8.96,5.99,13.38,9.08,1.79,1.25,3.59,2.52,5.26,3.93.42.36,2.14-.37,1.78-.67h0Z"/>
      <path class="cls-37" d="M308.67,740.63c-7.19-4.17-14.37-8.34-21.56-12.51-1.03-.6-2.06-1.19-3.09-1.79-.46-.27-1.99.51-1.79.63,7.19,4.17,14.37,8.34,21.56,12.51,1.03.6,2.06,1.19,3.09,1.79.46.27,1.99-.51,1.79-.63h0Z"/>
      <path class="cls-24" d="M736.39,715.56c6.58-.69,13.2,3.38,15.76,9.44.15.36,1.57-.11,1.45-.39-2.71-6.41-9.7-10.38-16.59-9.66-.23.02-.86.1-.97.35s.08.28.35.25h0Z"/>
      <polygon class="cls-29" points="491.17 241.41 398.93 315.59 548.89 317.44 491.17 241.41"/>
      <ellipse class="cls-29" cx="653.57" cy="255.5" rx="206.15" ry="165.56"/>
      <ellipse class="cls-1" cx="691.9" cy="232.17" rx="206.15" ry="165.56"/>
      <path class="cls-22" d="M711.46,344.96c1.48-.12,11.61-.04,12.96-.67,4.9-2.3,7.35-5.09,8.4-9.49.34-1.83,1.84-9.45,1.57-11.26-.52-3.53.07-1.18,3.25-2.8l4.08-2.07c1.57-.8,2.93-2.02,3.73-3.6,1.65-3.26,2.8-6.75,3.41-10.36.73-6.18-7.76-15.76-7.76-15.76l4.64-1.54c5-2.74,6.39-5,6.56-10.7l-.02-2.7c-.43-2.66-1.27-5.22-2.47-7.6-1.91-3.79-.78-8.36,2.62-10.9,2.85-2.13,5.53-4.79,5.87-7.4.27-10.22-5.4-19.64-14.48-24.21-.59-.3-1.22-.52-1.86-.69-17.18-4.6-34.64-8.05-52.28-10.34-1.23-.15-20.21-7.51-21.27-8.01-8.62,4.75-.25,13.8-10.38,13.94-9.36.13-18.68-1.06-28.03-1.47-3.02-.13-5.88,1.42-7.53,3.95-.01.02-.02.03-.03.05-.47.72-1.04,1.36-1.7,1.91l-44,36.68c-2.6,2.17-17.71.44-17.71,3.82-.03,36.97,9.13,79.48,8.04,79.56-1.22.09,27.74-7.93,36.96-2.97,0,0,60.19,8.46,107.45,4.62Z"/>
      <path class="cls-22" d="M680.76,219.38c-1.07-1.74-8.82-11.79-8.83-13.98,0-.61.05-1.22.14-1.83,2.97-16.89,3.38-34.12,1.21-51.13-3.36-18.28-13.76-22.79-20.62-23.81-2.91-.41-5.61,1.61-6.02,4.53-.04.3-.06.61-.05.92.62,11.94.49,23.9-.39,35.82-.93,5.96-14.14,34.12-22.39,51.34,17.25-1.33,42.49,7.54,56.96-1.85Z"/>
      <path class="cls-47" d="M647.16,259.92c10.87,5.68,18.47,16.16,20.53,28.25.13.77,2.07.29,1.93-.52-2.09-12.29-9.9-22.98-20.94-28.75-.64-.34-2.38.56-1.51,1.02h0Z"/>
      <path class="cls-47" d="M745.07,256.83c-1.92.37-4.13.09-6.07.08-1.38,0-2.76-.03-4.14-.05-4.3-.05-8.59-.09-12.89-.16-7.8-.13-15.6-.33-23.4-.5-6.21-.13-12.47.01-18.64-.9-4.26-.63-8.25-2.86-11.08-6.09-3.34-3.82-3.66-8.95-1.38-13.39,4.75-9.27,16.46-9.96,25.59-10.06,4.43-.05,8.85-.11,13.28-.18,6.93-.12,13.87-.23,20.81-.22.5,0,1,0,1.51,0,.11,0,.21,0,.32,0,.16,0,1.03.09.89-.03.66.59,2.33-.38,1.48-1.14-.65-.58-2.13-.29-2.98-.3-1.21,0-2.43,0-3.64,0s-2.53.03-3.79.04c-4.54.06-9.08.11-13.62.17-3.82.05-7.65.15-11.47.19-8.64.1-18.28-.03-25.42,5.58-3.45,2.71-6.2,6.8-6.43,11.3s2.16,8.57,5.73,11.42c7.35,5.86,17.64,4.8,26.46,5.01,8.23.2,16.47.35,24.71.53,6.96.15,13.93.22,20.9.23,1.22,0,2.44.06,3.64-.17s.84-1.59-.37-1.36h0Z"/>
      <path class="cls-47" d="M738.77,287.21c-1.81.26-3.66.03-5.48-.06l-5.62-.29c-4.51-.24-9.01-.65-13.5-1.11-7.43-.75-14.81-1.83-22.21-2.77s-15.11-2.25-18.96-9.02c-1.69-2.97-2.31-6.67-1.32-9.97.52-1.75,1.55-3.36,2.88-4.6.7-.65,1.49-1.2,2.34-1.63.43-.22.87-.41,1.33-.56.28-.09.57-.17.86-.25.6.04.76-.01.48-.16.61.46,2.34-.41,1.51-1.04-.96-.73-3.1.21-4.04.58-1.56.62-2.99,1.54-4.19,2.71-2.31,2.24-3.58,5.34-3.58,8.54,0,7.29,5.48,12.74,12.14,14.81,4.03,1.25,8.34,1.63,12.5,2.24s8.51,1.17,12.78,1.67c6.17.72,12.38,1.41,18.59,1.75,2.15.12,4.3.22,6.45.34,2.26.12,4.61.43,6.85.11,1.01-.14,1.53-1.47.21-1.28h0Z"/>
      <path class="cls-47" d="M729.64,315.92c-2.71,0-5.45-.54-8.13-.93-1.73-.25-3.46-.48-5.19-.75-3.64-.57-7.27-1.22-10.91-1.82l-16.39-2.74c-1.47-.24-2.93-.5-4.4-.73-3.78-.61-7.82-1.05-11.38-2.53-5.11-2.13-9.27-7.2-7.52-12.97s8.57-9.94,14.75-8.93c.43.07.97-.04,1.35-.25.13-.07.69-.42.24-.49-4.77-.78-10.1.8-13.88,3.77s-5.98,8.19-4.01,12.91c3.16,7.58,12.99,8.26,19.96,9.42l29.95,5c1.5.25,3.01.45,4.51.67,3.22.46,6.54,1.16,9.8,1.16.37,0,1.1-.06,1.36-.37.18-.21.37-.41-.11-.41h0Z"/>
      <path class="cls-47" d="M716.15,341.87c-5-1.5-9.66-3.82-14.4-5.96s-9.78-4.48-14.65-6.74c-2.62-1.22-5.24-2.44-7.86-3.67-3.51-1.64-7.71-3.19-9.67-6.78-1.42-2.6-1.49-5.8.74-7.98,1.07-1.04,2.43-1.79,3.91-1.99.83-.11,1.74-.1,2.55.1.13.03.81.19.85.31.17.52,2.09-.04,1.93-.52-.15-.44-1.17-.59-1.51-.67-1.13-.23-2.35-.22-3.49-.05-2.34.35-4.66,1.42-6.27,3.17-1.86,2.03-2.1,4.81-1.05,7.29,1.1,2.61,3.28,4.23,5.68,5.6,2.81,1.61,5.91,2.84,8.85,4.21,4.84,2.27,9.69,4.51,14.55,6.73,5.99,2.74,11.95,5.83,18.27,7.73.48.14,2.2-.62,1.57-.8h0Z"/>
      <path class="cls-47" d="M600.2,333.64c-6.27-4.4-11.48-10.35-13.87-17.73s-1.63-14.83,1.05-21.83c.2-.52-1.7-.3-1.92.28-2.71,7.05-3.41,14.81-1.06,22.06s7.67,13.49,14,17.93c.51.35,2.23-.41,1.8-.72h0Z"/>
    </g>
  </g>
</svg>