<?xml version="1.0" encoding="UTF-8"?>
<svg xmlns="http://www.w3.org/2000/svg" viewBox="0 0 1334 1000">
  <defs>
    <style>
      .cls-1 {
        stroke: #848484;
        stroke-miterlimit: 10;
      }

      .cls-1, .cls-2 {
        fill: #fff;
      }

      .cls-3, .cls-4 {
        fill: #f5c84e;
      }

      .cls-4 {
        opacity: .26;
      }

      .cls-5 {
        isolation: isolate;
        opacity: .1;
      }

      .cls-6 {
        fill: #4a3027;
      }

      .cls-7 {
        fill: #5e513f;
        opacity: .47;
      }

      .cls-8 {
        fill: #a39072;
      }

      .cls-9 {
        opacity: .6;
      }

      .cls-10 {
        opacity: .2;
      }

      .cls-11 {
        fill: #283237;
      }

      .cls-12 {
        fill: #8e6e59;
      }

      .cls-13 {
        fill: #af6b4e;
      }
    </style>
  </defs>
  <g id="Layer_8" data-name="Layer 8">
    <polyline class="cls-8" points="1376.41 1120.55 1376.41 -105.52 -62.91 -105.52 -62.91 1120.55"/>
  </g>
  <g id="Layer_12" data-name="Layer 12">
    <path class="cls-7" d="M1267.7,437.29c-5-3.14-11.21-3.23-16.81-1.39-12.27,4.03-34.57,3.71-70.84,12.34-43.51,10.35-60.84,16.45-61.26,14.42-.42-2.02,15.94-9.83,59.58-20.85,23.69-6.97,51.36-21.21,76.4-26.57,7.8-1.67,14.71-6.67,18.06-13.9,4.96-10.74,1.33-21.92-13.92-21.53-34.84.92-151.31,42.16-158.07,45.1,3.29-1.86,34.34-19.47,56.36-32.61,23.28-13.9,82.93-34.77,73.43-48.99-9.49-14.21-56.56-.92-87.84,9.53-35.28,11.52-138.14,45.29-138.14,45.29,21.17-20.48,41.18-42.15,59.9-64.89,22.36-30.58,4.45-47.89,4.45-47.89,0,0-124.86,86.96-146.5,110.8-16.45,18.17-40.34,45.97-41.38,59.93l-46.47,14.41-403.5,21.09c-.84.48-486.07-4.83-487.14-4.53-85.52,24.09,9.95,186.16,3.28,266.77,135.73,57.89,850.11-129.94,979.76-167.53,6.11-.43,11.45-.47,15.6.05,39.22,26.6,253.23-46.36,277.76-53.11,24.89-6.86,32.85-18.86,25.98-25.34-11.99-11.32-112.64,11.43-116.47,3.57-3.83-7.86,119.23-36.65,137.95-54.88,9.63-9.38,5.81-15.53-.18-19.29Z"/>
    <path class="cls-13" d="M-62.91,349.61c1.07-.3,181.38-9.16,182.23-9.65l500.97-26.19,16.9,123.22S116.01,614.14-34.57,549.93c6.66-80.62-113.87-176.22-28.35-200.31Z"/>
  </g>
  <g id="Layer_13" data-name="Layer 13">
    <rect class="cls-12" x="-49.06" y="841.51" width="1453.62" height="189.77"/>
    <path class="cls-13" d="M934.55,356.28c-11.99-11.32-112.64,11.43-116.47,3.57-3.83-7.86,119.23-36.65,137.95-54.88,9.63-9.38,5.81-15.53-.18-19.29-5-3.14-11.21-3.23-16.81-1.39-12.27,4.03-34.57,3.71-70.84,12.34-43.51,10.35-60.84,16.45-61.26,14.42-.42-2.02,15.94-9.83,59.58-20.85,23.69-6.97,51.36-21.21,76.4-26.57,7.8-1.67,14.71-6.67,18.06-13.9,4.96-10.74,1.33-21.92-13.92-21.53-36.18.96-160.37,45.39-158.37,45.27,0,0,33.39-18.89,56.67-32.78,23.28-13.9,82.93-34.77,73.43-48.99-9.49-14.21-56.56-.92-87.84,9.53-35.28,11.52-138.14,45.29-138.14,45.29,21.17-20.48,41.18-42.15,59.9-64.88,22.36-30.58,4.45-47.89,4.45-47.89,0,0-124.86,86.96-146.5,110.8-16.45,18.17-40.34,45.97-41.38,59.93l-99.33,30.8c3.37,8.2,46.2,133.44,51.93,139.09,0,0,79.72-43.25,108.93-39.62,39.22,26.6,253.23-46.36,277.76-53.11,24.89-6.86,32.85-18.86,25.98-25.34Z"/>
    <path class="cls-6" d="M595.4,359.41c.86,10.69-.52,18.67,9.41,38.85,9.94,20.19,23.63,32.67,24.82,31.4,0,0-23.08-9.29-29.78-31.73-6.69-22.44-4.45-38.52-4.45-38.52Z"/>
    <path class="cls-6" d="M698.34,281.22s11.18,51.73-17.86,96.78c0,0,20.48-20.72,24.47-46.95,3.98-26.23-6.61-49.83-6.61-49.83Z"/>
  </g>
  <g id="Layer_15" data-name="Layer 15">
    <g>
      <circle class="cls-4" cx="460.26" cy="437.98" r="82.65"/>
      <circle class="cls-4" cx="460.26" cy="390.62" r="148.78"/>
      <path class="cls-3" d="M487.54,480.24c0,32.68-25.5,36.47-25.5,36.47,0,0-25.5-3.79-25.5-36.42s25.5-78.12,25.5-78.12c0,0,25.5,46.98,25.5,78.07Z"/>
      <path class="cls-5" d="M479.56,491.62c0,22.46-17.53,25.09-17.53,25.09,0,0-17.53-2.53-17.53-25.04s17.53-53.69,17.53-53.69c0,0,17.53,32.26,17.53,53.64Z"/>
      <path class="cls-1" d="M516.72,800.36c0,4.46-3.62,8.08-8.08,8.08h-93.2c-4.46,0-8.08-3.62-8.08-8.08,0-4.46,3.62-8.08,8.08-8.08h3.33v-269.18h86.53v269.18h3.33c4.46.01,8.07,3.63,8.08,8.08Z"/>
      <g class="cls-10">
        <path d="M427.85,523.1c.82,73.68.82,156.36,0,230.04-.83-73.68-.82-156.36,0-230.04h0Z"/>
        <path d="M479.32,523.1c.82,73.68.83,156.36,0,230.04-.83-73.68-.82-156.36,0-230.04h0Z"/>
        <path d="M444.26,523.1c.83,54.01.82,114.05,0,168.09-.82-54.05-.83-114.07,0-168.09Z"/>
        <path d="M496.21,523.1c.85,54.01.82,114.05,0,168.09-.81-54.05-.83-114.07,0-168.09Z"/>
        <path d="M436.29,523.1c.83,40.92.82,86.39,0,127.33-.82-40.94-.85-86.42,0-127.33h0Z"/>
        <path d="M472.48,523.1c.85,40.92.82,86.39,0,127.33-.81-40.94-.83-86.42,0-127.33h0Z"/>
      </g>
      <path class="cls-1" d="M511.5,523.84v49.5c.07,4.46-3.39,8.18-7.84,8.43-4.47.13-8.2-3.38-8.33-7.85,0-.08,0-.15,0-.23v26.09c.06,4.13-2.94,7.67-7.02,8.29-4.43.59-8.49-2.53-9.08-6.95-.05-.35-.07-.71-.07-1.07v-46.94c.07-4.46-3.4-8.18-7.86-8.43-4.46-.13-8.18,3.39-8.31,7.85,0,.08,0,.15,0,.23v2.53c0,4.46-3.62,8.08-8.08,8.08s-8.08-3.62-8.08-8.08v-12.77c.07-4.46-3.4-8.18-7.86-8.43-4.46-.13-8.18,3.39-8.31,7.85,0,.08,0,.15,0,.23v31.58c0,4.47-3.63,8.09-8.11,8.09-.08,0-.15,0-.23,0-4.45-.25-7.91-3.97-7.84-8.43v-49.57c.02-3.94,3.21-7.12,7.15-7.14h82.68c3.96-.01,7.19,3.18,7.21,7.14Z"/>
      <g class="cls-9">
        <path class="cls-2" d="M418.77,529.41c-4.08,4.21-1.5,16.27,3.79,15.9,4.31-.3,6.9-5.05,7.43-8.24s-.52-7.58-3.63-8.84c-2.55-1.05-5.48-.6-7.59,1.17Z"/>
        <path class="cls-2" d="M424.14,522.91c.39,2.26,4.72,3.03,6.45,1.38,1.73-1.65.39-4.98-1.36-5.44-1.76-.47-5.43,2.02-5.09,4.07Z"/>
      </g>
      <path class="cls-11" d="M593.55,804.72s-9.9,43.61-16.67,43.61h-228.23c-6.79,0-16.66-43.61-16.66-43.61h261.57Z"/>
    </g>
  </g>
</svg>