<?xml version="1.0" encoding="UTF-8"?>
<svg xmlns="http://www.w3.org/2000/svg" viewBox="0 0 1334 1000">
  <defs>
    <style>
      .cls-1 {
        fill: #815639;
      }

      .cls-2 {
        stroke: #000;
        stroke-miterlimit: 10;
        stroke-width: .15px;
      }

      .cls-3 {
        fill: #b8e0ee;
      }

      .cls-4 {
        fill: #f7ad1a;
      }

      .cls-5 {
        fill: #542c23;
      }

      .cls-6 {
        fill: #24170e;
      }

      .cls-7 {
        fill: #1b1312;
      }

      .cls-8 {
        fill: #cd8c2a;
      }

      .cls-9 {
        fill: #0d3a59;
      }

      .cls-10 {
        fill: #6b3825;
      }

      .cls-11 {
        fill: #131429;
      }

      .cls-12 {
        fill: #fff;
      }

      .cls-13 {
        fill: #141211;
      }

      .cls-14 {
        fill: #a4a4a4;
      }

      .cls-15 {
        fill: #3f261b;
      }

      .cls-16 {
        fill: #f0edf6;
      }

      .cls-17 {
        fill: #af6b4e;
      }

      .cls-18 {
        fill: #efebf5;
      }

      .cls-19 {
        fill: #4f2e25;
      }
    </style>
  </defs>
  <g id="Layer_3" data-name="Layer 3">
    <path class="cls-3" d="M1310.35,1031.28H-25.16c-6.6,0-12-5.41-12-12.03V-16.76c0-6.62,5.4-12.03,12-12.03h1335.5c6.6,0,32,5.41,32,12.03V1019.25c0,6.62-25.4,12.03-32,12.03Z"/>
  </g>
  <g id="Layer_5" data-name="Layer 5">
    <path class="cls-17" d="M543.46,608.56c10.27-7.1,19.73-15.37,27.79-24.71,6.59,30.97,12.48,59.11,17.17,74.38,4.06,12.57,8.05,27.34,12,43.35-15.09,2.42-30.17,4.86-45.24,7.36-7.94,1.32-13.9,19.52-21.84,20.88-23.7-13.01-25.38-82.18-33.99-98.49-.16-.3-.31-.61-.47-.91,15.91-5.06,31.03-12.5,44.58-21.86Z"/>
    <path class="cls-17" d="M824,698.57c-9.62-6.65-18.48-14.39-26.03-23.14-6.17,29.01-11.69,55.37-16.09,69.68-3.8,11.78-7.54,25.61-11.24,40.61,14.13,2.27,28.26,4.55,42.38,6.9,7.44,1.24-2.89,33.5,4.55,34.77,32.8-20.35,39.68-92.19,47.75-107.47.15-.28.29-.57.44-.85-14.91-4.74-29.07-11.71-41.76-20.48Z"/>
    <g>
      <path d="M1030.68,439.54c2.83-8.12,17.53-11.7,19.68-20.05.52-2.03-1.11-3.79-2.78-4.01,1.1-3.03,2.65-6.66,4.6-9.56,4.1-6.11,16.16-10.36,16.16-10.36,0,0-2.01-13.48,3.74-15,5.75-1.52,18.03-.41,18.03-.41,0,0,9.78-8.23,19.55-.02,0,0,9.29-.05,11.18,12.29.41,2.67.48,5.92.03,9.88,0,0,4.55.1,11.17,7.8,2.86,3.32,5.91,14.17,3.54,23.2l.2,2.01c-3.12,11.88-8.66,19.16-18.3,20.06-.03.11-6.22,23.53-28.86,21.92-19.66-1.4-25.24-11.35-25.24-11.35,0,0-9.05,4.77-13.77,3.47-4.95-1.37-8.61-5.44-10.76-10.26,1.42-4.96-9.47-14.62-8.17-19.62Z"/>
      <path d="M1030.86,439.52c1.5-4.13,5.55-6.77,9.01-9.15,3.23-2.22,6.81-4.42,9.12-7.67,1.03-1.45,2.19-3.58,1.34-5.36-.46-.95-1.18-1.26-1.99-1.81-.39-.26-.33.11-.45-.44-.04-.2.38-1.01.49-1.29.31-.79.64-1.57.98-2.35,1.13-2.54,2.42-5.19,4.36-7.23,1.61-1.69,3.55-3.04,5.54-4.24,2.83-1.7,6.06-3.25,9.09-4.32.07-.02.17-.07.16-.16-.58-3.92-.89-8.92.99-12.53,1.54-2.95,5.24-2.87,8.18-3.02,3.29-.16,6.59-.06,9.87.14,1.06.06,2.22.45,3.05-.17,2.23-1.65,4.94-2.81,7.7-3.18,2.13-.29,4.31-.09,6.33.63,1.18.42,2.31,1,3.35,1.71.51.34,1.07.99,1.63,1.17.31.1.75.06,1.08.11.83.14,1.64.39,2.41.72,7.99,3.44,8.38,13.85,7.58,21.23,0,.07.06.1.12.1,2.38.07,4.88,1.95,6.62,3.37,1.99,1.61,4.09,3.53,5.39,5.76,1.18,2.02,1.91,4.33,2.45,6.6.7,2.95,1.04,6,.96,9.04-.04,1.38-.16,2.76-.4,4.12-.17,1-.46,1.82-.36,2.82.24,2.34-.88,4.78-1.72,6.94-.89,2.27-1.98,4.47-3.37,6.47-3.06,4.4-7.52,7.17-12.88,7.71-.08,0-.19.05-.21.14-1.63,6.24-5.65,12.39-10.64,16.41s-10.91,5.69-17.1,5.42c-6.89-.3-14.09-1.93-19.96-5.68-2.23-1.42-4.7-3.31-6.04-5.67-.04-.07-.2-.04-.25-.02-2.15,1.13-4.45,2.07-6.78,2.78-1.8.55-3.73,1.01-5.63.87-2.15-.16-4.26-1.31-5.94-2.59-1.84-1.4-3.35-3.2-4.54-5.17-.53-.87-1.3-1.91-1.3-2.94,0-.57.06-1.07-.06-1.65-.58-3-2.69-5.73-4.32-8.24-1.07-1.64-2.16-3.29-3-5.06-.63-1.33-1.21-2.85-.87-4.33.04-.16-.34-.11-.38.04-.49,2.14.8,4.39,1.83,6.18,1.5,2.6,3.3,5.01,4.77,7.63.65,1.15,1.27,2.37,1.56,3.67.12.53.18,1.07.12,1.61-.09.76.19,1.21.55,1.91,1.64,3.14,4.02,5.98,7.14,7.72,2.62,1.46,5.15,1.73,8.06,1.11,2.64-.56,5.19-1.57,7.62-2.71.32-.15.69-.28.99-.48.38-.26.26.01.08-.18.12.13.21.32.31.47.66.95,1.48,1.81,2.33,2.6,3.63,3.35,8.28,5.46,13.01,6.74,6.46,1.74,13.68,2.5,20.14.4,8.44-2.75,14.48-9.99,17.69-18.04.31-.77.46-1.87.9-2.57.26-.42.46-.19,1.1-.29,1.35-.21,2.67-.56,3.93-1.07,5.79-2.33,9.36-7.72,11.54-13.34.66-1.7,1.31-3.47,1.7-5.25.22-1-.19-1.98.05-2.99.91-3.93.88-8.06.24-12.03-.52-3.21-1.39-6.56-3.06-9.38-1.69-2.84-4.61-5.37-7.38-7.15-.9-.58-1.85-1.09-2.85-1.47-.49-.18-1.2-.21-1.64-.45-.05-.03-.24.01-.28-.03.03.03.24-1.22.25-1.35.06-.68.1-1.37.13-2.05.08-1.91.04-3.83-.21-5.72-.66-5.14-3.04-10.35-8.15-12.33-.64-.25-1.3-.44-1.98-.56-.36-.07-.83-.02-1.16-.14-.3-.1-.53-.38-.8-.59-.93-.72-1.96-1.33-3.03-1.81-1.56-.71-3.25-1.13-4.96-1.22-2.83-.15-5.65.58-8.16,1.86-.81.41-1.6.88-2.33,1.4-.17.12-.33.28-.51.38-.24.15.31,0,0-.01-2.04-.02-4.09-.28-6.13-.34-3.11-.09-6.26-.1-9.35.3-2.03.26-3.9.61-5.08,2.42-1.26,1.94-1.54,4.47-1.64,6.72-.08,1.93,0,3.87.23,5.79.02.19.06.39.07.58.01.24.27-.14.06-.02-.48.28-1.12.42-1.63.63-5.01,2.04-10.65,4.73-14.06,9.09-2.34,2.99-3.82,6.75-5.11,10.28-.02.05.04.09.08.09,2.21.42,3.22,2.47,2.52,4.53-.45,1.32-1.23,2.51-2.14,3.56-1.83,2.11-4.16,3.75-6.45,5.33-4.03,2.79-9.14,5.68-10.92,10.55-.05.15.32.1.38-.04Z"/>
    </g>
    <path class="cls-2" d="M890.38,409.78c14.52-11.52,16.54-31.16,13.92-48.46-2.5-16.57,8.8-42.65-11.31-40.92-.2.02,1.69-4.13,2.6-7.78.67,1.04,1.36,2.06,2.11,3.04,1.43,1.87,4.72-.12,3.54-2.2-2.05-3.62-3.89-7.37-5.42-11.24-2.59-6.57-4.3-13.65-4.22-20.74.08-6.4,1.59-12.64,4.5-18.29,43.8-64.79,102.16-53.37,137.08-50.14,69.65,6.43,106.87,75.93,88.34,147.22-19,73.07-67.54,97.83-137.47,98.71-29.88.38-70.75-22.6-94.27-48.74.2-.15.4-.3.6-.45Z"/>
    <path class="cls-12" d="M835.1,719.81c18.56,1.81,2.24-3.67,19.22,3.99,4.62,2.08,9.36,3.94,14.18,5.55,28.47-59.94,51.38-214.97,51.38-214.97-5.8,1.38-71.84,16.18-89.54,58.03-10.41,24.61-33.12,70-42.21,114.91,2.59,3.25,22.68,30.12,46.97,32.5Z"/>
    <path class="cls-12" d="M842.13,618.18c1.15-55.48,14.98-74.23,14.98-74.23,15.33-6.74,43.88-22.99,62.41-29.89,2.73-1.02,11.72-6.01,12.07-5.45,9.14,14.99,26.21,32.93,45.7,34.97,6.99.73,2.88-14.46,9.41-14.66,22.31-.69,49.76-12.68,63.11-29.57l17.25,7.56,66.54,25.68-10.37,329.46,1.11,2.56c-36.42,14.08-73.05,27.78-110.84,37.72-44.18,11.62-90.62,18.35-136.13,11.24-10.41-1.63-26.42.44-36.46-2.69,2.43-11.06,12.55-56.97,12.34-68.65-1.19-64.43-4.49-66.74-6.7-69.37"/>
    <path class="cls-17" d="M1044.79,404.92s-13.07,53.16.6,89.42c1.91,5.06,5.51,4.5,5.51,4.5l-20.33,23.63c-4.66,5.25-21.2,21.02-39.28,27.89-33.24,12.64-41.18,2.21-50.12-.2-7.38-1.99-11.98-16.54-11.98-27.5l1.73-13.81s5.06-.03,6.41-6.25c1.35-6.22-3.19-53.42-3.19-53.42"/>
    <path class="cls-12" d="M852.13,842.07s-27.93,146.61-36.92,170.23c0,0,152.04,21.36,265.23,4.98,113.2-16.37,87.33-17.28,87.33-17.28l-44-139.89-3.4-48.35-246.42,19.5"/>
    <path class="cls-17" d="M1216.73,732.24c-4.39,2.16-8.9,4.06-13.4,5.85-6.64,2.64-13.38,4.98-20.14,7.22-3.96,1.32-7.91,2.61-11.96,3.57-6.73,1.6-13.58,2.54-20.45,3.06-8.51.64-17.03.62-25.55.52l14.75,68.66,8.26,261.71,61.65,8.97c15.57-168.09,21.14-215.74,20.51-267.17-.17-13.95-5.93-50.83-13.68-92.39Z"/>
    <path class="cls-14" d="M835.7,616.37c1.88,3.87,2.95,8.27,3.67,12.48s1.05,8.76.7,13.11c-.15,1.91-.59,3.8-1.02,5.66-1.43,6.19-3.18,12.31-4.71,18.48-2.09,8.43-3.93,16.94-5.22,25.53s-1.99,17.69-1.99,26.61l2.34-1.16c-2.48-.43-4.94-1.1-7.32-1.91-4.03-1.36-8.39-3.2-11.14-6.58-.61-.74-3.39.26-2.7,1.12,2.84,3.49,7.37,5.43,11.52,6.83,2.55.86,5.19,1.61,7.85,2.07.74.13,2.34-.19,2.34-1.16,0-16.79,2.73-33.3,6.68-49.58,1.56-6.44,3.35-12.83,4.91-19.27.49-2.04.99-4.09,1.26-6.18.48-3.72.26-7.63-.17-11.34-.61-5.22-1.78-10.75-4.1-15.52-.47-.96-3.29-.04-2.9.78h0Z"/>
    <path class="cls-17" d="M269.08,246.31s11.71,64.38.36,101.93c-1.82,6.02-31.68,22.23-31.68,22.23l8.85,9.28c7.64,8.01,22.09,14.37,32.47,18.22,51.66,19.16,123.85,21.95,146.08-10.16l-14.24-23.14-10.47-5.35c-1.83-7.19,5.1-70.76,5.1-70.76"/>
    <path class="cls-12" d="M406.62,382.89c-2.48,9.15-8.15,22.19-26,24.88-26.67,4.01-53.66,3.05-86.3-21.83,0,0-22.9-20.28-26.35-35.26l-19.7,8.63c-12.44,5.49-35.89,14.95-59.1,25.76-24.68,8.88-67.26,30.83-84.07,69.83-15.39,42.72-24.49,116.24-32.63,188.34,20.22,7.55,32.78,15.56,54.62,16.82,1.19.07,3.2,3.1,4.67,3.19-5.71,42.88-14.72,127.11-17.25,148.57-6.59,55.81-18.29,135.19-13.76,170.93,4.53,35.74,209.02,54.27,284.55,46.17,75.53-8.09,137.46-12.19,144.36-33.46,1.11-3.42.27-67.09-2.3-75.32-3.45-39.1-.79-49.36-5.29-98.75l4.76-180.93c3.08,3,21.38,2.25,31.6.45,15.56-2.74,31.87-10.2,37.32-14.2-15.75-56.31-31.95-129.52-47.04-171.46-16.43-45.68-82.91-65.73-120.66-83.02l-21.8-10.22s-2.97-1.68-2.37.4"/>
    <path class="cls-1" d="M266.49,272.64c0,.14.03.25.04.38-.06-.16-.08-.3-.04-.38Z"/>
    <path class="cls-17" d="M359.75,348.24l43.79-2.54,21.8-5.42c2.23,0,12.48-22.67,13.94-25.55,4.52-8.94,10.71-20.97,13.41-30.64,2.89-10.36,8.33-21.34,9.64-33.76.96-9.1.4-13.21-4.77-27.9-1.31-3.73-1.43-7.48-.58-11.53,1.8-8.54,2.31-18.5,4.47-29.95.17-.9,1.13-5.25.76-6.22,0,0-2.09-47.56-11.01-64.38-8.93-16.82-18.74-24.36-31.3-27.33-12.57-2.97-49.41,0-49.41,0l-51.12-6.3-42.91,22.28-20.97,53.06,4.36,61.02,7.59,54.44"/>
    <path class="cls-19" d="M381.77,332.64c-.35.23-23.48-2.27-23.93-2.3l-12.01-5.41s-.06-.04-.07-.05c-1.07.44-2.35.53-3.79.06-7.51-2.43-14.09-6.46-20.43-11.08-5.7-4.15-12.41-16.97-18.9-19.85-3.07-1.36-2.02-2.32-4.63-4.22.25.67.18,4.73.43,5.4,11.95,14.85,27.44,43.82,52.13,54.09,1.2.29,4.99,1.29,15.08,1.95,13.22.87,21.93,1.28,34.8-.7.07-9.32-.75-20.34-.82-29.66-4.74,0-4.71,3.09-17.85,11.77Z"/>
    <path d="M351.46,201.69c-2.81-1.45-6.09-.19-7.92,1.44-.43.38-1.59,1.48-2.13,3.32-.69,2.36.26,5.03,1.74,6.65,1.98,2.17,5.27,2.53,7.8,1.35,3.43-1.6,4.53-5.73,3.68-8.73-.16-.55-.9-2.86-3.16-4.03"/>
    <path d="M436.45,203.18c2.8-1.46,6.08-.21,7.92,1.42.43.38,1.6,1.47,2.14,3.32.7,2.36-.24,5.03-1.72,6.65-1.97,2.17-5.26,2.55-7.79,1.37-3.43-1.59-4.55-5.72-3.7-8.72.16-.55.89-2.86,3.15-4.04"/>
    <path d="M419.07,213.83s11.28-11.31,19.54-12.08c12.06-1.13,15.16,1.59,19.44,7.11,0,0-7.91-5.76-16.38-4.74-8.1.98-22.6,9.71-22.6,9.71Z"/>
    <path d="M379.9,210.96s-16.92-10.64-25.22-10.85c-12.11-.3-26.52,6.87-30.41,12.67,0,0,19-10.54,27.53-10.1,8.15.42,28.1,8.27,28.1,8.27Z"/>
    <path d="M382.55,172.12c1.57.76,1,1.97.99,4.86,0,.92.02,2.34.05,3.84.05,2.79-2.67,4.82-5.32,3.95-4.75-1.57-8.98-3.21-12.26-3.79-8.88-1.57-17.97-3.8-26.95-2.4-4.3.67-8.07,1.78-11.66,4.01-1.13.7-4.19,3.74-5.88,2.96-.69-.32.44-3.86.56-4.23,2.33-7.15,8.39-10.12,15.8-11.83,15.11-3.48,29.31.69,44.68,2.63"/>
    <path d="M463.55,173.98s-4.51-1.01-4.55-1.02c-9.74-2.23-19.43-2.18-29.13-.87-4.92.66-8.48,5.06-8.24,10.02,0,.03,0,.06,0,.09.05.98-.36,4,.28,4.77.12.15.31.24.49.31,1.97.8,4.19.78,6.26.32,2.57-.57,4.86-1.88,7.39-2.54,7.26-1.91,14.9-4.02,22.38-2.97.59.08,3.79.6,4.36.71,2.18-4.08,1.82-8.24.76-8.82Z"/>
    <g>
      <path d="M409.8,261.17c-3.54,1.9-8.94,1.47-12.51-.79-.79-.5-3.43-.01-2.32.69,4.72,2.98,12.47,3.24,17.03.79.45-.25.37-.6-.2-.79-.59-.2-1.53-.16-2.01.1"/>
      <path d="M393.43,260.04c-2.38-1.15-5.05-1.75-7.72-1.96-.39-.03-.89.12-1.18.38-.22.21-.27.48.02.65,1.23.72,2.8,1.02,4.23.99.45,0,1.05-.12,1.31-.52.24-.37-.2-.61-.56-.6-1.19.02-2.4-.21-3.42-.81-.39.35-.77.69-1.16,1.04,2.38.18,4.77.75,6.89,1.77.42.21,1.03.07,1.41-.16.28-.17.59-.57.16-.78"/>
      <path d="M382.86,260.39c-3.12-.07-6.78-1.46-8.32-3.85-2.32-3.62-.17-9.23,3.71-11.55.42-.25.2-.58-.23-.67-.56-.12-1.22.09-1.66.35-3.39,2.02-5.58,6.61-5.06,10.01.48,3.17,3.47,5.39,7.2,6.3,1.11.27,2.29.45,3.46.48.47,0,1.32-.14,1.55-.51.23-.38-.2-.55-.64-.56"/>
      <path d="M415.51,259.54c-.17-.37.14-.61.39-.6.84.02,1.7-.22,2.42-.82.28.34.55.69.83,1.03-1.68.19-3.37.76-4.88,1.79-.3.21-.73.07-1-.16-.2-.17-.42-.57-.12-.78"/>
      <path d="M413.15,260.01c1.68-1.15,3.57-1.76,5.46-1.98.28-.03.63.12.84.38.16.21.19.48-.01.65"/>
      <path d="M421.98,259.96c2.03-.08,4.41-1.47,5.4-3.87,1.5-3.62.09-7.93-2.44-10.24-.28-.25-.13-.58.15-.67.36-.12.79.09,1.08.35,2.21,2.01,3.64,5.29,3.32,8.69-.31,3.18-2.24,5.4-4.66,6.32-.72.27-1.49.46-2.25.49-.31.01-.86-.13-1.01-.51-.15-.38.13-.55.42-.56"/>
    </g>
    <path class="cls-10" d="M399.69,283.32c-13.91-.02-36.46-1.65-36.46-1.65,0,0,4.34,35.79,36.6,35.84,32.26.05,29.81-34.89,29.81-34.89,0,0-16.04.72-29.95.7Z"/>
    <path class="cls-6" d="M399.83,283.32c-6.61-.01-33.28-1.14-33.28-1.14,0,0,9.36,23.9,33.28,23.94,25.94.04,28.06-23.5,28.06-23.5l-28.07.7Z"/>
    <path class="cls-16" d="M397.98,282.61c-7.14-.01-28.86-1.13-28.86-1.13,0,0,7.98,8.73,29.4,8.77,21.42.03,28.06-8.47,28.06-8.47l-28.59.84Z"/>
    <path class="cls-10" d="M430.57,280.15c-.68-.17-1.75-.05-4.93-.33-5.29-.47-6.77-1.09-10.61-1.39-6.54-.52-10.7,2.07-13.54,2.07-2.84,0-6.99-2.61-13.54-2.11-3.83.29-13.32,1.68-18.61,2.12-3.17.27-6.89-.98-7.57-.81-.94.23.88,7.21,36.63,7.26,35.75.06,33.11-6.58,32.17-6.81Z"/>
    <path class="cls-11" d="M513.63,967.42c.24,0,.34-.31.04-.31-.24,0-.34.31-.04.31h0Z"/>
    <path class="cls-14" d="M534.31,508.49c0,14.42-.11,28.84-.62,43.24-.3,8.51-.75,17.02-1.55,25.51-.53,5.6-1.24,11.18-2,16.76s-1.48,11.25-2.01,16.9c-.8,8.55-1.25,17.13-1.55,25.71-.05,1.4-.09,2.79-.14,4.19,0,.23.05.4.29.5,3.44,1.32,7.34,1.74,10.97,2,9.97.71,20.04-.87,29.61-3.57,8.37-2.36,16.84-5.07,24.53-9.21,1.61-.87,3.19-1.82,4.64-2.94.45-.35,1.35-.92,1.37-1.55s-.41-1.55-.57-2.18c-.42-1.61-.85-3.22-1.27-4.82-.64-2.42-1.27-4.83-1.91-7.25-.19-.72-1.62-.33-2.01-.18-7.15,2.86-14.66,5-22.16,6.72-10.74,2.45-22.14,3.86-33.17,3.14-1.49-.1-3.05-.2-4.5-.58-.89-.24-3.4,1.1-1.79,1.53,1.3.35,2.7.44,4.03.56,4.16.36,8.37.26,12.53.01,12.81-.76,25.34-3.28,37.55-7.21,2.9-.93,5.8-1.9,8.62-3.03l-2.01-.18c1.18,4.48,2.36,8.95,3.54,13.43.03.12.09.67.19.74.14.1.03-.45.27-.47-.11.01-.41.39-.5.47-1.03.89-1.77,1.34-3.06,2.1-6.24,3.69-13.29,6.08-20.19,8.19-9.79,3-19.85,5.16-30.14,4.82-3.08-.1-6.15-.42-9.17-1.06-1.23-.26-2.16-.48-3.1-.84l.29.5c.28-9.17.69-18.34,1.48-27.49.5-5.85,1.2-11.67,1.98-17.48.74-5.49,1.48-10.97,2.04-16.48.81-8.02,1.29-16.08,1.62-24.13.55-13.44.7-26.9.75-40.35,0-2.26.01-4.51.01-6.77,0-.85-2.9-.32-2.9.78h0Z"/>
    <path d="M239.77,215.11s-12.04-24.61-14.35-76.87c-1.77-39.97,53.62-77.13,91.6-84.28,20.88-3.93,91.39,2.43,109.83,10.23,18.43,7.8,28.75,31.63,32.08,66.16,0,0-12.28-33.99-34.58-32.44-18.19,1.26-77.21-5.69-92.38,1.26-15.16,6.95-37.9,14.52-37.53,68.84.1,14.81-26.66,20.15-33.7,29.31-7.04,9.16-20.96,17.8-20.96,17.8Z"/>
    <path d="M282.17,207.83c.37,4.61.77,22.93,1.41,27.42l-24.15.16c-7.7-15.62-16.94-34-19.82-38.16-4.5-6.51-6.05-38.61-6.64-50.69l-.13-2.61c-.59-11.59,10.12-30.29,28.66-50.03,20.4-21.73,57.3-34.72,93.99-33.1,3.49.16,6.97.44,10.35.84,31.93,3.82,58.78,18.83,79.79,44.61,15.15,18.59,16.71,40.23,15.85,53.47-1.59-26.05-11.35-44.17-11.77-44.93-9.25-17.51-20.54-22.3-28.39-23.24-6.85-.82-11.92,1.12-12.92,1.55-7.69,1.92-19.04,1.16-27.23.17-6.1-.73-10.96-1.64-12.28-1.9-4.18-2.71-10.38-4.62-17.96-5.52-17.61-2.11-42.94,1.6-47.98,9.36-5.59,8.61-17.87,39.08-17.77,46.12"/>
    <path class="cls-17" d="M272.98,273.61c-13.24,19.8-23.9-13.07-23.9-13.07-13.91-16.47-14.03-34.12-13.61-46.19.41-12.07,13.69-11.99,13.69-11.99,11.28,1.15,16.37,7.16,26.06,45.13"/>
    <path class="cls-5" d="M256.58,231c-1.91.57-3.47,1.64-4.31,3.5-.79,1.76-.92,3.78-.81,5.68.06,1.06.3,2.07.43,3.12.22,1.67.22,3.29.64,4.95.38,1.5.92,2.97,1.6,4.36,1.16,2.36,4.64,8.19,8.06,5.65,1.06-.79.8-2.36.6-3.48-.36-1.99-1.02-3.91-1.53-5.86-.38-1.46-1.24-3.92-.37-5.35.28-.46.23-.4.73-.36.32.03.64.08.96.12.89.1,1.77.19,2.66.29.17.02,1.43-.15,1.32-.46-1.95-5.49-3.78-11.01-6.4-16.23-1.67-3.35-3.61-6.71-6.23-9.42-.97-1-2.15-2.09-3.52-2.53-1.25-.4-2,.46-2.67,1.4-3.22,4.53-3.74,10.51-3.08,15.87.03.23,1.49-.05,1.45-.39-.53-4.29-.3-8.75,1.41-12.78.6-1.41,1.38-2.95,2.5-4.03l-1.25.34c1.18.14,2.54,1.38,3.41,2.21,3.89,3.76,6.38,9.02,8.48,13.91,1.69,3.94,3.03,8,4.46,12.04l1.32-.46c-1.87-.2-6.06-1.4-7.09.98-.56,1.3-.07,3.05.23,4.35.43,1.82,1.02,3.6,1.46,5.41.36,1.46.62,2.79.18,4.23-.04.13-.19.24-.29.32.37-.31.26.03-.02-.14-.31-.19-.69-.28-1.01-.48-.93-.6-1.7-1.45-2.37-2.33-1.62-2.12-2.77-4.62-3.47-7.2-.53-1.97-.5-3.96-.86-5.93-.65-3.5-.83-9.63,3.47-10.9.82-.24.74-.63-.1-.38h0Z"/>
    <path class="cls-17" d="M420.46,324.14c-.3-.04-.59-.13-.84-.29-4.71-3-5.1-4.73-7.4-5.24-.53-.11-.8-.3-2.44-.5-6.59-.8-10.6-1.41-28.02,10.08-.35.23-23.48-2.27-23.93-2.3l-12.01-5.41c-2.01-1.19-47.34-37.97-47.34-37.97-.7-1.24-8.93-10.03-9.27-11.23-.14-.07-.28-.15-.43-.2-.05-.02-.17-.07-.29-.11-.02.08-.04.18-.06.24-.07.51-.05,1.05-.02,1.57.14,2.25.68-12.37,1.4-10.23,1.1,3.29,1.89,7.68,2.85,10.99.34,1.17,4.34,17.49,4.78,18.62,5.14,3.07,32.86,46.49,55.67,53.22,1.2.29,2.44.73,12.52,1.39,18.93,1.24,39.3,1.94,57.8-3.8,4.83-1.5,8.68-5.03,10.54-9.57,5.33-12.95,14.97-42.81,17.64-62.06-4.95,11.22-15.38,35.25-22.57,51.61-.22.5-7.39,1.02-7.98,1.21"/>
    <path class="cls-15" d="M936.29,478.41c-.06-9.38-.65-8-.84-17.61-.02-.81-.13-1.56-.28-2.27,28.16-.28,67.85-13.58,91.61-14.16-.89.68-2.1,19.61-15.23,31.45-21.09,19.01-36.86,22.12-57.17,23.54l-10.21-.23s-6.34.2-6.47-.72l.12-20.01h-1.52Z"/>
    <g>
      <path class="cls-17" d="M1049.77,410.66c.67-10.8-1.71-13.17,2.07-23.34,2.86-7.71,14.92-20.67,20.55-26.65,4.54-2.34,10.6.26,13.97,3.86l.61,1.35c5.3,9.42.74,30.74-12.96,43.67-3.05,14.46-20.11,15.09-26.95,9.21.05-2.62,2.54-5.47,2.7-8.09Z"/>
      <path class="cls-17" d="M883.23,399.14c.66-6.27,6.25-16.31,5.77-22.32-.55-6.94-5.19-39.11.88-60.29,2.56-8.94,5.15-16.33,7.43-22.17.26-.21.49-.49.64-.88.5-1.32,1.19-2.85,1.79-3.94,6.55-11.81,19.97-18.33,32.46-22.38,7.04-2.28,12.46-15.72,19.77-16.81,4.33-.64,10.72,10.77,15.14,10.48-.19.42-.18.57.21.3,0,.2,1.18-.08,2.44-.45,1.28-.06,2.54-.1,3.78-.13-.03.08-.07.16-.11.24-.08.53-.49,1.56-.91,1.57,2.84,1.26,6.13.35,8.94-1.43-.93.88-1.4,1.76-1.86,2.2,2.36-.03,4.24.38,6.58-1.39,0,.43-.92,1.75-1.39,1.76,2.37.83,5.19.36,7.53-.97,0,.43-.93,1.31-1.39,1.75,1.88.41,3.77.38,5.64-.95l-1.39,1.76c1.88-.03,3.31.82,6.12-.09,0,.43-.93.88-.93,1.31,1.42-.02,3.3-.05,4.71-.5,0,.43-1.4,1.32-.93,1.32,1.67-.02,2.99.64,4.9.15.13.06.26.12.39.17-.35.45-.69,1.02-1.04,1.35,1.31-.02,2.61.16,3.92-.02.43.21.86.43,1.28.64-.15.23-.31.45-.47.61.73-.01,1.4.11,2.07.21.67.35,1.33.71,1.99,1.08.13.07.25.15.38.22-.06.06-.13.12-.18.17.16,0,.32,0,.48,0,14.02,8.02,25.88,19.32,35.75,31.95,7.39,9.45,13.73,19.69,19.01,30.45.1,2.45.07,4.59,0,6.25-.07,1.55-.67,3.96-1.58,6.83-4.15,4.72-7.58,9.97-10.27,15.69-5.39,11.46-7.6,24.24-8.04,36.82-.31,8.98-3.66,8.8-2.61,17.73l-5.74,15.7-7.6,17.6c-21.33,24.68-47.65,40.05-68.82,43.22-6.97,1.04-21.48.81-30.24.55-5.95-.18-11.86-1.61-16.91-4.76-25.77-16.06-40.77-60.27-37.57-90.6Z"/>
    </g>
    <path class="cls-5" d="M1064.25,393.51c1.95-5.02,4.12-10.01,6.93-14.62,1.46-2.38,3.1-4.77,5.18-6.65.53-.48,1.1-.94,1.72-1.32.22-.13.47-.26.56-.3.21-.1.38-.15.34-.14.73-.25-.44.18-.34-.13-.04.13,1.01,1.49,1.1,1.65,2.32,4.27,2.45,9.37,1.62,14.05-.09.5,1.36.26,1.44-.2.81-4.59.73-9.55-1.39-13.8-.5-1-1.05-2.58-2.36-2.29-3.53.76-6.28,4.68-8.13,7.44-3.42,5.1-5.91,10.81-8.12,16.51-.16.42,1.27.25,1.44-.2h0Z"/>
    <path class="cls-5" d="M1063.23,394.07c1.42-.08,3.42-.03,3.78,1.7.27,1.32-.33,2.79-.73,4.02-.85,2.6-2.38,6.26-.12,8.58,2.54,2.62,6.09-1.46,7.27-3.52,1.88-3.28,2.7-7.11,2.21-10.85-.47-3.66-1.58-8.92-5.51-10.37-.4-.15-1.48.45-1.37.49,3.45,1.27,4.63,5.57,5.21,8.82.58,3.27.44,6.22-.71,9.42-.74,2.04-1.84,4.21-3.54,5.61-.53.43-.96.76-1.61.4s-1.13-1.11-1.38-1.78c-1.03-2.77.74-5.95,1.45-8.59.29-1.07.65-2.48-.07-3.46-.9-1.23-2.91-1.12-4.24-1.04-.38.02-1.58.62-.63.56h0Z"/>
    <path class="cls-13" d="M909.23,362.06c-2.6-1.61-5.81-1.99-7.7-.53-.44.34-1.64,1.33-2.28,3.1-.83,2.25-.1,4.93,1.21,6.61,1.75,2.25,4.9,2.84,7.42,1.86,3.41-1.33,4.77-5.28,4.15-8.27-.12-.55-.7-1.47-2.8-2.77"/>
    <path class="cls-13" d="M987.08,363.82c2.8-1.23,5.88.22,7.53,1.93.39.4,1.44,1.55,1.83,3.38.51,2.35-.58,4.89-2.12,6.38-2.05,1.98-5.25,2.13-7.6.81-3.19-1.79-3.99-5.89-2.96-8.77.19-.53,1.06-2.73,3.32-3.73"/>
    <path class="cls-13" d="M961.61,371.83s14.98-9.46,22.31-9.67c13.22-.37,24.89,8.01,28.31,13.21,0,0-18.24-11.28-25.77-10.9-7.2.36-24.85,7.36-24.85,7.36Z"/>
    <g>
      <path d="M928.74,414.29c2.95,1.66,7.54,1.47,10.64-.24.69-.38,2.91.1,1.95.64-4.09,2.27-10.68,2.24-14.48.1-.38-.21-.3-.5.19-.64.51-.15,1.3-.08,1.7.15"/>
      <path d="M942.66,413.89c2.05-.86,4.34-1.26,6.6-1.34.33-.01.76.13.99.35.18.17.22.4-.04.53-1.06.55-2.4.74-3.62.67-.38-.02-.89-.13-1.09-.47-.19-.31.19-.49.49-.47,1.01.06,2.04-.1,2.92-.55.32.29.64.58.96.88-2.03.07-4.07.45-5.9,1.22-.37.15-.88.02-1.19-.18-.23-.15-.48-.48-.11-.64"/>
      <path d="M951.62,414.51c2.65.04,5.8-.97,7.17-2.86,2.07-2.86.42-7.87-2.82-9.88-.35-.22-.15-.48.22-.54.48-.08,1.03.11,1.4.34,2.82,1.75,4.54,5.93,4.01,8.67-.5,2.56-3.1,4.26-6.29,4.89-.95.18-1.96.3-2.95.28-.4,0-1.12-.15-1.3-.47-.19-.32.18-.44.56-.43"/>
      <path d="M923.94,412.79c.15-.29-.1-.5-.31-.5-.71,0-1.44-.23-2.03-.74-.24.27-.49.54-.73.81,1.42.21,2.84.72,4.09,1.61.25.18.62.08.85-.1.18-.13.37-.45.12-.63"/>
      <path d="M925.93,413.24c-1.4-.99-2.98-1.54-4.57-1.78-.23-.03-.54.08-.72.28-.14.16-.18.38,0,.53"/>
      <path d="M918.44,412.93c-1.72-.13-3.7-1.34-4.47-3.32-1.17-2.99.15-6.44,2.37-8.23.24-.2.13-.47-.11-.55-.31-.11-.68.05-.93.25-1.93,1.57-3.24,4.18-3.06,6.95.17,2.59,1.75,4.45,3.78,5.28.6.24,1.25.42,1.89.47.26.02.73-.08.87-.38.14-.31-.09-.45-.34-.47"/>
    </g>
    <path class="cls-13" d="M922.54,371.34s-12.57-10.98-19.23-11.99c-9.72-1.47-13.19,2.1-16.9,6.77,0,0,7.49-6.06,14.32-4.82,6.52,1.18,21.81,10.04,21.81,10.04Z"/>
    <path class="cls-10" d="M931.81,431.9c14,.06,41.35-1.45,41.35-1.45,0,0,0,34.43-36.12,32.87-32.42-1.41-29.42-32.64-29.42-32.64,0,0,10.19,1.17,24.18,1.23Z"/>
    <path class="cls-7" d="M931.68,431.9c6.65.03,38.15-.92,38.15-.92,0,0-5.48,22.62-34.45,22.37-25.28-.22-23.47-22.29-23.47-22.29l19.76.83Z"/>
    <path class="cls-18" d="M931.38,432.95c6.65.08,6.67.39,31.57-.95,0,0-7.33,7.62-27.29,7.54-19.96-.09-27.08-7.51-27.08-7.51l22.8.92Z"/>
    <path class="cls-10" d="M906.18,430.97c.71-.18.83.01,4.81-2.23,1.41-.79,2.75-1.95,6.75-2.25,6.82-.52,11.13,2.32,14.09,2.34,2.96.01,7.3-2.79,14.12-2.21,3.99.34,15.31,2.01,20.81,2.53,3.3.31,7.18-1.02,7.89-.83.98.26-.96,7.83-38.2,7.67-37.24-.17-31.25-4.76-30.27-5Z"/>
    <ellipse class="cls-8" cx="1060.36" cy="423.36" rx="8.12" ry="8.4" transform="translate(-53.34 171.83) rotate(-9.04)"/>
    <path d="M964.2,339.82c20.51-2.23,27.9-.94,42.17,3.41,5.49,1.67,9.38,4.43,11.7,9.76.35.79,1.79,5.42.39,5.88-1.57.52-3.87-3.58-4.81-4.45-3.4-3.13-7.53-3.85-11.77-4.44-7.8-1.07-16.51-1.33-24.32-1.12-3.94.11-8.51,1.35-14.71,2.13-1.08-.77-.59-4.89-.21-7.05.5-2.84.09-.42.59-3.25,0,0-.24-.74.97-.88Z"/>
    <path d="M886,341.79c-.15-1.02-.3-2.37-.31-3.22,0-.61.03-1.23.1-1.84,10.94-1.29,18.67-.76,35.29,3.81,1.14.31.8,1.01.8,1.01.05,2.87.03.41.08,3.3.03,2.2-.12,6.34-1.27,6.94-5.84-1.72-10.04-3.64-13.8-4.34-6.46-1.21-13.61-2.16-20.37-2.47-.17-1.06-.35-2.12-.51-3.19Z"/>
    <path d="M1118.15,322.71c-12.24-18.25-25.93-35.97-43.72-48.88-16.66-12.1-36.22-19.48-55.68-26.21-13.09-4.53-26.38-8.85-40.15-10.43-13.76-1.58-28.18-.28-40.53,5.99-10.31,5.23-18.96,13.75-29.98,17.24-1.3.41-2.74.74-4,.23-1.49-.6-3.57,2.76-4.1,1.25-3.06-8.61,1-20.59,7.53-26.98,6.53-6.39,16.62-8.56,25-8.56,2.09-8.06,10.69-12.92,18.38-16.08,7.7-3.17,19.06-2.95,26.22,1.3,1.47.87-1.68.32,0,0,1.08-.21,1.97-.96,2.81-1.67,5.2-4.33,11.15-7.99,17.77-9.38,6.62-1.39,13.99-.26,19.19,4.06,1.74,1.45,3.26,3.25,5.33,4.17,4.45,2,9.45-.69,14.21-1.78,7.11-1.62,15,.68,20.11,5.89,1.5,1.52,2.9,3.35,4.95,3.92,1.35.37,2.78.14,4.15-.14,4.26-.88,6.22-.05,10.29,1.49,11.45,4.33,15.76,8.68,16.45,18.04.08,1.02,1.83,1.89,2.51,2.65.74.83,1.96.99,3.06,1.04,6.29.3,9.11,4.77,14.07,8.65,5.06,3.95,9.51,20.77,9.45,27.19-.06,5.86-.11-2.96-3.66,1.7,0,0,5.2-3.4,9.93,1.48,4.74,4.88,13.55,22.69,8.65,38.73-4.89,16.04-7.28,15.21-7.28,15.21,0,0,.79,21.79.39,29.3-.4,7.51-11.56,21.83-25.55,22.82,0,0,7.61-.15,8.35,4.51.74,4.66,2.07,5.2-3.07,5.62-5.15.42,8.89-72.39,8.89-72.39Z"/>
    <path d="M1076.67,342.87c-5.49,10.09-10.98,20.18-16.46,30.27-2.95,5.42-3.87,15.2-8.06,10.67-2.34-2.53-3.32-10.98-2.27-14.25,3.18-9.88,6.28-27.92,9.45-37.8-9.95-.37-24.05-12.29-27.61-21.58-3.56-9.29-1.52-13.26-1.19-23.21-4.45,6.09-13.97,6.26-20.46,2.43-6.49-3.83-10.66-10.53-14.58-16.97-3.04,6.55-18.36,6.13-24.84,2.95-6.48-3.18-7.5-3.81-10.38-10.42-2.88-6.61-2.69-8.49-3.1-14.79-.94,9.72-9.33,17.97-13.16,19.56-9.02,3.74-21.05,5.48-28.52-.8,2.09,4.82-.33,10.64-4.34,14.04-4,3.39-9.25,4.88-14.34,6.15-1.05.26-2.17.51-3.18.13-2.73-1.04-2.04-5.08-.7-7.68,13.34-26.03,41.64-43.68,70.88-44.23,26.9-.5,52.21,12.23,75.01,26.52,15.51,9.72,31.49,21.66,36.6,39.23"/>
    <path d="M1046.58,319.92c-3.19,3.24-3.63,8.4-2.46,12.8.77,2.9,2.18,5.67,4.32,7.76,2.14,2.1,5.06,3.47,8.06,3.46.49,0,1.01-.06,1.37-.38.27-.25.4-.61.51-.96,1.93-5.91,2.98-12.1,3.09-18.32.02-.98,0-2.01-.48-2.87-1.46-2.64-5.76-1.73-7.98-3.77"/>
    <path class="cls-14" d="M265.03,352.34c2.14,5.22,5.41,10.12,8.74,14.62,8.11,10.95,18.49,20.2,30.22,27.12,17.54,10.35,37.78,15.23,58.04,15.88,15.27.49,35.09-1.83,42.37-17.54,4.29-9.25,3.02-19.82,1.1-29.49-.16-.8-.32-1.6-.47-2.4l-2.58,1.17c3.6,1.7,7.21,3.41,10.81,5.11l2.57,1.22c.2.1.48.3.71.33.64.1-.84.1-.12-.3,0,0,.25.62.27.66,1.44,3.7,2.38,7.63,2.9,11.56.85,6.37.5,13.04-1.74,19.1-2.97,8.01-9.11,14.19-16.6,18.15-12.48,6.6-27.3,8.1-41.19,8.32s-28.17-1.59-41.58-5.86c-10.96-3.49-21.35-8.64-30.77-15.24-7.72-5.41-14.75-11.77-20.95-18.86-4.59-5.24-8.75-10.88-12.36-16.85-1.86-3.08-3.13-5.9-4.78-8.97-.07-.13-.13-.28-.18-.42l-.84,1.13c6.16-2.69,12.33-5.39,18.49-8.08.49-.21,1.12-.8.72-1.35s-1.44-.36-1.95-.14c-6.16,2.69-12.33,5.39-18.49,8.08-.34.15-1.04.65-.84,1.13.96,2.33,2.18,4.57,3.41,6.77,3.13,5.59,6.77,10.9,10.77,15.89,5.74,7.15,12.28,13.64,19.47,19.31,8.87,7,18.75,12.64,29.26,16.78,12.81,5.04,26.48,7.74,40.21,8.42,8.13.4,16.33.17,24.42-.73,7.24-.81,14.43-2.23,21.29-4.72,9.13-3.32,17.73-8.89,22.76-17.39,3.64-6.16,5.05-13.35,4.77-20.44-.2-5-1.12-9.99-2.72-14.73-.25-.74-.46-1.62-.86-2.3-.26-.44-.65-.55-1.1-.76l-2.59-1.22-7.14-3.38c-1.26-.59-2.51-1.19-3.77-1.78-.76-.36-2.81-.05-2.58,1.17,1.71,8.96,3.49,18.17.91,27.17-1.56,5.44-4.87,10.16-9.57,13.34-7,4.74-15.88,6-24.14,6.26-20.21.63-41.14-3.76-59.03-13.27-12.3-6.54-23.22-15.55-31.88-26.46-4.08-5.14-7.76-10.78-10.4-16.52-.04-.08-.07-.17-.11-.25-.48-1.18-3.35-.33-2.9.78Z"/>
    <path class="cls-14" d="M1049.57,498.9c-3.88,5.58-8.34,10.82-12.9,15.85-9.7,10.72-20.56,20.6-32.84,28.3-6.64,4.16-13.78,7.67-21.33,9.85s-16.02,2.86-24.15,1.89c-6.56-.79-13.25-2.73-18.42-7.01-3.91-3.23-6.56-7.6-7.95-12.46-2.4-8.36-1.3-17.18.17-25.59.13-.72.25-1.44.37-2.16.15-.9-1.97-.23-2.3-.05-2.79,1.51-5.59,3.02-8.38,4.53-1.3.7-2.61,1.39-3.9,2.11-.37.21-.66.43-.86.8-1.23,2.36-1.78,5.37-2.27,7.95-.95,5.04-1.1,10.29-.06,15.33,1.32,6.45,4.68,12.29,9.51,16.75,7.18,6.62,16.8,10.1,26.2,12.09,5.9,1.25,11.9,2.06,17.94,1.98,5.53-.07,11.04-.84,16.41-2.11,10.76-2.53,20.97-7.15,30.44-12.79,9.09-5.42,17.59-11.79,25.56-18.74,6.48-5.65,12.63-11.66,18.45-17.99,3-3.27,5.94-6.62,8.69-10.1.13-.16.25-.32.38-.48.21-.27.13-.42-.15-.56-5.39-2.69-10.77-5.39-16.16-8.08-.69-.34-3.35.73-2.35,1.23,5.39,2.69,10.77,5.39,16.16,8.08l-.15-.56c-5.48,7.14-11.78,13.74-18.21,20-13.33,12.98-28.34,24.78-45.28,32.66-8.84,4.11-18.34,7.09-28.09,7.87-10.4.83-21.21-.89-31.03-4.34-7.28-2.55-14.28-6.48-19.23-12.52-3.58-4.37-5.79-9.69-6.57-15.26-.63-4.47-.38-9.04.5-13.46.5-2.51,1.39-4.83,2.1-7.27.03-.11.09-.22.14-.33l-.58.51c4.16-2.25,8.32-4.5,12.48-6.75l-2.3-.05c-1.39,8.31-2.86,16.72-1.27,25.13.94,4.93,3,9.64,6.41,13.37,4.27,4.66,10.26,7.33,16.34,8.68,16.49,3.66,33.33-.12,48.04-7.92,13.62-7.22,25.6-17.36,36.22-28.45,5.92-6.18,11.66-12.72,16.59-19.74.07-.1.15-.21.22-.31.62-.9-2.2-.53-2.65.11Z"/>
    <path class="cls-17" d="M776.35,423.76l1.01,52.68,3.11,9.75s-3.5,28.01-4.96,33.76c-1.46,5.75-18.23,32.95-18.23,32.95l7.6,37.35-50.53-2.87s-4.67-27.94-7.25-31.75c-2.32-5.67-2.89-11.91-1.64-17.91.83-5.51,3.98-38.86,3.98-38.86,0,0-9.08-40.78-.24-39.89,2.16.48,4.27,1.19,6.28,2.12,0,0,4.92,26.52,8.07,27.92l5.46-1.19s1.54-37.64,3.14-44.27c1.61-6.63,4.36-10.78,9.61-9.92,0,0,3.24,2.71,3.06,4.45-.18,1.74-3.05,43.38-.67,43.33,2.37-.05,2.47-3.87,2.47-3.87,0,0,2.27-50.68,3.79-53.33,1.67-3.61,5.8-5.36,9.55-4.04l1.46,28.79s2.38-23.09,7.24-25.78c2.4-1.58,5.55-1.34,7.69.57Z"/>
    <path class="cls-19" d="M778.45,476.14c-3.43-6.24-6.87-12.47-10.3-18.71-.49-.89-.98-1.78-1.47-2.67-.16-.29-.96-.05-1.16,0-1.82.43-3.62,1.45-5,2.69-3.21,2.88-4.16,7.15-3.9,11.32.31,4.99.94,10.06,2.24,14.89.17.63.48,1.28.58,1.92.13.81-.03,1.78-.04,2.6-.06,3.21-.11,6.41-.17,9.62l.72-.5c-2.64,1.02-5.16,2.45-7.53,3.98-5.31,3.4-10.07,7.68-13.84,12.74-2.73,3.67-4.88,7.74-6.38,12.06-.11.32,1.95.12,2.14-.41,4.09-11.74,13.12-21.34,24.14-26.94.56-.29,1.13-.56,1.71-.81.16-.07,1.01-.42.5-.22.19-.07.72-.22.72-.5.05-2.61.09-5.21.14-7.82.03-1.64.36-3.47-.14-5.04-1.1-3.5-1.67-7.18-2.11-10.81-.58-4.85-1.34-10.25,1.61-14.52.88-1.28,2.06-2.36,3.42-3.11.38-.21.81-.39,1.04-.48.45-.18-.08,0,.31-.1h-1.16c3.43,6.24,6.87,12.47,10.3,18.71.49.89.98,1.78,1.47,2.67.27.49,2.32-.32,2.17-.58h0Z"/>
    <path class="cls-19" d="M745.9,486.79c-7.79-.66-16.22.82-23.39,3.81-3.32,1.39-6.43,3.22-9.23,5.49-.39.32-.17.7.22.83.5.17,1.15-.1,1.54-.41,5.65-4.57,12.73-7,19.87-7.98,3.33-.46,6.8-.72,10.16-.43.89.08,2.29-1.19.82-1.31h0Z"/>
    <path class="cls-17" d="M801.34,688.14c6.72,16.64,14.17,33.27,17.23,50.94,1.34,7.72,1.63,15.4.76,23.17-2.38,21.41,23.72,54.89-5.79,67.14-9.82,4.08-21.31,2.19-30.82-2.56-44.78-22.34-44.68-89.62-54.31-132.74-4.72-21.12-15.37-110.12-15.79-131.76l2.13-13.53,37.42-1.47,36.7,104.38"/>
    <path class="cls-12" d="M1124.08,761.78l-14.65-74.81,5.59-161.22s55.7,12.52,74.58,58.66c9.69,28.14,24.99,91.49,36.49,147.02,0,0-10.17,11.88-40.97,21.41-30.8,9.53-58.74,8.96-58.74,8.96"/>
    <path class="cls-14" d="M1128.08,564.49c-10.77,2.86-17.88,11.44-22.26,21.3-2.4,5.4-4,11.07-5.27,16.83-1.61,7.28-2.82,14.65-3.62,22.06-3.16,29.23.4,58.55,6.42,87.18,3.55,16.88,7.87,33.6,12.1,50.32.04.16.41.15.5.16,13.88.26,27.94-.97,41.65-3.04,11.66-1.76,23.19-4.36,34.3-8.33,5.2-1.86,10.4-3.75,15.5-5.88,2.92-1.22,5.84-2.53,8.56-4.16,4.32-2.6,7.66-6.37,11.44-9.65.1-.06.14-.14.15-.24-1.02-4.85-2.04-9.7-3.06-14.54-.12-.59-2.26.24-2.55.39-9.93,5.56-20.24,10.52-30.7,14.99-8.55,3.66-17.29,6.95-26.33,9.21-10.02,2.51-20.29,4.02-30.57,4.94-5.34.48-10.71.85-16.07.86-.64,0-1.53.16-2.05.55-.39.29-.47.54.14.54,4.58,0,9.18-.3,13.75-.65,10.24-.79,20.46-2.17,30.49-4.41,18.05-4.02,35.13-11.53,51.6-19.78,4.01-2.01,8.01-4.06,11.92-6.25l-2.55.39c.61,2.91,1.22,5.81,1.83,8.72l1.04,4.94c.04.19.19.81.18.83-.12.32-1.36,1.15-1.75,1.5-1.85,1.68-3.59,3.48-5.51,5.09s-4.23,3.03-6.57,4.2c-4.52,2.25-9.27,4.02-14,5.76-6.76,2.5-13.53,4.81-20.54,6.53-12.47,3.07-25.27,4.77-38.07,5.7-4.48.33-8.96.55-13.45.66-2.18.05-4.45-.14-6.61.06-.1,0-.21,0-.31,0l.5.16c-7.2-28.41-14.75-56.91-18.05-86.1-1.61-14.25-2.16-28.63-1.21-42.94.49-7.29,1.36-14.55,2.62-21.74,1.13-6.42,2.45-12.87,4.53-19.06,3.6-10.75,10.22-23.15,22.05-26.3.23-.06,1.45-.38,1.35-.77s-1.38-.04-1.55,0h0Z"/>
    <path class="cls-12" d="M846.54,772.88s-14.4-21.19-16.1-35.4c-1.69-14.22-.47-29.57-.47-29.57l26.22,9.99-9.65,54.98Z"/>
    <path class="cls-19" d="M755.06,553.89c-6.69,6.3-17.41,7.18-25.14,2.32-.76-.48-2.69.58-1.69,1.21,8.85,5.56,21.07,4.19,28.63-2.95.38-.36.15-.82-.27-.99-.51-.21-1.16.06-1.54.41h0Z"/>
    <path class="cls-19" d="M806.43,706.97c4.13,5.92,6.87,12.85,9.53,19.52,3.49,8.73,6.63,17.6,9.91,26.42.19.52,1.63.1,1.45-.39-3.33-8.95-6.52-17.96-10.07-26.82-2.65-6.6-5.39-13.43-9.48-19.29-.29-.41-1.69.08-1.34.57h0Z"/>
    <path class="cls-17" d="M613.1,282.9l-7.5,61.38-4.8,11.01s.73,33.12,1.75,40.01c1.02,6.89,17.34,40.66,17.34,40.66l-16.84,77.67,57.9,14.79s8.44-78.48,17.21-83.24c3.39-6.34,4.8-13.56,4.06-20.71-.31-6.54,0-45.84,0-45.84,0,0,7.29-47.78-3.13-47.8-.65.08-1.31.17-1.96.28-3.26.56-5.67,3.36-5.81,6.67-.39,9.04-1.53,26.74-4.38,27.67l-6.24-2.04s2.72-44.13,1.64-52.07c-1.08-7.93-3.8-13.11-10.03-12.74,0,0-4.11,2.77-4.11,4.83,0,2.06-1.64,51.01-4.41,50.66-2.77-.34-2.42-4.82-2.42-4.82,0,0,3.42-59.44,1.97-62.72-1.51-4.41-6.13-6.95-10.67-5.86l-5.16,33.43s0-27.24-5.36-30.97c-2.61-2.13-6.32-2.23-9.05-.26Z"/>
    <path class="cls-19" d="M606.72,345.78c4.54-6.56,9.08-13.11,13.62-19.67.64-.92,1.28-1.85,1.92-2.77l-1.54.41c1.73.59,3.37,1.97,4.53,3.46,3.4,4.39,2.65,9.84,1.63,14.92-.93,4.62-2.06,9.28-3.84,13.66-.2.49-.5.99-.62,1.51-.24,1.09-.2,2.32-.29,3.43-.29,3.38-.58,6.77-.86,10.15-.03.35.2.54.48.68.18.09-.23-.12-.04-.02.15.08.3.17.45.25.54.3,1.07.62,1.6.95,1.85,1.16,3.63,2.44,5.33,3.8,5.34,4.27,9.97,9.45,13.47,15.33,2.56,4.31,4.43,8.99,5.58,13.87.25,1.05,2.42.47,2.17-.58-3.27-13.84-12.54-25.79-24.43-33.41-.94-.6-1.89-1.18-2.88-1.69l.48.68c.26-3.04.52-6.08.78-9.12.12-1.41.3-2.82.36-4.24.02-.48-.11.16.04-.19.14-.33.29-.66.43-.99,1.78-4.34,2.94-8.97,3.88-13.56,1.09-5.29,1.96-10.93-1.22-15.7-1.34-2.01-3.45-3.9-5.77-4.7-.49-.17-1.22-.04-1.54.41-4.54,6.56-9.08,13.11-13.62,19.67-.64.92-1.28,1.85-1.92,2.77-.79,1.14,1.24,1.55,1.83.69h0Z"/>
    <path class="cls-19" d="M640.79,361.36c2.68.05,5.38.44,8.02.92,6.02,1.09,11.93,2.97,17.33,5.87,3.61,1.94,6.95,4.35,9.85,7.25.37.37,2.33-.44,2.05-.72-8.59-8.57-20.9-12.81-32.8-13.95-1-.1-2.01-.18-3.02-.2-.45,0-1.18.11-1.54.41-.27.23-.37.41.11.42h0Z"/>
    <path class="cls-17" d="M551.48,626.14c-8.75,19.15-15.19,38.26-19.69,58.82-1.97,8.98,4.39,4.48,5.01,13.63.53,7.81-7.34,20.35-5.22,27.92,0,.03-3.7-2.57-3.68-2.55,6.86,8.89,22.26,19.26,26.67,20.3,22.21,5.22,36.87,2.06,53.49-12.24,20.21-17.39,30.21-70.71,36.75-94.86,6.64-24.52,27.71-163.58,29.33-188.93l-10.67,19.07-44.38-19.69-47.9,136.46"/>
    <path class="cls-19" d="M620.26,438.02c7.95,9.24,21.98,11.5,32.75,6.16.38-.19.55-.49.21-.77s-1.21.06-1.53.22c-9.79,4.85-22.38,1.72-29.4-6.43-.45-.52-2.52.24-2.03.82h0Z"/>
    <path class="cls-14" d="M829.88,699.73c-7.15-.53-14.84-2.24-21.14-5.72-2.44-1.35-4.7-3.03-6.38-5.28-.8-1.07-3.55.07-2.65,1.28,3.13,4.2,8.08,6.69,12.91,8.4,4.34,1.53,8.89,2.52,13.45,3.14.93.13,1.87.24,2.81.31.67.05,1.6-.2,1.89-.89.26-.64-.24-1.19-.89-1.24h0Z"/>
    <path class="cls-19" d="M543.43,642.8c-.99,2.35-1.69,4.85-2.33,7.32-1.67,6.44-2.6,13.06-2.94,19.7-.04.83,2.13.38,2.17-.29.34-6.64,1.27-13.26,2.94-19.7.64-2.46,1.34-4.97,2.33-7.32.26-.62-1.88-.38-2.17.29h0Z"/>
    <path class="cls-17" d="M86.48,650.74c5.68,1.88,13.56,3.34,19.31,4.75,8.48,2.08,17.02,3.78,25.58,5.37,5.01.93,10.01,1.83,15.07,2.32,8.41.81,16.86.8,25.26.28,10.4-.65,20.71-2.1,31.01-3.65l-13.32,147.7,10.73,44.1c2.1,8.65,3.71,17.41,4.82,26.24l25.82,205.71-73.11,21.18c-47-200.82-67.38-222.53-75.61-284.84-7.45-56.37,2.03-117.55,4.44-169.15Z"/>
    <path class="cls-12" d="M82.28,563.47l-12.87,107.61s75.56,22.53,160.26,9.96c83.57-12.4,68.33-90.7,68.33-90.7l-215.73-26.87Z"/>
    <path class="cls-14" d="M194.92,435.28c5.38,1.14,9.85,5.3,13.43,9.24,4.88,5.37,8.88,11.55,12.38,17.89s6.7,13.25,9.24,20.21c1.95,5.33,3.77,10.92,4.33,16.59.34,3.47.35,7,.44,10.48.1,4,.14,8.01.14,12.02-.01,8.67-.25,17.34-.63,26-.86,19.35-2.42,38.66-4.24,57.94-2.11,22.26-4.57,44.48-7.09,66.7-.34,2.96-.67,5.92-1.01,8.88l1.27-.87c-.34.09-.69.17-1.03.24-.42.1-.85.19-1.27.28-.12.02-.23.05-.35.07-.42.09.24-.05-.13.03-.34.07-.67.13-1.01.2-3.88.74-7.78,1.32-11.7,1.8-14.6,1.78-29.37,2.16-44.07,1.63-21.03-.76-41.79-3.86-62.52-7.32-6.45-1.08-12.89-2.2-19.3-3.5-3.07-.62-6.74-1.41-9.43-2.18-.76-.22-1.52-.45-2.26-.73-.22-.09-.44-.18-.66-.28-.14-.07-.56-.27-.25-.12-.02,0-.22-.17-.21-.18.02-.02-.03.08.03.03-.09.09-.22.4-.48.62.11-.09-.4.18-.3.14.29-.11.83-.38.89-.74.97-6.23,1.93-12.46,2.9-18.69.14-.91.28-1.81.42-2.72l-2.61.87c4.26,2.06,8.8,3.63,13.29,5.11,11.95,3.95,24.28,6.75,36.72,8.61,17.7,2.64,35.55,2.99,53.41,2.82,12.53-.12,25.07-.56,37.55-1.68,4.59-.41,9.22-.84,13.75-1.67.05-.01.11-.02.16-.03.43-.08,1.63-.34,1.66-.95s-.8-.64-1.23-.55c-3.55.68-7.18,1.04-10.78,1.4-11.27,1.14-22.61,1.63-33.94,1.84-17.68.33-35.45.3-53.02-1.9-13.17-1.65-26.26-4.33-38.93-8.28-5.5-1.71-10.79-3.79-16.1-5.98-.07-.03-.14-.07-.21-.1-.61-.29-2.47.03-2.61.87-.97,6.23-1.93,12.46-2.9,18.69-.14.91-.28,1.81-.42,2.72l.89-.74c-.45.17-1.16.6-.98,1.18.21.67,1.5,1.01,2.06,1.2,2.34.83,4.8,1.39,7.22,1.93,5.27,1.19,10.58,2.17,15.89,3.11,20.44,3.62,41.01,6.94,61.74,8.27,16.48,1.05,33.08.97,49.52-.69,6.89-.7,13.99-1.47,20.71-3.23.09-.02.17-.04.26-.06.35-.09,1.21-.4,1.27-.87,2.6-22.79,5.18-45.59,7.42-68.42,1.95-19.86,3.65-39.75,4.67-59.67.86-16.84,1.25-33.74.53-50.59-.25-5.75-1.46-11.17-3.26-16.64-2.27-6.92-5.18-13.65-8.51-20.12-3.41-6.63-7.3-13.09-11.97-18.91-3.68-4.58-8.06-9.19-13.52-11.6-1.1-.49-2.26-.86-3.44-1.11-.63-.13-1.58.09-2.05.55-.43.41-.36.82.25.95h0Z"/>
    <path class="cls-9" d="M376.81,560.28c-19.33,0-35.1-15.83-35.1-35.28s15.77-35.22,35.1-35.22,35.1,15.83,35.1,35.28-15.71,35.28-35.1,35.28v-.06ZM376.81,498.33c-14.63,0-26.55,11.98-26.55,26.67s11.92,26.67,26.55,26.67,26.55-11.98,26.55-26.67-11.92-26.67-26.55-26.67Z"/>
    <path class="cls-4" d="M480.72,620.01c-5.3-.84-20.35-1.08-31.73.48-30.64,4.15-57.56,21.61-61.83,24.5h-1.75c-4.27-2.77-31.79-19.93-62.49-24.02-12.76-1.69-21.19-1.63-26.73-1.57h-4.76c-1.14,0-2.05.9-2.11,2.05,0,1.14.84,2.17,2.05,2.23h4.88c5.48,0,13.73-.12,26.19,1.57,31.73,4.21,60.99,23.54,61.29,23.72l.54.36h4.33l.54-.36c.3-.18,28.9-19.87,60.57-24.14,11.02-1.51,25.47-1.26,30.52-.48,1.14.18,2.23-.6,2.41-1.75s-.6-2.23-1.75-2.41h0l-.18-.18Z"/>
    <g>
      <path class="cls-4" d="M378.31,651.01c-8.73-4.88-27.57-13.97-51.41-17.4-33.29-4.76-43.41-1.44-43.41-1.44l14.75,50.09s38.59-8.31,80.07,13.43v-44.67h0Z"/>
      <path class="cls-4" d="M447.31,632.77c-24.32,2.59-43.23,12.82-51.72,18.24v44.91c37.63-19.87,80.37-13.55,80.37-13.55l14.75-50.09s-9.99-3.07-43.41.54v-.06Z"/>
      <path class="cls-4" d="M390.65,654.2h-7.04s-.12-.06-.36-.24v43.17h7.41v-42.99h0v.06Z"/>
    </g>
    <g>
      <path class="cls-9" d="M393.18,532.29c-.3-.3-.78-.42-1.57-.36-.6.06-1.2.54-1.75.96-.3.24-.6.48-.84.6-5.12,2.77-11.5,3.55-18,2.23-2.53-.54-4.88-1.69-7.04-2.83-.3-.18-.6-.36-.9-.6-.78-.54-1.63-1.14-2.29-.54-.72.72-.9,1.93-.36,3.19.06.18.18.3.24.48.06.12.18.24.24.36,2.65,5.42,9.87,7.34,15.77,7.34h0c6.8,0,11.92-2.23,15.23-6.62.6-.78,1.02-1.69,1.26-2.59.12-.54.24-1.26-.12-1.69l.12.06Z"/>
      <path class="cls-9" d="M361.94,524.16c.84.18,1.63-.12,2.23-.84v-.12c.66-.66,1.26-1.38,1.87-1.99.84-.72,1.51-.72,2.41,0,.72.6,1.38,1.38,1.81,1.99.54.66,1.2,1.02,1.93,1.02s.84-.12,1.2-.42c.48-.36.84-.84.9-1.44.12-.6,0-1.2-.42-1.69-.78-1.02-1.51-1.87-2.29-2.59-1.26-1.14-2.71-1.81-4.33-1.93h-.6c-.42.06-.84.12-1.2.3-2.05.72-3.67,2.17-5,4.46-.3.54-.24,1.32-.18,1.57.18.84.78,1.44,1.69,1.57v.12Z"/>
      <path class="cls-9" d="M380.96,524.1c.18,0,.36.06.54.06.66,0,1.26-.3,1.81-.9l.24-.3c.48-.6,1.02-1.2,1.57-1.75.9-.78,1.63-.78,2.53,0,.66.54,1.26,1.26,1.75,1.93.24.3.54.6.96.78l-.36.18h1.26c.84,0,1.51-.36,1.93-1.08.42-.78.42-1.57,0-2.29-.96-1.57-2.17-2.71-3.49-3.55-1.63-1.02-3.25-1.26-4.76-.72-2.11.66-3.85,2.17-5.3,4.58-.18.3-.24.78-.18,1.2.12.9.66,1.57,1.63,1.81l-.12.06Z"/>
    </g>
    <path class="cls-9" d="M470.85,611.64h0c-5-11.8-13.97-21.31-25.11-26.61-5.06,7.04-13.25,11.62-22.52,11.62s-16.07-3.85-21.13-9.87c-13.31,7.65-22.94,21.55-25.47,37.99-25.65-14.99-54.49-17.94-61.83-18.42,2.83-16.68,12.58-32.81,27.15-44.43l4.33-3.49c1.99-1.57,2.29-4.46.72-6.44-1.57-1.99-4.46-2.29-6.44-.72l-4.33,3.49c-18.6,14.87-30.22,36.42-31.37,58.04,7.65.06,37.99,1.69,71.04,20.35h0c3.49,1.99,7.04,4.21,10.54,6.62,24.14-19.57,54.24-25.53,71.22-27.27h.48c7.65-.84,12.1-.6,12.7-.6,0,0,0-.12-.06-.18h0l.06-.06Z"/>
    <path class="cls-9" d="M423.16,546.5c-12.22,0-22.16,9.99-22.16,22.22s9.93,22.22,22.16,22.22,22.1-9.99,22.1-22.22-9.93-22.22-22.1-22.22h0ZM411.54,566.36c0-.3,0-.66.12-.9.78-1.32,1.81-2.35,3.25-2.89.36-.12.78-.18,1.14-.24,1.08.06,2.05.48,2.77,1.2.54.54,1.08,1.08,1.51,1.75s.3,1.38-.3,1.81-1.32.24-1.81-.36c-.36-.48-.78-.96-1.26-1.38-.66-.54-1.2-.54-1.87,0-.48.42-.9.9-1.32,1.44-.36.42-.78.6-1.26.48s-.84-.42-.96-.9h0ZM433.82,576.54c-.12.54-.42,1.02-.78,1.51-1.51,1.87-4.03,3.13-6.44,3.61-1.2.24-2.47.36-3.67.54-2.89-.12-5.66-.72-8.01-2.41-.72-.54-1.32-1.26-1.93-1.93-.12-.12-.24-.3-.3-.48-.3-.66-.24-1.32.18-1.69s1.14.36,1.81.72c1.44.72,2.89,1.38,4.52,1.75,3.91.72,8.25.42,11.8-1.32.48-.24,1.02-.9,1.57-.96.9-.12,1.38,0,1.2.84h0l.06-.18ZM435.57,566.66c-.24.42-.6.6-1.08.6s-.78-.24-1.08-.6c-.36-.48-.78-.9-1.2-1.32-.66-.6-1.26-.6-1.99,0-.48.42-.84.9-1.26,1.38-.36.42-.84.66-1.38.48-.54-.12-.84-.48-.96-1.08,0-.24,0-.48.12-.72.84-1.38,1.87-2.47,3.43-3.01,1.08-.36,2.11-.12,3.07.48s1.69,1.38,2.29,2.35c.3.42.3.9,0,1.32h0l.06.12Z"/>
    <g>
      <path class="cls-9" d="M944.56,667.08c-17.38,0-31.57-14.24-31.57-31.74s14.19-31.68,31.57-31.68,31.57,14.24,31.57,31.74-14.13,31.74-31.57,31.74v-.05ZM944.56,611.35c-13.16,0-23.88,10.78-23.88,23.99s10.72,23.99,23.88,23.99,23.88-10.78,23.88-23.99-10.72-23.99-23.88-23.99Z"/>
      <path class="cls-4" d="M1038.04,720.8c-4.77-.76-18.31-.97-28.54.43-27.57,3.74-51.77,19.44-55.62,22.04h-1.57c-3.85-2.49-28.59-17.93-56.21-21.61-11.48-1.52-19.06-1.46-24.05-1.41h-4.28c-1.03,0-1.84.81-1.9,1.84,0,1.03.76,1.95,1.84,2h4.39c4.93,0,12.35-.11,23.56,1.41,28.54,3.79,54.86,21.18,55.13,21.34l.49.32h3.9l.49-.32c.27-.16,26-17.87,54.48-21.72,9.91-1.35,22.91-1.14,27.46-.43,1.03.16,2-.54,2.17-1.57s-.54-2-1.57-2.17h0l-.16-.16Z"/>
      <g>
        <path class="cls-4" d="M945.92,748.69c-7.85-4.39-24.8-12.56-46.25-15.65-29.95-4.28-39.05-1.3-39.05-1.3l13.27,45.06s34.71-7.47,72.03,12.08v-40.18h0Z"/>
        <path class="cls-4" d="M1007.98,732.28c-21.88,2.33-38.88,11.54-46.52,16.41v40.4c33.85-17.87,72.3-12.19,72.3-12.19l13.27-45.06s-8.99-2.76-39.05.49v-.05Z"/>
        <path class="cls-4" d="M957.02,751.56h-6.34s-.11-.05-.32-.22v38.83h6.66v-38.67h0v.05Z"/>
      </g>
      <g>
        <path class="cls-9" d="M959.29,641.89c-.27-.27-.7-.38-1.41-.32-.54.05-1.08.49-1.57.87-.27.22-.54.43-.76.54-4.6,2.49-10.34,3.2-16.19,2-2.27-.49-4.39-1.52-6.34-2.55-.27-.16-.54-.32-.81-.54-.7-.49-1.46-1.03-2.06-.49-.65.65-.81,1.73-.32,2.87.05.16.16.27.22.43.05.11.16.22.22.32,2.38,4.87,8.88,6.61,14.19,6.61h0c6.12,0,10.72-2,13.7-5.96.54-.7.92-1.52,1.14-2.33.11-.49.22-1.14-.11-1.52l.11.05Z"/>
        <path class="cls-9" d="M931.19,634.58c.76.16,1.46-.11,2-.76v-.11c.6-.6,1.14-1.25,1.68-1.79.76-.65,1.35-.65,2.17,0,.65.54,1.25,1.25,1.62,1.79.49.6,1.08.92,1.73.92s.76-.11,1.08-.38c.43-.32.76-.76.81-1.3.11-.54,0-1.08-.38-1.52-.7-.92-1.35-1.68-2.06-2.33-1.14-1.03-2.44-1.62-3.9-1.73h-.54c-.38.05-.76.11-1.08.27-1.84.65-3.3,1.95-4.5,4.01-.27.49-.22,1.19-.16,1.41.16.76.7,1.3,1.52,1.41v.11Z"/>
        <path class="cls-9" d="M948.3,634.53c.16,0,.32.05.49.05.6,0,1.14-.27,1.62-.81l.22-.27c.43-.54.92-1.08,1.41-1.57.81-.7,1.46-.7,2.27,0,.6.49,1.14,1.14,1.57,1.73.22.27.49.54.87.7l-.32.16h1.14c.76,0,1.35-.32,1.73-.97.38-.7.38-1.41,0-2.06-.87-1.41-1.95-2.44-3.14-3.2-1.46-.92-2.92-1.14-4.28-.65-1.9.6-3.47,1.95-4.77,4.12-.16.27-.22.7-.16,1.08.11.81.6,1.41,1.46,1.62l-.11.05Z"/>
      </g>
      <path class="cls-9" d="M1029.16,713.27h0c-4.5-10.61-12.56-19.17-22.58-23.94-4.55,6.34-11.91,10.45-20.25,10.45s-14.46-3.47-19.01-8.88c-11.97,6.88-20.63,19.39-22.91,34.17-23.07-13.49-49.01-16.14-55.62-16.57,2.55-15,11.32-29.52,24.42-39.97l3.9-3.14c1.79-1.41,2.06-4.01.65-5.79-1.41-1.79-4.01-2.06-5.79-.65l-3.9,3.14c-16.73,13.38-27.19,32.76-28.22,52.21,6.88.05,34.17,1.52,63.91,18.31h0c3.14,1.79,6.34,3.79,9.48,5.96,21.72-17.6,48.8-22.96,64.07-24.53h.43c6.88-.76,10.89-.54,11.43-.54,0,0,0-.11-.05-.16h0l.05-.05Z"/>
      <path class="cls-9" d="M986.26,654.68c-10.99,0-19.93,8.99-19.93,19.98s8.94,19.98,19.93,19.98,19.88-8.99,19.88-19.98-8.94-19.98-19.88-19.98h0ZM975.81,672.55c0-.27,0-.6.11-.81.7-1.19,1.62-2.11,2.92-2.6.32-.11.7-.16,1.03-.22.97.05,1.84.43,2.49,1.08.49.49.97.97,1.35,1.57s.27,1.25-.27,1.62-1.19.22-1.62-.32c-.32-.43-.7-.87-1.14-1.25-.6-.49-1.08-.49-1.68,0-.43.38-.81.81-1.19,1.3-.32.38-.7.54-1.14.43s-.76-.38-.87-.81h0ZM995.85,681.7c-.11.49-.38.92-.7,1.35-1.35,1.68-3.63,2.82-5.79,3.25-1.08.22-2.22.32-3.3.49-2.6-.11-5.09-.65-7.2-2.17-.65-.49-1.19-1.14-1.73-1.73-.11-.11-.22-.27-.27-.43-.27-.6-.22-1.19.16-1.52s1.03.32,1.62.65c1.3.65,2.6,1.25,4.06,1.57,3.52.65,7.42.38,10.61-1.19.43-.22.92-.81,1.41-.87.81-.11,1.25,0,1.08.76h0l.05-.16ZM997.42,672.82c-.22.38-.54.54-.97.54s-.7-.22-.97-.54c-.32-.43-.7-.81-1.08-1.19-.6-.54-1.14-.54-1.79,0-.43.38-.76.81-1.14,1.25-.32.38-.76.6-1.25.43-.49-.11-.76-.43-.87-.97,0-.22,0-.43.11-.65.76-1.25,1.68-2.22,3.09-2.71.97-.32,1.9-.11,2.76.43s1.52,1.25,2.06,2.11c.27.38.27.81,0,1.19h0l.05.11Z"/>
    </g>
  </g>
</svg>