<?xml version="1.0" encoding="UTF-8"?>
<svg id="Layer_2" data-name="Layer 2" xmlns="http://www.w3.org/2000/svg" viewBox="0 0 1334 1000">
  <defs>
    <style>
      .cls-1 {
        fill: #151312;
      }

      .cls-2 {
        fill: #b8e0ee;
      }

      .cls-3 {
        fill: #382c13;
      }

      .cls-4 {
        fill: #f7ad1a;
      }

      .cls-5 {
        fill: #010101;
      }

      .cls-6 {
        fill: #e0c38b;
      }

      .cls-7 {
        fill: #f1eef7;
      }

      .cls-8 {
        fill: #080707;
      }

      .cls-9 {
        fill: #0d3a59;
      }

      .cls-10 {
        fill: #0a2f44;
      }

      .cls-11 {
        fill: #6b3825;
      }

      .cls-12 {
        fill: #efe7d3;
      }

      .cls-13 {
        fill: #131429;
      }

      .cls-14 {
        fill: #f9f8f7;
      }

      .cls-15 {
        fill: #fff;
      }

      .cls-16 {
        fill: #082f43;
      }

      .cls-17 {
        fill: #816227;
      }

      .cls-18 {
        fill: #a3a3a3;
      }

      .cls-19 {
        fill: #a5a4a4;
      }

      .cls-20 {
        fill: #7f7f7f;
      }

      .cls-21 {
        fill: #825639;
      }

      .cls-22 {
        fill: #38211a;
      }

      .cls-23 {
        fill: #975449;
      }

      .cls-24 {
        fill: none;
        stroke: #010101;
        stroke-miterlimit: 10;
        stroke-width: .37px;
      }

      .cls-25 {
        fill: #24180f;
      }

      .cls-26 {
        fill: #af6b4e;
      }

      .cls-27 {
        fill: #4f2e25;
      }
    </style>
  </defs>
  <rect class="cls-2" x="-44.38" y="-40.04" width="1405.56" height="1093.4" rx="12" ry="12"/>
  <ellipse class="cls-15" cx="635.35" cy="216.86" rx="158.93" ry="129.56"/>
  <polygon class="cls-15" points="753.77 247.95 819.32 325.32 719.17 307.55 753.77 247.95"/>
  <path class="cls-16" d="M605,185.22c1.54-4.46,3.82-8.25,6.84-11.37,3.02-3.12,6.69-5.56,10.99-7.3,4.3-1.74,9.22-2.61,14.76-2.61,4.3,0,8.32.64,12.07,1.92,3.74,1.28,7.04,3.15,9.91,5.61,2.87,2.46,5.12,5.43,6.76,8.92,1.64,3.49,2.46,7.48,2.46,11.99,0,5.74-1.26,10.61-3.77,14.6-2.51,4-5.71,7.84-9.61,11.53-3.18,3.18-5.71,5.66-7.61,7.46-1.9,1.79-3.3,3.56-4.23,5.3-.92,1.74-1.54,3.87-1.84,6.38-.31,2.51-.51,6.12-.62,10.84h-9.68c-.1-4.71.15-8.66.77-11.83.62-3.17,1.61-6.04,3-8.61,1.38-2.56,3.23-5.02,5.53-7.38,2.31-2.36,5.1-5.02,8.38-7.99,2.87-2.66,5.25-5.63,7.15-8.92,1.89-3.28,2.84-6.92,2.84-10.91,0-3.07-.59-5.89-1.77-8.45-1.18-2.56-2.77-4.74-4.76-6.53-2-1.79-4.33-3.2-6.99-4.23-2.67-1.02-5.48-1.54-8.45-1.54-4.1,0-7.74.72-10.91,2.15-3.18,1.44-5.79,3.41-7.84,5.92-2.05,2.51-3.59,5.46-4.61,8.84-1.03,3.38-1.49,7.07-1.38,11.07h-9.68c0-5.43.77-10.38,2.31-14.83ZM642.81,259.7v16.29h-12.91v-16.29h12.91Z"/>
  <path class="cls-26" d="M421.44,459.23c6.34,2.82,47.01,29.87,57.64,79.32,13.4,62.33,5.64,195.24,3.45,258.33-4.37,125.83,10.4,150.49-.08,276.17l-96.15-11.43s43.27-328.52,23.3-397.98c-19.97-69.46,11.84-204.42,11.84-204.42Z"/>
  <path class="cls-26" d="M884.59,504.33c-6.34,2.82-47.01,29.87-57.64,79.32-13.4,62.33-5.64,195.24-3.45,258.33,4.37,125.83-10.4,150.49.08,276.17l96.15-11.43s-43.27-328.52-23.3-397.98c19.97-69.46-11.84-204.42-11.84-204.42Z"/>
  <path class="cls-26" d="M218.09,294.23s11.03,60.63.34,95.99c-1.71,5.67-29.83,20.93-29.83,20.93l8.33,8.74c7.19,7.55,20.8,13.53,30.57,17.16,48.65,18.05,116.63,20.67,137.57-9.57l-13.41-21.79-9.86-5.04c-1.72-6.77,4.8-66.64,4.8-66.64"/>
  <path class="cls-10" d="M71.84,965.08l-3.46,82.7c-.98,55.13,10.91,92.89,26.15,145.88l32.35,243.46s-.16,97.34-9.93,177.77c-8.5,69.73,13.47,224.38,13.47,224.38l24.18,4.58c21.84,4.14,44.18,4.96,66.26,2.42l47.4-5.46,44.71-441.99,32.77-272.11,44.93-151.84-318.83-9.78Z"/>
  <path class="cls-10" d="M437.76,965.08l-30.96,466.72c-.02,19.52-7.84,37.23-16.8,131.17l-17.03,160.06-6.13,99.04-13.75,2.37c-18.89,3.8-38.22,5.01-57.44,3.6l-42.11-1.72,46.7-852.05,137.52-9.2Z"/>
  <path class="cls-15" d="M346.26,424.89c-2.33,8.62-6.32,18.86-23.13,21.39-25.12,3.78-49.54-1.1-80.28-24.53,0,0-22.56-15.12-25.81-29.23l-18.55,8.13c-11.71,5.17-41.8,14.08-63.66,24.26-23.24,8.36-69.31,29.03-85.14,65.76-14.49,40.23-28.03,154.21-35.7,222.1,19.04,7.11,37.83,14.65,58.4,15.84,1.12.06,3.02,2.92,4.4,3.01-5.37,40.38-9.88,74.96-12.27,95.18-6.21,52.56-17.22,127.31-12.96,160.97,4.27,33.66,196.84,51.11,267.97,43.48,35.55-3.81,88.83,2.77,119.71-24.5,7.64-6.75,7.65-61.99,8.64-86.77,2.71-67.63,1.8-135.46,3.57-203.15,2.9,2.82,20.14,2.12,29.76.43,14.66-2.58,20.47-5.17,25.6-8.94-14.83-53.03-23.05-162.71-33.39-203.39-9.69-38.1-70.08-73.83-105.63-90.12l-20.53-11.62s-2.8-1.58-2.23.37"/>
  <path class="cls-21" d="M215.65,319.02c0,.13.03.24.04.36-.05-.15-.08-.28-.04-.36Z"/>
  <path class="cls-26" d="M303.48,390.22l41.23-2.39,20.53-5.1c2.1,0,10.76-21.35,12.13-24.06,4.26-8.42,11.08-19.75,13.62-28.85,2.72-9.75,7.85-20.09,9.08-31.79.9-8.57.37-12.44-4.49-26.28-1.24-3.52-1.34-7.04-.55-10.86,1.7-8.04,2.17-17.43,4.21-28.2.16-.85,1.07-4.94.71-5.86,0,0-1.96-44.79-10.37-60.63-8.41-15.84-17.65-22.94-29.48-25.73-11.84-2.8-46.53,0-46.53,0l-48.14-5.94-40.41,20.98-19.75,49.97,4.11,57.47,7.15,51.27"/>
  <path class="cls-27" d="M324.22,375.53c-.33.22-22.12-2.14-22.54-2.17l-11.31-5.09s-.05-.04-.07-.05c-1.01.41-2.21.5-3.57.06-7.07-2.28-13.27-6.08-19.24-10.43-5.37-3.91-11.69-15.98-17.8-18.7-2.89-1.28-1.9-2.18-4.36-3.97.23.64.17,4.45.41,5.09,11.25,13.99,25.85,41.27,49.09,50.94,1.13.28,4.7,1.21,14.2,1.84,12.45.82,20.65,1.2,32.78-.66.07-8.77-.71-19.15-.78-27.93-4.47,0-4.43,2.91-16.81,11.08Z"/>
  <path d="M305.12,253.19c-2.64-1.36-5.73-.18-7.46,1.36-.41.36-1.5,1.39-2.01,3.13-.65,2.22.24,4.73,1.64,6.26,1.86,2.04,4.96,2.39,7.34,1.27,3.23-1.51,4.27-5.4,3.46-8.22-.15-.52-.84-2.69-2.98-3.8"/>
  <path d="M381.31,253.61c2.64-1.37,5.73-.19,7.46,1.34.41.36,1.5,1.38,2.01,3.12.66,2.22-.23,4.74-1.62,6.27-1.86,2.05-4.96,2.4-7.34,1.29-3.23-1.5-4.29-5.38-3.49-8.21.15-.52.84-2.7,2.97-3.81"/>
  <path d="M359.35,263.65s10.62-10.65,18.4-11.37c11.36-1.06,14.27,1.49,18.3,6.69,0,0-7.44-5.43-15.42-4.47-7.63.92-21.28,9.14-21.28,9.14Z"/>
  <path d="M322.45,260.93s-15.93-10.02-23.75-10.21c-11.4-.28-24.98,6.47-28.64,11.93,0,0,17.9-9.92,25.92-9.51,7.67.39,26.47,7.79,26.47,7.79Z"/>
  <path d="M324.95,224.36c1.48.72.94,1.85.93,4.58,0,.87.02,2.2.04,3.61.05,2.62-2.52,4.54-5.01,3.72-4.47-1.47-8.46-3.02-11.55-3.57-8.36-1.48-16.92-3.58-25.38-2.26-4.05.63-7.6,1.68-10.98,3.77-1.07.66-3.94,3.52-5.54,2.79-.65-.3.42-3.64.53-3.98,2.19-6.73,7.9-9.53,14.88-11.14,14.23-3.27,27.6.65,42.07,2.48"/>
  <path d="M401.23,223.13s-4.25-.95-4.28-.96c-9.18-2.1-18.3-2.05-27.44-.82-4.63.62-7.98,4.77-7.76,9.44,0,.03,0,.05,0,.08.04.93-.34,3.76.26,4.5.12.14.29.22.46.29,1.85.76,3.95.73,5.9.3,2.42-.54,4.57-1.77,6.96-2.39,6.84-1.8,14.03-3.79,21.08-2.79.56.08,3.57.56,4.11.67,2.05-3.85,1.72-7.76.71-8.31Z"/>
  <g>
    <path class="cls-5" d="M350.61,308.22c-3.33,1.79-8.42,1.38-11.78-.74-.75-.47-3.23-.01-2.18.65,4.44,2.8,11.74,3.06,16.04.74.43-.23.35-.57-.19-.75-.56-.19-1.44-.15-1.89.09"/>
    <path class="cls-5" d="M335.2,307.16c-2.24-1.08-4.76-1.65-7.27-1.84-.37-.03-.84.12-1.11.36-.21.19-.26.45.02.61,1.16.68,2.63.96,3.99.93.43,0,.99-.12,1.23-.49.22-.35-.19-.57-.52-.57-1.12.02-2.26-.2-3.22-.76-.37.33-.73.65-1.09.97,2.24.17,4.49.7,6.49,1.67.4.19.97.07,1.33-.15.27-.16.55-.54.15-.74"/>
    <path class="cls-5" d="M325.24,307.49c-2.94-.07-6.39-1.37-7.83-3.63-2.18-3.41-.16-8.7,3.5-10.88.4-.24.19-.54-.22-.63-.53-.12-1.15.09-1.57.33-3.19,1.91-5.25,6.23-4.77,9.43.45,2.99,3.26,5.07,6.78,5.94,1.04.25,2.16.43,3.25.46.44,0,1.24-.13,1.46-.48.22-.36-.19-.52-.6-.53"/>
    <path class="cls-5" d="M355.99,306.69c-.16-.35.13-.57.37-.57.79.02,1.6-.21,2.28-.77.26.32.52.65.78.97-1.59.18-3.18.71-4.59,1.69-.28.19-.69.07-.94-.15-.19-.16-.39-.54-.11-.74"/>
    <path class="cls-5" d="M353.77,307.13c1.59-1.09,3.36-1.66,5.14-1.86.26-.03.6.11.79.36.15.19.18.45-.01.61"/>
    <path class="cls-5" d="M362.08,307.09c1.91-.08,4.15-1.39,5.09-3.65,1.41-3.41.09-7.46-2.3-9.64-.26-.24-.12-.54.14-.63.34-.12.75.08,1.02.33,2.08,1.9,3.43,4.98,3.12,8.18-.29,2.99-2.11,5.08-4.39,5.95-.68.26-1.4.43-2.12.46-.29.01-.81-.12-.95-.48-.14-.36.12-.52.39-.53"/>
  </g>
  <path class="cls-11" d="M341.89,329.09c-12.75-.02-33.41-1.55-33.41-1.55,0,0,4.12,31.47,33.69,31.51,29.56.05,27.18-30.62,27.18-30.62,0,0-14.7.68-27.45.66Z"/>
  <path class="cls-25" d="M342.01,329.09c-6.06,0-30.5-1.07-30.5-1.07,0,0,8.72,20.26,30.65,20.3,23.77.04,25.58-19.89,25.58-19.89l-25.72.66Z"/>
  <path class="cls-7" d="M342.13,328.41c-6.06,0-24.51-1.06-24.51-1.06,0,0,6.78,8.22,24.96,8.25,18.19.03,23.83-7.98,23.83-7.98l-24.28.79Z"/>
  <path class="cls-11" d="M370.18,326.1c-.62-.16-1.61-.05-4.51-.31-4.85-.44-6.21-1.02-9.72-1.31-6-.49-9.81,1.95-12.41,1.95-2.61,0-6.41-2.46-12.41-1.99-3.51.27-12.21,1.58-17.06,2-2.91.25-6.32-.92-6.94-.76-.86.22.8,6.79,33.57,6.84,32.77.05,30.34-6.2,29.48-6.42Z"/>
  <path class="cls-13" d="M440.39,973.34c.24,0,.34-.31.04-.31-.24,0-.34.31-.04.31h0Z"/>
  <path class="cls-19" d="M460.15,541.06c0,15.29-.23,30.58-.78,45.86-.44,12.13-1.08,24.25-1.92,36.36-.72,10.3-1.58,20.59-2.47,30.88-.83,9.58-1.67,19.15-2.38,28.74-.75,10.17-1.35,20.34-1.71,30.53-.05,1.37-.09,2.74-.14,4.12l.06.07c1.8.69,3.78,1.05,5.67,1.34,5.27.82,10.66.8,15.96.28,8.03-.78,15.64-3.09,23.42-5.05,2.41-.61,4.84-1.19,7.3-1.6.94-.16,2.18-.36,2.91-.28.6.07.64.35.38.57.69-.13,1.38-.26,2.06-.4-.76-5.54-1.51-11.08-2.27-16.62-.05-.39-1.54.12-1.7.19-.38.17-.55.23-.78.31-.95.36-1.91.69-2.88,1-3.79,1.21-7.68,2.12-11.58,2.86-5.83,1.11-11.75,1.83-17.67,2.21-3.88.25-7.81.36-11.69.07-1.3-.1-2.66-.2-3.92-.53-.44-.12-1.12.1-1.51.29-.18.09-.74.38-.28.5,1.15.31,2.39.4,3.57.5,3.76.32,7.54.26,11.3.05,10.51-.57,21.14-2.09,31.23-5.16,1.84-.56,3.7-1.14,5.46-1.91-.57.06-1.13.13-1.7.19.76,5.54,1.51,11.08,2.27,16.62.06.47,1.88-.24,2.06-.4,1.17-.96-.67-1.19-1.39-1.18-2.35.04-4.73.6-7.01,1.11-5.21,1.16-10.31,2.75-15.5,3.99-8.66,2.06-17.87,2.97-26.71,1.51-1.04-.17-2.08-.38-3.1-.64-.42-.11-1.26-.18-1.61-.47-.04-.04-.19-.03-.22-.08-.06-.09.09-1.02.09-1.21.02-.63.04-1.27.06-1.9.07-2.07.15-4.13.24-6.2.66-15.28,1.86-30.53,3.18-45.78s2.77-31.92,3.76-47.91c1.31-21.21,1.95-42.46,2.09-63.71.02-3.24.03-6.48.03-9.72,0-.27-2.17.01-2.17.58h0Z"/>
  <path d="M190.49,264.85s-11.34-23.18-13.52-72.39c-1.67-37.64,50.5-72.64,86.26-79.37,19.66-3.7,86.07,2.29,103.43,9.63,17.36,7.35,27.07,29.79,30.21,62.3,0,0-11.56-32.01-32.56-30.55-17.13,1.19-72.71-5.36-86.99,1.19-14.28,6.55-35.7,13.67-35.34,64.83.1,13.94-25.11,18.97-31.74,27.6-6.63,8.63-19.74,16.76-19.74,16.76Z"/>
  <path d="M230.42,257.99c.35,4.34.73,21.6,1.33,25.82l-22.74.15c-7.25-14.71-15.95-32.02-18.66-35.94-4.24-6.13-5.7-36.36-6.25-47.73l-.12-2.45c-.56-10.91,9.53-28.52,26.99-47.11,19.21-20.46,53.96-32.7,88.51-31.17,3.28.15,6.57.41,9.74.79,30.07,3.6,55.36,17.73,75.14,42.01,14.27,17.51,15.74,37.88,14.93,50.36-1.5-24.53-10.69-41.6-11.08-42.31-8.71-16.49-19.35-21-26.74-21.89-6.45-.77-11.22,1.06-12.17,1.46-7.24,1.81-17.93,1.09-25.64.16-5.75-.69-10.32-1.55-11.56-1.79-3.94-2.55-9.78-4.35-16.92-5.2-16.59-1.98-40.44,1.51-45.19,8.82-5.26,8.11-16.83,36.81-16.73,43.44"/>
  <path class="cls-26" d="M221.77,319.94c-12.47,18.65-22.51-12.31-22.51-12.31-13.1-15.51-13.21-32.13-12.82-43.5.39-11.37,12.9-11.29,12.9-11.29,10.63,1.08,15.41,6.75,24.54,42.5"/>
  <path d="M206.35,279.93c-3.7,1.1-4.53,4.95-4.32,8.39.06,1,.29,1.95.41,2.93.18,1.41.17,2.79.49,4.19.35,1.52.87,3,1.54,4.4.94,1.95,2.22,4.04,4.03,5.3.74.52,1.81,1,2.65.39.89-.65.69-2.03.54-2.96-.3-1.88-.93-3.69-1.42-5.52-.38-1.42-1.32-4.02-.36-5.38.81-1.15,3.86-.29,5.05-.16.05,0,.27-.03.24-.11-1.86-5.26-3.62-10.54-6.15-15.53-1.54-3.05-3.32-6.13-5.72-8.6-.89-.91-2.04-2.03-3.32-2.39-.79-.22-1.1.5-1.53,1.12-2.98,4.27-3.46,9.81-2.84,14.84,0,.08.31.02.3-.08-.58-4.72-.19-9.8,2.3-13.97.36-.61.82-1.48,1.41-1.91-.24.18-.17-.03.15.15,4.09,2.25,6.56,6.31,8.67,10.38,2.67,5.15,4.49,10.63,6.43,16.08l.24-.11c-1.23-.13-2.5-.37-3.74-.41-.84-.03-1.62.26-1.95,1.09-.48,1.21-.05,2.78.23,3.98.41,1.75.98,3.46,1.4,5.21.26,1.09.87,3.01.1,4.02-1.24,1.62-3.78-1.39-4.47-2.29-1.63-2.11-2.75-4.64-3.39-7.23-.43-1.73-.39-3.48-.71-5.21-.68-3.71-.61-9.16,3.78-10.46.17-.05.14-.18-.03-.12h0Z"/>
  <path class="cls-26" d="M360.66,367.53c-.28-.03-.55-.13-.79-.28-4.44-2.83-4.81-4.46-6.97-4.93-.5-.11-.75-.28-2.3-.47-6.2-.75-9.98-1.33-26.39,9.5-.33.22-22.11-2.14-22.54-2.17l-11.31-5.09c-1.9-1.13-44.58-35.75-44.58-35.75-.66-1.17-8.41-9.45-8.73-10.57-.13-.06-.26-.14-.4-.18-.05-.02-.16-.06-.27-.11-.02.07-.04.17-.06.23-.07.48-.05.99-.01,1.48.13,2.12.64-11.65,1.32-9.63,1.03,3.1,1.78,7.24,2.69,10.35.32,1.1,4.09,16.47,4.5,17.54,4.84,2.89,30.94,43.78,52.43,50.12,1.13.28,2.29.69,11.79,1.31,17.83,1.17,35.02.84,52.44-4.57,4.55-1.41,8.17-4.74,9.93-9.01,5.02-12.2,16.08-39.33,18.6-57.45-4.66,10.56-14.48,33.19-21.26,48.6-.21.47-6.96.96-7.52,1.14"/>
  <path class="cls-19" d="M214.62,394.1c4.52,5.68,9.68,10.92,14.93,15.92,11.34,10.8,23.97,20.5,37.96,27.61,7.64,3.88,15.74,6.98,24.14,8.73,8.82,1.83,17.94,2.06,26.85.82,11.68-1.62,23.9-6.8,27.9-18.82,2.65-7.95,1.45-16.48-.17-24.51-.13-.66-.27-1.32-.39-1.98l-2.11.67c2.8,1.32,5.59,2.64,8.39,3.97,1.49.7,2.97,1.4,4.46,2.11.1.05.69.36.54.21.03.04.04.1.07.14.45.63.69,1.59.95,2.3.55,1.51,1.01,3.05,1.37,4.62,1.03,4.47,1.3,9.17.43,13.69-1.15,5.95-4.28,11.23-8.75,15.29-6.99,6.35-16.38,9.6-25.46,11.54-12.25,2.62-24.61,3.12-36.94.71-11.46-2.25-22.46-6.52-32.8-11.89-9.65-5.02-18.78-11.01-27.43-17.61-6.85-5.23-13.41-10.84-19.65-16.79-3.19-3.04-6.32-6.16-9.28-9.43-.13-.15-.26-.29-.4-.44l-.39.54c5.8-2.54,11.61-5.07,17.41-7.61.35-.15.57-.35.26-.6s-1.23.14-1.52.27c-5.8,2.54-11.61,5.07-17.41,7.61-.18.08-.59.31-.39.54,2.12,2.41,4.39,4.69,6.66,6.95,5.73,5.66,11.75,11.03,18.03,16.08,8.44,6.79,17.36,13.02,26.78,18.37,10.17,5.77,21,10.56,32.34,13.51,11.89,3.09,23.97,3.79,36.13,2.08,10.7-1.5,21.79-4.19,30.98-10.11,5.66-3.64,10.44-8.72,12.79-15.1,1.74-4.73,2.09-9.89,1.4-14.86-.45-3.22-1.3-6.41-2.57-9.41-.27-.63-.34-.98-.97-1.28-3.42-1.62-6.85-3.24-10.27-4.86-.91-.43-1.81-.86-2.72-1.29-.36-.17-2.23.03-2.11.67,1.42,7.44,2.96,14.97,1.54,22.55-.86,4.59-2.83,8.95-6.07,12.36-4.21,4.44-9.99,6.89-15.88,8.18-17.2,3.78-35.07.19-50.77-7.23-14.07-6.65-26.79-16.05-38.22-26.55-4.14-3.8-8.13-7.77-11.94-11.91-1.86-2.03-3.57-4.21-5.44-6.22-.09-.09-.16-.2-.24-.3-.34-.42-2.4.31-2.04.75Z"/>
  <path class="cls-26" d="M140.96,766.52l2.16-39.17c-11.84,6.09-43.54,10.96-109.26-7.3-3.73,55.21-14.94,132.78,36.35,151.07,51.85,24.97,184.16-41.09,184.16-41.09l32.44-88.45-145.86,24.93Z"/>
  <path class="cls-19" d="M135.45,472.05c9.35,2.21,17.57,8.14,24.01,15.1,6.26,6.77,11.38,15.06,13.38,24.14,2.96,13.46,3.99,27.38,4.64,41.12.83,17.73.7,35.5-.02,53.23-.77,19.06-2.25,38.09-4.53,57.03-2.1,17.49-4.84,34.94-8.87,52.09-.44,1.87-.89,3.73-1.37,5.58l.42-.43c-5.67,3.38-12.52,5.64-19.01,7.45-17.2,4.8-35.39,5.79-53.09,3.76-11.84-1.36-23.41-4.28-34.98-7.05-7.86-1.88-15.7-3.82-23.5-5.94-4.14-1.13-8.28-2.29-12.35-3.67-1.55-.52-3.14-1.04-4.6-1.78-.13-.07-.26-.16-.4-.21-.22-.09.14.05-.08-.05-.02,0-.06-.04-.07-.06-.06-.09.03.36.07.24.06-.19.07-.41.1-.61l2.7-15.83.26-1.5c-.65.22-1.3.43-1.95.65,4.29,2.22,8.87,3.97,13.4,5.62,11.62,4.22,23.66,7.33,35.84,9.41,16.77,2.86,33.79,3.53,50.77,2.94,11.72-.41,23.48-1.44,34.98-3.77,4.3-.87,8.94-1.75,12.99-3.52.05-.02.1-.04.15-.06,1.4-.59.12-1.21-.84-.81s-1.55.57-2.23.79c-2.49.8-5.04,1.44-7.59,2.02-10.4,2.34-21.1,3.44-31.74,3.99-16.74.87-33.63.54-50.24-1.91-12.78-1.88-25.41-4.88-37.62-9.1-3.71-1.28-7.39-2.68-11.01-4.23-1.66-.71-3.26-1.56-4.92-2.25-.07-.03-.15-.07-.22-.11-.46-.24-1.85.03-1.95.65-.83,4.84-1.65,9.67-2.48,14.51l-.5,2.91c-.05.26-.16.56-.02.8.06.11.29.2.37.26.9.6,2.04.95,3.05,1.32,3.13,1.15,6.34,2.1,9.54,3.03,6.47,1.87,13,3.55,19.54,5.17,10.89,2.7,21.82,5.52,32.86,7.58,19.06,3.55,38.78,3.77,57.79-.18,9.35-1.94,18.78-4.8,27.24-9.3.47-.25,1.19-.53,1.47-1.01.44-.78.52-2.05.73-2.92.26-1.04.5-2.09.75-3.14.48-2.04.93-4.08,1.37-6.13,1.89-8.79,3.46-17.66,4.82-26.55,2.95-19.3,4.92-38.76,6.17-58.24s1.78-38.1,1.42-57.15c-.29-15.58-1.08-31.27-3.51-46.68-.48-3.04-1.01-6.08-1.71-9.08-1.03-4.48-2.89-8.75-5.18-12.72-4.95-8.55-12-16.05-20.42-21.25-3.87-2.39-8.05-4.22-12.48-5.26-.65-.15-2.55.84-1.35,1.12h0Z"/>
  <path class="cls-26" d="M270.65,818.42l89.46-39.44s48.49,11.43,69.79,6.46c15.34-4.14,34.61-10.39,48.8-18.35l22.3-2.41c4.96-.47,9.79-1.86,14.25-4.09l7.69-3.85s21.69,6.86,25.39.02c3.7-6.84-3.41-11.62-10.31-16.25-6.9-4.63-124.07-30.53-124.07-30.53,11.68-7.04,17.49-13.27,29.96-18.43,19.19-7.79,28.02-20.47,22.35-28.66-3.98-5.75-26.52,3.73-41.61,14.81-9.81,7.21-33.46,6.95-52.06,17.31-18.61,10.36-30.2,29.51-30.2,29.51-6.95,4.94-66.16,17.85-66.16,17.85-.31,1.58-5.57,76.03-5.57,76.03Z"/>
  <path class="cls-3" d="M523.33,756c-8.67-.67-17.34-1.33-26.02-2-13.83-1.06-27.65-2.13-41.48-3.19-3.18-.24-6.35-.49-9.53-.73-1-.08-2.25,1.36-.78,1.48,8.67.67,17.34,1.33,26.02,2l41.48,3.19c3.18.24,6.35.49,9.53.73,1,.08,2.25-1.36.78-1.48h0Z"/>
  <path class="cls-3" d="M497.28,765.04c-4.86.86-9.75,1.56-14.64,2.19-9.1,1.17-18.3,2.14-27.48,2.05-4.02-.04-8.3-.15-12.15-1.45-.48-.16-1.11-.09-1.54.21-.23.16-.71.66-.19.83,3.41,1.16,7.09,1.44,10.67,1.57,4.66.17,9.34-.03,13.99-.35,8.6-.6,17.17-1.67,25.69-2.99,1.78-.28,3.57-.56,5.34-.87.34-.06,1.21-.26,1.24-.73s-.59-.51-.93-.45h0Z"/>
  <path class="cls-26" d="M131.79,764.5c-.93.2-1.86.4-2.8.6-2.1,3.17-3.91,6.56-5.44,10.08-8.7,19.96-9.35,43.71-4.77,64.76,2.83,13.03,47.63,11.88,56.18,22.37,91.24-33.55,175.11-80.49,175.11-80.49l-24.81-49.37-193.48,32.06Z"/>
  <path class="cls-3" d="M141.12,762.94c-7.18.77-14.08,5.19-19.56,9.63-6.07,4.92-10.56,11.18-13.5,18.42-1.37,3.38-2.75,7.49-1.79,11.15.14.52,2.31-.05,2.17-.58-.79-3.01.08-6.28,1.09-9.13,1.16-3.32,2.76-6.5,4.61-9.48,3.89-6.31,9.62-11.3,15.97-15.05,3.04-1.79,6.53-3.64,10.09-4.02.35-.04,1.29-.15,1.45-.53s-.13-.44-.52-.4h0Z"/>
  <path class="cls-26" d="M1060.32,196.24s-13.25-32.11-53.21-40.06c-30.16-6-87.61,1.25-108.86,13.85-30.78,18.26-35.09,52.28-35.09,52.28l197.16-26.07Z"/>
  <path class="cls-18" d="M1032.43,196.95c11.34-3.1,18.09-9.41,29.52-4.58.94.4,3.09,1.93,3.93,2.4.69.39,1,1.11,1.27,1.79,6.42,16.07,13.51,31.82,16.24,48.74,1.16,7.2,1.98,14.55.66,21.81-1.2,6.54-.52,14.02-3.4,20.22-2.53,5.44-5.05,10.87-7.58,16.31-.94,2.03-1.94,4.13-3.81,5.65-5.47,4.44-14.43,1.33-19.63-3.02-11.15-9.34-16.05-23.01-17.38-36.48-1.33-13.47.51-27.1.84-40.67.23-9.36-.27-18.71-1.47-27.97"/>
  <path class="cls-26" d="M1048.63,326.34s-9.23,37.11,8.33,70.08c2.53,4.75,56.46,26.09,56.46,26.09l-103.25,176.54c-25,10.25-40.96-26.91-67.51-31.92l-42.52-110.05,38.49-23.45c.3-6.34-9.33-47.22-9.33-47.22"/>
  <path class="cls-26" d="M864.44,216.23s.03-.08.03-.13c1.64,1.29,15.8-11.44,17.83-12.75,21.36-13.8,31.37-24.46,56.78-24.01,13.27.23,27.03,11.61,40.18,13.42,12.61,1.73,24.12-8.15,36.88-9.13,4.42-.34,7.03,13.78,5.27,10.87,5.49-1.61,9.83-3.6,9.83-3.6,15.49,8.97,5.78,68.64,6.54,76.53.76,7.88,4.1,20.05,4.1,20.05,1.78-3.22,3.88-5.69,4.7-9.19.89-3.09,2.75-6.75,3.64-9.83,2.98-7.2,13.54-7.79,19.06-4.43l2.95,3.27c8.23,8.25,1.96,37.51-1.77,46.87,1.19,17.71-12.68,29.23-23.18,17.9l-1.37,7.19-19.91,37.79c-14.83,20.59-46.96,44.17-74.7,47.13-9.94,1.06-23.39,3.51-32.16-7.75-8.86-11.39-12.3-17.63-21.66-28.03-8.98-9.97-13.23-16.38-18.37-28.77-5.32-12.81-5.79-16.33-6.3-29.83-.22-6.03-1.1-15.09-2.37-20.73-1.46-6.51-8.19-32.03-10.98-47.18-2.79-15.15,4.96-45.67,4.96-45.67Z"/>
  <path class="cls-24" d="M1049.52,299.06c7.82-24.06,14.84-24.86,14.84-24.86,0,0,5.23,4.93,3.85,15.9"/>
  <path class="cls-24" d="M1053.34,300.84c6.25-1.2,2.47,10.95,4.46,13.55,1.99,2.59,3.64-4.93,3.62-13.83,0,0-1.07-11.93-7.24-13.56"/>
  <path class="cls-27" d="M886.29,248.32s19.45.59,35.12-.21c15.67-.79,30.41-7.91,30.41-7.91,0,0-17.96,5.63-30.35,6.31-12.39.68-35.18,1.81-35.18,1.81Z"/>
  <path class="cls-15" d="M966.72,360.21s-14.89,5.87-26.83,7.92c-11.94,2.06-30.77,1.52-30.77,1.52,0,0,.52-4.76,22.17-8.49,21.65-3.73,35.42-.95,35.42-.95Z"/>
  <path class="cls-18" d="M940.34,258.34c16.85-6.11,29.01-7.98,34.02-7.98,3.93,0,7.85.66,11.63,1.8,0,0,10.84,6.33,12.31,7.95,1.46,1.62-6.07,0-6.07,0-1.59-.14-2.7-.45-4.29-.42-8.77.18-17.3-.66-25.81,1.61-7.28,1.9-16.74,7.01-23.49,10.39-.67-2.9-.91-9.03-1.85-11.85"/>
  <path class="cls-18" d="M861.05,273.09c.09-.25.06-2.01.17-2.26,0,0,.16-.26.16-.27,1.71-.88,3.73-2.51,6.3-3.29,4.5-1.36,15.86-5.15,32.52-4.79.39,2.88,1.64,8.26,2.05,11.14-6.92-.99-11.69-1.01-18.7-.62-6.59.37-15.85,1.35-22.32,3.04-.26-.58.07-.02-.14-.62-.08-.41-.15-.83-.18-1.25.03-.36.07-.72.14-1.07Z"/>
  <path class="cls-23" d="M933.56,362.35c12.55-1.4,35.37-2.93,35.37-2.93,0,0-2.99,28.08-32.08,31.32-29.09,3.24-33.97-25.79-33.97-25.79,0,0,18.14-1.2,30.68-2.6Z"/>
  <path class="cls-8" d="M933.44,362.36c5.96-.67,31.27-3.63,31.27-3.63,0,0-7.18,18.27-28.76,20.67-23.39,2.61-29.66-14.53-29.66-14.53l27.15-2.51Z"/>
  <path class="cls-7" d="M933.28,363.29c5.96-.67,24-3.71,24-3.71,0,0-5.8,7.33-23.69,9.32-17.89,2-24.29-3.78-24.29-3.78l23.98-1.84Z"/>
  <path class="cls-23" d="M902,364.33c.62-.23,2.12.06,4.88-.71,4.98-1.4,7.09-3.47,10.64-4.14,6.05-1.16,10.2.85,12.86.55,2.66-.3,6.26-3.16,12.42-3.37,3.61-.12,11.47,1.61,16.45,1.48,2.99-.07,9.93.03,10.58.11.9.12-2.53,3.79-35.9,7.51-33.38,3.72-32.79-1.11-31.93-1.43Z"/>
  <path class="cls-26" d="M919.02,401.78c.29-.06.56-.19.78-.37,4.29-3.38,4.51-5.11,6.69-5.82.51-.16.75-.37,2.33-.72,6.33-1.41,10.17-2.39,28.21,7.15.36.2,22.61-4.47,23.05-4.55l11.16-6.43c1.84-1.36,42.38-41.61,42.38-41.61.56-1.28,7.72-10.65,7.94-11.85.13-.08.26-.17.4-.23.05-.02.16-.08.27-.14.03.07.06.17.08.23.12.5.15,1.02.17,1.53.08,2.21-.2,4.41-.69,6.57-.75,3.32-1.07,6.66-1.69,9.99-.22,1.17-.5,2.33-.81,3.48-4.71,3.49-22.12,45.43-50.31,56.27-1.14.4-4.73,1.74-14.47,3.35-18.29,3.03-33.16,9.92-51.7,6.09-4.84-1-8.92-4.08-11.17-8.33-6.42-12.13-27.07-59.78-31.51-78.31,5.88,10.48,23.51,42.26,32.07,57.55.26.46,5.65,6.13,6.25,6.25"/>
  <path class="cls-11" d="M933.24,362.65c14.43-1.14,37.66-4.77,37.66-4.77,0,0-1.46,34.29-34.9,36.94-33.44,2.65-34.3-29.72-34.3-29.72,0,0,17.11-1.31,31.54-2.45Z"/>
  <path class="cls-8" d="M933.1,362.66c6.86-.54,30.38-3.48,30.38-3.48,0,0-3.31,20.2-28.12,22.17-26.9,2.13-30.97-16.39-30.97-16.39l28.71-2.29Z"/>
  <path class="cls-7" d="M932.88,363.75c6.86-.54,27.63-3.41,27.63-3.41,0,0-6.89,8.45-27.47,10.08-20.57,1.63-27.71-5.48-27.71-5.48l27.54-1.19Z"/>
  <path class="cls-11" d="M897.61,363.22c.71-.24.81-.61,4.2-1.19,5.64-.96,9.07-2.8,13.15-3.46,6.98-1.12,11.66,1.42,14.72,1.18,3.05-.24,7.28-3.49,14.35-3.48,4.14,0,14.44.76,20.16.82,3.43.04,7.31-1.66,8.06-1.54,1.03.18-.32,8.11-38.69,11.15-38.38,3.04-36.93-3.14-35.94-3.48Z"/>
  <path class="cls-18" d="M933.79,349.17l1.29,6.22c.2.95.98,1.67,1.94,1.79,6.62.8,37.39-1.74,36.75,4.17-.09.82.69,5.84.83,5.81l1.46-1.86c1.84-4.03.27-10.14-1.87-10.94-6.51-2.42-12.32-4.09-15.92-4.87-4.49-.97-16.92-3.24-22.33-3.08-1.42.04-2.45,1.37-2.15,2.77Z"/>
  <path class="cls-18" d="M926.18,349.73l.08,6.35c0,.97-.47,1.84-1.19,2.16-4.99,2.21-28.71,5.76-27.18,11.39.21.79-.09,4.16-.21,4.16l-1.38-.71c-1.81,0-2.07-8.35-.55-9.59,4.63-3.76,8.85-6.65,11.5-8.18,3.32-1.91,12.56-6.81,16.78-7.82,1.11-.27,2.14.81,2.15,2.24Z"/>
  <path class="cls-22" d="M941.23,425.43s46.56-5.36,57.07-13.49c10.5-8.12,21.82-21.61,30.81-41.13,0,0-11.26,43.16-36.04,49.68-32.68,8.6-50.97,9.25-50.97,9.25l-.87-4.31Z"/>
  <path class="cls-14" d="M828.85,526.96c21.22-52.05,98.29-90.44,105.36-93.57-4,39.57,26.41,40.94,26.41,40.94l11.42,91.85,3.99-.04,8.67-94.19c73.67-23.36,82.19-73.42,82.19-73.42,19.09,3.7,60.33,14.03,96.1,27.33,29.84,15.64,30.14,51.26,41.6,72.61,14.59,27.2,13.55,103.42,30.06,158.32-41.25,17.14,12.61,90.53-6.97,93.98,1.17,5.96,2.12,10.67,3.23,15.99.59,2.43,1.14,5.05,1.65,7.8,1.76,8.11,3.41,15.12,4.88,20.63-.62.06-1.25.11-1.88.17,2.01,18.14,45.99,78.84,53.67,133.9,13.13,94.23-4.95,207.39-5.76,221.36-1.62,27.83-186.04,49.2-266.23,51.39-78.77,2.15-132.64-9.79-147.74-27.17v-76.42c-1.98-42.22-6.43-76.34-11.14-132.71-.37-4.4-.57-8.82-.67-13.23-.61-27.3-3.57-137.06-3.28-137.09l-6.85-65.16c-21.95,2.39-38.57-1.8-47.22-2.67,5.54-63.37,18-194.84,28.5-220.59Z"/>
  <path class="cls-1" d="M881.25,290.32c-2.47-.98-5.4.31-6.8,1.82-.33.35-.92,1.4-1.22,2.99-.38,2.03.62,4.19,2,5.42,1.83,1.65,4.62,1.69,6.63.49,2.73-1.62,3.33-5.17,2.36-7.6-.18-.45-.98-2.32-2.98-3.12"/>
  <path class="cls-1" d="M907.42,295.18s-12.32-7.86-18.22-7.86c-8.61,0-18.64,5.77-21.24,10.3,0,0,13.2-8.45,19.27-8.27,5.8.17,20.2,5.83,20.2,5.83Z"/>
  <path class="cls-1" d="M953.63,283.7c2.23-1.45,6.03-1.49,7.71-.28.39.28,1.46,1.1,2.06,2.6.78,1.91.21,4.23-.89,5.71-1.47,1.98-4.2,2.56-6.41,1.79-3-1.05-4.28-4.41-3.81-6.99.09-.47-.47-1.31,1.33-2.49"/>
  <path class="cls-1" d="M942.71,291s12.09-9.49,18.42-10.3c9.24-1.19,20.83,3.14,24.27,7.27,0,0-15.37-6.54-21.85-5.53-6.2.97-20.83,8.56-20.83,8.56Z"/>
  <g>
    <path class="cls-5" d="M921.28,340.97c3.26,1.35,7.99.56,10.96-1.65.66-.49,3.02-.28,2.1.41-3.93,2.92-10.74,3.75-14.95,2-.42-.18-.37-.49.11-.69.51-.22,1.33-.26,1.78-.07"/>
    <path class="cls-5" d="M935.61,338.72c2.01-1.17,4.32-1.89,6.65-2.28.34-.05.8.03,1.07.24.21.16.28.39.03.56-1.03.71-2.39,1.09-3.66,1.18-.4.03-.94-.02-1.19-.35-.24-.3.13-.54.44-.56,1.05-.07,2.1-.37,2.95-.96.37.27.73.53,1.1.8-2.08.34-4.14,1.01-5.94,2.06-.36.21-.9.14-1.26-.03-.26-.13-.56-.45-.2-.66"/>
    <path class="cls-5" d="M944.95,338.2c2.74-.31,5.87-1.78,7.04-3.95,1.77-3.28-.56-8.03-4.16-9.71-.39-.18-.22-.48.15-.59.48-.15,1.08-.02,1.49.17,3.14,1.47,5.42,5.34,5.23,8.29-.18,2.76-2.65,4.89-5.86,5.96-.96.32-1.98.57-3.01.68-.41.04-1.17-.01-1.41-.32-.24-.31.13-.49.52-.53"/>
    <path class="cls-5" d="M916.12,340.02c.12-.33-.17-.51-.39-.49-.74.08-1.51-.06-2.19-.51-.22.32-.43.63-.65.95,1.5.03,3.03.39,4.43,1.15.28.15.65,0,.87-.21.16-.16.32-.52.04-.68"/>
    <path class="cls-5" d="M918.24,340.24c-1.57-.86-3.28-1.23-4.96-1.27-.25,0-.55.15-.71.39-.12.19-.13.43.06.56"/>
    <path class="cls-5" d="M910.45,340.89c-1.79.09-4-.92-5.05-2.9-1.6-2.99-.68-6.78,1.37-8.96.22-.24.07-.51-.18-.56-.33-.08-.69.14-.93.38-1.79,1.9-2.81,4.82-2.26,7.7.51,2.7,2.38,4.45,4.59,5.05.66.18,1.35.28,2.02.25.27-.01.75-.18.85-.52.11-.34-.15-.46-.41-.45"/>
  </g>
  <g>
    <path class="cls-12" d="M847.85,753.05c-3.99-52.83-5.37-94.98-16.53-146.77"/>
    <path class="cls-20" d="M849.3,752.66c-1.46-19.4-2.65-38.81-4.22-58.2-1.5-18.63-3.41-37.22-6.25-55.69-1.69-11.01-3.71-21.98-6.06-32.87-.14-.64-3.05.06-2.9.78,4.08,18.99,7.13,38.17,9.33,57.46,2.12,18.59,3.51,37.24,4.82,55.9.78,11.14,1.54,22.27,2.38,33.41.04.55,2.96.04,2.9-.78h0Z"/>
  </g>
  <path class="cls-20" d="M1077.52,401.84c.3,3.61-.43,7.43-1.27,10.91-2.27,9.37-7.02,18-13.09,25.44-9.83,12.05-22.99,20.19-35.96,28.45-7.27,4.63-14.59,9.32-22.25,13.29-.43.22-.86.44-1.29.65-.19.09-.38.19-.58.28-.24.11.25-.12.03-.01-.09.04-.19.09-.28.13-.5.22-1,.43-1.51.64-.08.03-.16.06-.24.09-.28.11.45-.13.13-.04-.11.03-.22.07-.33.09-.16.03.53-.08.17-.04.29-.03.23,0,.57,0-.13,0,.27.07.23.06-.58-.2-2.5,0-2.61.86-.42,3.35-.84,6.7-1.25,10.05-1,8-2,15.99-3,23.99-1.21,9.67-2.42,19.34-3.62,29-1.04,8.36-2.09,16.72-3.13,25.08l-1.04,8.31c-.16,1.25-.53,2.66-.49,3.92,0,.06-.02.12-.02.18l2.03-.94c-7.17.26-14.34.53-21.51.79-1.04.04-2.09.08-3.13.11l.86.35c-.63-3.33-1.26-6.66-1.89-9.99-1.52-8-3.03-16-4.55-24-1.84-9.68-3.67-19.36-5.51-29.04-1.59-8.37-3.17-16.75-4.76-25.12l-1.57-8.29c-.23-1.22-.28-2.78-.75-3.95-.02-.05-.02-.12-.03-.18-.04-.21-.38-.31-.54-.33-.22-.02-.44-.06-.65-.1-.78-.15-.81-.16-1.56-.39-2.03-.6-3.99-1.49-5.79-2.59-6.51-3.97-10.96-10.47-13.6-17.52-2.48-6.63-3.5-13.72-3.8-20.77-.03-.77-2.94-.23-2.9.78.46,10.92,2.71,22.43,9.54,31.27,3.49,4.52,8.24,8.19,13.7,9.97,1.05.34,2.15.67,3.26.78l-.54-.33c.63,3.33,1.26,6.66,1.89,9.99,1.52,8,3.03,16,4.55,24,1.84,9.68,3.67,19.36,5.51,29.04,1.59,8.37,3.17,16.75,4.76,25.12.52,2.76,1.05,5.52,1.57,8.29.23,1.22.27,2.78.75,3.95.02.05.02.12.03.18.06.32.63.36.86.35,7.17-.26,14.34-.53,21.51-.79,1.04-.04,2.09-.08,3.13-.11.46-.02,1.94-.27,2.03-.94.42-3.35.84-6.7,1.25-10.05,1-8,2-15.99,3-23.99,1.21-9.67,2.42-19.34,3.62-29,1.04-8.36,2.09-16.72,3.13-25.08l1.04-8.31c.16-1.27.5-2.64.49-3.92,0-.06.02-.12.02-.18l-2.61.86c1.6.54,3.89-.84,5.25-1.48,6.56-3.13,12.76-7.07,18.91-10.91,6.58-4.11,13.08-8.33,19.55-12.6,6.61-4.36,12.82-9.31,18.3-15.03,7.5-7.84,13.61-17.22,16.79-27.65.94-3.08,1.62-6.25,1.95-9.46.1-1.01.17-2.03.19-3.04.01-.48.11-1.13-.01-1.61-.02-.06,0-.14-.01-.2-.07-.8-2.98-.22-2.9.78h0Z"/>
  <path class="cls-20" d="M847.22,736.13c-11.26-.29-22.83-1.3-33.78-3.99-3.55-.87-7.15-1.92-10.33-3.76-1-.58-3.59.8-2.26,1.58,6.13,3.55,13.64,4.81,20.55,5.88,6.78,1.05,13.62,1.67,20.47,2.04,1.44.08,2.87.15,4.31.19.65.02,1.6-.19,1.9-.85.28-.61-.24-1.07-.85-1.09h0Z"/>
  <path class="cls-18" d="M911.66,419.46c-.76-.36.69.64.22.15.34.35.58.78.84,1.19.19.37.23.44.12.19.1.23.19.46.28.69.18.47.33.96.48,1.44.73,2.32,1.53,4.62,3.33,6.33,1.75,1.66,4.31,2.36,6.68,2.16,1.64-.14,3.32-.74,4.61-1.76,1.08-.86,1.71-1.94,2.34-3.13.2-.39.21-.39,0,0-1.27,1.19-2.68,1.56-4.2,1.11-.47-.28-.52-.29-.17-.05.29.26.29.26.01-.02.6.65,1.1,1.4,1.65,2.09,1.59,1.98,3.72,3.22,6.26,3.5,5.19.57,11.6-3.28,11.15-9.1-2.58.96-5.16,1.93-7.74,2.89,3.94,3.06,8.56,5.28,13.66,4.1,4.55-1.05,8.74-5.1,7.91-10.03-2.56,1.26-5.11,2.53-7.67,3.79,3.09,2.99,6.69,5.43,11.21,5.02,2.7-.25,5.26-1.39,7.04-3.47.67-.78,1.17-1.71,1.68-2.6.07-.12.55-.91.28-.52.1-.15.25-.3.33-.45.18-.34-.57.36.13-.09-.65.42-1.43.68-2.23.55-.31-.05-.9-.49-1.15-.51-.11,0-.23-.2.01.07.14.15.19.56-.03-.09.04.13.1.26.14.39.08.32.19.63.28.94.54,1.78,1.48,3.29,3.32,3.96,5.6,2.02,9.67-3.78,13.05-7.25,3.47-3.56,6.93-7.13,10.4-10.69-2.62-.69-5.25-1.37-7.87-2.06-1.02,2.01-1.95,4.07-2.78,6.17-1.01,2.57-3.21,7.52-.25,9.63,3.73,2.65,8.22-.53,10.98-3.08,2.94-2.72,5.63-5.71,8.24-8.75,1.63-1.91,3.24-3.84,4.79-5.81,1.25-1.59.76-3.83-1.22-4.54-2.07-.74-4.75-.12-6.15,1.65-3.15,3.99-6.45,7.91-9.99,11.56-.28.29-.66.59-.9.91.04-.06.71-.68.21-.21-.15.14-.29.28-.43.42-.53.51-1.08,1-1.64,1.47-.38.31-1.08.65-1.38,1.03.5-.66.93-.52.26-.2-.09.04-.2.07-.28.13.48-.32,1.2-.45,1.76-.47.67-.03,2.23.23,2.91,1.16-.25-.34.35,1.01.2.37-.12-.49-.08.94.03.42.02-.08,0-.19,0-.27.04-.29.06-.58.12-.87.03-.15.07-.29.09-.44.07-.43.16.11-.09.32.13-.11.24-.82.3-.99.23-.71.49-1.42.76-2.12.83-2.13,1.78-4.23,2.82-6.28.9-1.77-.6-3.41-2.23-3.84-2.11-.55-4.16.26-5.64,1.78-3.52,3.62-7.05,7.24-10.57,10.87-.91.93-1.82,1.87-2.73,2.8-.45.46-.88.98-1.36,1.4.29-.3.26-.29-.1.03,1.45-.88,2.76-.97,3.94-.26.36.39.43.43.2.11l.17.36c-.13-.34-.23-.69-.34-1.04-.27-.9-.56-1.82-1.08-2.6-1.6-2.44-4.87-2.77-7.45-2.03-2.99.86-4.81,3.07-6.22,5.7-.23.39-.26.45-.09.18-.14.22-.29.42-.45.62.38-.46-.53.19.27-.18.58-.18.61-.2.11-.06.59-.08.63-.09.1-.05.51.05.51.04.02,0-.46-.09-.49-.08-.08.03-1.7-.46-3.3-2.06-4.8-3.51-1.24-1.2-3.93-.91-5.3-.16-1.49.81-2.66,2.16-2.36,3.95-.09-.53-.02.12,0,.26-.04.25-.01.22.08-.09l-.11.31-.13.3c.21-.31.24-.35.08-.13-.12.16-.64.7-.03.15-.17.15-.37.28-.53.44.58-.56.17-.15-.09.02-.46.31.81-.26-.02,0s.43-.27,0-.01c-.22,0-.23,0-.03.01.28.02.2,0-.26-.04-.18-.02-.62-.1-.19,0-.66-.16-1.33-.46-1.94-.76.38.19-.35-.2-.44-.25-.3-.19-.6-.38-.89-.58-.58-.4-1.15-.83-1.71-1.26-1.31-1.02-3.29-.92-4.74-.37-1.19.45-3.11,1.74-3,3.27.04.46.04.92-.05,1.38.12-.59-.14.3-.2.43.23-.32.21-.3-.04.06-.3.35-.29.36.03.02-.33.25-.36.29-.09.1.29-.17.24-.15-.13.04.3-.17.63-.26.98-.25-.49.02-.46.04.08.06-.38-.04-.9-.34-.34-.03-.4-.18-.43-.18-.08.02-.2-.12-.38-.26-.56-.4.41.34-.16-.2-.25-.32-1.04-1.3-1.97-2.77-3.4-3.68-2.5-1.59-5.95-1.24-8.21.64-.97.81-1.56,1.81-2.13,2.91-.37.7.13-.15.31-.3.59-.52,1.37-.68,2.13-.63-.75-.05.45.34-.2-.05-.39-.18-.39-.18.01.01-.17-.12-.34-.25-.49-.39.43.44-.27-.47-.28-.49-.33-.51-.33-.52-.47-.92-.67-1.86-1.16-3.75-2.05-5.52-.97-1.94-2.44-3.31-4.4-4.23s-4.85,0-6.15,1.65-.67,3.65,1.22,4.54h0Z"/>
  <path class="cls-6" d="M1081.71,231.74s-87.45-84.59-202.8-44.34l31.06-59.32s45.34-17.89,102.87-2.21c57.52,15.68,64.7,42.95,64.7,42.95l4.17,62.94Z"/>
  <path class="cls-17" d="M1080.05,191.6c-5.1-3.81-10.42-7.36-15.76-10.82-11.73-7.6-23.87-14.63-36.51-20.62-6.87-3.26-13.9-6.21-21.12-8.59-7.26-2.4-14.67-4-22.24-5.03-17.1-2.32-34.56-2.43-51.73-.94-6.98.61-13.96,1.48-20.83,2.88-4.58.93-9.31,1.99-13.55,4.01-.66.32-1.31.67-1.93,1.07-.26.17.36.11.48.03,3.54-2.34,8.07-3.35,12.15-4.28,6.62-1.52,13.38-2.46,20.14-3.14,16.85-1.7,33.97-1.78,50.8.13,7.76.88,15.42,2.22,22.9,4.48,7.27,2.19,14.34,5.01,21.25,8.16,12.76,5.82,25.01,12.77,36.84,20.29,4.16,2.64,8.27,5.36,12.32,8.17,1.97,1.36,3.87,3.02,5.94,4.23.09.05.17.13.26.19.14.11.69-.14.59-.22h0Z"/>
  <path class="cls-17" d="M1079.19,202.35c-2.28-.05-4.55.21-6.75.82-1.82.51-3.98,1.17-5.42,2.44-.79.7-1.45,2.1-.21,2.72.55.27,1.79.29,1.93-.52.1-.61-.97-1.42-1.33-1.87-.72-.91-1.38-1.86-1.99-2.85-1.25-2.02-2.26-4.18-3.01-6.43-.35-1.04-.64-2.09-.88-3.16-.12-.53-.22-1.07-.31-1.61-.1-.58-.4-2.55.94-1.8.74.42.53,1.38.11,1.95-.59.81-1.59.96-2.51,1.01-1.36.08-2.74.09-4.1.13-1.58.05-3.16.09-4.74.14-1.17.03-2.39,0-3.51.4-1.44.52-2.71,2.02-1.95,3.58.1.21.51.12.61-.06,1.65-3.15.83-6.59-.12-9.83-.54-1.84-1.22-3.7-1.48-5.61-.07-.47.13-3.76.42-3.7.08.02.8,1.49.72,1.66-.26.58-2.01.87-2.58,1.03-1.87.52-3.82.72-5.75.9-3.34.31-6.82.51-9.91,1.95-.98.45-2.75,1.25-2.74,2.57,0,1.05,1.21,1.49,1.98.92.06-.05.14-.11.11-.2-.89-3.35-1.78-6.7-2.67-10.05-.42-1.59-.85-3.19-1.27-4.78-.21-.8-.42-1.59-.64-2.39-.14-.52-.66-1.78-.41-2.31.17-.36,1.04-.73,1.36-.39s.28.89.17,1.26c-.25.88-1.18,1.35-1.94,1.73-1.54.78-3.11,1.49-4.66,2.24-3.15,1.51-6.31,3.02-9.46,4.53-.39.19-.04.45.26.31,2.55-1.22,5.11-2.45,7.66-3.67,2.32-1.11,4.73-2.12,6.98-3.36,1.08-.6,2.37-1.69,1.71-3.05-.47-.98-1.77-1.28-2.45-.32-.33.46-.31,1.08-.24,1.62.17,1.25.63,2.51.95,3.73.7,2.63,1.4,5.26,2.1,7.9.34,1.28.68,2.55,1.02,3.83.17.64.34,1.28.51,1.91.05.2.29.81.25.96-.2.75-.65-.3-.62-.69.12-1.21,2-1.89,2.99-2.28,1.21-.48,2.48-.78,3.75-.99,4.7-.78,9.64-.46,14.01-2.65.08-.04.22-.13.18-.24-.18-.58-.76-2.73-1.75-2.04-.85.59-.82,2.98-.74,3.89.44,5.19,4.39,10.38,1.69,15.57l.61-.06c-.61-1.28.22-2.57,1.47-3.04,1.1-.42,2.37-.35,3.54-.38,2.5-.07,4.99-.15,7.49-.22,1.47-.04,3.29-.03,4.26-1.35.62-.84.65-2.14-.46-2.56-.69-.26-1.8-.06-2,.76-.17.68.23,1.82.36,2.51.19,1.01.44,2,.74,2.98,1.16,3.87,3.07,7.52,5.62,10.66.13.16.26.32.39.47.13.16.26.31.4.46l-.43.6c-.81.1-.74-1.18-.52-1.59.6-1.15,2.26-1.71,3.38-2.16,2.75-1.11,5.69-1.61,8.65-1.54.27,0,.65-.39.23-.4h0Z"/>
  <path class="cls-17" d="M1006.82,176.86c-.77-.12-1.64.13-2.37.33-.6.17-1.81.45-2.13,1.08-.5.99,1.9,1.95,2.33.79.25-.7-.23-1.79-.46-2.43-.51-1.46-1.17-2.87-1.84-4.26-1.47-3.01-3.21-5.85-4.83-8.77-.52-.93-1-2-.87-3.1.05-.48.23-1.03.53-1.41.74-.94,1.87-.75,2.41.13.97,1.6-1.54,2.15-2.65,2.48-1.35.4-2.69.8-4.04,1.2-3.7,1.1-7.6,1.93-10.96,3.91-1.01.6-2.18,1.32-2.8,2.35-.33.55-.51,1.8.36,2.05.59.17,1.44-.48,1.64-.99.42-1.08-.45-2.5-.98-3.38-1.54-2.57-3.69-4.53-5.7-6.72-1.51-1.64-5.39-5.75-2.38-7.73l-.54.08c3.18,2.16-1.45,4.76-3.28,5.74-2.96,1.6-6.46,2.6-9.11,4.71-1.07.85-5.75,5.26-2.53,6.02.59.14,1.32-.02,1.35-.73.05-1.11-1.33-2.54-1.96-3.32-1.25-1.54-2.66-2.9-4.07-4.29-2.04-2.01-4.04-4.78-3.08-7.78l-.56.18c.98.25.84,1.31.5,2.05-.57,1.27-1.91,1.99-3.07,2.66-2.14,1.23-4.44,2.16-6.58,3.4-2.5,1.45-4.84,3.81-6.3,6.31-.3.51-1,1.64-.33,2.14.44.33,1.76.23,2.12-.23.53-.7-.64-1.8-1.07-2.24-1.37-1.42-3.05-2.43-4.71-3.48-2.07-1.3-3.89-2.76-5.36-4.72-1.23-1.63-2.9-4.35-1.26-6.24l-.58.12c1.16,1.76-.05,3.92-1.17,5.37-1.44,1.88-3.27,3.19-5.26,4.43-3.15,1.96-6.62,4.55-6.9,8.56,0,.07.05.09.11.1.88.16,1.73-.38,1.86-1.31.24-1.83-2.79-2.94-3.99-3.63-1.12-.65-2.25-1.3-3.36-1.96-.85-.51-1.87-1.1-2.22-2.1-.39-1.13.05-2.7.39-3.8.08-.25.15-.5.27-.73.25-.48.21-.41.21.09,0,.81-.07,1.56-.3,2.34-.52,1.71-1.52,3.26-2.62,4.65-2.33,2.95-5.36,5.52-8.68,7.28-.37.2.2.23.37.14,3.94-2.09,7.66-5.31,10.07-9.08.97-1.52,1.81-3.27,1.8-5.11,0-.49.09-1-.48-1.06-.34-.04-.62.24-.8.49-.75,1.05-1.07,3.07-.97,4.33.08.97.71,1.67,1.47,2.22,1.33.96,2.85,1.71,4.27,2.54,1.1.64,2.56,1.23,3.44,2.2.42.47.9,1.43.12,1.79-.56.26-.3-.08-.21-.51.07-.33.16-.66.28-.98.93-2.54,3.21-4.33,5.39-5.77s4.49-2.82,6.21-4.99c1.23-1.56,2.54-3.82,1.29-5.72-.1-.14-.5.03-.58.12-2.12,2.45.78,6.08,2.47,7.91,2.58,2.8,6.32,4.07,8.93,6.82.33.35.99.93,1.03,1.44.06.69-1.31.76-1.19-.2.14-1.17,1.24-2.36,1.96-3.22,1.02-1.23,2.16-2.39,3.44-3.36,1.65-1.26,3.64-2.07,5.49-2.99,1.68-.83,4-1.77,5.17-3.31.64-.85,1.29-2.65-.16-3.02-.15-.04-.51,0-.56.18-1.28,3.97,2.27,6.97,4.74,9.49,1.15,1.17,2.27,2.4,3.24,3.74.38.52.81,1.11,1.01,1.73.05.15.16.39.11.54-.14.4-.79.14-1.04-.17-.92-1.16,1.25-3.16,1.95-3.91,1.49-1.59,3.23-2.59,5.19-3.5,2.41-1.13,4.89-2.15,7.12-3.62,1.76-1.16,4.08-3.25,1.56-4.96-.15-.1-.4,0-.54.08-4.06,2.66,2.81,8.57,4.67,10.48,1.68,1.72,3.72,3.98,4.26,6.38.11.49.2,1.36-.43,1.53s-.68-.85-.52-1.29c.47-1.28,2.17-2.18,3.28-2.79,3.62-1.97,7.85-2.81,11.78-3.98,1.11-.33,2.22-.66,3.33-.99.61-.18,1.29-.33,1.81-.71.99-.71.81-1.98-.21-2.6-.76-.46-1.68-.32-2.38.18-1.11.8-1.34,2.27-1.02,3.52.41,1.56,1.49,2.94,2.29,4.33s1.49,2.64,2.19,3.98c.79,1.52,1.55,3.05,2.22,4.62.47,1.09,1.02,2.28,1.16,3.47.02.18.08.42.02.59-.08.23-.06.15-.13.16-.53.08-1.23-.58-.95-1.06.43-.74,2.68-1.13,3.46-1,.17.03.73-.25.39-.3h0Z"/>
  <path class="cls-3" d="M463.54,720.66c10.44,1.47,20.62,4.34,30.27,8.56.66.29,2.64-.66,1.73-1.06-9.78-4.27-20.1-7.2-30.67-8.69-.49-.07-1.18.02-1.54.41-.27.3-.3.71.21.78h0Z"/>
  <path class="cls-26" d="M1178.39,758.33l-6.47-41.49c6.73-.11,22.6,4.95,108.31-14.5,17.06,67.44,14.42,111.21-8.57,135.41-41.44,39.94-181.13,16.4-181.13,16.4l-58.48-73.86,146.34-21.94Z"/>
  <path class="cls-26" d="M1078.94,845.08l-93.59-1.59s-46.2,18.14-67.99,20.08c-15.86.87-36.13.96-52.09-2.16l-21.93,4.68c-4.86,1.11-9.88,1.3-14.81.57l-8.51-1.25s-18.46,13.31-24.11,7.96c-5.65-5.34-.39-12.1,4.71-18.66,5.11-6.56,108.3-67.81,108.3-67.81-13.3-3.03-20.77-7.13-34.22-8.13-20.66-1.39-33.02-10.68-30.2-20.22,1.98-6.7,26.36-4.76,44.16,1.05,11.57,3.78,33.95-3.86,54.87.16,20.91,4.02,37.92,18.58,37.92,18.58,8.14,2.52,28.08,4.58,28.08,4.58.79,1.41,69.41,62.15,69.41,62.15Z"/>
  <path class="cls-3" d="M820.48,866c8.03-3.35,16.06-6.69,24.09-10.04,12.8-5.33,25.6-10.67,38.4-16,2.94-1.23,5.88-2.45,8.82-3.68,1.38-.58.15-1.62-.93-1.17-8.03,3.35-16.06,6.69-24.09,10.04-12.8,5.33-25.6,10.67-38.4,16-2.94,1.23-5.88,2.45-8.82,3.68-1.38.58-.15,1.62.93,1.17h0Z"/>
  <path class="cls-3" d="M868.97,861.33c8.02-.38,16.31-2.11,23.72-5.19,3.04-1.26,5.93-2.83,8.56-4.81.4-.3.18-.63-.2-.75-.5-.15-1.15.12-1.54.41-5.54,4.17-12.45,6.32-19.17,7.69-2.51.51-5.05.9-7.6,1.18-.75.08-1.49.15-2.24.21-.23.02-.45.03-.68.05-.16.01.27-.01,0,0-.41.02-1.26.13-1.44.59-.16.42.14.65.59.62h0Z"/>
  <path class="cls-26" d="M1171.45,754.38c.94-.1,7.85-.39,8.8-.49,2.99,2.36-.19,5.19,2.37,8.05,14.5,16.23,22.55,38.59,24.79,60.02,1.39,13.26-47.7,24.12-52.55,36.75-97.16-3.32-169.5-16.22-169.5-16.22l-7.7-58.04,193.8-30.07Z"/>
  <path class="cls-3" d="M1177.51,755.71c3.03-.65,6.27-.3,9.29.21,3.81.65,7.57,1.75,11.15,3.2,6.75,2.74,12.53,7.15,17.24,12.7,2.32,2.73,4.85,6.13,5.08,9.84.03.43,2.21.05,2.17-.58-.2-3.29-2.24-6.28-4.21-8.8-2.35-3-5.12-5.71-8.09-8.08-6.08-4.86-13.77-7.79-21.39-9.12-3.54-.62-7.31-1-10.85-.23-.27.06-1.24.24-1.27.61s.64.3.88.25h0Z"/>
  <path class="cls-3" d="M825.05,839.27c9.87-6.63,19.59-13.49,29.37-20.26,1.21-.84-.58-1.5-1.42-.92-9.78,6.77-19.5,13.63-29.37,20.26-1.22.82.58,1.49,1.42.92h0Z"/>
  <path class="cls-14" d="M1149.32,483.34c-16.7,13.61-24.41,25.55-25.94,40.3-2,19.37,19.43,169.86,34.13,223.78,0,0,64.52,16.73,151.79-22.79,0,0-41.46-188.41-52.16-217.06-10.7-28.65-39.01-65.9-100.86-85.79"/>
  <path class="cls-20" d="M1148.14,476.03c-10.4,8.53-18.27,19.88-22.73,32.56-2.27,6.47-3.74,13.25-3.6,20.12.27,13.06,1.95,26.15,3.48,39.11,2.35,19.87,5.11,39.7,8.09,59.49,3.2,21.31,6.67,42.58,10.55,63.78,3.17,17.37,6.51,34.76,10.86,51.88.41,1.62.83,3.23,1.27,4.84.07.26.35.41.58.47,2.36.61,4.78,1.01,7.18,1.39,6.73,1.07,13.53,1.68,20.34,1.98,10.39.45,20.82.15,31.18-.77,13.63-1.21,27.17-3.52,40.46-6.76,16.32-3.98,32.28-9.39,47.73-15.99,2.13-.91,4.25-1.85,6.37-2.8.46-.21,1.14-.74.74-1.29s-1.46-.32-1.94-.1c-15.5,7-31.52,12.81-47.97,17.16-13.34,3.52-26.93,6.09-40.66,7.55-10.59,1.12-21.26,1.6-31.9,1.29-7.11-.21-14.21-.75-21.25-1.78-1.87-.27-3.82-.6-5.81-.99-.7-.14-1.91-.67-2.62-.57-.03,0-.08-.02-.12-.03l.58.47c-4.4-16.16-7.62-32.65-10.72-49.1-3.93-20.88-7.42-41.83-10.65-62.83-3.12-20.24-6.01-40.52-8.52-60.85-1.75-14.13-3.53-28.34-4.22-42.58-.24-4.93-.05-9.54.96-14.41,2.57-12.42,8.62-24.17,17.18-33.52,2.33-2.55,4.85-4.91,7.51-7.1.52-.42.23-1-.31-1.17-.7-.23-1.52.11-2.05.55h0Z"/>
  <path class="cls-20" d="M1303.33,709.91c-4.75,1.88-9.55,3.63-14.35,5.35-11.09,3.98-22.27,7.7-33.57,11.04-12.69,3.76-25.56,7.15-38.65,9.22-14.06,2.22-28.63,2.85-42.84,1.81-6.11-.45-12.12-1.32-18.05-2.85-.07-.02-.15-.05-.22-.07-.62-.21-1.48.02-2.04.33-.3.17-.96.69-.31.91,4.73,1.61,9.97,2.19,14.9,2.69,14.29,1.46,28.94.96,43.18-.82,13.15-1.65,26.11-4.89,38.84-8.49s24.06-7.31,35.92-11.49c6.02-2.12,12.06-4.24,17.98-6.64.09-.04.18-.07.27-.11.37-.15,1.12-.48.83-.96-.27-.44-1.58-.04-1.89.08h0Z"/>
  <g>
    <path class="cls-9" d="M315.6,556.73c-16.62,0-30.18-13.62-30.18-30.34s13.56-30.29,30.18-30.29,30.18,13.62,30.18,30.34-13.51,30.34-30.18,30.34v-.05ZM315.6,503.46c-12.58,0-22.83,10.3-22.83,22.94s10.25,22.94,22.83,22.94,22.83-10.3,22.83-22.94-10.25-22.94-22.83-22.94Z"/>
    <path class="cls-4" d="M404.96,608.09c-4.56-.72-17.5-.93-27.28.41-26.35,3.57-49.49,18.59-53.17,21.07h-1.5c-3.68-2.38-27.34-17.14-53.74-20.66-10.98-1.45-18.22-1.4-22.99-1.35h-4.09c-.98,0-1.76.78-1.81,1.76,0,.98.72,1.86,1.76,1.92h4.19c4.71,0,11.8-.1,22.52,1.35,27.28,3.62,52.45,20.24,52.7,20.4l.47.31h3.73l.47-.31c.26-.16,24.85-17.08,52.08-20.76,9.47-1.29,21.9-1.09,26.25-.41.98.16,1.92-.52,2.07-1.5s-.52-1.92-1.5-2.07h0l-.16-.16Z"/>
    <g>
      <path class="cls-4" d="M316.89,634.76c-7.51-4.19-23.71-12.01-44.21-14.96-28.63-4.09-37.33-1.24-37.33-1.24l12.68,43.07s33.19-7.14,68.86,11.55v-38.42h0Z"/>
      <path class="cls-4" d="M376.22,619.07c-20.92,2.23-37.17,11.03-44.47,15.69v38.62c32.36-17.08,69.12-11.65,69.12-11.65l12.68-43.07s-8.59-2.64-37.33.47v-.05Z"/>
      <path class="cls-4" d="M327.51,637.5h-6.06s-.1-.05-.31-.21v37.12h6.37v-36.97h0v.05Z"/>
    </g>
    <g>
      <path class="cls-9" d="M329.68,532.66c-.26-.26-.67-.36-1.35-.31-.52.05-1.04.47-1.5.83-.26.21-.52.41-.72.52-4.4,2.38-9.89,3.05-15.48,1.92-2.17-.47-4.19-1.45-6.06-2.43-.26-.16-.52-.31-.78-.52-.67-.47-1.4-.98-1.97-.47-.62.62-.78,1.66-.31,2.74.05.16.16.26.21.41.05.1.16.21.21.31,2.28,4.66,8.49,6.32,13.56,6.32h0c5.85,0,10.25-1.92,13.1-5.69.52-.67.88-1.45,1.09-2.23.1-.47.21-1.09-.1-1.45l.1.05Z"/>
      <path class="cls-9" d="M302.81,525.67c.72.16,1.4-.1,1.92-.72v-.1c.57-.57,1.09-1.19,1.6-1.71.72-.62,1.29-.62,2.07,0,.62.52,1.19,1.19,1.55,1.71.47.57,1.04.88,1.66.88s.72-.1,1.04-.36c.41-.31.72-.72.78-1.24.1-.52,0-1.04-.36-1.45-.67-.88-1.29-1.6-1.97-2.23-1.09-.98-2.33-1.55-3.73-1.66h-.52c-.36.05-.72.1-1.04.26-1.76.62-3.16,1.86-4.3,3.83-.26.47-.21,1.14-.16,1.35.16.72.67,1.24,1.45,1.35v.1Z"/>
      <path class="cls-9" d="M319.17,525.62c.16,0,.31.05.47.05.57,0,1.09-.26,1.55-.78l.21-.26c.41-.52.88-1.04,1.35-1.5.78-.67,1.4-.67,2.17,0,.57.47,1.09,1.09,1.5,1.66.21.26.47.52.83.67l-.31.16h1.09c.72,0,1.29-.31,1.66-.93.36-.67.36-1.35,0-1.97-.83-1.35-1.86-2.33-3-3.05-1.4-.88-2.8-1.09-4.09-.62-1.81.57-3.31,1.86-4.56,3.93-.16.26-.21.67-.16,1.04.1.78.57,1.35,1.4,1.55l-.1.05Z"/>
    </g>
    <path class="cls-9" d="M396.47,600.9h0c-4.3-10.15-12.01-18.33-21.59-22.88-4.35,6.06-11.39,9.99-19.36,9.99s-13.82-3.31-18.17-8.49c-11.44,6.58-19.73,18.53-21.9,32.67-22.06-12.89-46.85-15.43-53.17-15.84,2.43-14.34,10.82-28.22,23.35-38.21l3.73-3c1.71-1.35,1.97-3.83.62-5.54-1.35-1.71-3.83-1.97-5.54-.62l-3.73,3c-16,12.79-25.99,31.32-26.97,49.91,6.58.05,32.67,1.45,61.09,17.5h0c3,1.71,6.06,3.62,9.06,5.69,20.76-16.83,46.65-21.95,61.25-23.45h.41c6.58-.72,10.41-.52,10.92-.52,0,0,0-.1-.05-.16h0l.05-.05Z"/>
    <path class="cls-9" d="M355.46,544.88c-10.51,0-19.05,8.59-19.05,19.1s8.54,19.1,19.05,19.1,19-8.59,19-19.1-8.54-19.1-19-19.1h0ZM345.47,561.96c0-.26,0-.57.1-.78.67-1.14,1.55-2.02,2.8-2.49.31-.1.67-.16.98-.21.93.05,1.76.41,2.38,1.04.47.47.93.93,1.29,1.5s.26,1.19-.26,1.55-1.14.21-1.55-.31c-.31-.41-.67-.83-1.09-1.19-.57-.47-1.04-.47-1.6,0-.41.36-.78.78-1.14,1.24-.31.36-.67.52-1.09.41s-.72-.36-.83-.78h0ZM364.63,570.71c-.1.47-.36.88-.67,1.29-1.29,1.6-3.47,2.69-5.54,3.11-1.04.21-2.12.31-3.16.47-2.49-.1-4.87-.62-6.89-2.07-.62-.47-1.14-1.09-1.66-1.66-.1-.1-.21-.26-.26-.41-.26-.57-.21-1.14.16-1.45s.98.31,1.55.62c1.24.62,2.49,1.19,3.88,1.5,3.37.62,7.09.36,10.15-1.14.41-.21.88-.78,1.35-.83.78-.1,1.19,0,1.04.72h0l.05-.16ZM366.13,562.22c-.21.36-.52.52-.93.52s-.67-.21-.93-.52c-.31-.41-.67-.78-1.04-1.14-.57-.52-1.09-.52-1.71,0-.41.36-.72.78-1.09,1.19-.31.36-.72.57-1.19.41-.47-.1-.72-.41-.83-.93,0-.21,0-.41.1-.62.72-1.19,1.6-2.12,2.95-2.59.93-.31,1.81-.1,2.64.41s1.45,1.19,1.97,2.02c.26.36.26.78,0,1.14h0l.05.1Z"/>
  </g>
</svg>