<?xml version="1.0" encoding="UTF-8"?>
<svg xmlns="http://www.w3.org/2000/svg" viewBox="0 0 1334 1000">
  <defs>
    <style>
      .cls-1 {
        fill: #f7ad1a;
      }

      .cls-2 {
        fill: #18536d;
      }

      .cls-3 {
        fill: #b05e27;
      }

      .cls-4 {
        fill: #003045;
      }

      .cls-5 {
        fill: #1b1312;
      }

      .cls-6 {
        fill: #d78700;
      }

      .cls-7 {
        fill: #123a43;
      }

      .cls-8 {
        fill: #cd8c2a;
      }

      .cls-9 {
        fill: #ace0ef;
      }

      .cls-10 {
        fill: #989177;
      }

      .cls-11 {
        fill: #0d3a59;
      }

      .cls-12 {
        fill: #6b3825;
      }

      .cls-13 {
        fill: #31150d;
      }

      .cls-14 {
        fill: #fff;
      }

      .cls-15 {
        fill: #b82d24;
      }

      .cls-16 {
        stroke: #171413;
        stroke-miterlimit: 10;
        stroke-width: .15px;
      }

      .cls-17 {
        fill: #432519;
      }

      .cls-18 {
        fill: #6f1303;
      }

      .cls-19 {
        fill: #141211;
      }

      .cls-20 {
        fill: #de8b26;
      }

      .cls-21 {
        fill: #a4a4a4;
      }

      .cls-22 {
        fill: #221e1f;
      }

      .cls-23 {
        fill: #3f261b;
      }

      .cls-24 {
        fill: #f0edf6;
      }

      .cls-25 {
        fill: #af6b4e;
      }

      .cls-26 {
        fill: #efebf5;
      }

      .cls-27 {
        fill: #4f2e25;
      }
    </style>
  </defs>
  <g id="Layer_1" data-name="Layer 1">
    <rect class="cls-9" x="-34.38" y="-40.04" width="1405.56" height="1093.4" rx="12" ry="12"/>
    <path class="cls-25" d="M941.16,455.34c-5.97,2.29-53.44,2.35-66.68,50.12-13.24,47.76-20.89,184.98-27.55,227.1-8.42,49.07-12.44,126.94-18.57,190.22l.1,100.28,44.65.17s35.71-264.03,58.88-330.74c23.17-66.72,9.17-237.14,9.17-237.14Z"/>
    <path class="cls-15" d="M888.82,773.79s1.42-29.79-4.87-52.25c-6.29-22.46-23.1-33.9-22.55-56.19.55-22.28,8.93-59.19,8.93-59.19l44.7,19.73,15.05,64.09-41.26,83.81Z"/>
    <ellipse class="cls-14" cx="667.72" cy="214.92" rx="171.75" ry="140"/>
    <polygon class="cls-14" points="806.27 245.85 877.11 329.46 768.89 310.26 806.27 245.85"/>
    <path class="cls-4" d="M632.57,176.73c1.66-4.82,4.12-8.91,7.39-12.29,3.27-3.38,7.23-6,11.88-7.89,4.65-1.88,9.97-2.82,15.95-2.82,4.65,0,9,.69,13.04,2.08,4.04,1.39,7.61,3.41,10.71,6.06,3.1,2.66,5.54,5.87,7.31,9.63,1.77,3.77,2.66,8.08,2.66,12.96,0,6.2-1.36,11.46-4.07,15.78-2.71,4.32-6.17,8.47-10.38,12.46-3.43,3.43-6.17,6.12-8.22,8.06-2.05,1.94-3.57,3.85-4.57,5.73-1,1.88-1.66,4.18-1.99,6.89-.33,2.71-.55,6.62-.66,11.71h-10.46c-.11-5.09.17-9.36.83-12.79.67-3.43,1.74-6.53,3.24-9.3,1.5-2.77,3.49-5.42,5.98-7.97,2.49-2.55,5.51-5.42,9.05-8.64,3.1-2.88,5.67-6.09,7.72-9.63,2.05-3.54,3.07-7.47,3.07-11.79,0-3.32-.64-6.37-1.91-9.13-1.27-2.77-2.99-5.12-5.15-7.06-2.16-1.94-4.68-3.46-7.56-4.57-2.88-1.11-5.92-1.66-9.13-1.66-4.43,0-8.36.78-11.79,2.33-3.43,1.55-6.26,3.68-8.47,6.4-2.22,2.71-3.88,5.9-4.98,9.55-1.11,3.65-1.61,7.64-1.49,11.96h-10.46c0-5.87.83-11.21,2.49-16.03ZM673.43,257.21v17.61h-13.95v-17.61h13.95Z"/>
    <path class="cls-15" d="M914.25,647.64c-14.28-1.1-28.51-2.81-42.61-5.3-6.55-1.16-26.25-4.83-37.33-15.9,17.23-49.87,29.36-93.57,37.19-124.08,12.33-48.01,60.91-48.98,66.84-51.38,0,0,13.97,137.89.77,214.38-7.72-.28-17.16-17.12-24.86-17.71Z"/>
    <path class="cls-7" d="M889.41,1578.49c-11.34-171.76-25.14-324.54-24.86-393.73l-3.56-250.03c.93-5.59,8.63-11.16,9.47-16.72,7.41,1.32,5.46,2.4,13.03,3.07,24.71,2.2,49.68.86,74.13-2.84,50.6-7.65,98.78-25.23,144.94-44.9,18.28-7.79,36.32-16,54.32-24.3l61.19,45.52c35.42,68.36,32.95,100.56,26.09,165.05-4.21,39.62-10.95,127.81-17.59,217-16.81,225.63-28.12,484.66-28.12,484.66,0,0-58.59,27.31-183.06,21.57-27.68-1.28-113.65-16.24-113.65-16.24-5.38-45.29-9.74-149.02-12.32-188.12Z"/>
    <path class="cls-15" d="M888.82,773.79c-.06,12.49-11.66,76.93-14.54,88.7,10.66,3.6,27.24-2.78,38.34-.77,48.49,8.75,98.33,2.72,145.88-8.58,40.67-9.67,80.18-23.4,119.5-37.53l-1.12-2.76,24.42-345.96-71.44-32.29-16.09-8.43-6.08,15.82c-14.7,17.73-33.17,27.72-57.05,27.89-6.99.05-14.34-.37-21.79-1.33-20.79-2.68-49.85-17.69-59.25-33.95-.35-.61-15.56,4.71-18.51,5.73-20,6.91-34.06,16.99-50.63,23.81,0,0-15.42,21.45-18.05,80.76"/>
    <path class="cls-25" d="M969.59,434.59c10.62-3.55,16.46-6.36,17.55-10.89,1.6-6.62-2.06-57.22-2.06-57.22l119.46-44.54s-15.32,56.52-1.62,95.65c1.91,5.46,17.7,11.73,17.7,11.73l-25.07,27.64c-24.88,21.2-56.99,29.28-84.97,25.4-15.86-2.2-19.53-3.1-32.06-8.02,0,0-24.43-11.4-8.93-39.75Z"/>
    <path class="cls-27" d="M987.95,412.09s12.07-3.76,20.17-5.46c8.1-1.7,21.69-.31,60.48-29.64,0,0-13.39,38.36-60.74,43.58,0,0-12.26,1.71-20.08-.75l.17-7.73Z"/>
    <path class="cls-25" d="M963.02,170.5c-.14.27-.33.55-.52.81.18-.13.36-.25.53-.37v-.44ZM942.01,175.81v.37c.34-.27.66-.55.95-.83,0-.44-.95.46-.95.46ZM1099.92,337.86l2.45-7.35c9.52,13.34,25.81,3.18,27.03-15.57,5.26-9.3,12.62-40.42,5.06-50.22l-.91-1.43c-5.37-4.29-15.02-6.28-19.18.86-1.37,3.11-.33,7.06-1.7,10.17-1.36,3.56-6.5,10.28-8.83,13.41,0,0-2.79-18.01-2.5-26.38.29-8.38-5.99-32.48-21.12-44.04,0,0-.16-29.52-7.07-38.18l-2.42-.83c-1.44.03-2.39.49-3.83.52,0-.44.46-.89.44-1.77-2.38.93-4.31.53-6.23.57.47-.45,1.42-.91,1.41-1.35-1.91.48-3.84.08-5.76.13.47-.45,1.41-1.35,1.4-1.79-2.38.93-3.84.08-5.76.13.47-.45.93-1.34.92-1.78-1.9.92-3.83.52-5.75.57.47-.45.93-1.34,1.4-1.79-2.38.93-3.84.08-5.75.13-.48.01.94-.9.93-1.34-1.43.47-3.35.51-4.79.55,0-.44.94-.9.93-1.34-2.86.94-4.32.09-6.24.14l1.4-1.79c-1.89,1.36-3.81,1.4-5.73,1.01.47-.45,1.41-1.35,1.4-1.79-2.37,1.37-5.24,1.87-7.66,1.05.48-.01,1.41-1.35,1.4-1.79-2.36,1.81-4.29,1.42-6.69,1.47.47-.45.93-1.34,1.87-2.25-2.84,1.83-6.18,2.78-9.09,1.52.48-.01.93-1.34.92-1.78-1.88,1.8,1.67-.48-.74-.87,0,0-5.48,1.89-5.49,1.44-1.89,1.36,4.9-7.58,2.5-7.53.46-.89-13.75,1.12-12.81.22-2.36,1.81-1.89.89-4.78.52,0,0-9.86,5.49-9.39,5.04-2.35,2.26-3.47.43-6.36.05.47-.45,1.77,1.81,2.24,1.36-1.88,1.8-1.3-.41-3.7-.36,0-.44-7.91-2.69-7.92-3.13-2.37,1.37-1.58,1.55-4.46,1.61,0-.44-1.7,4.89-1.23,4.44-1.88,1.8-1.82.36-4.23-.03l-2.34,1.69c-2.35,2.25.92,1.22-1.97.84,0-.31,10.86,1.14,11.29.55-1.79,1.23-3.95,2.41-6.12,2.86,0-.44.45-1.33.44-1.77-1.88,1.8-4.73,3.19-7.62,2.81.48-.01.94-.9.93-1.34-2.35,2.25-5.2,3.64-8.11,2.38v-.07c-1.82,1.5-4.22,2.88-6.65,3.3-.03-1.32.92-1.78.92-1.78l-1.92.04c-2.32,3.58-4.65,6.71-5.52,11.14,0,0-16.24,25.6-15.41,41.88.84,16.28,4.4,44.01,5.03,51.04.55,6.1.21,15.72-.39,22.09-1.35,14.24-1.34,18,2.5,32.18,3.71,13.72,7.31,21.03,15.42,32.74,8.45,12.22,20.39,22.73,31.69,33.05,7.45,6.8,8.28,12.57,28.49,12.48,29.77-.14,58.82-20.04,77.39-39.58"/>
    <path class="cls-3" d="M925.78,205.91c11.08-25.91,40.61-40.77,101.12-49.47,60.51-8.7,108.42,12.46,108.42,12.46-30.1-86.29-118.19-81.54-137.84-81.11-19.65.43-119.44,79.21-84.71,150.53l1.78,6.77s9.23-34.47,11.24-39.18Z"/>
    <path class="cls-3" d="M1150.52,150.51s6.1-54.6-34.04-72.02c-53.63-23.27-126.29-32.48-151.05,24.02l185.09,48Z"/>
    <path class="cls-20" d="M1147.91,282.73c4.3-4.53,2.85-17.1,6.52-22.15,19.19-26.49,12.34-51.88,4.47-66.88-3.43-6.53.95-18.21.51-23.99-2.3-30.3-5.8-31.16-51.58-61.33-37.26-24.55-77.03-22.55-100.04-20.83-36.85,2.77-53.06,5.42-65.4,31.86-1.61,3.45.26,6.16-1.05,10.3-1.87,5.85-10.97,6.68-12.33,14.08,0,0,47.75,18.03,88.83,39.09,41.07,21.06,115.03,104.45,112.63,129.97-.08.8,12.7-25.11,17.46-30.12Z"/>
    <path class="cls-3" d="M1166.82,224.76s-71.46-84.38-147.6-83.48c0,0,97.15-14.82,141.88,54.57l1.09,2.78c2.86,7.34,4.41,15.12,4.57,22.99l.06,3.13Z"/>
    <path class="cls-3" d="M940.3,130.73l5.12-2.04c11.9-4.74,24.43-7.73,37.18-8.88l21.38-1.93s-51.9-7.94-63.12,5.4l-.56,7.44Z"/>
    <path d="M1095.96,252.71l3.48,42.79,14.65-19.24s-12.91-16.88-18.13-23.55Z"/>
    <path class="cls-22" d="M1110.07,294.54c1.46-.02,3.69.02,4.07,1.81.31,1.44-.49,3.11-.99,4.42-1.08,2.82-2.94,6.73-.59,9.42,2.79,3.19,6.87-1.46,8.27-3.77,2.11-3.48,3.12-7.47,2.78-11.51-.35-4.1-1.37-9.86-5.67-11.63-.42-.18-1.75.45-1.16.69,3.76,1.55,4.8,6.47,5.25,10.08s.04,6.91-1.52,10.38c-.92,2.06-2.32,4.45-4.33,5.62-1.43.83-2.55-.34-3.03-1.71-1.07-3.06,1.1-6.52,2.02-9.35.38-1.16.81-2.66.11-3.78-.91-1.47-3.15-1.49-4.65-1.47-.53,0-1.54.82-.57.81h0Z"/>
    <path class="cls-3" d="M1121.59,232.65s27.63,27.34,29.94,38.36l2.9-10.43s-8.55-19.83-32.83-27.93Z"/>
    <g>
      <path d="M974.61,326.3c3.49,1.94,8.89,1.65,12.51-.45.8-.47,3.42.08,2.3.73-4.78,2.77-12.53,2.84-17.03.34-.45-.25-.36-.59.22-.77.59-.18,1.53-.12,2.01.15"/>
      <path d="M990.99,325.61c2.41-1.06,5.09-1.57,7.75-1.71.39-.02.89.14,1.17.4.22.21.26.47-.04.63-1.24.67-2.82.92-4.25.85-.45-.02-1.05-.15-1.29-.54-.23-.36.22-.58.57-.57,1.19.05,2.4-.15,3.43-.7.38.34.76.69,1.14,1.03-2.38.12-4.78.6-6.93,1.55-.43.19-1.03.04-1.41-.19-.28-.17-.57-.57-.14-.76"/>
      <path d="M1001.54,326.22c3.12,0,6.81-1.25,8.4-3.53,2.4-3.46.4-9.09-3.43-11.44-.42-.26-.18-.57.25-.65.56-.1,1.22.12,1.65.39,3.33,2.05,5.41,6.68,4.81,9.97-.56,3.07-3.59,5.15-7.34,5.94-1.11.24-2.3.38-3.46.38-.47,0-1.32-.16-1.54-.54-.22-.38.21-.53.65-.53"/>
      <path d="M968.95,324.57c.18-.35-.13-.59-.38-.59-.84,0-1.69-.26-2.39-.85-.28.33-.57.65-.85.98,1.68.23,3.35.82,4.83,1.86.29.21.73.09,1-.13.2-.16.43-.55.13-.76"/>
      <path d="M971.3,325.08c-1.65-1.16-3.53-1.8-5.4-2.06-.27-.03-.64.1-.84.35-.16.2-.2.46,0,.63"/>
      <path d="M962.48,324.82c-2.02-.13-4.37-1.54-5.3-3.9-1.41-3.56.1-7.7,2.69-9.88.28-.24.14-.56-.13-.66-.36-.13-.79.07-1.09.31-2.25,1.9-3.77,5.05-3.52,8.36.23,3.09,2.11,5.3,4.51,6.26.71.28,1.48.48,2.23.53.31.02.86-.11,1.02-.47.16-.37-.11-.54-.4-.56"/>
    </g>
    <path d="M935.36,268.32c-2.69-1.32-6.1-.12-7.81,1.46-.4.37-1.16,1.49-1.64,3.26-.61,2.25.34,4.77,1.78,6.28,1.92,2.02,5.05,2.3,7.43,1.13,3.22-1.59,4.19-5.53,3.32-8.36-.16-.52-.91-2.7-3.08-3.77"/>
    <path d="M962.65,277.13s-13.19-9.92-19.83-10.44c-9.7-.75-21.5,4.87-24.82,9.75,0,0,15.6-8.36,22.42-7.64,6.52.7,22.24,8.33,22.24,8.33Z"/>
    <path d="M1026.56,266.62c2.63-1.44,1.89-1.12,3.67.39.42.35,1.54,1.37,2.09,3.11.71,2.22-.13,4.78-1.5,6.35-1.83,2.1-4.95,2.52-7.37,1.46-3.29-1.45-4.43-5.34-3.68-8.21.14-.52-.41-1.52,1.71-2.68"/>
    <path d="M1007.47,274.91s14.44-9.63,21.64-10c10.51-.54,23.19,5.35,26.7,10.29,0,0-16.74-8.71-24.13-8.13-7.06.55-24.21,7.83-24.21,7.83Z"/>
    <path d="M959.14,243.59c.04,1.96.07,3.92.1,5.9.02,1.5.05,3,.06,4.49-4.82-1.17-8.95-1.9-12.06-2.38-6.58-1.01-9.95-1.5-13.74-.75-3.98.78-7.35,2.41-8.65,3.05-1.84.91-3.07,1.48-4.53,2.63-3.18,2.5-4.43,5.28-4.97,5.05-.49-.21.25-2.64.33-2.89,1.89-6.12,6.33-9.81,6.66-10.1,0,0,3.33-2.86,8.76-4.42,3.74-1.08,14.15-2.02,28.04-.57"/>
    <path d="M1006.24,243.28c.24,1.94.49,3.89.74,5.85.19,1.49.39,2.97.59,4.45,5.66-1.96,10.53-3.38,14.22-4.38,7.8-2.1,11.8-3.15,16.49-3.05,4.93.1,9.23,1.15,10.9,1.57,2.35.59,3.93.95,5.86,1.84,4.21,1.94,6.14,4.48,6.75,4.16.56-.29-.7-2.57-.83-2.8-3.19-5.73-9.09-8.64-9.54-8.87,0,0-4.45-2.27-11.24-2.91-4.68-.44-17.4.38-33.97,4.13"/>
    <path class="cls-15" d="M889.4,784.9s-25.56,64.14-32.29,156.96c0,0,137.71,29.07,267.86,15.15,130.15-13.92,118.6-25.69,118.6-25.69l-44.3-118.73-2.9-51.84-283,13.02"/>
    <path class="cls-12" d="M985.8,348.27c13.91-.55,36.37-3.19,36.37-3.19,0,0-3.01,35.19-35.25,36.47-32.24,1.28-35.92-33.98-35.92-33.98,0,0,20.89,1.26,34.8.7Z"/>
    <path class="cls-13" d="M984.7,348.27c6.61-.26,33.21-2.52,33.21-2.52,0,0-8.43,23.04-32.34,23.99-25.93,1.03-30.38-21.17-30.38-21.17l29.5-.31Z"/>
    <path class="cls-24" d="M985.41,349.34c6.61-.26,26.68-2.26,26.68-2.26,0,0-6.93,8.02-26.77,8.8-19.83.79-26.43-6.46-26.43-6.46l26.51-.09Z"/>
    <path class="cls-12" d="M949.68,346.77c.7-.21,2.66.09,5.93-.34,5.45-.72,8.81-2.39,12.77-2.88,6.75-.82,11.16,1.85,14.1,1.74,2.94-.12,7.13-3.14,13.92-2.85,3.98.17,13.85,1.31,19.34,1.6,3.3.17,7.09-1.35,7.8-1.19.99.22-.6,7.94-37.59,9.42-36.99,1.47-37.24-5.19-36.27-5.49Z"/>
    <path class="cls-18" d="M875.9,542.74c1.99,4.35,3.04,9.28,3.68,13.99.77,5.62,1.03,11.53-.37,17.08-2.17,8.57-5.34,16.91-7.97,25.35-3.73,11.99-7.01,24.15-9.05,36.56-2.11,12.82-2.99,26.11-.78,38.98s7.55,24.27,16.85,33c1.21,1.14,2.48,2.22,3.79,3.25.69.54,2.98-.44,2.31-.97-10.18-7.98-16.71-19.2-19.62-31.73-2.96-12.74-2.49-26.08-.67-38.95s4.96-25.01,8.65-37.2c2.72-8.96,5.95-17.78,8.48-26.79,1.18-4.19,1.53-8.2,1.41-12.6-.19-6.65-1.37-13.45-3.82-19.65-.13-.33-.26-.65-.41-.97-.39-.85-2.83-.08-2.49.67h0Z"/>
    <path class="cls-18" d="M1030.02,498.76c11.13.33,22.2-1.73,32.79-5.07,10.93-3.45,21.44-8.22,31.33-13.99,4.65-2.71,9.18-5.65,13.52-8.84s8.64-6.93,12.8-10.6c5.96-5.25,11.91-10.51,17.64-16.01,1.3-1.25,2.88-2.51,3.92-4.01.36-.52.22-.96-.33-1.25-5.94-3.08-11.88-6.15-17.81-9.23-.85-.44-1.7-.88-2.54-1.32-.66-.34-1.56.14-1.91.7-.09.15-.28.43-.09.14-.22.34-.43.67-.66,1-.81,1.21-1.66,2.4-2.54,3.58-3.09,4.16-6.46,8.11-10.03,11.86-11.12,11.68-24.4,21.43-39.2,27.9-10.52,4.6-21.75,7.41-33.2,8.33-1.42.11-1.9,2.01-.21,1.88,19.89-1.6,38.82-8.88,55.09-20.34,10.9-7.68,20.7-17.11,28.79-27.71,1.56-2.04,3.09-4.12,4.43-6.31-.64.23-1.27.47-1.91.7,5.94,3.08,11.88,6.15,17.81,9.23.85.44,1.7.88,2.54,1.32l-.33-1.25c-.74,1.07-1.84,1.98-2.76,2.88-4.69,4.59-9.61,8.95-14.52,13.31-4.2,3.73-8.36,7.54-12.76,11.03-4.07,3.23-8.34,6.21-12.74,8.98-9.46,5.94-19.61,10.94-30.14,14.68-11.54,4.1-23.84,6.9-36.15,6.54-.59-.02-1.37.15-1.62.77-.21.53.2,1.07.77,1.09h0Z"/>
    <path class="cls-18" d="M1007.54,481.08c-9.56-1.24-19.43-3.25-28-7.85-4.8-2.58-9.25-6.09-11.94-10.92-1.71-3.08-2.55-6.65-2.42-10.16.05-1.24.2-2.48.47-3.7.1-.44.21-.87.33-1.3.08-.28.1-.34.09-.28.04-.12.08-.24.12-.36,1.44-3.92,2.77-7.87,4.15-11.81.38-1.08-1.08-1.07-1.72-.82-3.86,1.49-7.72,2.98-11.58,4.48-2.02.78-4.05,1.56-6.07,2.35-.51.2-1.04.34-1.35.84-.22.36-.33.85-.47,1.24-2.3,6.59-3.04,13.86-1.84,20.75,1.49,8.57,6.34,16.02,13.03,21.47,7.7,6.27,17.43,9.47,27.31,9.52,1.39,0,1.93-1.74.24-1.74-10.92-.05-21.75-4.58-29.26-12.55-3.72-3.94-6.55-8.64-8.04-13.86-1.51-5.28-1.66-10.86-.81-16.27.44-2.8,1.08-5.69,2.2-8.31l-.64.57c6.12-2.37,12.23-4.73,18.35-7.1l-1.72-.82c-1.36,3.88-2.69,7.77-4.08,11.64-.65,1.78-1.05,3.63-1.18,5.53-.68,9.47,5.19,17.21,13.02,21.93,9.27,5.59,20.34,7.89,30.95,9.27,1.18.15,2.55-1.52.88-1.74h0Z"/>
    <polygon class="cls-25" points="1017.75 478.39 1004.04 512.03 1003.52 476.94 1017.75 478.39"/>
    <path class="cls-18" d="M1032.44,482.81c-1.14,2.78-2.29,5.57-3.43,8.35-2.75,6.69-5.5,13.38-8.25,20.07-3.33,8.1-6.66,16.19-9.98,24.29-2.88,7.01-5.76,14.01-8.64,21.02-.95,2.32-1.91,4.64-2.86,6.97-.43,1.04-1.1,2.18-1.35,3.29-.01.05-.04.1-.06.15l1.63-.73c-5.23-.58-10.46-1.15-15.69-1.73l.72.92c1.08-2.73,2.17-5.45,3.25-8.18,2.62-6.59,5.24-13.17,7.86-19.76,3.16-7.94,6.31-15.87,9.47-23.81,2.74-6.89,5.48-13.79,8.23-20.68.9-2.26,1.8-4.52,2.7-6.78.41-1.02,1.06-2.15,1.28-3.23.01-.05.04-.1.06-.14l-1.63.73c5.81.06,11.62.12,17.43.18.54,0,1.38-.16,1.63-.73.22-.52-.2-.91-.72-.92-5.81-.06-11.62-.12-17.43-.18-.52,0-1.4.16-1.63.73-1.08,2.73-2.17,5.45-3.25,8.18-2.62,6.59-5.24,13.17-7.86,19.76-3.16,7.94-6.31,15.87-9.47,23.81-2.74,6.89-5.48,13.79-8.23,20.68-1.31,3.31-2.91,6.62-3.98,10.01-.02.05-.04.1-.06.14-.22.55.19.86.72.92,5.23.58,10.46,1.15,15.69,1.73.52.06,1.41-.19,1.63-.73,1.14-2.78,2.29-5.57,3.43-8.35,2.75-6.69,5.5-13.38,8.25-20.07,3.33-8.1,6.66-16.19,9.98-24.29,2.88-7.01,5.76-14.01,8.64-21.02l2.86-6.97c.45-1.08.99-2.17,1.35-3.29.02-.05.04-.1.06-.15.51-1.24-1.98-1.1-2.35-.19Z"/>
    <path class="cls-18" d="M986.85,477.47c-.16,2.9-.31,5.81-.47,8.71-.38,7.02-.76,14.03-1.14,21.05-.46,8.45-.91,16.9-1.37,25.36-.4,7.35-.79,14.69-1.19,22.04l-.39,7.23c-.06,1.13-.24,2.32-.19,3.45,0,.05,0,.11,0,.16-.06,1.19,2.2.45,2.5-.28,1.62-4.08,3.25-8.16,4.87-12.24,3.05-7.68,6.11-15.36,9.16-23.04,1.19-2.98,2.37-5.96,3.56-8.94.5-1.25,1.25-2.59,1.55-3.9.33-1.43.22-3.1.32-4.56.26-3.77.52-7.54.78-11.31.45-6.48.99-12.97,1.35-19.46,0-.13.02-.25.03-.38.02-.33-.19-.5-.5-.57-5.62-1.39-11.24-2.77-16.87-4.16-.54-.13-1.38.03-1.76.47-.34.39-.3.82.26.96,5.62,1.39,11.24,2.77,16.87,4.16l-.5-.57c-.38,5.53-.77,11.07-1.15,16.6-.28,4.03-.56,8.07-.84,12.1-.15,2.23-.11,4.58-.47,6.78-.14.87-.62,1.73-.95,2.55-1.06,2.67-2.12,5.33-3.18,8-3.02,7.6-6.05,15.21-9.07,22.81-1.29,3.24-2.57,6.47-3.86,9.71-.65,1.64-1.53,3.33-2,5.03-.02.08-.07.16-.1.25l2.5-.28c.16-2.9.31-5.81.47-8.71.38-7.02.76-14.03,1.14-21.05.46-8.45.91-16.9,1.37-25.36.4-7.35.79-14.69,1.19-22.04l.39-7.23c.06-1.13.24-2.32.19-3.45,0-.05,0-.11,0-.16.06-1.08-2.45-.62-2.5.28Z"/>
    <path class="cls-25" d="M1248.98,587.81c-1.67,13.36-3.61,26.65-5.31,39.73-5.65,43.56-10.75,87.18-20.56,130.08-6.52,28.5-13.06,67.71-34.46,89.43-2.42-10.73-7.06-25.93-12.36-35.4-10.67-19.08-20.88-11.9-39.7-23.21-5.38-3.23-10.72-.3-16.67-2.31,1.94-24.59,11.69-122.3,24.79-198.32h104.26Z"/>
    <path class="cls-15" d="M1148.6,445.77s89.39,21.76,100.69,75.37c11.98,56.82,4.12,146.87,4.12,146.87,0,0-93.39,3.29-139.53-16.79-46.14-20.08,34.72-205.45,34.72-205.45Z"/>
    <path class="cls-18" d="M1185.82,496.1c-7.64-1.23-15.58,1.49-22.28,4.97-7.77,4.03-14.85,9.62-20.69,16.15-2.61,2.92-5,6.07-6.92,9.49-1.27,2.26-2.4,4.62-3.54,6.95-1.76,3.59-3.44,7.22-4.91,10.94-2.49,6.27-4.18,12.75-5.35,19.39-1.62,9.23-2.71,18.55-4.03,27.83-2.45,17.14-5.33,34.21-8.5,51.22-.53,2.84-1.07,5.68-1.62,8.52-.03.17.05.26.22.31,5.03,1.44,10.06,3.17,15.19,4.24,7.31,1.53,14.65,2.89,22,4.17,13.09,2.27,26.25,4.23,39.45,5.71,14.41,1.62,28.92,2.75,43.43,2.56,7.93-.1,15.85-.05,23.78,0,.28,0,.57,0,.85,0,.48,0,1.73-.26,1.77-.89.37-5.31.73-10.63,1.1-15.94.02-.25-.61-.22-.72-.22-16.69.6-33.47.37-50.13-.59-12.46-.72-24.83-2.11-37.13-4.24-11.56-2.01-23.04-4.48-34.44-7.2-5.95-1.42-11.9-2.89-17.81-4.51-.54-.15-1.27.02-1.74.3-.22.13-.85.57-.28.73,15.83,4.36,31.92,7.99,48.06,10.96,12.46,2.29,24.98,3.96,37.61,4.81,11.87.8,23.77,1.1,35.67,1.11,6.38,0,12.77-.04,19.14-.26l-.72-.22-1.1,15.94,1.77-.89c-6.67-.04-13.36-.21-20.04-.11-6.79.1-13.55.12-20.34-.2-7.34-.35-14.68-.94-21.99-1.69-13.5-1.38-26.95-3.29-40.34-5.54-8.24-1.38-16.46-2.89-24.64-4.58-5.17-1.07-10.22-2.73-15.29-4.18-.36-.1-.72-.21-1.08-.31l.22.31c3.45-17.97,6.61-36,9.3-54.1,1.48-9.96,2.69-19.96,4.26-29.9,1.04-6.57,2.38-13.07,4.59-19.35,1.19-3.38,2.58-6.69,4.07-9.95,2.05-4.48,4.14-9.09,6.75-13.27,4.46-7.15,10.77-13.25,17.59-18.14,6.42-4.61,14.08-8.84,22.12-9.45,1.71-.13,3.42-.07,5.12.21.6.1,2.87-.9,1.59-1.1h0Z"/>
    <path class="cls-25" d="M1132.98,870.89s26.26,2.81,49.71-16.28c26.82-21.83,16.27-81.74,10.27-108.49-6.16-27.44-71.56,36.01-71.56,36.01l11.58,88.76Z"/>
    <path class="cls-25" d="M1128.28,873.58c9.6-1.44,20.54-2.3,28.74-6.71.23-1.37.21-1.37.37-2.75,2.35-20.15-1.39-41.15-9.35-59.73-5.5-12.83-5.95-24.47-16.63-33.72-1.22,2.47-4.28,9.25-4.28,9.25l-235.06,10.99s-17.43,42.08-17.42,42.08c81.84,24.22,162.06,37.2,247.39,40.39,2.08.08,4.16.15,6.25.2Z"/>
    <path class="cls-25" d="M906.16,840.48l-27.11-2.72s-54.45,25.78-71.76,27.11c-12.57.46-25.24-.99-37.62-4.29l-13.92,5.57c-6.41,2.57-13.56,2.62-20.24.14l-5.14-1.91s-15.45,12.08-19.56,6.93c-4.1-5.15.5-11.38,4.97-17.42,4.47-6.04,104.8-67.38,104.8-67.38-10.29-3.15-28.04.9-38.58-.34-16.21-1.78-22.07-8.77-15.91-15.32,3.8-4.04,16.48-7.78,25.51-4.32,9,3.44,48.96-10.22,65.18-5.97,16.23,4.25,29.82,24.4,29.82,24.4,8.38,3.42,20.92,5.52,20.92,5.52,6.85,15.93-1.37,49.99-1.37,49.99Z"/>
    <path class="cls-17" d="M1157.66,815.95c-1.83-7.9-4.03-15.9-8.17-22.94-3.43-5.83-8.36-10.43-14.12-13.93-3.93-2.39-8.13-4.3-12.37-6.04-.93-.38-2.04-.27-2.88.32-.51.36-1.25,1.42-.29,1.81,6.79,2.78,13.69,6.02,19.14,11.05,4.97,4.59,8.28,10.43,10.61,16.73,1.69,4.59,2.94,9.33,4.04,14.09.37,1.61,4.43.57,4.05-1.09h0Z"/>
    <path class="cls-18" d="M861.27,638.68c-4.42-.85-8.8-2.45-12.84-4.39-3.61-1.73-7.06-3.85-10.06-6.51-.63-.56-1.62-1.25-2.05-1.99-.26-.46-.1.16-.15-.15-.02-.11.1-.31.14-.42.34-1.05.68-2.11,1.03-3.16.73-2.24,1.46-4.49,2.19-6.73-.8.21-1.6.43-2.4.64,2.38,2.21,5.03,4.18,7.73,5.95,4.59,3.01,9.86,5.73,15.45,5.98.55.02,1.33-.1,1.76-.47.32-.28.39-.58-.16-.61-5.52-.24-10.73-3.1-15.22-6.11-2.52-1.69-4.99-3.54-7.22-5.61-.44-.4-2.22.09-2.4.64-1.13,3.48-2.26,6.95-3.38,10.43-.04.09-.02.17.06.23,4.41,4.77,10.17,8.06,16.17,10.43,3.01,1.19,6.15,2.24,9.33,2.86.56.11,1.25-.02,1.74-.3.19-.11.88-.59.29-.71h0Z"/>
    <path class="cls-6" d="M1110.34,325.46c4.35.32,6.52,3.78,7.11,7.44,1.05,6.59-5.73,11.92-11.58,8.7-.22-.12-.45-.26-.67-.41,0,0,7.1,8.02,13.74,3.13,6.64-4.89,3.65-12.98,1.32-15.15-5.17-4.82-9.92-3.71-9.92-3.71Z"/>
    <path class="cls-17" d="M773.83,862.14c3.62-.81,7.17-2.05,10.6-3.42,6.33-2.52,12.59-5.92,17.3-10.93.65-.7.33-1.57-.51-1.89-.94-.36-2.2.06-2.86.77-4.32,4.61-10.16,7.59-15.97,9.88-2.99,1.18-6.12,2.22-9.28,2.93-.79.18-1.9.94-1.67,1.88s1.64.96,2.38.8h0Z"/>
    <path class="cls-17" d="M790.27,831.3c-5.01,3.1-10.07,6.11-15.15,9.09-9.95,5.82-20,11.5-30.31,16.66-4.95,2.47-9.97,4.88-15.18,6.73-.45.16-1.65.73-1.15,1.36.48.6,2.12.07,2.64-.11,10.23-3.65,19.93-8.96,29.43-14.17,9.03-4.95,17.92-10.12,26.74-15.44,1.81-1.09,3.61-2.18,5.41-3.29.49-.3,1.25-.88.44-1.28-.73-.36-2.21.06-2.85.46h0Z"/>
    <path class="cls-17" d="M876.15,838.58c-5.43,1.16-10.87,3.12-15.65,5.94-5.43,3.19-11.09,5.96-16.83,8.53-3.02,1.35-6.07,2.66-9.19,3.78-.34.12-1.66.57-1.22,1.1.4.49,2.19-.11,2.6-.26,5.8-2.07,11.43-4.66,16.97-7.35,2.8-1.36,5.58-2.77,8.3-4.3,2.79-1.57,5.49-3.15,8.51-4.26,1.38-.51,2.77-.96,4.19-1.35.49-.13.98-.26,1.47-.38.1-.03.59-.14.15-.04-.38.09-.16.04-.06.02.51-.11,2.27-.42,2.38-1.08s-1.29-.41-1.61-.35h0Z"/>
    <path class="cls-17" d="M842.82,759.76c3.72.31,6.92,2.24,10.05,4.14,3.49,2.11,6.97,4.21,10.46,6.32,6.97,4.21,13.94,8.42,20.91,12.64.65.4,1.94-.07,2.59-.29.19-.07,1.78-.71,1.24-1.04-7.11-4.3-14.23-8.6-21.34-12.89-3.54-2.14-7.07-4.29-10.62-6.42-3.08-1.85-6.29-3.62-9.94-3.93-.95-.08-1.96.16-2.82.55-.25.11-1.45.85-.53.93h0Z"/>
  </g>
  <g id="Layer_2" data-name="Layer 2">
    <g>
      <path d="M256.84,399.41c-3.31-8.06-18.38-10.87-21.02-19.2-.64-2.02.91-3.89,2.6-4.22-1.28-3-3.05-6.6-5.18-9.42-4.48-5.96-16.92-9.59-16.92-9.59,0,0,1.29-13.75-4.61-14.97-5.9-1.22-18.27.58-18.27.58,0,0-10.35-7.79-19.79,1.05,0,0-9.41.46-10.64,13.05-.27,2.72-.16,6.02.52,10,0,0-4.6.35-10.87,8.51-2.71,3.52-5.2,14.67-2.31,23.67l-.1,2.04c3.81,11.85,9.82,18.91,19.62,19.29.03.11,7.59,23.47,30.41,20.6,19.82-2.49,24.92-12.87,24.92-12.87,0,0,9.42,4.33,14.13,2.75,4.94-1.65,8.41-5.98,10.33-10.97-1.71-4.94,8.78-15.32,7.19-20.3Z"/>
      <path d="M257.03,399.36c-2.05-4.81-7.37-7.44-11.58-10.03-2.36-1.45-4.77-2.95-6.73-4.94-2.06-2.09-5.01-7.13-.28-8.3.05-.01.19-.08.16-.16-1.54-3.59-3.3-7.5-5.99-10.4-2.1-2.27-4.87-3.9-7.61-5.27-2.29-1.14-4.68-2.11-7.1-2.93-.3-.1-1.23-.22-1.45-.47.07.08.09.05.07-.12-.03-.26.04-.56.05-.82.1-2.01.07-4.04-.16-6.03-.26-2.25-.74-4.83-2.27-6.59s-4.07-1.74-6.23-1.82c-3.2-.11-6.41.11-9.59.41-1.18.11-2.36.24-3.54.39-.34.04-.68.1-1.03.13-.16.02-.37,0-.2.05-.45-.15-.94-.62-1.36-.85-.91-.51-1.86-.94-2.83-1.3-2.72-.99-5.67-1.32-8.51-.73-1.68.35-3.28,1.03-4.73,1.95-.81.51-1.49,1.23-2.29,1.74-.45.28-.04.14-.36.26-1.08.39-2.22.47-3.3.98-1.76.84-3.28,2.12-4.43,3.69-1.9,2.6-2.72,5.83-2.97,9-.15,1.83-.11,3.67.04,5.49.09,1.13.09,2.48.44,3.56.18.56.38.12.06.34-.35.24-1.07.29-1.48.46-.92.38-1.8.88-2.62,1.44-2.75,1.88-5.46,4.52-7.2,7.36-1.59,2.59-2.31,5.79-2.75,8.76-.6,4.07-.58,8.31.36,12.34.17.73.48,1.47.53,2.2.03.55-.14,1.13-.08,1.68.17,1.57,1.11,3.35,1.73,4.8,1.32,3.1,2.98,6.11,5.24,8.63,1.91,2.13,4.24,3.86,6.91,4.88,1.38.53,2.84.87,4.31,1.04.31.04,1.26-.06,1.44.07.05.04.04.18.08.23.19.24.26.71.38.99.23.56.47,1.12.73,1.67.7,1.5,1.5,2.96,2.39,4.36,2.51,3.94,5.77,7.47,9.76,9.93,5.06,3.12,11.01,4.18,16.88,3.51,6.58-.75,13.29-2.63,18.84-6.35,1.63-1.09,3.16-2.35,4.49-3.8.66-.71,1.54-1.6,1.93-2.51.23-.55.21-.07-.1-.27.52.33,1.2.51,1.76.74,2.57,1.01,5.26,1.88,8.01,2.24,3.01.39,5.6-.29,8.1-2.02,2.97-2.05,5.13-5.11,6.54-8.4.26-.61.34-.82.23-1.44-.1-.57-.05-1.15.05-1.72.24-1.36.83-2.66,1.45-3.89,1.36-2.73,3.06-5.29,4.42-8.02.9-1.81,2-4.08,1.4-6.15-.04-.15-.41-.04-.37.1.81,2.82-1.35,6.1-2.67,8.43-1.58,2.8-3.51,5.59-4.4,8.71-.39,1.38-.01,2.85-.53,4.13-.85,2.11-2.17,4.14-3.71,5.81-1.64,1.78-3.72,3.3-6.05,4.04-1.8.57-3.79.34-5.61-.02-2.85-.56-5.69-1.52-8.34-2.73-.09-.04-.27-.02-.32.09-.98,1.97-2.77,3.65-4.44,5.02-5.12,4.2-11.68,6.38-18.14,7.44-6.65,1.08-13.3.47-19.13-3.12-4.06-2.5-7.35-6.1-9.86-10.13-1.36-2.17-2.62-4.53-3.4-6.97-.02-.05-.07-.06-.12-.07-4.69-.22-8.93-2.1-12.16-5.52-1.71-1.81-3.1-3.92-4.25-6.13-.55-1.06-1.05-2.14-1.51-3.24-.54-1.3-1.42-2.95-1.59-4.35-.07-.61.14-1.26.09-1.88-.09-1.21-.65-2.5-.86-3.72-.51-3.02-.55-6.12-.23-9.17.27-2.52.77-5.04,1.63-7.42s2.31-4.32,4.06-6.22,3.75-3.7,6.08-4.86c.69-.35,1.49-.72,2.28-.79.08,0,.23-.06.21-.17-1.16-7.03-1.48-16.71,5.28-21.18,1.41-.93,2.82-1.23,4.4-1.68.84-.24,1.39-.98,2.11-1.51,1.97-1.44,4.27-2.39,6.69-2.66,3.31-.36,6.67.53,9.57,2.12.46.25,1.01.79,1.51.94.3.09.71-.05,1.02-.09,3.01-.39,6.03-.68,9.06-.81,1.87-.08,3.75-.11,5.62.02,1.45.1,3.1.16,4.27,1.13,2.27,1.87,2.7,5.54,2.9,8.27.14,1.92.16,3.89-.02,5.81,0,.05.03.08.08.09,2.73.8,5.4,1.88,7.96,3.11,2.13,1.03,4.22,2.2,6.08,3.66,2.08,1.63,3.57,3.67,4.9,5.94.84,1.44,1.6,2.94,2.3,4.45.17.36.82,1.35.61,1.72-.08.14-1.08.54-1.26.69-1.73,1.43-1.42,3.46-.44,5.23,1.99,3.61,5.93,5.87,9.33,7.95,4.03,2.47,9.03,5.03,10.98,9.61.06.14.43.03.37-.1Z"/>
    </g>
    <path class="cls-16" d="M397.19,361.58c-15.32-10.86-18.45-30.62-16.76-48.28,1.62-16.9-11.26-42.68,9.2-42.03.21,0-1.93-4.09-3.06-7.73-.62,1.09-1.26,2.16-1.96,3.19-1.35,1.97-4.78.14-3.7-2.03,1.88-3.78,3.53-7.67,4.87-11.67,2.26-6.79,3.6-14.05,3.13-21.22-.43-6.47-2.3-12.7-5.56-18.26-47.89-63.16-106.32-48.39-141.49-43.21-70.13,10.34-103.98,82.72-81.3,153.85,23.25,72.9,73.73,95.29,144.55,92.34,30.26-1.26,70.36-26.77,92.73-54.51-.21-.14-.43-.28-.63-.42Z"/>
    <path class="cls-14" d="M384.87,477.68c5.56,2.36,70.67,18.79,81.3,63.6,10.63,44.81,8.92,163.98,13.55,203.3,6.02,45.82,6.73,118.17,10.01,177.07l-4.08,92.95-42.27-1.64s-23.29-246.18-42.57-308.96c-19.28-62.78-15.93-226.32-15.93-226.32Z"/>
    <path class="cls-2" d="M172.38,1373.87c63.5,2.08,126.98,4.83,190.43,8.15,23.17,1.22,46.33,2.52,69.49,3.88,11.8-162.1,36.9-359.48,22.92-414.88l-1.2-56.11-314.58-24.46c-37.6,50.75-45.86,131.83-15.06,252.19,10.58,41.34,40.12,132.18,48,231.22Z"/>
    <path class="cls-14" d="M452.34,577.22c-1.16-56.23-15.18-75.23-15.18-75.23-15.54-6.83-44.47-23.3-63.25-30.29-2.77-1.03-11.88-6.09-12.23-5.52-9.27,15.19-26.57,33.37-46.32,35.45-7.09.74-2.92-14.66-9.54-14.86-22.61-.7-50.44-12.85-63.96-29.97l-17.48,7.67-67.44,26.02,10.51,333.92-1.12,2.59c36.92,14.27,74.04,28.16,112.34,38.23,44.78,11.77,91.85,18.6,137.97,11.4,10.55-1.65,20.96-4.1,31.13-7.27-2.46-11.21-13.89-53.39-13.67-65.22,1.21-65.3,4.46-67.37,6.7-70.04"/>
    <path class="cls-25" d="M240.66,365.15s16.15,53.08,4.31,90.53c-1.61,5.1-2.29,4.44-2.29,4.44,2.5.2,6.27,6.78,7.95,8.6,4.06,4.36,8.85,10.45,13.5,14.19,2.79,2.24,3.41,4.14,6.2,6.37,5.1,4.07,9.59,6.95,14.98,10.63,10.48,7.16,23.28,11.98,35.79,12.95,10.98.86,18.24,1.33,28.34-3.15,2.03-.9,5.25-3.74,6.95-5.16,6.86-5.73,8.19-18.33,7.74-26.59l-2.45-11.79s-5.18-1.84-6.89-8.06c-1.71-6.22.29-54.24.29-54.24"/>
    <path class="cls-14" d="M434.1,804.13s28.32,105.72,37.42,129.66c0,0-126.74,43.91-241.47,27.32-114.73-16.6-120.4-32.26-120.4-32.26l41.15-111.25,19.53-44.18,249.75,19.76"/>
    <path class="cls-14" d="M102.13,543.74c-7.61,19.43-9.51,41.41-10.13,62.88-.46,15.93,1.41,31.05,4.88,46.62,2.41,10.83,4.92,21.64,7.6,32.4,5.54,22.23,11.81,44.3,19.54,65.88,6.73,18.79,14.58,37.21,24.05,54.79l.78-22.33,32.57-137.05s-5.67-163.36-5.67-163.41c0,.17-15.15,5.12-16.07,5.51-12.18,5.09-23.77,11.88-33.78,20.51-11.25,9.71-18.75,21.4-23.77,34.2Z"/>
    <path class="cls-21" d="M456.34,574.83c-2.11,4.34-3.26,9.34-3.97,14.08-.83,5.6-.97,11.29.22,16.83,2.13,9.89,5.1,19.58,7.28,29.47,6.18,28.08,9.16,59.83-4.74,86.19-1.9,3.6-4.1,7.03-6.59,10.25-.86,1.12-1.67,1.92-1.99,3.26-.86,3.61-1.6,7.24-2.27,10.89-2.75,14.84-4.44,29.98-4.31,45.09.07,8.47.73,16.98,2.48,25.28,1.2,5.72,2.51,11.4,3.57,17.14,2.55,13.76,4.61,27.6,6.55,41.45,2.86,20.45,5.4,40.95,7.67,61.48.04.35.08.7.12,1.05.11,1.05,2.29.51,2.17-.58-1.89-17.41-4.04-34.8-6.36-52.16-1.88-14.05-3.88-28.09-6.24-42.06-1.03-6.11-2.13-12.21-3.39-18.28-1.45-6.98-3.07-13.85-3.74-20.98-1.53-16.31-.22-32.9,2.26-49.06.81-5.27,1.76-10.52,2.88-15.73.27-1.26.55-2.52.85-3.78.05-.21.07-.49.17-.69.05-.11.63-.61.79-.82.74-.93,1.45-1.87,2.14-2.83,17.55-24.49,17.37-56.4,12.32-84.87-2.04-11.49-5.03-22.75-7.93-34.04-.85-3.29-1.8-6.64-2.18-10.03-.82-7.46.45-15.51,2.87-22.58.43-1.25.88-2.5,1.46-3.69s-1.64-1.22-2.09-.3h0Z"/>
    <path class="cls-10" d="M370.55,220.18c-1.59-.06-2.52,1.43-3.29,2.6-.84,1.29-2.13,3.44-3.99,2.47-1.52-.79-1.92-2.93-2.84-4.24-.87-1.24-2.25-1.59-3.5-.63-.77.59-1.32,1.42-1.95,2.15s-1.41,1.49-2.45,1.15c-.12-.04-.18.15-.05.19,1.6.53,2.67-1.25,3.54-2.29.55-.66,1.22-1.41,2.11-1.56.96-.16,1.69.43,2.19,1.18.88,1.31,1.28,3.21,2.67,4.11s2.67.01,3.52-1.09c1.04-1.35,2.01-3.92,4.05-3.85.13,0,.13-.2,0-.2h0Z"/>
    <path class="cls-23" d="M354.51,433.56c-.45-9.49.22-8.13-.12-17.87-.03-.82.04-1.58.16-2.32-28.52,1.27-69.41-10.01-93.49-9.29.94.64,3.2,19.74,17.14,30.99,22.39,18.07,38.52,20.35,59.15,20.68l10.32-.8s6.43-.15,6.51-1.09l-1.22-20.25,1.54-.07Z"/>
    <g>
      <path class="cls-25" d="M235.93,371.25c-1.28-10.89,1.01-13.42-3.38-23.51-3.32-7.64-16.24-20.09-22.27-25.84-4.73-2.12-10.71.85-13.93,4.68l-.54,1.4c-4.85,9.82.95,31.15,15.51,43.48,3.89,14.46,21.18,14.16,27.78,7.83-.2-2.65-2.87-5.4-3.18-8.04Z"/>
      <path class="cls-25" d="M403.83,350.42c-1.01-6.31-7.22-16.16-7.07-22.27.17-7.05,3.1-39.86-4.21-60.97-3.09-8.91-6.11-16.24-8.74-22.03-.28-.2-.52-.47-.69-.86-.58-1.3-1.36-2.82-2.03-3.89-7.28-11.59-21.22-17.45-34.09-20.87-7.25-1.92-13.47-15.23-20.94-15.92-4.42-.41-10.26,11.49-14.74,11.44.22.41.21.57-.19.32,0,.21-1.2-.02-2.5-.32-1.3,0-2.58.03-3.83.08.03.08.08.16.13.23.11.54.58,1.56,1.01,1.54-2.81,1.43-6.19.69-9.12-.95.99.84,1.51,1.7,2,2.12-2.39.1-4.27.61-6.74-1.05.02.44,1.03,1.72,1.51,1.7-2.35.98-5.23.65-7.67-.57.02.44,1.01,1.28,1.5,1.7-1.88.52-3.8.59-5.76-.65l1.5,1.7c-1.91.08-3.3,1.01-6.2.25.02.44.99.84,1.01,1.28-1.43.06-3.34.14-4.79-.25.02.44,1.49,1.26,1.01,1.28-1.7.07-2.99.81-4.96.42-.13.06-.26.13-.39.2.37.44.76.99,1.13,1.31-1.32.05-2.64.31-3.96.2-.42.23-.84.48-1.26.72.16.23.33.44.51.59-.74.03-1.41.19-2.09.33-.66.39-1.31.79-1.95,1.2-.12.08-.24.16-.37.24.07.06.13.11.19.16-.16,0-.32.02-.49.03-13.74,8.89-25.12,20.98-34.42,34.3-6.96,9.97-12.81,20.69-17.56,31.86.03,2.49.19,4.65.35,6.32.16,1.57.89,3.97,1.98,6.83,4.46,4.55,8.22,9.68,11.26,15.31,6.08,11.3,9.02,24.11,10.16,36.82.81,9.07,4.19,8.71,3.62,17.8l6.67,15.57,8.66,17.4c22.95,23.8,50.43,37.91,72.02,39.95,7.11.67,21.78-.36,30.63-1.11,6.01-.51,11.92-2.28,16.86-5.74,25.2-17.67,37.94-63.24,33.04-93.76Z"/>
    </g>
    <path class="cls-27" d="M221.83,351c-1.91-4.39-4.02-8.74-6.71-12.71-1.36-2.01-2.9-4-4.83-5.5-.75-.58-1.61-1.16-2.56-1.35-1.15-.24-1.65.73-2.09,1.63-1.91,3.91-1.82,8.5-.88,12.65.12.55,1.58.18,1.45-.39-.75-3.33-.94-6.82,0-10.13.33-1.15.78-2.39,1.53-3.34l-.95.41c.16,0,.02,0,0,0,.14.06.31.07.45.12.04.01.47.21.68.32.35.19.69.42,1.01.66,2.67,2.01,4.64,5.02,6.33,7.84,1.96,3.26,3.6,6.69,5.12,10.17.24.54,1.67.11,1.45-.39h0Z"/>
    <path class="cls-27" d="M221.37,350.86c-2.29,0-4.79.7-4.31,3.46.42,2.43,2.02,4.6,2.04,7.12,0,.71-.3,2.51-1.25,2.51-1.26,0-2.55-2.01-3.12-2.91-1.62-2.59-2.45-5.68-2.25-8.72.19-2.83.67-7.45,3.64-8.78.91-.41.1-1.07-.62-.76-2.97,1.33-3.91,4.94-4.31,7.88s-.2,5.67.95,8.51c.87,2.17,3.35,6.85,6.43,5.57,2.72-1.13,2.02-4.67,1.28-6.8-.47-1.36-1.16-2.72-1.37-4.15-.24-1.67.88-1.97,2.36-1.97.3,0,.83-.09.95-.43.11-.3-.1-.54-.42-.54h0Z"/>
    <path class="cls-19" d="M383.94,309.97c2.55-1.77,5.89-.93,7.87.45.47.32,1.73,1.26,2.48,3.01.96,2.24.38,4.98-.86,6.76-1.65,2.37-4.8,3.14-7.4,2.29-3.53-1.16-5.12-5.08-4.66-8.14.09-.56.52-2.93,2.57-4.36"/>
    <path class="cls-19" d="M306.59,319.86c-2.9-1.09-5.93.54-7.52,2.37-.37.43-1.37,1.64-1.67,3.53-.38,2.4.86,4.92,2.49,6.34,2.19,1.9,5.43,1.86,7.74.4,3.13-1.99,3.71-6.19,2.51-9.04-.22-.52-1.22-2.71-3.56-3.59"/>
    <path class="cls-19" d="M323.02,327.09s-15.68-8.75-23.11-8.56c-13.4.35-24.75,9.48-27.92,14.93,0,0,17.84-12.42,25.48-12.45,7.3-.03,25.56,6.09,25.56,6.09Z"/>
    <g>
      <path d="M358.62,368.25c-2.89,1.84-7.55,1.91-10.78.34-.72-.35-2.94.26-1.94.75,4.26,2.07,10.93,1.68,14.66-.69.37-.24.27-.52-.23-.63-.52-.12-1.32-.01-1.72.24"/>
      <path d="M344.5,368.62c-2.13-.75-4.46-1.04-6.76-1-.34,0-.76.17-.98.41-.18.19-.2.42.07.53,1.11.49,2.47.61,3.7.48.39-.04.89-.19,1.08-.53.17-.32-.22-.48-.52-.45-1.02.11-2.07.01-2.99-.39-.31.31-.61.63-.92.94,2.05-.04,4.14.24,6.04.91.38.13.89-.02,1.2-.24.23-.16.46-.52.08-.65"/>
      <path d="M335.47,369.74c-2.68.18-5.92-.66-7.41-2.5-2.25-2.78-.85-7.95,2.31-10.15.34-.24.13-.49-.25-.53-.49-.06-1.04.17-1.4.42-2.75,1.93-4.27,6.25-3.58,9,.65,2.56,3.37,4.14,6.63,4.6.97.13,2,.19,3,.12.41-.03,1.12-.22,1.29-.54.17-.33-.21-.44-.59-.41"/>
      <path d="M363.39,366.47c-.17-.29.08-.51.29-.52.72-.05,1.44-.32,2.01-.86.26.26.52.52.78.78-1.43.29-2.83.89-4.05,1.85-.24.19-.62.12-.87-.05-.18-.13-.4-.44-.16-.63"/>
      <path d="M361.4,367.04c1.36-1.08,2.93-1.73,4.53-2.05.23-.05.55.05.75.25.15.16.2.38.04.53"/>
      <path d="M368.97,366.31c1.73-.23,3.67-1.56,4.34-3.6,1.02-3.09-.51-6.51-2.85-8.2-.25-.18-.15-.46.08-.56.3-.13.69.01.95.2,2.04,1.48,3.51,4.05,3.48,6.86-.03,2.63-1.52,4.6-3.53,5.55-.6.28-1.24.49-1.89.58-.26.03-.75-.04-.9-.34-.16-.3.07-.46.31-.49"/>
    </g>
    <path class="cls-19" d="M362.41,322.31s12.12-11.81,18.8-13.19c9.76-2.02,13.46,1.4,17.47,5.93,0,0-7.92-5.72-14.75-4.09-6.53,1.55-21.52,11.36-21.52,11.36Z"/>
    <path class="cls-12" d="M356.47,386.25c-14.16.83-41.93.81-41.93.81,0,0,5.52,33.21,38.36,31.27,32.84-1.93,27.98-34.65,27.98-34.65,0,0-10.24,1.74-24.41,2.57Z"/>
    <path class="cls-5" d="M356.61,386.24c-6.73.4-38.66,1.17-38.66,1.17,0,0,11.82,23.21,36.09,20.75,25.49-2.58,22.52-23.84,22.52-23.84l-19.96,1.93Z"/>
    <path class="cls-26" d="M356.97,387.28c-6.73.45-6.73.76-32.01.78,0,0,7.83,7.31,28.04,6.13,20.2-1.19,27-9.09,27-9.09l-23.02,2.19Z"/>
    <path class="cls-12" d="M382.37,383.89c-.73-.14-.84.06-4.99-1.99-1.47-.73-2.89-1.82-6.95-1.91-6.93-.15-11.14,2.96-14.13,3.14-3,.18-7.54-2.42-14.41-1.46-4.02.56-15.38,2.87-20.92,3.7-3.33.5-7.33-.64-8.03-.41-.98.31,1.4,7.87,39.08,5.66,37.68-2.22,31.37-6.53,30.36-6.73Z"/>
    <ellipse class="cls-8" cx="225.91" cy="384.68" rx="8.51" ry="8.23" transform="translate(-180.04 569.66) rotate(-84.07)"/>
    <path d="M318.63,294.84c-20.88-1.13-28.28.58-42.49,5.77-5.46,2-9.25,5-11.31,10.52-.31.82-1.52,5.59-.07,5.97,1.62.43,3.72-3.84,4.62-4.76,3.26-3.35,7.41-4.32,11.67-5.14,7.83-1.52,16.63-2.26,24.55-2.47,3.99-.11,8.68.89,15.01,1.35,1.05-.84.33-4.98-.17-7.15-.66-2.85-.12-.42-.78-3.25,0,0,.2-.77-1.03-.83Z"/>
    <path d="M397.82,291.46c.09-1.05.17-2.41.13-3.27-.03-.62-.1-1.24-.21-1.86-11.14-.7-18.93.26-35.5,5.8-1.14.38-.75,1.07-.75,1.07.11,2.91,0,.42.1,3.34.09,2.23.47,6.41,1.67,6.95,5.81-2.06,9.96-4.23,13.73-5.15,6.47-1.58,13.65-2.93,20.48-3.62.12-1.08.24-2.17.34-3.26Z"/>
    <path d="M155.92,238.63c-.42-6.5,3.16-23.76,8.07-28.04,4.81-4.19,7.42-8.87,13.77-9.52,1.12-.11,2.34-.34,3.04-1.22.65-.81,2.37-1.79,2.39-2.82.18-9.51,4.31-14.15,15.65-19.16,4.03-1.78,5.97-2.73,10.33-2.07,1.4.21,2.86.37,4.21-.08,2.05-.69,3.37-2.62,4.8-4.24,4.89-5.55,12.74-8.32,20.03-7.06,4.88.84,10.08,3.28,14.48,1.02,2.04-1.05,3.48-2.96,5.16-4.52,5.03-4.66,12.42-6.21,19.2-5.17,6.78,1.04,13.01,4.41,18.5,8.51.9.67,1.83,1.38,2.94,1.53,1.72.23-1.44.97,0,0,7.01-4.7,18.5-5.54,26.46-2.76,7.97,2.78,16.93,7.23,19.49,15.26,8.49-.46,18.81,1.18,25.77,7.29,6.96,6.11,11.73,18.01,9.11,26.89-.46,1.56-2.75-1.73-4.22-1.04-1.25.59-2.72.33-4.06-.02-11.35-2.93-20.57-11.08-31.29-15.8-12.85-5.66-27.51-6.19-41.35-3.83-13.84,2.36-27.05,7.46-40.06,12.76-19.32,7.88-38.71,16.42-54.9,29.58-17.28,14.05-30.16,32.74-41.55,51.88,0,0,18.21,72.92,12.98,72.77-5.23-.14-3.91-.76-3.42-5.52.49-4.76,8.21-5.02,8.21-5.02-14.21-.23-23.01-15.27-27.11-21.69-7.65-11.97-1.22-29.68-1.22-29.68,0,0-2.37.98-8.2-14.99-5.84-15.97,2.1-34.47,6.63-39.67l6.17-3.56Z"/>
    <path d="M204.97,304.12c6.11,9.91,12.22,19.82,18.33,29.73,3.28,5.32,4.75,15.17,8.74,10.35,2.23-2.69,2.76-11.29,1.51-14.55-3.76-9.83-7.89-27.91-11.65-37.73,10.04-.92,23.66-13.76,26.76-23.36,3.09-9.6.8-13.5-.07-23.55,4.83,5.91,14.49,5.57,20.84,1.34,6.36-4.24,10.21-11.24,13.82-17.98,3.43,6.46,18.92,5.19,25.3,1.62,6.38-3.57,7.38-4.26,9.94-11.12,2.55-6.85,2.26-8.74,2.32-15.14,1.49,9.78,10.43,17.68,14.39,19.08,9.33,3.29,21.6,4.39,28.82-2.38-1.85,4.99.92,10.75,5.16,13.97,4.24,3.21,9.63,4.43,14.85,5.43,1.07.21,2.23.4,3.23-.04,2.71-1.2,1.78-5.26.29-7.81-14.94-25.6-44.55-41.92-74.17-40.86-27.25.97-52.16,15.25-74.45,30.96-15.16,10.69-30.67,23.65-34.89,41.72"/>
    <path d="M234.16,279.23c3.41,3.1,4.14,8.3,3.2,12.82-.62,2.97-1.9,5.85-3.95,8.09-2.05,2.24-4.93,3.79-7.96,3.94-.49.03-1.03,0-1.41-.31-.29-.24-.44-.6-.57-.95-2.28-5.87-3.68-12.09-4.13-18.37-.07-.99-.11-2.03.32-2.93,1.34-2.75,5.73-2.07,7.87-4.26"/>
    <path class="cls-21" d="M239.74,456.68c4.11,5.92,8.85,11.45,13.7,16.76,10.21,11.18,21.68,21.46,34.68,29.29,7,4.22,14.48,7.68,22.39,9.8s16.77,2.7,25.21,1.63c6.88-.87,13.87-2.94,19.37-7.32,4.12-3.28,7.03-7.78,8.57-12.8,2.67-8.69,1.52-17.98-.02-26.76-.13-.74-.26-1.48-.39-2.22l-1.96.8c2.75,1.49,5.51,2.98,8.26,4.47,1.34.73,2.67,1.55,4.05,2.19.39.18.24.25.13-.02.03.06.07.13.08.19.15.89.69,1.84.96,2.7.54,1.72.97,3.46,1.31,5.23.94,4.97,1.1,10.12.12,15.1-1.25,6.34-4.42,12.11-9.13,16.54-7.05,6.63-16.52,10.04-25.84,12.02-5.88,1.25-11.89,2.02-17.91,1.87-5.45-.14-10.87-.97-16.16-2.3-10.61-2.69-20.64-7.43-29.95-13.11s-17.28-11.85-25.12-18.77c-6.3-5.56-12.28-11.47-17.94-17.67-2.9-3.18-5.74-6.42-8.41-9.8-.12-.15-.24-.31-.36-.46l-.34.72c5.46-2.73,10.92-5.46,16.38-8.19.39-.2.54-.53.2-.81-.36-.3-1.2.04-1.54.21-5.46,2.73-10.92,5.46-16.38,8.19-.25.13-.56.44-.34.72,1.91,2.48,3.96,4.86,6.03,7.21,5.19,5.9,10.69,11.54,16.45,16.88,7.62,7.08,15.73,13.67,24.39,19.44,9.28,6.18,19.23,11.49,29.86,14.93,10.53,3.41,21.66,4.9,32.68,3.47s22.12-4.17,31.27-10.43c5.9-4.03,10.64-9.55,13.06-16.33,1.88-5.24,2.29-10.92,1.69-16.43-.39-3.58-1.19-7.14-2.43-10.53-.23-.63-.34-1.18-.92-1.53-3.12-1.92-6.48-3.51-9.7-5.25-.9-.49-1.81-.98-2.71-1.47-.47-.25-2.08.07-1.96.8,1.37,8.22,2.84,16.51,1.34,24.83-.87,4.84-2.77,9.47-6.03,13.19-4.12,4.71-9.99,7.31-16,8.63-16.3,3.57-32.81-.67-47.14-8.61-13.3-7.37-25-17.5-35.41-28.51-3.78-4-7.4-8.15-10.85-12.44-1.72-2.15-3.29-4.42-5.01-6.57-.08-.1-.15-.21-.22-.31-.4-.57-2.5.14-2.02.84Z"/>
    <path class="cls-14" d="M439.41,730.27l-22.88,63.83c-8.64.17-17.28-.45-25.81-1.83l-171.64-8.92s-4.43-167.54-35.16-239.71c-.29.26-.58.52-.87.77-9.47,8.2-19.41,15.83-29.45,23.31-10.99,8.18-21.38,17.21-31.73,26.18-8.37,7.26-19.19,14.09-27.5,21.43-.02,10.79,0,25.31,0,25.31,3.95,8.5,26.55,165.3,33.24,184.71,11.07,32.1,42.72,23.56,73.61,23.61,100.6.17,188.3-55.09,243.18-71.18l-4.99-47.51Z"/>
    <path class="cls-21" d="M163.77,527.58c7.3,1.2,12.46,8.13,16.05,14.03,3.63,5.95,6.4,12.43,8.66,19.01,1.91,5.55,2.86,11.32,3.96,17.07,2,10.44,3.77,20.92,5.39,31.42,3.3,21.38,6.01,42.85,8.39,64.35,1.96,17.67,3.69,35.36,5.22,53.07.72,8.34,1.16,16.74,2.01,25.06.01.11.02.23.02.34.04.52.49.8,1.01.74,8.75-1.1,17.51-2.19,26.26-3.29,19.19-2.4,38.39-4.81,57.58-7.21,18.95-2.37,37.9-4.75,56.86-7.12,8.37-1.05,16.78-1.96,25.13-3.15,15.33-2.19,30.61-4.83,45.91-7.25.51-.08,1.02-.16,1.53-.24l-1-.53c1.86,6.09,3.72,12.18,5.58,18.27,2.97,9.72,5.93,19.44,8.9,29.16.69,2.25,1.37,4.5,2.06,6.74l.88-1.06c-15.79,4.64-31.23,10.5-46.66,16.2-20.26,7.49-40.52,15.01-60.97,21.98-22.73,7.76-45.7,14.9-69,20.75-23.56,5.92-47.51,10.58-71.74,12.73-5.81.52-11.63.88-17.47,1.07s-11.57.48-17.24-.56c-11.09-2.03-20.72-8.65-27.76-17.3-1.73-2.12-3.3-4.35-4.75-6.67-.53-.85-2.6-.01-1.99.97,5.81,9.26,13.87,17.23,23.98,21.64,10.63,4.64,22.22,3.9,33.54,3.3,24.31-1.28,48.43-5.36,72.12-10.82,23.91-5.51,47.46-12.5,70.74-20.22,21.22-7.04,42.22-14.72,63.19-22.48,16.44-6.08,32.84-12.36,49.57-17.6,1.6-.5,3.21-.99,4.83-1.47.42-.12,1.04-.53.88-1.06-1.86-6.09-3.72-12.18-5.58-18.27-2.97-9.72-5.93-19.44-8.9-29.16-.69-2.25-1.37-4.5-2.06-6.74-.12-.39-.62-.58-1-.53-15.15,2.39-30.3,4.78-45.45,7.17-7.26,1.15-14.59,1.89-21.88,2.81-18.24,2.28-36.48,4.57-54.72,6.85-19.73,2.47-39.45,4.94-59.18,7.41-7.05.88-14.1,1.77-21.16,2.65-2.28.29-4.57.57-6.85.86-1.15.14-2.45.15-3.57.45-.15.04-.32.04-.47.06l1.01.74c-.48-6.97-1.05-13.94-1.64-20.91-1.44-17.15-3.08-34.29-4.92-51.4-2.33-21.66-4.98-43.29-8.19-64.83-1.6-10.77-3.35-21.53-5.32-32.24-.93-5.06-1.92-10.12-2.97-15.15-.38-1.8-.77-3.51-1.34-5.25-1.98-6.11-4.43-12.11-7.46-17.77-3.46-6.46-8.02-13.45-14.79-16.8-1.44-.71-2.96-1.19-4.54-1.45-1.09-.18-2.2,1.38-.74,1.62h0Z"/>
    <path class="cls-21" d="M215.42,751.88c-5.23,2.4-10.17,5.7-13.56,10.44-3.03,4.24-4.59,9.24-5.33,14.35-.48,3.29-.65,6.61-.73,9.93,0,.44,2.16.12,2.17-.58.23-10.4,1.77-21.28,10.13-28.43,2.57-2.2,5.53-3.9,8.6-5.31.36-.17.56-.4.24-.66s-1.23.12-1.53.25h0Z"/>
    <path class="cls-25" d="M440.65,767.87l20.18-6.15s38.72,3.21,56.85-.53c13.07-3.17,25.87-8.04,38.04-14.47l41.28-7.81s18.21,6.27,21.48.56c3.28-5.71-2.63-9.9-8.38-13.97-5.74-4.07-104.31-28.5-104.31-28.5,10.04-5.71,15.09-10.85,25.74-14.94,16.4-6.17,24.15-16.72,19.53-23.76-3.24-4.95-22.52,2.58-35.52,11.64-8.45,5.89-28.46,5.16-44.42,13.53-15.96,8.36-26.24,30.01-26.24,30.01-5.98,4.03-17.01,10.12-17.01,10.12-.29,1.33,12.78,44.27,12.78,44.27Z"/>
    <g>
      <path class="cls-11" d="M340.24,615.15c-14.2,0-25.78-11.63-25.78-25.92s11.59-25.87,25.78-25.87,25.78,11.63,25.78,25.92-11.54,25.92-25.78,25.92v-.04ZM340.24,569.65c-10.75,0-19.5,8.8-19.5,19.59s8.76,19.59,19.5,19.59,19.5-8.8,19.5-19.59-8.76-19.59-19.5-19.59Z"/>
      <path class="cls-1" d="M416.57,659.03c-3.89-.62-14.95-.8-23.31.35-22.51,3.05-42.28,15.88-45.42,18h-1.28c-3.14-2.03-23.35-14.64-45.91-17.65-9.38-1.24-15.57-1.19-19.64-1.15h-3.49c-.84,0-1.5.66-1.55,1.5,0,.84.62,1.59,1.5,1.64h3.58c4.02,0,10.08-.09,19.24,1.15,23.31,3.1,44.8,17.29,45.02,17.42l.4.27h3.18l.4-.27c.22-.13,21.23-14.59,44.49-17.73,8.09-1.11,18.71-.93,22.42-.35.84.13,1.64-.44,1.77-1.28s-.44-1.64-1.28-1.77h0l-.13-.13Z"/>
      <g>
        <path class="cls-1" d="M341.34,681.8c-6.41-3.58-20.26-10.26-37.77-12.78-24.46-3.49-31.89-1.06-31.89-1.06l10.84,36.8s28.35-6.1,58.82,9.86v-32.82h0Z"/>
        <path class="cls-1" d="M392.03,668.4c-17.87,1.9-31.75,9.42-37.99,13.4v32.99c27.64-14.59,59.04-9.95,59.04-9.95l10.84-36.8s-7.34-2.26-31.89.4v-.04Z"/>
        <path class="cls-1" d="M350.41,684.15h-5.17s-.09-.04-.27-.18v31.71h5.44v-31.58h0v.04Z"/>
      </g>
      <g>
        <path class="cls-11" d="M352.27,594.59c-.22-.22-.57-.31-1.15-.27-.44.04-.88.4-1.28.71-.22.18-.44.35-.62.44-3.76,2.03-8.45,2.61-13.22,1.64-1.86-.4-3.58-1.24-5.17-2.08-.22-.13-.44-.27-.66-.44-.57-.4-1.19-.84-1.68-.4-.53.53-.66,1.42-.27,2.34.04.13.13.22.18.35.04.09.13.18.18.27,1.95,3.98,7.25,5.4,11.59,5.4h0c5,0,8.76-1.64,11.19-4.86.44-.57.75-1.24.93-1.9.09-.4.18-.93-.09-1.24l.09.04Z"/>
        <path class="cls-11" d="M329.31,588.62c.62.13,1.19-.09,1.64-.62v-.09c.49-.49.93-1.02,1.37-1.46.62-.53,1.11-.53,1.77,0,.53.44,1.02,1.02,1.33,1.46.4.49.88.75,1.42.75s.62-.09.88-.31c.35-.27.62-.62.66-1.06.09-.44,0-.88-.31-1.24-.57-.75-1.11-1.37-1.68-1.9-.93-.84-1.99-1.33-3.18-1.42h-.44c-.31.04-.62.09-.88.22-1.5.53-2.7,1.59-3.67,3.27-.22.4-.18.97-.13,1.15.13.62.57,1.06,1.24,1.15v.09Z"/>
        <path class="cls-11" d="M343.29,588.57c.13,0,.27.04.4.04.49,0,.93-.22,1.33-.66l.18-.22c.35-.44.75-.88,1.15-1.28.66-.57,1.19-.57,1.86,0,.49.4.93.93,1.28,1.42.18.22.4.44.71.57l-.27.13h.93c.62,0,1.11-.27,1.42-.8.31-.57.31-1.15,0-1.68-.71-1.15-1.59-1.99-2.57-2.61-1.19-.75-2.39-.93-3.49-.53-1.55.49-2.83,1.59-3.89,3.36-.13.22-.18.57-.13.88.09.66.49,1.15,1.19,1.33l-.09.04Z"/>
      </g>
      <path class="cls-11" d="M409.32,652.88h0c-3.67-8.67-10.26-15.66-18.44-19.55-3.71,5.17-9.73,8.54-16.54,8.54s-11.81-2.83-15.52-7.25c-9.77,5.62-16.85,15.83-18.71,27.91-18.84-11.01-40.02-13.18-45.42-13.53,2.08-12.25,9.24-24.1,19.95-32.64l3.18-2.57c1.46-1.15,1.68-3.27.53-4.73-1.15-1.46-3.27-1.68-4.73-.53l-3.18,2.57c-13.67,10.92-22.2,26.76-23.04,42.63,5.62.04,27.91,1.24,52.19,14.95h0c2.57,1.46,5.17,3.1,7.74,4.86,17.73-14.37,39.85-18.75,52.32-20.03h.35c5.62-.62,8.89-.44,9.33-.44,0,0,0-.09-.04-.13h0l.04-.04Z"/>
      <path class="cls-11" d="M374.29,605.03c-8.98,0-16.28,7.34-16.28,16.32s7.3,16.32,16.28,16.32,16.23-7.34,16.23-16.32-7.3-16.32-16.23-16.32h0ZM365.76,619.62c0-.22,0-.49.09-.66.57-.97,1.33-1.72,2.39-2.12.27-.09.57-.13.84-.18.8.04,1.5.35,2.03.88.4.4.8.8,1.11,1.28s.22,1.02-.22,1.33-.97.18-1.33-.27c-.27-.35-.57-.71-.93-1.02-.49-.4-.88-.4-1.37,0-.35.31-.66.66-.97,1.06-.27.31-.57.44-.93.35s-.62-.31-.71-.66h0ZM382.12,627.09c-.09.4-.31.75-.57,1.11-1.11,1.37-2.96,2.3-4.73,2.65-.88.18-1.81.27-2.7.4-2.12-.09-4.16-.53-5.88-1.77-.53-.4-.97-.93-1.42-1.42-.09-.09-.18-.22-.22-.35-.22-.49-.18-.97.13-1.24s.84.27,1.33.53c1.06.53,2.12,1.02,3.32,1.28,2.87.53,6.06.31,8.67-.97.35-.18.75-.66,1.15-.71.66-.09,1.02,0,.88.62h0l.04-.13ZM383.4,619.84c-.18.31-.44.44-.8.44s-.57-.18-.8-.44c-.27-.35-.57-.66-.88-.97-.49-.44-.93-.44-1.46,0-.35.31-.62.66-.93,1.02-.27.31-.62.49-1.02.35-.4-.09-.62-.35-.71-.8,0-.18,0-.35.09-.53.62-1.02,1.37-1.81,2.52-2.21.8-.27,1.55-.09,2.26.35s1.24,1.02,1.68,1.72c.22.31.22.66,0,.97h0l.04.09Z"/>
    </g>
    <path class="cls-23" d="M596.94,738.74c-7.34-.75-14.68-1.5-22.01-2.26-11.68-1.2-23.36-2.39-35.04-3.59-2.66-.27-5.32-.55-7.98-.82-.73-.07-1.69.15-2.28.61-.48.38-.44.76.22.83,7.34.75,14.68,1.5,22.01,2.26,11.68,1.2,23.36,2.39,35.04,3.59,2.66.27,5.32.55,7.98.82.73.07,1.69-.15,2.28-.61.48-.38.44-.76-.22-.83h0Z"/>
    <path class="cls-23" d="M554.51,746.82c-2.88.72-5.82,1.12-8.88,1.4-5.79.53-11.83.4-17.35-1.62-1.12-.41-3.77,1.21-1.94,1.88,5.88,2.15,12.4,2.27,18.58,1.73,3.37-.29,6.79-.77,10.08-1.6.52-.13,1.56-.63,1.37-1.33s-1.35-.59-1.85-.47h0Z"/>
  </g>
</svg>