<?xml version="1.0" encoding="UTF-8"?>
<svg id="Layer_1" xmlns="http://www.w3.org/2000/svg" xmlns:xlink="http://www.w3.org/1999/xlink" version="1.1" viewBox="0 0 76.3 76.3">
  <!-- Generator: Adobe Illustrator 29.1.0, SVG Export Plug-In . SVG Version: 2.1.0 Build 142)  -->
  <defs>
    <style>
      .st0, .st1 {
        fill: none;
      }

      .st2 {
        fill: #4f2f26;
      }

      .st3, .st4 {
        fill: #010101;
      }

      .st1 {
        stroke: #5e7792;
        stroke-width: .2px;
      }

      .st1, .st4 {
        stroke-miterlimit: 10;
      }

      .st5 {
        fill: #f1eef7;
      }

      .st6 {
        fill: #e2d4b3;
      }

      .st7 {
        fill: #cadaee;
      }

      .st8 {
        clip-path: url(#clippath-3);
      }

      .st9 {
        clip-path: url(#clippath-4);
      }

      .st10 {
        fill: #060606;
      }

      .st11 {
        fill: #020202;
      }

      .st12 {
        fill: #b06c4f;
      }

      .st13 {
        fill: #251911;
      }

      .st14 {
        fill: #6c3925;
      }

      .st4 {
        stroke: #010101;
        stroke-width: .1px;
      }

      .st15 {
        fill: #5e7792;
      }
    </style>
    <clipPath id="clippath-3">
      <circle class="st0" cx="38.2" cy="38.2" r="38.2"/>
    </clipPath>
    <clipPath id="clippath-4">
      <path class="st0" d="M62.9,89c.3,0,.7,0,1-.1.9-.1,3.6-1.1,4.5-1.4-1.4-7.5-2.9-16-3.9-19.8-.9-3.4-2.5-5.3-4.5-6.5,0,0-.3,0-.3,0-2.2-1.5-3.6-1.8-6.5-2.8-.4-.2-5.8-1.8-5.8-1.7,0,0,5.2,4.6-2.5,6.4-7.7,1.8-16.5-8-16.5-8l-10.2,5c-2.7,1.1-7.8,3.7-9.8,9-1,3.1-3.5,11.1-4.6,17.4,2.3.9,6.8,1.9,9.2,2.5,2,.4,3.8.9,5.7,1.2l1.3,21.6v.8s-6,17.6-6,17.6c0,0-1.6,1.7,16.4,3.9,18,2.1,35.4-3.5,35.4-3.5-.4-2.6-2.6-13.9-3.6-19.2,0-9.5.6-16,.7-22.3Z"/>
    </clipPath>
  </defs>
  <g class="st8">
    <g>
      <polyline class="st6" points="315.1 303.7 315.1 -136.2 -326.8 -136.2 -326.8 303.7"/>
      <path class="st3" d="M46,37.5c-1,.3-1.6,1.3-1.6,2.3s.7,2,1.7,2.3c-.6,1.1-1.2,2.2-1.2,3.5s.8,2.6,2.1,2.6c-.6.9-1.2,1.8-1.2,2.8s.9,2.2,1.9,2c-.4.8-.9,1.6-.9,2.5s.7,1.9,1.6,1.9c-.6.9-1,2-.6,3s2,1.3,2.5.4c.3-.5.1-1.2,0-1.8-.2-.7-.5-1.4-.7-2.2,1.2-1.1.9-3.3-.5-4.1,1.3-1.4.8-4-.9-4.8,1.4-1.7,1.1-4.6-.7-5.8,1.5-1.5,1-4.5-1-5.4"/>
      <path class="st3" d="M28,36.8c-1,.2-1.8,1.1-1.9,2.1s.5,2,1.4,2.5c-.7,1-1.5,2.1-1.6,3.3s.5,2.7,1.8,2.9c-.7.8-1.4,1.7-1.5,2.7s.6,2.2,1.7,2.2c-.5.7-1.1,1.5-1.2,2.4,0,.9.5,1.9,1.4,2-.7.8-1.3,1.9-1,2.9s1.8,1.6,2.5.7c.4-.5.3-1.2.1-1.8-.2-.7-.3-1.5-.5-2.2,1.3-1,1.2-3.2,0-4.2,1.5-1.2,4.4-3.6,2.8-4.7,1.6-1.5-1.5-4.7-3.1-6.2,1.7-1.3,1.5-4.4-.3-5.5"/>
      <path class="st3" d="M19.8,43.3c-1,0-1.9.9-2.1,1.9s.2,2.1,1.1,2.6c-.8.9-1.7,1.9-2,3.1s.2,2.7,1.4,3c-.8.7-1.5,1.5-1.8,2.5s.4,2.3,1.4,2.3c-.6.7-1.2,1.4-1.4,2.3s.2,2,1.1,2.2c-.8.7-1.5,1.7-1.3,2.8s1.6,1.8,2.4,1c.4-.5.4-1.2.3-1.8,0-.8-.1-1.5-.2-2.3,1.4-.8,1.6-3,.4-4.1,1.6-1,1.7-3.7.2-4.9,1.8-1.3,2.1-4.2.6-5.9,1.8-1.1,2-4.2.3-5.5"/>
      <path class="st12" d="M28.8,41.9s2.1,7.5.4,12.3c-.3.8-4.2,3.7-4.2,3.7l4.8,4.7c3.7,2.2,7.3,5.2,11.6,4.6,2.4-.3,8.7-.2,10.6-.9l.7-6.8-5.4-2.9c-.2-1,.2-7.9.2-7.9"/>
      <path class="st7" d="M63.5,88.9c1-.2,3.6-1.1,4.5-1.4-1.4-7.5-2.3-16.1-3.3-19.9-1.8-7-9-8.2-9.9-8.6,0,0-2.5,18.5-1,29.8,3.2.1,6.5.6,9.7,0h0Z"/>
      <path class="st7" d="M62.5,88.1c0,6.8-.8,13.4-.7,23.6,0,1.8.2,6,.6,7.8-1.6.5-2,.2-3.6.5-7.2,1.3-14.6.4-21.6-1.2-6-1.4-11.9-3.4-17.7-5.5l.2-.4-3.1-52.2,11.4-5.6s8.8,9.9,16.5,8c7.7-1.8,2.9-6.5,2.9-6.5,0,0,5.1,1.5,5.5,1.6,3,1,4.5,1.3,6.8,2.8,0,0,2.2,3.2,2.7,12"/>
      <path class="st15" d="M62.8,72.7c-.9,2.1-.5,4.4-.5,6.6,0,3.3,0,6.5,0,9.8,0,.2.7,0,.7-.2-.2-3.2,0-6.4,0-9.6,0-2.2-.5-4.6.5-6.8,0-.2-.6,0-.7.1h0Z"/>
      <path class="st7" d="M12.6,88.9c2.9.6,5.5,1.4,8.5,1.5v-5.4l-1.6-25.5s-8.8,2.2-11.6,9.6c-1,3.1-3.5,11.1-4.6,17.4,2.3.9,6.8,1.9,9.2,2.5Z"/>
      <path class="st15" d="M16.9,66.1c2.5.7,3.9,2.7,4.4,5.2.4,2.2.8,4.4.9,6.6s-.2,4.3-.5,6.5-.6,4.5-1.6,6.5l.5-.2h-.5c-.2,0-.8.3-.3.3h.5c.1,0,.4,0,.5-.2,1.1-2.1,1.3-4.7,1.7-7,.3-2.1.5-4.2.4-6.3-.1-2.3-.4-4.8-1-7s-2.2-4-4.4-4.6c-.2,0-.8.2-.6.3h0Z"/>
      <path class="st3" d="M22.1,34.5c-1,0-1.9.9-2.1,1.9s.2,2.1,1.1,2.6c-.8.9-1.7,1.9-2,3.1-.3,1.2.2,2.7,1.4,3-.8.7-1.5,1.5-1.8,2.5s.4,2.3,1.4,2.3c-.6.7-1.2,1.4-1.4,2.3s.2,2,1.1,2.2c-.8.7-1.5,1.7-1.3,2.8.2,1,1.6,1.8,2.4,1,.4-.5.4-1.2.3-1.8,0-.8-.1-1.5-.2-2.3,1.4-.8,1.6-3,.4-4.1,1.6-1,1.7-3.7.2-4.9,1.8-1.3,2.1-4.2.6-5.9,1.8-1.1,2-4.2.3-5.5"/>
      <path class="st3" d="M22.8,34.7c-1,.2-1.8,1.1-1.9,2.1s.5,2,1.4,2.5c-.7,1-1.5,2.1-1.6,3.3-.1,1.2.5,2.7,1.8,2.9-.7.8-1.4,1.7-1.5,2.7s.6,2.2,1.7,2.2c-.5.7-1.1,1.5-1.2,2.4s.5,1.9,1.4,2c-.7.8-1.3,1.9-1,2.9s1.8,1.6,2.5.7c.4-.5.3-1.2.1-1.8-.2-.7-.3-1.5-.5-2.2,1.3-1,1.2-3.2,0-4.2,1.5-1.2,1.3-3.9-.3-4.9,1.6-1.5,1.6-4.4,0-5.9,1.7-1.3,1.5-4.4-.3-5.5"/>
      <path class="st3" d="M25.3,35.5c-1,.2-1.8,1.1-1.9,2.1s.5,2,1.4,2.5c-.7,1-1.5,2.1-1.6,3.3-.1,1.2.5,2.7,1.8,2.9-.7.8-1.4,1.7-1.5,2.7s.6,2.2,1.7,2.2c-.5.7-1.1,1.5-1.2,2.4s.5,1.9,1.4,2c-.7.8-1.3,1.9-1,2.9.3,1,1.8,1.6,2.5.7.4-.5.3-1.2.1-1.8-.2-.7-.3-1.5-.5-2.2,1.3-1,1.2-3.2,0-4.2,1.5-1.2,1.3-3.9-.3-4.9,1.6-1.5,1.6-4.4,0-5.9,1.7-1.3,1.5-4.4-.3-5.5"/>
      <path class="st2" d="M33.5,48.6s1.7,7.4,13.7,7.1c0,0,0-1.5,0-1.9h-1.1c0,0-12.7-5.1-12.7-5.1h0Z"/>
      <path class="st12" d="M30.6,46.3c3.2,3.5,7.9,7.6,13.1,8.4,4.4.7,5.8-.6,6.4-1.3,3.3-3.6,5.4-7.2,6.6-11.3.3-1.1.3-2.3.3-3.6-.1-1.9-.5-5.4-.5-7.2,0-4.5-2-8.4-4.6-12.2-5.3-7.9-16.2-7.8-20.8-5.6-5.4,2.6-7.7,7.8-8,13.4,0,1.8.1,3.5.6,5,.8.8,1.4,1.8,2,2.7"/>
      <g>
        <path class="st3" d="M51.8,17.2s1.2,2.7,3.6,8.2c-.6-1.8-.9-4.4-2.4-6.8-5.3-8.5-20.8-7.2-25.4-4.8-5.4,2.8-7.3,8.4-7.6,14.3-.1,2.4-.2,4,.5,6,0,0,.5.5.5.5,0,0,4.9.9,6.5,3.8v-2.6s.2-1.6,1.4-7.5c0,0,.1-.9,1.7-4.7,1.6-3.8,3.3-4.9,3.3-4.9,0,0,7.9-1.4,9.8-1.4,1.9,0,7.9-.2,7.9-.2h0Z"/>
        <path class="st3" d="M51.5,17.3c1.2,2.7,2.4,5.5,3.6,8.2,0,.2.5,0,.4-.1-.9-2.7-1.3-5.5-3.1-7.8-1.2-1.6-2.9-2.9-4.8-3.7-3.9-1.8-8.4-2.2-12.6-1.9-3.6.3-7.2,1-10,3.4-4.2,3.6-5.2,9.3-5.3,14.5,0,1.5-.2,4.4,1.5,5,2.3.7,4.7,1.5,6.1,3.7,0,.1.4,0,.4,0,0-4.3.7-8.8,2.3-12.8.8-2.1,1.7-4.3,3.3-6,.7-.7.6-.7,1.5-.8,2.8-.5,5.7-1,8.5-1.2s5.6-.1,8.4-.2c.2,0,.3-.3,0-.3-2.7,0-5.4.1-8,.2-2.9.1-5.9.7-8.8,1.2-.5,0-.9.1-1.3.4-1.2.9-2.1,2.5-2.7,3.9-1.5,3.1-2.3,6.1-2.9,9.5-.4,2.1-.6,4-.6,6.2h.4c-1-1.8-2.8-2.8-4.5-3.4-.6-.2-1.2-.3-1.8-.5-.6-.2-.8-.8-1-1.5-.6-2.5-.3-5.5.1-8.1s1.3-5.2,2.9-7.3c2.5-3.4,6.1-4.7,10.1-5.2s8.5-.3,12.4,1.1c2.2.8,4.3,2,5.9,3.8,2,2.4,2.5,5.3,3.4,8.1h.4c-1.2-2.9-2.4-5.6-3.6-8.3,0-.2-.5,0-.4.1h0Z"/>
      </g>
      <path class="st3" d="M40.8,33.8c-.5-.2-1.1,0-1.5.3,0,0-.3.2-.4.5-.1.4,0,.8.4,1,.4.3,1,.3,1.5.1.6-.3.8-.9.6-1.3,0,0-.2-.4-.6-.6"/>
      <path class="st3" d="M43.3,35.3s-2-2.1-3.9-2c-2.8.1-3.3,1.4-3.9,2.1,0,0,1.7-1.6,3.8-1.7,1.9,0,4,1.6,4,1.6h0Z"/>
      <path class="st3" d="M53.2,33.2c.5-.2,1.1,0,1.5.2,0,0,.3.2.4.5.2.3,0,.8-.3,1-.3.3-1,.4-1.4.3-.7-.2-.9-.8-.8-1.3,0,0,.1-.4.5-.6"/>
      <path class="st3" d="M50.4,35s1.3-2.2,2.9-2.3c2.2,0,2.8,1.2,3.3,1.8,0,0-1.5-1.5-3.2-1.4-1.5,0-3,1.9-3,1.9h0Z"/>
      <path class="st3" d="M56.5,29.2s0-.2,0-.2c-.3-.2-.6-.3-1-.4-1.8-.5-2.8-.4-5.6.4h0v1.5c.8-.2,1.5-.5,2-.6,1.1-.2,2.3-.6,3.4-.4.4,0,.8.1,1.2.4,0-.3,0-.4,0-.6h0Z"/>
      <path class="st3" d="M43.5,28.8c0,.4,0,.2,0,.6,0,.3,0,.6,0,.9-1-.2-1.7-.4-2.3-.5-1.2-.1-2.6-.5-3.9-.2-.6.1-1.4.2-1.8.8,0,.1-.3.8-.6.7,0,0,0-.5,0-.6.3-1,1.1-1.4,2.1-1.7,2-.6,3.1-.6,6.3,0"/>
      <g>
        <path class="st11" d="M48.3,41.8c-.5.3-1.3.3-1.8,0-.1,0-.5,0-.3.1.7.4,1.8.4,2.5,0,0,0,0,0,0-.1,0,0-.2,0-.3,0"/>
        <path class="st11" d="M45.9,41.7c-.3-.2-.7-.2-1.1-.2,0,0-.1,0-.2,0,0,0,0,0,0,0,.2,0,.4.1.6.1,0,0,.2,0,.2,0,0,0,0,0,0,0-.2,0-.3,0-.5,0,0,0-.1,0-.2.2.3,0,.7,0,1,.2,0,0,.2,0,.2,0,0,0,0,0,0-.1"/>
        <path class="st11" d="M44.4,41.8c-.5,0-1-.2-1.2-.5-.3-.5,0-1.4.5-1.7,0,0,0,0,0,0,0,0-.2,0-.2,0-.5.3-.8,1-.7,1.5,0,.5.5.7,1.1.8.2,0,.3,0,.5,0s.2,0,.2,0c0,0,0,0,0,0"/>
        <path class="st11" d="M49.1,41.5s0,0,0,0c.1,0,.2,0,.3-.1,0,0,0,0,.1.1-.2,0-.5.1-.7.3,0,0,0,0-.1,0,0,0,0,0,0-.1"/>
        <path class="st11" d="M48.8,41.6c.2-.2.5-.3.8-.3,0,0,0,0,.1,0,0,0,0,0,0,0"/>
        <path class="st11" d="M50,41.6c.3,0,.6-.2.8-.6.2-.5,0-1.1-.4-1.4,0,0,0,0,0,0,0,0,.1,0,.2,0,.3.3.5.7.5,1.2,0,.5-.3.8-.6.9,0,0-.2,0-.3,0,0,0-.1,0-.2,0,0,0,0,0,0,0"/>
      </g>
      <path class="st4" d="M52,13.9c-1-.5-2.6-.3-2.6-.3,0,0-1.3-1.9-3.1-3s-4.5.1-4.5.1c0,0-.8-1.3-3-1.7-2.2-.4-4.4,1.4-4.4,1.4,0,0-2.4-1.6-4.8-.3-2.1,1.1-2.8,2.8-2.8,2.8-4.6,0-6,3.4-6.1,7.1-.7.3-1.4.7-1.8,1.3-2.2,3.2.5,13,2.4,14.7l.2-.5.3-7.5c.2.7.3,1.2.3,1.2l1.7,5.9,6.1-16.4s18.5-1.6,20.7-1.3,4,5,4,5c-.2-1.9-.2-7.2-2.6-8.5h0Z"/>
      <path class="st14" d="M46.7,44.8c-2.2,0-5.6,0-5.6,0,0,0,.6,4.8,5.6,4.8s5.2-4.9,5.2-4.9c0,0-3,.1-5.1.1Z"/>
      <path class="st13" d="M46.7,44.8c-1,0-5.1,0-5.1,0,0,0,1.5,2.9,5.2,2.9,4,0,4.3-2.7,4.3-2.7,0,0-4.4-.2-4.4-.2Z"/>
      <path class="st5" d="M46.8,45c-1,0-4.1,0-4.1,0,0,0,1.1,1,4.2,1.1,3.1,0,4.1-1,4.1-1,0,0-4.2-.2-4.2-.2Z"/>
      <path class="st14" d="M51.8,44.5q-.1,0-.6,0c-.8,0-1.2-.4-1.8-.5-1-.1-1.7.4-2.2.4s-1.1-.5-2.2-.4c-.6,0-2.1.6-3,.7-.5,0-.9,0-1,.1-.2,0-.1.8,5.6.8,5.8,0,5.3-1,5.1-1h0Z"/>
      <path class="st12" d="M51.5,18.7c-2.4-3.9-5.7-4.5-10.8-5-5-.4-11.7.9-14.8,6-1.4,2.3-1.6,5.3-1.5,8,.3.2.6.5.8.8.8,1,1.5,2.1,2.3,3.1.7.9,1.6,1.7,2.3,2.7.1.2.2.3.3.5.2,0,.5-.2.7-.3,1-.6,1.8-1.5,2.6-2.4.8-.9,1.5-1.8,2.3-2.6,1-1,2-2,3.1-2.9,2.1-2,4.5-3.7,7.2-4.6,2.2-.7,4.5-.7,6.7-.8-.4-.9-.8-1.7-1.2-2.4Z"/>
      <g>
        <path class="st3" d="M32.4,24.8c.1.3.3.6.3.9s-.2.7-.5.8c-.2,0-.3,0-.5.2-.4.3.2,1.1,0,1.5-.2.4-.8.3-1,.6-.4.5.3,1.5-.3,1.9-.3.2-.9,0-1.1.4,0,.1,0,.3,0,.5.1.5.1,1.1-.3,1.4-.4.2-1.1,0-1.4.5-.1.2,0,.5-.1.7-.1.3-.5.4-.8.3s-.8-.6-1.2-.7c-.6,0-1,1-1.6.8-.4-.1-.7-.6-.6-1.1s.6-.7,1.1-.6c.2,0,.3.1.5.1.6,0,.6-1,1.2-1.2.1,0,.3,0,.4-.1.3-.2.1-.7.3-.9.2-.3.8,0,1-.4.4-.4-.2-1.1,0-1.5.2-.4.8-.2,1.1-.6.3-.4-.2-1,0-1.4.3-.4,1.4-.1,1.4-.7,0,0,0-.2,0-.3,0-.3.4-.4.7-.5.5-.2.9-.5,1.2-1"/>
        <path class="st3" d="M32.2,24.8c.2.3.4.8.2,1.2-.2.5-.5.4-.8.6-.3.2-.2.6,0,1,0,.1,0,.3,0,.4,0,.3-.3.4-.5.5-.2,0-.3.1-.4.2-.3.3-.3.7-.2,1.1,0,.4.1.8-.4,1-.2,0-.4,0-.6.1-.4.2-.2.7-.2,1,0,.5,0,1-.6,1.1-.2,0-.5,0-.7.1-.1,0-.3.1-.4.2-.2.2,0,.5-.1.7,0,.1-.5.3-.6.3,0,0-.2,0-.2,0-.1,0-.2-.2-.4-.2-.1-.1-.3-.2-.5-.3-.4,0-.7.2-1,.4-.3.3-.6.5-1,.2-.3-.2-.4-.8-.1-1.1.5-.5,1.2.2,1.7-.3.1-.1.2-.3.3-.4,0-.1.1-.2.2-.3.1-.2.3-.3.6-.4.1,0,.3-.1.3-.3.2-.4,0-.7.5-.9.3-.1.7,0,.8-.5.2-.6-.5-1.2.4-1.5.4-.1.7-.4.7-.9,0-.4-.2-.8.3-1,.2,0,.5,0,.7-.1.1,0,.2-.1.3-.2,0,0,0-.1,0-.2,0,0,0-.1,0-.1,0-.2.2-.4.4-.5.6-.3,1-.5,1.4-1.1,0-.1-.2-.1-.3,0-.3.5-.7.7-1.1.9-.2,0-.4.1-.5.3-.2.2,0,.4-.2.6-.2.3-.5.2-.8.3-.4.1-.6.3-.6.8s.2.8-.3,1.1c-.2.1-.5.1-.7.3-.4.4,0,.8,0,1.3,0,.6-1.1.3-1.3.9,0,.1,0,.3,0,.4,0,.2-.3.3-.5.4s-.3.2-.4.4c0,0-.1.2-.2.3-.1.2-.2.3-.5.4s-.6,0-1,0c-.4.1-.8.5-.8,1,0,.4.4.9.8.9s.7-.3,1.1-.6c.7-.5,1,.3,1.6.4.4,0,.9,0,1-.4,0-.2,0-.3,0-.5,0-.3.3-.4.6-.5.3,0,.5,0,.8-.2.4-.2.5-.7.5-1.1,0-.1,0-.3,0-.5,0-.5.3-.5.6-.6.2,0,.4,0,.5-.2.4-.4,0-1.1,0-1.5.1-.7,1-.5,1.2-1.1,0-.3,0-.5-.1-.8s0-.5.2-.6c.1,0,.3,0,.4-.1.6-.4.4-1.2.1-1.8,0-.1-.3,0-.3,0h0Z"/>
      </g>
      <g>
        <path class="st3" d="M31.2,22c.3.3.3.7.2,1s-.6.5-.9.5c.2.5-.1,1-.6,1.2-.2,0-.4,0-.6.2-.4.3,0,1.1-.5,1.4-.1.1-.4.1-.5.2-.3.2-.2.8-.4,1.1-.3.4-1,.3-1.2.7-.2.3,0,.7-.4.9-.1,0-.4,0-.5.2-.2.1,0,.4,0,.6,0,.5-.6,1-1.1.8,0,.4-.2.7-.5.9-.2-.3-.5-.7-.5-1.1s0-.9.4-1.1c.1,0,.3-.1.4-.2.3-.3.1-.9.4-1.1.2-.2.6-.1.7-.3,0-.1,0-.2,0-.4,0-.5.5-.8,1-.8.1,0,.3,0,.4,0,.4-.1,0-.7.2-1,.2-.3.7-.3.8-.7,0-.1,0-.2,0-.4,0-.2.2-.3.4-.5.8-.6,1.6-1.2,2.4-1.8"/>
        <path class="st3" d="M31.1,22c.5.5.2,1.4-.6,1.3,0,0-.2,0-.2.1,0,.3,0,.6-.2.8-.2.3-.5.2-.8.3-.2.1-.4.3-.4.5,0,.2,0,.4,0,.6,0,.3-.3.4-.5.5-.3.2-.4.4-.4.7s-.2.6-.5.7c-.2,0-.3.1-.5.2-.3.1-.4.3-.5.6,0,0,0,.2,0,.3-.1.2-.3.3-.5.4-.1,0-.2,0-.3.2s0,.3,0,.4c0,.5-.3.9-.9.8,0,0-.2,0-.2.1,0,.4-.2.6-.4.9h.2c-.4-.6-.9-1.5-.2-2,.4-.3.6-.3.7-.8,0-.1,0-.3,0-.4.1-.3.4-.3.6-.4.1,0,.2-.1.3-.2.2-.2,0-.5.3-.8.3-.3.6-.2,1-.2s.4-.3.4-.6c0-.4,0-.6.4-.8.1,0,.3-.1.4-.2.1-.1.1-.3.2-.5.1-.4.5-.7.9-.9.6-.5,1.2-.9,1.9-1.4.1-.1,0-.2-.2-.1-.7.5-1.3,1-2,1.5-.2.2-.6.4-.8.7-.2.3,0,.6-.4.8-.4.2-.6.4-.6.9,0,0,0,.2,0,.3-.1.3-.3.2-.5.2s-.4,0-.6.2c-.2.1-.3.2-.4.4,0,.1,0,.3-.1.4-.1.4-.2.3-.5.4-.5.2-.5.5-.6.9,0,.4-.4.4-.7.6-.2.1-.3.3-.3.6-.1.6.2,1.2.5,1.6,0,0,.2,0,.2,0,.3-.3.4-.6.5-1h-.2c.4.2.8.1,1-.1.1-.1.2-.2.2-.4.1-.4-.1-.6.3-.9.4-.2.5-.3.6-.8.2-.7.8-.5,1.2-.9.1-.1.2-.3.2-.5,0-.1,0-.2,0-.4,0-.3.3-.3.5-.5.4-.2.4-.5.5-.9s.1-.6.5-.7c.2,0,.4-.1.6-.2.3-.3.4-.7.3-1.1h-.2c.9.2,1.6-.8.9-1.5,0,0-.3,0-.2.1h0Z"/>
      </g>
      <g>
        <path class="st3" d="M30.5,20.9c.1.6-.3,1.2-.9,1.3-.1,0-.2,0-.3,0-.2.1-.2.4-.3.6-.2.5-.8.7-1.3.7-.3,0-.8,0-.9.4,0,.1,0,.3,0,.4-.2.3-.8.2-.9.5,0,.2,0,.3,0,.5,0,.3-.6.2-.9.5-.1.1-.2.3-.2.4-.1.5-.2,1-.4,1.4,0,.1,0,.2-.2.3-.2,0-.3-.2-.4-.4-.3-1.1-.3-2.3,0-3.4,0-.3.2-.6.5-.6.1,0,.2,0,.3,0,.1,0,.1-.3.1-.4,0-.6.6-1.2,1.2-1.1.2,0,.4.1.5,0,0,0,.1-.2.1-.3.1-.3.5-.4.8-.4s.6,0,.9,0c.4-.1.6-.5,1-.6.5,0,.9.3,1.3,0"/>
        <path class="st3" d="M30.4,21c0,.5-.2,1-.6,1.1-.3,0-.5,0-.7.3,0,.1,0,.3-.1.5-.1.3-.3.5-.6.5-.4.1-.7,0-1.1.1-.2,0-.4.1-.5.4-.1.2,0,.4-.3.5-.1,0-.3,0-.4.1-.2.1-.2.3-.2.5,0,.3-.1.4-.4.4-.1,0-.3,0-.4.1-.3.2-.3.6-.4.9,0,.2-.1.4-.2.7,0,.2-.1.8-.3.4-.2-.4-.2-.9-.3-1.4,0-.5,0-1.1,0-1.6,0-.2,0-.5.2-.7,0,0,0-.2.1-.2.1-.2.2-.1.3-.2s.4,0,.4-.2c0-.1,0-.2,0-.3,0-.2,0-.4.2-.6.2-.3.5-.4.9-.4.1,0,.3,0,.4,0,0,0,.2,0,.2-.1,0,0,0-.1.1-.2.1-.3.4-.4.7-.4s.7,0,1-.2c.2,0,.3-.2.4-.3.3-.3.6-.1,1,0,.3,0,.5,0,.8,0,.1,0-.2,0-.2,0-.2.1-.6,0-.8-.1-.1,0-.3,0-.4,0-.5,0-.7.5-1.1.6s-.8,0-1.2.2c-.1,0-.2.1-.3.2,0,0,0,.2-.1.2-.1.2-.3,0-.4,0-.6,0-1.3.4-1.4,1,0,.1,0,.5,0,.6,0,0-.3,0-.3,0-.3,0-.5.3-.5.6-.3,1.1-.3,2.3,0,3.4,0,.3.2.6.6.5s.4-.5.4-.8c0-.3.1-.6.2-.9,0-.3.1-.5.5-.7.2,0,.5-.1.6-.4,0-.2-.1-.4,0-.5,0-.1.4-.2.6-.2.1,0,.2,0,.2-.2,0,0,0-.1,0-.2,0,0,0-.2,0-.2,0-.1.3-.2.5-.3.4,0,.7,0,1.1-.2.4-.2.6-.4.7-.9,0-.2,0-.2.2-.3.1,0,.2,0,.3-.1.1,0,.3-.1.4-.2.4-.3.5-.7.5-1.1,0,0-.3,0-.3,0h0Z"/>
      </g>
      <g>
        <path class="st3" d="M29.6,20.3c-.7.3-1.5-.7-2.2-.4-.3.2-.5.6-.9.6-.2,0-.3-.2-.5-.1-.4,0-.3.6-.5.9-.3.4-.9.1-1.2.5,0,.1-.1.2-.2.3-.1.2-.4.3-.6.4s-.4.3-.4.5c-.5-.8-.3-2,.4-2.6,0,0,.2-.1.2-.2s0-.2,0-.3c0-.5.4-.9.9-1.1.2,0,.4-.1.5-.2.2-.2.1-.5.2-.7.2-.5,1-.6,1.4-1,.2-.2.3-.4.5-.5s.4-.3.7-.4c.2,0,.5,0,.6.1,0,.1,0,.3.1.4.1.3.6.4.9.4s.8,0,1,.3c.3.4-.1,1,0,1.5,0,.2.2.4.2.6,0,.2,0,.4-.1.6-.1.3-.3.7-.4,1"/>
        <path class="st3" d="M29.6,20.2c-.4.2-.9-.2-1.2-.3-.2-.1-.5-.2-.8,0-.4,0-.5.4-.8.5s-.6-.2-1,0c-.2.1-.2.4-.3.7-.2.5-.7.3-1.1.5-.1,0-.2.1-.3.2,0,0-.1.2-.2.3-.1.1-.2.2-.4.3-.3.1-.6.3-.6.6h.3c-.3-.5-.4-1-.2-1.5,0-.3.1-.5.3-.7.1-.2.3-.3.5-.5s.1-.4.2-.6c.1-.3.3-.6.6-.8.4-.2.8-.2.9-.8,0-.3.1-.5.4-.7.2-.1.4-.2.6-.3.2,0,.3-.2.4-.3.2-.2.4-.5.6-.7.3-.2.7-.3.9,0,0,.1,0,.2.1.3,0,.1.2.2.4.3.4.1,1,0,1.4.3s.1.7,0,1c0,.3,0,.5,0,.8.1.3.1.6,0,.9s-.3.7-.5,1c0,0,.3,0,.3,0,.3-.6.7-1.2.5-1.9-.1-.3-.1-.6,0-.9,0-.2.1-.5,0-.8-.2-.5-.9-.4-1.3-.4-.4,0-.6-.2-.7-.6,0-.2-.1-.3-.4-.4-.4,0-.9.2-1.2.5-.2.2-.4.5-.7.7-.2.1-.5.2-.7.3-.1,0-.3.2-.4.3,0,.1-.1.2-.1.4,0,.3-.1.5-.4.6-.5.2-.9.4-1,1,0,.1,0,.3-.1.5,0,.2-.2.3-.4.4-.2.2-.3.5-.4.7-.2.6-.1,1.2.2,1.8,0,0,.3,0,.3,0,0-.5.6-.5.9-.8s0-.1.1-.2c.1-.2.3-.3.5-.4.1,0,.3,0,.4,0,.2,0,.4-.2.5-.4,0-.1,0-.3.1-.5.1-.3.2-.1.5,0,.2,0,.4,0,.6-.1.1,0,.2-.2.3-.3.2-.2.5-.3.8-.1.5.2,1,.5,1.6.3.2,0,0-.1-.1,0h0Z"/>
      </g>
      <g>
        <path class="st3" d="M31.7,20.2c.4-.2.6-.8.3-1.2,0-.1-.2-.3-.2-.4,0,0,0-.1.1-.1.3-.3.3-.9,0-1.1,0,0-.1-.1-.2-.2-.2-.3.3-.8,0-1-.2-.2-.6.1-.9,0-.3-.1-.3-.6-.5-.7-.4-.2-1,.4-1.3,0-.1-.2,0-.5.2-.6s.5,0,.7-.1c.6-.1,1-.7,1.5-1,.5-.3,1.2-.4,1.8-.4.3,0,.5,0,.8,0,.4.1.7.6.7,1,0,0,0,.2,0,.2,0,0,0,0,.1,0,.2,0,.5.2.7.2,0,0,.2,0,.2.1,0,.2-.2.4-.4.4s-.5,0-.5.2c-.2.4.5.6.5,1,0,.4-.8.3-.9.7,0,.2.2.5.1.7s-.3.4-.5.5-.5.1-.7.3c-.1.1-.2.3-.3.5-.3.5-.8.8-1.3,1"/>
        <path class="st3" d="M31.8,20.2c.3-.2.4-.4.5-.8,0-.2,0-.3-.1-.5,0,0-.1-.1-.2-.2,0-.2,0-.2.2-.4.2-.3.2-.7,0-1,0-.1-.3-.2-.4-.4,0-.2,0-.4.1-.6,0-.3,0-.4-.3-.5-.1,0-.2,0-.4,0-.5,0-.5-.2-.6-.5-.1-.2-.3-.3-.6-.3s-1.1.4-.9-.2c.1-.3.5-.3.7-.3.2,0,.3,0,.5-.2.3-.2.6-.4.9-.7.5-.4,1.2-.5,1.9-.6.6,0,1.2,0,1.4.6,0,.2,0,.4,0,.5,0,.1.2.2.3.2.2,0,.8.2.7.4,0,.2-.5.2-.6.2-.2,0-.4.2-.3.5s.5.4.5.7c0,.4-.6.4-.8.6-.1.1-.1.2,0,.4,0,.1,0,.2.1.4,0,.3-.2.4-.5.5-.4.1-.7.2-.9.6-.3.6-.8.9-1.3,1.2-.2,0,0,0,.2,0,.4-.2.8-.4,1.1-.7.2-.2.2-.4.3-.6.1-.2.2-.3.5-.5.1,0,.2,0,.3-.1.3-.1.6-.4.5-.7,0-.3-.2-.5.1-.7.2,0,.3-.1.5-.2.2-.1.3-.4.2-.6,0-.1-.2-.2-.3-.3,0,0-.1-.1-.1-.2,0-.2.2-.3.4-.3.2,0,.6-.1.6-.4,0-.4-1-.3-1.1-.7,0-.2,0-.4-.1-.6,0-.2-.3-.3-.5-.4-.4-.2-.9-.1-1.3,0s-.9,0-1.3.3-.7.5-1.1.8c-.3.2-.6.4-1,.4s-.4,0-.5.2c-.2.1-.4.5-.1.7.2.1.5,0,.7,0,.7-.2.5.4.9.7.3.2,1.1-.2,1,.4,0,.2-.1.4-.1.5,0,.2.2.3.3.4.2.2.2.6.1.8,0,.2-.4.3-.3.6,0,.2.3.3.3.6,0,.3-.1.6-.4.8-.1,0,.2,0,.2,0h0Z"/>
      </g>
      <g>
        <path class="st3" d="M32.1,21.3c0-.6.9-.6,1.3-1,.3-.3.5-.8.9-1,.3-.1.7-.1.9-.4,0-.1,0-.4.2-.5.2-.7,1.4-.6,1.6-1.3.2-.6-.6-1.3-.2-1.8.1-.2.3-.2.4-.4.2-.4-.2-.7-.5-1-.5-.3-.9-.6-1.4-1,1-.5,2.2-.8,3.3-.7.4,0,.8.1,1.2.4s.5.8.3,1.1c0,.1-.2.2-.2.3-.2.5.5,1.1.2,1.5,0,0-.2.1-.3.2-.2.3,0,.8-.2,1.1-.2.3-.6.2-.8.4-.2.1-.2.3-.3.5-.2.2-.4.4-.6.5-.6.4-1.3.8-1.9,1.2-.5.3-.9.6-1.5.6-.3,1-1.5,1.5-2.4,1.2"/>
        <path class="st3" d="M32.3,21.3c0-.5.9-.6,1.2-.8.2-.1.3-.3.5-.5.2-.3.4-.5.8-.5.2,0,.4,0,.5-.2.2-.2.2-.5.3-.7.2-.4.8-.5,1.2-.7.3-.2.5-.5.4-.8,0-.6-.6-1.1,0-1.6.3-.3.4-.7,0-1-.5-.5-1.2-.9-1.7-1.2v.2c.6-.4,1.3-.6,2.1-.7.7,0,1.6-.1,2.2.3.4.3.4.7.2,1.1,0,.2-.2.3-.2.5s.1.4.2.6c.2.4.2.4-.1.8-.1.1-.2.2-.2.3,0,.4.2.7-.3,1-.2,0-.3,0-.5.2-.2.1-.3.3-.5.5-.2.2-.5.4-.7.6-.3.2-.7.4-1,.7-.6.4-1.3,1-2.1,1,0,0-.1,0-.1,0-.3.9-1.3,1.4-2.2,1.1-.1,0-.3.1-.2.2,1.1.3,2.2-.2,2.7-1.3h-.1c.5,0,1-.1,1.5-.4.6-.4,1.2-.8,1.8-1.2.2-.1.5-.3.7-.5.2-.2.3-.5.6-.7.3-.2.7-.1.8-.6,0-.3,0-.5.1-.8.1-.2.3-.3.4-.5.1-.4-.2-.7-.3-1.1,0-.3.2-.5.3-.7,0-.2,0-.4,0-.6-.2-.4-.6-.6-1-.8-1.3-.3-2.8,0-4,.6,0,0-.1.1,0,.2.3.2.6.4,1,.7.3.2.6.4.8.6.4.5-.5.8-.4,1.4,0,.5.5,1,.3,1.5-.2.4-.8.5-1.1.7s-.4.4-.5.8c-.2.5-.6.4-.9.5-.2.1-.3.2-.4.4-.2.2-.3.5-.6.6-.2.1-.5.2-.7.3-.3.1-.5.3-.6.6,0,.1.3.1.3,0h0Z"/>
      </g>
      <g>
        <path class="st3" d="M33.2,22.3c.7.4,1.6.3,2.2-.3.2-.2.3-.4.5-.6.6-.5,1.5-.4,2.1-.9.3-.3.4-.7.7-1,.6-.6,1.7-.5,2.2-1.1.1-.2.2-.4.4-.5.3-.2.7-.2.9-.4.4-.2.5-.8.8-1,.2-.1.5-.1.7-.3.3-.3,0-1,.4-1.3.1-.1.3-.1.5-.3.3-.3,0-.8-.2-1.1-.4-.4-1-.5-1.5-.7-.1,0-.2,0-.4-.1-.6-.2-1.4-.4-1.9,0,0,0-.2.2-.1.3,0,0,0,.1.2.1.4.3.8.5,1.3.8-.4.1-.4.6-.4,1s.1.9-.2,1.1c-.2.1-.4.2-.5.4s0,.3,0,.5c0,.5-.7.5-1.1.7-.3.2-.5.4-.7.7-.3.3-.6.5-.9.7-.3.2-.5.4-.8.6-.8.6-1.5,1.1-2.3,1.6-.6.4-1.2.7-1.8,1"/>
        <path class="st3" d="M33,22.3c.6.3,1.2.4,1.8,0,.3-.1.5-.3.7-.5.2-.3.4-.5.7-.7.2-.1.5-.2.8-.2.3,0,.6-.2.8-.4.3-.3.5-.7.7-1,.5-.7,1.5-.6,2.2-1.1.1-.1.2-.3.3-.4.4-.4.5-.3.9-.5.3-.1.5-.4.6-.6s.3-.4.6-.5c.1,0,.2,0,.4-.1.3-.2.3-.4.4-.7,0-.3,0-.4.2-.6.1-.1.3-.2.4-.3.2-.2.2-.4.2-.7-.3-.8-1.4-1-2.1-1.2-.7-.2-1.5-.5-2.1,0-.2.1-.4.3-.3.6,0,.1.4.3.5.3.3.2.6.4.9.6h0c-.3,0-.4.2-.5.5,0,.6.3,1.2-.3,1.6-.1.1-.3.1-.3.2-.2.2,0,.5-.2.7-.2.4-.8.4-1.2.6-.4.3-.7.8-1.1,1.1-.5.4-1,.8-1.6,1.2-1.2.9-2.4,1.6-3.6,2.3-.2,0,0,.1.2,0,1.1-.6,2.2-1.3,3.2-2,1-.7,2-1.4,2.8-2.2.4-.4.8-.5,1.3-.8.3-.2.3-.5.4-.8.2-.4.6-.4.7-.9,0-.4-.3-1.3.2-1.6,0,0,.1,0,0-.1-.2-.1-.5-.3-.7-.4-.1,0-.2-.1-.4-.2-.5-.2-.3-.5.5-.7.5,0,1,.2,1.5.4.5.1,1.1.3,1.4.7.1.1.2.3.3.5,0,.4-.2.4-.5.6-.2.1-.3.2-.3.5,0,.2,0,.4,0,.6,0,.3-.4.4-.7.5-.2.1-.4.2-.5.4-.1.2-.2.4-.3.5-.3.3-.5.3-.9.4s-.4.3-.6.5c-.3.4-.8.5-1.3.7-.7.2-1,.5-1.4,1.1-.5.9-1.5.7-2.2,1.2-.2.2-.4.4-.6.6-.5.6-1.3.7-2,.3,0,0-.3,0-.2.1h0Z"/>
      </g>
      <g>
        <path class="st3" d="M41.5,19.1c-.2-.2,0-.6.2-.7s.6-.2.8-.3c.3-.2.5-.6.7-.9.3-.3.7-.4,1.1-.6s.7-.5.7-1c0-.2-.2-.5,0-.6.1-.2.5-.1.6-.3.1-.2-.1-.5,0-.7,0-.2.2-.3.4-.3.6-.1,1.1.3,1.5.7.5.5,1,1,1.5,1.4,0,0,0,0,0,.1.1.2,0,.4-.3.5s-.4,0-.6-.1-.5-.1-.6,0c-.2.1-.2.4-.3.6-.3.4-1,.2-1.5.5-.3.1-.5.5-.8.6-.3.1-.7,0-1,.2-.5.1-.8.5-1.2.8s-.9.5-1.3.4"/>
        <path class="st3" d="M41.6,19.1c-.4-.4.3-.7.7-.8.2,0,.4-.2.6-.4.2-.2.3-.5.5-.7.3-.3.7-.4,1-.5.2-.1.4-.2.6-.4.2-.3.2-.5.1-.9,0-.2,0-.4.2-.5,0,0,.2,0,.2,0,.2,0,.2-.2.2-.4,0-.1-.1-.2-.1-.4,0-.4.5-.4.8-.2.3.1.6.4.9.6.3.3.6.6.9.9.2.1.3.3.5.5.2.2.4.4,0,.5-.3.1-.6-.1-.9-.1-.2,0-.3,0-.5.2-.4.3-.2.7-.8.8-.2,0-.5,0-.8.1s-.4.2-.6.4c-.3.2-.4.4-.8.4-.2,0-.3,0-.5,0-.2,0-.5.2-.7.3-.5.3-1,1.1-1.7.8,0,0-.3,0-.3,0,.6.2,1.2-.1,1.6-.5.2-.1.3-.3.5-.4.3-.2.6-.3.9-.3.3,0,.5,0,.8-.2.2-.1.3-.2.4-.4.3-.2.6-.2.9-.3.2,0,.5,0,.7-.2.4-.2.3-.8.9-.7.3,0,.6.2.9,0,.8-.3-.2-1.1-.5-1.4-.5-.5-1.2-1.5-2.1-1.5-.2,0-.4,0-.6.1-.3.2-.1.4,0,.8,0,.4-.5.3-.6.5,0,.1,0,.2,0,.4,0,.3.2.5,0,.7-.3.5-.9.5-1.3.8-.4.2-.5.5-.8.8-.3.5-.8.4-1.2.7-.2.2-.4.5-.2.7,0,0,.3,0,.3,0h0Z"/>
      </g>
      <g>
        <path class="st3" d="M45.7,18.1c.3-.4,1-.2,1.4-.4.3-.1.4-.5.7-.5.4,0,.8.3,1.1.1.2-.1.2-.5.5-.6.2-.1.5,0,.6.2.6.5,1.2,1,1.6,1.7,0,0,0,.1,0,.2,0,.2-.2.3-.4.3s-.3-.2-.4-.4-.2-.3-.4-.4c-.5-.2-1.1.4-1.7.2-.2,0-.3-.2-.5-.2-.4,0-.8.4-1.2.3-.2,0-.3-.1-.4-.2-.2-.1-.5-.1-.7,0-.1,0-.2.1-.3.1s-.2-.1-.2-.2"/>
        <path class="st3" d="M45.9,18.1c.3-.3.9-.2,1.2-.3.2,0,.3-.1.4-.2s.2-.2.4-.3c.2,0,.3,0,.5,0,.3,0,.6.1.8,0,.1-.1.2-.3.3-.4.3-.2.7.2.9.4.4.4.8.8,1.1,1.2,0,.1.2.2.2.4,0,.3-.3.1-.5,0-.2-.2-.3-.4-.5-.5-.3-.2-.6,0-.9,0-.2,0-.5.2-.7.2s-.4-.2-.6-.3c-.5,0-.9.5-1.3.2-.2-.1-.3-.2-.6-.2,0,0-.2,0-.3,0s-.5.2-.5,0c0,0-.3,0-.3,0,0,.2.1.2.3.3,0,0,.2,0,.2,0,.3-.1.5-.1.8,0,.2.1.3.2.5.2.2,0,.4-.1.6-.2,0,0,0,0,.1,0,.3-.1.3,0,.5,0,0,0,.2,0,.2.1.2,0,.4,0,.6,0,.3,0,.6-.3.9-.2.3,0,.5.5.7.7.2.2.7.2.9,0,.1-.2,0-.4-.2-.6-.2-.3-.5-.6-.7-.9-.3-.3-.9-1-1.4-.9-.2,0-.3.1-.4.2,0,.1-.1.2-.2.3-.2.1-.4,0-.5,0-.2,0-.4,0-.6,0-.3.1-.4.4-.7.5-.5.3-1.1,0-1.5.5,0,0,.2,0,.2,0h0Z"/>
      </g>
      <path class="st3" d="M25.2,32.8c-.5.2,2,.3,2-.2s-.1-1.9.2-2.2-1.7,1.2-1.5-1.3c-.5-.3-1.1,1.4-1.6,1.3-.7-.2.2-1.3.5-1.9s.3-.9.6-1.5c.1-.2-.4-.7-.6-.9,0,0-.2,0-.3,0-.5,0-.8-.4-1-.8s1.2-1.1,1.3-1.6c.2-.7,0-1.3.6-1.8.2-.2-.2-.3,0-.5s0-.7-.2-.8c-.2,0-.4,0-.5,0-.8.3-1.6.6-2.2,1.2s-1,1.4-.8,2.2c0,.3.2.6.2,1,0,.4-.4.7-.5,1.1-.2.8.5,1.6.2,2.4-.1.2-.3.4-.4.7-.2.4-.1.9.2,1.3.2.2.4.3.6.5.7.8,0,2.1.5,3,.4.9,1.1,1.1,1.7.3"/>
      <path class="st3" d="M29.4,14.2c.5,0,.8-.4,1.2-.6.6-.4,1.3-.7,2-.6.5,0,1.1.1,1.6,0,.3,0,.6-.2.9-.4,1-.5,2.1-.7,3.2-.6.2,0,.5,0,.7,0,.3,0,.5-.2.8-.4.6-.3,1.3-.3,1.9,0,.9.4,1.5,1.4,2.5,1.3.7,0,1.4-.8,2-.4.3.2.4.5.6.8.5.5,1.4.1,2,.6.5.3.5,1.1,1,1.4.3.2.7.3,1.1.4.3.1.7.5.5.9l.3.5c1.9,1.5,2.7,5.2,2.3,5.1s-2.6-2.2-2.7-2.7c-.6-2.6-3-3.8-3.7-3.9-.6-.2-1.3-.2-1.9-.6-.4-.2-1,.2-1.4,0-.5-.1-.8-.5-1.3-.6-.3,0-.6.4-.8.2-.6-.5-1.5-.4-2.3-.3-.6.1-.8-.6-1.4-.6-.4,0-.6.8-1.1.8-.6,0-1,0-1.7,0-1,.3-2.5-.2-3.5,0-.7.2-1.3,1.3-1.9,1.7-.9.6-1.6.7-2.6,1-.3-.6-.3-1.4,0-2s1-1,1.7-1"/>
      <path class="st12" d="M29.2,43.1c-2.5,2.2-4.1-1.6-4.1-1.6-2-2.8-2.4-5.7-2.2-7.6.2-1.9,2.4-1.7,2.4-1.7,1.8.3,1.5.5,3.6,5.8"/>
      <path class="st3" d="M24.2,36.1c0-.8,0-1.7.5-2.3,0,0,.1-.1.1-.2,0,0,0,0,0,0,0,0-.1,0-.1,0,0,0,0,0,0,0,.8.3,1.2,1.1,1.6,1.9.3.7.5,1.5.8,2.2,0,.1.1.3.2.4,0,0,0,.1,0,.2,0,0,0,0,0,0,0,0,.2,0,0,0-.2,0-.5,0-.6.1-.4.3-.2.9-.1,1.3,0,.3.2.5.2.8,0,0,0,.2,0,.3,0,.1-.2,0-.3,0-.6-.5-.7-1.4-.9-2.1-.2-.6-.4-1.6.3-2,.2,0,0-.2-.1-.2-.7.3-.7,1.1-.6,1.8,0,.2.1.4.2.6.1.5.2.9.4,1.4.2.3.9,1.2,1.3.6.1-.2,0-.4,0-.6,0-.3-.2-.7-.2-1,0-.3-.1-.7.3-.7.2,0,.5.1.5-.2,0-.3-.2-.6-.3-.8-.2-.4-.3-.9-.5-1.3-.3-.8-.6-1.6-1.1-2.2-.2-.2-.5-.5-.8-.6-.2,0-.4,0-.5.2-.6.7-.7,1.7-.7,2.6,0,.1.3,0,.3,0h0Z"/>
      <path class="st10" d="M34.2,33.3l.5,1.2c.3,1,1.5,2.8,1.9,3.3.6.7,6.4.8,7.6.2s1.7-3.6,1.9-4.3h2.3c.2.9,1.1,3.7,1.5,4s3.2.2,3.5.2c.2,0,.6,0,1,0,1,0,2.2-.3,2.6-.6.5-.5,1.1-2.4,1.5-4.2v-.3c.1,0,.1-.1.1-.1h0v-.3c-3.3-1.3-7.8-.9-10.4.9h0s-2.3,0-2.3,0c-2.6-1.4-7.1-2.1-10.3-.9h0l-8.9,2.5v.8l7.3-2.3h0ZM50.2,37.5c-.3-.2-.9-2.2-1.4-3.7,2.3-1.5,6.3-1.9,9.3-.9h0c-.2,1-.9,3.5-1.4,4-.6.6-6,.8-6.5.5h0ZM37.2,37.7c-1-1.1-1.8-2.9-2.4-4.4,2.8-1.2,8-.8,10.6.6-.4,1.2-.8,3.4-1.6,3.8-1.2.7-6.3.4-6.7,0h0Z"/>
      <g class="st9">
        <g>
          <path class="st1" d="M14.2,57.5s-1.1-2.1-.4-3.2,1.6-.3,1.5.5-.9,2.8-.9,2.8c0,0,.9-2.6,2-2.5s1.1.8.8,1.4-2.6,1.4-2.6,1.4c0,0,2.4-.8,2.9-.8s1.2.9.7,1.7c-.6.7-3.7-.5-3.7-.5,0,0,2.6.5,2.7,1.5s-1.3,1.6-1.9.9-1-2.1-1-2.1c0,0,.8,2.2.4,2.8s-1.9.8-2,0,1.2-2.8,1.2-2.8c0,0-.9,2.1-1.8,2.1s-1.5-.8-1.2-1.5,2.8-1,2.8-1c0,0-2.8.8-3.3,0s.4-1.4.8-1.4,2.5.9,2.5.9c0,0-2.7-.7-2.5-2s1.8-.9,2.1-.4.9,2.2.9,2.2h0Z"/>
          <path class="st1" d="M7.1,63.7s-.6-1.3-.3-1.7,1.2-.8,1.3,0-.7,1.7-.7,1.7c0,0,.7-.6,1.4-1.1s1.3.6.7,1.3c-.6.8-2,0-2,0,0,0,1.4.4,1.3,1.3s-1.1,1-1.3.7-.2-1.7-.2-1.7c0,0,.5,1.7-.5,1.9s-1.3-.9-.9-1.5.9-.6.9-.6c0,0-1.5.8-1.7.1s.2-1.8.8-1.5,1.2,1.1,1.2,1.1h0Z"/>
          <circle class="st15" cx="14.2" cy="58" r=".6"/>
          <path class="st1" d="M14.2,69.3s-1.1-2.1-.4-3.2c.7-1.2,1.6-.3,1.5.5s-.9,2.8-.9,2.8c0,0,.9-2.6,2-2.5s1.1.8.8,1.4-2.6,1.4-2.6,1.4c0,0,2.4-.8,2.9-.8s1.2.9.7,1.7-3.7-.5-3.7-.5c0,0,2.6.5,2.7,1.5s-1.3,1.6-1.9.9c-.6-.7-1-2.1-1-2.1,0,0,.8,2.2.4,2.8s-1.9.8-2,0,1.2-2.8,1.2-2.8c0,0-.9,2.1-1.8,2.1-.9,0-1.5-.8-1.2-1.5s2.8-.9,2.8-.9c0,0-2.8.8-3.3,0s.4-1.4.8-1.4,2.5.9,2.5.9c0,0-2.7-.7-2.5-2s1.8-.9,2.1-.4.9,2.2.9,2.2h0Z"/>
          <circle class="st15" cx="14.2" cy="69.8" r=".6"/>
          <path class="st1" d="M20.6,63.7s-.5-1.3-.3-1.7,1.2-.8,1.3,0-.7,1.7-.7,1.7c0,0,.7-.6,1.4-1.1s1.3.6.7,1.3-2,0-2,0c0,0,1.4.4,1.3,1.3-.2.9-1.1,1-1.3.7s-.2-1.7-.2-1.7c0,0,.5,1.7-.5,1.9-1,.2-1.3-.9-.9-1.5s1-.6,1-.6c0,0-1.5.8-1.7.1s.2-1.8.8-1.5c.6.4,1.2,1.1,1.2,1.1h0Z"/>
          <circle class="st15" cx="20.7" cy="63.9" r=".6"/>
          <path class="st1" d="M28.3,69.3s-1-2.1-.4-3.2c.7-1.2,1.6-.3,1.5.5s-.9,2.8-.9,2.8c0,0,.9-2.6,2-2.5s1.1.8.8,1.4-2.5,1.4-2.5,1.4c0,0,2.4-.8,3-.8s1.2.9.7,1.7c-.6.7-3.7-.5-3.7-.5,0,0,2.6.5,2.7,1.5s-1.3,1.6-1.9.9c-.6-.7-1-2.1-1-2.1,0,0,.8,2.2.4,2.8s-1.9.8-2,0,1.2-2.8,1.2-2.8c0,0-.9,2.1-1.8,2.1s-1.5-.8-1.2-1.5,2.9-.9,2.9-.9c0,0-2.8.8-3.3,0s.4-1.4.8-1.4,2.5.9,2.5.9c0,0-2.7-.7-2.5-2,.2-1.3,1.8-.9,2.1-.4s.9,2.2.9,2.2h0Z"/>
          <path class="st1" d="M21.2,75.5s-.5-1.3-.3-1.7,1.2-.8,1.3,0-.7,1.7-.7,1.7c0,0,.7-.6,1.4-1.1s1.3.6.7,1.3c-.6.8-2,0-2,0,0,0,1.4.4,1.3,1.3s-1.1,1-1.3.7-.2-1.7-.2-1.7c0,0,.5,1.7-.5,1.9s-1.3-.9-.9-1.5,1-.6,1-.6c0,0-1.5.8-1.7.1s.2-1.8.8-1.5,1.2,1.1,1.2,1.1h0Z"/>
          <circle class="st15" cx="28.3" cy="69.8" r=".6"/>
          <circle class="st15" cx="21.3" cy="75.7" r=".6"/>
          <path class="st1" d="M34.6,75.5s-.5-1.3-.3-1.7,1.2-.8,1.3,0-.7,1.7-.7,1.7c0,0,.7-.6,1.4-1.1s1.3.6.7,1.3-2,0-2,0c0,0,1.4.4,1.3,1.3-.2.9-1.1,1-1.3.7s-.2-1.7-.2-1.7c0,0,.5,1.7-.5,1.9s-1.3-.9-.9-1.5,1-.6,1-.6c0,0-1.5.8-1.7.1-.2-.6.2-1.8.8-1.5s1.2,1.1,1.2,1.1h0Z"/>
          <circle class="st15" cx="34.8" cy="75.7" r=".6"/>
          <path class="st1" d="M28.9,45.3s-1-2.1-.4-3.2c.7-1.2,1.6-.3,1.5.5s-.9,2.8-.9,2.8c0,0,.9-2.6,2-2.5s1.1.8.8,1.4-2.5,1.4-2.5,1.4c0,0,2.4-.8,2.9-.8s1.2.9.7,1.7-3.7-.5-3.7-.5c0,0,2.6.5,2.7,1.5,0,1-1.3,1.6-1.9.9s-1-2.1-1-2.1c0,0,.8,2.2.4,2.8s-1.9.8-2,0,1.2-2.8,1.2-2.8c0,0-.9,2.1-1.8,2.1s-1.5-.8-1.2-1.5c.3-.7,2.9-1,2.9-1,0,0-2.8.8-3.3,0s.4-1.4.8-1.4,2.5.9,2.5.9c0,0-2.7-.7-2.5-2s1.8-.9,2.1-.4c.3.5.9,2.2.9,2.2h0Z"/>
          <path class="st1" d="M21.8,51.5s-.5-1.3-.3-1.7,1.2-.8,1.3,0-.7,1.7-.7,1.7c0,0,.7-.6,1.4-1.1.7-.5,1.3.6.7,1.3s-2,0-2,0c0,0,1.4.4,1.3,1.3s-1.1,1-1.3.7-.2-1.7-.2-1.7c0,0,.5,1.7-.5,1.9s-1.3-.9-.9-1.5,1-.6,1-.6c0,0-1.5.8-1.7.1-.2-.6.2-1.8.8-1.5s1.2,1.1,1.2,1.1h0Z"/>
          <circle class="st15" cx="28.9" cy="45.8" r=".6"/>
          <path class="st1" d="M28.9,57.1s-1-2.1-.4-3.2c.7-1.2,1.6-.3,1.5.5s-.9,2.8-.9,2.8c0,0,.9-2.6,2-2.5s1.1.8.8,1.4-2.5,1.4-2.5,1.4c0,0,2.4-.8,2.9-.8s1.2.9.7,1.7-3.7-.5-3.7-.5c0,0,2.6.5,2.7,1.5,0,1-1.3,1.6-1.9.9-.6-.7-1-2.1-1-2.1,0,0,.8,2.2.4,2.8s-1.9.8-2,0,1.2-2.8,1.2-2.8c0,0-.9,2.1-1.8,2.1s-1.5-.8-1.2-1.5,2.9-1,2.9-1c0,0-2.8.8-3.3,0s.4-1.4.8-1.4,2.5.9,2.5.9c0,0-2.7-.7-2.5-2s1.8-.9,2.1-.4.9,2.2.9,2.2h0Z"/>
          <circle class="st15" cx="28.9" cy="57.6" r=".6"/>
          <circle class="st15" cx="21.9" cy="51.8" r=".6"/>
          <path class="st1" d="M35.2,51.5s-.5-1.3-.3-1.7,1.2-.8,1.3,0-.7,1.7-.7,1.7c0,0,.7-.6,1.4-1.1s1.3.6.7,1.3-2,0-2,0c0,0,1.4.4,1.3,1.3s-1.1,1-1.3.7-.2-1.7-.2-1.7c0,0,.5,1.7-.5,1.9s-1.3-.9-.9-1.5,1-.6,1-.6c0,0-1.5.8-1.7.1s.2-1.8.8-1.5,1.2,1.1,1.2,1.1h0Z"/>
          <path class="st1" d="M42.3,57.8s-1-2.1-.4-3.2c.7-1.2,1.6-.3,1.5.5s-.9,2.8-.9,2.8c0,0,.9-2.6,2-2.5s1.1.8.8,1.4-2.5,1.4-2.5,1.4c0,0,2.4-.8,3-.8s1.2.9.7,1.7c-.6.7-3.7-.5-3.7-.5,0,0,2.6.5,2.7,1.5,0,1-1.3,1.6-1.9.9s-1-2.1-1-2.1c0,0,.8,2.2.4,2.8-.4.6-1.9.8-2,0s1.2-2.8,1.2-2.8c0,0-.9,2.1-1.8,2.1s-1.5-.8-1.2-1.5c.3-.7,2.8-1,2.8-1,0,0-2.8.8-3.3,0s.4-1.4.8-1.4,2.5.9,2.5.9c0,0-2.7-.7-2.5-2s1.8-.9,2.1-.4c.3.5.9,2.2.9,2.2h0Z"/>
          <path class="st1" d="M35.2,64s-.5-1.3-.3-1.7,1.2-.8,1.3,0-.7,1.7-.7,1.7c0,0,.7-.6,1.4-1.1.7-.5,1.3.6.7,1.3-.6.8-2,0-2,0,0,0,1.4.4,1.3,1.3s-1.1,1-1.3.7-.2-1.7-.2-1.7c0,0,.5,1.7-.5,1.9-1,.2-1.3-.9-.9-1.5s1-.6,1-.6c0,0-1.5.8-1.7.1s.2-1.8.8-1.5,1.2,1.1,1.2,1.1h0Z"/>
          <circle class="st15" cx="42.4" cy="58.3" r=".6"/>
          <path class="st1" d="M42.3,69.6s-1-2.1-.4-3.2,1.6-.3,1.5.5-.9,2.8-.9,2.8c0,0,.9-2.6,2-2.5,1,0,1.1.8.8,1.4s-2.5,1.4-2.5,1.4c0,0,2.4-.8,3-.8s1.2.9.7,1.7c-.6.7-3.7-.5-3.7-.5,0,0,2.6.5,2.7,1.5,0,1.1-1.3,1.6-1.9.9s-1-2.1-1-2.1c0,0,.8,2.2.4,2.8s-1.9.8-2,0,1.2-2.8,1.2-2.8c0,0-.9,2.1-1.8,2.1-.9,0-1.5-.8-1.2-1.5s2.8-.9,2.8-.9c0,0-2.8.8-3.3,0s.4-1.4.8-1.4,2.5.9,2.5.9c0,0-2.7-.7-2.5-2,.2-1.3,1.8-.9,2.1-.4s.9,2.2.9,2.2h0Z"/>
          <circle class="st15" cx="42.4" cy="70.1" r=".6"/>
          <path class="st1" d="M48.7,64s-.5-1.3-.3-1.7,1.2-.8,1.3,0c.1.8-.7,1.7-.7,1.7,0,0,.7-.6,1.4-1.1.7-.5,1.3.6.7,1.3-.6.8-2,0-2,0,0,0,1.4.4,1.3,1.3s-1.1,1-1.3.7-.2-1.7-.2-1.7c0,0,.5,1.7-.5,1.9-1,.2-1.3-.9-.9-1.5s1-.6,1-.6c0,0-1.5.8-1.7.1s.2-1.8.8-1.5,1.2,1.1,1.2,1.1h0Z"/>
          <circle class="st15" cx="48.8" cy="64.3" r=".6"/>
          <circle class="st15" cx="35.4" cy="64.3" r=".6"/>
          <circle class="st15" cx="35.3" cy="51.8" r=".6"/>
          <path class="st1" d="M56.4,69.6s-1-2.1-.4-3.2,1.6-.3,1.5.5-.9,2.8-.9,2.8c0,0,.9-2.6,2-2.5,1,0,1.1.8.8,1.4s-2.5,1.4-2.5,1.4c0,0,2.4-.8,3-.8s1.2.9.7,1.7c-.6.7-3.7-.5-3.7-.5,0,0,2.6.5,2.7,1.5,0,1.1-1.3,1.6-1.9.9-.6-.7-1-2.1-1-2.1,0,0,.8,2.2.4,2.8-.4.6-1.9.8-2,0s1.2-2.8,1.2-2.8c0,0-.9,2.1-1.8,2.1-.9,0-1.5-.8-1.2-1.5s2.8-.9,2.8-.9c0,0-2.8.8-3.3,0s.4-1.4.8-1.4,2.5.9,2.5.9c0,0-2.7-.7-2.5-2,.2-1.3,1.8-.9,2.1-.4.3.5.9,2.2.9,2.2h0Z"/>
          <path class="st1" d="M49.3,75.8s-.5-1.3-.3-1.7,1.2-.8,1.3,0-.7,1.7-.7,1.7c0,0,.7-.6,1.4-1.1s1.3.6.7,1.3-2,0-2,0c0,0,1.4.4,1.3,1.3s-1.1,1-1.3.7-.2-1.7-.2-1.7c0,0,.5,1.7-.5,1.9-1,.2-1.3-.9-.9-1.5s1-.6,1-.6c0,0-1.5.8-1.7.1s.2-1.8.8-1.5,1.2,1.1,1.2,1.1h0Z"/>
          <circle class="st15" cx="56.4" cy="70.1" r=".6"/>
          <circle class="st15" cx="49.4" cy="76.1" r=".6"/>
          <path class="st1" d="M62.8,75.8s-.5-1.3-.3-1.7,1.2-.8,1.3,0-.7,1.7-.7,1.7c0,0,.7-.6,1.4-1.1s1.3.6.7,1.3-2,0-2,0c0,0,1.4.4,1.3,1.3s-1.1,1-1.3.7-.2-1.7-.2-1.7c0,0,.5,1.7-.5,1.9-1,.2-1.3-.9-.9-1.5s1-.6,1-.6c0,0-1.5.8-1.7.1s.2-1.8.8-1.5c.6.4,1.2,1.1,1.2,1.1h0Z"/>
          <circle class="st15" cx="62.9" cy="76.1" r=".6"/>
          <path class="st1" d="M57,45.7s-1-2.1-.4-3.2,1.6-.3,1.5.5-.9,2.8-.9,2.8c0,0,.9-2.6,2-2.5,1,0,1.1.8.8,1.4s-2.5,1.4-2.5,1.4c0,0,2.4-.8,3-.8s1.2.9.7,1.7c-.6.7-3.7-.5-3.7-.5,0,0,2.6.5,2.7,1.5s-1.3,1.6-1.9.9-1-2.1-1-2.1c0,0,.8,2.2.4,2.8s-1.9.8-2,0,1.2-2.8,1.2-2.8c0,0-.9,2.1-1.8,2.1s-1.5-.8-1.2-1.5,2.8-1,2.8-1c0,0-2.8.8-3.3,0-.5-.8.4-1.4.8-1.4s2.5.9,2.5.9c0,0-2.7-.7-2.5-2s1.8-.9,2.1-.4c.3.5.9,2.2.9,2.2h0Z"/>
          <path class="st1" d="M49.9,51.9s-.5-1.3-.3-1.7,1.2-.8,1.3,0c.1.8-.7,1.7-.7,1.7,0,0,.7-.6,1.4-1.1s1.3.6.7,1.3c-.6.8-2,0-2,0,0,0,1.4.4,1.3,1.3s-1.1,1-1.3.7-.2-1.7-.2-1.7c0,0,.5,1.7-.5,1.9s-1.3-.9-.9-1.5c.4-.5,1-.6,1-.6,0,0-1.5.8-1.7.1s.2-1.8.8-1.5,1.2,1.1,1.2,1.1h0Z"/>
          <circle class="st15" cx="57" cy="46.2" r=".6"/>
          <path class="st1" d="M57,57.5s-1-2.1-.4-3.2,1.6-.3,1.5.5-.9,2.8-.9,2.8c0,0,.9-2.6,2-2.5s1.1.8.8,1.4-2.5,1.4-2.5,1.4c0,0,2.4-.8,3-.8s1.2.9.7,1.7c-.6.7-3.7-.5-3.7-.5,0,0,2.6.5,2.7,1.5s-1.3,1.6-1.9.9-1-2.1-1-2.1c0,0,.8,2.2.4,2.8s-1.9.8-2,0,1.2-2.8,1.2-2.8c0,0-.9,2.1-1.8,2.1s-1.5-.8-1.2-1.5,2.8-1,2.8-1c0,0-2.8.8-3.3,0-.5-.8.4-1.4.8-1.4s2.5.9,2.5.9c0,0-2.7-.7-2.5-2s1.8-.9,2.1-.4c.3.5.9,2.2.9,2.2h0Z"/>
          <circle class="st15" cx="57" cy="58" r=".6"/>
          <circle class="st15" cx="50" cy="52.1" r=".6"/>
          <path class="st1" d="M63.4,51.9s-.5-1.3-.3-1.7,1.2-.8,1.3,0-.7,1.7-.7,1.7c0,0,.7-.6,1.4-1.1.7-.5,1.3.6.7,1.3-.6.8-2,0-2,0,0,0,1.4.4,1.3,1.3s-1.1,1-1.3.7-.2-1.7-.2-1.7c0,0,.5,1.7-.5,1.9s-1.3-.9-.9-1.5c.4-.5,1-.6,1-.6,0,0-1.5.8-1.7.1s.2-1.8.8-1.5,1.2,1.1,1.2,1.1h0Z"/>
          <path class="st1" d="M64.9,64.4s-.6-1.3-.3-1.7,1.2-.8,1.3,0c.1.8-.7,1.7-.7,1.7,0,0,.7-.6,1.4-1.1.7-.5,1.3.6.7,1.3-.6.8-2,0-2,0,0,0,1.4.4,1.3,1.3s-1.1,1-1.3.7-.2-1.7-.2-1.7c0,0,.5,1.7-.5,1.9s-1.3-.9-.9-1.5c.4-.6,1-.6,1-.6,0,0-1.5.8-1.7.1s.2-1.8.8-1.5,1.2,1.1,1.2,1.1h0Z"/>
          <path class="st1" d="M4.8,76.1s-1-2.1-.4-3.2c.7-1.2,1.6-.3,1.5.5s-.9,2.8-.9,2.8c0,0,.9-2.6,2-2.5,1,0,1.1.8.8,1.4s-2.6,1.4-2.6,1.4c0,0,2.4-.8,2.9-.8s1.2.9.7,1.7-3.7-.5-3.7-.5c0,0,2.6.5,2.7,1.5s-1.3,1.6-1.9.9-1-2.1-1-2.1c0,0,.8,2.2.4,2.8s-1.9.8-2,0,1.2-2.8,1.2-2.8c0,0-.9,2.1-1.8,2.1s-1.5-.8-1.2-1.5,2.8-.9,2.8-.9c0,0-2.8.8-3.3,0s.4-1.4.8-1.4,2.5.9,2.5.9c0,0-2.7-.7-2.5-2,.2-1.3,1.8-.9,2.1-.4.3.5.9,2.2.9,2.2h0Z"/>
          <circle class="st15" cx="4.8" cy="76.6" r=".6"/>
        </g>
      </g>
      <path class="st3" d="M24.5,44c-1,.3-1.7,1.2-1.7,2.2s.6,2,1.6,2.3c-.6,1.1-1.3,2.2-1.4,3.4,0,1.2.7,2.6,2,2.7-.6.8-1.2,1.8-1.3,2.8s.8,2.2,1.8,2c-.5.8-1,1.6-1,2.5s.6,1.9,1.5,1.9c-.6.8-1.1,2-.8,2.9s2,1.4,2.5.5c.3-.5.2-1.2,0-1.8-.2-.7-.4-1.4-.6-2.2,1.2-1.1,1-3.3-.4-4.1,1.4-1.3,1-4-.7-4.9,1.5-1.6,1.3-4.5-.5-5.9,1.6-1.5,1.2-4.5-.7-5.5"/>
      <path class="st3" d="M22.9,39.6c-1,0-1.9.9-2.1,1.9s.2,2.1,1.1,2.6c-.8.9-1.7,1.9-2,3.1-.3,1.2.2,2.7,1.4,3-.8.7-1.5,1.5-1.8,2.5s.4,2.3,1.4,2.3c-.6.7-1.2,1.4-1.4,2.3s.2,2,1.1,2.2c-.8.7-1.5,1.7-1.3,2.8s1.6,1.8,2.4,1c.4-.5.4-1.2.3-1.8,0-.8-.1-1.5-.2-2.3,1.4-.8,1.6-3,.4-4.1,1.6-1,1.7-3.7.2-4.9,1.8-1.3,2.1-4.2.6-5.9,1.8-1.1,1-5.4.3-5.5"/>
    </g>
  </g>
</svg>