<?xml version="1.0" encoding="UTF-8"?>
<svg id="Layer_1" xmlns="http://www.w3.org/2000/svg" xmlns:xlink="http://www.w3.org/1999/xlink" version="1.1" viewBox="0 0 61.9 61.9">
  <!-- Generator: Adobe Illustrator 29.1.0, SVG Export Plug-In . SVG Version: 2.1.0 Build 142)  -->
  <defs>
    <style>
      .st0 {
        fill: none;
      }

      .st1 {
        fill: #010101;
      }

      .st2 {
        fill: #231f20;
      }

      .st3 {
        fill: #f1eef7;
      }

      .st4 {
        fill: #e2d4b3;
      }

      .st5 {
        fill: #020202;
      }

      .st6 {
        fill: #b06c4f;
      }

      .st7 {
        fill: #aacad3;
      }

      .st8 {
        fill: #341e17;
      }

      .st9 {
        fill: #6c3925;
      }

      .st10 {
        fill: #161412;
      }

      .st11 {
        fill: #123a4c;
      }

      .st12 {
        clip-path: url(#clippath);
      }
    </style>
    <clipPath id="clippath">
      <circle class="st0" cx="30.9" cy="30.9" r="30.9"/>
    </clipPath>
  </defs>
  <g class="st12">
    <g>
      <polyline class="st4" points="207.8 240.8 207.8 -199.1 -434.1 -199.1 -434.1 240.8"/>
      <path class="st6" d="M38.8,48.8c-.5,0-.8,0-1.3-.1-2.1-.2-4.2-.5-6.3-.9-3.2-.7-5.7-2.6-8.3-4.3,0,2-.2,4.4-.9,5.8v.6c4.5,7,7.1,11,21.8,6.7l-4.8-7.5-.3-.2h0Z"/>
      <path class="st6" d="M46.7,30.7c0-.9,0-2,0-3.3,0-.4,0-.7,0-1.1,0-.2,0-.4,0-.5-.3-6.2-2.3-9.5-2.3-9.5-2.7-4.1-7.3-6.5-12.2-6.2-5.8.2-10.9,3.7-13.6,7.3-1.3,1.8-2,3.9-1.8,6.1.1,1.9,1.3,3.6,1.8,5.6-2,0-4,.7-3.2,4.4,1.1,5.1,4.4,6.7,5.9,5.2.4,0,1.1,2.3,1.2,3.4,0,0,0,5.7,0,5.8,2.7,1.8,8,2.2,11.2,3,2,.5,2.2.2,4.2.4.5,0,.5-1.5,1-1.5v-2.2c.1,0,.3,0,.9-.2,4.6-1.2,6.6-7.4,6.9-9.7.2-2,.1-5.7-.1-6.9h0Z"/>
      <path class="st8" d="M39,47.5s-5.5.5-10.4-2.7c0,0,.6,1.6,4.1,2.8s6.3.8,6.3.8v-.9h0Z"/>
      <ellipse class="st1" cx="44.3" cy="29.2" rx="1.2" ry="1.2" transform="translate(5.8 65.7) rotate(-76.8)"/>
      <path class="st1" d="M45.8,28.1c-.6-.4-1.4-.6-2.6-.5-1.9.2-2.7,2.6-2.7,2.6,0,0,1-1.8,2.9-2,.9-.1,2.4.4,3.1.8,0-.2-.3-.5-.6-.8h0Z"/>
      <path class="st2" d="M17.4,34.1c-.2-.6-.4-1.4,0-2h-.2c-.1,0,0,0,0,0,0,0,0,0,0,0,0,0,0,0,.1,0,.2,0,.3.2.5.3.8.6,1.3,1.5,1.8,2.3h.3c-.2-.2-.5-.4-.7-.3-.3,0-.5.3-.5.6,0,.8.7,1.2,1.4,1.3,0,0,.2,0,.2,0,0,0,0,0,0,0-.6,0-1.1-.3-1.2-1,0-.2,0-.4,0-.6.1-.2.4,0,.5,0,0,0,.4,0,.3,0-.4-.6-.8-1.2-1.2-1.8-.2-.3-.5-.5-.8-.7-.1,0-.3-.2-.4-.2-.2,0-.3,0-.4.2-.3.6-.2,1.3,0,1.9,0,0,.3,0,.3,0h0Z"/>
      <ellipse class="st1" cx="31.6" cy="29.4" rx="1.2" ry="1.2" transform="translate(-4.2 53.4) rotate(-76.8)"/>
      <path class="st1" d="M35,30.2s-1.9-2.5-4-2.3c-2.9.3-3.4,1.5-4,2.4,0,0,1.8-1.8,4.1-1.9,2.1-.1,3.9,1.8,3.9,1.8h0Z"/>
      <path class="st9" d="M38.4,38.9c-1.8,0-4.6-.2-4.6-.2,0,0-.2,4.2,4.7,4.1,4.1,0,4.1-4.1,4.1-4.1,0,0-2.4.1-4.2.1h0Z"/>
      <path class="st1" d="M38.5,38.9h-4s.7,2.2,3.8,2.1c3.3,0,3.8-2,3.8-2,0,0-3.6-.2-3.6-.2Z"/>
      <path class="st3" d="M38.5,39.3c-.8,0-3.4-.1-3.4-.1,0,0,1,.7,3.5.7,2.5,0,3.2-.7,3.2-.7,0,0-3.3.1-3.4.1Z"/>
      <path class="st9" d="M42.6,38.7c0,0-.2-.1-.6-.2-.7,0-.9-.3-1.4-.3-.9,0-1.4.3-1.8.3s-.9-.3-1.8-.2c-.5,0-1.7.2-2.4.3-.4,0-.9-.1-1,0-.1,0,.2,1.2,4.9,1.1,4.7,0,4.1-.7,4.1-.9h0Z"/>
      <path class="st10" d="M34.8,25.3s-.1,0-.1-.1c-2.3-.7-4-.8-4.7-.7-.5,0-1,.2-1.4.5,0,0-1.3.7-1.4,1s.8-.1.8-.1c.2,0,.3-.1.5-.1,1.1-.1,2.1-.4,3.2-.2.9.2,2.2.8,3.1,1.2,0-.5,0-.9,0-1.4h0Z"/>
      <path class="st10" d="M40.1,25.6s.1,0,.1-.1c2-.6,3.5-.7,4.1-.6.4,0,.8.3,1.2.5,0,0,1.1.7,1.3,1,.1.3-.7-.1-.7-.1-.2,0-.3-.1-.5-.1-1-.1-1.9-.5-2.8-.3-.8.1-1.9.8-2.7,1.2,0-.5,0-.9,0-1.4h0Z"/>
      <path class="st1" d="M21.1,33.8s0-.2-.1-.2c-.3-.7-1-2-1.6-2.6-.3-.2-.6-.5-1-.6-.4-.1-.7-.3-1.1-.4-.5-.1-1.1-.1-1.6,0,0,0-.1.3-.2.4-1.4-4.4-2.9-9.1.2-14.6.9-1.6,3.3-3.4,4.1-3.9,4.5-3.4,8.6-3.7,13.6-3.3,5.8.5,10.6,3.4,12.1,9.3.3,1.4.4,1.8.4,2.3,0,0-.9-3.3-3.7-4.9-2.8-1.6-2.8,1-6.7,1.1-4.6.2-6.2-2.3-9.8-.3-3.3,1.8-4.3,4.8-4.3,4.8-.5,2-1.4,3.4-.8,5.7.1.5.3,1.1.4,1.6,0,1,.7,1.6.6,2.6,0,.5.4,2.5,0,2.8-.5.3,0,.3-.4.2h0Z"/>
      <g>
        <path class="st5" d="M39.2,36.6c-.4.2-1,.2-1.5,0,0,0-.4,0-.3,0,.6.3,1.5.3,2,0,0,0,0,0,0,0s-.2,0-.2,0"/>
        <path class="st5" d="M37.3,36.6c-.3-.1-.6-.2-.9-.2,0,0,0,0-.1,0,0,0,0,0,0,0,.2,0,.3,0,.5,0,0,0,.1,0,.2,0,0,0,0,0,0,0-.1,0-.3,0-.4,0,0,0,0,0-.1.1.3,0,.6,0,.8.2,0,0,.1,0,.2,0,0,0,0,0,0,0"/>
        <path class="st5" d="M36.1,36.7c-.4,0-.8-.1-1-.4-.3-.4,0-1.1.4-1.4,0,0,0,0,0,0,0,0-.1,0-.2,0-.4.2-.6.8-.5,1.2,0,.4.4.6.9.7.1,0,.3,0,.4,0s.2,0,.2,0c0,0,0,0,0,0"/>
        <path class="st5" d="M39.9,36.4s0,0,0,0c0,0,.2,0,.3,0,0,0,0,0,0,.1-.2,0-.4,0-.6.2,0,0,0,0-.1,0,0,0,0,0,0,0"/>
        <path class="st5" d="M39.6,36.5c.2-.1.4-.2.6-.2,0,0,0,0,0,0,0,0,0,0,0,0"/>
        <path class="st5" d="M40.7,36.4c.2,0,.5-.2.6-.5.2-.4,0-.9-.3-1.2,0,0,0,0,0,0,0,0,0,0,.1,0,.3.2.5.6.4,1,0,.4-.2.6-.5.7,0,0-.2,0-.3,0,0,0,0,0-.1,0s0,0,0,0"/>
      </g>
      <path class="st6" d="M47.7,59.1c.7.3,6.6,7.7,7.9,12.4s.8,14.6,1.3,18.7c.6,4.2.8,9,1,14.2,0,1.4,0,2.8-.1,4.1l-1.2,11.3-4.5-1.1s-2-29-4.3-35.6c-2.3-6.6,0-24.1,0-24.1h0Z"/>
      <path class="st7" d="M40,50.2c2.1,0,7.8,3.6,9,4.5,8.9,6.6,8,22.9,10,28.8-1.7,2.6-5.2,2.2-5.2,2.2,0,0-.4,5.1-.2,10.3.2,4.7-.3,12.2.8,22.3-4.5,2-3.2,2-7.8,2.4-4.1.3-12.1,1.2-16.1,1.2-4.5,0-11-1-15.4-1.8-3.1-.6-3.8-3.2-6.8-4.2,2.4-12.5,4.5-28.1,4.6-28.4.2-.8,0-3.5,1.1-9.4,0,0-8-1.6-10.1-2.9,0,0-1.7-17.4,9.6-23.1,4.6-2.3,5.3-3,9.3-4.2,0,0,5.1,8.4,13.2,7.6s4-5.4,4-5.4h0Z"/>
      <path class="st6" d="M16.4,75.4v-3.8c.9-4.3,3.1-15.9,1.2-17.7,0,0-6.6,2.9-9.5,5.3-2.9,2.5-3.8,5.7-4.9,14.9l-1,8c-.9,7.1-.9,17.3-.9,18.8,0,6.5,9.3,27.5,9.3,27.5l5.3-2.1s-2-19.1-3-25.7l3.5-25.2h0Z"/>
      <path class="st7" d="M19.6,50s-13.5,3.3-16.3,11.5c-4,11.7-4,25.1-4,25.1,0,0,12.4,2.7,18.1.4,5.3-2.2,2.5-34.3,2.5-34.3"/>
      <path class="st11" d="M12.6,61.4c2.3.7,3.7,3.2,4.2,5.3,1,3.8.5,8.1.4,11.9-.1,1.9-.2,3.8-.4,5.7,0,.8,0,2.1-.2,2.8-.1.2.2,0-.1.1-.2.2-.7.2-1,.3-.9.3-.9.3-1.8.4-1.5.1-3,.2-4.5.1-2.3,0-4.6-.2-6.8-.8-.7-.2-2.4-.5-2.6-1.1-.2-.5,0-1.4,0-1.9h-.3c3.4,1.2,7.2,1.4,10.8,1.4,1.6,0,3.3,0,4.9-.3.4,0,.9-.1,1.3-.3.2,0-.1,0-.2,0-.5.2-1.1.3-1.6.3-2,.2-4,.3-6,.2-2.9,0-6-.4-8.8-1.3,0,0-.3,0-.3.1,0,.7,0,1.4,0,2.1h0c3.6,1.7,7.9,1.9,11.8,1.8,1.1,0,2.2,0,3.3-.2.8-.2,1.6-.5,2.4-.8,0,0,.1,0,.1,0,.5-5.6,1-11.2.8-16.8-.1-3.3-1-8-4.8-9.1,0,0-.4,0-.3.1h0Z"/>
      <g>
        <path class="st7" d="M17.5,49.8s2.7-3.5,4.7-4.6c0,0,6.4,10.4,13.3,10.4,0,0-4.4,2.9-4.9,6.5,0,0-13.7-6.8-13.1-12"/>
        <path class="st11" d="M17.6,49.7c1.3-1.7,2.8-3.5,4.7-4.6h-.3c1.4,2.4,3.2,4.6,5.2,6.5,1.5,1.4,3.3,2.8,5.2,3.5.5.2,1,.3,1.4.4.2,0,1.4.1,1.4,0,0,0-1,.8-1.1.8-1.8,1.5-3.5,3.4-3.8,5.7h.3c-2.3-1.3-4.6-2.6-6.7-4.1-1.6-1.1-3.2-2.3-4.5-3.8-1-1.1-2.1-2.6-1.9-4.2,0,0-.3,0-.3,0-.2,2.5,2.3,4.8,4.1,6.2,2.3,1.9,4.8,3.5,7.3,4.9.6.3,1.1.6,1.7.9,0,0,.3,0,.3,0,.4-2.7,2.6-5,4.8-6.5,0,0,0,0,0,0-3.7,0-6.9-2.7-9.2-5.2-1.5-1.6-2.8-3.3-4-5.1,0,0-.2,0-.3,0-1.9,1.1-3.5,2.9-4.8,4.6,0,0,.3,0,.3,0h0Z"/>
      </g>
      <g>
        <path class="st7" d="M39,48.3s1,5.5-3.8,7.2c0,0,3.9,1.7,5.3,4.8,0,0,3.3-2.3,3.7-9.6,0,0-2-1.6-3.8-2.2-1.8-.7-1.3-.2-1.3-.2h0Z"/>
        <path class="st11" d="M38.8,48.4c.2.9.1,1.9,0,2.8-.4,2-1.7,3.6-3.7,4.3,0,0-.1.2,0,.2,2,.9,4.2,2.6,5.2,4.7,0,0,.2,0,.3,0,1.2-.9,2-2.5,2.6-3.8.7-1.8,1.1-3.7,1.2-5.6,0-.5-.5-.7-.9-.9-.8-.5-1.6-1-2.5-1.4-.5-.2-1-.4-1.5-.5-.2,0-.4,0-.5,0s-.3.2-.1.3c0,0,.4,0,.3-.1h0c0,.1,0,0,0,0,.1,0,.3,0,.5.1.9.3,1.7.7,2.5,1.2.6.3,1.1.7,1.7,1.1.2.2.2,0,.2.3,0,.5,0,1.1-.2,1.5-.3,2.4-1.1,5-2.6,6.9-.2.3-.5.6-.8.8h.3c-1-2.2-3.2-3.9-5.3-4.8v.2c1.9-.7,3.3-2.2,3.8-4.2.2-1,.3-2.1.1-3.1,0-.1-.4,0-.3,0h0Z"/>
      </g>
      <g>
        <polyline class="st7" points="36.1 55.9 36.5 66.6 33.8 66.6"/>
        <path class="st11" d="M36,55.9c0,3.1.2,6.3.3,9.4v1.3s.2-.1.2-.1c-.9,0-1.8,0-2.6,0-.2,0-.2.2,0,.2.9,0,1.8,0,2.6,0,0,0,.2,0,.2-.1,0-3.1-.2-6.3-.3-9.4,0-.5,0-.9,0-1.3,0-.2-.3-.1-.3,0h0Z"/>
      </g>
      <ellipse class="st11" cx="34.3" cy="60.1" rx=".9" ry=".7"/>
    </g>
  </g>
</svg>