<?xml version="1.0" encoding="UTF-8"?>
<svg id="Layer_1" data-name="Layer 1" xmlns="http://www.w3.org/2000/svg" xmlns:xlink="http://www.w3.org/1999/xlink" viewBox="0 0 91.71 91.71">
  <defs>
    <style>
      .cls-1 {
        fill: none;
      }

      .cls-2 {
        fill: #825739;
      }

      .cls-3 {
        fill: #010101;
      }

      .cls-4 {
        fill: #5a3223;
      }

      .cls-5 {
        fill: #3a231a;
      }

      .cls-6 {
        fill: #f9f7f2;
      }

      .cls-7 {
        clip-path: url(#clippath-1);
      }

      .cls-8 {
        clip-path: url(#clippath-3);
      }

      .cls-9 {
        clip-path: url(#clippath-4);
      }

      .cls-10 {
        clip-path: url(#clippath-2);
      }

      .cls-11 {
        fill: #e2d4b3;
      }

      .cls-12 {
        fill: #020202;
      }

      .cls-13 {
        fill: #868786;
      }

      .cls-14 {
        fill: #b06c4f;
      }

      .cls-15 {
        fill: #f1ecf6;
      }

      .cls-16 {
        clip-path: url(#clippath);
      }
    </style>
    <clipPath id="clippath">
      <circle class="cls-1" cx="384.87" cy="36.03" r="30.94"/>
    </clipPath>
    <clipPath id="clippath-1">
      <circle class="cls-1" cx="162.21" cy="46.6" r="45.86"/>
    </clipPath>
    <clipPath id="clippath-2">
      <circle class="cls-1" cx="45.86" cy="45.86" r="45.86"/>
    </clipPath>
    <clipPath id="clippath-3">
      <circle class="cls-1" cx="283.09" cy="38.91" r="38.17"/>
    </clipPath>
    <clipPath id="clippath-4">
      <circle class="cls-1" cx="471.06" cy="36.03" r="28.77"/>
    </clipPath>
  </defs>
  <g class="cls-16">
    <polyline class="cls-11" points="561.77 245.9 561.77 -194 -80.12 -194 -80.12 245.9"/>
  </g>
  <g class="cls-7">
    <polyline class="cls-11" points="570.38 378.76 570.38 -61.15 -71.51 -61.15 -71.51 378.76"/>
  </g>
  <g class="cls-10">
    <polyline class="cls-11" points="581 403.53 581 -36.38 -60.89 -36.38 -60.89 403.53"/>
    <path class="cls-14" d="M30.43,47.25s2.29,12.58.07,19.91c-.36,1.18-6.19,4.34-6.19,4.34l1.73,1.81c1.49,1.57,22.08,26.72,24.11,27.48,10.09,3.74,6.43-19.63,10.77-25.9l-2.65-4.03s-1.74-1.42-2.09-2.83c-.36-1.41.92-12.53.92-12.53"/>
    <path class="cls-2" d="M29.93,52.4s0,.05,0,.08c-.01-.03-.02-.06,0-.08Z"/>
    <path class="cls-14" d="M48.15,67.16l8.55-.5,4.26-1.06c.43,0,2.23-4.43,2.52-4.99.88-1.75,1.77-4.31,2.3-6.2.56-2.02,2.06-3.51,2.32-5.94.19-1.78.17-3.02-.84-5.89-.26-.73-.28-1.46-.11-2.25.35-1.67.45-3.61.87-5.85.03-.18.22-1.03.15-1.21,0,0-.41-9.29-2.15-12.58-1.74-3.29-3.66-4.76-6.11-5.34-2.46-.58-9.65,0-9.65,0l-9.99-1.23-8.38,4.35-4.1,10.37.85,11.92,1.48,10.63"/>
    <path class="cls-5" d="M52.45,65.15c-.07.05-4.59-.44-4.67-.45l-2.35-1.06s-.01,0-.01-.01c-.21.09-.46.1-.74.01-1.47-.47-2.75-1.26-3.99-2.16-1.11-.81-2.42-3.32-3.69-3.88-.6-.27-.39-.45-.9-.82.05.13.03.92.08,1.06,2.33,2.9,6.92,9.02,10.18,10.57.24.06.98.25,2.94.38,2.58.17,4.6.25,7.11-.14.01-1.82-.15-3.97-.16-5.79-.93,0-1.23.6-3.8,2.3Z"/>
    <path class="cls-12" d="M48.51,38.74c-.55-.28-1.19-.04-1.55.28-.08.07-.31.29-.42.65-.13.46.05.98.34,1.3.39.42,1.03.49,1.52.26.67-.31.89-1.12.72-1.71-.03-.11-.18-.56-.62-.79"/>
    <path class="cls-12" d="M63.74,38.83c.55-.28,1.19-.04,1.55.28.08.07.31.29.42.65.14.46-.05.98-.34,1.3-.39.42-1.03.5-1.52.27-.67-.31-.89-1.12-.72-1.7.03-.11.17-.56.62-.79"/>
    <path class="cls-12" d="M60.22,40.91s1.96-2.21,3.4-2.36c2.1-.22,2.63.31,3.38,1.39,0,0-1.37-1.13-2.85-.93-1.41.19-3.93,1.9-3.93,1.9Z"/>
    <path class="cls-12" d="M53.13,40.35s-3.31-2.08-4.93-2.12c-2.37-.06-5.18,1.34-5.94,2.47,0,0,3.71-2.06,5.38-1.97s5.49,1.62,5.49,1.62Z"/>
    <path class="cls-12" d="M52.6,32.76c.31.15.2.38.19.95,0,.18,0,.46,0,.75,0,.54-.52.94-1.04.77-.93-.31-1.75-.63-2.4-.74-1.73-.31-3.51-.74-5.27-.47-.84.13-1.58.35-2.28.78-.22.14-.82.73-1.15.58-.14-.06.09-.75.11-.83.45-1.4,1.64-1.98,3.09-2.31,2.95-.68,5.73.13,8.73.51"/>
    <path class="cls-12" d="M68.42,32.5s-.88-.2-.89-.2c-1.9-.44-3.8-.43-5.69-.17-.96.13-1.66.99-1.61,1.96,0,0,0,.01,0,.02,0,.19-.07.78.05.93.02.03.06.05.1.06.38.16.82.15,1.22.06.5-.11.95-.37,1.44-.5,1.42-.37,2.91-.79,4.37-.58.12.02.74.12.85.14.43-.8.36-1.61.15-1.72Z"/>
    <g>
      <path class="cls-12" d="M57.92,50.16c-.69.37-1.75.29-2.44-.15-.15-.1-.67,0-.45.14.92.58,2.44.63,3.33.15.09-.05.07-.12-.04-.15-.12-.04-.3-.03-.39.02"/>
      <path class="cls-12" d="M54.73,49.93c-.47-.22-.99-.34-1.51-.38-.08,0-.17.02-.23.08-.04.04-.05.09,0,.13.24.14.55.2.83.19.09,0,.21-.02.26-.1.05-.07-.04-.12-.11-.12-.23,0-.47-.04-.67-.16-.08.07-.15.13-.23.2.46.04.93.15,1.35.35.08.04.2.01.28-.03.06-.03.11-.11.03-.15"/>
      <path class="cls-12" d="M52.66,50c-.61-.01-1.32-.28-1.62-.75-.45-.71-.03-1.8.73-2.26.08-.05.04-.11-.05-.13-.11-.02-.24.02-.32.07-.66.4-1.09,1.29-.99,1.96.09.62.68,1.05,1.41,1.23.22.05.45.09.68.09.09,0,.26-.03.3-.1.05-.07-.04-.11-.13-.11"/>
      <path class="cls-12" d="M59.04,49.84c-.03-.07.03-.12.08-.12.16,0,.33-.04.47-.16.05.07.11.13.16.2-.33.04-.66.15-.95.35-.06.04-.14.01-.2-.03-.04-.03-.08-.11-.02-.15"/>
      <path class="cls-12" d="M58.58,49.93c.33-.23.7-.34,1.07-.39.05,0,.12.02.16.07.03.04.04.09,0,.13"/>
      <path class="cls-12" d="M60.3,49.92c.4-.02.86-.29,1.05-.76.29-.71.02-1.55-.48-2-.05-.05-.03-.11.03-.13.07-.02.16.02.21.07.43.39.71,1.03.65,1.7-.06.62-.44,1.05-.91,1.23-.14.05-.29.09-.44.1-.06,0-.17-.03-.2-.1-.03-.07.03-.11.08-.11"/>
    </g>
    <path class="cls-4" d="M56.08,54.16c-2.64,0-6.93-.32-6.93-.32,0,0,.86,5.88,6.99,5.89,6.13,0,5.64-5.7,5.64-5.7,0,0-3.05.14-5.69.14Z"/>
    <path class="cls-12" d="M56.11,54.16c-1.26,0-6.33-.22-6.33-.22,0,0,1.81,3.55,6.36,3.56,4.93,0,5.3-3.48,5.3-3.48l-5.34.14Z"/>
    <path class="cls-15" d="M56.16,54.34c-1.26,0-5.08-.22-5.08-.22,0,0,1.38,1.38,5.15,1.38,3.77,0,4.97-1.33,4.97-1.33l-5.04.16Z"/>
    <path class="cls-4" d="M61.95,53.53c-.13-.03-.33-.01-.94-.07-1.01-.09-1.29-.21-2.02-.27-1.24-.1-2.03.41-2.57.4s-1.33-.51-2.57-.41c-.73.06-2.53.33-3.54.42-.6.05-1.31-.19-1.44-.16-.18.05.17,1.41,6.96,1.42,6.8.01,6.29-1.29,6.11-1.33Z"/>
    <path class="cls-6" d="M69.69,161.48c4.55,1.17,16.77,1.68,20.21-.42-3.08-11-3.29-61.67-5.43-70.1-2.66-10.45-24.21-20.05-25.52-20.59,0,0,4.2,39.13,8.95,53.76.86,2.65,1.15,32.35,1.78,37.35Z"/>
    <path class="cls-6" d="M81.45,187.95c0-.34-.03-.7-.04-1.04-.33-9.31.44-14.35-.74-27.31l1.5-57.49-7.68-20.94s-4.33-3.72-4.81-4.72l-11.64-6.58c3.32,6.46-6.26,7.54-6.26,7.54l-.26,7.1v1.07l-2.14-8.01c-15.55-.16-19.46-10.39-19.46-10.39l-4.24,2.14c-5.15,2.27-18.48,8.05-22.03,12.43-4.17,5.12,8.35,17.93,14.36,25.87l-10.59,1.92s-5.09,37.28-6.38,48.18c-1.29,10.9-2.03,26.38-2.69,33.39-2.01,21.48,41.86,29.92,56.62,28.34,13.69-1.47,26.95-4.48,26.47-30.77h.02c-.01-.25-.02-.48-.03-.73Z"/>
    <path class="cls-14" d="M32.99,39.74c.18.88.15,4.48.28,5.36l-4.72.03c-1.5-3.05-2.73-4.32-3.29-5.13-.88-1.27-1.48-6.18-1.67-7.68-.32-2.54.45-5.84,1.29-8.34.92-2.75,2.12-4.4,4.07-6.48,3.99-4.24,11.19-6.78,18.36-6.47.68.03,1.36.09,2.02.16,6.24.75,11.17,2.26,15.27,7.3,2.96,3.63,3.23,7.04,3.3,12.4-.31-5.09-2.1-9.17-2.19-9.31-1.81-3.42-4.01-4.36-5.55-4.54-1.34-.16-2.33.22-2.52.3-1.5.37-3.72.23-5.32.03-1.19-.14-2.14-.32-2.4-.37-.82-.53-2.03-.9-3.51-1.08-3.44-.41-8.39.31-9.37,1.83-1.09,1.68-3.49,7.63-3.47,9.01,0,0-1.88,6.62-.59,12.98Z"/>
    <path class="cls-14" d="M60.01,63.49c-.06,0-.11-.03-.16-.06-.92-.59-1-.92-1.45-1.02-.1-.02-.16-.06-.48-.1-1.29-.16-2.07-.28-5.47,1.97-.07.05-4.59-.44-4.67-.45l-2.35-1.06c-.39-.23-9.25-7.42-9.25-7.42-.14-.24-1.74-1.96-1.81-2.19-.03-.01-.05-.03-.08-.04-.01,0-.03-.01-.06-.02,0,.02,0,.04-.01.05-.01.1,0,.21,0,.31.03.44.13-2.42.27-2,.21.64.37,1.5.56,2.15.07.23.85,3.42.93,3.64,1,.6,7.21,8.4,10.85,10.12.24.06.5.42,2.47.55,3.7.24,7.26.17,10.88-.95.94-.29,1.69-.98,2.06-1.87,1.04-2.53,3.34-8.16,3.86-11.92-.97,2.19-3,6.88-4.41,10.08-.04.1-1.44.2-1.56.24"/>
    <path class="cls-6" d="M4.87,162.94c3.95.23,7.9-.91,10.13-1.03l4.57-49.54-.36-39.63s-17.82,4.9-22.28,15.25c-3.01,8.34-6.02,58.63-7.6,72.71,3.95,1.48,11.28,1.99,15.55,2.23Z"/>
    <path class="cls-3" d="M32.99,39.74c.18.88.15,4.48.28,5.36l-4.72.03c-1.5-3.05-2.73-4.32-3.29-5.13-.88-1.27-1.48-6.18-1.67-7.68-.32-2.54-.58-7.23.26-9.72.92-2.75,2.76-4.78,4.71-6.86,3.99-4.24,11.59-5.02,18.76-4.71.68.03,1.36.09,2.02.16,6.24.75,11.17,2.26,15.27,7.3,2.96,3.63,3.39,6.99,3.22,9.57-.31-5.09-1.72-6.77-1.82-6.91-1.89-2.58-3.91-4.65-5.45-4.83-1.34-.16-2.72.93-2.91,1.02-1.5.37-3.72.23-5.32.03-1.19-.14-2.14-.32-2.4-.37-.82-.53-5.26-1.95-6.74-2.13-3.44-.41-5.81.4-6.8,1.92-1.09,1.68-2.84,8.6-2.82,9.97,0,0-1.88,6.62-.59,12.98Z"/>
    <path class="cls-14" d="M31.2,52.59c-2.59,3.87-4.67-2.55-4.67-2.55-2.72-3.22-2.74-6.66-2.66-9.02.08-2.36,2.67-2.34,2.67-2.34,2.2.22,3.2,1.4,5.09,8.82"/>
    <path class="cls-12" d="M27.96,44.15c-.85.26-1.15.97-1.13,1.81,0,.25.06.48.09.73.08.6.13,1.14.38,1.71.27.6.88,1.66,1.7,1.35.68-.26.3-1.17.16-1.67-.11-.4-.25-.81-.22-1.22,0-.05.08-.18.01-.13-.07.05.06.03.12.04.18.03.37.04.55.06.1.01.54-.04.47-.24-.61-1.72-1.18-3.76-2.53-5.09-.46-.45-.99-.75-1.44-.12-.64.91-.74,2.09-.61,3.16.02.19.61.06.59-.16-.12-1.01-.03-2.45.72-3.18l-.42.11c.06,0,.03,0,.03,0,.07.04.15.07.22.11.3.19.54.47.75.75,1.03,1.34,1.54,3,2.1,4.57l.47-.24c-.46-.05-1.19-.26-1.53.17s.05,1.29.17,1.75c.09.32.16.62.17.94,0,.02-.04.13-.04.14-.01-.02.16,0,.17-.04,0,.01-.11-.05-.1-.04-.13-.13-.29-.21-.42-.36-.66-.76-.79-1.66-.92-2.61-.08-.61-.24-1.78.54-2.03.34-.11.27-.4-.08-.29h0Z"/>
    <path class="cls-13" d="M12.09,83.24c2.81.58,4.98,3.05,6.51,5.34,1.01,1.51,1.88,3.19,2.21,4.99.44,2.49.38,5.1.34,7.62-.14,8.25-.93,16.5-1.76,24.7-.86,8.48-1.88,16.95-3.04,25.39-.41,2.95-.83,5.91-1.32,8.85-.07.43-.31,1.05-.25,1.48.02.16-.11.4.17.15-.05.04-.21.06-.27.07-.98.21-1.95.42-2.94.55-5.69.77-11.54.36-17.16-.7-.9-.17-1.8-.36-2.7-.57-.38-.09-2.14-.33-2.23-.55-.19-.47.16-1.65.21-2.15.15-1.56.3-3.11.45-4.67l-.53.18c4.28,1.96,9.22,3.14,13.93,3.15,3.75,0,7.54-.45,11.28-.7.3-.02.48-.37.08-.34-3.56.24-7.14.62-10.7.69-4.75.09-9.8-1.12-14.12-3.09-.13-.06-.51-.01-.53.18-.22,2.3-.45,4.61-.67,6.91,0,.08.05.11.12.13,6.12,1.6,12.46,2.5,18.79,2.19,2.35-.11,4.83-.31,7.11-.99.09-.03.23-.08.25-.19,1.87-10.2,3-20.58,4.13-30.88.71-6.48,1.35-12.97,1.81-19.47.35-4.97.69-9.98.46-14.96-.08-1.88-.25-3.71-1.02-5.45-1.48-3.39-4.39-7.41-8.23-8.21-.2-.04-.69.26-.36.33h0Z"/>
    <path class="cls-13" d="M46.27,80.49c-6.63.15-13.61-3.19-17.83-8.28-.9-1.08-1.47-2.15-1.91-3.45.16.45-.35.17,0,.17.12,0,.33-.15.44-.2l1.14-.52,1.93-.87-.4-.05c3.26,5.68,9.61,9.83,16.1,10.4.3.03.6-.4.2-.44-6.37-.55-12.57-4.65-15.76-10.22-.07-.13-.29-.1-.4-.05l-3.69,1.66c-.07.03-.17.12-.17.2.05.69.43,1.38.77,1.96,1.18,2.01,3,3.76,4.84,5.16,4.11,3.11,9.49,5.09,14.67,4.97.34,0,.45-.45.05-.44h0Z"/>
    <path class="cls-13" d="M51.65,77.26c1.7-.22,3.43-.56,4.98-1.3.84-.4,1.66-.96,2.15-1.77.57-.94.5-2.09,0-3.04-.26-.48-.51-.96-.79-1.5l-.53.21,1.83.77,1.22.51c.11.05.23.09.33.14.08.04.08.04.08.04.55.45.77,1.4.78,2.06.02,1.42-.79,2.81-1.73,3.82-1.21,1.3-2.83,1.94-4.58,1.96-.19,0-.63.29-.24.29,3.02-.03,5.86-1.8,6.88-4.71.39-1.1.37-2.34-.31-3.31-.3-.44-.75-.53-1.23-.73-.85-.36-1.7-.71-2.56-1.07-.09-.04-.61.05-.53.21.4.78.9,1.48,1.11,2.33.35,1.41-.4,2.62-1.59,3.35-1.53.95-3.42,1.27-5.18,1.5-.26.03-.51.33-.09.27h0Z"/>
    <path class="cls-13" d="M45.52,77.56c1.51,6.91,3.02,13.82,4.54,20.73.22,1,.44,2,.66,2.99.02.09.14.13.21.13h3.22c.15,0,.5-.08.46-.3-1.41-6.97-2.81-13.95-4.22-20.92l-.6-2.98c-.02-.12-.2-.13-.3-.12l-3.6.18c-.35.02-.54.45-.08.43l3.6-.18-.3-.12c1.41,6.97,2.81,13.95,4.22,20.92.2.99.4,1.99.6,2.98l.46-.3c-.91,0-2.03-.19-2.92,0-.32.07-.22-.12-.1.12-.01-.02,0-.05-.02-.07-.06-.15-.07-.33-.11-.49-.36-1.63-.71-3.25-1.07-4.88l-3.2-14.62c-.27-1.22-.53-2.44-.8-3.66-.06-.27-.73-.1-.67.18Z"/>
    <path class="cls-13" d="M54.94,76.69c-.29,7.15-.59,14.3-.88,21.45-.04,1.03-.08,2.06-.13,3.09l.67-.13c-.68-3.37-1.36-6.74-2.04-10.11-.25-1.25-.65-2.55-.77-3.82-.12-1.26.09-3.05.13-4.45.05-1.82.11-3.65.16-5.47l-.38.24,3.52-.64c.33-.06.54-.49.08-.41l-3.52.64c-.11.02-.37.09-.38.24-.05,1.54-.09,3.08-.14,4.62-.05,1.74-.26,3.55-.16,5.28.06.97.37,1.97.56,2.91l1.34,6.65c.3,1.5.6,3,.91,4.49.05.25.66.09.67-.13.29-7.15.59-14.3.88-21.45.04-1.03.08-2.06.13-3.09.01-.3-.66-.18-.67.07Z"/>
  </g>
  <g class="cls-8">
    <polyline class="cls-11" points="560.06 304.49 560.06 -135.42 -81.83 -135.42 -81.83 304.49"/>
  </g>
  <g class="cls-9">
    <polyline class="cls-11" points="556.87 135.37 556.87 -304.54 -85.02 -304.54 -85.02 135.37"/>
  </g>
</svg>