<?xml version="1.0" encoding="UTF-8"?>
<svg id="Layer_1" xmlns="http://www.w3.org/2000/svg" xmlns:xlink="http://www.w3.org/1999/xlink" version="1.1" viewBox="0 0 86.9 86.9">
  <!-- Generator: Adobe Illustrator 29.1.0, SVG Export Plug-In . SVG Version: 2.1.0 Build 142)  -->
  <defs>
    <style>
      .st0 {
        fill: none;
      }

      .st1 {
        fill: #010101;
      }

      .st2 {
        fill: #ce8d2a;
      }

      .st3 {
        fill: #e2d4b3;
      }

      .st4 {
        fill: #020202;
      }

      .st5 {
        fill: #fff;
      }

      .st6 {
        fill: #171514;
      }

      .st7 {
        fill: #b06c4f;
      }

      .st8 {
        fill: #221f20;
      }

      .st9 {
        fill: #f1ecf6;
      }

      .st10 {
        fill: #a5a4a4;
      }

      .st11 {
        fill: #3f281d;
      }

      .st12 {
        fill: #1e1515;
      }

      .st13 {
        fill: #6c3925;
      }

      .st14 {
        clip-path: url(#clippath);
      }
    </style>
    <clipPath id="clippath">
      <circle class="st0" cx="43.5" cy="43.5" r="43.5"/>
    </clipPath>
  </defs>
  <g class="st14">
    <g>
      <polyline class="st3" points="118.9 367.4 118.9 -49.4 -177.1 -49.4 -177.1 367.4"/>
      <g>
        <path class="st1" d="M37.7,56.9c-.5-1.5-3.3-2.2-3.7-3.8,0-.4.2-.7.5-.8-.2-.6-.5-1.3-.9-1.8-.8-1.2-3.1-2-3.1-2,0,0,.4-2.5-.7-2.8-1.1-.3-3.4,0-3.4,0,0,0-1.9-1.6-3.7,0,0,0-1.8,0-2.1,2.3,0,.5,0,1.1,0,1.9,0,0-.9,0-2.1,1.5-.5.6-1.1,2.7-.7,4.4v.4c.5,2.2,1.6,3.6,3.4,3.8,0,0,1.2,4.5,5.5,4.2,3.7-.3,4.8-2.2,4.8-2.2,0,0,1.7.9,2.6.7.9-.3,1.6-1,2-1.9-.3-.9,1.8-2.8,1.5-3.7h0Z"/>
        <path class="st1" d="M37.9,56.8c-.3-.7-.9-1.2-1.6-1.7-.3-.2-3.3-2.2-1.8-2.8,0,0,.1,0,.1-.1-.4-1-.8-2-1.7-2.7-.4-.3-.8-.5-1.2-.7-.3-.1-.7-.2-.9-.4-.1-.1,0,.1,0-.2,0-.3,0-.7,0-1,0-.6-.1-1.3-.7-1.6-.7-.4-1.7-.2-2.5-.2-.3,0-.8.1-1.1,0s.1,0,0,0c-.1,0-.2-.2-.4-.2-.7-.4-1.4-.5-2.2-.4-.6.1-1,.5-1.5.7-1.9.6-2.2,2.5-2,4.3l.2-.2c-1.8,0-2.9,2.2-3.1,3.7-.3,2.2.2,5.2,2.4,6.3.3.1.9.1,1.1.3,0,0,.1.3.1.4.2.6.5,1.2.9,1.7,1.3,1.7,3.3,2.3,5.4,2,1.4-.2,3.4-.8,4.1-2.2h-.3c1.5.9,3.1,1.2,4.3-.2.7-.8.7-1.7,1.2-2.6.4-.6,1.1-1.4,1-2.2,0-.2-.4,0-.4,0,.2,1.2-1.3,2.3-1.6,3.5s-1.3,2.2-2.6,2c-.6,0-1.2-.3-1.7-.6-.1,0-.3,0-.3,0-1.2,2-4.9,2.5-6.8,1.7-1.5-.6-2.7-2.2-3.1-3.7,0,0,0,0-.1,0-2.4-.3-3.2-2.7-3.4-4.7-.1-1.1,0-2.5.6-3.4.4-.6,1.3-1.6,2.1-1.7,0,0,.2,0,.2-.2-.2-1.7,0-3.5,1.8-4,.5-.2,1.1-.6,1.7-.7.9-.1,1.3.4,2,.6.2,0,.4,0,.6,0,.8,0,1.5,0,2.3,0,1.4.2,1.4,1.7,1.2,2.8,0,0,0,0,0,0,.8.3,1.6.7,2.2,1.2.7.5,1.2,1.2,1.4,2s-.1.4-.3,1c-.2.7.7,1.5,1.2,1.8.9.7,2.1,1.2,2.5,2.3,0,.2.4,0,.4,0h0Z"/>
      </g>
      <path class="st1" d="M64.3,51.2c-2.8-2.2-3.1-5.9-2.6-9.2.5-3.1-1.7-8.1,2.1-7.8,0,0-.3-.8-.5-1.5-.1.2-.3.4-.4.6-.3.3-.9,0-.7-.4.4-.7.7-1.4,1-2.1.5-1.2.8-2.6.8-3.9,0-1.2-.3-2.4-.8-3.5-8.3-12.3-19.3-10.1-26-9.5-13.2,1.2-20.2,14.4-16.7,27.9,3.6,13.8,12.8,18.5,26,18.7,5.7,0,13.4-4.3,17.9-9.2,0,0,0,0-.1,0h0Z"/>
      <path class="st5" d="M60.8,72.1c1,.4,13.2,3.5,15.2,11.9,2,8.4,1.7,30.7,2.5,38,1.1,8.6,1.3,22.1,1.9,33.1l-.8,17.4-7.9-.3s-4.3-46-8-57.7c-3.6-11.7-3-42.3-3-42.3h0Z"/>
      <path class="st5" d="M73.4,90.7c-.2-10.5-2.8-14.1-2.8-14.1-2.9-1.3-8.3-4.3-11.8-5.7-.5-.2-2.2-1.1-2.3-1-1.7,2.8-5,6.2-8.7,6.6-1.3.1-.5-2.7-1.8-2.8-4.2-.1-9.4-2.4-12-5.6l-3.3,1.4-12.6,4.9,2,62.4-.2.5c6.9,2.7,13.8,5.3,21,7.1,8.4,2.2,17.2,3.5,25.8,2.1,2-.3,3.9-.8,5.8-1.4-.5-2.1-2.6-10-2.6-12.2.2-12.2.8-12.6,1.2-13.1"/>
      <path class="st7" d="M35,50.3s2.5,10.1-.1,16.9c-.4,1-1,.8-1,.8l3.8,4.5c4.2,2.7,2.7,3.7,7.4,5.3,6.4,2.1,7.8.4,9.5,0,1.4-.4,2.3-3.1,2.3-5.2l-.3-2.6s-1,0-1.2-1.2c-.3-1.2.6-10.1.6-10.1"/>
      <path class="st5" d="M22.8,103.7l-1.1-30.5s-10.6,2.4-14.1,11.1c-3.2,9.4-9.8,39.5-9.9,45.7-.1,9.7,1,18.8,4.3,50.6l12.9-1.7,1.7-49.6,6.1-25.6h0Z"/>
      <path class="st11" d="M55.6,64.2c0-1.8.1-1.5.2-3.3,0-.2,0-.3,0-.4-5.3,0-12.8-2.6-17.3-2.7.2.1.4,3.7,2.9,6,4,3.6,7,4.2,10.8,4.5h1.9s1.2,0,1.2-.2v-3.8s.3,0,.3,0Z"/>
      <g>
        <path class="st7" d="M34.1,51.4c-.1-2,.3-2.5-.4-4.4-.5-1.5-2.8-3.9-3.9-5-.9-.4-2,0-2.6.7v.3c-1.1,1.8-.3,5.8,2.3,8.3.6,2.7,3.8,2.9,5.1,1.7,0-.5-.5-1-.5-1.5h0Z"/>
        <path class="st7" d="M65.6,49.2c-.1-1.2-1.2-3.1-1.1-4.2,0-1.3,1-7.4-.2-11.4-.5-1.7-1-3.1-1.4-4.2,0,0,0,0-.1-.2,0-.2-.2-.5-.3-.8-1.2-2.2-3.8-3.5-6.2-4.2-1.3-.4-2.4-3-3.8-3.2-.8-.1-2,2-2.9,2,0,0,0,.1,0,0,0,0-.2,0-.5,0-.2,0-.5,0-.7,0,0,0,0,0,0,0,0,.1,0,.3.2.3-.5.2-1.2,0-1.7-.3.2.2.3.3.3.4-.5,0-.8,0-1.2-.3,0,0,.2.3.3.3-.5.2-1,0-1.4-.2,0,0,.2.2.3.3-.4,0-.7,0-1.1-.2l.3.3c-.4,0-.6.2-1.2,0,0,0,.2.2.2.2-.3,0-.6,0-.9,0,0,0,.3.2.2.2-.3,0-.6.1-.9,0,0,0,0,0,0,0,0,0,.1.2.2.3-.2,0-.5,0-.7,0h-.2c0,.2,0,.2,0,.2-.1,0-.3,0-.4,0-.1,0-.2.1-.4.2,0,0,0,0,0,0,0,0,0,0,0,0h0c-2.7,1.5-4.9,3.7-6.8,6.1-1.4,1.8-2.6,3.7-3.6,5.8,0,.5,0,.9,0,1.2,0,.3.1.8.3,1.3.8.9,1.4,1.9,2,3,1,2.2,1.4,4.6,1.5,7,0,1.7.7,1.7.5,3.4l1.1,3,1.4,3.3c4,4.7,9,7.6,13,8.2,1.3.2,4.1.2,5.7,0,1.1,0,2.2-.3,3.2-.9,4.9-3,7.7-11.4,7.1-17.2h0Z"/>
      </g>
      <path class="st8" d="M32.3,47.8c-.4-1-.8-2-1.4-2.9-.3-.5-.6-.9-1-1.3-.2-.1-.4-.3-.6-.3s-.3.2-.4.3c-.5.8-.5,1.9-.3,2.8,0,.1.3,0,.3,0-.1-.7-.1-1.5.1-2.2,0-.2.2-.5.4-.7h-.1c0,0,0,0,.1,0,.1,0,.3.1.4.2.6.5,1,1.2,1.4,1.8.4.7.7,1.5,1,2.3,0,.1.3,0,.3,0h0Z"/>
      <path class="st8" d="M32.2,47.8c-.4,0-1.1,0-1,.6s.4,1,.4,1.6c0,.2,0,.7-.3.7s-.3-.1-.4-.2c-.1-.1-.3-.3-.4-.5-.3-.6-.5-1.3-.4-2,0-.6.3-1.7,1-2,.2,0,0,0,0,0-.7.2-.9,1-1.1,1.7s-.1,1.2.1,1.9c.2.5.7,1.5,1.4,1.2.6-.2.5-.9.4-1.4,0-.3-.2-.6-.3-.9,0-.1,0-.2,0-.3.1-.2.4-.1.5-.1,0,0,.3,0,.2,0h0Z"/>
      <path class="st6" d="M62.3,41.5c.5-.3,1.1-.1,1.5.2,0,0,.3.2.4.6.2.4,0,.9-.2,1.2-.3.4-.9.5-1.4.3-.7-.2-.9-1-.8-1.6,0,0,.1-.5.5-.8"/>
      <path class="st6" d="M47.8,42.5c-.5-.2-1.1,0-1.4.4,0,0-.3.3-.3.6,0,.4.1.9.4,1.2.4.4,1,.4,1.4.2.6-.3.8-1.1.6-1.7,0,0-.2-.5-.6-.7"/>
      <path class="st6" d="M50.8,44s-2.8-1.8-4.2-1.8c-2.5,0-4.7,1.5-5.4,2.5,0,0,3.5-2.1,4.9-2.1,1.4,0,4.7,1.4,4.7,1.4Z"/>
      <g>
        <path class="st4" d="M57,52.1c-.6.3-1.4.3-2,0-.1,0-.5,0-.4.1.8.4,2,.4,2.7,0,0,0,0,0,0-.1,0,0-.2,0-.3,0"/>
        <path class="st4" d="M54.4,52c-.4-.2-.8-.2-1.2-.2,0,0-.1,0-.2,0s0,0,0,0c.2,0,.5.1.7.1,0,0,.2,0,.2,0s0,0,0,0c-.2,0-.4,0-.5,0,0,0-.1.1-.2.2.4,0,.8,0,1.1.2,0,0,.2,0,.2,0,0,0,0,0,0-.1"/>
        <path class="st4" d="M52.7,52.1c-.5,0-1.1-.2-1.4-.5-.4-.5,0-1.5.5-1.9,0,0,0,0,0,0,0,0-.2,0-.3,0-.5.3-.9,1.1-.8,1.6,0,.5.6.8,1.2.9.2,0,.4,0,.6,0,0,0,.2,0,.2,0s0,0-.1,0"/>
        <path class="st4" d="M57.9,51.8c0,0,0,0,0,0,.1,0,.3,0,.4-.1,0,0,0,0,.1.2-.3,0-.5.1-.8.3,0,0-.1,0-.2,0s0,0,0-.1"/>
        <path class="st4" d="M57.5,51.9c.3-.2.6-.3.9-.3,0,0,0,0,.1,0s0,0,0,0"/>
        <path class="st4" d="M59,51.8c.3,0,.7-.2.8-.6.2-.6,0-1.2-.5-1.6,0,0,0,0,0,0,0,0,.1,0,.2,0,.4.3.6.8.6,1.3,0,.5-.3.8-.7,1-.1,0-.2,0-.4,0,0,0-.1,0-.2,0,0,0,0,0,0,0"/>
      </g>
      <path class="st6" d="M58.2,43.5s2.4-2.1,3.6-2.3c1.8-.3,2.5.4,3.2,1.3,0,0-1.4-1.2-2.7-.9-1.2.2-4.1,1.9-4.1,1.9Z"/>
      <path class="st13" d="M56.4,55.4c-2.7,0-7.8-.3-7.8-.3,0,0,.7,6.2,6.8,6.2,6.2,0,5.6-6.2,5.6-6.2,0,0-1.9.2-4.6.2Z"/>
      <path class="st12" d="M56.5,55.4c-1.3,0-7.2-.2-7.2-.2,0,0,2,4.5,6.5,4.2,4.8-.2,4.5-4.2,4.5-4.2l-3.7.2h0Z"/>
      <path class="st9" d="M56.5,55.6c-1.3,0-1.3,0-6-.2,0,0,1.4,1.4,5.2,1.4,3.8,0,5.1-1.4,5.1-1.4,0,0-4.3.2-4.3.2Z"/>
      <path class="st13" d="M61.3,55.2c-.1,0-.2,0-.9-.4-.3-.2-.5-.4-1.3-.4-1.3,0-2.1.4-2.7.4s-1.4-.5-2.7-.4c-.8,0-2.9.4-3.9.5-.6,0-1.4-.2-1.5-.2-.2,0,.2,1.5,7.2,1.5,7,0,5.9-.9,5.7-1h0Z"/>
      <ellipse class="st2" cx="32.1" cy="53.8" rx="1.6" ry="1.5" transform="translate(-26.1 77) rotate(-81)"/>
      <path class="st1" d="M50.3,38c-3.9-.4-5.3-.2-8,.7-1,.3-1.8.8-2.2,1.8,0,.2-.3,1,0,1.1.3,0,.7-.7.9-.8.6-.6,1.4-.7,2.2-.8,1.5-.2,3.1-.2,4.6-.2.8,0,1.6.2,2.8.4.2-.2.1-.9,0-1.3,0-.5,0,0-.1-.6,0,0,0-.1-.2-.2h0Z"/>
      <path class="st1" d="M65,38c0-.2,0-.3,0-.5s0-.2,0-.3c-2.1-.2-3.3,0-6.5.8-.2,0-.2.2-.2.2,0,.5,0,0,0,.6,0,.4,0,1.2.2,1.3,1.1-.3,1.9-.7,2.6-.8,1.2-.2,2.6-.4,3.9-.5,0-.2,0-.3,0-.5v-.3Z"/>
      <path class="st1" d="M21.1,34.7c2.3-3.5,4.9-6.8,8.3-9.3,3.2-2.3,6.9-3.7,10.5-5,2.5-.9,5-1.7,7.6-2,2.6-.3,5.3,0,7.7,1.1,2,1,3.6,2.6,5.7,3.3.2,0,.5.1.8,0,.3-.1.7.5.8.2.6-1.6-.2-3.9-1.4-5.1s-3.2-1.6-4.7-1.6c-.4-1.5-2-2.4-3.5-3.1s-3.6-.6-5,.2c-.3.2.3,0,0,0-.2,0-.4-.2-.5-.3-1-.8-2.1-1.5-3.4-1.8-1.2-.3-2.7,0-3.6.8-.3.3-.6.6-1,.8-.8.4-1.8-.1-2.7-.3-1.3-.3-2.8.1-3.8,1.1-.3.3-.5.6-.9.7-.2,0-.5,0-.8,0-.8-.2-1.2,0-2,.3-2.2.8-3,1.6-3.1,3.4,0,.2-.4.4-.5.5-.1.2-.4.2-.6.2-1.2,0-1.7.9-2.7,1.6-1,.8-1.8,3.9-1.8,5.1,0,1.1-.3.6.7.3,0,0-1-.6-1.9.3s-2.6,4.3-1.6,7.3,1.4,2.9,1.4,2.9c0,0-.1,4.1,0,5.5s2.2,4.1,4.8,4.3c0,0-1.4,0-1.6.8s-.4,1,.6,1.1-1.7-13.7-1.7-13.7h0Z"/>
      <path class="st1" d="M29,38.5c1,1.9,2.1,3.8,3.1,5.7.6,1,.7,2.9,1.5,2,.4-.5.6-2.1.4-2.7-.6-1.9-1.2-5.3-1.8-7.2,1.9,0,4.6-2.3,5.2-4.1s.3-2.5.2-4.4c.8,1.1,2.7,1.2,3.9.5,1.2-.7,2-2,2.8-3.2.6,1.2,3.5,1.2,4.7.6s1.4-.7,2-2,.5-1.6.6-2.8c.2,1.8,1.8,3.4,2.5,3.7,1.7.7,4,1,5.4-.1-.4.9,0,2,.8,2.7s1.8.9,2.7,1.2c.2,0,.4.1.6,0,.5-.2.4-1,.1-1.5-2.5-4.9-7.9-8.3-13.4-8.4-5.1-.1-9.9,2.3-14.2,5-2.9,1.8-6,4.1-6.9,7.4"/>
      <path class="st1" d="M34.7,34.2c.6.6.7,1.6.5,2.4-.2.5-.4,1.1-.8,1.5s-1,.7-1.5.7-.2,0-.3,0c0,0,0-.1,0-.2-.4-1.1-.6-2.3-.6-3.5,0-.2,0-.4,0-.5.3-.5,1.1-.3,1.5-.7"/>
      <path class="st10" d="M33.6,68.2c2.5,3.6,5.9,6.9,9.8,9s11.5,3.4,13.5-1.8c.7-1.8.3-3.8,0-5.7l-.6.2c.6.3,2,.9,2.3,1.3.3.4.4,1.2.5,1.7.4,2.8-.7,5.3-3.2,6.7-8.3,4.5-17.2-1.9-22.8-7.9-.6-.7-1.5-1.4-1.9-2.2,0-.1-.3.2,0,0,.3-.2.7-.3,1-.5l1.9-.9c.4-.2-.2-.3-.4-.2l-3.1,1.5c0,0-.2.1-.1.2,3.8,4.9,9.3,9.7,15.4,11.2,5.4,1.4,14.6-.6,13.9-7.7,0-.6-.1-1.7-.5-2.2-.5-.7-1.8-1-2.5-1.4-.1,0-.6,0-.6.2.2,1.5.5,2.9.3,4.4-.4,2.5-2.2,4-4.7,4.3-5.9.8-11.1-3.3-14.9-7.3-1-1-1.9-2.1-2.7-3.3-.1-.2-.8,0-.6.2h0Z"/>
    </g>
  </g>
</svg>