<?xml version="1.0" encoding="UTF-8"?>
<svg id="Layer_1" data-name="Layer 1" xmlns="http://www.w3.org/2000/svg" xmlns:xlink="http://www.w3.org/1999/xlink" viewBox="0 0 991 991">
  <defs>
    <style>
      .cls-1 {
        fill: none;
      }

      .cls-2 {
        fill: #b9dfee;
      }

      .cls-3 {
        fill: #010101;
      }

      .cls-4 {
        fill: #f1eef7;
      }

      .cls-5 {
        fill: #fff;
      }

      .cls-6 {
        fill: #b06c4f;
      }

      .cls-7 {
        fill: #251911;
      }

      .cls-8 {
        fill: #4f2f26;
      }

      .cls-9 {
        fill: #6c3925;
      }

      .cls-10 {
        fill: #888;
      }

      .cls-11 {
        clip-path: url(#clippath);
      }
    </style>
    <clipPath id="clippath">
      <circle class="cls-1" cx="495.5" cy="495.5" r="495.5"/>
    </clipPath>
  </defs>
  <g class="cls-11">
    <rect class="cls-2" x="-32.8" y="-20" width="1060.96" height="1045.41" rx="12" ry="12"/>
    <path class="cls-10" d="M886.27,838.17c-34.97,45.04-77.53,83.99-125.61,114.67-48.71,31.08-102.89,53.42-159.34,65.74-59.2,12.91-120.81,14.77-180.7,5.63-57.91-8.84-114.13-28.11-165.28-56.68-49.82-27.83-94.75-64.3-132.24-107.32-4.61-5.29-9.1-10.68-13.48-16.15-.86-1.07-3.6.11-2.65,1.3,36.17,45.12,80.04,83.94,129.4,114.1,49.83,30.45,104.96,51.96,162.26,63.26,59.41,11.71,120.97,12.45,180.66,2.3,57.99-9.85,114.11-30.15,165-59.64,49.65-28.78,94.22-66.14,131.23-109.99,4.51-5.34,8.9-10.78,13.19-16.3,1.14-1.46-1.59-2.01-2.44-.92h0Z"/>
    <path class="cls-6" d="M632.15,704.61c-2.74-7.51,0-95.77,0-95.77l-137.33,18.18-137.33-18.18s2.74,88.27,0,95.77c-2.74,7.51-117.09,42.32-117.09,42.32,0,0,77.58,69.66,255.94,69.66s252.25-68.3,252.25-68.3c0,0-113.7-36.17-116.44-43.68Z"/>
    <path class="cls-8" d="M358.3,644.49s28.08,39.29,50.54,39.7c30.05.54,139.51,1.63,180.97.68,20.11-.46,29.57-20.98,41.52-35.35v-15.64l-108.5,16.38-164.53-17.32v11.57Z"/>
    <path class="cls-5" d="M58.4,1603.5l76.46-383.22-74.04-421.86s-80.62,6.99-124.56,138.8c-37.49,141.22-107.49,604.07-102.93,694.36,1.48,26.87,10.62,92.18,22.57,170.11H66.73l-8.33-198.19Z"/>
    <path class="cls-5" d="M1062.43,1394.4c-4.71-5.55-25.6-16.81-28.61-23.29-13.77-29.69-48.06-14.39-45.98-46.38.49-7.46,1.23-14.94,2.39-22.34,1.44-9.14,4.06-18.25,6.83-27.11,5.44-17.43,12.66-34.31,20.64-50.84,14.25-29.52,31-57.95,44.72-87.69l-85.31-252.87c-10.48-36.51-39.24-84.12-77.13-96.63l-113.16-34.79-44.99,321.6,140.55,280.78c13.44,29.94,57.7,60.57,88.68,74.58,33.12,14.98,74.59,11.68,81.87,8.75-2.71-2.29,11.77-41.1,9.49-43.78Z"/>
    <path class="cls-5" d="M878.95,1643.27c-9.74-75.17-4.33-204.08,2.47-279.57,4.57-33.73,17.65-4.84,37-69.6,17.06-56.57-80.43-524.9-80.43-524.9l-146.12-48.86-42.73-8.73,3.21-1.45c-.37,2.54.92,4.38,1.28,6.92l2.56,15.89c-10.56,47.65-77.06,73.22-124.49,77.41-16.46,1.14-54.95,14.19-71.41,13.06-68.83-7.81-99.45-40.78-116.58-84.51l-7.65-27.14-80.89,21.05-221.73,74.53,28.92,375.74c4.43,79.41-11.77,94.06,21.28,165.68l-7.49,312.14,66.69-21.09"/>
    <g>
      <path class="cls-5" d="M336.06,711.78s10.45,108.2,152.08,102.99c163.03-6.01,161.1-108.21,161.1-108.21l43.34,10.45s-23.74,140.97-205.37,139.15c-181.63-1.82-189.34-133.43-189.34-133.43l38.19-10.95Z"/>
      <path class="cls-10" d="M334.62,712.17c.38,3.96,1.34,7.9,2.36,11.73,2.55,9.57,6.35,18.8,11.16,27.45,6.7,12.05,15.51,22.83,25.98,31.8,13.63,11.68,29.9,19.94,47.04,25.11,23.96,7.23,49.22,8.54,74.09,7.15,24.86-1.39,49.89-5.2,73.4-13.61,16.49-5.9,32.31-14.12,45.71-25.5,9.87-8.38,18.35-18.36,24.64-29.7,4.47-8.05,7.84-16.76,9.86-25.75.66-2.94,1.18-5.92,1.51-8.91.17-1.57.47-3.29.35-4.88-.02-.21,0-.43,0-.64l-2.31,1.05c12.65,3.05,25.29,6.1,37.94,9.15,1.8.43,3.6.87,5.4,1.3l-.61-.78c-.78,4.61-2.15,9.17-3.58,13.61-3.64,11.31-8.57,22.21-14.48,32.51-8.43,14.72-18.99,28.18-31.33,39.83-15.57,14.7-33.91,26.26-53.64,34.51-26.12,10.92-54.38,16.01-82.57,17.27-31.15,1.39-63.05-1.09-93.1-9.73-21.83-6.27-42.74-16.07-60.61-30.21-13.41-10.61-24.9-23.61-33.72-38.26-6.5-10.81-11.56-22.5-14.97-34.64-1.72-6.13-3.13-12.45-3.71-18.8-.03-.29-.05-.59-.07-.88l-1.21,1.29c11.13-3.19,22.25-6.38,33.38-9.57,1.6-.46,3.2-.92,4.81-1.38,1.76-.5,1.29-2.32-.49-1.81-11.13,3.19-22.25,6.38-33.38,9.57-1.6.46-3.2.92-4.81,1.38-.62.18-1.25.59-1.21,1.29.27,4.57,1.21,9.16,2.23,13.61,2.6,11.3,6.68,22.25,11.97,32.57,7.44,14.51,17.34,27.7,29.23,38.87,15.65,14.71,34.4,25.71,54.42,33.35,27.7,10.55,57.52,14.81,87.04,15.53,30.45.75,61.26-2.23,90.4-11.46,22.01-6.97,42.91-17.53,61.03-31.9,14.28-11.33,26.7-24.88,36.81-40.05,7.49-11.25,13.72-23.36,18.44-36.03,2.4-6.45,4.55-13.08,5.89-19.83.06-.3.12-.6.17-.9.06-.38-.26-.7-.61-.78-12.65-3.05-25.29-6.1-37.94-9.15-1.8-.43-3.6-.87-5.4-1.3-.64-.16-2.33.08-2.31,1.05.06,3.15-.39,6.35-.89,9.44-1.29,7.88-3.68,15.58-6.96,22.86-4.84,10.74-11.61,20.52-19.8,28.96-11.13,11.46-24.71,20.28-39.21,26.86-20.66,9.37-43.11,14.38-65.56,16.97-26.07,3.01-52.93,3.53-78.73-1.85-18.47-3.85-36.34-10.82-51.79-21.76-11.75-8.32-21.86-18.84-29.73-30.9-5.86-8.97-10.47-18.74-13.72-28.95-1.69-5.31-2.88-10.68-3.79-16.17-.04-.25-.06-.5-.09-.74-.12-1.2-3.02-.53-2.9.78Z"/>
    </g>
    <path class="cls-6" d="M318.96,408.56s-20.89-40.48-35.08-40.39c-8.63.06-29.45,23.08-29.22,45.08.32,29.43,20.81,62.86,25.92,80.02,5.11,17.16,4.26,41.82,27.13,41.67,9.06-.06,20.25-19,20.25-19,0,0-4.27-80.7-9-107.38Z"/>
    <path class="cls-8" d="M310.97,448.81c-5.19-10.99-10.92-21.87-18.09-31.73-3.7-5.08-7.83-10.05-12.89-13.84-2.03-1.52-4.37-3.01-6.9-3.53-.6-.13-1.29-.25-1.87.02-1.18.55-1.98,2.61-2.51,3.66-4.93,9.88-4.55,21.62-1.89,32.08.22.86,2.39.29,2.17-.58-2.7-10.61-3.14-23,2.53-32.79.26-.44.52-.87.81-1.29.08-.11.5-.66.22-.31l-1.29.45c.13,0,.29,0,.42.04-.31-.08.1.02.3.07.25.06.49.13.73.2,1.46.47,3.15,1.42,4.6,2.43,7.27,5.02,12.76,12.72,17.49,20.03,5.3,8.19,9.83,16.87,14,25.68.39.83,2.53.17,2.17-.58h0Z"/>
    <path class="cls-8" d="M302.69,453.26c-2.85-.14-5.82.74-7.22,3.42-1.4,2.68-1.23,6.01-.99,8.93.29,3.57.96,7.1,1.4,10.65.29,2.34.94,5.71-.41,7.85-.15.24-.53.76-.47.6.12-.33.36.18.05-.09-.2-.18-.44-.29-.64-.48-1.12-1.08-1.8-2.65-2.4-4.05-2.12-4.96-3.34-10.34-4.35-15.62-.67-3.5-1.48-7.25-1.47-10.5,0-2.65.17-5.3.47-7.94.48-4.07,1.28-8.2,2.86-12,1.52-3.65,3.85-7.23,7.61-8.83,1.38-.59.14-1.48-.9-1.04-7.2,3.06-9.98,11.41-11.24,18.52-.97,5.46-1.33,11-.51,16.49.92,6.15,2.14,12.33,4.12,18.24.65,1.94,1.39,3.87,2.39,5.66.59,1.05,1.35,2.25,2.5,2.75,2.54,1.11,4.42-1.59,4.75-3.77.48-3.13-.2-6.47-.65-9.56-.58-3.97-1.37-8.08-1-12.1.14-1.52.44-3.2,1.43-4.41s2.38-1.42,3.84-1.35c.91.05,2.28-1.29.81-1.36h0Z"/>
    <path class="cls-6" d="M663.06,408.56s20.89-40.48,35.08-40.39c8.63.06,29.45,23.08,29.22,45.08-.32,29.43-20.81,62.86-25.92,80.02-5.11,17.16-4.26,41.82-27.13,41.67-9.06-.06-20.25-19-20.25-19,0,0,4.27-80.7,9-107.38Z"/>
    <path class="cls-8" d="M673.17,449.19c6.2-13.12,13.14-26.44,22.68-37.49,2.34-2.71,4.87-5.31,7.74-7.46,1.69-1.27,3.08-2.14,5-2.88.23-.09-.25.08.03-.01.08-.03.16-.06.24-.08.14-.04.27-.08.41-.12.2-.05.87-.17.4-.1.17-.02.87-.05.28-.06l-.61-.27c1.23,1.53,2.1,3.42,2.83,5.23,2.02,4.99,2.83,10.42,2.75,15.79-.07,4.58-.79,9.12-1.91,13.55-.24.95,1.97.67,2.19-.21,2.5-9.81,2.97-20.66-1.04-30.16-.68-1.61-1.49-3.69-2.72-4.99-.42-.45-.91-.42-1.47-.34-2.41.33-4.71,1.65-6.68,3-4.8,3.26-8.76,7.75-12.28,12.31-8.05,10.44-14.29,22.23-19.91,34.12-.5,1.06,1.69.96,2.06.17h0Z"/>
    <path class="cls-8" d="M679.28,454.42c7.88-.39,6.32,10.11,5.64,15.1-.48,3.47-1.17,6.96-1.27,10.47-.05,1.86.05,5.29,2.41,5.8,3.04.67,4.89-2.88,5.89-5.1,2.28-5.08,3.52-10.68,4.56-16.12.68-3.53,1.49-7.17,1.49-10.78,0-2.81-.18-5.61-.53-8.4-.96-7.72-3.32-17.78-11.26-21.15-.51-.22-2.48.59-1.77.89,6.9,2.93,9.35,11.49,10.48,18.22.88,5.21,1.23,10.48.45,15.71-.89,5.99-2.08,12-3.96,17.76-.64,1.97-1.37,3.95-2.36,5.78-.35.64-.73,1.27-1.21,1.81-.11.12-.43.34-.49.48-.15.39.41-.27.4,0,0,.1-.99-.8-1.03-.86-.3-.42-.49-.91-.62-1.4-.32-1.23-.3-2.55-.24-3.81.18-3.48.87-6.93,1.32-10.39.45-3.44,1.01-7.29-.03-10.68-.99-3.24-3.72-4.44-6.94-4.28-.35.02-1.3.16-1.45.54s.13.44.53.42h0Z"/>
    <path class="cls-6" d="M655.2,606.46c5.28-5.16,12.14-29.94,12.18-37.39.13-22.05,1.19-28.35,2.64-61.87,1.47-33.52,7.65-63.41,10.59-95.46,2.91-32.08,6.55-157.63-2.94-183.16-2.83-7.59-14.77-19.01-31.82-31.3-40.13-28.96-108.56-62.72-152.55-62.72-62.69,0-174.91,68.52-184.4,94.02-9.46,25.53-5.83,151.08-2.91,183.16,2.91,32.05,9.12,61.94,10.59,95.46,1.44,33.52-.31,72.16,4.91,84.62,1.15,2.74,7.29,10.09,9.25,12.92,13.21,19.33,29.1,24.43,48.06,43.96,0,0,14.51,17.02,27.37,24.04,12.86,7.01,181.65,1.17,189.99,0,8.34-1.17,59.05-66.28,59.05-66.28"/>
    <path class="cls-3" d="M304.65,390.07s-6.25-6.44-16.72-37.96c-3.81-11.48-9.48-138.26-2.83-161.63,10.68-37.48,124.83-97.93,210.26-94.79,108.48,3.99,193.52,53.08,207.45,78.8,11.3,20.87,1.61,147.45-5.9,174.6-4.28,15.46-14.6,34.23-14.6,34.23,0,0,.17-56.57-14.23-85.11-14.4-28.54-12.19-85.21-19.32-93.01-7.13-7.8-80.59-26.24-153.4-26.72-87.11-.57-150.52,26.31-154.88,29.63-4.36,3.32-5.15,59.53-8.57,75.89-3.42,16.37-24.15,58.45-27.26,106.08Z"/>
    <path class="cls-3" d="M504.7,495.05c-8.55,3.49-14.81,3.61-20.42-1.33-1.25-1.1-5.62.1-3.87,1.64,7.41,6.52,21.5,5.55,29.24-.14.77-.57.67-1.36-.24-1.77-.95-.43-3.89,1-4.71,1.6"/>
    <path class="cls-3" d="M477.31,491.45c-5.44-1.59-11.24-1.85-16.86-1.24-.82.1-1.81.63-2.28,1.33-.38.55-.36,1.18.33,1.43,2.86,1.1,6.24,1.13,9.22.49.94-.2,2.13-.7,2.49-1.69.33-.91-.68-1.26-1.41-1.11-2.46.53-5.08.49-7.44-.42-.66.92-1.31,1.84-1.97,2.76,5.02-.55,10.22-.26,15.08,1.16.97.28,2.17-.26,2.86-.93.51-.5.97-1.51,0-1.8"/>
    <path class="cls-3" d="M512.76,492.75c5.42-1.65,11.22-1.98,16.85-1.43.82.09,1.81.61,2.3,1.3.38.54.37,1.17-.31,1.44-2.85,1.14-6.23,1.2-9.21.6-.94-.19-2.14-.67-2.5-1.66-.34-.91.66-1.27,1.4-1.12,2.46.5,5.08.43,7.43-.5.67.91,1.33,1.83,2,2.74-5.03-.49-10.22-.14-15.06,1.33-.96.3-2.18-.23-2.87-.89-.52-.49-.99-1.5-.02-1.8"/>
    <path class="cls-3" d="M455.15,494.03c-5.56-.18-12.1-3.31-14.83-8.73-4.13-8.18-.28-17.9,6.66-23.12.75-.57.35-1.31-.41-1.51-1-.28-2.18.2-2.97.8-6.05,4.56-9.97,11.96-9.06,19.63.85,7.17,6.17,12.18,12.82,14.26,1.98.62,4.09,1.03,6.16,1.1.84.02,2.36-.3,2.77-1.16.42-.86-.35-1.24-1.14-1.27"/>
    <path class="cls-3" d="M535.45,494.25c5.56-.18,12.1-3.31,14.83-8.73,4.13-8.18.28-17.9-6.66-23.12-.75-.57-.35-1.31.41-1.51,1-.28,2.18.2,2.97.8,6.05,4.56,9.97,11.96,9.06,19.63-.85,7.17-6.17,12.18-12.82,14.26-1.98.62-4.09,1.03-6.16,1.1-.84.02-2.36-.3-2.77-1.16-.42-.86.35-1.24,1.14-1.27"/>
    <path class="cls-3" d="M399.84,374.44c-5.64-2.92-12.23-.39-15.92,2.87-.87.77-3.2,2.96-4.29,6.67-1.39,4.74.5,10.11,3.47,13.37,3.97,4.36,10.59,5.11,15.67,2.74,6.89-3.22,9.13-11.5,7.42-17.54-.32-1.1-1.79-5.75-6.34-8.11"/>
    <path class="cls-3" d="M589.95,376.56c5.64-2.92,12.23-.39,15.92,2.87.87.77,3.2,2.96,4.29,6.67,1.39,4.74-.5,10.11-3.47,13.37-3.97,4.36-10.59,5.11-15.67,2.74-6.89-3.22-9.13-11.5-7.42-17.54.32-1.1,1.79-5.75,6.34-8.11"/>
    <path class="cls-3" d="M541.84,399.26s32.49-23.63,49.1-25.15c24.24-2.23,54.12,10.19,62.7,21.3,0,0-39.53-18.56-56.57-16.53-16.28,1.94-55.24,20.39-55.24,20.39Z"/>
    <path class="cls-3" d="M449.81,395.68s-32.49-23.63-49.1-25.15c-24.24-2.23-54.12,10.19-62.7,21.3,0,0,39.53-18.56,56.57-16.53,16.28,1.94,55.24,20.39,55.24,20.39Z"/>
    <path class="cls-3" d="M451.7,310.37c-.03,5.78-.08,11.58-.12,17.4-.04,4.42-.08,8.84-.14,13.25-12.99-3.8-24.11-6.28-32.51-7.91-16.65-3.25-34.01-5.32-50.9-2.6-8.08,1.3-15.18,3.5-21.93,7.93-2.13,1.4-7.9,7.47-11.07,5.88-1.3-.65.87-7.76,1.09-8.5,4.44-14.34,15.85-20.25,29.78-23.6,28.41-6.83,56.95-5.92,85.79-1.84"/>
    <path class="cls-3" d="M540.83,312.48c.03,5.78.08,11.58.12,17.4.04,4.42.08,8.84.14,13.25,12.78-3.8,23.73-6.28,31.99-7.91,16.39-3.25,33.48-5.32,50.09-2.6,7.95,1.3,14.94,3.5,21.59,7.93,2.1,1.4,7.77,7.47,10.89,5.88,1.28-.65-.85-7.76-1.08-8.5-4.37-14.34-15.6-20.25-29.31-23.6-27.96-6.83-56.05-5.92-84.43-1.84"/>
    <path class="cls-9" d="M494.7,541.98c-33.02,0-86.53-3.77-86.53-3.77,0,0,9.98,79.47,86.53,79.47s86.53-79.47,86.53-79.47c0,0-53.51,3.77-86.53,3.77Z"/>
    <path class="cls-7" d="M495.02,541.98c-15.7,0-78.98-2.58-78.98-2.58,0,0,20.92,49.66,77.7,49.66,61.56,0,79.65-49.17,79.65-49.17l-78.38,2.09Z"/>
    <path class="cls-4" d="M495.71,544.27c-15.7,0-63.47-2.58-63.47-2.58,0,0,17.2,16.72,64.29,16.72s62.05-16.23,62.05-16.23l-62.87,2.09Z"/>
    <path class="cls-9" d="M584.7,533.51c-1.67-.4-10.81,2.55-18.6,1.9-12.99-1.09-28.71-4.41-38.13-5.12-16.07-1.2-26.28,4.96-33.27,4.96s-17.19-6.17-33.27-4.96c-9.42.7-25.13,4.03-38.13,5.12-7.8.65-16.93-2.3-18.6-1.9-2.32.55,2.18,17.11,90.02,17.11s92.3-16.55,89.98-17.11Z"/>
    <path class="cls-10" d="M895.89,784.15c-36.78,48.96-81.83,91.6-133.38,124.74-50.56,32.5-106.96,55.62-165.84,67.71-59.69,12.25-121.71,13.05-181.85,3.49-58.01-9.21-114.27-28.64-165.24-57.89-52.98-30.41-99.6-71.15-137.95-118.63-4.87-6.02-9.59-12.16-14.2-18.38-.55-.74-3.35.23-2.7,1.11,37.2,50.17,82.89,93.84,135.8,127.18,50.38,31.74,106.63,53.65,165.05,65.03,59.55,11.6,121.45,12.92,181.35,3.15,59.44-9.69,116.92-30.38,168.95-60.71,52.68-30.71,99.49-71.1,138.15-118.21,4.99-6.08,9.84-12.28,14.57-18.57.74-.99-2.14-.73-2.68-.01h0Z"/>
  </g>
</svg>