<?xml version="1.0" encoding="UTF-8"?>
<svg id="Layer_1" data-name="Layer 1" xmlns="http://www.w3.org/2000/svg" viewBox="0 0 114.49 114.22">
  <defs>
    <style>
      .cls-1 {
        fill: #0d4061;
        stroke-width: 0px;
      }
    </style>
  </defs>
  <g>
    <path class="cls-1" d="M84.88,53.66c-.21,8.98-3.09,15.74-9.15,20.93-2.88,2.47-4.31,5.36-4.05,9.12.06.91.08,3.94-.03,4.84-.17,1.34-.98,2.17-2.38,2.25-1.37.08-2.5-.56-2.61-1.92-.44-5.22-.21-12.43,3.85-16.46.93-.92,1.99-1.72,2.89-2.67,5.97-6.31,7.91-13.72,5.08-21.93-2.89-8.39-8.99-13.24-17.88-14.35-13.1-1.63-24.99,9.68-23.52,23.49.58,5.49,2.91,10.26,7.22,13.73,5.19,4.18,6.26,11.77,5.74,17.91-.13,1.48-1.12,2.22-2.58,2.19-1.47-.03-2.34-.88-2.48-2.32-.11-1.13-.07-4.39-.03-5.53.11-3.25-1.16-5.82-3.61-7.94-7-6.05-10.12-13.73-9.39-22.96.95-12.07,11.2-22.49,23.28-23.69,13.41-1.32,24.91,6.34,28.65,19.23.66,2.28.79,4.71,1,6.06Z"/>
    <path class="cls-1" d="M58.31,95.24c2.96,0,5.92,0,8.88,0,2.09,0,3.14.85,3.16,2.5.02,1.68-1.02,2.59-3.06,2.6-5.98.01-11.96.01-17.94,0-2.05,0-3.09-.9-3.08-2.58.01-1.65,1.06-2.51,3.15-2.52,2.96-.01,5.92,0,8.88,0Z"/>
    <path class="cls-1" d="M60.92,13.08c0,1.48.05,2.96-.01,4.44-.08,1.75-1.09,2.87-2.51,2.91-1.39.04-2.58-1.09-2.63-2.79-.09-3.01-.09-6.04,0-9.05.05-1.77,1.14-2.82,2.6-2.8,1.48.02,2.47,1.06,2.55,2.85.07,1.48.01,2.96.01,4.44Z"/>
    <path class="cls-1" d="M35.71,11.97c.37.3,1.29.75,1.75,1.49,1.58,2.51,3.03,5.09,4.47,7.68.92,1.64.58,3.1-.77,3.84-1.38.75-2.74.29-3.7-1.34-1.51-2.55-3.01-5.11-4.43-7.71-1.01-1.85.15-3.94,2.69-3.97Z"/>
    <path class="cls-1" d="M84.29,14.14c-.35.92-.48,1.48-.75,1.96-1.46,2.58-2.93,5.15-4.44,7.7-.89,1.5-2.29,1.91-3.63,1.17-1.25-.69-1.69-2.11-.91-3.54,1.5-2.75,3.07-5.47,4.68-8.16.64-1.06,1.74-1.71,2.91-1.15.86.41,1.46,1.36,2.13,2.01Z"/>
    <path class="cls-1" d="M28.92,73.66c-.22.3-.56,1.16-1.2,1.56-2.7,1.69-5.47,3.27-8.25,4.82-1.29.72-2.69.28-3.44-.9-.72-1.14-.46-2.69.78-3.45,2.77-1.69,5.56-3.35,8.43-4.85,1.85-.97,3.72.29,3.68,2.82Z"/>
    <path class="cls-1" d="M100.97,77.34c.05,2.27-1.87,3.68-3.54,2.8-2.97-1.56-5.86-3.27-8.72-5.03-1.26-.78-1.32-2.13-.67-3.34.65-1.21,1.93-1.64,3.09-1.02,3.01,1.59,5.96,3.33,8.86,5.11.54.33.78,1.17.97,1.48Z"/>
    <path class="cls-1" d="M28.92,35.76c.03,2.35-1.81,3.69-3.51,2.8-2.97-1.56-5.86-3.27-8.71-5.04-1.15-.71-1.37-1.98-.75-3.18.63-1.22,1.87-1.8,3.03-1.19,3.12,1.62,6.15,3.43,9.15,5.26.48.3.65,1.11.78,1.35Z"/>
    <path class="cls-1" d="M87.74,35.55c.25-.31.67-1.17,1.36-1.6,2.51-1.57,5.08-3.02,7.67-4.46,1.6-.89,3.15-.54,3.89.76.75,1.31.26,2.75-1.34,3.7-2.59,1.53-5.18,3.08-7.84,4.5-1.91,1.02-3.83-.23-3.73-2.9Z"/>
    <path class="cls-1" d="M16.66,57.2c-1.54,0-3.08.04-4.61-.01-1.57-.06-2.63-1.16-2.6-2.58.03-1.36,1.03-2.45,2.53-2.48,3.19-.06,6.38-.07,9.57,0,1.51.03,2.5,1.13,2.51,2.5.02,1.44-1.03,2.51-2.62,2.56-1.59.05-3.19.01-4.78.01Z"/>
    <path class="cls-1" d="M99.74,57.2c-1.48,0-2.96.03-4.44,0-1.62-.05-2.68-1.04-2.72-2.47-.04-1.5,1.02-2.59,2.75-2.62,3.02-.05,6.04-.04,9.06,0,1.71.02,2.82,1.09,2.81,2.56,0,1.48-1.12,2.49-2.84,2.53-1.54.03-3.08,0-4.61,0Z"/>
    <path class="cls-1" d="M58.39,108.8c-1.87,0-3.75.03-5.62,0-2.16-.05-3.67-1.2-3.6-2.65.08-1.42,1.49-2.43,3.61-2.45,3.82-.04,7.65-.04,11.47,0,2.06.02,3.51,1.14,3.49,2.54-.01,1.4-1.48,2.51-3.51,2.56-1.95.05-3.9.01-5.85.01Z"/>
  </g>
  <path class="cls-1" d="M68.03,54.68c-.89-.75-2.22-.63-2.97.26l-6.47,7.7-6.47-7.7c-.75-.89-2.08-1.01-2.97-.26-.89.75-1.01,2.08-.26,2.97l7.36,8.75-.05,22.05c0,1.16.94,2.11,2.1,2.11h0c1.16,0,2.11-.94,2.11-2.1l.05-21.5,7.82-9.31c.75-.89.63-2.22-.26-2.97Z"/>
</svg>