<?xml version="1.0" encoding="UTF-8"?>
<svg id="Layer_1" data-name="Layer 1" xmlns="http://www.w3.org/2000/svg" viewBox="0 0 114.49 114.22">
  <defs>
    <style>
      .cls-1 {
        fill: #0d4061;
        stroke-width: 0px;
      }
    </style>
  </defs>
  <path class="cls-1" d="M83.36,103.42c-1.51,0-3.01-.48-4.33-1.43l-20.4-14.82c-.83-.61-1.95-.6-2.78,0l-20.4,14.82c-2.63,1.91-6.03,1.91-8.66,0-2.63-1.91-3.68-5.15-2.68-8.24l7.79-23.98c.32-.98-.03-2.04-.86-2.65l-20.4-14.82c-2.63-1.91-3.68-5.15-2.68-8.24,1.01-3.09,3.76-5.09,7.01-5.09h25.21c1.03,0,1.93-.66,2.25-1.64l7.79-23.98c1-3.09,3.76-5.09,7.01-5.09s6,2,7.01,5.09l7.79,23.98c.32.98,1.22,1.64,2.25,1.64h25.21c3.25,0,6,2,7.01,5.09,1,3.09-.05,6.33-2.68,8.24l-20.39,14.82c-.83.6-1.18,1.67-.86,2.65l7.79,23.98c1,3.09-.05,6.33-2.68,8.24-1.32.96-2.82,1.43-4.33,1.43ZM57.24,81.71c1.52,0,3.04.47,4.33,1.41l20.4,14.82c1.29.94,2.46.24,2.78,0,.33-.24,1.35-1.13.86-2.65l-7.79-23.98c-.99-3.04.09-6.36,2.68-8.24l20.39-14.82c1.29-.94.99-2.26.86-2.65-.12-.38-.66-1.64-2.25-1.64h-25.21c-3.2,0-6.02-2.05-7.01-5.09l-7.79-23.98c-.49-1.52-1.85-1.64-2.25-1.64s-1.76.12-2.25,1.64l-7.79,23.98c-.99,3.05-3.81,5.09-7.01,5.09H14.98c-1.6,0-2.13,1.25-2.25,1.64-.12.38-.43,1.71.86,2.65l20.4,14.82c2.59,1.88,3.67,5.19,2.68,8.24l-7.79,23.98c-.49,1.52.53,2.41.86,2.65.33.24,1.49.94,2.78,0l20.4-14.82c1.29-.94,2.81-1.41,4.33-1.41Z"/>
</svg>