<?xml version="1.0" encoding="UTF-8"?>
<svg xmlns="http://www.w3.org/2000/svg" xmlns:xlink="http://www.w3.org/1999/xlink" viewBox="0 0 1334 1000">
  <defs>
    <style>
      .cls-1 {
        fill: #523e87;
      }

      .cls-1, .cls-2, .cls-3, .cls-4, .cls-5, .cls-6, .cls-7, .cls-8, .cls-9, .cls-10, .cls-11, .cls-12, .cls-13, .cls-14, .cls-15, .cls-16, .cls-17, .cls-18, .cls-19 {
        stroke-width: 0px;
      }

      .cls-20 {
        clip-path: url(#clippath);
      }

      .cls-2 {
        fill: none;
      }

      .cls-3 {
        fill: #643b29;
      }

      .cls-4 {
        fill: #27143c;
      }

      .cls-5 {
        fill: #0b0b0a;
      }

      .cls-6 {
        fill: #f0edf6;
      }

      .cls-7 {
        fill: #fffbfb;
      }

      .cls-8 {
        fill: #372461;
      }

      .cls-9, .cls-21 {
        fill: #000;
      }

      .cls-21 {
        stroke: #000;
        stroke-width: 2px;
      }

      .cls-21, .cls-22 {
        stroke-miterlimit: 10;
      }

      .cls-10 {
        fill: #638e9f;
      }

      .cls-22 {
        stroke: #231f20;
        stroke-width: .25px;
      }

      .cls-22, .cls-19 {
        fill: #58331b;
      }

      .cls-11 {
        fill: #a66e53;
      }

      .cls-12 {
        fill: #020303;
      }

      .cls-13 {
        fill: #12100e;
      }

      .cls-14 {
        fill: #826ba9;
      }

      .cls-15 {
        fill: #b8e0ee;
      }

      .cls-16 {
        fill: #fff;
      }

      .cls-17 {
        fill: #231f20;
      }

      .cls-18 {
        fill: #4f2e25;
      }
    </style>
    <clipPath id="clippath">
      <path class="cls-2" d="M684.34,382.95c-7.37-16.35-9.01-34.51-12.63-51.89-1.58-7.58-3.75-14.72-6.9-21.79-2.61-5.85-5.55-11.56-8.81-17.08,0,0-18.24-30.55-37.64-35.57-9.48,1.01-22.18.61-47.95,11.69-23.77,10.22-31.04,43.88-87.44,122.87-21.34,29.9-18.42,66.71-42.97,83.41-16.33,11.11-29.4,21.08-34.79,25.28l-.09-.04s-.27.24-.74.69c-1.2.94-1.85,1.45-1.85,1.45.07.05.14.11.2.16-7.6,7.66-31.12,34.08-36.26,72.38-2.45,18.26-1.88,31.28-.31,40.33,2.47,14.25-5.19,28.36-18.63,33.71-8.09,3.22-17.85,5.8-28.92,6.32,0,0,64.19,159.78,113.19,200.04,0,0,31.57-14.09,73.9-41.15,26.59-17,66.15-95.75,91.89-151.98,5.31,1.99,10.72,3.69,16.28,5.04,0,0,51.94-137.09,78.07-198.53,7.43-17.88,13.38-36.3,17.83-55.08-10.98-7.56-19.98-18.19-25.42-30.26Z"/>
    </clipPath>
  </defs>
  <g id="Layer_3" data-name="Layer 3">
    <polyline class="cls-15" points="1362.43 1009.84 1362.43 -12.96 -31.91 -18.33 -39.92 1021.93"/>
    <path class="cls-11" d="M709.54,340.57l40.25,113.32,141,55.88-11.41,45.99s-167.49-30.13-184.86-50.98c-17.38-20.85-45.82-133.04-45.82-133.04l60.85-31.18Z"/>
    <path class="cls-11" d="M861.55,720.87s14.95-6.69,18.48-17.88c3.53-11.19,1.5-28.29,7.58-39.58,6.09-11.29,19.81-29.58,15.98-36.94-3.83-7.36-16.2-15.78-35.78-21.95-19.58-6.17-47.84-19.97-48.52-33.83-.68-13.87,15.2-17.32,21.08-30.29,5.88-12.96-10.59-24.1-10.59-24.1,0,0-3.93-5.77,2.78-13.83,3.05-3.65,6.49,13.54,6.49,13.54,0,0,40.31-.1,40.06-2.42-.19-1.76-32.48-26.06-32.42-28.1.06-2.53,4.75-1.13,5.77-2.49,2.92-3.91,13.76-16.85,13.76-16.85,0,0-16.42-16.29-14.21-25.8,2.21-9.52,2.93-13.22,20.24-18.65,17.31-5.43,38.73-12.49,46.58-25.29,7.85-12.79,4.49-17.45,9.3-29.51,4.81-12.07,38.45-45.81,66.63-55.45,28.18-9.64,78.98-26.33,167.67,29.03,88.69,55.36,66.95,156.95,50.12,189.12-16.83,32.17-91.5,87.78-105.72,98.37-14.22,10.59-27.47,22.75-34.99,41.31-7.52,18.56-13.49,66.09-13.49,66.09,0,0-140.24,36.59-196.8-14.49Z"/>
    <path class="cls-17" d="M892.07,450.42c1.69,2.7,2.8,6.08,2.88,9.26.07,2.67-.75,5.31-2.59,7.29-2.79,3-6.98,4.46-10.98,3.58-2.81-.62-5.64-2.01-7.89-3.82-.3-.24-1.57.32-1.37.49,2.09,1.69,4.67,2.98,7.26,3.69,4.08,1.13,8.18.26,11.73-1.97,2.66-1.67,4.61-4.18,5.13-7.32.41-2.49-.01-5.05-.82-7.41-.49-1.44-1.1-2.88-1.91-4.17-.22-.35-1.56.21-1.45.39h0Z"/>
    <path class="cls-9" d="M942.55,366.49s-8.76,5.3-7.93,12.93c.83,7.63,12.63,3.48,21.27,9.13,8.64,5.65,21.16,22.95,28.88,26.61,7.72,3.67,10.4,1.04,10.4,1.04,0,0-11.31-25.09-19.19-33.13s-33.43-16.59-33.43-16.59Z"/>
    <path class="cls-9" d="M936.03,391.52s-3.61,4.56,1.56,10.71c5.17,6.15,17,19.1,28.5,26.42-21.97-21.6-23.38-23.28-26.72-30.2l-3.34-6.92Z"/>
    <path class="cls-9" d="M936.02,399.96s-2.92,3.03-4.56,7.44c-1.64,4.41-4.22,9.49.7,12.51s13.48-11.95,12.59-13.03c-.89-1.08-8.73-6.93-8.73-6.93Z"/>
    <path class="cls-12" d="M1209.55,550.43c5.47-.05,10.88-3.79,8.45-9.79-.67-1.65-.05-3.33,1.74-3.87,2.02-.61,4.62-1.37,6.47-2.78.7-1.23,1.38-2.47,2.05-3.72-.11-2.3-2.08-4.73-3.37-6.3-1.14-1.39-.83-4.17,1.33-4.43,4.99-.61,10.35-7.55,6.34-12.07-1.16-1.31-.85-3.33.69-4.19,1.67-.93,5.74-3.07,5.47-5.1-.22-1.64-3.44-3.6-4.99-4.57-1.99-1.24-1.47-4.31.78-4.89,3.69-.95,11.17-5.82,7.76-10.39-1.13-1.51-.83-3.11.69-4.19,1.27-.9,2.38-1.98,3.14-3.15.14-1.85.25-3.71.31-5.57-.39-.6-.92-1.2-1.65-1.76-1.05-.81-1.82-2.45-.88-3.68.97-1.28,2.1-2.84,2.47-4.49-.03-.74-.06-1.47-.1-2.21-.56-1.29-2.05-1.91-3.45-2.36-2.04-.64-2.48-3.04-1.09-4.53,1.2-1.28,2.48-2.69,3.33-4.28-.27-1.77-.57-3.55-.92-5.33-1.84-2.01-4.59-3.71-6.56-5.28-1.45-1.15-1.68-2.82-.43-4.24,1.43-1.63,2.28-3.55,3.04-5.53-.14-.42-.28-.84-.43-1.26-.57-.52-1.21-.96-2-1.21-.35-.11-.64-.27-.88-.46-1.52.13-3.41-.82-3.19-2.66.38-3.2.73-6.72-.27-9.85-1.03-3.25-3.68-4.09-6.89-3.7-2.11.26-4.35-1.89-2.91-4,3.97-5.82-1.63-12.2-8.05-10.06-2.3.77-3.99-2.15-2.91-4,4.01-6.84-4.11-10.58-9.92-10.71-1.94-.04-3.4-2.38-2.23-4.08,3.58-5.17-6.12-8.17-9.82-8.21-1.74-.01-2.99-1.78-2.52-3.42,1.84-6.39-4.54-11.71-10.63-10.03-1.85.51-3.9-1.46-3.2-3.35,2.25-6.01-5.29-7.84-9.71-6.2-1.78.66-3.98-1.58-3.2-3.35.58-1.31.82-2.55.82-3.72-2.29-1.44-5.66-2.32-7.88-.41-2.67,2.29-5.88-1.35-3.66-3.91,1.18-1.36-.04-3.29-1.27-4.38-.73-.65-1.58-1.16-2.51-1.31-.43-.07-.84.02-1,.24-1.47,1.93-5.18,1.44-4.96-1.46.58-7.68-13.15-4.12-17.03-2.46-3.15,1.35-5.7-3.36-2.53-4.72,2.66-1.14,6.61-2.2,10.58-2.55-42.23-23.25-62.56-17.21-75.22-16.02-4.2.39-7.42,2.39-12.31,4.65,19.55,14.31,43.65,29.39,53.78,53.14,6.42,15.04,6.43,27.75,2.18,43.66-3.62,13.57-12.09,19.69-19.36,31.57-1.13,1.85-7.45,9.42-8.82,10.74,3.66,8.7-1.7,12.79-5.44,18.88l-23.46,38.25,8.83,5.41s30.1-31.48,49.94-22.01c19.84,9.47,22.21,29.82,14.99,41.59s-30.25,33.32-73.73,50.37c0,0-5.36,50.81,41.72,79.68l35.96-25.05s44.17-20.63,78.64-56.32c-1.95-1.23-1.4-5,1.49-4.96,5.59.07,6.68-5.89,5.7-10.33-.38-1.72.92-3.28,2.66-3.3Z"/>
    <path class="cls-9" d="M860.85,523.73l-26.36-5.09s-10.21,18.45,1.31,24.5c7.2,3.78,13.1-15.35,25.05-19.41Z"/>
    <path class="cls-9" d="M857.4,573.45c-1.67-2.21-5.78-2.96-6.36-5.36-.64-2.64,4.04-2.92,4.26-5.42.14-1.57-1.54-3.2-2.26-4.84-.86-1.96-.31-3.91-1.01-5.88-.73-2.03-2.86-3.91-5.13-4.52-.89-.24-1.78-.28-2.59-.14-.39-.61-.79-1.22-1.06-1.83-.86-1.96-.31-3.91-1.01-5.88-.73-2.03-2.86-3.91-5.13-4.52-.6-.16-1.19-.23-1.76-.22-.47,1.66-1.16,3.25-2.12,4.69-3.22,4.81-7.28,8.86-11.31,12.98-.71.73-1.39,1.47-2.08,2.21,0,.07.01.15.01.22.23-.16.18-.09,0,.08.02.99-.06,1.96-.18,2.92,1.04,1.1,2.31,2.06,3.57,2.97,6.93,5.06,14.01,9.92,21.23,14.57l2.93.83c2.51,1.1,5.21,2.24,7.61,1.97s4.01-2.7,2.41-4.81Z"/>
    <path class="cls-3" d="M832.3,524.7s35.68,12.52,62.55-8.86c0,0-40.37,6.34-53.84-5.56,0,0-4.94-2.03-8.72,3.05s0,11.36,0,11.36Z"/>
    <path class="cls-9" d="M908.32,512.26c1.03,3.54,2.47,12.84.73,16.09-.63,1.18-1.58,2.15-2.52,3.1-1.45,1.48-2.9,2.95-4.35,4.43-.29.29-.6.6-.99.71-.43.12-.89-.02-1.32-.16-1.36-.45-2.78-.92-3.82-1.91-1.04-.99-1.6-2.65-.89-3.9.29-.51.77-.94.86-1.53.17-1.13-1.15-1.82-1.94-2.66-1.97-2.11,3.48-9.54,3.84-12.4.49-3.87-5.3-3.63-7.75-6.68-1.24-1.54-2.66-2.96-3.56-4.72-.9-1.76-1.16-4.01-.04-5.64"/>
    <g>
      <path class="cls-9" d="M906.99,512.66c2.74-7.86-7.23-13.21-9.27-14.94-.95-.81-1.77-.22-2.04-1.44-.15-.67,1.93,2.11,2.04,1.44.38-2.21-3.51-7.28-5.39-8.51-1.78-1.17-3.53.38-5.09-1.08-2.04-1.91-1.1-5.77-3.7-6.79-1.02-.4-2.53.06-3.56-.31-1.68-.6-2.55-.97-2.65-2.74-.1-1.78-.67-2.95-1.86-4.28-1.07-1.21-2.19-2.28-3.7-2.86-1.51-.58-1.86,3.11-4.51.84"/>
      <path class="cls-9" d="M909.16,512.46c1.41-4.29-.71-8.31-3.8-11.24-1.33-1.26-2.78-2.37-4.27-3.43-.49-.35-.99-.7-1.47-1.06-.38-.29-.73-.53-1.19-.7-.19-.07-.51-.21-.72-.22.24.01.15.2.11-.17l-.11.75.02-.03-2.82,1.27c-.87-.15-1.1-.52-.51.07.19.2.38.4.58.59.71.67,1.41,1.08,2.42.99,2.41-.22,2.87-2.11,2.12-4.02-.7-1.79-1.85-3.45-3.1-4.91-1.18-1.38-2.51-2.73-4.39-2.99-.82-.11-2.1.29-2.81-.13-.78-.46-1.05-1.73-1.26-2.52-.44-1.67-.84-3.5-2.49-4.4-1.11-.6-2.28-.55-3.49-.55-.66,0-1.64-.18-2.11-.71-.59-.65-.39-1.83-.59-2.63-.27-1.1-.86-2.12-1.58-2.99-1.56-1.89-4.06-4.31-6.75-3.64-.92.23-1.63.74-2.3,1.4-.08.08-.16.17-.24.26-.26.28-.13.19-.14.15,0,0,1.24-.72,1.22-.29,0-.07-.45-.37-.56-.46-1.35-1.07-5.2.87-3.36,2.34,1.4,1.12,3.16,1.31,4.79.53.62-.29,1.12-.73,1.6-1.21.08-.08.38-.47.29-.32-.13.24.03-.11.06-.04-1.83,0-2.38.15-1.66.45.11.05.22.11.33.17,1.55.87,3.27,2.58,3.85,4.3.53,1.56.16,3.2,1.64,4.31.6.45,1.36.74,2.07.98,1.05.35,2.01.21,3.09.29,1.45.1,1.66,1.76,1.96,2.94.39,1.5.92,3.11,2.28,4,.84.55,1.83.7,2.81.69.75,0,1.46-.21,2.11.24,1.24.86,2.25,2.3,3.09,3.53.46.68.91,1.38,1.23,2.14.13.31.26.63.34.95.25.99-.24.45.78-.14l2.17-.58c.59.06.79.42.39-.07-.19-.23-.43-.45-.64-.65-.54-.52-.93-.8-1.69-.93-1.05-.18-2.23.43-2.82,1.27-.71,1.01.59,2.17,1.42,2.47.65.23,1.09.53,1.64.94,1.31.96,2.67,1.86,3.9,2.92,3.14,2.69,5.6,6.28,4.2,10.53-.33,1.01,1.31,1.3,1.94,1.24,1.03-.09,2.06-.63,2.4-1.64h0Z"/>
    </g>
    <path class="cls-9" d="M879.97,590.44c-2.08-1.86-3.85-4.04-5.13-6.26-1.61-2.8-1.92-5.98-3.21-8.85-1.66-3.71-4.93-5.6-8.29-7.68-.51-.32-.97-.67-1.39-1.02-.22-.1-.45-.21-.67-.32-2.36-1.25-4.49-3.11-6.66-4.81-9.53-7.51-14.55-9.01-24.84-10.82-2.29-.4-4.77-.57-5.93.81-2.3,2.76-3.76,4.93-3.8,9.06-.05,5.4-7.85,6.58-6.51,12.36.99,4.31,6.43,7.9,8.88,12.2,1.21,2.12,1.63,4.3,2.57,6.45.95,2.15,2.79,4.54,5.02,5.24,2.61.82,4.41-1.05,7.01-.36,2.93.78,5.32,4.34,8.27,5.56,4.72,1.95,6.58-3.11,10.58-3.88,3.21-.62,7.48,1.64,10.96,1.57,4.07-.08,6.21-3.27,7.61-6.52.58-1.35,1.22-2.84,2.8-3.1.82-.13,1.76.09,2.72.37Z"/>
    <path class="cls-9" d="M1004.41,564.68s-14.31,21.43-20.98,26.63c-6.68,5.2-89.29,12.04-110.16,9.12s-43.43-14.44-46.91-22.96c-3.48-8.53,1.6-15.87,1.6-15.87,0,0,1.6,9.7,31.47,21.62,29.86,11.93,105.02,3.99,114.88,3.07,9.86-.92,17.87-21.57,30.11-21.62Z"/>
    <path class="cls-9" d="M849.82,594.72c2.16,4.57,7.65,7.29,12.6,6.23,1.35-.29,2.75-.83,4.07-.42,2.68.82,3.07,4.72,5.49,6.13,3.92,2.29,8.41-3.71,12.84-2.71,1.46.33,2.63,1.38,3.88,2.21,4.45,2.95,10.63,3.02,15.15.18,1.55-.97,3.04-2.3,4.86-2.39,2.77-.14,4.87,2.57,7.57,3.2,5.18,1.2,9.53-5.46,14.8-4.79,2.73.35,4.91,2.63,7.64,3,4.39.59,7.81-3.84,12.1-4.96,5.83-1.53,12.57,3.2,17.72.07,2.81-1.7,4.13-5.31,7.09-6.75,1.83-.89,3.98-.79,5.94-1.36s3.91-2.38,3.38-4.35c-.22-.81-.83-1.46-1.51-1.95-6.2-4.43-14.79,3.47-22.13,1.42-2.23-.62-4.12-2.13-6.33-2.8-5.97-1.82-12.05,2.76-18.29,2.72-4.56-.03-8.98-2.53-13.48-1.8-3.97.65-7.47,3.77-11.47,3.37-3-.31-5.51-2.57-8.5-2.94-4.85-.6-9.22-1.38-14.08-1.89-2.09-.22-15.63-7.86-17.5-8.82-12.09-6.22-15.63,5.83-27.48,12.49"/>
    <path class="cls-9" d="M1152.6,425.43c.8-5.38-2.71-10.31-5.18-15.16-5.92-11.58-6.25-25.86-.87-37.7,3.3-7.27,8.77-14.77,6.47-22.42-.68-2.25-2-4.26-2.72-6.5-.77-2.4-.81-4.96-1.12-7.45-1.18-9.57-6.02-17.73-12.51-24.91-1.05,1.75-4.3,1.91-4.96-.67-1.19-4.66-4.56-9.49-9.74-6.61-1.81,1-3.92-.45-3.94-2.42-.04-2.7-1.55-5.49-3.67-7.14-2.33-1.81-4.2-1.12-5.63,1.32-1.2,2.04-4.32,1.42-4.89-.78-.81-3.15-2.68-6.67-6.24-7.23-3.58-.56-6.47,2.24-8.23,5.01-1.2,1.88-4.44,1.57-4.89-.78-.44-2.3-1.92-4.14-4.35-4.47-2.64-.35-4.5,1.31-5.52,3.59-.68,1.51-2.48,1.46-3.7.79-.65.23-1.4.2-2.17-.28-1.49-.94-2.86-2.06-4.32-3.04-.9-.6-2.65-2.01-3.84-1.51-.83.35-1.58,1.82-2.27,2.53-1.05,1.09-2.41,1.81-3.9,2.1-2.73.52-5.43-.34-8.04-1.02-1.67-.44-3.51-.88-5.17-.41.28,1.04.54,2.09,1.07,3.03.98,1.74-.43,4.02-2.42,3.94-3.52-.14-6.2,2.25-7.83,5.18-.12.22-.26.4-.41.56.42,1.61,1.22,3.12,2.4,4.3,2.93,2.93,7.91,3.59,11.45,1.44-2.23,2.49.06,6.65,3.11,8.03,3.05,1.38,6.59,1.21,9.72,2.38,2.45.92,4.52,2.61,6.54,4.27,3.59,2.95,7.19,5.9,10.78,8.85.95.78,1.94,1.61,2.38,2.76,1,2.61-1.21,5.66-.19,8.26,2.06,5.22,12.8,1.21,14.28,6.62.9,3.3-3.26,6.21-2.83,9.61.58,4.61,8.68,5.49,8.71,10.13.02,2.96-3.54,5.04-3.46,7.99.06,2.33,2.34,4.01,2.94,6.26,1,3.75-2.87,6.94-6.41,8.55-3.54,1.61-7.78,3.38-8.59,7.18-.81,3.79,2.39,7.41,2.15,11.27-.36,5.78-7.57,8.29-10.66,13.19-2.19,3.46-2.12,7.83-1.97,11.92.21,6.11.49,12.48,3.46,17.82,2.97,5.34,9.51,9.23,15.25,7.12,6.34-2.34,9.42-10.82,16.12-11.7,3.45-.46,6.75,1.34,10.16,2.08,11.67,2.55,22.13-7.16,30-16.15,2.5-2.86,5.1-5.96,5.66-9.72Z"/>
    <path class="cls-17" d="M1022.82,549.28c.67,8.6,6.28,17.02,14.28,20.35,4.36,1.81,9.17,2.19,13.84,1.83.82-.06,1.11-1.14.13-1.07-7.36.56-14.94-1.05-20.16-6.6-3.15-3.35-5.18-7.65-6.17-12.12-.2-.91-.39-1.84-.46-2.78-.05-.66-1.5-.32-1.45.39h0Z"/>
    <path class="cls-18" d="M1083.2,535.84c7.1-3.48,13.21-8.82,17.54-15.45,2.24-3.43,4.31-7.38,4.6-11.54s-1.55-7.46-4.61-9.99c-1.45-1.2-3.05-2.18-4.7-3.09s-3.38-1.93-5.25-2.29c-3.64-.69-7.67,1.49-10.7,3.28-6.15,3.62-11.58,9.51-13,16.68-.42,2.14-.37,4.25-.15,6.41.23,2.28.53,5.48-1.61,7.06-2.33,1.72-5.09-1.18-6.3-2.95s-2.26-3.75-4.05-5.12c-.3-.23-.94-.03-1.16.22-3.12,3.46-6.25,6.91-9.37,10.37-2.11,2.33-6.16,5.4-3.52,8.75,1.98,2.51,5.6,3.81,8.66,4.25,3.36.48,6.82-.06,9.87-1.55.9-.44.09-1.05-.6-.71-2.89,1.41-6.15,1.85-9.32,1.24-2.71-.52-6.44-1.93-7.75-4.57-.93-1.89.46-3.34,1.66-4.67,1.28-1.42,2.57-2.84,3.85-4.26,2.57-2.84,5.13-5.68,7.7-8.52l-1.16.22c3.02,2.3,3.84,6.6,7.48,8.24,2.93,1.32,5.94-.27,6.9-3.25.61-1.88.28-3.89.1-5.81s-.12-3.9.3-5.83c.78-3.6,2.66-6.9,5.08-9.66s5.48-5.1,8.78-6.8c1.85-.95,3.97-2,6.07-2.18,2.23-.19,4.3,1.11,6.19,2.13,3.29,1.79,6.77,4.03,8.34,7.59,1.84,4.17.38,8.86-1.6,12.69-4.11,7.95-10.83,14.46-18.86,18.4-.89.44-.09,1.05.6.71h0Z"/>
    <path class="cls-18" d="M1081.68,526.88c2-3.78,1.69-8.36-.14-12.15s-5.01-6.8-8.4-9.25c-.34-.24-1.6.33-1.36.51,3.35,2.43,6.49,5.35,8.32,9.13s2.14,8.26.15,12.01c-.12.23,1.23.14,1.43-.24h0Z"/>
    <polygon class="cls-12" points="1051.77 498.65 932.6 396.44 934.38 384.71 1057.56 494.99 1051.77 498.65"/>
    <path class="cls-12" d="M920.46,374.67s-40.3,65.6-27.76,67.39c12.54,1.79,43.55-47.39,43.55-47.39,2.47-25.19-15.79-20-15.79-20ZM922.45,381.92s9.17,2.32,6.99,11.87c0,0-18.27,35.26-32.5,39.6,0,0,5.84-22.96,25.5-51.47Z"/>
    <path class="cls-16" d="M854.06,486.52l-6.71,7.65s13.98,13.5,23.36,15.81,18.87,4.72,18.87,4.72l-35.51-28.19Z"/>
    <path class="cls-3" d="M859.34,476.29s-2.3-3.9-7.21-2.41c-4.92,1.49-9.14,10.09-5.26,13.78,7.42,7.06,32.97,28.19,50.99,28.19,0,0-25.83-15.43-30.49-24.24-5.03-9.51-8.02-15.31-8.02-15.31Z"/>
    <path class="cls-9" d="M863.73,471.85l-2.38,3.99c-.51,1.34-.23,2.8.71,3.66,2.82,2.57,8.44,12.1,14.59,19.08,6.92,7.85,18.56,8.94,23.25,11.93,0,0-2.22,9.05-2.04,9.12l-1.67.58c2.74,1.03,12.62-9.91,10.95-12.47-5.09-7.8-16.05-13.9-19.29-17.51-4.04-4.51-10.49-16.28-16.36-20.05-1.55-.99-7.01-.29-7.75,1.68Z"/>
  </g>
  <g id="Layer_1" data-name="Layer 1">
    <path class="cls-14" d="M664.57,309.59s53.54-10.7,69.35,25.47c15.81,36.17,20.22,98.44,20.22,98.44l-31.41,9.28c-18.3,5.41-37.38,7.68-56.44,6.73l-26.78-1.34s-32.15-121.91,25.06-138.58Z"/>
    <path class="cls-9" d="M630.92,158.15c-8.84.27-17.07,3.83-22.81,10.63-2.02,2.39-3.54,5.28-4.41,8.29-.95,3.29-.5,6.44-.34,9.8v-1.07c0,.68-.06,1.33-.27,1.98.19-.41.21-.49.05-.25-.25.35-.1.18.44-.5l.86-.63c1.18-.57,1.52-.74,1-.51-.8.34,2.03-.58.91-.33.23-.05,2.13-.31.89-.2-.6.05-1.19.11-1.79.15-4.23.3-8.6,1.43-11.88,4.25-2.21,1.9-3.62,4.58-4.02,7.47s.15,6.01.19,9.01v-1.07c-.01.86-.05,1.71-.2,2.56-.08.42-.19.82-.3,1.23-.31,1.16.39-.54-.12.34-.18.3-.35.6-.55.88-.1.14-.2.28-.31.41-.26.32-.14.18.36-.42-.25.15-.53.52-.75.71l-.27.22c-.52.41-.36.29.47-.35-.65.21-1.17.9-1.84,1.12l.98-.51c-.22.11-.44.22-.66.32-.28.13-.55.26-.83.39-1.32.59-2.67,1.11-3.99,1.72-3.72,1.71-7.18,3.86-9.82,7.03-1.03,1.23-1.83,2.7-2.25,4.26-.47,1.72-.15,3.52-.05,5.27v-1.07c0,.35-.01.69-.07,1.03l-.03.2c-.18.57-.14.54.12-.11.08.16-.62.91-.74,1.07-.87,1.09-1.69,2.09-2.13,3.47-.83,2.62.83,4.87,3.09,6,3.75,1.88,8.56,1.12,12.25-.44s6.21-4.43,7.21-8.14c.64-2.38.47-4.88.97-7.29.11-.52.3-1.01.42-1.52-.17.72-.18.3,0,.03s.36-.55.54-.82c.45-.71-.95,1-.19.25.4-.39.63-.18-.62.43.16-.08.35-.22.5-.32.99-.67-1.63.71-.56.31,1.71-.64-1.94.56-.15.04.4-.12.81-.22,1.22-.32,1.03-.25,2.07-.46,3.1-.72,3.34-.85,6.57-2.18,9.25-4.39,2.12-1.75,3.58-4.28,3.97-7.01.36-2.56.06-5.19.03-7.76v1.07c.01-1.04.04-2.09.25-3.11.08-.42.3-.86.36-1.28.08-.54-.59.92-.06.18.11-.15.44-.56.49-.73l-.53.62c.35-.31.29-.29-.16.06-.98.54.05.04.21-.1-.91.76-1.32.69-.68.4,1.28-.59-1.92.55-.54.2,1.7-.43,3.37-.93,5.02-1.53,3.14-1.13,6.47-3.23,8.05-6.28,1.14-2.2,1.54-4.47,1.82-6.9.11-.98.22-1.96.39-2.94.09-.53.21-1.05.35-1.57.06-.2.12-.4.19-.6.07-.2.14-.39.22-.59-.26.57-.32.7-.16.39.07-.08.7-1.22.76-1.18l-.4.48c.19-.19.38-.36.58-.53.02.08-1.34.88-.36.27,1.13-.7,2.31-1.34,3.44-2.05,4.74-2.97,8.51-7.25,11.06-12.21,2.69-5.22,4.35-10.85,5.82-16.51.31-1.19-.54-2.19-1.51-2.71-1.33-.71-3.36-.77-4.79-.57-2.84.4-7.36,1.78-8.21,5.02-.67,2.58-1.37,5.15-2.2,7.69-.41,1.24-.84,2.48-1.32,3.69-.23.57-.47,1.14-.71,1.71.06-.15.41-.86.03-.09-.19.38-.37.77-.56,1.15-.57,1.13-1.2,2.23-1.9,3.29-.33.5-.67.99-1.03,1.46-.14.19-.29.38-.44.56-.15.19-.3.37-.45.55.54-.62.62-.7.22-.27-.81.83-1.87,1.55-2.61,2.42.8-.93.91-.65.44-.34-.3.2-.6.41-.91.6-.68.43-1.39.81-2.08,1.21-3.2,1.86-5.85,4.21-7.24,7.69-.85,2.13-.99,4.42-1.27,6.67-.13,1.05-.28,2.11-.57,3.14-.08.29-.19.58-.28.87-.22.68,0-.32.13-.27,0,0-.42.72-.45.77l-.17.24c-.35.44-.24.32.34-.39l-.22.21c-.48.4-.31.28.49-.37-.56.41-.59-.12.7-.35l-.33.14c-.73.28-.44.18.88-.29-.23.05-.47.14-.69.2-1.8.51-3.6.97-5.34,1.67-3.81,1.53-7.32,4.38-8.29,8.53-.64,2.73-.23,5.66-.19,8.44v-1.07c0,1.32-.05,2.66-.39,3.94-.08.29-.21.58-.28.87-.13.5.13-.44.18-.41,0,0-.21.37-.23.4-.09.12-.18.26-.25.38-.31.53-.37-.08.34-.36-.16.06-1.28,1.07-.24.28,1.28-.98-1.19.56.46-.3,1.2-.62.13-.13-.14.01-.57.3,1.25-.39,1.17-.39-.13,0-.32.1-.44.14-.35.1-.7.2-1.06.29-1.29.33-2.59.57-3.87.91-4.21,1.13-8.86,3.14-11.28,6.99-2.01,3.19-1.67,6.69-2.31,10.23-.08.42-.17.85-.29,1.26-.05.18-.11.35-.16.52-.23.82.28-.37,0,.06-.17.27-.58.74-.66,1.04,0,0,.74-.86.32-.43-.26.23-.17.17.27-.18.29-.25.61-.46.97-.6,1.38-.73,3.05-1.22,4.63-1.14-.16,0,1.58.24.93.12-.21-.04-.86-.24,0,.05s.33.13.17.03c-.58-.36.29.19.31.28-.05-.18-.53-.56-.65-.75l.53.93c-.2-.39-.3-.75-.32-1.19v1.07c.01-.2.04-.39.08-.58.16-.48.11-.4-.14.23-.05-.06.46-.68.54-.79.5-.65,1.07-1.24,1.5-1.94,1.41-2.33.9-4.49.86-7.06v1.07c.02-.33.07-2.13.44-2.29l-.23.49c.1-.2.2-.39.31-.58.17-.29.37-.55.56-.83.64-.91-.81.74-.03.04.3-.27.59-.56.9-.83,1.16-.97-1.07.66-.03.02.31-.19.6-.4.91-.58s.63-.35.94-.54c-1.86,1.11-.84.43-.34.2.75-.35,1.53-.67,2.3-.99,1.86-.79,3.67-1.64,5.46-2.6,3.57-1.92,6.77-4.67,8.32-8.49s.5-7.73.46-11.56v1.07c.02-1.14.12-2.27.4-3.38.07-.27.15-.54.24-.8.03-.11.07-.21.11-.31.13-.32.07-.21-.16.34-.03-.1.26-.48.31-.56.08-.14.17-.27.27-.4.25-.34.11-.18-.43.46.08-.02.41-.36.46-.43-.86.61-1.08.78-.66.52.31-.18.18-.12-.39.2-.32.17-2.63.87-1.51.64-.25.05-2.09.31-.84.17,1.1-.12,2.2-.17,3.3-.29,4.19-.45,9.01-2,11.56-5.59,1.98-2.78,1.02-5.9.95-9.02v1.07c0-2.17.4-4.3,1.18-6.32.09-.23.46-1-.01-.03.1-.21.2-.42.31-.63.24-.47.5-.93.77-1.38s.57-.89.88-1.32c.17-.24.35-.47.53-.7.27-.34.83-.67-.13.12.8-.67,1.51-1.49,2.3-2.18.64-.56-.29.24-.47.34.25-.14.48-.34.72-.5.44-.29.91-.53,1.35-.81-1.98,1.22-.34.21.27-.05.97-.42-.88.27-.91.29.15-.15.64-.2.83-.25.22-.06.45-.11.68-.17.88-.23-1.97.31-.76.15.63-.08,2.65-.17.27-.1,1.98-.06,3.85-.32,5.68-1.12,1.28-.55,3.14-1.6,3.87-2.89.54-.97.87-2.19-.05-3.1-.98-.97-2.6-1.4-3.93-1.36h0Z"/>
    <path class="cls-9" d="M652.04,169.55c-8.49.26-17.63,3.89-23.13,10.55-1.99,2.41-3.61,5.26-4.38,8.29-.4,1.56-.57,3.18-.59,4.78-.02,1.7.38,3.37.29,5.06l.06-.81c-.05.41-.15.76-.24,1.17l-.15.37c.21-.29.24-.34.08-.14-.18.2-.12.16.18-.12.34-.32.72-.57,1.15-.75l1.14-.5c1.4-.42,1.8-.55,1.2-.39-.85.23,2.05-.4.89-.21-1.25.2,1.81-.13.52-.06-.55.03-1.11.07-1.66.12-4.97.43-10.44,1.63-14.1,5.29-4.38,4.37-2.41,10.47-2.71,15.9l.06-.81c-.07.85-.19,1.69-.45,2.5-.12.38-.27.76-.45,1.12-.08.16-.65.94-.16.33-.3.38-.88,1.39-1.37,1.54.4-.12.7-.59.04-.09-.28.21-.58.4-.87.61-.49.34,1.32-.76.11-.09-.32.18-.64.34-.97.51-.27.14-.56.25-.83.4,1.83-1.03.82-.36.31-.15-1.77.76-3.55,1.48-5.28,2.32-2.99,1.45-6.19,3.45-8.23,6.13-.93,1.22-1.77,2.61-2.03,4.15-.29,1.75.11,3.44,0,5.19l.06-.81c-.05.34-.14.63-.24.96-.07.23-.47.8,0,.12-.25.36-.54.69-.82,1.03-.8.97-1.7,2.06-1.91,3.34-.42,2.5,1.42,4.18,3.67,4.88,2.02.63,4.25.57,6.32.28,2.95-.42,5.94-1.42,8.41-3.1s3.87-4.04,4.39-6.84c.45-2.44.27-4.97,1.02-7.36.1-.31.21-.62.35-.91.07-.15.48-.85.12-.32.13-.19.3-.36.44-.54.49-.64-.18.21-.34.25.14-.03.47-.33.59-.44.57-.5-1.45.78-.45.31.02,0-1.8.72-.83.38.62-.22,1.63-.38-.74.21,5.47-1.37,11.51-2.46,15.59-6.69,3.74-3.87,2.3-9.4,2.59-14.21l-.06.81c.08-.95.21-1.9.55-2.79.09-.23.2-.44.29-.66.26-.62,0,0-.1.12.13-.16.39-.39.48-.57.26-.26.13-.16-.38.32.52-.38.36-.29-.48.25.42-.24,1.13-.43-.7.3,1.1-.44-.91.28-.89.26.41-.27,1.27-.35,1.74-.48,2.16-.57,4.27-1.27,6.28-2.25,2.71-1.31,5.13-3.28,6.32-6.11.82-1.97.94-4.16,1.2-6.25s.55-4.07,1.6-5.82c-.71,1.18,1.23-1.47.11-.16.12-.14,1.23-.98,1.28-.93l-.67.41c.23-.14.46-.27.69-.4.23-.13.47-.26.7-.4.96-.55,1.92-1.13,2.84-1.74,4.32-2.87,7.55-7.03,9.9-11.6,2.49-4.85,3.96-10.16,5.33-15.41.73-2.8-4.54-2.33-5.98-2.08-1.88.33-3.83.83-5.51,1.78-1,.56-2.57,1.36-2.88,2.56-1.37,5.25-2.84,10.56-5.33,15.41-.28.54-.57,1.07-.87,1.6-.15.26-.31.52-.46.77-.36.59.53-.74-.13.19-.79,1.12-1.6,2.2-2.54,3.21-.2.22-.41.43-.62.64s-.91,1.11-.06.1c-.37.43-.95.78-1.4,1.12-.24.18-.5.34-.74.52-.69.5,1.39-.79.21-.12-.7.4-1.4.8-2.08,1.21-3.06,1.84-5.91,4.04-7.02,7.58-.7,2.24-.75,4.61-1.11,6.92-.17,1.07-.39,2.15-.81,3.16-.08.19-.29.47-.32.67-.06.43.54-.61,0,.01-.07.08-.59.6-.59.68.57-.48.7-.6.38-.35-.38.28-.17.16.61-.35-1.18.66,1.65-.63.37-.16,2.17-.79,1.39-.42.88-.28-.7.19-1.4.37-2.1.57-2.24.63-4.48,1.38-6.5,2.54-3.13,1.78-5.44,4.32-5.8,7.98-.29,2.87.12,5.75-.09,8.62l.06-.81c-.07.83-.19,1.65-.45,2.44-.13.39-.3.74-.46,1.12-.22.38-.19.36.07-.08-.12.17-.25.33-.38.48-.13.15-.27.29-.42.43.62-.53.72-.64.3-.31-.82.65,1.32-.76.34-.22s1.84-.85.27-.15c1.42-.45,1.75-.56,1.02-.33-.2.06-.4.11-.6.17-4.5,1.19-9.09,2.03-12.95,4.86-1.92,1.41-3.46,3.32-4.1,5.65-.53,1.92-.51,3.92-.75,5.88-.12.98-.3,1.95-.62,2.89-.12.34-.28.66-.41,1-.22.4-.22.42.02.05-.13.19-.28.37-.44.55-.39.39-.32.34.19-.15,1.63-1.05,3.41-1.71,5.34-1.99.76-.13,1.52-.17,2.28-.1-.53-.07-.37-.04.47.11-.18-.05-.35-.11-.51-.18.5.28.57.32.21.09-.26-.23-.5-.42-.72-.7l.46.67c-.35-.53-.48-1.03-.43-1.66l-.06.81c.08-.43.22-.78.41-1.18-.39.8.04.01.19-.18.66-.82,1.34-1.61,1.85-2.55,1.02-1.92.37-4,.45-6.05l-.06.81c.07-.78.23-1.53.54-2.25.13-.3.28-.59.45-.88-.44.76.09-.07.22-.23s.73-1.01.93-1l-.46.4c.18-.15.36-.3.55-.45.28-.22.58-.42.87-.63,1.01-.72-1.14.62-.12.06.42-.23.84-.47,1.27-.69.48-.24,1.66-.68-.37.14.67-.27,1.33-.56,1.99-.84,1.96-.83,3.93-1.66,5.78-2.71,3.43-1.96,7.03-4.58,8.2-8.57,1.09-3.71,0-7.55.21-11.32l-.06.81c.09-1.13.26-2.25.65-3.32.09-.26.21-.51.32-.76.16-.37.32-.57,0-.11.15-.21.38-.4.49-.62.24-.47-.88.6-.17.12-.78.52-1.64.87-2.54,1.15-.7.21-.87.27-.5.16.59-.16.2-.08-1.17.24.29-.02,1.35-.17.08-.04s-.14.02.09,0c1.57-.12,3.16-.2,4.71-.48,4.11-.75,9.8-2.38,11.59-6.64,1.06-2.52-.05-5.63.13-8.27l-.06.81c.18-2.04.69-4.02,1.53-5.89.22-.48.45-.95.71-1.41.12-.22.79-1.23.37-.64.61-.87,1.25-1.7,1.98-2.48.23-.24.9-.69,1-1-.11.35-.74.62-.05.06.18-.15.36-.29.55-.44.41-.32.9-.58,1.29-.91-.17.14-1.18.68-.45.29.21-.11.41-.23.62-.33.26-.13,1.26-.6.12-.08s-.27.13-.02.03c.28-.11,1.16-.4-.13.01-1.35.43-.26.1.05,0,.96-.31-.81.18-.93.18.22,0,.47-.08.69-.12,1.14-.21-1.43.08-.59.04.29-.01.59-.03.88-.04,1.88-.06,3.91-.54,5.66-1.21,1.23-.48,3.14-1.32,3.99-2.44,1.97-2.61-1.72-3.19-3.62-3.13h0Z"/>
    <path class="cls-9" d="M671.83,182.08c-8.36.26-17.9,3.9-23.28,10.54-1.98,2.45-3.58,5.15-4.34,8.23-.39,1.58-.6,3.24-.58,4.86.02,1.71.45,3.4.25,5.11l.09-.7c-.08.41-.2.74-.34,1.13l-.2.35c.25-.31.29-.37.11-.18-.27.27-.12.16.45-.33l.87-.49c1.1-.54,2.24-.93,3.43-1.15.78-.16.91-.19.37-.09.3-.04,1.83-.17.68-.09-.27.02-.55.04-.82.06-.55.04-1.11.07-1.66.13-4.81.49-10.7,1.73-14.14,5.45-4.26,4.6-1.86,10.7-2.52,16.2l.09-.7c-.13.84-.33,1.67-.67,2.46-.14.32-.3.64-.48.94-.04.08-.56.81-.3.47.22-.29-.41.44-.5.52-.2.21-.42.39-.63.59-.77.74.73-.47-.1.07-.3.19-.6.39-.9.58-1.09.69,1.28-.63.1-.06-.33.16-.65.33-.98.49-.61.29-1.23.56-1.84.83-.78.34,1.57-.66.49-.21-.33.14-.66.28-1,.42-1.1.46-2.21.91-3.27,1.45-3.23,1.62-6.38,3.63-8.52,6.59-.72,1-1.26,2.06-1.48,3.29-.3,1.72.08,3.36-.04,5.08l.09-.7c-.12.73-.37,1.33-.78,1.94.3-.44.05-.09-.14.13-.21.25-.42.5-.62.76-.91,1.16-1.74,2.39-1.5,3.96.51,3.33,5.35,3.68,7.87,3.54,4.95-.28,11.35-2.15,13.92-6.81,1.46-2.65,1.29-5.9,1.64-8.82l-.09.7c.13-.92.3-1.84.62-2.71.14-.37.32-.71.48-1.07.25-.37.28-.44.08-.21.13-.16.26-.31.41-.45l.22-.21c.4-.34.29-.26-.31.23.16-.11.33-.22.5-.32-.9.49-1.13.63-.71.42.5-.25-1.86.82-.4.19-2.12.93-1.4.43-.72.24,3.75-1.03,7.53-1.68,11.03-3.52,2.04-1.07,3.86-2.35,5.17-4.27.92-1.33,1.23-2.83,1.41-4.41.33-2.91-.18-5.84.12-8.75l-.09.7c.12-.98.33-1.95.79-2.84.09-.17.21-.33.29-.5-.26.59-.13.19.06-.05.39-.49.29-.28-.13.02.82-.61-.74.35-.98.45-1.26.52.02.05.15-.03-.1.06-1.87.55-.87.29.58-.15,1.17-.31,1.75-.47,2.12-.6,4.27-1.29,6.23-2.32,2.6-1.38,4.98-3.24,5.97-6.12.74-2.15.84-4.48,1.11-6.72l-.09.7c.2-1.59.46-3.2,1.13-4.67.17-.38.38-.73.6-1.09-.45.73.46-.45.6-.6.42-.36.39-.35-.08.05.16-.12.32-.23.49-.34.39-.26.79-.49,1.19-.73,3.48-2.03,6.6-4.36,9.06-7.57,4.67-6.1,6.84-13.44,8.75-20.77.67-2.58-4.61-1.82-5.85-1.59-1.88.35-3.81.85-5.52,1.74-.92.48-2.66,1.23-2.95,2.32-1,3.84-2.06,7.68-3.52,11.38-.72,1.82-1.54,3.61-2.5,5.31-.47.84-.98,1.65-1.53,2.44-.14.2-.27.39-.42.58.22-.29.2-.26-.07.08-.3.36-.6.73-.92,1.09-.63.71-1.31,1.37-2.02,2-.18.16-.36.31-.55.46.54-.42.59-.46.15-.13-.4.27-.79.56-1.2.81-2.05,1.29-4.24,2.33-5.97,4.08-2.89,2.92-3.09,6.76-3.56,10.61l.09-.7c-.16,1.3-.36,2.62-.81,3.86-.2.54-.62,1.07-.78,1.61-.15.22-.1.17.14-.17-.1.12-.2.23-.3.34-.1.11-.21.22-.33.32.54-.4.65-.49.34-.27-.39.25-.19.15.61-.32-.49.23-.42.2.19-.07.62-.25.67-.29.17-.1,1.34-.41,1.62-.51.87-.29-.7.18-1.4.37-2.1.57-2.71.78-5.49,1.74-7.83,3.34-2.84,1.94-4.08,4.45-4.32,7.8-.19,2.71.24,5.42-.06,8.13l.09-.7c-.17,1.22-.53,2.23-1.07,3.32-.18.36.41-.38-.06.1-.1.1-.62.49-.64.63.59-.44.73-.56.42-.34-.12.09-.24.17-.37.24.9-.49,1.14-.62.72-.41-.13.07-.27.13-.41.19,0-.02,1.89-.78.67-.32-.77.29,2.17-.61.71-.24-.56.14-1.13.28-1.69.41-1.19.27-2.37.53-3.53.88-4.03,1.21-8.46,2.87-10.92,6.48-1.8,2.63-1.63,6.02-1.97,9.06l.09-.7c-.13.98-.29,1.95-.62,2.89-.16.45-.34.89-.57,1.31-.11.21-.24.41-.37.6.18-.26.19-.29.02-.09-.12.13-.25.25-.39.37,1.78-1.35,3.81-2.17,6.09-2.45,2.62-.08,3.37-.15,2.25-.21.8.13.95.14.45.03-.39-.13-.35-.11.13.08-.16-.08-.31-.17-.45-.27-.28-.2-.51-.43-.72-.7l.43.57c-.35-.53-.48-1.03-.43-1.66l-.09.7c.08-.44.25-.77.41-1.18.23-.35.22-.36-.04-.02.14-.17.27-.34.41-.51.61-.75,1.29-1.49,1.74-2.34,1.02-1.91.25-4.11.43-6.14l-.09.7c.11-.77.31-1.51.65-2.21.14-.3.32-.57.49-.86.24-.35.25-.37.02-.04.14-.18.29-.35.45-.51.24-.25.48-.5.74-.73.13-.12.26-.23.4-.35.28-.23.18-.15-.31.24.21-.29.74-.52,1.04-.71.41-.26,1.64-.76.04-.06.33-.14.64-.34.96-.49.23-.11,1.71-.76.46-.23s.26-.11.49-.21c.78-.33,1.56-.66,2.34-.99,1.89-.81,3.7-1.72,5.47-2.77,3.15-1.87,6.14-4.67,6.83-8.41s-.37-7.46.1-11.2l-.09.7c.17-1.11.43-2.2.94-3.21.12-.24.26-.47.4-.7.12-.18.12-.18,0,0-.16.21-.12.18.11-.1l.22-.22-.52.38c.39-.26.35-.25-.13.04-.47.28-.96.51-1.48.69-.85.31-1.72.54-2.61.72,1.22-.25-1.4.12-.65.07.55-.04,1.11-.09,1.66-.13,2.11-.16,4.21-.45,6.26-.99,3.36-.89,8.8-2.74,9.54-6.77.48-2.61-.33-5.27-.05-7.91l-.09.7c.26-1.97.82-3.88,1.68-5.67.43-.9.94-1.76,1.5-2.58.04-.05.44-.61.23-.33s.22-.26.26-.31c.34-.41.69-.8,1.06-1.18.33-.34.67-.66,1.02-.98.17-.16.35-.31.53-.46.5-.43-.03-.09-.18.13.24-.36.93-.66,1.3-.9,1.13-.71-1.04.51.16-.1.14-.07.73-.27.79-.38-.05.1-1.62.63-.7.31.21-.07.47-.13.66-.23-.08.05-1.89.57-.9.3s-.91.17-.93.19c.1-.12,1.57-.23.14-.06-1.29.15.53-.01.86-.03,1.84-.06,3.94-.62,5.65-1.25,1.3-.48,3.04-1.21,4.04-2.26,2.29-2.41-2.06-2.62-3.48-2.57h0Z"/>
    <path class="cls-21" d="M618.98,159.82c-1.01,15.54,8.77,36.93,14.83,51.34,6.2,14.74,10.05,19.43,22.91,27.92,25.07,16.54,54.5,27.08,84.92,26.94,31.38-.15,61.49-12.24,85.04-33.71,16.45-15,22.9-35.23,32.64-54.31.71-2.15,4.44-15.45,5.15-17.6.96-40,6.17-47.08-24.64-74.31-18.79-16.95-28.82-40.91-69.56-48.18-8.78-1.57-21.36,1.91-33.22.9-17.86-1.52-39.96,1.19-52.85,9.4-18.84,12.03-33.25,35.03-47.02,56.69-10.44,16.42-16.89,35.12-18.17,54.54,0,.12-.02.25-.02.37Z"/>
    <path class="cls-11" d="M803.11,280.06c8.15-10.41,16.82-29.66,17.67-37.03,3.35-5.08,7.21-11.01,11.83-18.18,1.34-2.08,2.57-4.11,3.77-6.13.52-1.1,1.13-2.14,1.83-3.14,20.64-36.1,20.34-61.84,20.34-61.84-.51-32.69-18.34-62.65-46.84-78.68-33.12-19.55-74.85-17.96-102.54-7.51-13.73,5.16-25.07,15.21-31.84,28.23-5.8,11.11-3.5,28.79-7.75,42.12-11.1-7.59-27.59-13.33-36.38,10.26-12.12,32.53,7.95,48.36,21.45,48.15-.98,17.65-4.98,26.01-9.19,34.47-4.38,8.77-16.27,23.09-19.98,25.61l-25.82,3.75c.22,54.91,47.44,117.51,110.95,72.44l.32-15.34,4.81-8.25c.8.42-.78-.43,13.65,3.17,44.68,8.57,64.1-19.84,73.71-32.11Z"/>
    <path class="cls-18" d="M712.49,314.99l3.64-6.24s-40-18.95-52.54-53.04c0,0,5.76,28.39,22.95,42.66,17.19,14.27,25.96,16.62,25.96,16.62Z"/>
    <path class="cls-9" d="M670.52,154.97c.04-.21,4.8-6.81.59,2.2-2.11,4.52.21-12.77-1.77-17.75-.9-2.28-2.04-4.88-3.62-6.93-1.59-2.05-3.25-4.31-5.37-5.88-2.77-2.55-13.24-2.42-16.83-3.33-.65-.08.94,7.49.3,7.41,5.02-29.81,12.22-52.62,47.61-72.66,10.21-5.76,29.95-7.33,36.07-7.97,36.96-3.59,61.92,8.75,90.28,28.43,32.87,22.8,54.51,52.96,45.01,90.89-2.29,9.14-3.51,12.83-8.62,20.59,0,0,12.48-15.77.78-34.72-11.69-18.95-14.82-20.86-38.68-33.7-27.58-14.97-33.53-23.95-61.17-25.4-25.25-1.28-33.91,4.8-33.91,4.8-3.8,4.09-8.97,6.52-13.39,9.87-4.35,3.3-7.58,7.55-10.43,12.17-5.82,9.46-5.19,5.28-9.58,15.59-2.72,6.39-7.52,19.13-15.77,19.74-3.68.27.92-.75-1.5-3.36Z"/>
    <path class="cls-11" d="M673.09,138.27c1.23,1.48,17.2,2.32,17.6,4.89,51.76-29.14,138.94-11.03,157.04,48.19,2.3-7.76,9.05-21.1,9.3-24.08,3.21-37.94-18.24-65.82-47.65-86.65-29.41-20.83-73.48-33.49-110.96-12.89-36.35,19.97-55.62,46.26-25.34,70.54Z"/>
    <g>
      <path class="cls-9" d="M727.05,114.17l.13-1.51c-3.13,1.83-6.93,2.46-10.48,1.74-2.09-.43-4.76-1.09-5.96.67-.35.52-.49,1.16-.84,1.67-2.25,3.3-7.4-2.55-11.08-1.02-3.11,1.28-2.44,6.62-5.45,8.12-2.67,1.33-6.09-1.49-8.76-.15-3.31,1.66-2.21,7.98-5.78,8.95-2.57.7-5.12-2.33-7.67-1.53-1.2.38-1.98,1.51-2.79,2.55,4.4,5.06,8.57,10.5,13.28,15.77.8-1.22,1.47-2.59,1.91-3.94.39-1.2.83-2.52,1.93-3.15,2.43-1.38,5.15,1.85,7.93,1.64,4.88-.37,3.93-9.38,8.55-11.01,2.77-.98,6.12,1.39,8.62-.15,3.27-2.02,1.86-8.85,5.67-9.34,1.16-.15,2.27.5,3.44.68,2.3.35,4.55-1.24,5.69-3.27,1.14-2.03,1.43-4.41,1.68-6.73Z"/>
      <path class="cls-9" d="M727.17,114.13l.13-1.51c0-.05-.2.02-.22.03-2.03,1.15-4.26,1.83-6.6,1.96-1.84.1-3.54-.29-5.34-.59-1.54-.25-3.52-.39-4.54,1.06-.44.63-.53,1.52-1.13,2.03-.64.55-1.58.65-2.38.47-1.23-.27-2.38-.88-3.54-1.35-1.42-.58-3.03-1.14-4.56-.64-1.82.6-2.49,2.47-3.08,4.12-.35.98-.68,2-1.28,2.87-1.37,1.99-3.7,1.57-5.73,1.09-1.68-.4-3.58-.77-5.04.43s-1.85,3.38-2.43,5.12c-.43,1.3-1.03,2.82-2.43,3.32-1.79.65-3.6-.71-5.21-1.28-2.56-.89-4.03.44-5.56,2.43,0,0,0,.01,0,.02,4.5,5.19,8.71,10.63,13.28,15.77.04.05.21-.02.24-.06.86-1.35,1.49-2.75,2.01-4.27.66-1.9,1.84-3.61,4.21-2.85,1.92.61,3.72,2.11,5.85,1.69,3.14-.63,3.85-4.75,4.92-7.21.38-.88.83-1.77,1.46-2.5,1.24-1.42,3-1.61,4.78-1.33s3.67.9,5.36.07c3.69-1.82,1.84-10.23,7.07-9.37,1.45.24,2.51.85,4.01.47.88-.22,1.69-.66,2.38-1.24,2.57-2.13,3.01-5.63,3.36-8.74,0-.03-.24,0-.25.07-.44,3.89-1.56,10.15-6.81,9.95-1.99-.07-4.03-1.61-5.67.25-1.35,1.53-1.43,3.94-2.1,5.78-.58,1.6-1.49,2.81-3.31,3.11-1.54.26-3.22-.44-4.75-.57-4.54-.4-5.64,3.92-7.05,7.33-.41.99-.87,2.01-1.61,2.8-1.39,1.48-3.28,1.15-4.97.41s-3.53-1.93-5.28-.92c-1.09.63-1.52,1.88-1.9,3.01-.27.81-.59,1.61-.97,2.38-.16.31-.36.94-.64,1.16-.46.36-.71-.18-1.07-.58-2.59-2.96-5.07-6.01-7.57-9.04-1.27-1.54-2.55-3.08-3.85-4.6-.32-.37-.81-.77-.65-1.33.11-.4.7-.9.99-1.2,1.14-1.13,2.76-1.21,4.19-.66,1.77.69,3.76,1.96,5.66.9,1.7-.95,2.1-3.2,2.64-4.89.34-1.08.73-2.24,1.53-3.08,1.57-1.65,3.91-.87,5.81-.44s3.79.48,5.1-1.11c1.4-1.71,1.48-4.11,2.75-5.89,2.09-2.94,5.75-.62,8.27.33,1.15.44,2.59.86,3.7.09.36-.25.63-.6.83-.99.18-.33.28-.7.46-1.03.55-.99,1.87-1.4,2.96-1.4,1.49,0,2.96.55,4.43.69,2.82.28,5.72-.24,8.27-1.49.1-.05.56-.38.65-.37.13.02.02.07.04.32.02.35-.06.73-.09,1.08,0,.03.24,0,.25-.07Z"/>
    </g>
    <g>
      <path class="cls-9" d="M731.17,92.66c.7,2.56-.44,5.51-2.67,6.95-2.23,1.43-5.39,1.24-7.43-.46-.6,3.39-4.35,5.86-7.7,5.07-1.43-.34-2.81-1.18-4.27-.99-3.59.46-4.39,6.4-7.99,6.81-1.36.15-2.7-.59-4.05-.41-2.78.38-3.74,4.16-6.29,5.31-3.12,1.41-7.02-1.71-10.06-.13-2.13,1.11-3.18,4.29-5.59,4.26-1.26-.02-2.44-1.01-3.67-.73-1.49.33-1.96,2.16-2.72,3.48-1.89,3.27-7.28,3.61-9.57.61-1.34,2.15-3.61,3.71-6.11,4.17-.14-2.92-.27-5.93.77-8.66,1.04-2.73,3.56-5.12,6.48-5.04,1.13.03,2.27.42,3.38.17,2.8-.63,3.72-4.83,6.56-5.25,1.91-.28,3.93,1.35,5.65.49.83-.42,1.3-1.3,1.88-2.02,2.08-2.55,6.24-3.05,8.86-1.07.74.56,1.43,1.32,2.36,1.43,2.67.32,2.82-4.21,5.05-5.72,2.19-1.48,5.62.51,7.65-1.18.68-.56,1.02-1.43,1.64-2.06.97-1,2.46-1.27,3.84-1.47,7.09-1.06,14.21-1.88,21.36-2.45"/>
      <path class="cls-9" d="M731.04,92.69c.56,2.35-.2,4.9-2.09,6.46-2.25,1.85-5.55,1.68-7.79-.08-.06-.05-.2,0-.22.08-.69,3.31-4.13,5.73-7.5,4.98-1.99-.44-3.85-1.67-5.81-.46-1.64,1.01-2.5,2.93-3.67,4.38-.74.91-1.63,1.74-2.84,1.9-1.48.19-2.88-.69-4.37-.35-1.87.43-2.91,2.31-4.07,3.65s-2.39,2.06-4.17,1.96c-1.41-.08-2.77-.55-4.16-.79-2.05-.36-3.72-.02-5.19,1.49-.83.86-1.52,1.95-2.54,2.61-1.69,1.09-3.07-.38-4.77-.32-2.32.09-2.63,3.15-3.94,4.51-2.3,2.39-6.57,2.21-8.65-.35-.06-.07-.19-.02-.23.04-1.2,1.84-2.97,3.24-5.09,3.88-.52.16-.67.17-.81-.37-.1-.39-.04-.92-.05-1.32-.03-1.03-.02-2.05.07-3.08.35-4,2.79-8.9,7.52-8.53,1.37.11,2.66.47,3.93-.21.93-.5,1.61-1.36,2.25-2.17,1.05-1.32,2.16-2.84,4.05-2.75,1.45.07,2.83.98,4.3.73,1.23-.21,1.83-1.24,2.55-2.15,1.18-1.49,2.97-2.31,4.86-2.36s3.27.74,4.74,1.86c.74.56,1.6,1,2.54.68,1.84-.65,2.28-3.38,3.34-4.78,2.14-2.82,5.69-.18,8.27-1.86.64-.42,1.02-1.09,1.46-1.69.93-1.27,2.31-1.69,3.81-1.94,2.37-.39,4.77-.69,7.15-1,4.85-.62,9.71-1.12,14.58-1.52.13-.01.19-.18.03-.17-4.22.34-8.44.76-12.64,1.27-2.18.26-4.36.55-6.54.86-1.54.22-3.21.32-4.67.91-1.53.62-1.89,1.99-3.08,2.95-1.5,1.22-3.6.54-5.37.59-2.45.07-3.44,1.7-4.43,3.71-.71,1.45-1.74,3.37-3.68,2.25-1.21-.7-2.06-1.7-3.47-2.08-2.2-.6-4.75-.05-6.43,1.51-.51.47-.88,1.04-1.3,1.58-1.03,1.31-2.43,1.32-3.91.91-1.09-.3-2.23-.66-3.35-.28-2.4.8-3.08,3.79-5.29,4.86-1.77.85-3.83-.23-5.7.3-1.37.39-2.57,1.26-3.48,2.35-2.62,3.11-2.47,7.42-2.28,11.24,0,.08.09.08.14.07,1.66-.35,3.19-1.07,4.47-2.2.34-.3,1.31-1.78,1.69-1.77.1,0,.43.44.54.53.33.28.7.52,1.09.71,2.23,1.1,5.22.74,7.06-.96,1.21-1.12,1.43-3.39,2.83-4.24,1.79-1.08,3.64.98,5.53.16,1.32-.58,2.13-1.94,3.1-2.93,1.88-1.92,4.04-1.61,6.43-1.06,1.46.34,3.03.72,4.51.26,1.31-.4,2.22-1.42,3.06-2.46,1.45-1.81,2.66-3.38,5.25-2.91,1.38.25,2.67.55,3.94-.21,2.41-1.45,3.02-4.9,5.64-6.05,2.14-.94,4.27.89,6.44.88,1.36,0,2.72-.47,3.83-1.24.65-.45,1.22-1.01,1.68-1.65.23-.32.84-2.05,1.1-2.12.14-.04,1.06.62,1.27.71.45.19.92.32,1.4.4.74.13,1.51.14,2.25.02,3.7-.59,5.98-4.35,5.12-7.93-.03-.1-.27-.04-.25.07h0Z"/>
    </g>
    <g>
      <path class="cls-9" d="M730.52,83.79c-1.26,3.94-6.18,6.25-10.02,4.7-.75-.3-1.49-.74-2.31-.73-1.7.02-2.7,1.84-3.98,2.96-2.89,2.52-7.43,1.39-10.76-.5-2.14-1.21-4.93-2.65-6.79-1.05-.73.63-1.12,1.64-1.95,2.14-2.2,1.33-5.5-1.83-7.38-.07-.86.81-.81,2.25-1.63,3.1-1.73,1.8-4.73-.73-7.18-.23-1.14.23-2.01,1.1-2.82,1.94-2.46,2.54-4.93,5.08-7.39,7.61-.61.62-1.36,1.3-2.22,1.16-1.45-.24-1.5-2.3-1.1-3.72,2.21-7.95,6.49-15.31,12.31-21.17,1.45-1.46,3.68-2.91,5.41-1.78.57.38,1.02,1.02,1.7,1.09,1.11.12,1.68-1.24,2.14-2.26,1.9-4.2,8.17-5.56,11.64-2.52.93.82,1.91,1.96,3.13,1.73.81-.16,1.36-.89,2.05-1.35,1.75-1.2,4.16-.53,6.01.51,1.84,1.05,3.57,2.47,5.67,2.78,2.63.38,5.42-1.08,7.9-.13,3.01,1.15,4.55,5.48,7.77,5.29"/>
      <path class="cls-9" d="M730.4,83.81c-1.09,3.14-4.28,5.28-7.61,5.11-2.01-.11-3.94-1.91-5.91-.81-1.02.57-1.68,1.6-2.51,2.38-1.72,1.62-4.09,1.88-6.33,1.41-2.79-.58-4.94-2.39-7.61-3.21-1.87-.57-3.39-.23-4.59,1.32-.81,1.04-1.66,1.75-3.1,1.51-.48-.08-.96-.23-1.43-.37-.88-.26-1.83-.61-2.77-.48-2.19.29-1.72,2.77-3.14,3.88-1.31,1.02-3.48-.13-4.83-.41-.8-.17-1.62-.22-2.41.04-.9.3-1.61.95-2.27,1.6-1.35,1.33-2.65,2.72-3.97,4.08-1.23,1.27-2.44,2.57-3.69,3.81-.88.86-2.45,1.58-3.07.2-.23-.51-.25-1.12-.21-1.66.1-1.43.71-2.93,1.19-4.28.55-1.56,1.18-3.08,1.89-4.57,1.32-2.8,2.92-5.47,4.74-7.96.85-1.17,1.76-2.29,2.71-3.38,1.22-1.39,2.6-3.11,4.35-3.86s2.37-.19,3.6.7c.29.21.56.4.93.44.56.06,1.05-.23,1.41-.64.69-.78.92-1.87,1.52-2.72.89-1.27,2.23-2.18,3.7-2.66,2.9-.96,5.57-.14,7.76,1.83.72.65,1.55,1.33,2.58,1.14.39-.07.73-.27,1.05-.49,1.23-.85,2.43-1.69,4.07-1.41,3.31.55,5.57,3.62,8.95,3.9,1.58.13,3.12-.32,4.68-.46,2.02-.18,3.55.42,4.98,1.77,1.64,1.54,3.1,3.85,5.6,3.81.05,0,.28-.1.16-.09-2.78.04-4.28-2.86-6.22-4.39-2.69-2.12-5.56-.64-8.62-.71-3.58-.08-5.91-3.34-9.34-3.91-.89-.15-1.82-.11-2.65.23-.37.15-.68.36-1,.6-.65.49-1.17,1.25-2.19,1.09-.55-.09-1.01-.45-1.43-.79-1.01-.82-1.82-1.67-3.07-2.14-1.03-.38-2.14-.51-3.24-.44-1.83.13-3.67.83-5.04,2.08-.85.77-1.34,1.7-1.84,2.72s-1.18,2.01-2.53,1.18c-.62-.38-1.01-.91-1.78-1.04-2.21-.37-4.18,1.67-5.53,3.1-4.63,4.91-8.21,10.79-10.46,17.14-.53,1.51-2.37,5.52-.36,6.71.54.32,1.18.2,1.71-.06,1.39-.68,2.51-2.32,3.57-3.4,1.34-1.38,2.69-2.77,4.03-4.15.61-.62,1.19-1.29,1.85-1.86,1.27-1.1,2.79-1.23,4.34-.82s3.54,1.27,4.83-.08c1.35-1.42.61-3.89,3.57-3.51,1.25.16,2.4.81,3.67.88.51.03,1.03-.03,1.5-.25.43-.2.75-.52,1.05-.88.24-.28.43-.6.66-.88.87-1.03,2.29-1.32,3.57-.99,1.85.47,3.4,1.64,5.13,2.39,1.36.59,2.82,1.02,4.3,1.12,1.09.07,2.2-.03,3.23-.42,1.4-.52,2.28-1.55,3.29-2.59.24-.25.48-.5.75-.71,1.04-.83,2.34-.58,3.47-.11.64.26,1.26.48,1.95.58,1.1.16,2.24.05,3.31-.26,2.46-.71,4.52-2.49,5.37-4.93.01-.04-.22-.01-.24.05h0Z"/>
    </g>
    <g>
      <path class="cls-9" d="M727.4,76.62c-5.53-.45-6.88-9.8-12.41-10.12-2.68-.16-5.7,1.96-7.79.28-.96-.77-1.36-2.18-2.48-2.67-2.35-1.02-3.9,2.74-6.3,3.63-2.99,1.11-6.17-2.62-9.19-1.57-.85.29-1.53.94-2.36,1.29-1.55.67-3.31.25-4.99.12-1.68-.13-3.68.24-4.4,1.76-.24-6.81,5.07-13.39,11.78-14.59.72-.13,1.48-.21,2.11-.6.61-.38,1.02-1,1.47-1.55,2.28-2.8,6.13-4.23,9.68-3.59,1.24.22,2.52.67,3.73.29,1.69-.54,2.48-2.45,3.84-3.59,3.19-2.64,8.03-.3,12.1-1.08,1.69-.33,3.23-1.2,4.89-1.64,1.78-.47,3.69-.43,5.45.12,1.4.44,2.86,1.43,2.94,2.9.06,1-.55,1.92-.72,2.91-.42,2.51,1.96,4.53,4.15,5.83,2.19,1.3,4.73,2.88,4.93,5.41.28,3.59-4.24,5.61-5.56,8.96-.58,1.47-.51,3.15-1.22,4.56-.65,1.29-1.87,2.19-3.04,3.03-2.07,1.5-4.15,2.99-6.22,4.49"/>
      <path class="cls-9" d="M727.45,76.52c-3.7-.4-5.49-4.43-7.55-7.01-.87-1.09-1.89-2.16-3.2-2.72-1.63-.69-3.3-.3-4.96.11-1.39.34-3.01.8-4.29-.11-.93-.66-1.28-1.85-2.2-2.52-1.18-.86-2.43-.29-3.42.57-1.89,1.63-3.26,3.58-6.06,2.76-1.77-.52-3.41-1.7-5.31-1.72-1.02-.01-1.81.43-2.66.95-1.94,1.18-3.72.79-5.86.64-1.73-.12-3.67.2-4.58,1.85h.26c-.08-3.76,1.4-7.38,3.95-10.14,1.3-1.4,2.86-2.56,4.59-3.35.84-.39,1.71-.68,2.61-.88.83-.19,1.73-.23,2.5-.63.57-.3.96-.76,1.35-1.25.66-.82,1.35-1.57,2.21-2.18,1.88-1.34,4.23-2.05,6.54-1.91,1.62.1,3.33.93,4.94.4,1.38-.45,2.17-1.76,3.07-2.79,2.94-3.38,7.5-1.54,11.34-1.69,2-.08,3.71-.93,5.57-1.56,2.39-.81,5.55-.93,7.71.6.96.68,1.5,1.62,1.29,2.82-.17.93-.68,1.74-.7,2.7-.02,1.49.9,2.75,1.95,3.71,2.4,2.21,7.78,3.74,7.15,7.89-.29,1.92-1.86,3.34-3.12,4.69-1.16,1.24-2.22,2.51-2.66,4.19-.31,1.17-.36,2.42-.87,3.53-.58,1.27-1.67,2.14-2.77,2.95-2.17,1.59-4.36,3.15-6.54,4.72-.15.11.07.21.18.13,2.13-1.54,4.26-3.06,6.38-4.61,1.54-1.12,2.86-2.29,3.36-4.2.3-1.15.36-2.37.83-3.47.39-.91,1-1.71,1.65-2.45,1.04-1.19,2.27-2.25,3.1-3.61,2.03-3.32-.54-6-3.3-7.72-1.79-1.12-3.91-2.25-4.77-4.31-.5-1.2-.21-2.24.18-3.43.25-.77.41-1.53.08-2.3-.58-1.37-2.16-2.03-3.5-2.35-2.07-.49-4.14-.24-6.12.48-1.2.44-2.37.99-3.63,1.23s-2.44.18-3.66.08c-1.85-.15-3.74-.48-5.59-.2-1.6.24-2.84,1-3.88,2.22-.6.71-1.13,1.51-1.89,2.07-1.43,1.05-3.02.47-4.58.2-3.44-.58-7.11.65-9.47,3.23-.37.4-.68.86-1.05,1.27-.69.76-1.48,1.01-2.45,1.19s-1.86.39-2.76.74c-1.77.68-3.38,1.73-4.76,3.02-3.01,2.84-4.83,6.84-4.74,11,0,.14.21.1.26,0,1.44-2.61,4.89-1.41,7.23-1.43,1.01,0,1.9-.25,2.77-.75,1.35-.78,2.41-1.32,4-.91,1.82.48,3.48,1.71,5.41,1.77,1.52.05,2.63-.81,3.68-1.82.68-.65,1.32-1.43,2.16-1.88,1.72-.92,2.63.58,3.54,1.75,1.03,1.34,2.37,1.6,3.98,1.32,2.14-.37,4.27-1.36,6.38-.34,1.49.72,2.57,2.09,3.53,3.4,1.83,2.49,3.65,5.88,7.06,6.25.13.01.27-.18.09-.2h0Z"/>
    </g>
    <g>
      <path class="cls-9" d="M740.51,83.62c3.31.21,6.4-3.01,6.06-6.3-.11-1.1-.45-2.43.4-3.12.37-.3.87-.37,1.33-.48,2.93-.76,4.78-4.3,3.73-7.14-.22-.6-.55-1.17-.58-1.81-.13-2.63,4.57-3.92,3.84-6.45-.61-2.13-4.15-1.57-5.46-3.36-1.27-1.74.39-4.41-.67-6.28-1.58-2.78-7.54-1.37-7.77-4.56-.12-1.67,1.9-2.75,3.56-2.55,1.66.2,3.11,1.17,4.71,1.66,4.15,1.25,8.5-.93,12.83-1.04,4.51-.12,8.75,1.99,12.76,4.05,1.72.89,3.5,1.81,4.73,3.3,1.9,2.3,2.13,5.84.54,8.36-.31.49-.7,1.02-.59,1.59.06.33.29.61.51.87,1.09,1.3,2.18,2.6,3.27,3.89.41.49.85,1.05.82,1.69-.07,1.48-2.24,1.68-3.6,1.1-1.36-.59-2.98-1.47-4.18-.6-2.24,1.62,1.18,5.66-.57,7.8-1.81,2.21-6.02-.99-8.09.98-1.23,1.17-.7,3.33-1.65,4.74-.98,1.45-3.08,1.53-4.78,1.15-1.7-.38-3.46-1.05-5.14-.58-1.28.36-2.27,1.33-3.39,2.05-3.39,2.18-7.74,1.97-11.76,1.67"/>
      <path class="cls-9" d="M740.45,83.68c2.26.06,4.35-1.17,5.48-3.12.58-1,.84-2.12.75-3.28-.06-.75-.32-1.59-.08-2.34.35-1.11,1.73-1.09,2.64-1.53,1.96-.95,3.26-3.14,3.2-5.31-.04-1.38-1.16-2.68-.8-4.05.31-1.19,1.48-2.01,2.33-2.81,1.12-1.04,2.31-2.7.75-3.98-1.91-1.57-5.27-.85-5.28-4.22,0-1.34.52-2.81-.02-4.11-.36-.87-1.12-1.39-1.96-1.74-1.67-.69-4.78-.52-5.73-2.31-1.04-1.96,1.43-3.41,3.14-3.27,1.81.15,3.39,1.34,5.13,1.77,3.29.81,6.64-.35,9.88-.89,4.27-.7,8.17.37,12.02,2.16,3.15,1.46,7.38,3.04,8.91,6.41.59,1.29.78,2.77.57,4.18-.11.7-.31,1.4-.63,2.04-.28.57-.9,1.22-.95,1.89s.44,1.11.82,1.57c.59.71,1.19,1.42,1.78,2.12s1.5,1.5,1.85,2.37c.74,1.86-1.6,2.28-2.95,1.84-1.51-.49-3.94-2.06-5.15-.11s.9,4.37.36,6.4c-.84,3.16-5.38.55-7.55,1.28-.95.32-1.48,1.08-1.74,2.02-.21.78-.22,1.61-.47,2.38-.49,1.53-1.79,2.18-3.36,2.18-1.89,0-3.64-.94-5.53-.93-1.34,0-2.43.57-3.5,1.33-2.01,1.42-3.96,2.33-6.43,2.61-2.14.24-4.31.1-6.46-.05-.07,0-.29.11-.15.12,3.1.22,6.33.43,9.33-.52,1.33-.42,2.46-1.09,3.58-1.89,1.4-1.01,2.8-1.63,4.58-1.37.95.14,1.86.45,2.79.64,1.91.4,4.45.28,5.29-1.83.71-1.79.14-4.11,2.56-4.69,1.3-.31,2.84.34,4.14.44,1.65.14,3.17-.54,3.25-2.39.05-1.21-.41-2.38-.62-3.55-.1-.55-.19-1.16-.03-1.71.2-.71.47-.72,1.26-.98,1.05-.34,1.56-.17,2.53.24,1.18.5,3.97,1.46,4.62-.4.46-1.35-1.35-2.81-2.09-3.69-.59-.71-1.21-1.4-1.78-2.12-.44-.55-.8-.93-.58-1.68.13-.44.48-.83.69-1.23,1.36-2.47,1.12-5.72-.61-7.95-1.03-1.32-2.48-2.2-3.93-2.97-1.71-.91-3.45-1.79-5.22-2.57-3.2-1.39-6.55-2.27-10.06-1.85-4.1.49-8.16,2.21-12.22.58-2.11-.85-4.71-2.23-6.74-.4-1.6,1.44-.48,3.22,1.19,3.81,2.01.7,5.34.61,6.05,3.11.41,1.46-.28,2.98-.05,4.46.18,1.17.96,1.85,2,2.28s2.58.56,3.44,1.45c.99,1.03.47,2.27-.37,3.19-1.46,1.58-3.63,2.72-2.69,5.19.57,1.51.8,2.9.19,4.46-.27.69-.68,1.34-1.19,1.88-.87.93-1.88,1.21-3.03,1.6-.86.3-1.28.87-1.31,1.8-.02.69.16,1.37.19,2.05.03.9-.2,1.79-.6,2.59-1,1.99-3.07,3.34-5.31,3.28-.08,0-.26.12-.1.12h0Z"/>
    </g>
    <g>
      <path class="cls-9" d="M739.05,91.71c2.32-3.41,7.62-.49,11.72-.98,3.12-.37,5.82-2.95,8.96-2.69,2.25.19,4.55,1.83,6.59.86,1.19-.57,1.83-1.87,2.84-2.71,3.87-3.22,10.73,1.4,14.49-1.95,3.38-3.02,1.19-10.12,5.33-11.97,1.29-.58,2.86-.38,4.06-1.12,2.41-1.5,1.51-5.16.32-7.74-1.66-3.6-3.32-7.19-4.98-10.79,8.09.21,16.09,2.82,22.76,7.4,2.45,1.68,4.81,3.75,5.84,6.54,1.03,2.79.29,6.41-2.31,7.84-.76.42-1.64.64-2.32,1.18-3.02,2.36-.65,8.94-4.33,9.98-.86.24-1.79.02-2.64.29-2.47.77-2.41,4.76-4.74,5.9-2.02.99-4.38-.79-6.61-.5-1.35.17-2.47,1.08-3.71,1.64-1.72.78-3.67.89-5.56.98-5.37.27-10.74.53-16.11.8-3.8.19-7.88.31-11.07-1.76-5.41,4.73-14.64,4.12-19.38-1.29"/>
      <path class="cls-9" d="M739.16,91.71c2.15-2.91,6.57-1.12,9.54-.9,3.23.25,5.54-1.47,8.5-2.38,2.25-.69,4.04.12,6.21.63,1.06.25,2.15.31,3.13-.23,1.3-.72,1.93-2.19,3.18-2.97,1.55-.98,3.45-.89,5.2-.72,2.28.23,4.76.84,7.02.11,2.12-.69,3.18-2.55,3.68-4.61.56-2.31.45-5.15,1.91-7.13,1.68-2.28,5.47-.95,6.77-3.67s-.66-6.09-1.76-8.49c-.9-1.95-1.8-3.9-2.7-5.85-.22-.47-1.33-2.19-1.11-2.64s2.57,0,3.24.08c7.54.87,15.41,3.8,21.22,8.78,2.56,2.2,4.65,5.28,3.97,8.8-.36,1.89-1.46,3.36-3.23,4.16-.99.45-1.92.85-2.52,1.8-1.19,1.88-.91,4.32-1.4,6.41-.13.55-.3,1.12-.63,1.59-.75,1.09-1.92,1.05-3.12,1.17-.86.08-1.57.31-2.19.95-.76.8-1.15,1.88-1.63,2.85-.3.6-.62,1.19-1.1,1.67-1.1,1.12-2.7.89-4.06.54-1.29-.33-2.56-.7-3.88-.33-1.83.51-3.26,1.77-5.17,2.15-2.16.42-4.42.39-6.61.5s-4.39.22-6.59.33c-3.98.2-8.11.71-12.08.28-1.88-.2-3.68-.72-5.29-1.72-.05-.03-.16,0-.2.04-5.5,4.67-14.35,4.02-19.16-1.32-.05-.06-.29.03-.23.09,2.59,2.87,6.32,4.4,10.16,4.49,1.73.04,3.48-.22,5.12-.78.84-.29,1.65-.65,2.41-1.1.34-.2.67-.41.99-.64.8-.58.87-.52,1.77-.09,4.49,2.16,10.17,1.17,14.95.93,3.01-.15,6.02-.3,9.03-.45,2.33-.12,4.81-.04,7.04-.8,1.19-.4,2.19-1.17,3.36-1.63,1.81-.72,3.39.05,5.16.38,1.35.25,2.64.08,3.6-.96,1.15-1.25,1.41-3.09,2.56-4.35,1.37-1.49,3.84-.35,5.2-1.95,2.1-2.48.31-6.66,2.82-8.98.79-.73,1.91-.93,2.79-1.5.73-.47,1.31-1.15,1.72-1.91.89-1.65,1.01-3.73.44-5.5-1.61-5.05-7.51-8.22-11.98-10.31-5.27-2.46-10.99-3.79-16.8-3.98-.03,0-.2.04-.17.1,1.7,3.69,3.49,7.35,5.11,11.08,1.28,2.95,2.11,7.15-2.11,7.94-2.06.39-3.67.87-4.55,2.95s-.84,4.45-1.46,6.61c-.35,1.21-.91,2.39-1.92,3.18-1.48,1.15-3.43,1.13-5.2.97-2.18-.2-4.44-.75-6.63-.32-.89.18-1.73.53-2.43,1.11-1.76,1.46-2.41,3.43-5.3,2.82-1.47-.31-2.84-1.01-4.36-1.03-1.28-.02-2.51.41-3.68.91-1.81.77-3.55,1.76-5.56,1.85-1.74.07-3.45-.33-5.16-.57-2.2-.31-4.61-.41-6.06,1.56-.06.08.18.06.23,0h0Z"/>
    </g>
    <g>
      <path class="cls-9" d="M741.95,101.46c2.5,5.03,8.89,7.74,14.24,6.04,1.79-.57,3.44-1.56,5.28-1.93,5.34-1.08,10.76,3.25,16.04,1.91,2.88-.73,5.13-3.05,7.98-3.9,5.67-1.68,11.95,2.85,17.5.78,1.42-.53,2.7-1.47,4.19-1.7,2.39-.36,4.72,1.17,7.13,1.03,3.18-.19,5.72-3.22,8.91-3.21,1.9,0,3.78,1.11,5.61.6,3.18-.88,3.85-5.91,7.09-6.55,1.27-.25,2.59.28,3.86.05,3.06-.56,3.63-4.86,2.54-7.77-1.39-3.71-4.15-6.71-6.84-9.61-.63-.68-1.26-1.36-1.89-2.04-3.21-3.46-7.33-7.23-11.95-6.27-.91.19-1.91.74-1.98,1.66-.04.48.19.93.42,1.36,1.65,3.12,3.31,6.24,4.96,9.37-2.78-.71-5.01,2.31-6.07,4.97-1.06,2.66-2.39,5.89-5.23,6.28-1.44.2-3.06-.41-4.26.4-.93.62-1.21,1.86-1.94,2.71-2.16,2.54-6.21.47-9.54.37-2.34-.07-4.55.94-6.8,1.6-2.6.76-5.3,1.04-7.99,1.32-2.43.25-4.87.5-7.3.76-6.79.7-13.59,1.41-20.42,1.68-4.8.19-9.6.16-14.4-.09"/>
      <path class="cls-9" d="M741.83,101.5c1.65,3.19,4.7,5.44,8.19,6.25,1.47.34,3,.42,4.49.2,2.04-.31,3.81-1.33,5.75-1.97,4.73-1.58,9.12,1.27,13.77,1.76,1.65.17,3.27,0,4.81-.65,1.97-.83,3.65-2.22,5.62-3.06,4.43-1.9,9.06.35,13.53.85,1.57.18,3.18.14,4.7-.35,1.05-.34,1.97-.93,2.98-1.35,1.73-.72,3.24-.49,4.97-.03,1.63.43,3.22.84,4.89.39,1.81-.49,3.33-1.64,5.04-2.38,1.38-.6,2.72-.72,4.2-.41.94.2,1.87.5,2.83.53,1.22.03,2.28-.45,3.14-1.3,1.09-1.07,1.77-2.48,2.72-3.66.85-1.06,1.84-1.78,3.26-1.8,1.02-.01,2.02.3,3.04.11,2.76-.51,3.44-3.73,3.11-6.11-.56-4.12-3.87-7.67-6.56-10.6-2.9-3.15-5.88-6.94-9.97-8.6-1.48-.6-3.15-.87-4.73-.5-1.01.23-2.25.87-2.08,2.1.15,1.07,1.03,2.19,1.53,3.13.64,1.21,1.28,2.41,1.92,3.62.26.5.53.99.79,1.49.2.37.93,1.3.9,1.7-.03.51.18.12-.23.23-.09.02-.25,0-.35,0-.33.01-.67.08-.99.19-3.25,1.09-4.07,4.96-5.45,7.64-.47.91-1.03,1.83-1.8,2.51-1.36,1.19-2.83.98-4.5.98-1.45,0-2.31.52-3.05,1.77s-1.32,2.28-2.93,2.57c-1.16.21-2.4-.03-3.54-.25-1.86-.35-3.67-.76-5.57-.44-2.22.36-4.3,1.33-6.49,1.84-2.72.62-5.51.84-8.28,1.13-10.79,1.12-21.58,2.39-32.44,2.37-2.65,0-5.3-.08-7.94-.21-.08,0-.26.12-.1.12,13.97.7,27.79-.86,41.66-2.3,3.16-.33,6.31-.66,9.35-1.63,1.78-.57,3.57-1.29,5.46-1.33,1.48-.04,2.93.34,4.37.61,1.63.3,3.55.6,5.03-.37.97-.64,1.24-1.65,1.9-2.54,1.37-1.83,3.24-.88,5.07-1.2,2.07-.37,3.33-2.2,4.19-3.97,1.34-2.75,2.77-8.1,6.88-7.25.03,0,.23-.03.2-.09-1.5-2.84-3-5.68-4.51-8.52-.28-.53-.67-1.1-.8-1.68-.31-1.36,1.02-1.98,2.16-2.17,1.66-.28,3.36.15,4.85.88,2.46,1.21,4.49,3.18,6.35,5.16,1.99,2.11,4.03,4.21,5.81,6.5,1.56,1.99,3.13,4.34,3.57,6.88.38,2.18-.01,5.44-2.54,6.18-1.35.39-2.75-.26-4.1.01-.61.12-1.16.4-1.65.78-1.38,1.08-2.12,2.77-3.22,4.11s-2.46,2.01-4.35,1.68c-1.21-.21-2.39-.65-3.64-.61-1.91.06-3.56,1.13-5.2,1.99s-3.1,1.41-4.9,1.13c-1.4-.21-2.73-.78-4.15-.95-2.28-.28-3.86.97-5.9,1.72-5.13,1.88-10.38-1.6-15.59-1.14-2.14.19-3.94,1.17-5.75,2.26-1.2.72-2.4,1.47-3.75,1.88-1.71.52-3.47.4-5.2.05-2.83-.58-5.53-1.77-8.43-1.99-2.69-.21-4.81.88-7.26,1.8-5.58,2.1-12.15-.45-14.89-5.75-.04-.07-.28,0-.25.07h0Z"/>
    </g>
    <g>
      <path class="cls-9" d="M804.38,111.92c-.66-2.06,1.93-3.81,4.09-3.71,2.16.1,4.23,1.18,6.39,1.05,2.81-.17,5.11-2.31,7.85-2.99,2.9-.72,5.91.26,8.88.5,2.97.24,6.55-.73,7.48-3.57.5-1.52.34-3.63,1.83-4.23,1.51-.61,3.28,1.12,4.75.41,1.64-.8.89-3.49,2.08-4.88.79-.93,2.24-.98,3.4-.61,4.03,1.28,5.7,5.95,6.83,10.02,1.31,4.74,2.62,9.48,3.93,14.22.09.33.18.66.18,1-.03,1.55-2.09,2.34-3.54,1.79-1.45-.54-2.43-1.87-3.48-3.01-1.05-1.14-2.46-2.22-3.99-2-1.54.22-2.6,1.66-4.04,2.26-3.51,1.47-7.02-2.45-10.83-2.64-2.36-.11-4.6,1.24-6.96,1.09-2.4-.15-4.42-1.81-6.74-2.45-3.24-.91-6.65.25-9.97.82-3.32.58-7.31.29-9.22-2.48"/>
      <path class="cls-9" d="M804.5,111.89c-.37-1.52.72-2.69,2.06-3.25,1.73-.72,3.52-.11,5.24.31,2.14.52,3.99.47,6.02-.43,1.06-.47,2.07-1.06,3.13-1.54,1.69-.75,3.4-.98,5.23-.83,2.45.2,4.88.93,7.35.68,1.56-.16,3.19-.64,4.38-1.71,1.53-1.37,1.28-3.19,2.01-4.94,1.17-2.81,3.92.19,5.8-.76,1.6-.81,1.07-3.1,1.8-4.44.96-1.78,3.26-1.31,4.7-.52,1.03.56,1.88,1.39,2.57,2.33,1.34,1.82,2.12,4.02,2.76,6.18.84,2.84,1.58,5.71,2.37,8.56.39,1.42.79,2.84,1.18,4.27.33,1.21,1.32,3.18.47,4.32-1.31,1.76-3.61.64-4.83-.52-.9-.86-1.62-1.89-2.59-2.68-1.36-1.09-2.9-1.45-4.46-.57-.94.54-1.72,1.35-2.73,1.77-1.56.65-3.2.15-4.67-.48-1.85-.8-3.67-1.94-5.72-2.14-3.05-.3-5.75,1.7-8.82.78-2.76-.83-4.89-2.51-7.9-2.5-5.13.02-12.57,3.96-16.44-1.3-.06-.08-.29.01-.23.1,3.04,4.13,8.8,2.57,13,1.77,1.9-.36,3.88-.63,5.79-.2,1.6.36,3,1.22,4.49,1.84,2.43,1.02,4.4.64,6.87.02,1.64-.41,3.2-.52,4.83.02,1.37.45,2.62,1.16,3.94,1.73,1.71.73,3.55,1.2,5.29.32,1.15-.58,2.06-1.7,3.33-2.02,2.16-.54,3.73,1.39,4.99,2.78s2.87,2.85,4.88,2.14c2.33-.82,1.39-2.99.9-4.79-.92-3.32-1.83-6.64-2.75-9.96-1.15-4.18-2.26-9.94-6.6-12.06-1.36-.66-3.38-1.01-4.51.28-1.68,1.93-.06,6.01-4.26,4.67-1.48-.47-2.99-.63-3.69,1.05-.4.96-.39,2.04-.73,3.03-.54,1.58-1.93,2.58-3.47,3.07-3.27,1.05-6.56-.2-9.86-.34-3.04-.13-5.21,1.26-7.89,2.45-2.1.93-4,.83-6.19.29-1.3-.32-2.68-.73-4.03-.49-1.77.33-3.73,1.74-3.24,3.74.02.1.27.03.25-.07h0Z"/>
    </g>
    <g>
      <path class="cls-9" d="M823.61,121.36c3.29-1.48,6.6,2.48,10.2,2.56,2.21.04,4.45-1.41,6.53-.65,2.49.9,3.6,4.61,6.25,4.56,1.78-.04,3.18-1.91,4.96-1.79,1.63.11,2.63,1.79,3.27,3.29,2.18,5.13,3.49,10.63,3.85,16.19.04.62.06,1.28-.23,1.83-.67,1.24-2.63,1.14-3.63.14-.99-.99-1.25-2.49-1.4-3.89-.15-1.4-.27-2.88-1.08-4.02-2.38-3.38-8.53-1.41-11.14-4.62-.8-.98-1.12-2.32-2.06-3.16-2.19-1.95-6.18-.08-8.31-2.1-.78-.74-1.09-1.84-1.63-2.78-.89-1.53-2.48-2.64-4.22-2.94-.82-.14-1.7-.12-2.41-.54-.72-.42-1.11-1.53-.47-2.07"/>
      <path class="cls-9" d="M823.65,121.39c3.33-1.34,6.37,2.2,9.59,2.54,1.81.19,3.48-.63,5.25-.79,2-.17,3.18.97,4.4,2.35,1.53,1.73,3.04,3.01,5.35,1.89.92-.45,1.62-.95,2.66-1.12,1.37-.22,2.17.35,2.93,1.46,1.07,1.57,1.66,3.55,2.26,5.33,1.34,4.02,2.23,8.26,2.46,12.5.03.51.12,1.2-.16,1.65-.15.24-1.81.97-2.14.95-.22-.02-.51-.16-.7-.26-.91-.48-1.41-1.46-1.68-2.41-.47-1.67-.28-3.48-.96-5.1-1.08-2.57-3.98-2.91-6.41-3.29-1.41-.22-2.92-.45-4.14-1.25-1.39-.9-1.72-2.46-2.72-3.67-2.43-2.97-7.36.16-9.42-3.5-.94-1.67-1.54-3.16-3.34-4.11-.84-.44-1.7-.59-2.63-.73-1.05-.15-3.26-1.02-2.05-2.47.05-.06-.18-.03-.22.02-1.22,1.45.93,2.38,2.07,2.54,2.33.34,4.19,1.34,5.28,3.51.77,1.53,1.4,2.8,3.21,3.2,1.68.37,3.46-.03,5.12.47,2.16.65,2.34,2.92,3.81,4.31,1.02.97,2.44,1.34,3.78,1.59,1.6.3,3.27.4,4.79,1,1.83.72,2.75,2.19,3.06,4.09.29,1.8.16,4.06,1.6,5.43.73.69,1.86.97,2.81.63,1.38-.49,1.35-1.88,1.26-3.14-.18-2.47-.56-4.93-1.11-7.34s-1.28-4.79-2.18-7.09c-.59-1.5-1.25-3.45-2.76-4.28-.92-.5-1.89-.35-2.81.06-.32.14-.62.32-.92.49-.86.47-2.1,1.05-3.09.8-.78-.19-1.43-.82-1.97-1.38-1.1-1.15-2.07-2.66-3.68-3.14-2.23-.66-4.45.85-6.68.69-3.45-.24-6.41-3.96-10-2.52-.16.07,0,.09.08.05h0Z"/>
    </g>
    <path class="cls-9" d="M655.62,126.72c-3.78-.11,15.62,14.86,17.47,11.56,1.85-3.3,7.45-6.25,11.14-7.11,3.68-.86-21.12,1.29-10.76-13.81-1.84-3.5-11.54,4.82-14.38,2.07-3.69-3.58,6.15-7,10.31-10.03,4.16-3.03,4.94-4.59,9.26-7.39,1.62-1.05.39-5.72-.64-7.37-.38-.62-1.06-.98-1.64-1.42-2.56-1.92-3.51-5.48-2.89-8.62.61-3.14,11.26-2.75,13.55-4.98,3.91-3.81,4.94-7.85,10.31-8.82,2.15-.39-.23-2.24,1.6-3.44,1.83-1.2,2.92-3.92,1.54-5.62-.82-1.01-2.19-1.33-3.46-1.58-5.78-1.12-11.78-1.89-17.51-.56-5.73,1.33-11.19,5.13-13.07,10.71-.74,2.2-.95,4.68-2.38,6.5-1.79,2.28-5.01,2.92-7.14,4.9-4.3,3.98-2.92,11.96-7.56,15.54-1.45,1.12-3.29,1.61-4.82,2.62-2.72,1.8-4.18,5.32-3.55,8.52.38,1.92,1.44,3.67,1.81,5.59,1.4,7.2-6.77,12.94-7.46,20.24"/>
    <ellipse class="cls-9" cx="818.97" cy="232.45" rx="8.16" ry="8.13" transform="translate(87.37 667.79) rotate(-46.6)"/>
    <path class="cls-9" d="M828.44,229.18c-2.15-4.07-5.99-8.13-13.17-11.44-11.5-5.3-24.33,5.58-24.33,5.58,0,0,11.83-7.15,23.31-2.2,5.53,2.38,12.34,10.33,15.15,14.62.49-1.11.26-4.01-.96-6.57Z"/>
    <path class="cls-18" d="M642.95,155.93c.77-4.05,2.73-9.43,6.74-11.44l-1.02.15c.54.24,1.33,1.32,1.73,2,1.75,3,2.43,6.64,2.9,10.03.52,3.73.69,7.5.73,11.27l1.45-.39c-.56-1.25-1.49-2.65-2.79-3.21-1.71-.73-3.48.36-4.56,1.66-1.23,1.48-1.84,3.44-1.66,5.35.28,2.95,2.39,5.24,4.69,6.9.38.28,1.69-.3,1.35-.54-3.3-2.37-5.9-6.26-3.93-10.34.31-.64.72-1.25,1.23-1.76.73-.73,1.42-.9,2.28-.26s1.51,1.63,1.94,2.6c.2.45,1.45.08,1.45-.39-.04-4.86-.29-9.77-1.29-14.54-.5-2.37-1.17-4.81-2.43-6.91-.42-.69-.97-1.6-1.71-2-.95-.51-2.09.53-2.78,1.11-3.25,2.74-4.98,6.84-5.76,10.92-.09.48,1.36.24,1.44-.21h0Z"/>
    <ellipse class="cls-9" cx="745.14" cy="191.29" rx="8.16" ry="8.13" transform="translate(94.18 601.26) rotate(-46.6)"/>
    <path class="cls-9" d="M759.94,205.05s-2.43-20.43-15.04-26.35c-17.74-8.33-24.73-2.99-31.12.57,0,0,16.28-4.27,29.83,2.51,12.3,6.15,16.32,23.27,16.32,23.27Z"/>
    <path class="cls-3" d="M750.42,263.22c-10.16-5.84-25.77-20.58-25.77-20.58,0,0-19.53,28.44,8.89,44.18,23.76,13.16,37.09-12.6,37.09-12.6,0,0-10.06-5.16-20.21-11Z"/>
    <path class="cls-9" d="M750.52,263.28c-4.83-2.78-22.7-13.3-22.7-13.3,0,0-7.03,15.72,10.43,25.76,18.94,10.88,28.52-1.99,28.52-1.99l-16.25-10.47Z"/>
    <path class="cls-6" d="M749.44,265.62c-4.83-2.78-19.07-12.01-19.07-12.01,0,0,3.49,7.3,17.98,15.63,14.49,8.33,18.43,4.51,18.43,4.51l-17.33-8.12Z"/>
    <path class="cls-3" d="M773.72,275.42c.3-.52.65-.48-1.63-2.06-3.81-2.63-4.29-4.81-7.06-6.69-4.73-3.21-8.95-3.13-11.1-4.37-2.15-1.24-4.21-4.92-9.37-7.4-3.02-1.45-9.23-5.43-13.42-7.4-2.51-1.18-6.06-6.91-6.65-7.08-.81-.24-3.26,11.46,23.81,26.91,22.59,12.89,25,8.79,25.41,8.08Z"/>
    <path class="cls-13" d="M774.89,176c.17-.23-.63-.79-.46-1.02-10.87-11.41-20.54-17.93-24.58-19.53-3.07-1.22-6.43-1.8-9.91-1.9,0,0-9.53-.39-11.41.68-1.88,1.07,4.74,1.89,4.74,1.89,1.31.35,2.31.41,3.55.94,6.77,2.88,13.82,4.73,19.43,9.49,4.82,4.04,9.88,11.77,13.61,17.04,1.85-2.52,3-5.22,5.03-7.58Z"/>
    <path class="cls-13" d="M839.74,217.32c-.61-1.21-3.18-4.73-3.18-4.73-1.46-2.81-3.28-5.27-5.48-7.15-2.9-2.48-12.02-7-25.57-9.96-.12.26-.89-.11-1.01.16-1.1,2.91-2.82,5.26-4.12,8.11,5.74.31,14,.4,19.19,2.25,6.08,2.11,10.38,6.94,15.41,10.99.52.42,2.14,2.52,2.51,2.98.26-1.29,1.57-1.53,2.25-2.66Z"/>
    <g>
      <path class="cls-9" d="M762.63,252.98c-3.11-.01-6.65-2.27-8.29-5.09-.36-.62-2.34-1.26-1.84-.38,2.16,3.72,7.38,6.72,11.38,6.74.4,0,.47-.27.15-.6-.33-.35-.99-.66-1.41-.67"/>
      <path class="cls-9" d="M751.82,246.25c-1.22-1.64-2.83-3.02-4.58-4.13-.26-.16-.66-.24-.95-.17-.23.06-.36.22-.22.44.58.93,1.55,1.7,2.55,2.21.31.16.76.3,1.08.12.29-.16.08-.48-.16-.61-.82-.42-1.57-1.02-2.05-1.79-.39.09-.78.18-1.17.27,1.56.99,3,2.24,4.09,3.7.22.29.68.42,1.02.41.26-.01.61-.17.39-.47"/>
      <path class="cls-9" d="M744.45,242.64c-2.11-1.19-4.12-3.45-4.31-5.62-.29-3.27,3.37-6.57,6.87-6.71.38-.02.34-.32.08-.53-.34-.29-.87-.38-1.27-.37-3.05.12-6.37,2.71-7.24,5.18-.81,2.3.44,4.88,2.67,6.85.66.59,1.41,1.14,2.19,1.58.32.18.95.39,1.25.22.3-.17.06-.44-.24-.61"/>
      <path class="cls-9" d="M767.12,253.97c.02-.31.31-.36.48-.26.57.32,1.24.47,1.95.33.07.33.13.66.2.99-1.22-.49-2.58-.72-3.98-.58-.28.03-.53-.22-.63-.47-.08-.19-.08-.54.2-.57"/>
      <path class="cls-9" d="M765.34,253.42c1.57-.16,3.08.12,4.45.66.2.08.39.31.44.56.04.2-.04.39-.24.43"/>
      <path class="cls-9" d="M771.4,256.61c1.42.68,3.55.62,5.09-.63,2.33-1.88,2.91-5.28,2-7.75-.1-.27.12-.44.34-.4.29.05.51.35.62.63.79,2.16.6,4.87-.85,7.04-1.35,2.02-3.47,2.8-5.46,2.54-.59-.08-1.18-.23-1.71-.49-.21-.1-.54-.4-.51-.71.03-.31.29-.32.49-.22"/>
    </g>
    <path class="cls-11" d="M555.26,584.74l-89.88,185.68c-.11.22-.23.44-.38.64-16.41,28.47-49.9,42.35-81.63,33.85l-212.21-117.95,15.88-46.15,185.49,48.6,6.51-78.85c-3.22-30.21,53.48-68.56,62.45-97.6h0l79.67-1.45,34.11,73.23Z"/>
    <path class="cls-7" d="M84.5,721.77c3.27,1.99,6.51,4.05,9.77,6.07l11.08,6.88c1.1-.11,2.31-.45,3.73-1.46,13.19-9.43,16.62-9.16,29.9-16.7,9.16-5.2,32.19-12.61,47.22-19.73l32.18,16.38,27.08-60.44-29.96-5.34c-7.88-3.57-17.29-11.93-32.3-22.34-6.61-4.58-13.73-15.42-22.58-11.28-15.66,7.32-19.93,23.91-24.33,28.7-9.26,10.07-14.28,19.42-24.26,28.48-10.11,9.19-12.34,11-19.95,23.03-1.05,1.66-1.98,3.52-1.97,5.47,0,1.31.44,2.57.45,3.88.01,4.63-5,7.68-6.63,12.05-.66,1.75-.74,3.64-.92,5.5.5.28,1.02.55,1.5.85Z"/>
    <g>
      <path class="cls-18" d="M85.93,709.73c-.68,2.95,2.59,5.23,5.21,5.33,3.2.13,6.2-1.91,8.64-3.74,1.45-1.08,2.83-2.26,4.24-3.38.07-.05-.03-.15-.09-.09-2.96,2.35-5.86,5.08-9.44,6.45-1.64.63-3.49.91-5.17.27-1.88-.71-3.76-2.65-3.26-4.8.02-.08-.11-.12-.13-.04h0Z"/>
      <path class="cls-18" d="M78.58,722.97c-1.87,3.51,2.84,6.08,5.55,6.94.72.23,1.48.42,2.24.46,1.2.07,2.47-.28,3.57-.72,2.53-1,4.42-2.83,6.46-4.56,2.14-1.82,4.92-3.34,6.23-5.93.04-.08-.08-.14-.11-.07-1.09,2.14-3.26,3.57-5.1,5.01-1.97,1.54-3.69,3.37-5.88,4.62-1.88,1.08-4.12,1.81-6.29,1.34-1.68-.36-3.34-1.09-4.73-2.1-1.6-1.17-2.86-2.97-1.81-4.93.04-.07-.07-.14-.11-.07h0Z"/>
      <path class="cls-18" d="M76.43,734.16c-.66,4.1,3.84,7.21,7.5,7.26,4.12.05,8-2.45,11.09-4.93.94-.76,1.85-1.56,2.73-2.4.94-.9,1.93-1.76,2.76-2.76.05-.06-.04-.16-.09-.09-.67.8-1.45,1.48-2.19,2.21-.67.66-1.35,1.29-2.06,1.91-1.55,1.35-3.19,2.59-4.96,3.63-3.24,1.9-7.48,3.34-11.02,1.33-2.12-1.2-4.05-3.54-3.64-6.12.01-.08-.11-.12-.13-.04h0Z"/>
      <path class="cls-18" d="M73.02,744.68c-.22,2.46.6,4.91,2.12,6.84,1.39,1.75,3.55,3.29,5.85,3.36s4.43-.98,6.3-2.1c2.19-1.32,4.19-2.94,6.09-4.63.94-.84,1.84-1.72,2.78-2.56,1.05-.94,2.42-1.85,3.02-3.17.03-.08-.08-.14-.11-.07-.52,1.15-1.66,1.98-2.59,2.78-.77.67-1.5,1.38-2.25,2.07-1.78,1.63-3.62,3.2-5.6,4.56-1.86,1.27-3.93,2.48-6.18,2.87-2.39.42-4.61-.57-6.33-2.23-2.06-1.99-3.23-4.86-2.97-7.72,0-.08-.12-.08-.13,0h0Z"/>
    </g>
    <g>
      <path class="cls-22" d="M62.18,754.79s7.98,9.51,14.23,4.95c6.25-4.56,39.61-28.82,40.91-32.52-2.58-1.47-6.13-.87-4.19-9.26,1.93-8.39,6.45-19.71,21.01-35.45,10.91-11.8,36.35-35.24,51.37-42.82,5.02-2.53,10.53-5.85,10.53-5.85-6.41-16.53-34.08-34.16-42.58-30.43-8.49,3.73-30.9,44.02-30.9,44.02l-29.15,28.65-20.87,30.99-7.78,13.65-2.43,15.54-.15,18.53Z"/>
      <path class="cls-5" d="M156.25,603.05c-4.07,3.23-14.55,15.14-21.69,26.43-19.18,30.32-25.92,41.7-35.62,50.06-4.89,4.21-10.03,8.59-15.86,15.3-28.17,31.91-18.36,61.37-18.22,62.45-.81.19-1.5.1-2.47-.17-.12-.54-1.52-5.16-2.39-10.78-1.5-9.71-2.55-30.78,18.66-55.87,6.01-7.11,9.47-11.48,14.32-15.65,7.27-6.27,8.19-10.95,19.94-27.41l6.79-9.72s21.61-31.46,28.1-39.31c9.32,4.14,8.44,4.66,8.44,4.66Z"/>
    </g>
    <g>
      <path class="cls-19" d="M144.94,667.84c4.68,2.11,7.35,6.91,9.27,11.32,3.35,7.69,5.86,15.81,5.19,23.49-.16,1.85-.56,3.75-1.92,4.96-.82.73-1.92,1.14-3,1.55-3.26,1.21-6.53,2.42-9.79,3.63-.92-10.78-5.83-21.83-13.73-30.9-.39-.44-.8-.93-.83-1.46-.02-.44.24-.81.5-1.15,3.47-4.55,7.21-9.28,12.99-11.22"/>
      <path class="cls-17" d="M144.83,667.88c3.05,1.41,5.3,3.96,7,6.8,1.85,3.1,3.2,6.52,4.43,9.9,1.37,3.79,2.46,7.71,2.91,11.71.22,1.9.29,3.82.16,5.73-.11,1.73-.33,3.65-1.45,5.05-.75.94-1.84,1.44-2.94,1.86s-2.2.82-3.31,1.23c-2.33.86-4.66,1.73-6.99,2.59h.16c-.62-7.07-2.87-13.94-6.26-20.17-1.74-3.2-3.78-6.23-6.07-9.06-.62-.76-1.36-1.47-1.9-2.29-.63-.95-.1-1.62.51-2.42,1-1.3,2.01-2.59,3.09-3.82,2.62-2.99,5.68-5.6,9.49-6.9.16-.06.01-.1-.09-.06-3.16,1.08-5.86,3.05-8.19,5.42-1.22,1.24-2.33,2.58-3.41,3.94-.53.67-1.08,1.34-1.58,2.04-.45.64-.51,1.2-.07,1.87.49.73,1.15,1.37,1.71,2.05.67.81,1.31,1.64,1.93,2.49,1.15,1.57,2.23,3.19,3.22,4.86,1.92,3.23,3.53,6.64,4.77,10.19,1.35,3.85,2.24,7.86,2.59,11.93,0,.05.15,0,.16,0,2.14-.79,4.27-1.59,6.41-2.38,1.05-.39,2.1-.78,3.15-1.17.83-.31,1.67-.6,2.43-1.05,3.1-1.81,3-6.2,2.89-9.34-.15-4.18-1.09-8.3-2.39-12.26-1.21-3.71-2.65-7.44-4.51-10.88s-4.18-6.36-7.65-7.96c-.07-.03-.26.07-.23.08h0Z"/>
    </g>
    <path class="cls-11" d="M159.18,786.18s-28.99,85.12-26.22,104.81c2.77,19.69,12.26,11.44,12.26,11.44,0,0,43.64-59.45,52.31-65.84,4.75-3.51,163.24-11.87,244.84-14.62,56.69-1.91,41.58-17.15,41.58-17.15l37.43-79.84-84.01-5.88-16.12-1.58c-8.42-.83-17.9-3.01-26.37-2.36-22.88,1.77-55.79,9.05-67.23,11.67-19.37,4.44-70.52,26.37-77.3,28.13l-66.45,27.7-24.73,3.52Z"/>
    <path class="cls-7" d="M135.83,917.63c3.75-.57,7.52-1.07,11.28-1.6l12.78-1.82c.77-.77,1.47-1.78,1.91-3.42,4.06-15.28,6.84-17.23,12.16-31.15,3.67-9.6,16.66-28.34,23.58-43.05l26.3-3.18-9.87-63.27-25.62,10.15c-8.25,2.28-20.71,1.95-38.71,3.61-7.93.73-20.21-2.87-24.32,5.74-7.26,15.25,0,30.27-.32,36.58-.66,13.29,1.44,23.39-.4,36.38-1.87,13.17-2.42,15.91-.58,29.63.25,1.9.72,3.86,1.97,5.31.84.97,1.97,1.64,2.8,2.61,2.94,3.44,1.07,8.84,2.59,13.12.61,1.72,1.74,3.17,2.78,4.67.56-.1,1.12-.23,1.68-.31Z"/>
    <g>
      <path class="cls-22" d="M139.78,956.18s12.09,2.07,13.96-5.23c1.86-7.31,11.86-46.25,10.51-49.82-2.89.52-5.21,3.19-9.06-4.26-3.85-7.45-7.58-18.7-6.49-39.53.82-15.61,5.32-48.98,11.94-64.03,2.22-5.03,4.3-10.94,4.3-10.94-15.34-8.28-47.56-4.07-51.66,4.02-4.1,8.09,4.39,52.1,4.39,52.1l-4.02,39.57,3.77,36.13,2.73,15.03,8,13.09,11.62,13.88Z"/>
      <path class="cls-5" d="M115.18,784.37c-1.05,4.95-1.48,20.38.25,33.24,4.63,34.56,6.71,47.26,4.63,59.55-1.05,6.19-2.18,12.67-2.37,21.32-1.2,41.39,24.92,57.16,25.71,57.87-.5.65-1.07,1.01-1.99,1.42-.43-.33-4.42-2.89-8.65-6.53-7.29-6.28-21.44-21.3-21.2-53.25.06-9.05-.07-14.47.97-20.61,1.56-9.21-.71-13.28-2.2-32.88l-.99-11.48s-3.5-36.94-3.54-46.84c9.71-2.76,9.37-1.82,9.37-1.82Z"/>
    </g>
    <g>
      <path class="cls-19" d="M147.62,839.65c4.89-1.36,9.96.54,14.22,2.62,7.42,3.62,14.47,8.09,18.83,14.23,1.05,1.48,1.95,3.14,1.69,4.89-.16,1.06-.74,2.06-1.3,3.03-1.72,2.95-3.43,5.89-5.15,8.84-7.52-7.44-18.26-12.59-30.02-14.39-.57-.09-1.2-.19-1.55-.57-.3-.32-.33-.76-.34-1.17-.24-5.56-.4-11.41,2.77-16.49"/>
      <path class="cls-17" d="M147.64,839.7c3.96-1.06,8.03-.03,11.71,1.52,3.34,1.41,6.58,3.15,9.65,5.06,2.9,1.8,5.67,3.83,8.11,6.23,1.17,1.15,2.25,2.39,3.22,3.71,1.08,1.48,2.2,3.26,1.91,5.18-.15,1.03-.68,1.95-1.19,2.84-.58,1-1.16,2-1.75,3-1.17,2.01-2.34,4.02-3.51,6.03l.23-.06c-4.73-4.66-10.47-8.23-16.61-10.72-3.2-1.3-6.51-2.3-9.89-3.03-.87-.19-1.73-.35-2.61-.5s-2.29-.11-2.68-1.07c-.29-.71-.16-1.71-.18-2.46-.03-.88-.05-1.76-.05-2.64.01-4.23.62-8.48,2.87-12.14.05-.08-.19-.05-.22,0-1.9,3.09-2.67,6.61-2.84,10.19-.09,1.83-.04,3.66.03,5.49.03.69-.09,1.64.51,2.13.53.42,1.35.44,1.99.55,7.19,1.16,14.21,3.61,20.46,7.36,3.26,1.95,6.29,4.27,9,6.93.05.05.2,0,.23-.06,1.11-1.9,2.22-3.81,3.33-5.71.54-.93,1.09-1.87,1.63-2.8.49-.84,1.02-1.69,1.32-2.62.58-1.82-.14-3.58-1.14-5.1-.93-1.41-2.03-2.72-3.2-3.94-2.48-2.58-5.36-4.74-8.38-6.64s-6.37-3.72-9.73-5.17c-3.85-1.66-8.09-2.76-12.24-1.65-.14.04-.12.14.03.1h0Z"/>
    </g>
    <path class="cls-8" d="M318.34,656.19s64.19,159.78,113.19,200.04c0,0,31.57-14.09,73.9-41.15,42.33-27.06,117.54-210.66,117.54-210.66l-218.13-103.26s-32.5,28.84-38.65,74.68c-2.45,18.26-1.88,31.28-.31,40.33,2.47,14.25-5.19,28.36-18.63,33.71-8.09,3.22-17.84,5.8-28.92,6.32Z"/>
    <path class="cls-10" d="M667.81,1206.27s84.69-393.07,116.52-442.13c31.83-49.07,81.03-77.68,81.03-77.68l15.64-14.99c12.47-1.74,33.06-14.75,55.1-19.84,30.36-7.02,56.3-6.42,67.67-3.49l69.26,17.75c8.44,7.34,33.01,34.68,38.14,93.64,14.89,60.66-14.15,446.76-14.15,446.76l-221.85-11.73s-231.75,21.13-241.76,6.66"/>
    <path class="cls-14" d="M712.49,314.99c1.75,7.52.95,39.63.33,50.67-2.54,39.58-5.92,67.32-21.14,103.95-26.13,61.44-78.07,198.53-78.07,198.53-76.16-18.56-87.43-89.97-172.14-155.17,0,0-2.33-2.47,52.48-79.27,56.4-78.99,56.63-145.79,76.7-162.11,8.72-7.03,50.18-13.92,50.18-13.92,16.05,26.8,82.2,77.25,91.66,57.32Z"/>
    <path class="cls-8" d="M618.1,257.95c-9.48,1.01-22.18.61-47.95,11.69-23.77,10.22-31.04,43.88-87.44,122.87-21.33,29.9-18.42,66.71-42.97,83.41-21.58,14.69-37.47,27.38-37.47,27.38,84.71,65.2,135.19,146.28,211.35,164.84,0,0,51.94-137.09,78.07-198.53,7.43-17.88,13.38-36.3,17.83-55.08-10.98-7.56-19.98-18.19-25.42-30.26-7.37-16.35-9.01-34.51-12.63-51.89-1.58-7.58-3.75-14.72-6.9-21.79-2.61-5.85-5.55-11.56-8.81-17.08,0,0-18.24-30.55-37.64-35.57Z"/>
    <path class="cls-11" d="M581.55,424.85c-.55-3.43,11.29-41.81,25.18-61.86,8.9-12.83,21.66-14.48,21.17-3.68-.49,10.8-10.89,16.29-8.93,42.39,1.97,26.1,1.97,53.13-14.95,77.67-16.92,24.54-22.48-54.52-22.48-54.52Z"/>
    <path class="cls-18" d="M276.49,744.31c8.45-2.71,16.75-5.91,25.07-9,10.02-3.71,20.04-7.44,30.17-10.84,4.79-1.61,9.62-3.16,14.51-4.44,1.77-.47,1.29-2.29-.49-1.82-9.41,2.47-18.61,5.78-27.76,9.07-9.87,3.55-19.68,7.26-29.54,10.86-4.13,1.51-8.26,3.01-12.45,4.35-.52.17-1.39.61-1.21,1.3s1.19.68,1.69.52h0Z"/>
    <path class="cls-11" d="M791.81,558.18s27.64-8.59,33.21-11.68c5.57-3.09,19.02-11.74,22.15-10.65,3.13,1.09,1.34,6.8-1.86,11.81-3.2,5-15.47,10.83-14.79,14.23.67,3.4,41.37,23.3,48.45,27.15,7.07,3.86,25.96,15.7,19.21,23.85,0,0,8.05,6.93,5.45,10.65-2.6,3.72-4.3,4.59-4.3,4.59,0,0-4.11,7.24-10.85,4.61-6.74-2.62-10.68-5.39-10.68-5.39,0,0,2.11,5.67-5.21,6.51-7.32.84-36.65-10.94-36.65-10.94,0,0-18.71.33-29.24-5.54-10.53-5.87-27.43-21.7-27.43-21.7l12.55-37.51Z"/>
    <path class="cls-18" d="M825.81,547.24c3.53-2.42,6.91-5.04,10.45-7.44,1.89-1.28,3.82-2.53,5.84-3.61.73-.39,1.48-.76,2.26-1.04.24-.08.47-.16.72-.21-.03,0,.36-.02.27-.03,2.25.31,2.58,3.4,2.51,5.16-.09,2.45-.71,5.43-1.91,7.58-.87,1.55-2.46,2.7-3.89,3.69-1.68,1.17-3.45,2.18-5.2,3.23s-3.53,2.06-5.03,3.39c-.88.78-2.08,2.01-1.54,3.3.39.93,3.24.05,2.9-.78-.49-1.18.93-2.17,1.73-2.78,1.62-1.23,3.42-2.21,5.15-3.25,3.2-1.92,7.44-4.08,9-7.69,1.44-3.32,3.86-12.31-1.79-13.32-1.62-.29-3.38.34-4.84.97-2.04.89-3.97,2.04-5.84,3.24-4.49,2.88-8.69,6.18-13.09,9.19-.54.37-.24.79.25.93.67.19,1.51-.18,2.05-.55h0Z"/>
    <path class="cls-18" d="M901.43,614.13c-.02-.27-.36-.58-.53-.76-.52-.58-1.09-1.12-1.66-1.66-1.22-1.17-2.48-2.29-3.76-3.4-2.46-2.14-5-4.19-7.59-6.16-6.2-4.71-12.74-8.96-19.57-12.7-3.23-1.77-6.53-3.47-9.93-4.91-.67-.28-1.47-.2-2.07.22-.37.26-.88,1.03-.2,1.32,8.22,3.46,16.06,8.14,23.39,13.19,3.81,2.62,7.52,5.4,11.07,8.35,1.59,1.32,3.15,2.67,4.67,4.07.66.61,1.32,1.22,1.95,1.85.34.34.69.68,1.02,1.04.14.16.32.53.3.33.08,1.13,2.99.48,2.9-.78h0Z"/>
    <path class="cls-18" d="M899.92,626.84c.13-.48-.71-1.03-1-1.28-1.02-.88-2.09-1.71-3.15-2.54-3.94-3.04-8.02-5.91-12.14-8.71-10.9-7.41-22.15-14.36-33.43-21.19-1.53-.93-3.06-1.86-4.63-2.73-1.06-.59-2.17-1.19-3.36-.36-1.6,1.12.88,1.49,1.8.85h0c-.37.12-.73.24-1.1.37-.73.08-1.03-.19-.35.16.46.23.9.49,1.35.75,1.42.81,2.82,1.66,4.21,2.51,4.61,2.79,9.18,5.65,13.74,8.51,10.21,6.41,20.45,12.83,30.07,20.11,1.29.97,2.57,1.96,3.81,3,.33.27.66.55.97.85.07.06.18.23.27.26.22.08-.05.09.02-.19-.28,1.03,2.63.62,2.9-.36h0Z"/>
    <path class="cls-18" d="M881.82,628.18c.03-.54-1.71-1.59-2.05-1.86-1.62-1.27-3.28-2.48-4.96-3.67-3.9-2.76-7.9-5.37-11.98-7.85-3.84-2.33-7.75-4.56-11.74-6.62-1.68-.86-3.36-1.73-5.1-2.47-1.06-.45-2.07-.65-3.17-.03-.37.21-.86.51-.34.81.46.27,1.62-.12,2.03-.35h.02c-.59.12-1.18.25-1.78.38-.32,0,.05.02.17.07.23.11.47.19.7.29.71.3,1.4.64,2.09.98,1.64.8,3.25,1.63,4.86,2.49,3.81,2.04,7.55,4.21,11.22,6.49s7.14,4.57,10.6,7.03c1.48,1.05,2.95,2.13,4.39,3.25.33.26,2.16,1.47,2.14,1.83-.02.49,2.85.12,2.9-.78h0Z"/>
    <path class="cls-8" d="M697.81,404.54s9.62,1.26,13.15-25.62c3.53-26.88,2.12-65.34,2.12-65.34l5.16,3.35s.06,63.81-8.74,97.61c0,0-10.69-.64-11.7-9.99Z"/>
    <g class="cls-20">
      <circle class="cls-1" cx="302.38" cy="731.65" r="7.86"/>
      <circle class="cls-1" cx="283.04" cy="670.28" r="7.86"/>
      <circle class="cls-1" cx="344.41" cy="650.95" r="7.86"/>
      <circle class="cls-1" cx="325.07" cy="589.58" r="7.86"/>
      <circle class="cls-1" cx="283.04" cy="670.28" r="7.86"/>
      <circle class="cls-1" cx="304.06" cy="629.93" r="16.72"/>
      <circle class="cls-1" cx="383.08" cy="773.68" r="7.86"/>
      <circle class="cls-1" cx="363.74" cy="712.31" r="7.86"/>
      <circle class="cls-1" cx="321.71" cy="793.02" r="7.86"/>
      <circle class="cls-1" cx="342.73" cy="752.67" r="16.72"/>
      <circle class="cls-1" cx="425.11" cy="692.98" r="7.86"/>
      <circle class="cls-1" cx="405.77" cy="631.61" r="7.86"/>
      <circle class="cls-1" cx="363.74" cy="712.31" r="7.86"/>
      <circle class="cls-1" cx="384.76" cy="671.96" r="16.72"/>
      <circle class="cls-1" cx="323.39" cy="691.3" r="16.72"/>
      <circle class="cls-1" cx="463.78" cy="815.71" r="7.86"/>
      <circle class="cls-1" cx="444.44" cy="754.34" r="7.86"/>
      <circle class="cls-1" cx="402.41" cy="835.05" r="7.86"/>
      <circle class="cls-1" cx="423.43" cy="794.7" r="16.72"/>
      <circle class="cls-1" cx="505.81" cy="735.01" r="7.86"/>
      <circle class="cls-1" cx="486.47" cy="673.64" r="7.86"/>
      <circle class="cls-1" cx="444.44" cy="754.34" r="7.86"/>
      <circle class="cls-1" cx="465.46" cy="713.99" r="16.72"/>
      <circle class="cls-1" cx="404.09" cy="733.33" r="16.72"/>
      <circle class="cls-1" cx="544.48" cy="857.74" r="7.86"/>
      <circle class="cls-1" cx="525.15" cy="796.37" r="7.86"/>
      <circle class="cls-1" cx="483.12" cy="877.08" r="7.86"/>
      <circle class="cls-1" cx="504.13" cy="836.73" r="16.72"/>
      <circle class="cls-1" cx="586.51" cy="777.04" r="7.86"/>
      <circle class="cls-1" cx="567.18" cy="715.67" r="7.86"/>
      <circle class="cls-1" cx="525.15" cy="796.37" r="7.86"/>
      <circle class="cls-1" cx="546.16" cy="756.02" r="16.72"/>
      <circle class="cls-1" cx="484.79" cy="775.36" r="16.72"/>
      <circle class="cls-1" cx="608.07" cy="839.56" r="7.86"/>
      <circle class="cls-1" cx="567.72" cy="818.55" r="16.72"/>
      <circle class="cls-1" cx="386.44" cy="570.25" r="7.86"/>
      <circle class="cls-1" cx="365.42" cy="610.6" r="16.72"/>
      <circle class="cls-1" cx="367.1" cy="508.88" r="7.86"/>
      <circle class="cls-1" cx="447.8" cy="550.91" r="7.86"/>
      <circle class="cls-1" cx="428.47" cy="489.55" r="7.86"/>
      <circle class="cls-1" cx="386.44" cy="570.25" r="7.86"/>
      <circle class="cls-1" cx="407.45" cy="529.9" r="16.72"/>
      <circle class="cls-1" cx="305.73" cy="528.22" r="7.86"/>
      <circle class="cls-1" cx="346.09" cy="549.23" r="16.72"/>
      <circle class="cls-1" cx="467.14" cy="612.28" r="7.86"/>
      <circle class="cls-1" cx="446.12" cy="652.63" r="16.72"/>
      <circle class="cls-1" cx="528.5" cy="592.94" r="7.86"/>
      <circle class="cls-1" cx="509.17" cy="531.58" r="7.86"/>
      <circle class="cls-1" cx="467.14" cy="612.28" r="7.86"/>
      <circle class="cls-1" cx="488.15" cy="571.93" r="16.72"/>
      <circle class="cls-1" cx="426.79" cy="591.26" r="16.72"/>
      <circle class="cls-1" cx="547.84" cy="654.31" r="7.86"/>
      <circle class="cls-1" cx="526.82" cy="694.66" r="16.72"/>
      <circle class="cls-1" cx="609.21" cy="634.97" r="7.86"/>
      <circle class="cls-1" cx="589.87" cy="573.61" r="7.86"/>
      <circle class="cls-1" cx="547.84" cy="654.31" r="7.86"/>
      <circle class="cls-1" cx="568.85" cy="613.96" r="16.72"/>
      <circle class="cls-1" cx="507.49" cy="633.29" r="16.72"/>
      <circle class="cls-1" cx="647.88" cy="757.7" r="7.86"/>
      <circle class="cls-1" cx="628.54" cy="696.34" r="7.86"/>
      <circle class="cls-1" cx="607.53" cy="736.69" r="16.72"/>
      <circle class="cls-1" cx="670.57" cy="615.64" r="7.86"/>
      <circle class="cls-1" cx="628.54" cy="696.34" r="7.86"/>
      <circle class="cls-1" cx="649.56" cy="655.99" r="16.72"/>
      <circle class="cls-1" cx="588.19" cy="675.32" r="16.72"/>
      <circle class="cls-1" cx="345.91" cy="446.55" r="7.86"/>
      <circle class="cls-1" cx="426.62" cy="488.58" r="7.86"/>
      <circle class="cls-1" cx="407.28" cy="427.22" r="7.86"/>
      <circle class="cls-1" cx="386.26" cy="467.57" r="16.72"/>
      <circle class="cls-1" cx="387.94" cy="365.85" r="7.86"/>
      <circle class="cls-1" cx="468.65" cy="407.88" r="7.86"/>
      <circle class="cls-1" cx="449.31" cy="346.51" r="7.86"/>
      <circle class="cls-1" cx="407.28" cy="427.22" r="7.86"/>
      <circle class="cls-1" cx="428.29" cy="386.87" r="16.72"/>
      <circle class="cls-1" cx="507.32" cy="530.61" r="7.86"/>
      <circle class="cls-1" cx="487.98" cy="469.25" r="7.86"/>
      <circle class="cls-1" cx="466.97" cy="509.6" r="16.72"/>
      <circle class="cls-1" cx="549.35" cy="449.91" r="7.86"/>
      <circle class="cls-1" cx="530.01" cy="388.54" r="7.86"/>
      <circle class="cls-1" cx="487.98" cy="469.25" r="7.86"/>
      <circle class="cls-1" cx="509" cy="428.9" r="16.72"/>
      <circle class="cls-1" cx="447.63" cy="448.23" r="16.72"/>
      <circle class="cls-1" cx="588.02" cy="572.64" r="7.86"/>
      <circle class="cls-1" cx="568.68" cy="511.28" r="7.86"/>
      <circle class="cls-1" cx="547.67" cy="551.63" r="16.72"/>
      <circle class="cls-1" cx="630.05" cy="491.94" r="7.86"/>
      <circle class="cls-1" cx="610.71" cy="430.57" r="7.86"/>
      <circle class="cls-1" cx="568.68" cy="511.28" r="7.86"/>
      <circle class="cls-1" cx="589.7" cy="470.93" r="16.72"/>
      <circle class="cls-1" cx="528.33" cy="490.26" r="16.72"/>
      <circle class="cls-1" cx="668.72" cy="614.67" r="7.86"/>
      <circle class="cls-1" cx="649.38" cy="553.31" r="7.86"/>
      <circle class="cls-1" cx="628.37" cy="593.66" r="16.72"/>
      <circle class="cls-1" cx="710.75" cy="533.97" r="7.86"/>
      <circle class="cls-1" cx="691.41" cy="472.6" r="7.86"/>
      <circle class="cls-1" cx="649.38" cy="553.31" r="7.86"/>
      <circle class="cls-1" cx="670.4" cy="512.96" r="16.72"/>
      <circle class="cls-1" cx="609.03" cy="532.29" r="16.72"/>
      <circle class="cls-1" cx="732.31" cy="596.5" r="7.86"/>
      <circle class="cls-1" cx="691.96" cy="575.48" r="16.72"/>
      <circle class="cls-1" cx="510.68" cy="327.18" r="7.86"/>
      <circle class="cls-1" cx="489.66" cy="367.53" r="16.72"/>
      <circle class="cls-1" cx="491.34" cy="265.81" r="7.86"/>
      <circle class="cls-1" cx="572.04" cy="307.84" r="7.86"/>
      <circle class="cls-1" cx="552.71" cy="246.48" r="7.86"/>
      <circle class="cls-1" cx="510.68" cy="327.18" r="7.86"/>
      <circle class="cls-1" cx="531.69" cy="286.83" r="16.72"/>
      <circle class="cls-1" cx="429.97" cy="285.15" r="7.86"/>
      <circle class="cls-1" cx="470.32" cy="306.16" r="16.72"/>
      <circle class="cls-1" cx="591.38" cy="369.21" r="7.86"/>
      <circle class="cls-1" cx="570.36" cy="409.56" r="16.72"/>
      <circle class="cls-1" cx="652.74" cy="349.87" r="7.86"/>
      <circle class="cls-1" cx="633.41" cy="288.51" r="7.86"/>
      <circle class="cls-1" cx="591.38" cy="369.21" r="7.86"/>
      <circle class="cls-1" cx="612.39" cy="328.86" r="16.72"/>
      <circle class="cls-1" cx="551.03" cy="348.19" r="16.72"/>
      <circle class="cls-1" cx="597.48" cy="246.5" r="16.72"/>
      <circle class="cls-1" cx="672.08" cy="411.24" r="7.86"/>
      <circle class="cls-1" cx="651.06" cy="451.59" r="16.72"/>
      <circle class="cls-1" cx="733.44" cy="391.9" r="7.86"/>
      <circle class="cls-1" cx="714.11" cy="330.54" r="7.86"/>
      <circle class="cls-1" cx="672.08" cy="411.24" r="7.86"/>
      <circle class="cls-1" cx="693.09" cy="370.89" r="16.72"/>
      <circle class="cls-1" cx="631.73" cy="390.22" r="16.72"/>
      <circle class="cls-1" cx="772.12" cy="514.63" r="7.86"/>
      <circle class="cls-1" cx="752.78" cy="453.27" r="7.86"/>
      <circle class="cls-1" cx="731.77" cy="493.62" r="16.72"/>
      <circle class="cls-1" cx="814.15" cy="433.93" r="7.86"/>
      <circle class="cls-1" cx="794.81" cy="372.57" r="7.86"/>
      <circle class="cls-1" cx="752.78" cy="453.27" r="7.86"/>
      <circle class="cls-1" cx="773.8" cy="412.92" r="16.72"/>
      <circle class="cls-1" cx="712.43" cy="432.25" r="16.72"/>
    </g>
    <path class="cls-11" d="M529.96,512.41s-35.87-67.07-41.23-77.67-3.78-72.9-3.78-72.9c0,0,3.54-2.98,10.73,3.88.77-7.99,2.38-15.87,4.78-23.52,1.45-3.82,3.27-7.49,5.45-10.95,1.84-3.08,5.29-4.83,8.86-4.51,1.06.02,2.07.46,2.82,1.21l8.4-19.52c1.17-2.78,3.73-4.74,6.72-5.14,3.02-.46,5.95,1.26,7.03,4.12.95-3.88,4.87-6.25,8.75-5.3.17.04.34.09.51.14,8.01,1.27,8.25,9.1,10.61,22.23-2.98,19.91,1.47,46.24,3.42,44.95l49.62,90.5c-6.2,15.77-10.76,32.13-13.62,48.82l-63.87,27.26-5.19-23.62Z"/>
    <path class="cls-18" d="M537.57,384.6c-1.77-4.97-1.73-9.95-1.62-15.16s.59-10.77,1.43-16.1c.8-5.05,1.78-10.12,2.95-15.09s2.58-9.6,4.32-14.26c1.95-5.23,4.29-10.3,6.96-15.2.28-.51-1.02-.4-1.18-.37-.55.08-1.39.31-1.68.84-4.83,8.87-8.53,18.33-10.96,28.14-1.22,4.93-2.18,9.98-3.04,14.99s-1.41,10.26-1.62,15.42c-.24,5.94-.48,11.88,1.54,17.56.27.77,3.14-.09,2.9-.78h0Z"/>
    <path class="cls-18" d="M519.99,396.44c-1.95-5.45-2.89-11.08-3.05-16.86-.14-5.04.16-10.08-.06-15.12-.36-8.24-.26-16.55.35-24.78.28-3.82.52-7.88,1.75-11.54.54-1.62-2.35-1.68-2.78-.38-1.09,3.24-1.44,6.74-1.74,10.13-.4,4.5-.58,9.03-.65,13.54-.07,4.07-.05,8.14.09,12.2.18,4.84,0,9.68.06,14.52.08,6.52.92,12.9,3.13,19.06.49,1.37,3.38.57,2.9-.78h0Z"/>
    <path class="cls-18" d="M502.28,416.57c-1.25-4.25-2.2-8.58-2.82-12.97s-.69-8.63-.88-13-.6-8.66-.43-13.05.69-9.01,1.51-13.45c.24-1.3-2.7-.87-2.92.28-.82,4.44-1.34,8.94-1.51,13.45-.09,2.26-.09,4.51,0,6.77s.37,4.5.44,6.75c.13,4.37.29,8.68.91,13.01s1.58,8.72,2.82,12.97c.35,1.19,3.24.4,2.9-.78h0Z"/>
    <path class="cls-11" d="M849.39,857.62s-198.19,29.66-258.27,2.15c-74.62-39.67-69.62-372.95-69.62-372.95l63.47-24.88,76.89,275.27,167.51-2.89,20.02,123.3Z"/>
    <path class="cls-10" d="M989.22,663.71c40-.83,67.36-1.76,84.82,25.49,29.55,46.12,27.4,152.14-30.94,186.5-8.63,5.02-17.91,8.81-27.58,11.29-76.4,20.24-201.28,56.25-201.28,56.25,0,0-76.22-182.33-50.2-239.36,3.53-7.74,156.9-37.38,225.19-40.17h0Z"/>
    <path class="cls-4" d="M1077.61,761.08c-1.17,15.3-4.64,30.5-11.25,44.4-5.27,11.1-12.44,21.25-21.16,29.9-7.12,7.05-15.19,13.09-23.9,18.05-6.19,3.53-12.71,6.5-19.45,8.84-2.18.76-5.21,1.65-7.81,2.29-10.24,2.52-20.44,5.1-30.77,7.27s-20.3,4.04-30.51,5.77c-17.95,3.04-35.99,5.53-54.08,7.55-12.12,1.36-24.26,2.52-36.42,3.42-4,.3-8,.43-11.98.99-9.81,1.38-19.63,2.77-29.44,4.15-.82.12-1.65.23-2.47.35l1.26.44c-3.08-8.35-6.16-16.7-9.24-25.06-2.17-5.88-4.72-11.74-6.39-17.79-3.24-11.72-6.16-23.53-8.88-35.39-4.54-19.79-8.5-39.75-11.28-59.87-2.09-15.13-3.41-30.39-1.61-45.64.28-2.37.65-4.73,1.15-7.06l-1.25.93c7.79-2.4,15.58-4.8,23.36-7.2l-1.65-.37c.09,6.09.3,12.18.54,18.26.54,13.93,1.34,27.85,2.51,41.74,1.28,15.22,2.91,30.46,5.81,45.47,3.5,18.12,9.68,35.72,16.75,52.72,4.47,10.76,9.32,21.43,14.9,31.67.09.16.17.31.26.47.56,1,3.36.06,2.9-.78-4.66-8.41-8.72-17.2-12.56-26.02-7.55-17.33-14.28-35.35-18.32-53.85-3.21-14.67-4.93-29.66-6.32-44.6s-2.23-28.84-2.85-43.29c-.22-5.01-.4-10.02-.54-15.03-.04-1.57-.08-3.14-.12-4.72-.02-.8.09-1.71-.05-2.5-.02-.1,0-.22,0-.33,0-.62-1.38-.45-1.65-.37-7.79,2.4-15.58,4.8-23.36,7.2-.44.13-1.14.41-1.25.93-1.9,9-2.13,18.34-1.91,27.51.14,5.74.6,11.41,1.28,17.11,2.46,20.63,6.32,41.09,10.8,61.37,2.97,13.44,6.22,26.82,9.83,40.1,1.47,5.41,3.51,10.58,5.45,15.85,3.52,9.56,7.05,19.12,10.57,28.68.08.21.15.41.23.62.17.46.85.5,1.26.44,8.63-1.22,17.25-2.43,25.88-3.65,4.49-.63,8.87-1.21,13.38-1.51,10.49-.7,20.97-1.63,31.43-2.71,17.38-1.79,34.72-4,51.99-6.69,20.45-3.18,40.82-7.03,60.95-11.86,6.05-1.45,12.19-2.83,18.13-4.7,6.28-1.97,12.38-4.51,18.24-7.51,8.59-4.39,16.68-9.75,23.98-16.05,8.94-7.72,16.65-16.88,22.64-27.06,7.39-12.56,12.11-26.55,14.45-40.91.66-4.09,1.14-8.2,1.45-12.33.09-1.21-2.82-.66-2.9.35h0Z"/>
    <path class="cls-11" d="M624.7,346.97l36.8,119.59,144.91,99.77-13.82,35.55s-149.76-45.16-189.1-82.98c-20-19.23-61.69-162.95-61.69-162.95l82.9-8.98Z"/>
    <path class="cls-18" d="M596.64,507.81c-2.25-2.96-3.94-6.35-5.54-9.69-2.42-5.04-4.58-10.21-6.64-15.41-5.4-13.57-10.2-27.38-14.84-41.22-5.07-15.1-9.9-30.28-14.6-45.49-3.88-12.53-7.66-25.09-11.38-37.67-1.19-4.04-2.38-8.08-3.55-12.13-.53-1.84-.88-3.95-1.65-5.71-.03-.08-.05-.17-.07-.25l-1.61,1.34c9.38-1.02,18.76-2.03,28.14-3.05,14.84-1.61,29.69-3.21,44.53-4.82,3.41-.37,6.82-.74,10.23-1.11.57-.06,1.55-.41,1.62-1.09s-.78-.87-1.3-.82c-9.38,1.02-18.76,2.03-28.14,3.05-14.84,1.61-29.69,3.21-44.53,4.82-3.41.37-6.82.74-10.23,1.11-.56.06-1.84.53-1.61,1.34,1.4,4.91,2.83,9.81,4.27,14.71,3.54,12.05,7.15,24.07,10.84,36.07,4.66,15.16,9.43,30.28,14.42,45.33,4.7,14.19,9.56,28.34,14.95,42.29,2.14,5.54,4.37,11.05,6.83,16.45,1.76,3.87,3.61,7.77,5.92,11.35.4.62.82,1.23,1.26,1.81.71.94,3.49-.13,2.67-1.22h0Z"/>
    <path class="cls-14" d="M568.2,273.94s52.32-15.6,71.4,18.96c19.09,34.55,29.23,96.15,29.23,96.15l-30.42,12.14c-17.72,7.07-36.51,11.1-55.58,11.91l-26.79,1.14s-43.27-118.42,12.16-140.3Z"/>
    <path class="cls-18" d="M660.89,736.31c-2.02,14.21-7.8,31.32-23.15,35.86-.48.14-1.4.56-1.23,1.21s1.21.57,1.67.44c7.34-2.17,13.4-7.22,17.56-13.57,4.74-7.22,6.86-15.8,8.06-24.25.18-1.27-2.75-.8-2.91.31h0Z"/>
    <path class="cls-18" d="M685.42,483.19c9.63,7.38,19.4,14.57,29.36,21.49,6.41,4.45,12.93,8.75,19.37,13.17,3.11,2.13,6.19,4.3,9.22,6.56.8.6,3.45-.55,2.7-1.12-5.52-4.12-11.25-7.95-16.96-11.8-7.68-5.17-15.3-10.42-22.8-15.85-6.13-4.44-12.18-8.97-18.19-13.57-.79-.61-3.45.54-2.7,1.12h0Z"/>
    <path class="cls-18" d="M894.97,599.5c1.19.89,2.22,2.09,3.01,3.34,1.72,2.69,1.82,5.7.18,8.46-.13.22-.12.57.05.76,2.1,2.44,4.05,5.61,4.44,8.84.13,1.06.02,2.18-.46,3.14-.65,1.3-1.73,1.63-2.79,2.47-.84.67-.74,1.79-1.34,2.69-1.52,2.29-4.34,2.9-6.93,2.88-.66,0-1.59.18-1.89.87-.26.61.23,1.14.86,1.14,4.53.04,10.94-1.73,11.71-7.09l-.84.93c1.97-.99,3.7-2.44,4.36-4.61.56-1.84.25-3.83-.39-5.61-.89-2.49-2.35-4.9-4.08-6.9l.05.76c2.92-4.91.62-10.49-3.7-13.69-.97-.72-3.54.66-2.25,1.62h0Z"/>
    <path class="cls-4" d="M874.7,678.81c4.35-1.13,8.74-2.1,13.13-3.05,11.02-2.38,22.12-4.43,33.27-6.15,14.82-2.28,29.74-3.98,44.71-4.81,15.59-.87,31.31-.86,46.83,1.04,13.68,1.67,27.66,4.73,39.86,11.38,1.34.73,2.66,1.51,3.95,2.33,1.12.71,3.63-.82,2.22-1.71-11.71-7.45-25.46-11.2-39.05-13.34-15.47-2.43-31.25-2.79-46.88-2.2s-30.82,2.14-46.11,4.34c-12.01,1.72-23.96,3.84-35.84,6.32-5.47,1.14-11.04,2.21-16.42,3.74-.07.02-.15.04-.23.06-1.8.47-1.25,2.53.55,2.06h0Z"/>
  </g>
</svg>