<?xml version="1.0" encoding="UTF-8"?>
<svg id="Layer_1" data-name="Layer 1" xmlns="http://www.w3.org/2000/svg" viewBox="0 0 1334 1000">
  <defs>
    <style>
      .cls-1 {
        fill: #b8e0ee;
      }

      .cls-2 {
        fill: #f7ad1a;
      }

      .cls-3 {
        fill: #f1eef7;
      }

      .cls-4 {
        fill: #0d3a59;
      }

      .cls-5 {
        stroke: #0d3f60;
        stroke-miterlimit: 10;
        stroke-width: .75px;
      }

      .cls-5, .cls-6 {
        fill: #0d3f60;
      }

      .cls-7 {
        fill: #13435e;
      }

      .cls-8 {
        fill: #6b3825;
      }

      .cls-9 {
        fill: #fff;
      }

      .cls-10 {
        fill: #888;
      }

      .cls-11 {
        fill: #24180f;
      }

      .cls-12 {
        fill: #af6b4e;
      }

      .cls-13 {
        fill: #4f2e25;
      }
    </style>
  </defs>
  <rect class="cls-1" x="-11.35" y="-28.91" width="1359.5" height="1057.58" rx="12" ry="12"/>
  <g>
    <path class="cls-12" d="M1025.83,713.43c13.65-40.07,48.33-119.63,48.33-119.63l-58.11-37.41-71.74,136.66c22.55,16.4,58.08,5.29,81.51,20.38Z"/>
    <path class="cls-12" d="M1037.15,620.72l46.83-19.94c17.47-3.33,34.03-10.34,48.59-20.56,12.87-11.32,24.1-24.38,33.37-38.8l30.35-23.88,12.04-9.47s26.34-3.89,25.7-12.23c-.64-8.34-10.85-9.46-20.76-10.52-9.92-1.06-145.07,30.56-145.07,30.56,7.32-12.36,15.69-24.08,25.01-35.01,14.43-16.67,8.8-30.01-2.1-35.12-10.9-5.11-26.47,19.51-32.64,34.15-4.95,11.75-29.38,22.77-41.57,41.58-12.19,18.81-7.37,49.12-7.37,49.12-17.11,36,27.63,50.12,27.63,50.12Z"/>
    <path class="cls-13" d="M1167.3,541.51c4.56-6.35,9.12-12.69,13.68-19.04.65-.9,1.3-1.8,1.94-2.71l-.76.63c2.28-1.14-.53-4.38-1.61-5.36-2.18-1.99-4.97-3.36-7.91-3.75-5.21-.69-10.24,1.28-14.14,4.62-2.03,1.73-3.87,3.67-5.88,5.43-2.23,1.96-4.67,3.67-6.91,5.63-5.03,4.4-9.62,9.28-14.32,14.01-2.46,2.48-5.16,4.79-7.47,7.4-1.7,1.92-3.59,3.53-5.58,5.15-1.52,1.24.86,1.91,1.86,1.09,1.64-1.34,3.33-2.64,4.8-4.17.67-.7,1.29-1.44,1.95-2.16.99-1.08,2.14-2.05,3.2-3.07,4.33-4.2,8.46-8.6,12.78-12.81,2.05-2,4.14-3.97,6.34-5.81s4.46-3.45,6.55-5.35c3.05-2.77,5.96-6.39,10.07-7.6,2.93-.86,6.11-.8,8.88.53,1.46.7,2.9,1.67,3.96,2.91.45.53,1.58,2.06,1.38,2.71l.85-.87c-.89.44-1.48,1.6-2.04,2.38-1.24,1.72-2.47,3.44-3.71,5.16-2.87,4-5.74,7.99-8.62,11.99-.68.95-1.36,1.9-2.04,2.85-.42.59.36.99.83,1.03.71.07,1.48-.26,1.9-.84h0Z"/>
    <path class="cls-13" d="M1098.1,535.74c12.04-5.51,25.15-8.42,38.15-10.61.62-.1,1.54-.42,1.6-1.17.05-.68-.75-1.05-1.34-.95-13.54,2.27-27.15,5.28-39.69,11.02-.54.25-1.09.91-.68,1.5s1.41.47,1.97.22h0Z"/>
    <path class="cls-13" d="M1102.89,553.57c-1.9-6.55-6.17-11.68-11.96-15.18-3.17-1.92-6.16-3.63-9.84-4.4s-7.19-.72-10.74-.06c-.33.06-1.69.34-1.69.81,0,.51.84.37,1.17.31,3.42-.64,6.92-.49,10.28.43s6.15,2.68,9.06,4.49c5.28,3.28,9.09,8.42,10.82,14.38.2.68,3.09-.11,2.9-.78h0Z"/>
  </g>
  <path class="cls-12" d="M654.71,466.93c-1.81-4.96,0-63.25,0-63.25l-90.69,12.01-90.69-12.01s1.81,58.29,0,63.25c-1.81,4.96-77.32,27.94-77.32,27.94,0,0,51.23,46,169.02,46s166.58-45.1,166.58-45.1c0,0-75.08-23.89-76.89-28.85Z"/>
  <path class="cls-13" d="M473.86,427.23s18.54,25.95,33.38,26.22c19.84.36,92.13,1.07,119.51.45,13.28-.3,19.53-13.85,27.42-23.35v-10.33l-71.65,10.81-108.65-11.44v7.64Z"/>
  <path class="cls-9" d="M275.81,1060.54l50.49-253.07-48.89-278.59s-53.24,4.61-82.26,91.66c-24.76,93.26-70.99,398.91-67.97,458.54.98,17.75,7.01,60.87,14.91,112.34h139.22l-5.5-130.88Z"/>
  <path class="cls-9" d="M938.85,922.45c-3.11-3.66-16.9-11.1-18.89-15.38-9.1-19.61-31.74-9.5-30.36-30.63.32-4.93.81-9.86,1.58-14.75.95-6.04,2.68-12.05,4.51-17.9,3.59-11.51,8.36-22.66,13.63-33.57,9.41-19.49,20.47-38.27,29.53-57.91l-56.33-166.99c-6.92-24.11-25.91-55.55-50.94-63.81l-74.73-22.97-29.71,212.38,92.82,185.42c7.65,19.13,26.56,33.91,58.56,49.25,21.64,10.38,37.35,6.89,56.09,6.89-1.79-1.51,5.74-28.26,4.24-30.03Z"/>
  <path class="cls-9" d="M1078.13,613.92c-11.68-1.12-23.87-5.31-33.3-8.52-9.03-3.08-18-6.31-27.03-9.38-7.67-2.6-8.77-3.85-15.89-7.66-4.35-2.33-6.35-4.8-10.36-7.57l-74.25,167.16-3.57-3.2c-9.33,20.67-11.51,43.13-20.7,63.87-4.86,10.96-9.07,22.23-12,33.86-1.37,5.45-2.46,10.92-3.02,16.53-.51,5.11-.8,10.25-.87,15.39-.15,10.74.6,21.58,2.67,32.22,1.98,10.18,5.12,20.35,10.39,29.56,2.23,3.9,4.8,7.44,8.16,10.56,1.46,1.35,3,2.59,4.61,3.76,25.34,5.05,50.24,2.21,72.72-12,12.57-10.83,19.32-24.8,27.17-39.15,14.97-27.67,26.72-89.66,36.37-124.28l38.9-161.15Z"/>
  <path class="cls-9" d="M817.69,1086.8c2.27-69.89.11-158.49,1.63-184.62,3.02-22.27,11.66-3.2,24.43-45.97,11.27-37.36-53.11-346.63-53.11-346.63l-96.49-32.26-28.22-5.77-2.22-1.24c-.24,1.68-.24,3.38,0,5.06v2.75c-6.97,31.47-44.01,55.9-75.33,58.66-10.87.75-37.32,3.24-48.19,2.49-33.9-1.98-57.53-21.15-75.95-49.68l-5.05-17.92-53.42,13.9-146.43,49.22,19.1,248.13c2.93,52.44-11.6,62.11,10.23,109.41l1.88,206.13,41.04-13.93"/>
  <path class="cls-10" d="M925.99,723.18c-1.74,3.43-3.41,6.89-5.07,10.36-4.11,8.58-8.09,17.23-11.92,25.95-4.95,11.25-9.66,22.6-13.98,34.11-4.3,11.46-8.27,23.09-11.26,34.97-2.29,9.08-4.36,18.72-3.67,28.15.07.9.16,1.79.3,2.68.14.92,3.05.25,2.9-.78-1.36-8.88.51-18.26,2.51-26.89,2.71-11.72,6.5-23.18,10.62-34.46,4.25-11.62,8.93-23.09,13.85-34.44,3.98-9.17,8.12-18.26,12.41-27.28,1.36-2.86,2.74-5.72,4.13-8.56.43-.88.86-1.75,1.3-2.62.21-.42.56-.91.68-1.37.02-.06.06-.12.09-.18.3-.59-.99-.6-1.24-.57-.64.08-1.35.36-1.65.95h0Z"/>
  <g>
    <path class="cls-9" d="M459.18,471.67s6.9,71.46,100.43,68.01c107.66-3.97,106.39-71.46,106.39-71.46l28.62,6.9s-15.68,93.09-135.62,91.89c-119.94-1.2-125.04-88.11-125.04-88.11l25.22-7.23Z"/>
    <path class="cls-10" d="M457.73,472.05c.25,2.61.88,5.22,1.56,7.75,1.69,6.35,4.22,12.47,7.41,18.2,4.44,7.99,10.29,15.11,17.22,21.06,9.03,7.73,19.81,13.2,31.15,16.63,15.9,4.8,32.66,5.66,49.16,4.74,16.46-.92,33.04-3.45,48.61-9.01,10.97-3.92,21.51-9.38,30.42-16.95,6.57-5.58,12.23-12.22,16.42-19.77,2.97-5.34,5.2-11.12,6.54-17.09.65-2.88,1.38-6.12,1.23-9.11,0-.14,0-.28,0-.42l-2.31,1.05c8.35,2.01,16.7,4.03,25.05,6.04,1.19.29,2.38.57,3.56.86l-.61-.78c-.51,3.05-1.42,6.06-2.37,8.99-2.35,7.29-5.65,14.62-9.53,21.38-5.55,9.69-12.51,18.55-20.63,26.22-10.23,9.65-22.27,17.23-35.23,22.65-17.17,7.18-35.74,10.51-54.27,11.33-20.49.92-41.48-.72-61.24-6.4-14.39-4.14-28.16-10.59-39.93-19.91-8.83-6.99-16.39-15.56-22.2-25.21-4.28-7.11-7.6-14.81-9.84-22.8-1.14-4.05-2.07-8.22-2.45-12.42-.02-.19-.04-.39-.05-.58l-1.21,1.29c7.35-2.11,14.7-4.21,22.04-6.32l3.17-.91c1.76-.5,1.29-2.32-.49-1.81-7.35,2.11-14.7,4.21-22.04,6.32-1.06.3-2.12.61-3.17.91-.62.18-1.25.59-1.21,1.29.18,3.02.8,6.05,1.48,8.99,1.72,7.49,4.44,14.75,7.94,21.58,4.92,9.58,11.45,18.29,19.3,25.67,10.39,9.76,22.81,17.06,36.1,22.12,18.32,6.98,38.07,9.8,57.59,10.28,20.2.5,40.63-1.47,59.96-7.59,14.62-4.63,28.51-11.63,40.54-21.18,9.49-7.53,17.74-16.53,24.45-26.61,4.95-7.43,9.06-15.43,12.18-23.79,1.6-4.29,3.03-8.69,3.92-13.18.04-.2.08-.4.11-.6.06-.38-.26-.7-.61-.78-8.35-2.01-16.7-4.03-25.05-6.04-1.19-.29-2.38-.57-3.56-.86-.64-.16-2.33.08-2.31,1.05.04,2.08-.25,4.19-.59,6.23-.85,5.2-2.41,10.22-4.57,15.01-3.18,7.06-7.63,13.49-13.02,19.04-7.29,7.51-16.19,13.29-25.7,17.6-13.56,6.15-28.3,9.43-43.03,11.13-17.13,1.98-34.8,2.34-51.76-1.2-12.16-2.54-23.93-7.12-34.11-14.33-7.73-5.48-14.38-12.41-19.56-20.35-3.85-5.9-6.89-12.33-9.02-19.04-1.12-3.51-1.89-7.05-2.5-10.68-.03-.16-.04-.33-.06-.49-.12-1.2-3.02-.53-2.9.78Z"/>
  </g>
  <ellipse class="cls-9" cx="1009.56" cy="230.56" rx="203.43" ry="165.83"/>
  <polygon class="cls-9" points="845.45 267.2 761.54 366.24 889.73 343.49 845.45 267.2"/>
  <path class="cls-5" d="M984.4,194.5c7.5-8.03,13.47-14.37,13.42-22.82.08-11.22-4.83-21.89-13.42-29.11-11.57-9.93-31.7-14.37-53.14,2.17-5.08-6.15-12.57-9.8-20.55-9.98-15.13.34-28.33,10.35-32.75,24.83-4.66,12.67-1.98,26.88,6.97,36.98,7.77,8.56,16.22,16.75,24.46,24.67l6.5,6.18c2.54,2.38,4.97,4.86,7.4,7.34,2.43,2.48,5.28,5.28,7.87,7.77,1.59,1.66,3.77,2.63,6.08,2.69.58.05,1.16.05,1.74,0,2.59-.68,4.61-2.7,5.28-5.28.9-3.04-.15-6.33-2.64-8.29l-3.17-3.12-9.03-9.03c-.33-.26-.56-.64-.63-1.06,0,0,0-.26.48-.53h0c.33.25.62.55.85.9,3.17,3.49,6.6,6.81,9.88,10.04l2.11,1.95c3.09,3.5,8.44,3.82,11.93.73.15-.13.29-.27.43-.41,1.31-1.24,2.09-2.95,2.17-4.75-.09-2.62-1.26-5.08-3.22-6.81-2.27-2.32-4.54-4.65-6.87-6.92l-4.12-4.12-.37-.37c-.54-.47-1-1.02-1.37-1.64l.48-.53c.48-.53.48-.37.53-.37h0c.37,0,1.22,1.11,1.53,1.48v.42c2.21,2.59,4.57,5.04,7.08,7.34,1.22,1.16,2.43,2.27,3.59,3.49,2.96,3.57,8.26,4.06,11.83,1.1.04-.03.07-.06.11-.09,1.43-1.28,2.27-3.1,2.32-5.02-.1-2.6-1.24-5.06-3.17-6.81l-3.49-3.43c-2.01-1.95-4.07-3.96-5.97-6.08-.46-.48-.95-.92-1.48-1.32-.53-.42-1.58-1.32-1.64-1.69s0,0,.26-.48.74-.37.74-.37h0c.79,0,2.27,1.53,3.17,2.43h0c3.8,3.96,7.34,7.45,10.57,10.57,2.65,3.18,7.38,3.62,10.56.97,2.54-2.11,3.4-5.64,2.11-8.68h0l4.6-4.91ZM975.1,205.06c-1.36,1.35-3.55,1.35-4.91,0-3.43-3.22-6.92-6.71-10.57-10.57h0c-1.36-2.23-3.65-3.74-6.23-4.12h0c-1.33.02-2.58.62-3.43,1.64-.84.83-1.3,1.98-1.27,3.17.38,1.79,1.46,3.36,3.01,4.33.39.31.76.64,1.11,1,1.95,2.17,4.07,4.23,6.13,6.23,1.11,1.11,2.27,2.22,3.38,3.38,1.23,1.04,2.01,2.52,2.17,4.12-.08.91-.49,1.76-1.16,2.38-2.11,1.61-5.13,1.2-6.74-.92,0-.01-.02-.02-.03-.03l-3.65-3.54c-2.4-2.2-4.66-4.54-6.76-7.03l-.11-.42c-.9-1.51-2.4-2.57-4.12-2.91-1.27-.09-2.51.39-3.38,1.32-.98.79-1.58,1.96-1.64,3.22.16,1.72,1.04,3.3,2.43,4.33l.37.37,4.12,4.12c2.32,2.27,4.6,4.54,6.87,6.87,1.2,1,1.97,2.41,2.17,3.96-.02.83-.41,1.6-1.06,2.11-1.81,1.86-4.79,1.9-6.65.09-.11-.11-.22-.23-.32-.35l-2.01-2.01c-3.22-3.17-6.6-6.44-9.67-9.83-1.16-1.96-3.69-2.6-5.65-1.43-.19.11-.37.24-.53.38-1.06.75-1.74,1.93-1.85,3.22-.04,1.47.58,2.89,1.69,3.86l8.98,9.09,3.12,3.12c1.8,1.8,2.27,2.96,1.74,4.49-.3,1.3-1.3,2.32-2.59,2.64-1.6.32-3.26-.24-4.33-1.48-2.64-2.54-5.28-5.28-7.82-7.77s-4.91-4.97-7.4-7.4l-6.55-6.34c-8.19-7.87-16.69-16.01-24.3-24.25-8.14-9.12-10.52-22.01-6.18-33.44,3.93-12.64,15.31-21.51,28.53-22.24h.58c6.89.19,13.36,3.35,17.75,8.66l-4.12,3.49c-4.17,3.54-8.51,7.18-12.89,10.57-5.3,4.3-6.54,11.88-2.91,17.64,3.91,5.95,11.9,7.61,17.85,3.7.44-.29.87-.61,1.27-.95,5.28-3.91,11.41-8.51,17.43-13.31q1.53-1.27,2.69,0l6.55,7.4c6.34,7.18,12.89,14.63,19.86,21.5.84.81,1.5,1.78,1.95,2.85.96,1.58.54,3.62-.95,4.7v.37ZM977.95,196.08l-1.27-1.43c-6.87-6.71-13.37-14.1-19.65-21.13l-6.55-7.71c-.94-1.29-2.38-2.11-3.96-2.27-1.46.13-2.82.77-3.86,1.8-5.97,4.75-12.1,9.35-17.33,13.21-3.78,3.39-9.59,3.07-12.98-.72-.36-.4-.68-.83-.97-1.29-2.39-4.13-1.45-9.37,2.22-12.41,4.44-3.43,8.82-7.13,13-10.57l5.65-4.81c20.39-16.43,39.04-12.73,49.71-3.38,7.78,6.55,12.22,16.24,12.1,26.41,0,6.92-5.28,12.78-12.41,20.18l-3.7,4.12Z"/>
  <path class="cls-6" d="M1012.06,312.52c-24.32,0-28.99-12.59-29.7-15.08-.34-1.26.41-2.55,1.67-2.88.06-.01.11-.03.17-.04,1.26-.33,2.56.4,2.92,1.65.52,1.93,4.24,11.64,24.7,11.64s24.61-9.71,25.17-11.64c.35-1.3,1.69-2.07,2.99-1.72s2.07,1.69,1.72,2.99c-.94,2.5-5.66,15.08-29.65,15.08Z"/>
  <path class="cls-6" d="M1011.88,343.63c-28.98,0-52.46-23.49-52.46-52.46s23.49-52.46,52.46-52.46,52.46,23.49,52.46,52.46c-.03,28.96-23.5,52.44-52.46,52.46ZM1011.88,243.61c-26.29.08-47.55,21.46-47.47,47.75.08,26.29,21.46,47.55,47.75,47.47,26.26-.08,47.49-21.4,47.47-47.66-.03-26.32-21.38-47.64-47.7-47.61-.02,0-.03,0-.05,0v.05Z"/>
  <path class="cls-6" d="M996.84,283.58c-4.46.39-8.57-2.41-9.85-6.69-.25-1.28.58-2.52,1.86-2.77.02,0,.05,0,.08-.01,1.24-.28,2.48.5,2.76,1.74,0,.03.01.06.02.09,0,.28.85,2.92,5.23,2.92h0c4.15,0,5-2.69,5.09-2.97.3-1.24,1.54-2.01,2.78-1.71.01,0,.03,0,.04.01,1.24.28,2.03,1.51,1.75,2.76,0,0,0,.02,0,.02-1.3,4.17-5.3,6.91-9.66,6.6h-.09Z"/>
  <path class="cls-6" d="M1027.01,283.58c-4.44.37-8.53-2.43-9.8-6.69-.26-1.28.56-2.52,1.84-2.78,0,0,0,0,0,0,1.27-.23,2.5.58,2.78,1.84,0,.28.85,2.92,5.19,2.92h0c4.15,0,5-2.69,5.09-2.97.3-1.24,1.54-2.01,2.78-1.71.01,0,.03,0,.04.01,1.24.28,2.03,1.51,1.75,2.76,0,0,0,.02,0,.02-1.3,4.17-5.3,6.91-9.66,6.6Z"/>
  <path class="cls-7" d="M1136.78,144.29c-11.96-.62-23.96-.27-35.86,1.06-5.98,1.76-11.12,5.35-14.59,10.18-3.47-4.83-8.62-8.43-14.59-10.18-11.91-1.33-23.93-1.68-35.91-1.06-2.97.31-5.16,2.72-4.98,5.48v75.62c-.17,3.06,2.37,5.68,5.68,5.85h31.18s13.4-.97,15.84,7.74l.4,1.11c.04.44.2.87.45,1.24h0c.58,1.07,1.99,1.5,3.14.96.77-.36,1.27-1.09,1.29-1.89h0v-1.43c2.44-8.8,15.74-7.83,16.09-7.79h31.38c3.21-.27,5.62-2.83,5.48-5.81v-75.62c.18-2.76-2.01-5.17-4.98-5.48ZM1069.34,226.73h-33.47c-.33,0-.6-.25-.6-.55,0-.02,0-.03,0-.05v-77.46c11.81-.59,23.66-.26,35.41.97,5.6,1.92,10.3,5.59,13.3,10.37v71.15c-4.2-2.96-9.36-4.52-14.64-4.42ZM1137.23,226.04c0,.29-.24.53-.55.55h-31.48c-6.01-.39-11.98,1.24-16.78,4.61v-70.87c3.03-4.86,7.81-8.57,13.5-10.51,11.69-1.23,23.47-1.55,35.21-.97.04.07.04.16,0,.23l.1,76.95Z"/>
  <path class="cls-12" d="M447.89,271.43s-13.8-26.73-23.16-26.67c-5.7.04-19.45,15.24-19.3,29.77.21,19.43,13.74,41.51,17.12,52.84,3.37,11.33,2.81,27.62,17.91,27.52,5.98-.04,13.37-12.54,13.37-12.54,0,0-2.82-53.29-5.94-70.91Z"/>
  <path class="cls-13" d="M442.97,297.91c-3.44-7.28-7.24-14.49-11.98-21.02-2.46-3.38-5.21-6.68-8.59-9.19-1.37-1.02-2.94-2-4.63-2.34-1.84-.38-2.63,1.07-3.37,2.54-3.34,6.58-3.09,14.42-1.32,21.4.22.86,2.39.29,2.17-.58-1.4-5.53-1.82-11.38-.25-16.92.42-1.48.98-2.93,1.72-4.28.2-.36.41-.72.64-1.06.07-.1.46-.62.18-.27l-1.29.45c.08,0,.2,0,.28.03-.35-.15-.02,0,.12.03.16.05.32.08.48.13.89.28,2.05.94,3.02,1.61,4.73,3.28,8.31,8.31,11.4,13.07,3.51,5.42,6.51,11.16,9.27,16.99.39.83,2.53.17,2.17-.58h0Z"/>
  <path class="cls-13" d="M437.27,300.72c-1.92-.09-3.96.44-5.07,2.15-1.03,1.6-1.01,3.69-.92,5.51.12,2.35.55,4.67.87,6.99.23,1.69.71,3.88.06,5.54-.04.09-.47.69-.46.72-.01-.04.66-.24.65-.15,0,0-.29-.18-.32-.21-.66-.81-1.16-1.61-1.58-2.57-1.4-3.21-2.2-6.71-2.87-10.13-.46-2.37-1.03-5.03-1.03-7.12,0-1.68.1-3.36.28-5.02.52-4.75,1.78-11.68,6.73-13.82,1.38-.59.14-1.48-.9-1.04-4.81,2.07-6.73,7.46-7.6,12.24-.65,3.56-.94,7.26-.42,10.85.6,4.13,1.41,8.27,2.73,12.23.59,1.78,1.43,4.86,3.32,5.75,1.68.79,3.31-.66,3.73-2.22.51-1.92.05-4.17-.22-6.09-.39-2.73-2.85-12.46,2.2-12.24.44.02,1.24-.15,1.43-.62s-.16-.72-.62-.74h0Z"/>
  <path class="cls-12" d="M675.12,271.43s13.8-26.73,23.16-26.67c5.7.04,19.45,15.24,19.3,29.77-.21,19.43-13.74,41.51-17.12,52.84-3.37,11.33-2.81,27.62-17.91,27.52-5.98-.04-13.37-12.54-13.37-12.54,0,0,2.82-53.29,5.94-70.91Z"/>
  <path class="cls-13" d="M682.15,298.29c4.07-8.61,8.61-17.35,14.86-24.61,2.33-2.71,5.15-5.57,8.32-6.8-.42.16,1.15-.35.54-.16.15-.04.66-.03.08-.04l-.61-.27c1.29,1.61,2.06,3.73,2.62,5.68,1.6,5.57,1.17,11.47-.23,17.03-.24.95,1.97.67,2.19-.21,1.66-6.56,1.98-13.82-.76-20.15-.55-1.27-1.3-3.71-3.01-3.5s-3.29,1.12-4.66,2.05c-3.2,2.16-5.84,5.13-8.18,8.16-5.36,6.93-9.5,14.75-13.24,22.65-.5,1.06,1.69.96,2.06.17h0Z"/>
  <path class="cls-13" d="M685.68,301.88c5.23-.23,3.88,7.32,3.43,10.49-.32,2.22-.77,4.48-.76,6.73,0,1.32.27,3.38,1.94,3.52,2.12.18,3.36-1.67,4.15-3.34,1.56-3.32,2.38-7.03,3.08-10.61.47-2.42,1.05-4.93,1.05-7.41,0-1.83-.11-3.66-.33-5.48-.63-5.2-2.2-11.86-7.52-14.15-.51-.22-2.48.59-1.77.89,4.54,1.95,6.13,7.62,6.87,12.06.56,3.37.8,6.8.29,10.18-.59,3.94-1.36,7.89-2.59,11.68-.42,1.31-.9,2.62-1.55,3.84-.21.39-.44.79-.72,1.13-.06.07-.35.3-.37.39,0,.04.7-.07.69-.2,0-.1-.56-.61-.64-.76-.16-.31-.25-.65-.31-.99-.15-.86-.11-1.77-.05-2.64.17-2.33.63-4.62.91-6.94.26-2.17.58-4.64-.18-6.75-.76-2.08-2.64-2.72-4.71-2.62-.35.02-1.3.16-1.45.54s.13.44.53.42h0Z"/>
  <path class="cls-12" d="M669.93,402.12c3.49-3.4,8.02-19.77,8.05-24.69.08-14.56.79-18.72,1.74-40.86.97-22.14,5.05-41.87,6.99-63.04,1.92-21.18,4.32-104.1-1.94-120.96-1.87-5.01-9.75-12.55-21.01-20.67-26.5-19.13-71.69-41.42-100.74-41.42-41.4,0-115.51,45.25-121.78,62.09-6.25,16.86-3.85,99.77-1.92,120.96,1.92,21.17,6.02,40.9,6.99,63.04.95,22.14-.2,47.65,3.24,55.88.76,1.81,4.82,6.66,6.11,8.53,8.73,12.76,19.22,16.13,31.74,29.03,0,0,9.58,11.24,18.08,15.87s119.96.77,125.47,0c5.51-.77,39-43.77,39-43.77"/>
  <path d="M438.43,259.22s-4.13-4.25-11.04-25.07c-2.52-7.58-6.26-91.31-1.87-106.74,7.05-24.75,82.44-64.67,138.85-62.6,71.64,2.64,127.8,35.05,137,52.04,7.46,13.78,1.06,97.37-3.89,115.3-2.82,10.21-9.64,22.6-9.64,22.6,0,0,.11-37.36-9.4-56.21-9.51-18.85-8.05-56.27-12.76-61.42-4.71-5.15-53.22-17.33-101.3-17.65-57.53-.38-99.4,17.38-102.28,19.57-2.88,2.19-3.4,39.31-5.66,50.12-2.26,10.81-15.95,38.6-18,70.05Z"/>
  <path d="M570.54,328.54c-5.65,2.3-9.78,2.39-13.49-.88-.82-.72-3.71.06-2.56,1.08,4.89,4.31,14.2,3.66,19.31-.09.51-.38.45-.9-.16-1.17-.62-.29-2.57.66-3.11,1.06"/>
  <path d="M552.45,326.17c-3.59-1.05-7.43-1.22-11.13-.82-.54.06-1.19.42-1.51.88-.25.36-.24.78.22.95,1.89.73,4.12.75,6.09.32.62-.13,1.41-.46,1.64-1.11.22-.6-.45-.83-.93-.73-1.62.35-3.35.32-4.91-.28-.44.61-.86,1.22-1.3,1.82,3.32-.36,6.75-.17,9.96.77.64.19,1.44-.17,1.89-.61.34-.33.64-1,0-1.19"/>
  <path d="M575.86,327.02c3.58-1.09,7.41-1.31,11.12-.95.54.06,1.2.4,1.52.86.25.36.24.77-.21.95-1.88.75-4.11.79-6.08.39-.62-.13-1.41-.45-1.65-1.09-.23-.6.44-.84.92-.74,1.63.33,3.36.28,4.91-.33.44.6.88,1.21,1.32,1.81-3.32-.32-6.75-.1-9.95.88-.64.2-1.44-.15-1.9-.59-.34-.32-.65-.99-.01-1.19"/>
  <path d="M537.82,327.87c-3.67-.12-7.99-2.19-9.79-5.77-2.73-5.4-.19-11.82,4.4-15.27.5-.38.23-.86-.27-1-.66-.18-1.44.13-1.96.53-3.99,3.01-6.58,7.9-5.98,12.96.56,4.73,4.07,8.04,8.47,9.41,1.31.41,2.7.68,4.07.73.56.02,1.56-.2,1.83-.76.28-.57-.23-.82-.75-.84"/>
  <path d="M590.85,328.01c3.67-.12,7.99-2.19,9.79-5.77,2.73-5.4.19-11.82-4.4-15.27-.5-.38-.23-.86.27-1,.66-.18,1.44.13,1.96.53,3.99,3.01,6.58,7.9,5.98,12.96-.56,4.73-4.07,8.04-8.47,9.41-1.31.41-2.7.68-4.07.73-.56.02-1.56-.2-1.83-.76-.28-.57.23-.82.75-.84"/>
  <path d="M501.29,248.9c-3.72-1.93-8.08-.26-10.51,1.9-.58.51-2.12,1.95-2.83,4.4-.92,3.13.33,6.67,2.29,8.83,2.62,2.88,6.99,3.37,10.35,1.81,4.55-2.12,6.03-7.6,4.9-11.58-.21-.73-1.18-3.8-4.19-5.36"/>
  <path d="M626.84,250.29c3.72-1.93,8.08-.26,10.51,1.9.58.51,2.12,1.95,2.83,4.4.92,3.13-.33,6.67-2.29,8.83-2.62,2.88-6.99,3.37-10.35,1.81-4.55-2.12-6.03-7.6-4.9-11.58.21-.73,1.18-3.8,4.19-5.36"/>
  <path d="M595.07,265.28s21.46-15.6,32.43-16.61c16.01-1.47,35.74,6.73,41.41,14.07,0,0-26.11-12.26-37.35-10.92-10.75,1.28-36.48,13.46-36.48,13.46Z"/>
  <path d="M534.29,262.92s-21.46-15.6-32.43-16.61c-16.01-1.47-35.74,6.73-41.41,14.07,0,0,26.11-12.26,37.35-10.92,10.75,1.28,36.48,13.46,36.48,13.46Z"/>
  <path d="M535.54,206.58c-.02,3.82-.05,7.65-.08,11.49-.03,2.92-.05,5.84-.09,8.75-8.58-2.51-15.92-4.15-21.47-5.23-11-2.15-22.46-3.51-33.61-1.72-5.34.86-10.02,2.31-14.48,5.23-1.41.92-5.21,4.93-7.31,3.88-.86-.43.57-5.13.72-5.61,2.93-9.47,10.47-13.37,19.67-15.59,18.76-4.51,37.61-3.91,56.65-1.22"/>
  <path d="M594.4,207.98c.02,3.82.05,7.65.08,11.49.02,2.92.05,5.84.09,8.75,8.44-2.51,15.67-4.15,21.13-5.23,10.82-2.15,22.11-3.51,33.08-1.72,5.25.86,9.86,2.31,14.26,5.23,1.39.92,5.13,4.93,7.19,3.88.85-.43-.56-5.13-.71-5.61-2.89-9.47-10.3-13.37-19.36-15.59-18.46-4.51-37.02-3.91-55.76-1.22"/>
  <path class="cls-8" d="M563.94,359.53c-21.81,0-57.14-2.49-57.14-2.49,0,0,6.59,52.48,57.14,52.48s57.14-52.48,57.14-52.48c0,0-35.34,2.49-57.14,2.49Z"/>
  <path class="cls-11" d="M564.15,359.53c-10.37,0-52.15-1.7-52.15-1.7,0,0,13.82,32.79,51.31,32.79,40.65,0,52.6-32.47,52.6-32.47l-51.76,1.38Z"/>
  <path class="cls-3" d="M564.6,361.05c-10.37,0-41.91-1.7-41.91-1.7,0,0,11.36,11.04,42.46,11.04s40.98-10.72,40.98-10.72l-41.52,1.38Z"/>
  <path class="cls-8" d="M623.37,353.94c-1.1-.26-7.14,1.68-12.29,1.25-8.58-.72-18.96-2.91-25.18-3.38-10.61-.79-17.35,3.28-21.97,3.28s-11.35-4.07-21.97-3.28c-6.22.46-16.6,2.66-25.18,3.38-5.15.43-11.18-1.52-12.29-1.25-1.53.36,1.44,11.3,59.45,11.3s60.95-10.93,59.42-11.3Z"/>
  <path class="cls-10" d="M284.57,663.24c.91,28.79,1.69,57.59,2.29,86.4.47,22.95.83,45.89,1.06,68.84.21,20.5.33,41,.43,61.5.11,21.12.21,42.24.39,63.36.21,25.13.52,50.25.93,75.38.06,3.51.12,7.02.18,10.53,0,.43,2.91,0,2.9-.78-.46-25.83-.81-51.66-1.04-77.49-.2-21.43-.31-42.85-.42-64.28-.1-20.41-.21-40.83-.39-61.24-.21-22.47-.52-44.93-.95-67.39-.54-27.92-1.26-55.84-2.1-83.75-.12-3.95-.24-7.91-.37-11.86-.01-.44-2.92,0-2.9.78h0Z"/>
  <path class="cls-10" d="M823.19,672.9c0,16.55-.04,33.09-.22,49.64-.12,10.54-.32,21.08-.62,31.62-.27,9.42-.63,18.84-.96,28.26-.46,13.07-.88,26.13-1.23,39.2-.59,21.64-1.05,43.27-1.45,64.91-.06,3.4-.12,6.8-.19,10.2,0,.4,2.88.03,2.9-.78.41-22.99.87-45.97,1.47-68.96.36-13.83.78-27.66,1.26-41.49.33-9.61.7-19.21,1-28.82.31-10.15.53-20.3.67-30.45.21-15.57.26-31.15.28-46.72,0-2.46,0-4.92,0-7.38,0-.41-2.9-.02-2.9.78h0Z"/>
  <g>
    <path class="cls-4" d="M551.49,739.43c-25.99,0-47.21-21.3-47.21-47.45s21.21-47.37,47.21-47.37,47.21,21.3,47.21,47.45-21.13,47.45-47.21,47.45v-.08ZM551.49,656.11c-19.68,0-35.71,16.11-35.71,35.87s16.03,35.87,35.71,35.87,35.71-16.11,35.71-35.87-16.03-35.87-35.71-35.87Z"/>
    <path class="cls-2" d="M691.24,819.75c-7.13-1.13-27.37-1.46-42.67.65-41.21,5.59-77.41,29.07-83.16,32.96h-2.35c-5.75-3.72-42.75-26.8-84.05-32.31-17.17-2.27-28.5-2.19-35.95-2.11h-6.4c-1.54,0-2.75,1.21-2.83,2.75,0,1.54,1.13,2.91,2.75,3h6.56c7.37,0,18.46-.16,35.22,2.11,42.67,5.67,82.02,31.66,82.43,31.9l.73.49h5.83l.73-.49c.4-.24,38.87-26.72,81.46-32.47,14.82-2.02,34.25-1.7,41.05-.65,1.54.24,3-.81,3.24-2.35s-.81-3-2.35-3.24h0l-.24-.24Z"/>
    <g>
      <path class="cls-2" d="M553.51,861.45c-11.74-6.56-37.08-18.79-69.15-23.4-44.78-6.4-58.38-1.94-58.38-1.94l19.84,67.37s51.9-11.17,107.69,18.06v-60.08h0Z"/>
      <path class="cls-2" d="M646.3,836.92c-32.71,3.48-58.14,17.25-69.55,24.53v60.4c50.61-26.72,108.1-18.22,108.1-18.22l19.84-67.37s-13.44-4.13-58.38.73v-.08Z"/>
      <path class="cls-2" d="M570.11,865.75h-9.47s-.16-.08-.49-.32v58.06h9.96v-57.81h0v.08Z"/>
    </g>
    <g>
      <path class="cls-4" d="M573.51,701.78c-.4-.4-1.05-.57-2.11-.49-.81.08-1.62.73-2.35,1.3-.4.32-.81.65-1.13.81-6.88,3.72-15.47,4.78-24.21,3-3.4-.73-6.56-2.27-9.47-3.81-.4-.24-.81-.49-1.21-.81-1.05-.73-2.19-1.54-3.08-.73-.97.97-1.21,2.59-.49,4.29.08.24.24.4.32.65.08.16.24.32.32.49,3.56,7.29,13.28,9.88,21.21,9.88h0c9.15,0,16.03-3,20.49-8.91.81-1.05,1.38-2.27,1.7-3.48.16-.73.32-1.7-.16-2.27l.16.08Z"/>
      <path class="cls-4" d="M531.49,690.85c1.13.24,2.19-.16,3-1.13v-.16c.89-.89,1.7-1.86,2.51-2.67,1.13-.97,2.02-.97,3.24,0,.97.81,1.86,1.86,2.43,2.67.73.89,1.62,1.38,2.59,1.38s1.13-.16,1.62-.57c.65-.49,1.13-1.13,1.21-1.94.16-.81,0-1.62-.57-2.27-1.05-1.38-2.02-2.51-3.08-3.48-1.7-1.54-3.64-2.43-5.83-2.59h-.81c-.57.08-1.13.16-1.62.4-2.75.97-4.94,2.91-6.72,5.99-.4.73-.32,1.78-.24,2.11.24,1.13,1.05,1.94,2.27,2.11v.16Z"/>
      <path class="cls-4" d="M557.07,690.77c.24,0,.49.08.73.08.89,0,1.7-.4,2.43-1.21l.32-.4c.65-.81,1.38-1.62,2.11-2.35,1.21-1.05,2.19-1.05,3.4,0,.89.73,1.7,1.7,2.35,2.59.32.4.73.81,1.3,1.05l-.49.24h1.7c1.13,0,2.02-.49,2.59-1.46.57-1.05.57-2.11,0-3.08-1.3-2.11-2.91-3.64-4.7-4.78-2.19-1.38-4.37-1.7-6.4-.97-2.83.89-5.18,2.91-7.13,6.15-.24.4-.32,1.05-.24,1.62.16,1.21.89,2.11,2.19,2.43l-.16.08Z"/>
    </g>
    <path class="cls-4" d="M677.96,808.5h0c-6.72-15.87-18.79-28.66-33.77-35.79-6.8,9.47-17.81,15.63-30.28,15.63s-21.62-5.18-28.42-13.28c-17.89,10.28-30.85,28.99-34.25,51.09-34.49-20.16-73.28-24.13-83.16-24.78,3.81-22.43,16.92-44.13,36.52-59.76l5.83-4.7c2.67-2.11,3.08-5.99.97-8.66-2.11-2.67-5.99-3.08-8.66-.97l-5.83,4.7c-25.02,20-40.65,48.99-42.19,78.06,10.28.08,51.09,2.27,95.55,27.37h0c4.7,2.67,9.47,5.67,14.17,8.91,32.47-26.32,72.96-34.33,95.79-36.68h.65c10.28-1.13,16.28-.81,17.08-.81,0,0,0-.16-.08-.24h0l.08-.08Z"/>
    <path class="cls-4" d="M613.83,720.89c-16.44,0-29.8,13.44-29.8,29.88s13.36,29.88,29.8,29.88,29.72-13.44,29.72-29.88-13.36-29.88-29.72-29.88h0ZM598.21,747.61c0-.4,0-.89.16-1.21,1.05-1.78,2.43-3.16,4.37-3.89.49-.16,1.05-.24,1.54-.32,1.46.08,2.75.65,3.72,1.62.73.73,1.46,1.46,2.02,2.35s.4,1.86-.4,2.43-1.78.32-2.43-.49c-.49-.65-1.05-1.3-1.7-1.86-.89-.73-1.62-.73-2.51,0-.65.57-1.21,1.21-1.78,1.94-.49.57-1.05.81-1.7.65s-1.13-.57-1.3-1.21h0ZM628.17,761.29c-.16.73-.57,1.38-1.05,2.02-2.02,2.51-5.43,4.21-8.66,4.86-1.62.32-3.32.49-4.94.73-3.89-.16-7.61-.97-10.77-3.24-.97-.73-1.78-1.7-2.59-2.59-.16-.16-.32-.4-.4-.65-.4-.89-.32-1.78.24-2.27s1.54.49,2.43.97c1.94.97,3.89,1.86,6.07,2.35,5.26.97,11.09.57,15.87-1.78.65-.32,1.38-1.21,2.11-1.3,1.21-.16,1.86,0,1.62,1.13h0l.08-.24ZM630.51,748.01c-.32.57-.81.81-1.46.81s-1.05-.32-1.46-.81c-.49-.65-1.05-1.21-1.62-1.78-.89-.81-1.7-.81-2.67,0-.65.57-1.13,1.21-1.7,1.86-.49.57-1.13.89-1.86.65-.73-.16-1.13-.65-1.3-1.46,0-.32,0-.65.16-.97,1.13-1.86,2.51-3.32,4.62-4.05,1.46-.49,2.83-.16,4.13.65s2.27,1.86,3.08,3.16c.4.57.4,1.21,0,1.78h0l.08.16Z"/>
  </g>
</svg>