<?xml version="1.0" encoding="UTF-8"?>
<svg id="Layer_1" data-name="Layer 1" xmlns="http://www.w3.org/2000/svg" xmlns:xlink="http://www.w3.org/1999/xlink" viewBox="0 0 1334 1000">
  <defs>
    <style>
      .cls-1 {
        fill: #121f47;
      }

      .cls-2 {
        fill: #010101;
      }

      .cls-3 {
        fill: #0b0f10;
      }

      .cls-4 {
        fill: #18130e;
      }

      .cls-5 {
        fill: #6f2c18;
      }

      .cls-6 {
        fill: #563834;
      }

      .cls-7 {
        fill: #003045;
      }

      .cls-8 {
        fill: #371b16;
      }

      .cls-9 {
        fill: #914a3b;
      }

      .cls-10 {
        fill: #612f1f;
      }

      .cls-11 {
        fill: #352414;
      }

      .cls-12 {
        fill: #f1ece1;
      }

      .cls-13 {
        fill: #8a5534;
      }

      .cls-14 {
        fill: url(#linear-gradient);
        opacity: .5;
      }

      .cls-15 {
        fill: #fabc1d;
      }

      .cls-16 {
        fill: #020202;
      }

      .cls-17 {
        fill: #7b5044;
      }

      .cls-18 {
        fill: #fff;
      }

      .cls-19 {
        fill: #161748;
      }

      .cls-20 {
        fill: #e35a26;
      }

      .cls-21 {
        fill: #0c191f;
      }

      .cls-22 {
        fill: #f0ebf5;
      }

      .cls-23 {
        fill: #b06c4f;
      }

      .cls-24 {
        fill: #62c0eb;
      }

      .cls-25 {
        fill: #21595c;
      }

      .cls-26 {
        fill: #552d23;
      }

      .cls-27 {
        fill: #868887;
      }

      .cls-28 {
        fill: #a2cbd5;
      }

      .cls-29 {
        fill: #291810;
      }

      .cls-30 {
        fill: #743621;
      }

      .cls-31 {
        fill: #d04627;
      }

      .cls-32 {
        fill: #3f2119;
      }

      .cls-33 {
        fill: #22595d;
      }
    </style>
    <linearGradient id="linear-gradient" x1="-1112.89" y1="3441.24" x2="-180.15" y2="3441.24" gradientTransform="translate(-2762.4 1041.37) rotate(90) scale(1 -1)" gradientUnits="userSpaceOnUse">
      <stop offset="0" stop-color="#f1ece1"/>
      <stop offset=".18" stop-color="#efe9de" stop-opacity=".99"/>
      <stop offset=".33" stop-color="#e9e1d5" stop-opacity=".97"/>
      <stop offset=".46" stop-color="#dfd5c6" stop-opacity=".94"/>
      <stop offset=".59" stop-color="#d0c3b1" stop-opacity=".88"/>
      <stop offset=".72" stop-color="#beab95" stop-opacity=".82"/>
      <stop offset=".84" stop-color="#a78f74" stop-opacity=".74"/>
      <stop offset=".95" stop-color="#8d6d4d" stop-opacity=".64"/>
      <stop offset="1" stop-color="#825f3c" stop-opacity=".6"/>
    </linearGradient>
  </defs>
  <polyline class="cls-12" points="-121.41 1077.52 -121.41 -94.13 1482.3 -94.13 1482.3 1077.52"/>
  <polyline class="cls-14" points="1406.83 858.14 -49.15 858.14 -49.16 -74.6 1406.83 -74.6"/>
  <path class="cls-5" d="M1586.16,932.91l-1.8-.68-3.18-126.58c-4.71-95.53-30.54-164.86-85.5-170.24-37.41,0-163.97-1.73-176.57,7.96-3.49-165.95,14.54-298.35-256.54-298.35l-298.83.72c-3.19,73.26-11.88,146.26-22.67,218.78-13.53,90.96,12.97,181.37-.89,272.27-6.96,45.69,53.18,91.71,47.28,137.54-6.01,46.69-12.09,93.38-17.99,140.09-8.98,71.03-17.6,142.16-25,213.41h853.09v-148.05c21.24-6.95,36-29.91,36.12-56.17v-105.6c-.06-40.47-17.21-66.88-47.51-85.1Z"/>
  <path class="cls-5" d="M860.64,1326.93c.83-20.8,1.64-41.6,2.27-62.4,1.47-47.87,12.98-95.72,12.98-143.61l-11.11-774.99-643.02-1.82c-139.23.02-162.4,132.4-165.89,298.35-12.6-9.69-139.16-7.96-176.57-7.96-54.96,5.38-80.79,74.71-85.5,170.24l-3.18,126.58-1.8.68c-30.3,18.22-47.45,44.63-47.51,85.1v105.6c.11,26.26,14.88,49.22,36.12,56.17v148.05H860.64Z"/>
  <path class="cls-25" d="M821.1,653.23c-3.02-19.4.77-40.25,1.35-59.76l-191.15,8.58s-14.56-1.79-38.51-19.5l-68.84,25.22c1.85,20.1,1.63,67.88,9.55,75.56,14.31,39.26,62.48,24.22,88.59,20.59,37.32-5.19,74.49-11.2,111.16-20.01,17.54-4.21,73.22-11.13,90.55-16.12.13-.04,2.73,1.7,3.05,1.59-1.48-4.63-4.98-11.2-5.76-16.16Z"/>
  <path class="cls-23" d="M436.57,228.18s-4.09,54.82-21.25,82.95c-2.75,4.51-30.45,11.38-30.45,11.38l5.23,9.42c4.52,8.13,62.97,135.12,70.59,140.44,37.95,26.5,48-74.74,72.87-96.15l-5.51-23.75s-6.87-3.7-6.83-9.93c.04-6.23,17.38-51.16,17.38-51.16"/>
  <path class="cls-13" d="M428.9,249.05c-.02.11-.03.21-.05.32-.01-.14,0-.26.05-.32Z"/>
  <path class="cls-23" d="M488.74,330.22l36.13,7.2,18.87.2c1.81.47,14.08-16.02,15.88-18.05,5.57-6.31,12.04-16.04,16.28-23.33,4.54-7.81,12.39-12.39,16.08-22.21,2.7-7.19,3.97-12.38,2.88-25.42-.28-3.31.42-6.38,1.96-9.5,3.27-6.56,5.79-14.56,9.97-23.4.33-.7,2.03-4.03,1.93-4.89,0,0,8.36-39.11,4.66-54.67-3.7-15.56-10.09-23.76-19.67-28.83-9.59-5.07-40.17-10.45-40.17-10.45l-40.23-15.93-39.59,9.05-28.27,38.71-9.35,50.54-5.34,45.87"/>
  <path class="cls-32" d="M508.83,326.49c-.33.12-18.61-6.81-18.97-6.93l-8.62-6.94s-.04-.05-.05-.06c-.96.13-2.02-.06-3.1-.75-5.59-3.56-10.09-8.23-14.27-13.33-3.75-4.58-6.5-16.42-11.17-20.14-2.21-1.76-1.15-2.31-2.87-4.41.06.6-.86,3.88-.79,4.48,6.57,14.6,19.03,45.04,30.94,55,.92.49,3.79,2.1,11.84,4.77,10.57,3.5,18.86,6.01,29.75,7.12,2.03-7.56,3.69-16.69,5.6-24.29-3.86-1-5.78,1.18-18.3,5.45Z"/>
  <path class="cls-16" d="M521,212.32c-1.98-1.77-4.91-1.44-6.74-.5-.43.22-1.61.86-2.43,2.25-1.06,1.77-.85,4.14,0,5.77,1.15,2.18,3.75,3.17,6.05,2.75,3.12-.58,4.9-3.7,4.84-6.32-.01-.48-.12-2.52-1.72-3.95"/>
  <path class="cls-16" d="M584.31,229.17c2.59-.59,4.99,1.12,6.14,2.83.27.4.99,1.53,1.04,3.15.07,2.06-1.26,4.04-2.8,5.05-2.06,1.35-4.82.96-6.63-.53-2.45-2.02-2.49-5.61-1.17-7.87.24-.41,1.33-2.14,3.42-2.62"/>
  <path class="cls-16" d="M567.39,234.01s10.55-7.07,16.68-6.14c8.96,1.35,10.63,4.14,12.56,9.44,0,0-4.5-6.17-10.84-6.94-6.06-.73-18.4,3.64-18.4,3.64Z"/>
  <path class="cls-16" d="M538.51,224.01s-11.51-12.23-18.21-14.15c-9.78-2.8-23.02-.03-27.4,3.87,0,0,17.68-4.55,24.51-2.39,6.54,2.06,21.1,12.67,21.1,12.67Z"/>
  <path class="cls-16" d="M544.51,191.86c1.12.95.4,1.81-.22,4.16-.2.75-.48,1.91-.77,3.13-.55,2.28-3.19,3.35-5.16,2.09-3.53-2.28-6.62-4.51-9.17-5.67-6.89-3.15-13.8-6.89-21.41-7.65-3.64-.36-6.94-.26-10.33.79-1.07.33-4.19,2.16-5.4,1.16-.5-.41,1.18-3.05,1.35-3.32,3.4-5.32,8.96-6.46,15.35-6.28,13.02.37,23.68,6.75,35.77,11.58"/>
  <path class="cls-16" d="M610.64,207.92s-3.45-1.78-3.48-1.79c-7.45-3.88-15.34-5.88-23.5-6.87-4.14-.5-7.96,2.32-8.82,6.4,0,.02-.01.05-.02.07-.17.81-1.14,3.17-.78,3.94.07.15.2.26.33.36,1.43,1.07,3.24,1.52,5.02,1.58,2.21.08,4.35-.5,6.54-.51,6.31-.02,12.97-.12,18.83,2.32.46.19,2.95,1.29,3.39,1.5,2.63-2.86,3.22-6.31,2.48-7.01Z"/>
  <g>
    <path class="cls-16" d="M547.84,270.02c-3.28.8-7.58-.7-10-3.28-.54-.57-2.78-.73-2.03.07,3.21,3.42,9.45,5.27,13.68,4.24.42-.1.43-.41,0-.69-.44-.29-1.21-.45-1.66-.34"/>
    <path class="cls-16" d="M534.77,265.64c-1.69-1.44-3.74-2.49-5.86-3.22-.31-.1-.75-.09-1.04.06-.23.12-.32.33-.12.53.85.85,2.06,1.42,3.23,1.7.37.09.88.12,1.17-.15.27-.25-.04-.54-.32-.61-.97-.23-1.91-.68-2.61-1.38-.39.2-.77.4-1.16.6,1.9.65,3.72,1.61,5.23,2.9.3.26.82.28,1.18.17.27-.08.6-.34.3-.6"/>
    <path class="cls-16" d="M526.1,263.69c-2.52-.72-5.21-2.62-5.95-4.89-1.12-3.43,1.81-7.54,5.46-8.61.4-.12.28-.43-.05-.59-.43-.22-1.01-.18-1.43-.06-3.18.93-5.93,4.2-6.23,7.07-.28,2.68,1.68,5.11,4.52,6.65.84.45,1.77.85,2.71,1.12.38.11,1.1.17,1.37-.09.27-.26-.05-.49-.4-.59"/>
    <path class="cls-16" d="M552.82,269.9c-.06-.33.24-.46.45-.41.68.2,1.43.18,2.14-.15.15.34.3.68.45,1.01-1.41-.2-2.9-.1-4.34.43-.29.1-.61-.1-.78-.34-.13-.18-.22-.55.07-.66"/>
    <path class="cls-16" d="M550.81,269.78c1.61-.58,3.28-.68,4.86-.45.23.04.49.23.6.49.09.2.06.43-.15.53"/>
    <path class="cls-16" d="M557.99,271.61c1.67.36,3.89-.27,5.21-2.01,1.98-2.63,1.75-6.42.18-8.84-.17-.26.02-.5.26-.51.32-.02.63.24.81.51,1.37,2.1,1.84,5.07.86,7.77-.92,2.52-2.96,3.91-5.13,4.15-.64.07-1.31.06-1.93-.08-.25-.06-.67-.29-.71-.63-.04-.34.22-.42.46-.37"/>
  </g>
  <path class="cls-10" d="M535.85,284.67c-11-2.88-28.5-8.84-28.5-8.84,0,0-2.8,30.08,22.71,36.75,25.51,6.68,29.64-22.32,29.64-22.32,0,0-12.84-2.71-23.85-5.59Z"/>
  <path class="cls-16" d="M535.96,284.7c-5.23-1.37-26.09-7.77-26.09-7.77,0,0,3.68,21.44,22.6,26.39,20.52,5.37,25.84-13.42,25.84-13.42l-22.36-5.2Z"/>
  <path class="cls-22" d="M535.98,285.54c-5.23-1.37-20.92-6.42-20.92-6.42,0,0,4.23,7.22,19.93,11.33,15.69,4.11,22.13-.14,22.13-.14l-21.14-4.77Z"/>
  <path class="cls-10" d="M560.95,288.44c-.5-.28-1.38-.4-3.83-1.28-4.08-1.47-5.13-2.28-8.1-3.31-5.07-1.77-8.9-.52-11.15-1.1-2.25-.59-4.98-3.56-10.26-4.5-3.09-.55-10.89-1.38-15.17-2.1-2.57-.43-5.25-2.21-5.82-2.22-.8,0-.83,6.04,27.44,13.44,28.28,7.4,27.59,1.46,26.89,1.08Z"/>
  <path class="cls-23" d="M455.35,199.67c-.21,3.88-4.22,18.81-4.65,22.59l-19.67-4.98c-2.96-14.32-6.67-20.92-8.13-24.92-2.28-6.24.52-27.3,1.35-33.78,1.4-10.92,8.21-23.83,14.41-33.31,6.82-10.44,13.59-16.04,23.97-22.58,21.18-13.35,53.92-16.11,83.41-7.04,2.8.86,5.58,1.83,8.23,2.87,25.15,9.86,44.02,21.51,55.65,46.91,8.39,18.32,5.84,32.8.31,55.17,4.21-21.52,1.16-40.43.98-41.13-3.82-16.19-11.99-22.47-18.17-24.9-5.39-2.11-9.93-1.61-10.83-1.47-6.65-.07-15.72-3.08-22.17-5.61-4.81-1.88-8.56-3.65-9.58-4.14-2.82-3.09-7.47-5.95-13.44-8.29-13.87-5.44-35.25-7.78-40.99-2.53-6.36,5.82-22.79,28-24.2,33.74,0,0-15.01,25.54-16.5,53.4Z"/>
  <path class="cls-23" d="M542.08,327.76c-.24-.09-.45-.23-.62-.41-3.2-3.44-3.15-4.93-4.91-5.82-.41-.2-.59-.41-1.88-.92-5.19-2.04-8.32-3.39-24.91,2.27-.33.12-18.61-6.81-18.97-6.93l-8.62-6.94c-1.39-1.4-30.46-40.87-30.46-40.87-.3-1.16-5.14-10.04-5.17-11.09-.1-.08-.19-.18-.31-.25-.04-.03-.12-.09-.21-.15-.03.06-.07.14-.1.18-.17.4-.26.85-.34,1.27-.36,1.86,3.17-9.91,3.3-8.02.2,2.91-.09,6.65,0,9.54.03,1.02-.17,15.14-.05,16.15,3.53,3.58,20.93,42.76,34.2,53.85.92.49,1.63,2.29,9.69,4.96,15.13,5.01,30.04,8.58,46.3,7.82,4.24-.2,8.12-2.26,10.6-5.55,7.07-9.4,22.71-30.34,28.96-45.42-6.39,8.07-19.95,25.4-29.26,37.19-.28.36-6.22-.73-6.74-.71"/>
  <path class="cls-2" d="M455.35,199.67c-.21,3.88-4.22,18.81-4.65,22.59l-19.67-4.98c-2.96-14.32-6.67-20.92-8.13-24.92-2.28-6.24.52-27.3,1.35-33.78,1.4-10.92,5.4-30.71,11.6-40.19,6.82-10.44,16.65-16.91,27.03-23.45,21.18-13.35,53.67-8.36,83.16.71,2.8.86,5.58,1.83,8.23,2.87,25.15,9.86,44.02,21.51,55.65,46.91,8.39,18.32,6.56,32.75,3.06,43.33,4.21-21.52.17-30.06-.1-30.73-5.07-12.77-11.26-23.59-17.45-26.02-5.39-2.11-12.31.94-13.21,1.08-6.65-.07-15.72-3.08-22.17-5.61-4.81-1.88-8.56-3.65-9.58-4.14-2.82-3.09-19.76-13.82-25.74-16.16-13.87-5.44-24.62-4.62-30.36.62-6.36,5.82-21.12,32.72-22.53,38.46,0,0-15.01,25.54-16.5,53.4Z"/>
  <path class="cls-23" d="M433.97,251.21c-14.95,13.3-16.67-15.68-16.67-15.68-7.83-16.33-4.19-30.7-1.3-40.43,2.89-9.73,13.67-6.85,13.67-6.85,8.93,3.32,11.79,9.28,11.65,42.2"/>
  <path class="cls-16" d="M429.77,213.14c-3.34.13-5.08,2.87-5.78,5.86-.24,1.03-.28,2.04-.42,3.08-.34,2.55-.71,4.86-.27,7.45.27,1.64,1.96,8.57,5,6.78.84-.5.95-1.62,1.03-2.51.14-1.62.02-3.25.01-4.87-.01-1.28-.28-3.75.78-4.73.82-.76,3.33.67,4.21,1.01.1.04.55-.04.53-.2-.43-4.95-.76-9.9-1.81-14.77-.66-3.05-1.52-6.2-3.12-8.91-.53-.9-1.28-2.16-2.26-2.65-.68-.34-1.26.28-1.77.71-3.57,3.01-5.25,7.73-5.85,12.23-.02.15.56.05.58-.1.56-4.17,2-8.41,5.02-11.45.14-.14,1.71-1.31,1.7-1.39,0-.07-.41.03-.4.1,0,.03.23.13.26.16.84.86,1.59,1.59,2.21,2.67,1.45,2.52,2.28,5.4,2.92,8.21,1.15,5.05,1.5,10.2,1.94,15.34l.53-.2c-1.36-.52-3.91-2.15-5.22-.74-.68.72-.74,1.94-.8,2.87-.1,1.5,0,3.01,0,4.52.01,1.26.13,2.79-.4,3.97-.91,2.01-2.81-1.12-3.22-1.97-1.04-2.16-1.51-4.62-1.55-7.01-.03-1.74.43-3.37.55-5.08.21-3.21,1.4-8,5.34-8.15.16,0,.64-.26.25-.25h0Z"/>
  <path class="cls-23" d="M808.23,637.19c-4.75,30.07-3.98,99.86-3.98,99.86l-36.9,107.4-16.02,28.76s59.05-58.44,101.22-101.81c14.44-14.85,8.1-83.15,8.34-120.3-16.75-6.4-35.03-12.86-52.65-13.92Z"/>
  <path class="cls-23" d="M872.97,678l4.99-1.17s49.92,15.64,65.43,14.68c11.23-1.14,22.44-3.93,33.3-8.28l12.71,3.12c5.85,1.44,12.22.61,18.04-2.34l4.48-2.27s14.43,8.56,17.81,3.61c3.38-4.95-1.06-9.77-5.37-14.44-4.31-4.68-97.06-45.44-97.06-45.44,9-3.98,25.04-2.64,34.37-4.99,14.35-3.51,19.19-10.26,13.34-15.17-3.61-3.02-15.11-4.71-22.97-.63-7.84,4.07-44.19-2.87-58.42,2.78-14.23,5.65-25.25,24.71-25.25,24.71-7.28,3.98-3.99,1.97-3.99,1.97l8.6,43.89Z"/>
  <path class="cls-23" d="M562.83,582.16l7.35-8.67c-6.78,3.85-20.53,5.25-20.64,5.05-.22-.42-2.6-3.61-2.62-3.66-24.14,14.49-49.69,41.01-40.27,70.64,11.35,19.89,28.68,26.01,68.5,9.39,3.07-1.28,34.51-17.56,42.61-22.9-6.47-21.39-46.05-29.39-54.92-49.84Z"/>
  <path class="cls-23" d="M554.78,448.55c-13.34-1.1-15.69,19.59-29.05,18.83-9.18-.52-18.39-.8-27.58-.54-4.17.12-8.22.77-12.26,1.45.03.85.07,1.71.11,2.55,1.62,32.81,6.28,43.68,10.74,76.18,2.95,21.47,1.96,43.43,6.67,64.67,2.4,10.82,6.35,21.29,12.68,30.45,7.66,11.07,17.92,14.07,31.06,15.1,3.7.29,31.78-61.12,30.47-68.04-8.11-42.85-19.53-114.17-22.84-140.65Z"/>
  <path class="cls-26" d="M575.67,577.48c-7.93,2.79-15.51,6.66-21.92,12.14-4.74,4.05-8.67,8.89-11.89,14.21-1.47,2.43-2.79,4.96-4.07,7.49-.38.75,1.09.78,1.39.19,2.31-4.57,4.78-9.05,7.91-13.12,4.15-5.4,9.31-9.96,15.14-13.49,4.33-2.62,8.96-4.71,13.73-6.39.86-.3.61-1.35-.28-1.04h0Z"/>
  <path class="cls-4" d="M-211.85,932.34c15.63-.03,31.25-.06,46.88-.09,42.15-.08,84.3-.15,126.44-.23,62.73-.11,125.47-.23,188.2-.34,76.02-.14,152.03-.28,228.05-.42,83.82-.15,167.65-.31,251.47-.46,84.04-.15,168.08-.31,252.12-.46,78.9-.14,157.79-.29,236.69-.43,66.23-.12,132.45-.24,198.68-.36,47.95-.09,95.9-.17,143.85-.26,22.57-.04,45.14.12,67.71-.12.99-.01,1.97,0,2.96,0,1.33,0,3.68-2.01,1.34-2-15.63.03-31.25.06-46.88.09-42.15.08-84.3.15-126.44.23-62.73.11-125.47.23-188.2.34-76.02.14-152.03.28-228.05.42-83.82.15-167.65.31-251.47.46-84.04.15-168.08.31-252.12.46-78.9.14-157.79.29-236.69.43-66.23.12-132.45.24-198.68.36-47.95.09-95.9.17-143.85.26-22.57.04-45.14-.12-67.71.12-.99.01-1.97,0-2.96,0-1.33,0-3.68,2.01-1.34,2h0Z"/>
  <path class="cls-11" d="M1028.8,677.68c-11.35,15.75-22.91,31.88-28.93,50.55s-6.22,37.73-6.86,56.71c-.5,14.56-.85,29.12-1.17,43.68-.37,16.44-.69,32.88-1.01,49.32-.28,14.38-.54,28.77-.84,43.15-.03,1.46-.06,2.91-.09,4.37-.01.63,3.48.14,3.5-.94.3-13.85.55-27.7.82-41.55.31-16.34.63-32.67.98-49.01.33-14.97.68-29.95,1.15-44.92.57-18.09.67-36.56,4.97-54.23,4.69-19.28,15.44-36,26.83-51.97,1.37-1.92,2.75-3.83,4.13-5.75.4-.55-1.28-.43-1.42-.41-.72.11-1.6.38-2.04,1h0Z"/>
  <path class="cls-6" d="M827.95,791.48c-.07.03-.15.05-.22.06,0-.19,0-.38,0-.57.08.17.15.34.23.51Z"/>
  <path class="cls-7" d="M898.78,871.29l-7.78-112.8-72.3,19.57,1.88,91.2c26.08.22,52.13,1.39,78.2,2.03Z"/>
  <path class="cls-7" d="M824.86,790.97l-96.55,63.9c20.34,1.96,38.69,25.93,44.43,37.7,6.39,13.07,5.83,24.89,9.16,37.67l122.7-9.9c-12.68-23.01-66.71-106.56-79.75-129.37Z"/>
  <path class="cls-7" d="M884.61,881.64c25.26-.22,50.53-.82,75.79-.24,13.68.31,27.17,1.76,40.61,3.66l6.78-39.64c3.04-20.63,3.18-41.61.41-62.29l-3.3-24.65-142.7,3.55,21.4,74.35,1.02,45.24Z"/>
  <path class="cls-7" d="M992.03,929.38c39.53-35.36,27.76-92.45,16.52-130.84-6.79-23.19-80.98,40.76-93.28,19.96l-75.79,46.24-11.56,9.09c.81,3.05-18.66,1.3-17.73,4.32,2.94,9.54-2.01,22.69,7.2,18.97,16.38-6.62,41.76,12.49,48.21,20.21,14.87,17.79,9.4,3.71,11.48,16.57,8.78-5.36,93.74-3.1,93.74-3.1l21.2-1.42Z"/>
  <path class="cls-6" d="M859.53,664.81c.04.11.11.2.18.29.19-.21.38-.42.57-.62-.25.11-.5.22-.76.33Z"/>
  <path class="cls-6" d="M823.5,688.06c.05.11.11.21.19.3.2-.22.4-.43.59-.65-.26.12-.52.23-.79.35Z"/>
  <path class="cls-23" d="M884.97,535.74c2.15.03,3.22,0,5.36-.06,8.82-.27,17.9-.62,26.66-1.78,13.51-1.78,24.71-9,36.18-15.71-.72,8.34-.63,18.66,2.12,24.66l-.43,2.42c-20.67,27.85-32.82,43.94-93.67,21.37l22.62-30.19,1.16-.72Z"/>
  <path class="cls-23" d="M863.51,448.78c.63-3.8,1.38-8.21,2.32-13.52.27-1.54.58-3.01.89-4.47.23-.73.39-1.48.5-2.24,5.93-25.63,17.1-37.44,17.1-37.44,14.25-14.95,35.34-21.17,55.38-16.34,23.7,5.18,42.31,23.88,50.63,40.64,4.14,8.3,5.07,17.85,2.62,26.8-2.08,7.65-8.21,13.9-11.96,21.91,8.39,1.26,15.95,5.85,9.9,20.57-8.34,20.31-23.26,24.18-28.52,17.1-1.53-.03-6.4,8.74-7.62,13.08-.09.33-4.58,23.58-4.67,23.93-12.47,5.43-35,3.01-48.87,3.52-8.7.32-13.6-.82-22.27-1.53-2.1-.17,3.62-6.98,1.52-7.24l1.78-9.26c-.59-.16-1.12-.23-3.64-1.61-18.18-8.73-21.76-35.69-20.94-45.52.69-8.34,3.82-23.65,5.86-28.37Z"/>
  <path class="cls-8" d="M882.24,524.28s22.3,6.29,45.33-3.12c0,0-3.81,6.33-19.33,8.6-15.53,2.27-26.73-1.8-26.73-1.8l.73-3.67Z"/>
  <ellipse class="cls-2" cx="874.71" cy="444.12" rx="5.15" ry="5.17" transform="translate(-18.83 39.22) rotate(-2.54)"/>
  <path class="cls-2" d="M869.56,438.71c2.72-1.06,6.24-1.41,11.05-.02,7.71,2.23,9.34,12.76,9.34,12.76,0,0-2.71-8.33-10.26-10.71-3.64-1.15-10.19-.17-13.32.73.22-.73,1.54-2.03,3.18-2.75Z"/>
  <path class="cls-26" d="M983.46,485.81c1.28-2.22,2.16-4.83,1.79-7.43-.08-.57-.07-1.23-.71-1.29-2.19-.21-4.56,1.35-6.21,2.56-2.64,1.94-4.93,4.32-7.09,6.77-.35.4.95.1,1.07.04.36-.17,1.16-.41,1.72-.11.81.44.8,1.69.66,2.48-.16.91-.61,1.77-1.29,2.4-1.08,1-2.48,1.08-3.88.95-.3-.03-.79.07-1.02.27-.19.17-.23.29.08.32,3.07.28,6.98-.81,7.55-4.31.19-1.16,0-2.56-1.37-2.81-1.08-.19-2.32.17-3.29.62l1.07.04c1.84-2.09,3.77-4.11,5.93-5.87,1.17-.95,2.43-1.88,3.83-2.46.11-.04.43-.16.48-.18.12-.04.34-.09.36-.09.25-.05.17-.05.39-.03.11,0,.07-.07.12.02-.17-.27-.07.06-.06.11.02.22.12.44.16.66.5,2.64-.4,5.34-1.71,7.61-.13.23.51.15.58.14.26-.04.7-.14.85-.39h0Z"/>
  <ellipse class="cls-2" cx="927.23" cy="454.99" rx="5.15" ry="5.17" transform="translate(-19.26 41.56) rotate(-2.54)"/>
  <path class="cls-2" d="M912.38,455.54s9.63-8.78,18.13-6.39c11.95,3.36,13.09,8.81,14.68,13.17,0,0-6.03-8.79-15.33-11.16-8.44-2.15-17.47,4.39-17.47,4.39Z"/>
  <path class="cls-2" d="M917.17,436.11c.02-.24.7-.16.72-.4,11.11-1.45,19.27-.49,22.15.62,2.19.84,4.23,2.23,6.1,3.99,0,0,5.19,4.73,5.67,6.38.48,1.65-3.38-1.3-3.38-1.3-.85-.46-1.41-.95-2.31-1.26-4.92-1.73-9.5-4.25-14.7-4.21-3.72,0-8.75,1.54-12.9,2.83-1.09.34-2.17-.59-1.98-1.71.27-1.64.59-3.23.62-4.94Z"/>
  <path class="cls-2" d="M894.4,432.18c-8.85-4.64-15.98-6.48-18.73-6.53-2.09-.04-4.23.38-6.34,1.15,0,0-.71.25-1.66.61-.17.81-.36,1.61-.57,2.41.34-.05.68-.08,1.07-.07,4.65.22,9.27-.28,13.61,1.4,3.01,1.14,6.59,3.77,9.61,6.03.98.73,2.38.19,2.62-1,.23-1.16.46-2.31.89-3.46.06-.19-.54-.35-.48-.54Z"/>
  <path class="cls-2" d="M967.08,481.52c.06-.12.51-.56.57-.68,1.75-2.77,5.53-7.73,8.44-9.39,1.33-.76,2.89-1.58,4.45-1.94,1.56-.35,3.24-.78,4.86-.66,2.32-.1,4.5.39,6.55,1.47.34.24.67.48,1.01.71,9.44-17.13,18.86-34.26,10.11-59.46-2.53-7.26-11.21-16.5-13.85-19.43-16-17.61-32.65-22.08-53.8-24.32-24.52-2.59-46.71,5.98-57.25,29.11-2.54,5.58-1.46,2.71-3.1,7.74,0,0,3.7-11.29,16.72-15.81,13.01-4.53,13,6.08,29.33,9.84,18.92,4.27,27.3-4.76,40.9,6.33,12.41,10.16,14.01,23.15,14.01,23.15.41,8.71,3.06,15.02-1.22,24.02-1.03,2.14-1.96,4.33-2.84,6.54-.99,4.15-4.3,5.91-4.41,10.22-.05,2.11-3.68,9.99-2.17,11.58,1.63,1.71-.49,1.26,1.68.98Z"/>
  <g>
    <path class="cls-2" d="M889.89,479.05c1.49,1.28,4.13,1.67,6.08,1,.43-.15,1.64.37,1.04.58-2.58.88-6.32.16-8.25-1.49-.19-.17-.11-.32.18-.35.3-.03.75.09.95.27"/>
    <path class="cls-2" d="M897.85,480.31c1.26-.28,2.61-.27,3.91-.08.19.03.42.16.52.31.09.12.08.26-.08.3-.66.2-1.45.17-2.13,0-.22-.05-.49-.17-.57-.39-.07-.2.16-.26.33-.22.57.14,1.17.16,1.72,0,.15.2.3.41.45.61-1.16-.17-2.36-.17-3.49.08-.22.05-.5-.08-.66-.23-.12-.11-.22-.33,0-.38"/>
    <path class="cls-2" d="M902.88,481.63c1.5.31,3.4.06,4.39-.9,1.49-1.45,1.11-4.54-.51-6.06-.18-.16-.03-.29.18-.29.28,0,.57.18.76.35,1.41,1.32,1.93,3.94,1.32,5.48-.57,1.44-2.23,2.15-4.12,2.18-.56,0-1.15-.04-1.71-.15-.23-.05-.62-.21-.69-.41-.07-.21.15-.24.37-.19"/>
    <path class="cls-2" d="M887.32,477.67c.12-.15,0-.3-.12-.33-.41-.08-.79-.29-1.07-.65-.17.13-.34.26-.51.39.79.27,1.54.72,2.15,1.37.12.13.34.11.5.03.11-.06.26-.22.14-.35"/>
    <path class="cls-2" d="M888.4,478.14c-.68-.73-1.53-1.22-2.41-1.52-.13-.04-.32-.01-.44.09-.1.08-.14.2-.06.31"/>
    <path class="cls-2" d="M884.18,477.16c-.96-.26-1.96-1.17-2.18-2.41-.33-1.87.8-3.73,2.26-4.54.16-.09.12-.26,0-.33-.16-.1-.39-.04-.56.05-1.27.71-2.31,2.09-2.51,3.72-.19,1.53.5,2.78,1.57,3.48.32.21.66.38,1.02.48.15.04.43.03.54-.13.11-.16,0-.27-.14-.31"/>
  </g>
  <path class="cls-28" d="M818.81,677.14s1.52,21.51.88,43.41c-.64,19.89-10.02,38.08-14.65,80.59,7.59,2.82,13.21,11.42,20.85,14.14,8.81,3.14,18.43,4.14,27.71,4.83,8.63.64,17.28.8,25.93.89,7.94.08,15.89.31,23.83.24,15.27-.14,30.54-1.34,45.63-3.64,19.99-3.04,46.62-4.62,65.49-12.24-9.57-51.16-22.34-119.1-22.68-120.37-.84-3.19-.12-14.89-4.79-39.53,0,0,33.87-6.79,42.35-12.26,0,0,6.96-58.22-40.54-82.17-19.43-9.8-22.24-12.69-39.02-17.71,0,0-21.62,29.35-55.81,25.83-34.2-3.52-18.11-25.83-18.11-25.83-8.79.38-37.85,21.05-43.08,24.96-37.37,27.92-27.56,84.53-36,109.43,7.32,11.03,21.99,9.44,21.99,9.44Z"/>
  <path class="cls-19" d="M817.3,611.6c.46,6.15.67,12.32.75,18.48.02,1.7.02,3.02-.1,4.66-.61,8.5-1.04,17.02-1.16,25.54-.09,5.68-.07,11.39.41,17.05l.82-.6c-2.57.2-6.07-.32-8.79-1.14-2.75-.82-5.39-2.11-7.65-3.89-1.27-1-2.42-2.15-3.42-3.41-.27-.34-.53-.54-.55-.9-.02-.3.2-.71.28-1,.52-1.88,1.05-3.76,1.57-5.64l-1.4.37c4.52,4.47,11.41,6.71,17.57,7.25.56.05,1.54-.74.56-.83-5.88-.51-12.49-2.73-16.79-6.99-.32-.32-1.28-.06-1.4.37-.5,1.78-.99,3.57-1.49,5.35-.13.48-.51,1.21-.37,1.69.19.66,1.13,1.47,1.59,1.97.58.63,1.2,1.23,1.85,1.79,4.06,3.47,9.3,5.27,14.57,5.73,1.21.11,2.45.16,3.66.07.29-.02.85-.23.82-.6-.86-10.22-.44-20.56.06-30.79.25-5.01.86-10.06.82-15.08-.06-6.63-.27-13.26-.76-19.87-.04-.47-1.49-.17-1.45.39h0Z"/>
  <g>
    <path class="cls-28" d="M880.33,530.69s-2.33,19.13,17.44,28.03c0,0-16.92,5.88-23.69,18.46,0,0-13.08-10.75-12.54-41.35,0,0,8.84-6.73,16.81-8.26,2.86-.55,1.98,3.12,1.98,3.12Z"/>
    <path class="cls-19" d="M879.6,530.75c-.91,7.58,2.35,15.9,7.51,21.34,2.85,3.01,6.34,5.31,10.09,7.02l.45-.84c-6.77,2.36-13.37,6.38-18.5,11.38-2.26,2.2-4.24,4.7-5.76,7.48l1.25-.34c.08.07-.02.02-.11-.1-.13-.18-.35-.34-.51-.5-.63-.64-1.22-1.33-1.77-2.05-2.1-2.7-3.74-5.73-5.07-8.87-2.16-5.12-3.47-10.58-4.2-16.07-.5-3.78-.73-7.6-.73-11.41,0-.52-.02-1.06,0-1.58,0-.12-.28,0-.2-.14.07-.13.38-.28.51-.37.78-.57,1.59-1.11,2.4-1.63,3.03-1.96,6.25-3.73,9.65-4.97,1.06-.39,4.25-1.9,4.93-.52.31.63.21,1.51.06,2.17s1.33.45,1.46-.14c.35-1.5.09-3.44-1.77-3.58-1.57-.12-3.38.63-4.83,1.14-1.73.61-3.4,1.36-5.03,2.19-2.58,1.32-5.06,2.83-7.43,4.5-.32.22-.95.53-1.14.9-.32.63-.06,2.12-.06,2.83,0,1.15.04,2.29.09,3.44.48,10.87,2.76,22.42,9.12,31.49,1.01,1.44,2.13,2.92,3.5,4.05.34.28,1.06.01,1.25-.34,3.21-5.88,8.49-10.32,14.17-13.72,2.05-1.23,4.17-2.32,6.36-3.29.64-.28,1.29-.56,1.95-.81.2-.08.4-.15.6-.23.26-.1-.06.02.06-.02.23-.08,1-.59.45-.84-6.12-2.79-11.4-7.22-14.42-13.31-1.83-3.7-2.85-7.86-2.93-12-.02-.8-.02-1.61.08-2.4.08-.68-1.39-.46-1.46.14Z"/>
  </g>
  <g>
    <polyline class="cls-28" points="893.53 566.83 892.19 610 903.3 609.82"/>
    <path class="cls-19" d="M892.8,566.91c-.15,4.87-.3,9.73-.45,14.6-.24,7.72-.48,15.45-.72,23.17-.06,1.8-.11,3.6-.17,5.4,0,.25.23.39.46.38,3.7-.06,7.41-.12,11.11-.18.6,0,1.51-.93.54-.92-3.7.06-7.41.12-11.11.18l.46.38c.15-4.87.3-9.73.45-14.6.24-7.72.48-15.45.72-23.17.06-1.8.11-3.6.17-5.4.02-.67-1.44-.4-1.46.15h0Z"/>
  </g>
  <ellipse class="cls-19" cx="901.1" cy="582.47" rx="3.69" ry="2.89"/>
  <ellipse class="cls-19" cx="901.1" cy="597.74" rx="3.69" ry="2.89"/>
  <path class="cls-23" d="M984.55,644.59c-4.75,30.07.02,99.86.02,99.86l-110.13,58.27,11.26,25.23s100.99-5.77,143.17-49.14c14.44-14.85,8.1-83.15,8.34-120.3-16.75-6.4-35.03-12.86-52.65-13.92Z"/>
  <path class="cls-26" d="M983.91,744.49c5.46,1.31,9.82,6,10.74,11.54.06.38,1.52.05,1.45-.39-.94-5.65-5.45-10.43-11.01-11.77-.33-.08-.72,0-1.02.16-.13.07-.5.37-.16.45h0Z"/>
  <path class="cls-28" d="M963.07,533.77s56.86,19.35,68.57,53.66c16.83,49.34,16.72,93.8,16.72,93.8,0,0-52.47,11.52-76.28,1.56-22.41-9.38-10.54-131.62-10.54-131.62"/>
  <path class="cls-1" d="M992.31,587.43c-7.17,2.04-12.84,8.76-15.91,15.2-3.69,7.74-4.5,16.47-4.78,24.93-.34,9.9.25,19.81,1.02,29.67.68,8.83,1.4,17.66,2.26,26.47.03.05.07.08.13.09,4.12,1.43,8.2,2.83,12.54,3.43s8.79.66,13.16.73c10.44.18,20.98-.32,31.25-2.3,5.77-1.11,11.49-2.71,16.8-5.26.11-.05.31-.14.31-.29-.1-2.99-.2-5.98-.3-8.97,0-.21-.73-.05-.78-.03-8.3,2.54-17.14,3.81-25.76,4.62s-16.8.88-25.2.57c-4.8-.18-9.65-.46-14.39-1.3-1.33-.23-3.05-.49-4.18-1.05-.38-.19-1.53.41-1.37.49,1.03.51,2.26.71,3.37.94,4.3.86,8.73,1.18,13.11,1.4,15.17.77,30.41.01,45.32-3,3.09-.63,6.2-1.29,9.22-2.22l-.78-.03c.1,2.99.2,5.98.3,8.97l.31-.29c-6.03,2.89-12.61,4.49-19.19,5.53s-13.35,1.51-20.06,1.63c-5.32.1-10.64-.02-15.95-.34-3.96-.23-7.84-.89-11.62-2.11-.89-.29-1.77-.6-2.66-.91-.45-.16-2.04-.53-2.17-.73-.05-.07-.06-1.22-.09-1.49-.13-1.36-.25-2.72-.37-4.08-.33-3.8-.64-7.6-.97-11.4-.66-7.71-1.3-15.43-1.65-23.17-.34-7.7-.42-15.44.29-23.11.61-6.61,1.91-13.19,5.07-19.1,2.94-5.52,7.76-10.85,13.73-12.98.28-.1.11-.04.13-.05.83-.24.73-.69-.12-.45h0Z"/>
  <g>
    <path class="cls-28" d="M974.19,535.62s-10.39-11.36-18.72-16.62c0,0-29.94,41.93-58.96,39.63,0,0,17.69,13.67,18.38,28.82,0,0,59.93-28.7,59.2-50.56"/>
    <path class="cls-19" d="M974.85,535.32c-5.6-6.12-11.8-12.23-18.82-16.71-.39-.25-1.01,0-1.25.34-3.45,4.83-7.41,9.34-11.49,13.64-7.99,8.44-17.08,16.43-27.65,21.46-5.88,2.8-12.32,4.6-18.88,4.11-.37-.03-1.41.4-.84.85,2.14,1.66,4.11,3.57,5.99,5.51,3.86,4,7.38,8.5,9.72,13.56,1.4,3.02,2.34,6.23,2.51,9.57.02.41.85.25,1.03.16,7.03-3.37,13.87-7.19,20.55-11.19,5.95-3.57,11.79-7.35,17.35-11.5s10.44-8.22,14.75-13.24c3.56-4.14,7.14-9.35,6.98-15.05-.02-.68-1.47-.4-1.46.15.13,4.96-2.63,9.53-5.63,13.27-4.02,5.03-8.98,9.29-14.07,13.2-9.92,7.61-20.74,14.07-31.77,19.93-2.41,1.28-4.84,2.55-7.3,3.73l1.03.16c-.58-10.77-8.55-20.25-16.28-27.11-.74-.65-1.48-1.3-2.26-1.9l-.84.85c12.1.9,23.57-5.25,32.94-12.32,8.52-6.43,16.08-14.15,22.83-22.4,1.42-1.74,2.84-3.5,4.14-5.33l-1.25.34c6.94,4.43,13.07,10.48,18.62,16.54.39.42,1.77-.13,1.34-.6h0Z"/>
  </g>
  <path class="cls-7" d="M731.95,1109.45c10.03.9,20.49.4,30.5-.61,6.18-.62,19.45-1.62,25.71-3.63l-1.76-97.61c.81-17.78,9.89-65.31-4.07-84.69l41.15-66.08-92.41-3.92s-41.64,22.54-28,86.62c11.63,54.62,18.57,142.73,19.86,168.36,2.94.85,6.04,1.29,9.02,1.56Z"/>
  <path class="cls-7" d="M795.31,1098.86c3.59,2.85,13.61,4.24,20.39,4.87,13.18,1.22,26.41,2.3,39.57.25,1.61-.25,9.78-.54,11.37-.87l10.48-80.64c2.93-17.73,13.39-64.82,1.71-85.91l45.86-61.35-111.78-7.58s-29.9,24.52-22.48,77.45c8.52,60.68,4.33,132.43,4.86,153.78Z"/>
  <path class="cls-3" d="M792.79,951.5c-1.24-4.99-2.11-10.1-2.85-15.19-1.49-10.35-2.28-20.96-1.25-31.39.51-5.21,1.51-10.44,3.51-15.31,1.96-4.8,5.11-8.98,8.56-12.81,8.01-8.88,17.78-16.09,27.57-22.86,4.23-2.93,8.52-5.77,12.78-8.66,2.93-1.99,5.96-3.96,8.6-6.33.39-.35.77-.72,1.12-1.11.42-.47-.37-.49-.68-.47-.57.03-1.54.23-1.94.69-1.97,2.24-4.66,3.93-7.09,5.62-4.09,2.83-8.25,5.56-12.36,8.37-9.79,6.69-19.56,13.69-27.92,22.14-3.77,3.81-7.43,8-9.98,12.74-2.39,4.45-3.71,9.43-4.49,14.39-1.67,10.58-1.12,21.48.19,32.07.51,4.13,1.16,8.24,1.94,12.33.26,1.36.53,2.71.83,4.06.16.71.24,1.54.5,2.22.03.09.05.19.07.28.16.63,3.06-.11,2.9-.78h0Z"/>
  <path class="cls-30" d="M891.19,489.22c7.36,1.65,21.26,1.58,21.26,1.58,0,0-7.03,18.87-24.1,15.04-17.07-3.83-12.44-20.36-12.44-20.36,0,0,7.91,2.08,15.28,3.73Z"/>
  <path class="cls-29" d="M891.12,489.2c3.5.79,16.94,1.74,16.94,1.74,0,0-6.24,11.67-18.9,8.82-13.73-3.08-11.03-13.39-11.03-13.39l12.99,2.83Z"/>
  <path class="cls-22" d="M890.84,489.72c3.5.79,14.29,2.56,14.29,2.56,0,0-4.73,3.12-15.23.77-10.5-2.36-11.77-6.67-11.77-6.67l12.71,3.34Z"/>
  <path class="cls-30" d="M875.4,484.25c.39-.01,1.67.06,1.67.06,2.96.39,3.5-.23,5.63.08,3.65.52,5.59,2.5,7.15,2.85,1.56.35,4.16-.61,7.68.48,2.06.64,4.94,1.51,7.89,1.91,4.32.58,7.9.3,8.25.48.49.25-3.37,5.57-22.96,1.17-19.59-4.4-15.87-7.01-15.32-7.03Z"/>
  <path class="cls-4" d="M1310.75,647.56c-12.6,17.48-25.37,35.35-32.19,56.01-6.75,20.42-7.13,42.3-7.86,63.59-.56,16.27-.95,32.54-1.32,48.81-.41,18.39-.77,36.79-1.13,55.18-.31,16.09-.6,32.18-.94,48.27-.03,1.61-.07,3.22-.1,4.83-.03,1.53,3.48.85,3.51-.4.33-15.43.62-30.87.91-46.3.35-18.28.7-36.55,1.1-54.83.37-16.8.76-33.6,1.29-50.4.64-20.11.77-40.63,5.52-60.28,5.19-21.46,17.14-40.06,29.8-57.82,1.55-2.18,3.12-4.35,4.68-6.52.5-.69-.43-1.09-.98-1.13-.82-.06-1.81.3-2.3.98h0Z"/>
  <path class="cls-4" d="M-60.69,637.36c8.63-.32,17.31.11,25.87,1.33s17.38,3.27,25.36,6.94c6.97,3.2,13.57,7.85,17.42,14.63,5.56,9.79,8.39,21.04,10,32.11,1.74,11.95,2.13,24.07,2.46,36.12.16,5.92.33,11.84.49,17.76.28,10.01.55,20.02.83,30.03.34,12.43.69,24.86,1.03,37.28l1.08,39.2c.33,11.95.66,23.91.99,35.86.25,9.09.5,18.18.75,27.27.12,4.47.25,8.94.37,13.42,0,.2.01.4.02.6.05,1.75,3.58,1.15,3.54-.31-.09-3.17-.18-6.33-.26-9.5-.23-8.22-.45-16.44-.68-24.66-.32-11.6-.64-23.19-.96-34.79-.36-13.07-.72-26.14-1.08-39.21-.35-12.79-.71-25.59-1.06-38.38l-.89-32.18c-.19-6.87-.38-13.74-.57-20.61-.24-8.69-.51-17.39-1.18-26.07-.87-11.39-2.51-22.84-6.35-33.64-1.69-4.76-3.72-9.69-6.61-13.86-2.15-3.11-4.93-5.75-7.96-7.98-6.78-4.98-14.93-7.99-23.03-10.02-8.8-2.21-17.87-3.34-26.93-3.72-4.1-.17-8.2-.18-12.29-.03-1.93.07-2.75,2.5-.35,2.42h0Z"/>
  <path class="cls-4" d="M52.18,642.47c13.94,19.34,28.03,39.23,34.1,62.63,5.37,20.67,5.41,42.4,6.05,63.62.52,17.25.88,34.5,1.23,51.76.38,19.22.72,38.44,1.06,57.66.28,16.18.55,32.37.89,48.55.03,1.52.06,3.04.1,4.55.01.5,3.52,0,3.5-.94-.34-15.47-.6-30.95-.87-46.43-.33-19.12-.67-38.24-1.04-57.35-.34-17.76-.71-35.52-1.21-53.28-.21-7.39-.44-14.78-.73-22.17-.5-12.69-1.17-25.43-3.49-37.94-2.23-12.06-6.29-23.55-11.94-34.43-5.5-10.57-12.2-20.46-19.1-30.15-1.67-2.35-3.36-4.69-5.05-7.03-.58-.81-3.73.63-3.5.94h0Z"/>
  <path class="cls-25" d="M527.12,351.63s60.55,39.28,74.79,56.4c12.52,15.04,18.23,42.31,20.2,60.86,6.06,56.83,3.84,128.41,10.94,185.13l-86.16-6.4-34.73-95.32,17.09-200.78-2.13.1Z"/>
  <path class="cls-21" d="M635.3,601.04c-12.92-1.41-26.77,3.52-35.23,13.53-2.72,3.21-4.83,6.87-6.34,10.79-.16.42,1.92.21,2.15-.37,4.68-12.12,15.37-20.82,28.23-22.82,3.24-.5,6.54-.56,9.8-.2.5.05,2.49-.8,1.4-.92h0Z"/>
  <path class="cls-25" d="M599.9,458.21l-2.41-29.24s-7.77-21.64-25.92-31.3c-10.81-5.75-37.56-43.75-43.98-47.12,2.83,18.49,3.96,21.55-6.79,28.93-3.33,2.28-20.43,3.93-31.59,2.22-10.71-1.64-27.59-6.46-36.97-11.8-17.55-9.98-40.92-43.96-43.7-55.81l-14.08,4.64s-55.8,11.58-65.58,13.65c-9.79,2.07-35.25,244.36-35.25,244.36l-44.23,74.54c-3.83,9.31-61.39,86.32-42.73,168.46,0,0,213.8-25.77,235.09-22.26,24.73,4.08,72.6,10.97,80.96.33,8.36-10.64,77.21-339.6,77.21-339.6Z"/>
  <path class="cls-21" d="M545.25,720.67c.92-2.97,1.62-6.01,2.36-9.03,1.39-5.67,2.74-11.36,4.07-17.05,1.78-7.6,3.54-15.21,5.29-22.81,2.04-8.88,4.07-17.77,6.1-26.66,2.15-9.42,4.28-18.85,6.42-28.28,2.08-9.21,4.16-18.42,6.24-27.63,1.89-8.37,3.77-16.74,5.66-25.11,1.52-6.77,3.05-13.54,4.58-20.31,1.01-4.46,2.01-8.92,3.03-13.38,2.07-9.07,3.85-18.3,6.95-27.09,1.3-3.69,2.87-7.28,4.8-10.68.58-1.03-1.62-1.01-2.07-.21-6.28,11.07-8.57,23.83-11.4,36.09-.86,3.74-1.71,7.48-2.55,11.23-1.42,6.27-2.83,12.54-4.24,18.82-1.81,8.03-3.62,16.06-5.42,24.08-2.05,9.1-4.1,18.19-6.16,27.28-2.14,9.45-4.28,18.9-6.42,28.35s-4.14,18.18-6.22,27.27c-1.84,8.02-3.69,16.04-5.56,24.05-1.45,6.24-2.92,12.47-4.42,18.7-.9,3.74-1.79,7.49-2.82,11.21-.13.46-.26.91-.4,1.37-.3.97,1.92.72,2.2-.18h0Z"/>
  <path class="cls-6" d="M606.41,828.79c-.07.02-.13.03-.2.03.02-.17.04-.33.06-.5.05.16.09.31.14.47Z"/>
  <path class="cls-7" d="M581.58,909.24c1.61-5.47,3.52-10.86,5.64-16.14,4.78-11.94,10.69-23.42,17.37-34.4,6.87-11.29,14.61-22.07,23.18-32.13,5.82-6.84-8.38-45.85-1.73-51.91-112.79-39.51-346.53-26.12-346.53-26.12,0,0-51.33-5.5-71.97,88.28-31.49,143.08,280.02,86.44,372.73,72.64.44-.07.87-.14,1.31-.21Z"/>
  <path class="cls-6" d="M437.94,507.3c.08,0,.15.02.22.05,0,.29.09.59-.17.82-.02-.29-.03-.58-.05-.87Z"/>
  <path class="cls-6" d="M442.36,589.82c-.07.04-.14.06-.21.07,0-.18-.02-.37-.03-.55.08.16.16.32.24.48Z"/>
  <path class="cls-17" d="M505.16,504c-.1-.02-.2-.04-.3-.06.1-.04.2-.09.31-.13.04.06.03.13,0,.19Z"/>
  <path class="cls-17" d="M504.24,503.98c-.13,0-.27.01-.4.02.13-.13.26-.14.4-.02Z"/>
  <path class="cls-9" d="M247.71,631.65c.47,0,1.23-.13,1.42-.64.17-.45-.15-.84-.64-.84-.47,0-1.23.13-1.42.64-.17.45.15.84.64.84h0Z"/>
  <path class="cls-9" d="M285.16,621.41c.45,0,1.23-.13,1.42-.63.17-.45-.15-.78-.63-.78-.45,0-1.23.13-1.42.63-.17.45.15.78.63.78h0Z"/>
  <path class="cls-7" d="M709.92,937.81c-21.6,65.73-77.53,273.66-107.78,353.24,0,0-89.32,6.79-97.19-12.94l22.61-524.66c66.45,9.82,122.91,11.49,165.02,38.41,49.44,31.61,34.35,94.17,17.34,145.94Z"/>
  <path class="cls-7" d="M649.18,885.51s-14.36-2.24-34.69-1.42c3.58-8.04,4.67-14,4.67-14-1.98-1.97-4.07-3.99-6.25-6.04-11.54,2.79-22.76,6.53-33.62,10.94-12.63,5.13-24.8,11.16-36.36,18-11.15,6.58-21.76.82-31.48,9.03-2.75,2.32-5.42,5.97-8.02,8.45,2.59-2.47-.61-5.07-.27-4.98-37.65,39.11-31.56,141.67-50.89,219.67-14.18,57.21-36.15,152.45-36.15,152.45,9.89,18.94,116.45,23.58,116.45,23.58,35.44-104.03,116.6-415.68,116.6-415.68Z"/>
  <path class="cls-7" d="M642.67,840.7s-11.79-53.8-49.87-69.91c-51.87-21.95-320.46-15.52-320.46-15.52l344.88,76.19"/>
  <path class="cls-3" d="M530.3,754.93c40.05,11.62,82.4,24.56,112.83,54.59,6.24,6.16,10.73,12.89,13.23,21.36,2.56,8.69,3.19,17.88,2.95,26.89-.46,17.13-4.01,34.02-8.09,50.61-2.89,11.76-5.75,23.5-9.11,35.14-4.98,17.28-10.25,34.47-15.59,51.64-13.31,42.83-27.33,85.44-40.69,128.26-15.32,49.09-29.93,98.41-43.12,148.12-1.67,6.31-3.33,12.63-4.96,18.95-.22.86,1.98.55,2.18-.24,13.04-50.49,27.54-100.58,42.91-150.4,13.96-45.22,28.72-90.19,42.88-135.35,9.32-29.74,18.61-59.51,26.06-89.78,3.87-15.75,7.69-31.53,9.15-47.72,1.52-16.79,1.17-36.01-8.77-50.42-4.94-7.15-12.17-13.14-18.95-18.49-7.28-5.74-15.09-10.77-23.23-15.18-19.01-10.29-39.62-17.42-60.21-23.82-6.03-1.87-12.09-3.67-18.15-5.43-.75-.22-2.56.89-1.31,1.25h0Z"/>
  <path class="cls-25" d="M384.86,322.51c-120.48,8.55-125.43,47.42-135,75.07-18.85,69.67-73.88,233.45-43.34,276.11,53.14,74.22,283.82,41.9,283.82,41.9l12.8-56.57-198.53-41.81s61.49-236.84,54.97-250.83"/>
  <path class="cls-27" d="M298.74,620.34c-14.36-1.58-27.69,8.64-35.38,19.89-.61.89,1.59.79,2.05.13,7.08-10.35,19.26-20.11,32.53-18.65.93.1,2.27-1.21.81-1.37h0Z"/>
  <path class="cls-3" d="M494.13,920.03c3.38-4.64,8.03-8.42,12.52-11.94,4.57-3.58,9.34-6.95,14.31-9.95.38-.23.55-.62.17-.92s-1.19-.03-1.54.18c-5.12,3.08-10.01,6.56-14.7,10.25-4.61,3.62-9.32,7.51-12.79,12.28-.32.44.27.68.61.71.51.05,1.13-.2,1.43-.61h0Z"/>
  <path class="cls-23" d="M531.64,687.77l4.85-.29s44.1,22.63,58.73,24.23c10.67.74,21.58-.06,32.42-2.38l11.36,4.96c5.23,2.28,11.32,2.53,17.22.71l4.55-1.4s12.1,10.31,16.05,6.23c3.95-4.08.58-9.29-2.69-14.35-3.27-5.06-83.32-58.04-83.32-58.04,9.04-2.27,23.8,1.56,32.89.86,13.96-.97,19.57-6.5,14.9-12.02-2.88-3.4-13.35-6.83-21.35-4.28-7.97,2.54-40.8-9.78-54.99-6.8-14.2,2.98-27.55,19.01-27.55,19.01-7.44,2.54-4.04,1.2-4.04,1.2l.97,42.36Z"/>
  <path class="cls-26" d="M660.2,712.84c-5.2-3.61-11.02-6.43-16.6-9.39-6.93-3.68-13.91-7.28-20.74-11.15-2.68-1.52-5.42-3.04-7.89-4.9-.53-.4-2.22.33-1.7.73,5.04,3.8,10.88,6.65,16.42,9.62,7.04,3.77,14.16,7.42,21.15,11.29,2.68,1.48,5.38,2.95,7.9,4.7.5.35,2.2-.39,1.46-.9h0Z"/>
  <path class="cls-26" d="M626.4,708.1c-9.02-3.91-18.04-7.81-27.05-11.72-1.28-.55-2.56-1.11-3.84-1.66-.45-.2-2.13.51-1.49.79,9.02,3.91,18.04,7.81,27.05,11.72,1.28.55,2.56,1.11,3.84,1.66.45.2,2.13-.51,1.49-.79h0Z"/>
  <path class="cls-7" d="M250.91,759s-39.3,16.91-46.12,7.83c0,0-15.58,73.19,1.89,103.9,17.48,30.71,68.54,27.56,68.54,27.56l-24.31-139.29Z"/>
  <polygon class="cls-23" points="482.59 376.41 480.72 419.48 494.93 376.41 482.59 376.41"/>
  <polygon class="cls-23" points="421.56 629.25 542.3 640.25 531.64 687.77 422.72 696.46 421.56 629.25"/>
  <path class="cls-3" d="M708.49,953.38c-1.28-6.56.71-13.04,2.68-19.25,1.98-6.26,3.84-12.56,5.52-18.91,3.36-12.71,6.08-25.58,8.15-38.56,1.16-7.28,2.11-14.6,2.86-21.93.09-.91-2.79-.34-2.87.45-2.69,26.31-8.02,52.34-15.95,77.58-2.17,6.89-4.71,14.08-3.28,21.39.15.76,3.06.07,2.9-.78h0Z"/>
  <path class="cls-21" d="M465.83,390.42c-17.94-4.11-34.47-14.65-47.59-27.34-3.18-3.07-6.18-6.33-8.93-9.79s-5.34-7.44-7.9-11.23c-3.74-5.53-7.46-11.07-11.11-16.66-1.21-1.85-2.42-3.7-3.57-5.58l-1,.62c6.67-1.75,13.34-3.51,20.01-5.26.96-.25,1.92-.5,2.88-.76l-1.17-.04c1.74,5.87,4.49,11.54,7.4,16.9,6.56,12.06,15.27,23.09,26.02,31.68,7.53,6.01,16.02,10.7,25.12,13.87.48.17,2.41-.62,1.79-.83-15.4-5.36-28.73-15.28-39.05-27.83-7.02-8.53-12.75-18.21-16.94-28.43-.8-1.94-1.58-3.92-2.18-5.93-.1-.32-1.02-.08-1.17-.04-6.67,1.75-13.34,3.51-20.01,5.26-.96.25-1.92.5-2.88.76-.11.03-1.16.36-1,.62,4.13,6.76,8.64,13.29,13.06,19.85,5.07,7.52,10.06,14.92,16.42,21.43,6.52,6.66,13.87,12.53,21.78,17.47,8.7,5.44,18.2,9.81,28.23,12.11.47.11,1.1-.06,1.52-.28.17-.09.76-.44.27-.55h0Z"/>
  <path class="cls-21" d="M492.08,382.2c8.02,1.01,16.53,1.57,24.44-.47,4.18-1.07,8.37-3.06,10.95-6.64,2.77-3.83,2.73-8.31,1.68-12.69-.35-1.46-.41-3.05-.6-4.54-.32-2.54-.64-5.07-.96-7.61l-2.09.75c2.22,2.12,4.43,4.24,6.65,6.37l4.58,4.39c.73.7,1.58,1.37,2.24,2.14-.24-.29.14.37.22.56.26.69.47,1.4.65,2.11.59,2.35.79,4.8.54,7.21-.73,7.1-5.5,12.79-11.26,16.66-6.87,4.62-15.1,5.67-23.07,3.65-.49-.13-1.2,0-1.54.41-.29.36-.26.82.25.95,7.32,1.86,15.02,1.43,21.87-1.9,6.25-3.05,12.34-8.38,14.78-15.03,1.71-4.67,1.7-10.03-.08-14.69-.26-.69-.53-1-1.07-1.52l-4.07-3.9c-2.9-2.78-5.8-5.55-8.7-8.33-.57-.54-2.21-.2-2.09.75.25,2.01.51,4.01.76,6.02.25,1.98.33,4.07.76,6.01.25,1.13.59,2.2.7,3.37.23,2.38-.13,4.92-1.24,7.08-1.68,3.27-4.86,5.33-8.27,6.49-7.99,2.72-17.06,1.97-25.26.94-.98-.12-2.25,1.27-.79,1.45h0Z"/>
  <path class="cls-21" d="M465.79,376.53c-.1,3.59-.2,7.18-.3,10.77-.24,8.62-.48,17.24-.72,25.86-.29,10.38-.58,20.77-.86,31.15-.25,9.01-.5,18.03-.75,27.04-.08,2.97-.16,5.94-.25,8.91-.04,1.38-.2,2.83-.12,4.21,0,.06,0,.13,0,.19,0,.29.16.46.44.53,4.63,1.21,9.27,2.41,13.9,3.62.48.12,1.71-.09,1.74-.76.16-3.61.32-7.22.48-10.82.38-8.62.76-17.24,1.14-25.86.46-10.47.93-20.93,1.39-31.4.4-9.01.8-18.03,1.2-27.04l.39-8.92c.06-1.4.26-2.86.19-4.25,0-.06,0-.13,0-.19.01-.28-.16-.47-.44-.53-5.24-1.09-10.47-2.18-15.71-3.27-.49-.1-1.19,0-1.54.41-.28.34-.27.78.24.88,5.24,1.09,10.47,2.18,15.71,3.27l-.44-.53c-.16,3.61-.32,7.22-.48,10.82-.38,8.62-.76,17.24-1.14,25.86-.46,10.47-.93,20.93-1.39,31.4-.4,9.01-.8,18.03-1.2,27.04l-.39,8.92c-.06,1.34-.37,2.92-.19,4.25,0,.06,0,.13,0,.19l1.74-.76c-4.63-1.21-9.27-2.41-13.9-3.62l.44.53c.1-3.59.2-7.18.3-10.77.24-8.62.48-17.24.72-25.86.29-10.38.58-20.77.86-31.15.25-9.01.5-18.03.75-27.04.08-2.97.16-5.94.25-8.91.04-1.38.2-2.83.12-4.21,0-.06,0-.13,0-.19.03-.99-2.16-.59-2.18.23Z"/>
  <path class="cls-21" d="M507.33,383.58c-1.01,3.28-2.01,6.57-3.02,9.85-2.42,7.89-4.83,15.78-7.25,23.67-2.94,9.59-5.87,19.18-8.81,28.77-2.53,8.25-5.05,16.51-7.58,24.76l-2.49,8.14c-.38,1.23-1.03,2.62-1.19,3.9,0,.06-.04.12-.05.17l2.18-.24c.24-5.26.48-10.52.73-15.78.44-9.59.88-19.19,1.32-28.78.16-3.5.32-7,.48-10.5.05-1.18-.02-2.46.19-3.62.42-2.28,1.29-4.57,1.92-6.8,1.24-4.4,2.48-8.79,3.72-13.19,1.26-4.48,2.53-8.96,3.79-13.44.74-2.61,1.72-5.27,2.24-7.93.03-.13.07-.27.11-.4l-1.5.79c5.29.4,10.59.8,15.88,1.2.91.07,2.28-1.24.81-1.35-5.29-.4-10.59-.8-15.88-1.2-.53-.04-1.34.22-1.5.79-1.72,6.1-3.44,12.2-5.17,18.3-2.14,7.58-4.28,15.15-6.42,22.73-.26.91-.28,1.73-.32,2.69-.14,3.05-.28,6.09-.42,9.14-.44,9.49-.87,18.98-1.31,28.47-.19,4.09-.38,8.19-.56,12.28-.1,2.17-.3,4.36-.3,6.54,0,.1,0,.21-.01.31-.05,1.03,1.96.49,2.18-.24,1.01-3.28,2.01-6.57,3.02-9.85,2.42-7.89,4.83-15.78,7.25-23.67,2.94-9.59,5.87-19.18,8.81-28.77,2.53-8.25,5.05-16.51,7.58-24.76l2.49-8.14c.38-1.23,1.04-2.62,1.19-3.9,0-.06.04-.12.05-.17.26-.85-1.94-.57-2.18.24Z"/>
  <path class="cls-23" d="M901.96,794.35l.68,16.84,2.08,11.28s-23.45,14.5-30.32,15.11c-6.87.62-22.8,4.05-22.8,4.05,1.22,1.75,1.78,3.88,1.6,6-.38,2.43-1.74,4.6-3.76,6l-9.11-9.14c-.94,5.28-6.07,2.5-6.07,2.5l-6.94-8.26c-.87,6.58-7.61,3.13-7.61,3.13l-5.54-12.41c-1.2,2.46-2.86,4.65-4.9,6.47-2.72,2.02-4.75-2.93-4.75-2.93l7.25-22.56,28.72-15.33,51.47,1.93,10.03-2.68Z"/>
  <path class="cls-26" d="M830.54,807.01c-.02-.07-.02-.14-.04-.21-.28.12-.57.24-.84.4-1.7.88-3.34,1.88-4.9,2.99-1.76,1.22-3.72,2.56-5.64,4.17-1.84,1.48-3.51,3.16-4.98,5.01-.76.88-1.14,2.02-1.06,3.18.08.9.22,1.79.41,2.68.16,1.77.7,3.48,1.59,5.01.17-.06-.28-1.9-.66-5.09-.09-.79-.21-1.71-.25-2.57-.02-.89.32-1.75.93-2.39,1.48-1.73,3.11-3.32,4.88-4.76,1.86-1.54,3.74-2.88,5.49-4.15,1.75-1.26,3.27-2.4,4.62-3.18.23-.12.47-.23.7-.34-.09-.25-.19-.48-.26-.73Z"/>
  <path class="cls-26" d="M837,818.25c-2.58,1.59-6.34,3.42-10.16,6.12-1.06.65-1.97,1.52-2.66,2.56-.36,1.08-.56,2.2-.58,3.34-.23,1.87,0,3.77.7,5.53.59,1.08,1.27,2.11,2.04,3.08.5.68.86,1.03.86,1.03,0,0-.07-.51-.44-1.28-.37-.78-1.15-1.81-1.62-3.17-.54-1.67-.68-3.45-.4-5.18.06-.97.24-1.92.54-2.84.62-.83,1.39-1.52,2.27-2.06,3.74-2.64,7.51-4.65,9.99-6.49-.19-.21-.37-.43-.55-.64Z"/>
  <path class="cls-26" d="M848.61,828.58c-.55.13-1.09.27-1.62.45l-4.14,1.28c-1.8.48-3.48,1.29-4.97,2.4-1.63,1.21-2.54,3.16-2.42,5.18.2,1.56.89,3.02,1.98,4.16,1.82,1.84,3.16,2.45,3.29,2.41.17-.18-1.04-1.18-2.37-3.1-.84-1.03-1.34-2.3-1.45-3.62-.02-1.57.73-3.05,2-3.96,1.36-.99,2.87-1.76,4.47-2.26l4.04-1.56c.63-.25,1.21-.52,1.7-.73-.17-.21-.34-.42-.51-.63Z"/>
  <g>
    <path class="cls-33" d="M226.79,693.45c1.42,1.07,6.18,2.94,19.05,6.36,13.46,3.58,27.23,5.89,41.12,6.89,43.66,3.14,150.01,8.04,241.39-9.71h0v-59.31l-113.91-10.17-115.77-17.85s36.92-126.67,49.17-182.05c3.46-15.63,6.1-26.76-.43-41.37-3.57-7.99-8.61-16.64-15.58-19.65"/>
    <path class="cls-21" d="M225.76,693.83c1.47,1.08,3.38,1.66,5.07,2.26,4.42,1.55,8.94,2.79,13.46,3.99,12.25,3.28,24.77,5.55,37.4,6.72,14.66,1.36,29.42,1.98,44.12,2.54,19.15.74,38.31,1.04,57.48.88,22.47-.19,44.94-1.03,67.35-2.74s46.25-4.43,69.11-8.49c2.8-.5,5.6-1.02,8.39-1.56.31-.06,1.28-.26,1.28-.73v-59.31c0-.14-.33-.17-.39-.18-13.15-1.17-26.3-2.35-39.45-3.52-20.5-1.83-41.01-3.66-61.51-5.49-4.29-.38-8.62-.64-12.9-1.15-3.39-.4-6.77-1.04-10.14-1.56l-59.32-9.15c-15.21-2.35-30.43-4.69-45.64-7.04l-.73-.11.38.29c1.84-6.32,3.66-12.65,5.48-18.98,4.37-15.24,8.7-30.49,12.97-45.76,5.32-19.01,10.56-38.04,15.65-57.12,4.58-17.19,9.08-34.41,13.14-51.73,2.39-10.2,5.4-20.69,5.51-31.21.07-6.5-1.37-12.8-4-18.73-2.43-5.47-5.34-10.99-9.53-15.33-1.81-1.87-3.87-3.4-6.25-4.48-.49-.22-2.47.57-1.78.88,5.54,2.49,9.29,7.87,12.16,13.01,3.15,5.64,5.74,11.71,6.73,18.12,1.77,11.45-1.56,23.11-4.1,34.2-3.86,16.85-8.2,33.58-12.62,50.29-5,18.88-10.16,37.72-15.41,56.53-4.43,15.88-8.91,31.73-13.45,47.58-1.47,5.14-2.95,10.28-4.43,15.42-.47,1.62-.94,3.25-1.41,4.87-.22.77-.65,1.67-.72,2.47,0,.1-.06.22-.09.32-.07.24.21.26.38.29,5.72.88,11.44,1.76,17.15,2.65,12.68,1.96,25.36,3.91,38.05,5.87,13.15,2.03,26.29,4.05,39.44,6.08,6.93,1.07,13.86,2.26,20.81,3.21,4.61.63,9.32.85,13.95,1.27,12.41,1.11,24.83,2.22,37.24,3.33,13.42,1.2,26.84,2.4,40.25,3.6,4.88.44,9.77.87,14.65,1.31,2.52.22,5.08.62,7.61.68.13,0,.37,0,.49.04-.59-.25-.23-.19-.36.18-.14.39,0,1.11,0,1.53v57.42l1.28-.73c-22.69,4.39-45.65,7.33-68.67,9.31-22.25,1.91-44.57,2.94-66.9,3.3-19.71.32-39.43.12-59.13-.53-14.51-.48-29.01-1.21-43.49-2.21-11.59-.8-23.07-2.31-34.42-4.81-5.81-1.28-11.57-2.81-17.28-4.49-3.04-.9-6.16-1.79-9.06-3.09-.61-.27-1.22-.57-1.77-.96-.51-.37-2.41.49-2.04.76h0Z"/>
  </g>
  <g>
    <path class="cls-33" d="M298.65,609.66s-34.28,1.76-44.91,26.39"/>
    <path class="cls-21" d="M298.83,608.76c-4.3.22-8.64,1.11-12.8,2.18-8.53,2.21-16.86,5.86-23.61,11.62-4.3,3.67-7.78,8.23-10.04,13.41-.6,1.38,2.29,1.15,2.73.17,6.74-15.4,23.5-22.85,39.15-25.11,1.4-.2,2.82-.39,4.23-.46,1.52-.08,2.34-1.91.34-1.81h0Z"/>
  </g>
  <ellipse class="cls-18" cx="945.38" cy="174.5" rx="302.98" ry="147.67"/>
  <path class="cls-18" d="M686.32,232.35s-9.51,36.62-68.54,41.94c0,0,49.85,32.88,114.72-9.57s-46.18-32.36-46.18-32.36Z"/>
  <path class="cls-15" d="M755.54,214.03c22.79-8.15,34.7-33.34,26.6-56.27-8.1-22.93-33.15-34.91-55.95-26.76-22.79,8.15-34.7,33.34-26.6,56.27,8.1,22.93,33.15,34.91,55.95,26.76Z"/>
  <path class="cls-16" d="M719.1,175.98c-.29,0-.58.08-.84.21s-.49.33-.66.57c-.18.24-.29.51-.35.8-.05.29-.04.59.04.87,2.24,8.21,11.92,14.39,23.57,14.39s21.44-6.26,23.6-14.55c.07-.28.07-.57,0-.84-.06-.28-.19-.54-.36-.76-.18-.22-.4-.4-.66-.52-.26-.12-.54-.18-.82-.18h-43.51Z"/>
  <path class="cls-18" d="M740.81,179.2c5.76.07,11.47-1.02,16.8-3.22h-33.56c5.32,2.19,11.02,3.28,16.76,3.22Z"/>
  <path class="cls-20" d="M741.26,188.36c-3.19-.02-6.26,1.2-8.56,3.41,2.66.71,5.41,1.07,8.17,1.07,2.97,0,5.92-.42,8.77-1.26-2.29-2.09-5.28-3.24-8.37-3.22Z"/>
  <path class="cls-16" d="M767.15,167.05c.11.07.24.11.37.11.13,0,.26-.03.38-.09.11-.06.21-.16.28-.27s.1-.24.11-.37c.03-.84-.1-1.68-.4-2.46-.3-.78-.75-1.5-1.32-2.11s-1.27-1.09-2.04-1.42c-.77-.33-1.59-.5-2.43-.5s-1.66.17-2.43.5c-.77.33-1.46.81-2.04,1.42s-1.03,1.32-1.32,2.11c-.3.78-.43,1.62-.4,2.46,0,.13.04.26.11.37s.16.2.28.27c.11.06.24.1.37.09.13,0,.26-.04.37-.11,1.52-.95,3.28-1.45,5.07-1.45s3.54.5,5.07,1.45Z"/>
  <path class="cls-16" d="M724.49,167.05c.11.07.24.1.37.1.13,0,.26-.03.37-.09.11-.06.21-.15.28-.27.07-.11.11-.24.11-.37,0-1.65-.65-3.24-1.81-4.41-1.16-1.17-2.74-1.83-4.38-1.83s-3.22.66-4.38,1.83c-1.16,1.17-1.81,2.75-1.81,4.41,0,.13.04.26.11.37s.16.21.28.27c.11.06.24.09.38.09.13,0,.26-.04.37-.11,1.52-.95,3.28-1.45,5.07-1.45s3.54.5,5.07,1.45Z"/>
  <path class="cls-16" d="M711.45,158.93c-.37.06-.78-.04-1.09-.31-.57-.48-.63-1.33-.15-1.9,2.64-3.09,6.28-5.33,10.23-6.31.72-.17,1.45.26,1.63.98s-.26,1.45-.99,1.63c-3.4.85-6.55,2.79-8.83,5.46-.22.25-.51.4-.81.45h.01Z"/>
  <path class="cls-16" d="M769.75,158.18c-.31,0-.62-.11-.87-.32-2.68-2.29-6.07-3.71-9.56-4.04-.74-.07-1.28-.72-1.22-1.46s.73-1.28,1.47-1.22c4.05.36,7.98,2.02,11.08,4.67.56.49.63,1.34.14,1.9-.27.31-.64.48-1.03.48h-.01Z"/>
  <path class="cls-15" d="M859.44,214.03c22.79-8.15,34.7-33.34,26.6-56.27-8.1-22.93-33.15-34.91-55.95-26.76-22.79,8.15-34.7,33.34-26.6,56.27,8.1,22.93,33.15,34.91,55.95,26.76Z"/>
  <path class="cls-16" d="M816.61,163.73c-.63-.31-1.46.05-1.46.64,0,2.27,3.58,4.19,8,4.19s8-2.01,8-4.19c0-.59-.83-.95-1.46-.64-2.04.99-4.28,1.51-6.54,1.51s-4.5-.52-6.54-1.51h0Z"/>
  <path class="cls-16" d="M873.68,157.79h-.25c-2.45-.44-4.78-1.37-6.86-2.74-2.08-1.37-3.86-3.16-5.22-5.24-.22-.36-.29-.8-.19-1.21.1-.41.36-.77.72-.99.36-.22.79-.29,1.2-.19.41.1.76.36.98.72,1.13,1.68,2.59,3.12,4.28,4.23,1.69,1.11,3.59,1.88,5.57,2.25.41.04.79.24,1.06.56.27.32.4.73.37,1.15s-.22.8-.53,1.08c-.31.28-.72.42-1.13.4v-.02Z"/>
  <path class="cls-16" d="M816.45,157.79c-.41.02-.82-.12-1.13-.4-.31-.28-.5-.66-.53-1.08s.1-.83.37-1.15c.27-.32.65-.52,1.06-.56,1.99-.37,3.88-1.14,5.58-2.25,1.69-1.11,3.15-2.55,4.29-4.23.22-.37.58-.63.99-.73.41-.1.85-.03,1.21.19.36.22.62.58.72,1,.1.42.03.85-.19,1.22-1.37,2.09-3.16,3.88-5.24,5.25-2.08,1.37-4.42,2.31-6.87,2.74h-.25Z"/>
  <path class="cls-16" d="M873.49,164.3c.63-.32,1.46,0,1.46.64,0,2.27-3.58,4.19-8,4.19s-8-2.01-8-4.19c0-.6.82-1.01,1.45-.64,2.04.99,4.28,1.51,6.54,1.51s4.5-.52,6.54-1.51Z"/>
  <path class="cls-16" d="M866.79,191.81c.29,0,.58-.08.84-.21.26-.13.49-.33.66-.57.17-.24.29-.51.34-.8s.03-.59-.05-.87c-2.24-8.21-11.92-14.39-23.56-14.39s-21.44,6.26-23.61,14.56c-.06.28-.06.56,0,.84.06.28.19.53.37.76.18.22.4.4.66.52.26.12.54.18.82.18h43.51Z"/>
  <path class="cls-15" d="M962.92,214.03c22.79-8.15,34.7-33.34,26.6-56.27-8.1-22.93-33.15-34.91-55.95-26.76-22.79,8.15-34.7,33.34-26.6,56.27,8.1,22.93,33.15,34.91,55.95,26.76Z"/>
  <path class="cls-16" d="M970.77,173.82c-.13,0-.26-.02-.4-.06l-9.24-2.69c-.55-.16-.95-.64-1.02-1.23-.06-.57.24-1.13.75-1.4,0,0,7.19-3.72,9.34-4.86.69-.37,1.55-.11,1.92.58s.11,1.55-.58,1.92c-1.21.64-4,2.1-6.22,3.25l5.84,1.71c.75.22,1.19,1.01.97,1.76-.18.62-.74,1.03-1.36,1.03Z"/>
  <path class="cls-16" d="M925.73,173.82c-.61,0-1.18-.4-1.36-1.03-.22-.75.21-1.54.96-1.76l5.84-1.71c-2.22-1.16-5.02-2.6-6.22-3.25-.69-.37-.95-1.23-.58-1.92s1.23-.95,1.92-.58c2.15,1.15,9.34,4.86,9.34,4.86.51.27.81.82.76,1.4-.06.58-.46,1.07-1.02,1.23l-9.24,2.69c-.13.04-.26.06-.4.06h-.01Z"/>
  <path class="cls-16" d="M976.41,155.87c-.07,0-.14,0-.22-.02-7.08-1.1-10.63-6.82-10.77-7.07-.4-.67-.19-1.54.47-1.95.67-.41,1.54-.19,1.94.47,0,0,3.05,4.85,8.79,5.74.77.12,1.31.84,1.19,1.62-.11.7-.71,1.21-1.4,1.21Z"/>
  <path class="cls-16" d="M920.09,155.87c-.68,0-1.3-.5-1.4-1.21-.12-.77.41-1.5,1.19-1.62,5.78-.89,8.76-5.69,8.79-5.74.4-.67,1.28-.88,1.95-.47.66.4.88,1.28.47,1.95-.15.24-3.7,5.98-10.78,7.07-.07.01-.15.02-.22.02Z"/>
  <path class="cls-16" d="M932.94,193.85c-.53,0-1.06-.19-1.47-.59l-3.83-3.66c-.85-.81-.87-2.16-.07-3.01.81-.85,2.16-.87,3.01-.07l2.35,2.25,6.18-5.91c.82-.78,2.12-.78,2.94,0l6.18,5.91,6.18-5.91c.82-.78,2.12-.78,2.94,0l6.19,5.91,2.36-2.25c.85-.81,2.2-.78,3.01.07.81.84.78,2.2-.07,3.01l-3.83,3.66c-.82.78-2.12.78-2.94,0l-6.19-5.91-6.18,5.91c-.82.78-2.12.78-2.95,0l-6.18-5.91-6.18,5.91c-.41.39-.94.59-1.47.59h.02Z"/>
  <path class="cls-31" d="M1065.43,214.03c22.79-8.15,34.7-33.34,26.6-56.27-8.1-22.93-33.15-34.91-55.95-26.76-22.79,8.15-34.7,33.34-26.6,56.27,8.1,22.93,33.15,34.91,55.95,26.76Z"/>
  <ellipse class="cls-2" cx="1034.03" cy="170.25" rx="4.46" ry="6.34"/>
  <ellipse class="cls-2" cx="1067.42" cy="170.25" rx="4.46" ry="6.34"/>
  <g>
    <path class="cls-2" d="M1029.2,153.75c-.47-.05-.93.06-1.3.35-.38.29-.62.72-.68,1.21-.06.48.08.94.38,1.32.3.37.72.6,1.18.65,5.11.58,9.39,3.82,10.64,8.07.17.58.61,1.02,1.15,1.19v.1h.55c.19,0,.35-.03.51-.08.95-.29,1.48-1.26,1.2-2.21-1.66-5.6-7.15-9.87-13.64-10.6Z"/>
    <path class="cls-2" d="M1074.23,155.29c-.12-.99-.98-1.68-1.97-1.56-6.51.74-12,5-13.64,10.6-.14.46-.09.94.13,1.36.23.42.6.73,1.05.86.16.05.33.08.52.08h.55v-.1c.54-.18.98-.61,1.15-1.19,1.26-4.25,5.53-7.49,10.64-8.07.47-.06.89-.29,1.19-.66.3-.37.43-.84.37-1.31Z"/>
  </g>
  <path class="cls-2" d="M1059.48,190.76c-.48,0-.96-.17-1.35-.53-1.82-1.7-4.31-2.69-7.01-2.79-2.99-.13-5.83.89-7.8,2.77-.79.75-2.04.72-2.79-.06-.75-.79-.72-2.04.07-2.79,2.73-2.61,6.63-4.02,10.68-3.87,3.64.14,7.04,1.51,9.55,3.85.79.74.84,2,.1,2.79-.39.42-.91.63-1.45.63h-.01Z"/>
  <path class="cls-15" d="M1166.62,214.03c22.79-8.15,34.7-33.34,26.6-56.27-8.1-22.93-33.15-34.91-55.95-26.76-22.79,8.15-34.7,33.34-26.6,56.27,8.1,22.93,33.15,34.91,55.95,26.76Z"/>
  <path class="cls-16" d="M1152.68,203.44c-4.91,0-8.88-3.98-8.88-8.89v-5.21c0-4.91,3.98-8.89,8.88-8.89s8.89,3.98,8.89,8.89v5.21c0,4.91-3.98,8.89-8.89,8.89Z"/>
  <path class="cls-16" d="M1180.44,157.88c-.07,0-.14,0-.23-.02-7.24-1.12-10.89-7-11.04-7.26-.42-.69-.2-1.58.48-2,.69-.42,1.58-.2,2,.48.05.09,3.14,4.98,9,5.88.79.12,1.34.87,1.22,1.66-.11.72-.73,1.24-1.43,1.24h0Z"/>
  <path class="cls-16" d="M1122.7,157.88c-.7,0-1.33-.52-1.43-1.24-.12-.79.42-1.54,1.22-1.66,5.88-.91,8.98-5.83,9.01-5.88.42-.68,1.31-.9,2-.48.68.42.91,1.31.48,1.99-.15.25-3.79,6.13-11.05,7.26-.07.01-.15.02-.23.02Z"/>
  <path class="cls-24" d="M1136.78,213.83v-48.23l-7.34,2.07h.01s-7.34-2.08-7.34-2.08v39.18c4.26,3.98,9.26,7.05,14.67,9.06Z"/>
  <path class="cls-24" d="M1167.22,213.83v-48.23s7.34,2.07,7.34,2.07h-.01s7.34-2.08,7.34-2.08v39.18c-4.26,3.98-9.26,7.05-14.67,9.06Z"/>
  <path class="cls-16" d="M1122.91,164.1c-.63-.31-1.46.05-1.46.64,0,2.27,3.58,4.19,8,4.19s8-2.01,8-4.19c0-.59-.83-.95-1.46-.64-2.04.99-4.28,1.51-6.54,1.51s-4.5-.52-6.54-1.51h0Z"/>
  <path class="cls-16" d="M1180.88,164.67c.63-.32,1.46,0,1.46.64,0,2.27-3.58,4.19-8,4.19s-8-2.01-8-4.19c0-.6.82-1.01,1.45-.64,2.04.99,4.28,1.51,6.54,1.51s4.5-.52,6.54-1.51Z"/>
</svg>