<?xml version="1.0" encoding="UTF-8"?>
<svg xmlns="http://www.w3.org/2000/svg" xmlns:xlink="http://www.w3.org/1999/xlink" viewBox="0 0 1334 1000">
  <defs>
    <style>
      .cls-1 {
        fill: #466c33;
      }

      .cls-2 {
        stroke: #4f2f26;
        stroke-width: .29px;
      }

      .cls-2, .cls-3, .cls-4, .cls-5, .cls-6 {
        stroke-miterlimit: 10;
      }

      .cls-2, .cls-3, .cls-4, .cls-6 {
        fill: none;
      }

      .cls-7 {
        fill: #825739;
      }

      .cls-8 {
        fill: #1b1b1b;
      }

      .cls-9 {
        fill: #3b5b2b;
      }

      .cls-10 {
        fill: #0d2b35;
      }

      .cls-11 {
        fill: #010101;
      }

      .cls-12 {
        fill: #5a3223;
      }

      .cls-13 {
        fill: url(#linear-gradient-2);
      }

      .cls-14 {
        fill: #3a231a;
      }

      .cls-15 {
        fill: #e8b48f;
      }

      .cls-16 {
        fill: #231f20;
      }

      .cls-17 {
        fill: #ebebeb;
      }

      .cls-18 {
        fill: #dbd7d7;
      }

      .cls-19 {
        fill: url(#linear-gradient);
      }

      .cls-20 {
        fill: #f1eef7;
      }

      .cls-21 {
        fill: #804840;
      }

      .cls-22 {
        fill: #09181e;
      }

      .cls-23 {
        fill: #0a2f44;
      }

      .cls-3 {
        stroke-dasharray: 10.89 10.89;
      }

      .cls-3, .cls-4, .cls-6 {
        stroke: #231f20;
        stroke-width: 2px;
      }

      .cls-24 {
        fill: #020202;
      }

      .cls-25, .cls-5 {
        fill: #fff;
      }

      .cls-26 {
        fill: #565656;
      }

      .cls-27 {
        fill: #b06c4f;
      }

      .cls-5 {
        stroke: #241f20;
        stroke-width: .23px;
      }

      .cls-28 {
        fill: #0c1818;
      }

      .cls-29 {
        fill: #341e17;
      }

      .cls-30 {
        fill: #aacad3;
      }

      .cls-31 {
        fill: #9e6941;
      }

      .cls-32 {
        fill: #f1ecf6;
      }

      .cls-33 {
        fill: #21595c;
      }

      .cls-34 {
        fill: #334c23;
      }

      .cls-35 {
        fill: #1a1514;
      }

      .cls-6 {
        stroke-dasharray: 12.05 12.05;
      }

      .cls-36 {
        fill: #6c3925;
      }

      .cls-37 {
        fill: #241f20;
      }

      .cls-38 {
        fill: #123a4c;
      }
    </style>
    <linearGradient id="linear-gradient" x1="603.45" y1="1101.65" x2="662.25" y2="-294.36" gradientUnits="userSpaceOnUse">
      <stop offset=".29" stop-color="#bae5f5"/>
      <stop offset=".81" stop-color="#76c7dc"/>
    </linearGradient>
    <linearGradient id="linear-gradient-2" x1="611.26" y1="1078.95" x2="633.96" y2="539.88" gradientUnits="userSpaceOnUse">
      <stop offset=".01" stop-color="#75993e"/>
      <stop offset=".98" stop-color="#486b32"/>
    </linearGradient>
  </defs>
  <g id="Layer_1" data-name="Layer 1">
    <rect class="cls-19" x="-116.23" y="-85.55" width="1492.48" height="1113.04"/>
    <path class="cls-9" d="M858.79,213.77c-18.4.35-36.55,3.6-53.43,9.56,9.42-16.78,33.06-27.45,55.53-25.06l-8.44-17.55-22.46,13.13c3.05-19.42,16.47-36.75,36.69-47.36l-41.95,10.89c6.84-13.87,21.48-24.19,39.32-27.72l-40.14-.26c8.53-12.67,28.83-18.63,45.51-14.3-7.16-2.58-14-5.72-20.38-9.43-2.67-1.53-5.55-3.75-4.06-6.53.84-1.57,2.81-2.6,4.91-2.76,10.74-.84,21.47,1.31,30.48,6.05l-28.88-27.38c14.02-3.35,30.54,3.89,34.8,15.27,3.35-22.6,23.25-42.58,45.06-53.12l-4.53,2.02c1.69-.8,3.41-1.55,5.13-2.31.58-.28,1.17-.55,1.75-.81l-34.85-22.1c25.88-5.94,51.44,1.03,71.52,10.29,1.4-.32,2.8-.64,4.21-.93l-33.74-24.64c23.7-6.64,42.69,3.57,54.74,13.73,2.3.83,4.53,1.79,6.66,2.91l-28.88-27.38c14.02-3.35,30.54,3.89,34.8,15.27,3.35-22.6,23.25-42.58,45.06-53.12l-4.53,2.02c1.69-.8,3.41-1.55,5.13-2.31.58-.28,1.17-.55,1.75-.81l-34.84-22.1c25.88-5.94,51.44,1.03,71.52,10.29,1.4-.32,2.8-.64,4.21-.93l-33.74-24.64c29.35-8.22,51.47,9.39,62.14,20.75,19.54-1.41,39.4-.29,58.81,3.5-11.1-9.52-24.14-17.41-38.54-23.31,28.25-9.84,64.42-.93,81.17,19.99-5.68-10.79-9.45-22.19-11.2-33.84,17,3.47,28.88,18.85,25.36,32.83,3.07-12.03,8.31-23.63,15.58-34.42,1.42-2.11,4.39-3.4,7.28-2.88,4.15.74,4.63,4.2,4.49,7.07-.63,12.55-5.91,24.66-15.15,34.72,10.44-1.56,16.07-12.03,27.56-12.15,3.65-.04,7.18,1.62,8.48,4.4,2.61,5.62-5.4,10.1-12.3,11.3-6.66,1.16-14.62,1.72-18.1,6.49,35.61,3.09,65.34,30.61,64.53,59.72,5.47-8.35,10.95-16.7,16.42-25.03,2.28,12.11.67,24.49-4.66,35.94,6.91-14.87,27.7-24.51,46.93-21.76-12.73,8.8-23.39,19.39-31.48,31.28,12.41-6.73,28.34-7.39,41.53-1.73l-38.16,16.92c37.01-5.71,77.55,8.22,98.32,33.84-6.2-13.19-9.73-27.12-10.44-41.24,18.09,7.6,27.01,27.08,19.46,42.46,10.25-11.15,26.74-17.31,43.8-16.36-7,10.62-16.07,20.25-26.86,28.51l3.73,2.63c20.42.43,39.49,13.07,44.09,29.18l-22.59-8.17c7.66,7.73,12.64,16.98,14.42,26.8l-17.02-5.25c8.29,6.36,13.84,14.6,16.72,23.48v-.03s25.39-1.03,26.18,29.57l-24.03-11.63c-.78,11.37-5.65,22.5-14.51,31.18,2.75,9.72,5.11,21.76,3.67,31.35-2.64,17.57-49.87,82.92-125.1,55.28-1.93,1.94-3.99,3.8-6.32,5.48.32,7.5-2.85,14.82-8.87,20.5-3.86-6.85-7.73-13.7-11.6-20.55-2.32,8.56-7.02,16.57-13.73,23.43-.56-8.37-3.81-16.47-9.41-23.51l-17.54,4.96c2.5,3.71,4.11,9.13,2.99,17.12-3.13,22.31-14.88,24.86-14.88,24.86l-11.17-35.45-29.01,8.21c8.78,7.97,11.5,19.21,7.1,29.3-5.17-7.24-12.51-13.29-21.33-17.6,5.13,10.82,5.05,22.82-.21,33.59-5.21-7.97-10.42-15.89-15.65-23.77.89,15.83-6.49,31.23-20.31,42.39-3.83-14.07-3.06-28.72,2.26-42.47-10.25,10.32-17.72,22.28-21.91,35.1-4.2-10.94-3.63-22.72,1.61-33.36l-4.6,4.56c-14.94,14.82-42.03,16.56-59.64,3.83-14.2-5.4-30.46-5.97-45.17-1.59,8.64,14.79,7.82,32.09-2.19,46.29-5.81-13.74-11.61-27.45-17.39-41.14-.8,10.93-1.59,21.88-2.39,32.83-13.73-11.35-21.12-26.8-20.44-42.72-4.75,13.48-12.9,26-23.94,36.77-4.86-13.31-2.73-27.66,5.89-39.63-12.45,6.81-22.89,15.78-30.57,26.27-4.02-13.09.21-26.95,11.29-36.98-12.73,7.66-25.46,15.33-38.17,23.02-5.58-5.62-14.83-22.62-1.82-32.81-20.72-10.31-11.38-4.08-35.02-8.6l-20.06,12.23c-8.06-9.96-9.75-22.47-4.53-33.62l-26.91,31.83c-.08-14.99-.15-29.98-.21-44.97l-35.64,34.08c-.21-16.09,5.68-31.85,16.88-45.11-14.31,6.01-26.98,14.32-37.22,24.44-1.6-19.98,10.25-39.09,30.94-49.9l-40.59,7.05c7.19-16.61,24.09-29.22,45.04-33.61Z"/>
    <path class="cls-31" d="M1141.35,356.21s8.01,19.18,7.94,33.08c-.07,13.9,3.33,29.24,2.22,45.06-1.11,15.82-15.25,205.18-15.25,205.18l63.54,1.71s-4.24-170.27-5.82-203.47c-1.39-29.2-52.63-81.56-52.63-81.56Z"/>
    <path class="cls-31" d="M1101.94,306.51l-50.17-50.81,4.45-9.95,39.46,38.75,42.01,35.74-44.25-145.95,6.48-5.49,36.52,84.61,26.96-38.29h4.45s-31.41,44.93-31.41,44.93l15.67,74.03,26.69,24.31c.47-2.03.95-3.81,1.36-5.25l29.66-69.09-22.36-74.51,5.03-2.56s21.06,55.12,24.22,58.22c3.16,3.1,25.71-56.15,25.71-56.15l36.66-77.7,12.12,6.61-34.97,72.62,44.37-33.92,4.05,4.19-41.52,36.84s-33.26,52.07-31.99,57.17c1.28,5.09,97.87-25.02,97.87-25.02l3.17,5.88s-88.44,28.85-95.34,38.05c-6.9,9.2-20.76,38.8-23.83,48.5-2.45,7.56-7.79,18.2-7.41,22.55,0,0-12.38,26.83-13.35,61.29,5.88,15.54-7.27,35.49-5.26,51.68l-3.48,36.4-17.26-28.41,2.82-14.15c1.63-38.4-15.18-82.08-16.09-94.15l-49.16-63.8-68.98-25.01v-4.6s67.1,22.46,67.1,22.46Z"/>
    <polygon class="cls-31" points="1249.12 209.84 1202.51 118.81 1192.31 125.36 1240.38 225.86 1249.12 209.84"/>
    <polygon class="cls-31" points="1117.81 209.84 1071.21 118.81 1061.01 125.36 1109.07 225.86 1117.81 209.84"/>
    <polygon class="cls-31" points="1103.46 174.79 1161.46 90.57 1141.86 97.04 1085.21 174.7 1103.46 174.79"/>
    <polygon class="cls-31" points="1067.4 254.88 990.81 221.42 972.21 218.81 1069.53 273 1067.4 254.88"/>
    <polygon class="cls-31" points="1056.63 261.55 1036.77 187.91 1041.96 160.81 1073.86 267.54 1056.63 261.55"/>
    <rect class="cls-17" x="-91.22" y="496.97" width="1483.29" height="9.81"/>
    <rect class="cls-17" x="-91.22" y="549.65" width="1483.29" height="9.81"/>
    <rect class="cls-17" x="-91.22" y="446.98" width="1483.29" height="9.81"/>
    <rect class="cls-17" x="204.73" y="433.57" width="13.02" height="193.25"/>
    <rect class="cls-17" x="89.5" y="432.82" width="13.02" height="193.25"/>
    <rect class="cls-17" x="658.76" y="436.75" width="13.02" height="193.25"/>
    <rect class="cls-17" x="543.53" y="436.01" width="13.02" height="193.25"/>
    <rect class="cls-17" x="885.78" y="438.38" width="13.02" height="193.25"/>
    <rect class="cls-17" x="770.54" y="434.64" width="13.02" height="193.25"/>
    <rect class="cls-17" x="432.71" y="437.91" width="13.02" height="193.25"/>
    <rect class="cls-17" x="317.47" y="437.17" width="13.02" height="193.25"/>
    <rect class="cls-17" x="1112.79" y="440.25" width="13.02" height="193.25"/>
    <rect class="cls-17" x="997.56" y="436.51" width="13.02" height="193.25"/>
    <rect class="cls-17" x="1222.93" y="436.51" width="13.02" height="193.25"/>
    <path class="cls-1" d="M935.59,661.47c8.63-9.34,17.78-19.91,18.04-32.63.26-12.72-14.39-25.42-24.99-18.39,3.08-7.64.19-17.24-6.59-21.92-6.78-4.68-16.77-3.98-22.83,1.61-3.44-18.45-31.63-25.73-43.56-11.24,1.12-7.2-9.06-12.04-15.39-8.43-6.33,3.61-8.5,11.84-8,19.11-4.15-8.51-13.87-13.95-23.29-13.02-9.42.93-17.9,8.16-20.3,17.31-.9-8.05-2.23-16.93-8.44-22.13-6.21-5.2-18.57-2.26-18.41,5.84,1.86-11.45-4.51-23.75-14.94-28.82-10.43-5.08-24.04-2.51-31.9,6.01-1.53-11.22-5.72-22.91-15.03-29.35-9.31-6.44-24.55-4.76-29.29,5.52-5.36-8.77-13.95-16.79-24.23-16.79-10.28,0-19.82,12.19-14.25,20.83-7.6-12.68-31.28-7.68-33.11,6.99-5.46-8.47-16.86-12.6-26.48-9.59-9.62,3.01-16.63,12.89-16.3,22.97-9.57-5.89-22.86-4.94-31.5,2.25-8.64,7.19-11.98,20.09-7.92,30.57-28.76,2.3-49.77,36.85-38.58,63.44"/>
    <path class="cls-9" d="M1395.7,664.29c8.07-8.73,16.61-18.6,16.86-30.48s-13.44-23.75-23.35-17.18c2.87-7.14.18-16.1-6.15-20.48-6.33-4.37-15.67-3.72-21.33,1.5-3.21-17.24-29.55-24.04-40.7-10.51,1.05-6.73-8.46-11.25-14.38-7.88-5.92,3.37-7.95,11.06-7.47,17.86-3.87-7.95-12.96-13.03-21.76-12.16-8.8.87-16.72,7.62-18.97,16.18-.84-7.52-2.08-15.82-7.89-20.67-5.81-4.86-17.35-2.11-17.2,5.46,1.74-10.69-4.21-22.19-13.95-26.93-9.74-4.74-22.46-2.35-29.81,5.62-1.43-10.48-5.34-21.41-14.04-27.43-8.7-6.02-22.93-4.45-27.36,5.16-5.01-8.19-13.04-15.69-22.64-15.68-9.6,0-18.52,11.39-13.32,19.46-7.1-11.85-29.23-7.18-30.94,6.53-5.11-7.92-15.75-11.77-24.74-8.96-8.99,2.81-15.54,12.04-15.23,21.46-8.94-5.51-21.36-4.62-29.43,2.1-8.07,6.72-11.19,18.77-7.4,28.56-26.87,2.15-46.5,34.42-36.05,59.27"/>
    <path class="cls-34" d="M111.11,661.59c-8.65-9.36-17.81-19.94-18.07-32.68-.26-12.74,14.41-25.46,25.03-18.42-3.08-7.66-.19-17.26,6.6-21.95,6.79-4.69,16.8-3.98,22.87,1.61,3.44-18.48,31.68-25.77,43.63-11.26-1.12-7.21,9.07-12.06,15.42-8.45,6.34,3.61,8.52,11.86,8.01,19.15,4.15-8.52,13.89-13.97,23.33-13.04,9.44.93,17.93,8.17,20.34,17.34.9-8.06,2.23-16.96,8.46-22.16s18.6-2.26,18.44,5.85c-1.87-11.46,4.52-23.79,14.96-28.87,10.44-5.09,24.08-2.51,31.95,6.02,1.53-11.24,5.73-22.95,15.05-29.4,9.32-6.45,24.59-4.77,29.33,5.53,5.37-8.78,13.98-16.82,24.27-16.81,10.29,0,19.86,12.21,14.28,20.86,7.61-12.7,31.33-7.7,33.17,7,5.47-8.49,16.88-12.62,26.52-9.61,9.64,3.01,16.66,12.91,16.32,23,9.59-5.9,22.9-4.95,31.55,2.25,8.65,7.2,12,20.12,7.93,30.62,28.81,2.3,49.85,36.91,38.65,63.55"/>
    <path class="cls-34" d="M680.3,683.99c-6.83-7.39-14.06-15.74-14.27-25.8-.2-10.06,11.38-20.1,19.76-14.54-2.43-6.04-.15-13.63,5.21-17.33,5.36-3.7,13.26-3.15,18.05,1.27,2.72-14.59,25.01-20.35,34.45-8.89-.89-5.7,7.16-9.52,12.17-6.67,5.01,2.85,6.72,9.36,6.32,15.11,3.28-6.73,10.97-11.03,18.42-10.29,7.45.73,14.15,6.45,16.05,13.69.71-6.37,1.76-13.39,6.68-17.5,4.91-4.11,14.69-1.78,14.56,4.62-1.47-9.05,3.57-18.78,11.81-22.79,8.24-4.01,19.01-1.98,25.23,4.76,1.21-8.87,4.52-18.12,11.88-23.21,7.36-5.1,19.41-3.76,23.16,4.37,4.24-6.93,11.03-13.28,19.16-13.27,8.13,0,15.68,9.64,11.27,16.47,6.01-10.03,24.74-6.08,26.18,5.52,4.32-6.7,13.33-9.96,20.94-7.58,7.61,2.38,13.15,10.19,12.89,18.16,7.57-4.66,18.08-3.91,24.91,1.78,6.83,5.69,9.47,15.89,6.26,24.17,22.74,1.82,39.36,29.14,30.51,50.17"/>
    <path class="cls-9" d="M-102.9,676.09c-6.83-7.39-14.06-15.74-14.27-25.8-.2-10.06,11.38-20.1,19.76-14.54-2.43-6.04-.15-13.63,5.21-17.33,5.36-3.7,13.26-3.15,18.05,1.27,2.72-14.59,25.01-20.35,34.45-8.89-.89-5.7,7.16-9.52,12.17-6.67,5.01,2.85,6.72,9.36,6.32,15.11,3.28-6.73,10.97-11.03,18.42-10.29,7.45.73,14.15,6.45,16.05,13.69.71-6.37,1.76-13.39,6.68-17.5,4.91-4.11,14.69-1.78,14.56,4.62-1.47-9.05,3.57-18.78,11.81-22.79,8.24-4.01,19.01-1.98,25.23,4.76,1.21-8.87,4.52-18.12,11.88-23.21,7.36-5.1,19.41-3.76,23.16,4.37,4.24-6.93,11.03-13.28,19.16-13.27,8.13,0,15.68,9.64,11.27,16.47,6.01-10.03,24.74-6.08,26.18,5.52,4.32-6.7,13.33-9.96,20.94-7.58,7.61,2.38,13.15,10.19,12.89,18.16,7.57-4.66,18.08-3.91,24.91,1.78,6.83,5.69,9.47,15.89,6.26,24.17,22.74,1.82,39.36,29.14,30.51,50.17"/>
    <path class="cls-13" d="M1451.62,1027.49H-208.6v-384.16l514.58-5.27c66.08-2.89,573.95-1.72,640.04,1.08l505.59,4.19v384.16Z"/>
    <path class="cls-9" d="M935.56,305.91s-6.52,9.62-4.81,24.38l1.72,14.77s30.22-12.02,31.59-33.65c1.37-21.64-28.5-5.49-28.5-5.49Z"/>
    <path class="cls-9" d="M1098.1,339.27s-3.23,9.68,8.47,20.97l11.69,11.29s6.45-24.6-2.42-32.26c-8.87-7.66-17.74,0-17.74,0Z"/>
    <path class="cls-9" d="M1272.5,308.17s-3.23,9.68,8.47,20.97l11.69,11.29s6.45-24.6-2.42-32.26c-8.87-7.66-17.74,0-17.74,0Z"/>
    <path class="cls-9" d="M1315.74,295.38s-3.23,9.68,8.47,20.97l11.69,11.29s6.45-24.6-2.42-32.26c-8.87-7.66-17.74,0-17.74,0Z"/>
    <path class="cls-9" d="M915.94,102.92s-38.82-3.21-43.67-24.02l-4.85-20.8s49.1-15.26,57.49,16.64l8.39,31.9"/>
    <path class="cls-9" d="M944.88,76.83s-38.82-3.21-43.67-24.02l-4.85-20.8s49.1-15.26,57.49,16.64l8.39,31.9"/>
  </g>
  <g id="Layer_3" data-name="Layer 3">
    <path class="cls-21" d="M914.58,678.25c.07-.05.14-.09.21-.14.03-.02.06-.04.09-.06.12-.08-.11.07-.01,0,.14-.08.27-.16.41-.24s.28-.15.42-.22c.06-.03.31-.14.07-.03.08-.03.16-.07.23-.1.13-.05.3-.13.4-.24.05-.07.1-.17.02-.23-.1-.08-.26-.08-.38-.08-.19.01-.39.05-.57.12-.71.3-1.39.66-2.03,1.09-.07.05-.19.16-.16.25s.18.13.27.14c.35.03.74-.08,1.02-.27h0Z"/>
    <g>
      <circle class="cls-25" cx="672.09" cy="861.89" r="39.95"/>
      <path class="cls-11" d="M710.79,863.47c.63-.21,1.31-.16,1.92.11.35-.99.69-1.99.97-3-.06-.73-.14-1.46-.25-2.19-.65-5.18-2.59-10.14-5.18-14.89-1.33-2.3-2.89-4.41-4.61-6.36-.14,2.57-.29,5.15-.31,7.73,0,.66-.23,1.18-.56,1.57-.11.68-.23,1.35-.34,2.03-.22.43-.43.86-1.08.86-4.53.22-8.85.22-13.38-.65-.43,0-.86-.22-1.08-.43-2.81-2.59-5.61-5.4-8.42-7.99-.65-.65-1.29-1.29-1.73-1.94-1.08-1.51-1.08-3.24-.86-4.96.22-2.16.65-4.53.86-6.69,0-.65.43-1.08,1.08-1.3.65,0,1.51-.22,2.16-.22.09,0,.18,0,.27,0,.09-.09.17-.18.28-.27.61-.48,1.2-.99,1.79-1.49-4.6-1.3-9.21-1.86-13.81-1.48,1.22.67,2.47,1.27,3.77,1.73.54.19.94.51,1.22.88.22.13.44.27.65.42.43.22.65.65.65,1.08.65,3.45,0,6.91-.86,10.14-.22.43-.86.86-1.29,1.08-3.67,2.16-7.12,4.1-10.79,6.26-.43,0-.86.22-1.08,0-2.81-1.08-5.83-2.16-8.85-3.24-1.94-.69-2.9-1.74-3.17-3.15-.14-.32-.22-.69-.21-1.12.06-2.73.57-5.37,1.12-8.02-.8.5-1.52.99-1.85,1.49-6.69,4.53-11.44,10.36-14.24,17.7-.33.92-.64,1.85-.92,2.79.26,0,.52,0,.78,0,.81,0,1.42.31,1.84.76.34-.01.71.02,1.11.12.86.22,1.73.86,2.16,1.73.22.22.22.43.22.65-.22,5.61.65,11.22,1.94,16.62.43,1.08,0,2.37-.22,3.45-.43,1.73-.86,3.67-1.29,5.61-.22.43-.22.86-.22,1.3,0,.65-.22,1.3-.86,1.51-.02,0-.03,0-.05.01.04.11.08.21.11.33.77,3.57,4.12,6.91,6.89,9.14,2.15,1.73,4.63,2.95,7.18,4,.29-.12.59-.22.9-.3.23-.31.58-.52.94-.88.86-1.08,1.51-1.94,2.59-2.81.86-.65,1.94-1.08,2.81-1.51h.86c3.45.65,6.69,1.3,9.93,1.94.86,0,1.73.22,2.59.22,1.3,0,2.37.43,3.45,1.08,1.51.86,2.81,1.94,3.67,3.45.43.65.65,1.08.86,1.73.16.32.23.64.21.95,1.19.06,2.38.14,3.57.23,3.51-2.6,6.8-4.77,11.2-5.95.45-1.15,1.63-1.8,2.22-2.86-.09-.12-.16-.24-.16-.35.43-3.45.86-7.12,2.37-10.36,0-.22.22-.22.22-.43,2.59-4.96,5.18-9.71,7.77-14.46.43-.43.86-.86,1.51-1.29.37-.25.74-.27,1.03-.1ZM652.79,872.42c-2.81-.43-5.18-1.3-7.55-2.37-1.08-.65-2.37-1.29-3.24-2.37,0,0-.22-.22-.22-.43-.43-3.89-1.3-7.77-1.3-11.66,0-3.67.86-6.91,3.24-9.93,1.08-1.3,2.16-2.37,3.24-3.67.22-.22.43-.43.65-.43,1.08-.65,1.94-.65,3.02-.43,2.16.86,4.32,1.73,6.26,2.59,1.73.86,3.24,1.73,4.32,3.45.22.43.43,1.08.43,1.51.65,3.67,1.08,7.55,1.73,11.22,0,.22,0,.65-.22.86-1.94,2.81-3.89,5.83-5.83,8.63-.22.22-.43.43-.65.86-.86,1.73-2.16,2.37-3.89,2.16ZM682.79,882.56c-1.3,2.37-3.24,4.32-5.4,6.26-1.51,1.29-3.45,1.73-5.18,1.51-3.02-.43-6.04-.86-9.07-1.51-2.37-.65-3.89-2.37-5.18-4.75-.65-2.37-2.16-4.96-2.16-7.55,0-1.94.65-3.45,1.73-4.96,1.3-1.73,2.37-3.24,3.67-4.96,1.08-1.51,2.16-3.02,3.88-3.89.43-.22.65-.43,1.08-.43,3.89-.43,7.34.65,11.01,1.51,1.51.43,2.37,1.08,2.81,2.59,1.08,3.88,2.37,7.77,3.67,11.65.43,1.73,0,3.24-.86,4.53ZM706.1,864.22c-.43,1.73-1.08,3.24-1.73,4.75-1.3,2.59-2.81,5.4-4.32,7.99-.86,1.51-1.94,2.16-3.67,2.37-3.45.43-7.12.22-10.58-.43-.22,0-.43-.22-.43-.43-1.29-3.89-2.59-7.99-3.88-11.87-.43-.86-.65-1.51-.86-2.37-.22-.65-.22-1.51.22-2.16,1.3-2.37,2.37-4.96,3.67-7.34.65-1.3,1.73-2.16,2.59-3.24.22-.22.65-.43,1.08-.43,4.75-.22,9.28-.22,13.81.86.43,0,.65.22.86.43,1.08,3.24,2.37,6.26,3.24,9.5.22.65.22,1.51,0,2.37Z"/>
      <path class="cls-11" d="M655.81,891.97s-2.71,3.28-3.45,4.67c0,0-8.67-4.9-11.88-10.01l-3.02-4.78,3.02-.19,11.77,9.53,3.55.78Z"/>
      <polygon class="cls-11" points="675.5 835.87 687.99 849.42 676.34 849.42 675.5 835.87"/>
      <path class="cls-11" d="M680.59,897.43l.9,3.3s4.24-.82,9.89-3.85c5.65-3.03,7.02-4.83,7.02-4.83l-.77-1.97-17.04,7.35Z"/>
      <path class="cls-11" d="M675.5,826.82l-8.4-4.57s2.94-1.28,9.43-.04c6.49,1.24,9.62,2.28,9.62,2.28l-10.65,2.33Z"/>
    </g>
    <g>
      <path class="cls-4" d="M878.74,891.42s-1.48-1.88-4.12-4.35"/>
      <path class="cls-3" d="M865.95,880.51c-9-5.33-21.84-8.56-35.56,2.05"/>
      <path class="cls-4" d="M826.28,886.14c-1.36,1.32-2.72,2.78-4.08,4.4,0,0-1.57-1.64-4.32-4.16"/>
      <path class="cls-6" d="M808.69,878.61c-8.73-6.78-20.73-14.47-33.04-17.29-11.54-2.64-21.38-3.2-28.46-3.08"/>
      <path class="cls-4" d="M741.17,858.53c-3.82.31-5.95.76-5.95.76"/>
    </g>
  </g>
  <g id="Layer_2" data-name="Layer 2">
    <path class="cls-15" d="M300.56,366.6s39.51,9.5,48.84,6.15c6.23-2.24,12.71-8.9,18.79-11.49l38.45,1.13c4.79.18,26.08,1.6,25.54,3.18h0c-2.98,6.44-2.26,18.02.09,24.83l.75,1.67c-.37,2.16-22.75,4.22-27.1,4.6-18.59,1.62-49.15,12.8-59.4,13.37-12.02.67-36,3.22-46.38-14.87-10.53-12.66.43-28.57.43-28.57Z"/>
    <path class="cls-35" d="M353.38,894.6s2.37,2.6,1.07,7.15c-1.31,4.55-28.48-.04-37.87,1.11-9.39,1.14-46.95,5.72-56.18,3.52-9.23-2.2-.71-13.53-.71-13.53l93.69,1.75Z"/>
    <path class="cls-35" d="M189.17,902.85s-1.94,1.77-2.04,8.05c-.13,8.41,30,7.85,37.34,8.41,7.34.57,30.76,5.56,47.29,6.04,16.53.48,34.84-4.46,34.9-14.03.03-5.19-.4-7.19-3.94-8.47-3.54-1.28-102.81-5.07-102.81-5.07l-10.73,5.07Z"/>
    <path class="cls-27" d="M199.39,866.88c.5,5.26-3.19,10.92-7.11,21.41-1.98,5.3-3.95,14.38,1.57,17.77,6.56,4.03,21.61,2.32,25.94,3.26,9.11,1.98,16.77,2.21,25.52,4.87,8.88,2.7.06,1.51,9.8,2.03,1.35.07,10.22,2,11.38,1.42.78-.39,2.89.08,3.67-.31,2.76-1.37,6.26.41,9.42,0,1.39-.18,2.66-.78,3.95-1.26,3.42-1.26,7.16-1.69,10.78-2.43,3.62-.75,7.3-1.9,9.81-4.25,2.5-2.35,3.43-6.16,1.24-8.73-3.3-3.88-7.53-1.57-11.98-1.91-4.44-.34-6.12-1-10.05-2.67-10.05-4.27-11.6-5.14-20.06-8.48-6.57-2.59-24.81-8.87-34.09-14.79l1.53-8.49"/>
    <g>
      <path class="cls-14" d="M270.13,918.15c2.18-.6,2.87-3.19,1.9-5.06-.96-1.84-3.11-2.87-4.93-3.65-1.1-.47-2.23-.87-3.35-1.31-.62-.24-1.69.64-.84.98,2.19.86,4.56,1.57,6.43,3.05.8.63,1.5,1.48,1.64,2.52.12.85-.17,2.21-1.13,2.47-.29.08-.68.34-.59.69s.58.38.86.3h0Z"/>
      <path class="cls-14" d="M279.44,917.96c1.18-.03,2.39-.55,2.93-1.65.5-1.02.48-2.3.31-3.4-.2-1.23-.67-2.2-1.59-3.06-1.3-1.21-3.02-1.85-4.69-2.38-1.98-.63-3.84-1.79-5.99-1.73-.26,0-.82.11-.97.35-.15.26.13.27.35.26,1.6-.04,3.18.86,4.63,1.41,1.47.56,2.99.94,4.32,1.82,1,.66,1.89,1.52,2.25,2.69.29.92.4,1.94.31,2.91-.05.52-.18,1.05-.43,1.51-.12.21-.26.4-.45.56-.05.04-.12.08-.18.1.17-.08-.09,0-.18,0-.26,0-.82.11-.97.35-.16.26.13.27.35.26h0Z"/>
      <path class="cls-14" d="M286.82,915.91c2.68-.94,3.66-4.17,2.37-6.61-1.26-2.38-3.96-3.74-6.35-4.69-1.53-.61-3.19-1.18-4.82-1.48-.35-.06-.77,0-1.02.27-.2.22-.17.54.16.6,1.6.29,3.23.85,4.74,1.45,1.46.57,2.9,1.3,4.12,2.28,1.08.87,1.99,2.01,2.23,3.41.22,1.3-.25,3.42-1.67,3.91-.24.08-.7.28-.61.62.08.31.61.31.84.23h0Z"/>
      <path class="cls-14" d="M293.93,914.4c1.61-.69,2.94-1.86,3.64-3.49.58-1.36.73-3.09-.11-4.38-.78-1.21-2.06-2.02-3.31-2.67-1.39-.72-2.87-1.28-4.35-1.78-.76-.25-1.52-.46-2.28-.72-.96-.32-1.93-.74-2.97-.68-.26.01-.82.1-.97.36s.12.3.35.28c.8-.04,1.65.39,2.4.64.59.19,1.18.36,1.77.55,1.31.42,2.61.88,3.86,1.46s2.48,1.25,3.44,2.23,1.32,2.17,1.13,3.52c-.25,1.79-1.44,3.57-3.13,4.29-.16.07-.58.22-.42.45.13.2.79,0,.94-.06h0Z"/>
    </g>
    <path class="cls-27" d="M254.44,868.24c1.31,4.33-.15,14.05-1.27,18.92-1.29,5.6,1.31,9.81,7.72,12.13,5.39,1.95,8.14,1.81,13.97,1.47,7.61-.44,15.72-1.84,23.33-2.28,6.52-.38,27.02-2.2,33.44-1.15,9.99,1.63,16.11.19,20.51-1.35,1.22-.43,1.98-.37,2.54-1.27,1.45-2.33,1.24-4.89-2.06-6.82-4.16-2.43-9.08,1-12.97-1.87-.69-.51-1.33-1.09-2.13-1.45-1.56-.72-3.43-.53-5.19-.5-8.78.15-8.16-3.5-19.69-6.25-3.39-.81-25.27-11.6-28.41-12.97"/>
    <path class="cls-14" d="M329.07,885.4c1.65.21,3.31.8,4.87,1.36.85.3,1.69.63,2.51,1.03.45.22,1.1.48,1.4.91.21.32,1.04,0,1.28-.17,1.49-1,3.29-1.21,5.04-.94.33.05.72-.02,1.01-.18.1-.05.52-.34.17-.39-2.51-.38-5.21.03-7.34,1.46l1.28-.17c-.31-.46-.87-.72-1.35-.96-.85-.43-1.74-.77-2.64-1.1-1.71-.62-3.49-1.23-5.3-1.46-.32-.04-1.66.51-.94.6h0Z"/>
    <path class="cls-2" d="M250.31,884.03s29.24,15.55,37.5,14.73l5.27-.05s3.21-.95,4.98.08"/>
    <path class="cls-35" d="M324.63,897.76s.57-9.89,4.68-13.43c0,0-10.95-6.37-18.94-7.87,0,0-9.47,8.33-7.42,22.26l21.68-.96Z"/>
    <path class="cls-35" d="M259.43,918.55s-3.32-7.86,16.65-16.44c12.18-5.23,13.07-4.05,13.07-4.05,0,0-7.66-7.29-21.04-8.24,0,0-25.63,3.04-32.25,24.39l23.57,4.35Z"/>
    <path class="cls-27" d="M328.58,140.18s-3.59,28.79-13.37,43.18c-1.57,2.31-16.35,5.2-16.35,5.2l2.51,5.1c2.17,4.4,29.67,72.88,33.55,75.89,19.32,14.96,27.26-38.15,40.93-48.79l-3.01-10.53s-2.8-4.26-2.61-7.55c.18-3.29,10.5-26.52,10.5-26.52"/>
    <path class="cls-7" d="M323.99,150.98c-.01.06-.02.11-.03.17,0-.08,0-.14.03-.17Z"/>
    <path class="cls-27" d="M353.42,195.34l18.86,4.74,9.94.6c.94.29,7.84-8.08,8.84-9.1,3.1-3.18,6.77-8.14,9.19-11.87,2.6-4,6.85-6.21,9.06-11.29,1.61-3.72,2.42-6.42,2.18-13.33-.06-1.75.39-3.35,1.28-4.96,1.9-3.38,3.43-7.52,5.87-12.08.19-.36,1.18-2.07,1.15-2.53,0,0,5.43-20.4,3.89-28.7-1.54-8.3-4.7-12.79-9.62-15.72-4.92-2.93-20.91-6.56-20.91-6.56l-20.79-9.45-21.11,3.73-15.92,19.67-6.25,26.4-4.01,24.04"/>
    <path class="cls-14" d="M364.11,193.9c-.18.05-9.63-4.08-9.82-4.15l-4.37-3.88s-.02-.03-.02-.03c-.51.04-1.06-.09-1.61-.48-2.85-2.02-5.1-4.6-7.17-7.4-1.86-2.51-3-8.83-5.36-10.91-1.12-.98-.55-1.25-1.4-2.4.02.32-.55,2.02-.53,2.34,3.08,7.87,8.86,24.25,14.88,29.81.47.28,1.94,1.21,6.12,2.83,5.48,2.12,9.78,3.66,15.5,4.53,1.27-3.93,2.38-8.71,3.59-12.66-2.01-.63-3.08.47-9.79,2.4Z"/>
    <path class="cls-24" d="M373.51,134.02c-1-.99-2.55-.89-3.54-.44-.23.1-.87.41-1.34,1.12-.6.91-.56,2.16-.15,3.04.55,1.18,1.89,1.77,3.12,1.61,1.66-.22,2.68-1.82,2.71-3.21,0-.25,0-1.33-.8-2.13"/>
    <path class="cls-24" d="M406.45,144.56c1.38-.24,2.6.72,3.16,1.65.13.22.48.83.47,1.69-.02,1.09-.77,2.1-1.61,2.59-1.12.66-2.57.38-3.48-.45-1.24-1.13-1.17-3.02-.41-4.18.14-.21.76-1.09,1.87-1.29"/>
    <path class="cls-24" d="M397.4,146.67s5.74-3.45,8.96-2.8c4.69.95,5.49,2.46,6.37,5.3,0,0-2.21-3.37-5.54-3.94-3.18-.54-9.79,1.44-9.79,1.44Z"/>
    <path class="cls-24" d="M382.44,140.64s-5.75-6.75-9.23-7.94c-5.08-1.73-12.13-.61-14.55,1.32,0,0,9.44-1.94,12.99-.62,3.39,1.26,10.79,7.23,10.79,7.23Z"/>
    <path class="cls-24" d="M386.44,123.85c.57.53.16.97-.23,2.19-.12.39-.3.99-.49,1.63-.35,1.19-1.77,1.69-2.77.97-1.8-1.29-3.37-2.55-4.69-3.23-3.55-1.84-7.1-3.99-11.09-4.59-1.91-.29-3.65-.32-5.47.15-.57.15-2.27,1.03-2.88.47-.25-.23.7-1.58.8-1.72,1.93-2.72,4.89-3.17,8.25-2.91,6.86.53,12.31,4.18,18.55,7.04"/>
    <path class="cls-24" d="M420.88,134.04s-1.77-1.03-1.79-1.03c-3.83-2.24-7.93-3.5-12.21-4.24-2.17-.37-4.26,1.02-4.82,3.15,0,.01,0,.02,0,.04-.11.42-.68,1.64-.52,2.06.03.08.1.14.17.2.73.6,1.67.88,2.61.97,1.16.1,2.3-.15,3.46-.1,3.33.16,6.84.28,9.86,1.72.24.11,1.52.76,1.75.88,1.46-1.44,1.86-3.24,1.49-3.63Z"/>
    <g>
      <path class="cls-24" d="M386.15,165.14c-1.75.34-3.98-.57-5.19-1.99-.27-.32-1.45-.46-1.07-.01,1.6,1.89,4.85,3.03,7.1,2.59.22-.04.24-.21.02-.36-.22-.16-.63-.27-.86-.22"/>
      <path class="cls-24" d="M379.38,162.49c-.86-.8-1.91-1.41-3-1.85-.16-.06-.39-.07-.55,0-.12.06-.18.17-.08.28.42.47,1.05.8,1.66.98.19.06.46.09.62-.05.15-.12,0-.28-.16-.33-.51-.15-.99-.41-1.34-.79-.21.09-.42.19-.63.28.98.39,1.92.95,2.68,1.67.15.14.43.17.62.12.14-.04.32-.17.17-.31"/>
      <path class="cls-24" d="M374.86,161.24c-1.31-.45-2.68-1.52-3.01-2.73-.5-1.84,1.15-3.93,3.1-4.4.21-.05.16-.22,0-.31-.22-.13-.53-.12-.75-.07-1.7.41-3.24,2.06-3.47,3.56-.22,1.41.75,2.74,2.21,3.62.43.26.91.5,1.4.66.2.07.58.12.72-.01.15-.13-.01-.26-.2-.32"/>
      <path class="cls-24" d="M388.78,165.21c-.02-.18.14-.24.25-.2.35.12.75.13,1.13-.02.07.18.14.36.21.55-.74-.14-1.53-.13-2.3.11-.15.05-.32-.07-.4-.2-.06-.1-.1-.3.05-.35"/>
      <path class="cls-24" d="M387.72,165.1c.87-.26,1.75-.27,2.57-.11.12.02.25.13.3.27.04.11.02.23-.09.27"/>
      <path class="cls-24" d="M391.46,166.25c.87.23,2.06-.04,2.8-.92,1.12-1.33,1.09-3.34.33-4.65-.08-.14.02-.26.15-.26.17,0,.32.14.41.29.67,1.15.84,2.72.25,4.12-.55,1.3-1.66,1.99-2.81,2.06-.34.02-.69,0-1.02-.09-.13-.04-.35-.17-.36-.35-.01-.18.13-.22.25-.18"/>
    </g>
    <path class="cls-12" d="M379.45,172.56c-5.73-1.81-14.79-5.4-14.79-5.4,0,0-2.14,13.31,11.13,17.5,13.28,4.19,16.09-8.52,16.09-8.52,0,0-6.7-1.77-12.43-3.57Z"/>
    <path class="cls-24" d="M379.5,172.58c-2.72-.86-13.55-4.78-13.55-4.78,0,0,1.5,8.93,11.35,12.03,10.68,3.37,13.85-3.93,13.85-3.93l-11.65-3.33Z"/>
    <path class="cls-32" d="M379.49,173.02c-2.72-.86-10.86-3.93-10.86-3.93,0,0,2.04,3.92,10.21,6.49,8.17,2.58,11.67.5,11.67.5l-11.02-3.07Z"/>
    <path class="cls-12" d="M392.58,175.2c-.26-.16-.71-.25-1.98-.78-2.12-.88-2.65-1.33-4.18-1.96-2.63-1.06-4.68-.5-5.85-.87s-2.53-2.01-5.29-2.64c-1.62-.37-5.71-1.01-7.94-1.5-1.34-.3-2.71-1.3-3.01-1.32-.42-.02-.6,3.16,14.12,7.8,14.71,4.64,14.51,1.49,14.15,1.27Z"/>
    <path class="cls-33" d="M336,414.29c9.05,5.62,49.12-24.95,58.01-27.15.81-25.92,20.84-95.84,21.92-115.57,1.35-24.45-38.81-59.88-41.3-61.93,0,0-17.49,87.62-17.13,122.54.06,6.33-19.49,70.86-21.51,82.11Z"/>
    <path class="cls-10" d="M164.48,441.87h0c-5.43,16.97-8.2,34.69-8.18,52.51v7.62c-.46,25.96,5.14,43.74,12.32,68.69l15.23,114.64s-.08,45.83-4.68,83.71c-4,32.83,6.34,105.65,6.34,105.65l11.38,2.16c10.28,1.95,20.8,2.33,31.2,1.14l27.83-2.57,15.55-208.12,15.43-128.13,21.15-71.5-143.58-25.8Z"/>
    <path class="cls-10" d="M335.74,463.06l-14.58,219.77c0,9.19-3.69,17.53-7.91,61.77l-8.02,75.37-2.89,46.64-6.48,1.12c-8.9,1.79-18,2.36-27.05,1.7l-19.83-.81,21.99-401.21,64.75-4.33Z"/>
    <path class="cls-33" d="M343.49,479.59c.21-.74.41-1.53.61-2.29,5.6-20.4,10.71-30.78,16.96-59.67l42.32-123.51-2.41-50.57s-6.86-10.99-7.22-13.49l-20.73-22.17c2.8,16.26-18.69,12.08-18.69,12.08l-5.39,15.21-.72,2.31.82-18.81c-33.58-10.91-35.08-35.73-35.08-35.73l-10.64,1.76c-12.71,1.43-45.5,4.89-56.16,11.97-12.51,8.26,5.9,44.51,13.53,65.8l-24.24-3.03s-36.36,77.3-46.55,100.04c-10.2,22.74-22.32,55.77-28.5,70.5-18.94,45.16,63.81,76.32,96.84,82.92,30.64,6.12,67.96,25.53,84.79-31.73l.04.03c.15-.56.29-1.07.43-1.62Z"/>
    <path class="cls-22" d="M402.41,288.9c-5.85,18.65-11.18,37.48-17.21,56.07-1.56,4.81-3.19,9.6-4.84,14.38-.12.35,1.29.18,1.44-.23,5.58-16.08,10.37-32.38,15.32-48.66,2.21-7.27,4.46-14.53,6.73-21.79.11-.37-1.31-.18-1.44.23h0Z"/>
    <path class="cls-28" d="M284.71,538.33c-2.58,3.3-3.59,7.61-4.25,11.67-.83,5.13-1.05,10.36-1.12,15.56-.05,3.81.04,7.61-.13,11.42l-1.31,29.02c-.67,14.95-1.35,29.9-2.02,44.85-.57,12.71-1.15,25.42-1.72,38.14-.18,4-.21,8.04-.6,12.03-.69,7.1-1.39,14.19-2.08,21.29-1.29,13.19-2.58,26.39-3.87,39.58l-4.44,45.44c-1.28,13.14-2.57,26.27-3.85,39.41-.68,6.98-1.36,13.96-2.05,20.94l-.09.96c-.06.66,1.4.42,1.46-.15.48-4.89.96-9.78,1.43-14.67,1.17-11.97,2.34-23.95,3.51-35.92,1.46-14.96,2.92-29.93,4.39-44.89,1.37-13.99,2.73-27.98,4.1-41.97.88-9.04,1.77-18.07,2.65-27.11.3-3.03.49-6.01.63-9.05.49-10.9.98-21.81,1.47-32.71.68-15.04,1.36-30.09,2.03-45.13l1.59-35.23c.46-10.21-.15-20.54,1.27-30.66.6-4.25,1.47-9.02,4.18-12.49.55-.7-.83-.78-1.19-.33h0Z"/>
    <path class="cls-27" d="M339.23,125.64c-.21,2.04-2.72,9.81-3.04,11.79l-10.24-3.14c-1.18-7.63-2.97-11.21-3.64-13.35-1.04-3.35.99-14.38,1.6-17.77,1.03-5.72,4.95-12.35,8.47-17.18,3.87-5.32,7.58-8.1,13.23-11.28,11.52-6.49,28.85-7.09,44.16-1.53,1.45.53,2.89,1.11,4.27,1.73,13,5.85,22.65,12.49,28.12,26.19,3.94,9.88,2.22,17.45-1.28,29.09,2.78-11.23,1.67-21.28,1.59-21.66-1.59-8.64-5.73-12.16-8.93-13.6-2.79-1.25-5.19-1.11-5.67-1.06-3.51-.21-8.21-2.04-11.54-3.54-2.49-1.12-4.42-2.15-4.94-2.43-1.41-1.7-3.78-3.33-6.87-4.72-7.17-3.23-18.38-5.02-21.55-2.41-3.51,2.9-12.75,14.17-13.64,17.16,0,0-8.58,13.07-10.1,27.73Z"/>
    <path class="cls-27" d="M381.61,195.44c-.12-.05-.23-.14-.31-.23-1.6-1.9-1.53-2.68-2.44-3.2-.21-.12-.3-.23-.97-.54-2.68-1.21-4.3-2-13.19.55-.18.05-9.63-4.08-9.82-4.15l-4.37-3.88c-.69-.77-14.99-22.35-14.99-22.35-.13-.62-2.45-5.43-2.43-5.98-.05-.05-.1-.1-.15-.14-.02-.01-.06-.05-.11-.09-.02.03-.04.07-.06.09-.1.21-.16.44-.21.66-.24.97,1.93-5.14,1.95-4.14.03,1.54-.22,3.5-.25,5.03-.01.54-.48,7.98-.45,8.51,1.77,1.98,9.92,23.09,16.63,29.29.47.28.8,1.25,4.98,2.87,7.85,3.04,15.62,5.31,24.21,5.34,2.24,0,4.34-.98,5.73-2.65,3.97-4.77,12.77-15.4,16.45-23.19-3.58,4.09-11.18,12.87-16.4,18.84-.16.18-3.26-.55-3.54-.55"/>
    <path class="cls-11" d="M339.23,125.64c-.21,2.04-2.72,9.81-3.04,11.79l-10.24-3.14c-1.18-7.63-2.97-11.21-3.64-13.35-1.04-3.35.99-14.38,1.6-17.77,1.03-5.72,3.65-16.05,7.17-20.89,3.87-5.32,9.22-8.48,14.86-11.66,11.52-6.49,28.52-3,43.83,2.55,1.45.53,2.89,1.11,4.27,1.73,13,5.85,22.65,12.49,28.12,26.19,3.94,9.88,2.6,17.44.48,22.93,2.78-11.23.87-15.84.75-16.21-2.34-6.87-5.32-12.73-8.52-14.17-2.79-1.25-6.52.18-7,.22-3.51-.21-8.21-2.04-11.54-3.54-2.49-1.12-4.42-2.15-4.94-2.43-1.41-1.7-10.06-7.8-13.15-9.19-7.17-3.23-12.86-3.08-16.02-.47-3.51,2.9-11.99,16.7-12.89,19.69,0,0-8.58,13.07-10.1,27.73Z"/>
    <path class="cls-27" d="M326.61,152.25c-8.23,6.62-8.38-8.7-8.38-8.7-3.7-8.81-1.41-16.3.37-21.35,1.78-5.05,7.38-3.25,7.38-3.25,4.62,1.98,5.97,5.2,5.04,22.55"/>
    <path class="cls-24" d="M325.43,131.95c-1.76,0-2.8,1.26-3.31,2.84-.19.6-.26,1.21-.37,1.82-.23,1.23-.48,2.38-.37,3.65.09,1.03.7,4.79,2.52,4.17,1.2-.41.94-2.6.97-3.56.02-.75-.1-2.09.4-2.72.41-.52,1.61.29,2.11.51.13.06.53.03.53-.19-.15-4.15,0-8.91-2.01-12.7-.26-.49-.64-1.22-1.17-1.49-.46-.23-.87.17-1.23.45-1.92,1.54-2.9,3.94-3.34,6.3-.05.26.55.17.59-.06.41-2.15,1.25-4.31,2.9-5.81.07-.07.85-.62.85-.64,0,.03-.31-.05-.31.02,0,.02.11.06.12.08.3.5.78.89,1.07,1.44.66,1.3,1.01,2.76,1.28,4.19.5,2.74.55,5.5.65,8.28l.53-.19c-.74-.32-1.92-1.16-2.74-.65-.97.61-.79,2.45-.82,3.4-.02.71-.01,1.44-.15,2.14-.04.2-.09.64-.28.77-.37.24-.77-.36-.95-.65-1.33-2.1-.94-4.61-.55-6.9.28-1.62.75-4.14,2.86-4.14.25,0,.61-.38.22-.38h0Z"/>
    <path class="cls-22" d="M340.52,222.9c-9.02-2.57-17.16-8.31-23.5-15.13-3.03-3.26-5.57-6.85-7.66-10.77-1.59-2.97-3-6.15-3.63-9.48-.21-1.1-.44-2.4-.16-3.52l-.79.6c3.04-.37,6.08-.73,9.12-1.1l-.66-.35c.68,3.08,1.89,6.1,3.21,8.96,2.94,6.35,7.01,12.19,12.25,16.85,3.65,3.24,7.83,5.82,12.35,7.65.63.26,1.69-.65.83-1-12.88-5.24-22.06-16.81-26.33-29.82-.33-.99-.64-2-.87-3.02-.06-.27-.43-.38-.66-.35-3.04.37-6.08.73-9.12,1.1-.36.04-.7.22-.79.6-.23.92-.08,1.99.04,2.91.41,3.08,1.62,6.04,2.97,8.82,4.15,8.51,10.56,15.62,18.3,21.04,4.36,3.05,9.15,5.56,14.29,7.02.65.18,1.71-.75.83-1h0Z"/>
    <path class="cls-22" d="M353.89,219.68c3.83.67,7.84,1.13,11.72.52,2.17-.34,4.42-1.04,6.09-2.53,1.88-1.68,2.54-4.22,2.08-6.65-.24-1.28-.48-2.56-.71-3.84l-1.4.46c1.06.9,2.12,1.79,3.19,2.69.75.63,1.49,1.26,2.24,1.89.35.3.84.59,1.12.95.59.74.7,2.81.54,3.91-.49,3.3-3.11,5.95-5.81,7.67-3.59,2.28-7.74,2.59-11.77,1.37-.38-.12-1.68.48-1.17.63,6.74,2.03,14.54-.18,18.63-6.14,1.43-2.08,2.13-4.73,1.29-7.18-.38-1.11-1.4-1.67-2.27-2.42-1.54-1.3-3.09-2.6-4.63-3.91-.26-.22-1.48,0-1.4.46.31,1.8.93,3.86.83,5.72-.17,3.2-2.48,5.28-5.5,6.02-3.94.96-8.23.36-12.16-.32-.39-.07-1.69.56-.91.69h0Z"/>
    <path class="cls-22" d="M340.72,216.19c-.55,6.17-1.1,12.35-1.64,18.52-.87,9.85-1.75,19.71-2.62,29.56-.2,2.28-.4,4.56-.61,6.84-.02.2.12.31.3.37,2.33.73,4.66,1.46,6.98,2.19.34.11,1.11-.07,1.16-.51.65-6.21,1.31-12.41,1.96-18.62,1.04-9.89,2.08-19.77,3.13-29.66.24-2.26.48-4.52.71-6.78.02-.19-.12-.32-.3-.37-2.64-.69-5.27-1.37-7.91-2.06-.54-.14-1.71.66-.86.88,2.64.69,5.27,1.37,7.91,2.06l-.3-.37c-.65,6.21-1.31,12.41-1.96,18.62-1.04,9.89-2.08,19.77-3.13,29.66-.24,2.26-.48,4.52-.71,6.78l1.16-.51c-2.33-.73-4.66-1.46-6.98-2.19l.3.37c.55-6.17,1.1-12.35,1.64-18.52.87-9.85,1.75-19.71,2.62-29.56.2-2.28.4-4.56.61-6.84.06-.66-1.41-.42-1.46.15Z"/>
    <path class="cls-22" d="M361.69,220.83c-2.13,5.93-4.26,11.86-6.39,17.8-3.38,9.4-6.76,18.81-10.13,28.21-.77,2.16-1.55,4.31-2.32,6.47l1.46-.16c.83-7.9,1.67-15.8,2.5-23.7l.62-5.92c.08-.8.08-1.68.26-2.47.21-.95.66-1.91.98-2.83l2.36-6.81c1.36-3.92,2.72-7.84,4.08-11.76l-1,.53c2.68.34,5.37.67,8.05,1.01.61.08,1.52-.78.54-.9-2.68-.34-5.37-.67-8.05-1.01-.37-.05-.87.16-1,.53-1.14,3.29-2.28,6.58-3.42,9.87l-2.48,7.16c-.48,1.38-1.09,2.78-1.46,4.2-.55,2.16-.53,4.63-.76,6.85-.54,5.1-1.08,10.21-1.61,15.31-.35,3.37-.71,6.73-1.06,10.1-.07.69,1.29.3,1.46-.16,2.13-5.93,4.26-11.86,6.39-17.8,3.38-9.4,6.76-18.81,10.13-28.21.77-2.16,1.55-4.31,2.32-6.47.2-.54-1.27-.37-1.46.16Z"/>
    <path class="cls-33" d="M264.13,190.64c-13.8,1.16-34.67,5.42-44.17,59.74-5.88,56.8-16.7,108.7.7,125.15,33.05,31.25,167.07,29.47,167.07,29.47l13.17-42.68-133.27-21.76s18.9-105.79,14.81-112.56"/>
    <path class="cls-33" d="M310.67,200.94c-13.8,1.16-34.67,5.42-44.17,59.74-5.88,56.8-16.7,108.7.7,125.15,33.05,31.25,167.07,29.47,167.07,29.47l13.17-42.68-133.27-21.76s18.9-105.79,14.81-112.56"/>
    <path class="cls-22" d="M211.99,313.66c-1.5,21.11-9.79,47.92,8.58,64.3,4.77,4.25,10.54,7.3,16.38,9.79,7.27,3.1,14.88,5.39,22.54,7.3,17.58,4.37,35.64,6.81,53.65,8.56,16.38,1.59,32.83,2.53,49.27,3,8.18.24,16.37.41,24.55.31.11,0,.22,0,.33,0,.37,0,.87-.13,1-.53,1.48-4.8,2.96-9.6,4.45-14.41,2.36-7.66,4.73-15.32,7.09-22.98.54-1.76,1.09-3.53,1.63-5.29.05-.17-.15-.33-.29-.35-4.43-.72-8.85-1.45-13.28-2.17-10.63-1.74-21.26-3.47-31.88-5.21-12.81-2.09-25.62-4.18-38.43-6.27-11.08-1.81-22.15-3.62-33.23-5.42-3.66-.6-7.31-1.19-10.97-1.79l-3.46-.56c-.5-.08-1.28-.37-1.79-.29-.07,0-.16-.03-.23-.04l.29.35c.87-4.95,1.72-9.91,2.56-14.87,1.87-10.95,3.7-21.91,5.47-32.88,1.81-11.22,3.58-22.44,5.1-33.7.53-3.93,1.04-7.87,1.39-11.82.11-1.23.13-2.46.22-3.69.06-.81.29-1.61.44-2.4.91-4.92,1.46-9.95,1.44-14.95-.02-5.38-.55-11.52-3.84-16.01-.72-.98-1.59-1.82-2.58-2.53-.43-.31-1.75.31-1.14.75,4.56,3.26,5.67,9.63,6,14.84s-.15,10.86-1.01,16.19c-.21,1.28-.52,2.54-.71,3.82-.13.86-.09,1.76-.15,2.63-.25,3.57-.7,7.13-1.16,10.67-1.41,10.9-3.12,21.76-4.85,32.61-1.79,11.19-3.65,22.38-5.54,33.55-.67,3.95-1.35,7.89-2.03,11.84-.22,1.28-.44,2.56-.66,3.84-.11.64-.34,1.35-.35,2,0,.08-.03.17-.04.26-.03.18.13.33.29.35,4.43.72,8.85,1.45,13.28,2.17,10.63,1.74,21.26,3.47,31.88,5.21,12.81,2.09,25.62,4.18,38.43,6.27,11.08,1.81,22.15,3.62,33.23,5.42,3.66.6,7.31,1.19,10.97,1.79l3.46.56c.5.08,1.28.37,1.79.29.07,0,.16.03.23.04l-.29-.35c-1.48,4.8-2.96,9.6-4.45,14.41-2.36,7.66-4.73,15.32-7.09,22.98-.54,1.76-1.09,3.53-1.63,5.29l1-.53c-6.62.09-13.25-.02-19.87-.17-15.57-.35-31.13-1.13-46.65-2.44-18.06-1.53-36.13-3.71-53.85-7.55-8.02-1.74-15.98-3.82-23.7-6.61-6.38-2.31-12.7-5.11-18.27-9.03-3.29-2.32-6.24-5.09-8.58-8.4-3.27-4.63-5.13-10.06-5.99-15.63-1.78-11.57.34-23.34,1.72-34.83.31-2.61.59-5.22.78-7.84.05-.65-1.42-.4-1.46.15h0Z"/>
    <path class="cls-27" d="M394.02,387.13l35.46,10.85,22.22-1.48c6.92.76,13.87,1.17,20.83,1.24,3.04-.52,2.75-2.07,2.41-3.25-.34-1.18-15.77-4.75-15.77-4.75,0,0,21.43,2.59,24.94.99,3.5-1.6,2.43-4.31,1.3-5.86s-35.68-3.53-35.68-3.53l14.62-1.5s19.05,4,23.73,2.55c4.68-1.45,2.9-6.46,2.9-6.46l-23.45-3.86-16.46-2.07,17.04-.16s14.04,2.73,17.85.55c3.82-2.18,2.8-5.9,2.8-5.9l-24.22-5.04-26.83-.92c3.16-1.35,7.68-1.59,9.87-5.13,1.85-3.4-.77-3.18-.77-3.18l-23.93.43-23.99,14-4.88,22.47Z"/>
    <path class="cls-27" d="M495.16,401.85l-16.72-3.27,7.14,5.16c3.71,1.16,7.25,2.71,10.54,4.63,1.66,1.68-.54,4.2-.54,4.2l-28.49-9.62-14.71-3.05c-5.67-1.18-10.29-4.9-12.12-9.78l-7.32-19.54,12.49-8.02,12.04-9.5,7.51-4.2,13.02-2.92s3.22,2.93-1.71,5.98c-4.94,3.05-8.01,4.64-8.01,4.64l-5.98,6.35,2.48,3.18,27.48,6.7,9.49-.54s8.97-4.18,15.09-1.03c.23.12.41.3.53.51.35.62.08,1.35-.61,1.64l-16.49,6.84-10.21-.11,10.89,2.73s14.47-2.33,19.7-.43c5.23,1.9,1.81,3.83,1.81,3.83l-18.15,5.51-16.53-1.08,10.99,3.07,14.75,1.16s4.58.54,4.22,3.39c-.11,1.05-.98,1.9-2.16,2.1l-20.41,1.47Z"/>
    <path class="cls-26" d="M533.43,377.87s17.35-1.02,31.6-4.73c0,0-13.05.38-31.6,4.73Z"/>
    <path class="cls-26" d="M532.42,387.85s20.78,10.58,38.09,14.49c0,0-16.54-7.34-38.09-14.49Z"/>
    <path class="cls-26" d="M525.42,397.3s12.36,14.34,24.31,22.62c0,0-10.2-10.61-24.31-22.62Z"/>
    <path class="cls-26" d="M519.09,362.05s7.27-17.73,9.59-28.8c0,0-5.92,12.42-9.59,28.8Z"/>
    <path class="cls-26" d="M508.63,361.12s-2.05-21.52-5.55-33.83c0,0,.6,15.49,5.55,33.83Z"/>
    <path class="cls-26" d="M528.33,368.19s19.74-12.47,31.24-24.93c0,0-14.18,9.32-31.24,24.93Z"/>
    <path class="cls-14" d="M396.63,388.95c5.67,1.74,11.34,3.48,17.01,5.22,3.62,1.11,7.24,2.22,10.86,3.33,1.24.38,2.64,1.08,3.96,1.01,6.86-.37,13.71-.92,20.56-1.37,1.63-.11,3.19.13,4.83.28,4.29.39,8.59.65,12.9.78,2.12.06,6.6.84,7.83-1.66.48-.97.22-2.12-.75-2.55-3.11-1.4-6.78-1.95-10.08-2.7-3.3-.74-6.6-1.44-9.91-2.11-.21-.04-.43-.09-.64-.13l-.92.67c4.22.35,8.44.62,12.67.82,3.12.15,6.25.26,9.38.23,2.04-.02,4.34.06,6.31-.61,1.49-.51,3.3-1.47,4.27-2.76.57-.75.82-1.97,0-2.66-.9-.76-2.83-.82-3.93-1.01-5.63-.96-11.33-1.5-17-2.08-4.24-.43-8.47-.83-12.72-1.19l-.76.67c2.57-.15,5.14-.31,7.71-.46,1.38-.08,2.76-.17,4.14-.25.11,0,.8-.01.46-.04.25.02.5.08.74.12,3.18.49,6.37.9,9.57,1.21,3.48.34,7.21.76,10.68.18,2.94-.49,6.47-2.6,6.81-5.87.02-.17-.12-.2-.26-.22-10.3-1.7-20.58-3.5-30.94-4.8-2.99-.38-5.98-.75-8.97-1.13l-.76.67c3.12-.19,6.24-.38,9.35-.57,2.03-.12,4.06-.25,6.09-.37.61-.04,1.23-.06,1.84-.11.13-.01.25-.02.38-.02.21-.01-.42-.07-.13-.01,3.83.7,7.65,1.38,11.54,1.65,2.13.15,4.36.24,6.46-.21,1.92-.41,4.21-1.71,4.16-3.94-.02-.88-.44-2.25-1.31-2.6-.98-.39-2.24-.47-3.27-.68-4.2-.87-8.4-1.75-12.6-2.62-2.69-.56-5.4-1.29-8.12-1.69-.86-.13-1.77-.09-2.64-.12-2.11-.07-4.22-.14-6.33-.22-2.67-.09-5.38-.06-8.05-.35l-6.14-.68c-2.41-.27-4.78-.66-7.22-.45-1.85.16-3.65.57-5.4,1.17-.97.34-.07.64.53.43,5.05-1.75,10.43-.57,15.61,0,2.31.26,4.57.36,6.9.44l11.08.38c.63.02.49,0,1.23.16,1.3.27,2.61.54,3.91.81,4.06.85,8.12,1.69,12.18,2.54,1.68.35,3.35.7,5.03,1.05.63.13,1.75.14,2.31.48-.15-.09.09.17.13.24.23.34.42.72.54,1.12.44,1.39-.11,2.66-1.32,3.46-1.59,1.04-4.15.75-5.94.66-4-.21-7.96-.87-11.89-1.6-.55-.1-1.05-.07-1.61-.03l-4.92.3c-3.69.22-7.38.45-11.06.67l-.72.04c-.26.02-1.55.57-.76.67,5.44.68,10.9,1.29,16.34,2.05,5.45.77,10.87,1.78,16.3,2.68,2.43.4,4.85.8,7.28,1.2l-.26-.22c-.31,2.91-3.2,4.84-5.9,5.1-3.52.34-7.16-.08-10.65-.45-2.83-.3-5.64-.72-8.45-1.12-1.55-.22-3.21.08-4.76.17-2.77.17-5.54.33-8.31.5-.26.02-1.54.6-.76.67,8.73.74,17.49,1.54,26.17,2.73,1.96.27,3.94.51,5.86.99.36.09.9.16,1.2.41,1.4,1.18-.55,2.87-1.47,3.45-1.99,1.26-3.93,1.31-6.27,1.36-2.96.06-5.93-.03-8.89-.16-4.58-.2-9.16-.49-13.74-.87-.33-.03-1.71.51-.92.67,6.04,1.2,12.43,2.43,18.43,4.22.62.18,2.03.41,2.42.96s.25,1.65-.15,2.12c-.73.85-2.22.59-3.23.57-1.27-.02-2.54-.06-3.81-.11-4.14-.16-8.27-.44-12.4-.84-1.33-.13-2.53-.27-3.85-.18-6.71.45-13.42.9-20.14,1.34-.27.02-.54.05-.82.05.09,0,.34.11,0-.04-.75-.32-1.61-.49-2.39-.73-3.21-.99-6.42-1.97-9.64-2.96-6.3-1.93-12.59-3.86-18.89-5.79-.37-.11-1.67.46-1.18.62h0Z"/>
    <path class="cls-22" d="M268.23,342.23c-3.81-.36-7.77-.17-11.3,1.43-3.42,1.55-5.98,4.3-7.8,7.53-.36.65,1.1.57,1.37.09,1.65-2.94,3.92-5.5,7.04-6.91,3.18-1.44,6.74-1.54,10.16-1.22.63.06,1.51-.83.54-.93h0Z"/>
    <path class="cls-27" d="M917.08,653.16c1.02-.1,42.86-1,58.9-18.46,11.59-12.62,8.39-77.62,8.39-77.62l-27.6,12.26-4.53,50.01-46.47,18.97,11.31,14.84Z"/>
    <path class="cls-27" d="M879.97,650.19c.92,1.62,2.73,2.55,4.64,2.39,0,0-1.21,6.43,5.08,6.46,0,0,.64,5.92,6.16,4.93,1.86,2.73,5.41,3.81,8.6,2.63,5.6-2.04,15.26-14.9,15.26-14.9l-11.85-13.73s-13.82-.05-15.53.76c-1.19.55-7.37,4.28-10.61,6.22-1.83,1.1-2.58,3.34-1.74,5.24Z"/>
    <path class="cls-14" d="M902.83,666.9c1.94-1.15,3.93-2.65,5.19-4.56,1-1.51,1.34-3.93-.43-5.07-1.8-1.16-4.16.26-5.57,1.41-2.19,1.78-4.33,3.62-6.5,5.42l1.31-.12c1.35-1.58,2.7-3.16,4.05-4.75.52-.61,1.18-1.24,1.46-2.01.25-.7.31-1.56.12-2.27-.36-1.37-1.76-1.71-3.03-1.69-.82,0-1.6.32-2.31.71-.77.42-1.56.81-2.32,1.25-.26.15-.15.27.08.31.32.05.75-.12,1.02-.27.56-.32,1.15-.6,1.72-.91.36-.2.73-.49,1.16-.48.23,0,.48.07.7.11.62.13,1.07.33,1.37.93.26.55.3,1.19.23,1.79-.18,1.49-1.43,2.57-2.36,3.66-1.07,1.25-2.14,2.51-3.21,3.76-.2.24.18.24.34.23.32-.02.72-.13.97-.34,1.7-1.42,3.4-2.84,5.1-4.26.82-.69,1.62-1.46,2.56-1.99s1.85-.13,2.4.7c2.25,3.36-2.76,6.99-5.18,8.43-.26.15-.16.27.08.31.32.05.76-.12,1.02-.27h0Z"/>
    <path class="cls-14" d="M910.12,649.28c-1.71,2.24-4.48,3.44-7.29,3.2-3.31-.28-5.1-2.84-7.85-4.29-.43-.23-1.63.06-1.22.74,1.88,3.08,1.43,7.17-1.06,9.78l1.16-.2c-.75-.4-1.09-1.32-1.48-2.03-.44-.8-.89-1.6-1.33-2.4-.94-1.69-2.12-3.4-2.83-5.19-1.14-2.88,2.23-4.61,3.4-6.85.38-.72-1.09-.73-1.39-.17-1.29,2.47-4.76,4.16-3.47,7.4.73,1.82,1.89,3.53,2.85,5.24.52.93,1.03,1.86,1.55,2.79.43.77.77,1.6,1.58,2.02.39.21.86.11,1.16-.2,2.78-2.9,3.27-7.41,1.18-10.84l-1.22.74c1.82.96,3.19,2.57,5.02,3.51,1.32.68,2.78,1.01,4.27,1.02,3.14.04,6.27-1.35,8.19-3.86.56-.73-.81-.95-1.21-.43h0Z"/>
    <path class="cls-14" d="M885.74,652.81s.09-.11.04-.06.04-.04.05-.05c.01-.01.12-.1.04-.04s.05-.03.05-.03c.07-.04.14-.08.21-.12-.03.02-.12.06-.03.02.04-.02.09-.04.13-.06.34-.16.67-.31.98-.51.63-.39,1.18-.89,1.64-1.48.21-.27-.18-.44-.4-.44-.35,0-.74.12-.96.4-.05.07-.11.13-.16.2-.06.08.02-.01-.03.03-.03.03-.06.06-.09.09-.12.12-.24.24-.37.35-.06.05-.12.1-.18.15-.03.03-.07.05-.1.08.07-.05.04-.03-.01,0-.14.1-.28.19-.43.27-.04.02-.07.04-.11.06-.08.05-.01,0,.03-.01-.07.01-.16.08-.22.11-.19.09-.37.17-.56.27-.34.18-.66.41-.89.72-.2.28.17.44.4.44.34,0,.75-.11.96-.4h0Z"/>
    <path class="cls-37" d="M1097.64,875.19c-2.4.26-4.76,1.69-6.38,3.41-1.95,2.07-2.95,4.71-3.5,7.46s-.82,5.65-.29,8.43c.2,1.03.49,2.24,1.13,3.11.08.11.51-.09.48-.13-1.57-2.13-1.53-5.6-1.34-8.06.39-5.06,2.02-10.5,6.79-13.04.88-.47,1.89-.89,2.89-1,.12-.01.52-.21.21-.18h0Z"/>
    <g>
      <path class="cls-25" d="M1098.65,859.75c-.09-.99-5.61-5.21-14.31-17.19l.34-.22c3.96-.85,7.39-3.09,10.81-5.35,2.56-1.68,5.08-3.41,7.49-5.3,2.05-1.61,3.81-3.62,5.99-5.05l1.97,4.17,9.43,20.03,2.6,3.81s-.01,27.05-7.93,31.61c-7.91,4.57-27.61,10.1-27.61,10.1,0,0,11.73-31.18,11.23-36.63Z"/>
      <path class="cls-37" d="M1098.8,859.71c-.12-.83-1.34-1.74-1.87-2.29-1.83-1.93-3.64-3.88-5.37-5.9-1.28-1.5-2.53-3.03-3.75-4.58-.69-.88-1.37-1.78-2.04-2.68-.32-.43-.76-.87-1-1.36-.39-.79-.27-.2-.06-.5.11-.16.86-.22,1.04-.27,3.97-1.11,7.43-3.51,10.82-5.76,2.22-1.48,4.44-3,6.53-4.66,2.05-1.63,3.81-3.58,5.99-5.05l-.26.03c3.42,7.25,6.83,14.51,10.25,21.76.4.86.76,1.77,1.24,2.58.59.98,1.3,1.9,1.94,2.85.25.37.49.63.56,1.05.21,1.24-.06,2.74-.12,3.99-.12,2.53-.31,5.05-.59,7.57-.59,5.35-1.39,11.13-3.91,15.96-1.17,2.25-2.68,3.59-4.93,4.71-2.99,1.5-6.12,2.7-9.26,3.84-5.23,1.9-10.53,3.58-15.88,5.12-.17.05-.4.16-.58.17-.26,0,.03.1.03.05.01-.26.23-.61.32-.86.57-1.54,1.14-3.09,1.7-4.63,1.87-5.18,3.69-10.38,5.39-15.62,1.45-4.5,3.12-9.16,3.74-13.86.07-.55.13-1.1.09-1.65,0-.07-.3-.02-.29.08.15,1.94-.5,4.03-.98,5.88-.78,3.06-1.71,6.08-2.68,9.09-1.91,5.95-3.98,11.85-6.13,17.71-.48,1.31-.96,2.62-1.45,3.92-.03.07.14.04.16.04,7.02-1.97,14.01-4.21,20.78-6.92,3.03-1.22,6.89-2.41,8.98-5.09,2.2-2.82,3.18-6.56,3.92-9.99.85-3.9,1.33-7.89,1.63-11.86.19-2.47.44-5.02.35-7.49-.03-.68-.35-.97-.76-1.58-.63-.92-1.35-1.83-1.89-2.8-1.25-2.28-2.24-4.75-3.35-7.1-2.66-5.66-5.33-11.32-7.99-16.98-.04-.08-.21,0-.26.03-2.06,1.39-3.74,3.21-5.65,4.77-2.06,1.69-4.28,3.2-6.49,4.68-2.18,1.46-4.37,2.95-6.71,4.17-1.31.69-2.67,1.28-4.09,1.7-.61.18-1.16.24-1.69.58-.02.02-.04.04-.02.07,3.2,4.39,6.61,8.63,10.3,12.62.95,1.03,1.94,2.04,2.89,3.07.35.38,1.03.93,1.11,1.48.01.08.3.01.29-.08Z"/>
    </g>
    <g>
      <path class="cls-25" d="M1110.93,830.82s-5.56,5.48-11.73,9.67c-6.17,4.2-11.99,5.89-11.99,5.89"/>
      <path class="cls-37" d="M1110.81,830.79c-6.63,6.51-14.57,12.86-23.62,15.52-.17.05-.13.21.04.16,9.12-2.68,17.13-9.05,23.81-15.62.12-.12-.16-.13-.24-.06h0Z"/>
    </g>
    <path class="cls-37" d="M1097.87,871.12c-2.29.2-4.57,1.57-6.1,3.23-1.86,2.02-2.75,4.61-3.21,7.27s-.66,5.58-.09,8.3c.22,1.03.52,2.22,1.16,3.09.08.11.51-.08.48-.13-1.55-2.12-1.6-5.5-1.47-7.97.26-4.88,1.66-10.34,6.36-12.74.81-.41,1.74-.78,2.66-.86.12-.01.52-.22.21-.19h0Z"/>
    <path class="cls-37" d="M1102.63,870.42c-2.41.21-4.77,1.75-6.3,3.55-1.77,2.1-2.57,4.71-3,7.38s-.57,5.47.03,8.13c.22.98.53,2.1,1.14,2.93.11.15.57-.02.44-.2-1.66-2.26-1.61-5.95-1.41-8.56.38-4.78,1.88-9.97,6.57-12.17.77-.36,1.63-.68,2.49-.75.25-.02.38-.34.05-.31h0Z"/>
    <g>
      <path class="cls-18" d="M1118.17,850.06s2.23-1.99,4.9.11c2.67,2.1,8.79,4.57,12.54,14.2,0,0,4,3.16,4.87,5.22.87,2.06,3.15,1.61-9.23,10.45-12.38,8.83-33.7,26.86-45.43,29.83-11.73,2.97-12.07-7.85-11.72-8.78.35-.93,10.52-13.39,10.52-13.39l10.25-25.32.32-8.1s7.83.65,8.78,4.05l.95,3.41s8.02,3.15,11.62-1.67c3.6-4.82-.57-8.22,1.63-10.01Z"/>
      <path class="cls-16" d="M1118.41,850.04c1.85-1.59,3.73-.2,5.32.88,1.06.72,2.14,1.4,3.17,2.17,3.29,2.46,5.85,5.66,7.6,9.38.31.66.51,1.55.97,2.09.37.44.95.79,1.38,1.18,1.31,1.17,2.6,2.42,3.4,4,.35.69.91,1.31.6,2.11-.27.69-.91,1.26-1.43,1.75-1.16,1.1-2.44,2.07-3.72,3.04-3.37,2.56-6.85,4.97-10.23,7.51-7.23,5.44-14.36,11.02-21.83,16.12-3.37,2.3-6.8,4.52-10.4,6.43-3.35,1.78-7.11,3.58-10.98,3.58-2.95,0-5.55-1.36-6.9-4.03-.69-1.37-1.29-3.32-1.05-4.88.08-.5.38-.86.68-1.27.67-.92,1.37-1.81,2.07-2.7,1.9-2.42,3.83-4.82,5.76-7.21.71-.87,1.64-1.75,2.15-2.76.74-1.47,1.26-3.11,1.88-4.64,2.18-5.38,4.36-10.77,6.54-16.15.55-1.36,1.34-2.79,1.7-4.21.11-.43.07-.9.09-1.34l.17-4.29c.03-.86.07-1.73.1-2.59l-.44.18c2.16.18,4.48.66,6.41,1.67,1.6.84,2.15,1.87,2.62,3.56.14.52.23,1.77.61,2.19.2.23.88.31,1.15.39,1.19.34,2.42.56,3.66.63,2.6.15,5.41-.47,7.14-2.56,1.36-1.64,1.93-3.65,1.65-5.75-.19-1.41-1.1-3.35.16-4.49.11-.1-.38-.04-.48.04-.79.71-.76,1.61-.59,2.6.28,1.57.67,3.06.29,4.66-1.02,4.3-5.05,5.72-9.03,5.16-.93-.13-2.99-.29-3.48-1.07-.66-1.06-.51-2.62-1.12-3.74-.54-1.01-1.62-1.64-2.63-2.09-1.87-.83-3.97-1.26-6.01-1.44-.1,0-.43.05-.44.18-.1,2.46-.19,4.92-.29,7.38-.04,1.09-.57,2.03-.98,3.07-2.23,5.51-4.46,11.01-6.69,16.52-.8,1.97-1.59,3.94-2.39,5.9-.4,1-1.22,1.76-1.89,2.59-1.99,2.46-3.97,4.92-5.93,7.4-.77.98-1.55,1.97-2.29,2.98-.29.4-.59.75-.68,1.25-.3,1.65.39,3.77,1.16,5.18,1.29,2.37,3.61,3.67,6.27,3.84,3.22.21,6.43-.92,9.33-2.23,3.7-1.67,7.19-3.8,10.59-6.02,7.84-5.12,15.25-10.88,22.71-16.53,3.49-2.64,7.04-5.19,10.56-7.78,1.62-1.19,3.25-2.4,4.78-3.72.7-.61,1.48-1.26,1.98-2.05.55-.86.25-1.38-.19-2.19-.63-1.16-1.3-2.14-2.24-3.09-1.08-1.1-2.59-1.96-3.19-3.38-1.65-3.92-4.13-7.4-7.46-10.05-1.14-.9-2.35-1.69-3.56-2.49-1.28-.85-2.43-1.92-4.08-1.83-.89.05-1.84.39-2.53.97-.11.09.38.04.48-.04Z"/>
    </g>
    <path class="cls-5" d="M1137.81,867.3s-22.39,18.29-32.26,24.58c-9.87,6.29-24.63,15.77-29.51,15.28,0,0,2.07,5.9,10.94,2.87,8.87-3.03,24.27-14.59,24.27-14.59,0,0,29.25-20.83,30.04-22.58.78-1.76-.53-4.99-3.49-5.55Z"/>
    <path class="cls-37" d="M1130.78,856.71c-2.4.26-4.76,1.69-6.38,3.41-1.95,2.07-2.95,4.71-3.5,7.46-.55,2.75-.82,5.65-.29,8.43.2,1.03.49,2.24,1.13,3.11.08.11.51-.09.48-.13-1.57-2.13-1.53-5.6-1.34-8.06.39-5.06,2.02-10.5,6.79-13.04.88-.47,1.89-.89,2.89-1,.12-.01.52-.21.21-.18h0Z"/>
    <path class="cls-37" d="M1083.73,889.72c2.31.73,5.03-.32,6.87-1.69,1.64-1.22,2.73-3.15,3.78-4.85,3.08-5,5.73-10.27,8.33-15.52.69-1.39,1.37-2.78,2.03-4.17,0-.02,0-.04-.01-.05-1.65-1.87-4.48-2.4-6.83-2.03-1.35.21-4.19.9-4.28,2.72,0,.11.47.04.48-.13.08-1.59,2.58-2.19,3.72-2.37,2.03-.31,4.72.1,6.19,1.72.33.36.19.35-.06.88-.42.87-.84,1.74-1.27,2.61-2.97,6.05-5.96,12.21-9.68,17.84-1.89,2.87-5.06,6.04-8.88,4.83-.13-.04-.56.16-.39.21h0Z"/>
    <path class="cls-8" d="M1100.09,867.96v-.07c.08-.53-.53-1.07-1.35-1.2l-5.95-.95c-.82-.13-1.56.19-1.64.72v.07c-.08.53.53,1.07,1.35,1.2l5.95.95c.82.13,1.56-.19,1.64-.72Z"/>
    <path class="cls-8" d="M1096.64,872.72l.04-.25c.07-.49-.49-.98-1.23-1.1l-4.43-.69c-.75-.12-1.41.19-1.48.68l-.04.25c-.07.49.49.98,1.23,1.1l4.43.69c.75.12,1.41-.19,1.48-.68Z"/>
    <path class="cls-8" d="M1093.48,877.17l.05-.32c.05-.32-.45-.68-1.12-.79l-3.16-.52c-.67-.11-1.26.06-1.31.39l-.05.32c-.05.32.45.68,1.12.79l3.16.52c.67.11,1.26-.06,1.31-.39Z"/>
    <path class="cls-8" d="M1091.37,881.41l.06-.39c.06-.39-.44-.8-1.11-.91l-3.16-.51c-.67-.11-1.27.12-1.32.52l-.06.39c-.06.39.44.8,1.11.91l3.16.51c.67.11,1.27-.12,1.32-.52Z"/>
    <path class="cls-37" d="M936.52,890.06c-2.48-1.5-5.85-1.51-8.54-.71-3,.9-5.5,2.89-7.66,5.1-1.59,1.62-3.04,3.45-3.97,5.54-.35.79-.71,1.72-.73,2.6,0,.06.48,0,.48-.13.02-.9.39-1.83.75-2.64,1.18-2.63,3.18-4.86,5.31-6.77,2.86-2.56,6.3-4.43,10.25-3.97,1.24.15,2.57.47,3.65,1.13.11.07.5-.13.45-.16h0Z"/>
    <g>
      <path class="cls-25" d="M946.63,878.48c.53-.84-1.29-7.55-.92-22.34l.4.03c3.66,1.73,7.74,2.03,11.83,2.32,3.05.22,6.1.38,9.16.34,2.6-.03,5.23-.56,7.82-.37l-.98,4.51-4.68,21.63-.25,4.61s-16.45,21.47-25.51,20.28c-9.06-1.19-28.06-8.76-28.06-8.76,0,0,28.27-17.63,31.18-22.26Z"/>
      <path class="cls-37" d="M946.77,878.46c.25-.46.08-1.24.03-1.72-.12-1.37-.29-2.74-.42-4.12-.52-5.49-.66-11.01-.53-16.52l-.24.11c1.09.08,2.24.81,3.3,1.11,1.15.33,2.34.56,3.52.73,2.75.4,5.54.55,8.3.7s5.44.27,8.14.07c1.31-.1,2.61-.25,3.92-.3.3-.01,1.89-.11,1.97.04.05.09-.12.56-.14.64-.77,3.56-1.54,7.12-2.31,10.68-1.03,4.78-2.14,9.55-3.11,14.34-.31,1.55-.05,3.17-.33,4.72-.15.84-1.15,1.73-1.73,2.44-3.76,4.56-7.8,8.99-12.36,12.77-2.29,1.9-4.8,3.76-7.62,4.78s-5.77.22-8.63-.5c-6.74-1.69-13.33-4.06-19.82-6.52-.85-.32-1.71-.65-2.56-.98-.14-.05-.4-.1-.51-.2-.13-.12-.11.14-.06.02.08-.2.78-.49.96-.6.66-.41,1.31-.83,1.97-1.24,4.78-3.04,9.53-6.14,14.21-9.34,4.32-2.95,8.87-5.9,12.66-9.53.49-.47.99-.97,1.36-1.54.06-.1-.22-.06-.27,0-1.06,1.63-2.84,2.89-4.34,4.07-2.41,1.9-4.92,3.69-7.44,5.44-5.15,3.59-10.41,7.02-15.7,10.4-1.22.78-2.43,1.55-3.66,2.31-.03.02-.09.07-.03.09,6.76,2.69,13.66,5.17,20.67,7.12,3.15.88,6.91,2.26,10.19,1.42,3.39-.86,6.4-3.15,9.04-5.36,3.14-2.62,6.01-5.57,8.74-8.61,1.67-1.86,3.62-3.79,4.98-5.91.36-.56.26-1.18.3-1.86.06-1.07.04-2.18.21-3.24.44-2.62,1.13-5.22,1.69-7.81,1.31-6.03,2.61-12.07,3.92-18.1,0-.03-.03-.04-.05-.05-2.4-.14-4.77.25-7.16.35-2.79.11-5.59-.05-8.38-.23-2.44-.16-4.89-.3-7.3-.68-1.39-.22-2.76-.53-4.09-.98-.76-.26-1.49-.73-2.29-.79-.07,0-.23.02-.24.11-.13,5.43,0,10.87.5,16.28.13,1.39.3,2.77.43,4.16.05.52.26,1.39-.01,1.88-.03.06.24.04.29-.04Z"/>
    </g>
    <g>
      <path class="cls-25" d="M973.96,862.98s-7.74.97-15.19.55c-7.45-.41-13.1-2.61-13.1-2.61"/>
      <path class="cls-37" d="M973.97,862.89c-9.22,1.14-19.39,1.35-28.2-2.04-.09-.04-.36.1-.23.15,8.87,3.41,19.1,3.22,28.39,2.06.15-.02.24-.2.04-.18h0Z"/>
    </g>
    <path class="cls-37" d="M939.18,886.97c-2.36-1.49-5.63-1.49-8.2-.66-2.86.92-5.19,2.92-7.22,5.08-1.54,1.64-2.94,3.49-3.82,5.58-.34.8-.69,1.72-.7,2.61,0,.07.48,0,.48-.13.02-.92.4-1.89.76-2.72,1.13-2.58,3.02-4.8,5.06-6.72,2.67-2.51,5.94-4.44,9.73-3.99,1.18.14,2.45.47,3.47,1.11.11.07.51-.12.45-.16h0Z"/>
    <path class="cls-37" d="M943.36,889.36c-2.41-1.53-5.77-1.52-8.38-.62-2.85.98-5.19,3.05-7.2,5.24-1.47,1.61-2.8,3.41-3.64,5.43-.33.79-.67,1.69-.68,2.55,0,.23.48.14.48-.05.04-2.23,1.6-4.56,2.9-6.24,3.13-4.06,7.82-8.06,13.29-7.08.98.17,2.01.48,2.86,1.01.16.1.59-.12.37-.26h0Z"/>
    <g>
      <path class="cls-18" d="M968.02,882.66s2.98-.22,3.82,3.07c.84,3.29,4.2,8.97,1.33,18.9,0,0,1.26,4.94.7,7.1-.56,2.16,1.52,3.2-13.68,2.68-15.2-.51-43.09.84-54.2-3.93-11.12-4.77-4.82-13.57-3.97-14.1s16.49-4.24,16.49-4.24l23.53-13.87,5.17-6.24s5.82,5.27,4.5,8.56l-1.32,3.28s4.46,7.38,10.24,5.74c5.78-1.64,4.54-6.87,7.38-6.96Z"/>
      <path class="cls-16" d="M967.9,882.76c3.15-.19,3.77,3.43,4.55,5.71,1.27,3.71,1.88,7.49,1.44,11.4-.16,1.38-.43,2.75-.79,4.1-.18.68-.18.76-.04,1.39.38,1.69.72,3.46.68,5.21-.02.69-.08,2.5-.65,3.08-.49.51-1.43.55-2.08.62-1.51.17-3.05.17-4.57.16-4.24-.01-8.48-.22-12.73-.25-8.77-.08-17.54.01-26.3-.41-4.17-.2-8.35-.51-12.48-1.15-3.4-.52-6.91-1.22-9.98-2.83s-5.47-4.23-5.2-7.82c.13-1.72.9-4.26,2.3-5.44.45-.38,1.15-.47,1.7-.63,1.25-.35,2.51-.67,3.78-.99,2.85-.73,5.72-1.42,8.58-2.11.95-.23,2.01-.34,2.87-.81,1.55-.85,3.06-1.81,4.59-2.71,4.94-2.91,9.88-5.83,14.82-8.74,1.22-.72,2.67-1.35,3.79-2.23.35-.27.61-.68.89-1.02l2.81-3.39c.53-.64,1.05-1.27,1.58-1.91l-.51.14c1.72,1.57,3.43,3.51,4.29,5.69.72,1.81.08,3.12-.61,4.84-.12.3-.55.95-.51,1.29.05.46.83,1.2,1.11,1.53.84,1.04,1.8,2.01,2.89,2.8,2.42,1.75,5.26,2.16,7.99.87,1.37-.64,2.44-1.66,3.2-2.96.6-1.02,1.15-3.33,2.58-3.44.14,0,.58-.23.23-.21-2,.14-2.44,2.16-3.28,3.64-1.03,1.8-2.69,3.09-4.77,3.47-1.91.34-3.8-.39-5.34-1.48-1.15-.81-2.15-1.82-3.03-2.92-.24-.3-1.02-1.09-1.05-1.43-.03-.44.51-1.27.66-1.66.59-1.47,1.11-2.57.59-4.13-.77-2.34-2.66-4.45-4.46-6.09-.11-.1-.44.05-.51.14-1.54,1.85-3.08,3.71-4.61,5.56-.67.81-1.51,1.22-2.57,1.84-5.03,2.97-10.07,5.93-15.1,8.9-1.9,1.12-3.79,2.24-5.69,3.35-.18.11-.36.22-.54.32-.3.16.19-.05-.02.02-.72.24-1.51.36-2.24.54-3.01.72-6.02,1.46-9.02,2.22-1.27.33-2.55.65-3.81,1.01-.5.14-1.14.25-1.57.56-1.3.91-2.07,3.15-2.37,4.6-.63,3.03.6,5.79,3.01,7.66,2.83,2.19,6.5,3.13,9.95,3.79,3.99.76,8.05,1.13,12.09,1.38,9.26.58,18.54.49,27.81.55,4.39.03,8.78.22,13.18.26,2.3.02,5.1.27,7.31-.56.89-.33,1.14-.82,1.27-1.71.14-.95.3-1.84.24-2.82s-.19-1.9-.36-2.83c-.12-.65-.4-1.38-.43-2.04-.04-1,.52-2.25.7-3.26.21-1.2.35-2.42.39-3.64.07-2.17-.16-4.33-.67-6.43-.36-1.47-.87-2.89-1.36-4.32-.5-1.46-.76-3.05-2.19-3.92-.65-.39-1.45-.6-2.21-.56-.14,0-.58.23-.23.21Z"/>
    </g>
    <path class="cls-5" d="M973.13,908.28s-28.89.91-40.55-.09c-11.66-1-29.14-2.45-32.72-5.8,0,0-1.94,5.94,6.95,8.93,8.88,2.99,28.14,3.17,28.14,3.17,0,0,35.89,1.25,37.58.33,1.69-.92,2.61-4.28.6-6.53Z"/>
    <path class="cls-37" d="M974.07,895.52c-2.48-1.5-5.85-1.51-8.54-.71-3,.9-5.5,2.89-7.66,5.1-1.59,1.62-3.04,3.45-3.97,5.54-.35.79-.71,1.72-.73,2.6,0,.06.48,0,.48-.13.02-.9.39-1.83.75-2.64,1.18-2.63,3.18-4.86,5.31-6.77,2.86-2.56,6.3-4.43,10.25-3.97,1.24.15,2.57.47,3.65,1.13.11.07.5-.13.45-.16h0Z"/>
    <path class="cls-37" d="M916.56,893.33c1.39,1.98,4.24,2.74,6.52,2.7,1.92-.04,3.84-.84,5.61-1.51,5.57-2.11,10.96-4.73,16.29-7.36,1.39-.68,2.77-1.37,4.15-2.08.04-.02.1-.06.1-.12-.17-2.45-2.05-4.57-4.12-5.68-1.26-.68-3.9-1.73-5.12-.29-.12.14.35.09.44-.01,1.3-1.53,4.7.62,5.72,1.47,1.34,1.11,2.28,2.68,2.57,4.4.06.35.15.06.02.19-.16.16-.52.27-.73.37-.98.5-1.96.99-2.95,1.47-6.16,3.05-12.45,6.32-19.04,8.36-2.99.92-7.04.74-9.02-2.08-.08-.11-.54.04-.45.18h0Z"/>
    <path class="cls-8" d="M942.77,885.88l.05-.05c.38-.37.22-1.17-.35-1.78l-4.14-4.37c-.57-.61-1.36-.8-1.74-.42l-.05.05c-.38.37-.22,1.17.35,1.78l4.14,4.37c.57.61,1.36.8,1.74.42Z"/>
    <path class="cls-8" d="M937.14,887.55l.18-.18c.35-.35.21-1.08-.31-1.62l-3.1-3.24c-.52-.55-1.24-.71-1.59-.36l-.18.18c-.35.35-.21,1.08.31,1.62l3.1,3.24c.52.55,1.24.71,1.59.36Z"/>
    <path class="cls-8" d="M931.93,889.17l.24-.23c.24-.23.05-.82-.41-1.31l-2.19-2.34c-.46-.5-1.04-.71-1.28-.49l-.24.23c-.24.23-.05.82.41,1.31l2.19,2.34c.46.5,1.04.71,1.28.49Z"/>
    <path class="cls-8" d="M927.67,891.26l.28-.28c.29-.28.14-.91-.33-1.4l-2.2-2.33c-.47-.49-1.08-.67-1.37-.39l-.28.28c-.29.28-.14.91.33,1.4l2.2,2.33c.47.49,1.08.67,1.37.39Z"/>
    <path class="cls-23" d="M961.24,675.63c-11.21,27.13-13.61,60.12-19.76,98.17-.35,2.19-.79,94.86.3,96.79.56.99,1.48,1.74,2.48,2.24,11.42,5.6,15.44,7.47,34.79,5.6.79-.08,10.68-72.46,11.33-72.92.62-.44,4.07-11.5,4.41-12.18,7.47-14.66,13.05-28.21,13.98-32.05,2.24,3.61,18.61,27.02,26.33,42.2.61,1.21,49.97,55.01,51.13,55.67.98.56,2.16.61,3.29.61,15.59-.01,8.62.04,22.23-7.67,3.71-2.11,7.61-4.44,9.57-8.28.49-.97.85-2.04.79-3.12-.09-1.62-39.45-64.6-40.35-65.95-12.14-18.03-7.13-48.15-11.01-69.64-1.04-5.74-3.16-18.33-5.86-23.48-3.22-6.15-9.13-19.92-18.5-24.44"/>
    <path class="cls-11" d="M1010.49,762.15c-1.25-4.81-3.5-9.35-5.45-13.91-2.02-4.75-4.05-9.49-6.07-14.24-3.15-7.38-6.39-17.67-15.46-19.4-.34-.06-1.58.48-1.19.56,9.21,1.75,12.42,12.7,15.6,20.15,1.96,4.59,3.92,9.18,5.88,13.78,1.88,4.4,4.05,8.8,5.25,13.45.08.31,1.53-.07,1.45-.39h0Z"/>
    <path class="cls-27" d="M993.14,527.8c1.15-.07,1.72-.13,2.86-.25,4.7-.49,9.53-1.04,14.15-2,7.14-1.49,12.83-5.78,18.68-9.81-.06,4.48.4,9.98,2.11,13.07l-.13,1.31c-9.93,15.68-15.77,24.74-49.13,15.1l10.88-17,.59-.43Z"/>
    <path class="cls-27" d="M975.41,487c-.04-2.06-.08-4.45-.11-7.34,0-.84,0-1.64.03-2.44.05-.41.06-.82.04-1.23.59-14.06,4.3-21.37,4.3-21.37,6.02-9.26,17.49-14.61,28.51-14.05,12.97.39,24.6,8.38,30.63,16.38,3,3.96,4.43,8.88,4.02,13.83-.34,4.23-2.95,8.12-4.13,12.7,4.53-.17,8.96,1.5,7.23,9.84-2.38,11.5-9.85,15-13.31,11.8-.81.14-2.51,5.23-2.72,7.63-.02.18-.08,12.85-.1,13.04-6.02,4.08-18.11,5.03-25.35,6.67-4.54,1.03-4.93.36-9.56.84-1.12.12-1.09-3.48-2.22-3.41l.02-5.04c-.33-.03-.61,0-2.07-.49-10.42-2.8-14.96-16.62-15.5-21.87-.46-4.45-.32-12.81.28-15.5Z"/>
    <path class="cls-29" d="M992.7,524.86s12.34,1.11,23.53-6.11c0,0-1.38,3.7-9.32,6.43s-14.23,1.69-14.23,1.69l.02-2Z"/>
    <ellipse class="cls-11" cx="980.83" cy="483.45" rx="2.76" ry="2.77" transform="translate(-84.32 236.05) rotate(-13.16)"/>
    <path class="cls-11" d="M977.6,481.11c1.32-.82,3.14-1.36,5.81-1.1,4.27.41,6.17,5.79,6.17,5.79,0,0-2.24-4.11-6.45-4.62-2.03-.25-5.38.92-6.93,1.7.04-.41.61-1.22,1.4-1.76Z"/>
    <path class="cls-16" d="M1041.92,494.76c.45-1.29.66-2.75.21-4.07-.08-.24-.15-.6-.43-.62-.3-.02-.65.16-.9.3-.64.34-1.19.85-1.7,1.37-1.24,1.29-2.23,2.81-3.14,4.34-.08.13.22.05.26.02.38-.27,1.03-.6,1.43-.23.34.31.4.94.36,1.37-.14,1.46-1.45,2.14-2.78,2.27-.14.01-.26.17-.05.15,1.52-.14,3.14-.98,3.14-2.7,0-.58-.19-1.33-.87-1.39-.52-.05-1.07.22-1.48.51l.26.02c.76-1.27,1.57-2.52,2.52-3.65.55-.65,1.15-1.28,1.85-1.76.29-.2.59-.33.92-.43.06-.02.1,0,.08,0-.1-.07,0,.06.01.09.03.12.11.24.16.36.5,1.33.29,2.81-.17,4.13-.03.09.27.05.31-.04h0Z"/>
    <ellipse class="cls-11" cx="1009.52" cy="483.98" rx="2.76" ry="2.77" transform="translate(-83.69 242.6) rotate(-13.16)"/>
    <path class="cls-11" d="M1001.77,485.74s4.2-5.57,8.9-5.15c6.62.59,7.75,3.34,9.01,5.48,0,0-4.04-4.03-9.16-4.36-4.65-.3-8.75,4.03-8.75,4.03Z"/>
    <path class="cls-36" d="M994.09,505.4c3.97.02,10.41-.39,10.41-.39,0,0,.47,9.47-10.54,9.23-9.2-.2-9.33-9.15-9.33-9.15,0,0,5.49.28,9.46.31Z"/>
    <path class="cls-11" d="M994.05,505.4c1.89.01,8.92-.02,8.92-.02,0,0-1.67,4.85-8.49,4.81-7.4-.05-8.5-4.43-8.5-4.43l8.07-.36Z"/>
    <path class="cls-20" d="M993.96,506.27c1.89.01,7.63-.26,7.63-.26,0,0-2.27,1.54-7.93,1.51-5.66-.03-7.26-1.54-7.26-1.54l7.56.3Z"/>
    <path class="cls-36" d="M984.66,505.04c0-.2.41-.29,1.35-.36,1.56-.12,2.08-.68,3.21-.75,1.93-.13,3.16.61,4,.62s2.07-.72,4-.57c1.13.09,3.93.5,5.49.64.94.08,2.04-.26,2.24-.21.28.07-.39,2.63-10.95,2.57-10.56-.06-9.34-1.65-9.34-1.93Z"/>
    <path class="cls-11" d="M1002.35,474.68c-.01-.1.32-.12.31-.22,5.13-1.48,9.07-1.75,10.53-1.52,1.11.17,2.19.57,3.23,1.14,0,0,2.86,1.51,3.23,2.15.37.63-1.71-.26-1.71-.26-.44-.12-.75-.27-1.2-.33-2.47-.31-4.85-.97-7.31-.54-2.1.36-4.9,1.76-6.89,2.67-.11-1.06.01-2.04-.18-3.08Z"/>
    <path class="cls-11" d="M990.33,475.38c.01-.1-.28-.12-.27-.22-4.47-1.45-7.91-1.68-9.18-1.45-.97.18-1.92.58-2.82,1.16,0,0-2.51,1.53-2.83,2.17-.33.64,1.5-.27,1.5-.27.39-.12.65-.28,1.05-.34,2.16-.33,4.25-1.01,6.39-.59,1.83.34,4.27,1.73,6,2.62.11-1.06,0-2.04.18-3.08Z"/>
    <path class="cls-11" d="M1033.09,494c.02-.07.21-.34.24-.41.65-1.63,2.14-4.61,3.51-5.77.62-.53,1.37-1.12,2.15-1.46.79-.34,1.63-.73,2.49-.83,1.21-.28,2.41-.24,3.59.13.2.09.4.18.6.27,3.27-9.94,6.54-19.87-.55-32.26-2.05-3.57-7.52-7.57-9.2-8.85-10.15-7.68-19.34-8.39-30.69-7.48-13.15,1.05-23.97,7.75-27.23,20.95-.79,3.18-.5,1.57-.87,4.37,0,0,.83-6.3,7.23-9.96,6.4-3.66,7.43,1.92,16.39,2.28,10.37.38,13.89-5.19,22.13-.7,7.53,4.12,9.65,10.79,9.65,10.79,1.07,4.54,3.09,7.59,1.73,12.75-.33,1.23-.6,2.47-.85,3.72-.11,2.28-1.68,3.53-1.31,5.81.18,1.12-.95,5.61,0,6.3,1.02.74-.14.71.98.35Z"/>
    <g>
      <path class="cls-24" d="M992.26,500.32c.91.53,2.33.47,3.29-.08.21-.12.9.03.6.2-1.27.72-3.31.71-4.48.03-.12-.07-.09-.16.06-.2.16-.05.4-.03.53.05"/>
      <path class="cls-24" d="M996.57,500.19c.64-.27,1.34-.4,2.05-.43.1,0,.23.04.31.11.06.06.07.13-.01.17-.33.17-.74.23-1.12.21-.12,0-.28-.04-.34-.15-.06-.1.06-.15.15-.15.31.02.63-.03.91-.17.1.09.2.19.3.28-.63.02-1.26.14-1.83.39-.11.05-.27,0-.37-.06-.07-.05-.15-.15-.03-.2"/>
      <path class="cls-24" d="M999.35,500.39c.82.01,1.8-.31,2.22-.91.64-.91.13-2.5-.87-3.14-.11-.07-.05-.15.07-.17.15-.03.32.04.43.11.87.56,1.4,1.88,1.24,2.75-.16.81-.96,1.35-1.95,1.55-.29.06-.61.09-.91.09-.12,0-.35-.05-.4-.15-.06-.1.06-.14.17-.14"/>
      <path class="cls-24" d="M990.78,499.84c.05-.09-.03-.16-.1-.16-.22,0-.44-.07-.63-.23-.08.09-.15.17-.23.26.44.07.88.23,1.26.51.08.06.19.03.26-.03.05-.04.11-.14.04-.2"/>
      <path class="cls-24" d="M991.39,499.99c-.43-.31-.92-.49-1.42-.56-.07-.01-.17.02-.22.09-.04.05-.06.12,0,.17"/>
      <path class="cls-24" d="M989.07,499.89c-.53-.04-1.14-.42-1.38-1.05-.36-.95.05-2.04.74-2.61.07-.06.04-.15-.03-.17-.09-.04-.21.01-.29.08-.6.5-1.01,1.33-.95,2.2.05.82.54,1.41,1.17,1.68.19.08.39.13.59.15.08,0,.23-.03.27-.12.04-.1-.03-.14-.1-.15"/>
    </g>
    <path class="cls-30" d="M990.48,530.82c-4.7.2-17.58,8.03-20.37,10.12-19.99,14.93-18.08,51.61-22.59,64.92,3.92,5.9,11.77,5.05,11.77,5.05,0,0,.81,11.5.47,23.22-.34,10.64-2.36,27.63-4.83,50.39,3.55,3.95,14.2,7.51,24.7,8.41,9.18.79,26.4.88,35.61,1.04,10.22.19,21.53-3.48,31.62-5.34,6.95-1.28,14.1-2.29,20.77-4.62-5.45-28.15-7.23-44-7.42-44.71-.45-1.71,3.98-34.28,1.49-47.47,0,0,5.7-1.5,10.24-4.43,0,0,3.72-39.28-21.68-52.09-10.4-5.24-11.9-6.79-20.88-9.48,0,0-11.56,18.96-29.86,17.08-18.29-1.88-9.02-12.09-9.02-12.09Z"/>
    <path class="cls-38" d="M958.14,568.92c.43,5.84.39,11.72.41,17.57,0,1.05-.07,1.89-.16,3.12-.21,3.11-.37,6.23-.46,9.35-.12,4.04-.19,8.11.15,12.15l.83-.57c.35-.03-.32,0-.45,0-.54,0-1.08-.04-1.61-.1-1.65-.2-3.28-.67-4.75-1.45-.91-.48-1.76-1.09-2.51-1.8-.48-.46-1.29-1.1-1.26-1.72.04-1.07.65-2.33.94-3.37l-1.4.37c2.43,2.39,6.11,3.6,9.42,3.9.42.04,1.69-.67.9-.74-3.16-.29-6.64-1.43-8.97-3.71-.3-.3-1.28-.03-1.4.37l-.48,1.71c-.15.53-.54,1.32-.52,1.87.03.73,1.13,1.61,1.66,2.09.78.7,1.66,1.28,2.59,1.76,2.29,1.17,5.06,1.75,7.63,1.55.26-.02.86-.21.83-.57-.57-6.9-.17-13.9.28-20.79.23-3.57.19-7.11.14-10.69-.05-3.57-.09-7.15-.35-10.7-.03-.42-1.49-.13-1.45.39h0Z"/>
    <g>
      <path class="cls-30" d="M992.92,526.71s-2.31,12.33,8.59,16.3c0,0-8.8,3.8-11.91,10.79,0,0-7.4-5.22-8.32-21.57,0,0,4.57-3.56,8.64-5.07,4.07-1.51,3-.44,3-.44Z"/>
      <path class="cls-38" d="M992.19,526.78c-.42,2.27-.26,4.77.26,7.01,1.08,4.61,4.21,8.03,8.63,9.69l.11-.86c-5,2.18-9.98,6.1-12.29,11.11l1.25-.34c-1.56-1.11-2.76-2.94-3.71-4.56-2.97-5.05-4.1-11.02-4.45-16.8l-.25.5c1.73-1.34,3.58-2.56,5.5-3.6,1.45-.79,2.97-1.47,4.57-1.91.07-.02.55-.09.62-.15.18-.17.12.07-.11-.22-.08-.1.11-.24,0-.13-.62.64.78.82,1.2.38.32-.33.35-.71-.06-.96-.9-.55-2.85.44-3.64.74-2.15.79-4.16,1.93-6.08,3.18-.92.6-2.2,1.23-2.94,2.06-.56.63-.16,1.91-.08,2.7.12,1.21.28,2.41.49,3.61.36,2.06.87,4.11,1.56,6.09.91,2.6,2.14,5.14,3.83,7.34.7.91,1.5,1.87,2.44,2.54.35.25,1.07.05,1.25-.34,2.18-4.72,6.83-8.41,11.54-10.46.4-.17.62-.67.11-.86-4.32-1.63-7.2-5.08-8.13-9.58-.42-2.03-.53-4.26-.15-6.31.13-.68-1.35-.48-1.46.13Z"/>
    </g>
    <g>
      <polyline class="cls-30" points="999.25 543.76 998.53 567.97 1004.48 567.87"/>
      <path class="cls-38" d="M998.53,543.95c-.21,7.06-.42,14.11-.63,21.17-.03,1.02-.06,2.03-.09,3.05,0,.15.35.15.42.15,1.98-.03,3.96-.07,5.95-.1.45,0,1.57-.7.6-.68-1.98.03-3.96.07-5.95.1l.42.15c.21-7.06.42-14.11.63-21.17.03-1.02.06-2.03.09-3.05,0-.31-1.43-.09-1.45.39h0Z"/>
    </g>
    <ellipse class="cls-38" cx="1003.3" cy="553.25" rx="1.98" ry="1.55"/>
    <ellipse class="cls-38" cx="1003.3" cy="561.41" rx="1.98" ry="1.55"/>
    <path class="cls-27" d="M1044.04,683.46l24.9-51.71-13.55-39.4,30.69-12.91s17.76,54.69,8.97,66.91c-8.79,12.22-39.75,53.3-39.75,53.3l-11.25-16.18Z"/>
    <path class="cls-27" d="M1024.82,697.75c-.05,2.66,1.95,4.94,4.47,5.08.66.04,1.32-.08,1.92-.34,0,0,1.07,6.49,6.61,4.64,0,0,2.54,5.47,7.07,2.86,2.54,2.05,6.02,2.03,8.42-.04,4.21-3.6,8.33-18.69,8.33-18.69l-16.38-9.5s-10.77,4.01-11.9,5.21c-1.13,1.2-8.54,10.78-8.54,10.78Z"/>
    <path class="cls-30" d="M1027.87,529.88s31.32-1.15,42.42,14.75c15.96,22.87,24.26,51.95,24.26,51.95,0,0-25.27,13.69-38.98,12.09-12.91-1.5-26.84-72.84-26.84-72.84"/>
    <path class="cls-38" d="M1048.54,550.83c-5.2,3.26-6.61,10.56-6.1,16.17.43,4.72,1.82,9.39,3.18,13.91,1.56,5.22,3.33,10.39,5.17,15.52,1.6,4.45,3.24,8.89,4.99,13.28.09.22.43.19.62.17,3.2-.37,6.35-.68,9.5-1.36,6.36-1.38,12.7-3.24,18.64-5.91,3.73-1.67,7.38-3.69,10.46-6.41.07-.06.19-.18.15-.29-.49-1.52-.99-3.04-1.48-4.57-.13-.39-.95-.13-1.17.01-3.68,2.39-7.76,4.26-11.82,5.9-4.15,1.67-8.41,2.99-12.74,4.09-2.62.67-5.27,1.28-7.95,1.6-.62.07-1.25.12-1.87.12-.32,0-.27,0-.42-.02-.42-.07-1.7.6-.9.74.68.12,1.42.04,2.1-.02,2.38-.2,4.75-.7,7.07-1.24,7.94-1.85,15.68-4.5,22.93-8.25,1.52-.79,3.05-1.61,4.49-2.54h-1.17c.38,1.18.76,2.36,1.14,3.53.07.2.27.59.26.81-.01.38.08-.05-.1.24-.46.74-1.77,1.42-2.48,1.91-3.5,2.4-7.42,4.17-11.38,5.64-5.33,1.99-10.99,3.66-16.62,4.55-2.13.34-4.29.5-6.43.75l.62.17c-3.35-8.44-6.45-17-9.19-25.66-1.43-4.53-2.81-9.12-3.68-13.8-.84-4.52-.89-9.29,1.06-13.55.66-1.44,1.55-2.8,2.65-3.94.33-.34.67-.65,1.04-.94.14-.11.41-.29.32-.24.82-.52-.45-.64-.88-.37h0Z"/>
    <g>
      <path class="cls-30" d="M1044.36,529.9s-5.99-7.88-10.64-10.36c0,0-14.31,23.55-29.89,23.47,0,0,9.98,6.6,10.95,14.65,0,0,30.84-15.44,29.59-27.07"/>
      <path class="cls-38" d="M1045.03,529.58c-1.15-1.51-2.4-2.96-3.68-4.37-2.08-2.27-4.35-4.6-7.07-6.1-.44-.24-.99-.09-1.25.34-1.64,2.69-3.56,5.22-5.54,7.66-3.89,4.76-8.36,9.35-13.74,12.43-3.02,1.73-6.34,2.92-9.85,2.93-.41,0-1.17.59-.62.96,4.86,3.23,9.97,8.43,10.78,14.42.06.44.79.37,1.05.24,3.69-1.85,7.28-3.96,10.77-6.17,5.82-3.69,11.91-7.85,16.16-13.37,1.8-2.33,3.35-5.12,3.06-8.16-.06-.67-1.52-.32-1.45.39.24,2.59-1.13,5.07-2.63,7.07-1.99,2.66-4.48,4.92-7.05,6.99-4.93,3.98-10.33,7.37-15.86,10.44-1.21.67-2.42,1.33-3.65,1.95l1.05.24c-.83-6.17-6.11-11.56-11.11-14.88l-.62.96c6.5-.03,12.38-3.69,17.13-7.84,4.37-3.81,8.16-8.28,11.48-13.02.7-1,1.4-2.02,2.04-3.06l-1.25.34c4.22,2.32,7.65,6.48,10.54,10.26.4.53,1.78-.04,1.33-.64h0Z"/>
    </g>
  </g>
</svg>