<?xml version="1.0" encoding="UTF-8"?>
<svg xmlns="http://www.w3.org/2000/svg" xmlns:xlink="http://www.w3.org/1999/xlink" viewBox="0 0 1334 1000">
  <defs>
    <style>
      .cls-1 {
        fill: #466c33;
      }

      .cls-2 {
        stroke-dasharray: 12.32 12.32;
      }

      .cls-2, .cls-3, .cls-4, .cls-5, .cls-6, .cls-7 {
        stroke-miterlimit: 10;
      }

      .cls-2, .cls-3, .cls-4, .cls-6, .cls-7 {
        fill: none;
      }

      .cls-2, .cls-4, .cls-6, .cls-7 {
        stroke: #231f20;
        stroke-width: 2px;
      }

      .cls-3 {
        stroke: #4f2f26;
        stroke-width: .29px;
      }

      .cls-8 {
        fill: #825739;
      }

      .cls-9 {
        fill: #1b1b1b;
      }

      .cls-10 {
        fill: #3b5b2b;
      }

      .cls-11 {
        fill: #0d2b35;
      }

      .cls-12 {
        fill: #010101;
      }

      .cls-13 {
        fill: #5a3223;
      }

      .cls-14 {
        fill: url(#linear-gradient-2);
      }

      .cls-15 {
        fill: #3a231a;
      }

      .cls-16 {
        fill: #231f20;
      }

      .cls-17 {
        fill: #ebebeb;
      }

      .cls-18 {
        fill: #b06d4e;
      }

      .cls-19 {
        fill: #dbd7d7;
      }

      .cls-20 {
        fill: url(#linear-gradient);
      }

      .cls-21 {
        fill: #09181e;
      }

      .cls-22 {
        fill: #0a2f44;
      }

      .cls-23 {
        fill: #020202;
      }

      .cls-24, .cls-5 {
        fill: #fff;
      }

      .cls-25 {
        fill: #b06c4f;
      }

      .cls-26 {
        fill: #542d24;
      }

      .cls-5 {
        stroke: #241f20;
        stroke-width: .23px;
      }

      .cls-27 {
        fill: #341e17;
      }

      .cls-28 {
        fill: #aacad3;
      }

      .cls-29 {
        fill: #9e6941;
      }

      .cls-30 {
        fill: #f1ecf6;
      }

      .cls-31 {
        fill: #21595c;
      }

      .cls-32 {
        fill: #334c23;
      }

      .cls-33 {
        fill: #1a1514;
      }

      .cls-6 {
        stroke-dasharray: 12.07 12.07;
      }

      .cls-34 {
        fill: #6c3925;
      }

      .cls-35 {
        fill: #241f20;
      }

      .cls-36 {
        fill: #22595d;
      }

      .cls-7 {
        stroke-dasharray: 11.11 11.11;
      }

      .cls-37 {
        fill: #123a4c;
      }
    </style>
    <linearGradient id="linear-gradient" x1="653.45" y1="1111.65" x2="712.25" y2="-284.36" gradientUnits="userSpaceOnUse">
      <stop offset=".29" stop-color="#bae5f5"/>
      <stop offset=".81" stop-color="#76c7dc"/>
    </linearGradient>
    <linearGradient id="linear-gradient-2" x1="611.26" y1="1078.95" x2="633.96" y2="539.88" gradientUnits="userSpaceOnUse">
      <stop offset=".01" stop-color="#75993e"/>
      <stop offset=".98" stop-color="#486b32"/>
    </linearGradient>
  </defs>
  <g id="Layer_1" data-name="Layer 1">
    <rect class="cls-20" x="-66.23" y="-75.55" width="1492.48" height="1113.04"/>
    <g>
      <circle class="cls-24" cx="488.82" cy="520" r="31.64"/>
      <path class="cls-12" d="M519.48,521.25c.5-.16,1.03-.13,1.52.09.28-.79.54-1.58.77-2.38-.05-.58-.11-1.15-.2-1.73-.51-4.1-2.05-8.03-4.1-11.79-1.05-1.82-2.29-3.49-3.65-5.04-.11,2.04-.23,4.08-.25,6.12,0,.52-.18.93-.45,1.24-.09.53-.18,1.07-.27,1.6-.17.34-.34.68-.85.68-3.59.17-7.01.17-10.6-.51-.34,0-.68-.17-.85-.34-2.22-2.05-4.44-4.27-6.67-6.32-.51-.51-1.03-1.03-1.37-1.54-.85-1.2-.85-2.56-.68-3.93.17-1.71.51-3.59.68-5.3,0-.51.34-.85.85-1.03.51,0,1.2-.17,1.71-.17.07,0,.14,0,.22,0,.07-.07.13-.15.22-.21.48-.38.95-.78,1.42-1.18-3.65-1.03-7.29-1.47-10.94-1.18.97.53,1.96,1.01,2.99,1.37.43.15.74.4.97.7.17.1.35.21.52.33.34.17.51.51.51.85.51,2.73,0,5.47-.68,8.03-.17.34-.68.68-1.03.85-2.91,1.71-5.64,3.25-8.55,4.96-.34,0-.68.17-.85,0-2.22-.85-4.62-1.71-7.01-2.56-1.54-.55-2.3-1.38-2.51-2.5-.11-.25-.17-.55-.16-.88.05-2.16.45-4.25.89-6.35-.64.39-1.2.79-1.46,1.18-5.3,3.59-9.06,8.2-11.28,14.02-.26.73-.51,1.46-.73,2.21.2,0,.41,0,.62,0,.64,0,1.12.24,1.45.6.27-.01.57.02.88.09.68.17,1.37.68,1.71,1.37.17.17.17.34.17.51-.17,4.44.51,8.89,1.54,13.16.34.85,0,1.88-.17,2.74-.34,1.37-.68,2.91-1.03,4.44-.17.34-.17.68-.17,1.03,0,.51-.17,1.03-.68,1.2-.01,0-.02,0-.04,0,.03.09.06.17.08.26.61,2.83,3.26,5.47,5.45,7.23,1.7,1.37,3.66,2.34,5.69,3.17.23-.09.47-.17.71-.24.19-.24.46-.41.75-.7.68-.85,1.2-1.54,2.05-2.22.68-.51,1.54-.85,2.22-1.2h.68c2.73.51,5.3,1.03,7.86,1.54.68,0,1.37.17,2.05.17,1.03,0,1.88.34,2.73.85,1.2.68,2.22,1.54,2.91,2.73.34.51.51.85.68,1.37.13.25.18.51.17.75.94.05,1.89.11,2.83.18,2.78-2.06,5.38-3.78,8.87-4.71.35-.91,1.29-1.43,1.76-2.26-.07-.09-.13-.19-.13-.28.34-2.73.68-5.64,1.88-8.2,0-.17.17-.17.17-.34,2.05-3.93,4.1-7.69,6.15-11.45.34-.34.68-.68,1.2-1.03.29-.2.58-.22.81-.08ZM473.54,528.34c-2.22-.34-4.1-1.03-5.98-1.88-.85-.51-1.88-1.03-2.56-1.88,0,0-.17-.17-.17-.34-.34-3.08-1.03-6.15-1.03-9.23,0-2.91.68-5.47,2.56-7.86.85-1.03,1.71-1.88,2.56-2.91.17-.17.34-.34.51-.34.85-.51,1.54-.51,2.39-.34,1.71.68,3.42,1.37,4.96,2.05,1.37.68,2.56,1.37,3.42,2.73.17.34.34.85.34,1.2.51,2.91.85,5.98,1.37,8.89,0,.17,0,.51-.17.68-1.54,2.22-3.08,4.62-4.62,6.84-.17.17-.34.34-.51.68-.68,1.37-1.71,1.88-3.08,1.71ZM497.3,536.37c-1.03,1.88-2.56,3.42-4.27,4.96-1.2,1.03-2.74,1.37-4.1,1.2-2.39-.34-4.79-.68-7.18-1.2-1.88-.51-3.08-1.88-4.1-3.76-.51-1.88-1.71-3.93-1.71-5.98,0-1.54.51-2.73,1.37-3.93,1.03-1.37,1.88-2.56,2.91-3.93.85-1.2,1.71-2.39,3.08-3.08.34-.17.51-.34.85-.34,3.08-.34,5.81.51,8.72,1.2,1.2.34,1.88.85,2.22,2.05.85,3.08,1.88,6.15,2.91,9.23.34,1.37,0,2.56-.68,3.59ZM515.76,521.84c-.34,1.37-.85,2.56-1.37,3.76-1.03,2.05-2.22,4.27-3.42,6.32-.68,1.2-1.54,1.71-2.91,1.88-2.73.34-5.64.17-8.38-.34-.17,0-.34-.17-.34-.34-1.03-3.08-2.05-6.32-3.08-9.4-.34-.68-.51-1.2-.68-1.88-.17-.51-.17-1.2.17-1.71,1.03-1.88,1.88-3.93,2.91-5.81.51-1.03,1.37-1.71,2.05-2.56.17-.17.51-.34.85-.34,3.76-.17,7.35-.17,10.94.68.34,0,.51.17.68.34.85,2.56,1.88,4.96,2.56,7.52.17.51.17,1.2,0,1.88Z"/>
      <path class="cls-12" d="M475.93,543.82s-2.14,2.59-2.73,3.7c0,0-6.87-3.88-9.41-7.93l-2.39-3.79,2.39-.15,9.32,7.55,2.81.62Z"/>
      <polygon class="cls-12" points="491.53 499.39 501.42 510.12 492.19 510.12 491.53 499.39"/>
      <path class="cls-12" d="M495.55,548.15l.71,2.61s3.36-.65,7.84-3.05c4.47-2.4,5.56-3.82,5.56-3.82l-.61-1.56-13.5,5.82Z"/>
      <path class="cls-12" d="M491.53,492.22l-6.65-3.62s2.33-1.01,7.46-.03c5.14.98,7.62,1.8,7.62,1.8l-8.44,1.85Z"/>
    </g>
    <path class="cls-10" d="M858.79,213.77c-18.4.35-36.55,3.6-53.43,9.56,9.42-16.78,33.06-27.45,55.53-25.06l-8.44-17.55-22.46,13.13c3.05-19.42,16.47-36.75,36.69-47.36l-41.95,10.89c6.84-13.87,21.48-24.19,39.32-27.72l-40.14-.26c8.53-12.67,28.83-18.63,45.51-14.3-7.16-2.58-14-5.72-20.38-9.43-2.67-1.53-5.55-3.75-4.06-6.53.84-1.57,2.81-2.6,4.91-2.76,10.74-.84,21.47,1.31,30.48,6.05l-28.88-27.38c14.02-3.35,30.54,3.89,34.8,15.27,3.35-22.6,23.25-42.58,45.06-53.12l-4.53,2.02c1.69-.8,3.41-1.55,5.13-2.31.58-.28,1.17-.55,1.75-.81l-34.85-22.1c25.88-5.94,51.44,1.03,71.52,10.29,1.4-.32,2.8-.64,4.21-.93l-33.74-24.64c23.7-6.64,42.69,3.57,54.74,13.73,2.3.83,4.53,1.79,6.66,2.91l-28.88-27.38c14.02-3.35,30.54,3.89,34.8,15.27,3.35-22.6,23.25-42.58,45.06-53.12l-4.53,2.02c1.69-.8,3.41-1.55,5.13-2.31.58-.28,1.17-.55,1.75-.81l-34.84-22.1c25.88-5.94,51.44,1.03,71.52,10.29,1.4-.32,2.8-.64,4.21-.93l-33.74-24.64c29.35-8.22,51.47,9.39,62.14,20.75,19.54-1.41,39.4-.29,58.81,3.5-11.1-9.52-24.14-17.41-38.54-23.31,28.25-9.84,64.42-.93,81.17,19.99-5.68-10.79-9.45-22.19-11.2-33.84,17,3.47,28.88,18.85,25.36,32.83,3.07-12.03,8.31-23.63,15.58-34.42,1.42-2.11,4.39-3.4,7.28-2.88,4.15.74,4.63,4.2,4.49,7.07-.63,12.55-5.91,24.66-15.15,34.72,10.44-1.56,16.07-12.03,27.56-12.15,3.65-.04,7.18,1.62,8.48,4.4,2.61,5.62-5.4,10.1-12.3,11.3-6.66,1.16-14.62,1.72-18.1,6.49,35.61,3.09,65.34,30.61,64.53,59.72,5.47-8.35,10.95-16.7,16.42-25.03,2.28,12.11.67,24.49-4.66,35.94,6.91-14.87,27.7-24.51,46.93-21.76-12.73,8.8-23.39,19.39-31.48,31.28,12.41-6.73,28.34-7.39,41.53-1.73l-38.16,16.92c37.01-5.71,77.55,8.22,98.32,33.84-6.2-13.19-9.73-27.12-10.44-41.24,18.09,7.6,27.01,27.08,19.46,42.46,10.25-11.15,26.74-17.31,43.8-16.36-7,10.62-16.07,20.25-26.86,28.51l3.73,2.63c20.42.43,39.49,13.07,44.09,29.18l-22.59-8.17c7.66,7.73,12.64,16.98,14.42,26.8l-17.02-5.25c8.29,6.36,13.84,14.6,16.72,23.48v-.03s25.39-1.03,26.18,29.57l-24.03-11.63c-.78,11.37-5.65,22.5-14.51,31.18,2.75,9.72,5.11,21.76,3.67,31.35-2.64,17.57-49.87,82.92-125.1,55.28-1.93,1.94-3.99,3.8-6.32,5.48.32,7.5-2.85,14.82-8.87,20.5-3.86-6.85-7.73-13.7-11.6-20.55-2.32,8.56-7.02,16.57-13.73,23.43-.56-8.37-3.81-16.47-9.41-23.51l-17.54,4.96c2.5,3.71,4.11,9.13,2.99,17.12-3.13,22.31-14.88,24.86-14.88,24.86l-11.17-35.45-29.01,8.21c8.78,7.97,11.5,19.21,7.1,29.3-5.17-7.24-12.51-13.29-21.33-17.6,5.13,10.82,5.05,22.82-.21,33.59-5.21-7.97-10.42-15.89-15.65-23.77.89,15.83-6.49,31.23-20.31,42.39-3.83-14.07-3.06-28.72,2.26-42.47-10.25,10.32-17.72,22.28-21.91,35.1-4.2-10.94-3.63-22.72,1.61-33.36l-4.6,4.56c-14.94,14.82-42.03,16.56-59.64,3.83-14.2-5.4-30.46-5.97-45.17-1.59,8.64,14.79,7.82,32.09-2.19,46.29-5.81-13.74-11.61-27.45-17.39-41.14-.8,10.93-1.59,21.88-2.39,32.83-13.73-11.35-21.12-26.8-20.44-42.72-4.75,13.48-12.9,26-23.94,36.77-4.86-13.31-2.73-27.66,5.89-39.63-12.45,6.81-22.89,15.78-30.57,26.27-4.02-13.09.21-26.95,11.29-36.98-12.73,7.66-25.46,15.33-38.17,23.02-5.58-5.62-14.83-22.62-1.82-32.81-20.72-10.31-11.38-4.08-35.02-8.6l-20.06,12.23c-8.06-9.96-9.75-22.47-4.53-33.62l-26.91,31.83c-.08-14.99-.15-29.98-.21-44.97l-35.64,34.08c-.21-16.09,5.68-31.85,16.88-45.11-14.31,6.01-26.98,14.32-37.22,24.44-1.6-19.98,10.25-39.09,30.94-49.9l-40.59,7.05c7.19-16.61,24.09-29.22,45.04-33.61Z"/>
    <path class="cls-29" d="M1141.35,356.21s8.01,19.18,7.94,33.08c-.07,13.9,3.33,29.24,2.22,45.06-1.11,15.82-15.25,205.18-15.25,205.18l63.54,1.71s-4.24-170.27-5.82-203.47c-1.39-29.2-52.63-81.56-52.63-81.56Z"/>
    <path class="cls-29" d="M1101.94,306.51l-50.17-50.81,4.45-9.95,39.46,38.75,42.01,35.74-44.25-145.95,6.48-5.49,36.52,84.61,26.96-38.29h4.45s-31.41,44.93-31.41,44.93l15.67,74.03,26.69,24.31c.47-2.03.95-3.81,1.36-5.25l29.66-69.09-22.36-74.51,5.03-2.56s21.06,55.12,24.22,58.22c3.16,3.1,25.71-56.15,25.71-56.15l36.66-77.7,12.12,6.61-34.97,72.62,44.37-33.92,4.05,4.19-41.52,36.84s-33.26,52.07-31.99,57.17c1.28,5.09,97.87-25.02,97.87-25.02l3.17,5.88s-88.44,28.85-95.34,38.05c-6.9,9.2-20.76,38.8-23.83,48.5-2.45,7.56-7.79,18.2-7.41,22.55,0,0-12.38,26.83-13.35,61.29,5.88,15.54-7.27,35.49-5.26,51.68l-3.48,36.4-17.26-28.41,2.82-14.15c1.63-38.4-15.18-82.08-16.09-94.15l-49.16-63.8-68.98-25.01v-4.6s67.1,22.46,67.1,22.46Z"/>
    <polygon class="cls-29" points="1249.12 209.84 1202.51 118.81 1192.31 125.36 1240.38 225.86 1249.12 209.84"/>
    <polygon class="cls-29" points="1117.81 209.84 1071.21 118.81 1061.01 125.36 1109.07 225.86 1117.81 209.84"/>
    <polygon class="cls-29" points="1103.46 174.79 1161.46 90.57 1141.86 97.04 1085.21 174.7 1103.46 174.79"/>
    <polygon class="cls-29" points="1067.4 254.88 990.81 221.42 972.21 218.81 1069.53 273 1067.4 254.88"/>
    <polygon class="cls-29" points="1056.63 261.55 1036.77 187.91 1041.96 160.81 1073.86 267.54 1056.63 261.55"/>
    <rect class="cls-17" x="-91.22" y="496.97" width="1483.29" height="9.81"/>
    <rect class="cls-17" x="-91.22" y="549.65" width="1483.29" height="9.81"/>
    <rect class="cls-17" x="204.73" y="433.57" width="13.02" height="193.25"/>
    <rect class="cls-17" x="89.5" y="432.82" width="13.02" height="193.25"/>
    <rect class="cls-17" x="658.76" y="436.75" width="13.02" height="193.25"/>
    <rect class="cls-17" x="543.53" y="436.01" width="13.02" height="193.25"/>
    <rect class="cls-17" x="885.78" y="438.38" width="13.02" height="193.25"/>
    <rect class="cls-17" x="770.54" y="434.64" width="13.02" height="193.25"/>
    <rect class="cls-17" x="432.71" y="437.91" width="13.02" height="193.25"/>
    <rect class="cls-17" x="317.47" y="437.17" width="13.02" height="193.25"/>
    <rect class="cls-17" x="1112.79" y="440.25" width="13.02" height="193.25"/>
    <rect class="cls-17" x="997.56" y="436.51" width="13.02" height="193.25"/>
    <rect class="cls-17" x="1222.93" y="436.51" width="13.02" height="193.25"/>
    <path class="cls-1" d="M935.59,661.47c8.63-9.34,17.78-19.91,18.04-32.63.26-12.72-14.39-25.42-24.99-18.39,3.08-7.64.19-17.24-6.59-21.92-6.78-4.68-16.77-3.98-22.83,1.61-3.44-18.45-31.63-25.73-43.56-11.24,1.12-7.2-9.06-12.04-15.39-8.43-6.33,3.61-8.5,11.84-8,19.11-4.15-8.51-13.87-13.95-23.29-13.02-9.42.93-17.9,8.16-20.3,17.31-.9-8.05-2.23-16.93-8.44-22.13-6.21-5.2-18.57-2.26-18.41,5.84,1.86-11.45-4.51-23.75-14.94-28.82-10.43-5.08-24.04-2.51-31.9,6.01-1.53-11.22-5.72-22.91-15.03-29.35-9.31-6.44-24.55-4.76-29.29,5.52-5.36-8.77-13.95-16.79-24.23-16.79-10.28,0-19.82,12.19-14.25,20.83-7.6-12.68-31.28-7.68-33.11,6.99-5.46-8.47-16.86-12.6-26.48-9.59-9.62,3.01-16.63,12.89-16.3,22.97-9.57-5.89-22.86-4.94-31.5,2.25-8.64,7.19-11.98,20.09-7.92,30.57-28.76,2.3-49.77,36.85-38.58,63.44"/>
    <path class="cls-10" d="M1395.7,664.29c8.07-8.73,16.61-18.6,16.86-30.48s-13.44-23.75-23.35-17.18c2.87-7.14.18-16.1-6.15-20.48-6.33-4.37-15.67-3.72-21.33,1.5-3.21-17.24-29.55-24.04-40.7-10.51,1.05-6.73-8.46-11.25-14.38-7.88-5.92,3.37-7.95,11.06-7.47,17.86-3.87-7.95-12.96-13.03-21.76-12.16-8.8.87-16.72,7.62-18.97,16.18-.84-7.52-2.08-15.82-7.89-20.67-5.81-4.86-17.35-2.11-17.2,5.46,1.74-10.69-4.21-22.19-13.95-26.93-9.74-4.74-22.46-2.35-29.81,5.62-1.43-10.48-5.34-21.41-14.04-27.43-8.7-6.02-22.93-4.45-27.36,5.16-5.01-8.19-13.04-15.69-22.64-15.68-9.6,0-18.52,11.39-13.32,19.46-7.1-11.85-29.23-7.18-30.94,6.53-5.11-7.92-15.75-11.77-24.74-8.96-8.99,2.81-15.54,12.04-15.23,21.46-8.94-5.51-21.36-4.62-29.43,2.1-8.07,6.72-11.19,18.77-7.4,28.56-26.87,2.15-46.5,34.42-36.05,59.27"/>
    <path class="cls-10" d="M111.11,661.59c-8.65-9.36-17.81-19.94-18.07-32.68-.26-12.74,14.41-25.46,25.03-18.42-3.08-7.66-.19-17.26,6.6-21.95,6.79-4.69,16.8-3.98,22.87,1.61,3.44-18.48,31.68-25.77,43.63-11.26-1.12-7.21,9.07-12.06,15.42-8.45,6.34,3.61,8.52,11.86,8.01,19.15,4.15-8.52,13.89-13.97,23.33-13.04,9.44.93,17.93,8.17,20.34,17.34.9-8.06,2.23-16.96,8.46-22.16,6.22-5.21,18.6-2.26,18.44,5.85-1.87-11.46,4.52-23.79,14.96-28.87,10.44-5.09,24.08-2.51,31.95,6.02,1.53-11.24,5.73-22.95,15.05-29.4,9.32-6.45,24.59-4.77,29.33,5.53,5.37-8.78,13.98-16.82,24.27-16.81,10.29,0,19.86,12.21,14.28,20.86,7.61-12.7,31.33-7.7,33.17,7,5.47-8.49,16.88-12.62,26.52-9.61,9.64,3.01,16.66,12.91,16.32,23,9.59-5.9,22.9-4.95,31.55,2.25,8.65,7.2,12,20.12,7.93,30.62,28.81,2.3,49.85,36.91,38.65,63.55"/>
    <path class="cls-32" d="M680.3,683.99c-6.83-7.39-14.06-15.74-14.27-25.8-.2-10.06,11.38-20.1,19.76-14.54-2.43-6.04-.15-13.63,5.21-17.33,5.36-3.7,13.26-3.15,18.05,1.27,2.72-14.59,25.01-20.35,34.45-8.89-.89-5.7,7.16-9.52,12.17-6.67,5.01,2.85,6.72,9.36,6.32,15.11,3.28-6.73,10.97-11.03,18.42-10.29,7.45.73,14.15,6.45,16.05,13.69.71-6.37,1.76-13.39,6.68-17.5s14.69-1.78,14.56,4.62c-1.47-9.05,3.57-18.78,11.81-22.79,8.24-4.01,19.01-1.98,25.23,4.76,1.21-8.87,4.52-18.12,11.88-23.21,7.36-5.1,19.41-3.76,23.16,4.37,4.24-6.93,11.03-13.28,19.16-13.27,8.13,0,15.68,9.64,11.27,16.47,6.01-10.03,24.74-6.08,26.18,5.52,4.32-6.7,13.33-9.96,20.94-7.58,7.61,2.38,13.15,10.19,12.89,18.16,7.57-4.66,18.08-3.91,24.91,1.78,6.83,5.69,9.47,15.89,6.26,24.17,22.74,1.82,39.36,29.14,30.51,50.17"/>
    <path class="cls-32" d="M-102.9,676.09c-6.83-7.39-14.06-15.74-14.27-25.8-.2-10.06,11.38-20.1,19.76-14.54-2.43-6.04-.15-13.63,5.21-17.33,5.36-3.7,13.26-3.15,18.05,1.27,2.72-14.59,25.01-20.35,34.45-8.89-.89-5.7,7.16-9.52,12.17-6.67,5.01,2.85,6.72,9.36,6.32,15.11,3.28-6.73,10.97-11.03,18.42-10.29,7.45.73,14.15,6.45,16.05,13.69.71-6.37,1.76-13.39,6.68-17.5,4.91-4.11,14.69-1.78,14.56,4.62-1.47-9.05,3.57-18.78,11.81-22.79,8.24-4.01,19.01-1.98,25.23,4.76,1.21-8.87,4.52-18.12,11.88-23.21,7.36-5.1,19.41-3.76,23.16,4.37,4.24-6.93,11.03-13.28,19.16-13.27,8.13,0,15.68,9.64,11.27,16.47,6.01-10.03,24.74-6.08,26.18,5.52,4.32-6.7,13.33-9.96,20.94-7.58,7.61,2.38,13.15,10.19,12.89,18.16,7.57-4.66,18.08-3.91,24.91,1.78,6.83,5.69,9.47,15.89,6.26,24.17,22.74,1.82,39.36,29.14,30.51,50.17"/>
    <path class="cls-14" d="M1451.62,1027.49H-208.6v-384.16l514.58-5.27c66.08-2.89,573.95-1.72,640.04,1.08l505.59,4.19v384.16Z"/>
    <path class="cls-10" d="M935.56,305.91s-6.52,9.62-4.81,24.38l1.72,14.77s30.22-12.02,31.59-33.65c1.37-21.64-28.5-5.49-28.5-5.49Z"/>
    <path class="cls-10" d="M1098.1,339.27s-3.23,9.68,8.47,20.97l11.69,11.29s6.45-24.6-2.42-32.26c-8.87-7.66-17.74,0-17.74,0Z"/>
    <path class="cls-10" d="M1272.5,308.17s-3.23,9.68,8.47,20.97l11.69,11.29s6.45-24.6-2.42-32.26c-8.87-7.66-17.74,0-17.74,0Z"/>
    <path class="cls-10" d="M1315.74,295.38s-3.23,9.68,8.47,20.97l11.69,11.29s6.45-24.6-2.42-32.26c-8.87-7.66-17.74,0-17.74,0Z"/>
    <path class="cls-10" d="M915.94,102.92s-38.82-3.21-43.67-24.02l-4.85-20.8s49.1-15.26,57.49,16.64l8.39,31.9"/>
    <path class="cls-10" d="M944.88,76.83s-38.82-3.21-43.67-24.02l-4.85-20.8s49.1-15.26,57.49,16.64l8.39,31.9"/>
    <rect class="cls-17" x="-91.22" y="446.98" width="1483.29" height="9.81"/>
  </g>
  <g id="Layer_3" data-name="Layer 3">
    <g>
      <path class="cls-4" d="M528.34,434.03s1.68-1.41,4.84-3.53"/>
      <path class="cls-6" d="M543.56,424.36c25.89-13.5,82.14-30.74,148.14,23.17,82.2,67.15,64.41,187.98,56.35,225.89"/>
      <path class="cls-4" d="M746.72,679.31c-.89,3.76-1.48,5.81-1.48,5.81,2.01-.43,3.97-.8,5.9-1.12"/>
      <path class="cls-7" d="M762.18,682.74c62.82-3.77,74.52,57.33,76.66,83.43"/>
      <path class="cls-4" d="M839.19,771.71c.17,3.77.11,5.99.11,5.99,0,0,2.24-.22,5.99-.2"/>
      <path class="cls-2" d="M857.57,778.34c21.3,2.8,54.75,14.22,63.84,57.54"/>
      <path class="cls-4" d="M922.49,841.96c.28,1.93.52,3.92.71,5.96"/>
    </g>
    <path class="cls-25" d="M369.4,241.51c-.74-2.48-1.7-4.69-2.92-6.56-7.58-11.59-25.32-27.32-25.32-27.32l-1.84,18.58-3.12,15.29h33.19Z"/>
    <path class="cls-25" d="M520.97,483.78c-.79-3.62-27.97-47.23-27.97-47.23,5.21,1.11,10.31,2.65,15.25,4.63,7.57,3.09,12.93.44,11.48-3.79-.89-2.61-10.62-9.46-15.27-8.52-4.65.94-11.48-7.62-19.56-9.67-5.89-1.49-12.81.92-16.13,2.33l-95.84-46.3-.73-8.63-1.73-64.7c-1.03-12.69,3.69-40.84-.53-58.31h-34.17l-5.42,26.57-.62,91.94-8.79,1.13s7.65,12.49,7.82,31.51c.11,12.72,7.95,16.63,10.5,18.36,0,0,0,0,0,0,.02.01.04.02.05.03.17.11.33.21.49.3,30.6,18.89,99.66,24.23,119.94,33.18.7.99,11.07,15.6,18.26,20.11,5.51,3.17,11.44,5.56,17.61,7.1l16.75,10.92s4.49,8.77,7.34,7.57c2.85-1.2,2.03-4.93,1.23-8.55Z"/>
    <path class="cls-15" d="M508.77,477.84c.85.04,1.57-.71,1.96-1.37.77-1.32.75-2.91.33-4.34-.85-2.87-2.98-5.33-5.21-7.24-2.36-2.03-5.2-3.53-8-4.85-1.41-.66-2.85-1.27-4.32-1.76-.57-.19-1.13-.43-1.74-.51s-1.24,0-1.85-.06c-.29-.03-.83.02-1.02.27-.15.19-.25.4.11.43,1.14.1,2.08.08,3.19.46,1.19.41,2.36.86,3.51,1.37,2.5,1.11,4.97,2.4,7.22,3.96,2.21,1.54,4.25,3.58,5.61,5.91.57.98,1.04,2.05,1.25,3.17.15.8.13,1.61-.1,2.39-.1.33-.23.63-.41.92-.09.18-.2.34-.34.48-.39.31-.26.32.4.03-.49-.02-1.56.67-.59.72h0Z"/>
    <path class="cls-15" d="M502.86,462.1c.2-.24-.08-.56-.22-.77-.36-.55-.76-1.07-1.15-1.6-1.23-1.64-2.48-3.27-3.64-4.97-.96-1.41-1.83-2.88-2.68-4.36-.45-.78-.81-1.39-1.83-.82-.2.11-.43.29-.16.44.24.14.8-.05,1.02-.17-.58.33-1,.05-.96.17.01.04.07.07.1.11.06.11.14.22.21.33.24.4.47.82.71,1.23.82,1.42,1.7,2.8,2.64,4.14s2.02,2.77,3.05,4.14c.38.51.77,1.02,1.14,1.55.11.16.22.31.31.48s.06.28.17.16c-.22.25.19.3.36.3.3,0,.76-.12.97-.36h0Z"/>
    <path class="cls-15" d="M486.8,453.65c.29.33,1.18-.09,1.47-.26.41-.25.77-.6,1.09-.95,1.29-1.41,2.2-3.18,2.69-5.02.56-2.08.25-4.26-.62-6.21-.39-.88-.96-2.45-2.16-2.11-.14.04-.72.2-.66.43s.67.08.79.05h.02c-.22.01-.44.03-.66.04-.06,0,.1.09.16.16.14.16.25.33.37.5.33.52.61,1.07.84,1.64.63,1.55.95,3.28.67,4.95s-.97,3.19-1.87,4.53c-.34.5-.71.97-1.14,1.4-.13.13-.27.24-.4.36-.05.04-.12.07-.16.11-.03.04,1.12.09.93-.13-.25-.28-1.61.23-1.36.5h0Z"/>
    <path class="cls-15" d="M468.18,421.38c-2.92,2.48-4.25,6.57-3.09,10.26.19.6,1.64.21,1.45-.39-1.01-3.24-.04-7.08,2.58-9.3.75-.63-.43-1.01-.94-.57h0Z"/>
    <line class="cls-24" x1="351.77" y1="350.87" x2="346.81" y2="349.36"/>
    <path class="cls-31" d="M385.98,378.55l-.03-46.2s-.29-39.06.1-66.82c.29-20.15-16.84-33.67-16.84-33.67l-22.57-18.98-2.75,92.49-22.55,98.11s2.3,12.74,17.43,22.62,115.91,29.88,115.91,29.88c0,0,3.86-34.01,12.83-39.93l-81.53-37.5h0Z"/>
  </g>
  <g id="Layer_2" data-name="Layer 2">
    <path class="cls-33" d="M323.38,894.6s2.37,2.6,1.07,7.15c-1.31,4.55-28.48-.04-37.87,1.11-9.39,1.14-46.95,5.72-56.18,3.52-9.23-2.2-.71-13.53-.71-13.53l93.69,1.75Z"/>
    <path class="cls-33" d="M159.17,902.85s-1.94,1.77-2.04,8.05c-.13,8.41,30,7.85,37.34,8.41,7.34.57,30.76,5.56,47.29,6.04,16.53.48,34.84-4.46,34.9-14.03.03-5.19-.4-7.19-3.94-8.47-3.54-1.28-102.81-5.07-102.81-5.07l-10.73,5.07Z"/>
    <path class="cls-25" d="M169.39,866.88c.5,5.26-3.19,10.92-7.11,21.41-1.98,5.3-3.95,14.38,1.57,17.77,6.56,4.03,21.61,2.32,25.94,3.26,9.11,1.98,16.77,2.21,25.52,4.87,8.88,2.7.06,1.51,9.8,2.03,1.35.07,10.22,2,11.38,1.42.78-.39,2.89.08,3.67-.31,2.76-1.37,6.26.41,9.42,0,1.39-.18,2.66-.78,3.95-1.26,3.42-1.26,7.16-1.69,10.78-2.43,3.62-.75,7.3-1.9,9.81-4.25,2.5-2.35,3.43-6.16,1.24-8.73-3.3-3.88-7.53-1.57-11.98-1.91-4.44-.34-6.12-1-10.05-2.67-10.05-4.27-11.6-5.14-20.06-8.48-6.57-2.59-24.81-8.87-34.09-14.79l1.53-8.49"/>
    <g>
      <path class="cls-15" d="M240.13,918.15c2.18-.6,2.87-3.19,1.9-5.06s-3.11-2.87-4.93-3.65c-1.1-.47-2.23-.87-3.35-1.31-.62-.24-1.69.64-.84.98,2.19.86,4.56,1.57,6.43,3.05.8.63,1.5,1.48,1.64,2.52.12.85-.17,2.21-1.13,2.47-.29.08-.68.34-.59.69s.58.38.86.3h0Z"/>
      <path class="cls-15" d="M249.44,917.96c1.18-.03,2.39-.55,2.93-1.65.5-1.02.48-2.3.31-3.4-.2-1.23-.67-2.2-1.59-3.06-1.3-1.21-3.02-1.85-4.69-2.38-1.98-.63-3.84-1.79-5.99-1.73-.26,0-.82.11-.97.35-.15.26.13.27.35.26,1.6-.04,3.18.86,4.63,1.41,1.47.56,2.99.94,4.32,1.82,1,.66,1.89,1.52,2.25,2.69.29.92.4,1.94.31,2.91-.05.52-.18,1.05-.43,1.51-.12.21-.26.4-.45.56-.05.04-.12.08-.18.1.17-.08-.09,0-.18,0-.26,0-.82.11-.97.35-.16.26.13.27.35.26h0Z"/>
      <path class="cls-15" d="M256.82,915.91c2.68-.94,3.66-4.17,2.37-6.61s-3.96-3.74-6.35-4.69c-1.53-.61-3.19-1.18-4.82-1.48-.35-.06-.77,0-1.02.27-.2.22-.17.54.16.6,1.6.29,3.23.85,4.74,1.45,1.46.57,2.9,1.3,4.12,2.28,1.08.87,1.99,2.01,2.23,3.41.22,1.3-.25,3.42-1.67,3.91-.24.08-.7.28-.61.62.08.31.61.31.84.23h0Z"/>
      <path class="cls-15" d="M263.93,914.4c1.61-.69,2.94-1.86,3.64-3.49.58-1.36.73-3.09-.11-4.38-.78-1.21-2.06-2.02-3.31-2.67-1.39-.72-2.87-1.28-4.35-1.78-.76-.25-1.52-.46-2.28-.72-.96-.32-1.93-.74-2.97-.68-.26.01-.82.1-.97.36s.12.3.35.28c.8-.04,1.65.39,2.4.64.59.19,1.18.36,1.77.55,1.31.42,2.61.88,3.86,1.46s2.48,1.25,3.44,2.23c.96.97,1.32,2.17,1.13,3.52-.25,1.79-1.44,3.57-3.13,4.29-.16.07-.58.22-.42.45.13.2.79,0,.94-.06h0Z"/>
    </g>
    <path class="cls-25" d="M224.44,868.24c1.31,4.33-.15,14.05-1.27,18.92-1.29,5.6,1.31,9.81,7.72,12.13,5.39,1.95,8.14,1.81,13.97,1.47,7.61-.44,15.72-1.84,23.33-2.28,6.52-.38,27.02-2.2,33.44-1.15,9.99,1.63,16.11.19,20.51-1.35,1.22-.43,1.98-.37,2.54-1.27,1.45-2.33,1.24-4.89-2.06-6.82-4.16-2.43-9.08,1-12.97-1.87-.69-.51-1.33-1.09-2.13-1.45-1.56-.72-3.43-.53-5.19-.5-8.78.15-8.16-3.5-19.69-6.25-3.39-.81-25.27-11.6-28.41-12.97"/>
    <path class="cls-15" d="M299.07,885.4c1.65.21,3.31.8,4.87,1.36.85.3,1.69.63,2.51,1.03.45.22,1.1.48,1.4.91.21.32,1.04,0,1.28-.17,1.49-1,3.29-1.21,5.04-.94.33.05.72-.02,1.01-.18.1-.05.52-.34.17-.39-2.51-.38-5.21.03-7.34,1.46l1.28-.17c-.31-.46-.87-.72-1.35-.96-.85-.43-1.74-.77-2.64-1.1-1.71-.62-3.49-1.23-5.3-1.46-.32-.04-1.66.51-.94.6h0Z"/>
    <path class="cls-3" d="M220.31,884.03s29.24,15.55,37.5,14.73l5.27-.05s3.21-.95,4.98.08"/>
    <path class="cls-33" d="M294.63,897.76s.57-9.89,4.68-13.43c0,0-10.95-6.37-18.94-7.87,0,0-9.47,8.33-7.42,22.26l21.68-.96Z"/>
    <path class="cls-33" d="M229.43,918.55s-3.32-7.86,16.65-16.44c12.18-5.23,13.07-4.05,13.07-4.05,0,0-7.66-7.29-21.04-8.24,0,0-25.63,3.04-32.25,24.39l23.57,4.35Z"/>
    <path class="cls-25" d="M298.58,140.18s-3.59,28.79-13.37,43.18c-1.57,2.31-16.35,5.2-16.35,5.2l2.51,5.1c2.17,4.4,29.67,72.88,33.55,75.89,19.32,14.96,27.26-38.15,40.93-48.79l-3.01-10.53s-2.8-4.26-2.61-7.55c.18-3.29,10.5-26.52,10.5-26.52"/>
    <path class="cls-8" d="M293.99,150.98c-.01.06-.02.11-.03.17,0-.08,0-.14.03-.17Z"/>
    <path class="cls-25" d="M323.42,195.34l18.86,4.74,9.94.6c.94.29,7.84-8.08,8.84-9.1,3.1-3.18,6.77-8.14,9.19-11.87,2.6-4,6.85-6.21,9.06-11.29,1.61-3.72,2.42-6.42,2.18-13.33-.06-1.75.39-3.35,1.28-4.96,1.9-3.38,3.43-7.52,5.87-12.08.19-.36,1.18-2.07,1.15-2.53,0,0,5.43-20.4,3.89-28.7-1.54-8.3-4.7-12.79-9.62-15.72-4.92-2.93-20.91-6.56-20.91-6.56l-20.79-9.45-21.11,3.73-15.92,19.67-6.25,26.4-4.01,24.04"/>
    <path class="cls-15" d="M334.11,193.9c-.18.05-9.63-4.08-9.82-4.15l-4.37-3.88s-.02-.03-.02-.03c-.51.04-1.06-.09-1.61-.48-2.85-2.02-5.1-4.6-7.17-7.4-1.86-2.51-3-8.83-5.36-10.91-1.12-.98-.55-1.25-1.4-2.4.02.32-.55,2.02-.53,2.34,3.08,7.87,8.86,24.25,14.88,29.81.47.28,1.94,1.21,6.12,2.83,5.48,2.12,9.78,3.66,15.5,4.53,1.27-3.93,2.38-8.71,3.59-12.66-2.01-.63-3.08.47-9.79,2.4Z"/>
    <path class="cls-23" d="M343.51,134.02c-1-.99-2.55-.89-3.54-.44-.23.1-.87.41-1.34,1.12-.6.91-.56,2.16-.15,3.04.55,1.18,1.89,1.77,3.12,1.61,1.66-.22,2.68-1.82,2.71-3.21,0-.25,0-1.33-.8-2.13"/>
    <path class="cls-23" d="M376.45,144.56c1.38-.24,2.6.72,3.16,1.65.13.22.48.83.47,1.69-.02,1.09-.77,2.1-1.61,2.59-1.12.66-2.57.38-3.48-.45-1.24-1.13-1.17-3.02-.41-4.18.14-.21.76-1.09,1.87-1.29"/>
    <path class="cls-23" d="M367.4,146.67s5.74-3.45,8.96-2.8c4.69.95,5.49,2.46,6.37,5.3,0,0-2.21-3.37-5.54-3.94-3.18-.54-9.79,1.44-9.79,1.44Z"/>
    <path class="cls-23" d="M352.44,140.64s-5.75-6.75-9.23-7.94c-5.08-1.73-12.13-.61-14.55,1.32,0,0,9.44-1.94,12.99-.62,3.39,1.26,10.79,7.23,10.79,7.23Z"/>
    <path class="cls-23" d="M356.25,118.84c.72.29.5.84.59,2.12.03.41.08,1.03.14,1.7.11,1.23-1.03,2.21-2.23,1.91-2.15-.55-4.07-1.14-5.54-1.3-3.98-.42-8.07-1.13-12-.24-1.88.43-3.52,1.04-5.04,2.13-.48.34-1.74,1.78-2.51,1.49-.32-.12.08-1.72.12-1.89.81-3.23,3.4-4.73,6.63-5.72,6.58-2,12.99-.59,19.84-.2"/>
    <path class="cls-23" d="M390.18,137.27s-1.31-1.57-1.32-1.59c-2.82-3.42-6.24-6.02-10.01-8.18-1.91-1.1-4.35-.51-5.61,1.29,0,.01-.01.02-.02.03-.25.36-1.21,1.31-1.19,1.75,0,.09.05.17.09.24.47.81,1.26,1.41,2.12,1.8,1.06.49,2.21.65,3.28,1.1,3.07,1.29,6.33,2.61,8.67,5.01.19.19,1.17,1.23,1.34,1.43,1.87-.85,2.87-2.4,2.65-2.9Z"/>
    <g>
      <path class="cls-23" d="M356.15,165.14c-1.75.34-3.98-.57-5.19-1.99-.27-.32-1.45-.46-1.07-.01,1.6,1.89,4.85,3.03,7.1,2.59.22-.04.24-.21.02-.36-.22-.16-.63-.27-.86-.22"/>
      <path class="cls-23" d="M349.38,162.49c-.86-.8-1.91-1.41-3-1.85-.16-.06-.39-.07-.55,0-.12.06-.18.17-.08.28.42.47,1.05.8,1.66.98.19.06.46.09.62-.05.15-.12,0-.28-.16-.33-.51-.15-.99-.41-1.34-.79-.21.09-.42.19-.63.28.98.39,1.92.95,2.68,1.67.15.14.43.17.62.12.14-.04.32-.17.17-.31"/>
      <path class="cls-23" d="M344.86,161.24c-1.31-.45-2.68-1.52-3.01-2.73-.5-1.84,1.15-3.93,3.1-4.4.21-.05.16-.22,0-.31-.22-.13-.53-.12-.75-.07-1.7.41-3.24,2.06-3.47,3.56-.22,1.41.75,2.74,2.21,3.62.43.26.91.5,1.4.66.2.07.58.12.72-.01.15-.13-.01-.26-.2-.32"/>
      <path class="cls-23" d="M358.78,165.21c-.02-.18.14-.24.25-.2.35.12.75.13,1.13-.02.07.18.14.36.21.55-.74-.14-1.53-.13-2.3.11-.15.05-.32-.07-.4-.2-.06-.1-.1-.3.05-.35"/>
      <path class="cls-23" d="M357.72,165.1c.87-.26,1.75-.27,2.57-.11.12.02.25.13.3.27.04.11.02.23-.09.27"/>
      <path class="cls-23" d="M361.46,166.25c.87.23,2.06-.04,2.8-.92,1.12-1.33,1.09-3.34.33-4.65-.08-.14.02-.26.15-.26.17,0,.32.14.41.29.67,1.15.84,2.72.25,4.12-.55,1.3-1.66,1.99-2.81,2.06-.34.02-.69,0-1.02-.09-.13-.04-.35-.17-.36-.35-.01-.18.13-.22.25-.18"/>
    </g>
    <path class="cls-13" d="M349.45,172.56c-5.73-1.81-14.79-5.4-14.79-5.4,0,0-2.14,13.31,11.13,17.5,13.28,4.19,16.09-8.52,16.09-8.52,0,0-6.7-1.77-12.43-3.57Z"/>
    <path class="cls-23" d="M349.5,172.58c-2.72-.86-13.55-4.78-13.55-4.78,0,0,1.5,8.93,11.35,12.03,10.68,3.37,13.85-3.93,13.85-3.93l-11.65-3.33Z"/>
    <path class="cls-30" d="M349.49,173.02c-2.72-.86-10.86-3.93-10.86-3.93,0,0,2.04,3.92,10.21,6.49,8.17,2.58,11.67.5,11.67.5l-11.02-3.07Z"/>
    <path class="cls-13" d="M362.58,175.2c-.26-.16-.71-.25-1.98-.78-2.12-.88-2.65-1.33-4.18-1.96-2.63-1.06-4.68-.5-5.85-.87s-2.53-2.01-5.29-2.64c-1.62-.37-5.71-1.01-7.94-1.5-1.34-.3-2.71-1.3-3.01-1.32-.42-.02-.6,3.16,14.12,7.8,14.71,4.64,14.51,1.49,14.15,1.27Z"/>
    <path class="cls-11" d="M134.48,441.87h0c-5.43,16.97-8.2,34.69-8.18,52.51v7.62c-.46,25.96,5.14,43.74,12.32,68.69l15.23,114.64s-.08,45.83-4.68,83.71c-4,32.83,6.34,105.65,6.34,105.65l11.38,2.16c10.28,1.95,20.8,2.33,31.2,1.14l27.83-2.57,15.55-208.12,15.43-128.13,21.15-71.5-143.58-25.8Z"/>
    <path class="cls-11" d="M305.74,463.06l-14.58,219.77c0,9.19-3.69,17.53-7.91,61.77l-8.02,75.37-2.89,46.64-6.48,1.12c-8.9,1.79-18,2.36-27.05,1.7l-19.83-.81,21.99-401.21,64.75-4.33Z"/>
    <path class="cls-31" d="M313.49,479.59c.21-.74.41-1.53.61-2.29,5.6-20.4,10.71-30.78,16.96-59.67l42.32-123.51-2.41-50.57s-6.86-10.99-7.22-13.49l-20.73-22.17c2.8,16.26-18.69,12.08-18.69,12.08l-5.39,15.21-.72,2.31.82-18.81c-33.58-10.91-35.08-35.73-35.08-35.73l-10.64,1.76c-12.71,1.43-50.5,2.89-61.16,9.97-12.51,8.26,10.9,46.51,18.53,67.8l-24.24-3.03s-36.36,77.3-46.55,100.04c-10.2,22.74-22.32,55.77-28.5,70.5-18.94,45.16,63.81,76.32,96.84,82.92,30.64,6.12,67.96,25.53,84.79-31.73l.04.03c.15-.56.29-1.07.43-1.62Z"/>
    <path class="cls-21" d="M372.41,288.9c-5.81,18.51-11.77,36.96-17.79,55.4-6.11,18.74-12.27,37.47-18.54,56.16-2.49,7.43-4.99,14.85-7.55,22.25-.12.35,1.29.18,1.44-.23,5.2-14.99,10.18-30.06,15.16-45.13,6.5-19.65,12.93-39.32,19.27-59.02,3.18-9.88,6.34-19.76,9.45-29.67.11-.37-1.31-.18-1.44.23h0Z"/>
    <path d="M254.71,538.33c-2.58,3.3-3.59,7.61-4.25,11.67-.83,5.13-1.05,10.36-1.12,15.56-.05,3.81.04,7.61-.13,11.42l-1.31,29.02c-.67,14.95-1.35,29.9-2.02,44.85-.57,12.71-1.15,25.42-1.72,38.14-.18,4-.21,8.04-.6,12.03-.69,7.1-1.39,14.19-2.08,21.29-1.29,13.19-2.58,26.39-3.87,39.58l-4.44,45.44c-1.28,13.14-2.57,26.27-3.85,39.41-.68,6.98-1.36,13.96-2.05,20.94l-.09.96c-.06.66,1.4.42,1.46-.15.48-4.89.96-9.78,1.43-14.67,1.17-11.97,2.34-23.95,3.51-35.92,1.46-14.96,2.92-29.93,4.39-44.89,1.37-13.99,2.73-27.98,4.1-41.97.88-9.04,1.77-18.07,2.65-27.11.3-3.03.49-6.01.63-9.05.49-10.9.98-21.81,1.47-32.71.68-15.04,1.36-30.09,2.03-45.13.53-11.74,1.06-23.49,1.59-35.23.46-10.21-.15-20.54,1.27-30.66.6-4.25,1.47-9.02,4.18-12.49.55-.7-.83-.78-1.19-.33h0Z"/>
    <path class="cls-25" d="M309.23,125.64c-.21,2.04-2.72,9.81-3.04,11.79l-10.24-3.14c-1.18-7.63-2.97-11.21-3.64-13.35-1.04-3.35.99-14.38,1.6-17.77,1.03-5.72,4.95-12.35,8.47-17.18,3.87-5.32,7.58-8.1,13.23-11.28,11.52-6.49,28.85-7.09,44.16-1.53,1.45.53,2.89,1.11,4.27,1.73,13,5.85,22.65,12.49,28.12,26.19,3.94,9.88,2.22,17.45-1.28,29.09,2.78-11.23,1.67-21.28,1.59-21.66-1.59-8.64-5.73-12.16-8.93-13.6-2.79-1.25-5.19-1.11-5.67-1.06-3.51-.21-8.21-2.04-11.54-3.54-2.49-1.12-4.42-2.15-4.94-2.43-1.41-1.7-3.78-3.33-6.87-4.72-7.17-3.23-18.38-5.02-21.55-2.41-3.51,2.9-12.75,14.17-13.64,17.16,0,0-8.58,13.07-10.1,27.73Z"/>
    <path class="cls-25" d="M351.61,195.44c-.12-.05-.23-.14-.31-.23-1.6-1.9-1.53-2.68-2.44-3.2-.21-.12-.3-.23-.97-.54-2.68-1.21-4.3-2-13.19.55-.18.05-9.63-4.08-9.82-4.15l-4.37-3.88c-.69-.77-14.99-22.35-14.99-22.35-.13-.62-2.45-5.43-2.43-5.98-.05-.05-.1-.1-.15-.14-.02-.01-.06-.05-.11-.09-.02.03-.04.07-.06.09-.1.21-.16.44-.21.66-.24.97,1.93-5.14,1.95-4.14.03,1.54-.22,3.5-.25,5.03-.01.54-.48,7.98-.45,8.51,1.77,1.98,9.92,23.09,16.63,29.29.47.28.8,1.25,4.98,2.87,7.85,3.04,15.62,5.31,24.21,5.34,2.24,0,4.34-.98,5.73-2.65,3.97-4.77,12.77-15.4,16.45-23.19-3.58,4.09-11.18,12.87-16.4,18.84-.16.18-3.26-.55-3.54-.55"/>
    <path class="cls-12" d="M309.23,125.64c-.21,2.04-2.72,9.81-3.04,11.79l-10.24-3.14c-1.18-7.63-2.97-11.21-3.64-13.35-1.04-3.35.99-14.38,1.6-17.77,1.03-5.72,3.65-16.05,7.17-20.89,3.87-5.32,9.22-8.48,14.86-11.66,11.52-6.49,28.52-3,43.83,2.55,1.45.53,2.89,1.11,4.27,1.73,13,5.85,22.65,12.49,28.12,26.19,3.94,9.88,2.6,17.44.48,22.93,2.78-11.23.87-15.84.75-16.21-2.34-6.87-5.32-12.73-8.52-14.17-2.79-1.25-6.52.18-7,.22-3.51-.21-8.21-2.04-11.54-3.54-2.49-1.12-4.42-2.15-4.94-2.43-1.41-1.7-10.06-7.8-13.15-9.19-7.17-3.23-12.86-3.08-16.02-.47-3.51,2.9-11.99,16.7-12.89,19.69,0,0-8.58,13.07-10.1,27.73Z"/>
    <path class="cls-25" d="M296.61,152.25c-8.23,6.62-8.38-8.7-8.38-8.7-3.7-8.81-1.41-16.3.37-21.35,1.78-5.05,7.38-3.25,7.38-3.25,4.62,1.98,5.97,5.2,5.04,22.55"/>
    <path class="cls-23" d="M295.43,131.95c-1.76,0-2.8,1.26-3.31,2.84-.19.6-.26,1.21-.37,1.82-.23,1.23-.48,2.38-.37,3.65.09,1.03.7,4.79,2.52,4.17,1.2-.41.94-2.6.97-3.56.02-.75-.1-2.09.4-2.72.41-.52,1.61.29,2.11.51.13.06.53.03.53-.19-.15-4.15,0-8.91-2.01-12.7-.26-.49-.64-1.22-1.17-1.49-.46-.23-.87.17-1.23.45-1.92,1.54-2.9,3.94-3.34,6.3-.05.26.55.17.59-.06.41-2.15,1.25-4.31,2.9-5.81.07-.07.85-.62.85-.64,0,.03-.31-.05-.31.02,0,.02.11.06.12.08.3.5.78.89,1.07,1.44.66,1.3,1.01,2.76,1.28,4.19.5,2.74.55,5.5.65,8.28l.53-.19c-.74-.32-1.92-1.16-2.74-.65-.97.61-.79,2.45-.82,3.4-.02.71-.01,1.44-.15,2.14-.04.2-.09.64-.28.77-.37.24-.77-.36-.95-.65-1.33-2.1-.94-4.61-.55-6.9.28-1.62.75-4.14,2.86-4.14.25,0,.61-.38.22-.38h0Z"/>
    <path class="cls-21" d="M310.52,222.9c-9.02-2.57-17.16-8.31-23.5-15.13-3.03-3.26-5.57-6.85-7.66-10.77-1.59-2.97-3-6.15-3.63-9.48-.21-1.1-.44-2.4-.16-3.52l-.79.6c3.04-.37,6.08-.73,9.12-1.1l-.66-.35c.68,3.08,1.89,6.1,3.21,8.96,2.94,6.35,7.01,12.19,12.25,16.85,3.65,3.24,7.83,5.82,12.35,7.65.63.26,1.69-.65.83-1-12.88-5.24-22.06-16.81-26.33-29.82-.33-.99-.64-2-.87-3.02-.06-.27-.43-.38-.66-.35-3.04.37-6.08.73-9.12,1.1-.36.04-.7.22-.79.6-.23.92-.08,1.99.04,2.91.41,3.08,1.62,6.04,2.97,8.82,4.15,8.51,10.56,15.62,18.3,21.04,4.36,3.05,9.15,5.56,14.29,7.02.65.18,1.71-.75.83-1h0Z"/>
    <path class="cls-21" d="M323.89,219.68c3.83.67,7.84,1.13,11.72.52,2.17-.34,4.42-1.04,6.09-2.53,1.88-1.68,2.54-4.22,2.08-6.65-.24-1.28-.48-2.56-.71-3.84l-1.4.46c1.06.9,2.12,1.79,3.19,2.69l2.24,1.89c.35.3.84.59,1.12.95.59.74.7,2.81.54,3.91-.49,3.3-3.11,5.95-5.81,7.67-3.59,2.28-7.74,2.59-11.77,1.37-.38-.12-1.68.48-1.17.63,6.74,2.03,14.54-.18,18.63-6.14,1.43-2.08,2.13-4.73,1.29-7.18-.38-1.11-1.4-1.67-2.27-2.42-1.54-1.3-3.09-2.6-4.63-3.91-.26-.22-1.48,0-1.4.46.31,1.8.93,3.86.83,5.72-.17,3.2-2.48,5.28-5.5,6.02-3.94.96-8.23.36-12.16-.32-.39-.07-1.69.56-.91.69h0Z"/>
    <path class="cls-21" d="M310.72,216.19c-.55,6.17-1.1,12.35-1.64,18.52l-2.62,29.56c-.2,2.28-.4,4.56-.61,6.84-.02.2.12.31.3.37,2.33.73,4.66,1.46,6.98,2.19.34.11,1.11-.07,1.16-.51.65-6.21,1.31-12.41,1.96-18.62,1.04-9.89,2.08-19.77,3.13-29.66.24-2.26.48-4.52.71-6.78.02-.19-.12-.32-.3-.37-2.64-.69-5.27-1.37-7.91-2.06-.54-.14-1.71.66-.86.88,2.64.69,5.27,1.37,7.91,2.06l-.3-.37c-.65,6.21-1.31,12.41-1.96,18.62-1.04,9.89-2.08,19.77-3.13,29.66-.24,2.26-.48,4.52-.71,6.78l1.16-.51c-2.33-.73-4.66-1.46-6.98-2.19l.3.37c.55-6.17,1.1-12.35,1.64-18.52.87-9.85,1.75-19.71,2.62-29.56.2-2.28.4-4.56.61-6.84.06-.66-1.41-.42-1.46.15Z"/>
    <path class="cls-21" d="M331.69,220.83c-2.13,5.93-4.26,11.86-6.39,17.8-3.38,9.4-6.76,18.81-10.13,28.21-.77,2.16-1.55,4.31-2.32,6.47.49-.05.97-.1,1.46-.16.83-7.9,1.67-15.8,2.5-23.7l.62-5.92c.08-.8.08-1.68.26-2.47.21-.95.66-1.91.98-2.83l2.36-6.81c1.36-3.92,2.72-7.84,4.08-11.76l-1,.53c2.68.34,5.37.67,8.05,1.01.61.08,1.52-.78.54-.9-2.68-.34-5.37-.67-8.05-1.01-.37-.05-.87.16-1,.53-1.14,3.29-2.28,6.58-3.42,9.87l-2.48,7.16c-.48,1.38-1.09,2.78-1.46,4.2-.55,2.16-.53,4.63-.76,6.85l-1.61,15.31c-.35,3.37-.71,6.73-1.06,10.1-.07.69,1.29.3,1.46-.16,2.13-5.93,4.26-11.86,6.39-17.8,3.38-9.4,6.76-18.81,10.13-28.21.77-2.16,1.55-4.31,2.32-6.47.2-.54-1.27-.37-1.46.16Z"/>
    <path class="cls-25" d="M1009.57,687.54c1.02-.1,30.12-31.77,36.41-52.85,4.9-16.42,8.39-77.62,8.39-77.62l-25.51,11.65-6.61,50.62-26.44,56.8,13.76,11.4Z"/>
    <path class="cls-25" d="M977.38,700.37c1.59.97,3.62.91,5.22-.16,0,0,2.07,6.21,7.58,3.18,0,0,3.44,4.86,7.78,1.31,2.95,1.48,6.58.71,8.79-1.88,3.9-4.51,6.09-20.44,6.09-20.44l-17.02-6.24s-12.1,6.67-13.2,8.21c-.77,1.06-4.36,7.32-6.25,10.59-1.07,1.85-.63,4.18,1.02,5.42Z"/>
    <path class="cls-15" d="M1005.7,703.99c1.17-2.01,2.27-4.46,2.29-6.83.01-2.04-1.39-3.99-3.59-3.75-2.11.22-3.14,1.8-3.86,3.63-1,2.56-1.97,5.13-2.96,7.69l1.43-.26c.43-2.12.85-4.24,1.28-6.35.17-.86.41-1.73.15-2.59-.2-.69-.57-1.38-1.13-1.85-1.1-.92-2.67-.35-3.83.17-.66.3-1.11.79-1.5,1.39-.47.73-.95,1.45-1.41,2.19-.14.22.52.14.58.13.26-.04.7-.14.85-.39.32-.52.67-1.02,1-1.54.35-.55.67-1.27,1.27-1.59.54-.28,1.01-.36,1.52,0s.85.92,1.07,1.49c.54,1.38-.02,2.9-.3,4.29-.33,1.63-.66,3.26-.99,4.9-.07.33,1.31.06,1.43-.26.8-2.07,1.59-4.14,2.39-6.21.34-.88.64-1.79,1.07-2.64.32-.65.91-1.78,1.76-1.62,2.09.38,2.5,2.95,2.21,4.67-.33,1.96-1.17,3.87-2.16,5.58-.13.23.51.14.58.13.25-.04.71-.14.85-.39h0Z"/>
    <path class="cls-15" d="M1003.18,684.86c-.4,2.78-2.22,5.22-4.75,6.44-1.35.65-2.78.87-4.26.71-1.64-.18-3.21-.61-4.87-.57-.37,0-1.21.62-.62.95,3.2,1.81,4.8,5.64,3.86,9.19l.8-.58c-.79.02-1.91-.96-2.53-1.35-.7-.44-1.4-.87-2.1-1.31-1.4-.87-2.85-1.7-4.22-2.63s-1.79-2.03-1.53-3.64c.23-1.44.77-2.8.74-4.27-.02-.76-1.48-.54-1.47.11.04,1.79-.81,3.44-.83,5.22-.01,1.52.76,2.58,1.98,3.41,1.65,1.12,3.4,2.12,5.09,3.18,1.4.87,3.02,2.37,4.75,2.34.35,0,.71-.24.8-.58,1.01-3.8-.79-7.99-4.21-9.92l-.62.95c2.05-.05,4.01.7,6.06.63,1.52-.05,3.04-.51,4.37-1.26,2.66-1.49,4.61-4.08,5.05-7.12.11-.73-1.37-.54-1.47.11h0Z"/>
    <path class="cls-15" d="M983.81,700.08c.04-.31.18-.53.36-.79.19-.27.39-.53.55-.82.34-.6.57-1.26.68-1.94.09-.57-1.37-.33-1.45.18-.1.65-.31,1.27-.65,1.83s-.86,1.05-.95,1.72c-.04.32.41.35.63.32.19-.03.39-.08.55-.19.11-.07.26-.17.27-.31h0Z"/>
    <path class="cls-35" d="M1167.64,875.19c-2.4.26-4.76,1.69-6.38,3.41-1.95,2.07-2.95,4.71-3.5,7.46s-.82,5.65-.29,8.43c.2,1.03.49,2.24,1.13,3.11.08.11.51-.09.48-.13-1.57-2.13-1.53-5.6-1.34-8.06.39-5.06,2.02-10.5,6.79-13.04.88-.47,1.89-.89,2.89-1,.12-.01.52-.21.21-.18h0Z"/>
    <g>
      <path class="cls-24" d="M1168.65,859.75c-.09-.99-5.61-5.21-14.31-17.19l.34-.22c3.96-.85,7.39-3.09,10.81-5.35,2.56-1.68,5.08-3.41,7.49-5.3,2.05-1.61,3.81-3.62,5.99-5.05l1.97,4.17,9.43,20.03,2.6,3.81s-.01,27.05-7.93,31.61c-7.91,4.57-27.61,10.1-27.61,10.1,0,0,11.73-31.18,11.23-36.63Z"/>
      <path class="cls-35" d="M1168.8,859.71c-.12-.83-1.34-1.74-1.87-2.29-1.83-1.93-3.64-3.88-5.37-5.9-1.28-1.5-2.53-3.03-3.75-4.58-.69-.88-1.37-1.78-2.04-2.68-.32-.43-.76-.87-1-1.36-.39-.79-.27-.2-.06-.5.11-.16.86-.22,1.04-.27,3.97-1.11,7.43-3.51,10.82-5.76,2.22-1.48,4.44-3,6.53-4.66,2.05-1.63,3.81-3.58,5.99-5.05l-.26.03c3.42,7.25,6.83,14.51,10.25,21.76.4.86.76,1.77,1.24,2.58.59.98,1.3,1.9,1.94,2.85.25.37.49.63.56,1.05.21,1.24-.06,2.74-.12,3.99-.12,2.53-.31,5.05-.59,7.57-.59,5.35-1.39,11.13-3.91,15.96-1.17,2.25-2.68,3.59-4.93,4.71-2.99,1.5-6.12,2.7-9.26,3.84-5.23,1.9-10.53,3.58-15.88,5.12-.17.05-.4.16-.58.17-.26,0,.03.1.03.05.01-.26.23-.61.32-.86.57-1.54,1.14-3.09,1.7-4.63,1.87-5.18,3.69-10.38,5.39-15.62,1.45-4.5,3.12-9.16,3.74-13.86.07-.55.13-1.1.09-1.65,0-.07-.3-.02-.29.08.15,1.94-.5,4.03-.98,5.88-.78,3.06-1.71,6.08-2.68,9.09-1.91,5.95-3.98,11.85-6.13,17.71-.48,1.31-.96,2.62-1.45,3.92-.03.07.14.04.16.04,7.02-1.97,14.01-4.21,20.78-6.92,3.03-1.22,6.89-2.41,8.98-5.09,2.2-2.82,3.18-6.56,3.92-9.99.85-3.9,1.33-7.89,1.63-11.86.19-2.47.44-5.02.35-7.49-.03-.68-.35-.97-.76-1.58-.63-.92-1.35-1.83-1.89-2.8-1.25-2.28-2.24-4.75-3.35-7.1-2.66-5.66-5.33-11.32-7.99-16.98-.04-.08-.21,0-.26.03-2.06,1.39-3.74,3.21-5.65,4.77-2.06,1.69-4.28,3.2-6.49,4.68-2.18,1.46-4.37,2.95-6.71,4.17-1.31.69-2.67,1.28-4.09,1.7-.61.18-1.16.24-1.69.58-.02.02-.04.04-.02.07,3.2,4.39,6.61,8.63,10.3,12.62.95,1.03,1.94,2.04,2.89,3.07.35.38,1.03.93,1.11,1.48.01.08.3.01.29-.08Z"/>
    </g>
    <g>
      <path class="cls-24" d="M1180.93,830.82s-5.56,5.48-11.73,9.67c-6.17,4.2-11.99,5.89-11.99,5.89"/>
      <path class="cls-35" d="M1180.81,830.79c-6.63,6.51-14.57,12.86-23.62,15.52-.17.05-.13.21.04.16,9.12-2.68,17.13-9.05,23.81-15.62.12-.12-.16-.13-.24-.06h0Z"/>
    </g>
    <path class="cls-35" d="M1167.87,871.12c-2.29.2-4.57,1.57-6.1,3.23-1.86,2.02-2.75,4.61-3.21,7.27s-.66,5.58-.09,8.3c.22,1.03.52,2.22,1.16,3.09.08.11.51-.08.48-.13-1.55-2.12-1.6-5.5-1.47-7.97.26-4.88,1.66-10.34,6.36-12.74.81-.41,1.74-.78,2.66-.86.12-.01.52-.22.21-.19h0Z"/>
    <path class="cls-35" d="M1172.63,870.42c-2.41.21-4.77,1.75-6.3,3.55-1.77,2.1-2.57,4.71-3,7.38s-.57,5.47.03,8.13c.22.98.53,2.1,1.14,2.93.11.15.57-.02.44-.2-1.66-2.26-1.61-5.95-1.41-8.56.38-4.78,1.88-9.97,6.57-12.17.77-.36,1.63-.68,2.49-.75.25-.02.38-.34.05-.31h0Z"/>
    <g>
      <path class="cls-19" d="M1188.17,850.06s2.23-1.99,4.9.11c2.67,2.1,8.79,4.57,12.54,14.2,0,0,4,3.16,4.87,5.22.87,2.06,3.15,1.61-9.23,10.45-12.38,8.83-33.7,26.86-45.43,29.83-11.73,2.97-12.07-7.85-11.72-8.78.35-.93,10.52-13.39,10.52-13.39l10.25-25.32.32-8.1s7.83.65,8.78,4.05l.95,3.41s8.02,3.15,11.62-1.67c3.6-4.82-.57-8.22,1.63-10.01Z"/>
      <path class="cls-16" d="M1188.41,850.04c1.85-1.59,3.73-.2,5.32.88,1.06.72,2.14,1.4,3.17,2.17,3.29,2.46,5.85,5.66,7.6,9.38.31.66.51,1.55.97,2.09.37.44.95.79,1.38,1.18,1.31,1.17,2.6,2.42,3.4,4,.35.69.91,1.31.6,2.11-.27.69-.91,1.26-1.43,1.75-1.16,1.1-2.44,2.07-3.72,3.04-3.37,2.56-6.85,4.97-10.23,7.51-7.23,5.44-14.36,11.02-21.83,16.12-3.37,2.3-6.8,4.52-10.4,6.43-3.35,1.78-7.11,3.58-10.98,3.58-2.95,0-5.55-1.36-6.9-4.03-.69-1.37-1.29-3.32-1.05-4.88.08-.5.38-.86.68-1.27.67-.92,1.37-1.81,2.07-2.7,1.9-2.42,3.83-4.82,5.76-7.21.71-.87,1.64-1.75,2.15-2.76.74-1.47,1.26-3.11,1.88-4.64,2.18-5.38,4.36-10.77,6.54-16.15.55-1.36,1.34-2.79,1.7-4.21.11-.43.07-.9.09-1.34l.17-4.29c.03-.86.07-1.73.1-2.59l-.44.18c2.16.18,4.48.66,6.41,1.67,1.6.84,2.15,1.87,2.62,3.56.14.52.23,1.77.61,2.19.2.23.88.31,1.15.39,1.19.34,2.42.56,3.66.63,2.6.15,5.41-.47,7.14-2.56,1.36-1.64,1.93-3.65,1.65-5.75-.19-1.41-1.1-3.35.16-4.49.11-.1-.38-.04-.48.04-.79.71-.76,1.61-.59,2.6.28,1.57.67,3.06.29,4.66-1.02,4.3-5.05,5.72-9.03,5.16-.93-.13-2.99-.29-3.48-1.07-.66-1.06-.51-2.62-1.12-3.74-.54-1.01-1.62-1.64-2.63-2.09-1.87-.83-3.97-1.26-6.01-1.44-.1,0-.43.05-.44.18-.1,2.46-.19,4.92-.29,7.38-.04,1.09-.57,2.03-.98,3.07-2.23,5.51-4.46,11.01-6.69,16.52-.8,1.97-1.59,3.94-2.39,5.9-.4,1-1.22,1.76-1.89,2.59-1.99,2.46-3.97,4.92-5.93,7.4-.77.98-1.55,1.97-2.29,2.98-.29.4-.59.75-.68,1.25-.3,1.65.39,3.77,1.16,5.18,1.29,2.37,3.61,3.67,6.27,3.84,3.22.21,6.43-.92,9.33-2.23,3.7-1.67,7.19-3.8,10.59-6.02,7.84-5.12,15.25-10.88,22.71-16.53,3.49-2.64,7.04-5.19,10.56-7.78,1.62-1.19,3.25-2.4,4.78-3.72.7-.61,1.48-1.26,1.98-2.05.55-.86.25-1.38-.19-2.19-.63-1.16-1.3-2.14-2.24-3.09-1.08-1.1-2.59-1.96-3.19-3.38-1.65-3.92-4.13-7.4-7.46-10.05-1.14-.9-2.35-1.69-3.56-2.49-1.28-.85-2.43-1.92-4.08-1.83-.89.05-1.84.39-2.53.97-.11.09.38.04.48-.04Z"/>
    </g>
    <path class="cls-5" d="M1207.81,867.3s-22.39,18.29-32.26,24.58c-9.87,6.29-24.63,15.77-29.51,15.28,0,0,2.07,5.9,10.94,2.87,8.87-3.03,24.27-14.59,24.27-14.59,0,0,29.25-20.83,30.04-22.58.78-1.76-.53-4.99-3.49-5.55Z"/>
    <path class="cls-35" d="M1200.78,856.71c-2.4.26-4.76,1.69-6.38,3.41-1.95,2.07-2.95,4.71-3.5,7.46-.55,2.75-.82,5.65-.29,8.43.2,1.03.49,2.24,1.13,3.11.08.11.51-.09.48-.13-1.57-2.13-1.53-5.6-1.34-8.06.39-5.06,2.02-10.5,6.79-13.04.88-.47,1.89-.89,2.89-1,.12-.01.52-.21.21-.18h0Z"/>
    <path class="cls-35" d="M1153.73,889.72c2.31.73,5.03-.32,6.87-1.69,1.64-1.22,2.73-3.15,3.78-4.85,3.08-5,5.73-10.27,8.33-15.52.69-1.39,1.37-2.78,2.03-4.17,0-.02,0-.04-.01-.05-1.65-1.87-4.48-2.4-6.83-2.03-1.35.21-4.19.9-4.28,2.72,0,.11.47.04.48-.13.08-1.59,2.58-2.19,3.72-2.37,2.03-.31,4.72.1,6.19,1.72.33.36.19.35-.06.88-.42.87-.84,1.74-1.27,2.61-2.97,6.05-5.96,12.21-9.68,17.84-1.89,2.87-5.06,6.04-8.88,4.83-.13-.04-.56.16-.39.21h0Z"/>
    <path class="cls-9" d="M1170.09,867.96v-.07c.08-.53-.53-1.07-1.35-1.2l-5.95-.95c-.82-.13-1.56.19-1.64.72v.07c-.08.53.53,1.07,1.35,1.2l5.95.95c.82.13,1.56-.19,1.64-.72Z"/>
    <path class="cls-9" d="M1166.64,872.72l.04-.25c.07-.49-.49-.98-1.23-1.1l-4.43-.69c-.75-.12-1.41.19-1.48.68l-.04.25c-.07.49.49.98,1.23,1.1l4.43.69c.75.12,1.41-.19,1.48-.68Z"/>
    <path class="cls-9" d="M1163.48,877.17l.05-.32c.05-.32-.45-.68-1.12-.79l-3.16-.52c-.67-.11-1.26.06-1.31.39l-.05.32c-.05.32.45.68,1.12.79l3.16.52c.67.11,1.26-.06,1.31-.39Z"/>
    <path class="cls-9" d="M1161.37,881.41l.06-.39c.06-.39-.44-.8-1.11-.91l-3.16-.51c-.67-.11-1.27.12-1.32.52l-.06.39c-.06.39.44.8,1.11.91l3.16.51c.67.11,1.27-.12,1.32-.52Z"/>
    <path class="cls-35" d="M1006.52,890.06c-2.48-1.5-5.85-1.51-8.54-.71-3,.9-5.5,2.89-7.66,5.1-1.59,1.62-3.04,3.45-3.97,5.54-.35.79-.71,1.72-.73,2.6,0,.06.48,0,.48-.13.02-.9.39-1.83.75-2.64,1.18-2.63,3.18-4.86,5.31-6.77,2.86-2.56,6.3-4.43,10.25-3.97,1.24.15,2.57.47,3.65,1.13.11.07.5-.13.45-.16h0Z"/>
    <g>
      <path class="cls-24" d="M1016.63,878.48c.53-.84-1.29-7.55-.92-22.34l.4.03c3.66,1.73,7.74,2.03,11.83,2.32,3.05.22,6.1.38,9.16.34,2.6-.03,5.23-.56,7.82-.37l-.98,4.51-4.68,21.63-.25,4.61s-16.45,21.47-25.51,20.28c-9.06-1.19-28.06-8.76-28.06-8.76,0,0,28.27-17.63,31.18-22.26Z"/>
      <path class="cls-35" d="M1016.77,878.46c.25-.46.08-1.24.03-1.72-.12-1.37-.29-2.74-.42-4.12-.52-5.49-.66-11.01-.53-16.52l-.24.11c1.09.08,2.24.81,3.3,1.11,1.15.33,2.34.56,3.52.73,2.75.4,5.54.55,8.3.7,2.71.15,5.44.27,8.14.07,1.31-.1,2.61-.25,3.92-.3.3-.01,1.89-.11,1.97.04.05.09-.12.56-.14.64-.77,3.56-1.54,7.12-2.31,10.68-1.03,4.78-2.14,9.55-3.11,14.34-.31,1.55-.05,3.17-.33,4.72-.15.84-1.15,1.73-1.73,2.44-3.76,4.56-7.8,8.99-12.36,12.77-2.29,1.9-4.8,3.76-7.62,4.78-2.88,1.04-5.77.22-8.63-.5-6.74-1.69-13.33-4.06-19.82-6.52-.85-.32-1.71-.65-2.56-.98-.14-.05-.4-.1-.51-.2-.13-.12-.11.14-.06.02.08-.2.78-.49.96-.6.66-.41,1.31-.83,1.97-1.24,4.78-3.04,9.53-6.14,14.21-9.34,4.32-2.95,8.87-5.9,12.66-9.53.49-.47.99-.97,1.36-1.54.06-.1-.22-.06-.27,0-1.06,1.63-2.84,2.89-4.34,4.07-2.41,1.9-4.92,3.69-7.44,5.44-5.15,3.59-10.41,7.02-15.7,10.4-1.22.78-2.43,1.55-3.66,2.31-.03.02-.09.07-.03.09,6.76,2.69,13.66,5.17,20.67,7.12,3.15.88,6.91,2.26,10.19,1.42,3.39-.86,6.4-3.15,9.04-5.36,3.14-2.62,6.01-5.57,8.74-8.61,1.67-1.86,3.62-3.79,4.98-5.91.36-.56.26-1.18.3-1.86.06-1.07.04-2.18.21-3.24.44-2.62,1.13-5.22,1.69-7.81,1.31-6.03,2.61-12.07,3.92-18.1,0-.03-.03-.04-.05-.05-2.4-.14-4.77.25-7.16.35-2.79.11-5.59-.05-8.38-.23-2.44-.16-4.89-.3-7.3-.68-1.39-.22-2.76-.53-4.09-.98-.76-.26-1.49-.73-2.29-.79-.07,0-.23.02-.24.11-.13,5.43,0,10.87.5,16.28.13,1.39.3,2.77.43,4.16.05.52.26,1.39-.01,1.88-.03.06.24.04.29-.04Z"/>
    </g>
    <g>
      <path class="cls-24" d="M1043.96,862.98s-7.74.97-15.19.55c-7.45-.41-13.1-2.61-13.1-2.61"/>
      <path class="cls-35" d="M1043.97,862.89c-9.22,1.14-19.39,1.35-28.2-2.04-.09-.04-.36.1-.23.15,8.87,3.41,19.1,3.22,28.39,2.06.15-.02.24-.2.04-.18h0Z"/>
    </g>
    <path class="cls-35" d="M1009.18,886.97c-2.36-1.49-5.63-1.49-8.2-.66-2.86.92-5.19,2.92-7.22,5.08-1.54,1.64-2.94,3.49-3.82,5.58-.34.8-.69,1.72-.7,2.61,0,.07.48,0,.48-.13.02-.92.4-1.89.76-2.72,1.13-2.58,3.02-4.8,5.06-6.72,2.67-2.51,5.94-4.44,9.73-3.99,1.18.14,2.45.47,3.47,1.11.11.07.51-.12.45-.16h0Z"/>
    <path class="cls-35" d="M1013.36,889.36c-2.41-1.53-5.77-1.52-8.38-.62-2.85.98-5.19,3.05-7.2,5.24-1.47,1.61-2.8,3.41-3.64,5.43-.33.79-.67,1.69-.68,2.55,0,.23.48.14.48-.05.04-2.23,1.6-4.56,2.9-6.24,3.13-4.06,7.82-8.06,13.29-7.08.98.17,2.01.48,2.86,1.01.16.1.59-.12.37-.26h0Z"/>
    <g>
      <path class="cls-19" d="M1038.02,882.66s2.98-.22,3.82,3.07c.84,3.29,4.2,8.97,1.33,18.9,0,0,1.26,4.94.7,7.1-.56,2.16,1.52,3.2-13.68,2.68-15.2-.51-43.09.84-54.2-3.93-11.12-4.77-4.82-13.57-3.97-14.1.85-.53,16.49-4.24,16.49-4.24l23.53-13.87,5.17-6.24s5.82,5.27,4.5,8.56l-1.32,3.28s4.46,7.38,10.24,5.74,4.54-6.87,7.38-6.96Z"/>
      <path class="cls-16" d="M1037.9,882.76c3.15-.19,3.77,3.43,4.55,5.71,1.27,3.71,1.88,7.49,1.44,11.4-.16,1.38-.43,2.75-.79,4.1-.18.68-.18.76-.04,1.39.38,1.69.72,3.46.68,5.21-.02.69-.08,2.5-.65,3.08-.49.51-1.43.55-2.08.62-1.51.17-3.05.17-4.57.16-4.24-.01-8.48-.22-12.73-.25-8.77-.08-17.54.01-26.3-.41-4.17-.2-8.35-.51-12.48-1.15-3.4-.52-6.91-1.22-9.98-2.83-3.01-1.57-5.47-4.23-5.2-7.82.13-1.72.9-4.26,2.3-5.44.45-.38,1.15-.47,1.7-.63,1.25-.35,2.51-.67,3.78-.99,2.85-.73,5.72-1.42,8.58-2.11.95-.23,2.01-.34,2.87-.81,1.55-.85,3.06-1.81,4.59-2.71,4.94-2.91,9.88-5.83,14.82-8.74,1.22-.72,2.67-1.35,3.79-2.23.35-.27.61-.68.89-1.02.94-1.13,1.88-2.26,2.81-3.39.53-.64,1.05-1.27,1.58-1.91l-.51.14c1.72,1.57,3.43,3.51,4.29,5.69.72,1.81.08,3.12-.61,4.84-.12.3-.55.95-.51,1.29.05.46.83,1.2,1.11,1.53.84,1.04,1.8,2.01,2.89,2.8,2.42,1.75,5.26,2.16,7.99.87,1.37-.64,2.44-1.66,3.2-2.96.6-1.02,1.15-3.33,2.58-3.44.14,0,.58-.23.23-.21-2,.14-2.44,2.16-3.28,3.64-1.03,1.8-2.69,3.09-4.77,3.47-1.91.34-3.8-.39-5.34-1.48-1.15-.81-2.15-1.82-3.03-2.92-.24-.3-1.02-1.09-1.05-1.43-.03-.44.51-1.27.66-1.66.59-1.47,1.11-2.57.59-4.13-.77-2.34-2.66-4.45-4.46-6.09-.11-.1-.44.05-.51.14-1.54,1.85-3.08,3.71-4.61,5.56-.67.81-1.51,1.22-2.57,1.84-5.03,2.97-10.07,5.93-15.1,8.9-1.9,1.12-3.79,2.24-5.69,3.35-.18.11-.36.22-.54.32-.3.16.19-.05-.02.02-.72.24-1.51.36-2.24.54-3.01.72-6.02,1.46-9.02,2.22-1.27.33-2.55.65-3.81,1.01-.5.14-1.14.25-1.57.56-1.3.91-2.07,3.15-2.37,4.6-.63,3.03.6,5.79,3.01,7.66,2.83,2.19,6.5,3.13,9.95,3.79,3.99.76,8.05,1.13,12.09,1.38,9.26.58,18.54.49,27.81.55,4.39.03,8.78.22,13.18.26,2.3.02,5.1.27,7.31-.56.89-.33,1.14-.82,1.27-1.71.14-.95.3-1.84.24-2.82s-.19-1.9-.36-2.83c-.12-.65-.4-1.38-.43-2.04-.04-1,.52-2.25.7-3.26.21-1.2.35-2.42.39-3.64.07-2.17-.16-4.33-.67-6.43-.36-1.47-.87-2.89-1.36-4.32s-.76-3.05-2.19-3.92c-.65-.39-1.45-.6-2.21-.56-.14,0-.58.23-.23.21Z"/>
    </g>
    <path class="cls-5" d="M1043.13,908.28s-28.89.91-40.55-.09c-11.66-1-29.14-2.45-32.72-5.8,0,0-1.94,5.94,6.95,8.93,8.88,2.99,28.14,3.17,28.14,3.17,0,0,35.89,1.25,37.58.33,1.69-.92,2.61-4.28.6-6.53Z"/>
    <path class="cls-35" d="M1044.07,895.52c-2.48-1.5-5.85-1.51-8.54-.71-3,.9-5.5,2.89-7.66,5.1-1.59,1.62-3.04,3.45-3.97,5.54-.35.79-.71,1.72-.73,2.6,0,.06.48,0,.48-.13.02-.9.39-1.83.75-2.64,1.18-2.63,3.18-4.86,5.31-6.77,2.86-2.56,6.3-4.43,10.25-3.97,1.24.15,2.57.47,3.65,1.13.11.07.5-.13.45-.16h0Z"/>
    <path class="cls-35" d="M986.56,893.33c1.39,1.98,4.24,2.74,6.52,2.7,1.92-.04,3.84-.84,5.61-1.51,5.57-2.11,10.96-4.73,16.29-7.36,1.39-.68,2.77-1.37,4.15-2.08.04-.02.1-.06.1-.12-.17-2.45-2.05-4.57-4.12-5.68-1.26-.68-3.9-1.73-5.12-.29-.12.14.35.09.44-.01,1.3-1.53,4.7.62,5.72,1.47,1.34,1.11,2.28,2.68,2.57,4.4.06.35.15.06.02.19-.16.16-.52.27-.73.37-.98.5-1.96.99-2.95,1.47-6.16,3.05-12.45,6.32-19.04,8.36-2.99.92-7.04.74-9.02-2.08-.08-.11-.54.04-.45.18h0Z"/>
    <path class="cls-9" d="M1012.77,885.88l.05-.05c.38-.37.22-1.17-.35-1.78l-4.14-4.37c-.57-.61-1.36-.8-1.74-.42l-.05.05c-.38.37-.22,1.17.35,1.78l4.14,4.37c.57.61,1.36.8,1.74.42Z"/>
    <path class="cls-9" d="M1007.14,887.55l.18-.18c.35-.35.21-1.08-.31-1.62l-3.1-3.24c-.52-.55-1.24-.71-1.59-.36l-.18.18c-.35.35-.21,1.08.31,1.62l3.1,3.24c.52.55,1.24.71,1.59.36Z"/>
    <path class="cls-9" d="M1001.93,889.17l.24-.23c.24-.23.05-.82-.41-1.31l-2.19-2.34c-.46-.5-1.04-.71-1.28-.49l-.24.23c-.24.23-.05.82.41,1.31l2.19,2.34c.46.5,1.04.71,1.28.49Z"/>
    <path class="cls-9" d="M997.67,891.26l.28-.28c.29-.28.14-.91-.33-1.4l-2.2-2.33c-.47-.49-1.08-.67-1.37-.39l-.28.28c-.29.28-.14.91.33,1.4l2.2,2.33c.47.49,1.08.67,1.37.39Z"/>
    <path class="cls-22" d="M1031.24,675.63c-11.21,27.13-13.61,60.12-19.76,98.17-.35,2.19-1.49,95.17-.39,97.1.56.99-.95-.59,0,0,16.59,10.31,18.62,9.39,37.97,7.52.79-.08,10.68-72.46,11.33-72.92.62-.44,4.07-11.5,4.41-12.18,7.47-14.66,13.05-28.21,13.98-32.05,2.24,3.61,18.61,27.02,26.33,42.2.61,1.21,49.97,55.01,51.13,55.67.98.56,2.16.61,3.29.61,15.59-.01,8.62.04,22.23-7.67,3.71-2.11,7.61-4.44,9.57-8.28.49-.97.85-2.04.79-3.12-.09-1.62-39.45-64.6-40.35-65.95-12.14-18.03-7.13-48.15-11.01-69.64-1.04-5.74-3.16-18.33-5.86-23.48-3.22-6.15-9.13-19.92-18.5-24.44"/>
    <path class="cls-12" d="M1080.49,762.15c-1.25-4.81-3.5-9.35-5.45-13.91-2.02-4.75-4.05-9.49-6.07-14.24-3.15-7.38-6.39-17.67-15.46-19.4-.34-.06-1.58.48-1.19.56,9.21,1.75,12.42,12.7,15.6,20.15,1.96,4.59,3.92,9.18,5.88,13.78,1.88,4.4,4.05,8.8,5.25,13.45.08.31,1.53-.07,1.45-.39h0Z"/>
    <path class="cls-25" d="M1063.14,527.8c1.15-.07,1.72-.13,2.86-.25,4.7-.49,9.53-1.04,14.15-2,7.14-1.49,12.83-5.78,18.68-9.81-.06,4.48.4,9.98,2.11,13.07l-.13,1.31c-9.93,15.68-15.77,24.74-49.13,15.1l10.88-17,.59-.43Z"/>
    <path class="cls-25" d="M1045.41,487c-.04-2.06-.08-4.45-.11-7.34,0-.84,0-1.64.03-2.44.05-.41.06-.82.04-1.23.59-14.06,4.3-21.37,4.3-21.37,6.02-9.26,17.49-14.61,28.51-14.05,12.97.39,24.6,8.38,30.63,16.38,3,3.96,4.43,8.88,4.02,13.83-.34,4.23-2.95,8.12-4.13,12.7,4.53-.17,8.96,1.5,7.23,9.84-2.38,11.5-9.85,15-13.31,11.8-.81.14-2.51,5.23-2.72,7.63-.02.18-.08,12.85-.1,13.04-6.02,4.08-18.11,5.03-25.35,6.67-4.54,1.03-4.93.36-9.56.84-1.12.12-1.09-3.48-2.22-3.41l.02-5.04c-.33-.03-.61,0-2.07-.49-10.42-2.8-14.96-16.62-15.5-21.87-.46-4.45-.32-12.81.28-15.5Z"/>
    <path class="cls-27" d="M1062.7,524.86s12.34,1.11,23.53-6.11c0,0-1.38,3.7-9.32,6.43-7.94,2.72-14.23,1.69-14.23,1.69l.02-2Z"/>
    <ellipse class="cls-12" cx="1050.83" cy="483.45" rx="2.76" ry="2.77" transform="translate(-82.48 251.99) rotate(-13.16)"/>
    <path class="cls-12" d="M1047.6,481.11c1.32-.82,3.14-1.36,5.81-1.1,4.27.41,6.17,5.79,6.17,5.79,0,0-2.24-4.11-6.45-4.62-2.03-.25-5.38.92-6.93,1.7.04-.41.61-1.22,1.4-1.76Z"/>
    <path class="cls-15" d="M1112.48,494.68c.46-1.31.67-2.8.21-4.14-.15-.43-.27-.77-.77-.76-1.32.03-2.49,1.07-3.36,1.97-1.24,1.29-2.23,2.81-3.14,4.34-.15.24.07.34.3.36.33.03.68-.09.94-.28-.15.11.17-.1.19-.11.13-.06.13-.11.26.02.29.31.36.83.32,1.23-.1,1.2-1,1.8-2.12,1.9-.23.02-.79.18-.83.46-.05.31.43.27.61.26,1.75-.17,3.81-1.12,3.8-3.14,0-.72-.29-1.43-1.09-1.53s-1.65.27-2.28.73l1.24.08c.76-1.27,1.57-2.52,2.52-3.65.5-.59,1.15-1.26,1.72-1.65,0,0,.18-.11.25-.15.04-.02.09-.05.13-.07.08-.04-.15.05.02,0,.03-.01.07-.03.11-.04.09-.04-.21.06-.06.02.21-.06-.14.02-.02,0,.16-.02-.12,0-.07,0,.11,0-.1,0-.12,0-.25-.06-.29-.23-.2-.04.06.12.11.24.16.36.49,1.32.28,2.76-.17,4.05-.15.42,1.29.24,1.44-.21h0Z"/>
    <ellipse class="cls-12" cx="1079.52" cy="483.98" rx="2.76" ry="2.77" transform="translate(-81.85 258.54) rotate(-13.16)"/>
    <path class="cls-12" d="M1071.77,485.74s4.2-5.57,8.9-5.15c6.62.59,7.75,3.34,9.01,5.48,0,0-4.04-4.03-9.16-4.36-4.65-.3-8.75,4.03-8.75,4.03Z"/>
    <path class="cls-12" d="M1072.51,476.81c-.04-.09.28-.2.25-.29,4.61-2.7,8.37-3.91,9.83-4.06,1.11-.11,2.26.02,3.41.31,0,0,3.14.77,3.65,1.29.51.52-1.72.17-1.72.17-.46,0-.79-.08-1.24-.03-2.47.3-4.94.25-7.22,1.27-1.95.86-4.32,2.91-6.03,4.27-.37-1-.49-1.98-.93-2.94Z"/>
    <path class="cls-12" d="M1059,475.98c-3.97-2.51-7.25-3.59-8.54-3.68-.98-.07-2,.09-3.02.42,0,0-1.05.32-1.97.69,0,.29-.01.57-.02.86.13-.02.22-.04.22-.04.41-.02.7-.11,1.1-.07,2.18.22,4.36.08,6.33,1.01,1.69.79,3.71,2.73,5.17,4.02.36-1,.51-1.97.93-2.94.03-.09-.24-.19-.21-.28Z"/>
    <path class="cls-12" d="M1103.09,494c.02-.07.21-.34.24-.41.65-1.63,2.14-4.61,3.51-5.77.62-.53,1.37-1.12,2.15-1.46.79-.34,1.63-.73,2.49-.83,1.21-.28,2.41-.24,3.59.13.2.09.4.18.6.27,3.27-9.94,6.54-19.87-.55-32.26-2.05-3.57-7.52-7.57-9.2-8.85-10.15-7.68-19.34-8.39-30.69-7.48-13.15,1.05-23.97,7.75-27.23,20.95-.79,3.18-.5,1.57-.87,4.37,0,0,.83-6.3,7.23-9.96,6.4-3.66,7.43,1.92,16.39,2.28,10.37.38,13.89-5.19,22.13-.7,7.53,4.12,9.65,10.79,9.65,10.79,1.07,4.54,3.09,7.59,1.73,12.75-.33,1.23-.6,2.47-.85,3.72-.11,2.28-1.68,3.53-1.31,5.81.18,1.12-.95,5.61,0,6.3,1.02.74-.14.71.98.35Z"/>
    <g>
      <path class="cls-23" d="M1062.26,500.32c.91.53,2.33.47,3.29-.08.21-.12.9.03.6.2-1.27.72-3.31.71-4.48.03-.12-.07-.09-.16.06-.2.16-.05.4-.03.53.05"/>
      <path class="cls-23" d="M1066.57,500.19c.64-.27,1.34-.4,2.05-.43.1,0,.23.04.31.11.06.06.07.13-.01.17-.33.17-.74.23-1.12.21-.12,0-.28-.04-.34-.15-.06-.1.06-.15.15-.15.31.02.63-.03.91-.17.1.09.2.19.3.28-.63.02-1.26.14-1.83.39-.11.05-.27,0-.37-.06-.07-.05-.15-.15-.03-.2"/>
      <path class="cls-23" d="M1069.35,500.39c.82.01,1.8-.31,2.22-.91.64-.91.13-2.5-.87-3.14-.11-.07-.05-.15.07-.17.15-.03.32.04.43.11.87.56,1.4,1.88,1.24,2.75-.16.81-.96,1.35-1.95,1.55-.29.06-.61.09-.91.09-.12,0-.35-.05-.4-.15-.06-.1.06-.14.17-.14"/>
      <path class="cls-23" d="M1060.78,499.84c.05-.09-.03-.16-.1-.16-.22,0-.44-.07-.63-.23-.08.09-.15.17-.23.26.44.07.88.23,1.26.51.08.06.19.03.26-.03.05-.04.11-.14.04-.2"/>
      <path class="cls-23" d="M1061.39,499.99c-.43-.31-.92-.49-1.42-.56-.07-.01-.17.02-.22.09-.04.05-.06.12,0,.17"/>
      <path class="cls-23" d="M1059.07,499.89c-.53-.04-1.14-.42-1.38-1.05-.36-.95.05-2.04.74-2.61.07-.06.04-.15-.03-.17-.09-.04-.21.01-.29.08-.6.5-1.01,1.33-.95,2.2.05.82.54,1.41,1.17,1.68.19.08.39.13.59.15.08,0,.23-.03.27-.12.04-.1-.03-.14-.1-.15"/>
    </g>
    <path class="cls-28" d="M1060.48,530.82c-4.7.2-17.58,8.03-20.37,10.12-19.99,14.93-18.08,51.61-22.59,64.92,3.92,5.9,11.77,5.05,11.77,5.05,0,0,.81,11.5.47,23.22-.34,10.64-2.36,27.63-4.83,50.39,3.55,3.95,14.2,7.51,24.7,8.41,9.18.79,26.4.88,35.61,1.04,10.22.19,21.53-3.48,31.62-5.34,6.95-1.28,14.1-2.29,20.77-4.62-5.45-28.15-7.23-44-7.42-44.71-.45-1.71,3.98-34.28,1.49-47.47,0,0,5.7-1.5,10.24-4.43,0,0,3.72-39.28-21.68-52.09-10.4-5.24-11.9-6.79-20.88-9.48,0,0-11.56,18.96-29.86,17.08s-9.02-12.09-9.02-12.09Z"/>
    <path class="cls-37" d="M1028.14,568.92c.43,5.84.39,11.72.41,17.57,0,1.05-.07,1.89-.16,3.12-.21,3.11-.37,6.23-.46,9.35-.12,4.04-.19,8.11.15,12.15l.83-.57c.35-.03-.32,0-.45,0-.54,0-1.08-.04-1.61-.1-1.65-.2-3.28-.67-4.75-1.45-.91-.48-1.76-1.09-2.51-1.8-.48-.46-1.29-1.1-1.26-1.72.04-1.07.65-2.33.94-3.37l-1.4.37c2.43,2.39,6.11,3.6,9.42,3.9.42.04,1.69-.67.9-.74-3.16-.29-6.64-1.43-8.97-3.71-.3-.3-1.28-.03-1.4.37l-.48,1.71c-.15.53-.54,1.32-.52,1.87.03.73,1.13,1.61,1.66,2.09.78.7,1.66,1.28,2.59,1.76,2.29,1.17,5.06,1.75,7.63,1.55.26-.02.86-.21.83-.57-.57-6.9-.17-13.9.28-20.79.23-3.57.19-7.11.14-10.69-.05-3.57-.09-7.15-.35-10.7-.03-.42-1.49-.13-1.45.39h0Z"/>
    <g>
      <path class="cls-28" d="M1062.92,526.71s-2.31,12.33,8.59,16.3c0,0-8.8,3.8-11.91,10.79,0,0-7.4-5.22-8.32-21.57,0,0,4.57-3.56,8.64-5.07,4.07-1.51,3-.44,3-.44Z"/>
      <path class="cls-37" d="M1062.19,526.78c-.42,2.27-.26,4.77.26,7.01,1.08,4.61,4.21,8.03,8.63,9.69l.11-.86c-5,2.18-9.98,6.1-12.29,11.11l1.25-.34c-1.56-1.11-2.76-2.94-3.71-4.56-2.97-5.05-4.1-11.02-4.45-16.8l-.25.5c1.73-1.34,3.58-2.56,5.5-3.6,1.45-.79,2.97-1.47,4.57-1.91.07-.02.55-.09.62-.15.18-.17.12.07-.11-.22-.08-.1.11-.24,0-.13-.62.64.78.82,1.2.38.32-.33.35-.71-.06-.96-.9-.55-2.85.44-3.64.74-2.15.79-4.16,1.93-6.08,3.18-.92.6-2.2,1.23-2.94,2.06-.56.63-.16,1.91-.08,2.7.12,1.21.28,2.41.49,3.61.36,2.06.87,4.11,1.56,6.09.91,2.6,2.14,5.14,3.83,7.34.7.91,1.5,1.87,2.44,2.54.35.25,1.07.05,1.25-.34,2.18-4.72,6.83-8.41,11.54-10.46.4-.17.62-.67.11-.86-4.32-1.63-7.2-5.08-8.13-9.58-.42-2.03-.53-4.26-.15-6.31.13-.68-1.35-.48-1.46.13Z"/>
    </g>
    <g>
      <polyline class="cls-28" points="1069.25 543.76 1068.53 567.97 1074.48 567.87"/>
      <path class="cls-37" d="M1068.53,543.95c-.21,7.06-.42,14.11-.63,21.17-.03,1.02-.06,2.03-.09,3.05,0,.15.35.15.42.15,1.98-.03,3.96-.07,5.95-.1.45,0,1.57-.7.6-.68-1.98.03-3.96.07-5.95.1l.42.15c.21-7.06.42-14.11.63-21.17.03-1.02.06-2.03.09-3.05,0-.31-1.43-.09-1.45.39h0Z"/>
    </g>
    <ellipse class="cls-37" cx="1073.3" cy="553.25" rx="1.98" ry="1.55"/>
    <ellipse class="cls-37" cx="1073.3" cy="561.41" rx="1.98" ry="1.55"/>
    <path class="cls-25" d="M1114.04,683.46l24.9-51.71-13.55-39.4,30.69-12.91s17.76,54.69,8.97,66.91c-8.79,12.22-39.75,53.3-39.75,53.3l-11.25-16.18Z"/>
    <path class="cls-25" d="M1094.82,697.75c-.05,2.66,1.95,4.94,4.47,5.08.66.04,1.32-.08,1.92-.34,0,0,1.07,6.49,6.61,4.64,0,0,2.54,5.47,7.07,2.86,2.54,2.05,6.02,2.03,8.42-.04,4.21-3.6,8.33-18.69,8.33-18.69l-16.38-9.5s-10.77,4.01-11.9,5.21c-1.13,1.2-8.54,10.78-8.54,10.78Z"/>
    <path class="cls-28" d="M1097.87,529.88s31.32-1.15,42.42,14.75c15.96,22.87,24.26,51.95,24.26,51.95,0,0-25.27,13.69-38.98,12.09-12.91-1.5-26.84-72.84-26.84-72.84"/>
    <path class="cls-37" d="M1118.54,550.83c-5.2,3.26-6.61,10.56-6.1,16.17.43,4.72,1.82,9.39,3.18,13.91,1.56,5.22,3.33,10.39,5.17,15.52,1.6,4.45,3.24,8.89,4.99,13.28.09.22.43.19.62.17,3.2-.37,6.35-.68,9.5-1.36,6.36-1.38,12.7-3.24,18.64-5.91,3.73-1.67,7.38-3.69,10.46-6.41.07-.06.19-.18.15-.29-.49-1.52-.99-3.04-1.48-4.57-.13-.39-.95-.13-1.17.01-3.68,2.39-7.76,4.26-11.82,5.9-4.15,1.67-8.41,2.99-12.74,4.09-2.62.67-5.27,1.28-7.95,1.6-.62.07-1.25.12-1.87.12-.32,0-.27,0-.42-.02-.42-.07-1.7.6-.9.74.68.12,1.42.04,2.1-.02,2.38-.2,4.75-.7,7.07-1.24,7.94-1.85,15.68-4.5,22.93-8.25,1.52-.79,3.05-1.61,4.49-2.54h-1.17c.38,1.18.76,2.36,1.14,3.53.07.2.27.59.26.81-.01.38.08-.05-.1.24-.46.74-1.77,1.42-2.48,1.91-3.5,2.4-7.42,4.17-11.38,5.64-5.33,1.99-10.99,3.66-16.62,4.55-2.13.34-4.29.5-6.43.75l.62.17c-3.35-8.44-6.45-17-9.19-25.66-1.43-4.53-2.81-9.12-3.68-13.8-.84-4.52-.89-9.29,1.06-13.55.66-1.44,1.55-2.8,2.65-3.94.33-.34.67-.65,1.04-.94.14-.11.41-.29.32-.24.82-.52-.45-.64-.88-.37h0Z"/>
    <g>
      <path class="cls-28" d="M1114.36,529.9s-8.32-6.56-12.97-9.04c0,0-11.98,22.23-27.56,22.15,0,0,9.98,6.6,10.95,14.65,0,0,30.84-15.44,29.59-27.07"/>
      <path class="cls-37" d="M1114.92,529.48c-4.11-3.24-8.36-6.55-12.97-9.04-.42-.23-1.01-.1-1.25.34-1.36,2.51-3.01,4.89-4.73,7.16-3.44,4.54-7.52,8.91-12.51,11.77-2.94,1.69-6.16,2.76-9.57,2.77-.41,0-1.17.59-.62.96,4.86,3.23,9.97,8.43,10.78,14.42.06.44.79.37,1.05.24,3.69-1.85,7.28-3.96,10.77-6.17,5.82-3.69,11.91-7.85,16.16-13.37,1.8-2.33,3.35-5.12,3.06-8.16-.06-.67-1.52-.32-1.45.39.24,2.59-1.13,5.07-2.63,7.07-1.99,2.66-4.48,4.92-7.05,6.99-4.93,3.98-10.33,7.37-15.86,10.44-1.21.67-2.42,1.33-3.65,1.95l1.05.24c-.83-6.17-6.11-11.56-11.11-14.88l-.62.96c11.66-.04,20.77-10.67,26.56-19.68.61-.95,1.22-1.92,1.75-2.91l-1.25.34c4.61,2.49,8.86,5.8,12.97,9.04.51.4,1.77-.32,1.12-.84h0Z"/>
    </g>
    <path class="cls-31" d="M231.39,191.91l-14.75,1.26c-7.24,2.46-12.87,5.93-18.31,11.31-5.58,5.52-12.47,12.57-18.25,23.06-11.95,21.7-42.86,104.81-42.86,104.81l-1.6,4.13c-1.6,4.99-4.34,11.09-3.11,18.89,2.9,18.4,14.49,29.02,14.49,29.02,5.88,5.88,93.98,83.01,93.98,83.01l-46.13-115.39,11.15-28.68s38.74-70.05,41.97-88.03c3.22-17.98-16.58-43.38-16.58-43.38Z"/>
    <path d="M1064.44,505.92c3.09-.06,9.94,1.8,11.34,3.05,0,0-3.8,5.74-10.96,5.88-7.16.14-8.07-5.5-8.07-5.5,0,0,3.76-3.35,7.69-3.43Z"/>
    <path class="cls-24" d="M1072.84,507.62s-3.89-.24-6.99-.17c-3.1.06-6.98.45-6.98.45,0,0-.54-2.31,5.07-2.43,5.62-.11,8.89,2.15,8.89,2.15Z"/>
    <path class="cls-34" d="M1064.9,512.8c3.34-.57,6.96-4.01,10.88-3.83,0,0-1.22,6.83-9.64,7-8.42.17-9.39-6.62-9.39-6.62,3.9-.34,4.79,3.01,8.15,3.45Z"/>
    <path class="cls-34" d="M1060.74,504.22c1.76-.17,2.9.52,3.67.5.77-.02,1.88-.75,3.65-.65,1.66.1,8.75,4.26,7.98,4.83-.77.57-6.27-2.48-11.59-2.37s-7.17,3.3-7.96,2.76c-.79-.54,2.6-4.91,4.26-5.07Z"/>
    <path class="cls-15" d="M1068.22,479.18c-1.28-.24-2.06-1.59-2.24-2.78-.24-1.63.56-3.24,1.39-4.59.3-.5-1.12-.31-1.33.04-.91,1.49-1.8,3.24-1.49,5.05.25,1.46,1.28,2.69,2.76,2.97.32.06.77-.07,1.02-.27.23-.19.18-.36-.11-.41h0Z"/>
    <path class="cls-21" d="M386.16,378.08c-7.89-.88-16.02,4.16-18.49,11.76-.26.81,1.18.82,1.39.18,2.24-6.87,9.38-11.66,16.6-10.86.73.08,1.47-.97.49-1.08h0Z"/>
    <path class="cls-18" d="M248.33,439.98l7.4,5.45s11.14,26.8,16.9,32.88c4.35,4.22,9.34,7.8,14.84,10.62l3.18,6.49c1.46,2.99,4,5.31,7.19,6.59l2.46.98s1.62,9.31,4.75,8.8c3.13-.51,3.5-4.23,3.85-7.83.35-3.6-15.7-57.94-15.7-57.94,4.7,2.2,9.73,9.38,13.9,12.34,6.37,4.6,10.72,3.99,10.63-.34-.05-2.67-3.38-8.1-7.72-9.79s-14.2-19.47-21.38-23.19c-7.17-3.72-18.54-.91-18.54-.91-4.1-1.48-5.34-2.8-5.34-2.8-.83.86-16.41,18.66-16.41,18.66Z"/>
    <path class="cls-26" d="M300.55,502.17c-1.27-4.61-3.32-9.05-5.11-13.48-1.78-4.41-3.86-8.88-4.95-13.53-.08-.32-1.53.04-1.45.39,1.09,4.64,3.17,9.12,4.95,13.53s3.84,8.87,5.11,13.48c.09.33,1.54-.06,1.45-.39h0Z"/>
    <path class="cls-26" d="M287.62,487.61c-2.53-5.14-5.06-10.27-7.59-15.41l-1.08-2.18c-.21-.42-1.61.07-1.45.39,2.53,5.14,5.06,10.27,7.59,15.41l1.08,2.18c.21.42,1.61-.07,1.45-.39h0Z"/>
    <g>
      <path class="cls-36" d="M147.98,383.28c22.07,15.72,88.31,63.69,88.31,63.69,10.37,7.36,33.33-33.91,33.33-33.91l-72.61-70.87,8.27-18.2s21.58-49.83,28.83-70.87c0,0,9.82-25.27.95-39.13"/>
      <path class="cls-21" d="M147.42,383.7c10.08,7.18,20.12,14.43,30.16,21.66,11.96,8.62,23.9,17.25,35.84,25.89,7.16,5.18,14.31,10.35,21.47,15.53,2.03,1.47,4.09,1.99,6.56,1.16,4.71-1.59,8.49-5.84,11.64-9.49,6.5-7.56,12-16.11,16.92-24.78.1-.18.2-.35.3-.53.06-.1.06-.31-.03-.4-2.41-2.35-4.82-4.71-7.23-7.06-5.79-5.65-11.58-11.3-17.37-16.95-7.03-6.86-14.06-13.72-21.09-20.58-6.04-5.89-12.07-11.78-18.11-17.67-1.98-1.93-3.96-3.86-5.94-5.79-.61-.6-1.23-1.2-1.84-1.8-.19-.19-.66-.85-.93-.91-.03,0-.05-.07-.08-.08-.12-.03.04.34.02.36.19-.13.35-.77.44-.97.79-1.73,1.57-3.46,2.36-5.2,1.72-3.79,3.45-7.58,5.17-11.37,2.05-4.5,3.92-9.08,5.85-13.63,4.57-10.76,9.08-21.54,13.47-32.37,3.53-8.73,6.96-17.5,10.11-26.38,1.41-3.96,2.49-8.05,3.26-12.17,1.13-6.02,1.65-12.35.46-18.4-.56-2.86-1.57-5.62-3.12-8.09-.35-.56-1.73,0-1.33.64,3.37,5.36,3.93,11.99,3.53,18.16-.36,5.5-1.49,10.97-3.07,16.25-2.33,7.77-5.46,15.33-8.44,22.86-4.43,11.15-9.03,22.23-13.7,33.28-2.65,6.28-5.29,12.56-8.02,18.81s-5.36,11.8-8.04,17.7l-.33.73c-.05.11-.07.31.03.4,3.02,2.95,6.04,5.9,9.06,8.84,6.95,6.78,13.89,13.56,20.84,20.34,7.8,7.62,15.61,15.23,23.41,22.85,5.5,5.37,11,10.74,16.5,16.1l1.97,1.92c.14.14.61.78.82.8-.47-.05.27-.61-.16-.14-.24.27-.4.71-.59,1.02-.74,1.29-1.5,2.57-2.27,3.84-2.56,4.22-5.26,8.37-8.15,12.38-3.09,4.3-6.39,8.56-10.29,12.18-2.25,2.09-5.93,5.46-9.34,4.53-1.34-.36-2.58-1.56-3.68-2.35-6.99-5.06-13.98-10.12-20.98-15.18-10.48-7.58-20.96-15.15-31.44-22.71-9.49-6.84-18.98-13.69-28.49-20.5-1.67-1.2-3.34-2.39-5.02-3.58-.53-.37-1.79.36-1.12.84h0Z"/>
    </g>
    <path class="cls-21" d="M197.62,341.76c-8.27-1.48-17.19,1.67-22.6,8.1-.16.2.54.13.58.13.29-.05.65-.15.85-.39,4.86-5.78,12.54-8.62,19.98-7.29.31.06.74-.03,1.01-.19.1-.06.52-.3.18-.36h0Z"/>
  </g>
</svg>