<?xml version="1.0" encoding="UTF-8"?>
<svg xmlns="http://www.w3.org/2000/svg" xmlns:xlink="http://www.w3.org/1999/xlink" viewBox="0 0 1334 1000">
  <defs>
    <style>
      .cls-1 {
        fill: #825739;
      }

      .cls-2 {
        fill: #3b5b2b;
      }

      .cls-3 {
        fill: #0d2b35;
      }

      .cls-4 {
        fill: #010101;
      }

      .cls-5 {
        fill: #5a3223;
      }

      .cls-6 {
        fill: url(#linear-gradient-2);
      }

      .cls-7 {
        fill: #3a231a;
      }

      .cls-8 {
        fill: #ebebeb;
      }

      .cls-9 {
        fill: url(#linear-gradient);
      }

      .cls-10 {
        fill: #804840;
      }

      .cls-11 {
        fill: #09181e;
      }

      .cls-12 {
        fill: #0a2f44;
      }

      .cls-13 {
        fill: #8a5534;
      }

      .cls-14 {
        fill: #020202;
      }

      .cls-15 {
        fill: #fff;
      }

      .cls-16 {
        fill: #5a692e;
      }

      .cls-17 {
        fill: #b06c4f;
      }

      .cls-18 {
        fill: #e0e1e0;
      }

      .cls-19 {
        fill: #341e17;
      }

      .cls-20 {
        fill: #aacad3;
      }

      .cls-21 {
        fill: #9e6941;
      }

      .cls-22 {
        fill: #f1ecf6;
      }

      .cls-23 {
        fill: #21595c;
      }

      .cls-24 {
        fill: #334c23;
      }

      .cls-25 {
        fill: #1a1514;
      }

      .cls-26 {
        fill: #6c3925;
      }

      .cls-27 {
        fill: #22595d;
      }

      .cls-28 {
        fill: #123a4c;
      }

      .cls-29 {
        fill: #4f2e25;
      }
    </style>
    <linearGradient id="linear-gradient" x1="330.7" y1="1297.21" x2="415.82" y2="-723.91" gradientUnits="userSpaceOnUse">
      <stop offset=".29" stop-color="#bae5f5"/>
      <stop offset=".81" stop-color="#76c7dc"/>
    </linearGradient>
    <linearGradient id="linear-gradient-2" x1="211.49" y1="1343.46" x2="246.46" y2="513.02" gradientUnits="userSpaceOnUse">
      <stop offset=".01" stop-color="#75993e"/>
      <stop offset=".98" stop-color="#486b32"/>
    </linearGradient>
  </defs>
  <g id="Layer_1" data-name="Layer 1">
    <rect class="cls-9" x="-659.1" y="-423.79" width="2056.51" height="1615.83"/>
    <g>
      <circle class="cls-15" cx="243.37" cy="525.69" r="49.62"/>
      <path class="cls-4" d="M291.44,527.66c.78-.26,1.62-.2,2.38.14.44-1.23.85-2.47,1.21-3.73-.08-.9-.18-1.81-.31-2.72-.8-6.43-3.22-12.6-6.43-18.5-1.65-2.86-3.59-5.47-5.73-7.9-.17,3.2-.36,6.39-.39,9.6,0,.82-.28,1.46-.7,1.95-.14.84-.28,1.68-.42,2.52-.27.54-.54,1.07-1.34,1.07-5.63.27-10.99.27-16.62-.8-.54,0-1.07-.27-1.34-.54-3.48-3.22-6.97-6.7-10.45-9.92-.8-.8-1.61-1.61-2.14-2.41-1.34-1.88-1.34-4.02-1.07-6.17.27-2.68.8-5.63,1.07-8.31,0-.8.54-1.34,1.34-1.61.8,0,1.88-.27,2.68-.27.11,0,.23,0,.34,0,.11-.11.21-.23.35-.33.75-.6,1.49-1.22,2.22-1.85-5.72-1.62-11.44-2.31-17.15-1.84,1.52.83,3.07,1.58,4.68,2.15.67.24,1.17.63,1.51,1.1.27.16.54.33.81.52.54.27.8.8.8,1.34.8,4.29,0,8.58-1.07,12.6-.27.54-1.07,1.07-1.61,1.34-4.56,2.68-8.85,5.09-13.4,7.77-.54,0-1.07.27-1.34,0-3.48-1.34-7.24-2.68-10.99-4.02-2.41-.86-3.6-2.17-3.93-3.91-.17-.4-.27-.86-.26-1.39.08-3.39.71-6.67,1.39-9.96-1,.62-1.88,1.24-2.29,1.85-8.31,5.63-14.21,12.87-17.69,21.98-.41,1.14-.8,2.3-1.15,3.47.32,0,.64-.01.97-.01,1,0,1.76.38,2.28.95.43-.02.89.03,1.38.15,1.07.27,2.14,1.07,2.68,2.14.27.27.27.54.27.8-.27,6.97.8,13.94,2.41,20.64.54,1.34,0,2.95-.27,4.29-.54,2.14-1.07,4.56-1.61,6.97-.27.54-.27,1.07-.27,1.61,0,.8-.27,1.61-1.07,1.88-.02,0-.04,0-.06.01.05.13.1.26.13.41.96,4.44,5.11,8.58,8.55,11.35,2.67,2.15,5.75,3.66,8.92,4.97.36-.14.73-.27,1.12-.37.29-.38.73-.65,1.17-1.09,1.07-1.34,1.88-2.41,3.22-3.48,1.07-.8,2.41-1.34,3.48-1.88h1.07c4.29.8,8.31,1.61,12.33,2.41,1.07,0,2.14.27,3.22.27,1.61,0,2.95.54,4.29,1.34,1.88,1.07,3.48,2.41,4.56,4.29.54.8.8,1.34,1.07,2.14.2.4.28.79.26,1.18,1.48.07,2.96.17,4.44.28,4.35-3.24,8.44-5.92,13.91-7.39.55-1.43,2.03-2.24,2.76-3.55-.12-.15-.2-.29-.2-.44.54-4.29,1.07-8.85,2.95-12.87,0-.27.27-.27.27-.54,3.22-6.17,6.43-12.06,9.65-17.96.54-.54,1.07-1.07,1.88-1.61.46-.31.91-.34,1.27-.12ZM219.4,538.77c-3.48-.54-6.43-1.61-9.38-2.95-1.34-.8-2.95-1.61-4.02-2.95,0,0-.27-.27-.27-.54-.54-4.83-1.61-9.65-1.61-14.48,0-4.56,1.07-8.58,4.02-12.33,1.34-1.61,2.68-2.95,4.02-4.56.27-.27.54-.54.8-.54,1.34-.8,2.41-.8,3.75-.54,2.68,1.07,5.36,2.14,7.77,3.22,2.14,1.07,4.02,2.14,5.36,4.29.27.54.54,1.34.54,1.88.8,4.56,1.34,9.38,2.14,13.94,0,.27,0,.8-.27,1.07-2.41,3.49-4.83,7.24-7.24,10.72-.27.27-.54.54-.8,1.07-1.07,2.14-2.68,2.95-4.83,2.68ZM256.66,551.37c-1.61,2.95-4.02,5.36-6.7,7.77-1.88,1.61-4.29,2.14-6.43,1.88-3.75-.54-7.51-1.07-11.26-1.88-2.95-.8-4.83-2.95-6.43-5.9-.8-2.95-2.68-6.17-2.68-9.38,0-2.41.8-4.29,2.14-6.17,1.61-2.14,2.95-4.02,4.56-6.17,1.34-1.88,2.68-3.75,4.83-4.83.54-.27.8-.54,1.34-.54,4.83-.54,9.11.8,13.67,1.88,1.88.54,2.95,1.34,3.48,3.22,1.34,4.83,2.95,9.65,4.56,14.48.54,2.14,0,4.02-1.07,5.63ZM285.61,528.58c-.54,2.14-1.34,4.02-2.14,5.9-1.61,3.22-3.48,6.7-5.36,9.92-1.07,1.88-2.41,2.68-4.56,2.95-4.29.54-8.85.27-13.14-.54-.27,0-.54-.27-.54-.54-1.61-4.83-3.22-9.92-4.82-14.74-.54-1.07-.8-1.88-1.07-2.95-.27-.8-.27-1.88.27-2.68,1.61-2.95,2.95-6.17,4.56-9.11.8-1.61,2.14-2.68,3.22-4.02.27-.27.8-.54,1.34-.54,5.9-.27,11.53-.27,17.16,1.07.54,0,.8.27,1.07.54,1.34,4.02,2.95,7.77,4.02,11.8.27.8.27,1.88,0,2.95Z"/>
      <path class="cls-4" d="M223.15,563.06s-3.36,4.07-4.28,5.8c0,0-10.77-6.08-14.75-12.43l-3.74-5.94,3.74-.23,14.62,11.84,4.41.97Z"/>
      <polygon class="cls-4" points="247.61 493.37 263.12 510.2 248.65 510.2 247.61 493.37"/>
      <path class="cls-4" d="M253.92,569.84l1.12,4.1s5.27-1.01,12.29-4.78c7.02-3.76,8.71-6,8.71-6l-.95-2.45-21.17,9.12Z"/>
      <path class="cls-4" d="M247.61,482.13l-10.43-5.68s3.65-1.58,11.71-.04c8.06,1.54,11.95,2.83,11.95,2.83l-13.23,2.9Z"/>
    </g>
    <rect class="cls-8" x="-740.64" y="437.51" width="2205.87" height="15.39"/>
    <rect class="cls-8" x="-740.64" y="520.14" width="2205.87" height="15.39"/>
    <rect class="cls-8" x="254.82" y="341.91" width="20.42" height="303.06"/>
    <rect class="cls-8" x="791.57" y="345.63" width="20.42" height="303.06"/>
    <rect class="cls-8" x="-740.64" y="359.12" width="2205.87" height="15.39"/>
    <path class="cls-24" d="M869.69,695.49c13.54-14.66,27.89-31.22,28.29-51.17.4-19.95-22.57-39.87-39.19-28.84,4.82-11.99.3-27.03-10.33-34.37-10.63-7.34-26.3-6.24-35.8,2.52-5.39-28.94-49.6-40.35-68.32-17.63,1.76-11.3-14.21-18.89-24.14-13.23-9.93,5.66-13.34,18.57-12.54,29.98-6.5-13.35-21.75-21.87-36.53-20.42-14.77,1.46-28.07,12.79-31.84,27.15-1.42-12.63-3.5-26.55-13.24-34.7-9.75-8.15-29.13-3.54-28.87,9.17,2.92-17.95-7.07-37.24-23.42-45.21-16.35-7.96-37.7-3.94-50.03,9.43-2.39-17.59-8.97-35.93-23.57-46.04-14.6-10.11-38.5-7.46-45.93,8.66-8.4-13.75-21.88-26.34-38-26.33-16.12,0-31.09,19.12-22.35,32.67-11.91-19.89-49.06-12.05-51.93,10.95-8.57-13.29-26.43-19.76-41.53-15.04-15.09,4.72-26.09,20.21-25.56,36.02-15.01-9.24-35.85-7.75-49.4,3.52-13.55,11.28-18.79,31.51-12.42,47.94-45.11,3.61-78.06,57.79-60.51,99.5"/>
    <path class="cls-16" d="M469.31,730.82c-10.71-11.59-22.05-24.69-22.37-40.46s17.84-31.53,30.99-22.81c-3.82-9.48-.24-21.37,8.17-27.18,8.41-5.81,20.8-4.93,28.31,1.99,4.26-22.88,39.22-31.91,54.02-13.94-1.39-8.93,11.23-14.93,19.09-10.46,7.85,4.48,10.55,14.69,9.92,23.7,5.14-10.55,17.2-17.29,28.88-16.14,11.68,1.15,22.2,10.12,25.18,21.47,1.12-9.98,2.77-20.99,10.47-27.44,7.71-6.45,23.03-2.8,22.83,7.25-2.31-14.19,5.59-29.45,18.52-35.75,12.93-6.3,29.81-3.11,39.56,7.46,1.89-13.91,7.09-28.41,18.64-36.4,11.54-7.99,30.44-5.9,36.32,6.85,6.65-10.87,17.3-20.83,30.05-20.82,12.74,0,24.58,15.12,17.68,25.83,9.42-15.72,38.8-9.53,41.06,8.66,6.78-10.51,20.9-15.62,32.84-11.89,11.93,3.73,20.63,15.98,20.21,28.48,11.87-7.31,28.35-6.13,39.06,2.79,10.71,8.92,14.86,24.91,9.82,37.91,35.67,2.85,61.72,45.69,47.85,78.68"/>
    <path class="cls-23" d="M646.55,465.74c-84.97-224.17,13.19-125.25,13.19-125.25,29.27,13.58,40.33,23.27,47.08,46.99,5.71,20.06,48,143.72,51.71,162.41l73.26-14.37c-3.03,9.99,13.54,35.58,12.24,46.01-1.78,14.3-124.96,17.86-122.25,31.76-51.48-1.71-75.23-147.56-75.23-147.56Z"/>
    <path class="cls-23" d="M623.6,469.86c22.95-4.12,53.72,112.83,55.04,112.81,12.49-.17,50.6,7.99,80.8-32.81-17.81-42.04-37.07-178.2-51.4-195.97-23.74-29.42-98.38-78.83-103.76-78.53"/>
    <path class="cls-17" d="M609.03,195.59s-13.02,46.89-32.79,68.35c-3.17,3.44-28.41,4.62-28.41,4.62l2.92,9.08c2.52,7.84,31.33,128.21,37.03,134.15,28.37,29.57,54.6-56.6,79.89-70.9l-2.41-18.21s-3.59-7.76-2.48-13.17c1.11-5.41,23.93-41.42,23.93-41.42"/>
    <path class="cls-2" d="M1662.75-288.53c1.12,22.14,6.65,43.98,16.37,64.67-32.56-40.18-96.15-62.03-154.19-53.08l59.84-26.53c-20.68-8.87-45.67-7.83-65.13,2.72,12.68-18.64,29.41-35.27,49.36-49.06-30.16-4.31-62.77,10.81-73.6,34.13,8.37-17.96,10.89-37.38,7.31-56.37-8.58,13.07-17.17,26.16-25.76,39.26,1.26-45.64-45.37-88.81-101.21-93.65,5.47-7.48,17.94-8.36,28.39-10.17,10.82-1.88,23.39-8.9,19.29-17.71-2.03-4.36-7.57-6.96-13.29-6.9-18.02.19-26.84,16.6-43.22,19.05,14.48-15.79,22.77-34.77,23.76-54.46.22-4.5-.54-9.93-7.04-11.09-4.53-.81-9.18,1.21-11.41,4.52-11.39,16.92-19.62,35.11-24.43,53.98,5.52-21.94-13.11-46.05-39.77-51.49,2.74,18.28,8.65,36.15,17.56,53.08-26.26-32.81-82.99-46.77-127.29-31.35,22.59,9.25,43.04,21.62,60.45,36.56-30.45-5.95-61.59-7.7-92.23-5.49-16.74-17.82-51.43-45.43-97.45-32.55l52.92,38.65c-2.21.45-4.4.97-6.6,1.46-31.5-14.53-71.58-25.45-112.17-16.14l54.65,34.67c-.92.41-1.83.84-2.75,1.27-2.69,1.19-5.39,2.36-8.04,3.62l7.11-3.16c-34.2,16.52-65.41,47.85-70.67,83.3-6.68-17.86-32.59-29.2-54.58-23.95l45.29,42.94c-3.34-1.76-6.84-3.27-10.45-4.57-18.9-15.93-48.67-31.94-85.84-21.54l52.92,38.65c-2.21.45-4.4.97-6.6,1.46-31.5-14.53-71.58-25.45-112.17-16.14l54.65,34.67c-.92.41-1.83.84-2.75,1.27-2.69,1.19-5.39,2.36-8.04,3.62l7.11-3.16c-34.2,16.52-65.41,47.85-70.67,83.3-6.68-17.86-32.59-29.2-54.58-23.95l45.29,42.94c-14.12-7.44-30.96-10.81-47.8-9.49-3.3.26-6.38,1.86-7.7,4.33-2.34,4.36,2.18,7.84,6.37,10.25,10.01,5.81,20.73,10.74,31.96,14.78-26.16-6.78-58,2.57-71.38,22.43l62.95.41c-27.97,5.54-50.94,21.73-61.66,43.48l65.78-17.07c-31.7,16.63-52.76,43.82-57.54,74.27l35.22-20.6,13.23,27.52c-35.25-3.75-72.31,12.98-87.09,39.3,26.48-9.35,54.94-14.44,83.8-14.99-32.87,6.88-59.36,26.65-70.64,52.7l63.66-11.06c-32.46,16.96-51.04,46.93-48.53,78.27,16.07-15.86,35.92-28.9,58.37-38.33-17.55,20.8-26.8,45.51-26.46,70.75l55.89-53.45c.1,23.51.21,47.01.33,70.52l42.2-49.92c-8.18,17.48-5.54,37.1,7.11,52.73l31.46-19.19c37.07,7.09,22.44-2.68,54.92,13.49-20.4,15.98-5.91,42.64,2.85,51.46,19.94-12.06,39.89-24.09,59.86-36.1-17.38,15.73-24.02,37.47-17.71,58,12.05-16.44,28.43-30.51,47.95-41.19-13.51,18.79-16.85,41.29-9.23,62.16,17.31-16.89,30.1-36.53,37.55-57.67-1.07,24.97,10.52,49.2,32.06,67,1.25-17.18,2.5-34.34,3.74-51.49,9.08,21.47,18.17,42.98,27.27,64.53,15.71-22.27,17-49.41,3.44-72.6,23.08-6.88,48.58-5.98,70.84,2.49,27.62,19.97,70.1,17.24,93.54-6l7.21-7.16c-8.22,16.68-9.11,35.16-2.53,52.31,6.57-20.11,18.28-38.87,34.36-55.05-8.33,21.56-9.55,44.54-3.54,66.61,21.68-17.5,33.25-41.65,31.85-66.48,8.2,12.36,16.38,24.78,24.54,37.28,8.25-16.9,8.37-35.72.33-52.68,13.83,6.76,25.34,16.25,33.45,27.6,6.9-15.82,2.63-33.45-11.13-45.95l45.5-12.88,17.51,55.6s18.42-4,23.33-38.98c1.76-12.52-.76-21.03-4.68-26.85l20.4-5.77c.82-15.1,2.18-30.15,4.68-45.08,4.21-25.13,11.88-49.61,23.95-72.1,12.19-22.71,27.02-43.8,44.41-62.82,11.49-12.56,23.92-24.23,37.02-35.1,2.1-6.72,4.42-13.38,7.02-19.95,15.65-39.66,39.63-75.57,68.64-106.69,8.11-8.7,16.6-17.03,25.41-25.01.72-20.02-12.64-40.55-34.7-49.83Z"/>
    <path class="cls-21" d="M1192.38,216.77s12.56,30.07,12.45,51.88c-.11,21.8,5.22,45.86,3.48,70.67-1.74,24.81-23.91,321.79-23.91,321.79l99.65,2.69s-6.66-267.04-9.14-319.1c-2.18-45.79-82.54-127.91-82.54-127.91Z"/>
    <path class="cls-21" d="M1130.57,138.82l-78.67-79.68,6.98-15.6,61.88,60.77,65.88,56.05-69.4-228.89,10.16-8.61,57.28,132.69,42.28-60.05h6.98s-49.26,70.46-49.26,70.46l24.58,116.1,41.86,38.13c.74-3.18,1.49-5.98,2.14-8.23l46.51-108.36-35.07-116.86,7.88-4.01s33.02,86.44,37.98,91.3c4.95,4.87,40.33-88.07,40.33-88.07l57.49-121.86,19,10.37-54.84,113.89,69.58-53.2,6.35,6.57L1383.36-.5s-52.16,81.67-50.16,89.66c2,7.99,153.49-39.24,153.49-39.24l4.98,9.22s-138.7,45.24-149.51,59.67c-10.81,14.43-32.56,60.84-37.37,76.06-3.84,11.85-12.21,28.55-11.63,35.36,0,0-19.42,42.08-20.94,96.11,9.22,24.38-11.4,55.67-8.25,81.04l-5.46,57.08-27.07-44.55,4.42-22.19c2.56-60.22-23.81-128.73-25.23-147.66l-77.09-100.05-108.19-39.22v-7.21s105.23,35.23,105.23,35.23Z"/>
    <polygon class="cls-21" points="1361.38 -12.79 1288.29 -155.55 1272.3 -145.27 1347.68 12.34 1361.38 -12.79"/>
    <polygon class="cls-21" points="1155.46 -12.79 1082.37 -155.55 1066.38 -145.27 1141.76 12.34 1155.46 -12.79"/>
    <polygon class="cls-21" points="1076.4 57.85 956.28 5.37 927.11 1.28 1079.75 86.27 1076.4 57.85"/>
    <polygon class="cls-21" points="1059.51 68.31 1028.37 -47.17 1036.5 -89.67 1086.54 77.71 1059.51 68.31"/>
    <rect class="cls-8" x="435.54" y="343.08" width="20.42" height="303.06"/>
    <rect class="cls-8" x="81.03" y="344.89" width="20.42" height="303.06"/>
    <rect class="cls-8" x="1147.59" y="348.57" width="20.42" height="303.06"/>
    <rect class="cls-8" x="966.87" y="342.7" width="20.42" height="303.06" transform="translate(-56.85 133.76) rotate(-7.61)"/>
    <rect class="cls-8" x="1320.32" y="342.7" width="20.42" height="303.06"/>
    <path class="cls-2" d="M1395.79,578.16c-9.49,4.18-17.14,12.66-19.78,22.72-1.32-11.8-3.27-24.8-12.37-32.42-8.3-6.94-24.08-3.97-26.62,5.61,1.26-15.89-7.86-32.27-22.24-39.28-15.28-7.44-35.23-3.68-46.74,8.81-2.24-16.44-8.38-33.57-22.02-43.01-13.64-9.44-35.97-6.97-42.91,8.09-7.85-12.85-20.45-24.61-35.5-24.6-15.06,0-29.05,17.87-20.89,30.52-11.13-18.58-45.84-11.26-48.52,10.23-8.01-12.42-24.7-18.46-38.8-14.05-14.1,4.41-24.37,18.89-23.88,33.65-14.02-8.63-33.5-7.24-46.15,3.29-12.66,10.54-17.55,29.44-11.6,44.79-42.15,3.37-72.93,53.99-56.53,92.96l474.56,10.22v-117.55Z"/>
    <path class="cls-2" d="M-423.33,695.68c-13.56-14.68-27.93-31.27-28.34-51.25-.41-19.98,22.6-39.94,39.26-28.89-4.83-12.01-.3-27.08,10.35-34.43,10.65-7.35,26.35-6.25,35.86,2.53,5.4-28.99,49.68-40.42,68.43-17.66-1.76-11.31,14.23-18.92,24.18-13.25,9.95,5.67,13.36,18.6,12.56,30.03,6.51-13.37,21.79-21.91,36.59-20.45,14.8,1.46,28.11,12.81,31.89,27.2,1.42-12.65,3.5-26.59,13.26-34.76,9.76-8.17,29.18-3.54,28.92,9.18-2.93-17.98,7.09-37.3,23.46-45.28s37.76-3.94,50.11,9.45c2.4-17.62,8.98-35.99,23.61-46.11,14.62-10.12,38.56-7.48,46,8.68,8.42-13.77,21.92-26.38,38.06-26.37,16.14,0,31.14,19.16,22.39,32.72,11.93-19.92,49.14-12.07,52.01,10.97,8.58-13.31,26.48-19.79,41.59-15.06,15.12,4.73,26.13,20.25,25.6,36.08,15.03-9.26,35.91-7.77,49.48,3.53,13.57,11.3,18.82,31.56,12.44,48.02,45.18,3.61,78.19,57.88,60.61,99.66"/>
    <path class="cls-6" d="M1379.3,1269.53H-924.72v-602.47l714.13-8.26c91.7-4.53,796.52-2.7,888.24,1.69l701.65,6.57v602.47Z"/>
    <path class="cls-2" d="M869.64,137.89s-10.23,15.08-7.54,38.24l2.69,23.16s47.39-18.85,49.55-52.78c2.15-33.93-44.7-8.62-44.7-8.62Z"/>
    <path class="cls-2" d="M1124.56,190.2s-5.06,15.18,13.28,32.89l18.34,17.71s10.12-38.58-3.79-50.59c-13.91-12.02-27.83,0-27.83,0Z"/>
    <path class="cls-13" d="M602.19,205.77c-.04.09-.07.17-.11.26.02-.12.05-.22.11-.26Z"/>
    <path class="cls-23" d="M580.1,258.26c-30.99,3.87-55.28,3.24-72.68,8.09-48.77,13.59-53.62,31.51-62.97,46.36-30.92,49.1-42.81,157.06-82.14,190.19-40.3,33.95-70.58,80.49-55.76,89.09,1.1.64,10.9,20.08,12.1,19.72l36.03,21.71,242.76,8.25,32.94-61.48c2.34,1.61,64.98-116.45,64.98-116.45l-3.51-117.55c-4.89-4.01-21.91-25.97-26.84-29.9,0,0,.4,36.51-25.13,32.62-19.9-3.03-60.47-45.82-59.79-90.65Z"/>
    <path class="cls-18" d="M691.53,988.77c.5-.74-4.09-3.87-10.58-3.5-6.5.34-10.71,3.93-10.15,4.64.5.84,4.8-.99,10.34-1.24,5.51-.34,10,1.02,10.4.12v-.03Z"/>
    <path class="cls-11" d="M646.46,555.1c3.2-4.92,5.99-10.15,8.9-15.25,4.84-8.49,9.63-17.01,14.34-25.58,3.6-6.54,7.3-13.07,10.51-19.81,1.17-2.45,2.04-5.01,3.23-7.46,2.51-5.15,5.31-10.15,8.09-15.15,2.48-4.45,4.68-9.35,8.01-13.23,3.27-3.8,7.34-7.01,11.67-9.52.24-.14.49-.28.73-.41.85-.45-.47-.45-.85-.25-3.15,1.67-6.1,3.84-8.78,6.17-2.37,2.06-4.55,4.37-6.3,6.98-1.27,1.88-2.27,3.96-3.38,5.95-2.77,4.98-5.57,9.94-8.22,14.98-1.83,3.48-3.4,6.99-4.92,10.6-2.56,6.13-6.06,11.96-9.24,17.78-4.75,8.7-9.6,17.35-14.49,25.97-3.36,5.92-6.67,11.88-10.23,17.68-.17.27-.34.54-.51.81-.14.21,1.19.14,1.43-.24h0Z"/>
    <g>
      <path class="cls-3" d="M525.51,709.56s-206.38-72.2-185.45-21.17c25.03,61.04,13.32,32.48,19.62,56.15,6.3,23.67,51.43,168.71,51.43,168.71l-143.08-32.51-31.1-2.38c-10.99,18.5-16.4,60.28-25.1,90.45l16.53,5.52s248.8,85.06,284.63,71.63c35.84-13.43,47.7-32.75,52.29-53.63,4.62-20.91-28.13-286.76-28.13-286.76l-11.64,3.97Z"/>
      <path class="cls-3" d="M310.39,744.03c13.68,20.63,48.82,47.56,89.33,52.2,9.66,1.1,86.45-8.09,105.73-9.11,61.58-3.31,120.66-10.42,120.66-10.42,0,0-36.71,169.46-37.98,190.31l24.49,30.33c23.94,2.9,48.22,2.71,72.1-.58l12.24-3.21s76.35-265.33,83.58-293.55c7.1-27.67-2.56-84.39-52.77-93.92-30.36-4.62-209.98,13.06-209.98,13.06,0,0-172.22,26.47-211.25-27.16-4.21-5.78-7.93,9.17-12.47,21.35,0,0-24.94,68.51,16.31,130.7Z"/>
    </g>
    <path d="M537.14,784.4c-9.69.05-19.38,1.08-28.99,2.24-11.56,1.4-23.08,3.09-34.62,4.7-12.07,1.68-24.16,3.3-36.29,4.46-11.13,1.06-22.34,1.8-33.52,1.43-8.96-.3-18.18-1.2-26.62-4.39-.89-.34-1.78-.71-2.65-1.1-.8-.36-2.33.79-1.17,1.31,7.98,3.63,16.96,4.86,25.64,5.4,11,.68,22.05.14,33.02-.77,12.1-1.01,24.14-2.55,36.17-4.19s23.59-3.37,35.41-4.87c10.03-1.28,20.12-2.45,30.24-2.74,1.06-.03,2.13-.05,3.19-.05,1.13,0,1.57-1.42.19-1.41h0Z"/>
    <path d="M410.1,913.36c.11,12.41,9.86,22.21,17.81,30.66.55.59,2.47-.19,1.86-.84-7.74-8.22-17.54-17.91-17.64-30.02,0-.95-2.03-.58-2.03.2h0Z"/>
    <path d="M627.33,776.17c6.17-11.27,13.34-22.49,22.7-31.4,2.52-2.4,5.25-4.59,8.24-6.38.4-.24.46-.73.11-1.02-.4-.34-1.07-.1-1.44.13-5.5,3.29-10.15,7.9-14.28,12.75-4.43,5.19-8.35,10.82-11.95,16.61-1.85,2.98-3.62,6.01-5.3,9.09-.54.98,1.5.98,1.92.22h0Z"/>
    <path class="cls-11" d="M617.94,352.86c-7.45-4.43-13.74-10.73-19.31-17.3-6.43-7.57-12.05-15.86-16.84-24.55-3.5-6.36-5.86-13.28-7.79-20.26-1.85-6.7-3.31-13.51-4.52-20.35-.63-3.58-1.23-7.17-1.67-10.78l-.84.54c4.34-.52,8.68-1.04,13.02-1.55l-.61-.15c.06,6.47,1.13,13.03,2.46,19.33,2.93,13.92,8.15,27.48,16.17,39.27,5.49,8.08,12.31,15.19,20.25,20.89.38.27,1.68-.3,1.35-.54-13.57-9.74-23.52-23.51-29.86-38.87-4.44-10.75-7.27-22.23-8.47-33.8-.23-2.21-.44-4.45-.46-6.68,0-.21-.51-.16-.61-.15-4.34.52-8.68,1.04-13.02,1.55-.22.03-.88.2-.84.54,1.17,9.59,3.06,19.17,5.49,28.52,1.84,7.08,4.03,14.21,7.36,20.75,4.32,8.49,9.76,16.55,15.71,23.97,6.14,7.66,13.17,15.1,21.67,20.16.4.24,1.67-.35,1.35-.54h0Z"/>
    <path class="cls-11" d="M655.32,345.39c3.74-4.72,6.76-10.01,8.28-15.87,1.41-5.47,1.38-11.08.54-16.63l-1.4.46c2.96,2.64,5.92,5.27,8.88,7.91.46.41,1.11.82,1.48,1.32.16.22.02-.07.11.22.2.66.16,1.49.2,2.17.47,8.13-1.6,16.59-6.42,23.22-4.43,6.08-10.88,10.11-17.93,12.52-.96.33-.07.7.54.49,6.37-2.18,12.36-5.62,16.85-10.7,3.42-3.87,5.83-8.55,7.16-13.53.96-3.61,1.39-7.38,1.3-11.11-.03-1.31.23-3.18-.81-4.11-3.33-2.97-6.67-5.94-10-8.91-.27-.24-1.47,0-1.4.46.83,5.5.86,11.04-.54,16.45-1.5,5.8-4.47,11.02-8.17,15.68-.35.45,1.07.3,1.33-.03h0Z"/>
    <path class="cls-23" d="M591.79,546.05c-5.24-20.95-35.16-139.54-31.56-140.58l3.39-14.57-105.78,34.9s31.17,132.93,41.22,155.78c11,24.99,28.09,38.94,43.27,41.76,3.78.7,18.06,2.93,21.75,3.27,4.49-31.78,18.06-50.05,27.7-80.55Z"/>
    <path class="cls-10" d="M589.13,542.86c-3.4-.35-6.34,3.04-8.11,5.49-3.1,4.28-4.99,9.52-5.46,14.77-.06.65,1.41.4,1.46-.15.43-4.76,2.02-9.43,4.62-13.44,1.02-1.57,2.2-3.07,3.64-4.28.9-.76,2.08-1.6,3.32-1.48.62.06,1.52-.81.54-.91h0Z"/>
    <path class="cls-11" d="M759.69,549.34c-3.1-.08-5.99,1.25-8.26,3.31-2.42,2.19-4.08,5.05-5.7,7.85-.18.32.16.56.44.6.36.05.76-.13.94-.44,2.58-4.46,6.13-10.43,12.07-10.27.34,0,.8-.09.94-.44.13-.31-.12-.59-.44-.6h0Z"/>
    <path class="cls-11" d="M582.24,540.13c-12.87-1.25-25.68,8.03-28.31,20.72-.15.74,1.33.57,1.47-.1,2.44-11.8,14.32-20.71,26.35-19.53.73.07,1.47-.99.49-1.09h0Z"/>
    <polyline class="cls-17" points="632.2 343.62 629.33 378.34 640.44 345.4"/>
    <path class="cls-17" d="M825.77,592.56c22.47-17.76,37.47-78.02,41.83-102.09l-14.98-34.92c-31.11-10.02-33.01,14.45-33.01,14.45-.58,10.48-25.2,70.83-31.19,88.89,15.87,4.35,26.18,21.75,37.35,33.68Z"/>
    <path class="cls-17" d="M808.21,593.63c14.82-1.89,18.93-6.37,24.88-17.91,2.51-4.86-.3-10.97-1.66-16.27-.32-1.25-.72-2.33-1.29-2.88-5.8-5.69-34.69-11.45-50.4-5.41l-92.11,27.74,17.79,19.14c44.68,3.94,50.13-.38,79.37-1.68,2.2-.74,21.78-2.52,23.43-2.73Z"/>
  </g>
  <g id="Layer_4" data-name="Layer 4">
    <path class="cls-17" d="M882.41,372.57c2.07-.12,3.09-.23,5.14-.44,8.45-.88,17.14-1.87,25.46-3.6,12.84-2.67,23.07-10.39,33.6-17.64-.1,8.06.72,17.95,3.79,23.51l-.24,2.36c-17.86,28.2-28.37,44.5-88.37,27.16l19.56-30.57,1.06-.77Z"/>
    <path class="cls-17" d="M861.75,293.98c.48-3.68,1.05-7.94,1.77-13.08.21-1.49.45-2.92.7-4.33.2-.71.33-1.44.4-2.17,4.83-24.85,13.95-36.59,13.95-36.59,13.2-14.85,34.49-21.55,53.93-17.59,22.96,4.18,41.5,21.53,50.07,37.37,4.26,7.84,5.48,16.99,3.43,25.68-1.74,7.43-7.42,13.64-10.76,21.48,8.11.93,15.54,5.08,10.22,19.45-7.34,19.81-21.55,24.03-26.85,17.41-1.47.02-5.86,8.62-6.89,12.84-.08.32-3.61,22.83-3.68,23.17-11.8,5.64-33.56,4.07-46.88,5.04-8.36.6-8.86-.69-17.22-1.08-2.02-.09-1-6.48-3.03-6.66l1.4-8.97c-.58-.13-1.09-.18-3.56-1.42-17.77-7.78-22.13-33.59-21.68-43.07.38-8.04,2.88-22.87,4.67-27.48Z"/>
    <path class="cls-19" d="M882.31,365.95s21.66,5.29,43.49-4.53c0,0-3.45,6.21-18.3,8.92-14.85,2.71-25.77-.83-25.77-.83l.58-3.56Z"/>
    <ellipse class="cls-4" cx="872.36" cy="289.12" rx="4.96" ry="4.97" transform="translate(-20.21 70.2) rotate(-4.56)"/>
    <path class="cls-4" d="M867.22,284.09c2.58-1.11,5.95-1.57,10.63-.4,7.49,1.88,9.42,11.95,9.42,11.95,0,0-2.88-7.91-10.23-9.96-3.54-.98-9.81.19-12.78,1.15.19-.71,1.41-2,2.97-2.75Z"/>
    <path class="cls-7" d="M978.36,325.78c1.19-2.23,1.92-4.8,1.5-7.34-.1-.62-.2-1.49-.93-1.59-.62-.09-1.31.1-1.89.31-1.37.49-2.6,1.32-3.74,2.21-2.51,1.97-4.66,4.38-6.68,6.84-.51.62.48.94.94.71.49-.25,1.23-.55,1.77-.37.78.25.71,1.53.6,2.17-.41,2.44-2.77,3.28-4.99,3.15-.35-.02-.8.09-.94.46-.12.32.12.64.46.66,3.06.17,6.48-1.06,6.96-4.48.16-1.15-.06-2.58-1.31-3.01-1.03-.35-2.28.01-3.21.49l.94.71c2.41-2.93,5.12-6.15,8.51-8,.22-.12.43-.23.66-.33.16-.07.35-.15.38-.16.16-.06.31-.11.47-.15.08-.02.49-.09.23-.06.09-.01.17-.02.26-.03.2-.02.15-.08.05,0,.03-.02.13.01.16.02l-.48-.37c1.14,2.5.07,5.72-1.12,7.95-.4.75,1.07.82,1.4.21h0Z"/>
    <ellipse class="cls-4" cx="923.23" cy="297.79" rx="4.96" ry="4.97" transform="translate(-20.74 74.27) rotate(-4.56)"/>
    <path class="cls-4" d="M908.97,298.82s8.96-8.77,17.21-6.76c11.61,2.83,12.88,8.03,14.56,12.17,0,0-6.1-8.25-15.12-10.21-8.19-1.78-16.65,4.81-16.65,4.81Z"/>
    <path class="cls-4" d="M912.73,283.66c-.04-.17.54-.29.5-.47,8.8-3.85,15.77-5.23,18.42-5.18,2.01.04,4.04.5,6.02,1.27,0,0,5.45,2.03,6.26,3.07.8,1.04-3.11-.06-3.11-.06-.82-.11-1.4-.31-2.21-.31-4.48.02-8.89-.6-13.16.75-3.66,1.13-8.33,4.29-11.67,6.37-.45-1.86-.45-3.64-1.04-5.45Z"/>
    <path class="cls-4" d="M890.36,281.48c.1-.15-.35-.42-.25-.57-6.01-5.94-11.35-9.1-13.58-9.76-1.7-.5-3.55-.61-5.48-.43,0,0-5.27.43-6.31,1.19-1.04.76,2.62.78,2.62.78.72.12,1.28.08,1.96.3,3.74,1.22,7.64,1.82,10.74,4.22,2.66,2.04,5.46,6.23,7.52,9.06,1.02-1.61,1.66-3.27,2.78-4.8Z"/>
    <path class="cls-4" d="M962.45,321.96c.06-.12.47-.55.53-.67,1.59-2.72,5.06-7.62,7.8-9.32,1.25-.78,2.73-1.62,4.21-2.01,1.49-.39,3.09-.86,4.65-.8,2.22-.17,4.34.23,6.35,1.19.33.22.66.43.99.65,8.5-16.8,16.98-33.58,7.72-57.53-2.68-6.9-11.34-15.48-13.97-18.22-15.98-16.39-32.14-20.13-52.56-21.57-23.66-1.66-44.71,7.33-54.07,29.93-2.26,5.45-1.32,2.65-2.72,7.54,0,0,3.18-10.98,15.54-15.77,12.36-4.79,12.7,5.41,28.54,8.47,18.34,3.47,26.09-5.5,39.55,4.71,12.28,9.35,14.26,21.79,14.26,21.79.69,8.36,3.45,14.34-.36,23.14-.92,2.1-1.74,4.23-2.51,6.38-.81,4.02-3.94,5.83-3.89,9.98.02,2.03-3.2,9.73-1.7,11.21,1.62,1.59-.43,1.23,1.65.89Z"/>
    <g>
      <path class="cls-14" d="M888.13,322.2c1.48,1.18,4.03,1.46,5.88.75.41-.16,1.59.3,1.02.52-2.45.94-6.07.37-7.98-1.15-.19-.15-.12-.31.16-.34.29-.04.72.06.93.22"/>
      <path class="cls-14" d="M895.83,323.14c1.21-.31,2.5-.35,3.75-.21.18.02.41.14.51.28.09.11.08.24-.07.29-.63.22-1.39.21-2.05.07-.21-.04-.48-.15-.56-.35-.08-.19.15-.26.31-.22.55.12,1.13.12,1.66-.06.15.19.3.38.45.57-1.12-.13-2.28-.08-3.36.2-.21.06-.49-.06-.64-.2-.12-.1-.22-.31,0-.37"/>
      <path class="cls-14" d="M900.72,324.24c1.45.24,3.28-.06,4.2-1.02,1.39-1.44.91-4.41-.7-5.81-.17-.15-.04-.28.17-.28.27,0,.56.15.74.31,1.4,1.22,1.99,3.72,1.46,5.23-.5,1.4-2.07,2.15-3.89,2.23-.54.02-1.1,0-1.65-.09-.22-.04-.6-.18-.68-.37-.08-.2.14-.23.35-.2"/>
      <path class="cls-14" d="M885.62,320.95c.11-.15-.01-.29-.13-.31-.39-.06-.77-.25-1.05-.59-.16.13-.31.26-.47.4.77.24,1.5.64,2.11,1.25.12.12.33.1.48.02.11-.06.24-.22.12-.35"/>
      <path class="cls-14" d="M886.68,321.37c-.68-.68-1.51-1.12-2.37-1.39-.13-.04-.3,0-.42.1-.09.08-.13.2-.05.3"/>
      <path class="cls-14" d="M882.58,320.57c-.93-.22-1.92-1.06-2.18-2.24-.38-1.78.64-3.62,2.02-4.45.15-.09.11-.25-.01-.32-.16-.09-.38-.03-.53.06-1.2.72-2.15,2.09-2.29,3.66-.13,1.47.58,2.66,1.62,3.29.31.19.65.34,1,.42.14.03.41.02.51-.14.1-.16-.01-.26-.14-.29"/>
    </g>
    <path class="cls-17" d="M894.5,1031.31s-3.36,37.52-17.29,37.54c-13.92.02-66.51-12.33-66.51-12.33,0,0,36.91-36.92,40.49-43.7,1.96-3.72-7.86-116.87-13.99-174.97-4.26-40.37-4.54-72.49-4.54-72.49l63.99,6.73,6.46,58.94,2.69,11.27c1.4,5.89,3.37,16.34,3.75,22.4,1.03,16.39,2.07,43.97,1.38,52.34-1.17,14.17-10.1,49.01-10.65,53.99l-6.91,44.24,1.13,16.04Z"/>
    <path class="cls-17" d="M956.62,1035.29s-3.36,37.52-17.29,37.54c-13.92.02-66.51-12.33-66.51-12.33,0,0,36.91-36.92,40.49-43.7,1.96-3.72-7.86-116.87-13.99-174.97-4.26-40.37-4.54-72.49-4.54-72.49l63.99,6.73,6.46,58.94,2.69,11.27c1.4,5.89,3.37,16.34,3.75,22.4,1.03,16.39,2.07,43.97,1.38,52.34-1.17,14.17-10.1,49.01-10.65,53.99l-6.91,44.24,1.13,16.04Z"/>
    <path class="cls-12" d="M970.35,1011.6s6.71,5.1-10.7,6.89c-9.7,1-31.71,1.89-41.45,1.88-9.62-.01-9.8.63-19.22-1.67-2.99-.73-1.39-1.15-4.35-1.99l-7.1-134.54-3.19-149.8-20.73-76.21,138.23-3.64,3.2,10.56c2.68,21.19,2.55,42.7-.4,63.85l-23.78,94.85s-10.73,179.28-10.5,189.83Z"/>
    <path class="cls-12" d="M870.61,1010.31c-12.64-.99-19.68,2.16-28.84-5.94l-18.11-346.14,67.87-5.73,21.8,351.7c-14.04.13-28.66,7.21-42.71,6.11Z"/>
    <path class="cls-4" d="M895.36,1015.14c-.17-2.63-.33-5.26-.5-7.89-.45-7.07-.9-14.15-1.35-21.22-.66-10.35-1.31-20.7-1.97-31.05-.79-12.51-1.59-25.02-2.38-37.53-.85-13.36-1.69-26.72-2.54-40.08-.84-13.23-1.68-26.47-2.52-39.7-.75-11.79-1.5-23.59-2.24-35.38-.59-9.24-1.17-18.48-1.76-27.71-.35-5.53-.7-11.05-1.05-16.58-.06-.99-.15-1.97-.19-2.96-.13-3.11-.25-6.18-.77-9.26-.96-5.72-2.86-11.28-5.71-16.33-1.32-2.34-2.83-4.64-4.63-6.65-1.33-1.5-2.93-3-5-3.24-.33-.04-1.66.53-.93.61,2.61.3,4.72,3.16,6.16,5.1,1.78,2.4,3.29,4.99,4.56,7.69,2.48,5.26,3.99,10.96,4.57,16.74.24,2.33.22,4.68.37,7.02.29,4.57.58,9.15.87,13.72.54,8.51,1.08,17.03,1.62,25.54.72,11.34,1.44,22.69,2.16,34.03.82,12.94,1.64,25.87,2.46,38.81.85,13.41,1.7,26.82,2.55,40.24.81,12.73,1.61,25.47,2.42,38.2.69,10.9,1.38,21.81,2.07,32.71.5,7.92,1,15.84,1.51,23.76.24,3.75.23,7.62.72,11.34.02.16.02.33.03.49.02.28,1.48.03,1.45-.39h0Z"/>
    <path class="cls-20" d="M877.63,373.29c-8.46.36-31.62,19.14-36.65,22.9-35.96,26.86-32.52,92.83-40.64,116.78,7.04,10.61,21.16,9.09,21.16,9.09,0,0,1.46,20.69.85,41.77-.61,19.14,1.15,49.7-3.3,90.63,18.36,8.19,12.95,8.11,31.83,9.72,16.5,1.41,48.92,4.69,65.5,4.99,18.38.34,44.47-3.97,62.63-7.31,12.5-2.3,26.01-8.43,27.41-17.15-9.81-50.63-18.11-113.81-18.45-115.1-.81-3.07-.12-14.33-4.61-38.04,0,0,32.59-6.53,40.76-11.8,0,0,6.7-72.22-39.01-95.27-18.7-9.43-21.4-12.21-37.55-17.05,0,0-20.8,35.67-53.71,32.28-32.91-3.39-16.23-26.45-16.23-26.45Z"/>
    <path class="cls-28" d="M820.03,446.37c.79,10.54.7,21.17.73,31.73,0,1.8-.16,3.58-.28,5.38-.37,5.57-.66,11.14-.83,16.71-.23,7.34-.34,14.73.27,22.06l.79-.72c-2.82.22-5.81-.27-8.5-1.08-2.6-.78-5.06-1.98-7.22-3.64-1.29-.99-2.44-2.15-3.44-3.43-.26-.34-.41-.37-.42-.69-.01-.29.2-.72.28-1,.5-1.79,1-3.59,1.5-5.38-.47.12-.93.25-1.4.37,4.36,4.31,10.98,6.53,16.95,7.05.7.06,1.48-.95.51-1.04-5.63-.49-12.08-2.65-16.12-6.65-.41-.41-1.24-.18-1.4.37-.47,1.7-.95,3.39-1.42,5.09-.12.43-.51,1.18-.41,1.64.13.61,1.01,1.37,1.42,1.83.53.6,1.1,1.16,1.69,1.69,3.9,3.51,9.09,5.35,14.27,5.81,1.18.11,2.4.17,3.58.08.39-.03.83-.28.79-.72-1.04-12.39-.29-25,.51-37.38.13-1.94.35-3.9.35-5.85,0-4.51-.05-9.03-.11-13.54-.09-6.37-.17-12.76-.64-19.11-.05-.65-1.5-.3-1.45.39h0Z"/>
    <g>
      <path class="cls-20" d="M882.02,370.62s-4.16,22.17,15.45,29.31c0,0-15.82,6.84-21.43,19.4,0,0-13.32-9.38-14.97-38.79,0,0,8.22-6.41,15.55-9.12,7.33-2.71,5.4-.79,5.4-.79Z"/>
      <path class="cls-28" d="M881.29,370.7c-1.45,7.82.44,17.04,5.74,23.05,2.66,3.01,6.11,5.15,9.86,6.54l.28-.69c-3.13,1.36-6.11,3.19-8.89,5.16-5.32,3.77-10.19,8.53-12.92,14.54l1.25-.34s0,.05-.13-.1c-.16-.18-.4-.33-.58-.49-.73-.65-1.41-1.35-2.05-2.09-2.42-2.76-4.36-5.94-5.92-9.26-2.54-5.39-4.13-11.19-5.1-17.05-.31-1.88-.55-3.77-.73-5.67-.1-1.01-.09-2.06-.25-3.06-.08-.54-.21-.46-.03-.69.49-.64,1.57-1.16,2.22-1.62,1.21-.85,2.44-1.67,3.69-2.46,3.58-2.26,7.33-4.22,11.37-5.5.64-.2,1.31-.43,1.98-.53.08-.01.67-.06.46-.07-.02,0-.09.1-.1.11-.6.61.81.64,1.17.28.49-.49.49-1.05-.28-1.2-.8-.17-1.79.16-2.54.38-1.9.53-3.77,1.22-5.57,2.03-3.43,1.54-6.68,3.5-9.79,5.61-1.03.7-2.05,1.41-3.04,2.16-.39.29-.9.54-1.04,1.01s.08,1.3.12,1.79c.04.58.09,1.16.15,1.74.1,1.11.23,2.23.37,3.34.26,1.98.58,3.96.99,5.91.69,3.36,1.61,6.68,2.82,9.89,1.62,4.3,3.76,8.48,6.6,12.11,1.18,1.51,2.5,3.06,4.08,4.18.31.22,1.1,0,1.25-.34,2.69-5.91,7.45-10.6,12.71-14.28,2.61-1.83,5.4-3.55,8.33-4.82.18-.08.73-.52.28-.69-6.23-2.31-11.18-6.75-13.65-12.96-1.67-4.2-2.23-8.83-1.94-13.33.06-.91.13-1.84.3-2.74.11-.59-1.35-.36-1.45.17Z"/>
    </g>
    <g>
      <polyline class="cls-20" points="893.41 401.28 892.12 444.83 902.81 444.65"/>
      <path class="cls-28" d="M892.67,401.34c-.14,4.89-.29,9.78-.43,14.66-.23,7.84-.46,15.68-.7,23.52-.05,1.79-.11,3.58-.16,5.37-.01.37.36.47.67.46,3.56-.06,7.13-.12,10.69-.18.82-.01,1.12-1.06.13-1.04-3.56.06-7.13.12-10.69.18l.67.46c.14-4.89.29-9.78.43-14.66.23-7.84.46-15.68.7-23.52.05-1.79.11-3.58.16-5.37.02-.74-1.45-.53-1.47.12h0Z"/>
    </g>
    <ellipse class="cls-28" cx="900.69" cy="418.34" rx="3.55" ry="2.78"/>
    <ellipse class="cls-28" cx="900.69" cy="433.03" rx="3.55" ry="2.78"/>
    <path d="M889.17,330.75c5.25.93,16.23,6.39,18.18,8.97,0,0-8.37,8.44-20.54,6.27-12.17-2.16-11.82-12.03-11.82-12.03,0,0,7.49-4.41,14.18-3.22Z"/>
    <path class="cls-15" d="M902.83,336.44s-6.51-1.71-11.78-2.65c-5.27-.94-11.96-1.58-11.96-1.58,0,0-.14-4.1,9.41-2.4,9.55,1.7,14.34,6.63,14.34,6.63Z"/>
    <path class="cls-26" d="M887.64,342.54c5.85.15,13.14-4.45,19.71-2.83,0,0-4.37,11.16-18.68,8.61-14.31-2.54-13.68-14.37-13.68-14.37,6.73.74,7.1,6.71,12.65,8.58Z"/>
    <path class="cls-26" d="M883.48,326.62c3.05.3,4.74,1.85,6.05,2.08,1.31.23,3.43-.64,6.39.13,2.78.72,13.39,10.15,11.89,10.86-1.5.71-9.78-6.3-18.83-7.91-9.05-1.61-13.25,3.18-14.41,2-1.16-1.18,6.06-7.44,8.91-7.16Z"/>
    <path class="cls-7" d="M907.05,289.02c-1.01.34-2.34-.42-3.06-1.08-.87-.8-1.41-1.92-1.74-3.04-.68-2.3-.67-4.92.63-7,.13-.2-.52-.11-.57-.1-.25.04-.71.14-.86.37-2.7,4.29-.2,13.24,6.07,11.11.14-.05.56-.18.44-.37-.11-.17-.82.07-.93.11h0Z"/>
  </g>
  <g id="Layer_2" data-name="Layer 2">
    <path class="cls-17" d="M738.34,579.04l6.37,21.29,6.35,21.25s31.32,1.73,40.15-.44c8.83-2.17,30.16-4.71,30.16-4.71-.77,2.71,1.84.74,2.98,3.31,1.51,2.87,4.11,4.96,7.23,5.84l5.07-10.41c3.43,6.17,8.64.51,8.64.51l5.12-13.27c3.91,7.83,10.83.64,10.83.64l1.59-17.85c2.54,2.55,5.56,4.58,8.88,5.96,4.25,1.35,4.67-5.69,4.67-5.69l-18.7-25.02-42.36-6.81-63.34,24.45-13.65.95Z"/>
    <path class="cls-7" d="M737.61,578.67c1.86,6.22,3.72,12.43,5.58,18.65,1.51,5.05,3.02,10.11,4.53,15.16.87,2.91,1.74,5.82,2.61,8.73.05.17.29.18.43.19,8.45.47,16.93.72,25.39.64,4.78-.04,9.75-.02,14.45-.99,5.72-1.18,11.43-2.21,17.22-3.05,4.47-.64,8.95-1.24,13.43-1.78l-.61-.27c-.21.85-.23,1.52.66,1.87.41.16.86.17,1.26.38.76.38,1.02,1.12,1.43,1.81,1.59,2.61,4.09,4.46,7.01,5.33.41.12,1.1,0,1.3-.43,1.69-3.47,3.38-6.94,5.07-10.41l-1.45.29c1.33,2.28,3.33,3.57,5.99,2.84,1.36-.37,3.18-1.3,4.02-2.5.55-.78.79-1.96,1.12-2.84.81-2.1,1.62-4.2,2.43-6.3.55-1.42,1.09-2.83,1.64-4.25l-1.45.29c1.51,2.91,3.99,4.49,7.27,3.53,1.17-.34,2.26-.93,3.25-1.64.5-.36,1.38-.87,1.69-1.43.16-.29.13-.72.16-1.06.09-.98.17-1.96.26-2.94l.75-8.44c.16-1.84.33-3.69.49-5.53l-1.4.37c2.39,2.36,5.15,4.3,8.22,5.69,1.7.77,3.62.76,4.96-.71,1.05-1.14,1.47-2.8,1.69-4.3.09-.6.13-.82-.2-1.28-3.77-5.44-7.95-10.63-11.91-15.93-1.89-2.53-3.79-5.07-5.68-7.6-.25-.34-.55-.97-.92-1.19-.3-.19-.84-.17-1.17-.22-6.32-1.02-12.64-2.03-18.96-3.05-6.82-1.1-13.64-2.19-20.45-3.29-.96-.15-1.94-.47-2.87-.14-1.3.46-2.59,1-3.88,1.5-6.14,2.37-12.27,4.74-18.41,7.11-7.62,2.94-15.25,5.88-22.87,8.83-5.34,2.06-10.69,4.13-16.03,6.19-.53.21-1.08.39-1.6.62-.84.36.66.03-.15.05-3.47.09-6.96.48-10.43.72-.96.07-1.91.13-2.87.2-.49.03-1.54.83-.58.76,2.89-.2,5.77-.4,8.66-.6,1.52-.11,3.03-.21,4.55-.32.41-.03.79-.08,1.17-.21,3.76-1.31,7.45-2.88,11.17-4.31,14.04-5.42,28.07-10.84,42.11-16.25,2.32-.9,4.65-1.79,6.97-2.69.67-.26,1.34-.52,2.01-.78.22-.08.73-.17.9-.35-.35.37-.96-.04-.57.12.19.08.46.07.66.11l2.76.44c3.15.51,6.29,1.01,9.44,1.52,7.49,1.2,14.97,2.41,22.46,3.61,2.12.34,4.25.68,6.37,1.02.15.02.34.02.48.08-.1-.04-.2-.18-.05.08.37.66.95,1.27,1.4,1.88l13.06,17.47c1.31,1.76,2.89,3.49,4.02,5.37.18.29.05-.22.04.15-.02.61-.16,1.24-.31,1.82-.18.74-.42,1.5-.82,2.16-.67,1.12-1.38,1.4-2.61.92-3.15-1.23-6.02-3.38-8.41-5.74-.26-.26-1.36-.05-1.4.37-.33,3.67-.65,7.34-.98,11.01-.18,1.98-.35,3.97-.53,5.95-.01.15-.17,1.09.02.73-.25.48-1.07.95-1.49,1.25-1.05.75-2.33,1.45-3.65,1.43-2.07-.03-3.46-1.79-4.34-3.47-.23-.45-1.3-.09-1.45.29-1.38,3.58-2.76,7.16-4.15,10.74-.27.71-.55,1.41-.82,2.12-.18.47-.07.3-.49.68-.74.66-1.63,1.3-2.6,1.53-1.93.46-3.37-1.1-4.25-2.61-.27-.45-1.26-.08-1.45.29-1.69,3.47-3.38,6.94-5.07,10.41l1.3-.43c-2.9-.87-5.4-2.72-6.91-5.37-.49-.86-.87-1.53-1.84-1.89-1.04-.38-1.66-.29-1.32-1.66.08-.31-.46-.29-.61-.27-9.7,1.15-19.5,2.32-29.04,4.44-4.53,1.01-9.09,1.23-13.72,1.31-5.74.1-11.47,0-17.21-.19-3.39-.11-6.77-.24-10.16-.43l.43.19c-1.85-6.2-3.71-12.41-5.56-18.61-1.51-5.06-3.03-10.12-4.54-15.18-.87-2.92-1.74-5.83-2.62-8.75-.14-.46-1.58-.06-1.45.39Z"/>
    <path class="cls-29" d="M862.52,578.8c-.14-1.29-.37-2.57-.69-3.83-.43-1.62-1.48-2.99-2.93-3.83-2.86-1.82-5.92-3.32-9.11-4.48-3.36-1.3-6.65-2.2-9.61-3.04-2.59-.76-5.23-1.33-7.9-1.74-.15.46-.32.91-.5,1.36.05,0,.11.01.16.02,2.21.43,4.81,1.27,7.77,2.17,2.96.9,6.14,1.84,9.4,3.07,3.07,1.13,6.04,2.53,8.86,4.19,1.14.59,1.99,1.6,2.39,2.82.36,1.19.61,2.49.87,3.61.98,4.52,1.23,7.23,1.48,7.23.49-2.5.43-5.08-.18-7.55Z"/>
    <path class="cls-29" d="M827.18,577.92c4.27.98,10.3,1.7,16.84,3.61,1.75.38,3.39,1.15,4.81,2.24.99,1.3,1.78,2.73,2.35,4.27,1.19,2.44,1.75,5.13,1.63,7.84-.3,1.75-.75,3.46-1.34,5.13-.36,1.16-.69,1.81-.69,1.81,0,0-.14-.72,0-1.95.14-1.23.72-3,.72-5.06-.04-2.53-.69-5-1.88-7.23-.54-1.28-1.23-2.5-2.06-3.61-1.22-.83-2.6-1.42-4.05-1.73-6.33-1.84-12.4-2.82-16.63-4.16-2.37-.49-4.62-1.45-6.61-2.82,2.33.41,4.64.96,6.9,1.66Z"/>
    <path class="cls-29" d="M837.76,610.4c.6-1.65.69-3.44.25-5.13-.65-1.97-2.21-3.49-4.19-4.08-2.12-.65-4.33-.96-6.54-.9l-5.71-.22c-1.45-.07-2.78-.25-3.61-.25s-1.16.25-1.3.22.18-.69,1.19-.94c1.28-.22,2.57-.34,3.87-.36l5.71-.18c2.44-.18,4.9.12,7.23.87,2.55.81,4.52,2.85,5.24,5.42.42,2.03.18,4.15-.69,6.04-1.48,3.07-2.89,4.41-3.07,4.41-.29-.14.8-1.92,1.63-4.88Z"/>
    <path class="cls-23" d="M751.96,579.66l-171.7-38.52c-20.86,23.64-44.97,47.77-62.01,74.58,40.07,18.15,114.35,16.21,155.65,12.5,45.72-4.11,77.62,1,77.62,1l.45-49.56Z"/>
    <path class="cls-11" d="M446.21,367.55c.74,5.03,1.49,10.05,2.24,15.07,1.89,12.57,3.81,25.14,5.76,37.71,2.56,16.49,5.18,32.96,7.89,49.42,2.76,16.76,5.6,33.51,8.64,50.22,2.44,13.41,4.94,26.82,7.99,40.1.99,4.32,2.02,8.64,3.33,12.88,2.27,7.36,6.21,14.29,10.55,20.61,6.18,8.99,14.21,17.14,24.07,22.03,4.16,2.06,8.71,3.46,13.13,4.85,5.05,1.59,10.2,2.88,15.38,3.97,23.72,5,48.23,6.38,72.42,6.56,11.69.09,23.39-.17,35.06-.77,11.62-.59,23.19-1.83,34.81-2.45,19.99-1.07,40.28-.9,60.16,1.64.93.12,1.86.24,2.78.39.27.04,1.16-.06,1.17-.48.13-14.47.26-28.94.39-43.41.02-2.05.04-4.1.06-6.15,0-.19-.1-.26-.28-.3-6.19-1.37-12.37-2.74-18.56-4.11-14.64-3.24-29.28-6.47-43.92-9.71-17.15-3.79-34.31-7.59-51.46-11.38-13.88-3.07-27.75-6.14-41.63-9.21l-11.74-2.6c-.78-.17-1.81-.22-2.54-.56-.23-.11-.26-.13-.23-.08-.1-.13-.27-1.59-.36-2.02-.19-.82-.36-1.64-.54-2.46-4.1-19.47-6.31-39.4-8.62-59.14-2.41-20.61-4.57-41.26-6.31-61.94-.93-11-1.88-21.97-3.18-32.94-2.39-20.08-4.98-40.45-10.28-60.01-2.53-9.36-6.09-18.37-13.36-25.12-5.95-5.52-13.63-9.11-21.61-10.5-1.33-.23-2.69-.44-4.04-.48-.55-.02-1.54.79-.56.82,5.46.17,11.11,2.07,15.92,4.51,9.81,4.99,16.44,13.63,20.01,23.92,3.19,9.21,5.09,18.89,6.82,28.46,1.94,10.73,3.5,21.54,4.86,32.36,1.51,11.97,2.73,23.94,3.69,35.96,1.68,20.93,3.87,41.83,6.28,62.69,2.39,20.62,4.66,41.46,8.93,61.79.33,1.57.68,3.13,1.07,4.68.03.12.18.18.28.2,5.65,1.25,11.31,2.5,16.96,3.75,13.57,3,27.14,6,40.71,9,16.36,3.62,32.71,7.23,49.07,10.85,14.14,3.13,28.29,6.26,42.43,9.38l14.08,3.11,4.33.96c.64.14,1.65.58,2.31.51.08,0,.21.05.29.07l-.28-.3c-.13,14.47-.26,28.94-.39,43.41-.02,2.05-.04,4.1-.06,6.15l1.17-.48c-13.54-2.16-27.5-2.58-41.17-2.62-24.36-.07-48.56,3.01-72.9,3.61-24.5.6-49.19-.02-73.5-3.34-11.08-1.51-22.15-3.59-32.84-6.93-4.53-1.41-9.19-2.86-13.43-5.01-4.67-2.37-8.92-5.5-12.74-9.07-8.63-8.07-15.6-18.56-20-29.51-1.29-3.22-2.16-6.63-3.01-9.99-3.04-11.95-5.35-24.09-7.63-36.2-3.05-16.2-5.86-32.45-8.58-48.71-2.81-16.79-5.52-33.59-8.16-50.41-2.16-13.76-4.28-27.53-6.36-41.3-1.08-7.13-2.15-14.26-3.2-21.4-.05-.32-.1-.65-.14-.97-.07-.49-1.53-.15-1.45.39h0Z"/>
    <path class="cls-17" d="M1021.16,587.85c16.55-23.37,13.96-85.41,11.35-109.74l-24.21-29.28c-32.67-.85-27.6,23.16-27.6,23.16,2.4,10.22-4.21,75.06-4.87,94.07,16.46-.3,31.25,13.49,45.33,21.79Z"/>
    <path class="cls-17" d="M1000.37,600.34c14.73-2.52,18.64-7.16,24.1-18.94,2.3-4.96-.76-10.95-2.35-16.19-.38-1.24-.82-2.3-1.41-2.82-6.03-5.45-35.14-9.97-50.59-3.28l-90.86,31.59,18.58,18.37c44.8,2.05,50.07-2.49,79.23-5.02,2.16-.83,21.66-3.43,23.29-3.71Z"/>
    <path class="cls-7" d="M976.98,557.38c4.17-.42,8.33.36,11.53,3.21,2.25,2,3.72,4.61,5.3,7.13.26.41,1.66-.06,1.35-.57-1.71-2.72-3.3-5.55-5.85-7.59-3.45-2.78-7.82-3.43-12.13-2.99-.71.07-1.2.91-.2.81h0Z"/>
    <path class="cls-17" d="M914.93,608.17c-1.1-9.11-15.17-11.32-19.34-19.4-7.31-1.57-23.37-5.01-26.68-5.51-4.31-.66-25,1.17-25,1.17,0,0-13.35-3.64-14.43-2.85-1.08.79-4.09,3.87-.26,7.3,3.75,3.39,7.85,6.38,12.25,8.93l-30.74,23.54c-1.97,1.45-3.25,3.64-3.49,5.97-.11,1.57.25,2.8,2.25,2.47,4.32-1.4,8.6-2.98,12.83-4.68l-.05.02s2.46,6.17,7.99,5.9c2.04-.25,4.09-.25,6.08.02,0,0,3.73,4.82,6.76,5.64,3.04.82,26.6-3.72,26.6-3.72,0,0,14.2-4.69,21.18-13.48,2.57-3.23,11.7-8.81,15.79-10.72l8.26-.59Z"/>
    <path class="cls-7" d="M877.29,583.65c-4.65.06-9.21-.67-13.86-.53-5.28.16-10.55.55-15.81.97-1.19.1-2.44.11-3.62.3.15-.02.46.12.13,0-.25-.1-.54-.14-.8-.21-.94-.25-1.89-.49-2.84-.73-2.39-.6-4.79-1.18-7.22-1.63-1.36-.25-3.31-.84-4.51.12-.94.75-1.72,1.82-2.03,2.99-.5,1.87.49,3.52,1.82,4.77,3.71,3.49,7.96,6.47,12.35,9.03l.08-.75c-7.98,5.6-15.96,11.2-23.94,16.8-1.12.78-2.23,1.57-3.35,2.35-.8.56.38,1.07.96.66,7.98-5.6,15.96-11.2,23.94-16.8,1.12-.78,2.23-1.57,3.35-2.35.23-.16.39-.56.08-.75-3.73-2.18-7.28-4.67-10.57-7.47-1.48-1.26-3.57-2.76-3.37-4.95.11-1.19.85-2.24,1.76-2.98.2-.16,0,0-.12.02.09-.01.24-.03.33-.02.36.07.75.06,1.12.11,1.04.14,2.07.34,3.09.56,2.29.48,4.57,1.04,6.84,1.63.89.23,1.89.66,2.82.66,1.17.01,2.39-.2,3.56-.3,4.98-.4,9.96-.76,14.95-.94s9.79.57,14.72.51c.82-.01,1.11-1.07.13-1.06h0Z"/>
    <path class="cls-29" d="M836.23,616.34c-3.88,2.92-7.42,5.53-10.09,7.27-1.38,1.08-2.92,1.94-4.54,2.52,1.22-1.23,2.57-2.33,4-3.29,2.51-1.95,5.97-4.69,9.84-7.61,7.7-5.9,14.61-9.84,14.79-9.45.15.28-6.31,4.66-14.01,10.56Z"/>
    <path class="cls-29" d="M848.39,623.96c-3.71,2.84-7.85,4.99-12.21,6.36-.04-.29,5.38-3.13,11.58-7.4,6.2-4.27,10.79-8.37,11.06-8.08-2.93,3.61-6.47,6.71-10.43,9.13Z"/>
    <path class="cls-7" d="M842.05,597.91c2.6-1.98,5.21-3.96,7.81-5.95.38-.29.75-.57,1.13-.86.25-.19.15-.41-.12-.46-.33-.07-.76.07-1.02.27-2.6,1.98-5.21,3.96-7.81,5.95-.38.29-.75.57-1.13.86-.25.19-.15.41.12.46.33.07.76-.07,1.02-.27h0Z"/>
    <path class="cls-20" d="M960.32,377.51s54.72,13.59,65.98,46.61c16.2,47.48,16.09,101.87,16.09,101.87,0,0-50.49,11.08-73.4,1.5-21.56-9.02-10.15-139.27-10.15-139.27"/>
    <path class="cls-28" d="M988.39,422.82c-2.91.83-5.64,2.74-7.86,4.72-5.81,5.18-9.13,12.48-10.61,20.02-1.66,8.4-1.56,17.21-1.47,25.73.1,9.75.57,19.5,1.19,29.23.55,8.62,1.2,17.25,2.04,25.85.01.14.2.26.31.3,1.61.56,3.23,1.12,4.84,1.67,1.4.48,2.85,1.17,4.31,1.47,2.05.42,4.31.39,6.39.52,11.5.72,23.17.63,34.59-1.04,7.06-1.03,14.14-2.67,20.6-5.77.17-.08.42-.27.41-.48-.1-2.88-.19-5.75-.29-8.63-.01-.44-.5-.56-.87-.45-8.06,2.47-16.64,3.7-25,4.48-8.07.76-16.18.85-24.27.54-4.61-.18-9.26-.45-13.82-1.25-1.29-.23-2.78-.42-3.97-1.01-.6-.3-1.66.57-.84.98.97.48,2.15.67,3.2.88,4.14.84,8.39,1.14,12.6,1.36,14.53.74,29.1.03,43.39-2.83,3.01-.6,6.05-1.25,8.99-2.15l-.87-.45c.1,2.88.19,5.75.29,8.63l.41-.48c-6.72,3.23-14.15,4.83-21.5,5.8-7.21.95-14.51,1.26-21.78,1.2-4.93-.04-9.86-.26-14.77-.68-.78-.07-1.61-.08-2.38-.23.35.07-.15-.07-.27-.11-.43-.15-.87-.3-1.3-.45-1.27-.44-2.54-.88-3.82-1.32-1-.35-2.03-.82-3.06-1.06-.67-.16.05-.08-.07.11.09-.15-.07-.76-.09-.92-.34-3.65-.66-7.29-.95-10.94-.59-7.37-1.09-14.74-1.48-22.12-.43-8.27-.74-16.56-.72-24.84.02-7.06.09-14.29,1.41-21.26,1.28-6.79,4.05-13.43,8.93-18.43,1.46-1.5,3.11-2.84,4.91-3.92.61-.37,1.25-.71,1.9-1.02.24-.11.49-.22.73-.33.11-.04.57-.22.43-.17.15-.06.3-.11.46-.15.89-.25.63-1.25-.27-1h0Z"/>
    <g>
      <path class="cls-20" d="M969.16,376.35s-10.77-14.18-19.14-18.64c0,0-25.75,42.36-53.76,42.22,0,0,17.95,11.86,19.69,26.36,0,0,55.47-27.78,53.22-48.7"/>
      <path class="cls-28" d="M969.83,376.06c-2.05-2.69-4.26-5.27-6.54-7.76-3.73-4.08-7.8-8.29-12.7-10.95-.36-.19-1.04-.01-1.25.34-2.95,4.84-6.39,9.42-9.96,13.81-7.05,8.68-15.19,16.97-24.93,22.61-5.45,3.15-11.56,5.4-17.92,5.4-.28,0-1.45.39-.85.79,6.46,4.28,12.54,10.28,16.36,17.04,1.6,2.84,2.76,5.91,3.18,9.15.05.38.84.21,1.02.12,6.51-3.26,12.82-6.96,18.98-10.84,5.43-3.43,10.74-7.07,15.77-11.06,4.83-3.82,9.5-7.99,13.32-12.84,3.19-4.06,6.12-9.1,5.59-14.46-.05-.5-1.51-.18-1.45.39.47,4.67-1.88,9.11-4.54,12.77-3.51,4.84-8.01,8.95-12.62,12.71-8.96,7.31-18.85,13.51-28.94,19.13-2.22,1.24-4.45,2.46-6.68,3.58l1.02.12c-1.32-10.31-9.66-18.85-17.58-24.88-.74-.56-1.49-1.12-2.26-1.64l-.85.79c11.65,0,22.16-6.59,30.66-14.01,7.76-6.77,14.5-14.75,20.42-23.17,1.25-1.78,2.5-3.59,3.63-5.45l-1.25.34c4.92,2.67,8.99,6.94,12.72,11.04,2.2,2.42,4.34,4.93,6.33,7.53.31.41,1.71-.1,1.34-.58h0Z"/>
    </g>
    <path class="cls-25" d="M154.42,1074.09s-5.25,4.83-14.42,1.94c-9.17-2.89.08-59.16-2.22-78.71-2.3-19.55-11.52-97.75-7.09-116.84,4.44-19.09,27.27-.94,27.27-.94l-3.54,194.56Z"/>
    <path class="cls-17" d="M236.92,878.37c-8.73,2.54-57.68-9.63-67.49-12.15-11.3-2.9-19.79,2.33-24.46,15.56-3.93,11.12-3.65,16.84-2.98,28.96.89,15.83,3.71,32.73,4.59,48.56.76,13.57,4.42,56.22,2.31,69.51-3.29,20.68-.38,33.47,2.73,42.67.86,2.55.75,4.13,2.55,5.33,4.7,3.11,9.85,2.77,13.74-4,4.91-8.54-2.02-18.9,3.77-26.86,1.03-1.42,2.19-2.73,2.93-4.37,1.45-3.21,1.07-7.1,1.01-10.75-.31-18.25,7.06-16.8,12.6-40.65,1.63-7,25.01-40.09,27.76-46.57"/>
    <path class="cls-25" d="M148.07,1014.24s19.94,1.57,27.07,10.25c0,0,12.84-22.5,15.87-39.03,0,0-16.79-20.01-44.87-16.29l1.93,45.08Z"/>
    <path class="cls-3" d="M285.79,884.64s-4.21-8.82-10.85,24.69c-9.43,47.58-8.79,77.63-8.79,77.63l-54.33-18.14s-5.19-28,3.44-67.79c8.63-39.8,12.94-29,12.94-29l57.59,12.62Z"/>
    <path class="cls-3" d="M589.96,953.85s4.63,12.08,24.59,14.68c48.1,6.27,90.5-2.1,90.5-2.1l-16.79,58.43s-34.06,7.6-74.62,3.92c-40.56-3.68-34-9.28-34-9.28l10.33-65.64Z"/>
    <path class="cls-1" d="M598.76,212.38c-.04.09-.06.18-.1.27.01-.13.04-.23.1-.27Z"/>
    <path class="cls-17" d="M636.7,293.21l30.13,12.49,16.35,3.44c1.49.72,15-11.47,16.91-12.93,5.92-4.52,13.23-11.84,18.17-17.44,5.29-6,12.9-8.61,17.8-16.5,3.59-5.78,5.59-10.07,6.89-21.57.33-2.92,1.47-5.47,3.35-7.91,3.98-5.13,7.54-11.64,12.7-18.6.41-.55,2.46-3.15,2.52-3.92,0,0,14.02-32.51,13.5-46.67-.52-14.15-4.65-22.38-12.1-28.44-7.45-6.06-33.08-16.02-33.08-16.02l-32.18-20.79-35.94,1.01-31.23,28.73-16.86,42.27-12.56,38.9"/>
    <path class="cls-7" d="M654.78,293.44c-.31.04-14.98-9.13-15.28-9.3l-6.29-7.51s-.03-.05-.03-.06c-.86-.05-1.74-.4-2.56-1.19-4.24-4.06-7.34-8.89-10.09-14.04-2.47-4.63-2.81-15.38-6.22-19.41-1.61-1.91-.6-2.2-1.73-4.32-.05.53-1.41,3.22-1.46,3.76,3.18,13.81,8.74,42.4,17.37,53.1.71.59,2.93,2.48,9.46,6.19,8.57,4.87,15.33,8.48,24.6,11.33,3.07-6.21,6.09-13.86,9.06-20.12-3.18-1.53-5.22.03-16.83,1.57Z"/>
    <path class="cls-14" d="M685.08,196.4c-1.41-1.88-4.01-2.1-5.77-1.6-.41.12-1.54.47-2.5,1.53-1.23,1.35-1.46,3.45-.99,5.01.62,2.09,2.71,3.4,4.78,3.43,2.81.04,4.89-2.37,5.29-4.65.07-.42.33-2.21-.81-3.72"/>
    <path class="cls-14" d="M737.15,221.97c2.35-.07,4.14,1.83,4.85,3.52.17.4.59,1.5.36,2.91-.3,1.8-1.79,3.29-3.31,3.9-2.02.81-4.35,0-5.66-1.6-1.78-2.18-1.19-5.3.35-7.04.28-.32,1.52-1.63,3.42-1.69"/>
    <path class="cls-14" d="M721.62,223.26s10.38-4.32,15.55-2.45c7.55,2.72,8.51,5.43,9.27,10.37,0,0-2.84-6.14-8.22-7.9-5.14-1.68-16.6-.02-16.6-.02Z"/>
    <path class="cls-14" d="M698.27,209.58s-7.88-12.61-13.37-15.43c-8.01-4.12-19.98-4-24.47-1.37,0,0,16.14-.9,21.7,2.16,5.32,2.92,16.13,14.65,16.13,14.65Z"/>
    <path class="cls-14" d="M709.03,182.7c.81,1.02.03,1.64-.91,3.58-.3.62-.75,1.57-1.21,2.58-.87,1.88-3.35,2.36-4.84.92-2.67-2.59-4.97-5.06-6.98-6.51-5.43-3.93-10.8-8.37-17.27-10.34-3.1-.94-5.98-1.42-9.1-1.1-.98.1-4.01,1.15-4.89.08-.36-.44,1.55-2.44,1.75-2.65,3.87-4.03,8.89-4.06,14.41-2.8,11.24,2.57,19.4,9.96,29.05,16.24"/>
    <path class="cls-14" d="M763.68,208.07s-2.69-2.14-2.71-2.16c-5.8-4.65-12.3-7.75-19.22-10.03-3.51-1.15-7.32.64-8.77,4.04,0,.02-.02.04-.03.06-.29.67-1.54,2.56-1.36,3.29.03.14.13.26.23.37,1.06,1.17,2.55,1.88,4.09,2.24,1.9.45,3.86.32,5.77.69,5.48,1.07,11.28,2.14,15.95,5.27.37.25,2.34,1.63,2.69,1.89,2.78-2.03,3.89-4.92,3.36-5.66Z"/>
    <g>
      <path class="cls-14" d="M698.42,251.14c-2.98.13-6.46-1.91-8.12-4.58-.37-.59-2.29-1.12-1.78-.29,2.19,3.52,7.3,6.21,11.15,6.05.38-.02.44-.28.13-.59-.33-.33-.97-.6-1.38-.58"/>
      <path class="cls-14" d="M687.83,245.08c-1.22-1.54-2.82-2.81-4.53-3.81-.25-.14-.64-.21-.91-.12-.22.07-.34.23-.2.44.59.88,1.54,1.59,2.51,2.03.31.14.74.26,1.04.07.28-.17.06-.47-.18-.58-.8-.37-1.54-.92-2.02-1.65-.37.1-.74.21-1.11.32,1.53.89,2.95,2.04,4.04,3.42.22.27.67.38,1,.35.25-.02.58-.19.36-.47"/>
      <path class="cls-14" d="M680.64,241.89c-2.06-1.06-4.07-3.17-4.32-5.28-.38-3.17,2.88-6.24,6.23-6.53.36-.03.32-.32.06-.52-.34-.26-.85-.33-1.23-.3-2.92.26-5.88,2.62-6.63,5.06-.71,2.28.57,4.73,2.77,6.55.66.54,1.39,1.05,2.16,1.44.31.16.93.34,1.2.16.28-.18.04-.43-.25-.58"/>
      <path class="cls-14" d="M702.77,251.9c0-.3.29-.36.46-.28.56.29,1.21.4,1.88.24.07.32.14.64.22.96-1.19-.42-2.5-.59-3.85-.38-.27.04-.51-.19-.62-.43-.08-.18-.09-.52.18-.56"/>
      <path class="cls-14" d="M701.04,251.45c1.5-.23,2.96-.02,4.29.44.19.07.39.29.44.53.04.19-.03.38-.22.43"/>
      <path class="cls-14" d="M706.96,254.28c1.38.6,3.43.44,4.87-.84,2.18-1.94,2.63-5.28,1.68-7.64-.1-.26.1-.43.32-.4.28.03.5.32.61.59.83,2.06.72,4.72-.6,6.89-1.23,2.03-3.25,2.89-5.17,2.72-.57-.05-1.15-.17-1.66-.4-.21-.09-.53-.37-.51-.67.02-.31.26-.33.46-.24"/>
    </g>
    <path class="cls-5" d="M685.48,261.8c-9.06-4.4-23.22-12.6-23.22-12.6,0,0-8.39,24.7,12.61,34.91,21,10.21,30.35-13.33,30.35-13.33,0,0-10.68-4.58-19.74-8.98Z"/>
    <path class="cls-14" d="M685.57,261.84c-4.31-2.09-21.31-11.26-21.31-11.26,0,0-1.27,18.32,14.31,25.89,16.89,8.21,25.52-6.25,25.52-6.25l-18.52-8.38Z"/>
    <path class="cls-22" d="M685.44,262.58c-4.31-2.09-17.06-9.19-17.06-9.19,0,0,2.43,7,15.35,13.28,12.92,6.28,19.24,3.7,19.24,3.7l-17.53-7.79Z"/>
    <path class="cls-5" d="M706.62,269.41c-.39-.33-1.12-.59-3.1-1.78-3.29-1.98-4.06-2.86-6.46-4.27-4.09-2.41-7.64-1.99-9.49-2.89-1.85-.9-3.71-3.95-8.14-5.68-2.59-1.01-9.22-3.08-12.81-4.45-2.15-.82-4.17-2.83-4.67-2.93-.69-.14-1.77,5.1,21.51,16.41,23.27,11.31,23.7,6.04,23.16,5.58Z"/>
    <path class="cls-17" d="M630.26,174.07c-.85,3.33-6.92,15.6-7.94,18.81l-16.22-7.72c-.09-12.95-2.18-19.32-2.75-23.05-.9-5.82,5.17-23.62,7.01-29.09,3.11-9.24,11.25-19.27,18.27-26.43,7.73-7.88,14.57-11.58,24.72-15.46,20.7-7.93,49.61-4.67,73.65,8.3,2.28,1.23,4.53,2.55,6.65,3.92,20.14,12.91,34.51,26.28,40.22,50.35,4.12,17.36-.59,29.5-9.26,47.96,7.38-17.95,7.99-34.9,7.96-35.55-.52-14.72-6.52-21.59-11.48-24.76-4.32-2.77-8.34-3.11-9.15-3.15-5.77-1.21-13.12-5.4-18.28-8.71-3.85-2.47-6.8-4.65-7.6-5.25-1.92-3.17-5.46-6.45-10.24-9.52-11.11-7.12-29.27-12.84-35.16-9.28-6.53,3.95-24.63,20.37-26.84,25.12,0,0-17.44,19.58-23.56,43.52Z"/>
    <path class="cls-17" d="M683.44,300.29c-.19-.12-.35-.28-.46-.47-2.18-3.54-1.88-4.82-3.26-5.9-.32-.25-.44-.46-1.47-1.13-4.15-2.67-6.64-4.38-22.02-2.33-.31.04-14.98-9.13-15.27-9.3l-6.29-7.51c-.96-1.45-19.39-40.76-19.39-40.76-.06-1.06-2.73-9.61-2.57-10.52-.07-.09-.14-.19-.22-.27-.03-.03-.09-.1-.16-.17-.04.05-.09.11-.12.14-.21.32-.37.69-.52,1.04-.63,1.55,4.47-8.06,4.25-6.39-.33,2.56-1.23,5.76-1.65,8.28-.15.89-2.76,13.11-2.83,14.01,2.45,3.72,10.78,40.75,20.4,52.67.71.59,1.02,2.27,7.56,5.98,12.27,6.97,24.61,12.64,38.85,14.8,3.72.56,7.44-.56,10.16-2.99,7.77-6.94,24.97-22.42,32.99-34.44-6.95,5.91-21.72,18.61-31.83,27.23-.31.26-5.28-1.71-5.73-1.78"/>
    <path class="cls-4" d="M630.26,174.07c-.85,3.33-6.92,15.6-7.94,18.81l-16.22-7.72c-.09-12.95-2.18-19.32-2.75-23.05-.9-5.82,5.17-23.62,7.01-29.09,3.11-9.24,10-25.74,17.02-32.9,7.73-7.88,17.38-11.81,27.52-15.69,20.7-7.93,48.05,2.02,72.09,14.99,2.28,1.23,4.53,2.55,6.65,3.92,20.14,12.91,34.51,26.28,40.22,50.35,4.12,17.36.04,29.57-4.83,38.16,7.38-17.95,5.34-26.07,5.22-26.7-2.2-11.96-5.7-22.43-10.65-25.61-4.32-2.77-10.85-1.31-11.66-1.35-5.77-1.21-13.12-5.4-18.28-8.71-3.85-2.47-6.8-4.65-7.6-5.25-1.92-3.17-14.77-15.41-19.55-18.48-11.11-7.12-20.58-8.27-26.47-4.7-6.53,3.95-24,24.76-26.21,29.5,0,0-17.44,19.58-23.56,43.52Z"/>
    <path class="cls-17" d="M602.8,215.13c-15.28,8.96-11.76-16.5-11.76-16.5-3.98-15.53,1.67-27.38,5.86-35.33,4.19-7.95,13.05-3.59,13.05-3.59,7.18,4.42,8.63,10.1,2.82,38.66"/>
    <path class="cls-7" d="M606.19,181.15c-3.11-.49-5.48,1.41-6.79,4.09-.46.94-.71,1.93-1.04,2.91-.7,2.03-1.39,3.88-1.51,6.06-.11,1.97.04,8.14,3.45,7.21,2.36-.65,2.37-4.32,2.73-6.26.25-1.35.47-2.86,1.29-3.99.08-.11.3-.17.06-.12-.27.05.25.19.36.25.19.1.36.23.53.35.62.4,1.26.79,1.89,1.18.3.19,1.36-.03,1.41-.45.5-4.49,1.07-8.95.97-13.47-.06-2.68-.29-5.47-1.19-8.01-.3-.84-.75-2.13-1.53-2.67-.72-.51-1.87.23-2.52.61-3.6,2.09-5.88,5.82-7.2,9.67-.1.3,1.3.14,1.43-.25,1.25-3.63,3.86-8.46,7.69-9.74l-.94.07c.81.52,1.26,1.73,1.57,2.57,1.35,3.68,1.35,7.88,1.2,11.73-.13,3.31-.57,6.58-.93,9.87.47-.15.94-.3,1.41-.45-1.51-.94-3.26-2.61-5.09-1.42-1.74,1.13-1.8,4.37-2.13,6.18-.2,1.12-.36,2.42-.94,3.42-.04.06-.32.4-.32.45.03.18.3-.14.33-.04,0-.03-.31-.11-.36-.17-.48-.55-.83-1.01-1.08-1.71-.66-1.81-.76-3.85-.58-5.75.18-1.96.87-3.61,1.48-5.44.77-2.31,2.02-6.59,5.2-6.09.31.05.75,0,1.01-.18.08-.06.53-.35.17-.4h0Z"/>
    <path class="cls-11" d="M618.2,337.74c-.23,3.08-.46,6.16-.69,9.24-.55,7.44-1.11,14.88-1.66,22.32-.67,8.96-1.33,17.93-2,26.89-.58,7.75-1.15,15.51-1.73,23.26-.19,2.57-.38,5.14-.57,7.71-.09,1.16-.39,2.5-.27,3.66,0,.05,0,.11-.01.16-.02.2.12.35.31.41,3.65,1.15,7.3,2.29,10.95,3.44.37.12,1.11-.06,1.16-.53.31-2.91.61-5.82.92-8.73.74-6.99,1.47-13.98,2.21-20.97.89-8.45,1.78-16.91,2.67-25.36l2.3-21.83c.26-2.42.51-4.85.77-7.27.11-1.08.45-2.34.36-3.43,0-.05.01-.11.02-.16.01-.14-.05-.26-.17-.34-4.42-2.98-8.84-5.96-13.27-8.94-.5-.34-1.79.36-1.12.81,3.09,2.08,6.17,4.16,9.26,6.24.86.58,1.72,1.16,2.58,1.74.26.18,1.01.9,1.33.9.07,0,.06-.36-.1-.15-.07.09-.04.42-.06.53-.57,5.42-1.14,10.83-1.71,16.25-1,9.49-2,18.97-3,28.46-.98,9.27-1.96,18.55-2.93,27.82l-1.02,9.66c-.11,1.02-.22,2.04-.32,3.07-.05.49-.23,1.13-.17,1.62,0,.06-.02.14-.02.21l1.16-.53c-3.65-1.15-7.3-2.29-10.95-3.44l.31.41c.23-3.08.46-6.16.69-9.24.55-7.44,1.11-14.88,1.66-22.32.67-8.96,1.33-17.93,2-26.89.58-7.75,1.15-15.51,1.73-23.26l.57-7.71c.09-1.16.39-2.5.27-3.66,0-.05,0-.11.01-.16.05-.72-1.42-.5-1.46.13Z"/>
    <g>
      <polygon class="cls-27" points="653.73 345.4 622.95 434.36 628.26 384.03 640.07 347.51 653.73 345.4"/>
      <path class="cls-11" d="M653.02,345.53c-1.02,2.96-2.05,5.92-3.07,8.88-2.44,7.06-4.89,14.13-7.33,21.19-2.97,8.58-5.94,17.17-8.91,25.75-2.56,7.39-5.11,14.78-7.67,22.16-.84,2.44-1.69,4.88-2.53,7.32-.37,1.07-1.08,2.37-1.21,3.49,0,.05-.04.11-.06.16l1.44-.32c.48-4.55.96-9.09,1.44-13.64.88-8.3,1.75-16.6,2.63-24.91l.95-8.98c.09-.9.16-2.25.34-2.91.57-2.09,1.34-4.15,2.01-6.21,1.24-3.84,2.48-7.68,3.73-11.52,1.25-3.86,2.49-7.71,3.74-11.57.46-1.43.92-2.85,1.38-4.28.25-.78.65-1.62.79-2.44.02-.11.07-.23.11-.33l-.85.4c4.55-.7,9.11-1.41,13.66-2.11.59-.09,1.29-.7.27-.54-4.55.7-9.11,1.41-13.66,2.11-.21.03-.77.15-.85.4-1.69,5.22-3.38,10.44-5.07,15.66-2.15,6.64-4.3,13.29-6.45,19.93-.26.81-.36,1.48-.45,2.33l-.81,7.68c-.86,8.19-1.73,16.38-2.59,24.57-.38,3.58-.76,7.16-1.13,10.74l-.39,3.73c-.06.59-.31,1.41-.21,2,.01.08-.02.19-.03.27-.03.24,1.34-.02,1.44-.32,1.02-2.96,2.05-5.92,3.07-8.88,2.44-7.06,4.89-14.13,7.33-21.19,2.97-8.58,5.94-17.17,8.91-25.75,2.56-7.39,5.11-14.78,7.67-22.16.84-2.44,1.69-4.88,2.53-7.32l.79-2.29c.11-.33.42-.85.42-1.21,0-.05.04-.11.06-.16.1-.27-1.3-.12-1.43.25Z"/>
    </g>
  </g>
</svg>