<?xml version="1.0" encoding="UTF-8"?>
<svg xmlns="http://www.w3.org/2000/svg" viewBox="0 0 1398.46 1051.38">
  <defs>
    <style>
      .cls-1 {
        fill: #f4c540;
      }

      .cls-1, .cls-2, .cls-3, .cls-4, .cls-5, .cls-6, .cls-7, .cls-8, .cls-9, .cls-10, .cls-11, .cls-12, .cls-13, .cls-14, .cls-15, .cls-16, .cls-17 {
        stroke-width: 0px;
      }

      .cls-2 {
        fill: #462921;
      }

      .cls-3 {
        fill: #5c2d0d;
      }

      .cls-4 {
        fill: #8d221c;
      }

      .cls-5 {
        fill: #ffe8b0;
      }

      .cls-6 {
        fill: #7c7c7c;
      }

      .cls-7 {
        fill: #c19229;
      }

      .cls-8 {
        fill: #44211a;
      }

      .cls-9 {
        fill: #ddac4a;
      }

      .cls-10 {
        fill: #e8e2d4;
      }

      .cls-11 {
        fill: #ffd876;
      }

      .cls-18 {
        opacity: .61;
      }

      .cls-12 {
        fill: #a97e62;
      }

      .cls-13 {
        fill: #004558;
      }

      .cls-14 {
        fill: #ebe2c6;
      }

      .cls-15 {
        fill: #dba231;
      }

      .cls-16 {
        fill: #fff;
      }

      .cls-17 {
        fill: #adadad;
      }
    </style>
  </defs>
  <g id="Layer_1" data-name="Layer 1">
    <line class="cls-4" x1="733.3" y1="1023.94" x2="728.62" y2="1017.36"/>
  </g>
  <g id="Layer_2" data-name="Layer 2">
    <rect class="cls-14" x="-18.18" y="-20.43" width="1431.13" height="1057.58" rx="12" ry="12"/>
    <rect class="cls-12" x="-28.51" y="843.32" width="1461.47" height="363.04"/>
    <path class="cls-13" d="M708.26,960l616.96,14.12c9.15.21,13.88-10.12,7.42-16.22l-84.01-79.33-522.23-6.22-18.14,87.64Z"/>
    <path class="cls-13" d="M626.89,860.74h156.59c14.49,0,26.25,11.76,26.25,26.25v60.9c0,14.49-11.76,26.25-26.25,26.25h-156.59c-14.49,0-26.25-11.76-26.25-26.25v-60.9c0-14.49,11.76-26.25,26.25-26.25Z"/>
    <path class="cls-13" d="M702.11,960l-616.96,14.12c-9.15.21-13.88-10.12-7.42-16.22l84.01-79.33,538.25-12.32,2.12,93.75Z"/>
    <polygon class="cls-8" points="708.63 943.57 1312.77 955.06 1274.5 911.07 709.66 898.14 708.63 943.57"/>
    <g>
      <path class="cls-16" d="M1260.73,873.69l-74.35-60.28c-216.34-4.69-322.83-131.28-481.2-6.49v90.74c494.52,53.14,555.55-23.97,555.55-23.97Z"/>
      <path class="cls-2" d="M1262.1,873.2c-10.53-8.54-21.06-17.08-31.59-25.62-13.55-10.99-27.1-21.98-40.65-32.96-1.29-1.04-1.8-1.76-3.48-1.81-9.07-.3-18.12-.64-27.17-1.29-17.28-1.23-34.51-3.26-51.62-5.99-30.77-4.9-61.1-12.11-91.17-20.2-26.8-7.21-53.41-15.15-80.38-21.73-24.23-5.91-48.87-10.68-73.83-11.83-24.55-1.13-49.19,1.52-72.74,8.66-27.44,8.33-52.77,22.27-75.83,39.18-1.63,1.2-3.25,2.41-4.86,3.63-.82.62-1.63,1.25-2.44,1.88-.62.48-2.19,1.32-2.51,1.99-.14.3-.04.61-.08.94-.27,2.03,0,4.3,0,6.35,0,8.64,0,17.28,0,25.92,0,18.11,0,36.22,0,54.33v3.4c.05.1.14.15.26.16,44.28,4.75,88.63,8.87,133.04,12.06,36.9,2.65,73.85,4.67,110.83,5.76,29.96.89,59.94,1.18,89.9.56,23.59-.48,47.18-1.52,70.71-3.41,18.26-1.47,36.49-3.46,54.6-6.26,13.48-2.09,26.9-4.63,40.14-7.91,9.47-2.35,18.86-5.08,28.01-8.47,6.13-2.27,12.16-4.83,17.92-7.91,3.31-1.77,6.55-3.72,9.53-6.02.79-.61,2.93-1.88,3.25-2.91.03-.1.16-.18.22-.26.15-.19-2.32-.15-2.85.52.16-.2-.15.18-.31.33-.46.45-.91.89-1.4,1.31-2.11,1.83-3.93,3.05-6.39,4.55-4.15,2.54-8.23,4.53-12.79,6.51-6.69,2.9-13.75,5.37-20.83,7.51-10.19,3.08-20.56,5.56-31,7.67-14.08,2.84-28.28,5.02-42.53,6.77-18.5,2.27-37.08,3.84-55.69,4.94-23.67,1.4-47.38,2.05-71.09,2.19-29.03.18-58.07-.41-87.08-1.52-35.25-1.35-70.47-3.48-105.65-6.16-20.08-1.53-40.14-3.25-60.19-5.12-10.59-.99-21.18-2.02-31.77-3.09-5.83-.59-11.65-1.19-17.48-1.81-2.43-.26-5.28-.16-7.64-.81s-.43.43-.84-.24c-.23-.37,0-1.63,0-2.06v-3.82c0-3.87,0-7.73,0-11.6,0-10.77,0-21.55,0-32.32v-38.59c0-.47-.18-1.41,0-1.85.16-.39.49-.47.91-.78,1.91-1.36,3.71-2.87,5.58-4.28,24.85-18.66,52.51-34.02,82.64-42.15,25.55-6.89,52.13-8.18,78.4-5.62,27.15,2.65,53.79,9.04,80.09,16.06,29.13,7.77,58.04,16.36,87.32,23.57,33.02,8.13,66.48,14.49,100.34,17.81,9.44.93,18.9,1.62,28.37,2.08,2.19.11,4.39.2,6.59.28,2.42.09,5.25-.26,7.61.23.77.16.61.09,1.3.56,5.29,3.53,10.1,8.19,15.04,12.19,16.19,13.13,32.38,26.25,48.57,39.38,3.32,2.69,6.65,5.39,9.97,8.08.6.48,3.13-.65,2.73-.98Z"/>
    </g>
    <g>
      <path class="cls-16" d="M1206.72,784.58l-80.45-53.9c-141.63,24.11-303.85-125.35-421.09,76.42v79.05c104.54-170.4,326.85-55.58,501.53-101.57Z"/>
      <path class="cls-2" d="M1207.85,783.81c-11.06-7.41-22.12-14.82-33.18-22.23-14.74-9.87-29.47-19.74-44.21-29.62-.94-.63-1.99-1.62-3.05-2.04-1.79-.72-5.14.49-7.03.75-2.94.4-5.88.73-8.83.99-11.96,1.06-23.98,1.01-35.96.21-24.67-1.64-49.02-6.37-73.14-11.62-24.38-5.3-48.63-11.23-73.21-15.55-23.52-4.13-47.45-6.83-71.35-5.4-23.76,1.42-47.19,7.24-68.31,18.34-25.17,13.23-46.13,33.08-63.32,55.55-5.2,6.8-10.08,13.83-14.69,21.03-2.52,3.94-5.06,7.91-7.33,12-.49.89-.51.97-.54,1.82-.27,6.39,0,12.86,0,19.26,0,18.43,0,36.86,0,55.29,0,1.23,0,2.47,0,3.7,0,1.42,2.36.72,2.83-.04,18.19-29.54,42.99-54.5,73.95-70.52,28.89-14.95,61.12-21.8,93.33-24.55,34.9-2.98,70.03-1.49,104.93.56,36.4,2.13,72.77,5.05,109.24,5.57,35.61.51,71.48-1.23,106.36-8.84,4.22-.92,8.41-1.93,12.59-3.02,1.77-.46,1.31-2.21-.47-1.74-35.2,9.23-71.76,11.86-108.04,11.79-36.82-.08-73.56-2.89-110.29-5.15-35.25-2.17-70.68-3.97-105.97-1.65-32.44,2.13-65.07,7.98-94.79,21.61-30.72,14.09-56.54,36.4-75.89,64.03-2.68,3.83-5.23,7.74-7.68,11.72.94-.01,1.89-.03,2.83-.04,0-14.51,0-29.01,0-43.52,0-9.14,0-18.29,0-27.43,0-2.36-.13-4.76,0-7.12.04-.78.04-.78.36-1.5,1.86-4.17,4.87-8.15,7.33-12,16.42-25.72,36.63-49.64,62.14-66.75,20.22-13.56,43.3-22.02,67.42-25.2,23.38-3.08,47.1-1.55,70.36,1.85,24.39,3.57,48.42,9.2,72.46,14.58,23.82,5.34,47.74,10.55,72.01,13.38,11.77,1.37,23.62,2.16,35.47,2.05,5.88-.06,11.75-.32,17.61-.86,2.86-.26,5.71-.58,8.55-.97,1.38-.19,2.75-.39,4.12-.61.29-.05,1.67-.19.68-.43.04,0,.07.06.11.07,1.25.44,2.57,1.72,3.66,2.45,2.62,1.76,5.24,3.51,7.87,5.27,7.86,5.27,15.73,10.54,23.59,15.81,14.21,9.52,28.43,19.05,42.64,28.57.85.57,1.71,1.14,2.56,1.72.93.62,3.55-.69,2.27-1.55Z"/>
    </g>
    <polygon class="cls-8" points="701.74 943.57 97.6 955.06 135.87 911.07 700.71 898.14 701.74 943.57"/>
    <g>
      <path class="cls-16" d="M149.64,873.69l74.35-60.28c216.34-4.69,322.83-131.28,481.2-6.49v83.54c-494.52,53.14-555.55-16.77-555.55-16.77Z"/>
      <path class="cls-2" d="M150.81,873.96c8.37-6.78,16.73-13.57,25.1-20.35,13.34-10.82,26.69-21.64,40.03-32.46,3.07-2.49,6.15-4.98,9.22-7.47-.57.2-1.15.39-1.72.59,50.27-1.13,99.84-9.33,148.54-21.53,40.57-10.16,80.45-23.13,121.37-31.86,36.92-7.88,75.04-11.34,112.21-2.98,19.9,4.47,38.96,12.06,56.82,21.87,10.33,5.67,20.27,12.06,29.83,18.95,2.74,1.98,5.46,4,8.14,6.06.84.65,3.12,1.81,3.39,2.55.33.92,0,2.57,0,3.54v79.77l1.64-1.01c-44.14,4.74-88.34,8.89-132.6,12.21-36.74,2.75-73.53,4.94-110.35,6.28-29.63,1.08-59.28,1.63-88.93,1.37-23.54-.21-47.08-.91-70.58-2.4-18.2-1.15-36.39-2.76-54.48-5.13-13.4-1.76-26.76-3.93-39.98-6.79-9.31-2.02-18.56-4.37-27.61-7.33-5.91-1.93-11.75-4.13-17.36-6.82-3.22-1.54-6.38-3.25-9.32-5.28-.89-.62-1.87-1.76-3.07-2.49-.04-.02-.08-.08-.11-.12-.69-.79-3.46.27-2.69,1.16.61.69,1.38,1.27,2.1,1.83,2.43,1.87,5.1,3.43,7.81,4.86,4.95,2.6,10.15,4.73,15.4,6.62,8.24,2.96,16.67,5.35,25.18,7.4,12.18,2.94,24.53,5.19,36.92,7.05,16.84,2.53,33.78,4.32,50.75,5.67,22.22,1.76,44.5,2.73,66.78,3.2,28.42.6,56.85.39,85.26-.36,34.93-.93,69.83-2.67,104.69-4.97,42.51-2.81,84.96-6.46,127.34-10.69,11.49-1.15,22.98-2.34,34.47-3.58.44-.05,1.64-.4,1.64-1.01v-80.48c0-1.61.38-2.94-.81-4.02-5.76-5.26-12.78-9.68-19.23-14.04-6.26-4.23-12.68-8.23-19.26-11.95-11.82-6.67-24.18-12.41-36.99-16.91-23.19-8.15-47.64-11.93-72.2-11.64-24.41.28-48.6,4.28-72.36,9.67-26.19,5.94-51.97,13.52-77.85,20.65-29.07,8.01-58.3,15.51-87.97,20.96-16.14,2.97-32.39,5.36-48.72,7.06-8.61.9-17.24,1.61-25.88,2.12-4.72.28-9.44.5-14.17.66-2.46.08-6.27-.62-8.41.78-3.51,2.3-6.7,5.43-9.96,8.07-7.21,5.84-14.42,11.69-21.63,17.53-13.44,10.9-26.89,21.8-40.33,32.7-.81.65-1.61,1.31-2.42,1.96-1.3,1.05,1.57,1.15,2.34.53Z"/>
    </g>
    <g>
      <path class="cls-10" d="M97.75,953.17l51.89-79.48c216.34-4.69,439.81-148.02,574.52,40.53l-90.54,30.8c-70.58-53.06-156.99,4.43-535.86,8.15Z"/>
      <path class="cls-2" d="M99.18,952.92c15.17-23.23,30.33-46.46,45.5-69.69,2.13-3.26,4.26-6.53,6.39-9.79-.68.28-1.37.57-2.05.85,42.18-.95,84.05-7.01,125.46-14.82,41.31-7.79,82.25-17.39,123.46-25.64,38.63-7.74,77.72-14.48,117.16-15.85,36.05-1.25,72.65,2.37,106.53,15.33,35.9,13.74,66.52,37.79,90.61,67.53,3.63,4.48,7.11,9.08,10.47,13.76l.94-.74c-26.39,8.98-52.77,17.95-79.16,26.93-3.79,1.29-7.59,2.58-11.38,3.87l1.87-.15c-13.43-10.07-28.82-16.66-45.32-19.72-19.99-3.71-40.62-3.11-60.81-1.82-29.91,1.91-59.71,5.6-89.5,8.85-43.12,4.71-86.29,8.95-129.55,12.16-61.07,4.52-122.27,7.14-183.5,8.2-9.21.16-18.41.28-27.62.37-.64,0-3.28,1.23-1.87,1.22,41.99-.42,83.97-1.51,125.92-3.45,34.54-1.59,69.05-3.75,103.52-6.5,27.78-2.22,55.53-4.84,83.25-7.73,22.02-2.3,44.02-4.79,66.03-7.15,17.26-1.85,34.54-3.64,51.87-4.75,13.56-.87,27.19-1.35,40.77-.52,11,.68,21.99,2.28,32.53,5.55,9.88,3.07,19.21,7.66,27.72,13.53,1.92,1.32,3.46,3.25,5.88,2.55,1.74-.51,3.45-1.17,5.17-1.76,8.46-2.88,16.93-5.76,25.39-8.64,18.74-6.38,37.48-12.75,56.23-19.13,1.19-.41,2.38-.81,3.57-1.22.11-.04,1.14-.47.94-.74-15.82-22.07-34.59-42.09-56.83-57.79-19.58-13.83-41.53-24.02-64.63-30.37-47.54-13.07-97.93-10.31-146.23-3.39-55.36,7.92-109.71,21.53-164.5,32.5-28.07,5.62-56.29,10.65-84.72,14.03-14.18,1.69-28.42,2.97-42.68,3.7-3.4.17-6.79.32-10.19.43-2.08.07-5.75-.66-7.49.85-.61.53-1.04,1.56-1.47,2.23-16.37,25.08-32.74,50.16-49.12,75.23-.47.72-.94,1.45-1.42,2.17-.22.34,2.39.23,2.86-.5Z"/>
    </g>
    <g>
      <path class="cls-10" d="M1312.62,953.17l-51.89-79.48c-200.14-4.34-450.91-124.73-555.55,16.77v36.58s71.33,17.98,71.33,17.98c113.58-66.16,157.24,4.43,536.11,8.15Z"/>
      <path class="cls-2" d="M1313.97,952.6c-7-10.72-14-21.45-21-32.17-9.5-14.55-18.99-29.09-28.49-43.64-.64-.98-1.38-2.83-2.33-3.56-1.16-.9-3.65-.44-5.08-.48-3.68-.11-7.37-.26-11.05-.44-14.76-.73-29.48-2-44.16-3.64-30.63-3.43-61.05-8.45-91.38-13.91-30.58-5.5-61.07-11.49-91.65-16.98-29.2-5.24-58.5-10.04-88-13.24-26.93-2.91-54.09-4.49-81.17-3.01-24.26,1.32-48.57,5.22-71.45,13.61-21.61,7.93-41.59,20.08-57.99,36.3-4.21,4.16-8.18,8.57-11.91,13.17-1.32,1.63-4.01,4.06-4.59,6.08-.21.73,0,1.86,0,2.6,0,9.05,0,18.1,0,27.16,0,2.25,0,4.51,0,6.76,0,.38.2.53.57.62,15.74,3.97,31.49,7.94,47.23,11.91,7.51,1.89,15.03,3.79,22.54,5.68,2.4.61,3.63-.14,5.84-1.4,3.16-1.8,6.36-3.55,9.6-5.23,11.65-6.04,23.83-11.13,36.47-14.7,11.64-3.28,23.61-5.22,35.68-6,13.06-.84,26.18-.37,39.21.66,15.58,1.23,31.08,3.24,46.56,5.37,19.1,2.62,38.17,5.44,57.27,8.06,23.96,3.28,47.95,6.28,72,8.85,30.11,3.22,60.29,5.79,90.51,7.75,37.77,2.45,75.59,3.97,113.43,4.74,10.48.21,20.96.37,31.44.47,1.11.01,3.07-1.65,1.12-1.67-62.58-.63-125.16-3.14-187.53-8.39-42.91-3.61-85.66-8.66-128.31-14.61-29.04-4.05-58.05-8.74-87.25-11.53-21.72-2.08-43.75-2.89-65.37.6-21.51,3.47-41.88,11.29-61,21.62-2.73,1.48-5.43,3-8.12,4.56l1.79-.35c-20.84-5.25-41.67-10.51-62.51-15.76-2.94-.74-5.88-1.48-8.82-2.22l.57.62c0-7.1,0-14.19,0-21.29v-12.46c0-.77-.23-1.96,0-2.71.6-1.96,3.31-4.37,4.63-5.99,14.87-18.28,33.79-32.87,55.19-42.72,21.71-9.98,45.3-15.16,68.99-17.48,26.35-2.58,52.96-1.75,79.3.54,28.99,2.52,57.78,6.9,86.45,11.83,29.91,5.15,59.71,10.96,89.56,16.49,29.99,5.55,60.05,10.84,90.29,14.85,14.37,1.91,28.78,3.52,43.23,4.7,7.15.58,14.32,1.06,21.49,1.4,3.54.17,7.08.31,10.62.41,1.3.04,2.53-.39,3.26.21,1.13.93,1.99,3.05,2.78,4.26,1.76,2.69,3.51,5.38,5.27,8.07,5.06,7.74,10.11,15.49,15.17,23.23,8.95,13.71,17.9,27.42,26.85,41.13.52.8,1.05,1.61,1.57,2.41s3.35-.13,2.69-1.14Z"/>
    </g>
    <g>
      <path class="cls-16" d="M195.65,775.9l70.1-52.69c141.63,24.11,322.19-117.88,439.43,83.89v79.05c-185.25-205.1-334.85-64.26-509.53-110.25Z"/>
      <path class="cls-2" d="M196.78,776.03c7.89-5.93,15.78-11.86,23.67-17.79,12.58-9.46,25.16-18.91,37.74-28.37,2.9-2.18,5.79-4.36,8.69-6.53-.68.18-1.37.37-2.05.55,18.12,3.06,36.6,3.42,54.91,2.27,19.17-1.2,38.2-3.99,57.11-7.29,19.67-3.43,39.24-7.43,58.88-11.04,19.6-3.61,39.3-6.87,59.16-8.69,19.18-1.76,38.55-2.18,57.72-.05s38.01,6.91,55.61,14.86c19.36,8.75,36.82,21.23,51.96,36.09,8.7,8.53,16.64,17.81,23.93,27.57,4.15,5.55,8.08,11.26,11.82,17.09,1.91,2.98,3.78,5.99,5.59,9.03.72,1.21,1.94,2.63,2.21,3.99.25,1.25,0,2.8,0,4.07v7.95c0,7.65,0,15.3,0,22.95,0,13.8,0,27.6,0,41.4,0,.81,0,1.63,0,2.44.94-.31,1.87-.61,2.81-.92-30.13-33.3-64.5-63.41-104.47-84.33-30.86-16.15-64.52-25.97-99.15-29.46-32.04-3.23-64.29-1.31-96.24,2.01-32.32,3.35-64.51,8.09-96.96,10.19-33.43,2.16-67.14,1.32-100-5.68-4.32-.92-8.62-1.95-12.89-3.07-.76-.2-3.34.99-2.35,1.25,32.4,8.49,65.9,10.9,99.29,9.65,32.29-1.21,64.33-5.58,96.39-9.25,32.11-3.68,64.48-6.65,96.83-4.82,34.31,1.93,68.03,9.6,99.34,23.89,39.55,18.05,74.08,45.51,104.25,76.54,4.51,4.63,8.92,9.36,13.25,14.15.53.58,2.81-.09,2.81-.92,0-14.95,0-29.9,0-44.85,0-9.09,0-18.18,0-27.26,0-2.06.29-4.37,0-6.42-.22-1.55-1.4-2.91-2.21-4.26-2.31-3.87-4.7-7.7-7.17-11.47-16.29-24.88-36.3-47.69-61.05-64.44-20.32-13.75-43.34-22.83-67.45-27.23-23.85-4.35-48.3-4.28-72.37-2.09-24.97,2.27-49.67,6.74-74.28,11.44-24.57,4.69-49.12,9.66-73.94,12.91-23.5,3.08-47.42,4.61-71.04,1.93-2.87-.33-5.73-.71-8.59-1.17-1.52-.24-2.66-.52-4.03.33-1.39.86-2.67,2.01-3.97,2.99-6.53,4.91-13.06,9.81-19.58,14.72-14.55,10.94-29.11,21.88-43.66,32.82-.92.69-1.85,1.39-2.77,2.08-1.23.92,1.65.72,2.27.26Z"/>
    </g>
    <g>
      <path class="cls-16" d="M1158.17,683.03l-68.55-51.35c-181.93,56.15-258.46-26.34-384.43,175.43v74.04c89.47-175.82,265.29-152.13,452.99-198.12Z"/>
      <path class="cls-2" d="M1159.52,682.45c-11.3-8.47-22.61-16.94-33.91-25.41-7.79-5.84-15.59-11.68-23.38-17.51-2.64-1.97-5.27-3.95-7.91-5.92-1.06-.79-2.15-1.89-3.33-2.5-.79-.41-1.31-.26-2.18-.01-1.81.51-3.61,1.1-5.42,1.63-3.44,1.02-6.9,2-10.36,2.95-6.65,1.82-13.33,3.51-20.04,5.06-12.55,2.91-25.21,5.34-37.94,7.35-22.11,3.48-44.39,5.58-66.68,7.43-19.42,1.61-38.9,3.03-58.17,6.02-18.19,2.82-36.18,7.15-53.23,14.16-18.77,7.72-36.05,18.59-51.61,31.58-20.43,17.05-37.95,37.4-53.74,58.73-4.85,6.55-9.55,13.22-14.11,19.98-2.44,3.61-4.83,7.24-7.2,10.9-1.19,1.83-2.36,3.67-3.53,5.52-.91,1.43-2.61,3.25-3.03,4.88-.32,1.25,0,3.01,0,4.29,0,3.55,0,7.1,0,10.65,0,18.42,0,36.83,0,55.25,0,1.28,0,2.57,0,3.85s2.43.6,2.8-.13c15.69-30.75,36.04-59.11,61.82-82.21,22.93-20.55,49.59-36.4,77.96-48.23,29.35-12.24,60.26-20.35,91.34-26.8,33.29-6.9,66.94-11.92,100.51-17.25,35.83-5.69,71.64-11.7,107.02-19.81,4.41-1.01,8.81-2.05,13.2-3.13,1.76-.43,1.35-1.95-.41-1.52-35.87,8.77-72.24,15.2-108.68,21.06-34.07,5.48-68.23,10.47-102.1,17.11-31.46,6.17-62.76,13.82-92.73,25.33-28.79,11.06-56.16,25.91-80.06,45.5-26.13,21.41-47.43,48.09-63.96,77.47-2.29,4.07-4.49,8.19-6.61,12.35.93-.04,1.87-.08,2.8-.13,0-10.61,0-21.23,0-31.84,0-13.46,0-26.92,0-40.38,0-.48-.08-1.02,0-1.5.21-1.31,1.49-2.63,2.21-3.77,3.77-5.96,7.62-11.86,11.57-17.7,7.05-10.43,14.42-20.66,22.2-30.56,12.84-16.33,26.87-31.84,42.66-45.38,12.59-10.8,26.36-20.27,41.24-27.64,13.22-6.54,27.19-11.37,41.52-14.78,14.32-3.41,28.93-5.45,43.56-7,15.89-1.68,31.84-2.81,47.76-4.2,17.9-1.56,35.76-3.45,53.52-6.19,20.51-3.16,40.84-7.43,60.85-12.92,5.39-1.48,10.75-3.05,16.09-4.69-.52-.06-1.03-.12-1.55-.18,7.74,5.8,15.49,11.6,23.23,17.4,12.27,9.19,24.55,18.39,36.82,27.58,2.83,2.12,5.67,4.24,8.5,6.37.84.63,3.52-.53,2.69-1.15Z"/>
    </g>
    <g>
      <path class="cls-16" d="M1071.16,608.52l-60.57-60.56c-154.07,2.27-289.92,126.22-306.29,262.11l-1.73,67.89c41.56-156.23,176.27-250.55,368.6-269.43Z"/>
      <path class="cls-2" d="M1072.48,607.88c-7.48-7.47-14.95-14.95-22.43-22.42-11.08-11.08-22.16-22.16-33.24-33.23-1.34-1.34-2.68-2.68-4.02-4.02-.27-.27-.52-.58-.82-.82-1.27-1-3.59-.47-5.14-.43-13.04.36-26.05,1.6-38.92,3.68-25.39,4.09-50.21,11.38-73.86,21.46-23.47,10.01-45.77,22.78-66.36,37.84-20.27,14.83-38.93,31.9-55.41,50.86-16.08,18.49-30.12,38.82-41.42,60.58-10.95,21.08-19.31,43.53-24.34,66.76-1.25,5.76-2.29,11.57-3.11,17.42-.3,2.11-.59,4.18-.65,6.3-.15,5.93-.3,11.86-.45,17.8l-1.16,45.43c-.03.99-.05,1.99-.08,2.98-.04,1.62,2.62.99,2.94-.21,7.83-29.37,19.35-57.76,34.65-84.05,14.82-25.45,33.16-48.78,54.28-69.3,21.66-21.04,46.2-39.07,72.42-54,27.91-15.89,57.69-28.35,88.34-37.85,33.77-10.47,68.59-17.42,103.69-21.58,4.54-.54,9.08-1.03,13.63-1.48,1.63-.16,2.22-2.35.25-2.16-36.03,3.55-71.85,9.87-106.69,19.8-31.57,9-62.37,20.96-91.33,36.46-26.96,14.43-52.32,31.92-74.91,52.56-21.88,19.99-41.07,42.82-56.83,67.92-16.2,25.79-28.65,53.84-37.35,83.02-1.08,3.61-2.1,7.23-3.07,10.87l2.94-.21c.19-7.64.39-15.27.58-22.91.31-12.22.62-24.45.94-36.67.07-2.72.03-5.47.21-8.19.22-3.36.88-6.75,1.42-10.07.72-4.37,1.55-8.72,2.51-13.04,3.87-17.53,9.67-34.61,17.05-50.97s16.78-32.82,27.34-47.9c10.7-15.28,22.76-29.59,35.92-42.8,13.42-13.47,28.01-25.77,43.51-36.78,15.67-11.13,32.3-20.9,49.66-29.16,17.59-8.37,35.91-15.16,54.73-20.17,18.97-5.06,38.4-8.29,57.99-9.56,4.85-.31,9.71-.5,14.58-.58l-1.2-.44c6.81,6.81,13.62,13.61,20.43,20.42,10.87,10.87,21.74,21.73,32.6,32.6,2.51,2.51,5.03,5.03,7.54,7.54.94.94,3.68-.26,2.65-1.29Z"/>
    </g>
    <path class="cls-3" d="M704.51,908.08c-26.27-22.86-56.92-40.04-90.43-49.65-32.11-9.22-65.75-11.57-99.02-10.25-36.26,1.43-72.23,7.03-107.89,13.5-39.06,7.08-77.9,15.33-117,22.18-40.72,7.13-81.76,12.78-123.09,14.66-5.22.24-10.44.41-15.66.53-1.6.04-2.27,2.04-.29,2,41.26-.92,82.3-5.81,122.99-12.51,38.75-6.38,77.21-14.39,115.79-21.7,36.11-6.84,72.46-13.14,109.16-15.78,33.74-2.42,68.03-1.61,101.1,6.07,33.34,7.75,64.49,22.65,91.44,43.75,3.63,2.84,7.17,5.79,10.65,8.81.9.78,3.47-.54,2.25-1.61h0Z"/>
    <path class="cls-3" d="M707.79,907.78c26.36-22.94,57.09-40.11,90.73-49.73,32.64-9.33,66.84-11.68,100.65-10.36,36.6,1.43,72.93,6.89,108.97,13.2,38.58,6.76,76.97,14.58,115.59,21.11,40.67,6.87,81.64,12.36,122.88,14.18,5.09.23,10.18.39,15.28.51,1.36.03,2.97-2,1.02-2.05-41.75-.94-83.29-5.82-124.49-12.43-39.5-6.34-78.72-14.28-118.09-21.38-36.71-6.62-73.68-12.6-110.96-14.74-33.84-1.94-68.1-.6-101.16,7.37-33.33,8.03-64.58,23.06-91.59,44.19-3.65,2.86-7.22,5.82-10.72,8.87-1.48,1.29.84,2.19,1.91,1.26h0Z"/>
    <path class="cls-3" d="M705.27,931.53c-26.47-23.04-57.34-40.26-91-50.24-33.01-9.79-67.63-12.71-101.94-12-37.41.77-74.62,5.7-111.53,11.62-39.86,6.39-79.5,14.02-119.35,20.44-41.38,6.67-83.04,12.09-124.94,13.91-5.16.23-10.33.39-15.5.51-1.54.03-2.32,1.89-.33,1.85,41.6-.93,82.99-5.61,124.09-11.86,39.59-6.02,78.94-13.5,118.42-20.16,37.06-6.25,74.34-11.85,111.91-13.84,34.63-1.83,69.74-.47,103.59,7.59,33.77,8.04,65.47,22.97,92.89,44.3,3.76,2.92,7.42,5.96,11.01,9.08.87.75,3.59-.4,2.67-1.2h0Z"/>
    <path class="cls-3" d="M708.53,931.12c26.78-23.3,58.16-40.44,92.36-50.04,33.58-9.42,68.72-11.77,103.45-10.59,37.56,1.28,74.88,6.55,111.91,12.69,39.51,6.54,78.83,14.17,118.36,20.57,40.78,6.6,81.83,11.93,123.13,13.75,5.2.23,10.39.4,15.59.51.99.02,3.11-1.44,1.17-1.48-42.5-.95-84.77-5.89-126.74-12.42-40.35-6.27-80.45-14.03-120.71-20.87-37.61-6.38-75.46-12.03-113.59-13.9-34.74-1.7-69.9-.12-103.81,8.1-33.72,8.17-65.43,23.18-92.79,44.56-3.62,2.83-7.15,5.76-10.62,8.78-1.21,1.05,1.65.9,2.29.34h0Z"/>
    <g>
      <path class="cls-16" d="M230.93,681.99l68.55-51.35c113.17-5.8,279.73-25.3,405.71,176.47v74.04c-111.67-205.97-303.08-188-474.26-199.16Z"/>
      <path class="cls-2" d="M231.85,682.51c10.73-8.04,21.46-16.08,32.19-24.11,7.69-5.76,15.37-11.52,23.06-17.27,2.82-2.11,5.65-4.23,8.47-6.34,1.47-1.1,3.12-2.12,4.47-3.35.09-.08.21-.17.32-.24.21-.13-.68.31-.64.33.42.15,1.42-.07,1.85-.1,2.29-.12,4.58-.24,6.87-.37,4.56-.25,9.11-.51,13.67-.76,9.67-.53,19.35-1.03,29.03-1.41,20.68-.8,41.41-.99,62.08.11,22.13,1.18,44.2,3.83,65.86,8.56,23.3,5.09,46.08,12.58,67.71,22.66,23.94,11.16,46.39,25.41,66.83,42.12,23.88,19.51,45.02,42.22,63.66,66.75,5.28,6.95,10.37,14.04,15.28,21.27,2.59,3.82,5.13,7.67,7.62,11.55,1.04,1.62,2.65,3.46,3.37,5.2.11.26.11.18.17.46.35,1.78,0,3.99,0,5.79,0,3.76,0,7.53,0,11.29,0,17.67,0,35.34,0,53v3.64c.93-.25,1.86-.5,2.79-.75-19.59-36.07-44.05-69.63-74.36-97.45-25.77-23.64-55.41-42.71-87.43-56.74-30.88-13.53-63.58-22.43-96.72-28.35-33.56-6-67.57-9.05-101.58-11.11-34.25-2.07-68.56-3.12-102.82-5.09-4.05-.23-8.1-.48-12.15-.74-1.24-.08-3.03,1.71-1.07,1.84,33.87,2.2,67.79,3.26,101.68,5.08,33.96,1.83,67.93,4.39,101.56,9.64,33.34,5.21,66.39,13.17,97.8,25.64,32.28,12.83,62.57,30.57,89.07,53.08,30.24,25.69,55.2,57.07,75.32,91.18,2.77,4.69,5.44,9.43,8.04,14.21.44.81,2.79.15,2.79-.75v-43.37c0-8.5,0-16.99,0-25.49,0-1.6.28-3.48,0-5.06-.07-.37-.16-.55-.35-.93-1.04-2.13-2.61-4.15-3.89-6.14-2.49-3.87-5.04-7.71-7.63-11.52-18.36-26.94-39.34-52.2-63.39-74.26-20.14-18.47-42.42-34.64-66.5-47.59-21.45-11.53-44.26-20.48-67.77-26.83-21.94-5.92-44.46-9.6-67.09-11.55-21.18-1.83-42.45-2.14-63.69-1.65-19.48.45-38.93,1.61-58.38,2.67-2.22.12-4.43.24-6.65.36-1.1.06-2.05.06-2.99.65-1.49.95-2.87,2.15-4.28,3.21-6.49,4.86-12.97,9.72-19.46,14.57-13.98,10.47-27.95,20.94-41.93,31.41-.88.66-1.76,1.32-2.64,1.98-1.57,1.18.84,1.81,1.85,1.05Z"/>
    </g>
    <path class="cls-3" d="M702.83,955.79c-26.78-23.3-58.09-40.53-92.07-50.78-33.7-10.16-69.08-13.57-104.17-13.41-38.4.18-76.68,4.47-114.66,9.83-40.64,5.74-81.08,12.81-121.68,18.85-41.93,6.24-84.08,11.46-126.46,13.26-5.27.22-10.55.39-15.82.51-1.06.02-3.08,1.66-1.13,1.62,41.73-.93,83.29-5.36,124.6-11.15,40.6-5.69,81-12.7,121.54-18.8,38.32-5.76,76.86-10.8,115.62-12.16,35.62-1.25,71.62.66,106.34,9.17,34.26,8.39,66.59,23.54,94.42,45.28,3.67,2.87,7.26,5.84,10.78,8.9.76.66,3.46-.46,2.69-1.13h0Z"/>
    <path class="cls-3" d="M706.07,955.33c27.12-23.59,58.98-40.78,93.55-50.62,34.31-9.77,70.2-12.58,105.74-11.91,38.73.72,77.28,5.46,115.56,11.13,40.43,6,80.67,13.16,121.08,19.23,41.25,6.2,82.73,11.3,124.43,13.07,5.14.22,10.28.38,15.43.5.99.02,3.11-1.44,1.17-1.48-42.87-.96-85.54-5.73-127.95-11.87-41.22-5.97-82.24-13.26-123.42-19.55-38.7-5.9-77.64-10.99-116.8-12.3-35.69-1.2-71.75.87-106.5,9.49-33.98,8.43-66.08,23.47-93.73,45.01-3.7,2.88-7.31,5.87-10.85,8.95-1.21,1.05,1.65.9,2.29.34h0Z"/>
    <path class="cls-8" d="M794.1,955.06c0-36.78-54.06-49.92-88.91-50.12-36.24-.2-88.91,13.34-88.91,50.12,0,1.66.08,3.3.24,4.92h177.34c.16-1.63.24-3.27.24-4.92Z"/>
  </g>
  <g id="Layer_3" data-name="Layer 3">
    <g>
      <path class="cls-7" d="M609.79,356.91c-5.17-9.94-9.41-17.97-12.38-23.5-1.49-2.76-2.65-4.9-3.46-6.33-.36-.76-.81-1.49-1.32-2.16.26.81.6,1.58,1,2.33.71,1.48,1.79,3.67,3.19,6.47,2.76,5.62,6.9,13.7,12.02,23.66,5.51,10.63,12.18,23.39,19.61,37.58.28-.13.56-.26.84-.39-7.33-14.24-13.96-27.04-19.5-37.66Z"/>
      <path class="cls-7" d="M537.08,457.75c-11.09-1.65-20.07-2.94-26.28-3.79-3.12-.42-5.52-.74-7.16-.93-.83-.14-1.68-.21-2.52-.2.8.26,1.63.45,2.46.56,1.63.31,4.03.72,7.11,1.23,6.2,1.03,15.15,2.44,26.24,4.14,10.47,1.61,22.84,3.47,36.53,5.49.07-.32.14-.63.21-.95-13.71-2.11-26.1-3.99-36.59-5.55Z"/>
      <path class="cls-7" d="M550.2,416.81c-10.02-4.96-18.15-8.98-23.81-11.71-2.83-1.36-5.02-2.41-6.52-3.1-.74-.4-1.52-.73-2.33-.97.68.49,1.41.92,2.17,1.29,1.43.88,3.61,1.98,6.4,3.42,5.57,2.89,13.65,7.01,23.66,12.06,9.9,5,21.7,10.9,34.8,17.42.16-.27.32-.55.48-.82-13.08-6.62-24.9-12.59-34.85-17.59Z"/>
      <path class="cls-7" d="M575.2,382.27c-8.01-7.85-14.52-14.17-19.05-18.51-2.28-2.16-4.05-3.83-5.26-4.96-.59-.61-1.23-1.16-1.92-1.63.5.68,1.06,1.31,1.67,1.89,1.13,1.19,2.83,2.95,5.04,5.18,4.46,4.46,10.84,10.88,18.72,18.82,8.24,8.12,18.14,17.82,29.14,28.56.25-.23.5-.45.75-.68-10.94-10.84-20.81-20.58-29.09-28.68Z"/>
      <path class="cls-7" d="M650.45,343.53c-1.91-11.04-3.47-19.99-4.54-26.16-.56-3.09-1.05-5.47-1.33-7.1-.12-.83-.32-1.66-.58-2.46,0,.84.07,1.69.23,2.52.21,1.63.57,4.04,1.03,7.14.94,6.21,2.37,15.17,4.19,26.23,1.98,12.08,4.44,26.67,7.2,42.92.31-.04.62-.09.94-.13-2.66-16.27-5.08-30.88-7.14-42.96Z"/>
      <path class="cls-7" d="M794.3,415.99c9.94-5.19,17.96-9.43,23.48-12.4,2.76-1.49,4.9-2.65,6.33-3.46.76-.37,1.48-.82,2.16-1.32-.8.26-1.58.59-2.32,1-1.49.71-3.68,1.79-6.48,3.19-5.61,2.81-13.68,6.97-23.65,12.09-10.7,5.53-23.59,12.25-37.9,19.75.16.27.31.53.46.8,14.34-7.39,27.23-14.06,37.91-19.65Z"/>
      <path class="cls-7" d="M734.26,356.51c4.97-10.03,8.99-18.18,11.71-23.82,1.36-2.83,2.41-5.02,3.1-6.52.4-.77.72-1.59.95-2.43-.49.71-.9,1.46-1.25,2.25-.88,1.43-1.96,3.61-3.42,6.4-2.88,5.56-7,13.65-12.05,23.66-5.59,11.07-12.3,24.52-19.75,39.51.28.14.56.28.84.42,7.56-14.95,14.33-28.38,19.88-39.47Z"/>
      <path class="cls-7" d="M768.86,381.43c7.85-7.99,14.16-14.5,18.5-19.05,2.16-2.26,3.84-4.04,4.95-5.26.61-.59,1.15-1.24,1.63-1.95-.68.49-1.32,1.05-1.89,1.66-1.19,1.13-2.94,2.84-5.17,5.05-4.46,4.41-10.86,10.83-18.74,18.82-8.64,8.75-19.05,19.38-30.61,31.24.22.2.44.41.66.61,11.64-11.76,22.08-22.35,30.68-31.13Z"/>
      <path class="cls-7" d="M537.22,500.59c-11.05,1.92-19.99,3.47-26.16,4.54-3.1.55-5.48,1.04-7.1,1.32-.83.12-1.66.32-2.46.58.84,0,1.68-.07,2.51-.23,1.64-.22,4.05-.57,7.15-1.03,6.21-.94,15.17-2.37,26.23-4.18,9.97-1.63,21.66-3.58,34.57-5.75-.04-.32-.08-.63-.11-.95-12.94,2.1-24.66,4.03-34.64,5.69Z"/>
      <path class="cls-7" d="M794.61,540.71c10.04,5.02,18.17,9.04,23.8,11.79,2.83,1.36,5.02,2.42,6.52,3.11.74.4,1.52.72,2.33.97-.68-.49-1.41-.92-2.17-1.29-1.41-.83-3.6-1.97-6.39-3.42-5.56-2.9-13.64-7.05-23.65-12.1-9.54-4.82-20.85-10.5-33.38-16.76-.13.31-.26.61-.39.91,12.48,6.32,23.77,12.01,33.32,16.78Z"/>
      <path class="cls-7" d="M807.69,456.94c11.06-1.85,20-3.4,26.18-4.47,3.08-.55,5.48-1.04,7.1-1.32.84-.11,1.66-.3,2.46-.58-.84,0-1.69.08-2.52.23-1.63.21-4.04.57-7.14,1.02-6.21.93-15.17,2.35-26.24,4.14-11.5,1.86-25.3,4.15-40.62,6.71.07.32.14.64.21.96,15.31-2.48,29.09-4.74,40.57-6.7Z"/>
      <path class="cls-7" d="M769.63,575.33c8.03,7.85,14.53,14.18,19.05,18.52,2.27,2.17,4.04,3.85,5.25,4.96.58.61,1.23,1.16,1.93,1.65-.5-.68-1.06-1.31-1.67-1.89-1.14-1.21-2.83-2.95-5.03-5.18-4.41-4.47-10.83-10.88-18.79-18.78-7.26-7.2-15.82-15.63-25.3-24.93-.22.25-.44.5-.67.75,9.4,9.33,17.94,17.76,25.23,24.9Z"/>
      <path class="cls-7" d="M575.97,575.92c-7.85,8.01-14.18,14.52-18.52,19.05-2.16,2.26-3.84,4.04-4.96,5.25-.61.59-1.16,1.23-1.63,1.92.66-.52,1.28-1.1,1.84-1.73,1.21-1.14,2.95-2.83,5.18-5.03,4.46-4.41,10.87-10.83,18.77-18.8,6.6-6.67,14.23-14.43,22.62-22.99-.21-.22-.43-.44-.64-.66-8.44,8.53-16.09,16.29-22.65,22.99Z"/>
      <path class="cls-7" d="M550.56,541.22c-9.94,5.17-17.97,9.41-23.5,12.37-2.76,1.49-4.9,2.65-6.33,3.46-.76.37-1.48.81-2.16,1.31.8-.25,1.58-.58,2.32-.99,1.49-.71,3.68-1.78,6.48-3.18,5.62-2.77,13.7-6.9,23.67-12.03,8.61-4.44,18.63-9.64,29.67-15.39-.14-.29-.27-.58-.4-.86-11.09,5.7-21.14,10.87-29.75,15.31Z"/>
      <path class="cls-7" d="M693.34,343.35c1.65-11.1,2.94-20.08,3.79-26.29.41-3.1.73-5.52.92-7.16.15-.83.21-1.68.2-2.52-.28.8-.46,1.62-.56,2.46-.31,1.63-.72,4.03-1.23,7.13-1.02,6.18-2.43,15.15-4.13,26.24-1.87,12.26-4.08,27.12-6.51,43.67.3.05.61.1.91.15,2.55-16.54,4.8-31.4,6.61-43.67Z"/>
      <path class="cls-7" d="M841.32,504.33c-1.63-.31-4.03-.73-7.12-1.24-6.19-1.03-15.16-2.46-26.23-4.17-11.08-1.72-24.28-3.71-38.95-5.9-.03.31-.05.61-.08.92,14.63,2.28,27.8,4.31,38.88,5.99,11.09,1.66,20.07,2.98,26.28,3.82,3.11.43,5.53.75,7.17.94.83.15,1.68.21,2.52.2-.8-.26-1.63-.44-2.46-.56Z"/>
    </g>
    <path class="cls-1" d="M749.05,480.95c-.68-41.53-34.89-74.64-76.42-73.96-41.53.68-74.64,34.89-73.96,76.42.48,29.16,17.77,55.41,44.37,67.36.15,8.9.32,18.96.32,18.96l65.87-1.12s.21-10.65.2-20.15c24.8-13.31,40.09-39.36,39.62-67.51Z"/>
    <path class="cls-17" d="M644.67,586.27c.05.29,3.82,23.22,5.29,31.98.56,3.62,2.9,6.71,6.23,8.22,1.32.58,2.76.87,4.2.84l32.17-.58s8.4-.15,10.19-6.85c1.88-7.06,5.19-34.7,5.19-34.7l-63.28,1.09Z"/>
    <path class="cls-6" d="M645.86,610.98v-.17c-.02-.88.67-1.6,1.55-1.62l58.43-1.25c.88-.02,1.62.68,1.63,1.57v.17c.02.88-.67,1.6-1.55,1.62h0l-58.43,1.25c-.88.02-1.62-.68-1.63-1.57Z"/>
    <path class="cls-6" d="M644.88,602.95v-.17c-.02-.88.68-1.62,1.56-1.63h0s59.94-1.28,59.94-1.28c.88-.02,1.6.68,1.62,1.56h0v.17c.02.88-.67,1.6-1.55,1.62h0l-59.94,1.28c-.88.02-1.61-.67-1.63-1.54h0Z"/>
    <path class="cls-6" d="M643.54,594.41v-.17c-.02-.88.67-1.6,1.55-1.62l62.38-1.33c.88-.02,1.6.68,1.62,1.56h0v.17c.02.88-.68,1.62-1.56,1.63l-62.36,1.33c-.88.02-1.6-.68-1.62-1.56h-.01Z"/>
    <path class="cls-17" d="M635.16,558.93c0,.6,1.58,14.64,2.4,21.86.3,2.65,1.79,5.01,4.06,6.42l3.32,2.06,62.22-1.11,3.2-2.15c2.23-1.51,3.65-3.96,3.83-6.65l1.45-21.86-80.48,1.43Z"/>
    <g class="cls-18">
      <path class="cls-16" d="M667.73,432.37c-1.13-2.61-4.08-4.48-7.55-5.45-4.98-1.32-10.28-.64-14.77,1.91-13.27,7.32-20.77,16.01-25.2,31.27-1.5,5.16-2.17,13.68.47,18.66,1.25,2.56,3.51,4.47,6.24,5.28,7.11,1.93,12.61-5.04,14.69-11.64,1.93-6.15,2.55-13.08,6.82-17.93,3.52-3.98,8.85-5.76,13.26-8.72,4.41-2.96,8.16-8.52,6.05-13.39Z"/>
    </g>
    <g>
      <path class="cls-6" d="M676.92,501.07c3.74-2.38,6.65-5.99,7.11-10.51.34-3.35,0-7.52-3.16-9.5-2.52-1.58-6.11-1.63-8.78-.41-3.25,1.47-4.51,4.82-4.53,8.21-.02,2.59.48,5.06,1.81,7.29,1.26,2.11,3.16,3.79,5.22,5.1.59.38,1.55.25,2.08-.18l.13-.11c-.69.06-1.38.12-2.08.18l.13.11c.97.8,3.51-.6,2.24-1.65l-.13-.11c-.53-.44-1.6-.21-2.08.18l-.13.11,2.08-.18c-3.16-2.02-5.64-4.91-6.19-8.72-.38-2.62-.36-6.6,2.15-8.26.72-.48,1.58-.69,2.56-.71s2.04.15,2.93.59c2.55,1.27,3,4.44,2.92,6.99-.07,2.18-.54,4.25-1.73,6.11-1.11,1.74-2.71,3.08-4.44,4.18-.53.34-.7,1.06-.16,1.47.6.45,1.52.17,2.08-.18Z"/>
      <path class="cls-6" d="M649.24,499.54c.65,2.06,2.48,3.39,4.42,4.16,2.62,1.04,5.49,1.36,8.29,1.32.71,0,2.04-.31,2-1.24-.15-3.68-.31-7.37-.71-11.04-.19-1.74-.24-3.98-1.39-5.43-1.44-1.81-4.01-1.72-5.99-1.01-2.21.79-4.08,2.46-5.32,4.43-1.66,2.63-2.14,5.81-1.3,8.8.3,1.05,3.19.27,2.9-.78-.65-2.32-.5-4.82.58-6.99.82-1.65,2.3-3.37,3.78-4,.55-.24.79-.33,1.31-.21.56.13,1.18.57,1.56,1.19.3.48.43,1.15.54,1.72.2,1.01.33,2.03.44,3.05.4,3.66.56,7.36.71,11.04l2-1.24c-2.38.03-4.87-.17-7.1-1.06-1.66-.66-3.26-1.72-3.81-3.5-.33-1.05-3.22-.25-2.9.78Z"/>
      <path class="cls-6" d="M664.26,557.26c.2-12.85.23-25.7.05-38.55-.07-4.98-.17-9.95-.36-14.93l-2,1.25c4.98-.08,10.6-1.14,14.67-4.14l-2.06.25.13.09c.55.36,1.57.06,2.06-.25l.13-.09-2.06.25c3.81,2.81,9.12,3.81,13.8,3.89l-.9-.69c-.63,16.33-.53,32.7-.36,49.04.02,1.48.03,2.96.06,4.43.01.97,2.92.4,2.9-.78,0-.14,0,.25,0-.05,0-.23,0-.46,0-.69-.01-.87-.02-1.75-.03-2.62-.03-2.96-.06-5.92-.08-8.88-.05-8.69-.05-17.39.07-26.08.07-4.9.17-9.81.36-14.71.02-.5-.46-.69-.9-.69-4.31-.07-9.09-1.02-12.61-3.61-.52-.38-1.59-.05-2.06.25l-.13.09c.69-.08,1.37-.17,2.06-.25l-.13-.09c-.53-.35-1.59-.09-2.06.25-3.26,2.4-7.74,3.29-11.74,3.36-.72.01-2.04.31-2,1.25.63,16.26.53,32.55.35,48.82-.02,1.4-.03,2.81-.05,4.21-.02,1.26,2.89.68,2.9-.34h0Z"/>
      <path class="cls-6" d="M689.47,488.2c-.88,1.58-.93,3.82-1.11,5.57-.35,3.5-.52,7.01-.65,10.52-.03.75.73.91,1.33.92,3.22.04,6.71-.37,9.58-1.92,1.17-.63,2.25-1.43,3.01-2.53s1.09-2.46,1.2-3.79c.36-4.52-2.45-9.78-7.02-11.07-2.45-.69-4.99.08-6.34,2.3-.38.62.33,1.12.87,1.18.73.09,1.51-.25,1.89-.88.07-.12.11-.16.22-.3.05-.07.12-.13.17-.19-.15.15,0,0,.03-.02.05-.05.13-.1.2-.14-.24.16-.06.04-.01,0,.06-.04.15-.07.21-.1-.34.15-.01,0,.07-.01.25-.06-.21-.02.14-.02.08,0,.16-.01.24-.01.22,0-.22-.01,0,0,.47.04.49.05.88.18,1.52.51,2.83,1.74,3.77,3.08,2.06,2.94,2.98,8.4-.63,10.56-2.4,1.44-5.5,1.64-8.22,1.6l1.33.92c.14-3.44.3-6.88.63-10.31.11-1.15.24-2.3.45-3.43.14-.77.19-1.23.52-1.81.35-.63-.31-1.12-.87-1.18-.71-.08-1.53.24-1.89.88Z"/>
    </g>
    <g>
      <path class="cls-7" d="M458.81,132.71c-3.57-6.85-6.48-12.38-8.53-16.19-1.02-1.9-1.83-3.38-2.39-4.36-.25-.53-.56-1.02-.91-1.49.18.55.41,1.09.69,1.6.49,1.02,1.23,2.53,2.2,4.46,1.9,3.87,4.76,9.44,8.28,16.3,3.8,7.32,8.39,16.12,13.51,25.89.19-.09.38-.18.58-.27-5.05-9.81-9.62-18.63-13.44-25.95Z"/>
      <path class="cls-7" d="M408.7,202.19c-7.64-1.14-13.83-2.03-18.11-2.61-2.15-.29-3.81-.51-4.94-.64-.57-.1-1.16-.14-1.74-.13.55.18,1.12.31,1.7.38,1.12.21,2.77.49,4.9.85,4.27.71,10.44,1.68,18.08,2.85,7.21,1.11,15.74,2.39,25.17,3.79.05-.22.09-.44.14-.66-9.44-1.45-17.98-2.75-25.21-3.83Z"/>
      <path class="cls-7" d="M417.75,173.98c-6.91-3.42-12.51-6.19-16.4-8.07-1.95-.94-3.46-1.66-4.49-2.14-.51-.28-1.05-.5-1.6-.66.47.34.97.64,1.49.89.99.61,2.49,1.36,4.41,2.35,3.84,1.99,9.4,4.83,16.3,8.31,6.82,3.44,14.95,7.51,23.98,12,.11-.19.22-.38.33-.56-9.01-4.56-17.16-8.67-24.01-12.12Z"/>
      <path class="cls-7" d="M434.97,150.18c-5.52-5.41-10-9.76-13.12-12.75-1.57-1.49-2.79-2.64-3.62-3.42-.4-.42-.85-.8-1.33-1.13.35.47.73.9,1.15,1.3.78.82,1.95,2.03,3.47,3.57,3.07,3.08,7.47,7.5,12.9,12.97,5.68,5.6,12.5,12.28,20.08,19.68.17-.16.34-.31.52-.47-7.54-7.47-14.34-14.18-20.04-19.76Z"/>
      <path class="cls-7" d="M486.82,123.49c-1.32-7.6-2.39-13.77-3.13-18.02-.39-2.13-.72-3.77-.92-4.89-.08-.57-.22-1.14-.4-1.69,0,.58.05,1.16.16,1.73.15,1.12.39,2.79.71,4.92.65,4.28,1.63,10.45,2.89,18.07,1.37,8.32,3.06,18.38,4.96,29.57.21-.03.43-.06.64-.09-1.83-11.21-3.5-21.28-4.92-29.6Z"/>
      <path class="cls-7" d="M585.93,173.42c6.85-3.57,12.37-6.5,16.18-8.54,1.9-1.02,3.38-1.83,4.36-2.39.52-.26,1.02-.56,1.49-.91-.55.18-1.09.41-1.6.69-1.03.49-2.54,1.24-4.47,2.2-3.87,1.93-9.43,4.8-16.3,8.33-7.37,3.81-16.25,8.44-26.11,13.61.11.18.21.37.32.55,9.88-5.09,18.76-9.69,26.12-13.54Z"/>
      <path class="cls-7" d="M544.56,132.43c3.42-6.91,6.19-12.52,8.07-16.41.94-1.95,1.66-3.46,2.14-4.49.28-.53.5-1.09.65-1.67-.34.49-.62,1.01-.86,1.55-.61.99-1.35,2.49-2.35,4.41-1.99,3.83-4.82,9.4-8.3,16.3-3.85,7.63-8.48,16.89-13.61,27.22.19.09.38.19.58.29,5.21-10.3,9.87-19.55,13.7-27.2Z"/>
      <path class="cls-7" d="M568.41,149.61c5.41-5.51,9.76-9.99,12.74-13.12,1.49-1.56,2.64-2.78,3.41-3.62.42-.41.8-.86,1.12-1.34-.47.34-.91.72-1.31,1.15-.82.78-2.02,1.96-3.56,3.48-3.07,3.04-7.48,7.46-12.91,12.97-5.95,6.03-13.12,13.36-21.09,21.52.15.14.3.28.45.42,8.02-8.11,15.21-15.4,21.14-21.45Z"/>
      <path class="cls-7" d="M408.8,231.71c-7.61,1.32-13.77,2.39-18.02,3.13-2.13.38-3.77.72-4.89.91-.57.08-1.14.22-1.69.4.58,0,1.16-.05,1.73-.16,1.13-.15,2.79-.39,4.93-.71,4.28-.65,10.45-1.63,18.08-2.88,6.87-1.12,14.93-2.46,23.82-3.96-.02-.22-.05-.43-.07-.65-8.92,1.45-16.99,2.77-23.87,3.92Z"/>
      <path class="cls-7" d="M586.14,259.35c6.91,3.46,12.52,6.23,16.4,8.12,1.95.94,3.46,1.67,4.5,2.14.51.27,1.05.5,1.6.66-.47-.34-.97-.64-1.49-.89-.97-.57-2.48-1.35-4.4-2.35-3.83-2-9.4-4.85-16.3-8.34-6.57-3.32-14.36-7.23-23-11.55-.09.21-.18.42-.27.63,8.6,4.36,16.38,8.28,22.96,11.56Z"/>
      <path class="cls-7" d="M595.16,201.63c7.62-1.28,13.78-2.34,18.04-3.08,2.12-.38,3.77-.72,4.89-.91.58-.07,1.14-.21,1.69-.4-.58,0-1.16.06-1.73.16-1.12.15-2.79.39-4.92.71-4.28.64-10.45,1.62-18.08,2.86-7.93,1.28-17.43,2.86-27.99,4.63.05.22.1.44.14.66,10.55-1.71,20.04-3.27,27.95-4.62Z"/>
      <path class="cls-7" d="M568.93,283.2c5.53,5.41,10.01,9.77,13.13,12.76,1.56,1.5,2.78,2.65,3.62,3.42.4.42.85.8,1.33,1.13-.35-.47-.73-.9-1.15-1.3-.78-.83-1.95-2.03-3.46-3.57-3.04-3.08-7.46-7.5-12.95-12.94-5.01-4.96-10.9-10.77-17.43-17.18-.15.17-.31.35-.46.52,6.48,6.43,12.36,12.23,17.38,17.16Z"/>
      <path class="cls-7" d="M435.5,283.61c-5.41,5.52-9.77,10-12.76,13.13-1.49,1.56-2.64,2.78-3.42,3.62-.42.4-.8.85-1.13,1.33.46-.36.88-.76,1.27-1.19.83-.78,2.03-1.95,3.57-3.46,3.07-3.04,7.49-7.47,12.93-12.95,4.55-4.6,9.8-9.94,15.59-15.84-.15-.15-.3-.3-.44-.46-5.81,5.88-11.09,11.22-15.61,15.84Z"/>
      <path class="cls-7" d="M418,259.7c-6.85,3.57-12.38,6.48-16.19,8.52-1.9,1.02-3.38,1.83-4.36,2.39-.52.25-1.02.56-1.49.91.55-.17,1.09-.4,1.6-.68,1.03-.49,2.54-1.23,4.47-2.19,3.87-1.91,9.44-4.76,16.31-8.29,5.93-3.06,12.84-6.64,20.44-10.61-.09-.2-.19-.4-.28-.6-7.64,3.92-14.56,7.49-20.5,10.55Z"/>
      <path class="cls-7" d="M516.37,123.37c1.14-7.65,2.03-13.84,2.61-18.12.28-2.14.5-3.81.63-4.93.1-.57.15-1.16.13-1.74-.19.55-.32,1.12-.38,1.7-.21,1.12-.49,2.77-.85,4.91-.7,4.26-1.67,10.44-2.84,18.08-1.29,8.45-2.81,18.68-4.48,30.09.21.03.42.07.63.1,1.76-11.4,3.31-21.64,4.56-30.09Z"/>
      <path class="cls-7" d="M618.33,234.29c-1.12-.21-2.78-.5-4.9-.86-4.26-.71-10.44-1.7-18.08-2.87-7.63-1.18-16.73-2.56-26.84-4.06-.02.21-.04.42-.06.63,10.08,1.57,19.16,2.97,26.79,4.13,7.64,1.15,13.83,2.05,18.1,2.64,2.14.3,3.81.52,4.94.65.57.1,1.16.15,1.74.13-.55-.18-1.12-.31-1.7-.38Z"/>
    </g>
    <path class="cls-11" d="M554.75,218.17c-.47-28.61-24.04-51.43-52.65-50.96-28.61.47-51.43,24.04-50.96,52.65.33,20.09,12.24,38.18,30.57,46.41.1,6.13.22,13.06.22,13.06l45.38-.77s.15-7.34.14-13.88c17.09-9.17,27.62-27.12,27.3-46.51Z"/>
    <path class="cls-17" d="M482.83,290.74c.03.2,2.63,16,3.64,22.03.38,2.49,2,4.62,4.3,5.66.91.4,1.9.6,2.9.58l22.17-.4s5.79-.1,7.02-4.72c1.3-4.87,3.58-23.91,3.58-23.91l-43.6.75Z"/>
    <path class="cls-6" d="M483.66,307.77v-.12c-.02-.6.46-1.11,1.07-1.12l40.26-.86c.61-.01,1.11.47,1.13,1.08v.12c.02.6-.46,1.11-1.07,1.12h0l-40.26.86c-.61.01-1.11-.47-1.13-1.08Z"/>
    <path class="cls-6" d="M482.98,302.23v-.12c-.02-.61.47-1.11,1.08-1.13h0s41.3-.88,41.3-.88c.6-.01,1.11.47,1.12,1.07h0v.12c.02.6-.46,1.11-1.07,1.12h0l-41.3.88c-.6.02-1.11-.46-1.13-1.06h0Z"/>
    <path class="cls-6" d="M482.06,296.35v-.12c-.02-.6.46-1.11,1.07-1.12l42.98-.92c.6-.01,1.11.47,1.12,1.07h0v.12c.02.61-.47,1.11-1.08,1.13l-42.97.92c-.6.01-1.11-.47-1.12-1.07h0Z"/>
    <path class="cls-17" d="M476.28,271.9c0,.41,1.09,10.09,1.65,15.06.2,1.82,1.24,3.45,2.8,4.42l2.29,1.42,42.87-.77,2.21-1.48c1.54-1.04,2.51-2.73,2.64-4.58l1-15.06-55.45.99Z"/>
    <g class="cls-18">
      <path class="cls-16" d="M498.73,184.7c-.78-1.8-2.81-3.09-5.21-3.76-3.43-.91-7.09-.44-10.18,1.31-9.15,5.04-14.31,11.03-17.36,21.55-1.04,3.56-1.5,9.42.32,12.86.86,1.76,2.42,3.08,4.3,3.64,4.9,1.33,8.69-3.47,10.12-8.02,1.33-4.24,1.76-9.01,4.7-12.35,2.42-2.74,6.09-3.97,9.14-6.01,3.04-2.04,5.62-5.87,4.17-9.22Z"/>
    </g>
    <g>
      <path class="cls-6" d="M505.36,232.23c2.65-1.69,4.73-4.27,5.05-7.48.24-2.4-.03-5.35-2.28-6.77-1.9-1.19-4.59-1.2-6.6-.29-2.37,1.08-3.37,3.46-3.38,5.95-.01,1.85.34,3.59,1.29,5.19.88,1.48,2.22,2.66,3.66,3.57.59.38,1.55.25,2.08-.18l.09-.07-2.08.18.09.07c.97.8,3.51-.6,2.24-1.65l-.09-.07c-.53-.44-1.6-.21-2.08.18l-.09.07,2.08-.18c-2.14-1.36-3.79-3.3-4.17-5.87-.17-1.17-.17-2.48.17-3.63.1-.33.35-.87.45-1.02.29-.43.41-.51.71-.72.05-.04.23-.14-.02,0,.07-.04.14-.07.21-.11.06-.03.43-.18.06-.04.07-.03.15-.05.23-.07.1-.03.69-.13.32-.09.21-.03.41-.04.62-.06.4-.03-.17-.01.08,0,.11,0,.22.01.32.02.17.02.33.04.5.07.39.06-.23-.07.15.03.08.02.16.04.23.07s.15.05.23.08c.07.03.15.06.22.09-.08-.04-.09-.05-.01,0,1.6.82,1.96,2.82,1.9,4.6-.05,1.48-.36,2.87-1.17,4.12-.74,1.14-1.79,2.01-2.93,2.73-.52.33-.72,1.08-.16,1.47.62.43,1.5.19,2.08-.18Z"/>
      <path class="cls-6" d="M485.54,231.1c.46,1.46,1.76,2.42,3.14,2.97,1.86.74,3.9.98,5.89.95.71,0,2.04-.31,2-1.24-.1-2.54-.21-5.08-.49-7.6-.13-1.23-.18-2.78-.99-3.8-1.13-1.42-3.2-1.27-4.73-.71-1.61.58-3,1.79-3.9,3.23-1.16,1.85-1.52,4.09-.93,6.2.3,1.05,3.19.27,2.9-.78-.44-1.55-.35-3.23.37-4.68.16-.33.35-.65.56-.95.25-.35.33-.46.61-.73.12-.12.24-.24.37-.35.07-.06.38-.29.17-.14.13-.09.26-.18.4-.26.07-.04.15-.09.22-.13-.19.11-.13.06.03,0,.18-.07.39-.11.07-.04.07-.02.16-.03.22-.06.18-.07-.32.03-.13.02.07,0,.15-.01.22-.03-.04,0-.33-.02-.11,0,.05,0,.12,0,.17,0,.24,0-.19-.09,0,0,.29.14-.07-.08.16.04.11.06.22.11.32.18-.14-.1.12.12.16.16.11.11.2.23.28.36.09.13-.06-.13.02.02.02.03.03.06.04.1.03.09.07.17.09.26.08.25.13.5.19.75.14.69.23,1.4.3,2.1.27,2.52.39,5.07.49,7.6l2-1.24c-1.57.02-3.23-.1-4.71-.69-1.1-.44-2.16-1.13-2.53-2.31-.19-.61-1.19-.5-1.65-.37-.41.11-1.44.54-1.25,1.15Z"/>
      <path class="cls-6" d="M496.78,270.7c.13-8.87.16-17.75.04-26.63-.05-3.43-.12-6.86-.25-10.29l-2,1.25c3.6-.06,7.62-.82,10.56-2.98l-2.06.25.09.06c.55.36,1.57.06,2.06-.25l.09-.06-2.06.25c2.69,1.96,6.4,2.66,9.69,2.72l-.9-.69c-.44,11.26-.37,22.55-.24,33.82.01,1.03.02,2.06.04,3.09.01.97,2.92.4,2.9-.78,0,.28,0-.28,0-.46,0-.61-.02-1.22-.02-1.83-.02-2.03-.04-4.05-.05-6.08-.04-5.95-.03-11.9.04-17.86.05-3.42.12-6.83.25-10.25.02-.5-.46-.69-.9-.69-2.93-.05-6.11-.7-8.5-2.45-.52-.38-1.59-.05-2.06.25l-.09.06,2.06-.25-.09-.06c-.53-.35-1.59-.09-2.06.25-2.13,1.56-5.02,2.14-7.64,2.19-.72.01-2.04.31-2,1.25.43,11.16.36,22.35.24,33.51-.01.99-.02,1.97-.04,2.96-.02,1.26,2.89.68,2.9-.34h0Z"/>
      <path class="cls-6" d="M513.27,223.12c-.62,1.11-.67,2.69-.79,3.92-.24,2.41-.35,4.83-.45,7.25-.03.75.73.91,1.33.92,2.3.03,4.79-.28,6.84-1.38.87-.47,1.68-1.06,2.25-1.87s.83-1.79.91-2.78c.26-3.24-1.76-6.96-5.03-7.89-1.94-.55-3.99.08-5.06,1.83-.38.62.33,1.12.87,1.18.73.09,1.51-.25,1.89-.88.12-.19.01-.02-.02.02.04-.05.08-.1.11-.14.22-.28-.1.04.06-.07.3-.23-.18.07.03-.04.36-.18-.31.05.08-.03.26-.06-.35.07-.03,0,.05-.01.11,0,.17,0,.17-.04-.28-.05-.12,0,.1.03.24.03.35.05.18.03-.24-.07-.07-.01.07.03.15.04.22.07.12.04.24.09.36.14.21.09.03.01,0,0,.06.03.12.06.18.1.28.16.54.34.79.54.36.29.78.75,1.13,1.25.75,1.07,1.22,2.42,1.18,3.78-.02.7-.11,1.44-.41,2.03-.03.07-.07.13-.11.2.03-.04.13-.16-.02.03-.1.13-.2.24-.31.36-.03.03-.18.17-.01.02-.06.05-.13.11-.19.16s-.14.1-.21.15c-.03.02-.32.2-.17.12s-.1.05-.14.07c-.1.05-.21.11-.31.15-.09.04-.17.08-.26.12-.01,0-.45.16-.18.07-.45.15-.91.27-1.37.37-.18.04-.2.04-.52.08-.26.04-.52.06-.78.09-.61.05-1.21.07-1.82.06l1.33.92c.09-2.37.2-4.74.44-7.1.08-.79.17-1.58.31-2.36.05-.28.12-.55.18-.82.05-.2-.06.15-.01.03.02-.05.03-.1.05-.15.04-.08.07-.16.11-.23.35-.63-.31-1.12-.87-1.18-.71-.08-1.53.24-1.89.88Z"/>
    </g>
    <g>
      <path class="cls-9" d="M800.61,130.58c-3.57-6.85-6.48-12.38-8.53-16.19-1.02-1.9-1.83-3.38-2.39-4.36-.25-.53-.56-1.02-.91-1.49.18.55.41,1.09.69,1.6.49,1.02,1.23,2.53,2.2,4.46,1.9,3.87,4.76,9.44,8.28,16.3,3.8,7.32,8.39,16.12,13.51,25.89.19-.09.38-.18.58-.27-5.05-9.81-9.62-18.63-13.44-25.95Z"/>
      <path class="cls-9" d="M750.51,200.07c-7.64-1.14-13.83-2.03-18.11-2.61-2.15-.29-3.81-.51-4.94-.64-.57-.1-1.16-.14-1.74-.13.55.18,1.12.31,1.7.38,1.12.21,2.77.49,4.9.85,4.27.71,10.44,1.68,18.08,2.85,7.21,1.11,15.74,2.39,25.17,3.79.05-.22.09-.44.14-.66-9.44-1.45-17.98-2.75-25.21-3.83Z"/>
      <path class="cls-9" d="M759.56,171.85c-6.91-3.42-12.51-6.19-16.4-8.07-1.95-.94-3.46-1.66-4.49-2.14-.51-.28-1.05-.5-1.6-.66.47.34.97.64,1.49.89.99.61,2.49,1.36,4.41,2.35,3.84,1.99,9.4,4.83,16.3,8.31,6.82,3.44,14.95,7.51,23.98,12,.11-.19.22-.38.33-.56-9.01-4.56-17.16-8.67-24.01-12.12Z"/>
      <path class="cls-9" d="M776.78,148.06c-5.52-5.41-10-9.76-13.12-12.75-1.57-1.49-2.79-2.64-3.62-3.42-.4-.42-.85-.8-1.33-1.13.35.47.73.9,1.15,1.3.78.82,1.95,2.03,3.47,3.57,3.07,3.08,7.47,7.5,12.9,12.97,5.68,5.6,12.5,12.28,20.08,19.68.17-.16.34-.31.52-.47-7.54-7.47-14.34-14.18-20.04-19.76Z"/>
      <path class="cls-9" d="M828.63,121.37c-1.32-7.6-2.39-13.77-3.13-18.02-.39-2.13-.72-3.77-.92-4.89-.08-.57-.22-1.14-.4-1.69,0,.58.05,1.16.16,1.73.15,1.12.39,2.79.71,4.92.65,4.28,1.63,10.45,2.89,18.07,1.37,8.32,3.06,18.38,4.96,29.57.21-.03.43-.06.64-.09-1.83-11.21-3.5-21.28-4.92-29.6Z"/>
      <path class="cls-9" d="M927.74,171.29c6.85-3.57,12.37-6.5,16.18-8.54,1.9-1.02,3.38-1.83,4.36-2.39.52-.26,1.02-.56,1.49-.91-.55.18-1.09.41-1.6.69-1.03.49-2.54,1.24-4.47,2.2-3.87,1.93-9.43,4.8-16.3,8.33-7.37,3.81-16.25,8.44-26.11,13.61.11.18.21.37.32.55,9.88-5.09,18.76-9.69,26.12-13.54Z"/>
      <path class="cls-9" d="M886.37,130.31c3.42-6.91,6.19-12.52,8.07-16.41.94-1.95,1.66-3.46,2.14-4.49.28-.53.5-1.09.65-1.67-.34.49-.62,1.01-.86,1.55-.61.99-1.35,2.49-2.35,4.41-1.99,3.83-4.82,9.4-8.3,16.3-3.85,7.63-8.48,16.89-13.61,27.22.19.09.38.19.58.29,5.21-10.3,9.87-19.55,13.7-27.2Z"/>
      <path class="cls-9" d="M910.22,147.48c5.41-5.51,9.76-9.99,12.74-13.12,1.49-1.56,2.64-2.78,3.41-3.62.42-.41.8-.86,1.12-1.34-.47.34-.91.72-1.31,1.15-.82.78-2.02,1.96-3.56,3.48-3.07,3.04-7.48,7.46-12.91,12.97-5.95,6.03-13.12,13.36-21.09,21.52.15.14.3.28.45.42,8.02-8.11,15.21-15.4,21.14-21.45Z"/>
      <path class="cls-9" d="M750.61,229.58c-7.61,1.32-13.77,2.39-18.02,3.13-2.13.38-3.77.72-4.89.91-.57.08-1.14.22-1.69.4.58,0,1.16-.05,1.73-.16,1.13-.15,2.79-.39,4.93-.71,4.28-.65,10.45-1.63,18.08-2.88,6.87-1.12,14.93-2.46,23.82-3.96-.02-.22-.05-.43-.07-.65-8.92,1.45-16.99,2.77-23.87,3.92Z"/>
      <path class="cls-9" d="M927.95,257.22c6.91,3.46,12.52,6.23,16.4,8.12,1.95.94,3.46,1.67,4.5,2.14.51.27,1.05.5,1.6.66-.47-.34-.97-.64-1.49-.89-.97-.57-2.48-1.35-4.4-2.35-3.83-2-9.4-4.85-16.3-8.34-6.57-3.32-14.36-7.23-23-11.55-.09.21-.18.42-.27.63,8.6,4.36,16.38,8.28,22.96,11.56Z"/>
      <path class="cls-9" d="M936.97,199.51c7.62-1.28,13.78-2.34,18.04-3.08,2.12-.38,3.77-.72,4.89-.91.58-.07,1.14-.21,1.69-.4-.58,0-1.16.06-1.73.16-1.12.15-2.79.39-4.92.71-4.28.64-10.45,1.62-18.08,2.86-7.93,1.28-17.43,2.86-27.99,4.63.05.22.1.44.14.66,10.55-1.71,20.04-3.27,27.95-4.62Z"/>
      <path class="cls-9" d="M910.74,281.08c5.53,5.41,10.01,9.77,13.13,12.76,1.56,1.5,2.78,2.65,3.62,3.42.4.42.85.8,1.33,1.13-.35-.47-.73-.9-1.15-1.3-.78-.83-1.95-2.03-3.46-3.57-3.04-3.08-7.46-7.5-12.95-12.94-5.01-4.96-10.9-10.77-17.43-17.18-.15.17-.31.35-.46.52,6.48,6.43,12.36,12.23,17.38,17.16Z"/>
      <path class="cls-9" d="M777.31,281.49c-5.41,5.52-9.77,10-12.76,13.13-1.49,1.56-2.64,2.78-3.42,3.62-.42.4-.8.85-1.13,1.33.46-.36.88-.76,1.27-1.19.83-.78,2.03-1.95,3.57-3.46,3.07-3.04,7.49-7.47,12.93-12.95,4.55-4.6,9.8-9.94,15.59-15.84-.15-.15-.3-.3-.44-.46-5.81,5.88-11.09,11.22-15.61,15.84Z"/>
      <path class="cls-9" d="M759.8,257.58c-6.85,3.57-12.38,6.48-16.19,8.52-1.9,1.02-3.38,1.83-4.36,2.39-.52.25-1.02.56-1.49.91.55-.17,1.09-.4,1.6-.68,1.03-.49,2.54-1.23,4.47-2.19,3.87-1.91,9.44-4.76,16.31-8.29,5.93-3.06,12.84-6.64,20.44-10.61-.09-.2-.19-.4-.28-.6-7.64,3.92-14.56,7.49-20.5,10.55Z"/>
      <path class="cls-9" d="M858.18,121.24c1.14-7.65,2.03-13.84,2.61-18.12.28-2.14.5-3.81.63-4.93.1-.57.15-1.16.13-1.74-.19.55-.32,1.12-.38,1.7-.21,1.12-.49,2.77-.85,4.91-.7,4.26-1.67,10.44-2.84,18.08-1.29,8.45-2.81,18.68-4.48,30.09.21.03.42.07.63.1,1.76-11.4,3.31-21.64,4.56-30.09Z"/>
      <path class="cls-9" d="M960.14,232.16c-1.12-.21-2.78-.5-4.9-.86-4.26-.71-10.44-1.7-18.08-2.87-7.63-1.18-16.73-2.56-26.84-4.06-.02.21-.04.42-.06.63,10.08,1.57,19.16,2.97,26.79,4.13,7.64,1.15,13.83,2.05,18.1,2.64,2.14.3,3.81.52,4.94.65.57.1,1.16.15,1.74.13-.55-.18-1.12-.31-1.7-.38Z"/>
    </g>
    <path class="cls-5" d="M896.56,216.05c-.47-28.61-24.04-51.43-52.65-50.96-28.61.47-51.43,24.04-50.96,52.65.33,20.09,12.24,38.18,30.57,46.41.1,6.13.22,13.06.22,13.06l45.38-.77s.15-7.34.14-13.88c17.09-9.17,27.62-27.12,27.3-46.51Z"/>
    <path class="cls-17" d="M824.64,288.62c.03.2,2.63,16,3.64,22.03.38,2.49,2,4.62,4.3,5.66.91.4,1.9.6,2.9.58l22.17-.4s5.79-.1,7.02-4.72c1.3-4.87,3.58-23.91,3.58-23.91l-43.6.75Z"/>
    <path class="cls-6" d="M825.46,305.64v-.12c-.02-.6.46-1.11,1.07-1.12l40.26-.86c.61-.01,1.11.47,1.13,1.08v.12c.02.6-.46,1.11-1.07,1.12h0l-40.26.86c-.61.01-1.11-.47-1.13-1.08Z"/>
    <path class="cls-6" d="M824.79,300.11v-.12c-.02-.61.47-1.11,1.08-1.13h0s41.3-.88,41.3-.88c.6-.01,1.11.47,1.12,1.07h0v.12c.02.6-.46,1.11-1.07,1.12h0l-41.3.88c-.6.02-1.11-.46-1.13-1.06h0Z"/>
    <path class="cls-6" d="M823.87,294.22v-.12c-.02-.6.46-1.11,1.07-1.12l42.98-.92c.6-.01,1.11.47,1.12,1.07h0v.12c.02.61-.47,1.11-1.08,1.13l-42.97.92c-.6.01-1.11-.47-1.12-1.07h0Z"/>
    <path class="cls-17" d="M818.09,269.78c0,.41,1.09,10.09,1.65,15.06.2,1.82,1.24,3.45,2.8,4.42l2.29,1.42,42.87-.77,2.21-1.48c1.54-1.04,2.51-2.73,2.64-4.58l1-15.06-55.45.99Z"/>
    <g class="cls-18">
      <path class="cls-16" d="M840.54,182.58c-.78-1.8-2.81-3.09-5.21-3.76-3.43-.91-7.09-.44-10.18,1.31-9.15,5.04-14.31,11.03-17.36,21.55-1.04,3.56-1.5,9.42.32,12.86.86,1.76,2.42,3.08,4.3,3.64,4.9,1.33,8.69-3.47,10.12-8.02,1.33-4.24,1.76-9.01,4.7-12.35,2.42-2.74,6.09-3.97,9.14-6.01,3.04-2.04,5.62-5.87,4.17-9.22Z"/>
    </g>
    <g>
      <path class="cls-6" d="M847.17,230.11c2.65-1.69,4.73-4.27,5.05-7.48.24-2.4-.03-5.35-2.28-6.77-1.9-1.19-4.59-1.2-6.6-.29-2.37,1.08-3.37,3.46-3.38,5.95-.01,1.85.34,3.59,1.29,5.19.88,1.48,2.22,2.66,3.66,3.57.59.38,1.55.25,2.08-.18l.09-.07-2.08.18.09.07c.97.8,3.51-.6,2.24-1.65l-.09-.07c-.53-.44-1.6-.21-2.08.18l-.09.07,2.08-.18c-2.14-1.36-3.79-3.3-4.17-5.87-.17-1.17-.17-2.48.17-3.63.1-.33.35-.87.45-1.02.29-.43.41-.51.71-.72.05-.04.23-.14-.02,0,.07-.04.14-.07.21-.11.06-.03.43-.18.06-.04.07-.03.15-.05.23-.07.1-.03.69-.13.32-.09.21-.03.41-.04.62-.06.4-.03-.17-.01.08,0,.11,0,.22.01.32.02.17.02.33.04.5.07.39.06-.23-.07.15.03.08.02.16.04.23.07s.15.05.23.08c.07.03.15.06.22.09-.08-.04-.09-.05-.01,0,1.6.82,1.96,2.82,1.9,4.6-.05,1.48-.36,2.87-1.17,4.12-.74,1.14-1.79,2.01-2.93,2.73-.52.33-.72,1.08-.16,1.47.62.43,1.5.19,2.08-.18Z"/>
      <path class="cls-6" d="M827.34,228.98c.46,1.46,1.76,2.42,3.14,2.97,1.86.74,3.9.98,5.89.95.71,0,2.04-.31,2-1.24-.1-2.54-.21-5.08-.49-7.6-.13-1.23-.18-2.78-.99-3.8-1.13-1.42-3.2-1.27-4.73-.71-1.61.58-3,1.79-3.9,3.23-1.16,1.85-1.52,4.09-.93,6.2.3,1.05,3.19.27,2.9-.78-.44-1.55-.35-3.23.37-4.68.16-.33.35-.65.56-.95.25-.35.33-.46.61-.73.12-.12.24-.24.37-.35.07-.06.38-.29.17-.14.13-.09.26-.18.4-.26.07-.04.15-.09.22-.13-.19.11-.13.06.03,0,.18-.07.39-.11.07-.04.07-.02.16-.03.22-.06.18-.07-.32.03-.13.02.07,0,.15-.01.22-.03-.04,0-.33-.02-.11,0,.05,0,.12,0,.17,0,.24,0-.19-.09,0,0,.29.14-.07-.08.16.04.11.06.22.11.32.18-.14-.1.12.12.16.16.11.11.2.23.28.36.09.13-.06-.13.02.02.02.03.03.06.04.1.03.09.07.17.09.26.08.25.13.5.19.75.14.69.23,1.4.3,2.1.27,2.52.39,5.07.49,7.6.67-.41,1.34-.83,2-1.24-1.57.02-3.23-.1-4.71-.69-1.1-.44-2.16-1.13-2.53-2.31-.19-.61-1.19-.5-1.65-.37-.41.11-1.44.54-1.25,1.15Z"/>
      <path class="cls-6" d="M838.59,268.57c.13-8.87.16-17.75.04-26.63-.05-3.43-.12-6.86-.25-10.29-.67.42-1.33.83-2,1.25,3.6-.06,7.62-.82,10.56-2.98l-2.06.25.09.06c.55.36,1.57.06,2.06-.25l.09-.06-2.06.25c2.69,1.96,6.4,2.66,9.69,2.72-.3-.23-.6-.46-.9-.69-.44,11.26-.37,22.55-.24,33.82.01,1.03.02,2.06.04,3.09.01.97,2.92.4,2.9-.78,0,.28,0-.28,0-.46,0-.61-.02-1.22-.02-1.83-.02-2.03-.04-4.05-.05-6.08-.04-5.95-.03-11.9.04-17.86.05-3.42.12-6.83.25-10.25.02-.5-.46-.69-.9-.69-2.93-.05-6.11-.7-8.5-2.45-.52-.38-1.59-.05-2.06.25l-.09.06,2.06-.25-.09-.06c-.53-.35-1.59-.09-2.06.25-2.13,1.56-5.02,2.14-7.64,2.19-.72.01-2.04.31-2,1.25.43,11.16.36,22.35.24,33.51-.01.99-.02,1.97-.04,2.96-.02,1.26,2.89.68,2.9-.34h0Z"/>
      <path class="cls-6" d="M855.08,221c-.62,1.11-.67,2.69-.79,3.92-.24,2.41-.35,4.83-.45,7.25-.03.75.73.91,1.33.92,2.3.03,4.79-.28,6.84-1.38.87-.47,1.68-1.06,2.25-1.87s.83-1.79.91-2.78c.26-3.24-1.76-6.96-5.03-7.89-1.94-.55-3.99.08-5.06,1.83-.38.62.33,1.12.87,1.18.73.09,1.51-.25,1.89-.88.12-.19.01-.02-.02.02.04-.05.08-.1.11-.14.22-.28-.1.04.06-.07.3-.23-.18.07.03-.04.36-.18-.31.05.08-.03.26-.06-.35.07-.03,0,.05-.01.11,0,.17,0,.17-.04-.28-.05-.12,0,.1.03.24.03.35.05.18.03-.24-.07-.07-.01.07.03.15.04.22.07.12.04.24.09.36.14.21.09.03.01,0,0,.06.03.12.06.18.1.28.16.54.34.79.54.36.29.78.75,1.13,1.25.75,1.07,1.22,2.42,1.18,3.78-.02.7-.11,1.44-.41,2.03-.03.07-.07.13-.11.2.03-.04.13-.16-.02.03-.1.13-.2.24-.31.36-.03.03-.18.17-.01.02-.06.05-.13.11-.19.16s-.14.1-.21.15c-.03.02-.32.2-.17.12s-.1.05-.14.07c-.1.05-.21.11-.31.15-.09.04-.17.08-.26.12-.01,0-.45.16-.18.07-.45.15-.91.27-1.37.37-.18.04-.2.04-.52.08-.26.04-.52.06-.78.09-.61.05-1.21.07-1.82.06l1.33.92c.09-2.37.2-4.74.44-7.1.08-.79.17-1.58.31-2.36.05-.28.12-.55.18-.82.05-.2-.06.15-.01.03.02-.05.03-.1.05-.15.04-.08.07-.16.11-.23.35-.63-.31-1.12-.87-1.18-.71-.08-1.53.24-1.89.88Z"/>
    </g>
    <g>
      <path class="cls-15" d="M313.4,331.26c-3.38-6.49-6.14-11.74-8.08-15.34-.97-1.8-1.73-3.2-2.26-4.14-.24-.5-.53-.97-.86-1.41.17.53.39,1.03.66,1.52.46.97,1.17,2.4,2.08,4.23,1.8,3.67,4.51,8.95,7.85,15.45,3.6,6.94,7.95,15.27,12.81,24.53.18-.08.36-.17.55-.25-4.79-9.3-9.11-17.66-12.73-24.59Z"/>
      <path class="cls-15" d="M265.92,397.1c-7.24-1.08-13.1-1.92-17.16-2.47-2.03-.27-3.61-.48-4.68-.61-.54-.09-1.1-.14-1.65-.13.52.17,1.06.29,1.61.36,1.06.2,2.63.47,4.65.8,4.05.67,9.89,1.59,17.13,2.7,6.83,1.05,14.91,2.26,23.85,3.59.04-.21.09-.41.14-.62-8.95-1.38-17.04-2.61-23.89-3.63Z"/>
      <path class="cls-15" d="M274.49,370.37c-6.54-3.24-11.85-5.86-15.55-7.64-1.85-.89-3.28-1.57-4.26-2.02-.48-.26-.99-.47-1.52-.63.45.32.92.6,1.42.84.93.58,2.36,1.29,4.18,2.23,3.64,1.89,8.91,4.58,15.44,7.88,6.47,3.26,14.17,7.12,22.72,11.37.1-.18.21-.36.32-.54-8.54-4.32-16.26-8.22-22.75-11.49Z"/>
      <path class="cls-15" d="M290.81,347.82c-5.23-5.13-9.48-9.25-12.44-12.08-1.49-1.41-2.64-2.5-3.44-3.24-.38-.4-.8-.75-1.26-1.07.33.44.69.86,1.09,1.24.74.78,1.85,1.92,3.29,3.38,2.91,2.91,7.08,7.1,12.22,12.29,5.38,5.3,11.84,11.63,19.03,18.65.16-.15.33-.29.49-.44-7.14-7.08-13.59-13.44-18.99-18.73Z"/>
      <path class="cls-15" d="M339.94,322.52c-1.25-7.21-2.26-13.05-2.96-17.08-.37-2.02-.69-3.57-.87-4.64-.08-.54-.21-1.08-.38-1.6,0,.55.05,1.1.15,1.64.14,1.06.37,2.64.68,4.66.61,4.05,1.55,9.9,2.73,17.13,1.3,7.89,2.9,17.42,4.7,28.02.2-.03.41-.06.61-.09-1.74-10.62-3.32-20.16-4.66-28.05Z"/>
      <path class="cls-15" d="M433.86,369.83c6.49-3.39,11.73-6.16,15.33-8.1,1.8-.97,3.2-1.73,4.14-2.26.5-.24.97-.53,1.41-.86-.52.17-1.03.39-1.51.65-.98.46-2.4,1.17-4.23,2.09-3.66,1.83-8.93,4.55-15.44,7.89-6.99,3.61-15.4,8-24.74,12.9.1.17.2.35.3.52,9.36-4.82,17.78-9.18,24.75-12.83Z"/>
      <path class="cls-15" d="M394.66,330.99c3.24-6.55,5.87-11.87,7.64-15.55.89-1.85,1.57-3.28,2.02-4.26.26-.5.47-1.04.62-1.58-.32.46-.59.96-.82,1.47-.58.93-1.28,2.36-2.23,4.18-1.88,3.63-4.57,8.91-7.87,15.45-3.65,7.23-8.03,16.01-12.9,25.8.18.09.36.18.55.27,4.93-9.76,9.35-18.53,12.98-25.77Z"/>
      <path class="cls-15" d="M417.26,347.27c5.12-5.22,9.24-9.47,12.08-12.44,1.41-1.48,2.5-2.64,3.23-3.43.4-.39.75-.81,1.06-1.27-.45.32-.86.68-1.24,1.09-.78.74-1.92,1.85-3.37,3.3-2.91,2.88-7.09,7.07-12.24,12.29-5.64,5.71-12.44,12.66-19.99,20.4.14.13.29.27.43.4,7.6-7.68,14.42-14.59,20.03-20.32Z"/>
      <path class="cls-15" d="M395.1,490.41c3.37,6.5,6.13,11.74,8.06,15.35.97,1.8,1.73,3.2,2.25,4.14.24.5.53.97.86,1.41-.17-.52-.39-1.03-.65-1.51-.46-.98-1.16-2.41-2.07-4.23-1.82-3.67-4.51-8.95-7.85-15.46-2.92-5.68-6.35-12.29-10.15-19.59-.18.11-.37.22-.55.32,3.75,7.3,7.16,13.91,10.09,19.57Z"/>
      <path class="cls-15" d="M266.01,425.07c-7.21,1.25-13.05,2.26-17.08,2.96-2.02.36-3.58.68-4.64.86-.54.08-1.08.21-1.6.38.55,0,1.1-.04,1.64-.15,1.07-.14,2.65-.37,4.67-.67,4.05-.61,9.9-1.55,17.13-2.73,6.51-1.06,14.14-2.33,22.57-3.75-.02-.21-.05-.41-.07-.62-8.45,1.37-16.1,2.63-22.62,3.71Z"/>
      <path class="cls-15" d="M434.07,451.26c6.55,3.28,11.86,5.91,15.54,7.7,1.85.89,3.28,1.58,4.26,2.03.48.26.99.47,1.52.63-.45-.32-.92-.6-1.42-.84-.92-.54-2.35-1.28-4.17-2.23-3.63-1.9-8.91-4.6-15.44-7.9-6.23-3.15-13.61-6.86-21.79-10.94-.08.2-.17.4-.26.6,8.15,4.13,15.52,7.84,21.76,10.96Z"/>
      <path class="cls-15" d="M442.61,396.57c7.22-1.21,13.06-2.22,17.1-2.92,2.01-.36,3.58-.68,4.64-.86.55-.07,1.08-.2,1.6-.38-.55,0-1.1.06-1.64.15-1.06.14-2.64.37-4.66.67-4.05.61-9.91,1.53-17.13,2.71-7.51,1.21-16.52,2.71-26.52,4.38.05.21.09.42.14.63,10-1.62,18.99-3.1,26.49-4.37Z"/>
      <path class="cls-15" d="M417.76,473.87c5.24,5.13,9.49,9.26,12.44,12.09,1.48,1.42,2.64,2.51,3.43,3.24.38.4.8.76,1.26,1.07-.33-.44-.69-.86-1.09-1.24-.74-.79-1.85-1.92-3.28-3.38-2.88-2.92-7.07-7.11-12.27-12.26-4.74-4.7-10.33-10.2-16.52-16.28-.14.16-.29.33-.44.49,6.14,6.09,11.71,11.59,16.47,16.26Z"/>
      <path class="cls-15" d="M291.31,474.26c-5.13,5.23-9.26,9.48-12.09,12.44-1.41,1.48-2.5,2.64-3.24,3.43-.4.38-.75.8-1.07,1.26.43-.34.83-.72,1.2-1.13.79-.74,1.92-1.85,3.38-3.28,2.91-2.88,7.1-7.07,12.25-12.27,4.31-4.35,9.29-9.42,14.77-15.01-.14-.14-.28-.29-.42-.43-5.51,5.57-10.51,10.64-14.79,15.01Z"/>
      <path class="cls-15" d="M274.72,451.6c-6.49,3.38-11.74,6.14-15.34,8.08-1.8.97-3.2,1.73-4.14,2.26-.5.24-.97.53-1.41.86.52-.16,1.03-.38,1.51-.65.98-.46,2.41-1.16,4.23-2.08,3.67-1.81,8.95-4.51,15.46-7.85,5.62-2.9,12.16-6.29,19.37-10.05-.09-.19-.18-.38-.26-.56-7.24,3.72-13.8,7.1-19.42,10Z"/>
      <path class="cls-15" d="M313.86,490.57c-3.24,6.54-5.86,11.85-7.65,15.54-.89,1.85-1.58,3.28-2.03,4.26-.26.48-.47.99-.63,1.52.32-.45.6-.92.84-1.42.54-.92,1.28-2.36,2.23-4.17,1.89-3.64,4.58-8.91,7.88-15.45,2.71-5.37,5.84-11.61,9.27-18.46-.2-.1-.39-.2-.59-.3-3.47,6.85-6.62,13.09-9.33,18.48Z"/>
      <path class="cls-15" d="M367.95,322.41c1.08-7.25,1.92-13.11,2.47-17.17.27-2.03.47-3.61.6-4.68.09-.54.14-1.1.13-1.65-.18.52-.3,1.06-.36,1.61-.2,1.06-.47,2.63-.8,4.65-.67,4.04-1.59,9.89-2.69,17.13-1.22,8-2.66,17.71-4.25,28.52.2.03.4.07.59.1,1.66-10.8,3.14-20.5,4.32-28.51Z"/>
      <path class="cls-15" d="M464.57,427.51c-1.06-.2-2.63-.47-4.65-.81-4.04-.67-9.9-1.61-17.13-2.72-7.24-1.12-15.86-2.42-25.43-3.85-.02.2-.03.4-.05.6,9.55,1.49,18.15,2.81,25.38,3.91,7.24,1.09,13.1,1.94,17.16,2.5,2.03.28,3.61.49,4.68.61.54.09,1.1.14,1.65.13-.52-.17-1.06-.29-1.61-.36Z"/>
    </g>
    <path class="cls-5" d="M398,413.27c-.39-24.05-20.21-43.23-44.26-42.83-24.05.39-43.23,20.21-42.83,44.26.28,16.89,10.29,32.09,25.69,39.01.09,5.16.19,10.98.19,10.98l38.15-.65s.12-6.17.12-11.67c14.36-7.71,23.22-22.8,22.95-39.1Z"/>
    <path class="cls-17" d="M337.55,474.27c.03.17,2.21,13.45,3.06,18.52.32,2.09,1.68,3.88,3.61,4.76.77.34,1.6.5,2.43.49l18.63-.33s4.87-.09,5.9-3.97c1.09-4.09,3.01-20.1,3.01-20.1l-36.65.63Z"/>
    <path class="cls-6" d="M338.24,488.58v-.1c-.01-.51.39-.93.9-.94l33.84-.72c.51-.01.94.4.95.91v.1c.01.51-.39.93-.9.94h0l-33.84.72c-.51.01-.94-.4-.95-.91Z"/>
    <path class="cls-6" d="M337.67,483.92v-.1c-.01-.51.39-.94.9-.95h0s34.72-.74,34.72-.74c.51-.01.93.39.94.9h0v.1c.01.51-.39.93-.9.94h0l-34.72.74c-.51.01-.93-.39-.95-.89h0Z"/>
    <path class="cls-6" d="M336.9,478.98v-.1c-.01-.51.39-.93.9-.94l36.13-.77c.51-.01.93.39.94.9h0v.1c.01.51-.39.94-.9.95l-36.12.77c-.51.01-.93-.39-.94-.9h0Z"/>
    <path class="cls-17" d="M332.04,458.43c0,.35.92,8.48,1.39,12.66.17,1.53,1.04,2.9,2.35,3.72l1.92,1.19,36.03-.64,1.86-1.24c1.29-.87,2.11-2.29,2.22-3.85l.84-12.66-46.61.83Z"/>
    <g class="cls-18">
      <path class="cls-16" d="M350.91,385.14c-.66-1.51-2.36-2.6-4.38-3.16-2.89-.76-5.96-.37-8.55,1.1-7.69,4.24-12.03,9.27-14.59,18.11-.87,2.99-1.26,7.92.27,10.81.72,1.48,2.04,2.59,3.62,3.06,4.12,1.12,7.3-2.92,8.51-6.74,1.12-3.56,1.48-7.57,3.95-10.38,2.04-2.31,5.12-3.34,7.68-5.05,2.56-1.71,4.72-4.94,3.5-7.75Z"/>
    </g>
    <g>
      <path class="cls-6" d="M356.63,425.19c2.27-1.45,4.05-3.66,4.33-6.41.21-2.07-.04-4.59-1.98-5.8-1.68-1.05-4.05-1.05-5.83-.24-2.05.94-2.96,2.98-2.97,5.16-.01,1.59.29,3.07,1.11,4.44.75,1.25,1.89,2.26,3.11,3.04.59.38,1.55.25,2.08-.18l.08-.06-2.08.18.08.06c.97.8,3.51-.6,2.24-1.65l-.08-.06c-.53-.44-1.6-.21-2.08.18l-.08.06,2.08-.18c-1.77-1.13-3.14-2.73-3.45-4.87-.14-.97-.13-2.06.15-3.01.02-.06.11-.31.17-.44.03-.07.07-.14.1-.21.01-.02.21-.34.06-.12.08-.12.17-.22.27-.33,0,0,.25-.24.09-.1-.15.13.16-.11.19-.13.06-.05.24-.12-.07.03.05-.03.13-.06.18-.09.08-.05.41-.15,0-.02.06-.02.13-.05.19-.06.12-.03.65-.11.2-.06.17-.02.35-.03.52-.05.34-.05-.21-.02,0,0,.09,0,.18.01.27.02.14.01.28.04.42.05.33.03-.24-.09.07.01.06.02.13.04.19.06s.13.05.19.07c.06.02.12.05.18.07-.11-.06-.13-.07-.06-.03.13.07.26.15.38.23.07.05.13.1.19.15.14.12-.16-.19.05.05s.45.59.52.75c.36.81.44,1.7.41,2.57-.04,1.22-.29,2.38-.97,3.42-.62.94-1.45,1.62-2.39,2.22-.52.33-.72,1.08-.16,1.47.62.43,1.5.19,2.08-.18Z"/>
      <path class="cls-6" d="M339.59,424.2c.39,1.25,1.51,2.08,2.68,2.55,1.6.64,3.34.84,5.05.82.71,0,2.04-.31,2-1.24-.08-2.13-.18-4.27-.41-6.39-.11-1.05-.16-2.35-.85-3.22-1.01-1.28-2.92-1.1-4.28-.61s-2.61,1.55-3.4,2.81c-.99,1.58-1.3,3.49-.79,5.28.17.61,1.21.5,1.65.37.42-.12,1.42-.53,1.25-1.15-.36-1.29-.26-2.74.3-3.87.14-.28.3-.54.47-.8.08-.11.16-.21.24-.32.19-.25-.09.09.04-.05.07-.07.13-.14.2-.21.1-.1.2-.2.31-.29.09-.08.33-.25.1-.09.11-.08.22-.15.33-.22.04-.02.15-.11.19-.11-.1,0-.29.13-.02.02.05-.02.1-.04.15-.06.22-.1-.13.06-.15.05.04,0,.15-.04.19-.05.17-.06-.35.04-.17.03.03,0,.16,0,.18-.02-.02.02-.36-.02-.15,0,.04,0,.1,0,.14,0,.24-.01-.27.03-.05,0,.02,0,.25.07.06,0-.16-.05-.01,0,.03.01.09.05.18.09.27.15-.19-.13.06.06.11.11.09.09.16.2.24.3.09.12-.06-.15,0-.01.01.03.03.05.04.08.03.07.06.15.08.22.07.21.11.42.16.63.12.58.19,1.18.25,1.77.23,2.12.33,4.26.41,6.39l2-1.24c-1.35.02-2.69-.09-3.86-.56-.94-.37-1.78-.93-2.08-1.89-.19-.6-1.19-.51-1.65-.37-.41.12-1.44.54-1.25,1.15Z"/>
      <path class="cls-6" d="M349.51,457.39c.16-10.35.22-20.72-.18-31.06l-2,1.25c3.12-.06,6.55-.72,9.11-2.56l-2.06.25.08.05c.55.36,1.57.06,2.06-.25l.08-.05-2.06.25c2.3,1.66,5.44,2.26,8.24,2.31l-.9-.69c-.4,10.34-.33,20.71-.17,31.06.01.97,2.92.4,2.9-.78,0,.25,0,.1,0-.05,0-.22,0-.44,0-.65,0-.78-.02-1.55-.03-2.33-.03-2.63-.04-5.25-.05-7.88-.01-6.57.01-13.14.26-19.71.02-.5-.46-.69-.9-.69-2.44-.04-5.05-.6-7.05-2.03-.53-.38-1.59-.05-2.06.25l-.08.05,2.06-.25-.08-.05c-.54-.35-1.59-.08-2.06.25-1.73,1.25-4.06,1.74-6.18,1.78-.72.01-2.04.31-2,1.25.39,10.2.33,20.42.17,30.62-.02,1.26,2.89.68,2.9-.34h0Z"/>
      <path class="cls-6" d="M362.92,417.41c-.53.95-.57,2.29-.68,3.34-.2,2.02-.3,4.06-.38,6.09-.03.75.73.91,1.33.92,1.97.02,4.11-.25,5.88-1.2.76-.41,1.49-.92,1.99-1.64s.73-1.55.8-2.42c.22-2.79-1.52-5.96-4.33-6.76-1.76-.5-3.64.08-4.61,1.67-.37.61.33,1.14.87,1.18.74.06,1.5-.23,1.89-.88.09-.15-.13.17.05-.07.2-.27-.15.09.01-.03.28-.21-.23.1-.03,0,.33-.16-.35.08,0,0,.24-.06-.39.06-.09.02.05,0,.1,0,.14,0,.16-.03-.32-.04-.16,0,.09.02.2.03.29.04.16.01-.26-.09-.11-.02.06.03.13.04.19.06.1.03.2.08.3.12.19.07-.02,0-.05-.03.05.03.1.05.15.08.23.14.45.29.66.45.05.04.3.27.14.12.09.09.18.18.27.28.18.2.35.4.5.62s.3.46.43.7c-.06-.12.08.17.1.23.07.17.13.33.18.5.09.28.16.56.2.85.06.36.06.45.05.8,0,.3-.04.59-.09.88-.07.4-.07.45-.24.78-.03.06-.06.11-.09.17.02-.04.15-.19.01-.02-.08.1-.17.2-.26.3-.05.05-.18.14.03-.02-.06.04-.11.09-.16.13s-.11.09-.17.13c-.03.02-.3.19-.12.08.17-.1-.05.02-.09.04-.09.04-.17.09-.26.13-.07.03-.15.07-.22.1-.06.02-.43.14-.09.04-.38.11-.76.22-1.15.31-.05.01-.29.05-.02,0-.12.02-.24.04-.35.05-.22.03-.44.05-.66.07-.51.04-1.02.06-1.53.05l1.33.92c.08-1.99.17-3.99.37-5.97.07-.66.14-1.33.26-1.99.04-.23.1-.46.15-.69.04-.18-.08.17-.02.07.02-.04.03-.09.04-.12.03-.07.06-.13.09-.19.34-.62-.31-1.14-.87-1.18-.72-.06-1.52.23-1.89.88Z"/>
    </g>
    <g>
      <path class="cls-7" d="M937.31,347.58c-2.64-5.07-4.8-9.17-6.32-11.99-.76-1.41-1.35-2.5-1.77-3.23-.19-.39-.41-.76-.68-1.1.13.41.3.81.51,1.19.36.76.91,1.87,1.63,3.3,1.41,2.87,3.52,6.99,6.14,12.08,2.81,5.42,6.22,11.94,10.01,19.18.14-.07.28-.13.43-.2-3.74-7.27-7.12-13.8-9.95-19.22Z"/>
      <path class="cls-7" d="M900.21,399.04c-5.66-.84-10.24-1.5-13.41-1.93-1.59-.21-2.82-.38-3.66-.47-.43-.07-.86-.11-1.29-.1.41.13.83.23,1.26.28.83.16,2.06.37,3.63.63,3.16.53,7.73,1.24,13.39,2.11,5.34.82,11.66,1.77,18.64,2.8.03-.16.07-.32.11-.49-6.99-1.08-13.32-2.04-18.67-2.83Z"/>
      <path class="cls-7" d="M906.9,378.15c-5.12-2.53-9.26-4.58-12.15-5.97-1.44-.7-2.56-1.23-3.33-1.58-.38-.21-.78-.37-1.19-.49.35.25.72.47,1.11.66.73.45,1.84,1.01,3.26,1.74,2.84,1.48,6.97,3.58,12.07,6.16,5.05,2.55,11.08,5.56,17.76,8.89.08-.14.16-.28.25-.42-6.68-3.38-12.71-6.42-17.78-8.98Z"/>
      <path class="cls-7" d="M919.66,360.52c-4.09-4.01-7.41-7.23-9.72-9.44-1.16-1.1-2.07-1.96-2.68-2.53-.3-.31-.63-.59-.98-.83.26.35.54.67.85.97.58.61,1.44,1.5,2.57,2.64,2.28,2.28,5.53,5.55,9.55,9.61,4.21,4.14,9.26,9.09,14.87,14.58.13-.12.25-.23.38-.34-5.58-5.53-10.62-10.5-14.84-14.64Z"/>
      <path class="cls-7" d="M958.06,340.75c-.98-5.63-1.77-10.2-2.32-13.35-.29-1.58-.54-2.79-.68-3.62-.06-.43-.16-.85-.3-1.25,0,.43.04.86.12,1.28.11.83.29,2.06.53,3.64.48,3.17,1.21,7.74,2.14,13.39,1.01,6.16,2.27,13.61,3.67,21.9.16-.02.32-.05.48-.07-1.36-8.3-2.59-15.76-3.64-21.92Z"/>
      <path class="cls-7" d="M1031.47,377.73c5.07-2.65,9.16-4.81,11.98-6.33,1.41-.76,2.5-1.35,3.23-1.77.39-.19.76-.42,1.1-.68-.41.13-.8.3-1.18.51-.76.36-1.88.91-3.31,1.63-2.86,1.43-6.98,3.56-12.07,6.17-5.46,2.82-12.04,6.25-19.34,10.08.08.14.16.27.24.41,7.32-3.77,13.89-7.18,19.34-10.03Z"/>
      <path class="cls-7" d="M1000.83,347.37c2.54-5.12,4.59-9.28,5.97-12.16.7-1.44,1.23-2.56,1.58-3.33.21-.39.37-.81.48-1.24-.25.36-.46.75-.64,1.15-.45.73-1,1.84-1.74,3.26-1.47,2.84-3.57,6.96-6.15,12.08-2.85,5.65-6.28,12.51-10.08,20.16.14.07.28.14.43.21,3.86-7.63,7.31-14.48,10.15-20.14Z"/>
      <path class="cls-7" d="M1018.49,360.09c4-4.08,7.23-7.4,9.44-9.72,1.1-1.16,1.96-2.06,2.52-2.68.31-.3.59-.63.83-.99-.35.25-.67.54-.97.85-.61.58-1.5,1.45-2.64,2.58-2.28,2.25-5.54,5.53-9.56,9.6-4.41,4.46-9.72,9.89-15.62,15.94.11.1.23.21.34.31,5.94-6,11.27-11.41,15.65-15.89Z"/>
      <path class="cls-7" d="M1001.17,471.97c2.64,5.08,4.79,9.18,6.3,12,.76,1.41,1.35,2.5,1.76,3.23.19.39.41.76.68,1.1-.13-.41-.3-.8-.51-1.18-.36-.76-.91-1.88-1.62-3.31-1.42-2.87-3.52-6.99-6.14-12.08-2.28-4.44-4.96-9.61-7.93-15.31-.14.08-.29.17-.43.25,2.93,5.71,5.59,10.87,7.89,15.3Z"/>
      <path class="cls-7" d="M900.28,420.9c-5.64.98-10.2,1.77-13.35,2.32-1.58.28-2.79.53-3.62.67-.43.06-.84.16-1.25.3.43,0,.86-.03,1.28-.12.84-.11,2.07-.29,3.65-.52,3.17-.48,7.74-1.21,13.39-2.13,5.09-.83,11.06-1.82,17.64-2.93-.02-.16-.04-.32-.06-.48-6.6,1.07-12.58,2.05-17.68,2.9Z"/>
      <path class="cls-7" d="M1031.63,441.37c5.12,2.56,9.27,4.62,12.15,6.02,1.44.7,2.56,1.24,3.33,1.59.38.2.78.37,1.19.49-.35-.25-.72-.47-1.11-.66-.72-.42-1.84-1-3.26-1.74-2.84-1.48-6.96-3.6-12.07-6.17-4.87-2.46-10.64-5.36-17.03-8.55-.07.16-.13.31-.2.47,6.37,3.23,12.13,6.13,17,8.56Z"/>
      <path class="cls-7" d="M1038.31,398.63c5.64-.94,10.21-1.74,13.36-2.28,1.57-.28,2.79-.53,3.62-.67.43-.06.85-.15,1.25-.3-.43,0-.86.04-1.28.12-.83.11-2.06.29-3.64.52-3.17.47-7.74,1.2-13.39,2.12-5.87.95-12.91,2.12-20.73,3.43.04.16.07.33.11.49,7.81-1.26,14.85-2.42,20.7-3.42Z"/>
      <path class="cls-7" d="M1018.88,459.04c4.1,4.01,7.42,7.23,9.72,9.45,1.16,1.11,2.06,1.96,2.68,2.53.3.31.63.59.98.84-.26-.35-.54-.67-.85-.97-.58-.62-1.44-1.5-2.57-2.64-2.25-2.28-5.52-5.55-9.59-9.58-3.71-3.67-8.08-7.98-12.91-12.72-.11.13-.23.26-.34.38,4.8,4.76,9.15,9.06,12.88,12.71Z"/>
      <path class="cls-7" d="M920.06,459.34c-4.01,4.09-7.24,7.41-9.45,9.72-1.1,1.16-1.96,2.06-2.53,2.68-.31.3-.59.63-.83.98.34-.27.65-.56.94-.88.62-.58,1.5-1.44,2.64-2.57,2.28-2.25,5.55-5.53,9.58-9.59,3.37-3.4,7.26-7.36,11.55-11.73-.11-.11-.22-.22-.33-.34-4.31,4.35-8.21,8.31-11.56,11.73Z"/>
      <path class="cls-7" d="M907.09,441.64c-5.07,2.64-9.17,4.8-11.99,6.31-1.41.76-2.5,1.35-3.23,1.77-.39.19-.76.41-1.1.67.41-.13.81-.3,1.18-.51.76-.36,1.88-.91,3.31-1.62,2.87-1.42,6.99-3.52,12.08-6.14,4.39-2.26,9.51-4.92,15.14-7.86-.07-.15-.14-.29-.21-.44-5.66,2.91-10.79,5.55-15.18,7.81Z"/>
      <path class="cls-7" d="M937.68,472.09c-2.53,5.12-4.58,9.26-5.98,12.14-.7,1.44-1.24,2.56-1.59,3.33-.2.38-.37.78-.49,1.19.25-.35.47-.72.66-1.11.42-.72,1-1.84,1.74-3.26,1.48-2.84,3.58-6.97,6.16-12.07,2.12-4.2,4.57-9.07,7.24-14.43-.15-.08-.31-.16-.46-.24-2.71,5.36-5.17,10.23-7.29,14.44Z"/>
      <path class="cls-7" d="M979.95,340.66c.84-5.67,1.5-10.25,1.93-13.42.21-1.58.37-2.82.47-3.65.07-.42.11-.86.1-1.29-.14.41-.24.83-.28,1.26-.16.83-.37,2.06-.63,3.64-.52,3.16-1.24,7.73-2.11,13.39-.96,6.26-2.08,13.84-3.32,22.29.15.02.31.05.46.08,1.3-8.44,2.45-16.03,3.37-22.29Z"/>
      <path class="cls-7" d="M1055.47,422.81c-.83-.16-2.06-.37-3.63-.63-3.16-.53-7.73-1.26-13.39-2.13-5.65-.88-12.39-1.89-19.88-3.01-.01.16-.03.31-.04.47,7.46,1.16,14.19,2.2,19.84,3.06,5.66.85,10.24,1.52,13.41,1.95,1.59.22,2.82.38,3.66.48.43.07.86.11,1.29.1-.41-.13-.83-.23-1.26-.28Z"/>
    </g>
    <path class="cls-11" d="M1003.44,411.68c-.31-18.8-15.79-33.79-34.59-33.48-18.8.31-33.79,15.79-33.48,34.59.22,13.2,8.04,25.08,20.08,30.49.07,4.03.15,8.58.15,8.58l29.82-.51s.1-4.82.09-9.12c11.23-6.03,18.15-17.82,17.94-30.56Z"/>
    <path class="cls-17" d="M956.19,459.35c.02.13,1.73,10.51,2.39,14.48.25,1.64,1.31,3.04,2.82,3.72.6.26,1.25.39,1.9.38l14.56-.26s3.8-.07,4.61-3.1c.85-3.2,2.35-15.71,2.35-15.71l-28.64.49Z"/>
    <path class="cls-6" d="M956.73,470.54v-.08c-.01-.4.31-.73.7-.73l26.45-.56c.4,0,.73.31.74.71v.08c.01.4-.31.73-.7.73h0l-26.45.56c-.4,0-.73-.31-.74-.71Z"/>
    <path class="cls-6" d="M956.29,466.9v-.08c-.01-.4.31-.73.71-.74h0s27.13-.58,27.13-.58c.4,0,.73.31.73.7h0v.08c.01.4-.31.73-.7.73h0l-27.13.58c-.4.01-.73-.3-.74-.7h0Z"/>
    <path class="cls-6" d="M955.68,463.04v-.08c-.01-.4.31-.73.7-.73l28.24-.6c.4,0,.73.31.73.7h0v.08c.01.4-.31.73-.71.74l-28.23.6c-.4,0-.73-.31-.73-.7h0Z"/>
    <path class="cls-17" d="M951.89,446.98c0,.27.72,6.63,1.08,9.9.13,1.2.81,2.27,1.84,2.9l1.5.93,28.16-.5,1.45-.97c1.01-.68,1.65-1.79,1.73-3.01l.66-9.9-36.43.65Z"/>
    <g class="cls-18">
      <path class="cls-16" d="M966.63,389.69c-.51-1.18-1.85-2.03-3.42-2.47-2.26-.6-4.66-.29-6.68.86-6.01,3.31-9.4,7.25-11.41,14.15-.68,2.34-.98,6.19.21,8.45.57,1.16,1.59,2.02,2.83,2.39,3.22.87,5.71-2.28,6.65-5.27.87-2.79,1.15-5.92,3.09-8.11,1.59-1.8,4-2.61,6-3.95,2-1.34,3.69-3.86,2.74-6.06Z"/>
    </g>
    <g>
      <path class="cls-6" d="M971.32,421.13c1.82-1.16,3.27-2.97,3.5-5.17.17-1.68-.05-3.71-1.62-4.69-1.43-.89-3.44-.88-4.94-.19-1.69.78-2.49,2.43-2.51,4.24,0,1.29.23,2.47.9,3.58.59.99,1.51,1.8,2.48,2.41.59.38,1.55.25,2.08-.18l.06-.05c-.69.06-1.38.12-2.08.18l.06.05c.97.8,3.51-.6,2.24-1.65l-.06-.05c-.53-.44-1.6-.21-2.08.18l-.06.05c.69-.06,1.38-.12,2.08-.18-1.36-.87-2.38-2.05-2.62-3.71-.11-.75-.08-1.55.12-2.29-.06.21.03-.09.04-.11.02-.06.05-.12.07-.17.04-.08.29-.47.09-.2.07-.09.14-.17.21-.26.03-.03.22-.2.05-.05s.09-.05.12-.08c.16-.14-.3.14.02,0,.37-.17-.33.07.06-.03.05-.01.1-.03.15-.04.33-.1-.08.04-.08,0,0-.03.36-.03.41-.04.28-.04-.26-.03-.08,0,.07,0,.14,0,.21.01.11.01.22.03.33.04.28.02-.28-.1-.02,0,.05.02.1.03.15.04s.1.04.15.05c.05.02.1.04.14.06-.15-.08-.19-.09-.11-.05.09.07.2.11.29.18.05.04.1.08.15.12.12.09-.15-.21,0,0,.06.09.14.16.2.25.05.07.09.14.14.21.12.17-.05-.15.04.07.26.68.34,1.27.32,1.95-.03.99-.21,1.78-.74,2.62.03-.04.11-.15-.04.05-.07.1-.15.2-.23.3-.16.2-.34.38-.52.56.04-.04.17-.14-.03.03-.1.08-.2.17-.3.24-.21.16-.43.31-.65.45-.52.33-.72,1.08-.16,1.47.62.43,1.5.19,2.08-.18Z"/>
      <path class="cls-6" d="M957.47,420.31c.32,1.01,1.21,1.69,2.16,2.06,1.29.51,2.69.69,4.08.67.71,0,2.04-.31,2-1.24-.07-1.67-.14-3.34-.32-5-.09-.85-.13-1.86-.69-2.56-.89-1.11-2.59-.92-3.77-.49s-2.17,1.28-2.83,2.32c-.79,1.26-1.05,2.79-.64,4.22.17.61,1.21.5,1.65.37.42-.12,1.42-.53,1.25-1.15-.16-.57-.22-1.04-.16-1.57.03-.26.08-.51.15-.76.03-.12.07-.24.12-.36.02-.05.04-.1.06-.16-.07.18.03-.06.04-.08.11-.22.23-.43.37-.62.06-.09.13-.17.19-.25.15-.2-.13.12-.01,0,.05-.05.1-.11.16-.17.08-.08.16-.16.24-.23.04-.03.07-.06.11-.09.16-.14-.08.07-.09.07.02,0,.23-.15.26-.17.05-.03.11-.05.15-.08-.08.07-.32.14-.09.05.04-.01.08-.03.12-.05.19-.09-.2.07-.2.07.04,0,.1-.03.15-.04.16-.06-.39.06-.22.04.04,0,.11,0,.14-.02,0,0-.38-.01-.2,0,.03,0,.08,0,.11,0,.22,0-.31-.05-.11-.01.27.05-.18-.11.01,0,.07.04.14.09.21.12-.2-.08-.05-.04.04.06.07.07.12.17.19.24.08.08-.06-.16-.03-.05,0,.02.02.04.03.06.02.06.04.11.06.17.05.16.09.33.12.49.09.46.15.92.2,1.38.18,1.66.25,3.33.32,5,.67-.41,1.34-.83,2-1.24-.32,0-.64,0-.96-.02-.14,0-.27-.02-.41-.03-.06,0-.11-.01-.17-.02.14.02.13.01-.01,0-.28-.05-.57-.1-.85-.17-.1-.03-.2-.06-.3-.08-.12-.04-.13-.04-.02,0-.06-.02-.12-.04-.18-.07-.2-.08-.4-.17-.58-.28-.1-.06-.2-.12-.29-.18.16.11-.1-.09-.13-.11-.13-.12-.26-.26-.36-.41-.03-.04-.06-.08-.08-.13.04.08.04.08,0-.01-.04-.09-.08-.18-.11-.28-.19-.6-1.19-.51-1.65-.37-.41.12-1.44.54-1.25,1.15Z"/>
      <path class="cls-6" d="M965.86,446.13c.12-8.1.17-16.23-.14-24.33l-2,1.25c2.54-.05,5.35-.58,7.44-2.09l-2.06.25.06.04c.55.36,1.57.06,2.06-.25l.06-.04-2.06.25c1.83,1.32,4.34,1.79,6.57,1.84l-.9-.69c-.31,8.1-.26,16.22-.13,24.33.01.97,2.92.4,2.9-.78,0,.39,0-.39,0-.54,0-.62-.01-1.24-.02-1.86-.02-2.04-.03-4.08-.04-6.12-.01-5.12,0-10.25.21-15.37.02-.5-.46-.69-.9-.69-1.86-.03-3.85-.46-5.38-1.56-.53-.38-1.59-.05-2.06.25l-.06.04,2.06-.25-.06-.04c-.54-.35-1.59-.08-2.06.25-1.26.91-2.97,1.28-4.51,1.31-.72.01-2.04.31-2,1.25.3,7.95.26,15.93.13,23.89-.02,1.26,2.89.68,2.9-.34h0Z"/>
      <path class="cls-6" d="M975.72,414.88c-.42.76-.46,1.83-.55,2.67-.16,1.58-.23,3.17-.3,4.76-.03.75.73.91,1.33.92,1.6.02,3.34-.21,4.76-.98.64-.34,1.26-.77,1.68-1.37s.63-1.28.68-2.01c.18-2.27-1.24-4.82-3.52-5.47-1.55-.45-3.23.08-4.09,1.48-.37.61.33,1.14.87,1.18.74.06,1.5-.23,1.89-.88.1-.17-.07.1-.07.1,0,0,.07-.08.07-.09,0-.03.06-.06.08-.09-.09.17-.24.2-.13.12.25-.19-.28.14-.09.04.3-.14-.4.1-.08.03.22-.05-.43.06-.15.03.04,0,.07,0,.11,0,.16-.02-.36-.03-.2,0,.07.01.16.02.23.03.15.02-.3-.09-.16-.03.05.02.1.03.15.04.08.03.16.06.24.09.19.07-.11-.05-.1-.05.01,0,.1.05.12.06.18.11.35.22.52.36.07.05.27.26.07.05.07.07.14.14.21.22.14.15.27.32.39.49s.23.36.33.55c-.12-.21.03.06.05.13.05.13.1.26.14.39.07.22.12.44.16.67.02.12.03.23.04.35-.02-.22,0,.16,0,.22,0,.23-.03.46-.07.69-.02.13-.07.25-.09.38.03-.19.04-.09,0-.03-.03.07-.06.14-.09.21,0,.02-.07.13-.07.13,0-.01.19-.24.05-.07-.07.08-.13.16-.2.24-.11.13-.02-.06.08-.07-.02,0-.13.1-.13.1-.04.03-.09.07-.14.1s-.27.16-.06.04-.17.08-.24.12c-.06.03-.11.05-.17.08-.04.02-.09.04-.13.05-.11.04-.06.02.15-.05,0-.01-.81.22-.9.24-.08.02-.27.09.07,0-.09.02-.19.03-.28.04-.17.02-.34.04-.51.06-.4.03-.8.04-1.2.04l1.33.92c.06-1.56.13-3.12.29-4.67.05-.52.11-1.04.2-1.55.03-.18.08-.36.12-.54.04-.17-.09.22-.04.12.02-.03.02-.07.03-.1.02-.05.04-.1.07-.15.34-.62-.31-1.14-.87-1.18-.72-.06-1.52.23-1.89.88Z"/>
    </g>
  </g>
</svg>