<?xml version="1.0" encoding="UTF-8"?>
<svg id="Layer_1" data-name="Layer 1" xmlns="http://www.w3.org/2000/svg" xmlns:xlink="http://www.w3.org/1999/xlink" viewBox="0 0 1163.19 1163.19">
  <defs>
    <style>
      .cls-1 {
        fill: none;
      }

      .cls-2 {
        fill: #b589be;
      }

      .cls-3 {
        fill: #010101;
      }

      .cls-4 {
        fill: #653c29;
      }

      .cls-5 {
        fill: url(#linear-gradient);
      }

      .cls-6 {
        fill: #f1eef7;
      }

      .cls-7 {
        fill: #a66e53;
      }

      .cls-8 {
        clip-path: url(#clippath-1);
      }

      .cls-9 {
        fill: #c95744;
      }

      .cls-10 {
        fill: #5e1a15;
      }

      .cls-11 {
        fill: #24180f;
      }

      .cls-12 {
        clip-path: url(#clippath);
      }

      .cls-13 {
        fill: #4f2e25;
      }
    </style>
    <clipPath id="clippath">
      <circle class="cls-1" cx="501.75" cy="-910.36" r="581.59"/>
    </clipPath>
    <clipPath id="clippath-1">
      <circle class="cls-1" cx="581.59" cy="581.59" r="581.59"/>
    </clipPath>
    <linearGradient id="linear-gradient" x1="581.52" y1="574.95" x2="568.23" y2="-588.16" gradientUnits="userSpaceOnUse">
      <stop offset=".11" stop-color="#bbe5f5"/>
      <stop offset=".63" stop-color="#76c7db"/>
    </linearGradient>
  </defs>
  <g class="cls-12">
    <path class="cls-2" d="M899.43-185.5c-28.81,53.53-18.81,390.31-33.35,513.39-6.28,53.14,22.16,51.07,6.35,85.45-31.27,68-18.05-62.35,11.23,34.41,0,0-237.39,94.31-412.55,111.15-175.16,16.84-402.47-41.18-402.47-41.18,63.3-158.62,79.31-247.76,79.31-247.76L124.7-20.49,29.64-192.27c-21.46-154.09,44.98-272.23,204.22-351.21l135.85-66.9s117.74,153.8,260.71,114.49c86.03-23.65,33.49-88.8,33.49-88.8,0,0,208.29,73.88,243.75,101.05,35.46,27.17-.4,53.76,35.41,146.18,36.77,94.88,76.73,157.16,85.38,173.02,8.65,15.86-154.73,114.81-154.73,114.81"/>
  </g>
  <g class="cls-8">
    <circle class="cls-5" cx="581.59" cy="581.59" r="581.59"/>
    <circle class="cls-1" cx="581.59" cy="581.59" r="581.59"/>
    <path d="M853.54,334.17c-6.72-17.71-19.71-33.43-23.19-51.88-3.13-16.66,1.85-33.75,1.85-50.73-2.24-35.36-22.94-67.65-55.76-86.99-32.69-18.77-113.29-61.17-151.97-63-37.33-2.93-77.56-.31-107.82,19.81-21.33,14.04-35.59,35.32-56.92,49.26-28.98,19.08-66.78,22.01-102.25,26.94-35.48,4.93-73.62,13.83-95.18,39.83-30.13,36.32-14.87,88.85-32.38,131.41-14.51,5.86-29.75,9.88-45.42,11.89-8.85,1.67-17.35,4.64-25.24,8.83-8.55,4.33-15.59,11.13-20.3,19.61-4.5,9.22-5.49,19.98-2.8,30.31,2.68,10.05,6.25,19.87,10.68,29.35,4.29,9.16,7.42,18.79,9.32,28.64,1.65,9.47,1.52,19.07-.37,28.29-3.45,17.62-14.08,32.52-29.28,41.05-14.47,8.34-31.44,6.54-46.84,8.39-7.65.66-15.03,2.81-21.73,6.35-6.34,3.41-11.17,9.06-13.65,15.97-4.15,11.87-1.27,25.51,7.45,35.27,11.83,11.22,29.37,12.48,41.46,2.99,1.4-1.14,2.62-2.5,3.61-4.03-5.22,5.11-12.09,8.14-19.47,8.59-8.63.65-17.32-2.68-23.73-9.08-7.86-9.04-10.33-21.55-6.38-32.35,2.32-6.13,6.71-11.1,12.41-14.07,6.35-3.17,13.28-5.08,20.45-5.62,14.67-1.63,32.51.53,48.47-8.4,16.42-9.01,27.93-24.95,31.69-43.87,2.01-9.8,2.15-20,.44-30.07-1.94-10.28-5.19-20.34-9.66-29.9-4.29-9.19-7.78-18.7-10.44-28.43-2.36-9.15-1.54-18.67,2.31-26.9,4.26-7.72,10.67-13.91,18.45-17.84,7.54-4.05,15.66-6.95,24.12-8.62,14.49-2.01,28.57-5.79,42.07-11.07-8.53,17.8-22.07,33.49-31.66,50.92-1.89,3.45-3.43,7.29-4.78,11.32-12.18,14.08-21.6,30.1-21.6,46.27,0,32.99,13.3,69,18.46,96.91.53.86.92,1.84.92,3.11,0,.73-.01,1.47-.01,2.2.4,2.7.67,5.27.86,7.78-.36.48-.63,1.09-1.02,1.54-.43,12.48-2,24.93-7.74,36.22-8.04,15.79-23.63,26.25-38.95,34.18-15.84,8.2-33.6,14.2-51.59,16.19,21.1,22.42,55.46,57.27,69.69,62.27.86.3,10,6.65,10.71,6.17,22.55-8.86,53.28-35.73,70.32-55.03,0,0-29.5,51.52-61.33,62.88l18.08,14.74c64.25,51.77,175.34,91.12,257.71,96.99-16.35-16.04-18.24-42.24-11.84-64.25,7.98-21.42,15.57-39.42,28-58.61,8.45-15.38-21.42-33.25-20.3-50.83,1.74-.24,3.61-.37,5.24-.68l311.74-269.24c38.22-21.51,98.6-32.12,85.08-70.94Z"/>
    <path d="M737.42,274.72c12.99,3.26,31.47-6.91,47.81,3.77,4.62,3.02,11.58-29.19,15.36-26.09,99.48,46.19,86.92,137.31,82.72,197.71-2.19,28.76-25.32,70.52-5.47,92.09,19.85,21.58,58.01,19.88,76.82,41.86,22.14,25.84,3.77,65.36,11.79,98.02,8.87,31.42,40.63,51.69,74.97,47.85-38.95,30.92-85.97,51.22-135.87,58.65l-38.11-45.5c13.22,17.56,17.39,56.7,17.39,56.7-19.18,21.77-65.5,32.23-76.91,34.85-49.2,11.31-164.26,58.4-307.7,19.95,62.6-175.61,127.84-411.81,190.44-587.42"/>
    <path d="M1063.33,661.47c2.4,6.88,2.38,14.37-.04,21.24-2.74,8.08-8.92,14.53-16.88,17.62-10.78,3.28-22.49.22-30.28-7.92-4.39-4.69-6.99-10.76-7.36-17.17-.31-7.08.7-14.16,2.97-20.87,4.2-13.96,12.88-29.17,11.29-47.39-1.48-18.66-10.79-35.82-25.64-47.22-7.66-5.96-16.39-10.41-25.71-13.12-9.59-2.6-19.48-3.92-29.41-3.92-9.54,0-19.07-.87-28.45-2.59-8.77-1.73-16.66-6.5-22.26-13.47-5.02-7.13-7.9-15.53-8.3-24.24-.61-8.53,0-17.1,1.8-25.46,4.29-15.73,6.57-31.95,6.8-48.25-.99-14.55-6.29-28.47-15.22-40-7.54-9.06-16.73-16.61-27.09-22.24-7.53-4.32-14.75-9.18-21.59-14.54-5.58-4.8-10.14-10.66-13.43-17.25l.24,1.45c.42,1.38,1,2.71,1.71,3.97,2.55,5.05,6.1,9.53,10.43,13.17,6.71,5.7,13.87,10.86,21.41,15.41,9.89,5.72,18.64,13.23,25.8,22.13,8.3,11,13.15,24.22,13.94,37.97-.42,15.95-2.84,31.79-7.19,47.15-1.94,8.71-2.63,17.66-2.05,26.56.46,9.57,3.62,18.81,9.12,26.65,6.21,7.97,15.1,13.42,25.01,15.36,9.67,1.83,19.49,2.75,29.33,2.76,9.52,0,19.01,1.24,28.21,3.69,8.78,2.51,16.99,6.69,24.2,12.31,13.84,10.58,22.6,26.5,24.13,43.85,1.64,16.62-6.39,31.2-10.68,45.91-2.36,7.2-3.32,14.78-2.84,22.34.51,7.17,3.53,13.94,8.53,19.11,8.63,8.78,21.47,11.94,33.19,8.19,14.17-5.95,21.96-21.28,18.42-36.24-.45-1.75-1.15-3.42-2.08-4.97Z"/>
    <path class="cls-7" d="M428.98,635.27s37.01,117.43,4.17,207.39c-4.58,12.54-54.56,60.9-54.56,60.9l32.01,28.89c55.21,34.88,120.75,50.49,185.55,42.44.62-.08,1.23-.15,1.83-.23,44.36-5.69,85.84-24.88,119.47-54.35l28.56-25.02s-60.24-19.72-63.74-35.06c-3.5-15.34,8.79-132.02,8.79-132.02"/>
    <path class="cls-7" d="M703.65,673.11c-6.31,68.84,2.82,135.7-1.18,204.7-.14,2.46-.24,5.09,1.1,7.21.88,1.39,2.29,2.4,3.67,3.37,5.01,3.54,10.02,7.07,15.03,10.61-2.01,14.24.25,40.09-9.55,51.06-19.41,21.74-51.14,31.53-80.17,34.91-76.08,8.86-166.42-34.43-219.52-80.25-6.38-5.5-17.96-21.35-16.53-29.08,1.4-7.55,25.77-16.56,30.16-24.69,32.82-60.78,7.96-194.33,7.96-194.33"/>
    <path class="cls-13" d="M495.2,767.86s24.6,67.46,146.65,92.35c0,0,41.04,4.63,61.8-1.89v-26.75l-208.45-63.71Z"/>
    <g>
      <path class="cls-7" d="M438.79,682.86c-.6-11.89-14.1-22.28-14.32-32.91-.65-31.14-4.52-62.09-6.1-93.18-3.42-7.79-6.43-16.75-8.74-22.23-3.66-7.62-9.2-16.18-12.87-23.79-10.91-17.38-34.68-11.65-47.66-.57l-2.14,3.62c-17.96,24.92-11.78,86.42,22.87,127.04,4,40.89,40.43,63.38,68.96,42.02Z"/>
      <path class="cls-7" d="M854.19,608.11c-2.02-15.74-11.65-45.02-10.77-60.18.99-17.51-.24-101.8-16.78-154.76-20.16-64.53-40.04-96.45-40.04-96.45-2.5-10.91,24.99-6.29,18.93-14.98l-4.76.05s2.39,1.07,2.43,4.35c-6.05-.86-12.11-4.07-16.76-7.65,0,.17,0,.18,0,.18-7.12,3.36-14.3.16-20.32-5.24.01,1.1,1.22,3.27,2.42,3.25-7.14,1.17-14.32-2.03-19.14-6.35.01,1.09,1.24,3.27,1.25,4.36-5.43-.93-10.87-3.68-15.42-6.6.88,1.14,17.94-1.45,24.9-2.17-.35-.52-.86-1.14-1.88-2.06l-5.95-4.01c-5.95,1.16-5.68,4.75-10.5.43,1.2,1.08-3.42-12.01-3.4-10.92-7.16.08-5.21-.42-11.2-3.63.01,1.09-19.4,7.33-19.39,8.41-5.95.07-4.32,5.51-9.14,1.19.9.8,2.82-2.15,4.23-3.27-6.2,1.45-8.92,5.18-14.57.11,1.2,1.09-23.69-11.74-23.69-11.74-7.14,1.17-5.9,3.41-11.91-.9,2.42,2.16-33.01-1.67-31.8.5-5.95.06,11.62,21.71,6.82,18.48.01,1.1-13.75-3.13-13.75-3.13-2.52.49-2.33,1.72-1.67,2.66.22,1.32,1.28,3.91,2.35,3.9-7.11,3.36-15.48,1.27-22.67-3.03,2.41,2.16,3.63,4.34,4.83,5.42-5.96.06-10.71,1.21-16.71-3.1.02,1.09,2.43,4.35,3.62,4.33-5.94,2.25-13.1,1.24-19.08-1.97.01,1.09,2.42,3.25,3.61,4.33-4.74,1.14-9.51,1.2-14.31-2.03l3.62,4.34c-4.76.05-8.31,2.28-15.49.17.01,1.09,2.41,2.16,2.43,3.25-3.58.04-8.35.09-11.93-.96.01,1.09,3.61,3.24,2.41,3.25-4.76.05-8.31,2.28-14.29.16,1.2,1.08,2.41,3.25,3.62,4.33-4.77.05-9.52,1.2-14.31-.94.01,1.09,1.22,3.26,2.43,4.35-4.77.05-8.32,2.27-14.3.16.01,1.09,2.42,3.25,3.63,4.33-4.77.05-9.53,1.2-14.3.16.01,1.1,2.41,2.17,3.62,3.24-4.77.05-9.52,1.2-15.5-.92.02,2.18,1.22,3.27,1.24,4.35-3.57.04-5.97-1.02-9.54-.98l-5.94,2.25c-16.43,22.05-60,66.27-60,66.27-36.6,29.93,46.18,82.63,47.6,103.39,1.06,15.55-30.26,65.17-46.05,89.11,1.46,33.13,5.4,66.15,6.27,99.33.34,12.98,36.41,39.35,36.42,53.12l30.32,45.7c47.65,46.98,128.57,78.59,182.24,85.23,26.29,3.25,49.19,10.12,75.46-9.1,65.92-48.24,131.52-136.08,120.57-221.4Z"/>
      <path class="cls-7" d="M733.89,267.22c.43.29.89.58,1.34.88-.5-.64-.99-1.3-1.36-1.97v1.09Z"/>
      <path class="cls-7" d="M784.02,276.51c.74.67,1.56,1.33,2.41,1.98v-.91s-2.42-2.16-2.41-1.07Z"/>
    </g>
    <g>
      <path class="cls-3" d="M728.32,647.08c-7.67,4.08-19.5,3.41-27.4-1.09-1.75-1-7.5.12-5.05,1.53,10.43,5.94,27.4,6.16,37.3.89.98-.53.79-1.26-.46-1.63-1.3-.39-3.35-.26-4.39.29"/>
      <path class="cls-3" d="M692.47,645.45c-5.25-2.27-11.12-3.4-16.95-3.71-.85-.04-1.95.29-2.57.85-.48.43-.57,1,.07,1.34,2.71,1.43,6.15,1.98,9.3,1.86.99-.04,2.29-.3,2.84-1.14.5-.77-.46-1.24-1.24-1.22-2.6.1-5.26-.34-7.5-1.52-.84.73-1.67,1.46-2.5,2.19,5.21.28,10.45,1.33,15.15,3.36.93.41,2.26.1,3.08-.39.61-.37,1.26-1.21.32-1.62"/>
      <path class="cls-3" d="M669.35,646.64c-6.82-.02-14.89-2.72-18.34-7.6-5.21-7.37-.71-20.03,7.71-24.99.91-.54.41-1.2-.53-1.37-1.23-.23-2.67.24-3.62.8-7.33,4.32-11.96,14.87-10.71,21.86,1.18,6.53,7.79,10.97,15.98,12.7,2.44.51,5.03.84,7.58.85,1.03,0,2.88-.34,3.37-1.13.5-.8-.46-1.13-1.42-1.13"/>
      <path class="cls-3" d="M740.74,643.48c-.38-.75.29-1.26.83-1.26,1.84,0,3.71-.53,5.26-1.79.62.7,1.23,1.4,1.84,2.1-3.68.47-7.35,1.71-10.6,3.91-.65.44-1.6.18-2.19-.28-.45-.35-.93-1.16-.28-1.61"/>
      <path class="cls-3" d="M735.6,644.54c3.64-2.46,7.75-3.79,11.87-4.32.6-.07,1.39.22,1.84.75.36.42.44.98,0,1.34"/>
      <path class="cls-3" d="M754.92,644.07c4.43-.26,9.59-3.23,11.67-8.23,3.14-7.55-.1-16.37-5.73-21.03-.61-.51-.31-1.19.3-1.39.79-.27,1.74.15,2.38.68,4.91,4.06,8.16,10.76,7.58,17.8-.55,6.57-4.7,11.24-9.97,13.25-1.57.6-3.24,1.01-4.9,1.11-.67.04-1.88-.24-2.23-1.01-.35-.78.26-1.14.89-1.18"/>
    </g>
    <path d="M840.24,445.83c-28.03-9.37-46.18-9.82-94.43-4.11l-.1,1.09c-.78,6.23-.33,2.75-1.1,9.02-.58,4.77-1.16,9.54-1.71,14.3,15.77-2.09,27.27-5.08,37.35-5.54,19.09-.89,41.04-4.18,59.89.33,3.95-8.19,1.78-10.1.1-15.09Z"/>
    <path d="M652.27,445c-.18,6.28-.09,2.77-.29,9.09-.16,4.81-.32,9.6-.49,14.39-15.27-4.48-26.17-9.19-36.07-11.2-19.62-3.99-41.95-11.07-61.99-8.58-9.59,1.2-23.35,3.19-30.44,11.57-1.9,2.25-5.58,10.42-9.29,8.61-1.52-.74,1.22-8.41,1.51-9.2,5.61-15.46,19.25-21.57,35.82-24.83,33.78-6.64,50.68-5.04,101.3,9.05"/>
    <path d="M802.52,502.02c6.81-3.62,14.85-.64,19.38,3.28,1.07.92,3.93,3.55,5.3,8.04,1.76,5.73-.47,12.28-4.04,16.29-4.76,5.35-12.79,6.35-18.99,3.54-8.41-3.81-11.25-13.85-9.25-21.2.37-1.34,2.1-7.01,7.6-9.94"/>
    <path d="M740.92,525.72s33.5-26.62,50.75-28.51c25.18-2.75,42.64,8.37,51.71,20.62,0,0-27.58-17.84-45.27-15.39-16.91,2.34-57.19,23.28-57.19,23.28Z"/>
    <path d="M606.03,506.74c-6.89-3.47-14.86-.32-19.3,3.7-1.05.94-3.85,3.64-5.12,8.16-1.63,5.77.74,12.27,4.4,16.19,4.88,5.24,12.93,6.06,19.07,3.12,8.33-4,10.94-14.1,8.78-21.4-.4-1.34-2.26-6.96-7.81-9.77"/>
    <path d="M643.46,527.36s-36.4-25.76-54.86-27.35c-33.3-2.87-64.02,16.3-73.42,28.76,0,0,47.71-25.43,66.66-23.39,18.11,1.96,61.62,21.98,61.62,21.98Z"/>
    <path class="cls-4" d="M703.12,690.38c-36.18-.54-94.19-1.51-94.19-1.51,0,0,9.23,82.72,93.11,83.97,83.88,1.25,77.04-82.55,77.04-82.55,0,0-39.78.64-75.96.1Z"/>
    <path class="cls-11" d="M703.47,690.38c-17.2-.26-85.94.06-85.94.06,0,0,25.3,53.65,87.52,54.58,67.45,1.01,62.69-51.67,62.69-51.67l-64.27-2.97Z"/>
    <path class="cls-6" d="M704.18,693.17c-17.2-.26-68.95.31-68.95.31,0,0,17.99,16.07,69.59,16.84,51.6.77,62.96-14.44,62.96-14.44l-63.6-2.71Z"/>
    <path class="cls-4" d="M781.75,686.13c-1.82-.51-1.81-.53-10.34-1.44-14.22-1.53-19.22-6.25-29.52-7.26-17.59-1.72-22.67,5.04-30.33,4.92-7.66-.11-18.73-7.76-36.36-6.56-10.33.7-35.37,8.83-49.63,9.93-8.55.66-14.79,1.36-16.62,1.81-2.55.63-2.2,11.88,94.05,13.31,96.25,1.44,81.3-14.01,78.77-14.72Z"/>
    <path d="M547.49,196.48c-20.63-3.46-42.92-6.05-61.66,3.16-19.82,9.84-24.28,36.42-41.67,50.9-101,84.15-53.14,155.27-94.12,233.36,8.76,3.14,17.21,7.54,25.19,13.42,15.54,11.45,31.25,34.01,40.26,50.2,27.67-5.01,30.08-23.73,42.59-53.84,11.61-27.81,4.34-72.49,27.09-91.63,30.19-25.18,87.64,2.86,117.94-22.28,17.67-14.53,31.29-52.88,48.54-65.78,17.25-12.91,27.64-12.04,48.74-8.27,21.1,3.77,42.56,10.19,63.77,7.22,21.21-2.97,53.63-11.46,53.36-32.88-83.07-35.5-180.91-68.74-270.02-83.58Z"/>
    <path class="cls-9" d="M948.52,1554.68c-5.63,6.86-.24,12.43-1.59,178.82-.24,30.14,29.97,137.27,36.54,165.77-25.84,8.34-52.27,14.86-79.11,19.34-117.31,19.58-237.39,3.43-351.78-25.38-97.83-24.63-192.77-59.04-287.18-94.41l2.79-6.63-35.62-850.36,163.8-77.19,6.85-3.98,6.16,8c34.91,43.26,116.78,98.71,174.41,99.88,16.87.34,34.61-.43,52.64-2.51,50.26-5.8,91.67-46.62,72.16-91.92-.68-1.57,62.73,16.29,69.82,18.84,38.09,13.73,83.08,37.03,111.69,50.65,19.82,9.43,77.9,55.58,90.29,73.71,22.34,32.71-9.33,50.29-6.63,137.45"/>
    <path class="cls-9" d="M299.1,1339.74l-18.77-416.11s-143.47,33.81-190.99,153.44c-42.78,128.51-113.91,540.07-114.18,624.61-.42,132.81,16.78,271.74,65.78,705.26l162.25-25.21,16.57-692.01,79.33-349.98Z"/>
    <path class="cls-10" d="M401.28,862.19c2.49,3.38,5.23,6.59,7.97,9.76,7.14,8.25,14.75,16.08,22.7,23.54,11.32,10.61,23.37,20.44,36.1,29.31,15.1,10.52,31.17,19.68,48.08,26.96,18.64,8.03,38.26,13.74,58.38,16.51,22.77,3.14,46.16,2.52,68.71-1.97,17.5-3.48,35.15-9.53,49.22-20.84,8.68-6.98,15.66-16.09,19.45-26.62,2.21-6.14,3.41-12.75,3.22-19.28-.03-.93-.02-1.92-.23-2.84-.55-2.36-1.42-4.69-2.12-7-1.09-3.6-2.18-7.21-3.28-10.81-.55-1.81-1.1-3.63-1.65-5.44l-2.64.96c10.59,3.45,21.18,6.91,31.76,10.36,1.24.4,2.57.72,3.77,1.23-.51-.22-.22-.24-.17-.04.04.15.21.34.3.47.34.55.65,1.12.94,1.7,2.78,5.43,4.23,11.55,4.75,17.6.96,11.19-1.42,22.42-5.6,32.78-2.75,6.81-6.37,13.18-10.89,18.97-9.6,12.28-22.42,21.77-36.33,28.64-18.15,8.96-38.21,13.61-58.31,15.38-23.89,2.11-48.12.35-71.67-4.04-23.66-4.42-46.81-11.55-68.95-20.97-24.64-10.48-47.98-23.83-69.62-39.6-16.93-12.34-33.71-24.97-49.62-38.61-5.44-4.66-10.99-9.39-15.81-14.73-.16-.17-.32-.35-.47-.53l-.52.71c5.04-2.45,10.07-4.89,15.11-7.34,8.04-3.91,16.08-7.81,24.11-11.72,1.86-.9,3.72-1.81,5.59-2.71.38-.19.85-.5.35-.79s-1.6.15-2.03.36c-5.04,2.45-10.07,4.89-15.11,7.34-8.04,3.91-16.08,7.81-24.11,11.72-1.86.9-3.72,1.81-5.59,2.71-.25.12-.79.39-.52.71,3.02,3.64,6.73,6.81,10.23,9.96,13.17,11.83,27.21,22.7,41.36,33.33,11.18,8.39,22.44,16.69,34.27,24.15,11.45,7.22,23.32,13.78,35.52,19.63,22.47,10.76,46.09,19.17,70.37,24.77,23.24,5.37,47.15,8.19,71.02,7.65,21.85-.49,43.88-3.94,64.33-11.84,15.56-6.01,30.33-14.67,42.12-26.57s20.66-28.35,23.18-45.69c1.23-8.5.92-17.29-1.63-25.53-.71-2.28-1.58-4.52-2.68-6.64-.34-.65-.76-1.85-1.37-2.32-.28-.21-.81-.28-1.13-.38-.91-.3-1.83-.6-2.74-.9-2.94-.96-5.88-1.92-8.81-2.88-6.49-2.12-12.99-4.24-19.48-6.36-1.18-.39-2.36-.77-3.55-1.16-.42-.14-2.86.24-2.64.96,1.64,5.42,3.28,10.84,4.93,16.26.7,2.32,1.57,4.65,2.12,7,.06.24.09.47.11.72.48,4.98-.11,10.13-1.25,14.98-2.24,9.61-7.09,18.47-13.78,25.7-10.61,11.48-25.09,18.61-39.9,22.98-11.1,3.28-22.58,5.19-34.09,6.25-11.09,1.02-22.26,1.13-33.36.32-20.46-1.49-40.63-6.12-59.84-13.28-17.47-6.51-34.14-15.1-49.82-25.18-13.55-8.7-26.37-18.51-38.42-29.19-8.99-7.96-17.57-16.4-25.62-25.31-3.97-4.39-7.85-8.88-11.44-13.58.01.02-.27-.35-.4-.53-.53-.72-3.15.44-2.9.78Z"/>
    <path class="cls-3" d="M418.88,597.25c-6.77-14.58-14.27-29-23.64-42.1-4.89-6.85-10.38-13.6-17.12-18.71-2.67-2.03-5.76-4.04-9.09-4.76-.81-.18-1.65-.32-2.44.06-.56.27-.85.78-1.2,1.29-.73,1.07-1.38,2.19-1.98,3.34-5.59,10.83-6.25,23.74-4.31,35.58.38,2.3.86,4.57,1.42,6.83.14.56,2.32,0,2.17-.58-3.53-14.3-3.91-30.94,3.89-44.01.46-.77.94-1.55,1.51-2.24l-1.45.54c-.51,0,.19.03.35.06.29.04-.12-.03.16.03.13.03.26.06.39.09.33.08.65.18.97.28,2.28.75,4.38,2.01,6.34,3.38,3.73,2.62,7.03,5.83,10.07,9.2,5.01,5.56,9.38,11.7,13.39,18.01,6.97,10.96,12.92,22.54,18.39,34.31.28.59,2.39-.12,2.17-.58h0Z"/>
    <path class="cls-3" d="M408.24,603.48c-3.7-.23-7.8.87-9.64,4.36-1.86,3.54-1.59,8.06-1.28,11.91.39,4.79,1.25,9.52,1.77,14.3.34,3.18,1.05,7.52-.85,10.36-.19.29-.46.52-.66.79-.47.65.26-.35.29.05,0,.09-1.39-.78-1.5-.88-1.5-1.43-2.42-3.54-3.22-5.41-2.86-6.71-4.44-14.01-5.75-21.16-.85-4.64-1.9-9.43-1.84-14.17.04-3.57.29-7.13.74-10.67.63-4.96,1.67-9.92,3.48-14.6,1.71-4.43,4.21-8.86,8.13-11.69.97-.7,2.01-1.26,3.11-1.71.34-.14.57-.3.28-.52s-1.24.18-1.52.29c-9.53,3.88-13.21,14.92-14.94,24.22-.78,4.21-1.23,8.48-1.4,12.75-.12,3.03.07,5.7.49,8.73,1.16,8.29,2.73,16.63,5.35,24.59.87,2.63,1.84,5.29,3.25,7.7.73,1.25,1.74,2.87,3.22,3.29,3.35.95,5.35-2.52,5.69-5.26.54-4.25-.34-8.7-.92-12.9-.66-4.73-1.43-9.55-1.18-14.34.17-3.18.98-7.85,4.55-8.96.93-.29,1.96-.26,2.92-.2.45.03,1.19-.11,1.54-.41.28-.24.36-.41-.12-.43h0Z"/>
  </g>
</svg>