<?xml version="1.0" encoding="UTF-8"?>
<svg id="Layer_1" data-name="Layer 1" xmlns="http://www.w3.org/2000/svg" xmlns:xlink="http://www.w3.org/1999/xlink" viewBox="0 0 1163.19 1163.19">
  <defs>
    <style>
      .cls-1 {
        fill: none;
      }

      .cls-2 {
        fill: #131429;
      }

      .cls-3 {
        fill: #acabab;
      }

      .cls-4 {
        fill: #151312;
      }

      .cls-5 {
        fill: #273339;
      }

      .cls-6 {
        fill: #010101;
      }

      .cls-7 {
        fill: #b7c8ce;
      }

      .cls-8 {
        fill: url(#linear-gradient);
      }

      .cls-9 {
        fill: #f1eef7;
      }

      .cls-10 {
        fill: #643c2a;
      }

      .cls-11 {
        fill: #a66e53;
      }

      .cls-12 {
        fill: #e9f6f8;
      }

      .cls-13 {
        clip-path: url(#clippath-1);
      }

      .cls-14 {
        fill: #c95744;
      }

      .cls-15 {
        fill: #080707;
      }

      .cls-16 {
        fill: #661d0d;
      }

      .cls-17 {
        fill: #fff;
      }

      .cls-18 {
        fill: #975449;
      }

      .cls-19 {
        fill: #1b1c4d;
      }

      .cls-20 {
        fill: #38211a;
      }

      .cls-21 {
        fill: #2a5c8f;
      }

      .cls-22 {
        clip-path: url(#clippath);
      }

      .cls-23 {
        fill: #4f2e25;
      }
    </style>
    <clipPath id="clippath">
      <circle class="cls-1" cx="581.62" cy="-910.37" r="581.59"/>
    </clipPath>
    <clipPath id="clippath-1">
      <circle class="cls-1" cx="581.59" cy="581.59" r="581.59"/>
    </clipPath>
    <linearGradient id="linear-gradient" x1="581.52" y1="574.95" x2="568.23" y2="-588.16" gradientUnits="userSpaceOnUse">
      <stop offset=".11" stop-color="#bbe5f5"/>
      <stop offset=".63" stop-color="#76c7db"/>
    </linearGradient>
  </defs>
  <g class="cls-22">
    <path class="cls-12" d="M1010.61-75.73c42.52,148.56,33.03,196.91,6.41,236.94-34.1,51.27-21.4,55.37-37.26,95.92-31.38,80.21-13.78,131.26,26.32,240.45,0,0-266.26,169.66-466.35,200.71-200.09,31.05-420.57-29.2-420.57-29.2,62.11-186.44,60.63-282.89,60.63-282.89L103.08,55.9l-33.07-170.92c-34.95-175.57-26.52-315.6,151.13-416.96l149.48-107.6s101.38,183.25,268.13,147.06c166.74-36.19,77.42-124.96,77.42-124.96,0,0,140.06,49.88,182.61,78.71,42.55,28.84,107.59,66.18,142.54,174.74,34.95,108.56,121.04,239.66,132.04,257.31,11,17.64-149.37,80.06-149.37,80.06"/>
    <path class="cls-11" d="M137.02-220.42c-18.89-128.77,90.06-184.62,184.51-171.47,47.82,6.66,61.71,100.25,61.71,100.25,87.48,158.65,222.08,616.59,246.39,706.55-14.96,8.38-35.17,3.91-47.99,15.3-44.86,39.85-75.88,25.68-94.95,82.29-9.46,28.08-5.47,95.31-6.58,125.33-68.4-47.59-114.49-173.63-146.31-246.91-47.89-110.28-83.52-224.85-120.58-339.01-28.73-88.5-62.63-179.89-76.19-272.33Z"/>
    <path class="cls-14" d="M325.24-557.08s-222.63,89.66-240.4,221.54C67.07-203.67,149.29,23.67,149.29,23.67c0,0,256.7-46.41,372.77-120.14,116.06-73.73-196.82-460.61-196.82-460.61Z"/>
    <path class="cls-16" d="M203.81,11.05c-4.12,1.5-8.28,2.92-12.53,4.06-2.72.73-5.47,1.3-8.2,1.96-3.5.84-6.95,1.86-10.37,3.01-2.49.84-4.95,1.94-7.5,2.56-2.68.65-4.84-.32-5.94-2.86-.9-2.07-1.06-4.41-1.37-6.63-.39-2.81-.82-5.61-1.29-8.41-.92-5.49-1.97-10.95-3.15-16.39-2.37-10.98-5.21-21.86-8.3-32.66-6.2-21.66-13.39-43.02-19.87-64.6s-13.19-42.38-19.19-63.73c-5.97-21.24-10.86-42.87-12.62-64.9-.23-2.9-.4-5.79-.52-8.7-.05-1.13-2.26-.77-2.22.18.94,22.6,5.33,44.85,11.16,66.66,5.81,21.75,12.97,43.11,19.32,64.71,6.47,22.02,13.79,43.77,20.25,65.79,3.23,11,6.24,22.08,8.79,33.26,1.27,5.57,2.42,11.16,3.44,16.78.98,5.43,1.53,10.95,2.57,16.36.38,1.98,1.03,4.06,2.57,5.45,1.63,1.48,3.85,1.7,5.94,1.31,2.66-.49,5.21-1.67,7.76-2.54,2.04-.69,4.08-1.35,6.15-1.95,6.07-1.75,12.29-2.85,18.31-4.78,2.42-.78,4.82-1.62,7.21-2.49,1.29-.47.94-1.94-.39-1.46h0Z"/>
    <path class="cls-21" d="M677.33,665.57c-6.76,2.14-13.62,3.95-20.5,5.44-29.22,6.32-59.29,8.02-89.12,7.89-56.12-.23-111.61-8.27-167.56-11.01-33.31-1.63-66.78-.47-100.11-.51-36.8-.04-73.71-.72-110.3-4.92-17.02-1.95-34.03-4.62-50.66-8.76-15.51-3.86-31.51-8.54-45.71-16.04-23.98-12.68-41.51-33.93-52.37-58.5-11.45-25.91-15.92-54.85-15.95-83.04-.02-16.78,1.43-33.58,4.35-50.12,20.77-53.37,36.37-102.99,37.34-164.26,1.81-114.46-37.27-327.64-38.77-477.61-16.89-168.82-69.98-207.39,61.14-311.64,55.13-43.83,208.26-104.7,278.13-131.84l32.7-31.74c7.2,39.31,48.11,90.67,48.11,90.67,49.91,41.75,81.11,64.81,123.44,73.87.96,4.21,1.92,8.42,2.92,12.62,20.51,86.21,49.29,170.08,76.56,254.31,26.98,83.31,52.02,167.55,65.5,254.25,14.19,91.3,13.1,184.04,6.06,275.96-6.94,90.7-20.08,180.75-32.17,270.86-4.65,34.66-9.11,69.36-13.01,104.13Z"/>
    <path class="cls-21" d="M1343.68,159.15l-271.33,187.62-206.16-598.14-99.42-251.96-53.77-126.67s244.56,83.25,313,122.49c87.52,50.17,80.62,240.07,125.85,313.54l191.82,353.12Z"/>
    <path class="cls-21" d="M1070.87,565.35l-145.63-55.68c5.47-88.49,8.64-177.16,6.77-265.82-1.07-50.55-2.53-101.52-10.17-151.55-7.33-48.06-18.41-95.45-32.52-141.97-27.19-89.65-47.97-178.45-85.02-264.32-32.17-74.56-80.35-146.63-104.13-224.26,42.1-39.08,11.18-83.06,11.18-83.06l139.15,65.26c7.24,12.91,96.48,56.69,96.48,56.69l103.32,252.52,39.16,553.74c13.52,87.09,60.48,217.68-18.58,258.44Z"/>
    <path class="cls-19" d="M1063.14-137.15c.65,12.55,1.39,25.1,2.18,37.65.92,14.64,1.91,29.27,2.94,43.9,1.15,16.29,2.34,32.58,3.57,48.86,1.31,17.45,2.66,34.9,4.04,52.35,1.44,18.3,2.91,36.61,4.39,54.91,1.51,18.6,3.04,37.2,4.58,55.81,1.54,18.6,3.1,37.2,4.67,55.8,1.52,18.11,3.06,36.21,4.59,54.31,1.46,17.18,2.92,34.36,4.38,51.54,1.34,15.77,2.68,31.54,4.01,47.31.3,3.59.61,7.19.91,10.79.08.95,2.52.4,2.43-.65-1.3-15.43-2.61-30.87-3.92-46.3-1.43-16.89-2.87-33.79-4.31-50.68-1.52-17.92-3.04-35.84-4.55-53.77-1.56-18.46-3.11-36.91-4.64-55.37-1.56-18.69-3.1-37.38-4.63-56.07-1.5-18.36-2.98-36.73-4.44-55.1-1.41-17.74-2.79-35.48-4.15-53.22-1.27-16.62-2.5-33.24-3.7-49.86-1.08-15.07-2.12-30.14-3.11-45.21-.85-13.04-1.65-26.09-2.37-39.14-.16-2.84-.31-5.67-.45-8.51-.05-.93-2.48-.4-2.43.65h0Z"/>
  </g>
  <g class="cls-13">
    <circle class="cls-8" cx="581.59" cy="581.59" r="581.59"/>
    <path class="cls-3" d="M386.12,276.11c-33.29-4.93-53.65,5-87.43,3.74-2.92-.11-6.16-.11-8.37,1.52-1.83,1.36-2.47,3.51-3.01,5.52-12.75,47.86-27.51,95.06-29.48,144.07-.84,20.87-.65,42.03,5.61,62.2,5.64,18.18,6.26,39.66,16.58,56.29,9.04,14.58,18.08,29.16,27.13,43.75,3.38,5.44,6.94,11.08,12.76,14.74,17.06,10.75,41.45-1.15,54.74-15.3,28.5-30.36,37.73-70.89,36.9-109.63-.83-38.74-10.72-76.85-16.3-115.29-3.85-26.52-5.65-53.26-5.39-79.99"/>
    <path class="cls-11" d="M373.36,649.33s16.01,117.82-26.94,203.82c-6.88,13.78-113.21,80.63-113.21,80.63l194,326.75c74.55,20.56,198.31-40.35,272.04-63.68l144.97-180.18s-118.52-71.13-121.54-89.06c-3.01-17.93,10.35-148.4,10.35-148.4"/>
    <path class="cls-11" d="M870.11,273.37c-.02-.14-.1-.21-.13-.35-4.23,4.24-48.81-27.1-55.02-30.13-65.42-31.9-97.52-58.76-169.58-48.78-37.62,5.21-72.84,42.26-109.58,51.89-35.24,9.24-71.34-14.91-107.94-13.32-12.67.55-15.27,41.58-11.26,32.7-16.15-2.68-29.16-6.85-29.16-6.85-40.94,30.8,7.08,197.05,7.61,219.71.54,22.66-4.8,58.37-4.8,58.37-6.16-8.55-12.96-14.85-16.51-24.5-3.59-8.46-10.12-18.24-13.71-26.7-10.95-19.44-41.15-17.49-55.69-6.07l-7.26,10.31c-20.57,26.25,7.28,107.28,21.09,132.59,2.68,50.74,46.04,78.71,71.99,42.94l6.35,19.96,69.52,100.58c49.2,53.42,148.58,109.45,228.42,108.35,28.61-.4,67.68,1.97,88.72-33.05,21.27-35.4,28.91-54.3,51.95-87.06,22.11-31.42,31.99-51.07,42.35-88.04,10.72-38.23,10.88-48.38,7.68-86.92-1.43-17.22-2.04-43.26-.37-59.72,1.91-19,12.3-93.84,15.05-137.83,2.74-44.01-29.74-128.08-29.74-128.08Z"/>
    <path class="cls-6" d="M373.63,571.84c-6.77-14.58-14.27-29-23.64-42.1-4.89-6.85-10.38-13.6-17.12-18.71-2.67-2.03-5.76-4.04-9.09-4.76-.81-.18-1.65-.32-2.44.06-.56.27-.85.78-1.2,1.29-.73,1.07-1.38,2.19-1.98,3.34-5.59,10.83-6.25,23.74-4.31,35.58.38,2.3.86,4.57,1.42,6.83.14.56,2.32,0,2.17-.58-3.53-14.3-3.91-30.94,3.89-44.01.46-.77.94-1.55,1.51-2.24l-1.45.54c-.51,0,.19.03.35.06.29.04-.12-.03.16.03.13.03.26.06.39.09.33.08.65.18.97.28,2.28.75,4.38,2.01,6.34,3.38,3.73,2.62,7.03,5.83,10.07,9.2,5.01,5.56,9.38,11.7,13.39,18.01,6.97,10.96,12.92,22.54,18.39,34.31.28.59,2.39-.12,2.17-.58h0Z"/>
    <path class="cls-6" d="M362.99,578.06c-3.7-.23-7.8.87-9.64,4.36-1.86,3.54-1.59,8.06-1.28,11.91.39,4.79,1.25,9.52,1.77,14.3.34,3.18,1.05,7.52-.85,10.36-.19.29-.46.52-.66.79-.47.65.26-.35.29.05,0,.09-1.39-.78-1.5-.88-1.5-1.43-2.42-3.54-3.22-5.41-2.86-6.71-4.44-14.01-5.75-21.16-.85-4.64-1.9-9.43-1.84-14.17.04-3.57.29-7.13.74-10.67.63-4.96,1.67-9.92,3.48-14.6,1.71-4.43,4.21-8.86,8.13-11.69.97-.7,2.01-1.26,3.11-1.71.34-.14.57-.3.28-.52s-1.24.18-1.52.29c-9.53,3.88-13.21,14.92-14.94,24.22-.78,4.21-1.23,8.48-1.4,12.75-.12,3.03.07,5.7.49,8.73,1.16,8.29,2.73,16.63,5.35,24.59.87,2.63,1.84,5.29,3.25,7.7.73,1.25,1.74,2.87,3.22,3.29,3.35.95,5.35-2.52,5.69-5.26.54-4.25-.34-8.7-.92-12.9-.66-4.73-1.43-9.55-1.18-14.34.17-3.18.98-7.85,4.55-8.96.93-.29,1.96-.26,2.92-.2.45.03,1.19-.11,1.54-.41.28-.24.36-.41-.12-.43h0Z"/>
    <path class="cls-23" d="M819.01,372.03s-55.07,8.33-99.88,11.44c-44.81,3.11-89.14-12.06-89.14-12.06,0,0,52.97,9.83,88.41,7.53,35.45-2.31,100.6-6.91,100.6-6.91Z"/>
    <path class="cls-17" d="M628.78,717.55s44.32,11.57,78.96,13.33c34.64,1.76,87.95-6.22,87.95-6.22,0,0-3.12-13.34-65.92-16.52-62.8-3.18-100.99,9.42-100.99,9.42Z"/>
    <path class="cls-3" d="M668.86,419.01c-49.96-11.58-85.16-12.74-99.42-11.03-11.16,1.34-22.07,4.56-32.42,9.1,0,0-28.65,21.71-32.25,26.8-3.6,5.09,17.26-2.06,17.26-2.06,4.46-.95,7.51-2.2,12.06-2.65,24.98-2.49,48.95-7.79,73.89-4.26,21.35,2.9,49.97,14.19,70.32,21.48.92-8.48-.52-25.97,1.2-34.31"/>
    <path class="cls-3" d="M899.23,433.79c-.36-.69-.86-5.7-1.27-6.36-.01-.02-.54-.68-.55-.71-5.18-1.93-11.46-5.85-19.03-7.19-13.25-2.33-46.84-9.21-94.06-2.49-.13,8.31-1.83,24.04-2.01,32.35,19.34-5.18,32.88-6.87,52.94-8.16,18.84-1.21,45.49-1.59,64.48.98.54-1.74-.2-.02.18-1.81.1-1.2.14-2.41.09-3.62-.21-1.01-.44-2.02-.77-3Z"/>
    <path class="cls-18" d="M723.73,712.27c-36.13.32-101.52,3.78-101.52,3.78,0,0,18.12,78.77,101.89,78.02,83.77-.74,87.71-84.92,87.71-84.92,0,0-51.95,2.8-88.08,3.12Z"/>
    <path class="cls-15" d="M724.08,712.27c-17.18.15-90.11.38-90.11.38,0,0,26.67,49.45,88.8,48.9,67.37-.6,79.32-51.46,79.32-51.46l-78.02,2.18Z"/>
    <path class="cls-9" d="M724.86,714.86c-17.18.15-69.48-2.31-69.48-2.31,0,0,18.99,18.83,70.52,18.37,51.53-.46,67.74-19.05,67.74-19.05l-68.78,2.99Z"/>
    <path class="cls-18" d="M814.09,707.09c-1.83-.43-6,.91-14.11-.36-14.65-2.28-21.34-7.43-31.65-8.14-17.6-1.21-28.71,5.9-36.36,5.96-7.65.07-18.88-6.84-36.46-5.32-10.3.89-32.04,8.49-46.25,9.85-8.52.82-28.2,3.47-30.02,3.94-2.53.65,8.48,9.9,104.6,9.05,96.12-.85,92.79-14.39,90.25-15Z"/>
    <path class="cls-11" d="M778.56,819.35c-.84-.08-1.65-.34-2.35-.77-13.36-8.15-14.56-12.98-21.01-14.25-1.49-.29-2.26-.79-6.86-1.25-18.47-1.85-29.73-3.32-77.71,29.99-.96.68-65.8-4.97-67.05-5.03l-33.92-14.46c-5.71-3.23-134.7-103.74-134.7-103.74-2.03-3.45-25.59-27.62-26.62-30.96-.4-.18-.78-.39-1.21-.53-.15-.05-.48-.18-.81-.3-.05.22-.11.52-.15.68-.17,1.45-.07,2.96.05,4.4.54,6.3,2.07,12.45,4.2,18.43,3.27,9.17,5.33,18.57,8.23,27.8,1.03,3.26,2.21,6.47,3.51,9.62,14.57,8.31,78.41,121.54,162.25,142.68,3.39.75,14.04,3.31,42.27,4.57,53.01,2.35,97.63,16.84,149.02-.4,13.4-4.5,23.95-14.65,28.89-27.51,14.1-36.68,56.45-179.15,62.73-233.34-13.13,31.79-52.34,128.16-71.43,174.52-.58,1.4-13.97,19.34-15.61,19.9"/>
    <path class="cls-10" d="M724.74,713c-41.39,1.69-108.66-.65-108.66-.65,0,0,11.88,98.95,107.83,95.02,95.95-3.92,84.3-98.21,84.3-98.21,0,0-42.08,2.15-83.46,3.84Z"/>
    <path class="cls-15" d="M725.15,712.99c-19.67.8-87.52.51-87.52.51,0,0,16.33,58.28,87.49,55.37,77.16-3.16,76.38-59.19,76.38-59.19l-76.36,3.32Z"/>
    <path class="cls-9" d="M726.13,716.03c-19.67.8-79.69-.22-79.69-.22,0,0,22.48,21.64,81.51,19.23,59.02-2.41,76.86-25.05,76.86-25.05l-78.68,6.04Z"/>
    <path class="cls-10" d="M820.2,702.44c-2.11-.45-2.53-1.47-12.33-1.94-16.34-.8-20.72-4.86-32.56-5.33-20.21-.8-32.66,8.03-41.42,8.39-8.76.36-21.89-7.43-41.98-4.98-11.76,1.43-40.78,7.11-57.01,9.24-9.74,1.28-21.35-2.23-23.42-1.61-2.87.86,3.68,22.94,113.78,18.43,110.09-4.5,97.88-21.58,94.95-22.2Z"/>
    <path class="cls-3" d="M718.56,674.91l-1.53,18.1c-.25,2.78-2.2,5.08-4.9,5.74-18.53,4.55-106.86,7.85-102.99,24.42.54,2.31.03,16.82-.38,16.78l-4.79-4.78c-6.6-10.83-4.23-28.73,1.57-31.72,17.66-9.1,33.62-15.85,43.57-19.28,12.43-4.3,46.98-15,62.39-16.4,4.06-.37,7.43,3.05,7.07,7.13Z"/>
    <path class="cls-3" d="M740.37,673.88l1.94,18.06c.31,2.77,1.96,5.07,4.13,5.74,14.94,4.57,75.55,6.53,73.13,23.06-.34,2.31-.61,7.7,5.7,9.26h0c5.15-.6,3.03-24.45-1.71-27.44-14.43-9.11-19.41-15.87-27.48-19.31-10.08-4.31-38.03-15.04-50.36-16.47-3.25-.38-5.8,3.03-5.34,7.1Z"/>
    <path class="cls-11" d="M306.62,283.63s26.66-95.79,137.49-132.07c83.64-27.38,249.39-26.45,314.09,2.08,93.73,41.34,117.62,136.56,117.62,136.56l-569.2-6.58Z"/>
    <path class="cls-20" d="M721.56,893.8s-132.18,1.05-164.81-18.44c-32.63-19.49-69.4-53.93-101.64-106.32,0,0,46.76,118.79,119.43,128.83,95.82,13.24,143.95,7.65,143.95,7.65l3.08-11.72Z"/>
    <path class="cls-7" d="M878.19,1598.97c30.66-1.66,61.24-4.07,91.76-7.12,2.52-2.51,26.54,80.88,31.93,80.91,51.22.25,127.99-18.66,176.63-29.69,3.19-157.07-54.06-411.22-78.1-487.03-39.81-125.53-328.13-232.71-348.66-239.24,0,0,40.7,463.23,112.64,639.03,4.9,11.97,9.48,26.53,13.8,43.15Z"/>
    <path class="cls-7" d="M1097.05,1881.29h0c-.69-1.67.38-3.63-.53-3.61l-25.83-580.53-9.62-191.9s-17.77-18.51-36.09-38.18c-28.95-31.08-62.34-41.41-99.39-62.18l-149.12-66.44s-10.77,2.25-39.23,66.79c-12.18,27.62,11.08,118.19-27.32,122.21,0,0-24.41-78-123.47-136.96,0,0-239.89-97.45-249.94-132.58-81.18,26.64-328.73,143.14-385.11,195.21-66.38,60.96,128.4,216.39,221.09,312.16l-123.41,15.98s-11.42,368.47-27.15,566.48c-.79,7.1-1.4,14.74-1.89,22.71-2.07,23.64-4.2,44.1-6.39,60.24,1.74-.03,3.48-.1,5.22-.14,1.83,141.56-55.73,343.33-44.61,405.81,13.99,78.55,563.52,113.05,785.12,92.64,217.65-20.04,377.23-14.09,361.43-309.56l1.01-.14c-9.38-125.7-16.75-166.85-24.78-338.01Z"/>
    <path class="cls-7" d="M722.22,1137.39c-4.25-4.54-149.39-114.26-149.39-114.26l-74.54,71.84-41.27-19.94c-108.94-51.8-214.6-191.28-214.6-191.28l108.33-89.66c45,122.72,241.26,192.75,241.26,192.75l123.87,128.18,7.18-180.41c-1.31-24.39-1.49-40.79-1.49-40.79l32.73-2.46,76.35,44.36c10.8,104.77-5.88,105.32-5.88,105.32l-75.2-30.87c-8.33,39,1.29,82.28-5,121.55-11.5,71.78-6.71,149.88-.61,222.96"/>
    <path class="cls-2" d="M829.93,942.57c1.51,14.72,2.71,29.48,3.1,44.27.25,9.43.21,18.92-.76,28.32-.54,5.23-1.32,10.55-3.1,15.52-.52,1.44-1.12,2.86-1.91,4.13-.3.49-.62.96-.99,1.4-.41.5-.49.58-.88.93-.15.13-.31.26-.47.38-.17.13-.15.1-.07.05-.08.05-.15.1-.23.15-.15.09-.57.29-.22.13-.14.06-.27.12-.41.17-.26.1.29-.09.06-.02-.07.02-.14.05-.21.06-.36.07.28-.06-.1.02-.2.04-.41.04-.08.02-.1,0-.2.01-.3,0-.33-.02.14.02-.05,0-.07,0-.15-.02-.22-.03-.26-.05-.22-.05-.13-.02-.24-.08-.47-.18-.7-.28-4.44-1.82-8.88-3.65-13.32-5.47-7.82-3.21-15.65-6.42-23.47-9.64-7.86-3.22-15.71-6.45-23.57-9.67l-13.63-5.59c-.21-.09-.43-.18-.64-.26-.48-.2-1.82.01-1.95.65-4.58,21.4-10.08,42.58-14.76,63.96-4.65,21.26-8.89,42.87-9.75,64.66-.94,23.61,1.5,47.22,5.62,70.45,4.05,22.87,9.69,45.42,14.94,68.04,5.27,22.69,10.14,45.52,12.69,68.69.32,2.89.6,5.79.84,8.69l1.52-.86c-10.1.11-20.19.21-30.29.32-1.44.02-2.89.03-4.33.05-.39,0-1.27.15-1.44.57s.14.57.57.57c10.1-.11,20.19-.21,30.29-.32,1.44-.02,2.89-.03,4.33-.05.44,0,1.57-.23,1.52-.86-1.96-23.29-6.45-46.25-11.6-69.01-5.11-22.56-10.84-45-15.25-67.71-4.48-23.08-7.53-46.49-7.43-70.04.09-22.07,3.72-43.87,8.21-65.42s10.04-43.14,14.89-64.75c.54-2.42,1.08-4.85,1.6-7.28-.65.22-1.3.43-1.95.65,3.3,1.36,6.6,2.71,9.9,4.07,7.54,3.1,15.08,6.19,22.63,9.29,8.28,3.4,16.55,6.8,24.83,10.19,5.38,2.21,10.77,4.42,16.15,6.63.8.33,1.6.76,2.47.89,1.4.2,2.89-.23,4.09-.94,1.98-1.18,3.29-3.21,4.27-5.24,1.95-4.03,2.86-8.57,3.54-12.97,1.26-8.21,1.54-16.58,1.55-24.88.01-13.53-.84-27.05-2.01-40.53-.37-4.22-.77-8.45-1.21-12.66-.07-.64-2.25-.18-2.17.58h0Z"/>
    <path class="cls-2" d="M720.44,1134.48c-1.46-1.55-3.34-2.81-5-4.13-3.79-3.01-7.62-5.98-11.45-8.94-5.45-4.22-10.92-8.42-16.39-12.61-6.52-5-13.05-9.99-19.58-14.97-7.08-5.4-14.16-10.79-21.24-16.18s-14.21-10.8-21.32-16.2c-6.6-5.01-13.2-10.02-19.8-15.02-5.58-4.23-11.17-8.47-16.76-12.7-3.99-3.02-7.97-6.04-11.96-9.05-1.88-1.42-3.71-2.96-5.66-4.28-.08-.06-.16-.12-.24-.18-.48-.36-1.47-.12-1.87.27-2.47,2.38-4.95,4.77-7.42,7.15-5.94,5.72-11.88,11.45-17.82,17.17-7.15,6.9-14.31,13.79-21.46,20.69-6.21,5.99-12.43,11.98-18.64,17.96-2.04,1.97-4.08,3.94-6.13,5.91-.95.91-2.12,1.8-2.94,2.83-.04.05-.09.08-.13.12l1.73-.36c-5.84-2.82-11.67-5.64-17.51-8.46-7.54-3.64-15.08-7.29-22.62-10.93-11.05-5.34-21.85-11.11-32.35-17.48-13.33-8.09-26.17-16.96-38.62-26.34-12.16-9.16-23.93-18.82-35.38-28.85-10.79-9.45-21.28-19.23-31.52-29.27-9.1-8.93-17.99-18.07-26.68-27.4-7.12-7.64-14.11-15.41-20.95-23.31-4.77-5.51-9.48-11.08-14.09-16.72-2.15-2.63-4.18-5.37-6.37-7.96-.09-.11-.17-.22-.26-.34-.41-.54-2.51.19-2.03.82,1.42,1.85,2.88,3.67,4.34,5.48,4.05,5.02,8.18,9.98,12.37,14.89,6.32,7.4,12.77,14.69,19.34,21.87,8.3,9.08,16.8,17.99,25.48,26.71,9.94,9.98,20.13,19.72,30.58,29.16,11.19,10.1,22.7,19.86,34.57,29.16,12.21,9.57,24.81,18.67,37.85,27.08,12.82,8.27,26.08,15.88,39.84,22.48,5.95,2.85,11.88,5.74,17.83,8.61,7.68,3.71,15.35,7.42,23.03,11.13.47.23.93.45,1.4.68s1.38-.01,1.73-.36c2.47-2.38,4.95-4.77,7.42-7.15,5.94-5.72,11.88-11.45,17.82-17.17,7.15-6.9,14.31-13.79,21.46-20.69,6.21-5.99,12.43-11.98,18.64-17.96,2.04-1.97,4.08-3.94,6.13-5.91.95-.91,2.12-1.8,2.94-2.83.04-.05.09-.08.13-.12l-1.87.27c1.29.98,2.58,1.95,3.88,2.93,3.52,2.66,7.05,5.33,10.57,8,5.25,3.98,10.5,7.95,15.75,11.93,6.4,4.85,12.79,9.7,19.19,14.55,7.03,5.34,14.06,10.68,21.09,16.02,7.14,5.43,14.28,10.86,21.41,16.3,6.72,5.12,13.43,10.24,20.13,15.38,5.79,4.43,11.57,8.86,17.34,13.32,4.27,3.3,8.54,6.6,12.78,9.93,2.26,1.77,4.56,3.52,6.72,5.42.18.16.37.32.54.5.48.51,2.54-.28,2.03-.82h0Z"/>
    <path class="cls-4" d="M847.73,489.66c6.67-3.64,15.44-.97,19.94,2.84,1.06.89,3.1,3.66,4.49,8.07,1.79,5.63-.34,12.11-3.82,16.09-4.64,5.32-12.54,6.38-18.68,3.67-8.33-3.68-11.22-13.54-9.32-20.8.35-1.33,2-6.93,7.39-9.87"/>
    <path class="cls-4" d="M775.02,512.44s32.32-26.55,49.08-28.58c24.46-2.95,54.96,10,63.9,21.98,0,0-40.4-19.48-57.58-16.9-16.42,2.47-55.39,23.49-55.39,23.49Z"/>
    <path class="cls-4" d="M639.77,495.65c-6.82-3.35-17.66-2.16-21.99,1.84-1.02.94-3.76,3.62-4.97,8.09-1.55,5.7.85,12.08,4.49,15.91,4.86,5.12,12.8,5.85,18.82,2.88,8.17-4.02,10.64-14,8.44-21.18-.41-1.31.88-3.9-4.63-6.61"/>
    <path class="cls-4" d="M673.3,512.65s-37.61-22.82-55.87-22.97c-26.65-.22-58.12,16.05-66.47,28.96,0,0,41.44-23.86,60.21-23.2,17.94.63,62.13,17.21,62.13,17.21Z"/>
    <g>
      <path class="cls-6" d="M751.33,647.31c-8.8,4.96-22.51,4.32-31.72-.94-2.05-1.17-8.68.25-5.81,1.89,12.17,6.95,31.81,6.99,43.17.58,1.13-.64.89-1.51-.56-1.93-1.51-.45-3.88-.27-5.08.41"/>
      <path class="cls-6" d="M709.82,645.83c-6.12-2.63-12.92-3.9-19.68-4.2-.99-.04-2.25.37-2.96,1.04-.55.52-.65,1.21.11,1.6,3.16,1.67,7.15,2.28,10.79,2.09,1.15-.06,2.65-.39,3.26-1.39.57-.92-.56-1.48-1.45-1.43-3.01.16-6.09-.34-8.71-1.71-.96.88-1.9,1.76-2.86,2.64,6.04.26,12.12,1.45,17.58,3.81,1.09.47,2.62.09,3.56-.51.7-.45,1.44-1.46.35-1.94"/>
      <path class="cls-6" d="M683.09,647.55c-7.89.07-17.28-3.04-21.35-8.82-6.15-8.72-1.16-23.01,8.49-29.03,1.05-.65.46-1.44-.64-1.63-1.43-.26-3.08.32-4.18,1.01-8.41,5.25-13.59,17.02-12.03,25.34,1.47,7.77,9.19,12.98,18.7,14.93,2.83.58,5.83.93,8.78.91,1.19-.01,3.33-.44,3.88-1.39.56-.96-.55-1.34-1.67-1.33"/>
      <path class="cls-6" d="M765.64,642.85c-.45-.89.31-1.5.94-1.51,2.13-.01,4.29-.68,6.05-2.2.73.82,1.44,1.65,2.17,2.47-4.25.6-8.48,2.14-12.2,4.8-.74.53-1.84.24-2.54-.31-.52-.41-1.1-1.38-.35-1.91"/>
      <path class="cls-6" d="M759.71,644.18c4.17-2.97,8.91-4.62,13.66-5.3.7-.09,1.61.24,2.15.87.42.49.53,1.17.01,1.6"/>
      <path class="cls-6" d="M782.05,643.37c5.12-.37,11.04-3.98,13.37-9.96,3.51-9.04-.38-19.51-6.97-24.99-.72-.6-.37-1.41.33-1.66.91-.33,2.02.16,2.77.78,5.74,4.78,9.62,12.72,9.07,21.11-.53,7.84-5.25,13.46-11.31,15.92-1.8.73-3.73,1.25-5.65,1.39-.78.05-2.18-.26-2.6-1.17-.42-.93.28-1.36,1.01-1.41"/>
    </g>
    <path class="cls-5" d="M523.16,492.67l8.23,23.25c4.87,18.08,19.24,53.79,25.66,63.5,9.03,13.57,105.64,17.01,124.39,5.6,18.75-11.42,28.33-66.8,33.14-79.69l38.66,1.43c3.74,16.48,16.78,68.65,24.23,75.58,7.45,6.94,51.72,4.83,56.71,4.59,4.15-.25,9.93-.58,16.24-1.22,16.71-1.53,36.97-4.73,43.1-11.04,9.12-9.36,18.63-44.64,26.75-78l1.34-5.23c.28-1.26.66-2.14.67-2.51h0l1.46-6.01c-56.08-25.47-128.96-19.71-172.66,13.68l.36.58-37.71-1.57c-43.03-27.48-116.87-41.47-169.1-20.07h0l-162.82,30.29-.22,14.48,141.58-27.65ZM781.9,576.9c-4.66-4.32-14.91-40.85-21.92-69.29,38.01-28.23,103.69-33.31,153.76-13.39v.73c-4.38,17.88-15.97,65.46-24.93,74.66-10.61,10.86-98.77,14.07-106.91,7.44v-.16ZM568.42,575.27c-13.6-26.45-24.79-54.08-33.43-82.54,46.42-22.17,128.14-11.8,170.2,14.25-6.23,23.21-13.89,63.71-27.34,71.85-19.34,11.77-103.79,5.03-109.44-3.55h0Z"/>
  </g>
</svg>