<?xml version="1.0" encoding="UTF-8"?>
<svg id="Layer_1" data-name="Layer 1" xmlns="http://www.w3.org/2000/svg" xmlns:xlink="http://www.w3.org/1999/xlink" viewBox="0 0 1163.19 1163.19">
  <defs>
    <style>
      .cls-1 {
        fill: none;
      }

      .cls-2 {
        fill: #010101;
      }

      .cls-3 {
        fill: #653c29;
      }

      .cls-4 {
        fill: url(#linear-gradient);
      }

      .cls-5 {
        fill: #f1eef7;
      }

      .cls-6 {
        fill: #a66e53;
      }

      .cls-7 {
        fill: #19315b;
      }

      .cls-8 {
        fill: #24180f;
      }

      .cls-9 {
        stroke: #161311;
        stroke-miterlimit: 10;
        stroke-width: .13px;
      }

      .cls-10 {
        fill: #596a87;
      }

      .cls-11 {
        clip-path: url(#clippath);
      }

      .cls-12 {
        fill: #5a6a87;
      }

      .cls-13 {
        fill: #4f2e25;
      }
    </style>
    <clipPath id="clippath">
      <circle class="cls-1" cx="581.59" cy="582.26" r="581.59"/>
    </clipPath>
    <linearGradient id="linear-gradient" x1="581.52" y1="574.95" x2="568.23" y2="-588.16" gradientUnits="userSpaceOnUse">
      <stop offset=".11" stop-color="#bbe5f5"/>
      <stop offset=".63" stop-color="#76c7db"/>
    </linearGradient>
  </defs>
  <g class="cls-11">
    <circle class="cls-4" cx="581.59" cy="581.59" r="581.59"/>
    <path class="cls-6" d="M396.93,669.45s29.02,181.2,10.9,244.07c-4.4,15.26-93.32,64.58-93.32,64.58l375.85,169.91,163.27-160.74s-132.35-67.65-138.53-85.33c-6.18-17.68-8.52-153.37-8.52-153.37"/>
    <path class="cls-10" d="M1093.77,1756.5c14.39-5.55,8.58-9.57,20.2-14.38,2.18-.9-35.84-321.2-36.66-334.25-3.3-52.46-16.41-143.5-26.21-195.15-12.69-66.85-37.89-118.47-90.99-159.67-79.02-61.32-58.36-48.12-134.65-92.06l-101.95-52.26s61.03,83.11-63.03,96.2c-150.45,15.88-248.99-110.03-248.99-110.03,0,0-54.52,39.45-152.58,88.51-37.64,18.89-172.53,115.22-189.4,155.36-38.99,92.85-57.53,84.25-79.27,344.22l162.72,107.73,38.14,22.44c-12.66,124.31.06,379.51,7.68,575.28,1.09,26.26,2.26,52.52,3.51,78.78.75,15.57-35.88,253.92-27.68,266.51,7.77,11.91,71.35,4.67,85.67,9.58,153.4,52.66,558.49,46.03,558.49,46.03,63.6-9.48,116.46-15.2,172.53-45.18,39.72-21.24,32.86-34.08,54.29-53.64-11.14-55.82-11.5-287.96-13.85-344.79-3.78-91.33,1.5-158-.41-249.49-.11-5.22,2.69-125.19,4.4-129.05,14.76-7.57,24.24,1.1,58.04-10.7Z"/>
    <path class="cls-13" d="M716.13,883.22s-62.64,4.04-83.38.99c-20.74-3.05-56.3-9.18-158.89-77.32,0,0,41.58,85.44,148.3,99.75,0,0,87.58,8.66,94.87-7.2l-.9-16.22Z"/>
    <path class="cls-9" d="M870.39,358.16s-.02.01-.02.01c7.92-36.21,10.62-58.51.38-83.14-7.23-17.39-37.28-34.72-37.28-34.72,0,0-8.16-52.57-30.96-44.45,0,0-24.81-69.63-91.35-49.16,0,0-20.6-4.65-31.56,8.9,0,0-33.56-59.5-89.95-15.43,0,0-22.77-14.05-29.69,4.51,0,0-40-36.71-77.17-4.6,0,0-97.92-16.43-119.67,47.65,0,0-47.95-23.12-70.77,24.2,0,0-24.38,2.88-23.3,38.01,0,0-36.09,12.41-38.71,35.58,0,0-20.4,18.01-17.77,54.72.75,10.49,4.04,7.58,7.8,21.69-18.71,42.65,12.13,46.58,12.13,46.58-29.95,40.02,10.99,87.03,10.99,87.03,0,0-14.52,30.74-5.35,49.74,12.52,25.94,62.43,53.19,62.43,53.19,0,0,9.39-71.4,5.18-116.32-4.21-44.92,28.63-124.6,39.76-142,11.13-17.4,96.23,10.25,224.97,6.02,128.74-4.23,153.85-28.99,169.32-25.23,32.11,7.8,62.6,123.92,62.83,159.35.23,35.43,12.79,101.84,12.79,101.84,0,0,67.44-32.59,47.19-91.38,0,0,21.15-43.62,11.57-69.15,0,0-1.38-10.69-8.1-15.91.1-.12,22.44-27.25,4.31-47.54Z"/>
    <path class="cls-6" d="M446.03,779.11c52.71,57.64,115.27,96.03,188.16,110,71.51,13.7,128.34-10.48,138.14-21.13,53.79-58.47,71.82-100.86,91.43-168.85,5.32-18.45,5.67-38.31,4.19-58.61-2.23-30.44-8.69-88.79-8.6-117.92.23-74.18-8.81-141.32-50.4-203.14-86.65-128.79-289.36-123.7-364.16-87.02-87.43,42.89-126.07,128.32-130.38,218.73-1.4,29.48,1.94,57.01,9.58,82.41,12.66,13.67,23.68,28.54,33.04,44.33"/>
    <g>
      <path d="M809.02,327.07s5.98,5.7,45.62,102.7c-9.79-30.9-15.38-77.41-40.21-120.38-86.71-150.08-353.44-126.09-428.22-83.39-87.41,49.91-118.87,148.03-123.13,253.34-1.73,42.75-9.73,104,2.44,139.29.56.46,46.71,32.44,46.71,32.44,0,0,47.34-42.69,74.26,9.12l8.54-22.28s31.36-51.53,25.73-178.32c0,0-.38-53.69-1.26-69.81-2.71-49.65,38.7-39.82,67.37-32.32,17.82,4.66,56.33,7.17,74.66,6.51,46.83-1.69,105.97-10.09,127.93-10.19,30.86-.13,119.57-26.7,119.57-26.7Z"/>
      <path d="M808.84,327.13s.13.16.19.24c.25.34.48.7.7,1.05.47.76.91,1.55,1.34,2.33.74,1.35,1.46,2.73,2.16,4.1,1.06,2.09,2.09,4.2,3.11,6.32,1.43,2.99,2.83,6.01,4.22,9.02,1.86,4.07,3.69,8.16,5.5,12.26,2.33,5.28,4.63,10.57,6.9,15.87,2.87,6.68,5.7,13.38,8.51,20.09,3.43,8.19,6.83,16.4,10.2,24.62.93,2.26,1.85,4.52,2.78,6.78.03.08.41-.04.39-.1-3.11-9.83-5.48-19.88-7.92-29.89-2.82-11.61-5.68-23.21-9.08-34.66-3.74-12.58-8.12-24.98-13.53-36.94-4.64-10.25-10.02-20.17-16.3-29.51-4.62-6.87-9.7-13.43-15.19-19.63s-11.18-11.83-17.3-17.21c-6.15-5.41-12.64-10.44-19.37-15.1s-13.82-9.01-21.06-12.96-14.78-7.62-22.42-10.91c-7.72-3.33-15.59-6.32-23.57-9s-16.24-5.11-24.48-7.22-16.66-3.95-25.08-5.52-16.93-2.88-25.44-3.95-17.1-1.89-25.69-2.49-16.84-.95-25.27-1.12-16.64-.12-24.96.12-16.17.65-24.24,1.26-15.61,1.35-23.38,2.29c-7.37.9-14.72,1.96-22.03,3.19-6.91,1.17-13.79,2.5-20.64,4.01-6.36,1.41-12.68,2.97-18.95,4.72-5.67,1.59-11.3,3.33-16.86,5.29-4.94,1.74-9.83,3.63-14.62,5.76s-9.1,4.35-13.46,6.91c-9.23,5.4-18.06,11.49-26.36,18.23s-15.61,13.67-22.6,21.32-13.38,15.76-19.21,24.29-11.14,17.54-15.86,26.79c-4.78,9.37-9,19.03-12.7,28.87-3.79,10.06-7.04,20.32-9.82,30.7s-5.22,21.39-7.17,32.23c-1.99,11.07-3.55,22.21-4.74,33.4s-2.04,22.82-2.54,34.26-1.19,22.35-1.92,33.52c-.79,12-1.56,24-2,36.02s-.55,23.51.1,35.24c.58,10.36,1.73,20.8,4.41,30.85.3,1.12.62,2.24.96,3.35.16.53.33,1.06.51,1.59.08.24.15.68.32.88.2.23.57.41.82.58,1.53,1.07,3.06,2.14,4.59,3.2,5.46,3.8,10.92,7.59,16.38,11.38,5.75,3.99,11.5,7.98,17.25,11.97,2.55,1.77,5.1,3.53,7.65,5.3.08.05.3-.03.36-.08,1.52-1.37,3.17-2.6,4.82-3.8,3.94-2.84,8.13-5.36,12.53-7.43,5.52-2.6,11.43-4.5,17.52-5.06,6.63-.6,13.33.56,19.24,3.67,7.68,4.05,13.48,10.88,17.82,18.27.68,1.16,1.33,2.34,1.95,3.53.04.07.36-.02.38-.09,1.31-3.42,2.62-6.85,3.93-10.27,1.51-3.94,2.93-7.93,4.53-11.84.16-.39.4-.74.6-1.11.6-1.09,1.16-2.2,1.7-3.33.92-1.91,1.78-3.85,2.6-5.8,1.16-2.77,2.24-5.58,3.25-8.41,1.3-3.65,2.5-7.34,3.61-11.05,1.37-4.59,2.61-9.21,3.73-13.87,1.33-5.51,2.51-11.05,3.55-16.62,1.22-6.53,2.27-13.1,3.15-19.68,1.02-7.56,1.83-15.14,2.46-22.74.71-8.58,1.2-17.18,1.5-25.79.33-9.7.41-19.41.28-29.12-.07-5.27-.21-10.54-.4-15.81-.07-1.99-.2-3.98-.22-5.98-.03-3.32-.06-6.65-.09-9.97-.06-5.81-.12-11.63-.2-17.44-.09-6.59-.19-13.17-.32-19.76-.11-5.65-.23-11.3-.44-16.95-.23-6.21-.64-12.38.32-18.56.86-5.53,2.72-11.05,6.34-15.4,3.07-3.7,7.24-6.24,11.82-7.64,4.9-1.5,10.11-1.8,15.2-1.6,5.53.22,11.03,1.06,16.46,2.14s10.7,2.41,16,3.8c6.41,1.67,12.96,2.7,19.53,3.55,8.06,1.04,16.17,1.77,24.28,2.31,7.59.51,15.2.85,22.82.92s15.25-.33,22.86-.77c9.36-.55,18.71-1.27,28.05-2.08s18.54-1.69,27.81-2.61c8.43-.83,16.86-1.69,25.29-2.5,6.97-.67,13.95-1.32,20.94-1.8,2.74-.19,5.49-.35,8.23-.45,2.12-.07,4.25-.05,6.37-.15,4.89-.24,9.76-.87,14.59-1.61,5.95-.91,11.86-2.03,17.75-3.24,6.45-1.33,12.87-2.77,19.27-4.29s12.98-3.16,19.44-4.82c5.94-1.53,11.87-3.11,17.79-4.73,4.89-1.34,9.78-2.7,14.66-4.08,3.29-.94,6.58-1.88,9.86-2.84,1.15-.34,2.3-.68,3.45-1.02.22-.07.2-.17-.03-.1-1.24.37-2.47.73-3.71,1.1-3.37.98-6.74,1.95-10.11,2.91-4.93,1.4-9.88,2.77-14.82,4.12-5.97,1.63-11.96,3.22-17.95,4.76-6.5,1.67-13.01,3.29-19.55,4.83s-12.96,2.98-19.47,4.3c-5.89,1.2-11.79,2.3-17.73,3.17-4.76.7-9.55,1.3-14.36,1.45-2.21.07-4.41.06-6.62.16-2.8.12-5.59.3-8.38.5-7.16.52-14.32,1.2-21.47,1.89-8.56.83-17.12,1.7-25.68,2.54-9.3.91-18.61,1.8-27.93,2.59s-18.93,1.51-28.42,2.02c-7.4.4-14.78.7-22.19.58-7.86-.13-15.72-.52-23.56-1.1s-16.05-1.36-24.02-2.48c-3.46-.48-6.9-1.03-10.33-1.71-2.79-.55-5.53-1.25-8.29-1.96-5.35-1.38-10.72-2.69-16.15-3.7s-10.85-1.73-16.33-1.8c-4.9-.06-9.87.42-14.53,1.99-4.35,1.47-8.31,3.97-11.25,7.52-3.59,4.33-5.45,9.8-6.32,15.29-.98,6.19-.57,12.38-.34,18.61.21,5.63.33,11.27.44,16.91.13,6.59.23,13.17.32,19.76.08,5.83.14,11.65.2,17.48.03,3.35.06,6.71.09,10.06.02,2,.14,4,.22,5.99.2,5.27.33,10.54.4,15.81.13,9.71.05,19.42-.28,29.12-.29,8.67-.79,17.33-1.51,25.97-.64,7.59-1.45,15.17-2.46,22.72-.89,6.58-1.93,13.14-3.15,19.66-1.06,5.63-2.25,11.23-3.6,16.79-1.13,4.63-2.36,9.24-3.73,13.81-1.11,3.71-2.31,7.39-3.62,11.03-1.01,2.82-2.09,5.61-3.25,8.37-.81,1.94-1.67,3.85-2.58,5.74-.53,1.09-1.08,2.18-1.66,3.24-.21.39-.45.76-.61,1.17-1.57,4.09-3.14,8.19-4.71,12.28-1.24,3.23-2.47,6.46-3.71,9.69l.38-.09c-4.22-8.1-9.89-15.82-17.77-20.67-5.78-3.56-12.47-5.22-19.23-4.98-6.15.22-12.19,1.87-17.83,4.27-4.76,2.02-9.29,4.6-13.54,7.53-1.44.99-2.85,2.03-4.21,3.11-.44.35-.87.7-1.29,1.05-.2.17-.5.35-.66.56-.02.03-.06.05-.08.07l.36-.08c-2.71-1.88-5.42-3.76-8.13-5.63-5.8-4.02-11.6-8.04-17.39-12.06-5.37-3.73-10.74-7.45-16.11-11.19-1.47-1.02-2.93-2.04-4.39-3.06-.27-.19-.58-.34-.73-.62-.24-.46-.36-1.07-.52-1.57-.19-.58-.37-1.17-.54-1.75-.32-1.1-.63-2.2-.91-3.31-2.59-10.11-3.68-20.58-4.21-30.98-.6-11.7-.45-23.42,0-35.12s1.23-24,2.02-35.98c.73-11.1,1.39-22.2,1.89-33.31.51-11.37,1.35-22.73,2.57-34.05,1.2-11.18,2.77-22.32,4.78-33.38s4.37-21.68,7.26-32.35,6.04-20.51,9.82-30.5c3.72-9.84,7.95-19.48,12.75-28.84,4.73-9.21,10-18.14,15.86-26.68s12.17-16.51,19.09-24.06,14.72-14.92,22.87-21.49,17.34-12.91,26.69-18.33c4.2-2.43,8.53-4.61,12.97-6.57,4.84-2.14,9.78-4.04,14.77-5.78,5.62-1.96,11.31-3.7,17.04-5.29,6.27-1.73,12.59-3.28,18.94-4.67,6.87-1.5,13.78-2.82,20.72-3.97,7.39-1.23,14.82-2.28,22.26-3.17s15.48-1.66,23.25-2.22,16.26-.99,24.41-1.2c8.33-.22,16.66-.24,24.99-.05s16.92.58,25.37,1.2,17.06,1.47,25.55,2.57,17,2.43,25.43,4.04,16.67,3.45,24.91,5.59c8.26,2.15,16.45,4.59,24.52,7.34s15.8,5.75,23.5,9.12,14.99,6.96,22.22,10.96,14.18,8.32,20.92,13.04,13.12,9.74,19.23,15.17,11.89,11.24,17.26,17.4,10.49,12.85,15.06,19.76c6.32,9.56,11.72,19.72,16.35,30.21,5.26,11.9,9.52,24.21,13.17,36.68,3.34,11.41,6.15,22.95,8.96,34.5,2.32,9.53,4.6,19.09,7.56,28.44l.39-.1c-3.54-8.65-7.09-17.29-10.69-25.91-2.94-7.06-5.91-14.12-8.91-21.16-2.4-5.64-4.83-11.27-7.29-16.88-1.91-4.36-3.84-8.7-5.81-13.04-1.48-3.27-2.99-6.53-4.52-9.78-1.1-2.32-2.22-4.64-3.37-6.94-.77-1.54-1.55-3.07-2.37-4.58-.49-.91-.99-1.81-1.52-2.7-.27-.44-.54-.89-.84-1.31-.07-.1-.19-.35-.31-.4,0,0,0,0-.01-.01-.07-.06-.41.08-.37.13Z"/>
    </g>
    <path class="cls-6" d="M411.24,717.56c-37.07,39.05-72.04-12.93-72.04-12.93-36.76-43.3-37.19-89.81-36.18-121.63,1.01-31.82,36.01-31.68,36.01-31.68,29.75,2.95,25.59,6.48,66.69,90.66"/>
    <path d="M587.47,553.32c-8.81-3.98-18.63.4-23.98,5.67-1.26,1.24-4.63,4.76-5.98,10.49-1.73,7.32,1.58,15.33,6.37,20.04,6.39,6.31,16.52,6.9,24.05,2.89,10.21-5.45,12.95-18.24,9.85-27.27-.57-1.65-3.2-8.6-10.31-11.82"/>
    <path d="M634.88,587.77s-32.47-39.25-64.44-37.74c-44.98,2.13-54.13,26.55-63.15,39.45,0,0,27.42-30.59,62.24-31.45,31.59-.78,65.35,29.73,65.35,29.73Z"/>
    <path d="M808.2,541.41c7.77-4.88,17.33-1.56,22.82,3.12,1.3,1.1,4.78,4.25,6.62,9.81,2.35,7.09.09,15.41-3.87,20.6-5.29,6.94-14.62,8.6-22.02,5.39-10.03-4.35-13.87-16.78-11.92-26.08.36-1.7,2.09-8.89,8.36-12.84"/>
    <path d="M753.55,582.26s23.54-41.94,51.17-43.29c38.88-1.9,49.44,21.58,58.63,33.6,0,0-26.95-27.97-56.96-25.73-27.22,2.04-52.84,35.41-52.84,35.41Z"/>
    <g>
      <path class="cls-2" d="M726.23,695.01c-8.16,4.73-20.92,4.24-29.53-.62-1.91-1.08-8.07.3-5.4,1.82,11.38,6.42,29.66,6.3,40.19.19,1.04-.61.82-1.42-.53-1.81-1.41-.41-3.61-.22-4.72.43"/>
      <path class="cls-2" d="M687.58,693.96c-5.71-2.42-12.06-3.56-18.35-3.78-.92-.03-2.1.37-2.74,1-.51.5-.6,1.14.11,1.5,2.96,1.55,6.67,2.08,10.06,1.88,1.07-.06,2.46-.39,3.03-1.33.52-.87-.53-1.38-1.36-1.33-2.8.17-5.68-.27-8.12-1.54-.89.83-1.76,1.67-2.65,2.5,5.62.2,11.29,1.27,16.4,3.43,1.01.43,2.44.06,3.31-.51.65-.43,1.33-1.38.31-1.82"/>
      <path class="cls-2" d="M662.71,695.79c-7.35.13-16.1-2.72-19.93-8.1-5.78-8.13-1.24-22.39,7.71-28.12.97-.62.41-1.35-.61-1.53-1.33-.23-2.86.33-3.88.98-7.8,4.99-12.53,16.89-11.02,24.69,1.42,7.28,8.64,12.11,17.51,13.86,2.64.52,5.44.83,8.18.78,1.11-.02,3.1-.44,3.61-1.34.52-.91-.52-1.25-1.56-1.23"/>
      <path class="cls-2" d="M739.52,690.7c-.43-.83.28-1.41.87-1.43,1.98-.03,3.98-.67,5.62-2.12.68.77,1.35,1.54,2.04,2.3-3.95.6-7.88,2.07-11.33,4.6-.69.5-1.71.24-2.37-.27-.49-.38-1.03-1.28-.34-1.79"/>
      <path class="cls-2" d="M734.01,692c3.86-2.83,8.26-4.41,12.68-5.09.65-.09,1.5.22,2,.8.39.46.5,1.09.02,1.5"/>
      <path class="cls-2" d="M754.81,691.06c4.77-.38,10.25-3.83,12.37-9.46,3.21-8.51-.49-18.3-6.66-23.39-.67-.55-.36-1.32.29-1.56.85-.32,1.88.13,2.58.71,5.38,4.44,9.05,11.86,8.58,19.74-.44,7.36-4.8,12.67-10.42,15.04-1.67.7-3.47,1.2-5.25,1.35-.72.05-2.04-.22-2.42-1.08-.39-.87.25-1.28.93-1.34"/>
    </g>
    <path d="M630.72,476.69c.18,7.15.36,14.32.53,21.51.13,5.47.24,10.94.35,16.39-16.21-4.19-38.52-6.96-48.97-8.65-20.72-3.37-42.26-5.25-63.03-1.22-9.94,1.93-18.63,4.92-26.81,10.66-2.58,1.81-9.47,9.55-13.45,7.71-1.63-.75.77-9.63,1.02-10.55,4.93-17.91,18.8-25.66,35.9-30.35,34.86-9.55,70.19-9.55,106-5.64"/>
    <path d="M860.79,487.99c-1.74-4.23-3.06-8.62-3.72-13.23-3.46-1.21-7.09-2.21-10.9-3.02-34.84-7.35-69.54-5.12-104.47,1.02.27,7.15.55,14.32.83,21.5.22,5.47.45,10.93.68,16.38,15.66-5.19,29.09-8.69,39.25-11.04,20.14-4.66,41.18-7.89,61.83-5.17,5.98.79,11.52,2.04,16.83,4.02l-.33-10.47Z"/>
    <path class="cls-3" d="M701.77,738.19c-31.9-.1-83.05-.37-83.05-.37,0,0,8.87,73.4,82.82,73.63,73.96.23,75.79-75.58,75.79-75.58,0,0-43.65,2.41-75.55,2.31Z"/>
    <path class="cls-8" d="M702.08,738.19c-15.17-.05-75.76,1.12-75.76,1.12,0,0,22.74,43.82,77.59,43.99,59.48.19,63.67-42.55,63.67-42.55l-65.5-2.55Z"/>
    <path class="cls-5" d="M702.73,740.99c-15.17-.05-60.78,1.16-60.78,1.16,0,0,16.02,16.03,61.52,16.17,45.5.14,60.54-15.19,60.54-15.19l-61.27-2.14Z"/>
    <path class="cls-3" d="M779.17,732.75c-1.63-.49-1.62-.51-9.24-1.33-12.7-1.37-17.99-6.53-27.19-7.42-15.71-1.52-25.71,6-32.55,5.98-6.83-.02-16.79-7.61-32.51-6.19-9.21.83-31.47,9.36-44.18,10.65-7.63.77-13.18,1.56-14.81,2.04-2.27.67-1.84,12.03,84.04,12.3,85.89.27,78.71-15.35,76.44-16.03Z"/>
    <path class="cls-2" d="M390.59,648.19c-7.57-16.15-15.93-32.14-26.36-46.66-5.47-7.62-11.6-15.1-19.12-20.8-3.01-2.28-6.46-4.52-10.21-5.33-.75-.16-1.71-.38-2.43.03-.54.31-.92,1-1.26,1.51-.79,1.18-1.49,2.43-2.12,3.7-6.1,12.19-6.74,26.55-4.48,39.79.43,2.53.97,5.03,1.6,7.51.21.82,2.38.25,2.17-.58-3.99-15.81-4.56-34.35,3.98-48.89.51-.87,1.05-1.76,1.69-2.55l-1.43.61s.15-.01.16,0c.05.06.65.09.24.02.63.11,1.25.26,1.86.46,2.19.71,4.79,2.19,6.92,3.67,4.17,2.9,7.85,6.49,11.25,10.25,5.52,6.12,10.34,12.85,14.79,19.78,7.79,12.14,14.45,25,20.57,38.05.38.8,2.51.14,2.17-.58h0Z"/>
    <path class="cls-2" d="M377.07,652.73c-3.87-.24-8.57.41-11.03,3.77-2.2,3-2.12,7.24-1.9,10.77.26,4.31,1.03,8.58,1.22,12.9.08,1.86.08,3.78-.39,5.59-.19.73-.45,1.44-.84,2.09-.07.11-1.22,1.56-1.27,1.46,0,0,.33-.09.34-.1.24-.24.19.09.03-.04-.18-.13-.54-.17-.75-.3-.6-.35-1.1-.88-1.53-1.42-1.3-1.63-2.21-3.58-3.01-5.49-2.59-6.15-4.18-12.75-5.52-19.27-.87-4.21-1.59-8.44-2.19-12.7-.26-1.82-.74-3.72-.61-5.57.19-2.75.61-5.49,1.19-8.19,2-9.31,6.2-19.29,14.57-24.56,1.17-.73,2.39-1.35,3.67-1.87.34-.14.57-.3.28-.52s-1.24.18-1.52.29c-9.82,3.99-15.42,13.45-18.2,23.25-.97,3.44-1.65,6.98-2.03,10.53-.07.71-.18,1.44-.18,2.15.02,1.28.31,2.62.48,3.89.3,2.23.64,4.46,1.01,6.69,1.26,7.5,2.84,15.02,5.28,22.24.84,2.48,1.78,4.96,3.03,7.27.76,1.4,1.69,3,3.06,3.89,2.64,1.73,5.62-.73,6.54-3.18,1.33-3.56.72-7.78.32-11.45-.47-4.32-1.21-8.73-.81-13.08.32-3.46,1.76-7.29,5.56-8.06,1.24-.25,2.52-.23,3.77-.15.44.03,1.19-.11,1.54-.41.28-.25.36-.4-.12-.43h0Z"/>
    <g>
      <path class="cls-12" d="M763.06,922.12s57.21,112.2-121.11,119.62c-178.31,7.42-261.18-131.57-261.18-131.57l30.72-15.26s82.41,102.34,214.82,111.28c0,0,130.98,13.02,107.72-66.78l-17.85-41.26,46.88,23.96Z"/>
      <path class="cls-7" d="M760.16,922.89c6.05,11.91,8.92,26.3,8.73,39.55-.17,12.17-3.43,24.15-10.06,34.41-9.27,14.33-24.07,23.95-39.67,30.21-26.99,10.82-57.39,13.59-86.21,13.84-29.72.26-59.44-3.67-87.95-12.14-43.56-12.94-83.61-36.48-116.91-67.32-11.14-10.32-21.57-21.44-31.03-33.33-2.98-3.75-5.87-7.58-8.62-11.5-1.22-1.73-2.59-5.09-4.27-6.37-.21-.16-.37-.6-.52-.84l-1.25,1.08c10.24-5.09,20.48-10.17,30.72-15.26l-4.55.48c12.61,15.62,28.15,29.34,43.79,41.78,35.58,28.31,76.62,50.15,120.75,61.56,26.75,6.91,54.92,10.1,82.58,8.79,25.35-1.19,58.56-5.34,75.62-26.57,9.33-11.62,10.42-28.26,5.74-42.09-4.32-12.78-10.81-25.15-16.17-37.53-.61-1.41-1.22-2.82-1.83-4.24l-5.63,1.74c15.63,7.99,31.25,15.97,46.88,23.96,1.45.74,5.99-1.66,5.47-1.92-15.63-7.99-31.25-15.97-46.88-23.96-.77-.39-6.14.56-5.63,1.74,5.16,11.93,10.33,23.87,15.49,35.8s7.28,25.3,2.64,37.53c-9.91,26.13-43.88,31.49-68.17,33.11-25.09,1.67-50.05-.61-74.61-5.95-44.4-9.65-85.98-30.16-122.26-57.31-12.48-9.34-24.38-19.48-35.52-30.38-5.45-5.34-10.21-11.67-15.81-16.81-.24-.22-.44-.53-.65-.79-.82-1.01-3.65.03-4.55.48-10.24,5.09-20.48,10.17-30.72,15.26-.16.08-1.5.66-1.25,1.08,9.94,16.63,23.52,31.63,37.21,45.19,32.11,31.8,71.13,56.61,113.95,71.2,27.63,9.41,56.57,14.54,85.73,15.59,30.31,1.1,61.78-1.2,91.04-9.58,30.83-8.83,62.01-27.18,67.86-61.27,1.83-10.67,1.09-21.67-1.35-32.18-.89-3.84-2.01-7.62-3.35-11.32-.71-1.95-1.35-4.73-2.62-6.41-.17-.23-.27-.57-.4-.83-.67-1.31-6.2.76-5.8,1.55Z"/>
    </g>
  </g>
</svg>