<?xml version="1.0" encoding="UTF-8"?>
<svg id="Layer_1" data-name="Layer 1" xmlns="http://www.w3.org/2000/svg" viewBox="0 0 637.33 635.77">
  <defs>
    <style>
      .cls-1 {
        fill: #010101;
      }

      .cls-2 {
        fill: #273339;
      }

      .cls-3 {
        stroke: #181513;
        stroke-width: .13px;
      }

      .cls-3, .cls-4, .cls-5, .cls-6, .cls-7, .cls-8, .cls-9, .cls-10, .cls-11 {
        stroke-miterlimit: 10;
      }

      .cls-3, .cls-12 {
        fill: #161312;
      }

      .cls-4 {
        fill: #eee8ca;
      }

      .cls-4, .cls-8 {
        stroke: #05090a;
        stroke-width: .69px;
      }

      .cls-13 {
        fill: #c1e7f6;
      }

      .cls-14 {
        fill: #aaa;
      }

      .cls-15 {
        fill: #78b242;
      }

      .cls-16 {
        fill: #622616;
      }

      .cls-17 {
        fill: #cd8c2a;
      }

      .cls-5 {
        stroke-width: .45px;
      }

      .cls-5, .cls-6, .cls-7 {
        stroke: #221f1f;
      }

      .cls-5, .cls-6, .cls-7, .cls-9, .cls-10 {
        fill: none;
      }

      .cls-6 {
        stroke-width: .41px;
      }

      .cls-7 {
        stroke-width: .23px;
      }

      .cls-18 {
        fill: #619f52;
      }

      .cls-19 {
        fill: #151311;
      }

      .cls-20 {
        fill: #a66e53;
      }

      .cls-21 {
        fill: #843323;
      }

      .cls-22, .cls-8 {
        fill: #fff;
      }

      .cls-23 {
        fill: #684135;
      }

      .cls-24 {
        fill: #ce9b32;
      }

      .cls-25 {
        fill: #42221a;
      }

      .cls-26 {
        fill: #f8f5e6;
        stroke: #cbba9a;
        stroke-miterlimit: 10;
        stroke-width: .45px;
      }

      .cls-9 {
        stroke: #ce9b32;
        stroke-width: .39px;
      }

      .cls-27 {
        fill: #c9f79c;
      }

      .cls-28 {
        fill: #221f1f;
      }

      .cls-29 {
        fill: #ccb631;
      }

      .cls-30 {
        fill: #181d1e;
      }

      .cls-31 {
        fill: #3e488c;
      }

      .cls-32 {
        fill: #dac325;
      }

      .cls-10 {
        stroke: #42221a;
      }

      .cls-33 {
        fill: #301810;
      }

      .cls-11 {
        fill: #c1e5aa;
        stroke: #78b242;
        stroke-width: .96px;
      }

      .cls-34 {
        fill: #776729;
      }

      .cls-35 {
        fill: #9f2522;
      }

      .cls-36 {
        fill: #653d2a;
      }

      .cls-37 {
        fill: #f0edf6;
      }

      .cls-38 {
        fill: #798090;
      }
    </style>
  </defs>
  <circle class="cls-13" cx="319.06" cy="340.56" r="288.85"/>
  <g>
    <path class="cls-18" d="M80.11,263.7s5.34,23.91-17.5,42.57c-14.18,11.57-38.31,37.74-31.2,49.73l34.07,21.58c7.31-14.29,17.63-26.82,30.26-36.72,19.53-14.45,28.67-51.38,28.67-51.38l-44.3-25.78Z"/>
    <path class="cls-27" d="M86.7,333.58c-5.63,5.31-14.5,5.04-19.81-.59,0,0-.01-.01-.02-.02-.45-.5-.86-1.02-1.23-1.58-3.9-6.16.76-16.12,6.8-20.07,6.14-3.93,14.31-2.15,18.25,3.99,3.95,6.16,1.35,13.32-3.99,18.27Z"/>
    <path class="cls-18" d="M85.56,332.02c-4.72,4.45-12.15,4.22-16.59-.5,0,0-.01-.01-.02-.02-.38-.42-.72-.86-1.03-1.32-3.27-5.16.64-13.5,5.7-16.81,5.14-3.3,11.99-1.8,15.29,3.34,3.31,5.16,1.13,11.16-3.34,15.31Z"/>
    <path class="cls-27" d="M64.45,372.29l-30.98-19.76-.03-.38c1.14-17.57,21.31-34.84,34.64-46.23,2.25-1.99,4.42-3.82,6.31-5.39,12.19-11,10.14-28.5,9.15-29.61l.76-1.01,33.75,20.74.04.37c-2.7,20.97-14.11,39.83-31.43,51.96-11.93,7.99-21.84,28.41-21.95,28.71l-.26.6ZM34.82,351.84l29.14,18.62c1.81-3.68,10.96-21.16,22.06-28.61,16.89-11.85,28.06-30.21,30.83-50.66l-31.54-19.44c.23,1.18.37,2.38.4,3.58.12,3.82-.32,17-10.36,26.02-1.83,1.67-4.03,3.53-6.33,5.4-13.13,11.33-32.84,28.2-34.2,45.09Z"/>
    <path class="cls-27" d="M98.49,306.93c2.68-4.7,4.85-9.69,6.48-14.9-.37-.19-.74-.38-1.11-.57-1.61,5.19-3.78,10.16-6.45,14.83.36.21.72.43,1.08.64Z"/>
    <path class="cls-27" d="M90.95,301.84c2.74-4.77,4.96-9.84,6.61-15.13-.37-.19-.74-.38-1.11-.57-1.63,5.26-3.83,10.29-6.55,15.02.35.23.7.46,1.06.68Z"/>
    <path class="cls-27" d="M46.42,349.52c1.92-4.8,5.1-9.48,8.9-13.95-.31-.32-.6-.66-.88-1-3.78,4.42-6.99,9.07-9.02,13.87.31.36.63.71.97,1.05.01.01.02.02.04.03Z"/>
    <path class="cls-27" d="M55.48,355.61c1.92-4.8,5.1-9.48,8.9-13.95-.31-.32-.6-.66-.88-1-3.78,4.42-6.99,9.07-9.02,13.87.31.36.63.71.97,1.05.01.01.02.02.04.03Z"/>
    <ellipse class="cls-27" cx="54.2" cy="344.88" rx="3" ry="2.37" transform="translate(-252.83 178.7) rotate(-52.64)"/>
    <ellipse class="cls-27" cx="97.18" cy="296.96" rx="3" ry="2.37" transform="translate(-209.51 237.22) rotate(-60.86)"/>
    <path class="cls-27" d="M67.16,364.52s-5.92-2.77-9.15,3.65l6.71,3.52,2.45-7.17Z"/>
    <path class="cls-27" d="M39.98,355.14s2.11-5.71-4.02-9.46l-1.94,6.28,5.96,3.18Z"/>
    <path class="cls-27" d="M84.84,278.84s4.34,3,6.8-3.75l-6.98-3.66.18,7.4Z"/>
    <path class="cls-27" d="M111.38,287.3s-1.36,6.88,5.16,9.9l1.19-6.47-6.35-3.43Z"/>
  </g>
  <g>
    <path class="cls-11" d="M97.65,293.58s-1.74,24.44-28.96,35.77c-16.9,7.03-47.52,25.19-44.14,38.71l26.46,30.44c11.09-11.6,24.58-20.64,39.51-26.51,22.85-8.25,42.18-41.01,42.18-41.01l-35.06-37.39Z"/>
    <path class="cls-15" d="M83.95,362.42c-6.92,3.47-15.34.67-18.81-6.24,0,0,0-.02-.01-.02-.29-.6-.53-1.23-.73-1.86-1.97-7.02,5.35-15.23,12.27-17.28,7.01-2.01,14.33,2.04,16.34,9.05,2.02,7.04-2.53,13.15-9.06,16.36Z"/>
    <path class="cls-11" d="M83.3,360.6c-5.8,2.91-12.85.56-15.76-5.23,0,0,0-.01-.01-.02-.24-.51-.45-1.03-.61-1.56-1.65-5.88,4.48-12.76,10.27-14.47,5.87-1.68,12,1.71,13.69,7.58,1.69,5.9-2.12,11.01-7.59,13.71Z"/>
    <path class="cls-15" d="M51.54,393.14l-24.02-27.81.08-.37c6.13-16.51,30.4-27.27,46.43-34.37,2.72-1.26,5.33-2.39,7.59-3.36,14.83-7.05,17.88-24.41,17.25-25.74l1.02-.75,26.4,29.54-.07.37c-8.59,19.32-24.93,34.12-45,40.78-13.72,4.23-29.07,20.96-29.26,21.22l-.42.5ZM29.01,365.05l22.58,26.19c2.79-3,16.56-17.13,29.34-21.09,19.57-6.52,35.54-20.91,44.05-39.7l-24.65-27.67c-.12,1.2-.33,2.38-.64,3.55-.97,3.69-5.17,16.2-17.38,21.97-2.23,1.07-4.87,2.23-7.61,3.36-15.82,7.1-39.54,17.61-45.68,33.4Z"/>
    <path class="cls-15" d="M102.88,340.27c3.91-3.74,7.43-7.9,10.47-12.42-.3-.29-.6-.58-.9-.86-3.03,4.51-6.53,8.65-10.42,12.36.29.31.57.62.85.92Z"/>
    <path class="cls-15" d="M97.11,333.23c3.99-3.78,7.57-8.01,10.67-12.61-.3-.29-.6-.58-.9-.86-3.07,4.57-6.62,8.76-10.58,12.51.27.32.54.64.82.96Z"/>
    <path class="cls-15" d="M40.78,366.16c3.22-4.05,7.61-7.62,12.52-10.81-.2-.4-.39-.8-.56-1.21-4.89,3.15-9.29,6.69-12.61,10.7.2.43.4.86.63,1.28,0,.01.02.03.03.04Z"/>
    <path class="cls-15" d="M47.72,374.59c3.22-4.05,7.61-7.62,12.52-10.81-.2-.4-.39-.8-.56-1.21-4.89,3.15-9.29,6.69-12.61,10.7.2.43.4.86.63,1.28,0,.01.02.03.03.04Z"/>
    <ellipse class="cls-15" cx="49.57" cy="363.94" rx="3" ry="2.37" transform="translate(-204.43 98.62) rotate(-36)"/>
    <ellipse class="cls-15" cx="104.48" cy="330.34" rx="3" ry="2.37" transform="translate(-200.75 166.4) rotate(-44.21)"/>
    <path class="cls-15" d="M56.36,386.47s-4.88-4.35-9.82.87l5.42,5.3,4.4-6.17Z"/>
    <path class="cls-15" d="M33.01,369.69s3.65-4.86-1.14-10.22l-3.66,5.47,4.79,4.75Z"/>
    <path class="cls-15" d="M97.85,309.44s3.29,4.12,7.59-1.64l-5.64-5.5-1.95,7.14Z"/>
    <path class="cls-15" d="M120.85,325.16s-3.27,6.2,2.11,10.96l2.99-5.86-5.1-5.11Z"/>
  </g>
  <polygon class="cls-8" points="618.76 380.8 492.93 368.48 504.51 245.72 630.33 258.05 618.76 380.8"/>
  <polygon class="cls-4" points="615.82 377.54 496.43 365.82 507.45 248.98 626.83 260.7 615.82 377.54"/>
  <path class="cls-31" d="M565.69,372.33l.1-4.83s6.11-53.09,5.49-53.78c-2.57-2.84-13.36-6-13.36-6,0,0-8.92,12.13-12.92,12.28-1.11,0-10.33-16-10.33-16,0,0-9.24,1.95-12.3,3.54-1.13.66-2.2,1.41-3.2,2.25-2.27,8.84-2.66,18-2.7,27.06h0v1.59c0,.22-.04.43-.13.63-.37,5.53-1.36,20.13-2,28.43l51.35,4.83Z"/>
  <path class="cls-20" d="M563.68,504.29l-19.39-8.86s-22.65,13.87-26.09,22.8l-3.44,8.94,14.52,8.38,34.4-31.26Z"/>
  <path class="cls-29" d="M511.49,479.68c-2.77,32-56.74,32.77-69,11.65-12-20.6-16.65-53.43-45.85-121.06-35.18-81.5,31.66-95.48,45.82-88.81,28.42,13.4,71.78,166.47,69.03,198.22Z"/>
  <path class="cls-20" d="M75.43,509.23l19.39-8.85s22.65,13.87,26.08,22.81l3.44,8.94-14.52,8.37-34.39-31.27Z"/>
  <path class="cls-20" d="M526.4,533.42l10.24,21.58s16.78,11.8,21.65,12.72,10.26-6.72,10.26-6.72c0,0-2.44-4.84,1.32-.78s9.78-4.5,9.78-4.5l9.1,2.6c4.14,1,8.5.04,11.84-2.6,5.12-4.47-2-12.31-3.57-14.39s2-2.55,2-2.55c6.56,1.97,13.24,3.5,20,4.59,6.61.62,10.47,1.7,11-4.17s-12.17-8.75-16.23-10.38-17.31-12.72-17.84-17.72,4.3-6.3,16.15-9,23.48-5.77,22.36-12-19.32-4.31-26-1.24-23.75,0-37.44,4.15-23.44,20.54-23.44,20.54l-21.18,19.87Z"/>
  <path class="cls-25" d="M585.4,545.56c-1.22-1.44-2.2-3.07-2.91-4.82-.91-1.95-.64-4.24.71-5.92,1.58-1.46,3.84-1.92,5.87-1.19,1.74.62,3.3,1.65,4.55,3,2.2,2.42,3.31,4.24,3.54,4.08-.51-1.78-1.42-3.42-2.66-4.8-1.31-1.63-3.04-2.88-5-3.59-2.58-.99-5.5-.41-7.52,1.48-1,1.06-1.58,2.44-1.62,3.9-.05,1.26.18,2.51.68,3.67.8,1.82,1.91,3.48,3.28,4.92,2.29,2.46,3.36,4,3.55,4.05s-.54-2.14-2.47-4.78Z"/>
  <path class="cls-25" d="M562.52,541.66c-1.88-4.26-3.43-8.66-4.66-13.15-.79-2.56-1.17-5.22-1.15-7.9.11-1.24.72-2.39,1.7-3.17,1.15-.74,2.63-.77,3.81-.08,2.52,1,3.78,3.85,4.94,6.42l3.33,7.66,6,12.72c1.58,2.69,2.68,5.65,3.23,8.72.08,1.12-.02,2.25-.31,3.34.06,0,.27-.2.51-.77.36-.82.53-1.71.49-2.6-.31-3.21-1.27-6.32-2.82-9.15l-5.66-13-3.4-7.58c-.91-3.08-2.98-5.69-5.77-7.28-1.65-.76-3.58-.62-5.11.36-1.34,1.06-2.19,2.63-2.34,4.33-.03,2.87.41,5.73,1.29,8.47,1.28,4.54,2.96,8.96,5,13.21,1.72,3.62,3.29,6.48,4.38,8.45.5,1.07,1.12,2.08,1.87,3,.22-.16-2.01-4.58-5.33-12Z"/>
  <path class="cls-25" d="M551.15,556.17c-.53-2-1.72-4.92-3-8.51l-4.68-12.56c-.96-2.33-1.36-4.86-1.15-7.37.15-1.24.69-2.39,1.53-3.31.73-.91,1.93-1.31,3.06-1,2.13.79,3.34,3.83,4.75,6.08l3.84,6.91,6.27,11.84,4.1,8.08c.47,1.02,1.06,1.97,1.76,2.85-.25-1.12-.64-2.21-1.16-3.23-.85-2-2.14-4.75-3.78-8.21s-3.62-7.54-6-12c-1.1-2.25-2.41-4.59-3.77-7-.66-1.21-1.33-2.4-2.09-3.65-.77-1.46-2.03-2.59-3.56-3.21-1.71-.48-3.55.07-4.71,1.43-1.06,1.16-1.73,2.62-1.92,4.18-.25,2.77.2,5.57,1.29,8.13,1.89,4.73,3.62,8.91,5.06,12.45s2.64,6.38,3.51,8.33c.39,1.05.89,2.06,1.5,3-.15-1.11-.44-2.19-.85-3.23Z"/>
  <path class="cls-25" d="M611.08,495.19c.89,2.73,3.07,3.81,3.35,3.43s-1.07-1.82-1.81-4-.41-4.19-.88-4.23c-.38-.19-1.56,2.07-.66,4.8Z"/>
  <path class="cls-25" d="M559.49,499.45s-14.51,8-17.55,14.14c0,0,4.24-12.9,17.55-14.14Z"/>
  <path class="cls-20" d="M112.8,538.68l-8.38,24.71s-16.32,12.43-21.15,13.54-10.52-6.4-10.52-6.4c0,0,2.26-4.93-1.34-.73s-9.94-4.12-9.94-4.12l-9,2.94c-4.09,1.16-8.49.37-11.93-2.14-5.29-4.27,1.55-12.38,3-14.51s-2.05-2.49-2.05-2.49c-6.49,2.23-13.12,4.02-19.85,5.36-6.58.87-10.39,2.1-11.11-3.75s11.83-9.21,15.82-11,16.82-13.37,17.15-18.39-4.5-6.12-16.5-8.39-23.64-4.87-22.75-11.18c.89-6.31,19.14-5,26-2.22s23.73-.9,37.57,2.71c13.84,3.61,24.18,19.64,24.18,19.64l20.8,16.42Z"/>
  <path class="cls-25" d="M55.34,555.79c1.16-1.49,2.08-3.15,2.72-4.93.84-1.98.48-4.26-.93-5.89-1.63-1.41-3.91-1.79-5.92-1-1.72.68-3.24,1.78-4.43,3.19-2.11,2.5-3.15,4.36-3.39,4.2.45-1.8,1.3-3.47,2.48-4.9,1.23-1.67,2.9-2.97,4.82-3.76,2.54-1.09,5.49-.63,7.58,1.18,1.03,1.04,1.64,2.41,1.73,3.87.1,1.26-.09,2.52-.54,3.7-.73,1.83-1.78,3.53-3.09,5-2.2,2.55-3.2,4.15-3.39,4.17s.53-2.12,2.36-4.83Z"/>
  <path class="cls-25" d="M78.05,551c1.71-4.32,3.1-8.77,4.15-13.3.69-2.59.98-5.26.86-7.94-.16-1.24-.82-2.36-1.82-3.1-1.18-.7-2.65-.67-3.81.06-2.48,1.12-3.64,4-4.7,6.6l-3,7.79-5.52,12.94c-1.48,2.75-2.46,5.74-2.89,8.83-.04,1.13.11,2.25.44,3.33-.06,0-.28-.19-.54-.75-.39-.8-.59-1.69-.59-2.58.18-3.22,1.02-6.36,2.46-9.24l5.17-13.21,3.11-7.7c.79-3.11,2.75-5.8,5.48-7.49,1.63-.82,3.56-.76,5.13.16,1.38,1.01,2.28,2.54,2.5,4.24.13,2.88-.21,5.75-1,8.52-1.1,4.58-2.6,9.07-4.48,13.39-1.58,3.69-3,6.6-4,8.61-.46,1.07-1.05,2.08-1.76,3-.24-.1,1.76-4.6,4.81-12.16Z"/>
  <path class="cls-25" d="M90,565.09c.45-2.06,1.53-5,2.71-8.62l4.2-12.73c.87-2.37,1.17-4.91.86-7.41-.2-1.23-.78-2.36-1.65-3.25-.77-.9-2-1.24-3.12-.88-2.11.88-3.2,4-4.52,6.27l-3.57,7-5.82,12.07-3.79,8.24c-.43,1.03-.98,2.01-1.65,2.91.2-1.13.53-2.23,1-3.27.77-2,2-4.83,3.46-8.35s3.33-7.67,5.51-12.25c1-2.29,2.23-4.67,3.5-7.13.62-1.24,1.24-2.45,1.95-3.73.72-1.48,1.93-2.66,3.43-3.33,1.7-.56,3.56-.07,4.77,1.24,1.11,1.13,1.85,2.57,2.11,4.13.34,2.76,0,5.57-1,8.17-1.71,4.8-3.28,9-4.59,12.63s-2.39,6.48-3.19,8.46c-.35,1.05-.82,2.05-1.39,3,.14-1.08.41-2.15.79-3.17Z"/>
  <path class="cls-25" d="M25.85,505.75c-.79,2.77-2.92,3.93-3.22,3.56s1-1.85,1.65-4,.26-4.19.72-4.25c.38-.28,1.64,1.94.85,4.69Z"/>
  <path class="cls-25" d="M79.47,508.73s14.8,7.45,18.07,13.46c0,0-4.72-12.74-18.07-13.46Z"/>
  <path class="cls-29" d="M510.18,465.29l44.09,31.07s-25.9,4-32.19,39.38c0,0-35.73-.06-64.1-21.93,0,0-20.75-22.13-23.39-46.83s75.59-1.69,75.59-1.69Z"/>
  <path class="cls-29" d="M131.32,458.63l-46.61,45.74s26.2-.22,38.12,33.68c0,0,35.25-5.83,59.72-32,0,0,26.29-18,15.54-50-7.92-23.52-66.77,2.58-66.77,2.58Z"/>
  <path class="cls-29" d="M188.24,281.35c13.57-7.8,77.33,1,48.88,85.12-12.86,79.11-30.06,100.5-40.31,122-10.54,22.05-67.34,28.65-72.7-3-5.32-31.47,36.89-188.47,64.13-204.12Z"/>
  <path class="cls-38" d="M235.57,516.77c19.73,2.35,39.57,3.62,59.43,3.81,20.58.25,41.16-.46,61.71-1.53,12.69-.66,25.44-1.45,38.15-2.28,1.45-.1,1.47-2.36,0-2.27-21.9,1.41-43.81,2.77-65.74,3.44-19.94.62-40,.63-60-.49-11.23-.6-22.43-1.6-33.59-3-1.45-.17-1.44,2.1,0,2.27l.04.05Z"/>
  <path class="cls-29" d="M438.21,523.83c-15.46-97.74,9.64-236.76,6.22-240.45-7.23-7.86-71.05-23.28-87.41-27.85h-82.13c-12.95,0-78.26,17.85-85.49,25.7-3.4,3.7,31.73,170.21,13.6,243.48-6.42,26.1,239.41,25.61,235.21-.88Z"/>
  <path class="cls-20" d="M353.65,248.78c-.8-2.53-.09-26-.09-26l-40,6.16-40-6.16s.79,26.28,0,28.79-16.45,8.15-16.45,8.15c0,0,3.57,32.39,55.52,32.39s60.4-32,60.4-32c0,0-18.59-8.78-19.38-11.33Z"/>
  <path class="cls-25" d="M270.54,225c.67.48,5.57,6.59,6.28,7.07,17.43,11.64,20,14.81,35.07,15.4,15.05-.58,21.51-2.53,37.7-16.75,5.44-4.8,4.25-6.4,5.44-7.25-27.03-.11-57.42,1.36-84.49,1.53Z"/>
  <path class="cls-20" d="M243.59,144.41s-7.67-11.77-12-11.29c-2.65.28,3.48,6.24,4.23,13,1,9.06-5.66,10.18-3.56,15.29s4.82,22.93,11.83,22.17c2.78-.3,5.63-6.46,5.63-6.46,0,0-3.84-24.66-6.13-32.71Z"/>
  <path class="cls-17" d="M245.46,177.65c-3,.33-5.86,2.44-6.2,5.61-.16,1.42.23,2.85,1.07,4,.64.86,1.53,1.5,2.55,1.82,2.2.78,4.63.46,6.55-.86.33-.22.59-.69.15-1-.5-.22-1.08-.15-1.52.17-1.13.75-2.55.9-3.81.39-.35-.13-.68-.29-1-.48,0,0-.21-.14-.09,0-.26-.21-.5-.45-.7-.72-1.41-1.73-1.47-4.21-.13-6,.35-.47.79-.86,1.3-1.14-.13.07,0,0,0,0l.29-.14.21-.09h.1c.29-.1.6-.16.91-.19.41,0,1.12-.29,1.19-.79s-.6-.61-1-.57h.13Z"/>
  <path class="cls-20" d="M379.93,145.08s6.44-12.49,10.81-12.46c2.67,0-2.82,6.56-2.89,13.34-.1,9.06,6.65,9.56,5.09,14.86s-2.49,23.29-9.54,23.24c-2.8,0-6.26-5.86-6.26-5.86,0,0,1.36-24.89,2.79-33.12Z"/>
  <path class="cls-20" d="M385.05,151.44h0c-1.55,7.89-3.47,16.19-4.8,25.72-3.5,25.13-7.7,41.27-26.93,50.18s-22.4,14.95-37.86,15.52c-15.45-.57-21.23-5.25-41.13-13-18.33-7.11-24.11-27.6-27.61-52.73-.78-5.61-1.76-10.78-2.72-15.7-.73-3.63-1.48-7.17-2.16-10.6v-.19c-2.46-12.62-4-24.26-.58-38.32,3.48-14.54,15.52-32.62,33.81-44h0c11.51-7.22,24.82-11.05,38.41-11.05,39.65,0,66.76,32,72.3,55.11,3.44,14.35,1.82,26.17-.73,39.06Z"/>
  <path class="cls-1" d="M318.59,187c-2.3,1.3-5.14,1.16-7.31-.35-.46-.33-2,0-1.37.49,3.02,1.95,6.87,2.06,10,.3.28-.18.23-.41-.1-.53-.39-.13-.81-.1-1.17.09"/>
  <path class="cls-1" d="M308.87,186.45c-1.69-.77-3.51-1.22-5.37-1.34-.3-.01-.58.08-.82.26-.16.14-.19.32,0,.44.9.48,1.92.71,2.94.67.34.03.68-.1.91-.35.17-.25-.14-.41-.38-.41-.83.03-1.65-.15-2.39-.54l-.8.7c1.66.1,3.29.51,4.8,1.2.33.13.7.09,1-.11.2-.11.41-.38.12-.52"/>
  <path class="cls-1" d="M301.58,186.67c-1.96,0-3.79-.99-4.88-2.62-1.36-2.45-.1-5.36,2.19-6.93.24-.17.12-.4-.14-.46-.35-.05-.71.04-1,.25-2.02,1.24-3.18,3.51-3,5.88.29,2.15,2,3.63,4.24,4.28.65.19,1.32.3,2,.33.28,0,.77-.09.9-.35s-.12-.37-.38-.38"/>
  <path class="cls-1" d="M320.76,186.45c1.69-.77,3.51-1.22,5.37-1.34.3-.01.59.08.83.26.15.14.19.32,0,.44-.91.48-1.92.71-2.95.67-.34.03-.67-.1-.9-.35-.17-.25.14-.41.39-.41.83.03,1.65-.15,2.38-.54l.81.7c-1.66.1-3.29.51-4.81,1.2-.33.13-.71.09-1-.11-.2-.11-.42-.38-.12-.52"/>
  <path class="cls-1" d="M328.06,186.67c1.96-.01,3.79-.99,4.88-2.62,1.36-2.45.1-5.36-2.19-6.93-.25-.17-.12-.4.13-.46.35-.05.71.04,1,.26,2.02,1.25,3.17,3.52,3,5.89-.28,2.15-2,3.63-4.23,4.28-.65.19-1.32.3-2,.33-.29,0-.78-.1-.91-.35s.12-.37.38-.38"/>
  <path class="cls-14" d="M332.23,128.11v7.58c4-.91,7.35-1.56,10-2,5.44-.9,8.16-1.28,11.35-.8,2.49.4,4.92,1.09,7.25,2.06,1.33.47,2.6,1.07,3.8,1.81,2.72,1.76,3.78,3.76,4.22,3.58s-.27-1.91-.33-2.09c-1.2-2.9-3.18-5.41-5.72-7.25-2.25-1.44-4.74-2.45-7.35-3-3.11-.73-11.78-1.22-23.2.09"/>
  <path class="cls-19" d="M346,145.37c1.78-.76,3.84-.38,5.24.95.67.58,1.16,1.34,1.42,2.19.38,1.57-.06,3.22-1.15,4.41-1.35,1.37-3.42,1.73-5.16.91-2.07-1.11-3.08-3.51-2.44-5.77.3-1.15,1.05-2.13,2.09-2.72"/>
  <path class="cls-19" d="M331.42,152.08s9.78-7.12,14.79-7.58c7.31-.67,16.31,3.07,18.89,6.41,0,0-11.91-5.59-17-5-4.95.61-16.68,6.17-16.68,6.17Z"/>
  <path class="cls-14" d="M297,128.27v7.57c-4-.9-7.37-1.56-10-2-5.43-.86-8.15-1.28-11.35-.81-2.49.4-4.92,1.1-7.25,2.07-1.33.49-2.61,1.13-3.8,1.9-2.72,1.81-3.79,3.77-4.23,3.62s.27-1.91.34-2.09c1.2-2.9,3.18-5.41,5.72-7.25,2.24-1.45,4.72-2.49,7.33-3.06,3.13-.72,11.78-1.21,23.22.1"/>
  <path class="cls-19" d="M283.21,145.52c-1.82-1-4-.13-5.25.91-.67.58-1.16,1.34-1.41,2.19-.38,1.57.05,3.22,1.14,4.41,1.35,1.37,3.42,1.73,5.16.91,2.07-1.11,3.08-3.51,2.44-5.77-.29-1.15-1.05-2.13-2.08-2.72"/>
  <path class="cls-19" d="M297.77,152.22s-9.77-7.11-14.77-7.57c-7.3-.67-16.31,3.07-18.89,6.41,0,0,11.9-5.59,17-5,4.89.61,16.66,6.16,16.66,6.16Z"/>
  <path class="cls-21" d="M229.78,85.11s32.66-15.93,74.46-10.63c41.8,5.3,68.44,21,75.5,39.79,7.06,18.79,5.43,46.63,5.43,46.63,0,0,6,7.12,13.44-31.15,10.87-55.77-50.12-105-63.66-105s-85.75-2.02-105.17,60.36Z"/>
  <path class="cls-21" d="M237.27,68.83s-7-44,23.3-52.2c30.3-8.2,94.09-23,112.73,17.14l-136.03,35.06Z"/>
  <path class="cls-16" d="M235.71,159.14c-3.17-3.17-5.48-7.11-6.71-11.42-3.37-11.87-9.26-36.4-3.85-47.29,2.36-4.74,3.31-18.88,3.54-23,1.17-21.74-4-15.11,26.61-39.86,30.61-24.75,35.89-17.91,81.8-15s59.08,17.81,55.53,60.83c0,0-75.65-17.52-104.79-1.76-29.14,15.76-54.78,37.36-44.53,84.51.12.6-4.11-3.49-7.6-7.01Z"/>
  <path class="cls-21" d="M392.27,63.53s-54-19.63-74.7-21.34,65.43,1.6,73.69,11l1.01,10.34Z"/>
  <path class="cls-17" d="M381.74,179.44c2.4.08,4.42,1.81,4.86,4.17.22,1.15.03,2.33-.54,3.35-.15.27-.32.53-.52.76-.05.07-.11.13-.16.19s-.13.16-.05.09h0l-.28.2-.09.06c-.1.07-.21.13-.32.19-.41.25-.87.4-1.35.44-.87.06-1.74-.14-2.5-.57-.45-.18-.96-.16-1.4.06-.12,0-1,.51-.61.72,1.81.95,3.94,1.08,5.85.35,1.02-.3,1.95-.84,2.72-1.57,2.01-2.15,2.01-5.5,0-7.65-1.25-1.21-2.93-1.87-4.67-1.81-.53-.02-1.04.18-1.42.55-.28.4.23.47.53.47h-.05Z"/>
  <path class="cls-36" d="M315.23,200.66c-11.41,0-29.9-1.3-29.9-1.3,0,0,3.45,26,29.9,26s29.9-26,29.9-26c0,0-18.48,1.3-29.9,1.3Z"/>
  <path class="cls-33" d="M315.34,200.66c-5.43,0-27.31-.9-27.31-.9,5.29,9.86,15.68,15.92,26.87,15.66,21.29,0,27.54-15.5,27.54-15.5l-27.1.74Z"/>
  <path class="cls-37" d="M315.6,201.45c-5.44,0-22-.91-22-.91,0,0,6,5.78,22.24,5.78s21.45-5.61,21.45-5.61l-21.69.74Z"/>
  <path class="cls-36" d="M346.4,197.76c-.58-.13-3.74.91-6.43.66-4.53-.38-10-1.53-13.18-1.77-5.57-.42-9.06,1.72-11.51,1.72s-5.94-2.14-11.51-1.72c-3.25.24-8.69,1.39-13.18,1.77-2.72.22-5.85-.79-6.43-.66-.8.19.75,5.92,31.13,5.92s31.86-5.75,31.11-5.92Z"/>
  <path class="cls-14" d="M248.17,116.55s50.4-19.24,59.93-33.61c-1,1.55,10.1,9.38,11,9.87,9.33,5.29,20.48,7,30.14,3.36,3.68-1.38,3.68-2,6.12-5,0,0,9.78,20.42,24.42,23,0,0-17.17-37.27-62.64-37.93-.04.11-33.65-8.24-68.97,40.31Z"/>
  <path class="cls-10" d="M283.94,113.78s14.68,6.06,29,4.65,31.85-5,31.85-5"/>
  <path class="cls-2" d="M247.16,142.54l2.72,7.25c1.6,5.66,6.29,16.85,8.38,19.89,2.95,4.24,34.38,5.26,40.47,1.67,6.09-3.59,9.17-21,10.72-25l12.57.43c1.23,5.16,5.51,21.51,7.94,23.68s16.82,1.48,18.44,1.4c1.35-.08,3.23-.19,5.29-.39,5.43-.5,12-1.51,14-3.5,3-2.93,6-14,8.65-24.46l.43-1.64c.09-.4.22-.67.22-.79h0l.47-1.88c-18.25-7.95-42-6.1-56.17,4.4l.11.18-12.26-.47c-14-8.59-41.16-13.27-58.14-6.53h0l-16.46,13-.06,4.53,12.68-11.77ZM331.38,168.77c-1.52-1.35-4.87-12.79-7.18-21.75,12.34-8.87,33.7-10.51,50-4.29v.27c-1.41,5.6-5.15,20.54-8.05,23.43-3.45,3.4-32.12,4.47-34.77,2.4v-.06ZM261.94,168.41c-4.43-8.27-8.1-16.92-10.94-25.86,15.09-7,41.68-3.78,55.37,4.36-2,7.24-4.47,19.93-8.84,22.54-6.27,3.7-33.74,1.64-35.59-1.04h0Z"/>
  <polygon class="cls-2" points="377.44 139.22 388.32 149.75 387.75 153.58 376.15 143.04 377.44 139.22"/>
  <path class="cls-29" d="M218.25,345.23s-24,25.75-24,71.8c0,24.46,41.68,45.68,41.68,45.68"/>
  <path class="cls-29" d="M425.87,337.29s19.13,25.71,19.13,71.82c0,24.46-36.76,45.68-36.76,45.68"/>
  <path class="cls-29" d="M319.06,629.37c48.21.09,95.66-11.95,138-35-8.21-42.37-16.83-82.69-21.78-94.43,0,0-185.16,22.47-225.94,0,0,0-17.12,49.75-27.6,94.82,42.17,22.8,89.38,34.7,137.32,34.61Z"/>
  <path class="cls-34" d="M199.4,338.63c1.55,6.88,2.44,14.05,1.27,21.04-1.41,8.4-3.29,16.72-4.8,25.1-2.17,12.02-4.02,24.13-5.11,36.3-.78,8.7-1.15,17.77,1.34,26.25,2.84,9.65,9.55,17.15,17.4,23.16.67.51,3.25-.62,2.72-1.02-7.1-5.43-13.35-12.07-16.46-20.59-2.95-8.09-2.97-16.91-2.36-25.4.86-12.08,2.7-24.13,4.78-36.05,1.56-8.91,3.48-17.75,5.08-26.64.65-3.62,1.03-7.12.8-10.81-.26-4.06-.86-8.13-1.76-12.1-.16-.72-3.07,0-2.9.78h0Z"/>
  <path class="cls-34" d="M435.07,338.22c-.46,6.89-.57,14,.79,20.8,1.55,7.8,3.55,15.53,5.29,23.29,2.66,11.87,5.18,23.8,7.08,35.81,1.42,8.91,2.55,18.2.7,27.14-2.07,10.03-8.27,18.04-15.85,24.67-.49.43-.26.93.29,1.1.67.2,1.54-.11,2.05-.55,6.79-5.94,12.7-13.04,15.43-21.76s2.16-17.35,1.06-25.94c-2.69-20.92-8.14-41.38-12.62-61.96-1.65-7.56-1.84-15.21-1.32-22.93.08-1.24-2.83-.7-2.9.34h0Z"/>
  <path class="cls-20" d="M557.06,309.22l-11.95,11.65-11-15.78c4.85-.26,4.7-2.23,4.7-2.23.36-2.3.58-4.62.65-6.95l7.59,1.1,7.67.34s-1,7.22-.82,8.62c0,.03-.56,2.03,3.16,3.25Z"/>
  <path class="cls-20" d="M534.59,288.74s-.75,1-1.27,1c-1.31-.11-1.13-1.52-1.33-2.53s-1.19-3-1-4.73c.1-1.26,1.42-2.48,1.92-2.43.82.07,1.8,2.51,1.8,2.51.07,1.53-.12,6.18-.12,6.18Z"/>
  <path class="cls-28" d="M533.74,284.78c.04.08.11.13.2.14,0,0,.19,0,.17-.05-.26-.73-.59-1.44-1-2.1-.24-.46-.64-.81-1.13-1-.05-.02-.12-.02-.17,0-.09.07-.16.17-.2.27-.27.54-.35,1.16-.23,1.75,0,.12.38.21.36.08-.09-.49-.05-1,.12-1.47.05-.17.15-.33.27-.46h-.13c.06,0,0,0,0,0h.06s0,0,0,0l.14.11c.14.14.27.3.39.46.45.7.82,1.45,1.08,2.24l.07.03Z"/>
  <path class="cls-28" d="M533.47,285.17c.25,0,.17-.22,0-.24-.19-.05-.4.02-.52.18-.08.17-.12.36-.1.55v.61c.01.09.01.17,0,.26-.02.05-.04.1-.05.15h.06s.07-.01.1,0h0v-.08c-.05-.11-.08-.22-.1-.34-.07-.33-.12-.66-.13-1-.02-.29.02-.59.1-.87.04-.42.29-.8.67-1,.09,0,0-.13,0-.17-.08-.04-.18-.04-.26,0-.49.16-.69.74-.79,1.19-.07.38-.07.78,0,1.16.02.32.08.63.17.94.04.19.18.35.37.41.44.09.36-.58.35-.83s-.12-1,.26-.93h-.13Z"/>
  <path class="cls-23" d="M555.7,298.17c-.26.19-.05.59-1.25,1.65-3.55,3.12-4.88,3.47-7.89,3.33-3-.43-3.44-1.24-6.65-4.37-.12-.13-1-1.69-1.09-1.82,5.4.47,11.49.68,16.88,1.21Z"/>
  <path class="cls-20" d="M560.32,291.68s.54,1.15,1.06,1.2c1.31.13,1.39-1.29,1.78-2.25s1.74-2.76,1.92-4.45c.13-1.26-.94-2.69-1.44-2.74-.81-.08-2.23,2.13-2.23,2.13-.41,1.5-1.09,6.11-1.09,6.11Z"/>
  <path class="cls-28" d="M561.17,287.78c-.08.13.25.26.33.13.27-.45.56-.88.88-1.3.26-.4.6-.74,1-1l.15-.08h.13l-.15-.09h0v.1c.05.11.08.22.1.34.07.45.02.91-.14,1.34-.06.15.28.28.33.13.23-.57.25-1.2.06-1.78-.06-.16-.14-.31-.34-.3-.16.01-.31.07-.44.16-.3.19-.56.42-.79.69-.43.51-.82,1.06-1.15,1.64l.03.02Z"/>
  <path class="cls-28" d="M562.06,288.15c-.07,0-.14,0-.11.1s.16.11.23.12c.27,0,0,1-.06,1.13-.05.16-.05.33,0,.49.08.17.27.26.45.21.18-.08.28-.34.34-.5.15-.34.26-.7.34-1.06.05-.31.05-.64,0-.95,0-.46-.23-.88-.61-1.14,0,0-.2-.09-.25,0s0,.13.09.16c.38.21.41.84.42,1.22,0,.36-.06.72-.18,1.06-.08.29-.19.58-.33.85l-.09.13s-.05,0-.06.05.18.13.19.06,0,0,0,0v-.07c0-.17.03-.35.09-.51.05-.2.09-.4.12-.6.02-.15,0-.31-.08-.45-.13-.15-.31-.24-.51-.24v-.06Z"/>
  <path class="cls-20" d="M563,272.42c-.9-3.19-5.34-8-12.79-8.68-3.88-.39-7.79.46-11.16,2.42h0c-1.57.85-2.88,2.11-3.79,3.65-.86,1.71-1.21,6.18-1.17,10h0c0,3.36.18,6.72.52,10.06.08.65.18,1.21.27,1.63.77,3.65,5.94,9.76,11.73,10.31s12-4.5,13.45-7.93c.37-.88.94-3.25,1.44-5,0-.09.05-.14.05-.17,1.45-5.1,2.3-13.39,1.45-16.29Z"/>
  <path class="cls-28" d="M548.66,290.27c.07-.04.16-.04.23,0,.06,0,.07.08,0,.12-.6.38-1.37.33-1.92-.12-.12-.1.18-.18.27-.1.39.35.97.39,1.41.11"/>
  <path class="cls-28" d="M546.8,289.93c.06,0,0,.09,0,.11-.07.04-.14.04-.21,0-.29-.18-.61-.31-.95-.37l.18-.14c.14.1.3.16.47.17,0,0,.11.05.07.1-.05.05-.12.08-.19.07-.21-.02-.41-.09-.59-.21-.03-.03-.03-.07,0-.1,0,0,0,0,0,0,.05-.04.11-.06.17-.05.38.06.74.2,1.07.41"/>
  <path class="cls-28" d="M545.31,289.84c.06,0,.11,0,.07.09s-.14.07-.19.06c-.14-.02-.28-.06-.41-.11-.43-.15-.73-.54-.77-1,0-.52.28-1,.73-1.26.07-.03.14-.03.21,0,0,0,.07.07,0,.1-.54.3-.78.94-.59,1.52.18.37.53.63.94.68"/>
  <path class="cls-28" d="M549.16,290.22c-.06,0,0,.09,0,.12.06.05.13.06.2.05.32-.13.66-.19,1-.18l-.15-.17c-.16.07-.33.1-.5.07-.05,0-.12,0-.09.09.04.06.11.09.18.09.21.03.43,0,.62-.09v-.1s-.11-.07-.17-.07c-.38,0-.76.06-1.12.19"/>
  <path class="cls-28" d="M550.64,290.4s-.11,0-.08.08.12.09.17.1c.14.02.29.02.43,0,.48-.06.88-.41,1-.88.09-.51-.09-1.03-.49-1.37-.05-.05-.12-.08-.19-.08,0,0-.08.06,0,.1.47.39.6,1.06.31,1.6-.25.33-.65.52-1.06.49"/>
  <path class="cls-12" d="M542.09,281.24c.26.17.44.44.49.75.11.61-.22,1.21-.79,1.45-.47.18-1,.03-1.32-.36-.26-.34-.33-.78-.19-1.18.08-.22.23-.41.42-.54.4-.32.95-.37,1.4-.12"/>
  <path class="cls-12" d="M541.61,281.51c-1.36-.05-2.69.37-3.77,1.19.88-1.24,2.39-1.87,3.89-1.61,1.82.17,3.31,2.53,3.31,2.53-.89-1.04-2.09-1.78-3.43-2.11Z"/>
  <path class="cls-12" d="M555.39,282.49c-.29.12-.51.36-.62.65-.23.58-.02,1.23.5,1.57.43.26.98.21,1.37-.11.51-.47.55-1.27.07-1.78-.34-.37-.86-.5-1.33-.34"/>
  <path class="cls-12" d="M555.81,282.85c1.34.21,2.58.87,3.49,1.87-.63-1.39-2.01-2.29-3.53-2.31-1.81-.17-3.73,1.86-3.73,1.86,1.08-.85,2.4-1.35,3.77-1.42Z"/>
  <path class="cls-3" d="M565.7,276.51h0c.93.93-.17,4.61-.17,4.61.7,3.35-3.19,4.65-3.19,4.65-.12-1.87-.12-3.76,0-5.63.23-1.93-.65-8.47-2.34-9.12-.82-.31-2.84.82-9.89.16s-11-2.72-11.72-1.85-3.06,5-3.14,7.46c-.17,2.12-.53,4.23-1.07,6.29,0,0-2.53-1.83-3-3.33-.37-1.09.63-2.67.63-2.67,0,0-1.9-2.84,0-4.81,0,0-1.65-.43-.34-2.62-.11-.8-.31-.66-.28-1.24,0-1.1.49-2.15,1.34-2.85.3-1.24,2.35-1.67,2.35-1.67.18-1.92,1.54-1.91,1.54-1.91.85-1.33,2.61-1.71,3.94-.86.02.01.04.03.06.04,1.62-3.34,6.85-1.77,6.85-1.77,2.24-1.49,4.17.79,4.17.79.5-1,1.65,0,1.65,0,1.4-1.02,3.35-.71,4.37.68.18.24.32.51.42.79.51-.39,1.18-.49,1.78-.27,3.76-.65,4.64,3.31,4.64,3.31,1.3-.28,1.39,2.64,1.39,2.64.76.56,1.38,1.3,1.79,2.15.39,1.41.09,2.6-.59,4.52h0c.83,1.19-1.19,2.51-1.19,2.51Z"/>
  <path class="cls-12" d="M545.59,278.06c-1.95-.52-3.99-.67-6-.44-.97.02-1.84.59-2.25,1.46,0,.05-.22.54-.13.59s.66-.26.82-.34c.49-.25,1.04-.39,1.59-.41,1.2-.04,2.41.14,3.55.52.76.21,1.5.47,2.23.77l.08-.93.12-1.22"/>
  <path class="cls-12" d="M552.34,278.7c2-.16,4,.07,5.91.68.93.2,1.67.92,1.9,1.85,0,.06.11.57,0,.61s-.59-.38-.73-.49c-.43-.34-.93-.58-1.46-.7-1.16-.25-2.35-.31-3.53-.15-.59.06-1.37.17-2.29.35l.08-.93.12-1.22"/>
  <path class="cls-22" d="M542.43,313.08c1-.54,1.94,0,2.37,1.31s0,5,0,5l-4-4.77c.44-.61.99-1.13,1.63-1.54Z"/>
  <path class="cls-22" d="M548.69,314c-.82-.7-1.9-.38-2.56.85s-1,4.93-1,4.93l4.85-3.93c-.31-.69-.75-1.32-1.29-1.85Z"/>
  <path class="cls-31" d="M576,355.35c-.06-1.78.12-3.57.55-5.3.4-1.62,1-3.19,1.49-4.77.64-1.79,1.09-3.65,1.36-5.53v-.13l18.47-18.55,7.86,7.17s-8.61,16.71-17.59,26.27c-.57.62-3.21,3.29-5.86,3.93h0c-3.54.6-4.46-1.6-6.29-2.88-.09-.96.01.75.01-.21Z"/>
  <path class="cls-31" d="M564.92,344.58c-1.01-4.16-1.52-8.43-1.49-12.71.16-7.21-.6-15.11.07-22.27,3.12.64,6.11,1.78,8.87,3.36.96.55,1.84,1.22,2.62,2,1.35,1.68,2.39,3.59,3.07,5.64.69,1.83,1.47,4,2.16,5.79,1.79,4.7,2.95,8.91,4.74,13.61-.66,3.27-.45,5.05-1.49,8.21-1.2,3.64-.73,5.68-.45,9.48.06.75-3.16-.1-3.06.66-5.87-1.82-8.73-6.05-11.86-11"/>
  <path class="cls-20" d="M603.6,324.41c-.09-.32,1-7.23,1-7.23l8.14-4.78-.7,7.94c-.87,1.06-1.8,2.08-2.78,3.05-.16-.03-5.65,1.02-5.66,1.02Z"/>
  <path class="cls-20" d="M603.4,321.78c1.87-.7,3.79-1.27,5.74-1.69l-.58-2.06s-2.64-.5-3.45-1.54c-.47-.68-.58-1.54-.29-2.31l1.46.26c-.79-.65-.52-2.11-.52-2.11l1.61.17c-.58-.35-.78-1.1-.43-1.68,0,0,0,0,0,0l.08-.12,1.26.27c-.82-.72.4-1.74.4-1.74,0,0,6,3.77,6.43,4.33s-.21,2.23-.21,2.23c.39.36.64.84.7,1.37.01.65-.24,1.28-.71,1.74.12.48.15.99.06,1.48-.15.79-3.62,3.3-3.62,3.3l-5.5,4.12-4.41-4.9s.76-.45,1.98-1.11Z"/>
  <path class="cls-23" d="M607,322.27c0,.11,1.45-.36,3.41-.48h.29l-.11-.28c-.15-.38-.31-.83-.44-1.23-.18-.58-.32-1.16-.42-1.76v-.18h-.18c-.68-.01-1.36-.13-2-.36-.26-.11-.53-.18-.8-.22,0,.05.23.23.71.46.67.32,1.4.51,2.15.54l-.21-.18c.08.62.22,1.23.4,1.83.13.43.29.86.47,1.27l.19-.31c-1.21.02-2.39.33-3.46.9Z"/>
  <rect class="cls-26" x="573.04" y="307.46" width="44.04" height="29.49" transform="translate(267.36 914.25) rotate(-89.47)"/>
  <path class="cls-9" d="M604.9,342.14v.12l-20.1-.18c.01-1.26-.94-2.33-2.2-2.45h-.31l.3-33.88c1.55,0,2.85-1.17,3-2.71v-.25l19.66.18c-.01,1.27.95,2.33,2.21,2.45h.21l-.31,34.49c-1.28-.01-2.35.96-2.46,2.23Z"/>
  <path class="cls-35" d="M599.29,342.33l-4.5,8.25c-.06.1-.03.24.08.3.06.03.12.04.18.02l3-1c.11-.04.23.02.28.13h0l.7,3c.02.11.13.19.25.16,0,0,0,0,.01,0,.06-.02.12-.06.15-.12l4.35-8.94-4.5-1.8Z"/>
  <path class="cls-35" d="M604,344.21l.9,9.37c.02.12.12.2.24.19.06,0,.12-.03.15-.08l1.9-2.49c.09-.08.22-.08.31,0h0l2.25,2.09c.09.08.22.08.31,0,.04-.05.06-.12.05-.18l-1.43-9.84-4.68.94Z"/>
  <polygon class="cls-24" points="605.71 327.74 607.01 326.96 607.85 328.22 609.3 327.79 609.81 329.21 611.32 329.16 611.46 330.67 612.93 330.99 612.69 332.48 614.04 333.16 613.43 334.55 614.58 335.54 613.64 336.73 614.5 337.98 613.3 338.9 613.82 340.32 612.43 340.92 612.58 342.42 611.08 342.65 610.85 344.15 609.35 344 608.75 345.39 607.33 344.87 606.41 346.07 605.16 345.21 603.97 346.15 602.98 345 601.59 345.62 600.91 344.26 599.42 344.51 599.1 343.03 597.59 342.89 597.65 341.38 596.22 340.88 596.65 339.43 595.39 338.58 596.17 337.29 595.16 336.15 596.24 335.09 595.54 333.75 596.85 332.98 596.51 331.51 597.97 331.09 598.01 329.58 599.52 329.54 599.93 328.08 601.41 328.42 602.17 327.12 603.51 327.81 604.58 326.73 605.71 327.74"/>
  <circle class="cls-22" cx="604.88" cy="336.5" r="6.86"/>
  <path class="cls-24" d="M606.53,335l1.8.44c.2.05.32.25.27.45,0,0,0,0,0,0-.02.08-.06.15-.13.2l-1.47,1.18c-.1.08-.15.2-.14.32l.14,1.85c.01.2-.14.38-.34.4-.08,0-.15-.02-.22-.06l-1.56-1c-.11-.06-.23-.06-.34,0l-1.74.7c-.08.03-.16.03-.24,0-.19-.05-.3-.25-.25-.44,0,0,0,0,0,0l.48-1.8c.03-.11,0-.24-.07-.33l-1.2-1.42h0c-.14-.14-.14-.38,0-.52.06-.05.15-.09.23-.09l1.85-.09c.12,0,.23-.07.3-.17l1-1.58c.04-.07.1-.13.18-.16.19-.07.4.03.47.22l.66,1.74c.07.1.19.17.32.17Z"/>
  <path class="cls-28" d="M586.75,333.35c0-.11-.31-.2-.32-.12-.07.48-.11.96-.13,1.45,0,.28.19.52.46.57.3.07.62-.04.81-.28.16-.15.27-.34.42-.49s.38-.45.53-.44l-.18-.08c.09.1.09.34.11.47.02.15.04.3.08.45.05.24.2.45.41.57.06,0,.21.1.26,0,.26-.41.58-.78.94-1.1.15-.14.31-.27.49-.38.08-.06.17-.1.27-.12.25,0,.22.13.26.29.07.27.29.48.56.53.35.05.7-.03,1-.22.07,0-.21-.2-.3-.15-.25.13-.81.44-1,0-.06-.17,0-.33-.15-.47-.18-.17-.45-.24-.69-.16-.37.13-.69.35-.95.64-.31.3-.59.63-.82,1h.26c-.43-.25-.32-.86-.46-1.26-.03-.13-.14-.23-.27-.26-.18,0-.29.07-.43.18-.19.16-.36.34-.52.54-.15.19-.35.49-.62.51s-.21-.62-.19-.84l.09-.9.08.07Z"/>
  <line class="cls-5" x1="600.41" y1="310.88" x2="590.37" y2="310.65"/>
  <line class="cls-7" x1="603.52" y1="315.26" x2="585.75" y2="315.09"/>
  <line class="cls-7" x1="593.81" y1="336.46" x2="585.55" y2="336.28"/>
  <line class="cls-7" x1="604.78" y1="318.24" x2="585.67" y2="317.94"/>
  <line class="cls-7" x1="604.68" y1="321.16" x2="585.56" y2="320.86"/>
  <path class="cls-32" d="M540.85,314.6l4.15,5.06,4.87-4.12.64,1.66s-4.59,4.4-5.66,4.07-5-5.37-5-5.37l1-1.3Z"/>
  <path class="cls-22" d="M533.76,306.62c.86,2.38,2.02,4.65,3.44,6.75l2.4,3.3s1.3-3,3.17-3.68c.71-.25,2,1.4,2,1.4l-3.77-5.11c-.7-.96-1.3-2-1.78-3.09-.7-1.61-.93-3.38-.67-5.12h0l-1.12.21c-1.07.52-2.06,1.19-2.94,2l-1.26,1.2.53,2.14Z"/>
  <path class="cls-20" d="M605.62,316.24c-.43-.64-.52-1.44-.24-2.16l1.36.26c-.73-.62-.46-2-.46-2l1.51.19h0c-.54-.34-.7-1.06-.37-1.6l.08-.1,1.17.27c-.75-.7.41-1.62.41-1.62,0,0,1.7,1.1,3.29,2.18-.23.48-.5.94-.81,1.38-.48.8-.91,1.62-1.3,2.47-.39.84.65,4.06.12,4.82,0,0-.77-1.48-.79-1.45l-.77-1.16s-2.48-.49-3.2-1.48Z"/>
  <path class="cls-23" d="M605.44,314.13c.36.2.76.32,1.17.37.96.15,1.9.36,2.83.64.5.16.96.41,1.38.72.35.26.68.55,1,.85.28.3.62.53,1,.68,0,0-.34-.3-.86-.85-.32-.33-.65-.63-1-.92-.44-.35-.93-.62-1.46-.8-.95-.28-1.92-.46-2.9-.56-.38-.07-.77-.11-1.16-.13Z"/>
  <path class="cls-23" d="M613.27,315.33c-.24-.29-.51-.54-.82-.76l-1-.79c-.19-.17-.39-.32-.61-.44-.24-.13-.49-.23-.75-.31-.89-.26-1.8-.45-2.72-.55-.37-.08-.76-.11-1.14-.1.35.17.72.28,1.1.33.69.16,1.66.32,2.66.64.24.07.47.17.7.28.21.11.4.24.58.39l1,.73c.3.24.64.44,1,.58Z"/>
  <path class="cls-23" d="M614,313.92c-.24-.28-.51-.52-.82-.71l-.93-.69-.57-.41-.29-.21-.16-.11-.19-.1c-.83-.28-1.67-.51-2.52-.69-.35-.11-.71-.16-1.07-.15.32.17.65.29,1,.37.65.21,1.53.44,2.45.78l.14.07.16.1.29.21.58.39,1,.64c.28.21.6.38.93.51Z"/>
  <path class="cls-30" d="M565.7,364.14c.16-1.11.37-2.63.62-4.47.49-3.77,1.15-9,1.84-14.73s1.29-11,1.71-14.76c.19-1.84.35-3.36.42-4.48,0-.49.07-.87.11-1.23.01-.14.01-.28,0-.42-.06.13-.09.27-.1.41-.05.33-.12.73-.19,1.21-.15,1.13-.35,2.63-.6,4.47-.49,3.78-1.14,9-1.83,14.74-.73,6.08-1.27,11-1.71,14.76-.19,1.84-.36,3.36-.47,4.48l-.11,1.22"/>
  <path class="cls-36" d="M541.72,292.16s.27,4.33,5.42,4.82,6.22-3.73,6.22-3.73c0,0-3.62-.08-5.84-.29s-5.8-.8-5.8-.8Z"/>
  <path class="cls-33" d="M542.24,292.31s1,2.36,5.15,2.75c3.81.36,5.43-1.78,5.43-1.78,0,0-4.27-.22-5.32-.32l-5.26-.65Z"/>
  <path class="cls-37" d="M543.21,292.56s.91,1.19,4.07,1.49,4.43-.72,4.43-.72c0,0-3.22-.13-4.27-.23l-4.23-.54Z"/>
  <path class="cls-36" d="M547.47,293.54c5.91.56,6.32-.53,6.17-.58-.42.03-.85.03-1.27,0-.86-.16-1.9-.48-2.53-.58-.76-.05-1.52-.01-2.27.12-.71-.27-1.45-.45-2.21-.55-.64,0-1.72.11-2.6.1-.42-.05-.83-.13-1.24-.24-.16.03.04,1.19,5.95,1.73Z"/>
  <path class="cls-22" d="M558.42,309.26c-1.29,2.19-2.85,4.2-4.64,6l-3,2.79s-.7-3.22-2.42-4.2c-.65-.38-2.25,1-2.25,1l4.64-4.31c.87-.81,1.66-1.72,2.33-2.71.98-1.46,1.54-3.16,1.62-4.91h0l1.06.42c.95.72,1.79,1.56,2.5,2.52l1,1.42-.84,1.98Z"/>
  <path class="cls-6" d="M550.81,318s-.7-3.23-2.42-4.21c-.66-.38-2.26,1-2.26,1"/>
  <path class="cls-6" d="M539.62,316.5s1.29-3,3.16-3.68c.71-.25,2,1.4,2,1.4"/>
  <path class="cls-31" d="M523.32,307.1s-9.71.81-13.31,12-5.9,47.26-5.9,47.26l11.74,1.31,7.47-60.57Z"/>
  <path class="cls-30" d="M514,366.72c.11-1.12.26-2.64.43-4.49.32-3.79.76-9,1.2-14.8s.8-11.06,1.06-14.82c.11-1.85.21-3.37.23-4.49v-1.23c.01-.14.01-.29,0-.43-.05.14-.07.28-.08.42,0,.33-.08.73-.14,1.21-.09,1.14-.23,2.64-.4,4.5-.32,3.79-.75,9-1.19,14.8-.46,6.11-.79,11-1.06,14.82-.12,1.85-.22,3.38-.28,4.5l-.06,1.22"/>
  <g>
    <path class="cls-18" d="M101.54,345.08s-10.54,22.12-40.02,22.72c-18.3.37-53.43,6.1-55.23,19.92l13.52,38c14.56-6.74,30.42-10.24,46.46-10.25,24.29.66,54.25-22.77,54.25-22.77l-18.98-47.61Z"/>
    <path class="cls-27" d="M63.64,404.15c-7.71.7-14.53-4.97-15.23-12.68,0,0,0-.02,0-.03-.05-.67-.05-1.34,0-2,.73-7.25,10.54-12.22,17.73-11.61,7.26.69,12.59,7.13,11.91,14.39-.69,7.29-7.15,11.32-14.41,11.93Z"/>
    <path class="cls-18" d="M63.7,402.22c-6.46.59-12.17-4.17-12.76-10.62,0,0,0-.01,0-.02-.04-.56-.04-1.12,0-1.68.61-6.08,8.83-10.24,14.85-9.72,6.08.58,10.55,5.97,9.98,12.06-.58,6.11-5.99,9.48-12.07,9.99Z"/>
    <path class="cls-27" d="M22.25,420.91l-12.2-34.66.21-.32c11.73-13.13,38.26-14.29,55.77-15.04,3-.18,5.83-.28,8.29-.36,16.38-1.15,25.56-16.19,25.46-17.67l1.22-.32,13.79,37.14-.2.32c-15.05,14.85-35.67,22.66-56.78,21.53-14.32-1.07-34.71,8.9-34.99,9.07l-.57.31ZM11.53,386.54l11.46,32.62c3.69-1.78,21.67-9.9,35.01-8.92,20.6,1.08,40.72-6.48,55.5-20.88l-12.85-34.76c-.55,1.07-1.18,2.1-1.9,3.07-2.26,3.08-10.73,13.19-24.2,14.1-2.47.19-5.34.29-8.31.35-17.32.83-43.24,1.95-54.73,14.42Z"/>
    <path class="cls-27" d="M89.35,390.45c5.01-2.05,9.8-4.64,14.29-7.74-.18-.38-.35-.76-.53-1.13-4.47,3.09-9.24,5.67-14.22,7.7.15.39.3.78.46,1.17Z"/>
    <path class="cls-27" d="M86.55,381.79c5.09-2.07,9.97-4.69,14.53-7.84-.18-.38-.35-.76-.53-1.13-4.53,3.13-9.36,5.74-14.42,7.79.13.4.27.8.41,1.19Z"/>
    <path class="cls-27" d="M22.09,391.87c4.47-2.59,9.86-4.32,15.6-5.49-.04-.44-.07-.89-.08-1.33-5.7,1.15-11.09,2.83-15.65,5.36.03.47.06.95.12,1.42,0,.02,0,.03,0,.05Z"/>
    <path class="cls-27" d="M25.47,402.25c4.47-2.59,9.86-4.32,15.6-5.49-.04-.44-.07-.89-.08-1.33-5.7,1.15-11.09,2.83-15.65,5.36.03.47.06.95.12,1.42,0,.02,0,.03,0,.05Z"/>
    <ellipse class="cls-27" cx="31.08" cy="393.02" rx="3" ry="2.37" transform="translate(-97.92 20.47) rotate(-14.58)"/>
    <ellipse class="cls-27" cx="94.47" cy="381.79" rx="3" ry="2.37" transform="translate(-140.51 66.4) rotate(-22.79)"/>
    <path class="cls-27" d="M29.17,416.47s-2.95-5.83-9.46-2.77l3.11,6.91,6.35-4.14Z"/>
    <path class="cls-27" d="M13.56,392.32s5.18-3.19,2.67-9.93l-5.4,3.75,2.73,6.17Z"/>
    <path class="cls-27" d="M95.92,359.91s1.56,5.04,7.67,1.24l-3.24-7.18-4.43,5.94Z"/>
    <path class="cls-27" d="M111.6,382.94s-5.31,4.58-2.04,10.97l4.93-4.36-2.89-6.62Z"/>
  </g>
  <path class="cls-34" d="M125.04,466.54c4.79-.74,9.68-.54,14.37.69,2.28.6,4.52,1.4,6.64,2.44,1.07.53,2.12,1.11,3.14,1.74.88.55,2.09,1.28,1.98,2.46-.14,1.42,2.81.99,2.93-.25.24-2.52-2.62-3.88-4.48-4.89-2.44-1.33-5.02-2.39-7.69-3.16-5.38-1.54-11.07-1.91-16.59-1.05-.59.09-1.54.4-1.61,1.13-.06.68.76.97,1.32.88h0Z"/>
  <path class="cls-34" d="M512.37,466.44c-7.88-1.54-16.43,1.4-21.67,7.48-.46.53.39.8.77.81.68.03,1.47-.26,1.92-.78,4.22-4.91,10.84-7.22,17.19-5.98.66.13,1.55-.08,2.05-.55.43-.41.35-.86-.26-.98h0Z"/>
</svg>