<?xml version="1.0" encoding="UTF-8"?>
<svg xmlns="http://www.w3.org/2000/svg" viewBox="0 0 1334 1000">
  <defs>
    <style>
      .cls-1, .cls-2, .cls-3, .cls-4, .cls-5, .cls-6, .cls-7, .cls-8, .cls-9, .cls-10, .cls-11, .cls-12, .cls-13, .cls-14, .cls-15, .cls-16, .cls-17, .cls-18, .cls-19, .cls-20, .cls-21, .cls-22, .cls-23, .cls-24, .cls-25, .cls-26, .cls-27, .cls-28, .cls-29, .cls-30, .cls-31, .cls-32, .cls-33, .cls-34, .cls-35, .cls-36, .cls-37, .cls-38, .cls-39, .cls-40 {
        stroke-width: 0px;
      }

      .cls-1, .cls-5 {
        fill: #898989;
      }

      .cls-2 {
        fill: #ddad6f;
      }

      .cls-3 {
        fill: #f68e46;
      }

      .cls-4 {
        fill: #87654d;
      }

      .cls-5, .cls-9 {
        fill-rule: evenodd;
      }

      .cls-6 {
        fill: #94664a;
      }

      .cls-7 {
        fill: #825639;
      }

      .cls-8 {
        fill: #0c0908;
      }

      .cls-41 {
        fill: #008dce;
        stroke: #231f20;
        stroke-width: .11px;
      }

      .cls-41, .cls-42, .cls-43, .cls-44, .cls-45, .cls-46 {
        stroke-miterlimit: 10;
      }

      .cls-9, .cls-10 {
        fill: #7f7f7f;
      }

      .cls-11 {
        fill: #f2ebd1;
      }

      .cls-12 {
        fill: #f9da03;
      }

      .cls-13 {
        fill: #11394c;
      }

      .cls-14 {
        fill: #4f2e25;
      }

      .cls-15 {
        fill: #aacad4;
      }

      .cls-16 {
        fill: #131429;
      }

      .cls-17 {
        fill: #666766;
      }

      .cls-42 {
        stroke: #7e9392;
        stroke-width: .9px;
      }

      .cls-42, .cls-43, .cls-44 {
        fill: none;
      }

      .cls-18 {
        fill: #151210;
      }

      .cls-43 {
        stroke: #0a2f44;
        stroke-width: 1.05px;
      }

      .cls-19 {
        fill: #4c4c4b;
      }

      .cls-20 {
        fill: #804840;
      }

      .cls-21 {
        fill: #1d170f;
      }

      .cls-22 {
        fill: #848280;
      }

      .cls-23 {
        fill: #231f20;
      }

      .cls-24 {
        fill: #80483f;
      }

      .cls-25 {
        fill: #13110f;
      }

      .cls-26, .cls-46 {
        fill: #2a1d13;
      }

      .cls-27 {
        fill: #513835;
      }

      .cls-28 {
        fill: #97cbe2;
      }

      .cls-29 {
        fill: #0a2f44;
      }

      .cls-30 {
        fill: #dbb28e;
      }

      .cls-31 {
        fill: #e8b48f;
      }

      .cls-32 {
        fill: #1a1715;
      }

      .cls-33 {
        fill: #6a7a80;
      }

      .cls-44 {
        stroke: #804840;
        stroke-width: 1.12px;
      }

      .cls-45 {
        stroke: #a5a4a4;
        stroke-width: 2.11px;
      }

      .cls-45, .cls-36 {
        fill: #fff;
      }

      .cls-34 {
        fill: #060505;
      }

      .cls-35 {
        fill: #b7ac8a;
      }

      .cls-37 {
        fill: #a38166;
      }

      .cls-38 {
        fill: #745245;
      }

      .cls-39 {
        fill: #a51e22;
      }

      .cls-46 {
        stroke: #2a1d13;
        stroke-width: 1.14px;
      }

      .cls-40 {
        fill: #f1eef7;
      }
    </style>
  </defs>
  <g id="background_1" data-name="background 1">
    <polyline class="cls-11" points="1460.42 1036 1460.42 -151.26 -110.85 -151.26 -110.85 1036"/>
    <g>
      <rect class="cls-45" x="-46.05" y="681.56" width="66.04" height="65.83"/>
      <rect class="cls-45" x="22.7" y="681.6" width="66.04" height="65.83"/>
      <rect class="cls-45" x="-46.05" y="612.74" width="66.04" height="65.83"/>
      <rect class="cls-45" x="22.7" y="612.78" width="66.04" height="65.83"/>
      <rect class="cls-45" x="-46.05" y="543.88" width="66.04" height="65.83"/>
      <rect class="cls-45" x="22.7" y="543.92" width="66.04" height="65.83"/>
      <rect class="cls-45" x="92.13" y="681.58" width="66.04" height="65.83"/>
      <rect class="cls-45" x="160.87" y="681.62" width="66.04" height="65.83"/>
      <rect class="cls-45" x="92.13" y="612.76" width="66.04" height="65.83"/>
      <rect class="cls-45" x="160.87" y="612.8" width="66.04" height="65.83"/>
      <rect class="cls-45" x="92.13" y="543.9" width="66.04" height="65.83"/>
      <rect class="cls-45" x="160.87" y="543.94" width="66.04" height="65.83"/>
      <rect class="cls-45" x="229.56" y="681.62" width="66.04" height="65.83"/>
      <rect class="cls-45" x="298.31" y="681.66" width="66.04" height="65.83"/>
      <rect class="cls-45" x="229.56" y="612.8" width="66.04" height="65.83"/>
      <rect class="cls-45" x="298.31" y="612.84" width="66.04" height="65.83"/>
      <rect class="cls-45" x="229.56" y="543.94" width="66.04" height="65.83"/>
      <rect class="cls-45" x="298.31" y="543.98" width="66.04" height="65.83"/>
      <line class="cls-45" x1="367.61" y1="747.51" x2="367.61" y2="681.68"/>
      <line class="cls-45" x1="367.61" y1="678.69" x2="367.61" y2="612.87"/>
      <line class="cls-45" x1="367.61" y1="609.83" x2="367.61" y2="544.01"/>
      <rect class="cls-45" x="-45.99" y="889.06" width="66.04" height="65.83"/>
      <rect class="cls-45" x="22.76" y="889.1" width="66.04" height="65.83"/>
      <rect class="cls-45" x="-45.99" y="820.24" width="66.04" height="65.83"/>
      <rect class="cls-45" x="22.76" y="820.28" width="66.04" height="65.83"/>
      <rect class="cls-45" x="-45.99" y="751.39" width="66.04" height="65.83"/>
      <rect class="cls-45" x="22.76" y="751.43" width="66.04" height="65.83"/>
      <rect class="cls-45" x="92.19" y="889.08" width="66.04" height="65.83"/>
      <rect class="cls-45" x="160.94" y="889.12" width="66.04" height="65.83"/>
      <rect class="cls-45" x="92.19" y="820.26" width="66.04" height="65.83"/>
      <rect class="cls-45" x="160.94" y="820.3" width="66.04" height="65.83"/>
      <rect class="cls-45" x="92.19" y="751.41" width="66.04" height="65.83"/>
      <rect class="cls-45" x="160.94" y="751.45" width="66.04" height="65.83"/>
      <rect class="cls-45" x="229.62" y="889.12" width="66.04" height="65.83"/>
      <rect class="cls-45" x="298.37" y="889.16" width="66.04" height="65.83"/>
      <rect class="cls-45" x="229.62" y="820.3" width="66.04" height="65.83"/>
      <rect class="cls-45" x="298.37" y="820.35" width="66.04" height="65.83"/>
      <rect class="cls-45" x="229.62" y="751.45" width="66.04" height="65.83"/>
      <rect class="cls-45" x="298.37" y="751.49" width="66.04" height="65.83"/>
      <line class="cls-45" x1="367.67" y1="955.01" x2="367.67" y2="889.19"/>
      <line class="cls-45" x1="367.67" y1="886.2" x2="367.67" y2="820.37"/>
      <line class="cls-45" x1="367.67" y1="817.34" x2="367.67" y2="751.51"/>
    </g>
    <g>
      <rect class="cls-45" x="952.52" y="680.83" width="66.04" height="65.83"/>
      <rect class="cls-45" x="952.52" y="612.02" width="66.04" height="65.83"/>
      <rect class="cls-45" x="952.52" y="543.16" width="66.04" height="65.83"/>
      <rect class="cls-45" x="1021.2" y="680.83" width="66.04" height="65.83"/>
      <rect class="cls-45" x="1089.95" y="680.87" width="66.04" height="65.83"/>
      <rect class="cls-45" x="1021.2" y="612.02" width="66.04" height="65.83"/>
      <rect class="cls-45" x="1089.95" y="612.06" width="66.04" height="65.83"/>
      <rect class="cls-45" x="1021.2" y="543.16" width="66.04" height="65.83"/>
      <rect class="cls-45" x="1089.95" y="543.2" width="66.04" height="65.83"/>
      <rect class="cls-45" x="1159.38" y="680.85" width="66.04" height="65.83"/>
      <rect class="cls-45" x="1228.13" y="680.89" width="66.04" height="65.83"/>
      <rect class="cls-45" x="1159.38" y="612.04" width="66.04" height="65.83"/>
      <rect class="cls-45" x="1228.13" y="612.08" width="66.04" height="65.83"/>
      <rect class="cls-45" x="1159.38" y="543.18" width="66.04" height="65.83"/>
      <rect class="cls-45" x="1228.13" y="543.22" width="66.04" height="65.83"/>
      <rect class="cls-45" x="1296.81" y="680.89" width="66.04" height="65.83"/>
      <rect class="cls-45" x="1296.81" y="612.08" width="66.04" height="65.83"/>
      <rect class="cls-45" x="1296.81" y="543.22" width="66.04" height="65.83"/>
      <rect class="cls-45" x="952.58" y="888.34" width="66.04" height="65.83"/>
      <rect class="cls-45" x="952.58" y="819.52" width="66.04" height="65.83"/>
      <rect class="cls-45" x="952.58" y="750.66" width="66.04" height="65.83"/>
      <rect class="cls-45" x="1021.26" y="888.34" width="66.04" height="65.83"/>
      <rect class="cls-45" x="1090.01" y="888.38" width="66.04" height="65.83"/>
      <rect class="cls-45" x="1021.26" y="819.52" width="66.04" height="65.83"/>
      <rect class="cls-45" x="1090.01" y="819.56" width="66.04" height="65.83"/>
      <rect class="cls-45" x="1021.26" y="750.66" width="66.04" height="65.83"/>
      <rect class="cls-45" x="1090.01" y="750.7" width="66.04" height="65.83"/>
      <rect class="cls-45" x="1159.44" y="888.36" width="66.04" height="65.83"/>
      <rect class="cls-45" x="1228.19" y="888.4" width="66.04" height="65.83"/>
      <rect class="cls-45" x="1159.44" y="819.54" width="66.04" height="65.83"/>
      <rect class="cls-45" x="1228.19" y="819.58" width="66.04" height="65.83"/>
      <rect class="cls-45" x="1159.44" y="750.68" width="66.04" height="65.83"/>
      <rect class="cls-45" x="1228.19" y="750.72" width="66.04" height="65.83"/>
      <rect class="cls-45" x="1296.87" y="888.4" width="66.04" height="65.83"/>
      <rect class="cls-45" x="1296.87" y="819.58" width="66.04" height="65.83"/>
      <rect class="cls-45" x="1296.87" y="750.72" width="66.04" height="65.83"/>
    </g>
    <g>
      <rect class="cls-45" x="848.99" y="680.75" width="66.04" height="65.83"/>
      <rect class="cls-45" x="848.99" y="611.93" width="66.04" height="65.83"/>
      <rect class="cls-45" x="848.99" y="543.07" width="66.04" height="65.83"/>
      <rect class="cls-45" x="917.67" y="680.75" width="66.04" height="65.83"/>
      <rect class="cls-45" x="917.67" y="611.93" width="66.04" height="65.83"/>
      <rect class="cls-45" x="917.67" y="543.07" width="66.04" height="65.83"/>
      <rect class="cls-45" x="849.05" y="888.25" width="66.04" height="65.83"/>
      <rect class="cls-45" x="849.05" y="819.43" width="66.04" height="65.83"/>
      <rect class="cls-45" x="849.05" y="750.58" width="66.04" height="65.83"/>
      <rect class="cls-45" x="917.73" y="888.25" width="66.04" height="65.83"/>
      <rect class="cls-45" x="917.73" y="819.43" width="66.04" height="65.83"/>
      <rect class="cls-45" x="917.73" y="750.58" width="66.04" height="65.83"/>
    </g>
    <polyline class="cls-17" points="-110.85 1069.42 1407.52 1069.42 1407.52 955.21 -110.85 955.21"/>
    <g>
      <rect class="cls-45" x="367.56" y="681.65" width="66.04" height="65.83"/>
      <rect class="cls-45" x="367.56" y="612.84" width="66.04" height="65.83"/>
      <rect class="cls-45" x="367.56" y="543.98" width="66.04" height="65.83"/>
      <rect class="cls-45" x="436.24" y="681.65" width="66.04" height="65.83"/>
      <rect class="cls-45" x="504.99" y="681.69" width="66.04" height="65.83"/>
      <rect class="cls-45" x="436.24" y="612.84" width="66.04" height="65.83"/>
      <rect class="cls-45" x="504.99" y="612.88" width="66.04" height="65.83"/>
      <rect class="cls-45" x="436.24" y="543.98" width="66.04" height="65.83"/>
      <rect class="cls-45" x="504.99" y="544.02" width="66.04" height="65.83"/>
      <rect class="cls-45" x="574.42" y="681.67" width="66.04" height="65.83"/>
      <rect class="cls-45" x="643.17" y="681.71" width="66.04" height="65.83"/>
      <rect class="cls-45" x="574.42" y="612.86" width="66.04" height="65.83"/>
      <rect class="cls-45" x="643.17" y="612.9" width="66.04" height="65.83"/>
      <rect class="cls-45" x="574.42" y="544" width="66.04" height="65.83"/>
      <rect class="cls-45" x="643.17" y="544.04" width="66.04" height="65.83"/>
      <rect class="cls-45" x="711.85" y="681.71" width="66.04" height="65.83"/>
      <rect class="cls-45" x="780.6" y="681.75" width="66.04" height="65.83"/>
      <rect class="cls-45" x="711.85" y="612.9" width="66.04" height="65.83"/>
      <rect class="cls-45" x="780.6" y="612.94" width="66.04" height="65.83"/>
      <rect class="cls-45" x="711.85" y="544.04" width="66.04" height="65.83"/>
      <rect class="cls-45" x="780.6" y="544.08" width="66.04" height="65.83"/>
      <line class="cls-45" x1="849.91" y1="747.6" x2="849.91" y2="681.78"/>
      <line class="cls-45" x1="849.91" y1="678.79" x2="849.91" y2="612.96"/>
      <line class="cls-45" x1="849.91" y1="609.93" x2="849.91" y2="544.11"/>
      <rect class="cls-45" x="367.62" y="889.16" width="66.04" height="65.83"/>
      <rect class="cls-45" x="367.62" y="820.34" width="66.04" height="65.83"/>
      <rect class="cls-45" x="367.62" y="751.48" width="66.04" height="65.83"/>
      <rect class="cls-45" x="436.31" y="889.16" width="66.04" height="65.83"/>
      <rect class="cls-45" x="505.05" y="889.2" width="66.04" height="65.83"/>
      <rect class="cls-45" x="436.31" y="820.34" width="66.04" height="65.83"/>
      <rect class="cls-45" x="505.05" y="820.38" width="66.04" height="65.83"/>
      <rect class="cls-45" x="436.31" y="751.48" width="66.04" height="65.83"/>
      <rect class="cls-45" x="505.05" y="751.52" width="66.04" height="65.83"/>
      <rect class="cls-45" x="574.48" y="889.18" width="66.04" height="65.83"/>
      <rect class="cls-45" x="643.23" y="889.22" width="66.04" height="65.83"/>
      <rect class="cls-45" x="574.48" y="820.36" width="66.04" height="65.83"/>
      <rect class="cls-45" x="643.23" y="820.4" width="66.04" height="65.83"/>
      <rect class="cls-45" x="574.48" y="751.5" width="66.04" height="65.83"/>
      <rect class="cls-45" x="643.23" y="751.54" width="66.04" height="65.83"/>
      <rect class="cls-45" x="711.92" y="889.22" width="66.04" height="65.83"/>
      <rect class="cls-45" x="780.66" y="889.26" width="66.04" height="65.83"/>
      <rect class="cls-45" x="711.92" y="820.4" width="66.04" height="65.83"/>
      <rect class="cls-45" x="780.66" y="820.44" width="66.04" height="65.83"/>
      <rect class="cls-45" x="711.92" y="751.54" width="66.04" height="65.83"/>
      <rect class="cls-45" x="780.66" y="751.59" width="66.04" height="65.83"/>
      <line class="cls-45" x1="849.97" y1="955.11" x2="849.97" y2="889.28"/>
      <line class="cls-45" x1="849.97" y1="886.29" x2="849.97" y2="820.47"/>
      <line class="cls-45" x1="849.97" y1="817.44" x2="849.97" y2="751.61"/>
    </g>
    <path class="cls-5" d="M561.14,593.33h-16.15v-127.78c-3.92-5.94-13.32-3.8-11.35,7.03l-.25,5.41h-14.79v-14.07c0-24.06,42.54-26.85,42.54-.74v130.15Z"/>
    <rect class="cls-1" x="545.97" y="419.95" width="15.33" height="115.78"/>
    <g>
      <g>
        <path class="cls-36" d="M508.54,622.92h70.85l23.96,333.36-14.93,4.37c-27.42,8.03-56.53,8.35-84.13.93l-19.72-5.3,23.96-333.36Z"/>
        <path class="cls-23" d="M508.44,623.8h70.85l-1.08-.56c.21,2.99.43,5.97.64,8.96.58,8.06,1.16,16.11,1.74,24.17l2.59,35.98,3.15,43.75c1.15,15.97,2.3,31.94,3.44,47.92,1.16,16.12,2.32,32.24,3.48,48.37,1.08,15.03,2.16,30.07,3.24,45.1.92,12.75,1.83,25.49,2.75,38.24.65,9.1,1.31,18.21,1.96,27.31.21,2.85.41,5.71.62,8.56.11,1.47.08,3.01.32,4.46.03.18.03.37.04.55l.96-1.14c-4.58,1.34-9.15,2.68-13.73,4.02-9.58,2.8-19.33,4.82-29.27,5.81-12,1.19-24.12.97-36.07-.67-7.89-1.08-15.58-2.9-23.26-4.96-5.18-1.39-10.36-2.79-15.54-4.18l.52.72c.21-2.99.43-5.97.64-8.96.58-8.06,1.16-16.11,1.74-24.17.86-11.99,1.72-23.98,2.59-35.98,1.05-14.58,2.1-29.17,3.14-43.75,1.15-15.97,2.3-31.94,3.44-47.92,1.16-16.12,2.32-32.24,3.48-48.37,1.08-15.03,2.16-30.07,3.24-45.1.92-12.75,1.83-25.49,2.75-38.24.65-9.1,1.31-18.21,1.96-27.31.31-4.34.7-8.68.94-13.03,0-.18.03-.37.04-.55.09-1.24-2.32-.91-2.4.17-.21,2.99-.43,5.97-.64,8.96-.58,8.06-1.16,16.11-1.74,24.17-.86,11.99-1.72,23.98-2.59,35.98-1.05,14.58-2.1,29.17-3.14,43.75-1.15,15.97-2.3,31.94-3.44,47.92-1.16,16.12-2.32,32.24-3.48,48.37-1.08,15.03-2.16,30.07-3.24,45.1-.92,12.75-1.83,25.49-2.75,38.24-.65,9.1-1.31,18.21-1.96,27.31-.31,4.34-.7,8.68-.94,13.03,0,.18-.03.37-.04.55-.02.33.2.63.52.72,11.56,3.11,23.12,6.65,34.95,8.61,23.26,3.85,47.28,2.35,69.91-4.25,4.94-1.44,9.87-2.89,14.81-4.34.55-.16,1.01-.53.96-1.14-.21-2.99-.43-5.97-.64-8.96-.58-8.06-1.16-16.11-1.74-24.17-.86-11.99-1.72-23.98-2.59-35.98-1.05-14.58-2.1-29.17-3.15-43.75-1.15-15.97-2.3-31.94-3.44-47.92-1.16-16.12-2.32-32.24-3.48-48.37-1.08-15.03-2.16-30.07-3.24-45.1-.92-12.75-1.83-25.49-2.75-38.24-.65-9.1-1.31-18.21-1.96-27.31-.31-4.32-.42-8.72-.94-13.03-.02-.18-.03-.37-.04-.55-.03-.47-.75-.56-1.08-.56h-70.85c-1.36,0-1.81,1.76-.2,1.76Z"/>
      </g>
      <g>
        <path class="cls-36" d="M717.42,549.4c-12.96,57.57-85.69,101.67-173.45,101.67s-160.49-44.1-173.45-101.67h346.9Z"/>
        <path class="cls-23" d="M716.23,549.53c-5.41,23.8-20.76,43.92-39.53,59-22.54,18.11-50.05,29.59-78.1,35.9-32.14,7.23-65.97,7.85-98.39,2.05-28.82-5.15-57.17-15.52-81.21-32.46-19.98-14.08-37.3-33.32-45.05-56.85-.88-2.66-1.62-5.36-2.24-8.09l-1.63,1.05h71.89c15.19,0,30.38,0,45.57,0h49.74c16.85,0,33.7,0,50.55,0h86.51c9.51,0,19.03,0,28.54,0,4.5,0,8.99.02,13.49,0,.2,0,.39,0,.59,0,.97,0,2.48-1.47.89-1.47h-71.89c-15.19,0-30.38,0-45.57,0h-186.81c-9.51,0-19.03,0-28.54,0-4.5,0-8.99-.02-13.49,0-.2,0-.39,0-.59,0-.5,0-1.8.28-1.63,1.05,5.53,24.29,21.31,44.82,40.55,60.1,22.91,18.19,50.68,29.77,79.09,36.09,32.38,7.2,66.41,7.84,99.06,2.04,29.37-5.22,58.31-15.74,82.78-33.04,20.16-14.25,37.61-33.61,45.49-57.37.9-2.72,1.66-5.48,2.3-8.27.22-.97-2.18-.63-2.38.26Z"/>
      </g>
      <g>
        <path class="cls-36" d="M369.14,516.04h349.66c7.04,0,12.81,5.77,12.81,12.8v14.6c0,7.04-5.77,12.8-12.81,12.8h-349.66c-7.04,0-12.8-5.76-12.8-12.8v-14.6c0-7.04,5.76-12.8,12.8-12.8Z"/>
        <path class="cls-23" d="M368.69,516.75h293.33c11.87,0,23.74,0,35.6,0h18.97c3.77,0,7.32.69,10.15,3.52,3.47,3.47,3.67,7.71,3.67,12.27,0,3.64.05,7.28,0,10.92-.1,6.79-5.15,12.06-11.95,12.06h-31.46c-13.55,0-27.1,0-40.65,0h-160.38c-16.44,0-32.88,0-49.33,0h-62.53c-1.44,0-2.89.02-4.33,0-3.42-.04-6.59-1.35-8.94-3.87-3.29-3.55-3.33-7.76-3.33-12.24,0-3.53-.05-7.07,0-10.6.09-6.26,4.63-11.93,11.16-12.06.46,0,1.37-.14,1.56-.67.17-.48-.15-.78-.66-.77-5.92.12-11.49,3.47-13.61,9.15-1.34,3.57-.82,7.88-.82,11.62s-.5,7.74.51,11.22c1.68,5.78,7.11,9.54,13.03,9.65,3.83.07,7.67,0,11.5,0h75.18c17.76,0,35.52,0,53.28,0h192.43c5.52,0,11.04.01,16.57,0,6.36-.01,12.38-3.34,14.49-9.62,1.19-3.54.66-7.84.66-11.52s.51-7.84-.66-11.33c-2-5.98-7.65-9.17-13.71-9.17h-32.34c-13.92,0-27.85,0-41.77,0h-274.73c-.95,0-2.49,1.44-.9,1.44Z"/>
      </g>
    </g>
    <path class="cls-9" d="M577.76,414.47h0c-1.12-2.17-3.93-3.1-6.24-2.07l-39.85,17.79c-2.31,1.03-3.28,3.65-2.17,5.82h0c1.12,2.17,3.93,3.1,6.24,2.07l39.84-17.79c2.31-1.03,3.29-3.65,2.17-5.82Z"/>
    <path class="cls-9" d="M577.68,435.79h0c1.09-2.19.08-4.8-2.24-5.8l-40.07-17.29c-2.32-1-5.12-.04-6.21,2.15h0c-1.09,2.19-.08,4.8,2.24,5.8l40.07,17.29c2.33,1,5.12.04,6.21-2.15Z"/>
    <ellipse class="cls-19" cx="553.03" cy="424.21" rx="9.09" ry="7.28"/>
    <ellipse class="cls-10" cx="573.62" cy="435.16" rx="8.1" ry="6.49"/>
    <ellipse class="cls-10" cx="573.71" cy="415.91" rx="8.1" ry="6.49"/>
    <ellipse class="cls-10" cx="532.97" cy="435.36" rx="8.1" ry="6.49"/>
    <ellipse class="cls-10" cx="533.07" cy="416.11" rx="8.1" ry="6.49"/>
    <path class="cls-37" d="M419.94,880.58c5.89-.05,7.9,1.46,8.69,6.46,0,0,6.59,29.33,12.76,66.06,1.81,10.78,2.08,10.52,15.14,10.36,5.23-.07,5.83-1.62,5.17-5.54-12.45-74.19-8.01-56.85-14.92-97.95-.99-5.9.53-8.72,8.1-7.69,2.51.34,5.15.06,7.73.05,11.45-.03,13.7,4.41,13.71-5.76.01-11.06-2.08-16.45-13.39-16.46-25.44-.02-93.63,0-119.06,0h0c-21.19,0-42.38,0-63.57,0-11.31,0-13.41,5.4-13.39,16.46.01,10.16,2.26,5.73,13.71,5.76,2.58,0,5.21.29,7.73-.05,7.57-1.03,9.09,1.79,8.1,7.69-6.92,41.1-2.47,23.76-14.92,97.95-.66,3.92-.06,5.47,5.17,5.54,13.06.16,13.33.42,15.14-10.36,6.17-36.73,10.1-66.06,10.1-66.06.79-5,2.8-6.51,8.69-6.46M352.82,901.54"/>
    <rect class="cls-4" x="266.01" y="828.6" width="212.3" height="30.81" rx="12.05" ry="12.05"/>
    <path class="cls-30" d="M356.83,799.38c-.39-.78-.03-8.88.76-20.77h-30.14l3.31,22.36-.7,10.46s37.53,21.33,46.14,21.35c8.6.01,5.65-4.91,5.65-4.91,0,0-22.81-24.06-25.02-28.49Z"/>
    <path class="cls-31" d="M331.32,798.89c.14,4-1.37,9.59-2.57,17.93-.53,3.67-3.52,8.81-.03,11.67,6.17,5.06,13.81,3.51,16.66,4.39,5.99,1.84,10.83,2.06,16.56,4.4,5.81,2.37,7,2.94,13.46,3.7.89.1,1.84.12,2.64-.28.53-.27.96-.7,1.5-.96,1.89-.93,4.15.54,6.27.35.93-.09,1.8-.49,2.67-.81,2.32-.83,4.83-1.01,7.26-1.44,2.44-.43,4.93-1.17,6.68-2.85,1.75-1.68,2.51-4.53,1.15-6.56-2.06-3.06-4.95-1.47-7.9-1.89-2.94-.42-4.03-.99-6.59-2.4-6.53-3.61-7.53-4.33-13.04-7.17-4.28-2.21-16.83-9.22-22.79-14.05l.22-4.94"/>
    <g>
      <path class="cls-20" d="M379.46,840.2c1.06-.27,1.75-.98,1.92-2.06.14-.91-.15-1.75-.71-2.47-1.17-1.47-3.03-2.21-4.66-3.05-.28-.14-.71-.01-.98.09-.07.02-.69.31-.46.43,1.47.76,3.07,1.42,4.26,2.6.55.55.97,1.25,1.05,2.04.04.42-.02.85-.17,1.24-.07.19-.16.38-.29.54-.05.06-.11.11-.16.17-.12.13-.07.04.06,0-.14.04-.76.21-.7.44s.71.06.82.03h0Z"/>
      <path class="cls-20" d="M385.63,840.89c1,.03,1.86-.41,2.31-1.33.39-.8.43-1.75.36-2.63-.07-.92-.29-1.73-.86-2.47-.8-1.03-1.94-1.67-3.11-2.18-1.33-.58-2.67-1.62-4.17-1.66-.36-.01-.83.1-.99.47-.14.32.13.64.47.65.72.02,1.38.36,2,.68s1.24.64,1.88.92c1.15.51,2.38,1.24,2.94,2.42.34.72.37,1.66.3,2.44-.04.41-.11.83-.3,1.2-.07.14-.17.26-.23.31s-.04.04-.07.04c-.36-.01-.83.1-.99.47-.14.33.13.64.47.65h0Z"/>
      <path class="cls-20" d="M390.89,839.23c1.3-.44,2.04-1.73,2.15-3.05.1-1.19-.34-2.29-1.08-3.2-.78-.96-1.83-1.68-2.9-2.27s-2.38-1.18-3.62-1.52c-.33-.09-.83.06-1.08.29s-.17.41.13.49c1.06.29,2.15.8,3.12,1.32s1.87,1.12,2.61,1.91c.7.74,1.21,1.65,1.29,2.68.07.9-.24,2.45-1.22,2.78-.2.07-.61.32-.42.57s.78.07,1,0h0Z"/>
      <path class="cls-20" d="M395.58,838.57c1.19-.51,2.13-1.44,2.66-2.63.45-1.02.64-2.31.16-3.35-.89-1.92-3.18-3.01-5.02-3.82-.52-.23-1.05-.43-1.57-.66-.65-.29-1.31-.65-2.03-.65-.33,0-.83.1-1,.42s.15.47.42.47c.61,0,1.27.46,1.83.69.5.2,1,.42,1.49.64,1.12.51,2.25,1.1,3.19,1.91.91.79,1.52,1.73,1.41,2.98-.12,1.35-.85,2.8-2.15,3.35-.22.09-.61.36-.4.63s.77.13,1.01.03h0Z"/>
    </g>
    <path class="cls-31" d="M375.45,799.03c-.9,3.83-1.48,15.48-2.42,19.14-1.08,4.21.75,7.47,5.43,9.38,3.94,1.61,9.25,2.48,13.56,2.37,5.63-.15,11.66-1,17.29-1.15,4.83-.12,20.01-.99,24.73-.04,7.34,1.48,11.9.54,15.19-.52.91-.29,1.47-.23,1.91-.9,1.12-1.73,1.03-3.67-1.36-5.22-3.02-1.95-6.73.54-9.54-1.74-.5-.41-.96-.86-1.54-1.15-1.14-.58-2.52-.49-3.82-.51-6.49-.1-5.95-2.85-14.4-5.22-2.48-.7-17.1-14.71-19.39-15.83"/>
    <path class="cls-20" d="M432.29,819.75c1.2.2,2.4.69,3.53,1.15.61.25,1.22.51,1.8.82.31.17.8.38.99.7.23.37,1.09.01,1.35-.16,1-.64,2.24-.71,3.39-.49.35.07.75-.01,1.07-.18.12-.06.53-.38.17-.45-1.98-.38-4.1-.08-5.81,1.02l1.35-.16c-.22-.36-.63-.58-.99-.78-.63-.35-1.29-.64-1.95-.91-1.26-.52-2.57-1.02-3.92-1.24-.33-.06-.81.08-1.08.29-.24.19-.19.34.1.39h0Z"/>
    <path class="cls-20" d="M373.24,816.41c3.21,2.17,6.55,4.19,9.95,6.06,2.43,1.33,4.93,2.6,7.54,3.55,1.69.62,3.4,1.09,5.21.95,1.81-.14,6.16-.62,6.85,1.67.17.58,1.7.17,1.52-.41-.65-2.17-3.91-2.28-5.74-2.29-1.78-.01-3.33.26-5.07-.21-5.38-1.44-10.43-4.66-15.12-7.57-1.32-.82-2.64-1.66-3.93-2.53-.45-.31-1.85.35-1.2.78h0Z"/>
    <path class="cls-46" d="M359.69,301.31c6.62.67,35.75,7.24,31.01,35.44,0,0-28.12-30.76-52.07-17.01-23.95,13.75-25.94,53.18-25.94,53.18,0,0-13.41-8.65-8.66-33.99.54-2.9,1.83-5.59,3.63-7.84l1.69-2.1s.69-7.6,6.28-13.72c0,0,4.64-5.59,17.52-9.74,12.89-4.15,26.53-4.22,26.53-4.22Z"/>
    <path class="cls-29" d="M317.07,800.61s-1.14,3.13,10.16,4.22c6.3.61,20.58,1.16,26.89,1.15,6.24,0,6.36.39,12.47-1.02,1.94-.45,6.01-1.93,7.93-2.45l-.5-81.27,2.07-91.85,13.45-46.73-89.7-2.23-2.07,6.48c-1.74,12.99-1.65,26.18.26,39.15l15.43,58.16s3.75,109.93,3.61,116.39Z"/>
    <path class="cls-29" d="M387.1,799.82c8.21-.6,18.84-1.85,24.78-6.82l7.98-211.37-46.33-1.2-14.14,215.64c9.11.08,18.6,4.42,27.72,3.75Z"/>
    <path class="cls-42" d="M378.73,799.12l4.53-155.8c0-6.28,1.82-12.48,5.49-17.58,1.59-2.21,3.3-3.94,4.79-4.03"/>
    <path class="cls-31" d="M399.26,379.6c-.08-5.27-1.83-13.46-2.91-16.52-.23-2.42-.61-5.27-.97-8.65-.1-.98-.23-1.92-.36-2.85-.11-.47-.18-.95-.22-1.43-2.63-16.37-8.05-23.95-8.05-23.95-8.32-10.01-21.31-14.83-34.13-12.66-15.13,2.24-27.64,13.2-33.59,23.38-2.96,5.04-3.96,11.01-2.8,16.74.98,4.9,2.83,10.31,4.85,15.51-5.33.43-11.61,1.89-8.44,11.41,4.37,13.13,14.92,17.3,18.53,13.08.96.05,3.36,3.89,3.93,6.67,1.11,5.33,2.11,14.92.06,19.96l.34,1.52c13.78,16.98,21.86,26.78,59.58,10.91l-15.12-19.25-.52-3.1c2.94-.58,2.42-.12,5.02-1.57,11.81-4.71,14.9-22.97,14.81-29.19Z"/>
    <path class="cls-24" d="M379.36,410.39s-14.3,3-28.38-3.91c0,0,2.12,4.14,11.79,6.24,9.67,2.09,16.89.02,16.89.02l-.3-2.34Z"/>
    <g>
      <path class="cls-26" d="M333.65,333.89c-7.79,5.8-7.46,11.82-7.46,11.82-.57,5.45-2.38,9.29-.16,15.15.54,1.39,1.01,2.81,1.45,4.24.44,2.65,1.2,5.28,1.11,7.99-.05,1.33-.32,2.75-1.29,3.68-1.04,1,.48,2.39-.8,2.11-.03-.08-.04-.16-.08-.24-.94-1.82-1.98-3.49-3.66-4.67-.76-.54-1.67-1.13-2.59-1.42-.92-.29-1.9-.64-2.88-.64-1.38-.17-2.7.04-3.97.62-.21.13-.42.27-.63.4-5-11.21-8.2-23.48-2.04-38.9,1.78-4.45,7.31-9.84,8.99-11.56,10.21-10.32,20.31-12.34,33.03-12.76,14.74-.48,29.94,1.81,35.38,16.83"/>
      <path class="cls-26" d="M333.39,333.85c-3.18,2.41-6.08,5.57-7.17,9.51-.21.76-.31,1.51-.36,2.29-.13,1.96-.59,3.9-.9,5.85-.37,2.34-.49,4.69.01,7.02.63,2.91,1.95,5.59,2.52,8.54.52,2.66,1.43,5.96.27,8.57-.35.79-1.18,1.28-1.19,2.19,0,.18.12.8.14.78.12-.18-.86-1.62-.98-1.81-2.64-4.16-8.73-6.82-13.24-3.95h.52c-3.73-8.41-6.19-17.35-5.18-26.61.29-2.62.82-5.2,1.56-7.73.69-2.34,1.47-4.73,2.75-6.82,2.01-3.29,4.73-6.12,7.42-8.86,3.21-3.26,6.78-6.15,10.85-8.26,3.91-2.02,8.15-3.24,12.49-3.9,4.31-.66,8.7-.86,13.05-.86,4.01,0,8.04.26,11.98,1.05,4.27.86,8.47,2.39,11.99,5.01s6.22,6.5,7.79,10.75c.07.2.71,0,.64-.17-1.43-3.88-3.68-7.39-6.87-10.05-2.97-2.49-6.55-4.14-10.26-5.17-7.97-2.22-16.69-2.09-24.85-1.29-8.79.86-16.95,3.73-23.75,9.48-3.01,2.54-5.82,5.47-8.33,8.5-1.35,1.64-2.66,3.38-3.59,5.29-1.22,2.51-2.02,5.32-2.65,8.03-1.26,5.43-1.45,11.06-.54,16.56s2.68,10.34,4.85,15.21c.07.16.41.06.52,0,4.75-3.02,11.67,1.06,13.28,5.97.02.05.08.07.12.07.67.09,1.06-.04,1.04-.73-.01-.38-.18-.72-.03-1.11.16-.42.61-.76.84-1.14.42-.69.62-1.49.71-2.28.25-2.23-.23-4.48-.66-6.65-.45-2.28-1.14-4.38-1.93-6.57-1.48-4.11-.83-8.02-.13-12.21.28-1.7.28-3.5.76-5.17,1.09-3.83,3.9-6.89,7.01-9.25.28-.21-.36-.19-.51-.08h0Z"/>
    </g>
    <path class="cls-25" d="M375.91,380.84c1.25.4,2.6.46,3.9.32,1.19-.13,2.49-.37,3.56-.92,1.63-.84,2.74-2.84,1.83-4.58-.24-.47-.55-.9-.83-1.34-.42-.67-.79-1.37-1.1-2.1-.13-.32-.87-.1-.74.2.5,1.21,1.24,2.24,1.88,3.37.58,1.02.45,2.17-.26,3.11s-1.92,1.3-3.07,1.55c-1.55.34-3.22.4-4.74-.09-.3-.1-.88.34-.44.48h0Z"/>
    <path class="cls-25" d="M369.74,376.77c-1.39.11-1.38,1.87-1.22,2.89.1.6.29,1.13.75,1.55.62.56,1.51.68,2.32.69.54,0,1.03-.1,1.51-.33s.94-.56,1.45-.75c.15-.06.35-.18.3-.37-.04-.17-.3-.22-.44-.17-.39.14-.75.34-1.11.54-.34.19-.7.4-1.09.47-.62.11-1.44.02-2-.28-.93-.5-1.07-1.7-1-2.68.02-.26.06-.52.18-.76.04-.07.1-.16.14-.19.06-.05.06-.05.15-.06.17-.01.39-.12.41-.31s-.19-.27-.35-.26h0Z"/>
    <ellipse class="cls-23" cx="390.42" cy="359.63" rx="3.28" ry="3.27" transform="translate(-10.83 707.14) rotate(-83.54)"/>
    <path class="cls-18" d="M394.29,355.99c-1.67-.79-3.2-.97-6.3-.3-4.98,1.08-7.54,7.92-7.54,7.92,0,0,3.91-5.44,8.8-6.63,2.35-.57,5.31-.25,7.26.45-.11-.47-1.2-.92-2.21-1.45Z"/>
    <ellipse class="cls-21" cx="356.69" cy="364.23" rx="3.28" ry="3.27" transform="translate(-45.34 677.71) rotate(-83.54)"/>
    <path class="cls-18" d="M366.07,365.23s-4.34-6.9-12.12-5.17c-2.29.51-4.25-.01-9.34,4.59,0,0,4.6-1.86,10.6-2.95,5.44-.99,10.87,3.53,10.87,3.53Z"/>
    <path class="cls-26" d="M360.87,354.23c0-.12.22-.76.22-.88-6.02-.98-11.11-.03-12.72.44-1.22.36-2.39,1-3.47,1.82,0,0-3,2.21-3.32,3.01-.32.8,1.89-.56,1.89-.56.48-.21.8-.43,1.3-.57,2.75-.74,5.34-1.87,8.17-1.72,2.43.11,5.64-.42,8.03.34-.03-1.26-.16-.64-.1-1.89Z"/>
    <path class="cls-26" d="M394.64,349.6c-.03-.18-.03-.36-.02-.54-1.03-.59-2.31-1.15-2.31-1.15-1.1-.5-2.21-.81-3.29-.84-1.43-.04-5.11.87-9.67,3.38.03.11-.28.19-.25.3.39,1.18.76,1.27,1.08,2.49,1.7-1.36,3.79-2.34,5.71-3.08,2.24-.88,4.63-.47,7.04-.48.44,0,.76.13,1.2.2,0,0,.27.09.59.18-.03-.15-.07-.31-.08-.46Z"/>
    <path class="cls-39" d="M400.88,353.41c-1.9-1.33-5.09-1.62-10.36-.93h-.03c-7.55.99-10.57,3.06-11.58,5.91-.84-.24-2.39-.44-5.23-.3-2.03.1-4.05.76-5.51,1.62-.24-.22-.5-.43-.8-.62-2.58-1.7-7.02-1.96-14.69-.98-4.04.55-6.65,1.36-8.25,2.59l-21.92,8.44.83,1.64,19.04-5.88c-.02,1.06.14,2.2.32,3.42.06.44.13.89.19,1.36.86,6.59,8.5,8.59,15.7,7.65,8.17-1.07,12.77-5.39,12-11.27-.2-1.52-.28-3.89-.75-5.07.85-1.03,2.35-1.51,4.95-1.64,2.56-.13,3.5.66,3.82,1.1,0,.95.28,2.8.42,3.86.73,5.59,6.25,8.95,13.89,7.95,7.34-.96,11.42-5.19,10.66-11.05-.07-.53-.12-1.03-.18-1.53-.28-2.62-.52-4.88-2.53-6.28ZM358.48,376.08c-6.61.86-13.62-.82-14.36-6.52-.07-.52-.14-1.02-.21-1.51-.39-2.64-.67-4.55.47-5.86,1.12-1.3,3.75-2.18,8.25-2.79.14-.02.29-.04.43-.06,7.18-.94,11.56-.7,13.74.73,1.81,1.19,2.21,3.32,2.59,6.19.68,5.17-3.4,8.84-10.89,9.82ZM402.42,359.7c.06.54.12,1.1.19,1.68.67,5.14-2.99,8.74-9.79,9.62-6,.78-11.77-.79-12.51-6.45-.71-5.44-1.81-9.21,10.42-10.81h.03c5.09-.67,8.19-.49,9.74.57,1.45.99,1.66,2.93,1.92,5.39Z"/>
    <path class="cls-41" d="M311.83,377.16s.62-3.64,3-4.56c2.37-.92,7.24.98,9.52,4.43,0,0,1.98-2.54-.98-5.63-3.4-3.54-8.63-4.92-11.65-2.49-5.26,4.21.12,8.25.12,8.25Z"/>
    <g>
      <path class="cls-3" d="M325,374.24s4.36,6.64.7,9.17c-2.16,1.49-2.99-.14-3.64,1.04-.65,1.19,0,2.41,0,2.41,0,0-1.19,1.85-2.04-.61-.51-1.48.52-4.47,2.94-3.93,0,0,2.21,1.12,2.42-1.93.09-1.35-.62-2.86-1.92-4.4-1.3-1.54,1.53-1.75,1.53-1.75Z"/>
      <path class="cls-23" d="M324.96,374.27c1.08,1.65,1.99,3.66,2.14,5.64.13,1.68-.54,3.15-2.13,3.86-.72.32-1.31.21-2.06.17-.39-.02-.65.11-.85.44-.41.66-.4,1.51-.15,2.22.12.34.11.38-.26.66-.85.65-1.43-.49-1.61-1.22-.16-.69-.04-1.45.23-2.09.53-1.27,1.65-1.88,2.97-1.47.71.22,1.44.05,1.83-.61.97-1.62.07-3.71-.9-5.08-.47-.66-1.58-1.63-.43-2.19.39-.19.84-.28,1.27-.31.07,0,.07-.12,0-.11-.64.05-2.06.28-1.92,1.2.07.45.53.85.78,1.19.48.63.9,1.31,1.18,2.06.38,1.01.55,2.61-.28,3.47-.43.44-1.02.42-1.57.26-.51-.15-1-.21-1.52-.02-1.36.49-2.02,2.29-1.76,3.63.11.58.52,1.68,1.28,1.62.39-.03.73-.38.94-.69.01-.02,0-.04,0-.06-.38-.73-.42-1.77.05-2.46.36-.53.94-.28,1.47-.25,1.2.06,2.45-.68,3.07-1.71,1.15-1.92.22-4.5-.64-6.34-.3-.64-.63-1.27-1.02-1.87-.04-.06-.13,0-.1.06Z"/>
    </g>
    <g>
      <path class="cls-12" d="M324.18,383.67s-2.32-5.58-6.26-5.06c-1.61.21-2.24,3.37.26,7.15,1.32,2,4.26,1.85,4.26,1.85,0,0-1.92-3.13.58-3.59.9-.17,1.16-.35,1.16-.35Z"/>
      <path class="cls-23" d="M324.24,383.66c-.87-2.09-2.6-4.51-4.92-5.04-.6-.14-1.4-.22-1.95.14-.5.32-.75.93-.85,1.5-.16.9-.01,1.84.25,2.71.34,1.12.89,2.33,1.66,3.21.96,1.09,2.6,1.56,4.02,1.5.04,0,.07-.05.05-.08-.38-.62-.69-1.39-.69-2.12,0-.65.35-1.13.98-1.32.46-.14,1.02-.14,1.43-.42.06-.04,0-.14-.06-.1-.67.47-1.67.21-2.2.93-.44.59-.26,1.43-.04,2.07.1.28.22.55.36.81.03.06.06.14.11.19-.04-.05.11-.02-.02-.06-.23-.08-.62-.02-.87-.06-.48-.06-.96-.17-1.41-.35-1.48-.57-2.27-1.89-2.87-3.29-.5-1.17-.87-2.57-.54-3.84.63-2.4,3.55-1.21,4.83-.08,1.12,1,2.05,2.37,2.62,3.74.03.06.13.04.11-.03Z"/>
    </g>
    <path class="cls-23" d="M324.23,384.26c-.36-.2-.79-.35-1.2-.38-.29-.02-.6.03-.83.21s-.34.45-.4.73c-.21,1.06.28,2.18,1.16,2.78.76.52,1.7.65,2.59.62.17,0,.23-.22.03-.22-1.27.04-2.67-.35-3.26-1.58-.19-.4-.29-.86-.26-1.31s.19-.99.73-1.02c.41-.02.85.14,1.21.33.11.06.38-.09.23-.17h0Z"/>
    <path class="cls-6" d="M377.62,387.38c-4.53.89-11.98,1.81-11.98,1.81,0,0,1.62,11.38,14.14,8.69,10.47-2.25,7.91-12.91,7.91-12.91,0,0-5.54,1.51-10.07,2.4Z"/>
    <path class="cls-8" d="M377.66,387.37c-2.15.43-10.2,1.92-10.2,1.92,0,0,3.01,5.42,10.8,3.88,8.45-1.67,7.93-7.02,7.93-7.02l-8.54,1.22Z"/>
    <path class="cls-40" d="M378.47,388.29c-2.25.44-9.15,1.43-9.15,1.43,0,0,3.05,1.32,9.79,0,6.74-1.33,6.83-3.15,6.83-3.15l-7.46,1.73Z"/>
    <path class="cls-6" d="M388.24,384.65c-.05-.24-.55-.25-1.67-.13-1.86.21-1.89-.22-3.24-.06-2.3.28-3.57,1.44-4.56,1.63s-2.6-.4-4.84.22c-1.31.36-4.51,1.48-6.31,2-1.08.31-2.45.15-2.68.25-.31.14,1.05,3.05,13.45.6,12.4-2.45,9.9-4.18,9.84-4.51Z"/>
    <path class="cls-31" d="M363.44,459.69c3.67,8.55-.38,16.5,5.78,23.12,15.23,16.36,37.54,58.96,56.88,65.34,22.58,7.46,76.11-30.41,76.11-30.41l-4.94-21.07-47.83,22.34s-19.64-53.03-29.58-67.21c-4.12-5.87-14.89.31-26.73-5.66-.8-.4-6.03-1.73-6.51-1.92"/>
    <path class="cls-31" d="M534.93,506.81c-1.73-1.55-15.27,2.51-15.86,1.4-.59-1.11,15.97-6.22,18.37-9,1.24-1.43.67-2.29-.18-2.79-.71-.42-1.55-.38-2.3-.07-1.64.68-4.68.8-9.56,2.33-5.85,1.83-8.17,2.84-8.24,2.55-.07-.29,2.09-1.55,7.96-3.47,3.17-1.19,6.83-3.46,10.21-4.43,1.05-.3,1.95-1.08,2.35-2.15.59-1.59,0-3.19-2.07-3.01-4.93.41-21.51,7.79-21.23,7.76,0,0,4.4-2.99,7.46-5.18,3.06-2.19,11.03-5.67,9.62-7.66-1.41-1.99-7.72.3-11.9,2.05-4.72,1.94-18.48,7.61-18.48,7.61,2.72-3.13,5.28-6.42,7.65-9.86,2.8-4.6.22-6.98.22-6.98,0,0-16.33,13.55-19.09,17.17-2.1,2.76-5.13,6.97-5.16,9l-15.78,8.22c.53,1.16,9.85,15.99,10.68,16.76,0,0,5.53-6.79,9.55-6.49,5.56,3.56,39.15-8.72,42.44-9.88,3.34-1.18,4.33-2.98,3.34-3.87Z"/>
    <path class="cls-15" d="M296.89,485.64s8.77,48.23,1.75,64.14c-7.32,16.59-4.63,42-4.63,42,0,0,35.36,11.41,86.94,4.8,28.36-3.63,45.49-3.4,41.76-14.94-.96-2.98-1.59-26.18-1.59-26.18l-6.7-59.84-117.52-9.98Z"/>
    <path class="cls-15" d="M322.35,543.33c5.02,1.49,9.96,2.07,15.18,2.25,10.33.37,20.57-.56,30.86-1.3,13.84-.98,27.73-1.7,41.47-3.56l6.93,15.38c3-6.99,3.22-38.02,3.28-56.38,18.14-.95,19.06-11.13,19.06-11.13,0,0-11.74-42.43-25.18-54.16-10.34-9.03-33.56-18.81-32.62-18.24,10.34,8.68-9.94,16.92-9.94,16.92-12.65,4.15-28.68-3.9-33.57-20.14,0,0-17.47,10.14-25.21,17.17-18.4,16.7-16.44,36.49-15.3,46.86,1.04,9.44,16.29,35.54,17.09,53.04,2.62.72,5.34,12.5,7.96,13.27Z"/>
    <path class="cls-13" d="M420.69,493.49c.52-12.72,1.21-25.4-.25-38.08-.04-.37-1.1-.13-1.05.28,1.46,12.63.77,25.26.25,37.92-.02.45,1.04.24,1.06-.12h0Z"/>
    <g>
      <path class="cls-15" d="M438.79,483.63s-7.07,4.5-18.64,9.34c.07,3.97.43,7.51-.24,11.39,21.47-8.78,22.1-12.52,22.1-12.52l-3.22-8.22Z"/>
      <path class="cls-13" d="M438.4,483.58c.15-.09-.22.13-.28.17-.32.2-.65.39-.97.58-1.2.71-2.41,1.38-3.64,2.04-4.4,2.37-8.94,4.5-13.55,6.44-.12.05-.32.13-.31.29.08,3.79.38,7.57-.24,11.33-.05.29.56.13.68.08,4.55-1.86,9.07-3.83,13.42-6.13,2.24-1.18,4.47-2.44,6.49-3.98.8-.61,1.69-1.3,2.25-2.16.35-.53.22-.65-.03-1.27-.98-2.5-1.96-4.99-2.93-7.49-.11-.29-1.09.01-.99.27.84,2.15,1.68,4.3,2.52,6.44.25.65.85,1.43.58,1.98-.32.67-1.16,1.32-1.74,1.8-1.75,1.41-3.72,2.56-5.68,3.64-4.59,2.51-9.41,4.61-14.25,6.59l.68.08c.63-3.8.33-7.62.25-11.45l-.31.29c6.45-2.71,12.93-5.69,18.85-9.45.44-.28-.56-.23-.78-.1Z"/>
    </g>
    <path class="cls-31" d="M303.67,489.68c13.52,21.88,48.46,66.98,60.2,69.69,27.85,6.43,92.46-20.77,92.46-20.77l-4.2-14.33-75.42,1.7s-44.06-63.11-48.62-72.88c0,0-8.31-19.33-27.58-1.15"/>
    <path class="cls-31" d="M495.22,521.81c.25-.13.45-.32.59-.55,1.49-2.44-1.94-4.96-4.5-3.54-4.32,2.36-10.17,5.44-11,5.29-.84-.15-6.63-.39-11.71-.57-1.97,0-3.64-1.05-4.32-2.55-.46-.5-.77-1.18-.84-2.04-.05-.58,6.52-6.99,6.48-7.57-.56-1.67-7.18,2.17-7.44.43-2.82.59-5.95,1.71-8.58,2.82-3.82,1.86-12.65,10.23-12.65,10.23l-13.9,1.04,2.13,20.4,13.29-2.52,12.98,2.74s24.69.24,27.65-1.61c2.96-1.85,6.26-8.31,6.26-8.31,4.31-1.85,4.69-7.64,4.69-7.64,6.01-5.09.87-6.03.87-6.03Z"/>
    <path class="cls-24" d="M420.54,524.59c5.43-.01,10.86-.03,16.29-.04,1.03,0,2.06,0,3.09,0,.51,0,.85-.04,1.26-.39,2.63-2.26,5.11-4.68,7.82-6.85,1.38-1.1,2.83-2.3,4.43-3.07,2.6-1.25,5.63-2.27,8.47-2.77,1.55-.27,3.12-.45,4.68-.63.88-.1,1.81-.25,2.7-.22,1.32.05.9,1.52.55,2.38s-.83,1.7-1.66,2.15c-.93.5-2.01.75-3.01,1.1-1.29.45-3.16,1.01-3.83,2.34-1.66,3.3,6.76,4,8.42,4.22,4.62.59,10.01.86,14.37-1.05,2.54-1.11,4.38-3.59,7.18-4.19,2.3-.49,3.18,1.66,3.19,3.61,0,.51,1.11.3,1.11-.11,0-2.11-.87-4.27-3.26-4.28-3.63-.02-5.95,3.41-9.09,4.61-3.43,1.32-7.46,1.23-11.07.93-1.66-.14-3.33-.36-4.96-.67-1.42-.27-3.71-.55-4.67-1.77-1.75-2.22,4.91-3.61,6.1-4.2,1.15-.57,1.82-1.57,2.29-2.76.35-.88.78-2.41-.36-2.89-.88-.38-2.26-.05-3.17.04-1.44.15-2.87.34-4.3.55-3.44.5-6.98,1.58-10.11,3.08-2.86,1.36-5.37,3.71-7.75,5.77-1.74,1.5-3.45,3.03-5.11,4.61l.65-.23c-6.61.02-13.21.03-19.82.05-.46,0-1.15.7-.41.7h0Z"/>
    <path class="cls-24" d="M469.48,529.66c2.43.87,5.14,1.22,7.72,1.32,2.47.09,5.2-.05,7.55-.89,4.23-1.51,8.39-4.52,10.81-8.34.28-.45-.82-.37-1.03-.05-2.22,3.49-6,6.31-9.85,7.75-2.38.89-5.25,1-7.76.83-2.27-.15-4.62-.48-6.77-1.25-.37-.13-1.29.41-.67.63h0Z"/>
    <path class="cls-24" d="M470.5,534.72c2.43,1.27,5.39,1.33,8.08,1.37,2.65.03,5.13-.45,7.47-1.72,1.63-.88,3.1-1.99,4.6-3.07s3.04-2.05,4.31-3.41c.22-.24-.81-.11-1,.09-1.76,1.89-4.17,3.33-6.28,4.83-1.04.74-2.14,1.44-3.31,1.96-1.61.72-3.34.9-5.08.88-2.57-.02-5.44-.08-7.76-1.29-.28-.15-1.16.31-1.04.37h0Z"/>
    <path class="cls-24" d="M472.43,540.74c.12.66,2.19.53,2.61.55,2.18.07,4.36.01,6.53-.07,1.13-.04,2.11-.19,3.12-.72s1.96-1.12,2.84-1.81,1.65-1.38,2.31-2.23c.2-.26.77-.88.51-1.24s-1.31.04-1.01.46c-.09-.13-.1.07-.21.24-.18.31-.43.58-.67.85-.66.73-1.42,1.38-2.23,1.94-.75.53-1.53,1.03-2.36,1.42-.93.43-1.98.38-2.99.41-1.68.06-3.36.09-5.03.05-.57-.01-1.14-.03-1.7-.09-.15-.02-.64-.13-.63-.05-.08-.44-1.18-.17-1.1.29h0Z"/>
    <path class="cls-24" d="M376.55,526.04c-2.03.16-3.69,1.59-4.94,3.09-1.49,1.79-2.72,3.99-3.19,6.28-.2.97-.29,2.03.12,2.95.11.25,1.13-.11,1.05-.28-.94-2.12.35-4.89,1.39-6.73.67-1.19,1.48-2.31,2.45-3.27.7-.69,1.63-1.55,2.66-1.64.27-.02,1.15-.47.46-.41h0Z"/>
    <path class="cls-15" d="M305.17,510.52c17.41.94,32.49-13.88,46.68-24,1.26-.9,2.56-1.83,3.37-3.15,2.14-3.48.16-7.94-1.82-11.51-4.99-9.03-10.05-18.14-16.91-25.84-6.86-7.7-4.37-16.06-14.53-17.86-.89-.16.02-4.53-.85-4.28-.94.27-14.89,11.54-15.58,12.23-7.17,7.17-16.39,19.54-17.03,29.67-.97,15.41,3.7,25.28,10.28,39.25"/>
    <path class="cls-13" d="M343.91,492.21c3.07-.52,6.27-.53,9.37-.57.14,0,.72-.11.74-.33.1-1.06-.34-2.13-.72-3.09-.64-1.6-1.44-3.15-2.25-4.67-1.35-2.56-3.01-5.07-4.03-7.79-1.89-5.02-4.23-9.85-6.82-14.54-2.12-3.84-4.27-7.78-7.15-11.1-3.13-3.61-7.15-6.44-11.98-7.03-.26-.03-1.22.41-.67.48,9.23,1.13,14.34,10.02,18.43,17.35,2.48,4.44,4.79,9.01,6.63,13.76,1.08,2.79,2.49,5.33,3.91,7.97.87,1.62,1.74,3.24,2.48,4.92.51,1.15,1.25,2.6,1.13,3.91l.74-.33c-3.2.04-6.48.07-9.64.6-.45.08-.92.58-.18.46h0Z"/>
    <path class="cls-13" d="M305.85,512.48c-.58-.31-1.02-.97-1.42-1.47-.43-.53-.84-1.06-1.24-1.62-1.47-2.06-2.73-4.27-3.87-6.52-.2-.41-1.21-.03-.97.46,1.16,2.29,2.44,4.53,3.93,6.61.41.57.84,1.12,1.28,1.66.41.5.88,1.15,1.46,1.47.23.13.54.09.75-.07.16-.12.3-.4.06-.53h0Z"/>
    <g>
      <path class="cls-15" d="M308.63,519.21s4.98,1.38,27.18-11.45c22.2-12.83,20.33-15.26,20.33-15.26l-5.17-7.95s-6.05,7.83-21.62,16.52c-15.57,8.69-26.51,9.84-26.51,9.84l5.78,8.3Z"/>
      <path class="cls-13" d="M308.31,519.49c1.41.38,3.31-.26,4.63-.63,6.36-1.77,12.37-4.96,18.13-8.1,7.41-4.04,15-8.3,21.62-13.59,1.18-.94,2.39-1.94,3.32-3.14.28-.36.72-.91.71-1.4-.02-.65-.69-1.28-1.01-1.78-1.41-2.17-2.82-4.34-4.23-6.51-.18-.28-.83,0-.98.19-.87,1.13-1.91,2.14-2.94,3.12-3.01,2.89-6.32,5.47-9.76,7.84-8.87,6.1-18.77,11.15-29.21,13.94-1.85.49-3.75.97-5.66,1.18-.19.02-.76.21-.56.5,1.93,2.77,3.86,5.54,5.78,8.3.2.29,1.22-.06.98-.41-1.93-2.77-3.86-5.54-5.78-8.3l-.56.5c5.91-.63,11.86-2.88,17.27-5.21,9.93-4.27,19.6-10.05,27.56-17.41,1.35-1.25,2.73-2.56,3.86-4.02l-.98.19c1.15,1.77,2.3,3.54,3.45,5.31.53.82,1.13,1.62,1.6,2.47.12.22.09.12.1.17.18,1.05-1.9,2.69-2.63,3.32-5.5,4.79-12.09,8.47-18.38,12.07-6.43,3.68-13.09,7.38-20.15,9.73-1.45.48-2.95.94-4.48,1.1-.36.04-.86.05-1.04,0-.34-.09-1.24.41-.64.57Z"/>
    </g>
    <path class="cls-24" d="M484.39,501.8c-.22,2.68,1.67,4.86,3.41,6.66.31.32,1.28-.09.94-.44-1.64-1.69-3.52-3.76-3.31-6.3.04-.51-1-.36-1.03.08h0Z"/>
    <path class="cls-24" d="M503.59,497.89c1.98,4.73,4.02,10.56,1.04,15.34-.27.43.88.31,1.07,0,3.06-4.91,1.08-10.79-.96-15.66-.16-.38-1.29-.03-1.15.31h0Z"/>
    <g>
      <polyline class="cls-15" points="370.21 433.99 374.36 433.66 375.17 464.99 368.47 464.87"/>
      <path class="cls-13" d="M369.95,434.29c1.38-.11,2.77-.23,4.15-.34l-.37-.12c.24,9.13.47,18.26.71,27.38.03,1.32.07,2.64.1,3.96l.9-.46c-2.23-.04-4.47-.08-6.7-.13-.4,0-1.37.57-.53.59,2.23.04,4.47.08,6.7.13.23,0,.91-.14.9-.46-.24-9.13-.47-18.26-.71-27.38-.03-1.32-.07-2.64-.1-3.96,0-.13-.3-.13-.37-.12-1.38.11-2.77.23-4.15.34-.38.03-1.37.66-.53.59h0Z"/>
    </g>
    <ellipse class="cls-13" cx="367.99" cy="444.35" rx="2.23" ry="1.75"/>
    <ellipse class="cls-13" cx="367.99" cy="453.56" rx="2.23" ry="1.75"/>
    <g>
      <path class="cls-15" d="M381.06,414.75s2.61,13.9-9.68,18.37c0,0,9.92,4.29,13.43,12.16,0,0,8.35-5.88,9.38-24.31,0,0-5.15-4.02-9.74-5.72-4.59-1.7-3.38-.5-3.38-.5Z"/>
      <path class="cls-13" d="M380.43,414.92c.43,2.31.3,4.82-.16,7.11-1.02,5.08-4.23,9.05-9.12,10.88-.15.06-.62.33-.28.48,5.41,2.35,10.81,6.63,13.31,12.05.16.35.92.04,1.13-.11,3.02-2.14,5.03-6.06,6.38-9.37,1.84-4.51,2.73-9.37,3.08-14.21.05-.67.17-.85-.26-1.25-.54-.5-1.22-.9-1.83-1.31-1.9-1.31-3.89-2.52-5.98-3.51-1.27-.6-2.61-1.12-3.97-1.47-.55-.14-1.14-.29-1.7-.15-.45.12-1,.44-.56.9.27.27,1.46-.19,1.19-.47-.03-.03-.08-.16-.1-.17-.22-.13-.64.15-.5.31.03.03.53.1.52.1.45.1.89.26,1.33.4,2.25.76,4.34,1.83,6.36,3.07,1.33.82,2.63,1.7,3.89,2.64.55.41.39.54.33,1.31-.09,1.26-.23,2.52-.4,3.77-.86,6.07-2.74,12.42-6.72,17.22-.61.73-1.27,1.5-2.05,2.05l1.13-.11c-2.55-5.54-8.03-9.86-13.55-12.27l-.28.48c4.95-1.86,8.53-5.66,9.77-10.84.6-2.52.79-5.34.31-7.91-.07-.35-1.34-.05-1.27.34Z"/>
    </g>
    <g>
      <path class="cls-15" d="M321.52,419.22s6.75-8.89,12-11.68c0,0,16.14,26.55,33.69,26.46,0,0-11.25,7.44-12.34,16.52,0,0-34.77-17.41-33.35-30.52"/>
      <path class="cls-13" d="M322.11,419.23c1.2-1.58,2.49-3.09,3.82-4.56,2.34-2.58,4.89-5.26,7.97-6.95l-.98.06c1.98,3.25,4.31,6.33,6.74,9.26,4.54,5.48,9.78,10.72,16.08,14.16,3.45,1.89,7.26,3.14,11.22,3.15l-.15-.54c-2.16,1.44-4.17,3.19-5.98,5.04-3.15,3.23-5.99,7.16-6.6,11.74l1.14-.39c-3.9-1.96-7.69-4.17-11.39-6.49-6.5-4.07-13.21-8.65-18.09-14.65-2.06-2.54-4.07-5.74-3.74-9.15.05-.5-1.23-.26-1.27.16-.28,2.91,1.05,5.64,2.68,7.96,2.18,3.12,5.03,5.76,7.96,8.17,5.71,4.7,12.03,8.67,18.47,12.27,1.44.81,2.89,1.6,4.37,2.34.28.14,1.09,0,1.14-.39.9-6.73,6.63-12.62,12.1-16.25.33-.22.29-.54-.15-.54-7.32-.02-13.89-4.45-19.12-9.19-4.57-4.13-8.56-8.91-12.09-13.95-.74-1.05-1.47-2.12-2.13-3.21-.17-.27-.81-.04-.98.06-3.09,1.69-5.66,4.33-8.02,6.9-1.46,1.59-2.87,3.24-4.18,4.95-.34.45.93.35,1.18.02h0Z"/>
    </g>
    <path class="cls-28" d="M520.9,494.06c.41,1.38-.14,2.87-.92,4.07-.78,1.2-1.81,2.25-2.51,3.5-.37.66-.64,1.36-.83,2.07.03.17-.4,2.74-.39,2.93.05,3.07,1.76,8.69,5.05,8.61,2.06-.05,7.25.04,7.25.04-.71-2.57-2.35-9.7-1.38-12.18.75-1.91,1.95-3.6,2.83-5.44.88-1.85,1.43-4,.76-5.94-.77-2.22-3.05-3.95-2.92-6.3.13-2.36,2.65-3.87,3.4-6.11-2.78-.86-5.74-1.15-8.63-.84l-1.65.85c-2.39,1.53-4.02,4.18-4.31,6.99-.1.93-.05,1.91.34,2.76.87,1.95,3.3,2.95,3.91,4.99Z"/>
    <rect class="cls-1" x="515.63" y="472.98" width="20.49" height="7.97" transform="translate(1051.75 953.93) rotate(-180)"/>
  </g>
  <g id="Layer_14" data-name="Layer 14">
    <path class="cls-31" d="M915.02,379.93s-59.81-42.9-71.38-46.87c-7.73-2.65,19.25,55.93,11.7,52.82l-82.15,6.14c-5.85.39-30.37,2.78-29.63,4.78l.57-5.86c3.95,8.13,3.6,22.96,1.04,31.73l-.84,2.16c.55,2.75,28.03,4.64,33.37,4.98,22.82,1.45,68.88-3.19,81.44-2.8,14.74.46,44.19,2.93,56.05-20.53,12.29-16.52-.18-26.55-.18-26.55Z"/>
    <path class="cls-30" d="M994.24,923.83c1.3-.72.8-18.06-.73-42.63,11.56.03,23.12.1,34.68.1h13.3s-5.35,33.18-5.35,33.18l3.56,20.06s-46.93,17.41-60.31,17.88c-13.39.47-17.3,4.01-17.3,4.01,0,0,15.34-23.25,32.16-32.6Z"/>
    <path class="cls-30" d="M1056.29,913.62c.6-1.21.05-13.82-1.19-32.32h46.91s-5.15,34.81-5.15,34.81l1.09,16.27s-58.42,33.21-71.81,33.23c-13.39.02-8.79-7.65-8.79-7.65,0,0,35.51-37.46,38.95-44.34Z"/>
    <path class="cls-31" d="M1095.99,912.86c-.22,6.22,2.13,14.93,4.01,27.91.83,5.71,5.47,13.71.05,18.16-9.6,7.87-21.5,5.47-25.93,6.83-9.33,2.87-16.86,3.21-25.77,6.85-9.04,3.69-10.89,4.58-20.94,5.76-1.39.16-2.86.19-4.1-.43-.83-.41-1.5-1.09-2.33-1.5-2.94-1.45-6.46.84-9.76.55-1.45-.13-2.79-.77-4.16-1.25-3.61-1.29-7.52-1.57-11.31-2.24-3.79-.67-7.67-1.82-10.4-4.44-2.73-2.62-3.9-7.06-1.79-10.21,3.2-4.76,7.71-2.28,12.3-2.95,4.58-.66,6.28-1.53,10.26-3.73,10.16-5.62,11.71-6.73,20.29-11.16,6.66-3.43,26.19-14.35,35.47-21.87l-.34-7.68"/>
    <g>
      <path class="cls-20" d="M1021.78,976.49c-1.3-.33-1.8-1.9-1.83-3.09-.04-1.28.57-2.47,1.42-3.39,1.78-1.93,4.33-2.96,6.61-4.14.19-.1.46-.26.18-.41-.25-.14-.84.07-1.07.19-2.53,1.3-5.4,2.45-7.29,4.66-.87,1.02-1.45,2.27-1.37,3.63.08,1.32.72,2.8,2.1,3.15.33.09.77-.04,1.07-.19.13-.07.52-.33.18-.41h0Z"/>
      <path class="cls-20" d="M1011.11,976.77c-1.31.04-1.69-1.7-1.81-2.7-.16-1.25-.09-2.75.39-3.93.78-1.91,2.74-3.08,4.53-3.89.98-.44,1.93-.9,2.88-1.4,1-.53,2.06-1.11,3.22-1.14.89-.03,1.15-1.21.12-1.18-2.08.06-3.86,1.34-5.68,2.21s-3.57,1.57-5,3c-1.1,1.1-1.75,2.35-1.97,3.87-.19,1.31-.18,2.74.21,4.01.44,1.41,1.45,2.36,2.98,2.32.89-.03,1.15-1.21.12-1.18h0Z"/>
      <path class="cls-20" d="M1004.35,974.91c-1.74-.59-2.47-2.75-2.51-4.43-.03-1.65.72-3.21,1.79-4.43,1.12-1.28,2.55-2.28,4.05-3.08s3.21-1.62,4.87-2.07c.15-.04.76-.21.69-.46s-.71-.09-.83-.05c-1.92.52-3.87,1.4-5.62,2.34-1.66.9-3.29,1.98-4.54,3.42-1.16,1.32-1.97,2.96-1.93,4.74.04,1.86.9,4,2.78,4.64.32.11.78-.04,1.07-.19.16-.08.5-.31.18-.42h0Z"/>
      <path class="cls-20" d="M997.04,973.71c-2.11-.89-3.5-2.96-3.84-5.2-.31-2,.4-3.57,1.86-4.9s3.14-2.2,4.86-3c.78-.36,1.57-.7,2.36-1.02.84-.35,1.96-1.13,2.88-1.13.32,0,.85-.1,1-.43.14-.31-.12-.51-.43-.51-1.71,0-3.4,1.06-4.95,1.72-1.58.67-3.14,1.41-4.6,2.31s-2.77,1.9-3.7,3.26c-.97,1.43-1.09,3.16-.66,4.81.54,2.11,2,4,4.02,4.85.34.14.78.08,1.08-.13.19-.13.47-.5.12-.65h0Z"/>
    </g>
    <path class="cls-31" d="M1037.77,926.23c1.4,5.96,1.91,9.31,3.37,15.01,1.68,6.56-1.16,11.63-8.45,14.6-6.13,2.5-14.4,3.86-21.11,3.69-8.77-.23-18.14-1.56-26.91-1.79-7.51-.19-31.15-1.54-38.49-.06-11.42,2.31-18.52.85-23.64-.8-1.42-.46-2.29-.36-2.97-1.4-1.75-2.69-1.6-5.71,2.12-8.12,4.69-3.03,10.48.83,14.84-2.71.78-.63,1.5-1.33,2.4-1.8,1.77-.91,3.92-.76,5.95-.79,10.1-.16,9.25-4.44,22.42-8.13,3.87-1.08,26.61-22.9,30.18-24.64"/>
    <path class="cls-20" d="M948.29,942.87c-2.19.36-4.36,1.2-6.4,2.05-1.03.43-2.06.88-3.04,1.43-.6.34-1.34.71-1.71,1.32l1.47-.39c-2.29-1.47-5.12-1.72-7.74-1.21-.19.04-.87.17-.89.43-.02.27.45.2.62.17,2.26-.43,4.63-.11,6.58,1.14.36.23,1.26-.05,1.47-.39.29-.48.99-.78,1.46-1.03.88-.47,1.8-.87,2.72-1.24,1.66-.67,3.42-1.38,5.2-1.67.19-.03.87-.17.89-.43.02-.28-.45-.2-.62-.17h0Z"/>
    <path class="cls-20" d="M1039.08,933.48c-5.76,3.77-11.65,7.36-17.61,10.8-4.68,2.7-9.41,5.32-14.31,7.61-2.01.94-4.05,1.84-6.14,2.56-1.43.5-2.98,1.01-4.51,1.03-1.59.02-3.69-.23-5.46-.14-2.3.12-5.56.36-7.06,2.39-.39.53,1.13.39,1.41,0,1.35-1.83,4.93-1.64,6.94-1.62,1.37.01,2.76.25,4.13.15,3.68-.26,7.33-1.99,10.63-3.51,9.19-4.22,17.92-9.47,26.5-14.81,2.16-1.34,4.31-2.69,6.43-4.08.86-.56-.47-.71-.93-.41h0Z"/>
    <path class="cls-29" d="M1129.2,409.68l4.77,12.6c6.26,16.53,9.84,33.96,10.61,51.62l1.03,23.66c.56,31.38-10.42,53.92-19.09,84.08l-18.41,127.47s.09,55.4,5.65,101.18c4.84,39.69-7.67,110.95-7.67,110.95l-13.76-9.26c-12.43,2.36-26.21,8.8-38.78,7.36l-15.44-.95-25.05-231.08-29.54-143.78-25.57-86.42,171.23-47.43Z"/>
    <path class="cls-29" d="M942.16,451.54l17.62,254.54c0,11.11,4.46,21.19,9.56,74.66l9.69,91.1,3.49,39.61,7.83,1.35c10.75,2.16,21.75,2.85,32.69,2.05l23.97-.98-26.58-457.1-78.27-5.24Z"/>
    <path class="cls-36" d="M935.98,486.6c-6.5-15.36-10.43-28.37-10.67-29.55-10.03-25.43-26.83-51.99-38.48-86.84,0,0-46.98-108.02-46.98-108.02-2.2-9.18-4.4-18.37-6.6-27.55-2.03-8.46,20.88,27.83,25.23,20.22,10.23-17.92,10.6-16.63,23.26-32.62,0,0-8.02,6.8,13.93,1.12,22.66-5.86,28.43-1.14,38.85-21.1,0,0,3.55-10.13,1.85-18.71,15.62.48,43.67.81,57.68,8.69,16.47,9.2,10.8-5.79,4.88,22.02l19.09-12.4s37.6,84.43,52.64,110.57c15.04,26.14,71.12,72.31,63.9,107-3.94,18.91-90.12,55.44-127.5,66.81-37.38,11.37-71.07.36-71.07.36Z"/>
    <path class="cls-33" d="M1038.14,912.16c-.56-5.6-1.12-11.2-1.68-16.8-1.37-13.67-2.74-27.34-4.1-41.01-1.7-17.03-3.41-34.07-5.11-51.1-1.57-15.69-3.14-31.39-4.71-47.08-.96-9.63-1.93-19.27-2.89-28.9-.37-3.73-.53-7.23-.72-11.12-.64-13.18-1.28-26.36-1.92-39.55-.83-17.02-1.66-34.03-2.48-51.05-.6-12.29-1.2-24.58-1.79-36.86-.88-18.1.5-36.76-7.78-53.51-2.82-5.7-6.66-10.86-11.73-14.74-.27-.21-.94.18-.59.44,11.86,9.09,16.54,24.48,18.13,38.75.95,8.55.61,17.1,1.03,25.66.5,10.24,1,20.48,1.49,30.71.81,16.68,1.62,33.35,2.43,50.03.71,14.68,1.43,29.36,2.14,44.03.24,4.91.27,9.88.76,14.77.76,7.6,1.52,15.21,2.28,22.81,1.47,14.67,2.94,29.33,4.4,44,1.71,17.08,3.42,34.16,5.13,51.24,1.49,14.84,2.97,29.68,4.46,44.52.8,7.95,1.59,15.91,2.39,23.86.04.37.07.73.11,1.1s.8.17.76-.2h0Z"/>
    <path class="cls-33" d="M1112.72,882.24s-13.69,6.04-37.51,6.33c-23.81.29-39.53-2.45-39.53-2.45l4.09,36.8s14.34,6.85,42.52,3.45l28.19-3.39,2.24-40.74Z"/>
    <path class="cls-33" d="M1033.33,874.49s-1.75,2.74-25.56,2.74c-23.82,0-29.02-2.74-29.02-2.74l3.64,36.85s14.18,6.23,42.48,3.98c13.93-1.11,12.89-3.05,12.89-3.05l-4.42-37.77Z"/>
    <line class="cls-43" x1="1033.75" y1="876.44" x2="1036.94" y2="913.25"/>
    <path class="cls-31" d="M883.71,109.58s9.35,26.45,28.21,36.64c2.97,1.61,39.15,2.66,39.15,2.66l-12-1.49c-1.14,5.83-27.87,73.72-31.45,78.46-17.83,23.6-41.42-9.01-60.76-17.11l.66-11.85,3.3-11.6c-1.25-3.78-17.74-24.09-17.74-24.09"/>
    <path class="cls-27" d="M964.38,312.67s.1.02.15.02c-.02-.12-.03-.25-.05-.37-.03.12-.07.23-.1.35Z"/>
    <path class="cls-38" d="M896.38,272.58c.06-.03.12-.06.19-.09-.07-.01-.15-.02-.22-.03-.01.05,0,.09.04.12Z"/>
    <path class="cls-38" d="M896.98,272.4c.09-.02.18-.04.27-.06-.11-.06-.2-.04-.27.06Z"/>
    <path class="cls-25" d="M829.14,15.3c10.65,2.49,17.7,8.39,17.7,8.39l3.47.68c3.72.72,8.8.91,11.71,3.34,25.45,21.22,20.3,47.9,20.3,47.9,0,0-37.49-42.98-73.89-36.64-36.4,6.35-45.32,57.28-45.32,57.28-19.95-33.86,9.15-58.79,9.15-58.79,0,0,36.15-27.01,56.88-22.16Z"/>
    <rect class="cls-2" x="792.88" y="61.97" width="9.69" height="25.85" rx="1.31" ry="1.31" transform="translate(1552.22 -194.8) rotate(154.97)"/>
    <rect class="cls-2" x="831.37" y="77.32" width="9.69" height="25.85" rx="1.31" ry="1.31" transform="translate(1357.73 -569.64) rotate(122.16)"/>
    <path class="cls-7" d="M883.05,113.56c.03.06.05.11.08.17-.02-.08-.04-.15-.08-.17Z"/>
    <path class="cls-31" d="M862.64,168.68l-15.3,10.6-7.29,3.97c-3.23,1.76-6.63,1.66-9.65-.43-6.34-4.38-9.01-6.96-9.81-7.47-4.14-2.64-10.85-7.8-14.4-11.2-3.8-3.64-6.79-5.37-10.44-10.28-2.68-3.59-4.22-6.29-5.72-13.77-.38-1.9-1.27-3.51-2.63-5-2.89-3.15-5.59-7.22-9.36-11.5-.3-.34-1.79-1.93-1.87-2.43,0,0-13.96-21.91-14.4-31.23-.44-9.31.57-16.56,5.12-20.95,4.55-4.39,23.6-13.27,23.6-13.27l21.37-11.49,23.63-1.33,22.08,17.11,13.4,26.79,12.07,26.74"/>
    <path class="cls-18" d="M821.81,41.53c-2.17.17-6.03.82-10.23,2.02-.84-.87-2.08-1.35-3.58-.93-15.02,4.16-23.44,17.11-33.95,27.43-3.57,2.53-7.04,5.21-10.41,8.03,3.68-12.97,14.13-18.93,25.41-27.69,1.33-1.03,2.74-2.04,4.18-3,20.96-13.87,20.35-13.32,42.67-6.85,12.97,3.76,22.35,9.06,25.08,14.19l.62,1.15c2.87,5.34,16.29,16.65,16.06,20.6-.15,2.52.67,12.77,1.43,21.44l-10.3,6.08c-.88-2.09-9.51-19.35-10.54-21.43l-13.09-30.56c-5.1-12.39-17.88-10.92-23.33-10.49Z"/>
    <path class="cls-31" d="M882.79,114.19c13.05,3.42,6.8-11.47,6.8-11.47,1.75-10.41-2.61-17.87-5.8-22.85-3.19-4.98-8.76-1.63-8.76-1.63-4.47,3.3-6.46,6.04-1.07,24.45"/>
    <path class="cls-18" d="M772.91,66.01c7.75-4.53,27.61-17.4,37.85-24.03,4.24-2.75,24.94-.07,28.23,1.34,7.54,3.23,4.8,21.91,22.47,35.78,5.84,4.58,3.43-7.83,8.77-5.68,5.33,2.15,7.42,3.06,7.42,3.06-7.41-18.62-7.14-17.97-20.56-32.93-13.39-14.91-36.18-11.93-45.99-8.3-9.81,3.62-37.11,22.71-42.87,30.73"/>
    <path class="cls-16" d="M878.06,98.38c-.26-2.9-.41-5.83-.15-8.73.14-1.49.37-3.02.93-4.43.25-.63.61-1.1.99-1.64.16-.22.18,0-.02-.09.33.15.64.32.94.53,2.14,1.47,3.42,3.87,4.14,6.3.02.08.27,0,.25-.07-.7-2.35-1.91-4.65-3.91-6.15-.34-.25-1.03-.89-1.47-.66-.38.19-.66.76-.84,1.1-.66,1.24-.94,2.67-1.13,4.05-.44,3.26-.27,6.59.02,9.85,0,.07.26.02.25-.07h0Z"/>
    <path class="cls-16" d="M880.23,98.49c1.74-1.12,2.72,1.8,3.19,2.96.29.7.93,3.04,2.06,2.79.49-.11.49-.69.48-1.1-.04-1.31-.48-2.63-.9-3.86-.57-1.68-1.19-3.11-2.26-4.52-1.19-1.57-2.94-3.42-5.11-3.16-.11.01-.22.12-.04.1,2.02-.24,3.73,1.6,4.84,3.05,1.06,1.37,1.68,2.74,2.25,4.39.41,1.19.81,2.44.94,3.7.03.31.11.83-.06,1.12-.19.32-.49.09-.7-.11-.49-.49-.75-1.25-1.01-1.87-.31-.75-.6-1.52-.98-2.24-.63-1.2-1.58-2.11-2.9-1.26-.11.07.14.05.19.01h0Z"/>
    <path class="cls-18" d="M824.18,105.6c.82-1.31,2.52-1.6,3.7-1.37.28.05,1.04.22,1.73.87.88.82,1.15,2.18.93,3.23-.29,1.41-1.59,2.38-2.95,2.52-1.84.18-3.34-1.28-3.73-2.76-.07-.27-.34-1.43.32-2.49"/>
    <path class="cls-18" d="M790.47,126.92c-1.53.24-2.45,1.69-2.7,2.87-.06.28-.2,1.04.13,1.93.41,1.13,1.56,1.91,2.62,2.12,1.41.28,2.81-.53,3.46-1.73.88-1.63.12-3.58-1.09-4.51-.22-.17-1.18-.87-2.42-.67"/>
    <path class="cls-18" d="M802.75,124.31s-7.73-1.15-11.21.95c-5.07,3.08-5.5,5.05-5.57,8.47,0,0,1.43-4.57,5.06-6.64,3.47-1.98,11.72-2.78,11.72-2.78Z"/>
    <path class="cls-18" d="M818.48,113.66s4.47-8.71,7.91-10.86c5.03-3.15,12.88-3.73,15.97-2.26,0,0-10.63.31-14.11,2.62-3.33,2.21-9.77,10.5-9.77,10.5Z"/>
    <path class="cls-18" d="M804.88,98.9c.75,1.19,1.51,2.38,2.27,3.58.58.91,1.83,3.03,2.41,3.93,2.7-2.78,4.85-5.74,6.71-7.36,3.68-3.23,7.27-6.79,11.78-8.82,2.15-.97,4.18-1.61,6.41-1.73.7-.04,2.91.33,3.48-.48.24-.33-1.21-1.47-1.36-1.59-2.94-2.28-6.51-1.75-10.37-.31-7.86,2.95-14.77,7.52-21.33,12.78"/>
    <path class="cls-18" d="M774.1,118.84s1.87-1.66,1.89-1.67c5.23-4.67,11.37-7.69,17.94-10.07.66,1.25,1.31,2.5,1.97,3.75.5.96,1.46,2.65,1.95,3.6-3.18.65-6.07.95-8.03,1.54-3.9,1.18-8.02,2.37-11.28,4.86-.26.2-1.64,1.29-1.88,1.49-2.04-1.13-2.91-2.97-2.55-3.51Z"/>
    <path class="cls-18" d="M761.29,83.2c11.98-16.25,31.62-24.95,36.99-28.46,7.63-5,18.16-7.41,23.45-9.53,12.86-5.15,13.27,8.76,17.27,13.47,3.99,4.71,20.79,27.01,26.09,14.93,2.96-6.73,10.4,4.22,10.4,4.22l1.17-.17c2.04-.3,4.12,0,5.99.85h0s-.5-11.3-8.54-25.54c-8.04-14.24-19.85-32.8-40.57-30.96-6.07.54-10.75,2.56-10.75,2.56,0,0-17.22-5.16-44.28,17.93-19,16.2-28.48,25.91-21.13,43.36"/>
    <path class="cls-25" d="M822.82,141.41c-1.31,1.82-3.26,3.14-5.27,4.07-.84.39-1.58.7-2.51.61-.82-.08-1.66-.24-2.43-.54-1.24-.48-1.58-2.03-1.85-3.2-.25-1.08-.32-2.2-.57-3.28-.06-.27-.67-.11-.61.16.21.91.27,1.86.46,2.77.23,1.11.5,2.43,1.25,3.31.71.83,2.12,1.02,3.13,1.16.56.08,1.16.14,1.72.01.86-.2,1.72-.66,2.5-1.06,1.79-.94,3.5-2.19,4.7-3.85.23-.31-.35-.39-.51-.17h0Z"/>
    <path class="cls-25" d="M827.05,133.58c.13-.09.2-.08.4-.02.16.05.32.14.46.24.31.22.58.51.8.82.4.54.81,1.21.79,1.91-.02,1.12-.95,1.99-1.78,2.62-.91.69-2.13.64-3.17,1.02-.06.02-.24.08-.19.16.04.07.34-.03.39-.04.96-.34,2.01-.36,2.94-.82.82-.41,1.64-1.17,2.09-1.97.39-.69.41-1.43.07-2.14-.3-.62-.72-1.23-1.27-1.66-.6-.47-1.36-.53-2.01-.1-.1.07-.07.1.03.12.12.02.33-.05.43-.12h0Z"/>
    <path class="cls-18" d="M858.45,71.96c-6.24-9.32-13.66-19.43-24.96-21.29-4.32-.71-8.8-.1-13.14.84-24.26,5.27-46.22,21.41-58.38,42.93-6.33-6.17-6.37-16.81-2.17-24.85,4.2-8.04,11.76-13.92,19.54-18.76,17.14-10.66,38.31-17.71,57.09-11.64"/>
    <path class="cls-32" d="M760.06,91.51c-3.35-2.83-6.47-6.06-8.36-10.02-1.88-3.96-2.38-8.75-.52-12.71.74-1.57,1.82-2.97,2.45-4.58,1.42-3.64.37-7.72.53-11.62.32-7.68,5.96-14.85,13.34-16.97,2.27-.65,4.64-.86,6.95-1.3,7.89-1.51,15.11-5.7,23.06-6.85"/>
    <path class="cls-14" d="M834.12,186.21l-3.53-2.11s30.84-12.25,35.44-17.02c12.14-12.62,11.97-32.53,11.97-32.53,0,0,2.56,3.04-.35,16.77-2.91,13.74-5.32,15.8-13.99,20.77-6.59,3.78-18.61,10.92-24.01,14.14-1.7,1.01-3.82,1.01-5.52-.01Z"/>
    <path class="cls-18" d="M849.47,142.1c7.89,12.64,12.18,22.14,7.25,25.52-5.04,3.46-2.71,3.28-7.27,3.85-5.58.69-8.24-.9-8.92.66-.3.68-.57,4.55-.86,5.24-.62,1.43-4.12,2.82-5.66,3.03-3.92.53-13.21-8.05-21.22-15.13,13.96,22.38,18.39,21.81,22.51,21.7,2.55-.07,4.19-.52,6.45-1.71,7.28-3.84,7.92-4.96,21.15-11.86,1.79-.93,3.3-2.31,4.8-3.67,4.02-3.61.06-10.01-2.28-13.5-3.39-5.05-8.3-9.37-13.46-12.52-.64-.39-2.07-.95-2.48-1.61Z"/>
    <path class="cls-36" d="M849.62,185.49s-25.85,33.76-32.53,49.07c-8.54,19.58,10.8,102.9,10.94,114.81.06,5,11.65,7.34,28.58,5.63,12.61-1.27,37.02-9.5,37.02-9.5l-1.95-6.45,9-42.78-55.97-90.31,7.24-10.68-2.33-9.79Z"/>
    <path class="cls-22" d="M888.16,346.89c-10.54,3.56-21.53,6.66-32.57,8.08-3.92.5-7.84.6-11.78.35-3.33-.2-6.76-.61-9.9-1.79-2.14-.81-4.89-2.25-5.32-4.76-.11-.6-.08-1.64-.12-2.46-.1-2.38-.2-4.77-.3-7.15l-1.28.55c3.07,1.14,6.39,1.74,9.62,2.21,8.32,1.23,16.81,1.15,25.14.08,6.77-.87,13.43-2.42,19.92-4.51.84-.27.66-1.03-.2-.76-15.98,5.14-33.89,7.29-50.37,3.13-.76-.19-1.52-.4-2.27-.64-.2-.06-.4-.14-.6-.2-.18-.05.05.02-.09-.03-.39-.14-1.31-.01-1.28.55.09,2.13.18,4.25.27,6.38.04.9.08,1.8.11,2.71,0-.19,0,.18,0,.29.26,2.28,2.43,3.84,4.33,4.76,2.55,1.23,5.39,1.79,8.17,2.15,4.11.53,8.32.64,12.45.32,7.49-.59,14.91-2.36,22.15-4.29,4.75-1.27,9.48-2.64,14.13-4.21.83-.28.66-1.05-.2-.76h0Z"/>
    <path class="cls-18" d="M820.68,146.48l1.04,1.68c.16.47.06.98-.27,1.26-2.25,1.96-11.81,8.86-10.36,11.06,1.81,2.74,1.41,4.82,1.35,4.84l-3.62-3.96c-2.21-2.42-1.69-4.37-1.1-5.23,1.8-2.65,3.07-3.59,4.2-4.8,1.42-1.52,5.23-4.34,7.27-5.57.54-.33,1.25.02,1.49.71Z"/>
    <path class="cls-18" d="M823.87,144.67l1.05,1.7c.37.34.91.41,1.36.16,3.09-1.68,14.4-9.38,17.5-7.26,2.75,1.87,5.45,2.57,5.5,2.51l-2.94-4.72c-3.34-4-4.85-2.66-6.01-2.34-3.51.96-4.66,2-6.43,2.77-2.22.96-7.63,3.63-9.92,5.35-.6.45-.65,1.33-.12,1.83Z"/>
    <path class="cls-36" d="M915.74,327.12c7.74,20.01,22.06,56.37,34.5,87.06,8.69-1.48,17.37-2.99,26.03-4.64,43.59-8.28,90.6-13.45,127.06-38.63-.99-2.04-5.1-10.94-6.34-12.87-.68-1.06-1.39-2.11-2.09-3.16-7.41-11.06-14.7-21.46-23.66-31.34-8.67-9.55-11.72-18.07-16.57-30.57-12.15-31.32-19.32-114.71-56.04-131.38-24.41-11.08-55.88-13.5-55.88-13.5,0,0,8.76,9.22,8.76,9.22,3.62,2.76-13.29,24.09-15.14,26.23-12.3,14.21-37.08,38.67-57.32,29.95l.71,4.29,8.89,15.77,17.31,61.75c-.2-.64,5.89,21.78,9.78,31.8Z"/>
    <path class="cls-36" d="M907.94,142.34l23.36,2.58c14.42.23,40.62,7.02,51.03,10.74,31.42,11.22,35.14,52.98,38.75,66.56,1.71,6.6-5.71,73.57,14.87,107.27,13.64,22.43,25.91,45.66,36.75,69.57l-36.78,21.29c-17.97,10.4-51.87-4.14-71.99.88l-51.86,5.34c-9.25-25.28-18.9-21.88-29.65-55.6l-51.73-74.54,11.46-73.02s-.38-14.41-.24-17.25l7.82-19.73s3.59,20.83,24.03,15.53c15.24-3.95,23.41-13.94,29.72-22.52,5.19-7.06,4.59-9.64,6.51-18.18,1.33-5.92-1.39-15.21-2.04-18.91Z"/>
    <path class="cls-22" d="M831.92,295.38c8.19,16.02,18.13,31.03,28.64,45.61,2.77,3.84,5.58,7.66,8.39,11.48.29.39,1.75-.12,1.41-.58-10.34-14.01-20.54-28.15-29.37-43.17-2.65-4.51-5.17-9.08-7.55-13.74-.25-.49-1.72,0-1.52.41h0Z"/>
    <path class="cls-22" d="M848.87,185.69c.37,3.58,1.72,7.27,3.63,10.3,1.64,2.59,3.86,4.75,6.64,6.07,3.58,1.69,7.7,1.73,11.53.98,6.19-1.21,11.96-4.26,17.2-7.67,5.6-3.66,10.71-8.17,14.66-13.6,5.67-7.77,8.72-17.23,8.48-26.86-.08-3.13-.46-6.3-1.36-9.31-.28-.93-.79-3.35-1.97-3.6-.38-.08-.92.08-1.21.32-.21.17-.22.4.11.42,2.93.17,5.85.35,8.78.52.3.02,1.26-.1,1.23-.56h0c-.49.16-.97.32-1.46.47-.12-.07.02.02.05.16.04.21.16.44.24.65.28.8.53,1.61.75,2.42.76,2.75,1.28,5.57,1.56,8.41.9,8.81-.54,17.82-4.66,25.71-6.47,12.39-18.66,20.42-31.36,25.41-6.72,2.64-14.35,5.04-21.6,3.2-4.36-1.11-8.03-3.83-10.45-7.6-1.71-2.66-2.83-5.7-3.44-8.79-.15-.74-.33-1.54-.34-2.3,0-.05-.02-.12-.01-.17-.06.3.07,0,.24-.17.89-.86,1.68-1.86,2.52-2.78.56-.62,1.12-1.24,1.68-1.86.37-.41-1.1-.27-1.38.05-.61.68-1.23,1.36-1.84,2.03-.8.88-1.85,1.77-2.51,2.77-.3.46-.18.83-.1,1.39.39,2.87,1.26,5.7,2.57,8.28,1.92,3.79,4.89,6.94,8.78,8.72,5.74,2.62,12.44,1.99,18.38.42,8.15-2.14,16.19-5.81,23.21-10.46,5.48-3.62,10.43-8.12,14.21-13.51,5.58-7.98,8.18-17.57,7.86-27.26-.11-3.4-.57-6.8-1.35-10.12-.25-1.07-.54-2.14-.87-3.19-.16-.52-.29-1.22-.58-1.68-.04-.06-.06-.23-.13-.27-.31-.18-1.49-.04-1.46.48h0c.41-.18.82-.37,1.23-.55-2.93-.17-5.85-.35-8.78-.52l.11.42c-.13.11-1.01.23-1.02.23,0,.04.17.14.18.18.09.21.27.41.38.62.4.76.67,1.58.92,2.4.82,2.7,1.21,5.53,1.35,8.34.45,8.89-1.96,17.82-6.76,25.31-3.28,5.12-7.59,9.52-12.44,13.18-5.2,3.91-11.14,7.44-17.46,9.18-3.8,1.05-7.92,1.34-11.65-.14-2.72-1.08-4.98-3.04-6.66-5.42-1.43-2.02-2.45-4.32-3.18-6.68-.26-.86-.49-1.73-.67-2.61-.1-.47-.08-1.11-.27-1.55-.02-.06-.02-.14-.02-.2-.04-.38-1.55-.08-1.5.4Z"/>
    <path class="cls-27" d="M677.04,414.53s-.08.06-.13.08c-.03-.12-.07-.24-.1-.36.08.09.15.19.23.28Z"/>
    <path class="cls-27" d="M683.2,363.55s.09.06.15.08c.03-.13.06-.27.09-.4-.08.11-.16.22-.24.33Z"/>
    <path class="cls-31" d="M947.75,227.22c1.41,47.13,6.39,125.78,6.39,125.78l-159.68,47.94,17.45,27.93s178.09-9.94,200.37-40.65c16.13-22.24,10.99-115.35,7.65-172.13-26.37,3.35-45.97,6.66-72.18,11.12Z"/>
    <path class="cls-20" d="M954.9,353.73c3.52-1.76,7.32-2.6,11-.8,3.66,1.79,6.37,5.19,8.78,8.37.38.5,2.04-.11,1.6-.69-2.64-3.49-5.71-7.29-9.91-8.94-4.08-1.6-8.38-.61-12.17,1.29-1.07.53-.09,1.17.7.77h0Z"/>
    <path class="cls-31" d="M811.91,428.87l-36.6,13.57-23.38-1.36c-7.22,1.03-14.48,1.64-21.77,1.85-3.21-.57-2.99-2.42-2.7-3.83.29-1.41,16.28-5.94,16.28-5.94,0,0-22.33,3.47-26.09,1.63s-2.77-5.09-1.68-6.95,37.22-4.85,37.22-4.85l-15.41-1.52s-19.76,5.11-24.75,3.46c-4.99-1.64-3.39-7.64-3.39-7.64l24.38-5.02,17.14-2.76-17.88.12s-17.53,3.7-21.65,1.18c-4.12-2.52-.29-7.16-.29-7.16l25.12-6.45,28.09-1.58c-3.38-1.54-6.53-3.56-9.36-5.97-3.98-3.62-.63-3.76-.63-3.76l25.11.08,23.61,14.24,8.6,28.67Z"/>
    <path class="cls-31" d="M697.9,435.03l17.36-4.2-7.21,6.27c-3.82,1.44-7.45,3.36-10.8,5.71-1.65,2.03.79,4.99.79,4.99l29.36-11.97,15.26-3.9c5.89-1.5,10.53-6.03,12.18-11.87l6.64-23.4-13.52-9.33-13.13-11.09-8.1-4.87-13.81-3.24s-3.22,3.55,2.11,7.1c5.34,3.54,8.65,5.38,8.65,5.38l6.61,7.46-2.43,3.83-28.45,8.48-9.98-.47s-9.62-4.82-15.87-.95c-.23.15-.42.37-.53.62-.34.74,0,1.61.73,1.95l17.65,7.85,10.69-.32-11.28,3.45s-15.29-2.51-20.68-.16c-5.38,2.36-1.69,4.59-1.69,4.59l19.32,6.23,17.27-1.59-11.36,3.86-15.41,1.64s-4.78.72-4.25,4.12c.17,1.25,1.13,2.25,2.38,2.46l21.48,1.38Z"/>
    <path class="cls-44" d="M763.85,395.85h0c7.15-1.55,14.67-1.75,20.45,2.87"/>
    <path class="cls-35" d="M662.87,404.03s-20.8,4.5-38.92,4.66c0,0,15.52-3.86,38.92-4.66Z"/>
    <path class="cls-35" d="M667.63,415.95s-20.7,19.87-39.69,30.41c0,0,16.86-14.49,39.69-30.41Z"/>
    <path class="cls-35" d="M679.25,425.23s-9.43,21.7-20.56,35.82c0,0,8.22-16.4,20.56-35.82Z"/>
    <path class="cls-35" d="M674.11,379.86s-14.9-19.36-21.6-32.17c0,0,11.42,13.29,21.6,32.17Z"/>
    <path class="cls-35" d="M686.1,375.25s-5.28-27.09-5.57-43.37c0,0,4.83,19.21,5.57,43.37Z"/>
    <path class="cls-35" d="M665.41,390.46s-27.72-8.76-45.72-20.25c0,0,20.04,6.74,45.72,20.25Z"/>
    <path class="cls-36" d="M962.2,293.24c-7.48-.62-16.99-2.75-24.4-3.94l-1.34-28.63s-7-64.95,9.35-93.15c11.65-20.09,17.37-17.05,17.37-17.05,0,0,58.63,2.44,59.54,58.91.25,15.62,6.22,50.67,4.59,77.64-19.34,7.56-44.57,7.93-65.11,6.22Z"/>
    <path class="cls-22" d="M953.3,164.91c-7.09,2.2-11.4,9.62-14.19,16-3.3,7.54-4.81,15.66-5.47,23.82-1.53,19.02.64,38.26,2.34,57.19.48,5.35.96,10.71,1.39,16.07.21,2.62.41,5.23.58,7.85.04.55-.09,1.28.32,1.65.15.14.46.23.64.32,2.26,1.11,4.56,2.15,6.89,3.1,2.41.98,5.03,2.07,7.66,2.21.8.04,1.9.25,2.82.37,2.58.36,5.17.64,7.77.88,8.52.77,17.27,1.3,25.82.66,13.05-.97,26.09-4.46,38.39-8.86.24-.09.49-.17.73-.26s.52-.25.53-.52c.04-4.31.07-8.62.11-12.93,0-.4-1.05-.11-1.17-.07-8.91,3.5-18.56,5.66-28.03,6.91-15.85,2.1-32.16.47-47.93-1.67-3.7-.5-7.4-1.04-11.08-1.71-.48-.09-1.98.67-1.06.84,10.43,1.92,21.05,3.11,31.63,3.82,8.51.57,17.04.8,25.54-.13,7.14-.78,14.22-2.21,21.14-4.12,3.51-.97,7.03-2.02,10.42-3.35l-1.17-.07c-.04,4.31-.07,8.62-.11,12.93l.53-.52c-10.26,3.82-21.12,6.68-31.96,8.2-8.56,1.21-17.25.96-25.86.42-5.03-.32-10.07-.77-15.05-1.57-1.32-.21-2.6-.27-3.9-.65-2.73-.8-5.36-1.93-7.95-3.1-1.02-.46-2.03-.93-3.03-1.42-.21-.1-.61-.21-.78-.38-.34-.34-.12-.84-.16-1.43-.35-5.07-.76-10.13-1.2-15.19-1.65-19.1-3.96-38.29-3.53-57.49.17-7.86.84-15.81,2.87-23.44,1.07-4.02,2.55-7.96,4.46-11.66,1.8-3.48,4.03-6.94,7.03-9.5,1.25-1.06,2.64-1.98,4.22-2.47.98-.31.81-1.05-.2-.74h0Z"/>
    <path class="cls-22" d="M1029.75,272.29c.09-15.73-1.3-31.37-1.82-47.08-.14-4.26-.19-8.52-.13-12.78,0-.45-1.69-.16-1.7.45-.23,15.1,1.21,30.14,1.74,45.22.17,4.88.25,9.76.22,14.65,0,.45,1.69.16,1.7-.45h0Z"/>
    <path class="cls-44" d="M882.91,372.49l-82.38,26.04-20.83-12.57-25.11-.08s-3.36.14.63,3.76c2.82,2.42,5.97,4.43,9.36,5.97l-28.09,1.58-25.12,6.45s-3.83,4.64.29,7.16c4.12,2.52,21.65-1.18,21.65-1.18l17.88-.12-17.14,2.76-24.38,5.02s-1.6,5.99,3.39,7.64c4.99,1.64,24.75-3.46,24.75-3.46l15.41,1.52s-36.12,2.99-37.22,4.85c-1.1,1.86-2.08,5.11,1.68,6.95,3.76,1.84,36.37-3.75,36.37-3.75,0,0-26.27,6.65-26.56,8.06-.29,1.41-.51,3.26,2.7,3.83,7.29-.21,14.55-.83,21.77-1.85l23.38,1.36,36.6-13.57h0s47.16-.41,92.39-9.75"/>
    <path class="cls-6" d="M827.62,150.12c5.92-3.45,15.15-9.67,15.15-9.67,0,0,6.5,13.79-7.23,21.79-13.73,8-20.93-5.27-20.93-5.27,0,0,7.09-3.4,13.01-6.85Z"/>
    <path class="cls-34" d="M827.36,149.59c2.82-1.64,13.91-8.68,13.91-8.68,0,0,1.14,9.93-9.04,15.86-11.04,6.43-16.25-.51-16.25-.51l11.38-6.67Z"/>
    <path class="cls-40" d="M827.67,150.61c2.82-1.64,11.13-7.06,11.13-7.06,0,0-1.45,4.6-9.89,9.52-8.45,4.92-12.72,3.75-12.72,3.75l11.48-6.22Z"/>
    <path class="cls-6" d="M813.07,156.69c.26-.24-.23.7,1.1-.22,2.22-1.54,3.36-2.95,4.98-4.05,2.76-1.88,5.2-1.91,6.45-2.64,1.25-.73,2.48-2.83,5.48-4.31,1.76-.87,6.26-2.74,8.7-3.92,1.46-.71,2.81-2.15,3.15-2.26.47-.15,1.28,3.1-14.47,12.28-15.75,9.18-15.75,5.46-15.39,5.12Z"/>
    <polygon class="cls-23" points="806.32 395.68 815.04 429.6 822.03 428.25 815.72 392.85 806.32 395.68"/>
    <path class="cls-23" d="M803.39,414.12c-3.62-6.2-1.53-14.16,4.67-17.78,6.18-3.61,14.13-1.54,17.76,4.63,3.64,6.19,1.57,14.15-4.61,17.79-6.19,3.64-14.15,1.57-17.79-4.61,0-.01-.01-.02-.02-.03Z"/>
    <path class="cls-36" d="M809.84,399.41s.02-.01.03-.02c4.6-2.67,10.5-1.09,13.16,3.51,2.67,4.6,1.09,10.5-3.51,13.16-4.6,2.67-10.5,1.1-13.16-3.51-2.66-4.59-1.1-10.47,3.48-13.15Z"/>
    <path class="cls-23" d="M814.8,406.74h0l-.97,1.23c-.94-2.36-1.34-4.9-1.16-7.43.3-.33,1.7,2.72,2.95,6.86l.52,1.2-1.35-.03h0c-4.26-.08-7.68-.56-7.67-1.09.01-.53,3.47-.92,7.69-.75Z"/>
  </g>
</svg>