<?xml version="1.0" encoding="UTF-8"?>
<svg xmlns="http://www.w3.org/2000/svg" xmlns:xlink="http://www.w3.org/1999/xlink" viewBox="0 0 1303.15 1057.31">
  <defs>
    <style>
      .cls-1 {
        fill: #008dce;
      }

      .cls-1, .cls-2, .cls-3, .cls-4, .cls-5, .cls-6, .cls-7, .cls-8, .cls-9, .cls-10, .cls-11, .cls-12, .cls-13, .cls-14, .cls-15, .cls-16, .cls-17, .cls-18, .cls-19, .cls-20, .cls-21, .cls-22, .cls-23, .cls-24, .cls-25, .cls-26, .cls-27, .cls-28, .cls-29, .cls-30, .cls-31, .cls-32, .cls-33 {
        stroke-width: 0px;
      }

      .cls-2 {
        fill: #010101;
      }

      .cls-3 {
        fill: #0d1335;
      }

      .cls-34 {
        stroke: #231f20;
        stroke-width: 1.04px;
      }

      .cls-34, .cls-35 {
        stroke-miterlimit: 10;
      }

      .cls-34, .cls-35, .cls-14 {
        fill: #000;
      }

      .cls-4 {
        fill: #f68e46;
      }

      .cls-35 {
        stroke: #000;
        stroke-width: .84px;
      }

      .cls-5 {
        fill: url(#linear-gradient);
      }

      .cls-6 {
        fill: #825639;
      }

      .cls-7 {
        fill: #f9da03;
      }

      .cls-8 {
        fill: #d4d2c9;
      }

      .cls-9 {
        fill: #32154c;
      }

      .cls-10 {
        fill: #4f2e25;
      }

      .cls-11 {
        fill: #8a4c98;
      }

      .cls-12 {
        fill: #151210;
      }

      .cls-13 {
        fill: #0f0a09;
      }

      .cls-15 {
        fill: #381e56;
      }

      .cls-16 {
        fill: #653c29;
      }

      .cls-17 {
        fill: #1d170f;
      }

      .cls-18 {
        fill: #848280;
      }

      .cls-19 {
        fill: #231f20;
      }

      .cls-20 {
        fill: #13110f;
      }

      .cls-21 {
        fill: #513835;
      }

      .cls-22 {
        fill: #0a2f44;
      }

      .cls-23 {
        fill: #2a4e73;
      }

      .cls-24 {
        fill: #3a221a;
      }

      .cls-25 {
        fill: #6b5a84;
      }

      .cls-26 {
        fill: #b589be;
      }

      .cls-27 {
        fill: #060505;
      }

      .cls-28 {
        fill: #0f1f28;
      }

      .cls-29 {
        fill: #ccb631;
      }

      .cls-30 {
        fill: #fff;
      }

      .cls-31 {
        fill: #a66e53;
      }

      .cls-32 {
        fill: #745245;
      }

      .cls-33 {
        fill: #f1eef7;
      }
    </style>
    <linearGradient id="linear-gradient" x1="744.24" y1="-589.3" x2="788.12" y2="-823.79" gradientTransform="translate(-387.07 627.38) rotate(14.03)" gradientUnits="userSpaceOnUse">
      <stop offset=".03" stop-color="#231f20"/>
      <stop offset=".18" stop-color="#230000"/>
      <stop offset="1" stop-color="#a66f54"/>
    </linearGradient>
  </defs>
  <g id="Layer_9" data-name="Layer 9">
    <polyline class="cls-8" points="1492.45 1223.57 1492.45 -63.91 -175.98 -63.91 -175.98 1223.57"/>
    <path class="cls-23" d="M1566.23,1113.44l-1.94-.74-3.44-136.74c-5.09-103.2-32.99-178.09-92.36-183.9-40.41,0-177.12-1.87-190.74,8.59-3.77-179.27,15.71-322.29-277.13-322.29l-322.81.78c-3.45,79.13-12.84,158-24.49,236.33-14.62,98.26,14.01,195.92-.96,294.12-7.52,49.35,57.45,99.06,51.08,148.58-6.49,50.44-13.06,100.87-19.44,151.33-9.7,76.73-19.01,153.57-27.01,230.54h921.54v-159.93c22.94-7.51,38.89-32.31,39.01-60.68v-114.07c-.07-43.71-18.59-72.24-51.32-91.93Z"/>
    <path class="cls-23" d="M745.3,1540.05c.9-22.47,1.77-44.94,2.46-67.41,1.58-51.71,93.12-103.4,93.12-155.13l-12-837.17-694.62-1.96c-150.4.03-175.43,143.02-179.2,322.29-13.61-10.47-150.32-8.59-190.74-8.59-59.37,5.81-87.27,80.7-92.36,183.9l-3.44,136.74-1.94.74c-32.73,19.68-51.25,48.21-51.32,91.93v114.07c.12,28.37,16.07,53.17,39.01,60.68v159.93H745.3Z"/>
  </g>
  <g id="Layer_1" data-name="Layer 1">
    <path class="cls-30" d="M390.96,337.12l-4.47,1.71c-29.65,5.9-99.73,30.23-123.42,49.04-35.56,28.07,28.07,148.71,25.74,178.07-1.05,14.25-11.45,119.51-41.22,196.75-19.69,51.4-36.25,103.91-49.61,157.29l83.85,30.07c40.97,14.69,83.81,23.56,127.19,26.34l105.86,5.48c9.56-55.61,26.62-99.76,41.22-175.1l45.81-235.66,3.86-108.78s-18.61-24.57-19.96-30.38l-62.13-49.52s10.67,52.81-33.48,49.57c-45.59-3.34-65.7-13.83-93.42-46.73,0,0-5.72-32.03-5.84-48.15Z"/>
  </g>
  <g id="Layer_4" data-name="Layer 4">
    <path class="cls-35" d="M1051.64,437.09s-116.44-6.03-132.98-6.23c-1.24-13.98,2.1-30.01,15.28-36.9,3.83-2,7.61-2.11,11.64-3.2,3.54-.95,5.53-4.72,7.8-7.34,8.04-9.3,18.98-7.59,29.86-5.87.69.11,1.25-.05,1.74-.31,1.2.63,1.91,1.07,1.91,1.07,0,0,5.94-6.91,19.5-7.53,13.56-.62,25.52,12.68,25.52,12.68,0,0,15.81-7.42,29.56,2.89,11.59,8.68,14.65,19.38,14.65,19.38,27.76,4.7,38.76,27.11,36.21,49.12,3.84,2.26,7.97,5.4,9.83,9.23.24.5.45,1.06.66,1.6.04.41.1.81.13,1.22.26,2.97.42,6.55.29,8.73-.37,6.46-1.67,11.25-5.97,15.79-.15.16-.18.37-.31.55-1.87,1.17-3.72,2.41-4.89,4.18-1.56,2.34,3.39,8.46,3.62,11.09.67,7.82,2.86,8.58-.89,20.09-1.39,4.57-3.21,9.02-5.25,13.37-2.99,2.94-6.37,4.99-10.12,5.81l-6.19-.18s-1.68,22.77-15.71,31.07c-14.04,8.3-31.97,6.37-31.97,6.37,0,0-5.2,18.49-22.1,16.25-16.9-2.24-40.57-34.21-40.57-34.21l85.97-47.21-17.24-81.49Z"/>
    <path class="cls-31" d="M931.44,588.16c9.77-2.34,48.03-7.04,57.33-11.03,4.26-1.82,36.18-18.02,40.04-20.79-15.93,34.23-8.68,50.11-4.72,56.32l7.63,11.64c-27.94,32.8-103.89,60.61-130.21-8.09l27.47-12.4,2.45-15.65Z"/>
    <path class="cls-34" d="M1066.53,548.79c-6.85,9.64-22.87,17.55-33.35,23.13-10.71,5.71-15.23,6.63-26.88,5.47-22.7-2.27-45.09-10.18-62.94-24.84-18.42-15.13-30.36-36.69-33.94-60.62-2.5-16.72-1.84-33.21,1.58-49.12.61-1.6,1.59-4.2,2.2-5.8,16.28-29.27,27.36-36.24,58.57-37.51,19.2-.98,36.59-10.28,64.07,4.97,5.92,3.29,11.67,11.37,19.14,16.46,11.25,7.67,22.97,19.85,26.62,30.87,5.33,16.12,2.79,36.57.52,55.94-1.72,14.68-6.89,28.79-15.44,40.84-.05.08-.11.15-.16.23Z"/>
    <path class="cls-31" d="M899.06,504.11c.7-4.81,1.55-10.4,2.61-17.13.31-1.95.65-3.82,1.01-5.66.27-.93.46-1.88.58-2.84,6.88-32.49,20.7-47.66,20.7-47.66,17.63-19.2,44.09-27.55,69.51-21.94,30.03,5.98,53.97,29.14,64.87,50.1,5.42,10.38,6.83,22.4,3.94,33.76-2.44,9.71-10.47,15.34-15.02,25.54,10.62,1.39,21.92,3.2,12.62,21.02-10.25,19.64-25.43,26-33.56,16.6-3.11,1.18,3.46-6.32,1.24,1.26-.64.42-6.83,22.88-7.25,23.72-4.26,8.53-14.18,7.44-22.63,10.45-8.89,3.16-18.19,5.63-27.44,7.49-13,2.61-26.93,4.01-40.42,2.75l.4-1.68c-5.83-1.46-3.23-.28-10.2-3.03-23.15-10.59-27.73-58.5-26.93-70.92.68-10.54,3.5-15.81,5.95-21.82Z"/>
    <path class="cls-10" d="M928.15,598.89s30.17,10.77,65.96-8.1c0,0-11.24,12.22-30.78,15.45-19.54,3.23-36.02-2.7-36.02-2.7l.84-4.65Z"/>
    <g>
      <path class="cls-12" d="M1032.47,528.56c.08-.14.44-6.31-1.41,1.01-.92,3.68,6-7.62,9.55-9.61,1.63-.91,3.54-1.9,5.46-2.35,1.92-.45,8.42-.29,10.42-.2,2.86-.17,8.96,4.92,11.51,6.11.42.26-2.56-4.06-2.14-3.8,11.34-19.97,18.03-36.86,6.78-65.62-3.25-8.29-14.13-18.68-17.43-21.99-20.05-19.83-40.67-24.53-66.81-26.53-30.29-2.32-64.39,2.12-76.98,29.02-3.03,6.48-3.26,17.18-.87,20.66,0,0,3.18-16.72,19.15-22.28,15.97-5.56,18.73-5.18,38.94-1.31,23.42,4.4,31.23,1.97,48.21,14.36,15.49,11.35,17.68,19.08,17.68,19.08.28,4.23,2.16,8.14,3.16,12.23.98,4.03.85,8.08.31,12.17-1.11,8.37-4.51,12.95-6.87,21.12-1.46,5.07-5.73,14.86-1.16,19.17,2.04,1.93-.18-.88,2.49-1.26Z"/>
      <path class="cls-19" d="M1034.09,528.37c.2-.66.21-1.88.01-2.53-.21-.71-.88-.84-1.57-.77-1.06.11-1.79.69-2.18,1.64-.41,1-.77,2.13-.95,3.2-.08.51-.11.91.37,1.2,1.48.9,3.15-.8,4-1.8,2.37-2.78,4.37-6.2,7.29-8.45.99-.76,2.29-1.33,3.46-1.81,1.26-.51,1.87-.63,3.22-.71,2.31-.14,4.64-.08,6.95,0,.83.03,1.62,0,2.41.29,1.2.44,2.33,1.13,3.41,1.8,2.01,1.25,4.01,3.06,6.22,3.92.94.37,2.17.04,2.8-.75.46-.58-.53-1.67-.82-2.14s-.58-.92-.87-1.39c-.08-.13-.18-.39-.3-.5-.32-.27.27-.41-.21.2l-2.8.75h.03c.83.34,2.31.12,2.8-.74,4.52-7.97,8.8-16.23,11.02-25.17,2.35-9.46,2.05-19.26-.23-28.71-1.26-5.22-2.81-10.72-5.45-15.42-2.29-4.08-5.31-7.73-8.43-11.19-5.9-6.53-12.29-12.76-19.49-17.85-7.87-5.56-16.68-9.58-25.96-12.15-9.52-2.64-19.38-3.83-29.21-4.61-18.16-1.43-37.61-.86-54.56,6.51-15.64,6.8-29.98,21.77-27.52,40.07.22,1.63.61,3.26,1.51,4.65.57.87,2.95.07,3.12-.84.64-3.31,2.12-6.57,3.85-9.44s3.8-5.36,6.34-7.47c3.2-2.66,6.9-4.13,10.8-5.42,3.28-1.09,6.61-2.14,10.03-2.65,2.95-.44,5.91-.41,8.87-.12,4.16.41,8.28,1.23,12.38,2.01,4.86.92,9.72,1.78,14.62,2.47,6.84.97,13.82,1.6,20.42,3.72,7.89,2.54,14.95,7.42,21.23,12.73,4.38,3.7,9.03,8.04,11.61,13.27.73,1.47.69,2.88,1.05,4.51.59,2.65,1.6,5.19,2.34,7.8.77,2.71,1.13,5.48,1.06,8.3-.12,5.08-1.2,9.97-3.03,14.69-.84,2.16-1.77,4.29-2.59,6.45-.81,2.12-1.43,4.28-2.13,6.43-1.19,3.72-2.61,7.52-2.74,11.47-.05,1.71.12,3.44.93,4.98.71,1.33,1.94,2.89,3.62,2.58.71-.13,1.49-.48,1.72-1.21.05-.14.01-.3.04-.45.12-.63.25-.36-.36-.24.58-.11,1.74-.39,1.83-1.13s-.92-.84-1.41-.74c-1.07.21-2.31.53-2.96,1.51-.16.25-.28.55-.33.84-.04.22-.15.63,0,.45.43-.27.86-.53,1.29-.8h-.05c.4,0,.81-.02,1.21-.04.33.08-.35-.39-.46-.51-.3-.3-.57-.63-.8-.99-.46-.73-.72-1.59-.87-2.44-.34-1.93-.07-3.93.31-5.83.77-3.76,2.09-7.45,3.27-11.1,1.46-4.49,3.6-8.73,4.99-13.24,1.5-4.87,2.15-10.22,1.6-15.3-.3-2.77-1.15-5.39-2-8.03-.4-1.22-.78-2.44-1.1-3.69s-.34-2.55-.63-3.78c-.17-.73-.61-1.46-.96-2.11-3.11-5.68-8.13-10.31-13.11-14.33-6.21-5-12.97-9.44-20.61-11.89-6.66-2.14-13.71-2.77-20.6-3.75-9.02-1.28-17.92-3.5-26.98-4.48-6.57-.71-12.77.26-19.05,2.23-4.03,1.26-8.11,2.53-11.72,4.78-3.04,1.89-5.69,4.34-7.89,7.16-2.83,3.63-4.99,7.96-6.12,12.43-.06.25-.12.49-.17.74,1.04-.28,2.08-.56,3.12-.84-.88-1.35-1.16-3.12-1.33-4.68-.25-2.24-.2-4.5.05-6.74.49-4.48,1.91-8.52,4.2-12.39,4.2-7.08,10.42-12.63,17.68-16.45,15.42-8.11,34.04-9.03,51.1-8.09,18.6,1.03,37.59,3.86,53.76,13.69,7.61,4.62,14.13,10.58,20.31,16.94,3.04,3.13,5.97,6.37,8.58,9.87,1.31,1.76,2.57,3.59,3.58,5.54,1.23,2.35,2.07,4.92,2.91,7.43,3.13,9.44,4.76,19.41,3.39,29.33-1.2,8.7-4.58,16.84-8.64,24.57-1.07,2.03-2.18,4.04-3.31,6.04l2.8-.75h-.03c-.94-.38-2.17-.05-2.8.74-.46.58.53,1.67.82,2.14s.58.92.87,1.39c.08.13.18.39.3.5.32.27-.27.41.21-.2l2.8-.75c-1.44-.56-2.76-1.66-4.04-2.51-1.64-1.09-3.3-2.21-5.11-3.01-2.88-1.26-6.49-.89-9.56-.84-1.74.03-3.52.04-5.21.5-2.29.62-4.76,1.7-6.65,3.16-2.43,1.87-4.3,4.51-6.18,6.9-.75.95-1.73,1.87-2.41,2.86.26-.37,2.41.04,2.46-.06.16-.36.2-.86.3-1.23.14-.54.29-1.07.47-1.6.04-.12.14-.32.16-.45.09-.61,1.34-.23-.99.39l-1.21.06c-.68-.15-.47-.55-.44.04,0,.23.03.46.02.69,0,.35.03.78-.08,1.12-.36,1.18,2.9.75,3.25-.39Z"/>
    </g>
    <ellipse class="cls-19" cx="910.27" cy="497.45" rx="6.5" ry="6.53" transform="translate(-29.58 58.43) rotate(-3.62)"/>
    <path class="cls-12" d="M904.92,491.36c3.4-1.4,6.81-2.53,12.92-.89,9.78,2.63,13.45,15.1,13.45,15.1,0,0-5.22-8.26-14.81-11.1-4.62-1.37-12.04-1.21-15.96-.01.26-.93,2.35-2.15,4.41-3.1Z"/>
    <path class="cls-19" d="M1038.69,538.07c.06-.03.13-.05.19-.08.03-.01.07-.02.1-.04.11-.04-.21.07-.04.01.12-.04.24-.08.36-.11.49-.14.86-.23,1.32-.19,1.05.09,1.48,1.01,1.5,2.02.04,2.17-1.11,4.47-2.87,5.73-1.35.97-2.96,1.25-4.59,1.12-.35-.03-.86.12-1.03.46s.15.54.46.57c3.5.27,6.95-1.18,8.65-4.36.98-1.83,1.99-5.83-.93-6.48-1.23-.27-2.63.05-3.77.55-.26.12-.61.42-.4.73s.79.19,1.06.07h0Z"/>
    <path class="cls-17" d="M983.33,509.86c0,4.47-4.25,7.61-8.5,6.27-2.64-.83-4.51-3.39-4.51-6.16,0-4.47,4.25-7.61,8.5-6.27,2.64.83,4.51,3.39,4.51,6.16Z"/>
    <path class="cls-12" d="M960.9,511.48s8.03-12.45,22.46-9.57c12.28,2.45,15.74,9.43,17.68,13.73,0,0-6.4-7.34-18.2-10.11-10.7-2.51-21.94,5.95-21.94,5.95Z"/>
    <path class="cls-16" d="M935.6,554.28c9.26,1.61,26.49,3.26,26.49,3.26,0,0-5,25.16-30.59,20.28-21.4-4.08-16.6-26.47-16.6-26.47,0,0,11.45,1.32,20.7,2.93Z"/>
    <path class="cls-13" d="M935.51,554.26c4.4.77,20.82,3.45,20.82,3.45,0,0-7.23,13.49-23.14,10.71-17.26-3.01-15.07-16.3-15.07-16.3l17.39,2.14Z"/>
    <path class="cls-33" d="M935.04,555.86c4.4.77,17.92,2.39,17.92,2.39,0,0-5.63,3.79-18.83,1.49-13.2-2.3-16.61-7.53-16.61-7.53l17.52,3.65Z"/>
    <path class="cls-16" d="M913.75,549.73c.08-.48,1.07-.52,3.29-.31,3.69.33,5.11-.76,7.78-.49,4.56.45,7.13,2.66,9.08,3,1.96.34,5.12-.87,9.57.25,2.61.66,10.55,3,14.14,3.94,2.15.56,4.86.19,5.31.38.62.27-3.51,5.69-28.13,1.39-24.62-4.3-21.15-7.51-21.04-8.16Z"/>
    <path class="cls-20" d="M966.58,485.97c.01-.23.79-.16.8-.39,12.52-1.45,21.8-.51,25.1.57,2.51.82,4.88,2.18,7.06,3.91,0,0,6.06,4.64,6.67,6.26.61,1.62-3.88-1.27-3.88-1.27-.98-.45-1.63-.93-2.66-1.24-5.63-1.69-10.92-4.16-16.8-4.11-5.03.01-12.1,2.18-17.08,3.51.15-2.5.83-4.74.79-7.23Z"/>
    <path class="cls-20" d="M935.48,482.74c.06-.22-.6-.39-.54-.61-9.83-5.12-17.75-7-20.81-6.96-2.32.03-4.69.61-7.03,1.59,0,0-2.84.37-3.85,1.72-1.01,1.35,0,2.17,0,2.17.95-.13,1.63-.39,2.57-.38,5.16.08,10.28-.68,15.09,1.13,4.13,1.52,9.26,5.68,12.94,8.43.66-2.42.81-4.74,1.62-7.09Z"/>
    <g>
      <path class="cls-2" d="M931.8,536.73c2.01,1.62,5.48,2.02,8.01,1.07.56-.21,2.17.42,1.38.72-3.35,1.26-8.29.46-10.88-1.63-.26-.21-.16-.42.22-.47.4-.05.99.09,1.26.31"/>
      <path class="cls-2" d="M942.3,538.06c1.65-.42,3.41-.46,5.12-.26.25.03.55.19.7.39.12.16.11.33-.09.4-.86.29-1.89.28-2.8.09-.29-.06-.65-.21-.76-.49-.1-.26.2-.35.42-.3.75.16,1.55.17,2.26-.08.2.26.41.52.61.79-1.53-.18-3.11-.13-4.58.24-.29.07-.66-.08-.87-.28-.16-.14-.3-.43,0-.51"/>
      <path class="cls-2" d="M948.95,539.6c1.98.34,4.47-.06,5.73-1.36,1.9-1.96,1.27-6.01-.91-7.93-.24-.21-.06-.38.23-.39.37,0,.76.21,1.01.43,1.9,1.68,2.68,5.09,1.95,7.14-.69,1.91-2.84,2.91-5.32,3.02-.74.03-1.51,0-2.25-.13-.3-.05-.82-.25-.92-.51-.1-.27.19-.32.47-.27"/>
      <path class="cls-2" d="M928.39,535.01c.15-.21-.02-.39-.18-.42-.54-.09-1.05-.35-1.43-.81-.22.18-.43.36-.65.54,1.04.33,2.04.89,2.87,1.72.16.17.45.14.65.03.15-.08.33-.3.17-.47"/>
      <path class="cls-2" d="M929.82,535.59c-.93-.93-2.05-1.54-3.22-1.91-.17-.05-.42,0-.58.13-.13.11-.18.27-.07.41"/>
      <path class="cls-2" d="M924.24,534.47c-1.27-.3-2.61-1.46-2.95-3.08-.51-2.44.9-4.93,2.78-6.05.2-.12.15-.34-.01-.44-.22-.12-.51-.04-.73.08-1.64.98-2.94,2.83-3.15,4.98-.19,2.01.77,3.63,2.19,4.5.42.26.89.47,1.36.58.19.04.56.02.7-.19.14-.22-.01-.36-.2-.4"/>
    </g>
    <path class="cls-31" d="M1044.99,510.17c-1.43.29-11.24-6.88-12.71-5.56-16.52-41.98-84.67-72.26-123.72-46.05,2.36-5.67,13.13-22.81,14.61-24.53,16-18.65,41.86-24.99,69.17-23.17,27.31,1.83,59.34,15.5,71.54,45.6,11.84,29.19,10.59,53.91-18.89,53.7Z"/>
    <g>
      <path class="cls-14" d="M1024.76,470.1l.65-.95c.97,2.57,2.91,4.77,5.34,6.05,1.44.75,3.33,1.64,3.19,3.25-.04.47-.27.92-.31,1.39-.26,3.02,5.58,2.04,7.02,4.71,1.22,2.25-1.74,5.07-.69,7.4.94,2.07,4.3,2.04,5.23,4.11,1.15,2.56-2.52,5.76-.89,8.05,1.18,1.65,4.14,1.08,5.25,2.78.52.8.45,1.84.42,2.84-5.02.87-10.08,2.08-15.38,2.92.11-1.1.38-2.23.76-3.23.35-.89.72-1.88.37-2.78-.77-1.97-3.92-1.38-5.46-2.83-2.7-2.56,2.18-7.41.25-10.58-1.16-1.9-4.28-2.12-5.01-4.22-.96-2.76,3.15-6.1,1.14-8.22-.61-.65-1.58-.8-2.35-1.25-1.52-.89-2.08-2.91-1.79-4.65.3-1.74,1.28-3.28,2.23-4.77Z"/>
      <path class="cls-14" d="M1025.44,470.07l.65-.95-1.43.23c.82,2.07,2.16,3.9,3.96,5.22,1.48,1.09,4.94,1.97,4.52,4.35-.25,1.4-.41,2.33,1.02,3.09,1.34.7,2.9.82,4.26,1.48,4.33,2.1-1.29,6.55,1.31,9.42,1.17,1.29,3.17,1.43,4.32,2.74,1.4,1.59.11,3.71-.48,5.36s-.6,3.42,1.24,4.28c.9.42,1.92.51,2.83.91,1.6.7,1.64,2.18,1.6,3.72l.87-.53c-5.14.9-10.23,2.09-15.38,2.92l.62.21c.13-1.11.39-2.18.76-3.23.34-.94.77-2,.32-2.98-.61-1.33-2.28-1.52-3.52-1.86-1.65-.46-2.83-1.4-2.7-3.22.11-1.57.86-3.04,1.25-4.54.34-1.32.48-2.78-.38-3.94-.97-1.31-2.67-1.69-3.89-2.69-3.13-2.58,1.52-5.72.7-8.63-.22-.79-.86-1.25-1.57-1.59-1.19-.57-2.15-.92-2.72-2.21-1.18-2.65.43-5.36,1.84-7.55.31-.49-1.15-.29-1.37.06-1.15,1.79-2.41,3.73-2.37,5.94.03,1.78.89,3.29,2.52,4.03.91.41,1.97.74,2.2,1.84.16.78-.15,1.58-.44,2.29-.58,1.39-1.54,2.88-1.33,4.45.45,3.36,5.74,2.85,5.59,6.71-.09,2.52-2.75,5.93-1,8.3,1.1,1.49,3.12,1.31,4.64,2.05,1.23.6,1.41,1.77,1.03,3.01-.42,1.36-.88,2.59-1.05,4.02-.04.29.45.24.62.21,5.15-.84,10.24-2.02,15.38-2.92.25-.04.86-.18.87-.53.03-1.07.11-2.27-.64-3.14-.56-.65-1.43-.92-2.23-1.15s-1.79-.4-2.47-.99c-.84-.74-.86-1.79-.58-2.79.44-1.57,1.54-3.12,1.34-4.81-.2-1.79-1.97-2.45-3.37-3.15-.81-.41-1.68-.88-2.07-1.74-.47-1.03-.11-2.17.23-3.18.51-1.49,1.29-3.25.16-4.65-.89-1.1-2.46-1.45-3.75-1.83s-3.11-.79-2.95-2.46c.11-1.1.56-1.84-.21-2.83-.68-.88-1.79-1.34-2.74-1.86-2.44-1.32-4.28-3.4-5.3-5.98-.16-.41-1.26-.02-1.43.23l-.65.95c-.32.47,1.14.28,1.37-.06Z"/>
    </g>
    <g>
      <path class="cls-14" d="M1032.64,455.45c-1.64,1.17-2.39,3.46-1.76,5.37.63,1.92,2.58,3.31,4.6,3.29-1.27,2.28-.25,5.53,2.1,6.67,1.01.49,2.22.65,2.99,1.46,1.89,2-.48,5.88,1.44,7.85.72.74,1.87.95,2.58,1.7,1.45,1.55.21,4.24,1.16,6.14,1.16,2.33,4.96,2.36,5.99,4.75.72,1.68-.19,4.05,1.25,5.19.75.6,1.92.58,2.51,1.33.72.91.12,2.21-.06,3.35-.46,2.83,2.56,5.62,5.35,4.94-.24,1.91.35,3.92,1.6,5.39,1.48-1.65,3-3.37,3.7-5.47.7-2.11.36-4.72-1.4-6.08-.68-.53-1.54-.84-2.07-1.52-1.35-1.71.12-4.63-1.35-6.24-.99-1.08-2.96-1.08-3.57-2.42-.29-.64-.14-1.39-.14-2.09,0-2.5-2.21-4.79-4.71-4.88-.71-.02-1.48.09-2.07-.29-1.73-1.1.36-3.83-.24-5.79-.58-1.92-3.56-2.39-3.94-4.37-.13-.66.08-1.33.02-2-.1-1.06-.84-1.92-1.55-2.71-3.67-4.02-7.47-7.92-11.4-11.68"/>
      <path class="cls-14" d="M1032.15,455.11c-1.76,1.37-2.72,3.72-2.01,5.91.7,2.17,2.86,3.56,5.09,3.63l-.45-.62c-.79,1.55-.77,3.35.01,4.9.39.78.97,1.48,1.69,1.97.91.62,2.04.74,2.96,1.32,1.86,1.18.99,3.76,1.03,5.57.02.76.12,1.53.53,2.19.53.84,1.4,1.16,2.22,1.64,2.19,1.3,1.02,3.87,1.58,5.9.47,1.7,1.99,2.49,3.46,3.21.84.42,1.78.83,2.39,1.58.72.88.67,2,.72,3.08.04.81.07,1.69.55,2.38.53.77,1.34.92,2.14,1.28,1.77.8.7,2.47.62,3.92-.06,1,.25,1.98.8,2.81,1.21,1.83,3.36,2.65,5.48,2.24l-.89-.45c-.2,2.07.38,4.04,1.67,5.66.32.4,1.02.22,1.31-.11,1.68-1.88,3.46-3.89,4.02-6.43.45-2.05-.05-4.43-1.77-5.77-1.05-.82-2.16-1.14-2.44-2.6-.22-1.16.05-2.36-.16-3.52-.15-.83-.56-1.53-1.26-2.02-.86-.61-2.29-.75-2.88-1.69s-.09-2.45-.43-3.54c-.32-1.01-.95-1.91-1.75-2.59-.73-.62-1.62-1.05-2.56-1.22-1.17-.21-2.96.29-2.95-1.43.01-1.88,1.29-3.74-.13-5.43-.58-.69-1.38-1.14-2.09-1.68-1.2-.9-1.24-1.65-1.22-3.1s-.75-2.39-1.64-3.38c-1.18-1.31-2.39-2.59-3.6-3.86-2.54-2.67-5.14-5.27-7.8-7.82-.48-.46-1.9.15-1.37.66,2.2,2.11,4.36,4.25,6.47,6.43,1.06,1.09,2.11,2.2,3.14,3.31.99,1.07,2.28,2.16,2.95,3.48.57,1.12,0,2.29.43,3.42.29.78.95,1.32,1.6,1.8.69.51,1.54.95,2,1.71.61,1,.2,2.19-.03,3.24-.36,1.67-.27,3.37,1.79,3.62,1.27.16,2.33.01,3.45.79,1.02.72,1.78,1.86,1.97,3.1.16,1.05-.24,2.19.4,3.14.5.75,1.39,1.05,2.17,1.41,1.1.5,1.75,1.12,1.88,2.37.12,1.11-.11,2.25.15,3.36s1.02,1.79,1.98,2.39c1.24.77,2.01,1.74,2.26,3.21.55,3.27-1.81,5.95-3.83,8.2l1.31-.11c-1.19-1.48-1.71-3.22-1.53-5.11.05-.49-.57-.51-.89-.45-2.23.43-4.44-1.71-4.49-3.89-.04-1.78,1.29-3.79-.83-4.88-.88-.45-1.86-.5-2.27-1.54-.34-.85-.2-1.87-.27-2.76-.14-1.7-1.02-2.79-2.48-3.6s-3.42-1.34-3.99-3.06c-.56-1.7.25-3.66-.67-5.28-.91-1.62-3.25-1.56-3.62-3.59-.31-1.69.38-3.44-.06-5.13-.58-2.22-2.76-2.13-4.36-3.23-1.85-1.28-2.43-3.88-1.43-5.85.16-.31-.14-.62-.45-.62-4.04-.12-5.85-5.25-2.6-7.78.8-.62-.41-1.13-.99-.68h0Z"/>
    </g>
    <g>
      <path class="cls-14" d="M1037.27,450.53c-1.15,2.93.64,6.64,3.65,7.57.59.18,1.23.28,1.71.68.99.83.71,2.38.92,3.65.49,2.87,3.71,4.38,6.58,4.86,1.84.31,4.17.8,4.5,2.64.13.72-.13,1.5.12,2.19.66,1.84,4.11,1.56,4.38,3.5.12.89-.6,1.71-.53,2.61.15,1.89,3.13,1.84,4.34,3.31.56.68.66,1.62.73,2.49.23,2.68.47,5.35.7,8.03.06.66.18,1.42.75,1.74.97.55,1.99-.64,2.43-1.66,2.51-5.74,3.52-12.13,2.9-18.37-.15-1.56-.77-3.48-2.33-3.64-.52-.05-1.09.11-1.52-.17-.71-.46-.4-1.54-.18-2.35.9-3.38-2.15-7.19-5.65-7.06-.94.04-2.07.24-2.67-.48-.4-.48-.38-1.18-.56-1.78-.46-1.55-2.2-2.31-3.79-2.58-1.59-.27-3.29-.26-4.67-1.08-1.73-1.04-2.67-3.23-4.59-3.86-2.32-.77-5.31,1.04-7.11-.61"/>
      <path class="cls-14" d="M1036.53,450.63c-.65,1.83-.35,3.81.71,5.43.49.75,1.14,1.39,1.91,1.86.96.58,2.53.6,3.13,1.58.53.87.35,1.99.5,2.96s.57,1.8,1.21,2.52c1.35,1.49,3.41,2.25,5.34,2.63,1.02.2,2.07.32,3.01.77,1.38.65,1.53,1.54,1.55,2.97.02,1.93,1.58,2.34,3.08,3.03.93.43,1.57.97,1.35,2.08-.19.93-.77,1.75-.23,2.67.82,1.41,2.89,1.37,3.98,2.48.89.91.84,2.37.94,3.54.14,1.57.28,3.15.41,4.72.14,1.59-.14,4.73,2.28,4.41,2.09-.27,2.82-2.66,3.44-4.34.97-2.66,1.63-5.44,1.97-8.25.31-2.55.36-5.14.14-7.69-.15-1.7-.63-3.99-2.66-4.27-.61-.08-1.51.03-1.67-.72-.12-.58.21-1.28.32-1.84.17-.93.09-1.9-.22-2.79-.61-1.74-2.01-3.23-3.74-3.88-1.02-.38-1.95-.31-3.01-.32-1.14-.01-1.5-.25-1.81-1.36-.14-.51-.2-.99-.48-1.45-1.36-2.22-4.36-1.98-6.56-2.47-1.46-.32-2.42-1.08-3.4-2.15-.78-.84-1.54-1.76-2.61-2.23-2.3-1.01-5.34.92-7.33-.66-.39-.31-1.77.27-1.39.57,1.48,1.18,3.3.79,5.04.6,1.33-.15,2.42-.04,3.48.84.79.65,1.39,1.5,2.12,2.2,1.63,1.56,3.64,1.65,5.77,1.99,1.11.18,2.29.53,3.08,1.37s.5,2.09,1.23,2.92c.44.5,1.13.62,1.77.65,1.13.05,2.11-.14,3.2.33,1.85.81,3.23,2.71,3.43,4.72.13,1.31-1.3,3.99.68,4.44.52.12,1.11-.06,1.61.15s.82.69,1.04,1.14c.51,1.02.58,2.2.66,3.32.36,5.25-.45,10.58-2.31,15.5-.25.66-1.21,3.65-2.05,2.5-.65-.89-.45-2.77-.54-3.83-.12-1.34-.23-2.68-.35-4.01-.1-1.17-.05-2.55-.65-3.6-.81-1.43-2.56-1.53-3.78-2.41-1.79-1.29.65-3.2-.66-4.7-.95-1.09-2.7-1.01-3.64-2.09-.77-.88-.17-2.12-.56-3.13-.28-.72-.9-1.2-1.57-1.54-1.96-.98-4.26-.86-6.25-1.85-1.1-.54-2.16-1.34-2.73-2.45-.5-.97-.45-2-.57-3.06-.1-.91-.39-1.7-1.22-2.17-1.09-.61-2.26-.64-3.25-1.52-1.75-1.56-2.44-4.07-1.66-6.28.16-.46-1.32-.28-1.49.2h0Z"/>
    </g>
    <g>
      <path class="cls-14" d="M1042.55,447.81c3.47,2.38,8.75-2.48,12.16-.01,1.65,1.19,2.42,3.89,4.45,3.9.93,0,1.85-.64,2.74-.38,1.87.53.99,3.48,1.97,5.16,1.23,2.09,4.89,1.42,6.17,3.48.36.58.45,1.29.77,1.89.59,1.13,1.83,1.73,2.89,2.46,1.05.73,2.05,1.91,1.75,3.15,3.41-3.9,3.43-10.32.05-14.25-.36-.42-.77-.83-.95-1.36-.18-.51-.12-1.08-.12-1.62,0-2.74-1.58-5.43-3.98-6.76-.84-.46-1.81-.81-2.33-1.61-.74-1.13-.28-2.63-.55-3.95-.61-3.09-4.59-4.03-6.61-6.44-.84-1-1.33-2.26-2.09-3.31-.82-1.13-1.97-2.02-3.27-2.54-1.03-.41-2.37-.53-3.12.29-.52.56-.6,1.4-.97,2.06-.95,1.68-3.33,1.73-5.24,1.45-1.91-.28-4.16-.57-5.5.82-1.89,1.98-.19,5.34-1.02,7.94-.36,1.14-1.21,2.1-1.47,3.27-.24,1.07.05,2.18.33,3.24.5,1.88,1.01,3.75,1.51,5.63"/>
      <path class="cls-14" d="M1041.78,448.08c2.24,1.42,5.04.44,7.38-.2,1.45-.39,3.03-.82,4.43-.04,1.29.72,1.92,2.14,2.92,3.17.94.96,2.02,1.13,3.3.84.97-.22,1.8-.44,2.3.56.27.55.31,1.22.37,1.82.15,1.29.31,2.57,1.46,3.36s2.53.87,3.75,1.38c.84.36,1.45.87,1.8,1.73s.58,1.66,1.29,2.33c1.44,1.36,4.21,2.16,3.85,4.61-.05.34,1.47-.19,1.61-.36,1.88-2.24,2.76-5.15,2.55-8.06-.1-1.46-.48-2.9-1.13-4.21-.66-1.33-2.26-2.53-2.42-4-.19-1.73-.13-3.19-1.01-4.77-.71-1.27-1.76-2.35-3.03-3.07-.62-.35-1.32-.61-1.87-1.09-.71-.63-.85-1.48-.87-2.37-.04-1.45-.04-2.7-.99-3.88-1.68-2.09-4.49-2.87-6.07-5.07-.93-1.29-1.49-2.78-2.67-3.9-1.02-.97-2.39-1.77-3.81-1.89-.96-.08-2.11.12-2.89.72-1.52,1.16-.9,3.36-3.35,3.5-2.7.16-5.32-1.01-7.86.48-3.15,1.85-1.02,5.84-1.89,8.64-.28.9-.87,1.65-1.22,2.52-.39.95-.4,1.92-.2,2.92.44,2.28,1.19,4.54,1.79,6.78.09.34,1.71-.09,1.62-.43-.46-1.72-.93-3.44-1.39-5.16-.24-.9-.55-1.84-.55-2.79,0-1.01.41-1.82.87-2.68.63-1.18.95-2.24.93-3.58-.02-1.45-.39-2.99,0-4.41.9-3.33,5.47-1.33,7.97-1.72.92-.14,1.88-.42,2.64-.97,1.21-.88,1.11-3.25,2.88-3.08,1.43.14,2.97,1.56,3.77,2.66.85,1.16,1.36,2.53,2.34,3.6,1.65,1.79,4.24,2.58,5.67,4.57.76,1.06.76,2.19.79,3.44.03,1.57.5,2.5,1.87,3.26s2.49,1.41,3.4,2.67,1.41,2.67,1.49,4.16c.05.91-.1,1.73.43,2.54.44.69,1.06,1.25,1.5,1.94.82,1.28,1.33,2.75,1.56,4.25.46,3.15-.38,6.36-2.43,8.8l1.61-.36c.28-1.9-1.45-2.97-2.83-3.88-.7-.46-1.39-.97-1.8-1.73s-.48-1.62-1.06-2.27c-1.88-2.12-5.67-.98-6.31-4.39-.21-1.11-.04-2.62-.88-3.49-1.28-1.32-3.11.36-4.48-.31-1.22-.6-1.85-2.08-2.75-3.04-.9-.95-2.04-1.35-3.33-1.36-3.04-.02-6.67,2.57-9.49.78-.38-.24-1.72.42-1.53.54h0Z"/>
    </g>
    <g>
      <path class="cls-14" d="M1031.47,445.65c-2.05-1.46-2.33-4.84-.55-6.62.59-.59,1.43-1.21,1.26-2.03-.08-.35-.34-.63-.55-.92-1.36-1.85-.75-4.82,1.22-5.99.42-.25.89-.43,1.21-.79,1.34-1.48-.81-4.5.83-5.64,1.38-.96,3.2,1.06,4.83.64,1.58-.41,1.88-2.79,3.4-3.38,2.26-.88,5.1,2.81,6.76,1.04.87-.93.2-2.53-.87-3.21-1.07-.68-2.4-.8-3.57-1.28-3.04-1.25-4.57-4.62-7.06-6.77-2.6-2.24-6.11-3.02-9.46-3.73-1.44-.3-2.93-.61-4.37-.32-2.22.45-4.05,2.42-4.33,4.67-.05.44-.08.94-.42,1.22-.2.17-.46.22-.72.27-1.26.24-2.53.48-3.79.73-.48.09-1.01.21-1.3.6-.67.9.51,2.06,1.59,2.37,1.08.31,2.46.56,2.75,1.65.54,2.02-3.41,2.77-3.4,4.87,0,2.17,4.02,2.31,4.3,4.46.16,1.28-1.19,2.3-1.3,3.58-.12,1.32,1.08,2.37,2.27,2.97,1.18.59,2.54,1.04,3.3,2.12.58.82.7,1.87,1.02,2.83.95,2.91,3.61,4.87,6.12,6.62"/>
      <path class="cls-14" d="M1032.17,445.35c-2.04-1.59-2.2-4.57-.4-6.39.57-.58,1.36-1.24,1.17-2.16-.1-.5-.53-.86-.78-1.28-.37-.64-.54-1.42-.49-2.16.07-1.21.64-2.36,1.67-3.02.86-.55,1.7-.92,1.91-2.02.16-.81-.06-1.65-.16-2.45-.06-.46-.16-.98,0-1.43.29-.89,1.07-.47,1.71-.22,1.71.66,3.39.94,4.72-.6.59-.68,1.07-2.15,2.03-2.37s2.29.78,3.13,1.15c1.34.6,3.23.85,4.12-.65,1.2-2.02-1.27-3.59-2.85-4.09-1.43-.45-2.66-.79-3.82-1.78-.99-.84-1.79-1.87-2.61-2.87-1.7-2.07-3.49-3.73-6-4.77s-5.34-1.7-8.03-2.06c-2.36-.32-4.73.18-6.41,1.97-.71.76-1.24,1.69-1.48,2.71-.13.55-.01,1.22-.59,1.52-.74.39-2,.38-2.85.54-.93.18-2.24.28-2.84,1.16s.03,1.77.76,2.3c.92.67,2.32.54,3.14,1.33.99.95.06,1.87-.73,2.5-1.06.84-2.73,1.92-2.19,3.52.62,1.85,3.36,1.77,4.09,3.49.5,1.17-.69,2.24-1.04,3.27-.43,1.3.21,2.42,1.23,3.22,1.15.9,2.7,1.18,3.78,2.17,1.11,1.03,1.12,2.66,1.7,3.97,1.19,2.68,3.68,4.46,6.01,6.09.43.3,1.8-.32,1.18-.76-2.18-1.53-4.57-3.22-5.69-5.74-.46-1.04-.55-2.21-1.09-3.22-.51-.96-1.39-1.52-2.34-1.99-1.05-.52-2.23-.92-2.96-1.9-1.04-1.39,0-2.43.56-3.71.73-1.68-.31-2.74-1.7-3.54s-3.33-1.88-1.66-3.53c.92-.91,2.78-1.69,2.78-3.21,0-2.27-3.28-1.76-4.31-3.14-.8-1.08.82-1.35,1.52-1.48.63-.12,1.26-.24,1.9-.36,1.01-.19,2.12-.28,2.56-1.34.19-.47.16-1.03.3-1.52.17-.64.49-1.26.9-1.78,1.11-1.42,2.69-1.9,4.44-1.71,2.72.29,5.73,1.02,8.23,2.13s4.16,2.93,5.88,5.01c1.34,1.63,2.78,3.17,4.83,3.87,1.24.43,2.79.55,3.64,1.66.36.47.75,1.41.34,1.97s-1.17.12-1.67-.1c-1.5-.67-2.99-1.64-4.69-1.06-.67.23-1.19.66-1.63,1.2-.68.85-1.1,2.27-2.38,2.12-.93-.11-1.74-.77-2.7-.87-.75-.07-1.53.12-2.11.63-1.57,1.37.09,3.5-.52,5.14-.27.72-1.12.94-1.69,1.38-.37.28-.69.61-.96.99-.59.83-.89,1.85-.87,2.86,0,.57.12,1.13.35,1.65s.86,1.07.93,1.59c.11.74-.69,1.23-1.12,1.69-.4.42-.72.87-.94,1.4-.83,1.96-.28,4.35,1.4,5.66.44.34,1.83-.25,1.38-.6h0Z"/>
    </g>
    <g>
      <path class="cls-14" d="M1028.45,451.12c.27-3.12-4.26-3.94-6.43-6.19-1.66-1.72-2.01-4.53-3.99-5.88-1.42-.97-3.56-1.1-4.29-2.65-.43-.91-.18-1.98-.38-2.96-.73-3.76-6.99-4.32-7.6-8.09-.54-3.4,4.15-6.53,2.6-9.61-.48-.96-1.5-1.59-1.85-2.61-.7-2.04,1.59-3.76,3.52-4.71,2.7-1.32,5.4-2.65,8.11-3.97-4.87-3.75-10.83-6.05-16.95-6.55-2.25-.18-4.63-.09-6.58,1.05-1.94,1.15-3.24,3.64-2.4,5.73.25.61.66,1.16.81,1.81.65,2.83-3.91,5.58-2.23,7.96.39.55,1.05.87,1.42,1.44,1.09,1.64-.86,3.96-.04,5.75.71,1.55,2.96,1.63,4.13,2.87.71.75.94,1.82,1.4,2.75.64,1.29,1.73,2.28,2.8,3.24,3.04,2.73,6.07,5.46,9.11,8.19,2.15,1.93,4.5,3.96,7.37,4.27.92,5.38,6.65,9.44,12.03,8.53"/>
      <path class="cls-14" d="M1029.21,451.06c.08-1.83-1.16-2.96-2.6-3.87-1.72-1.09-3.61-1.89-4.73-3.67s-1.65-3.93-3.54-5.07c-.94-.57-2.07-.77-2.98-1.37-1.41-.94-.96-2.41-1.24-3.84-.71-3.56-5.25-4.03-7.06-6.74-2.41-3.61,3.31-6.73,2.26-10.44-.36-1.27-1.65-1.93-2.06-3.13-.52-1.52.88-2.74,2.03-3.48,1.39-.9,3-1.54,4.49-2.27,1.56-.77,3.13-1.53,4.69-2.3.33-.16.63-.57.25-.86-5.08-3.86-11.3-6.29-17.69-6.69-2.73-.17-5.8.1-7.9,2.04-.86.8-1.53,1.83-1.8,2.98-.37,1.58.32,2.55.83,3.96.81,2.26-1.73,4.18-2.34,6.17-.24.79-.21,1.59.28,2.29.33.47.85.74,1.21,1.17.59.7.5,1.5.33,2.34-.22,1.06-.65,2.17-.33,3.26s1.24,1.62,2.17,2.07c1.45.7,2.35,1.22,3.01,2.76.61,1.43,1.32,2.56,2.45,3.65,2.91,2.79,6,5.41,8.99,8.11,2.58,2.32,5.18,4.87,8.78,5.37l-.49-.33c1.09,5.73,6.98,9.73,12.71,8.87.81-.12,1.15-1.23.14-1.07-5.23.78-10.37-3.04-11.35-8.19-.04-.22-.3-.31-.49-.33-2.99-.41-5.26-2.56-7.41-4.49-2.43-2.18-4.86-4.37-7.29-6.56-1.12-1.01-2.34-1.98-3.3-3.15s-1.14-2.61-2.01-3.75c-1.28-1.7-4.65-1.65-4.5-4.25.06-1.02.52-1.97.56-2.99.05-1.1-.43-1.79-1.22-2.5-1.89-1.71-.05-3.55.92-5.25.4-.7.78-1.47.83-2.29.09-1.29-.84-2.18-1.07-3.39-.65-3.51,3.13-5.31,6.01-5.43,6.66-.29,13.57,2.53,18.79,6.5l.25-.86c-2.85,1.4-5.78,2.7-8.57,4.21-1.59.86-3.72,2.34-3.61,4.4.06,1.08.78,1.77,1.43,2.56.88,1.06,1.05,2.11.56,3.39-.71,1.86-2.14,3.4-2.56,5.38-.85,4.01,3.74,5.34,6.12,7.41.69.6,1.26,1.35,1.44,2.26.25,1.25-.1,2.54.78,3.61.61.74,1.56,1.1,2.42,1.45,1.22.49,2.16,1.02,2.9,2.14s1.2,2.49,1.98,3.63c.62.91,1.46,1.58,2.38,2.17,1.69,1.08,4.72,2.12,4.62,4.55-.03.77,1.49.54,1.51-.12h0Z"/>
    </g>
    <g>
      <path class="cls-14" d="M1022.07,455.47c-3.88,1.76-8.95.3-11.29-3.27-.78-1.19-1.28-2.57-2.19-3.66-2.63-3.19-7.9-3.24-10.36-6.57-1.34-1.81-1.56-4.26-2.83-6.12-2.54-3.71-8.41-4.05-10.68-7.93-.58-.99-.88-2.16-1.65-3.01-1.23-1.36-3.34-1.57-4.69-2.81-1.79-1.64-1.82-4.64-3.71-6.16-1.12-.91-2.76-1.16-3.6-2.34-1.45-2.05.56-5.32-1.03-7.26-.62-.76-1.66-1.08-2.29-1.82-1.54-1.8.19-4.6,2.23-5.8,2.6-1.52,5.66-1.96,8.64-2.38.7-.1,1.4-.2,2.09-.29,3.55-.5,7.78-.74,10.05,2.03.45.55.77,1.35.37,1.93-.21.3-.56.46-.9.6-2.47,1.05-4.94,2.09-7.41,3.14,1.98.91,1.84,3.76,1.19,5.84-.65,2.08-1.42,4.61.07,6.21.75.8,2,1.22,2.32,2.28.25.81-.18,1.68-.16,2.53.06,2.53,3.43,3.25,5.44,4.79,1.41,1.08,2.23,2.74,3.24,4.2,1.17,1.69,2.63,3.15,4.08,4.61,1.31,1.31,2.62,2.63,3.94,3.94,3.66,3.67,7.33,7.35,11.23,10.78,2.74,2.41,5.58,4.7,8.52,6.85"/>
      <path class="cls-14" d="M1021.64,455.36c-3.71,1.59-8.32-.4-10.33-3.73-1.01-1.66-1.69-3.38-3.3-4.57-1.38-1.02-3.01-1.61-4.57-2.29-1.52-.66-3.09-1.41-4.2-2.69-1.42-1.65-1.68-3.89-2.69-5.76-1.61-2.99-4.96-4.02-7.74-5.6-1.51-.86-2.83-1.93-3.63-3.51-.9-1.79-1.52-2.99-3.41-3.87s-3.15-1.57-4.03-3.48c-.66-1.45-1.1-3.14-2.39-4.18-1.37-1.11-3.48-1.29-3.99-3.25-.42-1.62.28-3.3,0-4.93-.36-2.02-2.61-2.15-3.3-3.87-.75-1.89.95-3.97,2.47-4.89,2.41-1.46,5.4-1.77,8.14-2.16,2.26-.32,4.58-.73,6.87-.47,1.09.12,2.18.42,3.12,1.01.75.47,1.99,1.44,1.89,2.44-.12,1.21-3.31,2.01-4.25,2.41-1.31.55-2.62,1.11-3.92,1.66-.06.03-.46.26-.27.36,3.96,2.11-.58,7.79.59,10.96.33.88.99,1.39,1.72,1.93.41.3.87.61,1.11,1.08.38.76.07,1.54,0,2.33-.15,1.67.91,2.68,2.26,3.48,1.75,1.04,3.46,1.76,4.71,3.46,1.38,1.87,2.51,3.79,4.11,5.49,3.65,3.88,7.5,7.61,11.33,11.32,4.43,4.29,9.08,8.33,14.05,11.98.34.25,1.63-.35,1.41-.51-8.77-6.44-16.35-14.19-24-21.88-1.81-1.82-3.37-3.7-4.77-5.85-1.13-1.73-2.39-2.86-4.21-3.84-1.43-.77-3.38-1.66-3.43-3.55-.03-1.08.56-2.1-.14-3.09-.53-.76-1.46-1.1-2.07-1.77-2.93-3.22,3.35-9.58-1.26-12.04l-.27.36c2.56-1.08,5.28-2.01,7.75-3.29,1.98-1.03.59-2.95-.78-3.85-3.33-2.21-8.02-1.13-11.68-.61-3.88.55-9.32,1.22-11.52,4.98-1.09,1.87-.55,3.46,1.17,4.61,2.12,1.42,1.71,3.18,1.59,5.43-.12,2.23.81,3.28,2.74,4.23.9.44,1.69.91,2.27,1.75.6.87.93,1.9,1.35,2.86.88,2.03,2.11,2.93,4.09,3.83,1.01.46,1.94.97,2.55,1.93s.89,2.02,1.54,2.92c2.23,3.08,6.38,3.67,9.15,6.09,1.86,1.63,2.24,3.93,3.24,6.07.84,1.8,2.23,2.98,3.98,3.87,1.96.99,4.14,1.6,5.92,2.91,2.11,1.56,2.65,4.21,4.42,6.05,2.97,3.09,7.67,3.58,11.48,1.94.9-.39-.5-.36-.86-.21h0Z"/>
    </g>
    <g>
      <path class="cls-14" d="M980.28,431.7c1.38-.9.69-3.17-.63-4.15-1.32-.98-3.05-1.33-4.27-2.44-1.58-1.44-1.91-3.81-3.19-5.52-1.36-1.81-3.61-2.68-5.47-3.96-1.87-1.29-3.51-3.57-2.7-5.69.44-1.14,1.54-2.3.95-3.37-.6-1.08-2.47-.91-2.99-2.04-.59-1.26,1.15-2.48,1.12-3.87-.02-.93-.85-1.65-1.71-1.99-2.98-1.18-6.21.77-8.82,2.63-3.04,2.17-6.09,4.33-9.13,6.5-.21.15-.42.3-.58.51-.72.93.11,2.38,1.23,2.75,1.12.38,2.33.07,3.49-.1,1.16-.17,2.51-.13,3.31.74.8.87.74,2.22,1.3,3.27,1.37,2.55,5.31,1.92,7.64,3.64,1.44,1.06,2.12,2.94,3.57,3.98,1.48,1.06,3.47,1.06,5.14,1.79,2.35,1.02,3.8,3.33,5.48,5.26,1.68,1.93,3.81,2.79,6.27,2.07"/>
      <path class="cls-14" d="M980.88,431.81c1.23-.96,1.07-2.55.23-3.74-1.2-1.7-3.54-1.89-5.02-3.25-1.43-1.3-1.82-3.33-2.8-4.93s-2.7-2.64-4.35-3.61c-1.87-1.1-4.06-2.58-4.34-4.94-.14-1.18.48-2.03.95-3.04.34-.72.54-1.55-.02-2.23-.93-1.11-3.57-.92-2.72-2.98.63-1.54,1.82-2.94.05-4.28-3.23-2.44-7.81.23-10.54,2.14-2.11,1.48-4.2,2.99-6.3,4.48-1.05.75-2.16,1.46-3.18,2.26-.6.48-1.1.97-.99,1.81.25,1.85,2.31,2.24,3.85,2.11,1.13-.1,2.34-.53,3.47-.21,1.35.39,1.54,1.58,1.89,2.76,1.09,3.72,5.18,2.86,7.87,4.6,1.85,1.2,2.51,3.54,4.54,4.57.97.49,2.08.67,3.12.94,1.32.35,2.44.93,3.44,1.86,1.69,1.56,2.82,3.75,4.71,5.08,1.7,1.19,3.67,1.36,5.64.84.89-.23.71-.94-.19-.7-4.48,1.17-6.36-3.83-9.2-6.17-1.38-1.14-2.94-1.53-4.63-1.97-.98-.25-1.91-.57-2.68-1.25-.67-.6-1.16-1.37-1.7-2.08-.94-1.25-1.98-2.06-3.47-2.53-1.39-.45-2.93-.59-4.23-1.29-1.73-.94-1.49-2.62-2.35-4.13-.72-1.26-2.19-1.51-3.54-1.42-1.11.07-2.32.52-3.43.29s-2.16-1.61-1.24-2.64c.67-.75,1.87-1.35,2.69-1.93.99-.71,1.98-1.41,2.98-2.12,1.85-1.31,3.66-2.73,5.6-3.89,1.91-1.14,5.02-2.46,6.87-.47,1.39,1.5-.74,2.83-.75,4.36-.01,1.37,1.41,1.59,2.38,2.09,2.05,1.05-.27,3.21-.41,4.74-.15,1.65.87,3.19,2.04,4.26,1.46,1.34,3.36,2.05,4.92,3.25,1.73,1.33,2.33,3.15,3.28,5.01.89,1.75,2.17,2.62,3.91,3.44.97.45,1.95.91,2.54,1.85.54.86.84,2.14-.08,2.85-.66.52.83.5,1.19.21h0Z"/>
    </g>
    <g>
      <path class="cls-14" d="M963.35,424.7c-1.22-2.45-5.08-1.7-7.24-3.38-1.33-1.04-1.94-2.96-3.53-3.51-1.9-.66-4.33.99-5.87-.31-1.03-.88-.96-2.65-2.07-3.43-1.01-.72-2.41-.21-3.51.37-3.74,1.98-7.15,4.59-10.03,7.69-.32.35-.65.72-.74,1.19-.2,1.05,1.01,1.93,2.07,1.82,1.06-.11,1.93-.87,2.69-1.62s1.54-1.57,2.57-1.85c3.02-.85,5.7,3.26,8.78,2.61.94-.2,1.77-.83,2.73-.87,2.22-.1,3.68,2.92,5.9,2.75.82-.06,1.53-.56,2.29-.85,1.26-.48,2.72-.37,3.89.29.55.31,1.06.74,1.68.84.62.1,1.39-.37,1.27-.99"/>
      <path class="cls-14" d="M964.04,424.39c-1.27-2.25-4.23-1.96-6.32-2.87-1.35-.59-1.98-1.78-2.9-2.85s-1.93-1.52-3.29-1.49-3.29.94-4.35-.22c-.88-.96-.79-2.52-1.95-3.29-2.28-1.51-5.66,1.03-7.49,2.22-2.71,1.76-5.57,3.91-7.58,6.46-.7.89-.78,1.93.17,2.68,1.02.81,2.42.63,3.52.08,1.43-.72,2.28-2.4,3.76-2.98,1.35-.52,2.87.57,3.99,1.22,1.01.59,2.06,1.21,3.24,1.39.51.08,1.02.07,1.53-.02.93-.16,1.88-.92,2.82-.86,1.41.08,2.51,1.62,3.7,2.26s2.43.55,3.67.02,2.37-.97,3.77-.36c.75.32,1.35.93,2.18,1.07,1,.17,2.43-.36,2.47-1.51.03-.65-1.48-.37-1.5.17-.03.82-1.75-.39-1.97-.49-.46-.21-.96-.35-1.46-.42-1.36-.19-2.49.18-3.72.68-.91.37-1.4.53-2.25.07-.49-.26-.92-.62-1.36-.96-.73-.56-1.46-1.14-2.37-1.36-.98-.24-1.91.03-2.82.4-1.52.62-2.51.38-3.9-.37-1.74-.95-3.45-2.24-5.55-1.92-1.03.16-1.91.71-2.68,1.38-.51.44-.95.96-1.47,1.39-.86.72-2.68,1.14-2.79-.46-.08-1.12,1.92-2.59,2.68-3.29,1.21-1.11,2.48-2.14,3.82-3.07,1.16-.81,2.36-1.56,3.6-2.22.86-.46,2.07-1.14,2.95-.32.51.47.68,1.21.94,1.83.89,2.11,2.58,2.21,4.63,1.88.83-.13,1.73-.34,2.53.04.66.31,1.13.94,1.56,1.51.7.92,1.36,1.81,2.41,2.34,2.03,1.02,5.14.63,6.39,2.84.26.46,1.71-.02,1.38-.6h0Z"/>
    </g>
    <g>
      <path class="cls-14" d="M949.14,427.36c-1.96-1.92-5.35.05-7.94-.84-1.59-.55-2.8-2.16-4.48-2.17-2.01,0-3.77,2.35-5.65,1.62-1.26-.49-1.77-2.19-3.07-2.57-1.19-.35-2.34.59-3.19,1.5-2.89,3.09-5.26,6.67-6.97,10.54-.19.43-.38.9-.31,1.36.15,1.06,1.58,1.5,2.55,1.05.97-.45,1.54-1.45,2.02-2.4.47-.96.94-1.98,1.82-2.59,2.58-1.79,6.45,1.22,9.15-.39.82-.49,1.4-1.36,2.29-1.72,2.07-.82,4.43,1.56,6.47.67.75-.33,1.26-1.03,1.89-1.56,1.03-.86,2.46-1.23,3.78-.99.62.11,1.24.36,1.86.24.62-.11,1.19-.81.88-1.35"/>
      <path class="cls-14" d="M949.84,427.06c-2.32-2.02-5.22-.19-7.86-.87-1.42-.37-2.41-1.59-3.79-2.07-1.18-.41-2.36-.17-3.47.35-1.37.64-2.61,1.81-3.96.48-.88-.87-1.47-1.96-2.84-2.06-2.88-.22-5.15,3.35-6.62,5.35-.95,1.29-1.83,2.64-2.61,4.04-.68,1.21-1.9,2.94-1.93,4.38-.02,1.08.88,1.67,1.87,1.8,1.21.16,2.35-.43,3.13-1.33.82-.96,1.17-2.19,1.88-3.22,1.16-1.67,2.97-1.15,4.67-.81,1.16.23,2.34.44,3.51.24,1.41-.23,2.12-1.08,3.23-1.87,1.47-1.04,3.26.32,4.81.55,1.29.19,2.45-.17,3.42-1.03.9-.79,1.61-1.62,2.9-1.72.93-.07,1.77.36,2.69.33,1.06-.04,2.47-.79,2.09-2.03-.17-.56-1.66-.15-1.49.4.31,1.01-1.77.43-2.11.4-.53-.04-1.07,0-1.6.1-1.18.23-2.19.79-3.06,1.61-.53.51-1.01,1.09-1.8,1.09-.57,0-1.16-.25-1.7-.43-.98-.33-1.96-.68-3.01-.59-.9.08-1.66.46-2.35,1.03-.55.46-1.03,1.04-1.74,1.24s-1.53.06-2.24-.06c-1.89-.32-3.87-.94-5.73-.13-.84.37-1.5,1-1.99,1.77-.65,1.01-1.09,2.87-2.24,3.44s-1.78-.54-1.58-1.41c.17-.73.62-1.47.95-2.14.65-1.31,1.38-2.57,2.18-3.8.85-1.3,1.78-2.56,2.79-3.74.92-1.08,2.57-3.39,4.08-2,.73.67,1.2,1.59,2.15,1.99.79.33,1.66.23,2.45-.03,1.27-.42,2.63-1.78,4.03-1.44s2.34,1.55,3.65,2.03c1.05.38,2.17.35,3.27.25,1.54-.13,3.29-.61,4.57.51.42.37,1.82-.22,1.38-.6h0Z"/>
    </g>
    <path class="cls-14" d="M1050.17,508.4c2.28,1.75-16.12,6.58-15.62,3.75.5-2.83-1.6-12.57-3.36-14.84-1.76-2.27,11.82,10.88,12.96-2.98,2.76-1.18,4.49,8.38,7.48,8.11,3.89-.34-.27-7.07-1.27-10.85-1-3.78-.71-5.08-1.91-8.79-.45-1.4,2.52-3.56,3.91-4.03.52-.18,1.09-.07,1.64-.05,2.43.1,4.69-1.55,5.84-3.69,1.14-2.14-5.32-7.02-5.6-9.43-.48-4.12.85-7-1.85-10.14-1.08-1.26,1.21-1.21.71-2.79-.51-1.58.16-3.7,1.79-4.04.96-.2,1.93.27,2.79.73,3.94,2.11,7.84,4.53,10.58,8.06,2.74,3.53,4.13,8.39,2.56,12.57-.62,1.65-1.68,3.21-1.71,4.97-.04,2.21,1.55,4.12,1.86,6.31.63,4.41,3.85,9.12,4.87,13.46.32,1.35-6.7,1.85-6.29,3.17.74,2.37-.09,5.14-2,6.72-1.15.95-2.6,1.47-3.75,2.43-4.27,3.57.69,7.7-2.41,12.33"/>
    <path class="cls-14" d="M1049.02,415.27c-2.52-.26-4.22-2.57-6.01-4.35-2.79-2.78-6.5-4.61-10.4-5.16-2.94-.41-6.06-.12-8.77-1.32-1.57-.69-2.89-1.84-4.27-2.86-4.82-3.56-10.68-5.7-16.66-6.09-1.28-.08-2.6-.1-3.8-.57-1.42-.56-2.51-1.7-3.75-2.58-2.84-2.01-6.61-2.65-9.95-1.67-4.94,1.44-9.34,6.16-14.31,4.82-3.7-1-6.96-5.25-10.44-3.67-1.62.74-2.49,2.56-3.98,3.53-3.2,2.09-7.81-.39-11.2,1.37-2.8,1.45-3.69,5.23-6.41,6.84-1.79,1.06-4.02.97-6.03,1.5-2.01.53-4.1,2.29-3.61,4.32l-1.98,2.28c-11.58,6.33-17.81,30.89-15.56,30.31,2.25-.57,14.69-14.93,15.52-17.1,5.26-13.6,19.24-17.6,23.14-18.05,3.51-.41,7.18-.16,10.45-1.49,2.08-.84,5.1,1.74,7.34,1.62,3.02-.16,4.73-1.85,7.71-2.34,1.58-.26,3.1,2.57,4.4,1.65,3.43-2.42,8.6-1.14,12.57.22,3.34,1.15,4.64-2.66,8.06-1.78,2.25.58,2.73,4.83,5.06,4.89,3.36.09,5.71.38,8.79,1.74,5.32,2.35,13.36.97,18.67,3.32,3.57,1.58,5.77,7.91,8.6,10.6,4.08,3.89,7.86,5.22,13.12,7.25,2.28-2.94,2.86-7.12,1.47-10.57-1.39-3.45-4.71-6.05-8.4-6.59"/>
    <path class="cls-14" d="M1059.07,419.86c.81-2.49.06-5.27-1.45-7.33-1.87-2.55-5.01-3.69-8.07-3.84-.18,0-1.77.07-1.86-.09-.02-.04,1.08.31.31.02.41.15.89.77.52.19-.13-.19-.27-.38-.4-.57-.62-.92.19.38-.12-.21-.4-.77-.77-1.55-1.26-2.27-1.65-2.37-4.26-3.94-6.94-4.88-3.33-1.16-7.09-1.02-10.46-.11-.36.1-.74.18-1.08.31-.73.26,1.26-.08,1.29-.08-.36-.01-.91-.22.48.09-.86-.19.53.46.2.09-.11-.13-.46-.32-.61-.39.61.29.4.39.14.12-.44-.46-.87-.91-1.26-1.41-1.57-1.99-2.82-4.01-4.81-5.62-2.36-1.91-5.33-2.87-8.31-3.23-3.82-.46-7.93.41-11.33,2.18-1.01.53-2,1.1-2.98,1.68-.23.14-1.63.77-1.64.97l.67-.38c-.22.12-.44.23-.66.34-.32.15-.73.24-1.01.44.92-.63,1.11-.36.51-.22,1.91-.42.33-.08-.19-.07-1.44.03-3.32.77-4.49,1.59-.84.59-2.07,1.73-2.16,2.87-.25,2.97,3.19,3.33,5.34,3.28,3.63-.07,6.94-1.69,10-3.47.49-.29.98-.58,1.48-.88,1.05-.62-.16.09-.17.08,0,0,.73-.38.67-.35.22-.11.46-.21.68-.32,1.15-.59-1.15.3-.34.1.24-.06.66-.1.86-.22l-.91.17c.24-.03.47-.06.71-.08.53-.07.6.24-.45,0,.21.05.49.02.71.04.3.03,1.01.36.39.04-.7-.37.17.07.37.12.23.07.45.15.68.22.87.28-.04-.06-.13-.07.49.04,1.32.72,1.7.99.19.13.75.66.14.09.17.16.35.33.51.5.34.36.65.74.95,1.13.64.83,1.22,1.7,1.85,2.54,1.52,2.04,3.37,3.69,5.84,4.45,2.12.65,4.43.44,6.56-.01.73-.15,1.46-.36,2.17-.58.55-.17.66.18-.58.1.17-.02.35-.04.52-.05.45-.03.23-.03-.64,0,.19.04.5.04.7.04,1.15.02-.84-.24-.14-.04.08.02,1.52.34,1.51.46,0,.08-.82-.44-.16-.05.25.15.52.28.77.43s.48.33.73.49c.7.47-.36-.47.24.22.31.35.64.68.93,1.05.18.23.33.48.49.72.37.57-.41-.81.12.2.78,1.49,1.37,2.76,2.85,3.69,1.6,1.01,3.57,1.31,5.42,1.37.25,0,.5.01.75.02,1.33.06.12.13.06-.08-.05-.18,1.12.6.34.07-.63-.43.25.26.41.29.4.09-.51-.62.02.02.2.25.43.47.62.73.13.17.23.36.35.54-.45-.64,0,.03.07.27.18.5.29,1.02.33,1.55-.06-.83-.02-.12-.07.1-.09.36-.14.72-.26,1.08-.33,1.01.58,2.12,1.34,2.59,1.09.68,2.77.84,4,.69,2.78-.34,5.74-1.63,6.66-4.46h0Z"/>
    <path class="cls-11" d="M1056.17,516.27s6.24-93.73-67.46-100.71c0,0-32.9-10.08-67.55,12.39,0,0,12.25-18.72,30.34-26.49,0,0,58.28-16.97,94.17,26.13,35.89,43.1,21.51,89.89,21.51,89.89l-11.01-1.21Z"/>
    <g>
      <path class="cls-1" d="M1063.43,528.67s-1.21-6.55-5.69-8.48c-4.48-1.93-14.4-2.9-19.01,3.54,0,0-3.61-5.02,2.3-10.71,6.77-6.53,16.69-6.65,22.31-1.79,9.76,8.46.1,17.44.1,17.44Z"/>
      <path class="cls-19" d="M1064.28,528.44c-.64-3.39-2.57-7.17-5.85-8.62-4.07-1.8-9.28-1.98-13.52-.73-2.76.82-5.24,2.33-6.97,4.66.53-.11,1.05-.22,1.58-.34-1.36-1.93-1.27-4.81-.31-6.92,1.99-4.4,7.12-7.43,11.76-8.11,4.02-.59,8.3.42,11.44,3.05,3.34,2.81,5.29,6.85,3.99,11.19-.68,2.25-2.03,4.45-3.75,6.07-.31.29.27.37.43.38.38.03.86-.18,1.13-.43,1.71-1.6,3.08-3.8,3.8-6.02,1.51-4.63-.57-9.05-4.24-11.99-7.38-5.93-19.58-3.22-25.03,4.1-1.95,2.61-2.83,6.46-.81,9.31.26.36,1.37-.06,1.58-.34,3.59-4.86,10.32-5.34,15.74-3.78,2.6.75,4.47,2.24,5.76,4.64.72,1.34,1.29,2.83,1.57,4.33.09.46,1.8.06,1.7-.46Z"/>
    </g>
    <g>
      <path class="cls-4" d="M1037.67,518.34s-8.83,12.41-2.01,17.52c4.02,3.01,5.73-.06,6.89,2.27,1.16,2.32-.19,4.62-.19,4.62,0,0,2.15,3.63,3.95-1.03,1.08-2.8-.68-8.61-5.35-7.74,0,0-4.32,1.98-4.49-3.88-.07-2.6,1.39-5.44,4.01-8.3s-2.81-3.46-2.81-3.46Z"/>
      <path class="cls-19" d="M1036.88,518.35c-1.86,2.62-3.39,5.68-4.2,8.78-.55,2.12-.77,4.53.17,6.57,1.04,2.25,3.49,3.91,5.98,4.01.87.03,2.09-.46,2.7.36.95,1.27.75,3.44.04,4.69-.06.06-.08.13-.07.22,1.27,2.09,3.83,1.91,5.07-.17,1.56-2.62,1.03-6.68-1.56-8.5-1.27-.9-2.91-1.04-4.38-.62-.36.1-.94.28-1.54.06-1.67-.63-1.88-3.11-1.75-4.59.23-2.68,1.88-5.04,3.59-7.01.98-1.13,1.68-2.4.11-3.36-.83-.51-1.88-.76-2.85-.87-.35-.04-.97.03-1.21.32-.19.23-.27.47.14.52,1.2.14,3.91.76,2.98,2.48-.47.87-1.32,1.57-1.91,2.36s-1.15,1.67-1.59,2.57c-.75,1.53-1.13,3.19-.95,4.9.22,2.13,1.35,3.76,3.62,3.66.68-.03,1.25-.27,1.9-.41.06-.01.16-.02.02,0-.04,0,.67.02.9.07.72.14,1.36.52,1.88,1.03,1.91,1.87,2.33,5.18.99,7.46-.37.63-.44.94-1.05.47-.25-.2-.51-.48-.68-.76-.11-.18-.07.25-.06.08,0-.1.15-.29.19-.38.28-.64.45-1.33.48-2.02.06-1.17-.26-2.97-1.56-3.4-.9-.3-1.89.07-2.82-.01-3.07-.25-5.29-3.08-5.54-5.99-.37-4.34,2.05-9.08,4.5-12.53.4-.57-1.28-.38-1.57.02Z"/>
    </g>
    <g>
      <path class="cls-7" d="M1038.36,537.67s5.04-11.71,12.55-10.44c3.08.52,4.05,6.62-1.02,13.69-2.68,3.74-8.3,3.24-8.3,3.24,0,0,3.9-5.86-.85-6.92-1.72-.38-2.38.43-2.38.43Z"/>
      <path class="cls-19" d="M1039.21,537.56c.58-1.34,1.34-2.62,2.14-3.84,1.44-2.17,3.26-4.41,5.67-5.54,1.07-.5,2.51-.83,3.67-.42.99.35,1.5,1.4,1.73,2.35.9,3.73-1.23,8.12-3.46,10.97-1.61,2.06-4.51,2.81-7.04,2.59l.46.49c.93-1.41,1.84-3.36,1.51-5.08-.49-2.55-4.71-3.31-6.33-1.44-.27.31.23.48.46.49.41.02.86-.15,1.13-.46-.13.15-.05.03.01,0,.25-.09.49-.08.76-.05.57.07,1.18.3,1.61.69.66.61.78,1.52.66,2.37-.18,1.21-.72,2.42-1.39,3.44-.23.34.2.47.46.49,2.64.22,5.63-.47,7.77-2.04,1.87-1.37,3.08-3.64,4-5.72.82-1.86,1.38-3.9,1.27-5.95-.07-1.29-.46-2.73-1.52-3.56s-2.79-.81-4.11-.58c-3.22.56-5.79,2.81-7.75,5.31-1.35,1.73-2.54,3.66-3.41,5.68-.22.51,1.47.33,1.7-.22Z"/>
    </g>
  </g>
  <g id="Layer_5" data-name="Layer 5">
    <path class="cls-31" d="M414.35,237.89s-4.44,68.33-25.49,103.58c-3.38,5.65-37.8,14.53-37.8,14.53l6.63,11.67c5.72,10.07,115.96,123.26,125.52,129.8,47.59,32.56,22.99-49.36,53.71-76.33l-8.56-24.39-7.91-14.16c-.03-7.77,21.75-67.21,21.75-67.21"/>
    <path class="cls-6" d="M405.04,263.97c-.02.14-.04.26-.06.4-.02-.18,0-.33.06-.4Z"/>
    <path class="cls-31" d="M480.55,364.38l45.1,8.53,23.51.03c2.26.56,17.35-20.12,19.56-22.67,6.86-7.93,14.81-20.12,20-29.25,5.56-9.78,15.28-15.58,19.76-27.85,3.28-9,4.8-15.47,3.28-31.7-.39-4.12.45-7.96,2.33-11.86,4-8.22,7.04-18.2,12.14-29.27.4-.87,2.48-5.04,2.35-6.12,0,0,10.37-40.93,5.16-68.16-3.75-19.57-12.85-29.48-24.85-35.69-12.01-6.21-50.17-12.54-50.17-12.54l-50.3-19.37-49.21,11.74-34.75,48.55-11.05,63.06-6.1,57.2"/>
    <path class="cls-24" d="M506.58,355.29c-.42.15-23.27-8.27-23.71-8.41l-10.83-8.54s-.05-.06-.06-.07c-1.2.18-2.52-.06-3.87-.9-7.01-4.37-12.67-10.13-17.93-16.43-4.73-5.66-8.29-20.38-14.15-24.95-2.77-2.16-1.46-2.86-3.63-5.46.08.75-1.02,4.85-.93,5.59,8.36,18.11,24.24,55.89,39.2,68.14,1.15.6,4.74,2.57,14.81,5.8,13.21,4.24,22.07,6.7,35.65,7.95,2.44-9.44,5.88-20.27,8.18-29.75-4.82-1.2-7.19,1.54-22.73,7.01Z"/>
    <path class="cls-2" d="M519.34,217.12c-2.48-2.18-6.13-1.73-8.41-.55-.54.28-1.99,1.09-3,2.83-1.3,2.22-1.02,5.17.08,7.19,1.46,2.7,4.71,3.91,7.57,3.35,3.89-.76,6.06-4.67,5.95-7.93-.02-.6-.18-3.13-2.19-4.9"/>
    <path class="cls-2" d="M598.4,237.36c3.21-.77,6.23,1.34,7.69,3.45.34.5,1.25,1.9,1.33,3.91.11,2.57-1.52,5.04-3.43,6.32-2.55,1.7-5.99,1.25-8.26-.58-3.08-2.49-3.17-6.96-1.55-9.79.3-.52,1.63-2.68,4.22-3.3"/>
    <path class="cls-2" d="M577.39,243.6s13.05-8.93,20.71-7.85c11.18,1.58,13.29,5.03,15.75,11.61,0,0-5.68-7.64-13.59-8.51-7.56-.84-22.87,4.76-22.87,4.76Z"/>
    <path class="cls-2" d="M541.29,231.48s-14.48-15.1-22.85-17.41c-12.22-3.37-28.67.24-34.09,5.15,0,0,21.97-5.88,30.51-3.27,8.17,2.49,26.43,15.53,26.43,15.53Z"/>
    <path class="cls-2" d="M548.4,191.1c1.41,1.16.53,2.25-.18,5.19-.23.94-.55,2.39-.9,3.91-.63,2.85-3.9,4.25-6.38,2.71-4.45-2.76-8.35-5.47-11.55-6.86-8.65-3.78-17.35-8.28-26.83-9.05-4.54-.37-8.65-.17-12.85,1.21-1.32.44-5.18,2.78-6.71,1.57-.63-.5,1.4-3.82,1.61-4.17,4.12-6.7,11.02-8.24,18.98-8.15,16.23.17,29.65,7.89,44.8,13.64"/>
    <path class="cls-2" d="M629.27,215.06s-3.98-2.75-4.01-2.77c-8.58-5.98-18.01-9.72-27.93-12.25-5.03-1.28-10.21,1.6-11.92,6.5,0,.03-.02.06-.03.09-.34.97-1.92,3.74-1.6,4.74.06.2.21.35.35.49,1.59,1.55,3.76,2.39,5.95,2.76,2.71.45,5.45.08,8.16.42,7.8.99,16.04,1.93,22.89,5.88.54.31,3.44,2.06,3.95,2.4,3.71-3.11,4.99-7.28,4.19-8.26Z"/>
    <g>
      <path class="cls-2" d="M553.46,288.68c-4.07,1.03-9.45-.78-12.5-3.97-.68-.71-3.48-.88-2.53.11,4.03,4.22,11.84,6.46,17.09,5.12.52-.14.53-.52,0-.85-.55-.35-1.51-.55-2.07-.41"/>
      <path class="cls-2" d="M537.13,283.38c-2.13-1.77-4.69-3.06-7.34-3.94-.39-.13-.94-.1-1.3.09-.28.15-.4.42-.14.67,1.06,1.04,2.58,1.74,4.05,2.08.46.11,1.1.14,1.46-.2.33-.31-.05-.67-.41-.75-1.21-.28-2.38-.83-3.26-1.69-.48.25-.96.5-1.44.76,2.37.79,4.65,1.97,6.55,3.55.38.32,1.03.33,1.47.19.33-.1.74-.43.36-.75"/>
      <path class="cls-2" d="M526.3,281.06c-3.15-.87-6.52-3.2-7.47-6.02-1.44-4.26,2.17-9.42,6.7-10.79.49-.15.35-.54-.07-.74-.54-.27-1.26-.22-1.78-.06-3.95,1.19-7.34,5.3-7.68,8.88-.31,3.35,2.15,6.35,5.71,8.22,1.06.56,2.21,1.04,3.39,1.37.48.13,1.38.2,1.7-.13.33-.33-.06-.61-.51-.73"/>
      <path class="cls-2" d="M559.66,288.48c-.08-.42.3-.58.55-.51.85.24,1.78.21,2.66-.22.19.42.38.84.58,1.26-1.76-.23-3.62-.09-5.41.58-.36.13-.76-.11-.97-.41-.16-.23-.28-.69.08-.82"/>
      <path class="cls-2" d="M557.15,288.35c2-.74,4.08-.88,6.04-.62.29.04.61.28.75.6.11.25.07.54-.18.66"/>
      <path class="cls-2" d="M566.13,290.55c2.08.43,4.85-.38,6.47-2.56,2.44-3.3,2.1-8.02.12-11.01-.22-.33.01-.62.32-.64.4-.03.78.29,1.01.63,1.73,2.61,2.35,6.29,1.16,9.66-1.12,3.15-3.64,4.91-6.34,5.23-.8.09-1.63.09-2.41-.07-.31-.07-.84-.35-.9-.77-.06-.43.27-.53.56-.46"/>
    </g>
    <path class="cls-31" d="M633.51,146.77c.73,2.15.69,6.02.91,7.98.14.32-.02.68.11,1.01-.78-7.07-1-14.05-5.2-23-14.79-31.51-38.44-45.79-69.89-57.77-3.32-1.26-6.79-2.44-10.29-3.48-36.84-10.95-77.59-7.12-103.82,9.76-12.85,8.27-21.21,15.33-29.59,28.41-7.61,11.88-15.93,28.05-17.55,41.66-.96,8.07-4.2,34.34-1.28,42.09,1.87,4.97,6.57,13.14,10.43,30.95l24.56,5.97c.48-4.72,5.31-23.36,5.52-28.2,1.53-34.74,19.92-66.72,19.92-66.72,1.69-7.17,21.03-41.93,28.89-49.25,7.08-6.6,19.19-6.67,36.53-.07,7.47,2.85,28.7,16.01,32.25,19.82,1.28.6,5.97,2.76,11.98,5.04,8.07,3.07,19.4,6.73,27.69,6.73,1.13-.18,9.71-4.07,16.45-1.5,7.73,2.95,15.72,10.94,22.39,30.56Z"/>
    <path class="cls-31" d="M548.02,356.48c-.3-.11-.56-.29-.77-.51-4.02-4.24-3.98-6.1-6.18-7.19-.51-.25-.74-.51-2.35-1.13-6.49-2.48-10.41-4.12-31,3.13-.41.15-23.27-8.27-23.71-8.41l-10.83-8.54c-1.74-1.72-38.43-50.56-38.43-50.56-.39-1.44-6.52-12.45-6.57-13.75-.13-.1-.24-.22-.38-.31-.05-.03-.16-.11-.26-.19-.04.07-.09.18-.12.23-.2.5-.32,1.06-.41,1.59-.43,2.32,3.83-12.39,4.01-10.03.28,3.62-.03,8.28.11,11.88.05,1.27-.03,18.86.13,20.12,4.44,4.42,26.35,54.5,43.02,68.15,1.15.6,2.29,1.36,12.35,4.59,18.91,6.06,37.53,10.33,57.77,9.2,5.28-.3,10.09-2.91,13.13-7.04,8.7-11.8,27.93-38.06,35.53-56.93-7.87,10.13-24.56,31.88-36.01,46.67-.35.45-7.76-.84-8.41-.8"/>
    <path class="cls-5" d="M633.16,148.41c.06.16.18.83.32,1.95,1.28,3.08.65,5.16,1.64,8.33-.68-8.1-1.14-16.05-5.79-25.95-14.79-31.51-38.44-45.79-69.89-57.77-3.32-1.26-6.79-2.44-10.29-3.48-36.84-10.95-77.59-7.12-103.82,9.76-12.85,8.27-21.21,15.33-29.59,28.41-7.61,11.88-15.93,28.05-17.55,41.66-.96,8.07-4.2,34.34-1.28,42.09,1.87,4.97,6.57,13.14,10.43,30.95l24.56,5.97c.48-4.72,5.31-23.36,5.52-28.2,1.53-34.74,19.92-66.72,19.92-66.72,1.69-7.17,19.76-40.85,27.61-48.18,7.08-6.6,20.46-7.74,37.81-1.14,7.47,2.85,28.7,16.01,32.25,19.82,1.28.6,5.97,2.76,11.98,5.04,8.07,3.07,19.4,6.73,27.69,6.73,1.13-.18,9.71-4.07,16.45-1.5,7.73,2.95,15.57,16.35,22.04,32.2Z"/>
    <path class="cls-31" d="M411.39,266.6c-18.47,16.74-20.95-19.34-20.95-19.34-9.94-20.25-5.59-38.2-2.1-50.35,3.48-12.15,16.94-8.7,16.94-8.7,11.17,4.03,14.8,11.43,15.01,52.43"/>
    <path class="cls-2" d="M406.21,218.68c-2.41.1-4.84,1-6.43,2.87-1.31,1.53-2.02,3.49-2.43,5.44-.27,1.26-.29,2.51-.45,3.78s-.49,2.56-.57,3.89c-.11,1.79,0,3.6.31,5.36.46,2.66,1.35,5.6,3.18,7.66,1.42,1.6,3.72,1.7,5.44.43,1.24-.91,1.33-2.6,1.39-4.01.09-2.02-.07-4.05-.09-6.07,0-1.07-.01-2.17.17-3.23.05-.32.71-1.85.7-1.88.18.51-1.77,0-.6.42.31.11.61.24.92.35.94.35,1.87.69,2.81,1.04.6.22,2.94-.15,2.85-1.08-.59-6.14-1.06-12.27-2.42-18.3-.85-3.79-1.96-7.69-3.96-11.06-.75-1.26-1.67-2.65-2.93-3.44-1.59-1-3.39.4-4.58,1.45-4.37,3.86-6.44,9.71-7.14,15.36-.11.93,3.01.34,3.12-.5.54-4.38,1.84-8.82,4.51-12.4.72-.96,1.52-1.87,2.43-2.64.15-.12.48-.38.71-.54s.46-.28.06-.05c-.74.12-1.47.24-2.21.37.17.06-.19-.17.05.03.2.16.43.29.63.46.82.69,1.47,1.58,2.03,2.48,2.91,4.7,4.12,10.5,5.01,15.87.76,4.56,1.1,9.16,1.54,13.76.95-.36,1.9-.72,2.85-1.08-2.61-.96-6.56-3.04-8.76-.09-.88,1.18-.89,2.93-.93,4.34-.05,1.94.09,3.87.1,5.81,0,.84,0,1.7-.11,2.54-.08.64-.38,1.17-.52,1.77-.05.21-.19.03-.07.11.06.04,1.17-.27,1.13-.37-.05-.14-.75-.5-.9-.65-.79-.76-1.33-1.76-1.79-2.75-1.29-2.81-1.85-5.99-1.84-9.07,0-1.99.5-3.88.64-5.85.13-1.76.47-3.54,1.11-5.19.62-1.6,1.77-3.82,3.72-3.9.58-.02,1.77-.22,2.1-.79s-.28-.67-.78-.65h0Z"/>
    <path class="cls-30" d="M624.19,536.65l-.63-62.47s-19.5-31.3-43.05-45.09c-14.02-8.22-51.72-41.66-60.06-46.48,10.51,12.68,6.27,37.89-3.38,42.56-13.51,6.54-26.95,8.43-41.67,5.55-14.12-2.76-32.57-9.09-44.72-16.68-22.72-14.19-39.95-48.77-39.72-76.92l-11.03,4.57s-90.83,40.29-103.93,42.49c-13.09,2.21-84.75,288.95-84.75,288.95l-40.63,124.66c-5.59,12.13-61.89,86.9-41.64,196.83,0,0,258.91-22.5,286.95-16.68,32.57,6.76,107.34-10.71,119.01-24.36,11.67-13.65,109.26-416.93,109.26-416.93Z"/>
    <path class="cls-21" d="M787.17,957.59c-.08.04-.17.06-.26.07,0-.22,0-.44,0-.66.09.2.17.39.26.59Z"/>
    <path class="cls-22" d="M611.35,1084.18c1.27-7.75,2.96-15.43,4.95-23,4.5-17.12,10.62-33.8,17.88-49.94,7.46-16.59,16.19-32.63,26.19-47.83,6.79-10.33,14.18-20.31,22.24-29.71-160.75-34.78-491.86-17.64-491.86-17.64,0,0-117.08,5.04-83.28,132.8,30.11,113.81,377.85,70.45,502.13,35.83.59-.17,1.17-.34,1.75-.51Z"/>
    <path class="cls-22" d="M645.69,962.89s11.07-63.17-43.68-78.7c-74.57-21.15-416.5,32.12-416.5,32.12l460.17,46.58"/>
    <path class="cls-21" d="M398.78,699.16c-.09.05-.18.08-.28.09,0-.24-.02-.49-.03-.73.1.21.21.43.31.64Z"/>
    <path class="cls-32" d="M516.5,600.1c-.13-.04-.26-.08-.39-.12.14-.04.28-.09.42-.13.04.09.03.17-.03.25Z"/>
    <path class="cls-32" d="M459.21,597.43c.14-.06.27-.13.41-.19.03.07.05.15.08.22-.16-.01-.33-.02-.49-.03Z"/>
    <path class="cls-32" d="M515.29,599.95c-.18,0-.36-.02-.54-.03.19-.16.37-.15.54.03Z"/>
    <path class="cls-31" d="M935.6,652.34c-36.47,7.69-236.7,43.32-236.7,43.32,0,0-33.81-88.78-68.04-163.46-36.32,18.94-71.51,39.94-104.93,63.73,28.75,65.45,60.07,148.13,92.13,185.47,26.17,30.47,70.71,19.7,70.71,19.7,49.13-3.27,220.23-66.05,290.62-113.11l-43.8-35.65Z"/>
    <path class="cls-3" d="M-40.22,807.27c13.51,17.95,27.31,36.36,34.61,57.87,7.14,21.04,7.55,43.64,8.34,65.62.6,16.79,1.02,33.59,1.41,50.39.45,18.96.83,37.92,1.21,56.88.33,16.65.65,33.3,1.01,49.94.04,1.67.07,3.33.11,5,.03,1.36,6.82.27,6.78-1.82-.36-16.1-.67-32.21-.99-48.31-.38-18.99-.76-37.97-1.19-56.96-.4-17.34-.82-34.68-1.4-52.01-.7-21.08-.86-42.64-6.28-63.15-5.83-22.07-18.77-41.06-32.23-59.15-1.67-2.24-3.34-4.47-5.02-6.7-1.04-1.39-7.54.83-6.36,2.39h0Z"/>
    <path class="cls-3" d="M1397.93,795.29c-17.87-.63-36.55.93-53.48,6.99-7.96,2.85-15.77,6.77-21.77,12.86-3.04,3.08-5.26,6.73-7.17,10.58-2.52,5.08-4.46,10.44-5.96,15.9-4.44,16.13-5.06,33.14-5.54,49.78-.14,4.84-.28,9.67-.42,14.51-.27,9.45-.55,18.91-.82,28.36-.35,12.21-.7,24.42-1.06,36.63-.38,13.11-.76,26.21-1.13,39.32-.35,12.18-.7,24.36-1.05,36.55-.27,9.3-.54,18.61-.81,27.91-.13,4.61-.27,9.22-.4,13.83l-.02.61c-.1,3.32,6.76,2.2,6.84-.62.09-3.15.18-6.29.27-9.44.24-8.19.47-16.38.71-24.57.33-11.44.66-22.87.99-34.31.37-12.93.75-25.86,1.12-38.79.36-12.57.73-25.13,1.09-37.7.3-10.35.6-20.7.9-31.05.18-6.38.37-12.76.55-19.15.3-10.28.64-20.57,1.72-30.8,1.16-11.01,3.22-22.09,7.58-32.32,1.78-4.18,3.85-8.53,6.69-11.84,2.44-2.84,4.89-4.8,8.14-6.85,1.47-.93,2.85-1.68,4.7-2.57s3.84-1.74,5.81-2.48c.24-.09.47-.18.71-.26-.45.16.15-.05.2-.07.48-.17.97-.33,1.46-.5,1.11-.37,2.22-.71,3.34-1.04,2.16-.63,4.34-1.18,6.53-1.67,8.31-1.86,17.26-2.84,26.1-3.18,4.17-.16,7.59-.17,11.74-.02,1.59.06,3.65-.46,4.43-2.01.72-1.43-.63-2.55-2-2.6h0Z"/>
    <path class="cls-3" d="M1270.72,802.99c-13.52,17.96-27.39,36.36-34.84,57.81-7.34,21.14-7.8,43.92-8.59,66.05-.61,16.86-1.03,33.74-1.43,50.61-.45,19.03-.84,38.06-1.22,57.09-.33,16.72-.65,33.44-1.02,50.15-.04,1.67-.07,3.33-.11,5-.03,1.27,6.73.31,6.78-1.82.36-15.97.67-31.94.98-47.9.38-18.91.76-37.82,1.19-56.73.4-17.38.82-34.77,1.39-52.14.69-20.87.83-42.2,6.06-62.53,5.69-22.12,18.49-41.16,31.96-59.26,1.67-2.24,3.34-4.47,5.02-6.7.89-1.18-.78-1.35-1.65-1.31-1.31.07-3.65.52-4.52,1.67h0Z"/>
    <path class="cls-22" d="M781.21,1016.59c-18.33,93.44-59.36,374.73-87.14,488.55,0,0-120.83,24.47-134.93-1.14,0,0,1.56-233.76-43.78-401.53-36.02-133.29-126.56-207.07-92.99-216.38,55.89-15.5,285.65-14.96,318.96,3.24,39.97,21.84,54.32,53.67,39.89,127.26Z"/>
    <path class="cls-22" d="M690.42,966.28s-20-.62-47.62,3.96c3.53-11.59,4-19.91,4-19.91-3.04-2.35-6.23-4.75-9.57-7.18-15.28,5.77-29.97,12.78-44.06,20.65-16.38,9.15-31.97,19.46-46.6,30.76-14.11,10.89-27.34,22.77-39.22,35.64-3.36,3.64-6.61,7.38-9.72,11.2.49.06.99.14,1.48.2-44.77,59.82-23.73,175.64-36.86,285.46-9.63,80.54-23.45,191.98-23.45,191.98,16.72,24.18,163.06,12.41,163.06,12.41,30.72-148.11,88.57-565.15,88.57-565.15Z"/>
    <path class="cls-28" d="M544.83,878.15c41.29-3.72,86.62.67,119.69,28.12,8.71,7.23,16.16,15.88,22.23,25.44,6.16,9.7,10.01,19.84,9.61,31.43-.36,10.35-1.81,20.86-3.15,31.12-5.14,39.25-15.89,77.62-23.21,116.48-12.22,64.8-24.27,129.63-35.49,194.61-10.78,62.4-20.8,124.94-29.31,187.7-1.03,7.61-2.04,15.23-3.03,22.85-.38,2.92,5.4,2.19,5.74-.41,8.27-63.74,18.16-127.25,28.93-190.61,11.18-65.8,23.29-131.43,35.61-197.02,7.96-42.34,18.71-84.23,25.46-126.79,1.54-9.69,2.42-19.47,3.48-29.22,1.11-10.28,1.22-20.31-2.76-30.04-5.13-12.52-13.89-24.02-23.61-33.36-28.52-27.42-68.95-36.11-107.42-35.69-7.43.08-14.86.51-22.26,1.18-3.2.29-4.34,4.56-.48,4.21h0Z"/>
    <path class="cls-16" d="M536.33,304.97c-14.7-3.58-38.11-11.15-38.11-11.15,0,0-6.06,37.22,28.03,45.52,34.09,8.3,44.23-27.92,44.23-27.92,0,0-19.45-2.88-34.16-6.46Z"/>
    <path class="cls-27" d="M536.47,305.01c-6.99-1.7-34.88-9.77-34.88-9.77,0,0,4.52,25.33,29.81,31.49,27.42,6.68,35.41-15.36,35.41-15.36l-30.33-6.36Z"/>
    <path class="cls-33" d="M536.52,306.15c-6.99-1.7-27.97-8.09-27.97-8.09,0,0,5.75,9.68,26.73,14.79,20.97,5.11,29.48-.86,29.48-.86l-28.24-5.84Z"/>
    <path class="cls-16" d="M570.12,310.77c-.7-.37-1.75-1.51-5.15-2.66-5.66-1.92-5.01-2.82-9.12-4.17-7.02-2.31-12.27-.53-15.38-1.29-3.11-.76-6.96-4.75-14.25-5.93-4.27-.69-15.03-1.66-20.94-2.56-3.55-.54-7.28-2.91-8.07-2.91-1.1,0-.98,8.24,38.14,17.76,39.12,9.53,35.74,2.27,34.77,1.76Z"/>
    <path class="cls-31" d="M916.26,681.84c-10.46-10.8-21.83-22.48-35.59-29.2-7.1,11.27-24.47,24.04-24.47,24.04-7,18.52-65.94,119.32-65.94,119.32l-159.58,34.89-11.06,36.55s161.39,19.76,213.99,2.08c22.17-7.45,63.34-99.75,85.39-141.96l8.16-34.33c-3.65-3.8-7.26-7.63-10.91-11.4Z"/>
    <path class="cls-10" d="M790.28,796.24c7.86,2.69,14.22,9.03,17.01,16.85.29.81,3.23-.07,2.97-.8-2.87-8.07-9.47-14.53-17.56-17.3-.63-.22-1.52.04-2.09.35-.31.17-.98.68-.33.9h0Z"/>
    <path class="cls-10" d="M700.9,695.2c-12.72,3.66-22.63,15.37-23.47,28.69-.09,1.39,2.92.88,2.99-.29.75-12.03,9.27-23.25,20.95-26.61.51-.15,1.43-.61,1.25-1.29s-1.23-.63-1.72-.49h0Z"/>
    <path class="cls-10" d="M802.76,776.7c5.12-11.84,11.12-23.29,17.94-34.24.29-.46-1.06-.3-1.19-.28-.54.09-1.42.3-1.74.81-6.83,10.95-12.83,22.39-17.94,34.24-.2.47,2.6.24,2.93-.52h0Z"/>
  </g>
  <g id="Layer_8" data-name="Layer 8">
    <path class="cls-30" d="M612.08,441.98c-19.34-18.14-72.01-54.44-90.95-63.95-.13,1.77-.19,2.41-.53,4.15l22.64,43.51-51.28,222.1,82.76,89.09,8.13-25.56s9.99-2.6,27.38-7.44c34.09-9.47,87.49-48.87,87.49-48.87-6.88-22.17-55.28-184.56-85.64-213.04Z"/>
    <path class="cls-18" d="M620.89,569.74c-5.27,17.61-9.9,35.41-14.59,53.18-5.39,20.43-10.69,40.89-16.21,61.28-2.47,9.13-4.98,18.26-7.69,27.32-.29.95,1.53.74,1.9.66,5.3-1.11,10.56-2.54,15.77-4.03,11.24-3.24,22.37-7.08,33.02-11.93,19.83-9.04,38.7-20.4,56.44-33.05,3.57-2.54,7.12-5.12,10.54-7.86.18-.15.41-.49.32-.74-1.44-4.45-2.88-8.9-4.32-13.36-.31-.95-2.17-.48-2.71-.07-6.82,5.09-14.01,9.73-21.24,14.21-15.87,9.85-32.43,18.73-49.74,25.78-10.75,4.38-21.82,8.03-33.21,10.34-.51.1-1.62.63-1.44,1.31.19.72,1.42.51,1.9.42,20.24-4.1,39.59-12.23,57.88-21.65,14.03-7.22,27.61-15.33,40.64-24.23,2.45-1.67,4.91-3.36,7.29-5.14l-2.71-.07c1.44,4.45,2.88,8.9,4.32,13.36l.32-.74c-9.41,7.55-19.68,14.35-29.98,20.74-10.25,6.36-20.81,12.26-31.69,17.47s-21.74,9.2-33.05,12.59c-6.2,1.86-12.48,3.6-18.82,4.93l1.9.66c5.27-17.61,9.9-35.41,14.59-53.18,5.39-20.43,10.69-40.89,16.21-61.28,2.47-9.13,4.98-18.26,7.69-27.32.36-1.21-2.99-.76-3.34.4h0Z"/>
    <path class="cls-31" d="M1070.53,986.37s16.94,36.46,26.71,57.42c9.76,20.96-5.7-8.62,3.04,11.24,11.65,26.48-227.75,44.13-230.51,47.92-2.59,3.54-20.87,245.79-20.87,245.79l-37.15,3.7s-79.23-237.02-61.85-261.5c13.08-44.19,128.98-84.66,209.86-101.65,6.61-1.39,15.57-9.08,15.57-9.08,38.8,3.26,83.93,5,95.21,6.16h0Z"/>
    <line class="cls-29" x1="919.48" y1="637.01" x2="906.41" y2="635.01"/>
    <path class="cls-15" d="M899.71,895.81c-10.41-15.33-12.46-40.96-18.04-67.42,10.94.23,47.12-7.39,58.06-7.53,16.14-.2,32.28-.85,48.38-2.06,14.63-1.11,29.1-2.71,43.52-5.57,14.04-2.79,27.98-6.11,42.09-8.52,12.02-2.05,16.85-.76,29.04-.05-.54,22.39.69,15.91,4.05,27.02l-17.6,24.31c5.34,19.87,16.66,32.05,21.51,41.2l6.74,14.42c6.11,11.78,17.02,33.2,18.73,46.41,21.17,163.08-103.38,146.86-103.38,146.86,0,0-23.44-44.13-29.69-53l-13.38-16.84c-4.21.88-21.6-25.83-35.42-36.55-29.59-22.96-79.06-23.72-79.06-23.72l22.98-65.38,1.49-13.58Z"/>
    <path class="cls-26" d="M998.54,974.11c-8.88-.04-129.39-17.47-138.25-18.41-1.19-5.21-.48-11.22-.34-16.5.27-10.25.8-20.5,1.32-30.74,1.3-25.7,2.93-51.3,2.9-77.02,0-5.9-.63-55.49-.85-55.56-37.96-10.67-51.82-45-51.82-45,0,0,33.71-74.45,45.8-90.11,12.09-15.66,70.03-37.23,70.03-37.23-20.89,41.31,25.34,33.21,25.34,33.21,8.06.62,48.08-11.74,67.95-33.48,0,0,8.76,2.77,37.02,14.1,46.98,18.84,56.13,74.26,58.18,95.41,1.32,13.58-10.37,65.52-10.92,102.87,0,0,16.41,78.93,27.01,128.42,0,0-67.58,30.3-133.35,30.02Z"/>
    <path class="cls-9" d="M866.8,774.32c-.53-2.24-.56-4.64-.7-6.92-.26-4.16-.46-8.33-.69-12.5-.62-11.07-1.42-22.15-2.92-33.14-.86-6.33-1.95-12.63-3.51-18.83-.24-.95-3.64-.07-3.4.91,5.19,20.63,5.79,42.11,7.04,63.24.16,2.68.16,5.52.78,8.15.23.95,3.63.09,3.4-.91h0Z"/>
    <path class="cls-15" d="M936.7,968.54c-7.95.35-16.58-2.86-24.44-3.7-16.17-1.74-32-6.83-48.37-6.49-2.01.04-3.28-1.06-3.85-2.48-25.38,17.99-88.15,54.75-100.25,62.82-14.54,9.7-46.16,51.23-21.04,159.29,17.46,75.09,33.5,109.22,41.67,123.05,2.92,4.94,8.9,7.13,14.33,5.29l30.36-10.29,8.9,34.73c1.76,6.87,8.12,11.54,15.2,11.16,18.53-.98,52.36-3.89,59.54-12.21,6.12-7.09,15.12-87.18,15.28-144.3.1-36.32-8.24-77.86-8.24-77.86,0,0,51.34,4.7,103.4-.11,52.05-4.81,82.63-25.17,82.63-25.17-.21-64.21-111.21-99.81-165.13-113.73Z"/>
    <path class="cls-31" d="M354.69,746.9s-7.2-85.27-6.86-167.07c-8.28,2.81-3.92,6.86-12.41,8.95-14.67,3.61-29.68,5.46-44.75,6.24-26.42,1.37-52.85-.28-79.28-.8-3.83,75.04,17.58,188.78,36.96,236.08,16.92,41.28,85.14,47.73,85.14,47.73,52.94,13.76,191.41.56,321.79-5.41l35.44-47.15c-41.14-4.67-336.03-78.56-336.03-78.56Z"/>
    <path class="cls-10" d="M353.78,746.35c-15.25,1.54-30.81,7.34-40.99,19.24-2.87,3.35-5.23,7.08-7.05,11.1-.68,1.49,2.42,1.31,2.92.22,6.09-13.45,18.27-22.29,32.27-26.22,4.1-1.15,8.28-1.9,12.52-2.33.6-.06,1.65-.43,1.73-1.15s-.84-.9-1.38-.84h0Z"/>
    <path class="cls-31" d="M622.59,873.41s44.12,16.66,57.77,17.55c13.65.88,45.37,6.9,45.37,6.9-2.32,3.54-3.34,7.77-2.87,11.98.87,4.79,3.67,9.02,7.75,11.7l17.6-18.56c2.13,10.4,12.15,4.65,12.15,4.65l13.35-16.7c2.05,13,15.24,5.83,15.24,5.83l10.36-24.87c2.49,4.81,5.9,9.08,10.04,12.57,5.48,3.87,9.27-6.04,9.27-6.04l-15.48-44.34-57.65-28.94-101.88,9.37-52.98-6.37"/>
    <path class="cls-10" d="M748.97,903.61c.81,3.74,3.1,6.57,7.12,6.7,2.44.08,5.15-.65,7.26-1.89,1.25-.73,2.18-2.44,3.06-3.54,2.16-2.7,4.32-5.4,6.47-8.1,1.49-1.86,2.97-3.72,4.46-5.58-.96.12-1.91.24-2.87.35.4,2.38,1.26,4.88,3.19,6.46,1.49,1.21,3.35,1.74,5.25,1.81,2.97.1,6.04-.78,8.68-2.1.76-.38,1.06-.84,1.37-1.6l1.59-3.83c1.68-4.04,3.37-8.08,5.05-12.11,1.15-2.75,2.29-5.5,3.44-8.25-.99.19-1.98.38-2.97.58,2.47,4.71,5.75,9.05,9.83,12.49,2.75,2.32,6.48,1.55,8.9-.87,1.02-1.02,1.84-2.22,2.52-3.48.32-.59.95-1.49,1.02-2.17s-.45-1.56-.67-2.18c-3.65-10.44-7.29-20.89-10.94-31.33-1.25-3.57-2.4-7.18-3.74-10.72-.2-.54-.47-.71-.97-.97-1.06-.53-2.12-1.06-3.17-1.59-9.93-4.98-19.85-9.97-29.78-14.95-7.92-3.97-15.78-8.09-23.76-11.93-.13-.06-.27-.13-.4-.2-.89-.45-3.61.84-2.36,1.46,6.33,3.18,12.65,6.35,18.98,9.53,10.3,5.17,20.59,10.34,30.89,15.51,1.65.83,3.31,1.66,4.96,2.49.83.41,1.7,1.01,2.58,1.29.56.18-.2.08-.04-.17-.05.09.25.71.28.8.51,1.47,1.03,2.94,1.54,4.41,3.7,10.6,7.4,21.21,11.11,31.81.63,1.8,1.26,3.6,1.89,5.41.17.48.31.97.5,1.44.04.11.1.23.12.35.05.25.05-.25,0-.07-.18.73-.7,1.53-1.1,2.21-.65,1.11-1.41,2.25-2.43,3.06-1.11.87-2.1.56-3.17-.31-1.97-1.6-3.74-3.54-5.32-5.52s-3.07-4.26-4.29-6.59c-.55-1.05-2.61-.3-2.97.58-3.02,7.24-6.04,14.49-9.06,21.73-.44,1.05-.87,2.09-1.31,3.14l.56-.64c-.21.11.43-.17.14-.07-.13.04-.25.12-.38.18-.45.21-.92.4-1.39.58-1.03.4-2.55.81-3.91.87-4.43.21-6.63-3.36-7.29-7.33-.19-1.15-2.5-.12-2.87.35-3.06,3.83-6.12,7.66-9.18,11.49-1.32,1.65-2.86,3.26-4.02,5.03-.28.42.09-.02.28-.21-.08.08-.41.14.07-.03-.14.05-.27.14-.4.2-1,.44-1.54.67-2.61.88-1.13.22-2.56.16-3.7-.49-1.85-1.05-2.63-3.19-3.06-5.15-.23-1.06-3.21-.31-2.97.8h0Z"/>
    <path class="cls-10" d="M800.06,849.93c-3.28-3.91-6.98-7.45-11.03-10.55-4.23-3.39-8.54-6.17-12.41-8.71-3.44-2.3-7.03-4.37-10.76-6.19-.17-.1-.34-.17-.51-.26-.09.13-.19.27-.3.4-.37.44-.73.9-1.09,1.35.33.15.67.29,1,.46,2.96,1.62,6.32,3.99,10.16,6.63,3.84,2.64,7.98,5.43,12.08,8.66,3.89,3.01,7.51,6.36,10.8,10.02,1.36,1.36,2.13,3.2,2.14,5.12-.02,1.87-.25,3.85-.39,5.57-.65,6.92-1.51,10.92-1.15,11.04,1.83-3.36,2.91-7.09,3.16-10.91.38-1.92.63-3.85.75-5.8.12-2.51-.77-4.96-2.46-6.82Z"/>
    <path class="cls-10" d="M784.4,865.25c-.11-2.3-.57-4.57-1.35-6.74-1.44-2.08-3.33-3.8-5.52-5.06-7.99-5.36-15.81-8.9-21.14-12.03-1-.7-2.03-1.36-3.06-2.01-.35.42-.71.83-1.06,1.25,1.03.8,2.1,1.55,3.25,2.19,5.12,3.6,12.88,7.49,20.62,12.66,1.82,1.03,3.42,2.41,4.71,4.06.65,1.86,1.06,3.78,1.24,5.74.66,3.5.48,7.11-.54,10.53-.88,2.77-2.41,4.91-3.12,6.51-.72,1.59-.83,2.63-.83,2.63,0,0,.71-.74,1.69-2.14,1.5-2,2.84-4.12,3.98-6.34,1.32-3.59,1.72-7.46,1.14-11.25Z"/>
    <path class="cls-30" d="M318.79,667.56c13.52-1.64,47.79-10.96,61.17-13.69l-15.82-46.32s11.34-125.54-20.55-177.72c-31.89-52.18-18.05-72.44-18.05-72.44,0,0-127.56,17.57-127.21,157.25.07,29.91-1.81,97.32,2.2,148.83,37.18,1.87,81.1,8.6,118.25,4.09Z"/>
    <path class="cls-18" d="M317,418.68c7.75-.54,15.08,3.3,20.98,7.99,6.51,5.16,11.91,11.78,16.34,18.77,7.52,11.87,11.38,25.5,13.84,39.22,2.93,16.34,3.97,32.99,4.4,49.56.49,18.59.14,37.2-.36,55.79-.51,18.7-1.22,37.39-1.56,56.09-.04,2.26-.08,4.52-.1,6.79l1.16-1.16c-3.58,1.81-7.26,3.46-10.98,4.97-2.72,1.1-5.49,2.14-8.35,2.85-1.59.4-2.88.39-4.35.68-.38.07-.76.15-1.13.22-.25.05-.5.1-.76.15-.17.03-.33.06-.5.09-.11.02-.7.13-.43.08.31-.06-.26.05-.34.06-.22.04-.44.08-.66.12-.48.09-.97.18-1.45.26-1.15.2-2.3.4-3.45.6-6.59,1.11-13.2,2.09-19.83,2.94-16.57,2.14-33.24,3.82-49.97,3.51-14.62-.27-29.22-1.43-43.75-2.99-5.38-.58-10.76-1.21-16.13-1.92-2.66-.35-5.33-.87-8-1.1-.12-.01-.24-.04-.36-.05l1.24.72c-.42-7.18-.85-14.35-1.27-21.53-.06-1.04-.12-2.09-.18-3.13-1.05.57-2.09,1.13-3.14,1.7,5.44,1.41,10.97,2.51,16.5,3.55,12.91,2.42,25.96,4.21,39.08,5.08,7.61.51,15.24.69,22.87.45,8.1-.25,16.17-1.11,24.2-2.13,15.05-1.92,30-4.63,44.82-7.86,7.51-1.63,15.07-3.28,22.46-5.39.1-.03.21-.06.31-.09.66-.18,1.89-.78,1.66-1.66s-1.64-.78-2.27-.61c-5.95,1.63-11.97,3.05-17.99,4.41-13.97,3.16-28.05,5.85-42.23,7.87-8.12,1.16-16.28,2.16-24.47,2.69-7.53.49-15.08.47-22.61.12-13.39-.62-26.73-2.25-39.92-4.59-6.64-1.18-13.21-2.62-19.79-4.13-.09-.02-.19-.05-.28-.07-1.11-.29-3.22.28-3.14,1.7.42,7.18.85,14.35,1.27,21.53.06,1.04.12,2.09.18,3.13.03.54.86.66,1.24.72,6.77,1.02,13.57,1.85,20.37,2.62,14.4,1.63,28.86,2.87,43.35,3.33,7.44.23,14.89.26,22.32-.15,9.35-.52,18.7-1.51,28-2.62,11.33-1.36,22.64-3,33.84-5.18.34-.07.69-.12,1.03-.2.06-.01.13-.02.19-.04.21-.07-1.43.08-.58.1.34,0,.69-.02,1.03-.06,2.78-.27,5.52-1.14,8.15-2.06,5.09-1.78,10.05-3.96,14.89-6.34.31-.15.62-.3.93-.46.4-.2,1.15-.61,1.16-1.16.24-18.93.94-37.85,1.49-56.77.55-19.03.99-38.08.64-57.11-.32-17.04-1.18-34.16-3.86-51.01-2.22-13.93-5.69-27.94-12.72-40.29-4.17-7.31-9.37-14.17-15.61-19.84-5.97-5.43-13.09-9.92-21.21-11.08-1.91-.27-3.84-.31-5.77-.17-.77.05-2.08.55-2.2,1.44-.13.94,1.1,1.08,1.75,1.03h0Z"/>
    <path class="cls-31" d="M1097.49,708.6c-20.46,43.01-64.26,188.7-86.13,196.98-51.9,19.64-203.23-2.4-203.23-2.4l-.31-41.3,163.41-23.95s44.19-153.09,50.49-171.85c0,0,18.22-32.14,59.83-5.36"/>
    <path class="cls-26" d="M1086.97,782.37c-35.93,5.37-70.56-13.51-102-31.73-2.79-1.62-5.66-3.3-7.6-5.88-5.12-6.8-1.89-16.44,1.51-24.25,8.59-19.71,17.28-39.61,30.01-56.94,12.73-17.33,30.02-32.12,50.75-37.84,1.82-.5,3.72-.94,5.57-.59,2,.37,3.72,1.6,5.29,2.9,16.29,13.47,29.72,33.84,33.03,54.72,5.03,31.78-1.59,66.86-12.51,97.13"/>
    <path class="cls-9" d="M999.19,757.28c-1.16-.01-2.82-1.05-3.91-1.82-1.65-1.17-3.14-2.54-4.55-3.98-1.96-2.01-3.89-4.15-5.52-6.43-.72-1-.79-2.25-.73-3.44.1-2.21.65-4.4,1.24-6.52.56-2,1.24-3.97,1.83-5.97.85-2.87,1.5-5.79,2.27-8.68,3.6-13.49,7.96-26.77,13.07-39.76,2.51-6.36,5.19-12.65,8.04-18.86,2.29-4.99,4.81-9.74,8.34-13.99,7.34-8.84,17.93-14.66,29.6-14.25.81.03,1.85-.22,2.21-1.05.31-.73-.29-1.43-1.04-1.45-11.27-.39-21.79,3.97-29.9,11.73-9.08,8.7-13.67,20.76-18.37,32.16-5.54,13.45-10.27,27.21-14.18,41.22-1.58,5.67-2.99,11.37-4.7,16.99-.71,2.33-1.39,4.69-1.72,7.1-.26,1.89-.39,4.08.6,5.8.46.81,1.13,1.53,1.71,2.25,1.31,1.61,2.68,3.17,4.13,4.66,2.96,3.04,6.74,6.78,11.27,6.82.74,0,1.79-.58,1.87-1.38.09-.9-.9-1.13-1.57-1.13h0Z"/>
    <path class="cls-9" d="M1068.4,784.36c1.92-.25,3.91-.19,5.84-.27,3.07-.12,6.15-.24,9.22-.43,1.88-.12,4.7.07,6.21-1.28,1-.89,1.56-2.32,2.11-3.5.67-1.47,1.26-2.97,1.93-4.44.76-1.69,1.78-3.26,2.62-4.91,1.07-2.1,2.07-4.24,3-6.4,1.87-4.4,3.46-8.92,4.78-13.52,2.73-9.54,4.34-19.4,4.92-29.3.64-10.82.08-21.74-1.89-32.41-.24-1.32-3.65-.48-3.4.91,3.41,18.53,2.7,37.94-1.75,56.24-2.2,9.02-5.36,17.83-9.77,26.01-.74,1.37-1.51,2.69-2.12,4.12-.65,1.52-1.27,3.05-2,4.53-.27.55-.66,1.08-.92,1.63-.43.94-.09.13-.09.13-.02.22.13-.06.37-.18.82-.44.16.04.05-.05.1.07.4-.05-.08,0-.21.02-.42.05-.64.08-.54.06-1.09.1-1.63.14-3.25.24-6.51.36-9.77.49-2.17.09-4.42.01-6.58.3-.64.08-1.82.45-1.91,1.24s.93.95,1.51.88h0Z"/>
    <path class="cls-31" d="M830.02,860.34c-.98-1.9,13.88-1.83,12.7-3.59-8.37,2.25-33.28,2.45-42.93,4.32.02-.12.03-.21.03-.21l-10.1.93s-27.45-11.92-32.84-14.05c-5.39-2.12-32.44-5.26-32.44-5.26,0,0-16.32-8.84-17.9-8.02-1.58.82-6.17,4.33-2.04,10.24,4.03,5.82,8.6,11.19,13.66,16.02l-45.07,24.78c-2.87,1.51-5.03,4.25-5.89,7.47-.51,2.19-.33,4.03,2.31,4.12,5.89-.79,11.77-1.83,17.61-3.07l-.07.02s1.72,9.4,8.89,10.56c2.69.21,5.32.78,7.82,1.71,0,0,3.67,7.85,7.38,9.84,3.72,2,35.1,2.1,35.1,2.1,0,0,18.48-3.62,26.66-8.35,5.82-3.36,12.78-4.16,16.71-4.42,11.78.55,69.61,4.05,85.62,4.09.15-.52-34.51-14.42-34.37-14.94,1.22-4.26-5.88,1.55-5.4-2.91.59-5.47.38-10.96-.55-16.39-.91-5.26-2.5-10.32-4.91-14.98Z"/>
    <path class="cls-10" d="M669.67,888.95c5.44-3.08,10.88-6.15,16.32-9.23,8.66-4.9,17.33-9.8,25.99-14.7,1.98-1.12,3.96-2.24,5.94-3.36.25-.14.91-.53.55-.87-4.75-4.55-9.07-9.54-12.89-14.91-1.55-2.18-3.07-4.74-1.97-7.47.33-.82.86-1.55,1.51-2.15.22-.21.46-.39.7-.57.02-.01.31-.28.24-.17.27-.45-1.36.55-1.35.25,0-.09,2.65.84,2.99.98,1.61.66,3.18,1.4,4.74,2.16,2.83,1.37,5.62,2.81,8.4,4.29,1.11.59,1.98.71,3.23.86,3.05.37,6.1.76,9.15,1.17,3.96.54,7.91,1.1,11.85,1.76,2.92.49,5.94.92,8.76,1.86,3.04,1.01,6.02,2.25,9.03,3.35,3.76,1.36,7.52,2.71,11.28,4.05,1.51.54,3.08.99,4.53,1.66,2.82,1.32,5.64,2.63,8.47,3.95,1.08.5,1.73.67,2.87.56,1.71-.16,3.43-.33,5.14-.49,6.23-.6,12.46-1.19,18.69-1.79,11.19-1.07,22.38-2.14,33.57-3.21.22-.02.43-.04.65-.06.6-.06,1.78-.2,2.12-.8s-.27-.72-.79-.67c-10,.96-20,1.91-30,2.87-6.78.65-13.56,1.3-20.34,1.94-2.17.21-4.33.41-6.5.62-.56.05-1.12.09-1.68.16-.12.02-.28,0-.4.04-.31.11.71.32.38,0-.28-.28-.92-.43-1.27-.59-.71-.33-1.42-.66-2.13-.99-1.63-.76-3.27-1.52-4.9-2.29-1.42-.66-2.81-1.19-4.29-1.72-7.04-2.5-14.09-4.99-21.07-7.66-2.57-.99-5.38-1.42-8.08-1.9-3.99-.71-8-1.3-12.01-1.85-3.37-.47-6.74-.9-10.12-1.32-.8-.1-1.68-.31-2.49-.3-.51,0,.2-.17.22.11,0-.07-.6-.32-.68-.36-2.75-1.47-5.51-2.9-8.31-4.27-1.66-.81-3.34-1.61-5.04-2.33-1.14-.48-2.34-1.01-3.57-1.2-3.02-.46-6.21,2.51-6.9,5.3-.66,2.71.75,5.04,2.25,7.17,1.95,2.75,4.03,5.41,6.23,7.97,2.15,2.48,4.41,4.86,6.78,7.13l.55-.87c-5.44,3.08-10.88,6.15-16.32,9.23-8.66,4.9-17.33,9.8-25.99,14.7-1.98,1.12-3.96,2.24-5.94,3.36-.43.24-.93.63-.35.98.54.32,1.76-.1,2.23-.37h0Z"/>
    <path class="cls-10" d="M713.81,864.01c3.62-2.82,7.61-5.04,11.94-6.54,2.27-.79,4.44-1.85,6.74-2.59,2.35-.75,4.75-1.35,7.18-1.82.53-.1,1.38-.65,1.21-1.29-.19-.7-1.18-.61-1.69-.51-2.5.48-4.97,1.1-7.4,1.89s-4.86,1.92-7.33,2.8c-4.53,1.61-8.74,3.95-12.53,6.9-1.55,1.21.82,1.99,1.88,1.17h0Z"/>
    <path class="cls-10" d="M687.21,895.11c3.3-1.82,7.03-2.92,10.53-4.3,4.07-1.6,8.14-3.21,12.26-4.67,3.53-1.25,7.11-2.37,10.74-3.3,1.12-.29,2.24-.56,3.38-.77.38-.07.75-.12,1.13-.17.34-.04.18-.1.12-.02.05,0,.1,0,.15,0-.29,0-.52-.13-.69-.4.37,1.09,3.26.27,2.9-.78s-2.58-.5-3.35-.36c-2.45.44-4.86,1.08-7.25,1.77-7.19,2.08-14.17,4.84-21.13,7.59-3.57,1.41-7.26,2.57-10.62,4.43-.5.28-.75.85-.23,1.22.56.4,1.54.04,2.06-.25h0Z"/>
    <path class="cls-10" d="M734.3,895.45c-4.4,3.12-9.13,5.17-14.28,6.72-2.6.78-5.1,1.69-7.79,2.19s-5.48.68-8.24.62c-1.68-.03-2.2,2.13-.24,2.18,2.88.06,5.74-.17,8.58-.67,2.99-.53,5.75-1.58,8.66-2.39,5.48-1.52,10.6-3.99,15.24-7.28.53-.38.69-1.11.15-1.54-.59-.46-1.53-.22-2.08.16h0Z"/>
  </g>
  <g id="Layer_11" data-name="Layer 11">
    <path class="cls-25" d="M832.2,1311.7c-9.06-27.65-19.07-54.97-28.84-82.37-10.09-28.27-20.07-56.59-28.76-85.32-4.09-13.52-8.01-27.16-11.1-40.95-1.74-7.75-3.08-15.73-2.47-23.7.5-6.56,2.77-12.52,5.37-18.48,2.42-5.55,5.08-11.06,8.31-16.19,3.3-5.25,7.8-9.44,12.71-13.18,11.2-8.55,24.31-14.13,37.02-19.98,6.17-2.84,12.21-5.95,18.34-8.88,6.05-2.89,12.18-5.61,18.23-8.51,11.66-5.59,23.32-11.92,32.49-21.21,2.17-2.2,4.17-4.56,6-7.06.13-.18-1.76-.13-2.13.39-8.13,11.07-19.76,18.62-31.84,24.78-5.89,3-11.92,5.73-17.93,8.51s-12.24,5.97-18.38,8.91c-12.48,5.96-25.42,11.15-37.12,18.62-5.6,3.57-10.98,7.67-15.49,12.57-3.68,4.01-6.29,9.04-8.7,13.86-2.49,4.98-4.79,10.09-6.69,15.33-2.6,7.15-2.9,14.82-2.06,22.32.86,7.75,2.79,15.34,4.72,22.88,1.72,6.76,3.57,13.48,5.51,20.18,8.29,28.7,18.08,56.95,28.06,85.1,9.87,27.83,20.06,55.54,29.48,83.53,1.06,3.15,2.1,6.29,3.14,9.45.16.48,2.31-.14,2.17-.58h0Z"/>
    <path class="cls-18" d="M370.85,342.61c.17,2.52.57,5.04.99,7.54,1.07,6.39,2.62,12.7,4.57,18.88,2.7,8.53,6.19,16.82,10.57,24.62,5.12,9.11,11.42,17.57,18.96,24.82,8.56,8.23,18.66,14.82,29.63,19.38,13.52,5.63,28.14,8.2,42.73,8.62,9.01.26,18.12-.16,27.02-1.58,6.79-1.08,13.62-2.76,19.85-5.76,8.1-3.9,15.05-10.21,17.14-19.24,1.59-6.88.36-14.15-1.97-20.71-1.55-4.34-3.59-8.56-6.08-12.44-.13-.2-.25-.4-.39-.59-.64-.92-4.03.22-3.26,1.35,1.75,2.54,3.2,5.4,4.55,8.45,2.63,5.94,4.54,12.51,4.33,19.07-.26,7.91-3.92,14.85-10.3,19.54-4.41,3.25-9.66,5.27-14.91,6.69-8.05,2.17-16.44,3-24.76,3.28-15.03.51-30.28-1.03-44.58-5.85-11.39-3.84-22.05-9.7-31.24-17.47-8.03-6.79-14.87-14.9-20.45-23.79-4.85-7.73-8.74-16.05-11.79-24.64-2.33-6.57-4.18-13.31-5.52-20.15-.68-3.48-1.07-6.97-1.57-10.47-.02-.15-.03-.31-.04-.47-.07-1.07-3.59-.36-3.5.94h0Z"/>
    <path class="cls-10" d="M968.47,838.68c10.02.53,18.86,8.75,20.74,18.48.16.85,3.15.15,2.97-.8-2.06-10.66-11.78-18.6-22.5-19.17-.58-.03-1.64.24-1.97.77-.36.58.31.69.76.71h0Z"/>
  </g>
</svg>