<?xml version="1.0" encoding="UTF-8"?>
<svg xmlns="http://www.w3.org/2000/svg" xmlns:xlink="http://www.w3.org/1999/xlink" viewBox="0 0 1334 1000">
  <defs>
    <style>
      .cls-1 {
        fill: #008dce;
      }

      .cls-1, .cls-2, .cls-3, .cls-4, .cls-5, .cls-6, .cls-7, .cls-8, .cls-9, .cls-10, .cls-11, .cls-12, .cls-13, .cls-14, .cls-15, .cls-16, .cls-17, .cls-18, .cls-19, .cls-20, .cls-21, .cls-22, .cls-23, .cls-24, .cls-25, .cls-26, .cls-27, .cls-28, .cls-29, .cls-30, .cls-31, .cls-32, .cls-33, .cls-34, .cls-35, .cls-36, .cls-37, .cls-38, .cls-39, .cls-40, .cls-41, .cls-42, .cls-43 {
        stroke-width: 0px;
      }

      .cls-2 {
        fill: #010101;
      }

      .cls-3 {
        fill: #0d1335;
      }

      .cls-4 {
        fill: #f68e46;
      }

      .cls-44 {
        clip-path: url(#clippath);
      }

      .cls-5 {
        fill: none;
      }

      .cls-6 {
        fill: #4163ae;
      }

      .cls-7 {
        fill: #1a3d4c;
      }

      .cls-45 {
        stroke: #231f20;
        stroke-width: .53px;
      }

      .cls-45, .cls-19, .cls-46 {
        fill: #000;
      }

      .cls-45, .cls-46 {
        stroke-miterlimit: 10;
      }

      .cls-8 {
        fill: url(#linear-gradient);
      }

      .cls-9 {
        fill: #825639;
      }

      .cls-10 {
        fill: #f9da03;
      }

      .cls-11 {
        fill: #d4d2c9;
      }

      .cls-12 {
        fill: #32154c;
      }

      .cls-13 {
        fill: #4f2e25;
      }

      .cls-14 {
        fill: #8a4c98;
      }

      .cls-15 {
        fill: #5e3527;
      }

      .cls-16 {
        fill: #131429;
      }

      .cls-17 {
        fill: #151210;
      }

      .cls-18 {
        fill: #0f0a09;
      }

      .cls-20 {
        fill: #381e56;
      }

      .cls-21 {
        fill: #653c29;
      }

      .cls-22 {
        fill: #1d170f;
      }

      .cls-23 {
        fill: #848280;
      }

      .cls-24 {
        fill: #231f20;
      }

      .cls-25 {
        fill: #13110f;
      }

      .cls-26 {
        fill: #513835;
      }

      .cls-27 {
        fill: #0a2f44;
      }

      .cls-28 {
        fill: #2a4e73;
      }

      .cls-29 {
        fill: #8c8483;
      }

      .cls-30 {
        fill: #6a7a80;
      }

      .cls-31 {
        fill: #e8e8e8;
      }

      .cls-32 {
        fill: #3a221a;
      }

      .cls-33 {
        fill: #28160e;
      }

      .cls-34 {
        fill: #6b5a84;
      }

      .cls-46 {
        stroke: #000;
        stroke-width: .42px;
      }

      .cls-35 {
        fill: #b589be;
      }

      .cls-36 {
        fill: #bfc0c1;
      }

      .cls-37 {
        fill: #0f1f28;
      }

      .cls-38 {
        fill: #fff;
      }

      .cls-39 {
        fill: #666362;
      }

      .cls-40 {
        fill: #a66e53;
      }

      .cls-41 {
        fill: #745245;
      }

      .cls-42 {
        fill: #3d231c;
      }

      .cls-43 {
        fill: #afaeaf;
      }
    </style>
    <linearGradient id="linear-gradient" x1="438.08" y1="-338.33" x2="460.17" y2="-456.37" gradientTransform="translate(17.17 329.56) rotate(17.24)" gradientUnits="userSpaceOnUse">
      <stop offset=".03" stop-color="#231f20"/>
      <stop offset=".18" stop-color="#230000"/>
      <stop offset="1" stop-color="#a66f54"/>
    </linearGradient>
    <clipPath id="clippath">
      <rect class="cls-5" x="213.71" y="546.98" width="197.44" height="29.93" rx="4.04" ry="4.04"/>
    </clipPath>
  </defs>
  <g id="Layer_9" data-name="Layer 9">
    <polyline class="cls-11" points="1342.89 981.72 1342.89 -12.38 -19.63 -12.38 -19.63 981.72"/>
    <polygon class="cls-33" points="965.18 755.54 915.24 755.54 926.62 818.18 965.18 818.18 965.18 755.54"/>
    <polygon class="cls-33" points="72.24 757.2 122.18 757.2 110.8 819.84 72.24 819.84 72.24 757.2"/>
    <path class="cls-28" d="M977.42,578.72l-.94-.36-1.67-66.33c-2.47-50.06-16-86.39-44.8-89.21-19.6,0-85.92-.91-92.52,4.17-1.83-86.96,7.62-156.33-134.43-156.33l-156.59.38c-1.67,38.39-6.23,76.64-11.88,114.64-7.09,47.66,6.79,95.03-.47,142.67-3.65,23.94,27.87,48.05,24.78,72.07-3.15,24.47-6.33,48.93-9.43,73.41-4.71,37.22-9.22,74.49-13.1,111.83h447.01v-77.58c11.13-3.64,18.87-15.67,18.92-29.43v-55.33c-.03-21.2-9.02-35.04-24.9-44.59Z"/>
    <path class="cls-28" d="M579.21,785.65c.44-10.9.86-21.8,1.19-32.7.77-25.08,45.17-50.16,45.17-75.25l-5.82-406.09-336.94-.95c-72.95.01-85.1,69.37-86.93,156.33-6.6-5.08-72.92-4.17-92.52-4.17-28.8,2.82-42.33,39.15-44.8,89.21l-1.67,66.33-.94.36c-15.88,9.55-24.86,23.39-24.9,44.59v55.33c.06,13.76,7.79,25.79,18.92,29.43v77.58h529.22Z"/>
  </g>
  <g id="Layer_1" data-name="Layer 1">
    <path class="cls-38" d="M487.43,185.88l-2.25.86c-14.91,2.97-64.75,12.63-76.67,22.09-17.88,14.12,28.71,77.38,27.54,92.14-.53,7.17-5.76,60.11-20.73,98.96-9.9,25.85-18.23,52.27-24.95,79.11l42.18,15.13c20.61,7.39,42.15,11.85,63.98,13.25l53.25,2.75c4.81-27.97,13.39-50.18,20.73-88.07l23.04-118.53,1.94-54.71s-9.36-12.36-10.04-15.28l-31.53-25.2s5.64,26.85-16.56,25.22c-22.93-1.68-34.41-2.59-48.36-19.14,0,0-1.51-20.48-1.57-28.59Z"/>
    <path class="cls-40" d="M503.88,135.36s-4.16,34.22-15.73,51.34c-1.86,2.75-19.41,6.24-19.41,6.24l3,6.05c2.59,5.22,54.81,65.21,59.43,68.77,23,17.71,12.95-24.16,29.15-36.85l-3.62-12.5-2.8-9.15c.2-3.9,12.04-31.36,12.04-31.36"/>
    <path class="cls-9" d="M498.47,148.21c-.02.07-.03.13-.04.2,0-.09,0-.16.04-.2Z"/>
    <path class="cls-40" d="M533.59,200.8l22.43,5.56,11.81.68c1.12.35,9.29-9.62,10.47-10.84,3.67-3.79,8.01-9.69,10.88-14.14,3.07-4.76,8.12-7.4,10.72-13.44,1.9-4.43,2.85-7.64,2.54-15.84-.08-2.08.45-3.99,1.51-5.89,2.24-4.02,4.05-8.95,6.92-14.37.23-.43,1.39-2.46,1.35-3.01,0,0,6.37-20.28,4.51-34.11-1.33-9.94-5.63-15.18-11.48-18.64-5.86-3.46-24.86-7.72-24.86-7.72l-24.73-11.15-25.06,4.51-18.83,23.42-7.33,31.38-4.68,28.58"/>
    <path class="cls-32" d="M546.93,196.96c-.21.06-11.46-4.81-11.68-4.89l-5.2-4.6s-.02-.03-.03-.04c-.61.05-1.26-.1-1.92-.56-3.4-2.39-6.08-5.45-8.55-8.76-2.22-2.98-3.59-10.48-6.41-12.94-1.33-1.16-.65-1.48-1.67-2.84.02.38-.65,2.41-.63,2.78,3.69,9.34,10.61,28.77,17.78,35.35.56.34,2.31,1.43,7.28,3.33,6.52,2.5,10.9,3.99,17.69,5,1.49-4.68,3.53-10.02,4.95-14.72-2.39-.74-3.66.57-11.62,2.88Z"/>
    <path class="cls-2" d="M557.23,127.88c-1.19-1.17-3.03-1.04-4.21-.51-.28.12-1.03.49-1.59,1.34-.71,1.08-.66,2.57-.16,3.62.66,1.4,2.26,2.1,3.71,1.9,1.97-.27,3.18-2.18,3.21-3.82,0-.3,0-1.58-.96-2.52"/>
    <path class="cls-2" d="M596.4,140.28c1.64-.3,3.09.85,3.77,1.95.16.26.57.99.56,2-.02,1.29-.91,2.49-1.9,3.08-1.33.78-3.05.46-4.14-.52-1.48-1.34-1.4-3.59-.5-4.96.17-.25.89-1.3,2.22-1.54"/>
    <path class="cls-2" d="M585.66,142.82s6.81-4.12,10.63-3.36c5.57,1.11,6.54,2.9,7.59,6.28,0,0-2.64-4-6.59-4.66-3.78-.63-11.63,1.75-11.63,1.75Z"/>
    <path class="cls-2" d="M567.86,135.71s-6.85-8-10.99-9.39c-6.05-2.04-14.42-.69-17.28,1.63,0,0,11.21-2.33,15.43-.78,4.03,1.48,12.85,8.55,12.85,8.55Z"/>
    <path class="cls-2" d="M572.62,111.54c.81.43.49,1.06.43,2.58-.02.49-.04,1.23-.05,2.02-.03,1.47-1.5,2.48-2.88,1.97-2.47-.92-4.66-1.87-6.38-2.24-4.64-1-9.38-2.36-14.14-1.8-2.28.27-4.29.78-6.22,1.88-.61.35-2.28,1.89-3.15,1.44-.36-.18.31-2.03.38-2.22,1.37-3.72,4.62-5.16,8.55-5.91,8.02-1.53,15.41.94,23.47,2.27"/>
    <path class="cls-2" d="M612.83,131.18s-1.63-1.81-1.65-1.82c-3.51-3.92-7.7-6.84-12.27-9.23-2.32-1.21-5.19-.4-6.59,1.8,0,.01-.02.03-.02.04-.28.44-1.37,1.61-1.33,2.14,0,.1.06.2.12.28.6.94,1.57,1.61,2.6,2.04,1.28.54,2.66.67,3.95,1.15,3.7,1.39,7.63,2.8,10.53,5.53.23.22,1.45,1.41,1.66,1.63,2.18-1.09,3.29-2.99,3.01-3.56Z"/>
    <g>
      <path class="cls-2" d="M572.37,164.8c-2.08.4-4.73-.66-6.17-2.35-.32-.38-1.72-.54-1.27-.01,1.91,2.23,5.77,3.58,8.45,3.06.27-.05.28-.24.02-.43-.27-.19-.74-.32-1.03-.26"/>
      <path class="cls-2" d="M564.31,161.68c-1.02-.95-2.27-1.67-3.58-2.19-.19-.07-.47-.08-.65,0-.15.07-.21.2-.09.33.51.55,1.25.95,1.98,1.16.23.07.55.1.74-.06.18-.15,0-.34-.19-.39-.6-.17-1.17-.48-1.59-.94-.25.11-.5.23-.75.34,1.17.46,2.28,1.12,3.19,1.97.18.17.51.2.73.14.17-.04.38-.2.2-.37"/>
      <path class="cls-2" d="M558.93,160.21c-1.56-.52-3.18-1.79-3.58-3.24-.6-2.18,1.35-4.67,3.67-5.23.25-.06.19-.26-.01-.37-.26-.15-.63-.14-.89-.08-2.02.49-3.84,2.46-4.11,4.25-.25,1.67.9,3.25,2.64,4.29.52.31,1.08.59,1.66.78.24.08.69.14.86-.02.18-.16-.01-.31-.24-.38"/>
      <path class="cls-2" d="M575.49,164.88c-.03-.21.17-.28.29-.24.42.14.89.15,1.34-.03.09.22.17.43.25.65-.88-.17-1.82-.14-2.73.14-.18.06-.38-.08-.48-.24-.07-.12-.12-.35.06-.41"/>
      <path class="cls-2" d="M574.23,164.74c1.03-.32,2.07-.33,3.05-.14.14.03.3.16.36.32.05.13.02.27-.11.32"/>
      <path class="cls-2" d="M578.68,166.1c1.03.27,2.45-.05,3.32-1.11,1.32-1.59,1.28-3.97.37-5.53-.1-.17.02-.31.18-.31.2,0,.39.17.49.35.8,1.36,1.01,3.23.31,4.89-.65,1.55-1.97,2.37-3.33,2.45-.41.03-.82,0-1.21-.1-.16-.04-.41-.2-.43-.41-.02-.22.15-.26.3-.22"/>
    </g>
    <path class="cls-40" d="M616.59,95.74c.31,1.1.18,3.05.23,4.03.06.16-.03.34.03.51-.2-3.57-.11-7.09-1.97-11.71-6.55-16.25-18.03-24.1-33.5-31-1.64-.73-3.34-1.42-5.07-2.04-18.21-6.54-38.8-5.76-52.45,1.98-6.69,3.8-11.09,7.11-15.67,13.45-4.16,5.76-8.8,13.65-9.99,20.44-.71,4.03-3.08,17.14-1.83,21.12.8,2.55,2.93,6.79,4.37,15.85l12.17,3.69c.38-2.36,3.32-11.59,3.57-14.02,1.75-17.41,11.89-32.97,11.89-32.97,1.05-3.56,11.75-20.48,15.9-23.94,3.75-3.12,9.83-2.81,18.36,1,3.67,1.64,13.97,8.86,15.65,10.87.62.34,2.92,1.55,5.88,2.87,3.97,1.77,9.56,3.93,13.73,4.16.57-.06,4.99-1.77,8.31-.29,3.8,1.7,7.59,5.94,10.39,15.99Z"/>
    <path class="cls-40" d="M567.72,198.73c-.15-.06-.27-.16-.37-.28-1.9-2.25-1.83-3.18-2.9-3.79-.25-.14-.36-.28-1.15-.63-3.19-1.43-5.11-2.36-15.67.7-.21.06-11.46-4.81-11.68-4.89l-5.2-4.6c-.83-.92-17.89-26.49-17.89-26.49-.16-.73-2.93-6.44-2.91-7.1-.06-.06-.12-.12-.18-.17-.02-.02-.08-.06-.13-.1-.02.04-.05.09-.07.11-.12.25-.19.52-.25.79-.28,1.15,2.27-6.12,2.3-4.93.04,1.83-.25,4.16-.28,5.98-.01.64-.55,9.48-.5,10.11,2.11,2.35,11.71,28.13,19.7,35.46.56.34,1.11.75,6.08,2.66,9.33,3.58,18.57,6.25,28.78,6.25,2.66,0,5.15-1.18,6.8-3.17,4.7-5.68,15.11-18.34,19.46-27.61-4.24,4.87-13.24,15.33-19.41,22.44-.19.22-3.88-.64-4.2-.64"/>
    <path class="cls-8" d="M616.37,96.55c.03.08.07.42.1.99.56,1.58.18,2.61.59,4.23-.11-4.09-.12-8.1-2.18-13.2-6.55-16.25-18.03-24.1-33.5-31-1.64-.73-3.34-1.42-5.07-2.04-18.21-6.54-38.8-5.76-52.45,1.98-6.69,3.8-11.09,7.11-15.67,13.45-4.16,5.76-8.8,13.65-9.99,20.44-.71,4.03-3.08,17.14-1.83,21.12.8,2.55,2.93,6.79,4.37,15.85l12.17,3.69c.38-2.36,3.32-11.59,3.57-14.02,1.75-17.41,11.89-32.97,11.89-32.97,1.05-3.56,11.08-19.98,15.23-23.43,3.75-3.12,10.5-3.32,19.03.49,3.67,1.64,13.97,8.86,15.65,10.87.62.34,2.92,1.55,5.88,2.87,3.97,1.77,9.56,3.93,13.73,4.16.57-.06,4.99-1.77,8.31-.29,3.8,1.7,7.37,8.66,10.17,16.8Z"/>
    <path class="cls-40" d="M501.59,149.71c-9.75,7.89-9.99-10.31-9.99-10.31-4.43-10.46-1.73-19.35.36-25.36,2.09-6.01,8.76-3.89,8.76-3.89,5.5,2.34,7.12,6.16,6.07,26.77"/>
    <path class="cls-2" d="M500.31,125.45c-2.31,0-3.88,1.49-4.55,3.61-.23.72-.3,1.43-.43,2.17-.27,1.48-.57,2.84-.44,4.36.15,1.79.95,5.83,3.59,4.88,1.68-.61,1.4-2.89,1.44-4.34.02-.66.03-1.33.11-1.99.05-.41.35-.94.36-1.32,0-.02.11-.15.11-.15-.52.05-.66.11-.42.16.05.01.1.03.15.05.12.1.35.16.5.22.45.2.91.39,1.36.59.32.14,1.45-.09,1.44-.54-.2-4.91-.02-10.68-2.49-15.13-.31-.56-.74-1.34-1.34-1.66-.75-.4-1.6.19-2.18.65-2.35,1.84-3.56,4.73-4.09,7.59-.08.45,1.49.18,1.57-.25.5-2.69,1.9-6.38,4.33-7.62l-1.11.18c-.18-.08.06.02.1.08.13.17.34.3.48.46.63.73,1.04,1.66,1.37,2.56,1.59,4.31,1.6,9.03,1.78,13.55l1.44-.54c-1.24-.54-2.55-1.39-3.89-.62s-1.11,2.86-1.14,4.14c-.02.89,0,1.81-.19,2.68-.03.16-.13.34-.14.5-.02.27-.39.29.15.22s.07-.16-.14-.36-.38-.46-.52-.71c-1.43-2.52-1.05-5.31-.6-8.01.26-1.53.7-4.7,2.75-4.71.48,0,1.71-.73.66-.72h0Z"/>
    <path class="cls-16" d="M576.97,125.07c2.62-.15,5.44-1.33,6.73-3.75,1.12-2.09.78-4.99-1.18-6.46-.25-.19-1.1.18-.86.35,1.73,1.3,2.16,3.74,1.37,5.69-.91,2.26-3.35,3.53-5.69,3.66-.18,0-.53.06-.61.25-.08.18.06.26.25.25h0Z"/>
    <path class="cls-2" d="M566.72,173c-4.94-1.44-16.7-1.62-19.45-.35,0,0,3.67,8.09,15.12,11.43,11.45,3.34,15.31-2.56,15.31-2.56,0,0-4.69-6.68-10.97-8.52Z"/>
    <path class="cls-38" d="M552.53,171.89s6.01,1.24,10.7,2.61c4.68,1.37,10.42,3.55,10.42,3.55,0,0,1.77-3.26-6.72-5.74-8.49-2.48-14.39-.42-14.39-.42Z"/>
    <path class="cls-21" d="M562.56,183.4c-5.14-2.32-8.93-9.31-15.3-10.75,0,0-1.43,11.07,12.02,14.99,13.45,3.92,18.4-6.12,18.4-6.12-6.14-2.21-9.55,2.68-15.13,1.88Z"/>
    <path class="cls-21" d="M573.34,172.05c-2.76-1.03-4.87-.49-6.1-.85s-2.71-1.95-5.6-2.56c-2.7-.58-15.78,2.6-14.77,3.8,1.01,1.2,9.42-.83,17.93,1.65,8.51,2.48,11.82,7.94,13.32,7.47,1.5-.47-2.19-8.54-4.78-9.5Z"/>
  </g>
  <g id="Layer_5" data-name="Layer 5">
    <path class="cls-40" d="M615.22,407.66c.45-11.91,7.42-16.09,16.25-24.47-5.93-18.28-30.18-88.14-46.18-119.63-18.62-36.66-31.76-31.99-31.76-31.99l-26.04,48.11s35.76,116.47,60.64,149.08c8.76,11.49,20.62,11.94,27.87,12.64-3.53-10.68-1.2-22.67-.78-33.74Z"/>
    <path class="cls-40" d="M760.59,390.6c-17.31-2.2-111.18-6.08-130.09-6.84-10.04,5.32-15.28,16.92-18.12,27.26-2.73,9.93.15,19.27,1.08,29.65,35.44,7.33,116.31-9.67,154.15-26.64l-7.01-23.42Z"/>
    <rect class="cls-7" x="-28.95" y="817.46" width="1371.84" height="215.9"/>
    <path class="cls-3" d="M55.31,711.21h885.81c11.97,0,23.94,0,35.91,0,.52,0,1.05,0,1.57,0,1.45,0,3.33-2.19,1.16-2.19H93.94c-11.97,0-23.94,0-35.91,0-.52,0-1.05,0-1.57,0-1.45,0-3.33,2.19-1.16,2.19h0Z"/>
    <path class="cls-3" d="M59.9,579.21c8.11-.01,16.23-.03,24.34-.04,21.89-.04,43.78-.08,65.66-.12,32.58-.06,65.16-.12,97.74-.18,39.47-.07,78.95-.15,118.42-.22,43.53-.08,87.06-.16,130.59-.24,43.64-.08,87.29-.16,130.93-.24,40.97-.08,81.94-.15,122.91-.23,34.39-.06,68.78-.13,103.17-.19,24.9-.05,49.8-.09,74.7-.14,11.72-.02,23.44.04,35.16-.06.51,0,1.02,0,1.54,0,1.12,0,3.45-1.69,1.29-1.69-8.11.01-16.23.03-24.34.04-21.89.04-43.78.08-65.66.12-32.58.06-65.16.12-97.74.18-39.47.07-78.95.15-118.42.22-43.53.08-87.06.16-130.59.24-43.64.08-87.29.16-130.93.24l-122.91.23c-34.39.06-68.78.13-103.17.19-24.9.05-49.8.09-74.7.14-11.72.02-23.44-.04-35.16.06-.51,0-1.02,0-1.54,0-1.12,0-3.45,1.69-1.29,1.69h0Z"/>
    <path class="cls-3" d="M832.99,433.79c-6.53,8.67-13.22,17.56-16.85,27.91-3.57,10.19-3.82,21.17-4.2,31.85-.63,17.47-.94,34.96-1.29,52.44-.18,8.96-.35,17.92-.55,26.88-.01.62,3.26.15,3.29-.88.38-16.94.67-33.88,1.05-50.81.19-8.41.4-16.82.67-25.22.34-10.14.4-20.51,2.95-30.4,3.11-12.06,10.55-22.15,17.92-31.94.43-.57-.38-.65-.8-.64-.63.02-1.78.26-2.19.81h0Z"/>
    <rect class="cls-15" x="923.31" y="646.41" width="292.38" height="51.9" transform="translate(198.42 1587.3) rotate(-78.56)"/>
    <rect class="cls-15" x="873.06" y="648.34" width="316.67" height="34.12" transform="translate(174.69 1544.37) rotate(-78.56)"/>
    <polygon class="cls-15" points="1025.99 777.55 1245.02 840.35 1241.99 855.32 1019.15 811.36 1025.99 777.55"/>
    <polygon class="cls-15" points="1069.19 558.78 1295.41 586.06 1298.44 571.09 1076.03 524.97 1069.19 558.78"/>
    <path class="cls-38" d="M604.75,286.24l-.32-31.42s-9.81-15.74-21.65-22.68c-7.05-4.13-24.66-21.33-28.85-23.76,3.04,8.49.77,22.23-5.41,23.66-7.36,1.7-11.2,2.37-18.6.92-7.1-1.39-13.87-4.57-19.98-8.39-11.43-7.14-22.61-24.53-22.49-38.69l-5.31.91s-50.43,9.83-57.01,10.94c-6.59,1.11-27.92,159.17-27.92,159.17l-26.55,48.5c-2.81,6.1-43.32,55.9-33.13,111.19,0,0,138.32-11.32,152.42-8.39,16.38,3.4,53.99-5.39,59.86-12.25,5.87-6.87,54.96-209.71,54.96-209.71Z"/>
    <path class="cls-26" d="M670.83,496.03s-.09.03-.13.04c0-.11,0-.22,0-.34.04.1.09.2.13.3Z"/>
    <path class="cls-27" d="M590.92,564.52c.62-3.76,1.44-7.48,2.4-11.16,2.18-8.3,5.15-16.4,8.67-24.22,3.62-8.05,7.86-15.83,12.7-23.2,3.29-5.01,6.88-9.85,10.79-14.41-77.98-16.87-247.94-8.56-247.94-8.56,0,0-56.79,2.45-40.4,64.42,14.61,55.21,192.64,34.17,252.92,17.38.29-.08.57-.16.85-.25Z"/>
    <path class="cls-6" d="M513.89,669.93s-.04,0-.06-.04c-.08-.15-.06-.12.06.04Z"/>
    <path class="cls-27" d="M607.58,505.69s5.37-30.64-21.19-38.17c-36.17-10.26-213.58,16.15-213.58,16.15l234.76,22.03"/>
    <path class="cls-26" d="M505.7,316.07s.1.02.14.05c-.02.19.03.4-.17.54,0-.19.02-.39.02-.58Z"/>
    <path class="cls-26" d="M491.37,367.98s-.09.04-.14.04c0-.12,0-.25-.01-.37.05.11.1.22.16.32Z"/>
    <path class="cls-41" d="M550.58,318.15c-.06-.02-.13-.04-.2-.06.07-.02.14-.04.21-.07.02.04.01.09-.02.12Z"/>
    <path class="cls-41" d="M521.76,316.81c.07-.03.14-.06.21-.09.01.04.03.07.04.11-.08,0-.17-.01-.25-.02Z"/>
    <path class="cls-41" d="M549.97,318.08c-.09,0-.18,0-.27-.01.09-.08.18-.07.27.01Z"/>
    <path class="cls-41" d="M506.33,316.12c.08-.07.16-.07.23,0-.08,0-.15,0-.23,0Z"/>
    <path class="cls-40" d="M434.96,221.05s12.74,4.74,2.73,44.37c-10.18,40.28-47.13,124.81-47.13,124.81,0,0,87.76,37.81,103.53,48.21l1.56,26.35c-32.4-.67-131.7-12.83-150.43-29.52,0,0-16.91-12.23-15.47-33.29,2.76-40.5,47.66-151.34,47.66-151.34"/>
    <path class="cls-13" d="M392.8,389.35c-9.16-3.4-19.69-1.17-27.03,5.15-.37.32-.14.71.23.86.47.19,1.09-.08,1.44-.39,6.61-5.69,15.98-7.42,24.16-4.38.76.28,2.38-.81,1.21-1.24h0Z"/>
    <path class="cls-40" d="M492.64,437.2l-1.62,16.2-.44,10.49s19.76,7.47,25.76,7.34c6-.13,20.09,1.29,20.09,1.29-.88,1.63-1.16,3.52-.8,5.34.56,2.06,1.95,3.8,3.83,4.82l6.98-8.78c1.33,4.46,5.49,1.57,5.49,1.57l5.2-7.8c1.39,5.6,6.88,1.97,6.88,1.97l3.58-11.26c1.27,2.01,2.92,3.74,4.86,5.11,2.54,1.48,3.82-2.99,3.82-2.99l-8.45-18.78-26.29-10.45-44.27,6.66-4.62-.7Z"/>
    <path class="cls-13" d="M551.16,438.93c1.69.65,3.34,1.42,4.93,2.3,1.79.96,3.78,2.01,5.75,3.33,1.89,1.2,3.64,2.61,5.22,4.19.81.75,1.29,1.78,1.34,2.89.02.86-.01,1.71-.11,2.56.04,1.68-.29,3.35-.97,4.89-.16-.04.06-1.82.08-4.87,0-.76.02-1.63-.04-2.45-.08-.84-.48-1.62-1.13-2.16-1.58-1.47-3.28-2.8-5.1-3.97-1.92-1.26-3.83-2.32-5.61-3.32-1.78-1.01-3.33-1.91-4.69-2.51-1.48-.6-3.06-.95-4.65-1.04,1.61-.63,3.4-.57,4.97.15Z"/>
    <path class="cls-13" d="M545.68,448.56c2.61,1.24,6.39,2.57,10.32,4.74,1.07.5,2.02,1.22,2.77,2.13.45.98.76,2.02.9,3.08.42,1.74.39,3.56-.08,5.28-.44,1.08-.98,2.12-1.6,3.11-.4.69-.7,1.06-.7,1.06,0,0,.01-.49.28-1.26s.9-1.83,1.19-3.15c.34-1.63.28-3.32-.17-4.92-.16-.9-.43-1.78-.81-2.62-.67-.71-1.47-1.29-2.36-1.7-3.81-2.09-7.58-3.59-10.11-5.06-1.45-.66-2.76-1.6-3.85-2.76,1.44.6,2.85,1.28,4.21,2.06Z"/>
    <path class="cls-13" d="M547.83,470.98c.62-.97.93-2.11.9-3.27-.13-1.36-.92-2.56-2.11-3.23-1.27-.72-2.65-1.24-4.08-1.52l-3.64-.96c-.92-.25-1.76-.56-2.29-.68s-.78,0-.87-.05.21-.42.9-.43c.85.04,1.7.15,2.54.32l3.7.7c1.6.24,3.14.78,4.53,1.59,1.52.89,2.5,2.48,2.6,4.24-.02,1.37-.48,2.7-1.31,3.79-1.39,1.77-2.49,2.42-2.61,2.4-.17-.13.79-1.12,1.75-2.91Z"/>
    <path class="cls-29" d="M996.34,890.23c2.49,1.99,5.74,2.98,8.88,4.02.74-4.1,2.33-8.06,2.12-12.23-.18-3.64-1.67-7.16-2.34-10.74-1.29-6.9-1.4-14.16-3.34-20.84-12.86,6.18-24.99,13.01-33.08,17.21-1.08.56-2.07,1.14-3.01,1.74,6.74,6.03,15.19,7.55,22.5,12.57,3.3,2.26,5.18,5.81,8.26,8.27Z"/>
    <path class="cls-29" d="M1045.24,922.26c-4.41.14-4.39-6.7,0-6.84.07,0,.15,0,.22,0-.04-2.55-.17-4.8-.25-6.3-.28.11-.57.22-.86.32-8.91,2.92-18.31.5-27.43.34-1.47-.03-2.43-.81-2.92-1.83-.1.08-.2.15-.3.22,3.57,3.83,6.53,8.15,9.63,12.42,3.44,4.74,9,12.06,15.16,13.4,4.71,1.02,6.35-5.08,6.83-11.72-.02,0-.04,0-.07,0Z"/>
    <path class="cls-29" d="M1067.25,899.92c-.58.44-1.28.71-2.03.68-5.4-.23-9.6,2.69-13.98,5.38.43.52.71,1.19.74,2.03.08,1.93.23,4.51.28,7.38,5.79.16,11.56.85,17.12,2.48.52-5.98.75-12.67-2.14-17.95Z"/>
    <path class="cls-29" d="M1054.34,870.99c-9.27-6.21-15.94-15.38-22.69-24.17-6.2,1.94-12.77,4.59-19.3,7.54,1.89,6.26,2.26,12.93,3.29,19.52.15-.03.28-.08.44-.09,10-1.12,21.08,2.08,30.33,5.65-.71-1.45-.54-3.31,1.26-4.35,2.12-1.22,4.57-2.49,7.09-3.86-.14-.07-.28-.13-.42-.23Z"/>
    <path class="cls-29" d="M1056.11,844.4c-4.68-1.41-10.7-1.03-17.43.5,5.62,7.45,11.44,15.04,19.11,20.18,1.36.91,1.73,2.3,1.48,3.56,6.2-3.74,11.98-8.34,13.73-14.78-4.16-4.1-9.44-7.2-16.9-9.46Z"/>
    <path class="cls-29" d="M1087.59,860.32c-5.17,10.03-17.09,15.69-26.71,21.24-.14.08-.27.12-.4.18,5.31,2.26,10.97,5.24,14.64,9.62,7.16-4.27,14.41-8.37,21.4-12.9-2.96-7.22-5.61-13.21-8.94-18.15Z"/>
    <path class="cls-29" d="M1101.51,886.43c-5.67,3.64-11.51,7.01-17.31,10.43,4.67,6.89,4.82,15.88,4.06,24.09-.05.51-.19.96-.4,1.36,5.44,2.4,10.41,5.57,15.2,9.07,8.88-16.36,5.54-27.46-1.55-44.95Z"/>
    <path class="cls-29" d="M969.25,923.8c1.61-5.9,3.87-11.06,8.28-15.45,4.23-4.21,8.01-6.18,9-12.1-.03-.03-.05-.06-.08-.09-3.28-3.07-7.3-5.22-10.87-7.91-3.67-2.76-6.65-6.1-9.27-9.85-11.77,7.73-11.84,20.18-13.22,23.2-.38.8-.87,1.55-1.45,2.23-2.2,2.51-5.19,4.2-8.49,4.78l-21.92,4.18,8.19,42.93,21.92-4.18c1.66-.35,3.35-.4,5.01-.17,3.77-9.46,10.18-17.57,12.91-27.58Z"/>
    <path class="cls-29" d="M1046.94,938.19c-1.51,1.52-3.43,2.54-5.88,2.82-6.95.8-14.01-5.5-18.31-10.23-6.19-6.81-10.36-15.12-17.41-21.18-1.16-1-1.32-2.22-.91-3.29-2.77-.96-5.49-2-7.84-3.86-.87-.69-1.64-1.47-2.38-2.29-.65,2.31-1.8,4.48-3.51,6.68-4.33,5.58-6.9,10.42-7.38,17.56-.41,6.12-1.54,11.61-3.63,17.38-1.63,4.52-3.04,8.88-3.77,13.48.22.11.44.22.64.35,3.43,2.19,12.82,17.16,33.99,10.63,10.27-3.17,27.14-7.66,42.93-13.52-2.68-4.62-5.07-9.38-6.54-14.53Z"/>
    <path class="cls-29" d="M1062.36,940.52c1.22,6.28,4.02,11.88,7.22,17.29,11.03-4.48,20.95-9.67,26.89-15.58-5.18-3.8-10.68-7.24-16.74-9.39-5.81-2.06-11.84-2.84-17.93-3.01-.18,2.89-.56,5.78-1.27,8.42.87.32,1.59,1.03,1.83,2.27Z"/>
    <path class="cls-29" d="M1016.92,902.93c9.45.16,19.76,3.16,28.64-1.34,5.11-2.59,9.02-5.89,14.11-7.23-4.4-4.87-13.12-7.74-18.27-9.5-7.6-2.6-16.2-4.99-24.34-4.33.65,2.5,1.33,4.99,1.53,7.59.41,5.22-1.85,9.8-2.34,14.86.21-.04.44-.06.68-.06Z"/>
    <rect class="cls-29" x="893.77" y="929.37" width="60.92" height="10.25" rx="5.13" ry="5.13" transform="translate(179.45 2017.46) rotate(-100.8)"/>
    <path class="cls-38" d="M394.45,338.7c6.21,2.39,12.51,4.47,18.85,6.37l11.53-21.52s26.96-50.77,22.13-80.24c-4.83-29.47-21.22-45.93-21.22-45.93,0,0-38.56,2.72-57.27,48.81-5.17,12.75-15.2,43.94-22.46,66.76,15.96,9.28,31.38,19.19,48.45,25.76Z"/>
    <path class="cls-3" d="M139.93,428.21c8.35-.29,17.13.49,24.98,3.5,3.46,1.32,6.9,3.24,9.26,6.16,3.1,3.84,4.64,9.17,5.65,13.91,2,9.41,1.88,19.18,2.16,28.77.31,10.57.61,21.15.92,31.72.35,12.03.69,24.06,1.04,36.09.19,6.61.35,13.22.57,19.83,0,.1,0,.2,0,.3.05,1.62,3.36,1.05,3.32-.3-.16-5.64-.33-11.27-.49-16.91-.35-11.99-.69-23.98-1.04-35.97-.32-11.12-.64-22.25-.96-33.37-.25-8.78-.22-17.68-1.43-26.38-.75-5.42-2.11-10.78-4.61-15.67-1.81-3.54-4.41-6.18-7.87-8.15-7.46-4.22-16.58-5.49-25.02-5.78-2.04-.07-4.09-.06-6.14,0-.66.02-1.76.5-1.83,1.27-.08.82.88.99,1.49.97h0Z"/>
    <path class="cls-3" d="M198.18,430.2c6.54,8.69,13.22,17.6,16.77,28,3.48,10.2,3.68,21.16,4.06,31.82.62,17.35.93,34.71,1.28,52.06.18,8.9.35,17.8.55,26.7.01.66,3.31.13,3.29-.88-.39-17.06-.67-34.12-1.06-51.18-.19-8.48-.4-16.96-.69-25.44-.34-10.16-.43-20.55-3.07-30.43-3.2-11.99-10.69-22.05-18.04-31.81-.51-.67-3.66.4-3.09,1.16h0Z"/>
    <path class="cls-40" d="M563.06,781.49l-.26,7.07c10.99,6.63,29.1,16.07,36.88,18.97,10.02,3.73,11.86,4.71,23.75,9.49,4.65,1.87,6.64,2.61,11.9,2.99,5.27.38,10.27-2.2,14.18,2.14,2.59,2.87,1.49,7.13-1.47,9.76-2.96,2.63-7.32,3.92-11.61,4.76-4.28.83-8.72,1.31-12.76,2.72-1.53.53-3.02,1.21-4.67,1.41-3.74.46-7.88-1.53-11.15,0-.93.43-1.65,1.11-2.57,1.54-1.38.65-3.06.71-4.65.63-11.52-.58-13.69-1.32-24.19-4.33-10.36-2.97-10.7-2.58-21.49-4.79-5.12-1.05-21.56,1.29-32.94-5.65-6.43-3.92-1.57-11.74-.95-17.19,1.43-12.38,2.6-25.13,2.01-31.01,0,0,30.36,3.05,40.01,1.52Z"/>
    <g>
      <path class="cls-13" d="M607.76,841.56c2.38-.61,3.18-3.44,2.07-5.46-1.14-2.08-3.7-3.2-5.79-4.05-1.29-.52-2.61-.96-3.92-1.45-.54-.2-1.46.57-.72.85,2.04.76,4.14,1.41,6.07,2.43,1.6.85,3.6,2.21,3.61,4.25,0,1.04-.45,2.28-1.56,2.57-.25.06-.59.3-.51.6s.49.33.74.27h0Z"/>
      <path class="cls-13" d="M618.78,841.36c1.26-.03,2.6-.48,3.24-1.65s.61-2.57.41-3.81c-.23-1.41-.79-2.48-1.87-3.43-1.56-1.37-3.57-2.05-5.52-2.64-2.25-.69-4.44-1.98-6.86-1.92-.27,0-.67.06-.88.24-.15.12-.22.24.06.24,1.91-.05,3.72.87,5.47,1.51s3.46,1.03,5.05,1.93c1.23.7,2.46,1.68,2.96,3.04.38,1.02.52,2.16.45,3.25-.07.94-.46,2.75-1.68,2.77-.26,0-.67.06-.88.24-.15.13-.22.24.06.24h0Z"/>
      <path class="cls-13" d="M627.64,838.85c2.93-.97,3.98-4.54,2.44-7.11s-4.62-3.99-7.32-4.99c-1.8-.67-3.72-1.29-5.61-1.62-.28-.05-.62.02-.87.16-.09.05-.44.28-.15.33,1.92.33,3.88.97,5.7,1.65s3.49,1.48,4.98,2.63c1.27.98,2.4,2.28,2.7,3.91.32,1.75-.46,4.14-2.29,4.75-.13.04-.49.18-.37.36.11.16.69-.03.8-.07h0Z"/>
      <path class="cls-13" d="M635.94,837.63c3.21-1.3,6.22-5.66,3.93-9-.94-1.37-2.5-2.28-3.96-3-1.69-.83-3.46-1.47-5.25-2.03-.89-.28-1.79-.51-2.68-.8-1.1-.35-2.23-.81-3.41-.75-.7.04-.96.94-.11.9.91-.05,1.84.37,2.7.65.69.22,1.4.41,2.1.62,1.54.46,3.07.97,4.55,1.6s2.97,1.36,4.14,2.46c1.13,1.06,1.57,2.34,1.34,3.88-.33,2.16-1.89,3.94-3.89,4.74-.79.32-.09.98.55.72h0Z"/>
    </g>
    <path class="cls-40" d="M581.62,787.74c1.55,4.84-.18,15.72-1.5,21.16-1.53,6.27,4.43,10.98,12.02,13.57,6.38,2.18,9.64,2.03,16.53,1.65,9.01-.49,18.61-2.06,27.61-2.55,7.72-.42,31.98-2.46,39.58-1.28,11.82,1.82,19.07.21,24.28-1.52,1.44-.48,2.35-.41,3.01-1.42,1.72-2.61,1.47-5.46-2.43-7.62-4.92-2.72-10.75,1.12-15.35-2.09-.82-.57-1.58-1.22-2.52-1.63-1.85-.8-4.05-.59-6.14-.56-10.39.17-9.65-3.91-23.3-6.99-4.01-.9-26.26-8.35-29.98-9.88l1.09-21.95h-44.72l1.82,21.1"/>
    <path class="cls-13" d="M673.38,806.59c2.88.19,5.69,1.02,8.37,2.05.98.45,1.84.67,2.63,1.56,0,0-.52-.11-.52-.11,1.13-.72,2.41-1.11,3.7-1.26,1.29-.17,2.6-.08,3.83.23-1.27-.07-2.53.02-3.75.27-1.33.29-2.58.8-3.66,1.58-.28-.44-.68-.69-1.26-.98-3-1.39-6.15-2.48-9.35-3.34h0Z"/>
    <path class="cls-13" d="M581.85,799.56c6.48,3.29,13.05,6.41,19.67,9.4,5.42,2.46,10.89,4.83,16.45,6.96,4.43,1.7,8.99,3.41,13.68,4.23,1.55.27,3,.39,4.53.03,3.44-.82,7.75-1.48,11.03.18.42.21,1.54-.38.97-.66-2.89-1.46-6.42-1.26-9.53-.78-1.69.26-3.11.79-4.7.67-4.35-.34-8.69-2-12.75-3.49-10.63-3.89-20.94-8.69-31.12-13.62-2.43-1.18-4.86-2.36-7.27-3.59-.42-.21-1.54.37-.97.66h0Z"/>
    <path class="cls-27" d="M673.32,531.74c-8.89,45.33-28.79,181.77-42.27,236.98,0,0-58.61,11.87-65.45-.55,0,0,11.69-116.91-10.15-195.74-18.87-68.1-73.25-99.26-56.2-103.99,27.11-7.52,138.56-7.26,154.72,1.57,19.39,10.59,26.35,26.03,19.35,61.73Z"/>
    <path class="cls-27" d="M629.28,507.33s-9.7-.3-23.1,1.92c1.71-5.62,1.94-9.66,1.94-9.66-1.47-1.14-3.02-2.3-4.64-3.49-7.41,2.8-14.54,6.2-21.37,10.02-7.94,4.44-15.51,9.44-22.61,14.92-6.84,5.28-13.26,11.05-19.02,17.29-1.63,1.77-3.2,3.58-4.72,5.43.24.03.48.07.72.1-21.72,29.02-11.51,85.2-17.88,138.47-4.67,39.07-11.38,93.12-11.38,93.12,8.11,11.73,79.09,6.02,79.09,6.02,14.9-71.84,42.96-274.14,42.96-274.14Z"/>
    <path class="cls-23" d="M436.58,222.88c7.32,3.13,10.63,12.28,12.15,19.48,1.5,7.11,1.02,14.34-.1,21.47-2.87,18.14-9.11,35.77-15.42,52.95-3.6,9.81-7.41,19.54-11.2,29.28l1.31-.61c-2.7.02-5.43-.1-8.1-.5-1.77-.26-3.43-.88-5.14-1.38-8.22-2.42-16.3-5.35-24.23-8.6-8.26-3.38-16.05-7.81-23.66-12.46-5.01-3.07-9.96-6.25-14.8-9.57-.14-.1-.36-.19-.47-.32.12.14-.04.21.13-.16.51-1.11.75-2.45,1.11-3.61.74-2.41,1.48-4.82,2.22-7.23l-1.81.49c6.98,5.89,14.63,11.15,22.49,15.77,12.91,7.58,27.22,12.22,41.65,15.98,3.63.95,7.27,1.86,10.95,2.61.53.11,2.19-.72,1.17-.93-9.76-1.99-19.43-4.75-28.85-7.98-7.22-2.47-14.22-5.35-20.89-9.09-5.8-3.24-11.35-6.91-16.71-10.83-2.74-2-5.46-4.05-8.05-6.24-.41-.34-1.65-.04-1.81.49-1.15,3.73-2.29,7.46-3.44,11.2-.03.08,0,.16.06.22,8.36,5.8,17.04,11.23,25.96,16.12,12.1,6.63,25.26,11.51,38.52,15.3,1.92.55,3.73,1.11,5.75,1.33,2.39.26,4.8.37,7.2.36.4,0,1.14-.17,1.31-.61,7-17.97,14.08-35.94,19.77-54.38,2.64-8.56,5.03-17.25,6.56-26.09,1.21-6.99,1.97-14.23.82-21.28-.75-4.58-2.11-9.16-4.31-13.26-1.96-3.67-4.7-7.09-8.62-8.76-.5-.21-2.22.54-1.51.85h0Z"/>
    <path class="cls-13" d="M630.73,382.81c-3.72,1.27-6.67,3.98-8.4,7.51-2.04,4.16-2.24,8.86-2.06,13.41.03.68,2.09.26,2.06-.55-.16-4.08,0-8.33,1.63-12.15,1.32-3.11,3.78-6.04,7.06-7.15.3-.1,1.01-.36.89-.81-.11-.42-.89-.36-1.17-.26h0Z"/>
    <g class="cls-44">
      <g>
        <polygon class="cls-36" points="411.2 572.83 243.59 566.6 244.74 466.64 412.34 472.87 411.2 572.83"/>
        <polygon class="cls-43" points="393.43 492.36 232.51 492.07 232.65 479.83 393.57 480.11 393.43 492.36"/>
        <polygon class="cls-43" points="393.38 497.18 232.46 496.89 232.47 495.89 393.39 496.18 393.38 497.18"/>
        <polygon class="cls-43" points="393.34 500.38 232.42 500.09 232.43 499.1 393.35 499.38 393.34 500.38"/>
        <polygon class="cls-43" points="393.3 503.58 232.38 503.29 232.39 502.3 393.32 502.58 393.3 503.58"/>
        <polygon class="cls-43" points="393.27 506.78 232.34 506.49 232.36 505.5 393.28 505.78 393.27 506.78"/>
        <polygon class="cls-43" points="393.24 509.58 232.31 509.29 232.32 508.29 393.25 508.58 393.24 509.58"/>
        <polygon class="cls-43" points="393.2 512.78 232.28 512.49 232.29 511.49 393.21 511.78 393.2 512.78"/>
        <polygon class="cls-43" points="315.49 517.06 269.48 516.98 269.49 515.93 315.5 516.02 315.49 517.06"/>
        <polygon class="cls-43" points="315.45 520.42 269.44 520.33 269.45 519.29 315.47 519.37 315.45 520.42"/>
        <polygon class="cls-43" points="315.41 523.77 269.4 523.69 269.41 522.64 315.43 522.72 315.41 523.77"/>
        <polygon class="cls-43" points="392.96 533.54 322.53 533.42 322.54 532.37 392.97 532.5 392.96 533.54"/>
        <polygon class="cls-43" points="392.92 536.9 322.49 536.77 322.5 535.72 392.93 535.85 392.92 536.9"/>
        <polygon class="cls-43" points="392.88 540.25 322.45 540.12 322.47 539.08 392.89 539.2 392.88 540.25"/>
        <polygon class="cls-43" points="315.38 527.12 269.36 527.04 269.37 525.99 315.39 526.08 315.38 527.12"/>
        <polygon class="cls-43" points="315.34 530.05 269.33 529.97 269.34 528.92 315.35 529 315.34 530.05"/>
        <polygon class="cls-43" points="315.3 533.4 269.29 533.32 269.3 532.28 315.32 532.36 315.3 533.4"/>
        <polygon class="cls-43" points="315.27 536.76 269.25 536.68 269.26 535.63 315.28 535.71 315.27 536.76"/>
        <polygon class="cls-43" points="315.23 540.11 269.21 540.03 269.23 538.98 315.24 539.06 315.23 540.11"/>
        <polygon class="cls-43" points="315.19 543.46 269.18 543.38 269.19 542.34 315.2 542.42 315.19 543.46"/>
        <polygon class="cls-43" points="315.15 546.82 269.14 546.73 269.15 545.69 315.16 545.77 315.15 546.82"/>
        <polygon class="cls-43" points="315.12 549.75 269.1 549.66 269.11 548.62 315.13 548.7 315.12 549.75"/>
        <polygon class="cls-43" points="315.08 553.1 269.06 553.02 269.08 551.97 315.09 552.05 315.08 553.1"/>
        <polygon class="cls-43" points="315.04 556.45 269.03 556.37 269.04 555.32 315.05 555.41 315.04 556.45"/>
        <polygon class="cls-43" points="315 559.81 268.99 559.72 269 558.68 315.01 558.76 315 559.81"/>
        <polygon class="cls-43" points="314.97 562.73 268.95 562.65 268.97 561.61 314.98 561.69 314.97 562.73"/>
        <polygon class="cls-43" points="314.93 566.09 268.91 566.01 268.93 564.96 314.94 565.04 314.93 566.09"/>
        <polygon class="cls-43" points="260.34 565.99 231.66 565.94 232.24 515.87 260.92 515.92 260.34 565.99"/>
        <polygon class="cls-43" points="393 529.67 322.58 529.54 322.73 516.03 393.16 516.16 393 529.67"/>
        <polygon class="cls-43" points="392.66 559.66 322.23 559.53 322.24 558.49 392.67 558.61 392.66 559.66"/>
        <polygon class="cls-43" points="392.62 563.01 322.19 562.89 322.2 561.84 392.63 561.97 392.62 563.01"/>
        <polygon class="cls-43" points="392.58 566.37 322.15 566.24 322.17 565.19 392.59 565.32 392.58 566.37"/>
        <polygon class="cls-43" points="392.7 555.78 322.28 555.66 322.43 542.15 392.86 542.27 392.7 555.78"/>
      </g>
      <g>
        <polygon class="cls-31" points="411.15 576.91 213.37 576.56 214.51 476.59 412.3 476.95 411.15 576.91"/>
        <polygon class="cls-43" points="393.39 496.44 232.46 496.15 232.6 483.9 393.53 484.19 393.39 496.44"/>
        <polygon class="cls-43" points="393.33 501.26 232.41 500.97 232.42 499.97 393.34 500.26 393.33 501.26"/>
        <polygon class="cls-43" points="393.29 504.46 232.37 504.17 232.38 503.17 393.31 503.46 393.29 504.46"/>
        <polygon class="cls-43" points="393.26 507.66 232.33 507.37 232.35 506.37 393.27 506.66 393.26 507.66"/>
        <polygon class="cls-43" points="393.22 510.86 232.3 510.57 232.31 509.57 393.23 509.86 393.22 510.86"/>
        <polygon class="cls-43" points="393.19 513.66 232.27 513.37 232.28 512.37 393.2 512.66 393.19 513.66"/>
        <polygon class="cls-43" points="393.15 516.86 232.23 516.57 232.24 515.57 393.16 515.86 393.15 516.86"/>
        <polygon class="cls-43" points="315.45 521.14 269.43 521.06 269.44 520.01 315.46 520.09 315.45 521.14"/>
        <polygon class="cls-43" points="315.41 524.49 269.39 524.41 269.41 523.36 315.42 523.45 315.41 524.49"/>
        <polygon class="cls-43" points="315.37 527.85 269.35 527.76 269.37 526.72 315.38 526.8 315.37 527.85"/>
        <polygon class="cls-43" points="392.91 537.62 322.48 537.49 322.5 536.45 392.92 536.57 392.91 537.62"/>
        <polygon class="cls-43" points="392.87 540.97 322.45 540.85 322.46 539.8 392.89 539.93 392.87 540.97"/>
        <polygon class="cls-43" points="392.84 544.33 322.41 544.2 322.42 543.15 392.85 543.28 392.84 544.33"/>
        <polygon class="cls-43" points="315.33 531.2 269.32 531.12 269.33 530.07 315.34 530.15 315.33 531.2"/>
        <polygon class="cls-43" points="315.3 534.13 269.28 534.05 269.29 533 315.31 533.08 315.3 534.13"/>
        <polygon class="cls-43" points="315.26 537.48 269.24 537.4 269.26 536.35 315.27 536.44 315.26 537.48"/>
        <polygon class="cls-43" points="315.22 540.83 269.21 540.75 269.22 539.71 315.23 539.79 315.22 540.83"/>
        <polygon class="cls-43" points="315.18 544.19 269.17 544.11 269.18 543.06 315.19 543.14 315.18 544.19"/>
        <polygon class="cls-43" points="315.14 547.54 269.13 547.46 269.14 546.41 315.15 546.49 315.14 547.54"/>
        <polygon class="cls-43" points="315.1 550.89 269.09 550.81 269.1 549.77 315.12 549.85 315.1 550.89"/>
        <polygon class="cls-43" points="315.07 553.82 269.06 553.74 269.07 552.69 315.08 552.78 315.07 553.82"/>
        <polygon class="cls-43" points="315.03 557.18 269.02 557.09 269.03 556.05 315.04 556.13 315.03 557.18"/>
        <polygon class="cls-43" points="314.99 560.53 268.98 560.45 268.99 559.4 315 559.48 314.99 560.53"/>
        <polygon class="cls-43" points="314.95 563.88 268.94 563.8 268.95 562.75 314.97 562.84 314.95 563.88"/>
        <polygon class="cls-43" points="314.92 566.81 268.91 566.73 268.92 565.68 314.93 565.77 314.92 566.81"/>
        <polygon class="cls-43" points="314.88 570.16 268.87 570.08 268.88 569.04 314.89 569.12 314.88 570.16"/>
        <polygon class="cls-43" points="260.29 570.07 231.61 570.02 232.19 519.94 260.87 520 260.29 570.07"/>
        <polygon class="cls-43" points="392.96 533.74 322.53 533.62 322.68 520.11 393.11 520.23 392.96 533.74"/>
        <polygon class="cls-43" points="392.61 563.74 322.18 563.61 322.2 562.56 392.62 562.69 392.61 563.74"/>
        <polygon class="cls-43" points="392.57 567.09 322.15 566.96 322.16 565.92 392.59 566.04 392.57 567.09"/>
        <polygon class="cls-43" points="392.54 570.44 322.11 570.32 322.12 569.27 392.55 569.4 392.54 570.44"/>
        <polygon class="cls-43" points="392.66 559.86 322.23 559.73 322.38 546.22 392.81 546.35 392.66 559.86"/>
      </g>
    </g>
  </g>
  <g id="Layer_8" data-name="Layer 8">
    <rect class="cls-39" x="909.72" y="930.72" width="43.71" height="4.7" transform="translate(189.58 2022.97) rotate(-100.8)"/>
    <rect class="cls-42" x="907.42" y="662.84" width="292.13" height="12.54" transform="translate(188.75 1568.99) rotate(-78.56)"/>
    <path class="cls-26" d="M699,252.48s-.05.09-.08.13c-.09-.09-.17-.18-.26-.27.11.05.23.09.34.14Z"/>
    <path class="cls-38" d="M556.17,227.93s34.36,6.86,44.89,19.4c13.47,16.04,23.51,81.52,32.5,108.44.46,1.39-13.87,10.82-25.5,14.95-9.3,3.3-25.2,6.5-25.2,6.5l-12.81-.07-25.58-25.9,9.36-121.23,2.33-2.09Z"/>
    <path class="cls-30" d="M512.29,736.22s8.8,5.4,35.42,5.73c26.61.33,44.18-2.77,44.18-2.77l-4.57,41.68s-15.8,4.49-47.52,3.91c-28.86-.52-32.58-8.34-32.58-8.34l5.07-40.21Z"/>
    <path class="cls-30" d="M593.09,732.69c-1.08,8.21-2.49,16.37-3.78,24.55-.96,6.05-1.41,12.23-2.42,18.29,30.38.35,48.52-3.94,48.52-3.94l4.57-41.68s-20.44,3.08-46.89,2.77Z"/>
  </g>
  <g id="Layer_11" data-name="Layer 11">
    <path class="cls-40" d="M851.73,815.13s-40.06,21.12-49.24,21.13c-9.18.01-6.03-4.86-6.03-4.86,0,0,24.35-23.82,26.71-28.2,1.29-2.4-5.18-75.41-9.23-112.91-2.81-26.05-2.99-46.78-2.99-46.78l42.2,4.34,4.26,38.03,1.77,7.27c.93,3.8,2.22,10.54,2.47,14.46.68,10.58,1.37,28.37.91,33.77-.77,9.15-6.66,31.63-7.02,34.84l-4.56,28.55.74,10.35Z"/>
    <path class="cls-40" d="M850.39,802.71c-.15,3.96,1.46,9.5,2.75,17.75.57,3.63,3.75,8.72.03,11.55-6.58,5-14.74,3.48-17.78,4.34-6.39,1.82-11.56,2.04-17.67,4.36-6.2,2.35-7.47,2.91-14.36,3.66-.95.1-1.96.12-2.81-.27-.57-.26-1.03-.69-1.6-.95-2.02-.92-4.43.54-6.69.35-1-.08-1.92-.49-2.85-.8-2.48-.82-5.15-1-7.75-1.42-2.6-.42-5.26-1.16-7.13-2.82-1.87-1.67-2.68-4.49-1.22-6.49,2.19-3.03,5.29-1.45,8.43-1.87,3.14-.42,4.31-.98,7.03-2.37,6.97-3.57,8.03-4.28,13.91-7.1,4.56-2.18,17.96-9.13,24.32-13.91l-.76-15.64"/>
    <g>
      <path class="cls-13" d="M799.55,842.88c-.74-.17-1.05-1.12-1.02-1.8.03-.75.42-1.38.95-1.89,1.18-1.14,2.82-1.73,4.31-2.44.25-.12.63-.43.39-.73s-.78-.2-1.06-.07c-1.41.68-2.89,1.27-4.16,2.21s-2.27,2.2-1.98,3.8c.16.88.73,1.68,1.63,1.89.38.09.84,0,1.12-.3.23-.24.17-.59-.18-.67h0Z"/>
      <path class="cls-13" d="M792.23,843.19c-.06,0-.2-.03-.29-.09-.15-.09-.26-.22-.35-.37-.23-.36-.32-.8-.38-1.22-.1-.77-.04-1.75.28-2.42.58-1.21,1.9-1.88,3.08-2.36.68-.28,1.33-.59,1.99-.91.6-.29,1.22-.59,1.91-.6.32,0,.83-.24.88-.61.05-.4-.43-.47-.72-.47-1.42.03-2.68.83-3.94,1.41-1.26.58-2.52,1.03-3.57,1.96-.76.68-1.28,1.5-1.45,2.51-.15.85-.15,1.81.11,2.65.34,1.08,1.16,1.63,2.29,1.6.32,0,.83-.24.88-.61.05-.4-.43-.47-.72-.47h0Z"/>
      <path class="cls-13" d="M787.61,841.9c-1.02-.32-1.5-1.65-1.5-2.63,0-1.03.54-1.95,1.24-2.67.76-.76,1.7-1.34,2.66-1.81,1.02-.5,2.14-.98,3.24-1.26.26-.07.75-.31.67-.65s-.67-.29-.91-.23c-1.34.34-2.71.91-3.94,1.54s-2.36,1.34-3.25,2.34c-.81.91-1.37,2.02-1.3,3.27.08,1.33.81,2.61,2.12,3.02.35.11.87-.03,1.12-.3s.16-.52-.17-.63h0Z"/>
      <path class="cls-13" d="M782.76,841.29c-1.39-.54-2.37-1.85-2.6-3.32-.19-1.24.3-2.19,1.24-2.97s2.08-1.35,3.2-1.83c.54-.23,1.09-.45,1.64-.66.29-.11.58-.23.87-.35.26-.11.6-.31.89-.31.33,0,.86-.11,1.04-.42s-.16-.43-.42-.44c-1.24,0-2.47.7-3.61,1.15s-2.2.92-3.23,1.51c-.96.55-1.93,1.22-2.59,2.11s-.8,2.04-.5,3.14c.39,1.41,1.44,2.6,2.8,3.13.35.14.81.04,1.12-.16.19-.11.5-.45.15-.59h0Z"/>
    </g>
    <path class="cls-40" d="M789.48,798.48c-2.2,1.1-16.22,14.93-18.61,15.61-8.13,2.32-7.6,5.05-13.84,5.13-1.25.02-2.58-.08-3.67.49-.56.29-1,.74-1.48,1.14-2.69,2.24-6.27-.22-9.17,1.7-2.3,1.52-2.38,3.44-1.3,5.16.42.66.96.6,1.84.89,3.16,1.06,7.55,2,14.61.55,4.54-.93,19.15-.03,23.79.11,5.42.16,11.22,1.02,16.63,1.18,4.15.12,9.25-.73,13.04-2.31,4.5-1.88,6.25-5.1,5.2-9.27-.91-3.63-1.24-5.76-2.11-9.55,0,0-2.31-10.4-1.83-14.05.48-3.65.43-6.67.43-6.67h-23.78l.26,9.88Z"/>
    <path class="cls-13" d="M781.23,830.4c2.02.06,4.08-.78,5.91-1.53,2.88-1.18,5.65-2.61,8.39-4.08,5.62-3.03,11.09-6.33,16.5-9.72,1.21-.76,2.42-1.53,3.62-2.31.65-.42-.92-.24-1.21-.05-8.27,5.38-16.78,10.71-25.73,14.87-1.88.87-4.29,2.24-6.44,2.17-.34-.01-1.79.62-1.02.65h0Z"/>
    <path class="cls-46" d="M862.63,237.57s-58.9-1.02-67.26-.83c-.87-7.04.54-15.19,7.07-18.9,1.9-1.08,3.8-1.2,5.82-1.82,1.77-.54,2.71-2.48,3.81-3.84,3.9-4.84,9.45-4.16,14.98-3.48.35.04.63-.05.87-.18.62.3.99.51.99.51,0,0,2.88-3.59,9.72-4.14,6.83-.55,13.11,5.96,13.11,5.96,0,0,7.85-4.02,14.98.94,6,4.18,7.73,9.53,7.73,9.53,14.1,1.89,20.05,13.01,19.14,24.18,1.98,1.07,4.12,2.59,5.12,4.49.13.25.24.53.36.8.03.2.06.41.09.61.18,1.5.32,3.3.3,4.4-.07,3.27-.65,5.71-2.74,8.08-.07.08-.09.19-.15.28-.92.62-1.84,1.28-2.4,2.2-.75,1.21,1.86,4.21,2.02,5.54.48,3.94,1.59,4.28-.1,10.16-.62,2.33-1.46,4.61-2.42,6.84-1.46,1.54-3.13,2.63-5.01,3.11l-3.13.02s-.45,11.53-7.39,15.96c-6.94,4.43-16.03,3.77-16.03,3.77,0,0-2.3,9.43-10.88,8.59-8.57-.84-21.08-16.57-21.08-16.57l42.59-25.34-10.12-40.85Z"/>
    <path class="cls-40" d="M803.71,315.86c4.89-1.35,24.98-4.29,29.61-6.46,2.12-1,17.96-9.73,19.86-11.19-7.45,17.56-4.51,25.46-2.4,28.52l5.06,5.74c-13.54,17.05-51.41,36.42-65.89,2.18l12.8-6.84.97-11.94Z"/>
    <path class="cls-20" d="M859.71,783.49c4.02-1.42,6.85-12.05,6.49-15.88-1.34-14.24-1.65-38.94-.82-81.08.41-21.25,3.04-52.53,10.12-71.34,6.86-18.23,11.33-32.44,12.74-50.62,2.86-36.82-.37-48.21-11.67-63.49l-111.84,4.64-4.88,15.42c-.79,8.48-4.92,32.15-1.27,58.91,2.8,20.47,8.34,76.61,9.17,98.57l11.44,95.88c.35,2.78,3.09,7.28,6.14,7.94,6.97,1.51,23.5,1.06,30.43-1.45.55-.2-1.29,4.58,5.32,5.13,11.05.93,20.23,3.85,38.64-2.65Z"/>
    <path class="cls-20" d="M856.02,783.82l-2.59,11.66s-17.61,3.26-30.95.09l-2.34-10.01,35.88-1.74Z"/>
    <path class="cls-20" d="M820.14,779.29l-2.59,11.66s-17.61,3.26-30.95.09l-2.34-10.01,35.88-1.74Z"/>
    <path class="cls-34" d="M786.41,568.06c5.85,1.2,10.15,6.98,12.87,11.92.62,1.13.37,2.7.41,3.95.32,9.02.63,18.03.95,27.05l1.11,31.55c.11,3,.21,6,.32,9.01.02.44.04.89.05,1.33.02,5.61-.02,11.13.64,16.73.56,4.81.98,9.63,1.43,14.45l2.73,29.28c1.03,11.09,2.07,22.18,3.1,33.27.74,7.98,1.49,15.96,2.23,23.94.13,1.42.38,2.88.4,4.31.06,3.52.51,6.86,3.29,9.4,3.46,3.17,9.21,3.37,13.61,3.67,8.57.58,17.41.05,25.67-2.44,1.41-.42,2.83-.88,4.18-1.49.35-.16.57-.34.26-.59s-1.24.14-1.52.27c-.1.05-.28.12-.06.03-.3.12-.6.24-.91.36-1.06.39-2.14.73-3.22,1.03-4.08,1.13-8.29,1.75-12.51,1.99-4.55.26-9.15.17-13.69-.35-1.88-.21-3.81-.47-5.65-.97-4.91-1.36-7.55-5.98-7.32-10.89.05-1-.1-1.98-.19-2.98l-1.98-21.25c-1.01-10.82-2.02-21.64-3.02-32.45-.95-10.21-1.9-20.42-2.85-30.63-.49-5.26-.93-10.53-1.47-15.79-.26-2.55-.62-5.08-.8-7.64-.28-3.99-.15-7.94-.18-11.93-.02-2.01-.14-4.02-.21-6.03-.34-9.72-.68-19.43-1.02-29.15-.35-9.94-.7-19.89-1.05-29.83-.08-2.26.03-4.63-.24-6.88-.07-.6-.39-1.04-.7-1.57-1.37-2.34-2.97-4.58-4.84-6.54-2.19-2.31-4.85-4.31-8.02-4.96-.48-.1-1.09.03-1.52.27-.17.09-.76.49-.26.59h0Z"/>
    <path class="cls-34" d="M816.33,782.38c-5.12.1-10.23.2-15.35.3-2.48.05-4.95.1-7.43.14-1.32.03-2.64.05-3.96.08-1.03.02-2.27.17-3.1-.57-.6-.54-2.64.3-2,.87,1.54,1.37,3.87,1.01,5.77.98,2.81-.05,5.61-.11,8.42-.16,5.61-.11,11.22-.22,16.83-.32.43,0,1.24-.13,1.43-.61.17-.44-.15-.71-.6-.7h0Z"/>
    <path class="cls-35" d="M867.6,401.89c2.91,14.87,2.46,21.92,2.99,23.85.22.81,13.9,75.92,20.27,107.66-6.77,2.28-14.04,2.79-21.08,3.73-19.13,2.56-38.37,4.55-57.69,4.7-9.21.07-19.1.43-28.15-1.4-9.15-1.86-17.71-5.76-26.24-9.43,2.89-25.67,3.07-89.81,2.97-101.82-.09-11.77-1.19-14-1.19-14,0,0-10.4.31-18.7-5.5,5.27-15.02,7.89-55.15,32.68-69.36,3.5-2.01,21.97-9.63,27.7-12.15-1.34,2.27-1.59,6.35-1.2,7.96,1.12,4.66,2.34,5.69,6.09,7.9,3.31,1.95,9.56,2.5,13.36,1.52,19.44-5.01,25.79-13.79,30-21.36,8.47,4.61,14.95,8.72,23.08,12.18,30.37,12.93,21.57,58.11,21.57,58.11-5.3,3.3-26.46,7.4-26.46,7.4Z"/>
    <path class="cls-12" d="M754.89,363.81c-1.21,5.89-1.83,11.93-2.51,17.9-.38,3.34-.83,6.69-1.01,10.05-.26,4.65-.79,9.3-1.58,13.89-.1.58,1.7.27,1.79-.27.73-4.26,1.23-8.56,1.52-12.88.09-1.3.1-2.15.22-3.24.56-5.41,1.17-10.82,1.89-16.22.42-3.18.84-6.37,1.49-9.51.12-.56-1.68-.27-1.79.27h0Z"/>
    <path class="cls-35" d="M854.93,334.14s31.77,5.43,38.74,34.19c6.98,28.76,3.35,49.14,3.35,49.14,0,0-28.05,5.13-49.19-5.29-13.04-6.42,6.88-76.25,6.88-76.25"/>
    <path class="cls-12" d="M866.54,359.07c-6.66,1.06-11.49,7.5-13.62,13.4-1.85,5.13-2.49,10.72-3.11,16.11-.7,6.14-1.16,12.31-1.52,18.49-.33,5.57-.58,11.15-.71,16.72-.02.85,1.79.54,1.81-.18.24-10.47.8-20.97,1.83-31.39.52-5.26,1.11-10.57,2.3-15.73,1.13-4.92,3.23-9.79,7.11-13.16,1.25-1.08,2.66-1.98,4.19-2.6.4-.16.75-.28,1.19-.4.16-.04.75-.15.34-.09.93-.15,1.43-1.37.2-1.17h0Z"/>
    <path class="cls-45" d="M872.09,293.72c-3.29,4.99-11.24,9.26-16.44,12.26-5.31,3.07-7.58,3.61-13.48,3.23-11.5-.75-22.95-4.35-32.22-11.45-9.56-7.32-15.97-18-18.19-30.02-1.55-8.4-1.51-16.74-.06-24.83.28-.82.73-2.15,1.01-2.97,7.71-15.07,13.19-18.78,28.92-19.96,9.68-.83,18.3-5.83,32.44,1.39,3.05,1.56,6.09,5.54,9.95,7.98,5.81,3.68,11.95,9.63,13.98,15.13,2.97,8.05,2.05,18.42,1.24,28.24-.61,7.44-2.98,14.66-7.09,20.89-.03.04-.05.08-.08.12Z"/>
    <path class="cls-40" d="M786.74,274.07c.27-2.44.6-5.28,1.02-8.69.12-.99.26-1.94.41-2.88.12-.48.2-.96.24-1.45,2.91-16.52,9.62-24.43,9.62-24.43,8.57-10,21.79-14.68,34.72-12.29,15.27,2.49,27.76,13.77,33.63,24.17,2.92,5.15,3.84,11.19,2.58,16.98-1.07,4.94-5.02,7.93-7.14,13.16,5.39.52,11.12,1.24,6.74,10.39-4.83,10.1-12.39,13.57-16.66,8.97-1.55.65,1.63-3.25.65.61-.31.22-3.05,11.68-3.25,12.1-2,4.38-7.03,4.01-11.24,5.67-4.43,1.75-9.09,3.16-13.72,4.26-6.52,1.54-13.53,2.5-20.36,2.09l.17-.85c-2.97-.63-1.64-.08-5.2-1.35-11.87-4.95-15.02-29.06-14.84-35.35.16-5.33,1.49-8.05,2.63-11.12Z"/>
    <path class="cls-13" d="M803.05,321.67s15.46,4.67,33.2-5.48c0,0-5.46,6.37-15.27,8.34-9.81,1.97-18.24-.73-18.24-.73l.31-2.13Z"/>
    <g>
      <path class="cls-17" d="M854.54,284.1c.04-.07.11-3.2-.69.54-.4,1.87,2.89-3.95,4.66-5.02.8-.49,1.76-1.02,2.71-1.28.96-.26,4.25-.29,5.26-.28,1.44-.14,4.61,2.33,5.92,2.88.22.13-1.36-2.01-1.15-1.88,5.38-10.28,8.46-18.93,2.28-33.26-1.79-4.13-7.46-9.19-9.18-10.8-10.47-9.67-20.96-11.68-34.2-12.23-15.34-.65-32.48,2.19-38.37,16-1.42,3.33-1.35,8.73-.08,10.45,0,0,1.32-8.5,9.28-11.58,7.97-3.08,9.37-2.94,19.64-1.34,11.9,1.82,15.81.45,24.6,6.41,8.02,5.46,9.26,9.33,9.26,9.33.21,2.13,1.23,4.07,1.81,6.12.57,2.02.57,4.07.37,6.14-.41,4.24-2.05,6.62-3.1,10.79-.65,2.59-2.64,7.6-.25,9.7,1.06.94-.11-.44,1.24-.68Z"/>
      <path class="cls-24" d="M855.36,284c.06-.33.11-1.01-.04-1.32-.31-.61-1.3-.35-1.67.08-.35.41-.88,1.94-.65,2.41.29.58,1.17.27,1.58-.02.57-.42.99-1.14,1.4-1.7.7-.94,1.37-1.92,2.17-2.79,1.98-2.15,4.72-2.12,7.42-2.13,1.41,0,2.48.63,3.67,1.35.83.5,2.04,1.61,3.07,1.52.24-.02,1.07-.28.93-.69-.24-.7-.95-1.19-1.19-1.88l-.93.69c.95-.08,1.19-1.01,1.57-1.75.59-1.16,1.16-2.33,1.7-3.52.94-2.1,1.78-4.25,2.38-6.48,1.26-4.71,1.29-9.59.21-14.34-.65-2.85-1.57-5.78-2.88-8.4-1.05-2.1-2.6-3.93-4.18-5.65-3.1-3.36-6.56-6.55-10.33-9.13-8.54-5.83-18.58-7.51-28.72-7.96-9.22-.41-19.09.18-27.55,4.21-4.36,2.08-8.24,5.15-10.79,9.29-1.35,2.2-2.27,4.52-2.53,7.1-.21,2.1-.29,4.8.94,6.63.29.43,1.5.05,1.58-.42.28-1.76,1.01-3.52,1.9-5.05s1.97-2.88,3.32-3.99c1.75-1.45,3.83-2.22,5.94-2.97,3.16-1.13,6.16-1.63,9.51-1.31,4.6.43,9.15,1.34,13.75,1.82,3.53.37,7.13.61,10.51,1.77,4.2,1.44,8.08,4.11,11.39,7.01,1.71,1.5,3.87,3.42,4.72,5.61.03.09.08.17.11.26.38,1.21.55,2.48.98,3.7,1.02,2.82,1.5,5.43,1.19,8.44-.28,2.72-1.26,5.2-2.17,7.75-.78,2.19-1.43,4.5-1.95,6.77-.4,1.75-.77,3.97.29,5.58.36.55.93,1.15,1.64,1.09.28-.03.69-.17.86-.41.04-.06.2-.65.14-.63.98-.28.76-1.14-.23-.86-.45.13-.93.28-1.21.68-.09.12-.16.26-.19.41-.08.38-.11.31.22.08l1.16-.15c-1.83-.66-1.47-3.76-1.21-5.17.36-1.96.96-3.92,1.54-5.83.67-2.23,1.65-4.36,2.24-6.61.66-2.56.88-5.38.41-7.98-.22-1.24-.66-2.41-1.09-3.59s-.6-2.49-.99-3.7c-.12-.39-.35-.77-.56-1.12-1.73-2.92-4.52-5.24-7.22-7.23-3.18-2.34-6.61-4.38-10.44-5.43-3.43-.94-7.04-1.13-10.56-1.51-4.62-.5-9.2-1.52-13.84-1.79-3.2-.19-6.19.44-9.2,1.49-4.15,1.45-7.76,3.32-10.19,7.12-1.13,1.77-2.08,3.87-2.41,5.96l1.58-.42c-1.06-1.57-.99-4.02-.85-5.81.18-2.29.84-4.37,1.96-6.37,2.04-3.66,5.11-6.56,8.75-8.61,7.69-4.35,17.13-5.11,25.78-4.9,9.4.23,18.99,1.35,27.3,6.07,3.87,2.2,7.23,5.08,10.43,8.16,1.57,1.52,3.1,3.09,4.46,4.8,1.59,1.99,2.62,4.09,3.5,6.48,1.93,5.23,2.89,10.8,1.97,16.35-.82,4.97-2.96,9.56-5.27,13.99l.87-.44h-.02c-.24.02-1.07.28-.93.69.24.7.95,1.19,1.19,1.88l.93-.69c.66-.06.22-.04-.02-.21s-.53-.31-.79-.47c-.57-.35-1.13-.7-1.71-1.04-.87-.5-1.82-1.05-2.83-1.16s-2.15-.01-3.19.03c-1.11.04-2.23.07-3.29.41-2.32.75-3.82,2.14-5.25,4.03-.57.75-1.09,1.54-1.69,2.27-.06.08-.25.24-.28.33-.12.44.92.38,1.17,0s.08-1.37.42-1.7l-.77.32h.04c-.22-.05-.43-.1-.65-.15.12.13.08.84.04,1.06-.12.65,1.53.39,1.64-.19Z"/>
    </g>
    <ellipse class="cls-24" cx="792.29" cy="270.52" rx="3.29" ry="3.3" transform="translate(-22.59 78.51) rotate(-5.59)"/>
    <path class="cls-17" d="M789.48,267.54c1.69-.77,3.39-1.4,6.51-.68,4.98,1.16,7.05,7.39,7.05,7.39,0,0-2.78-4.08-7.67-5.35-2.36-.61-6.1-.4-8.06.27.12-.48,1.15-1.13,2.17-1.64Z"/>
    <path class="cls-24" d="M857.84,288.8s.07-.03.1-.04c.04-.02.08-.03.11-.05.02,0,.04-.01.06-.02-.1.04,0,0,.02,0,.13-.04.25-.08.38-.1-.06.01,0,0,.02,0,.04,0,.09-.01.13-.02.08,0,.11,0,.16,0,.55.02.77.51.79,1.02.05,1.09-.5,2.28-1.37,2.93-.66.5-1.45.67-2.27.64-.18,0-.43.06-.52.23s.07.28.23.29c1.77.08,3.48-.69,4.29-2.32.47-.94.92-2.97-.55-3.27-.63-.13-1.34.05-1.91.33-.13.06-.31.21-.2.37s.4.1.53.03h0Z"/>
    <path class="cls-22" d="M829.4,275.51c.08,2.26-2.01,3.92-4.18,3.31-1.35-.38-2.34-1.63-2.39-3.03-.08-2.26,2.01-3.92,4.18-3.31,1.35.38,2.34,1.63,2.39,3.03Z"/>
    <path class="cls-17" d="M818.1,276.72s3.84-6.43,11.17-5.22c6.24,1.02,8.11,4.49,9.17,6.62,0,0-3.36-3.59-9.37-4.79-5.45-1.08-10.98,3.39-10.98,3.39Z"/>
    <path class="cls-25" d="M821.55,260.76c.04-.11.41.03.44-.08,6.29,1,10.68,2.72,12.14,3.69,1.11.74,2.08,1.73,2.9,2.86,0,0,2.32,3.08,2.39,3.95.08.87-1.72-1.15-1.72-1.15-.42-.35-.67-.67-1.13-.96-2.51-1.59-4.75-3.51-7.62-4.29-2.45-.68-6.18-.58-8.79-.62.41-1.2,1.05-2.19,1.37-3.41Z"/>
    <path class="cls-25" d="M803.57,260.17c0-.12-.35-.09-.36-.21-5.53-.88-9.63-.53-11.09-.02-1.11.38-2.15,1.04-3.12,1.88,0,0-1.3.63-1.57,1.44-.27.81.34,1.04.34,1.04.43-.22.72-.45,1.17-.59,2.49-.78,4.82-1.97,7.42-1.87,2.22.07,5.34,1.25,7.55,1.98-.07-1.26-.37-2.4-.36-3.66Z"/>
    <g>
      <path class="cls-2" d="M803.85,289.98c1.04.78,2.8.93,4.07.4.28-.12,1.1.17.71.34-1.67.7-4.18.38-5.52-.63-.13-.1-.09-.21.1-.24.2-.03.5.03.64.14"/>
      <path class="cls-2" d="M809.17,290.47c.82-.24,1.71-.29,2.58-.22.13.01.28.08.36.18.06.08.06.17-.04.2-.43.16-.95.18-1.41.09-.15-.03-.33-.09-.39-.23-.06-.13.1-.18.21-.16.38.07.78.06,1.14-.08.11.13.21.26.32.39-.78-.07-1.57-.01-2.31.2-.15.04-.34-.03-.45-.12-.08-.07-.16-.21-.01-.26"/>
      <path class="cls-2" d="M812.56,291.13c1.01.14,2.26-.11,2.87-.79.93-1.02.54-3.06-.6-3.99-.12-.1-.03-.19.11-.2.19,0,.39.09.52.2.99.81,1.44,2.53,1.11,3.57-.31.98-1.39,1.52-2.63,1.62-.37.03-.76.02-1.14-.03-.15-.02-.42-.11-.47-.24-.06-.13.09-.16.23-.14"/>
      <path class="cls-2" d="M802.09,289.17c.07-.11-.01-.2-.1-.21-.27-.04-.54-.16-.74-.38-.11.09-.21.19-.32.28.53.15,1.05.41,1.48.82.09.08.23.06.33,0,.07-.04.16-.16.08-.24"/>
      <path class="cls-2" d="M802.83,289.44c-.48-.45-1.06-.74-1.66-.91-.09-.02-.21,0-.29.08-.06.06-.09.14-.03.21"/>
      <path class="cls-2" d="M799.99,288.97c-.65-.13-1.34-.69-1.54-1.5-.3-1.22.37-2.51,1.3-3.1.1-.07.07-.18-.01-.22-.11-.06-.26-.01-.37.05-.81.52-1.44,1.48-1.5,2.57-.06,1.02.45,1.82,1.18,2.24.22.12.46.22.7.27.1.02.28,0,.35-.11.07-.11-.01-.18-.11-.2"/>
    </g>
    <path class="cls-40" d="M860.54,274.59c-.72.17-5.8-3.28-6.51-2.58-9.08-20.91-44.02-35.01-63.28-21.1,1.09-2.91,6.23-11.75,6.95-12.64,7.76-9.7,20.71-13.35,34.53-12.9,13.82.45,30.23,6.79,36.92,21.78,6.49,14.53,6.29,27.04-8.6,27.45Z"/>
    <g>
      <path class="cls-19" d="M849.63,254.71l.31-.49c.53,1.28,1.55,2.36,2.8,2.96.74.35,1.71.77,1.67,1.59-.01.24-.12.47-.13.71-.08,1.53,2.85.94,3.63,2.26.65,1.11-.79,2.59-.22,3.75.51,1.03,2.21.96,2.71,1.98.63,1.28-1.17,2.95-.31,4.08.62.81,2.11.47,2.7,1.31.28.4.26.92.26,1.43-2.52.53-5.06,1.22-7.72,1.74.04-.56.15-1.13.33-1.65.16-.46.33-.96.14-1.41-.42-.98-2-.63-2.81-1.34-1.41-1.24.97-3.78-.06-5.35-.62-.94-2.2-.99-2.6-2.04-.53-1.38,1.48-3.14.43-4.17-.32-.32-.81-.37-1.21-.59-.78-.43-1.1-1.43-.98-2.32s.59-1.68,1.05-2.45Z"/>
      <path class="cls-19" d="M850,254.65l.31-.49-.75.16c.55,1.22,1.41,2.22,2.59,2.87.62.34,1.67.62,1.86,1.42.13.55-.29.98.03,1.5.41.67,1.53.73,2.19.93.57.17,1.18.41,1.41,1.02.23.64-.13,1.37-.3,1.98-.29,1.06-.1,1.84.92,2.37.5.26,1.11.4,1.51.81.57.58.39,1.33.16,2.02-.31.93-.86,2.1.19,2.76.47.29,1.04.3,1.55.48.92.34,1.01,1.03,1.01,1.9l.44-.27c-2.58.55-5.13,1.23-7.72,1.74l.31.11c.09-.99,1.08-2.69.18-3.5-.75-.67-2.04-.3-2.69-1.13-1.26-1.6,1.55-3.97-.22-5.54-.74-.66-2.08-.76-2.32-1.88-.23-1.06.71-1.98.79-3,.1-1.23-1.03-1.15-1.77-1.73-1.49-1.17-.41-3.28.33-4.53.08-.14-.63-.09-.75.12-.69,1.16-1.48,2.6-.84,3.96.19.39.47.7.84.91.54.3,1.27.36,1.43,1.07.21.97-.74,1.97-.81,2.93s.61,1.42,1.37,1.82c1.19.62,1.78,1.28,1.48,2.69-.19.89-.75,1.93-.53,2.86.22.92,1.11,1.13,1.91,1.32.63.15,1.3.32,1.4,1.08s-.47,1.87-.55,2.67c-.01.15.22.13.31.11,2.59-.52,5.14-1.2,7.72-1.74.12-.03.44-.09.44-.27-.01-1.53-.57-1.84-1.93-2.21-1.95-.53-.99-1.99-.67-3.36.23-.99-.13-1.63-1.01-2.09-.6-.31-1.42-.48-1.75-1.14s0-1.36.18-1.98c.27-.92.35-1.8-.58-2.35-.8-.47-2.01-.35-2.71-.97-.55-.49-.06-1.07-.19-1.67-.12-.55-.71-.87-1.16-1.12-1.49-.79-2.58-1.59-3.29-3.17-.11-.23-.66.02-.75.16l-.31.49c-.08.13.62.08.75-.12Z"/>
    </g>
    <g>
      <path class="cls-19" d="M853.35,247.18c-.81.62-1.14,1.79-.79,2.74.35.96,1.36,1.63,2.38,1.58-.6,1.17-.03,2.8,1.18,3.33.52.23,1.13.29,1.54.69.99.97-.14,2.98.87,3.94.38.36.96.45,1.33.82.76.76.18,2.14.69,3.08.63,1.16,2.55,1.1,3.11,2.29.39.84-.02,2.05.72,2.6.39.29.98.26,1.29.63.38.45.1,1.11.03,1.69-.18,1.44,1.39,2.79,2.79,2.4-.09.97.25,1.97.9,2.69.72-.86,1.46-1.75,1.77-2.83.32-1.08.1-2.39-.81-3.05-.35-.25-.79-.4-1.07-.73-.71-.84-.02-2.34-.79-3.13-.52-.53-1.52-.5-1.84-1.16-.16-.32-.1-.7-.11-1.05-.04-1.26-1.2-2.38-2.46-2.38-.36,0-.74.07-1.05-.11-.89-.52.11-1.94-.22-2.92-.33-.96-1.84-1.15-2.07-2.14-.08-.33.02-.68-.02-1.01-.07-.53-.46-.96-.83-1.34-1.92-1.97-3.91-3.87-5.96-5.7"/>
      <path class="cls-19" d="M853.1,247.01c-1.91,1.72-.93,4.69,1.7,4.77l-.23-.32c-.43,1.02-.3,2.18.47,3.02.33.36.73.56,1.17.73,1.06.42,1.49.78,1.49,2s-.12,2.14,1.04,2.8c.96.55,1.1,1.06,1.16,2.1.03.54.05,1.06.36,1.53.69,1.02,2.21.96,2.89,1.94s-.07,2.38,1.2,3.05c.56.29.52.03.83.73.3.66.06.9.09,1.57.02.49.21.95.51,1.33.67.87,1.7,1.16,2.74.97l-.45-.23c-.04,1.08.26,1.99.94,2.83.16.19.52.12.66-.06.96-1.16,2.02-2.46,1.97-4.05-.02-.69-.24-1.38-.73-1.89-.61-.63-1.41-.69-1.62-1.69-.24-1.15.15-2.15-1.08-2.78-.74-.39-1.1-.26-1.33-1.32-.05-.24,0-.52-.04-.77-.12-.6-.48-1.16-.95-1.55-.57-.47-1.08-.43-1.72-.66-.49-.18-1.1-.5-1.15-1.01-.03-.33.16-.72.18-1.06.1-1.54-1.17-1.5-1.92-2.52-.45-.62-.12-1.51-.56-2.2-.52-.83-1.46-1.56-2.15-2.24-1.43-1.41-2.9-2.79-4.4-4.13-.25-.22-.91.14-.58.43,1.57,1.41,3.12,2.86,4.62,4.35.58.57,1.42,1.2,1.82,1.92s.08,1.34.42,1.99c.23.44.69.69,1.08.96.85.59.97,1.12.82,2.12-.13.89-.23,1.72.84,1.94.99.21,1.86.05,2.53,1,.53.74.16,1.52.52,2.26.19.39.51.54.88.73,1.08.56,1.3.82,1.38,2.06.03.45.02.91.24,1.32.29.53.85.68,1.29,1.03,1.98,1.57.18,4.14-.99,5.54l.66-.06c-.62-.76-.9-1.57-.87-2.55,0-.25-.28-.26-.45-.23-1.17.22-2.25-.76-2.32-1.89-.03-.56.3-1.21.11-1.76-.11-.31-.27-.46-.53-.62-.69-.44-1.24-.38-1.39-1.33-.17-1.03-.1-1.83-1.08-2.45-1.08-.69-2.33-.79-2.49-2.31-.1-.94.05-1.86-.81-2.48-.56-.4-1.19-.47-1.4-1.25-.17-.61,0-1.31-.03-1.93-.05-.86-.38-1.41-1.17-1.76-.66-.3-1.3-.38-1.76-1.01-.51-.7-.58-1.59-.25-2.37.07-.16-.06-.31-.23-.32-2.04-.06-3.04-2.46-1.47-3.88.38-.34-.22-.6-.5-.34h0Z"/>
    </g>
    <g>
      <path class="cls-19" d="M855.61,244.61c-.53,1.5.44,3.34,1.97,3.76.3.08.63.12.87.31.51.4.4,1.19.53,1.83.3,1.44,1.95,2.15,3.41,2.34.93.12,2.12.33,2.32,1.25.08.36-.04.76.1,1.1.37.92,2.11.72,2.27,1.69.08.45-.27.88-.22,1.33.11.95,1.61.87,2.25,1.59.29.33.36.8.41,1.25.17,1.35.33,2.69.5,4.04.04.33.11.71.41.87.5.26.99-.36,1.2-.88,1.17-2.94,1.56-6.19,1.14-9.33-.11-.78-.45-1.74-1.24-1.8-.26-.02-.55.07-.77-.06-.37-.22-.23-.77-.13-1.19.39-1.72-1.21-3.59-2.97-3.47-.48.03-1.04.16-1.36-.2-.21-.24-.21-.59-.31-.89-.26-.77-1.15-1.13-1.96-1.24-.81-.11-1.67-.07-2.38-.47-.89-.49-1.41-1.59-2.39-1.87-1.19-.35-2.66.62-3.6-.18"/>
      <path class="cls-19" d="M855.23,244.66c-.25.86-.15,1.72.31,2.5.25.42.58.78.99,1.04.57.37,1.53.36,1.86,1.01.25.49.11,1.14.3,1.66.12.35.33.66.58.92.68.7,1.68,1.04,2.62,1.21.58.11,1.24.11,1.76.4.73.41.59.83.72,1.54.19,1.01.99,1.01,1.77,1.43,1.14.61-.14,1.72.65,2.51.86.85,1.96.47,2.32,1.95.34,1.42.28,2.94.54,4.38.13.73.52,1.23,1.32.95s1.07-1.13,1.32-1.85c.52-1.5.84-3.06.97-4.64.11-1.32.11-2.69-.1-4-.12-.72-.36-1.59-1.14-1.84-.16-.05-.46,0-.6-.05-.74-.27-.48-.54-.41-1.1.05-.41.09-.79-.01-1.2-.23-.98-.98-1.82-1.9-2.21-.46-.19-.9-.18-1.38-.21-.34-.02-.93-.09-1.19-.37-.17-.18-.15-.67-.29-.91-.62-1.04-1.98-1-3.02-1.15-.87-.12-1.46-.41-2.07-1.02-.41-.4-.78-.86-1.31-1.1-1.21-.55-2.72.5-3.81-.25-.21-.14-.89.16-.7.29.58.4,1.17.42,1.86.33s1.38-.32,2.05-.02c.58.26.97.82,1.42,1.23.67.62,1.39.84,2.28.94.59.06,1.19.07,1.74.32.81.36.78.85,1.1,1.53s.9.6,1.54.59c1.48-.03,2.8.94,2.98,2.48.07.58-.47,1.66.12,2.09.25.18.45.06.71.13.95.23,1.14.84,1.28,1.69.45,2.75.08,5.72-.8,8.35-.12.36-.47,1.89-1.08,1.29-.29-.28-.21-1.31-.26-1.71-.14-1.15-.04-2.81-.61-3.84-.4-.73-1.21-.76-1.86-1.15-1.07-.64.11-1.6-.51-2.39-.46-.58-1.37-.49-1.88-1.01-.46-.47-.14-1.09-.38-1.63-.15-.33-.45-.56-.76-.71-.91-.45-1.99-.37-2.93-.72-1.43-.53-1.83-1.39-2.06-2.79-.2-1.23-.95-1.07-1.89-1.55-1.23-.63-1.76-2.15-1.38-3.43.07-.25-.68-.14-.75.1h0Z"/>
    </g>
    <g>
      <path class="cls-19" d="M858.22,243.14c1.79,1.14,4.37-1.4,6.14-.22.86.57,1.29,1.92,2.32,1.89.47-.01.92-.35,1.38-.24.95.23.56,1.74,1.08,2.57.66,1.03,2.49.63,3.17,1.65.19.29.25.64.42.94.32.56.96.84,1.5,1.19s1.07.93.94,1.56c1.65-2.03,1.55-5.27-.22-7.2-.19-.21-.4-.41-.51-.67-.1-.26-.08-.54-.09-.82-.05-1.38-.89-2.71-2.13-3.34-.43-.22-.93-.38-1.21-.77-.39-.56-.19-1.32-.34-1.99-.36-1.55-2.39-1.95-3.45-3.13-.44-.49-.71-1.12-1.12-1.64-.43-.56-1.03-.99-1.69-1.23-.53-.19-1.21-.22-1.57.2-.25.29-.28.72-.46,1.06-.45.86-1.65.93-2.62.82s-2.11-.22-2.76.51c-.92,1.03,0,2.7-.38,4.03-.16.58-.58,1.08-.69,1.68-.1.55.06,1.1.23,1.63.29.94.57,1.88.86,2.82"/>
      <path class="cls-19" d="M857.84,243.28c1.55.86,3.15-.23,4.71-.47,1.47-.23,1.87.84,2.77,1.69.59.55,1.08.48,1.82.35.6-.1.93-.08,1.15.55.16.46.12.96.27,1.42.27.82.95,1.06,1.72,1.27.46.12.98.2,1.36.51.48.39.51,1.02.88,1.49.72.89,2.36,1.08,2.26,2.5-.01.18.74-.09.81-.18.93-1.22,1.33-2.73,1.13-4.25-.1-.77-.35-1.51-.74-2.17-.43-.71-1.11-1.16-1.19-2.02-.16-1.56-.71-2.87-2.16-3.65-.88-.47-1.38-.77-1.45-1.85-.05-.71-.11-1.29-.6-1.85-1.07-1.2-2.59-1.56-3.49-2.98-.73-1.14-1.74-2.3-3.23-2.24-.36.01-.79.11-1.1.31-1.14.76-.11,1.86-2.3,1.93-1.21.04-2.47-.37-3.54.44-1.44,1.09-.23,3.15-.78,4.59-.37.96-.76,1.51-.5,2.58s.66,2.21,1,3.3c.05.18.87-.05.82-.22-.47-1.52-1.56-3.57-.84-5.12.24-.52.49-1.01.53-1.59.05-.76-.19-1.52-.13-2.28.15-2.09,2.77-1.16,4.17-1.46.43-.09.87-.24,1.21-.52.44-.36.4-.89.71-1.29.63-.81,1.98.27,2.43.76.55.59.83,1.38,1.4,1.96.89.92,2.34,1.27,3.05,2.36s-.03,2.45,1.33,3.19,2.48,1.73,2.63,3.42c.07.89.26,1.2.8,1.87.52.64.87,1.37,1.05,2.17.38,1.67.02,3.39-1.02,4.75l.81-.18c.08-1.22-1.13-1.55-1.91-2.18-.85-.69-.77-1.75-1.88-2.16-.92-.35-2.07-.31-2.43-1.42-.22-.68-.04-1.78-.82-2.14-.82-.37-1.68.48-2.46-.25-.65-.6-.99-1.42-1.9-1.69-1.87-.56-3.83,1.44-5.58.47-.2-.11-.86.22-.77.28h0Z"/>
    </g>
    <g>
      <path class="cls-19" d="M852.59,242.25c-1.06-.7-1.26-2.4-.39-3.33.29-.31.7-.64.6-1.05-.04-.18-.18-.31-.29-.46-.72-.91-.46-2.42.51-3.05.21-.13.44-.23.6-.42.65-.77-.49-2.26.32-2.86.68-.51,1.63.48,2.45.24.79-.24.9-1.44,1.66-1.77,1.13-.48,2.62,1.33,3.43.41.42-.48.06-1.28-.5-1.61s-1.22-.36-1.83-.59c-1.56-.58-2.39-2.25-3.68-3.29-1.35-1.08-3.14-1.42-4.84-1.72-.73-.13-1.49-.26-2.21-.09-1.11.26-2,1.29-2.1,2.43-.02.22-.02.47-.19.62-.1.09-.23.12-.36.15-.63.14-1.27.29-1.9.43-.24.05-.5.12-.64.33-.32.47.29,1.03.85,1.17.55.14,1.25.24,1.42.79.31,1.01-1.67,1.46-1.63,2.52.04,1.09,2.07,1.09,2.25,2.18.11.64-.56,1.18-.59,1.83-.04.67.59,1.18,1.2,1.46s1.3.48,1.71,1.01c.31.41.39.93.56,1.41.53,1.45,1.91,2.39,3.21,3.24"/>
      <path class="cls-19" d="M852.89,242.06c-.59-.45-.9-1.17-.85-1.91s.49-1.06.88-1.6c.28-.39.33-.65.11-1.07-.35-.69-.71-1.15-.47-1.98.33-1.14,1.72-1.19,1.64-2.5-.02-.4-.35-1.13-.16-1.5.31-.6,1.38.07,1.87.09.88.03,1.29-.52,1.74-1.19.86-1.3,1.76-.11,2.89.04.6.08,1.31-.18,1.48-.82.31-1.21-1.16-1.65-2.01-1.89-1.53-.42-2.34-1.53-3.37-2.64-.86-.92-1.87-1.55-3.07-1.94-2.09-.68-5.33-1.58-6.96.43-.31.38-.52.82-.62,1.3-.06.28-.01.58-.26.78-.27.23-1.16.26-1.52.35-.64.15-1.85.47-1.3,1.39.25.42.75.55,1.19.68.91.27,1.36.78.6,1.49-.49.46-1.32.93-1.2,1.72.16.99,1.51,1.01,2.04,1.68s-.21,1.28-.36,1.94c-.12.56.11,1.03.53,1.4.51.45,1.19.59,1.76.93.91.53.92,1.53,1.37,2.38.67,1.24,1.9,2.06,3.05,2.81.22.15.91-.18.6-.38-1.15-.75-2.43-1.58-3.02-2.88-.22-.48-.28-1.02-.54-1.47-.31-.56-.82-.83-1.38-1.08s-1.32-.5-1.56-1.13.23-1.11.42-1.66c.28-.82-.23-1.3-.9-1.67-.97-.53-1.75-1.08-.64-2.05.42-.37,1.11-.79,1.04-1.44-.11-1.17-2.35-.74-2.36-1.71,0-.62,1.88-.74,2.3-.87.32-.1.62-.2.77-.52.22-.44.12-.98.37-1.45.63-1.18,1.82-1.39,3.07-1.21,1.34.2,2.76.45,3.99,1.04s2.03,1.61,2.94,2.6c.79.85,1.61,1.36,2.74,1.65.55.14,2.23.89,1.32,1.57-.45.33-1.08-.18-1.57-.36-.61-.22-1.27-.27-1.82.11-.31.21-.5.53-.7.84-.21.33-.23.44-.64.59-.47.17-.62.03-1.06-.11-.6-.19-1.36-.22-1.78.35-.22.3-.2.68-.16,1.03.1.84.39,1.32-.4,1.94s-1.28,1.29-1.16,2.32c.04.31.13.56.27.84.04.08.11.15.15.23.27.51.28.63-.08,1.09-.29.36-.58.66-.71,1.12-.29,1.01.11,2.05.93,2.67.21.16.9-.15.6-.38h0Z"/>
    </g>
    <g>
      <path class="cls-19" d="M851.16,245.06c.08-1.58-2.22-1.92-3.36-3.01-.87-.84-1.1-2.25-2.12-2.9-.73-.47-1.82-.49-2.21-1.27-.23-.45-.13-1-.24-1.49-.44-1.88-3.61-2.06-3.98-3.96-.33-1.71,1.98-3.37,1.15-4.9-.26-.47-.79-.78-.98-1.28-.39-1.02.74-1.93,1.7-2.44,1.34-.72,2.68-1.43,4.02-2.15-2.52-1.81-5.58-2.87-8.68-3.01-1.14-.05-2.34.03-3.3.65-.96.61-1.57,1.89-1.11,2.93.14.31.35.58.44.9.38,1.42-1.88,2.89-.99,4.06.21.27.54.42.74.7.58.81-.37,2.01.08,2.9.39.77,1.52.77,2.14,1.38.37.37.5.9.75,1.36.35.64.92,1.12,1.47,1.59,1.58,1.33,3.16,2.65,4.74,3.98,1.12.94,2.34,1.92,3.79,2.03.56,2.7,3.52,4.65,6.22,4.1"/>
      <path class="cls-19" d="M851.54,245.03c-.04-1.09-.81-1.6-1.7-2.09-.52-.29-1.08-.54-1.54-.92-.63-.53-.91-1.27-1.32-1.95-.34-.57-.71-.99-1.29-1.29-.73-.38-1.66-.43-1.96-1.35-.2-.62-.03-1.18-.39-1.76-.25-.41-.64-.72-1.03-.98-.9-.61-2.33-1.07-2.65-2.23-.35-1.31.9-2.45,1.21-3.64.13-.49.12-.95-.11-1.4-.45-.87-1.58-1.29-.69-2.45.58-.75,1.6-1.13,2.41-1.56.94-.5,1.88-1,2.82-1.5.15-.08.33-.29.13-.43-2.97-2.07-7.26-3.73-10.94-2.94-1.4.3-2.8,1.24-2.97,2.78-.09.8.43,1.23.59,1.95.19.91-.58,1.7-.93,2.46-.2.43-.37.92-.18,1.39.09.23.26.37.42.54.57.6.67.92.53,1.72-.1.59-.26,1.19.1,1.73.39.58,1.11.68,1.67,1.01.87.53,1.09,1.73,1.8,2.47s1.55,1.35,2.33,2c1.71,1.44,3.41,3.23,5.4,4.27.41.21.99.26,1.36.5.39.25.41.57.6.99.32.69.8,1.3,1.37,1.8,1.32,1.17,3.09,1.68,4.83,1.39.41-.07.58-.63.07-.54-2.67.45-5.24-1.32-5.88-3.93-.03-.11-.15-.16-.25-.17-2.04-.27-3.59-1.94-5.09-3.2-.79-.66-1.58-1.33-2.37-1.99-.73-.61-1.6-1.2-2.14-2-.37-.54-.51-1.26-1-1.72s-1.29-.5-1.78-.96c-1-.94.35-2.45-.64-3.54-.73-.79-.76-1.09-.23-2.04.27-.48.6-.95.74-1.49.12-.47.06-.78-.11-1.24-.19-.53-.5-.85-.44-1.46.05-.5.32-1.02.66-1.38,1.53-1.6,4.76-.92,6.64-.43,1.9.5,3.66,1.35,5.26,2.46l.13-.43c-1.62.86-3.54,1.6-4.97,2.76-.94.76-1.38,1.72-.57,2.75.61.78.95,1.24.56,2.25-.24.62-.63,1.17-.88,1.78-.39.98-.34,1.93.44,2.7.87.85,2.22,1.15,2.97,2.13.51.67.23,1.47.58,2.18.24.47.68.7,1.14.9.98.42,1.6.73,2.14,1.66.35.6.62,1.23,1.14,1.72.94.89,3.21,1.3,3.27,2.83.01.39.78.27.76-.06h0Z"/>
    </g>
    <g>
      <path class="cls-19" d="M848.01,247.37c-1.93.96-4.51.31-5.76-1.45-.42-.59-.69-1.27-1.17-1.81-1.38-1.57-4.05-1.5-5.35-3.14-.71-.89-.86-2.12-1.54-3.04-1.34-1.83-4.32-1.9-5.53-3.82-.31-.49-.48-1.08-.89-1.49-.65-.67-1.71-.73-2.42-1.34-.93-.8-1-2.31-1.98-3.05-.58-.44-1.42-.54-1.86-1.12-.77-1.01.19-2.7-.65-3.65-.33-.37-.86-.51-1.19-.88-.81-.88.02-2.33,1.03-2.97,1.28-.81,2.82-1.09,4.32-1.35.35-.06.7-.12,1.05-.18,1.78-.31,3.92-.51,5.11.85.23.27.41.67.22.97-.1.15-.28.24-.44.32-1.23.57-2.46,1.14-3.69,1.72,1.01.43,1,1.87.7,2.93s-.63,2.36.14,3.13c.39.39,1.03.58,1.21,1.11.14.41-.06.85-.04,1.28.07,1.28,1.79,1.58,2.83,2.32.73.52,1.17,1.34,1.71,2.07.62.83,1.38,1.55,2.14,2.26.69.64,1.37,1.28,2.06,1.92,1.91,1.79,3.83,3.58,5.86,5.25,1.42,1.17,2.9,2.27,4.42,3.31"/>
      <path class="cls-19" d="M847.8,247.32c-1.28.57-2.79.35-3.96-.38-.93-.59-1.37-1.47-1.95-2.36-.94-1.44-2.44-1.81-3.93-2.46-.81-.35-1.57-.8-2.06-1.56-.55-.86-.71-1.91-1.32-2.73-.89-1.22-2.41-1.64-3.69-2.31-.71-.37-1.39-.82-1.84-1.5-.48-.74-.66-1.45-1.46-1.93s-1.7-.58-2.28-1.4c-.46-.65-.63-1.47-1.11-2.11s-1.21-.74-1.85-1.19c-.92-.65-.73-1.56-.72-2.55,0-.71-.1-1.28-.67-1.74-.44-.35-1.01-.53-1.18-1.14-.13-.48.09-1.05.35-1.45.96-1.47,3.04-1.77,4.63-2.06,1.15-.21,2.34-.49,3.51-.43.62.03,1.26.13,1.8.44.59.33,1.32,1.03.68,1.72-.34.36-1.4.65-1.84.86-.61.29-1.23.57-1.84.86-.03.01-.23.13-.14.18,1.38.77.73,2.49.48,3.69-.26,1.25-.07,1.99.91,2.78s.45,1.08.63,2.09c.08.44.34.74.68,1.01.49.38,1.09.59,1.63.88.71.39,1.17.89,1.65,1.56,1.89,2.62,4.44,4.71,6.81,6.89,2.61,2.4,5.32,4.66,8.25,6.67.18.12.82-.18.71-.26-3.63-2.49-6.9-5.4-10.11-8.4-1.62-1.51-3.4-2.96-4.68-4.78-.44-.63-.87-1.26-1.52-1.7s-1.43-.63-2.03-1.12c-.85-.69-.44-1.25-.6-2.17s-1.23-1.02-1.58-1.84c-.6-1.43.67-2.97.31-4.46-.07-.31-.27-.49-.37-.77-.15-.42-.29-.22.22-.54.93-.58,2.06-.83,2.99-1.4,1.17-.71.06-1.78-.84-2.16-1.18-.51-2.58-.37-3.81-.19-1.66.25-3.41.5-4.98,1.12-1.12.44-2.47,1.24-2.67,2.56-.09.61.14,1.05.6,1.42.81.65,1.27.98,1.26,2.08,0,.73-.19,1.55.28,2.18.43.58,1.19.66,1.75,1.06,1.34.96,1.25,2.83,2.86,3.57.94.44,1.59.62,2.13,1.59.36.65.65,1.21,1.25,1.69,1.15.91,2.66,1.23,3.84,2.09,1.6,1.16,1.53,3.4,3.12,4.55,1.43,1.03,3.43,1.11,4.64,2.48.59.67.88,1.54,1.49,2.21.55.6,1.25,1.02,2.02,1.27,1.33.43,2.72.27,3.99-.29.45-.2-.25-.19-.44-.1h0Z"/>
    </g>
    <g>
      <path class="cls-19" d="M826.5,236.1c.68-.48.29-1.61-.39-2.08-.68-.47-1.57-.62-2.2-1.16-.82-.7-1.03-1.89-1.71-2.73-.72-.89-1.87-1.29-2.83-1.91-.96-.62-1.83-1.74-1.46-2.82.2-.58.74-1.19.42-1.72-.32-.54-1.26-.42-1.55-.98-.32-.63.54-1.27.5-1.97-.03-.47-.46-.82-.9-.98-1.53-.54-3.12.5-4.41,1.48-1.5,1.15-3,2.29-4.5,3.44-.1.08-.21.16-.29.27-.35.48.1,1.2.67,1.37.57.17,1.18,0,1.76-.11.59-.11,1.27-.11,1.68.31.42.42.41,1.11.71,1.63.73,1.26,2.72.88,3.92,1.7.75.51,1.12,1.45,1.87,1.95.77.51,1.77.47,2.63.81,1.2.48,1.98,1.62,2.86,2.56.88.95,1.97,1.34,3.2.94"/>
      <path class="cls-19" d="M826.8,236.15c.53-.48.53-1.13.16-1.73-.51-.83-1.51-.97-2.3-1.43-.99-.58-1.24-1.64-1.81-2.56-.52-.85-1.33-1.34-2.18-1.81-1-.55-2.27-1.24-2.45-2.51-.13-.87,1.08-1.97.33-2.73-.22-.22-.54-.28-.81-.39-.88-.38-.59-.87-.29-1.57.28-.65.27-1.19-.34-1.62-1.63-1.14-3.86.22-5.18,1.19-1.05.77-2.07,1.58-3.11,2.38-.55.42-1.13.81-1.65,1.26-.25.22-.47.4-.49.76-.04.7.68,1.12,1.28,1.19,1.36.15,2.8-.88,3.39.94.65,1.97,2.29,1.53,3.87,2.28,1.09.52,1.47,1.79,2.54,2.32,1.19.59,2.48.48,3.54,1.42.89.79,1.5,1.91,2.55,2.51.84.48,1.76.49,2.68.23.45-.13.36-.48-.1-.36-2.39.68-3.36-2.02-5.01-3.12-.66-.44-1.36-.56-2.11-.74-1.23-.28-1.67-.93-2.45-1.81-1.09-1.23-2.63-.89-3.92-1.68-.77-.47-.68-1.29-1.12-1.97-.35-.53-.94-.68-1.55-.67-.81.01-2.89.71-2.81-.67.03-.52.81-.92,1.2-1.22.5-.38,1-.76,1.5-1.15.94-.72,1.86-1.48,2.84-2.14.54-.36,1.1-.69,1.73-.84.72-.16,2.04-.1,2.13.89.06.67-.71,1.21-.5,1.89s1.05.53,1.48.97c.58.6-.42,1.67-.41,2.37,0,.78.54,1.49,1.11,1.98.74.64,1.69.97,2.48,1.52.96.67,1.28,1.62,1.84,2.59.41.71.94,1.12,1.68,1.46s2.82,1.38,1.64,2.46c-.32.29.43.27.6.11h0Z"/>
    </g>
    <g>
      <path class="cls-19" d="M817.83,232.85c-.66-1.22-2.59-.77-3.71-1.58-.69-.5-1.03-1.46-1.84-1.71-.97-.3-2.17.58-2.97-.06-.54-.42-.53-1.32-1.1-1.7-.52-.34-1.22-.06-1.76.25-1.86,1.06-3.53,2.44-4.93,4.06-.16.18-.32.38-.35.61-.08.53.54.96,1.08.88s.96-.47,1.33-.86.75-.82,1.26-.98c1.51-.48,2.94,1.54,4.48,1.17.47-.12.88-.45,1.36-.49,1.12-.09,1.91,1.41,3.03,1.28.41-.05.76-.31,1.14-.47.63-.26,1.37-.23,1.97.08.28.15.55.36.86.39s.69-.21.63-.52"/>
      <path class="cls-19" d="M818.18,232.7c-.77-1.21-2.37-.86-3.5-1.46-1.19-.64-1.43-2.08-3.01-1.97-.77.05-1.73.56-2.28-.23-.38-.55-.41-1.27-1.12-1.54-1.26-.47-2.85.86-3.78,1.53-.69.5-1.35,1.05-1.97,1.63-.52.49-1.37,1.15-1.65,1.84-.51,1.26,1.23,1.5,2.02,1.1.65-.33,1-.95,1.56-1.37.97-.71,1.92.08,2.79.51.47.24.98.45,1.52.45.79,0,1.61-.71,2.35-.41.65.26,1.1.87,1.79,1.08s1.23-.07,1.86-.34c.71-.31,1.28-.22,1.96.11.3.15.56.31.9.31.48,0,1.03-.27,1.05-.79.02-.33-.74-.19-.76.09-.02.42-.95-.17-1.04-.21-.19-.08-.4-.13-.6-.16-.5-.07-1-.01-1.47.16-.74.27-1.14.63-1.9.16-.46-.29-.86-.68-1.37-.87-.38-.14-.77-.16-1.15-.06-.23.06-.44.17-.66.26-.57.23-.94.24-1.49.02-.92-.37-1.73-1.08-2.76-1.09-.39,0-.77.09-1.12.28-.59.32-.91,1-1.48,1.31-.32.18-.93.39-1.2.05-.16-.2-.1-.41-.05-.61.11-.38.61-.78.88-1.07.54-.56,1.11-1.09,1.72-1.58s1.27-.96,1.95-1.38c.47-.29,1.27-.88,1.83-.39.24.21.33.57.46.85.44.93,1.12,1.12,2.09.97s1.57-.29,2.26.49c.37.42.68.89,1.17,1.18,1.08.64,2.75.27,3.49,1.43.15.23.88-.02.7-.3h0Z"/>
    </g>
    <g>
      <path class="cls-19" d="M810.7,234.45c-1.02-.93-2.7.12-4.03-.29-.81-.25-1.45-1.04-2.3-1.02-1.02.03-1.87,1.25-2.83.92-.65-.23-.93-1.08-1.6-1.24-.61-.15-1.17.34-1.59.81-1.41,1.61-2.54,3.46-3.34,5.44-.09.22-.18.46-.13.69.1.53.82.73,1.31.49s.75-.76.98-1.25c.22-.49.44-1.02.87-1.34,1.27-.95,3.28.5,4.61-.36.41-.26.68-.71,1.13-.91,1.03-.45,2.27.71,3.28.23.37-.18.62-.54.93-.82.51-.45,1.22-.67,1.89-.57.32.05.63.16.94.09s.59-.43.42-.7"/>
      <path class="cls-19" d="M811.05,234.3c-1.22-.96-2.58-.04-3.94-.3-.73-.14-1.26-.74-1.96-.97-.59-.2-1.16-.08-1.71.18-.78.36-1.4,1.01-2.19.22-.43-.43-.77-.86-1.43-.86-1.35,0-2.34,1.62-3.02,2.58-.54.76-1.02,1.56-1.44,2.39-.3.59-.94,1.58-.85,2.28.14,1.02,1.58.86,2.18.4.53-.41.73-1.03,1.02-1.61.59-1.18,1.46-1.07,2.6-.89,1.31.21,2.2.09,3.2-.8.82-.74,1.68-.03,2.61.06.62.06,1.18-.12,1.64-.54.68-.61,1.09-1.06,2.12-.91.32.05.62.12.94.05.48-.11.95-.48.79-1.02-.08-.28-.84-.08-.76.2.11.37-1.56.27-1.75.31-.49.09-.95.3-1.33.61s-.52.59-1.06.72c-.47.11-.63.06-1.07-.07-.46-.14-.94-.29-1.43-.23-.44.05-.81.23-1.15.51-.3.25-.51.53-.89.67-.43.16-.87.09-1.31.03-.9-.14-1.86-.36-2.73.05-.38.18-.68.46-.92.82-.34.52-.48,1.36-.98,1.75s-1.02.05-.96-.54c.04-.39.31-.83.47-1.18.31-.68.66-1.33,1.05-1.97.36-.59.76-1.17,1.19-1.72.25-.33.51-.71.82-.98.25-.21.16-.17.59-.31.48-.16.52-.11.84.2.66.63,1.15,1.14,2.14.82.65-.21,1.17-.76,1.86-.8.8-.04,1.38.68,2.12.92,1.25.4,2.92-.59,3.97.25.22.17.92-.13.7-.3h0Z"/>
    </g>
    <path class="cls-19" d="M863.13,273.61c1.18.84-8.03,3.6-7.82,2.17.2-1.44-1.03-6.32-1.95-7.44-.93-1.12,6.16,5.29,6.49-1.73,1.37-.65,2.41,4.15,3.92,3.97,1.96-.24-.26-3.57-.83-5.46-.57-1.89-.45-2.55-1.12-4.41-.25-.7,1.21-1.84,1.9-2.11.26-.1.55-.06.83-.05,1.23,0,2.34-.86,2.88-1.97.54-1.1-2.81-3.45-2.99-4.66-.31-2.07.31-3.55-1.11-5.09-.57-.62.59-.63.31-1.42-.28-.79.02-1.87.83-2.07.48-.12.98.1,1.42.32,2.03,1,4.04,2.15,5.48,3.89,1.44,1.74,2.23,4.16,1.51,6.3-.28.85-.79,1.65-.78,2.54.02,1.11.85,2.06,1.05,3.15.39,2.22,2.1,4.54,2.69,6.71.18.68-3.35,1.05-3.12,1.71.41,1.18.05,2.6-.89,3.43-.56.5-1.29.79-1.85,1.29-2.1,1.88.48,3.88-1,6.27"/>
    <path class="cls-19" d="M860.92,226.6c-1.28-.09-2.17-1.22-3.11-2.09-1.46-1.35-3.36-2.22-5.34-2.42-1.49-.16-3.06.04-4.45-.52-.8-.32-1.49-.88-2.2-1.37-2.5-1.71-5.49-2.69-8.52-2.79-.65-.02-1.32,0-1.93-.22-.73-.26-1.3-.81-1.94-1.24-1.47-.97-3.38-1.22-5.05-.67-2.47.81-4.61,3.27-7.14,2.68-1.88-.44-3.6-2.53-5.34-1.67-.81.4-1.21,1.33-1.95,1.85-1.58,1.11-3.95-.06-5.63.89-1.39.78-1.77,2.7-3.12,3.56-.89.57-2.01.56-3.02.86-1.01.3-2.03,1.23-1.75,2.24l-.96,1.19c-5.74,3.4-8.45,15.91-7.33,15.58s7.16-7.8,7.54-8.91c2.42-6.96,9.41-9.22,11.37-9.52,1.77-.27,3.62-.2,5.25-.93,1.04-.46,2.6.79,3.73.69,1.52-.13,2.36-1.01,3.86-1.32.79-.16,1.61,1.25,2.25.76,1.69-1.28,4.32-.73,6.35-.11,1.71.52,2.3-1.42,4.04-1.04,1.15.25,1.47,2.39,2.64,2.38,1.7-.01,2.89.09,4.47.73,2.73,1.09,6.76.26,9.49,1.35,1.83.73,3.05,3.89,4.53,5.2,2.13,1.89,4.06,2.5,6.75,3.43,1.1-1.53,1.32-3.64.56-5.36-.76-1.72-2.48-2.98-4.35-3.18"/>
    <path class="cls-19" d="M866.09,228.85c.43-1.72-.31-3.45-1.69-4.5-.6-.46-1.28-.73-2.01-.89-.56-.12-1.06-.14-1.62-.15-.19,0-.37,0-.56-.01.47.28.55.26.22-.07-.42-1.39-1.96-2.63-3.2-3.21-1.88-.88-4.03-1.03-6.05-.52-.3.08-1.6.29-.42.26.43-.01.46.31.12-.09-.51-.58-.99-1.16-1.48-1.77-1.06-1.34-2.42-2.33-4.08-2.8-2.06-.58-4.28-.4-6.26.36-.95.36-1.82.88-2.68,1.42-.32.2-.64.43-.97.62-.55.3-.34.06-.15.04-1.22.1-3.15.85-3.36,2.25s1.69,1.74,2.7,1.66c1.99-.16,3.68-1,5.34-2.06.32-.2.64-.44.98-.62.03-.01.56-.13.25-.08-.27.04-.14-.05.21.03.22.05.51.1.73.19,1.13.46,1.74,1.53,2.48,2.44,1,1.24,2.21,2.16,3.84,2.33.95.1,1.89-.02,2.81-.27-.04.01,1.13-.31.62-.23.88-.14.3-.01.26-.02,1.34.24,1.95,1.26,2.61,2.32.45.72,1.1,1.22,1.91,1.5s1.73.04,2.51.28c.84.25,1.11,1.37.9,2.2-.36,1.41,1.77,1.75,2.7,1.66,1.32-.13,3.01-.84,3.36-2.25h0Z"/>
    <path class="cls-14" d="M866.29,277.48s1.52-47.44-35.82-49.68c0,0-16.79-4.52-33.9,7.43,0,0,5.86-9.67,14.86-13.91,0,0,29.13-9.58,48.01,11.56,18.88,21.14,12.43,45.02,12.43,45.02l-5.58-.42Z"/>
    <g>
      <path class="cls-1" d="M870.18,283.62s-.72-3.29-3.02-4.19c-2.3-.9-7.32-1.21-9.54,2.12,0,0-1.91-2.47.97-5.45,3.31-3.42,8.31-3.65,11.23-1.29,5.08,4.1.35,8.8.35,8.8Z"/>
      <path class="cls-24" d="M870.61,283.5c-.39-1.72-1.44-3.61-3.15-4.27-2.09-.82-4.67-.82-6.79-.13-1.38.45-2.61,1.26-3.44,2.47l.8-.17c-.76-1-.72-2.47-.25-3.57.97-2.23,3.49-3.85,5.84-4.25,2.11-.36,4.34.14,5.99,1.54,1.65,1.4,2.55,3.38,1.93,5.52-.32,1.1-.94,2.18-1.75,3-.21.21.62.14.79-.03.81-.81,1.44-1.89,1.78-2.98.72-2.32-.28-4.49-2.13-5.97-3.77-3.02-9.87-1.54-12.64,2.16-1.02,1.37-1.5,3.41-.38,4.89.13.18.7-.02.8-.17,1.72-2.5,5.05-2.9,7.82-2.22,1.32.32,2.3,1.01,3.01,2.19.41.68.73,1.45.91,2.23.05.24.92.02.86-.23Z"/>
    </g>
    <g>
      <path class="cls-4" d="M856.99,278.85s-4.25,6.42-.71,8.88c2.08,1.45,2.89-.13,3.52,1.03.63,1.15-.02,2.34-.02,2.34,0,0,1.15,1.8,1.98-.59.5-1.43-.49-4.34-2.84-3.82,0,0-2.15,1.08-2.33-1.88-.08-1.31.61-2.77,1.88-4.26,1.27-1.49-1.48-1.7-1.48-1.7Z"/>
      <path class="cls-24" d="M856.59,278.86c-.91,1.39-1.66,3-1.99,4.62-.22,1.07-.27,2.27.26,3.27.59,1.11,1.87,1.88,3.13,1.86.49,0,1.02-.27,1.34.2.46.67.39,1.66.03,2.35-.01.04,0,.07.03.1.64.98,1.91.86,2.49-.12.82-1.37.45-3.49-.94-4.37-.69-.43-1.52-.44-2.27-.18.17-.06-.13.04-.14.04-.19.04-.38.04-.57-.03-.85-.32-.98-1.59-.93-2.35.11-1.44.99-2.61,1.84-3.71.43-.56.52-1.13-.16-1.52-.43-.24-.96-.35-1.45-.39-.18-.01-.49.01-.61.16-.09.11-.14.24.07.26.58.05,1.92.28,1.59,1.13-.17.44-.62.81-.89,1.2-.3.42-.57.86-.78,1.33-.38.81-.56,1.68-.44,2.58.15,1.1.79,1.91,1.96,1.79.31-.03.6-.12.89-.23.08-.03.22-.04.05-.02-.2.02.31.02.41.03.37.05.7.24.97.48,1,.91,1.27,2.59.63,3.77-.06.11-.13.22-.21.31-.06.08-.16.08-.04.08-.08,0-.19-.09-.24-.13-.13-.09-.27-.23-.35-.36-.01-.02-.05-.05-.06-.08.04.18.07-.02.1-.09.16-.28.2-.71.21-1.03.01-.59-.18-1.48-.83-1.69-.46-.15-.94.05-1.4.04-1.55-.03-2.75-1.44-2.93-2.89-.28-2.19.87-4.64,2.05-6.44.2-.3-.65-.2-.79.01Z"/>
    </g>
    <g>
      <path class="cls-10" d="M857.67,288.6s2.34-6,6.16-5.49c1.56.21,2.16,3.27-.28,6.93-1.29,1.94-4.14,1.78-4.14,1.78,0,0,1.87-3.03-.55-3.48-.87-.16-1.19.26-1.19.26Z"/>
      <path class="cls-24" d="M858.1,288.54c.26-.67.61-1.32.99-1.94.7-1.14,1.58-2.31,2.79-2.94.53-.27,1.22-.46,1.81-.3.53.14.82.69.95,1.18.51,1.87-.48,4.11-1.56,5.58-.78,1.07-2.22,1.52-3.5,1.45l.23.25c.44-.73.87-1.73.68-2.59-.29-1.26-2.44-1.62-3.22-.65-.13.16.11.24.23.25.2,0,.44-.08.57-.23-.05.06,0-.01.04-.03.1-.04.2-.04.3-.03.3.02.64.12.87.32.35.29.42.76.38,1.19-.07.61-.32,1.24-.64,1.76-.11.17.09.24.23.25,1.3.07,2.76-.31,3.81-1.09.97-.72,1.56-1.91,2-3,.39-.96.64-2.01.55-3.05-.06-.66-.28-1.37-.84-1.77s-1.43-.36-2.1-.22c-1.62.33-2.89,1.53-3.83,2.83-.64.89-1.2,1.87-1.6,2.89-.11.27.75.17.86-.11Z"/>
    </g>
    <path class="cls-40" d="M887.49,417.81l-21.57-.12-13.59-34.65-14.98-45.65c-7.08.78-9.85,1.59-16.94.7.86,20.52,3.71,81.5,7.77,94.05,8.66,26.79,29.66,33.57,44.58,23.99,12.2-7.83,14.73-38.32,14.73-38.32Z"/>
    <path class="cls-13" d="M867.27,431.25c.71-3.26.91-6.64.39-9.95-.2-1.28-.47-2.62-1.01-3.81-.25-.56-1.7-.12-1.47.39.51,1.14.78,2.43.98,3.66.54,3.28.33,6.62-.37,9.86-.14.62,1.35.4,1.48-.16h0Z"/>
    <path class="cls-40" d="M817.02,311.54c-.84,3.14,2.96,11.61,2.96,11.61,0,0-6.01,19.79-5.72,24.08.24,3.65,4.75,5.14,5.59,8.17,2.56,9.23,2.47,18.38,2.47,18.38l20.59-9.8-3.3-10.72,5.75-20.31,3.09-19.83-10.7-14.82c-.12.03-.25.07-.36.12-1.06.47-1.45,1.64-.87,2.61l-4.29-5.22c-4.35,1.6-.57,9.59-.57,9.59l-5-7.14c-3.93,2.1-1.29,7.79-1.29,7.79l4.4,10.22s-1.01,6.17-1.98,8.07c-.98,1.9-1.8,3.96-1.8,3.96l-.04-7.09-6.11-13.7s-1.96.9-2.8,4.03Z"/>
    <path class="cls-13" d="M814.96,343.11c-.03-2.52.79-5.15,1.43-7.56.78-2.96,1.66-5.9,2.58-8.82.3-.95.6-1.89.91-2.84.09-.28.28-.63.27-.92-.04-.69-.72-1.71-.97-2.35-.56-1.46-1.08-2.94-1.49-4.45s-.85-3.19-.49-4.72c.33-1.41,1.25-3.22,2.64-3.88l-.66.02c1.24,2.77,2.47,5.54,3.71,8.31.69,1.54,1.38,3.09,2.07,4.63.38.86.34,1.44.35,2.42.01,1.81.02,3.62.03,5.43,0,.24.76-.01.83-.17.58-1.43,1.3-2.79,1.92-4.2.55-1.24.83-2.61,1.12-3.93.25-1.15.5-2.31.68-3.47.06-.44.05-.51-.12-.92-1.37-3.3-2.87-6.55-4.24-9.85-1.01-2.45-1.54-5.94,1.16-7.5l-.64.06c1.67,2.38,3.33,4.76,5,7.14.12.17.9-.07.8-.26-1.12-2.38-3.09-7.96.31-9.35l-.54.02,4.29,5.22c.13.16.9-.07.8-.26-.49-1.02-.24-2.07.97-2.49l-.54.02c3.23,4.47,6.45,8.94,9.68,13.41.27.37.89,1.06,1,1.38.33.94-.14,2.32-.29,3.27-.43,2.79-.87,5.59-1.31,8.38-.42,2.72-.85,5.43-1.27,8.15-.04.26.79.11.83-.13.84-5.42,1.69-10.83,2.53-16.25.17-1.07.51-2.25.38-3.33-.05-.45-.27-.66-.55-1.04-1.82-2.52-3.64-5.04-5.46-7.56-1.59-2.2-3.18-4.4-4.77-6.6-.09-.13-.44-.01-.54.02-1.33.46-2.17,1.59-1.5,2.98l.8-.26-4.29-5.22c-.1-.12-.44-.02-.54.02-3.88,1.58-2.17,6.99-.84,9.83l.8-.26c-1.67-2.38-3.33-4.76-5-7.14-.1-.15-.54,0-.64.06-3.81,2.21-2.04,6.64-.68,9.8.97,2.25,1.94,4.51,2.91,6.76.21.48.63,1.11.7,1.63.08.58-.32,1.8-.45,2.46-.32,1.59-.64,3.2-1.18,4.73-.58,1.64-1.49,3.17-2.15,4.79l.83-.17c0-1.55-.02-3.09-.03-4.64,0-.93.16-1.96-.18-2.82-1.33-3.36-2.96-6.64-4.43-9.94-.5-1.13-1.01-2.26-1.51-3.39-.09-.21-.53-.04-.66.02-2.15,1.03-3.26,3.86-3.05,6.1.28,3.04,1.5,6.07,2.67,8.86.22.52.37.68.28,1.11-.14.77-.51,1.56-.75,2.3-.94,2.93-1.83,5.87-2.64,8.83-.76,2.78-1.76,5.82-1.72,8.74,0,.2.83.06.83-.22h0Z"/>
    <path class="cls-13" d="M836.39,324.05c.46-2.09,1.04-4.96,1.62-8.15l.16-.88.03-.13-.08-.13c-1.7-2.72-3.26-5.14-4.42-6.84s-1.91-2.75-2.01-2.69c.37,1.02.87,2.01,1.49,2.94.98,1.77,2.48,4.24,4.17,6.96l-.05-.27c-.02.29-.09.58-.16.87-.58,3.2-1.07,6.1-1.37,8.21s-.42,3.42-.3,3.45c.12.02.47-1.24.93-3.33Z"/>
    <path class="cls-13" d="M842.97,319.46c.43-1.9.98-4.57,1.55-7.56l.04-.15-.1-.13-.59-.84c-2.01-2.82-3.86-5.36-5.25-7.18-1.38-1.82-2.29-2.91-2.39-2.85s.61,1.26,1.86,3.15c1.25,1.89,3.05,4.45,5.03,7.29l.6.84-.07-.29c-.55,3.04-.99,5.69-1.26,7.63-.23,1.03-.33,2.09-.28,3.15.12.02.43-1.15.87-3.05Z"/>
    <path class="cls-37" d="M558.65,464.58c20.03-1.8,42.02.32,58.06,13.64,4.23,3.51,7.84,7.7,10.78,12.34,2.99,4.7,4.86,9.63,4.66,15.25-.18,5.02-.88,10.12-1.53,15.1-2.49,19.04-7.71,37.65-11.26,56.5-5.93,31.43-11.77,62.88-17.22,94.4-5.23,30.27-10.09,60.61-14.22,91.05-.5,3.69-.99,7.39-1.47,11.09-.18,1.41,2.62,1.06,2.79-.2,4.01-30.92,8.81-61.73,14.03-92.46,5.42-31.92,11.3-63.75,17.27-95.57,3.86-20.54,9.08-40.86,12.35-61.5.74-4.7,1.17-9.44,1.69-14.17.54-4.98.59-9.85-1.34-14.57-2.49-6.07-6.74-11.65-11.45-16.18-13.83-13.3-33.45-17.51-52.1-17.31-3.61.04-7.21.25-10.8.57-1.55.14-2.11,2.21-.23,2.04h0Z"/>
    <path class="cls-37" d="M525.84,574.62c4.24-11.45,11.12-21.79,20.06-30.11.46-.42-.41-.46-.65-.44-.59.03-1.39.24-1.84.65-9.02,8.39-16,18.83-20.28,30.39-.18.48,2.45.22,2.71-.49h0Z"/>
    <path class="cls-23" d="M599.14,319.72c-3.16,15.79-9.47,30.76-14.03,46.16-1.21,4.1-2.31,8.24-3.15,12.43-.08.42.53.51.8.47,3.96-.55,7.89-1.38,11.77-2.31,7.24-1.74,14.53-3.97,21.07-7.59,5.55-3.07,11.2-6.19,16.39-9.85.87-.62,2.28-1.37,2.5-2.49.03-.18-.18-.12-.2-.25.08.4.12.15.12-.04,0-.99-.58-2.23-.82-3.19-.54-2.09-1.08-4.19-1.63-6.28-.15-.56-1.17-.31-1.48-.08-2.5,1.86-5.19,3.5-7.89,5.06-6.56,3.81-13.49,7.04-20.65,9.55-5.18,1.81-10.49,3.25-15.9,4.2-.32.06-.99.23-1.01.66s.47.53.8.47c15.25-2.69,30.02-8.85,42.96-17.34.96-.63,1.92-1.27,2.84-1.95l-1.48-.08c.43,1.66.86,3.32,1.29,4.99.41,1.6.7,3.34,1.3,4.88.13.33-.04-.18-.06-.23-.02-.04,0-.02.03-.05-.59.41-.84.78-1.43,1.21-4.3,3.14-9.05,5.74-13.66,8.37-3.48,1.98-6.97,3.78-10.72,5.2-3.41,1.29-6.9,2.33-10.42,3.24-4.44,1.15-8.95,2.14-13.5,2.77l.8.47c3.16-15.79,9.47-30.76,14.03-46.16,1.21-4.1,2.31-8.24,3.15-12.43.15-.77-1.68-.5-1.81.19h0Z"/>
    <path class="cls-23" d="M480.73,187.76c.13,4.11.95,8.26,1.99,12.22,2.23,8.51,6.14,16.72,12.03,23.32,8,8.96,19.16,13.9,30.99,15.26,7.3.84,15.19.81,22.26-1.39,4.43-1.38,8.71-3.84,11.13-7.94,2.62-4.44,2.8-10.79.8-15.56-.04-.1-.07-.2-.12-.31-.3-.72-2.08-.19-1.8.48,1.6,3.9,1.91,8.72.58,12.71-3.74,11.21-19.13,11.73-28.77,11.13-11.89-.74-23.42-4.94-31.88-13.53-6.18-6.27-10.35-14.24-12.84-22.63-1.35-4.54-2.13-9.15-2.54-13.86-.02-.22,0-.1,0-.09-.03-.85-1.84-.51-1.82.18h0Z"/>
    <path class="cls-40" d="M767.3,341.6l-27.26,43.71c-6.42,7.79-10.81,18-12.81,23.03-2.08,5.23-5.82,15.99-3.87,20.79,4.71,11.59,18.19,12.95,27.38,6.44,8.94-6.33,13.94-22.71,16.8-32.91,0,0,15.33-54.62,15.33-54.62-5.41-2.55-9.75-4.91-15.57-6.44Z"/>
    <path class="cls-40" d="M797.55,311.67c-.23,3.36-6.16,10.48-6.16,10.48,0,0,.71,16.56-2.45,25.53-.36,1.03-5.73,3.55-7.39,6.26-5.08,8.27-7.83,17.3-7.83,17.3l-14.91-14.48,6.19-11.22,1.26-21.83,3.43-20.51,13.9-11.18c.1.07.19.15.28.24.77.8.75,2.07-.05,2.85l5.35-3.77c3.3,2.96-2.46,9.62-2.46,9.62l6.56-5.44c2.78,3.32-1.28,8.08-1.28,8.08l-6.99,8.66s-1.03,6.39-.76,8.57c.26,2.18.35,4.47.35,4.47l2.22-6.97,9.56-11.54s1.43,1.51,1.2,4.86Z"/>
    <path class="cls-13" d="M783.43,292.22c.95.82,1.08,2,.24,2.96-.21.24.56.09.65.02,1.78-1.26,3.57-2.51,5.35-3.77l-.66.1c2.71,2.62-.59,7.32-2.45,9.5-.2.24.55.11.65.02,2.19-1.81,4.37-3.63,6.56-5.44l-.66.1c1.95,2.52.46,5.76-1.28,7.96-1.41,1.78-2.85,3.54-4.28,5.3-.4.49-.79.99-1.21,1.45-.52.57-1.46,1.27-1.73,1.99-.31.82-.19,2.11-.27,2.98-.12,1.39-.25,2.78-.37,4.17-.17,1.96.07,3.89.23,5.85.02.22.71,0,.76-.16.47-1.47.94-2.95,1.41-4.42.24-.75.42-1.57.73-2.29.18-.42.56-.76.92-1.16,2.09-2.29,4.03-4.68,6-7.06.96-1.16,1.93-2.33,2.89-3.49l-.71.15c.88.96,1.14,2.52,1.19,3.76.07,1.83-.66,3.38-1.55,4.95-1.31,2.3-2.91,4.48-4.6,6.52-.18.22.57.14.7-.02,1.78-2.14,3.45-4.43,4.8-6.86,1.38-2.49,2.37-6.21.18-8.61-.14-.15-.6.02-.71.15-2.1,2.54-4.2,5.08-6.31,7.62-.71.85-1.43,1.67-2.18,2.49-.41.45-1.01.92-1.31,1.45-.27.47-.37,1.15-.53,1.66-.56,1.77-1.13,3.53-1.69,5.3l.76-.16c-.14-1.78-.43-3.59-.27-5.33.12-1.37.24-2.74.37-4.12.09-1.05.02-2.3.3-3.33.19-.69,1.15-1.45,1.69-2.04.45-.49.86-1.01,1.27-1.53,1.41-1.74,2.83-3.48,4.22-5.23,1.81-2.29,3.31-5.59,1.29-8.2-.12-.15-.55.02-.66.1-2.19,1.81-4.37,3.63-6.56,5.44l.65.02c1.94-2.26,5.27-7.04,2.47-9.75-.15-.14-.53.01-.66.1-1.78,1.26-3.57,2.51-5.35,3.77l.65.02c.9-1.02.81-2.32-.22-3.21-.18-.15-.88.14-.72.28h0Z"/>
    <path class="cls-13" d="M776.81,317.82c.24-2.2.62-5.22,1.11-8.54l.13-.92v-.14s.13-.1.13-.1c2.32-2.14,4.43-4.03,5.96-5.33,1.54-1.3,2.51-2.09,2.59-2.01-.64.89-1.38,1.7-2.2,2.42-1.4,1.43-3.47,3.38-5.78,5.53l.13-.25c-.07.29-.1.6-.13.91-.48,3.33-.95,6.34-1.34,8.51-.39,2.17-.69,3.5-.8,3.49-.11-.02-.02-1.37.22-3.57Z"/>
    <path class="cls-13" d="M772.5,311.2c.21-2.01.56-4.81.99-7.93v-.16s.14-.1.14-.1l.77-.64c2.62-2.14,5.02-4.05,6.79-5.4,1.76-1.35,2.89-2.13,2.97-2.05s-.92,1.04-2.59,2.51c-1.67,1.46-4.03,3.4-6.63,5.58l-.78.64.15-.27c-.46,3.17-.9,5.91-1.26,7.91-.12,1.09-.36,2.16-.73,3.19-.11-.02-.02-1.27.19-3.28Z"/>
    <path class="cls-18" d="M805.85,297.38c3.78.57,11.79,4.01,13.26,5.65,0,0-4.97,4.05-13.73,2.72-8.76-1.33-9.56-6.25-9.56-6.25,0,0,5.22-2.84,10.03-2.11Z"/>
    <path class="cls-38" d="M815.77,300.95s-4.45-1.02-8.03-1.57-8.13-.89-8.13-.89c0,0-.19-2.61,6.31-1.62,6.5.99,9.86,4.08,9.86,4.08Z"/>
    <path class="cls-21" d="M805.46,305.25c4.19.07,8.9-3.23,13.64-2.23,0,0-2.43,7.48-12.73,5.92-10.3-1.56-10.56-9.45-10.56-9.45,4.83.45,5.63,4.59,9.65,5.76Z"/>
    <path class="cls-21" d="M801.66,294.77c2.19.18,3.44,1.16,4.38,1.3s2.43-.42,4.57.06c2.01.45,9.87,6.42,8.82,6.88-1.05.46-6.12-3.38-12.63-4.36-6.51-.99-10.43,1.48-11.3.73s4.1-4.77,6.15-4.61Z"/>
    <path class="cls-13" d="M722.72,428.44c-.17-3.3.23-6.63.77-9.88.53-3.17,1.21-6.39,2.37-9.4.98-2.53,2.65-4.81,4.08-7.11,1.93-3.09,3.88-6.17,5.84-9.24,1.98-3.1,3.97-6.19,6.01-9.25.22-.33-.74-.26-.83-.24-.41.06-.94.22-1.18.58-3.86,5.81-7.6,11.71-11.3,17.62-1.48,2.36-3.24,4.73-4.35,7.29-1.26,2.91-1.94,6.1-2.5,9.21-.65,3.59-1.14,7.31-.95,10.97.02.41,2.06.06,2.03-.54h0Z"/>
  </g>
</svg>