<?xml version="1.0" encoding="UTF-8"?>
<svg xmlns="http://www.w3.org/2000/svg" xmlns:xlink="http://www.w3.org/1999/xlink" viewBox="0 0 1334 1000">
  <defs>
    <style>
      .cls-1 {
        fill: #bd3826;
      }

      .cls-1, .cls-2, .cls-3, .cls-4, .cls-5, .cls-6, .cls-7, .cls-8, .cls-9, .cls-10, .cls-11, .cls-12, .cls-13, .cls-14, .cls-15, .cls-16, .cls-17, .cls-18, .cls-19, .cls-20, .cls-21, .cls-22, .cls-23, .cls-24, .cls-25, .cls-26, .cls-27, .cls-28, .cls-29, .cls-30, .cls-31, .cls-32, .cls-33, .cls-34, .cls-35, .cls-36, .cls-37, .cls-38, .cls-39, .cls-40, .cls-41, .cls-42, .cls-43, .cls-44, .cls-45, .cls-46, .cls-47 {
        stroke-width: 0px;
      }

      .cls-2 {
        fill: #d67d28;
      }

      .cls-3 {
        fill: #010101;
      }

      .cls-4 {
        fill: #aa6333;
      }

      .cls-5 {
        fill: #67876f;
      }

      .cls-6 {
        fill: #c7cd8d;
      }

      .cls-48 {
        clip-path: url(#clippath);
      }

      .cls-7, .cls-49, .cls-50 {
        fill: none;
      }

      .cls-8 {
        fill: #a7bcac;
      }

      .cls-9 {
        fill: #d8aa29;
      }

      .cls-10 {
        fill: #c95744;
      }

      .cls-11 {
        fill: #4454a5;
      }

      .cls-12 {
        fill: #f2ebd1;
      }

      .cls-13 {
        fill: #f26a51;
      }

      .cls-49 {
        stroke-linecap: round;
      }

      .cls-49, .cls-50 {
        stroke: #4f2e25;
        stroke-miterlimit: 10;
        stroke-width: 1.12px;
      }

      .cls-14 {
        fill: #ce8d2a;
      }

      .cls-15 {
        fill: #4f2e25;
      }

      .cls-16 {
        fill: #5e3527;
      }

      .cls-51 {
        clip-path: url(#clippath-1);
      }

      .cls-52 {
        clip-path: url(#clippath-2);
      }

      .cls-17 {
        fill: #9b5524;
      }

      .cls-18 {
        fill: #151210;
      }

      .cls-19 {
        fill: #000;
      }

      .cls-20 {
        fill: #653c29;
      }

      .cls-21 {
        fill: #1d170f;
      }

      .cls-22 {
        fill: #31160e;
      }

      .cls-23 {
        fill: #231f20;
      }

      .cls-24 {
        fill: #13110f;
      }

      .cls-25 {
        fill: #a67351;
      }

      .cls-26 {
        fill: #0a2f44;
      }

      .cls-27 {
        fill: #6c256d;
      }

      .cls-28 {
        fill: #661d0d;
      }

      .cls-29 {
        fill: #24180f;
      }

      .cls-30 {
        fill: #e79731;
      }

      .cls-31 {
        fill: #b3b2ab;
      }

      .cls-32 {
        fill: #111424;
      }

      .cls-33 {
        fill: #719991;
      }

      .cls-34 {
        fill: #709199;
      }

      .cls-35 {
        fill: #2d4a4f;
      }

      .cls-36 {
        fill: #b7ac8a;
      }

      .cls-37 {
        fill: #b12024;
      }

      .cls-38 {
        fill: #fff;
      }

      .cls-39 {
        fill: #a66e53;
      }

      .cls-40 {
        fill: #1d3942;
      }

      .cls-41 {
        fill: #df8c26;
      }

      .cls-42 {
        fill: #b15e27;
      }

      .cls-43 {
        fill: #721117;
      }

      .cls-44 {
        fill: #db5434;
      }

      .cls-45 {
        fill: #ecbf2c;
      }

      .cls-46 {
        fill: #f1eef7;
      }

      .cls-47 {
        fill: #070808;
      }
    </style>
    <clipPath id="clippath">
      <path class="cls-7" d="M1000.85,326.16c6.71,43.48,8.95,87.23,6.69,130.61-17.95,1.6-36.2,1.68-54.38.24-11.73-44.29-14.96-89.72-9.54-134.05"/>
    </clipPath>
    <clipPath id="clippath-1">
      <path class="cls-7" d="M1103.81,218.98s-63.82,146.04-145.76,134.65c-81.93-11.39-82.46-31.92-82.46-31.92,0,0-5.66-27.7,5.07-40.89,0,0,53.06,31.9,96.93,16.78,43.87-15.12,88.74-82.72,88.16-112.47-.59-29.75,51.52,17.65,38.05,33.86Z"/>
    </clipPath>
    <clipPath id="clippath-2">
      <path class="cls-7" d="M917.14,289.79c-9.3,5.67-15.01,16.27-18.98,26.92-20.22,54.26-5.61,116.83-20.01,173.18,13.53,5.78,44.26,13.36,58.52,10.19,5.66-1.26-.8-2.58,2.68-7.53,4.04-5.76.54-20.67.35-27.87-1.59-60.63,13.1-118.97,40.36-172.12-3.36-2-8.31-4.77-12.15-4.81-17.15-.15-34.29-.3-51.44-.45"/>
    </clipPath>
  </defs>
  <g id="Layer_1" data-name="Layer 1">
    <polyline class="cls-12" points="1378.51 1047.91 1378.51 -78.93 -59.33 -78.93 -59.33 1047.91"/>
    <g id="freepik--Nightstand--inject-2">
      <rect class="cls-16" x="113.7" y="276.62" width="622.9" height="465.58"/>
    </g>
    <path class="cls-19" d="M141.19,668.9c5.07,0,10.14,0,15.21,0,13.67,0,27.34,0,41.01,0,20.27,0,40.54,0,60.81,0,24.73,0,49.46,0,74.18,0,26.99,0,53.98,0,80.97,0,27.43,0,54.86,0,82.29,0,25.4,0,50.8,0,76.2,0,21.54,0,43.08,0,64.63,0h46.46c7.32,0,14.64.05,21.96,0,.32,0,.64,0,.96,0,.63,0,1.87-.29,1.87-1.1,0-6.49,0-12.98,0-19.46,0-15.48,0-30.97,0-46.45,0-18.82,0-37.64,0-56.46,0-16.2,0-32.39,0-48.59,0-5.35,0-10.7,0-16.05v-5.06c0-.71.25-1.98,0-2.65-.03-.09,0-.24,0-.33,0-.32-.62-.38-.81-.38-5.07,0-10.14,0-15.21,0h-41.01c-20.27,0-40.54,0-60.81,0h-74.18c-26.99,0-53.98,0-80.97,0-27.43,0-54.86,0-82.29,0h-76.2c-21.54,0-43.08,0-64.63,0-15.49,0-30.98,0-46.46,0-7.32,0-14.64-.05-21.96,0-.32,0-.64,0-.96,0-.63,0-1.87.29-1.87,1.1,0,6.49,0,12.98,0,19.46,0,15.48,0,30.97,0,46.45,0,18.82,0,37.64,0,56.46,0,16.2,0,32.39,0,48.59v16.05c0,1.69,0,3.37,0,5.06,0,.71-.25,1.98,0,2.65.03.09,0,.24,0,.33,0,.78,2.69.3,2.69-.72,0-6.49,0-12.98,0-19.46,0-15.48,0-30.97,0-46.45,0-18.82,0-37.64,0-56.46,0-16.2,0-32.39,0-48.59,0-5.35,0-10.7,0-16.05v-5.06c0-.72.25-1.97,0-2.65-.03-.09,0-.24,0-.33l-1.87,1.1c5.07,0,10.14,0,15.21,0h41.01c20.27,0,40.54,0,60.81,0h74.18c26.99,0,53.98,0,80.97,0,27.43,0,54.86,0,82.29,0h76.2c21.54,0,43.08,0,64.63,0,15.49,0,30.98,0,46.46,0,7.23,0,14.75.6,21.96,0,.32-.03.64,0,.96,0l-.81-.38c0,6.49,0,12.98,0,19.46,0,15.48,0,30.97,0,46.45,0,18.82,0,37.64,0,56.46,0,16.2,0,32.39,0,48.59v16.05c0,1.69,0,3.37,0,5.06,0,.72-.25,1.97,0,2.65.03.09,0,.24,0,.33l1.87-1.1c-5.07,0-10.14,0-15.21,0h-41.01c-20.27,0-40.54,0-60.81,0-24.73,0-49.46,0-74.18,0-26.99,0-53.98,0-80.97,0-27.43,0-54.86,0-82.29,0h-76.2c-21.54,0-43.08,0-64.63,0h-46.46c-7.32,0-14.64-.05-21.96,0-.32,0-.64,0-.96,0-.98,0-2.86,1.48-1.06,1.48Z"/>
    <path class="cls-19" d="M141.19,450.39c5.07,0,10.14,0,15.21,0,13.67,0,27.34,0,41.01,0,20.27,0,40.54,0,60.81,0,24.73,0,49.46,0,74.18,0,26.99,0,53.98,0,80.97,0h82.29c25.4,0,50.8,0,76.2,0,21.54,0,43.08,0,64.63,0h46.46c7.32,0,14.64.05,21.96,0,.32,0,.64,0,.96,0,.63,0,1.87-.29,1.87-1.1,0-16.38,0-32.77,0-49.15,0-26.11,0-52.22,0-78.33,0-5.99,0-11.98,0-17.97,0-.32-.62-.38-.82-.38-5.07,0-10.14,0-15.21,0-13.67,0-27.34,0-41.01,0-20.27,0-40.54,0-60.81,0-24.73,0-49.46,0-74.18,0-26.99,0-53.98,0-80.97,0-27.43,0-54.86,0-82.29,0-25.4,0-50.8,0-76.2,0-21.54,0-43.08,0-64.63,0-15.49,0-30.98,0-46.46,0-7.32,0-14.64-.05-21.96,0-.32,0-.64,0-.96,0-.63,0-1.87.29-1.87,1.1,0,16.38,0,32.77,0,49.15,0,26.11,0,52.22,0,78.33,0,5.99,0,11.98,0,17.97,0,.79,2.69.3,2.69-.72,0-16.38,0-32.77,0-49.15,0-26.11,0-52.22,0-78.33,0-5.99,0-11.98,0-17.97l-1.87,1.1c5.07,0,10.14,0,15.21,0,13.67,0,27.34,0,41.01,0,20.27,0,40.54,0,60.81,0,24.73,0,49.46,0,74.18,0,26.99,0,53.98,0,80.97,0,27.43,0,54.86,0,82.29,0,25.4,0,50.8,0,76.2,0,21.54,0,43.08,0,64.63,0,15.49,0,30.98,0,46.46,0,7.23,0,14.75.6,21.96,0,.32-.03.64,0,.96,0l-.82-.38c0,16.38,0,32.77,0,49.15v78.33c0,5.99,0,11.98,0,17.97l1.87-1.1c-5.07,0-10.14,0-15.21,0-13.67,0-27.34,0-41.01,0-20.27,0-40.54,0-60.81,0-24.73,0-49.46,0-74.18,0-26.99,0-53.98,0-80.97,0h-82.29c-25.4,0-50.8,0-76.2,0-21.54,0-43.08,0-64.63,0h-46.46c-7.32,0-14.64-.05-21.96,0-.32,0-.64,0-.96,0-.98,0-2.86,1.48-1.06,1.48Z"/>
    <rect class="cls-16" x="113.7" y="742.2" width="85.55" height="37.27"/>
    <ellipse class="cls-31" cx="440.08" cy="363.98" rx="23.8" ry="15.89"/>
    <ellipse class="cls-31" cx="440.65" cy="578.37" rx="23.8" ry="15.89"/>
  </g>
  <g id="Layer_5" data-name="Layer 5">
    <path class="cls-39" d="M496.25,421.78c-22.56-5.56-68.67-16.71-78.26-21.86,0,0-20.1-12.66-81.1-1.93l58.49,59.49c23.81,9.14,71.28,19.65,99.4,9.42,19.19-23.39.74-27.95,1.47-45.13Z"/>
    <path class="cls-39" d="M979.01,357.23c11.31-33.45-13.84-38.52-39.69-39.61-13.09-.55-22.56,8.61-22.56,8.61-31.08,38.08-89.3,153.75-100.17,176.58,3.59,2.97,9.2,2.76,12.07,6.42,10.03,12.82,1.17,19.06,3.51,35.1,1.16,7.96,7.22,14.16,24.14,12.43,20.57-9.37,28.35-27.94,40.42-45.95,18.15-27.1,33.24-55.95,48.69-84.61,11.98-22.22,25.48-44.96,33.6-68.98Z"/>
    <path class="cls-39" d="M841.82,562.82c17.79,4.36,36.17-.62,48.11-15,.61-2.14,1.15-4.3,1.6-6.47,2.11-10.13,6.78-17.39,4.22-27.55-1.79.98-6.86-2.22-6.86-2.22l-145.14-87.4s-24.75,15.15-24.75,15.15c.34-.22,28.99,35.73,31.74,39.01,10.66,12.69,21.59,25.15,32.99,37.18,9.57,10.1,19.46,19.9,29.75,29.27,3.79,3.46,7.37,7.44,11.39,10.58,3.84,2.99,8.86,5.03,13.47,6.49,1.15.36,2.31.69,3.47.97Z"/>
    <polyline class="cls-33" points="-70.49 1057.39 1383.98 1057.39 1383.98 779.47 -70.49 779.47"/>
    <path class="cls-26" d="M379.49,594.25l-1.32-5.98c-20.75,3.67-35.05-15.37-56-13.03-15.95,1.78-31.81,3.95-47.89,4.14-7.72.09-15.31-.2-22.87-1.85-4.72-1.03,8.31-2.39,3.61-3.53l-15.82,19.26-13.55,10.18c-2.4,9.58-13.42,39.51-13.99,49.33-6.51,111.17,119.92,104.93,119.92,104.93,0,0,22.22-62.49,25.27-70.02l6.92-14.57c3.31-.17,11.41-22.56,19.79-32.84,17.92-22.01-.48-27.97-.48-27.97l-3.58-18.04Z"/>
    <path class="cls-39" d="M197.38,828.44c-1.93-5.11-7.51-10.54-11.47-13.05-3.96-2.51-8.77-.18-10.06.41-9.58,4.44-14.54,13.12-22.09,20.59-5.78,5.73-12.21,10.67-19.09,14.7-6.99,4.09-14.6,6.17-21.69,9.87-.05.03-.1.05-.15.08-3.51,1.83-6.33,4.96-7.98,8.82-.6,1.41-1.22,2.8-1.89,4.11-.93,1.82-1.95,3.17-.97,5.31,1.8,3.95,7.83,1.5,9.6.67.33-.15.68-.21,1.04-.17,1.42.14,5.6.3,12.66-1.38.68-.16,1.35-.27,2.01-.35.02.04.03.09.04.13,3.75-.65,20.27-1.26,23.31-1.58,5.98-.64,24.61-7.33,24.61-7.33,0,0,26.1-1.96,34.06,3.4l7.73-33.64s-17.75-5.49-19.68-10.6Z"/>
    <g>
      <path class="cls-47" d="M346.1,840.63c0,.22-25.11-1.69-56.04-4.28-30.93-2.58-46.01,9.14-45.98,8.92s15.1-12.31,46.04-9.72c30.94,2.58,55.99,4.79,55.98,5.08Z"/>
      <path class="cls-23" d="M343.98,840.72c-.74,1.13,4.36-1.36,2.74-1.16.8-.1-.06,0-.33-.02-.82-.04-1.64-.09-2.47-.15-2.87-.19-5.74-.4-8.61-.61-9.35-.7-18.69-1.44-28.04-2.2-11.08-.9-22.21-2.32-33.34-1.32-7.5.67-14.97,2.2-22,4.95-2.33.91-4.62,1.95-6.81,3.17-.7.39-1.4.81-2.08,1.24-.16.1-.32.2-.48.3-.05.03-.1.06-.15.1.42-.29.77-.47,1.44-.63l1.71-.18h0c.28.15.57.3.85.45.13.46-.74.93-.03.4.41-.3.83-.59,1.25-.87.12-.08.25-.16.37-.24.34-.22-.32.19-.08.05.09-.05.18-.11.27-.16.36-.21.73-.43,1.1-.63.93-.51,1.88-.99,2.84-1.44.15-.07.3-.14.44-.2-.08.04-.38.17.02,0,.26-.11.51-.22.77-.33.69-.29,1.38-.57,2.08-.83,1.57-.59,2.46-.88,3.99-1.32,3.66-1.06,7.3-1.76,11.09-2.22,10.52-1.27,21.05.02,31.55.91,9.56.81,19.12,1.63,28.67,2.5,3.29.3,6.59.6,9.88.94.93.1,1.87.19,2.8.31.26.03.52.08.78.11.32.03.1.11-.12-.03.23.15-.29-.24-.32-.32.51,1.31,5.09-.11,4.65-1.25-.31-.8-2.82-.75-3.49-.82-2.73-.3-5.46-.55-8.2-.8-9.65-.9-19.3-1.72-28.96-2.54-11.53-.98-23.1-2.43-34.67-1.25-7.59.77-15.19,2.49-22.2,5.56-2.36,1.03-4.65,2.19-6.81,3.59-.46.29-2.55,1.42-2.34,2.16.1.34.58.4.85.45,1.21.23,2.5-.38,3.5-1.01.14-.08.27-.17.4-.26.09-.06.18-.11.26-.16.05-.03-.44.26.03-.02.63-.37,1.27-.73,1.92-1.08.42-.22.84-.44,1.27-.65.2-.1.4-.19.6-.29.15-.07,1.05-.48.61-.28,2.73-1.21,5.22-2.08,7.82-2.82,3.75-1.05,7.48-1.74,11.38-2.2,11.07-1.28,22.18.17,33.23,1.07,9.67.79,19.33,1.56,29.01,2.28,3.11.23,6.22.46,9.34.65.73.04,1.45.09,2.18.11,1.29.04,3.31,0,4.08-1.17.55-.84-.49-1.02-1.16-1-.88.03-2.55.35-3.09,1.17Z"/>
    </g>
    <path class="cls-39" d="M201.98,833.44l-28.2,35.52s149.53,23.44,194.12,7.89c59.1-20.61-10.02-208.06-10.02-208.06l-114.22-30.11s-8.45,37.24,1.21,63.26c9.65,26.02,50.31,122.51,50.31,122.51l-93.2,8.99Z"/>
    <path class="cls-39" d="M243.5,799.11c-1.93-5.11-7.51-10.54-11.47-13.05-3.96-2.51-8.77-.18-10.06.41-9.58,4.44-14.54,13.12-22.09,20.59-5.78,5.73-12.21,10.67-19.09,14.7-6.99,4.09-14.6,6.17-21.69,9.87-.05.03-.1.05-.15.08-3.51,1.83-6.33,4.96-7.98,8.82-.6,1.41-1.22,2.8-1.89,4.11-.93,1.82-1.95,3.17-.97,5.31,1.8,3.95,7.83,1.5,9.6.67.33-.15.68-.21,1.04-.17,1.42.14,5.6.3,12.66-1.38.68-.16,1.35-.27,2.01-.35.02.04.03.09.04.13,3.75-.65,20.27-1.26,23.31-1.58,5.98-.64,24.61-7.33,24.61-7.33,0,0,24.39-3.7,32.35,1.66l9.44-36.51s-17.75-.88-19.68-5.99Z"/>
    <path class="cls-39" d="M244.7,804.85l-4.88,40.92s118.84,20.72,161.97.98c61.51-28.14-6.21-213.67-6.21-213.67l-104.22-30.11s-8.45,37.24,1.21,63.26c9.65,26.02,50.08,116.7,50.08,116.7l-97.96,21.92Z"/>
    <path class="cls-15" d="M278.34,788.82c4.23,11.66,8.38,23.69,10.41,35.97.1.58.19,1.17.25,1.75l1.99-.74c-4.51-.88-9.11-1.39-13.69-1.74-9.12-.71-18.33-.57-27.33,1.2-9.55,1.88-18.78,4.91-28.19,7.34-3.78.98-7.64,1.89-11.55,2.13-.98.06-1.99.18-2.94-.09-1.07-.3-2.11-.68-3.12-1.15-1.57-.74-3.08-1.71-4.25-3.01-1.44-1.6-1.97-3.8-3.12-5.6-2.48-3.9-5.98-7.36-9.86-9.87-.55-.35-2.43.53-2.06.77,3.61,2.33,6.88,5.49,9.3,9.03,1.13,1.65,1.7,3.55,2.75,5.21.83,1.32,2.01,2.37,3.31,3.2,1.7,1.09,3.8,2.09,5.81,2.45,1.33.24,2.84.06,4.17-.06,1.85-.16,3.69-.45,5.52-.81,9.11-1.79,17.92-4.87,26.92-7.1,5.01-1.24,10.07-2.3,15.21-2.75,4.7-.4,9.43-.42,14.13-.19,5.74.28,11.55.82,17.19,1.92.41.08,2.06-.08,1.99-.74-.19-1.84-.58-3.67-.96-5.47-1.21-5.75-2.81-11.42-4.55-17.04-1.59-5.11-3.32-10.18-5.15-15.21-.21-.57-2.37.08-2.19.59h0Z"/>
    <path class="cls-26" d="M277.38,810.53l5.41,14.7c4.92,3.12,18.96,12.31,24.24,14.69,9.7,4.38,19.84,7.78,30.15,10.4,10.59,2.69,21.41,4.54,32.31,5.29,7.08.48,16.08-1.48,21.34-5.2,13.73-57.93-30.79-202.36-30.79-202.36l-122.88-14.69s-14.15,49.3-4.49,75.31c9.65,26.02,44.71,101.86,44.71,101.86Z"/>
    <path class="cls-26" d="M319.39,780.21l4.36,19.31c4.92,3.12,20.01,7.7,25.29,10.08,9.7,4.38,19.84,7.78,30.15,10.4,10.59,2.69,21.41,4.54,32.31,5.29,7.08.48,16.08-1.48,21.34-5.2,13.73-57.93-37.79-202.36-37.79-202.36l-107.74-2.83s-22.29,37.44-12.63,63.45c9.65,26.02,44.71,101.86,44.71,101.86Z"/>
    <path class="cls-32" d="M395.89,819.44c.41-8.51.39-17.03-.13-25.53s-1.38-16.64-3.14-24.76c-1.54-7.09-4.03-13.94-6.19-20.86-2.14-6.86-4.29-14.01-4.43-21.25-.15-7.69-1.78-16.95,3.41-23.44.9-1.13-1.27-1.44-1.91-.65-4.64,5.8-4.2,13.27-3.92,20.28.14,3.46.15,6.87.69,10.29.57,3.64,1.48,7.23,2.49,10.77,2.08,7.25,4.7,14.34,6.64,21.63,2.09,7.85,3.08,16.02,3.75,24.1.82,9.84.9,19.74.43,29.6-.06,1.17,2.27.82,2.32-.19h0Z"/>
    <g>
      <rect class="cls-38" x="572.92" y="140.09" width="115.72" height="134.56"/>
      <path class="cls-25" d="M690.19,139.2c-3.85,0-7.71,0-11.56,0-9.21,0-18.41,0-27.62,0-11.13,0-22.26,0-33.39,0h-28.88c-4.69,0-9.38-.08-14.07,0-.07,0-.14,0-.2,0-.76,0-3.9.41-3.9,1.52,0,4.47,0,8.95,0,13.42,0,10.7,0,21.4,0,32.1,0,12.94,0,25.88,0,38.82,0,11.22,0,22.45,0,33.67,0,3.69,0,7.39,0,11.08,0,1.14,0,2.27,0,3.41,0,.55-.13,1.28,0,1.82.02.07,0,.16,0,.23,0,.25.74.26.81.26,3.85,0,7.71,0,11.56,0,9.21,0,18.41,0,27.62,0,11.13,0,22.26,0,33.39,0h28.88c4.69,0,9.38.08,14.07,0,.07,0,.14,0,.2,0,.76,0,3.9-.41,3.9-1.52,0-4.47,0-8.95,0-13.42,0-10.7,0-21.4,0-32.1,0-12.94,0-25.88,0-38.82,0-11.22,0-22.45,0-33.67,0-3.69,0-7.39,0-11.08,0-1.14,0-2.27,0-3.41,0-.55.13-1.28,0-1.82-.02-.07,0-.16,0-.23,0-.59-4.71.02-4.71,1.26,0,4.47,0,8.95,0,13.42,0,10.7,0,21.4,0,32.1,0,12.94,0,25.88,0,38.82,0,11.22,0,22.45,0,33.67,0,3.69,0,7.39,0,11.08,0,1.72-.14,3.51,0,5.23,0,.08,0,.15,0,.23l3.9-1.52c-3.85,0-7.71,0-11.56,0-9.21,0-18.41,0-27.62,0-11.13,0-22.26,0-33.39,0h-28.88c-3.18,0-6.37,0-9.55,0-1.45,0-3.07-.2-4.51,0-.07,0-.14,0-.2,0l.81.26c0-4.47,0-8.95,0-13.42,0-10.7,0-21.4,0-32.1,0-12.94,0-25.88,0-38.82,0-11.22,0-22.45,0-33.67,0-3.69,0-7.39,0-11.08,0-1.72.14-3.51,0-5.23,0-.08,0-.15,0-.23l-3.9,1.52c3.85,0,7.71,0,11.56,0,9.21,0,18.41,0,27.62,0,11.13,0,22.26,0,33.39,0h28.88c4.69,0,9.38.08,14.07,0,.07,0,.14,0,.2,0,1.1,0,2.39-.31,3.33-.89.71-.44.7-.89-.24-.89Z"/>
    </g>
    <rect class="cls-6" x="600.4" y="166.14" width="60.33" height="85.42" transform="translate(1261.12 417.71) rotate(-180)"/>
    <path class="cls-12" d="M660.94,193.65c-3.09.19-6.14.97-8.88,2.35-7.41,3.73-12.28,11.33-20.12,14.14-5.98,2.14-12.81,1.07-18.58-1.54-4.67-2.11-8.78-5.15-12.75-8.33v-36.67h60.33v30.05Z"/>
    <rect class="cls-16" x="680.14" y="730.95" width="87.72" height="33.05"/>
    <path class="cls-39" d="M1110.33,819.92c2.79-7.37,11.25-15.36,17.32-19.12,6.07-3.76,13.67-.68,15.7.11,15.13,5.87,23.24,18,35.32,28.28,9.26,7.88,19.5,14.62,30.39,20.03,11.08,5.5,23.03,8.1,34.24,13.03.08.03.16.07.24.11,5.56,2.44,10.08,6.76,12.81,12.18,1,1.98,2.02,3.92,3.12,5.76,1.53,2.54,3.17,4.42,1.74,7.52-2.63,5.71-12.23-.44-15.03-1.53-.52-.2-1.07-.26-1.62-.19-2.2.26-8.72.7-19.8-1.36-1.07-.2-2.12-.32-3.15-.4-.02.06.02-.06,0,0-5.87-.75-32.25-1.16-36.99-1.48-9.35-.62-38.06-5.81-38.06-5.81-3.27-.35-46.39-16.99-61.99-6.73l-4.47-34.35s27.43-8.66,30.22-16.03Z"/>
    <path class="cls-39" d="M1060.67,766.6c2.79-7.37,11.25-15.36,17.32-19.12,6.07-3.76,13.67-.68,15.7.11,15.13,5.87,23.24,18,35.32,28.28,9.26,7.88,19.5,14.62,30.39,20.03,11.08,5.5,23.03,8.1,34.24,13.03.08.03.16.07.24.11,5.56,2.44,10.08,6.76,12.81,12.18,1,1.98,2.02,3.92,3.12,5.76,1.53,2.54,3.17,4.42,1.74,7.52-2.63,5.71-12.23-.44-15.03-1.53-.52-.2-1.07-.26-1.62-.19-2.2.26-8.72.7-19.8-1.36-1.07-.2-2.12-.32-3.15-.4-.02.06.02-.06,0,0-5.87-.75-32.25-1.16-36.99-1.48-9.35-.62-38.06-5.81-38.06-5.81-3.27-.35-43.97-9.63-59.57.63l-6.89-41.71s27.43-8.66,30.22-16.03Z"/>
    <path class="cls-39" d="M1156.39,680.08c-.92,33.47,8.31,105.74-95.25,110.77l47.23-10.34.11,81.43s-308.24-2.02-317.31-2.13c-17.44-.2-57.36-21.8-48.03-73.75,8.45-47.05,37.26-65.62,50.33-75.21,13.07-9.59,210.12-86.47,265.51-94.78l82.3,45.26,15.11,18.76Z"/>
    <path class="cls-39" d="M1168.04,706.95c-5.01,33.11-21.45,70.09-62.18,87.84l7.59,14.24c14.02,26.31,25.13,28.28,18.47,57.33l-4.92-4.09s-265.79,52.45-309.4,38.85c-17.29-2.33-55.55-29.54-55.51-82.32.03-52.78,45.02-60.56,59.17-68.47,14.14-7.91,163.78-35.94,219.77-37.41l62.06-43,64.96,37.02Z"/>
    <path class="cls-40" d="M1159.19,575.12c-.76-.87-1.72-2.77-1.95-4.06-2.4-1.62-.76.74-6.1-3.2-8.32,2.94-16.78,5.46-25.36,7.42-20.94,4.78-42.73,5.7-64.14,5.21-23.42-.53-46.75-2.92-70.06-5.17-20.17-1.94-38.39-3.81-58.66-4.27l-5.37,42.63-160.06,109.68s-51.3,39.2-2.07,82.67c36.96,32.64,142.14,48.78,142.14,48.78.99,1.81,26.07-3.19,40.79-5.23,18.25-4.08,133.91-28.42,144.54-30.52,52.55-10.37,104.72-48.85,109.5-103.47,2.62-29.89-1.88-67.19-14.9-94.36-6.29-13.13-14.24-30.06-28.31-46.12Z"/>
    <path class="cls-15" d="M1022.96,571.69c-2.43-5.32-6.03-10.11-11.22-12.98-3.42-1.89-7.22-2.73-11.08-3.03-1.16-.09-2.4-.03-3.54-.31-.54-.13-2.09.69-1.1.93s1.97.21,2.95.27c1.51.1,3.02.25,4.51.53,4.39.84,8.43,2.89,11.62,6.03,2.62,2.58,4.57,5.71,6.09,9.03.27.59,2.02.03,1.79-.48h0Z"/>
    <path class="cls-15" d="M1182.62,832c-8.08-7.14-16.38-14.09-24.14-21.56-4.24-4.09-8.51-8.17-13.25-11.68-.51-.38-2.15.37-1.41.91,8.26,6.11,15.02,13.96,22.92,20.49,3.43,2.83,6.69,5.89,10.02,8.84,1.41,1.24,2.81,2.48,4.22,3.73.51.45,2.19-.25,1.65-.73h0Z"/>
    <path class="cls-39" d="M1034.18,255.26c.49.84,6.23,6.05,9.51,6.82-2.84,7.43-1.38,28.81-7.62,34.08-11.79,9.94-40.65,39.7-56.01,40.2-13.67.45-51.27-13.46-36-48.09,3.65-9.34,10.33-10.41,10.43-12,.31-4.79-10.07-33.28-10.07-33.28l75.82-45.89s-.76,32.94,13.95,58.17Z"/>
    <path class="cls-15" d="M953.23,271.87s5.88-5.93,11.31-8.2c5.43-2.28,15.11-3.14,38.25-28.85-.2.22-.08,1.69-.12,2-.24,1.87-.75,3.7-1.41,5.46-2.58,6.88-7.52,12.69-13.02,17.45-4.15,3.59-8.69,6.74-13.48,9.42-4.45,2.49-9,4.7-13.99,5.76-1.46.31-2.93.56-4.41.7-.37.04-2.26.76-2.3.44l-.84-4.18Z"/>
    <path class="cls-39" d="M899.8,106.86c-.06.21-.15.43-.25.64.11-.11.22-.22.32-.33l-.07-.31ZM885.85,113.4l.06.26c.2-.24.38-.47.55-.71-.07-.31-.6.45-.6.45ZM1017.98,205.31l.72-5.47c8.45,8.03,18.46-1.26,16.78-14.52,2.42-7.21,3.37-29.93-3.23-35.76l-.83-.88c-4.33-2.27-11.34-2.36-13.28,3.19-.54,2.36.72,4.97.18,7.33-.47,2.67-3.15,8.05-4.36,10.56,0,0-4.38-12.2-5.3-18.09-.92-5.89-8.56-21.88-20.69-27.92,0,0-4.09-20.6-10.08-25.72l-1.8-.25c-1,.22-1.6.66-2.6.88-.07-.31.2-.68.07-1.3-1.54.97-2.94.95-4.27,1.24.27-.38.87-.83.8-1.14-1.27.59-2.67.58-4.01.86.27-.38.8-1.13.74-1.44-1.54.97-2.67.58-4.01.86.27-.38.47-1.06.4-1.37-1.2.9-2.6.88-3.94,1.17.27-.38.47-1.06.74-1.44-1.54.97-2.67.58-4,.86-.33.07.53-.76.47-1.06-.93.52-2.27.81-3.27,1.03-.07-.31.54-.76.47-1.06-1.87,1.04-3,.65-4.34.94l.74-1.44c-1.13,1.21-2.47,1.49-3.87,1.48.26-.38.8-1.13.73-1.44-1.47,1.28-3.41,2.02-5.21,1.76.33-.07.8-1.14.74-1.44-1.4,1.59-2.8,1.57-4.47,1.93.27-.38.47-1.06,1.01-1.82-1.74,1.66-3.94,2.77-6.14,2.29.33-.07.47-1.06.41-1.37-1.07,1.51,1.1-.56-.63-.51,0,0-3.58,2.06-3.64,1.75-1.14,1.21,2.4-5.96.73-5.6.2-.69-9.46,2.64-8.92,1.88-1.4,1.58-1.2.88-3.27,1.01,0,0-6.14,5.16-5.88,4.78-1.34,1.89-2.37.77-4.44.89.27-.38,1.48,1.02,1.75.65-1.07,1.51-.96-.11-2.63.25-.07-.31-5.89-.82-5.95-1.12-1.47,1.28-.9,1.29-2.9,1.73-.07-.31-.53,3.64-.26,3.27-1.07,1.51-1.22.49-2.96.55l-1.41,1.5c-1.34,1.89.81.73-1.26.85-.05-.21,7.74-.67,7.96-1.13-1.09,1.1-2.43,2.22-3.89,2.82-.07-.31.14-.99.07-1.3-1.07,1.51-2.88,2.86-4.95,2.99.33-.07.54-.76.47-1.06-1.34,1.89-3.14,3.24-5.35,2.76-1.08,1.25-2.57,2.53-4.21,3.15-.2-.92.4-1.37.4-1.37l-1.33.29c-1.14,2.81-2.35,5.31-2.35,8.52,0,0-6.88,19.07-4.1,30.33,2.78,11.26,7.98,31.15,9.37,35.98,1.21,4.18,1.45,9.95,1.45,14.5-.01,20.59,8.83,28.13,17.6,39.07,3.92,4.89,8.6,8.93,12.87,13.44,4.72,4.98,9.11,10.12,15.04,13.75,6.12,3.74,15.08,2.75,22.57,1.5,20.89-3.48,40.99-22.08,51.33-38.24"/>
    <path class="cls-42" d="M876.63,136.5c4.25-19.59,24.81-33.83,65.9-48.07,41.09-14.23,77.41-5.9,77.41-5.9-32.65-56.22-93.54-41.03-107.21-38.08-13.67,2.95-72.75,71.42-38.89,116.55l2.97,3.5s-.95-24.44-.18-28Z"/>
    <path class="cls-42" d="M1028.07,67.63s-3.1-38.96-33.48-45.72c-40.59-9.03-92.59-5.67-102.27,37.13l135.75,8.59Z"/>
    <path class="cls-41" d="M1044.07,160.34c2.39-3.74-.31-12.33,1.57-16.35,9.83-21.09,1.63-37.9-5.89-47.32-3.27-4.1-1.79-12.85-2.88-16.83-5.69-20.85-8.25-20.98-44.29-35.88-29.33-12.13-56.84-5.37-72.68-1.07-25.37,6.9-36.33,10.94-41.39,31.07-.66,2.63.57,3.26.2,6.33-.51,4.34-6.31,7.15-6.26,12.5,0,0,35.78,6.16,67.31,15.33,31.52,9.18,94.42,57.46,96.18,75.6.06.57,5.49-19.25,8.14-23.39Z"/>
    <path class="cls-42" d="M1049.23,124.73s-75.46-61.59-128.52-50.69c0,0,80.28-18.6,120.87,23.84l1.13,1.8c2.99,4.74,5.12,9.97,6.29,15.45l.23,9.61Z"/>
    <path class="cls-14" d="M1023.92,195.03c3.28-.37,5.38,1.91,6.32,4.55,1.69,4.76-2.61,9.67-7.41,8.09-.18-.06-.37-.13-.56-.21,0,0,6.4,4.98,10.67.42,4.27-4.56.91-10.18-1.12-11.47-4.52-2.87-7.9-1.39-7.9-1.39Z"/>
    <path class="cls-24" d="M1003.74,146.37l8.2,29.42,7.64-15.41s-11.29-10.05-15.84-14.01Z"/>
    <path class="cls-23" d="M1019.5,173.85c.97-.2,2.32-.43,2.66.77.28.99-.05,2.17-.22,3.15-.39,2.18-1.02,5.09,1.05,6.66,2.72,2.06,5.06-2.12,5.74-4.2.92-2.82.98-5.68.13-8.49-.88-2.92-2.44-6.5-5.75-7.18-.7-.14-1.45.84-.5,1.04,2.66.55,3.99,3.93,4.72,6.22.81,2.54.91,4.98.22,7.61-.38,1.43-1.08,3.46-2.41,4.3-.82.51-1.6-.55-1.88-1.26-.8-2.07.23-4.5.42-6.6.08-.9.07-1.98-.67-2.63-1-.87-2.59-.6-3.76-.36-.9.19-.63,1.16.26.98h0Z"/>
    <g>
      <path class="cls-3" d="M926.5,216.96c2.58.79,6.02-.26,8.01-2.29.44-.45,2.23-.49,1.61.14-2.63,2.67-7.62,3.94-10.95,2.92-.33-.1-.33-.35.01-.56.35-.22.97-.32,1.32-.21"/>
      <path class="cls-3" d="M936.97,213.9c1.38-1.11,3.02-1.89,4.72-2.4.25-.07.6-.04.82.09.18.11.25.29.08.44-.69.66-1.67,1.08-2.6,1.26-.3.06-.7.06-.93-.17-.21-.22.04-.44.27-.48.78-.15,1.53-.48,2.1-1.02.3.18.6.36.91.54-1.52.46-2.99,1.17-4.22,2.16-.24.2-.66.19-.94.09-.21-.08-.47-.31-.22-.51"/>
      <path class="cls-3" d="M943.89,212.66c2.01-.49,4.19-1.93,4.83-3.77.97-2.77-1.27-6.34-4.14-7.36-.31-.11-.21-.36.05-.49.35-.16.81-.11,1.13,0,2.5.89,4.62,3.77,4.78,6.13.15,2.21-1.46,4.12-3.74,5.26-.68.34-1.42.63-2.17.81-.31.07-.88.09-1.08-.13-.21-.23.05-.4.33-.47"/>
      <path class="cls-3" d="M922.56,216.66c.05-.27-.18-.39-.34-.35-.54.13-1.14.09-1.69-.21-.13.27-.26.54-.38.81,1.12-.11,2.3.04,3.43.53.22.1.49-.05.63-.25.1-.14.19-.44-.04-.54"/>
      <path class="cls-3" d="M924.16,216.65c-1.26-.54-2.58-.69-3.84-.57-.18.02-.39.17-.49.38-.07.16-.05.35.11.44"/>
      <path class="cls-3" d="M918.42,217.86c-1.33.23-3.08-.38-4.08-1.86-1.51-2.24-1.23-5.34.08-7.25.14-.21,0-.41-.2-.43-.25-.03-.5.17-.65.39-1.14,1.67-1.58,4.08-.87,6.33.67,2.1,2.25,3.33,3.96,3.61.51.08,1.03.1,1.53.02.2-.04.54-.21.58-.49.04-.28-.16-.35-.35-.32"/>
    </g>
    <path class="cls-24" d="M893.65,179.99c-2.06-.56-4.28.74-5.26,2.07-.23.31-.61,1.2-.7,2.5-.12,1.65.88,3.28,2.09,4.15,1.61,1.15,3.84.93,5.34-.21,2.04-1.54,2.18-4.43,1.19-6.29-.18-.34-1-1.76-2.66-2.22"/>
    <path class="cls-24" d="M913.32,181.61s-10.55-5.15-15.26-4.62c-6.87.78-14.36,6.3-16.02,10.15,0,0,9.77-7.94,14.63-8.35,4.64-.39,16.65,2.82,16.65,2.82Z"/>
    <path class="cls-24" d="M949.45,167.9c1.64-1.36,4.68-1.74,6.13-.92.34.19,1.26.75,1.88,1.89.79,1.46.55,3.36-.19,4.64-1,1.71-3.12,2.43-4.95,2.01-2.49-.57-3.81-3.13-3.68-5.24.03-.38-.49-1.01.83-2.11"/>
    <path class="cls-24" d="M941.88,174.41s8.79-8.67,13.77-9.9c7.27-1.79,16.91.61,20.03,3.59,0,0-12.87-3.83-17.95-2.43-4.86,1.34-15.85,8.73-15.85,8.73Z"/>
    <path class="cls-24" d="M879.61,174.96c-.22-.08-.47-.11-.73-.1-.18-.36-.35-.73-.52-1.1-.09-.25-.15-.51-.2-.78,0-.07,0-.14,0-.2,1.15-2.62,2.71-4.29,2.87-4.46,0,0,2.17-2.36,6.01-4.03,2.65-1.15,10.21-2.9,20.57-3.34.22,1.38.44,2.76.66,4.14.17,1.05.33,2.11.49,3.16-3.66-.32-6.77-.41-9.11-.42-4.94-.02-7.46-.01-10.18.91-2.85.97-5.17,2.47-6.06,3.05-1.26.83-2.11,1.36-3.07,2.33-.29.29-.5.56-.73.84Z"/>
    <path class="cls-24" d="M934.26,152.99c.43,1.33.86,2.66,1.29,3.99.33,1.01.66,2.03,1,3.04,3.78-2.14,7.07-3.8,9.57-4.99,5.29-2.53,8-3.8,11.36-4.37,3.53-.6,6.73-.45,7.98-.38,1.75.09,2.92.13,4.42.49,3.25.79,4.96,2.3,5.35,1.99.36-.28-.83-1.7-.95-1.85-3.02-3.58-7.6-4.81-7.95-4.91,0,0-3.47-.98-8.39-.51-3.39.33-12.35,2.62-23.67,7.5"/>
    <path class="cls-20" d="M937.37,228.75c10.57-2.54,26.13-10.9,26.13-10.9,0,0,5.27,28.29-19.22,34.18-24.49,5.9-29.02-18.39-29.02-18.39,0,0,11.55-2.34,22.11-4.89Z"/>
    <path class="cls-29" d="M937.27,228.77c5.02-1.21,23-8.52,23-8.52,0,0-.64,19.04-18.81,23.42-19.7,4.74-22.77-10.29-22.77-10.29l18.58-4.61Z"/>
    <path class="cls-46" d="M937.24,229.61c5.02-1.21,20.1-5.77,20.1-5.77,0,0-4.13,7.04-19.19,10.67-15.07,3.63-21.19-.78-21.19-.78l20.29-4.13Z"/>
    <path class="cls-20" d="M913.82,232.36c.5-.26,2.19-.98,2.19-.98,4.07-1.37,4.37-2.51,7.33-3.48,5.04-1.65,8.82-.33,11.05-.86,2.24-.54,4.99-3.43,10.24-4.26,3.07-.48,7.34-1.19,11.41-2.55,5.95-2,7.85-5.58,8.41-5.57.79.01,1.73,10.29-26.38,17.06-28.11,6.77-24.96,1.02-24.26.66Z"/>
    <path class="cls-10" d="M896.02,436.72c-4.75,41.65-.05,54.17,8.86,63.69,11.41,12.2,21.48,5.57,27.54,15.71,11.98,20.06-1.74,54.98-7.6,85.99,0,0,76.83,21.35,131.77,20.72,54.93-.62,123.55-26.22,123.55-26.22-24.94-47.12-41.16-73.37-41.16-73.37l.12-59.9,2.21-60.49c1.52-48.55-2.32-104.28-54.39-123.48l-45.45-20.47s-18.31,51.91-64.55,49.67c-46.24-2.24-22.45-32.32-22.45-32.32,0,0-39.03,15.29-49.13,24.9-10.1,9.62-8.76,15.77-35.15,64.63-14.71,27.22-19.69,29.51-21.85,34.72-2.16,5.21,25.03,28.06,25.03,28.06,0,0,19.38,16.88,45.2,14.49"/>
    <path class="cls-28" d="M893.73,391.84c5.74,6.72,5.13,15.56,3.96,23.73-1.17,8.24-2.86,16.39-4.21,24.6-.18,1.09,1.95.86,2.11-.13,1.1-6.65,2.4-13.25,3.49-19.9,1.05-6.42,2.32-13.07,1.05-19.55-.69-3.55-2.16-6.92-4.51-9.68-.65-.76-2.62.1-1.9.94h0Z"/>
    <path class="cls-39" d="M385.18,339.95c.76-8.04.39-23.12-.74-27.95.05-3.72.08-8.04.1-13.25,0-1.51-.03-2.96-.08-4.4-.09-.74-.12-1.48-.09-2.22-1.27-25.36-9.88-38.49-9.88-38.49-11-16.63-29.97-26.13-49.84-24.95-23.4.89-44.27,15.49-55.03,30-5.35,7.18-7.86,16.09-7.05,25.01.68,7.63,2.6,16.17,4.8,24.42-8.18-.23-16.15,2.84-12.91,17.86,4.47,20.72,17.99,26.93,24.19,21.1,1.46.23,4.46,6.48,4.88,10.81.8,8.3.73,23.06-3.23,30.39l.26,2.36c18.14,28.14,35.59,32.35,95.64,14.47l-26.62-19.03-.22-5.55c4.58-.4,5.88.17,10.08-1.61,18.76-5.21,24.86-29.51,25.75-38.99Z"/>
    <path class="cls-15" d="M349.23,380.59s-22.26,2.18-42.54-10.68c0,0,2.54,6.66,16.91,11.46,14.37,4.8,25.71,2.83,25.71,2.83l-.07-3.62Z"/>
    <ellipse class="cls-23" cx="374.6" cy="305.66" rx="4.99" ry="4.97" transform="translate(-5.9 603.94) rotate(-77.31)"/>
    <path class="cls-18" d="M380.41,301.39c-2.4-1.47-5.69-2.4-10.5-1.9-7.7.8-11.05,10.53-11.05,10.53,0,0,3.99-7.45,11.57-8.43,3.65-.47,9.71,1.58,12.53,2.96-.09-.74-1.12-2.19-2.56-3.15Z"/>
    <path class="cls-23" d="M260.88,326.88c-.86-2.41-1.49-5.81,0-8.15l-.66.36s-.13-.06.02,0c.07.03.16.02.39.09.67.21,1.3.63,1.86,1.06,3.15,2.37,5.42,5.99,7.43,9.3l1.06-.59c-.87-.61-2.04-1.07-3.1-.8-1.26.32-1.74,1.57-1.75,2.76-.04,3.24,2.92,4.81,5.79,5.06.55.05,1.3-.74.46-.81-2.3-.2-4.6-1.32-4.95-3.82-.09-.62-.1-1.87.45-2.33s1.65.27,2.12.6c.33.23,1.36-.1,1.06-.59-1.52-2.51-3.16-4.98-5.14-7.16-1-1.1-2.11-2.18-3.41-2.92-.55-.32-1.19-.62-1.84-.67-.75-.05-1.06.4-1.31,1.04-1.02,2.53-.64,5.39.26,7.89.18.5,1.42.15,1.25-.33h0Z"/>
    <ellipse class="cls-21" cx="322.84" cy="307.05" rx="4.99" ry="4.97" transform="translate(-47.64 554.52) rotate(-77.31)"/>
    <path class="cls-18" d="M336.86,310.1s-7.66-9.98-16.13-9.16c-11.93,1.16-13.94,6.15-16.18,10.02,0,0,7.23-7.33,16.47-8,8.38-.61,15.85,7.14,15.85,7.14Z"/>
    <path class="cls-20" d="M351.01,345.47c-7.16.1-18.79-.54-18.79-.54,0,0-.69,20.09,19.17,19.49,16.6-.5,16.68-19.64,16.68-19.64,0,0-9.9.59-17.07.69Z"/>
    <path class="cls-22" d="M351.08,345.47c-3.41.05-16.09.09-16.09.09,0,0,3.1,11.73,15.42,11.56,13.36-.19,15.24-11.12,15.24-11.12l-14.57-.53Z"/>
    <path class="cls-46" d="M351.25,347.04c-3.41.05-13.78-.36-13.78-.36,0,0,4.11,2.75,14.33,2.6,10.22-.15,13.08-2.89,13.08-2.89l-13.63.65Z"/>
    <path class="cls-20" d="M368.01,344.67c0-.37-.75-.52-2.44-.63-2.82-.19-3.76-1.19-5.8-1.31-3.49-.21-5.69,1.15-7.2,1.17s-3.75-1.27-7.23-.96c-2.04.18-7.09.97-9.9,1.24-1.69.16-3.68-.44-4.04-.35-.5.13.74,4.74,19.8,4.47,19.06-.27,16.83-3.12,16.82-3.62Z"/>
    <path class="cls-24" d="M335.65,290.16c.02-.18-.58-.22-.56-.39-9.28-2.6-16.4-3.02-19.02-2.6-1.99.32-3.95,1.06-5.8,2.1,0,0-5.13,2.77-5.79,3.92-.65,1.15,3.08-.49,3.08-.49.8-.22,1.35-.51,2.16-.61,4.46-.6,8.74-1.83,13.18-1.08,3.8.62,8.87,3.11,12.48,4.71.19-1.91-.05-3.68.28-5.56Z"/>
    <path class="cls-24" d="M357.36,291.23c-.02-.18.5-.22.48-.4,8.04-2.68,14.25-3.15,16.55-2.75,1.75.3,3.47,1.03,5.11,2.05,0,0,4.55,2.73,5.14,3.87.6,1.14-2.7-.46-2.7-.46-.7-.21-1.19-.49-1.9-.6-3.91-.56-7.68-1.76-11.53-.97-3.3.65-7.68,3.18-10.79,4.81-.21-1.9-.04-3.68-.37-5.55Z"/>
    <g>
      <path class="cls-18" d="M275.69,323.8c-.04-.12-.04-.25-.08-.38-1.19-2.93-2.57-5.64-5.05-7.71-1.13-.95-2.48-2-3.9-2.6-1.42-.6-2.94-1.29-4.5-1.46-2.18-.49-4.34-.39-6.48.28-.36.17-.72.34-1.08.5-6.05-17.89-9.02-37.1,3.58-59.56,3.64-6.47,13.46-13.77,16.46-16.11,18.2-14.01,34.78-15.42,55.26-13.95,23.74,1.71,46.26,16.32,52.34,40.09,1.47,5.73,2.76,9.55,2.36,15.45,0,0-5.22-21.61-16.82-28.12-11.6-6.51-13.39,3.57-29.54,4.35-18.71.84-25.13-9.17-39.94-.94-13.52,7.54-17.25,19.61-17.25,19.61-1.87,8.21-5.46,13.75-2.93,23.03.62,2.21,1.13,4.45,1.58,6.69.23,4.11,1,8.23.37,12.34-.31,2.02-1,4.13-2.71,5.38-1.84,1.35.35,3.72-1.66,3.08Z"/>
      <path class="cls-23" d="M277,323.45c-.45-2.02-1.77-4.24-2.98-5.89-1.4-1.91-3.33-3.58-5.39-4.73-4.42-2.47-9.93-3.35-14.61-1.16l1.89.42c-2.31-6.86-4.17-13.89-4.88-21.11-.76-7.73-.09-15.58,2.06-23.05,1.25-4.33,2.99-8.52,5.06-12.52,1.72-3.31,3.8-6.11,6.43-8.76,4.49-4.51,9.67-8.61,14.94-12.18,6.46-4.38,13.61-7.64,21.24-9.38,7.21-1.65,14.66-1.95,22.03-1.68s14.42.97,21.38,3.16c6.54,2.06,12.74,5.16,18.21,9.3s10.07,9.19,13.5,15.06c1.77,3.02,3.19,6.23,4.25,9.56,1.2,3.76,2.28,7.72,2.88,11.62.33,2.11.39,4.23.26,6.36l2.64-.45c-.74-3.03-1.78-6.02-2.93-8.92-2.17-5.48-4.93-10.98-8.96-15.34-3.64-3.93-9.1-7.36-14.67-6.55-2.37.34-4.54,1.36-6.68,2.39-2.56,1.24-5.13,2.4-7.9,3.1-7.4,1.89-15.16.85-22.45-1.01-5.82-1.49-11.56-3.08-17.57-1.64-7.18,1.72-13.77,6.61-18.49,12.17-2.64,3.11-5.07,6.76-6.4,10.66-.32.94-.5,1.92-.76,2.88-.53,1.91-1.15,3.8-1.71,5.7-1.12,3.83-1.79,7.67-1.3,11.66.3,2.42,1.06,4.74,1.61,7.1.57,2.46.81,4.88,1.03,7.39s.4,5.23,0,7.82c-.14.94-.36,1.86-.76,2.72-.45.99-1.11,1.53-1.85,2.27-.48.49-.81,1.07-.89,1.77-.03.3-.02.64.02.95.04.28-.09.51.11.32l.86-.51.23-.04c-.62-.17-1.43-.04-1.86.5-.35.45-.28,1.1.34,1.27,1.14.31,2.88.18,3.01-1.33.05-.52-.2-1.09-.01-1.6.26-.72,1.31-1.31,1.78-1.96,2.48-3.46,2.04-8.41,1.69-12.41-.22-2.5-.41-4.94-.96-7.39s-1.32-4.73-1.67-7.16c-.57-4,.2-7.93,1.33-11.76,1.22-4.1,2.07-8.23,4.14-12,3.18-5.81,8-10.72,13.68-14.11,2.97-1.77,6.22-3.18,9.69-3.53,2.8-.28,5.59.13,8.31.76,3.01.7,5.98,1.58,9,2.22,3.64.78,7.33,1.18,11.05,1.17s7.62-.49,11.24-1.68c2.62-.85,5.07-2.06,7.56-3.24,1.86-.88,3.8-1.72,5.9-1.67,2.75.06,5.49,1.43,7.69,3,4.84,3.46,8.08,9,10.51,14.32,1.73,3.77,3.16,7.7,4.23,11.71.06.22.12.45.17.67.28,1.14,2.58.59,2.64-.45.27-4.33-.48-8.45-1.57-12.62-.98-3.75-1.98-7.45-3.57-10.99-2.89-6.43-7.11-12.13-12.3-16.89-10.61-9.73-24.71-14.97-38.95-15.94-7.86-.54-15.82-.71-23.64.44s-15.21,3.55-22.07,7.32c-6.15,3.37-11.82,7.71-17.12,12.3-2.73,2.36-5.4,4.87-7.64,7.71-2.63,3.35-4.48,7.36-6.1,11.28-3.17,7.67-4.92,15.89-4.91,24.2.01,7.64,1.42,15.2,3.57,22.51.52,1.76,1.07,3.5,1.66,5.23.26.76,1.32.69,1.89.42,3.96-1.85,9.04-.59,12.53,1.82,1.6,1.11,3.02,2.39,4.13,3.99,1.03,1.48,2.14,3.36,2.54,5.13.27,1.21,2.9.53,2.63-.7Z"/>
    </g>
    <path class="cls-24" d="M348.88,334.93c1.86.84,3.93,1.13,5.96,1.12,1.84-.01,3.86-.18,5.58-.87,2.58-1.03,4.51-3.86,3.37-6.6-.31-.76-.72-1.47-1.07-2.21-.51-1.06-.93-2.15-1.26-3.29-.1-.33-1.08-.07-.98.26.46,1.6,1.16,3.08,1.9,4.56.49.98.97,2.01.75,3.13-.28,1.46-1.22,2.76-2.52,3.48s-3.12.89-4.64.97c-2.14.1-4.34-.14-6.31-1.02-.28-.13-1.18.29-.79.47h0Z"/>
    <path class="cls-24" d="M340.41,328.05c-.88-.03-1.69.39-2.06,1.19-.38.81-.44,1.79-.41,2.67s.17,1.73.78,2.42c.82.93,2.11,1.25,3.3,1.38.8.09,1.54,0,2.3-.26.84-.28,1.63-.73,2.49-.94.08-.02.49-.13.46-.27s-.47-.02-.53,0c-.62.15-1.21.4-1.8.65s-1.15.51-1.79.48c-1.03-.05-2.17-.29-3.01-.92-1.31-.98-1.36-2.83-1.11-4.31.07-.41.17-.82.37-1.19.08-.15.18-.3.3-.42.02-.02.15-.11.15-.12,0,.03-.27.03-.06.04s.52-.06.7-.19c.14-.1.15-.19-.05-.19h0Z"/>
    <path class="cls-8" d="M222.45,486.36s10.32,72.65,2.8,97.85c-7.93,26.56-10.79,53.08-10.79,53.08,0,0,48.26,29.07,126.67,22.95,43.12-3.37,64.22-17.67,59.45-35.4-1.23-4.57-3.65-24.11-3.65-24.11l2.3-90.5-176.78-23.87Z"/>
    <path class="cls-8" d="M256.59,575.42c7.47,2.62,14.9,3.87,22.77,4.53,15.57,1.32,31.12.69,46.71.35,20.98-.45,42.02-.49,62.91-2.27l4.56-2.08c5.05-10.34,6.96-46.18,8.42-73.92l2.06-27.5c2.85,0,28.07,11.44,30.97,6.1,14.86-27.43,9.54-73.5,9.54-73.5,0,0-28.86-13.44-42.81-18.05-16.14-5.33-46.66-3.51-46.66-3.51,14.98,13.89-7.13,20.76-7.13,20.76-19.43,5.33-52.07-1.79-58.24-26.68,0,0-27.15,14.01-39.38,24.05-29.04,23.86-27.57,53.89-26.61,69.64.87,14.34,21.95,54.91,21.85,81.41,3.9,1.29,7.13,19.28,11.03,20.65Z"/>
    <g>
      <path class="cls-8" d="M404.03,474.54c1.84-20.39,3.97-21.21,3.97-22.59"/>
      <path class="cls-5" d="M405.13,474.45c.49-5.39,1.04-10.82,2.15-16.13.38-1.82.84-3.52,1.49-5.24.15-.39.33-.8.34-1.22.01-1.12-2.19-.78-2.2.17,0,.51,0,.28-.18.72-.22.57-.43,1.14-.62,1.72-.96,2.99-1.48,6.11-1.93,9.21-.53,3.63-.91,7.28-1.25,10.93-.1,1.1,2.11.79,2.2-.17h0Z"/>
    </g>
    <g>
      <path class="cls-8" d="M267.3,387.5s8.86-12.34,15.87-16.34c0,0,25.43,37.11,49.24,36.39,0,0-17.62,9.04-18.79,21.46,0,0-47.77-22.54-46.3-40.46"/>
      <path class="cls-5" d="M268.31,387.51c1.6-2.22,3.32-4.36,5.1-6.44,3.03-3.54,6.36-7.25,10.43-9.61l-1.68.12c3.07,4.48,6.58,8.69,10.21,12.72,6.88,7.64,14.68,14.96,23.87,19.73,4.85,2.52,10.23,4.25,15.74,4.11l-.24-.9c-6.27,3.23-12.56,8.13-16.35,14.13-1.49,2.36-2.57,4.98-2.86,7.77l1.95-.66c-5.41-2.55-10.67-5.47-15.8-8.53-8.96-5.34-18.23-11.36-25.02-19.4-2.82-3.34-5.59-7.59-5.26-12.15.06-.85-2.12-.42-2.17.28-.29,4.01,1.62,7.71,3.94,10.85,3.05,4.14,6.97,7.62,11,10.78,7.92,6.23,16.66,11.45,25.56,16.15,1.99,1.05,3.99,2.09,6.02,3.05.45.21,1.88,0,1.95-.66.65-6.24,5.08-11.3,9.72-15.17,2.66-2.21,5.57-4.26,8.66-5.84.63-.33.45-.92-.24-.9-10.08.25-19.39-5.9-26.81-12.13-6.88-5.77-12.99-12.47-18.49-19.55-1.15-1.48-2.3-2.98-3.36-4.53-.3-.44-1.37-.06-1.68.12-4.17,2.42-7.58,6.12-10.71,9.72-1.93,2.22-3.79,4.52-5.51,6.91-.56.77,1.61.58,2.02.02h0Z"/>
    </g>
    <g>
      <path class="cls-8" d="M349.86,381.53s2.2,18.85-14.31,25.37c0,0,13.6,5.5,18.63,16.11,0,0,9.96-12.43,10.73-37.59,0,0-2.49-4.42-10.35-4.27-6.65.13-4.7.38-4.7.38Z"/>
      <path class="cls-5" d="M348.78,381.82c.74,6.48-1.21,13.9-5.4,18.9-2.2,2.63-5.03,4.61-8.21,5.89-.22.09-1.07.5-.5.73,2.56,1.04,5.01,2.48,7.3,4.02,4.55,3.05,8.72,6.95,11.14,11.94.27.55,1.81-.02,2.08-.35,3.62-4.53,5.83-10.5,7.46-15.97,1.94-6.5,2.97-13.25,3.3-20.02.04-.75.25-1.5-.14-2.15-.29-.48-.75-.9-1.17-1.27-1.72-1.5-3.94-2.31-6.17-2.66-1.89-.3-3.8-.22-5.71-.15-.93.03-1.89.03-2.81.2-.69.13-2.14.88-.78,1.06.51.07,2.5-.8,1.39-.95-.11-.02.23,0,.07.01-.04,0-.09,1.16-1.04.75.3.13,1.58-.11,2.07-.13,2.91-.11,5.83-.15,8.53,1.09,1.2.55,2.64,1.42,3.39,2.56.26.4.24.28.24.83,0,1.91-.19,3.84-.37,5.74-.91,9.37-3.22,18.86-7.75,27.18-.74,1.37-1.55,2.8-2.5,3.98l2.08-.35c-3.62-7.47-11.25-13.18-18.83-16.26l-.5.73c5.48-2.21,9.98-6.06,12.51-11.44,1.74-3.7,2.54-7.84,2.59-11.92.01-.86,0-1.73-.1-2.58-.05-.48-2.25-.04-2.17.58Z"/>
    </g>
    <g>
      <polyline class="cls-8" points="332.8 407.61 335.93 407.14 341.16 442.65 331.35 444.16"/>
      <path class="cls-5" d="M332.69,408.36c1.04-.16,2.09-.31,3.13-.47l-.98-.45c1.53,10.37,3.06,20.74,4.59,31.11.22,1.47.43,2.93.65,4.4l1.2-1.03c-3.27.5-6.54,1.01-9.81,1.51-.42.06-1.18.3-1.21.84-.02.51.56.71.99.64,3.27-.5,6.54-1.01,9.81-1.51.51-.08,1.29-.38,1.2-1.03-1.53-10.37-3.06-20.74-4.59-31.11-.22-1.47-.43-2.93-.65-4.4-.06-.38-.68-.5-.98-.45-1.04.16-2.09.31-3.13.47-.42.06-1.18.3-1.21.84-.02.51.56.71.99.64h0Z"/>
    </g>
    <ellipse class="cls-5" cx="331.38" cy="421.28" rx="3.02" ry="2.38" transform="translate(-10.51 8.49) rotate(-1.44)"/>
    <ellipse class="cls-5" cx="333.35" cy="433.56" rx="3.02" ry="2.38" transform="translate(-10.82 8.54) rotate(-1.44)"/>
    <g>
      <path class="cls-8" d="M435.83,484.49c2.14-2.92,10.64-31.43,12.54-41.41,7.84-41.21-1.81-39.02-1.81-39.02l-14.19-4.11s5.37,17.11-.78,43.37c-.31,1.31-11.07,35.62-11.37,36.89l15.61,4.27Z"/>
      <path class="cls-5" d="M436.84,484.51c.58-.82.94-1.84,1.31-2.76.66-1.64,1.24-3.32,1.81-4.99,1.59-4.68,3.03-9.42,4.42-14.16,3-10.29,5.54-20.55,7-31.18.7-5.1,1.22-10.25,1.15-15.41-.04-2.78-.21-5.68-1.08-8.34-.63-1.93-1.88-4.19-4.18-4.25-.22,0-.62,0-.84.09,1.36-.58.98.1.68-.08-.14-.08-.37-.11-.52-.15l-1.98-.58c-3.58-1.04-7.16-2.07-10.74-3.11l-.82-.24c-.42-.12-1.97.2-1.75.89,1,3.2,1.42,6.64,1.75,9.95.88,8.88.34,17.88-1.18,26.66-.84,4.8-2.14,9.28-3.58,13.91-1.78,5.74-3.57,11.48-5.35,17.22-1.27,4.09-2.79,8.19-3.79,12.36-.07.28.21.4.42.46,5.2,1.42,10.41,2.85,15.61,4.27.7.19,2.55-.86,1.33-1.19-5.2-1.42-10.41-2.85-15.61-4.27l.42.46c.84-3.47,2.09-6.88,3.15-10.29,1.82-5.87,3.65-11.74,5.47-17.62,1.22-3.93,2.54-7.83,3.38-11.87,1.93-9.26,2.75-18.8,2.1-28.24-.29-4.12-.72-8.44-1.96-12.41l-1.75.89c2.84.82,5.68,1.65,8.52,2.47l4.79,1.39c.28.08.59.21.88.25.23.04,1.22.06.56,0-.17-.01.1,0-.03,0,.09,0,.41.11.28.06-.11-.04.27.12.37.18.7.4,1.44,1.47,1.84,2.43.92,2.17,1.19,4.62,1.34,6.95.28,4.57-.09,9.19-.6,13.73-1.21,10.61-3.5,20.9-6.39,31.15-1.38,4.87-2.82,9.72-4.38,14.54-1.06,3.28-2.06,6.67-3.53,9.8-.16.33-.32.67-.54.97-.57.81,1.61.64,2.03.05Z"/>
    </g>
    <path class="cls-39" d="M279.31,590.85c2.3-5.21,5.24-10.01,8.89-14.39,1.62-1.94,3.36-3.77,5.08-5.63,1.57-1.71,3.13-3.43,4.7-5.14,3.36-3.64,6.81-7.22,10.63-10.38,1.84-1.52,3.79-2.96,5.87-4.16-3.63-9.14-18.53-46.82-28.89-75.63-.05.02-.09.04-.13.06-8.69,3.67-17.45,7.16-26.12,10.87-8.66,3.71-17.23,7.64-25.45,12.2-3.32,1.84-6.57,3.8-9.74,5.88,14.96,35.61,41.21,80.23,54,89.17.36-.96.75-1.92,1.16-2.85Z"/>
    <path class="cls-39" d="M410.13,528.83l-113.06,24.36s-.36-.23-1.04-.67c-1.22,2.74-2.05,5.7-2.71,8.56-1.09,4.73-1.72,9.55-2.29,14.36-.57,4.77-1.33,9.55-1.54,14.35-.25,5.56,2.99.66,4.3,6.07.12.48,13.88,7.89,14.01,8.37,43.65-3.4,115.41-52.13,115.41-52.13l-13.09-23.26Z"/>
    <path class="cls-8" d="M227.1,528.4c26.21,2.92,50.26-18.16,72.56-32.23,1.98-1.25,4.02-2.55,5.35-4.47,3.53-5.07.92-11.98-1.75-17.54-6.76-14.06-13.61-28.26-23.31-40.48-9.7-12.22-5.22-24.62-20.4-28.22-1.33-.31-3.55-5.75-4.89-5.45-1.44.32-19.46,12.44-20.56,13.42-11.45,10.21-22.87,31.77-24.7,47.01-2.79,23.18,1.4,38.25,10.14,59.91"/>
    <g>
      <path class="cls-8" d="M287.33,503.75c4.26-.51,16.3-1.46,16.3-1.46.79-4.21-6.66-18.01-7.87-22.12-3.12-10.55-8.69-22.43-13.84-32.15-4.15-7.84-11.43-17.74-22.36-19.57"/>
      <path class="cls-5" d="M287.25,504.58c5.41-.64,10.87-1.03,16.3-1.46.51-.04,1.1-.35,1.19-.9.28-1.71-.32-3.58-.84-5.18-.79-2.48-1.81-4.88-2.85-7.27-.98-2.26-2.01-4.49-2.98-6.75s-1.56-4.36-2.31-6.59c-2.48-7.4-5.66-14.56-9.1-21.56-2.8-5.7-5.63-11.46-9.68-16.39-4.39-5.36-10.11-9.62-17.05-10.84-1.11-.19-2.19,1.38-.74,1.63,12.58,2.22,19.38,14.38,24.59,24.79,3.43,6.86,6.6,13.87,9.16,21.1.85,2.41,1.49,4.91,2.46,7.28.84,2.05,1.77,4.06,2.67,6.09,1.16,2.61,2.31,5.23,3.26,7.93.63,1.79,1.51,3.97,1.2,5.9l1.19-.9c-5.43.43-10.89.82-16.3,1.46-1.23.14-1.65,1.83-.18,1.65h0Z"/>
    </g>
    <g>
      <path class="cls-8" d="M227.31,531.84c-.91-.52-3.24-4.01-3.79-4.89-10.81-17.2-17.08-46.42-14.12-66.51"/>
      <path class="cls-5" d="M228.15,531.23c-1.37-.9-2.38-2.83-3.27-4.17-1.11-1.69-2.11-3.45-3.04-5.24-2.35-4.48-4.25-9.2-5.85-13.99-3.36-10.08-5.48-20.68-6.08-31.3-.3-5.39-.19-10.82.58-16.17.16-1.08-2.06-.78-2.2.18-1.46,10.09-.68,20.51,1.11,30.51,1.87,10.45,4.97,20.81,9.72,30.33,1.1,2.21,2.29,4.39,3.64,6.46,1,1.54,2.12,3.61,3.69,4.63.78.51,2.7-.57,1.68-1.24h0Z"/>
    </g>
    <g>
      <path class="cls-8" d="M231.58,541.82s7.4,2.51,42.03-14.95c34.63-17.46,33.94-21.53,33.94-21.53l-6.64-13.2s-12.22,12.29-36.47,24.08c-24.26,11.79-40.88,12.57-40.88,12.57l8.02,13.04Z"/>
      <path class="cls-5" d="M230.94,542.52c.59.2,1.3.18,1.91.17,1.86-.02,3.71-.37,5.52-.77,9.92-2.2,19.44-6.61,28.56-10.95,7.25-3.46,14.41-7.13,21.43-11.03,4.31-2.39,8.59-4.86,12.68-7.62,2.03-1.37,4.06-2.81,5.83-4.52.61-.59,1.35-1.29,1.66-2.1.33-.87-.35-1.59-.74-2.36-1.79-3.56-3.58-7.12-5.37-10.68-.14-.27-.27-.55-.41-.82-.37-.74-1.5-.49-1.99,0-1.68,1.68-3.53,3.2-5.38,4.69-5.11,4.11-10.55,7.82-16.15,11.21-14.19,8.59-29.75,15.57-46.04,18.98-2.87.6-5.83,1.17-8.77,1.31-.55.03-1.52.55-1.11,1.21,2.67,4.35,5.34,8.69,8.02,13.04.48.77,2.56,0,2-.93-2.67-4.35-5.34-8.69-8.02-13.04l-1.11,1.21c2.49-.12,4.98-.57,7.42-1.03,6.64-1.24,13.14-3.18,19.48-5.49,15.81-5.78,31.04-14.11,44.32-24.47,2.46-1.92,4.94-3.9,7.14-6.12h-1.99c1.44,2.87,2.87,5.72,4.31,8.58.71,1.41,1.36,2.87,2.14,4.25.07.12.11.28.19.38.01.02-.04-.29-.02-.12s.01-.01,0,0c-.05.09-.08.19-.14.28-.04.06-.07.12-.11.18-.13.22.09-.11-.05.07s-.3.37-.45.54c-1.24,1.38-2.64,2.4-4.21,3.53-9.13,6.58-19.43,11.69-29.46,16.71-10.12,5.06-20.57,10.11-31.54,13.09-2.22.6-4.17,1.07-6.39,1.24-.31.02-.62.04-.93.04-.26,0,.21.01-.1,0-.11,0-.21,0-.32-.01-.23-.02-.86-.08-.47-.04-.03,0-.05-.01-.08-.02-.87-.29-2.56.97-1.27,1.39Z"/>
    </g>
    <g>
      <polygon class="cls-17" points="531.23 692.23 784.84 704.53 784.84 925.5 531.23 910.63 531.23 692.23"/>
      <polygon class="cls-4" points="531.23 692.23 397.47 707.09 397.47 925.5 531.23 910.63 531.23 692.23"/>
      <polygon class="cls-30" points="651.07 945.49 397.47 925.5 397.47 707.09 651.07 721.96 651.07 945.49"/>
      <polygon class="cls-2" points="651.07 945.49 784.84 925.5 784.84 704.53 651.07 721.96 651.07 945.49"/>
    </g>
    <path class="cls-44" d="M456.41,710.55c10.79-5.82,18.27-16.17,28.83-22.41,6.14-3.63,13.1-5.64,20.07-7.17,19.88-4.38,28.37-4.79,46.26,4.94,2.53,1.38,21.38,4.94,23.9,6.32,4.3,2.35,8.16,8.2,6.24,10.52-1.92,2.32-17.22,1.08-19.96,2.34-12.71,5.84-27.21,8.34-41.19,8.58,0,0-41.86-1.33-62.88-3.05"/>
    <path class="cls-27" d="M607.03,719.93c10.84.5,44.04,2.03,44.04,2.03,0,0,47.51-6.2,63.11-8.22-11.19-2.93-17.19-12.29-27.66-17.21-18-8.47-37.87-15.51-57.47-12.1-12.76,2.22-91.25,22.23-101.37,30.31,0,0,29.91,1.86,44.11,2.16,5.69.12,35.24,3.04,35.24,3.04Z"/>
    <path class="cls-34" d="M748.66,835.45c-16.2-3.31-31.63-8.32-48.3-5.42-12.59,2.19-23.6,10.77-36.37,11.88-12.52,1.1-14.78-12.92-15.56-22.75-.7-8.86-1.01-17.83-3.15-26.47-2.12-8.51-8.41-15.09-11.54-23.2-4.58-11.87-6.17-20.85-16.25-30.51-6.83-6.55-15.04-10.19-24.16-14.5-4.2-1.99-17.47-6.16-18.55-10.52-.64-2.61,4.29-6.28,5.71-7.95,2.3-2.72,3.46-6.73,6.1-9.09,1.81-1.61,4.35-2.05,6.59-2.99,2.08-.87,3.94-2.18,5.78-3.48,4.73-3.34,9.45-6.69,14.18-10.03,9.1-6.43,18.35-12.95,28.89-16.56,9.9-3.39,20.72-4.06,30.96-1.91,9.76,2.05,18.82,6.54,27.6,11.27,15.04,8.1,28.43,17.72,34.15,34.49,4.64,13.6,12.24,24.37,20.21,36.11,8.98,13.24,10.4,28.16,11.67,43.71,1.25,15.33,5.37,29.6,12.24,43.33.13.26.27.5.41.73.09.84.12,1.7-.2,2.46-.55,1.32-1.98,1.98-3.3,2.49-.64.25-1.28.48-1.93.71-7.66,2.69-15.98,1.98-22.76-1.02-.77-.34-1.58-.6-2.43-.77Z"/>
    <path class="cls-35" d="M775.16,825.42c-16.58,6.87-33.49-2.44-49.55-6.13-16.04-3.69-33.37-2.05-48.66,3.9-4.48,1.74-8.84,4.09-13.61,4.96-3.65.66-8.32.49-10.97-2.46-.67-.75-3.37.28-2.62,1.12,2.27,2.53,5.94,3.27,9.21,3.29,4.18.02,8.2-1.22,12.05-2.76,4.1-1.64,8.09-3.46,12.32-4.75s8.47-2.22,12.8-2.81c8.54-1.17,17.31-1.04,25.77.66,9.06,1.82,17.6,5.51,26.61,7.53,9.14,2.05,19,2.31,27.78-1.33.41-.17,1.13-.66.75-1.16s-1.44-.23-1.88-.04h0Z"/>
    <path class="cls-35" d="M772.33,818.43c-8.05,2.31-16.51,1.46-24.53-.53-7.87-1.95-15.29-5.2-23.02-7.56s-15.35-3.03-23.27-2.46c-8.19.58-16.27,2.33-24.22,4.35-9.25,2.34-18.44,4.93-27.65,7.42-.23.06-1.42.37-1.32.75s1.35.03,1.51,0c8.22-2.22,16.42-4.49,24.65-6.65,8.08-2.12,16.26-4.04,24.6-4.75s16.55.18,24.55,2.77c7.51,2.43,14.78,5.5,22.48,7.34,8.7,2.09,17.73,2.57,26.4.08.22-.06,1.42-.36,1.32-.75s-1.35-.04-1.51,0h0Z"/>
    <path class="cls-35" d="M769.04,806.64c-5.12-.03-10.86-2.1-13.64-6.68-2.85-4.7-1.24-10.51,2.41-14.27l-2.69.5c2.33,3.76,2.91,8.3,1.54,12.53-.63,1.94-1.6,3.91-3.15,5.28-1.85,1.63-4.05,1.33-6.12.25-1.78-.93-3.31-2.32-4.6-3.85-1.42-1.69-2.81-3.5-3.76-5.5-1.8-3.8-1.19-8.1,2.29-10.69l-2.69.5c1.79,3.45,1.5,7.43-.38,10.78-1,1.77-2.44,3.52-4.22,4.55-1.91,1.1-4.2-.08-5.72-1.35-3.16-2.63-5.22-7-6.53-10.81-.52-1.51-.94-3.01-.75-4.62.12-1.02.79-3.46,2.06-3.59l-.71-.07c3.11,2.52,2.41,6.76.24,9.65-1.28,1.71-2.99,3.1-4.75,4.3s-3.89,2.79-5.99,3.38c-2.34.66-4.2-1.38-5.58-2.98-1.34-1.56-2.47-3.3-3.34-5.17-1.7-3.65-2.32-7.67-1.85-11.67l-2.58.91c2.86.82,5.07,3.08,5.54,6.06.51,3.21-1.28,6.29-3.39,8.57-2.24,2.42-6.21,6.23-9.78,4.78-3.02-1.22-5.08-4.83-6.43-7.61-.73-1.5-1.31-3.06-1.72-4.68-.34-1.35-.92-3.17-.17-4.49l.14-.24c.39-.41.33-.37-.18.12,0,0,.79.58.85.65.45.46.83,1.03,1.14,1.59.59,1.06.95,2.24,1.07,3.45.26,2.51-.51,5.01-1.84,7.13-.71,1.13-1.58,2.14-2.59,3.02-1.1.96-2.67,2.2-4.14,2.48-3.13.6-4.59-4.83-5.02-7.01-.6-3.03-.05-6.13,2.84-7.72l-2.49.36c1.77,3,1.7,6.56.27,9.68-.81,1.76-1.98,3.34-3.41,4.65s-3.84,3.45-5.68,1.97c-3.26-2.61-5.75-7.51-5.77-11.71,0-.89.38-1.44.68-2.22l.26-.31-.6.07c0-.14.69.34.8.42.53.43.94,1.07,1.27,1.66,1.07,1.87,1.35,4.14.81,6.23-1.28,4.95-6.37,8.07-11.23,8.4-.48.03-1.62.21-1.9.66s.25.44.65.41c5.38-.37,11.66-2.85,14.38-7.8,1.34-2.43,1.61-5.43.45-7.99-.47-1.04-1.28-2.41-2.38-2.88s-2.6-.14-3.66.33c-2.26,1.01-2.56,3.27-2.19,5.46.5,3,1.85,5.81,3.78,8.16.79.96,1.68,2.09,2.83,2.61s2.61.29,3.82-.06c2.61-.76,5.09-2.43,6.97-4.38,3.57-3.71,5.46-9.4,2.67-14.11-.36-.6-2.07.13-2.49.36-3.13,1.72-4.18,4.78-3.58,8.21.49,2.78,1.77,7.13,5.04,7.63,3.63.55,7.81-2.01,10.28-4.48,2.28-2.29,3.89-5.31,4.02-8.58.11-2.58-1.14-7.21-4.25-7.56-1.51-.17-3.65.45-4.43,1.86-.84,1.53-.19,3.58.23,5.13,1.09,3.98,3.32,8.53,6.63,11.13s8.34,1.16,11.68-.99c3.72-2.38,7.72-6.04,8.53-10.6.74-4.2-2.07-7.76-6-8.88-.55-.16-2.5.2-2.58.91-.47,3.99.15,8.02,1.85,11.67.88,1.89,2.03,3.63,3.38,5.22,1.14,1.34,2.42,2.76,4.18,3.23,3.97,1.07,8.29-1.78,11.45-3.82,3.13-2.02,6.61-4.62,7.8-8.32.49-1.52.6-3.21,0-4.72-.26-.65-.64-1.25-1.12-1.77-.69-.75-1.16-.86-2.16-.69-3.03.5-5.18,2.35-5.48,5.48-.16,1.71.34,3.3.91,4.89.75,2.07,1.71,4.06,2.85,5.94,1.88,3.09,4.38,6.29,8.28,6.58,8.67.64,15.13-10.16,11.25-17.62-.35-.67-2.31.22-2.69.5-2.82,2.1-4.21,5.57-3.36,9.02.52,2.09,1.69,3.96,2.97,5.67,1.08,1.45,2.21,2.87,3.56,4.08,2.88,2.59,6.38,3.67,10.16,2.61s5.99-3.75,7.21-7.23c1.55-4.4,1.09-9.2-1.36-13.17-.37-.6-2.33.13-2.69.5-3.84,3.96-5.72,10.11-2.51,15.05,3.07,4.73,9.04,6.71,14.44,6.75.62,0,1.5-.14,2-.54.37-.29.46-.56-.15-.57h0Z"/>
    <g>
      <g>
        <path class="cls-13" d="M372.14,231.96c-1.75-3.48-3.65-6.7-5.62-9.69-6.01-9.12-12.88-16.03-19.96-21.19,0-.01-.02,0-.03-.02-20.75-15.13-43.41-15.35-52.16-12.53-11.45,3.7-35.84,10.65-49.08,39.72-.39.82-.76,1.66-1.12,2.5-3.22,7.52-3.15,13.31-3.99,20.35-.55,4.51.09,12.53,0,15.16-.07,2.25,3.12,20.78,3.12,20.78,13.49-1.25,47.05-20.65,72.17-28.95,29.51-9.73,53.71-7.28,62.77-12.03-.52-1.13-5.56-13.01-6.11-14.08Z"/>
        <path class="cls-1" d="M239.96,260.82c0-9.06,0-16.3,2.11-24.36.36-.84.73-1.68,1.12-2.5,0,0,14.83-12.04,19.47-12.61,4.63-.59,11.12,8.19,12.27,8.41,1.15.22,7.81-11.55,12.89-13.52,5.07-1.97,14.07,7.99,15.34,7.5,1.27-.53,3.61-13.46,7.19-15.41,3.58-1.95,16.59,5.03,18.15,4.17,1.58-.87-.24-11.65,3.28-13.72,2.74-1.6,10.98.71,13.62,1.52,0,.01.02,0,.03.02,7.09,5.17,13.95,12.07,19.96,21.19-1.4-.28-12.48-2.44-15.47-.61-3,1.83-4.69,12.75-6.11,13.49-1.41.74-18.04-5.66-21.72-3.48-3.68,2.19-9.9,14.71-11.53,15.39-1.62.66-17.46-7.84-22.03-6.23-4.57,1.6-16.56,16.48-16.56,16.48,0,0-9.58-9.6-14.58-9.2-4.05.32-16.1,12.18-17.44,13.48Z"/>
        <path class="cls-1" d="M245.83,310.78c-.63-.9-12.44-18.15-5.05-28.62,15.1-21.47,123.91-47.69,137.22-40.22,13.32,7.44,10.81,23.52,10.81,23.52.02-.57-2.11-.68-5.76-.38-13.73,1.12-49.15,7.95-74.13,16.78-29.35,10.35-48.76,19.33-57.6,24.49-3.95,2.3-5.79,3.85-5.5,4.44Z"/>
      </g>
      <path class="cls-37" d="M253.54,266.43c-1.49-8.53-.32-17.07,1.78-25.39,2.09-8.3,4.87-16.33,8.29-24.17,1.96-4.49,4.07-8.9,6.21-13.31.21-.43-.98-.23-1.12-.21-.43.08-1.45.27-1.67.74-3.79,7.8-7.5,15.66-10.42,23.83s-5.24,16.38-6.23,24.8c-.56,4.82-.52,9.68.32,14.47.09.5,2.95-.12,2.84-.76h0Z"/>
      <path class="cls-37" d="M289.18,251.12c-1.73-7.49-2.81-15.03-2.63-22.73s.9-15.38.98-23.09c0-.35-2.83.01-2.84.76-.07,7.71-.8,15.39-.98,23.09s.9,15.24,2.63,22.73c.12.52,2.97-.18,2.84-.76h0Z"/>
      <path class="cls-37" d="M326.3,236.7c-1.61-5.55-3.57-11.08-6.8-15.91-2.56-3.84-5.82-7.16-8.78-10.69-2.45-2.91-4.75-5.94-6.92-9.07-.72-1.03-3.43.05-2.6,1.24,3.38,4.86,7.16,9.35,11.03,13.81,2.96,3.41,5.65,6.96,7.55,11.08,1.53,3.31,2.67,6.79,3.69,10.29.37,1.28,3.21.51,2.84-.76h0Z"/>
      <path class="cls-37" d="M356.53,228.55c-10.74-12.97-24.24-23.47-39.3-30.96-.74-.37-3.36.75-2.28,1.29,14.94,7.42,28.29,17.89,38.94,30.74.56.68,3.28-.3,2.65-1.07h0Z"/>
      <path class="cls-43" d="M365.58,243.76c5.31,4.2,8.67,10.77,8.73,17.56.01,1.34,2.87.82,2.86-.28-.06-7.38-3.6-14.23-9.36-18.79-.85-.67-3.42.57-2.22,1.51h0Z"/>
      <path class="cls-43" d="M349.24,246.56c1.22,1.5,2.85,2.58,4.18,3.98,1.28,1.34,2.37,2.85,3.23,4.49,1.66,3.17,2.45,6.74,2.26,10.32-.03.61,2.79.21,2.84-.76.2-3.68-.64-7.34-2.4-10.58-.84-1.54-1.87-2.99-3.06-4.28-1.38-1.49-3.11-2.62-4.39-4.2-.51-.63-3.23.33-2.66,1.03h0Z"/>
      <path class="cls-43" d="M329.5,249.37c2.68,3.12,6.26,5.27,8.69,8.63,2.29,3.17,3.66,6.94,4.01,10.83.07.78,2.93.2,2.84-.76-.35-3.92-1.75-7.65-4.01-10.87-2.45-3.5-6.13-5.69-8.88-8.89-.56-.66-3.27.33-2.65,1.06h0Z"/>
      <path class="cls-43" d="M308.87,254.49c4.52,6.22,7.76,13.28,9.52,20.77.2.85,3.05.13,2.84-.76-1.79-7.61-5.12-14.75-9.71-21.07-.5-.68-3.24.24-2.65,1.06h0Z"/>
      <path class="cls-43" d="M291.14,260.36c-.56,8.16,2.51,16.2,5.44,23.65.5,1.26,3.32.46,2.84-.76-1.89-4.81-3.74-9.81-4.85-14.86-.29-1.32-.35-2.71-.44-4.05s-.21-2.81-.11-4.19c.1-1.46-2.79-1.05-2.88.22h0Z"/>
      <path class="cls-43" d="M269.44,266.96c0,2.45-.21,4.88.02,7.33s.74,4.76,1.54,7.03c1.57,4.48,4.17,8.56,7.54,11.9.78.77,3.47-.32,2.62-1.16-3.27-3.24-5.8-7.14-7.33-11.5-.73-2.08-1.23-4.24-1.48-6.43-.28-2.49-.07-4.97-.06-7.47,0-1.29-2.85-.75-2.85.31h0Z"/>
      <path class="cls-43" d="M249.02,277.81c-.77,4.86.52,9.88,2.19,14.42.75,2.03,1.74,3.96,3.24,5.56,1.59,1.69,3.47,3.03,5.37,4.34,1.1.76,3.54-.75,2.17-1.7-1.78-1.23-3.62-2.46-5.09-4.07s-2.3-3.33-2.99-5.27c-1.52-4.29-2.74-8.9-2.01-13.47.24-1.49-2.67-1.17-2.88.18h0Z"/>
      <path class="cls-43" d="M287.1,195.97c1.97,1.57,1.75,5.09-.47,6.5-2.22,1.41-5.65.07-6.01-2.41.95,2.43-1.66,5.43-4.38,5.25s-4.63-3.07-4.02-5.66c-1.21,1.52-3.78,1.78-5.17.53-1.4-1.25-1.32-3.73.16-5,.83-.72,2.11-1.26,2.17-2.31.07-1.17-1.43-1.73-1.99-2.74-.63-1.13.09-2.65,1.21-3.42s2.52-.98,3.86-1.17c-1.08-2.01-1.67-4.6-.34-6.57s5.15-2.03,5.59.21c.51-2.21,1.45-4.55,3.47-5.73s5.24-.33,5.42,1.89c.64-2.05,2.64-3.87,4.82-3.73s3.78,2.83,2.42,4.54c2.31-1.52,5.48-2.3,7.75-.89,2.27,1.4,2.24,5.52-.39,6.35,1.76,1,3.39,2.32,4.25,4.11s.79,4.12-.56,5.69c-1.35,1.58-4.1,1.99-5.51.57.85,2.66.01,5.81-2.09,7.85-.54.52-1.17.98-1.9,1.15-1.48.35-2.92-.57-3.87-1.67s-1.63-2.43-2.78-3.34"/>
    </g>
    <path class="cls-39" d="M421.47,257.27c-.19-1.39-.93-2.65-2.05-3.5l-5.88-4.48-10.11-12.7s-24.74-8.76-26.48-5.21c-1.97,3.97,7.66,8.39,7.66,8.39,0,0-14.74,5.86-19.06,7.12-4.32,1.26-5.46,8.27-.32,7.72,3.39-.38,6.74-1.03,10.03-1.92,0,0-4.04,3.39-3.75,6.21.29,2.82,5.18,2.45,5.18,2.45l11.26-10.93,13.83,7.59s6.07,9.17,3.92,12.04c-2.15,2.87-7.34,1.1-7.89-.01-.96-1.84-4.68-8.32-8.81-11.22-2,2.47-.09,5.62-4.29,6.16,1.93,5.38,5.85,14.6,5.85,14.6,0,0,2.15,18.76,4.04,22.22,1.17,2.11,5.77,5.36,9.17,7.53.09-.02,3.32,1.56,3.44,1.59.23.64.98,2.58,2.16,5.5l19.51-13.77c-.78-2.73-1.96-8.41-2.4-9.27l-5.02-36.08Z"/>
    <path class="cls-39" d="M494.78,466.91c32.12-9.65,14.8-45.5,5.96-65.72-12.51-28.62-25.89-46.59-46.07-70.1-3.46-4.04-27.29-34.57-30.88-38.5l-18.36,14.88,46.72,112.67c16.23,1.53,26.36,47.23,42.63,46.77Z"/>
    <path class="cls-39" d="M410.2,259.38c-4.46-6.05-16.24-7.04-21.64-6.86-.34.01-1.43,3.07-1.45,3.41-.02.37,2.7,1.56,3,1.78,3.49,2.61,7.57,4.41,10.88,7.25s5.87,7.22,4.8,11.45c-.33,1.3-.97,2.49-1.57,3.68-1.97,3.97-3.47,8.17-4.45,12.49,0,0,11.49-1.43,15.72-6.09"/>
    <path class="cls-15" d="M399.47,291.72c.82-3.55,1.96-7.02,3.45-10.35,1.19-2.65,2.92-5.18,2.8-8.2-.21-5.37-4.71-9.36-8.9-12.08-1.48-.96-2.82-2.05-4.42-2.79-1.5-.69-3.14-1.29-4.53-2.19-.66-.43-.76-1.46-.45-2.19.85-2.02,4.79-1.69,6.59-1.65,5.6.14,11.66,1.78,15.19,6.43.18.24.88-.03.67-.31-3.17-4.19-8.4-5.99-13.46-6.48-2.17-.21-4.51-.28-6.66.13-1.41.27-3.08.96-3.19,2.6-.06.9.13,1.51.9,1.95,1.57.9,3.28,1.59,4.92,2.36s3.23,2.07,4.78,3.13c2.53,1.73,4.93,3.83,6.43,6.53.99,1.77,1.59,3.82,1.38,5.86-.21,2.03-1.29,3.79-2.15,5.6-1.79,3.75-3.14,7.68-4.07,11.73-.08.33.66.23.73-.07h0Z"/>
    <path class="cls-15" d="M412.53,249.59c-3.91-3.26-7.87-6.32-12.76-7.95-4.74-1.58-9.75-2.05-14.7-2.5-.22-.02-.84.34-.45.38,4.9.45,9.88.89,14.57,2.46,4.85,1.62,8.78,4.66,12.66,7.89.19.16.86-.12.67-.28h0Z"/>
    <path class="cls-15" d="M387.32,250.05c-3.93.27-7.82.92-11.62,1.94-.42.11-.36.37.07.25,3.68-.99,7.44-1.62,11.24-1.87.21-.01.78-.35.31-.32h0Z"/>
    <path class="cls-15" d="M446.94,409.9c1.46,3.29,2.72,6.68,4.49,9.82,1.69,2.98,4.03,5.56,6.43,7.99,4,4.04,8.66,6.6,13.75,9.02.45.22,1.82-.51,1.65-.59-4.97-2.36-9.56-4.84-13.49-8.76-2.57-2.56-5.03-5.29-6.79-8.48s-2.9-6.3-4.3-9.47c-.18-.41-1.88.18-1.75.47h0Z"/>
    <path class="cls-39" d="M268.84,584.13s8.12,14.62,28.98,19.43c20.86,4.81,34.58-13.29,34.58-13.29l-32.72-37.43-30.84,31.29Z"/>
    <path class="cls-39" d="M489.19,501.62c-5.47,4.72-12.92,10.93-14.21,10.91s-9.85,1.11-17.35,2.12c-3.79.68-7.51-1.61-8.3-5.11-.21-.91,16.43-8.28,12.44-15.16l-15.4,3.42c-4.8,1.77-9.33,4.11-13.48,6.95-4.92,3.82-17.06,22.65-17.06,22.65l-19.71,3.94,11.83,27.2,18.55-7.26,20.6,1.82s36.24-5.95,39.91-9.54c3.67-3.59,6.17-14.33,6.17-14.33,5.65-3.94,4.11-12.91,4.11-12.91,6.97-9.34-.89-9.46-.89-9.46.32-.26.55-.6.66-.99,1.3-4.12-4.63-7.1-7.87-4.27Z"/>
    <path class="cls-50" d="M460.89,522.96c2.1.55,4.28.8,6.45.75,5.25.39,10.49-.36,15.32-2.19,4.61-2.23,8.47-5.55,11.21-9.64,1.31-1.53,2.35-3.24,3.08-5.08"/>
    <path class="cls-50" d="M464.08,530.85c1.85.77,3.87,1.12,5.87.99l6.42-.25c2.68-.19,5.27-.9,7.62-2.07,2.14-1.34,4.11-2.91,5.85-4.67l4.24-4.15c1.42-1.2,2.64-2.58,3.62-4.11"/>
    <path class="cls-49" d="M468.63,539.97c.07.63,6.6,0,14.35-1.23,1.07-.19,2.06-.64,2.87-1.29.73-.51,1.42-1.06,2.06-1.65,1.11-.97,4.05-4.78,4.93-5.93"/>
    <path class="cls-15" d="M313.06,549.84c-6.53,5.82-9.7,14.89-8.17,23.51.11.64,1.87.22,1.75-.47-1.47-8.31,1.54-17.09,7.84-22.7.76-.68-.96-.75-1.42-.34h0Z"/>
    <path class="cls-39" d="M666.87,403.58l19.14,11.27-11.87-.64c-4.67-2.02-9.57-3.45-14.59-4.25-3.23.38-3.62,5.15-3.62,5.15l36.58,14.72,17.01,9.72c6.56,3.75,14.62,3.73,21.16-.06l26.19-15.15-4-20.03-2.13-21.27-3.02-11.36-9.53-14.84s-5.95.38-4.25,8.17c1.7,7.78,3.06,12.29,3.06,12.29l-.55,12.38-5.49,1.32-32.75-17.06-8.51-9.06s-4.42-12.63-13.36-14.59c-.34-.06-.69-.03-1.01.1-.94.37-1.4,1.43-1.03,2.37l8.97,22.29,9.83,8.97-13.06-6.68s-11.48-15.48-18.33-18.03c-6.85-2.55-5.49,2.64-5.49,2.64l11.87,22.29,16.8,13.53-13.48-6.38-15.18-11.87s-4.89-3.49-7.36,0c-.94,1.26-.94,2.99,0,4.25l17.99,19.82Z"/>
    <path class="cls-15" d="M725.77,418.85l6.47,4.92c-3.83-1.97-7.61-3.89-11.73-5.87-2.59-1.25-5.18-2.44-7.76-3.63,4.41,1.69,8.76,3.19,13.03,4.58Z"/>
    <path class="cls-36" d="M659.29,326.5s-19.68-20.42-32.58-40.85c0,0,15.26,14.88,32.58,40.85Z"/>
    <path class="cls-36" d="M649.11,340.26s-37.04-9.53-62.29-23.67c0,0,28.25,8.95,62.29,23.67Z"/>
    <path class="cls-36" d="M646.74,359.93s-31.21,4.53-55.01,1.81c0,0,24.35-2.18,55.01-1.81Z"/>
    <path class="cls-36" d="M694.56,322.29s11.5-30.46,21.33-47.04c0,0-7.06,22.26-21.33,47.04Z"/>
    <path class="cls-36" d="M708.2,332.65s27-24.98,45.26-36.71c0,0-18.39,18.95-45.26,36.71Z"/>
    <path class="cls-36" d="M676.45,319.87s-9.5-37.56-9.1-66.02c0,0,6.41,27.44,9.1,66.02Z"/>
    <path class="cls-15" d="M844.28,451.4c8.26,3.48,16.3,7.47,24.28,11.56,8.65,4.44,17.4,8.7,26.05,13.14.47.24,2.08-.46,1.4-.81-8.65-4.45-17.4-8.7-26.05-13.14-7.97-4.09-16.02-8.08-24.28-11.56-.49-.21-2.09.52-1.4.81h0Z"/>
    <path class="cls-9" d="M1000.85,324.34c6.71,43.48,8.95,87.23,6.69,130.61-17.95,1.6-36.2,1.68-54.38.24-11.73-44.29-14.96-89.72-9.54-134.05"/>
    <path class="cls-11" d="M960.7,478.5c-3.83-6.8-6.85-14.52-4.91-22.4.25-1-2.27-.65-2.49.27-2.01,8.16,1.15,16.1,5.11,23.14.44.78,2.85-.03,2.3-1.01h0Z"/>
    <path class="cls-11" d="M986.66,475.91c-3.32-5.77-5.98-11.89-5.16-18.7.12-1.03-2.38-.59-2.49.29-.41,3.42-.07,6.84.97,10.12,1.04,3.27,2.67,6.31,4.38,9.28.42.74,2.84-.05,2.3-.99h0Z"/>
    <path class="cls-11" d="M973.89,477.12c-4.69-5.7-5.3-13.81-4.97-20.89.05-1.01-2.44-.51-2.48.31-.35,7.35.27,15.63,5.15,21.55.54.65,2.93-.22,2.31-.97h0Z"/>
    <path class="cls-11" d="M980.27,476.46c-1.69-2.95-3.26-6-4.22-9.28s-1.23-6.67-.85-10.07c.13-1.15-2.39-.76-2.5.24-.39,3.53-.14,7.08.87,10.49s2.66,6.58,4.42,9.65c.49.85,2.88,0,2.29-1.04h0Z"/>
    <path class="cls-11" d="M967.58,476.97c-4.57-5.89-5.9-13.5-4.94-20.78.16-1.23-2.37-.89-2.51.2-1,7.58.42,15.53,5.17,21.66.67.87,3.04-.1,2.28-1.08h0Z"/>
    <path class="cls-11" d="M993.07,477.17c-4.51-5.8-6.11-13.07-5.46-20.31.08-.87-2.4-.38-2.47.36-.68,7.49.94,14.88,5.61,20.88.46.59,2.85-.25,2.32-.92h0Z"/>
    <path class="cls-11" d="M999.62,476.75c-.55-3.35-2.98-5.77-4.38-8.76-1.58-3.37-1.44-7.14-1.44-10.77,0-.67-2.48-.23-2.48.67,0,3.63-.14,7.4,1.44,10.77,1.4,2.98,3.83,5.41,4.38,8.76.12.75,2.62.18,2.48-.67h0Z"/>
    <path class="cls-11" d="M1005.4,475.25c-3.74-5.5-5.93-12.16-4.33-18.79.26-1.1-2.26-.77-2.5.23-1.67,6.91.66,13.88,4.55,19.6.57.84,2.96-.06,2.29-1.05h0Z"/>
    <path class="cls-11" d="M1010.75,476.04c-2.19-6.32-5.78-12.84-4.19-19.73.24-1.05-2.28-.7-2.5.26-1.63,7.04,1.96,13.67,4.2,20.13.34.98,2.81.29,2.48-.67h0Z"/>
    <g class="cls-48">
      <path class="cls-11" d="M926.74,338.87s63.6,6.58,93.16-3.48l1.17,14.87s-71.59,12.41-91.37,1.33l-2.96-12.72Z"/>
      <path class="cls-11" d="M927.56,366.87s63.6,6.58,93.16-3.48l1.17,14.87s-71.59,12.41-91.37,1.33l-2.96-12.72Z"/>
      <path class="cls-11" d="M927.56,397.05s63.6,6.58,93.16-3.48l1.17,14.87s-71.59,12.41-91.37,1.33l-2.96-12.72Z"/>
      <path class="cls-11" d="M931.88,427.22s63.6,6.58,93.16-3.48l1.17,14.87s-71.59,12.41-91.37,1.33l-2.96-12.72Z"/>
    </g>
    <path class="cls-45" d="M943.9,280.62c-3.8,8.84,12.19,24.36,33.58,16.98,21.7-7.48,44.65-28.93,62.15-50.97,5.55.69,12.15,1.65,17.7,5.62,6.87,4.91,12.76,10.04,17.95,16.61.5.64.98,1.29,1.46,1.94-28.47,38.73-71.65,89.4-118.82,82.84-33.61-4.67-48.41-39.48-60.21-45.18.06-2.46,7.2-8.68,7.87-11.02,0,0,9.67-11.47,19.33-16.64s18.97-.19,18.97-.19Z"/>
    <g class="cls-51">
      <path class="cls-11" d="M919.94,291.3c-6.42,16.8-8.12,35.26-4.86,52.89.92,4.96,2.23,9.89,4.44,14.46.49,1.01,1.06,2.05,2.04,2.64.93.56,2.07.64,3.16.7,3.64.21,7.29.41,10.93.62-11.58-23.19-11.73-51.42-.42-74.73"/>
      <path class="cls-11" d="M950.86,291.24c-3.14,22.25-.81,45.2,6.73,66.43.63,1.78,1.47,3.73,3.24,4.52,1.3.57,2.81.38,4.22.17,8.8-1.28,17.61-2.57,26.41-3.85-14.96-19.14-22.25-43.75-20.02-67.65"/>
      <path class="cls-11" d="M985.52,287.93c16.92,15.1,27.12,37,27.61,59.24,6.35-3.41,11.38-8.67,16.3-13.84.88-.93,1.79-1.91,2.1-3.13.23-.9.1-1.84-.05-2.76-1.23-7.51-4.05-14.68-7.13-21.67-2.47-5.59-5.17-11.21-9.38-15.73-4.21-4.52-10.17-7.87-16.46-7.7"/>
      <path class="cls-11" d="M1013.13,268.72c3.3-.94,6.64,1.2,9.22,3.4,14.86,12.62,23.97,31.35,24.55,50.46,4.35-6.21,8.7-12.42,13.05-18.64.95-1.36,1.93-2.78,2.18-4.41.31-2.03-.56-4.05-1.48-5.9-7.78-15.53-21.08-28.41-37.14-35.96"/>
    </g>
    <path class="cls-45" d="M916.86,294.3c-9.3,5.66-15.02,16.26-18.99,26.91-20.25,54.25-5.29,115.81-19.73,172.16,15.35,2.47,27.23,6.28,42.83,6.9,5.78.23,16.91,4.92,17.45,3.31,2.26-6.78,1.09-27.19.91-34.39-1.56-60.64,12.23-121.65,39.51-174.79-3.35-2.01-7.13-5.59-10.83-6.66-12.72-3.69-40.29-10.79-57,4.78"/>
    <g class="cls-52">
      <path class="cls-11" d="M881.48,349.23s58.8,10.72,86.93,2.61l.19,14.92s-67.39,7.71-85.14-4.64l-1.98-12.88Z"/>
      <path class="cls-11" d="M880.6,376.49s56.93,19.05,85.82,15.05l-1.68,14.81s-67.75-2.03-83.79-16.81l-.35-13.05Z"/>
      <path class="cls-11" d="M878.82,406.7s56.93,19.05,85.82,15.05l-1.68,14.81s-67.75-2.03-83.79-16.81l-.35-13.05Z"/>
      <path class="cls-11" d="M868.96,433.83s56.93,19.05,85.82,15.05l-1.68,14.81s-67.75-2.03-83.79-16.81l-.35-13.05Z"/>
      <path class="cls-11" d="M863.64,464.12s57.71,16.13,86.39,10.66l-1.02,14.88s-67.76,1.43-84.44-12.52l-.93-13.02Z"/>
      <path class="cls-11" d="M886.85,319.03s58.8,10.72,86.93,2.61l.19,14.92s-67.39,7.71-85.14-4.64l-1.98-12.88Z"/>
      <path class="cls-11" d="M891.94,290.36s58.8,10.72,86.93,2.61l.19,14.92s-67.39,7.71-85.14-4.64l-1.98-12.88Z"/>
    </g>
    <path class="cls-39" d="M1111.21,386.75c16.54-31.19-6.22-55.38-31.56-60.62-12.83-2.65-24.9,20.01-24.9,20.01-36.8,32.59-112.87,137.39-127.27,158.17,3.06,3.5,8.63,4.2,10.88,8.28,7.84,14.27,17.06,13.47,16.78,29.67-.14,8.04.22,22.01-2.23,29.79,21.81-5.94,37.57-31.12,52.37-46.95,22.28-23.83,41.81-49.87,61.67-75.68,15.4-20,32.38-40.28,44.26-62.67Z"/>
    <path class="cls-39" d="M918.59,566.8s11.54,13.02,35.98,5.25c24.43-7.76,27.54-55.3,28.45-75.6.94-20.82-61.7,10.96-61.7,10.96l-2.73,59.38Z"/>
    <path class="cls-39" d="M913.61,567.47c6.65,2.75,13.93,6.38,20.82,6.71.67-.78.66-.79,1.29-1.6,9.18-11.91,14.82-26.68,16.86-41.52,1.41-10.25,5.56-17.82,2.31-27.78-1.72,1.1-7-1.74-7-1.74l-150.84-74.13s-23.64,19.83-23.64,19.83c42.75,46.63,83.31,83.14,136.31,117.73,1.29.84,2.59,1.69,3.89,2.51Z"/>
    <path class="cls-15" d="M948.99,518.76c.19-5.67-.83-11.36-4.06-16.12-2.14-3.15-5.08-5.56-8.33-7.5-.99-.59-2.11-1.08-3-1.83-.45-.38-2.07.3-1.63.67.72.6,1.6,1.03,2.4,1.49,1.32.77,2.62,1.58,3.84,2.51,3.48,2.67,6.15,6.2,7.59,10.35,1.19,3.42,1.56,7.05,1.43,10.65-.02.68,1.73.32,1.74-.23h0Z"/>
    <path class="cls-39" d="M801.59,475.7l-49.49-12.35-23.84-16.74c-8.3-3.64-16.4-7.74-24.24-12.28-3.03-2.7-1.58-4.52-.36-5.82,1.23-1.3,21.11,4.37,21.11,4.37,0,0-25.89-10.94-28.66-15.34-2.77-4.41.4-7.2,2.77-8.45,2.37-1.25,42.54,19.22,42.54,19.22l-15.3-11.69s-24.24-7.52-28.44-12.52c-4.2-5,1.41-10.29,1.41-10.29l29.08,10.64,19.94,8.3-18.99-11.56s-20.97-7.56-23.67-12.92c-2.7-5.36,4.38-7.77,4.38-7.77l30.79,9.62,30.74,16.7c-2.57-3.85-5.69-6.09-7.1-10.5-1.84-6.44,2.9-6.34,2.9-6.34l26.51,16.52,17.66,30.51-9.76,38.7Z"/>
    <path class="cls-15" d="M882.13,545.08c-15.27-10.76-30.28-21.89-44.44-34.08-7.24-6.24-14.27-12.71-21.17-19.32-4-3.83-7.97-7.71-11.9-11.62-1.06-1.06-2.13-2.11-3.19-3.17-.46-.46-.91-.91-1.37-1.37-.58-.58-1.37-1.74-2.09-2.1-.19-.1-.41-.12-.61-.18-9.53-2.38-19.06-4.76-28.59-7.13-5.04-1.26-10.08-2.51-15.11-3.77-1.19-.3-2.39-.57-3.57-.89-.37-.1-.16-.02-.32-.12-.63-.39-1.2-.92-1.79-1.36-6.19-4.66-12.51-9.21-19.13-13.25-3.52-2.15-7.18-4.09-10.89-5.89-.96-.47-2.48-1.49-3.58-.76-.17.11-.51.28-.3.51.32.35,1.95-.28,1.64-.61,0,0,.04.1.03.04,0,.05-1.25.73-1.43.58.05.04.17.04.23.07.69.35,1.43.62,2.12.97,3.68,1.81,7.32,3.74,10.81,5.89,6.46,3.97,12.64,8.41,18.7,12.96.72.54,1.47,1.33,2.32,1.65.96.36,2.06.51,3.05.76,4.71,1.18,9.42,2.35,14.14,3.53,9.82,2.45,19.64,4.9,29.47,7.35.34.08.79.12,1.1.28.05.02.12.01.17.04.43.25.95,1.01,1.3,1.36.57.58,1.15,1.15,1.72,1.73,3.96,3.96,7.94,7.89,11.96,11.79,6.87,6.66,13.85,13.2,21.03,19.52,13.37,11.77,27.5,22.58,41.99,32.93,2.02,1.44,4.04,2.88,6.07,4.3.42.29,1.94-.4,1.64-.61h0Z"/>
    <path class="cls-15" d="M770.52,406.07h0c-.59.05-1.14.86-.29,1,3.46.57,6.68,1.75,9.33,4.09,2.41,2.13,4.28,4.82,6.41,7.21.41.46,1.69-.08,1.24-.6-2.22-2.51-4.19-5.31-6.74-7.52-2.77-2.4-6.19-3.6-9.77-4.18l-.29,1h0c.76-.06,1.04-1.08.12-1h0Z"/>
    <path class="cls-15" d="M762.61,401.61c-7.05-4.04-14.11-8.08-21.16-12.13-1.68-.97-3.47-1.41-5.33-1.99-4.89-1.53-9.78-3.06-14.67-4.58-3.82-1.19-7.64-2.39-11.46-3.58-.88-.27-1.4-.15-2.25.26-1.92.92-3.94,2.46-4.38,4.67-.46,2.35.99,4.31,2.68,5.73,2.1,1.76,4.57,3.1,7,4.35,4.49,2.3,9.16,4.26,13.88,6.03.93.35.83.3,1.69.82,1.76,1.07,3.51,2.14,5.27,3.21,4.01,2.44,8.03,4.89,12.04,7.33l.79.48.92-.83c-6.6-2.74-13.16-5.59-19.8-8.23-6.61-2.63-13.39-4.91-20.08-7.35-3.05-1.12-6.1-2.23-9.15-3.35-.33-.12-.71.03-.96.26-1.41,1.34-2.52,3.22-2.94,5.12-.59,2.7.65,5.22,2.77,6.86,3.91,3.05,8.99,4.86,13.56,6.64,4.24,1.65,8.54,3.15,12.88,4.54.3.09.63.16.91.29-.26-.12.38.32.5.41l4.6,3.51c3.36,2.57,6.72,5.13,10.09,7.7l1.05-.77c-10.45-5.33-20.98-10.57-31.69-15.35-2.62-1.17-5.26-2.34-7.97-3.29-.77-.27-1.56-.55-2.37-.68-1.15-.18-1.94.37-2.88,1.05-1.4,1.02-3.89,3.48-2.61,5.45.67,1.03,1.96,1.9,2.9,2.66,3.57,2.9,7.62,5.01,11.71,7.06,6.83,3.42,13.73,6.69,20.65,9.91l.79-.89c-6.33-1.8-12.72-3.59-19.18-4.86-1.2-.24-2.49-.55-3.73-.48-1.31.07-3.95.76-4.72,2.04-.63,1.05.62,2.77,1.24,3.52,1.43,1.74,3.37,2.93,5.29,4.06,3.46,2.04,7.06,3.86,10.68,5.6.54.26,1.56-.52.79-.89-2.84-1.36-5.64-2.8-8.4-4.32-2.9-1.61-7.97-3.92-8.37-7.67-.03-.29-.17.17-.05.04.18-.19.42-.34.64-.48.82-.51,1.91-.9,2.88-.92,1.14-.02,2.36.3,3.48.52,3.79.76,7.54,1.75,11.28,2.74,2.47.65,4.93,1.32,7.38,2.02.54.15,1.59-.52.79-.89-5.65-2.64-11.29-5.31-16.89-8.06-3.28-1.61-6.6-3.18-9.75-5.03-2.3-1.35-4.5-2.89-6.51-4.65-1.16-1.02-2.31-1.78-1.52-3.51.57-1.24,2.37-2.78,3.26-3.08-.1.03.02,0,.31.04.73.12,1.44.38,2.13.62,2.5.88,4.94,1.95,7.36,3.02,6.66,2.95,13.22,6.14,19.76,9.36,4.11,2.02,8.2,4.06,12.28,6.14.46.23,1.7-.27,1.05-.77-2.75-2.1-5.5-4.2-8.24-6.3l-5.23-4c-.64-.49-1.29-1.14-2.02-1.48-.97-.45-2.11-.68-3.13-1.01-2.19-.73-4.37-1.48-6.54-2.27-5.03-1.83-10.16-3.73-14.83-6.38-2.25-1.28-4.6-2.83-5.07-5.59-.43-2.52.97-5.19,2.77-6.9l-.96.26c7.15,2.61,14.29,5.23,21.44,7.84,5.6,2.05,11.08,4.22,16.58,6.51,3.67,1.53,7.34,3.05,11,4.58.43.18,1.55-.45.92-.83-2.99-1.82-5.98-3.64-8.96-5.46-2.16-1.32-4.32-2.63-6.48-3.95-1.14-.7-2.27-1.5-3.47-2.11-.74-.38-1.58-.62-2.36-.92-2.21-.85-4.4-1.75-6.57-2.7-2.75-1.2-5.48-2.49-8.1-3.96-2.05-1.15-4.27-2.41-5.84-4.19-1.83-2.08-1.67-4.85.46-6.62.71-.59,1.51-1.03,2.35-1.4.73-.32-.44-.27-.01-.05,1.04.53,2.38.74,3.49,1.09,2.11.66,4.21,1.32,6.32,1.97,4.88,1.53,9.77,3.05,14.65,4.58,1.64.51,3.28,1.03,4.92,1.54.36.11.73.21,1.08.34.17.06-.11-.08.25.13,7.15,4.05,14.27,8.18,21.4,12.26.22.13.44.25.66.38.5.29,1.69-.4,1.05-.77h0Z"/>
    <path class="cls-10" d="M1093.74,283.57s48.74,43.17,41.29,78.5c-7.46,35.32-49.16,85.95-49.16,85.95,0,0-85.84-28.18-87.37-65.45-.04-.95,8.74-12.98,15.12-22.57,21.58-32.44,80.12-76.42,80.12-76.42Z"/>
    <path class="cls-28" d="M1091.07,298.14c-9.5.61-18.97,2.36-27.79,6.02-7.33,3.04-14.02,7.43-19.83,12.83-11.83,10.99-19.86,25.37-28.31,38.95-5.49,8.82-11.19,17.5-17.67,25.62-.33.41.28.66.59.7.51.06,1.05-.2,1.37-.59,10.87-13.62,19.24-28.85,28.8-43.36,8.46-12.83,18.48-24.87,32.58-31.68,9.37-4.52,19.67-6.55,30.01-7.22,1.08-.07,1.69-1.37.25-1.27h0Z"/>
    <path class="cls-28" d="M1071.39,443.85c.48.34,1.16.49,1.71.69,1.12.4,2.26.77,3.39,1.13,1.76.56,3.73,1.43,5.58,1.58,1.14.09,2.25-.45,2.94-1.34,1.37-1.8,2.88-3.49,4.34-5.23,2.72-3.25,5.38-6.54,7.97-9.89,8.17-10.56,15.14-21.91,22.79-32.84,3.67-5.24,6.9-10.56,9.31-16.51.14-.34-1.84-.16-2.05.37-2.01,4.98-4.56,9.6-7.59,14.03-3.76,5.5-7.58,10.93-11.2,16.52-7.44,11.53-15.9,22.23-24.72,32.72-.26.3-.48.62-.72.94-.05.06-.41.47-.39.52.01.04.83-.12.84-.11-.01-.06-.83-.19-.93-.22-1.16-.31-2.31-.66-3.46-1.02-1.27-.4-2.54-.8-3.8-1.24-.65-.22-1.47-.39-2.04-.79-.47-.33-2.25.5-1.96.71h0Z"/>
  </g>
</svg>