<?xml version="1.0" encoding="UTF-8"?>
<svg id="Layer_5" data-name="Layer 5" xmlns="http://www.w3.org/2000/svg" xmlns:xlink="http://www.w3.org/1999/xlink" viewBox="0 0 1334 1000">
  <defs>
    <style>
      .cls-1 {
        fill: #bd3826;
      }

      .cls-1, .cls-2, .cls-3, .cls-4, .cls-5, .cls-6, .cls-7, .cls-8, .cls-9, .cls-10, .cls-11, .cls-12, .cls-13, .cls-14, .cls-15, .cls-16, .cls-17, .cls-18, .cls-19, .cls-20, .cls-21, .cls-22, .cls-23, .cls-24, .cls-25, .cls-26, .cls-27, .cls-28, .cls-29, .cls-30, .cls-31, .cls-32, .cls-33, .cls-34, .cls-35, .cls-36, .cls-37, .cls-38, .cls-39, .cls-40, .cls-41, .cls-42, .cls-43, .cls-44, .cls-45, .cls-46, .cls-47 {
        stroke-width: 0px;
      }

      .cls-2 {
        fill: #d67d28;
      }

      .cls-3 {
        fill: #010101;
      }

      .cls-4 {
        fill: #aa6333;
      }

      .cls-5 {
        fill: #67876f;
      }

      .cls-6 {
        fill: #a83231;
      }

      .cls-7 {
        fill: #c7cd8d;
      }

      .cls-48 {
        clip-path: url(#clippath);
      }

      .cls-8, .cls-49 {
        fill: none;
      }

      .cls-9 {
        fill: #a7bcac;
      }

      .cls-10 {
        fill: #d8aa29;
      }

      .cls-11 {
        fill: #c95744;
      }

      .cls-12 {
        fill: #4454a5;
      }

      .cls-13 {
        fill: #f2ebd1;
      }

      .cls-14 {
        fill: #f26a51;
      }

      .cls-15 {
        fill: #ce8d2a;
      }

      .cls-16 {
        fill: #4f2e25;
      }

      .cls-17 {
        fill: #5e3527;
      }

      .cls-50 {
        clip-path: url(#clippath-1);
      }

      .cls-18 {
        fill: #9b5524;
      }

      .cls-19 {
        fill: #151210;
      }

      .cls-20 {
        fill: #000;
      }

      .cls-49 {
        stroke: #4f2e25;
        stroke-miterlimit: 10;
        stroke-width: 1.18px;
      }

      .cls-21 {
        fill: #653c29;
      }

      .cls-22 {
        fill: #1d170f;
      }

      .cls-23 {
        fill: #31160e;
      }

      .cls-24 {
        fill: #231f20;
      }

      .cls-25 {
        fill: #13110f;
      }

      .cls-26 {
        fill: #a67351;
      }

      .cls-27 {
        fill: #0a2f44;
      }

      .cls-28 {
        fill: #6c256d;
      }

      .cls-29 {
        fill: #661d0d;
      }

      .cls-30 {
        fill: #24180f;
      }

      .cls-31 {
        fill: #e79731;
      }

      .cls-32 {
        fill: #b3b2ab;
      }

      .cls-33 {
        fill: #111424;
      }

      .cls-34 {
        fill: #719991;
      }

      .cls-35 {
        fill: #709199;
      }

      .cls-36 {
        fill: #2d4a4f;
      }

      .cls-37 {
        fill: #b12024;
      }

      .cls-38 {
        fill: #fff;
      }

      .cls-39 {
        fill: #a66e53;
      }

      .cls-40 {
        fill: #1d3942;
      }

      .cls-41 {
        fill: #df8c26;
      }

      .cls-42 {
        fill: #b15e27;
      }

      .cls-43 {
        fill: #721117;
      }

      .cls-44 {
        fill: #db5434;
      }

      .cls-45 {
        fill: #ecbf2c;
      }

      .cls-46 {
        fill: #f1eef7;
      }

      .cls-47 {
        fill: #070808;
      }
    </style>
    <clipPath id="clippath">
      <path class="cls-8" d="M515.85,515.16c9.84,7.84,25.6,32.94,29.19,56.05,3.1,19.99,39.38,200.31,64.9,209.07-16.78,10.71-91.42,2.11-108.77-7.26-6.5-3.51-28.32-100.78-31.17-101.76-3.6-1.24,7.06-20.74,5.59-23.87-8.83-18.71-5.43-38.68-10.32-58.53-4.89-19.85-5.63-40.97,1.69-60.46"/>
    </clipPath>
    <clipPath id="clippath-1">
      <path class="cls-8" d="M528.52,522.86c-19.9-15.46-47.17-17.59-72.2-14.69-12.54,1.45-25.56,4.29-35.17,12.48-10.25,8.74-15.04,22.22-18.24,35.31-8.22,33.67-8.68,68.68-9.11,103.34,28.36,9.71,57.96,15.76,87.86,17.96,1.42.1,2.96.17,4.15-.61,1.89-1.24,2-3.92,1.94-6.18-1.37-51.19,13.26-102.68,41.33-145.5"/>
    </clipPath>
  </defs>
  <polyline class="cls-13" points="1378.51 1047.91 1378.51 -78.93 -59.33 -78.93 -59.33 1047.91"/>
  <g id="freepik--Nightstand--inject-2">
    <rect class="cls-17" x="113.7" y="276.62" width="622.9" height="465.58"/>
  </g>
  <path class="cls-20" d="M141.19,668.9c5.07,0,10.14,0,15.21,0,13.67,0,27.34,0,41.01,0,20.27,0,40.54,0,60.81,0,24.73,0,49.46,0,74.18,0,26.99,0,53.98,0,80.97,0,27.43,0,54.86,0,82.29,0,25.4,0,50.8,0,76.2,0,21.54,0,43.08,0,64.63,0h46.46c7.32,0,14.64.05,21.96,0,.32,0,.64,0,.96,0,.63,0,1.87-.29,1.87-1.1,0-6.49,0-12.98,0-19.46,0-15.48,0-30.97,0-46.45,0-18.82,0-37.64,0-56.46,0-16.2,0-32.39,0-48.59v-16.05c0-1.69,0-3.37,0-5.06,0-.71.25-1.98,0-2.65-.03-.09,0-.24,0-.33,0-.32-.62-.38-.81-.38-5.07,0-10.14,0-15.21,0h-41.01c-20.27,0-40.54,0-60.81,0h-74.18c-26.99,0-53.98,0-80.97,0-27.43,0-54.86,0-82.29,0h-76.2c-21.54,0-43.08,0-64.63,0-15.49,0-30.98,0-46.46,0-7.32,0-14.64-.05-21.96,0-.32,0-.64,0-.96,0-.63,0-1.87.29-1.87,1.1,0,6.49,0,12.98,0,19.46,0,15.48,0,30.97,0,46.45,0,18.82,0,37.64,0,56.46,0,16.2,0,32.39,0,48.59,0,5.35,0,10.7,0,16.05v5.06c0,.71-.25,1.98,0,2.65.03.09,0,.24,0,.33,0,.78,2.69.3,2.69-.72,0-6.49,0-12.98,0-19.46,0-15.48,0-30.97,0-46.45,0-18.82,0-37.64,0-56.46,0-16.2,0-32.39,0-48.59,0-5.35,0-10.7,0-16.05v-5.06c0-.72.25-1.97,0-2.65-.03-.09,0-.24,0-.33l-1.87,1.1c5.07,0,10.14,0,15.21,0h41.01c20.27,0,40.54,0,60.81,0h74.18c26.99,0,53.98,0,80.97,0,27.43,0,54.86,0,82.29,0h76.2c21.54,0,43.08,0,64.63,0,15.49,0,30.98,0,46.46,0,7.23,0,14.75.6,21.96,0,.32-.03.64,0,.96,0l-.81-.38c0,6.49,0,12.98,0,19.46,0,15.48,0,30.97,0,46.45,0,18.82,0,37.64,0,56.46,0,16.2,0,32.39,0,48.59v16.05c0,1.69,0,3.37,0,5.06,0,.72-.25,1.97,0,2.65.03.09,0,.24,0,.33l1.87-1.1c-5.07,0-10.14,0-15.21,0h-41.01c-20.27,0-40.54,0-60.81,0-24.73,0-49.46,0-74.18,0-26.99,0-53.98,0-80.97,0-27.43,0-54.86,0-82.29,0h-76.2c-21.54,0-43.08,0-64.63,0h-46.46c-7.32,0-14.64-.05-21.96,0-.32,0-.64,0-.96,0-.98,0-2.86,1.48-1.06,1.48Z"/>
  <path class="cls-20" d="M141.19,450.39c5.07,0,10.14,0,15.21,0,13.67,0,27.34,0,41.01,0,20.27,0,40.54,0,60.81,0,24.73,0,49.46,0,74.18,0,26.99,0,53.98,0,80.97,0h82.29c25.4,0,50.8,0,76.2,0,21.54,0,43.08,0,64.63,0h46.46c7.32,0,14.64.05,21.96,0,.32,0,.64,0,.96,0,.63,0,1.87-.29,1.87-1.1,0-16.38,0-32.77,0-49.15,0-26.11,0-52.22,0-78.33,0-5.99,0-11.98,0-17.97,0-.32-.62-.38-.82-.38-5.07,0-10.14,0-15.21,0-13.67,0-27.34,0-41.01,0-20.27,0-40.54,0-60.81,0-24.73,0-49.46,0-74.18,0-26.99,0-53.98,0-80.97,0-27.43,0-54.86,0-82.29,0-25.4,0-50.8,0-76.2,0-21.54,0-43.08,0-64.63,0-15.49,0-30.98,0-46.46,0-7.32,0-14.64-.05-21.96,0-.32,0-.64,0-.96,0-.63,0-1.87.29-1.87,1.1,0,16.38,0,32.77,0,49.15,0,26.11,0,52.22,0,78.33,0,5.99,0,11.98,0,17.97,0,.79,2.69.3,2.69-.72,0-16.38,0-32.77,0-49.15,0-26.11,0-52.22,0-78.33,0-5.99,0-11.98,0-17.97l-1.87,1.1c5.07,0,10.14,0,15.21,0,13.67,0,27.34,0,41.01,0,20.27,0,40.54,0,60.81,0,24.73,0,49.46,0,74.18,0,26.99,0,53.98,0,80.97,0,27.43,0,54.86,0,82.29,0,25.4,0,50.8,0,76.2,0,21.54,0,43.08,0,64.63,0,15.49,0,30.98,0,46.46,0,7.23,0,14.75.6,21.96,0,.32-.03.64,0,.96,0l-.82-.38c0,16.38,0,32.77,0,49.15v78.33c0,5.99,0,11.98,0,17.97l1.87-1.1c-5.07,0-10.14,0-15.21,0-13.67,0-27.34,0-41.01,0-20.27,0-40.54,0-60.81,0-24.73,0-49.46,0-74.18,0-26.99,0-53.98,0-80.97,0h-82.29c-25.4,0-50.8,0-76.2,0-21.54,0-43.08,0-64.63,0h-46.46c-7.32,0-14.64-.05-21.96,0-.32,0-.64,0-.96,0-.98,0-2.86,1.48-1.06,1.48Z"/>
  <path class="cls-10" d="M516.96,518.28c15.25,15.13,16.77,19.29,25.07,40.53,5.57,14.26,23.44,143.44,51.08,169.74-18.69,16.57-86.13-16.37-106.35-13.77-3.03.39-31.86-87.4-34.62-88.3-3.49-1.13,19.79-14.77,18.56-17.2-7.4-14.56-3.32-22.59-6.71-37.78-3.39-15.19-2.54-31.1,6.23-45.32"/>
  <g class="cls-48">
    <path class="cls-12" d="M467.1,620.68s82.03-21.22,113.81-45.18l8.65,15.46s-82.75,45.17-112.64,42.07l-9.82-12.35Z"/>
    <path class="cls-12" d="M455.83,650.17s84.32-11.5,119.39-31.6l6.18,16.37s-88.69,35.22-117.76,28.64l-7.81-13.42Z"/>
    <path class="cls-12" d="M455.77,684.23s84.32-11.5,119.39-31.6l6.18,16.37s-88.69,35.22-117.76,28.64l-7.81-13.42Z"/>
    <path class="cls-12" d="M458.32,717.97s84.32-11.5,119.39-31.6l6.18,16.37s-88.69,35.22-117.76,28.64l-7.81-13.42Z"/>
    <path class="cls-12" d="M467.55,744.67s85.01-4.71,121.98-21.94l4.42,16.83s-91.86,28.02-120.05,19.12l-6.35-14.01Z"/>
    <path class="cls-12" d="M471.49,776.14s85.01-4.71,121.98-21.94l9.21,16.07s-96.64,28.78-124.84,19.89l-6.35-14.01Z"/>
    <path class="cls-12" d="M457.01,586.22s82.03-21.22,113.81-45.18l8.65,15.46s-82.75,45.17-112.64,42.07l-9.82-12.35Z"/>
    <path class="cls-12" d="M447.43,553.5s82.03-21.22,113.81-45.18l8.65,15.46s-82.75,45.17-112.64,42.07l-9.82-12.35Z"/>
  </g>
  <rect class="cls-17" x="113.7" y="742.2" width="85.55" height="37.27"/>
  <polyline class="cls-34" points="-70.49 1057.39 1383.98 1057.39 1383.98 779.47 -70.49 779.47"/>
  <path class="cls-27" d="M299.49,594.25l-1.32-5.98c-20.75,3.67-35.05-15.37-56-13.03-15.95,1.78-31.81,3.95-47.89,4.14-7.72.09-15.31-.2-22.87-1.85-4.72-1.03,8.31-2.39,3.61-3.53l-15.82,19.26-13.55,10.18c-2.4,9.58-13.42,39.51-13.99,49.33-6.51,111.17,119.92,104.93,119.92,104.93,0,0,22.22-62.49,25.27-70.02l6.92-14.57c3.31-.17,11.41-22.56,19.79-32.84,17.92-22.01-.48-27.97-.48-27.97l-3.58-18.04Z"/>
  <path class="cls-39" d="M117.38,828.44c-1.93-5.11-7.51-10.54-11.47-13.05-3.96-2.51-8.77-.18-10.06.41-9.58,4.44-14.54,13.12-22.09,20.59-5.78,5.73-12.21,10.67-19.09,14.7-6.99,4.09-14.6,6.17-21.69,9.87-.05.03-.1.05-.15.08-3.51,1.83-6.33,4.96-7.98,8.82-.6,1.41-1.22,2.8-1.89,4.11-.93,1.82-1.95,3.17-.97,5.31,1.8,3.95,7.83,1.5,9.6.67.33-.15.68-.21,1.04-.17,1.42.14,5.6.3,12.66-1.38.68-.16,1.35-.27,2.01-.35.02.04.03.09.04.13,3.75-.65,20.27-1.26,23.31-1.58,5.98-.64,24.61-7.33,24.61-7.33,0,0,26.1-1.96,34.06,3.4l7.73-33.64s-17.75-5.49-19.68-10.6Z"/>
  <g>
    <path class="cls-47" d="M266.1,840.63c0,.22-25.11-1.69-56.04-4.28-30.93-2.58-46.01,9.14-45.98,8.92s15.1-12.31,46.04-9.72c30.94,2.58,55.99,4.79,55.98,5.08Z"/>
    <path class="cls-24" d="M263.98,840.72c-.74,1.13,4.36-1.36,2.74-1.16.8-.1-.06,0-.33-.02-.82-.04-1.64-.09-2.47-.15-2.87-.19-5.74-.4-8.61-.61-9.35-.7-18.69-1.44-28.04-2.2-11.08-.9-22.21-2.32-33.34-1.32-7.5.67-14.97,2.2-22,4.95-2.33.91-4.62,1.95-6.81,3.17-.7.39-1.4.81-2.08,1.24-.16.1-.32.2-.48.3-.05.03-.1.06-.15.1.42-.29.77-.47,1.44-.63l1.71-.18h0c.28.15.57.3.85.45.13.46-.74.93-.03.4.41-.3.83-.59,1.25-.87.12-.08.25-.16.37-.24.34-.22-.32.19-.08.05.09-.05.18-.11.27-.16.36-.21.73-.43,1.1-.63.93-.51,1.88-.99,2.84-1.44.15-.07.3-.14.44-.2-.08.04-.38.17.02,0,.26-.11.51-.22.77-.33.69-.29,1.38-.57,2.08-.83,1.57-.59,2.46-.88,3.99-1.32,3.66-1.06,7.3-1.76,11.09-2.22,10.52-1.27,21.05.02,31.55.91,9.56.81,19.12,1.63,28.67,2.5,3.29.3,6.59.6,9.88.94.93.1,1.87.19,2.8.31.26.03.52.08.78.11.32.03.1.11-.12-.03.23.15-.29-.24-.32-.32.51,1.31,5.09-.11,4.65-1.25-.31-.8-2.82-.75-3.49-.82-2.73-.3-5.46-.55-8.2-.8-9.65-.9-19.3-1.72-28.96-2.54-11.53-.98-23.1-2.43-34.67-1.25-7.59.77-15.19,2.49-22.2,5.56-2.36,1.03-4.65,2.19-6.81,3.59-.46.29-2.55,1.42-2.34,2.16.1.34.58.4.85.45,1.21.23,2.5-.38,3.5-1.01.14-.08.27-.17.4-.26.09-.06.18-.11.26-.16.05-.03-.44.26.03-.02.63-.37,1.27-.73,1.92-1.08.42-.22.84-.44,1.27-.65.2-.1.4-.19.6-.29.15-.07,1.05-.48.61-.28,2.73-1.21,5.22-2.08,7.82-2.82,3.75-1.05,7.48-1.74,11.38-2.2,11.07-1.28,22.18.17,33.23,1.07,9.67.79,19.33,1.56,29.01,2.28,3.11.23,6.22.46,9.34.65.73.04,1.45.09,2.18.11,1.29.04,3.31,0,4.08-1.17.55-.84-.49-1.02-1.16-1-.88.03-2.55.35-3.09,1.17Z"/>
  </g>
  <path class="cls-39" d="M121.98,833.44l-28.2,35.52s149.53,23.44,194.12,7.89c59.1-20.61-10.02-208.06-10.02-208.06l-114.22-30.11s-8.45,37.24,1.21,63.26c9.65,26.02,50.31,122.51,50.31,122.51l-93.2,8.99Z"/>
  <path class="cls-39" d="M163.5,799.11c-1.93-5.11-7.51-10.54-11.47-13.05-3.96-2.51-8.77-.18-10.06.41-9.58,4.44-14.54,13.12-22.09,20.59-5.78,5.73-12.21,10.67-19.09,14.7-6.99,4.09-14.6,6.17-21.69,9.87-.05.03-.1.05-.15.08-3.51,1.83-6.33,4.96-7.98,8.82-.6,1.41-1.22,2.8-1.89,4.11-.93,1.82-1.95,3.17-.97,5.31,1.8,3.95,7.83,1.5,9.6.67.33-.15.68-.21,1.04-.17,1.42.14,5.6.3,12.66-1.38.68-.16,1.35-.27,2.01-.35.02.04.03.09.04.13,3.75-.65,20.27-1.26,23.31-1.58,5.98-.64,24.61-7.33,24.61-7.33,0,0,24.39-3.7,32.35,1.66l9.44-36.51s-17.75-.88-19.68-5.99Z"/>
  <path class="cls-39" d="M164.7,804.85l-4.88,40.92s118.84,20.72,161.97.98c61.51-28.14-6.21-213.67-6.21-213.67l-104.22-30.11s-8.45,37.24,1.21,63.26c9.65,26.02,50.08,116.7,50.08,116.7l-97.96,21.92Z"/>
  <path class="cls-16" d="M198.34,788.82c4.23,11.66,8.38,23.69,10.41,35.97.1.58.19,1.17.25,1.75l1.99-.74c-4.51-.88-9.11-1.39-13.69-1.74-9.12-.71-18.33-.57-27.33,1.2-9.55,1.88-18.78,4.91-28.19,7.34-3.78.98-7.64,1.89-11.55,2.13-.98.06-1.99.18-2.94-.09-1.07-.3-2.11-.68-3.12-1.15-1.57-.74-3.08-1.71-4.25-3.01-1.44-1.6-1.97-3.8-3.12-5.6-2.48-3.9-5.98-7.36-9.86-9.87-.55-.35-2.43.53-2.06.77,3.61,2.33,6.88,5.49,9.3,9.03,1.13,1.65,1.7,3.55,2.75,5.21.83,1.32,2.01,2.37,3.31,3.2,1.7,1.09,3.8,2.09,5.81,2.45,1.33.24,2.84.06,4.17-.06,1.85-.16,3.69-.45,5.52-.81,9.11-1.79,17.92-4.87,26.92-7.1,5.01-1.24,10.07-2.3,15.21-2.75,4.7-.4,9.43-.42,14.13-.19,5.74.28,11.55.82,17.19,1.92.41.08,2.06-.08,1.99-.74-.19-1.84-.58-3.67-.96-5.47-1.21-5.75-2.81-11.42-4.55-17.04-1.59-5.11-3.32-10.18-5.15-15.21-.21-.57-2.37.08-2.19.59h0Z"/>
  <path class="cls-27" d="M197.38,810.53l5.41,14.7c4.92,3.12,18.96,12.31,24.24,14.69,9.7,4.38,19.84,7.78,30.15,10.4,10.59,2.69,21.41,4.54,32.31,5.29,7.08.48,16.08-1.48,21.34-5.2,13.73-57.93-30.79-202.36-30.79-202.36l-122.88-14.69s-14.15,49.3-4.49,75.31c9.65,26.02,44.71,101.86,44.71,101.86Z"/>
  <path class="cls-27" d="M239.39,780.21l4.36,19.31c4.92,3.12,20.01,7.7,25.29,10.08,9.7,4.38,19.84,7.78,30.15,10.4,10.59,2.69,21.41,4.54,32.31,5.29,7.08.48,16.08-1.48,21.34-5.2,13.73-57.93-37.79-202.36-37.79-202.36l-107.74-2.83s-22.29,37.44-12.63,63.45c9.65,26.02,44.71,101.86,44.71,101.86Z"/>
  <path class="cls-33" d="M315.89,819.44c.41-8.51.39-17.03-.13-25.53s-1.38-16.64-3.14-24.76c-1.54-7.09-4.03-13.94-6.19-20.86s-4.29-14.01-4.43-21.25c-.15-7.69-1.78-16.95,3.41-23.44.9-1.13-1.27-1.44-1.91-.65-4.64,5.8-4.2,13.27-3.92,20.28.14,3.46.15,6.87.69,10.29.57,3.64,1.48,7.23,2.49,10.77,2.08,7.25,4.7,14.34,6.64,21.63,2.09,7.85,3.08,16.02,3.75,24.1.82,9.84.9,19.74.43,29.6-.06,1.17,2.27.82,2.32-.19h0Z"/>
  <ellipse class="cls-32" cx="439.08" cy="358.98" rx="23.8" ry="15.89"/>
  <ellipse class="cls-32" cx="420.65" cy="563.37" rx="23.8" ry="15.89"/>
  <path class="cls-16" d="M478.03,657.31c-.02,2.12-.46,4.28-1.01,6.32-1.23,4.57-3.49,8.8-6.84,12.16-.39.39.34.5.58.49.52,0,1.17-.21,1.54-.58,3.42-3.43,5.76-7.77,7.02-12.43.57-2.12,1.01-4.37,1.03-6.58,0-.5-2.31-.14-2.32.62h0Z"/>
  <g>
    <rect class="cls-38" x="572.92" y="140.09" width="115.72" height="134.56"/>
    <path class="cls-26" d="M690.19,139.2c-3.85,0-7.71,0-11.56,0-9.21,0-18.41,0-27.62,0-11.13,0-22.26,0-33.39,0h-28.88c-4.69,0-9.38-.08-14.07,0-.07,0-.14,0-.2,0-.76,0-3.9.41-3.9,1.52,0,4.47,0,8.95,0,13.42,0,10.7,0,21.4,0,32.1v38.82c0,11.22,0,22.45,0,33.67v11.08c0,1.14,0,2.27,0,3.41,0,.55-.13,1.28,0,1.82.02.07,0,.16,0,.23,0,.25.74.26.81.26,3.85,0,7.71,0,11.56,0,9.21,0,18.41,0,27.62,0,11.13,0,22.26,0,33.39,0h28.88c4.69,0,9.38.08,14.07,0,.07,0,.14,0,.2,0,.76,0,3.9-.41,3.9-1.52,0-4.47,0-8.95,0-13.42,0-10.7,0-21.4,0-32.1,0-12.94,0-25.88,0-38.82,0-11.22,0-22.45,0-33.67v-11.08c0-1.14,0-2.27,0-3.41,0-.55.13-1.28,0-1.82-.02-.07,0-.16,0-.23,0-.59-4.71.02-4.71,1.26,0,4.47,0,8.95,0,13.42,0,10.7,0,21.4,0,32.1,0,12.94,0,25.88,0,38.82,0,11.22,0,22.45,0,33.67v11.08c0,1.72-.14,3.51,0,5.23,0,.08,0,.15,0,.23l3.9-1.52c-3.85,0-7.71,0-11.56,0-9.21,0-18.41,0-27.62,0-11.13,0-22.26,0-33.39,0h-28.88c-3.18,0-6.37,0-9.55,0-1.45,0-3.07-.2-4.51,0-.07,0-.14,0-.2,0l.81.26c0-4.47,0-8.95,0-13.42,0-10.7,0-21.4,0-32.1v-38.82c0-11.22,0-22.45,0-33.67v-11.08c0-1.72.14-3.51,0-5.23,0-.08,0-.15,0-.23l-3.9,1.52c3.85,0,7.71,0,11.56,0,9.21,0,18.41,0,27.62,0,11.13,0,22.26,0,33.39,0h28.88c4.69,0,9.38.08,14.07,0,.07,0,.14,0,.2,0,1.1,0,2.39-.31,3.33-.89.71-.44.7-.89-.24-.89Z"/>
  </g>
  <rect class="cls-7" x="600.4" y="166.14" width="60.33" height="85.42" transform="translate(1261.12 417.71) rotate(-180)"/>
  <path class="cls-13" d="M660.94,193.65c-3.09.19-6.14.97-8.88,2.35-7.41,3.73-12.28,11.33-20.12,14.14-5.98,2.14-12.81,1.07-18.58-1.54-4.67-2.11-8.78-5.15-12.75-8.33v-36.67h60.33v30.05Z"/>
  <rect class="cls-17" x="680.14" y="730.95" width="87.72" height="33.05"/>
  <g>
    <polygon class="cls-18" points="531.23 692.23 784.84 704.53 784.84 925.5 531.23 910.63 531.23 692.23"/>
    <polygon class="cls-4" points="531.23 692.23 397.47 707.09 397.47 925.5 531.23 910.63 531.23 692.23"/>
    <polygon class="cls-31" points="651.07 945.49 397.47 925.5 397.47 707.09 651.07 721.96 651.07 945.49"/>
    <polygon class="cls-2" points="651.07 945.49 784.84 925.5 784.84 704.53 651.07 721.96 651.07 945.49"/>
  </g>
  <path class="cls-44" d="M456.41,710.55c10.79-5.82,18.27-16.17,28.83-22.41,6.14-3.63,13.1-5.64,20.07-7.17,19.88-4.38,28.37-4.79,46.26,4.94,2.53,1.38,21.38,4.94,23.9,6.32,4.3,2.35,8.16,8.2,6.24,10.52-1.92,2.32-17.22,1.08-19.96,2.34-12.71,5.84-27.21,8.34-41.19,8.58,0,0-41.86-1.33-62.88-3.05"/>
  <path class="cls-28" d="M607.03,719.93c10.84.5,44.04,2.03,44.04,2.03,0,0,47.51-6.2,63.11-8.22-11.19-2.93-17.19-12.29-27.66-17.21-18-8.47-37.87-15.51-57.47-12.1-12.76,2.22-91.25,22.23-101.37,30.31,0,0,29.91,1.86,44.11,2.16,5.69.12,35.24,3.04,35.24,3.04Z"/>
  <path class="cls-35" d="M748.66,835.45c-16.2-3.31-31.63-8.32-48.3-5.42-12.59,2.19-23.6,10.77-36.37,11.88-12.52,1.1-14.78-12.92-15.56-22.75-.7-8.86-1.01-17.83-3.15-26.47-2.12-8.51-8.41-15.09-11.54-23.2-4.58-11.87-6.17-20.85-16.25-30.51-6.83-6.55-15.04-10.19-24.16-14.5-4.2-1.99-17.47-6.16-18.55-10.52-.64-2.61,4.29-6.28,5.71-7.95,2.3-2.72,3.46-6.73,6.1-9.09,1.81-1.61,4.35-2.05,6.59-2.99,2.08-.87,3.94-2.18,5.78-3.48,4.73-3.34,9.45-6.69,14.18-10.03,9.1-6.43,18.35-12.95,28.89-16.56,9.9-3.39,20.72-4.06,30.96-1.91,9.76,2.05,18.82,6.54,27.6,11.27,15.04,8.1,28.43,17.72,34.15,34.49,4.64,13.6,12.24,24.37,20.21,36.11,8.98,13.24,10.4,28.16,11.67,43.71,1.25,15.33,5.37,29.6,12.24,43.33.13.26.27.5.41.73.09.84.12,1.7-.2,2.46-.55,1.32-1.98,1.98-3.3,2.49-.64.25-1.28.48-1.93.71-7.66,2.69-15.98,1.98-22.76-1.02-.77-.34-1.58-.6-2.43-.77Z"/>
  <path class="cls-36" d="M775.16,825.42c-16.58,6.87-33.49-2.44-49.55-6.13s-33.37-2.05-48.66,3.9c-4.48,1.74-8.84,4.09-13.61,4.96-3.65.66-8.32.49-10.97-2.46-.67-.75-3.37.28-2.62,1.12,2.27,2.53,5.94,3.27,9.21,3.29,4.18.02,8.2-1.22,12.05-2.76,4.1-1.64,8.09-3.46,12.32-4.75s8.47-2.22,12.8-2.81c8.54-1.17,17.31-1.04,25.77.66,9.06,1.82,17.6,5.51,26.61,7.53s19,2.31,27.78-1.33c.41-.17,1.13-.66.75-1.16s-1.44-.23-1.88-.04h0Z"/>
  <path class="cls-36" d="M772.33,818.43c-8.05,2.31-16.51,1.46-24.53-.53-7.87-1.95-15.29-5.2-23.02-7.56-7.6-2.32-15.35-3.03-23.27-2.46s-16.27,2.33-24.22,4.35c-9.25,2.34-18.44,4.93-27.65,7.42-.23.06-1.42.37-1.32.75s1.35.03,1.51,0c8.22-2.22,16.42-4.49,24.65-6.65s16.26-4.04,24.6-4.75,16.55.18,24.55,2.77c7.51,2.43,14.78,5.5,22.48,7.34,8.7,2.09,17.73,2.57,26.4.08.22-.06,1.42-.36,1.32-.75s-1.35-.04-1.51,0h0Z"/>
  <path class="cls-36" d="M769.04,806.64c-5.12-.03-10.86-2.1-13.64-6.68s-1.24-10.51,2.41-14.27l-2.69.5c2.33,3.76,2.91,8.3,1.54,12.53-.63,1.94-1.6,3.91-3.15,5.28-1.85,1.63-4.05,1.33-6.12.25-1.78-.93-3.31-2.32-4.6-3.85-1.42-1.69-2.81-3.5-3.76-5.5-1.8-3.8-1.19-8.1,2.29-10.69l-2.69.5c1.79,3.45,1.5,7.43-.38,10.78-1,1.77-2.44,3.52-4.22,4.55-1.91,1.1-4.2-.08-5.72-1.35-3.16-2.63-5.22-7-6.53-10.81-.52-1.51-.94-3.01-.75-4.62.12-1.02.79-3.46,2.06-3.59l-.71-.07c3.11,2.52,2.41,6.76.24,9.65-1.28,1.71-2.99,3.1-4.75,4.3s-3.89,2.79-5.99,3.38c-2.34.66-4.2-1.38-5.58-2.98s-2.47-3.3-3.34-5.17c-1.7-3.65-2.32-7.67-1.85-11.67l-2.58.91c2.86.82,5.07,3.08,5.54,6.06.51,3.21-1.28,6.29-3.39,8.57-2.24,2.42-6.21,6.23-9.78,4.78-3.02-1.22-5.08-4.83-6.43-7.61-.73-1.5-1.31-3.06-1.72-4.68-.34-1.35-.92-3.17-.17-4.49l.14-.24c.39-.41.33-.37-.18.12,0,0,.79.58.85.65.45.46.83,1.03,1.14,1.59.59,1.06.95,2.24,1.07,3.45.26,2.51-.51,5.01-1.84,7.13-.71,1.13-1.58,2.14-2.59,3.02-1.1.96-2.67,2.2-4.14,2.48-3.13.6-4.59-4.83-5.02-7.01-.6-3.03-.05-6.13,2.84-7.72l-2.49.36c1.77,3,1.7,6.56.27,9.68-.81,1.76-1.98,3.34-3.41,4.65s-3.84,3.45-5.68,1.97c-3.26-2.61-5.75-7.51-5.77-11.71,0-.89.38-1.44.68-2.22l.26-.31-.6.07c0-.14.69.34.8.42.53.43.94,1.07,1.27,1.66,1.07,1.87,1.35,4.14.81,6.23-1.28,4.95-6.37,8.07-11.23,8.4-.48.03-1.62.21-1.9.66s.25.44.65.41c5.38-.37,11.66-2.85,14.38-7.8,1.34-2.43,1.61-5.43.45-7.99-.47-1.04-1.28-2.41-2.38-2.88s-2.6-.14-3.66.33c-2.26,1.01-2.56,3.27-2.19,5.46.5,3,1.85,5.81,3.78,8.16.79.96,1.68,2.09,2.83,2.61s2.61.29,3.82-.06c2.61-.76,5.09-2.43,6.97-4.38,3.57-3.71,5.46-9.4,2.67-14.11-.36-.6-2.07.13-2.49.36-3.13,1.72-4.18,4.78-3.58,8.21.49,2.78,1.77,7.13,5.04,7.63,3.63.55,7.81-2.01,10.28-4.48,2.28-2.29,3.89-5.31,4.02-8.58.11-2.58-1.14-7.21-4.25-7.56-1.51-.17-3.65.45-4.43,1.86-.84,1.53-.19,3.58.23,5.13,1.09,3.98,3.32,8.53,6.63,11.13s8.34,1.16,11.68-.99c3.72-2.38,7.72-6.04,8.53-10.6.74-4.2-2.07-7.76-6-8.88-.55-.16-2.5.2-2.58.91-.47,3.99.15,8.02,1.85,11.67.88,1.89,2.03,3.63,3.38,5.22,1.14,1.34,2.42,2.76,4.18,3.23,3.97,1.07,8.29-1.78,11.45-3.82s6.61-4.62,7.8-8.32c.49-1.52.6-3.21,0-4.72-.26-.65-.64-1.25-1.12-1.77-.69-.75-1.16-.86-2.16-.69-3.03.5-5.18,2.35-5.48,5.48-.16,1.71.34,3.3.91,4.89.75,2.07,1.71,4.06,2.85,5.94,1.88,3.09,4.38,6.29,8.28,6.58,8.67.64,15.13-10.16,11.25-17.62-.35-.67-2.31.22-2.69.5-2.82,2.1-4.21,5.57-3.36,9.02.52,2.09,1.69,3.96,2.97,5.67,1.08,1.45,2.21,2.87,3.56,4.08,2.88,2.59,6.38,3.67,10.16,2.61s5.99-3.75,7.21-7.23c1.55-4.4,1.09-9.2-1.36-13.17-.37-.6-2.33.13-2.69.5-3.84,3.96-5.72,10.11-2.51,15.05,3.07,4.73,9.04,6.71,14.44,6.75.62,0,1.5-.14,2-.54.37-.29.46-.56-.15-.57h0Z"/>
  <path class="cls-39" d="M1160.33,818.92c2.79-7.37,11.25-15.36,17.32-19.12,6.07-3.76,13.67-.68,15.7.11,15.13,5.87,23.24,18,35.32,28.28,9.26,7.88,19.5,14.62,30.39,20.03,11.08,5.5,23.03,8.1,34.24,13.03.08.03.16.07.24.11,5.56,2.44,10.08,6.76,12.81,12.18,1,1.98,2.02,3.92,3.12,5.76,1.53,2.54,3.17,4.42,1.74,7.52-2.63,5.71-12.23-.44-15.03-1.53-.52-.2-1.07-.26-1.62-.19-2.2.26-8.72.7-19.8-1.36-1.07-.2-2.12-.32-3.15-.4-.02.06.02-.06,0,0-5.87-.75-32.25-1.16-36.99-1.48-9.35-.62-38.06-5.81-38.06-5.81-3.27-.35-46.39-16.99-61.99-6.73l-4.47-34.35s27.43-8.66,30.22-16.03Z"/>
  <path class="cls-39" d="M1110.67,765.6c2.79-7.37,11.25-15.36,17.32-19.12,6.07-3.76,13.67-.68,15.7.11,15.13,5.87,23.24,18,35.32,28.28,9.26,7.88,19.5,14.62,30.39,20.03,11.08,5.5,23.03,8.1,34.24,13.03.08.03.16.07.24.11,5.56,2.44,10.08,6.76,12.81,12.18,1,1.98,2.02,3.92,3.12,5.76,1.53,2.54,3.17,4.42,1.74,7.52-2.63,5.71-12.23-.44-15.03-1.53-.52-.2-1.07-.26-1.62-.19-2.2.26-8.72.7-19.8-1.36-1.07-.2-2.12-.32-3.15-.4-.02.06.02-.06,0,0-5.87-.75-32.25-1.16-36.99-1.48-9.35-.62-38.06-5.81-38.06-5.81-3.27-.35-43.97-9.63-59.57.63l-6.89-41.71s27.43-8.66,30.22-16.03Z"/>
  <path class="cls-39" d="M1206.39,679.08c-.92,33.47,8.31,105.74-95.25,110.77l47.23-10.34.11,81.43s-308.24-2.02-317.31-2.13c-17.44-.2-57.36-21.8-48.03-73.75,8.45-47.05,37.26-65.62,50.33-75.21,13.07-9.59,210.12-86.47,265.51-94.78l82.3,45.26,15.11,18.76Z"/>
  <path class="cls-39" d="M1218.04,705.95c-5.01,33.11-21.45,70.09-62.18,87.84l7.59,14.24c14.02,26.31,25.13,28.28,18.47,57.33l-4.92-4.09s-265.79,52.45-309.4,38.85c-17.29-2.33-55.55-29.54-55.51-82.32.03-52.78,45.02-60.56,59.17-68.47,14.14-7.91,163.78-35.94,219.77-37.41l62.06-43,64.96,37.02Z"/>
  <path class="cls-40" d="M1209.19,574.12c-.29-1.12-1.72-2.77-1.95-4.06-2.4-1.62-.76.74-6.1-3.2-8.32,2.94-16.78,5.46-25.36,7.42-20.94,4.78-42.73,5.7-64.14,5.21-23.42-.53-46.75-2.92-70.06-5.17-20.17-1.94-40.39-3.81-60.66-4.27l-3.37,42.63-160.06,109.68s-51.3,39.2-2.07,82.67c36.96,32.64,142.14,48.78,142.14,48.78.99,1.81,26.07-3.19,40.79-5.23,18.25-4.08,133.91-28.42,144.54-30.52,52.55-10.37,104.72-48.85,109.5-103.47,2.62-29.89-1.88-67.19-14.9-94.36-6.29-13.13-24.69-32.07-28.31-46.12Z"/>
  <path class="cls-16" d="M819.05,853.89c-4.51-13.04-7.71-27.07-6.1-40.94.33-2.86.88-5.69,1.65-8.47.23-.82-1.6-.61-1.81.15-3.27,11.77-2.3,24.26.45,36.03,1.08,4.64,2.46,9.2,4.02,13.7.27.79,2.05.29,1.79-.48h0Z"/>
  <path class="cls-16" d="M1074.96,569.28c-2.06-5.45-5.33-10.45-10.29-13.64-3.24-2.08-6.93-3.2-10.71-3.75-1.14-.17-2.57-.22-3.57-.53-.4-.12-.92-.06-1.26.18-.18.12-.6.53-.17.66,2.4.75,5.05.7,7.5,1.33,4.33,1.12,8.23,3.45,11.21,6.79,2.46,2.75,4.2,6.02,5.5,9.45.22.59,1.99.06,1.79-.48h0Z"/>
  <path class="cls-39" d="M950.1,634.1l-7.75,26.97,4.64,15.75s-22.65,21.55-30.46,24.11c-7.81,2.56-25.38,10.95-25.38,10.95,1.87,1.84,3.09,4.31,3.43,6.97.2,3.09-.81,6.11-2.78,8.36l-12.97-8.87c.29,6.74-6.39,4.66-6.39,4.66l-10.23-8.35c.72,8.33-8.01,5.84-8.01,5.84l-9.69-13.83c-.74,3.34-2.1,6.48-3.99,9.24-2.62,3.2-6.29-2.37-6.29-2.37l2.48-29.66,29.28-26.36,64.34-10.83,19.76-12.59Z"/>
  <path class="cls-16" d="M863.69,669.48c-4.31-.13-7.13,2.4-10,5.29-3.06,3.07-5.93,6.43-8.51,9.91-1.36,1.82-2.62,3.69-3.71,5.69-.99,1.8-2.16,3.73-2.16,5.85s1.1,4.14,1.81,6.12,1.84,3.92,3.24,5.57c.4.48,2.08-.15,1.62-.7-1.25-1.49-2.26-3.13-2.96-4.95s-1.62-3.64-1.89-5.53c-.31-2.16.78-4.07,1.77-5.91.93-1.72,1.97-3.39,3.11-4.97,2.32-3.2,4.88-6.23,7.56-9.14,2.52-2.74,5.42-6.31,9.47-6.19.69.02,1.85-.99.67-1.03h0Z"/>
  <path class="cls-16" d="M872.14,678.54c-1.6,1.49-3.04,3.1-4.5,4.72-1.19,1.31-2.53,2.48-3.81,3.69-2.87,2.71-5.84,5.46-8.3,8.57-1.26,1.59-1.93,3.17-1.89,5.2s.36,4.2.96,6.14c1.1,3.51,3.67,6.52,6.69,8.6.38.26,1.83-.45,1.65-.57-3-2.06-5.5-5.01-6.6-8.49-.59-1.87-.89-3.96-.96-5.91-.07-2.2.69-3.96,2.11-5.61,2.62-3.06,5.52-5.86,8.46-8.62,2.69-2.53,5.05-5.36,7.75-7.88.29-.27-.26-.23-.4-.23-.34,0-.91.16-1.17.4h0Z"/>
  <path class="cls-16" d="M885.12,695.85c-1.82.76-3.48,1.79-5.17,2.8-1.5.89-3.07,1.72-4.49,2.73-2.31,1.65-4.54,3.9-5.06,6.79-.54,3.04.82,5.98,3.18,7.89,1.46,1.18,3.96,2.93,5.98,2.3.15-.05.71-.25.53-.47-.17-.21-.95.06-1.12.11,1.32-.41.84-.03.43-.24-.22-.11-.49-.17-.72-.26-.65-.27-1.27-.6-1.87-.96-1.58-.94-2.9-2.09-3.81-3.72-1.85-3.31-.87-6.94,1.66-9.55,1.66-1.71,3.67-2.84,5.69-4.04,1.88-1.12,3.74-2.32,5.76-3.17.27-.11.46-.24.22-.43s-1,.14-1.22.23h0Z"/>
  <path class="cls-16" d="M1232.62,831c-8.08-7.14-16.38-14.09-24.14-21.56-4.24-4.09-8.51-8.17-13.25-11.68-.51-.38-2.15.37-1.41.91,8.26,6.11,15.02,13.96,22.92,20.49,3.43,2.83,6.69,5.89,10.02,8.84,1.41,1.24,2.81,2.48,4.22,3.73.51.45,2.19-.25,1.65-.73h0Z"/>
  <g>
    <path class="cls-14" d="M612.49,925.3c.29,1.49.55,3,.8,4.54-10.41,2.81-32.55,6.48-65.02,8.64-27.65,1.86-65.08-1.51-79.11-4.42,0,0,.32-1.63.96-4.35.75-3.17,1.97-7.86,3.68-13.17,1.69-1.14,14.91-9.87,19.1-8.92,5.18,1.16,12.48,16,12.48,16,0,0,15.97-14.17,21.02-14.62,5.05-.45,19,15.1,20.81,14.83,1.83-.29,11.33-13.49,15.63-14.96,4.3-1.45,19.57,11.81,21.2,11.37,1.63-.44,6.12-13.18,9.64-14.42,3.5-1.24,14.21,5.03,15.56,5.83,1.25,4.29,2.35,8.83,3.25,13.65Z"/>
    <path class="cls-1" d="M620.15,926.8c.34,1.14,6.76,22.83-3.86,31.67-21.72,18.13-138.33,13.31-149.28,1.48-10.96-11.82-3.47-28.01-3.47-28.01-.19.6,1.89,1.34,5.63,2.12,14.03,2.91,51.46,6.27,79.11,4.42,32.47-2.16,54.61-5.83,65.02-8.64,4.65-1.25,6.97-2.33,6.86-3.04Z"/>
    <path class="cls-1" d="M473.8,916.54c2.64-8.29,6.52-18.13,11.7-26.23.58-.9,1.17-1.8,1.77-2.67,0,0,12.73-10.76,17.59-9.94,4.86.81,9.22,13.63,10.33,14.28,1.11.65,10.88-11.5,16.53-12.23,5.66-.73,12.27,14.35,13.69,14.17,1.43-.23,7.09-15.21,11.23-16.4,4.14-1.2,15.58,11.58,17.39,11.05,1.83-.53,2.72-14.26,6.83-15.63,3.19-1.04,10.98,4.48,13.46,6.33,0,.02.02.01.02.03,5.89,8.62,11.11,19.29,14.9,32.36-1.35-.8-12.06-7.07-15.56-5.83-3.52,1.24-8.01,13.98-9.64,14.42-1.63.44-16.9-12.82-21.2-11.37-4.29,1.46-13.8,14.66-15.63,14.96-1.81.27-15.76-15.28-20.81-14.83-5.05.45-21.02,14.62-21.02,14.62,0,0-7.3-14.84-12.48-16-4.19-.95-17.41,7.78-19.1,8.92Z"/>
    <path class="cls-6" d="M470.12,929.71c-.65,2.72-.96,4.35-.96,4.35-3.73-.78-5.82-1.52-5.63-2.12.91-2.79,6.38-2.3,6.38-2.3l.21.06Z"/>
    <path class="cls-14" d="M544.49,846.86c9.62-.55,32.59,7.16,49.83,32.4-2.48-1.85-10.27-7.37-13.46-6.33-4.11,1.37-5,15.1-6.83,15.63-1.81.53-13.25-12.24-17.39-11.05-4.14,1.2-9.81,16.17-11.23,16.4-1.41.18-8.03-14.9-13.69-14.17-5.66.73-15.42,12.87-16.53,12.23-1.11-.65-5.47-13.47-10.33-14.28-4.86-.82-17.59,9.94-17.59,9.94,20.85-31.04,44.63-40.03,57.21-40.77Z"/>
    <path class="cls-6" d="M612.56,925.29s6.92-.82,7.58,1.47c0,0,0,.02,0,.05.11.71-2.2,1.79-6.86,3.04-.25-1.54-.51-3.05-.8-4.54h.07Z"/>
  </g>
  <path class="cls-37" d="M490.61,929.66c1.67-19.04,11.45-36.02,22.71-51.01,3.29-4.39,6.74-8.66,10.21-12.9.32-.39-1.12-.24-1.2-.22-.59.11-1.39.3-1.79.79-12.08,14.78-24.11,30.32-29.88,48.79-1.56,5-2.62,10.15-3.08,15.37-.03.31,2.96.04,3.04-.81h0Z"/>
  <path class="cls-37" d="M529.71,933.12c.67-17.47,4.33-34.62,8.64-51.51,1.23-4.83,2.52-9.64,3.81-14.45.13-.5-2.79-.15-2.98.57-4.53,16.93-9.07,33.94-11.26,51.36-.62,4.93-1.04,9.88-1.23,14.84-.01.34,3,0,3.04-.81h0Z"/>
  <path class="cls-37" d="M570.12,931.67c-.25-17.46-4.64-34.45-9.94-50.98-1.52-4.75-3.12-9.48-4.73-14.21-.46-1.35-3.49-.52-3.04.81,5.52,16.3,11.08,32.75,13.47,49.85.68,4.9,1.09,9.83,1.16,14.77.02,1.56,3.09,1.08,3.07-.24h0Z"/>
  <path class="cls-37" d="M605.52,922.76c.48-4.92-.8-9.68-2.62-14.21-1.71-4.26-3.73-8.4-5.93-12.42-4.3-7.85-9.44-15.26-15.3-22.03-3.33-3.84-6.89-7.48-10.65-10.89-.72-.66-3.55.49-2.83,1.14,13.08,11.87,23.63,26.47,30.7,42.67,2.22,5.09,4.17,10.54,3.62,16.18-.1,1.08,2.93.49,3.02-.43h0Z"/>
  <path class="cls-43" d="M478.8,960.16c-3.99-6.37-4.95-14.31-2.72-21.47.39-1.24-2.69-.86-3.06.3-2.34,7.51-1.19,15.78,2.97,22.43.63,1,3.56-.05,2.8-1.26h0Z"/>
  <path class="cls-43" d="M495.88,962.44c-.69-1.92-1.92-3.58-2.76-5.43-.79-1.74-1.36-3.59-1.68-5.47-.7-4-.3-8.08,1.13-11.88.29-.76-2.68-.42-3.01.46-1.42,3.77-1.84,7.87-1.21,11.85.32,2.02.9,3.99,1.75,5.85s2.07,3.51,2.76,5.43c.31.87,3.32-.02,3.04-.81h0Z"/>
  <path class="cls-43" d="M516.33,965.91c-1.58-4.06-4.37-7.48-5.65-11.69s-1.4-8.56-.43-12.79c.22-.96-2.81-.49-3.02.44-.96,4.2-.89,8.61.29,12.76,1.25,4.38,4.14,7.9,5.77,12.1.36.93,3.36.01,3.04-.81h0Z"/>
  <path class="cls-43" d="M538.44,967.24c-2.39-8.04-3.26-16.46-2.49-24.81.1-1.07-2.94-.47-3.02.43-.77,8.49.05,17.02,2.48,25.19.28.93,3.31.1,3.04-.81h0Z"/>
  <path class="cls-43" d="M556.37,968.62c.17-2.12,1.66-3.71,2.61-5.52,1.09-2.05,1.24-4.35,1.38-6.63.33-5.33.36-10.68.12-16.02-.07-1.58-3.13-1.1-3.07.24.24,5.34.21,10.69-.12,16.02-.14,2.31-.29,4.51-1.47,6.55-1.05,1.8-2.34,3.44-2.51,5.6-.12,1.55,2.97,1.12,3.07-.24h0Z"/>
  <path class="cls-43" d="M581.64,966.79c.81-2.52,1.82-4.96,2.4-7.55s.84-5.18.81-7.81c-.06-5.14-1.2-10.18-3.44-14.82-.55-1.14-3.53-.21-3.04.81,2.21,4.59,3.43,9.66,3.42,14.76,0,2.48-.27,4.96-.81,7.38-.58,2.59-1.59,5.03-2.4,7.55-.38,1.18,2.69.8,3.05-.33h0Z"/>
  <path class="cls-43" d="M605.42,962.37c2.3-4.62,2.71-9.91,2.69-15-.01-2.54-.25-5.09-1.25-7.45s-2.45-4.42-3.94-6.47c-.85-1.18-3.73.04-2.77,1.37,1.35,1.87,2.76,3.77,3.67,5.91.99,2.33,1.21,4.8,1.2,7.3-.02,4.74-.38,9.61-2.52,13.92-.79,1.58,2.28,1.69,2.92.41h0Z"/>
  <path class="cls-43" d="M542.7,851.65c.52,2.69-2.03,5.55-4.75,5.24-2.72-.31-4.55-3.8-3.17-6.17-.88,2.73-4.98,3.51-7.03,1.5-2.04-2.01-1.62-5.79.61-7.59-1.99.47-4.21-1.06-4.49-3.08s1.46-4.09,3.5-4.17c1.15-.05,2.53.37,3.29-.49.84-.95.03-2.46.26-3.7.26-1.39,1.85-2.2,3.26-2.1s2.67.88,3.87,1.64c.49-2.46,1.76-5.08,4.15-5.85s5.48,1.78,4.32,4.01c1.89-1.54,4.22-2.9,6.63-2.53s4.41,3.3,3.06,5.33c1.88-1.32,4.71-1.5,6.36.1s1.11,5.01-1.13,5.54c2.87.28,5.92,1.78,6.78,4.53.86,2.75-1.92,6.25-4.59,5.17.73,2.06,1.14,4.3.62,6.42s-2.14,4.07-4.28,4.49c-2.14.42-4.61-1.1-4.78-3.28-1.11,2.86-3.9,4.98-6.95,5.29-.78.08-1.59.04-2.29-.31-1.42-.71-1.95-2.49-1.96-4.08s.33-3.19.03-4.75"/>
  <path class="cls-39" d="M641.07,547.06c-.74-.08-5.82-.16-6.49-.49-2.43-1.21-3.63-2.64-4.1-4.85-.15-.92-.81-4.76-.65-5.66.3-1.76-.02-.59-1.59-1.44l-2.02-1.09c-.78-.42-1.45-1.05-1.83-1.85-.79-1.65-1.32-3.42-1.58-5.23-.29-3.11,4.08-7.81,4.08-7.81l-2.31-.83c-2.47-1.43-3.14-2.58-3.16-5.44l.04-1.35c.25-1.33.7-2.6,1.33-3.78,1-1.88.49-4.18-1.18-5.49-1.4-1.1-2.72-2.47-2.85-3.78-.01-5.12,2.94-9.78,7.55-11.96.3-.14.62-.25.94-.32,8.66-2.1,17.46-3.63,26.33-4.56.62-.06,10.22-3.53,10.76-3.76,4.26,2.48-.04,6.92,5.04,7.11,4.69.18,9.38-.31,14.06-.41,1.51-.03,2.93.78,3.73,2.07,0,0,.01.02.02.02.23.37.51.69.83.98l21.61,18.91c1.28,1.12,8.03,1.85,8.83,2.13,17.53,6.01-5.52,39.72-4.98,39.78.61.06-13.81-4.3-18.49-1.93,0,0-30.27,3.53-53.91,1.04Z"/>
  <path class="cls-39" d="M657.94,484.49c.56-.86,4.56-5.8,4.59-6.9,0-.31,0-.61-.05-.92-1.29-8.5-1.29-17.14,0-25.64,1.9-9.12,7.16-11.26,10.62-11.69,1.46-.17,2.79.88,2.96,2.34.02.15.02.31.01.46-.45,5.98-.53,11.97-.23,17.96.39,3,6.68,17.27,10.61,26-8.63-.87-21.39,3.27-28.52-1.6Z"/>
  <path class="cls-39" d="M890.08,453.31s-10.48,77.77-10.48,77.77l-172.73-24.99c3.65,12.07,2.54,22.7-1.78,38.79,0,0,142.71,51.17,160.51,55.64,83.84,21.02,83.82-22.11,90.06-49.04,3.59-15.5,13.58-69.03,2.74-79.56-2.47-2.4-68.89-18.21-68.32-18.61Z"/>
  <path class="cls-16" d="M630.67,487.48c4.54.11,9.09.38,13.61.78,3.38.3,6.76.67,10.09,1.32,1.89.37,4.62.76,6.03,2.15,2.36,2.33,4.81,7.75,0,8.87-1.12.26-2.44.16-3.57.24-5.97.4-11.94.8-17.91,1.21-4.61.31-9.22.62-13.83.93-1.25.08-1.76,1.7-.22,1.6,10.53-.71,21.06-1.42,31.59-2.13,1.23-.08,2.51-.07,3.74-.25,1.86-.27,4.1-1.46,4.97-3.21.81-1.64.28-3.48-.51-5.02-.69-1.36-1.61-2.97-2.9-3.85-.9-.62-2.01-.99-3.05-1.3-3.18-.95-6.53-1.38-9.81-1.76-5.78-.66-11.61-1.03-17.42-1.17-.51-.01-1.25.14-1.47.68-.2.48.18.9.68.91h0Z"/>
  <path class="cls-16" d="M654.44,503.31c2.69.09,6.03.79,7.44,3.38,1.3,2.37-.16,4.75-2,6.31l1.05-.47c-9.55,1.46-19.09,2.93-28.64,4.39-1.36.21-2.73.42-4.09.63-.42.06-1.24.3-1.26.84s.59.68,1.01.62c5.99-.92,11.98-1.84,17.97-2.76l11.33-1.74c1-.15,2-.3,3-.46,1.48-.23,2.48-1.3,3.31-2.52,1.38-2.01,1.49-4.56-.08-6.49-1.93-2.38-5.31-3.11-8.22-3.21-.47-.02-1.29.15-1.48.66-.18.48.16.8.65.81h0Z"/>
  <path class="cls-16" d="M653.53,516.18c3.49-.03,7.69.53,10.33,3.08,2.44,2.36,1.32,5.26-.91,7.3l.93-.43c-9.49,2.42-18.98,4.83-28.47,7.25-1.35.34-2.69.69-4.04,1.03-.17.04-1.16.33-1.04.64.13.33,1.03.08,1.22.03,5.98-1.52,11.96-3.05,17.94-4.57l11.25-2.87c.98-.25,1.96-.49,2.93-.75,1.48-.39,2.55-1.54,3.28-2.87,1.26-2.31.33-4.64-1.68-6.14-2.87-2.13-6.79-2.64-10.26-2.61-.48,0-1.22.09-1.6.43-.27.24-.39.48.13.47h0Z"/>
  <path class="cls-16" d="M637.76,546.3c3.78-1.13,7.52-2.38,11.23-3.72,2.79-1.01,5.57-2.07,8.26-3.32,1.98-.92,4.17-1.91,5.65-3.58,1.22-1.38,1.93-3.31.75-4.94s-3.38-2.07-5.23-1.97c-.43.02-1.29.14-1.5.6-.19.43.16.64.6.62,1.61-.09,3.56.44,4.27,2.06.66,1.52-.34,3.11-1.48,4.09-1.46,1.25-3.39,2.04-5.13,2.8-4.61,2.02-9.39,3.66-14.18,5.19-1.17.38-2.35.75-3.53,1.1-.31.09-1.11.38-.99.83s.99.31,1.27.23h0Z"/>
  <path class="cls-16" d="M663.03,517.51c6.35-4.3,13.83-8.76,21.83-7.03.53.11,1.24.03,1.6-.43.29-.36.27-.9-.27-1.02-9.06-1.95-17.37,2.63-24.63,7.54-.4.27-.56.77-.14,1.1s1.21.12,1.62-.16h0Z"/>
  <path class="cls-16" d="M699.71,545.19c5.49-3.5,7.99-11,5.48-17.05-.43-1.03-2.67-.38-2.26.61,2.26,5.45.28,12.19-4.72,15.39-.43.27-.53.87-.12,1.19.47.37,1.18.15,1.62-.13h0Z"/>
  <path class="cls-39" d="M1018.84,260.12c.61.76,7.07,5.05,10.42,5.32-1.7,7.77,2.94,28.7-2.44,34.83-10.17,11.59-34.27,45.32-49.38,48.12-13.45,2.49-52.3-5.77-42.38-42.29,2.22-9.78,8.25-11.72,8.12-13.31-.41-4.78-14.93-31.4-14.93-31.4l68.11-56.7s4.17,32.68,22.48,55.43Z"/>
  <path class="cls-16" d="M941.28,288.64s4.93-6.74,9.96-9.8c5.03-3.07,14.47-5.36,33.51-34.24-.17.25.17,1.68.18,2,.04,1.88-.19,3.77-.58,5.61-1.53,7.19-5.54,13.67-10.26,19.2-3.57,4.17-7.58,7.96-11.92,11.33-4.03,3.13-8.2,5.99-12.97,7.78-1.39.52-2.81.99-4.26,1.35-.37.09-2.12,1.09-2.21.78l-1.46-4Z"/>
  <path class="cls-39" d="M863.81,133.47c-.03.22-.09.45-.16.67.09-.13.18-.25.27-.37l-.11-.29ZM850.98,142.02l.09.24c.16-.26.31-.53.44-.78-.11-.29-.53.54-.53.54ZM995.36,213.16l-.1-5.51c9.56,6.68,18.06-4,14.42-16.86,1.31-7.49-1.14-30.1-8.54-34.87l-.95-.74c-4.62-1.6-11.56-.64-12.66,5.13-.18,2.41,1.46,4.81,1.28,7.22-.07,2.71-1.91,8.43-2.73,11.09,0,0-6.15-11.41-7.94-17.1-1.79-5.69-11.73-20.35-24.63-24.51,0,0-7.12-19.76-13.81-23.92l-1.82.02c-.96.36-1.48.9-2.44,1.26-.11-.29.1-.71-.13-1.29-1.38,1.19-2.76,1.38-4.04,1.87.21-.41.74-.95.63-1.24-1.17.78-2.55.97-3.83,1.45.21-.41.63-1.24.52-1.53-1.37,1.19-2.55.97-3.83,1.45.21-.42.31-1.12.19-1.42-1.06,1.07-2.44,1.26-3.72,1.75.21-.41.31-1.12.51-1.54-1.37,1.19-2.55.97-3.83,1.45-.32.12.42-.83.3-1.12-.85.66-2.12,1.14-3.08,1.5-.11-.29.42-.83.31-1.12-1.69,1.31-2.87,1.09-4.15,1.57l.51-1.54c-.94,1.36-2.22,1.85-3.61,2.04.21-.41.62-1.24.51-1.53-1.26,1.48-3.07,2.5-4.89,2.52.32-.12.62-1.24.51-1.54-1.15,1.78-2.54,1.97-4.14,2.57.21-.41.31-1.12.72-1.95-1.47,1.9-3.48,3.33-5.73,3.18.32-.12.31-1.12.2-1.41-.83,1.66,1.01-.72-.7-.41,0,0-3.23,2.57-3.34,2.27-.94,1.36,1.48-6.25-.11-5.64.1-.71-8.96,4.02-8.54,3.19-1.15,1.78-1.06,1.05-3.08,1.48,0,0-5.3,6.02-5.1,5.61-1.04,2.07-2.23,1.11-4.25,1.55.21-.41,1.62.79,1.83.38-.83,1.66-.97.03-2.56.64-.11-.29-5.94.07-6.05-.22-1.26,1.48-.69,1.41-2.61,2.14-.11-.29.03,3.68.23,3.27-.83,1.66-1.14.67-2.85.98l-1.17,1.69c-1.04,2.07.91.6-1.12,1.03-.08-.2,7.55-1.81,7.7-2.31-.91,1.25-2.07,2.55-3.42,3.37-.11-.29-.01-1-.12-1.29-.83,1.66-2.42,3.26-4.44,3.69.32-.12.42-.83.31-1.12-1.04,2.07-2.62,3.68-4.87,3.52-.88,1.39-2.16,2.88-3.69,3.75-.33-.88.19-1.41.19-1.41l-1.28.48c-.71,2.95-1.53,5.61-1.05,8.78,0,0-3.95,19.88.48,30.6,4.43,10.72,12.54,29.6,14.64,34.17,1.82,3.96,2.92,9.62,3.6,14.12,3.06,20.37,12.93,26.5,23.24,36.01,4.6,4.25,9.84,7.55,14.73,11.37,5.41,4.22,10.52,8.65,16.92,11.35,6.61,2.79,15.33.47,22.54-1.89,20.14-6.57,37.24-27.96,45.04-45.48"/>
  <path class="cls-42" d="M845.32,166.23c1.28-20,19.48-37.16,57.98-57.37,38.51-20.21,75.66-17.4,75.66-17.4-40.68-50.71-98.62-26.59-111.69-21.64-13.08,4.96-61.27,81.49-21.04,121.06l3.45,3.02s-4.59-24.02-4.36-27.66Z"/>
  <path class="cls-42" d="M984.78,75.52s-8.88-38.06-39.94-40.2c-41.49-2.86-92.4,8.23-95.57,51.99l135.51-11.79Z"/>
  <path class="cls-41" d="M1014.44,164.79c1.81-4.06-2.15-12.14-.89-16.4,6.57-22.32-4.05-37.72-12.89-45.91-3.85-3.57-3.69-12.43-5.36-16.21-8.74-19.77-11.29-19.51-49.16-28.86-30.81-7.61-57.01,3.18-72.03,9.8-24.05,10.61-34.29,16.24-36.28,36.9-.26,2.69,1.05,3.14,1.15,6.23.14,4.37-5.17,8.01-4.33,13.3,0,0,36.3.74,68.84,5.1,32.54,4.36,101.94,42.7,106.4,60.39.14.56,2.55-19.85,4.55-24.34Z"/>
  <path class="cls-42" d="M1014.22,128.81s-83.82-49.62-134.65-30.93c0,0,76.6-30.38,123.08,5.51l1.39,1.61c3.66,4.24,6.55,9.09,8.52,14.33l1.66,9.47Z"/>
  <path class="cls-15" d="M999.7,202.1c3.19-.85,5.61,1.08,6.93,3.56,2.39,4.45-1.14,9.95-6.12,9.11-.19-.03-.38-.07-.58-.12,0,0,7.07,3.97,10.61-1.18,3.54-5.15-.62-10.2-2.82-11.17-4.9-2.16-8.02-.19-8.02-.19Z"/>
  <path class="cls-25" d="M972.48,157.01l12.5,27.86,5.25-16.38s-12.66-8.25-17.75-11.48Z"/>
  <path class="cls-24" d="M992.1,181.85c.81-.3,2.15-.86,2.72.11.48.83.36,2.03.34,2.93-.05,2.09-.36,4.88,1.42,6.4.94.8,2.17,1.03,3.24.32,1.26-.84,1.87-2.42,2.23-3.82.81-3.1.49-6.38-.86-9.26s-3.38-6.23-6.76-6.41c-.69-.04-1.47.99-.5,1.04,2.83.15,4.66,3.35,5.76,5.61,1.22,2.55,1.62,5.24,1.14,8.07-.15.9-.39,1.79-.79,2.62-.22.45-.67,1.42-1.25,1.54-.81.17-1.61-1.07-1.83-1.69-.75-2.01-.18-4.27-.36-6.35-.08-.86-.3-1.78-1.08-2.26-1.08-.67-2.58-.23-3.67.17-.84.31-.61,1.3.26.98h0Z"/>
  <g>
    <path class="cls-3" d="M906.66,238.34c2.67.39,5.92-1.16,7.58-3.46.37-.51,2.13-.82,1.61-.1-2.2,3.03-6.95,5.03-10.39,4.52-.34-.05-.38-.3-.07-.56.32-.27.91-.46,1.27-.41"/>
    <path class="cls-3" d="M916.55,233.75c1.2-1.3,2.71-2.32,4.31-3.08.24-.11.59-.13.83-.03.19.08.29.25.15.43-.59.75-1.49,1.31-2.39,1.64-.28.1-.68.17-.94-.03-.24-.18-.02-.44.2-.52.74-.26,1.44-.7,1.92-1.33.33.13.65.26.98.39-1.43.68-2.78,1.6-3.85,2.77-.21.23-.62.29-.92.23-.22-.04-.51-.23-.29-.47"/>
    <path class="cls-3" d="M923.2,231.49c1.92-.78,3.85-2.54,4.22-4.45.55-2.88-2.2-6.08-5.19-6.66-.32-.06-.27-.33-.02-.49.32-.21.78-.23,1.12-.16,2.6.51,5.13,3.04,5.65,5.35.48,2.16-.82,4.29-2.92,5.76-.62.44-1.31.83-2.03,1.13-.29.12-.85.22-1.09.03-.24-.19-.01-.4.26-.51"/>
    <path class="cls-3" d="M902.71,238.64c.01-.28-.24-.36-.39-.3-.52.21-1.11.26-1.7.04-.09.29-.17.57-.26.86,1.09-.27,2.28-.31,3.47,0,.24.06.47-.13.58-.34.08-.16.12-.47-.12-.53"/>
    <path class="cls-3" d="M904.29,238.38c-1.33-.35-2.66-.3-3.88,0-.18.05-.36.23-.43.44-.05.17,0,.36.17.42"/>
    <path class="cls-3" d="M898.79,240.43c-1.28.42-3.1.09-4.31-1.23-1.83-1.99-2.01-5.09-1.01-7.18.11-.23-.06-.4-.26-.4-.26,0-.47.24-.59.48-.87,1.82-.96,4.27.08,6.39.97,1.98,2.72,2.96,4.46,2.98.52,0,1.04-.05,1.52-.21.19-.07.5-.29.5-.57,0-.28-.22-.33-.4-.26"/>
  </g>
  <path class="cls-25" d="M868.65,206.69c-2.12-.25-4.12,1.37-4.89,2.83-.18.34-.42,1.28-.32,2.57.13,1.65,1.36,3.12,2.68,3.79,1.77.9,3.94.34,5.25-1.01,1.78-1.83,1.5-4.7.24-6.39-.23-.31-1.25-1.59-2.96-1.79"/>
  <path class="cls-25" d="M888.34,205.36s-11.2-3.52-15.78-2.29c-6.68,1.8-13.26,8.37-14.33,12.43,0,0,8.47-9.31,13.22-10.45,4.53-1.08,16.89.3,16.89.3Z"/>
  <path class="cls-25" d="M922.02,186.4c1.42-1.59,4.37-2.42,5.92-1.83.36.14,1.36.55,2.14,1.58,1,1.32,1.05,3.24.5,4.61-.73,1.84-2.72,2.87-4.6,2.73-2.55-.19-4.24-2.53-4.42-4.63-.03-.38-.64-.92.51-2.21"/>
  <path class="cls-25" d="M915.5,193.97s7.4-9.89,12.13-11.85c6.92-2.86,16.82-1.92,20.35.56,0,0-13.29-1.86-18.11.28-4.6,2.05-14.37,11-14.37,11Z"/>
  <path class="cls-25" d="M854.01,203.82c-.23-.05-.48-.04-.74,0-.23-.33-.46-.67-.67-1.01-.12-.24-.22-.48-.31-.74-.01-.07-.02-.13-.02-.2.75-2.76,2.04-4.64,2.17-4.84,0,0,1.79-2.66,5.34-4.88,2.44-1.53,9.66-4.4,19.84-6.37.42,1.33.85,2.66,1.27,4,.32,1.02.64,2.03.95,3.05-3.67.23-6.75.61-9.07.95-4.89.71-7.38,1.1-9.93,2.42-2.68,1.38-4.74,3.21-5.54,3.93-1.12,1.01-1.89,1.66-2.69,2.76-.24.33-.41.63-.6.94Z"/>
  <path class="cls-25" d="M904.76,173.93c.62,1.25,1.24,2.5,1.87,3.75.48.95.96,1.91,1.44,2.85,3.42-2.68,6.42-4.81,8.72-6.37,4.85-3.29,7.34-4.96,10.58-6.02,3.4-1.12,6.59-1.45,7.83-1.57,1.75-.17,2.91-.31,4.44-.17,3.33.29,5.24,1.53,5.59,1.17.31-.33-1.07-1.56-1.22-1.68-3.52-3.09-8.23-3.62-8.59-3.67,0,0-3.57-.45-8.37.75-3.31.83-11.82,4.44-22.28,10.95"/>
  <path class="cls-21" d="M919.17,248.37c10.07-4.09,24.2-14.68,24.2-14.68,0,0,9.44,27.18-13.9,36.67-23.34,9.49-31.44-13.85-31.44-13.85,0,0,11.07-4.04,21.14-8.14Z"/>
  <path class="cls-30" d="M919.07,248.41c4.79-1.95,21.47-11.86,21.47-11.86,0,0,2.21,18.93-15.1,25.96-18.77,7.63-24.05-6.77-24.05-6.77l17.68-7.33Z"/>
  <path class="cls-46" d="M919.16,249.24c4.79-1.95,19.01-8.71,19.01-8.71,0,0-3.03,7.58-17.38,13.42-14.36,5.84-21.07,2.4-21.07,2.4l19.44-7.11Z"/>
  <path class="cls-21" d="M896.41,255.46c.46-.34,2.02-1.3,2.02-1.3,3.82-1.96,3.95-3.14,6.73-4.54,4.74-2.38,8.67-1.64,10.8-2.51,2.13-.87,4.42-4.14,9.49-5.74,2.96-.94,7.08-2.27,10.9-4.23,5.59-2.87,6.93-6.69,7.49-6.77.78-.11,3.25,9.92-23.53,20.81-26.78,10.89-24.53,4.74-23.89,4.27Z"/>
  <path class="cls-11" d="M909.34,460.19c1.53,41.9,8.04,53.57,18.28,61.66,13.11,10.36,22.07,2.3,29.58,11.42,14.84,18.05,6.49,54.62,5.33,86.16,0,0,79.16,9.63,133.38.8,54.22-8.82,118.25-44.39,118.25-44.39-31.7-42.87-51.66-66.39-51.66-66.39l-8-91.65-5.85-46.87c-5.75-48.23-19.71-83.64-74.06-94.84l-47.61-15.18s-10.74,55.8-56.79,60.49c-46.05,4.69-27.02-28.6-27.02-28.6,0,0-36.31,20.95-44.86,31.96-8.55,11.02-21.27,32.7-21.15,63.65.12,30.94-11.06,72-12.41,77.48-1.35,5.48,45.26,8.09,45.26,8.09"/>
  <path class="cls-29" d="M900.45,416.17c5.43,4.7,7.12,12.03,7.3,18.92.2,7.72.1,15.44.44,23.16.22,4.88.59,9.75,1.22,14.6.13,1.01,2.22.49,2.08-.56-1.14-8.75-1.39-17.57-1.48-26.38-.07-7.13.52-14.71-1.81-21.57-1.24-3.63-3.25-6.9-6.16-9.42-.75-.65-2.52.44-1.59,1.25h0Z"/>
  <path class="cls-39" d="M1122.51,349.38c-5.96-34.8-38.76-40.04-62.02-28.71-11.77,5.74-7.49,31.05-7.49,31.05-9.22,48.28-5.41,177.72-4.12,202.97,4.56.9,9.4-1.95,13.67-.09,14.92,6.5,21.73.24,31.41,13.24,4.8,6.45,9.43,24.12,12.24,31.77,13.64-18.03,14.92-54.42,16.97-75.99,3.08-32.48,2.63-65.02,2.58-97.59-.03-25.24,1.02-51.67-3.26-76.65Z"/>
  <path class="cls-11" d="M1045.63,278.37s64.97,4.4,80.64,36.92c15.68,32.52,13.59,98.08,13.59,98.08,0,0-70.12,9.62-106.26.37-36.14-9.26,12.02-135.37,12.02-135.37Z"/>
  <path class="cls-29" d="M1082.32,286.66c-10.61-.31-21.27,5.39-28.97,12.31-1.91,1.72-3.69,3.6-5.24,5.65-1.68,2.22-2.99,4.71-4.32,7.15-2.78,5.07-5.38,10.25-7.62,15.59-3.44,8.17-5.97,16.68-7.11,25.48-1.06,8.21-.96,16.51-.7,24.77.39,12.24.91,24.45.71,36.7,0,.39.32.49.65.53,3.6.48,7.21.97,10.81,1.45.88.12,2.17-1.1.78-1.29-3.6-.48-7.21-.97-10.81-1.45l.65.53c.18-10.8-.16-21.59-.56-32.38-.3-8.25-.6-16.54.09-24.79.69-8.22,2.49-16.27,5.3-24.03,1.79-4.95,3.95-9.76,6.31-14.46,1.3-2.59,2.66-5.15,4.07-7.69,1.33-2.39,2.65-4.78,4.39-6.9,3.75-4.58,8.6-8.31,13.79-11.13,5.16-2.81,11.05-4.94,16.99-4.76.42.01,1.19-.14,1.37-.59s-.15-.69-.59-.7h0Z"/>
  <path class="cls-39" d="M1067.56,612.51s15.67,7.56,35.22-9.02c19.55-16.58,4.08-61.65-2.9-80.73-7.17-19.57-52.7,33.91-52.7,33.91l20.38,55.84Z"/>
  <path class="cls-29" d="M1124.08,415.33c2.02.06,4-.03,6.01-.19,2.12-.17,4.52.35,6.55-.36,2.67-.93,1.4-3.95,1.08-6.04-.47-3.16-.77-6.34-.97-9.53-.4-6.55-.35-13.11-.45-19.66-.1-6.37-.19-12.74-.4-19.1-.24-7.34-.9-14.68-2.87-21.77-.13-.46-2.21.1-2.08.56,3.22,11.6,2.84,23.65,3.15,35.57.32,12.05-.22,24.24,1.81,36.16.12.73.36,1.53.33,2.28-.04.95-.22,1-1.05.97-1.16-.03-2.32-.03-3.48.04-2.11.13-4.16.3-6.28.23-.42-.01-1.16.08-1.47.39-.23.23-.37.43.12.45h0Z"/>
  <path class="cls-39" d="M1088.1,616.16c5.36-4.8,11.79-9.78,15.08-15.85-.41-.94-.43-.94-.89-1.86-6.74-13.44-17.6-24.93-30.09-33.21-8.63-5.72-13.64-12.74-24.02-14.14.25,2.03-4.61,5.55-4.61,5.55l-134.97,102.4s4.9,28.6,4.9,28.6c60.57-18.27,116.47-36.36,170.64-69.08,1.32-.8,2.64-1.6,3.95-2.42Z"/>
  <path class="cls-16" d="M876.63,531.41c4.62.34,9.17,3.22,11.82,6.97,3,4.25,3.95,9.76,4.44,14.83.05.56,1.96.16,1.89-.51-.52-5.36-1.58-11.19-4.95-15.56-2.94-3.82-7.64-6.37-12.44-6.73-.68-.05-2.02.91-.76,1h0Z"/>
  <path class="cls-16" d="M1073.17,568.24c-2.02-5.33-5.21-10.22-10.07-13.35-3.17-2.04-6.78-3.13-10.48-3.67-1.11-.16-2.51-.21-3.49-.52-.39-.12-.9-.06-1.24.17-.17.12-.59.51-.16.65,2.35.74,4.94.68,7.34,1.3,4.24,1.1,8.05,3.37,10.97,6.64,2.4,2.69,4.11,5.89,5.38,9.25.22.58,1.95.06,1.75-.47h0Z"/>
  <path class="cls-39" d="M252.54,429.15c2.84,13.89,8.64,27.07,16.69,38.93,19.92,29.32,64.2,102.98,80.74,109.45,38.29,14.96,113.4-15.35,113.4-15.35l-1.99-25.81-83.04.71s-32.55-68.98-44.08-93.3c-4.77-10.07-5.21-12.02-23.57-24.82-1.24-.86-9.91-4.57-10.68-5.01"/>
  <path class="cls-39" d="M534.58,560.6c-1.9-2.83-19.44-1.56-19.86-3.32-.42-1.76,21.64-1.42,26.25-4.24,2.37-1.45,1.88-2.87.84-3.9-.87-.86-2.27-1.36-3.49-1.5-3.87-.44-2.9-.93-10.61-.84-9.25.11-13.03.55-13.02.13,0-.43,3.66-1.26,12.97-1.5,5.1-.33,6.81-1.58,12.1-1.53,1.65.02,3.27-.68,4.28-1.99,1.49-1.94,1.26-4.36-1.83-4.98-7.34-1.45-29.91,1.51-29.5,1.58,0,0,7.6-2.29,12.93-4.04,5.33-1.75,14.58-3.83,13.31-7.13-1.27-3.3-7.64-2.18-14.43-1.49-7.64.72-29.94,2.86-29.94,2.86,1.99-1.94,5.33-4.8,10.14-8.54,5.9-5.15,1.92-3.36,1.92-3.36,0,0-23.11,3.94-28.56,7.76-4.15,2.92-10.23,7.44-11.07,10.21l-21.45,1.7c.31,1.81,3.26,29.03,4.16,30.43,0,0,18.06-5.11,23.79-3.05,6.71,7.15,49.4.9,54.66.65,5.34-.25,7.49-2.31,6.39-3.93Z"/>
  <path class="cls-16" d="M492.81,576.98c-.49-.23-1.25-.74-1.8-1.18-1.32-1.04-2.45-2.34-3.16-3.87-.91-1.98-1.15-4.35-1.21-6.51-.03-1.01-.01-2.05.18-3.04.14-.7-2.17-.32-2.3.35-.21,1.04-.22,2.15-.2,3.21.05,2.25.3,4.74,1.3,6.79,1.09,2.24,3.07,4.18,5.32,5.25.57.27,2.7-.61,1.88-1h0Z"/>
  <path class="cls-39" d="M305.18,339.95c.76-8.04.39-23.12-.74-27.95.05-3.72.08-8.04.1-13.25,0-1.51-.03-2.96-.08-4.4-.09-.74-.12-1.48-.09-2.22-1.27-25.36-9.88-38.49-9.88-38.49-11-16.63-29.97-26.13-49.84-24.95-23.4.89-44.27,15.49-55.03,30-5.35,7.18-7.86,16.09-7.05,25.01.68,7.63,2.6,16.17,4.8,24.42-8.18-.23-16.15,2.84-12.91,17.86,4.47,20.72,17.99,26.93,24.19,21.1,1.46.23,4.46,6.48,4.88,10.81.8,8.3.73,23.06-3.23,30.39l.26,2.36c18.14,28.14,35.59,32.35,95.64,14.47l-26.62-19.03-.22-5.55c4.58-.4,5.88.17,10.08-1.61,18.76-5.21,24.86-29.51,25.75-38.99Z"/>
  <path class="cls-16" d="M269.23,380.59s-22.26,2.18-42.54-10.68c0,0,2.54,6.66,16.91,11.46,14.37,4.8,25.71,2.83,25.71,2.83l-.07-3.62Z"/>
  <ellipse class="cls-24" cx="294.6" cy="305.66" rx="4.99" ry="4.97" transform="translate(-68.32 525.89) rotate(-77.31)"/>
  <path class="cls-19" d="M300.41,301.39c-2.4-1.47-5.69-2.4-10.5-1.9-7.7.8-11.05,10.53-11.05,10.53,0,0,3.99-7.45,11.57-8.43,3.65-.47,9.71,1.58,12.53,2.96-.09-.74-1.12-2.19-2.56-3.15Z"/>
  <path class="cls-24" d="M180.88,326.88c-.86-2.41-1.49-5.81,0-8.15l-.66.36s-.13-.06.02,0c.07.03.16.02.39.09.67.21,1.3.63,1.86,1.06,3.15,2.37,5.42,5.99,7.43,9.3l1.06-.59c-.87-.61-2.04-1.07-3.1-.8-1.26.32-1.74,1.57-1.75,2.76-.04,3.24,2.92,4.81,5.79,5.06.55.05,1.3-.74.46-.81-2.3-.2-4.6-1.32-4.95-3.82-.09-.62-.1-1.87.45-2.33s1.65.27,2.12.6c.33.23,1.36-.1,1.06-.59-1.52-2.51-3.16-4.98-5.14-7.16-1-1.1-2.11-2.18-3.41-2.92-.55-.32-1.19-.62-1.84-.67-.75-.05-1.06.4-1.31,1.04-1.02,2.53-.64,5.39.26,7.89.18.5,1.42.15,1.25-.33h0Z"/>
  <ellipse class="cls-22" cx="242.84" cy="307.05" rx="4.99" ry="4.97" transform="translate(-110.06 476.48) rotate(-77.31)"/>
  <path class="cls-19" d="M256.86,310.1s-7.66-9.98-16.13-9.16c-11.93,1.16-13.94,6.15-16.18,10.02,0,0,7.23-7.33,16.47-8,8.38-.61,15.85,7.14,15.85,7.14Z"/>
  <path class="cls-21" d="M271.01,345.47c-7.16.1-18.79-.54-18.79-.54,0,0-.69,20.09,19.17,19.49,16.6-.5,16.68-19.64,16.68-19.64,0,0-9.9.59-17.07.69Z"/>
  <path class="cls-23" d="M271.08,345.47c-3.41.05-16.09.09-16.09.09,0,0,3.1,11.73,15.42,11.56,13.36-.19,15.24-11.12,15.24-11.12l-14.57-.53Z"/>
  <path class="cls-46" d="M271.25,347.04c-3.41.05-13.78-.36-13.78-.36,0,0,4.11,2.75,14.33,2.6,10.22-.15,13.08-2.89,13.08-2.89l-13.63.65Z"/>
  <path class="cls-21" d="M288.01,344.67c0-.37-.75-.52-2.44-.63-2.82-.19-3.76-1.19-5.8-1.31-3.49-.21-5.69,1.15-7.2,1.17s-3.75-1.27-7.23-.96c-2.04.18-7.09.97-9.9,1.24-1.69.16-3.68-.44-4.04-.35-.5.13.74,4.74,19.8,4.47,19.06-.27,16.83-3.12,16.82-3.62Z"/>
  <path class="cls-25" d="M255.65,290.16c.02-.18-.58-.22-.56-.39-9.28-2.6-16.4-3.02-19.02-2.6-1.99.32-3.95,1.06-5.8,2.1,0,0-5.13,2.77-5.79,3.92-.65,1.15,3.08-.49,3.08-.49.8-.22,1.35-.51,2.16-.61,4.46-.6,8.74-1.83,13.18-1.08,3.8.62,8.87,3.11,12.48,4.71.19-1.91-.05-3.68.28-5.56Z"/>
  <path class="cls-25" d="M277.36,291.23c-.02-.18.5-.22.48-.4,8.04-2.68,14.25-3.15,16.55-2.75,1.75.3,3.47,1.03,5.11,2.05,0,0,4.55,2.73,5.14,3.87.6,1.14-2.7-.46-2.7-.46-.7-.21-1.19-.49-1.9-.6-3.91-.56-7.68-1.76-11.53-.97-3.3.65-7.68,3.18-10.79,4.81-.21-1.9-.04-3.68-.37-5.55Z"/>
  <g>
    <path class="cls-19" d="M195.69,323.8c-.04-.12-.04-.25-.08-.38-1.19-2.93-2.57-5.64-5.05-7.71-1.13-.95-2.48-2-3.9-2.6-1.42-.6-2.94-1.29-4.5-1.46-2.18-.49-4.34-.39-6.48.28-.36.17-.72.34-1.08.5-6.05-17.89-9.02-37.1,3.58-59.56,3.64-6.47,13.46-13.77,16.46-16.11,18.2-14.01,34.78-15.42,55.26-13.95,23.74,1.71,46.26,16.32,52.34,40.09,1.47,5.73,2.76,9.55,2.36,15.45,0,0-5.22-21.61-16.82-28.12-11.6-6.51-13.39,3.57-29.54,4.35-18.71.84-25.13-9.17-39.94-.94-13.52,7.54-17.25,19.61-17.25,19.61-1.87,8.21-5.46,13.75-2.93,23.03.62,2.21,1.13,4.45,1.58,6.69.23,4.11,1,8.23.37,12.34-.31,2.02-1,4.13-2.71,5.38-1.84,1.35.35,3.72-1.66,3.08Z"/>
    <path class="cls-24" d="M197,323.45c-.45-2.02-1.77-4.24-2.98-5.89-1.4-1.91-3.33-3.58-5.39-4.73-4.42-2.47-9.93-3.35-14.61-1.16l1.89.42c-2.31-6.86-4.17-13.89-4.88-21.11-.76-7.73-.09-15.58,2.06-23.05,1.25-4.33,2.99-8.52,5.06-12.52,1.72-3.31,3.8-6.11,6.43-8.76,4.49-4.51,9.67-8.61,14.94-12.18,6.46-4.38,13.61-7.64,21.24-9.38,7.21-1.65,14.66-1.95,22.03-1.68s14.42.97,21.38,3.16c6.54,2.06,12.74,5.16,18.21,9.3s10.07,9.19,13.5,15.06c1.77,3.02,3.19,6.23,4.25,9.56,1.2,3.76,2.28,7.72,2.88,11.62.33,2.11.39,4.23.26,6.36l2.64-.45c-.74-3.03-1.78-6.02-2.93-8.92-2.17-5.48-4.93-10.98-8.96-15.34-3.64-3.93-9.1-7.36-14.67-6.55-2.37.34-4.54,1.36-6.68,2.39-2.56,1.24-5.13,2.4-7.9,3.1-7.4,1.89-15.16.85-22.45-1.01-5.82-1.49-11.56-3.08-17.57-1.64-7.18,1.72-13.77,6.61-18.49,12.17-2.64,3.11-5.07,6.76-6.4,10.66-.32.94-.5,1.92-.76,2.88-.53,1.91-1.15,3.8-1.71,5.7-1.12,3.83-1.79,7.67-1.3,11.66.3,2.42,1.06,4.74,1.61,7.1s.81,4.88,1.03,7.39.4,5.23,0,7.82c-.14.94-.36,1.86-.76,2.72-.45.99-1.11,1.53-1.85,2.27-.48.49-.81,1.07-.89,1.77-.03.3-.02.64.02.95.04.28-.09.51.11.32l.86-.51.23-.04c-.62-.17-1.43-.04-1.86.5-.35.45-.28,1.1.34,1.27,1.14.31,2.88.18,3.01-1.33.05-.52-.2-1.09-.01-1.6.26-.72,1.31-1.31,1.78-1.96,2.48-3.46,2.04-8.41,1.69-12.41-.22-2.5-.41-4.94-.96-7.39s-1.32-4.73-1.67-7.16c-.57-4,.2-7.93,1.33-11.76,1.22-4.1,2.07-8.23,4.14-12,3.18-5.81,8-10.72,13.68-14.11,2.97-1.77,6.22-3.18,9.69-3.53,2.8-.28,5.59.13,8.31.76,3.01.7,5.98,1.58,9,2.22,3.64.78,7.33,1.18,11.05,1.17s7.62-.49,11.24-1.68c2.62-.85,5.07-2.06,7.56-3.24,1.86-.88,3.8-1.72,5.9-1.67,2.75.06,5.49,1.43,7.69,3,4.84,3.46,8.08,9,10.51,14.32,1.73,3.77,3.16,7.7,4.23,11.71.06.22.12.45.17.67.28,1.14,2.58.59,2.64-.45.27-4.33-.48-8.45-1.57-12.62-.98-3.75-1.98-7.45-3.57-10.99-2.89-6.43-7.11-12.13-12.3-16.89-10.61-9.73-24.71-14.97-38.95-15.94-7.86-.54-15.82-.71-23.64.44s-15.21,3.55-22.07,7.32c-6.15,3.37-11.82,7.71-17.12,12.3-2.73,2.36-5.4,4.87-7.64,7.71-2.63,3.35-4.48,7.36-6.1,11.28-3.17,7.67-4.92,15.89-4.91,24.2.01,7.64,1.42,15.2,3.57,22.51.52,1.76,1.07,3.5,1.66,5.23.26.76,1.32.69,1.89.42,3.96-1.85,9.04-.59,12.53,1.82,1.6,1.11,3.02,2.39,4.13,3.99,1.03,1.48,2.14,3.36,2.54,5.13.27,1.21,2.9.53,2.63-.7Z"/>
  </g>
  <path class="cls-25" d="M268.88,334.93c1.86.84,3.93,1.13,5.96,1.12,1.84-.01,3.86-.18,5.58-.87,2.58-1.03,4.51-3.86,3.37-6.6-.31-.76-.72-1.47-1.07-2.21-.51-1.06-.93-2.15-1.26-3.29-.1-.33-1.08-.07-.98.26.46,1.6,1.16,3.08,1.9,4.56.49.98.97,2.01.75,3.13-.28,1.46-1.22,2.76-2.52,3.48s-3.12.89-4.64.97c-2.14.1-4.34-.14-6.31-1.02-.28-.13-1.18.29-.79.47h0Z"/>
  <path class="cls-25" d="M260.41,328.05c-.88-.03-1.69.39-2.06,1.19s-.44,1.79-.41,2.67.17,1.73.78,2.42c.82.93,2.11,1.25,3.3,1.38.8.09,1.54,0,2.3-.26.84-.28,1.63-.73,2.49-.94.08-.02.49-.13.46-.27s-.47-.02-.53,0c-.62.15-1.21.4-1.8.65s-1.15.51-1.79.48c-1.03-.05-2.17-.29-3.01-.92-1.31-.98-1.36-2.83-1.11-4.31.07-.41.17-.82.37-1.19.08-.15.18-.3.3-.42.02-.02.15-.11.15-.12,0,.03-.27.03-.06.04s.52-.06.7-.19c.14-.1.15-.19-.05-.19h0Z"/>
  <path class="cls-9" d="M142.45,486.36s10.32,72.65,2.8,97.85c-7.93,26.56-10.79,53.08-10.79,53.08,0,0,48.26,29.07,126.67,22.95,43.12-3.37,64.22-17.67,59.45-35.4-1.23-4.57-3.65-24.11-3.65-24.11l2.3-90.5-176.78-23.87Z"/>
  <path class="cls-9" d="M176.59,575.42c7.47,2.62,14.9,3.87,22.77,4.53,15.57,1.32,31.12.69,46.71.35,20.98-.45,42.02-.49,62.91-2.27l8.56-2.08c5.05-10.34,5.41-30.57,6.87-58.3,27.48-.08,35.7-36.06,35.7-36.06,0,0-27.54-58-38.23-68.08-10.69-10.08-46.82-22.92-46.82-22.92,14.98,13.89-7.13,15.76-7.13,15.76-19.43,5.33-52.07-1.79-58.24-26.68,0,0-27.15,14.01-39.38,24.05-29.04,23.86-27.57,53.89-26.61,69.64.87,14.34,21.95,54.91,21.85,81.41,3.9,1.29,7.13,19.28,11.03,20.65Z"/>
  <g>
    <path class="cls-9" d="M324.9,515.88c1.84-20.39.88-45.03-.5-65.45"/>
    <path class="cls-5" d="M326,515.79c1.54-17.2,1.17-34.56.31-51.79-.23-4.62-.51-9.24-.82-13.86-.06-.96-2.24-.45-2.17.58,1.15,17.02,1.88,34.11,1.32,51.17-.15,4.7-.42,9.4-.84,14.08-.1,1.1,2.11.79,2.2-.17h0Z"/>
  </g>
  <g>
    <path class="cls-9" d="M187.3,387.5s8.86-12.34,15.87-16.34c0,0,25.43,37.11,49.24,36.39,0,0-17.62,9.04-18.79,21.46,0,0-47.77-22.54-46.3-40.46"/>
    <path class="cls-5" d="M188.31,387.51c1.6-2.22,3.32-4.36,5.1-6.44,3.03-3.54,6.36-7.25,10.43-9.61l-1.68.12c3.07,4.48,6.58,8.69,10.21,12.72,6.88,7.64,14.68,14.96,23.87,19.73,4.85,2.52,10.23,4.25,15.74,4.11l-.24-.9c-6.27,3.23-12.56,8.13-16.35,14.13-1.49,2.36-2.57,4.98-2.86,7.77l1.95-.66c-5.41-2.55-10.67-5.47-15.8-8.53-8.96-5.34-18.23-11.36-25.02-19.4-2.82-3.34-5.59-7.59-5.26-12.15.06-.85-2.12-.42-2.17.28-.29,4.01,1.62,7.71,3.94,10.85,3.05,4.14,6.97,7.62,11,10.78,7.92,6.23,16.66,11.45,25.56,16.15,1.99,1.05,3.99,2.09,6.02,3.05.45.21,1.88,0,1.95-.66.65-6.24,5.08-11.3,9.72-15.17,2.66-2.21,5.57-4.26,8.66-5.84.63-.33.45-.92-.24-.9-10.08.25-19.39-5.9-26.81-12.13-6.88-5.77-12.99-12.47-18.49-19.55-1.15-1.48-2.3-2.98-3.36-4.53-.3-.44-1.37-.06-1.68.12-4.17,2.42-7.58,6.12-10.71,9.72-1.93,2.22-3.79,4.52-5.51,6.91-.56.77,1.61.58,2.02.02h0Z"/>
  </g>
  <g>
    <path class="cls-9" d="M268.05,381.53s4.01,18.85-12.5,25.37c0,0,13.6,5.5,18.63,16.11,0,0,11.12-8.3,11.89-33.46,0,0-7.13-5.3-13.42-7.46-6.29-2.16-4.61-.56-4.61-.56Z"/>
    <path class="cls-5" d="M266.97,381.82c1.32,6.27.11,13.8-3.84,18.9-2.07,2.67-4.84,4.63-7.96,5.89-.22.09-1.07.5-.5.73,2.56,1.04,5.01,2.48,7.3,4.02,4.55,3.05,8.72,6.95,11.14,11.94.25.52,1.61,0,1.93-.23,1.09-.82,2.01-1.88,2.85-2.94,2.28-2.87,4.02-6.15,5.35-9.56,2.24-5.74,3.34-11.88,3.77-18.01.07-.96.54-2.81-.08-3.53-.48-.56-1.41-.99-2.01-1.4-2.57-1.72-5.24-3.32-8.05-4.63-1.77-.83-3.6-1.52-5.47-2.05-.94-.27-1.94-.56-2.92-.45-.63.07-2.29.56-1.43,1.4.43.42,2.43-.38,2.04-.76-.09-.09-.03-.15-.14-.23.31.24-1.8.23-.91.55.44.16.96.2,1.42.33,3.09.86,6,2.18,8.79,3.75,2.06,1.16,4.06,2.43,5.99,3.79.17.12.53.28.64.46.26.4.04-.38.1.49.12,1.9-.21,3.96-.42,5.85-.92,8.33-3.24,17.15-8.48,23.88-.63.81-1.3,1.58-2.04,2.3-.19.18-.4.35-.59.54-.2.2.08-.06-.11.09l1.93-.23c-3.62-7.47-11.25-13.18-18.83-16.26l-.5.73c5.38-2.17,9.77-5.99,11.93-11.44,1.49-3.75,1.92-7.92,1.6-11.92-.07-.86-.16-1.73-.34-2.58-.11-.52-2.3,0-2.17.58Z"/>
  </g>
  <g>
    <polyline class="cls-9" points="252.8 407.61 255.93 407.14 261.16 442.65 251.35 444.16"/>
    <path class="cls-5" d="M252.69,408.36c1.04-.16,2.09-.31,3.13-.47l-.98-.45c1.53,10.37,3.06,20.74,4.59,31.11.22,1.47.43,2.93.65,4.4l1.2-1.03c-3.27.5-6.54,1.01-9.81,1.51-.42.06-1.18.3-1.21.84-.02.51.56.71.99.64,3.27-.5,6.54-1.01,9.81-1.51.51-.08,1.29-.38,1.2-1.03-1.53-10.37-3.06-20.74-4.59-31.11l-.65-4.4c-.06-.38-.68-.5-.98-.45-1.04.16-2.09.31-3.13.47-.42.06-1.18.3-1.21.84-.02.51.56.71.99.64h0Z"/>
  </g>
  <ellipse class="cls-5" cx="251.38" cy="421.28" rx="3.02" ry="2.38" transform="translate(-10.54 6.47) rotate(-1.44)"/>
  <ellipse class="cls-5" cx="253.35" cy="433.56" rx="3.02" ry="2.38" transform="translate(-10.85 6.52) rotate(-1.44)"/>
  <g>
    <path class="cls-12" d="M395.17,659.39c.11,4.93-1.58,9.64-2.19,14.49s-.2,9.33,1.05,13.82c.26.94,3.01.2,2.75-.74-1.31-4.68-1.65-9.55-.92-14.36s2.17-9.18,2.06-13.94c-.02-.84-2.77-.31-2.75.74h0Z"/>
    <path class="cls-12" d="M402.34,691.42c-.31-5.43-.71-10.93-.59-16.37.06-2.65.73-4.94,1.68-7.38.82-2.11,1.56-4.26,1.2-6.55-.09-.6-2.86,0-2.75.74.38,2.43-.54,4.66-1.4,6.88s-1.43,4.56-1.48,7.05c-.12,5.44.28,10.94.59,16.37.03.53,2.79.06,2.75-.74h0Z"/>
    <path class="cls-12" d="M408.95,692.41c-1.12-4.71-2.23-9.49-1.65-14.36s1.52-9.6,2.3-14.38c.18-1.1-2.59-.64-2.75.33-.8,4.93-1.83,9.88-2.35,14.84s.59,9.62,1.7,14.3c.23.98,2.99.27,2.75-.74h0Z"/>
    <path class="cls-12" d="M418.07,696.34c-1.97-5.4-4.07-11.09-3.89-16.93.09-2.87.91-5.53,1.67-8.26s1.25-5.68,1.38-8.6c.06-1.38-3.08-.79-3.13.35-.13,2.92-.59,5.79-1.38,8.6s-1.65,5.69-1.68,8.72c-.06,5.89,1.92,11.5,3.91,16.96.43,1.18,3.52.28,3.11-.83h0Z"/>
    <path class="cls-12" d="M425.72,699.22c-.12-2.5-1.22-4.69-2.26-6.92-1.19-2.55-1.94-5.06-1.89-7.9.05-3.02.7-6.02,1.21-8.98s1.05-6.07,1.59-9.1c.16-.92-2.93-.39-3.09.48-.54,3.03-1.07,6.06-1.59,9.1s-1.11,5.88-1.22,8.87.52,5.42,1.71,8c1.08,2.35,2.31,4.65,2.43,7.28.03.73,3.16.17,3.11-.83h0Z"/>
    <path class="cls-12" d="M434.42,699.19c.08-5.18-3.56-9.4-4.13-14.45-.34-2.99.28-6,.78-8.93s1.03-6.03,1.54-9.05c.19-1.11-2.94-.58-3.11.42-.51,3.02-1.03,6.03-1.54,9.05s-1.07,5.89-.83,8.87c.42,5.25,4.26,9.6,4.18,14.93-.01.86,3.1.32,3.11-.83h0Z"/>
    <path class="cls-12" d="M441.96,698.82c-1.53-4.9-4.35-9.72-3.97-15.01s3.45-9.49,3.12-14.63c-.04-.55-3.17-.02-3.11.83.33,5.12-2.76,9.6-3.12,14.63-.38,5.29,2.44,10.11,3.97,15.01.22.7,3.32-.18,3.11-.83h0Z"/>
    <path class="cls-12" d="M448.32,700.67c-.85-5.25-1.73-10.5-2.54-15.76-.39-2.57-.25-4.82.68-7.25.8-2.09,1.8-4.09,2.16-6.31.22-1.37-2.93-.88-3.13.32-.37,2.25-1.4,4.26-2.19,6.37-.9,2.4-1.07,4.68-.71,7.22.77,5.43,1.74,10.83,2.61,16.24.2,1.22,3.32.47,3.11-.83h0Z"/>
    <path class="cls-12" d="M455.29,701.82c-.42-5.06-2.12-9.96-2.18-15.05-.03-2.57.44-5.11.85-7.64s.83-5.19,1.25-7.79c.15-.95-2.95-.41-3.09.48-.42,2.6-.83,5.19-1.25,7.79s-.85,4.99-.87,7.53c-.04,5.26,1.76,10.31,2.18,15.52.06.77,3.2.17,3.11-.83h0Z"/>
    <path class="cls-12" d="M462.87,701.72c-2.1-9.47-4.22-19.67-.05-28.91.68-1.5-2.44-1.31-2.94-.21-4.35,9.62-2.32,20.06-.13,29.95.28,1.26,3.4.46,3.11-.83h0Z"/>
    <path class="cls-12" d="M470.95,702.41c-.72-2.49-1.44-4.97-2.16-7.46s-1.68-4.92-1.82-7.44.75-5.38,1.29-7.95,1.12-5.28,1.68-7.93c.16-.77-2.9-.3-3.08.52-.56,2.64-1.12,5.28-1.68,7.93s-1.36,5.19-1.34,7.8,1,5.04,1.7,7.44c.77,2.64,1.53,5.28,2.3,7.92.22.77,3.33-.08,3.11-.83h0Z"/>
    <path class="cls-12" d="M478.98,702.57c-.14-2.36-1.08-4.49-1.94-6.66-.92-2.31-1.53-4.68-1.73-7.16-.41-5.04.67-10.07,2.12-14.86.29-.97-2.8-.55-3.1.43-1.45,4.79-2.49,9.79-2.16,14.81.16,2.48.7,4.88,1.6,7.2s1.96,4.56,2.11,7.07c.05.88,3.18.28,3.11-.83h0Z"/>
    <path class="cls-12" d="M488.59,702.76c-1.25-4.91-2.67-9.82-3.71-14.78-.96-4.59-1.22-9.47,1.13-13.71.28-.51-1.1-.34-1.25-.32-.55.09-1.52.31-1.82.86-2.3,4.16-2.16,9.01-1.26,13.54,1.02,5.12,2.51,10.18,3.8,15.24.18.7,3.3-.1,3.11-.83h0Z"/>
    <path class="cls-45" d="M529.09,524.96c-19.9-15.46-47.74-19.69-72.77-16.79-12.54,1.45-25.56,4.29-35.17,12.48-10.25,8.74-15.04,22.22-18.24,35.31-8.22,33.67-8.68,68.68-9.11,103.34,28.36,9.71,57.96,15.76,87.86,17.96,1.42.1,2.96.17,4.15-.61,1.89-1.24,2-3.92,1.94-6.18-1.37-51.19,13.26-102.68,41.33-145.5"/>
    <g class="cls-50">
      <path class="cls-12" d="M387.1,617.37s75.42,27.21,114.43,23.89l-3.06,18.46s-90.87-6.51-111.61-25.97l.24-16.37Z"/>
      <path class="cls-12" d="M389.4,578.75s75.42,27.21,114.43,23.89l-3.06,18.46s-90.87-6.51-111.61-25.97l.24-16.37Z"/>
      <path class="cls-12" d="M399.32,540.55s75.42,27.21,114.43,23.89l-3.06,18.46s-90.87-6.51-111.61-25.97l.24-16.37Z"/>
      <path class="cls-12" d="M525.38,556.89s-72.36-34.52-111.51-35.06l4.87-18.06s89.79,15.45,108.5,36.86l-1.86,16.27Z"/>
    </g>
  </g>
  <path class="cls-39" d="M251.26,547.24s-23.76-41.83-40.02-72.93c-.04.03-.08.05-.13.08-8.11,4.82-16.31,9.47-24.39,14.33-8.07,4.86-16.03,9.92-23.55,15.56-3.03,2.28-5.99,4.66-8.84,7.15,20.09,33.95,53.14,75.62,66.52,81.42,40.15,17.39,142.48,12.31,142.48,12.31l-.72-26.68-111.36-31.22Z"/>
  <path class="cls-39" d="M441.68,582.9c-7.24,2.24-17.03,5.09-18.25,4.53s-9.95-3.08-17.58-5.25c-3.94-.94-6.55-4.7-5.84-8.41.19-.97,19.29-1.06,18.33-9.36l-16.25-3.17c-5.37-.31-10.71.03-15.89,1.02-6.34,1.61-25.93,14.62-25.93,14.62l-20.62-4.49-.04,31.14,20.9.81,19.05,10.41s37.37,9.51,42.41,7.59c5.04-1.92,11.95-11.19,11.95-11.19,7.09-1.41,9.37-10.69,9.37-10.69,10.63-6.05,3.12-9.48,3.12-9.48.42-.12.78-.35,1.05-.67,2.98-3.42-1.47-8.78-5.78-7.41Z"/>
  <path class="cls-49" d="M400.44,577.75c-.5-1.2-.67-2.53-.41-3.85.19-.97,19.29-1.06,18.33-9.36l-16.25-3.17c-5.37-.31-10.71.03-15.89,1.02-6.34,1.61-25.08,13.45-25.08,13.45l-18.98-3.1"/>
  <path class="cls-9" d="M160.5,534.66c26.36-.67,47.32-24.84,67.5-41.81,1.79-1.51,3.63-3.07,4.69-5.16,2.8-5.5-.72-11.99-4.13-17.14-8.62-13.01-17.33-26.14-28.6-36.93-11.27-10.79-8.52-23.68-24.06-25.17-1.36-.13-4.3-5.21-5.59-4.73-1.38.52-17.58,14.97-18.54,16.09-9.95,11.68-20.33,34.59-20.07,49.93.4,23.35,8.6,37.7,20.21,57.96"/>
  <g>
    <path class="cls-9" d="M216.82,502.04c4.15-1.09,15.95-3.66,15.95-3.66.21-4.28-9.05-16.94-10.81-20.84-4.53-10.02-11.67-21.03-18.09-29.96-5.18-7.2-13.74-16.02-24.81-16.34"/>
    <path class="cls-5" d="M217.03,502.82c5.28-1.37,10.62-2.5,15.95-3.66.36-.08.88-.43.9-.85.05-1.75-.77-3.48-1.51-5.03-1.06-2.23-2.31-4.37-3.59-6.48-2.41-3.99-4.87-7.85-6.9-12.05-3.36-6.95-7.4-13.56-11.68-19.97-3.6-5.4-7.25-10.86-11.94-15.38-5.13-4.94-11.57-8.7-18.83-8.98-.49-.02-1.22.13-1.41.68-.16.47.15.94.67.96,13.22.5,21.65,12.09,28.4,22.03,4.22,6.22,8.22,12.62,11.64,19.31,1.1,2.15,2.02,4.4,3.23,6.49,1.11,1.92,2.31,3.79,3.48,5.67,1.48,2.39,2.95,4.79,4.24,7.29.85,1.63,2.04,3.7,1.99,5.61l.9-.85c-5.33,1.16-10.67,2.29-15.95,3.66-1.35.35-.94,1.9.42,1.55h0Z"/>
  </g>
  <g>
    <path class="cls-9" d="M161.18,538.05c-.97-.39-3.75-3.53-4.42-4.33-3.61-4.3-6.99-9.55-10-15.34"/>
    <path class="cls-5" d="M161.81,537.33c-1.09-.5-2.16-1.95-2.98-2.85-1.15-1.26-2.21-2.59-3.24-3.95-2.98-3.96-5.55-8.23-7.85-12.62-.44-.83-2.51-.05-1.99.95,2.4,4.59,5.1,9.04,8.25,13.15,1.04,1.35,2.12,2.66,3.29,3.91.94,1.01,1.97,2.26,3.25,2.85.88.4,2.51-.87,1.26-1.44h0Z"/>
  </g>
  <g>
    <path class="cls-9" d="M166.77,547.35s7.67,1.48,39.6-20.54c31.93-22.01,30.7-25.95,30.7-25.95l-8.37-12.18s-10.43,13.84-32.85,28.82c-22.42,14.98-38.79,18.02-38.79,18.02l9.72,11.82Z"/>
    <path class="cls-5" d="M166.38,548.09c.55.1,1.18,0,1.72-.07,1.92-.28,3.78-.89,5.6-1.57,9.52-3.53,18.34-9.2,26.77-14.74,10.77-7.08,21.61-14.5,31.23-23.11,1.78-1.59,3.57-3.25,5.04-5.14.52-.66,1.27-1.55,1.4-2.42s-.71-1.57-1.15-2.21c-2.26-3.28-4.52-6.57-6.77-9.85l-.52-.76c-.38-.55-1.56-.27-1.9.18-1.47,1.95-3.15,3.76-4.82,5.53-4.55,4.82-9.49,9.28-14.65,13.44-12.88,10.39-27.33,19.47-43.01,25-2.75.97-5.58,1.92-8.45,2.46-.41.08-1.23.65-.81,1.16,3.24,3.94,6.48,7.88,9.72,11.82.59.71,2.66-.12,2-.93-3.24-3.94-6.48-7.88-9.72-11.82l-.81,1.16c2.38-.45,4.73-1.2,7.03-1.97,6.31-2.11,12.41-4.83,18.28-7.93,14.93-7.88,28.91-18.18,40.73-30.26,2.2-2.25,4.42-4.57,6.32-7.09l-1.9.18c1.81,2.64,3.63,5.27,5.44,7.91.9,1.31,1.77,2.63,2.69,3.92.14.19.21.49.15.18,0,.04-.01-.11,0-.11,0,0-.12.42-.07.31-.16.37-.37.71-.6,1.05-.02.04-.27.37-.46.62-.26.33-.54.65-.82.96-.78.87-1.6,1.69-2.44,2.5-8.15,7.77-17.68,14.23-26.94,20.58-9.34,6.4-19.02,12.82-29.49,17.26-2.01.85-4,1.62-6.16,2.09-.16.03-.31.07-.47.09.06-.01.08,0-.2.03-.21.03-.43.05-.64.07-.1,0-.58.02-.33.02s-.04-.01-.12-.01c-.03,0-.05,0-.08-.01-1.01-.19-2.22,1.22-.78,1.49Z"/>
  </g>
  <path class="cls-49" d="M405.49,591.53c1.79,1.41,3.78,2.57,5.89,3.43,4.89,2.58,10.25,4.06,15.66,4.33,5.37-.21,10.48-1.78,14.83-4.56,1.9-.92,3.62-2.13,5.1-3.6"/>
  <path class="cls-49" d="M405.24,600.46c1.45,1.52,3.25,2.7,5.23,3.42l6.28,2.46c2.66.94,5.45,1.35,8.2,1.21,2.63-.39,5.17-1.07,7.59-2.04l5.83-2.21c1.87-.55,3.63-1.37,5.21-2.44"/>
  <path class="cls-49" d="M405.78,611.15c-.19.64,6.35,2.78,14.32,4.85,1.11.26,2.25.25,3.31-.03.91-.18,1.81-.42,2.68-.72,1.48-.46,2.89-1.06,4.23-1.8,2.29-1.26,3.39-2.47,3.22-2.63"/>
  <path class="cls-16" d="M249.46,546.98c-6.04,3.6-9.87,10.36-9.75,17.4,0,.58,2.91.12,2.9-.78-.11-6.6,3.42-13.06,9.1-16.44.51-.31.31-.66-.2-.73-.69-.09-1.47.2-2.05.55h0Z"/>
  <path class="cls-16" d="M376.71,536.36c-5.1,3.81-6.59,10.21-7.75,16.13-.15.77,2.72.3,2.87-.47,1.07-5.48,2.38-11.92,7.13-15.48.45-.34.36-.66-.2-.73-.63-.08-1.54.17-2.05.55h0Z"/>
  <g>
    <path class="cls-9" d="M369.48,493.14l-8.64-11.99s4.53,1.91-16.51,18.79c-2.89,2.32-16.75,11.55-19.24,9.58-.01.11.18,1.2.16,1.3-.22,1.93-.22,3.12-.37,5.06-.16,2.07-.13,4.17-.04,6.24.09,1.98-.15,3.68-.03,5.66,4.16-3,15.13-6.47,26.61-14.86,20.98-15.33,18.05-19.78,18.05-19.78Z"/>
    <path class="cls-5" d="M370.49,492.72c-2.88-4-5.76-7.99-8.64-11.99l-1.88.93c-.15-.07.04-.07.08.11-.03-.11.11.52.1.54-.07,1.55-1.43,3.09-2.34,4.22-3.02,3.73-6.75,6.93-10.41,10.01-3.37,2.84-6.81,5.41-10.56,7.74-2.13,1.32-4.3,2.6-6.57,3.65-.79.37-3.27,1.82-4.17,1.17-.51-.37-2.15-.12-2.1.71.02.37.13.74.15,1.11.02.71-.12,1.46-.17,2.18-.1,1.61-.23,3.23-.28,4.84s.04,3.31.07,4.96-.13,3.45-.04,5.17c.04.74,1.7.05,1.95-.13,1.54-1.1,3.32-1.9,5.02-2.71,2.46-1.18,4.92-2.33,7.36-3.56,6.38-3.22,12.33-7.03,17.98-11.4,3.95-3.06,7.86-6.3,11.13-10.1,1.36-1.58,2.82-3.41,3.38-5.45.17-.62.31-1.42-.06-2s-2.49.11-2.02.84c-.16-.24.03.11.04.24.03.36.03.54-.08,1-.42,1.83-1.71,3.47-2.88,4.89-2.96,3.57-6.59,6.6-10.22,9.47-5.61,4.43-11.53,8.31-17.9,11.56-4.44,2.27-9.38,4-13.47,6.9l1.95-.13c-.08-1.73.08-3.45.04-5.17-.04-1.88-.13-3.74-.04-5.62.08-1.56.17-3.13.3-4.68.08-1,.03-1.8-.03-2.78l-2.1.71c1.19.85,2.94.37,4.21-.03,2.12-.68,4.13-1.71,6.08-2.78,3.71-2.04,7.41-4.33,10.74-6.95,4.77-3.75,9.52-7.75,13.58-12.28,1.36-1.51,3.22-3.48,3.6-5.58.11-.59.06-1.4-.58-1.68-.44-.19-2.42.19-1.88.93,2.88,4,5.76,7.99,8.64,11.99.41.57,2.52-.15,2.02-.84Z"/>
  </g>
</svg>