<?xml version="1.0" encoding="UTF-8"?>
<svg xmlns="http://www.w3.org/2000/svg" viewBox="0 0 1334 1000">
  <defs>
    <style>
      .cls-1 {
        fill: #010101;
      }

      .cls-1, .cls-2, .cls-3, .cls-4, .cls-5, .cls-6, .cls-7, .cls-8, .cls-9, .cls-10, .cls-11, .cls-12, .cls-13, .cls-14, .cls-15, .cls-16, .cls-17, .cls-18, .cls-19, .cls-20, .cls-21, .cls-22, .cls-23, .cls-24, .cls-25, .cls-26, .cls-27, .cls-28, .cls-29, .cls-30, .cls-31, .cls-32, .cls-33, .cls-34 {
        stroke-width: 0px;
      }

      .cls-2 {
        fill: #2a5c8f;
      }

      .cls-35 {
        stroke: #000;
        stroke-miterlimit: 10;
        stroke-width: .36px;
      }

      .cls-35, .cls-12 {
        fill: #000;
      }

      .cls-3 {
        fill: none;
      }

      .cls-4 {
        fill: #5a7fa3;
      }

      .cls-5 {
        fill: #331d17;
      }

      .cls-6 {
        fill: #f2ebd1;
      }

      .cls-7 {
        fill: #ce8d2a;
      }

      .cls-8 {
        fill: #11394c;
      }

      .cls-9 {
        fill: #4f2e25;
      }

      .cls-10 {
        fill: #aacad4;
      }

      .cls-11 {
        fill: #151210;
      }

      .cls-13 {
        fill: #d2a651;
      }

      .cls-14 {
        fill: #f5f6f6;
      }

      .cls-15 {
        fill: #653c29;
      }

      .cls-16 {
        fill: #1d170f;
      }

      .cls-17 {
        fill: #444443;
      }

      .cls-18 {
        fill: #231f20;
      }

      .cls-19 {
        fill: #13110f;
      }

      .cls-20 {
        fill: #1b1c4d;
      }

      .cls-21 {
        fill: #513835;
      }

      .cls-22 {
        fill: #0a2f44;
      }

      .cls-23 {
        fill: #ddc596;
      }

      .cls-24 {
        fill: #e9f6f8;
      }

      .cls-36 {
        opacity: .8;
      }

      .cls-25 {
        fill: #111424;
      }

      .cls-26 {
        fill: #3a221a;
      }

      .cls-27 {
        fill: #715446;
      }

      .cls-28 {
        fill: #686868;
      }

      .cls-29 {
        fill: #4a494a;
      }

      .cls-30 {
        fill: #21572b;
      }

      .cls-31 {
        fill: #fff;
      }

      .cls-32 {
        fill: #a66e53;
      }

      .cls-33 {
        fill: #727272;
      }

      .cls-34 {
        fill: #f1eef7;
      }
    </style>
  </defs>
  <g id="Layer_1" data-name="Layer 1">
    <polyline class="cls-6" points="1339.8 1033.08 1339.8 -27.78 -39.31 -27.78 -39.31 1033.08"/>
    <path class="cls-28" d="M995.59,922.52h-.06c-5.6-.03-10.11-4.33-10.08-9.61l5.48-793.91c.03-5.26,4.57-11.42,10.14-11.42.02,0,.04,1.93.06,1.93,5.6.03,10.11,4.33,10.08,9.61l-5.48,793.91c-.03,5.26-4.57,9.5-10.14,9.5Z"/>
    <path class="cls-23" d="M1076.61,203.09c-72.41-1.87-150.04-11.72-150.04-32,0-12.13,18.82-25.23,48.8-34.32,1.54-.53,2.64-.81,2.92-.89h.04c19.71-5.72,43.93-9.69,70.66-10.55,36.22-1.18,63.16,1.7,82.91,6.77,34.48,8.92,47.18,24.62,49.49,37.32,3.53,19.35-12.74,36.06-104.77,33.67Z"/>
    <path class="cls-13" d="M1076.61,203.09c-72.41-1.87-150.04-11.72-150.04-32,0-12.13,18.82-25.23,48.8-34.32-5.96,2.03-18.42,7.54-17.44,18.5,1.99,22.39,111.43,13.99,156.21-2.39,20.93-7.67,22.27-15.09,17.77-20.77,34.48,8.92,47.18,24.62,49.49,37.32,3.53,19.35-12.74,36.06-104.77,33.67Z"/>
    <path class="cls-28" d="M153.58,921.42h-.06c-5.6-.03-10.11-4.33-10.08-9.61l5.48-805.47c.03-5.26,4.57-9.5,10.14-9.5h.06c5.6.03,10.11,4.33,10.08,9.61l-5.48,805.47c-.03,5.26-4.57,9.5-10.14,9.5Z"/>
    <path class="cls-32" d="M385.04,315.1c2.53-1.56,4.07-4.59,3.84-7.55-.03-.42-.2-.94-.62-.96-.2-.01-.38.11-.54.22-1.55,1.05-3.1,2.1-4.66,3.15-.23.16-.47.33-.6.58-.13.26-.1.57-.07.86.16,1.72.33,3.45.49,5.17"/>
    <path class="cls-32" d="M306.37,351.13c2.46-2.03,4.94-4.06,7.34-6.17l-5.6-.77-41.8-57.24c-14.15-.42-19.93,10.11-31.12,17.59,14.28,15.45,32.31,45.85,53.09,59.72,9.08-3.91,10.49-6.85,18.08-13.13Z"/>
    <path class="cls-32" d="M273.23,344.47l85.22-11.72,6.6-12.63,9.16,9.75c1.68-.17,3.23,1.37,3.58,3.55l1.26,7.91c.32,2.04-6.63,3.64-8.09,4.38-35.28,17.81-59.84,23.65-72.01,24.93-5.31.75-20.64-4-25.72-26.16Z"/>
    <polyline class="cls-27" points="-47.77 1033.08 1430.74 1033.08 1430.74 906.95 -47.77 906.95"/>
    <polygon class="cls-13" points="377.34 733.41 377.34 730.56 164.21 728.12 164.87 658.44 378.34 661.54 377.34 733.41"/>
    <polygon class="cls-23" points="1217.51 671.89 1217.51 734.81 377.74 730.56 378.34 661.54 1217.51 671.89"/>
    <path class="cls-23" d="M410.84,662.1c72.39,2.37,128.95.71,130.05-18.49.72-12.63-.86-27.54-34.04-37.03-.88-.24-1.4-.39-1.4-.39-16.92-4.7-37.35-8.38-60.39-10.43-70.5-6.27-107.66,1.31-124.91,13l-.08.03c-.08.03-.13.11-.21.18-6.81,4.62.31,16.07-1.05,21.39-4.57,18.11.02,28.7,92.03,31.73Z"/>
    <path class="cls-13" d="M410.84,662.1c72.39,2.37,140.44-.58,142.23-6.67,3.57-12.14-13.03-39.36-46.21-48.85,7.39,2.19,46.97,20.56,21.11,34.48-15.57,8.38-52.51-.36-104.38-16.95-67.62-21.64-106.11-13.11-103.72-15.13-6.81,4.62-11.16,35.04-12.52,40.36-4.57,18.11,11.48,9.73,103.5,12.76Z"/>
    <path class="cls-32" d="M413.6,133.72c-1.21-2.47-3.31-7.7-3.88-8.44l-10.96-33.6c-.42-1.3-1.34-2.37-2.55-2.99l-6.38-3.28-11.82-10.4s-25.11-4.13-26.16-.45c-1.2,4.13,8.75,6.7,8.75,6.7,0,0-13.07,8.12-16.98,10.06-3.91,1.94-3.79,8.83,1.02,7.43,3.17-.95,6.25-2.13,9.24-3.55,0,0-3.28,3.93-2.52,6.57.76,2.64,5.36,1.45,5.36,1.45l8.88-12.36,14.5,4.88s7.36,7.72,5.8,10.83c-1.57,3.11-6.82,2.31-7.53,1.34-2.79-3.63-11.52-12.47-11.52-12.47-2.01-.14-3.75,1.38-3.89,3.38-.02.25,0,.5.02.74.48,4.18,10.09,18.7,10.09,18.7,0,0,5.26,17.54,7.66,20.52,1.48,1.82,6.42,4.13,10.04,5.62.09-.04,3.43.92,3.56.93.33.57,1.38,2.3,3,4.88l16.26-16.48Z"/>
    <polygon class="cls-29" points="310.8 230.55 162.63 242.83 978.55 274.24 1223.84 268.16 310.8 230.55"/>
    <polygon class="cls-13" points="377.09 143.36 162.63 160.59 164.87 239.83 377.09 230.45 377.09 143.36"/>
    <polygon class="cls-23" points="377.54 230.45 1218.82 265.01 1218.82 183.61 377.54 143.36 377.54 230.45"/>
    <polygon class="cls-28" points="1223.85 245.89 1223.85 268.16 373.93 233.16 373.93 211.23 1223.85 245.89"/>
    <polygon class="cls-28" points="377.54 211.23 377.54 233.25 156.32 242.62 156.32 223.66 156.38 223.7 377.54 211.23"/>
    <path class="cls-2" d="M518.65,312.59l-107.26-177.73-21.15,11.32c32.29,76.49,54.15,124.1,66.94,148.17,9.17,17.03,48.68,24.34,61.47,18.23Z"/>
    <path class="cls-28" d="M159.19,118.16c-4.17.42-8.34-1.74-10.22-5.65-2.37-4.95-.19-10.85,4.89-13.16,36.93-16.87,112.12-19.39,178.46-21.6,19.76-.66,38.42-1.29,54.89-2.25,5.59-.33,10.39,3.83,10.73,9.29.33,5.46-3.99,10.11-9.52,10.47-16.73.98-35.51,1.6-55.41,2.27-64.39,2.15-137.38,4.59-170.55,19.75-1.06.48-2.16.77-3.27.88Z"/>
    <path class="cls-28" d="M370.02,624.14h-208.1c-8.56,0-15.5-4.54-15.5-10.14s6.94-10.14,15.5-10.14h208.1c8.56,0,15.5,4.54,15.5,10.14s-6.94,10.14-15.5,10.14Z"/>
    <path class="cls-28" d="M370.02,491.74h-208.1c-8.56,0-15.5-4.54-15.5-10.14s6.94-10.14,15.5-10.14h208.1c8.56,0,15.5,4.54,15.5,10.14s-6.94,10.14-15.5,10.14Z"/>
    <path class="cls-28" d="M370.02,360.35h-208.1c-8.56,0-15.5-4.54-15.5-10.14s6.94-10.14,15.5-10.14h208.1c8.56,0,15.5,4.54,15.5,10.14s-6.94,10.14-15.5,10.14Z"/>
    <path class="cls-28" d="M1216.68,610.38h-.03l-219.43-.77c-5.32-.02-9.63-4.57-9.61-10.17.02-5.59,4.33-10.11,9.64-10.11h.03l219.43.77c5.32.02,9.62,4.57,9.61,10.17-.02,5.59-4.33,10.11-9.64,10.11Z"/>
    <polygon class="cls-28" points="1223.85 733.41 1223.85 755.68 374.09 750.39 374.09 728.12 1223.85 733.41"/>
    <polygon class="cls-28" points="377.21 726.99 377.21 749.26 376.95 749.18 161.39 746.78 161.9 725.27 377.21 726.99"/>
    <path class="cls-28" d="M1001.24,128.24c-3.92.39-7.85-1.79-9.63-5.71-2.26-4.96-.24-10.84,4.51-13.13,34.6-16.64,105.24-18.69,167.56-20.49,18.56-.54,36.09-1.05,51.56-1.91,5.25-.29,9.79,3.89,10.14,9.35.35,5.46-3.68,10.08-8.88,10.41-15.71.87-33.36,1.39-52.05,1.93-60.5,1.75-129.07,3.74-160.15,18.69-.99.48-2.03.76-3.07.86Z"/>
    <path class="cls-28" d="M1215.45,929.03c-5.6,0-10.14-4.14-10.14-9.25V96.32c0-5.11,4.54-9.26,10.14-9.26s10.14,4.14,10.14,9.26v823.46c0,5.11-4.54,9.25-10.14,9.25Z"/>
    <g class="cls-36">
      <path class="cls-4" d="M306.49,211.48c6.26,46.01,316.32,80.85,343.75,118.73,172.36,238.03,179.96,384.16,409.61,570.29,15.82,12.83,32.04,25.88,51.28,32.94,22.31,8.18,46.82,7.65,70.63,7.02,91.53-2.45,183.06-4.89,274.58-7.34-145.34-268.85-172.4-530.36-222.08-830.55-1.16-7.04-2.57-14.55-7.67-19.65-9.63-9.62-25.26-1.56-38.99-1.15-147.69,4.45-585.61-41.74-823.19-12.32,0,0-8.35-3.17-10.45,10.05-2.1,13.22-47.48,131.97-47.48,131.97Z"/>
    </g>
    <g class="cls-36">
      <path class="cls-4" d="M1215.75,110.3c-37.45,93.25-.52,267.62,32.28,431.46,4.97,24.82,30.22,138.13,50.04,138.05,31.9,3.54-17.99-111.59-22.47-133.81-32.4-160.48-52.42-255.96-61.94-419.39"/>
    </g>
    <g class="cls-36">
      <path class="cls-4" d="M1210.89,108.55c-1.11,25.45-14.89,48.3-24.51,71.88-22.97,56.27-22.72,118.92-22.13,179.69.16,16.34.72,33.92,10.55,46.97,10,.31,13.68-12.93,13.88-22.93,1.16-58.38-6.19-117.61,6.26-174.66,7.36-33.72,21.59-66.48,21.24-100.99"/>
    </g>
    <g class="cls-36">
      <path class="cls-4" d="M870.03,579.12c4.05,73.8,158.99,208.31,247.33,307.45,12.51,14.04,25.43,28.08,41.36,38.07,15.93,9.99,35.46,15.62,53.77,11.31-33.35-6.72-60.14-31.1-83.09-56.21-55.14-60.33-94.14-110.15-151.6-168.27-13.71-13.87-54.46-64.96-66.67-80.17-20.25-25.22-13.34-38.94-40.74-56.13"/>
    </g>
    <g class="cls-36">
      <path class="cls-4" d="M1070.06,804.63c28.99,23.07,57.97,46.14,86.96,69.21,21.8,17.35,43.86,34.87,69.11,46.67,25.24,11.8,54.35,17.53,81.23,10.18-64.88-42.09-145.27-98.7-216.26-129.38-11.44-4.94-18.54-5.9-21.03,3.33"/>
    </g>
    <path class="cls-32" d="M576.65,891.02s-40.34,13.5-52.95,13.52c-12.62.02-16.4,2.9-16.4,2.9,0,0,21.1-20.18,37.2-27.59,3.39-1.56-4.52-106.8-9.97-156.53-3.79-34.54-3.98-62.03-3.98-62.03l57.97,5.76-2.63,45.56,2.42,9.64c1.26,5.04,3.02,13.98,3.36,19.17.9,14.03-2.54,42-3.19,49.17-1.09,12.13-2.83,26.85-3.33,31.12l-8.52,57.37.03,11.96Z"/>
    <path class="cls-32" d="M573.2,868.14c-.35,4.12,5.59,16.34,7.57,20.45,2.29,4.73.69,10.99-4.76,14.35-4.58,2.82-7.12,1.27-12.55,2.15-7.1,1.15-14.85,1.55-21.95,2.7-6.08.99-25.33,3.52-31.04,5.76-8.88,3.47-14.81,3.43-19.17,2.95-1.21-.13-1.9.07-2.59-.61-1.79-1.78-2.1-4.09.56-6.48,3.35-3.01,8.56-.95,11.58-4.29.54-.6,1.02-1.24,1.68-1.73,1.3-.95,3.05-1.17,4.68-1.5,8.12-1.64,6.83-4.77,16.91-9.55,2.96-1.4,18.98-11.14,21.61-13"/>
    <path class="cls-9" d="M509.33,902.04c-1.64.58-3.19,1.52-4.65,2.44-.75.47-1.5.97-2.2,1.52-.42.34-.94.73-1.15,1.25l1.39-.46c-2.18-.83-4.62-.57-6.76.25-.21.08-.6.29-.43.55.16.25.83.05,1.01-.02,1.59-.61,3.34-.7,4.94-.09.39.15,1.21-.03,1.39-.46.16-.39.66-.71.98-.96.65-.51,1.34-.96,2.04-1.39,1.27-.79,2.6-1.6,4.02-2.1.22-.08.59-.29.43-.55s-.83-.04-1.01.02h0Z"/>
    <path class="cls-32" d="M624.06,892.63s-52.84,27.4-65.89,27.27c-13.05-.13-8.48-6.54-8.48-6.54,0,0,39.5-26.62,42.93-32.39,1.88-3.16-10.41-104.65-15.47-154.43-3.51-34.58-3.38-62.07-3.38-62.07l59.91,6.44-3.31,39.95,2.38,9.67c1.25,5.05,2.96,14.01,3.25,19.21.77,14.04-3.08,47.54-3.83,54.7-1.27,12.12-3.24,26.82-3.82,31.07l-5.16,53.4.87,13.74Z"/>
    <path class="cls-32" d="M623.01,869.61c-.27,4.8,1.69,11.55,3.19,21.59.66,4.42,4.66,10.64-.18,14.02-8.56,5.99-20.85,9.43-24.77,10.45-8.26,2.13-17.2,7.63-25.11,10.37-8.01,2.77-1.48,2.74-10.35,3.56-1.23.11-2.53.12-3.61-.37-.73-.33-1.31-.85-2.03-1.18-2.57-1.14-5.71.6-8.61.34-1.28-.11-2.46-.62-3.65-1-3.17-1.02-6.61-1.28-9.94-1.83-3.34-.55-6.74-1.47-9.12-3.52-2.37-2.05-3.36-5.48-1.45-7.9,2.88-3.65,6.83-1.7,10.88-2.17,4.05-.47,5.56-1.13,9.09-2.79,9.03-4.25,10.41-5.1,18.03-8.44,5.91-2.6,19.18-21.29,27.45-27.03l1.85-11.64"/>
    <g>
      <path class="cls-9" d="M560.82,927.74c-.91-.21-1.34-1.23-1.31-2.11s.55-1.68,1.21-2.26c1.61-1.43,3.79-2.14,5.74-3,.32-.14.68-.55.43-.9s-.87-.27-1.21-.12c-1.83.8-3.72,1.51-5.38,2.65-1.52,1.04-2.88,2.62-2.54,4.58.19,1.08.92,2.08,2.03,2.34.44.1.95.02,1.26-.34.25-.29.19-.75-.23-.84h0Z"/>
      <path class="cls-9" d="M551.72,928.12c-1.81.03-1.77-2.74-1.56-3.97.42-2.45,2.82-3.44,4.92-4.21.74-.27,1.44-.62,2.16-.94.68-.3,1.45-.66,2.21-.67.4,0,.97-.11,1.17-.51.19-.36-.16-.62-.51-.62-1.82.02-3.41.86-5.04,1.57s-3.16,1.14-4.52,2.19c-1.02.79-1.83,1.75-2.12,3.03-.24,1.04-.27,2.22.02,3.24.35,1.22,1.29,2.02,2.6,2,.4,0,.97-.11,1.17-.51.19-.36-.16-.62-.51-.62h0Z"/>
      <path class="cls-9" d="M545.48,926.38c-1.32-.41-1.98-2-1.89-3.3.08-1.23.79-2.26,1.68-3.07,1-.91,2.22-1.58,3.45-2.13,1.36-.61,2.84-1.18,4.29-1.51.34-.08.84-.41.74-.82s-.72-.42-1.05-.34c-1.35.31-2.7.83-3.98,1.35s-2.46,1.12-3.57,1.89c-1.94,1.33-3.7,3.36-3.3,5.86.23,1.46,1.15,2.8,2.6,3.24.42.13.97,0,1.26-.34.26-.3.18-.7-.22-.82h0Z"/>
      <path class="cls-9" d="M546.76,913.03c-.86-.01-1.69.36-2.48.66-.61.24-1.23.44-1.84.66-1.41.51-2.81,1.07-4.13,1.78-1.22.66-2.5,1.46-3.35,2.59s-1.05,2.55-.65,3.95c.52,1.84,1.94,3.29,3.71,3.96.75.29,2.09-.79,1.03-1.19-1.7-.65-2.96-2.29-3.12-4.11-.14-1.52.72-2.54,1.9-3.38,1.31-.94,2.84-1.59,4.33-2.16.61-.24,1.23-.45,1.85-.67.81-.28,1.71-.81,2.58-.8.38,0,.94-.3.98-.72.05-.47-.48-.57-.82-.58h0Z"/>
    </g>
    <path class="cls-35" d="M501.16,111.53c2.5-1.57,6.88-1.57,6.88-1.57,0,0,2.87-5.2,7.62-8.24,4.75-3.04,12.15-.97,12.15-.97,0,0,1.77-3.41,7.48-5.15,5.71-1.74,12.29,2.26,12.29,2.26,0,0,5.91-4.7,12.92-2.09,5.9,2.2,8.39,6.13,8.39,6.13,12.35-1.17,16.95,6.85,18.31,15.92,1.89.48,4,1.28,5.21,2.61,6.64,7.23,7.26,29.68,2.78,34.65l-5.97,1.36-2.8-18.42c-.34,1.86-.61,3-.61,3l-3.04,15.05-20.84-38.96s-50.37,1.23-55.96,2.68c-5.59,1.45-9.56,13.53-9.56,13.53.11-4.79-1.25-18.05,4.75-21.8Z"/>
    <path class="cls-12" d="M585.61,171.82c3.41,2.57,5.08,7.24,4.07,11.39-.47,1.94-1.45,3.7-2.19,5.56-1.1,2.77-1.66,5.76-1.63,8.74.03,2.71,1.01,5.96,3.64,6.61.56.14,1.16.14,1.69.37.53.23.98.82.79,1.36-.17.48-.72.69-1.21.83-1.53.44-3.11.82-4.69.7-1.59-.12-3.2-.8-4.1-2.11-.76-1.11-.93-2.51-1-3.85-.18-3.67.26-7.37,1.29-10.9,1.09-3.7,2.85-7.52,1.88-11.25"/>
    <path class="cls-12" d="M580.04,176.26c3.41,2.57,5.08,7.24,4.07,11.39-.47,1.94-1.45,3.7-2.19,5.56-1.1,2.77-1.66,5.76-1.63,8.74.03,2.71,1.01,5.96,3.64,6.61.56.14,1.16.14,1.69.37.53.23.98.82.79,1.36-.17.48-.72.69-1.21.83-1.53.44-3.11.82-4.69.7-1.59-.12-3.2-.8-4.1-2.11-.76-1.11-.93-2.51-1-3.85-.18-3.67.26-7.37,1.29-10.9,1.09-3.7,2.85-7.52,1.88-11.25"/>
    <path class="cls-12" d="M577.11,171.5c3.41,2.57,5.08,7.24,4.07,11.39-.47,1.94-1.45,3.7-2.19,5.56-1.1,2.77-1.66,5.76-1.63,8.74.03,2.71,1.01,5.96,3.64,6.61.56.14,1.16.14,1.69.37.53.23.98.82.79,1.36-.17.48-.72.69-1.21.83-1.53.44-3.11.82-4.69.7-1.59-.12-3.2-.8-4.1-2.11-.76-1.11-.93-2.51-1-3.85-.18-3.67.26-7.37,1.29-10.9,1.09-3.7,2.85-7.52,1.88-11.25"/>
    <path class="cls-12" d="M591.48,168.47c3.41,2.57,5.08,7.24,4.07,11.39-.47,1.94-1.45,3.7-2.19,5.56-1.1,2.77-1.66,5.76-1.63,8.74.03,2.71,1.01,5.96,3.64,6.61.56.14,1.16.14,1.69.37.53.23.98.82.79,1.36-.17.48-.72.69-1.21.83-1.53.44-3.11.82-4.69.7-1.59-.12-3.2-.8-4.1-2.11-.76-1.11-.93-2.51-1-3.85-.18-3.67.26-7.37,1.29-10.9,1.09-3.7,2.85-7.52,1.88-11.25"/>
    <path class="cls-12" d="M593.44,161.14c3.41,2.57,5.08,7.24,4.07,11.39-.47,1.94-1.45,3.7-2.19,5.56-1.1,2.77-1.66,5.76-1.63,8.74.03,2.71,1.01,5.96,3.64,6.61.56.14,1.16.14,1.69.37.53.23.98.82.79,1.36-.17.48-.72.69-1.21.83-1.53.44-3.11.82-4.69.7-1.59-.12-3.2-.8-4.1-2.11-.76-1.11-.93-2.51-1-3.85-.18-3.67-.5-9.73.54-13.26,1.09-3.7-2.75-8.97-3.72-12.71"/>
    <path class="cls-32" d="M576.69,185.92s-3.85,23.25,1.91,39.28c.8,2.23,11.19,6.12,11.19,6.12l-15.37,9.08c-9.13,1.91-24.56,3.55-37.3,1.34-5.56-.97-13.52-1.27-17.49-5.29h0s10.39-3.07,11.03-5.8c.64-2.73-.65-26.06-.65-26.06"/>
    <path class="cls-32" d="M513.88,238.43c4.67-1.87,9.88-5.84,10.31-6.19.25-.21.51-.42.66-.7.23-.43.17-.93.11-1.41-1.77-13.25-3.91-26.44-6.12-39.62l59.72-9.68s-6.51,28.71.68,39.97c.09.15,1.53,1.75,1.53,1.75l13.86,7.34c-7.35,7.37-9.11,13.27-18.27,18.01-9.81,5.08-19.53,21.78-30.65,22.49-6.24.4-12.5-.25-18.72-.97-4.12-.48-6.39-13.9-9.01-15.1-1.66-2.1-3.13-4.43-4.3-6.87-.77-3.66-1.55-5.13.21-9.01Z"/>
    <path class="cls-26" d="M565.5,206.6s1.59,19.47-29.84,22.32l-10.72,1.21-.81-5.37,41.37-18.15Z"/>
    <path class="cls-32" d="M589.59,160.43l-.45-.64c-2.56-1.88-7.06-2.61-8.84.77-.57,1.46-1.49,3.13-2.06,4.6-.56,1.67-1.33,5.01-2.34,6.5,0,0,3.79-15.77,3.76-19.65-.03-3.87-.77-13.4-7.99-18.44,0,0-3.43-3-6.82-6.19-1.71-.85-3.46-1.61-5.25-2.28-6.06-2.26-12.42-3.56-18.85-4.2-6.19-.62-12.52-.76-18.73-.25-8.68.72-17.67,3.08-24.09,8.88-1.21,2.94-3.08,8.15-4.81,15.61-2.33,10.07.66,25.11,1.09,28.35.37,2.8-.56,6.5-.72,9.45-.84,16,8.6,25.51,20.53,42.46,3.49,4.96,17.71,2.18,22.59,1.45,20.88-3.12,24.63-11.73,28.9-20.25l9.56-11.72.99-3.44c2.47,6.24,10.87,1.59,11.06-7.1,5.87-8.03,6.16-19.53,2.48-23.91Z"/>
    <path class="cls-32" d="M519.61,131.91c8.91,1.8,16.69,6.42,23.91,11.77,3.53,2.62,6.96,5.38,10.44,8.06,2.92,2.25,5.46,4.87,8.1,7.42,2.6,2.5,5.42,5.15,8.78,6.59,2.96,1.27,6.01,1.01,9.02-.01,2.59-.88,5.03-2.1,7.47-3.3.27-1.66,4.64-29.25-6.26-43.68-11.24-14.89-32.42-16.85-47.84-13.81-15.42,3.04-25.56,6.19-31.67,18.91-1.1,2.3-2.1,5.01-2.99,7.92,7.02-.7,14.06-1.27,21.05.14Z"/>
    <g>
      <path class="cls-12" d="M562.79,134.19c-.31.97-.62,1.97-.53,2.98.09,1.01.7,2.05,1.68,2.32.49.14,1.05.08,1.49.34,1.43.88-.35,3.34.59,4.73.72,1.06,2.48.72,3.4,1.6,1.55,1.47-.44,4.89,1.43,5.91,1.07.58,2.73-.22,3.45.76.33.44.26,1.05.2,1.6-.17,1.55.02,3.49,1.45,4.12,1.4.62,3.5-.3,4.32,1,.41.64.21,1.52.58,2.19.49.87,1.72.99,2.68.7.96-.29,2.39-2.24,3.37-2.38,1.98-.27,3.45,2.63,5.32,1.94,1.33-.49,2.08-2.15,1.58-3.48-.5-1.33-2.13-2.09-3.48-1.64-.52.17-1,.51-1.55.53-1.84.1-2.32-2.88-4.09-3.38-.44-.12-.93-.08-1.32-.32-.91-.55-.57-2.09-1.36-2.79-.87-.78-2.42-.02-3.32-.76-1.25-1.03.32-3.34-.7-4.6-.82-1.01-2.69-.5-3.51-1.5-.93-1.13.29-3.14-.72-4.2-1.2-1.26-4.29.14-4.59-1.57-.05-.27.01-.55-.03-.82-.16-.92-1.35-1.13-2.25-1.33-1.54-.35-2.94-1.28-3.86-2.56"/>
      <path class="cls-12" d="M562.36,134.23c-.55,1.72-1.12,4.36.94,5.38.89.44,2.21.15,2.28,1.48.05.84-.31,1.67-.28,2.51.08,1.91,1.76,1.78,3.12,2.38,1.92.85.93,3.2,1.17,4.8.29,1.88,1.81,1.66,3.29,1.81,1.68.17,1.15,1.65,1.15,2.83,0,.78.11,1.6.49,2.3.36.65.92,1.06,1.63,1.24.95.24,2.08-.12,2.99.22,1.3.49.75,1.78,1.32,2.73.36.6,1.03.87,1.7.94,1.75.18,2.68-1.02,3.92-2.01,1.7-1.35,3.1.91,4.67,1.42,3.16,1.03,5-3.81,2.11-5.39-.61-.34-1.33-.47-2.02-.39-1.11.13-1.98,1.03-3.01.17-1.21-1.01-1.54-2.58-3.24-2.97-.69-.16-1.13-.29-1.42-.99-.17-.42-.19-.88-.36-1.3-.28-.66-.76-.99-1.45-1.12-1-.18-2.48.25-2.74-1.15-.16-.87.22-1.78.14-2.66-.24-2.58-3.76-1.15-4.21-3.3-.31-1.52.67-3.44-1.37-4.05-.79-.24-1.62-.12-2.43-.2s-1.1-.28-1.19-1.08c-.05-.42-.02-.72-.3-1.07-.58-.71-1.7-.76-2.5-1-1.37-.4-2.5-1.25-3.37-2.38-.22-.29-1.04.03-.79.37,1.11,1.46,2.55,2.29,4.31,2.72.49.12,1.23.23,1.55.66.37.48.12.99.3,1.48.15.41.5.63.9.77,1.34.45,3.8-.46,4.04,1.57.16,1.36-.54,2.99.99,3.77.63.32,1.35.31,2.02.52,1.34.42,1.2,1.6,1.08,2.73-.14,1.26-.05,2.48,1.42,2.77,1.13.22,2.34-.24,2.83,1.15.22.64.23,1.38.75,1.87.58.55,1.47.35,2.12.77.71.46,1.12,1.27,1.63,1.92.73.94,1.6,1.47,2.8,1.11.81-.24,1.42-.68,2.31-.44.51.14,1,.46,1.33.87.8,1,.66,2.78-.49,3.51-1.55.98-3.13-1.32-4.58-1.69-1.23-.31-2.09.36-2.97,1.14s-1.74,1.68-2.99,1.2-.72-1.89-1.31-2.8c-.9-1.38-2.88-.59-4.18-.99-2.39-.74-1.12-3.56-1.57-5.22-.49-1.8-2.67-.69-3.8-1.41-1.45-.92-.3-3.52-.8-4.95-.67-1.9-3.26-1.05-4-2.62-.63-1.34.87-3.26-.33-4.4-.83-.79-2.09-.29-2.82-1.35-.89-1.28-.37-2.92.06-4.26.12-.37-.76-.27-.87.08h0Z"/>
    </g>
    <g>
      <path class="cls-12" d="M565.26,127.33c-.73.89-.81,2.27-.18,3.24.63.97,1.92,1.45,3.04,1.14-.37,1.45.69,3.11,2.16,3.39.63.12,1.33.03,1.88.37,1.35.83.61,3.33,1.96,4.14.51.3,1.18.25,1.69.56,1.04.65.75,2.32,1.56,3.24.99,1.12,3.1.57,4.03,1.75.65.82.5,2.28,1.46,2.69.51.22,1.15.04,1.59.36.53.4.39,1.21.46,1.87.17,1.64,2.25,2.74,3.7,1.95.15,1.1.78,2.12,1.69,2.75.58-1.14,1.17-2.31,1.24-3.58.08-1.27-.5-2.67-1.68-3.16-.46-.19-.98-.24-1.37-.53-1-.75-.62-2.59-1.67-3.26-.71-.45-1.8-.16-2.34-.81-.26-.31-.29-.75-.39-1.14-.37-1.39-1.94-2.33-3.34-2.01-.4.09-.81.27-1.19.15-1.12-.35-.37-2.18-.99-3.18-.61-.98-2.33-.8-2.83-1.84-.17-.35-.15-.75-.28-1.11-.21-.57-.75-.94-1.26-1.27-2.63-1.69-5.32-3.29-8.06-4.79"/>
      <path class="cls-12" d="M564.85,127.32c-1.79,2.52.56,5.2,3.32,4.63l-.49-.18c-.25,1.35.38,2.74,1.65,3.35.75.37,1.8.12,2.48.57s.75,1.28.89,1.98c.25,1.28.56,2,1.83,2.43.75.26,1.22.35,1.53,1.12.12.29.17.6.26.9.18.64.36,1.26.89,1.69,1.21.99,3.29.35,4.04,1.97.51,1.11.45,2.05,1.76,2.42,1.83.52,1.18.97,1.52,2.3.16.61.57,1.13,1.09,1.48.95.66,2.12.71,3.16.24l-.6-.08c.22,1.16.78,2.08,1.72,2.81.2.15.67.09.8-.16.83-1.65,1.77-3.58.97-5.43-.3-.7-.79-1.22-1.47-1.55-.98-.48-1.64-.52-1.99-1.66-.2-.65-.27-1.42-.78-1.92-.54-.53-1.25-.42-1.91-.64-1.1-.36-.87-1.56-1.47-2.37-.39-.53-.97-.91-1.59-1.11s-1.15-.14-1.78-.08c-.73.08-1.19.16-1.35-.67-.08-.38-.03-.78-.07-1.16-.15-1.76-1.33-1.63-2.57-2.41-.83-.53-.62-1.58-1.24-2.29s-1.7-1.21-2.52-1.72c-2.12-1.32-4.28-2.58-6.47-3.79-.26-.14-1.04.23-.68.43,2.05,1.13,4.08,2.31,6.08,3.54.9.55,2.09,1.08,2.8,1.88.56.63.37,1.53.98,2.11,1.06,1,2.61.64,2.77,2.47.09,1.06,0,2.32,1.43,2.26.47-.02.92-.26,1.4-.24.68.02,1.35.36,1.81.85.58.62.5,1.34.88,2.01.31.56.8.69,1.39.81,1.11.22,1.57.53,1.89,1.66.16.57.26,1.22.68,1.67.52.57,1.32.54,1.95.93,2.31,1.43.98,4.57.07,6.36l.8-.16c-.9-.69-1.45-1.57-1.66-2.69-.04-.23-.49-.13-.6-.08-1.06.48-2.27-.1-2.82-1.06-.38-.66-.2-1.3-.37-2.01-.12-.5-.36-.77-.83-.95-.85-.33-1.54-.12-1.94-1.15s-.54-1.93-1.7-2.38c-1.42-.55-2.85-.26-3.47-1.96-.38-1.03-.38-2.12-1.56-2.56-.88-.33-1.56-.29-1.93-1.28-.2-.52-.23-1.08-.36-1.62-.24-1.03-.69-1.66-1.75-1.9-.89-.2-1.69-.11-2.39-.81s-.92-1.58-.75-2.51c.05-.25-.37-.21-.49-.18-2.47.51-3.67-2.35-2.4-4.14.23-.33-.63-.28-.8-.03h0Z"/>
    </g>
    <g>
      <path class="cls-12" d="M567.09,123.92c-.2,1.79,1.34,3.59,3.15,3.66.35.01.73-.03,1.05.12.67.31.74,1.21,1.05,1.89.7,1.52,2.71,1.88,4.37,1.72,1.07-.1,2.44-.17,2.89.8.18.38.15.85.39,1.2.64.92,2.51.26,2.95,1.29.2.47-.08,1.04.1,1.52.37,1.03,2.01.55,2.9,1.19.41.3.6.8.78,1.27.53,1.45,1.05,2.9,1.58,4.35.13.36.31.76.68.86.62.16,1.01-.65,1.1-1.28.54-3.56.15-7.25-1.12-10.62-.32-.84-.95-1.82-1.83-1.67-.29.05-.59.22-.87.13-.46-.15-.45-.79-.45-1.28,0-2.01-2.26-3.67-4.18-3.08-.52.16-1.11.44-1.55.13-.3-.21-.38-.6-.57-.9-.48-.79-1.56-.96-2.48-.87s-1.86.35-2.75.09c-1.12-.32-1.96-1.4-3.12-1.46-1.4-.08-2.79,1.37-4.04.72"/>
      <path class="cls-12" d="M566.66,123.95c-.07,1.14.35,2.2,1.2,2.97.35.32.76.59,1.22.75.84.31,1.98.04,2.45.94.52.98.59,1.81,1.65,2.42.96.55,2.13.66,3.21.61.7-.03,1.5-.22,2.18.06.88.36.59,1.17,1.05,1.79.59.81,1.63.51,2.43.84,1.01.42.1,1.98,1.19,2.57.4.22.88.24,1.32.32,1.18.21,1.49.8,1.88,1.86.51,1.38.86,3.02,1.58,4.3.42.75,1.24.98,1.91.36.73-.69.71-2.01.77-2.92.12-1.68.04-3.38-.24-5.05-.24-1.46-.58-3.02-1.22-4.36-.5-1.06-1.08-1.45-2.19-1.49-.96-.04-.73-.49-.83-1.27-.07-.52-.27-1.01-.56-1.44-.56-.81-1.46-1.4-2.42-1.59-.57-.11-1.13-.07-1.69.07-.42.11-.84.41-1.27.05-.23-.19-.35-.72-.57-.96-.86-.97-2.31-.79-3.45-.65-1.23.15-2.04-.03-3.08-.68-.5-.31-1-.64-1.59-.75-1.46-.28-2.89,1.24-4.24.7-.36-.15-1,.38-.5.58.84.33,1.59.13,2.4-.18.74-.28,1.43-.67,2.24-.41.68.21,1.22.74,1.85,1.06.92.47,1.84.44,2.84.31.7-.09,1.45-.23,2.14.03.8.3.78,1.05,1.36,1.52.77.62,1.67-.04,2.49-.12,1.41-.12,2.84,1.04,3.14,2.4.14.64-.13,1.65.61,2,.23.11.46.07.7.06.58,0,.9-.18,1.34.33.26.29.42.66.57,1.02,1.18,2.89,1.54,6.21,1.26,9.3-.03.3-.08,2.36-.85,1.97-.35-.18-.64-1.62-.79-2.03-.42-1.15-.72-2.66-1.42-3.68-.53-.77-1.31-.84-2.16-.99-.21-.04-.45-.05-.64-.14-.61-.29-.42-.72-.48-1.26-.05-.44-.01-.77-.38-1.11-.51-.47-1.26-.37-1.89-.54-1.22-.31-.82-1.72-1.88-2.29-.96-.51-2.12-.22-3.15-.21-1.62.02-2.98-.51-3.58-2.09-.4-1.05-.69-1.58-1.88-1.67-1.84-.14-3.27-1.44-3.16-3.38.03-.45-.85-.33-.87.06h0Z"/>
    </g>
    <g>
      <path class="cls-12" d="M569.62,121.62c2.28.81,4.49-2.67,6.75-1.81,1.09.42,1.92,1.8,3.05,1.5.52-.14.93-.63,1.47-.62,1.12.01,1.06,1.79,1.86,2.57.99.98,2.92.06,3.94,1.01.28.27.44.65.71.93.5.54,1.27.69,1.97.94.69.25,1.42.75,1.44,1.49,1.31-2.67.37-6.23-2.08-7.91-.26-.18-.55-.35-.73-.61-.18-.26-.23-.58-.31-.88-.41-1.52-1.68-2.78-3.21-3.16-.53-.13-1.12-.18-1.53-.55-.58-.52-.55-1.42-.89-2.11-.8-1.62-3.14-1.55-4.62-2.59-.62-.43-1.07-1.05-1.65-1.53-.62-.51-1.39-.83-2.19-.93-.63-.08-1.39.06-1.69.63-.2.39-.12.86-.23,1.29-.28,1.07-1.59,1.45-2.69,1.58s-2.4.3-2.93,1.27c-.75,1.38.69,2.99.61,4.56-.03.69-.36,1.35-.33,2.03.03.63.35,1.2.67,1.75.56.97,1.12,1.93,1.67,2.9"/>
      <path class="cls-12" d="M569.24,121.82c1.7.48,3.14-.54,4.55-1.33.79-.44,1.58-.78,2.45-.34.59.29,1.02.8,1.59,1.12.62.35,1.23.38,1.9.13s1.21-.59,1.62.18c.24.45.34.95.6,1.39.45.75,1.14.96,1.98,1.02.61.04,1.3-.06,1.88.19.65.28.86,1.03,1.4,1.45,1.02.78,2.85.58,3.1,2.14.05.29.85-.03.93-.2.7-1.53.78-3.26.23-4.85-.25-.74-.64-1.44-1.14-2.05-.58-.7-1.66-1.14-2.05-1.95-.35-.73-.43-1.48-.94-2.15s-1.15-1.15-1.89-1.47c-.94-.4-2.04-.28-2.51-1.37-.33-.77-.36-1.56-1.01-2.16-1.22-1.13-3.12-1.08-4.4-2.14-1.38-1.13-2.46-2.49-4.45-2.27-.45.05-.92.18-1.28.46-.7.54-.38,1.31-.74,2.02-.81,1.58-3.71.83-5.02,1.97-1.53,1.33-.1,3.14.08,4.71.14,1.23-.57,2.23-.07,3.44.53,1.3,1.41,2.53,2.11,3.74.15.26,1.04-.07.93-.25-.99-1.71-2.6-3.55-2.2-5.61.15-.76.25-1.32.07-2.08-.2-.82-.66-1.62-.7-2.47-.1-2.25,2.87-1.81,4.35-2.45.4-.17.81-.4,1.09-.74.14-.17.25-.34.33-.54.28-.76-.08-.96.7-1.44,1.77-1.1,3.38,1.7,4.8,2.42,1.31.66,3.28.75,4.01,2.21.3.6.29,1.34.69,1.89s1.03.65,1.66.81c1.85.46,2.78,1.71,3.36,3.43.27.78.78,1.03,1.39,1.53.71.58,1.26,1.33,1.64,2.16.78,1.71.8,3.65.02,5.36l.93-.2c-.19-1.16-1.28-1.43-2.23-1.79-.44-.17-.86-.34-1.2-.67-.22-.21-.44-.71-.71-.93s-.56-.36-.9-.44c-1.3-.33-2.7.26-3.45-1.2-.34-.67-.46-1.71-1.31-1.95-1.01-.29-1.8.8-2.77.38s-1.52-1.35-2.67-1.43c-.74-.05-1.47.19-2.12.5-1.17.56-2.52,1.85-3.89,1.46-.24-.07-1.07.31-.75.4h0Z"/>
    </g>
    <g>
      <path class="cls-12" d="M563.15,122.07c-1.35-.51-2.01-2.34-1.29-3.59.24-.42.62-.89.4-1.31-.09-.18-.28-.3-.44-.43-1.03-.82-1.13-2.56-.21-3.51.19-.2.43-.37.56-.62.52-1.02-1.12-2.37-.38-3.25.62-.74,1.93.12,2.77-.36.82-.46.63-1.82,1.39-2.38,1.12-.83,3.25.8,3.9-.43.34-.64-.27-1.43-.96-1.65-.7-.22-1.45-.09-2.17-.18-1.87-.24-3.22-1.89-4.92-2.71-1.77-.85-3.84-.77-5.8-.67-.84.04-1.71.1-2.47.47-1.17.58-1.89,1.94-1.71,3.23.04.25.09.53-.05.74-.08.12-.22.19-.36.25-.67.32-1.33.64-2,.97-.25.12-.53.27-.63.53-.24.6.59,1.07,1.24,1.08.65,0,1.45-.05,1.77.51.6,1.04-1.48,2.04-1.17,3.2.33,1.2,2.57.68,3.04,1.83.28.69-.32,1.45-.19,2.18.13.75.95,1.16,1.7,1.31.74.15,1.56.2,2.15.69.44.37.67.94.98,1.42.96,1.47,2.73,2.16,4.38,2.77"/>
      <path class="cls-12" d="M563.49,121.84c-1.59-.71-1.72-2.34-.98-3.71.73-1.38-.94-1.75-1.08-3.08-.09-.86.32-1.38.84-2,.3-.36.48-.67.43-1.15-.06-.53-.37-1-.54-1.5-.37-1.1.65-.99,1.43-.96.94.04,1.62-.34,1.99-1.21.33-.79.34-1.51,1.4-1.54.58-.02,1.17.26,1.75.28.75.02,1.61-.32,1.66-1.18.07-1.18-1.3-1.6-2.22-1.66-.98-.05-1.79-.07-2.69-.55-.7-.37-1.32-.87-1.97-1.33-1.28-.89-2.62-1.41-4.18-1.56s-3.26-.13-4.77.16c-1.22.24-2.3.9-2.85,2.05-.25.52-.3,1.03-.33,1.6-.03.63-.02.9-.63,1.19-.44.21-.89.42-1.33.64-.72.36-1.59,1.07-.69,1.8.37.3.84.38,1.3.4s1.19.01,1.43.52c.16.34-.23.82-.41,1.06-.46.65-1.22,1.45-.69,2.28.61.95,2.14.5,2.78,1.34.53.7-.27,1.7-.04,2.49.17.58.7.93,1.23,1.15.85.34,1.87.22,2.61.82.64.52.9,1.39,1.46,1.99,1.07,1.15,2.6,1.72,4.05,2.25.33.12,1.01-.35.51-.54-1.38-.51-2.87-1.05-3.87-2.19-.82-.93-1.06-2.03-2.35-2.42-.71-.22-1.52-.18-2.17-.58-1-.63-.47-1.44-.39-2.34.08-.96-.58-1.38-1.4-1.62-.4-.12-.88-.16-1.24-.38-.74-.44-.45-1.11-.03-1.69s1.15-1.3.72-2.06c-.18-.32-.5-.47-.84-.56-.3-.08-.6-.06-.91-.08-.17-.01-.32,0-.48-.04-.17,0-.32-.07-.44-.19-.31-.08-.34-.25-.09-.51.37-1.12,2.51-.82,2.83-2.04.14-.55-.1-1.15.05-1.73.29-1.1,1.15-1.82,2.24-2.05,1.65-.34,3.64-.34,5.29-.03s2.8,1.26,4.13,2.16c1.21.82,2.23,1.07,3.67,1.15.54.03,1.13.06,1.54.48.31.32.49,1.02-.08,1.21-.46.16-1.25-.21-1.73-.26-.79-.09-1.61.05-2.1.73-.22.31-.31.68-.44,1.03-.38,1.07-1.18.87-2.09.87-.66,0-1.41.27-1.57.99-.29,1.3,1.28,2.05.18,3.28-.75.83-1.06,1.93-.59,3,.31.7,1.18,1.16.92,2.03-.18.62-.56.97-.56,1.67.01,1.12.67,2.12,1.68,2.58.3.14,1.07-.29.67-.47h0Z"/>
    </g>
    <g>
      <path class="cls-12" d="M562.29,125.55c-.31-1.77-2.95-1.55-4.49-2.48-1.18-.71-1.79-2.21-3.08-2.67-.93-.33-2.14-.08-2.78-.84-.37-.44-.4-1.07-.65-1.59-.96-1.97-4.52-1.36-5.42-3.36-.81-1.8,1.33-4.24.02-5.71-.41-.46-1.07-.66-1.41-1.17-.69-1.03.32-2.32,1.25-3.14,1.3-1.14,2.61-2.27,3.91-3.41-3.26-1.36-6.91-1.75-10.38-1.12-1.27.23-2.58.64-3.49,1.56-.91.92-1.26,2.5-.48,3.53.23.3.54.55.71.88.78,1.48-1.34,3.67-.06,4.74.3.25.71.33,1,.59.85.75.11,2.32.83,3.19.63.76,1.88.47,2.72.98.51.31.79.87,1.18,1.32.55.62,1.3,1.01,2.04,1.38,2.09,1.06,4.18,2.13,6.27,3.19,1.48.75,3.08,1.53,4.72,1.28,1.31,2.85,5.09,4.25,7.94,2.95"/>
      <path class="cls-12" d="M562.72,125.44c-.31-1.2-1.43-1.56-2.51-1.86-.7-.2-1.44-.35-2.07-.73-.78-.47-1.26-1.27-1.91-1.88-.46-.44-.95-.75-1.57-.91-1.01-.26-2.1-.01-2.6-1.2-.53-1.27-.82-1.92-2.18-2.45-1.24-.49-3.24-.65-3.66-2.17-.4-1.4.59-2.78.56-4.18-.04-1.76-2.7-2.13-1.86-3.93.45-.97,1.46-1.66,2.25-2.35.95-.83,1.89-1.65,2.84-2.48.16-.14.06-.3-.1-.36-3.45-1.39-7.24-1.8-10.89-1.07-2.27.45-6.09,2.66-4.11,5.49.53.76.96,1.16.78,2.17-.12.65-.42,1.25-.53,1.9-.07.4-.09.82.11,1.18.44.82,1.43.79,1.69,1.82.31,1.24-.16,2.41,1.38,2.9.93.3,1.72.22,2.41,1.03.61.72,1.08,1.27,1.91,1.75,1.99,1.15,4.12,2.11,6.17,3.16,1.86.95,3.69,1.96,5.84,1.75l-.38-.16c1.56,3.12,5.38,4.38,8.55,3.05.55-.23.06-.61-.36-.43-2.75,1.15-6.02-.22-7.33-2.84-.07-.14-.23-.18-.38-.16-2.45.24-4.84-1.44-6.94-2.51-.98-.5-1.95-.99-2.93-1.49s-2.06-.94-2.81-1.76c-.51-.55-.82-1.19-1.53-1.51s-1.81-.14-2.37-.79-.22-1.61-.4-2.36c-.21-.88-.78-.89-1.39-1.43-1.07-.95.26-2.7.23-3.89-.02-.72-.39-1.04-.8-1.58-.74-.98-.62-2.2.12-3.15,1.45-1.86,4.75-1.97,6.9-1.92,2.26.05,4.46.55,6.55,1.39l-.1-.36c-1.56,1.36-3.52,2.66-4.77,4.32-1.07,1.41-.71,2.36.57,3.33,1.63,1.23.26,3.17.18,4.78-.06,1.3.67,2.15,1.82,2.64,1.28.55,3.11.63,3.79,2.02.32.65.33,1.37.96,1.84.58.43,1.35.39,2.02.52,1.84.35,2.49,2.32,4.14,3.03,1.26.54,3.46.51,3.86,2.1.09.35.95.12.86-.23h0Z"/>
    </g>
    <g>
      <path class="cls-12" d="M559.39,128.91c-1.89,1.55-4.92,1.49-6.75-.14-.61-.54-1.09-1.23-1.76-1.71-1.93-1.38-4.86-.63-6.72-2.11-1.01-.81-1.5-2.13-2.48-2.97-1.96-1.68-5.27-1-7.1-2.81-.47-.46-.81-1.07-1.36-1.43-.89-.57-2.09-.37-3.02-.86-1.23-.64-1.7-2.3-2.97-2.87-.76-.34-1.7-.23-2.34-.76-1.11-.92-.48-3.04-1.65-3.87-.46-.33-1.08-.35-1.54-.67-1.12-.77-.58-2.58.38-3.55,1.21-1.23,2.85-1.93,4.44-2.6.37-.16.75-.32,1.12-.47,1.89-.8,4.21-1.57,5.87-.36.33.24.63.64.49,1.02-.07.2-.24.34-.41.46-1.22.95-2.43,1.89-3.65,2.84,1.23.21,1.58,1.81,1.53,3.06-.05,1.25-.1,2.77.96,3.43.54.33,1.29.38,1.62.92.26.41.15.96.29,1.43.41,1.4,2.39,1.3,3.73,1.85.94.39,1.64,1.19,2.42,1.85.9.76,1.92,1.36,2.94,1.95.92.53,1.85,1.07,2.77,1.6,2.58,1.49,5.16,2.99,7.83,4.31,1.88.93,3.79,1.78,5.75,2.54"/>
      <path class="cls-12" d="M559.11,128.72c-2.38,1.81-5.03.95-6.93-1.02-1.35-1.4-2.85-1.72-4.71-1.99-1.16-.17-2.31-.38-3.19-1.22-.81-.76-1.26-1.82-2.07-2.58-1.28-1.22-3.08-1.36-4.71-1.76-1.07-.26-2.03-.64-2.79-1.47s-1.24-1.39-2.34-1.63c-1.23-.27-2.12-.42-2.95-1.44-.52-.65-.97-1.37-1.72-1.78-.84-.46-2.08-.27-2.7-1.09-.54-.72-.42-1.77-.71-2.59-.21-.57-.54-.97-1.09-1.23-.65-.31-1.38-.31-1.63-1.15-.18-.59.05-1.28.34-1.79.72-1.28,2.23-2.03,3.51-2.62s2.49-1.14,3.77-1.56c.69-.22,1.4-.4,2.13-.39.38,0,.75.04,1.11.17.58.2,1.13.71.88,1.43-.15.45-1.43,1.12-1.82,1.42-.61.47-1.22.95-1.82,1.42-.17.13-.23.4.03.47,1.72.47,1.25,2.79,1.33,4.11.07,1.12.4,2.02,1.44,2.53.66.32,1.12.52,1.35,1.29.1.33.04.67.2.99.18.38.49.64.84.85,1.31.74,2.78.59,4.01,1.57,1.47,1.17,2.8,2.26,4.44,3.21,1.74,1.01,3.47,2.02,5.22,3.02,3.56,2.02,7.19,3.87,11.01,5.36.35.14,1-.37.5-.57-3.98-1.56-7.75-3.51-11.45-5.63-1.73-.99-3.47-1.99-5.19-3-.89-.52-1.77-1.06-2.56-1.73-.63-.54-1.2-1.16-1.92-1.59-1.11-.67-2.86-.5-3.78-1.42-.6-.6-.26-1.4-.69-2.06-.32-.51-.94-.6-1.44-.86-2.45-1.3.32-5.8-2.82-6.65l.03.47c1.23-.96,2.84-1.89,3.88-3.05.56-.62.34-1.22-.28-1.71-1.82-1.44-4.54-.41-6.39.36-2.11.88-4.85,1.77-6.18,3.78-.49.74-.85,1.8-.45,2.66.51,1.12,1.98.86,2.53,1.9.46.88.26,1.98.81,2.84.71,1.11,2.03.8,3.04,1.39.93.55,1.36,1.67,2.17,2.36,1.2,1.01,2.95.54,4.06,1.69.76.78,1.26,1.45,2.3,1.88,1.22.5,2.55.59,3.8.97,1.48.44,2.24,1.31,3.11,2.52.68.95,1.4,1.69,2.52,2.08,1.37.48,2.86.39,4.23.84,1.62.53,2.36,2.07,3.79,2.88,2.05,1.16,4.66.89,6.51-.52.46-.35-.23-.63-.57-.38h0Z"/>
    </g>
    <g>
      <path class="cls-12" d="M532.68,121.93c.63-.7-.09-1.86-.97-2.21-.88-.35-1.89-.29-2.73-.72-1.09-.57-1.62-1.83-2.59-2.59-1.02-.8-2.4-.95-3.62-1.39-1.23-.44-2.48-1.46-2.34-2.75.07-.7.51-1.5.03-2.01-.49-.51-1.51-.14-1.96-.69-.51-.61.27-1.55.05-2.31-.15-.51-.72-.79-1.25-.85-1.83-.21-3.33,1.35-4.51,2.77-1.37,1.65-2.73,3.31-4.1,4.96-.09.11-.19.23-.25.37-.26.62.41,1.3,1.09,1.35.67.04,1.3-.31,1.92-.58.62-.27,1.37-.44,1.94-.08.57.36.74,1.12,1.2,1.62,1.14,1.21,3.23.28,4.78.88.96.38,1.61,1.31,2.57,1.68.98.37,2.08.07,3.12.23,1.45.22,2.6,1.29,3.82,2.11,1.22.82,2.86,1.42,4.11.66"/>
      <path class="cls-12" d="M533.08,121.93c1.56-2.4-3.02-2.64-3.99-3.29s-1.41-1.7-2.29-2.39c-1.01-.79-2.31-.95-3.49-1.36-1.38-.47-2.63-1.45-2.38-3.04.14-.88.42-1.73-.64-2.06-.59-.18-1.37,0-1.49-.83-.07-.5.26-.97.23-1.47-.05-.85-.77-1.23-1.54-1.31-2.01-.2-3.62,1.3-4.83,2.71-.98,1.14-1.92,2.32-2.88,3.47-.49.59-1.86,1.69-1.8,2.56s1.08,1.2,1.8,1.12c.38-.04.75-.16,1.11-.3.25-.1.5-.26.75-.33,1.57-.44,1.6.1,2.16.94,1.44,2.13,3.6.64,5.56,1.67,1.17.61,1.8,1.58,3.19,1.73.75.08,1.52-.07,2.27.05.93.14,1.72.66,2.48,1.19,1.82,1.28,3.75,2.6,5.98,1.47.51-.26-.26-.35-.52-.21-2.23,1.13-4.42-1.76-6.29-2.55-.78-.33-1.56-.38-2.39-.38-.7,0-1.43.02-2.07-.3-.49-.24-.89-.66-1.33-.98-.62-.45-1.24-.71-1.99-.78-.95-.09-2.02.17-2.94-.16-1.04-.37-1.09-1.53-1.93-2.08-.5-.33-1.13-.3-1.68-.18-.28.06-.55.16-.82.27-.22.09-.51.28-.75.33-.92.19-1.94-.13-1.59-1.14.14-.4.75-.92,1.02-1.24.44-.53.88-1.06,1.32-1.59.71-.86,1.41-1.74,2.14-2.59.82-.95,3.39-3.57,4.53-1.74.49.79-.31,1.5-.02,2.3.24.65.86.56,1.4.72,1.55.43.56,1.5.66,2.57.08.86.73,1.54,1.42,1.99.93.61,2.04.77,3.08,1.11,1.24.41,1.94,1.13,2.74,2.1.62.76,1.23,1.28,2.19,1.54s4,.69,2.85,2.45c-.2.31.65.21.79,0h0Z"/>
    </g>
    <g>
      <path class="cls-12" d="M519.11,120.23c-1.04-1.18-3.07-.19-4.52-.8-.89-.38-1.52-1.35-2.48-1.43-1.15-.09-2.26,1.19-3.3.7-.7-.33-.93-1.33-1.66-1.6-.67-.25-1.37.24-1.89.73-1.78,1.65-3.28,3.61-4.42,5.75-.13.24-.25.5-.23.77.05.61.85.92,1.42.7.57-.22.94-.77,1.25-1.3.31-.53.62-1.1,1.15-1.41,1.55-.92,3.65.96,5.26.15.49-.25.86-.72,1.38-.89,1.22-.38,2.48,1.07,3.68.65.44-.16.76-.54,1.14-.81.63-.45,1.46-.61,2.2-.41.35.09.7.25,1.06.22.36-.04.71-.41.56-.74"/>
      <path class="cls-12" d="M519.51,120.08c-1.31-1.28-3.27-.14-4.75-.92-.64-.34-1.11-.96-1.8-1.21-.57-.21-1.16-.14-1.73.04-.41.13-.79.38-1.19.5-.9.26-1.14-.12-1.57-.66-.48-.61-.88-1.05-1.71-.96-1.55.16-2.79,1.81-3.72,2.91-.62.73-1.19,1.51-1.71,2.31-.4.62-1.33,1.7-1.13,2.49.28,1.17,2.02.74,2.66.2s.85-1.33,1.38-1.93c.92-1.03,2.3-.26,3.4-.05.55.11,1.11.14,1.66,0,.82-.2,1.49-1.13,2.34-1.02s1.51.72,2.38.74c.69.01,1.24-.28,1.77-.69.77-.6,1.58-.68,2.49-.47.29.07.57.1.87.05.52-.09,1.11-.42,1-1.02-.04-.21-.9-.01-.86.23.12.66-.92.21-1.12.18-.25-.04-.5-.05-.75-.03-.53.04-1.07.19-1.53.45-.75.41-1.19,1.09-2.16.75-.56-.2-1.09-.51-1.69-.59-.47-.06-.94.03-1.37.23-.74.35-1.11.97-2.05.9-1.19-.1-2.26-.75-3.48-.55-1.14.19-1.71.96-2.28,1.89-.26.42-.78,1.42-1.52.92-.41-.28-.28-.73-.12-1.11.38-.91,1.03-1.81,1.6-2.61.68-.94,3.02-4.37,4.33-3.54.49.31.66.99,1.17,1.3.41.25.88.24,1.34.15.92-.19,1.8-1.02,2.79-.56.65.3,1.11.92,1.78,1.21,1.42.6,3.32-.35,4.49.79.17.17.97-.15.81-.3h0Z"/>
    </g>
    <path class="cls-12" d="M578.59,179.5c1.16-3.05,2.48-6.14,4.4-8.8.71-.97,1.63-2.08,2.68-2.59.19-.09.15-.02.27-.1.1-.07-.04,0,.03,0l-.29-.08c.49.52.82,1.22,1.06,1.88.7,1.87.72,3.9.39,5.86-.05.31.67.2.72-.07.38-2.28.3-4.74-.78-6.83-.24-.47-.56-1.31-1.2-1.17-.51.11-.99.42-1.39.73-1.05.81-1.88,1.89-2.61,2.99-1.7,2.55-2.91,5.42-4,8.27-.1.27.62.19.72-.07h0Z"/>
    <path class="cls-7" d="M581.38,190.28c1.4.82,2.09,2.56,1.41,4.08-.34.76-.91,1.2-1.64,1.54-.05.03-.1.04-.07.03-.01,0-.03,0-.04,0-.07.01-.14.02-.22.02-.11,0-.12,0-.27,0s-.3-.01-.45-.03c-.99-.14-1.8-.7-2.32-1.55-.15-.24-.93.02-.75.32.81,1.31,2.44,1.96,3.95,1.69,1.85-.33,3.15-2.24,2.83-4.07-.19-1.06-.88-1.93-1.79-2.47-.24-.14-.98.2-.64.41h0Z"/>
    <path class="cls-12" d="M578.09,179.77c.65-.05,1.64-.07,1.88.7.19.59-.07,1.3-.24,1.86-.39,1.25-1.18,3-.32,4.22,1,1.42,2.66.19,3.41-.83s1.18-2.2,1.42-3.41c.1-.49.08-1.02.19-1.5.05-.21.13-.42.18-.63.41-1.65.55-3.94-1.39-4.62-.16-.06-.8.21-.58.28,1.73.6,1.66,2.71,1.34,4.19-.09.39-.25.77-.28,1.17-.1,1.33-.43,2.65-1.07,3.83-.23.43-.5.84-.83,1.2-.2.22-.55.64-.88.67-.62.06-1.05-.9-1.13-1.38-.23-1.37.54-2.73.84-4.03.12-.5.23-1.12-.13-1.55-.47-.58-1.45-.51-2.11-.47-.19.01-.77.33-.31.29h0Z"/>
    <path class="cls-12" d="M576.61,161.54c-.76,1.35-1.39,2.78-1.88,4.25-.21.62-.39,1.27-.37,1.92.02.49.15.97.2,1.46.16,1.55-.47,3.07-.57,4.63-.04.57,0,1.17.31,1.64.31.48.95.77,1.47.54.56-.25.73-.95.83-1.55.18-1.04.35-2.07.53-3.11.16-.92.34-1.89.95-2.59.93-1.07,2.68-1.28,3.35-2.53.41-.76.3-1.72.68-2.5.25-.52.72-.97.73-1.54.01-.74-.72-1.25-1.4-1.54-1.32-.57-2.88-4.43-4.32-4.44"/>
    <path class="cls-12" d="M587.38,158.83c1.52.63-6.11,1.59-6.26-.05-.15-1.64-.16-5.77-1.47-6.76-1.31-1,5.58,3.31,4.16-4.54,1.36-1.07,3.73,3.98,5.35,3.39,2.11-.77-1.2-3.88-2.31-5.83-1.11-1.95-1.15-2.71-2.36-4.59-.46-.71.87-2.35,1.57-2.82.26-.18.6-.2.9-.27,1.36-.31,2.37-1.56,2.69-2.91.32-1.36-3.99-3.1-4.5-4.4-.88-2.21-.57-4.01-2.53-5.35-.79-.54.49-.85-.02-1.65-.52-.8-.46-2.08.39-2.51.5-.25,1.11-.14,1.66-.01,2.5.58,5.02,1.35,7.07,2.9,2.04,1.55,3.54,4.04,3.29,6.59-.1,1.01-.46,2.03-.21,3.01.31,1.23,1.47,2.06,1.97,3.22,1,2.35-.97,5.28.24,7.53.38.7,1.02,1.23,1.45,1.9.76,1.2.71,2.86-.11,4.02-.5.7-1.23,1.2-1.72,1.9-1.84,2.61.38,6.36-.65,9.39-.99,2.92-2.94,3.71-5.09,1.49"/>
    <path class="cls-12" d="M568.38,102.62c-1.44.23-2.72-.8-3.98-1.52-1.96-1.13-4.29-1.6-6.53-1.32-1.69.21-3.38.83-5.06.57-.97-.15-1.87-.59-2.79-.95-3.2-1.26-6.77-1.58-10.14-.91-.72.14-1.46.33-2.19.25-.87-.1-1.65-.57-2.47-.87-1.87-.7-4.06-.49-5.77.55-2.53,1.53-4.27,4.8-7.22,4.8-2.2,0-4.64-1.88-6.34-.48-.79.65-1,1.79-1.69,2.55-1.47,1.64-4.39.94-6.01,2.42-1.34,1.22-1.27,3.45-2.54,4.74-.84.86-2.08,1.13-3.12,1.73-1.04.59-1.94,1.88-1.36,2.93l-.76,1.56c-5.48,5.23-6.53,17.12-5.37,16.47,1.16-.65,7.16-7.81,7.31-9.14.9-8.32,8.06-12.62,10.16-13.45,1.89-.75,3.96-1.15,5.58-2.38,1.03-.78,3.09.21,4.31-.19,1.65-.54,2.35-1.73,3.93-2.44.84-.38,2.1.97,2.69.26,1.54-1.85,4.6-1.91,7-1.74,2.02.14,2.18-2.16,4.21-2.18,1.34-.01,2.23,2.27,3.53,1.96,1.88-.45,3.22-.63,5.13-.34,3.3.51,7.55-1.44,10.85-.93,2.21.35,4.38,3.53,6.34,4.6,2.84,1.55,5.13,1.73,8.35,2.08.83-1.97.53-4.37-.75-6.08-1.29-1.71-3.51-2.66-5.63-2.41"/>
    <g>
      <path class="cls-1" d="M519.11,192.93c1.6.69,3.93.33,5.41-.74.33-.24,1.49-.12,1.03.22-1.96,1.41-5.31,1.77-7.37.88-.2-.09-.18-.24.06-.34.25-.1.66-.12.88-.02"/>
      <path class="cls-1" d="M526.18,191.92c1-.56,2.14-.9,3.29-1.07.17-.02.39.02.52.12.1.08.13.19.01.28-.51.34-1.18.52-1.81.55-.2.01-.46-.02-.58-.18-.11-.15.07-.26.22-.27.52-.03,1.04-.17,1.46-.45.18.13.36.27.54.4-1.03.15-2.05.47-2.94.97-.18.1-.45.06-.62-.02-.13-.06-.27-.22-.09-.32"/>
      <path class="cls-1" d="M530.78,191.73c1.35-.13,2.9-.83,3.49-1.89.89-1.6-.22-3.96-1.98-4.81-.19-.09-.1-.24.08-.29.24-.07.53,0,.73.1,1.53.75,2.63,2.67,2.52,4.12-.11,1.36-1.34,2.39-2.93,2.89-.47.15-.98.27-1.49.32-.2.02-.58-.01-.69-.17-.11-.15.07-.24.26-.26"/>
      <path class="cls-1" d="M516.58,192.42c.06-.16-.08-.25-.19-.24-.36.04-.75-.04-1.07-.27-.11.15-.22.31-.33.46.74.03,1.49.21,2.17.6.14.08.32,0,.43-.1.08-.08.16-.26.03-.33"/>
      <path class="cls-1" d="M517.62,192.55c-.77-.43-1.61-.63-2.43-.66-.12,0-.27.07-.35.19-.06.09-.07.21.03.27"/>
      <path class="cls-1" d="M513.78,192.81c-.88.03-1.96-.48-2.47-1.46-.76-1.48-.29-3.34.74-4.4.11-.12.04-.25-.09-.28-.16-.04-.34.06-.46.18-.9.92-1.42,2.35-1.17,3.78.23,1.33,1.14,2.21,2.22,2.52.32.09.66.15.99.14.13,0,.37-.08.42-.25.05-.17-.07-.23-.2-.22"/>
    </g>
    <path class="cls-19" d="M501.12,168.5c-1.2-.52-2.66.08-3.37.81-.17.17-.47.68-.64,1.45-.22.99.25,2.07.91,2.69.88.84,2.25.89,3.26.33,1.37-.76,1.7-2.5,1.26-3.71-.08-.22-.45-1.15-1.42-1.57"/>
    <path class="cls-19" d="M513.4,171.12s-5.96-4.03-8.86-4.11c-4.24-.11-9.25,2.6-10.59,4.79,0,0,6.61-3.99,9.59-3.82,2.85.16,9.86,3.13,9.86,3.13Z"/>
    <path class="cls-19" d="M536.32,166.14c1.11-.68,2.99-.65,3.8-.04.19.14.7.56.98,1.31.36.95.05,2.08-.51,2.8-.75.95-2.1,1.21-3.18.8-1.46-.56-2.05-2.23-1.79-3.49.05-.23-.21-.65.69-1.21"/>
    <path class="cls-19" d="M531.57,169.23s6.07-4.51,9.2-4.83c4.56-.47,10.21,1.81,11.85,3.89,0,0-7.48-3.42-10.68-3.01-3.06.4-10.36,3.94-10.36,3.94Z"/>
    <path class="cls-12" d="M523.46,200.85c4.82-.48,14.67-2.14,16.99-.5,0,0-4.01,9.92-15.19,11.03-11.18,1.11-12.91-7.85-12.91-7.85,0,0,4.97-2.07,11.11-2.68Z"/>
    <path class="cls-31" d="M536.9,200.83s-6.25,1.59-11.11,2.07c-4.86.48-12.83.61-12.83.61,0,0,.81-2.38,9.62-3.26,8.81-.88,14.32.58,14.32.58Z"/>
    <path class="cls-15" d="M524.92,210.19c5.16-1.26,10.67-10.54,16.81-10.77,0,0-1.37,13.96-14.51,15.27-13.14,1.31-15.72-10.91-15.72-10.91,2.96-.29,8.12,6.19,13.42,6.42Z"/>
    <path class="cls-15" d="M517.49,198.82c2.74-.48,4.6.39,5.79.27,1.2-.12,2.89-1.87,5.63-1.41,7.79,1.31,13.37,1.09,13.37,1.09-1.68,2.94-10.42,2.15-18.74,2.97-8.31.83-12.4,3.34-12.56,1.87-.05-.44,3.93-4.35,6.5-4.8Z"/>
    <path class="cls-19" d="M493.39,163.99c-.12-.07-.26-.11-.41-.13-.08-.23-.15-.46-.21-.7-.03-.16-.05-.32-.05-.47,0-.04.01-.08.02-.12.85-1.44,1.87-2.28,1.97-2.37,0,0,1.42-1.2,3.74-1.84,1.6-.44,6.06-.8,12.01-.14.02.83.04,1.66.07,2.5.02.64.03,1.27.04,1.9-2.07-.51-3.84-.84-5.18-1.05-2.82-.45-4.27-.67-5.89-.37-1.7.32-3.14.99-3.69,1.26-.78.38-1.31.61-1.93,1.1-.19.14-.33.29-.48.43Z"/>
    <path class="cls-19" d="M527.61,155.78c.15.82.3,1.64.46,2.46.12.63.24,1.25.36,1.88,2.52-.94,4.7-1.64,6.35-2.14,3.49-1.05,5.27-1.57,7.4-1.62,2.23-.05,4.2.3,4.97.45,1.08.2,1.8.32,2.69.66,1.94.74,2.87,1.78,3.14,1.63.25-.13-.37-1.07-.43-1.17-1.56-2.37-4.29-3.48-4.5-3.57,0,0-2.06-.87-5.14-1.01-2.13-.09-7.87.5-15.28,2.43"/>
    <path class="cls-33" d="M636.2,840.83c5.13-2.04,8.76-17.33,8.3-22.83-1.71-20.48-2.11-55.99-1.05-116.59.53-30.56,3.89-75.54,12.93-102.58,8.77-26.22,22.07-46.65,23.87-72.78,3.65-52.95-8.07-69.32-22.51-91.3l-150.98,7.05-3.06,24.1c-1.01,12.2-1.41,43.94,3.26,82.41,3.58,29.44,10.66,110.16,11.71,141.74l14.62,137.88c.45,3.99,3.95,10.47,7.85,11.42,8.91,2.17,30.03,1.53,38.89-2.09.71-.29-1.65,6.58,6.8,7.38,14.13,1.34,25.85,5.54,49.38-3.8Z"/>
    <path class="cls-2" d="M672.35,439.24l.42,19.13s-55.21,18.23-88.12,17.3l-7.46-21.49,95.16-14.94Z"/>
    <path class="cls-2" d="M523.85,460.43l-1.64,20.09s-14.2,4.92-26.67-.92l-.41-16.12,28.72-3.05Z"/>
    <path class="cls-3" d="M587.07,364.8c-.13,1.42-.32,2.84-.56,4.25-.01-.1-.02-.19.05-.3.13-.82.31-2.18.51-3.95Z"/>
    <path class="cls-24" d="M524.84,231.53s-34.57,26.46-37.78,30.3l-7,48.6s9.31,13.74,11.32,30.16c1.14,9.31,5.51,12.98,8.78,19.33,2.58,5,.73,38.2.73,38.2l-.8,49.96c7.22,3.48,6.54,5.96,22.29,5.6,15.87-.36,31.66-2.41,47.36-4.66,12.68-1.82,25.61-3.39,38.04-6.49,7.82-1.95,25.98-9.76,33.64-12.46l-28.09-55-5.84-88.69,3.74-34.62s-5.13-6.17-7.58-6.87c-5.06-1.44-2-6.56-12.31-9.05l-8.57-7.56s-19.97,33.55-44.86,37.49c-24.88,3.94-13.07-34.23-13.07-34.23Z"/>
    <path class="cls-2" d="M576.63,221.22s4.05,26.15-19.02,40.04c0,0,.94,66.84,4.51,100.85,3.57,34.01-9.05,68.99,9.35,93,9.89,12.9,87.66-7.21,98.87-10.8,11.22-3.59,7.28-42.17-3.58-59.5-7.61-12.14-10.89-74.93-18.43-112.27-3.22-15.94-15.76-28.42-15.76-28.42l-55.94-22.91Z"/>
    <path class="cls-2" d="M521.98,236.47s-2.53,1.49-12.89,6.99c-10.37,5.5-26.48,21.48-30.13,25.2-3.64,3.72,0,16.45.86,33.01.74,14.29-6.63,29.99-4.94,42.17,1.15,2.9,2.33,5.79,3.75,8.59,1.55,3.06,3.48,5.93,5.61,8.7,2.08,2.71,4.3,5.42,5.51,8.55,1.15,2.97,1.69,6.25,2.18,9.37.51,3.21.81,6.46.94,9.71.28,6.5-.06,13.03-.61,19.54-.55,6.56-1.33,13.11-1.96,19.67-.21,2.26-.42,4.53-.6,6.79-.03.31-.05.63-.07.94,0,.11-.03.61-.04.74-.03.65-.05,1.3-.06,1.95-.13,6.95.42,14.39,2.48,20.81.54,1.68,1.19,3.33,2.02,4.9.72,1.37,1.39,2.41,2.61,3.72.68.72.67.73,1.54,1.36.27.19.54.38.83.55.12.08.25.15.38.22.08.04.3.15.33.16.37.16.74.31,1.13.44.14.05.29.09.44.13.09.02.33.08.37.09.35.06.71.13,1.06.17.21.02,1.34.08.92.08,1.32,0,2.51.59,2.65,1.84.03.28-.03.58-.15.88,7.8-1.27,15.12-3.48,18.04-6.03,6.6-5.77.79-34.66.79-34.66,0,0-10.69-68.03-9.32-106.51.7-19.83,6.8-64.54,6.8-64.54l-2.62-6.18c-3.57-7.28,2.13-19.35,2.13-19.35Z"/>
    <path class="cls-20" d="M672.2,438.63c.13,6.79.26,13.58.39,20.37l.69-.58c-6.76,2.17-13.62,4.07-20.48,5.89-14.33,3.79-28.84,7.09-43.52,9.18-8.03,1.14-16.16,1.94-24.29,1.75l.47.21c-1.98-5.65-3.96-11.3-5.94-16.95l-1.1.63c11.81-.66,23.62-1.79,35.36-3.24,9.49-1.17,18.98-2.56,28.31-4.67,8.1-1.82,16.19-4.22,23.66-7.87,2.68-1.31,5.64-2.77,7.84-4.83.65-.61-.89-.55-1.25-.22-1.68,1.57-3.86,2.72-5.87,3.78-6.74,3.55-14.13,5.87-21.5,7.69-17.34,4.28-35.36,6.09-53.12,7.58-4.27.36-8.54.69-12.81.93-.23.01-1.25.19-1.1.63,1.98,5.65,3.96,11.3,5.94,16.95.06.19.31.21.47.21,14.94.35,29.97-2.27,44.54-5.31,12.56-2.62,25.01-5.81,37.32-9.42,2.42-.71,4.84-1.43,7.24-2.2.27-.09.69-.23.69-.58-.13-6.79-.26-13.58-.39-20.37,0-.45-1.58-.16-1.57.42Z"/>
    <path class="cls-20" d="M521.57,467.6c-.03,4.38-.06,8.75-.09,13.13l.49-.36c-5.27,1.84-11.85,2.1-17.51,1.56-1.31-.13-2.62-.3-3.92-.54-.71-.13-1.41-.27-2.11-.42-.21-.05-.97-.09-1.06-.24-.22-.37-.05-1.44-.07-1.86l-.3-7.87c-.07-1.94-.15-3.88-.22-5.83l-1.44.45c2.61,1.45,5.82,2.09,8.73,2.51,5.73.81,11.48.14,17.23.08.38,0,.87.09,1.24,0,.16-.04.03.02.07,0-.2.08.33-.42.56-.48-.86.23-.75.68.12.45.47-.12.97-.36.36-.56-.84-.27-2.16,0-3.01.02-6.77.19-13.51.81-20.11-1.08-1.28-.37-2.62-.79-3.79-1.44-.26-.14-1.46.05-1.44.45.2,5.2.4,10.4.59,15.6.03.05.07.08.13.09,6.06,1.49,12.37,1.87,18.57,1.11,2.65-.33,5.36-.79,7.88-1.67.14-.05.49-.16.49-.36.03-4.38.06-8.75.09-13.13,0-.22-1.48-.02-1.49.4h0Z"/>
    <path class="cls-2" d="M524.68,229.85s-3.62,12.73-1.46,26.19l-6.77,13.61s-7.84-19.66-4.65-32.51l3.55-4.91c.99-1.36,2.48-2.29,4.14-2.51,2.45-.33,5.53-1.6,5.19.14Z"/>
    <path class="cls-20" d="M523.86,229.07c-1.48,4.78-1.91,10.01-2.04,14.98-.07,2.6,0,5.21.19,7.81.09,1.23.18,2.46.34,3.67.07.52.08.38-.07.82-.3.9-.84,1.77-1.25,2.63l-1.84,3.89c-.95,2.01-1.9,4.01-2.85,6.02l1.52-.11c-1.96-4.64-3.4-9.59-4.43-14.51-.86-4.14-1.41-8.4-1.16-12.63.08-1.36.09-3.43.69-4.57.55-1.05,1.56-2.03,2.28-2.97s1.41-2.1,2.31-2.86,2.16-.97,3.23-1.44c.89-.38,2.5-1.49,3.1-.27.31.63,1.78.05,1.42-.69-.87-1.79-3.08-.9-4.46-.31-1.93.83-3.88,1.24-5.26,2.95-.77.95-1.5,1.95-2.24,2.92-.61.79-1.47,1.62-1.92,2.52-.41.84-.45,2.1-.56,3.01-.14,1.17-.21,2.34-.22,3.51-.02,2.3.16,4.59.48,6.87.58,4.2,1.6,8.34,2.86,12.39.69,2.19,1.43,4.39,2.33,6.51.26.61,1.27.41,1.52-.11,1.9-4.01,3.79-8.01,5.69-12.02.42-.89.47-1.11.35-2.19-.31-2.77-.48-5.56-.5-8.35-.03-4.01.23-8.04.86-12,.27-1.71.65-3.77,1.11-5.26.27-.86-1.28-.87-1.49-.19Z"/>
    <path class="cls-2" d="M557.84,266.18s-1.47-7.27,2.5-16.26c3.97-8.99,18.28-19.8,17.13-25.57-1.15-5.77-.82-12.52-.82-12.52,0,0,13.15,8.39,13.73,13.88,1.74,16.36-32.54,40.47-32.54,40.47Z"/>
    <path class="cls-20" d="M559.41,265.82c-.85-2.77-.74-5.94-.33-8.77.76-5.16,3.04-9.47,6.27-13.47,2.85-3.53,6.04-6.76,8.97-10.21,1.9-2.25,4.62-5.2,4.79-8.32.06-1.07-.28-2.15-.46-3.19-.26-1.58-.48-3.16-.67-4.75-.21-1.77-.39-3.55-.5-5.32l-1.45.54c4.07,2.9,8.24,6.05,11.57,9.8,1.55,1.74,2.5,3.58,2.53,5.94.04,2.31-.66,4.56-1.61,6.64-2.4,5.27-6.37,9.82-10.37,13.94-3.99,4.11-8.32,7.89-12.8,11.46-2.38,1.91-4.81,3.78-7.32,5.52-.91.63.4,1.3,1.1.82,6.87-4.77,13.37-10.24,19.28-16.14,4.26-4.25,8.4-8.9,11.15-14.29,1.97-3.86,3.44-9.05.82-12.98-1.95-2.93-4.93-5.29-7.63-7.48-1.79-1.46-3.62-2.87-5.49-4.21-.4-.28-1.49-.1-1.45.54.09,1.34.21,2.68.35,4.02.3,2.86.89,5.68,1.24,8.52.37,3.06-2.56,6.13-4.37,8.28-2.99,3.55-6.26,6.84-9.17,10.46-3,3.73-5.18,7.69-6.17,12.42-.71,3.37-.95,7.31.07,10.67.24.8,1.87.35,1.63-.44Z"/>
    <path class="cls-20" d="M516.56,469.02c.41,3.94,0,7.88.42,11.82.03.29,1.68-.02,1.63-.44-.41-3.94,0-7.88-.42-11.82-.03-.29-1.68.02-1.63.44h0Z"/>
    <path class="cls-20" d="M511.44,469.56c.44,3.94.71,7.84.82,11.8.02.85,1.67.6,1.65-.12-.11-4.06-.39-8.08-.84-12.12-.08-.75-1.72-.35-1.63.44h0Z"/>
    <path class="cls-20" d="M504.49,468.43c.48,4.66.76,9.34,1.13,14.01.06.76,1.69.37,1.63-.44-.36-4.67-.65-9.35-1.13-14.01-.08-.77-1.71-.37-1.63.44h0Z"/>
    <path class="cls-20" d="M498.75,468.17c.45,4.31.19,8.65.64,12.96.06.62,1.7.25,1.63-.44-.45-4.31-.19-8.65-.64-12.96-.06-.62-1.7-.25-1.63.44h0Z"/>
    <path class="cls-20" d="M613.32,456c1.06,5.46,1.79,10.98,2.17,16.53.04.51,1.67.18,1.63-.44-.38-5.55-1.1-11.07-2.17-16.53-.11-.54-1.75-.15-1.63.44h0Z"/>
    <path class="cls-20" d="M620.79,455.14c1.06,5.46,1.79,10.98,2.17,16.53.04.51,1.67.18,1.63-.44-.38-5.55-1.1-11.07-2.17-16.53-.11-.54-1.75-.15-1.63.44h0Z"/>
    <path class="cls-20" d="M629.16,453.93c1.06,5.46,1.79,10.98,2.17,16.53.04.51,1.67.18,1.63-.44-.38-5.55-1.1-11.07-2.17-16.53-.11-.54-1.75-.15-1.63.44h0Z"/>
    <path class="cls-20" d="M636.25,452.39c1.06,5.46,1.79,10.98,2.17,16.53.04.51,1.67.18,1.63-.44-.38-5.55-1.1-11.07-2.17-16.53-.11-.54-1.75-.15-1.63.44h0Z"/>
    <path class="cls-20" d="M644.15,450.28c1.06,5.46,1.79,10.98,2.17,16.53.04.51,1.67.18,1.63-.44-.38-5.55-1.1-11.07-2.17-16.53-.11-.54-1.75-.15-1.63.44h0Z"/>
    <path class="cls-20" d="M652.49,447.73c1.06,5.46,1.79,10.98,2.17,16.53.04.51,1.67.18,1.63-.44-.38-5.55-1.1-11.07-2.17-16.53-.11-.54-1.75-.15-1.63.44h0Z"/>
    <path class="cls-20" d="M661.86,445.66c1.06,5.46,1.79,10.98,2.17,16.53.04.51,1.67.18,1.63-.44-.38-5.55-1.1-11.07-2.17-16.53-.11-.54-1.75-.15-1.63.44h0Z"/>
    <path class="cls-20" d="M605.26,456.63c.71,5.73,1.3,11.47,1.75,17.22.02.28,1.67,0,1.63-.44-.45-5.75-1.03-11.5-1.75-17.22-.04-.3-1.68.03-1.63.44h0Z"/>
    <path class="cls-20" d="M595.8,457.65c.19,5.94,1.14,11.83,2.83,17.54.13.45,1.76,0,1.63-.44-1.69-5.7-2.64-11.59-2.83-17.54-.01-.38-1.65-.1-1.63.44h0Z"/>
    <path class="cls-20" d="M585.3,458.38c.26,5.88,1.74,11.59,4.36,16.86.35.7,1.89.07,1.49-.74-2.5-5.04-3.93-10.59-4.19-16.21-.04-.9-1.7-.69-1.66.1h0Z"/>
    <path class="cls-20" d="M629.61,397.62c-8.4.92-16.8,1.83-25.2,2.73-4.2.45-8.4.89-12.6,1.34-.85.09-2.51.62-2.88-.35-.32-.83-.16-2.13-.23-3.02-.07-.97-.14-1.95-.2-2.92-.06-.87-.42-2.19-.2-3.03.2-.76,1.64-.61,2.27-.68.81-.09,1.63-.17,2.44-.26,1.64-.17,3.28-.35,4.92-.52,3.53-.38,7.07-.75,10.6-1.13,6.94-.74,13.87-1.48,20.81-2.22,3.42-.36,6.85-.7,10.27-1.05l-.46-.1c.48,3.26.97,6.53,1.45,9.79l.97-.51c-4.06.65-8.11,1.3-12.17,1.95-.64.1-1.46.76-.31.57,4.06-.65,8.11-1.3,12.17-1.95.15-.02,1.02-.21.97-.51-.48-3.26-.97-6.53-1.45-9.79-.02-.14-.38-.1-.46-.1-10.51,1.06-21,2.19-31.5,3.31-3.79.4-7.59.81-11.38,1.21-1.74.19-3.49.37-5.23.56-1.44.15-3.2.07-4.55.64-1.53.64-.92,2.41-.83,3.75.08,1.14.16,2.27.24,3.41.07.96-.07,2.28.28,3.18.49,1.28,3.03.46,4,.36,2.31-.24,4.61-.49,6.92-.73,10.21-1.08,20.43-2.19,30.64-3.31.41-.05,1.77-.75.71-.63Z"/>
    <path class="cls-20" d="M591.45,227.09c-3.28-3.31-7.6-5.5-12.21-6.19-.39-.06-.87.01-1.15.31-.22.23-.2.57.17.63,4.43.66,8.54,2.73,11.69,5.91.43.43,1.98-.19,1.51-.66h0Z"/>
    <path class="cls-20" d="M590.62,232.74c-2.6-3.61-6.49-6.22-10.82-7.27-.39-.09-.88,0-1.15.31-.23.26-.18.63.19.72,4.14,1.01,7.79,3.49,10.28,6.94.39.55,1.96-.05,1.5-.69h0Z"/>
    <path class="cls-20" d="M586.55,237.41c-3.05-2.52-6.33-4.73-9.8-6.62-.37-.2-.83-.19-1.17.08-.25.2-.45.69-.07.9,3.47,1.89,6.75,4.11,9.8,6.62.6.49,1.99-.36,1.25-.98h0Z"/>
    <path class="cls-20" d="M583.99,243.28c-1.49-4.41-5.16-7.92-9.62-9.25-.36-.11-.83.03-1.14.19-.16.08-.55.37-.19.48,4.34,1.29,7.88,4.73,9.32,9.02.14.43,1.76-.05,1.63-.44h0Z"/>
    <path class="cls-20" d="M580.3,247.15c-3.17-3.24-6.78-6.01-10.72-8.24-.4-.23-1.91.39-1.32.73,3.87,2.19,7.41,4.94,10.51,8.12.35.36,1.89-.23,1.52-.6h0Z"/>
    <path class="cls-20" d="M575.12,250.88c-2.66-3.19-5.96-5.83-9.66-7.73-.36-.19-.84-.13-1.17.11-.23.17-.47.6-.1.79,3.62,1.85,6.82,4.4,9.43,7.52.44.53,2-.1,1.5-.7h0Z"/>
    <path class="cls-20" d="M571.3,254.92c-1.45-3.37-4.14-6.1-7.48-7.62-.33-.15-.85.01-1.15.18-.2.11-.51.38-.17.53,3.2,1.45,5.78,4.12,7.17,7.34.21.48,1.81-.03,1.63-.44h0Z"/>
    <path class="cls-20" d="M567.11,258.5c-2.18-1.89-4.54-3.56-7.08-4.95-.36-.2-.84-.11-1.17.12-.24.17-.46.58-.11.77,2.44,1.34,4.74,2.92,6.85,4.75.31.27.74.25,1.1.09.21-.1.71-.51.4-.78h0Z"/>
    <path class="cls-20" d="M521.93,250.87c-1.99.4-3.47,1.83-4.58,3.45-1.3,1.88-2.33,3.96-3.46,5.94-.19.34.17.54.46.56.36.02.88-.13,1.07-.47,1.04-1.83,2.02-3.72,3.16-5.49.86-1.33,1.96-2.73,3.59-3.06.28-.06.78-.33.69-.68-.09-.37-.69-.3-.94-.25h0Z"/>
    <path class="cls-20" d="M521.6,242.61c-1.69.83-3.12,2.2-4.42,3.54-1.81,1.88-3.45,3.94-4.89,6.11-.21.32.18.48.45.5.36.02.87-.13,1.08-.45,1.36-2.05,2.88-3.99,4.58-5.77.7-.73,1.43-1.44,2.21-2.08.28-.24.57-.47.87-.68.15-.11.31-.21.46-.3.07-.04.14-.09.22-.13.14-.08-.06.03.09-.05.23-.11.66-.37.43-.67-.21-.27-.84-.14-1.08-.02h0Z"/>
    <path class="cls-20" d="M522.87,235.42c-4.98,1.16-9.34,4.63-11.5,9.27-.38.82,1.26.77,1.55.15,1.95-4.17,5.74-7.32,10.23-8.38.31-.07.77-.37.68-.74s-.67-.38-.96-.31h0Z"/>
    <path class="cls-20" d="M523.22,230.84c-1.94-.09-3.79.29-5.51,1.2s-3.19,2.11-4.77,3.18c-.3.21-.39.62-.08.86.33.26.86.12,1.17-.1,1.39-.94,2.7-2.02,4.17-2.83,1.39-.77,2.86-1.18,4.46-1.1.39.02.89-.11,1.06-.5.15-.35-.14-.68-.5-.7h0Z"/>
    <path class="cls-33" d="M631.48,841.31l-3.31,16.77s-22.51,4.68-39.55.13l-2.99-14.4,45.85-2.51Z"/>
    <path class="cls-33" d="M585.63,834.8l-3.31,16.77s-22.51,4.68-39.55.13l-2.99-14.4,45.85-2.51Z"/>
    <path class="cls-17" d="M542.58,530.95c4.64,1.06,8.27,4.75,11.07,8.41,2.11,2.76,3.94,5.77,5.45,8.9.78,1.62.41,3.92.47,5.67.4,12.73.79,25.47,1.19,38.2l1.4,44.92.42,13.47c.23,7.36-.09,14.7.49,22.06.6,7.72,1.42,15.44,2.06,23.16,1.11,13.44,2.22,26.87,3.34,40.31,1.31,15.88,2.63,31.75,3.94,47.63.99,12,1.99,24.01,2.98,36.01.22,2.7.45,5.4.67,8.09.04.45.03.84,0,1.3-.14,2.91.32,5.94,1.49,8.62,1.57,3.6,4.53,6.31,8.29,7.5,2.54.8,5.26,1.18,7.9,1.5,11.92,1.48,24.46.8,35.95-2.86,2.04-.65,4.12-1.36,6.04-2.35,1.55-.79-.89-.69-1.52-.36-2.01,1.03-4.22,1.75-6.39,2.38-6.06,1.77-12.35,2.58-18.66,2.73-5.71.14-11.5-.13-17.13-1.16-2.46-.45-4.86-.96-7-2.32-7.02-4.47-6.13-13.16-6.73-20.4-.9-10.84-1.79-21.68-2.69-32.52-1.28-15.48-2.56-30.96-3.84-46.44-1.17-14.19-2.35-28.38-3.52-42.56-.57-6.94-1.06-13.89-1.72-20.82-.46-4.76-.99-9.49-1.19-14.27-.19-4.62.02-9.21-.05-13.82-.05-3.08-.19-6.17-.29-9.26-.43-13.93-.87-27.87-1.3-41.8s-.88-28.12-1.32-42.18c-.1-3.3-.1-6.62-.31-9.91-.05-.79-.38-1.32-.75-2.06-1.7-3.34-3.73-6.54-6.12-9.43-2.74-3.3-6.16-6.38-10.45-7.36-.57-.13-1.34.06-1.84.33-.21.12-.92.56-.32.7h0Z"/>
    <path class="cls-17" d="M580.74,839.38c-6.63.14-13.26.29-19.88.43l-9.69.21c-1.66.04-3.31.08-4.97.11-1.27.03-2.66.11-3.61-.88-.67-.71-3.18.28-2.44,1.06,1.87,1.96,5.11,1.41,7.53,1.35l10.69-.23c7.12-.15,14.25-.31,21.37-.46.55-.01,1.47-.16,1.73-.74.24-.53-.21-.86-.73-.85h0Z"/>
    <path class="cls-9" d="M551.48,906.4c6.34.23,11.48-4.14,15.87-8.14,2.27-2.07,4.47-4.21,6.73-6.3,1.8-1.66,3.61-3.39,5.7-4.68.46-.28.69-.82.2-1.17s-1.43-.07-1.9.21c-4.27,2.63-7.79,6.6-11.43,9.99-1.94,1.81-3.89,3.63-6.02,5.21-2.3,1.71-5.24,3.29-8.17,3.19-.56-.02-1.49.18-1.75.76s.22.9.76.92h0Z"/>
    <path class="cls-32" d="M424.87,106.6l-7.17-31.77c-.28-1.23-1.1-2.32-2.28-3.06l-6.23-3.86-10.99-11.05s-25.62-7.34-27.18-4.18c-1.77,3.54,8.26,7.28,8.26,7.28,0,0-14.63,5.41-18.94,6.59-4.32,1.18-5.06,7.38.12,6.82,3.41-.39,6.78-1.01,10.07-1.85,0,0-3.91,3.05-3.45,5.54.46,2.48,5.4,2.08,5.4,2.08l10.8-9.82,14.48,6.48s-11.61-6.01-13.63-3.44c-2.02,2.57.99,5.97.38,5-.1-.15,9.91,7.03,9.8,6.87-.74,5.07-1.42,8.08-2.34,13.12-.15.8-.24,1.62-.29,2.43,1.2,3.76,2.15,7.58,4.06,11.15,2.27,4.24,6.08,7.51,9.49,11.07.59.23,1.06.41,1.11.42.27.56,5.87,7.98,7.23,10.54l14.29-18.18c-.95-2.4-2.48-7.39-2.97-8.14Z"/>
    <path class="cls-9" d="M393.63,84.44c1.5,1.03,2.92,2.25,4.19,3.57.95.99,1.86,2.09,2.4,3.36.59,1.38.34,2.84.27,4.29-.02.48-.04.96-.07,1.43,0,.2,1.4.03,1.42-.38.02-.34.03-.68.05-1.02.07-1.42.37-2.98-.12-4.35-.86-2.45-3.1-4.44-5.05-6.04-.57-.46-1.15-.92-1.75-1.34-.33-.22-1.54.35-1.34.48h0Z"/>
    <path class="cls-9" d="M389.64,73.03c2.8.86,5.57,1.84,8.3,2.88,2.22.85,4.43,1.75,6.55,2.82,1.45.73,3.07,1.54,4.16,2.79,1.02,1.17,1.93,2.45,2.88,3.68.23.29,1.59-.18,1.34-.5-.7-.89-1.39-1.78-2.09-2.67-1.23-1.57-2.6-2.57-4.37-3.5-3.93-2.08-8.18-3.6-12.38-5.03-1.07-.36-2.15-.72-3.23-1.06-.35-.11-1.61.44-1.16.58h0Z"/>
    <path class="cls-9" d="M370.38,72.12c3.72-.64,7.43-1.29,11.15-1.93.54-.09,1.07-.19,1.61-.28.26-.05.76-.18.8-.51s-.4-.39-.63-.35c-3.72.64-7.43,1.29-11.15,1.93-.54.09-1.07.19-1.61.28-.26.05-.76.18-.8.51s.4.39.63.35h0Z"/>
    <path class="cls-9" d="M378.63,60.74c8.73,2.32,17.46,4.64,26.19,6.96,1.24.33,2.48.66,3.72.99.32.08,1.55-.43,1.17-.53-8.73-2.32-17.46-4.64-26.19-6.96-1.24-.33-2.48-.66-3.72-.99-.32-.08-1.55.43-1.17.53h0Z"/>
    <path class="cls-2" d="M613.14,241.37l-100.19-15-10.58-3.81c-.64.98,2.51,2.73,1.85,3.7-7.04,10.38-15,20.25-24.25,29.1-.51.49-1.05.96-1.57,1.45,3.5,1.83-4.35,17.89-1,19.58,13.71,6.92,92.99,22.31,130.42,32.43,2.07-19.13,15.23-49.81,5.32-67.45Z"/>
    <path class="cls-2" d="M504.72,223.85l-62.97-98.16c-1.78-2.62-5.25-3.47-8.04-1.95l-25.7,13.97c-2.6,1.42-3.84,4.49-2.94,7.31,21.61,68.18,46.59,104.14,59.35,123.14,14.75,25.56,34.63-2.38,40.31-44.31Z"/>
    <path class="cls-20" d="M503.7,224.49c1.83.66,3.66,1.32,5.49,1.98,1.11.4,2.27.98,3.44,1.19,1.33.24,2.75.26,4.09.39,7.66.74,15.32,1.5,22.98,2.29,11,1.12,22.01,2.29,33,3.52,10.58,1.19,21.16,2.42,31.71,3.87,3.95.54,7.9,1.11,11.83,1.79,2.38.41,4.82.79,7.13,1.52.31.1.61.2.91.33.65.29,1.89-.64.95-1.06-1.81-.8-3.92-1.1-5.85-1.47-3.54-.68-7.11-1.21-10.69-1.73-10.23-1.47-20.49-2.69-30.75-3.86-11.16-1.28-22.32-2.47-33.49-3.62-8.32-.86-16.64-1.69-24.97-2.5-1.91-.19-3.83-.37-5.74-.55-.16-.02-.33-.02-.49-.05-.03,0-.06,0-.09,0,.39.07-.04-.04-.14-.08-2.14-.87-4.36-1.57-6.53-2.35l-1.82-.65c-.66-.24-1.91.71-.95,1.06h0Z"/>
    <path class="cls-20" d="M608.2,309c-20.66-5.58-41.48-10.49-62.26-15.56-8.34-2.04-16.61-4.16-25.09-5.52-8.04-1.29-16.11-2.32-24.1-3.87-8.34-1.62-16.97-3.7-24.33-8.11-.58-.35-2.03.45-1.27.91,6.4,3.84,13.73,5.92,20.97,7.5,8,1.75,16.12,2.86,24.21,4.09,3.76.57,7.53,1.16,11.26,1.9,4.4.86,8.74,2.04,13.09,3.1,10.47,2.57,20.95,5.08,31.42,7.64,11.75,2.88,23.48,5.82,35.16,8.97.67.18,1.93-.8.95-1.06h0Z"/>
    <g>
      <g>
        <polygon class="cls-2" points="436.39 123.58 426.93 108.3 400.84 121.74 406.38 139.78 436.39 123.58"/>
        <path class="cls-20" d="M437.22,123.22c-3.15-5.09-6.31-10.19-9.46-15.28-.2-.33-.94-.19-1.2-.06-7.62,3.92-15.23,7.84-22.85,11.76-1.08.56-2.16,1.11-3.24,1.67-.22.11-.62.35-.53.66,1.85,6.01,3.69,12.03,5.54,18.04.14.46.97.35,1.27.18,8.77-4.73,17.54-9.46,26.3-14.2,1.23-.67,2.47-1.33,3.7-2,1.08-.58.09-1.3-.74-.85-8.77,4.73-17.54,9.46-26.3,14.2-1.23.67-2.47,1.33-3.7,2l1.27.18c-1.85-6.01-3.69-12.03-5.54-18.04l-.53.66c7.62-3.92,15.23-7.84,22.85-11.76,1.08-.56,2.16-1.11,3.24-1.67l-1.2-.06c3.15,5.09,6.31,10.19,9.46,15.28.35.56,2.09-.04,1.66-.73Z"/>
      </g>
      <path class="cls-20" d="M410.91,135.83c-1.71-1.94-2.84-4.25-3.82-6.62-.52-1.24-1.01-2.48-1.51-3.73-.26-.65-.53-1.31-.79-1.96-.21-.52-.74-1.37-.44-1.94.42-.78-1.3-.68-1.61-.11-.61,1.13.39,2.63.82,3.68.58,1.43,1.15,2.86,1.73,4.28,1.05,2.53,2.23,5.03,4.05,7.1.44.5,2.08-.14,1.58-.71h0Z"/>
      <path class="cls-20" d="M415.6,133.7c-3.98-4.01-5.23-9.74-6.34-15.08-.09-.44-1.81-.03-1.71.46,1.13,5.41,2.42,11.17,6.45,15.23.35.35,1.94-.27,1.6-.61h0Z"/>
      <path class="cls-20" d="M421.25,129.74c-2.06-1.3-2.92-4.02-3.81-6.15-1.11-2.64-2.11-5.32-3.02-8.03-.25-.74-1.95-.27-1.71.46.96,2.89,2.04,5.74,3.23,8.54.94,2.21,1.85,4.79,3.98,6.14.6.38,2.12-.45,1.33-.95h0Z"/>
      <path class="cls-20" d="M426.91,126.78c-1.58-5.03-4-9.78-7.16-14.01-.47-.62-2.09.05-1.56.75,3.1,4.15,5.47,8.77,7.02,13.71.25.79,1.95.32,1.71-.46h0Z"/>
      <path class="cls-20" d="M432.86,124.75c-.69-5.79-4.5-10.41-8.13-14.7-.44-.51-2.07.12-1.58.71,3.58,4.23,7.32,8.74,8,14.45.08.67,1.8.27,1.71-.46h0Z"/>
    </g>
    <path class="cls-22" d="M172.43,381.72s-15.97,1.55-18.77,12.54c-2.8,10.99-10.3,36.43,12.77,63.11,14.81,17.13,132.84,34.49,132.84,34.49,0,0,7.92-27.07-4.62-43.01s-37.03-28.56-37.03-28.56l-22.25-32.44-62.93-6.12Z"/>
    <path class="cls-32" d="M388.82,342.31c.21-.12.41-.24.62-.35.79-.45,2.09-1.03,2.93-1.78.02-.03.04-.06.06-.09,1.58-7.45-.03-16.5-5.05-20.43-.03-.02-.05-.05-.08-.08l-15.82,3.98c-1.3.3-2.44,1.18-3.09,2.39-.41.84-.51,1.6.55,1.92,2.46.32,4.93.53,7.41.66h-.03s1.48,2.81,4.27,4.06c1.07.38.41,2.09,1.33,2.73,0,0,3.02,1.51,4.34,2.72.68.63,1.72,2.56,2.57,4.26Z"/>
    <path class="cls-32" d="M377.73,328.42c-2.54.76-5.19.85-7.82.91-.65.01-1.4.08-1.76.68-.31.51-.19,1.23.15,1.71s.85.78,1.36,1.02c4,1.95,8.54,1.9,12.91,1.81-2.83.66-5.69,1.17-8.57,1.43-.61.06-1.27.12-1.76.53s-.69,1.32-.22,1.77c.21.2.6.7.87.75,4.35.84,8.67.8,13.09.75-2.43.36-4.85.84-7.25,1.44-.15.04-.3.08-.4.19-.19.21-.36,1-.18,1.22s.77.55,1.02.65c1.57.62,3.04.6,4.67.98,4.51,1.07,7.68-2.17,8.17-2.06,0,0,2.45-2.44-.34-9.41"/>
    <path class="cls-9" d="M372.61,339.27c3.47.5,7,.51,10.5.39,2.48-.09,4.97-.23,7.43-.56.44-.06.8-.57.14-.48-2.38.31-4.79.45-7.19.54-3.42.13-6.89.12-10.29-.37-.28-.04-1.11.41-.59.48h0Z"/>
    <path class="cls-9" d="M368.77,332.69c2.77,1.72,6.45,1.87,9.62,1.92,1.62.03,3.24-.02,4.85-.1,1.02-.05,2.07-.16,3.09-.1.38.02,1-.53.36-.57-2.49-.13-5.02.22-7.51.2-3.18-.03-6.88-.11-9.67-1.84-.28-.17-1.15.23-.75.48h0Z"/>
    <path class="cls-9" d="M368.59,327.81c5.55,1.33,11.42.87,17.03.19.43-.05.82-.52.15-.44-5.4.65-11.07,1.11-16.42-.16-.25-.06-1.1.34-.77.42h0Z"/>
    <path class="cls-32" d="M391.6,337.76c1.34-.56,2.37-1.79,2.69-3.21s-.11-2.97-1.09-4.04c-.2-.22-.44-.45-.48-.75-.03-.23.08-.45.17-.66.34-.75.6-1.57.53-2.39s-.53-1.65-1.29-1.97c-.21-.09-.46-.15-.59-.33-.11-.15-.12-.35-.13-.53-.16-2.05-1.76-3.91-3.76-4.38-.2-.05-.43-.07-.57.08-.09.09-.11.23-.13.36-.33,2.7,0,5.47.98,8.01"/>
    <path class="cls-8" d="M247.09,285.9c-2.87,4.07-1.69,10.24,2.46,12.98.18.12.86-.21.77-.27-4.11-2.71-5.26-8.84-2.43-12.86.04-.05-.67-.04-.81.15h0Z"/>
    <path class="cls-20" d="M480.54,310.77c.54-8.72,5.2-16.67,5.04-25.49,0-.48-1.64-.17-1.63.44.16,8.73-4.5,16.62-5.04,25.26-.04.63,1.6.3,1.63-.22h0Z"/>
    <g id="freepik--Books--inject-2">
      <polygon class="cls-30" points="817.53 666.72 817.53 650.01 705.94 648.17 658.01 651.74 658.01 654.85 703.83 655.93 704.44 652.46 658.01 662 658.01 664.35 704.44 666.61 817.53 666.72"/>
    </g>
    <polygon class="cls-14" points="658.01 662 658.01 653.99 704.87 650.75 704.44 663.97 658.01 662"/>
    <path class="cls-18" d="M714.96,655.19c-.15,3.51,3.53,4.59,6.31,3.34.67-.3,1.25-.73,1.72-1.29.19-.23.63-.66.71-.93.17-.58-1.03.26-.98.11,0,.02.23.25.24.3.18.9.65,2.35,1.43,2.91,1.21.87,3,.33,4.1-.47.67-.49,1.12-1.13,1.67-1.73.26-.29.19-.1.15-.14-.19-.15.14.59.14.58.19.37.36.74.62,1.07.92,1.12,2.49,1.57,3.89,1.47.73-.05,1.43-.23,2.09-.53.84-.38,1.49-1.2,2.32-1.54.56-.23.68-.03,1.01.5.22.35.36.75.65,1.04.54.55,1.34.71,2.08.72.9,0,1.8-.26,2.62-.64.45-.21.86-.47,1.27-.75.26-.17.88-.75,1.2-.71.69.08,1.53-.05,2.05-.55.4-.38.38-.94-.27-1.01-1.05-.12-2.03-.02-3.01.4-.5.21-.96.5-1.42.79-.33.21-.87.76-1.29.8-.84.08-1.18-1.48-1.81-1.94s-1.56-.54-2.35-.44c-.96.12-1.87.5-2.67,1.03-.69.46-1.32,1.29-2.19,1.17-1.11-.15-1.6-1.14-2.07-2-.42-.77-1.01-1.16-1.89-1.22s-1.88.29-2.65.78c-.66.42-1.7,1.32-2.04,2.03.44.15.51.12.22-.07-.12-.12-.21-.27-.28-.43-.12-.23-.19-.49-.26-.73-.18-.57-.32-1.25-.75-1.72-1.11-1.21-3.27-.45-4.25.53-.59.59-.92,1.75-1.91,1.42s-1.54-1.55-1.5-2.53c.05-1.17-2.86-.59-2.9.37h0Z"/>
    <path class="cls-28" d="M385.52,906.95V84.86c0-5.18-4.54-9.37-10.14-9.37s-10.14,4.2-10.14,9.37v822.09h20.28Z"/>
  </g>
  <g id="Layer_10" data-name="Layer 10">
    <path class="cls-32" d="M243.02,637.89c-.97-.48-.3-14.37,1.15-32.42h-31.69l4.97,27.36-2.17,10.87s28.64,9.43,36.81,9.68c8.17.25,10.56,2.17,10.56,2.17,0,0-9.36-12.59-19.63-17.65Z"/>
    <path class="cls-32" d="M216.52,639.12c-.81,3.23-2.65,8.02-3.5,11.1-.98,3.55.79,7.3,5,8.91,3.54,1.35,6.35.27,10.22.17,5.06-.13,6.95-.74,12.02-.87,4.34-.11,25.17.97,29.41,1.77,6.6,1.24,11-.7,13.96-1.6.82-.25,1.32-.2,1.72-.76,1.01-1.46.93-3.1-1.22-4.39-2.71-1.64-6.05.46-8.57-1.45-.45-.34-.86-.72-1.38-.97-1.02-.49-2.26-.41-3.43-.42-5.84-.08-5.34-2.4-12.94-4.38-2.23-.58-18.49-12.38-20.55-13.32"/>
    <path class="cls-9" d="M269.67,651.22c1.8.21,3.56.83,5.15,1.69.23.16.45.26.66.56l-.28-.07c1.22-.77,2.75-.86,4.05-.48-1.42-.14-2.85.12-3.98.91,0,0-.14-.16-.14-.16-1.53-1.15-3.64-1.8-5.47-2.45h0Z"/>
    <path class="cls-21" d="M187.92,370.07c.02.06.05.11.09.15.1-.11.2-.21.3-.32-.13.06-.26.11-.39.17Z"/>
    <path class="cls-32" d="M231.36,252.71c-1.23.14-1.84.19-3.07.27-5.07.36-10.28.68-15.36.52-7.84-.24-14.66-3.72-21.61-6.9.9,4.73,1.44,10.64.21,14.24l.39,1.36c13.44,14.75,21.32,23.25,54.85,6.82l-14.53-11.84-.87-4.48Z"/>
    <path class="cls-32" d="M242.52,206.19c-.34-2.19-.74-4.73-1.25-7.79-.15-.89-.31-1.74-.48-2.58-.13-.42-.22-.86-.27-1.29-3.25-14.78-9.6-21.65-9.6-21.65-8.1-8.69-20.2-12.4-31.76-9.75-13.66,2.83-24.49,13.47-29.38,23.06-2.43,4.75-3.03,10.23-1.68,15.4,1.15,4.41,4.63,8.05,6.74,12.68-4.83.67-9.21,3.26-5.82,11.77,4.67,11.73,13.23,14.05,16.3,10.02.88,0,3.63,5.07,4.3,7.57.05.19,2.49,13.59,2.54,13.8,7.14,3.2,20.12,1.95,28.09,2.33,5,.24,5.29-.54,10.28-.9,1.21-.09.5-1.55,1.71-1.69l-.96-7.68c.34-.09.65-.12,2.1-.9,10.51-4.91,12.74-20.4,12.33-26.06-.35-4.8-2.05-13.63-3.19-16.36Z"/>
    <path class="cls-5" d="M231.28,249.51s-12.87,3.48-26.06-2.08c0,0,2.15,3.66,11.07,5.07,8.92,1.4,15.39-.87,15.39-.87l-.4-2.12Z"/>
    <ellipse class="cls-18" cx="236.11" cy="203.44" rx="2.97" ry="2.96" transform="translate(19.95 427.97) rotate(-86.84)"/>
    <path class="cls-11" d="M239.1,200.36c-1.56-.62-3.58-.85-6.36-.08-4.45,1.23-5.45,7.28-5.45,7.28,0,0,1.61-4.77,5.97-6.1,2.1-.64,5.86-.03,7.66.5-.12-.42-.87-1.18-1.81-1.6Z"/>
    <path class="cls-18" d="M174.07,226.73c-.76-1.35-1.46-3.32-.81-4.87l-.33.22c-.08.02-.03.02-.08.01.16.03.09-.01.25.01.43.07.83.25,1.21.45,2.08,1.09,3.77,2.98,5.27,4.73l.65-.31c-.54-.26-1.19-.39-1.77-.24-.8.21-1.03.9-.95,1.66s.45,1.4,1.03,1.83c.84.63,1.92.72,2.94.63.35-.03.63-.41.11-.37-1.42.12-2.92-.45-3.28-1.96-.08-.35-.2-1.26.21-1.46.29-.14.84.1,1.11.23.14.07.83-.09.65-.31-1.13-1.31-2.33-2.59-3.68-3.66-.7-.55-1.46-1.09-2.3-1.4-.36-.14-.76-.24-1.15-.22-.1,0-.21.02-.3.04-.33.09-.37.3-.44.6-.36,1.57.15,3.22.92,4.58.13.23.84-.03.74-.2h0Z"/>
    <ellipse class="cls-16" cx="205.83" cy="209.36" rx="2.97" ry="2.96" transform="translate(-14.57 403.33) rotate(-86.84)"/>
    <path class="cls-11" d="M214.37,209.78s-5.48-5.11-10.39-3.79c-6.9,1.86-7.58,4.99-8.52,7.48,0,0,3.52-5.02,8.89-6.33,4.87-1.18,10.02,2.63,10.02,2.63Z"/>
    <path class="cls-15" d="M226.17,229.17c-4.2.77-11.09,1.53-11.09,1.53,0,0,1.27,10.11,12.88,7.8,9.71-1.93,8.17-11.43,8.17-11.43,0,0-5.76,1.33-9.96,2.09Z"/>
    <path class="cls-12" d="M226.22,229.16c-2,.36-9.45,1.64-9.45,1.64,0,0,2.67,4.83,9.89,3.51,7.83-1.43,8.17-6.28,8.17-6.28l-8.62,1.13Z"/>
    <path class="cls-34" d="M226.47,230.07c-2,.36-8.13,1.15-8.13,1.15,0,0,2.69,1.21,8.68.11,5.99-1.09,7.4-2.99,7.4-2.99l-7.95,1.72Z"/>
    <path class="cls-15" d="M236.09,227.02c-.04-.22-.49-.23-1.5-.13-1.68.16-2.32-.33-3.54-.2-2.07.22-3.23,1.24-4.12,1.4s-2.33-.38-4.35.15c-1.18.31-4.07,1.27-5.7,1.71-.98.26-2.21.1-2.41.19-.28.12.9,2.72,12.08.67,11.17-2.04,9.58-3.5,9.53-3.79Z"/>
    <path class="cls-19" d="M211.69,198.17c0-.11-.36-.07-.37-.18-5.71-.61-9.93-.15-11.44.35-1.14.38-2.21,1.01-3.2,1.81,0,0-2.74,2.14-3.02,2.88-.27.74,1.76-.59,1.76-.59.45-.21.74-.43,1.21-.57,2.56-.79,4.96-1.94,7.64-1.93,2.29-.01,5.52.95,7.8,1.54-.08-1.14-.39-2.16-.39-3.29Z"/>
    <path class="cls-19" d="M224.55,196.67c-.03-.1.27-.18.24-.28,4.46-2.37,8.06-3.26,9.46-3.25,1.06,0,2.14.26,3.21.7,0,0,2.94,1.15,3.41,1.77.46.61-1.63,0-1.63,0-.43-.06-.75-.17-1.17-.16-2.35.05-4.69-.27-6.87.57-1.88.71-4.2,2.62-5.87,3.89-.31-1.1-.38-2.16-.76-3.23Z"/>
    <g>
      <path class="cls-11" d="M182.74,224.38c-.04-.07-.29-.32-.33-.39-.99-1.6-3.13-4.48-4.79-5.46-.76-.45-1.65-.93-2.55-1.14-.89-.21-1.86-.47-2.79-.41-1.33-.07-2.59.2-3.78.81-.19.13-.39.27-.58.4-5.32-9.91-10.64-19.83-5.45-34.27,1.5-4.16,6.55-9.42,8.09-11.09,9.31-10.03,18.92-12.5,31.1-13.65,14.12-1.34,26.83,3.73,32.75,17.1,1.43,3.22.82,1.57,1.74,4.47,0,0-2.06-6.52-9.52-9.2-7.46-2.68-7.51,3.42-16.93,5.47-10.91,2.34-15.68-2.91-23.57,3.39-7.2,5.76-8.21,13.23-8.21,13.23-.29,5.01-1.85,8.62.55,13.83.58,1.24,1.1,2.5,1.59,3.78.54,2.39,2.44,3.43,2.47,5.91.02,1.22,2.06,5.77,1.18,6.67-.95.97.28.73-.97.55Z"/>
      <path class="cls-18" d="M183.46,224.03c-1.8-2.3-3.24-4.91-5.92-6.34-3.1-1.65-7.18-1.91-10.14.13h1.24c-4.17-7.75-8.1-15.77-7.4-24.83.38-4.86,1.72-9.63,4.6-13.6,2.18-3.01,4.75-5.87,7.44-8.44,6.38-6.09,14.27-9.29,22.91-10.57,8.1-1.2,16.45-1.41,24.04,2.14,7.63,3.57,12.68,10.53,15.14,18.43l1.56-.42c-1.68-5.23-7.43-9.84-12.89-10.21-2.97-.2-5.12,1.48-7.43,3.07-3.82,2.62-8.22,3.68-12.82,3.7-3.62.02-7.27-.86-10.88-.35-4.1.58-7.56,3.11-10.27,6.13-2.34,2.61-4.13,5.75-5.1,9.13-.16.56-.32,1.13-.39,1.7-.31,2.37-.66,4.82-.75,7.21-.11,2.93.73,5.36,1.88,8.01.57,1.32.95,2.75,1.59,4.02.51,1.03,1.3,1.92,1.67,3.01.28.83.25,1.74.49,2.59.26.94.58,1.87.83,2.82.16.62.51,1.59.23,2.22-.18.41-.91.95-.31,1.4l1.21-.9c-.26-.19-.64-.23-.94-.28-.77-.13-1.59.95-.54,1.14.31.09.4.11.28.04.56.4,1.93-.37,1.21-.9.37.28.07.31.41-.03.06-.06.13-.17.17-.24.11-.22.16-.44.18-.68.07-.67-.13-1.4-.29-2.04-.35-1.39-.95-2.75-1.11-4.19-.23-2.05-1.56-3.29-2.26-5.15-.87-2.33-2.11-4.63-2.72-7.04-.56-2.22-.41-4.47-.12-6.72.2-1.54.28-3.11.52-4.63.38-2.41,1.52-4.81,2.79-6.86,2.18-3.51,5.6-7.03,9.65-8.25,3.22-.97,6.62-.26,9.91-.07,4.12.24,8.36-.14,12.22-1.69,1.53-.61,2.95-1.45,4.31-2.38,1.1-.75,2.15-1.62,3.37-2.18,3.56-1.62,8.16,1.12,10.68,3.54,1.55,1.48,3,3.42,3.67,5.49.23.71,1.79.29,1.56-.42-2.24-7.17-6.55-13.7-13.08-17.62-7.38-4.43-16.02-5.03-24.4-4.08-8.81,1-17.31,3.35-24.37,8.94-3.17,2.51-5.97,5.51-8.56,8.62-1.41,1.69-2.76,3.46-3.84,5.39-1.22,2.19-1.9,4.7-2.42,7.14-1.12,5.26-.85,10.66.69,15.8,1.45,4.86,3.86,9.36,6.25,13.81.22.41.96.2,1.24.01,2.7-1.86,6.84-1.03,9.28.94,1.79,1.44,2.91,3.47,4.31,5.25.44.56,1.93-.06,1.43-.69Z"/>
    </g>
    <g>
      <path class="cls-1" d="M227.16,223.44c-.87.73-2.39.93-3.5.53-.25-.09-.95.2-.6.33,1.48.52,3.63.13,4.75-.81.11-.09.07-.19-.1-.2-.17-.02-.43.05-.55.15"/>
      <path class="cls-1" d="M222.57,224.12c-.72-.17-1.5-.17-2.25-.07-.11.02-.24.09-.3.17-.05.07-.05.15.04.17.38.12.83.11,1.23.01.12-.03.28-.1.33-.22.04-.11-.09-.15-.19-.13-.33.08-.68.09-.99-.01-.09.12-.17.23-.26.35.67-.09,1.36-.08,2.01.07.13.03.29-.04.38-.13.07-.06.13-.19,0-.22"/>
      <path class="cls-1" d="M219.67,224.84c-.87.17-1.96.01-2.52-.55-.85-.84-.61-2.62.33-3.48.1-.09.02-.17-.1-.17-.16,0-.33.1-.44.2-.82.75-1.13,2.25-.79,3.14.32.83,1.27,1.25,2.35,1.28.32,0,.66-.01.98-.08.13-.03.36-.12.4-.23.04-.12-.09-.14-.21-.11"/>
      <path class="cls-1" d="M228.64,222.66c-.07-.09,0-.17.07-.19.23-.04.46-.16.62-.37.1.08.19.15.29.23-.45.15-.89.41-1.24.78-.07.07-.2.06-.29.02-.07-.03-.15-.13-.08-.2"/>
      <path class="cls-1" d="M228.02,222.93c.4-.41.89-.69,1.39-.86.07-.02.18,0,.25.05.06.05.08.12.03.18"/>
      <path class="cls-1" d="M230.46,222.39c.56-.14,1.13-.66,1.27-1.37.2-1.07-.43-2.15-1.27-2.63-.09-.05-.07-.15,0-.19.09-.06.22-.02.32.03.73.41,1.31,1.22,1.42,2.16.1.88-.31,1.6-.92,1.99-.18.12-.38.21-.59.27-.08.02-.25.02-.31-.08-.06-.09,0-.16.08-.18"/>
    </g>
    <path class="cls-22" d="M232.96,632.83c7.83-.6,12.18,1.32,17.86-3.62l15.14-98.68-.68-138.27-45.27,12.45-24.3,64.4,25.23,55.42-4.44,16.98c-3.33,10.35-5.26,21.1-5.73,31.96l-1.25,55.64c8.69.08,14.74,4.4,23.44,3.73Z"/>
    <path class="cls-10" d="M191.92,345.25s-25.01,12.63-29.75,9.63c0,0-21.47-71.31,3.79-86.75,12.54-7.67,16.14-11.74,25.51-14.48,0,0,10.15,17.84,29.25,15.92,19.1-1.92,11.99-14.18,11.99-14.18,4.91.21,14.23,7.91,21.58,11.82,22.62,12.04,17.87,23.43,33.5,41.61-5.25,12.89-24.57,18.73-24.57,18.73,0,0-1.23,26.33-.87,38.3.36,10.87,1,7.36,3.58,30.61-10.66,4.65-6.52,2.6-17.48,3.52-9.58.8-28.4,2.66-38.02,2.83-10.67.19-25.82-2.26-36.35-4.15-7.25-1.31-8.95-7.36-15.91-9.74"/>
    <path class="cls-21" d="M133.01,316.46c.03.07.07.13.12.18.12-.13.24-.26.36-.39-.16.07-.32.14-.48.21Z"/>
    <path class="cls-8" d="M262.56,301.5c-.36,5-.23,10.05-.19,15.06.02,3.62.07,7.24.13,10.86,0,.3.69.21.82.17,3.25-.94,6.41-2.33,9.41-3.86,4.52-2.31,9.45-5.2,12.47-9.38,1.09-1.5,2.18-3.01,3.26-4.51.07-.1.07-.21,0-.3-1.44-1.85-2.88-3.69-4.32-5.54-.3-.38-1.11,0-1.35.27-5.29,6.08-11.15,12.05-19.15,14.28-.86.24-.68.97.2.73,4.53-1.26,8.81-3.65,12.31-6.77,2.85-2.54,5.5-5.33,8-8.21l-1.35.27c1.24,1.59,2.49,3.19,3.73,4.78.18.23.41.47.57.72.04.07.11-.38-.03-.19-.1.13-.19.26-.28.39-.7.97-1.41,1.95-2.11,2.92-.55.77-1.07,1.61-1.68,2.33-1.27,1.47-3.01,2.71-4.58,3.83-3.09,2.2-6.46,4.01-9.94,5.52-1.74.75-3.51,1.46-5.33,1.99l.82.17c-.07-3.52-.11-7.05-.13-10.57-.03-5.03-.17-10.11.19-15.14.04-.59-1.41-.31-1.45.18h0Z"/>
    <path class="cls-32" d="M293.58,251.1s-.15-4.4-.15-4.4l1.12-8.83s3.83-13.22,4.68-15.65c.85-2.43,7.27-12.54,7.27-12.54,0,0,1.86-8,2.53-8.32s2.93-.92,3.52,2.1c.6,2.97.91,6,.94,9.06l19.41-8.64c1.22-.57,2.6-.56,3.76.03.77.43,1.26.99.57,1.92-1.83,1.8-3.72,3.53-5.67,5.19l.02-.02s.28,3.23-1.33,6c-.67.98.77,1.97.35,3.08,0,0-1.66,3.13-2.09,4.95-.43,1.82.59,8.41.59,8.41,0,0-12.61,9.77-16.2,11.28-2.55,1.07-4.67,3.24-5.81,4.51-3.03,4.18-6.67,6.75-11,12.24-.19-.09-.71,2.4-.9,2.31-1.57-.75-3.1-1.57-4.53-2.62-1.75-1.29-3.28-2.87-4.6-4.67-1.28-1.75.7,2.1,0,0"/>
    <path class="cls-9" d="M309.89,214.3c-1.78.97-3.45,2.14-4.98,3.51,1.88-.72,3.67-1.67,5.33-2.85,1.78-.93,3.5-1.98,5.14-3.16-1.95.5-3.81,1.34-5.49,2.5Z"/>
    <path class="cls-32" d="M330.53,211.97c2.48-.95,4.69-2.52,6.86-4.11.53-.39,1.18-.8,1.8-.53.53.23.82.91.8,1.53-.02.62-.27,1.18-.55,1.7-2.2,4.13-5.93,6.9-9.54,9.55,2.66-1.21,5.27-2.57,7.76-4.14.53-.34,1.09-.69,1.72-.65s1.27.68,1.14,1.34c-.06.3-.11.96-.3,1.18-3.09,3.41-6.63,6.07-10.26,8.78,2.18-1.21,4.41-2.32,6.68-3.31.14-.06.28-.12.43-.09.27.06.83.61.81.9s-.33.94-.48,1.18c-.95,1.5-2.16,2.4-3.28,3.73-3.1,3.7-7.33,5.97-11.46,8.17-1.16.62-2.34,1.24-3.62,1.47"/>
    <path class="cls-9" d="M339.77,217.87c-2.48,2.51-5.3,4.68-8.18,6.73-2.03,1.45-4.11,2.86-6.27,4.11-.39.22.56.1.73,0,2.15-1.24,4.21-2.64,6.23-4.08,2.93-2.08,5.82-4.29,8.35-6.85.17-.18-.7-.07-.86.09h0Z"/>
    <path class="cls-9" d="M339.26,209.96c-1.31,3.15-4.28,5.56-6.9,7.59-1.27.98-2.57,1.91-3.89,2.83-.81.56-1.65,1.09-2.4,1.73-.18.15-.06.32.11.4.21.1.52-.05.68-.18.77-.66,1.67-1.2,2.5-1.78,1.36-.95,2.72-1.92,4.02-2.95,2.59-2.04,5.48-4.44,6.78-7.57.19-.47-.76-.4-.9-.06h0Z"/>
    <path class="cls-9" d="M336.79,205.86c-3.66,4.4-8.59,7.62-13.46,10.51-.19.12-.08.17.06.21.18.06.52-.09.68-.18,4.92-2.92,9.91-6.17,13.6-10.61.19-.23-.72-.11-.87.07h0Z"/>
    <path class="cls-32" d="M283.72,577.59c-.99-1.59-.2-42.5.88-75.11-12.92.67-25.84,1.39-38.76,2.19.12,8.61.48,18.91,1.02,22.54,1.16,7.73,7.39,26.51,7.87,29.23l5.43,24.02-.07,8.84s35.2,15.76,43,15.27c7.8-.49,4.86-4.46,4.86-4.46,0,0-21.99-18.92-24.24-22.51Z"/>
    <path class="cls-32" d="M260.56,578.66c.34,3.36-.72,8.15-1.37,15.23-.28,3.12-2.71,7.62.6,9.82,5.87,3.89,12.72,2.15,15.35,2.72,5.53,1.2,9.93,1.1,15.26,2.74,5.39,1.66,6.51,2.07,12.4,2.33.82.04,1.68,0,2.38-.39.47-.26.83-.64,1.3-.9,1.66-.89,3.79.21,5.7-.07.84-.13,1.6-.52,2.38-.83,2.06-.83,4.32-1.13,6.51-1.63,2.19-.5,4.41-1.27,5.9-2.79,1.5-1.52,2.03-3.96.69-5.58-2.03-2.45-4.57-.95-7.27-1.13-2.69-.19-3.71-.59-6.11-1.63-6.12-2.66-7.06-3.2-12.21-5.27-4-1.61-15.76-6.78-21.43-10.5l-.21-13.34"/>
    <g>
      <path class="cls-9" d="M306.52,610.9c.82-.25,1.42-.81,1.65-1.64.17-.61.11-1.27-.18-1.83-.61-1.2-1.9-1.88-3.09-2.39-.7-.3-1.42-.56-2.12-.85-.36-.14-.92.05-1.17.31-.28.29-.15.55.18.69,1.29.52,2.7.94,3.79,1.83.5.41.9.93.99,1.58.04.31,0,.67-.12.96,0,0-.05.1-.06.12-.01.02-.14.22-.08.15-.03.03-.06.07-.09.1-.06.06-.06.06,0,0-.08.05-.07.05.01,0-.09.04-.08.04.02,0-.28.08-.8.33-.7.71s.69.35.96.26h0Z"/>
      <path class="cls-9" d="M312.2,610.88c.89-.03,1.73-.54,2.06-1.38.29-.73.28-1.55.16-2.32-.14-.82-.46-1.5-1.08-2.07-.84-.77-1.89-1.21-2.96-1.55-1.31-.42-2.5-1.16-3.92-1.1-.33.01-.88.24-.93.62-.06.41.46.46.74.45.38-.02.84.16,1.22.3.47.17.93.38,1.4.57.87.34,1.76.57,2.54,1.11.35.25.66.55.91.9.13.17.2.36.29.65.17.58.24,1.19.17,1.79-.04.33-.1.58-.25.85-.05.09.02-.03-.06.08-.02.02-.04.04-.06.06.05-.05.08-.04,0-.01-.13.06,0,0,.03-.02-.1.04-.01,0,.04-.01-.07.02-.06-.01-.02,0,.06.03-.02,0-.1,0-.33.01-.88.24-.93.62-.06.41.46.46.74.45h0Z"/>
      <path class="cls-9" d="M316.77,609.09c.89-.34,1.54-.94,1.8-1.87.22-.78.17-1.6-.21-2.32-.75-1.46-2.36-2.33-3.82-2.92-.95-.38-1.97-.74-2.98-.93-.38-.07-.82.06-1.16.22-.13.06-.58.35-.21.41,1.02.19,2.06.55,3.01.95.89.37,1.75.84,2.48,1.47.66.58,1.19,1.32,1.32,2.2.07.49.01.99-.16,1.45-.11.3-.38.87-.65.98-.14.05-.68.24-.5.46.16.2.9-.04,1.07-.1h0Z"/>
      <path class="cls-9" d="M321.18,608.18c1.02-.48,1.86-1.33,2.25-2.39.33-.87.4-1.96-.11-2.78-.48-.77-1.26-1.3-2.05-1.72-.88-.47-1.81-.83-2.75-1.14-.46-.15-.93-.29-1.39-.44-.62-.21-1.23-.46-1.9-.41-.34.02-.89.12-1.11.41s.19.35.41.33c.52-.04,1.15.33,1.65.48s.95.3,1.42.46c1.04.37,2.09.8,3,1.44.86.61,1.43,1.35,1.42,2.44-.01,1.21-.71,2.5-1.82,3.02-.21.1-.51.35-.19.49s.87-.06,1.16-.2h0Z"/>
    </g>
    <path class="cls-22" d="M243.64,463.06l3.27,114.2c8.69.06,17.75,4.38,26.45,3.69,7.83-.63,12.19,1.29,17.85-3.69l8.13-86.64-55.69-27.56Z"/>
    <g>
      <path class="cls-10" d="M181.43,257.69s4.48-5.35,8.87-7.75c0,0,16.99,20.12,31.89,19.65,0,0-11.03,5.45-11.75,12.89,0,0-29.9-13.42-28.99-24.16"/>
      <path class="cls-8" d="M182.02,257.84c2.46-2.93,5.39-5.76,8.74-7.65l-1.13.05c2.09,2.47,4.43,4.76,6.81,6.94,4.62,4.22,9.75,8.15,15.52,10.66,3.14,1.36,6.51,2.28,9.96,2.2l-.02-.78c-5.12,2.54-11.48,7.2-12.18,13.31l1.3-.45c-3.37-1.51-6.65-3.25-9.87-5.07-5.53-3.14-11.27-6.65-15.55-11.43-1.79-2-3.62-4.55-3.42-7.37.04-.63-1.42-.37-1.45.16-.38,5.43,5.34,9.92,9.16,12.83,5.02,3.81,10.56,6.96,16.19,9.79,1.26.63,2.52,1.25,3.8,1.83.34.15,1.24.04,1.3-.45.65-5.69,6.52-10.09,11.32-12.48.4-.2.65-.79-.02-.78-6.28.15-12.2-3.03-17.21-6.53-4.39-3.06-8.4-6.67-12.08-10.54-.75-.79-1.5-1.59-2.21-2.43-.26-.31-.85-.11-1.13.05-3.44,1.94-6.46,4.84-9,7.85-.56.67.83.7,1.18.29h0Z"/>
    </g>
    <g>
      <path class="cls-10" d="M231.97,253.96s2.52,11.29-7.81,15.22c0,0,8.51,3.27,11.67,9.62,0,0,6.96-4.99,7.43-20.07,0,0-4.46-3.16-8.4-4.44-3.94-1.28-2.88-.33-2.88-.33Z"/>
      <path class="cls-8" d="M231.24,254.16c.4,1.83.34,3.84.02,5.68-.75,4.23-3.45,7.35-7.43,8.92-.43.17-.59.74-.09.93,4.55,1.76,9.17,5.05,11.42,9.45.2.39.9.2,1.15.02,2.68-1.94,4.42-5.47,5.52-8.46.62-1.69,1.09-3.45,1.43-5.22.19-.99.34-1.99.45-2.99.06-.54.11-1.08.15-1.63.05-.61.3-1.59.12-2.17-.25-.77-1.58-1.31-2.23-1.71-1.73-1.06-3.54-2.06-5.44-2.8-1.16-.46-3.23-1.47-4.55-1.03-.64.21-.86.77-.36,1.24s1.73-.27,1.11-.85c.13.12.08.02.04.03.21-.02-.59.6-.59.6.06.11,1.43.3,1.61.35,1.87.55,3.63,1.35,5.34,2.3,1.13.63,2.24,1.31,3.32,2.03.49.33.32.16.25.61-.15,1.03-.13,2.1-.24,3.13-.57,4.98-2.01,10.21-5.22,14.17-.5.62-1.04,1.25-1.68,1.72l1.15.02c-2.35-4.57-7.2-7.96-11.92-9.79l-.09.93c4.15-1.63,7.14-4.88,8.12-9.25.47-2.11.56-4.47.09-6.6-.15-.68-1.6-.3-1.45.39Z"/>
    </g>
    <path class="cls-8" d="M222.4,269.87l1.96-.29-.33-.15c.96,6.19,1.92,12.38,2.87,18.57.14.9.28,1.8.42,2.69l.4-.34-6.14.92c-.38.06-.57.57-.07.5l6.14-.92c.17-.03.43-.13.4-.34-.96-6.19-1.92-12.38-2.87-18.57-.14-.9-.28-1.8-.42-2.69-.02-.13-.23-.17-.33-.15l-1.96.29c-.38.06-.57.57-.07.5h0Z"/>
    <ellipse class="cls-8" cx="221.55" cy="277.81" rx="1.89" ry="1.43" transform="translate(-7.44 6.1) rotate(-1.55)"/>
    <ellipse class="cls-8" cx="222.79" cy="285.16" rx="1.89" ry="1.43" transform="translate(-7.64 6.14) rotate(-1.55)"/>
  </g>
  <g id="Layer_6" data-name="Layer 6">
    <path class="cls-25" d="M194.96,471.77c8.7,2.26,17.37,4.64,26.01,7.14,6.14,1.78,12.28,3.6,18.33,5.67,2.25.77,4.51,1.57,6.69,2.52.93.4,2.48.89,3.08,1.79-.02-.03.09.38.12.6.06.44.07.89.09,1.34.07,1.57.07,3.15.07,4.72,0,5.07-.13,10.14-.26,15.2-.34,13.25-.82,26.51-1.33,39.75-.21,5.41-.42,10.82-.64,16.22-.11,2.75-.47,5.62-.35,8.38,0,.13-.01.26-.02.39.05.13.15.21.28.24,4,1.63,8.12,3.06,12.31,4.11.68.17,1.48,0,2.09-.34.27-.15,1.02-.77.32-.94-2.8-.7-5.55-1.59-8.27-2.57-1.3-.47-2.82-.85-4.03-1.53.46.26.21.24.29-.19s.04-.89.06-1.32c.17-3.96.33-7.92.49-11.89.54-13.51,1.05-27.02,1.47-40.54.2-6.41.38-12.81.49-19.22.07-3.88.2-7.8-.02-11.68-.04-.77-.02-1.49-.6-2.05-1.05-1-2.72-1.56-4.03-2.1-5.54-2.28-11.33-4-17.05-5.73-10.79-3.25-21.66-6.24-32.56-9.09-.21-.05-.41-.11-.62-.16-.67-.18-1.48,0-2.09.34-.27.15-1.01.76-.32.94h0Z"/>
    <path class="cls-25" d="M264.36,421.03c-4.77-1.66-9.65-3.66-13.89-6.42-1.22-.79-2.46-1.7-3.28-2.92-.56-.83-3.37.14-2.69,1.15,1.64,2.42,4.73,3.95,7.25,5.24,2.74,1.4,5.57,2.6,8.44,3.69.62.24,1.25.47,1.87.69.67.23,1.45.13,2.05-.26.33-.21.93-.93.24-1.17h0Z"/>
    <path class="cls-25" d="M250.05,488.62c5.45.53,10.99-.98,15.4-4.22.48-.35.31-.8-.24-.89-.69-.11-1.5.14-2.05.55-3.25,2.39-7.28,3.52-11.3,3.13-.69-.07-1.5.1-2.05.55-.43.35-.38.83.24.89h0Z"/>
  </g>
  <g id="Layer_9" data-name="Layer 9">
    <path class="cls-10" d="M214.6,281.22c-15.78-.53-31.76.27-47.4.34-1.9,7.35-3.86,16.61-4.2,24.51-1.09,25.3-3.04,51.35-7.03,60.03-5.69,12.39-9.81,29.15-1.98,30.51,7.83,1.36,62.79,11.63,68.23,2.25,10.12-17.46-1.5-34.37-2.21-57.09-.54-17.46-3.89-47.56-5.41-60.55Z"/>
    <path class="cls-32" d="M178.74,277.24l70.36,8.51,7.85-4.6c.25.78-2.2,1.37-1.94,2.15,2.82,8.31,6.35,16.45,10.95,24.14.26.43.53.85.79,1.27-2.7.58-5.74,10.34-8.31,10.86-10.53,2.12-61.52.31-88.65.17,2.16-13.28-1.01-32.43,8.95-42.49Z"/>
    <path class="cls-10" d="M213.3,273.05l-44.37-4.7c-9.96,10.06-6.56,39.89-8.72,53.18,10.73.05,32.32.74,46.53.97-1.96-14.82-.94-37.17,6.56-49.45Z"/>
    <path class="cls-32" d="M246.24,286.7l60.66-59.11c1.58-1.55,4.08-1.65,5.78-.23l6.16,5.15c1.59,1.33-4.38,8.46-5.38,10.27-24.23,43.78-35.06,58.74-46.43,70.01-13.64,15.5-22.68,3.45-20.79-26.09Z"/>
  </g>
  <g id="Layer_11" data-name="Layer 11">
    <path class="cls-8" d="M158.93,313.58c3.2,5.19,8.89,7.95,14.71,9.11,7.36,1.47,14.88.36,22.31.49,2.09.03,4.14.33,6.22.43,1.3.07,2.73-.07,3.83-.83.98-.68,1.55-1.72,1.29-2.91-.06-.26-.12-.36-.15-.61-.3-2.45-.12-5.07-.12-7.53,0-9.12.19-18.54,2.26-27.47.42-1.82.94-3.65,1.73-5.35.43-.94,1.33-1.84.58-2.83s-2.32-1.57-3.48-2c-2.12-.78-4.33-1.32-6.54-1.8-4.96-1.09-10-1.86-15.04-2.51s-10.98-1.29-15.75,1.39c-1.14.64-2.14,1.47-2.98,2.48-.33.4,1.07.24,1.33-.06,3.89-4.64,10.58-3.9,15.96-3.22,4.68.59,9.35,1.29,13.97,2.24,2.12.44,4.24.92,6.31,1.56,1.44.44,3.02.92,4.24,1.84.93.7.95,1.26.42,2.22-.76,1.38-1.28,2.89-1.71,4.41-2.28,8.05-2.55,16.77-2.7,25.08-.06,3.22-.06,6.44.01,9.65.02.75-.03,1.55.06,2.3.01.09,0,.2.01.29.16.88.34,1.44-.3,2.22-.92,1.11-2.61.74-3.87.61-8.14-.85-16.35.69-24.47-.35-6.45-.83-13.15-3.5-16.69-9.25-.25-.4-1.61.13-1.45.39h0Z"/>
    <path class="cls-8" d="M197.55,322.41c-2.87-16.14-1.28-34.37,7.98-48.3.08-.11-1.19-.08-1.43.27-9.28,13.95-10.88,32.26-8.01,48.42.05.26,1.51-.06,1.45-.39h0Z"/>
    <path class="cls-9" d="M247.08,285.16c-1.04,5.88-2.04,12.36,1.05,17.82.19.34,1.11,0,.88-.41-3.02-5.34-1.98-11.76-.96-17.51.08-.44-.9-.3-.97.09h0Z"/>
  </g>
</svg>