<?xml version="1.0" encoding="UTF-8"?>
<svg xmlns="http://www.w3.org/2000/svg" xmlns:xlink="http://www.w3.org/1999/xlink" viewBox="0 0 1334 1000">
  <defs>
    <style>
      .cls-1 {
        fill: #84764e;
      }

      .cls-1, .cls-2, .cls-3, .cls-4, .cls-5, .cls-6, .cls-7, .cls-8, .cls-9, .cls-10, .cls-11, .cls-12, .cls-13, .cls-14, .cls-15, .cls-16, .cls-17, .cls-18, .cls-19, .cls-20, .cls-21, .cls-22, .cls-23, .cls-24, .cls-25, .cls-26, .cls-27, .cls-28, .cls-29, .cls-30, .cls-31, .cls-32, .cls-33, .cls-34, .cls-35, .cls-36, .cls-37 {
        stroke-width: 0px;
      }

      .cls-2 {
        fill: #2c458e;
      }

      .cls-3 {
        fill: #87654d;
      }

      .cls-4 {
        fill: #0e0a09;
      }

      .cls-5 {
        fill: #bdb290;
      }

      .cls-6 {
        fill: #2d383d;
      }

      .cls-7 {
        fill: #77543f;
      }

      .cls-8 {
        fill: #df306c;
      }

      .cls-9 {
        fill: #4f2e25;
      }

      .cls-10 {
        fill: url(#linear-gradient);
        mix-blend-mode: multiply;
      }

      .cls-10, .cls-11 {
        opacity: .8;
      }

      .cls-11 {
        fill: #202956;
      }

      .cls-12 {
        fill: #8e8e8e;
      }

      .cls-13 {
        fill: #804840;
      }

      .cls-14 {
        fill: #231f20;
      }

      .cls-15 {
        fill: #aa1e59;
      }

      .cls-16 {
        fill: #80483f;
      }

      .cls-17 {
        fill: #13110f;
      }

      .cls-18 {
        fill: #2a1d13;
      }

      .cls-19 {
        fill: #513835;
      }

      .cls-20 {
        fill: #110c0c;
      }

      .cls-21 {
        fill: #a5765e;
      }

      .cls-22 {
        fill: #dcd3b0;
      }

      .cls-23 {
        fill: #8d372d;
      }

      .cls-24 {
        fill: #e8b48f;
      }

      .cls-25 {
        fill: #45616e;
      }

      .cls-26 {
        fill: #d78b28;
      }

      .cls-27 {
        fill: #d29e7d;
      }

      .cls-28 {
        fill: #343535;
      }

      .cls-29 {
        fill: #050606;
      }

      .cls-38 {
        isolation: isolate;
      }

      .cls-30 {
        fill: #e2ded0;
      }

      .cls-31 {
        fill: #84754d;
      }

      .cls-32 {
        fill: #fff;
      }

      .cls-33 {
        fill: #a38166;
      }

      .cls-34 {
        fill: #2e8942;
      }

      .cls-35 {
        fill: #853d34;
      }

      .cls-36 {
        fill: #f1eef7;
      }

      .cls-37 {
        fill: #707071;
      }
    </style>
    <linearGradient id="linear-gradient" x1="1159.3" y1="-129.41" x2="1166.31" y2="775.83" gradientUnits="userSpaceOnUse">
      <stop offset="0" stop-color="#262262" stop-opacity="0"/>
      <stop offset="1" stop-color="#000"/>
    </linearGradient>
  </defs>
  <g class="cls-38">
    <g id="Layer_9" data-name="Layer 9">
      <polyline class="cls-30" points="1354.27 1042.69 1354.27 -46.45 -9.92 -46.45 -9.92 1042.69"/>
      <rect class="cls-11" x="712.22" y="34.3" width="821.54" height="719.49"/>
      <rect class="cls-10" x="752.53" y="13.29" width="821.54" height="745.55"/>
      <path class="cls-12" d="M699.21,13.29v746.95s843.8,0,843.8,0V13.29s-843.8,0-843.8,0ZM733.33,46.41h772.3v679.91h-772.3V46.41Z"/>
      <rect class="cls-37" x="678.99" y="758.66" width="862.06" height="43.19"/>
    </g>
    <g id="Layer_10" data-name="Layer 10">
      <path class="cls-24" d="M941.7,856.35c24.36-25.61,50.26-72.32,61.56-102.29l-5.72-80.22c-36.53-19.41-45.23,35.61-45.23,35.61-3.27,13.33-40.91,81.39-52.79,103.3,18.83,8.93,31.08,25.95,42.18,43.6Z"/>
      <path class="cls-24" d="M969.83,811s-17.7,35.14-28.13,45.35c-10.43,10.21-30.04,8.43-39.67,6.6-26.7-5.07-12.66-39.95-12.66-39.95l28.86-39.6,51.61,27.6Z"/>
      <rect class="cls-7" x="609.77" y="7.1" width="1012.98" height="39.87" rx="19.93" ry="19.93"/>
      <path class="cls-25" d="M657.21-7.91c6.68-.76,13.69-2.14,20.24-.15,6.27,1.91,12.02,4.47,18.6,5.05,6.72.59,13.17-1.45,19.5-3.61,6.43-2.19,10.53-2.49,17.02-.67,6.88,1.93,13.65,3.8,20.76,4.54,11.45,1.19,22.2-2.96,33.27-4.74v1042.42c-3.03,2.88-6.4,4.96-10.2,5.04-4.27.09-8.37-2.24-12.16-4.71-8.87-5.78-17.34-12.21-27.35-13.25-13.24-1.38-23.16,9.14-34.89,15.2-6.48,3.34-12.64,3.42-19.19.43-6.67-3.04-12.82-7.51-19.86-8.98-5.7-1.19-21.79-.7-27.01,1.09V-6.21c7.13-.04,14.19-.9,21.28-1.71Z"/>
      <path class="cls-6" d="M735.98,998.07c-4.39-88.66-6.57-177.42-6.53-266.18.04-88.62,2.89-177.19,5.38-265.76,1.4-49.74,2.8-99.48,4.2-149.22,0-.29-2.16-.02-2.17.58-2.49,88.58-5.13,177.16-7.45,265.75-2.32,88.68-2.81,177.39-.9,266.08,1.07,49.8,2.84,99.59,5.31,149.34.02.34,2.2,0,2.17-.58h0Z"/>
      <path class="cls-6" d="M691,794.74c-.85-23.33-1.18-46.66-1.76-70-.58-23.34-1.41-46.68-3.28-69.95-1.04-12.95-2.41-25.87-4.24-38.73-.11-.74-2.29-.24-2.17.58,3.26,22.91,5.05,46,6.16,69.1,1.12,23.39,1.54,46.8,2.05,70.2.29,13.13.6,26.26,1.08,39.38.03.7,2.2.27,2.17-.58h0Z"/>
      <rect class="cls-2" x="627.27" y="877.01" width="214.76" height="17.25" rx="5.43" ry="5.43"/>
      <rect class="cls-23" x="636.95" y="895.08" width="205.08" height="17.25" rx="5.31" ry="5.31"/>
      <rect class="cls-34" x="636.95" y="859.5" width="194.01" height="17.25" rx="5.16" ry="5.16"/>
      <path class="cls-8" d="M1070.35,646.58c30.62-1.63,55.57-28.81,55.57-28.81,20.07,7.5,48.64,23.05,62.8,33.07,45.78,32.38,41.64,153.72,41.64,153.72-10.87,5.67-56.67-34.87-56.67-34.87,3.48,29.54,29.74,62.99,30.48,66.84.75,3.85-11.71,407.84-10.04,468.13,0,0-103.17,39.31-170.35,29.17-67.18-10.13-108.96-62.72-108.96-62.72,2.26-19.34,44.01-396.17,47.38-466.98,1.23-25.93-5.23-50.96-5.23-50.96,0,0,7.08-1.85-.07-21.1,12.56-28.61,6.67-73.26,40.18-94.07,6.74-4.18,26.77-18.74,37.56-18.36,0,0-.86-2.08,1.06,4.73,3.15,11.17,12.42,19.3,23.52,21.61"/>
    </g>
    <g id="Layer_1" data-name="Layer 1">
      <path class="cls-17" d="M320.31,162.05c-14.77-9.73-25.28-13.67-43.9-8.49-29.64,8.25-45.95,39.4-48.49,58.56-2.22,16.69,5.07,34.21-.24,50.19-6.4,19.25-29.8,31.88-29.17,52.16.39,12.63,10.25,22.59,16.7,33.46,9.79,16.5,11.95,37.32,5.77,55.48,13.3-5.88,23.33-18.63,25.91-32.94,3.21,9.78,9.31,6.23,5.77,15.89,19.76-11.17,30.14-38.48,34.74-60.71s-1.9-25.27-3.7-47.89"/>
      <path class="cls-18" d="M1031.42,462.01s13.42-51,63.16-51.59c0,0,31.02-1.21,68.52,13.48,42.7,16.73,53.69,65.38,34.62,132.41-4.77,16.76-50.93,62.42-89.54,40.01-44.06-25.57-78.63-129.95-76.77-134.31Z"/>
      <path class="cls-24" d="M1135,564.71s-4.29,6.61-12.54,47.4c-.76,3.75,16.64,28.23,16.64,28.23l-21.69,7.9c-17.59,6.41-40.42,3.77-58.07-2.45-10.01-3.53-8.4-7.14-15.88-11.99l-17.61-16.49s18.09-1.85,20-5.94c1.92-4.09,5.59-37.54,5.59-37.54"/>
      <path class="cls-24" d="M922.43,827.6c-.02-10.52-7.53-19.99-11.03-30.2l-124.23-60.09-12.73,28.01s75.04,79,122.65,96.34c2.05.75,13.01-1.62,16.18-1.42,2.82-11.66,9.19-20.73,9.17-32.65Z"/>
      <path class="cls-29" d="M250.41,227.23s-7.69,70.37,21.69,109.77c46.14,61.88,115.04,42,142.39,22.56,27.34-19.44,36.63-94.38,19.89-109.05-16.74-14.67-183.98-23.28-183.98-23.28Z"/>
      <path class="cls-29" d="M475.69,249.82s7.36-117.79-128.88-92.76c0,0-10.91,1.08-13.85,1.83-47.96,12.16-77.74,44.12-81.7,129.63-3.97,85.51,224.43-38.7,224.43-38.7Z"/>
      <path class="cls-29" d="M281.95,278.49c9.41,20.57,29.76,35.34,51.67,43.48,21.91,8.14,45.61,10.77,68.93,13.35l28.45.7c13.43-14.21,28.01-23.1,35.82-40.73,5.49-13.81,8.51-32.55,8.92-47.36.44-15.56-9.09-33.96-16.59-47.81-6.56-11.45-17.11-20.38-29.82-25.24-12.66-5.25-19.67-9.91-37.96-12.19-31.49-4-63.03,5.8-85.73,26.65-23.88,20.87-36.74,60.48-23.68,89.15Z"/>
      <path class="cls-27" d="M310.72,333.83s8.45,42.55-6.5,72.8c-2.09,4.22-27.8,13.67-27.8,13.67l22.17,17.67c17.98,14.33,40.35,22.19,63.34,21.84,13.03-.2,34.7,3.52,45.31.8l11.03-23.31s-21.29-8.83-21.93-14.34c-.64-5.51,8.15-45.9,8.15-45.9"/>
      <path class="cls-16" d="M397.76,410.97s-11.93-3.93-18.64-5.81c-6.71-1.88-18.22-1.66-49.08-27.49,0,0,8.97,31.34,48.47,38.58,0,0,11.81,2.63,18.53,1.18l.72-6.47Z"/>
      <path class="cls-27" d="M461.07,253.09c2.6,7.19,2.47,17.3,1.61,24.03-1.7,13.28-4.85,28.12-5.8,33.84-.82,4.96-1.17,12.86-1.1,18.1.15,11.74-.1,14.81-4.01,26.2-3.78,11.01-7.07,16.78-14.19,25.9-7.41,9.5-17.44,17.41-26.97,25.19-6.28,5.13-7.53,5.71-23.37,4.44-23.35-1.87-44.63-15.77-57.95-32.87l-15.87-26.43-1.74-11.24c-13.21,11.25-19.26-8.2-18.43-11.69-3.53-7.92-15.48-35.16-4.7-44.31l.81-1.12c4.49-3.2,10.01-3.54,12.82,2.56.88,2.63,1.98,5.07,2.85,7.7.84,2.99,4.44,8.8,6.07,11.5,0,0,3.34-14.58,3.64-21.45.3-6.88,6.77-26.24,19.38-34.81,0,0,2.01-24.16,7.99-30.84l1.95-.53c1.13.11,1.84.54,2.97.65.04-.36-.3-.76-.23-1.48,1.81.9,3.35.69,4.85.84-.34-.4-1.06-.83-1.02-1.19,1.47.51,3.01.29,4.51.44-.34-.4-1.02-1.19-.99-1.55,1.81.9,3.01.29,4.51.44-.34-.4-.64-1.16-.61-1.52,1.43.87,2.97.65,4.47.8-.34-.4-.65-1.15-.99-1.55,1.81.9,3,.29,4.51.44.38.04-.68-.79-.64-1.15,1.09.47,2.6.62,3.72.73.04-.36-.68-.8-.65-1.15,2.18.94,3.38.33,4.88.48l-.98-1.55c1.39,1.23,2.9,1.37,4.43,1.16-.34-.4-1.02-1.19-.98-1.55,1.77,1.26,3.99,1.84,5.94,1.31-.38-.04-1.02-1.19-.98-1.55,1.74,1.62,3.27,1.41,5.15,1.6-.34-.4-.64-1.15-1.33-1.95,2.11,1.66,4.67,2.64,7.03,1.78-.34-.03-.58-.92-.6-1.36-.17-.33-.19-.74.62-.82,0,0,4.18,1.87,4.22,1.5,1.4,1.23-3.36-6.5-1.48-6.31-.3-.76,10.72,1.73,10.03.93,1.74,1.62,1.43.84,3.72.71,0,0,7.38,5.08,7.04,4.68.7.81,1.28,1.04,1.88,1.03,0,0,28.63,24.98,43.99,40.99Z"/>
      <path class="cls-17" d="M338.52,245.21l-6.45,12.34c-7.48,14.3-12.87,29.66-15.98,45.56l-.89,4.53c-.26,1.3-1.96,1.56-2.55.39l-7.37-14.6s2.88-49.73,33.25-48.22Z"/>
      <path class="cls-14" d="M300.31,303.65c-3.19,1.06-4.56,4.49-5.26,7.51s-.72,5.55.19,8.47c.76,2.47,2.92,7.26,6.3,6.29,2.85-.81,2.81-4.01,2.23-6.33-.38-1.49-1-2.95-1.18-4.49-.06-.52-.1-1.17.22-1.62.46-.67,1.54-.47,2.23-.41.25.02,1.46-.14,1.31-.6-1.71-5.27-3.67-10.63-6.41-15.45-1.33-2.34-3.07-4.94-6.07-5-4.11-.09-5.76,4.21-6.2,7.62-.55,4.27.32,8.97,2.32,12.79.25.47,1.79-.07,1.61-.43-1.4-2.68-2.2-5.82-2.42-8.82-.18-2.44.04-5.02.95-7.31.55-1.39,1.63-3.32,3.39-3.02,2.74.48,4.28,3.53,5.43,5.74,1.48,2.83,2.69,5.79,3.82,8.77.7,1.83,1.37,3.68,1.97,5.55l1.31-.6c-1.99-.17-5.11.03-5.1,2.67,0,2.5,1.51,4.78,1.59,7.3.02.59-.05,1.2-.27,1.75-.12.28-.27.54-.47.78-.12.14-.25.28-.4.39-.29.21.12.12-.2.05-1.42-.31-2.53-2.06-3.17-3.21-1.54-2.79-2.22-6.08-1.74-9.23.45-2.91,1.41-7.56,4.62-8.62,1.08-.36.08-.74-.6-.52h0Z"/>
      <path class="cls-29" d="M267.67,228.62c3.28-27.76,48.04-33.3,71.34-34.03,15.04-.04,13.22,10.46,26.4,17.85,3.95-3.88-8.83,55.16-91.06,53.49l-16.57,16.11s6.61-25.67,9.89-53.42Z"/>
      <path class="cls-29" d="M473.86,225.27c-1.86-27.89-46.27-35.72-69.5-37.64-15.02-.81-38.57,12.26-52.11,18.97-3.75-4.07,32.69,39.79,113.03,55.59l4.51,4.86s5.93-13.89,4.07-41.78Z"/>
      <path class="cls-17" d="M425.18,309.68s8.4-7.56,14.24-8.12c11.9-1.13,16.53,5.16,21.12,8.4,0,0-10.39-6.15-20.6-5.08-5.73.6-14.76,4.79-14.76,4.79Z"/>
      <path class="cls-17" d="M377.53,294.4c-2.04-1.24-5.46-1.17-6.93-.04-.35.26-1.28,1.03-1.78,2.39-.64,1.74-.07,3.81.96,5.11,1.38,1.74,3.84,2.19,5.81,1.43,2.67-1.03,3.72-4.08,3.24-6.39-.09-.42.38-1.19-1.26-2.2"/>
      <path class="cls-17" d="M449.6,303.94c-2.04-1.24-5.46-1.17-6.93-.04-.35.26-1.28,1.03-1.78,2.39-.64,1.74-.07,3.81.96,5.11,1.38,1.74,3.84,2.19,5.81,1.43,2.67-1.03,3.72-4.08,3.24-6.39-.09-.42.38-1.19-1.26-2.2"/>
      <path class="cls-17" d="M391.62,304.3s-8.4-12.13-18.44-13.25c-7.64-.85-17.8,4.48-21.56,5.12,0,0,15.74-2.43,21.12-1.75,5.14.65,18.88,9.87,18.88,9.87Z"/>
      <path class="cls-17" d="M399.18,271.48c-.01-.39-.99-.41-1-.8-15.65-4.62-27.29-1.19-31.44.04-3.15.93-7.38,2.19-10.13,4.68,0,0-6.07,6.31-6.85,8.9-.78,2.59,4.87-1.43,4.87-1.43,1.24-.58,2.05-1.26,3.34-1.6,7.07-1.83,13.4-4.07,20.76-2.94,6.29.91,15.14,2.26,21.37,5.36-.16-4.2-.99-8.06-.91-12.21Z"/>
      <path class="cls-17" d="M463.08,291.2c-2.99-3.06-11.1-11.6-26.47-15.55-2.76,3.75-3.56,4.84-6.34,8.59,7.12.52,12.3,3.87,18.35,6.27,3.77,1.49,7.22,4.11,10.44,6.85l4.02-6.16Z"/>
      <path class="cls-35" d="M401.74,362.1c-10.15-1.3-28.62-2.84-28.62-2.84,0,0,2.03,22.95,25.55,25.97,23.52,3.02,27.89-20.61,27.89-20.61,0,0-14.68-1.21-24.82-2.51Z"/>
      <path class="cls-4" d="M401.84,362.11c-4.82-.62-25.28-3.36-25.28-3.36,0,0,5.56,15,23.01,17.24,18.92,2.43,24.24-11.48,24.24-11.48l-21.96-2.39Z"/>
      <path class="cls-36" d="M401.95,362.87c-4.82-.62-19.4-3.33-19.4-3.33,0,0,4.59,6.05,19.06,7.91,14.47,1.86,19.73-2.77,19.73-2.77l-19.4-1.8Z"/>
      <path class="cls-35" d="M427.28,364.11c-.5-.19-1.72.03-3.94-.64-4.02-1.21-5.7-2.92-8.56-3.52-4.89-1.02-8.28.56-10.43.28-2.15-.28-5.03-2.66-10.02-2.91-2.92-.15-9.31,1.17-13.35,1-2.42-.1-8.04-.11-8.57-.04-.73.09,1.99,3.12,28.98,6.59,26.99,3.46,26.58-.49,25.89-.76Z"/>
      <path class="cls-17" d="M424.56,333.88c.4,1.77.8,3.54,1.16,5.32.24,1.18.47,2.36.65,3.55.1.68.31,1.49.18,2.18-.07.38-.52,1.04-.88,1.42-.44.46-.99.8-1.57,1.06-1.03.47-2.17.67-3.29.78-2.63.28-5.26.25-7.9-.01-1.74-.17-3.47-.43-5.17-.84-1.4-.33-2.86-.75-4.09-1.53-.42-.26-1.36.31-.83.64,2.47,1.54,5.65,2.03,8.49,2.39s5.93.48,8.89.21c2.44-.22,5.28-.74,6.8-2.88.59-.82.72-1.45.63-2.41-.11-1.11-.31-2.22-.52-3.32-.43-2.3-.95-4.59-1.46-6.87-.12-.52-1.2-.23-1.09.29h0Z"/>
      <path class="cls-17" d="M395.62,336.77c-1.21.04-2.41.4-3.39,1.12s-1.57,1.85-1.76,3.09c-.21,1.37,0,2.58,1.06,3.53,1.03.92,2.44,1.27,3.75,1.57,1.7.4,3.43.67,5.18.51.21-.02.68-.08.8-.28s-.11-.19-.28-.17c-1.65.15-3.3-.17-4.9-.55-1.41-.33-2.96-.77-3.89-1.97s-.74-2.82-.24-4.11c.46-1.17,1.56-2.24,2.87-2.28.27,0,.62-.06.85-.23.16-.12.19-.24-.06-.24h0Z"/>
      <path class="cls-27" d="M450.74,1046.31c6.08-9.27,12.95-18.25,20.56-26.86l3.42-27.4-7.54-11.53-8.28,1.84s5.88,33.34.41,40.54c-5.47,7.2-8.98,8.03-8.98,8.03l-7.54-6.14-2.79-50.61s2.85-22.52,4.33-27.88c2.13-5.34,5.8-13.09,8.91-18.19l.55-31.17,43.49,3.95c-.19,7.08,2.67,14.31,1.9,22.51l13.22,52.03-8.94,25.63-13.46,24.12-38.64,32.55s-6.8-.88-.63-11.41Z"/>
      <path class="cls-5" d="M512.45,902.66l-.81-22.73c-.94-56.79,5.14-113.57.85-157.91-3.12-38.02-1.92-161.35-10.98-204.94-9.06-43.59-52.96-65.67-58.57-68.21,0,0-26.92,169.11-9.73,230.38,10.15,36.19,17.9,137.74,22.9,220.52,19.12,1.78,37.17,2.61,56.34,2.89Z"/>
      <path class="cls-28" d="M332.32,888.04l.2,8.33c.04,1.81,1.09,3.24,2.34,3.22,1.23-.06,2.19-1.54,2.15-3.32l-.2-8.33c1.77-1.24,2.85-3.9,2.74-6.76-.15-3.98-2.51-7.08-5.26-6.92-2.75.15-4.85,3.5-4.7,7.47.04,2.65,1.09,5.08,2.73,6.32Z"/>
      <path class="cls-5" d="M410.32,430.97l49.39,27.1,34.55,166.03c4.34,9.23,13.02,39.12-14.44,81.79-9.53,14.82-21.28,34.29-19.3,50.64.74,6.13-.94,14.12.33,20.33-33.97,2.07-61.28-7.67-94.46-14.38-22.62-4.58-46.54,23.21-68.71,16.82-22.17-6.39-47.52-10.81-69.69-17.2-21.36-6.15-67.57-16.45-89.57-19.7,9.47-18.63,17.83-73.07,17.83-73.07l53.29-239.84,82.49-20.78s19.17,45.23,71.49,48.08c52.33,2.85,46.78-25.83,46.78-25.83Z"/>
      <path class="cls-5" d="M477.66,834.39c-3.4-23.02-14.8-54.21-22.74-77.44-2.16-6.32-8.4-28.35-9.49-35.38-11.43,3.26-13.92,3.63-25.73,6.08-97.89,20.33-200.74,13.57-301.33,12.49-13.71,28.7-27.4,69.65-32.37,92.42-15.31,70.1-.97,496.08-.16,543.76.08,4.55,91.49,25.88,100.36,26.53,33.27,2.43,129.01,1.4,162.41.32,65.64-2.12,96.67-12.21,135.35-35.65,1.06-38.51,1.97-138.15,2.83-176.66,1.68-75.16,6.61-143.64,7.26-218.81.28-32.47-4.45-81.79-4.86-114.25-.25-20.21-8.64-3.85-11.53-23.39Z"/>
      <path class="cls-5" d="M156.96,460.03c-44.62,69.63-81.48,188.91-87.07,225.27-1.83,11.91-2.94,28.25-3.53,46.96l101.38,3.2,2.03-34.95,62.14-143.2,26.82-138.19s-77.41,8.27-101.76,40.91Z"/>
      <path class="cls-31" d="M218.43,466.47c6.74,6.71,12.91,14.31,14.56,23.93.72,4.2.67,8.49.44,12.73-.31,5.6-.89,11.19-1.4,16.77-.93,10.18-3.6,20.2-6.48,29.98-3.39,11.49-7.35,22.8-11.53,34.02-3.65,9.81-7.5,19.55-11.35,29.29-1.12,2.82-2.49,5.5-3.81,8.23-6.14,12.63-12.28,25.27-18.41,37.9-4.73,9.73-9.46,19.46-14.18,29.2-.08.16-.15.32-.23.48-.16.34.36.49.58.5,12.53.91,25,2.57,37.41,4.45,14.27,2.15,28.49,4.64,42.68,7.25s27.88,5.26,41.8,7.94c11.76,2.26,23.52,4.54,35.32,6.59,7.61,1.32,15.33,2.78,23.06,3.19.66.04,1.32.06,1.98.07.59,0,1.82-.24,2.13-.81.34-.61-.29-.7-.81-.71-.21,0-.74-.02-.57-.01-.32-.01-.63-.03-.95-.05-.68-.04-1.37-.09-2.05-.15-1.64-.15-3.27-.34-4.89-.55-4.23-.55-8.45-1.22-12.66-1.93-11.4-1.92-22.75-4.11-34.11-6.29-13.73-2.64-27.45-5.3-41.19-7.85-14.21-2.64-28.45-5.18-42.73-7.41-12.68-1.98-25.41-3.77-38.2-4.88-1.4-.12-2.8-.23-4.2-.33l.58.5c4.02-8.28,8.05-16.56,12.07-24.84,6.43-13.23,12.85-26.46,19.28-39.69,1.47-3.03,3.02-6.03,4.41-9.09,1.43-3.14,2.57-6.46,3.84-9.68,1.96-4.97,3.9-9.94,5.8-14.93,4.25-11.16,8.33-22.39,11.94-33.77,3.28-10.35,6.32-20.88,7.98-31.63.8-5.17,1.13-10.42,1.59-15.64.42-4.76.82-9.55.63-14.33-.16-3.98-.82-7.92-2.28-11.64-1.67-4.28-4.28-8.14-7.21-11.66-1.83-2.2-3.8-4.28-5.82-6.3-.67-.67-3.67.5-3,1.17h0Z"/>
      <path class="cls-31" d="M490.34,538.92c-2.15,8.81-4.32,17.64-6.17,26.52-.25,1.22-.65,2.46-.5,3.71.14,1.16.43,2.31.68,3.45,1.04,4.73,2.18,9.43,3.28,14.15,3.31,14.29,6.48,28.63,8.77,43.12,1.19,7.55,2.25,15.11,1.82,22.77-.49,8.86-2.34,17.66-5.14,26.07-2.59,7.81-6.51,14.93-9.72,22.47-2.6,6.12-4.57,12.49-5.64,19.07-.6,3.64-.94,7.32-1.12,11.01-.21,4.2-.6,8.75-.1,12.94.33,2.78,1.01,5.55,1.48,8.31,2.84,16.5,5.3,33.07,7.16,49.71,1.2,10.79,1.91,21.61,2.5,32.45,1.08,19.63,1.94,39.27,2.73,58.91.02.4.03.79.05,1.19.07,1.74,3.32,1.3,3.26-.21-.67-17.08-1.43-34.15-2.3-51.22-.53-10.32-1.04-20.66-1.91-30.96-1.43-16.89-3.87-33.72-6.56-50.45-.87-5.4-1.78-10.8-2.75-16.18-.9-4.99-.54-10.18-.26-15.23.38-7.02,1.4-14.01,3.52-20.73,2.18-6.92,5.52-13.25,8.52-19.82,7.05-15.39,11.05-33,9.18-49.94-1.62-14.66-4.67-29.16-7.86-43.55-1.35-6.08-2.77-12.14-4.18-18.2-.76-3.24-1.79-6.58-2.17-9.89-.06-.5-.08.04.01-.5.16-.99.38-1.97.58-2.94.54-2.58,1.13-5.15,1.72-7.72,1.2-5.21,2.44-10.42,3.69-15.62.23-.96.47-1.93.7-2.89.39-1.61-2.9-1.27-3.26.21h0Z"/>
      <path class="cls-17" d="M337.82,160.76c-17.02-6.98-53.27,7.24-65.54,20.95-12.27,13.7-21.44,29.54-24.02,47.75-1.46,10.31-2.13,20.81-.7,31.12"/>
      <path class="cls-17" d="M318.86,166.85c4.56-17.76,47.51-22.75,65.48-19.61,40.69,7.11,49.86,20.72,63.64,32.65"/>
      <polygon class="cls-1" points="491.19 903.29 512.45 902.66 511.57 877.94 490.95 877.69 491.19 903.29"/>
      <path class="cls-31" d="M372.26,454.81c10.1,33.35,18.3,67.5,24.4,101.8,4.18,23.53,7.59,47.61,6.55,71.57-.96,21.97-3.73,43.88-6.66,65.66-5.52,41.06-12.33,81.97-19.73,122.73-1.57,8.64-1.99,16.41-2.24,25.21-.62,22.09-1.21,44.17-1.78,66.26-.87,33.84-1.68,67.69-2.43,101.54-.86,39.16-1.64,78.32-2.29,117.49-.63,38.53-1.15,77.07-1.38,115.6-.19,31.47-.26,62.95.32,94.42.33,17.99.03,36.56,2.8,54.39.26,1.69.53,3.42,1.14,5.03.33.87,3.49-.11,3.21-.86-1.65-4.39-1.76-9.58-2.14-14.19-.75-9.21-1.09-18.45-1.37-27.69-.88-28.81-.91-57.64-.84-86.46.08-37.4.5-74.81,1.04-112.21.57-39.55,1.31-79.09,2.14-118.64.75-35.75,1.58-71.5,2.47-107.24.64-25.51,1.3-51.02,2.01-76.52.24-8.75-.25-19.29.85-27.43,1.49-11.09,4.02-22.13,5.94-33.15,3.8-21.86,7.41-43.75,10.73-65.69,6.65-43.92,14.66-89.27,10.17-133.78-4.45-44.17-15.13-87.95-27.3-130.58-.78-2.72-1.56-5.43-2.37-8.14-.26-.85-3.46.04-3.21.86h0Z"/>
      <circle class="cls-1" cx="381.74" cy="509.95" r="3.58"/>
      <circle class="cls-1" cx="389.21" cy="562.44" r="3.58"/>
      <circle class="cls-1" cx="396.62" cy="621.07" r="3.58"/>
      <circle class="cls-1" cx="388.55" cy="684.81" r="3.58"/>
      <circle class="cls-1" cx="376.44" cy="752.02" r="3.58"/>
      <circle class="cls-1" cx="361.23" cy="821.89" r="3.58"/>
      <circle class="cls-1" cx="356.73" cy="892.35" r="3.58"/>
      <circle class="cls-1" cx="353.57" cy="963.08" r="3.58"/>
      <circle class="cls-32" cx="302.23" cy="338.82" r="6.01"/>
      <path class="cls-1" d="M272.11,414.15s8.08,51.31,57.08,61.59c49,10.28,54.17-18.6,54.17-18.6,0,0,9.49,21.51,34.7,17.56,22.73-3.56,17.83-19.29,11.11-30.43-4.31-7.14-11.22-12.32-19.18-14.78l-11.91-3.68s24.45,27.36-16.69,26.52c-41.13-.85-74.56-29.94-81.01-44.46-2.45-5.5-28.78,4.4-28.28,6.29Z"/>
      <path class="cls-9" d="M406.39,288.26c3.61-.15,8.04-.49,10.62-3.37,3.06-3.42,1.65-8.33.38-12.18-.14-.43-2.3.2-2.17.58,1.12,3.38,2.34,7.28.58,10.67-1.6,3.08-4.88,3.36-7.98,3.49-.51.02-1.1.13-1.54.41-.31.2-.34.42.11.4h0Z"/>
      <path class="cls-5" d="M104.34,779.07c-7.82-1.57-16.18-6.1-23.51-10.06-.57-.31-1.17-.66-1.46-1.24-.25-.52-.21-1.12-.17-1.69,1.49-18.49,7.06-33.53,16.9-49.42,6.48-10.47,15-20.41,25.53-27.08.74,2.31,1.14,3.57,1.14,3.57l197.37,38.45s11.31,41.94,11.31,41.94c-.58,1.17-11.2,1.52-12.81,1.73-4.43.58-8.87,1.14-13.3,1.67-8.83,1.07-17.66,2.04-26.51,2.92-17.56,1.73-35.17,3.05-52.8,3.84-35.34,1.59-70.78,1-106-2.41-5.35-.52-10.57-1.19-15.68-2.21Z"/>
      <path class="cls-27" d="M344.01,778.06l26.02-3.33s30.84,20.1,47.39,22.71c12.03,1.44,23.97,3.32,35.94,1.41l37.52,6.63s14.43,12.02,18.52,7.78c4.09-4.24-.13-10.15-4.22-15.9-4.09-5.74-84.29-61.88-84.29-61.88,9.95-1.95,12.17-3,22.31-3.23,15.58-.24,23-7.32,17.3-13.65-3.51-3.9-11.57-6.97-25.24-3.59-8.76,2.17-25.82-6.35-41.5-3.91-15.67,2.44-29.31,19.22-29.31,19.22-8.13,2.35-20.2,3.17-20.2,3.17-7.05,13.59-.23,44.55-.23,44.55Z"/>
      <path class="cls-5" d="M226.02,483.25c-18.31-22.47-54.12-32.57-76.55,0-22.44,32.58-62.97,138.31-62.97,138.31-5.32,15.06-10.04,30.36-15.05,45.52-2.77,8.39-5.45,16.84-8.43,25.16-4.25,11.9-4.11,26.56-2.49,39.04,1.33,10.24,4.89,19.57,11.06,27.85,3.1,4.15,8.72,12.08,14.89,11.44l46.5-47.67s-1.82-7.7-4.92-17.57c.07,0,.14,0,.2,0,5.21.12,10.43.74,15.5,1.97,13.2-25.06,68.27-131.31,81.62-184.73,0,0,9.91-27.93.64-39.31Z"/>
      <path class="cls-13" d="M491.82,804.43c-3.49-1.61-6.99-3.22-10.25-5.26s-6.21-4.43-9.45-6.46c-6.7-4.19-13.79-7.68-20.61-11.65-.67-.39-2.78.58-1.82,1.14,6.82,3.97,13.92,7.46,20.61,11.65,3.24,2.03,6.21,4.43,9.45,6.46s6.76,3.65,10.25,5.26c.7.32,2.8-.69,1.82-1.14h0Z"/>
      <path class="cls-13" d="M458.6,797.89c-3.99-2.32-8.27-3.98-12.56-5.65-2.29-.89-4.56-1.81-6.77-2.89-.94-.46-1.86-.93-2.83-1.33s-1.88-.75-2.58-1.56c-.64-.74-2.84.15-2.11.99,1.31,1.52,3.35,1.99,5.09,2.86,2.17,1.09,4.4,2.05,6.65,2.94,4.53,1.8,9.09,3.46,13.32,5.92.82.48,2.86-.65,1.79-1.28h0Z"/>
      <path class="cls-1" d="M347.11,796.34s19.43-22.04,13.8-76.35l-21.67-3.37s-3.85,40.06-12.61,77.78l20.49,1.94Z"/>
      <path class="cls-31" d="M98.5,778.46c15.32,5.05,31.14,8.29,47.18,9.94,15.87,1.63,31.84,1.82,47.77,1.71,14.68-.1,29.31-.26,43.98.28s30.24,1.43,45.36,2.19c14.27.71,28.55,1.37,42.84,1.38,1.58,0,3.17,0,4.75-.03.72,0,1.67-.18,2.27-.61.44-.31.51-.61-.16-.6-13.92.17-27.85-.41-41.76-1.07-15.04-.71-30.08-1.59-45.12-2.23s-28.59-.74-42.92-.58c-15.97.18-31.97.24-47.89-1.02s-31.66-3.91-46.96-8.43c-2.11-.62-4.22-1.29-6.31-1.98-.64-.21-1.44.02-2.05.23-.11.04-1.43.67-.98.82h0Z"/>
      <path class="cls-31" d="M170.15,688.45c-15.47-2.04-34.53-.2-43.61,14.37-.34.55,1.15.46,1.32.43.65-.1,1.49-.35,1.86-.94,3.47-5.57,9.17-9.5,15.39-11.44,7.42-2.31,15.39-1.98,23-.97.72.09,1.7-.16,2.27-.61.49-.39.42-.75-.23-.84h0Z"/>
      <path class="cls-22" d="M968.5,131.19l2.35,7.25c.18.55.69.92,1.26.92h7.62c1.28,0,1.82,1.64.78,2.4l-6.17,4.48c-.46.34-.66.94-.48,1.48l2.35,7.25c.4,1.22-1,2.24-2.04,1.48l-6.17-4.48c-.46-.34-1.09-.34-1.56,0l-6.17,4.48c-1.04.75-2.43-.26-2.04-1.48l2.35-7.25c.18-.55-.02-1.14-.48-1.48l-6.17-4.48c-1.04-.75-.5-2.4.78-2.4h7.62c.57,0,1.08-.37,1.26-.92l2.35-7.25c.4-1.22,2.12-1.22,2.52,0Z"/>
      <path class="cls-22" d="M1222.99,117.06l2.35,7.25c.18.55.69.92,1.26.92h7.62c1.28,0,1.82,1.64.78,2.4l-6.17,4.48c-.46.34-.66.94-.48,1.48l2.35,7.25c.4,1.22-1,2.24-2.04,1.48l-6.17-4.48c-.46-.34-1.09-.34-1.56,0l-6.17,4.48c-1.04.75-2.43-.26-2.04-1.48l2.35-7.25c.18-.55-.02-1.14-.48-1.48l-6.17-4.48c-1.04-.75-.5-2.4.78-2.4h7.62c.57,0,1.08-.37,1.26-.92l2.35-7.25c.4-1.22,2.12-1.22,2.52,0Z"/>
      <path class="cls-22" d="M912.09,238.72l1.39,4.29c.1.32.41.54.75.54h4.51c.76,0,1.08.97.46,1.42l-3.65,2.65c-.27.2-.39.55-.28.88l1.39,4.29c.23.72-.59,1.32-1.21.88l-3.65-2.65c-.27-.2-.65-.2-.92,0l-3.65,2.65c-.61.45-1.44-.15-1.21-.88l1.39-4.29c.1-.32-.01-.68-.28-.88l-3.65-2.65c-.61-.45-.3-1.42.46-1.42h4.51c.34,0,.64-.22.75-.54l1.39-4.29c.23-.72,1.26-.72,1.49,0Z"/>
      <path class="cls-22" d="M973.62,282.08l1.39,4.29c.1.32.41.54.75.54h4.51c.76,0,1.08.97.46,1.42l-3.65,2.65c-.27.2-.39.55-.28.88l1.39,4.29c.23.72-.59,1.32-1.21.88l-3.65-2.65c-.27-.2-.65-.2-.92,0l-3.65,2.65c-.61.45-1.44-.15-1.21-.88l1.39-4.29c.1-.32-.01-.68-.28-.88l-3.65-2.65c-.61-.45-.3-1.42.46-1.42h4.51c.34,0,.64-.22.75-.54l1.39-4.29c.23-.72,1.26-.72,1.49,0Z"/>
      <path class="cls-22" d="M1102.58,253.54l1.39,4.29c.1.32.41.54.75.54h4.51c.76,0,1.08.97.46,1.42l-3.65,2.65c-.27.2-.39.55-.28.88l1.39,4.29c.23.72-.59,1.32-1.21.88l-3.65-2.65c-.27-.2-.65-.2-.92,0l-3.65,2.65c-.61.45-1.44-.15-1.21-.88l1.39-4.29c.1-.32-.01-.68-.28-.88l-3.65-2.65c-.61-.45-.3-1.42.46-1.42h4.51c.34,0,.64-.22.75-.54l1.39-4.29c.23-.72,1.26-.72,1.49,0Z"/>
      <path class="cls-22" d="M882.1,141.19c0-13.65,8.81-25.24,21.05-29.41-3.14-1.07-6.51-1.66-10.02-1.66-17.16,0-31.07,13.91-31.07,31.07s13.91,31.07,31.07,31.07c3.51,0,6.87-.59,10.02-1.66-12.24-4.17-21.05-15.76-21.05-29.41Z"/>
      <g>
        <path class="cls-8" d="M1045.3,609.58s-9.19,22.76,9.64,34.22c0,0-17.81,3.8-26.22,15.65,0,0-11.85-12.48-7.46-43.29,0,0,1.69-3.65,9.85-4.94,8.15-1.29,14.19-1.64,14.19-1.64Z"/>
        <path class="cls-15" d="M1043.47,609.84c-1.08,2.68-1.67,5.63-2,8.49-.68,5.85-.03,11.97,2.9,17.16,2.12,3.75,5.2,6.74,8.85,9l1.5-1.49c-7.37,1.58-14.81,4.98-20.8,9.51-2.61,1.98-4.98,4.3-6.9,6.96l3.4-.71c-.89-.94-1.59-2.08-2.24-3.19-1.87-3.23-3.18-6.77-4.12-10.37-1.56-5.98-2.08-12.21-1.93-18.38.05-2.07.18-4.14.38-6.2.09-.96.2-1.93.32-2.89.06-.52.2-1.08.21-1.6,0,0,.09-.44,0-.17-.07.19.11-.16.18-.26.17-.23.36-.45.56-.65.49-.49,1.39-1.09,2.13-1.47,1.61-.81,3.38-1.21,5.15-1.49,2.32-.37,4.66-.68,6.99-.95s4.48-.5,6.49-.62c.77-.05,1.97-.24,2.43-.96s-.37-.95-.95-.92c-1.99.12-3.98.31-5.96.53-4.23.46-8.66.81-12.74,2.07-2.54.78-5.12,1.94-6.98,3.9-1.55,1.64-1.31,4.1-1.51,6.23-1.06,11.36-.38,23.75,5.04,34.04.86,1.64,1.83,3.38,3.12,4.73.72.76,2.88.02,3.4-.71,3.86-5.36,9.53-9.11,15.52-11.72,3.12-1.36,5.92-2.4,9.22-3.11.18-.04,2.34-.97,1.5-1.49-6.05-3.74-10.16-9.45-11.36-16.5-.81-4.78-.36-9.72.9-14.38.26-.98.55-1.97.93-2.92.4-1-3.2-.59-3.65.52Z"/>
      </g>
      <path class="cls-8" d="M966.49,790.46s6.17-73.79,8.36-93.94c.45-4.14,5.77-10.93,6.9-14.94l23.51-48.46s-21.57,4.86-41.09,35.58c-13.04,20.52-45.69,95.08-45.69,95.08,0,0,13.53,28.59,48.02,26.69Z"/>
      <path class="cls-18" d="M1041.78,540.4c-4.98,4.27-10.72,7.08-15.68,11.38-4.96,4.3-9.28,10.75-9.25,18.1.02,3.91,1.26,7.64,2.66,11.16,2.3,5.82,5.06,11.37,8.21,16.56.63,1.04,1.33,2.1,2.32,2.58,2.01.96,4.16-.88,5.77-2.65,3.46-3.78,6.77-7.76,9.92-11.92,4.72-6.24,9.29-13.64,9.24-22.06-.05-7.65-3.91-14.37-7.61-20.55"/>
      <path class="cls-18" d="M1041.28,577.22c1.62,6.98,3.07,14.14,2.65,21.35-.42,7.21-2.95,14.58-8.04,19.04-3.43,3.01-7.88,4.52-12.22,4.13-.51-.05-1.04-.12-1.45-.45-.41-.31-.66-.82-.89-1.31-4.36-9.27-8.13-13.88-7.14-24.32.15-1.56,1.63-7.92,2.3-9.3,1.85-3.82,6.92-6.14,10.28-8.32"/>
      <path class="cls-18" d="M1030.01,610.37c1.44,5.51,2.73,11.15,2.37,16.84-.35,5.68-2.57,11.48-7.03,14.99-3.01,2.37-6.92,3.55-10.73,3.24-.45-.04-.91-.1-1.28-.36-.36-.25-.58-.65-.78-1.03-3.85-7.32-7.27-10.98-6.42-19.22.13-1.23.68-3.46,1.27-4.55,1.62-3.01,6.9-7.57,9.85-9.28"/>
      <path class="cls-18" d="M1020.68,635.36c1.44,5.51,2.73,11.15,2.37,16.84-.35,5.68-2.57,11.48-7.03,14.99-3.01,2.37-6.92,3.55-10.73,3.24-.45-.04-.91-.1-1.28-.36-.36-.25-.58-.65-.78-1.03-3.85-7.32-7.27-10.98-6.42-19.22.13-1.23.68-3.46,1.27-4.55,1.62-3.01,6.9-7.57,9.85-9.28"/>
      <path class="cls-18" d="M1008.6,668.71c1.05,4.82,2.72,14.78-.86,17.74-3.58,2.97-7.85,4.96-10.92,8.57-2.23,2.62-3.68,5.91-5.09,9.15-1.26-9.5-1.82-13.68-1.96-23.28-.03-2.33,2.35-9.77,3.58-11.67,1.23-1.89,6.5-5.53,8.5-6.24,1.51-.54-1.08,1.22.48,1.49,1.56.27,1.63,1.62,1.73,3.38"/>
      <path class="cls-18" d="M1176.11,530.35c-12.59,13.44-32.12,19.57-51.14,20.19-19.02.62-37.99-3.49-56.66-7.53l-22.14-6.82c-6.69-14.44-17.34-24.1-18.8-39.73-.66-12.08,1.86-27.33,5.37-38.87,3.69-12.12,17.5-24.84,26.88-33.59,8.02-7.14,18.49-11.31,29.55-11.76,11.13-.78,17.75-2.56,32.46.42,25.34,5.06,47.15,20.79,59.28,42.76,13.03,22.29,12.71,56.19-4.79,74.94Z"/>
      <path class="cls-16" d="M1047.85,601.72s10.22.06,15.89.34c5.67.29,14.49,3.43,45-8.51,0,0-15.03,21.87-47.4,17.23,0,0-9.8-1.03-14.61-3.88l1.12-5.18Z"/>
      <path class="cls-24" d="M1039.84,463.47c-3.87,4.87-6.38,12.71-7.46,18.13-2.13,10.69-3.53,22.96-4.28,27.62-.65,4.04-2.42,10.23-3.83,14.26-3.16,9.02-5.88,14.26-5.81,24.06.09,11.77,2.48,21.02,6.68,32.18,5.68,15.1,16.13,20.92,30.89,24.59,18.51,4.6,38.53-.62,53.24-10.37l18.48-13.35,4.86-11.17c7.28,12.1,16.99-1.35,17.25-4.25,4.77-5.2,21.05-23.13,15.09-32.99l-.33-1.07c-2.64-3.63-6.81-5.32-10.56-1.34-1.36,1.8-2.84,3.4-4.2,5.21-1.42,2.09-5.7,5.64-7.66,7.31,0,0,1.19-12.12,2.74-17.5,1.54-5.39,9.51-26.58,2-36.46,0,0-3.25-14.59-6.13-21.3l-1.37-.92c-.9-.21-1.56-.06-2.46-.26.07-.29.43-.5.56-1.08-1.63.23-2.76-.33-3.96-.61.37-.22,1.03-.37,1.1-.65-1.26.01-2.4-.55-3.6-.83.37-.22,1.1-.65,1.16-.94-1.63.23-2.4-.55-3.6-.83.37-.22.8-.72.86-1.01-1.33.3-2.46-.26-3.66-.54.37-.22.8-.72,1.16-.94-1.63.23-2.4-.55-3.59-.83-.3-.07.73-.44.79-.72-.96.08-2.16-.19-3.06-.4.06-.29.73-.44.8-.72-1.93.16-2.7-.62-3.89-.89l1.16-.94c-1.39.59-2.59.31-3.72-.25.36-.22,1.09-.66,1.16-.94-1.69.52-3.56.39-4.92-.53.3.07,1.1-.66,1.16-.94-1.76.8-2.89.24-4.39-.1.37-.22.8-.72,1.53-1.16-2.06.74-4.29.83-5.89-.45.27.06.69-.56.82-.9.22-.21.34-.52-.27-.79,0,0-3.71.36-3.64.07-1.4.59,4.27-4.14,2.78-4.49.43-.51-8.72-1.44-7.99-1.88-1.76.8-1.32.28-3.05-.42,0,0-7.01,2.01-6.64,1.79-.75.45-1.26.47-1.72.31,0,0-28.56,11.87-44.56,20.26Z"/>
      <path class="cls-18" d="M1138.56,478.66l2.2,11.3c2.07,12.98-.24,36.56-1.95,49.64l-.49,3.73c-.14,1.07,1.11,1.71,1.87.96l9.47-9.36s12.74-49.57-11.1-56.27Z"/>
      <path class="cls-14" d="M1150.04,544.6c2.13,1.62,1.9,5,1.56,7.35-.35,2.44-1.36,4.58-3.06,6.43-.74.8-2.04,2.11-3.24,2.11-.96,0-1.22-1.29-1.14-2.06.22-2,1.99-3.57,2.94-5.25.38-.67.73-1.49.43-2.26-.4-1.04-1.72-1.41-2.69-1.65l.17.63c2.35-3.18,4.89-6.29,7.7-9.08,1.4-1.39,3.5-3.71,5.73-3.25,3.35.7,2.17,6.26,1.43,8.39-.9,2.58-2.46,5.11-4.44,7.01-.59.56.68.78,1.09.38,1.91-1.84,3.46-4.28,4.41-6.74s2.12-7.24-.47-9.31c-2.02-1.62-4.73-.38-6.48,1-2.31,1.82-4.29,4.09-6.18,6.33-1.34,1.59-2.64,3.21-3.88,4.88-.16.22-.15.55.17.63.91.22,2.36.57,2.21,1.77-.12,1-1,1.97-1.55,2.76-1.14,1.62-2.72,3.84-1.48,5.84,1.37,2.21,4.49.04,5.76-1.15,1.96-1.85,3.35-4.29,3.81-6.95.48-2.79.75-6.66-1.78-8.58-.46-.35-1.61.3-1.01.75h0Z"/>
      <path class="cls-17" d="M1051.16,516.53s-4.04-8.55-8.14-10.5c-8.36-3.98-13.08-1.73-17.32-.14,0,0,8.87-.67,16.02,2.83,4.01,1.96,9.44,7.81,9.44,7.81Z"/>
      <path class="cls-17" d="M1091.52,516.26c2.08-.47,4.96.56,5.89,1.93.22.32.79,1.23.83,2.53.05,1.66-1.02,3.24-2.26,4.05-1.66,1.08-3.88.76-5.33-.44-1.97-1.63-1.99-4.51-.93-6.33.2-.33.01-1.12,1.69-1.5"/>
      <path class="cls-17" d="M1033.7,505.06c2.08-.47,4.96.56,5.89,1.93.22.32.79,1.23.83,2.53.05,1.66-1.02,3.24-2.26,4.05-1.66,1.08-3.88.76-5.33-.44-1.97-1.63-1.99-4.51-.93-6.33.2-.33.01-1.12,1.69-1.5"/>
      <path class="cls-17" d="M1076.77,520.64s10.56-7.89,19.38-5.98c6.71,1.45,16.68,8.38,19.68,9.99,0,0-15.52-6.06-20.27-7.01-4.54-.91-18.8,3-18.8,3Z"/>
      <path class="cls-18" d="M1080.57,499.68c.01-.18.91-1.69.93-1.86,12.59-.4,21.92.86,25.24,1.89,2.52.78,4.91,1.97,7.11,3.42,0,0,5.99,5.54,6.6,6.82.62,1.29-3.91-1.2-3.91-1.2-.99-.4-1.64-.81-2.68-1.11-5.67-1.63-10.99-3.84-16.91-4.14-5.06-.28-12.16.99-17.18,1.73.15-1.92.82-3.61.78-5.54Z"/>
      <path class="cls-18" d="M1030.73,487.07c.67-.24,1.34-.41,1.99-.32,3.4.47,12.1,3.15,23.02,8.48-.62,2.04-1.26,4.49-1.87,6.54-4.28-2.78-7.43-4.25-12.2-6.13-3.18-1.26-7.35-2.71-11.22-3.75-.28-2.06.78-3.26.27-4.81Z"/>
      <path class="cls-21" d="M1055.72,562.63c8.17,1.62,22.82,5.21,22.82,5.21,0,0-7.85,20.05-26.79,16.29-18.94-3.76-15.84-25.98-15.84-25.98,0,0,11.64,2.86,19.81,4.48Z"/>
      <path class="cls-20" d="M1055.64,562.61c3.88.77,20.39,3.95,20.39,3.95,0,0-8.17,10.14-22.22,7.35-15.23-3.02-15.74-15.14-15.74-15.14l17.57,3.84Z"/>
      <path class="cls-36" d="M1055.35,563.17c3.88.77,15.83,2.45,15.83,2.45,0,0-5.11,3.48-16.76,1.17-11.65-2.31-14.51-7.25-14.51-7.25l15.44,3.63Z"/>
      <path class="cls-21" d="M1035.49,557.57c.43-.02,1.32.46,3.21.52,3.41.11,5.15-.78,7.52-.5,4.04.48,6.25,2.57,7.97,2.92,1.73.34,4.57-.75,8.48.35,2.29.64,6.89,3.31,10.05,4.23,1.9.55,6.23,2,6.63,2.18.54.26-2.35,1.9-24.08-2.42-21.73-4.31-20.39-7.26-19.79-7.29Z"/>
      <path class="cls-17" d="M1046.31,534.96c-.84,1.38-1.68,2.77-2.48,4.17-.49.86-.98,1.73-1.42,2.62-.25.51-.58,1.08-.55,1.66.1,2.19,2.13,3.59,3.92,4.43,2.03.96,4.17,1.65,6.36,2.15,2.63.61,5.68,1.23,8.37.59.56-.13.38-.78-.17-.65-2.24.53-4.79.03-7.01-.43s-4.4-1.13-6.49-2.05c-1.71-.76-3.71-1.86-4.04-3.89-.1-.62.19-1.11.45-1.65.4-.82.85-1.63,1.31-2.43.85-1.49,1.73-2.95,2.62-4.41.26-.43-.64-.48-.85-.12h0Z"/>
      <path class="cls-17" d="M1068.49,545.44c.95.35,1.73,1.09,2.08,2.05.38,1.03.22,2.51-.41,3.42-.82,1.18-2.37.99-3.62.87s-2.6-.33-3.8-.86c-.18-.08-.45,0-.63.07-.04.01-.44.2-.3.26,1.4.62,2.91.82,4.41.95,1.42.12,2.98.07,4.19-.77,1.1-.76,1.48-2.37,1.27-3.64s-1.13-2.23-2.28-2.66c-.19-.07-.44,0-.63.07-.03.01-.44.21-.3.26h0Z"/>
      <path class="cls-19" d="M1220.52,782.74c-.06.13-.15.24-.25.34-.21-.27-.42-.54-.64-.81.29.16.59.31.88.47Z"/>
      <g>
        <path class="cls-8" d="M1140.81,635.59s-8.22-16.93-15.96-23.28c0,0-35.46,38.54-64.46,32.59,0,0,16.13,16.01,14.93,31.39,0,0,63.23-17.27,65.24-39.41"/>
        <path class="cls-15" d="M1142.64,635.1c-1.56-3.21-3.32-6.34-5.16-9.39-3.02-5-6.37-10.23-10.9-14.01-.62-.51-2.89.25-3.38.78-4.04,4.38-8.54,8.4-13.12,12.19-8.88,7.35-18.77,14.19-29.76,17.93-5.92,2.02-12.22,2.86-18.4,1.62-.48-.1-3.86.67-3.25,1.28,1.96,1.95,3.72,4.12,5.37,6.33,3.39,4.53,6.37,9.52,8.11,14.93,1.04,3.24,1.59,6.62,1.35,10.02-.03.47,1.89.02,1.97,0,7.53-2.06,14.95-4.61,22.23-7.4,6.54-2.5,12.99-5.26,19.22-8.44,5.83-2.98,11.58-6.34,16.57-10.6,4.2-3.58,8.35-8.22,8.91-13.95.03-.35-3.57-.05-3.67.98-.47,4.85-3.77,8.96-7.23,12.15-4.59,4.24-10.01,7.53-15.51,10.45-10.65,5.65-22.03,9.94-33.49,13.62-.57.18-1.13.36-1.7.54-.24.07-.48.15-.71.22-.11.04-.23.07-.34.11-.49.15.26-.08-.11.03-.77.24-1.55.47-2.32.7-.7.21-1.4.41-2.11.6h1.97c.77-10.93-6.08-21.45-13.02-29.32-.65-.74-1.31-1.48-2.01-2.18l-3.25,1.28c12.5,2.51,25.54-2.41,36.28-8.5,9.62-5.45,18.42-12.41,26.42-20.01,1.68-1.6,3.35-3.22,4.92-4.92l-3.38.78c4.53,3.78,7.86,9.04,10.86,14.05,1.78,2.97,3.48,6.01,5,9.12.39.81,3.91-.48,3.67-.98h0Z"/>
      </g>
      <g>
        <polyline class="cls-8" points="1058.59 645.81 1052.6 643.01 1046.61 722.16 1057.89 722.81"/>
        <path class="cls-15" d="M1060.02,644.8c-2-.93-3.99-1.87-5.99-2.8-.93-.44-3.17-.21-3.28,1.18-.67,8.91-1.35,17.81-2.02,26.72-1.08,14.2-2.15,28.41-3.23,42.61-.25,3.27-.5,6.54-.74,9.82-.05.67.59,1.05,1.2,1.09,3.76.22,7.52.43,11.28.65.84.05,2-.26,2.4-1.09.37-.79-.33-1.37-1.08-1.42-3.76-.22-7.52-.43-11.28-.65l1.2,1.09c.67-8.91,1.35-17.81,2.02-26.72,1.08-14.2,2.15-28.41,3.23-42.61.25-3.27.5-6.54.74-9.82l-3.28,1.18c2,.93,3.99,1.87,5.99,2.8.84.39,1.86.3,2.62-.26.5-.37,1.08-1.37.23-1.77h0Z"/>
      </g>
      <ellipse class="cls-32" cx="1061.01" cy="663.51" rx="2.94" ry="3.75" transform="translate(318.69 1670.95) rotate(-85.64)"/>
      <ellipse class="cls-32" cx="1059.82" cy="678.98" rx="2.94" ry="3.75" transform="translate(302.17 1684.07) rotate(-85.64)"/>
      <ellipse class="cls-32" cx="1058.78" cy="692.64" rx="2.94" ry="3.75" transform="translate(287.59 1695.66) rotate(-85.64)"/>
      <ellipse class="cls-32" cx="1057.6" cy="708.12" rx="2.94" ry="3.75" transform="translate(271.07 1708.78) rotate(-85.64)"/>
      <path class="cls-15" d="M963.02,695.97c-.97,12.82-1.06,25.71-1.29,38.56-.26,13.97-.39,27.95-1.05,41.91-.12,2.6-.47,5.24-.43,7.84.04,2.11.13,4.22.19,6.33l2.06-1.59c-.21.03-.43.04-.64.05-.12,0-.23.01-.35.02-.3.02.5,0-.04,0-.36,0-.72,0-1.08,0-2.35-.04-4.27-.3-6.51-.76-7.83-1.64-15.12-5.47-21.33-10.46-5.35-4.3-9.96-9.42-14-14.96l.02.82c1.58-2.33,3.15-4.66,4.73-6.99l-3.42.66c3.42,2.78,6.94,5.44,10.49,8.05,6.16,4.51,12.5,8.99,19.33,12.41,2.76,1.38,5.89,2.87,9.04,2.89.8,0,1.99-.25,2.41-1.03s-.34-1.19-1.02-1.19c-.97,0-1.83-.21-2.99-.58-1.35-.43-2.64-1.02-3.91-1.63-3.27-1.58-6.38-3.47-9.43-5.44-5.86-3.78-11.5-7.9-17.01-12.18-1.18-.92-2.35-1.84-3.51-2.78-.94-.76-2.76-.31-3.42.66-1.58,2.33-3.15,4.66-4.73,6.99-.18.27-.16.57.02.82,10.13,13.88,25.37,26.23,43.27,26.91,1.2.05,2.43.06,3.62-.09.84-.11,2.09-.57,2.06-1.59-.06-1.92-.11-3.84-.17-5.76s.24-4.16.34-6.25c.32-6.27.5-12.56.65-18.84.35-14.58.49-29.16.9-43.74.18-6.5.38-13.01.87-19.49.12-1.59-3.58-.92-3.68.42h0Z"/>
      <path class="cls-18" d="M1156.34,566.63c-5.66,4.08-12.14,6.67-17.79,10.78-5.65,4.11-10.65,10.39-10.83,17.74-.1,3.91,1.18,7.69,2.62,11.26,2.39,5.9,5.29,11.55,8.65,16.86.67,1.06,1.41,2.15,2.5,2.67,2.21,1.04,4.65-.72,6.5-2.43,3.96-3.65,7.77-7.5,11.39-11.54,5.44-6.06,10.75-13.28,10.94-21.7.18-7.65-3.92-14.52-7.86-20.83"/>
      <path class="cls-18" d="M1153.46,605.39c1.74,7.05,3.27,14.27,2.57,21.46-.7,7.19-3.94,14.45-10.14,18.7-4.18,2.87-9.55,4.18-14.71,3.61-.61-.07-1.23-.17-1.73-.51-.48-.33-.76-.84-1.02-1.34-4.95-9.45-9.32-14.22-7.85-24.62.22-1.56,2.17-7.85,3.01-9.2,2.31-3.74,8.44-5.84,12.51-7.88"/>
      <path class="cls-18" d="M1142.75,639.31c1.43,5.56,2.7,11.25,2.14,16.92-.56,5.67-3.2,11.38-8.27,14.72-3.42,2.25-7.81,3.28-12.04,2.83-.5-.05-1.01-.13-1.41-.4-.39-.26-.63-.67-.84-1.06-4.07-7.46-7.76-11.26-6.57-19.46.18-1.23.87-3.44,1.55-4.5,1.89-2.94,7.91-7.3,11.24-8.9"/>
      <path class="cls-18" d="M1131.63,663.93c1.43,5.56,2.7,11.25,2.14,16.92-.56,5.67-3.2,11.38-8.27,14.72-3.42,2.25-7.81,3.28-12.04,2.83-.5-.05-1.01-.13-1.41-.4-.39-.26-.63-.67-.84-1.06-4.07-7.46-7.76-11.26-6.57-19.46.18-1.23.87-3.44,1.55-4.5,1.89-2.94,7.91-7.3,11.24-8.9"/>
      <path class="cls-18" d="M1117.19,696.81c1.02,4.85,2.59,14.87-1.49,17.7-4.07,2.83-8.88,4.66-12.4,8.15-2.56,2.53-4.27,5.77-5.94,8.96-1.12-9.54-1.62-13.74-1.48-23.34.03-2.33,2.91-9.68,4.33-11.53,1.42-1.84,7.4-5.28,9.64-5.92,1.7-.48-1.24,1.18.49,1.51,1.73.33,1.77,1.68,1.82,3.44"/>
      <path class="cls-18" d="M1146.02,504.44s-14.7-15.79-26.15-19.96l7.67-29.25-19.04,23.53s-24-5.93-62.88-9.99c-5.4-.56-17.95-.9-17.95-.9-1.95-10.51,15.06-36.85,31.31-46.01,19.53-11,42.48,4.22,42.48,4.22l50.26,22.73s12,38.73-5.7,55.63Z"/>
      <path class="cls-24" d="M1212.31,765.6c5.31,31.28,4.96,76.53.56,106.67-18.96-7.88-38.48-14.6-58.69-11.07-2.07-17.36-4.13-62.53-6.94-91.61l65.07-3.99Z"/>
      <path class="cls-24" d="M1182.7,876.83c-5.41-8.83-16.58-12.94-24.76-19.72l-146.21,20.22,4.67,33.07s113.57,17.9,162.48,8.06c2.11-.42,10.1-8.03,12.87-9.49-3.61-11.24-2.91-22.13-9.04-32.14Z"/>
      <path class="cls-24" d="M1213.64,842.05s.82,38.72-3.53,52.42c-4.36,13.69-19.74,23.22-31.45,24.05-26.69,1.9-29.45-28.89-29.45-28.89l6.82-47.75,57.61.18Z"/>
      <path class="cls-13" d="M1152.1,856.92c3.17,1.5,6.38,3.16,8.7,5.85s3.77,6.12,5.3,9.31c.3.63,2.05.07,1.78-.48-1.56-3.27-3.04-6.77-5.43-9.54s-5.69-4.49-8.94-6.03c-.38-.18-.92-.06-1.26.16-.24.15-.54.53-.15.72h0Z"/>
      <path class="cls-8" d="M1163.34,641.9s47.17,8.68,59.67,66.8c12.51,58.12,5.66,96.54,5.66,96.54,0,0-35.37,12.04-84.21-.89-10.05-2.66-2.16-76.65,1.68-101.93,2.24-14.76,16.47-31.76,24.29-44.48,3.74-6.08-11.09-13.12-7.08-16.04Z"/>
      <path class="cls-15" d="M1172.56,670.13c-8.83,3.48-14.86,10.89-18.91,19.22-2.29,4.73-4.44,9.53-6.04,14.54-1.37,4.29-1.97,8.61-2.44,13.07-2.02,19.2-3.11,38.56-2.69,57.87.12,5.39.37,10.77.77,16.15.21,2.86.44,5.71.67,8.57.1,1.23.2,2.47.31,3.7.06.74.11,1.21.76,1.57,3.54,1.97,7.59,3.27,11.57,3.94,9.87,1.64,19.88,2.68,29.88,3.12,7.21.32,14.46.33,21.64-.32,6.56-.6,13.2-1.71,19.33-4.19,1.28-.52,2.53-1.11,3.74-1.79.61-.34,1.11-.76,1.04-1.51-.45-4.98-.9-9.95-1.35-14.93-.08-.87-1.62-.86-2.15-.7-8.14,2.53-16.61,4.32-25.04,5.51-7.16,1.01-14.3,1.38-21.52.91-7.54-.49-15.04-1.45-22.48-2.75-3.67-.64-7.35-1.33-10.97-2.22-.88-.22-1.98-.03-2.59.7-.51.59-.4,1.48.45,1.68,10.2,2.5,20.75,4.04,31.21,4.91,7.57.62,15.07.61,22.62-.29,6.47-.77,12.89-1.98,19.23-3.48,3.27-.77,6.54-1.6,9.75-2.59l-2.15-.7c.45,4.98.9,9.95,1.35,14.93l1.04-1.51c-5.36,3-11.55,4.31-17.6,5.07-7.03.89-14.16,1.03-21.24.82-10.75-.32-21.51-1.4-32.13-3.11-.85-.14-1.74-.24-2.58-.43-1.88-.42-3.71-1.19-5.48-1.93-.75-.31-1.49-.64-2.23-.98-.53-.24-.32-.14-.74-.34l.41.53c-.87-10.23-1.67-20.46-1.83-30.73-.15-9.74.09-19.49.61-29.21.44-8.25,1.09-16.48,1.92-24.7.38-3.8.69-7.63,1.6-11.34,1.19-4.82,3.1-9.44,5.17-13.94,2.08-4.53,4.23-9.01,7.47-12.84,3.06-3.61,6.81-6.5,11.22-8.24.67-.27,1.38-1.1.89-1.81-.53-.76-1.79-.5-2.48-.23h0Z"/>
      <rect class="cls-26" x="984.85" y="797.79" width="7.87" height="117.18" transform="translate(655.95 -408.65) rotate(34.36)"/>
      <path class="cls-24" d="M1034.18,880.92s-23.48-5.92-25.44-7.37c-1.96-1.45-24.06-23.86-26.49-24.44-2.44-.58-21.71,2.69-21.71,2.69l-10.63,2.73s-11.73,4.94-12.87,8.5c-1.14,3.56,2.68,7.2,5.13,7.76,1.67.5,3.19,1.41,4.42,2.63-1.69,1.5-2.7,3.6-2.83,5.85.38,2.85,6.28,4.96,6.28,4.96-.81,2.23-1.19,4.61-1.12,7,.4,2.86,4.31,4.25,4.31,4.25,0,0-3.82,6.24-3.12,8.57.69,2.34,9.6,7.81,20.74,8.47,8.02,1.32,9.58,1.94,13.52,1.85,6.41-.28,42.27-4.69,42.27-4.69l2.95-20.88"/>
      <path class="cls-13" d="M907.61,796c6.54,3.9,6.2,12.51,5.71,19.09-.07.99,2.13.61,2.19-.23.52-7.03.73-15.87-6.19-20-.69-.41-2.67.57-1.71,1.14h0Z"/>
      <path class="cls-24" d="M787.07,777.31l-14.96-11.38s-25.92-2.24-36.6-7.9c-7.57-4.38-14.5-9.78-20.58-16.06l-24.53-12.42s-13.53.69-14.06-3.53c-.53-4.22,4.47-5.81,9.32-7.35,4.85-1.54,75.46.77,75.46.77-4.9-5.44-10.26-10.44-16.01-14.97-8.89-6.88-9.42-15.09-3.39-16.28,3.72-.73,18.57,6.13,20.65,12.3,2.09,6.17,16.97,8.42,24.97,16.62,8,8.19,8.6,23.79,8.6,23.79,3.68,4.88,10.29,10.58,10.29,10.58-1.82,10.9-19.16,25.82-19.16,25.82Z"/>
      <path class="cls-13" d="M704.95,732.18c-.19-.26.5-1.41.64-1.62.46-.71,1.11-1.33,1.84-1.76,1.33-.79,3-.99,4.52-1.03,3.68-.08,7.47.92,10.8,2.44,3.26,1.48,6.35,3.4,9.18,5.58,2.74,2.12,5.5,4.4,7.58,7.19.43.58,2.54-.16,2.03-.85-2.52-3.38-6.07-6.21-9.51-8.61s-7.45-4.62-11.66-5.86c-3.69-1.08-7.79-1.58-11.56-.59-1.68.44-3.25,1.21-4.46,2.49-.61.64-2.13,2.49-1.42,3.47.42.58,2.53-.15,2.03-.85h0Z"/>
      <path class="cls-13" d="M726.69,727.46c-.14.35-1.36.47-.62.47.27,0,.55-.01.82,0,.79.01,1.59.07,2.38.13,2.32.18,4.64.45,6.94.78,2.06.29,4.13.62,6.17,1.06.34.07,2.56.46,2.58.77.03.51,2.23.1,2.18-.58-.05-.73-2.79-1.07-3.24-1.16-2.67-.56-5.37-.97-8.07-1.32-2.54-.32-5.11-.61-7.67-.67-.89-.02-3.2-.19-3.63.88-.2.5,1.91.27,2.16-.34h0Z"/>
      <path class="cls-13" d="M748.34,741.29c.21.03.09.1.09-.14,0-.19.02-.37.05-.56.11-.65.32-1.3.56-1.91.77-2,1.96-3.84,3.43-5.39,1.53-1.61,3.4-2.96,5.48-3.77.65-.25,1.22-.42,1.78-.51.1-.02.2,0,.3-.02.08-.02-.05.03-.06-.03.05.42,2.25-.02,2.18-.58-.08-.61-2.21-.13-2.51-.06-1.79.38-3.49,1.08-5.08,1.98-3.56,2.02-6.52,5.37-7.85,9.27-.12.35-.93,2.47-.16,2.58.5.07,1.07-.06,1.52-.28.15-.08.77-.49.27-.56h0Z"/>
      <path class="cls-13" d="M794.42,739.38c-1.13,5.36-4.21,11.81-10.33,12.57-.42.05-1.15.29-1.23.79s.62.59.96.55c3.31-.41,6.35-2.16,8.51-4.69,2.29-2.69,3.56-6.03,4.28-9.45.19-.91-2.02-.58-2.19.24h0Z"/>
    </g>
    <g id="Layer_2" data-name="Layer 2">
      <rect class="cls-3" x="-10.74" y="929.99" width="1354.13" height="111.18" transform="translate(1332.65 1971.15) rotate(180)"/>
      <rect class="cls-33" x="-32.49" y="914.43" width="1419.1" height="45.07"/>
    </g>
  </g>
</svg>