<?xml version="1.0" encoding="UTF-8"?>
<svg xmlns="http://www.w3.org/2000/svg" viewBox="0 0 1334 1000">
  <defs>
    <style>
      .cls-1 {
        fill: #906143;
      }

      .cls-1, .cls-2, .cls-3, .cls-4, .cls-5, .cls-6, .cls-7, .cls-8, .cls-9, .cls-10, .cls-11, .cls-12, .cls-13, .cls-14, .cls-15, .cls-16, .cls-17, .cls-18, .cls-19, .cls-20, .cls-21, .cls-22, .cls-23, .cls-24, .cls-25, .cls-26, .cls-27, .cls-28, .cls-29, .cls-30, .cls-31, .cls-32, .cls-33, .cls-34, .cls-35, .cls-36, .cls-37, .cls-38, .cls-39, .cls-40, .cls-41, .cls-42, .cls-43, .cls-44, .cls-45, .cls-46 {
        stroke-width: 0px;
      }

      .cls-2 {
        fill: #1c3f1c;
      }

      .cls-3 {
        fill: #634836;
      }

      .cls-4 {
        fill: #d3a98c;
      }

      .cls-5 {
        fill: #874d3e;
      }

      .cls-6 {
        fill: #010101;
      }

      .cls-7 {
        fill: #13100f;
      }

      .cls-8 {
        fill: #e2ac91;
      }

      .cls-9 {
        fill: #c7cd8d;
      }

      .cls-10 {
        fill: #411436;
      }

      .cls-11 {
        fill: #87654d;
      }

      .cls-12 {
        fill: #c95744;
      }

      .cls-47 {
        stroke-width: 4.42px;
      }

      .cls-47, .cls-48 {
        fill: none;
        stroke: #ce683b;
        stroke-miterlimit: 10;
      }

      .cls-13 {
        fill: #51352d;
      }

      .cls-14 {
        fill: #cec6be;
      }

      .cls-15 {
        fill: #f2ebd1;
      }

      .cls-16 {
        fill: #6d594e;
      }

      .cls-17 {
        fill: #ce8d2a;
      }

      .cls-18 {
        fill: #a9a8a9;
      }

      .cls-19 {
        fill: #a38978;
      }

      .cls-20 {
        fill: #8c694b;
      }

      .cls-48 {
        stroke-width: 4.63px;
      }

      .cls-21 {
        fill: #151210;
      }

      .cls-22 {
        fill: #0f0a09;
      }

      .cls-23 {
        fill: #000;
      }

      .cls-24 {
        fill: #999;
      }

      .cls-25 {
        fill: #804840;
      }

      .cls-26 {
        fill: #1d170f;
      }

      .cls-27 {
        fill: #99382f;
      }

      .cls-28 {
        fill: #6c4239;
      }

      .cls-29 {
        fill: #231f20;
      }

      .cls-30 {
        fill: #dbc1a8;
      }

      .cls-31 {
        fill: #80483f;
      }

      .cls-32 {
        fill: #13110f;
      }

      .cls-33 {
        fill: #513835;
      }

      .cls-34 {
        fill: #a67351;
      }

      .cls-35 {
        fill: #322313;
      }

      .cls-36 {
        fill: #0f122c;
      }

      .cls-37 {
        fill: #757575;
      }

      .cls-38 {
        fill: #462d1f;
      }

      .cls-39 {
        fill: #eae4d6;
      }

      .cls-40 {
        fill: #21572b;
      }

      .cls-41 {
        fill: #fff;
      }

      .cls-42 {
        fill: #2a3784;
      }

      .cls-43 {
        fill: #8d1827;
      }

      .cls-44 {
        fill: #7f7f7e;
      }

      .cls-45 {
        fill: #0b0b0b;
      }

      .cls-46 {
        fill: #f1eef7;
      }
    </style>
  </defs>
  <g id="Layer_6" data-name="Layer 6">
    <polyline class="cls-39" points="-22.28 1112.22 -22.28 -165.59 1489.93 -165.59 1489.93 1112.22"/>
    <g>
      <rect class="cls-41" x="1016.44" y="-65.97" width="165.53" height="202.02"/>
      <path class="cls-34" d="M1015.1-64.01h158.77c2.14,0,4.34.16,6.48,0,.09,0,.19,0,.28,0l-2.11-1.53v193.79c0,2.62-.12,5.27,0,7.89,0,.11,0,.23,0,.34l4.8-2.39h-158.77c-2.14,0-4.34-.16-6.48,0-.09,0-.19,0-.28,0l2.11,1.53v-5.41c0-4.91,0-9.81,0-14.72V-41.52c0-5.55,0-11.1,0-16.65,0-2.63,0-5.26,0-7.89,0-.11,0-.23,0-.34,0-1.52-1.79-1.63-2.98-1.48-.98.12-3.92.91-3.92,2.35v193.79c0,2.63,0,5.26,0,7.89,0,.11,0,.23,0,.34,0,1.16,1.07,1.53,2.11,1.53h145.13c6.7,0,13.41.07,20.11,0,.09,0,.19,0,.28,0,1.08,0,2.14-.24,3.1-.74.54-.28,1.7-.9,1.7-1.66V-58.17c0-2.63,0-5.26,0-7.89,0-.11,0-.23,0-.34,0-1.16-1.07-1.53-2.11-1.53h-145.13c-6.7,0-13.41-.07-20.11,0-.09,0-.19,0-.28,0-1.54,0-3.66.5-4.56,1.89s.75,2.04,1.87,2.04Z"/>
    </g>
    <rect class="cls-9" x="1056.38" y="-26.85" width="86.29" height="128.24"/>
    <path class="cls-15" d="M1056.06,14.44c4.42.28,8.78,1.46,12.7,3.53,10.59,5.6,17.57,17.01,28.78,21.22,8.55,3.21,18.32,1.6,26.57-2.31,6.68-3.17,12.56-7.73,18.24-12.51V-30.67h-86.29V14.44Z"/>
    <g>
      <rect class="cls-41" x="1225.25" y="-65.97" width="165.53" height="202.02"/>
      <path class="cls-34" d="M1223.91-64.01h158.77c2.14,0,4.34.16,6.48,0,.09,0,.19,0,.28,0l-2.11-1.53v193.79c0,2.62-.12,5.27,0,7.89,0,.11,0,.23,0,.34l4.8-2.39h-158.77c-2.14,0-4.34-.16-6.48,0-.09,0-.19,0-.28,0l2.11,1.53V-58.17c0-2.63,0-5.26,0-7.89,0-.11,0-.23,0-.34,0-1.52-1.79-1.63-2.98-1.48-.98.12-3.92.91-3.92,2.35v193.79c0,2.63,0,5.26,0,7.89,0,.11,0,.23,0,.34,0,1.16,1.07,1.53,2.11,1.53h145.13c6.7,0,13.41.07,20.11,0,.09,0,.19,0,.28,0,1.08,0,2.14-.24,3.1-.74.54-.28,1.7-.9,1.7-1.66V-58.17c0-2.63,0-5.26,0-7.89,0-.11,0-.23,0-.34,0-1.16-1.07-1.53-2.11-1.53h-145.13c-6.7,0-13.41-.07-20.11,0-.09,0-.19,0-.28,0-1.54,0-3.66.5-4.56,1.89s.75,2.04,1.87,2.04Z"/>
    </g>
    <rect class="cls-9" x="1265.19" y="-26.85" width="86.29" height="128.24"/>
    <path class="cls-15" d="M1265.04,36.45s0,.05,0,.08c0,0,5.9,5.36,11.86,4.23,8-1.52,10.01-4.78,11.88-6.15,7.72-5.65,15.83-10.18,25.6-7.88,4.9,1.16,12.93,8.01,17.52,9.13,5.32,1.3,8.45,1.12,13.42-.82,1.45-.57,4.91-3.29,5.98-4.43l-.15-61.28c-.11,0-86.29,0-86.29,0l.17,67.12Z"/>
  </g>
  <g id="Layer_7" data-name="Layer 7">
    <path class="cls-14" d="M786.43,258.03l-377.93-1.16-39.51-.05c-85.06.02-74.61,84.33-76.74,194.6-7.7-6.44-85.01-5.29-107.87-5.29-.54.06-1.06.16-1.58.24-.04,0-.08,0-.12,0-37.14,0-67.25,32.75-67.25,73.15,0,28.35,14.84,52.91,36.52,65.06,4.51,20.13,4.25,57.44-.92,77.63-10.8,1.07-21.13,5.54-29.43,13.14-12.11,11.1-21.49,25.56-21.52,44.8v54.04c.07,17.45,9.09,32.71,22.06,37.32l-11.18,140.96,672.94-6.08c.51-13.82,1-64.14,1.39-77.96.9-31.81,7.93-63.61,7.93-95.43l-6.79-514.98Z"/>
    <path class="cls-14" d="M772.44,258.03l377.93-1.16,39.51-.05c85.06.02,74.61,84.33,76.74,194.6,7.7-6.44,85.01-5.29,107.87-5.29.54.06,1.06.16,1.58.24.04,0,.08,0,.12,0,37.14,0,67.25,32.75,67.25,73.15,0,28.35-14.84,52.91-36.52,65.06-4.51,20.13-4.25,54.17.92,74.36,10.8,1.07,21.13,5.54,29.43,13.14,12.11,11.1,21.49,30.95,21.52,50.19v51.92c-.07,17.45-9.09,32.71-22.06,37.32l11.18,140.96-672.94-6.08c-.51-13.82-1-64.14-1.39-77.96-.9-31.81-7.93-63.61-7.93-95.43l6.79-514.98Z"/>
    <path class="cls-44" d="M122.88,812.89h1104c14.92,0,29.84.1,44.75,0,.65,0,1.3,0,1.96,0,1.44,0,4.33-2.17,1.61-2.17H171.2c-14.92,0-29.84-.1-44.75,0-.65,0-1.3,0-1.96,0-1.44,0-4.33,2.17-1.61,2.17h0Z"/>
    <path class="cls-44" d="M149.99,663.25c11.27-.02,22.54-.04,33.81-.06,30.39-.05,60.79-.1,91.18-.15,45.24-.08,90.48-.15,135.72-.23,54.82-.09,109.64-.18,164.45-.28,60.45-.1,120.9-.2,181.35-.3,60.61-.1,121.21-.2,181.82-.31,56.9-.1,113.79-.19,170.69-.29,47.76-.08,95.52-.16,143.27-.24,34.58-.06,69.16-.12,103.74-.17,16.27-.03,32.55.06,48.83-.08.71,0,1.42,0,2.13,0,1.5,0,4.6-2.26,1.72-2.25-11.27.02-22.54.04-33.81.06-30.39.05-60.79.1-91.18.15-45.24.08-90.48.15-135.72.23l-164.45.28c-60.45.1-120.9.2-181.35.3-60.61.1-121.21.2-181.82.31-56.9.1-113.79.19-170.69.29-47.76.08-95.52.16-143.27.24l-103.74.17c-16.27.03-32.55-.06-48.83.08-.71,0-1.42,0-2.13,0-1.5,0-4.6,2.26-1.72,2.25h0Z"/>
    <rect class="cls-13" x="-42.37" y="948.1" width="1722" height="185.3"/>
    <path class="cls-35" d="M1149.14,510.1c-10.16-.37-20.69.61-30.23,4.32-4.27,1.66-8.41,4.06-11.46,7.54-3.71,4.23-5.59,10.18-6.92,15.55-2.91,11.71-2.71,23.99-3.04,36s-.69,24.84-1.03,37.26l-1.19,43.05c-.22,7.95-.6,15.92-.66,23.88,0,.12,0,.23,0,.35-.06,2.05,3.8,1.55,3.85-.25.18-6.4.35-12.8.53-19.2.38-13.8.76-27.59,1.14-41.39.36-13.09.72-26.18,1.09-39.27.24-8.86.32-17.77,1.03-26.61.52-6.42,1.45-12.89,3.62-18.98,1.67-4.67,3.78-8.93,7.85-11.91,3.76-2.75,8.29-4.34,12.77-5.44,4.79-1.18,9.71-1.76,14.63-1.98,2.25-.1,4.51-.12,6.76-.04.92.03,2.06-.24,2.46-1.19.34-.82-.32-1.66-1.18-1.69h0Z"/>
    <path class="cls-35" d="M1079.46,514.45c-7.49,10.39-15.06,21.01-19.11,33.3-3.99,12.11-4.2,25.08-4.63,37.71-.7,20.43-1.05,40.88-1.44,61.32-.2,10.46-.39,20.91-.62,31.37-.04,1.64,3.77.89,3.8-.44.43-19.94.75-39.88,1.19-59.82.22-9.9.45-19.8.76-29.7.37-11.77.45-23.76,3.17-35.27,3.39-14.4,11.91-26.51,20.43-38.32.54-.75-.46-1.16-1.05-1.2-.88-.06-1.97.32-2.5,1.06h0Z"/>
    <path class="cls-33" d="M930.62,589.82s.1.04.15.04c0-.13,0-.25,0-.38-.05.11-.1.23-.15.34Z"/>
    <path class="cls-25" d="M932.59,800.16c1.89.63,3.66,1.64,5.21,2.89.22.22.44.34.63.77l-.31-.19c1.63-.3,3.35.04,4.78.84-1.54-.47-3.16-.65-4.68-.33l-.21.04c-.09-.29-.25-.47-.57-.73-1.52-1.22-3.17-2.3-4.86-3.29h0Z"/>
    <rect class="cls-40" x="922.42" y="656.07" width="159.56" height="21.94" rx="4.51" ry="4.51"/>
    <rect class="cls-42" x="931.94" y="637.5" width="129.92" height="14.93" rx="3.35" ry="3.35"/>
    <path class="cls-2" d="M935.49,664.15c-.5,1.99.69,4.43,2.63,5.2.95.38,1.93.04,2.54-.75.86-1.11,1.51-2.47,2.23-3.67l-.58.08c.53.62,1.06,1.24,1.58,1.86s1.01,1.32,1.61,1.85c.84.74,2.11.66,2.97-.01,1.09-.85.37-2.66,1.89-3.09,1.58-.45,2.19,1.31,3.27,2.02.88.58,2.22.79,3.12.16.82-.57.91-1.85,2.08-1.9,1.38-.06,1.93,1.22,2.87,1.95.87.68,2.08.85,3.07.28,1.12-.65,1.68-2.42,3.26-2.04.55.13.85.58,1.19.99.36.43.77.73,1.31.88.46.13.66-.59.2-.71-.95-.27-1.25-1.34-2.12-1.74-1-.46-2.14-.08-2.9.65-.36.35-.61.79-1,1.11-.57.47-1.34.59-2.03.3-1.03-.44-1.48-1.59-2.48-2.09-.9-.46-2.07-.48-2.81.29-.28.29-.43.65-.65.98-.4.6-1.04.77-1.74.64-1.4-.27-1.81-1.64-2.96-2.27-.98-.54-2.28-.36-3.02.51-.43.5-.4,1.09-.54,1.7-.19.85-1.08,1.38-1.94,1.14-.75-.21-1.32-1.19-1.8-1.74-.63-.74-1.27-1.49-1.9-2.23-.16-.19-.47-.12-.58.08-.54.9-1.08,1.8-1.61,2.7-.48.81-1.01,1.79-2.14,1.45-.83-.25-1.57-1.15-1.97-1.89s-.54-1.62-.32-2.46c.12-.46-.6-.66-.71-.2h0Z"/>
    <path class="cls-2" d="M1067.86,656.33c0,7.34,0,14.67,0,22.01,0,.61.95.61.95,0,0-7.34,0-14.67,0-22.01,0-.61-.95-.61-.95,0h0Z"/>
    <path class="cls-2" d="M1063.64,656.33c-.16,7.34-.12,14.68.12,22.02.02.61.97.61.95,0-.25-7.34-.29-14.68-.12-22.02.01-.61-.94-.61-.95,0h0Z"/>
    <path class="cls-36" d="M1035.93,637.92v14.01c0,.61.95.61.95,0v-14.01c0-.61-.95-.61-.95,0h0Z"/>
    <path class="cls-36" d="M1031.32,637.92v14.01c0,.61.95.61.95,0v-14.01c0-.61-.95-.61-.95,0h0Z"/>
    <path class="cls-36" d="M944.6,643.82c-.17-1.14-1.66-1.47-2.5-.84-.94.71-1.06,2.14-.73,3.19.35,1.11,1.21,2.12,2.32,2.53,1.2.45,2.37-.03,3.17-.97.4-.47.72-1.02,1.13-1.49s1.24-1.11,1.91-.8c.49.23.64.91.97,1.3s.78.62,1.29.54c.95-.14,1.37-1.19,1.99-1.79,1.21-1.17,2.05,1.11,2.65,1.85.94,1.17,2.28,1.41,3.22.12.94-1.28,2.55-1.87,4.01-1.03.53.3,1.01-.52.48-.82-.95-.54-2.08-.66-3.12-.34-.45.14-.88.36-1.25.65-.48.37-.72.94-1.17,1.33-1.01.87-2-1.49-2.46-2.07-.62-.77-1.58-1.3-2.53-.75-.74.43-1.02,1.32-1.7,1.79-.4.27-.65-.02-.86-.38-.27-.45-.49-.91-.96-1.18-.91-.54-2.03-.08-2.77.55-.85.73-1.24,1.95-2.24,2.52-1.26.71-2.64-.49-3.09-1.63-.23-.59-.29-1.36,0-1.94.26-.5,1.21-.86,1.33-.06.09.6,1.01.35.92-.25h0Z"/>
    <path class="cls-44" d="M290.21,451.98c4.11,6.23,7.37,13.01,10.36,19.84,3.16,7.24,5.98,14.64,8.41,22.16,2.75,8.55,4.34,17.23,5.04,26.18.57,7.2.77,14.43.98,21.65.35,12.08.57,24.16.78,36.24.25,14.05.46,28.1.67,42.15.18,11.64.34,23.29.56,34.93.02,1.07.04,2.14.06,3.21.01.52,4.11-.04,4.08-1.09-.22-11.06-.38-22.12-.55-33.17-.21-13.99-.42-27.98-.66-41.97-.21-12.55-.44-25.1-.77-37.65-.41-15.53-.3-31.53-4.59-46.58-2.09-7.32-4.71-14.51-7.57-21.55-2.95-7.25-6.19-14.43-10.11-21.21-.83-1.44-1.7-2.85-2.61-4.24-.6-.92-4.33.73-4.08,1.09h0Z"/>
    <path class="cls-44" d="M1348.36,449.39c-12.87-.46-25.52,5.68-33.84,15.38-6.58,7.68-9.59,17.95-12.13,27.55-3.55,13.4-5.75,27.18-6.85,40.99-.65,8.11-.72,16.22-.72,24.35v12.8c0,7,0,14,0,21.01v24.64c0,8.04,0,16.08,0,24.12v19c0,3.23,0,6.45,0,9.68,0,.14,0,.29,0,.43,0,1.73,4.09.88,4.09-.5,0-7.78,0-15.55,0-23.33v-47.49c0-12.6,0-25.2,0-37.8,0-3.78-.06-7.56-.02-11.34.17-14.78,1.73-29.56,4.6-44.06,2.04-10.29,4.55-20.8,8.85-30.42,4.78-10.71,14.47-19.07,25.93-21.81,2.79-.67,5.65-.93,8.51-.83.87.03,2.23-.3,2.69-1.13s-.4-1.21-1.12-1.24h0Z"/>
    <path class="cls-44" d="M1261.85,451.65c-4.59,6.96-8.16,14.6-11.4,22.26-3.29,7.78-6.24,15.73-8.63,23.83-4.61,15.63-4.51,32.28-4.91,48.45-.32,13.08-.53,26.15-.74,39.23-.23,14.82-.43,29.63-.63,44.45-.16,11.87-.32,23.74-.53,35.61-.02,1.03-.04,2.06-.06,3.1,0,.48,4.06-.01,4.08-1.09.22-11.13.36-22.26.52-33.38.2-14.65.4-29.29.62-43.94.2-13.57.42-27.15.72-40.72.11-4.89.23-9.77.4-14.66.35-10.2.72-20.47,2.73-30.51,1.72-8.6,4.8-16.98,7.99-25.13,3.16-8.06,6.67-16.05,10.97-23.57.91-1.59,1.86-3.16,2.87-4.69.37-.56-1.47-.31-1.6-.28-.71.13-1.97.38-2.41,1.05h0Z"/>
    <path class="cls-44" d="M214.57,451.58c11.86-.42,23.37,5.62,30.75,14.74,5.87,7.26,8.62,16.75,10.99,25.62,3.32,12.37,5.45,25.08,6.67,37.83.85,8.97,1.04,17.92,1.04,26.92,0,10.06,0,20.11,0,30.17,0,15.18,0,30.36,0,45.54,0,9.04,0,18.08,0,27.11,0,.14,0,.27,0,.41,0,1.73,4.09.88,4.09-.5,0-7.69,0-15.38,0-23.07,0-15.26,0-30.51,0-45.77v-33.27c0-6.94,0-13.86-.42-20.8-.85-13.49-2.77-26.95-5.88-40.11-1.2-5.07-2.58-10.1-4.25-15.03-1.32-3.89-2.8-7.79-4.83-11.37-5.82-10.27-16.42-17.82-27.99-20.1-2.82-.56-5.71-.8-8.58-.7-.89.03-2.21.26-2.69,1.13-.45.8.38,1.27,1.12,1.24h0Z"/>
    <g>
      <polygon class="cls-43" points="1649.19 1290.88 -54.14 1290.88 13.74 967.96 1581.31 967.96 1649.19 1290.88"/>
      <polygon class="cls-48" points="1625.97 1272.93 -30.23 1272.93 31.26 978.94 1564.48 978.94 1625.97 1272.93"/>
      <polygon class="cls-47" points="1609.71 1262 -14.93 1260.85 41.09 989.45 1553.69 989.45 1609.71 1262"/>
    </g>
  </g>
  <g id="Layer_9" data-name="Layer 9">
    <path class="cls-8" d="M551,917.78c1.62,4.76-3.8,15.42-5,20.84-1.38,6.23,7.57,10.94,15.07,13.35,6.31,2.03,9.51,1.81,16.28,1.3,8.84-.67,18.24-2.4,27.08-3.07,7.58-.57,31.38-3.06,38.86-2.05,11.65,1.57,18.74-.17,23.83-1.98,1.41-.5,2.3-.46,2.93-1.46,1.64-2.61,1.34-5.44-2.54-7.5-4.89-2.6-10.54,1.33-15.12-1.77-.82-.55-3.63-.94-4.56-1.32-1.83-.76-1.94-.74-3.99-.67-10.21.38-9.56-3.68-23.03-6.45-3.96-.81-25.97-7.75-29.66-9.19l.64-21.75-43.94.88,3.15,20.83"/>
    <path class="cls-8" d="M533.79,908.87l-.25,7c10.59,6.56,28.06,15.9,35.56,18.77,9.66,3.69,11.43,4.66,22.9,9.38,4.49,1.85,6.4,2.58,11.47,2.95,5.08.38,9.9-2.18,13.67,2.11,2.5,2.84,1.44,7.06-1.42,9.66-2.86,2.6-7.06,3.89-11.19,4.71-4.13.83-8.4,1.3-12.3,2.7-1.48.53-2.91,1.19-4.51,1.4-3.6.45-7.6-1.51-10.75,0-.89.43-1.59,1.1-2.48,1.53-1.33.64-2.95.7-4.49.62-11.11-.57-13.19-1.3-23.32-4.28-9.99-2.94-10.32-2.55-20.72-4.74-4.94-1.04-20.79,1.28-31.76-5.58-6.2-3.88,1.4-25.06,2-30.46,1.37-12.26-.42-11.44-.99-17.26,0,0,29.27,3.01,38.57,1.49Z"/>
    <g>
      <path class="cls-25" d="M576.95,968.47c2.45-.65,3.22-3.57,2.1-5.65s-3.57-3.18-5.62-4.03c-1.25-.52-2.53-.96-3.8-1.44-.36-.14-.86-.02-1.1.29-.23.29-.14.67.22.81,2.48.95,5.17,1.71,7.32,3.34.89.68,1.68,1.56,1.89,2.7.19,1.02-.19,2.53-1.32,2.83-.33.09-.72.4-.62.78s.61.45.93.36h0Z"/>
      <path class="cls-25" d="M587.61,968.26c1.36-.03,2.68-.62,3.29-1.89.54-1.14.52-2.57.31-3.79-.24-1.39-.81-2.46-1.88-3.4-1.55-1.36-3.53-2.02-5.46-2.64-2.19-.7-4.27-1.93-6.63-1.87-.29,0-.87.11-1.03.39s.14.35.39.34c1.78-.05,3.51.87,5.14,1.49s3.46,1.04,5.01,2.01c1.14.71,2.21,1.66,2.64,2.96.34,1.03.48,2.17.37,3.24-.09.84-.42,2.38-1.5,2.41-.29,0-.88.11-1.03.39s.14.35.39.34h0Z"/>
      <path class="cls-25" d="M596.01,966.06c3.04-1.04,4.07-4.73,2.62-7.44s-4.67-4.25-7.41-5.28c-1.76-.67-3.65-1.29-5.51-1.62-.8-.14-1.56.99-.52,1.18,1.79.32,3.62.94,5.32,1.59s3.31,1.43,4.72,2.55c1.19.94,2.23,2.19,2.47,3.73s-.41,3.63-1.98,4.17c-.31.11-.73.37-.63.77.1.37.62.46.93.35h0Z"/>
      <path class="cls-25" d="M604.15,964.5c3.21-1.33,6.1-5.72,3.87-9.05-.91-1.35-2.42-2.27-3.84-2.99-1.63-.83-3.36-1.46-5.1-2.02-.86-.27-1.73-.51-2.58-.79-1.09-.35-2.2-.81-3.37-.75-.86.05-1.21,1.15-.15,1.09.84-.05,1.73.38,2.51.63.67.22,1.35.41,2.02.61,1.49.46,2.96.96,4.39,1.58s2.85,1.34,3.95,2.42,1.48,2.29,1.26,3.78c-.31,2.06-1.73,3.81-3.64,4.6-.28.12-.59.47-.37.77s.76.22,1.05.1h0Z"/>
    </g>
    <path class="cls-25" d="M549.89,925.27c7.73,4.14,15.59,8.05,23.52,11.77,5.93,2.78,11.92,5.47,18.07,7.71,2.36.86,4.75,1.67,7.19,2.23,1.59.37,3.37.78,5.01.48,3.13-.57,6.53-1.34,9.65-.25,3.03,1.06,5.58,4.14,4.22,7.41-.33.8,1.22.77,1.48.16,1.26-3.03-.06-5.58-2.58-7.35-2.65-1.86-5.76-2.02-8.91-1.69-1.98.2-3.69.83-5.42.66-2.17-.21-4.3-.85-6.37-1.51-6.1-1.95-11.99-4.54-17.81-7.19-5.94-2.71-11.8-5.57-17.63-8.52-3.08-1.56-6.15-3.14-9.2-4.77-.57-.31-1.94.48-1.2.87h0Z"/>
    <path class="cls-45" d="M537.01,723.58c-1.18,6.09-2.71,38.91-2.78,45.13-.2,16.8.95,41.43,2.15,49.95,2.04,14.41,6.42,52.65,7.29,57.71l2.63,38.86c11.83-.14,36.32-.39,48.14-.69.33-27.24,22.62-140.85,25.56-192.79,2.35-41.46-.59-59.6-.59-59.6l-89.42-17.18,9.28,66.96-2.26,11.66Z"/>
    <path class="cls-45" d="M478.82,715.05c-1.18,6.09-2.72,16.87-2.79,23.09-.2,16.8,2.43,75.23,3.64,83.74,2.04,14.41,6.42,52.65,7.29,57.71l2.63,38.86c11.83-.14,44.4-.39,56.22-.69.33-27.24,11.99-126.16,14.94-178.1,2.35-41.46.87-74.29.87-74.29l-99.29-30.34,18.76,68.36-2.26,11.66Z"/>
    <path class="cls-37" d="M549.27,915.27c.1-7.76.61-15.51,1.11-23.25.74-11.45,1.6-22.9,2.48-34.34,1.03-13.38,2.1-26.76,3.17-40.14,1.08-13.55,2.15-27.09,3.17-40.64.9-11.95,1.76-23.9,2.48-35.86.08-1.29.15-2.58.23-3.87.02-.27-1.37-.08-1.39.37-.66,11.64-1.48,23.27-2.34,34.89-.99,13.45-2.05,26.89-3.12,40.34-1.07,13.5-2.15,26.99-3.21,40.49-.92,11.78-1.82,23.56-2.61,35.35-.56,8.3-1.11,16.61-1.32,24.92-.02.7-.03,1.41-.04,2.11,0,.29,1.39.08,1.39-.37h0Z"/>
    <path class="cls-19" d="M366.08,654.91c18.53,6.6,37.68,2.6,57.26,5.18,26.17,3.45,48.11-9.94,74.41-12.22,13.26-1.15,26.46,20.08,39.53,17.55,11.77-2.28,23.34-5.42,35.04-8.01,10.47-2.32,21.1-4.49,31.59-7.11-10.09-23.73-20.73-47.33-29.15-70.56l-45.47-71.73c-8.96,14.81-3.76-48.57-7.56-52.8-.14.2-.4.4-.88.61-14.51,6.39-29.75,11.29-45.05,15.04-31.67,7.76-63.49,10.63-94.43,12.14-12.25.6-12.93-68.43-25.1-68.12l-19.47,51.89s-27.4,48.44-23.81,115.42c1.34,25.05,22.87,56.58,44.37,68.74,2.89,1.64,5.8,2.94,8.72,3.98Z"/>
    <path class="cls-19" d="M525.32,426.7l-152.33-36.89-6.7,29.42-35.78,63.46s-7.44,5.55,61.84,27.06c69.27,21.51,149.26,13.62,149.26,13.62,6.23-24.84-8.67-88.62-8.67-88.62,0,0,7.82-33.68,11.75-41.84s7.63-3.16,11.73-15.98,4.94-32.22,4.94-32.22l-19.87-5.51-16.19,87.48Z"/>
    <path class="cls-30" d="M554.43,226.96s25.9,17.13,23.33,49c-3.79,47.04-8.61,94.8-8.61,94.8l-34.67-7.87,19.95-135.94Z"/>
    <path class="cls-19" d="M528.57,429.11c-1.26,7.16-.59,47.29-.07,54.35-6.83.89,1.11-5.64-5.82-5.72-30.29-.33-59.86-9.28-87.49-21-23.63-10.02-46.15-22.24-68.5-34.67l-1.19-19.15,27-186.13,25.65-24.78,30.43,12.27,2.28,10.86c7.06,11.78,11.27,7.08,24.99,12.3,8.57,3.26-2.82-10.02,1.79-9.66,16.76,1.32,48.01,8.79,47.31,3.72-.59-4.28,23.61-1.04,25.29-.13,11.4,6.16,1.36,21.13,10.69,26.86,0,0,14.16,16.46,9.58,50.73"/>
    <path class="cls-19" d="M606.4,444.43c9.28-9.77-14.16-25.06-2.49-32.07-11.26-33.76-15.57-147.25-29.86-168.46-15.86-23.53-46.41-25.35-50.33-25.49,0,0-24.08,77.49-11.81,133.13,7,31.76,19.71,75.04,38.82,100.26,5.8,7.66,13.34,7.72,22.42,4.59,12.25-4.21,29.69-8.2,33.26-11.96Z"/>
    <path class="cls-16" d="M571.48,294.1c-2.71,3.25-4.51,7.56-5.53,11.62-.8,3.18-.81,6.07-.59,9.3.59,8.41,1.4,16.78,1.17,25.22-.28,10.6-1.9,21.48-6.6,31.09-2.46,5.03-5.75,9.63-9.86,13.44-2.13,1.97-4.42,3.48-6.3,5.69-6.67,7.79-10.52,17.97-11.04,28.17-.09,1.82-.08,3.65.02,5.47.04.79,2.43.3,2.38-.64-.58-11.31,2.78-22.69,9.79-31.63.72-.92,1.48-1.81,2.29-2.64s1.75-1.42,2.63-2.14c4.32-3.51,7.95-7.84,10.72-12.66,5.31-9.23,7.52-19.9,8.17-30.43.55-8.89-.05-17.76-.77-26.62-.21-2.57-.55-5.22-.37-7.8.35-5.12,2.53-10.43,5.5-14.58.19-.26.38-.53.59-.78.38-.45-.32-.71-.65-.73-.58-.04-1.2.22-1.57.66h0Z"/>
    <path class="cls-19" d="M444.67,739.69c10.65,2.96,43.99,7.68,54.91,9.9,17.79,3.61,36.73,3.14,54.77,2.41,29.04-1.19,59.02-5.31,86.47-15.63,2.32-36.19,6.98-103.15,8.89-132.44,3.64-55.78-15.82-72.07-40.15-82.54-45.5-19.58-151.86-30.11-182.1-18.21-7.49,2.95-47.18,6.61-21.13,15.43-19.29,2.99,26.44,5.37,26.44,5.37,0,0-85.74,29.7-49.89,83.92,16.59,25.09-.59,31.6,65.84,28.4.02,17.58-6.91,82.24-4.05,103.4Z"/>
    <path class="cls-19" d="M327.15,394.58c-7.82-.17-12.44,6.82-20.25,7,.16-5.16,5.06-39.44,5.63-44.19,2.42-20.22,17.36-98.11,42.27-134.92,30.64-34.46,72.27-33.12,72.27-33.12l-29.51,113.96-17.37,91.83c-13.43,1.4-39.54-.27-53.05-.57Z"/>
    <path class="cls-16" d="M377.53,379.27c4.26-1.03,8.51-2.06,12.77-3.09,10.18-2.46,20.35-4.92,30.53-7.39,12.35-2.99,24.69-5.97,37.04-8.96,10.63-2.57,21.27-5.14,31.9-7.72,3.5-.85,7.01-1.7,10.51-2.54,1.62-.39,3.43-.61,4.99-1.21.07-.03.15-.04.22-.05l-1.4-.47c.8,2.2,1.59,4.4,2.39,6.59.38,1.05,2.75.38,2.38-.64-.8-2.2-1.59-4.4-2.39-6.59-.2-.56-.91-.59-1.4-.47-4.26,1.03-8.51,2.06-12.77,3.09-10.18,2.46-20.35,4.92-30.53,7.39-12.35,2.99-24.69,5.97-37.04,8.96l-31.9,7.72c-5.16,1.25-10.39,2.34-15.5,3.75-.07.02-.15.04-.22.05-1.48.36-1.05,1.93.42,1.57h0Z"/>
    <path class="cls-16" d="M390.53,224.59c5.46,1.88,9.12,6.9,11.54,11.91,2.32,4.8,3.88,10.13,4.36,15.45.76,8.44-.88,17.16-2.54,25.4-2.28,11.29-5.32,22.42-8.6,33.46-3.5,11.79-7.32,23.48-11.28,35.13-3.46,10.16-7.05,20.29-10.67,30.4-.36,1.02-.73,2.04-1.09,3.05-.23.64,2.11.35,2.37-.35,3.53-9.87,7.06-19.74,10.46-29.66,4.02-11.68,7.9-23.41,11.48-35.24,3.44-11.34,6.65-22.78,9.13-34.38,1.85-8.64,3.59-17.63,3.25-26.51-.19-4.88-1.36-9.75-3.13-14.29-2.03-5.2-5.09-10.58-9.86-13.7-1.09-.71-2.25-1.29-3.48-1.71-.51-.17-1.23-.02-1.68.26-.24.15-.79.6-.25.79h0Z"/>
    <path class="cls-19" d="M314.25,345.88s-10.83,53.32-9.74,65.11c1.05,11.38,6.05,22.91,14.49,30.09,17.94,15.26,51.23,16.83,75.25-5.13,24.02-21.96-38.3-55.93-38.3-55.93l-41.69-34.14Z"/>
    <path class="cls-16" d="M377.21,378.07c-7.22,1.75-13.57,6.37-18.56,11.75s-9.33,12.19-10.55,19.59c-.1.62,2.25.22,2.35-.4,1.14-6.93,5-13.3,9.59-18.48,4.59-5.18,10.52-9.98,17.38-11.64.22-.05,1.22-.36,1.08-.73s-1.07-.14-1.3-.09h0Z"/>
    <path class="cls-16" d="M515.9,382.14c.92,2.22,1.85,4.45,2.77,6.67l.79-.57c-24.64,9.05-47.12,22.75-69.99,35.41-11.59,6.42-23.34,12.59-35.56,17.73-11.83,4.97-24.18,9.36-36.88,11.44-6.66,1.09-13.54,1.75-20.27,1.08-5.24-.52-10.45-1.43-15.6-2.5-.52-.11-1.2.07-1.66.31-.18.09-.83.47-.3.59,4.57.95,9.19,1.75,13.83,2.31,5.79.69,11.5.51,17.3-.11,12.91-1.38,25.27-5.24,37.37-9.82,25.09-9.48,47.96-23.71,71.4-36.54,13.32-7.29,26.91-14.17,41.18-19.41.12-.05.89-.31.79-.57-.92-2.22-1.85-4.45-2.77-6.67-.22-.54-2.55.23-2.38.64h0Z"/>
    <path class="cls-8" d="M507.22,353.76c2.28-1.23,2.52-1.03,4.58-2.57,0,0,4.66-13.98,14.06-19.31,9.41-5.32,22.26-3.92,27.12-7.69,5.5-4.28,18.68-8.15,21.86-6.51,5.16,2.66,2.51,9.96-7.36,13.86-6.41,2.59-12.58,5.71-18.46,9.35,0,0,64.63,16.5,68.62,19.18,3.99,2.68,8.1,5.43,6.51,9.12-1.59,3.68-13.68-.51-13.68-.51h0c-3.01,2.34-6.72,3.6-10.53,3.57l-8.21-.05c-7.17,4.09-21.64,8.45-29.66,10.42-11.18,2.31-35.27-2.48-35.27-2.48l-10,1.96c-.53-1.44-8.62-24.7-9.6-28.35Z"/>
    <path class="cls-28" d="M611.5,368.3c-4.56-1.48-9.55-1.9-14.28-2.57-5.31-.76-10.7-1.36-15.93-2.6-.42-.1-1,.04-1.38.25-.16.09-.68.42-.24.52,5.23,1.24,10.62,1.85,15.93,2.6,4.72.67,9.72,1.09,14.28,2.57.45.15,2.2-.58,1.61-.77h0Z"/>
    <path class="cls-28" d="M594.29,371.98c-6.35-.6-12.71-1.19-19.06-1.79-.91-.09-1.83-.17-2.74-.26-.42-.04-1.08.06-1.39.37-.25.25-.3.5.15.54,6.35.6,12.71,1.19,19.06,1.79.91.09,1.83.17,2.74.26.42.04,1.08-.06,1.39-.37.25-.25.3-.5-.15-.54h0Z"/>
    <path class="cls-5" d="M523.64,203.59s-8.42-3.98-13.18-5.98c-4.77-2-13.25-2.89-33.6-24.73,0,0,3.73,23.88,32.13,32.84,0,0,8.45,3.02,13.53,2.57l1.12-4.69Z"/>
    <path class="cls-41" d="M593.43,82.5c1.46,14.08-1.59,29.08-6.05,47.49-6.51,28.49-18.65,55.38-35.7,79.11l-30.29,11.37-4.38-13.99c23.93-17.85,41.76-24.4,49.97-53.11,1.89-6.61,15.2-38.39,15.27-39.32,1.4-18.37,2.05-13.33-6.76-25.08-7.2-9.54-35.5-11.85-44.71-11.79-8.12.03-17.9-4.04-32.25,10.72-9.51,9.89-11.4,3.74-19.54,23.14l10.33-76.76,50.26,1.19,30.77,14.64c12.84,6,21.6,18.29,23.09,32.39Z"/>
    <path class="cls-8" d="M576.32,135.42c1.22-4.13,4.9-14.76,7.37-24.37h0c2.35-9.31-2.35-18.89-8.4-26.34l-1.18-1.24c-.06-.07-1.95-1.41-2.03-1.45-14.73-9-26.35-12.86-43.75-9.76-8.5,1.51-18.77,2.35-25.74,7.44-7.24,5.28-16.38,19.54-24.6,23.55,1.02-7.67,12.51-19.99,14.12-26.77-.26,1.11-.41,1.8-.41,1.8-10.07,5.16-16.6,18.81-17.46,23.84-.85,5.03-4.65,15.45-4.65,15.45-.95-2.14-3.07-6.74-3.41-9.02-.4-2.02-.99-3.92-1.39-5.93-1.51-4.74-5.61-5-9.2-3.06l-.7.75c-8.77,5.75-2.48,26.89-.61,33.04-.93,2.49,1.74,17.36,12.49,10.29l.25,8.43,9.25,20.91c8.23,13.8,22.62,25.99,39.63,29.5,11.55,2.39,12.52,2.07,17.61-1.12,7.73-4.85,15.83-9.75,22.16-16.07,6.07-6.05,9.02-10,12.82-17.76,3.93-8.02,4.39-10.26,5.36-18.91.43-3.87,1.41-9.65,2.47-13.22Z"/>
    <path class="cls-17" d="M461.21,140.44c-3.12-.35-6.44,1.35-7.23,4.55-.37,1.49-.08,3.05.73,4.34.47.76,1.19,1.27,1.97,1.7,1.77.96,3.8.98,5.65.25.17-.07.46-.22.33-.43-.12-.19-.64-.04-.78.01-1.92.76-4.36.08-5.72-1.49-1.71-1.97-1.41-5.17.35-6.98,1.05-1.08,2.48-1.53,3.96-1.36.27.03.64-.03.84-.23.16-.15.17-.34-.1-.37h0Z"/>
    <path class="cls-32" d="M495.25,76.16l-5.88,8.49c-6.82,9.84-12.19,20.65-15.94,32.06l-1.07,3.26c-.31.94-1.59.97-1.91.05l-4.09-11.42s6.68-36.33,28.89-32.44Z"/>
    <path class="cls-29" d="M461.85,115.48c-2.44.51-3.79,2.93-4.59,5.08s-1.08,4.07-.7,6.34c.3,1.8,1.47,5.83,4.01,5.45,2.13-.31,2.47-2.77,2.29-4.48-.12-1.17-.49-2.34-.48-3.52.01-1.47.96-1.39,2.19-1.13.33.07.88-.2.8-.59-.77-4.02-1.72-8.12-3.28-11.91-.77-1.87-1.83-4.03-4.07-4.38-2.77-.43-4.39,2.44-5.05,4.68-.97,3.25-.78,7.04.4,10.23.2.54,1.39.2,1.19-.32-.83-2.22-1.13-4.75-.93-7.1.17-2.04,1.5-8.14,4.78-6.32,1.67.93,2.38,3.13,2.98,4.82.78,2.18,1.38,4.42,1.92,6.67.31,1.31.61,2.63.87,3.95l.8-.59c-1.43-.3-3.42-.31-3.77,1.48-.33,1.67.48,3.45.49,5.13,0,.77-.12,2.07-.97,2.42-.99.41-1.94-1.52-2.24-2.22-.95-2.16-1.21-4.69-.59-6.97.58-2.14,1.69-5.41,4.16-5.92.75-.16.52-.96-.22-.81h0Z"/>
    <path class="cls-32" d="M553.11,131.56s6.88-4.8,11.22-4.67c8.86.26,12.1,3.74,15.18,6.54,0,0-7.49-3.9-15.1-4.05-4.27-.08-11.3,2.17-11.3,2.17Z"/>
    <path class="cls-32" d="M519.44,115.95c-1.39-1.1-3.91-1.36-5.1-.67-.28.16-1.04.64-1.53,1.6-.63,1.22-.4,2.79.24,3.85.85,1.41,2.63,1.96,4.14,1.59,2.06-.51,3.11-2.66,2.97-4.41-.03-.32.39-.84-.73-1.73"/>
    <path class="cls-32" d="M571.61,129.58c-1.39-1.1-3.91-1.36-5.1-.67-.28.16-1.04.64-1.53,1.6-.63,1.22-.4,2.79.24,3.85.85,1.41,2.63,1.96,4.14,1.59,2.06-.51,3.11-2.66,2.97-4.41-.03-.32.39-.84-.73-1.73"/>
    <path class="cls-32" d="M528.91,124.52s-5.07-9.7-12.36-11.44c-5.55-1.32-14.94-1.89-17.76-1.76,0,0,13.24,3.21,17.13,4.21,3.72.95,12.99,9,12.99,9Z"/>
    <path class="cls-32" d="M538.97,107.75c.06-.15-.37-1.13-.32-1.28-10.18-5.29-20.57-8.04-23.7-8.51-2.38-.36-4.81-.32-7.19,0,0,0-7.86,2.66-8.87,3.47-1.01.81,3.68.55,3.68.55.97.06,1.67-.02,2.64.14,5.3.89,9.52.84,14.5,2.93,4.27,1.77,13.5,5.75,17.33,8.33.64-1.64,1.14-4.08,1.94-5.64Z"/>
    <path class="cls-32" d="M581.96,117.18c-.31-.12-4.78-2.09-5.11-2.2-2.97-.96-7.17-1.48-18.25-1.4-.3,1.92-1.52,4.17-1.83,6.09,4.61-.59,9.14-.68,13.79-.35,3.1.22,6.7,1.54,10.29,2.2l1.11-4.35Z"/>
    <path class="cls-27" d="M531.05,167.99c-7.35-1.89-19.65-6.33-19.65-6.33,0,0-1.76,18.69,15.27,23.06,17.03,4.38,21.01-12.89,21.01-12.89,0,0-9.29-1.96-16.64-3.84Z"/>
    <path class="cls-7" d="M531.12,168c-3.49-.9-16.56-4.34-16.56-4.34,0,0,.98,11.09,13.61,14.34,13.7,3.52,17.08-6.32,17.08-6.32l-14.13-3.68Z"/>
    <path class="cls-46" d="M531.14,168.58c-3.49-.9-13.97-4.23-13.97-4.23,0,0,2.83,4.87,13.3,7.57,10.48,2.69,14.78-.23,14.78-.23l-14.11-3.11Z"/>
    <path class="cls-27" d="M548.52,171.52c-.34-.19-1.23-.13-2.76-.81-2.76-1.24-3.8-2.64-5.79-3.33-3.4-1.17-5.98-.3-7.49-.69-1.51-.39-3.35-2.39-6.89-3-2.08-.36-5.39-.46-8.26-.93-1.72-.28-5.66-2.01-6.05-2.01-.53,0-.34,4.22,18.65,9.1,18.98,4.88,19.06,1.94,18.6,1.68Z"/>
    <path class="cls-32" d="M548.33,149.88c.13,1.35.26,2.7.37,4.06.06.85.12,1.7.15,2.54.01.51.1,1.16-.05,1.65-.27.84-1.3,1.39-2.08,1.62-.83.24-1.69.27-2.55.25-1.92-.04-3.81-.31-5.68-.73-2.25-.5-4.85-1.15-6.68-2.63-.29-.24-.99.18-.62.48,1.71,1.38,4.06,2.03,6.15,2.55s4.28.86,6.47.93c1.81.06,3.9-.11,5.2-1.54.48-.53.64-.98.66-1.67.03-.85-.03-1.71-.09-2.56-.11-1.73-.28-3.45-.45-5.18-.04-.39-.84-.19-.81.22h0Z"/>
    <path class="cls-32" d="M526.81,149.27c-.9-.08-1.81.11-2.6.55-.83.46-1.36,1.21-1.62,2.12-.28,1-.26,1.92.45,2.73.69.78,1.68,1.15,2.63,1.5,1.18.43,2.39.79,3.66.83.2,0,.47-.05.63-.17.13-.09.14-.17-.05-.18-1.24-.04-2.44-.42-3.6-.85-.98-.36-2.04-.8-2.64-1.7s-.41-2.07.04-3.01,1.31-1.59,2.35-1.49c.21.02.43-.03.62-.12.06-.03.32-.19.11-.21h0Z"/>
    <path class="cls-41" d="M563.41,231.09s1.66-6.64-14.56-29.92l2.57-7.17s-9.77,18.3-37,6.87c-22.52-9.48-29.42-28.96-32.1-48.27-4.62-33.31,16.32-82.35,36.33-102.15,18.74-18.56,64.82,38.72,69.89,22.31,0,0-8.56-42.01-57.11-51.01-36.36-6.74-65.17,13.46-81.21,45.54-16.56,33.12-23.72,68.77-12.21,104.68,0,0-23.26,5.24-29.34,17.1l-.48.34s22.16,39.75,70.94,43.98c44.91,2.3,53.78-14.31,83.49-1.5"/>
    <path class="cls-20" d="M485.25,199.57c-1.65-2.25-3.52-4.3-5.25-6.49-1.71-2.16-3.33-4.39-4.88-6.67-2.92-4.3-5.58-8.79-7.91-13.43-4.38-8.73-7.61-18.04-9.63-27.6-4.09-19.38-3.18-39.72,2.46-58.69,1.69-5.68,3.81-11.23,6.27-16.62,1.31-2.88,2.73-5.71,4.26-8.48s3.22-5.34,4.63-8.13c.23-.45-.66-.31-.84-.13-.4.43-.72.86-1.03,1.36-.25.41.71.35.9.05.26-.44.56-.83.91-1.21l-.84-.13c-1.23,2.44-2.72,4.72-4.05,7.1-1.43,2.55-2.78,5.15-4.03,7.8-2.26,4.77-4.26,9.67-5.93,14.67-3.17,9.52-5.16,19.43-5.88,29.43-1.43,19.7,2.02,39.74,10.33,57.69,2.37,5.13,5.15,10.06,8.23,14.79,1.67,2.57,3.44,5.07,5.31,7.5,1.98,2.57,4.17,4.96,6.09,7.57.21.29,1.13-.05.88-.39h0Z"/>
    <path class="cls-20" d="M493.8,92.29c.77-4.03,2.06-8.01,3.52-11.84,2.85-7.47,6.84-14.98,12.95-20.28,3.82-3.31,8.2-4.98,13.03-6.29,6.03-1.64,12.29-2.58,18.56-2.38,5.89.19,11.75,1.43,17.11,3.91,5.75,2.66,10.7,6.7,14.84,11.47,3.74,4.31,6.79,9.32,8.4,14.82.59,2.02,1.13,4.37,1.04,6.43-.02.36.94.16.95-.13.08-1.82-.3-3.7-.74-5.45-1.16-4.6-3.38-8.91-6.16-12.74-7.45-10.29-18.45-17.15-31.12-18.53-6-.66-12.08-.2-17.99.99-5.13,1.03-10.61,2.33-15.1,5.13-7.16,4.46-11.9,12-15.24,19.56-2.17,4.92-3.99,10.17-5.01,15.47-.06.33.89.17.95-.13h0Z"/>
    <path class="cls-20" d="M437.53,172.09c1.12,2.87,2.66,5.61,4.25,8.23,3.78,6.25,8.45,12,13.92,16.84,7.28,6.44,15.84,10.95,25.24,13.38,11.38,2.93,22.98,3.2,34.66,2.92,10.43-.25,21.44-.74,30.8,4.64.31.18,1.17-.25.75-.5-7.85-4.51-16.9-4.97-25.75-4.85-11.24.15-22.41.64-33.54-1.38-10.45-1.9-20.17-5.69-28.54-12.3-6.02-4.75-11.16-10.61-15.34-17.03-2.09-3.21-4.1-6.62-5.5-10.21-.14-.37-1.09-.09-.95.26h0Z"/>
    <path class="cls-8" d="M744.71,472.26s19.78-9.88,29.99-9.43c2.87.13,28.19-8.1,28.19-8.1,0,0,4.5,5.55-4.97,10.64-9.47,5.09-13.47,6.96-13.47,6.96l-1.92,2.59,14.78,10.44s18.72,9.09,23.03,11.68c4.3,2.59,13.79,7.74,12.33,14.04,0,0,7.28,3.3,6.09,6.92-.35,1.84-1.58,3.4-3.3,4.16l-3.83-.67s1.51,1.73-1.24,4.46c-2.75,2.74-35.07-8.81-35.07-8.81l-2.11.54s20.31,11.24,19.95,13.37c-.35,2.13-.34,3.97-4.09,3.47-3.74-.5-62.66-23.28-68.83-27.25-1.62-1.04-3.62-4.15-4.66-4.79-2.92-1.8-9.25-3.93-9.25-3.93l8.08-30.15,10.3,3.88Z"/>
    <path class="cls-19" d="M595.83,407.84c-.8-.2-.1-5.03-.72-5.83-8.28,8.8-26.22,13.44-32.01,23.89-4.45,8.02-15.84,5.47-18.35,14.6,4.44,16.32,21.24,22.23,24.39,23.95,26.98,14.77,159.69,40.62,159.69,40.62l6.11-22.52,4.49-16.89c-27.27-12.52-120.4-51.93-143.58-57.83Z"/>
    <path class="cls-16" d="M602.59,409.52c-4.35,0-8.66,1.03-12.29,3.5s-6.21,5.96-8.53,9.56c-.25.39.86.29.96.27.47-.07,1.12-.25,1.39-.67,2.01-3.12,4.26-6.23,7.25-8.49,2.85-2.16,6.12-3.15,9.68-3.15.55,0,1.24-.1,1.68-.45.31-.25.37-.57-.15-.57h0Z"/>
  </g>
  <g id="Layer_8" data-name="Layer 8">
    <path class="cls-4" d="M722.86,506.28c1.46-3.95,3.13-7.93,3.82-12.13.64-3.89.26-7.87,1.24-11.7l-39.42-46.7-18.25,5.03s21.5,68.78,44.55,79.61c3.38-4.23,6.15-8.96,8.05-14.11Z"/>
    <path class="cls-4" d="M775.21,436.57c-17.82,11.47-47.23,46.03-49.45,48.65.75,3.55,2.42,6.89,3.04,10.48.74,4.3.77,8.73.81,13.08.05,5.21,3.05,15.16,1.67,20.13,23.06-2.17,52.44-41.54,61.41-55.87-4.5-12.56-9.68-26.02-17.48-36.47Z"/>
    <path class="cls-4" d="M708.34,516.13s14.81,19.23,29.51,10.52c14.7-8.7-10.11-43.1-10.11-43.1l-19.4,32.57Z"/>
    <path class="cls-25" d="M727.99,483.05c1.72,4.03,2.58,8.36,2.54,12.74,0,.4,1.48.14,1.49-.4.04-4.38-.83-8.71-2.54-12.74-.2-.48-1.66-.01-1.49.4h0Z"/>
    <path class="cls-38" d="M788.92,398.56c-5.59,4.86-11.08,10.44-13.07,17.58-1.21,4.36-1.02,8.97-1.63,13.45-.61,4.48-2.27,9.19-6.04,11.68.87.2,1.78.07,2.66-.07,5.43-.82,10.85-1.64,16.28-2.46,1.94-.29,3.92-.6,5.69-1.44,3.58-1.71,5.8-5.32,7.76-8.76.77-1.36,1.55-2.76,1.75-4.31.2-1.55-.2-3.1-.6-4.61-1.63-6.23-3.27-12.45-4.9-18.68"/>
    <g>
      <polygon class="cls-23" points="1382.79 739.79 1241.04 739.79 1241.04 713.39 1382.79 713.39 1382.79 471.64 982.13 471.64 982.13 713.39 1125.19 713.39 1125.19 739.79 982.13 739.79 982.13 757.57 1382.79 757.57 1382.79 739.79"/>
      <polygon class="cls-11" points="905.02 783.73 905.02 935.01 905.65 935.01 905.65 1037.69 927.94 1037.69 949.18 935.01 1195.66 935.01 1247.11 935.01 1417.62 935.01 1438.86 1037.69 1461.15 1037.69 1461.15 933.09 1460.93 933.09 1460.93 783.73 905.02 783.73"/>
      <polygon class="cls-11" points="1482.55 774.97 1482.55 757.57 1382.79 757.57 982.13 757.57 884.64 757.57 884.64 774.97 905.02 774.97 1460.93 774.97 1482.55 774.97"/>
      <rect class="cls-3" x="905.02" y="774.97" width="555.9" height="8.75"/>
    </g>
    <path class="cls-4" d="M745.19,805.34s-34.63,12.63-44.59,13.19c-9.96.56-12.81,3.03-12.81,3.03,0,0,24.64-25.39,27.29-29.87,1.49-2.51-10.83-78.99-17.49-118.53-4.63-27.47-3.12-49.55-3.12-49.55l46.03,2.1.42,42.14,2.36,7.61c1.23,3.98,4.69,11.56,5.2,15.7,1.38,11.19,3.51,26.07,3.34,31.83-.28,9.75-3.02,23.09-3.22,26.52l-8.09,44.95,4.68,10.89Z"/>
    <path class="cls-4" d="M772.38,802.03s-42.92,23.51-52.89,23.77c-9.97.26-6.68-5-6.68-5,0,0,29.77-22.26,32.21-26.98,1.34-2.59-11.67-83.69-17.09-123.42-3.76-27.6-4.53-49.62-4.53-49.62l45.94,3.49,5.66,40.29,2.12,7.68c1.11,4.01,2.7,11.14,3.08,15.29,1.02,11.22,2.26,30.11,1.91,35.86-.59,9.74-6.37,33.78-6.67,37.21l-4.17,30.46,1.09,10.98Z"/>
    <path class="cls-25" d="M743.82,776.9c-1.32-8.65-2.63-17.3-3.94-25.96-2.22-14.67-4.43-29.34-6.54-44.03-.68-4.7-1.43-9.4-1.92-14.12-.04-.39-1.87-.04-1.82.49,1.13,10.89,3.01,21.74,4.62,32.57,2.09,14.06,4.21,28.12,6.35,42.18.47,3.12.95,6.24,1.43,9.35.06.41,1.89.02,1.82-.49h0Z"/>
    <path class="cls-4" d="M744.19,585.89l4.26,5.97,4.99,7.6s-7.72,10.29-10.74,12.49-9.44,8.22-9.44,8.22c1.05.47,1.9,1.3,2.41,2.34.5,1.23.47,2.61-.07,3.83l-6.77-1.7c1.03,2.71-2.12,2.85-2.12,2.85l-5.52-1.89c1.43,3.29-2.66,3.57-2.66,3.57l-6.02-4.21c.13,1.47-.03,2.95-.47,4.36-.7,1.69-3.02-.04-3.02-.04l-2.92-12.47,9.04-15.09,25.13-11.78,3.9-4.03Z"/>
    <path class="cls-10" d="M849.76,487.75c-.82,1.1-1.38,2.45-1.87,3.71-1.38,3.59-2.03,7.45-2.26,11.28-.38,6.15.32,12.36,1.56,18.38.93,4.51,2.23,8.97,4.05,13.21.75,1.74,1.55,3.53,2.61,5.11.15.22.71.06.89,0,1.74-.49,3.48-.99,5.22-1.48.94-.27.84-.73-.12-.46-1.74.49-3.48.99-5.22,1.48h.89c-3.15-4.68-4.88-10.62-6.16-16.04-2.33-9.88-3.52-21.08-.16-30.89.54-1.58,1.19-3.28,2.2-4.63.07-.1-1.34-.08-1.63.31h0Z"/>
    <path class="cls-4" d="M802.68,405.28c5.53-.66,26.08-1.45,31.43-3,2.45-.71,20.93-7.38,23.2-8.61-10.44,17.11-11.44,29.77-3.18,31.9l-7.81,21.51c-59.44,51.58-46.58,23.89-57.99-13.87l12.03-8.82,2.33-19.11Z"/>
    <path class="cls-41" d="M800.53,423.77c-9.3,1.13-16.86.75-20.94,2.12-15.9,5.35-24.4,14.82-38.14,32.22-2.93,3.71-4.2,13.19-4.2,13.19,4.42,14.81,27.27,39.37,27.27,39.37,0,0,.24,37.18-.18,52.02-.29.8-.97,14.14-1.25,15.68,17.1,2.6,21.42,3.7,38.57,3.44,13.99-.22,22.47,8.36,36.19,5.28,10.07-2.25,30.78-2.06,40.98-3.37-1.17-1.73,1.62-2.11,1.13-5.39-2.31-15.39-7.83-39.24-1.01-52.99,3.17-6.38,3.33-13.66,5.47-15.1,0,0,29.55-39.85,3.87-59.89-7.47-5.83-26.28-19.69-37.23-23.09,0,0-13.27,20.04-43.35,20.09-19.83.03-7.18-23.59-7.18-23.59Z"/>
    <path class="cls-24" d="M763.62,474.34c-.43,5.61-.3,11.29-.28,16.91.02,6.18.1,12.36.21,18.54.02,1.31.05,2.61.07,3.92.02.95,1.77.72,1.75-.11-.22-10.4-.37-20.81-.26-31.21.03-2.72.05-5.45.26-8.16.07-.94-1.69-.73-1.75.11h0Z"/>
    <path class="cls-41" d="M772.49,567.38s6.62,12.22,40.12,12.89c33.5.67,64.71-18.3,64.71-18.3,0,0,17.63,31.96,16.99,52.63-.64,20.67-7.61,51.32-58.74,50.01-51.13-1.31-85.24,41.08-85.24,41.08,0,0-55.31-65.17-54.34-84.48,1.71-34.08,76.5-53.84,76.5-53.84Z"/>
    <path class="cls-41" d="M872.3,643.83s-48.34,21.5-56.15,22.69c-7.81,1.19-5.38,18.72-5.75,22.06-.37,3.34,4.99,34.65,4.99,34.65,0,0-46.6,10.36-60.27,3.66-13.67-6.7-18.06-6.04-24.99-5.24-6.93.8-6.73,2.74-20.13,3.31-13.4.58-26.26-11.25-26.26-11.25,0,0,8.04-80.41,12.12-92.82,4.08-12.41,7.26-13.63,25.33-18.83,8.38-2.41,20.07-6.94,30.19-11.09,11.68-4.8,21.27-9.11,21.27-9.11l102.01,9.2-2.37,52.76Z"/>
    <path class="cls-24" d="M874.19,547.91c-12.97,8.38-28.59,9.07-43.54,9.9-14.38.8-29.02,1.62-43.25-1.12-7.87-1.51-15.5-4.23-22.26-8.59-.46-.3-1.51-.11-1.53.57-.11,3.75-.22,7.49-.34,11.24-.04,1.27-.31,2.77-.12,4.03.04.27.15.46.29.68.68,1.04,1.73,1.88,2.73,2.59,2.35,1.66,5.05,2.83,7.76,3.78,4.86,1.7,9.95,2.73,15.03,3.47,8.15,1.2,16.41,1.65,24.65,1.78,15.37.24,30.81-.86,45.9-3.85,4.34-.86,8.64-1.88,12.88-3.14,1.92-.57,4-1.09,5.82-1.95.08-.04.16-.06.23-.09,1.08-.45.13-1.48-.79-1.1-.08.03-.16.07-.23.09-.37.13-.07.03-.54.2-.94.34-1.88.66-2.83.96-3.56,1.14-7.18,2.08-10.83,2.9-13.55,3.05-27.48,4.4-41.36,4.63-8.83.15-17.69-.11-26.48-1.03-5.83-.61-11.69-1.49-17.34-3.11-4.27-1.22-9.89-3.04-12.7-6.47-.18-.22-.31-.49-.49-.7-.1-.11.05.18.05.22.06-.46.03-.95.04-1.41l.38-12.74.03-1.09c-.51.19-1.02.38-1.53.57,12.42,8,27.24,10.36,41.76,10.71,7.51.18,15.02-.16,22.52-.56,7.62-.41,15.29-.66,22.84-1.84,8.63-1.35,17.03-3.91,24.41-8.68.97-.63-.42-1.35-1.16-.87h0Z"/>
    <path class="cls-29" d="M1175.51,739.23c12.04.19,24.2,4.1,33.53,11.83,10.01,8.29,14.35,20.78,11.2,33.46-3.78,15.2-15.65,26.37-26.59,36.77-5.66,5.38-11.36,10.81-16.15,17.01-4.05,5.25-7.47,10.97-10.13,17.05-10.53,24.1-9.88,53.11,3.33,76.06,7.59,13.19,19.52,22.74,30.79,32.64,11.6,10.19,21.94,21.67,30.61,34.45,8.75,12.89,16.25,27.14,20.72,42.11,4.25,14.25,4.97,30.21-2.94,43.37-1.77,2.94-4,5.54-6.55,7.83-1.18,1.06-.48,2.6.82,3.06,1.66.59,3.5-.17,4.73-1.27,11.19-10.02,14.98-25.62,13.59-40.13-1.55-16.18-8.78-31.78-16.71-45.77-7.67-13.51-17.11-26.01-28.03-37.07-11.22-11.36-24.65-20.55-34.7-33.05-16.8-20.92-20.36-50.76-11.57-75.8,2.2-6.27,5.15-12.29,8.83-17.83,4.16-6.28,9.44-11.73,14.83-16.96,11.31-10.96,23.75-21.59,29.77-36.59,2.77-6.9,4.02-14.37,2.65-21.74-1.1-5.92-3.95-11.48-7.86-16.03-8.22-9.56-20.43-15.08-32.67-17.18-3.02-.52-6.07-.8-9.13-.84-1.55-.02-3.64.42-4.37,2-.65,1.4.57,2.61,1.99,2.64h0Z"/>
    <path class="cls-38" d="M881.03,399.61c-4.62,5.32-14.57,9.09-21.11,11.79-6.68,2.77-9.41,3.05-16.25,1.69-13.33-2.66-26.15-8.63-35.89-18.36-10.05-10.03-15.89-23.5-16.63-37.9-.52-10.06.83-19.8,3.77-29.03.45-.92,1.19-2.4,1.64-3.31,11.34-16.42,19.31-22.56,37.89-21.51,11.44.53,22.29-3.99,37.7,6.64,3.32,2.29,5.26,10.06,9.4,13.5,6.23,5.19,12.48,13.1,14.01,19.84,2.23,9.86-.45,21.85-2.91,33.2-1.87,8.6-5.74,16.67-11.51,23.32-.04.04-.07.08-.11.13Z"/>
    <path class="cls-4" d="M788.03,365.79c.62-2.5,1.35-5.39,2.25-8.87.26-1.01.54-1.97.82-2.93.19-.48.34-.96.45-1.47,5.28-16.73,13.32-24.01,13.32-24.01,10.25-9.2,24.6-12.24,37.68-7.98,15.49,4.68,26.89,18.08,31.55,29.66,2.32,5.74,2.44,12.13.35,17.95-1.78,4.98-4.58,7.72-7.49,12.85,5.51,1.27,12,3.26,6.2,12.16-6.39,9.81-14.7,12.37-18.49,7.01-1.7.46-3.72,4.7-5.27,8.57-.36.19-2.19,8.02-2.45,8.43-2.68,4.27-6.9-1.63-11.5-.48-4.83,1.21-9.85,2.03-14.81,2.53-6.97.71-10.25,1.89-17.28.53l-3.4-1.24c-2.99-1.06-2.1-1.08-5.63-2.89-11.63-6.75-11.59-32.18-10.54-38.67.9-5.51,2.65-8.14,4.25-11.17Z"/>
    <path class="cls-31" d="M800.96,418.91s12.69,5.81,33.41-2.66c0,0-6.84,6.12-17.77,6.86-10.93.73-15.89-1.65-15.89-1.65l.25-2.55Z"/>
    <path class="cls-38" d="M797.71,337.51c18.49-.56,22.88-8.63,33.31-5.56,12.09,3.51,13.64,1.94,21.93,9.32,7.57,6.76,8.32,10.94,8.32,10.94-.07,2.24.72,4.39,1.04,6.59.31,2.17.03,4.29-.46,6.41-1.01,4.34-1.84,8.73-3.5,12.91-1.03,2.59-2.67,5.96-.49,8.46.97,1.12-.05-.47,1.38-.54.05-.07.55-3.3-.79.46-.67,1.89,3.54-3.7,5.51-4.57.9-.4,1.96-.82,2.99-.96,1.03-.14,2.14-.31,3.19-.16,1.51.05,4.46,3.05,5.74,3.8.21.16-1.14-2.27-.93-2.11,6.98-9.92,11.36-18.46,6.92-34.16-1.29-4.53-6.48-10.54-8.04-12.45-2.15-2.59-4.36-4.77-6.65-6.63-7.83-6.36-16.57-8.89-27.13-10.74-15.81-2.77-32.78-.61-40.78,12.89"/>
    <ellipse class="cls-29" cx="794.27" cy="362.87" rx="3.45" ry="3.44" transform="translate(404.8 1144.44) rotate(-88.07)"/>
    <path class="cls-21" d="M791.76,359.39c1.86-.56,3.71-.98,6.84.19,5.01,1.88,6.3,8.63,6.3,8.63,0,0-2.32-4.61-7.22-6.59-2.36-.95-6.27-1.25-8.39-.82.19-.48,1.35-1.01,2.48-1.4Z"/>
    <path class="cls-29" d="M869.09,393.04c1.03-1.51,1.79-3.35,1.56-5.21-.06-.45-.12-.62-.48-.86-1.47-1-3.38-.49-4.74.44-1.89,1.3-3.23,3.34-4.37,5.29-.2.34.42.3.57.24-.11.04-.02,0,.05-.02.11-.03.22-.06.33-.09.27-.05.59-.1.85,0,.62.24.53,1.11.39,1.63-.46,1.79-2.23,2.17-3.85,1.89-.37-.06-.86.45-.3.55,2.06.35,4.5-.32,5.02-2.61.17-.76.09-1.7-.76-1.98-.66-.22-1.44-.05-2.07.18l.57.24c.98-1.68,2.09-3.39,3.6-4.64.72-.59,1.61-1.14,2.57-1.16.51,0,1,.13,1.42.4.07.04.14.09.2.14.1.07.01,0,.07.06.05.06,0-.01,0-.02.03.09.05.18.06.28.34,1.82-.47,3.7-1.48,5.17-.24.35.61.33.79.06h0Z"/>
    <path class="cls-26" d="M832.05,373.13c-.22,2.35-2.62,3.78-4.79,2.86-1.35-.57-2.2-2.01-2.06-3.47.22-2.35,2.62-3.78,4.79-2.86,1.35.57,2.2,2.01,2.06,3.47Z"/>
    <path class="cls-21" d="M820.17,372.83s4.86-6.14,12.3-3.89c6.33,1.92,7.79,5.76,8.6,8.12,0,0-2.99-4.19-9.05-6.25-5.5-1.87-11.84,2.01-11.84,2.01Z"/>
    <path class="cls-1" d="M804.68,394.05c4.78,1.32,13.76,3.07,13.76,3.07,0,0-3.91,12.97-17.12,9.1-11.04-3.24-7.37-14.77-7.37-14.77,0,0,5.95,1.28,10.74,2.6Z"/>
    <path class="cls-22" d="M804.63,394.03c2.27.63,10.77,2.88,10.77,2.88,0,0-4.49,6.72-12.72,4.45-8.92-2.46-7.09-9.34-7.09-9.34l9.04,2.01Z"/>
    <path class="cls-46" d="M804.3,394.85c2.27.63,9.3,2.17,9.3,2.17,0,0-3.15,1.71-9.98-.18-6.82-1.89-8.35-4.81-8.35-4.81l9.03,2.82Z"/>
    <path class="cls-1" d="M793.42,390.54c.07-.25.59-.22,1.75,0,1.93.36,2.73-.14,4.12.14,2.38.47,3.61,1.76,4.62,2.04,1.01.28,2.74-.19,5.02.62,1.34.48,5.39,2.12,7.23,2.79,1.1.41,2.54.35,2.77.47.31.17-2.14,2.81-14.86-.71-12.73-3.52-10.74-5.03-10.65-5.37Z"/>
    <path class="cls-32" d="M824.46,359.71c.02-.12.42-.04.44-.17,6.66-.12,11.49.85,13.17,1.58,1.28.56,2.45,1.4,3.51,2.41,0,0,2.95,2.75,3.19,3.63.24.88-1.98-.87-1.98-.87-.49-.29-.81-.57-1.33-.79-2.88-1.18-5.53-2.75-8.62-3.02-2.65-.25-6.47.53-9.16.97.21-1.31.68-2.45.79-3.76Z"/>
    <path class="cls-32" d="M808.27,356.42c.04-.11-.29-.23-.25-.35-4.91-3.19-8.98-4.59-10.58-4.73-1.22-.1-2.5.08-3.78.48,0,0-1.51.05-2.11.71-.6.66-.11,1.14-.11,1.14.51-.02.88-.12,1.37-.07,2.71.31,5.44.17,7.88,1.36,2.09,1.01,4.58,3.46,6.37,5.1.47-1.24.67-2.45,1.21-3.65Z"/>
    <g>
      <path class="cls-6" d="M803.58,384.62c.97.96,2.78,1.34,4.16.97.31-.08,1.12.33.69.45-1.82.49-4.38-.18-5.64-1.41-.12-.12-.06-.23.14-.23.21,0,.51.1.65.23"/>
      <path class="cls-6" d="M809.03,385.86c.89-.13,1.82-.07,2.71.13.13.03.28.13.35.24.05.09.04.18-.07.21-.47.11-1.01.05-1.48-.1-.15-.05-.33-.14-.38-.3-.04-.14.12-.17.24-.14.39.12.8.17,1.19.08.09.15.19.3.28.45-.79-.17-1.63-.23-2.42-.11-.16.02-.34-.08-.45-.19-.08-.08-.14-.24.02-.27"/>
      <path class="cls-6" d="M812.45,387.01c1.02.28,2.35.2,3.08-.42,1.1-.93.98-3.09-.07-4.22-.11-.12,0-.2.14-.19.19.02.39.15.51.28.91.98,1.15,2.82.66,3.85-.46.97-1.64,1.39-2.95,1.32-.39-.02-.79-.08-1.17-.18-.15-.04-.42-.17-.46-.32-.04-.15.12-.16.26-.12"/>
      <path class="cls-6" d="M801.87,383.55c.09-.1.01-.21-.07-.23-.28-.08-.53-.24-.71-.5-.12.08-.24.17-.37.25.53.23,1.03.57,1.42,1.05.08.1.23.09.34.05.08-.04.19-.14.11-.24"/>
      <path class="cls-6" d="M802.6,383.92c-.44-.53-1-.91-1.59-1.17-.09-.04-.22-.02-.31.04-.07.05-.11.13-.06.21"/>
      <path class="cls-6" d="M799.72,383.05c-.65-.22-1.3-.9-1.4-1.77-.14-1.31.72-2.55,1.77-3.04.11-.05.1-.17.02-.23-.11-.08-.27-.05-.39,0-.91.43-1.69,1.34-1.91,2.46-.2,1.05.22,1.95.92,2.48.21.16.44.29.69.38.1.03.29.04.38-.06.09-.11.01-.19-.08-.22"/>
    </g>
    <g>
      <path class="cls-23" d="M860.76,347.04c-.92.53-1.43,1.7-1.2,2.73.23,1.04,1.19,1.87,2.25,1.96-.78,1.13-.41,2.9.77,3.62.5.31,1.13.46,1.5.92.89,1.15-.55,3.07.36,4.2.34.43.94.59,1.27,1.03.69.89-.11,2.24.3,3.29.49,1.28,2.49,1.49,2.91,2.8.29.92-.31,2.12.39,2.79.36.35.98.4,1.25.83.33.51-.05,1.17-.21,1.76-.38,1.47,1.06,3.09,2.56,2.87-.22.99-.01,2.08.57,2.91.86-.79,1.75-1.62,2.23-2.69s.43-2.47-.43-3.27c-.33-.31-.77-.52-1.01-.9-.62-.97.3-2.43-.39-3.35-.46-.62-1.5-.72-1.75-1.45-.12-.35,0-.74.03-1.11.13-1.31-.92-2.63-2.23-2.81-.37-.05-.78-.03-1.08-.26-.85-.66.38-2,.17-3.06-.21-1.04-1.75-1.44-1.85-2.5-.03-.35.11-.7.11-1.05,0-.56-.34-1.05-.68-1.5-1.72-2.3-3.52-4.55-5.4-6.73"/>
      <path class="cls-23" d="M860.51,346.87c-2.25,1.55-1.5,4.71,1.17,5.14l-.24-.31c-.58.99-.59,2.23.1,3.18.41.57.95.76,1.54,1.1.98.56.96,1.31.81,2.28-.2,1.24-.27,2.02.75,2.86.41.33.8.49.94,1.08.09.41,0,.87-.04,1.28-.05.59-.09,1.16.22,1.7.58,1.01,1.93,1.19,2.56,2.12.75,1.1-.32,2.63.93,3.49.49.33.99.2,1.03,1.13.02.36-.26.73-.32,1.09-.11.6-.05,1.13.24,1.67.54,1.01,1.56,1.5,2.68,1.44l-.36-.24c-.19,1.11.01,2.09.6,3.05.14.23.55.07.69-.06,1.13-1.04,2.39-2.23,2.58-3.85.07-.62-.01-1.28-.32-1.83-.42-.74-1.44-1.08-1.6-1.96-.28-1.48.58-2.48-.97-3.43-.69-.43-.97-.5-.99-1.46,0-.26.07-.51.05-.77-.05-.7-.37-1.35-.86-1.84s-.96-.6-1.58-.8c-.65-.21-1.11-.17-1.13-.97-.01-.35.23-.71.32-1.05.41-1.58-.48-1.83-1.37-2.91-.6-.73-.08-1.55-.38-2.37s-1.05-1.6-1.59-2.3c-1.41-1.84-2.88-3.63-4.39-5.39-.22-.26-.97.05-.73.34,1.35,1.58,2.67,3.18,3.95,4.82.62.8,1.81,1.93,2.04,2.94.16.66-.22,1.3.1,1.94.22.44.64.73,1,1.05.81.75.75,1.35.44,2.35-.27.87-.37,1.69.67,2,.97.29,1.76.25,2.37,1.24.56.91,0,1.72.32,2.6.15.43.52.66.88.88,1.05.65,1.16,1.1,1.07,2.32-.04.55-.1,1.1.19,1.6.41.71,1.25.94,1.57,1.76.77,1.98-.98,3.68-2.29,4.89l.69-.06c-.54-.87-.7-1.77-.53-2.78.03-.2-.22-.25-.36-.24-1.05.06-2-.74-2.21-1.76-.15-.73.3-1.27.34-1.96.08-1.42-1.7-1.23-1.72-2.64-.02-1.04.17-1.88-.69-2.65-.91-.82-2.27-1.09-2.36-2.51-.07-1.07.43-2.14-.49-2.98-.61-.56-1.24-.73-1.29-1.68-.03-.55.17-1.11.23-1.66.1-1-.14-1.7-1.06-2.2-.72-.39-1.36-.68-1.69-1.49-.31-.77-.22-1.57.2-2.28.1-.17-.09-.29-.24-.31-2.16-.35-2.72-3.03-.93-4.26.44-.3-.21-.55-.52-.34h0Z"/>
    </g>
    <g>
      <path class="cls-23" d="M863.45,344.69c-.75,1.48,0,3.53,1.53,4.17.3.13.63.21.86.44.48.49.25,1.29.3,1.96.11,1.54,1.73,2.49,3.21,2.89.95.26,2.15.64,2.23,1.62.03.39-.14.78-.05,1.16.25,1,2.08,1.03,2.12,2.06.02.47-.4.87-.41,1.34-.02,1,1.55,1.13,2.11,1.96.26.39.26.88.26,1.35-.01,1.42-.03,2.84-.04,4.26,0,.35.02.76.31.96.48.34,1.08-.23,1.36-.75,1.61-2.89,2.47-6.2,2.46-9.51,0-.83-.23-1.87-1.04-2.03-.27-.05-.58,0-.79-.17-.35-.28-.13-.83.03-1.25.64-1.73-.76-3.89-2.61-4-.5-.03-1.1.02-1.38-.39-.19-.27-.14-.64-.2-.96-.16-.84-1.04-1.33-1.86-1.55s-1.72-.3-2.4-.81c-.86-.63-1.24-1.84-2.22-2.27-1.18-.52-2.84.28-3.71-.68"/>
      <path class="cls-23" d="M863.06,344.75c-.43.99-.38,2.07.17,3,.22.37.5.7.85.95.6.43,1.44.45,1.65,1.28.27,1.04-.12,1.93.67,2.85s1.86,1.25,2.93,1.58c.62.19,1.33.39,1.68.98s-.08,1.25.22,1.86c.4.79,1.73.78,2,1.63.28.91-.87,1.56.07,2.37.33.29.77.43,1.13.67.68.47.78,1.05.8,1.83.02.87-.02,1.74-.02,2.6,0,.66-.18,1.55.03,2.19.2.6.76.71,1.31.51.79-.27,1.16-1.08,1.51-1.77.71-1.42,1.24-2.92,1.59-4.47.4-1.78,1.33-5.36-.64-6.43-.1-.05-.25,0-.35-.05-.8-.48-.5-.72-.35-1.26.12-.41.19-.81.15-1.24-.1-1.02-.75-1.99-1.63-2.5-.4-.23-.82-.34-1.27-.39-.56-.07-1,.12-1.36-.61-.14-.28-.04-.66-.17-.96-.49-1.14-1.88-1.29-2.92-1.57-.89-.24-1.49-.63-2.05-1.35-.37-.47-.68-.99-1.19-1.31-1.22-.77-2.87.14-3.96-.82-.18-.16-.91.14-.74.29.61.54,1.33.56,2.11.55s1.49-.05,2.12.47c.45.38.74.92,1.12,1.36.66.77,1.42,1.01,2.38,1.25.61.15,1.27.27,1.77.67.74.58.46,1.05.8,1.78.37.81,1.42.51,2.11.72,1.13.34,1.97,1.48,2.08,2.63.07.66-.61,1.7-.29,2.28.15.28.37.28.65.36.84.27,1.15.57,1.27,1.42.38,2.61-.48,5.7-1.48,8.1-.18.43-.68,1.93-1.08,2.15-.35.19-.65-.07-.74-.31-.07-.19,0-.54,0-.74,0-1.43.28-3.08,0-4.49-.18-.91-.83-1.17-1.54-1.62-.52-.32-.9-.6-.73-1.28.12-.49.49-.84.26-1.36-.27-.62-1.1-.75-1.58-1.15-.85-.71-.05-1.85-.88-2.62-.75-.7-1.9-.75-2.8-1.15-1.46-.65-2.17-1.62-2.17-3.2s-.97-1.35-1.97-2.24-1.26-2.37-.73-3.59c.08-.19-.68-.11-.78.12h0Z"/>
    </g>
    <g>
      <path class="cls-23" d="M866.36,343.52c1.7,1.43,4.73-.86,6.4.61.81.71,1.07,2.17,2.14,2.28.49.05,1-.24,1.46-.06.96.37.34,1.88.77,2.81.54,1.16,2.5,1,3.07,2.14.16.32.17.7.31,1.03.25.63.88,1.01,1.39,1.44.52.44.98,1.11.76,1.75,1.99-1.88,2.33-5.25.76-7.49-.17-.24-.36-.48-.43-.76-.07-.28-.01-.57.02-.86.14-1.44-.56-2.94-1.75-3.76-.42-.29-.91-.52-1.14-.97-.33-.63-.01-1.4-.08-2.11-.16-1.65-2.21-2.35-3.15-3.72-.39-.57-.58-1.25-.93-1.85-.37-.64-.93-1.17-1.59-1.5-.52-.27-1.22-.4-1.66,0-.3.27-.39.7-.62,1.03-.59.83-1.84.74-2.83.49s-2.16-.51-2.93.15c-1.09.95-.37,2.8-.94,4.12-.25.58-.74,1.04-.94,1.65-.18.55-.09,1.15.01,1.72.17,1.01.34,2.03.51,3.04"/>
      <path class="cls-23" d="M865.96,343.68c1.51,1.11,3.3.14,4.96.15,2.18,0,2.08,2.86,4.23,2.77.71-.03,1.16-.1,1.34.68.1.44,0,.91.07,1.36.12.87.61,1.29,1.38,1.64.45.2.99.33,1.38.64.55.44.5.95.76,1.55.52,1.18,2.42,1.63,2.15,3.14-.06.31.72.01.82-.08,1.08-1.08,1.7-2.49,1.77-4.02.04-.78-.07-1.58-.34-2.31-.31-.85-1.04-1.52-1.07-2.42-.06-1.79-.31-3.25-1.89-4.34-.29-.2-.63-.36-.85-.64-.46-.59-.22-1.23-.22-1.91,0-.63-.15-1.14-.54-1.64-.46-.6-1.1-1.02-1.66-1.51-.74-.63-1.16-1.34-1.57-2.21-.57-1.22-1.67-2.52-3.15-2.45-.41.02-.85.13-1.16.4-.2.17-.27.39-.42.6-.72,1-1.5.96-2.51.74-1.13-.25-2.47-.48-3.45.34-1.3,1.1-.43,3.14-1.17,4.51-.43.79-.93,1.3-.9,2.27.04,1.29.4,2.63.61,3.91.04.22.9.03.86-.23-.16-.94-.32-1.88-.47-2.82-.18-1.09-.15-1.85.46-2.8.79-1.24.53-2.29.77-3.67.39-2.22,2.84-.84,4.34-.91,1.03-.05,1.55-.44,2.17-1.19,1.7-2.06,3.05,1.67,3.79,2.77.68,1,1.82,1.54,2.58,2.47.6.74.54,1.38.51,2.29-.02.65.06,1.12.55,1.56.57.51,1.22.8,1.69,1.43s.79,1.47.81,2.3c.01.44-.13.92-.03,1.36.09.39.4.7.61,1.03.41.67.66,1.43.76,2.2.24,1.82-.37,3.63-1.66,4.92l.82-.08c.22-1.23-.81-1.74-1.58-2.48s-.63-1.93-1.63-2.53c-.84-.5-2.06-.57-2.4-1.65-.24-.76.2-1.92-.5-2.49-.21-.17-.53-.22-.78-.22-.77-.01-1.26.22-1.82-.41-.6-.68-.81-1.58-1.69-2.01-1.89-.91-4.18.97-5.92-.3-.21-.15-.97.18-.8.31h0Z"/>
    </g>
    <path class="cls-38" d="M831,321.66s5.56,18.85,18.8,32.43c13.25,13.58,12.03,29.49,12.03,29.49,0,0,5.36-8.15,12.92-4.7,7.56,3.45,11.3,5.56,9.77,11.94-1.53,6.38-5.36,17.1-24.45,15.91,0,0-9.7-1.85-12.63,8.55-2.93,10.39-2.05,5.58.42,20.96,2.47,15.38-3.99,29.67-11.86,33.51,0,0,13.21,1,20.03-10.55,6.83-11.54,7.81-15.75,7.81-15.75,0,0-2.76,9.71,3.97,16.37,0,0,1.99-18.05,7.92-21.29,2.85-1.56,13.56,8.31,13.56,8.31,0,0,8.21.55,8.66-15.16.45-15.7-7.46-22.68-1.75-39.23,5.7-16.55,11.26-29.72,7.98-42.14-3.27-12.42-4.89-27.86-24.57-31.11-19.69-3.26-48.62,2.47-48.62,2.47Z"/>
    <path class="cls-12" d="M872.16,382s9.73-50.08-32.19-58.42c0,0-18.41-7.4-39.25,2.27,0,0,7.84-9.11,18.55-12.07,0,0,34.14-5.28,52.82,19.75,18.68,25.03,3.8,51.11,3.8,51.11l-3.72-2.64Z"/>
    <path class="cls-4" d="M857.89,477.93c-4.04,21.77-6.96,69.68-6.96,69.68l-67.69,13.55-5.77,17.56s89.53,22.53,103.38-7.95c3.57-7.85,12.52-54.37,13.57-81.4-11.58-5.07-24.22-10.23-36.52-11.43Z"/>
    <path class="cls-25" d="M851.1,547.74c3.66-.75,7.48,1.2,9.48,4.26.34.52,1.86-.03,1.45-.66-2.39-3.66-6.94-5.41-11.18-4.55-.28.06-.75.34-.66.69.1.37.64.32.91.26h0Z"/>
    <path class="cls-4" d="M795.88,560.16l-11.87,7.68-3.2,9.98s-12.35,3.51-16.24,3.02c-3.89-.5-13.18-.38-13.18-.38.42,1.26.42,2.67,0,3.99-.56,1.48-1.63,2.67-2.95,3.3l-3.7-6.93c-1.29,3.2-3.72.79-3.72.79l-2.63-6.1c-1.44,4.04-4.66.99-4.66.99l-1.25-8.54c-1.02,1.39-2.26,2.56-3.65,3.44-1.8.92-2.2-2.46-2.2-2.46l7.29-13.28,18.09-5.96,27.44,9.88,16.42.58Z"/>
    <path class="cls-25" d="M746.05,554.5s0,0,0-.01c-.35.04-.69.1-1.03.24-1.16.37-2.31.82-3.43,1.36-1.25.59-2.65,1.23-4.06,2.07-1.34.76-2.62,1.68-3.8,2.74-.6.5-1.01,1.23-1.14,2.04-.1.63-.15,1.26-.18,1.9-.18,1.24-.13,2.49.16,3.67.11-.02.13-1.34.41-3.59.07-.56.14-1.2.26-1.8.13-.61.47-1.16.94-1.51,1.17-.98,2.4-1.85,3.69-2.59,1.37-.8,2.71-1.45,3.96-2.08,1.25-.62,2.35-1.19,3.29-1.54.37-.12.74-.21,1.12-.29-.07-.2-.13-.41-.2-.61Z"/>
    <path class="cls-25" d="M740.77,566.73c2.68-1.29,5.27-2.14,7.05-3.06.24-.09.47-.2.71-.31-.05-.19-.11-.37-.16-.55-.24.11-.47.21-.71.33-1.81.74-4.4,1.47-7.17,2.81-.74.29-1.43.77-2.01,1.39-.39.69-.68,1.44-.88,2.21-.44,1.25-.6,2.59-.46,3.9.18.83.43,1.63.74,2.4.19.54.35.83.35.83,0,0,.04-.36-.06-.94-.1-.59-.41-1.41-.47-2.4-.06-1.22.14-2.46.58-3.62.19-.66.45-1.29.78-1.88.5-.48,1.08-.85,1.69-1.09Z"/>
    <path class="cls-25" d="M751.32,571.86c-.21.01-.43.03-.64.06l-2.47.27c-1.06.07-2.11.37-3.1.87-1.08.55-1.86,1.66-2.09,2.95-.12,1.01.05,2.02.49,2.88.74,1.39,1.39,1.95,1.47,1.94.12-.09-.4-.88-.86-2.26-.31-.76-.41-1.62-.27-2.47.22-.99.85-1.83,1.68-2.24.89-.45,1.84-.74,2.8-.85l2.46-.46c.25-.05.49-.11.72-.16-.06-.18-.12-.35-.18-.53Z"/>
    <path class="cls-41" d="M905.02,482.7c-1.01-11.19-.05-14.44-6.23-24.5-4.04-6.58-8.2-11.25-12.09-14.59-2.31-2.93-6.69-5.22-9.9-5.23-4.92-.03-7.32,8.03-8.03,15.57,4.68,4.95,2.45,14.11-6.4,14.11-2.2,0-3.97-.65-5.34-1.7-.49.05-.98.06-1.49.02-2.24,12.26-16.72,42.86-1.65,51.16,13.17,7.26,27.9,6.78,37.91,6.78,6.63,0,14.26-30.16,13.22-41.63Z"/>
    <path class="cls-24" d="M862.31,456.28c-3.72,1.75-6.29,5.33-8.27,8.81-2.78,4.88-4.66,10.28-6.05,15.7s-2.33,11.21-2.54,16.91.3,11.17,3.31,15.98c.9,1.43,1.99,2.9,3.39,3.88.32.23.67.45,1.07.5s1.5-.12,1.56-.64c.07-.55-1.71-.22-1.77.28s1.67-.1,1.36-.47c-.03-.03-.11-.02-.14-.06-.09-.1-.3-.18-.41-.26-.49-.34-.92-.76-1.33-1.19-1.24-1.3-2.22-2.83-3-4.44-2.22-4.6-2.47-9.72-2.23-14.74.5-10.25,2.96-20.96,7.68-30.11,1.91-3.72,4.5-7.94,8.43-9.79.3-.14.46-.34.19-.56s-1,.08-1.25.2h0Z"/>
    <path class="cls-41" d="M743.87,777.39l.29,14.66c-5.55,4.86-18.6,20.03-22.94,22.48-5.58,3.15-6.54,3.89-13.08,7.81-2.56,1.54-3.67,2.16-6.95,2.94-3.29.78-7.07-.11-8.61,2.71-1.01,1.87.65,4.11,3.13,5.24,2.49,1.13,5.57,1.38,8.5,1.38,2.93,0,5.88-.22,8.79.13,1.1.13,2.21.34,3.31.27,2.5-.15,4.71-1.7,7.14-1.2.69.14,1.3.43,1.99.58,1.03.21,2.12.06,3.12-.16,7.25-1.57,8.47-2.21,14.52-5.01,5.97-2.77,11.5-3.65,17.91-6.05,3.05-1.14,12.3-.98,18.03-6.05,3.24-2.86-1.27-10.05-2.89-13-3.69-6.7-3.5-9.15-4.43-12.47l1.95-14.27h-29.8Z"/>
    <path class="cls-41" d="M713.95,792.3c-2,1.18-21.03,18.43-23.31,19.28-7.76,2.91-6.6,5.12-12.95,5.94-1.27.16-2.65.24-3.63.85-.5.31-.85.74-1.25,1.13-2.24,2.19-6.45.57-8.97,2.52-2,1.54-1.65,3.15-.15,4.45.58.5,1.12.38,2.08.52,3.47.5,8.16.75,15.02-1.3,4.41-1.32,19.52-2.33,24.28-2.78,5.56-.52,12.88-2.76,18.44-3.28,4.26-.4,15.2.82,18.7-.96,4.16-2.11,5.22-4.99,3.2-8.34-1.75-2.91-2.95-11.56-4.7-14.61l2.18-15.72h-29.88s.95,12.31.95,12.31Z"/>
    <g>
      <path class="cls-41" d="M742.22,779.6c1,1.72,1.99,3.44,2.99,5.16.33.57.65,1.3.25,1.82-.5.66-1.59.35-2.29-.1-.7-.46-1.52-1.04-2.31-.74-1.03.4-1.11,2.01-2.18,2.3-1.33.36-2.09-1.7-3.46-1.83-1.79-.16-2.39,2.93-4.2,2.89-1.75-.03-2.13-2.93-3.88-3.02-1.02-.05-1.72.9-2.32,1.69-.6.79-1.64,1.58-2.53,1.12-.89-.46-1.09-1.97-2.1-1.91-.29.02-.55.19-.78.37-.57.44-1.07.97-1.48,1.55-.21.3-.42.63-.77.75-.67.21-1.24-.49-1.47-1.12-.23-.63-.46-1.4-1.13-1.57-1.26-.33-1.79,1.7-3.03,2.13-1,.35-2.03-.52-2.43-1.45-.13-.3-.24-.63-.48-.86-.78-.74-2.08.06-2.85.83-.61-.64-.42-1.7.13-2.4.55-.7,1.38-1.14,2.12-1.64,1.27-.87,2.36-1.98,3.18-3.24.25-.39.49-.81.91-1.03.49-.27,1.1-.2,1.66-.13,9.08,1.16,18.34,1.14,27.44-.06"/>
      <path class="cls-18" d="M741.84,779.78c.75,1.29,1.49,2.58,2.24,3.87.36.61.85,1.26,1.06,1.95.09.32.17.81-.2,1-.27.14-.69,0-.94-.11-.99-.4-1.75-1.32-2.91-1.12-.85.14-1.29.82-1.69,1.51-.2.34-.43.81-.85.88s-.84-.34-1.14-.6c-.6-.54-1.18-1.17-2.03-1.26-1.68-.18-2.36,1.62-3.43,2.53-1.47,1.25-2.47-1.25-3.35-2.06-.58-.53-1.35-.74-2.11-.49-1,.33-1.53,1.24-2.19,1.99-.42.48-1.13,1.1-1.79.71-.37-.22-.59-.68-.82-1.02-.46-.67-1.07-1.08-1.9-.78-.47.17-.86.53-1.21.87-.21.2-.41.4-.59.62-.21.25-.37.59-.6.81-.99.93-1.46-1.56-1.98-2.06-.64-.63-1.58-.47-2.21.07-.68.59-1.35,2.09-2.44,1.66-.74-.29-1.07-.98-1.39-1.64-.23-.47-.56-.82-1.09-.92-1.08-.21-2.11.58-2.84,1.28l.73-.06c-.92-1.1.19-2.33,1.1-2.96s1.84-1.22,2.66-2.01c.4-.39.77-.8,1.1-1.23s.61-.98.98-1.4c.46-.52,1.12-.4,1.75-.33.68.09,1.37.17,2.05.24,5.36.57,10.77.74,16.16.5,3.08-.14,6.16-.41,9.22-.81.47-.06.64-.7.07-.63-5.96.78-11.99,1.07-18,.84-2.96-.11-5.91-.35-8.85-.71-1.01-.12-2.11-.32-2.92.46-.4.38-.65.9-.98,1.34-.4.54-.84,1.05-1.33,1.52-1.02.97-2.36,1.55-3.35,2.55-.78.79-1.22,2.08-.43,3.02.19.23.55.12.73-.06.41-.4,1-.9,1.6-.93.76-.04.89.93,1.22,1.43.53.82,1.5,1.44,2.5,1.21.84-.19,1.37-.88,1.91-1.51.23-.27.55-.72.95-.68.59.06.79.88.96,1.33.32.82,1,1.68,1.99,1.38.49-.14.76-.52,1.05-.91.39-.54.85-1.1,1.4-1.48.6-.41.86-.14,1.22.38.24.35.45.74.79,1.02.78.66,1.82.4,2.58-.15.85-.62,1.39-2.06,2.44-2.35.91-.25,1.54.74,1.99,1.36s.89,1.24,1.61,1.5c.67.24,1.42.07,1.99-.34.65-.46,1.08-1.15,1.6-1.74.66-.74,1.29-.91,2.1-.26.61.48,1.12,1.19,1.92,1.37s1.52-.23,1.97-.87c.27-.39.45-.88.79-1.22.6-.62,1.44,0,2.01.36.8.52,1.91.98,2.8.4,1.19-.78.26-2.2-.26-3.08-.87-1.5-1.74-3.01-2.61-4.51-.19-.33-.99-.01-.77.37h0Z"/>
    </g>
    <g>
      <path class="cls-41" d="M774.05,777.22c.98,1.74,1.96,3.47,2.94,5.21.32.57.64,1.31.21,1.83-.53.65-1.63.33-2.33-.15-.7-.47-1.52-1.07-2.34-.78-1.06.38-1.17,1.99-2.27,2.26-1.36.34-2.09-1.74-3.49-1.89-1.83-.19-2.5,2.88-4.34,2.82-1.78-.06-2.11-2.97-3.89-3.09-1.03-.07-1.78.87-2.4,1.65s-1.71,1.55-2.6,1.07c-.89-.48-1.07-1.99-2.1-1.95-.3.01-.57.18-.81.35-.59.43-1.11.95-1.54,1.52-.22.29-.44.63-.8.73-.68.2-1.25-.52-1.47-1.15s-.44-1.41-1.12-1.6c-1.28-.35-1.86,1.67-3.13,2.07-1.03.33-2.05-.56-2.45-1.49-.13-.3-.23-.63-.48-.87-.78-.76-2.12.02-2.92.78-.61-.65-.39-1.71.18-2.39.58-.69,1.43-1.11,2.2-1.6,1.31-.84,2.45-1.93,3.31-3.18.26-.38.52-.8.95-1.02.51-.26,1.13-.18,1.7-.1,9.24,1.32,18.68,1.47,27.98.44"/>
      <path class="cls-18" d="M773.66,777.41l2.2,3.91c.34.61.79,1.23,1.01,1.9.09.28.18.66-.03.91-.24.29-.69.17-.99.07-1.02-.34-1.75-1.32-2.91-1.25-.89.05-1.42.68-1.86,1.39-.21.34-.46.87-.9.96s-.83-.27-1.12-.53c-.6-.53-1.14-1.18-1.96-1.35-1.7-.34-2.52,1.35-3.57,2.31-1.58,1.43-2.51-1-3.45-1.93-.55-.55-1.27-.81-2.05-.64-1.03.23-1.66,1.1-2.3,1.85-.39.46-1.1,1.14-1.77.92-.45-.15-.71-.66-.95-1.03-.43-.66-.97-1.18-1.82-.97-1.08.27-1.9,1.35-2.55,2.17-1.04,1.29-1.52-1.34-2.03-1.9-.6-.65-1.55-.59-2.21-.09-.7.53-1.37,1.95-2.39,1.76-.76-.14-1.25-.88-1.53-1.52-.22-.49-.45-.92-.99-1.11-1.08-.38-2.28.43-3.04,1.12h.67c-.89-1.07.2-2.26,1.11-2.87.98-.65,1.97-1.22,2.84-2.02.41-.38.79-.78,1.15-1.21s.61-.91.97-1.32c.51-.57,1.17-.45,1.85-.35s1.37.19,2.05.27c5.48.67,11.02.94,16.54.79,3.13-.08,6.26-.3,9.38-.64.48-.05.65-.7.07-.63-6.07.67-12.19.85-18.29.51-3.04-.17-6.08-.46-9.09-.88-1.06-.15-2.18-.35-3.02.47-.38.37-.64.85-.97,1.27-.45.58-.95,1.12-1.51,1.6-1.04.9-2.38,1.44-3.36,2.41-.79.78-1.26,2.04-.48,2.99.15.18.5.16.67.01.42-.38.94-.83,1.51-.93.91-.17,1.02.74,1.38,1.34.5.85,1.44,1.49,2.46,1.34.91-.13,1.5-.86,2.09-1.5.24-.27.58-.71.99-.65.56.08.77.83.92,1.27.31.86.99,1.78,2.02,1.48.49-.14.78-.52,1.08-.9.41-.54.89-1.09,1.47-1.45s.86-.16,1.2.36c.25.36.45.75.78,1.05.75.69,1.79.48,2.58-.03.44-.29.8-.66,1.13-1.07.4-.48.86-1.13,1.5-1.29.93-.23,1.55.77,2,1.41.43.6.89,1.26,1.61,1.53s1.48.08,2.08-.34c.66-.46,1.11-1.15,1.66-1.73.69-.72,1.35-.78,2.13-.14.6.5,1.12,1.21,1.92,1.39s1.53-.22,1.99-.85c.28-.39.48-.87.83-1.21.63-.6,1.47.03,2.05.41.81.53,1.98,1.03,2.88.41,1.16-.8.25-2.18-.26-3.07-.86-1.52-1.71-3.04-2.57-4.56-.19-.34-.99-.02-.77.38h0Z"/>
    </g>
    <path class="cls-18" d="M707.98,822.73c8.79-7.22,17.5-14.54,26.14-21.94,2.42-2.08,4.84-4.16,7.25-6.25.43-.37-.25-.61-.55-.35-8.59,7.46-17.26,14.82-26.01,22.1-2.45,2.04-4.91,4.08-7.38,6.1-.44.36.24.6.55.35h0Z"/>
  </g>
  <g id="Layer_10" data-name="Layer 10">
    <path class="cls-4" d="M648.22,425.7c-.25-.32-2.15-2.36-2.27-2.75-.44-1.42-.33-2.43.36-3.46.31-.41,1.57-2.12,1.99-2.41.81-.55.23-.23-.04-1.18l-.34-1.21c-.13-.47-.13-.97.04-1.42.35-.94.85-1.82,1.47-2.61,1.12-1.29,4.63-1.35,4.63-1.35l-.55-1.23c-.37-1.52-.17-2.22.95-3.31l.55-.5c.62-.41,1.29-.71,2-.91,1.12-.32,1.84-1.39,1.72-2.55-.1-.97-.06-2.01.41-2.56,2.02-1.95,4.98-2.55,7.58-1.56.17.06.33.15.48.25,4.12,2.62,8.05,5.52,11.78,8.67.26.22,5.27,2.7,5.57,2.82.64,2.62-2.75,2.61-.9,4.69,1.71,1.92,3.68,3.58,5.49,5.4.59.59.8,1.45.6,2.26,0,0,0,.01,0,.02-.06.23-.08.46-.07.7l.73,15.71c.04.93,3.19,3.67,2.51,4.29-7.48,6.86-17.78,12.88-17.59,13.12.21.26-3.54-7.09-6.25-8.03,0,0-12.87-10.61-20.85-20.89Z"/>
    <path class="cls-4" d="M679.33,408.64c.55-.11,4.02-.4,4.47-.81.12-.11.24-.24.34-.37,2.87-3.73,6.28-7.01,10.13-9.72,4.32-2.71,7.16-1.44,8.64-.24.62.51.71,1.43.2,2.06-.05.06-.11.13-.18.18-2.53,2.09-4.93,4.33-7.18,6.72-1.03,1.29-4.29,9.19-6.24,14.05-2.93-3.74-9.4-7.2-10.18-11.87Z"/>
    <path class="cls-25" d="M667.45,398.98c1.26,1.4,2.47,2.84,3.65,4.3,1.78,2.2,3.84,4.59,4.89,7.25.49,1.24.13,2.67-.52,3.81-.58,1.01-1.25,1.01-2.24.47-.41-.22-.78-.5-1.14-.79-2.4-1.91-4.57-4.14-6.72-6.32-1.62-1.64-3.22-3.29-4.8-4.97-.35-.37-1.68.14-1.29.56,1.49,1.59,3.01,3.16,4.54,4.71,2.3,2.33,4.61,4.77,7.22,6.77,1.18.91,2.66,1.66,4.16,1.06,1.61-.64,2.38-2.74,2.47-4.35.06-1.06-.62-2.13-1.13-3.01-.82-1.4-1.78-2.71-2.76-4-1.59-2.08-3.28-4.11-5.03-6.05-.34-.38-1.68.13-1.29.56h0Z"/>
    <path class="cls-25" d="M654.06,409.85c2.06,2.1,4.23,4.11,6.48,6,1.53,1.28,3.13,2.56,4.89,3.52,1.62.88,3.45,1.19,5.17.32,2.74-1.39,1.91-4.53.24-6.43-.32-.36-1.65.14-1.3.55,1.15,1.31,2.62,4.6.12,5.48-1.44.51-2.91-.41-4.08-1.16-3.02-1.92-5.71-4.43-8.28-6.9-.66-.63-1.32-1.27-1.96-1.92-.34-.35-1.66.17-1.3.55h0Z"/>
    <path class="cls-25" d="M649.19,416.96c2.32,2.16,4.79,4.2,7.37,6.04,1.71,1.22,3.53,2.46,5.53,3.15,1.74.61,4.14.64,5.35-1,1.69-2.28-.39-5.49-1.99-7.15-.47-.48-1.78.11-1.27.63,1.28,1.32,3.26,3.95,2.17,5.91-.84,1.51-3.04.84-4.27.29-3.51-1.56-6.62-4.2-9.52-6.68-.78-.67-1.56-1.35-2.31-2.05-.49-.45-1.67.27-1.07.84h0Z"/>
    <path class="cls-25" d="M646.52,423.86c2.02,1.1,4.09,2.13,6.18,3.08,1.42.64,2.86,1.28,4.36,1.72,1.39.42,2.84.53,4.17-.17,1.61-.85,1.39-2.74.18-3.85-.28-.26-1.54.27-1.31.48.74.69,1.57,2.65.2,3.23-.87.36-2.25-.27-3.06-.56-2.61-.93-5.11-2.18-7.58-3.45-.62-.32-1.23-.64-1.84-.97-.26-.14-.65-.02-.9.07-.07.02-.64.29-.41.41h0Z"/>
    <path class="cls-25" d="M667.53,422.98c4.33.92,9.09,2.3,11.55,6.32.22.37,1.57-.18,1.45-.39-2.53-4.12-7.36-5.55-11.82-6.5-.33-.07-.72.03-1.01.18-.12.06-.5.32-.17.39h0Z"/>
    <path class="cls-25" d="M670.54,447.95c3.7.9,8.1-1.01,9.64-4.56.12-.27-.49-.21-.59-.2-.26.04-.72.15-.84.43-1.17,2.69-4.12,4.43-7.03,3.72-.33-.08-.72.01-1.02.17-.13.07-.5.36-.16.44h0Z"/>
  </g>
</svg>