<?xml version="1.0" encoding="UTF-8"?>
<svg xmlns="http://www.w3.org/2000/svg" viewBox="0 0 1334 1000">
  <defs>
    <style>
      .cls-1 {
        fill: #906143;
      }

      .cls-1, .cls-2, .cls-3, .cls-4, .cls-5, .cls-6, .cls-7, .cls-8, .cls-9, .cls-10, .cls-11, .cls-12, .cls-13, .cls-14, .cls-15, .cls-16, .cls-17, .cls-18, .cls-19, .cls-20, .cls-21, .cls-22, .cls-23, .cls-24, .cls-25, .cls-26, .cls-27, .cls-28, .cls-29, .cls-30, .cls-31, .cls-32, .cls-33, .cls-34, .cls-35, .cls-36, .cls-37, .cls-38, .cls-39, .cls-40, .cls-41, .cls-42, .cls-43, .cls-44, .cls-45, .cls-46 {
        stroke-width: 0px;
      }

      .cls-2 {
        fill: #1c3f1c;
      }

      .cls-3 {
        fill: #634836;
      }

      .cls-4 {
        fill: #d3a98c;
      }

      .cls-5 {
        fill: #874d3e;
      }

      .cls-6 {
        fill: #010101;
      }

      .cls-7 {
        fill: #13100f;
      }

      .cls-8 {
        fill: #e2ac91;
      }

      .cls-9 {
        fill: #c7cd8d;
      }

      .cls-10 {
        fill: #411436;
      }

      .cls-11 {
        fill: #87654d;
      }

      .cls-12 {
        fill: #c95744;
      }

      .cls-47 {
        stroke-width: 4.42px;
      }

      .cls-47, .cls-48 {
        stroke: #ce683b;
      }

      .cls-47, .cls-48, .cls-49 {
        fill: none;
        stroke-miterlimit: 10;
      }

      .cls-13 {
        fill: #51352d;
      }

      .cls-14 {
        fill: #cec6be;
      }

      .cls-15 {
        fill: #f2ebd1;
      }

      .cls-16 {
        fill: #6d594e;
      }

      .cls-17 {
        fill: #ce8d2a;
      }

      .cls-18 {
        fill: #a9a8a9;
      }

      .cls-19 {
        fill: #a38978;
      }

      .cls-20 {
        fill: #8c694b;
      }

      .cls-48 {
        stroke-width: 4.63px;
      }

      .cls-21 {
        fill: #151210;
      }

      .cls-22 {
        fill: #0f0a09;
      }

      .cls-23 {
        fill: #000;
      }

      .cls-24 {
        fill: #999;
      }

      .cls-25 {
        fill: #804840;
      }

      .cls-26 {
        fill: #1d170f;
      }

      .cls-27 {
        fill: #99382f;
      }

      .cls-28 {
        fill: #231f20;
      }

      .cls-29 {
        fill: #dbc1a8;
      }

      .cls-30 {
        fill: #80483f;
      }

      .cls-31 {
        fill: #ddd4c9;
      }

      .cls-32 {
        fill: #13110f;
      }

      .cls-33 {
        fill: #513835;
      }

      .cls-34 {
        fill: #a67351;
      }

      .cls-35 {
        fill: #322313;
      }

      .cls-36 {
        fill: #0f122c;
      }

      .cls-49 {
        stroke: #804840;
        stroke-width: 1.21px;
      }

      .cls-37 {
        fill: #757575;
      }

      .cls-38 {
        fill: #462d1f;
      }

      .cls-39 {
        fill: #eae4d6;
      }

      .cls-40 {
        fill: #21572b;
      }

      .cls-41 {
        fill: #fff;
      }

      .cls-42 {
        fill: #2a3784;
      }

      .cls-43 {
        fill: #8d1827;
      }

      .cls-44 {
        fill: #7f7f7e;
      }

      .cls-45 {
        fill: #0b0b0b;
      }

      .cls-46 {
        fill: #f1eef7;
      }
    </style>
  </defs>
  <g id="Layer_1" data-name="Layer 1">
    <polyline class="cls-39" points="-23.89 1118.97 -23.89 -159.57 1489.17 -159.57 1489.17 1118.97"/>
    <g>
      <rect class="cls-41" x="1015.42" y="-59.9" width="165.62" height="202.14"/>
      <path class="cls-34" d="M1014.08-57.94h103.85c13.79,0,27.58,0,41.37,0,4.55,0,9.09,0,13.64,0,2.14,0,4.35.16,6.48,0,.09,0,.19,0,.28,0l-2.11-1.53v193.9c0,2.62-.12,5.28,0,7.9,0,.11,0,.23,0,.34l4.8-2.4h-158.86c-2.14,0-4.35-.16-6.48,0-.09,0-.19,0-.28,0l2.11,1.53V-52.09c0-2.63,0-5.27,0-7.9,0-.11,0-.23,0-.34,0-1.52-1.79-1.63-2.98-1.49-.98.12-3.93.91-3.93,2.35v193.9c0,2.63,0,5.27,0,7.9,0,.11,0,.23,0,.34,0,1.16,1.07,1.53,2.11,1.53h145.22c6.71,0,13.41.07,20.12,0,.09,0,.19,0,.28,0,1.08,0,2.14-.24,3.1-.74.54-.28,1.7-.9,1.7-1.66V-52.09c0-2.63,0-5.27,0-7.9,0-.11,0-.23,0-.34,0-1.16-1.07-1.53-2.11-1.53-5.49,0-10.98,0-16.46,0-13.18,0-26.36,0-39.54,0-15.95,0-31.9,0-47.84,0h-41.37c-6.71,0-13.41-.07-20.12,0-.09,0-.19,0-.28,0-1.54,0-3.66.5-4.56,1.89s.75,2.04,1.87,2.04Z"/>
    </g>
    <rect class="cls-9" x="1055.38" y="-20.75" width="86.34" height="128.32"/>
    <path class="cls-15" d="M1055.06,20.57c4.42.28,8.79,1.46,12.7,3.53,10.6,5.6,17.58,17.02,28.8,21.24,8.56,3.21,18.33,1.6,26.59-2.32,6.69-3.17,12.57-7.73,18.25-12.51V-24.58h-86.34V20.57Z"/>
    <g>
      <rect class="cls-41" x="1224.35" y="-59.9" width="165.62" height="202.14"/>
      <path class="cls-34" d="M1223.01-57.94h103.85c13.79,0,27.58,0,41.37,0,4.55,0,9.09,0,13.64,0,2.14,0,4.35.16,6.48,0,.09,0,.19,0,.28,0-.7-.51-1.41-1.02-2.11-1.53v193.9c0,2.62-.12,5.28,0,7.9,0,.11,0,.23,0,.34l4.8-2.4h-158.86c-2.14,0-4.35-.16-6.48,0-.09,0-.19,0-.28,0,.7.51,1.41,1.02,2.11,1.53V-52.09c0-2.63,0-5.27,0-7.9,0-.11,0-.23,0-.34,0-1.52-1.79-1.63-2.98-1.49-.98.12-3.93.91-3.93,2.35v193.9c0,2.63,0,5.27,0,7.9,0,.11,0,.23,0,.34,0,1.16,1.07,1.53,2.11,1.53h145.22c6.71,0,13.41.07,20.12,0,.09,0,.19,0,.28,0,1.08,0,2.14-.24,3.1-.74.54-.28,1.7-.9,1.7-1.66V-52.09c0-2.63,0-5.27,0-7.9,0-.11,0-.23,0-.34,0-1.16-1.07-1.53-2.11-1.53-5.49,0-10.98,0-16.46,0-13.18,0-26.36,0-39.54,0-15.95,0-31.9,0-47.84,0h-41.37c-6.71,0-13.41-.07-20.12,0-.09,0-.19,0-.28,0-1.54,0-3.66.5-4.56,1.89-.88,1.35.75,2.04,1.87,2.04Z"/>
    </g>
    <rect class="cls-9" x="1264.31" y="-20.75" width="86.34" height="128.32"/>
    <path class="cls-15" d="M1264.16,42.58s0,.05,0,.08c0,0,5.9,5.36,11.87,4.23,8.01-1.52,10.01-4.78,11.89-6.16,7.72-5.65,15.84-10.19,25.61-7.88,4.91,1.16,12.94,8.01,17.53,9.13,5.32,1.3,8.45,1.12,13.43-.82,1.45-.57,4.91-3.29,5.98-4.43l-.15-61.32c-.11,0-86.34,0-86.34,0l.17,67.16Z"/>
    <path class="cls-31" d="M771.27,264.29l378.15-1.16,39.53-.05c85.11.02,74.65,84.38,76.78,194.72,7.7-6.44,85.06-5.29,107.93-5.29.54.06,1.06.16,1.58.24.04,0,.08,0,.12,0,37.16,0,67.29,32.77,67.29,73.19,0,28.37-14.85,52.94-36.54,65.09-4.51,20.15-4.25,54.2.92,74.4,10.8,1.07,21.15,5.55,29.44,13.15,12.12,11.11,21.51,30.97,21.53,50.22v51.95c-.07,17.46-9.09,32.73-22.08,37.35l11.19,141.04-673.32-6.09c-.51-13.83-1-64.17-1.39-78.01-.9-31.83-7.93-63.64-7.93-95.48l6.79-515.27Z"/>
  </g>
  <g id="Layer_7" data-name="Layer 7">
    <path class="cls-14" d="M786.42,264.84l-378.15-1.16-39.53-.05c-85.11.02-74.65,84.38-76.78,194.72-7.7-6.44-85.06-5.29-107.93-5.29-.54.06-1.06.16-1.58.24-.04,0-.08,0-.12,0-37.16,0-67.29,32.77-67.29,73.19,0,28.37,14.85,52.94,36.54,65.09,4.51,20.15,4.25,57.47-.92,77.67-10.8,1.07-21.15,5.55-29.44,13.15-12.12,11.11-21.51,25.58-21.53,44.83v54.07c.07,17.46,9.09,32.73,22.08,37.35l-11.19,141.04,673.32-6.09c.51-13.83,1-64.17,1.39-78.01.9-31.83,7.93-63.64,7.93-95.48l-6.79-515.27Z"/>
    <path class="cls-14" d="M772.41,264.84l378.15-1.16,39.53-.05c85.11.02,74.65,84.38,76.78,194.72,7.7-6.44,85.06-5.29,107.93-5.29.54.06,1.06.16,1.58.24.04,0,.08,0,.12,0,37.16,0,67.29,32.77,67.29,73.19,0,28.37-14.85,52.94-36.54,65.09-4.51,20.15-4.25,54.2.92,74.4,10.8,1.07,21.15,5.55,29.44,13.15,12.12,11.11,21.51,30.97,21.53,50.22v51.95c-.07,17.46-9.09,32.73-22.08,37.35l11.19,141.04-673.32-6.09c-.51-13.83-1-64.17-1.39-78.01-.9-31.83-7.93-63.64-7.93-95.48l6.79-515.27Z"/>
    <path class="cls-44" d="M122.49,820.01h554.96c55.93,0,111.86,0,167.78,0h381.89c14.93,0,29.85.1,44.78,0,.65,0,1.31,0,1.96,0,1.44,0,4.33-2.17,1.61-2.17H170.84c-14.93,0-29.85-.1-44.78,0-.65,0-1.31,0-1.96,0-1.44,0-4.33,2.17-1.61,2.17h0Z"/>
    <path class="cls-44" d="M149.62,670.3c11.28-.02,22.55-.04,33.83-.06l91.24-.15c45.27-.08,90.53-.15,135.8-.23,54.85-.09,109.7-.18,164.55-.28,60.48-.1,120.97-.2,181.45-.3,60.64-.1,121.28-.2,181.92-.31,56.93-.1,113.86-.19,170.78-.29,47.79-.08,95.57-.16,143.36-.24,34.6-.06,69.2-.12,103.79-.17,16.28-.03,32.57.06,48.85-.08.71,0,1.42,0,2.14,0,1.5,0,4.61-2.26,1.72-2.25-11.28.02-22.55.04-33.83.06-30.41.05-60.82.1-91.24.15-45.27.08-90.53.15-135.8.23-54.85.09-109.7.18-164.55.28-60.48.1-120.97.2-181.45.3-60.64.1-121.28.2-181.92.31-56.93.1-113.86.19-170.78.29-47.79.08-95.57.16-143.36.24-34.6.06-69.2.12-103.79.17-16.28.03-32.57-.06-48.85.08-.71,0-1.42,0-2.14,0-1.5,0-4.61,2.26-1.72,2.25h0Z"/>
    <rect class="cls-13" x="-42.85" y="955.3" width="1722.98" height="185.4"/>
    <path class="cls-35" d="M1149.33,517.05c-10.16-.37-20.71.61-30.24,4.33-4.27,1.67-8.42,4.07-11.47,7.55-3.71,4.24-5.6,10.19-6.93,15.56-2.92,11.75-2.71,24.08-3.04,36.14-.34,12.39-.69,24.78-1.03,37.18-.4,14.37-.79,28.75-1.19,43.12-.22,7.94-.6,15.89-.66,23.83,0,.12,0,.23,0,.35-.06,2.05,3.8,1.55,3.85-.25.18-6.39.35-12.77.53-19.16.38-13.78.76-27.55,1.14-41.33.36-13.1.72-26.19,1.09-39.29.25-8.91.32-17.87,1.03-26.76.52-6.43,1.45-12.9,3.63-18.99,1.67-4.67,3.78-8.94,7.85-11.92,3.76-2.75,8.29-4.34,12.77-5.44,4.79-1.18,9.72-1.77,14.64-1.98,2.25-.1,4.51-.12,6.76-.04.92.03,2.07-.24,2.46-1.19.34-.82-.32-1.66-1.18-1.69h0Z"/>
    <path class="cls-35" d="M1079.62,521.41c-7.49,10.39-15.07,21.02-19.12,33.31-3.99,12.12-4.21,25.1-4.64,37.73-.7,20.44-1.05,40.9-1.44,61.35-.2,10.46-.39,20.93-.62,31.39-.04,1.64,3.77.89,3.8-.44.43-19.95.75-39.9,1.19-59.85.22-9.91.45-19.81.76-29.72.37-11.77.45-23.77,3.17-35.29,3.39-14.4,11.92-26.52,20.44-38.34.54-.75-.46-1.16-1.05-1.2-.88-.06-1.97.32-2.5,1.06h0Z"/>
    <path class="cls-33" d="M930.69,596.82s.1.04.15.04c0-.13,0-.25,0-.38-.05.11-.1.23-.15.34Z"/>
    <path class="cls-25" d="M932.66,807.28c1.89.63,3.66,1.64,5.22,2.89.22.22.44.34.63.77l-.31-.19c1.63-.3,3.36.04,4.79.84-1.54-.47-3.16-.65-4.68-.33l-.21.04c-.09-.29-.25-.47-.57-.73-1.53-1.23-3.17-2.3-4.86-3.3h0Z"/>
    <rect class="cls-40" x="922.49" y="663.1" width="159.66" height="21.96" rx="4.51" ry="4.51"/>
    <rect class="cls-42" x="932.01" y="644.52" width="129.99" height="14.93" rx="3.36" ry="3.36"/>
    <path class="cls-2" d="M935.55,671.19c-.5,1.99.69,4.43,2.63,5.2.95.38,1.93.04,2.55-.75.87-1.11,1.51-2.47,2.23-3.68l-.58.08c.53.62,1.06,1.24,1.58,1.86s1.01,1.32,1.61,1.85c.84.74,2.12.66,2.97-.01,1.09-.85.37-2.66,1.89-3.1s2.19,1.31,3.27,2.02c.88.58,2.22.79,3.13.16.82-.57.91-1.85,2.08-1.9,1.38-.06,1.94,1.22,2.87,1.95.87.68,2.08.85,3.07.29,1.12-.65,1.68-2.42,3.26-2.04.55.13.85.58,1.19,1,.36.43.77.73,1.31.88.46.13.66-.59.2-.72-.95-.27-1.25-1.34-2.12-1.75-1-.46-2.14-.08-2.91.65-.36.35-.61.79-1,1.11-.57.47-1.34.59-2.03.3-1.03-.44-1.48-1.59-2.48-2.09-.9-.46-2.08-.48-2.81.29-.28.29-.43.65-.65.98-.4.6-1.04.77-1.74.64-1.4-.27-1.81-1.64-2.96-2.27-.98-.54-2.28-.36-3.02.51-.43.5-.4,1.09-.54,1.7-.19.85-1.08,1.38-1.94,1.14-.75-.21-1.32-1.19-1.8-1.75-.63-.74-1.27-1.49-1.9-2.23-.16-.19-.47-.12-.58.08-.54.9-1.08,1.8-1.61,2.7-.48.81-1.01,1.79-2.14,1.45-.83-.25-1.57-1.15-1.97-1.89s-.54-1.62-.32-2.47c.12-.46-.6-.66-.72-.2h0Z"/>
    <path class="cls-2" d="M1068.01,663.36c0,7.34,0,14.68,0,22.02,0,.61.95.61.95,0,0-7.34,0-14.68,0-22.02,0-.61-.95-.61-.95,0h0Z"/>
    <path class="cls-2" d="M1063.78,663.36c-.16,7.34-.12,14.69.12,22.03.02.61.97.61.95,0-.25-7.34-.29-14.68-.12-22.03.01-.61-.94-.61-.95,0h0Z"/>
    <path class="cls-36" d="M1036.06,644.95v14.01c0,.61.95.61.95,0v-14.01c0-.61-.95-.61-.95,0h0Z"/>
    <path class="cls-36" d="M1031.44,644.95v14.01c0,.61.95.61.95,0v-14.01c0-.61-.95-.61-.95,0h0Z"/>
    <path class="cls-36" d="M944.67,650.85c-.17-1.14-1.66-1.47-2.5-.84-.94.71-1.07,2.14-.73,3.19.35,1.11,1.21,2.12,2.32,2.53,1.2.45,2.37-.03,3.17-.98.41-.48.72-1.02,1.13-1.49s1.24-1.11,1.91-.8c.49.23.64.91.97,1.3s.78.62,1.29.54c.95-.14,1.37-1.19,1.99-1.79,1.21-1.17,2.05,1.11,2.65,1.85.94,1.17,2.28,1.41,3.22.12s2.55-1.87,4.01-1.03c.53.3,1.01-.52.48-.82-.95-.54-2.08-.66-3.12-.34-.45.14-.88.36-1.25.65-.48.37-.72.94-1.17,1.33-1.01.87-2.01-1.49-2.47-2.07-.62-.77-1.58-1.3-2.53-.75-.74.43-1.02,1.32-1.7,1.79-.4.27-.65-.02-.86-.38-.27-.45-.49-.91-.96-1.19-.91-.54-2.03-.08-2.77.55-.85.73-1.24,1.95-2.24,2.52-1.26.71-2.64-.49-3.09-1.63-.23-.59-.29-1.36,0-1.94.26-.51,1.21-.86,1.33-.06.09.6,1.01.35.92-.25h0Z"/>
    <path class="cls-44" d="M289.91,458.9c4.11,6.23,7.38,13.02,10.36,19.85,3.17,7.24,5.99,14.65,8.41,22.18,2.75,8.55,4.34,17.24,5.05,26.19.57,7.21.77,14.44.98,21.66.35,12.09.57,24.18.78,36.26.25,14.06.46,28.12.67,42.17.18,11.65.34,23.3.56,34.95.02,1.07.04,2.14.06,3.21.01.53,4.11-.04,4.09-1.1-.22-11.06-.38-22.13-.55-33.19-.21-14-.42-28-.66-41.99-.21-12.56-.44-25.11-.77-37.67-.41-15.54-.3-31.55-4.6-46.6-2.09-7.32-4.71-14.51-7.58-21.57-2.95-7.25-6.19-14.44-10.11-21.22-.83-1.44-1.7-2.85-2.61-4.24-.61-.92-4.33.73-4.09,1.1h0Z"/>
    <path class="cls-44" d="M1348.67,456.31c-12.88-.46-25.54,5.69-33.85,15.39-6.59,7.68-9.59,17.96-12.14,27.57-3.55,13.41-5.75,27.2-6.86,41.02-.65,8.12-.72,16.23-.72,24.36v12.81c0,7.01,0,14.01,0,21.02,0,8.22,0,16.43,0,24.65,0,8.04,0,16.09,0,24.13,0,6.34,0,12.67,0,19.01,0,3.23,0,6.45,0,9.68,0,.14,0,.29,0,.43,0,1.73,4.09.88,4.09-.5,0-7.78,0-15.56,0-23.34,0-15.84,0-31.68,0-47.52,0-12.61,0-25.22,0-37.82,0-3.78-.06-7.57-.02-11.35.17-14.78,1.74-29.58,4.61-44.08,2.04-10.3,4.56-20.81,8.85-30.43,4.78-10.71,14.48-19.08,25.95-21.83,2.79-.67,5.65-.93,8.52-.83.87.03,2.23-.3,2.69-1.13s-.4-1.22-1.12-1.24h0Z"/>
    <path class="cls-44" d="M1262.11,458.57c-4.59,6.96-8.16,14.61-11.4,22.27-3.31,7.83-6.28,15.84-8.68,24-4.59,15.62-4.47,32.26-4.87,48.41-.32,13.06-.53,26.13-.73,39.2-.23,14.85-.43,29.69-.64,44.54-.16,11.84-.32,23.69-.53,35.53-.02,1.03-.04,2.06-.06,3.09,0,.48,4.07-.01,4.09-1.1.22-11.16.37-22.31.52-33.47.2-14.68.4-29.36.62-44.04.2-13.5.42-27,.72-40.5.11-4.89.23-9.78.4-14.67.35-10.16.72-20.39,2.69-30.38,1.72-8.68,4.82-17.15,8.04-25.37,3.16-8.07,6.67-16.06,10.98-23.59.91-1.59,1.87-3.16,2.88-4.7.37-.56-1.47-.31-1.6-.28-.71.13-1.97.38-2.41,1.05h0Z"/>
    <path class="cls-44" d="M214.23,458.5c11.92-.43,23.51,5.69,30.89,14.89,5.8,7.24,8.52,16.67,10.88,25.49,3.32,12.38,5.46,25.09,6.67,37.85.85,8.97,1.04,17.93,1.04,26.93,0,10.04,0,20.07,0,30.11,0,15.24,0,30.48,0,45.72,0,9.02,0,18.04,0,27.06,0,.14,0,.27,0,.41,0,1.73,4.09.88,4.09-.5,0-7.71,0-15.41,0-23.12,0-15.2,0-30.4,0-45.61v-33.36c0-6.81.02-13.61-.4-20.41-.82-13.53-2.73-27.04-5.83-40.24-1.22-5.19-2.63-10.35-4.34-15.4-1.32-3.89-2.8-7.79-4.83-11.38-5.83-10.28-16.43-17.83-28.01-20.11-2.82-.56-5.71-.8-8.59-.7-.89.03-2.21.26-2.69,1.13-.45.8.38,1.27,1.12,1.24h0Z"/>
    <g>
      <polygon class="cls-43" points="1649.66 1298.29 -54.63 1298.29 13.29 975.18 1581.75 975.18 1649.66 1298.29"/>
      <polygon class="cls-48" points="1626.43 1280.33 -30.71 1280.33 30.81 986.17 1564.91 986.17 1626.43 1280.33"/>
      <polygon class="cls-47" points="1610.17 1269.4 -15.4 1268.24 40.66 996.68 1554.11 996.68 1610.17 1269.4"/>
    </g>
    <path class="cls-8" d="M753.83,434.5s16.29-14.97,26.23-17.37c2.8-.67,24.87-15.59,24.87-15.59,0,0,5.86,4.09-1.84,11.61-7.7,7.51-11.03,10.41-11.03,10.41l-1.13,3.02,17.1,5.95s20.52,3.56,25.37,4.87c4.86,1.3,15.4,3.63,15.74,10.09,0,0,7.91,1.15,7.77,4.97.17,1.87-.58,3.71-2.02,4.91l-3.87.41s1.93,1.24.04,4.64c-1.89,3.39-36.16,1.23-36.16,1.23l-1.88,1.1s22.63,5.19,22.88,7.33c.25,2.15.77,3.91-2.97,4.47-3.74.55-66.69-5.06-73.73-7.17-1.85-.55-4.63-2.99-5.8-3.32-3.3-.92-9.98-1.22-9.98-1.22l-.56-31.23,10.98.88Z"/>
  </g>
  <g id="Layer_9" data-name="Layer 9">
    <path class="cls-8" d="M550.85,924.96c1.62,4.76-3.8,15.43-5,20.85-1.38,6.24,7.57,10.94,15.08,13.36,6.32,2.03,9.51,1.82,16.29,1.31,8.85-.67,18.25-2.41,27.1-3.07,7.58-.57,31.4-3.07,38.89-2.06,11.65,1.57,18.76-.17,23.84-1.98,1.41-.5,2.3-.46,2.93-1.46,1.64-2.61,1.34-5.44-2.54-7.5-4.89-2.6-10.54,1.33-15.13-1.77-.82-.55-3.63-.94-4.57-1.33-1.83-.76-1.94-.74-3.99-.67-10.22.38-9.57-3.69-23.05-6.46-3.96-.81-25.98-7.75-29.67-9.19l.64-21.76-43.97.89,3.15,20.84"/>
    <path class="cls-8" d="M533.63,916.05l-.25,7c10.6,6.56,28.08,15.91,35.58,18.78,9.67,3.69,11.44,4.66,22.91,9.39,4.49,1.85,6.41,2.58,11.48,2.96,5.08.38,9.91-2.18,13.68,2.11,2.5,2.84,1.44,7.06-1.42,9.67-2.86,2.6-7.06,3.89-11.2,4.72-4.13.83-8.41,1.3-12.31,2.7-1.48.53-2.92,1.2-4.51,1.4-3.61.45-7.6-1.51-10.76,0-.89.43-1.59,1.1-2.48,1.53-1.33.64-2.95.7-4.49.62-11.12-.57-13.2-1.3-23.34-4.29-10-2.94-10.32-2.55-20.73-4.74-4.94-1.04-20.8,1.28-31.78-5.59-6.2-3.88,1.4-25.08,2-30.48,1.37-12.27-.42-11.45-.99-17.27,0,0,29.29,3.01,38.59,1.49Z"/>
    <g>
      <path class="cls-25" d="M576.82,975.69c2.45-.65,3.22-3.58,2.1-5.66s-3.57-3.18-5.62-4.03c-1.25-.52-2.53-.96-3.8-1.44-.36-.14-.86-.02-1.1.29-.23.29-.14.68.22.81,2.48.95,5.18,1.71,7.32,3.34.9.68,1.68,1.56,1.89,2.7.19,1.02-.2,2.54-1.32,2.84-.33.09-.72.4-.62.78s.61.45.93.37h0Z"/>
      <path class="cls-25" d="M587.48,975.48c1.36-.03,2.68-.62,3.29-1.89.54-1.14.52-2.57.31-3.79-.24-1.39-.81-2.46-1.88-3.4-1.55-1.36-3.53-2.02-5.47-2.64-2.19-.7-4.27-1.94-6.64-1.87-.29,0-.88.11-1.03.39s.14.35.39.34c1.78-.05,3.52.87,5.14,1.49s3.46,1.04,5.02,2.01c1.14.71,2.21,1.66,2.64,2.96.34,1.03.48,2.17.37,3.24-.09.84-.42,2.38-1.5,2.41-.29,0-.88.11-1.03.39s.14.35.39.34h0Z"/>
      <path class="cls-25" d="M595.89,973.27c3.04-1.04,4.07-4.74,2.62-7.45s-4.67-4.25-7.41-5.28c-1.76-.67-3.66-1.29-5.51-1.62-.8-.14-1.56.99-.52,1.18,1.79.32,3.62.94,5.32,1.59s3.31,1.43,4.72,2.55c1.19.94,2.23,2.19,2.47,3.74.23,1.5-.41,3.64-1.99,4.17-.31.11-.73.37-.63.77.1.37.62.46.93.35h0Z"/>
      <path class="cls-25" d="M604.03,971.71c3.21-1.34,6.11-5.72,3.87-9.06-.91-1.35-2.42-2.27-3.84-2.99-1.64-.83-3.36-1.46-5.1-2.02-.86-.27-1.73-.51-2.59-.79-1.09-.35-2.2-.81-3.37-.75-.86.05-1.21,1.15-.15,1.09.84-.05,1.73.38,2.52.63.67.22,1.35.41,2.03.61,1.49.46,2.97.96,4.39,1.58s2.85,1.35,3.95,2.42c1.07,1.04,1.48,2.29,1.26,3.78-.31,2.06-1.73,3.81-3.65,4.61-.28.12-.59.47-.37.77s.76.22,1.05.1h0Z"/>
    </g>
    <path class="cls-25" d="M549.74,932.46c7.69,4.12,15.51,8.01,23.41,11.72,5.95,2.79,11.97,5.5,18.14,7.75,2.38.87,4.8,1.69,7.27,2.26,1.57.36,3.35.78,4.97.48,3.14-.57,6.55-1.34,9.67-.25s5.58,4.14,4.22,7.41c-.33.8,1.22.77,1.48.16,1.26-3.03-.06-5.59-2.59-7.35-2.66-1.86-5.76-2.02-8.92-1.69-1.97.2-3.7.83-5.42.66-2.2-.21-4.35-.86-6.45-1.54-6.08-1.95-11.97-4.54-17.77-7.19s-11.84-5.59-17.68-8.55c-3.06-1.55-6.12-3.12-9.15-4.74-.57-.31-1.94.48-1.2.87h0Z"/>
    <path class="cls-45" d="M536.85,730.66c-1.18,6.09-2.71,38.93-2.78,45.15-.2,16.81.95,41.46,2.16,49.98,2.04,14.42,6.42,52.68,7.29,57.74l2.63,38.89c11.84-.14,36.34-.39,48.17-.69.33-27.26,22.63-140.93,25.58-192.9,2.35-41.49-.59-59.63-.59-59.63l-89.47-17.19,9.29,67-2.27,11.66Z"/>
    <path class="cls-45" d="M478.63,722.12c-1.18,6.09-2.72,16.88-2.79,23.1-.2,16.81,2.43,75.27,3.64,83.79,2.04,14.42,6.42,52.68,7.29,57.74l2.63,38.89c11.84-.14,44.42-.39,56.25-.69.33-27.26,12-126.23,14.94-178.2,2.35-41.49.88-74.33.88-74.33l-99.34-30.36,18.77,68.4-2.27,11.66Z"/>
    <path class="cls-37" d="M549.12,922.45c.1-7.76.61-15.52,1.11-23.27.74-11.46,1.6-22.91,2.48-34.36,1.03-13.39,2.11-26.77,3.17-40.16,1.08-13.55,2.15-27.11,3.17-40.67.9-11.95,1.76-23.91,2.48-35.88.08-1.29.15-2.58.23-3.87.02-.27-1.37-.08-1.39.37-.66,11.64-1.48,23.28-2.34,34.91-.99,13.46-2.05,26.91-3.12,40.36-1.07,13.5-2.16,27.01-3.21,40.51-.92,11.79-1.82,23.57-2.61,35.37-.56,8.3-1.11,16.62-1.32,24.94-.02.7-.03,1.41-.04,2.11,0,.29,1.39.08,1.39-.37h0Z"/>
    <path class="cls-19" d="M366.1,660.18c8.19,2.88,17.36,4.36,27.73,5.05,17.93,1.19,36.1,2.42,53.96-.28,16.86-2.55,32.66-9.57,49.78-11.05,13.27-1.15,26.48,20.09,39.56,17.56,11.77-2.28,23.35-5.42,35.06-8.01,10.48-2.32,21.11-4.5,31.61-7.12-10.1-23.74-20.74-47.35-29.17-70.6l-45.49-71.77c-8.96,14.82-3.76-48.59-7.57-52.83-.14.2-.4.4-.88.61-14.52,6.4-29.76,11.3-45.08,15.05-31.69,7.76-63.53,10.63-94.48,12.14-12.26.6-12.94-68.47-25.11-68.16l-19.48,51.92s-19.73,48.47-16.14,115.49c.87,16.18,3.8,30.01,12.47,44.08,9.14,14.82,19.89,23.24,33.24,27.93Z"/>
    <path class="cls-19" d="M529.18,431.56l-152.19-37.82-6.88,29.4-36.18,63.28s-7.47,5.5,61.71,27.44c69.18,21.94,149.26,14.52,149.26,14.52,6.38-24.82-8.14-88.72-8.14-88.72,0,0,8.02-33.66,12.01-41.79,3.99-8.13,7.65-3.11,11.83-15.91,4.18-12.8,5.14-32.21,5.14-32.21l-19.85-5.63-16.72,87.43Z"/>
    <path class="cls-29" d="M559.49,231.89s32.54,17.34,29.78,49.21c-4.07,47.04-15.91,94.76-15.91,94.76l-34.65-8.08,20.78-135.9Z"/>
    <path class="cls-19" d="M524.06,458.35c-1.3,7.16,7.46,22.95,7.94,30.01-6.84.85,1.14-5.64-5.79-5.76-30.31-.51-59.84-9.64-87.41-21.53-23.59-10.17-46.04-22.53-68.33-35.1l-1.07-19.17,28.13-186.07,25.81-24.64,30.37,12.46,2.22,10.88c7,11.82,11.23,7.15,24.93,12.46,8.56,3.32-2.77-10.04,1.85-9.65,16.77,1.42,47.98,9.08,47.31,4.01-.57-4.28,23.63-.9,25.3.02,11.37,6.23,1.24,21.15,10.54,26.94,0,0,14.07,16.56,9.28,50.81"/>
    <path class="cls-19" d="M592.85,409.89c-.83.03-1.47-.96-2.29-1.56-5.53,10.75,6.08,18.22,3.4,29.87-2.06,8.95-24.31,21.96-24.2,31.44,4.7,3.2,9.71,4.7,13.09,5.92,22.08,8,164.79-5.1,164.79-5.1l-.36-23.34-1.3-15.55c-27.34-10.41-129.2-22.41-153.13-21.67Z"/>
    <path class="cls-19" d="M622.3,451.37c8.85-10.18-7.96-17.71,3.4-25.23-12.75-33.25-26.44-151.42-41.67-171.98-16.9-22.82-50.18-18.35-54.11-18.32,0,0-19.97,72.19-5.25,127.26,10.19,38.1,41.46,110.59,65.22,115.06,38.68,3.59,27.37-21,32.4-26.79Z"/>
    <path class="cls-19" d="M321.11,378.87c-7.71-1.3-15.48-2.14-23.23-3.1.9-5.08,1.94-9.84,3.19-14.45,5.33-19.66,52.86-119.21,71.47-146.25,19.24-24.66,54.41-22.36,54.41-22.36l-12.52,104.52-50.02,86.13c-13.49-.56-29.97-2.23-43.29-4.48Z"/>
    <path class="cls-19" d="M339.15,415.19c3.3-12.21,7.15-28.2,9.07-40.69l141.29,44-10.03,51.59c-78.24-18.58-118.09-24.14-145.92-30.72,1.77-8.08,3.42-16.2,5.59-24.19Z"/>
    <path class="cls-16" d="M350.64,444.3c11.51,2.72,23.15,4.8,34.8,6.78,17.37,2.95,34.76,5.8,52.11,8.89,14.71,2.61,29.39,5.34,44.07,8.16.46.09,1.83-.15,1.93-.75.41-2.31.83-4.62,1.24-6.93.13-.75-2.24-.34-2.37.36-.41,2.31-.83,4.62-1.24,6.93l1.93-.75c-23.34-4.48-46.73-8.71-70.16-12.68-13.98-2.37-28-4.57-41.94-7.18-6.18-1.16-12.34-2.42-18.46-3.86-.54-.13-1.2-.03-1.68.26-.2.13-.82.65-.25.78h0Z"/>
    <path class="cls-16" d="M365.15,380.74c4.18,1.31,8.36,2.61,12.54,3.92,9.99,3.13,19.99,6.25,29.98,9.38,12.12,3.79,24.25,7.58,36.37,11.37,10.44,3.27,20.88,6.53,31.32,9.8,3.44,1.08,6.88,2.15,10.32,3.23l3.22,1.01c.47.15,1.19.54,1.69.53.06,0,.15.05.21.07l-.24-.41c-.45,2.29-.9,4.59-1.34,6.88-.17.87,2.23.49,2.38-.31.45-2.29.9-4.59,1.34-6.88.03-.17-.06-.36-.24-.41-4.18-1.31-8.36-2.61-12.54-3.92-9.99-3.13-19.99-6.25-29.98-9.38-12.12-3.79-24.25-7.58-36.37-11.37-10.44-3.27-20.88-6.53-31.32-9.8-5.07-1.59-10.12-3.29-15.22-4.76-.07-.02-.14-.04-.21-.07-.54-.17-1.21-.09-1.69.23-.24.16-.79.72-.22.9h0Z"/>
    <path class="cls-16" d="M576.15,299.17c-3.49,4.13-5.79,10.1-6.33,15.42-.33,3.3.18,6.74.42,10.03.88,11.61,1.33,23.34-.74,34.86-1.18,6.57-3.17,13.04-6.41,18.9-1.65,2.97-3.6,5.8-5.87,8.33-1.17,1.3-2.42,2.54-3.73,3.69-.64.56-1.29,1.1-1.96,1.62-.54.42-1.3.79-1.71,1.34-.6.8-.97,1.96-1.39,2.86-1.09,2.32-2.12,4.68-3.09,7.05-2.93,7.18-5.38,14.59-7,22.19-.89,4.2-1.53,8.47-1.72,12.76-.21,4.72.21,9.46.47,14.17.43,7.73.9,15.46,1.42,23.18.03.44.06.89.09,1.33.06.81,2.42.28,2.38-.64,0,0,0,0,0-.01-.05-.8-2.44-.3-2.38.64,0,0,0,0,0,.01l2.38-.64c-.43-5.66-.74-11.33-1.08-16.99-.56-9.49-1.58-19.04-.19-28.49,1.87-12.71,6.31-25.33,12.06-36.81.07-.14.13-.29.21-.42.02-.03.03-.07.05-.1-.17.22.1-.03.3-.17,1.42-.95,2.75-2.13,4-3.3,2.5-2.32,4.74-4.93,6.66-7.75,3.72-5.46,6.24-11.69,7.84-18.08,2.93-11.73,2.89-23.98,2.09-35.97-.27-3.99-.73-7.98-.78-11.98-.08-5.51,2.22-11.25,5.32-15.73.29-.42.58-.83.91-1.22.38-.45-.32-.71-.65-.73-.58-.04-1.2.22-1.57.66h0Z"/>
    <path class="cls-16" d="M420.36,228.36c5.24,2.9,5.75,9.39,5.5,14.75-.14,2.98-.51,5.95-.82,8.91-.23,2.2-.29,4.41-.56,6.6-1.07,8.67-4.51,17.11-7.88,25.1-4.66,11.04-10.05,21.77-15.62,32.37-5.86,11.15-12,22.15-18.23,33.09-5.34,9.39-10.78,18.74-16.13,28.13-.54.95-1.09,1.91-1.63,2.86s1.84.66,2.21,0c5.2-9.19,10.51-18.31,15.75-27.47,6.32-11.07,12.56-22.18,18.55-33.43,5.74-10.79,11.31-21.71,16.2-32.92,3.68-8.42,7.37-17.23,8.9-26.35.3-1.8.4-3.6.54-5.41.23-3.02.64-6.02.9-9.03.45-5.23.84-11.66-2.79-15.95-.84-.99-1.86-1.75-2.99-2.37-.64-.35-2.84.6-1.91,1.11h0Z"/>
    <path class="cls-19" d="M311.25,335.17s-.57,1.28-1.51,3.51c-4.44,10.53-19.66,34.43-19.05,61.81.52,23.54,26.17,42.1,58.57,39.05,32.4-3.05,3.13-67.71,3.13-67.71l-41.14-36.65Z"/>
    <path class="cls-8" d="M489.51,428.32c2.66-.32,2.81-.04,5.38-.74,0,0,9.77-11.69,20.84-13.25,11.07-1.56,22.9,4.66,29.01,2.86,6.91-2.03,21.06-.77,23.5,2.02,3.95,4.52-1.36,10.54-12.33,10.55-7.15.06-14.27.74-21.3,2.01,0,0,55.95,40.35,58.78,44.44,2.83,4.09,5.74,8.3,2.82,11.24-2.92,2.94-12.97-5.66-12.97-5.66l-4.59.51c-1.47.16-2.97,0-4.36-.51l-14.05-5.02c-8.45,1.23-20.4,1.25-28.86.11-11.63-2.01-33-15.74-33-15.74l-15.6-1.32c.04-1.58,6.29-27.61,6.74-31.5Z"/>
    <path class="cls-16" d="M367.06,379.63c-5.55-1.74-11.58-1.58-17.25-.5-6.11,1.17-12.12,3.38-17.37,6.75-2.71,1.73-5.21,3.77-7.3,6.23-.37.44.32.6.62.62.53.03,1.23-.21,1.58-.63,4.45-5.24,10.97-8.64,17.47-10.6s13.77-2.83,20.33-.77c.53.17,1.22.06,1.68-.24.24-.16.8-.67.23-.85h0Z"/>
    <path class="cls-16" d="M619.5,412.15c-4.43.96-8.07,3.33-10.73,7-2.72,3.76-4.35,8.19-5.97,12.5-.18.48,2.11.24,2.36-.4,2.57-6.82,5.79-16.4,13.92-18.16.28-.06,1.38-.27,1.39-.67s-.69-.33-.97-.27h0Z"/>
    <path class="cls-25" d="M583.67,480.87c-3.83-2.87-8.13-5.17-12.24-7.61s-8.42-4.74-12.14-7.73c-.42-.34-2.16.43-1.85.68,3.72,2.99,8.05,5.3,12.14,7.73,4.11,2.44,8.41,4.74,12.24,7.61.44.33,2.15-.45,1.85-.68h0Z"/>
    <path class="cls-25" d="M567.1,478.1c-5.97-3.02-11.93-6.05-17.9-9.07-.84-.42-1.67-.85-2.51-1.27-.35-.18-.92,0-1.26.13-.08.03-.88.38-.59.53,5.97,3.02,11.93,6.05,17.9,9.07.84.42,1.67.85,2.51,1.27.35.18.92,0,1.26-.13.08-.03.88-.38.59-.53h0Z"/>
    <path class="cls-5" d="M533.82,205.76s-8.4-4.04-13.16-6.07c-4.76-2.03-13.24-2.98-33.47-24.95,0,0,3.58,23.92,31.95,33.05,0,0,8.44,3.07,13.52,2.65l1.15-4.69Z"/>
    <path class="cls-41" d="M604.38,85.03c1.38,14.1-1.76,29.09-6.33,47.48-6.68,28.46-18.99,55.3-36.19,78.94l-30.37,11.2-4.3-14.02c24.05-17.72,41.93-24.16,50.31-52.84,1.93-6.6,15.44-38.32,15.51-39.25,1.51-18.38,2.13-13.32-6.62-25.13-7.15-9.59-35.45-12.07-44.67-12.06-8.12-.02-17.88-4.15-32.33,10.53-9.58,9.84-11.43,3.67-19.69,23.03l10.79-76.74,50.28,1.49,30.7,14.83c12.81,6.09,21.5,18.43,22.91,32.55Z"/>
    <path class="cls-8" d="M586.94,137.87c1.25-4.12,4.99-14.73,7.52-24.34h0c2.41-9.3-2.24-18.91-8.25-26.4l-1.17-1.25c-.06-.07-1.94-1.42-2.02-1.47-14.68-9.09-26.28-13.03-43.72-10.03-8.51,1.46-18.8,2.24-25.8,7.29-7.28,5.24-16.51,19.46-24.75,23.42,1.07-7.67,12.64-19.93,14.29-26.7-.27,1.11-.42,1.8-.42,1.8-10.1,5.1-16.73,18.72-17.61,23.75-.88,5.03-4.75,15.43-4.75,15.43-.94-2.15-3.03-6.76-3.36-9.04-.39-2.02-.96-3.92-1.36-5.94-1.48-4.75-5.58-5.04-9.19-3.12l-.7.74c-8.81,5.7-2.64,26.89-.81,33.06-.95,2.48,1.64,17.38,12.44,10.37l.2,8.44,9.13,20.98c8.15,13.86,22.48,26.14,39.48,29.76,11.54,2.46,12.52,2.15,17.63-1.02,7.76-4.81,15.9-9.66,22.27-15.94,6.11-6.02,9.09-9.95,12.93-17.69,3.98-8,4.46-10.24,5.47-18.89.45-3.87,1.47-9.65,2.55-13.22Z"/>
    <path class="cls-17" d="M471.73,142.21c-3.12-.37-6.45,1.32-7.26,4.51-.38,1.5-.09,3.08.72,4.38.48.76,1.21,1.28,1.99,1.71,1.75.95,3.76.96,5.6.25.17-.06.46-.22.33-.43-.12-.19-.64-.04-.78.01-1.93.74-4.36.05-5.71-1.53-1.7-1.98-1.38-5.18.39-6.98,1.06-1.07,2.49-1.51,3.97-1.33.26.03.65-.03.84-.23.15-.16.17-.34-.1-.37h0Z"/>
    <path class="cls-32" d="M506.18,78.1l-5.94,8.46c-6.88,9.8-12.32,20.58-16.14,31.99l-1.09,3.25c-.31.94-1.59.96-1.92.04l-4.02-11.45s6.9-36.31,29.11-32.28Z"/>
    <path class="cls-28" d="M472.52,117.24c-2.44.49-3.81,2.91-4.62,5.06s-1.1,4.06-.74,6.34c.29,1.8,1.44,5.84,3.98,5.48,2.13-.31,2.49-2.76,2.31-4.47-.12-1.17-.47-2.34-.45-3.52.02-1.47.98-1.38,2.21-1.11.33.07.88-.2.8-.59-.74-4-1.67-8.09-3.19-11.88-.75-1.87-1.76-4.01-3.96-4.44-2.81-.56-4.51,2.37-5.19,4.63-.98,3.25-.83,7.04.34,10.24.2.54,1.38.2,1.19-.32-.84-2.29-1.12-4.91-.87-7.33.22-2.1,1.67-8.02,4.92-5.99,1.62,1.01,2.3,3.22,2.89,4.93.74,2.12,1.31,4.3,1.82,6.49.31,1.32.6,2.65.85,3.99l.8-.59c-1.43-.31-3.41-.33-3.77,1.47-.34,1.67.46,3.45.46,5.13,0,.77-.14,2.07-.99,2.42-1,.4-1.93-1.54-2.23-2.24-.94-2.16-1.18-4.7-.55-6.98.6-2.14,1.72-5.4,4.2-5.89.75-.15.52-.96-.22-.81h0Z"/>
    <path class="cls-32" d="M563.74,133.87s6.91-4.76,11.26-4.61c8.87.31,12.08,3.81,15.14,6.64,0,0-7.47-3.95-15.08-4.14-4.27-.11-11.32,2.11-11.32,2.11Z"/>
    <path class="cls-32" d="M530.15,118.05c-1.38-1.11-3.91-1.39-5.1-.7-.28.16-1.04.63-1.54,1.59-.64,1.22-.42,2.79.21,3.85.85,1.41,2.62,1.98,4.14,1.61,2.06-.5,3.13-2.65,3-4.39-.03-.32.4-.84-.72-1.74"/>
    <path class="cls-32" d="M582.26,132c-1.38-1.11-3.91-1.39-5.1-.7-.28.16-1.04.63-1.54,1.59-.64,1.22-.42,2.79.21,3.85.85,1.41,2.62,1.98,4.14,1.61,2.06-.5,3.13-2.65,3-4.39-.03-.32.4-.84-.72-1.74"/>
    <path class="cls-32" d="M539.57,126.69s-5.01-9.74-12.3-11.52c-5.54-1.36-14.93-1.98-17.76-1.87,0,0,13.23,3.29,17.12,4.31,3.72.97,12.94,9.08,12.94,9.08Z"/>
    <path class="cls-32" d="M549.73,109.97c.06-.15-.37-1.13-.31-1.28-10.15-5.35-20.53-8.17-23.66-8.66-2.38-.37-4.81-.35-7.19-.04,0,0-7.88,2.61-8.9,3.42-1.02.81,3.68.57,3.68.57.97.06,1.67,0,2.64.16,5.3.93,9.52.9,14.49,3.02,4.26,1.79,13.47,5.83,17.29,8.44.65-1.63,1.17-4.07,1.97-5.63Z"/>
    <path class="cls-32" d="M592.69,119.66c-.31-.12-4.77-2.12-5.1-2.23-2.97-.97-7.17-1.52-18.25-1.51-.31,1.92-1.55,4.17-1.87,6.09,4.62-.56,9.15-.62,13.8-.26,3.1.24,6.7,1.58,10.28,2.27l1.14-4.35Z"/>
    <path class="cls-27" d="M541.45,170.19c-7.34-1.93-19.62-6.45-19.62-6.45,0,0-1.88,18.69,15.14,23.17,17.02,4.48,21.1-12.77,21.1-12.77,0,0-9.28-2.01-16.62-3.95Z"/>
    <path class="cls-7" d="M541.52,170.21c-3.49-.92-16.55-4.44-16.55-4.44,0,0,.92,11.11,13.54,14.43,13.68,3.6,17.13-6.22,17.13-6.22l-14.12-3.77Z"/>
    <path class="cls-46" d="M541.53,170.78c-3.49-.92-13.95-4.32-13.95-4.32,0,0,2.8,4.89,13.27,7.65,10.47,2.76,14.79-.14,14.79-.14l-14.1-3.19Z"/>
    <path class="cls-27" d="M558.91,173.83c-.34-.19-1.23-.14-2.76-.83-2.76-1.25-3.79-2.66-5.78-3.36-3.4-1.19-5.98-.34-7.49-.74-1.51-.4-3.33-2.41-6.88-3.05-2.08-.37-5.39-.5-8.26-.98-1.72-.29-5.65-2.04-6.04-2.04-.53,0-.36,4.22,18.6,9.22,18.97,5,19.06,2.05,18.6,1.79Z"/>
    <path class="cls-32" d="M558.84,152.18c.12,1.35.25,2.71.34,4.06.06.85.11,1.7.13,2.55.01.51.1,1.16-.06,1.66-.27.84-1.31,1.38-2.1,1.6-.83.23-1.7.26-2.55.24-1.92-.06-3.81-.33-5.67-.76-2.24-.52-4.84-1.18-6.67-2.67-.29-.24-.99.18-.62.48,1.72,1.41,4.1,2.07,6.22,2.61s4.21.87,6.37.95c1.82.07,3.91-.08,5.22-1.52.49-.53.65-.98.67-1.67.03-.85-.02-1.71-.07-2.56-.1-1.73-.26-3.46-.42-5.18-.04-.39-.84-.19-.81.22h0Z"/>
    <path class="cls-32" d="M537.32,151.43c-.9-.09-1.81.11-2.6.54-.83.46-1.37,1.2-1.63,2.11-.29.99-.27,1.92.44,2.73s1.68,1.16,2.63,1.52c1.18.44,2.39.8,3.66.85.2,0,.47-.05.63-.17.13-.09.14-.17-.05-.18-1.25-.05-2.44-.44-3.6-.87-.98-.37-2.03-.81-2.63-1.71s-.4-2.08.06-3.02,1.32-1.58,2.37-1.47c.21.02.43-.03.62-.12.06-.03.32-.19.11-.21h0Z"/>
    <path class="cls-41" d="M572.27,240s2.88-13.11-13.22-36.49l2.62-7.16s-9.89,18.25-37.06,6.65c-22.48-9.62-29.26-29.15-31.83-48.49-4.43-33.36,16.83-82.3,36.96-101.99,18.87-18.46,64.62,39.13,69.79,22.74,0,0-8.31-42.08-56.84-51.38-36.34-6.96-65.28,13.08-81.52,45.08-16.77,33.04-24.14,68.67-12.84,104.66,0,0-23.3,5.11-29.46,16.93l-.49.34s21.94,39.91,70.71,44.43c44.92,2.57,52.72-7.52,82.37,5.47"/>
    <path class="cls-20" d="M495.43,201.52c-1.64-2.26-3.5-4.33-5.21-6.52s-3.31-4.41-4.84-6.7c-2.9-4.33-5.54-8.85-7.85-13.52-4.35-8.8-7.52-18.17-9.48-27.78-3.97-19.5-2.88-39.92,2.95-58.93,1.74-5.66,3.9-11.18,6.41-16.54,1.3-2.79,2.71-5.53,4.21-8.22,1.51-2.7,3.22-5.28,4.64-8.04.23-.45-.67-.31-.84-.13-.4.42-.73.85-1.03,1.35-.25.41.71.35.9.05.27-.44.56-.83.91-1.2l-.84-.13c-1.24,2.42-2.73,4.67-4.07,7.03-1.41,2.48-2.74,5-3.98,7.56-2.29,4.72-4.31,9.58-6.02,14.54-3.28,9.53-5.35,19.47-6.17,29.51-1.6,19.78,1.72,39.93,9.95,58.01,2.35,5.16,5.11,10.12,8.16,14.89,1.65,2.58,3.41,5.1,5.26,7.54,1.96,2.58,4.14,4.99,6.05,7.62.21.29,1.13-.04.88-.39h0Z"/>
    <path class="cls-20" d="M504.63,94.22c.8-4.03,2.11-8.01,3.59-11.83,2.9-7.46,6.93-14.94,13.08-20.22,3.84-3.29,8.23-4.93,13.07-6.21,6.05-1.6,12.32-2.5,18.58-2.27,5.89.22,11.75,1.51,17.1,4.02,5.74,2.7,10.67,6.76,14.78,11.56,3.71,4.34,6.74,9.36,8.32,14.88.58,2.03,1.11,4.33,1.01,6.44-.02.36.94.16.95-.13.09-1.82-.28-3.71-.71-5.46-1.13-4.61-3.33-8.93-6.08-12.78-7.39-10.34-18.36-17.26-31.03-18.73-6-.69-12.09-.28-18,.88-5.15,1.01-10.62,2.26-15.14,5.04-7.19,4.42-11.98,11.94-15.36,19.48-2.2,4.91-4.06,10.15-5.1,15.45-.06.33.89.17.95-.13h0Z"/>
    <path class="cls-20" d="M447.85,173.74c1.1,2.87,2.63,5.63,4.2,8.26,3.75,6.28,8.38,12.05,13.83,16.93,7.27,6.51,15.78,10.98,25.18,13.54,11.3,3.08,22.88,4.31,34.51,5.35,10.51.94,21.32,1.97,30.61,7.4.3.18,1.17-.25.75-.5-7.81-4.56-16.73-6.07-25.6-6.99-11.18-1.15-22.36-1.85-33.36-4.26-5.77-1.27-11.53-2.8-16.88-5.34-4.2-1.99-8.15-4.5-11.77-7.41-5.92-4.77-10.97-10.6-15.07-16.99-2.07-3.23-4.06-6.65-5.44-10.24-.14-.37-1.09-.1-.95.26h0Z"/>
    <path class="cls-19" d="M444.46,745.77c10.65,2.96,44.02,7.68,54.94,9.91,17.8,3.62,36.75,3.15,54.8,2.41,29.06-1.19,59.05-5.32,86.52-15.64,2.32-36.21,6.98-103.21,8.89-132.51,3.64-55.81-15.83-72.11-40.17-82.59-45.52-19.59-151.94-30.13-182.2-18.23-7.49,2.95-47.21,6.62-21.14,15.43-19.3,2.99,26.46,5.37,26.46,5.37,0,0-85.79,29.72-49.92,83.97,16.6,25.1-.59,31.62,65.88,28.41.02,17.59-6.91,82.29-4.05,103.46Z"/>
  </g>
  <g id="Layer_8" data-name="Layer 8">
    <path class="cls-49" d="M837.93,460.33c-5.92-.08-11.81-.64-17.64-1.67-5.88-.55-11.71-1.58-17.42-3.07"/>
    <path class="cls-49" d="M837.5,452.02c-.11.38-7.65-1.28-17.04-2.71-9.4-1.43-17.1-2.18-17.07-2.59"/>
    <path class="cls-49" d="M761.14,457.34s24.29-8.71,19.23-24.69"/>
    <path class="cls-4" d="M723.77,531.5c1.46-3.96,3.13-7.94,3.82-12.14.64-3.89.26-7.87,1.24-11.7l-39.44-46.72-18.26,5.03s21.51,68.82,44.58,79.65c3.38-4.23,6.15-8.96,8.06-14.12Z"/>
    <path class="cls-4" d="M776.15,461.75c-17.83,11.47-47.26,46.05-49.48,48.67.75,3.55,2.42,6.89,3.04,10.49.74,4.3.77,8.74.81,13.09.05,5.22,3.05,15.16,1.67,20.14,23.07-2.17,52.47-41.57,61.44-55.9-4.5-12.57-9.69-26.03-17.49-36.49Z"/>
    <path class="cls-4" d="M680.97,482.67l-8.41-12.43s-14.74-2.99-19.56-8.72c-3.33-4.27-9.01-13.04-11.06-18.06l-10.75-10.59s-7.88-2.75-7.22-5.29c.66-2.54,3.87-2.29,6.99-2.05,3.12.24,42.9,18,42.9,18-1.56-4.26-3.48-8.38-5.74-12.31-3.51-6.02-1.14-10.61,2.62-10.78,2.22-.1,6.85,7.1,8.13,12.51.93,3.93,7.78,8.78,10.48,15.34,2.7,6.56-.49,15.65-.49,15.65.74,2.73,3.14,9.52,3.14,9.52-.31.47-11.02,9.2-11.02,9.2Z"/>
    <path class="cls-25" d="M639.01,437.94c-.06-.44.8-.98,1.11-1.1.65-.24,1.33-.2,1.99-.08.92.17,1.8.51,2.63.92,1.79.89,3.43,2.16,4.8,3.61,1.52,1.61,2.83,3.42,3.95,5.32s2.15,3.83,2.71,5.92c.08.29,1.51-.09,1.43-.38-.72-2.69-2.21-5.29-3.76-7.58-1.49-2.21-3.24-4.28-5.39-5.88-1.74-1.3-3.81-2.4-6.01-2.57-1.08-.08-2.17.11-3.16.57-.51.23-1.82.92-1.73,1.64.03.25,1.48-.04,1.43-.38h0Z"/>
    <path class="cls-25" d="M664.8,447.5c.27-.31.82-.36.94-.25-.04-.04-.11-.06-.16-.09-.12-.08-.23-.15-.35-.23-.37-.26-.74-.53-1.11-.79-1.11-.78-2.26-1.5-3.47-2.12-1.3-.67-2.65-1.19-4.04-1.64-.47-.15-.95-.29-1.43-.45-.16-.05-.31-.1-.47-.16-.02,0-.15-.07-.17-.07.07-.01.2.21.18.31.17-.71-1.29-.55-1.45.1s1.64.97,2,1.08c1.64.51,3.26,1.11,4.78,1.93,1.3.7,2.52,1.53,3.73,2.39.61.43,1.53,1.22,2.22.42.22-.26.11-.59-.19-.72-.33-.14-.79,0-1.01.27h0Z"/>
    <path class="cls-25" d="M663.66,453.05c.07.04.17.23.15.23.01,0-.03.03,0-.01.06-.09.11-.21.17-.31.17-.28.39-.54.61-.78.74-.82,1.64-1.49,2.62-1.99,1.25-.64,2.63-1,4.04-1.02.47,0,.96.02,1.42.11.16.03.31.08.47.12.09.02.02.02.04.01.02,0,.03.02.05.03-.08-.05-.12-.14-.11-.24-.12.67,1.34.47,1.45-.13.14-.79-1.97-.86-2.39-.88-1.86-.07-3.74.33-5.42,1.14-1.33.65-2.57,1.55-3.53,2.67-.27.31-1.3,1.44-.68,1.84.49.31,1.77-.37,1.11-.79h0Z"/>
    <path class="cls-4" d="M709.25,541.35s14.82,19.24,29.53,10.53c14.71-8.71-10.12-43.12-10.12-43.12l-19.42,32.59Z"/>
    <path class="cls-25" d="M728.9,508.26c1.72,4.03,2.58,8.36,2.54,12.74,0,.4,1.48.14,1.49-.4.04-4.38-.83-8.71-2.54-12.74-.2-.48-1.66-.01-1.49.4h0Z"/>
    <path class="cls-25" d="M688.61,460.44c-.64,1.22-1.66,2.2-2.93,2.76-.58.25-1.19.4-1.82.43-.84.05-1.68-.16-2.51-.26-.3-.04-.75.11-.89.39-.15.3.13.46.39.49.98.12,1.93.32,2.92.25.85-.06,1.7-.28,2.49-.62,1.54-.67,2.86-1.86,3.64-3.35.33-.63-1.04-.56-1.28-.1h0Z"/>
    <path class="cls-38" d="M788.91,405.45c-5.6,4.86-11.09,10.44-13.08,17.59-1.21,4.36-1.02,8.97-1.63,13.46-.61,4.48-2.27,9.19-6.04,11.69.87.2,1.78.07,2.66-.07,5.43-.82,10.86-1.64,16.29-2.46,1.94-.29,3.92-.6,5.69-1.44,3.58-1.71,5.8-5.32,7.76-8.77.77-1.36,1.55-2.76,1.75-4.31.2-1.55-.2-3.11-.6-4.62-1.64-6.23-3.27-12.46-4.91-18.69"/>
    <g>
      <polygon class="cls-23" points="1383.11 746.88 1241.28 746.88 1241.28 720.46 1383.11 720.46 1383.11 478.57 982.23 478.57 982.23 720.46 1125.37 720.46 1125.37 746.88 982.23 746.88 982.23 764.67 1383.11 764.67 1383.11 746.88"/>
      <polygon class="cls-11" points="905.08 790.84 905.08 942.21 905.7 942.21 905.7 1044.94 928 1044.94 949.26 942.21 1195.88 942.21 1247.36 942.21 1417.96 942.21 1439.22 1044.94 1461.52 1044.94 1461.52 940.28 1461.29 940.28 1461.29 790.84 905.08 790.84"/>
      <polygon class="cls-11" points="1482.93 782.08 1482.93 764.67 1383.11 764.67 982.23 764.67 884.68 764.67 884.68 782.08 905.08 782.08 1461.29 782.08 1482.93 782.08"/>
      <rect class="cls-3" x="905.08" y="782.08" width="556.22" height="8.76"/>
    </g>
    <path class="cls-4" d="M745.16,812.46s-34.65,12.63-44.61,13.19c-9.96.56-12.82,3.03-12.82,3.03,0,0,24.65-25.41,27.3-29.88,1.49-2.51-10.83-79.03-17.5-118.6-4.63-27.49-3.12-49.57-3.12-49.57l46.06,2.1.42,42.16,2.36,7.61c1.24,3.98,4.69,11.57,5.2,15.71,1.38,11.19,3.51,26.08,3.34,31.85-.28,9.76-3.02,23.1-3.22,26.54l-9.09,44.97,5.68,10.89Z"/>
    <path class="cls-4" d="M772.35,809.15s-42.94,23.52-52.92,23.78c-9.98.26-6.68-5.01-6.68-5.01,0,0,29.79-22.27,32.23-26.99,1.34-2.59-11.68-83.73-17.1-123.49-3.77-27.62-4.53-49.65-4.53-49.65l45.97,3.49,5.67,40.32,2.12,7.68c1.11,4.01,2.7,11.15,3.08,15.3,1.02,11.23,2.26,30.13,1.91,35.88-.59,9.74-6.37,33.8-6.68,37.23l-4.17,30.47,1.09,10.98Z"/>
    <path class="cls-25" d="M743.78,784.01c-1.32-8.66-2.64-17.31-3.94-25.97-2.22-14.68-4.43-29.36-6.54-44.05-.68-4.7-1.43-9.4-1.92-14.13-.04-.39-1.87-.04-1.82.49,1.13,10.9,3.02,21.75,4.62,32.59,2.09,14.07,4.21,28.14,6.35,42.2.47,3.12.95,6.24,1.43,9.36.06.41,1.89.02,1.82-.49h0Z"/>
    <path class="cls-4" d="M767.01,791.4c.94,3.33,4.99,12.55,8.69,19.27,1.63,2.96,6.15,10.16,2.9,13.03-5.75,5.08-15.02,4.92-18.08,6.06-6.43,2.4-11.97,3.29-17.96,6.06-6.07,2.81-7.29,3.45-14.56,5.02-1,.22-2.1.37-3.13.16-.69-.14-1.31-.44-2-.58-2.44-.49-4.66,1.06-7.16,1.21-1.11.07-2.22-.14-3.32-.28-2.92-.34-5.87-.13-8.81-.13-2.94,0-6.03-.25-8.52-1.38-2.49-1.14-4.16-3.38-3.14-5.25,1.54-2.83,5.33-1.94,8.63-2.72,3.29-.78,4.4-1.4,6.97-2.95,6.56-3.94,7.52-4.68,13.12-7.83,4.34-2.45,20.68-20.76,26.25-25.63l-2.93-29.78"/>
    <path class="cls-4" d="M744.15,592.89l4.26,5.97,5,7.61s-7.73,10.29-10.74,12.49c-3.02,2.2-9.44,8.23-9.44,8.23,1.05.47,1.91,1.3,2.41,2.34.5,1.23.47,2.62-.07,3.83l-6.77-1.7c1.03,2.71-2.12,2.85-2.12,2.85l-5.52-1.89c1.43,3.3-2.66,3.57-2.66,3.57l-6.03-4.21c.13,1.47-.03,2.95-.47,4.36-.7,1.69-3.02-.04-3.02-.04l-2.92-12.48,9.05-15.1,25.14-11.79,3.9-4.04Z"/>
    <path class="cls-10" d="M849.78,494.69c-.82,1.1-1.38,2.45-1.87,3.72-1.38,3.59-2.03,7.46-2.26,11.28-.38,6.15.32,12.37,1.56,18.39.93,4.52,2.23,8.98,4.05,13.22.75,1.74,1.55,3.53,2.62,5.12.15.22.71.06.89,0,1.74-.49,3.48-.99,5.23-1.48.94-.27.85-.73-.12-.46-1.74.49-3.48.99-5.23,1.48h.89c-3.15-4.69-4.88-10.63-6.16-16.05-2.33-9.89-3.53-21.1-.16-30.9.54-1.58,1.19-3.28,2.2-4.63.07-.1-1.34-.08-1.63.31h0Z"/>
    <path class="cls-4" d="M802.68,412.18c5.53-.66,26.09-1.45,31.45-3.01,2.45-.71,20.94-7.38,23.21-8.61-10.44,17.12-11.44,29.79-3.19,31.92l-7.81,21.52c-59.48,51.61-47.82,19.57-59.24-18.2l13.23-7.89,2.35-15.72Z"/>
    <path class="cls-41" d="M800.17,437.29c-5.74-5.1-16.52.87-20.59,2.24-15.91,5.36-34.02,28.54-38.71,43.88-1.38,4.52-2.92,6.59-1.57,11.12,4.42,14.82,25.2,28.86,25.2,28.86,0,0,.24,31.43-.18,46.28-.29.8-.97,14.15-1.25,15.69,17.11,2.6,21.43,3.71,38.59,3.44,14-.22,22.48,8.36,36.21,5.29,10.07-2.26,30.79-2.06,41-3.37-1.17-1.74,1.62-2.11,1.13-5.39-2.31-15.4-7.84-39.27-1.01-53.02,3.17-6.38,3.33-13.67,5.48-15.11,0,0,29.57-39.87,3.87-59.92-7.47-5.83-26.29-19.7-37.25-23.11,0,0-16.03,20.43-46.13,20.48-19.84.03-4.79-17.37-4.79-17.37Z"/>
    <path class="cls-24" d="M763.59,487.04c-.43,5.62-.3,11.3-.28,16.92.02,6.18.1,12.37.21,18.55.02,1.31.05,2.61.07,3.92.02.95,1.77.73,1.75-.11-.22-10.41-.37-20.82-.26-31.23.03-2.72.05-5.45.26-8.17.07-.94-1.69-.73-1.75.11h0Z"/>
    <path class="cls-41" d="M772.47,574.37s6.63,12.23,40.15,12.9c33.52.67,64.75-18.31,64.75-18.31,0,0,17.64,31.98,17,52.66-.64,20.68-7.61,51.35-58.77,50.04-51.15-1.31-85.29,41.1-85.29,41.1,0,0-55.34-65.21-54.38-84.52,1.71-34.1,76.54-53.87,76.54-53.87Z"/>
    <path class="cls-41" d="M872.34,650.86s-48.37,21.51-56.19,22.7c-7.81,1.19-5.38,18.73-5.75,22.07-.37,3.34,5,34.67,5,34.67,0,0-46.63,10.36-60.31,3.66-13.68-6.71-18.07-6.04-25-5.24-6.93.8-6.73,2.74-20.14,3.32-13.41.58-26.27-11.25-26.27-11.25,0,0,8.05-80.46,12.13-92.88,4.08-12.42,7.27-13.64,25.34-18.84,8.39-2.41,20.08-6.94,30.2-11.1,11.69-4.8,21.29-9.11,21.29-9.11l102.07,9.21-2.37,52.79Z"/>
    <path class="cls-24" d="M874.23,554.88c-12.98,8.39-28.61,9.08-43.56,9.91s-29.03,1.62-43.27-1.12c-7.87-1.52-15.51-4.23-22.27-8.59-.46-.3-1.51-.11-1.53.57-.11,3.78-.23,7.57-.34,11.35-.04,1.24-.3,2.69-.12,3.92.04.27.15.46.29.68.69,1.05,1.75,1.91,2.77,2.62,2.34,1.65,5.03,2.81,7.72,3.75,4.91,1.72,10.06,2.75,15.2,3.5,8.26,1.2,16.63,1.65,24.97,1.77,15.22.21,30.52-.9,45.46-3.86,4.35-.86,8.67-1.89,12.93-3.15,1.91-.57,3.97-1.08,5.78-1.94.07-.04.16-.06.23-.09,1.08-.45.13-1.48-.79-1.1-.08.03-.15.07-.23.09-.37.13-.07.03-.53.2-.93.34-1.87.65-2.81.96-3.54,1.13-7.14,2.07-10.76,2.89-13.54,3.06-27.45,4.41-41.31,4.66-8.83.15-17.7-.1-26.49-1.01-5.86-.61-11.75-1.48-17.43-3.1-4.31-1.22-9.98-3.04-12.82-6.51-.18-.22-.31-.49-.49-.7-.11-.12.05.16.04.21.06-.46.03-.95.04-1.41.13-4.25.25-8.5.38-12.74l.03-1.09-1.53.57c12.42,8.01,27.25,10.37,41.78,10.72,7.51.18,15.03-.16,22.53-.56s15.3-.66,22.85-1.84c8.63-1.35,17.04-3.91,24.42-8.68.97-.63-.42-1.35-1.16-.87h0Z"/>
    <path class="cls-41" d="M869.3,442.27s15.56.08,29.54,22.86c6.18,10.07,5.22,13.32,6.23,24.52,1.04,11.48-9.14,41.65-15.77,41.65-10.01,0-11.2-1.23-24.38-8.49-19.3-10.63-8.19-55.06-8.19-55.06"/>
    <path class="cls-24" d="M867.32,457.92c-3.76,1.77-6.58,5.33-8.86,8.68-3.17,4.66-5.67,9.79-7.69,15.05-2.13,5.55-3.78,11.36-4.52,17.28-.63,5.02-.94,11.14,1.65,15.69.66,1.15,1.61,2.33,2.93,2.72.59.17,2.48.2,2.56-.7.05-.57-1.73-.21-1.77.28,0,.07.83-.4.84-.31,0-.04-.04.05-.15-.02-.33-.24-.79-.33-1.13-.61-1.22-.98-1.94-2.49-2.43-3.95-1.6-4.8-1.27-10.22-.49-15.14,1.61-10.26,5.51-20.61,11.15-29.33,2.26-3.49,5.08-7.45,8.96-9.27.3-.14.46-.34.19-.56s-1,.09-1.25.2h0Z"/>
    <path class="cls-28" d="M1175.71,746.32c12.04.19,24.21,4.1,33.55,11.84,10.02,8.29,14.36,20.79,11.21,33.48-3.78,15.2-15.66,26.39-26.6,36.79-5.67,5.39-11.36,10.82-16.16,17.02-4.05,5.25-7.47,10.98-10.13,17.06-10.54,24.12-9.89,53.14,3.33,76.1,7.6,13.2,19.53,22.75,30.8,32.66s21.95,21.68,30.63,34.47c8.75,12.9,16.26,27.15,20.73,42.13,4.25,14.25,4.98,30.23-2.94,43.39-1.77,2.94-4,5.55-6.55,7.83-1.18,1.06-.48,2.6.82,3.06,1.67.59,3.5-.17,4.73-1.27,11.2-10.02,14.99-25.63,13.6-40.15-1.55-16.19-8.78-31.8-16.72-45.79-7.67-13.52-17.12-26.03-28.05-37.09-11.22-11.36-24.67-20.56-34.72-33.07-16.81-20.94-20.37-50.79-11.58-75.85,2.2-6.28,5.15-12.3,8.83-17.84,4.17-6.28,9.45-11.74,14.84-16.97,11.31-10.97,23.76-21.6,29.79-36.61,2.77-6.9,4.02-14.38,2.65-21.75-1.1-5.92-3.96-11.49-7.87-16.04-8.22-9.57-20.44-15.08-32.69-17.19-3.02-.52-6.07-.8-9.14-.84-1.56-.02-3.64.42-4.37,2-.65,1.4.58,2.62,1.99,2.64h0Z"/>
    <path class="cls-38" d="M881.07,406.5c-4.62,5.32-14.58,9.09-21.12,11.8-6.69,2.77-9.42,3.06-16.26,1.69-13.33-2.66-26.16-8.64-35.91-18.37-10.05-10.04-15.89-23.52-16.64-37.92-.52-10.07.83-19.81,3.77-29.05.45-.92,1.19-2.4,1.64-3.32,11.35-16.43,19.33-22.57,37.91-21.52,11.45.53,22.3-3.99,37.73,6.64,3.32,2.29,5.27,10.06,9.4,13.51,6.23,5.2,12.48,13.1,14.02,19.85,2.23,9.87-.45,21.86-2.92,33.22-1.87,8.61-5.75,16.68-11.52,23.34-.04.04-.07.08-.11.13Z"/>
    <path class="cls-4" d="M788.02,372.67c.62-2.5,1.35-5.39,2.25-8.88.26-1.01.54-1.97.82-2.93.19-.48.34-.97.45-1.47,5.28-16.74,13.33-24.02,13.33-24.02,10.26-9.2,24.61-12.24,37.7-7.99,15.49,4.68,26.9,18.09,31.57,29.68,2.32,5.74,2.45,12.14.35,17.96-1.78,4.98-4.58,7.72-7.5,12.86,5.51,1.27,12.01,3.27,6.21,12.16-6.4,9.81-14.71,12.38-18.5,7.02-1.7.46-3.72,4.7-5.27,8.57-.36.19-2.19,8.02-2.45,8.44-2.68,4.27-6.9-1.63-11.5-.48-4.84,1.21-9.86,2.03-14.82,2.54-6.98.71-10.26,1.89-17.29.54l-3.4-1.24c-2.99-1.06-2.11-1.08-5.63-2.89-11.64-6.76-11.6-32.2-10.54-38.69.9-5.51,2.65-8.14,4.25-11.18Z"/>
    <path class="cls-30" d="M800.34,425.57s13.31,6.05,34.04-2.42c0,0-6.85,6.13-17.78,6.86-10.94.73-16.17-2.53-16.17-2.53l-.09-1.91Z"/>
    <path class="cls-38" d="M797.7,344.37c18.5-.56,22.89-8.63,33.33-5.56,12.1,3.52,13.64,1.94,21.94,9.33,7.57,6.76,8.32,10.94,8.32,10.95-.07,2.24.72,4.39,1.04,6.6s.03,4.3-.46,6.42c-1.01,4.34-1.84,8.74-3.5,12.92-1.03,2.59-2.67,5.96-.49,8.47.97,1.12-.05-.47,1.38-.54.05-.07.55-3.3-.79.46-.67,1.89,3.54-3.7,5.52-4.57.9-.4,1.96-.82,2.99-.96,1.03-.14,2.14-.31,3.19-.16,1.51.05,4.46,3.05,5.74,3.8.21.16-1.14-2.27-.93-2.11,6.99-9.93,11.37-18.47,6.93-34.18-1.29-4.53-6.48-10.55-8.05-12.46-2.15-2.59-4.36-4.77-6.65-6.63-7.83-6.36-16.58-8.9-27.15-10.75-15.82-2.77-32.8-.61-40.8,12.9"/>
    <ellipse class="cls-28" cx="794.26" cy="369.74" rx="3.45" ry="3.44" transform="translate(397.93 1151.06) rotate(-88.07)"/>
    <path class="cls-21" d="M791.75,366.26c1.86-.56,3.71-.99,6.84.19,5.01,1.88,6.3,8.63,6.3,8.63,0,0-2.32-4.61-7.22-6.6-2.36-.96-6.27-1.25-8.4-.82.19-.48,1.35-1.01,2.48-1.41Z"/>
    <path class="cls-28" d="M869.13,399.92c1.04-1.51,1.79-3.35,1.56-5.22-.06-.45-.12-.62-.48-.86-1.47-1-3.38-.49-4.75.44-1.89,1.3-3.23,3.34-4.37,5.29-.2.34.42.3.57.24-.11.04-.02,0,.05-.02.11-.03.22-.06.33-.09.27-.05.59-.1.85,0,.62.24.53,1.11.39,1.63-.46,1.79-2.24,2.17-3.86,1.89-.37-.06-.86.45-.3.55,2.06.35,4.51-.32,5.02-2.61.17-.76.09-1.7-.76-1.98-.66-.22-1.44-.05-2.08.18l.57.24c.98-1.68,2.09-3.39,3.61-4.64.72-.59,1.61-1.14,2.57-1.16.51,0,1,.13,1.42.4.07.04.14.09.2.14.1.07.01,0,.07.06.05.06,0-.01,0-.02.03.09.05.18.06.28.34,1.82-.47,3.7-1.48,5.17-.24.35.61.33.79.06h0Z"/>
    <path class="cls-26" d="M832.06,380.01c-.22,2.35-2.63,3.78-4.79,2.86-1.35-.57-2.2-2.01-2.06-3.47.22-2.35,2.63-3.78,4.79-2.86,1.35.57,2.2,2.01,2.06,3.47Z"/>
    <path class="cls-21" d="M820.18,379.71s4.86-6.14,12.31-3.89c6.34,1.92,7.8,5.77,8.6,8.13,0,0-2.99-4.19-9.06-6.25-5.5-1.87-11.85,2.01-11.85,2.01Z"/>
    <path class="cls-1" d="M804.68,400.93c4.79,1.32,13.77,3.07,13.77,3.07,0,0-3.92,12.98-17.13,9.1-11.05-3.24-7.38-14.77-7.38-14.77,0,0,5.96,1.28,10.74,2.6Z"/>
    <path class="cls-22" d="M804.63,400.92c2.28.63,10.78,2.88,10.78,2.88,0,0-4.49,6.73-12.73,4.45-8.93-2.47-7.09-9.35-7.09-9.35l9.04,2.01Z"/>
    <path class="cls-46" d="M804.3,401.74c2.28.63,9.3,2.17,9.3,2.17,0,0-3.16,1.71-9.98-.18-6.83-1.89-8.35-4.81-8.35-4.81l9.03,2.82Z"/>
    <path class="cls-1" d="M793.41,397.42c.07-.25.59-.22,1.75,0,1.93.36,2.73-.14,4.12.14,2.38.47,3.61,1.76,4.63,2.04,1.01.28,2.74-.2,5.02.62,1.34.48,5.4,2.12,7.24,2.8,1.1.41,2.55.35,2.77.47.31.17-2.14,2.81-14.87-.71-12.73-3.52-10.74-5.03-10.65-5.37Z"/>
    <path class="cls-32" d="M824.47,366.58c.02-.12.42-.04.44-.17,6.66-.12,11.49.85,13.18,1.58,1.28.56,2.45,1.4,3.52,2.42,0,0,2.95,2.75,3.19,3.63.24.88-1.98-.87-1.98-.87-.49-.29-.81-.57-1.34-.79-2.88-1.18-5.53-2.75-8.63-3.02-2.65-.25-6.48.53-9.17.97.21-1.31.68-2.45.79-3.76Z"/>
    <path class="cls-32" d="M808.27,363.29c.04-.11-.29-.24-.25-.35-4.91-3.19-8.98-4.59-10.59-4.73-1.22-.1-2.5.08-3.78.48,0,0-1.51.05-2.11.71-.6.66-.11,1.14-.11,1.14.51-.02.88-.12,1.37-.07,2.71.31,5.44.17,7.88,1.36,2.1,1.01,4.58,3.46,6.38,5.1.47-1.24.67-2.45,1.21-3.65Z"/>
    <g>
      <path class="cls-6" d="M803.58,391.51c.97.96,2.78,1.34,4.16.97.31-.08,1.12.33.69.45-1.82.49-4.38-.18-5.64-1.41-.12-.12-.06-.23.14-.23.21,0,.51.1.65.23"/>
      <path class="cls-6" d="M809.03,392.74c.89-.13,1.82-.07,2.71.13.13.03.28.13.35.24.05.09.04.18-.07.21-.47.11-1.01.05-1.48-.1-.15-.05-.33-.14-.38-.3-.04-.14.12-.17.24-.14.39.12.81.17,1.19.08.09.15.19.3.28.45-.8-.17-1.63-.23-2.42-.11-.16.02-.34-.08-.45-.19-.08-.08-.14-.24.02-.27"/>
      <path class="cls-6" d="M812.45,393.89c1.03.28,2.35.2,3.08-.42,1.1-.93.98-3.1-.07-4.22-.11-.12,0-.2.14-.19.19.02.39.15.51.28.91.98,1.15,2.82.66,3.86-.46.97-1.65,1.39-2.95,1.32-.39-.02-.79-.08-1.18-.18-.16-.04-.42-.17-.46-.32-.04-.15.12-.16.26-.12"/>
      <path class="cls-6" d="M801.87,390.43c.09-.1.01-.21-.07-.23-.28-.08-.53-.24-.71-.5-.12.08-.24.17-.37.25.53.23,1.03.57,1.42,1.05.08.1.23.09.34.05.08-.04.19-.14.11-.24"/>
      <path class="cls-6" d="M802.59,390.81c-.44-.53-1-.91-1.6-1.17-.09-.04-.22-.02-.31.04-.07.05-.11.14-.06.21"/>
      <path class="cls-6" d="M799.71,389.93c-.65-.22-1.3-.9-1.4-1.77-.14-1.31.72-2.55,1.77-3.04.11-.05.1-.17.02-.23-.11-.08-.27-.05-.39,0-.91.43-1.69,1.34-1.91,2.46-.2,1.05.22,1.95.92,2.48.21.16.44.29.69.38.1.03.29.04.38-.06.09-.11.01-.19-.08-.22"/>
    </g>
    <g>
      <path class="cls-23" d="M860.79,353.9c-.92.53-1.43,1.7-1.2,2.74.23,1.04,1.19,1.87,2.25,1.96-.79,1.14-.41,2.9.77,3.62.5.31,1.14.46,1.5.92.89,1.15-.55,3.07.36,4.2.34.43.94.59,1.27,1.03.69.89-.11,2.24.3,3.29.49,1.28,2.49,1.49,2.91,2.8.29.92-.31,2.12.39,2.79.36.35.98.4,1.26.83.33.52-.05,1.17-.21,1.76-.38,1.47,1.06,3.09,2.56,2.87-.23.99-.01,2.08.57,2.92.86-.79,1.75-1.62,2.23-2.69.48-1.07.43-2.47-.43-3.27-.33-.31-.77-.52-1.01-.9-.62-.97.3-2.43-.39-3.35-.47-.62-1.5-.72-1.75-1.46-.12-.35,0-.74.03-1.11.13-1.31-.92-2.63-2.23-2.81-.37-.05-.78-.03-1.08-.26-.85-.66.38-2,.17-3.06-.21-1.04-1.75-1.44-1.85-2.5-.03-.35.11-.7.11-1.05,0-.56-.34-1.05-.68-1.5-1.72-2.3-3.53-4.55-5.4-6.73"/>
      <path class="cls-23" d="M860.53,353.73c-2.25,1.55-1.5,4.71,1.17,5.14l-.24-.31c-.58.99-.59,2.23.1,3.18.41.57.95.76,1.54,1.1.98.56.96,1.31.81,2.28-.2,1.24-.27,2.02.75,2.86.41.33.8.49.94,1.08.09.41,0,.87-.04,1.28-.05.59-.09,1.16.22,1.7.58,1.01,1.93,1.19,2.56,2.12.75,1.1-.32,2.63.94,3.5.49.33.99.2,1.03,1.13.02.36-.26.73-.32,1.09-.11.6-.05,1.13.24,1.68.54,1.01,1.57,1.5,2.68,1.44l-.36-.24c-.19,1.11.01,2.09.6,3.05.14.23.55.07.69-.06,1.13-1.04,2.4-2.24,2.58-3.86.07-.62-.01-1.28-.32-1.83-.42-.75-1.44-1.08-1.6-1.96-.28-1.48.58-2.48-.97-3.44-.69-.43-.97-.5-.99-1.46,0-.26.07-.51.05-.77-.05-.7-.37-1.35-.86-1.84s-.96-.6-1.58-.8c-.65-.21-1.11-.17-1.13-.97-.01-.35.23-.71.32-1.05.41-1.58-.48-1.83-1.37-2.91-.6-.73-.08-1.55-.38-2.38s-1.05-1.6-1.59-2.3c-1.41-1.84-2.88-3.63-4.39-5.39-.22-.26-.98.05-.73.34,1.35,1.58,2.67,3.18,3.95,4.82.62.8,1.81,1.94,2.04,2.94.16.66-.22,1.3.1,1.94.22.44.65.73,1,1.05.81.75.75,1.35.44,2.35-.27.87-.37,1.69.67,2,.97.29,1.77.25,2.37,1.24.56.92,0,1.73.32,2.61.15.43.52.66.88.89,1.05.65,1.17,1.1,1.07,2.32-.04.55-.1,1.1.19,1.6.41.71,1.25.94,1.57,1.76.77,1.98-.99,3.68-2.29,4.89l.69-.06c-.54-.87-.7-1.77-.53-2.78.03-.2-.22-.25-.36-.24-1.05.06-2-.74-2.22-1.76-.15-.73.3-1.27.34-1.96.08-1.42-1.7-1.23-1.72-2.64-.02-1.04.17-1.88-.69-2.65-.91-.82-2.27-1.09-2.36-2.51-.07-1.07.43-2.14-.49-2.99-.61-.56-1.24-.73-1.29-1.68-.03-.55.17-1.11.23-1.66.1-1-.14-1.7-1.06-2.2-.72-.39-1.36-.68-1.69-1.49-.31-.77-.22-1.57.2-2.28.1-.17-.09-.29-.24-.31-2.17-.35-2.72-3.03-.93-4.26.44-.3-.21-.55-.52-.34h0Z"/>
    </g>
    <g>
      <path class="cls-23" d="M863.48,351.55c-.75,1.48,0,3.53,1.53,4.17.3.13.63.21.86.44.48.49.25,1.29.3,1.97.11,1.54,1.73,2.49,3.21,2.9.95.26,2.16.64,2.23,1.62.03.39-.14.78-.05,1.16.25,1,2.09,1.03,2.12,2.06.02.47-.4.87-.41,1.34-.02,1,1.55,1.13,2.11,1.96.26.39.26.88.26,1.35-.01,1.42-.03,2.84-.04,4.26,0,.35.02.76.31.96.48.34,1.08-.23,1.36-.75,1.61-2.89,2.47-6.2,2.46-9.52,0-.83-.23-1.87-1.04-2.03-.27-.05-.58,0-.79-.17-.35-.28-.13-.83.03-1.25.65-1.73-.76-3.89-2.61-4-.5-.03-1.1.02-1.38-.39-.19-.27-.14-.64-.2-.96-.16-.84-1.04-1.33-1.86-1.55s-1.72-.3-2.4-.81c-.86-.63-1.24-1.84-2.22-2.27-1.18-.52-2.85.28-3.71-.68"/>
      <path class="cls-23" d="M863.09,351.61c-.43.99-.38,2.07.17,3.01.22.37.5.7.85.95.6.43,1.44.45,1.65,1.28.27,1.04-.12,1.93.67,2.86s1.86,1.25,2.93,1.58c.62.19,1.33.39,1.68.98s-.08,1.25.22,1.86c.4.79,1.74.78,2,1.63.28.91-.87,1.56.07,2.37.33.29.77.43,1.13.68.68.47.78,1.05.8,1.83.02.87-.02,1.74-.02,2.6,0,.66-.18,1.55.03,2.19.2.6.76.71,1.31.52.79-.27,1.16-1.08,1.51-1.77.71-1.42,1.24-2.92,1.59-4.47.4-1.78,1.33-5.36-.64-6.43-.1-.05-.25,0-.35-.05-.8-.48-.5-.72-.35-1.26.12-.41.19-.81.15-1.24-.1-1.02-.75-1.99-1.63-2.5-.4-.23-.82-.34-1.27-.39-.56-.07-1,.12-1.36-.61-.14-.28-.04-.66-.17-.96-.49-1.14-1.88-1.3-2.92-1.57-.89-.24-1.49-.63-2.05-1.35-.37-.47-.68-.99-1.2-1.31-1.22-.77-2.87.14-3.96-.82-.18-.16-.91.14-.74.29.61.54,1.33.56,2.11.55s1.49-.05,2.12.47c.45.38.74.92,1.12,1.36.66.77,1.42,1.02,2.38,1.25.61.15,1.27.27,1.77.67.75.58.46,1.05.8,1.78.37.81,1.42.51,2.12.72,1.13.34,1.97,1.48,2.08,2.64.07.66-.61,1.7-.29,2.28.15.28.37.28.65.36.84.27,1.15.57,1.27,1.42.38,2.61-.48,5.71-1.48,8.1-.18.43-.68,1.93-1.08,2.15-.35.19-.65-.07-.74-.31-.07-.19,0-.54,0-.74,0-1.43.28-3.09,0-4.49-.18-.91-.83-1.17-1.54-1.62-.52-.32-.9-.6-.73-1.29.12-.49.49-.84.26-1.36-.27-.62-1.1-.75-1.58-1.15-.85-.71-.05-1.85-.88-2.62-.75-.7-1.9-.75-2.8-1.15-1.46-.65-2.17-1.62-2.17-3.2s-.97-1.35-1.97-2.24-1.26-2.37-.73-3.59c.08-.19-.68-.11-.78.12h0Z"/>
    </g>
    <g>
      <path class="cls-23" d="M866.39,350.38c1.7,1.43,4.73-.86,6.4.61.81.71,1.07,2.17,2.14,2.28.49.05,1-.24,1.46-.06.96.37.34,1.88.77,2.82.54,1.16,2.5,1,3.07,2.15.16.32.17.7.31,1.03.25.63.88,1.01,1.39,1.44.52.44.98,1.11.76,1.75,1.99-1.88,2.33-5.25.76-7.49-.17-.24-.36-.48-.43-.77-.07-.28-.01-.57.02-.86.14-1.44-.56-2.94-1.75-3.76-.42-.29-.91-.52-1.15-.97-.33-.63-.01-1.4-.08-2.11-.16-1.66-2.21-2.35-3.15-3.72-.39-.57-.58-1.25-.93-1.85-.37-.64-.93-1.17-1.59-1.51-.52-.27-1.22-.4-1.66,0-.3.27-.39.7-.62,1.03-.59.83-1.84.74-2.83.49s-2.16-.51-2.93.15c-1.09.95-.37,2.8-.94,4.13-.25.58-.75,1.04-.94,1.65-.18.55-.09,1.15.01,1.72.17,1.01.34,2.03.51,3.04"/>
      <path class="cls-23" d="M865.99,350.54c1.51,1.11,3.3.14,4.96.15,2.18,0,2.08,2.87,4.23,2.77.71-.03,1.16-.1,1.34.68.1.44,0,.91.07,1.36.12.87.61,1.29,1.38,1.64.45.2.99.33,1.38.64.55.44.5.95.77,1.55.52,1.18,2.43,1.63,2.15,3.14-.06.31.72.01.82-.08,1.08-1.08,1.7-2.49,1.78-4.03.04-.78-.07-1.58-.34-2.32-.31-.85-1.04-1.52-1.07-2.42-.06-1.79-.31-3.25-1.9-4.34-.29-.2-.63-.36-.85-.64-.46-.59-.22-1.23-.22-1.91,0-.63-.15-1.14-.54-1.64-.46-.6-1.1-1.02-1.67-1.51-.74-.63-1.16-1.34-1.57-2.21-.57-1.22-1.68-2.52-3.16-2.46-.41.02-.85.13-1.16.41-.2.17-.27.39-.42.6-.73,1-1.5.96-2.51.74-1.13-.25-2.48-.48-3.45.34-1.3,1.1-.43,3.14-1.18,4.51-.43.79-.93,1.3-.9,2.27.04,1.3.4,2.63.61,3.91.04.22.9.03.86-.23-.16-.94-.32-1.88-.47-2.82-.18-1.09-.15-1.85.46-2.8.79-1.25.53-2.29.77-3.67.39-2.22,2.84-.84,4.35-.91,1.03-.05,1.56-.44,2.17-1.19,1.7-2.06,3.05,1.67,3.79,2.77.68,1.01,1.82,1.54,2.58,2.47.61.74.54,1.38.51,2.29-.02.65.06,1.12.55,1.57.57.51,1.22.8,1.69,1.43s.79,1.47.81,2.3c.01.44-.13.92-.03,1.36.09.39.4.7.61,1.03.41.67.66,1.43.76,2.21.24,1.82-.37,3.63-1.66,4.92l.82-.08c.22-1.23-.81-1.74-1.58-2.48s-.63-1.93-1.63-2.53c-.84-.5-2.06-.57-2.4-1.65-.24-.76.2-1.92-.5-2.5-.21-.17-.53-.22-.79-.22-.77-.01-1.26.22-1.82-.42-.6-.68-.81-1.59-1.69-2.01-1.89-.91-4.18.97-5.92-.3-.21-.15-.98.18-.8.31h0Z"/>
    </g>
    <path class="cls-38" d="M831.01,328.51s5.56,18.86,18.82,32.45c13.25,13.59,12.04,29.51,12.04,29.51,0,0,5.36-8.15,12.93-4.7,7.56,3.45,11.31,5.56,9.78,11.95-1.53,6.38-5.36,17.11-24.46,15.92,0,0-9.71-1.85-12.63,8.55-2.93,10.4-2.05,5.58.42,20.97,2.47,15.39-4,29.69-11.87,33.53,0,0,13.21,1,20.04-10.55,6.83-11.55,7.81-15.76,7.81-15.76,0,0-2.76,9.71,3.97,16.38,0,0,1.99-18.06,7.93-21.31,2.85-1.56,13.57,8.31,13.57,8.31,0,0,8.21.55,8.66-15.16.45-15.71-7.46-22.69-1.75-39.26,5.71-16.56,11.26-29.74,7.99-42.16-3.27-12.42-4.89-27.87-24.59-31.13-19.7-3.26-48.65,2.47-48.65,2.47Z"/>
    <path class="cls-12" d="M872.2,388.88s9.74-50.11-32.21-58.46c0,0-18.42-7.4-39.27,2.27,0,0,7.84-9.12,18.56-12.08,0,0,34.16-5.28,52.85,19.76,18.69,25.04,3.8,51.13,3.8,51.13l-3.72-2.64Z"/>
    <path class="cls-41" d="M743.29,783.95l.29,14.66c-5.55,4.86-18.6,20.03-22.94,22.48-5.58,3.15-6.54,3.89-13.08,7.81-2.56,1.54-3.67,2.16-6.95,2.94-3.29.78-7.07-.11-8.61,2.71-1.01,1.87.65,4.11,3.13,5.24,2.49,1.13,5.57,1.38,8.5,1.38,2.93,0,5.88-.22,8.79.13,1.1.13,2.21.34,3.31.27,2.5-.15,4.71-1.7,7.14-1.2.69.14,1.3.43,1.99.58,1.03.21,2.12.06,3.12-.16,7.25-1.57,8.47-2.21,14.52-5.01,5.97-2.77,11.5-3.65,17.91-6.05,3.05-1.14,12.3-.98,18.03-6.05,3.24-2.86-1.27-10.05-2.89-13-3.69-6.7-3.5-9.15-4.43-12.47l1.95-14.27h-29.8Z"/>
    <path class="cls-41" d="M713.37,798.86c-2,1.18-21.03,18.43-23.31,19.28-7.76,2.91-6.6,5.12-12.95,5.94-1.27.16-2.65.24-3.63.85-.5.31-.85.74-1.25,1.13-2.24,2.19-6.45.57-8.97,2.52-2,1.54-1.65,3.15-.15,4.45.58.5,1.12.38,2.08.52,3.47.5,8.16.75,15.02-1.3,4.41-1.32,19.52-2.33,24.28-2.78,5.56-.52,12.88-2.76,18.44-3.28,4.26-.4,15.2.82,18.7-.96,4.16-2.11,5.22-4.99,3.2-8.34-1.75-2.91-2.95-11.56-4.7-14.61l2.18-15.72h-29.88s.95,12.31.95,12.31Z"/>
    <g>
      <path class="cls-41" d="M741.64,786.16c1,1.72,1.99,3.44,2.99,5.16.33.57.65,1.3.25,1.82-.5.66-1.59.35-2.29-.1-.7-.46-1.52-1.04-2.31-.74-1.03.4-1.11,2.01-2.18,2.3-1.33.36-2.09-1.7-3.46-1.83-1.79-.16-2.39,2.93-4.2,2.89-1.75-.03-2.13-2.93-3.88-3.02-1.02-.05-1.72.9-2.32,1.69-.6.79-1.64,1.58-2.53,1.12-.89-.46-1.09-1.97-2.1-1.91-.29.02-.55.19-.78.37-.57.44-1.07.97-1.48,1.55-.21.3-.42.63-.77.75-.67.21-1.24-.49-1.47-1.12-.23-.63-.46-1.4-1.13-1.57-1.26-.33-1.79,1.7-3.03,2.13-1,.35-2.03-.52-2.43-1.45-.13-.3-.24-.63-.48-.86-.78-.74-2.08.06-2.85.83-.61-.64-.42-1.7.13-2.4.55-.7,1.38-1.14,2.12-1.64,1.27-.87,2.36-1.98,3.18-3.24.25-.39.49-.81.91-1.03.49-.27,1.1-.2,1.66-.13,9.08,1.16,18.34,1.14,27.44-.06"/>
      <path class="cls-18" d="M741.26,786.35c.75,1.29,1.49,2.58,2.24,3.87.36.61.85,1.26,1.06,1.95.09.32.17.81-.2,1-.27.14-.69,0-.94-.11-.99-.4-1.75-1.32-2.91-1.12-.85.14-1.29.82-1.69,1.51-.2.34-.43.81-.85.88s-.84-.34-1.14-.6c-.6-.54-1.18-1.17-2.03-1.26-1.68-.18-2.36,1.62-3.43,2.53-1.47,1.25-2.47-1.25-3.35-2.06-.58-.53-1.35-.74-2.11-.49-1,.33-1.53,1.24-2.19,1.99-.42.48-1.13,1.1-1.79.71-.37-.22-.59-.68-.82-1.02-.46-.67-1.07-1.08-1.9-.78-.47.17-.86.53-1.21.87-.21.2-.41.4-.59.62-.21.25-.37.59-.6.81-.99.93-1.46-1.56-1.98-2.06-.64-.63-1.58-.47-2.21.07-.68.59-1.35,2.09-2.44,1.66-.74-.29-1.07-.98-1.39-1.64-.23-.47-.56-.82-1.09-.92-1.08-.21-2.11.58-2.84,1.28l.73-.06c-.92-1.1.19-2.33,1.1-2.96s1.84-1.22,2.66-2.01c.4-.39.77-.8,1.1-1.23s.61-.98.98-1.4c.46-.52,1.12-.4,1.75-.33.68.09,1.37.17,2.05.24,5.36.57,10.77.74,16.16.5,3.08-.14,6.16-.41,9.22-.81.47-.06.64-.7.07-.63-5.96.78-11.99,1.07-18,.84-2.96-.11-5.91-.35-8.85-.71-1.01-.12-2.11-.32-2.92.46-.4.38-.65.9-.98,1.34-.4.54-.84,1.05-1.33,1.52-1.02.97-2.36,1.55-3.35,2.55-.78.79-1.22,2.08-.43,3.02.19.23.55.12.73-.06.41-.4,1-.9,1.6-.93.76-.04.89.93,1.22,1.43.53.82,1.5,1.44,2.5,1.21.84-.19,1.37-.88,1.91-1.51.23-.27.55-.72.95-.68.59.06.79.88.96,1.33.32.82,1,1.68,1.99,1.38.49-.14.76-.52,1.05-.91.39-.54.85-1.1,1.4-1.48.6-.41.86-.14,1.22.38.24.35.45.74.79,1.02.78.66,1.82.4,2.58-.15.85-.62,1.39-2.06,2.44-2.35.91-.25,1.54.74,1.99,1.36s.89,1.24,1.61,1.5c.67.24,1.42.07,1.99-.34.65-.46,1.08-1.15,1.6-1.74.66-.74,1.29-.91,2.1-.26.61.48,1.12,1.19,1.92,1.37s1.52-.23,1.97-.87c.27-.39.45-.88.79-1.22.6-.62,1.44,0,2.01.36.8.52,1.91.98,2.8.4,1.19-.78.26-2.2-.26-3.08-.87-1.5-1.74-3.01-2.61-4.51-.19-.33-.99-.01-.77.37h0Z"/>
    </g>
    <g>
      <path class="cls-41" d="M773.47,783.78l2.94,5.21c.32.57.64,1.31.21,1.83-.53.65-1.63.33-2.33-.15-.7-.47-1.52-1.07-2.34-.78-1.06.38-1.17,1.99-2.27,2.26-1.36.34-2.09-1.74-3.49-1.89-1.83-.19-2.5,2.88-4.34,2.82-1.78-.06-2.11-2.97-3.89-3.09-1.03-.07-1.78.87-2.4,1.65s-1.71,1.55-2.6,1.07c-.89-.48-1.07-1.99-2.1-1.95-.3.01-.57.18-.81.35-.59.43-1.11.95-1.54,1.52-.22.29-.44.63-.8.73-.68.2-1.25-.52-1.47-1.15s-.44-1.41-1.12-1.6c-1.28-.35-1.86,1.67-3.13,2.07-1.03.33-2.05-.56-2.45-1.49-.13-.3-.23-.63-.48-.87-.78-.76-2.12.02-2.92.78-.61-.65-.39-1.71.18-2.39.58-.69,1.43-1.11,2.2-1.6,1.31-.84,2.45-1.93,3.31-3.18.26-.38.52-.8.95-1.02.51-.26,1.13-.18,1.7-.1,9.24,1.32,18.68,1.47,27.98.44"/>
      <path class="cls-18" d="M773.08,783.97c.73,1.3,1.47,2.61,2.2,3.91.34.61.79,1.23,1.01,1.9.09.28.18.66-.03.91-.24.29-.69.17-.99.07-1.02-.34-1.75-1.32-2.91-1.25-.89.05-1.42.68-1.86,1.39-.21.34-.46.87-.9.96s-.83-.27-1.12-.53c-.6-.53-1.14-1.18-1.96-1.35-1.7-.34-2.52,1.35-3.57,2.31-1.58,1.43-2.51-1-3.45-1.93-.55-.55-1.27-.81-2.05-.64-1.03.23-1.66,1.1-2.3,1.85-.39.46-1.1,1.14-1.77.92-.45-.15-.71-.66-.95-1.03-.43-.66-.97-1.18-1.82-.97-1.08.27-1.9,1.35-2.55,2.17-1.04,1.29-1.52-1.34-2.03-1.9-.6-.65-1.55-.59-2.21-.09-.7.53-1.37,1.95-2.39,1.76-.76-.14-1.25-.88-1.53-1.52-.22-.49-.45-.92-.99-1.11-1.08-.38-2.28.43-3.04,1.12h.67c-.89-1.07.2-2.26,1.11-2.87.98-.65,1.97-1.22,2.84-2.02.41-.38.79-.78,1.15-1.21s.61-.91.97-1.32c.51-.57,1.17-.45,1.85-.35s1.37.19,2.05.27c5.48.67,11.02.94,16.54.79,3.13-.08,6.26-.3,9.38-.64.48-.05.65-.7.07-.63-6.07.67-12.19.85-18.29.51-3.04-.17-6.08-.46-9.09-.88-1.06-.15-2.18-.35-3.02.47-.38.37-.64.85-.97,1.27-.45.58-.95,1.12-1.51,1.6-1.04.9-2.38,1.44-3.36,2.41-.79.78-1.26,2.04-.48,2.99.15.18.5.16.67.01.42-.38.94-.83,1.51-.93.91-.17,1.02.74,1.38,1.34.5.85,1.44,1.49,2.46,1.34.91-.13,1.5-.86,2.09-1.5.24-.27.58-.71.99-.65.56.08.77.83.92,1.27.31.86.99,1.78,2.02,1.48.49-.14.78-.52,1.08-.9.41-.54.89-1.09,1.47-1.45s.86-.16,1.2.36c.25.36.45.75.78,1.05.75.69,1.79.48,2.58-.03.44-.29.8-.66,1.13-1.07.4-.48.86-1.13,1.5-1.29.93-.23,1.55.77,2,1.41.43.6.89,1.26,1.61,1.53s1.48.08,2.08-.34c.66-.46,1.11-1.15,1.66-1.73.69-.72,1.35-.78,2.13-.14.6.5,1.12,1.21,1.92,1.39s1.53-.22,1.99-.85c.28-.39.48-.87.83-1.21.63-.6,1.47.03,2.05.41.81.53,1.98,1.03,2.88.41,1.16-.8.25-2.18-.26-3.07-.86-1.52-1.71-3.04-2.57-4.56-.19-.34-.99-.02-.77.38h0Z"/>
    </g>
    <path class="cls-18" d="M707.4,829.3c8.79-7.22,17.5-14.54,26.14-21.94,2.42-2.08,4.84-4.16,7.25-6.25.43-.37-.25-.61-.55-.35-8.59,7.46-17.26,14.82-26.01,22.1-2.45,2.04-4.91,4.08-7.38,6.1-.44.36.24.6.55.35h0Z"/>
  </g>
  <g id="Layer_10" data-name="Layer 10">
    <path class="cls-4" d="M877.91,527.79c-3.42-.86-6.73-2.07-10.15-3.49-4.17-1.74-7.88-3.91-11.71-6.01-.14-.06-.27-.1-.38-.12-1.24-.27-2.31-.69-3.23-1.23-.81,1.67-1.78,3.86-2,3.6l-21.45-34.29-3.91-5.92-4.13-7.87c-.03-2-2.9-22.46-2.87-26.72.04-6.03,10.13-24.25,10.13-24.25,0,0-2.97-3.54-8.14,1-6.18,5.38-8.46,12.63-10.6,12.12s-17.4-10.21-20.35-8.89-2.65,4.67-1.17,5.59c1.17.8.08.49,1.13,1.45,0,0-7.1.06-3.63,6.78,0,0-6.6-1.09-2.86,8.38,0,0-3.97-.61-3.99,3.15-.01,3.76,2.91,6.88,5.36,9.04,2.45,2.17,17.35,16.12,17.35,16.12,0,0,14.2,63.94,29.31,86.62,5.04,7.56,16.64,8.96,19.21,9.33,16.04,2.31,26.02-14.98,26.02-14.98,0,0,5.87-8.73,13.45-25.9-3.79-.75-7.52-1.96-10.99-3.33-.13-.05-.26-.11-.4-.16Z"/>
    <path class="cls-25" d="M789.72,425.72c.65-.26,2.04.36,2.68.58,1.44.49,2.83,1.12,4.21,1.77,2.95,1.39,5.82,2.96,8.71,4.47,1.43.75,3.22,2.1,4.9,1.42,1.04-.42,1.73-1.41,2.35-2.3,1.1-1.56,2.1-3.18,3.23-4.72,1.4-1.9,2.94-3.73,4.74-5.26,1.62-1.38,3.7-2.6,5.78-1.5.3.16.62.36.85.6.26.27.12-.03.08.14-.15.6-.75,1.31-1.05,1.85-1.54,2.76-2.99,5.56-4.3,8.43s-2.7,5.95-3.12,9.11c-.18,1.38-.09,2.81-.07,4.2.03,2.02.07,4.05.11,6.07.07,3.21.17,6.42.22,9.63,0,.3,1.45.07,1.44-.39-.09-5.8-.31-11.6-.34-17.4-.03-5.93,3.11-11.62,5.8-16.75.9-1.71,1.82-3.41,2.8-5.08.02-.06,0-.1-.04-.14-1.6-1.86-4.54-1.56-6.53-.67-4.41,1.98-7.4,6.68-9.98,10.56-.5.75-.99,1.51-1.55,2.21-.2.25-.43.47-.63.71-.07.08-.18.17-.26.22-.28.19.27.05.03,0-.95-.16-1.97-.89-2.81-1.33-3.13-1.63-6.22-3.33-9.42-4.82-2.26-1.05-5.75-3.07-8.34-2.04-.95.38-.06.64.52.41h0Z"/>
    <path class="cls-25" d="M788.65,433.19c1.64.41,3.2,1.3,4.7,2.05.72.36,1.42.73,2.15,1.07s1.34.87,2,1.36c.44.33,1.74-.3,1.13-.76-.67-.51-1.28-1.04-2.05-1.39s-1.47-.72-2.2-1.09c-1.55-.78-3.17-1.69-4.87-2.11-.34-.08-.78.01-1.02.27-.21.23-.16.52.16.6h0Z"/>
    <path class="cls-25" d="M793.16,444.12c-1.37-.43-2.64-1.18-3.82-1.99s-2.34-1.72-3.21-2.85c-.24-.31-1.62.17-1.35.52.9,1.16,2.1,2.09,3.3,2.91s2.52,1.58,3.91,2.02c.32.1.73-.02,1.01-.17.15-.08.48-.34.16-.44h0Z"/>
    <path class="cls-25" d="M787.28,450.3c-.39-.18-.73-.36-1.09-.59-.38-.25-.72-.55-1.09-.82-.71-.5-1.35-1.01-1.91-1.68-.23-.28-.68-.29-.98-.12-.24.13-.58.48-.33.77.31.37.64.72,1,1.04s.73.58,1.12.85.73.58,1.12.84c.43.27.88.51,1.34.72.33.15.8,0,1.02-.27s.11-.59-.2-.73h0Z"/>
    <path class="cls-25" d="M854.83,538.62c1.48-2.97.93-6.56.08-9.63s-2.12-6.05-3.8-8.74c-.26-.41-1.66.05-1.34.57,1.6,2.56,2.8,5.42,3.63,8.32.85,2.96,1.52,6.56.09,9.45-.31.63,1.13.48,1.35.04h0Z"/>
  </g>
</svg>