<?xml version="1.0" encoding="UTF-8"?>
<svg id="Layer_9" data-name="Layer 9" xmlns="http://www.w3.org/2000/svg" xmlns:xlink="http://www.w3.org/1999/xlink" viewBox="0 0 1163.92 1166.32">
  <defs>
    <style>
      .cls-1 {
        fill: none;
      }

      .cls-2 {
        fill: #26160c;
      }

      .cls-3 {
        fill: #b8e0ee;
      }

      .cls-4 {
        fill: #0b1314;
      }

      .cls-5 {
        fill: #542c23;
      }

      .cls-6 {
        fill: #523e87;
      }

      .cls-7 {
        fill: #eb8500;
      }

      .cls-8 {
        fill: #231e1f;
      }

      .cls-9 {
        fill: #d78700;
      }

      .cls-10 {
        fill: #123a43;
      }

      .cls-11 {
        fill: #bc580f;
      }

      .cls-12 {
        fill: #866aac;
      }

      .cls-13 {
        fill: #372461;
      }

      .cls-14 {
        fill: #f0ecf6;
      }

      .cls-15 {
        fill: #3a722d;
      }

      .cls-16 {
        clip-path: url(#clippath-1);
      }

      .cls-17 {
        fill: #6b3825;
      }

      .cls-18 {
        fill: #b82d24;
      }

      .cls-19 {
        fill: #6f1303;
      }

      .cls-20 {
        fill: #f0edf6;
      }

      .cls-21 {
        clip-path: url(#clippath);
      }

      .cls-22 {
        fill: #af6b4e;
      }

      .cls-23 {
        fill: #4f2e25;
      }
    </style>
    <clipPath id="clippath">
      <circle class="cls-1" cx="582.33" cy="582.82" r="581.59"/>
    </clipPath>
    <clipPath id="clippath-1">
      <path class="cls-1" d="M446.23,602.51c-.18.09-.37.16-.55.25.48-11.27.94-22.69,1.39-34.33-.02,0-.04.01-.06.02.32-2.09.56-4.37.54-7.05.96-12.65-.72-41.52.15-54.53-3.17-17.24-5.26-53.87-13.93-82.39-.65-2.14-1.53-4.19-2.67-6.11-.99-1.67-2.13-3.62-2.23-3.69-2.04-1.3-10.64-3.12-16.56-5.98,2.37,5.72,11.31,22.77,8.6,39.57-1.13,7.01-2.35,13.17-9.03,14.9-20.05,5.18-46.61,2.59-55.57-18.68-6.13-14.54-14.62-27.44-20.89-41.78-2.94-6.73-3.23-5.87-7.15-12.23-6.8,1.17-23.65,6.82-30.84,8.56,11.05,4.44,12.67,13.43,15.25,22.98,3.4,12.6,8.38,34.74,3.07,49.03-2.89,7.79-3.53,13.15-8.73,19.69-2.53,3.18-5.74,5.76-9.33,7.66-7.26,3.83-13.94,5.93-22.35,6-4.12.04-3.59-.77-5.27,2.53-.22.42-.4.87-.54,1.32-4.55,14.72-6.79,30.09-9.76,45.19-1.6,6.01-3.65,13.77-6.03,22.79-2.21,2.66-7.44,8.06-12.33,24.57-.9,3.05-1.74,6.11-2.26,9.25-6.91,42.37-8.85,85.26-10.87,128.09-1.53,32.35-.7,65.65-5.04,97.79,15.14,8.96,22.68-2.75,42.8,10.98,17.75,12.11,28.4,5.97,43.33,0,14.93-5.98,27.37-3.98,46.65,1.99,19.28,5.97,30.8-5.03,41.99-5.53,11.19-.5,11.65,3.13,35,1.65,19.86-1.26,26.46-5.23,26.46-8.77-4.25-81.58-7.86-153.89-13.24-233.73ZM382.37,615.15c15.1-.17,30.12-1.85,44.89-5.48-14.67,4.25-29.71,5.79-44.89,5.48Z"/>
    </clipPath>
  </defs>
  <g class="cls-21">
    <circle class="cls-3" cx="581.59" cy="584.21" r="581.59"/>
    <path class="cls-15" d="M45.33,930.25c88.08,138.69,295.01,236.07,536.27,236.07s448.19-97.37,536.27-236.07H45.33Z"/>
    <circle class="cls-1" cx="581.85" cy="581.59" r="581.59"/>
    <path class="cls-22" d="M605.97,426.75l-104.87,55.59s-46.36-33.88-75.1-55.79c-15.44,11.52-30.69,23.26-44.95,36.13l3.13,5.49c29.84,21.7,81.69,70.63,116.43,69.69,42.97-1.16,120.43-88.79,120.43-88.79l-15.08-22.31Z"/>
    <path class="cls-22" d="M358.36,987.53c-1.34,5.86-2.36,7.38-3.76,12.98-1.61,6.45,1.09,11.41,8.04,14.3,5.85,2.43,13.73,3.73,20.13,3.53,8.36-.26,17.31-1.61,25.67-1.87,7.17-.22,29.72-1.65,36.72-.22,10.9,2.22,17.67.75,22.55-.89,1.35-.45,2.19-.36,2.83-1.38,1.67-2.65,1.53-5.61-2.02-7.96-4.47-2.96-10,.86-14.16-2.6-.74-.62-1.43-1.3-2.29-1.75-1.69-.88-3.74-.73-5.67-.75-9.64-.11-8.82-4.32-21.38-7.88-3.69-1.05-32.55-19.62-35.96-21.3"/>
    <path class="cls-22" d="M349.56,1000.1s52.49,12.13,67.54,12.64c15.05.51,16.6-4.07,16.6-4.07,0,0-16.72-10.21-35.66-19.45-3.98-1.94,9.24-124.93,17.56-182.57,5.78-40.04,2.54-72.05,2.54-72.05l-69.37,4.48,1.21,61.21-3.23,11.12c-1.69,5.81-5.44,20.5-6.03,26.53-1.59,16.29-.3,34.42.2,42.78.85,14.15,5.57,33.44,6.02,38.42l9.57,59.52-6.96,21.45Z"/>
    <path class="cls-22" d="M293.27,1001.18s61.83,32.6,76.01,32.62c14.17.02,9.3-7.51,9.3-7.51,0,0-37.58-36.77-41.22-43.53-2-3.71,8-116.41,14.25-174.29,4.34-40.21,4.62-72.2,4.62-72.2l-65.15,6.71-6.58,58.71-2.74,11.22c-1.43,5.86-3.43,16.27-3.82,22.31-1.05,16.33-2.11,43.8-1.4,52.13,1.19,14.12,10.28,48.82,10.84,53.78l7.03,44.07-1.15,15.98Z"/>
    <path class="cls-22" d="M294.15,976.91c.52,6.09-1.55,14.75-2.93,27.57-.61,5.64-5.14,13.72.8,17.81,10.52,7.23,22.99,4.27,27.73,5.38,9.99,2.34,17.97,2.29,27.57,5.41,9.73,3.16,11.73,3.93,22.41,4.58,1.48.09,3.04.04,4.32-.63.86-.45,1.53-1.14,2.39-1.59,3.04-1.57,6.87.5,10.34.04,1.53-.2,2.92-.89,4.34-1.44,3.76-1.44,7.87-1.92,11.85-2.77,3.98-.85,8.03-2.17,10.78-4.88,2.76-2.71,3.8-7.12,1.41-10.1-3.61-4.51-8.26-1.85-13.14-2.27-4.87-.42-6.71-1.19-11.02-3.14-11-4.99-12.7-6.01-21.98-9.92-7.2-3.03-28.36-12.75-38.52-19.65v-24.17"/>
    <g>
      <path class="cls-23" d="M376.36,1036.14c2.3-.65,3.15-3.35,2.17-5.42s-3.28-3.3-5.29-4.22c-1.2-.55-2.43-1.02-3.65-1.53-.31-.13-.75-.02-1.02.15-.18.11-.46.39-.14.52,2.45,1.03,5.13,1.88,7.18,3.64.93.8,1.69,1.82,1.85,3.06.12.94-.15,2.81-1.27,3.12-.19.05-.71.24-.64.52s.64.19.81.14h0Z"/>
      <path class="cls-23" d="M386.67,1036.17c1.28-.02,2.53-.61,3.1-1.8s.56-2.63.38-3.89c-.19-1.39-.66-2.52-1.66-3.54-1.44-1.47-3.39-2.22-5.3-2.89-2.13-.74-4.12-2.05-6.44-2-.26,0-.83.11-.97.36-.15.26.13.28.35.27,1.76-.04,3.49,1,5.07,1.65s3.33,1.13,4.8,2.16c1.12.79,2.06,1.81,2.44,3.14.3,1.07.42,2.23.31,3.33-.08.82-.41,2.55-1.48,2.57-.26,0-.83.11-.97.36-.15.26.13.28.35.27h0Z"/>
      <path class="cls-23" d="M394.9,1033.69c2.9-1.07,3.71-4.88,2.4-7.44s-4.25-4.28-6.9-5.39c-1.68-.7-3.5-1.37-5.28-1.73-.32-.06-.8.02-1.02.27-.19.22-.19.46.14.53,1.81.36,3.66,1.05,5.36,1.78s3.19,1.55,4.5,2.73c1.19,1.07,2.13,2.42,2.35,4.03s-.4,3.97-2.11,4.6c-.23.08-.55.33-.38.59s.75.1.96.02h0Z"/>
      <path class="cls-23" d="M402.69,1032.03c3.12-1.39,5.72-5.77,3.66-9.02-1.76-2.78-5.52-4.1-8.47-5.14-.81-.29-1.64-.53-2.46-.83-1.01-.36-2.02-.82-3.12-.76-.23.01-.87.11-.97.35s.09.27.35.26c1.08-.06,2.27.64,3.28.97.81.26,1.63.54,2.43.83,1.94.71,3.89,1.55,5.57,2.77,1.54,1.12,2.63,2.52,2.61,4.5-.03,2.43-1.48,4.86-3.72,5.86-.23.1-.38.23-.17.39s.82-.1,1.01-.18h0Z"/>
    </g>
    <path class="cls-23" d="M424.87,998.28c1.85.31,3.67,1.03,5.39,1.75.92.38,1.84.79,2.71,1.28.5.27,1.14.58,1.45,1.08.2.34.91.11,1.13-.04,1.75-1.16,3.91-1.41,5.94-1.01.33.06.79,0,1.02-.27.19-.22.18-.52-.16-.59-2.65-.51-5.46-.16-7.73,1.35l1.13-.04c-.31-.52-.99-.88-1.51-1.17-.92-.52-1.88-.95-2.85-1.35-1.81-.75-3.72-1.53-5.67-1.86-.33-.06-.79,0-1.02.27-.18.21-.19.53.16.59h0Z"/>
    <path class="cls-23" d="M351.02,993.66c6.79,3.59,13.68,6.99,20.64,10.23,5.43,2.53,10.91,4.98,16.51,7.11,3.9,1.48,8.16,3.2,12.38,3.41,2.3.11,4.6-.54,6.91-.57,2.05-.03,4.03.18,5.68,1.52,1.02.82,1.91,1.95,2.35,3.2.15.43,1.59,0,1.45-.39-2.14-6.02-9.3-5.32-14.36-4.54-3.26.51-7.56-1.22-10.77-2.36-10.91-3.87-21.4-9.02-31.74-14.21-2.63-1.32-5.26-2.66-7.87-4.04-.36-.19-1.7.36-1.17.64h0Z"/>
    <path class="cls-22" d="M526.29,444.57c18.78-36.87-61.17,125.35-61.17,125.35l-161.43-24.82c2.32,11.56-7.89,20.71-13.4,35.51,0,0,97.31,33.12,113.39,38.99,100.82,36.76,119.85,7.68,141.93-31.82,7.38-13.2,45.81-82.61,36.63-93.19-2.09-2.42-56.51-49.67-55.94-50.01Z"/>
    <path class="cls-22" d="M591.24,549.31c-4.59,2.56-10.11,7.42-13.87,10.95-4.38,4.66-12.04,21.52-12.04,21.52l-16.36,10.75,12.41,27.11,17.66-10.31,20.42-2.28s35.82-11.79,38.97-16.02c3.15-4.23,3.98-15.51,3.98-15.51,5.11-4.89,2.11-13.74,2.11-13.74,5.59-10.58-2.41-9.45-2.41-9.45.28-.32.46-.7.52-1.1.67-4.38-5.83-6.47-8.66-3.08-4.8,5.65-11.37,13.14-12.68,13.32-1.31.18-9.82,2.69-17.26,4.9-3.74,1.3-7.87-.44-9.23-3.87-.13-.32-1.77-1.98.53-4.06"/>
    <path class="cls-11" d="M658.95,249.14s-93.53-56.75-150.85-36.37c0,0,86.4-33.19,138.16,7.69l1.54,1.82c4.06,4.81,7.24,10.29,9.4,16.2l1.75,10.66Z"/>
    <path class="cls-22" d="M805.58,939.32c4.21-7.91,14.9-15.7,22.28-19.07,7.38-3.37,15.5,1.2,17.68,2.38,16.21,8.8,23.61,23.63,35.75,36.96,9.31,10.22,19.88,19.29,31.38,26.95,11.7,7.79,21.38,12.44,33.3,19.61.08.05,1.31.1,1.4.15,5.91,3.55,9.25,9.07,11.56,15.57.84,2.37,1.71,4.71,2.69,6.94,1.36,3.08,2.94,5.44.88,8.73-3.79,6.06-13.73-2.25-16.72-3.88-.55-.3-1.17-.45-1.8-.45-2.52-.02-6.51-.47-18.7-4.38-1.18-.38-2.34-.67-3.49-.9-.03.07.04-.07,0,0-6.51-1.69-36.19-5.95-41.49-6.99-10.45-2.05-42.07-12.02-42.07-12.02-3.64-.87-66.35-40.92-85.43-31.6l16.4-24.28s32.17-5.82,36.38-13.73Z"/>
    <path class="cls-22" d="M807.24,880.54c5.35-7.19,17.08-13.29,24.89-15.51,7.8-2.22,15.15,3.52,17.12,5.01,14.71,11.13,19.8,26.91,29.8,41.91,7.67,11.5,16.76,22.05,26.98,31.35,10.39,9.46,22.66,16.02,33.37,24.9.08.06.15.13.23.19,5.31,4.4,8.91,10.53,10.21,17.3.48,2.47.98,4.92,1.62,7.26.88,3.25,2.09,5.82-.44,8.76-4.65,5.42-13.24-4.29-15.95-6.35-.5-.38-1.09-.62-1.71-.72-2.49-.4-9.75-1.95-21.21-7.65-1.11-.55-2.21-1.01-3.31-1.41-.04.06.05-.06,0,0-6.19-2.65-34.89-11.31-39.97-13.13-10.03-3.59-39.79-18.2-39.79-18.2-3.46-1.4-45.06-24.21-65.31-17.86l5.45-47.74s32.68-.93,38.02-8.11Z"/>
    <path class="cls-22" d="M869.63,873.8c-10.41,36.61,29.27,76.39-19.21,90.55l-11.41,16.69c12.02,31.67,25.09-4.71,13.4,27.09l-15.92-4.78s-273.25,51.42-320.46,29.81c-19.15-5.11-55.69-49.6-48.06-109.1,7.63-59.5,32.99-44.33,50.07-51.22,17.08-6.89,189.82-16.97,253.14-10.57l76.15-39.55,22.3,51.08Z"/>
    <path class="cls-10" d="M850.04,654.61c-1.02-.84-13.97-2.29-14.23-3.75-2.73-1.85,6.07,4.48,0,0-9.45,3.34-18.34,7.51-28.09,9.74-23.8,5.43-.94,34.95-25.27,34.4-26.62-.6-53.13-3.32-79.62-5.87-22.93-2.21-45.9-4.33-68.94-4.86l-3.83,48.46-147.43,106.65s-95.02,80.19-39.07,129.6c42,37.09,163.77,15.01,163.77,15.01,1.12,2.06,29.63-5.91,46.35-8.23,20.74-4.63,152.19-16.33,164.28-18.72,59.72-11.78,109.9-46.4,115.33-108.48,2.97-33.97-1.08-76.9-16.94-107.24-21.38-40.91-43.09-67.6-66.31-86.7Z"/>
    <path class="cls-5" d="M917.39,988.62c-6.59-5-13.17-10-19.76-15-4.3-3.26-8.59-6.52-12.89-9.78-2.79-2.11-5.73-4.15-8.21-6.62-2.81-2.8-4.7-6.17-7.06-9.3-1.54-2.04-3.09-4.09-4.63-6.13-.47-.63-2.25.07-1.71.79,1.34,1.78,2.68,3.55,4.02,5.33,1.84,2.44,3.35,5.1,5.28,7.46,2.73,3.35,6.11,5.89,9.51,8.47,8.73,6.63,17.46,13.26,26.19,19.88,2.6,1.97,5.2,3.95,7.8,5.92.61.46,2.26-.41,1.45-1.03h0Z"/>
    <path class="cls-10" d="M688.58,962.23s38.07,42.66,23.23,75.04c-2.74,5.98-109.66,6.44-109.66,6.44,0,0-101.71,13.87-141.02-24.86-68.06-67.05-55.37-120.91,22.64-179.48,79.74-59.87,0,0,0,0l157.97,135.55"/>
    <path class="cls-4" d="M694.4,968c-15.85.59-31.65,3.31-47.27,5.91-17.02,2.84-33.99,6.03-51.06,8.54-7.13,1.05-14.32,2.07-21.54,2.32-.57.02-1.62.19-1.92.77s.24.78.76.76c6.31-.22,12.61-1.02,18.86-1.89,8.08-1.13,16.13-2.47,24.17-3.84,17.39-2.96,34.74-6.16,52.21-8.59,8.17-1.13,16.38-2.15,24.63-2.46.57-.02,1.62-.19,1.92-.77s-.24-.78-.76-.76h0Z"/>
    <path class="cls-22" d="M677.14,327.58c.68.86,7.88,5.76,11.64,6.1-2.01,8.71,2.95,32.27-3.16,39.09-11.56,12.9-39.03,50.49-56.04,53.44-15.13,2.63-54.18-7.06-42.59-47.96,2.61-10.96,4.92-13.11,4.78-14.89-.4-5.37-16.39-35.45-16.39-35.45l77.19-62.85s4.28,36.76,24.58,62.53Z"/>
    <path class="cls-5" d="M589.69,358.67s5.62-7.51,11.3-10.89c5.69-3.38,16.31-5.84,38.06-38.05-.19.28.17,1.89.18,2.25.03,2.11-.26,4.23-.72,6.29-1.8,8.05-6.39,15.29-11.76,21.44-4.06,4.64-8.61,8.85-13.52,12.58-4.56,3.46-9.28,6.63-14.66,8.58-1.57.57-3.17,1.08-4.8,1.46-.41.1-2.39,1.2-2.49.85l-1.59-4.51Z"/>
    <path class="cls-22" d="M504.56,183.45c-.03.24-.1.5-.18.75.1-.14.21-.28.3-.42l-.12-.33ZM490.05,192.9l.1.28c.18-.29.35-.59.5-.87-.12-.33-.6.6-.6.6ZM651.34,274.55l-.05-6.19c10.65,7.62,20.33-4.27,16.4-18.76,1.57-8.39-.91-33.82-9.16-39.27l-1.06-.84c-5.17-1.85-12.98-.86-14.28,5.61-.23,2.71,1.58,5.42,1.35,8.13-.11,3.04-2.25,9.45-3.2,12.42,0,0-6.77-12.89-8.71-19.3-1.94-6.41-12.93-23-27.36-27.83,0,0-7.76-22.27-15.22-27.03h-2.04c-1.08.4-1.68.99-2.76,1.39-.12-.33.12-.79-.12-1.45-1.56,1.32-3.12,1.52-4.56,2.05.24-.46.84-1.06.72-1.39-1.32.86-2.88,1.06-4.32,1.59.24-.46.72-1.39.6-1.72-1.56,1.32-2.88,1.06-4.32,1.58.24-.47.36-1.26.24-1.59-1.2,1.19-2.76,1.39-4.2,1.92.24-.46.36-1.26.6-1.72-1.56,1.32-2.88,1.06-4.32,1.58-.36.13.48-.92.36-1.25-.96.73-2.4,1.26-3.48,1.65-.12-.33.48-.93.36-1.26-1.92,1.45-3.24,1.19-4.68,1.72l.59-1.72c-1.07,1.52-2.52,2.05-4.07,2.24.24-.46.71-1.39.59-1.72-1.44,1.65-3.47,2.77-5.52,2.77.36-.13.72-1.39.6-1.72-1.32,1.98-2.87,2.18-4.68,2.84.24-.46.36-1.26.83-2.18-1.67,2.12-3.95,3.7-6.48,3.5.36-.13.36-1.26.24-1.59-.96,1.85,1.14-.79-.78-.47,0,0-3.66,2.84-3.78,2.51-1.08,1.52,1.74-7-.06-6.34.12-.79-10.11,4.4-9.63,3.48-1.32,1.98-1.2,1.17-3.48,1.63,0,0-6.03,6.7-5.79,6.24-1.19,2.31-2.52,1.22-4.79,1.68.24-.46,1.81.91,2.05.45-.96,1.85-1.09.03-2.89.68-.12-.33-6.68,0-6.8-.32-1.44,1.65-.8,1.58-2.96,2.37-.12-.33-.02,4.14.22,3.67-.96,1.85-1.29.74-3.21,1.07l-1.33,1.88c-1.19,2.31,1.01.69-1.27,1.15-.08-.23,8.5-1.95,8.68-2.5-1.04,1.4-2.36,2.84-3.89,3.75-.12-.33,0-1.12-.12-1.45-.96,1.85-2.75,3.63-5.03,4.1.36-.13.48-.92.36-1.26-1.19,2.31-2.99,4.1-5.52,3.9-1.01,1.55-2.47,3.21-4.19,4.16-.36-.99.23-1.59.23-1.59l-1.44.53c-.83,3.3-1.78,6.28-1.29,9.85,0,0-4.68,22.28.17,34.37,4.85,12.09,13.73,33.4,16.03,38.56,1.99,4.46,3.17,10.84,3.87,15.9,3.19,22.91,14.2,29.92,25.66,40.72,5.12,4.83,10.95,8.6,16.41,12.95,6.02,4.81,11.71,9.84,18.87,12.95,7.39,3.21,17.21.71,25.34-1.85,22.69-7.13,42.16-30.95,51.14-50.53"/>
    <path class="cls-9" d="M656.34,262.18c3.59-.92,6.28,1.28,7.74,4.08,2.63,5.03-1.4,11.16-6.99,10.15-.21-.04-.43-.09-.65-.15,0,0,7.9,4.55,11.94-1.19,4.04-5.74-.57-11.46-3.04-12.58-5.48-2.49-9.01-.31-9.01-.31Z"/>
    <path d="M626.32,211.21l13.7,31.44,6.1-18.33s-14.12-9.42-19.8-13.11Z"/>
    <path class="cls-8" d="M648.15,239.06c1.1-.39,2.62-.83,3.23.48.47,1.01.34,2.29.3,3.36-.08,2.3-.47,5.48,1.6,7.07,2.95,2.27,5.11-1.69,5.71-4.13.84-3.39.52-6.9-.92-10.06s-3.63-6.87-7.36-7.11c-.47-.03-1.23.65-.44.7,3.25.21,5.34,3.94,6.56,6.55,1.35,2.9,1.76,5.95,1.19,9.14-.18,1.03-.47,2.06-.93,2.99-.29.58-.82,1.66-1.53,1.85-1.08.3-2.1-1.28-2.39-2.11-.8-2.31-.13-4.83-.33-7.2-.08-.92-.32-1.93-1.2-2.4-1.2-.64-2.8-.1-3.97.32-.76.27-.07.72.47.52h0Z"/>
    <g>
      <path d="M551.41,301.76c2.99.48,6.66-1.23,8.55-3.79.42-.57,2.4-.89,1.81-.09-2.5,3.38-7.86,5.57-11.72,4.95-.38-.06-.42-.34-.08-.63.36-.3,1.03-.51,1.44-.44"/>
      <path d="M562.57,296.72c1.36-1.45,3.07-2.57,4.88-3.41.27-.12.66-.14.93-.02.21.09.32.28.16.48-.67.84-1.69,1.46-2.7,1.81-.32.11-.77.18-1.06-.05-.26-.21-.02-.49.23-.58.84-.29,1.63-.77,2.18-1.47.37.15.73.3,1.09.45-1.62.75-3.14,1.77-4.35,3.06-.24.26-.7.32-1.03.25-.24-.05-.57-.27-.32-.53"/>
      <path d="M570.08,294.26c2.16-.86,4.36-2.8,4.79-4.94.65-3.23-2.4-6.86-5.75-7.55-.36-.08-.29-.37-.02-.55.36-.23.88-.25,1.26-.17,2.92.6,5.72,3.47,6.28,6.08.52,2.43-.98,4.81-3.34,6.44-.7.48-1.48.92-2.29,1.24-.33.13-.96.24-1.23.02-.27-.22,0-.45.3-.57"/>
      <path d="M546.97,302.04c.02-.31-.26-.41-.44-.34-.58.23-1.25.28-1.91.03-.1.32-.2.64-.3.96,1.23-.29,2.57-.32,3.9.05.27.07.53-.13.66-.37.09-.18.14-.52-.13-.6"/>
      <path d="M548.75,301.77c-1.49-.41-2.98-.37-4.36-.04-.2.05-.41.25-.48.49-.06.19,0,.4.19.47"/>
      <path d="M542.55,304.01c-1.44.46-3.49.06-4.83-1.43-2.03-2.25-2.2-5.75-1.04-8.08.13-.25-.06-.45-.29-.45-.29,0-.53.27-.66.53-1,2.03-1.13,4.79.02,7.18,1.07,2.23,3.02,3.35,4.97,3.4.58.01,1.17-.05,1.71-.22.22-.07.57-.32.57-.63,0-.32-.24-.37-.44-.3"/>
    </g>
    <path d="M509.11,265.75c-2.38-.3-4.65,1.49-5.53,3.12-.21.38-.49,1.43-.39,2.89.12,1.86,1.49,3.52,2.97,4.29,1.97,1.03,4.42.43,5.91-1.07,2.02-2.04,1.74-5.26.35-7.18-.26-.35-1.38-1.81-3.3-2.05"/>
    <path d="M531.24,264.49s-12.54-4.09-17.69-2.76c-7.52,1.94-14.99,9.24-16.24,13.79,0,0,9.63-10.36,14.97-11.57,5.11-1.16,18.96.54,18.96.54Z"/>
    <path d="M569.29,243.6c1.62-1.77,4.94-2.66,6.67-1.98.41.16,1.52.63,2.39,1.81,1.11,1.5,1.14,3.65.51,5.19-.84,2.06-3.09,3.19-5.2,3.01-2.86-.24-4.73-2.89-4.91-5.25-.03-.43-.7-1.04.6-2.47"/>
    <path d="M561.88,252.03s8.43-11.02,13.77-13.16c7.8-3.12,18.91-1.96,22.84.88,0,0-14.91-2.25-20.34.1-5.2,2.24-16.27,12.18-16.27,12.18Z"/>
    <path d="M492.7,262.34c-.26-.06-.54-.05-.83,0-.26-.38-.51-.76-.75-1.15-.14-.27-.25-.55-.34-.83-.01-.08-.02-.15-.02-.23.87-3.09,2.35-5.19,2.5-5.41,0,0,2.05-2.97,6.05-5.42,2.76-1.69,10.91-4.82,22.36-6.91.46,1.5.92,3,1.38,4.51.35,1.15.69,2.29,1.04,3.44-4.12.22-7.59.6-10.19.96-5.5.74-8.3,1.15-11.18,2.59-3.02,1.52-5.36,3.55-6.27,4.34-1.27,1.12-2.14,1.84-3.06,3.07-.27.36-.46.7-.68,1.05Z"/>
    <path d="M550.06,229.39c.68,1.41,1.37,2.82,2.06,4.24.53,1.08,1.05,2.15,1.58,3.22,3.87-2.97,7.27-5.32,9.87-7.04,5.49-3.64,8.31-5.48,11.95-6.63,3.83-1.21,7.42-1.55,8.81-1.67,1.96-.17,3.27-.31,4.99-.14,3.74.37,5.87,1.79,6.26,1.38.36-.36-1.19-1.76-1.35-1.91-3.91-3.51-9.2-4.17-9.61-4.23,0,0-4.01-.55-9.41.74-3.72.89-13.33,4.84-25.16,12.03"/>
    <path class="cls-17" d="M565.33,313.17c11.36-4.47,27.36-16.19,27.36-16.19,0,0,10.27,30.64-16.06,41.02-26.33,10.37-35.14-15.94-35.14-15.94,0,0,12.48-4.41,23.84-8.88Z"/>
    <path class="cls-2" d="M565.22,313.22c5.4-2.13,24.25-13.06,24.25-13.06,0,0,2.25,21.28-17.27,28.98-21.17,8.34-26.93-7.9-26.93-7.9l19.95-8.02Z"/>
    <path class="cls-14" d="M565.32,314.15c5.4-2.13,21.45-9.55,21.45-9.55,0,0-3.49,8.48-19.69,14.86-16.2,6.38-23.69,2.44-23.69,2.44l21.92-7.75Z"/>
    <path class="cls-17" d="M539.69,320.86c.52-.37,2.29-1.44,2.29-1.44,4.31-2.16,4.47-3.48,7.61-5.01,5.35-2.62,9.76-1.74,12.16-2.68,2.4-.95,5.02-4.6,10.72-6.33,3.34-1.02,7.98-2.46,12.29-4.62,6.31-3.15,7.3-3.72,7.93-3.8.88-.11,4.09,7.47-26.12,19.37-30.21,11.9-27.6,5.03-26.89,4.51Z"/>
    <path class="cls-18" d="M595.61,527.14c2.56-20.72-9.29-47.08-7.77-67.91.97-13.39-21.17-16.37-23.03-29.67-1.63-11.59-5.1-25.21-11.75-35.17-15.42,15.14-30.03,16.69-43.36,61.58-15.65,52.7-34.5,63.86-36.96,76.51-2.31,11.88,63.3,54.51,97.02,47.05.65-9.69,24.67-42.75,25.86-52.38Z"/>
    <path class="cls-18" d="M835.34,620.09l-7.87-103.03-5.11-76.76c-5.88-54.23-41.28-83.32-75.21-91.04l-58.88-17.82s-14.85,70.41-66.63,75.12c-.89.08-.15,13.19-1.01,13.24-1.02.06-3.61-12.95-4.57-12.93-44.56.9-24.06-42.6-24.06-42.6,0,0-47.85,32.85-57.59,45.12-1.25,1.57-2.49,3.35-3.75,5.32,8.24,8.72,12.79,20.7,16.16,32,4.03,13.47,6.49,27.54,7.58,41.56,1.55,19.92-17.13,44.24-17.34,64.2-.21,20.47-1.86,32.55,4.06,52.4.32,1.08,17.76,7.28,17.3,8,3.29,8.92,21.76-2.95,27.03,1.31,14.6,11.79,2.35,28.15,10.67,38.49,16.45,20.45,6.62,61.43,4.94,96.83,0,0,97.1,3.47,158.1-5.79,61.01-9.25,133.34-48.42,133.34-48.42-35.09-48.53-57.21-75.19-57.21-75.19Z"/>
    <path class="cls-19" d="M536.34,498.73c3.64,5.57,4.06,12.49,2.94,18.9-.75,4.28-1.87,8.47-2.54,12.77-1.62,10.42-2.57,21.04-2.44,31.59.06,5,.3,10.13,1.55,15l1.95-1.16c-5.54-1.64-10.95-3.88-16.21-6.25-11.47-5.17-22.5-11.62-32.08-19.81-6.03-5.16-11.44-11.08-15.65-17.82l.05.68c1.94-4.38,3.88-8.75,5.81-13.13l-2.42.19c.12,1.06.59,2.12,1.02,3.08,1.41,3.08,3.46,5.84,5.71,8.35,4.16,4.63,9.08,8.56,14.21,12.07,6.89,4.71,14.18,8.67,21.93,11.77,4.79,1.91,9.69,3.65,14.66,5.02.59.16,1.35.03,1.75-.47.33-.42.26-1.03-.32-1.19-11.75-3.24-23.04-8.09-33.3-14.69-5.54-3.57-10.92-7.55-15.49-12.33-2.46-2.57-4.78-5.41-6.39-8.61-.56-1.11-1.17-2.4-1.31-3.66-.12-1.08-2.13-.47-2.42.19-.89,2-1.77,4-2.66,6l-1.99,4.5c-.36.81-.84,1.65-1.11,2.5-.18.57.02.86.35,1.37.65,1.02,1.33,2.03,2.04,3.01,1.32,1.83,2.72,3.6,4.2,5.31,2.93,3.37,6.14,6.49,9.54,9.38,11.62,9.9,25.36,17.34,39.51,22.94,3,1.19,6.04,2.34,9.13,3.25.67.2,2.2-.19,1.95-1.16-1.13-4.4-1.41-9.01-1.51-13.54-.11-5.39.12-10.79.54-16.17s1-10.57,1.79-15.82c.63-4.17,1.6-8.23,2.44-12.35,1.42-7.02,1.02-14.66-2.99-20.8-.61-.93-2.97.01-2.27,1.09h0Z"/>
    <path class="cls-19" d="M631.81,413.87c8.94-1.69,17.31-5.99,24.69-11.21s13.64-11.07,18.69-18.17c9.3-13.06,17.58-27.14,23.56-42.05.99-2.47,1.98-4.97,2.7-7.53.09-.33-.25-.54-.51-.62-3.97-1.2-7.95-2.41-11.92-3.61-.62-.19-1.86.12-1.99.88-1.27,6.94-3.6,13.8-6.21,20.33-5.53,13.79-13.41,26.94-24.37,37.09-7.19,6.66-15.71,11.82-25.06,14.82-.41.13-1.2.49-1.05,1.05s1.04.51,1.44.39c16.74-5.37,30.27-16.97,39.99-31.41,7.18-10.67,12.43-22.69,15.94-35.04.7-2.47,1.37-4.96,1.83-7.49l-1.99.88c3.97,1.2,7.95,2.41,11.92,3.61l-.51-.62c-2.06,7.33-5.54,14.41-9,21.16-4.09,7.96-8.7,15.65-13.69,23.07-2.54,3.78-5.14,7.49-8.23,10.85s-6.31,6.31-9.82,9.05c-7.84,6.12-16.92,11.26-26.79,13.12-.42.08-1.19.52-1.05,1.05.15.58,1.03.46,1.44.39h0Z"/>
    <path class="cls-19" d="M614.53,407.05c-5.08.42-10.45.18-15.1-2.12-3.09-1.53-5.51-3.98-7.5-6.74-3.43-4.76-4.92-10.4-3.93-16.23.44-2.59,1.22-5.15,1.85-7.7.7-2.82,1.4-5.64,2.1-8.46.2-.82-1.72-.3-1.99-.12-3.02,1.99-6.04,3.98-9.06,5.97-.72.48-.79.91-1.01,1.7-.43,1.59-.8,3.19-1.11,4.8-1.01,5.14-1.55,10.44-1.14,15.68.43,5.52,2.06,11.29,6.19,15.2,6.43,6.1,15.12,9.28,23.9,7.47.32-.07,1.22-.41,1.1-.87s-1.1-.27-1.39-.21c-6.14,1.27-12.35-.73-17.42-4.22-3.84-2.64-6.79-5.82-8.36-10.27-2.61-7.43-1.88-15.86-.35-23.45.38-1.87.8-3.75,1.37-5.58l-.49.48c3.09-2.04,6.18-4.08,9.27-6.11l-1.99-.12c-1.3,5.23-2.87,10.45-3.88,15.74-1.13,5.93.21,11.77,3.64,16.69,2.06,2.95,4.53,5.52,7.73,7.22,5.22,2.77,11.42,2.93,17.18,2.46,1.15-.09,2.12-1.36.38-1.22h0Z"/>
    <path class="cls-19" d="M630.49,404.81c-.1,7.16-.19,14.32-.29,21.49-.15,11.42-.31,22.84-.46,34.26-.04,2.63-.07,5.25-.11,7.88l1.07-.79c-2.9.63-5.81,1.26-8.71,1.89l1.42.49c-.03-7.21-.05-14.41-.08-21.62-.04-11.47-.09-22.94-.13-34.41,0-2.61-.02-5.22-.03-7.83l-1.41.86c3.27-.55,6.54-1.1,9.81-1.65.41-.07,1.38-.31,1.41-.86s-.67-.63-1.08-.56c-3.27.55-6.54,1.1-9.81,1.65-.37.06-1.41.32-1.41.86.03,7.21.05,14.41.08,21.62.04,11.47.09,22.94.13,34.41,0,2.61.02,5.22.03,7.83,0,.71.95.6,1.42.49,2.9-.63,5.81-1.26,8.71-1.89.3-.06,1.07-.38,1.07-.79.1-7.16.19-14.32.29-21.49.15-11.42.31-22.84.46-34.26.04-2.63.07-5.25.11-7.88.01-1.05-2.48-.55-2.49.3Z"/>
    <path class="cls-19" d="M604.59,408.44c1.85,7.02,3.69,14.04,5.54,21.06,2.92,11.1,5.84,22.2,8.76,33.3.68,2.57,1.35,5.14,2.03,7.7.22.83,2.49.28,2.49-.48-.03-9.17-.07-18.33-.1-27.5-.01-3.2.23-6.53-.04-9.72-.1-1.19-.56-2.41-.85-3.56-.66-2.65-1.33-5.29-1.99-7.94-1.17-4.66-2.33-9.31-3.5-13.97-.07-.3-.51-.4-.76-.39-3.28.15-6.57.29-9.85.44-.51.02-1.38.15-1.64.69-.23.49.2.78.68.75,3.28-.15,6.57-.29,9.85-.44l-.76-.39c2.09,8.35,4.07,16.74,6.28,25.07.11.4.04-.18.05.29.02.5,0,1.01,0,1.51l.02,6.13c.02,5.89.04,11.78.07,17.67.01,3.89.03,7.77.04,11.66l2.49-.48c-1.85-7.02-3.69-14.04-5.54-21.06-2.92-11.1-5.84-22.2-8.76-33.3-.68-2.57-1.35-5.14-2.03-7.7-.23-.88-2.72-.23-2.49.67Z"/>
    <path class="cls-11" d="M483.6,219.41c1.65-22.1,21.98-40.85,64.79-62.73,42.81-21.88,83.85-18.33,83.85-18.33-44.37-56.55-108.7-30.58-123.22-25.25-14.52,5.32-68.71,89.35-24.71,133.58l3.78,3.38s-4.79-26.61-4.49-30.63Z"/>
    <path class="cls-11" d="M638.85,120.79s-9.36-42.18-43.67-44.92c-45.83-3.66-102.25,7.99-106.28,56.34l149.95-11.41Z"/>
    <path class="cls-7" d="M670.58,219.84c2.05-4.46-2.23-13.45-.79-18.14,7.53-24.6-4.03-41.75-13.7-50.9-4.21-3.99-3.93-13.79-5.73-17.98-9.43-21.96-12.25-21.71-54-32.5-33.97-8.78-63.06,2.83-79.75,9.98-26.72,11.44-38.1,17.55-40.55,40.36-.32,2.98,1.12,3.48,1.19,6.9.1,4.83-5.81,8.8-4.94,14.65,0,0,40.12,1.25,76.05,6.47,35.92,5.21,114.94,49.84,119.65,69.44.15.62.3-23.33,2.57-28.27Z"/>
    <path class="cls-11" d="M670.77,180.07s-92.07-55.86-148.49-35.8c0,0,85.05-32.67,136,7.57l1.52,1.79c4,4.73,7.13,10.13,9.25,15.95l1.72,10.49Z"/>
    <path d="M309.24,329.27c-4.57,2.22-7.96,6.37-8.5,11.53-.24,2.29.03,4.66,1.05,6.75.51,1.03,1.58,2.19,1.47,3.4-.03.37-.21.62-.3.71-.22.22-.95.56-1.36.78-2.36,1.26-4.36,2.94-4.28,5.83s2.28,5.24,3.05,8.05-.86,4.87-2.6,6.78c-1.94,2.13-4.26,4.36-4.72,7.36-.2,1.33.04,2.51.66,3.68.29.56.71,1.16.73,1.82.03.7-.38,1.41-.48,2.1-.53,3.37,3.33,3.83,5.78,3.19,3.01-.78,5.02-2.86,4.66-6.08-.29-2.59-2.73-5.76-.87-8.21,1.19-1.56,3.16-2.43,4.53-3.83,1.77-1.81,2.44-4,1.64-6.44-.7-2.11-2.4-4.16-2.47-6.45s2.71-3.41,4.02-5.04c1.97-2.44,1.04-5.26.23-7.96-.39-1.31-.8-2.7-.44-4.06.4-1.54,1.72-2.74,2.52-4.08,3.49-5.86,2.53-13.01,1.49-19.42-.31-1.92-6.14-.56-5.8,1.55.86,5.26,1.72,10.93-.25,16.05-.95,2.47-3.35,4.33-3.83,6.97-.44,2.41.68,4.66,1.23,6.94.23.95.4,1.94.07,2.88-.37,1.07-1.38,1.69-2.22,2.38-1.78,1.46-3.09,3.22-2.78,5.62.45,3.53,4.93,7.58,1.32,10.73-1.56,1.36-3.4,2.36-4.65,4.05-1.74,2.35-1.01,4.92-.15,7.46.41,1.21.93,2.7.48,3.97-.31.87-.18.33.64.1-.04.01,1.17-.26,1.05-.03-.08.15-.36-.35-.36-.3-.04-1.07.4-2.01.44-3.09.06-1.48-1.02-2.45-1.34-3.82-.58-2.51,1.39-4.88,2.98-6.58,1.74-1.85,3.68-3.82,4.33-6.35.7-2.73-.66-5.04-1.87-7.37-.84-1.61-2.16-4.78-.33-6.09,1.73-1.24,4.6-1.98,5.04-4.55.26-1.52-.65-2.67-1.32-3.93-.54-1.03-.91-2.15-1.11-3.3-.69-4.12,1.25-9.62,4.89-11.38.76-.37,2.36-1.26,1.56-2.29-.73-.94-2.99-.45-3.83-.04h0Z"/>
    <path d="M324.65,333.03c-4.39,2.13-7.41,5.97-7.98,10.89-.27,2.31.09,4.71,1.18,6.78.56,1.06,1.6,2.28,1.31,3.56-.22.98-1.12,1.39-1.92,1.81-2.23,1.19-4.19,2.63-4,5.43s2.3,5,3.04,7.69c1.62,5.92-6.19,8.89-7.25,14.17-.31,1.55.08,2.64.78,3.99.3.58.57,1.15.54,1.83-.04.73-.39,1.42-.49,2.14-.42,3.14,3.73,2.62,5.61,2.13,1.4-.36,3.05-.93,4.02-2.07.87-1.02.97-2.49.75-3.76-.46-2.68-2.55-5.54-.81-8.16,1.18-1.78,3.35-2.69,4.82-4.21,1.57-1.62,2.06-3.54,1.35-5.71s-2.39-4.22-2.48-6.59c-.1-2.56,2.49-3.6,3.97-5.24,2.04-2.28,1.07-5.02.29-7.61-.4-1.33-.83-2.83-.49-4.23.38-1.59,1.66-2.82,2.51-4.16,3.59-5.67,2.56-12.91,1.55-19.17-.16-.98-6.01.25-5.8,1.55.86,5.28,1.78,11.09-.2,16.23-.48,1.26-1.15,2.4-1.94,3.48s-1.6,2.14-1.89,3.49c-.5,2.33.64,4.55,1.18,6.77.25,1.04.43,2.18.06,3.21-.41,1.14-1.32,1.84-2.23,2.57-1.68,1.36-3.11,2.93-2.74,5.24.62,3.91,5.04,7.8,1.02,11.32-1.5,1.31-3.31,2.28-4.51,3.9-1.7,2.29-.64,4.84.14,7.25.37,1.17.74,2.54.39,3.76-.09.31-.25.56-.39.84l-.07.11c-.83.76.06.56,2.66-.6-.34-.27-.66-.23-.89-.73-.47-1.05.36-2.24.4-3.31.06-1.4-1.11-2.46-1.37-3.8-.51-2.67,1.47-5.18,3.17-6.99s3.5-3.55,4.13-5.93c.73-2.76-.72-5.01-1.92-7.39-.97-1.92-2.04-5.08.08-6.66,1.62-1.21,4.32-1.76,4.71-4.08.25-1.48-.83-2.68-1.44-3.92-.51-1.05-.85-2.17-1.01-3.33-.6-4.28,1.3-9.95,5.44-11.95.52-.25,1.92-.96.76-1.34-1.09-.36-3.07.32-4.04.79h0Z"/>
    <path d="M340.92,333.92c-4.57,2.22-7.97,6.35-8.5,11.51-.24,2.29.03,4.66,1.05,6.74.51,1.03,1.58,2.2,1.47,3.41-.09.95-.89,1.09-1.66,1.51-2.35,1.26-4.36,2.92-4.29,5.81.08,3.03,2.28,5.24,3.05,8.05s-.93,4.97-2.71,6.92c-1.91,2.08-4.16,4.29-4.6,7.23-.2,1.33.04,2.5.65,3.67.3.56.7,1.16.73,1.82.03.71-.37,1.41-.48,2.1-.53,3.37,3.34,3.79,5.77,3.15,3-.78,5.03-2.83,4.66-6.05-.29-2.62-2.71-5.73-.87-8.22,1.17-1.58,3.16-2.44,4.53-3.84,1.77-1.81,2.45-3.98,1.64-6.42-.7-2.12-2.4-4.16-2.47-6.45s2.7-3.42,4.01-5.05c1.97-2.44,1.04-5.25.23-7.94-.39-1.31-.8-2.7-.45-4.06.4-1.55,1.71-2.74,2.52-4.09,3.49-5.86,2.54-13,1.49-19.41-.31-1.88-6.13-.53-5.8,1.55.86,5.26,1.73,10.94-.25,16.06-.95,2.46-3.35,4.34-3.83,6.97-.44,2.41.67,4.65,1.23,6.93.23.95.4,1.94.07,2.89-.37,1.08-1.37,1.7-2.21,2.39-1.78,1.45-3.1,3.2-2.79,5.6.45,3.53,4.94,7.59,1.33,10.75-1.55,1.36-3.4,2.36-4.65,4.04-1.74,2.35-1.02,4.9-.15,7.44.42,1.22.93,2.7.48,3.98-.31.88-.18.34.65.12.07-.02,1.16-.26,1.04-.05.02-.04-.27-.1-.28-.18-.1-.62-.14-.94.03-1.6.14-.55.3-1.06.32-1.63.06-1.48-1.02-2.44-1.33-3.81-.58-2.52,1.38-4.89,2.98-6.6,1.73-1.85,3.69-3.8,4.33-6.34.7-2.73-.66-5.04-1.87-7.37-.86-1.65-2.13-4.75-.34-6.11,1.7-1.29,4.6-1.95,5.04-4.54.26-1.51-.65-2.67-1.32-3.92-.54-1.03-.91-2.15-1.11-3.3-.69-4.11,1.24-9.64,4.88-11.4.74-.36,2.37-1.23,1.56-2.26-.73-.92-3-.42-3.83-.02h0Z"/>
    <g>
      <path d="M305.16,333.07c3.55,9.68,15.21,20.01,22.73,27.11,7.7,7.26,11.29,9.07,21.35,10.77,19.61,3.3,40.25,1.79,58.62-6.45,18.96-8.5,33.95-23.88,42.45-43.19,5.94-13.49,4.43-27.46,5.21-41.62-.14-1.49-1.45-10.54-1.6-12.03-10.13-24.47-8.88-30.15-34.83-38.38-15.92-5.23-28.41-17.04-55.02-10.53-5.74,1.4-12.42,6.88-19.87,9.45-11.22,3.87-23.87,11.42-29.47,19.85-8.18,12.33-10.74,30.11-13.28,46.92-1.92,12.74-.81,25.79,3.61,37.88.03.08.06.15.08.23Z"/>
      <path d="M368.46,372.66c-6.29,0-12.72-.54-19.22-1.64-10.08-1.69-13.68-3.51-21.39-10.79-.63-.59-1.28-1.2-1.96-1.84-7.4-6.93-17.53-16.41-20.8-25.3h0s-.08-.23-.08-.23c-4.32-11.83-5.57-24.94-3.62-37.93l.14-.92c2.51-16.67,5.11-33.91,13.15-46.03,2.63-3.95,7-7.98,12.65-11.66,5.09-3.31,11.07-6.23,16.86-8.22,3.61-1.24,7-3.15,10.27-4.99,3.42-1.92,6.64-3.73,9.61-4.46,20.05-4.91,32.03.54,43.62,5.82,3.86,1.76,7.51,3.42,11.45,4.71,22.54,7.15,24.58,12.35,31.35,29.61,1.02,2.61,2.18,5.56,3.53,8.82v.02c.08.74.45,3.41.8,6,.36,2.6.73,5.29.8,6.03-.18,3.34-.24,6.7-.3,9.95-.19,10.99-.37,21.38-4.92,31.71-8.56,19.43-23.65,34.79-42.49,43.23-11.97,5.37-25.37,8.09-39.45,8.09ZM305.24,333.04c3.25,8.85,13.37,18.32,20.75,25.23.68.63,1.33,1.25,1.96,1.84,7.69,7.25,11.27,9.06,21.31,10.74,21.03,3.54,41.28,1.31,58.58-6.44,18.8-8.43,33.86-23.75,42.41-43.14,4.54-10.3,4.72-20.67,4.9-31.65.06-3.25.11-6.62.3-9.94-.07-.73-.44-3.42-.8-6.01-.35-2.57-.72-5.23-.8-5.99-1.35-3.25-2.51-6.21-3.53-8.81-6.75-17.2-8.78-22.39-31.24-29.51-3.95-1.3-7.6-2.96-11.47-4.72-11.56-5.26-23.51-10.7-43.5-5.81-2.94.72-6.16,2.53-9.56,4.44-3.28,1.84-6.68,3.75-10.3,5-10.5,3.62-23.67,11.15-29.43,19.82-8.02,12.09-10.62,29.31-13.13,45.97l-.14.92c-1.95,12.96-.71,26.04,3.61,37.84l.08.23Z"/>
    </g>
    <path class="cls-22" d="M448.84,356.53c2.15-8.49,2.24-22.46.78-27.15.67-3.98,1.42-8.6,2.29-14.17.25-1.62.45-3.18.64-4.72.02-.81.11-1.6.27-2.39,2.82-27.38-4.25-42.89-4.25-42.89-9.07-19.65-27.89-33.01-49.43-35.08-25.29-2.96-50.12,9.18-64.08,22.93-6.93,6.8-11.1,15.92-11.71,25.62-.53,8.28,5.59,18.37,6.6,27.58-8.75-1.62-20.27-.67-19.27,15.96,1.38,22.94,17.77,27.15,25.89,23.4,4.14,10.95,3.96,17.08,3.67,23.33-.3,6.48-3.66,18.34-5.23,20.86l-17.09,4.37c14.84,33.18,71.27,62.29,97.64,17.99l-12.52-8.41.7-6.28c.6.04-.58-.05,9.11-1.74,29.34-6.78,33.49-29.19,36.02-39.19Z"/>
    <path class="cls-23" d="M403.34,401.95l.53-4.75s-29.29-.75-46.02-18.03c0,0,11.09,15.64,25.32,19.68,14.23,4.03,20.16,3.1,20.16,3.1Z"/>
    <path class="cls-12" d="M278.59,407.01s15.63-8.63,27.19-10.89c16.42-3.21,29.86-7.65,29.86-7.65,0,0,12.56,35.62,42.7,37.92,37.6,2.87,26.07-22.84,26.07-22.84,0,0,30.55,14.87,43.3,28.46,10.5,11.19,20.77,40.98-.15,63.64-20.92,22.66-155.57,8.21-155.57,8.21,0,0-13.65-36.4-16.36-55.73s2.96-41.11,2.96-41.11Z"/>
    <path class="cls-22" d="M407.14,696.05c0,.33-.07.66-.24.95-1.44,2.47-8.5,12.65-9.8,22.95-1.17,9.27-2.88,22.73-3.47,27.4-.14,1.1.75,2.1,1.9,2.07,1.59-.05,3.76-.88,5.39-4.43,1.58-3.92,2.79-7.97,3.63-12.11.3-1.45,2.12-1.98,3.19-.92h0c.42.42.62,1.02.51,1.6l-2.28,12.9c-.12.7-.65,1.26-1.35,1.44-2.59.68-8.84,2.69-10.98,6.54-.64,1.15.22,2.58,1.57,2.67l8.6.59c.12,0,.23,0,.35,0l8.65-.96c.34-.04.67-.17.94-.37l8.41-6.37c.26-.2.47-.46.59-.77l8.96-22.14c.81-2.01,1.11-4.2.82-6.35-.85-6.16-1.37-12.36-1.55-18.57-.05-12.13.05-19.93.11-23.54.02-1.19-1.11-2.09-2.3-1.83l-20.54,4.43c-.88.19-1.49.95-1.46,1.83l.37,13Z"/>
    <path class="cls-12" d="M436.88,508.87s29.87-8.53,41.43-54.78c0,0-26.35-36.09-52.09-40.88-25.74-4.8-22.35,24.87-22.35,24.87,0,0-18.79,20.83,33.01,70.79Z"/>
    <path class="cls-13" d="M446.37,603.45c.5-11.7.98-23.57,1.44-35.67-.02,0-.04.01-.06.02.32-2.09.56-4.37.54-7.05.96-12.65-.72-41.52.15-54.53-3.17-17.24-5.26-53.87-13.93-82.39-.65-2.14-1.53-4.19-2.67-6.11-.99-1.67-2.13-3.63-2.23-3.69-2.04-1.3-10.64-3.12-16.56-5.98,2.37,5.72,11.31,22.77,8.6,39.57-1.13,7.01-2.35,13.17-9.03,14.9-20.05,5.18-46.61,2.59-55.57-18.68-6.13-14.54-14.62-27.44-20.89-41.78-2.94-6.73-3.23-5.87-7.15-12.23-6.8,1.17-23.65,6.82-30.84,8.56,11.05,4.44,12.67,13.43,15.25,22.98,3.4,12.6,8.38,34.74,3.07,49.03-2.89,7.79-3.53,13.15-8.73,19.69-2.53,3.18-5.74,5.76-9.33,7.66-7.26,3.83-13.94,5.93-22.35,6-4.12.04-3.59-.77-5.27,2.53-.22.42-.4.87-.54,1.32-4.55,14.72-6.79,30.09-9.76,45.19-2.23,8.37-5.33,20.12-8.97,33.98,61.65,22.96,131.37,39.9,194.82,16.69Z"/>
    <path class="cls-13" d="M446.97,601.85c-54.71,26.06-116.62,6.29-171.44-8.76-6.67-1.83-6.16-22.97-13.04-23.72-4.21-.46-5.14,2.73-8.01,6.19-2.21,2.66-7.44,8.06-12.33,24.57-.9,3.05-1.74,6.11-2.26,9.25-6.91,42.37-8.85,85.26-10.87,128.09-1.53,32.35-.7,65.65-5.04,97.79,15.14,8.96,22.68-2.75,42.8,10.98,17.75,12.11,28.4,5.97,43.33,0,14.93-5.98,27.37-3.98,46.65,1.99,19.28,5.97,30.8-5.03,41.99-5.53,11.19-.5,11.65,3.13,35,1.65,19.86-1.26,26.46-5.23,26.46-8.77-4.25-81.58-7.86-153.89-13.24-233.73Z"/>
    <g>
      <path d="M335.06,316.32c-.03-.13,1.08-5.41.95,1.17-.07,3.3-3.29-7.78-5.83-10.27-1.16-1.14-2.54-2.41-4.05-3.23-1.51-.82-3.12-1.74-4.83-2.12-2.36-.8-8.66,2.08-11.08,2.49-.41.13,2.58,4.28,2.17,4.41-4.95-19.39-6.7-35.13,9.36-56.74,4.64-6.22,16.17-12.46,19.7-14.49,21.41-12.07,39.83-11.29,62.27-6.98,26,5,47.18,17.45,51.6,42.96,1.06,6.15-.48,7.36-1.5,13.42,0,0,5.12-11.53-7.03-19.87-12.16-8.34-14.56-8.66-32.45-10.03-20.71-1.67-26.72-5.52-43.83,1.01-15.63,5.99-19.24,11.99-19.24,11.99-1.2,3.49-3.68,6.35-5.46,9.56-1.75,3.16-2.57,6.6-3.05,10.16-.99,7.29-1.73,4.59-1.62,12.01.07,4.6.57,13.6-4.26,16.18-2.16,1.15.35-.7-1.81-1.63Z"/>
      <path d="M335.33,316.25c0-.27.11-.59.18-.85.05-.21.42-.93.37-1.1-.23-1-.32.34-.26.16-.02.07.07.24.06.31-.02.34.06.7.07,1.04.02.53-.17,1.39,0,1.85.02.06-.07.26-.04.3.05.07.25.1.22-.07-.05-.29-.46-.77-.59-1.06-.32-.67-.6-1.36-.89-2.04-.66-1.56-1.31-3.13-2.07-4.64-1.93-3.88-5.53-6.55-9.58-8.03-3.47-1.27-6.99.41-10.31,1.48-.49.16-.99.32-1.49.45-.23.06-.7.05-.86.2-.26.24-.2.29-.07.64.18.48,2.35,3.64,2.13,3.83l.48-.03c-1.78-6.99-3.34-14.12-3.46-21.36s1.48-14.87,4.59-21.7c1.93-4.23,4.36-8.23,7.05-12.01,2.24-3.14,4.9-5.69,7.99-7.99,5.64-4.2,11.97-7.89,18.33-10.89,8.06-3.8,16.7-6.13,25.6-6.74s17.44.35,26.02,1.83c14.25,2.45,28.82,6.51,40.18,15.88,5.03,4.15,9.22,9.29,12.07,15.17,1.51,3.12,2.65,6.42,3.43,9.79.84,3.62,1.26,7.11.36,10.75-.46,1.84-.94,3.67-1.26,5.54-.04.22.47.07.53-.07,1.26-2.86,1.37-6.42.67-9.41-1.58-6.83-7.58-10.67-13.18-14.12-4.29-2.64-8.73-4.39-13.72-5.17-7.68-1.2-15.51-1.38-23.23-2.35-6.24-.78-12.53-1.92-18.84-1.55-7.12.42-14.03,2.81-20.47,5.76-4.7,2.15-9.6,4.77-13.18,8.59-.41.43-.85.89-1.15,1.42-.57,1.02-.91,2.19-1.5,3.22s-1.19,1.93-1.81,2.88c-1.16,1.76-2.3,3.53-3.13,5.47-1.67,3.94-1.82,8.13-2.8,12.23-.54,2.25-.9,4.27-.91,6.61,0,3.19.2,6.38-.2,9.55-.18,1.48-.48,2.96-1.05,4.34-.49,1.19-1.69,3.38-3.14,3.62-.5.08-.12-.26-.19-.71-.09-.56-.52-.85-1-1.09-.15-.08-.64.14-.43.25.95.48.71.8.83,1.63.03.23-.07.27.16.38.56.27,1.83-.8,2.21-1.12,2.11-1.78,2.81-4.74,3.13-7.36.35-2.83.24-5.67.21-8.51-.03-2.64.22-4.9.84-7.43.98-3.95,1.11-8.01,2.6-11.84,1.6-4.09,4.75-7.33,6.39-11.39,1.07-2.65,3.94-4.55,6.22-6.08,6.41-4.3,14.01-7.46,21.53-9.16,6.2-1.4,12.38-1.07,18.63-.28,3.67.46,7.33.98,11,1.38,4.13.45,8.27.71,12.4,1.08,5.43.49,10.87,1.15,15.85,3.53,2.57,1.23,4.99,2.77,7.35,4.35,3.23,2.15,6.35,4.4,8.33,7.82,2.23,3.85,2.66,8.62,1.26,12.83-.08.24-.16.48-.27.71l.53-.07c.6-3.46,1.98-6.84,1.84-10.39-.14-3.81-1.22-7.73-2.49-11.3-2.27-6.34-5.96-12.08-10.76-16.8-10.15-10-24.19-15.08-37.91-17.82-8.72-1.74-17.6-3.08-26.51-3.06s-16.85,1.39-24.81,4.29c-7.04,2.56-13.67,6.25-19.98,10.27-3.21,2.04-6.37,4.24-9.15,6.85-3.06,2.87-5.38,6.51-7.53,10.09-4.15,6.91-7.11,14.52-7.9,22.58-.71,7.25.3,14.51,1.87,21.59.42,1.89.88,3.77,1.36,5.65.04.17.4.03.48-.03.46-.38-1.26-2.69-1.46-3.04-.19-.33-.38-.67-.56-1.01-.1-.2-.13-.33-.15-.3.1-.14.87-.22,1.07-.28.58-.17,1.16-.36,1.73-.55,2.18-.72,4.62-1.79,6.96-1.75,1.32.02,2.61.64,3.78,1.21,1.71.84,3.3,1.8,4.72,3.07,2.9,2.59,4.09,6.25,5.6,9.74.23.52.66,2.17,1.33,2.34.96.25.66-1.7.65-2.08,0-.34.14-2.85-.87-1.92-.41.38-.63,1.62-.63,2.15,0,.16.54.06.53-.14Z"/>
    </g>
    <path class="cls-22" d="M332.14,305.53c1.14.57,11.03-3.2,11.96-1.76,23.53-31.51,81.16-43.9,107.98-12.9-.68-5.31-.17-15.2-.82-17.07-8.23-23.83-28.68-34.96-52.06-39.69-23.38-4.73-53.45-.59-70.62,21.93-16.65,21.83-21.28,42.9,3.56,49.49Z"/>
    <g>
      <path d="M358.35,276.48l-.33-.95c-1.4,1.94-3.54,3.34-5.88,3.86-1.38.3-3.18.61-3.43,2-.08.41.02.83-.06,1.24-.48,2.6-5.16.44-6.98,2.35-1.54,1.61.3,4.66-1.12,6.38-1.26,1.52-4.08.73-5.34,2.26-1.56,1.89.8,5.42-1.1,6.97-1.37,1.12-3.73-.04-5.05,1.13-.63.55-.8,1.44-1.01,2.29,4.02,1.88,8,4.06,12.26,5.99.16-.96.19-1.96.1-2.89-.09-.83-.17-1.75.32-2.42,1.1-1.48,3.61-.26,5.24-1.13,2.86-1.53-.13-6.73,2.22-8.96,1.41-1.33,4.08-.8,5.18-2.4,1.44-2.1-1.25-5.85.93-7.17.66-.4,1.51-.31,2.26-.51,1.49-.4,2.42-1.97,2.57-3.5.15-1.53-.32-3.05-.78-4.52Z"/>
      <path d="M358.48,276.45l-.33-.95c-.02-.06-.21,0-.24.04-1.53,2.03-3.61,3.31-6.08,3.87-1.02.23-2.45.46-3.04,1.46-.4.68-.06,1.5-.39,2.2-.5,1.03-1.97.92-2.95.94s-2.13-.01-3.08.42c-1.14.52-1.5,1.59-1.49,2.78.02,2.32.55,4.46-2.4,5.11-1.11.25-2.46.3-3.29,1.19-.94,1.01-.67,2.5-.53,3.75.1.88.26,1.91-.18,2.73-.77,1.44-2.62.97-3.92,1.11-1.73.19-2.24,1.33-2.63,2.92,0,0,0,.02,0,.02,4.12,1.94,8.13,4.1,12.28,5.99.04.02.21-.01.22-.07.12-.83.18-1.66.13-2.5-.03-.44-.1-.87-.1-1.31,0-.26,0-.63.09-.87.21-.55,1.35-1.23,1.91-1.34,1.15-.23,2.31.21,3.44-.32,2.24-1.05,1.4-4.17,1.42-6.1.03-2.17.92-3.34,3.12-3.88.98-.24,2.14-.43,2.85-1.23,2.13-2.37-1.97-6.8,2.27-7.71,1.35-.29,2.34-.56,3.08-1.86,1.15-2.01.46-4.36-.19-6.41-.02-.06-.26,0-.25.07.72,2.31,1.59,5.46-.57,7.31-1.15.98-3.36.4-4.14,1.92-.62,1.21.02,2.83.14,4.08.09.9.06,1.9-.58,2.61-.84.93-2.29.98-3.42,1.33-3.12.98-2.49,3.99-2.47,6.61,0,.72-.02,1.49-.34,2.15-.74,1.52-2.52,1.27-3.93,1.3-.83.02-1.78.14-2.3.87s-.38,1.61-.32,2.43c.04.55.06,1.1.04,1.65-.04.68.15.99-.77.77-.37-.09-.75-.35-1.09-.51-2.34-1.12-4.65-2.3-6.97-3.46-.74-.37-3.09-1.06-3.23-1.96-.05-.32.29-1.12.48-1.38s1.96-1.01,2.25-1.06.6,0,.86,0c1.04-.02,2.2-.14,2.8-1.12.78-1.28.13-3,.1-4.38-.02-1.29.37-2.32,1.67-2.82.85-.33,1.79-.34,2.66-.6,1.15-.34,1.94-1.05,2.11-2.29.24-1.7-.79-4.11.91-5.3,1.48-1.04,3.59-.29,5.25-.74.36-.1.71-.24.98-.5.67-.67.25-1.55.56-2.35.51-1.34,2.41-1.43,3.61-1.75.87-.23,1.72-.58,2.5-1.03.83-.48,1.6-1.08,2.26-1.78.13-.13.28-.27.38-.42.24-.34.2-.46.3-.37.14.14.2.56.26.76.02.06.27,0,.25-.07Z"/>
    </g>
    <g>
      <path d="M355.08,262.35c1.11,1.36,1.21,3.45.24,4.92-.97,1.47-2.93,2.19-4.62,1.71.54,2.21-1.06,4.71-3.3,5.13-.96.18-2.02.04-2.85.54-2.05,1.24-.94,5.05-3.01,6.27-.78.46-1.79.37-2.56.84-1.58.97-1.15,3.52-2.39,4.9-1.51,1.69-4.71.84-6.12,2.62-.99,1.25-.77,3.45-2.24,4.08-.77.33-1.75.04-2.42.54-.81.6-.61,1.83-.72,2.83-.27,2.49-3.44,4.14-5.63,2.93-.24,1.66-1.2,3.21-2.58,4.16-.87-1.73-1.75-3.52-1.86-5.45-.1-1.93.78-4.05,2.57-4.79.69-.29,1.49-.36,2.09-.8,1.53-1.13.96-3.92,2.57-4.94,1.08-.68,2.74-.23,3.55-1.22.39-.47.44-1.13.6-1.73.57-2.1,2.96-3.52,5.08-3.02.6.14,1.22.42,1.81.23,1.7-.52.58-3.3,1.53-4.81.93-1.48,3.54-1.2,4.32-2.77.26-.52.24-1.14.44-1.69.32-.87,1.15-1.42,1.93-1.92,4.01-2.54,8.1-4.95,12.27-7.21"/>
      <path d="M354.97,262.4c2.27,3.07-.28,7.44-4.19,6.51-.05-.01-.21.02-.2.1.47,2.35-1.1,4.75-3.53,5.08-1.15.16-2.38.07-3.19,1.05-.76.92-.83,2.25-1.08,3.37-.16.74-.38,1.54-.94,2.08-.83.78-2.04.57-2.95,1.13-1.08.67-1.25,2.02-1.57,3.13s-.73,1.94-1.78,2.46c-.84.42-1.8.49-2.71.69-1.16.26-2.23.68-2.81,1.78-.3.56-.43,1.19-.63,1.78-.15.44-.3.92-.63,1.26-.57.6-1.38.58-2.13.71-1.56.26-1.54,1.53-1.64,2.87-.2,2.59-3.01,4.39-5.43,3.2-.06-.03-.21,0-.22.08-.19,1.09-.82,3.13-1.95,3.65-.76.35-.93-.61-1.17-1.15-.3-.68-.58-1.37-.78-2.09-.34-1.24-.42-2.54-.04-3.77.54-1.72,1.65-2.44,3.29-3.01,1.54-.53,1.97-1.55,2.37-3.05.13-.47.24-.93.45-1.37.46-.97,1.28-1.23,2.27-1.42.64-.13,1.34-.15,1.88-.58.62-.51.65-1.28.87-2,.43-1.42,1.61-2.54,3.05-2.91,1.24-.32,2.17.36,3.34.26.41-.03.81-.19,1.08-.5,1.15-1.32-.11-3.53,1.26-4.83,1.13-1.07,3.21-.86,3.99-2.37.22-.43.22-.92.35-1.37.27-.94.91-1.48,1.69-2.01,1.27-.87,2.61-1.64,3.92-2.44,2.84-1.72,5.72-3.37,8.64-4.96.15-.08-.07-.12-.15-.08-2.5,1.36-4.98,2.77-7.42,4.22-1.22.73-2.44,1.47-3.64,2.23-.87.55-1.91,1.06-2.61,1.84-.63.7-.6,1.41-.88,2.26-.42,1.25-1.76,1.48-2.83,1.92-1.46.59-1.96,1.51-2.05,3.07-.08,1.37.17,2.97-1.97,2.79-.86-.07-1.5-.39-2.39-.23-1.42.25-2.76,1.19-3.38,2.51-.18.38-.26.77-.36,1.17-.3,1.21-1.23,1.68-2.34,1.86-.66.11-1.33.2-1.87.65-1.25,1.03-.98,2.93-1.82,4.2-.76,1.14-2.44,1.06-3.47,1.89-.64.51-1.09,1.2-1.39,1.96-1.04,2.69.29,5.45,1.49,7.84.03.07.15.04.2,0,.97-.71,1.74-1.59,2.2-2.71.09-.22.27-1.21.47-1.3.15-.07.92.26,1.18.28,1.61.1,3.32-.83,4.06-2.28.5-.99.03-2.3.54-3.2.27-.47,1.26-.92,1.74-1.04.25-.06.5-.03.76-.09.34-.09.63-.22.9-.45.65-.58.81-1.51,1.08-2.29.28-.82.57-1.57,1.33-2.06s1.72-.6,2.58-.78c1.9-.38,3.16-1.02,3.74-2.97.49-1.63.6-2.95,2.55-3.54.92-.28,1.72-.36,2.31-1.21,1.4-2.04.22-5.48,3.53-5.9,2.02-.25,3.66-.65,4.61-2.68.25-.54.4-1.13.41-1.73.01-.64-.23-.7.41-.74,1.02-.07,1.9-.11,2.8-.67,2.16-1.34,2.52-4.22,1.04-6.21-.05-.07-.29.02-.23.1h0Z"/>
    </g>
    <g>
      <path d="M352.32,257.16c.29,2.72-2.07,5.44-4.8,5.53-.54.02-1.1-.05-1.59.18-1.02.47-1.14,1.84-1.61,2.85-1.07,2.3-4.12,2.83-6.65,2.58-1.62-.16-3.69-.28-4.39,1.19-.27.58-.24,1.29-.61,1.82-.98,1.39-3.82.37-4.48,1.94-.3.72.11,1.58-.16,2.31-.56,1.56-3.06.83-4.41,1.79-.63.44-.92,1.21-1.19,1.93-.81,2.2-1.62,4.39-2.43,6.59-.2.54-.48,1.15-1.03,1.29-.94.24-1.52-.99-1.66-1.95-.79-5.41-.17-11.01,1.78-16.11.49-1.28,1.45-2.75,2.8-2.52.45.07.89.34,1.32.2.7-.22.69-1.2.69-1.94.02-3.05,3.46-5.56,6.37-4.64.78.25,1.68.68,2.36.21.45-.31.59-.9.88-1.37.74-1.19,2.38-1.44,3.77-1.3,1.4.14,2.83.54,4.18.16,1.7-.47,2.99-2.1,4.75-2.2,2.13-.11,4.22,2.1,6.12,1.12"/>
      <path d="M352.19,257.19c.16,2.34-1.39,4.65-3.7,5.27-1.33.36-2.7-.18-3.51,1.2-.37.63-.48,1.39-.8,2.05-.51,1.06-1.46,1.75-2.55,2.13-1.86.65-3.65.26-5.55.29-.99.01-2.19.19-2.79,1.08-.56.83-.37,1.87-1.29,2.47-.67.43-1.51.39-2.27.53-1.07.2-1.75.64-1.8,1.8-.03.59.2,1.22-.14,1.77s-1.08.71-1.67.81c-.68.11-1.4.15-2.04.41-1.3.54-1.66,1.94-2.11,3.15-.38,1.02-.76,2.05-1.14,3.07-.27.74-1.21,4.73-2.72,3.56-.67-.52-.73-1.77-.82-2.53-.15-1.27-.22-2.56-.21-3.84.01-2.28.26-4.55.75-6.77.23-1.04.5-2.06.83-3.07.2-.6.4-1.22.65-1.8.1-.22.2-.44.32-.64.44-.74.66-.86,1.55-1.13,1.14-.35.8-.13,1.63-.12.12,0,.29,0,.41-.05.3-.1.49-.32.61-.6.31-.67.11-1.51.25-2.22.2-.98.75-1.88,1.49-2.55.84-.77,1.93-1.29,3.07-1.37s1.92.48,2.95.58c.39.04.78,0,1.11-.24s.45-.6.66-.95c.42-.7.86-1.2,1.64-1.47,2.21-.79,4.55.65,6.78-.15.75-.27,1.41-.74,2.08-1.16,1.4-.88,2.69-1.1,4.25-.51,1.4.53,2.75,1.33,4.24.69.16-.07.02-.17-.1-.12-2.08.88-3.97-1.27-6.05-1.14-1.98.12-3.31,1.94-5.22,2.27-2.02.35-4.05-.71-6.06-.03-.52.18-1.01.47-1.36.9-.28.34-.37.82-.64,1.15-.92,1.1-1.94.34-2.9.12-2.7-.61-5.75,1.43-6.2,4.17-.2,1.19.29,2.41-1.54,2.37-.65-.01-1.06-.17-1.67.2-1.38.84-1.88,2.83-2.32,4.26-.74,2.39-1.2,4.87-1.37,7.37-.15,2.3-.21,4.87.32,7.12.21.88.87,2.1,1.94,1.62.53-.24.74-.78.95-1.29.47-1.16.87-2.35,1.3-3.52.46-1.24.82-2.6,1.42-3.77.79-1.55,2.07-1.56,3.55-1.85,1.14-.22,1.82-.71,1.85-1.94.03-.87-.21-1.55.67-2.09.47-.29.98-.32,1.52-.4.58-.08,1.21-.13,1.73-.42.37-.21.63-.5.8-.89.27-.63.23-1.38.73-1.92.65-.71,1.76-.76,2.65-.74,1.84.04,3.59.32,5.38-.31,1.6-.56,2.49-1.6,3.05-3.16.38-1.05.61-1.83,1.92-2.04.5-.08,1,0,1.51-.09.8-.15,1.56-.52,2.2-1.02,1.39-1.1,2.17-2.77,2.05-4.54,0-.1-.25-.04-.25.07h0Z"/>
    </g>
    <g>
      <path d="M348.51,253.65c-3.47,1.21-6.79-4.09-10.23-2.8-1.66.62-2.92,2.72-4.64,2.25-.79-.21-1.41-.96-2.22-.95-1.69.01-1.63,2.7-2.84,3.89-1.51,1.48-4.44.07-5.98,1.51-.43.4-.68.98-1.08,1.41-.76.82-1.94,1.04-2.99,1.41-1.05.37-2.17,1.13-2.19,2.25-1.97-4.06-.52-9.47,3.22-11.99.4-.27.84-.53,1.12-.93.27-.39.35-.88.48-1.33.63-2.31,2.58-4.2,4.9-4.77.81-.2,1.71-.27,2.33-.82.88-.78.84-2.15,1.37-3.2,1.22-2.45,4.78-2.33,7.04-3.89.94-.65,1.63-1.59,2.52-2.31.95-.76,2.12-1.25,3.33-1.39.96-.11,2.11.1,2.56.96.31.59.18,1.31.35,1.96.42,1.63,2.4,2.22,4.07,2.42,1.67.2,3.63.47,4.43,1.95,1.13,2.1-1.07,4.53-.97,6.91.04,1.04.54,2.04.49,3.09-.05.96-.54,1.82-1.03,2.65-.85,1.46-1.71,2.92-2.56,4.39"/>
      <path d="M348.48,253.57c-2.79.84-5.11-1.9-7.56-2.74-.87-.3-1.79-.39-2.66-.06-1.23.45-2.04,1.71-3.26,2.11s-1.81-.26-2.84-.66c-.36-.14-.73-.2-1.11-.1-.77.21-1.12.97-1.41,1.65-.21.51-.38,1.04-.65,1.52-.57,1.02-1.59,1.36-2.71,1.42s-2.28-.09-3.27.44c-.55.29-.84.75-1.19,1.24-.85,1.18-2.03,1.43-3.32,1.91-1.11.41-2.15,1.09-2.31,2.34l.27-.05c-1-2.17-1.12-4.59-.43-6.87.38-1.27,1.03-2.47,1.89-3.48.77-.9,1.83-1.39,2.63-2.22.71-.74.74-1.91,1.18-2.8.7-1.41,1.91-2.58,3.37-3.2.98-.42,2.16-.39,3.07-.95.77-.49,1.03-1.3,1.27-2.13.41-1.43.97-2.39,2.33-3.07,1.02-.51,2.14-.78,3.2-1.17.82-.31,1.59-.67,2.27-1.22,1.43-1.14,2.39-2.56,4.23-3.14.9-.28,2.11-.47,2.98.04s.76,1.34.89,2.18c.15.9.61,1.56,1.39,2.03,1.94,1.17,4.49.52,6.36,1.83,2.72,1.9-.23,5.39-.14,7.83.04,1.04.55,2.02.49,3.07-.05.82-.42,1.56-.81,2.27-.89,1.6-1.85,3.16-2.77,4.74-.07.12.2.11.25.02.85-1.46,1.72-2.92,2.56-4.39.78-1.36,1.19-2.46.88-4.02-.35-1.76-.29-2.91.29-4.6.4-1.14.91-2.39.54-3.6-.74-2.38-3.69-2.22-5.64-2.64-1.47-.32-2.86-.99-3.13-2.61-.2-1.21-.2-2.13-1.57-2.5-2.15-.58-4.33.81-5.78,2.24-1.27,1.25-2.47,2.01-4.15,2.58-1.02.35-2.1.64-3.02,1.22-.73.46-1.29,1.08-1.61,1.89-.26.65-.32,1.38-.63,2.02-.6,1.23-1.68,1.29-2.81,1.59-2.25.59-4.14,2.28-4.9,4.5-.34,1.01-.45,1.7-1.35,2.36-.57.41-1.13.8-1.62,1.3-.87.88-1.56,1.95-2.04,3.09-1.06,2.53-1.06,5.4.09,7.89.04.1.26.05.27-.05.3-2.42,3.36-2.09,4.87-3.34.87-.72,1.14-1.85,2.35-2.2.82-.24,1.72-.14,2.56-.18,1.1-.05,2.12-.28,2.78-1.23.42-.6.62-1.32.91-1.99.15-.34.32-.79.6-1.04.98-.87,1.77-.02,2.51.34.99.49,1.87.23,2.75-.36.76-.5,1.41-1.18,2.24-1.58,1.03-.49,2.09-.31,3.1.11,2.35.98,4.62,3.41,7.38,2.58.16-.05.12-.21-.04-.16h0Z"/>
    </g>
    <g>
      <path d="M358.31,254.38c2.06-.76,3.07-3.53,1.98-5.44-.36-.63-.93-1.35-.59-2,.14-.28.43-.45.67-.65,1.57-1.24,1.74-3.88.35-5.32-.29-.3-.65-.56-.84-.94-.79-1.56,1.71-3.59.6-4.93-.94-1.13-2.93.16-4.2-.57-1.24-.71-.94-2.77-2.09-3.62-1.7-1.26-4.93,1.19-5.92-.68-.52-.98.42-2.17,1.47-2.5,1.06-.32,2.2-.12,3.3-.26,2.84-.35,4.9-2.84,7.49-4.07,2.7-1.28,5.83-1.14,8.81-.97,1.28.07,2.6.16,3.75.73,1.77.88,2.85,2.96,2.57,4.92-.06.38-.15.8.07,1.12.13.18.34.29.54.39,1.01.49,2.02.99,3.02,1.48.38.19.8.41.95.81.36.91-.9,1.62-1.88,1.63s-2.19-.09-2.69.76c-.92,1.58,2.23,3.11,1.74,4.87-.5,1.82-3.91,1.02-4.63,2.76-.43,1.04.47,2.2.27,3.31-.2,1.14-1.46,1.75-2.59,1.98-1.13.23-2.38.29-3.27,1.03-.68.56-1.02,1.41-1.5,2.15-1.47,2.23-4.16,3.26-6.67,4.16"/>
      <path d="M358.38,254.39c1.3-.55,2.19-1.69,2.42-3.09.14-.84,0-1.65-.39-2.4-.22-.43-.6-.84-.67-1.33-.12-.81.62-1.12,1.08-1.61,1.04-1.11,1.26-2.91.56-4.26-.39-.74-1.33-1.23-1.5-2.06s.34-1.69.65-2.44c.45-1.08.55-2.42-.92-2.62-.9-.12-1.8.29-2.7.1-1.11-.24-1.37-1.29-1.69-2.22-.42-1.24-1.05-2-2.42-1.97-1.28.03-4.56,1.36-4.56-.89,0-2.54,4.44-1.77,6.27-2.46s3.21-1.98,4.8-2.99c2.78-1.76,5.91-1.86,9.09-1.7,2.61.13,5.41.32,6.69,2.98.42.87.51,1.76.44,2.71-.11,1.38.53,1.48,1.7,2.05.74.36,2.74.93,2.92,1.88.19,1.02-1.8,1.39-2.56,1.42-.3.01-.6.03-.89.09-.99.23-1.57,1.02-1.15,2.02.5,1.19,2.41,2.43,1.62,3.89s-3.12.84-4.18,1.97c-.63.67-.42,1.5-.22,2.3.49,2.07-.55,3.07-2.65,3.47-1.96.37-3.08.73-4.14,2.52-1.58,2.64-4.19,3.76-6.98,4.77-.17.06,0,.08.08.05,1.81-.65,3.69-1.34,5.21-2.56.81-.65,1.4-1.41,1.93-2.3.32-.53.62-1.09,1.1-1.49.91-.76,2.1-.74,3.16-.98,1.23-.28,2.72-.94,2.73-2.42,0-1.15-.96-2.48.07-3.46.68-.65,1.82-.69,2.68-.97,1.02-.33,1.91-1.01,1.53-2.21-.24-.76-.87-1.36-1.31-2-.18-.26-.39-.55-.47-.86-.04-.14-.08-.28-.08-.43,0-.23.05-.44.17-.63l1.81-.68c.89-.12,2.5.03,2.8-1.18.21-.88-.83-1.26-1.42-1.55-1.03-.51-3.22-1.06-3.25-2.38-.02-1.13.14-2.01-.38-3.09-.4-.84-1.04-1.57-1.83-2.05-1.87-1.13-4.56-.99-6.67-1.02s-4.08.14-5.97.92-3.42,2.24-5.19,3.27c-1.05.61-2.17.94-3.39,1.01-.56.03-1.13-.01-1.69.05s-1.09.19-1.56.49c-1.06.69-1.57,2.47-.04,2.92s3.34-1,4.86-.13.9,3.27,2.58,3.88c.89.33,1.84-.08,2.74-.04,1.63.08,1.61,1.41,1.12,2.58-.3.72-.79,1.52-.68,2.34.14,1,1.28,1.55,1.66,2.46.43,1.05.35,2.33-.21,3.32-.49.86-1.82,1.3-1.5,2.44s1.11,1.81,1.05,3.1c-.07,1.51-.97,2.87-2.36,3.46-.15.06.08.05.14.03h0Z"/>
    </g>
    <g>
      <path d="M359.6,259.67c.49-2.69,4.48-2.34,6.83-3.73,1.79-1.06,2.73-3.35,4.7-4.03,1.42-.49,3.25-.11,4.22-1.25.57-.66.61-1.62,1-2.4,1.48-2.99,6.87-2.03,8.25-5.06,1.24-2.73-1.99-6.45.02-8.67.63-.69,1.63-1,2.16-1.77,1.06-1.55-.47-3.53-1.88-4.77-1.97-1.73-3.94-3.47-5.91-5.2,4.95-2.04,10.5-2.61,15.76-1.62,1.93.36,3.92.98,5.29,2.4,1.37,1.41,1.89,3.8.7,5.37-.35.46-.82.83-1.09,1.33-1.19,2.23,2.01,5.59.05,7.2-.45.38-1.08.5-1.52.88-1.29,1.13-.19,3.53-1.29,4.84-.96,1.14-2.86.69-4.13,1.47-.77.47-1.21,1.32-1.8,1.99-.83.94-1.98,1.52-3.1,2.08-3.18,1.6-6.36,3.2-9.54,4.8-2.25,1.13-4.69,2.3-7.17,1.9-2.01,4.31-7.76,6.41-12.08,4.41"/>
      <path d="M359.72,259.65c.5-2.13,3.03-2.37,4.81-2.89,1.47-.43,2.59-1.09,3.63-2.23.75-.82,1.46-1.79,2.46-2.33,1.09-.58,2.33-.44,3.48-.76,1.92-.53,1.64-2.24,2.63-3.63,1.8-2.53,5.97-1.57,7.73-4.18,2.17-3.2-2.63-7.28,1.22-9.86,1.57-1.05,1.99-2.38.91-4.06-1.36-2.11-3.78-3.71-5.64-5.35-.3-.27-1.37-.92-1.48-1.3-.18-.62.77-.71,1.23-.87,1.53-.52,3.1-.89,4.7-1.13,2.77-.42,5.62-.42,8.39,0,2.45.38,5.37,1.08,6.76,3.35.57.92.86,2.06.66,3.14-.22,1.19-1.16,1.72-1.68,2.7-.72,1.35.05,2.95.43,4.28.21.74.45,1.63.08,2.36-.46.92-1.69.95-2.26,1.77-.44.65-.41,1.46-.44,2.21-.02.6-.02,1.25-.26,1.81-.46,1.05-1.76,1.23-2.76,1.41-.64.12-1.27.26-1.81.64-1.02.73-1.55,1.95-2.58,2.71-1.3.96-2.88,1.61-4.32,2.33-1.3.65-2.6,1.31-3.9,1.96-3.19,1.61-6.78,4.07-10.49,3.62-.06,0-.17.02-.2.08-2.1,4.28-7.49,6.26-11.85,4.34-.06-.03-.29.07-.2.11,2.14.94,4.52.99,6.73.26s3.8-2.15,5.19-4.03c.55-.74,1.06-.51,1.95-.6.68-.07,1.34-.23,1.99-.43,1.54-.49,2.98-1.26,4.43-1.98,1.81-.91,3.61-1.82,5.42-2.73,1.64-.83,3.38-1.57,4.93-2.55,1.74-1.1,2.5-3.21,4.67-3.61.85-.16,1.82-.21,2.51-.81.92-.8.76-2.12.83-3.21s.39-1.7,1.4-2.27c.43-.24.86-.41,1.15-.84,1.29-1.89-1.2-4.4-.54-6.48.24-.75.91-1.2,1.33-1.83.35-.52.54-1.13.57-1.76.06-1.23-.44-2.47-1.25-3.38-2.31-2.58-6.68-2.93-9.9-3-3.92-.09-7.79.64-11.42,2.1-.02,0-.11.05-.07.08,2.06,1.81,4.2,3.56,6.19,5.46.79.76,1.69,1.73,1.89,2.85.3,1.71-1.12,2.2-2.17,3.13-2.67,2.36,1.06,6.25-.35,9.06s-5.79,1.96-7.76,4.29c-.52.61-.63,1.35-.92,2.08-.69,1.77-2.39,1.67-3.94,1.98s-2.51,1.34-3.53,2.47c-.85.96-1.71,1.77-2.93,2.23-.98.37-2.03.56-3.03.88-1.29.41-2.5,1-2.83,2.42-.02.07.23.03.24-.04h0Z"/>
    </g>
    <g>
      <path d="M363.48,266.64c2.86,2.37,7.46,2.3,10.24-.16.93-.82,1.67-1.86,2.68-2.58,2.94-2.08,7.39-.91,10.22-3.14,1.54-1.22,2.29-3.22,3.79-4.5,2.98-2.54,8-1.48,10.8-4.21.72-.7,1.24-1.61,2.08-2.15,1.35-.86,3.17-.55,4.59-1.28,1.88-.97,2.6-3.48,4.53-4.33,1.15-.51,2.59-.34,3.56-1.14,1.69-1.39.75-4.61,2.54-5.87.7-.49,1.64-.52,2.35-1.01,1.7-1.16.9-3.91-.55-5.39-1.83-1.87-4.31-2.95-6.72-3.99-.56-.24-1.13-.48-1.69-.73-2.87-1.23-6.37-2.41-8.91-.6-.5.36-.96.96-.76,1.54.11.3.37.51.62.71,1.84,1.45,3.67,2.89,5.51,4.34-1.87.31-2.41,2.74-2.34,4.63s.13,4.21-1.48,5.2c-.82.5-1.96.57-2.47,1.38-.4.63-.24,1.45-.45,2.16-.63,2.12-3.63,1.95-5.68,2.78-1.44.58-2.5,1.79-3.69,2.79-1.37,1.15-2.93,2.05-4.48,2.94-1.41.8-2.81,1.61-4.22,2.41-3.92,2.25-7.85,4.5-11.91,6.49-2.85,1.4-5.77,2.67-8.74,3.8"/>
      <path d="M363.36,266.68c1.83,1.44,4.16,2,6.45,1.63,2.45-.39,3.92-1.76,5.61-3.47,2.52-2.54,5.88-2.02,9.03-2.97,2.68-.8,3.58-2.86,5.29-4.84,2.12-2.46,5.41-2.43,8.31-3.27.87-.25,1.73-.58,2.48-1.09,1.7-1.16,2.2-2.84,4.45-3.34,1-.22,2.04-.23,2.97-.71.88-.45,1.5-1.23,2.1-1.99.39-.5.76-1.02,1.21-1.47.94-.92,2.14-1.08,3.34-1.38.72-.18,1.4-.46,1.87-1.07.65-.85.73-2.01.93-3.02.09-.47.19-.95.39-1.38.48-1.06,1.48-1.29,2.48-1.7,2.17-.9,1.9-3.33.76-5.02-1.63-2.41-4.75-3.63-7.32-4.73s-5.11-2.4-7.87-2.26c-1.17.06-4.74,1.05-3.58,2.83.42.64,1.34,1.13,1.93,1.59s1.22.96,1.84,1.45c.25.2,2.13,1.42,2.03,1.72-.02.07-.72.35-.81.42-1.75,1.39-1.26,4.03-1.34,5.95-.03.77-.12,1.58-.47,2.28-.48.97-1.2,1.23-2.15,1.64-.81.35-1.39.68-1.6,1.61s-.08,1.83-.9,2.55c-.68.6-1.66.8-2.52,1-1.07.25-2.15.46-3.12,1.02-1.51.86-2.65,2.26-4.06,3.27-1.61,1.16-3.39,2.1-5.11,3.08-7.53,4.31-15.02,8.59-23.13,11.71-.16.06,0,.09.08.06,8.82-3.4,16.94-8.15,25.12-12.84,1.79-1.03,3.5-2.1,5.04-3.48.96-.87,1.92-1.76,3.16-2.21.8-.29,1.66-.42,2.49-.64.94-.24,2.02-.55,2.63-1.36.42-.56.43-1.18.52-1.85.15-1.08.47-1.4,1.64-1.91.27-.12.55-.19.81-.33,1.45-.75,1.77-2.32,1.82-3.83.05-1.98-.44-5.5,2.21-6.12.01,0,.15-.05.11-.08-1.59-1.25-3.18-2.51-4.78-3.76-.38-.3-.91-.6-1.16-1.03-.41-.7-.02-1.28.57-1.74,1.35-1.07,3.3-1.01,4.89-.67,1.98.43,3.82,1.31,5.67,2.1,1.65.71,3.31,1.44,4.79,2.46,1.37.94,2.63,2.13,3.08,3.78.19.69.25,1.49-.06,2.16-.47,1-1.64,1.16-2.55,1.57-1.04.47-1.46,1.37-1.7,2.45-.46,2.1-.44,3.61-2.94,4.33-1.01.29-1.92.33-2.78,1-1.1.86-1.72,2.16-2.73,3.11-1.43,1.34-3.24,1.02-4.91,1.68-1.44.57-2.09,2.01-3.27,2.92-2.49,1.91-5.94,1.55-8.72,2.81-3.12,1.42-3.86,5.29-7.17,6.43-3.03,1.03-6.53.44-9.06,2.72-.76.69-1.38,1.52-2.17,2.17-1.16.96-2.6,1.54-4.1,1.68-2.09.19-4.14-.39-5.78-1.69-.05-.04-.27.06-.23.08h0Z"/>
    </g>
    <g>
      <path d="M402,256.59c-.95-1.07.15-2.82,1.48-3.34s2.87-.42,4.15-1.08c1.66-.85,2.48-2.77,3.95-3.91,1.56-1.21,3.65-1.42,5.51-2.08,1.86-.65,3.77-2.2,3.57-4.16-.11-1.06-.77-2.29-.03-3.05.75-.78,2.29-.2,2.98-1.03.78-.92-.4-2.35-.05-3.51.23-.78,1.09-1.19,1.9-1.28,2.78-.31,5.05,2.07,6.82,4.24,2.06,2.52,4.12,5.04,6.19,7.56.14.17.29.35.37.56.4.95-.64,1.97-1.66,2.03-1.02.06-1.97-.48-2.91-.89-.94-.41-2.08-.68-2.95-.14-.87.55-1.13,1.7-1.84,2.45-1.73,1.83-4.91.4-7.26,1.31-1.46.56-2.45,1.98-3.92,2.53-1.49.55-3.16.09-4.74.32-2.21.32-3.96,1.93-5.82,3.17-1.85,1.24-4.35,2.13-6.25.97"/>
      <path d="M402.11,256.54c-.69-.95-.17-2.06.65-2.74.75-.62,1.73-.74,2.65-.91,1.31-.24,2.43-.54,3.41-1.46s1.72-2.23,2.84-3.1c1.47-1.13,3.36-1.36,5.08-1.92,1.93-.63,4.23-2.09,4.05-4.41-.09-1.11-1.09-2.71.63-3.32.57-.2,1.21-.05,1.77-.31.64-.29.87-.83.81-1.51s-.47-1.4-.36-2.13c.27-1.86,2.73-1.63,3.92-1.19,1.67.61,2.99,2,4.12,3.32,1.23,1.43,2.4,2.91,3.59,4.37.52.63,1.03,1.26,1.55,1.89.66.8,2.25,2.12,1.89,3.31-.77,2.53-4.71-.36-6.27-.31-.98.03-1.59.55-2.11,1.36-.49.76-.83,1.56-1.68,1.99-.68.34-1.45.39-2.2.4-1.41.02-2.89-.21-4.25.31s-2.29,1.79-3.62,2.4c-1.93.89-4.16.04-6.16.73-3.48,1.2-6.78,6.06-10.82,3.87-.1-.05-.31.08-.19.15,2.94,1.59,5.86-.59,8.21-2.24.9-.63,1.82-1.23,2.86-1.59,1.22-.42,2.43-.32,3.69-.32,1.62,0,2.77-.47,4.03-1.46.84-.66,1.64-1.3,2.7-1.55.91-.21,1.88-.13,2.81-.11,1.29.02,2.72.02,3.73-.91.4-.37.65-.84.93-1.31.58-.97,1.55-1.57,2.73-1.44.6.07,1.17.38,1.71.62,1.17.52,2.63,1.05,3.7.03s.2-1.99-.55-2.9c-1.5-1.83-2.99-3.65-4.49-5.48-1.89-2.31-4.25-5.72-7.63-5.62-.95.03-2.1.41-2.41,1.41-.19.62.06,1.27.19,1.87.19.89.1,1.7-1.04,2.01-.35.09-.72.07-1.07.15-1.03.23-1.45.9-1.3,1.95s.55,1.98.08,3.05-1.55,1.88-2.6,2.37c-1.83.85-3.94.93-5.68,2.01-1.55.96-2.34,2.66-3.74,3.79-1.62,1.3-3.92.72-5.55,1.94-.96.72-1.61,2-.83,3.07.07.09.3,0,.22-.11h0Z"/>
    </g>
    <g>
      <path d="M418.73,254.96c1.59-1.78,4.66-.26,6.86-1.19,1.35-.57,2.31-2.04,3.78-2.14,1.75-.12,3.42,1.83,5.01,1.09,1.07-.5,1.42-2.01,2.53-2.41,1.02-.37,2.07.38,2.86,1.12,2.69,2.52,4.96,5.5,6.67,8.77.19.37.38.76.35,1.17-.07.93-1.29,1.39-2.16,1.06-.87-.34-1.43-1.17-1.89-1.98-.47-.81-.93-1.67-1.73-2.15-2.35-1.41-5.54,1.43-7.98.18-.74-.38-1.3-1.11-2.09-1.36-1.84-.59-3.77,1.61-5.59.96-.67-.24-1.15-.82-1.73-1.24-.95-.69-2.21-.93-3.34-.65-.53.13-1.06.38-1.61.32-.55-.06-1.08-.63-.84-1.13"/>
      <path d="M418.84,254.95c1.69-1.66,4.41-.38,6.47-1.03.58-.18,1.07-.51,1.55-.87.94-.7,1.69-1.5,3.05-1.33.66.08,1.3.46,1.9.73.96.42,1.99.74,2.92.11,1.24-.83,1.38-2.85,3.56-2.07,1.15.41,2.19,1.77,3,2.64,1.87,2.02,3.51,4.29,4.81,6.72.26.49.74,1.2.49,1.8-.14.34-1.25.82-1.61.8s-.72-.3-.98-.52c-.96-.8-1.32-2.06-2.11-2.99-1.03-1.2-2.44-1.22-3.87-.9-1.05.23-2.09.64-3.17.71-1.68.1-2.28-1.04-3.66-1.6-2.19-.89-4.25,1.96-6.37.55-.99-.66-1.67-1.46-2.92-1.64-1.03-.15-4.26.79-3.98-.71,0-.05-.23-.01-.24.04-.16.85.58,1.2,1.32,1.15.85-.06,1.35-.47,2.33-.43,1.17.05,1.98.62,2.84,1.32,2.07,1.71,3.69-.18,5.94-.16.96.01.97-.06,1.61.4.29.21.55.46.86.66.38.24.75.39,1.19.47.87.15,1.77-.06,2.62-.27,1.44-.36,3.07-1.01,4.48-.2,1.25.72,1.61,2.29,2.53,3.31.78.87,2.54,1.45,3.32.19.61-.98-.52-2.35-1.01-3.16-.87-1.46-1.85-2.86-2.93-4.18-.86-1.04-1.78-2.04-2.76-2.96-.73-.69-1.65-1.47-2.73-1.36-.59.07-1.05.41-1.43.84s-.66,1.04-1.13,1.39c-1.18.87-2.26.14-3.33-.33-.77-.33-1.55-.61-2.39-.43-1.17.25-1.94,1.23-2.93,1.81-2.31,1.37-5.46-.47-7.48,1.52-.05.05.18.02.22-.02h0Z"/>
    </g>
    <path d="M318.48,303.21c-2.32.95,13.44,4.81,13.67,2.32s2.84-5.78,4.84-7.29c2-1.51-12.44,6.44-10.22-5.48-2.05-1.63-5.69,6.01-8.15,5.11-3.19-1.18,1.85-5.89,3.55-8.83,1.71-2.95,1.76-4.11,3.62-6.96.7-1.07-1.3-3.57-2.36-4.29-.4-.27-.9-.31-1.37-.42-2.06-.47-3.59-2.38-4.06-4.44-.47-2.06,6.08-4.68,6.87-6.64,1.35-3.35.89-6.08,3.88-8.1,1.2-.81-.74-1.29.05-2.51.79-1.22.72-3.15-.57-3.81-.76-.39-1.68-.22-2.52-.03-3.8.87-7.64,2.01-10.75,4.35-3.11,2.34-5.4,6.1-5.04,9.98.14,1.53.68,3.08.3,4.58-.47,1.86-2.25,3.11-3.01,4.88-1.54,3.56,1.44,8.02-.41,11.43-.58,1.07-1.56,1.86-2.21,2.88-1.16,1.82-1.11,4.34.14,6.11.75,1.06,1.85,1.83,2.59,2.9,2.77,3.98-.63,9.65.91,14.25"/>
    <ellipse cx="442.81" cy="321.04" rx="5.4" ry="5.38" transform="translate(-7.77 631.08) rotate(-70.47)"/>
    <path d="M447.63,317.7c-2.39-1.89-5.8-3.32-11.04-3.4-8.38-.13-13.23,9.9-13.23,9.9,0,0,5.25-7.49,13.52-7.58,3.99-.04,10.24,2.95,13.09,4.79,0-.8-.92-2.5-2.34-3.72Z"/>
    <path class="cls-5" d="M318.95,324.35c-.61-2.66-.71-6.55.98-8.62l-.86.3c.18,0-.07-.05.03,0,.13.07.4.13.43.14.71.31,1.33.83,1.89,1.37,3.08,2.96,5.07,7.1,6.81,10.93l1.39-.5c-.85-.76-2-1.44-3.18-1.31-1.42.16-2.17,1.38-2.39,2.68-.61,3.5,2.38,5.7,5.45,6.35.32.07.81.01,1.02-.27.18-.23.19-.54-.16-.61-2.41-.51-4.82-1.94-4.92-4.66-.03-.65.08-2.01.69-2.44s1.72.47,2.16.87c.31.28,1.66.09,1.39-.5-1.33-2.92-2.79-5.83-4.65-8.45-.95-1.34-2.03-2.66-3.37-3.64-.52-.38-1.12-.74-1.76-.87-.92-.17-1.36.46-1.74,1.2-1.34,2.58-1.28,5.64-.64,8.41.14.59,1.59.22,1.45-.39h0Z"/>
    <ellipse cx="387.65" cy="315.87" rx="5.4" ry="5.38" transform="translate(-39.62 575.65) rotate(-70.47)"/>
    <path d="M399.7,321.45s-5.76-12.05-14.97-12.25c-12.97-.29-16.96,5.14-19.88,9.01,0,0,8.71-6.95,18.73-6.47,9.09.43,16.12,9.72,16.12,9.72Z"/>
    <path d="M410.43,361.3c-3.67-.39-17.31-1.97-17.31-1.97,0,0,2.19,9.78,15.45,11.18,14.38,1.51,17.46-6.76,17.46-6.76l-15.6-2.45Z"/>
    <path class="cls-20" d="M410.41,363c-3.67-.39-14.76-2.16-14.76-2.16,0,0,4.07,3.48,15.07,4.64,11,1.16,14.43-1.42,14.43-1.42l-14.74-1.06Z"/>
    <path d="M400.96,299.85c.04-.19-.59-.31-.55-.49-9.64-3.99-17.24-5.35-20.11-5.24-2.18.09-4.38.63-6.51,1.51,0,0-5.88,2.32-6.73,3.47-.85,1.15,3.38-.13,3.38-.13.89-.14,1.51-.37,2.4-.38,4.87-.07,9.64-.84,14.31.54,4,1.15,9.13,4.48,12.81,6.67.45-2.02.42-3.96,1.01-5.94Z"/>
    <path d="M424.16,303.81c0-.19.56-.17.57-.37,8.99-1.84,15.72-1.55,18.14-.82,1.84.55,3.6,1.55,5.23,2.86,0,0,4.54,3.52,5.03,4.82.5,1.31-2.85-.85-2.85-.85-.73-.32-1.21-.68-1.96-.89-4.13-1.11-8.03-2.88-12.27-2.53-3.63.27-8.66,2.43-12.22,3.78.02-2.07.43-3.96.32-6.01Z"/>
    <g>
      <path d="M415,351.82c-1.88.82-4.63.4-6.38-.86-.39-.28-1.76-.13-1.21.26,2.31,1.67,6.27,2.09,8.7,1.03.24-.11.21-.29-.07-.41-.3-.12-.78-.14-1.03-.02"/>
      <path d="M406.66,350.64c-1.18-.66-2.52-1.07-3.88-1.27-.2-.03-.46.03-.62.15-.12.1-.16.23-.01.33.6.41,1.39.61,2.13.65.23.01.54-.02.69-.21.13-.18-.08-.31-.26-.32-.61-.03-1.22-.2-1.72-.53-.21.16-.42.32-.63.48,1.21.18,2.41.55,3.47,1.15.21.12.53.07.73-.03.15-.08.32-.27.11-.39"/>
      <path d="M401.23,350.42c-1.59-.15-3.42-.98-4.12-2.24-1.05-1.9.28-4.88,2.36-5.9.23-.11.12-.28-.09-.35-.28-.08-.63,0-.86.12-1.81.89-3.13,3.35-2.99,5.07.13,1.61,1.57,2.83,3.45,3.43.56.18,1.16.31,1.75.37.24.02.68-.02.81-.2.13-.18-.08-.28-.31-.3"/>
      <path d="M417.99,351.21c-.07-.19.09-.3.22-.29.43.04.88-.05,1.27-.32.13.18.26.37.38.55-.87.03-1.76.26-2.57.72-.16.09-.38,0-.51-.12-.1-.09-.19-.3-.03-.4"/>
      <path d="M416.76,351.36c.91-.52,1.9-.75,2.87-.79.14,0,.32.08.41.22.07.11.08.25-.03.33"/>
      <path d="M421.29,351.66c1.04.03,2.31-.58,2.91-1.74.9-1.76.34-3.98-.87-5.23-.13-.14-.04-.3.1-.33.19-.05.4.07.54.22,1.06,1.09,1.67,2.79,1.37,4.49-.28,1.58-1.35,2.63-2.63,3-.38.11-.78.18-1.17.16-.16,0-.44-.1-.5-.29-.06-.2.09-.27.23-.27"/>
    </g>
    <path class="cls-23" d="M344.45,896.25c1.15-16.25,4.64-32.24,5.79-48.48.04-.61-1.42-.34-1.45.17-1.15,16.25-4.64,32.24-5.79,48.48-.04.61,1.42.34,1.45-.17h0Z"/>
    <path class="cls-17" d="M410.76,361.06c-7.75-.37-21.52-4.23-21.52-4.23,0,0,1.82,20.64,19.8,21.5,17.98.86,17.9-16.79,17.9-16.79,0,0-8.42-.1-16.17-.47Z"/>
    <path class="cls-2" d="M410.83,361.06c-3.69-.18-17.28-2.9-17.28-2.9,0,0,3,13.28,16.34,13.91,14.46.69,14.6-10.27,14.6-10.27l-13.66-.74Z"/>
    <path class="cls-14" d="M410.97,361.64c-3.69-.18-14.88-1.36-14.88-1.36,0,0,3.84,4.39,14.9,4.92,11.06.53,13.5-3.4,13.5-3.4l-13.52-.16Z"/>
    <path class="cls-17" d="M427.77,360.44c-.39-.12-1.67-.4-1.67-.4-3.04-.42-3.41-1.18-5.61-1.46-3.76-.48-6.23.95-7.87.87-1.64-.08-3.96-1.74-7.75-1.62-2.22.07-5.31.15-8.35-.26-4.44-.61-7.92-1.85-8.31-1.77-.55.11,1.83,6.44,22.46,7.43,20.63.98,17.65-2.63,17.11-2.79Z"/>
    <g class="cls-16">
      <circle class="cls-6" cx="201.13" cy="848.02" r="6.07"/>
      <circle class="cls-6" cx="271.34" cy="848.02" r="6.07"/>
      <circle class="cls-6" cx="236.23" cy="812.92" r="6.07"/>
      <circle class="cls-6" cx="236.23" cy="883.12" r="6.07"/>
      <circle class="cls-6" cx="236.23" cy="848.02" r="12.9"/>
      <circle class="cls-6" cx="201.13" cy="777.81" r="6.07"/>
      <circle class="cls-6" cx="271.34" cy="777.81" r="6.07"/>
      <circle class="cls-6" cx="236.23" cy="742.71" r="6.07"/>
      <circle class="cls-6" cx="236.23" cy="812.92" r="6.07"/>
      <circle class="cls-6" cx="236.23" cy="777.81" r="12.9"/>
      <circle class="cls-6" cx="341.55" cy="848.02" r="6.07"/>
      <circle class="cls-6" cx="306.44" cy="812.92" r="6.07"/>
      <circle class="cls-6" cx="306.44" cy="883.12" r="6.07"/>
      <circle class="cls-6" cx="306.44" cy="848.02" r="12.9"/>
      <circle class="cls-6" cx="341.55" cy="777.81" r="6.07"/>
      <circle class="cls-6" cx="306.44" cy="742.71" r="6.07"/>
      <circle class="cls-6" cx="306.44" cy="812.92" r="6.07"/>
      <circle class="cls-6" cx="306.44" cy="777.81" r="12.9"/>
      <circle class="cls-6" cx="271.34" cy="812.92" r="12.9"/>
      <circle class="cls-6" cx="411.76" cy="848.02" r="6.07"/>
      <circle class="cls-6" cx="376.65" cy="812.92" r="6.07"/>
      <circle class="cls-6" cx="376.65" cy="883.12" r="6.07"/>
      <circle class="cls-6" cx="376.65" cy="848.02" r="12.9"/>
      <circle class="cls-6" cx="411.76" cy="777.81" r="6.07"/>
      <circle class="cls-6" cx="376.65" cy="742.71" r="6.07"/>
      <circle class="cls-6" cx="376.65" cy="812.92" r="6.07"/>
      <circle class="cls-6" cx="376.65" cy="777.81" r="12.9"/>
      <circle class="cls-6" cx="341.55" cy="812.92" r="12.9"/>
      <circle class="cls-6" cx="481.97" cy="848.02" r="6.07"/>
      <circle class="cls-6" cx="446.86" cy="812.92" r="6.07"/>
      <circle class="cls-6" cx="446.86" cy="883.12" r="6.07"/>
      <circle class="cls-6" cx="446.86" cy="848.02" r="12.9"/>
      <circle class="cls-6" cx="481.97" cy="777.81" r="6.07"/>
      <circle class="cls-6" cx="446.86" cy="742.71" r="6.07"/>
      <circle class="cls-6" cx="446.86" cy="812.92" r="6.07"/>
      <circle class="cls-6" cx="446.86" cy="777.81" r="12.9"/>
      <circle class="cls-6" cx="411.76" cy="812.92" r="12.9"/>
      <circle class="cls-6" cx="519.01" cy="812.92" r="6.07"/>
      <circle class="cls-6" cx="483.9" cy="812.92" r="12.9"/>
      <circle class="cls-6" cx="271.34" cy="707.6" r="6.07"/>
      <circle class="cls-6" cx="271.34" cy="742.71" r="12.9"/>
      <circle class="cls-6" cx="236.23" cy="672.5" r="6.07"/>
      <circle class="cls-6" cx="306.44" cy="672.5" r="6.07"/>
      <circle class="cls-6" cx="271.34" cy="637.39" r="6.07"/>
      <circle class="cls-6" cx="271.34" cy="707.6" r="6.07"/>
      <circle class="cls-6" cx="271.34" cy="672.5" r="12.9"/>
      <circle class="cls-6" cx="201.13" cy="707.6" r="6.07"/>
      <circle class="cls-6" cx="236.23" cy="707.6" r="12.9"/>
      <circle class="cls-6" cx="341.55" cy="707.6" r="6.07"/>
      <circle class="cls-6" cx="341.55" cy="742.71" r="12.9"/>
      <circle class="cls-6" cx="376.65" cy="672.5" r="6.07"/>
      <circle class="cls-6" cx="341.55" cy="637.39" r="6.07"/>
      <circle class="cls-6" cx="341.55" cy="707.6" r="6.07"/>
      <circle class="cls-6" cx="341.55" cy="672.5" r="12.9"/>
      <circle class="cls-6" cx="306.44" cy="707.6" r="12.9"/>
      <circle class="cls-6" cx="411.76" cy="707.6" r="6.07"/>
      <circle class="cls-6" cx="411.76" cy="742.71" r="12.9"/>
      <circle class="cls-6" cx="446.86" cy="672.5" r="6.07"/>
      <circle class="cls-6" cx="411.76" cy="637.39" r="6.07"/>
      <circle class="cls-6" cx="411.76" cy="707.6" r="6.07"/>
      <circle class="cls-6" cx="411.76" cy="672.5" r="12.9"/>
      <circle class="cls-6" cx="376.65" cy="707.6" r="12.9"/>
      <circle class="cls-6" cx="517.07" cy="742.71" r="6.07"/>
      <circle class="cls-6" cx="481.97" cy="707.6" r="6.07"/>
      <circle class="cls-6" cx="481.97" cy="742.71" r="12.9"/>
      <circle class="cls-6" cx="481.97" cy="637.39" r="6.07"/>
      <circle class="cls-6" cx="481.97" cy="707.6" r="6.07"/>
      <circle class="cls-6" cx="481.97" cy="672.5" r="12.9"/>
      <circle class="cls-6" cx="446.86" cy="707.6" r="12.9"/>
      <circle class="cls-6" cx="199.52" cy="637.39" r="6.07"/>
      <circle class="cls-6" cx="269.73" cy="637.39" r="6.07"/>
      <circle class="cls-6" cx="234.62" cy="602.29" r="6.07"/>
      <circle class="cls-6" cx="234.62" cy="637.39" r="12.9"/>
      <circle class="cls-6" cx="199.52" cy="567.18" r="6.07"/>
      <circle class="cls-6" cx="269.73" cy="567.18" r="6.07"/>
      <circle class="cls-6" cx="234.62" cy="532.08" r="6.07"/>
      <ellipse class="cls-6" cx="234.62" cy="599.25" rx="6.07" ry="3.03"/>
      <circle class="cls-6" cx="234.62" cy="567.18" r="12.9"/>
      <circle class="cls-6" cx="339.94" cy="637.39" r="6.07"/>
      <circle class="cls-6" cx="304.83" cy="602.29" r="6.07"/>
      <circle class="cls-6" cx="304.83" cy="637.39" r="12.9"/>
      <circle class="cls-6" cx="339.94" cy="567.18" r="6.07"/>
      <circle class="cls-6" cx="304.83" cy="532.08" r="6.07"/>
      <circle class="cls-6" cx="304.83" cy="602.29" r="6.07"/>
      <circle class="cls-6" cx="304.83" cy="567.18" r="12.9"/>
      <circle class="cls-6" cx="269.73" cy="602.29" r="12.9"/>
      <circle class="cls-6" cx="410.15" cy="637.39" r="6.07"/>
      <circle class="cls-6" cx="375.04" cy="602.29" r="6.07"/>
      <circle class="cls-6" cx="375.04" cy="637.39" r="12.9"/>
      <circle class="cls-6" cx="410.15" cy="567.18" r="6.07"/>
      <circle class="cls-6" cx="375.04" cy="532.08" r="6.07"/>
      <circle class="cls-6" cx="375.04" cy="602.29" r="6.07"/>
      <circle class="cls-6" cx="375.04" cy="567.18" r="12.9"/>
      <circle class="cls-6" cx="339.94" cy="602.29" r="12.9"/>
      <circle class="cls-6" cx="480.36" cy="637.39" r="6.07"/>
      <circle class="cls-6" cx="445.25" cy="602.29" r="6.07"/>
      <circle class="cls-6" cx="445.25" cy="637.39" r="12.9"/>
      <circle class="cls-6" cx="480.36" cy="567.18" r="6.07"/>
      <circle class="cls-6" cx="445.25" cy="532.08" r="6.07"/>
      <circle class="cls-6" cx="445.25" cy="602.29" r="6.07"/>
      <circle class="cls-6" cx="445.25" cy="567.18" r="12.9"/>
      <circle class="cls-6" cx="410.15" cy="602.29" r="12.9"/>
      <circle class="cls-6" cx="517.4" cy="602.29" r="6.07"/>
      <circle class="cls-6" cx="482.29" cy="602.29" r="12.9"/>
      <circle class="cls-6" cx="269.73" cy="496.97" r="6.07"/>
      <circle class="cls-6" cx="269.73" cy="532.08" r="12.9"/>
      <circle class="cls-6" cx="234.62" cy="461.87" r="6.07"/>
      <circle class="cls-6" cx="304.83" cy="461.87" r="6.07"/>
      <circle class="cls-6" cx="269.73" cy="426.76" r="6.07"/>
      <circle class="cls-6" cx="269.73" cy="496.97" r="6.07"/>
      <circle class="cls-6" cx="269.73" cy="461.87" r="12.9"/>
      <circle class="cls-6" cx="199.52" cy="496.97" r="6.07"/>
      <circle class="cls-6" cx="234.62" cy="496.97" r="12.9"/>
      <circle class="cls-6" cx="339.94" cy="496.97" r="6.07"/>
      <circle class="cls-6" cx="339.94" cy="532.08" r="12.9"/>
      <circle class="cls-6" cx="375.04" cy="461.87" r="6.07"/>
      <circle class="cls-6" cx="339.94" cy="426.76" r="6.07"/>
      <circle class="cls-6" cx="339.94" cy="496.97" r="6.07"/>
      <circle class="cls-6" cx="339.94" cy="461.87" r="12.9"/>
      <circle class="cls-6" cx="304.83" cy="496.97" r="12.9"/>
      <circle class="cls-6" cx="300.38" cy="410.82" r="12.9"/>
      <circle class="cls-6" cx="410.15" cy="496.97" r="6.07"/>
      <circle class="cls-6" cx="410.15" cy="532.08" r="12.9"/>
      <circle class="cls-6" cx="445.25" cy="461.87" r="6.07"/>
      <circle class="cls-6" cx="410.15" cy="426.76" r="6.07"/>
      <circle class="cls-6" cx="410.15" cy="496.97" r="6.07"/>
      <circle class="cls-6" cx="410.15" cy="461.87" r="12.9"/>
      <circle class="cls-6" cx="375.04" cy="496.97" r="12.9"/>
      <circle class="cls-6" cx="515.46" cy="532.08" r="6.07"/>
      <circle class="cls-6" cx="480.36" cy="496.97" r="6.07"/>
      <circle class="cls-6" cx="480.36" cy="532.08" r="12.9"/>
      <circle class="cls-6" cx="515.46" cy="461.87" r="6.07"/>
      <circle class="cls-6" cx="480.36" cy="426.76" r="6.07"/>
      <circle class="cls-6" cx="480.36" cy="496.97" r="6.07"/>
      <circle class="cls-6" cx="480.36" cy="461.87" r="12.9"/>
      <circle class="cls-6" cx="445.25" cy="496.97" r="12.9"/>
    </g>
    <path class="cls-22" d="M797.27,438.24c15.21-37.57-13.64-62.5-43.19-65.48-14.96-1.51-24.79,26.32-24.79,26.32-38.16,41.55-112.64,170.19-126.62,195.62,3.91,3.64,9.08,3.23,12.12,7.62,10.64,15.36,21.07,13.36,22.67,31.9.79,9.19-.93,22.61-2.8,31.78,24.2-9.36,43-37.47,58.02-57.29,22.62-29.84,41.84-61.88,61.47-93.69,15.22-24.66,32.21-49.81,43.13-76.78Z"/>
    <path class="cls-18" d="M732.48,364.18s75.12,11.75,77,57.35c1.88,45.59-38.16,132.78-38.16,132.78,0,0-81.91-23.8-117.39-52.58-35.48-28.78,78.54-137.54,78.54-137.54Z"/>
    <path class="cls-19" d="M801.66,464.27c-1.24,9.69-4.26,19.01-7.7,28.12s-6.81,17.99-10.56,26.83-7.73,17.77-10.32,27.11c-.31,1.1-.59,2.21-.86,3.32-.25,1.04-.36,2.21-.82,3.18-.08.18-.3.41-.35.58-.21.83.87-.55.97-.09,0,0-.7-.08-.75-.09-.75-.13-1.5-.31-2.24-.51-2.69-.71-5.03-2.18-7.68-2.99-2.97-.91-6.03-1.52-9.01-2.42-3.52-1.07-7.01-2.24-10.48-3.47-7.42-2.63-14.74-5.55-21.99-8.64-13.17-5.61-26.11-11.74-38.88-18.2-6.25-3.16-12.59-6.27-18.65-9.77-2.88-1.66-5.65-3.55-8.47-5.33l-2.35-1.48c-.1-.06-.43-.2-.48-.31s1.36-2.32,1.54-2.65c2.32-4.32,4.6-8.67,6.82-13.04,7.11-14,13.62-28.29,19.68-42.78,4.24-10.14,8.2-20.42,12.87-30.37,3.72-7.94,8.04-15.65,13.73-22.37,6-7.08,13.31-12.92,22.13-16.11,3.69-1.33,7.55-2.05,11.47-1.93.53.02,1.34-.11,1.76-.47.31-.27.41-.53-.15-.54-11.28-.35-22.54,5.11-30.91,12.42-5.35,4.67-9.85,10.49-13.59,16.5-4.48,7.21-7.96,14.99-11.26,22.79-4.36,10.28-8.47,20.66-12.93,30.89-6.21,14.27-12.97,28.29-20.26,42.04-1.11,2.09-2.22,4.16-3.35,6.24-.04.08-.02.15.05.2,5.27,3.32,10.45,6.69,15.94,9.62,11.56,6.16,23.3,12.02,35.17,17.55,15.91,7.41,32.14,14.4,48.91,19.66,3.45,1.08,6.98,1.85,10.45,2.87,1.77.52,3.35,1.42,5.03,2.15,1.2.52,2.53.84,3.8,1.14,1.39.33,2.8.63,4.17.08,2.06-.83,2.15-3.13,2.6-5.03,1.3-5.4,3.11-10.67,5.14-15.84s4.21-10.15,6.34-15.21,4.11-10.3,6.12-15.47c3.96-10.18,8.12-20.35,10.46-31.05.56-2.58,1.01-5.19,1.35-7.81.04-.3-2.39-.09-2.49.67h0Z"/>
    <path class="cls-22" d="M578.4,669.25s24.11,7.13,48.98.53c28.44-7.54,41.22-57.7,45.93-80.54,4.83-23.43-68.1,2.88-68.1,2.88l-26.82,77.13Z"/>
    <path class="cls-22" d="M594.87,672.25c8.26-.08,17.58.49,25.01-2.26.36-1.13.34-1.13.64-2.27,4.36-16.7,3.69-34.84-.83-51.43-3.12-11.46-2.12-21.32-10.03-30.38-1.32,1.94-4.7,7.29-4.7,7.29l-204.69-19.16s-14.06,32.2-14.06,32.2c66.1,30.07,131.9,52.35,203.42,65.1,1.74.31,3.49.62,5.24.91Z"/>
    <path class="cls-5" d="M427.39,576.92c1.09.56,2.66.59,3.84.76,2.79.4,5.59.71,8.39,1.01,8.75.95,17.52,1.76,26.29,2.55,10.38.94,20.76,1.83,31.15,2.7,8.9.75,17.8,1.48,26.7,2.2,4.3.35,8.62.81,12.93,1.03.06,0,.12,0,.19.01.41.03,1.68-.67.9-.73-3.5-.27-6.99-.55-10.49-.83-8.48-.68-16.97-1.38-25.45-2.08-10.33-.86-20.65-1.74-30.98-2.66-9.13-.81-18.26-1.65-27.38-2.6-3.16-.33-6.32-.67-9.46-1.07-1.69-.22-3.46-.36-5.11-.82.05.01-.24-.07-.35-.13-.38-.2-1.72.37-1.16.66h0Z"/>
    <path class="cls-5" d="M627.43,633.78c1.33-6.76,1.92-14-.39-20.62-2.05-5.86-6.33-10.45-11.42-13.87-3.59-2.42-7.51-4.31-11.51-5.97-.39-.16-1.49.44-1.37.49,6.42,2.67,12.92,5.99,17.68,11.18,4.13,4.5,6.28,10.21,6.65,16.27.26,4.29-.25,8.58-1.08,12.78-.06.3,1.36.08,1.43-.26h0Z"/>
    <path class="cls-19" d="M653.44,489.92c4.13,2.5,8.32,4.92,12.52,7.31,9.71,5.54,19.52,10.89,29.47,15.99,11.19,5.73,22.56,11.2,34.28,15.76,10.77,4.19,21.8,8.09,32.97,11.06,2.18.58,4.38,1.13,6.61,1.48.76.12,1.59.27,2.36.19.02,0,.04,0,.06,0,.6-.09,1.54-.41,1.6-1.14.06-.68-.76-.99-1.33-.9-.23.04-.35-.01.09.01-.33-.02-.66-.04-.99-.08-1.93-.23-3.21-.56-5.06-1.02-10.57-2.63-20.89-6.4-31.09-10.15-11.54-4.24-22.71-9.5-33.69-15.02-10.24-5.15-20.33-10.6-30.31-16.24-5.04-2.85-9.99-5.87-15.03-8.73-.07-.04-.14-.09-.22-.13-1.04-.63-3.61.81-2.24,1.63h0Z"/>
    <path class="cls-5" d="M370.71,566.91c-6.74,1.51-12.67,5.93-16.03,11.97-.39.7,1.08.69,1.38.15,3.13-5.63,8.62-9.75,14.9-11.16.9-.2.64-1.17-.26-.96h0Z"/>
    <path class="cls-22" d="M298.31,535.83c7.61,6.94,17.98,16.08,19.74,16.04,1.75-.05,13.5,1.54,23.77,2.97,5.21.98,10.22-2.45,11.19-7.66.25-1.36-22.7-12.11-17.44-22.36l21.14,4.93c6.62,2.58,12.88,6,18.63,10.17,6.83,5.62,20.82,27.87,20.82,27.87l27.06,5.65-13.03,39.07-25.57-2.26-27.3,1.5s-49.71-8.46-54.83-13.75c-5.12-5.29-8.84-21.18-8.84-21.18-7.84-5.78-5.98-19.09-5.98-19.09-9.79-13.77.95-14.03.95-14.03-.44-.39-.77-.89-.94-1.45-1.9-6.09,6.12-10.58,10.63-6.4Z"/>
    <path class="cls-23" d="M337.51,570.2c-2.9.63-5.89.82-8.85.57-7.19.14-14.31-1.41-20.8-4.52-6.16-3.69-11.25-8.93-14.75-15.2-1.7-2.37-3.02-5-3.91-7.78,2,2.09,3.76,4.39,5.26,6.85,3.75,5.71,8.71,10.52,14.54,14.08,6.24,2.95,12.99,4.64,19.88,4.97,2.9.02,5.8.37,8.62,1.03Z"/>
    <path class="cls-23" d="M332.7,581.61c-2.57.99-5.35,1.33-8.08.98-2.94-.08-5.87-.38-8.76-.9-3.65-.51-7.15-1.77-10.29-3.7-2.85-2.16-5.44-4.65-7.73-7.4l-5.56-6.5c-1.87-1.89-3.46-4.04-4.71-6.39,2.22,1.47,4.22,3.25,5.93,5.29,1.73,1.71,3.74,3.8,5.93,6.17,2.26,2.55,4.76,4.88,7.47,6.95,2.89,1.84,6.11,3.09,9.48,3.7,2.77.61,5.58,1.06,8.4,1.38,4.84.52,7.87.43,7.91.43Z"/>
    <path class="cls-23" d="M325.96,594.74c-.14.93-9.02-.55-19.53-3.02-1.45-.38-2.77-1.11-3.85-2.15-.96-.81-1.87-1.68-2.72-2.61-1.46-1.52-2.78-3.18-3.92-4.96-1.96-3.05-2.56-5.26-2.27-5.36s1.36,1.75,3.58,4.4c1.27,1.55,2.62,3.03,4.06,4.44.84.84,1.73,1.62,2.66,2.36.83.78,1.83,1.35,2.93,1.64,5.38,1.21,10.07,2.51,13.52,3.45,1.91.4,3.77,1,5.54,1.81Z"/>
    <path class="cls-22" d="M276.83,486.14c14.24,34.03,33.16,102.77,63.34,120,37.33,21.31,149.03-9.22,149.03-9.22l-1.31-26.9-118.49-11.08s-40.36-97.12-44.54-111.87c0,0-12.91-50.41-46.1-31.23"/>
    <path class="cls-12" d="M356.47,474.33c-6.3-13.61-15.48-37.27-24.66-51.48-9.05-8.42-17.81-23.23-31.24-23.37-15.34-.16-15.5,1.25-30.67,14.15-8.29,6.16-10.78,25.72-11.55,31.42-3.33,24.7,4.95,46.46,18.39,70.49l3.19,1.84c27.92,3.52,54.4-11.71,78.42-26.38,3.84-5.36.9-10.71-1.87-16.69Z"/>
    <path class="cls-22" d="M465.91,571.94l4.42,14.78,4.41,14.75s21.74,1.2,27.88-.31c6.13-1.51,20.94-3.27,20.94-3.27-.53,1.88-.39,3.89.4,5.67,1.05,1.99,2.87,3.46,5.04,4.07l5.17-10.62c2.38,4.28,6,.36,6,.36l3.56-9.21c2.71,5.44,7.52.45,7.52.45l1.11-12.39c1.76,1.77,3.86,3.18,6.17,4.14,2.95.94,3.24-3.95,3.24-3.95l-12.98-17.37-29.41-4.73-43.97,12.81-9.48,4.82Z"/>
    <path class="cls-5" d="M292.87,536.7c3.16,6.89,7,13.49,10.84,20.01,5.03,8.54,10.31,16.95,16.01,25.05,2.51,3.57,5.11,7.1,7.9,10.46,2.09,2.51,4.28,5.03,6.84,7.08,5.55,4.44,13.05,6.62,19.88,8.07,9.02,1.92,18.29,2.56,27.5,2.7,10.35.15,20.71-.38,31.02-1.29,18.29-1.61,36.48-4.37,54.51-7.83,1.69-.32,3.37-.65,5.05-.99,1.31-.26,2.79-.79,4.12-.8,2.43-.02,5,.52,7.43.73,2.89.25,5.79.46,8.69.57,2.18.08,4.39.15,6.56-.06,1.91-.18,3.8-.55,5.71-.75,4.6-.49,9.21-.8,13.82-1.07.88-.05,1.76-.1,2.64-.15l-.41-.19c-1.43,4.38.61,8.62,4.89,10.26.34.13,1.12-.08,1.31-.41,1.96-3.41,3.92-6.83,5.88-10.24l-1.44.32c1.08,2.11,2.87,2.76,5.07,1.93.92-.35,1.98-.89,2.46-1.77,1.53-2.77,2.7-5.79,4.04-8.66l-1.44.32c1.2,2.69,3.46,3.43,6.13,2.39,1.01-.39,2.61-1.04,2.85-2.19.81-3.9,1.25-7.91,1.88-11.84l-1.4.37c1.56,1.76,3.39,3.26,5.48,4.35,1.07.56,2.28.58,3.33-.07s2.25-2.73,1.93-3.96c-.11-.42-.6-.93-.84-1.3l-1.71-2.64c-1.48-2.29-2.96-4.59-4.44-6.88l-3.81-5.89c-.38-.59-.66-1.33-1.3-1.59-1.3-.52-2.88-.67-4.24-.98-2.48-.57-4.95-1.15-7.43-1.72-4.93-1.14-9.85-2.28-14.78-3.42-.84-.2-1.9-.64-2.78-.54-.65.08-1.33.39-1.95.59-9.22,2.85-18.44,5.71-27.66,8.56-4.26,1.32-8.51,2.63-12.77,3.95-.8.25-2,.39-2.71.84-.06.04-.43.11.12,0s-.23-.03-.39-.03c-.23,0-.46.01-.68,0-.08,0-.17-.02-.25-.02-5.22-.33-10.44-.92-15.66-1.38-10.3-.91-20.6-1.81-30.91-2.72-11-.97-22.01-1.93-33.01-2.9-7.47-.66-14.93-1.31-22.4-1.97l-2.38-.21c-.19-.02-.39-.03-.58-.05-.34-.04.14.16.07.03-2.62-5.37-4.96-10.9-7.22-16.43-1.72-4.21-3.35-8.46-4.8-12.78-.12-.37-1.56.06-1.45.39,2.72,8.1,6.04,16,9.54,23.8.53,1.18,1.07,2.36,1.61,3.54.24.51.46,1.4.85,1.83.25.27.44.25.82.28,5.47.5,10.94.96,16.41,1.44,10.19.9,20.38,1.79,30.57,2.69,10.82.95,21.64,1.9,32.46,2.85,7.36.65,14.72,1.29,22.08,1.94,1.11.1,2.23.24,3.34.29,2.28.1,4.4-.85,6.55-1.52,9.77-3.02,19.54-6.05,29.31-9.07l10.12-3.13c.23-.07.64-.12.84-.26.01-.01-.92-.14-.28.09,1.36.47,2.89.67,4.28.99,5.14,1.19,10.27,2.38,15.41,3.57,2.19.51,4.37,1.01,6.56,1.52l1.9.44c.21.05.68.24.46.06.29.25.51.79.71,1.11l1.5,2.33,4.37,6.77,3.93,6.08c.35.53.75,1.06,1.05,1.63.22.41.19.37.05.95-.28,1.17-.84,3.15-2.36,2.4-2.09-1.04-3.93-2.61-5.48-4.35-.21-.23-1.35.06-1.4.37-.53,3.35-1.06,6.71-1.59,10.06-.1.62-.13,1.32-.31,1.92-.11.37.05.23-.37.53-.75.52-1.59,1.1-2.53,1.14-1.61.07-2.6-1.34-3.18-2.65-.17-.38-1.31.04-1.44.32-1.08,2.32-2.17,4.65-3.25,6.97-.26.56-.7,1.7-.96,1.98-1.6,1.75-3.55.75-4.48-1.08-.2-.39-1.28.04-1.44.32-1.96,3.41-3.92,6.83-5.88,10.24l1.31-.41c-4.11-1.58-5.99-5.75-4.64-9.92.07-.21-.3-.2-.41-.19-3.07.15-6.13.35-9.2.58-4.35.32-8.64.96-12.98,1.39-5.04.5-10.29-.11-15.32-.55-2.4-.21-4.92-.73-7.33-.72-1.33,0-2.81.53-4.11.8-16.96,3.42-34.08,6.19-51.28,8.05-19.73,2.13-40.06,3.46-59.78.6-7.83-1.13-15.89-2.99-22.84-6.92-5.92-3.36-10.21-9.06-14.23-14.41-5.93-7.89-11.3-16.22-16.43-24.65-4.37-7.18-8.62-14.46-12.42-21.95-.62-1.22-1.22-2.45-1.79-3.69-.17-.38-1.58.1-1.45.39h0Z"/>
    <path class="cls-23" d="M531.02,562.08c1.89.28,3.76.69,5.6,1.23,2.06.58,4.34,1.2,6.67,2.11,2.22.8,4.34,1.85,6.32,3.11,1,.58,1.74,1.54,2.03,2.66.22.87.38,1.76.48,2.66.42,1.72.47,3.51.13,5.24-.18,0-.35-1.88-1.03-5.02-.18-.78-.35-1.68-.6-2.51-.27-.85-.87-1.55-1.66-1.96-1.96-1.15-4.02-2.13-6.15-2.91-2.26-.85-4.47-1.51-6.52-2.13-2.06-.63-3.86-1.2-5.39-1.51-1.66-.28-3.36-.28-5.02,0,1.51-1.01,3.37-1.37,5.14-.98Z"/>
    <path class="cls-23" d="M527.59,573.24c2.96.68,7.15,1.18,11.69,2.51,1.21.26,2.35.8,3.34,1.56.69.9,1.24,1.9,1.63,2.96.83,1.69,1.22,3.56,1.13,5.45-.21,1.21-.52,2.4-.93,3.56-.25.8-.48,1.25-.48,1.25,0,0-.1-.5,0-1.36.1-.85.5-2.08.5-3.51-.03-1.75-.48-3.47-1.3-5.02-.37-.89-.85-1.73-1.43-2.51-.85-.58-1.8-.99-2.81-1.2-4.39-1.28-8.61-1.96-11.54-2.89-1.65-.34-3.21-1.01-4.59-1.96,1.62.28,3.22.67,4.79,1.15Z"/>
    <path class="cls-23" d="M534.94,595.79c.42-1.14.48-2.38.18-3.56-.45-1.36-1.54-2.42-2.91-2.84-1.47-.45-3-.67-4.54-.63l-3.96-.15c-1-.05-1.93-.18-2.51-.18s-.8.18-.9.15.13-.48.83-.65c.89-.16,1.78-.24,2.68-.25l3.96-.13c1.7-.12,3.4.08,5.02.6,1.77.56,3.14,1.98,3.64,3.76.29,1.41.12,2.88-.48,4.19-1.03,2.13-2.01,3.06-2.13,3.06-.2-.1.55-1.33,1.13-3.39Z"/>
    <path class="cls-5" d="M369.26,558.14c-9.22,2.19-17.31,8.31-21.84,16.64-.35.64,1.11.54,1.36.08,4.32-7.93,11.91-13.81,20.7-15.9.89-.21.67-1.03-.22-.82h0Z"/>
  </g>
</svg>