<?xml version="1.0" encoding="UTF-8"?>
<svg id="Layer_1" data-name="Layer 1" xmlns="http://www.w3.org/2000/svg" viewBox="0 0 121.68 121.1">
  <defs>
    <style>
      .cls-1 {
        fill: #a66e53;
      }

      .cls-2 {
        fill: #4f2e25;
      }
    </style>
  </defs>
  <path class="cls-1" d="M24.58,59.07v-25.83s10.24-8.75,23.26-9.55c13.02-.8,37.62-1.33,39.62-1.33s5.86.92,6.16,5.86-1.23,6.17-1.23,6.17c0,0,3.74,0,3.82,7.37.06,2-.4,3.99-1.35,5.75,0,0,2.9,1.46,3.06,5.78.15,4.31-1.59,6.14-3.78,6.76.8,2.15.9,4.5.26,6.7-1.07,3.54-4.46,5.24-8.01,5.7s-17.41,0-17.41,0c0,0,4.31,10.35,4.46,16.96s-2.31,13.25-8.16,13.1-8.32-2.78-8.32-6.47c0,0,1.03-6.74-1.28-12-2.31-5.26-10.91-11.67-13.94-14.22-2.19-1.85-5.65-2.3-8.33-2.98-3.41-.86-6.18-1.67-8.44-4.57-.14-.16-.25-.35-.32-.55-.05-.18-.07-.36-.06-.54v-2.1Z"/>
  <path class="cls-2" d="M69.17,72.02c.06,0-.34-.1-.51-.16-.49-.2-.94-.5-1.31-.87-1.5-1.46-1.84-3.75-1.73-5.79.14-2.3,1.42-5.08,4.03-4.77.53.06,1.19-.65.41-.8-.18-.07-.36-.12-.55-.17-.48-.18-.93-.42-1.35-.72-1.4-1.05-2.29-2.64-2.44-4.38-.22-1.89,0-4.3,1.33-5.79.32-.37.71-.65,1.15-.84.12-.05.25-.08.37-.12s-.1,0,.05,0c.46-.05,1-.71.26-.8-2.27-.28-3.64-2.72-3.78-4.93-.15-2.39.58-5.87,3-6.92.4-.18.44-.66-.05-.72-3.02-.37-2.72-4.23-2.57-6.46.07-1.05.23-2.24,1.11-2.93,1.25-.96,3.25-.92,4.77-.96.64,0,.9-.8.11-.8-1.82.06-3.98.13-5.57,1.24-1.01.83-1.6,2.07-1.59,3.38-.14,1.75-.41,4.11.59,5.66.63.92,1.62,1.53,2.72,1.67v-.72c-5.04,2.13-5.29,12.48.84,13.23l.26-.8c-3.36.37-4.37,4.42-4.23,7.2.17,2.99,2.07,5.84,5.14,6.41l.41-.8c-3.1-.33-5.24,2.28-5.57,5.14-.34,3.02.62,7.53,4.27,8.06.54.09,1.19-.68.41-.8h.02Z"/>
  <path class="cls-2" d="M69.04,60.38h24.88c.49,0,1.2-.74.43-.74h-24.86c-.49,0-1.2.74-.43.74h-.02Z"/>
  <path class="cls-2" d="M68.46,47.58l22.74.32h3.18c.52,0,1.2-.76.42-.8l-22.74-.32-3.18-.05c-.52,0-1.2.8-.42.8v.05Z"/>
  <path class="cls-2" d="M67.1,34.95l21.96-.22h3.14c.45,0,1.22-.7.44-.69l-21.96.22h-3.18c-.45,0-1.21.7-.44.69h.04Z"/>
  <path class="cls-2" d="M63.79,68.24c0-3.54-.05-7.09-.15-10.63-.07-2.39-.15-4.7-.38-7.04-.05-.88-.21-1.76-.48-2.6-.51-1.23-1.31-2.32-2.33-3.18-1.89-1.7-4.58-3.37-7.16-3.69-.31,0-1.34.49-.72.57,2.34.29,4.77,1.81,6.51,3.3,1.11.87,1.99,2,2.54,3.3.26.79.41,1.61.46,2.44.49,4.61.49,9.28.53,13.9v3.93c0,.29,1.15.09,1.15-.31l.03.02Z"/>
</svg>