<?xml version="1.0" encoding="UTF-8"?>
<svg id="Layer_3" data-name="Layer 3" xmlns="http://www.w3.org/2000/svg" xmlns:xlink="http://www.w3.org/1999/xlink" viewBox="0 0 1163.19 1163.19">
  <defs>
    <style>
      .cls-1 {
        fill: none;
      }

      .cls-2 {
        fill: #8a999b;
      }

      .cls-3 {
        fill: #004558;
      }

      .cls-4 {
        fill: #ebe2c6;
      }

      .cls-5 {
        fill: #fff;
      }

      .cls-6 {
        fill: #44211a;
      }

      .cls-7 {
        fill: #7e8985;
      }

      .cls-8 {
        fill: #8d9995;
      }

      .cls-9 {
        fill: #5c2d0d;
      }

      .cls-10 {
        fill: #e8e2d4;
      }

      .cls-11 {
        fill: #a97e62;
      }

      .cls-12 {
        fill: #484e4c;
      }

      .cls-13 {
        fill: #462921;
      }

      .cls-14 {
        fill: #dcf6fa;
        opacity: .63;
      }

      .cls-15 {
        clip-path: url(#clippath);
      }

      .cls-16 {
        fill: #3e4342;
      }
    </style>
    <clipPath id="clippath">
      <circle class="cls-1" cx="583.17" cy="582.33" r="581.59"/>
    </clipPath>
  </defs>
  <g class="cls-15">
    <rect class="cls-4" x="-13.26" y="-11.35" width="1184.82" height="875.56" rx="12" ry="12"/>
    <rect class="cls-11" x="-21.8" y="715.46" width="1209.94" height="491.36"/>
    <path class="cls-3" d="M588.16,812.06l510.78,11.69c7.57.17,11.49-8.38,6.14-13.43l-69.55-65.68-432.35-5.15-15.02,72.56Z"/>
    <path class="cls-3" d="M525.31,729.88h120.61c14.49,0,26.25,11.76,26.25,26.25v41.38c0,14.49-11.76,26.25-26.25,26.25h-120.61c-14.49,0-26.25-11.76-26.25-26.25v-41.38c0-14.49,11.76-26.25,26.25-26.25Z"/>
    <path class="cls-3" d="M583.07,812.06l-510.78,11.69c-7.57.17-11.49-8.38-6.14-13.43l69.55-65.68,445.62-10.2,1.75,77.61Z"/>
    <polygon class="cls-6" points="588.47 798.45 1088.63 807.96 1056.94 771.54 589.32 760.84 588.47 798.45"/>
    <g>
      <path class="cls-5" d="M1045.55,740.6l-61.55-49.91c-179.11-3.88-267.27-108.68-398.38-5.37v75.12c409.41,43.99,459.93-19.84,459.93-19.84Z"/>
      <path class="cls-13" d="M1046.91,740.11c-8.72-7.07-17.44-14.14-26.16-21.21l-33.66-27.29c-1.1-.89-1.52-1.47-2.95-1.51-7.51-.25-15-.53-22.49-1.07-14.29-1.02-28.54-2.7-42.69-4.95-25.48-4.06-50.58-10.02-75.48-16.73-22.19-5.97-44.22-12.55-66.54-17.99-20.07-4.9-40.49-8.85-61.17-9.8-20.38-.94-40.85,1.27-60.4,7.2-22.79,6.92-43.83,18.49-62.99,32.53-1.35.99-2.69,1.99-4.03,3.01-.68.51-1.35,1.03-2.02,1.55-.51.4-1.82,1.1-2.09,1.66-.12.26-.06.52-.08.81-.14,1.73,0,3.52,0,5.25v69.26c.05.1.14.15.26.16,36.67,3.94,73.4,7.35,110.19,9.99,30.55,2.19,61.14,3.86,91.76,4.77,24.8.74,49.62.97,74.43.46,19.55-.4,39.1-1.26,58.59-2.83,15.14-1.22,30.25-2.87,45.27-5.19,11.18-1.73,22.31-3.84,33.3-6.57,7.86-1.95,15.66-4.22,23.25-7.03,5.11-1.89,10.14-4.02,14.94-6.6,2.76-1.48,5.45-3.1,7.92-5.01.69-.53,2.37-1.53,2.69-2.41.03-.09.14-.17.21-.24.15-.19-2.32-.15-2.85.52.17-.22-.09.11-.24.25-.38.37-.76.74-1.16,1.09-1.79,1.55-3.15,2.45-5.25,3.74-3.46,2.12-6.68,3.69-10.54,5.36-5.35,2.32-11.42,4.45-17.12,6.17-8.42,2.54-16.98,4.59-25.6,6.33-11.63,2.35-23.37,4.15-35.15,5.6-15.32,1.88-30.7,3.18-46.1,4.09-19.58,1.16-39.19,1.7-58.81,1.81-24.04.15-48.07-.34-72.09-1.26-29.19-1.12-58.34-2.88-87.46-5.1-16.62-1.27-33.23-2.69-49.83-4.23-8.77-.82-17.54-1.67-26.3-2.56-4.81-.49-9.62-.98-14.43-1.49-1.92-.2-4.5-.04-6.32-.67-1.65-.58-.37.4-.65-.17-.18-.37,0-1.31,0-1.71v-3.16c0-3.2,0-6.4,0-9.6,0-8.92,0-17.84,0-26.76,0-8.21,0-16.42,0-24.63v-7.32c0-.38-.16-1.17,0-1.53.14-.31.38-.34.73-.6,1.57-1.14,3.07-2.38,4.62-3.54,20.51-15.4,43.34-28.09,68.21-34.8,21.1-5.69,43.04-6.74,64.73-4.63s44.5,7.49,66.26,13.3c24.12,6.44,48.05,13.55,72.29,19.51,27.35,6.73,55.06,12,83.11,14.75,7.81.77,15.64,1.34,23.48,1.72,1.82.09,3.63.17,5.45.23,1.99.07,4.38-.25,6.3.19.55.12.48.09,1.01.45,1.58,1.05,3.02,2.45,4.5,3.65,2.65,2.15,5.3,4.3,7.95,6.45,13.4,10.87,26.81,21.74,40.21,32.6,2.75,2.23,5.5,4.46,8.25,6.69.6.48,3.13-.65,2.73-.98Z"/>
    </g>
    <g>
      <path class="cls-5" d="M1000.83,666.83l-66.6-44.62c-117.26,19.96-251.56-103.78-348.62,63.27v65.44c86.55-141.08,270.6-46.02,415.22-84.09Z"/>
      <path class="cls-13" d="M1001.96,666.05c-9.16-6.13-18.31-12.27-27.47-18.4-12.2-8.17-24.4-16.35-36.6-24.52-.79-.53-1.64-1.32-2.52-1.69-1.54-.65-4.36.37-5.99.59-2.43.33-4.87.6-7.31.82-9.88.87-19.81.83-29.7.17-20.41-1.36-40.54-5.27-60.49-9.61-20.18-4.39-40.26-9.3-60.61-12.87-19.51-3.43-39.36-5.66-59.19-4.48-19.71,1.18-39.16,6.01-56.69,15.22-20.88,10.98-38.27,27.42-52.52,46.06-4.31,5.64-8.37,11.47-12.19,17.45-2.08,3.26-4.2,6.54-6.06,9.93-.41.75-.43.83-.47,1.55-.24,5.29,0,10.65,0,15.94,0,15.26,0,30.52,0,45.78v3.07c0,1.42,2.36.72,2.83-.04,15.02-24.41,35.52-45.04,61.09-58.28,23.88-12.36,50.51-18.01,77.14-20.29,28.87-2.47,57.93-1.23,86.81.46,30.13,1.77,60.24,4.18,90.44,4.61,29.53.42,59.27-1.02,88.19-7.33,3.49-.76,6.96-1.6,10.42-2.5,1.77-.46,1.31-2.21-.47-1.74-29.1,7.63-59.32,9.81-89.31,9.75-30.48-.06-60.9-2.4-91.31-4.26-29.2-1.79-58.56-3.29-87.8-1.37-26.9,1.77-53.97,6.63-78.61,17.93-25.49,11.69-46.9,30.2-62.96,53.12-2.22,3.17-4.33,6.41-6.36,9.7l2.83-.04c0-12.01,0-24.02,0-36.03,0-7.57,0-15.14,0-22.71,0-1.96-.11-3.94,0-5.9.03-.63.04-.63.29-1.2.75-1.75,2.03-3.43,3.02-5.06s2.01-3.26,3.04-4.87c13.57-21.26,30.28-41.04,51.37-55.18,16.68-11.19,35.73-18.17,55.62-20.8,19.34-2.55,38.95-1.28,58.19,1.53,20.17,2.95,40.05,7.61,59.93,12.06s39.56,8.74,59.67,11.09c9.74,1.13,19.55,1.79,29.36,1.7,4.89-.05,9.77-.27,14.64-.71,2.37-.22,4.73-.48,7.08-.81,1.14-.16,2.28-.33,3.41-.51.57-.09,1.24-.07.4-.39.03.01.06.04.09.06,3.33,1.76,6.42,4.3,9.54,6.39,6.51,4.36,13.02,8.72,19.53,13.09,11.77,7.88,23.54,15.77,35.3,23.65.71.47,1.41.95,2.12,1.42.93.62,3.55-.69,2.27-1.55Z"/>
    </g>
    <polygon class="cls-6" points="582.76 798.45 82.6 807.96 114.28 771.54 581.91 760.84 582.76 798.45"/>
    <g>
      <path class="cls-5" d="M125.68,740.6l61.55-49.91c179.11-3.88,267.27-108.68,398.38-5.37v69.16c-409.41,43.99-459.93-13.88-459.93-13.88Z"/>
      <path class="cls-13" d="M126.85,740.86c6.93-5.62,13.85-11.23,20.78-16.85,11.05-8.96,22.09-17.91,33.14-26.87,2.54-2.06,5.09-4.12,7.63-6.19l-1.72.59c41.67-.94,82.74-7.73,123.11-17.84,33.58-8.41,66.61-19.15,100.48-26.38,30.5-6.51,62-9.36,92.71-2.46,16.46,3.7,32.22,9.98,46.99,18.09,8.56,4.7,16.78,9.98,24.7,15.69,2.26,1.63,4.49,3.3,6.7,5,.68.52,2.59,1.51,2.79,2.04.28.75,0,2.14,0,2.93v66.04l1.64-1.01c-36.54,3.92-73.13,7.36-109.78,10.11-30.4,2.28-60.83,4.08-91.29,5.2-24.53.89-49.08,1.35-73.63,1.13-19.49-.17-38.98-.76-58.43-1.99-15.05-.95-30.09-2.28-45.04-4.24-11.1-1.46-22.16-3.25-33.1-5.62-7.71-1.67-15.37-3.62-22.86-6.07-4.86-1.59-9.69-3.41-14.32-5.63-2.67-1.28-5.28-2.69-7.72-4.37-.71-.49-1.5-1.37-2.51-2.04-.03-.02-.06-.07-.09-.1-.69-.79-3.46.27-2.69,1.16.5.57,1.14,1.05,1.74,1.51,2.03,1.56,4.24,2.86,6.5,4.05,4.1,2.15,8.4,3.92,12.75,5.48,6.83,2.46,13.83,4.44,20.89,6.15,10.09,2.43,20.3,4.3,30.56,5.84,13.96,2.1,28,3.59,42.07,4.7,18.4,1.45,36.84,2.26,55.29,2.65,23.53.5,47.07.32,70.59-.3,28.94-.77,57.85-2.21,86.74-4.12,35.19-2.32,70.33-5.35,105.43-8.85,9.51-.95,19.03-1.94,28.53-2.96.44-.05,1.64-.4,1.64-1.01v-66.63c0-1.32.32-2.52-.69-3.4-4.94-4.27-10.55-8-15.95-11.65s-10.5-6.81-15.94-9.89c-9.8-5.53-20.05-10.28-30.67-14.02-19.21-6.75-39.48-9.88-59.83-9.65-20.25.23-40.32,3.55-60.03,8.02-21.68,4.92-43.03,11.2-64.45,17.1-24.04,6.63-48.22,12.83-72.76,17.34-13.36,2.46-26.82,4.43-40.33,5.84-7.13.74-14.27,1.33-21.43,1.75-3.89.23-7.78.41-11.67.54-2.18.07-5.37-.5-7.26.75-2.9,1.93-5.54,4.49-8.24,6.68-5.97,4.84-11.94,9.68-17.9,14.52-11.13,9.02-22.26,18.05-33.39,27.07-.67.54-1.34,1.08-2,1.62-1.3,1.05,1.57,1.15,2.34.53Z"/>
    </g>
    <g>
      <path class="cls-10" d="M82.72,806.4l42.96-65.8c179.11-3.88,364.11-122.55,475.64,33.56l-74.96,25.5c-58.43-43.93-129.97,3.66-443.64,6.74Z"/>
      <path class="cls-13" d="M84.15,806.15c12.56-19.23,25.11-38.46,37.67-57.7,1.76-2.7,3.53-5.4,5.29-8.11l-2.05.85c34.94-.79,69.63-5.81,103.93-12.28s68.09-14.39,102.21-21.23c31.96-6.4,64.3-11.98,96.94-13.12,29.81-1.04,60.08,1.97,88.1,12.69,29.71,11.37,55.05,31.28,74.99,55.9,3,3.7,5.87,7.5,8.65,11.38l.94-.74c-21.85,7.43-43.69,14.86-65.54,22.29-3.14,1.07-6.28,2.14-9.42,3.21l1.87-.15c-11.13-8.35-23.88-13.8-37.55-16.34-16.58-3.08-33.69-2.58-50.44-1.51-24.77,1.59-49.43,4.63-74.09,7.33-35.7,3.9-71.44,7.41-107.25,10.06-50.56,3.74-101.23,5.91-151.92,6.79-7.6.13-15.21.23-22.81.31-.64,0-3.28,1.23-1.87,1.22,34.78-.35,69.55-1.25,104.3-2.85,28.59-1.32,57.17-3.1,85.7-5.38,23-1.84,45.97-4,68.92-6.4,18.23-1.9,36.44-3.97,54.67-5.92,14.29-1.53,28.6-3.01,42.94-3.93,11.21-.72,22.48-1.12,33.7-.43,9.09.56,18.17,1.88,26.89,4.59,8.17,2.54,15.88,6.33,22.92,11.19,1.75,1.21,2.97,2.74,5.19,2.08,1.44-.43,2.86-.97,4.28-1.46,7.01-2.38,14.01-4.77,21.02-7.15,15.52-5.28,31.03-10.56,46.55-15.84.99-.34,1.97-.67,2.96-1.01.11-.04,1.14-.47.94-.74-13.1-18.28-28.65-34.86-47.06-47.87-16.22-11.46-34.4-19.9-53.54-25.16-39.41-10.84-81.18-8.54-121.22-2.81-45.83,6.56-90.83,17.83-136.19,26.91-23.22,4.65-46.56,8.81-70.08,11.61-11.74,1.4-23.53,2.46-35.34,3.07-2.81.14-5.63.26-8.44.35-1.83.06-5.02-.54-6.54.83-.51.46-.87,1.3-1.24,1.87-13.55,20.76-27.11,41.52-40.66,62.28-.39.6-.78,1.2-1.17,1.8-.22.34,2.39.23,2.86-.5Z"/>
    </g>
    <g>
      <path class="cls-10" d="M1088.51,806.4l-42.96-65.8c-165.69-3.59-373.3-103.27-459.93,13.88v30.28s59.05,14.89,59.05,14.89c94.03-54.78,130.18,3.67,443.84,6.75Z"/>
      <path class="cls-13" d="M1089.85,805.83c-5.8-8.88-11.59-17.76-17.39-26.63-7.86-12.04-15.72-24.09-23.59-36.13-.54-.83-1.14-2.31-1.93-2.95-.99-.8-3.11-.41-4.34-.44-3.05-.09-6.1-.21-9.15-.36-12.22-.6-24.41-1.66-36.56-3.01-25.34-2.83-50.51-6.99-75.59-11.51-25.32-4.56-50.56-9.51-75.87-14.05-24.19-4.34-48.47-8.32-72.91-10.96-22.32-2.41-44.82-3.72-67.26-2.49-20.14,1.1-40.3,4.34-59.28,11.31-17.93,6.58-34.51,16.66-48.11,30.11-3.5,3.46-6.8,7.12-9.89,10.94-1.1,1.35-3.35,3.38-3.82,5.07-.17.61,0,1.53,0,2.15v22.48c0,1.87,0,3.73,0,5.6,0,.38.2.53.57.62,13.03,3.29,26.07,6.57,39.1,9.86,6.22,1.57,12.44,3.14,18.66,4.7,2.08.52,3.25-.14,5.14-1.22,2.62-1.49,5.27-2.94,7.95-4.33,9.61-4.98,19.65-9.18,30.07-12.12,9.62-2.71,19.5-4.31,29.47-4.95,10.79-.7,21.63-.3,32.4.55,12.88,1.01,25.69,2.68,38.49,4.44,15.81,2.17,31.6,4.51,47.42,6.68,19.85,2.72,39.74,5.21,59.66,7.34,24.93,2.67,49.91,4.79,74.93,6.41,31.27,2.03,62.58,3.29,93.91,3.92,8.67.18,17.35.3,26.03.39,1.11.01,3.07-1.65,1.12-1.67-51.81-.52-103.62-2.6-155.26-6.95-35.51-2.99-70.88-7.17-106.17-12.09-24.06-3.36-48.09-7.24-72.29-9.56-18-1.72-36.27-2.39-54.19.5-17.88,2.89-34.8,9.38-50.69,17.96-2.26,1.22-4.5,2.48-6.72,3.77l1.79-.35c-17.25-4.35-34.5-8.7-51.75-13.05-2.43-.61-4.87-1.23-7.3-1.84l.57.62c0-5.88,0-11.75,0-17.63v-10.32c0-.64-.19-1.63,0-2.24.51-1.61,2.72-3.59,3.81-4.92,12.27-15.09,27.9-27.14,45.56-35.27,17.93-8.25,37.41-12.52,56.99-14.43,21.8-2.14,43.8-1.45,65.59.45,23.98,2.09,47.8,5.71,71.51,9.79,24.77,4.26,49.43,9.08,74.14,13.65,24.83,4.6,49.71,8.98,74.75,12.3,11.91,1.58,23.86,2.92,35.84,3.9,5.92.48,11.85.87,17.79,1.16,2.93.14,5.86.25,8.79.34,1.21.03,2.03-.35,2.57.13.93.83,1.62,2.48,2.3,3.52,1.45,2.23,2.91,4.45,4.36,6.68,4.19,6.41,8.37,12.82,12.56,19.24,7.41,11.35,14.82,22.7,22.23,34.05.43.67.87,1.33,1.3,2,.54.82,3.35-.13,2.69-1.14Z"/>
    </g>
    <g>
      <path class="cls-5" d="M163.77,659.64l58.04-43.62c117.26,19.96,266.74-97.59,363.8,69.45v65.44c-153.37-169.8-277.22-53.2-421.84-91.28Z"/>
      <path class="cls-13" d="M164.91,659.77c6.53-4.91,13.06-9.82,19.59-14.73,10.42-7.83,20.83-15.66,31.25-23.49,2.4-1.8,4.8-3.61,7.2-5.41l-2.05.55c15.02,2.53,30.34,2.83,45.52,1.88s31.67-3.31,47.34-6.04c16.29-2.84,32.48-6.15,48.74-9.14,16.21-2.98,32.49-5.68,48.91-7.19s31.88-1.81,47.73-.04,31.44,5.71,45.99,12.29c16.02,7.24,30.46,17.57,42.99,29.86,7.2,7.06,13.78,14.75,19.81,22.83,3.43,4.59,6.68,9.31,9.77,14.13,1.58,2.47,3.13,4.96,4.63,7.48.6,1,1.61,2.17,1.83,3.31.21,1.03,0,2.32,0,3.37,0,2.19,0,4.39,0,6.58v19c0,11.43,0,22.85,0,34.28,0,.67,0,1.35,0,2.02l2.81-.92c-24.95-27.58-53.42-52.51-86.52-69.83-25.56-13.37-53.45-21.51-82.13-24.4-26.57-2.68-53.3-1.08-79.79,1.67-26.74,2.77-53.37,6.69-80.21,8.43s-55.55,1.09-82.74-4.7c-3.56-.76-7.11-1.61-10.63-2.53-.62-.16-1.49-.04-2.04.33-.24.16-1,.74-.31.93,26.86,7.04,54.62,9.04,82.3,8,26.75-1,53.3-4.62,79.86-7.67,26.55-3.04,53.3-5.5,80.04-3.99,28.39,1.6,56.29,7.94,82.2,19.77,32.73,14.94,61.31,37.67,86.28,63.35,3.73,3.84,7.38,7.75,10.97,11.72.53.58,2.81-.09,2.81-.92,0-12.38,0-24.76,0-37.13v-22.57c0-1.71.24-3.62,0-5.31-.18-1.29-1.16-2.41-1.83-3.53-1.92-3.21-3.89-6.37-5.94-9.5-13.49-20.61-30.06-39.5-50.56-53.37-16.85-11.4-35.93-18.92-55.91-22.57-19.76-3.61-40.03-3.54-59.97-1.73-20.69,1.88-41.16,5.58-61.56,9.47s-40.67,8-61.22,10.69c-19.42,2.54-39.18,3.81-58.69,1.59-2.38-.27-4.75-.59-7.11-.97-1.39-.22-2.44-.42-3.69.36-1.15.72-2.21,1.66-3.29,2.47-5.4,4.06-10.81,8.12-16.21,12.19-12.05,9.06-24.1,18.11-36.15,27.17-.77.58-1.53,1.15-2.3,1.73-1.23.92,1.65.72,2.27.26Z"/>
    </g>
    <g>
      <path class="cls-5" d="M960.64,582.75l-56.76-42.51c-150.62,46.48-213.98-21.81-318.27,145.24v61.3c74.07-145.56,219.63-125.95,375.03-164.02Z"/>
      <path class="cls-13" d="M961.98,582.17c-9.36-7.01-18.72-14.02-28.08-21.03-6.45-4.83-12.9-9.67-19.36-14.5-2.18-1.63-4.36-3.27-6.55-4.9-.89-.67-1.78-1.53-2.76-2.07-.73-.4-1.27-.27-2.07-.04-1.5.42-2.99.91-4.49,1.35-2.85.84-5.71,1.66-8.58,2.44-5.5,1.51-11.04,2.9-16.59,4.19-10.37,2.4-20.83,4.41-31.34,6.07-18.3,2.88-36.75,4.62-55.2,6.15-16.08,1.33-32.21,2.51-48.16,4.98-15.11,2.34-30.04,5.93-44.21,11.76-15.58,6.4-29.91,15.43-42.83,26.2-16.92,14.12-31.44,30.99-44.52,48.66-4.02,5.43-7.9,10.95-11.68,16.54-2.02,2.99-4,5.99-5.96,9.02-.98,1.52-1.96,3.04-2.93,4.57-.76,1.19-2.18,2.72-2.52,4.08-.26,1.04,0,2.49,0,3.55,0,2.94,0,5.88,0,8.82,0,15.25,0,30.49,0,45.74v3.19c0,1.23,2.43.6,2.8-.13,12.98-25.44,29.82-48.91,51.15-68.02,18.96-16.99,40.99-30.09,64.44-39.86,24.28-10.12,49.84-16.83,75.56-22.16,27.54-5.71,55.37-9.86,83.14-14.27,29.69-4.71,59.36-9.7,88.67-16.41,3.65-.84,7.29-1.7,10.93-2.59,1.76-.43,1.35-1.95-.41-1.52-29.67,7.26-59.76,12.58-89.91,17.43-28.23,4.54-56.53,8.68-84.59,14.18-26.07,5.11-52,11.45-76.83,21-23.87,9.17-46.56,21.49-66.38,37.73-21.64,17.74-39.3,39.83-52.99,64.17-1.89,3.37-3.71,6.78-5.47,10.22l2.8-.13c0-8.79,0-17.58,0-26.36v-33.43c0-.39-.06-.85,0-1.24.18-1.07,1.22-2.15,1.81-3.08,3.12-4.93,6.31-9.82,9.58-14.66,5.84-8.64,11.94-17.1,18.38-25.3,10.62-13.51,22.22-26.33,35.28-37.53,10.39-8.91,21.76-16.74,34.04-22.82,10.92-5.4,22.46-9.39,34.31-12.22,11.84-2.82,23.91-4.5,36-5.78,13.16-1.39,26.36-2.32,39.54-3.47,14.82-1.29,29.61-2.85,44.31-5.12,17-2.62,33.86-6.16,50.45-10.71,4.46-1.22,8.9-2.52,13.32-3.88l-1.55-.18c6.41,4.8,12.82,9.6,19.23,14.41,10.16,7.61,20.32,15.22,30.49,22.84,2.35,1.76,4.69,3.51,7.04,5.27.84.63,3.52-.53,2.69-1.15Z"/>
    </g>
    <g>
      <path class="cls-5" d="M888.6,521.07l-50.15-50.14c-127.55,1.88-240.02,104.5-253.58,217l-1.43,56.2c34.41-129.34,145.93-207.43,305.16-223.06Z"/>
      <path class="cls-13" d="M889.92,520.43c-6.19-6.19-12.38-12.38-18.57-18.56-9.17-9.17-18.35-18.34-27.52-27.51l-3.33-3.32c-.22-.22-.44-.47-.68-.68-1.08-.93-3.12-.47-4.46-.43-10.79.3-21.56,1.33-32.22,3.04-21.07,3.39-41.66,9.43-61.28,17.81-19.45,8.3-37.93,18.88-54.99,31.36-16.8,12.29-32.26,26.44-45.92,42.14s-24.96,32.17-34.32,50.2c-9.07,17.46-16,36.07-20.16,55.32-1.03,4.77-1.89,9.58-2.57,14.42-.25,1.75-.49,3.46-.54,5.22-.13,4.91-.25,9.82-.38,14.73-.32,12.54-.64,25.07-.96,37.61-.02.82-.04,1.64-.06,2.47-.04,1.62,2.62.99,2.94-.21,6.48-24.3,16.01-47.79,28.67-69.53,12.26-21.05,27.44-40.35,44.91-57.33s38.19-32.29,59.86-44.63c23.08-13.14,47.72-23.45,73.07-31.31,27.94-8.66,56.74-14.41,85.78-17.86,3.76-.45,7.52-.85,11.28-1.22,1.63-.16,2.22-2.35.25-2.16-29.85,2.94-59.53,8.18-88.4,16.4-26.16,7.45-51.68,17.37-75.68,30.21-22.34,11.96-43.36,26.45-62.08,43.54-18.15,16.58-34.05,35.5-47.12,56.32-13.41,21.35-23.72,44.58-30.93,68.73-.9,3-1.75,6.02-2.55,9.05l2.94-.21c.16-6.32.32-12.65.48-18.97.26-10.12.52-20.24.77-30.36.06-2.25.03-4.53.17-6.78.18-2.78.72-5.59,1.18-8.34.59-3.62,1.29-7.22,2.08-10.79,3.2-14.5,8-28.62,14.1-42.15,6.26-13.88,13.87-27.14,22.6-39.61,8.86-12.65,18.84-24.5,29.74-35.43,11.1-11.14,23.16-21.31,35.98-30.41,12.96-9.2,26.7-17.28,41.06-24.11,14.54-6.92,29.69-12.53,45.25-16.68,15.68-4.18,31.75-6.86,47.94-7.9,4.02-.26,8.04-.42,12.07-.48l-1.2-.44c5.64,5.64,11.27,11.27,16.91,16.91,9,9,17.99,17.99,26.99,26.99,2.08,2.08,4.16,4.16,6.25,6.24.94.94,3.68-.26,2.65-1.29Z"/>
    </g>
    <path class="cls-9" d="M585.25,768.93c-21.76-18.94-47.16-33.16-74.92-41.13-26.63-7.64-54.51-9.59-82.1-8.5-30.04,1.19-59.84,5.83-89.39,11.19-32.31,5.86-64.45,12.69-96.8,18.35-33.71,5.9-67.69,10.58-101.9,12.13-4.32.2-8.64.34-12.96.44-1.6.04-2.27,2.04-.29,2,34.16-.77,68.13-4.81,101.82-10.35,32.11-5.29,63.96-11.92,95.93-17.98,29.88-5.66,59.94-10.87,90.3-13.05,27.89-2,56.24-1.34,83.58,5.02,27.59,6.41,53.35,18.74,75.66,36.2,3,2.35,5.94,4.79,8.82,7.3.9.78,3.47-.54,2.25-1.61h0Z"/>
    <path class="cls-9" d="M587.93,768.93c21.79-18.96,47.19-33.17,74.99-41.11,26.98-7.71,55.25-9.65,83.19-8.56,30.3,1.18,60.38,5.7,90.21,10.93,31.94,5.59,63.72,12.07,95.7,17.48,33.67,5.69,67.59,10.23,101.73,11.74,4.21.19,8.43.32,12.65.42,1.36.03,2.97-2,1.02-2.05-34.57-.77-68.95-4.82-103.07-10.29-32.71-5.25-65.17-11.82-97.77-17.7-30.39-5.48-61-10.43-91.86-12.2-28.06-1.61-56.47-.5-83.88,6.11-27.64,6.66-53.55,19.12-75.94,36.64-3.02,2.37-5.98,4.82-8.87,7.34-1.48,1.29.84,2.19,1.91,1.26h0Z"/>
    <path class="cls-9" d="M585.92,788.38c-21.94-19.09-47.52-33.37-75.42-41.64-27.37-8.12-56.07-10.53-84.51-9.95-30.97.63-61.78,4.72-92.33,9.62-33,5.29-65.82,11.6-98.81,16.92-34.26,5.52-68.75,10.01-103.44,11.52-4.27.19-8.55.32-12.83.42-1.54.03-2.32,1.89-.33,1.85,34.44-.77,68.71-4.65,102.74-9.82,32.78-4.98,65.35-11.18,98.04-16.69,30.68-5.17,61.55-9.81,92.65-11.46,28.63-1.51,57.66-.39,85.64,6.27,27.95,6.65,54.17,19.01,76.86,36.66,3.1,2.41,6.12,4.91,9.08,7.49.87.75,3.59-.4,2.67-1.2h0Z"/>
    <path class="cls-9" d="M588.58,788.17c22.12-19.25,48.04-33.42,76.29-41.35,27.76-7.79,56.8-9.72,85.52-8.75,31.07,1.06,61.96,5.43,92.6,10.5,32.71,5.42,65.26,11.74,97.99,17.03,33.78,5.47,67.78,9.88,101.99,11.38,4.3.19,8.61.33,12.91.43.99.02,3.11-1.44,1.17-1.48-35.16-.79-70.15-4.88-104.88-10.28-33.41-5.19-66.61-11.62-99.94-17.28-31.15-5.29-62.51-9.97-94.1-11.51-28.8-1.41-57.96-.09-86.07,6.73-27.97,6.78-54.29,19.24-76.99,36.97-3,2.34-5.92,4.77-8.79,7.26-1.21,1.05,1.65.9,2.29.34h0Z"/>
    <g>
      <path class="cls-5" d="M192.98,581.89l56.76-42.51c93.69-4.8,231.59-20.95,335.88,146.1v61.3c-92.45-170.52-250.92-155.64-392.64-164.88Z"/>
      <path class="cls-13" d="M193.9,582.41c8.88-6.65,17.77-13.31,26.65-19.96,6.36-4.77,12.73-9.53,19.09-14.3l7.01-5.25c1.2-.9,2.61-1.74,3.7-2.77.04-.04.25-.14.26-.2.04-.29-.67.54-.72.34,0,.03,1.46-.08,1.53-.08,1.9-.1,3.79-.2,5.69-.31,3.77-.21,7.54-.42,11.31-.63,8.01-.44,16.02-.86,24.03-1.17,17.1-.66,34.24-.81,51.34.1,18.3.97,36.55,3.17,54.47,7.08,19.28,4.21,38.12,10.4,56.01,18.74,19.8,9.23,38.38,21.02,55.3,34.85,19.77,16.16,37.27,34.96,52.71,55.26,4.37,5.75,8.59,11.63,12.65,17.61,2.15,3.16,4.25,6.35,6.31,9.56.86,1.34,2.17,2.85,2.78,4.27.08.18.08.12.13.34.3,1.46,0,3.31,0,4.8v56.24l2.79-.75c-16.22-29.86-36.47-57.65-61.56-80.68-21.34-19.58-45.9-35.38-72.42-47-25.58-11.21-52.66-18.58-80.12-23.49s-55.98-7.5-84.16-9.21-56.76-2.58-85.12-4.22c-3.35-.19-6.71-.4-10.06-.62-1.24-.08-3.03,1.71-1.07,1.84,28.04,1.82,56.12,2.7,84.18,4.21,28.11,1.51,56.24,3.63,84.08,7.98,27.59,4.31,54.93,10.9,80.91,21.22,26.7,10.61,51.75,25.29,73.66,43.9,25.04,21.27,45.7,47.25,62.36,75.49,2.29,3.88,4.5,7.8,6.65,11.76.44.81,2.79.15,2.79-.75v-35.91c0-7.03,0-14.07,0-21.1,0-1.33.21-2.87,0-4.19-.05-.34-.14-.51-.31-.85-.87-1.76-2.16-3.43-3.22-5.08-2.06-3.21-4.17-6.38-6.32-9.54-15.2-22.3-32.57-43.22-52.48-61.48-16.69-15.3-35.14-28.7-55.09-39.42-17.78-9.56-36.67-16.97-56.15-22.23-18.18-4.91-36.84-7.95-55.6-9.57-17.55-1.52-35.19-1.77-52.79-1.37-16.13.37-32.23,1.33-48.33,2.21-1.83.1-3.67.2-5.5.29-.97.05-1.83.07-2.66.61-1.23.8-2.37,1.78-3.55,2.66-5.37,4.02-10.74,8.04-16.11,12.07-11.57,8.67-23.14,17.33-34.71,26-.73.55-1.46,1.09-2.19,1.64-1.57,1.18.84,1.81,1.85,1.05Z"/>
    </g>
    <path class="cls-9" d="M583.89,808.47c-22.2-19.31-48.14-33.58-76.31-42.07-27.91-8.42-57.23-11.24-86.3-11.11-31.81.15-63.52,3.7-94.99,8.15-33.65,4.75-67.13,10.6-100.74,15.6-34.69,5.16-69.57,9.49-104.63,10.98-4.36.19-8.73.32-13.1.42-1.06.02-3.08,1.66-1.13,1.62,34.57-.77,68.99-4.44,103.22-9.24,33.61-4.71,67.06-10.52,100.62-15.56,31.7-4.77,63.59-8.94,95.66-10.06,29.48-1.04,59.25.55,87.98,7.59,28.33,6.94,55.08,19.47,78.09,37.45,3.04,2.38,6.01,4.84,8.92,7.37.76.66,3.46-.46,2.69-1.13h0Z"/>
    <path class="cls-9" d="M586.54,808.22c22.4-19.49,48.72-33.7,77.28-41.83,28.36-8.08,58.03-10.39,87.41-9.84,32.04.6,63.94,4.52,95.61,9.21,33.47,4.96,66.78,10.89,100.24,15.92,34.17,5.13,68.53,9.36,103.07,10.83,4.26.18,8.51.32,12.77.41.99.02,3.11-1.44,1.17-1.48-35.47-.79-70.78-4.74-105.87-9.82-34.13-4.94-68.09-10.98-102.17-16.18-32.06-4.89-64.31-9.1-96.75-10.19-29.59-.99-59.49.73-88.3,7.88-28.19,7-54.82,19.47-77.77,37.34-3.06,2.39-6.05,4.86-8.98,7.41-1.21,1.05,1.65.9,2.29.34h0Z"/>
    <path class="cls-6" d="M659.22,807.97c0-30.45-44.76-41.33-73.61-41.49-30.01-.17-73.61,11.04-73.61,41.49,0,1.37.07,2.73.2,4.08h146.82c.13-1.35.2-2.71.2-4.08Z"/>
    <g>
      <g>
        <path class="cls-8" d="M569.91,331.8c-1.09,1.11-1.85,2.42-2.34,3.8l-33.98-33.33,15.54-15.84,33.98,33.33c-1.37.51-2.66,1.3-3.75,2.41l-9.45,9.63Z"/>
        <path class="cls-12" d="M721.94,462.03l-9.45,9.63c-3.99,4.07-10.52,4.13-14.59.14l-127.85-125.42c-2.95-2.9-3.77-7.13-2.48-10.79.49-1.38,1.25-2.69,2.34-3.8l9.45-9.63c1.09-1.11,2.38-1.9,3.75-2.41,3.63-1.36,7.88-.63,10.83,2.27l127.85,125.42c4.07,3.99,4.13,10.52.14,14.59Z"/>
      </g>
      <g>
        <path class="cls-7" d="M541.37,294.35l7.77-7.92,33.98,33.33c-1.37.51-2.66,1.3-3.75,2.41l-4.72,4.81-35.87-34.3,2.59,1.67Z"/>
        <path class="cls-16" d="M579.36,322.17c1.09-1.11,2.38-1.9,3.75-2.41,3.63-1.36,7.88-.63,10.83,2.27l127.85,125.42c4.07,3.99,4.13,10.52.14,14.59l-5.16,5.26-142.14-140.32,4.72-4.81Z"/>
      </g>
      <path class="cls-2" d="M547.04,132.73c-47.05-46.15-122.61-45.43-168.76,1.62-46.15,47.05-45.43,122.61,1.62,168.76,47.05,46.15,122.61,45.43,168.76-1.62,46.15-47.05,45.43-122.61-1.62-168.76ZM539.89,140.02c43.02,42.21,43.69,111.3,1.48,154.33-42.21,43.02-111.3,43.69-154.32,1.48-43.02-42.21-43.69-111.3-1.48-154.32,42.21-43.02,111.3-43.69,154.32-1.48Z"/>
    </g>
    <circle class="cls-14" cx="463.47" cy="217.93" r="109.13" transform="translate(-18.35 391.55) rotate(-45)"/>
    <path class="cls-5" d="M459.95,124.49s-95.3,9.16-83.54,124.68c0,0,12.02-44.82,25.36-64.53,13.35-19.71,30.5-39.07,39.68-46.85s18.49-13.3,18.49-13.3Z"/>
    <g>
      <g>
        <g>
          <path class="cls-8" d="M350.04,420.43c-.52.67-.85,1.43-1.02,2.21l-20.55-15.88,7.41-9.58,20.55,15.88c-.71.37-1.36.87-1.88,1.55l-4.5,5.83Z"/>
          <path class="cls-12" d="M440.78,481.26l-4.5,5.83c-1.9,2.46-5.44,2.91-7.9,1.01l-77.34-59.76c-1.79-1.38-2.5-3.62-2.04-5.69.17-.78.5-1.54,1.02-2.21l4.5-5.83c.52-.67,1.17-1.18,1.88-1.55,1.88-.97,4.23-.85,6.02.54l77.34,59.76c2.46,1.9,2.91,5.44,1.01,7.9Z"/>
        </g>
        <g>
          <path class="cls-7" d="M332.17,401.97l3.7-4.79,20.55,15.88c-.71.37-1.36.87-1.88,1.55l-2.25,2.91-21.64-16.29,1.51.74Z"/>
          <path class="cls-16" d="M354.54,414.61c.52-.67,1.17-1.18,1.88-1.55,1.88-.97,4.23-.85,6.02.54l77.34,59.76c2.46,1.9,2.91,5.44,1.01,7.9l-2.46,3.18-86.03-66.92,2.25-2.91Z"/>
        </g>
        <path class="cls-2" d="M324.86,314.03c-28.46-21.99-69.36-16.75-91.35,11.71-21.99,28.46-16.75,69.36,11.71,91.35,28.46,21.99,69.36,16.75,91.35-11.71,21.99-28.46,16.75-69.36-11.71-91.35ZM321.46,318.43c26.03,20.11,30.82,57.51,10.71,83.54-20.11,26.03-57.51,30.82-83.54,10.71-26.03-20.11-30.82-57.51-10.71-83.54,20.11-26.02,57.51-30.82,83.54-10.71Z"/>
      </g>
      <circle class="cls-14" cx="285.04" cy="365.56" r="59.55" transform="translate(-175 308.62) rotate(-45)"/>
      <path class="cls-5" d="M277.14,315.15s-51.06,11.08-37.27,72.93c0,0,3.64-25.06,9.6-36.6,5.97-11.54,14.02-23.13,18.5-27.93,4.48-4.8,9.17-8.4,9.17-8.4Z"/>
    </g>
    <g>
      <g>
        <g>
          <path class="cls-8" d="M551.13,470.26c-.3.39-.49.83-.59,1.28l-11.94-9.22,4.3-5.57,11.94,9.22c-.41.21-.79.51-1.09.9l-2.61,3.38Z"/>
          <path class="cls-12" d="M603.83,505.58l-2.61,3.38c-1.1,1.43-3.16,1.69-4.59.59l-44.92-34.71c-1.04-.8-1.45-2.1-1.18-3.3.1-.45.29-.89.59-1.28l2.61-3.38c.3-.39.68-.69,1.09-.9,1.09-.56,2.46-.49,3.49.31l44.92,34.71c1.43,1.1,1.69,3.16.59,4.59Z"/>
        </g>
        <g>
          <path class="cls-7" d="M540.75,459.53l2.15-2.78,11.94,9.22c-.41.21-.79.51-1.09.9l-1.31,1.69-12.57-9.46.88.43Z"/>
          <path class="cls-16" d="M553.74,466.87c.3-.39.68-.69,1.09-.9,1.09-.56,2.46-.49,3.49.31l44.92,34.71c1.43,1.1,1.69,3.16.59,4.59l-1.43,1.85-49.97-38.87,1.31-1.69Z"/>
        </g>
        <path class="cls-2" d="M536.5,408.45c-16.53-12.77-40.28-9.73-53.06,6.8-12.77,16.53-9.73,40.28,6.8,53.06,16.53,12.77,40.28,9.73,53.06-6.8,12.77-16.53,9.73-40.28-6.8-53.06ZM534.53,411.01c15.12,11.68,17.9,33.4,6.22,48.52-11.68,15.12-33.4,17.9-48.52,6.22-15.12-11.68-17.9-33.4-6.22-48.52,11.68-15.12,33.4-17.9,48.52-6.22Z"/>
      </g>
      <circle class="cls-14" cx="513.38" cy="438.38" r="34.59" transform="translate(-159.62 491.41) rotate(-45)"/>
      <path class="cls-5" d="M508.79,409.1s-29.65,6.43-21.65,42.36c0,0,2.11-14.55,5.58-21.26,3.47-6.7,8.14-13.43,10.74-16.22,2.6-2.79,5.33-4.88,5.33-4.88Z"/>
    </g>
    <g>
      <g>
        <g>
          <path class="cls-8" d="M663.87,138.26c-.3.39-.49.83-.59,1.28l-11.94-9.22,4.3-5.57,11.94,9.22c-.41.21-.79.51-1.09.9l-2.61,3.38Z"/>
          <path class="cls-12" d="M716.58,173.59l-2.61,3.38c-1.1,1.43-3.16,1.69-4.59.59l-44.92-34.71c-1.04-.8-1.45-2.1-1.18-3.3.1-.45.29-.89.59-1.28l2.61-3.38c.3-.39.68-.69,1.09-.9,1.09-.56,2.46-.49,3.49.31l44.92,34.71c1.43,1.1,1.69,3.16.59,4.59Z"/>
        </g>
        <g>
          <path class="cls-7" d="M653.49,127.54l2.15-2.78,11.94,9.22c-.41.21-.79.51-1.09.9l-1.31,1.69-12.57-9.46.88.43Z"/>
          <path class="cls-16" d="M666.49,134.88c.3-.39.68-.69,1.09-.9,1.09-.56,2.46-.49,3.49.31l44.92,34.71c1.43,1.1,1.69,3.16.59,4.59l-1.43,1.85-49.97-38.87,1.31-1.69Z"/>
        </g>
        <path class="cls-2" d="M649.25,76.46c-16.53-12.77-40.28-9.73-53.06,6.8-12.77,16.53-9.73,40.28,6.8,53.06,16.53,12.77,40.28,9.73,53.06-6.8,12.77-16.53,9.73-40.28-6.8-53.06ZM647.28,79.02c15.12,11.68,17.9,33.4,6.22,48.52-11.68,15.12-33.4,17.9-48.52,6.22-15.12-11.68-17.9-33.4-6.22-48.52,11.68-15.12,33.4-17.9,48.52-6.22Z"/>
      </g>
      <circle class="cls-14" cx="626.13" cy="106.39" r="34.59" transform="translate(108.16 473.9) rotate(-45)"/>
      <path class="cls-5" d="M621.54,77.11s-29.65,6.43-21.65,42.36c0,0,2.11-14.55,5.58-21.26,3.47-6.7,8.14-13.43,10.74-16.22,2.6-2.79,5.33-4.88,5.33-4.88Z"/>
    </g>
    <g>
      <g>
        <g>
          <path class="cls-8" d="M800.27,327.83c-.6.6-1.03,1.31-1.3,2.06l-18.34-18.39,8.58-8.55,18.34,18.39c-.75.27-1.46.69-2.06,1.29l-5.21,5.2Z"/>
          <path class="cls-12" d="M882.43,399.83l-5.21,5.2c-2.2,2.19-5.77,2.19-7.96-.01l-69-69.22c-1.59-1.6-2.01-3.91-1.29-5.9.27-.75.7-1.46,1.3-2.06l5.21-5.2c.6-.6,1.31-1.02,2.06-1.29,1.99-.72,4.3-.29,5.9,1.3l69,69.22c2.19,2.2,2.19,5.77-.01,7.96Z"/>
        </g>
        <g>
          <path class="cls-7" d="M784.92,307.22l4.29-4.28,18.34,18.39c-.75.27-1.46.69-2.06,1.29l-2.61,2.6-19.36-18.93,1.41.93Z"/>
          <path class="cls-16" d="M805.48,322.64c.6-.6,1.31-1.02,2.06-1.29,1.99-.72,4.3-.29,5.9,1.3l69,69.22c2.19,2.2,2.19,5.77-.01,7.96l-2.85,2.84-76.71-77.43,2.61-2.6Z"/>
        </g>
        <path class="cls-2" d="M789,219.07c-25.39-25.47-66.63-25.54-92.1-.14-25.47,25.39-25.54,66.63-.14,92.1,25.39,25.47,66.63,25.54,92.1.14,25.47-25.39,25.54-66.63.14-92.1ZM785.05,223c23.22,23.29,23.16,61-.13,84.22-23.29,23.22-61,23.16-84.22-.13-23.22-23.29-23.16-61,.13-84.22,23.29-23.22,61-23.16,84.22.13Z"/>
      </g>
      <circle class="cls-14" cx="742.88" cy="265.05" r="59.55" transform="translate(-2.6 522.68) rotate(-38.7)"/>
      <path class="cls-5" d="M741.53,214.04s-52.06,4.42-46.35,67.53c0,0,6.83-24.38,14.23-35.06,7.4-10.67,16.88-21.13,21.94-25.32,5.06-4.19,10.17-7.15,10.17-7.15Z"/>
    </g>
  </g>
</svg>