<?xml version="1.0" encoding="UTF-8"?>
<svg id="Layer_5" data-name="Layer 5" xmlns="http://www.w3.org/2000/svg" xmlns:xlink="http://www.w3.org/1999/xlink" viewBox="0 0 1163.45 1166.32">
  <defs>
    <style>
      .cls-1 {
        fill: none;
      }

      .cls-2 {
        fill: #a3a3a2;
      }

      .cls-3 {
        fill: #8e8231;
      }

      .cls-4 {
        fill: #b06c4f;
      }

      .cls-5 {
        fill: #471e0d;
      }

      .cls-6 {
        fill: #f2ebd1;
      }

      .cls-7 {
        fill: #39211a;
      }

      .cls-8 {
        clip-path: url(#clippath);
      }
    </style>
    <clipPath id="clippath">
      <circle class="cls-1" cx="581.59" cy="583.21" r="581.59"/>
    </clipPath>
  </defs>
  <g class="cls-8">
    <polyline class="cls-6" points="1218 1193.52 1209.63 -69.76 -40.33 -69.76 -31.96 1205.14"/>
    <path class="cls-3" d="M538.54,537.59c-2.38,3.62-4.46,7.45-6.4,11.32-4.05,8.11-7.35,16.61-9.81,25.33-3.22,11.43-4.97,23.31-4.83,35.19.16,13.85,3.02,27.6,8.54,40.3,6.89,15.84,17.67,29.75,30.33,41.41,1.84,1.69,3.72,3.34,5.64,4.95,1.33,1.12,4.25.26,5.65-.3.67-.27,3.82-1.69,2.5-2.8-13.55-11.39-25.38-24.97-33.26-40.91-6.21-12.58-9.81-26.34-10.56-40.35-.64-11.93.75-23.89,3.69-35.46,2.31-9.1,5.56-17.97,9.6-26.45,2.15-4.5,4.5-8.93,7.2-13.13.11-.16.21-.33.32-.49.96-1.47-3.12-1.25-3.57-1.17-1.82.32-3.98.94-5.04,2.56h0Z"/>
    <path class="cls-3" d="M481.81,516.75c-3.18,4.85-5.97,9.95-8.56,15.13-5.45,10.92-9.91,22.35-13.25,34.08-4.44,15.58-6.89,31.77-6.78,47.98.13,18.82,3.89,37.53,11.3,54.85,9.26,21.65,23.88,40.66,41.14,56.55,2.48,2.28,5.01,4.5,7.59,6.66,1.36,1.14,4.23.33,5.66-.26.69-.28,3.83-1.75,2.48-2.89-18.45-15.5-34.51-34.05-45.15-55.79-8.4-17.17-13.19-35.95-14.15-55.03-.81-16.23,1.12-32.5,5.12-48.23,3.15-12.4,7.57-24.49,13.07-36.05,1.82-3.83,3.77-7.6,5.85-11.29.71-1.25,1.43-2.5,2.18-3.73.27-.45.55-.9.83-1.35.1-.16.21-.32.31-.49.21-.34-.39.61-.18.29.05-.08.1-.16.15-.24.12-.18.23-.36.35-.54,1.03-1.56-.91-1.95-2.18-1.89-1.15.06-2.33.29-3.39.73-.79.32-1.91.74-2.39,1.47h0Z"/>
    <path class="cls-3" d="M412.25,490.29c-1.21,1.85-2.35,3.74-3.47,5.65-2.62,4.49-5.08,9.07-7.41,13.72-3.26,6.53-6.25,13.2-8.96,19.97-3.34,8.34-6.27,16.85-8.74,25.49-2.84,9.91-5.08,19.99-6.64,30.19-1.72,11.23-2.59,22.6-2.55,33.97.05,12.09,1.18,24.17,3.46,36.04,2.49,12.92,6.35,25.56,11.49,37.66,5.7,13.42,12.97,26.15,21.42,38.03,9.7,13.64,20.99,26.12,33.3,37.45,3.31,3.05,6.69,6.01,10.13,8.9,1.45,1.22,4.15.54,5.71-.09.78-.32,3.85-1.96,2.4-3.17-13.21-11.09-25.48-23.31-36.23-36.8-9.31-11.68-17.43-24.29-23.97-37.72-5.84-11.98-10.41-24.57-13.58-37.52-2.93-11.96-4.65-24.2-5.23-36.49-.53-11.3-.07-22.63,1.26-33.86,1.23-10.4,3.19-20.71,5.79-30.85,2.31-9.04,5.13-17.95,8.4-26.69,2.7-7.22,5.71-14.32,9.02-21.27,1.34-2.83,2.74-5.63,4.19-8.4.62-1.18,1.24-2.36,1.88-3.53.14-.26.54-.98.17-.31.15-.27.29-.53.44-.8.28-.5.56-1.01.84-1.51,1.44-2.54,2.92-5.06,4.5-7.52.13-.2.26-.41.39-.61,1.08-1.64-.94-2.21-2.26-2.2-1.75,0-4.7.66-5.76,2.28h0Z"/>
    <path class="cls-3" d="M328.74,467.28c-1.57,2.43-3.05,4.92-4.49,7.42-3.06,5.31-5.92,10.74-8.62,16.25-3.92,8-7.51,16.16-10.76,24.45-4.06,10.34-7.6,20.87-10.58,31.57-3.46,12.43-6.23,25.05-8.11,37.81-2.03,13.78-3.04,27.72-2.9,41.65.16,15.1,1.63,30.22,4.55,45.04,3.14,15.96,7.97,31.58,14.37,46.54,7.17,16.73,16.19,32.63,26.78,47.43,12.11,16.93,26.2,32.39,41.5,46.49,4.06,3.74,8.22,7.38,12.45,10.94,3.2,2.69,10.61-1.92,6.64-5.26-16.22-13.62-31.26-28.62-44.44-45.22-11.45-14.43-21.48-30-29.58-46.55-7.15-14.59-12.69-29.99-16.59-45.75-3.61-14.58-5.81-29.65-6.54-44.38-.7-14.04-.19-28.13,1.39-42.1,1.45-12.82,3.79-25.54,6.92-38.06.17-.7.35-1.39.53-2.09.1-.37.19-.74.29-1.12.1-.4,0,.03-.02.09.06-.21.11-.42.17-.63.39-1.46.79-2.92,1.2-4.38.79-2.79,1.61-5.57,2.47-8.34,1.64-5.27,3.41-10.5,5.32-15.68,3.24-8.81,6.85-17.49,10.83-26,2.9-6.19,5.98-12.29,9.3-18.26,1.08-1.95,2.19-3.88,3.33-5.8.21-.35.42-.7.63-1.04.36-.6-.59.97-.19.32.1-.16.19-.31.29-.47.27-.44.55-.88.82-1.32.14-.22.28-.45.43-.67,3.04-4.7-5.02-6.53-7.36-2.9h0Z"/>
    <path class="cls-3" d="M237.28,426.77c-1.73,2.72-3.35,5.52-4.94,8.33-3.87,6.85-7.48,13.85-10.9,20.95-5.04,10.47-9.63,21.15-13.8,32-5.22,13.59-9.74,27.43-13.58,41.47-4.34,15.91-7.74,32.08-10.07,48.41-2.55,17.92-3.79,36.04-3.56,54.14.26,19.61,2.21,39.21,6.03,58.45,4.11,20.72,10.39,40.99,18.7,60.41,9.23,21.58,20.89,42.09,34.52,61.19,15.65,21.93,33.86,41.93,53.67,60.18,5.25,4.84,10.62,9.54,16.09,14.13,2.99,2.51,10.55-1.81,6.69-5.05-21.13-17.74-40.72-37.34-57.86-58.98-14.78-18.66-27.75-38.81-38.2-60.21-9.4-19.24-16.73-39.52-21.86-60.31-4.68-18.98-7.55-38.42-8.55-57.95-.94-18.32-.32-36.7,1.68-54.93,1.83-16.72,4.83-33.31,8.83-49.64,3.5-14.28,7.71-28.11,12.71-41.98,4.15-11.49,8.77-22.81,13.88-33.91,3.65-7.94,7.54-15.76,11.73-23.43,2.12-3.88,4.41-7.64,6.63-11.46.15-.26.32-.51.48-.77,1.18-1.86-1.05-3.49-2.66-3.7-2.28-.3-4.45.78-5.66,2.67h0Z"/>
    <path class="cls-2" d="M855.54-224.57c-85.8-10.58-141.59-49.37-219.67-2.13-6.43,3.89-20.46,17.3-26.02,21.64-4.62,3.6-6.13,9.17-7.38,14.37-29.74,123.71-64.68,245.83-66.67,371.82-.85,53.63.96,107.97,18.29,159.37,15.63,46.34,18.57,101.46,46.1,143.53,24.13,36.88,48.27,73.76,72.4,110.64,9.01,13.77,18.51,28.01,33.68,37.06,44.48,26.54,106.38-5.55,139.61-42.73,71.28-79.74,92.46-184.41,87.89-283.84-4.56-99.43-32.35-196.67-49.08-295.04-11.55-67.87-17.85-136.42-18.85-205.09"/>
    <path class="cls-4" d="M874.47,734s106.39,260.23,13.46,518.73c-13.39,37.24-383.21,249.53-383.21,249.53l937.96,1175.4c192.73,48.14,269.59-239.13,457.48-303.67l193.02-845.69-304.89-129.92c-8.86-45.85,17.98-353.42,17.98-353.42"/>
    <path class="cls-4" d="M2098.28-261.91c-.07-.36-.28-.54-.36-.88-10.59,11.15-127.05-66.54-143.19-73.93-169.99-77.82-254.12-144.78-438.53-114.65-96.29,15.73-184.41,113.09-278.16,140.13-89.93,25.94-184.13-33.83-278.02-27.44-32.51,2.21-36.61,107.74-26.88,84.69-41.65-5.88-75.31-15.77-75.31-15.77-103.2,81.65,30.52,505.59,33.31,563.74,2.8,58.16-8.66,150.2-8.66,150.2-16.35-21.56-34.22-37.32-43.92-61.89-9.74-21.51-27.14-46.2-36.88-67.71-29.33-49.24-106.77-42.35-143.39-12.09l-18,26.92c-51.18,68.7,25.41,275.04,62.46,339.18,33.5,117.24,146.2,185.5,210.59,92.03l-5.46,64.6,184.83,253.94c129.68,134.1,388.41,271.77,593.38,263.94,73.46-2.81,173.94.83,225.78-90.42,52.41-92.25,70.83-141.26,127.97-226.83,54.82-82.08,78.95-133.14,103.24-228.73,25.13-98.85,24.9-124.92,14.28-223.71-4.74-44.14-7.94-110.97-4.69-153.34,3.71-48.92,25.72-241.75,30.02-354.91,4.28-113.18-84.39-327.04-84.39-327.04Z"/>
    <path class="cls-5" d="M847.9,534.15c-10.52-21.29-21.69-42.28-33.9-62.66-9.09-15.17-18.75-30.02-29.35-44.18-7.69-10.28-15.88-20.23-24.85-29.42-6.53-6.7-13.51-12.93-21.04-18.48-4.63-3.41-9.52-6.53-14.75-8.95-3.41-1.58-7-2.99-10.69-3.76-1.67-.35-3.38-.63-5.09-.67-4.57-.1-9.12,1.68-11.83,5.41-.48.66-.93,1.33-1.37,2.01-1.77,2.73-3.33,5.6-4.74,8.53-5.46,11.28-9.04,23.4-10.94,35.78-2.95,19.29-1.98,39.17,1.65,58.3,1.11,5.83,2.47,11.6,4.04,17.32.41,1.51,2.08,2.32,3.44,2.67,2,.51,4.57.31,6.52-.26s4.28-1.46,5.78-3.03c1.01-1.06,2.08-2.45,1.65-4.03-4.3-15.66-6.99-31.77-7.34-48.02,0,.45.02.89.03,1.34-.3-15.83,1.61-31.78,6.52-46.86.98-3.01,2.08-5.98,3.3-8.9-.19.46-.38.91-.57,1.37,2.22-5.27,4.81-10.51,8.14-15.18.19-.26.38-.53.58-.78l-11.44,4.89c.38-.01.76.04,1.14.07,1.45.14-2.37-.36-1.29-.18.26.04.52.08.78.13.66.12,1.31.27,1.96.44.84.22,1.67.47,2.5.75.22.07.43.15.65.22,1.37.48-1.94-.74-.75-.28.53.2,1.06.41,1.58.63,2.58,1.07,5.08,2.35,7.5,3.74,3.79,2.17,7.4,4.65,10.87,7.29l-1.18-.9c4.42,3.37,8.62,7.02,12.65,10.84,5.16,4.9,10.05,10.08,14.74,15.43,5.9,6.74,11.47,13.76,16.8,20.95,6.53,8.8,12.7,17.86,18.6,27.09,7.14,11.16,13.9,22.56,20.38,34.12.9,1.6,1.79,3.21,2.68,4.82l-.65-1.18c6.94,12.6,13.55,25.37,19.92,38.26.76,1.53,1.76,2.23,3.44,2.67,2,.51,4.57.31,6.52-.26s4.28-1.46,5.78-3.03c.87-.92,2.34-2.64,1.65-4.03h0Z"/>
    <path class="cls-5" d="M818.9,549.95c-6.29-.26-12.74.69-18.64,2.89-4.57,1.71-8.83,4.07-11.78,8.04-3.9,5.24-4.01,12.71-3.51,18.94.68,8.52,2.8,16.9,5.01,25.13,2.34,8.73,4.99,17.39,7.16,26.17,1.71,6.9,3.5,14.24,2.99,21.4-.05.69-.13,1.38-.24,2.07l.12-.78c-.27,1.61-.73,3.18-1.55,4.61-.22.39-.46.76-.72,1.13-.12.17-.3.34-.4.53.59-1.12.55-.64.16-.22-.27.29-.57.53-.86.8-.54.5,1.52-1.04.72-.53-1.04.67.77-.38.98-.49-.07.03-.14.07-.21.1-.64.3-1.44.47,1.63-.66-1.15.42,2.73-.8,1.74-.53-1.2.32,2.87-.59,1.72-.39.04,0,2.77-.28,1.41-.21.06,0,2.37-.03,1.29-.06-1.01-.03,1.01.14.85.11-.39-.08-.77-.13-1.16-.24-.17-.05-.33-.11-.5-.16-.45-.12,1.24.54.29.1-.39-.18-.78-.36-1.16-.57-.87-.48-1.69-1.04-2.47-1.64-2.18-1.7-4.08-3.76-5.83-5.89l.5.61c-6.7-8.26-11.57-18.02-15.75-27.74-5.71-13.26-10.06-27.11-13.36-41.15-.9-3.84-1.72-7.69-2.46-11.57s-1.66-8.1-2.03-12.15c-.06-.7-.06-1.4-.08-2.1-.15-4.94-.09-9.88.1-14.81.3-7.97.98-15.93,2.1-23.82.16-1.1.32-2.2.5-3.3l-.12.78c1.58-9.84,3.89-19.63,7.5-28.94,1.77-4.55,3.85-8.99,6.38-13.18,1.23-2.04,2.57-4.02,4.02-5.91.3-.39.87-.86,1.04-1.31.01-.04-.63.74-.33.4.08-.09.15-.18.23-.27.23-.27.46-.54.7-.81.75-.86,1.54-1.69,2.35-2.49.92-.91,1.87-1.78,2.86-2.6.48-.4.96-.79,1.46-1.17.2-.15,1.19-.89.23-.18s.12-.08.34-.23c1.03-.71,2.09-1.37,3.18-1.98.14-.08.28-.15.41-.23.78-.44-1.1.57-1.03.55.32-.11.65-.33.95-.48.61-.3,1.22-.58,1.84-.84.93-.4,3.13-1.5,3.58-2.63.42-1.06-.48-1.58-1.41-1.77-3.91-.83-8.6.73-12.14,2.25-11.87,5.11-20.95,14.44-27.06,25.7-5.84,10.77-9.23,22.78-11.45,34.77-2.01,10.86-3.13,21.88-3.52,32.91-.19,5.35-.41,10.82,0,16.16.23,3.02.9,6.08,1.43,9.07.92,5.19,1.99,10.35,3.21,15.48,2.27,9.57,5.05,19.04,8.39,28.29,2.87,7.96,6.15,15.8,10.04,23.32,3.01,5.83,6.39,11.53,10.52,16.64,2.79,3.45,6,7.1,10.2,8.82,2.72,1.12,5.45,1.36,8.38,1.07,5.16-.5,10.78-2.19,14.82-5.56,6.55-5.47,5.48-15.26,4.2-22.74-1.9-11.12-5.4-21.93-8.39-32.78-2.88-10.46-5.96-21.34-6.1-32.27-.03-2.12.09-4.24.42-6.33l-.12.78c.52-3.11,1.59-5.84,3.42-8.4.34-.48-.84.93-.29.35.12-.12.23-.25.35-.38.25-.27.52-.52.79-.76.26-.23.54-.44.8-.66-1.39,1.14-.89.62-.16.17.18-.11.36-.2.53-.31.73-.46-1.9.92-1.09.59.19-.08.39-.18.58-.27,1.17-.56-2.22.86-1.25.51.18-.07.37-.13.55-.2,1.27-.46-1.51.46-1.55.48.51-.12,2.33-.57.21-.09s-.08.08.49-.04c.37-.08-2.41.29-1.66.23.16-.01.33-.04.49-.06.27-.03.54-.05.81-.07s.56-.03.84-.05c.77-.05-2.15.03-.79.03.68,0,1.37,0,2.05.04,2.08.09,4.36-.35,6.35-.88,1.94-.52,4.25-1.27,5.94-2.41.74-.49,2.35-1.42,2.05-2.53s-2.29-1.13-3.04-1.16h0Z"/>
    <path class="cls-4" d="M1897.36,1145.93c-2.16-.16-4.26-.78-6.1-1.83-34.82-20.08-38.22-32.41-54.84-35.29-3.85-.64-5.85-1.9-17.68-2.79-47.55-3.59-76.55-6.66-197.69,81.88-2.43,1.8-169.28-8.65-172.51-8.71l-88.03-35.01c-14.86-7.95-352.4-257.96-352.4-257.96-5.42-8.72-67.45-69.33-70.31-77.83-1.03-.44-2.03-.96-3.13-1.27-.38-.11-1.25-.42-2.09-.71-.11.57-.26,1.34-.34,1.75-.33,3.73,0,7.6.41,11.3,1.78,16.14,6.1,31.85,11.94,47.06,8.96,23.33,14.84,47.36,22.88,70.88,2.84,8.32,6.08,16.46,9.61,24.48,37.94,20.44,208.97,307.21,425.6,356.25,8.74,1.72,36.28,7.63,108.84,9.08,136.28,2.72,251.78,37.13,382.66-10.35,34.14-12.39,60.58-39.11,72.47-72.44,33.92-95.08,133.73-463.6,146.49-603.15-31.74,82.45-126.37,332.39-172.52,452.65-1.4,3.64-34.65,50.55-38.84,52.08"/>
    <path class="cls-7" d="M1760.75,1341.46s-344.48,10.21-429.5-37.8c-85.02-48.01-181.61-134.15-267.68-266.67,0,0,127.53,302.12,314.78,323.35,246.89,27.99,380.63,13.39,380.63,13.39l1.77-32.28Z"/>
  </g>
</svg>