<?xml version="1.0" encoding="UTF-8"?>
<svg id="Layer_2" data-name="Layer 2" xmlns="http://www.w3.org/2000/svg" xmlns:xlink="http://www.w3.org/1999/xlink" viewBox="0 0 1163.45 1166.32">
  <defs>
    <style>
      .cls-1, .cls-2, .cls-3 {
        fill: none;
      }

      .cls-2 {
        stroke-dasharray: .98 .98;
      }

      .cls-2, .cls-4, .cls-3 {
        stroke-miterlimit: 10;
      }

      .cls-2, .cls-3 {
        stroke: #d8ab28;
        stroke-width: .98px;
      }

      .cls-5 {
        fill: #b9dfee;
      }

      .cls-6 {
        fill: #010101;
      }

      .cls-7 {
        fill: #e5e758;
      }

      .cls-8 {
        fill: #5b2b66;
      }

      .cls-9 {
        fill: #27153c;
      }

      .cls-10 {
        fill: #d8ab28;
      }

      .cls-11 {
        fill: #784f81;
      }

      .cls-12 {
        clip-path: url(#clippath-1);
      }

      .cls-13 {
        fill: #523935;
      }

      .cls-14 {
        fill: #b06c4f;
      }

      .cls-15 {
        fill: #eeebf5;
      }

      .cls-4 {
        fill: #171514;
        stroke: #181615;
        stroke-width: .28px;
      }

      .cls-16 {
        fill: #6c3925;
      }

      .cls-17 {
        fill: #412319;
      }

      .cls-3 {
        stroke-dasharray: .98 .98;
      }

      .cls-18 {
        fill: #787878;
      }

      .cls-19 {
        clip-path: url(#clippath);
      }
    </style>
    <clipPath id="clippath">
      <circle class="cls-1" cx="581.92" cy="583.16" r="581.59"/>
    </clipPath>
    <clipPath id="clippath-1">
      <path class="cls-1" d="M182.06,862.78c84.82-232.83,185.95-289.16,221.06-309.99l9.5-38.2s-102.52-376.74,142.79-405.6c0,0,162.94-17.68,199.97,131.96,0,0,16.55,70.03,6.28,146.55-7.83,58.38-21.07,127.31-21.07,127.31,0,0,56.12,42.82,76.21,59.12,20.09,16.3,118.81,153.72,198.57,253.29,0,0-93.1,220.22-410.06,234.34-221.01,9.84-423.26-198.78-423.26-198.78Z"/>
    </clipPath>
  </defs>
  <g class="cls-19">
    <circle class="cls-5" cx="581.59" cy="583.21" r="581.59"/>
    <path d="M848.42,1171.5c-.28-.88-15.06-89.43-15.28-90.11-7.47-23.12-24.91-74.43-13.67-96.43,7.75-15.17-16.24-9.87-7.84-24.62,13.17-23.11,14.23-67.83,15.79-91.75,1.42-21.72,7.99-67.92-4.26-107.4-23.23-74.85-73.98-148.74-73.98-148.74l-84.46-20.8-163.75,4.55s-148.87,41.27-148.87,41.27c-2.41,12.51-.94,26.9-1.24,39.57-.67,28-1.24,56-1.81,84-.59,29.25-1.16,58.5-1.72,87.75-.51,26.9-4.37,56.28,6.97,81.39,1.39,3.07,2.93,6.06,4.61,8.98,8.18,14.18,19.54,33.46,20.52,49.8,1.94,32.4-35.14,111.49-25.74,182.54"/>
    <path d="M749.37,612.45l61.85,19.62s33.74,9.75,59.72,38.33c25.97,28.58,60.73,78.93,86.82,108.59,19.39,22.04,105.07,77.26,111.37,107.47,6.3,30.21,1.97,114.61-39.74,118.7,0,0-219.22-218.53-221.7-217.66-2.47.87-23.88,21.31-23.88,21.31,0,0-24.13-59.64-35.15-91.48-11.02-31.84.71-104.87.71-104.87Z"/>
    <path d="M207.68,1109.81c-24.19,4.91-44.4.26-66.53-10.66-20.99-10.36-32.47-50.63-24.77-77.39,18.48-64.24,90.39-182.99,112.24-227.15,21.84-44.16,53.19-131.84,113.76-158.08,57.44-24.88,115.85-36.76,115.85-36.76,0,0-5.99,173.6-71.07,260.42l-15.16-3.76-49.22,106.45,153.07-3.77-.89,103.44-267.29,47.26Z"/>
    <circle class="cls-1" cx="581.61" cy="583.16" r="581.59"/>
    <path class="cls-11" d="M1015.39,827.22c-105.99-138.01-180.41-236.77-200.5-253.07-20.09-16.3-78.18-33.71-78.18-33.71,0,0,17.97-93.84,25.8-152.22,10.26-76.53-6.28-146.55-6.28-146.55-37.02-149.64-201.97-133.96-201.97-133.96-245.31,28.86-142.79,407.6-142.79,407.6l-8.33,37.48c-33.66,23.83-105.58,30.37-221.06,309.99,0,0,193.02,204.96,402.45,199.55,339.24-8.76,430.88-235.1,430.88-235.1Z"/>
    <g class="cls-12">
      <path class="cls-13" d="M121.47,1134.74c.04.09.09.17.15.24.16-.17.32-.35.48-.52-.21.09-.42.18-.63.28Z"/>
      <g>
        <circle class="cls-7" cx="71.58" cy="320.76" r="20.33"/>
        <path class="cls-2" d="M80.82,338.87c-10,5.1-22.25,1.13-27.35-8.87-5.1-10-1.13-22.25,8.87-27.35,10-5.1,22.25-1.13,27.35,8.87,5.1,10,1.13,22.25-8.87,27.35Z"/>
      </g>
      <g>
        <circle class="cls-7" cx="491.75" cy="208.69" r="20.33"/>
        <path class="cls-2" d="M500.99,226.8c-10,5.1-22.25,1.13-27.35-8.87-5.1-10-1.13-22.25,8.87-27.35,10-5.1,22.25-1.13,27.35,8.87,5.1,10,1.13,22.25-8.87,27.35Z"/>
      </g>
      <g>
        <circle class="cls-7" cx="81.6" cy="522.56" r="20.33"/>
        <path class="cls-2" d="M90.84,540.67c-10,5.1-22.25,1.13-27.35-8.87-5.1-10-1.13-22.25,8.87-27.35,10-5.1,22.25-1.13,27.35,8.87,5.1,10,1.13,22.25-8.87,27.35Z"/>
      </g>
      <g>
        <circle class="cls-7" cx="501.48" cy="403.79" r="20.33"/>
        <path class="cls-2" d="M510.72,421.9c-10,5.1-22.25,1.13-27.35-8.87-5.1-10-1.13-22.25,8.87-27.35,10-5.1,22.25-1.13,27.35,8.87,5.1,10,1.13,22.25-8.87,27.35Z"/>
      </g>
      <g>
        <circle class="cls-7" cx="484.32" cy="6.73" r="20.33"/>
        <path class="cls-2" d="M493.56,24.84c-10,5.1-22.25,1.13-27.35-8.87-5.1-10-1.13-22.25,8.87-27.35,10-5.1,22.25-1.13,27.35,8.87,5.1,10,1.13,22.25-8.87,27.35Z"/>
      </g>
      <g>
        <circle class="cls-7" cx="159.9" cy="412.18" r="20.33"/>
        <path class="cls-2" d="M169.13,430.29c-10,5.1-22.25,1.13-27.35-8.87-5.1-10-1.13-22.25,8.87-27.35,10-5.1,22.25-1.13,27.35,8.87,5.1,10,1.13,22.25-8.87,27.35Z"/>
      </g>
      <g>
        <circle class="cls-7" cx="245.06" cy="512.7" r="20.33"/>
        <path class="cls-2" d="M254.29,530.81c-10,5.1-22.25,1.13-27.35-8.87-5.1-10-1.13-22.25,8.87-27.35,10-5.1,22.25-1.13,27.35,8.87,5.1,10,1.13,22.25-8.87,27.35Z"/>
      </g>
      <g>
        <circle class="cls-7" cx="328.22" cy="404.64" r="20.33"/>
        <path class="cls-2" d="M337.46,422.75c-10,5.1-22.25,1.13-27.35-8.87-5.1-10-1.13-22.25,8.87-27.35,10-5.1,22.25-1.13,27.35,8.87,5.1,10,1.13,22.25-8.87,27.35Z"/>
      </g>
      <g>
        <circle class="cls-7" cx="410.68" cy="504.58" r="20.33"/>
        <path class="cls-2" d="M419.92,522.69c-10,5.1-22.25,1.13-27.35-8.87-5.1-10-1.13-22.25,8.87-27.35,10-5.1,22.25-1.13,27.35,8.87,5.1,10,1.13,22.25-8.87,27.35Z"/>
      </g>
      <g>
        <circle class="cls-7" cx="420.56" cy="303.76" r="20.33"/>
        <path class="cls-2" d="M429.8,321.87c-10,5.1-22.25,1.13-27.35-8.87-5.1-10-1.13-22.25,8.87-27.35,10-5.1,22.25-1.13,27.35,8.87,5.1,10,1.13,22.25-8.87,27.35Z"/>
      </g>
      <g>
        <circle class="cls-7" cx="150.16" cy="217.08" r="20.33"/>
        <path class="cls-2" d="M159.4,235.19c-10,5.1-22.25,1.13-27.35-8.87-5.1-10-1.13-22.25,8.87-27.35,10-5.1,22.25-1.13,27.35,8.87,5.1,10,1.13,22.25-8.87,27.35Z"/>
      </g>
      <g>
        <circle class="cls-7" cx="64.51" cy="120.06" r="20.33"/>
        <path class="cls-2" d="M73.75,138.17c-10,5.1-22.25,1.13-27.35-8.87-5.1-10-1.13-22.25,8.87-27.35,10-5.1,22.25-1.13,27.35,8.87,5.1,10,1.13,22.25-8.87,27.35Z"/>
      </g>
      <g>
        <circle class="cls-7" cx="235.04" cy="310.91" r="20.33"/>
        <path class="cls-2" d="M244.28,329.02c-10,5.1-22.25,1.13-27.35-8.87-5.1-10-1.13-22.25,8.87-27.35,10-5.1,22.25-1.13,27.35,8.87,5.1,10,1.13,22.25-8.87,27.35Z"/>
      </g>
      <g>
        <circle class="cls-7" cx="397.07" cy="105.86" r="20.33"/>
        <circle class="cls-2" cx="397.07" cy="105.86" r="20.33" transform="translate(251.43 490.12) rotate(-84.17)"/>
      </g>
      <g>
        <circle class="cls-7" cx="318.49" cy="209.54" r="20.33"/>
        <path class="cls-2" d="M327.73,227.65c-10,5.1-22.25,1.13-27.35-8.87-5.1-10-1.13-22.25,8.87-27.35,10-5.1,22.25-1.13,27.35,8.87,5.1,10,1.13,22.25-8.87,27.35Z"/>
      </g>
      <g>
        <circle class="cls-7" cx="138.34" cy="18.81" r="20.33"/>
        <path class="cls-2" d="M147.58,36.92c-10,5.1-22.25,1.13-27.35-8.87-5.1-10-1.13-22.25,8.87-27.35,10-5.1,22.25-1.13,27.35,8.87,5.1,10,1.13,22.25-8.87,27.35Z"/>
      </g>
      <g>
        <circle class="cls-7" cx="303.96" cy="10.68" r="20.33"/>
        <path class="cls-2" d="M313.2,28.79c-10,5.1-22.25,1.13-27.35-8.87-5.1-10-1.13-22.25,8.87-27.35,10-5.1,22.25-1.13,27.35,8.87,5.1,10,1.13,22.25-8.87,27.35Z"/>
      </g>
      <g>
        <circle class="cls-7" cx="229.88" cy="112.99" r="20.33"/>
        <path class="cls-2" d="M239.12,131.11c-10,5.1-22.25,1.13-27.35-8.87-5.1-10-1.13-22.25,8.87-27.35,10-5.1,22.25-1.13,27.35,8.87,5.1,10,1.13,22.25-8.87,27.35Z"/>
      </g>
      <path class="cls-8" d="M65.31,220.7s-27.05-42.06,19.09-39.78c0,0-24.38,4.58-19.09,39.78Z"/>
      <path class="cls-8" d="M67.31,220.61s10.61-48.87,41.63-14.63c0,0-20.48-14-41.63,14.63Z"/>
      <path class="cls-8" d="M68.85,221.7s42.06-27.05,39.78,19.09c0,0-4.58-24.38-39.78-19.09Z"/>
      <path class="cls-8" d="M68.33,223.44s48.87,10.61,14.63,41.63c0,0,14-20.48-14.63-41.63Z"/>
      <path class="cls-8" d="M66.98,224.92s27.05,42.06-19.09,39.78c0,0,24.38-4.58,19.09-39.78Z"/>
      <path class="cls-8" d="M65.12,225.24s-10.61,48.87-41.63,14.63c0,0,20.48,14,41.63-14.63Z"/>
      <path class="cls-8" d="M63.62,223.42s-42.06,27.05-39.78-19.09c0,0,4.58,24.38,39.78,19.09Z"/>
      <path class="cls-8" d="M63.3,221.56s-48.87-10.61-14.63-41.63c0,0-14,20.48,14.63,41.63Z"/>
      <g>
        <path class="cls-8" d="M154.7,314.34s-27.05-42.06,19.09-39.78c0,0-24.38,4.58-19.09,39.78Z"/>
        <path class="cls-8" d="M156.7,314.25s10.61-48.87,41.63-14.63c0,0-20.48-14-41.63,14.63Z"/>
        <path class="cls-8" d="M158.24,315.34s42.06-27.05,39.78,19.09c0,0-4.58-24.38-39.78-19.09Z"/>
        <path class="cls-8" d="M157.73,317.08s48.87,10.61,14.63,41.63c0,0,14-20.48-14.63-41.63Z"/>
        <path class="cls-8" d="M156.37,318.55s27.05,42.06-19.09,39.78c0,0,24.38-4.58,19.09-39.78Z"/>
        <path class="cls-8" d="M154.51,318.88s-10.61,48.87-41.63,14.63c0,0,20.48,14,41.63-14.63Z"/>
        <path class="cls-8" d="M153.02,317.06s-42.06,27.05-39.78-19.09c0,0,4.58,24.38,39.78,19.09Z"/>
        <path class="cls-8" d="M152.7,315.19s-48.87-10.61-14.63-41.63c0,0-14,20.48,14.63,41.63Z"/>
      </g>
      <g>
        <path class="cls-8" d="M148.53,120.76s-27.05-42.06,19.09-39.78c0,0-24.38,4.58-19.09,39.78Z"/>
        <path class="cls-8" d="M150.53,120.67s10.61-48.87,41.63-14.63c0,0-20.48-14-41.63,14.63Z"/>
        <path class="cls-8" d="M152.08,121.76s42.06-27.05,39.78,19.09c0,0-4.58-24.38-39.78-19.09Z"/>
        <path class="cls-8" d="M151.56,123.5s48.87,10.61,14.63,41.63c0,0,14-20.48-14.63-41.63Z"/>
        <path class="cls-8" d="M150.21,124.98s27.05,42.06-19.09,39.78c0,0,24.38-4.58,19.09-39.78Z"/>
        <path class="cls-8" d="M148.35,125.3s-10.61,48.87-41.63,14.63c0,0,20.48,14,41.63-14.63Z"/>
        <path class="cls-8" d="M146.85,123.48s-42.06,27.05-39.78-19.09c0,0,4.58,24.38,39.78,19.09Z"/>
        <path class="cls-8" d="M146.53,121.62s-48.87-10.61-14.63-41.63c0,0-14,20.48,14.63,41.63Z"/>
      </g>
      <path class="cls-8" d="M231.53,219.87s-27.05-42.06,19.09-39.78c0,0-24.38,4.58-19.09,39.78Z"/>
      <path class="cls-8" d="M233.53,219.79s10.61-48.87,41.63-14.63c0,0-20.48-14-41.63,14.63Z"/>
      <path class="cls-8" d="M235.08,220.88s42.06-27.05,39.78,19.09c0,0-4.58-24.38-39.78-19.09Z"/>
      <path class="cls-8" d="M234.56,222.62s48.87,10.61,14.63,41.63c0,0,14-20.48-14.63-41.63Z"/>
      <path class="cls-8" d="M233.21,224.09s27.05,42.06-19.09,39.78c0,0,24.38-4.58,19.09-39.78Z"/>
      <path class="cls-8" d="M231.35,224.41s-10.61,48.87-41.63,14.63c0,0,20.48,14,41.63-14.63Z"/>
      <path class="cls-8" d="M229.85,222.59s-42.06,27.05-39.78-19.09c0,0,4.58,24.38,39.78,19.09Z"/>
      <path class="cls-8" d="M229.53,220.73s-48.87-10.61-14.63-41.63c0,0-14,20.48,14.63,41.63Z"/>
      <path class="cls-8" d="M313.63,90.65s-27.05-42.06,19.09-39.78c0,0-24.38,4.58-19.09,39.78Z"/>
      <path class="cls-8" d="M315.63,90.56s10.61-48.87,41.63-14.63c0,0-20.48-14-41.63,14.63Z"/>
      <path class="cls-8" d="M317.17,91.65s42.06-27.05,39.78,19.09c0,0-4.58-24.38-39.78-19.09Z"/>
      <path class="cls-8" d="M316.66,93.39s48.87,10.61,14.63,41.63c0,0,14-20.48-14.63-41.63Z"/>
      <path class="cls-8" d="M315.3,94.87s27.05,42.06-19.09,39.78c0,0,24.38-4.58,19.09-39.78Z"/>
      <path class="cls-8" d="M313.44,95.19s-10.61,48.87-41.63,14.63c0,0,20.48,14,41.63-14.63Z"/>
      <path class="cls-8" d="M311.95,93.37s-42.06,27.05-39.78-19.09c0,0,4.58,24.38,39.78,19.09Z"/>
      <path class="cls-8" d="M311.62,91.51s-48.87-10.61-14.63-41.63c0,0-14,20.48,14.63,41.63Z"/>
      <circle class="cls-10" cx="150.16" cy="217.08" r="8.78"/>
      <circle class="cls-10" cx="64.51" cy="120.06" r="8.78"/>
      <circle class="cls-10" cx="71.58" cy="320.76" r="8.78"/>
      <circle class="cls-10" cx="235.04" cy="310.91" r="8.78"/>
      <path class="cls-8" d="M314.22,109.39s10.61-48.87,41.63-14.63c0,0-20.48-14-41.63,14.63Z"/>
      <g>
        <path class="cls-8" d="M401.81,207.82s-27.05-42.06,19.09-39.78c0,0-24.38,4.58-19.09,39.78Z"/>
        <path class="cls-8" d="M403.81,207.73s10.61-48.87,41.63-14.63c0,0-20.48-14-41.63,14.63Z"/>
        <path class="cls-8" d="M405.35,208.82s42.06-27.05,39.78,19.09c0,0-4.58-24.38-39.78-19.09Z"/>
        <path class="cls-8" d="M404.84,210.56s48.87,10.61,14.63,41.63c0,0,14-20.48-14.63-41.63Z"/>
        <path class="cls-8" d="M403.48,212.03s27.05,42.06-19.09,39.78c0,0,24.38-4.58,19.09-39.78Z"/>
        <path class="cls-8" d="M401.62,212.36s-10.61,48.87-41.63,14.63c0,0,20.48,14,41.63-14.63Z"/>
        <path class="cls-8" d="M400.13,210.54s-42.06,27.05-39.78-19.09c0,0,4.58,24.38,39.78,19.09Z"/>
        <path class="cls-8" d="M399.81,208.67s-48.87-10.61-14.63-41.63c0,0-14,20.48,14.63,41.63Z"/>
      </g>
      <path class="cls-8" d="M487.85,108.25s-27.05-42.06,19.09-39.78c0,0-24.38,4.58-19.09,39.78Z"/>
      <path class="cls-8" d="M489.85,108.17s10.61-48.87,41.63-14.63c0,0-20.48-14-41.63,14.63Z"/>
      <path class="cls-8" d="M491.39,109.25s42.06-27.05,39.78,19.09c0,0-4.58-24.38-39.78-19.09Z"/>
      <path class="cls-8" d="M490.88,110.99s48.87,10.61,14.63,41.63c0,0,14-20.48-14.63-41.63Z"/>
      <path class="cls-8" d="M489.52,112.47s27.05,42.06-19.09,39.78c0,0,24.38-4.58,19.09-39.78Z"/>
      <path class="cls-8" d="M487.66,112.79s-10.61,48.87-41.63,14.63c0,0,20.48,14,41.63-14.63Z"/>
      <path class="cls-8" d="M486.17,110.97s-42.06,27.05-39.78-19.09c0,0,4.58,24.38,39.78,19.09Z"/>
      <path class="cls-8" d="M485.84,109.11s-48.87-10.61-14.63-41.63c0,0-14,20.48,14.63,41.63Z"/>
      <circle class="cls-10" cx="397.07" cy="105.86" r="8.78"/>
      <circle class="cls-10" cx="318.49" cy="209.54" r="8.78"/>
      <circle class="cls-10" cx="491.75" cy="208.69" r="8.78"/>
      <g>
        <path class="cls-8" d="M320.32,306.21s-27.05-42.06,19.09-39.78c0,0-24.38,4.58-19.09,39.78Z"/>
        <path class="cls-8" d="M322.32,306.13s10.61-48.87,41.63-14.63c0,0-20.48-14-41.63,14.63Z"/>
        <path class="cls-8" d="M323.87,307.22s42.06-27.05,39.78,19.09c0,0-4.58-24.38-39.78-19.09Z"/>
        <path class="cls-8" d="M323.35,308.96s48.87,10.61,14.63,41.63c0,0,14-20.48-14.63-41.63Z"/>
        <path class="cls-8" d="M322,310.43s27.05,42.06-19.09,39.78c0,0,24.38-4.58,19.09-39.78Z"/>
        <path class="cls-8" d="M320.14,310.75s-10.61,48.87-41.63,14.63c0,0,20.48,14,41.63-14.63Z"/>
        <path class="cls-8" d="M318.64,308.93s-42.06,27.05-39.78-19.09c0,0,4.58,24.38,39.78,19.09Z"/>
        <path class="cls-8" d="M318.32,307.07s-48.87-10.61-14.63-41.63c0,0-14,20.48,14.63,41.63Z"/>
      </g>
      <g>
        <path class="cls-8" d="M487.86,301.16s-27.05-42.06,19.09-39.78c0,0-24.38,4.58-19.09,39.78Z"/>
        <path class="cls-8" d="M489.86,301.07s10.61-48.87,41.63-14.63c0,0-20.48-14-41.63,14.63Z"/>
        <path class="cls-8" d="M491.4,302.16s42.06-27.05,39.78,19.09c0,0-4.58-24.38-39.78-19.09Z"/>
        <path class="cls-8" d="M490.88,303.9s48.87,10.61,14.63,41.63c0,0,14-20.48-14.63-41.63Z"/>
        <path class="cls-8" d="M489.53,305.38s27.05,42.06-19.09,39.78c0,0,24.38-4.58,19.09-39.78Z"/>
        <path class="cls-8" d="M487.67,305.7s-10.61,48.87-41.63,14.63c0,0,20.48,14,41.63-14.63Z"/>
        <path class="cls-8" d="M486.17,303.88s-42.06,27.05-39.78-19.09c0,0,4.58,24.38,39.78,19.09Z"/>
        <path class="cls-8" d="M485.85,302.02s-48.87-10.61-14.63-41.63c0,0-14,20.48,14.63,41.63Z"/>
      </g>
      <circle class="cls-10" cx="420.49" cy="303.47" r="8.78"/>
      <path class="cls-8" d="M75.04,415.8s-27.05-42.06,19.09-39.78c0,0-24.38,4.58-19.09,39.78Z"/>
      <path class="cls-8" d="M77.04,415.72s10.61-48.87,41.63-14.63c0,0-20.48-14-41.63,14.63Z"/>
      <path class="cls-8" d="M78.58,416.81s42.06-27.05,39.78,19.09c0,0-4.58-24.38-39.78-19.09Z"/>
      <path class="cls-8" d="M78.06,418.55s48.87,10.61,14.63,41.63c0,0,14-20.48-14.63-41.63Z"/>
      <path class="cls-8" d="M76.71,420.02s27.05,42.06-19.09,39.78c0,0,24.38-4.58,19.09-39.78Z"/>
      <path class="cls-8" d="M74.85,420.34s-10.61,48.87-41.63,14.63c0,0,20.48,14,41.63-14.63Z"/>
      <path class="cls-8" d="M73.35,418.53s-42.06,27.05-39.78-19.09c0,0,4.58,24.38,39.78,19.09Z"/>
      <path class="cls-8" d="M73.03,416.66s-48.87-10.61-14.63-41.63c0,0-14,20.48,14.63,41.63Z"/>
      <g>
        <path class="cls-8" d="M164.72,516.13s-27.05-42.06,19.09-39.78c0,0-24.38,4.58-19.09,39.78Z"/>
        <path class="cls-8" d="M166.72,516.05s10.61-48.87,41.63-14.63c0,0-20.48-14-41.63,14.63Z"/>
        <path class="cls-8" d="M168.26,517.14s42.06-27.05,39.78,19.09c0,0-4.58-24.38-39.78-19.09Z"/>
        <path class="cls-8" d="M167.74,518.88s48.87,10.61,14.63,41.63c0,0,14-20.48-14.63-41.63Z"/>
        <path class="cls-8" d="M166.39,520.35s27.05,42.06-19.09,39.78c0,0,24.38-4.58,19.09-39.78Z"/>
        <path class="cls-8" d="M164.53,520.67s-10.61,48.87-41.63,14.63c0,0,20.48,14,41.63-14.63Z"/>
        <path class="cls-8" d="M163.03,518.85s-42.06,27.05-39.78-19.09c0,0,4.58,24.38,39.78,19.09Z"/>
        <path class="cls-8" d="M162.71,516.99s-48.87-10.61-14.63-41.63c0,0-14,20.48,14.63,41.63Z"/>
      </g>
      <path class="cls-8" d="M241.27,414.98s-27.05-42.06,19.09-39.78c0,0-24.38,4.58-19.09,39.78Z"/>
      <path class="cls-8" d="M243.27,414.89s10.61-48.87,41.63-14.63c0,0-20.48-14-41.63,14.63Z"/>
      <path class="cls-8" d="M244.81,415.98s42.06-27.05,39.78,19.09c0,0-4.58-24.38-39.78-19.09Z"/>
      <path class="cls-8" d="M244.29,417.72s48.87,10.61,14.63,41.63c0,0,14-20.48-14.63-41.63Z"/>
      <path class="cls-8" d="M242.94,419.2s27.05,42.06-19.09,39.78c0,0,24.38-4.58,19.09-39.78Z"/>
      <path class="cls-8" d="M241.08,419.52s-10.61,48.87-41.63,14.63c0,0,20.48,14,41.63-14.63Z"/>
      <path class="cls-8" d="M239.58,417.7s-42.06,27.05-39.78-19.09c0,0,4.58,24.38,39.78,19.09Z"/>
      <path class="cls-8" d="M239.26,415.84s-48.87-10.61-14.63-41.63c0,0-14,20.48,14.63,41.63Z"/>
      <circle class="cls-10" cx="159.9" cy="412.18" r="8.78"/>
      <circle class="cls-10" cx="81.6" cy="522.56" r="8.78"/>
      <circle class="cls-10" cx="245.06" cy="512.7" r="8.78"/>
      <g>
        <path class="cls-8" d="M411.54,402.92s-27.05-42.06,19.09-39.78c0,0-24.38,4.58-19.09,39.78Z"/>
        <path class="cls-8" d="M413.54,402.84s10.61-48.87,41.63-14.63c0,0-20.48-14-41.63,14.63Z"/>
        <path class="cls-8" d="M415.08,403.92s42.06-27.05,39.78,19.09c0,0-4.58-24.38-39.78-19.09Z"/>
        <path class="cls-8" d="M414.57,405.66s48.87,10.61,14.63,41.63c0,0,14-20.48-14.63-41.63Z"/>
        <path class="cls-8" d="M413.21,407.14s27.05,42.06-19.09,39.78c0,0,24.38-4.58,19.09-39.78Z"/>
        <path class="cls-8" d="M411.35,407.46s-10.61,48.87-41.63,14.63c0,0,20.48,14,41.63-14.63Z"/>
        <path class="cls-8" d="M409.86,405.64s-42.06,27.05-39.78-19.09c0,0,4.58,24.38,39.78,19.09Z"/>
        <path class="cls-8" d="M409.54,403.78s-48.87-10.61-14.63-41.63c0,0-14,20.48,14.63,41.63Z"/>
      </g>
      <circle class="cls-10" cx="328.22" cy="404.64" r="8.78"/>
      <circle class="cls-10" cx="501.48" cy="403.79" r="8.78"/>
      <g>
        <path class="cls-8" d="M330.34,508.01s-27.05-42.06,19.09-39.78c0,0-24.38,4.58-19.09,39.78Z"/>
        <path class="cls-8" d="M332.34,507.93s10.61-48.87,41.63-14.63c0,0-20.48-14-41.63,14.63Z"/>
        <path class="cls-8" d="M333.88,509.02s42.06-27.05,39.78,19.09c0,0-4.58-24.38-39.78-19.09Z"/>
        <path class="cls-8" d="M333.37,510.76s48.87,10.61,14.63,41.63c0,0,14-20.48-14.63-41.63Z"/>
        <path class="cls-8" d="M332.01,512.23s27.05,42.06-19.09,39.78c0,0,24.38-4.58,19.09-39.78Z"/>
        <path class="cls-8" d="M330.15,512.55s-10.61,48.87-41.63,14.63c0,0,20.48,14,41.63-14.63Z"/>
        <path class="cls-8" d="M328.66,510.73s-42.06,27.05-39.78-19.09c0,0,4.58,24.38,39.78,19.09Z"/>
        <path class="cls-8" d="M328.34,508.87s-48.87-10.61-14.63-41.63c0,0-14,20.48,14.63,41.63Z"/>
      </g>
      <g>
        <path class="cls-8" d="M497.87,502.96s-27.05-42.06,19.09-39.78c0,0-24.38,4.58-19.09,39.78Z"/>
        <path class="cls-8" d="M499.87,502.87s10.61-54.87,41.63-20.63c0,0-20.48-8-41.63,20.63Z"/>
        <path class="cls-8" d="M501.42,503.96c-.82.53,42.88-43.58,39.78,19.09,0,0-4.58-24.38-39.78-19.09Z"/>
        <path class="cls-8" d="M500.9,505.7s48.87,10.61,14.63,41.63c0,0,14-20.48-14.63-41.63Z"/>
        <path class="cls-8" d="M499.55,507.18s27.05,42.06-19.09,39.78c0,0,24.38-4.58,19.09-39.78Z"/>
        <path class="cls-8" d="M497.69,507.5s-10.61,48.87-41.63,14.63c0,0,20.48,14,41.63-14.63Z"/>
        <path class="cls-8" d="M496.19,505.68s-42.06,27.05-39.78-19.09c0,0,4.58,24.38,39.78,19.09Z"/>
        <path class="cls-8" d="M495.87,503.82s-48.87-10.61-14.63-41.63c0,0-14,20.48,14.63,41.63Z"/>
      </g>
      <circle class="cls-10" cx="410.68" cy="504.58" r="8.78"/>
      <g>
        <path class="cls-8" d="M58,22.24s-27.05-42.06,19.09-39.78c0,0-24.38,4.58-19.09,39.78Z"/>
        <path class="cls-8" d="M60,22.15s10.61-48.87,41.63-14.63c0,0-20.48-14-41.63,14.63Z"/>
        <path class="cls-8" d="M61.54,23.24s42.06-27.05,39.78,19.09c0,0-4.58-24.38-39.78-19.09Z"/>
        <path class="cls-8" d="M61.03,24.98s48.87,10.61,14.63,41.63c0,0,14-20.48-14.63-41.63Z"/>
        <path class="cls-8" d="M59.67,26.45s27.05,42.06-19.09,39.78c0,0,24.38-4.58,19.09-39.78Z"/>
        <path class="cls-8" d="M57.81,26.78s-10.61,48.87-41.63,14.63c0,0,20.48,14,41.63-14.63Z"/>
        <path class="cls-8" d="M56.32,24.96S14.26,52.01,16.54,5.86c0,0,4.58,24.38,39.78,19.09Z"/>
        <path class="cls-8" d="M56,23.09S7.12,12.48,41.37-18.53c0,0-14,20.48,14.63,41.63Z"/>
      </g>
      <circle class="cls-10" cx="484.32" cy="6.73" r="8.78"/>
      <circle class="cls-10" cx="138.34" cy="18.81" r="8.78"/>
      <g>
        <path class="cls-8" d="M223.62,14.11s-27.05-42.06,19.09-39.78c0,0-24.38,4.58-19.09,39.78Z"/>
        <path class="cls-8" d="M225.62,14.03s10.61-48.87,41.63-14.63c0,0-20.48-14-41.63,14.63Z"/>
        <path class="cls-8" d="M227.17,15.12s42.06-27.05,39.78,19.09c0,0-4.58-24.38-39.78-19.09Z"/>
        <path class="cls-8" d="M226.65,16.86s48.87,10.61,14.63,41.63c0,0,14-20.48-14.63-41.63Z"/>
        <path class="cls-8" d="M225.3,18.33s27.05,42.06-19.09,39.78c0,0,24.38-4.58,19.09-39.78Z"/>
        <path class="cls-8" d="M223.43,18.65s-10.61,48.87-41.63,14.63c0,0,20.48,14,41.63-14.63Z"/>
        <path class="cls-8" d="M221.94,16.83s-42.06,27.05-39.78-19.09c0,0,4.58,24.38,39.78,19.09Z"/>
        <path class="cls-8" d="M221.62,14.97s-48.87-10.61-14.63-41.63c0,0-14,20.48,14.63,41.63Z"/>
      </g>
      <g>
        <path class="cls-8" d="M391.16,9.06s-27.05-42.06,19.09-39.78c0,0-24.38,4.58-19.09,39.78Z"/>
        <path class="cls-8" d="M393.16,8.97s10.61-48.87,41.63-14.63c0,0-20.48-14-41.63,14.63Z"/>
        <path class="cls-8" d="M394.7,10.06s42.06-27.05,39.78,19.09c0,0-4.58-24.38-39.78-19.09Z"/>
        <path class="cls-8" d="M394.18,11.8s48.87,10.61,14.63,41.63c0,0,14-20.48-14.63-41.63Z"/>
        <path class="cls-8" d="M392.83,13.28s27.05,42.06-19.09,39.78c0,0,24.38-4.58,19.09-39.78Z"/>
        <path class="cls-8" d="M390.97,13.6s-10.61,48.87-41.63,14.63c0,0,20.48,14,41.63-14.63Z"/>
        <path class="cls-8" d="M389.47,11.78s-42.06,27.05-39.78-19.09c0,0,4.58,24.38,39.78,19.09Z"/>
        <path class="cls-8" d="M389.15,9.92s-48.87-10.61-14.63-41.63c0,0-14,20.48,14.63,41.63Z"/>
      </g>
      <circle class="cls-10" cx="303.96" cy="10.68" r="8.78"/>
      <circle class="cls-10" cx="229.88" cy="112.99" r="8.78"/>
      <g>
        <circle class="cls-7" cx="104.37" cy="931.57" r="20.33"/>
        <path class="cls-2" d="M113.6,949.68c-10,5.1-22.25,1.13-27.35-8.87-5.1-10-1.13-22.25,8.87-27.35,10-5.1,22.25-1.13,27.35,8.87,5.1,10,1.13,22.25-8.87,27.35Z"/>
      </g>
      <g>
        <circle class="cls-7" cx="524.54" cy="819.5" r="20.33"/>
        <path class="cls-2" d="M533.77,837.61c-10,5.1-22.25,1.13-27.35-8.87-5.1-10-1.13-22.25,8.87-27.35,10-5.1,22.25-1.13,27.35,8.87,5.1,10,1.13,22.25-8.87,27.35Z"/>
      </g>
      <g>
        <circle class="cls-7" cx="114.38" cy="1133.37" r="20.33"/>
        <circle class="cls-2" cx="114.38" cy="1133.37" r="20.33" transform="translate(-998.97 892.4) rotate(-72.02)"/>
      </g>
      <g>
        <circle class="cls-7" cx="534.27" cy="1014.61" r="20.33"/>
        <path class="cls-2" d="M543.51,1032.72c-10,5.1-22.25,1.13-27.35-8.87-5.1-10-1.13-22.25,8.87-27.35,10-5.1,22.25-1.13,27.35,8.87,5.1,10,1.13,22.25-8.87,27.35Z"/>
      </g>
      <g>
        <circle class="cls-7" cx="517.11" cy="617.54" r="20.33"/>
        <path class="cls-2" d="M526.34,635.65c-10,5.1-22.25,1.13-27.35-8.87-5.1-10-1.13-22.25,8.87-27.35,10-5.1,22.25-1.13,27.35,8.87,5.1,10,1.13,22.25-8.87,27.35Z"/>
      </g>
      <g>
        <circle class="cls-7" cx="453.28" cy="914.28" r="20.33"/>
        <path class="cls-2" d="M462.51,932.39c-10,5.1-22.25,1.13-27.35-8.87-5.1-10-1.13-22.25,8.87-27.35,10-5.1,22.25-1.13,27.35,8.87,5.1,10,1.13,22.25-8.87,27.35Z"/>
      </g>
      <g>
        <circle class="cls-7" cx="192.68" cy="1023" r="20.33"/>
        <path class="cls-2" d="M201.92,1041.11c-10,5.1-22.25,1.13-27.35-8.87-5.1-10-1.13-22.25,8.87-27.35,10-5.1,22.25-1.13,27.35,8.87,5.1,10,1.13,22.25-8.87,27.35Z"/>
      </g>
      <g>
        <circle class="cls-7" cx="277.84" cy="1123.52" r="20.33"/>
        <path class="cls-2" d="M287.08,1141.63c-10,5.1-22.25,1.13-27.35-8.87-5.1-10-1.13-22.25,8.87-27.35,10-5.1,22.25-1.13,27.35,8.87,5.1,10,1.13,22.25-8.87,27.35Z"/>
      </g>
      <g>
        <circle class="cls-7" cx="361.01" cy="1015.46" r="20.33"/>
        <path class="cls-2" d="M370.24,1033.57c-10,5.1-22.25,1.13-27.35-8.87-5.1-10-1.13-22.25,8.87-27.35,10-5.1,22.25-1.13,27.35,8.87,5.1,10,1.13,22.25-8.87,27.35Z"/>
      </g>
      <g>
        <circle class="cls-7" cx="443.46" cy="1115.4" r="20.33"/>
        <path class="cls-2" d="M452.7,1133.51c-10,5.1-22.25,1.13-27.35-8.87-5.1-10-1.13-22.25,8.87-27.35,10-5.1,22.25-1.13,27.35,8.87,5.1,10,1.13,22.25-8.87,27.35Z"/>
      </g>
      <g>
        <circle class="cls-7" cx="182.95" cy="827.89" r="20.33"/>
        <path class="cls-2" d="M192.19,846c-10,5.1-22.25,1.13-27.35-8.87-5.1-10-1.13-22.25,8.87-27.35,10-5.1,22.25-1.13,27.35,8.87,5.1,10,1.13,22.25-8.87,27.35Z"/>
      </g>
      <g>
        <circle class="cls-7" cx="97.29" cy="730.87" r="20.33"/>
        <path class="cls-2" d="M106.53,748.98c-10,5.1-22.25,1.13-27.35-8.87-5.1-10-1.13-22.25,8.87-27.35,10-5.1,22.25-1.13,27.35,8.87,5.1,10,1.13,22.25-8.87,27.35Z"/>
      </g>
      <g>
        <circle class="cls-7" cx="267.82" cy="921.72" r="20.33"/>
        <path class="cls-2" d="M277.06,939.83c-10,5.1-22.25,1.13-27.35-8.87-5.1-10-1.13-22.25,8.87-27.35,10-5.1,22.25-1.13,27.35,8.87,5.1,10,1.13,22.25-8.87,27.35Z"/>
      </g>
      <g>
        <circle class="cls-7" cx="429.86" cy="716.67" r="20.33"/>
        <path class="cls-2" d="M439.09,734.78c-10,5.1-22.25,1.13-27.35-8.87-5.1-10-1.13-22.25,8.87-27.35,10-5.1,22.25-1.13,27.35,8.87,5.1,10,1.13,22.25-8.87,27.35Z"/>
      </g>
      <g>
        <circle class="cls-7" cx="351.27" cy="820.35" r="20.33"/>
        <path class="cls-2" d="M360.51,838.46c-10,5.1-22.25,1.13-27.35-8.87-5.1-10-1.13-22.25,8.87-27.35,10-5.1,22.25-1.13,27.35,8.87,5.1,10,1.13,22.25-8.87,27.35Z"/>
      </g>
      <g>
        <circle class="cls-7" cx="171.12" cy="629.62" r="20.33"/>
        <path class="cls-2" d="M180.36,647.73c-10,5.1-22.25,1.13-27.35-8.87-5.1-10-1.13-22.25,8.87-27.35,10-5.1,22.25-1.13,27.35,8.87,5.1,10,1.13,22.25-8.87,27.35Z"/>
      </g>
      <g>
        <circle class="cls-7" cx="336.75" cy="621.5" r="20.33"/>
        <path class="cls-2" d="M345.98,639.61c-10,5.1-22.25,1.13-27.35-8.87-5.1-10-1.13-22.25,8.87-27.35,10-5.1,22.25-1.13,27.35,8.87,5.1,10,1.13,22.25-8.87,27.35Z"/>
      </g>
      <g>
        <circle class="cls-7" cx="262.66" cy="723.81" r="20.33"/>
        <path class="cls-2" d="M271.9,741.92c-10,5.1-22.25,1.13-27.35-8.87-5.1-10-1.13-22.25,8.87-27.35,10-5.1,22.25-1.13,27.35,8.87,5.1,10,1.13,22.25-8.87,27.35Z"/>
      </g>
      <path class="cls-8" d="M98.09,831.52s-27.05-42.06,19.09-39.78c0,0-24.38,4.58-19.09,39.78Z"/>
      <path class="cls-8" d="M100.09,831.43s10.61-48.87,41.63-14.63c0,0-20.48-14-41.63,14.63Z"/>
      <path class="cls-8" d="M101.63,832.52s42.06-27.05,39.78,19.09c0,0-4.58-24.38-39.78-19.09Z"/>
      <path class="cls-8" d="M101.12,834.26s48.87,10.61,14.63,41.63c0,0,14-20.48-14.63-41.63Z"/>
      <path class="cls-8" d="M99.76,835.73s27.05,42.06-19.09,39.78c0,0,24.38-4.58,19.09-39.78Z"/>
      <path class="cls-8" d="M97.9,836.06s-10.61,48.87-41.63,14.63c0,0,20.48,14,41.63-14.63Z"/>
      <path class="cls-8" d="M96.41,834.24s-42.06,27.05-39.78-19.09c0,0,4.58,24.38,39.78,19.09Z"/>
      <path class="cls-8" d="M96.08,832.37s-48.87-10.61-14.63-41.63c0,0-14,20.48,14.63,41.63Z"/>
      <g>
        <path class="cls-8" d="M187.48,925.15s-27.05-42.06,19.09-39.78c0,0-24.38,4.58-19.09,39.78Z"/>
        <path class="cls-8" d="M189.48,925.07s10.61-48.87,41.63-14.63c0,0-20.48-14-41.63,14.63Z"/>
        <path class="cls-8" d="M191.03,926.16s42.06-27.05,39.78,19.09c0,0-4.58-24.38-39.78-19.09Z"/>
        <path class="cls-8" d="M190.51,927.89s48.87,10.61,14.63,41.63c0,0,14-20.48-14.63-41.63Z"/>
        <path class="cls-8" d="M189.16,929.37s27.05,42.06-19.09,39.78c0,0,24.38-4.58,19.09-39.78Z"/>
        <path class="cls-8" d="M187.29,929.69s-10.61,48.87-41.63,14.63c0,0,20.48,14,41.63-14.63Z"/>
        <path class="cls-8" d="M185.8,927.87s-42.06,27.05-39.78-19.09c0,0,4.58,24.38,39.78,19.09Z"/>
        <path class="cls-8" d="M185.48,926.01s-48.87-10.61-14.63-41.63c0,0-14,20.48,14.63,41.63Z"/>
      </g>
      <g>
        <path class="cls-8" d="M181.32,731.57s-27.05-42.06,19.09-39.78c0,0-24.38,4.58-19.09,39.78Z"/>
        <path class="cls-8" d="M183.32,731.49s10.61-48.87,41.63-14.63c0,0-20.48-14-41.63,14.63Z"/>
        <path class="cls-8" d="M184.86,732.58s42.06-27.05,39.78,19.09c0,0-4.58-24.38-39.78-19.09Z"/>
        <path class="cls-8" d="M184.34,734.32s48.87,10.61,14.63,41.63c0,0,14-20.48-14.63-41.63Z"/>
        <path class="cls-8" d="M182.99,735.79s27.05,42.06-19.09,39.78c0,0,24.38-4.58,19.09-39.78Z"/>
        <path class="cls-8" d="M181.13,736.11s-10.61,48.87-41.63,14.63c0,0,20.48,14,41.63-14.63Z"/>
        <path class="cls-8" d="M179.63,734.29s-42.06,27.05-39.78-19.09c0,0,4.58,24.38,39.78,19.09Z"/>
        <path class="cls-8" d="M179.31,732.43s-48.87-10.61-14.63-41.63c0,0-14,20.48,14.63,41.63Z"/>
      </g>
      <path class="cls-8" d="M264.32,830.69s-27.05-42.06,19.09-39.78c0,0-24.38,4.58-19.09,39.78Z"/>
      <path class="cls-8" d="M266.32,830.6s10.61-48.87,41.63-14.63c0,0-20.48-14-41.63,14.63Z"/>
      <path class="cls-8" d="M267.86,831.69s42.06-27.05,39.78,19.09c0,0-4.58-24.38-39.78-19.09Z"/>
      <path class="cls-8" d="M267.34,833.43s48.87,10.61,14.63,41.63c0,0,14-20.48-14.63-41.63Z"/>
      <path class="cls-8" d="M265.99,834.91s27.05,42.06-19.09,39.78c0,0,24.38-4.58,19.09-39.78Z"/>
      <path class="cls-8" d="M264.13,835.23s-10.61,48.87-41.63,14.63c0,0,20.48,14,41.63-14.63Z"/>
      <path class="cls-8" d="M262.63,833.41s-42.06,27.05-39.78-19.09c0,0,4.58,24.38,39.78,19.09Z"/>
      <path class="cls-8" d="M262.31,831.55s-48.87-10.61-14.63-41.63c0,0-14,20.48,14.63,41.63Z"/>
      <path class="cls-8" d="M346.41,701.46s-27.05-42.06,19.09-39.78c0,0-24.38,4.58-19.09,39.78Z"/>
      <path class="cls-8" d="M348.41,701.38s10.61-48.87,41.63-14.63c0,0-20.48-14-41.63,14.63Z"/>
      <path class="cls-8" d="M349.96,702.47s42.06-27.05,39.78,19.09c0,0-4.58-24.38-39.78-19.09Z"/>
      <path class="cls-8" d="M349.44,704.21s48.87,10.61,14.63,41.63c0,0,14-20.48-14.63-41.63Z"/>
      <path class="cls-8" d="M348.09,705.68s27.05,42.06-19.09,39.78c0,0,24.38-4.58,19.09-39.78Z"/>
      <path class="cls-8" d="M346.22,706s-10.61,48.87-41.63,14.63c0,0,20.48,14,41.63-14.63Z"/>
      <path class="cls-8" d="M344.73,704.18s-42.06,27.05-39.78-19.09c0,0,4.58,24.38,39.78,19.09Z"/>
      <path class="cls-8" d="M344.41,702.32s-48.87-10.61-14.63-41.63c0,0-14,20.48,14.63,41.63Z"/>
      <circle class="cls-10" cx="182.95" cy="827.89" r="8.78"/>
      <circle class="cls-10" cx="97.29" cy="730.87" r="8.78"/>
      <circle class="cls-10" cx="104.37" cy="931.57" r="8.78"/>
      <circle class="cls-10" cx="267.82" cy="921.72" r="8.78"/>
      <path class="cls-8" d="M347,720.21s10.61-48.87,41.63-14.63c0,0-20.48-14-41.63,14.63Z"/>
      <g>
        <path class="cls-8" d="M434.59,818.63s-27.05-42.06,19.09-39.78c0,0-24.38,4.58-19.09,39.78Z"/>
        <path class="cls-8" d="M436.59,818.55s10.61-48.87,41.63-14.63c0,0-20.48-14-41.63,14.63Z"/>
        <path class="cls-8" d="M438.14,819.64s42.06-27.05,39.78,19.09c0,0-4.58-24.38-39.78-19.09Z"/>
        <path class="cls-8" d="M437.62,821.38s48.87,10.61,14.63,41.63c0,0,14-20.48-14.63-41.63Z"/>
        <path class="cls-8" d="M436.27,822.85s27.05,42.06-19.09,39.78c0,0,24.38-4.58,19.09-39.78Z"/>
        <path class="cls-8" d="M434.4,823.17s-10.61,48.87-41.63,14.63c0,0,20.48,14,41.63-14.63Z"/>
        <path class="cls-8" d="M432.91,821.35s-42.06,27.05-39.78-19.09c0,0,4.58,24.38,39.78,19.09Z"/>
        <path class="cls-8" d="M432.59,819.49s-48.87-10.61-14.63-41.63c0,0-14,20.48,14.63,41.63Z"/>
      </g>
      <path class="cls-8" d="M520.63,719.07s-27.05-42.06,19.09-39.78c0,0-24.38,4.58-19.09,39.78Z"/>
      <path class="cls-8" d="M522.63,718.98s10.61-48.87,41.63-14.63c0,0-20.48-14-41.63,14.63Z"/>
      <path class="cls-8" d="M524.17,720.07s42.06-27.05,39.78,19.09c0,0-4.58-24.38-39.78-19.09Z"/>
      <path class="cls-8" d="M523.66,721.81s48.87,10.61,14.63,41.63c0,0,14-20.48-14.63-41.63Z"/>
      <path class="cls-8" d="M522.3,723.28s27.05,42.06-19.09,39.78c0,0,24.38-4.58,19.09-39.78Z"/>
      <path class="cls-8" d="M520.44,723.61s-10.61,48.87-41.63,14.63c0,0,20.48,14,41.63-14.63Z"/>
      <path class="cls-8" d="M518.95,721.79s-42.06,27.05-39.78-19.09c0,0,4.58,24.38,39.78,19.09Z"/>
      <path class="cls-8" d="M518.63,719.93s-48.87-10.61-14.63-41.63c0,0-14,20.48,14.63,41.63Z"/>
      <circle class="cls-10" cx="429.86" cy="716.67" r="8.78"/>
      <circle class="cls-10" cx="351.27" cy="820.35" r="8.78"/>
      <circle class="cls-10" cx="524.54" cy="819.5" r="8.78"/>
      <g>
        <path class="cls-8" d="M353.11,917.03s-27.05-42.06,19.09-39.78c0,0-24.38,4.58-19.09,39.78Z"/>
        <path class="cls-8" d="M355.11,916.94s10.61-48.87,41.63-14.63c0,0-20.48-14-41.63,14.63Z"/>
        <path class="cls-8" d="M356.65,918.03s42.06-27.05,39.78,19.09c0,0-4.58-24.38-39.78-19.09Z"/>
        <path class="cls-8" d="M356.13,919.77s48.87,10.61,14.63,41.63c0,0,14-20.48-14.63-41.63Z"/>
        <path class="cls-8" d="M354.78,921.25s27.05,42.06-19.09,39.78c0,0,24.38-4.58,19.09-39.78Z"/>
        <path class="cls-8" d="M352.92,921.57s-10.61,48.87-41.63,14.63c0,0,20.48,14,41.63-14.63Z"/>
        <path class="cls-8" d="M351.42,919.75s-42.06,27.05-39.78-19.09c0,0,4.58,24.38,39.78,19.09Z"/>
        <path class="cls-8" d="M351.1,917.89s-48.87-10.61-14.63-41.63c0,0-14,20.48,14.63,41.63Z"/>
      </g>
      <g>
        <path class="cls-8" d="M520.64,911.98s-27.05-42.06,19.09-39.78c0,0-24.38,4.58-19.09,39.78Z"/>
        <path class="cls-8" d="M522.64,911.89s10.61-48.87,41.63-14.63c0,0-20.48-14-41.63,14.63Z"/>
        <path class="cls-8" d="M524.18,912.98s42.06-27.05,39.78,19.09c0,0-4.58-24.38-39.78-19.09Z"/>
        <path class="cls-8" d="M523.67,914.72s48.87,10.61,14.63,41.63c0,0,14-20.48-14.63-41.63Z"/>
        <path class="cls-8" d="M522.31,916.19s27.05,42.06-19.09,39.78c0,0,24.38-4.58,19.09-39.78Z"/>
        <path class="cls-8" d="M520.45,916.51s-10.61,48.87-41.63,14.63c0,0,20.48,14,41.63-14.63Z"/>
        <path class="cls-8" d="M518.96,914.7s-42.06,27.05-39.78-19.09c0,0,4.58,24.38,39.78,19.09Z"/>
        <path class="cls-8" d="M518.64,912.83s-48.87-10.61-14.63-41.63c0,0-14,20.48,14.63,41.63Z"/>
      </g>
      <circle class="cls-10" cx="453.28" cy="914.28" r="8.78"/>
      <path class="cls-8" d="M107.82,1026.62s-27.05-42.06,19.09-39.78c0,0-24.38,4.58-19.09,39.78Z"/>
      <path class="cls-8" d="M109.82,1026.54s10.61-48.87,41.63-14.63c0,0-20.48-14-41.63,14.63Z"/>
      <path class="cls-8" d="M111.36,1027.62s42.06-27.05,39.78,19.09c0,0-4.58-24.38-39.78-19.09Z"/>
      <path class="cls-8" d="M110.85,1029.36s48.87,10.61,14.63,41.63c0,0,14-20.48-14.63-41.63Z"/>
      <path class="cls-8" d="M109.49,1030.84s27.05,42.06-19.09,39.78c0,0,24.38-4.58,19.09-39.78Z"/>
      <path class="cls-8" d="M107.63,1031.16s-10.61,48.87-41.63,14.63c0,0,20.48,14,41.63-14.63Z"/>
      <path class="cls-8" d="M106.14,1029.34s-42.06,27.05-39.78-19.09c0,0,4.58,24.38,39.78,19.09Z"/>
      <path class="cls-8" d="M105.82,1027.48s-48.87-10.61-14.63-41.63c0,0-14,20.48,14.63,41.63Z"/>
      <g>
        <path class="cls-8" d="M197.5,1126.95s-27.05-42.06,19.09-39.78c0,0-24.38,4.58-19.09,39.78Z"/>
        <path class="cls-8" d="M199.5,1126.86s10.61-48.87,41.63-14.63c0,0-20.48-14-41.63,14.63Z"/>
        <path class="cls-8" d="M201.04,1127.95s42.06-27.05,39.78,19.09c0,0-4.58-24.38-39.78-19.09Z"/>
        <path class="cls-8" d="M200.53,1129.69s48.87,10.61,14.63,41.63c0,0,14-20.48-14.63-41.63Z"/>
        <path class="cls-8" d="M199.17,1131.17s27.05,42.06-19.09,39.78c0,0,24.38-4.58,19.09-39.78Z"/>
        <path class="cls-8" d="M197.31,1131.49s-10.61,48.87-41.63,14.63c0,0,20.48,14,41.63-14.63Z"/>
        <path class="cls-8" d="M195.82,1129.67s-42.06,27.05-39.78-19.09c0,0,4.58,24.38,39.78,19.09Z"/>
        <path class="cls-8" d="M195.49,1127.81s-48.87-10.61-14.63-41.63c0,0-14,20.48,14.63,41.63Z"/>
      </g>
      <path class="cls-8" d="M274.05,1025.79s-27.05-42.06,19.09-39.78c0,0-24.38,4.58-19.09,39.78Z"/>
      <path class="cls-8" d="M276.05,1025.71s10.61-48.87,41.63-14.63c0,0-20.48-14-41.63,14.63Z"/>
      <path class="cls-8" d="M277.59,1026.8s42.06-27.05,39.78,19.09c0,0-4.58-24.38-39.78-19.09Z"/>
      <path class="cls-8" d="M277.08,1028.54s48.87,10.61,14.63,41.63c0,0,14-20.48-14.63-41.63Z"/>
      <path class="cls-8" d="M275.72,1030.01s27.05,42.06-19.09,39.78c0,0,24.38-4.58,19.09-39.78Z"/>
      <path class="cls-8" d="M273.86,1030.33s-10.61,48.87-41.63,14.63c0,0,20.48,14,41.63-14.63Z"/>
      <path class="cls-8" d="M272.37,1028.51s-42.06,27.05-39.78-19.09c0,0,4.58,24.38,39.78,19.09Z"/>
      <path class="cls-8" d="M272.04,1026.65s-48.87-10.61-14.63-41.63c0,0-14,20.48,14.63,41.63Z"/>
      <circle class="cls-10" cx="192.68" cy="1023" r="8.78"/>
      <circle class="cls-10" cx="114.38" cy="1133.37" r="8.78"/>
      <circle class="cls-10" cx="277.84" cy="1123.52" r="8.78"/>
      <g>
        <path class="cls-8" d="M444.32,1013.74s-27.05-42.06,19.09-39.78c0,0-24.38,4.58-19.09,39.78Z"/>
        <path class="cls-8" d="M446.32,1013.65s10.61-48.87,41.63-14.63c0,0-20.48-14-41.63,14.63Z"/>
        <path class="cls-8" d="M447.87,1014.74s42.06-27.05,39.78,19.09c0,0-4.58-24.38-39.78-19.09Z"/>
        <path class="cls-8" d="M447.35,1016.48s48.87,10.61,14.63,41.63c0,0,14-20.48-14.63-41.63Z"/>
        <path class="cls-8" d="M446,1017.95s27.05,42.06-19.09,39.78c0,0,24.38-4.58,19.09-39.78Z"/>
        <path class="cls-8" d="M444.14,1018.28s-10.61,48.87-41.63,14.63c0,0,20.48,14,41.63-14.63Z"/>
        <path class="cls-8" d="M442.64,1016.46s-42.06,27.05-39.78-19.09c0,0,4.58,24.38,39.78,19.09Z"/>
        <path class="cls-8" d="M442.32,1014.6s-48.87-10.61-14.63-41.63c0,0-14,20.48,14.63,41.63Z"/>
      </g>
      <circle class="cls-10" cx="361.01" cy="1015.46" r="8.78"/>
      <circle class="cls-10" cx="534.27" cy="1014.61" r="8.78"/>
      <g>
        <path class="cls-8" d="M363.12,1118.83s-27.05-42.06,19.09-39.78c0,0-24.38,4.58-19.09,39.78Z"/>
        <path class="cls-8" d="M365.12,1118.74s10.61-48.87,41.63-14.63c0,0-20.48-14-41.63,14.63Z"/>
        <path class="cls-8" d="M366.67,1119.83s42.06-27.05,39.78,19.09c0,0-4.58-24.38-39.78-19.09Z"/>
        <path class="cls-8" d="M366.15,1121.57s48.87,10.61,14.63,41.63c0,0,14-20.48-14.63-41.63Z"/>
        <path class="cls-8" d="M364.8,1123.05s27.05,42.06-19.09,39.78c0,0,24.38-4.58,19.09-39.78Z"/>
        <path class="cls-8" d="M362.93,1123.37s-10.61,48.87-41.63,14.63c0,0,20.48,14,41.63-14.63Z"/>
        <path class="cls-8" d="M361.44,1121.55s-42.06,27.05-39.78-19.09c0,0,4.58,24.38,39.78,19.09Z"/>
        <path class="cls-8" d="M361.12,1119.69s-48.87-10.61-14.63-41.63c0,0-14,20.48,14.63,41.63Z"/>
      </g>
      <g>
        <path class="cls-8" d="M530.66,1113.77s-27.05-42.06,19.09-39.78c0,0-24.38,4.58-19.09,39.78Z"/>
        <path class="cls-8" d="M532.66,1113.69s10.61-48.87,41.63-14.63c0,0-20.48-14-41.63,14.63Z"/>
        <path class="cls-8" d="M534.2,1114.78s42.06-27.05,39.78,19.09c0,0-4.58-24.38-39.78-19.09Z"/>
        <path class="cls-8" d="M533.68,1116.52s48.87,10.61,14.63,41.63c0,0,14-20.48-14.63-41.63Z"/>
        <path class="cls-8" d="M532.33,1117.99s27.05,42.06-19.09,39.78c0,0,24.38-4.58,19.09-39.78Z"/>
        <path class="cls-8" d="M530.47,1118.31s-10.61,48.87-41.63,14.63c0,0,20.48,14,41.63-14.63Z"/>
        <path class="cls-8" d="M528.97,1116.49s-42.06,27.05-39.78-19.09c0,0,4.58,24.38,39.78,19.09Z"/>
        <path class="cls-8" d="M528.65,1114.63s-48.87-10.61-14.63-41.63c0,0-14,20.48,14.63,41.63Z"/>
      </g>
      <circle class="cls-10" cx="443.46" cy="1115.4" r="8.78"/>
      <g>
        <path class="cls-8" d="M90.78,633.05s-27.05-42.06,19.09-39.78c0,0-24.38,4.58-19.09,39.78Z"/>
        <path class="cls-8" d="M92.78,632.97s10.61-48.87,41.63-14.63c0,0-20.48-14-41.63,14.63Z"/>
        <path class="cls-8" d="M94.33,634.06s42.06-27.05,39.78,19.09c0,0-4.58-24.38-39.78-19.09Z"/>
        <path class="cls-8" d="M93.81,635.79s48.87,10.61,14.63,41.63c0,0,14-20.48-14.63-41.63Z"/>
        <path class="cls-8" d="M92.46,637.27s27.05,42.06-19.09,39.78c0,0,24.38-4.58,19.09-39.78Z"/>
        <path class="cls-8" d="M90.59,637.59s-10.61,48.87-41.63,14.63c0,0,20.48,14,41.63-14.63Z"/>
        <path class="cls-8" d="M89.1,635.77s-42.06,27.05-39.78-19.09c0,0,4.58,24.38,39.78,19.09Z"/>
        <path class="cls-8" d="M88.78,633.91s-48.87-10.61-14.63-41.63c0,0-14,20.48,14.63,41.63Z"/>
      </g>
      <circle class="cls-10" cx="517.11" cy="617.54" r="8.78"/>
      <circle class="cls-10" cx="171.12" cy="629.62" r="8.78"/>
      <g>
        <path class="cls-8" d="M256.41,624.93s-27.05-42.06,19.09-39.78c0,0-24.38,4.58-19.09,39.78Z"/>
        <path class="cls-8" d="M258.41,624.84s10.61-48.87,41.63-14.63c0,0-20.48-14-41.63,14.63Z"/>
        <path class="cls-8" d="M259.95,625.93s42.06-27.05,39.78,19.09c0,0-4.58-24.38-39.78-19.09Z"/>
        <path class="cls-8" d="M259.43,627.67s48.87,10.61,14.63,41.63c0,0,14-20.48-14.63-41.63Z"/>
        <path class="cls-8" d="M258.08,629.15s27.05,42.06-19.09,39.78c0,0,24.38-4.58,19.09-39.78Z"/>
        <path class="cls-8" d="M256.22,629.47s-10.61,48.87-41.63,14.63c0,0,20.48,14,41.63-14.63Z"/>
        <path class="cls-8" d="M254.72,627.65s-42.06,27.05-39.78-19.09c0,0,4.58,24.38,39.78,19.09Z"/>
        <path class="cls-8" d="M254.4,625.79s-48.87-10.61-14.63-41.63c0,0-14,20.48,14.63,41.63Z"/>
      </g>
      <g>
        <path class="cls-8" d="M423.94,619.88s-27.05-42.06,19.09-39.78c0,0-24.38,4.58-19.09,39.78Z"/>
        <path class="cls-8" d="M425.94,619.79s10.61-48.87,41.63-14.63c0,0-20.48-14-41.63,14.63Z"/>
        <path class="cls-8" d="M427.48,620.88s42.06-27.05,39.78,19.09c0,0-4.58-24.38-39.78-19.09Z"/>
        <path class="cls-8" d="M426.97,622.62s48.87,10.61,14.63,41.63c0,0,14-20.48-14.63-41.63Z"/>
        <path class="cls-8" d="M425.61,624.09s27.05,42.06-19.09,39.78c0,0,24.38-4.58,19.09-39.78Z"/>
        <path class="cls-8" d="M423.75,624.42s-10.61,48.87-41.63,14.63c0,0,20.48,14,41.63-14.63Z"/>
        <path class="cls-8" d="M422.26,622.6s-42.06,27.05-39.78-19.09c0,0,4.58,24.38,39.78,19.09Z"/>
        <path class="cls-8" d="M421.94,620.73s-48.87-10.61-14.63-41.63c0,0-14,20.48,14.63,41.63Z"/>
      </g>
      <circle class="cls-10" cx="336.75" cy="621.5" r="8.78"/>
      <circle class="cls-10" cx="262.66" cy="723.81" r="8.78"/>
      <g>
        <circle class="cls-7" cx="589.34" cy="297.16" r="20.33"/>
        <path class="cls-2" d="M598.58,315.27c-10,5.1-22.25,1.13-27.35-8.87-5.1-10-1.13-22.25,8.87-27.35,10-5.1,22.25-1.13,27.35,8.87,5.1,10,1.13,22.25-8.87,27.35Z"/>
      </g>
      <g>
        <circle class="cls-7" cx="1009.51" cy="185.08" r="20.33"/>
        <path class="cls-2" d="M1018.75,203.19c-10,5.1-22.25,1.13-27.35-8.87-5.1-10-1.13-22.25,8.87-27.35,10-5.1,22.25-1.13,27.35,8.87,5.1,10,1.13,22.25-8.87,27.35Z"/>
      </g>
      <g>
        <path class="cls-7" d="M608.6,517.06c-10,5.1-22.25-4.87-27.35-14.87-5.1-10-1.13-22.25,8.87-27.35,10-5.1,22.25-1.13,27.35,8.87,5.1,10,1.13,28.25-8.87,33.35Z"/>
        <path class="cls-3" d="M608.6,517.06c-10,5.1-22.25-4.87-27.35-14.87-5.1-10-1.13-22.25,8.87-27.35,10-5.1,22.25-1.13,27.35,8.87,5.1,10,1.13,28.25-8.87,33.35Z"/>
      </g>
      <g>
        <circle class="cls-7" cx="1019.24" cy="380.19" r="20.33"/>
        <path class="cls-2" d="M1028.48,398.3c-10,5.1-22.25,1.13-27.35-8.87-5.1-10-1.13-22.25,8.87-27.35,10-5.1,22.25-1.13,27.35,8.87,5.1,10,1.13,22.25-8.87,27.35Z"/>
      </g>
      <g>
        <circle class="cls-7" cx="1002.08" cy="-16.87" r="20.33"/>
        <path class="cls-2" d="M1011.32,1.24c-10,5.1-22.25,1.13-27.35-8.87-5.1-10-1.13-22.25,8.87-27.35,10-5.1,22.25-1.13,27.35,8.87,5.1,10,1.13,22.25-8.87,27.35Z"/>
      </g>
      <g>
        <circle class="cls-7" cx="938.25" cy="279.87" r="20.33"/>
        <path class="cls-2" d="M947.49,297.98c-10,5.1-22.25,1.13-27.35-8.87-5.1-10-1.13-22.25,8.87-27.35,10-5.1,22.25-1.13,27.35,8.87,5.1,10,1.13,22.25-8.87,27.35Z"/>
      </g>
      <g>
        <circle class="cls-7" cx="677.65" cy="388.58" r="20.33"/>
        <path class="cls-2" d="M686.89,406.69c-10,5.1-22.25,1.13-27.35-8.87-5.1-10-1.13-22.25,8.87-27.35,10-5.1,22.25-1.13,27.35,8.87,5.1,10,1.13,22.25-8.87,27.35Z"/>
      </g>
      <g>
        <circle class="cls-7" cx="762.82" cy="489.1" r="20.33"/>
        <path class="cls-2" d="M772.05,507.21c-10,5.1-22.25,1.13-27.35-8.87-5.1-10-1.13-22.25,8.87-27.35,10-5.1,22.25-1.13,27.35,8.87,5.1,10,1.13,22.25-8.87,27.35Z"/>
      </g>
      <g>
        <circle class="cls-7" cx="845.98" cy="381.04" r="20.33"/>
        <path class="cls-2" d="M855.22,399.15c-10,5.1-22.25,1.13-27.35-8.87-5.1-10-1.13-22.25,8.87-27.35,10-5.1,22.25-1.13,27.35,8.87,5.1,10,1.13,22.25-8.87,27.35Z"/>
      </g>
      <g>
        <circle class="cls-7" cx="928.44" cy="480.98" r="20.33"/>
        <path class="cls-2" d="M937.68,499.09c-10,5.1-22.25,1.13-27.35-8.87-5.1-10-1.13-22.25,8.87-27.35,10-5.1,22.25-1.13,27.35,8.87,5.1,10,1.13,22.25-8.87,27.35Z"/>
      </g>
      <g>
        <circle class="cls-7" cx="667.92" cy="193.47" r="20.33"/>
        <path class="cls-2" d="M677.16,211.59c-10,5.1-22.25,1.13-27.35-8.87-5.1-10-1.13-22.25,8.87-27.35,10-5.1,22.25-1.13,27.35,8.87,5.1,10,1.13,22.25-8.87,27.35Z"/>
      </g>
      <g>
        <circle class="cls-7" cx="582.27" cy="96.45" r="20.33"/>
        <path class="cls-2" d="M591.51,114.56c-10,5.1-22.25,1.13-27.35-8.87-5.1-10-1.13-22.25,8.87-27.35,10-5.1,22.25-1.13,27.35,8.87,5.1,10,1.13,22.25-8.87,27.35Z"/>
      </g>
      <g>
        <circle class="cls-7" cx="752.8" cy="287.3" r="20.33"/>
        <path class="cls-2" d="M762.04,305.41c-10,5.1-22.25,1.13-27.35-8.87-5.1-10-1.13-22.25,8.87-27.35,10-5.1,22.25-1.13,27.35,8.87,5.1,10,1.13,22.25-8.87,27.35Z"/>
      </g>
      <g>
        <circle class="cls-7" cx="914.83" cy="82.25" r="20.33"/>
        <path class="cls-2" d="M924.07,100.36c-10,5.1-22.25,1.13-27.35-8.87-5.1-10-1.13-22.25,8.87-27.35,10-5.1,22.25-1.13,27.35,8.87,5.1,10,1.13,22.25-8.87,27.35Z"/>
      </g>
      <g>
        <circle class="cls-7" cx="836.25" cy="185.93" r="20.33"/>
        <path class="cls-2" d="M845.49,204.04c-10,5.1-22.25,1.13-27.35-8.87-5.1-10-1.13-22.25,8.87-27.35,10-5.1,22.25-1.13,27.35,8.87,5.1,10,1.13,22.25-8.87,27.35Z"/>
      </g>
      <g>
        <circle class="cls-7" cx="656.1" cy="-4.8" r="20.33"/>
        <path class="cls-2" d="M665.34,13.31c-10,5.1-22.25,1.13-27.35-8.87-5.1-10-1.13-22.25,8.87-27.35,10-5.1,22.25-1.13,27.35,8.87,5.1,10,1.13,22.25-8.87,27.35Z"/>
      </g>
      <g>
        <circle class="cls-7" cx="821.72" cy="-12.92" r="20.33"/>
        <path class="cls-2" d="M830.96,5.19c-10,5.1-22.25,1.13-27.35-8.87-5.1-10-1.13-22.25,8.87-27.35,10-5.1,22.25-1.13,27.35,8.87,5.1,10,1.13,22.25-8.87,27.35Z"/>
      </g>
      <g>
        <circle class="cls-7" cx="747.64" cy="89.39" r="20.33"/>
        <path class="cls-2" d="M756.88,107.5c-10,5.1-22.25,1.13-27.35-8.87-5.1-10-1.13-22.25,8.87-27.35,10-5.1,22.25-1.13,27.35,8.87s1.13,22.25-8.87,27.35Z"/>
      </g>
      <path class="cls-8" d="M583.07,197.1s-27.05-42.06,19.09-39.78c0,0-24.38,4.58-19.09,39.78Z"/>
      <path class="cls-8" d="M585.07,197.01s10.61-48.87,41.63-14.63c0,0-20.48-14-41.63,14.63Z"/>
      <path class="cls-8" d="M586.61,198.1s42.06-27.05,39.78,19.09c0,0-4.58-24.38-39.78-19.09Z"/>
      <path class="cls-8" d="M586.09,199.84s48.87,10.61,14.63,41.63c0,0,14-20.48-14.63-41.63Z"/>
      <path class="cls-8" d="M584.74,201.32s27.05,42.06-19.09,39.78c0,0,24.38-4.58,19.09-39.78Z"/>
      <path class="cls-8" d="M582.88,201.64s-10.61,48.87-41.63,14.63c0,0,20.48,14,41.63-14.63Z"/>
      <path class="cls-8" d="M581.38,199.82s-42.06,27.05-39.78-19.09c0,0,4.58,24.38,39.78,19.09Z"/>
      <path class="cls-8" d="M581.06,197.96s-48.87-10.61-14.63-41.63c0,0-14,20.48,14.63,41.63Z"/>
      <g>
        <path class="cls-8" d="M672.46,290.73s-27.05-42.06,19.09-39.78c0,0-24.38,4.58-19.09,39.78Z"/>
        <path class="cls-8" d="M674.46,290.65s10.61-48.87,41.63-14.63c0,0-20.48-14-41.63,14.63Z"/>
        <path class="cls-8" d="M676,291.74s42.06-27.05,39.78,19.09c0,0-4.58-24.38-39.78-19.09Z"/>
        <path class="cls-8" d="M675.49,293.48s48.87,10.61,14.63,41.63c0,0,14-20.48-14.63-41.63Z"/>
        <path class="cls-8" d="M674.13,294.95s27.05,42.06-19.09,39.78c0,0,24.38-4.58,19.09-39.78Z"/>
        <path class="cls-8" d="M672.27,295.27s-10.61,48.87-41.63,14.63c0,0,20.48,14,41.63-14.63Z"/>
        <path class="cls-8" d="M670.78,293.45s-42.06,27.05-39.78-19.09c0,0,4.58,24.38,39.78,19.09Z"/>
        <path class="cls-8" d="M670.45,291.59s-48.87-10.61-14.63-41.63c0,0-14,20.48,14.63,41.63Z"/>
      </g>
      <g>
        <path class="cls-8" d="M666.29,97.16s-27.05-42.06,19.09-39.78c0,0-24.38,4.58-19.09,39.78Z"/>
        <path class="cls-8" d="M668.29,97.07s10.61-48.87,41.63-14.63c0,0-20.48-14-41.63,14.63Z"/>
        <path class="cls-8" d="M669.84,98.16s42.06-27.05,39.78,19.09c0,0-4.58-24.38-39.78-19.09Z"/>
        <path class="cls-8" d="M669.32,99.9s48.87,10.61,14.63,41.63c0,0,14-20.48-14.63-41.63Z"/>
        <path class="cls-8" d="M667.97,101.37s27.05,42.06-19.09,39.78c0,0,24.38-4.58,19.09-39.78Z"/>
        <path class="cls-8" d="M666.1,101.7s-10.61,48.87-41.63,14.63c0,0,20.48,14,41.63-14.63Z"/>
        <path class="cls-8" d="M664.61,99.88s-42.06,27.05-39.78-19.09c0,0,4.58,24.38,39.78,19.09Z"/>
        <path class="cls-8" d="M664.29,98.02s-48.87-10.61-14.63-41.63c0,0-14,20.48,14.63,41.63Z"/>
      </g>
      <path class="cls-8" d="M749.29,196.27s-27.05-42.06,19.09-39.78c0,0-24.38,4.58-19.09,39.78Z"/>
      <path class="cls-8" d="M751.29,196.19s10.61-48.87,41.63-14.63c0,0-20.48-14-41.63,14.63Z"/>
      <path class="cls-8" d="M752.84,197.28s42.06-27.05,39.78,19.09c0,0-4.58-24.38-39.78-19.09Z"/>
      <path class="cls-8" d="M752.32,199.01s48.87,10.61,14.63,41.63c0,0,14-20.48-14.63-41.63Z"/>
      <path class="cls-8" d="M750.97,200.49s27.05,42.06-19.09,39.78c0,0,24.38-4.58,19.09-39.78Z"/>
      <path class="cls-8" d="M749.11,200.81s-10.61,48.87-41.63,14.63c0,0,20.48,14,41.63-14.63Z"/>
      <path class="cls-8" d="M747.61,198.99s-42.06,27.05-39.78-19.09c0,0,4.58,24.38,39.78,19.09Z"/>
      <path class="cls-8" d="M747.29,197.13s-48.87-10.61-14.63-41.63c0,0-14,20.48,14.63,41.63Z"/>
      <path class="cls-8" d="M831.39,67.05s-27.05-42.06,19.09-39.78c0,0-24.38,4.58-19.09,39.78Z"/>
      <path class="cls-8" d="M833.39,66.96s10.61-48.87,41.63-14.63c0,0-20.48-14-41.63,14.63Z"/>
      <path class="cls-8" d="M834.93,68.05s42.06-27.05,39.78,19.09c0,0-4.58-24.38-39.78-19.09Z"/>
      <path class="cls-8" d="M834.42,69.79s48.87,10.61,14.63,41.63c0,0,14-20.48-14.63-41.63Z"/>
      <path class="cls-8" d="M833.06,71.26s27.05,42.06-19.09,39.78c0,0,24.38-4.58,19.09-39.78Z"/>
      <path class="cls-8" d="M831.2,71.59s-10.61,48.87-41.63,14.63c0,0,20.48,14,41.63-14.63Z"/>
      <path class="cls-8" d="M829.71,69.77s-42.06,27.05-39.78-19.09c0,0,4.58,24.38,39.78,19.09Z"/>
      <path class="cls-8" d="M829.38,67.9s-48.87-10.61-14.63-41.63c0,0-14,20.48,14.63,41.63Z"/>
      <circle class="cls-10" cx="667.92" cy="193.47" r="8.78"/>
      <circle class="cls-10" cx="582.27" cy="96.45" r="8.78"/>
      <circle class="cls-10" cx="589.34" cy="297.16" r="8.78"/>
      <circle class="cls-10" cx="752.8" cy="287.3" r="8.78"/>
      <path class="cls-8" d="M831.98,85.79s10.61-48.87,41.63-14.63c0,0-20.48-14-41.63,14.63Z"/>
      <g>
        <path class="cls-8" d="M919.57,184.21s-27.05-42.06,19.09-39.78c0,0-24.38,4.58-19.09,39.78Z"/>
        <path class="cls-8" d="M921.57,184.13s10.61-48.87,41.63-14.63c0,0-20.48-14-41.63,14.63Z"/>
        <path class="cls-8" d="M923.11,185.22s42.06-27.05,39.78,19.09c0,0-4.58-24.38-39.78-19.09Z"/>
        <path class="cls-8" d="M922.6,186.96s48.87,10.61,14.63,41.63c0,0,14-20.48-14.63-41.63Z"/>
        <path class="cls-8" d="M921.24,188.43s27.05,42.06-19.09,39.78c0,0,24.38-4.58,19.09-39.78Z"/>
        <path class="cls-8" d="M919.38,188.75s-10.61,48.87-41.63,14.63c0,0,20.48,14,41.63-14.63Z"/>
        <path class="cls-8" d="M917.89,186.93s-42.06,27.05-39.78-19.09c0,0,4.58,24.38,39.78,19.09Z"/>
        <path class="cls-8" d="M917.56,185.07s-48.87-10.61-14.63-41.63c0,0-14,20.48,14.63,41.63Z"/>
      </g>
      <path class="cls-8" d="M1005.61,84.65s-27.05-42.06,19.09-39.78c0,0-24.38,4.58-19.09,39.78Z"/>
      <path class="cls-8" d="M1007.61,84.56s10.61-48.87,41.63-14.63c0,0-20.48-14-41.63,14.63Z"/>
      <path class="cls-8" d="M1009.15,85.65s42.06-27.05,39.78,19.09c0,0-4.58-24.38-39.78-19.09Z"/>
      <path class="cls-8" d="M1008.63,87.39s48.87,10.61,14.63,41.63c0,0,14-20.48-14.63-41.63Z"/>
      <path class="cls-8" d="M1007.28,88.87s27.05,42.06-19.09,39.78c0,0,24.38-4.58,19.09-39.78Z"/>
      <path class="cls-8" d="M1005.42,89.19s-10.61,48.87-41.63,14.63c0,0,20.48,14,41.63-14.63Z"/>
      <path class="cls-8" d="M1003.92,87.37s-42.06,27.05-39.78-19.09c0,0,4.58,24.38,39.78,19.09Z"/>
      <path class="cls-8" d="M1003.6,85.51s-48.87-10.61-14.63-41.63c0,0-14,20.48,14.63,41.63Z"/>
      <circle class="cls-10" cx="914.83" cy="82.25" r="8.78"/>
      <circle class="cls-10" cx="836.25" cy="185.93" r="8.78"/>
      <circle class="cls-10" cx="1009.51" cy="185.08" r="8.78"/>
      <g>
        <path class="cls-8" d="M838.08,282.61s-27.05-42.06,19.09-39.78c0,0-24.38,4.58-19.09,39.78Z"/>
        <path class="cls-8" d="M840.08,282.53s10.61-48.87,41.63-14.63c0,0-20.48-14-41.63,14.63Z"/>
        <path class="cls-8" d="M841.63,283.62s42.06-27.05,39.78,19.09c0,0-4.58-24.38-39.78-19.09Z"/>
        <path class="cls-8" d="M841.11,285.36s48.87,10.61,14.63,41.63c0,0,14-20.48-14.63-41.63Z"/>
        <path class="cls-8" d="M839.76,286.83s27.05,42.06-19.09,39.78c0,0,24.38-4.58,19.09-39.78Z"/>
        <path class="cls-8" d="M837.89,287.15s-10.61,48.87-41.63,14.63c0,0,20.48,14,41.63-14.63Z"/>
        <path class="cls-8" d="M836.4,285.33s-42.06,27.05-39.78-19.09c0,0,4.58,24.38,39.78,19.09Z"/>
        <path class="cls-8" d="M836.08,283.47s-48.87-10.61-14.63-41.63c0,0-14,20.48,14.63,41.63Z"/>
      </g>
      <g>
        <path class="cls-8" d="M1005.62,277.56s-27.05-42.06,19.09-39.78c0,0-24.38,4.58-19.09,39.78Z"/>
        <path class="cls-8" d="M1007.62,277.47s10.61-48.87,41.63-14.63c0,0-20.48-14-41.63,14.63Z"/>
        <path class="cls-8" d="M1009.16,278.56s42.06-27.05,39.78,19.09c0,0-4.58-24.38-39.78-19.09Z"/>
        <path class="cls-8" d="M1008.64,280.3s48.87,10.61,14.63,41.63c0,0,14-20.48-14.63-41.63Z"/>
        <path class="cls-8" d="M1007.29,281.78s27.05,42.06-19.09,39.78c0,0,24.38-4.58,19.09-39.78Z"/>
        <path class="cls-8" d="M1005.43,282.1s-10.61,48.87-41.63,14.63c0,0,20.48,14,41.63-14.63Z"/>
        <path class="cls-8" d="M1003.93,280.28s-42.06,27.05-39.78-19.09c0,0,4.58,24.38,39.78,19.09Z"/>
        <path class="cls-8" d="M1003.61,278.42s-48.87-10.61-14.63-41.63c0,0-14,20.48,14.63,41.63Z"/>
      </g>
      <circle class="cls-10" cx="938.25" cy="279.87" r="8.78"/>
      <path class="cls-8" d="M592.8,392.2s-27.05-42.06,19.09-39.78c0,0-24.38,4.58-19.09,39.78Z"/>
      <path class="cls-8" d="M594.8,392.12s10.61-48.87,41.63-14.63c0,0-20.48-14-41.63,14.63Z"/>
      <path class="cls-8" d="M596.34,393.21s42.06-27.05,39.78,19.09c0,0-4.58-24.38-39.78-19.09Z"/>
      <path class="cls-8" d="M595.82,394.95s48.87,4.61,14.63,35.63c0,0,14-14.48-14.63-35.63Z"/>
      <path class="cls-8" d="M594.47,396.42s27.05,36.06-19.09,33.78c0,0,24.38,1.42,19.09-33.78Z"/>
      <path class="cls-8" d="M592.61,390.74s-10.61,48.87-41.63,14.63c0,0,20.48,14,41.63-14.63Z"/>
      <path class="cls-8" d="M591.11,394.92c-.82.53-41.24,10.53-39.78-19.09,0,0,4.58,24.38,39.78,19.09Z"/>
      <path class="cls-8" d="M590.79,393.06s-48.87-10.61-14.63-41.63c0,0-14,20.48,14.63,41.63Z"/>
      <g>
        <path class="cls-8" d="M682.47,492.53s-27.05-42.06,19.09-39.78c0,0-24.38,4.58-19.09,39.78Z"/>
        <path class="cls-8" d="M684.47,492.45s10.61-48.87,41.63-14.63c0,0-20.48-14-41.63,14.63Z"/>
        <path class="cls-8" d="M686.02,493.54s42.06-27.05,39.78,19.09c0,0-4.58-24.38-39.78-19.09Z"/>
        <path class="cls-8" d="M685.5,495.28s48.87,10.61,14.63,41.63c0,0,14-20.48-14.63-41.63Z"/>
        <path class="cls-8" d="M684.15,496.75s27.05,42.06-19.09,39.78c0,0,24.38-4.58,19.09-39.78Z"/>
        <path class="cls-8" d="M682.29,497.07s-10.61,48.87-41.63,14.63c0,0,20.48,14,41.63-14.63Z"/>
        <path class="cls-8" d="M680.79,495.25s-42.06,21.05-39.78-25.09c0,0,4.58,30.38,39.78,25.09Z"/>
        <path class="cls-8" d="M680.47,493.39s-48.87-10.61-14.63-41.63c0,0-14,20.48,14.63,41.63Z"/>
      </g>
      <path class="cls-8" d="M759.02,391.38s-27.05-42.06,19.09-39.78c0,0-24.38,4.58-19.09,39.78Z"/>
      <path class="cls-8" d="M761.02,391.29s10.61-48.87,41.63-14.63c0,0-20.48-14-41.63,14.63Z"/>
      <path class="cls-8" d="M762.57,392.38s42.06-27.05,39.78,19.09c0,0-4.58-24.38-39.78-19.09Z"/>
      <path class="cls-8" d="M762.05,394.12s48.87,10.61,14.63,41.63c0,0,14-20.48-14.63-41.63Z"/>
      <path class="cls-8" d="M760.7,395.59s27.05,42.06-19.09,39.78c0,0,24.38-4.58,19.09-39.78Z"/>
      <path class="cls-8" d="M758.84,395.92s-10.61,48.87-41.63,14.63c0,0,20.48,14,41.63-14.63Z"/>
      <path class="cls-8" d="M757.34,394.1s-42.06,27.05-39.78-19.09c0,0,4.58,24.38,39.78,19.09Z"/>
      <path class="cls-8" d="M757.02,392.23s-48.87-10.61-14.63-41.63c0,0-14,20.48,14.63,41.63Z"/>
      <circle class="cls-10" cx="677.65" cy="388.58" r="8.78"/>
      <circle class="cls-10" cx="599.36" cy="492.95" r="8.78"/>
      <circle class="cls-10" cx="762.82" cy="489.1" r="8.78"/>
      <g>
        <path class="cls-8" d="M929.3,379.32s-27.05-42.06,19.09-39.78c0,0-24.38,4.58-19.09,39.78Z"/>
        <path class="cls-8" d="M931.3,379.23s10.61-48.87,41.63-14.63c0,0-20.48-14-41.63,14.63Z"/>
        <path class="cls-8" d="M932.84,380.32s42.06-27.05,39.78,19.09c0,0-4.58-24.38-39.78-19.09Z"/>
        <path class="cls-8" d="M932.33,382.06s48.87,10.61,14.63,41.63c0,0,14-20.48-14.63-41.63Z"/>
        <path class="cls-8" d="M930.97,383.54s27.05,42.06-19.09,39.78c0,0,24.38-4.58,19.09-39.78Z"/>
        <path class="cls-8" d="M929.11,383.86s-10.61,48.87-41.63,14.63c0,0,20.48,14,41.63-14.63Z"/>
        <path class="cls-8" d="M927.62,382.04s-42.06,27.05-39.78-19.09c0,0,4.58,24.38,39.78,19.09Z"/>
        <path class="cls-8" d="M927.3,380.18s-48.87-10.61-14.63-41.63c0,0-14,20.48,14.63,41.63Z"/>
      </g>
      <circle class="cls-10" cx="845.98" cy="381.04" r="8.78"/>
      <circle class="cls-10" cx="1019.24" cy="380.19" r="8.78"/>
      <g>
        <path class="cls-8" d="M848.1,484.41s-27.05-42.06,19.09-39.78c0,0-24.38,4.58-19.09,39.78Z"/>
        <path class="cls-8" d="M850.1,484.32s10.61-48.87,41.63-14.63c0,0-20.48-14-41.63,14.63Z"/>
        <path class="cls-8" d="M851.64,485.41s42.06-27.05,39.78,19.09c0,0-4.58-24.38-39.78-19.09Z"/>
        <path class="cls-8" d="M851.13,487.15s48.87,10.61,14.63,41.63c0,0,14-20.48-14.63-41.63Z"/>
        <path class="cls-8" d="M849.77,488.63s27.05,42.06-19.09,39.78c0,0,24.38-4.58,19.09-39.78Z"/>
        <path class="cls-8" d="M847.91,488.95s-10.61,48.87-41.63,14.63c0,0,20.48,14,41.63-14.63Z"/>
        <path class="cls-8" d="M846.42,487.13s-42.06,27.05-39.78-19.09c0,0,4.58,24.38,39.78,19.09Z"/>
        <path class="cls-8" d="M846.09,485.27s-48.87-10.61-14.63-41.63c0,0-14,20.48,14.63,41.63Z"/>
      </g>
      <g>
        <path class="cls-8" d="M1015.63,479.36s-27.05-42.06,19.09-39.78c0,0-24.38,4.58-19.09,39.78Z"/>
        <path class="cls-8" d="M1017.63,479.27s10.61-48.87,41.63-14.63c0,0-20.48-14-41.63,14.63Z"/>
        <path class="cls-8" d="M1019.18,480.36s42.06-27.05,39.78,19.09c0,0-4.58-24.38-39.78-19.09Z"/>
        <path class="cls-8" d="M1018.66,482.1s48.87,10.61,14.63,41.63c0,0,14-20.48-14.63-41.63Z"/>
        <path class="cls-8" d="M1017.31,483.57s27.05,42.06-19.09,39.78c0,0,24.38-4.58,19.09-39.78Z"/>
        <path class="cls-8" d="M1015.44,483.9s-10.61,48.87-41.63,14.63c0,0,20.48,14,41.63-14.63Z"/>
        <path class="cls-8" d="M1013.95,482.08s-42.06,27.05-39.78-19.09c0,0,4.58,24.38,39.78,19.09Z"/>
        <path class="cls-8" d="M1013.63,480.21s-48.87-10.61-14.63-41.63c0,0-14,20.48,14.63,41.63Z"/>
      </g>
      <circle class="cls-10" cx="928.44" cy="480.98" r="8.78"/>
      <g>
        <path class="cls-8" d="M579.3-.36s42.06-27.05,39.78,19.09c0,0-4.58-24.38-39.78-19.09Z"/>
        <path class="cls-8" d="M578.79,1.38s48.87,10.61,14.63,41.63c0,0,14-20.48-14.63-41.63Z"/>
        <path class="cls-8" d="M577.43,2.85s27.05,42.06-19.09,39.78c0,0,24.38-4.58,19.09-39.78Z"/>
        <path class="cls-8" d="M575.57,3.17s-10.61,48.87-41.63,14.63c0,0,20.48,14,41.63-14.63Z"/>
        <path class="cls-8" d="M574.08,1.35s-42.06,27.05-39.78-19.09c0,0,4.58,24.38,39.78,19.09Z"/>
      </g>
      <circle class="cls-10" cx="656.1" cy="-4.8" r="8.78"/>
      <g>
        <path class="cls-8" d="M744.93-8.48s42.06-27.05,39.78,19.09c0,0-4.58-24.38-39.78-19.09Z"/>
        <path class="cls-8" d="M744.41-6.74s48.87,10.61,14.63,41.63c0,0,14-20.48-14.63-41.63Z"/>
        <path class="cls-8" d="M743.06-5.27s27.05,42.06-19.09,39.78c0,0,24.38-4.58,19.09-39.78Z"/>
        <path class="cls-8" d="M741.19-4.95s-10.61,48.87-41.63,14.63c0,0,20.48,14,41.63-14.63Z"/>
        <path class="cls-8" d="M739.7-6.77s-42.06,27.05-39.78-19.09c0,0,4.58,24.38,39.78,19.09Z"/>
      </g>
      <g>
        <path class="cls-8" d="M912.46-13.54s42.06-27.05,39.78,19.09c0,0-4.58-24.38-39.78-19.09Z"/>
        <path class="cls-8" d="M911.94-11.8s48.87,10.61,14.63,41.63c0,0,14-20.48-14.63-41.63Z"/>
        <path class="cls-8" d="M910.59-10.32s27.05,42.06-19.09,39.78c0,0,24.38-4.58,19.09-39.78Z"/>
        <path class="cls-8" d="M908.73-10s-10.61,48.87-41.63,14.63c0,0,20.48,14,41.63-14.63Z"/>
      </g>
      <circle class="cls-10" cx="747.64" cy="89.39" r="8.78"/>
      <g>
        <circle class="cls-7" cx="627.67" cy="907.14" r="20.33"/>
        <path class="cls-2" d="M636.91,925.25c-10,5.1-22.25,1.13-27.35-8.87-5.1-10-1.13-22.25,8.87-27.35,10-5.1,22.25-1.13,27.35,8.87,5.1,10,1.13,22.25-8.87,27.35Z"/>
      </g>
      <g>
        <circle class="cls-7" cx="1047.84" cy="795.07" r="20.33"/>
        <path class="cls-2" d="M1057.08,813.18c-10,5.1-22.25,1.13-27.35-8.87-5.1-10-1.13-22.25,8.87-27.35,10-5.1,22.25-1.13,27.35,8.87,5.1,10,1.13,22.25-8.87,27.35Z"/>
      </g>
      <g>
        <circle class="cls-7" cx="637.69" cy="1108.94" r="20.33"/>
        <path class="cls-2" d="M646.93,1127.05c-10,5.1-22.25,1.13-27.35-8.87-5.1-10-1.13-22.25,8.87-27.35,10-5.1,22.25-1.13,27.35,8.87,5.1,10,1.13,22.25-8.87,27.35Z"/>
      </g>
      <g>
        <circle class="cls-7" cx="1057.57" cy="990.18" r="20.33"/>
        <path class="cls-2" d="M1066.81,1008.29c-10,5.1-22.25,1.13-27.35-8.87-5.1-10-1.13-22.25,8.87-27.35,10-5.1,22.25-1.13,27.35,8.87,5.1,10,1.13,22.25-8.87,27.35Z"/>
      </g>
      <g>
        <circle class="cls-7" cx="1040.41" cy="593.11" r="20.33"/>
        <path class="cls-2" d="M1049.65,611.23c-10,5.1-22.25,1.13-27.35-8.87-5.1-10-1.13-22.25,8.87-27.35,10-5.1,22.25-1.13,27.35,8.87,5.1,10,1.13,22.25-8.87,27.35Z"/>
      </g>
      <g>
        <circle class="cls-7" cx="976.58" cy="889.85" r="20.33"/>
        <path class="cls-2" d="M985.82,907.97c-10,5.1-22.25,1.13-27.35-8.87-5.1-10-1.13-22.25,8.87-27.35,10-5.1,22.25-1.13,27.35,8.87,5.1,10,1.13,22.25-8.87,27.35Z"/>
      </g>
      <g>
        <circle class="cls-7" cx="715.98" cy="998.57" r="20.33"/>
        <path class="cls-2" d="M725.22,1016.68c-10,5.1-22.25,1.13-27.35-8.87-5.1-10-1.13-22.25,8.87-27.35,10-5.1,22.25-1.13,27.35,8.87,5.1,10,1.13,22.25-8.87,27.35Z"/>
      </g>
      <g>
        <circle class="cls-7" cx="801.15" cy="1099.09" r="20.33"/>
        <path class="cls-2" d="M810.38,1117.2c-10,5.1-22.25,1.13-27.35-8.87-5.1-10-1.13-22.25,8.87-27.35,10-5.1,22.25-1.13,27.35,8.87,5.1,10,1.13,22.25-8.87,27.35Z"/>
      </g>
      <g>
        <circle class="cls-7" cx="884.31" cy="991.03" r="20.33"/>
        <path class="cls-2" d="M893.55,1009.14c-10,5.1-22.25,1.13-27.35-8.87-5.1-10-1.13-22.25,8.87-27.35,10-5.1,22.25-1.13,27.35,8.87,5.1,10,1.13,22.25-8.87,27.35Z"/>
      </g>
      <g>
        <circle class="cls-7" cx="966.77" cy="1090.97" r="20.33"/>
        <path class="cls-2" d="M976.01,1109.08c-10,5.1-22.25,1.13-27.35-8.87-5.1-10-1.13-22.25,8.87-27.35,10-5.1,22.25-1.13,27.35,8.87,5.1,10,1.13,22.25-8.87,27.35Z"/>
      </g>
      <g>
        <circle class="cls-7" cx="706.25" cy="803.46" r="20.33"/>
        <path class="cls-2" d="M715.49,821.57c-10,5.1-22.25,1.13-27.35-8.87-5.1-10-1.13-22.25,8.87-27.35,10-5.1,22.25-1.13,27.35,8.87,5.1,10,1.13,22.25-8.87,27.35Z"/>
      </g>
      <g>
        <circle class="cls-7" cx="620.6" cy="706.44" r="20.33"/>
        <path class="cls-2" d="M629.84,724.55c-10,5.1-22.25,1.13-27.35-8.87-5.1-10-1.13-22.25,8.87-27.35,10-5.1,22.25-1.13,27.35,8.87,5.1,10,1.13,22.25-8.87,27.35Z"/>
      </g>
      <g>
        <circle class="cls-7" cx="791.13" cy="897.29" r="20.33"/>
        <path class="cls-2" d="M800.37,915.4c-10,5.1-22.25,1.13-27.35-8.87-5.1-10-1.13-22.25,8.87-27.35,10-5.1,22.25-1.13,27.35,8.87,5.1,10,1.13,22.25-8.87,27.35Z"/>
      </g>
      <g>
        <circle class="cls-7" cx="953.16" cy="692.24" r="20.33"/>
        <path class="cls-2" d="M962.4,710.35c-10,5.1-22.25,1.13-27.35-8.87-5.1-10-1.13-22.25,8.87-27.35,10-5.1,22.25-1.13,27.35,8.87,5.1,10,1.13,22.25-8.87,27.35Z"/>
      </g>
      <g>
        <circle class="cls-7" cx="874.58" cy="795.92" r="20.33"/>
        <path class="cls-2" d="M883.82,814.03c-10,5.1-22.25,1.13-27.35-8.87-5.1-10-1.13-22.25,8.87-27.35,10-5.1,22.25-1.13,27.35,8.87,5.1,10,1.13,22.25-8.87,27.35Z"/>
      </g>
      <g>
        <circle class="cls-7" cx="694.43" cy="605.19" r="20.33"/>
        <path class="cls-2" d="M703.67,623.3c-10,5.1-22.25,1.13-27.35-8.87-5.1-10-1.13-22.25,8.87-27.35,10-5.1,22.25-1.13,27.35,8.87,5.1,10,1.13,22.25-8.87,27.35Z"/>
      </g>
      <g>
        <circle class="cls-7" cx="860.05" cy="597.07" r="20.33"/>
        <path class="cls-2" d="M869.29,615.18c-10,5.1-22.25,1.13-27.35-8.87-5.1-10-1.13-22.25,8.87-27.35,10-5.1,22.25-1.13,27.35,8.87,5.1,10,1.13,22.25-8.87,27.35Z"/>
      </g>
      <g>
        <circle class="cls-7" cx="785.97" cy="699.38" r="20.33"/>
        <path class="cls-2" d="M795.21,717.49c-10,5.1-22.25,1.13-27.35-8.87-5.1-10-1.13-22.25,8.87-27.35,10-5.1,22.25-1.13,27.35,8.87,5.1,10,1.13,22.25-8.87,27.35Z"/>
      </g>
      <path class="cls-8" d="M621.4,807.09s-27.05-42.06,19.09-39.78c0,0-24.38,4.58-19.09,39.78Z"/>
      <path class="cls-8" d="M623.4,807s10.61-48.87,41.63-14.63c0,0-20.48-14-41.63,14.63Z"/>
      <path class="cls-8" d="M624.94,808.09s42.06-27.05,39.78,19.09c0,0-4.58-24.38-39.78-19.09Z"/>
      <path class="cls-8" d="M624.42,809.83s48.87,10.61,14.63,41.63c0,0,14-20.48-14.63-41.63Z"/>
      <path class="cls-8" d="M623.07,811.31s27.05,42.06-19.09,39.78c0,0,24.38-4.58,19.09-39.78Z"/>
      <path class="cls-8" d="M621.21,811.63s-10.61,48.87-41.63,14.63c0,0,20.48,14,41.63-14.63Z"/>
      <path class="cls-8" d="M619.71,809.81s-42.06,27.05-39.78-19.09c0,0,4.58,24.38,39.78,19.09Z"/>
      <path class="cls-8" d="M619.39,807.95s-48.87-10.61-14.63-41.63c0,0-14,20.48,14.63,41.63Z"/>
      <g>
        <path class="cls-8" d="M710.79,900.72s-27.05-42.06,19.09-39.78c0,0-24.38,4.58-19.09,39.78Z"/>
        <path class="cls-8" d="M712.79,900.64s10.61-48.87,41.63-14.63c0,0-20.48-14-41.63,14.63Z"/>
        <path class="cls-8" d="M714.33,901.73s42.06-27.05,39.78,19.09c0,0-4.58-24.38-39.78-19.09Z"/>
        <path class="cls-8" d="M713.82,903.47s48.87,10.61,14.63,41.63c0,0,14-20.48-14.63-41.63Z"/>
        <path class="cls-8" d="M712.46,904.94s27.05,42.06-19.09,39.78c0,0,24.38-4.58,19.09-39.78Z"/>
        <path class="cls-8" d="M710.6,905.26s-10.61,48.87-41.63,14.63c0,0,20.48,14,41.63-14.63Z"/>
        <path class="cls-8" d="M709.11,903.44s-42.06,27.05-39.78-19.09c0,0,4.58,24.38,39.78,19.09Z"/>
        <path class="cls-8" d="M708.78,901.58s-48.87-10.61-14.63-41.63c0,0-14,20.48,14.63,41.63Z"/>
      </g>
      <g>
        <path class="cls-8" d="M704.62,707.15s-27.05-42.06,19.09-39.78c0,0-24.38,4.58-19.09,39.78Z"/>
        <path class="cls-8" d="M706.62,707.06s10.61-48.87,41.63-14.63c0,0-20.48-14-41.63,14.63Z"/>
        <path class="cls-8" d="M708.17,708.15s42.06-27.05,39.78,19.09c0,0-4.58-24.38-39.78-19.09Z"/>
        <path class="cls-8" d="M707.65,709.89s48.87,10.61,14.63,41.63c0,0,14-20.48-14.63-41.63Z"/>
        <path class="cls-8" d="M706.3,711.36s27.05,42.06-19.09,39.78c0,0,24.38-4.58,19.09-39.78Z"/>
        <path class="cls-8" d="M704.43,711.68s-10.61,48.87-41.63,14.63c0,0,20.48,14,41.63-14.63Z"/>
        <path class="cls-8" d="M702.94,709.87s-42.06,27.05-39.78-19.09c0,0,4.58,24.38,39.78,19.09Z"/>
        <path class="cls-8" d="M702.62,708s-48.87-10.61-14.63-41.63c0,0-14,20.48,14.63,41.63Z"/>
      </g>
      <path class="cls-8" d="M787.62,806.26s-27.05-42.06,19.09-39.78c0,0-24.38,4.58-19.09,39.78Z"/>
      <path class="cls-8" d="M789.62,806.18s10.61-48.87,41.63-14.63c0,0-20.48-14-41.63,14.63Z"/>
      <path class="cls-8" d="M791.17,807.26s42.06-27.05,39.78,19.09c0,0-4.58-24.38-39.78-19.09Z"/>
      <path class="cls-8" d="M790.65,809s48.87,10.61,14.63,41.63c0,0,14-20.48-14.63-41.63Z"/>
      <path class="cls-8" d="M789.3,810.48s27.05,42.06-19.09,39.78c0,0,24.38-4.58,19.09-39.78Z"/>
      <path class="cls-8" d="M787.44,810.8s-10.61,48.87-41.63,14.63c0,0,20.48,14,41.63-14.63Z"/>
      <path class="cls-8" d="M785.94,808.98s-42.06,27.05-39.78-19.09c0,0,4.58,24.38,39.78,19.09Z"/>
      <path class="cls-8" d="M785.62,807.12s-48.87-10.61-14.63-41.63c0,0-14,20.48,14.63,41.63Z"/>
      <path class="cls-8" d="M869.72,677.03s-27.05-42.06,19.09-39.78c0,0-24.38,4.58-19.09,39.78Z"/>
      <path class="cls-8" d="M871.72,676.95s10.61-48.87,41.63-14.63c0,0-20.48-14-41.63,14.63Z"/>
      <path class="cls-8" d="M873.26,678.04s42.06-27.05,39.78,19.09c0,0-4.58-24.38-39.78-19.09Z"/>
      <path class="cls-8" d="M872.75,679.78s48.87,10.61,14.63,41.63c0,0,14-20.48-14.63-41.63Z"/>
      <path class="cls-8" d="M871.39,681.25s27.05,42.06-19.09,39.78c0,0,24.38-4.58,19.09-39.78Z"/>
      <path class="cls-8" d="M869.53,681.57s-10.61,48.87-41.63,14.63c0,0,20.48,14,41.63-14.63Z"/>
      <path class="cls-8" d="M868.04,679.76s-42.06,27.05-39.78-19.09c0,0,4.58,24.38,39.78,19.09Z"/>
      <path class="cls-8" d="M867.71,677.89s-48.87-10.61-14.63-41.63c0,0-14,20.48,14.63,41.63Z"/>
      <circle class="cls-10" cx="706.25" cy="803.46" r="8.78"/>
      <circle class="cls-10" cx="620.6" cy="706.44" r="8.78"/>
      <circle class="cls-10" cx="627.67" cy="907.14" r="8.78"/>
      <circle class="cls-10" cx="791.13" cy="897.29" r="8.78"/>
      <g>
        <path class="cls-8" d="M957.9,794.2s-27.05-42.06,19.09-39.78c0,0-24.38,4.58-19.09,39.78Z"/>
        <path class="cls-8" d="M959.9,794.12s10.61-48.87,41.63-14.63c0,0-20.48-14-41.63,14.63Z"/>
        <path class="cls-8" d="M961.44,795.21s42.06-27.05,39.78,19.09c0,0-4.58-24.38-39.78-19.09Z"/>
        <path class="cls-8" d="M960.93,796.95s48.87,10.61,14.63,41.63c0,0,14-20.48-14.63-41.63Z"/>
        <path class="cls-8" d="M959.57,798.42s27.05,42.06-19.09,39.78c0,0,24.38-4.58,19.09-39.78Z"/>
        <path class="cls-8" d="M957.71,798.74s-10.61,48.87-41.63,14.63c0,0,20.48,14,41.63-14.63Z"/>
        <path class="cls-8" d="M956.22,796.92s-42.06,27.05-39.78-19.09c0,0,4.58,24.38,39.78,19.09Z"/>
        <path class="cls-8" d="M955.9,795.06s-48.87-10.61-14.63-41.63c0,0-14,20.48,14.63,41.63Z"/>
      </g>
      <path class="cls-8" d="M1043.94,694.64s-27.05-42.06,19.09-39.78c0,0-24.38,4.58-19.09,39.78Z"/>
      <path class="cls-8" d="M1045.94,694.55s10.61-48.87,41.63-14.63c0,0-20.48-14-41.63,14.63Z"/>
      <path class="cls-8" d="M1047.48,695.64s42.06-27.05,39.78,19.09c0,0-4.58-24.38-39.78-19.09Z"/>
      <path class="cls-8" d="M1046.96,697.38s48.87,10.61,14.63,41.63c0,0,14-20.48-14.63-41.63Z"/>
      <path class="cls-8" d="M1045.61,698.86s27.05,42.06-19.09,39.78c0,0,24.38-4.58,19.09-39.78Z"/>
      <path class="cls-8" d="M1043.75,699.18s-10.61,48.87-41.63,14.63c0,0,20.48,14,41.63-14.63Z"/>
      <path class="cls-8" d="M1042.25,697.36s-42.06,27.05-39.78-19.09c0,0,4.58,24.38,39.78,19.09Z"/>
      <path class="cls-8" d="M1041.93,695.5s-48.87-10.61-14.63-41.63c0,0-14,20.48,14.63,41.63Z"/>
      <circle class="cls-10" cx="953.16" cy="692.24" r="8.78"/>
      <circle class="cls-10" cx="874.58" cy="795.92" r="8.78"/>
      <circle class="cls-10" cx="1047.84" cy="795.07" r="8.78"/>
      <g>
        <path class="cls-8" d="M876.41,892.6s-27.05-42.06,19.09-39.78c0,0-24.38,4.58-19.09,39.78Z"/>
        <path class="cls-8" d="M878.41,892.52s10.61-48.87,41.63-14.63c0,0-20.48-14-41.63,14.63Z"/>
        <path class="cls-8" d="M879.96,893.6s42.06-27.05,39.78,19.09c0,0-4.58-24.38-39.78-19.09Z"/>
        <path class="cls-8" d="M879.44,895.34s48.87,10.61,14.63,41.63c0,0,14-20.48-14.63-41.63Z"/>
        <path class="cls-8" d="M878.09,896.82s27.05,42.06-19.09,39.78c0,0,24.38-4.58,19.09-39.78Z"/>
        <path class="cls-8" d="M876.22,897.14s-10.61,48.87-41.63,14.63c0,0,20.48,14,41.63-14.63Z"/>
        <path class="cls-8" d="M874.73,895.32s-42.06,27.05-39.78-19.09c0,0,4.58,24.38,39.78,19.09Z"/>
        <path class="cls-8" d="M874.41,893.46s-48.87-10.61-14.63-41.63c0,0-14,20.48,14.63,41.63Z"/>
      </g>
      <g>
        <path class="cls-8" d="M1043.95,887.55s-27.05-42.06,19.09-39.78c0,0-24.38,4.58-19.09,39.78Z"/>
        <path class="cls-8" d="M1045.95,887.46s10.61-48.87,41.63-14.63c0,0-20.48-14-41.63,14.63Z"/>
        <path class="cls-8" d="M1047.49,888.55s42.06-27.05,39.78,19.09c0,0-4.58-24.38-39.78-19.09Z"/>
        <path class="cls-8" d="M1046.97,890.29s48.87,10.61,14.63,41.63c0,0,14-20.48-14.63-41.63Z"/>
        <path class="cls-8" d="M1045.62,891.76s27.05,42.06-19.09,39.78c0,0,24.38-4.58,19.09-39.78Z"/>
        <path class="cls-8" d="M1043.76,892.09s-10.61,48.87-41.63,14.63c0,0,20.48,14,41.63-14.63Z"/>
        <path class="cls-8" d="M1042.26,890.27s-42.06,27.05-39.78-19.09c0,0,4.58,24.38,39.78,19.09Z"/>
        <path class="cls-8" d="M1041.94,888.41s-48.87-10.61-14.63-41.63c0,0-14,20.48,14.63,41.63Z"/>
      </g>
      <circle class="cls-10" cx="976.58" cy="889.85" r="8.78"/>
      <path class="cls-8" d="M631.13,1002.19s-27.05-42.06,19.09-39.78c0,0-24.38,4.58-19.09,39.78Z"/>
      <path class="cls-8" d="M633.13,1002.11s10.61-48.87,41.63-14.63c0,0-20.48-14-41.63,14.63Z"/>
      <path class="cls-8" d="M634.67,1003.2s42.06-27.05,39.78,19.09c0,0-4.58-24.38-39.78-19.09Z"/>
      <path class="cls-8" d="M634.15,1004.93s48.87,10.61,14.63,41.63c0,0,14-20.48-14.63-41.63Z"/>
      <path class="cls-8" d="M632.8,1006.41s27.05,42.06-19.09,39.78c0,0,24.38-4.58,19.09-39.78Z"/>
      <path class="cls-8" d="M630.94,1006.73s-10.61,48.87-41.63,14.63c0,0,20.48,14,41.63-14.63Z"/>
      <path class="cls-8" d="M629.44,1004.91s-42.06,27.05-39.78-19.09c0,0,4.58,24.38,39.78,19.09Z"/>
      <path class="cls-8" d="M629.12,1003.05s-48.87-10.61-14.63-41.63c0,0-14,20.48,14.63,41.63Z"/>
      <g>
        <path class="cls-8" d="M720.81,1102.52s-27.05-42.06,19.09-39.78c0,0-24.38,4.58-19.09,39.78Z"/>
        <path class="cls-8" d="M722.81,1102.44s10.61-48.87,41.63-14.63c0,0-20.48-14-41.63,14.63Z"/>
        <path class="cls-8" d="M724.35,1103.52s42.06-27.05,39.78,19.09c0,0-4.58-24.38-39.78-19.09Z"/>
        <path class="cls-8" d="M723.83,1105.26s48.87,10.61,14.63,41.63c0,0,14-20.48-14.63-41.63Z"/>
        <path class="cls-8" d="M722.48,1106.74s27.05,42.06-19.09,39.78c0,0,24.38-4.58,19.09-39.78Z"/>
        <path class="cls-8" d="M720.62,1107.06s-10.61,48.87-41.63,14.63c0,0,20.48,14,41.63-14.63Z"/>
        <path class="cls-8" d="M719.12,1105.24s-42.06,27.05-39.78-19.09c0,0,4.58,24.38,39.78,19.09Z"/>
        <path class="cls-8" d="M718.8,1103.38s-48.87-10.61-14.63-41.63c0,0-14,20.48,14.63,41.63Z"/>
      </g>
      <path class="cls-8" d="M797.35,1001.37s-27.05-42.06,19.09-39.78c0,0-24.38,4.58-19.09,39.78Z"/>
      <path class="cls-8" d="M799.35,1001.28s10.61-48.87,41.63-14.63c0,0-20.48-14-41.63,14.63Z"/>
      <path class="cls-8" d="M800.9,1002.37s42.06-27.05,39.78,19.09c0,0-4.58-24.38-39.78-19.09Z"/>
      <path class="cls-8" d="M800.38,1004.11s48.87,10.61,14.63,41.63c0,0,14-20.48-14.63-41.63Z"/>
      <path class="cls-8" d="M799.03,1005.58s27.05,42.06-19.09,39.78c0,0,24.38-4.58,19.09-39.78Z"/>
      <path class="cls-8" d="M797.17,1005.9s-10.61,48.87-41.63,14.63c0,0,20.48,14,41.63-14.63Z"/>
      <path class="cls-8" d="M795.67,1004.09s-42.06,27.05-39.78-19.09c0,0,4.58,24.38,39.78,19.09Z"/>
      <path class="cls-8" d="M795.35,1002.22s-48.87-10.61-14.63-41.63c0,0-14,20.48,14.63,41.63Z"/>
      <circle class="cls-10" cx="715.98" cy="998.57" r="8.78"/>
      <circle class="cls-10" cx="637.69" cy="1108.94" r="8.78"/>
      <circle class="cls-10" cx="801.15" cy="1099.09" r="8.78"/>
      <g>
        <path class="cls-8" d="M967.63,989.31s-27.05-42.06,19.09-39.78c0,0-24.38,4.58-19.09,39.78Z"/>
        <path class="cls-8" d="M969.63,989.22s10.61-48.87,41.63-14.63c0,0-20.48-14-41.63,14.63Z"/>
        <path class="cls-8" d="M971.17,990.31s42.06-27.05,39.78,19.09c0,0-4.58-24.38-39.78-19.09Z"/>
        <path class="cls-8" d="M970.66,992.05s48.87,10.61,14.63,41.63c0,0,14-20.48-14.63-41.63Z"/>
        <path class="cls-8" d="M969.3,993.53s27.05,42.06-19.09,39.78c0,0,24.38-4.58,19.09-39.78Z"/>
        <path class="cls-8" d="M967.44,993.85s-10.61,48.87-41.63,14.63c0,0,20.48,14,41.63-14.63Z"/>
        <path class="cls-8" d="M965.95,992.03s-42.06,27.05-39.78-19.09c0,0,4.58,24.38,39.78,19.09Z"/>
        <path class="cls-8" d="M965.63,990.17s-48.87-10.61-14.63-41.63c0,0-14,20.48,14.63,41.63Z"/>
      </g>
      <circle class="cls-10" cx="884.31" cy="991.03" r="8.78"/>
      <circle class="cls-10" cx="1057.57" cy="990.18" r="8.78"/>
      <g>
        <path class="cls-8" d="M886.43,1094.4s-27.05-42.06,19.09-39.78c0,0-24.38,4.58-19.09,39.78Z"/>
        <path class="cls-8" d="M888.43,1094.31s10.61-48.87,41.63-14.63c0,0-20.48-14-41.63,14.63Z"/>
        <path class="cls-8" d="M889.97,1095.4s42.06-27.05,39.78,19.09c0,0-4.58-24.38-39.78-19.09Z"/>
        <path class="cls-8" d="M889.46,1097.14s48.87,10.61,14.63,41.63c0,0,14-20.48-14.63-41.63Z"/>
        <path class="cls-8" d="M888.1,1098.62s27.05,42.06-19.09,39.78c0,0,24.38-4.58,19.09-39.78Z"/>
        <path class="cls-8" d="M886.24,1098.94s-10.61,48.87-41.63,14.63c0,0,20.48,14,41.63-14.63Z"/>
        <path class="cls-8" d="M884.75,1097.12s-42.06,27.05-39.78-19.09c0,0,4.58,24.38,39.78,19.09Z"/>
        <path class="cls-8" d="M884.43,1095.26s-48.87-10.61-14.63-41.63c0,0-14,20.48,14.63,41.63Z"/>
      </g>
      <g>
        <path class="cls-8" d="M1053.96,1089.35s-27.05-42.06,19.09-39.78c0,0-24.38,4.58-19.09,39.78Z"/>
        <path class="cls-8" d="M1055.96,1089.26s10.61-48.87,41.63-14.63c0,0-20.48-14-41.63,14.63Z"/>
        <path class="cls-8" d="M1057.51,1090.35s42.06-27.05,39.78,19.09c0,0-4.58-24.38-39.78-19.09Z"/>
        <path class="cls-8" d="M1056.99,1092.09s48.87,10.61,14.63,41.63c0,0,14-20.48-14.63-41.63Z"/>
        <path class="cls-8" d="M1055.64,1093.56s27.05,42.06-19.09,39.78c0,0,24.38-4.58,19.09-39.78Z"/>
        <path class="cls-8" d="M1053.77,1093.88s-10.61,48.87-41.63,14.63c0,0,20.48,14,41.63-14.63Z"/>
        <path class="cls-8" d="M1052.28,1092.07s-42.06,27.05-39.78-19.09c0,0,4.58,24.38,39.78,19.09Z"/>
        <path class="cls-8" d="M1051.96,1090.2s-48.87-10.61-14.63-41.63c0,0-14,20.48,14.63,41.63Z"/>
      </g>
      <circle class="cls-10" cx="966.77" cy="1090.97" r="8.78"/>
      <g>
        <path class="cls-8" d="M614.09,608.62s-27.05-42.06,19.09-39.78c0,0-24.38,4.58-19.09,39.78Z"/>
        <path class="cls-8" d="M616.09,608.54s10.61-48.87,41.63-14.63c0,0-20.48-14-41.63,14.63Z"/>
        <path class="cls-8" d="M617.63,609.63s42.06-27.05,39.78,19.09c0,0-4.58-24.38-39.78-19.09Z"/>
        <path class="cls-8" d="M617.12,611.37s48.87,10.61,14.63,41.63c0,0,14-20.48-14.63-41.63Z"/>
        <path class="cls-8" d="M615.76,612.84s27.05,42.06-19.09,39.78c0,0,24.38-4.58,19.09-39.78Z"/>
        <path class="cls-8" d="M613.9,613.16s-10.61,48.87-41.63,14.63c0,0,20.48,14,41.63-14.63Z"/>
        <path class="cls-8" d="M612.41,611.34s-42.06,27.05-39.78-19.09c0,0,4.58,24.38,39.78,19.09Z"/>
        <path class="cls-8" d="M612.08,609.48s-48.87-10.61-14.63-41.63c0,0-14,20.48,14.63,41.63Z"/>
      </g>
      <circle class="cls-10" cx="1040.41" cy="593.11" r="8.78"/>
      <circle class="cls-10" cx="694.43" cy="605.19" r="8.78"/>
      <g>
        <path class="cls-8" d="M779.71,600.5s-27.05-42.06,19.09-39.78c0,0-24.38,4.58-19.09,39.78Z"/>
        <path class="cls-8" d="M781.71,600.42s10.61-48.87,41.63-14.63c0,0-20.48-14-41.63,14.63Z"/>
        <path class="cls-8" d="M783.26,601.5s42.06-27.05,39.78,19.09c0,0-4.58-24.38-39.78-19.09Z"/>
        <path class="cls-8" d="M782.74,603.24s48.87,10.61,14.63,41.63c0,0,14-20.48-14.63-41.63Z"/>
        <path class="cls-8" d="M781.39,604.72s27.05,42.06-19.09,39.78c0,0,24.38-4.58,19.09-39.78Z"/>
        <path class="cls-8" d="M779.52,605.04s-10.61,48.87-41.63,14.63c0,0,20.48,14,41.63-14.63Z"/>
        <path class="cls-8" d="M778.03,603.22s-42.06,27.05-39.78-19.09c0,0,4.58,24.38,39.78,19.09Z"/>
        <path class="cls-8" d="M777.71,601.36s-48.87-10.61-14.63-41.63c0,0-14,20.48,14.63,41.63Z"/>
      </g>
      <g>
        <path class="cls-8" d="M947.25,595.45s-27.05-42.06,19.09-39.78c0,0-24.38,4.58-19.09,39.78Z"/>
        <path class="cls-8" d="M949.25,595.36s10.61-48.87,41.63-14.63c0,0-20.48-14-41.63,14.63Z"/>
        <path class="cls-8" d="M950.79,596.45s42.06-27.05,39.78,19.09c0,0-4.58-24.38-39.78-19.09Z"/>
        <path class="cls-8" d="M950.27,598.19s48.87,10.61,14.63,41.63c0,0,14-20.48-14.63-41.63Z"/>
        <path class="cls-8" d="M948.92,599.66s27.05,42.06-19.09,39.78c0,0,24.38-4.58,19.09-39.78Z"/>
        <path class="cls-8" d="M947.06,599.99s-10.61,48.87-41.63,14.63c0,0,20.48,14,41.63-14.63Z"/>
        <path class="cls-8" d="M945.56,598.17s-42.06,27.05-39.78-19.09c0,0,4.58,24.38,39.78,19.09Z"/>
        <path class="cls-8" d="M945.24,596.31s-48.87-10.61-14.63-41.63c0,0-14,20.48,14.63,41.63Z"/>
      </g>
      <circle class="cls-10" cx="860.05" cy="597.07" r="8.78"/>
      <circle class="cls-10" cx="785.97" cy="699.38" r="8.78"/>
      <path class="cls-1" d="M234.16,881.71c-35.58-134.98,72.95-195.32,115.63-246.41l33.48-58.85s-102.52-376.74,142.79-405.6c0,0,162.94-17.68,199.97,131.96,0,0,16.55,70.03,6.28,146.55-7.83,58.38-21.07,127.31-21.07,127.31,0,0,35.36,42.32,55.46,58.62,20.09,16.3,135.08,89.74,108.57,245.17"/>
    </g>
    <path class="cls-14" d="M718.58,315.41c-3.45-6.86-7.29-13.18-11.69-19.38-5.84-8.24-11.38-16.71-17.35-24.84-9.46-12.88-20.3-24.1-33.43-32.59-11.93-7.71-25.06-13.04-38.67-16.11-27.45-6.2-56.41-3.23-82.85,6.42-13.21,4.82-26.32,11.3-37.78,19.92-11.88,8.95-21.68,20.87-29.76,33.73-11.95,19.03-20.65,40.31-27.05,62.29.65,4.25,1.38,8.52,2.17,12.85,0,0,0,.02.02.1.02.1.04.19.07.31,1.33,7.23,2.79,14.63,4.23,22.31,1.95,10.35,3.87,21.24,5.4,33.04,6.84,52.9,21.51,77.21,54.93,100.56,35.03,24.5,45.55,34.04,75.8,35.25,30.25-1.21,40.77-10.75,75.8-35.25,33.44-23.36,48.09-47.67,54.95-100.56,2.59-20.05,6.35-37.53,9.41-54.13,0-.02,0-.05.02-.1,1.67-9.09,3.12-17.93,4.08-26.8-2.86-5.66-5.51-11.46-8.3-17.01Z"/>
    <path class="cls-9" d="M441.76,356.39s19.28-118.5,133.41-125.21c79.99-4.7,137.6,65.82,148.72,121.46,0,0,2.76-4.71,2.99-20.22.24-15.51-34.65-143.42-153.22-138.72-118.57,4.7-135.4,135.69-135.4,135.69l3.5,27Z"/>
    <path class="cls-9" d="M731.01,326.3c1.62-23.92-1.04-48.13-8.22-71.03-7.05-22.49-18.46-43.61-33.77-61.56-8.7-10.2-18.64-19.33-29.51-27.17-.4-.29-1.48.28-.95.66,19.27,13.91,35.4,31.88,47.28,52.46,11.74,20.32,19.28,42.98,22.53,66.2,1.88,13.43,2.32,27.03,1.41,40.55-.04.59,1.19.39,1.22-.11h0Z"/>
    <path class="cls-9" d="M436.42,332.42c-4.3-23.57-4.08-47.93.78-71.4,4.77-23.01,14.04-45.15,27.79-64.25,7.77-10.78,16.93-20.51,27.27-28.86.53-.43-.67-.43-.97-.19-18.45,14.9-32.99,34.16-42.91,55.66-9.98,21.62-15.31,45.3-16.13,69.08-.46,13.49.53,27.01,2.95,40.29.07.4,1.29.11,1.21-.33h0Z"/>
    <path class="cls-6" d="M588.61,425.53c-4.13,2.62-10.33,2.2-14.38-.7-.9-.64-3.95.08-2.69.98,5.34,3.82,14.26,3.97,19.59.58.53-.34.45-.81-.2-1.05-.67-.25-1.75-.17-2.32.19"/>
    <path class="cls-6" d="M569.5,424.44c-3.26-1.53-6.92-2.34-10.57-2.62-.53-.04-1.23.16-1.62.51-.31.27-.37.64.03.87,1.68.96,3.83,1.36,5.8,1.33.62-.01,1.44-.16,1.79-.7.32-.49-.27-.81-.76-.8-1.63.03-3.29-.29-4.68-1.08-.53.46-1.06.92-1.6,1.38,3.26.25,6.53,1,9.45,2.38.58.27,1.41.1,1.93-.21.39-.23.8-.76.22-1.04"/>
    <path class="cls-6" d="M555.16,424.89c-3.6-.11-7.84-1.96-9.61-5.15-2.67-4.83-.18-10.56,4.31-13.64.49-.34.23-.77-.27-.89-.65-.16-1.41.12-1.92.47-3.92,2.69-6.46,7.06-5.87,11.58.55,4.23,4,7.19,8.31,8.41,1.28.36,2.65.61,3.99.65.55.01,1.53-.18,1.79-.68.27-.51-.23-.73-.74-.75"/>
    <path class="cls-6" d="M592.89,424.44c3.26-1.53,6.92-2.34,10.57-2.62.53-.04,1.23.16,1.62.51.31.27.37.64-.03.87-1.68.96-3.83,1.36-5.8,1.33-.62-.01-1.44-.16-1.79-.7-.32-.49.27-.81.76-.8,1.63.03,3.29-.29,4.68-1.08.53.46,1.06.92,1.6,1.38-3.26.25-6.53,1-9.45,2.38-.58.27-1.41.1-1.93-.21-.39-.23-.8-.76-.22-1.04"/>
    <path class="cls-6" d="M607.23,424.89c3.6-.11,7.84-1.96,9.61-5.15,2.67-4.83.18-10.56-4.31-13.64-.49-.34-.23-.77.27-.89.65-.16,1.41.12,1.92.47,3.92,2.69,6.46,7.06,5.87,11.58-.55,4.23-4,7.19-8.31,8.41-1.28.36-2.65.61-3.99.65-.55.01-1.53-.18-1.79-.68-.27-.51.23-.73.74-.75"/>
    <path class="cls-4" d="M614.79,323.87c.2,2.8.41,5.61.62,8.43.16,2.14.33,4.28.5,6.42,7.67-2.34,14.26-3.98,19.24-5.09,10.53-2.37,15.93-3.54,22.18-3.01,6.57.55,12.23,2.4,14.43,3.14,3.1,1.03,5.18,1.68,7.7,3.12,5.48,3.12,7.89,6.91,8.73,6.5.76-.37-.76-3.73-.92-4.07-3.88-8.46-11.56-13.1-12.14-13.47,0,0-5.78-3.61-14.8-5.08-6.21-1.01-23.22-.89-45.54,3.13"/>
    <path class="cls-4" d="M549.46,361.01s-19.26,14-29.1,14.91c-14.37,1.32-32.07-6.04-37.16-12.62,0,0,23.43,11,33.52,9.8,9.65-1.15,32.74-12.08,32.74-12.08Z"/>
    <path class="cls-4" d="M546.07,321.82c-.02,2.81-.05,5.62-.07,8.45-.02,2.15-.05,4.29-.08,6.44-7.8-1.84-14.48-3.05-19.53-3.84-10.66-1.68-16.12-2.5-22.33-1.57-6.52.97-12.05,3.18-14.2,4.06-3.02,1.23-5.06,2.01-7.48,3.6-5.27,3.47-7.43,7.4-8.29,7.05-.78-.32.52-3.77.66-4.12,3.33-8.69,10.69-13.82,11.25-14.23,0,0,5.54-3.97,14.44-6.02,6.13-1.41,23.11-2.38,45.65.19"/>
    <path class="cls-4" d="M615.62,360.71s19.26,14,29.1,14.91c14.37,1.32,32.07-6.04,37.16-12.62,0,0-23.43,11-33.52,9.8-9.65-1.15-32.74-12.08-32.74-12.08Z"/>
    <path class="cls-16" d="M582.01,453.79c-20.54,0-46.56.42-46.56.42,0,0-1.05,51.9,46.57,51.9s48.22-52.5,48.22-52.5c0,0-27.69.18-48.23.18Z"/>
    <path class="cls-6" d="M582.21,453.79c-9.76,0-43.46.57-43.46.57,0,0,7.29,30.79,42.6,30.79,38.29,0,44.49-32.36,44.49-32.36l-43.63,1Z"/>
    <path class="cls-15" d="M582.64,455.21c-9.76,0-39.48-1.6-39.48-1.6,0,0,10.7,10.4,39.99,10.4s38.59-10.1,38.59-10.1l-39.1,1.3Z"/>
    <path class="cls-16" d="M614.84,448.1c-3.97-1.1-8.05-1.27-12.14-1.58-10-.75-16.35,3.09-20.69,3.09s-10.7-3.84-20.69-3.09c-3.38.25-6.63,1.6-9.85,2.59-4.43,1.37-5.85,1.66-11.81,3.68-1.51.51-2.68.96-4.21,1.42,7.45,2.57,19.68,4.95,46.57,4.95,8.6,0,17.21.05,25.78-.66,4.32-.36,8.62-.9,12.87-1.76,3.98-.8,6.21-.63,9.57-3.14-1.01-.52-4.57-1.51-5.69-1.68l-9.7-3.83Z"/>
    <g>
      <path class="cls-14" d="M716.49,774.55s-31.08-43.37-35.83-54.12c-4.75-10.75-14.9-38.42-20.72-40.3-5.82-1.88-9.54,8.51-10.4,19.43-.86,10.92,16.67,32.4,11.9,36.65-4.77,4.25-92.73-11.04-107.41-13.24-14.69-2.2-55.63-5.79-54.78,13.7,0,0-19.55,1.23-19.87,9.6-.32,8.37,1.22,11.54,1.22,11.54,0,0-2.01,15.21,10.82,18.85,12.83,3.64,21.7,3.96,21.7,3.96,0,0-9.41,5.99.42,15.37,9.82,9.38,66.06,24.69,66.06,24.69,0,0,27.15,21.3,49.16,24.39,22.01,3.09,64.47-1.39,64.47-1.39l23.27-69.11Z"/>
      <path d="M721.05,765.03s113.73,52.12,162.36,55.43c48.63,3.32,108.43,13.05,132.83,34.28,24.4,21.23,24.38,148.49,24.38,148.49,0,0-23.93,13.2-78.08-4.89-54.15-18.09-282.27-126.98-282.27-126.98l40.78-106.33Z"/>
      <path class="cls-17" d="M493.54,737.53c-.55,1.17-1.3.63-.57.57.19-.01.4-.08.59-.11.77-.14,1.55-.23,2.33-.34,1.27-.17,2.55-.32,3.82-.44,3.17-.32,6.35-.56,9.52-.74,6.56-.38,13.14-.5,19.72-.4,14.34.21,28.68,1.47,42.82,3.82,3.47.58,6.93,1.23,10.37,1.97,1.41.3,2.82.62,4.22.97.85.21,1.7.43,2.54.67.25.07.51.18.76.23.48.09.29.29.13-.18.41,1.21,3.3.41,2.9-.78-.25-.73-1.44-.91-2.08-1.09-1.43-.41-2.87-.77-4.32-1.1-3.27-.76-6.57-1.4-9.87-2.01-6.77-1.24-13.6-2.18-20.45-2.9-15.22-1.6-30.6-2.03-45.89-1.18-3.77.21-7.54.49-11.29.9-1.64.18-3.29.38-4.91.65-.92.15-2.6.26-3.06,1.25-.67,1.41,2.25,1.29,2.75.24h0Z"/>
      <path class="cls-17" d="M481.9,757.22c-.09.35-.85.55-1.15.65.21-.07-.42-.03-.16.04.06.02.2-.04.26-.04.29-.02-.34.03.13-.01.7-.06,1.41-.11,2.11-.15,2.49-.13,4.99-.16,7.48-.17,9.02-.04,18.05.28,27.06.75,23.05,1.22,46.09,3.4,69.05,5.73,3.58.36,7.16.73,10.73,1.18.97.12,1.91.24,2.83.4.25.04.51.12.77.15.37.04.11.14.09-.05.09.63,3.01.02,2.9-.78-.09-.61-2.99-.73-3.34-.78-2.91-.4-5.83-.7-8.74-1.01-10.34-1.09-20.7-2.02-31.06-2.92-22.82-1.99-45.7-4.02-68.64-3.9-2.87.01-5.75.04-8.62.22-.91.06-4.25.04-4.54,1.2-.17.67,2.67.27,2.86-.49h0Z"/>
      <g>
        <path class="cls-17" d="M506.8,779.64l-1.12.66c-.26.05-.3.06-.13.03.06.01.18-.03.24-.03-.09,0,.51-.04.66-.05.98-.06,1.97-.09,2.96-.11,2.73-.05,5.47-.03,8.2.03,5.57.12,11.13.4,16.69.78,12.02.84,24.03,2.18,35.92,4.18,2.99.5,5.98,1.04,8.94,1.68.99.21,1.97.43,2.94.7.28.08.57.15.84.25.21.08.15.11.13.01.12.7,3.04.04,2.9-.78-.12-.66-2.56-.96-3.02-1.07-2.86-.67-5.75-1.19-8.65-1.7-5.76-1.01-11.55-1.85-17.36-2.56-13.08-1.61-26.27-2.63-39.46-2.82-3.05-.04-6.1-.08-9.14.07-1.01.05-3.95-.03-4.41,1.18-.24.63,2.57.33,2.87-.47h0Z"/>
        <path class="cls-14" d="M477.12,971.91s36.63-38.8,42.78-48.81c6.15-10.01,19.93-36.07,25.95-37.15,6.02-1.09,8.31,9.71,7.69,20.65-.62,10.94-20.88,29.86-16.72,34.72,4.16,4.86,93.37,1.52,108.22,1.32,14.85-.2,55.9,1.74,52.44,20.94,0,0,19.2,3.85,18.4,12.18-.81,8.33-2.76,11.27-2.76,11.27,0,0-.05,15.34-13.26,17.23-13.21,1.89-22.04,1-22.04,1,0,0,8.52,7.2-2.48,15.17-11,7.97-68.77,15.58-68.77,15.58,0,0-29.76,17.45-51.99,17.56-22.23.1-72.15-9.49-72.15-9.49l-5.31-72.16Z"/>
        <path class="cls-17" d="M705.85,964.87c-.21-.67-1.48-.86-2.04-1.04-1.42-.44-2.85-.82-4.29-1.19-3.26-.82-6.54-1.53-9.83-2.19-6.75-1.36-13.56-2.41-20.39-3.26-15.19-1.88-30.55-2.6-45.85-2.02-3.77.14-7.55.35-11.31.69-1.64.15-3.29.32-4.93.56-.87.13-2.62.23-3.09,1.16-.64,1.29,2.26,1.03,2.71.12-.58,1.15-1.31.55-.59.52.19,0,.41-.06.59-.09.78-.12,1.56-.21,2.33-.29,1.27-.15,2.55-.27,3.83-.37,3.17-.26,6.35-.44,9.54-.56,6.57-.25,13.15-.23,19.72-.01,14.34.48,28.66,2.01,42.77,4.65,3.45.65,6.89,1.36,10.3,2.16,1.4.33,2.8.67,4.2,1.05.84.23,1.69.46,2.53.72.25.08.5.19.75.25.36.08.28.33.15-.09.34,1.08,3.23.27,2.9-.78h0Z"/>
        <path class="cls-17" d="M714.75,986.31c-.06-.56-2.26-.79-2.61-.86-2.39-.48-4.8-.85-7.21-1.2-9.07-1.32-18.19-2.25-27.32-3.02-13.27-1.12-26.56-1.76-39.86-2.4-10.73-.52-21.47-1.01-32.21-1.36-3.49-.11-6.98-.22-10.47-.23-1.03,0-4.82-.33-5.2,1.04-.2.71,2.64.33,2.87-.47-.15.52-1.08.65-1.53.78.02,0,.05,0,.07-.01.05-.02-.38.02-.05,0,.3-.01.6-.03.89-.04.84-.02,1.67-.02,2.51,0,3.11.03,6.23.13,9.34.23,10.2.33,20.39.79,30.58,1.28,22,1.06,44.03,2.13,65.87,5.11,2.87.39,5.73.8,8.57,1.34.75.14,1.5.28,2.24.47.2.05.42.15.62.18s.01.06,0-.06c.08.66,3,.08,2.9-.78h0Z"/>
        <path class="cls-17" d="M687.07,1005.18c-.23-.99-2.51-1.11-3.24-1.25-2.74-.51-5.5-.86-8.26-1.2-5.89-.72-11.8-1.25-17.72-1.66-13.15-.91-26.38-1.22-39.56-.73-3.13.12-6.26.26-9.38.56-1.29.13-3.71.08-4.19,1.6-.22.7.87.93,1.33.9.72-.05,1.38-.45,1.6-1.14-.59,1.84-1.55.9-.67.88-.32,0,.42-.06.54-.07.94-.12,1.88-.2,2.82-.27,2.72-.21,5.44-.34,8.16-.43,5.51-.2,11.03-.24,16.55-.16,12.09.17,24.19.85,36.21,2.18,3,.33,5.99.7,8.97,1.16,1.08.17,2.17.33,3.25.56.26.06.52.12.79.19.63.15.03.16-.08-.33.3,1.29,3.2.54,2.9-.78h0Z"/>
      </g>
    </g>
    <path d="M213.21,969.71s51.27-13.67,107.35-7.95l53.93-.34,98.86,1.03,2.56,9.38s7.2,55.25,4.76,72.57c-.76,5.44-1.43,10.89-2.15,16.33-.05.35-.1.7-.28,1-.35.54-1.06.71-1.69.83-4.11.77-8.22,1.55-12.33,2.32-13.74,2.58-27.5,5.17-41.03,8.7-12.6,3.29-25.32,7.43-38.31,6.56"/>
    <path class="cls-9" d="M411.57,522.11c4.47,18.38,16.2,33.73,28.2,47.9,12.71,15.02,25.53,30.35,40.82,42.85,15.45,12.64,33.59,21.39,52.48,27.6,18.74,6.15,38.39,9.73,58.12,10.15,19.4.41,38.9-2.24,57.29-8.53,2.3-.79,4.58-1.63,6.85-2.53.8-.32.05-.54-.44-.34-18.28,7.25-37.88,10.71-57.52,10.89-19.69.18-39.39-2.88-58.23-8.54-18.85-5.67-37.26-13.79-53.04-25.69-15.55-11.72-28.3-26.61-40.93-41.31-12.04-14-24.42-28.63-30.51-46.36-.72-2.11-1.34-4.25-1.87-6.42-.08-.31-1.29,0-1.21.33h0Z"/>
    <path class="cls-9" d="M569.05,608.05c12.87,2.37,26.09,2.34,39,.36,13.12-2.02,25.91-5.97,38.07-11.26,12.63-5.49,24.63-12.43,35.86-20.39,11.13-7.89,21.55-16.82,31.07-26.59,9.08-9.32,17.39-19.43,24.55-30.3.84-1.27,1.66-2.56,2.47-3.85.34-.55-.89-.53-1.15-.11-6.74,10.81-14.63,20.88-23.3,30.2-9.2,9.88-19.3,18.94-30.12,27.01-10.92,8.15-22.6,15.31-34.93,21.12-11.96,5.63-24.55,9.99-37.55,12.5-12.75,2.45-25.88,3.05-38.75,1.25-1.6-.22-3.19-.48-4.77-.78-.57-.1-1.24.68-.43.83h0Z"/>
    <path class="cls-18" d="M293.64,958.82c-16.97-.07-33.78-2.95-50.75-3.13-4.17-.04-8.38-.08-12.51.5s-7.99,1.66-11.86,2.88c-7.52,2.37-14.53,5.63-20.87,10.34-3.5,2.6-6.79,5.46-10.07,8.31-3.34,2.9-6.63,5.86-9.44,9.29-.45.55.38.85.79.87.69.04,1.47-.26,1.91-.8,2.45-2.99,5.31-5.59,8.21-8.12,2.83-2.47,5.66-4.95,8.61-7.28,5.97-4.73,12.5-8.23,19.73-10.64,3.73-1.24,7.55-2.39,11.43-3.04s8.14-.67,12.23-.65c8.03.05,16.03.72,24.03,1.43,9.14.81,18.28,1.66,27.46,1.7.59,0,1.62-.19,1.91-.8s-.24-.87-.79-.87h0Z"/>
    <path class="cls-18" d="M1008.15,849.65c3.8-.8,7.65,1.76,10.49,3.98,2.99,2.34,5.84,4.92,8.62,7.5,5.65,5.25,10.88,11,14.77,17.7.48.83,3.3-.08,2.69-1.14-4.26-7.33-10.12-13.51-16.37-19.17-5.61-5.07-12.29-12.1-20.59-10.36-.43.09-1.41.54-1.25,1.13.17.62,1.24.44,1.65.35h0Z"/>
  </g>
  <path class="cls-18" d="M358.46,1081.82c5.8.53,11.78-.14,17.55-.68,7.17-.67,14.34-1.53,21.45-2.69,7.83-1.28,15.44-3.53,23.2-5.14,10.81-2.24,21.76-3.43,32.67-5.02,5.95-.87,11.88-1.9,17.71-3.38,1.52-.39,3.03-.8,4.53-1.25,1.14-.35,2.47-.63,3.42-1.4s.95-1.88.94-3.03c0-1.61-.02-3.22-.03-4.83,0-.59-2.9-.14-2.9.78,0,1.29.01,2.58.02,3.87,0,.6.04,1.22,0,1.83-.06.96-.38,1.32-1.29,1.6-2.47.76-4.97,1.42-7.49,2-5.07,1.17-10.21,2-15.35,2.73-10.36,1.48-20.76,2.64-31.02,4.74-7.59,1.55-15.03,3.78-22.62,5.07-6.61,1.13-13.28,1.96-19.96,2.63-6.22.62-12.73,1.45-18.99.89-.63-.06-1.57.11-2.05.55-.39.35-.43.69.2.74h0Z"/>
</svg>