<?xml version="1.0" encoding="UTF-8"?>
<svg id="Layer_4" data-name="Layer 4" xmlns="http://www.w3.org/2000/svg" xmlns:xlink="http://www.w3.org/1999/xlink" viewBox="0 0 1163.45 1166.32">
  <defs>
    <style>
      .cls-1 {
        fill: none;
      }

      .cls-2 {
        fill: #b9dfee;
      }

      .cls-3 {
        fill: #acabab;
      }

      .cls-4 {
        fill: #010101;
      }

      .cls-5 {
        fill: #231f20;
      }

      .cls-6 {
        fill: #826328;
      }

      .cls-7 {
        fill: #a3a3a2;
      }

      .cls-8 {
        fill: #f0ecf6;
      }

      .cls-9 {
        fill: #868786;
      }

      .cls-10 {
        fill: #b06c4f;
      }

      .cls-11 {
        fill: #e0c28b;
      }

      .cls-12 {
        fill: #f9f8f7;
      }

      .cls-13 {
        fill: #151210;
      }

      .cls-14 {
        fill: #a09f9f;
      }

      .cls-15 {
        fill: #6c3925;
      }

      .cls-16 {
        fill: #38211a;
      }

      .cls-17 {
        fill: #412319;
      }

      .cls-18 {
        fill: #301910;
      }

      .cls-19 {
        fill: #242f34;
      }

      .cls-20 {
        clip-path: url(#clippath);
      }

      .cls-21 {
        fill: #4f2e25;
      }
    </style>
    <clipPath id="clippath">
      <circle class="cls-1" cx="581.64" cy="584.79" r="581.59"/>
    </clipPath>
  </defs>
  <g class="cls-20">
    <circle class="cls-2" cx="581.59" cy="583.21" r="581.59"/>
    <path class="cls-10" d="M491.6,426.99l-5.3,99.19c-3.55,8.43-113.42,58.89-113.42,58.89l215.05,119.21,209.93-119.21-124.16-55.44-3.34-96.4"/>
    <path class="cls-16" d="M617.46,482.27c-26.62,1.15-53.58,1.05-80.21.16-18.27-.61-30.89-7.63-49.06-9.33,7.14,6.09,14.31,16.62,21.3,21.44,13.32,9.19,22.15,19.32,37.18,25.51,10.7,4.4,38.42,4.4,38.42,4.4,0,0,27.73,0,38.42-4.4,23.25-9.56,46.19-32.47,48.54-37.52-23.43,2.18-31.12-1.28-54.61-.27Z"/>
    <path class="cls-10" d="M702.01,316.86s14.62-28.32,24.54-28.25c6.04.04,20.6,16.14,20.44,31.53-.22,20.59-14.56,43.97-18.13,55.97-3.57,12-2.98,29.26-18.98,29.15-6.34-.04-14.16-13.29-14.16-13.29,0,0,2.99-56.45,6.29-75.12Z"/>
    <path class="cls-4" d="M709.47,350.78c4.32-9.14,9.15-18.43,15.8-26.13,1.62-1.87,3.36-3.67,5.34-5.16,1.23-.92,2.02-1.42,3.39-1.97-.27.11.15-.04.38-.12.15-.05.31-.08.47-.11-.7.15.63.02-.18,0l-.65-.29c1.37,1.7,2.19,3.94,2.78,6.01,1.69,5.9,1.24,12.15-.25,18.03-.26,1.04,2.11.73,2.35-.22,1.74-6.9,2.08-14.53-.74-21.21-.58-1.36-1.41-4.09-3.26-3.87s-3.49,1.19-4.94,2.17c-3.38,2.28-6.18,5.44-8.66,8.64-5.68,7.34-10.08,15.64-14.04,24.01-.54,1.14,1.81,1.05,2.21.2h0Z"/>
    <path class="cls-4" d="M713.56,354.87c5.24-.24,3.65,7.73,3.21,10.83-.34,2.39-.84,4.82-.77,7.25.04,1.55.49,3.73,2.39,3.9,2.32.2,3.6-2.46,4.35-4.22,1.56-3.66,2.45-7.63,3.17-11.52.45-2.39.97-4.83.95-7.27-.01-2.04-.15-4.08-.41-6.1-.72-5.58-2.52-12.45-8.19-14.88-.92-.4-2.71.93-1.36,1.5,4.68,2.01,6.27,8.03,7.01,12.58.59,3.59.8,7.15.26,10.75-.63,4.18-1.45,8.38-2.77,12.4-.45,1.37-.97,2.76-1.69,4.02-.21.37-.5.67-.72,1.03-.09.14-.19.14-.17.17,0-.01.54-.08.5,0-.03.07-.57-.65-.59-.69-.16-.32-.24-.69-.3-1.05-.15-.91-.08-1.86,0-2.77.21-2.43.67-4.83.96-7.24s.62-5.11-.29-7.37c-.91-2.26-3-3.01-5.31-2.9-1.29.06-1.83,1.69-.23,1.61h0Z"/>
    <path class="cls-10" d="M466.83,316.86s-14.62-28.32-24.54-28.25c-6.04.04-20.6,16.14-20.44,31.53.22,20.59,14.56,43.97,18.13,55.97,3.57,12,2.98,29.26,18.98,29.15,6.34-.04,14.16-13.29,14.16-13.29,0,0-2.99-56.45-6.29-75.12Z"/>
    <path class="cls-4" d="M461.64,350.37c-3.66-7.74-7.7-15.4-12.77-22.32-2.57-3.51-5.46-6.99-9-9.57-1.38-1.01-2.99-2.02-4.7-2.33-.67-.12-1.31-.07-1.96.2-.94.39-1.43,1.57-1.87,2.42-3.54,6.89-3.25,15.18-1.4,22.49.12.46,2.45-.14,2.33-.63-1.5-5.95-1.96-12.31-.22-18.26.61-2.08,1.46-4.36,2.84-6.07l-1.91.66c.15,0-.21-.07.12.01.24.06.66.15.79.19,1.21.39,2.34,1.07,3.38,1.79,5.14,3.58,9,9.01,12.34,14.2,3.67,5.7,6.8,11.72,9.7,17.84.25.52,2.49-.29,2.33-.63h0Z"/>
    <path class="cls-4" d="M455.9,353.53c-2.04-.09-4.4.38-5.64,2.17-1.12,1.62-1.12,3.84-1.02,5.73.13,2.48.57,4.94.91,7.39.26,1.86.74,4.17.08,6-.11.3-.4.57-.49.84s.9-.02.83-.19c-.03-.06-.31-.2-.38-.26-.82-.67-1.3-1.81-1.71-2.75-1.52-3.45-2.37-7.22-3.09-10.9-.48-2.46-1.07-5.01-1.08-7.53,0-1.83.1-3.66.31-5.47.32-2.8.87-5.61,1.9-8.24s2.56-5.26,5.16-6.37c1.51-.65.1-1.1-.85-.69-5.08,2.18-7.13,7.6-8.08,12.69-.67,3.56-1.07,7.39-.57,11,.63,4.48,1.49,8.98,2.89,13.29.47,1.43.99,2.87,1.72,4.18.42.75.95,1.65,1.77,2,1.68.72,3.6-.61,4.05-2.23.55-1.96.1-4.25-.18-6.22-.36-2.56-3-13.59,1.97-13.36.52.02,1.25-.07,1.65-.44.29-.27.36-.6-.17-.63h0Z"/>
    <path class="cls-3" d="M713.68,358.71s-.39-123.23,0-138.2c.39-14.96-50.44-54.43-76.87-62.94-26.43-8.51,30.2-5.72,44.07-3.35,13.88,2.37,14.84,10.26,14.84,10.26,0,0,8.97.79,12.65,4.74l3.68,3.95s11.24,2.37,11.67,7.1c.43,4.74,1.98,15,1.98,15,0,0,8.92-2.74,8.92,9.09s.55,6.03.55,6.03c0,0,7.59,7.77,3.9,14.08-3.69,6.31-2.52,5.53-2.52,5.53,0,0,1.69,2.52,3.29,7.18,1.6,4.66,4.65,22.94-.76,33.99-5.41,11.05-5.22,21.9-5.22,21.9l-20.18,65.66Z"/>
    <path class="cls-3" d="M455.16,352.86s1.14-117.39.75-132.35c-.39-14.96,50.44-54.43,76.87-62.94,27.37-8.81-29.49-5.84-44.07-3.35-13.88,2.37-14.84,10.26-14.84,10.26,0,0-8.97.79-12.65,4.74l-3.68,3.95s-11.24,2.37-11.67,7.1-1.98,15-1.98,15c0,0-8.92-2.74-8.92,9.09s-.55,6.03-.55,6.03c0,0-7.59,7.77-3.9,14.08,3.69,6.31,2.52,5.53,2.52,5.53,0,0-1.69,2.52-3.29,7.18-1.6,4.66-4.65,22.94.76,33.99,5.41,11.05,5.22,21.9,5.22,21.9l19.43,59.82Z"/>
    <path class="cls-10" d="M716.13,324.39c-2.06,22.42-6.38,43.33-7.41,66.78-1.01,23.45-2.97,54.2-6.62,62.93-1.88,4.49-7.66,8.49-11.17,11.82-19.12,18.13-42.84,36.67-67.41,46.77-10.7,4.4-38.42,4.4-38.42,4.4,0,0-27.73,0-38.42-4.4-15.03-6.18-28.62-17.17-41.94-26.35-13.03-8.98-29.25-20.06-37.77-33.72-2.62-4.2-2.34-9.86-2.85-14.61-1.68-15.54-1.97-31.23-2.64-46.84-1.03-23.45-5.37-44.36-7.41-66.78-2.04-22.44-4.58-115.6,2.04-133.46,6.64-17.84,49.44-65.77,129-65.77,61.36,0,78.03,16.32,106.1,36.59,11.93,8.6,20.9,23.88,22.87,29.18,6.64,17.86,4.1,111.02,2.06,133.46Z"/>
    <path class="cls-5" d="M593.07,382.67c-5.98,2.44-10.36,2.53-14.28-.93-.87-.77-3.93.07-2.71,1.15,5.18,4.56,15.04,3.88,20.46-.1.54-.4.47-.95-.17-1.24-.66-.3-2.72.7-3.3,1.12"/>
    <path class="cls-5" d="M573.91,380.15c-3.8-1.11-7.87-1.29-11.79-.87-.57.07-1.26.44-1.6.93-.26.38-.25.82.23,1,2,.77,4.37.79,6.45.34.66-.14,1.49-.49,1.74-1.18.23-.64-.47-.88-.99-.78-1.72.37-3.55.34-5.2-.29-.46.64-.92,1.29-1.38,1.93,3.51-.38,7.15-.18,10.55.81.68.2,1.52-.18,2-.65.36-.35.68-1.06,0-1.26"/>
    <path class="cls-5" d="M598.71,381.06c3.79-1.15,7.85-1.38,11.78-1,.58.06,1.27.43,1.61.91.27.38.26.82-.22,1-1.99.8-4.36.84-6.44.42-.66-.13-1.49-.47-1.75-1.16-.24-.63.46-.89.98-.79,1.72.35,3.56.3,5.2-.35.47.64.93,1.28,1.4,1.92-3.52-.34-7.15-.1-10.54.93-.67.21-1.52-.16-2.01-.62-.36-.34-.69-1.05-.01-1.26"/>
    <path class="cls-5" d="M558.41,381.95c-3.89-.13-8.46-2.32-10.37-6.11-2.89-5.72-.2-12.52,4.66-16.17.53-.4.25-.91-.29-1.06-.7-.19-1.52.14-2.08.56-4.23,3.19-6.97,8.36-6.34,13.73.6,5.01,4.32,8.52,8.97,9.97,1.38.43,2.86.72,4.31.77.59.02,1.65-.21,1.94-.81.29-.6-.25-.87-.8-.89"/>
    <path class="cls-5" d="M614.59,382.1c3.89-.13,8.46-2.32,10.37-6.11,2.89-5.72.2-12.52-4.66-16.17-.53-.4-.25-.91.29-1.06.7-.19,1.52.14,2.08.56,4.23,3.19,6.97,8.36,6.34,13.73-.6,5.01-4.32,8.52-8.97,9.97-1.38.43-2.86.72-4.31.77-.59.02-1.65-.21-1.94-.81-.29-.6.25-.87.8-.89"/>
    <path class="cls-13" d="M554.02,305.04s-18.37,16.53-27.77,17.6c-13.71,1.56-30.6-7.13-35.46-14.9,0,0,22.35,12.99,31.99,11.57,9.21-1.36,31.24-14.26,31.24-14.26Z"/>
    <path class="cls-13" d="M616.32,306.07s19.17,16.53,28.97,17.6c14.3,1.56,31.93-7.13,36.99-14.9,0,0-23.32,12.99-33.37,11.57-9.6-1.36-32.59-14.26-32.59-14.26Z"/>
    <path class="cls-3" d="M558.07,268.6c-.02,4.04-.05,8.1-.08,12.17-.03,3.09.12,10.15.08,13.23-9.08-2.66-17.27-6.6-23.14-7.75-11.65-2.28-23.57-5.48-35.38-3.57-5.65.91-10.62,2.45-15.34,5.54-1.49.98-5.52,5.23-7.74,4.12-.91-.46.61-5.43.76-5.94,3.11-10.03,11.09-14.17,20.83-16.51,19.87-4.78,39.84-4.14,60.01-1.29"/>
    <path class="cls-3" d="M618.34,268.6c.02,4.04.05,8.1.08,12.17.03,3.09-.12,8.67-.08,11.76,8.94-2.66,16.66-5.79,22.44-6.93,11.47-2.28,23.54-4.81,35.16-2.91,5.56.91,10.45,2.45,15.1,5.54,1.47.98,5.44,5.23,7.62,4.12.9-.46-.6-5.43-.75-5.94-3.06-10.03-10.91-14.17-20.51-16.51-19.56-4.78-39.21-4.14-59.06-1.29"/>
    <path class="cls-21" d="M654.34,218.91s-80.74-11.32-135.99,0c0,0,36.35-9.64,67.99-8.55,31.64,1.09,67.99,8.55,67.99,8.55Z"/>
    <path class="cls-3" d="M429.41,257.19c-1.92-9.95-2.17-20.13-2.42-30.25-.08-3.09-.15-6.2.44-9.24.92-4.75,3.43-9.18,3.63-14.02.1-2.3-.33-4.66.34-6.86.95-3.12,3.84-5.18,5.71-7.85,2.84-4.03,3.35-9.45,6.63-13.13,1.78-2,4.21-3.28,6.58-4.52,3.38-1.77,6.77-3.53,10.15-5.3,8.47-4.42,9.18-5.81,18.68-4.79-11.96,10.39-21.73,11-29.25,24.95-2.19,4.07-3.23,8.64-4.23,13.16-3.26,14.57-6.51,29.14-9.77,43.71"/>
    <path class="cls-3" d="M738.59,259.91c1.92-9.95,2.17-20.13,2.42-30.25.08-3.09.15-6.2-.44-9.24-.92-4.75-3.43-9.18-3.63-14.02-.1-2.3.33-4.66-.34-6.86-.95-3.12-3.84-5.18-5.71-7.85-2.84-4.03-3.35-9.45-6.63-13.13-1.78-2-4.21-3.28-6.58-4.52-3.38-1.77-6.77-3.53-10.15-5.3-8.47-4.42-5.23-7.55-14.72-6.53,11.96,10.39,17.77,12.74,25.29,26.68,2.19,4.07,3.23,8.64,4.23,13.16,3.26,14.57,6.51,29.14,9.77,43.71"/>
    <path class="cls-15" d="M585.86,407.79c-21.56,0-48.75,7.75-48.75,7.75,0,0-1.21,45.52,48.77,45.52s50.6-47.53,50.6-47.53c0,0-29.06-5.74-50.62-5.74Z"/>
    <path class="cls-18" d="M586.06,407.79c-10.25,0-43.07,4.87-43.07,4.87,0,0,5.1,30.37,42.17,30.37,40.19,0,44.99-30.4,44.99-30.4l-44.1-4.84Z"/>
    <path class="cls-8" d="M586.51,409.34c-10.25,0-41.43,2.48-41.43,2.48,0,0,11.23,7.16,41.97,7.16s40.51-5.13,40.51-5.13l-41.04-4.51Z"/>
    <path class="cls-15" d="M620.22,401.79c-1.37-.55-2.75-.95-4.4-1.2-2.68-.4-5.53-.77-8.24-.77-10.49-.82-17.16,3.38-21.72,3.38s-11.22-4.2-21.72-3.38c-5.33.42-10.39,2.6-15.04,5.11-2.32,1.25-3.88,2.98-6.09,4.42-.74.48-5.93,6.22-6.78,5.91,8.86,8.04,21.42-1.58,49.65-1.58,9.02,0,16.13-.08,26.59,2.29,4.43,1,17.04,2.18,21.5,1.24.55-.12,1.22-2.39,1.77-2.31-.4.14-.65.17-.39-.34.59-1.12,1.3-.66.2-1.91-.83-.95-1.6-1.94-2.45-2.87-2.68-2.9-6.27-4.75-9.78-6.55-1.09-.56-2.08-1.04-3.09-1.44Z"/>
    <path class="cls-3" d="M580.67,390.32l-.58,9.42c-.14,1.39-1.13,2.53-2.49,2.85-9.34,2.19-44.88,10.45-53.47,11.13-.21.02-.39,0-.6-.01l-2.47,2.62c-3.26-.33-.26-9.68,2.67-11.15,8.93-4.48,17.24-8.49,22.27-10.17,6.27-2.09,23.41-7.66,31.16-8.29,2.04-.17,3.72,1.56,3.51,3.6Z"/>
    <path class="cls-3" d="M591.58,390.55l1.64,9.85c.13,1.39,1.12,2.54,2.47,2.87,9.32,2.27,46.11,7.98,53.38,11.54.19.09.39.01.6,0l2.8-.26c3.26-.31,1.74-6.86-1.18-8.35-8.89-4.55-18.93-8.55-23.94-10.26-6.26-2.14-24.48-8.26-32.23-8.96-2.04-.18-3.73,1.53-3.54,3.57Z"/>
    <path class="cls-3" d="M645.63,408.36c2.73,2.42,5.66,5.23,5.9,8.87.09,1.32-.19,2.64-.47,3.93-.43,2-.87,4.01-1.3,6.01-.09.4-.18.82-.46,1.12-.3.33-.76.45-1.19.56-1.38.35-2.81.69-4.21.41s-2.74-1.37-2.81-2.79c-.03-.58.15-1.2-.09-1.73-.46-1.04-1.93-.92-3.03-1.21-2.76-.73-1.91-8.64-3.12-11.23-1.63-3.51-6.56-1.43-10.22-2.7-1.85-.64-3.79-1.07-5.47-2.07-1.68-1-3.09-2.75-3.01-4.7"/>
    <path class="cls-3" d="M526.47,408.6c-2.73,2.42-5.66,5.23-5.9,8.87-.09,1.32.19,2.64.47,3.93.43,2,.87,4.01,1.3,6.01.09.4.18.82.46,1.12.3.33.76.45,1.19.56,1.38.35,2.81.69,4.21.41,1.39-.28,2.74-1.37,2.81-2.79.03-.58-.15-1.2.09-1.73.46-1.04,1.93-.92,3.03-1.21,2.76-.73,4.45-4.02,4.53-6.87.07-2.5-1.82-5.41,1.83-6.67,1.85-.64,10.77-1.46,12.45-2.46,1.68-1,3.09-2.75,3.01-4.7"/>
    <path class="cls-7" d="M587.57,513.11c-.15.16-.31.3-.48.42.05-.07.12-.11.21-.13.02,0,.96-.12.7.16.14-.15-1.28-1.91-1.46-2.05-1.76-1.45-4.39-1.01-6.07.34-.68.54-1.23,1.24-1.76,1.93-.08.1-1.01,1.34-.63.92-.3.33-.43-.02-.14.07-.25-.08-.42-.18-.61-.36-.5-.45-.67-1.14-.63-1.78.17-2.57-3.52-2.35-4.9-1.27-1.01.78-2.57,2.14-3.92,1.98-1.12-.13-1.99-1.21-1.81-2.35.39-2.47-3.69-2.45-4.9-1.27-.84.81-2.12,2.21-3.11,2.41-.87.18-1.34-.73-1.83-1.59-.77-1.36-1.69-2.48-3.19-3.06-1.91-.74-4.22-.28-5.66,1.19-.81.83-1.41,2.12-1.6,3.28-.36.63.07.53,1.28-.3,1.42-.07,1.79-.33,1.09-.78-.26-.31-.58-.6-.87-.89l-2.04-2.1c-2.72-2.8-5.45-5.6-8.17-8.39-1.05-1.08-2.62-1.21-3.96-.54-1.27.64-1.99,1.85-1.32,3.17.19.37.37.75.55,1.13.13.28-.18-.39-.04-.08.04.08.08.17.12.25.1.21.19.42.29.63.22.5.44,1,.65,1.51.42,1.02.82,2.05,1.12,3.12.11.41.2.81.27,1.23-.07-.46.08-.19-.02.03-.14.31.3-.43.4-.54.76-.93,2.06-1.16,3.19-.98-.09-.02-.59-.23-.16-.04.39.18-.11-.07-.22-.15-.19-.13-.38-.27-.57-.41-.85-.66-1.64-1.41-2.4-2.17-.05-.05-.18-.18-.38-.4s-.43-.45-.64-.68c-.46-.5-.92-1-1.38-1.5-.87-.97-1.73-1.96-2.57-2.96-1-1.18-1.99-2.38-2.95-3.6s-2.72-1.16-3.96-.54c-1.05.53-2.25,1.99-1.32,3.17,2.92,3.7,5.99,7.34,9.39,10.59,1.98,1.89,4.57,4.03,7.46,2.62s2.03-4.4,1.18-6.77c-.76-2.09-1.7-4.12-2.7-6.1-1.76.88-3.52,1.76-5.28,2.63,3.06,3.15,6.13,6.3,9.19,9.44,1.49,1.53,3.01,3.71,5.28,4s4.31-.9,5.14-2.93c.18-.44.54-1.22.55-1.69-.02.58-2.06.71-2.06.72-.07-.24.62.75.49.58,1.11,1.55,1.65,3.05,3.53,3.89,4.13,1.84,8.25-.7,11.15-3.5l-4.9-1.27c-.52,3.31,2.45,5.83,5.44,6.41,3.72.72,7.28-1.3,10.11-3.49l-4.9-1.27c-.17,2.63,1.37,4.99,3.85,5.9,2.83,1.04,6.19.02,8.16-2.18.32-.36.61-.76.9-1.14.16-.21.37-.42.52-.65.11-.17.13-.27.15-.16.08.58-2.48-.48-2.41.19.02.19.28.52.39.71.28.5.64.95,1.1,1.3,2.31,1.75,6.05.98,8.02-.93.92-.89,1.49-2.27.26-3.2-1.09-.83-3.18-.66-4.17.3h0Z"/>
    <path class="cls-7" d="M581.26,516.82c2.04,1.98,5.64,2.12,7.9.44.54-.4.95-.88,1.3-1.44.15-.25.4-.56.48-.85-.35,1.33-3.29-.42-2.69.51.42.65,1.19,1.47,1.74,2.09,3.8,4.24,12.61,1.8,12.2-4.44l-5.16,1.93c2.88,2.23,6.4,4.03,10.14,3.06,3.27-.85,6.17-3.66,5.62-7.23-1.7.84-3.41,1.68-5.11,2.53,2.95,2.85,6.81,4.98,10.92,3.08,1.95-.9,2.74-2.41,3.83-4.12.02-.02.29-.55.42-.51-.55.37-1.16.4-1.82.07-.14-.12-.12-.07.06.16,0,.22.27,1.01.41,1.39.77,2.05,2.71,2.95,4.85,2.46,2.28-.52,3.76-2.49,5.32-4.08,3.12-3.21,6.24-6.41,9.36-9.62l-5.25-1.37c-.8,1.57-1.52,3.18-2.16,4.82-.73,1.87-2.29,5.33-.27,6.93,2.46,1.94,5.73-.39,7.59-2.06,2.3-2.07,4.37-4.4,6.38-6.74,1.28-1.49,2.54-3,3.76-4.55.86-1.09.47-2.51-.81-3.02-1.35-.54-3.19-.05-4.1,1.1-2.38,3.01-4.87,5.97-7.53,8.73-.21.22-.42.43-.63.65s.02-.01.05-.05c-.12.11-.23.23-.35.34-.41.39-.82.77-1.25,1.13-.32.27-.74.5-1.04.8-.02.02.56-.21.05-.05-.66.21.51-.14.2-.06.84-.21,1.85-.04,2.45.62.09.1.31.54.13.17.21.43-.02.34.05-.06.04-.22.06-.43.1-.65.02-.09.04-.18.06-.27.07-.33-.11.37,0,.03.07-.23.14-.47.22-.7.17-.53.37-1.06.58-1.58.63-1.6,1.34-3.18,2.12-4.71.6-1.17-.4-2.28-1.49-2.56-1.41-.36-2.77.17-3.76,1.19-1.99,2.04-3.97,4.08-5.96,6.12-.96.99-1.93,1.98-2.89,2.97l-1.36,1.4c-.25.25-.5.5-.74.76-.31.34-.62.25.03.1l1.54-.1c.54.03.6.75.5.24-.07-.35-.21-.72-.32-1.06-.3-.89-.71-1.74-1.47-2.32-2.02-1.54-4.99-.75-6.78.74-.92.76-1.43,1.76-2.03,2.76-.03.05-.64.98-.2.7-.5.32-1.54-.37-1.93-.63-.88-.6-1.65-1.35-2.41-2.09-1.69-1.64-5.47.21-5.11,2.53.06.36-.11.78-.26.96-.31.4-.53.46-.92.44-1.62-.08-3.14-1.35-4.35-2.29-.87-.67-2.2-.62-3.16-.25-.8.31-2.07,1.15-2,2.18.04.67-.02,1.2-.38,1.72-.44.63-.27.05-.12.08.46.06-.14-.13-.13-.12-1.06-.89-1.75-2.24-2.88-3.1-1.79-1.37-4.37-1.2-6.07.25-.37.32-1.61,1.6-1.51,2.12.13.65,1.12-.96,1.26-.54,0-.01-.73-.52-.77-.57-1.99-1.93-6.91,1.09-4.43,3.5h0Z"/>
    <path class="cls-11" d="M450.1,172.42s133.57-74.77,273.45,5.98l-20.6-65.78c-3.97-12.66-14.3-23.07-27.67-27.88-22.82-8.23-62.07-14.57-110.61-13.35-78.31,1.96-94.13,38.05-94.13,38.05l-20.46,62.98Z"/>
    <path class="cls-6" d="M462.39,125.72c7.55-3.05,15.29-5.71,23.02-8.25,17.26-5.67,34.84-10.51,52.69-13.92,9.91-1.89,19.92-3.34,29.98-4.02s20.58-.29,30.85.79c21.94,2.31,43.68,7.06,64.76,13.5,8.81,2.7,17.55,5.71,26.05,9.29,5.65,2.38,11.46,4.94,16.46,8.54.77.55,1.51,1.14,2.19,1.78.11.1.67-.13.59-.21-3.92-3.68-9.2-6.08-14.03-8.29-7.88-3.62-16.06-6.61-24.3-9.31-21.01-6.89-42.74-11.96-64.68-14.78-10.29-1.32-20.66-2.2-31.04-1.88s-19.76,1.45-29.53,3.08c-18.53,3.08-36.77,7.85-54.67,13.5-9.52,3.01-19.05,6.19-28.32,9.93-.14.05-.27.11-.41.16-.38.15.22.11.35.06h0Z"/>
    <path class="cls-6" d="M460.32,138.89c2.96.59,5.83,1.56,8.52,2.94,1.15.59,2.27,1.25,3.34,1.98,1.2.82,3.13,1.95,3.29,3.56.09.89-.68,1.55-1.54,1.17-1.03-.44-.18-.97.35-1.34,1-.7,1.96-1.45,2.88-2.24,1.9-1.64,3.63-3.47,5.15-5.47,1.53-2.01,2.85-4.18,3.9-6.47.56-1.22,2.34-3.87.39-4.62-1.16-.44-2.61.09-2.79,1.42-.29,2.21,2.3,3.26,3.98,3.71,3.48.94,7.01,1.76,10.51,2.63,1.57.39,3.28.68,4.73,1.45s3.02,2.72,1.66,4.31h.57c-2.15-6.41,3.44-11.91,5.69-17.43.36-.87.46-1.79.51-2.73.03-.58.22-1.91-.19-2.42-.89-1.07-2.41,1.51-2.73,2.06-.04.08-.01.14.05.19,4.12,3.1,9.18,4.37,14.02,5.92,2.55.82,5.1,1.72,7.43,3.07,1.13.65,2.25,1.39,3.18,2.3.43.41,1.3,1.34,1.05,2.04l-1.27.19c.15-.29.31-.58.46-.87.23-.44.46-.87.69-1.31,1.61-3.06,3.23-6.12,4.84-9.17.77-1.46,1.54-2.91,2.31-4.37s1.75-2.98,2.36-4.55c.58-1.49-.09-3.49-2-2.75s-1.53,2.79-.32,4.02c1.03,1.04,2.35,1.84,3.53,2.69,1.61,1.16,3.22,2.33,4.83,3.49,3.22,2.33,6.44,4.66,9.66,6.98.19.14.76-.14.49-.33-3.49-2.52-6.98-5.04-10.47-7.56-1.74-1.26-3.49-2.52-5.23-3.78-.85-.62-1.79-1.21-2.48-2.01-.29-.34-.57-.73-.69-1.16-.1-.28-.12-.57-.05-.87.09-.59.48-.8,1.16-.64.68-.42,1.08-.3,1.2.36.06.31.05.61-.02.92-.08.43-.28.84-.47,1.23-.47.96-1,1.89-1.5,2.84-1,1.89-2,3.79-3,5.68-2.04,3.86-4.07,7.72-6.11,11.58-.03.05-.03.11,0,.15.66.76,1.97.52,2.51-.29,1.01-1.51-1.34-3.19-2.35-3.93-3.45-2.54-7.66-3.77-11.7-5.03-2.18-.68-4.37-1.36-6.48-2.25-1.01-.43-2.01-.91-2.96-1.47-.42-.24-.83-.5-1.24-.78-.06-.04-.55-.31-.6-.42-.17-.36-.09-.2.1-.57.16-.33.49-.81.78-1.02.53-.37.41-.16.56.26.28.73.01,2.05-.09,2.81-.26,1.97-1.43,3.79-2.4,5.49-2.35,4.14-5.35,8.69-3.7,13.62.07.21.46.12.57-.01,1.42-1.67.11-3.77-1.52-4.7-1.02-.59-2.19-.88-3.33-1.16-1.69-.43-3.38-.85-5.07-1.27s-3.22-.81-4.83-1.21-3.39-.64-4.73-1.58c-.62-.43-1.13-1.08-1.27-1.83-.24-1.26,1.36-2.26,2.22-1.23.5.59-.15,1.7-.39,2.29-.29.72-.6,1.43-.94,2.12-2.42,5.02-6.08,9.41-10.53,12.76-.54.41-2.04,1.02-2.11,1.72-.05.57.56.88,1.03.99,1.17.26,2.5-.36,2.37-1.7-.12-1.19-1.18-2.11-2.07-2.8-1.24-.97-2.59-1.82-3.97-2.58-2.94-1.61-6.11-2.74-9.4-3.39-.23-.05-.74.31-.37.38h0Z"/>
    <path class="cls-6" d="M560.32,129.53c1.11.07,2.37.78,3.31,1.33.44.26.97.55,1.29.96.11.15.28.33.25.54-.07.39-1.34.69-1.65.5-1.35-.83,2.85-5.71,3.35-6.34,2.42-3.03,5.06-5.9,7.8-8.64,1.43-1.42,3.37-2.99,3.44-5.18.05-1.6-1-3.3-2.73-3.34-1.08-.03-2.67.67-2.7,1.94-.02.83.69,1.4,1.32,1.79,1.12.7,2.36,1.25,3.53,1.87,2.72,1.42,5.44,2.84,8.16,4.26,2.15,1.12,4.34,2.18,6.34,3.56,1.51,1.04,3,2.19,4.2,3.58.47.54.95,1.15,1.17,1.85.14.45.17,1.72-.59,1.74-.53.01-.98-1.14-.94-1.62.06-.8.64-1.55,1.13-2.15,1.22-1.49,2.78-2.72,4.35-3.83,2.71-1.92,15.4-7.63,10.46-12.19-.1-.09-.31-.02-.41.01-.95.33-2.05.89-2.14,2.02-.1,1.23.94,2.42,1.71,3.26,2.49,2.73,5.7,4.78,8.71,6.88,2.09,1.46,4.3,2.94,5.83,5.02,1.06,1.43,2.39,3.14,2.77,4.91.07.32.14.71,0,1.03-.22.51-1.55.94-1.85.27-.27-.58.42-1.26.77-1.64,1.47-1.57,3.4-2.78,5.22-3.91,3.8-2.37,10.31-4.95,9.46-10.51-.01-.07-.14-.07-.18-.07-1.24-.02-1.9.79-1.78,2.02.21,2.24,2.33,3.77,3.93,5.08,3.87,3.15,8.11,5.6,11.06,9.73,1.13,1.59,2.23,3.31,2.9,5.15.17.46.5,1.24.34,1.75-.27.88-2.2.2-1.75-.74.34-.72,1.37-1.24,2.02-1.61,1.05-.61,2.17-1.09,3.32-1.49,2.58-.92,5.28-1.53,7.74-2.76,2.88-1.44,9.44-5.68,6.93-9.66-.1-.15-.45-.04-.56.05-3.48,3.08,1.2,9.04,3.43,11.41,3.78,4.02,10.15,7.87,9.35,14.28l.44-.2c-.59,0-1.01-.42-1.2-.96-.27-.75.05-1.31.62-1.8,1.08-.92,2.94-1.15,4.29-1.53,2.36-.66,4.86-1.15,7.13-2.07,1.21-.49,2.24-1.24,2.47-2.58s.2-2.71-.02-4c-.1-.6-.25-1.61-1.05-1.56-.92.06-.94,1.5-.99,2.17-.24,3.42,1.61,6.86,3.4,9.64,2.31,3.58,5.23,6.89,8.6,9.51.15.12.72-.12.59-.23-2.77-2.16-5.19-4.77-7.27-7.59-2.04-2.77-3.99-5.97-4.57-9.41-.13-.76-.18-1.54-.1-2.3.03-.28.08-.56.15-.84.07-.3.08-.59.19-.52.7.39.58,2.77.58,3.41,0,1.83-.21,3.22-2.09,4.04-2.22.97-4.76,1.43-7.09,2.08-1.58.44-4.44.74-5.36,2.37-.64,1.14.23,2.46,1.46,2.48.09,0,.42-.06.44-.2.69-5.48-4.14-9.67-7.84-12.93-1.99-1.75-3.75-3.86-4.96-6.24-.95-1.87-1.97-4.71-.11-6.36l-.56.05c1.47,2.33-.49,4.73-2.2,6.28-2.17,1.97-4.72,3.35-7.48,4.28-2.58.87-5.25,1.52-7.65,2.82-.71.38-3.11,1.53-2.78,2.63.25.82,2.19,1.08,2.81.53.81-.72-.03-2.39-.36-3.13-1.8-4.04-4.7-7.39-8.19-10.04-2.5-1.9-5.13-3.63-7.4-5.81-.92-.88-1.72-1.78-1.94-3.08-.06-.35-.18-1.09.1-1.35,1.01-.98.59,1.41.49,1.78-.78,2.84-3.57,4.78-6.01,6.12-1.79.99-3.54,2.01-5.22,3.17-1.34.93-3.11,2.02-3.95,3.49-.64,1.12.28,1.52,1.33,1.4,3.62-.43.19-4.98-.82-6.45-2.78-4.04-7.64-6.38-11.45-9.35-1.76-1.37-8.14-6.34-3.42-7.97h-.41c2.92,2.7-1.03,5.83-3.19,7.38-2.57,1.83-5.43,3.21-7.95,5.11-1.36,1.02-6.55,4.78-4.34,6.89.75.71,1.7.54,2.22-.37.59-1.04-.32-2.28-.97-3.06-2.71-3.28-6.67-5.23-10.35-7.16-2.94-1.53-5.88-3.07-8.82-4.6-1.26-.66-2.92-1.22-3.94-2.23-.46-.46-.7-1-.48-1.63.59-1.64,2.56-1.09,3.35-.14,2,2.42-.4,5.11-2.12,6.79-1.35,1.33-2.67,2.69-3.95,4.09-2.56,2.79-5.25,5.69-7.18,8.97-.33.56-1.24,1.9-.7,2.58.45.56,2.37.11,2.8-.41,1.12-1.35-3.96-3.29-4.9-3.34-.16-.01-.72.28-.39.3h0Z"/>
    <circle class="cls-1" cx="581.61" cy="583.16" r="581.59"/>
    <circle class="cls-1" cx="580.8" cy="585.65" r="581.59"/>
    <path class="cls-19" d="M422.44,566.84c-.35,3.15-.7,6.31-1.05,9.46-.95,8.58-1.9,17.16-2.85,25.74-1.41,12.69-2.81,25.38-4.22,38.08-1.72,15.48-3.43,30.97-5.15,46.45-1.87,16.9-3.75,33.8-5.62,50.7-1.9,17.12-3.8,34.23-5.69,51.35-1.77,15.96-3.54,31.92-5.31,47.88-1.49,13.44-2.98,26.89-4.47,40.33-1.08,9.73-2.16,19.46-3.24,29.19-.51,4.57-1.03,9.15-1.52,13.72-.02.2-.04.4-.07.59-.18,1.62,5.14.59,5.3-.85.35-3.15.7-6.31,1.05-9.46.95-8.58,1.9-17.16,2.85-25.74,1.41-12.69,2.81-25.38,4.22-38.08,1.72-15.48,3.43-30.97,5.15-46.45,1.87-16.9,3.75-33.8,5.62-50.7,1.9-17.12,3.8-34.23,5.69-51.35,1.77-15.96,3.54-31.92,5.31-47.88,1.49-13.44,2.98-26.89,4.47-40.33,1.08-9.73,2.16-19.46,3.24-29.19.51-4.57,1.03-9.15,1.52-13.72.02-.2.04-.4.07-.59.18-1.62-5.14-.59-5.3.85h0Z"/>
    <path class="cls-12" d="M861.37,1197.52c-2.91-14.45-9-24.57-14.56-38.37-4.71-11.67,15.87,48.89,14.56,38.37-7.81-62.6,21.53-18.33,26.18-48.71,3.28-21.43-22.71-134.58-10.53-218.98,5.44-37.66-21.64-351.59-21.64-351.59l-56.82-22.21-105.77-23.33-2.4-1.23s-.48-1.92,0,0l-5.21,6.72c-16.28,25.32-40.86,44.71-76.35,47.25-12.29.88-24.34.94-35.77.33-39.08-2.11-62.19-18.12-84.87-46.17l-7.13-10.84-47.63,14.91-72.16,23.96c-13.99,4.64-27.63,10.26-40.83,16.81l-40.44,20.07,23.89,209.39c3.17,50.51-60.22,287.65-36.3,333.66l16.52,4.79,36.73,59.03s-15.07-44.48-39.52,21.77h585.88c-2.51-10.67-3.66-24.89-5.82-35.62Z"/>
    <g>
      <path class="cls-10" d="M158.01,1111.64c-26.95,5.48-53.65-11.11-74.13-29.46-24.78-22.2-2.41-61.78,6.17-91.61,20.59-71.58,88.05-181.4,112.38-230.61,24.34-49.21,38.18-146.43,105.67-175.67,64-27.72,129.08-40.96,129.08-40.96,0,0-9.99,162.96-82.5,259.7l-24.15,28.17-44.26,116.73,185.13,12.41,24.25,75.04-337.64,76.27Z"/>
      <path class="cls-10" d="M761.58,557.45l68.91,21.86s37.6,10.86,66.54,42.7c28.94,31.84,67.66,87.95,96.74,121,21.61,24.56,117.08,86.09,124.09,119.75,7.02,33.66,2.2,127.71-44.28,132.26,0,0-244.27-243.49-247.02-242.53-2.76.97-26.61,23.74-26.61,23.74,0,0-26.89-66.45-39.17-101.93-12.28-35.48.79-116.85.79-116.85Z"/>
      <path class="cls-12" d="M228.98,924.84c20.58,5.53,41.44,9.29,62.43,12.23l49.03-108.68,16.89,4.18c72.51-96.73,82.91-290.17,82.91-290.17,0,0-86.86,16.03-150.86,43.75-67.49,29.24-84.37,124.14-108.71,173.35-7.29,14.75-42.8,89.77-57.01,115.57,33.63,19.29,67.68,39.65,105.31,49.77Z"/>
      <path class="cls-12" d="M990.26,853.62c23.86-18.36,59.72-60.05,75.32-85.15-3.92-3.49-52.52-42.21-54.88-44.9-29.08-33.05-74.45-81.58-103.39-113.42-28.94-31.84-66.54-42.7-66.54-42.7l-85.24-20.88s-7.69,91.33,4.59,126.81c12.28,35.48,39.17,101.93,39.17,101.93,0,0,23.85,32.77,26.61,31.8,1.11-.39,41.35-16.71,89.05,30.29,10.45-5.72,65.87,23.48,75.32,16.21Z"/>
      <path class="cls-10" d="M715.87,733.77s142.08,43.53,195.07,55.46c79.83,17.97,120.82,14.54,148.01,38.2,27.19,23.66,27.17,165.46,27.17,165.46,0,0-26.67,14.71-87-5.45-60.33-20.16-314.52-177.86-314.52-177.86l31.28-75.8Z"/>
      <g>
        <path class="cls-10" d="M458.23,957.98s40.82-43.24,47.67-54.39c6.85-11.15,22.2-40.19,28.91-41.4,6.71-1.21,9.26,10.82,8.57,23.01-.69,12.19-23.26,33.27-18.63,38.69,4.63,5.41,104.03,1.7,120.58,1.47,16.55-.23,62.29,1.94,58.43,23.33,0,0,21.4,4.29,20.5,13.57-.9,9.28-3.07,12.55-3.07,12.55,0,0-.06,17.09-14.78,19.19-14.72,2.1-24.55,1.12-24.55,1.12,0,0,9.49,8.02-2.76,16.91-12.25,8.88-76.63,17.36-76.63,17.36,0,0-33.16,19.45-57.93,19.56-24.77.12-80.39-10.57-80.39-10.57l-5.92-80.41Z"/>
        <path class="cls-17" d="M712.93,950.18c-.26-.91-1.8-1.16-2.55-1.39-1.57-.48-3.16-.9-4.76-1.3-3.65-.93-7.34-1.72-11.04-2.46-7.48-1.5-15.03-2.68-22.6-3.61-16.79-2.07-33.78-2.87-50.69-2.26-4.12.15-8.24.38-12.34.73-1.86.16-3.72.36-5.57.62-1.1.15-2.97.19-3.52,1.38-.72,1.54,2.2,1.66,2.79.41-.17.37-1.32.69-.56.66.24-.01.5-.09.74-.13.92-.14,1.85-.24,2.77-.35,1.46-.17,2.93-.3,4.4-.42,3.51-.28,7.03-.47,10.55-.61,7.26-.28,14.54-.27,21.8-.03,15.97.52,31.93,2.23,47.65,5.16,3.85.72,7.68,1.51,11.49,2.4,1.63.38,3.26.78,4.88,1.22.95.26,1.9.52,2.84.82.3.1.63.26.94.32.51.1.07.26-.11-.35.41,1.42,3.31.64,2.9-.78h0Z"/>
        <path class="cls-17" d="M722.84,974.07c-.07-.75-2.54-1-3.05-1.1-2.62-.53-5.27-.94-7.92-1.32-10.01-1.46-20.08-2.49-30.15-3.34-14.75-1.25-29.53-1.97-44.31-2.69-12.03-.59-24.07-1.14-36.11-1.53-3.9-.13-7.81-.25-11.71-.27-1.17,0-5.16-.44-5.58,1.18-.27,1.04,2.64.62,2.9-.37-.21.8-1.12.77-1.4.89.05-.02.19-.04.24-.03.36.06.06,0,.11-.01.18,0,.35-.01.53-.02,1-.03,2.01-.02,3.02-.01,3.45.03,6.9.14,10.35.25,11.28.36,22.56.87,33.84,1.41,24.54,1.18,49.13,2.36,73.5,5.67,3.25.44,6.5.91,9.73,1.51.89.17,1.79.33,2.67.56.13.03.26.07.39.1.33.09,0,.06.11.03.34-.08.02.26-.02-.15.09.94,3.01.32,2.9-.78h0Z"/>
        <path class="cls-17" d="M692,995.1c-.18-.89-2.71-1.06-3.34-1.17-2.97-.54-5.97-.93-8.97-1.3-6.61-.82-13.24-1.42-19.89-1.88-14.67-1.02-29.42-1.36-44.12-.81-3.51.13-7.03.29-10.52.63-1.15.11-4.17.08-4.58,1.54-.32,1.12,2.61.72,2.91-.33-.06.22-.9.87-.95.81-.01-.02.49-.07.04-.02.26-.03.53-.08.79-.12.99-.13,1.99-.22,2.98-.29,3.04-.24,6.09-.39,9.14-.5,6.14-.22,12.28-.25,18.42-.18,13.66.18,27.34.95,40.92,2.46,3.38.38,6.76.79,10.12,1.33,1.09.17,2.18.35,3.26.58.3.06.6.16.9.21.38.07.07.14,0-.19.21,1.08,3.12.36,2.9-.78h0Z"/>
      </g>
    </g>
    <path class="cls-14" d="M862.7,717.64c-1.31,14.55-2.08,29.28-1.67,43.89.14,4.89.4,9.82,1.21,14.65.36,2.17,5.04.99,4.67-1.25-1.51-9-1.35-18.32-1.15-27.42.19-8.37.64-16.74,1.26-25.09.13-1.71.26-3.42.41-5.13.22-2.41-4.54-1.78-4.73.35h0Z"/>
    <path class="cls-17" d="M965.28,801.91c15.46,3.73,31.09,6.58,46.58,10.14,11.54,2.65,22.83,6.13,33.24,11.88,6.75,3.72,13.05,8.19,19.07,12.99.69.55,3.4-.62,2.83-1.07-10.13-8.07-21.08-14.98-33.27-19.48-11.92-4.4-24.5-6.73-36.9-9.29-9.73-2.01-19.44-4.09-29.1-6.42-.68-.16-1.51.03-2.12.36-.26.14-1.04.73-.34.9h0Z"/>
    <path class="cls-17" d="M286.9,945.56c-19.21-.07-38.36-2.19-57.56-2.62s-40.16.38-58.91,7.18c-9.85,3.58-18.97,8.96-26.42,16.36-.5.5-.24,1.13.36,1.35.71.26,1.62-.06,2.14-.57,13.29-13.19,31.66-18.86,49.85-21.04,19.63-2.34,39.49-1.14,59.15.06,10.09.61,20.19,1.3,30.31,1.33.68,0,1.66-.18,1.97-.9.28-.63-.25-1.16-.89-1.16h0Z"/>
    <path class="cls-14" d="M1043.9,753.19c5.17,5.26,10.33,10.52,15.5,15.77.73.75,1.47,1.49,2.2,2.24l-.1-.38c-2.09,4.25-4.41,8.41-6.79,12.5-4.52,7.76-9.42,15.47-15.38,22.21-2.72,3.08-6.09,6.49-9.54,8.24l3.26-.6c-8.77-2.14-17.54-4.28-26.3-6.41-1.25-.3-2.49-.61-3.74-.91l.38.48c2.54-3.13,5.08-6.25,7.62-9.38,10.13-12.47,20.28-24.92,30.7-37.16,2.16-2.54,4.32-5.07,6.51-7.58.66-.76-.59-.79-1.1-.75-.91.07-2.47.36-3.12,1.11-6.4,7.35-12.66,14.82-18.88,22.32-8.39,10.12-16.64,20.35-24.92,30.55-.47.57-.93,1.15-1.4,1.72-.21.26.24.45.38.48,9.83,2.4,19.66,4.79,29.49,7.19,3.01.73,6.03-1.58,8.3-3.33,2.98-2.3,5.58-5.08,7.98-7.96,5.34-6.39,9.9-13.42,14.1-20.6,2.48-4.24,4.89-8.55,7.06-12.96.08-.16.04-.28-.1-.38-5.17-5.26-10.33-10.52-15.5-15.77-.73-.75-1.47-1.49-2.2-2.24-.83-.84-5.1.87-4.4,1.58Z"/>
    <path class="cls-14" d="M123.14,875.78c5.03,3.18,10.17,6.19,15.33,9.16,12.05,6.95,24.32,13.53,36.81,19.65,15.24,7.47,30.86,14.2,46.99,19.5,13.73,4.51,27.77,8.09,41.99,10.64,6.39,1.15,12.89,2.24,19.38,2.67.09,0,.18.01.27.02.79.05,1.59-.1,2.33-.38.36-.14,1.42-.54,1.47-1.05.63-6.48,1.26-12.95,1.89-19.43.09-.94.18-1.87.27-2.81.03-.32-.06-.53-.42-.61-5-1.24-9.99-2.58-14.96-3.95-11.42-3.13-22.79-6.46-34.07-10.06-12.69-4.06-25.33-8.41-37.58-13.68-14.3-6.16-28.06-13.72-41.29-21.91-6.95-4.31-13.63-8.94-20.3-13.67-.09-.07-.19-.14-.28-.21-1.08-.83-3.89.1-4.5,1.21-3.93,7.14-7.85,14.27-11.78,21.41-.56,1.01-1.11,2.02-1.67,3.03-.46.83,1.63.69,1.92.64.91-.14,2.22-.5,2.71-1.38,3.93-7.14,7.85-14.27,11.78-21.41.56-1.01,1.11-2.02,1.67-3.03l-4.5,1.21c5.32,4.08,10.96,7.79,16.62,11.39,13.28,8.46,27.12,16.18,41.44,22.74,11.94,5.47,24.37,9.87,36.83,13.97,11.8,3.88,23.72,7.43,35.69,10.75,4.07,1.13,8.15,2.24,12.23,3.31,1.31.35,2.63.69,3.95,1.02.63.16,1.39.49,2.05.52.09,0,.18.05.27.07l-.42-.61c-.63,6.48-1.26,12.95-1.89,19.43-.09.94-.18,1.87-.27,2.81l3.8-1.43c-5.19-.34-10.38-1.14-15.52-1.98-13.33-2.18-26.51-5.36-39.42-9.33-16.21-4.98-31.91-11.38-47.22-18.65-13.07-6.2-25.88-12.97-38.46-20.13-6.23-3.54-12.33-7.27-18.48-10.95-.09-.05-.18-.11-.27-.17-.85-.53-2.17-.18-3.03.16-.28.11-2.13,1.02-1.34,1.52Z"/>
    <path class="cls-14" d="M274.62,747.83c4.41,9.32,6.83,19.51,8.53,29.64,2.1,12.51,3.04,25.2,3.52,37.87.54,14.26.43,28.54.07,42.8s-1.04,29.21-1.77,43.8c-.69,13.82-1.44,27.64-2.01,41.47-.07,1.62-.13,3.24-.19,4.87-.08,2.12,4.62,1.26,4.69-.5.51-13.71,1.25-27.42,1.94-41.12.74-14.63,1.45-29.26,1.89-43.9.43-14.37.62-28.76.23-43.13-.35-12.99-1.13-26-2.99-38.87-1.53-10.54-3.73-21.16-7.84-31.03-.44-1.06-.91-2.11-1.4-3.15-.84-1.77-5.42-.34-4.67,1.25h0Z"/>
    <polygon class="cls-10" points="577.88 540.2 587.04 631.1 604.75 540.2 577.88 540.2"/>
    <path class="cls-9" d="M563.48,600.03c-20.7,0-41.42-7.29-59.09-17.75-8.8-5.21-16.75-11.46-23.9-18.78-5.58-5.71-10.96-12.01-14.55-19.2-.93-1.86-1.75-3.81-2.28-5.83-.13-.51-.25-1.04-.33-1.56-.02-.14-.07-.86-.05-.32l-.85.87c6.41-2.66,12.82-5.33,19.23-7.99l-1.94-.12c3.31,6.22,7.75,11.99,12.3,17.33,10.28,12.07,22.83,22.4,37.13,29.33,9.98,4.83,20.71,7.93,31.73,9.15,1.27.14,3.02-1.65,1.07-1.87-18.52-2.05-35.83-9.81-50.36-21.37-9.81-7.81-18.43-17.26-25.43-27.66-1.33-1.98-2.65-4-3.78-6.11-.31-.59-1.52-.29-1.94-.12-6.41,2.66-12.82,5.33-19.23,7.99-.29.12-.86.48-.85.87.07,2.29,1.03,4.62,1.95,6.68,3.04,6.78,7.75,12.78,12.73,18.23,14.36,15.67,32.64,26.97,52.71,33.85,11.12,3.81,22.86,6.26,34.65,6.26.64,0,1.59-.18,1.9-.84.28-.59-.24-1.03-.83-1.03h0Z"/>
    <path class="cls-9" d="M614.54,601.77c20.16-2.16,41.01-6.38,58.79-16.55,4.18-2.39,8.16-5.15,11.78-8.32,3.9-3.42,7.26-7.4,10.45-11.48,4.98-6.36,9.63-13.29,12.45-20.92.95-2.56,2.01-5.6,1.79-8.4-.02-.24-.4-.35-.56-.4-6.66-1.96-13.32-3.92-19.98-5.88-.69-.2-2.12.18-2.34.97-1.46,5.26-4.45,10.27-7.5,14.74-7.9,11.56-18.98,20.64-31.39,27-10.46,5.36-21.84,8.79-33.38,10.83-.5.09-1.56.34-1.65.98s.83.69,1.25.62c19.18-3.39,38-10.49,53.05-23.12,8.44-7.08,15.65-15.86,20.33-25.87.83-1.78,1.66-3.63,2.19-5.54l-2.34.97c6.66,1.96,13.32,3.92,19.98,5.88l-.56-.4c.02.28.02.09,0,.22-.05.39-.04.8-.09,1.19-.19,1.61-.59,3.2-1.08,4.74-2.14,6.76-5.99,12.95-10.11,18.65-3.12,4.31-6.46,8.58-10.25,12.33-3.24,3.2-6.86,6.01-10.7,8.45-8.15,5.18-17.21,8.79-26.46,11.47-10.86,3.15-22.05,5.04-33.28,6.24-.5.05-1.57.37-1.65.98-.09.65.83.66,1.25.62h0Z"/>
    <path class="cls-9" d="M563.37,583.98c.32,4.14.64,8.27.96,12.41.77,9.93,1.54,19.86,2.32,29.79.93,11.97,1.86,23.94,2.79,35.91.81,10.39,1.61,20.77,2.42,31.16.27,3.43.53,6.86.8,10.3.12,1.53,0,3.35.38,4.85.02.07.01.14.02.21.03.39.63.48.91.52,5.48.76,10.96,1.52,16.44,2.28.75.1,2.04-.4,1.99-1.29-.25-4.15-.51-8.3-.76-12.46-.61-9.97-1.22-19.94-1.83-29.92-.74-12.06-1.48-24.13-2.21-36.19-.64-10.43-1.28-20.86-1.91-31.29-.21-3.44-.42-6.87-.63-10.31-.07-1.06-.13-2.13-.2-3.19-.03-.54.02-1.17-.1-1.7-.02-.07,0-.14-.01-.21-.02-.38-.64-.49-.91-.52-6.15-.54-12.31-1.09-18.46-1.63-.6-.05-1.63.22-1.9.83s.25.94.82.99c6.15.54,12.31,1.09,18.46,1.63l-.91-.52c.25,4.15.51,8.3.76,12.46.61,9.97,1.22,19.94,1.83,29.92.74,12.06,1.48,24.13,2.21,36.19.64,10.43,1.28,20.86,1.91,31.29.21,3.44.42,6.87.63,10.31.1,1.58,0,3.34.3,4.89.01.07,0,.14.01.21l1.99-1.29c-5.48-.76-10.96-1.52-16.44-2.28l.91.52c-.32-4.14-.64-8.27-.96-12.41-.77-9.93-1.54-19.86-2.32-29.79-.93-11.97-1.86-23.94-2.79-35.91-.81-10.39-1.61-20.77-2.42-31.16-.27-3.43-.53-6.86-.8-10.3-.12-1.54-.01-3.34-.38-4.85-.02-.07-.01-.14-.02-.21-.08-1.08-2.99-.44-2.9.78Z"/>
    <path class="cls-9" d="M611.31,585.05c-.74,4.11-1.49,8.23-2.23,12.34-1.79,9.92-3.59,19.85-5.38,29.77-2.16,11.97-4.32,23.93-6.49,35.9-1.87,10.38-3.75,20.75-5.62,31.13-.61,3.4-1.23,6.81-1.84,10.21-.28,1.57-.78,3.24-.87,4.83,0,.07-.03.14-.04.21l2.89-.6c-.38-6.29-.77-12.57-1.15-18.86-.72-11.69-1.43-23.39-2.15-35.08-.27-4.49-.55-8.99-.82-13.48-.11-1.84-.39-3.75-.34-5.59-.01.43.06-.21.08-.32l.24-1.41.87-5.15c.9-5.31,1.8-10.62,2.69-15.92,1.53-9.05,3.06-18.1,4.59-27.14.03-.17.06-.33.08-.5l-2.03.94c6.13-.25,12.25-.51,18.38-.76.56-.02,1.63-.19,1.92-.76s-.25-.74-.75-.72c-6.13.25-12.25.51-18.38.76-.49.02-1.91.26-2.03.94-1.32,7.78-2.63,15.56-3.95,23.34-1.51,8.95-3.18,17.88-4.54,26.85-.19,1.24.04,2.56.12,3.8.24,4,.49,8,.73,12,.71,11.62,1.42,23.23,2.13,34.85.3,4.95.61,9.9.91,14.84.16,2.55.1,5.22.47,7.75.02.12.01.24.02.36.05.83,2.76.13,2.89-.6.74-4.11,1.49-8.23,2.23-12.34,1.79-9.92,3.59-19.85,5.38-29.77,2.16-11.97,4.32-23.93,6.49-35.9,1.87-10.38,3.75-20.75,5.62-31.13.61-3.4,1.23-6.81,1.84-10.21.28-1.56.79-3.24.87-4.83,0-.07.03-.14.04-.21.17-.96-2.72-.47-2.88.42Z"/>
    <path class="cls-10" d="M724.95,738.08s-34.63-48.33-39.92-60.3c-5.29-11.97-16.6-42.81-23.09-44.91-6.49-2.1-10.63,9.48-11.59,21.65-.95,12.17,18.58,36.1,13.26,40.84-5.32,4.74-103.32-12.3-119.69-14.75-16.37-2.45-61.98-6.45-61.03,15.26,0,0-21.78,1.37-22.14,10.69-.36,9.32,1.36,12.85,1.36,12.85,0,0-2.24,16.95,12.06,21.01,14.3,4.06,24.18,4.41,24.18,4.41,0,0-10.48,6.68.47,17.12,10.95,10.45,73.6,27.51,73.6,27.51,0,0,30.25,23.73,54.77,27.17,24.53,3.45,67.29-1.11,67.29-1.11l30.47-77.44Z"/>
    <path class="cls-17" d="M476.39,696.88c-.08.17-.95.61-.8.7.03.02.2-.06.24-.06.27-.01.56-.12.83-.16.89-.16,1.78-.27,2.67-.39,1.46-.19,2.92-.36,4.39-.5,3.5-.35,7.02-.61,10.53-.81,7.26-.42,14.53-.54,21.8-.44,15.98.22,31.97,1.63,47.73,4.25,3.86.64,7.71,1.37,11.54,2.18,1.64.35,3.28.71,4.91,1.12.96.24,1.91.49,2.86.76.3.09.63.25.94.3.5.08.09.26-.1-.34.43,1.38,3.33.6,2.9-.78-.28-.91-1.8-1.12-2.56-1.34-1.58-.45-3.18-.84-4.78-1.22-3.67-.86-7.38-1.58-11.09-2.25-7.51-1.36-15.08-2.4-22.67-3.19-16.83-1.75-33.83-2.24-50.72-1.31-4.11.23-8.23.53-12.33.97-1.86.2-3.71.43-5.56.72-1.06.17-3,.23-3.52,1.4-.68,1.55,2.24,1.62,2.78.38h0Z"/>
    <path class="cls-17" d="M463.4,718.8c-.12.52-1.21.71-1.3.71.23-.01.48-.07.71-.1-.46.05.51-.04.7-.06.47-.03.94-.06,1.41-.09,2.75-.14,5.5-.18,8.25-.2,10.01-.06,20.03.29,30.02.82,14.18.74,28.34,1.97,42.49,3.19,11.6,1,23.19,2.04,34.77,3.21,3.97.4,7.95.81,11.92,1.31,1.11.14,2.22.28,3.33.46.45.07.28.12.74.14.4.02.12.18.09-.07.08.7,3,.1,2.9-.78-.08-.7-3.27-.82-3.75-.89-3.28-.44-6.57-.79-9.86-1.14-11.48-1.2-22.97-2.24-34.47-3.24-25.43-2.22-50.93-4.46-76.48-4.35-3.16.01-6.32.05-9.47.24-.93.06-4.55,0-4.85,1.27-.19.78,2.68.35,2.87-.46h0Z"/>
    <path class="cls-17" d="M491.15,743.86l-1.08.9s.1-.03.15-.04c-.11-.07-.3.04.04,0,.26-.03.53-.05.79-.07,1-.08,1.99-.11,2.99-.13,3.04-.07,6.08-.04,9.12.02,6.15.12,12.3.42,18.43.83,13.63.92,27.26,2.42,40.73,4.69,3.35.56,6.7,1.17,10.02,1.88,1.08.23,2.16.47,3.22.76.3.08.59.19.89.26.39.1.03.14-.02-.19.16,1.14,3.07.45,2.9-.78-.13-.9-2.69-1.21-3.31-1.36-2.98-.71-6.01-1.27-9.03-1.81-6.51-1.16-13.06-2.12-19.62-2.94-14.58-1.82-29.28-2.98-43.98-3.22-3.52-.06-7.06-.09-10.58.06-1.28.05-4.06-.13-4.59,1.42-.39,1.14,2.54.79,2.91-.3h0Z"/>
  </g>
</svg>