<?xml version="1.0" encoding="UTF-8"?>
<svg id="Layer_7" data-name="Layer 7" xmlns="http://www.w3.org/2000/svg" xmlns:xlink="http://www.w3.org/1999/xlink" viewBox="0 0 1258.33 1274.9">
  <defs>
    <style>
      .cls-1, .cls-2 {
        fill: none;
      }

      .cls-2 {
        stroke: #231f20;
        stroke-miterlimit: 10;
      }

      .cls-3 {
        fill: #121112;
      }

      .cls-4 {
        fill: #010101;
      }

      .cls-5 {
        clip-path: url(#clippath-1);
      }

      .cls-6 {
        fill: #273339;
        opacity: .36;
      }

      .cls-7 {
        fill: #fff;
      }

      .cls-8 {
        fill: #b06c4f;
      }

      .cls-9 {
        opacity: .16;
      }

      .cls-10 {
        fill: #4f2f26;
      }

      .cls-11 {
        fill: #f2ebd1;
      }

      .cls-12 {
        clip-path: url(#clippath);
      }
    </style>
    <clipPath id="clippath">
      <circle class="cls-1" cx="621.93" cy="652.97" r="581.59"/>
    </clipPath>
    <clipPath id="clippath-1">
      <circle class="cls-1" cx="621.93" cy="652.97" r="581.59"/>
    </clipPath>
  </defs>
  <g class="cls-12">
    <g class="cls-5">
      <polyline class="cls-11" points="1258.33 1263.29 1249.96 0 0 0 8.38 1274.9"/>
    </g>
    <path class="cls-8" d="M792.61,599.11l43.19-25.46,41.86-21.26c16.48-7.95,34.98-10.71,53.05-7.9,21.14,11.59,34.06,33.99,33.51,58.09-.6,36-109.34,91.29-126.85,74.75-13.03-10.31-15.23-29.23-4.92-42.25,2.16-2.73,5.32-9.5,8.27-11.33,12.92-14.17,18.46-16.54,18.46-16.54l-15.44,13.3-51.13-21.38Z"/>
    <path class="cls-8" d="M885.14,746.39l-67.83,109.91c-19.77,32.13-36.35,64.46-73.87,65.84h0l-63.66,85.97-121.13-123.26,81.55-138.13,210-62.8,34.94,62.46Z"/>
    <path class="cls-3" d="M744.59,964.08c-67.61,88.13-195.12,198.28-270.91,279.49-52.85,56.62-72.37,63.94-133.72,111.47-1.88,1.46-3.82,2.92-5.82,4.37-57.64,41.97-159.66,78.96-210.95,8.16-28.65-39.55,8.81-90.05.86-133.47-.61-3.34-1.42-6.63-2.48-9.86-15.41-46.86-41.4-78.74-34.72-128.22,9.01,3.68,32.97,14.51,32.97,14.51l547.6-350.28"/>
    <path class="cls-3" d="M291.64,1201.64s.07.42.19,1.08l34.01-1.08h-34.19Z"/>
    <path class="cls-8" d="M849.36,742.59c20.43-14.91,46.13-20.69,70.98-15.95,15.69,1.83,29.19,11.95,35.35,26.5,3.34,17.24-5.57,34.53-21.56,41.8-15.76,6.77-32.86,9.87-50,9.05l-26.58.66c-10.43,1.23-20.99-.55-30.44-5.12-14.08-10.67-17.41-30.46-7.59-45.14,10.23-14.09,26.88-22.07,44.27-21.22"/>
    <path class="cls-8" d="M762.75,619.1c-2.12-33.68-12.6-66.31-30.48-94.93-6.8-14.26-16.63-26.87-28.81-36.93-12.71-8.98-28.77-11.82-43.79-7.76-12.07,2.46-20.6,13.27-20.19,25.58,1.71,12.38,6.58,24.11,14.15,34.05,21.31,39,25.32,61.91,16.03,79.1"/>
    <path class="cls-7" d="M848.2,683.1c-12.52-3.39-18.53-18.62-18.56-31.58-.03-13.94,11.78-30.7,22.89-38.97-47.52-21.25-138.62-33.9-154.78-35.67-79.46-8.68-167.63-.9-245.29,18.99-16.47,3.3-31.83,11.94-44.34,24.95-1.15,50.62,4.91,101.07,17.94,149.28,9.71,36.71,23.93,71.55,42.2,103.45,8.15,14.31,17.24,27.82,27.18,40.42,19.7,24.96,49.29,40.12,81.04,41.72l108.59,3.59h0c31.26-3.35,59.51-16.72,77.45-42.55,8.34-12.01,18.7-27.38,31.47-47.01,31.44-48.45,57.69-139.38,72.11-191.17-4.56,1.92-12.69,5.95-17.9,4.54Z"/>
    <path class="cls-7" d="M780.82,847.79c31.71,21.47,86.69,30.14,120.07,11.43,44.49-23.98,72.84-84.56,49.96-131.01-15.8-32.08-58.54-48.48-93.08-47.75l-14.51,39.13s86.67,16.9,72.09,62.47c-23.86,74.57-111.75,28.21-111.75,28.21l-22.77,37.54Z"/>
    <path class="cls-8" d="M960.5,615.25s42.97,56.93-1.44,86.28c-44.41,29.35-107,30.06-115.81,18.06-8.8-12-21.31-38.78,8.18-42.69,29.49-3.9,109.07-61.65,109.07-61.65Z"/>
    <path class="cls-10" d="M954.62,622.09c-.73,1.68-1.29,3-2.17,4.34-.29.45-.62.88-.97,1.29-.17.2-.36.38-.52.57.61-.73-.13.12-.32.29-3.05,2.91-5.85,6.02-8.77,9.06-6.54,6.82-13.8,12.98-21.51,18.43-1.74,1.23-3.56,2.44-5.57,3.72s-4.11,2.54-6.21,3.73-4.16,2.25-6.24,3.38c-1.15.63-2.3,1.24-3.47,1.83-1.31.66-1.67.84-2.95,1.44-2.36,1.1-4.76,2.13-7.19,3.09-1.14.45-2.29.88-3.45,1.3-.58.21-1.16.41-1.74.61-.09.03-.99.34-.52.18.44-.15-.65.21-.74.24-1.17.38-2.34.74-3.52,1.09-.66.19-1.33.37-2,.57-.53.16-1.06.34-1.58.52-.3.1-.3.1.02,0l-.45.15c-2.53.81-5.1,1.51-7.7,2.04.2-.04.71-.13-.2.03-.46.08-.92.17-1.38.25-.69.12-1.39.22-2.08.32-1.47.21-2.95.37-4.43.48.19-.01.57-.03-.31.02-.39.02-.78.04-1.17.06-.7.03-1.41.05-2.11.06-.31,0-.63,0-.94,0-1.21.06,0,.06-.02.07-.12.02-.29-.03-.41-.05-3.29-.42-6.49-.95-9.04-2.83-1.56-1.15-4.07-.67-5.72.05-.71.31-3.94,2.11-2.38,3.25,3.09,2.27,7.02,3.24,10.75,3.84,4.28.68,8.83.18,13.09-.34,3.03-.37,6.04-.93,9.02-1.61s5.7-1.73,8.58-2.51c-.7.19.25-.04.42-.08.3-.08.59-.17.89-.25.66-.19,1.33-.39,1.99-.59,1.56-.48,3.1-.99,4.64-1.52,2.62-.89,5.2-1.86,7.76-2.92,5.22-2.16,10.21-4.75,15.21-7.36,4.47-2.34,8.83-4.9,13.05-7.68,8.64-5.68,16.74-12.13,24.11-19.4,3.7-3.64,7.03-7.58,10.77-11.12,1.14-1.07,2.3-2.16,3.19-3.46,1.23-1.78,2.11-3.81,2.97-5.79.27-.63-.37-1.19-.85-1.41-.8-.37-2.01-.35-2.84-.22-1.79.28-4.18,1-4.98,2.82h0Z"/>
    <path class="cls-10" d="M916.4,554.6c-16.74,12.27-32.8,25.46-48,39.61-4.31,4.01-8.54,8.09-12.71,12.24-1.27,1.26-.98,2.72.84,3.13,1.92.43,4.72-.23,6.15-1.65,14.48-14.41,29.8-27.98,45.87-40.6,4.37-3.43,8.92-6.89,13.27-10.08,1.12-.82,2.62-2.48.75-3.45-1.69-.87-4.68-.28-6.16.8h0Z"/>
    <g class="cls-9">
      <path class="cls-4" d="M457.74,605.18c-119.84,23.04,242.35,57.84,380.84,23.03,1.83-.65,2.79-2.65,2.15-4.48-.34-.96-1.08-1.73-2.04-2.1-35.78-13.77-172.54-56.45-380.95-16.44Z"/>
    </g>
    <path class="cls-8" d="M441.28,647.45c12.98-26.71,18.05-56.57,14.61-86.06-.95-16.7-8.04-32.46-19.91-44.25-12.9-11.78-32.76-11.44-45.25.78-10.09,12.35-6.22,30.42-6.26,46.23-1.23,23.33-9.74,45.69-24.34,63.94-14.51,17.77-30.82,33.98-48.68,48.38"/>
    <path class="cls-8" d="M161.67,786.77l-22.43-30.72c3.21-7.85,48.55-32.23,48.55-32.23,80.75-39.17,127.61-71.25,214.27-94.59,23.68,2.37,194.36,25.2,216.65,32.15,37.16,10.06,26.4,49.63,13.25,48.31-28.94-2.9-137.77-8.22-137.77-8.22l148.82,30.59,32.81,7.79s17.49,4.9,15.47,20.68c-2.78,21.91-15.41,28.73-38.02,28.35s-206.91-23.43-206.91-23.43l199.14,54.92c11.07,2.15,18.31,12.86,16.16,23.93-.23,1.21-.58,2.4-1.03,3.55-6.04,19.88-28.47,21.49-58.05,17.7,1.65,3.35,2.42,7.07,2.24,10.8-2.44,16.56-17.84,28-34.4,25.55-.46-.07-.92-.15-1.38-.24-21.93-1.68-281.07-13.9-281.07-13.9l-36.19,27.83-90.09-128.83Z"/>
    <path class="cls-10" d="M449.78,632.68c-9.9-1.29-19.9-2.17-29.88-2.5-6.67-.22-13.35-.01-19.99.64-2.7.26-5.55.48-8.19,1.18-4.1,1.09-8.14,2.41-12.21,3.61-7.46,2.21-14.93,4.42-22.39,6.62-4.72,1.4-9.44,2.79-14.15,4.19-1.1.33-4.29,1.37-3.84,3.06s3.86,1.02,4.85.73c11.17-3.3,22.34-6.61,33.5-9.91,4.93-1.46,9.85-2.91,14.78-4.37,1.34-.4-1.17.17-.5.06,1.08-.17,2.15-.35,3.24-.49,1-.13,2-.25,3-.35.5-.05,1-.1,1.49-.14.32-.03.64-.06.96-.08-1.09.09.43-.03.62-.04,3.28-.23,6.58-.34,9.87-.34,11.19,0,22.17,1.01,33.41,2.48,2.05.27,4.53-.32,6.15-1.65,1.32-1.09,1.09-2.44-.72-2.68h0Z"/>
    <path class="cls-10" d="M520.22,699.98c-22.08.19-43.51-7.73-65.15-11.79-6.43-1.2-12.89-2.03-19.42-2.36-1.85-.09-4.62.73-5.77,2.27-1.25,1.66,1.09,2.09,2.25,2.15,22,1.12,43.31,9.33,65.14,12.66,6.43.98,12.94,1.54,19.44,1.49,1.89-.02,4.57-.67,5.77-2.27s-1.05-2.16-2.25-2.15h0Z"/>
    <path class="cls-10" d="M469.53,770.63c-.77-.14-1.55-.26-2.32-.44,1.2.28-.27-.05-.51-.1-.48-.1-.96-.2-1.44-.3-1.96-.41-3.92-.84-5.87-1.29-4.36-1-8.71-2.06-13.05-3.17-9.13-2.33-18.23-4.82-27.22-7.62-4.02-1.25-8.03-2.55-11.96-4.05-1.96-.75-4.78.12-6.15,1.65s-.78,3.22,1.05,3.91c7.72,2.94,15.69,5.25,23.63,7.49,9.17,2.59,18.4,4.98,27.69,7.13,4.33,1,8.68,1.94,13.05,2.74,1.95.35,4.77-.77,5.68-2.59,1.01-2.01-.9-3.06-2.57-3.37h0Z"/>
    <path class="cls-10" d="M606.77,863.65c-27.54-3.34-55-7.32-82.35-11.95s-54.44-9.86-81.46-15.74c-15.23-3.31-30.41-6.83-45.55-10.54-1.89-.46-4.36.35-6.07,1.14-.75.35-2.98,1.68-1.1,2.14,26.94,6.6,54.04,12.58,81.26,17.92s54.41,10.01,81.77,14.06c15.42,2.28,30.86,4.36,46.33,6.24,2.03.25,4.22-.28,6.07-1.14.59-.27,3.09-1.9,1.1-2.14h0Z"/>
    <path class="cls-6" d="M606.82,176c5.28.31,10.38-1.79,13.8-5.66,6.48-5.33,7.69-14.59,2.79-21.4-7.57-8.15-19.76-10.46-29.83-5.67-11.94,6.51-18.73,19.27-17.31,32.54,1.56,15.51,7.49,30.34,17.14,42.86,11.33,14.44,19.96,30.69,25.48,48,4.76,20.1-2.23,41.02-18.21,54.44-15.89,13.62-34.47,20.81-48.94,31.58-6.98,5.06-12.21,12.05-15.03,20.06-2.52,7.67-2.26,15.96.72,23.51,6.36,14.34,16.24,26.97,28.78,36.79,11.33,9.05,21.22,19.68,29.33,31.54,11.17,17.86,15.59,38.89,12.49,59.46-.78,5.48-2.18,10.86-4.18,16.03-.6,1.86-1.49,3.63-2.64,5.22,1.83-7.11,3.25-14.32,4.26-21.59,1.93-19.83-2.95-39.78-13.89-56.74-8.27-11.23-18.07-21.32-29.14-30-13.46-10.26-24.07-23.61-30.86-38.83-3.46-8.78-3.81-18.4-1-27.34,3.15-9.19,9.07-17.23,16.99-23.09,15.44-12.16,33.87-19.24,48.55-31.63,14.36-11.88,20.63-30.58,16.26-48.5-5.23-16.59-13.35-32.21-24.03-46.16-10.15-13.47-16.26-29.39-17.65-45.96-1.22-15.28,6.97-29.75,20.88-36.88,12.01-5.4,26.34-2.18,34.78,7.83,3.33,4.23,4.41,9.72,2.9,14.81-1.18,4.09-3.51,7.78-6.74,10.64-4.22,4.22-10.34,6.12-16.34,5.08-2.01-.44-3.84-1.48-5.23-2.96.34-.59,1.83,1,5.88,2.03Z"/>
    <path class="cls-6" d="M563.93,538.3c2.42-12.65.8-25.75-4.64-37.56-8.57-17.35-20.51-32.97-35.16-45.97-18.98-16.35-33.08-37.35-40.8-60.75-3.54-12.81-2.19-26.39,3.81-38.23,6.02-10.43,14.47-19.33,24.69-26.01,18.67-12.88,36.38-22.46,45.6-36.06,7.51-10.39,9.26-23.74,4.66-35.71-2.1-4.23-4.9-8.11-8.3-11.46.16-.23,1.4.31,3.55,1.85,3.02,2.27,5.46,5.19,7.12,8.52,5.88,12.86,4.58,27.68-3.43,39.29-9.42,15.1-28.05,25.7-45.77,38.32-9.36,6.24-17.1,14.5-22.62,24.13-5.18,10.54-6.28,22.56-3.12,33.89,7.64,22.36,21.2,42.41,39.31,58.16,14.91,13.75,26.84,30.24,35.09,48.49,5.3,12.64,6.23,26.58,2.66,39.7-1.14,3.47-2.71,6.8-4.69,9.89-1.58,2.07-2.59,2.83-2.59,2.83-.61-.33,2.67-4.46,4.61-13.32Z"/>
    <path class="cls-3" d="M-389.94,1411.83c-14.77,6.43-29.93,11.93-45.47,16.22-21.25,5.86-115.62,23.9-168.46-.97-64.84-30.52,42.81-119.4,34.58-190.33-4.61-39.71-17.99-71.17-14.13-106.76,1.36-12.56,16.02-18.81,26.29-11.45.12.09.48.32.35.25-25.47-13.24,43.1-65.36,48.75-68.55L170.26,713.76c6.67-3.77,0,0,28.92,66.29,13.39,30.7,59.85,110.51,84.94,137.04,6.12,6.48,6.06,16.65-.12,23.07-187.62,194.67-374.17,285-600.98,431.79-23.21,15.02-47.51,28.82-72.95,39.88Z"/>
    <polyline class="cls-2" points="1258.33 1263.29 1249.96 0 0 0 8.38 1274.9"/>
  </g>
</svg>