<?xml version="1.0" encoding="UTF-8"?>
<svg xmlns="http://www.w3.org/2000/svg" xmlns:xlink="http://www.w3.org/1999/xlink" viewBox="0 0 1163.45 1166.32">
  <defs>
    <style>
      .cls-1 {
        fill: none;
      }

      .cls-2 {
        fill: #ee6925;
      }

      .cls-3 {
        fill: #b9dfee;
      }

      .cls-4 {
        fill: #247f9e;
      }

      .cls-5 {
        fill: #fff;
      }

      .cls-6 {
        fill: #1a3752;
      }

      .cls-7 {
        fill: #e9cc1c;
      }

      .cls-8 {
        fill: #189aae;
      }

      .cls-9 {
        fill: #8b782e;
      }

      .cls-10 {
        clip-path: url(#clippath);
      }

      .cls-11 {
        fill: #1a4872;
      }
    </style>
    <clipPath id="clippath">
      <circle class="cls-1" cx="580.29" cy="583.21" r="581.59"/>
    </clipPath>
  </defs>
  <g id="Layer_1" data-name="Layer 1">
    <g class="cls-10">
      <circle class="cls-3" cx="580.28" cy="583.21" r="581.59"/>
      <g id="_4tKjkB.tif" data-name="4tKjkB.tif">
        <g>
          <path class="cls-11" d="M1270.28,770.07v250.34c-3.26.52-5.35-4.14-6.87-6.41-112.47-167.51-253.17-252.63-455.8-167.59-121.37,50.93-197.68,139.95-306.31,205.32-143.2,86.18-307.43,125.77-475.65,109.49-45.72-4.42-90.9-14.11-135.35-25.03-.06-52.13.02-104.34,0-156.46,14.39,4.47,28.88,8.22,43.46,12.08,142.48,37.66,245.97-19.1,341.47-120.78,97.42-103.73,176.24-241.23,311.81-299.95,233.36-101.08,483.52,43.56,663.62,184.96,6.24,4.9,11.28,11.76,19.61,14.03Z"/>
          <path class="cls-4" d="M1270.28,242.78v527.28c-8.33-2.28-13.36-9.13-19.61-14.03-180.11-141.4-430.26-286.04-663.62-184.96-135.57,58.73-214.39,196.22-311.81,299.95-95.5,101.68-198.99,158.44-341.47,120.78-14.59-3.86-29.07-7.61-43.46-12.08-.03-87.07-.01-174.22,0-261.29,125.02,22.23,253.79-17.77,366.41-69.33,172.72-79.08,307.34-185.82,456.7-299.01,131.35-99.54,319.9-164.34,485.21-130.32,24.77,5.1,48.02,14.89,71.65,23.01Z"/>
          <path class="cls-8" d="M1270.28,166.11v76.67c-23.63-8.12-46.88-17.91-71.65-23.01-165.31-34.02-353.86,30.78-485.21,130.32-149.36,113.19-283.98,219.93-456.7,299.01-112.62,51.56-241.39,91.56-366.41,69.33l.02-481.91c9.25,6.85,15.68,16.72,24,24.49,30.91,28.89,68.21,50.61,107.41,66.26l1.56,1.56c.45.18,1.11-.18,1.56,0,115.23,45.06,268.17,3.94,376.09-45.57,139.77-64.12,255.28-173.09,398.39-229.8,56.69-22.47,137.22-34.77,197.91-29.72,105.46,8.78,208.78,57.35,273.03,142.37Z"/>
          <path class="cls-6" d="M-109.69,1136.19c44.45,10.92,89.63,20.6,135.35,25.03,168.22,16.28,332.45-23.31,475.65-109.49,108.62-65.37,184.94-154.39,306.31-205.32,202.63-85.03,343.33.08,455.8,167.59,1.52,2.27,3.61,6.93,6.87,6.41v225.31H-109.69c-.03-36.48.04-73.04,0-109.52Z"/>
          <path class="cls-2" d="M23.3,328.84l-1.56-1.56c.63.25,1.13,1.39,1.56,1.56Z"/>
        </g>
      </g>
    </g>
  </g>
  <g id="Layer_2" data-name="Layer 2">
    <path class="cls-9" d="M456.81,429.43l-127.14-22.79c-16.58-2.97-26.31-20.3-20.31-36.04,16.63-43.6,42.63-78.1,78-103.5,43.29-31.08,104.57-46.62,183.85-46.62,91.01,0,156.81,16.97,197.41,50.9,40.59,33.94,60.89,76.59,60.89,127.96,0,30.13-8.25,57.4-24.74,81.82-8.54,12.65-19.33,24.48-32.38,35.51-14.94,12.63-11.8,36.56,5.96,44.77,5.03,2.33,9.56,4.74,13.58,7.24,23.15,14.27,41.15,33.06,53.99,56.37,12.84,23.31,19.26,51.14,19.26,83.48,0,40.6-10.63,79.52-31.87,116.78-21.25,37.27-51.85,65.97-91.81,86.1-39.96,20.14-92.45,30.21-157.45,30.21s-113.45-7.45-150.08-22.36c-36.63-14.9-66.76-36.7-90.38-65.41-17.53-21.29-32.05-46.64-43.56-76.06-6.35-16.25,4.13-34.16,21.42-36.45l137.16-18.2c13.31-1.77,25.84,6.59,29.4,19.53,7.41,26.98,17.47,46.44,30.16,58.37,16.01,15.07,36.39,22.6,61.13,22.6,26,0,47.64-9.51,64.93-28.54,17.28-19.03,25.93-44.4,25.93-76.11s-8.32-57.39-24.97-75.16c-16.65-17.76-39.25-26.64-67.79-26.64-7.93,0-17.42,1.03-28.46,3.1-17.28,3.24-32.96-10.75-31.69-28.29l5.38-74.56c1.02-14.12,12.84-24.92,27-24.89.06,0,.12,0,.18,0,25.37,0,46.54-8.09,63.5-24.26,16.96-16.17,25.45-35.36,25.45-57.56s-6.35-38.21-19.03-50.9c-12.69-12.68-30.13-19.03-52.33-19.03s-41.39,6.9-55.66,20.69c-10.65,10.29-18.74,26.38-24.27,48.24-3.43,13.59-16.89,22.13-30.69,19.66Z"/>
    <path class="cls-7" d="M416.89,400.63l-127.14-22.79c-16.58-2.97-26.31-20.3-20.31-36.04,16.63-43.6,42.63-78.1,78-103.5,43.29-31.08,104.57-46.62,183.85-46.62,91.01,0,156.81,16.97,197.41,50.9,40.59,33.94,60.89,76.59,60.89,127.96,0,30.13-8.25,57.4-24.74,81.82-8.54,12.65-19.33,24.48-32.38,35.51-14.94,12.63-11.8,36.56,5.96,44.77,5.03,2.33,9.56,4.74,13.58,7.24,23.15,14.27,41.15,33.06,53.99,56.37,12.84,23.31,19.26,51.14,19.26,83.48,0,40.6-10.63,79.52-31.87,116.78-21.25,37.27-51.85,65.97-91.81,86.1s-92.45,30.21-157.45,30.21-113.45-7.45-150.08-22.36c-36.63-14.9-66.76-36.7-90.38-65.41-17.53-21.29-32.05-46.64-43.56-76.06-6.35-16.25,4.13-34.16,21.42-36.45l137.16-18.2c13.31-1.77,25.84,6.59,29.4,19.53,7.41,26.98,17.47,46.44,30.16,58.37,16.01,15.07,36.39,22.6,61.13,22.6,26,0,47.64-9.51,64.93-28.54,17.28-19.03,25.93-44.4,25.93-76.11s-8.32-57.39-24.97-75.16c-16.65-17.76-39.25-26.64-67.79-26.64-7.93,0-17.42,1.03-28.46,3.1-17.28,3.24-32.96-10.75-31.69-28.29l5.38-74.56c1.02-14.12,12.84-24.92,27-24.89.06,0,.12,0,.18,0,25.37,0,46.54-8.09,63.5-24.26,16.96-16.17,25.45-35.36,25.45-57.56s-6.35-38.21-19.03-50.9c-12.69-12.68-30.13-19.03-52.33-19.03s-41.39,6.9-55.66,20.69c-10.65,10.29-18.74,26.38-24.27,48.24-3.43,13.59-16.89,22.13-30.69,19.66Z"/>
    <polygon class="cls-5" points="779.11 900.98 828.44 923.66 776.23 938.55 753.55 987.88 738.66 935.67 689.33 912.99 741.54 898.1 764.22 848.77 779.11 900.98"/>
    <polygon class="cls-5" points="371.61 223.97 401.46 237.7 369.87 246.71 356.14 276.55 347.13 244.96 317.29 231.24 348.88 222.23 362.6 192.38 371.61 223.97"/>
  </g>
</svg>