<?xml version="1.0" encoding="UTF-8"?>
<svg id="Layer_6" data-name="Layer 6" xmlns="http://www.w3.org/2000/svg" xmlns:xlink="http://www.w3.org/1999/xlink" viewBox="0 0 1163.45 1166.32">
  <defs>
    <style>
      .cls-1 {
        fill: none;
      }

      .cls-2 {
        fill: #ad1f2d;
      }

      .cls-3 {
        fill: #b9dfee;
      }

      .cls-4 {
        fill: #622515;
      }

      .cls-5 {
        fill: #13110f;
      }

      .cls-6 {
        fill: #010101;
      }

      .cls-7 {
        fill: #d48628;
      }

      .cls-8 {
        fill: #0b0d0e;
      }

      .cls-9 {
        fill: #ababab;
      }

      .cls-10 {
        fill: #f0ecf6;
      }

      .cls-11 {
        fill: #8f3a23;
      }

      .cls-12 {
        fill: #fff;
      }

      .cls-13 {
        fill: #b06c4f;
      }

      .cls-14 {
        fill: #853324;
      }

      .cls-15 {
        fill: #18100e;
      }

      .cls-16 {
        fill: #6c3925;
      }

      .cls-17 {
        fill: #684134;
      }

      .cls-18 {
        fill: #242f34;
      }

      .cls-19 {
        clip-path: url(#clippath);
      }

      .cls-20 {
        fill: #4f2e25;
      }
    </style>
    <clipPath id="clippath">
      <circle class="cls-1" cx="582.71" cy="585.65" r="581.59"/>
    </clipPath>
  </defs>
  <g class="cls-19">
    <circle class="cls-3" cx="581.59" cy="583.21" r="581.59"/>
    <circle class="cls-1" cx="581.61" cy="583.16" r="581.59"/>
    <circle class="cls-1" cx="580.8" cy="585.65" r="581.59"/>
    <path class="cls-18" d="M460.76,1029.51c-.29,2.58-.57,5.16-.86,7.74l-2.34,21.07c-1.15,10.38-2.3,20.77-3.45,31.15-1.4,12.67-2.81,25.34-4.21,38.01-1.53,13.83-3.07,27.66-4.6,41.48s-3.11,28.01-4.66,42.02l-4.34,39.18c-1.22,11-2.44,22-3.66,33-.88,7.96-1.77,15.92-2.65,23.89-.42,3.74-.84,7.49-1.25,11.23-.02.16-.04.32-.05.49-.18,1.62,5.14.59,5.3-.85.29-2.58.57-5.16.86-7.74.78-7.02,1.56-14.04,2.34-21.07,1.15-10.38,2.3-20.77,3.45-31.15,1.4-12.67,2.81-25.34,4.21-38.01,1.53-13.83,3.07-27.66,4.6-41.48s3.11-28.01,4.66-42.02l4.34-39.18c1.22-11,2.44-22,3.66-33,.88-7.96,1.77-15.92,2.65-23.89.42-3.74.84-7.49,1.25-11.23.02-.16.04-.32.05-.49.18-1.62-5.14-.59-5.3.85h0Z"/>
    <path class="cls-7" d="M820.39,1545.48c-2.38-11.83-7.36-20.11-11.91-31.39-3.85-9.55-5.23-20.9-6.3-29.51-6.39-51.23-9.03-47.14-5.23-71.99,2.69-17.54,26.28-17.08,36.25-86.14,4.45-30.81-17.71-278.73-17.71-278.73l-105.78-37.24-27.26-8.97-1.96-1.01s-.39,2.45,0,4.02l.34,2.13c-13.32,20.72-38.03,35.94-67.07,38.01-10.05.72-19.91.77-29.27.27-31.97-1.73-56.07-15.31-74.63-38.27l1.96-.57-41.57,4.39-59.05,19.6c-11.44,3.8-22.61,8.4-33.41,13.76l-33.09,16.42,19.55,171.33c2.59,41.33-20.21,81.49-.64,119.14l16.97,31.7-6.39,99.84s-8.41,38.16-28.42,92.37h479.38c-2.05-8.73-3-20.37-4.77-29.14Z"/>
    <path class="cls-13" d="M662.91,990.34c-1.48-4.7-.17-54.68-.17-54.68l-73.94,11.37-73.94-11.37s1.47,55.2,0,59.9c-1.47,4.7-39.05,13.89-39.05,13.89,0,0,16.96,49.67,112.99,49.67s112.21-51.7,112.21-51.7c0,0-36.62-12.38-38.1-17.07Z"/>
    <path class="cls-20" d="M511.52,956.23c1.2.87,2.66,10.06,3.93,10.93,31.13,21.34,43.09,29.18,69.97,30.23,26.89-1.06,44.75-6.64,73.67-32.71,9.74-8.78,1.29-9.71,3.43-11.34-48.32-.12-102.61,2.56-151,2.89Z"/>
    <path class="cls-13" d="M464.9,801.94s-13.71-21.04-21.48-20.2c-4.73.51,6.21,11.16,7.56,23.21,1.81,16.12-10.12,18.2-6.36,27.32,3.75,9.13,8.62,40.96,21.15,39.6,4.96-.54,10.05-11.54,10.05-11.54,0,0-6.83-44.02-10.91-58.39Z"/>
    <path class="cls-13" d="M704.01,803.11s11.52-22.32,19.34-22.26c4.76.03-5.05,11.73-5.18,23.85-.17,16.22,11.9,17.08,9.09,26.54-2.81,9.46-4.44,41.62-17.05,41.53-4.99-.03-11.16-10.47-11.16-10.47,0,0,2.36-44.48,4.96-59.19Z"/>
    <path class="cls-13" d="M716.15,821.24s-.02.06-.02.08c-2.79,14.66-6.22,30.1-8.58,47.81-6.26,46.72-14.99,71.17-48.12,93.26-31.96,21.31-40.04,27.78-67.64,28.85-27.6-1.07-39.79-5.82-73.5-24.1-29.77-16.14-43.09-51.3-49.33-98.02-1.39-10.42-3.15-20.04-4.93-29.18-1.31-6.79-2.65-13.32-3.86-19.7-.02-.11-.04-.19-.06-.27-.02-.06-.02-.08-.02-.08-4.4-23.44-7.07-45.08-1.03-71.21,6.22-27.04,27.71-60.58,60.4-81.76h.02s.04-.02.04-.02c19.28-12.48,42.47-20.65,68.72-20.65,70.86,0,119.31,59.43,129.2,102.43,6.14,26.64,3.25,48.61-1.29,72.56Z"/>
    <path class="cls-6" d="M597.38,878.02c-3.75,2.38-9.39,1.99-13.06-.64-.82-.58-3.58.07-2.44.89,4.85,3.47,12.95,3.6,17.79.52.48-.31.41-.74-.18-.95-.61-.23-1.59-.15-2.1.17"/>
    <path class="cls-6" d="M580.02,877.03c-2.96-1.39-6.29-2.13-9.6-2.38-.49-.03-1.11.15-1.47.46-.28.25-.34.58.03.79,1.53.87,3.48,1.24,5.27,1.2.56,0,1.31-.15,1.63-.63.29-.44-.25-.73-.69-.73-1.48.03-2.99-.26-4.25-.98-.49.42-.96.83-1.45,1.25,2.96.23,5.93.91,8.58,2.16.53.25,1.29.09,1.76-.19.35-.21.73-.69.2-.95"/>
    <path class="cls-6" d="M566.99,877.44c-3.27-.1-7.12-1.78-8.73-4.68-2.43-4.38-.17-9.59,3.92-12.39.44-.3.21-.7-.24-.81-.59-.15-1.28.11-1.75.43-3.56,2.44-5.87,6.41-5.33,10.52.5,3.84,3.63,6.53,7.55,7.64,1.17.33,2.41.55,3.63.59.5.01,1.39-.16,1.63-.62.25-.46-.21-.67-.67-.68"/>
    <path class="cls-6" d="M601.27,877.03c2.96-1.39,6.29-2.13,9.6-2.38.49-.03,1.11.15,1.47.46.28.25.34.58-.03.79-1.53.87-3.48,1.24-5.27,1.2-.56,0-1.31-.15-1.63-.63-.29-.44.25-.73.69-.73,1.48.03,2.99-.26,4.25-.98.49.42.96.83,1.45,1.25-2.96.23-5.93.91-8.58,2.16-.53.25-1.29.09-1.76-.19-.35-.21-.73-.69-.2-.95"/>
    <path class="cls-6" d="M614.3,877.44c3.27-.1,7.12-1.78,8.73-4.68,2.43-4.38.17-9.59-3.92-12.39-.44-.3-.21-.7.24-.81.59-.15,1.28.11,1.75.43,3.56,2.44,5.87,6.41,5.33,10.52-.5,3.84-3.63,6.53-7.55,7.64-1.17.33-2.41.55-3.63.59-.5.01-1.39-.16-1.63-.62-.25-.46.21-.67.67-.68"/>
    <path class="cls-9" d="M622.19,779.08c.02,3.12.05,6.25.07,9.39.02,2.39.05,4.77.08,7.15,7.73-2.05,14.34-3.39,19.34-4.27,10.56-1.87,15.96-2.78,22.11-1.75,6.45,1.08,11.93,3.54,14.06,4.51,2.99,1.37,5.01,2.23,7.41,4.01,5.22,3.86,7.36,8.22,8.21,7.83.77-.35-.52-4.19-.65-4.58-3.29-9.66-10.59-15.35-11.14-15.81,0,0-5.49-4.41-14.3-6.69-6.07-1.57-22.89-2.65-45.2.21"/>
    <path class="cls-5" d="M560.2,810.69s-17.49,12.72-26.44,13.54c-13.05,1.2-29.14-5.48-33.76-11.47,0,0,21.28,9.99,30.45,8.9s29.74-10.98,29.74-10.98Z"/>
    <path class="cls-9" d="M557.02,779.41c-.02,3.12-.05,6.25-.07,9.39-.02,2.39-.05,4.77-.08,7.15-7.73-2.05-14.34-3.39-19.34-4.27-10.56-1.87-15.96-2.78-22.11-1.75-6.45,1.08-11.93,3.54-14.06,4.51-2.99,1.37-5.01,2.23-7.41,4.01-5.22,3.86-7.36,8.22-8.21,7.83-.77-.35.52-4.19.65-4.58,3.29-9.66,10.59-15.35,11.14-15.81,0,0,5.49-4.41,14.3-6.69,6.07-1.57,22.89-2.65,45.2.21"/>
    <path class="cls-5" d="M620.3,810.42s17.49,12.72,26.44,13.54c13.05,1.2,29.14-5.48,33.76-11.47,0,0-21.28,9.99-30.45,8.9s-29.74-10.98-29.74-10.98Z"/>
    <path class="cls-14" d="M438.7,695.97s58.36-28.47,133.04-19.01c74.67,9.46,122.29,37.46,134.91,71.11,12.62,33.65,9.4,95.31,9.4,95.31,0,0,11.03.72,24.37-67.64,19.44-99.65-89.56-187.58-113.75-187.58s-153.26-3.65-187.96,107.82Z"/>
    <path class="cls-14" d="M452.09,674.45s-12.52-78.56,41.63-93.28c54.15-14.72,168.12-41.1,201.43,30.64l-243.06,62.64Z"/>
    <path class="cls-4" d="M449.29,828.24c-5.64-5.68-9.73-12.7-11.92-20.4-6.03-21.22-16.55-65.06-6.88-84.5,4.21-8.47,5.9-33.73,6.3-41.16,2.1-38.91-7.14-27.01,47.55-71.18,54.69-44.17,64.14-32,146.18-26.74,82.04,5.26,105.54,31.84,99.21,108.7,0,0-135.18-31.3-187.24-3.16-52.06,28.15-97.94,71.7-79.62,156.03.22,1.01-7.34-11.3-13.58-17.59Z"/>
    <path class="cls-14" d="M730.54,657.4s-97.98-35.08-134.97-38.11c-36.99-3.03,116.9,2.84,131.66,19.62l3.31,18.49Z"/>
    <path class="cls-14" d="M433.91,707.38s92.82-47.07,129.14-54.7c36.32-7.63-115.62,17.44-128.17,35.94l-.97,18.76Z"/>
    <path class="cls-9" d="M471.56,752.14s92.25-20.28,109.29-45.93c-1.84,2.76,14.49,14.22,16.03,15.1,16.65,9.46,36.6,7.16,53.87.62,6.57-2.49,9.85-7.7,14.2-12.92,0,0,15.55,34.36,41.7,39.06,0,0-30.69-66.61-111.92-67.78,0,0-60.06-14.88-123.17,71.85Z"/>
    <path class="cls-17" d="M644.23,746.56s-31.28,6.4-56.91,8.93c-25.63,2.53-51.85-8.29-51.85-8.29,0,0,27.1,7.04,44.81,7.06,17.71.01,63.95-7.7,63.95-7.7Z"/>
    <path class="cls-8" d="M469.77,808.76l4.81,11.31c2.85,10.12,11.25,30.11,14.99,35.54,5.26,7.59,61.41,9.41,72.3,2.99,10.88-6.42,16.38-37.45,19.16-44.68l22.47.76c2.19,9.23,9.83,38.43,14.17,42.31,4.34,3.88,30.06,2.65,32.96,2.51,2.41-.15,5.77-.34,9.43-.7,9.71-.88,21.48-2.7,25.03-6.24,5.29-5.25,10.77-25.03,15.45-43.72l.77-2.93c.16-.7.38-1.2.39-1.41h0l.84-3.37c-32.62-14.2-74.97-10.89-100.32,7.86l.21.33-21.92-.84c-25.04-15.34-73.54-23.71-103.86-11.67h0l-18.6,14.02-.11,8.11,11.83-10.19ZM620.24,853.94c-2.71-2.42-8.71-22.86-12.83-38.79,22.05-15.86,60.22-18.78,89.34-7.68v.41c-2.52,10.02-9.2,36.69-14.39,41.85-6.15,6.09-57.38,8-62.12,4.29v-.09ZM496.17,853.28c-7.94-14.8-14.47-30.26-19.53-46.19,26.95-12.47,74.46-6.76,98.93,7.78-3.59,13.01-7.99,35.7-15.8,40.28-11.22,6.62-60.31,2.94-63.6-1.86h0Z"/>
    <polygon class="cls-8" points="701.53 801.13 717.15 814.49 716.13 821.33 699.22 807.96 701.53 801.13"/>
    <path class="cls-16" d="M590.64,900.62c-19.26,0-43.56,6.92-43.56,6.92,0,0-1.08,40.67,43.57,40.67s45.21-42.47,45.21-42.47c0,0-25.97-5.13-45.22-5.13Z"/>
    <path class="cls-15" d="M590.82,900.62c-9.16,0-38.48,4.35-38.48,4.35,0,0,4.56,27.14,37.68,27.14,35.91,0,40.2-27.16,40.2-27.16l-39.4-4.33Z"/>
    <path class="cls-10" d="M591.23,902.01c-9.16,0-37.02,2.22-37.02,2.22,0,0,10.03,6.39,37.5,6.39s36.19-4.58,36.19-4.58l-36.67-4.03Z"/>
    <path class="cls-16" d="M621.34,895.26c-1.22-.49-2.46-.85-3.94-1.07-2.39-.36-4.94-.69-7.36-.69-9.38-.73-15.33,3.02-19.4,3.02s-10.03-3.76-19.41-3.02c-4.76.37-9.29,2.32-13.44,4.56-2.07,1.12-3.47,2.66-5.44,3.95-.66.43-5.3,5.56-6.06,5.28,7.92,7.19,19.14-1.41,44.36-1.41,8.06,0,14.41-.07,23.75,2.04,3.96.9,15.22,1.95,19.21,1.11.5-.1,1.09-2.14,1.58-2.06-.36.13-.58.15-.35-.3.52-1,1.16-.59.18-1.71-.74-.84-1.43-1.74-2.19-2.56-2.39-2.59-5.6-4.25-8.73-5.86-.97-.5-1.86-.93-2.76-1.29Z"/>
    <g>
      <path class="cls-13" d="M244.88,1475.21c-22.05,4.48-43.9-9.09-60.66-24.11-20.28-18.16-1.97-50.55,5.04-74.96,16.84-58.57,72.04-148.43,91.96-188.69,19.92-40.26,31.24-119.81,86.46-143.74,52.36-22.69,105.62-33.52,105.62-33.52,0,0-8.18,133.34-67.51,212.49l-19.76,23.05-36.22,95.52,151.48,10.16,19.84,61.4-276.27,62.4Z"/>
      <path class="cls-13" d="M738.74,1021.76l56.39,17.89s30.77,8.89,54.45,34.94c23.68,26.05,55.37,71.96,79.16,99,17.68,20.1,95.8,70.44,101.54,97.98,5.74,27.54,1.8,104.5-36.23,108.22,0,0-199.87-199.24-202.12-198.44-2.25.79-21.77,19.43-21.77,19.43,0,0-22-54.38-32.05-83.41-10.05-29.03.65-95.61.65-95.61Z"/>
      <path class="cls-7" d="M321.93,1279.15c16.84,4.53,33.91,7.6,51.08,10l21.13-45.71,13.82,3.42c59.33-79.15,67.84-237.43,67.84-237.43,0,0-56.3,10.83-108.66,33.52-55.22,23.92-83.8,103.86-103.72,144.12-5.97,12.06-16.04,30.24-27.66,51.35,27.52,15.78,55.38,32.44,86.17,40.72Z"/>
      <path class="cls-7" d="M888.75,1234.97c19.52-15.02,48.87-49.13,61.63-69.67-3.21-2.85-5.87-5.42-7.8-7.62-23.79-27.04-69.87-57.8-93.55-83.85-23.68-26.05-54.45-34.94-54.45-34.94l-56.39-17.89s-10.69,66.58-.65,95.61c10.05,29.03,32.05,83.41,32.05,83.41,0,0,19.52,26.82,21.77,26.02.91-.32,33.84-13.68,72.86,24.79,8.55-4.68,16.8-9.91,24.52-15.85Z"/>
    </g>
    <path class="cls-11" d="M934.54,1151.05c4.07,4.15,8.14,8.29,12.22,12.44.64.66,1.32,1.62,2.09,2.13.3.2,0,.17.1-.04-.04.08-.12.21-.19.27-.38.36-.67.97-.97,1.39-.56.8-1.13,1.61-1.7,2.41-8.75,12.36-17.76,24.62-27.62,36.12-2.66,3.1-5.39,6.15-8.32,9-1.89,1.84-4.21,4.02-6.37,5.11l2.02-.37c-7.44-1.41-14.87-2.82-22.31-4.23-1.06-.2-2.13-.4-3.19-.61l.12.44c6.56-6.64,12.96-13.45,19.24-20.37,10.53-11.61,20.22-23.92,30.35-35.88,2.39-2.82,4.78-5.64,7.21-8.43.41-.47-.37-.48-.68-.46-.56.03-1.54.23-1.94.69-6.87,7.88-13.56,15.92-20.19,24.01-9.36,11.42-19.13,22.43-29.32,33.13-2.41,2.53-4.83,5.05-7.29,7.54-.19.19-.18.39.12.44,6.11,1.16,12.22,2.32,18.33,3.48,2.35.45,4.73,1.06,7.11,1.35,2.59.31,5.48-2.51,7.26-4.09,6.07-5.37,11.27-11.79,16.34-18.09,5.62-6.97,11-14.13,16.27-21.36,1.91-2.62,3.79-5.25,5.66-7.89.61-.86,1.22-1.72,1.82-2.59.29-.42.78-.91.97-1.38.02-.06.08-.12.12-.18.05-.1.03-.17-.06-.23-4.83-4.91-9.65-9.83-14.48-14.74-.51-.52-3.17.54-2.73.98Z"/>
    <path class="cls-11" d="M474.36,1009.83c.72,1.86,1.75,3.64,2.79,5.34,2.71,4.47,6.02,8.58,9.67,12.33,5.6,5.75,12.03,10.67,18.94,14.75,9.51,5.62,19.91,9.68,30.59,12.47,14.42,3.78,29.37,5.34,44.25,5.45,16.41.13,32.91-1.24,48.95-4.75,11.92-2.61,23.65-6.48,34.54-12.03,7.93-4.04,15.4-8.97,22.04-14.91,4.47-4,8.52-8.46,11.94-13.39,1.52-2.2,3.28-4.65,4.19-7.2.04-.12.1-.23.14-.34l-2.23.79c6.65,2.34,13.29,4.67,19.94,7.01l-.61-.79c-.04.15-.07.31-.13.45-.07.17-.11.37-.17.55-.03.11-.07.22-.11.33,0,0,.04-.11-.07.2-.58,1.62-1.25,3.21-1.98,4.77-2.66,5.6-6.1,10.73-10.06,15.43-6.15,7.31-13.51,13.5-21.55,18.64-11.32,7.24-23.93,12.32-36.87,15.84-18.33,5-37.4,6.95-56.36,7.2-20.69.28-41.67-1.16-61.9-5.66-13.81-3.07-27.45-7.64-39.69-14.81-8.24-4.82-15.83-10.85-21.87-18.28-4-4.92-7.27-10.36-9.46-16.3-1.08-2.94-1.63-5.86-2.25-8.91-.03-.13-.03-.28-.04-.41l-1.2,1.3c6.75-1.52,13.51-3.03,20.26-4.55.53-.12,1.38-.64,1.2-1.3s-1.18-.64-1.69-.53c-6.75,1.52-13.51,3.03-20.26,4.55-.63.14-1.24.62-1.2,1.3.12,2.16.7,4.34,1.31,6.4,1.64,5.53,4.3,10.76,7.55,15.51,5.07,7.39,11.7,13.63,19.03,18.74,10.8,7.53,23.16,12.7,35.76,16.36,18.8,5.45,38.46,7.7,57.97,8.38,20.74.72,41.65-.31,62.02-4.48,14.52-2.98,28.83-7.62,41.9-14.67,9.39-5.06,18.15-11.35,25.6-19.02,5.01-5.15,9.44-10.94,12.89-17.26,1.64-2.99,3.32-6.26,4.16-9.6.04-.15.09-.29.12-.44.1-.4-.3-.68-.61-.79-6.65-2.34-13.29-4.67-19.94-7.01-.65-.23-1.94.07-2.23.79-.68,1.72-1.64,3.35-2.61,4.92-2.62,4.25-5.78,8.11-9.37,11.77-5.52,5.62-11.85,10.39-18.6,14.42-9.47,5.65-19.81,9.79-30.4,12.78-14.59,4.13-29.73,6.12-44.86,6.78-15.71.68-31.6-.03-47.06-3.09-11.39-2.26-22.6-5.79-32.96-11.06-7.57-3.85-14.73-8.6-20.99-14.34-4.27-3.92-8.16-8.28-11.4-13.09-1.01-1.5-1.96-3.04-2.82-4.62-.39-.73-.39-.71-.72-1.4-.15-.32-.3-.64-.45-.97-.05-.11-.1-.22-.14-.34-.47-1.22-3.35-.39-2.9.78Z"/>
    <path class="cls-11" d="M359.38,1159.5c6.2,13.18,7.89,27.74,7.02,42.16s-4.18,29.65-7.47,44.22c-1.86,8.23-3.76,16.46-5.32,24.76-.23,1.24,2.7.79,2.91-.31,2.8-14.93,6.7-29.62,9.53-44.54,2.72-14.33,4.55-29.07,2.82-43.64-.96-8.11-3.11-16.03-6.6-23.43-.52-1.1-3.36-.22-2.9.78h0Z"/>
    <path class="cls-12" d="M386.89,556.94c3.83-9.83,15.18-14.7,25.1-10.77,9.87,3.91,14.89,15.32,11.01,25.06-3.8,9.56-15.19,14.42-24.97,10.66-9.97-3.83-14.99-15.07-11.14-24.95Z"/>
    <path class="cls-12" d="M417.79,613.43c-5.23-2.03-7.69-7.83-5.58-13.12,2.07-5.18,7.58-7.55,12.96-5.56,4.99,1.84,7.69,7.93,5.75,12.95-2.02,5.19-7.91,7.77-13.12,5.74Z"/>
    <path class="cls-12" d="M800.26,472.93c-14.3.11-28.2-2.36-41.85-6.32-4.13-1.2-6.45-.45-8.28,3.65-9.25,20.79-24.22,36.63-43.26,48.73-17.67,11.22-36.97,17.91-57.75,20.5-14.92,1.85-29.8,1.63-44.57-.86-27.4-4.62-51.54-16.15-71.85-35.26-2.88-2.71-4.96-2.61-7.98-.3-20.47,15.68-43.65,24.52-69.22,27.81-24.09,3.1-47.55.54-70.14-7.75-30.96-11.36-55.5-30.62-69.75-61.21-7.89-16.93-9.99-34.72-6.8-53.11.91-5.27.23-6.57-5.31-7.4-16.65-2.49-32.29-7.95-46.8-16.37-28.83-16.73-49.37-40.08-55.39-73.72-4.24-23.67.55-45.92,13.71-66.31,14.97-23.2,36.29-38.3,61.6-47.91,9.56-3.63,19.86-5.36,29.9-7.61,3.71-.83,4.8-2.38,4.3-6.11-3.74-27.94,5.27-51.95,23.02-73.14,11.94-14.25,26.73-24.94,43.61-32.36,26.75-11.76,54.66-15.96,83.83-11.48,18.01,2.77,34.86,8.45,50.65,17.35,3.21,1.81,5.12,1.07,7.11-1.54,8.66-11.34,19.04-20.87,31.1-28.44,20.85-13.08,43.56-20.23,68.24-21.68,22.47-1.32,44.16,1.53,64.99,10,30.99,12.6,54.73,32.96,67.67,64.53,1.39,3.4,2.58,6.93,3.36,10.5.73,3.32,2.43,4.21,5.62,4.03,8.98-.51,18-1.35,26.96-1.02,35.83,1.34,67.48,13.57,93.04,38.98,20.69,20.56,31.35,45.8,29.52,75.4-1.04,16.86-7.45,31.97-16.71,45.96-3.6,5.44-3.62,5.7,1.14,9.86,12.97,11.36,22.8,24.93,28.96,41.02,7.07,18.45,8.19,37.36,3.01,56.44-8.8,32.38-30.24,54.15-59.26,69.27-20.8,10.83-43.15,15.43-66.45,15.86Z"/>
    <path class="cls-2" d="M757.27,239.45c-9.04-53.94-66.16-93.59-119.88-80.27-23.87,5.92-45.04,21.98-57.19,43.36,3.97-6.99-34.78-34.34-40.13-37.01-75.61-37.75-159.99,49.48-128.13,124.61,21.92,51.69,81.68,80.51,124.51,112.58,14.45,10.82,30.73,20.92,40.33,36.69,2.7,4.23,4.78,4.06,7.88.13,38.13-48.28,100.05-68.49,141.74-112.93,21.86-23.3,36.28-54.82,30.86-87.17ZM479.54,360.53c.09,0,.16.03.24.03-.09,0-.16-.03-.24-.03ZM691.07,355.05c.17-.51.4-.96.66-1.35-.26.4-.48.84-.66,1.35Z"/>
    <path class="cls-12" d="M477.63,181.7c-19.22,10.82-34.57,32.52-40.13,53.56-1.49,5.66,7.25,8.06,8.74,2.41,4.97-18.84,18.72-38.44,35.96-48.14,5.09-2.87.52-10.7-4.58-7.83h0Z"/>
    <path class="cls-12" d="M433.02,256.2c-.85,1.87-1.34,3.63-1.4,5.7-.08,2.47,2.12,4.53,4.53,4.53s4.46-2.06,4.53-4.53c.04-1.3-.24.89.03-.5.01-.06.49-1.4.13-.62,1.02-2.25.66-4.86-1.63-6.2-1.97-1.15-5.18-.62-6.2,1.63h0Z"/>
  </g>
</svg>