<?xml version="1.0" encoding="UTF-8"?>
<svg xmlns="http://www.w3.org/2000/svg" xmlns:xlink="http://www.w3.org/1999/xlink" viewBox="0 0 1163.45 1166.32">
  <defs>
    <style>
      .cls-1, .cls-2 {
        fill: none;
      }

      .cls-2 {
        stroke: #b9dfee;
        stroke-miterlimit: 10;
      }

      .cls-3 {
        fill: #008a93;
      }

      .cls-4 {
        fill: #fff;
      }

      .cls-5 {
        fill: #8e2d1c;
      }

      .cls-6 {
        fill: #df8c27;
      }

      .cls-7 {
        fill: #b15f28;
      }

      .cls-8 {
        fill: #ee9d6c;
      }

      .cls-9 {
        fill: #e9cc1c;
      }

      .cls-10 {
        fill: #d74626;
      }

      .cls-11 {
        fill: #f9e89f;
      }

      .cls-12 {
        fill: #24b7c6;
      }

      .cls-13 {
        clip-path: url(#clippath);
      }
    </style>
    <clipPath id="clippath">
      <circle class="cls-1" cx="581.72" cy="583.16" r="581.59"/>
    </clipPath>
  </defs>
  <g id="Layer_1" data-name="Layer 1">
    <g class="cls-13">
      <rect class="cls-6" x="406.49" y="-191.27" width="201.84" height="1374.13" transform="translate(385.17 -203.02) rotate(35.74)"/>
      <rect class="cls-9" x="334.08" y="-279.69" width="100.92" height="1374.13" transform="translate(310.38 -147.9) rotate(35.74)"/>
      <rect class="cls-11" x="88.48" y="-391.42" width="281.62" height="1374.13" transform="translate(215.88 -78.26) rotate(35.74)"/>
      <rect class="cls-7" x="578.35" y="-103.9" width="100.92" height="1374.13" transform="translate(459.06 -257.47) rotate(35.74)"/>
      <rect class="cls-8" x="643.29" y="7.67" width="281.12" height="1374.13" transform="translate(553.44 -327.02) rotate(35.74)"/>
      <rect class="cls-10" x="892.12" y="107.83" width="61.81" height="1374.13" transform="translate(638.15 -389.45) rotate(35.74)"/>
      <rect class="cls-5" x="930.31" y="173.16" width="166.99" height="1374.13" transform="translate(693.41 -430.18) rotate(35.74)"/>
      <circle class="cls-2" cx="581.71" cy="583.16" r="581.59"/>
    </g>
  </g>
  <g id="Layer_2" data-name="Layer 2">
    <path class="cls-3" d="M725.18,198.57v758.09h-189.17v-406.44c0-58.68-1.41-93.96-4.21-105.82-2.81-11.86-10.54-20.84-23.18-26.92-12.64-6.09-40.82-9.13-84.52-9.13h-18.73v-88.38c91.46-19.68,160.91-60.15,208.37-121.39h111.44Z"/>
    <path class="cls-12" d="M690.12,155.72v758.09h-189.17v-406.44c0-58.68-1.41-93.96-4.21-105.82-2.81-11.86-10.54-20.84-23.18-26.92-12.64-6.09-40.82-9.13-84.52-9.13h-18.73v-88.38c91.46-19.68,160.91-60.15,208.37-121.39h111.44Z"/>
    <polygon class="cls-4" points="754.91 933.98 804.23 956.66 752.03 971.55 729.35 1020.87 714.46 968.66 665.13 945.98 717.34 931.09 740.02 881.77 754.91 933.98"/>
    <polygon class="cls-4" points="532.44 188.08 562.29 201.8 530.7 210.81 516.98 240.66 507.97 209.07 478.12 195.34 509.71 186.33 523.43 156.48 532.44 188.08"/>
  </g>
</svg>