<?xml version="1.0" encoding="UTF-8"?>
<svg id="Layer_4" data-name="Layer 4" xmlns="http://www.w3.org/2000/svg" xmlns:xlink="http://www.w3.org/1999/xlink" viewBox="0 0 1163.45 1166.32">
  <defs>
    <style>
      .cls-1 {
        fill: none;
      }

      .cls-2 {
        fill: #b9dfee;
      }

      .cls-3 {
        fill: #231e1f;
      }

      .cls-4 {
        stroke: #010101;
        stroke-width: .17px;
      }

      .cls-4, .cls-5 {
        fill: #010101;
      }

      .cls-4, .cls-6 {
        stroke-miterlimit: 10;
      }

      .cls-7 {
        fill: #533f88;
      }

      .cls-8 {
        fill: #e98624;
      }

      .cls-9 {
        fill: #653d2c;
      }

      .cls-10 {
        fill: #133a43;
      }

      .cls-11 {
        fill: #f1edf6;
      }

      .cls-12 {
        fill: #26170f;
      }

      .cls-13 {
        clip-path: url(#clippath-1);
      }

      .cls-14 {
        clip-path: url(#clippath-2);
      }

      .cls-15 {
        fill: #fff;
      }

      .cls-16 {
        fill: #802d20;
      }

      .cls-17 {
        fill: #df8c27;
      }

      .cls-18 {
        fill: #b06c4f;
      }

      .cls-19 {
        fill: #542d24;
      }

      .cls-20 {
        fill: #b15f28;
      }

      .cls-21 {
        fill: #0f1516;
      }

      .cls-22 {
        fill: #c98f2b;
      }

      .cls-23 {
        fill: #f1ecf6;
      }

      .cls-24 {
        fill: #4f2f26;
      }

      .cls-25 {
        fill: #b73026;
      }

      .cls-6 {
        fill: #161412;
        stroke: #171413;
        stroke-width: .28px;
      }

      .cls-26 {
        fill: #876bad;
      }

      .cls-27 {
        fill: #6e1810;
      }

      .cls-28 {
        fill: #6c3925;
      }

      .cls-29 {
        fill: #382561;
      }

      .cls-30 {
        fill: #d68828;
      }

      .cls-31 {
        clip-path: url(#clippath);
      }

      .cls-32 {
        fill: #4f2e25;
      }

      .cls-33 {
        fill: #bc5a27;
      }
    </style>
    <clipPath id="clippath">
      <circle class="cls-1" cx="580.8" cy="585.65" r="581.59"/>
    </clipPath>
    <clipPath id="clippath-1">
      <path class="cls-1" d="M872.69,591.77c-17.76.14-35.04-2.93-51.99-7.85-5.13-1.49-8.01-.56-10.28,4.54-11.49,25.82-30.08,45.51-53.75,60.53-21.95,13.94-45.93,22.25-71.74,25.46-18.53,2.3-37.02,2.02-55.37-1.07-34.05-5.74-64.03-20.06-89.26-43.81-3.57-3.36-6.16-3.24-9.91-.37-25.44,19.48-54.23,30.46-85.99,34.55-29.93,3.85-59.07.67-87.14-9.62-38.47-14.11-68.95-38.04-86.66-76.04-9.8-21.03-12.41-43.13-8.45-65.99,1.13-6.55.28-8.16-6.59-9.19-20.69-3.09-40.11-9.88-58.14-20.34-35.81-20.78-61.33-49.79-68.81-91.59-5.26-29.41.69-57.04,17.04-82.38,18.6-28.83,45.09-47.58,76.53-59.52,11.87-4.51,24.68-6.65,37.15-9.45,4.61-1.03,5.96-2.96,5.34-7.59-4.64-34.71,6.55-64.54,28.6-90.86,14.84-17.7,33.21-30.98,54.18-40.2,33.24-14.61,67.9-19.83,104.15-14.26,22.37,3.44,43.3,10.5,62.92,21.55,3.98,2.24,6.36,1.33,8.83-1.91,10.75-14.09,23.65-25.93,38.64-35.33,25.91-16.25,54.11-25.14,84.78-26.94,27.92-1.64,54.86,1.9,80.74,12.43,38.5,15.66,68,40.94,84.08,80.17,1.73,4.22,3.21,8.61,4.18,13.05.9,4.13,3.01,5.23,6.98,5,11.16-.63,22.36-1.68,33.49-1.27,44.51,1.66,83.83,16.86,115.58,48.42,25.7,25.55,38.94,56.9,36.67,93.68-1.29,20.94-9.26,39.71-20.76,57.09-4.47,6.76-4.5,7.08,1.41,12.25,16.11,14.11,28.32,30.97,35.98,50.97,8.78,22.93,10.18,46.42,3.74,70.11-10.93,40.23-37.57,67.28-73.62,86.05-25.84,13.46-53.6,19.17-82.56,19.71Z"/>
    </clipPath>
    <clipPath id="clippath-2">
      <path class="cls-1" d="M537.82,536.87c-.15.07-.31.14-.46.21.41-9.52.8-19.17,1.17-29.01-.02,0-.03.01-.05.02.27-1.77.47-3.69.45-5.96.81-10.69-.6-35.08.13-46.08-2.68-14.57-4.44-45.52-11.77-69.62-.55-1.8-1.3-3.54-2.26-5.16-.84-1.41-1.8-3.06-1.89-3.12-1.72-1.1-8.99-2.64-13.99-5.06,2.01,4.83,9.56,19.24,7.27,33.44-.96,5.93-1.99,11.13-7.63,12.59-16.94,4.38-39.38,2.19-46.95-15.79-5.18-12.29-12.35-23.19-17.65-35.3-2.49-5.68-2.73-4.96-6.04-10.34-5.75.99-19.99,5.76-26.06,7.23,9.34,3.75,10.71,11.34,12.89,19.42,2.88,10.65,7.08,29.36,2.59,41.43-2.45,6.58-2.98,11.11-7.38,16.64-2.14,2.69-4.85,4.87-7.88,6.47-6.13,3.24-11.78,5.01-18.89,5.07-3.48.03-3.04-.65-4.45,2.14-.18.36-.33.73-.45,1.12-3.84,12.43-5.74,25.43-8.25,38.18-1.35,5.07-3.09,11.63-5.09,19.26-1.87,2.25-6.29,6.81-10.42,20.76-.76,2.58-1.47,5.16-1.91,7.81-5.84,35.8-7.48,72.05-9.19,108.23-1.29,27.34-.59,55.47-4.26,82.63,12.79,7.57,19.16-2.32,36.16,9.28,14.99,10.23,24,5.05,36.61,0,12.61-5.05,23.12-3.37,39.42,1.68,16.29,5.05,26.02-4.25,35.48-4.67,9.46-.42,9.84,2.64,29.57,1.39,16.78-1.06,22.36-4.42,22.36-7.41-3.59-68.94-6.65-130.03-11.19-197.5ZM483.86,547.55c12.76-.14,25.45-1.56,37.93-4.63-12.39,3.59-25.11,4.89-37.93,4.63Z"/>
    </clipPath>
  </defs>
  <g class="cls-31">
    <circle class="cls-2" cx="581.59" cy="583.21" r="581.59"/>
    <circle class="cls-1" cx="581.61" cy="583.16" r="581.59"/>
    <g>
      <path class="cls-25" d="M744.58,1460.84c-.2-.62-10.6-62.96-10.76-63.44-5.26-16.28-3.45-52.4,4.46-67.89,5.46-10.68,2.65-6.95,8.56-17.33,9.27-16.27,10.02-47.75,11.12-64.6,1-15.29,5.62-47.82-3-75.61-16.35-52.7-52.09-104.72-52.09-104.72l-59.46-16.05-115.28,4.61s-104.81,29.05-104.81,29.05c-1.69,8.81-.66,18.94-.87,27.86-.47,19.71-.88,39.42-1.28,59.14-.42,20.59-.82,41.19-1.21,61.78-.36,18.94-3.08,39.62,4.9,57.3.98,2.16,2.06,4.27,3.25,6.32,5.76,9.98,20.8,23.56,21.49,35.06,1.37,22.81-4.52,104.03-11.08,128.51"/>
      <path class="cls-25" d="M321.64,1417.41c-17.03,3.46-31.26.19-46.84-7.5-14.78-7.29-22.86-35.64-17.44-54.49,13.01-45.23,63.64-128.83,79.02-159.92,15.38-31.09,37.45-92.82,80.09-111.29,40.44-17.52,81.56-25.88,81.56-25.88,0,0-4.22,122.22-50.04,183.34l-10.67-2.64-34.65,74.94,107.77-2.65-.63,72.82-188.18,33.27Z"/>
      <path class="cls-25" d="M703.01,1067.26l43.54,13.81s23.76,6.86,42.04,26.98c18.29,20.12,42.75,55.57,61.13,76.45,13.65,15.52,73.97,54.39,78.41,75.66,4.43,21.27,1.39,80.69-27.98,83.57,0,0-154.34-153.85-156.08-153.24-1.74.61-16.81,15-16.81,15,0,0-16.99-41.99-24.75-64.41-7.76-22.42.5-73.83.5-73.83Z"/>
    </g>
    <path class="cls-18" d="M641.19,1045c-1.16-3.7-.14-34.26-.14-34.26l-58.25,8.96-58.25-8.96s1.16,32.49,0,36.19c-1.16,3.7-30.46,12.47-30.46,12.47,0,0,18.86,55.18,94.09,47.24,57.68-6.09,71.58-51.15,71.58-51.15,0,0-17.41-6.79-18.57-10.49Z"/>
    <path class="cls-32" d="M524.69,1013.05c.92.69,7.66,9.6,8.63,10.29,23.92,16.95,27.49,21.57,48.14,22.41,20.66-.84,29.53-3.67,51.75-24.39,7.49-6.98,5.84-9.31,7.49-10.61-37.13-.1-78.84,2.03-116.02,2.3Z"/>
    <path class="cls-18" d="M487.09,896.58s-11.17-17.15-17.51-16.46c-3.85.42,5.06,9.09,6.16,18.91,1.47,13.14-8.25,14.83-5.19,22.27,3.06,7.44,7.02,33.38,17.23,32.27,4.05-.44,8.19-9.41,8.19-9.41,0,0-5.57-35.87-8.89-47.59Z"/>
    <path class="cls-22" d="M483.56,945.45c-4.06.45-7.63,3.38-8.08,7.58-.21,1.97.34,3.96,1.5,5.57.92,1.26,1.98,2.01,3.43,2.54,2.88,1.06,5.97.69,8.51-1.04.26-.18.35-.51.08-.72-.28-.22-.76-.09-1.02.09-2.87,1.95-7.2,1.59-9.43-1.18s-2.21-6.49-.09-9.16c1.23-1.55,3.01-2.46,4.97-2.68.3-.03.76-.21.79-.57s-.38-.48-.66-.45h0Z"/>
    <path class="cls-18" d="M673.16,896.05s9.39-18.19,15.76-18.14c3.88.03-4.11,9.56-4.22,19.44-.14,13.22,9.7,13.92,7.41,21.63-2.29,7.71-3.62,33.92-13.89,33.85-4.07-.03-9.1-8.53-9.1-8.53,0,0,1.92-36.25,4.04-48.24Z"/>
    <path class="cls-18" d="M686.94,906.79s-.02.05-.02.07c-2.27,11.49-5.07,23.58-6.99,37.46-5.1,36.6-16,53.42-40.86,69.58-26.05,16.95-33.87,23.55-56.37,24.39-22.5-.84-30.31-7.44-56.37-24.39-24.85-16.16-35.76-32.98-40.85-69.58-1.14-8.16-2.57-15.7-4.02-22.86-1.07-5.32-2.16-10.43-3.14-15.44-.02-.08-.03-.15-.05-.21-.02-.05-.02-.07-.02-.07-3.59-18.37-5.76-35.32-.84-55.79,5.07-21.18,22.58-47.46,49.22-64.05h.02s.03-.02.03-.02c15.72-9.78,34.61-16.18,56-16.18,57.75,0,97.23,46.56,105.29,80.24,5,20.87,2.65,38.08-1.05,56.84Z"/>
    <path class="cls-5" d="M590.14,954.29c-3.06,1.94-7.65,1.63-10.64-.52-.66-.48-2.92.06-1.99.73,3.95,2.83,10.55,2.94,14.5.43.39-.25.33-.6-.15-.78-.5-.19-1.3-.13-1.72.14"/>
    <path class="cls-5" d="M576,953.48c-2.41-1.14-5.12-1.73-7.83-1.94-.4-.03-.91.12-1.2.38-.23.2-.28.47.02.64,1.24.71,2.83,1.01,4.29.98.46,0,1.07-.12,1.33-.51.24-.36-.2-.6-.56-.59-1.21.02-2.44-.22-3.46-.8-.4.34-.79.68-1.18,1.02,2.41.19,4.83.74,6.99,1.76.43.2,1.05.07,1.43-.16.29-.17.6-.57.16-.77"/>
    <path class="cls-5" d="M565.38,953.81c-2.67-.08-5.8-1.45-7.12-3.81-1.98-3.57-.14-7.82,3.19-10.1.36-.25.17-.57-.2-.66-.48-.12-1.04.09-1.42.35-2.9,1.99-4.78,5.22-4.35,8.58.41,3.13,2.96,5.32,6.15,6.23.95.27,1.96.45,2.96.48.4.01,1.13-.13,1.33-.5.2-.38-.17-.54-.55-.55"/>
    <path class="cls-5" d="M593.31,953.48c2.41-1.14,5.12-1.73,7.83-1.94.4-.03.91.12,1.2.38.23.2.28.47-.02.64-1.24.71-2.83,1.01-4.29.98-.46,0-1.07-.12-1.33-.51-.24-.36.2-.6.56-.59,1.21.02,2.44-.22,3.46-.8.4.34.79.68,1.18,1.02-2.41.19-4.83.74-6.99,1.76-.43.2-1.05.07-1.43-.16-.29-.17-.6-.57-.16-.77"/>
    <path class="cls-5" d="M603.93,953.81c2.67-.08,5.8-1.45,7.12-3.81,1.98-3.57.14-7.82-3.19-10.1-.36-.25-.17-.57.2-.66.48-.12,1.04.09,1.42.35,2.9,1.99,4.78,5.22,4.35,8.58-.41,3.13-2.96,5.32-6.15,6.23-.95.27-1.96.45-2.96.48-.4.01-1.13-.13-1.33-.5-.2-.38.17-.54.55-.55"/>
    <path class="cls-6" d="M609.53,874.58c.15,2.07.3,4.15.46,6.24.12,1.59.24,3.17.37,4.75,5.68-1.73,10.55-2.94,14.24-3.77,7.8-1.75,11.79-2.62,16.42-2.23,4.86.41,9.06,1.78,10.69,2.32,2.29.77,3.83,1.24,5.7,2.31,4.06,2.31,5.84,5.11,6.46,4.81.56-.27-.56-2.76-.68-3.02-2.87-6.26-8.56-9.7-8.99-9.97,0,0-4.28-2.67-10.95-3.76-4.6-.75-17.19-.66-33.71,2.32"/>
    <path class="cls-6" d="M610.14,910s14.26-10.37,21.55-11.04c10.64-.98,23.74,4.47,27.51,9.35,0,0-17.35-8.14-24.82-7.25-7.14.85-24.24,8.95-24.24,8.95Z"/>
    <path class="cls-6" d="M558.65,873.06c-.01,2.08-.03,4.16-.05,6.26-.02,1.59-.04,3.18-.06,4.76-5.78-1.37-10.72-2.26-14.46-2.85-7.9-1.25-11.94-1.85-16.53-1.17-4.82.72-8.92,2.36-10.52,3-2.24.91-3.74,1.48-5.54,2.67-3.9,2.57-5.5,5.48-6.14,5.22-.58-.23.39-2.79.49-3.05,2.46-6.44,7.92-10.23,8.33-10.53,0,0,4.1-2.94,10.69-4.46,4.54-1.05,17.11-1.76,33.79.14"/>
    <path class="cls-6" d="M561.16,910.23s-14.26-10.37-21.55-11.04c-10.64-.98-23.74,4.47-27.51,9.35,0,0,17.35-8.14,24.82-7.25,7.14.85,24.24,8.95,24.24,8.95Z"/>
    <path class="cls-20" d="M460.83,810.22s47.56-23.2,108.42-15.49c60.86,7.71,90.1,46.16,100.39,73.59,10.29,27.42,11.26,55.04,11.26,55.04,0,0,14.94,7.58,25.81-48.13,15.85-81.21-72.99-152.87-92.7-152.87s-124.9-2.97-153.18,87.87Z"/>
    <path class="cls-20" d="M471.74,786.51s-10.2-64.02,33.93-76.02c44.13-12,137.01-33.49,164.16,24.97l-198.08,51.05Z"/>
    <path class="cls-17" d="M469.46,918.01c-4.6-4.63-7.93-10.35-9.71-16.62-4.92-17.29-13.49-53.02-5.61-68.87,3.43-6.9,4.81-27.49,5.14-33.54,1.71-31.71-5.82-22.01,38.75-58.01,44.57-35.99,52.27-26.08,119.13-21.79,66.86,4.28,86.01,25.95,80.85,88.59,0,0-90-25.88-132.43-2.94-42.43,22.94-88.14,96.85-85.05,123.45.1.84-5.99-5.14-11.07-10.26Z"/>
    <path class="cls-20" d="M451.89,864.4s68.04-86.99,147.6-87.78c0,0-101.84-13.27-146.98,60.24l-1.12,8.5c-.5,3.8-.57,7.65-.21,11.47l.71,7.57Z"/>
    <path class="cls-20" d="M699.47,787.29s-78.62-28.59-108.76-31.06c-30.14-2.47,95.27,2.31,107.3,15.99l1.46,15.07Z"/>
    <path class="cls-22" d="M682.47,947.32c3.64.04,6.83,2.46,7.53,6.1.33,1.73,0,3.52-.88,5.03-.63,1.08-1.32,1.74-2.42,2.3-2.24,1.14-4.72,1.16-6.95-.04-.5-.27-1.78.42-1.11.78,2.31,1.25,4.92,1.44,7.39.57,1.27-.45,2.61-1.1,3.5-2.15,2.68-3.15,2.74-7.85-.15-10.9-1.66-1.75-3.99-2.64-6.38-2.67-.32,0-.79.09-.94.42-.13.3.11.54.42.55h0Z"/>
    <path class="cls-16" d="M760.03,1159.88c-3.17,9.2-5.2,18.97-6.37,28.61-.54,4.46-.84,8.95-.85,13.45,0,.86,2.89.33,2.9-.78.03-13.1,2.53-26.28,6.31-38.8.29-.96.58-1.92.91-2.86s-2.57-.58-2.89.37h0Z"/>
    <polygon class="cls-18" points="577.76 1104.22 579.36 1138.66 586.32 1104.22 577.76 1104.22"/>
    <path class="cls-27" d="M561.91,1117.92c-16.32-.02-32.63-5.78-46.54-14.07-13.08-7.79-24.58-19.02-31.65-32.6-1.42-2.73-2.83-5.65-3.55-8.66l-1.06,1.02c5.06-1.17,10.11-2.35,15.17-3.52l-1.43-.36c1.84,5.22,4.97,10.17,8.2,14.61,7.63,10.48,17.91,18.94,29.67,24.39,9.15,4.24,19.03,6.64,29.05,7.59,1.04.1,2.61-1.37.94-1.53-16.17-1.52-31.87-7.22-44.44-17.67-7.62-6.33-14.11-14.21-18.66-23.02-.84-1.63-1.67-3.3-2.28-5.03-.19-.54-1.01-.46-1.43-.36-5.06,1.17-10.11,2.35-15.17,3.52-.41.09-1.19.49-1.06,1.02.6,2.49,1.71,4.91,2.82,7.2,3.07,6.3,7.16,12.09,11.82,17.31,11.11,12.47,25.66,21.33,41.39,26.74,8.75,3.01,17.98,4.92,27.26,4.93.52,0,1.39-.16,1.64-.7.23-.51-.2-.83-.7-.83h0Z"/>
    <path class="cls-27" d="M601.86,1119.33c16.68-1.82,32.74-9.45,46.08-19.4,6.55-4.89,12.35-10.56,17.4-16.98,3.95-5.03,7.65-10.51,9.9-16.53.75-2.02,1.6-4.44,1.43-6.65-.04-.12-.13-.2-.25-.24-5.22-1.54-10.44-3.07-15.66-4.61-.68-.2-1.93-.01-2.24.75-1.99,4.96-4.86,9.67-7.84,14.09-6.75,9.99-15.3,18.89-25.48,25.4-7.22,4.62-15.17,7.93-23.54,9.79-.34.08-1.22.42-1.09.91s1.09.31,1.4.24c14.51-3.22,27.7-10.72,38.31-21.07,7.27-7.09,13.43-15.37,18.17-24.35.92-1.74,1.83-3.51,2.56-5.33-.75.25-1.49.5-2.24.75,4.71,1.38,9.42,2.77,14.12,4.15.36.1.72.24,1.08.32.7.14.1.14.21-.11-.1.22,0,.26,0,.49-.09,1.51-.47,3-.93,4.43-2.53,7.92-7.82,14.94-13.15,21.18-6.73,7.87-15.03,14.33-23.94,19.55-10.37,6.07-21.91,10.65-33.92,11.97-.37.04-1.4.31-1.42.81-.02.54.68.52,1.06.47h0Z"/>
    <path class="cls-27" d="M561.67,1105.4c.25,3.25.51,6.5.76,9.75.6,7.76,1.21,15.52,1.81,23.28.73,9.38,1.46,18.77,2.19,28.15.63,8.15,1.27,16.31,1.9,24.46.21,2.69.42,5.37.63,8.06.06.83.13,1.66.19,2.49.03.37-.04.98.1,1.33.02.04,0,.12.01.16.05.09.12.13.22.14,4.29.6,8.59,1.19,12.88,1.79.43.06,2.31-.13,2.27-.81-.2-3.26-.4-6.52-.6-9.78-.48-7.79-.95-15.58-1.43-23.37-.58-9.47-1.16-18.93-1.74-28.4-.5-8.18-1-16.37-1.5-24.55-.16-2.69-.33-5.37-.49-8.06-.05-.84-.1-1.69-.15-2.53-.02-.36.06-.97-.08-1.31-.02-.05,0-.12-.01-.17,0-.15-.37-.16-.43-.16-4.82-.43-9.65-.85-14.47-1.28-.51-.05-1.36.13-1.76.47-.34.29-.39.48.14.52,4.82.43,9.65.85,14.47,1.28l-.43-.16c.2,3.26.4,6.52.6,9.78.48,7.79.95,15.58,1.43,23.37.58,9.47,1.16,18.93,1.74,28.4.5,8.18,1,16.37,1.5,24.55.16,2.69.33,5.37.49,8.06.07,1.22-.03,2.64.24,3.84.01.05,0,.12.01.17.76-.27,1.51-.54,2.27-.81-3.94-.55-7.88-1.09-11.81-1.64-.27-.04-.58-.13-.86-.12-.35.01-.04-.14,0,.1-.02-.08-.04-.22-.02-.3.09-.55-.1-1.29-.14-1.84-.52-6.71-1.04-13.42-1.56-20.13-.8-10.35-1.61-20.69-2.41-31.04-.76-9.76-1.52-19.52-2.28-29.29-.26-3.34-.52-6.68-.78-10.03l-.25-3.17c-.04-.48.04-1.21-.13-1.67-.02-.06-.01-.15-.02-.21-.03-.43-2.54,0-2.49.67Z"/>
    <path class="cls-27" d="M599.23,1106.16c-.58,3.22-1.17,6.45-1.75,9.67-1.4,7.75-2.8,15.49-4.2,23.24-1.7,9.42-3.4,18.84-5.11,28.26-1.47,8.11-2.93,16.22-4.4,24.33-.48,2.67-.97,5.35-1.45,8.02-.22,1.22-.65,2.57-.69,3.82,0,.06-.02.12-.03.17l2.5-.45c-.3-4.91-.6-9.82-.9-14.73-.56-9.15-1.12-18.3-1.68-27.45-.22-3.54-.43-7.07-.65-10.61-.09-1.45-.35-2.99-.27-4.44-.03.5.05-.04.07-.14.08-.35.12-.71.18-1.06.22-1.32.45-2.65.67-3.97.71-4.2,1.42-8.4,2.13-12.61.75-4.45,1.5-8.89,2.26-13.34.44-2.62,1.12-5.31,1.35-7.96.01-.13.04-.26.06-.38l-1.38.96c4.8-.2,9.6-.4,14.41-.6,1.36-.06,1.96-1.76.26-1.69-4.8.2-9.6.4-14.41.6-.53.02-1.29.38-1.38.96-1.04,6.12-2.07,12.24-3.11,18.36-.75,4.42-1.5,8.85-2.25,13.27-.43,2.57-.99,5.15-1.31,7.73-.13,1,.05,2.08.12,3.08l.57,9.29c.56,9.12,1.12,18.25,1.67,27.37.24,3.89.48,7.78.71,11.67.12,1.97,0,4.14.37,6.08.02.09.01.19.02.28.06,1.06,2.35.38,2.5-.45.58-3.22,1.17-6.45,1.75-9.67,1.4-7.75,2.8-15.49,4.2-23.24,1.7-9.42,3.4-18.84,5.11-28.26,1.47-8.11,2.93-16.22,4.4-24.33.48-2.67.97-5.35,1.45-8.02.22-1.24.62-2.56.69-3.82,0-.06.02-.12.03-.17.21-1.16-2.32-.81-2.51.23Z"/>
    <path class="cls-5" d="M631.75,899.98c2.75-1.42,5.97-.19,7.77,1.4.42.37,1.56,1.44,2.09,3.25.68,2.31-.24,4.93-1.69,6.52-1.94,2.13-5.16,2.49-7.64,1.34-3.36-1.57-4.45-5.61-3.62-8.55.16-.54.87-2.81,3.09-3.96"/>
    <path class="cls-5" d="M540.79,900.21c-2.75-1.42-5.97-.19-7.77,1.4-.42.37-1.56,1.44-2.09,3.25-.68,2.31.24,4.93,1.69,6.52,1.94,2.13,5.16,2.49,7.64,1.34,3.36-1.57,4.45-5.61,3.62-8.55-.16-.54-.87-2.81-3.09-3.96"/>
    <path class="cls-9" d="M585.14,975.42c-14.23,0-37.28-1.94-37.28-1.94,0,0,4.3,32.64,37.28,32.64s37.28-32.64,37.28-32.64c0,0-23.06,1.94-37.28,1.94Z"/>
    <path d="M585.28,975.42c-6.76,0-34.03-1.32-34.03-1.32,0,0,9.02,17.33,33.48,17.33,26.53,0,34.32-17.08,34.32-17.08l-33.77,1.08Z"/>
    <path class="cls-23" d="M585.58,976.6c-6.76,0-27.35-1.32-27.35-1.32,0,0,7.41,8.59,27.7,8.59s26.74-8.34,26.74-8.34l-27.09,1.08Z"/>
    <path class="cls-9" d="M623.92,971.07c-.72-.2-4.66,1.31-8.02.98-5.6-.56-12.37-2.27-16.43-2.63-6.93-.62-11.32,2.55-14.33,2.55s-7.41-3.17-14.34-2.55c-4.06.36-10.83,2.07-16.43,2.63-3.36.33-7.3-1.18-8.02-.98-1,.28.94,8.79,38.79,8.79s39.77-8.5,38.77-8.79Z"/>
  </g>
  <path class="cls-15" d="M395.9,700.33c4.6-11.81,18.22-17.66,30.15-12.94,11.85,4.69,17.88,18.39,13.23,30.09-4.56,11.48-18.24,17.32-29.99,12.8-11.97-4.6-18-18.1-13.38-29.96Z"/>
  <path class="cls-15" d="M428.56,766.78c-6.28-2.44-9.24-9.41-6.7-15.76,2.48-6.22,9.1-9.06,15.56-6.68,5.99,2.21,9.24,9.52,6.9,15.55-2.42,6.24-9.5,9.33-15.76,6.9Z"/>
  <g class="cls-13">
    <path class="cls-15" d="M875.1,593.67c-17.91.14-35.33-2.96-52.42-7.91-5.17-1.5-8.08-.56-10.37,4.58-11.59,26.04-30.33,45.88-54.19,61.03-22.13,14.05-46.3,22.44-72.33,25.67-18.68,2.32-37.32,2.04-55.82-1.08-34.32-5.78-64.56-20.23-90-44.17-3.6-3.39-6.21-3.27-9.99-.38-25.64,19.64-54.67,30.71-86.7,34.83-30.18,3.88-59.55.68-87.86-9.7-38.78-14.22-69.51-38.36-87.37-76.66-9.88-21.2-12.51-43.49-8.52-66.53,1.14-6.6.28-8.23-6.65-9.26-20.86-3.12-40.44-9.96-58.62-20.51-36.11-20.95-61.83-50.2-69.38-92.34-5.31-29.65.69-57.51,17.18-83.06,18.75-29.06,45.46-47.97,77.16-60.01,11.97-4.55,24.88-6.71,37.46-9.53,4.65-1.04,6.01-2.98,5.38-7.65-4.68-34.99,6.6-65.07,28.83-91.61,14.96-17.85,33.49-31.23,54.63-40.53,33.51-14.73,68.46-19.99,105.01-14.38,22.56,3.46,43.66,10.59,63.44,21.73,4.02,2.26,6.41,1.34,8.91-1.92,10.84-14.21,23.85-26.14,38.96-35.62,26.12-16.38,54.56-25.34,85.48-27.16,28.15-1.65,55.31,1.92,81.4,12.53,38.82,15.79,68.56,41.28,84.77,80.83,1.74,4.25,3.23,8.68,4.21,13.16.91,4.16,3.04,5.27,7.04,5.04,11.25-.64,22.54-1.7,33.77-1.28,44.87,1.68,84.52,17,116.53,48.82,25.91,25.76,39.26,57.37,36.97,94.45-1.3,21.11-9.33,40.04-20.93,57.56-4.51,6.82-4.54,7.13,1.42,12.36,16.24,14.22,28.55,31.22,36.28,51.38,8.86,23.12,10.26,46.8,3.77,70.69-11.02,40.56-37.87,67.83-74.22,86.76-26.05,13.57-54.04,19.33-83.23,19.87Z"/>
    <path class="cls-18" d="M672.8,388.35l-88.61,46.97s-39.17-28.63-63.45-47.14c-13.05,9.73-25.93,19.66-37.98,30.53l2.65,4.64c25.21,18.34,69.02,59.68,98.38,58.88,36.31-.98,101.76-75.03,101.76-75.03l-12.74-18.85Z"/>
    <path class="cls-18" d="M463.57,862.2c-1.13,4.95-2,6.24-3.18,10.97-1.36,5.45.93,9.64,6.8,12.08,4.94,2.06,11.6,3.15,17.01,2.99,7.07-.22,14.63-1.36,21.69-1.58,6.06-.19,25.11-1.39,31.03-.19,9.21,1.87,14.93.63,19.06-.75,1.14-.38,1.85-.31,2.39-1.17,1.41-2.24,1.3-4.74-1.7-6.73-3.78-2.5-8.45.73-11.96-2.19-.63-.52-1.2-1.1-1.93-1.48-1.42-.75-3.16-.62-4.79-.63-8.14-.09-7.46-3.65-18.06-6.66-3.11-.88-27.51-16.58-30.38-18"/>
    <path class="cls-18" d="M456.14,872.82s44.35,10.25,57.07,10.68c12.72.43,14.03-3.44,14.03-3.44,0,0-14.13-8.63-30.13-16.44-3.37-1.64,7.81-105.56,14.84-154.27,4.89-33.84,2.15-60.88,2.15-60.88l-58.61,3.79,1.02,51.72-2.73,9.4c-1.43,4.91-4.6,17.32-5.1,22.41-1.34,13.76-.26,29.08.17,36.15.72,11.96,4.7,28.26,5.08,32.46l8.09,50.3-5.88,18.12Z"/>
    <path class="cls-18" d="M408.57,873.73s52.25,27.54,64.22,27.56c11.98.02,7.86-6.34,7.86-6.34,0,0-31.76-31.07-34.83-36.78-1.69-3.13,6.76-98.36,12.04-147.27,3.67-33.97,3.9-61.01,3.9-61.01l-55.05,5.67-5.56,49.6-2.31,9.48c-1.21,4.95-2.9,13.75-3.23,18.85-.88,13.8-1.78,37.01-1.19,44.05,1.01,11.93,8.69,41.25,9.16,45.44l5.94,37.24-.97,13.5Z"/>
    <path class="cls-18" d="M409.32,853.23c.44,5.15-1.31,12.46-2.47,23.3-.51,4.77-4.34,11.59.68,15.05,8.89,6.11,19.42,3.61,23.43,4.55,8.44,1.98,15.19,1.94,23.29,4.58,8.22,2.67,9.91,3.32,18.94,3.87,1.25.08,2.57.03,3.65-.53.73-.38,1.29-.97,2.02-1.34,2.57-1.33,5.81.42,8.74.04,1.29-.17,2.47-.75,3.67-1.22,3.17-1.22,6.65-1.62,10.01-2.34,3.36-.72,6.78-1.83,9.11-4.12,2.33-2.29,3.21-6.01,1.19-8.53-3.05-3.81-6.98-1.56-11.1-1.92-4.12-.35-5.67-1-9.31-2.65-9.3-4.22-10.73-5.08-18.57-8.38-6.08-2.56-23.97-10.77-32.55-16.61v-20.43"/>
    <g>
      <path class="cls-24" d="M478.79,903.33c1.02-.29,1.77-.98,2.1-1.99.28-.87.23-1.84-.17-2.67-.85-1.78-2.78-2.8-4.49-3.58-1.01-.46-2.05-.86-3.08-1.29-.31-.13-.75-.02-1.02.15-.18.11-.46.39-.14.52,2.06.87,4.33,1.59,6.05,3.07.78.67,1.42,1.53,1.55,2.57.07.53,0,1.08-.2,1.58-.13.35-.39.87-.78.98-.19.05-.71.24-.64.52s.64.19.81.14h0Z"/>
      <path class="cls-24" d="M487.44,903.35c1.13-.02,2.27-.53,2.78-1.59.48-.99.47-2.23.32-3.3-.16-1.18-.57-2.14-1.41-3-1.22-1.25-2.88-1.88-4.49-2.44-1.81-.63-3.5-1.74-5.49-1.69-.26,0-.82.11-.97.36-.15.26.13.28.35.27,1.47-.04,2.92.85,4.24,1.39s2.8.95,4.04,1.82c.94.66,1.74,1.52,2.06,2.65.26.9.36,1.88.26,2.82-.06.59-.32,2.08-1.09,2.09-.26,0-.82.11-.97.36-.15.26.13.28.35.27h0Z"/>
      <path class="cls-24" d="M494.49,901.25c2.49-.91,3.22-4.16,2.09-6.37s-3.6-3.63-5.86-4.58c-1.43-.6-2.97-1.16-4.48-1.47-.33-.07-.78.03-1.02.27-.21.21-.17.46.14.53,1.52.31,3.08.88,4.51,1.5s2.68,1.31,3.79,2.3c1,.9,1.8,2.03,1.97,3.39s-.32,3.29-1.71,3.81c-.21.08-.58.34-.38.59s.73.11.96.02h0Z"/>
      <path class="cls-24" d="M501.09,899.82c1.5-.67,2.7-1.89,3.3-3.43.52-1.34.64-2.99-.16-4.24-1.5-2.35-4.67-3.48-7.18-4.35-.69-.24-1.39-.45-2.08-.7-.87-.31-1.74-.69-2.68-.64-.26.01-.83.1-.97.35s.13.27.35.26c.89-.05,1.89.55,2.73.82.69.22,1.37.45,2.05.7,1.63.6,3.28,1.3,4.7,2.33,1.3.95,2.22,2.12,2.2,3.79-.02,2.02-1.23,4.07-3.1,4.9-.2.09-.42.25-.17.39s.79-.08,1.01-.18h0Z"/>
    </g>
    <path class="cls-24" d="M519.7,871.35c1.55.26,3.09.87,4.54,1.47.78.32,1.55.67,2.29,1.08.41.23.95.48,1.21.9.2.34.91.11,1.13-.04,1.44-.95,3.21-1.15,4.88-.83.33.06.79,0,1.02-.27.19-.22.18-.52-.16-.59-2.28-.44-4.71-.13-6.67,1.17l1.13-.04c-.27-.45-.85-.75-1.29-1-.77-.44-1.59-.8-2.41-1.14-1.54-.64-3.16-1.3-4.81-1.58-.33-.06-.79,0-1.02.27-.18.21-.19.53.16.59h0Z"/>
    <path class="cls-24" d="M457.28,867.43c5.72,3.03,11.54,5.89,17.41,8.63,4.58,2.14,9.21,4.21,13.93,6,3.31,1.26,6.9,2.7,10.47,2.9,1.86.1,3.72-.42,5.59-.47s3.56.07,5.02,1.23c.88.7,1.64,1.66,2.02,2.72.16.43,1.59,0,1.45-.39-1.82-5.09-7.87-4.54-12.16-3.87-2.74.43-6.37-1.01-9.09-1.98-9.23-3.27-18.1-7.63-26.84-12.02-2.22-1.11-4.44-2.24-6.63-3.4-.36-.19-1.7.36-1.17.64h0Z"/>
    <path class="cls-18" d="M605.47,403.41c15.87-31.15-51.69,105.92-51.69,105.92l-136.4-20.97c1.96,9.76-6.66,17.5-11.32,30.01,0,0,82.22,27.99,95.81,32.94,85.19,31.06,101.27,6.49,119.93-26.89,6.23-11.15,38.71-69.8,30.95-78.75-1.77-2.04-47.75-41.97-47.27-42.26Z"/>
    <path class="cls-18" d="M660.35,491.91c-3.88,2.16-8.54,6.27-11.72,9.26-3.7,3.93-10.17,18.19-10.17,18.19l-13.82,9.09,10.48,22.9,14.93-8.71,17.25-1.93s30.26-9.96,32.93-13.53c2.66-3.57,3.36-13.11,3.36-13.11,4.31-4.13,1.79-11.61,1.79-11.61,4.72-8.94-2.04-7.99-2.04-7.99.24-.27.39-.59.44-.93.56-3.7-4.92-5.47-7.32-2.6-4.05,4.78-9.61,11.11-10.71,11.26-1.1.15-8.3,2.27-14.58,4.14-3.16,1.09-6.65-.37-7.8-3.27-.11-.27-1.49-1.67.45-3.43"/>
    <path class="cls-33" d="M717.56,238.28s-79.03-47.95-127.46-30.73c0,0,73-28.05,116.74,6.5l1.3,1.54c3.43,4.06,6.12,8.69,7.94,13.69l1.48,9Z"/>
    <path class="cls-18" d="M841.46,821.46c3.56-6.68,12.59-13.26,18.82-16.11,6.24-2.85,13.1,1.02,14.94,2.01,13.7,7.43,19.95,19.97,30.21,31.23,7.87,8.63,16.8,16.3,26.52,22.77,9.88,6.58,18.07,10.51,28.14,16.57.07.04,1.11.09,1.18.13,5,3,7.81,7.67,9.76,13.16.71,2.01,1.45,3.98,2.28,5.86,1.15,2.61,2.48,4.6.75,7.37-3.2,5.12-11.6-1.9-14.13-3.28-.47-.26-.99-.38-1.52-.38-2.13-.02-5.5-.4-15.8-3.7-1-.32-1.98-.56-2.95-.76-.03.06.03-.06,0,0-5.5-1.43-30.58-5.03-35.06-5.9-8.83-1.73-35.55-10.16-35.55-10.16-3.07-.73-56.07-34.58-72.18-26.7l13.86-20.51s27.18-4.92,30.74-11.6Z"/>
    <path class="cls-18" d="M842.86,771.8c4.52-6.07,14.44-11.23,21.03-13.1,6.59-1.88,12.8,2.97,14.47,4.23,12.43,9.4,16.73,22.74,25.18,35.41,6.48,9.72,14.16,18.63,22.8,26.49,8.78,7.99,19.14,13.54,28.19,21.04.06.05.13.11.19.16,4.49,3.72,7.53,8.9,8.63,14.62.4,2.09.83,4.15,1.37,6.14.75,2.75,1.76,4.92-.37,7.4-3.93,4.58-11.18-3.62-13.48-5.36-.42-.32-.92-.52-1.45-.61-2.1-.34-8.24-1.65-17.92-6.47-.94-.47-1.87-.85-2.8-1.19-.04.05.04-.05,0,0-5.23-2.24-29.48-9.56-33.78-11.1-8.47-3.04-33.62-15.38-33.62-15.38-2.93-1.19-38.07-20.46-55.19-15.09l4.61-40.34s27.61-.78,32.13-6.86Z"/>
    <path class="cls-18" d="M895.58,766.1c-8.8,30.93,24.73,64.55-16.23,76.51l-9.64,14.1c10.15,26.76,21.2-3.98,11.32,22.89l-13.45-4.04s-230.89,43.45-270.78,25.19c-16.18-4.32-47.06-41.91-40.61-92.19,6.45-50.28,27.87-37.46,42.31-43.28,14.43-5.82,160.39-14.34,213.9-8.93l64.34-33.42,18.84,43.16Z"/>
    <path class="cls-19" d="M936.05,863.04c-5.59-4.24-11.18-8.48-16.77-12.73l-10.85-8.24c-2.36-1.79-4.84-3.51-6.94-5.61-2.36-2.37-3.95-5.21-5.95-7.85-1.29-1.71-2.58-3.42-3.88-5.14-.47-.63-2.25.07-1.71.79,1.11,1.47,2.22,2.95,3.33,4.42,1.5,1.98,2.73,4.14,4.28,6.09,2.35,2.96,5.28,5.19,8.26,7.45,7.4,5.61,14.79,11.23,22.19,16.84,2.19,1.67,4.39,3.33,6.58,5,.61.46,2.26-.41,1.45-1.03h0Z"/>
    <path class="cls-10" d="M742.6,840.82s32.16,36.04,19.63,63.4c-2.32,5.06-92.66,5.44-92.66,5.44,0,0-85.94,11.72-119.16-21.01-57.51-56.66-46.79-102.17,19.13-151.65,67.38-50.59,0,0,0,0l133.48,114.54"/>
    <path class="cls-21" d="M747.6,845.58c-13.35.5-26.64,2.78-39.79,4.96-14.44,2.4-28.83,5.11-43.31,7.24-6.02.89-12.09,1.75-18.19,1.97-.57.02-1.62.19-1.92.77s.24.78.76.76c12.14-.43,24.27-2.77,36.22-4.81,14.74-2.51,29.45-5.23,44.27-7.29,6.9-.96,13.84-1.82,20.8-2.08.57-.02,1.62-.19,1.92-.77s-.24-.78-.76-.76h0Z"/>
    <path class="cls-18" d="M732.93,304.56c.57.73,6.66,4.87,9.84,5.16-1.69,7.36,2.5,27.26-2.67,33.03-9.77,10.9-32.98,42.66-47.36,45.16-12.79,2.22-45.78-5.97-35.99-40.53,2.21-9.26,4.16-11.08,4.04-12.59-.34-4.54-13.85-29.95-13.85-29.95l65.22-53.11s3.62,31.06,20.77,52.83Z"/>
    <path class="cls-19" d="M659.03,330.83s4.75-6.34,9.55-9.2c4.8-2.86,13.79-4.94,32.16-32.15-.16.24.15,1.6.15,1.9.02,1.79-.22,3.58-.61,5.32-1.52,6.8-5.4,12.92-9.94,18.11-3.43,3.92-7.28,7.48-11.43,10.63-3.85,2.93-7.84,5.6-12.39,7.25-1.33.48-2.68.91-4.05,1.24-.35.08-2.02,1.01-2.11.72l-1.34-3.81Z"/>
    <path class="cls-18" d="M587.1,182.78c-.03.21-.09.42-.15.63.09-.12.18-.24.26-.35l-.1-.28ZM574.84,190.76l.09.23c.15-.25.3-.5.42-.74-.1-.28-.51.5-.51.5ZM711.13,259.75l-.04-5.23c9,6.44,17.18-3.61,13.86-15.85,1.32-7.09-.77-28.58-7.74-33.18l-.9-.71c-4.37-1.57-10.97-.73-12.06,4.74-.2,2.29,1.33,4.58,1.14,6.87-.09,2.57-1.9,7.98-2.71,10.5,0,0-5.72-10.89-7.36-16.31-1.64-5.42-10.93-19.44-23.12-23.52,0,0-6.56-18.82-12.86-22.84h-1.73c-.91.34-1.42.84-2.33,1.17-.1-.28.1-.67-.11-1.23-1.32,1.12-2.64,1.28-3.85,1.73.2-.39.71-.89.61-1.17-1.11.73-2.43.89-3.65,1.34.2-.39.61-1.17.5-1.45-1.32,1.11-2.43.89-3.65,1.34.2-.39.3-1.06.2-1.34-1.01,1-2.33,1.17-3.55,1.62.2-.39.3-1.06.5-1.45-1.31,1.12-2.43.89-3.65,1.34-.31.11.4-.78.3-1.06-.81.61-2.03,1.06-2.94,1.4-.1-.28.4-.78.3-1.06-1.62,1.23-2.74,1-3.95,1.45l.5-1.45c-.91,1.28-2.13,1.73-3.44,1.9.2-.39.6-1.17.5-1.45-1.21,1.39-2.94,2.34-4.66,2.34.3-.11.61-1.17.5-1.45-1.11,1.67-2.43,1.84-3.95,2.4.2-.39.3-1.06.71-1.84-1.41,1.79-3.34,3.13-5.47,2.96.31-.11.3-1.06.2-1.34-.81,1.56.96-.67-.66-.39,0,0-3.09,2.4-3.19,2.12-.91,1.28,1.47-5.91-.05-5.36.1-.67-8.54,3.72-8.13,2.94-1.11,1.67-1.01.98-2.94,1.38,0,0-5.09,5.66-4.89,5.27-1.01,1.95-2.13,1.03-4.05,1.42.2-.39,1.53.77,1.73.38-.81,1.56-.92.02-2.44.58-.1-.28-5.64,0-5.74-.27-1.21,1.4-.67,1.33-2.5,2-.1-.28-.01,3.49.19,3.1-.81,1.56-1.09.63-2.71.9l-1.13,1.59c-1.01,1.95.85.58-1.07.97-.07-.19,7.19-1.64,7.33-2.11-.88,1.18-1.99,2.4-3.28,3.16-.1-.28,0-.95-.1-1.23-.81,1.56-2.33,3.07-4.25,3.46.3-.11.4-.78.3-1.06-1.01,1.95-2.53,3.46-4.66,3.29-.85,1.31-2.08,2.71-3.54,3.52-.31-.84.2-1.34.2-1.34l-1.22.45c-.7,2.79-1.51,5.3-1.09,8.32,0,0-3.95,18.82.14,29.04,4.09,10.22,11.6,28.22,13.54,32.58,1.69,3.77,2.68,9.16,3.27,13.43,2.7,19.36,12,25.28,21.68,34.41,4.32,4.08,9.26,7.27,13.86,10.94,5.09,4.06,9.9,8.31,15.94,10.94,6.24,2.71,14.54.6,21.41-1.56,19.18-6.02,35.62-26.15,43.21-42.69"/>
    <path class="cls-30" d="M715.36,249.3c3.03-.78,5.31,1.08,6.54,3.44,2.22,4.25-1.18,9.43-5.9,8.58-.18-.03-.36-.07-.55-.12,0,0,6.67,3.84,10.08-1.01,3.41-4.85-.48-9.68-2.56-10.63-4.63-2.1-7.61-.26-7.61-.26Z"/>
    <path class="cls-5" d="M689.99,206.23l11.58,26.57,5.15-15.49s-11.93-7.96-16.73-11.08Z"/>
    <path class="cls-3" d="M708.47,229.8c.89-.32,2.1-.67,2.6.39.4.84.29,1.93.26,2.83-.07,1.95-.4,4.64,1.36,6,2.56,1.98,4.47-1.41,5-3.54.71-2.87.44-5.84-.78-8.51s-3.1-5.83-6.27-6.04c-.47-.03-1.23.65-.44.7,2.72.17,4.47,3.33,5.48,5.51,1.14,2.44,1.49,5.02,1,7.71-.16.86-.39,1.73-.78,2.51-.22.44-.68,1.4-1.24,1.53-.85.19-1.67-1.12-1.89-1.77-.68-1.95-.11-4.08-.28-6.08-.07-.79-.28-1.65-1.03-2.05-1.05-.56-2.44-.09-3.46.27-.76.27-.07.72.47.52h0Z"/>
    <g>
      <path class="cls-5" d="M626.69,282.74c2.53.4,5.63-1.04,7.23-3.2.36-.48,2.03-.75,1.53-.08-2.12,2.86-6.64,4.7-9.91,4.19-.32-.05-.36-.29-.06-.53.3-.25.87-.43,1.21-.37"/>
      <path class="cls-5" d="M636.12,278.49c1.15-1.22,2.59-2.17,4.12-2.88.22-.1.56-.12.79-.02.18.08.27.24.13.41-.56.71-1.42,1.23-2.28,1.53-.27.09-.65.15-.89-.04-.22-.18-.02-.42.19-.49.71-.24,1.37-.65,1.84-1.24.31.13.61.26.92.38-1.37.63-2.65,1.49-3.68,2.59-.2.22-.6.27-.87.21-.21-.04-.48-.23-.27-.45"/>
      <path class="cls-5" d="M642.46,276.41c1.83-.72,3.68-2.37,4.05-4.18.55-2.73-2.03-5.79-4.86-6.38-.31-.06-.25-.31-.02-.46.3-.2.74-.21,1.06-.14,2.47.51,4.83,2.93,5.3,5.13.44,2.06-.83,4.07-2.83,5.44-.6.41-1.25.78-1.94,1.05-.28.11-.81.2-1.04.02-.23-.19,0-.38.25-.48"/>
      <path class="cls-5" d="M622.94,282.98c.02-.26-.22-.34-.37-.29-.49.2-1.06.23-1.62.02-.09.27-.17.54-.25.81,1.04-.25,2.17-.27,3.29.04.22.06.45-.11.56-.31.08-.15.12-.44-.11-.51"/>
      <path class="cls-5" d="M624.44,282.75c-1.26-.34-2.52-.31-3.68-.03-.17.04-.35.21-.41.42-.05.16,0,.34.16.4"/>
      <path class="cls-5" d="M619.21,284.65c-1.22.39-2.95.05-4.08-1.21-1.71-1.9-1.86-4.86-.88-6.83.11-.21-.05-.38-.24-.38-.24,0-.45.23-.56.45-.85,1.72-.95,4.04.01,6.06.9,1.89,2.55,2.83,4.2,2.87.49.01.99-.04,1.44-.19.18-.06.48-.27.48-.53,0-.27-.2-.31-.37-.25"/>
    </g>
    <path class="cls-5" d="M590.95,252.32c-2.01-.26-3.93,1.26-4.67,2.64-.18.33-.41,1.21-.33,2.44.1,1.57,1.26,2.97,2.51,3.62,1.67.87,3.73.37,4.99-.9,1.71-1.72,1.47-4.45.3-6.07-.22-.3-1.17-1.53-2.79-1.73"/>
    <path class="cls-5" d="M609.65,251.25s-10.59-3.46-14.95-2.33c-6.36,1.64-12.67,7.81-13.72,11.65,0,0,8.14-8.75,12.65-9.78,4.31-.98,16.02.46,16.02.46Z"/>
    <path class="cls-5" d="M641.8,233.6c1.37-1.49,4.17-2.25,5.64-1.67.34.13,1.28.53,2.02,1.53.94,1.27.96,3.08.43,4.38-.71,1.74-2.61,2.69-4.39,2.54-2.42-.21-4-2.44-4.15-4.44-.03-.37-.6-.88.51-2.09"/>
    <path class="cls-5" d="M635.54,240.72s7.12-9.31,11.64-11.12c6.59-2.64,15.98-1.65,19.3.74,0,0-12.6-1.9-17.19.08-4.39,1.9-13.75,10.3-13.75,10.3Z"/>
    <path class="cls-5" d="M577.09,249.44c-.22-.05-.45-.04-.7,0-.22-.32-.43-.64-.63-.97-.12-.23-.21-.46-.29-.7,0-.06-.01-.13-.02-.19.74-2.61,1.98-4.39,2.11-4.57,0,0,1.73-2.51,5.12-4.58,2.34-1.43,9.21-4.07,18.89-5.84.39,1.26.78,2.53,1.16,3.81.29.97.59,1.94.87,2.9-3.48.18-6.42.51-8.61.81-4.64.63-7.02.97-9.45,2.19-2.56,1.28-4.53,3-5.3,3.67-1.08.95-1.81,1.56-2.58,2.59-.23.31-.39.59-.57.89Z"/>
    <path class="cls-5" d="M625.56,221.59c.58,1.19,1.16,2.38,1.74,3.58.44.91.89,1.82,1.34,2.72,3.27-2.51,6.14-4.5,8.34-5.95,4.64-3.07,7.02-4.63,10.1-5.6,3.24-1.03,6.27-1.31,7.45-1.41,1.66-.14,2.76-.26,4.22-.12,3.16.31,4.96,1.51,5.29,1.17.3-.31-1-1.49-1.14-1.61-3.31-2.97-7.78-3.52-8.12-3.57,0,0-3.39-.47-7.95.63-3.15.75-11.26,4.09-21.26,10.17"/>
    <path class="cls-28" d="M638.46,292.39c9.6-3.78,23.12-13.68,23.12-13.68,0,0,8.68,25.89-13.57,34.66-22.25,8.77-29.69-13.47-29.69-13.47,0,0,10.55-3.72,20.14-7.51Z"/>
    <path class="cls-12" d="M638.36,292.42c4.56-1.8,20.49-11.03,20.49-11.03,0,0,1.9,17.98-14.6,24.48-17.89,7.05-22.75-6.68-22.75-6.68l16.86-6.78Z"/>
    <path class="cls-23" d="M638.45,293.21c4.56-1.8,18.13-8.07,18.13-8.07,0,0-2.95,7.16-16.64,12.56-13.69,5.39-20.02,2.06-20.02,2.06l18.53-6.55Z"/>
    <path class="cls-28" d="M616.79,298.88c.44-.31,1.93-1.21,1.93-1.21,3.64-1.83,3.78-2.94,6.43-4.24,4.52-2.21,8.24-1.47,10.28-2.27,2.03-.8,4.24-3.88,9.06-5.35,2.82-.86,6.74-2.08,10.39-3.9,5.33-2.66,6.17-3.14,6.7-3.21.74-.09,3.46,6.31-22.07,16.37-25.53,10.06-23.32,4.25-22.72,3.81Z"/>
    <path class="cls-25" d="M664.04,473.19c2.16-17.51-7.85-39.78-6.57-57.39.82-11.32-17.89-13.83-19.46-25.07-1.37-9.79-4.31-21.3-9.93-29.72-13.03,12.8-25.38,14.1-36.64,52.03-13.22,44.53-29.15,53.96-31.23,64.65-1.95,10.04,53.48,46.06,81.98,39.75.55-8.18,20.85-36.12,21.85-44.26Z"/>
    <path class="cls-25" d="M877.61,551.73l-17.65-87.06-4.32-64.86c-4.97-45.83-34.88-70.41-63.55-76.92l-49.75-15.06s-12.55,59.49-56.3,63.47c-.76.07-.13,11.15-.85,11.19-.86.05-3.05-10.94-3.86-10.92-37.65.76-20.33-36-20.33-36,0,0-40.44,27.76-48.66,38.12-1.05,1.33-2.11,2.83-3.17,4.5,6.97,7.37,10.8,17.49,13.66,27.04,3.4,11.38,5.48,23.27,6.41,35.11,1.31,16.83-14.48,37.39-14.65,54.24-.18,17.3-1.57,27.5,3.43,44.28.27.91,15.01,6.15,14.62,6.76,2.78,7.54,18.39-2.49,22.84,1.11,12.33,9.96,1.99,23.78,9.02,32.52,13.9,17.28,4.35,74.32,2.93,104.24,0,0,83.3-19.49,134.84-27.31,51.55-7.82,112.67-40.91,112.67-40.91-29.65-41-37.34-63.54-37.34-63.54Z"/>
    <path class="cls-27" d="M613.78,449.26c3.02,4.63,3.4,10.34,2.5,15.68-.61,3.62-1.58,7.16-2.15,10.79-1.39,8.86-2.2,17.9-2.09,26.88.05,4.25.26,8.61,1.32,12.75l1.95-1.16c-4.66-1.38-9.22-3.26-13.65-5.26-9.66-4.35-18.96-9.79-27.04-16.68-5.12-4.37-9.7-9.39-13.28-15.1l.05.68c1.64-3.7,3.28-7.39,4.91-11.09l-2.42.19c.1.9.5,1.8.87,2.62,1.2,2.62,2.94,4.96,4.86,7.1,3.57,3.98,7.81,7.34,12.22,10.34,5.77,3.92,11.88,7.23,18.36,9.82,4.04,1.62,8.18,3.08,12.38,4.24.59.16,1.35.03,1.75-.47.33-.42.26-1.03-.32-1.19-9.86-2.72-19.35-6.78-27.96-12.3-4.71-3.02-9.28-6.39-13.16-10.44-2.1-2.19-4.08-4.61-5.45-7.33-.46-.93-.96-1.99-1.08-3.04s-2.13-.47-2.42.19c-.77,1.73-1.54,3.47-2.31,5.2-.84,1.89-1.98,3.83-2.57,5.81-.17.56.06.83.37,1.32.53.84,1.09,1.66,1.67,2.46,1.09,1.52,2.26,2.99,3.48,4.4,2.49,2.88,5.23,5.54,8.13,8.01,9.84,8.4,21.49,14.69,33.48,19.44,2.52,1,5.08,1.97,7.69,2.74.67.2,2.2-.19,1.95-1.16-.96-3.73-1.2-7.62-1.27-11.45-.09-4.65.12-9.31.48-13.95.35-4.4.84-8.79,1.51-13.16.54-3.57,1.41-7.04,2.09-10.58,1.14-5.89.74-12.23-2.6-17.37-.6-.93-2.97.01-2.27,1.09h0Z"/>
    <path class="cls-27" d="M694.66,377.59c7.52-1.43,14.57-5.02,20.79-9.39s11.6-9.36,15.9-15.37c7.93-11.06,14.96-23.07,20.03-35.72.84-2.09,1.67-4.2,2.28-6.37.09-.33-.25-.54-.51-.62-3.36-1.02-6.71-2.03-10.07-3.05-.62-.19-1.86.12-1.99.88-1.07,5.84-3.02,11.62-5.23,17.12-4.65,11.61-11.27,22.69-20.49,31.26-6.06,5.64-13.24,10-21.14,12.54-.41.13-1.2.49-1.05,1.05s1.04.52,1.44.39c14.13-4.54,25.58-14.28,33.82-26.47,6.13-9.06,10.6-19.27,13.59-29.78.6-2.1,1.17-4.22,1.56-6.37l-1.99.88c3.36,1.02,6.71,2.03,10.07,3.05l-.51-.62c-1.74,6.17-4.66,12.12-7.57,17.8-3.43,6.69-7.31,13.16-11.5,19.4-2.14,3.18-4.31,6.31-6.9,9.15-2.51,2.76-5.27,5.3-8.2,7.61-6.65,5.22-14.34,9.6-22.72,11.19-.42.08-1.19.52-1.05,1.05.15.58,1.03.47,1.44.39h0Z"/>
    <path class="cls-27" d="M680.06,371.61c-4.3.35-8.84.14-12.75-1.85-2.59-1.31-4.61-3.41-6.28-5.75-2.87-4.02-4.08-8.82-3.19-13.71.39-2.15,1.02-4.27,1.55-6.38.59-2.36,1.18-4.73,1.76-7.09.2-.82-1.72-.3-1.99-.12-2.54,1.68-5.09,3.35-7.63,5.03-.64.42-.74.75-.93,1.45-.36,1.32-.67,2.65-.93,3.99-1.66,8.34-2.56,19.64,4.1,26.15,5.31,5.18,12.84,8.04,20.21,6.53.35-.07,1.41-.29,1.43-.79s-.69-.5-1.05-.43c-5.28,1.08-10.47-.47-14.84-3.48-3.24-2.23-5.73-4.91-7.05-8.66-2.22-6.3-1.58-13.45-.28-19.88.31-1.55.67-3.11,1.14-4.63l-.49.48c2.61-1.72,5.22-3.44,7.83-5.16l-1.99-.12c-1.11,4.47-2.5,8.94-3.31,13.48-1.39,7.77,2.59,16.27,9.61,20.05,4.47,2.4,9.78,2.52,14.72,2.12,1.15-.09,2.12-1.36.38-1.22h0Z"/>
    <path class="cls-27" d="M693.32,369.84c-.08,6.05-.16,12.11-.25,18.16-.13,9.65-.26,19.3-.39,28.95-.03,2.22-.06,4.43-.09,6.65l1.07-.79c-2.45.53-4.91,1.07-7.36,1.6l1.42.49c-.02-6.08-.05-12.17-.07-18.25-.04-9.69-.07-19.38-.11-29.07,0-2.21-.02-4.43-.03-6.64l-1.41.86c2.76-.47,5.53-.93,8.29-1.4.41-.07,1.38-.31,1.41-.86s-.67-.63-1.08-.56c-2.76.47-5.53.93-8.29,1.4-.37.06-1.41.32-1.41.86.02,6.08.05,12.17.07,18.25.04,9.69.07,19.38.11,29.07,0,2.21.02,4.43.03,6.64,0,.71.95.6,1.42.49,2.45-.53,4.91-1.07,7.36-1.6.3-.06,1.07-.38,1.07-.79.08-6.05.16-12.11.25-18.16.13-9.65.26-19.3.39-28.95.03-2.22.06-4.43.09-6.65.01-1.05-2.48-.55-2.49.3Z"/>
    <path class="cls-27" d="M671.44,372.94c1.55,5.89,3.1,11.78,4.65,17.68,2.48,9.44,4.96,18.87,7.45,28.31.57,2.15,1.13,4.31,1.7,6.46.22.83,2.49.28,2.49-.48-.03-7.77-.06-15.53-.09-23.3-.01-2.69.19-5.47-.03-8.15-.08-1.01-.47-2.05-.72-3.04-.56-2.25-1.13-4.5-1.69-6.74-.98-3.92-1.96-7.84-2.95-11.76-.07-.3-.51-.4-.76-.39-2.78.12-5.55.25-8.33.37-.51.02-1.38.15-1.64.69-.23.49.2.78.68.75,2.78-.12,5.55-.25,8.33-.37l-.76-.39c1.76,7.04,3.35,14.15,5.3,21.14.12.42.03-.16.06.25s0,.83,0,1.24l.02,5.2c.02,4.98.04,9.96.06,14.94.01,3.29.03,6.58.04,9.86l2.49-.48c-1.55-5.89-3.1-11.78-4.65-17.68-2.48-9.44-4.96-18.87-7.45-28.31-.57-2.15-1.13-4.31-1.7-6.46-.23-.88-2.72-.23-2.49.67Z"/>
    <path class="cls-33" d="M569.39,213.16c1.39-18.67,18.57-34.52,54.74-53.01,36.17-18.49,70.85-15.49,70.85-15.49-37.49-47.78-91.85-25.84-104.12-21.34-12.27,4.5-58.06,75.5-20.88,112.87l3.2,2.85s-4.05-22.49-3.79-25.88Z"/>
    <path class="cls-33" d="M700.58,129.83s-7.91-35.64-36.9-37.96c-38.73-3.09-86.39,6.75-89.8,47.6l126.7-9.64Z"/>
    <path class="cls-8" d="M727.39,213.53c1.73-3.77-1.89-11.36-.67-15.33,6.36-20.78-3.4-35.27-11.58-43.01-3.56-3.37-3.32-11.65-4.84-15.19-7.97-18.56-10.35-18.34-45.63-27.46-28.71-7.42-53.29,2.39-67.38,8.43-22.57,9.67-32.19,14.83-34.26,34.1-.27,2.51.95,2.94,1.01,5.83.09,4.08-4.91,7.43-4.18,12.38,0,0,33.9,1.06,64.26,5.46,30.35,4.4,97.12,42.12,101.1,58.68.13.52.25-19.72,2.17-23.89Z"/>
    <path class="cls-33" d="M727.55,179.92s-77.79-47.2-125.47-30.25c0,0,71.86-27.61,114.91,6.39l1.28,1.52c3.38,4,6.02,8.56,7.82,13.48l1.45,8.86Z"/>
    <path class="cls-5" d="M421.89,305.81c-3.94,1.92-6.95,5.42-7.44,9.9-.22,1.95-.01,3.98.84,5.76.4.83,1.4,1.91,1.28,2.89-.02.17-.18.47-.18.47.19-.25-.14.1-.25.16-.25.15-.5.28-.76.41-1.98,1.07-3.81,2.47-3.83,4.92-.03,2.64,1.79,4.5,2.52,6.9.71,2.34-.62,4.16-2.14,5.82-1.71,1.86-3.76,3.88-4.02,6.55-.13,1.31.29,2.19.84,3.32.24.5.38.9.31,1.45-.08.65-.37,1.21-.38,1.87-.04,2.87,3.66,2.82,5.63,2.28,2.73-.75,4.53-2.74,4.09-5.66-.32-2.11-2.29-4.8-.59-6.75,1.13-1.3,2.8-2.07,3.97-3.36,1.38-1.53,1.77-3.4,1.1-5.36-.59-1.74-2.07-3.52-2.06-5.42s2.47-2.83,3.49-4.21c1.59-2.15.76-4.53.08-6.84-.33-1.11-.65-2.28-.28-3.42.4-1.23,1.45-2.19,2.1-3.3,2.9-5,2.12-11,1.23-16.44-.31-1.92-6.14-.56-5.8,1.55.72,4.41,1.45,9.15-.19,13.45-.78,2.04-2.63,3.54-3.19,5.66-.52,1.94.33,3.88.84,5.72.22.8.46,1.66.29,2.49-.19.93-.83,1.41-1.53,1.98-1.48,1.2-2.86,2.56-2.83,4.59.04,2.82,4,6.58,1.64,9.14-1.15,1.24-2.72,2-3.87,3.26-1.51,1.66-1.76,3.61-1.1,5.74.35,1.14.9,2.27.97,3.48.01.27-.31,1.24-.26,1.4l-.07.11c.28-.35.66-.52,1.14-.51-.41.11,1.36-.51,1.27-.11-.02.07-.18-.18-.18-.25,0-.28-.03-.43.01-.7.08-.51.31-.99.36-1.51.12-1.33-.7-2.11-1.06-3.29-.66-2.18,1.07-4.23,2.45-5.7,1.5-1.59,3.18-3.32,3.69-5.52.54-2.34-.65-4.29-1.67-6.29-.7-1.36-1.64-3.96-.26-4.86,1.6-1.04,3.91-1.8,4.29-3.96.21-1.21-.43-2.15-.98-3.14-.48-.88-.83-1.81-1.02-2.79-.38-1.94-.09-3.96.67-5.77.36-.86.88-1.7,1.5-2.41.29-.33.61-.64.96-.91-.05.04.35-.26.23-.17.06-.04.74-.43.45-.28.76-.37,2.36-1.26,1.56-2.29-.73-.94-2.99-.45-3.83-.04h0Z"/>
    <path class="cls-5" d="M434.84,309.12c-3.77,1.84-6.39,5.02-6.92,9.26-.25,1.98.04,4.02.97,5.8.46.88,1.39,1.97,1.13,3.05-.18.75-.83,1.05-1.45,1.38-1.89,1.01-3.62,2.18-3.56,4.56.07,2.43,1.84,4.26,2.52,6.5,1.59,5.24-5.55,7.76-6.14,12.58-.15,1.22.3,2.05.81,3.11.34.71.45,1.22.26,2-.13.56-.38,1.14-.33,1.73.21,2.57,4.42,1.55,5.84,1.11,2.54-.79,4.37-2.21,3.85-5.09-.42-2.33-2.22-4.82-.49-7.03,1.08-1.38,2.8-2.13,4-3.41,1.35-1.44,1.61-3.13.95-4.98-.63-1.77-1.97-3.45-2.01-5.39-.05-2.19,2.34-3.07,3.54-4.55,1.56-1.93.64-4.27.02-6.37-.36-1.21-.7-2.54-.27-3.77.42-1.2,1.37-2.14,2.04-3.2,3.01-4.8,2.14-10.91,1.28-16.19-.16-.98-6.01.25-5.8,1.55.72,4.42,1.5,9.31-.15,13.62-.4,1.04-.94,2-1.59,2.9s-1.37,1.8-1.64,2.92c-.46,1.92.38,3.73.88,5.55.56,2.08.26,3.55-1.44,4.93-1.4,1.13-2.78,2.34-2.66,4.3.18,3.19,4.21,6.52,1.34,9.54-1.19,1.25-2.79,2-3.93,3.32-1.52,1.75-1.17,3.75-.47,5.8.35,1.03.76,2.12.7,3.23-.02.33-.06.61-.19.92.04-.09-.32.54-.32.58,0,0,2.88-.83,2.9-.8.15.02.15,0,0-.05-.11-.05-.21-.11-.29-.19-.59-.86-.07-1.75.09-2.67.22-1.31-.63-2.09-1-3.27-1.42-4.56,5.11-7.42,6.1-11.4.57-2.29-.62-4.15-1.62-6.11-.83-1.63-1.78-4.35.08-5.66,1.36-.96,3.52-1.46,3.91-3.33.26-1.24-.54-2.21-1.09-3.25-.44-.83-.74-1.74-.9-2.67-.63-3.57.84-8.57,4.35-10.28.52-.26,1.92-.96.76-1.34-1.09-.36-3.08.31-4.04.79h0Z"/>
    <path class="cls-5" d="M448.66,309.74c-3.94,1.92-6.95,5.4-7.45,9.88-.22,1.95-.01,3.97.84,5.76.41.85,1.38,1.9,1.28,2.9-.07.71-.51.7-1.18,1.06-2,1.08-3.82,2.47-3.84,4.94-.02,2.62,1.79,4.47,2.52,6.86.73,2.41-.69,4.26-2.25,5.96-1.67,1.82-3.65,3.81-3.91,6.42-.13,1.3.28,2.18.83,3.32.6,1.25-.05,2.05-.07,3.33-.04,2.86,3.67,2.78,5.62,2.25,2.72-.75,4.54-2.72,4.09-5.63-.32-2.12-2.29-4.8-.59-6.76,1.15-1.34,2.87-2.12,4.06-3.46,1.33-1.51,1.66-3.35,1.02-5.25-.59-1.74-2.07-3.52-2.06-5.42,0-1.93,2.46-2.84,3.48-4.21,1.6-2.14.76-4.52.08-6.82-.33-1.11-.65-2.28-.28-3.43.4-1.23,1.45-2.2,2.1-3.31,2.9-5,2.12-10.98,1.24-16.43-.31-1.88-6.13-.53-5.8,1.55.72,4.41,1.45,9.16-.19,13.46-.78,2.04-2.63,3.54-3.19,5.66-.52,1.94.32,3.87.84,5.71.22.8.46,1.66.29,2.49-.19.93-.82,1.42-1.53,1.99-1.48,1.19-2.86,2.54-2.83,4.57.04,2.88,4.08,6.65,1.55,9.26-1.14,1.18-2.65,1.93-3.78,3.15-1.52,1.65-1.76,3.6-1.11,5.72.35,1.14.9,2.27.97,3.48,0,.1-.24,1.48-.27,1.44l-.06.08c.29-.34.67-.5,1.14-.5-.42.11,1.36-.49,1.26-.13-.02.07-.19-.19-.18-.26,0-.28-.04-.43,0-.71.08-.51.31-.99.36-1.51.13-1.32-.7-2.11-1.05-3.29-.66-2.18,1.06-4.24,2.45-5.72,1.5-1.6,3.18-3.3,3.69-5.51.54-2.34-.65-4.28-1.67-6.28-.69-1.36-1.65-3.98-.26-4.89,1.59-1.04,3.92-1.79,4.3-3.94.21-1.2-.43-2.14-.98-3.14-.48-.88-.83-1.81-1.02-2.79-.38-1.95-.09-3.96.67-5.78.36-.87.88-1.7,1.5-2.41.29-.33.61-.64.96-.91-.05.04.35-.26.23-.18.06-.04.74-.43.45-.29.74-.36,2.37-1.23,1.56-2.26-.73-.92-3-.42-3.83-.02h0Z"/>
    <path class="cls-4" d="M418.62,309.2c3,8.18,12.85,16.91,19.21,22.9,6.51,6.13,9.54,7.67,18.04,9.1,16.57,2.79,34.01,1.51,49.54-5.45,16.02-7.18,28.68-20.18,35.87-36.49,5.02-11.4,3.74-23.2,4.4-35.17-.12-1.26-1.23-8.91-1.35-10.17-8.56-20.68-7.5-25.48-29.43-32.43-13.45-4.42-24-14.4-46.49-8.9-4.85,1.19-10.5,5.81-16.79,7.98-9.48,3.27-20.17,9.65-24.9,16.77-6.91,10.42-9.08,25.44-11.22,39.64-1.62,10.76-.69,21.79,3.05,32.01.02.06.05.13.07.19Z"/>
    <path class="cls-18" d="M540.03,329.02c1.81-7.17,1.89-18.98.66-22.94.56-3.36,1.2-7.26,1.94-11.98.21-1.37.38-2.68.54-3.99.02-.68.09-1.35.23-2.02,2.39-23.14-3.59-36.24-3.59-36.24-7.66-16.6-23.56-27.89-41.77-29.64-21.37-2.51-42.35,7.76-54.15,19.37-5.86,5.75-9.38,13.46-9.9,21.65-.45,7,4.73,15.52,5.57,23.3-7.4-1.37-17.13-.57-16.29,13.48,1.17,19.39,15.01,22.94,21.87,19.77,3.5,9.25,3.34,14.43,3.1,19.71-.25,5.48-3.1,15.49-4.42,17.63l-14.44,3.69c12.54,28.04,60.22,52.63,82.51,15.2l-10.58-7.11.59-5.31c.51.03-.49-.04,7.7-1.47,24.79-5.73,28.3-24.66,30.43-33.11Z"/>
    <path class="cls-24" d="M501.58,367.4l.45-4.02s-24.75-.64-38.88-15.23c0,0,9.37,13.22,21.4,16.63,12.03,3.41,17.04,2.62,17.04,2.62Z"/>
    <path class="cls-26" d="M396.17,371.67s13.21-7.29,22.97-9.2c13.88-2.71,25.23-6.46,25.23-6.46,0,0,10.62,30.09,36.08,32.04,31.77,2.42,22.03-19.3,22.03-19.3,0,0,25.81,12.56,36.59,24.05,8.87,9.46,17.55,34.63-.13,53.77-17.67,19.14-131.46,6.94-131.46,6.94,0,0-11.54-30.76-13.82-47.09-2.29-16.33,2.5-34.74,2.5-34.74Z"/>
    <path class="cls-18" d="M504.79,615.91c0,.28-.06.56-.2.8-1.21,2.09-7.18,10.69-8.28,19.39-.99,7.83-2.43,19.21-2.93,23.15-.12.93.64,1.77,1.6,1.75,1.34-.04,3.18-.74,4.55-3.75,1.33-3.31,2.36-6.74,3.07-10.23.25-1.23,1.79-1.68,2.69-.78h0c.36.36.52.86.43,1.35l-1.93,10.9c-.1.59-.55,1.06-1.14,1.22-2.19.58-7.47,2.27-9.28,5.52-.54.97.18,2.18,1.32,2.26l7.27.5c.1,0,.2,0,.29,0l7.31-.81c.29-.03.56-.14.79-.31l7.11-5.39c.22-.17.39-.39.5-.65l7.57-18.71c.69-1.7.94-3.55.69-5.37-.72-5.21-1.16-10.45-1.31-15.69-.04-10.25.04-16.84.09-19.89.02-1.01-.94-1.76-1.95-1.55l-17.35,3.74c-.74.16-1.26.81-1.24,1.55l.32,10.99Z"/>
    <path class="cls-26" d="M529.92,457.74s25.24-7.2,35-46.28c0,0-22.27-30.49-44.01-34.55-21.75-4.05-18.89,21.01-18.89,21.01,0,0-15.88,17.6,27.89,59.82Z"/>
    <path class="cls-29" d="M537.94,537.66c.42-9.89.83-19.92,1.22-30.14-.02,0-.03.01-.05.02.27-1.77.47-3.69.45-5.96.81-10.69-.6-35.08.13-46.08-2.68-14.57-4.44-45.52-11.77-69.62-.55-1.8-1.3-3.54-2.26-5.16-.84-1.41-1.8-3.06-1.89-3.12-1.72-1.1-8.99-2.64-13.99-5.06,2.01,4.83,9.56,19.24,7.27,33.44-.96,5.93-1.99,11.13-7.63,12.59-16.94,4.38-39.38,2.19-46.95-15.79-5.18-12.29-12.35-23.19-17.65-35.3-2.49-5.68-2.73-4.96-6.04-10.34-5.75.99-19.99,5.76-26.06,7.23,9.34,3.75,10.71,11.34,12.89,19.42,2.88,10.65,7.08,29.36,2.59,41.43-2.45,6.58-2.98,11.11-7.38,16.64-2.14,2.69-4.85,4.87-7.88,6.47-6.13,3.24-11.78,5.01-18.89,5.07-3.48.03-3.04-.65-4.45,2.14-.18.36-.33.73-.45,1.12-3.84,12.43-5.74,25.43-8.25,38.18-1.88,7.07-4.5,17-7.58,28.71,52.09,19.4,111,33.72,164.62,14.11Z"/>
    <path class="cls-29" d="M538.45,536.32c-46.23,22.02-98.54,5.31-144.86-7.4-5.64-1.55-5.21-19.41-11.02-20.04-3.56-.39-4.34,2.31-6.77,5.23-1.87,2.25-6.29,6.81-10.42,20.76-.76,2.58-1.47,5.16-1.91,7.81-5.84,35.8-7.48,72.05-9.19,108.23-1.29,27.34-.59,55.47-4.26,82.63,12.79,7.57,19.16-2.32,36.16,9.28,14.99,10.23,24,5.05,36.61,0,12.61-5.05,23.12-3.37,39.42,1.68,16.29,5.05,26.02-4.25,35.48-4.67,9.46-.42,9.84,2.64,29.57,1.39,16.78-1.06,22.36-4.42,22.36-7.41-3.59-68.94-6.65-130.03-11.19-197.5Z"/>
    <g>
      <path class="cls-5" d="M443.88,295.05c-.03-.11.91-4.57.8.99-.06,2.79-2.78-6.58-4.92-8.68-.98-.96-2.15-2.04-3.42-2.73-1.28-.69-2.64-1.47-4.08-1.79-2-.68-7.32,1.76-9.36,2.11-.35.11,2.18,3.62,1.83,3.72-4.18-16.38-5.66-29.69,7.91-47.94,3.92-5.26,13.66-10.53,16.65-12.24,18.09-10.2,33.65-9.54,52.61-5.9,21.97,4.22,39.87,14.75,43.6,36.3.9,5.2-.41,6.22-1.26,11.34,0,0,4.33-9.75-5.94-16.79-10.27-7.05-12.3-7.31-27.42-8.48-17.5-1.41-22.57-4.66-37.04.86-13.21,5.06-16.26,10.13-16.26,10.13-1.02,2.95-3.11,5.37-4.62,8.08-1.48,2.67-2.17,5.58-2.58,8.59-.84,6.16-1.46,3.88-1.37,10.14.06,3.89.48,11.49-3.6,13.67-1.82.97.3-.59-1.53-1.38Z"/>
      <path class="cls-5" d="M444.15,294.98c0-.23.09-.48.14-.7.04-.16.11-.33.14-.5,0-.04.08-.17.08-.22.02-.05.04-.1.07-.15.09-.14,0-.13-.28.03-.12.41.13,1.35.13,1.79,0,.22-.16.97-.04,1.18.17.3.19-.02.18-.15-.03-.31-.45-.85-.58-1.14-.26-.58-.51-1.18-.76-1.77-.58-1.36-1.15-2.73-1.84-4.04-1.68-3.17-5.08-5.48-8.47-6.49-2.71-.8-5.72.7-8.26,1.51-.68.22-2.21.16-1.93,1.07.14.47,2.02,3.01,1.81,3.22l.48-.03c-1.49-5.87-2.8-11.85-2.92-17.93-.12-6.31,1.2-12.5,3.79-18.25,1.63-3.63,3.71-7.06,6.01-10.3,1.92-2.7,4.2-4.87,6.85-6.85,4.74-3.52,10.06-6.62,15.41-9.14,6.77-3.19,14.02-5.15,21.49-5.67,7.36-.52,14.75.28,22.01,1.52,12.01,2.06,24.29,5.47,33.89,13.33,4.33,3.55,7.92,7.95,10.35,13,2.47,5.14,4.57,11.62,3.15,17.3-.39,1.55-.79,3.08-1.06,4.65-.04.22.47.07.53-.07,1.07-2.43,1.16-5.45.56-8-1.35-5.75-6.42-8.99-11.14-11.9-3.6-2.21-7.33-3.69-11.51-4.35-6.47-1.02-13.06-1.16-19.56-1.98-5.27-.66-10.58-1.63-15.91-1.34-6.01.33-11.83,2.31-17.27,4.78-4.04,1.83-8.25,4.06-11.34,7.32-.35.37-.75.77-1.01,1.22-.41.72-.64,1.57-1.04,2.31-.47.87-1.01,1.7-1.55,2.53-.94,1.44-1.91,2.87-2.63,4.43-1.55,3.36-1.73,6.93-2.51,10.48-.41,1.84-.83,3.48-.85,5.39-.03,2.7.16,5.4-.11,8.09-.14,1.35-.37,2.72-.85,3.99-.42,1.11-1.3,2.78-2.53,3.18-.59.19-.22-.08-.3-.51-.09-.48-.45-.71-.85-.92-.15-.08-.64.14-.43.25.34.18.67.41.74.81.03.17-.1.42-.06.58.05.17-.05.21.14.31.43.24,1.51-.62,1.79-.84,1.81-1.41,2.46-3.83,2.76-5.99.65-4.55-.27-9.14.88-13.62.83-3.21.92-6.54,2.06-9.69,1.24-3.45,3.75-6.16,5.29-9.45.48-1.02.67-1.61,1.42-2.42,1.14-1.23,2.49-2.28,3.87-3.23,5.39-3.69,11.82-6.37,18.17-7.85,5.26-1.23,10.49-.99,15.8-.32,6.54.82,13.07,1.49,19.63,2.07,4.62.41,9.27.93,13.51,2.92,2.13,1,4.13,2.26,6.09,3.55,2.69,1.78,5.34,3.61,7.09,6.38,2.09,3.31,2.56,7.51,1.33,11.23-.07.22-.14.43-.24.64l.53-.07c.5-2.91,1.66-5.75,1.56-8.73-.11-3.22-1.02-6.54-2.1-9.57-1.93-5.4-5.08-10.3-9.17-14.31-8.63-8.46-20.55-12.74-32.19-15.04-14.41-2.84-29.16-4.03-43.22,1.09-5.96,2.17-11.58,5.3-16.91,8.7-2.65,1.69-5.27,3.51-7.57,5.65-2.62,2.44-4.6,5.51-6.44,8.56-3.52,5.83-6.03,12.25-6.71,19.05-.62,6.11.22,12.24,1.54,18.2.37,1.65.77,3.3,1.18,4.94.04.17.4.04.48-.03.39-.38-.92-2.07-1.13-2.42-.14-.24-.71-1.24-.7-1.25.11-.13.92-.24,1.09-.29.45-.14.89-.28,1.34-.43,1.81-.6,3.9-1.52,5.84-1.45,1.25.05,2.49.69,3.58,1.26,1.45.76,2.75,1.63,3.95,2.75,2.3,2.15,3.22,5.4,4.46,8.2.17.38.51,1.57,1.05,1.62.85.08.55-1.58.54-1.98,0-.38.09-2.17-.78-1.47-.38.31-.56,1.4-.56,1.86,0,.16.53.06.53-.14Z"/>
    </g>
    <path class="cls-18" d="M441.42,285.93c.96.48,9.32-2.71,10.11-1.48,19.88-26.62,68.57-37.1,91.24-10.9-.58-4.49-.15-12.84-.69-14.42-6.95-20.13-24.23-29.54-43.99-33.54-19.76-4-45.16-.49-59.67,18.53-14.07,18.44-17.98,36.25,3.01,41.82Z"/>
    <g>
      <path class="cls-5" d="M463.56,261.38l-.28-.8c-1.19,1.64-2.99,2.83-4.97,3.26-1.17.26-2.68.52-2.9,1.69-.06.34.01.7-.05,1.05-.4,2.2-4.36.37-5.9,1.99-1.3,1.36.25,3.94-.95,5.39-1.07,1.29-3.45.62-4.51,1.91-1.32,1.6.67,4.58-.93,5.89-1.16.94-3.15-.03-4.27.96-.53.47-.67,1.22-.85,1.94,3.4,1.59,6.76,3.43,10.36,5.06.13-.81.16-1.66.08-2.45-.07-.7-.15-1.48.27-2.05.93-1.25,3.05-.22,4.43-.96,2.41-1.29-.11-5.69,1.88-7.57,1.19-1.13,3.45-.67,4.38-2.03,1.21-1.77-1.05-4.95.78-6.06.56-.34,1.28-.26,1.91-.43,1.26-.34,2.04-1.66,2.17-2.96.13-1.3-.27-2.58-.66-3.82Z"/>
      <path class="cls-5" d="M463.69,261.35l-.28-.8c-.02-.06-.21,0-.24.04-1.36,1.79-3.14,2.8-5.32,3.31-.8.19-1.86.39-2.35,1.14-.38.58-.03,1.32-.36,1.88-.53.9-1.74.81-2.65.83-.84.02-1.76,0-2.53.39-.87.43-1.16,1.26-1.18,2.19-.01.67.11,1.35.1,2.02-.04,1.54-.98,2.16-2.45,2.48-.85.18-1.8.27-2.44.93-.82.85-.59,2.12-.47,3.18.09.79.3,2-.37,2.62-.57.53-1.6.58-2.35.59-.34,0-.67,0-1,.07-1.31.24-1.67,1.22-1.97,2.44,0,0,0,.02,0,.02,3.48,1.64,6.87,3.47,10.38,5.07.04.02.21-.01.22-.07.14-.95.09-1.86.05-2.81-.05-1.2.02-2.04,1.7-2.27.42-.06.89.02,1.31,0,.92-.02,1.89-.18,2.44-1.01.68-1.03.4-2.51.35-3.66-.03-.8-.06-1.67.25-2.42.52-1.26,1.88-1.46,3.05-1.78s2.07-.82,2.24-2.07c.19-1.36-.64-2.81-.25-4.14.37-1.24,1.88-1.01,2.85-1.43.46-.2.84-.52,1.15-.92,1.33-1.71.69-3.95.11-5.82-.02-.06-.26,0-.25.07.56,1.78,1.39,4.58-.32,6.04-.83.71-1.77.61-2.69.96-.37.14-.71.36-.91.71-.59.99-.05,2.41.06,3.45.08.76.1,1.74-.51,2.32-.83.78-2.02.78-3.03,1.14-2.42.86-1.96,3.31-1.92,5.4.01.65.01,1.4-.3,1.99-.66,1.24-2.15,1.02-3.35,1.06-.77.02-1.57.17-1.98.89-.34.59-.23,1.26-.19,1.91.03.4.18,1.04.03,1.42-.35.88-1.17.35-1.79.05-1.94-.93-3.86-1.92-5.79-2.88-.65-.32-2.43-.8-2.55-1.62-.12-.77.7-1.22,1.19-1.51.88-.5,1.11-.47,2.01-.5.81-.03,1.69-.18,2.17-.92.65-1.02.16-2.41.12-3.52s.13-1.82,1.09-2.46c.68-.46,1.8-.4,2.58-.64,3.29-1.02.34-4.84,2.61-6.39,1.3-.89,3.03-.2,4.46-.66.95-.31,1.03-.9,1.11-1.81.15-1.62,1.93-1.71,3.18-2.06.75-.21,1.48-.51,2.15-.91.61-.36,1.18-.8,1.69-1.3.17-.17.72-.81.67-.83.11.06.18.53.23.67.02.06.27,0,.25-.07Z"/>
    </g>
    <g>
      <path class="cls-5" d="M460.8,249.45c.94,1.15,1.02,2.92.21,4.16-.82,1.24-2.48,1.85-3.9,1.44.46,1.87-.9,3.98-2.79,4.33-.81.15-1.7.03-2.41.46-1.73,1.05-.8,4.27-2.55,5.29-.66.39-1.52.31-2.17.71-1.33.82-.97,2.97-2.02,4.14-1.28,1.43-3.98.71-5.18,2.21-.84,1.05-.65,2.92-1.89,3.45-.65.28-1.48.04-2.04.46-.69.51-.51,1.55-.6,2.4-.23,2.1-2.91,3.5-4.76,2.48-.2,1.41-1.01,2.71-2.18,3.52-.73-1.46-1.48-2.97-1.57-4.6-.09-1.63.66-3.43,2.17-4.05.59-.24,1.26-.3,1.77-.68,1.29-.96.81-3.32,2.17-4.17.91-.58,2.32-.2,3-1.03.33-.4.37-.96.51-1.46.48-1.78,2.5-2.97,4.29-2.55.51.12,1.03.35,1.53.2,1.44-.44.49-2.79,1.29-4.07.79-1.25,2.99-1.01,3.65-2.34.22-.44.2-.96.37-1.43.27-.73.97-1.2,1.63-1.62,3.39-2.15,6.84-4.18,10.37-6.09"/>
      <path class="cls-5" d="M460.69,249.5c1.87,2.59-.16,6.25-3.51,5.48-.05-.01-.21.02-.2.1.2,1.06-.03,2.1-.69,2.96-.99,1.29-2.24,1.13-3.65,1.46-1.27.3-1.75,1.22-2.02,2.43-.18.81-.23,1.72-.66,2.45-.69,1.16-1.9.82-2.85,1.42-1.16.74-1.1,2.3-1.61,3.43-.9,2.02-3.26,1.41-4.89,2.34-1.31.75-1.14,2.17-1.85,3.33-.92,1.48-3.02.23-3.35,2.28-.16.97.02,1.8-.6,2.66-.91,1.26-2.61,1.73-4.01,1.06-.06-.03-.21,0-.22.08-.14.77-.81,3.09-1.84,3.03-.48-.03-.23-.01-.49-.37-.15-.2-.27-.57-.38-.81-.23-.54-.45-1.1-.59-1.68-.25-1.02-.3-2.08.03-3.08.5-1.51,1.54-1.98,2.94-2.53,1.19-.47,1.5-1.36,1.82-2.53.35-1.28.76-2.09,2.22-2.34.54-.09,1.16-.12,1.62-.47s.55-.82.69-1.34c.37-1.36,1.23-2.49,2.68-2.83,1-.24,1.77.27,2.71.23.41-.01.8-.16,1.05-.5.88-1.15-.08-2.85,1.01-3.96.91-.93,2.59-.78,3.31-1.96.23-.37.24-.79.35-1.2.22-.8.74-1.28,1.4-1.74,1.08-.74,2.23-1.4,3.35-2.08,2.4-1.45,4.84-2.85,7.3-4.19.15-.08-.07-.12-.15-.08-2.18,1.19-4.34,2.42-6.48,3.69-1.03.62-2.06,1.25-3.08,1.88-.72.45-1.61.9-2.14,1.58-.41.53-.4,1.07-.6,1.69-.39,1.2-1.65,1.33-2.64,1.78-1.18.55-1.45,1.41-1.52,2.67s-.07,2.3-1.86,2.12c-.62-.06-1.11-.25-1.75-.14-1.2.19-2.33.97-2.88,2.06-.16.32-.2.67-.33.99-.41,1.06-1.33,1.49-2.36,1.7-.46.09-.9.22-1.26.53-1.06.93-.64,2.67-1.57,3.63-.75.78-1.99.8-2.83,1.46-.57.44-.97,1.06-1.22,1.73-.84,2.26.28,4.57,1.28,6.57.03.07.15.04.2,0,.75-.56,1.37-1.22,1.77-2.08.11-.23.3-1.19.5-1.29.12-.06.74.2.91.21,1.33.11,2.75-.61,3.42-1.76.47-.8.21-1.62.46-2.46.27-.92,1.3-1.14,2.11-1.34.27-.07.46-.12.68-.28.57-.4.76-1.09.96-1.72.18-.56.32-1.13.71-1.6.65-.79,1.63-.93,2.57-1.11,1.37-.27,2.55-.63,3.12-2.02s.38-2.81,2.1-3.45c.71-.26,1.41-.23,1.97-.82.49-.51.65-1.23.8-1.9.09-.43.15-.87.26-1.29.29-1.13.92-1.72,2.11-2.05.85-.23,1.57-.09,2.37-.55.7-.41,1.26-1.06,1.58-1.8.2-.46.28-.91.31-1.4.04-.58-.17-.51.41-.58.77-.09,1.39-.08,2.1-.47,1.99-1.08,2.37-3.6,1.09-5.37-.05-.07-.29.01-.23.1h0Z"/>
    </g>
    <g>
      <path class="cls-5" d="M458.46,245.06c.25,2.3-1.74,4.6-4.06,4.67-.45.01-.93-.04-1.34.15-.86.4-.96,1.55-1.36,2.41-.91,1.94-3.48,2.39-5.62,2.18-1.37-.14-3.12-.24-3.71,1-.23.49-.2,1.09-.51,1.53-.83,1.18-3.23.31-3.79,1.64-.26.61.09,1.33-.13,1.95-.48,1.31-2.58.7-3.72,1.51-.53.38-.78,1.02-1.01,1.63-.69,1.86-1.37,3.71-2.06,5.57-.17.46-.4.97-.87,1.09-.79.2-1.29-.84-1.41-1.65-.67-4.57-.14-9.3,1.5-13.61.41-1.08,1.23-2.32,2.36-2.13.38.06.75.29,1.12.17.6-.19.58-1.01.58-1.64.02-2.58,2.92-4.69,5.38-3.92.66.21,1.42.57,1.99.18.38-.26.5-.76.74-1.16.62-1.01,2.01-1.22,3.19-1.1s2.39.46,3.53.14c1.43-.4,2.53-1.78,4.01-1.86,1.8-.09,3.57,1.77,5.17.95"/>
      <path class="cls-5" d="M458.34,245.09c.14,2.32-1.58,4.35-3.91,4.55-.97.08-1.68.05-2.21.98-.32.56-.41,1.24-.72,1.8-.52.95-1.46,1.51-2.49,1.78-1.49.4-2.92.05-4.42.11-.86.04-1.79.23-2.27,1.01s-.35,1.66-1.32,2.14c-.53.27-1.25.19-1.83.32-.8.19-1.27.58-1.33,1.43-.04.63.09.91-.31,1.5-.46.68-.91.67-1.65.79-.46.07-.93.12-1.36.32-.97.45-1.27,1.43-1.62,2.37s-.69,1.86-1.03,2.78c-.17.46-.34.93-.51,1.39-.1.27-.2.55-.31.82-.26.66-.12.62-.95.66-.72.03-.73.08-.96-.53-.08-.2-.12-.42-.16-.63-.08-.44-.12-.89-.16-1.33-.11-1.1-.14-2.22-.11-3.33.05-1.86.29-3.72.72-5.53.21-.87.45-1.73.75-2.57.17-.48.33-.97.56-1.41.41-.78.63-1.01,1.51-1.21.77-.17,1.82.23,2.18-.7.19-.49.07-1.08.15-1.6.14-.88.59-1.67,1.22-2.29.78-.76,1.92-1.27,3.01-1.22.75.03,1.4.43,2.14.49.34.03.65,0,.94-.21.25-.18.37-.45.51-.71.36-.67.92-1.23,1.69-1.42,1.83-.45,3.69.61,5.5-.06.57-.21,1.06-.56,1.57-.87,1.36-.84,2.54-.99,4.01-.4,1.11.44,2.14.94,3.3.46.16-.06.02-.17-.1-.12-1.8.73-3.46-1.16-5.27-.95-1.92.22-3.06,1.95-5.12,1.96-1.5.01-2.96-.62-4.43-.01-.37.15-.7.36-.96.66-.64.74-.38,1.64-2.05,1.4-.34-.05-.68-.24-1.02-.31-2.31-.48-4.85,1.29-5.2,3.62-.05.34.02.71-.05,1.04-.12.55.28.82-1.11.91-.13,0-.26-.11-.39-.1-.38.04-.64,0-1,.16-1.24.6-1.69,2.35-2.07,3.54-1.2,3.78-1.84,8.38-.96,12.32.16.73.62,1.78,1.55,1.52,1.13-.31,1.48-2.61,1.8-3.49.43-1.17.82-2.38,1.31-3.53.56-1.33,1.55-1.59,2.87-1.82.9-.15,1.68-.42,1.83-1.42.1-.68-.16-1.02.3-1.66.43-.6.85-.62,1.55-.71.49-.07,1.02-.11,1.46-.37.32-.18.52-.4.68-.74.14-.3.12-.66.25-.96.51-1.1,1.55-1.32,2.67-1.29,2.76.08,5.87.29,7.01-2.8.33-.91.57-1.56,1.65-1.85.4-.11.95,0,1.37-.1.65-.14,1.26-.44,1.78-.85,1.19-.94,1.83-2.34,1.74-3.84,0-.1-.25-.04-.25.07h0Z"/>
    </g>
    <g>
      <path class="cls-5" d="M455.25,242.1c-2.93,1.02-5.74-3.46-8.64-2.37-1.4.53-2.47,2.3-3.92,1.9-.66-.18-1.19-.81-1.88-.81-1.43.01-1.38,2.28-2.4,3.28-1.28,1.25-3.75.06-5.06,1.28-.37.34-.57.83-.91,1.19-.64.69-1.64.88-2.53,1.19-.89.31-1.83.96-1.85,1.9-1.66-3.43-.44-8,2.72-10.13.34-.23.71-.44.94-.78.23-.33.3-.74.4-1.13.53-1.95,2.18-3.55,4.14-4.03.68-.17,1.44-.23,1.97-.69.74-.66.71-1.82,1.15-2.7,1.03-2.07,4.04-1.97,5.94-3.29.79-.55,1.38-1.35,2.13-1.95.8-.64,1.79-1.06,2.82-1.17.81-.09,1.79.09,2.16.81.26.5.15,1.11.29,1.65.35,1.38,2.03,1.87,3.44,2.04,1.41.17,3.07.4,3.75,1.65.96,1.77-.9,3.83-.82,5.84.04.88.45,1.73.41,2.61-.04.81-.46,1.54-.87,2.24-.72,1.24-1.44,2.47-2.17,3.71"/>
      <path class="cls-5" d="M455.22,242.01c-2.83.83-4.82-2.48-7.55-2.55-1.28-.03-2.12.82-3.1,1.5-.84.59-1.47.73-2.56.21-.27-.13-.49-.32-.79-.39s-.62-.07-.91.06c-.88.39-1.07,1.61-1.44,2.38-.99,2.04-3.04,1.07-4.74,1.63-.48.16-.79.41-1.13.77-.27.3-.37.61-.66.91-.59.61-1.34.76-2.1,1.03-1.07.38-2.12.87-2.3,2.1l.27-.05c-.84-1.85-.95-3.91-.35-5.85.32-1.05.86-2.04,1.57-2.87.65-.76,1.57-1.18,2.23-1.89.6-.65.62-1.61,1-2.38.61-1.25,1.71-2.24,3-2.74,1.57-.62,2.87-.44,3.43-2.27.37-1.22.7-2.15,1.9-2.79.85-.46,1.79-.69,2.7-1.02.76-.27,1.48-.6,2.11-1.11,1.05-.85,1.8-1.92,3.09-2.46.75-.31,1.8-.56,2.6-.28.98.35.95,1.06,1.09,1.9.13.8.47,1.36,1.16,1.78,1.6.99,3.67.49,5.26,1.47,2.49,1.54-.04,4.59.02,6.69.02.74.32,1.44.37,2.17.06.85-.21,1.55-.62,2.29-.75,1.37-1.58,2.71-2.37,4.06-.07.12.2.11.25.02,1.3-2.22,3.43-4.6,2.87-7.3-.3-1.41-.15-2.43.32-3.77.33-.96.77-2.04.4-3.06-.7-1.97-3.22-1.79-4.87-2.17-1.27-.3-2.29-.9-2.53-2.25-.18-1.03-.23-1.74-1.35-2.03-1.71-.45-3.52.58-4.71,1.72s-2.14,1.83-3.64,2.34c-.83.28-1.69.52-2.44.96-.7.41-1.22.95-1.53,1.71-.17.43-.24.88-.39,1.32-.41,1.17-1.45,1.43-2.5,1.71-1.9.49-3.48,1.91-4.14,3.76-.28.79-.44,1.52-1.15,2.04-.46.34-.91.64-1.32,1.04-.76.75-1.36,1.66-1.77,2.64-.91,2.16-.91,4.58.06,6.71.04.1.25.05.27-.05.3-2.06,2.82-1.74,4.1-2.81.92-.76,1.2-1.78,2.6-1.96.7-.09,1.42,0,2.12-.1.87-.13,1.54-.52,1.97-1.3.27-.48.42-1.01.64-1.51.11-.25.26-.61.49-.79.89-.7,1.49.12,2.15.39.8.33,1.5.13,2.21-.32s1.32-1.14,2.15-1.44c.95-.35,1.88-.09,2.75.33,1.85.89,3.68,2.67,5.89,2.02.16-.05.12-.21-.04-.16h0Z"/>
    </g>
    <g>
      <path class="cls-5" d="M463.53,242.71c1.74-.64,2.59-2.99,1.67-4.6-.31-.53-.78-1.14-.5-1.69.12-.24.36-.38.57-.55,1.33-1.05,1.47-3.28.29-4.5-.25-.26-.55-.48-.71-.79-.66-1.31,1.45-3.04.5-4.17-.79-.95-2.48.14-3.55-.48-1.04-.6-.8-2.34-1.76-3.06-1.44-1.07-4.17,1.01-5.01-.57-.44-.83.35-1.84,1.24-2.11.89-.27,1.86-.1,2.79-.22,2.4-.3,4.14-2.4,6.33-3.44,2.28-1.08,4.93-.96,7.45-.82,1.08.06,2.2.13,3.17.62,1.49.75,2.41,2.5,2.17,4.16-.05.32-.13.68.06.95.11.16.29.25.46.33.85.42,1.7.83,2.55,1.25.32.16.67.35.8.68.3.77-.76,1.37-1.59,1.37s-1.85-.08-2.27.64c-.78,1.33,1.89,2.63,1.47,4.12-.43,1.54-3.3.86-3.92,2.33-.36.88.4,1.86.23,2.8-.17.96-1.23,1.48-2.19,1.67-.96.19-2.01.24-2.76.87-.57.47-.86,1.2-1.27,1.82-1.24,1.88-3.51,2.76-5.63,3.52"/>
      <path class="cls-5" d="M463.6,242.72c1.08-.47,1.84-1.39,2.05-2.57.11-.6.05-1.23-.18-1.8-.18-.43-.57-.82-.67-1.29-.16-.74.4-.98.83-1.41.89-.9,1.12-2.38.59-3.53-.31-.67-1.13-1.11-1.32-1.81-.21-.73.29-1.51.56-2.17.38-.94.41-1.97-.79-2.17-.55-.09-1.11.09-1.65.1-1.34,0-1.65-.7-2.02-1.8s-.86-1.78-2.07-1.77c-1.12.01-3.68,1.12-3.86-.67-.22-2.21,3.63-1.59,5.1-2.1s2.65-1.54,3.92-2.39c2.33-1.56,4.91-1.78,7.64-1.66,2.23.1,4.75.15,5.92,2.4.41.78.49,1.55.43,2.42-.06,1.06.22,1.13,1.16,1.6.69.34,2.43.81,2.71,1.61.41,1.17-1.94,1.2-2.75,1.36-.76.15-1.4.64-1.21,1.49.26,1.16,1.91,1.95,1.55,3.26-.39,1.4-2.61.97-3.55,1.87-.5.47-.48,1.05-.34,1.68.43,2.01-.05,2.82-2.35,3.29-1.41.29-2.36.55-3.15,1.85-1.44,2.36-3.5,3.36-6.03,4.27-.17.06,0,.08.08.05,1.55-.56,3.16-1.14,4.46-2.2.59-.48,1.06-1.04,1.45-1.68.31-.5.58-1.14,1.06-1.49.75-.54,1.76-.62,2.64-.82.95-.21,2.11-.67,2.32-1.74.19-.97-.68-1.95-.18-2.89.47-.89,1.76-.89,2.62-1.19.8-.28,1.46-.81,1.23-1.74-.33-1.4-3.44-3.55-.04-3.98.77-.1,1.74.06,2.29-.68,1.21-1.64-3.45-2.16-3.77-3.34-.1-.35.08-.82.08-1.19,0-.48-.09-.94-.25-1.39-.29-.79-.81-1.48-1.5-1.96-1.48-1.03-3.63-.93-5.35-.98-1.65-.05-3.33.02-4.9.54-1.66.55-2.97,1.66-4.41,2.61s-2.73,1.16-4.4,1.25c-.54.03-1.11.07-1.6.32-.86.44-1.69,1.75-.62,2.46.89.59,2.28-.08,3.22-.14,2.52-.16,1.61,2.23,3.07,3.28.53.38,1.15.27,1.75.23,1.3-.08,2.49.13,2.02,1.68-.21.69-.7,1.33-.74,2.08-.05,1,.87,1.36,1.28,2.16.45.87.47,1.99.03,2.87-.33.65-1.36,1.11-1.43,1.87-.05.53.44,1.05.65,1.49.2.41.31.86.31,1.32,0,1.34-.76,2.55-2,3.09-.15.06.08.05.14.03h0Z"/>
    </g>
    <g>
      <path class="cls-5" d="M464.62,247.18c.41-2.27,3.79-1.97,5.77-3.15,1.51-.9,2.31-2.83,3.97-3.4,1.2-.41,2.74-.09,3.56-1.05.48-.56.51-1.37.84-2.03,1.25-2.53,5.81-1.71,6.97-4.28,1.05-2.31-1.68-5.45.02-7.33.53-.59,1.38-.84,1.82-1.49.89-1.31-.4-2.98-1.59-4.03-1.66-1.46-3.33-2.93-4.99-4.39,4.18-1.72,8.87-2.2,13.32-1.37,1.63.31,3.31.83,4.47,2.02,1.16,1.19,1.6,3.21.59,4.54-.29.39-.69.7-.92,1.13-1.01,1.89,1.69,4.72.05,6.09-.38.32-.91.42-1.29.75-1.09.96-.16,2.98-1.09,4.09-.81.96-2.42.59-3.49,1.24-.65.39-1.02,1.11-1.53,1.68-.7.79-1.67,1.28-2.62,1.76-2.69,1.35-5.37,2.7-8.06,4.06-1.9.96-3.96,1.94-6.06,1.61-1.7,3.64-6.56,5.42-10.2,3.73"/>
      <path class="cls-5" d="M464.74,247.16c.45-1.85,2.67-2,4.2-2.48,1.13-.35,2.01-.87,2.82-1.73.58-.62,1.12-1.41,1.84-1.87,1.08-.67,2.22-.52,3.36-.88,1.37-.42,1.35-1.56,1.92-2.69,1.27-2.49,4.99-1.63,6.63-3.72,2.04-2.6-2.05-6.22.99-8.39,1.23-.88,1.93-1.75,1.09-3.28-.91-1.67-2.77-2.89-4.17-4.12-.4-.35-2.25-1.56-1.97-2.12.16-.32,1.82-.62,2.11-.7.71-.2,1.44-.37,2.17-.5,2.35-.43,4.78-.49,7.15-.19,2.05.26,4.46.72,5.89,2.36.67.76,1.05,1.75,1.01,2.77-.05,1.25-.92,1.73-1.45,2.72-.57,1.07-.01,2.34.29,3.41.18.62.42,1.36.21,2.01-.3.89-1.41.94-1.95,1.64-.39.51-.38,1.19-.41,1.8-.03.52,0,1.07-.19,1.56-.38.98-1.52,1.11-2.44,1.29-.46.09-.92.19-1.32.44-.88.54-1.3,1.58-2.1,2.22-.97.79-2.19,1.29-3.3,1.84-1.2.6-2.4,1.21-3.61,1.81-2.77,1.39-5.88,3.54-9.09,3.18-.06,0-.17.02-.2.08-1.79,3.61-6.28,5.26-9.98,3.66-.06-.03-.29.07-.2.11,1.85.8,3.89.84,5.79.19,1.95-.67,3.07-1.87,4.33-3.41.6-.74,1.93-.45,2.86-.7,1.44-.38,2.77-1.1,4.09-1.76,2.91-1.47,6.07-2.75,8.82-4.5,1.19-.76,1.79-2.01,3.03-2.63.76-.38,1.35-.42,2.12-.66.32-.1.63-.21.89-.43.62-.51.68-1.29.72-2.03.06-.98-.04-1.58.73-2.23.43-.37,1.07-.6,1.41-1.07,1.11-1.53-.86-3.65-.47-5.34.3-1.3,1.59-1.77,1.66-3.23.05-1.09-.42-2.17-1.16-2.95-1.94-2.04-5.49-2.35-8.13-2.43-3.37-.1-6.7.53-9.82,1.78-.02,0-.11.05-.07.08,1.71,1.5,3.46,2.97,5.13,4.52.7.65,1.47,1.47,1.67,2.44.31,1.43-.9,1.89-1.78,2.67-2.35,2.07,1.01,5.38-.41,7.81-1.39,2.37-5.1,1.48-6.64,3.72-.43.63-.44,1.44-.87,2.06-.77,1.11-2.15.92-3.31,1.21s-1.93,1.12-2.7,1.98c-.86.96-1.7,1.68-2.95,2.08-.75.24-1.53.4-2.29.65-1.05.35-1.97.86-2.25,2-.02.07.23.03.24-.04h0Z"/>
    </g>
    <g>
      <path class="cls-5" d="M467.9,253.07c2.42,2.01,6.3,1.95,8.65-.13.79-.69,1.41-1.57,2.26-2.18,2.49-1.76,6.24-.77,8.64-2.66,1.31-1.03,1.93-2.72,3.2-3.8,2.52-2.15,6.76-1.25,9.13-3.56.61-.59,1.05-1.36,1.76-1.82,1.14-.73,2.68-.47,3.88-1.09,1.59-.82,2.2-2.94,3.83-3.66.97-.43,2.19-.29,3.01-.96,1.43-1.17.63-3.89,2.14-4.96.59-.42,1.39-.44,1.98-.85,1.44-.98.76-3.31-.46-4.55-1.55-1.58-3.64-2.49-5.67-3.37-.48-.2-.95-.41-1.43-.61-2.42-1.04-5.39-2.04-7.53-.5-.42.3-.81.81-.64,1.3.09.25.31.43.52.6,1.55,1.22,3.1,2.45,4.66,3.67-1.58.26-2.04,2.31-1.98,3.92.06,1.6.11,3.55-1.25,4.4-.69.43-1.66.48-2.09,1.17-.33.53-.2,1.23-.38,1.83-.53,1.79-3.07,1.65-4.8,2.35-1.21.49-2.12,1.51-3.12,2.36-1.16.97-2.48,1.73-3.79,2.48-1.19.68-2.37,1.36-3.56,2.04-3.32,1.9-6.63,3.8-10.07,5.48-2.41,1.18-4.88,2.26-7.39,3.21"/>
      <path class="cls-5" d="M467.78,253.11c1.51,1.18,3.41,1.67,5.31,1.4,1.97-.28,3.33-1.31,4.68-2.71s2.84-1.92,4.66-2.19c1.07-.16,2.15-.25,3.19-.57,2.02-.61,2.91-2.04,4.13-3.64,1.95-2.56,4.94-2.41,7.73-3.32.66-.22,1.31-.5,1.88-.91,1.41-1.03,1.77-2.34,3.71-2.74.82-.17,1.67-.2,2.42-.59s1.24-1.02,1.75-1.65c.36-.45.68-.94,1.11-1.33.75-.69,1.71-.86,2.64-1.08.59-.14,1.17-.33,1.59-.8.68-.75.72-1.84.92-2.77.1-.47.2-.96.46-1.37.49-.8,1.39-.86,2.15-1.24,1.62-.8,1.36-2.71.52-4.04-1.34-2.12-4.07-3.17-6.27-4.12-2.08-.89-4.31-2.02-6.63-1.91-.96.05-3.69.7-3.21,2.17.28.86,1.81,1.62,2.47,2.14s1.32.99,1.94,1.53c.71.62.64.35.26.74-.53.54-.93.79-1.2,1.59-.33.98-.26,1.99-.25,3.01,0,1.39-.11,2.93-1.49,3.67-.71.38-1.56.42-1.95,1.23-.29.6-.12,1.32-.4,1.93-.43.9-1.44,1.18-2.33,1.41s-1.84.37-2.69.81c-1.2.61-2.09,1.67-3.13,2.49-1.42,1.12-3.04,1.97-4.61,2.86-6.44,3.68-12.84,7.35-19.77,10.03-.16.06,0,.09.08.06,7.4-2.85,14.21-6.82,21.07-10.76,1.5-.86,2.96-1.74,4.25-2.89.9-.8,1.74-1.59,2.88-2.04.72-.28,1.5-.37,2.24-.57s1.56-.47,2.04-1.11.27-1.38.54-2.1c.35-.94,1.45-1,2.2-1.47,2.76-1.75-.42-7.4,3.16-8.28.01,0,.15-.05.11-.08-1.42-1.12-2.85-2.24-4.27-3.36-1.11-.88-1.28-1.69.32-2.52,1.27-.66,2.87-.39,4.17-.03,1.5.41,2.93,1.09,4.35,1.71,1.4.61,2.8,1.24,4.04,2.13,1.13.82,2.16,1.87,2.45,3.28.11.55.12,1.18-.16,1.69-.48.86-1.42.86-2.2,1.26s-1.11,1.07-1.32,1.91c-.47,1.93-.26,3.13-2.67,3.81-.74.21-1.41.26-2.06.72-.96.68-1.5,1.77-2.31,2.59-1.27,1.3-2.99.93-4.47,1.63-.94.44-1.43,1.33-2.15,2.03-2.03,1.97-5.19,1.6-7.65,2.67-2.69,1.16-3.35,4.48-6.12,5.47-2.47.88-5.36.38-7.5,2.12-1.66,1.35-2.64,2.93-4.91,3.36-1.94.37-3.92-.13-5.47-1.34-.05-.04-.27.06-.23.08h0Z"/>
    </g>
    <g>
      <path class="cls-5" d="M500.44,244.58c-.8-.91.12-2.38,1.25-2.82,1.13-.44,2.43-.35,3.51-.91,1.4-.72,2.09-2.34,3.34-3.3,1.32-1.02,3.08-1.2,4.66-1.75,1.57-.55,3.19-1.86,3.02-3.52-.09-.89-.65-1.93-.02-2.58.63-.66,1.93-.17,2.52-.87.66-.78-.34-1.99-.04-2.97.2-.66.92-1.01,1.6-1.08,2.35-.26,4.26,1.75,5.76,3.58,1.74,2.13,3.49,4.26,5.23,6.39.12.15.24.3.32.47.34.8-.54,1.67-1.41,1.72s-1.67-.41-2.46-.75-1.76-.58-2.49-.12c-.74.46-.96,1.44-1.55,2.07-1.46,1.55-4.15.34-6.14,1.1-1.23.48-2.07,1.68-3.31,2.13-1.26.47-2.67.08-4,.27-1.86.27-3.35,1.63-4.91,2.68-1.57,1.05-3.67,1.8-5.28.82"/>
      <path class="cls-5" d="M500.56,244.52c-1.39-1.99,1.8-2.86,3.14-3.13,1.02-.2,1.86-.53,2.61-1.26,1-.97,1.67-2.23,2.93-2.93,1.24-.69,2.68-.85,4-1.33,1.72-.63,3.37-1.97,3.05-3.97-.17-1.06-.65-2.07,1.17-2.53.27-.07.56-.04.83-.15.68-.29.84-.83.74-1.52-.15-1.03-.93-2.35.93-2.77.91-.21,1.84.03,2.65.46,1.34.71,2.36,1.88,3.31,3.03,1.03,1.25,2.05,2.5,3.08,3.76.46.56.92,1.13,1.38,1.69.22.27.64.62.77.94.4.99-.05,2.1-1.36,2.03-1.89-.1-3.8-2.29-5.33-.11-.37.53-.59,1.16-1.12,1.58-.66.53-1.55.59-2.36.59-1.05,0-2.13-.14-3.15.16-1.32.38-2.13,1.53-3.33,2.11-1.58.75-3.42.07-5.07.58-3.04.93-5.81,5.19-9.3,3.33-.1-.05-.31.08-.19.15,2.43,1.3,4.83-.39,6.79-1.77.85-.6,1.73-1.22,2.74-1.53s1.98-.19,3-.2c1.53-.02,2.46-.53,3.64-1.45,1.58-1.23,2.98-1.17,4.86-1.18,1.01,0,2.05-.12,2.79-.88.33-.33.52-.75.76-1.14,1.06-1.7,2.56-.98,3.93-.42.98.4,2.17.7,2.97-.21.69-.79.21-1.42-.34-2.1-1.32-1.63-2.67-3.26-4-4.88-1.6-1.95-3.55-4.8-6.39-4.77-.72,0-1.59.22-1.99.88-.24.4-.21.83-.14,1.28.05.32.18.62.22.94.16,1.13-.91,1.3-1.77,1.48-.74.16-1.21.53-1.23,1.33-.01.48.19.93.26,1.4.23,1.47-.67,2.59-1.9,3.29-1.56.89-3.45.92-5.02,1.79-1.45.81-2.12,2.35-3.4,3.35-1.44,1.12-3.54.57-4.89,1.8-.71.65-1.08,1.6-.5,2.44.07.1.3,0,.22-.11h0Z"/>
    </g>
    <g>
      <path class="cls-5" d="M514.58,243.2c1.34-1.5,3.94-.22,5.8-1,1.14-.48,1.96-1.73,3.19-1.81,1.48-.1,2.89,1.54,4.23.92.9-.42,1.2-1.7,2.13-2.04.86-.31,1.75.32,2.42.95,2.28,2.13,4.19,4.65,5.64,7.41.16.31.32.64.29.99-.06.78-1.09,1.18-1.82.89-.73-.28-1.2-.99-1.6-1.67-.39-.68-.79-1.41-1.46-1.81-1.98-1.19-4.68,1.21-6.74.16-.63-.32-1.1-.93-1.77-1.15-1.56-.5-3.18,1.36-4.72.81-.57-.2-.97-.7-1.46-1.05-.8-.58-1.86-.79-2.82-.55-.45.11-.89.32-1.36.27-.46-.05-.91-.53-.71-.95"/>
      <path class="cls-5" d="M514.7,243.19c1.5-1.45,3.96-.24,5.73-.97.5-.21.93-.55,1.36-.88.71-.54,1.72-.99,2.63-.78.58.13,1.1.51,1.66.7.79.28,1.54.33,2.21-.23.2-.16.35-.37.52-.57.13-.16.24-.34.37-.49.44-.53,1.44-.68,2.12-.47.89.28,1.84,1.57,2.46,2.24,1.59,1.74,3.11,3.75,4.13,5.89.1.21.23.42.27.65.14.85-.55,1.68-1.85,1.02-.43-.22-.77-.7-1.02-1.08-.44-.66-.75-1.41-1.34-1.95-.92-.84-2.13-.7-3.25-.43s-2.24.75-3.35.48c-.92-.22-1.45-1.07-2.32-1.35-1.97-.63-3.65,1.79-5.61.23-.71-.57-1.37-1.02-2.31-1.11-.83-.07-3.39.76-3.14-.57,0-.05-.23-.01-.24.04-.13.72.47,1,1.1.98.15,0,.29-.07.43-.08,1.55-.17,2.47-.36,3.66.58,1.36,1.08,2.15,1.05,3.72.41.89-.36,1.92-.59,2.8-.07.2.12.38.3.56.43.36.27.71.49,1.15.6.62.15,1.27.06,1.88-.07,1.2-.25,2.54-.9,3.77-.52,1.37.42,1.72,1.89,2.54,2.89.65.79,2.08,1.41,2.88.38.59-.76-.2-1.79-.59-2.45-.71-1.23-1.5-2.4-2.39-3.51-.75-.94-1.56-1.84-2.43-2.68-.65-.62-1.44-1.39-2.42-1.32-.46.03-.8.24-1.13.54-.27.24-.45.56-.67.84-1.03,1.29-2.14.69-3.31.2-1.81-.77-2.6-.05-4.09.95-1.7,1.14-3.17.52-4.94.74-.68.09-1.24.32-1.73.8-.05.05.18.02.22-.02h0Z"/>
    </g>
    <path class="cls-5" d="M429.87,283.97c-1.96.8,11.35,4.06,11.55,1.96.2-2.11,2.4-4.88,4.09-6.16s-10.51,5.44-8.63-4.63c-1.73-1.38-4.81,5.08-6.89,4.31-2.7-1,1.56-4.97,3-7.46,1.44-2.49,1.49-3.47,3.06-5.88.59-.91-1.1-3.02-1.99-3.62-.34-.23-.76-.26-1.16-.35-1.74-.4-3.04-2.01-3.43-3.76-.4-1.74,5.14-3.95,5.8-5.61,1.14-2.83.75-5.14,3.28-6.85,1.01-.69-.63-1.09.04-2.12.67-1.03.61-2.66-.49-3.22-.65-.33-1.42-.19-2.13-.02-3.21.73-6.45,1.7-9.08,3.68-2.63,1.98-4.56,5.16-4.26,8.44.12,1.3.57,2.61.25,3.87-.4,1.57-1.9,2.63-2.54,4.12-1.3,3.01,1.21,6.78-.35,9.66-.49.9-1.32,1.57-1.87,2.43-.98,1.54-.94,3.67.11,5.16.63.9,1.56,1.55,2.19,2.45,2.34,3.37-.53,8.15.77,12.04"/>
    <ellipse class="cls-5" cx="534.93" cy="299.04" rx="4.57" ry="4.55" transform="translate(74.3 703.25) rotate(-70.47)"/>
    <path class="cls-5" d="M539,296.21c-2.02-1.59-4.9-2.8-9.33-2.87-7.08-.11-11.18,8.37-11.18,8.37,0,0,4.43-6.33,11.43-6.4,3.37-.03,8.65,2.49,11.06,4.05,0-.68-.78-2.11-1.98-3.14Z"/>
    <path class="cls-19" d="M430.38,301.81c-.41-1.8-.53-3.68,0-5.47.14-.47.32-.92.56-1.35.07-.12.17-.24.23-.37.06-.14-.01,0,.02-.03l-.86.3c.17,0-.1-.05,0,0,.12.06.38.13.34.11.59.27,1.11.69,1.58,1.14,2.6,2.5,4.27,5.99,5.74,9.22l1.39-.5c-.75-.67-1.75-1.24-2.78-1.13-1.26.13-1.95,1.19-2.15,2.35-.52,2.98,2.03,4.87,4.66,5.42.33.07.79,0,1.02-.27.19-.23.18-.54-.16-.61-2.02-.42-4.02-1.61-4.11-3.89-.02-.49.06-1.72.56-2.01.4-.24,1.33.49,1.63.75s1.66.09,1.39-.5c-1.12-2.47-2.36-4.93-3.94-7.15-.81-1.14-1.73-2.25-2.86-3.09-.45-.33-.96-.63-1.51-.74-.84-.17-1.29.39-1.65,1.07-1.14,2.19-1.09,4.79-.55,7.14.14.59,1.59.22,1.45-.39h0Z"/>
    <ellipse class="cls-5" cx="488.32" cy="294.66" rx="4.57" ry="4.55" transform="translate(47.39 656.42) rotate(-70.47)"/>
    <path class="cls-5" d="M498.5,299.38s-4.86-10.18-12.65-10.35c-10.96-.25-14.33,4.35-16.79,7.61,0,0,7.36-5.87,15.83-5.47,7.68.36,13.62,8.21,13.62,8.21Z"/>
    <path class="cls-5" d="M507.57,333.05c-3.1-.33-14.63-1.67-14.63-1.67,0,0,1.85,8.27,13.06,9.45,12.15,1.28,14.75-5.71,14.75-5.71l-13.18-2.07Z"/>
    <path class="cls-11" d="M507.55,334.49c-3.1-.33-12.48-1.82-12.48-1.82,0,0,3.44,2.94,12.73,3.92,9.3.98,12.19-1.2,12.19-1.2l-12.45-.9Z"/>
    <path class="cls-5" d="M499.57,281.13c.04-.16-.5-.26-.47-.42-8.14-3.37-14.57-4.52-16.99-4.43-1.85.07-3.7.53-5.5,1.27,0,0-4.97,1.96-5.68,2.93-.72.97,2.85-.11,2.85-.11.75-.11,1.28-.31,2.03-.32,4.11-.06,8.14-.71,12.09.46,3.38.97,7.72,3.79,10.82,5.64.38-1.71.35-3.35.85-5.02Z"/>
    <path class="cls-5" d="M519.17,284.47c0-.16.48-.15.48-.31,7.6-1.56,13.29-1.31,15.33-.7,1.55.46,3.04,1.31,4.42,2.42,0,0,3.83,2.97,4.25,4.08.42,1.1-2.4-.72-2.4-.72-.61-.27-1.02-.58-1.66-.75-3.49-.94-6.78-2.43-10.37-2.14-3.07.23-7.32,2.05-10.32,3.19.02-1.75.37-3.35.27-5.08Z"/>
    <g>
      <path class="cls-5" d="M511.43,325.04c-1.59.7-3.92.34-5.39-.73-.33-.24-1.48-.11-1.03.22,1.95,1.41,5.29,1.77,7.35.87.2-.09.18-.24-.06-.34-.25-.1-.66-.12-.87-.02"/>
      <path class="cls-5" d="M504.38,324.05c-.99-.56-2.13-.9-3.28-1.07-.17-.02-.39.02-.52.13-.1.08-.13.2-.01.28.51.34,1.18.52,1.8.55.2.01.46-.02.58-.18.11-.15-.07-.26-.22-.27-.52-.03-1.03-.17-1.45-.45-.18.13-.36.27-.54.4,1.02.15,2.04.47,2.93.97.18.1.44.06.62-.02.13-.06.27-.23.09-.33"/>
      <path class="cls-5" d="M499.8,323.86c-1.35-.13-2.89-.83-3.48-1.9-.89-1.61.24-4.12,2-4.98.19-.09.1-.24-.08-.29-.24-.07-.53,0-.73.1-1.53.75-2.64,2.83-2.53,4.29.11,1.36,1.33,2.39,2.92,2.9.47.15.98.26,1.48.31.2.02.58-.02.69-.17.11-.16-.07-.24-.26-.26"/>
      <path class="cls-5" d="M513.96,324.53c-.06-.16.08-.25.19-.24.36.04.74-.04,1.07-.27.11.15.22.31.32.46-.74.03-1.48.22-2.17.61-.14.08-.32,0-.43-.1-.08-.08-.16-.26-.03-.34"/>
      <path class="cls-5" d="M512.92,324.65c.77-.44,1.6-.64,2.43-.67.12,0,.27.07.35.19.06.09.07.21-.03.28"/>
      <path class="cls-5" d="M516.74,324.91c.88.03,1.95-.49,2.46-1.47.76-1.49.29-3.36-.73-4.42-.11-.12-.04-.25.09-.28.16-.04.34.06.46.18.89.92,1.41,2.36,1.16,3.79-.23,1.34-1.14,2.22-2.22,2.53-.32.09-.66.15-.99.14-.13,0-.37-.08-.42-.25-.05-.17.07-.23.2-.22"/>
    </g>
    <path class="cls-24" d="M451.93,785.06c.97-13.73,3.92-27.24,4.89-40.97.04-.61-1.42-.34-1.45.17-.97,13.73-3.92,27.24-4.89,40.97-.04.61,1.42.34,1.45-.17h0Z"/>
    <path class="cls-28" d="M507.85,332.85c-6.55-.31-18.18-3.58-18.18-3.58,0,0,1.54,17.44,16.73,18.16,15.19.72,15.12-14.19,15.12-14.19,0,0-7.11-.08-13.67-.4Z"/>
    <path class="cls-12" d="M507.91,332.85c-3.12-.15-14.6-2.45-14.6-2.45,0,0,2.54,11.22,13.8,11.76,12.22.58,12.33-8.68,12.33-8.68l-11.54-.63Z"/>
    <path class="cls-23" d="M508.02,333.34c-3.12-.15-12.57-1.15-12.57-1.15,0,0,3.24,3.71,12.59,4.16,9.35.45,11.41-2.87,11.41-2.87l-11.43-.14Z"/>
    <path class="cls-28" d="M522.22,332.33c-.33-.1-1.41-.33-1.41-.33-2.57-.35-2.88-1-4.74-1.23-3.18-.41-5.27.8-6.65.74-1.39-.07-3.35-1.47-6.55-1.37-1.88.06-4.49.13-7.05-.22-3.75-.51-6.69-1.57-7.03-1.5-.47.1,1.54,5.45,18.97,6.28,17.43.83,14.92-2.22,14.46-2.36Z"/>
    <g class="cls-14">
      <circle class="cls-7" cx="330.72" cy="744.32" r="5.13"/>
      <circle class="cls-7" cx="390.04" cy="744.32" r="5.13"/>
      <circle class="cls-7" cx="360.38" cy="714.66" r="5.13"/>
      <circle class="cls-7" cx="360.38" cy="773.98" r="5.13"/>
      <circle class="cls-7" cx="360.38" cy="744.32" r="10.9"/>
      <circle class="cls-7" cx="330.72" cy="684.99" r="5.13"/>
      <circle class="cls-7" cx="390.04" cy="684.99" r="5.13"/>
      <circle class="cls-7" cx="360.38" cy="655.33" r="5.13"/>
      <circle class="cls-7" cx="360.38" cy="714.66" r="5.13"/>
      <circle class="cls-7" cx="360.38" cy="684.99" r="10.9"/>
      <circle class="cls-7" cx="449.37" cy="744.32" r="5.13"/>
      <circle class="cls-7" cx="419.7" cy="714.66" r="5.13"/>
      <circle class="cls-7" cx="419.7" cy="773.98" r="5.13"/>
      <circle class="cls-7" cx="419.7" cy="744.32" r="10.9"/>
      <circle class="cls-7" cx="449.37" cy="684.99" r="5.13"/>
      <circle class="cls-7" cx="419.7" cy="655.33" r="5.13"/>
      <circle class="cls-7" cx="419.7" cy="714.66" r="5.13"/>
      <circle class="cls-7" cx="419.7" cy="684.99" r="10.9"/>
      <circle class="cls-7" cx="390.04" cy="714.66" r="10.9"/>
      <circle class="cls-7" cx="508.69" cy="744.32" r="5.13"/>
      <circle class="cls-7" cx="479.03" cy="714.66" r="5.13"/>
      <circle class="cls-7" cx="479.03" cy="773.98" r="5.13"/>
      <circle class="cls-7" cx="479.03" cy="744.32" r="10.9"/>
      <circle class="cls-7" cx="508.69" cy="684.99" r="5.13"/>
      <circle class="cls-7" cx="479.03" cy="655.33" r="5.13"/>
      <circle class="cls-7" cx="479.03" cy="714.66" r="5.13"/>
      <circle class="cls-7" cx="479.03" cy="684.99" r="10.9"/>
      <circle class="cls-7" cx="449.37" cy="714.66" r="10.9"/>
      <circle class="cls-7" cx="568.02" cy="744.32" r="5.13"/>
      <circle class="cls-7" cx="538.35" cy="714.66" r="5.13"/>
      <circle class="cls-7" cx="538.35" cy="773.98" r="5.13"/>
      <circle class="cls-7" cx="538.35" cy="744.32" r="10.9"/>
      <circle class="cls-7" cx="568.02" cy="684.99" r="5.13"/>
      <circle class="cls-7" cx="538.35" cy="655.33" r="5.13"/>
      <circle class="cls-7" cx="538.35" cy="714.66" r="5.13"/>
      <circle class="cls-7" cx="538.35" cy="684.99" r="10.9"/>
      <circle class="cls-7" cx="508.69" cy="714.66" r="10.9"/>
      <circle class="cls-7" cx="599.31" cy="714.66" r="5.13"/>
      <circle class="cls-7" cx="569.65" cy="714.66" r="10.9"/>
      <circle class="cls-7" cx="390.04" cy="625.67" r="5.13"/>
      <circle class="cls-7" cx="390.04" cy="655.33" r="10.9"/>
      <circle class="cls-7" cx="360.38" cy="596.01" r="5.13"/>
      <circle class="cls-7" cx="419.7" cy="596.01" r="5.13"/>
      <circle class="cls-7" cx="390.04" cy="566.34" r="5.13"/>
      <circle class="cls-7" cx="390.04" cy="625.67" r="5.13"/>
      <circle class="cls-7" cx="390.04" cy="596.01" r="10.9"/>
      <circle class="cls-7" cx="330.72" cy="625.67" r="5.13"/>
      <circle class="cls-7" cx="360.38" cy="625.67" r="10.9"/>
      <circle class="cls-7" cx="449.37" cy="625.67" r="5.13"/>
      <circle class="cls-7" cx="449.37" cy="655.33" r="10.9"/>
      <circle class="cls-7" cx="479.03" cy="596.01" r="5.13"/>
      <circle class="cls-7" cx="449.37" cy="566.34" r="5.13"/>
      <circle class="cls-7" cx="449.37" cy="625.67" r="5.13"/>
      <circle class="cls-7" cx="449.37" cy="596.01" r="10.9"/>
      <circle class="cls-7" cx="419.7" cy="625.67" r="10.9"/>
      <circle class="cls-7" cx="508.69" cy="625.67" r="5.13"/>
      <circle class="cls-7" cx="508.69" cy="655.33" r="10.9"/>
      <circle class="cls-7" cx="538.35" cy="596.01" r="5.13"/>
      <circle class="cls-7" cx="508.69" cy="566.34" r="5.13"/>
      <circle class="cls-7" cx="508.69" cy="625.67" r="5.13"/>
      <circle class="cls-7" cx="508.69" cy="596.01" r="10.9"/>
      <circle class="cls-7" cx="479.03" cy="625.67" r="10.9"/>
      <circle class="cls-7" cx="597.68" cy="655.33" r="5.13"/>
      <circle class="cls-7" cx="568.02" cy="625.67" r="5.13"/>
      <circle class="cls-7" cx="568.02" cy="655.33" r="10.9"/>
      <circle class="cls-7" cx="568.02" cy="566.34" r="5.13"/>
      <circle class="cls-7" cx="568.02" cy="625.67" r="5.13"/>
      <circle class="cls-7" cx="568.02" cy="596.01" r="10.9"/>
      <circle class="cls-7" cx="538.35" cy="625.67" r="10.9"/>
      <circle class="cls-7" cx="329.36" cy="566.34" r="5.13"/>
      <circle class="cls-7" cx="388.68" cy="566.34" r="5.13"/>
      <circle class="cls-7" cx="359.02" cy="536.68" r="5.13"/>
      <circle class="cls-7" cx="359.02" cy="566.34" r="10.9"/>
      <circle class="cls-7" cx="329.36" cy="507.02" r="5.13"/>
      <circle class="cls-7" cx="388.68" cy="507.02" r="5.13"/>
      <circle class="cls-7" cx="359.02" cy="477.36" r="5.13"/>
      <ellipse class="cls-7" cx="359.02" cy="534.12" rx="5.13" ry="2.56"/>
      <circle class="cls-7" cx="359.02" cy="507.02" r="10.9"/>
      <circle class="cls-7" cx="448.01" cy="566.34" r="5.13"/>
      <circle class="cls-7" cx="418.34" cy="536.68" r="5.13"/>
      <circle class="cls-7" cx="418.34" cy="566.34" r="10.9"/>
      <circle class="cls-7" cx="448.01" cy="507.02" r="5.13"/>
      <circle class="cls-7" cx="418.34" cy="477.36" r="5.13"/>
      <circle class="cls-7" cx="418.34" cy="536.68" r="5.13"/>
      <circle class="cls-7" cx="418.34" cy="507.02" r="10.9"/>
      <circle class="cls-7" cx="388.68" cy="536.68" r="10.9"/>
      <circle class="cls-7" cx="507.33" cy="566.34" r="5.13"/>
      <circle class="cls-7" cx="477.67" cy="536.68" r="5.13"/>
      <circle class="cls-7" cx="477.67" cy="566.34" r="10.9"/>
      <circle class="cls-7" cx="507.33" cy="507.02" r="5.13"/>
      <circle class="cls-7" cx="477.67" cy="477.36" r="5.13"/>
      <circle class="cls-7" cx="477.67" cy="536.68" r="5.13"/>
      <circle class="cls-7" cx="477.67" cy="507.02" r="10.9"/>
      <circle class="cls-7" cx="448.01" cy="536.68" r="10.9"/>
      <circle class="cls-7" cx="566.66" cy="566.34" r="5.13"/>
      <circle class="cls-7" cx="536.99" cy="536.68" r="5.13"/>
      <circle class="cls-7" cx="536.99" cy="566.34" r="10.9"/>
      <circle class="cls-7" cx="566.66" cy="507.02" r="5.13"/>
      <circle class="cls-7" cx="536.99" cy="477.36" r="5.13"/>
      <circle class="cls-7" cx="536.99" cy="536.68" r="5.13"/>
      <circle class="cls-7" cx="536.99" cy="507.02" r="10.9"/>
      <circle class="cls-7" cx="507.33" cy="536.68" r="10.9"/>
      <circle class="cls-7" cx="597.95" cy="536.68" r="5.13"/>
      <circle class="cls-7" cx="568.29" cy="536.68" r="10.9"/>
      <circle class="cls-7" cx="388.68" cy="447.69" r="5.13"/>
      <circle class="cls-7" cx="388.68" cy="477.36" r="10.9"/>
      <circle class="cls-7" cx="359.02" cy="418.03" r="5.13"/>
      <circle class="cls-7" cx="418.34" cy="418.03" r="5.13"/>
      <circle class="cls-7" cx="388.68" cy="388.37" r="5.13"/>
      <circle class="cls-7" cx="388.68" cy="447.69" r="5.13"/>
      <circle class="cls-7" cx="388.68" cy="418.03" r="10.9"/>
      <circle class="cls-7" cx="329.36" cy="447.69" r="5.13"/>
      <circle class="cls-7" cx="359.02" cy="447.69" r="10.9"/>
      <circle class="cls-7" cx="448.01" cy="447.69" r="5.13"/>
      <circle class="cls-7" cx="448.01" cy="477.36" r="10.9"/>
      <circle class="cls-7" cx="477.67" cy="418.03" r="5.13"/>
      <circle class="cls-7" cx="448.01" cy="388.37" r="5.13"/>
      <circle class="cls-7" cx="448.01" cy="447.69" r="5.13"/>
      <circle class="cls-7" cx="448.01" cy="418.03" r="10.9"/>
      <circle class="cls-7" cx="418.34" cy="447.69" r="10.9"/>
      <circle class="cls-7" cx="414.58" cy="374.9" r="10.9"/>
      <circle class="cls-7" cx="507.33" cy="447.69" r="5.13"/>
      <circle class="cls-7" cx="507.33" cy="477.36" r="10.9"/>
      <circle class="cls-7" cx="536.99" cy="418.03" r="5.13"/>
      <circle class="cls-7" cx="507.33" cy="388.37" r="5.13"/>
      <circle class="cls-7" cx="507.33" cy="447.69" r="5.13"/>
      <circle class="cls-7" cx="507.33" cy="418.03" r="10.9"/>
      <circle class="cls-7" cx="477.67" cy="447.69" r="10.9"/>
      <circle class="cls-7" cx="596.32" cy="477.36" r="5.13"/>
      <circle class="cls-7" cx="566.66" cy="447.69" r="5.13"/>
      <circle class="cls-7" cx="566.66" cy="477.36" r="10.9"/>
      <circle class="cls-7" cx="596.32" cy="418.03" r="5.13"/>
      <circle class="cls-7" cx="566.66" cy="388.37" r="5.13"/>
      <circle class="cls-7" cx="566.66" cy="447.69" r="5.13"/>
      <circle class="cls-7" cx="566.66" cy="418.03" r="10.9"/>
      <circle class="cls-7" cx="536.99" cy="447.69" r="10.9"/>
    </g>
    <path class="cls-18" d="M834.43,398.07c12.85-31.74-11.53-52.81-36.49-55.33-12.64-1.28-20.94,22.24-20.94,22.24-32.25,35.11-95.18,143.81-106.99,165.29,3.3,3.07,7.67,2.73,10.24,6.44,8.99,12.98,17.8,11.29,19.15,26.95.67,7.77-.79,19.11-2.37,26.85,20.45-7.91,36.33-31.66,49.03-48.41,19.11-25.21,35.36-52.28,51.94-79.16,12.86-20.84,27.22-42.09,36.44-64.88Z"/>
    <path class="cls-25" d="M779.7,335.49s63.47,9.93,65.06,48.46c1.59,38.53-32.24,112.2-32.24,112.2,0,0-69.21-20.11-99.19-44.43-29.98-24.32,66.37-116.22,66.37-116.22Z"/>
    <path class="cls-27" d="M837.96,420.11c-1.05,8.2-3.61,16.08-6.52,23.79-2.85,7.56-5.73,15.12-8.88,22.56-3.18,7.51-6.52,15-8.72,22.87-.49,1.76-.71,3.7-1.36,5.4-.03.07-.27.61-.29.59-.15-.16,1.23.19.91-.11-.07-.07-.48-.07-.59-.09-.61-.11-1.21-.26-1.81-.42-2.26-.6-4.22-1.84-6.45-2.52-2.42-.74-4.92-1.23-7.35-1.97-3.01-.91-6-1.91-8.97-2.96-6.26-2.22-12.44-4.68-18.55-7.28-11.15-4.74-22.12-9.94-32.93-15.41-5.29-2.67-10.67-5.3-15.8-8.28-2.38-1.38-4.66-2.93-6.99-4.39-.69-.43-1.38-.87-2.06-1.3-.09-.06-.44-.2-.48-.3-.04-.09.91-1.57,1.04-1.8,1.97-3.65,3.89-7.32,5.77-11.02,6.04-11.85,11.55-23.95,16.69-36.21,3.61-8.62,6.98-17.36,10.93-25.83,3.13-6.71,6.76-13.24,11.54-18.92,5.04-5.99,11.16-10.95,18.6-13.66,3.1-1.13,6.33-1.74,9.64-1.65.53.02,1.34-.11,1.76-.47.31-.27.41-.53-.15-.54-9.6-.28-19.18,4.31-26.33,10.51-4.52,3.92-8.33,8.84-11.49,13.9-3.82,6.11-6.77,12.71-9.57,19.32-3.68,8.68-7.16,17.45-10.92,26.1-6.06,13.91-12.73,27.54-19.98,40.88-.04.08-.02.15.05.2,4.46,2.81,8.84,5.66,13.49,8.14,9.88,5.26,19.9,10.26,30.05,14.99,13.44,6.25,27.15,12.14,41.32,16.55,2.89.9,5.87,1.49,8.75,2.4,1.44.45,2.73,1.21,4.12,1.79,1.09.46,2.28.73,3.43.99s2.2.42,3.29.01c1.87-.69,2-2.5,2.41-4.23,1.09-4.56,2.61-9,4.31-13.36s3.53-8.54,5.33-12.79,3.49-8.7,5.19-13.08c3.39-8.73,6.97-17.43,8.96-26.61.46-2.14.83-4.3,1.11-6.47.04-.3-2.39-.09-2.49.67h0Z"/>
    <path class="cls-18" d="M649.5,593.27s20.37,6.02,41.39.45c24.03-6.37,34.83-48.76,38.81-68.06,4.08-19.8-57.54,2.44-57.54,2.44l-22.66,65.17Z"/>
    <path class="cls-18" d="M663.42,595.8c6.98-.07,14.85.41,21.13-1.91.3-.95.29-.96.54-1.92,3.68-14.11,3.11-29.44-.7-43.46-2.64-9.69-1.8-18.01-8.48-25.67-1.12,1.64-3.97,6.16-3.97,6.16l-172.96-16.19s-11.88,27.21-11.88,27.21c55.85,25.41,111.45,44.23,171.88,55.01,1.47.26,2.95.52,4.43.77Z"/>
    <path class="cls-19" d="M521.81,515.3c.92.47,2.23.5,3.22.64,2.35.33,4.72.6,7.08.86,7.42.81,14.85,1.49,22.28,2.16,8.76.79,17.52,1.54,26.28,2.28,7.51.63,15.03,1.25,22.54,1.85,3.64.29,7.32.77,10.97.88.05,0,.1,0,.15.01.41.03,1.68-.67.9-.73-2.97-.23-5.94-.47-8.91-.71-7.12-.57-14.25-1.15-21.37-1.75-8.75-.73-17.49-1.47-26.24-2.25-7.7-.69-15.41-1.39-23.1-2.19-2.68-.28-5.36-.57-8.03-.91-1.44-.18-2.94-.31-4.34-.69.08.02-.2-.06-.28-.1-.38-.2-1.72.38-1.16.66h0Z"/>
    <path class="cls-19" d="M691.04,563.27c1.12-5.72,1.63-11.84-.33-17.44-1.71-4.91-5.28-8.76-9.53-11.64-3.07-2.08-6.42-3.7-9.84-5.12-.39-.16-1.49.44-1.37.49,5.38,2.24,10.82,5.01,14.84,9.34,3.54,3.81,5.39,8.67,5.71,13.83.23,3.62-.21,7.26-.91,10.81-.06.3,1.36.08,1.43-.26h0Z"/>
    <path class="cls-27" d="M712.73,441.86c11.66,7.05,23.64,13.63,35.77,19.83,9.44,4.82,19.04,9.44,28.93,13.27,9.04,3.5,18.3,6.79,27.69,9.27,1.97.52,3.96,1.03,5.98,1.31.54.07,1.17.18,1.71.09.6-.09,1.54-.41,1.6-1.14.06-.68-.76-.99-1.33-.9-.25.04-.18,0,.13.01-.29-.02-.57-.03-.85-.07-1.64-.2-2.63-.45-4.23-.86-8.92-2.22-17.63-5.4-26.25-8.57-18.81-6.91-36.67-16.57-54.07-26.42-4.31-2.44-8.6-4.9-12.84-7.46-1.04-.63-3.61.81-2.24,1.63h0Z"/>
    <path class="cls-19" d="M473.99,506.72c-5.73,1.29-10.77,5.04-13.63,10.18-.39.7,1.08.69,1.38.15,2.63-4.73,7.23-8.18,12.51-9.36.28-.06.69-.34.6-.68-.09-.35-.58-.35-.85-.29h0Z"/>
    <path class="cls-18" d="M412.83,480.53c6.43,5.86,15.19,13.59,16.68,13.55,1.48-.04,11.41,1.3,20.09,2.51,4.4.82,8.63-2.07,9.46-6.47.21-1.15-19.18-10.23-14.73-18.89l17.86,4.16c5.59,2.18,10.88,5.07,15.74,8.59,5.77,4.75,17.59,23.55,17.59,23.55l22.86,4.78-11.01,33.01-21.6-1.91-23.07,1.27s-42-7.15-46.33-11.62c-4.33-4.47-7.47-17.9-7.47-17.9-6.62-4.89-5.06-16.13-5.06-16.13-8.28-11.64.8-11.86.8-11.86-.37-.33-.65-.75-.79-1.23-1.6-5.15,5.18-8.94,8.99-5.41Z"/>
    <path class="cls-24" d="M445.95,509.57c-2.45.54-4.97.7-7.48.48-6.08.12-12.09-1.19-17.57-3.82-5.21-3.12-9.51-7.54-12.47-12.84-1.44-2.01-2.56-4.22-3.31-6.57,1.69,1.76,3.18,3.71,4.44,5.79,3.17,4.83,7.36,8.89,12.29,11.9,5.27,2.49,10.98,3.92,16.8,4.2,2.45.02,4.9.31,7.29.87Z"/>
    <path class="cls-24" d="M441.89,519.21c-2.17.84-4.52,1.12-6.83.82-2.48-.07-4.96-.32-7.4-.76-3.08-.43-6.04-1.49-8.69-3.12-2.41-1.83-4.6-3.93-6.53-6.26l-4.7-5.49c-1.58-1.6-2.92-3.42-3.98-5.4,1.88,1.24,3.57,2.75,5.01,4.47,1.46,1.45,3.16,3.21,5.01,5.22,1.91,2.16,4.02,4.13,6.31,5.87,2.44,1.55,5.16,2.61,8.01,3.12,2.34.51,4.71.9,7.1,1.16,4.09.44,6.65.37,6.68.36Z"/>
    <path class="cls-24" d="M436.19,530.3c-.12.78-7.62-.47-16.5-2.55-1.22-.32-2.34-.94-3.26-1.81-.81-.68-1.58-1.42-2.3-2.21-1.24-1.29-2.35-2.69-3.31-4.19-1.65-2.58-2.16-4.45-1.92-4.53s1.15,1.48,3.02,3.72c1.07,1.31,2.22,2.56,3.43,3.75.71.71,1.46,1.37,2.25,2,.7.66,1.55,1.14,2.47,1.39,4.55,1.02,8.51,2.12,11.43,2.91,1.61.33,3.18.85,4.68,1.53Z"/>
    <path class="cls-18" d="M394.68,438.54c12.03,28.76,28.02,86.84,53.52,101.4,31.54,18.01,125.93-7.79,125.93-7.79l-1.1-22.73-100.12-9.37s-34.1-82.06-37.63-94.53c0,0-10.91-42.6-38.96-26.39"/>
    <path class="cls-26" d="M461.97,428.56c-5.33-11.5-13.08-31.49-20.84-43.5-7.65-7.12-15.05-19.63-26.4-19.75-12.96-.14-13.1,1.05-25.91,11.96-7.01,5.21-9.11,21.73-9.76,26.55-2.82,20.87,4.19,39.25,15.54,59.56l2.69,1.56c23.59,2.98,45.97-9.89,66.27-22.29,3.25-4.53.76-9.05-1.58-14.1Z"/>
    <path class="cls-18" d="M554.45,511.04l3.73,12.49,3.73,12.46s18.37,1.02,23.55-.26c5.18-1.28,17.69-2.76,17.69-2.76-.45,1.59-.33,3.28.34,4.79.89,1.68,2.43,2.92,4.26,3.44l4.37-8.97c2.01,3.62,5.07.3,5.07.3l3-7.78c2.29,4.6,6.35.38,6.35.38l.93-10.47c1.49,1.5,3.26,2.68,5.21,3.5,2.49.79,2.74-3.34,2.74-3.34l-10.97-14.68-24.85-3.99-37.15,10.83-8.01,4.07Z"/>
    <path class="cls-19" d="M408.13,481.3c2.66,5.8,5.89,11.36,9.13,16.85,4.28,7.27,8.78,14.44,13.64,21.34,2.14,3.03,4.35,6.03,6.72,8.88,1.75,2.1,3.59,4.2,5.74,5.9,4.72,3.74,11.07,5.57,16.86,6.79,7.67,1.62,15.55,2.16,23.37,2.26,8.69.12,17.38-.33,26.04-1.1,15.51-1.37,30.94-3.71,46.22-6.65,1.36-.26,2.73-.53,4.09-.8,1.18-.24,2.53-.72,3.73-.65,4.43.27,8.84.89,13.28,1.07,1.84.07,3.7.13,5.53-.04,1.66-.15,3.3-.47,4.95-.65,3.86-.41,7.75-.67,11.62-.9.75-.04,1.5-.09,2.25-.12l-.41-.19c-1.2,3.73.52,7.29,4.15,8.7.34.13,1.12-.08,1.31-.41,1.66-2.88,3.31-5.77,4.97-8.65-.48.11-.96.21-1.44.32.93,1.81,2.47,2.34,4.36,1.66.82-.3,1.75-.77,2.21-1.53.77-1.27,1.3-2.78,1.93-4.13.5-1.08,1-2.15,1.51-3.23l-1.44.32c1.06,2.36,3.05,2.93,5.38,2,.87-.35,2.17-.9,2.43-1.85.49-1.77.6-3.76.88-5.57.24-1.49.47-2.98.71-4.46l-1.4.37c1.34,1.5,2.94,2.88,4.77,3.75.89.42,1.87.38,2.74-.1.93-.52,2.07-2.34,1.78-3.44-.09-.34-.49-.76-.68-1.05l-1.38-2.14c-1.25-1.94-2.5-3.88-3.76-5.82-1.1-1.71-2.2-3.41-3.31-5.12-.33-.51-.57-1.13-1.12-1.36-1.03-.44-2.36-.55-3.45-.8-2.07-.48-4.14-.96-6.2-1.44-4.18-.97-8.36-1.94-12.55-2.91-.73-.17-1.57-.5-2.32-.51-.59,0-1.25.31-1.8.48-7.74,2.39-15.48,4.79-23.21,7.18-3.66,1.13-7.31,2.26-10.97,3.39-.73.23-1.71.36-2.37.73-.04.02-.1.02-.14.04.42-.25.58-.04.07-.06-.23,0-.47.01-.7,0-.07,0-.14-.01-.2-.02-4.4-.26-8.8-.77-13.19-1.16-8.67-.76-17.35-1.52-26.02-2.29-9.31-.82-18.63-1.64-27.94-2.45-6.32-.55-12.63-1.11-18.95-1.66-.68-.06-1.37-.12-2.05-.18-.17-.01-.34-.04-.51-.04-.31-.01.09.05.1.06-2.02-4.62-4.18-9.17-6.09-13.85-1.46-3.58-2.85-7.19-4.08-10.85-.12-.37-1.56.06-1.45.39,2.31,6.88,5.13,13.58,8.1,20.2.45.99.9,1.98,1.35,2.97.19.41.38,1.17.7,1.5.22.22.4.2.71.23,4.6.44,9.21.81,13.82,1.21,8.6.76,17.2,1.51,25.8,2.27,9.14.8,18.29,1.61,27.43,2.41,6.23.55,12.47,1.1,18.7,1.64.95.08,1.9.2,2.84.25,1.93.09,3.7-.69,5.52-1.25,8.27-2.56,16.53-5.12,24.8-7.68,2.88-.89,5.77-1.79,8.65-2.68.19-.06.52-.09.68-.21-.03.02-.9-.14-.31.09,1.1.42,2.41.56,3.55.82,4.31,1,8.62,2,12.93,3l5.57,1.29,1.6.37c.18.04.7.25.46.05.23.2.4.62.56.87.42.64.83,1.29,1.25,1.93,1.23,1.91,2.47,3.82,3.7,5.72,1.12,1.73,2.23,3.46,3.35,5.19.51.8,1.16,1.38.97,2.18-.22.96-.62,2.59-1.83,1.99-1.75-.87-3.29-2.2-4.59-3.65-.21-.23-1.35.06-1.4.37-.44,2.79-.89,5.59-1.33,8.38-.09.55-.16,1.11-.26,1.66-.08.42.05.21-.28.49-1.85,1.57-3.69.86-4.65-1.27-.17-.38-1.31.03-1.44.32-.9,1.93-1.8,3.86-2.7,5.79-.21.44-.41.88-.62,1.32-.07.15-.24.46-.19.4-1.3,1.47-2.85.55-3.61-.92-.2-.38-1.28.04-1.44.32-1.66,2.88-3.31,5.77-4.97,8.65l1.31-.41c-3.46-1.35-5.03-4.84-3.9-8.36.07-.21-.3-.2-.41-.19-6.24.31-12.41.96-18.61,1.65-4.24.48-8.7-.08-12.93-.44-2.04-.18-4.13-.57-6.18-.61-1.15-.02-2.4.41-3.54.64-14.32,2.89-28.78,5.24-43.31,6.81-16.64,1.8-33.79,2.93-50.44.55-6.59-.94-13.37-2.49-19.23-5.75-5.07-2.82-8.71-7.62-12.14-12.18-5-6.64-9.52-13.65-13.84-20.74-3.73-6.12-7.35-12.32-10.6-18.72-.53-1.04-1.04-2.09-1.53-3.15-.17-.38-1.58.1-1.45.39h0Z"/>
    <path class="cls-24" d="M609.47,502.71c1.6.24,3.18.59,4.73,1.04,1.74.49,3.67,1.02,5.64,1.78,1.87.68,3.66,1.56,5.34,2.63.85.49,1.47,1.3,1.72,2.25.18.74.32,1.49.4,2.25.36,1.45.39,2.96.11,4.43-.15,0-.3-1.59-.87-4.24-.15-.66-.3-1.42-.51-2.12-.23-.71-.73-1.31-1.4-1.65-1.65-.97-3.39-1.8-5.19-2.46-1.91-.72-3.77-1.27-5.51-1.8-1.74-.53-3.27-1.02-4.56-1.27-1.4-.23-2.84-.23-4.24,0,1.28-.86,2.85-1.15,4.35-.83Z"/>
    <path class="cls-24" d="M606.57,512.13c2.5.57,6.04,1,9.88,2.12,1.03.22,1.99.67,2.82,1.31.58.76,1.05,1.6,1.38,2.5.7,1.43,1.03,3.01.95,4.6-.18,1.02-.44,2.03-.78,3.01-.21.68-.4,1.06-.4,1.06,0,0-.08-.42,0-1.14.08-.72.42-1.76.42-2.97-.02-1.48-.4-2.94-1.1-4.24-.31-.75-.72-1.47-1.21-2.12-.72-.49-1.52-.84-2.37-1.02-3.71-1.08-7.27-1.65-9.75-2.44-1.39-.29-2.71-.85-3.88-1.65,1.37.24,2.72.56,4.05.98Z"/>
    <path class="cls-24" d="M612.77,531.19c.35-.97.4-2.02.15-3.01-.38-1.15-1.3-2.05-2.46-2.4-1.24-.38-2.54-.56-3.84-.53l-3.35-.13c-.85-.04-1.63-.15-2.12-.15s-.68.15-.76.13.11-.4.7-.55c.75-.13,1.51-.2,2.27-.21l3.35-.11c1.43-.1,2.87.07,4.24.51,1.49.48,2.65,1.67,3.07,3.18.25,1.19.1,2.43-.4,3.54-.87,1.8-1.7,2.59-1.8,2.59-.17-.08.47-1.12.95-2.86Z"/>
    <path class="cls-19" d="M472.76,499.31c-7.82,1.86-14.7,7.05-18.55,14.12-.35.64,1.11.54,1.36.08,3.63-6.67,10.01-11.62,17.4-13.38.89-.21.67-1.03-.22-.82h0Z"/>
  </g>
</svg>