<?xml version="1.0" encoding="UTF-8"?>
<svg id="Layer_1" data-name="Layer 1" xmlns="http://www.w3.org/2000/svg" xmlns:xlink="http://www.w3.org/1999/xlink" viewBox="0 0 991 991">
  <defs>
    <style>
      .cls-1 {
        fill: none;
      }

      .cls-2 {
        fill: #b9dfee;
      }

      .cls-3 {
        fill: #151312;
      }

      .cls-4 {
        fill: #533f88;
      }

      .cls-5 {
        fill: #010101;
      }

      .cls-6 {
        fill: #fffbfb;
      }

      .cls-7 {
        fill: #231f20;
      }

      .cls-8 {
        fill: #f1edf6;
      }

      .cls-9 {
        fill: #27153c;
      }

      .cls-10 {
        fill: #648e9f;
      }

      .cls-11 {
        fill: #0d0d0d;
      }

      .cls-12 {
        clip-path: url(#clippath-1);
      }

      .cls-13 {
        fill: #58341d;
      }

      .cls-14 {
        fill: #b06c4f;
      }

      .cls-15 {
        fill: #040505;
      }

      .cls-16 {
        fill: #4f2f26;
      }

      .cls-17 {
        fill: #876bad;
      }

      .cls-18 {
        fill: #6c3925;
      }

      .cls-19 {
        fill: #382561;
      }

      .cls-20 {
        clip-path: url(#clippath);
      }
    </style>
    <clipPath id="clippath">
      <circle class="cls-1" cx="495.5" cy="495.5" r="495.5"/>
    </clipPath>
    <clipPath id="clippath-1">
      <path class="cls-1" d="M513.73,315.15c-5.35-11.87-6.54-25.06-9.17-37.68-1.15-5.51-2.73-10.69-5.01-15.83-1.89-4.25-4.03-8.39-6.4-12.4,0,0-13.25-22.19-27.34-25.83-6.89.74-16.11.44-34.83,8.49-17.26,7.42-22.54,31.87-63.5,89.24-15.49,21.71-13.38,48.45-31.21,60.58-11.86,8.07-21.35,15.31-25.27,18.36l-.06-.03s-.2.17-.54.5c-.87.68-1.34,1.06-1.34,1.06.05.04.1.08.15.11-5.52,5.56-22.6,24.75-26.34,52.56-1.78,13.26-1.37,22.72-.23,29.29,1.79,10.35-3.77,20.6-13.53,24.48-5.87,2.34-12.96,4.21-21.01,4.59,0,0,46.62,116.04,82.21,145.28,0,0,22.93-10.23,53.67-29.89,19.31-12.35,48.04-69.54,66.74-110.37,3.85,1.44,7.79,2.68,11.82,3.66,0,0,37.72-99.56,56.7-144.18,5.39-12.98,9.71-26.36,12.95-40-7.98-5.49-14.51-13.21-18.46-21.97Z"/>
    </clipPath>
  </defs>
  <g class="cls-20">
    <rect class="cls-2" x="-32.8" y="-20" width="1060.96" height="1045.41" rx="12" ry="12"/>
    <path class="cls-14" d="M532.03,284.37l29.23,82.3,102.4,44.29-8.29,29.7s-121.64-21.88-134.26-37.02c-12.62-15.14-33.28-96.62-33.28-96.62l44.19-22.64Z"/>
    <path class="cls-14" d="M643.43,560.56s10.86-4.86,13.42-12.98c2.56-8.13,1.09-20.55,5.51-28.75,4.42-8.2,14.39-21.48,11.6-26.83s-11.76-11.46-25.99-15.94c-14.22-4.48-34.75-14.5-35.24-24.57-.49-10.07,11.04-12.58,15.31-22,4.27-9.42-7.69-17.5-7.69-17.5,0,0-2.86-4.19,2.02-10.04,2.21-2.65,4.72,9.84,4.72,9.84,0,0,29.27-.08,29.09-1.76-.14-1.28-28.32-18.3-28.28-19.78.05-1.84,6.13-5.11,6.87-6.1,2.12-2.84,12.06-8.57,12.06-8.57,0,0-11.93-11.83-10.32-18.74,1.61-6.91,2.13-9.6,14.7-13.55,12.57-3.95,28.13-9.07,33.83-18.37,5.7-9.29,3.26-12.67,6.75-21.43,3.49-8.76,27.93-33.27,48.39-40.27,20.47-7,57.36-19.12,121.77,21.09,64.41,40.21,48.62,113.98,36.4,137.35-12.22,23.36-66.45,63.75-76.78,71.44-10.33,7.69-19.95,16.52-25.41,30-5.46,13.48-9.8,47.99-9.8,47.99,0,0-101.85,26.57-142.93-10.53Z"/>
    <path class="cls-7" d="M664.39,364.2c1.23,1.96,2.03,4.41,2.09,6.73.05,1.92-.54,3.83-1.86,5.26-1.95,2.1-4.82,3.12-7.63,2.51-2.04-.45-4.08-1.45-5.7-2.77-.3-.24-1.57.32-1.37.49,1.53,1.23,3.41,2.17,5.29,2.69,3.06.84,6.17.16,8.83-1.5,1.95-1.22,3.39-3.06,3.77-5.36.3-1.81,0-3.68-.59-5.4-.35-1.04-.8-2.09-1.38-3.03-.22-.35-1.56.21-1.45.39h0Z"/>
    <path class="cls-5" d="M701.25,303.19s-6.37,3.85-5.76,9.39c.6,5.54,9.18,2.53,15.45,6.63,6.27,4.1,15.37,16.66,20.98,19.33,5.61,2.66,7.55.75,7.55.75,0,0-8.21-18.22-13.94-24.06-5.73-5.84-24.28-12.04-24.28-12.04Z"/>
    <path class="cls-5" d="M696.51,321.37s-2.62,3.31,1.13,7.78c3.75,4.47,12.35,13.87,20.7,19.19-15.96-15.69-16.98-16.91-19.4-21.93l-2.42-5.03Z"/>
    <path class="cls-5" d="M696.51,327.5s-2.12,2.2-3.31,5.4-3.06,6.9.51,9.09,9.79-8.68,9.15-9.46-6.34-5.03-6.34-5.03Z"/>
    <path class="cls-15" d="M895.16,436.77c3.97-.04,7.9-2.76,6.14-7.11-.49-1.2-.03-2.42,1.26-2.81,1.47-.44,3.36-.99,4.7-2.02.51-.89,1-1.79,1.49-2.7-.08-1.67-1.51-3.44-2.44-4.57-.83-1.01-.6-3.03.97-3.22,3.62-.44,7.52-5.48,4.61-8.77-.84-.95-.61-2.42.5-3.04,1.21-.68,4.17-2.23,3.97-3.7-.16-1.19-2.5-2.61-3.63-3.32-1.45-.9-1.06-3.13.56-3.55,2.68-.69,8.11-4.23,5.63-7.55-.82-1.09-.6-2.26.5-3.04.93-.65,1.73-1.44,2.28-2.29.1-1.34.18-2.69.23-4.05-.28-.44-.67-.87-1.2-1.28-.76-.59-1.32-1.78-.64-2.67.7-.93,1.52-2.06,1.8-3.26-.02-.54-.04-1.07-.07-1.61-.41-.94-1.49-1.39-2.51-1.71-1.48-.47-1.8-2.21-.79-3.29.87-.93,1.8-1.96,2.42-3.11-.2-1.29-.42-2.58-.67-3.87-1.34-1.46-3.34-2.7-4.77-3.84-1.05-.84-1.22-2.04-.31-3.08,1.04-1.18,1.66-2.58,2.21-4.02-.1-.31-.21-.61-.31-.92-.42-.38-.88-.7-1.45-.88-.26-.08-.46-.2-.64-.34-1.1.1-2.48-.6-2.32-1.93.27-2.33.53-4.88-.19-7.15-.75-2.36-2.67-2.97-5-2.69-1.53.19-3.16-1.37-2.11-2.91,2.88-4.23-1.19-8.86-5.85-7.31-1.67.56-2.9-1.56-2.11-2.91,2.91-4.97-2.98-7.68-7.2-7.78-1.41-.03-2.47-1.73-1.62-2.96,2.6-3.76-4.45-5.94-7.13-5.96-1.26-.01-2.17-1.29-1.83-2.48,1.34-4.64-3.3-8.51-7.72-7.28-1.34.37-2.83-1.06-2.32-2.43,1.63-4.36-3.84-5.69-7.05-4.5-1.29.48-2.89-1.15-2.32-2.43.42-.95.59-1.85.59-2.7-1.66-1.05-4.11-1.68-5.73-.3-1.94,1.66-4.27-.98-2.66-2.84.85-.99-.03-2.39-.92-3.18-.53-.47-1.15-.85-1.82-.95-.32-.05-.61.02-.72.17-1.06,1.4-3.76,1.04-3.6-1.06.42-5.58-9.55-2.99-12.36-1.78-2.29.98-4.14-2.44-1.84-3.43,1.93-.83,4.8-1.6,7.68-1.85-30.67-16.88-45.44-12.5-54.63-11.64-3.05.29-5.39,1.73-8.94,3.38,14.2,10.4,31.7,21.35,39.06,38.59,4.66,10.92,4.67,20.15,1.58,31.71-2.63,9.85-8.78,14.3-14.06,22.92-.82,1.34-5.41,6.84-6.4,7.8,2.66,6.32-1.24,9.29-3.95,13.71-4.81,7.84-17.04,27.78-17.04,27.78l6.41,3.93s21.86-22.86,36.27-15.98c14.41,6.88,16.13,21.65,10.88,30.2s-21.97,24.2-53.55,36.58c0,0-3.9,36.9,30.3,57.87l26.11-18.19s32.08-14.98,57.11-40.9c-1.41-.9-1.02-3.63,1.08-3.6,4.06.05,4.85-4.28,4.14-7.51-.28-1.25.67-2.39,1.93-2.4Z"/>
    <path class="cls-5" d="M641.91,417.38l-19.15-3.7s-3.94,13.03,4.43,17.43c5.23,2.75,6.04-10.78,14.71-13.73Z"/>
    <path class="cls-5" d="M639.41,453.5c-1.21-1.6-4.19-2.15-4.62-3.89-.47-1.92,2.93-2.12,3.09-3.94.1-1.14-1.12-2.32-1.64-3.52-.62-1.43-.22-2.84-.73-4.27-.53-1.47-2.08-2.84-3.73-3.29-.65-.18-1.29-.2-1.88-.1-.28-.44-.58-.89-.77-1.33-.62-1.43-.22-2.84-.73-4.27-.53-1.47-2.08-2.84-3.73-3.29-.43-.12-.86-.17-1.28-.16-.34,1.21-.84,2.36-1.54,3.41-2.34,3.49-5.29,6.44-8.21,9.43-.52.53-1.01,1.07-1.51,1.61,0,.05,0,.11,0,.16.17-.12.13-.07,0,.06.01.72-.04,1.43-.13,2.12.75.8,1.68,1.49,2.59,2.16,5.03,3.67,10.17,7.2,15.42,10.58l2.13.6c1.82.8,3.79,1.63,5.53,1.43s2.92-1.96,1.75-3.5Z"/>
    <path class="cls-18" d="M627.18,402.77c-2.78-2.71-7.53-1.5-8.79,2.17-.02.07-.05.14-.07.2-2.29,6.9,4.45,8.54,4.45,8.54,0,0,15.63,11.07,35.9-3.46,0,0-22.15,1.65-31.48-7.47Z"/>
    <path class="cls-18" d="M636.61,384.8s-2-2.61-5.41-1.11-7.45,4.76-2.58,10.39c4.86,5.63,16.54,15.61,30.05,16.14,0,0-10.35-8.52-13.18-15.19-2.83-6.67-8.87-10.24-8.87-10.24Z"/>
    <path class="cls-5" d="M666.16,416.92c.23,2.67.38,5.64-1.32,7.7-.62.75-1.43,1.31-2.23,1.86-1.24.85-2.48,1.7-3.72,2.55-.25.17-.51.34-.81.36-.33.02-.63-.14-.92-.3-.91-.51-1.85-1.05-2.45-1.9s-.77-2.11-.09-2.9c.28-.33.68-.56.83-.97.28-.78-.57-1.46-1.01-2.17-1.11-1.78.39-3.96,1.05-5.94.9-2.69.17-5.68-1.14-8.2-.66-1.27-1.48-2.48-1.87-3.86-.39-1.38-.26-3.02.76-4.02"/>
    <g>
      <path class="cls-5" d="M666.15,410.22c.18-1.94-.62-3.94-2.1-5.21-.69-.59-1.57-1.12-1.76-2.01-.1-.48.03-.98.11-1.47.29-1.6-.99-2.32-2.34-3.22-1.29-.86-2.18-1.75-3.3-2.82-1.47-1.4-.88-4.46-2.77-5.22-.74-.3-1.61-.08-2.36-.35-1.21-.45-1.61-1.96-1.68-3.25-.06-1.29-.47-2.15-1.32-3.12-.77-.88-1.58-1.67-2.67-2.1-1.09-.43-1.26.07-3.18-1.59"/>
      <path class="cls-5" d="M668.32,410.02c.1-1.65-.26-3.19-1.15-4.6-.42-.66-.97-1.19-1.57-1.69-.57-.47-1.18-.86-1.15-1.66.03-.72.28-1.36.08-2.09-.19-.69-.66-1.23-1.19-1.69-1.19-1.03-2.56-1.79-3.71-2.87-.46-.43-1.02-.85-1.33-1.41s-.41-1.21-.57-1.8c-.33-1.22-.77-2.39-1.93-3.04-.77-.43-1.56-.4-2.4-.52-.69-.11-.91-.54-1.09-1.22-.39-1.45-.26-2.74-1.13-4.05-.95-1.42-2.4-2.72-4.03-3.3-1.18-.42-1.58-.46-2.67-1.38-1.31-1.11-5.16.82-3.36,2.34.66.55,1.33,1.09,2.14,1.38.41.15.84.18,1.25.32,1.48.54,2.93,2.27,3.22,3.79.32,1.69.28,3.42,1.95,4.44.47.29,1.03.43,1.57.51.37.05.98-.05,1.32.1.5.22.65,1.05.78,1.51.5,1.75.96,2.89,2.32,4.16.66.62,1.34,1.23,2.06,1.77s1.7.96,2.25,1.68c.58.76.04,1.65.13,2.53s.54,1.48,1.16,2.05c1.61,1.46,2.86,2.82,2.71,5.16-.12,2.07,4.23,1.36,4.34-.4h0Z"/>
    </g>
    <path class="cls-5" d="M638.35,378.4l-3.77,2.81c-.57.92-.5,2.09.18,2.93,4.69,5.77,22.37,29.57,27.32,34.05.12.11-2.32,1.63-2.19,1.71l1.22.99c2.16,1.34,6.54-6.01,5.44-8.3-3.35-6.97-6.72-12.82-9.01-16.23-2.85-4.26-9.25-14.59-13.7-18.65-1.17-1.07-4.65-.67-5.49.68Z"/>
    <path class="cls-5" d="M655.8,465.83c-1.51-1.35-2.8-2.93-3.72-4.55-1.17-2.03-1.4-4.34-2.33-6.43-1.2-2.69-3.58-4.07-6.02-5.58-.37-.23-.7-.48-1.01-.74-.16-.08-.33-.15-.48-.24-1.71-.91-3.26-2.26-4.83-3.5-6.92-5.45-10.57-6.54-18.04-7.85-1.66-.29-3.47-.42-4.31.59-1.67,2-2.73,3.58-2.76,6.58-.04,3.92-5.7,4.78-4.73,8.97.72,3.13,4.67,5.74,6.45,8.86.88,1.54,1.18,3.12,1.87,4.68.69,1.56,2.03,3.3,3.64,3.81,1.9.6,3.2-.76,5.09-.26,2.13.57,3.86,3.15,6.01,4.04,3.43,1.42,4.78-2.26,7.68-2.82,2.33-.45,5.44,1.19,7.96,1.14,2.96-.06,4.51-2.38,5.52-4.73.42-.98.88-2.06,2.04-2.25.59-.1,1.28.06,1.97.27Z"/>
    <path class="cls-5" d="M746.18,447.13s-10.39,15.57-15.24,19.34c-4.85,3.78-64.85,8.74-80,6.62s-31.54-10.48-34.07-16.68c-2.53-6.19,1.16-11.52,1.16-11.52,0,0,1.17,7.04,22.85,15.7,21.69,8.66,76.27,2.9,83.43,2.23,7.16-.67,12.98-15.66,21.86-15.7Z"/>
    <path class="cls-5" d="M633.9,468.94c1.57,3.32,5.56,5.3,9.15,4.53.98-.21,1.99-.6,2.95-.31,1.94.59,2.23,3.43,3.98,4.45,2.85,1.66,6.11-2.69,9.32-1.97,1.06.24,1.91,1.01,2.82,1.61,3.23,2.14,7.72,2.2,11,.13,1.13-.71,2.2-1.67,3.53-1.74,2.01-.1,3.53,1.87,5.5,2.32,3.76.87,6.92-3.97,10.75-3.48,1.98.25,3.57,1.91,5.55,2.18,3.19.43,5.67-2.79,8.79-3.6,4.23-1.11,9.13,2.32,12.87.05,2.04-1.24,3-3.86,5.15-4.9,1.33-.65,2.89-.57,4.31-.98s2.84-1.73,2.45-3.16c-.16-.59-.6-1.06-1.1-1.42-4.51-3.22-10.74,2.52-16.07,1.03-1.62-.45-2.99-1.55-4.6-2.04-4.33-1.32-8.75,2.01-13.28,1.98-3.31-.02-6.52-1.84-9.79-1.31-2.88.47-5.43,2.74-8.33,2.44-2.18-.22-4-1.86-6.17-2.13-3.52-.43-6.7-1-10.22-1.37-1.52-.16-11.35-5.71-12.71-6.41-8.78-4.51-11.35,4.24-19.96,9.07"/>
    <path class="cls-5" d="M853.8,346c.58-3.91-1.97-7.49-3.76-11.01-4.3-8.41-4.54-18.78-.63-27.38,2.4-5.28,6.37-10.73,4.7-16.28-.49-1.64-1.45-3.1-1.98-4.72-.56-1.74-.59-3.6-.82-5.41-.86-6.95-4.38-12.87-9.08-18.09-.77,1.27-3.13,1.39-3.6-.49-.86-3.38-3.31-6.89-7.07-4.8-1.32.73-2.84-.33-2.86-1.76-.03-1.96-1.12-3.98-2.67-5.18-1.69-1.31-3.05-.81-4.09.96-.87,1.48-3.14,1.03-3.55-.56-.59-2.29-1.95-4.85-4.53-5.25-2.6-.41-4.7,1.63-5.98,3.64-.87,1.37-3.22,1.14-3.55-.56-.32-1.67-1.39-3.01-3.16-3.24-1.92-.26-3.26.95-4.01,2.6-.49,1.1-1.8,1.06-2.69.58-.47.17-1.02.14-1.57-.21-1.08-.68-2.08-1.49-3.14-2.2-.65-.44-1.92-1.46-2.79-1.1-.61.25-1.15,1.32-1.65,1.84-.76.79-1.75,1.32-2.83,1.52-1.98.38-3.94-.25-5.84-.74-1.21-.32-2.55-.64-3.75-.3.21.76.39,1.52.78,2.2.71,1.26-.31,2.92-1.76,2.86-2.56-.1-4.5,1.64-5.69,3.76-.09.16-.19.29-.3.41.31,1.17.88,2.26,1.74,3.12,2.13,2.13,5.74,2.61,8.31,1.04-1.62,1.81.04,4.83,2.26,5.83,2.21,1,4.79.88,7.06,1.73,1.78.67,3.28,1.89,4.75,3.1,2.61,2.14,5.22,4.28,7.83,6.43.69.57,1.41,1.17,1.73,2,.73,1.9-.88,4.11-.14,6,1.49,3.79,9.3.88,10.37,4.81.66,2.4-2.37,4.51-2.06,6.98.42,3.35,6.31,3.99,6.33,7.36.01,2.15-2.57,3.66-2.52,5.8.04,1.69,1.7,2.91,2.14,4.54.73,2.73-2.09,5.04-4.65,6.21-2.57,1.17-5.65,2.45-6.24,5.21-.59,2.75,1.74,5.38,1.56,8.19-.26,4.2-5.5,6.02-7.74,9.58-1.59,2.51-1.54,5.69-1.43,8.66.15,4.44.36,9.06,2.51,12.94,2.15,3.88,6.91,6.71,11.07,5.17,4.6-1.7,6.84-7.86,11.71-8.5,2.51-.33,4.91.97,7.38,1.51,8.48,1.85,16.07-5.2,21.79-11.73,1.82-2.08,3.7-4.32,4.11-7.06Z"/>
    <path class="cls-7" d="M759.35,436c.49,6.29,4.6,12.42,10.43,14.85,3.2,1.34,6.74,1.61,10.17,1.35.82-.06,1.11-1.14.13-1.07-5.29.4-10.74-.75-14.49-4.75-2.27-2.43-3.73-5.52-4.45-8.75-.15-.66-.28-1.34-.34-2.02s-1.5-.32-1.45.39h0Z"/>
    <path class="cls-16" d="M803.48,426.28c5.23-2.58,9.72-6.49,12.89-11.39,1.58-2.44,3.05-5.25,3.29-8.21s-.99-5.42-3.18-7.3c-.98-.84-2.07-1.54-3.19-2.17-1.3-.73-2.69-1.58-4.16-1.89-2.53-.54-5.27.82-7.43,2-4.62,2.54-8.78,6.72-10.08,11.97-.33,1.31-.44,2.66-.37,4.01.1,1.85.68,3.95-.38,5.64-1.51,2.39-3.99-.18-4.97-1.63-.87-1.29-1.61-2.6-2.86-3.58-.3-.23-.94-.03-1.16.22-2.27,2.51-4.54,5.02-6.81,7.53-1.54,1.7-4.47,3.93-2.63,6.4,1.41,1.88,4.11,2.85,6.34,3.19,2.54.39,5.13-.03,7.44-1.14.9-.43.09-1.05-.6-.71-2.09,1.01-4.43,1.32-6.7.85-1.89-.39-4.99-1.52-5.57-3.62-.38-1.39.94-2.47,1.78-3.39s1.73-1.91,2.59-2.87c1.78-1.97,3.57-3.94,5.35-5.92l-1.16.22c2.2,1.71,2.81,4.86,5.52,6.02,1.89.81,4.04.06,4.98-1.78,1.23-2.4.09-5.3.37-7.86s1.4-5.08,2.97-7.18c1.67-2.23,3.85-4.07,6.24-5.47,1.2-.7,2.48-1.32,3.8-1.75,2.04-.66,3.58.01,5.39.97,2.39,1.26,4.92,2.78,6.22,5.25,1.58,3,.63,6.49-.81,9.35-2.94,5.85-7.86,10.63-13.72,13.52-.89.44-.09,1.05.6.71h0Z"/>
    <path class="cls-16" d="M802.49,419.64c1.46-2.75,1.23-6.09-.1-8.85s-3.65-4.95-6.11-6.73c-.34-.24-1.6.33-1.36.51,2.43,1.76,4.71,3.88,6.03,6.62s1.55,5.98.11,8.7c-.12.23,1.23.14,1.43-.24h0Z"/>
    <polygon class="cls-15" points="780.57 399.17 694.02 324.94 695.31 316.42 784.77 396.52 780.57 399.17"/>
    <path class="cls-15" d="M685.21,309.14s-29.27,47.64-20.16,48.94c9.1,1.3,31.63-34.41,31.63-34.41,1.79-18.29-11.47-14.53-11.47-14.53ZM686.65,314.4s6.66,1.68,5.08,8.62c0,0-13.27,25.61-23.6,28.76,0,0,4.24-16.67,18.52-37.38Z"/>
    <path class="cls-17" d="M499.37,261.87s38.88-7.77,50.36,18.5c11.48,26.27,14.69,71.49,14.69,71.49l-22.81,6.74c-13.29,3.93-27.15,5.58-40.99,4.89l-19.45-.97s-23.35-88.54,18.2-100.64Z"/>
    <path class="cls-5" d="M475.69,150.73c-7.39.26-14.29,3.04-19.13,8.75-1.56,1.85-2.74,4.1-3.4,6.42-.71,2.52-.32,4.96-.23,7.51v-1.07c0,.26-.03.51-.06.76-.14.5-.1.49.1-.04.39-.5.86-.91,1.41-1.24,2.86-1.06,3.68-1.42,2.44-1.07,2.79-.72.25-.17-.6-.1-3.61.3-7.52,1.5-10.23,4.03-1.68,1.56-2.82,3.66-3.1,5.95s.12,4.52.16,6.77v-1.07c-.02.63-.05,1.26-.17,1.88-.05.26-.17.55-.2.81-.06.57.31-.43.04-.04-.16.23-.3.49-.46.72-.42.64.06-.23.27-.3-.15.05-.38.35-.5.46-.63.59.3-.31.48-.35-.21.04-1.96,1.13-.71.48,1.15-.59-.34.14-.65.28-.98.44-1.99.82-2.96,1.28-2.85,1.36-5.51,2.98-7.61,5.38-.94,1.08-1.67,2.27-2.09,3.67s-.17,2.79-.08,4.16v-1.07c0,.29-.03.56-.05.86-.01.21-.31.66,0,.17.36-.58-.42.45-.51.55-.66.81-1.3,1.7-1.55,2.74-.54,2.21.81,4.08,2.75,5,3.37,1.6,7.76,1.01,11.07-.41,2.96-1.27,5.22-3.38,6.35-6.39.62-1.67.55-3.47.79-5.2.06-.45.14-.89.26-1.33.05-.18.12-.36.18-.54.18-.64-.36.63,0,.08.24-.37-.87.71-.08.07.58-.47-1.25.85-.61.46.69-.42-1.58.8-.85.43,1.27-.63-1.76.49-.61.19.3-.08.6-.17.9-.24.76-.19,1.54-.34,2.3-.53,2.62-.67,5.16-1.69,7.32-3.32,1.98-1.49,3.54-3.49,3.96-5.99.33-1.96.09-3.99.06-5.97v1.07c0-.74.02-1.48.14-2.21.05-.33.21-.68.25-1.01.06-.58-.42.81-.14.3.23-.42.66-.68-.32.23.2-.19.56-.4-.16.07-.2.13-2.03,1.03-1.27.73.67-.26-1.15.43-1.09.35.05-.07.65-.19.67-.2,1.39-.39,2.72-.76,4.08-1.28,2.53-.96,5.31-2.7,6.65-5.13.93-1.68,1.3-3.41,1.52-5.28.09-.75.16-1.51.3-2.26.06-.37.14-.73.24-1.09.04-.15.1-.3.13-.45.21-.88-.35.48-.08.1.03-.04.6-.86.58-.91.03.09-.92.97-.14.27.02-.02-1.14.75-.55.42.82-.46,1.65-.96,2.45-1.46,3.63-2.28,6.62-5.53,8.6-9.33s3.3-8.13,4.41-12.39c.31-1.19-.54-2.19-1.51-2.71-1.33-.71-3.36-.77-4.79-.57-2.84.4-7.36,1.78-8.21,5.02-.48,1.85-.98,3.69-1.57,5.5-.29.88-.59,1.76-.93,2.62-.18.46-.37.91-.56,1.36.4-.92-.13.25-.29.55-.44.85-.91,1.68-1.45,2.48-.23.34-.47.68-.72,1.01-.14.19-.3.37-.44.55-.41.55.95-.97.11-.14-.29.29-.58.58-.88.86-.17.16-.37.3-.54.46-.48.46.64-.46.61-.43-.91.54-1.8,1.12-2.7,1.66-2.56,1.53-4.55,3.46-5.69,6.23-.63,1.54-.73,3.22-.94,4.86-.1.78-.21,1.56-.42,2.32-.02.07-.18.58-.19.57-.08-.04.6-1.02.12-.29-.06.09-.2.27-.23.37-.12.5.93-.83.26-.28,1.35-1.11.9-.61.51-.4.03-.02,1.71-.81.7-.41-.16.06,1.84-.56,1.07-.38-.23.05-.45.13-.68.19-1.42.38-2.86.78-4.21,1.38-3.11,1.39-6.07,3.61-6.95,7.07-.54,2.09-.2,4.38-.16,6.52v-1.07c0,.65-.02,1.29-.1,1.94-.04.31-.09.62-.17.92l-.08.29c-.17.47-.12.39.15-.25.06.04-.49.74-.5.77l.53-.63c-.35.31-.28.27.21-.12.51-.36.57-.42.18-.16,1.16-.57,1.49-.74.98-.51-1.14.49.74-.28.91-.27-.51-.02-1.29.36-1.8.48-.61.14-1.23.27-1.84.43-2.12.55-4.33,1.33-6.18,2.53-2.03,1.31-3.62,2.91-4.55,5.16-.59,1.41-.72,2.84-.84,4.35-.05.68-.12,1.35-.26,2.02-.07.36-.18.71-.28,1.06-.16.41-.17.45-.03.11.15-.33.12-.3-.09.07-.28.38-.27.38.02,0,.58-.78,1.39-1.32,2.41-1.61,1.59-.62,3.68-1.2,5.4-.8l.82.28c-.33-.18-.32-.15.03.09.61.56-.1-.22-.19-.37l.53.93c-.11-.25-.16-.44-.19-.72v1.07c0-.14.02-.29.06-.43.08-.34.02-.22-.2.35-.03-.05.34-.49.38-.54.38-.49.81-.93,1.12-1.47,1.07-1.88.77-3.58.71-5.64v1.07c.02-.24.05-1.52.32-1.66-.08.04-.47.77-.05.2.13-.18.76-.89.13-.29-.68.65.18-.16.25-.23.17-.15.4-.29.54-.47-.28.34-1.16.81-.28.24.2-.13.41-.26.62-.38,1.03-.6-.23,0-.5.24.2-.18.57-.27.81-.37.49-.21.99-.41,1.48-.62,1.5-.64,2.97-1.36,4.4-2.16,2.82-1.58,5.22-3.83,6.45-6.84,1.09-2.68.41-5.73.34-8.53v1.07c.01-.9.08-1.8.31-2.68.04-.16.09-.32.14-.48.12-.33.06-.21-.18.34-.02-.37,1.27-1.58-.03-.22.48-.43.3-.3-.56.41-.73.46-1.51.8-2.34,1.03l-1.33.26c.22-.03.44-.06.66-.08.82-.08,1.63-.11,2.44-.22,3.63-.51,8.01-1.96,10.08-5.24,1.42-2.24.75-4.53.69-6.99v1.07c.02-1.54.33-2.97.81-4.43.32-.98-.39.65.06-.18.19-.36.38-.72.59-1.07.07-.11,1.34-1.83,1.33-1.85-.51.58-.62.71-.34.41.12-.13.24-.25.37-.38.25-.25.52-.47.78-.71.88-.83-1.3.87-.05.03.28-.19.71-.58,1.04-.64l-1.01.52c.21-.1.42-.2.63-.29,1.2-.59-1.88.5-.58.18,1.52-.37-.43-.16-.61.06.23-.04.46-.07.69-.1.72-.06.46-.06-.78.01,1.98-.07,3.84-.32,5.68-1.12,1.28-.55,3.14-1.6,3.87-2.89.54-.97.87-2.19-.05-3.1-.98-.97-2.6-1.41-3.93-1.36h0Z"/>
    <path class="cls-5" d="M491.09,159.24c-6.99.24-14.72,3.07-19.33,8.54-1.52,1.79-2.78,3.95-3.4,6.23-.33,1.21-.46,2.48-.49,3.73s.26,2.49.22,3.74l.06-.81c-.02.25-.06.5-.13.74-.19.44-.17.47.07.07.81-.74,1.75-1.28,2.82-1.63,3.11-.72,4-.97,2.68-.75,2.42-.32.74-.08.18-.04-.93.07-1.87.14-2.8.27-3.77.52-8.05,1.85-10.73,4.69-3.2,3.39-1.86,7.75-2.06,11.9l.06-.81c-.05.56-.12,1.11-.27,1.64-.09.33-.21.64-.35.95-.04.08-.41.68-.15.31s-.18.19-.23.25c-.15.17-.31.33-.47.49-.4.44.97-.69.06-.1-.19.12-.41.25-.58.4.18-.15,1.17-.66.43-.29-.21.11-.42.22-.64.33s-.44.2-.65.31c1.84-.94.95-.43.5-.23-1.38.59-2.77,1.16-4.11,1.81-2.35,1.14-4.84,2.71-6.48,4.78-.71.9-1.41,1.96-1.66,3.09-.31,1.34-.07,2.66-.06,4.01l.06-.81c-.03.3-.1.55-.15.84,0,.04-.23.6-.03.16.18-.39-.03.04-.1.12-.14.17-.29.35-.43.52-.61.75-1.28,1.6-1.46,2.57-.4,2.08,1.14,3.48,3,4.07,3.94,1.25,8.8.01,12.34-1.8,2.35-1.2,4.38-3.15,5.02-5.78.42-1.74.3-3.55.69-5.29.1-.43.23-.86.41-1.27.07-.17.15-.35.25-.51-.33.5,0,.1.08.01.04-.04-.85.74-.44.38.22-.19.81-.46-.07.01-.14.08-1.47.86-1.54.76,0,0,.52-.2.56-.22-2.18.99-1.3.41-.57.23.36-.09.71-.17,1.07-.25.76-.17,1.52-.35,2.27-.57,3.08-.92,6.14-2.15,8.48-4.43,3.07-2.98,2.07-7.1,2.26-10.91l-.06.81c.05-.7.15-1.41.39-2.07.04-.11.16-.28.17-.4.05-.48-.4.52-.1.12.02-.03.3-.33.29-.34.12.24-1.62,1.05-1.8,1.12-1.06.46-.44.18-.2.1,0,0-2.03.59-.91.31.34-.09.68-.18,1.02-.27,1.84-.5,3.64-1.13,5.36-1.98,2.23-1.1,4.3-2.74,5.29-5.08.57-1.35.68-2.86.85-4.3.09-.75.18-1.5.35-2.24.08-.36.18-.71.3-1.06.05-.15.1-.29.16-.43,0-.02.43-.89.15-.38-.32.58.5-.71.58-.63.2.21-1.14.54-.1.17.13-.05.78-.5-.04,0s.4-.21.64-.35c.78-.45,1.56-.91,2.31-1.42,3.3-2.21,5.77-5.32,7.59-8.82s2.92-7.44,3.92-11.29c.73-2.8-4.54-2.33-5.98-2.08-1.88.33-3.83.83-5.51,1.78-1,.56-2.57,1.36-2.88,2.56-.99,3.79-2.05,7.62-3.84,11.13-.22.43-.45.85-.69,1.27-.12.21-.24.41-.37.61.09-.14.41-.59-.04.03-.55.77-1.13,1.51-1.78,2.19-.16.17-.33.33-.5.5-.39.39-.07.38.19-.16-.14.29-.71.57-.99.76-1.19.85,1.1-.6-.22.16-.84.49-1.68.97-2.5,1.5-2,1.27-3.79,2.99-4.55,5.3-.54,1.64-.57,3.38-.83,5.07-.12.76-.27,1.52-.56,2.24-.07.18-.2.36-.24.54-.12.51.38-.56.08-.12-.03.04-.29.3-.29.34.59-.48.72-.6.4-.35-.38.28-.17.15.62-.38.39-.2,3.25-1.13,1.77-.72-.45.13-.91.24-1.36.37-1.92.55-3.87,1.2-5.6,2.21-2.45,1.43-4.56,3.35-4.91,6.29-.26,2.17.04,4.34-.09,6.52l.06-.81c-.05.57-.12,1.14-.28,1.7-.06.23-.33.64-.32.85.02.26.41-.4,0,.05-.25.27-.97.89.14-.05-.75.63,1.11-.64.48-.3-.71.39,1.71-.72.7-.34,2.37-.9,1.35-.42.72-.26-3.65.96-7.26,1.76-10.44,3.95-1.45,1-2.71,2.36-3.39,4.01-.54,1.33-.58,2.79-.7,4.2-.12,1.33-.41,2.47-.88,3.71-.13.35.33-.33-.15.15,2.08-2.09,12.04-2.18,8.58-2.7.78.19.99.21.62.08-.28-.11-.17-.06.32.17-.13-.19-.39-.34-.54-.52l.46.67c-.24-.39-.33-.74-.3-1.19l-.06.81c.04-.18.39-1.06-.05-.31.11-.19.27-.36.41-.53.53-.65,1.1-1.31,1.46-2.07.7-1.49.24-3.07.31-4.63l-.06.81c.07-.58.24-1.07.42-1.62.12-.35.15-.34-.06,0,.15-.24.34-.46.52-.67.14-.16.4-.56.61-.63-.42.13-.66.55-.01.08.37-.27,1.12-.57-.28.13.22-.11.42-.25.64-.36.27-.14.54-.27.81-.41.76-.39-1.59.68-.52.24.55-.23,1.11-.46,1.65-.7,1.69-.74,3.32-1.49,4.9-2.46,2.48-1.53,5.06-3.6,5.8-6.57.69-2.74-.06-5.52.1-8.29l-.06.81c.08-.89.23-1.78.58-2.61.15-.35.58-.75.07-.25.12-.17.26-.32.41-.47-.73.76-1.62,1.29-2.66,1.59-.85.33-1.71.57-2.61.72.71-.09.43-.07-.82.07.33,0,.67-.04.99-.07,1.87-.15,3.66-.36,5.47-.85,2.99-.8,7.49-2.44,8.51-5.8.58-1.92-.13-4.03,0-5.99l-.06.81c.13-1.39.47-2.74,1.02-4.03.14-.32.29-.64.45-.95.11-.21.53-.93.16-.34.41-.64.89-1.24,1.4-1.8.24-.26.49-.5.74-.75.28-.26.17-.17-.33.28.13-.11.27-.22.41-.33.28-.22.57-.41.85-.62.49-.36-1.36.75-.15.11,1.31-.7-1.08.4-.39.16,1.49-.53-1.4.36-.58.17,1.54-.37-1.42.24-.59.12.54-.08.23-.06-.94.08.23-.02.47-.03.7-.04,1.89-.07,3.91-.53,5.66-1.21,1.23-.48,3.14-1.32,3.99-2.44,1.96-2.61-1.71-3.19-3.62-3.13h0Z"/>
    <path class="cls-5" d="M505.49,168.43c-4.22.15-8.56,1.36-12.35,3.2-2.65,1.28-5.25,3.04-7.13,5.33-1.55,1.88-2.82,3.95-3.4,6.33-.28,1.18-.44,2.42-.43,3.64s.32,2.5.18,3.77l.09-.7c-.04.25-.11.49-.21.72-.25.44-.24.45.02.03,1.77-1.34,3.79-2.16,6.06-2.46-.69.11-.41.07.85-.1-1.32-.01-2.84.21-4.1.43-3.64.64-8.07,1.85-10.66,4.69-3.13,3.41-1.57,7.78-1.93,11.88l.09-.7c-.07.55-.17,1.1-.36,1.63-.11.3-.23.58-.38.86-.03.06-.4.65-.17.33s-.2.22-.25.27c-.16.16-.34.31-.49.47-.41.44.97-.63.05-.05-.18.12-.44.23-.59.38.16-.15,1.18-.61.43-.24-.22.11-.43.22-.65.32s-.44.21-.66.3c-.19.08-1.35.58-.16.08,1.08-.46.24-.1,0,0-.44.19-.88.37-1.32.56-.72.3-1.44.6-2.13.96-2.45,1.26-4.91,2.76-6.59,4.99-.65.87-1.17,1.73-1.36,2.81-.24,1.35.07,2.66-.07,4l.09-.7c-.06.26-.57,1.3-.21.79-.41.58-.92,1.1-1.32,1.68-.53.77-.93,1.84-.61,2.78.88,2.63,4.81,2.74,7,2.57,4.41-.34,10.13-1.9,12.59-5.92,1.2-1.95,1.06-4.48,1.31-6.68l-.09.7c.09-.64.19-1.28.4-1.89.1-.3.22-.59.37-.87.08-.17.18-.33.29-.49l-.15.24.21-.21c-.6.44-.74.55-.43.33.6-.39-1.38.65-.48.26l-1.12.47c.5-.18.38-.14-.38.1-1.39.44-.4.13-.06.04,3.46-.9,6.83-1.7,9.95-3.55,2.33-1.38,3.95-3.31,4.3-6.02.29-2.28-.1-4.56.15-6.84l-.09.7c.06-.4.12-.79.24-1.18.07-.24.4-.71.4-.94.14-.23.08-.18-.17.16.13-.16.27-.3.42-.44-.37.34-.78.61-1.24.81-.73.36-1.49.63-2.28.83,2.93-.75,5.99-1.62,8.55-3.29,1.65-1.07,3.12-2.48,3.74-4.39.53-1.63.6-3.41.81-5.1l-.09.7c.15-1.14.35-2.31.85-3.36.13-.27.28-.56.46-.79-.34.44.09.02.26-.16.38-.41-.74.45.05,0,.33-.19.65-.4.98-.59,2.57-1.49,4.89-3.28,6.7-5.65,3.44-4.5,5.07-9.83,6.48-15.24.67-2.58-4.61-1.82-5.85-1.59-1.88.35-3.81.85-5.52,1.74-.92.48-2.66,1.23-2.95,2.32-.75,2.86-1.53,5.72-2.64,8.46-.52,1.3-1.11,2.56-1.81,3.78-.36.62-.74,1.22-1.15,1.81-.15.21-.14.19.05-.06-.11.14-.22.28-.33.41-.22.27-.46.54-.7.8-.44.48-.92.91-1.4,1.34-.8.72.72-.44-.13.08-.31.19-.61.41-.93.6-1.55.93-3.17,1.78-4.43,3.12-2.14,2.29-2.28,5.14-2.65,8.1l.09-.7c-.12.92-.26,1.86-.59,2.73-.07.18-.14.37-.23.55,0,.02-.47.8-.17.37.28-.4-.09.16-.19.18-.26.25-.13.16.39-.28l.78-.42c.13-.06,1.6-.62.71-.32.3-.1,1.95-.59.73-.26-.51.14-1.01.27-1.52.42-2.34.71-4.75,1.53-6.76,2.97-2.2,1.58-3.25,3.43-3.45,6.1-.15,2.01.17,4.02-.06,6.03l.09-.7c-.14.92-.51,1.6-.82,2.45-.13.35.31-.26.01-.05-.16.11-.56.65-.05.08.54-.59-.51.2.45-.31.31-.2.64-.36.99-.48.61-.25.75-.31.42-.18-.8.29,1.88-.51,1.03-.32-.25.06-.5.14-.75.2-.41.1-.82.19-1.23.28-1.41.32-2.79.7-4.16,1.19-2.88,1.03-5.95,2.48-7.68,5.12-1.27,1.93-1.16,4.42-1.39,6.63l.09-.7c-.15,1.17-.37,2.47-1.07,3.44.26-.36-.05-.15-.11.03,3.04-2.34,6.21-3.27,9.49-2.78.4.07.47.07.22,0-.33-.09.45.42.03-.02-.18-.18-.38-.32-.54-.52l.43.57c-.24-.39-.33-.74-.3-1.19l-.09.7c.07-.35.18-.58.32-.9.25-.59-.13.13.12-.16.52-.62,1.11-1.26,1.45-1.99.7-1.49.11-3.16.3-4.72l-.09.7c.11-.55.27-1.07.53-1.57.04-.08.52-.82.26-.46s.39-.41.38-.4c.05-.05.53-.45.52-.48-.49.37-.59.45-.3.23.1-.07.2-.14.3-.21.16-.11.68-.31.77-.49-.14.28-1.24.66-.24.16.1-.05.81-.34.81-.38,0,.04-1.63.69-.69.29,1-.42,2-.83,2.99-1.27,1.46-.64,2.89-1.39,4.23-2.25,2.3-1.49,4.52-3.59,5-6.4s-.26-5.49.08-8.25l-.09.7c.15-.91.44-1.67.79-2.51.26-.63-.34.19.18-.24-.41.33-.85.61-1.34.82-4.46,1.19-5.79,1.62-3.99,1.3-2.55.4.19.05.84-.01,2.39-.23,4.74-.7,7-1.53,2.75-1.01,6.24-2.61,6.57-5.89.18-1.84-.29-3.65-.06-5.51l-.09.7c.21-1.38.62-2.71,1.24-3.97.28-.58.61-1.13.97-1.66.1-.15.2-.29.3-.43-.19.25-.2.28-.04.07.23-.27.46-.53.7-.79.42-.44.89-1,1.42-1.31-1.11.65-.08.1.13-.04.51-.33,1.2-.42-.16.06.42-.15,1.78-.71-.4.13,1.19-.46-1.91.46-.58.17-.3.07-2,.42-.76.18.54-.08.23-.04-.93.12.23-.02.47-.03.7-.04,1.85-.06,3.93-.62,5.65-1.25,1.3-.48,3.04-1.21,4.04-2.26,2.28-2.4-2.05-2.62-3.48-2.57h0Z"/>
    <g>
      <path class="cls-5" d="M466.26,153.1c-.73,11.28,6.37,26.82,10.77,37.29,4.5,10.7,7.3,14.11,16.64,20.28,18.21,12.01,39.58,19.67,61.67,19.56,22.79-.11,44.66-8.89,61.76-24.48,11.95-10.89,16.63-25.58,23.7-39.44.52-1.56,3.22-11.22,3.74-12.78.7-29.05,4.48-34.19-17.9-53.97-13.65-12.31-20.93-29.71-50.52-34.99-6.38-1.14-15.52,1.38-24.13.65-12.97-1.1-29.02.86-38.38,6.83-13.68,8.74-24.15,25.44-34.15,41.17-7.58,11.92-12.26,25.51-13.2,39.61,0,.09-.01.18-.02.27Z"/>
      <path class="cls-5" d="M554.9,231.22c-20.86,0-42.22-6.82-61.78-19.73-9.55-6.3-12.41-9.79-17.01-20.73-.37-.87-.75-1.78-1.15-2.72-4.38-10.31-10.39-24.44-9.7-35.02l.02-.27c.92-13.94,5.54-27.79,13.35-40.08l.54-.85c9.98-15.7,20.3-31.93,33.92-40.63,10.52-6.71,27.58-7.95,39-6.98,4.09.35,8.29-.05,12.36-.44,4.34-.41,8.44-.81,11.86-.2,22.61,4.03,32.31,14.94,41.69,25.49,3.08,3.46,5.98,6.73,9.32,9.74,19.75,17.46,19.46,24.23,18.6,44.34-.13,3.07-.28,6.54-.37,10.4l-.05.29c-.25.76-1.06,3.59-1.85,6.32-.84,2.91-1.63,5.66-1.89,6.46l-.06.14c-1.65,3.24-3.2,6.58-4.7,9.81-4.88,10.54-9.94,21.45-19.22,29.92-17.38,15.85-39.55,24.63-62.43,24.74-.15,0-.3,0-.45,0ZM467.26,153.16c-.66,10.11,5.24,23.98,9.54,34.11.4.94.79,1.85,1.15,2.72,4.41,10.47,7.14,13.81,16.27,19.83,19.24,12.69,40.21,19.4,60.68,19.4.15,0,.29,0,.44,0,22.38-.1,44.08-8.71,61.09-24.22,8.99-8.2,13.74-18.44,18.76-29.28,1.49-3.22,3.04-6.56,4.69-9.81.28-.85,1.07-3.63,1.84-6.31.78-2.73,1.53-5.31,1.83-6.25.09-3.82.24-7.25.37-10.29.85-19.92,1.11-25.93-17.93-42.76-3.43-3.09-6.51-6.55-9.48-9.9-9.16-10.29-18.62-20.94-40.55-24.85-3.15-.56-7.12-.18-11.32.22-4.15.4-8.44.81-12.72.45-11.98-1.02-28.3.65-37.76,6.67-13.25,8.46-23.44,24.5-33.3,40.02l-.54.85c-7.63,12-12.14,25.54-13.04,39.14l-.02.27h0Z"/>
    </g>
    <path class="cls-14" d="M599.98,240.42c5.92-7.56,12.22-21.54,12.83-26.89,2.44-3.69,5.24-7.99,8.59-13.2.97-1.51,1.86-2.99,2.74-4.46.38-.8.82-1.56,1.33-2.28,14.99-26.21,14.78-44.91,14.78-44.91-.37-23.74-13.32-45.5-34.01-57.14-24.05-14.2-54.36-13.04-74.47-5.45-9.97,3.74-18.21,11.05-23.12,20.5-4.21,8.07-2.54,20.91-5.63,30.59-8.06-5.51-20.04-9.68-26.42,7.45-8.8,23.63,5.77,35.12,15.58,34.97-.71,12.82-3.61,18.89-6.68,25.03-3.18,6.37-11.82,16.77-14.51,18.6l-18.75,2.73c.16,39.88,34.45,85.34,80.58,52.61l.23-11.14,3.49-5.99c.58.31-.56-.31,9.91,2.3,32.45,6.22,46.55-14.41,53.53-23.32Z"/>
    <path class="cls-16" d="M534.17,265.79l2.64-4.53s-29.05-13.76-38.16-38.52c0,0,4.18,20.62,16.67,30.98,12.49,10.37,18.85,12.07,18.85,12.07Z"/>
    <path class="cls-5" d="M503.68,149.58c.03-.15,3.49-4.95.43,1.6-1.53,3.29.15-9.27-1.28-12.89-.65-1.66-1.48-3.55-2.63-5.03-1.15-1.49-2.36-3.13-3.9-4.27-2.01-1.85-9.61-1.76-12.22-2.42-.47-.06.69,5.44.22,5.38,3.64-21.65,8.88-38.22,34.58-52.77,7.41-4.19,21.75-5.33,26.2-5.79,26.84-2.61,44.97,6.36,65.56,20.64,23.87,16.56,39.58,38.46,32.69,66.01-1.66,6.64-2.55,9.32-6.26,14.96,0,0,9.06-11.45.57-25.21-8.49-13.76-10.76-15.15-28.09-24.47-20.03-10.87-24.35-17.39-44.42-18.45-18.34-.93-24.63,3.49-24.63,3.49-2.76,2.97-6.52,4.74-9.72,7.17-3.16,2.39-5.51,5.48-7.57,8.84-4.23,6.87-3.77,3.84-6.96,11.32-1.98,4.64-5.46,13.89-11.46,14.34-2.68.2.66-.55-1.09-2.44Z"/>
    <path class="cls-14" d="M505.55,137.45c.89,1.08,12.49,1.68,12.78,3.55,37.59-21.16,100.91-8.01,114.05,35,1.67-5.63,6.57-15.32,6.76-17.49,2.33-27.56-13.25-47.8-34.6-62.93-21.36-15.13-53.36-24.32-80.58-9.36-26.4,14.5-40.39,33.59-18.4,51.23Z"/>
    <g>
      <path class="cls-5" d="M544.74,119.94l.09-1.1c-2.27,1.33-5.04,1.78-7.61,1.26-1.52-.31-3.46-.79-4.33.49-.26.37-.35.84-.61,1.22-1.63,2.39-5.37-1.85-8.05-.74-2.26.93-1.77,4.81-3.96,5.9-1.94.97-4.42-1.08-6.36-.11-2.4,1.21-1.61,5.79-4.2,6.5-1.87.51-3.72-1.7-5.57-1.11-.87.28-1.44,1.09-2.03,1.85,3.2,3.68,6.23,7.63,9.64,11.45.58-.89,1.07-1.88,1.38-2.86.28-.87.6-1.83,1.4-2.28,1.76-1,3.74,1.35,5.76,1.19,3.54-.27,2.85-6.81,6.21-8,2.01-.71,4.45,1.01,6.26-.11,2.37-1.47,1.35-6.43,4.12-6.79.85-.11,1.65.36,2.49.49,1.67.26,3.3-.9,4.13-2.37.83-1.47,1.03-3.2,1.22-4.89Z"/>
      <path class="cls-5" d="M544.87,119.91l.09-1.1c0-.05-.2.02-.22.03-1.77.99-3.76,1.51-5.79,1.41-1.15-.05-2.23-.39-3.37-.51s-2.28-.01-2.9,1.02c-.26.43-.37,1.11-.82,1.41-.57.38-1.24.34-1.85.17-.89-.25-1.71-.69-2.57-1.02-1.02-.39-2.18-.72-3.25-.29-1.27.52-1.71,1.89-2.13,3.07-.25.69-.49,1.42-.93,2.02-1.18,1.61-3.15.86-4.76.54-1.03-.2-2.12-.22-2.98.46-1.18.93-1.4,2.63-1.87,3.95-.52,1.47-1.29,2.65-3.25,2.14-1.06-.27-1.98-1-3.09-1.11-1.48-.14-2.35.93-3.17,2.01,0,0,0,.01,0,.02,3.27,3.77,6.33,7.72,9.64,11.45.04.05.21-.02.24-.06.64-1.02,1.09-2.06,1.49-3.19.14-.39.28-.96.57-1.26.34-.35,1.76-.83,2.22-.75.35.06.72.26,1.04.4,1.12.5,2.29,1.17,3.55.84,2.27-.59,2.72-3.62,3.56-5.45.29-.64.65-1.3,1.16-1.8,1.27-1.24,3.13-.71,4.68-.48,1,.15,2.08.16,2.92-.49,1.01-.77,1.32-2.14,1.63-3.31.17-.64.32-1.3.6-1.91.14-.31.32-.66.57-.89.86-.76,2.02-.32,2.99-.09,1.31.31,2.58-.07,3.6-.93,1.83-1.55,2.14-4.07,2.4-6.32,0-.03-.24,0-.25.07-.37,3.28-1.47,8.09-5.96,6.97-1.08-.27-2.12-.53-3,.32-1.03,1.01-1.11,2.78-1.55,4.08-.46,1.38-1.15,2.43-2.89,2.49-1.09.03-2.15-.41-3.24-.45-3.08-.12-3.9,2.81-4.86,5.18-.26.66-.55,1.34-.98,1.9-1.25,1.63-3.01.95-4.55.24-1.05-.48-2.24-.94-3.29-.21-.64.44-.92,1.18-1.18,1.88s-.47,1.35-.8,2c-.07.14-.35.78-.45.8-.39.11-.76-.53-.96-.76-1.91-2.19-3.73-4.44-5.58-6.68-.8-.97-1.85-1.94-2.51-3-.33-.53-.47-.66-.15-1.23.13-.24.47-.62.71-.77.45-.29,1.68-.52,2.2-.41.4.08.84.31,1.22.48,1.09.48,2.29.99,3.44.37,1.23-.66,1.54-2.23,1.92-3.44.23-.73.47-1.52.95-2.13,1.22-1.56,3.12-.79,4.7-.48,1.13.22,2.33.21,3.2-.65,1.18-1.15,1.24-3,2.1-4.35,1.09-1.7,3.09-1.16,4.62-.52.75.31,1.5.69,2.3.88,1.07.25,1.99,0,2.53-1.01.1-.19.16-.44.27-.63.49-.79,1.35-1.1,2.23-1.05.76.04,1.5.24,2.25.38,1.18.21,2.38.23,3.56.06.86-.13,1.72-.35,2.53-.67.11-.04,1.28-.65,1.29-.64.06.04-.08.94-.09,1.04,0,.03.24,0,.25-.07Z"/>
    </g>
    <g>
      <path class="cls-5" d="M547.73,104.32c.51,1.86-.32,4-1.94,5.04-1.62,1.04-3.91.9-5.39-.34-.43,2.46-3.16,4.25-5.59,3.68-1.04-.25-2.04-.86-3.1-.72-2.61.34-3.19,4.65-5.81,4.95-.98.11-1.96-.43-2.94-.3-2.02.27-2.71,3.02-4.57,3.86-2.27,1.02-5.1-1.24-7.31-.09-1.55.81-2.31,3.12-4.06,3.1-.92-.01-1.77-.73-2.67-.53-1.08.24-1.42,1.57-1.98,2.53-1.37,2.37-5.29,2.62-6.95.44-.97,1.56-2.63,2.69-4.44,3.03-.1-2.12-.2-4.31.56-6.29.75-1.98,2.59-3.72,4.71-3.66.82.02,1.65.3,2.45.12,2.03-.46,2.7-3.51,4.77-3.82,1.39-.2,2.85.98,4.11.36.6-.3.94-.94,1.37-1.46,1.51-1.85,4.53-2.22,6.44-.77.54.41,1.04.96,1.71,1.04,1.94.23,2.05-3.06,3.67-4.15,1.59-1.08,4.08.37,5.56-.86.49-.41.74-1.04,1.19-1.5.71-.73,1.78-.92,2.79-1.07,5.15-.77,10.32-1.37,15.51-1.78"/>
      <path class="cls-5" d="M547.61,104.35c.95,4.15-3.67,7.24-7.11,4.61-.06-.05-.2,0-.22.08-.57,2.58-3.22,4.21-5.78,3.48-1.35-.38-2.57-1.03-3.88-.21-1.13.7-1.74,1.99-2.53,3.01-.68.87-1.4,1.52-2.57,1.51-.96,0-1.88-.47-2.85-.22-1.28.34-2.01,1.59-2.81,2.54-.85,1.01-1.82,1.61-3.2,1.51-.99-.07-1.94-.4-2.92-.57-1.28-.22-2.46-.1-3.46.79-.61.54-1.06,1.22-1.64,1.78-.79.74-1.66.72-2.67.48-.4-.09-.76-.3-1.18-.29-1.61,0-1.91,1.79-2.66,2.86-1.51,2.15-4.93,2.14-6.56.17-.06-.07-.19-.02-.23.04-.47.71-1.02,1.33-1.72,1.83-.44.31-1.55,1.11-2.09,1.01-.87-.16-.44-3.35-.33-4.13.21-1.49.74-2.93,1.79-4.04,1.37-1.44,2.83-1.49,4.68-1.34,1.73.14,2.61-.91,3.62-2.16.95-1.18,1.91-1.95,3.53-1.55.8.19,1.64.57,2.48.34.73-.2,1.12-.8,1.56-1.36.99-1.27,2.47-1.98,4.1-1.86,1.35.1,2.1.8,3.15,1.5.51.34,1.09.55,1.7.33,1.3-.48,1.63-2.37,2.36-3.38,1.52-2.11,4.07-.26,5.98-1.39.34-.2.57-.5.81-.8.74-.93,1.39-1.53,2.62-1.8,1.82-.39,3.71-.56,5.56-.79,3.55-.45,7.11-.82,10.68-1.11.13-.01.19-.18.03-.17-3.24.26-6.48.59-9.71.99-1.45.18-2.9.37-4.35.58-1.1.16-2.35.22-3.37.68-1.09.49-1.44,1.59-2.4,2.2-1.24.79-2.66.19-4.04.36-1.55.19-2.2,1.39-2.83,2.68-.21.42-.43.98-.77,1.32-.83.84-1.76.42-2.47-.14s-1.44-.99-2.37-1.15c-1.59-.27-3.33.22-4.45,1.39-.38.39-.63.98-1.06,1.31-.87.67-1.73.49-2.71.23-.79-.21-1.58-.41-2.37-.09-1.68.66-2.16,2.79-3.77,3.51-1.34.6-2.88-.22-4.28.25-.92.31-1.72.92-2.34,1.65-1.91,2.26-1.8,5.39-1.66,8.18,0,.08.09.08.14.07,1.24-.27,2.37-.8,3.32-1.65.18-.16.83-1.11,1.01-1.14.28-.05.8.53,1.07.69,1.55.89,3.67.74,5.1-.33.89-.67,1.11-1.62,1.7-2.51,1.36-2.03,2.83-.14,4.41-.61.96-.29,1.57-1.18,2.21-1.89.53-.59,1.1-1.14,1.89-1.36,1.07-.29,2.22.08,3.27.31,2.27.51,3.76.25,5.26-1.58.38-.46.72-.95,1.15-1.38.95-.95,1.92-.92,3.2-.7.9.16,1.72.18,2.51-.35,2.08-1.38,2.57-5.05,5.7-4.39,1.13.24,2.08.81,3.27.71,1.11-.09,2.18-.58,2.99-1.33.41-.37.76-.81,1.02-1.3.07-.13.16-.46.26-.59.42-.53-.14-.29.54-.16.58.11,1.12.5,1.75.59s1.25.05,1.86-.1c2.52-.62,3.93-3.24,3.36-5.71-.02-.1-.27-.04-.25.07h0Z"/>
    </g>
    <g>
      <path class="cls-5" d="M547.27,97.88c-.91,2.86-4.49,4.54-7.27,3.41-.55-.22-1.08-.54-1.67-.53-1.23.02-1.96,1.34-2.89,2.15-2.1,1.83-5.39,1.01-7.82-.37-1.55-.88-3.58-1.92-4.93-.76-.53.46-.81,1.19-1.41,1.55-1.6.96-3.99-1.33-5.36-.05-.62.58-.59,1.63-1.18,2.25-1.26,1.31-3.43-.53-5.21-.16-.82.17-1.46.8-2.05,1.41-1.79,1.84-3.58,3.69-5.37,5.53-.44.45-.99.94-1.61.84-1.05-.18-1.09-1.67-.8-2.7,1.61-5.77,4.72-11.12,8.94-15.37,1.06-1.06,2.68-2.11,3.93-1.29.41.27.74.74,1.24.79.81.09,1.22-.9,1.55-1.64,1.38-3.05,5.93-4.04,8.45-1.83.68.59,1.39,1.43,2.27,1.26.59-.11.99-.64,1.49-.98,1.27-.87,3.02-.39,4.36.37s2.6,1.8,4.12,2.02c1.91.28,3.93-.78,5.74-.09,2.18.83,3.31,3.98,5.64,3.84"/>
      <path class="cls-5" d="M547.14,97.9c-.91,2.56-3.74,4.24-6.44,3.54-1.21-.31-2.15-1.1-3.38-.42-.66.36-1.12,1.01-1.64,1.54-1.4,1.42-3.38,1.56-5.22,1.08-2.02-.53-3.73-2.14-5.82-2.39-1.09-.13-1.86.26-2.57,1.08-.22.26-.37.62-.66.81-.38.25-1.23.37-1.67.33-.39-.04-.79-.21-1.16-.31-.59-.17-1.21-.37-1.84-.28-1.26.18-1.24,1.26-1.81,2.16-1.25,1.97-3.64-.06-5.41.3-1.55.31-2.67,1.96-3.69,3.01-.89.92-1.79,1.84-2.68,2.76-.42.43-.84.98-1.31,1.35-1.14.88-1.99.62-2.17-.52s.33-2.28.68-3.31c.38-1.12.81-2.23,1.3-3.3.98-2.16,2.18-4.21,3.57-6.13,1.19-1.64,4.43-6.51,6.88-5.5.79.33,1.39,1.29,2.32.75.64-.37.83-1.21,1.16-1.81.61-1.12,1.66-1.95,2.86-2.36,1.27-.44,2.71-.44,3.96.08.88.37,1.44,1.04,2.19,1.6.45.33.92.55,1.48.44,1.5-.3,1.52-1.66,3.72-1.36,2.43.33,4.05,2.66,6.55,2.82,1.07.07,2.11-.23,3.17-.32,1.61-.13,2.72.28,3.84,1.36s2.19,2.67,3.98,2.67c.05,0,.28-.09.16-.09-2.18,0-3.21-2.35-4.83-3.43-2.15-1.44-4.59.14-6.9-.39s-3.91-2.7-6.35-2.78c-.55-.02-1.1.07-1.6.31-.35.17-.6.51-.94.67-1.21.58-1.86.2-2.71-.55-2.29-2.03-6-1.86-8.11.41-.58.63-.73,1.51-1.26,2.12-.26.29-.98.6-1.42.49-.24-.06-.49-.44-.71-.57-.32-.19-.66-.29-1.03-.3-1.64-.04-2.99,1.47-3.99,2.55-3.5,3.79-6.16,8.36-7.72,13.28-.32,1.01-1.25,4.16.85,3.92.32-.04.6-.19.86-.37,1.22-.85,2.23-2.22,3.26-3.29.98-1.01,1.93-2.05,2.94-3.02,1.62-1.56,2.93-.97,4.69-.57,1.09.25,2.12.14,2.67-.95.2-.38.25-.84.47-1.21.59-.96,1.57-.86,2.44-.62.75.21,1.53.54,2.32.47.33-.03.66-.12.95-.3.31-.19.51-.48.74-.75.55-.65.61-.78,1.5-1.02s1.17-.22,2.03.11c2.31.88,4.2,2.42,6.81,2.34.69-.02,1.37-.15,2-.44.98-.44,1.51-1.24,2.28-1.93.36-.33,1.32-.81,1.82-.81.43,0,.9.34,1.31.49.51.19,1.02.32,1.56.35.67.04,1.35-.04,2-.23,1.82-.52,3.31-1.81,3.95-3.6.01-.04-.22-.01-.24.05h0Z"/>
    </g>
    <g>
      <path class="cls-5" d="M545,92.67c-4.01-.33-4.99-7.12-9.01-7.35-1.94-.11-4.14,1.43-5.65.2-.69-.56-.98-1.59-1.8-1.94-1.7-.74-2.83,1.99-4.57,2.64-2.17.81-4.48-1.9-6.67-1.14-.62.21-1.11.68-1.71.94-1.12.49-2.41.18-3.63.08-1.22-.1-2.67.17-3.2,1.28-.17-4.95,3.69-9.73,8.56-10.6.53-.09,1.08-.15,1.53-.43.44-.27.74-.72,1.07-1.13,1.66-2.03,4.45-3.07,7.03-2.61.9.16,1.83.49,2.71.21,1.23-.39,1.8-1.78,2.79-2.6,2.32-1.92,5.83-.22,8.79-.78,1.23-.24,2.34-.87,3.55-1.19,1.29-.34,2.68-.31,3.96.09,1.02.32,2.07,1.04,2.14,2.1.04.73-.4,1.4-.52,2.12-.31,1.82,1.43,3.29,3.01,4.23,1.59.94,3.44,2.09,3.58,3.93.2,2.61-3.08,4.07-4.04,6.51-.42,1.07-.37,2.29-.88,3.31-.47.94-1.35,1.59-2.21,2.2-1.51,1.09-3.01,2.18-4.52,3.26"/>
      <path class="cls-5" d="M545.04,92.57c-2.77-.32-4.04-3.37-5.62-5.27-.63-.76-1.37-1.48-2.31-1.84-1.21-.46-2.42-.13-3.62.16s-2.34.51-3.28-.41c-.55-.54-.84-1.37-1.58-1.71s-1.44-.02-2.04.44c-1.59,1.24-2.51,2.83-4.82,2.06-1.21-.4-2.4-1.21-3.73-1.16-.72.03-1.25.36-1.87.71-1.48.84-2.76.5-4.36.43-1.25-.06-2.53.23-3.2,1.37h.26c-.04-2.83,1.09-5.53,3.07-7.56.97-.99,2.12-1.8,3.4-2.34,1.13-.47,2.55-.41,3.58-1.05.46-.29.75-.75,1.09-1.15.56-.65,1.19-1.21,1.93-1.64,1.49-.87,3.24-1.18,4.94-.91,1.11.18,2.19.58,3.24,0,.92-.51,1.42-1.51,2.17-2.21,2.31-2.17,5.77-.52,8.55-.9,1.25-.17,2.35-.77,3.55-1.14,1.78-.55,4.52-.63,5.86.93,1.07,1.24-.19,2.49-.07,3.84.09,1,.75,1.83,1.47,2.48,1.78,1.61,5.77,2.78,5.08,5.87-.54,2.45-3.38,3.64-4.12,6.05-.29.95-.28,1.98-.74,2.88s-1.24,1.47-2.01,2.04c-1.55,1.14-3.12,2.25-4.68,3.38-.15.11.07.21.18.13,1.51-1.09,3.02-2.17,4.52-3.26,1.15-.84,2.14-1.66,2.55-3.08.47-1.64.58-2.92,1.73-4.26.8-.94,1.79-1.75,2.41-2.84,1.31-2.28-.33-4.15-2.22-5.37-1.27-.82-2.71-1.53-3.5-2.88-.6-1.02-.37-1.8-.07-2.87.13-.47.28-.92.16-1.42-.63-2.52-4.76-2.4-6.61-1.82-1.54.48-2.91,1.19-4.57,1.19s-3.19-.38-4.8-.26c-.96.07-1.88.35-2.63.96-.43.35-.77.81-1.12,1.23-.27.32-.53.65-.85.92-.87.69-1.93.49-2.93.3-2.58-.48-5.21.13-7.12,2-.87.86-1.32,1.67-2.64,2.02-.72.19-1.42.28-2.12.55-1.32.51-2.53,1.3-3.56,2.28-2.16,2.07-3.43,4.94-3.39,7.94,0,.15.21.09.26,0,1.24-2.11,4.01-.76,5.91-1.06.58-.09,1.03-.33,1.54-.63,1.17-.68,2.05-.77,3.3-.32,1.11.4,2.2,1.1,3.42,1.09,1,0,1.75-.55,2.45-1.21.55-.51,1.07-1.23,1.79-1.51,1.45-.56,1.88.77,2.68,1.6.69.72,1.6.82,2.54.68,1.74-.26,3.4-1.09,5.06-.09,1.01.61,1.74,1.59,2.41,2.53,1.29,1.78,2.58,4.02,4.97,4.3.14.02.27-.18.09-.2h0Z"/>
    </g>
    <g>
      <path class="cls-5" d="M554.51,97.76c2.4.15,4.65-2.18,4.4-4.58-.08-.8-.33-1.77.29-2.27.27-.22.63-.27.96-.35,2.13-.55,3.47-3.12,2.71-5.18-.16-.43-.4-.85-.42-1.31-.1-1.91,3.32-2.85,2.79-4.68-.44-1.55-3.01-1.14-3.97-2.44-.93-1.26.29-3.2-.48-4.56-1.15-2.02-5.48-.99-5.64-3.31-.09-1.21,1.38-2,2.59-1.85,1.2.14,2.26.85,3.42,1.2,3.01.91,6.18-.67,9.32-.76,3.28-.09,6.35,1.45,9.27,2.94,1.25.64,2.54,1.31,3.44,2.4,1.38,1.67,1.54,4.24.39,6.07-.22.36-.51.74-.43,1.16.05.24.21.44.37.63.79.94,1.58,1.89,2.38,2.83.3.36.62.76.6,1.23-.05,1.07-1.62,1.22-2.61.8-.99-.43-2.16-1.06-3.03-.44-1.63,1.17.86,4.11-.41,5.66-1.31,1.6-4.37-.72-5.88.71-.89.85-.51,2.42-1.2,3.44-.71,1.05-2.24,1.11-3.47.83-1.24-.27-2.51-.77-3.73-.42-.93.26-1.65.97-2.46,1.49-2.46,1.58-5.62,1.43-8.54,1.22"/>
      <path class="cls-5" d="M554.46,97.82c1.52.02,2.91-.68,3.79-1.93.43-.61.73-1.32.79-2.07.04-.54-.08-1.04-.11-1.57-.05-1.17.67-1.42,1.58-1.75,1.4-.51,2.43-1.85,2.66-3.32.14-.92-.15-1.63-.43-2.49-.36-1.13.18-1.88.98-2.64s2.16-1.71,1.55-2.95c-.78-1.6-3.39-.85-4.09-2.63-.66-1.67.85-3.75-1.08-4.93-1.25-.77-2.92-.55-4.13-1.37-1.61-1.1-.11-3.01,1.69-2.91,1.33.07,2.53,1.01,3.81,1.31,2.21.51,4.46-.18,6.63-.58,3.25-.6,6.17.09,9.13,1.46,2.23,1.03,5.25,2.15,6.42,4.48.54,1.07.7,2.32.46,3.49-.1.47-.26.92-.48,1.35-.17.32-.57.79-.61,1.18-.1.97,1.3,2.05,1.86,2.72.37.44.8.86,1.11,1.34.59.89.48,1.11-.45,1.51-.79.35-1,.35-1.74.06-1.01-.39-2.45-1.15-3.33-.06s.16,2.86.2,4.08c.1,3.02-3.57,1.18-5.27,1.56-2.82.63-.54,4.67-4.18,4.84-1.3.06-2.51-.59-3.79-.66-.92-.05-1.69.18-2.46.67-1.51.94-2.76,1.83-4.57,2.11-1.71.27-3.46.15-5.17.03-.07,0-.29.11-.15.12,2.28.16,4.65.32,6.85-.39.8-.26,1.51-.63,2.2-1.1,1.14-.78,2.09-1.46,3.6-1.26.71.09,1.38.34,2.08.48,1.24.25,2.88.26,3.67-.91.59-.87.32-2.02.82-2.91.9-1.61,2.95-.67,4.28-.58,1.09.07,2.15-.32,2.33-1.53.24-1.61-2.1-5.83,1.83-4.72,1.04.3,2.56,1.26,3.57.23,1.5-1.54-2.83-3.99-3.04-5.36-.09-.6.53-1.25.76-1.78.22-.5.35-1.02.4-1.56.11-1.14-.12-2.32-.71-3.3-1.15-1.92-3.56-2.88-5.48-3.82-2.41-1.17-4.99-2.21-7.71-2.14s-5.62,1.42-8.47.95c-1.93-.32-3.89-2.09-5.88-1.1-1.05.52-1.63,1.83-.61,2.71,1.23,1.05,3.19.65,4.49,1.61,1.88,1.38-.21,3.91,1.27,5.42,1.16,1.18,5.39,1.23,3.28,3.8-.59.72-1.45,1.2-1.95,1.99-.55.87-.22,1.52.09,2.43.43,1.29.15,2.71-.68,3.78-.62.79-1.36,1.04-2.26,1.4-.28.11-.49.11-.72.32-.81.73-.24,2.05-.31,2.97-.18,2.12-2.07,3.85-4.22,3.81-.08,0-.26.12-.1.12h0Z"/>
    </g>
    <g>
      <path class="cls-5" d="M553.46,103.64c1.68-2.48,5.53-.35,8.51-.71,2.27-.27,4.23-2.14,6.5-1.95,1.64.14,3.3,1.33,4.79.62.86-.41,1.33-1.36,2.07-1.97,2.81-2.34,7.79,1.02,10.52-1.42,2.46-2.19.86-7.35,3.87-8.69.94-.42,2.08-.28,2.95-.82,1.75-1.09,1.1-3.75.23-5.62-1.21-2.61-2.41-5.22-3.62-7.84,5.87.16,11.69,2.05,16.53,5.38,1.78,1.22,3.49,2.73,4.24,4.75.75,2.02.21,4.65-1.68,5.7-.55.31-1.19.47-1.69.85-2.19,1.71-.47,6.5-3.14,7.25-.62.17-1.3.02-1.92.21-1.8.56-1.75,3.45-3.44,4.29-1.47.72-3.18-.57-4.8-.36-.98.13-1.79.79-2.69,1.19-1.25.57-2.66.64-4.04.71-3.9.19-7.8.39-11.7.58-2.76.14-5.72.22-8.04-1.28-3.93,3.43-10.63,2.99-14.07-.94"/>
      <path class="cls-5" d="M553.57,103.64c1.67-2.19,5.08-.66,7.36-.61,2.43.06,4.27-1.61,6.59-1.93,1.95-.27,4.08,1.52,5.96.44.96-.55,1.42-1.65,2.39-2.21,1.25-.73,2.82-.53,4.19-.37,3.13.37,6.22.5,7.19-3.13.46-1.72.33-3.86,1.41-5.35,1.2-1.66,3.88-.74,4.9-2.61.96-1.77-.21-4.08-.95-5.68-.6-1.31-1.21-2.61-1.81-3.92-.33-.72-.73-1.44-1-2.18-.08-.22-.3-.5-.14-.76.11-.18,1.35.08,1.69.12,5.59.55,11.37,2.66,15.73,6.26,1.91,1.58,3.54,3.82,3.1,6.43-.26,1.56-1.13,2.55-2.54,3.22-.7.33-1.29.64-1.7,1.32-.83,1.4-.6,3.16-1,4.69-.1.4-.24.81-.5,1.14-.65.82-1.51.62-2.39.75-.54.08-.99.28-1.37.67-.55.56-.83,1.35-1.18,2.04-.5.98-1.02,1.83-2.31,1.87-.74.02-1.49-.3-2.21-.45-.95-.21-1.79-.18-2.68.21-.46.21-.89.5-1.34.72-1.22.6-2.5.74-3.83.82-3.39.2-6.78.34-10.16.5s-6.96.63-9.94-1.17c-.05-.03-.16,0-.2.04-4.01,3.37-10.34,2.89-13.86-.97-.05-.06-.29.03-.23.09,1.9,2.09,4.61,3.21,7.42,3.27,1.25.03,2.5-.16,3.68-.55.58-.2,1.15-.45,1.68-.75.25-.14.49-.29.72-.45.56-.39.63-.44,1.3-.17,3.52,1.42,7.33.88,11.03.7,2.28-.11,4.55-.23,6.83-.34,1.64-.08,3.39-.05,4.95-.63.62-.23,1.15-.6,1.74-.88,1.76-.84,2.75-.18,4.43.07.9.13,1.76-.02,2.41-.69.9-.92,1.03-2.4,1.97-3.26,1-.92,2.56-.27,3.56-1.2,1.72-1.62.45-4.7,2-6.47.61-.7,1.56-.84,2.3-1.35.53-.36.94-.87,1.23-1.43.59-1.16.67-2.59.3-3.84-1.09-3.69-5.42-6.02-8.65-7.54-3.86-1.81-8.04-2.79-12.29-2.93-.03,0-.2.04-.17.1,1.21,2.61,2.45,5.21,3.62,7.84.39.89.74,1.82.84,2.79.05.49.06,1-.08,1.47-.38,1.25-1.45,1.51-2.68,1.78s-2.22.74-2.78,1.99c-.7,1.56-.63,3.36-1.12,4.98-1.53,5.03-6.83,1.69-10.38,2.77-.61.19-1.14.51-1.59.95-.27.26-.49.56-.74.83-1.08,1.18-2.36,1.11-3.76.69-1.83-.55-3.17-.56-4.94.2-1.47.63-2.84,1.36-4.49,1.32-1.26-.03-2.48-.34-3.73-.48-1.5-.17-2.98-.07-3.96,1.21-.06.08.18.06.23,0h0Z"/>
    </g>
    <g>
      <path class="cls-5" d="M555.57,110.72c1.82,3.65,6.46,5.62,10.34,4.39,1.3-.41,2.5-1.13,3.83-1.4,3.88-.78,7.82,2.36,11.65,1.38,2.09-.53,3.73-2.22,5.79-2.83,4.12-1.22,8.68,2.07,12.71.57,1.03-.38,1.96-1.07,3.05-1.24,1.74-.26,3.43.85,5.18.75,2.31-.14,4.15-2.34,6.47-2.33,1.38,0,2.75.81,4.08.44,2.31-.64,2.8-4.29,5.15-4.76.92-.18,1.88.2,2.8.03,2.23-.41,2.64-3.53,1.84-5.65-1.01-2.69-3.01-4.87-4.97-6.98-.46-.49-.92-.99-1.37-1.48-2.33-2.51-5.32-5.25-8.68-4.56-.66.14-1.39.54-1.44,1.21-.03.35.14.68.3.98,1.2,2.27,2.4,4.54,3.6,6.8-2.02-.52-3.64,1.67-4.41,3.61s-1.73,4.28-3.8,4.56c-1.04.14-2.22-.3-3.09.29-.68.45-.88,1.35-1.41,1.97-1.57,1.85-4.51.34-6.93.27-1.7-.05-3.31.69-4.94,1.16-1.88.55-3.85.75-5.8.96-1.77.18-3.53.37-5.3.55-4.93.51-9.87,1.02-14.83,1.22-3.48.14-6.98.11-10.46-.06"/>
      <path class="cls-5" d="M555.44,110.75c1.18,2.25,3.27,3.85,5.72,4.49,2.59.67,4.67-.07,7.07-1,3.71-1.44,6.83.61,10.47,1.04,2.71.32,4.55-.98,6.82-2.22,3.7-2.02,7.18-.14,11,.2,1.01.09,2.05.05,3.03-.25.54-.16,1.04-.42,1.55-.66,1.75-.84,3.12-.67,4.92-.22.93.23,1.84.38,2.79.17,1.39-.31,2.55-1.21,3.84-1.77,1.18-.51,2.29-.46,3.51-.2.68.15,1.36.34,2.06.26s1.34-.43,1.86-.93c.73-.72,1.21-1.64,1.82-2.45.82-1.08,1.5-1.49,3.04-1.46.56.01,1.1.15,1.66.04,1.95-.37,2.5-2.53,2.33-4.25-.3-2.93-2.59-5.49-4.48-7.57-2.04-2.24-4.12-4.86-6.87-6.27-1.25-.65-4.8-1.66-5.62.27-.2.48.01.89.22,1.33.41.87.9,1.7,1.35,2.55s.9,1.7,1.35,2.55c.12.23.71,1.03.68,1.28-.08.6.37,0-.29.26-.81.31-1.44.35-2.13,1.01-.98.93-1.5,2.15-2.01,3.38-.71,1.72-1.61,3.72-3.77,3.89-1.09.09-2.21-.32-3.11.53-.52.49-.67,1.25-1.16,1.77-1.17,1.23-2.79.85-4.22.58s-2.8-.51-4.26-.2c-2.01.42-3.88,1.24-5.92,1.56s-4.03.47-6.04.68c-9.22.96-18.39,1.86-27.67,1.4-.08,0-.26.12-.1.12,10.19.5,20.26-.63,30.38-1.68,2.19-.23,4.38-.46,6.48-1.11,1.2-.37,2.38-.86,3.64-.98s2.34.14,3.51.36,2.51.47,3.62-.11c.54-.28.88-.72,1.19-1.22.1-.16.23-.46.35-.61.37-.46,1.37-.93,1.98-1.02.53-.07,1.09.1,1.63.02,1.28-.19,2.17-1.09,2.81-2.16,1.22-2.04,2.04-6.62,5.35-6.01.03,0,.23-.03.2-.09-1.05-1.98-2.1-3.97-3.15-5.95-.22-.41-.55-.87-.67-1.33-.45-1.72,2.07-1.81,3.05-1.67,1.2.18,2.31.76,3.29,1.44,1.56,1.09,2.85,2.5,4.14,3.89s2.64,2.79,3.77,4.34,2.16,3.27,2.24,5.16c.03.74-.05,1.51-.34,2.2-.65,1.55-2.2,1.52-3.7,1.48-2.48-.07-3.18,2.31-4.61,3.87-1.72,1.87-3.73.33-5.78.51-1.38.12-2.56.94-3.77,1.55-1.41.71-2.75.88-4.28.5-.79-.2-1.59-.48-2.41-.51-1.66-.07-2.92,1.01-4.46,1.43-3.69,1-7.31-1.4-11.04-.95-1.45.18-2.68.86-3.92,1.6-.95.57-1.92,1.18-3.01,1.46-1.2.3-2.45.18-3.65-.08-2.02-.43-3.96-1.27-6.03-1.42-1.71-.12-3.14.45-4.69,1.09-4.23,1.74-9.16.17-11.32-3.95-.04-.07-.28,0-.25.07h0Z"/>
    </g>
    <g>
      <path class="cls-5" d="M600.9,118.31c-.48-1.5,1.4-2.77,2.97-2.69,1.57.07,3.07.85,4.64.76,2.04-.12,3.71-1.67,5.7-2.17,2.1-.52,4.29.19,6.45.36,2.16.17,4.76-.53,5.43-2.59.36-1.11.25-2.63,1.33-3.07,1.1-.44,2.38.81,3.45.3,1.19-.58.64-2.54,1.51-3.55.58-.67,1.63-.71,2.47-.44,2.92.93,4.14,4.32,4.96,7.28.95,3.44,1.9,6.89,2.85,10.33.07.24.13.48.13.73-.02,1.13-1.52,1.7-2.57,1.3-1.05-.39-1.77-1.36-2.53-2.18-.76-.83-1.78-1.61-2.9-1.45-1.12.16-1.89,1.2-2.93,1.64-2.55,1.07-5.1-1.78-7.87-1.91-1.71-.08-3.34.9-5.05.79-1.74-.11-3.21-1.31-4.89-1.78-2.36-.66-4.83.18-7.24.6-2.41.42-5.31.21-6.7-1.8"/>
      <path class="cls-5" d="M601.03,118.28c-.32-1.45,1.07-2.38,2.36-2.53s2.39.35,3.58.58c1.36.26,2.53.07,3.78-.49.77-.34,1.49-.78,2.26-1.11,1.33-.58,2.7-.69,4.14-.54,1.72.19,3.43.65,5.17.43,1.05-.14,2.13-.49,2.94-1.2,1.01-.89,1.02-2,1.36-3.23.68-2.4,2.82-.23,4.29-.91.88-.4.9-1.47,1.07-2.29.18-.88.31-1.07,1.26-1.46s1.39-.39,2.29.08c.77.4,1.41,1,1.93,1.7,1.01,1.34,1.58,2.97,2.05,4.57.59,2.01,1.12,4.04,1.68,6.06.28,1.02.56,2.03.84,3.05s1.23,2.91.03,3.62c-3.19,1.89-4.69-5.05-8.24-3.09-.6.33-1.1.84-1.72,1.14-1.31.64-2.57.26-3.83-.28s-2.49-1.3-3.88-1.46c-2.25-.27-4.26,1.21-6.54.54-1.94-.57-3.44-1.77-5.54-1.8-3.82-.06-9.18,2.92-12.08-.94-.06-.08-.29.01-.23.1,2.1,2.79,5.94,2.01,8.87,1.41,1.52-.31,3.11-.61,4.66-.29,1.28.26,2.38.97,3.58,1.45,1.69.67,3.08.35,4.79-.06,1.43-.34,2.67-.33,4.04.21.9.36,1.74.83,2.64,1.18,1.2.48,2.46.69,3.65.06.36-.19.68-.44,1.01-.68.82-.59,1.85-.9,2.87-.53,1.08.39,1.82,1.66,2.62,2.42s1.81,1.33,2.95.96c1.57-.51,1.2-1.79.85-3.08-.67-2.43-1.34-4.85-2.01-7.28-.87-3.14-1.65-7.61-4.94-9.18-.92-.44-2.18-.67-3.06.01-.46.36-.63.91-.76,1.45-.08.34-.1.69-.19,1.03-.05.2-.11.6-.26.76-.37.42-1.57.51-2.08.35-.9-.28-1.91-.51-2.54.4-.4.57-.43,1.35-.57,2-.28,1.26-1.03,2.14-2.23,2.64-2.62,1.09-5.35-.13-8.03-.11-2.11.02-3.67,1.15-5.56,1.91s-3.28.24-5.07-.13c-.77-.16-1.55-.28-2.32-.07-1.23.32-2.42,1.31-2.12,2.69.02.1.27.03.25-.07h0Z"/>
    </g>
    <g>
      <path class="cls-5" d="M614.87,125.17c2.39-1.08,4.79,1.8,7.41,1.86,1.61.03,3.23-1.02,4.74-.48,1.81.65,2.62,3.35,4.54,3.31,1.29-.03,2.31-1.38,3.6-1.3,1.18.08,1.91,1.3,2.37,2.39,1.58,3.73,2.53,7.72,2.8,11.76.03.45.05.93-.17,1.33-.49.9-1.91.83-2.63.1-.72-.72-.91-1.81-1.02-2.82-.11-1.01-.2-2.09-.78-2.92-1.73-2.45-6.19-1.03-8.09-3.36-.58-.71-.81-1.68-1.5-2.3-1.59-1.41-4.49-.06-6.03-1.52-.57-.54-.79-1.34-1.18-2.02-.64-1.11-1.8-1.92-3.07-2.13-.59-.1-1.23-.09-1.75-.39-.52-.3-.8-1.11-.34-1.51"/>
      <path class="cls-5" d="M614.91,125.2c2.54-.98,4.77,1.82,7.29,1.88,1.23.03,2.38-.51,3.6-.55,1.61-.06,2.35.9,3.33,1.99,1.1,1.22,2.19,1.75,3.72,1,.65-.32,1.1-.63,1.84-.74,1-.15,1.55.24,2.1,1.04.82,1.21,1.27,2.75,1.72,4.13.92,2.84,1.67,5.98,1.7,8.98,0,.37.04.82-.18,1.14-.46.69-1.35.68-1.94.37s-.98-.97-1.19-1.62c-.43-1.34-.18-2.86-.87-4.12-.92-1.68-2.97-1.86-4.66-2.13-1.04-.17-2.15-.35-3.02-.98-1.02-.74-1.2-2.07-2.11-2.87-.75-.66-1.78-.71-2.73-.74-1.95-.06-3.17-.21-4.12-2.08-.57-1.12-1.24-2.02-2.42-2.54-.84-.37-4.36-.49-3.09-2.18.02-.02-.2-.01-.24.04-.78,1.04.54,1.68,1.39,1.83,1.79.31,3.07.89,3.95,2.56.6,1.14,1.03,2.05,2.39,2.34s2.87-.13,4.13.51,1.4,2.18,2.41,3.05c.82.7,1.93.94,2.96,1.11,1.15.2,2.38.28,3.45.8,1.62.78,1.85,2.34,2.05,3.96s1.15,4.24,3.27,3.23c.76-.37.83-1.13.8-1.9-.07-1.79-.37-3.59-.76-5.34s-.9-3.49-1.54-5.17c-.43-1.14-.9-2.67-2.02-3.36-.62-.38-1.29-.36-1.95-.12-.33.12-.61.32-.93.47-1.55.74-2.42.76-3.5-.31-.83-.82-1.5-1.95-2.65-2.36-1.77-.63-3.59.72-5.39.41-2.36-.4-4.39-2.73-6.9-1.77-.16.06,0,.09.08.05h0Z"/>
    </g>
    <path class="cls-5" d="M492.87,129.06c-2.75-.08,11.34,10.79,12.68,8.39,1.34-2.4,5.41-4.54,8.09-5.16,2.68-.62-15.34.94-7.82-10.03-1.33-2.54-8.38,3.5-10.44,1.5-2.68-2.6,4.47-5.09,7.49-7.28,3.02-2.2,3.59-3.34,6.72-5.37,1.18-.76.28-4.16-.46-5.35-.28-.45-.77-.71-1.19-1.03-1.86-1.39-2.55-3.98-2.1-6.26.45-2.28,8.18-1.99,9.84-3.61,2.84-2.76,3.59-5.7,7.49-6.41,1.56-.28-.17-1.63,1.16-2.5,1.33-.87,2.12-2.84,1.12-4.08-.59-.73-1.59-.97-2.51-1.15-4.19-.82-8.55-1.37-12.71-.41-4.16.97-8.13,3.73-9.49,7.78-.54,1.6-.69,3.4-1.73,4.72-1.3,1.66-3.64,2.12-5.19,3.56-3.12,2.89-2.12,8.69-5.49,11.29-1.05.81-2.39,1.17-3.5,1.91-1.97,1.31-3.04,3.86-2.58,6.19.28,1.4,1.04,2.66,1.32,4.06,1.02,5.23-4.92,9.4-5.42,14.7"/>
    <ellipse class="cls-5" cx="611.5" cy="205.85" rx="5.93" ry="5.91" transform="translate(41.78 508.72) rotate(-46.6)"/>
    <path class="cls-5" d="M618.38,203.47c-1.56-2.95-4.35-5.9-9.56-8.31-8.35-3.85-17.67,4.06-17.67,4.06,0,0,8.59-5.19,16.93-1.6,4.02,1.73,8.96,7.5,11,10.62.36-.8.19-2.91-.7-4.77Z"/>
    <path class="cls-16" d="M483.87,150.25c.57-2.91,1.94-6.77,4.82-8.23l-1.02.15c.74.33,1.51,1.89,1.87,2.78,1.79,4.38,1.93,9.45,1.98,14.1l1.45-.39c-.43-.95-1.13-2.01-2.14-2.4-1.29-.51-2.66.26-3.5,1.23-2.71,3.12-.8,6.96,2.12,9.07.39.28,1.7-.29,1.35-.55-2.29-1.66-4.15-4.27-2.97-7.18.35-.86,1.25-2.41,2.3-1.64.61.45,1.07,1.17,1.38,1.85.21.46,1.45.09,1.45-.39-.04-3.56-.21-7.16-.96-10.66-.37-1.72-.86-3.49-1.79-5-.3-.49-.72-1.17-1.27-1.43-.79-.38-1.67.37-2.25.85-2.41,2-3.69,5.02-4.27,8.03-.1.5,1.35.26,1.44-.2h0Z"/>
    <ellipse class="cls-5" cx="557.88" cy="175.95" rx="5.93" ry="5.91" transform="translate(46.73 460.4) rotate(-46.6)"/>
    <path class="cls-5" d="M568.63,185.95s-1.76-14.84-10.92-19.14c-12.88-6.05-17.96-2.17-22.6.41,0,0,11.82-3.1,21.67,1.82,8.93,4.47,11.86,16.9,11.86,16.9Z"/>
    <path class="cls-18" d="M561.71,228.2c-7.38-4.24-18.72-14.95-18.72-14.95,0,0-14.19,20.65,6.46,32.09,17.26,9.56,26.94-9.15,26.94-9.15,0,0-7.3-3.75-14.68-7.99Z"/>
    <path class="cls-5" d="M561.78,228.24c-3.51-2.02-16.49-9.66-16.49-9.66,0,0-5.11,11.42,7.58,18.71,13.75,7.9,20.71-1.45,20.71-1.45l-11.8-7.6Z"/>
    <path class="cls-8" d="M561,229.94c-3.51-2.02-13.85-8.72-13.85-8.72,0,0,2.53,5.3,13.06,11.35s15.11,4.98,15.11,4.98l-14.31-7.61Z"/>
    <path class="cls-18" d="M578.64,237.05c.22-.38.48-.35-1.18-1.49-2.76-1.91-3.11-3.49-5.13-4.86-3.44-2.33-6.5-2.27-8.06-3.17-1.56-.9-3.06-3.57-6.8-5.37-2.19-1.05-6.7-3.94-9.74-5.37-1.82-.86-4.4-5.02-4.83-5.14-.59-.18-2.37,8.32,17.29,19.54,16.41,9.36,18.16,6.38,18.46,5.87Z"/>
    <path class="cls-3" d="M579.49,164.85c.13-.17-.46-.57-.33-.74-7.9-8.28-14.92-13.02-17.85-14.19-2.23-.88-4.67-1.31-7.2-1.38,0,0-6.92-.28-8.29.49-1.37.78,3.44,1.37,3.44,1.37.95.26,1.68.3,2.58.68,4.92,2.09,10.04,3.44,14.11,6.89,3.5,2.93,7.17,8.55,9.89,12.38,1.35-1.83,2.18-3.79,3.65-5.51Z"/>
    <path class="cls-3" d="M626.59,194.86c-.44-.88-2.31-3.44-2.31-3.44-1.06-2.04-2.38-3.83-3.98-5.19-2.11-1.8-8.73-5.09-18.57-7.23-.09.19-.65-.08-.73.11-.8,2.11-2.05,3.82-2.99,5.89,4.17.22,10.17.29,13.93,1.63,4.41,1.54,7.54,5.04,11.19,7.98.38.31,1.56,1.83,1.83,2.17.19-.94,1.14-1.11,1.63-1.93Z"/>
    <g>
      <path class="cls-5" d="M570.58,220.76c-2.26-.01-4.83-1.65-6.02-3.7-.26-.45-1.7-.91-1.33-.28,1.57,2.7,5.36,4.88,8.27,4.89.29,0,.34-.19.11-.44-.24-.25-.72-.48-1.03-.48"/>
      <path class="cls-5" d="M562.73,215.87c-.89-1.19-2.06-2.19-3.33-3-.19-.12-.48-.18-.69-.12-.17.04-.26.16-.16.32.42.68,1.13,1.24,1.85,1.6.23.12.56.22.79.09.21-.12.06-.35-.12-.44-.6-.3-1.14-.74-1.49-1.3-.28.07-.56.13-.85.2,1.14.72,2.18,1.63,2.97,2.69.16.21.5.31.74.29.19,0,.44-.12.28-.34"/>
      <path class="cls-5" d="M557.38,213.24c-1.53-.86-2.99-2.51-3.13-4.08-.21-2.38,2.45-4.77,4.99-4.87.28-.01.25-.23.06-.39-.25-.21-.63-.28-.92-.27-2.21.09-4.63,1.97-5.26,3.76-.59,1.67.32,3.54,1.94,4.97.48.43,1.02.83,1.59,1.15.23.13.69.28.91.16.22-.12.04-.32-.17-.44"/>
      <path class="cls-5" d="M573.84,221.47c.01-.22.23-.26.35-.19.41.23.9.34,1.41.24.05.24.09.48.14.72-.89-.35-1.88-.52-2.89-.42-.2.02-.38-.16-.46-.34-.05-.14-.06-.39.15-.41"/>
      <path class="cls-5" d="M572.55,221.08c1.14-.12,2.24.09,3.23.48.14.06.28.23.32.41.03.14-.03.29-.18.31"/>
      <path class="cls-5" d="M576.95,223.39c1.03.5,2.58.45,3.7-.46,1.69-1.37,2.11-3.84,1.45-5.63-.07-.2.09-.32.25-.29.21.04.37.25.45.46.57,1.57.43,3.54-.61,5.11-.98,1.47-2.52,2.03-3.97,1.84-.43-.06-.86-.17-1.25-.36-.16-.08-.39-.29-.37-.52.02-.23.21-.23.35-.16"/>
    </g>
    <path class="cls-14" d="M419.98,461.7l-65.28,134.85c-.08.16-.17.32-.27.46-11.92,20.67-36.24,30.76-59.29,24.59l-154.12-85.66,11.53-33.51,134.71,35.3,4.73-57.27c-2.34-21.94,38.84-49.79,45.35-70.88h0l57.86-1.06,24.77,53.18Z"/>
    <path class="cls-6" d="M78.09,561.21c2.38,1.45,4.73,2.94,7.1,4.41l8.04,5c.8-.08,1.68-.33,2.71-1.06,9.58-6.85,12.07-6.65,21.72-12.13,6.65-3.78,23.38-9.16,34.29-14.33l23.37,11.89,19.67-43.89-21.76-3.88c-5.72-2.59-12.56-8.66-23.46-16.22-4.8-3.33-9.97-11.2-16.4-8.19-11.37,5.32-14.47,17.37-17.67,20.84-6.72,7.31-10.37,14.1-17.62,20.69-7.34,6.67-8.96,7.99-14.49,16.73-.76,1.21-1.44,2.56-1.43,3.98,0,.95.32,1.87.32,2.82,0,3.36-3.63,5.58-4.82,8.75-.48,1.27-.54,2.65-.67,4,.36.2.74.4,1.09.61Z"/>
    <g>
      <path class="cls-16" d="M79.12,552.46c-.29,1.32.55,2.5,1.62,3.2,1.14.75,2.53.83,3.83.49,2.98-.78,5.37-3.11,7.72-4.98.07-.05-.03-.15-.09-.09-2.09,1.65-4.11,3.54-6.6,4.58-1.19.5-2.52.76-3.79.37-1.46-.45-2.92-1.91-2.56-3.54.02-.08-.11-.12-.13-.04h0Z"/>
      <path class="cls-16" d="M73.78,562.07c-1.32,2.52,1.95,4.37,3.91,5.02,1.41.47,2.71.45,4.13-.06,1.91-.69,3.35-2.04,4.86-3.34s3.61-2.46,4.6-4.37c.04-.08-.07-.14-.11-.07-.78,1.52-2.29,2.54-3.61,3.56-1.42,1.1-2.66,2.42-4.22,3.35-1.36.81-3.01,1.4-4.59,1.08-1.2-.24-2.38-.75-3.39-1.44-1.21-.84-2.24-2.17-1.45-3.66.04-.08-.07-.14-.11-.07h0Z"/>
      <path class="cls-16" d="M72.21,570.21c-.44,2.88,2.6,5.15,5.21,5.28,3,.15,5.87-1.64,8.13-3.43,1.47-1.16,2.98-2.47,4.18-3.9.05-.06-.04-.16-.09-.09-1.14,1.36-2.57,2.6-3.95,3.72-1.5,1.21-3.14,2.3-4.95,2.98-1.6.6-3.39.85-5.02.24-1.88-.7-3.7-2.64-3.37-4.77.01-.08-.11-.12-.13-.04h0Z"/>
      <path class="cls-16" d="M69.74,577.85c-.15,1.78.42,3.54,1.52,4.94,1,1.28,2.56,2.4,4.23,2.48s3.19-.66,4.54-1.46c1.6-.95,3.06-2.13,4.45-3.35.72-.64,1.4-1.31,2.12-1.95.77-.68,1.73-1.34,2.18-2.29.04-.08-.08-.14-.11-.07-.39.83-1.21,1.43-1.89,2.03-.56.48-1.09,1-1.63,1.5-1.27,1.16-2.59,2.29-4.01,3.27-1.33.92-2.8,1.78-4.41,2.1-1.76.35-3.4-.34-4.68-1.56-1.52-1.44-2.37-3.53-2.19-5.62,0-.08-.12-.08-.13,0h0Z"/>
    </g>
    <g>
      <g>
        <path class="cls-13" d="M61.89,585.19s5.8,6.91,10.34,3.59c4.54-3.31,28.76-20.93,29.71-23.62-1.87-1.07-4.45-.63-3.05-6.73,1.4-6.1,4.69-14.31,15.26-25.75,7.92-8.57,26.4-25.59,37.31-31.1,3.65-1.84,7.65-4.25,7.65-4.25-4.65-12-24.75-24.81-30.92-22.1-6.17,2.71-22.44,31.97-22.44,31.97l-21.17,20.8-15.16,22.51-5.65,9.91-1.77,11.29-.11,13.46Z"/>
        <path class="cls-7" d="M69.5,589.8c-1.29,0-2.71-.49-4.21-1.47-2.01-1.31-3.48-3.05-3.49-3.06l-.03-.04v-.05s.11-13.46.11-13.46l1.78-11.35,5.65-9.91,15.16-22.52,21.18-20.81c.22-.39,4.22-7.56,8.9-14.96,6.44-10.18,11.01-15.91,13.59-17.05,1.74-.76,4.58-.37,8.21,1.14,8.44,3.51,19.58,12.54,22.87,21.03l.04.1-.09.05s-4.05,2.43-7.66,4.25c-6.55,3.3-23.59,16.27-37.27,31.07-11.12,12.02-14.02,20.42-15.23,25.69-1.13,4.89.35,5.48,1.92,6.11.36.14.72.29,1.07.48l.09.05-.04.1c-.62,1.74-10.78,9.84-29.41,23.42l-.35.26c-.84.61-1.78.92-2.8.92ZM62.01,585.15c.45.52,5.91,6.62,10.14,3.54l.35-.26c23.97-17.48,28.7-22.06,29.28-23.21-.3-.16-.62-.29-.94-.42-1.67-.66-3.25-1.29-2.07-6.39,1.22-5.3,4.13-13.74,15.29-25.8,3.47-3.76,9.91-10.12,17.55-16.71,5.64-4.86,13.65-11.31,19.8-14.41,3.3-1.66,6.93-3.82,7.55-4.19-3.31-8.4-14.34-17.32-22.7-20.79-3.52-1.46-6.36-1.87-8.02-1.14-6.06,2.66-22.22,31.62-22.38,31.92l-.02.03-21.17,20.8-15.14,22.49-5.63,9.88-1.76,11.27-.11,13.39Z"/>
      </g>
      <path class="cls-11" d="M130.2,474.99c-2.96,2.35-10.57,10.99-15.75,19.19-13.93,22.02-18.82,30.29-25.87,36.35-3.55,3.06-7.28,6.24-11.52,11.11-20.46,23.18-13.33,44.57-13.23,45.35-.59.14-1.09.07-1.79-.12-.09-.39-1.1-3.75-1.73-7.83-1.09-7.05-1.85-22.35,13.55-40.57,4.36-5.17,6.88-8.34,10.4-11.36,5.28-4.55,5.95-7.96,14.48-19.9l4.93-7.06s15.69-22.85,20.41-28.55c6.77,3.01,6.13,3.39,6.13,3.39Z"/>
    </g>
    <g>
      <path class="cls-13" d="M121.99,522.04c3.4,1.53,5.34,5.02,6.73,8.22,2.43,5.59,4.26,11.48,3.77,17.06-.12,1.34-.41,2.73-1.39,3.6-.6.53-1.4.83-2.18,1.12-2.37.88-4.74,1.76-7.11,2.64-.66-7.83-4.23-15.86-9.97-22.44-.28-.32-.58-.68-.6-1.06-.02-.32.18-.59.36-.83,2.52-3.3,5.23-6.74,9.44-8.15"/>
      <path class="cls-7" d="M121.88,522.08c4.64,2.15,6.69,7.68,8.31,12.17.98,2.71,1.75,5.5,2.09,8.37.16,1.35.22,2.72.14,4.08s-.21,2.77-1.05,3.83c-.58.73-1.45,1.1-2.3,1.42-.75.28-1.51.56-2.26.84-1.68.62-3.36,1.25-5.05,1.87h.16c-.45-5.1-2.06-10.04-4.48-14.53-1.25-2.32-2.72-4.52-4.37-6.57-.41-.51-.86-1-1.27-1.51-.2-.25-.44-.54-.45-.88-.02-.44.34-.79.58-1.11.74-.96,1.48-1.91,2.28-2.82,1.89-2.16,4.11-4.04,6.86-4.99.16-.06.01-.1-.09-.06-2.24.77-4.16,2.14-5.82,3.81-.9.9-1.72,1.88-2.52,2.88-.35.45-.7.9-1.05,1.35s-.66.88-.34,1.47c.29.53.78.98,1.17,1.44.47.56.92,1.13,1.35,1.72.88,1.18,1.71,2.41,2.46,3.67,1.43,2.38,2.63,4.9,3.54,7.52.98,2.81,1.63,5.72,1.89,8.68,0,.05.15,0,.16,0,1.53-.57,3.06-1.13,4.59-1.7,1.35-.5,2.82-.89,4.08-1.61,2.26-1.29,2.23-4.36,2.17-6.64-.09-3.04-.75-6.03-1.68-8.91s-1.96-5.54-3.34-8.09c-1.29-2.39-3.04-4.6-5.55-5.77-.07-.03-.26.07-.23.08h0Z"/>
    </g>
    <path class="cls-14" d="M132.33,607.99s-21.06,61.82-19.05,76.12c2.01,14.3,8.9,8.31,8.9,8.31,0,0,31.7-43.17,37.99-47.82,3.45-2.55,118.55-8.62,177.82-10.62,41.17-1.39,30.2-12.45,30.2-12.45l27.18-57.98-61.01-4.27-11.71-1.15c-6.12-.6-13-2.19-19.15-1.71-16.62,1.29-40.51,6.57-48.82,8.48-14.07,3.23-51.21,19.15-56.14,20.43l-48.26,20.12-17.96,2.55Z"/>
    <path class="cls-6" d="M115.37,703.46c2.73-.41,5.46-.78,8.19-1.16l9.28-1.32c.56-.56,1.07-1.29,1.39-2.48,2.95-11.09,4.97-12.51,8.83-22.62,2.66-6.98,12.1-20.58,17.12-31.27l19.1-2.31-7.17-45.95-18.61,7.37c-5.99,1.66-15.04,1.42-28.11,2.62-5.76.53-14.68-2.09-17.66,4.17-5.28,11.08,0,21.98-.23,26.57-.48,9.65,1.05,16.99-.29,26.42-1.36,9.56-1.76,11.56-.42,21.52.19,1.38.53,2.8,1.43,3.85.61.7,1.43,1.19,2.03,1.89,2.13,2.5.78,6.42,1.88,9.53.44,1.25,1.27,2.31,2.02,3.39.4-.08.82-.16,1.22-.22Z"/>
    <g>
      <g>
        <path class="cls-13" d="M118.24,731.45s8.78,1.51,10.14-3.8c1.35-5.31,8.61-33.59,7.63-36.18-2.1.38-3.79,2.32-6.58-3.1-2.8-5.41-5.51-13.58-4.71-28.71.59-11.34,3.86-35.57,8.67-46.5,1.61-3.65,3.13-7.95,3.13-7.95-11.14-6.01-34.54-2.95-37.52,2.92-2.98,5.88,3.19,37.84,3.19,37.84l-2.92,28.74,2.73,26.24,1.98,10.91,5.81,9.51,8.44,10.08Z"/>
        <path class="cls-7" d="M120.94,731.77c-1.54,0-2.7-.2-2.72-.2h-.05s-.03-.04-.03-.04l-8.44-10.08-5.84-9.56-1.98-10.91-2.74-26.25,2.92-28.74c-.08-.43-1.58-8.27-2.71-16.7-1.56-11.6-1.71-18.74-.47-21.2.83-1.64,3.21-3.12,6.88-4.27,8.65-2.71,22.88-2.98,30.81,1.29l.09.05-.04.1s-1.54,4.34-3.13,7.96c-2.89,6.56-7.63,26.88-8.66,46.46-.84,15.9,2.28,23.97,4.7,28.65,2.24,4.34,3.74,3.86,5.33,3.34.36-.12.73-.24,1.12-.31l.1-.02.04.1c.63,1.68-1.97,14.07-7.52,35.84l-.11.42c-.57,2.22-2.53,3.6-5.68,3.98-.65.08-1.29.11-1.88.11ZM118.31,731.33c.32.05,2.35.34,4.48.08,3.08-.38,4.92-1.65,5.46-3.8l.11-.42c7.14-28,7.84-34.37,7.56-35.59-.33.07-.66.17-.98.28-1.69.55-3.29,1.07-5.62-3.46-2.43-4.71-5.56-12.81-4.72-28.78.26-4.97,1.12-13.73,2.76-23.42,1.21-7.15,3.21-16.97,5.93-23.13,1.45-3.3,2.85-7.17,3.09-7.84-7.88-4.19-21.95-3.91-30.52-1.22-3.55,1.11-5.94,2.58-6.73,4.14-2.92,5.77,3.14,37.44,3.2,37.76v.02s0,.02,0,.02l-2.92,28.74,2.73,26.21,1.98,10.88,5.8,9.48,8.4,10.03Z"/>
      </g>
      <path class="cls-11" d="M100.37,606.68c-.76,3.6-1.07,14.8.18,24.14,3.36,25.1,4.87,34.32,3.36,43.25-.76,4.5-1.58,9.2-1.72,15.48-.88,30.06,18.1,41.51,18.67,42.03-.36.47-.78.74-1.44,1.03-.31-.24-3.21-2.1-6.28-4.74-5.29-4.56-15.57-15.47-15.4-38.67.04-6.58-.05-10.51.71-14.96,1.13-6.69-.52-9.64-1.6-23.88l-.72-8.34s-2.55-26.83-2.57-34.02c7.05-2,6.81-1.32,6.81-1.32Z"/>
    </g>
    <g>
      <path class="cls-13" d="M123.94,646.82c3.55-.99,7.23.39,10.33,1.9,5.39,2.63,10.51,5.88,13.67,10.33.76,1.07,1.42,2.28,1.22,3.55-.12.77-.54,1.49-.95,2.2-1.25,2.14-2.49,4.28-3.74,6.42-5.46-5.41-13.26-9.14-21.8-10.45-.42-.06-.87-.14-1.13-.41-.22-.23-.24-.55-.25-.85-.17-4.04-.29-8.29,2.01-11.97"/>
      <path class="cls-7" d="M123.95,646.87c2.93-.77,5.91,0,8.63,1.17,2.42,1.04,4.77,2.3,6.99,3.69,2.06,1.29,4.03,2.74,5.76,4.45.84.83,1.63,1.72,2.33,2.68.81,1.1,1.63,2.44,1.37,3.87-.13.72-.51,1.37-.87,2-.41.71-.83,1.42-1.24,2.13-.85,1.46-1.7,2.92-2.55,4.38l.23-.06c-3.42-3.37-7.55-5.95-11.99-7.76-2.31-.94-4.71-1.68-7.15-2.21-.62-.13-1.24-.26-1.86-.36s-1.65-.07-2.01-.68c-.29-.49-.18-1.27-.2-1.82-.02-.66-.04-1.32-.04-1.97,0-3.08.45-6.17,2.09-8.84.05-.08-.19-.05-.22,0-1.36,2.23-1.93,4.75-2.06,7.33-.07,1.32-.04,2.63.01,3.95.02.47-.06,1.11.23,1.51s.87.44,1.32.51c5.3.84,10.47,2.6,15.08,5.36,2.38,1.43,4.6,3.11,6.58,5.06.05.05.2,0,.23-.06.81-1.39,1.62-2.78,2.43-4.17.39-.68.79-1.35,1.18-2.03.37-.64.78-1.28.98-2,.68-2.4-1.63-4.83-3.15-6.41-3.63-3.79-8.48-6.6-13.27-8.66-2.79-1.2-5.84-1.96-8.85-1.16-.14.04-.12.14.03.1h0Z"/>
    </g>
    <path class="cls-19" d="M247.92,513.59s46.62,116.04,82.21,145.28c0,0,22.93-10.23,53.67-29.89,30.74-19.66,85.37-152.99,85.37-152.99l-158.41-75s-23.6,20.94-28.07,54.24c-1.78,13.26-1.37,22.72-.23,29.29,1.8,10.35-3.77,20.6-13.53,24.48-5.87,2.34-12.96,4.21-21.01,4.59Z"/>
    <path class="cls-10" d="M511.5,895.75s51.73-268.13,74.85-303.77c23.11-35.64,58.85-56.42,58.85-56.42l11.36-10.89c9.05-1.27,24.01-10.71,40.02-14.41,22.05-5.1,40.89-4.66,49.15-2.54l50.3,12.89c6.13,5.33,23.97,25.19,27.7,68,10.82,44.05-3.28,324.45-3.28,324.45l-88.35,138.4s-244.78,28.12-252.05,17.6"/>
    <path class="cls-17" d="M534.17,265.79c1.27,5.46.69,28.78.24,36.8-1.85,28.74-4.3,48.89-15.35,75.49-18.97,44.62-56.7,144.18-56.7,144.18-55.31-13.48-63.5-65.34-125.01-112.69,0,0-1.69-1.79,38.11-57.57,40.96-57.37,41.12-105.88,55.71-117.73,6.34-5.11,36.44-10.11,36.44-10.11,11.66,19.46,59.7,56.1,66.57,41.63Z"/>
    <path class="cls-19" d="M465.62,224.36c-6.89.74-16.11.44-34.83,8.49-17.26,7.42-22.54,31.87-63.5,89.24-15.49,21.71-13.38,48.45-31.21,60.58-15.67,10.67-27.22,19.88-27.22,19.88,61.52,47.35,98.18,106.24,153.49,119.72,0,0,37.72-99.56,56.7-144.18,5.39-12.98,9.71-26.36,12.95-40-7.98-5.49-14.51-13.21-18.46-21.97-5.35-11.87-6.54-25.06-9.17-37.68-1.15-5.51-2.73-10.69-5.01-15.83-1.89-4.25-4.03-8.39-6.4-12.4,0,0-13.25-22.19-27.34-25.83Z"/>
    <path class="cls-14" d="M439.07,345.57c-.4-2.49,8.2-30.36,18.29-44.93,6.46-9.32,15.73-10.51,15.37-2.67-.36,7.84-7.91,11.83-6.48,30.79,1.43,18.96,1.43,38.59-10.86,56.41-12.29,17.82-16.32-39.59-16.32-39.59Z"/>
    <path class="cls-16" d="M217.63,577.98c13.54-4.35,26.68-9.9,40.16-14.42,3.47-1.16,6.95-2.28,10.49-3.21,1.8-.47,1.24-2.58-.56-2.11-6.8,1.79-13.45,4.17-20.06,6.55-7.19,2.59-14.34,5.3-21.53,7.91-3.01,1.1-6.02,2.19-9.06,3.16-.59.19-1.36.71-1.17,1.44.19.69,1.15.85,1.73.67h0Z"/>
    <path class="cls-14" d="M591.78,442.41s20.07-6.24,24.12-8.48c4.05-2.25,13.81-8.53,16.09-7.74,2.28.79.98,4.94-1.35,8.57-2.33,3.63-11.23,7.87-10.74,10.34.49,2.47,30.05,16.92,35.18,19.72,5.14,2.8,18.85,11.4,13.95,17.32,0,0,5.85,5.03,3.96,7.74-1.89,2.7-3.12,3.33-3.12,3.33,0,0-2.98,5.26-7.88,3.35-4.9-1.91-7.76-3.92-7.76-3.92,0,0,1.53,4.12-3.78,4.73-5.32.61-26.62-7.95-26.62-7.95,0,0-13.59.24-21.24-4.02-7.65-4.26-19.92-15.76-19.92-15.76l9.12-27.24Z"/>
    <path class="cls-16" d="M616.55,434.84c2.61-1.79,5.12-3.73,7.74-5.51,1.3-.88,2.61-1.75,3.99-2.49.54-.29,1.1-.56,1.68-.79.14-.05.2-.07.49-.15.12-.03.13-.04.19-.03.27.03-.29-.18.15.05.08.04.17.09.24.14.23.15.42.39.56.63.39.68.48,1.58.46,2.35-.03,1.82-.46,4.09-1.4,5.67-.61,1.02-1.66,1.77-2.62,2.44-1.25.86-2.57,1.63-3.87,2.41s-2.64,1.56-3.76,2.59c-.68.63-1.52,1.62-1.11,2.62.46,1.12,3.33.27,2.9-.78-.25-.6.39-1.11,1.04-1.6,1.22-.92,2.58-1.66,3.88-2.45,2.46-1.47,5.58-3.14,6.67-5.96s2.67-8.77-1.47-9.83c-1.29-.33-2.71.15-3.89.65-1.5.63-2.91,1.49-4.28,2.36-3.26,2.07-6.29,4.47-9.47,6.65-.46.32-.78.89-.22,1.27s1.56.11,2.06-.23h0Z"/>
    <path class="cls-16" d="M671.78,482.93c-.26-.93-1.64-1.85-2.33-2.48-1.14-1.05-2.31-2.08-3.51-3.07-2.6-2.17-5.29-4.22-8.07-6.15-5.46-3.79-11.3-7.3-17.43-9.89-.66-.28-1.47-.2-2.06.22-.37.26-.88,1.03-.21,1.31,5.84,2.47,11.41,5.77,16.64,9.34,2.78,1.9,5.49,3.92,8.09,6.06,1.12.92,2.22,1.87,3.3,2.85.53.48,1.05.96,1.56,1.45.28.27,1.07.93,1.13,1.13.33,1.17,3.22.4,2.9-.78h0Z"/>
    <path class="cls-16" d="M670.67,492.16c.06-.35-.45-.67-.68-.88-.73-.64-1.49-1.23-2.26-1.82-2.97-2.29-6.04-4.45-9.15-6.55-7.92-5.36-16.07-10.41-24.26-15.34-1.79-1.08-3.95-3.08-6.14-1.94-.38.2-.86.51-.34.8.47.27,1.61-.14,2.03-.36h0c-.59.13-1.18.26-1.78.39-.37-.02-.24-.06.08.11s.62.34.92.52c1.03.59,2.05,1.21,3.07,1.83,3.42,2.07,6.81,4.19,10.2,6.32,7.33,4.6,14.67,9.22,21.59,14.44.95.72,1.9,1.45,2.82,2.21.26.21.5.46.76.66.24.18.21.37.25.11-.13.74,2.74.25,2.86-.49h0Z"/>
    <path class="cls-16" d="M657.54,493.14c-.04-.42-1.17-1.09-1.44-1.31-1.17-.92-2.37-1.8-3.59-2.66-2.89-2.05-5.85-3.98-8.88-5.81-2.78-1.68-5.61-3.29-8.49-4.78-1.81-.93-4.06-2.63-6.19-1.78-.28.11-1.14.37-.88.77.22.34,1.63-.1,1.86-.2h.02c-.56.08-1.12.16-1.69.24.7.08,1.49.62,2.11.92,1.25.6,2.47,1.24,3.69,1.89,2.73,1.46,5.41,3.02,8.05,4.65s5.16,3.3,7.65,5.06c1.13.8,2.24,1.61,3.33,2.46.27.21,1.51.94,1.54,1.32.04.46,2.96-.05,2.9-.78h0Z"/>
    <path class="cls-19" d="M523.51,330.82s6.99.91,9.55-18.61c2.56-19.52,1.54-47.46,1.54-47.46l3.75,2.43s.04,46.34-6.35,70.89c0,0-7.76-.47-8.49-7.26Z"/>
    <g class="cls-12">
      <circle class="cls-4" cx="236.33" cy="568.39" r="5.71"/>
      <circle class="cls-4" cx="222.28" cy="523.82" r="5.71"/>
      <circle class="cls-4" cx="266.85" cy="509.78" r="5.71"/>
      <circle class="cls-4" cx="252.81" cy="465.21" r="5.71"/>
      <circle class="cls-4" cx="222.28" cy="523.82" r="5.71"/>
      <circle class="cls-4" cx="237.54" cy="494.52" r="12.14"/>
      <circle class="cls-4" cx="294.93" cy="598.91" r="5.71"/>
      <circle class="cls-4" cx="280.89" cy="554.35" r="5.71"/>
      <circle class="cls-4" cx="250.37" cy="612.95" r="5.71"/>
      <circle class="cls-4" cx="265.63" cy="583.65" r="12.14"/>
      <circle class="cls-4" cx="325.46" cy="540.3" r="5.71"/>
      <circle class="cls-4" cx="311.42" cy="495.74" r="5.71"/>
      <circle class="cls-4" cx="280.89" cy="554.35" r="5.71"/>
      <circle class="cls-4" cx="296.15" cy="525.04" r="12.14"/>
      <circle class="cls-4" cx="251.59" cy="539.08" r="12.14"/>
      <circle class="cls-4" cx="353.54" cy="629.44" r="5.71"/>
      <circle class="cls-4" cx="339.5" cy="584.87" r="5.71"/>
      <circle class="cls-4" cx="308.98" cy="643.48" r="5.71"/>
      <circle class="cls-4" cx="324.24" cy="614.17" r="12.14"/>
      <circle class="cls-4" cx="384.07" cy="570.83" r="5.71"/>
      <circle class="cls-4" cx="370.03" cy="526.26" r="5.71"/>
      <circle class="cls-4" cx="339.5" cy="584.87" r="5.71"/>
      <circle class="cls-4" cx="354.76" cy="555.57" r="12.14"/>
      <circle class="cls-4" cx="310.2" cy="569.61" r="12.14"/>
      <circle class="cls-4" cx="412.15" cy="659.96" r="5.71"/>
      <circle class="cls-4" cx="398.11" cy="615.39" r="5.71"/>
      <circle class="cls-4" cx="367.59" cy="674" r="5.71"/>
      <circle class="cls-4" cx="382.85" cy="644.7" r="12.14"/>
      <circle class="cls-4" cx="442.68" cy="601.35" r="5.71"/>
      <circle class="cls-4" cx="428.63" cy="556.78" r="5.71"/>
      <circle class="cls-4" cx="398.11" cy="615.39" r="5.71"/>
      <circle class="cls-4" cx="413.37" cy="586.09" r="12.14"/>
      <circle class="cls-4" cx="368.81" cy="600.13" r="12.14"/>
      <circle class="cls-4" cx="458.34" cy="646.76" r="5.71"/>
      <circle class="cls-4" cx="429.03" cy="631.5" r="12.14"/>
      <circle class="cls-4" cx="297.37" cy="451.17" r="5.71"/>
      <circle class="cls-4" cx="282.11" cy="480.47" r="12.14"/>
      <circle class="cls-4" cx="283.33" cy="406.6" r="5.71"/>
      <circle class="cls-4" cx="341.94" cy="437.13" r="5.71"/>
      <circle class="cls-4" cx="327.9" cy="392.56" r="5.71"/>
      <circle class="cls-4" cx="297.37" cy="451.17" r="5.71"/>
      <circle class="cls-4" cx="312.64" cy="421.87" r="12.14"/>
      <circle class="cls-4" cx="238.76" cy="420.65" r="5.71"/>
      <circle class="cls-4" cx="268.07" cy="435.91" r="12.14"/>
      <circle class="cls-4" cx="355.98" cy="481.69" r="5.71"/>
      <circle class="cls-4" cx="340.72" cy="511" r="12.14"/>
      <circle class="cls-4" cx="400.55" cy="467.65" r="5.71"/>
      <circle class="cls-4" cx="386.51" cy="423.08" r="5.71"/>
      <circle class="cls-4" cx="355.98" cy="481.69" r="5.71"/>
      <circle class="cls-4" cx="371.24" cy="452.39" r="12.14"/>
      <circle class="cls-4" cx="326.68" cy="466.43" r="12.14"/>
      <circle class="cls-4" cx="414.59" cy="512.22" r="5.71"/>
      <circle class="cls-4" cx="399.33" cy="541.52" r="12.14"/>
      <circle class="cls-4" cx="459.16" cy="498.18" r="5.71"/>
      <circle class="cls-4" cx="445.12" cy="453.61" r="5.71"/>
      <circle class="cls-4" cx="414.59" cy="512.22" r="5.71"/>
      <circle class="cls-4" cx="429.85" cy="482.91" r="12.14"/>
      <circle class="cls-4" cx="385.29" cy="496.96" r="12.14"/>
      <circle class="cls-4" cx="487.24" cy="587.31" r="5.71"/>
      <circle class="cls-4" cx="473.2" cy="542.74" r="5.71"/>
      <circle class="cls-4" cx="457.94" cy="572.05" r="12.14"/>
      <circle class="cls-4" cx="503.73" cy="484.13" r="5.71"/>
      <circle class="cls-4" cx="473.2" cy="542.74" r="5.71"/>
      <circle class="cls-4" cx="488.46" cy="513.44" r="12.14"/>
      <circle class="cls-4" cx="443.9" cy="527.48" r="12.14"/>
      <circle class="cls-4" cx="267.94" cy="361.34" r="5.71"/>
      <circle class="cls-4" cx="326.55" cy="391.86" r="5.71"/>
      <circle class="cls-4" cx="312.51" cy="347.29" r="5.71"/>
      <circle class="cls-4" cx="297.25" cy="376.6" r="12.14"/>
      <circle class="cls-4" cx="298.47" cy="302.73" r="5.71"/>
      <circle class="cls-4" cx="357.08" cy="333.25" r="5.71"/>
      <circle class="cls-4" cx="343.03" cy="288.68" r="5.71"/>
      <circle class="cls-4" cx="312.51" cy="347.29" r="5.71"/>
      <circle class="cls-4" cx="327.77" cy="317.99" r="12.14"/>
      <circle class="cls-4" cx="385.16" cy="422.38" r="5.71"/>
      <circle class="cls-4" cx="371.12" cy="377.82" r="5.71"/>
      <circle class="cls-4" cx="355.86" cy="407.12" r="12.14"/>
      <circle class="cls-4" cx="415.69" cy="363.78" r="5.71"/>
      <circle class="cls-4" cx="401.64" cy="319.21" r="5.71"/>
      <circle class="cls-4" cx="371.12" cy="377.82" r="5.71"/>
      <circle class="cls-4" cx="386.38" cy="348.51" r="12.14"/>
      <circle class="cls-4" cx="341.82" cy="362.56" r="12.14"/>
      <circle class="cls-4" cx="443.77" cy="452.91" r="5.71"/>
      <circle class="cls-4" cx="429.73" cy="408.34" r="5.71"/>
      <circle class="cls-4" cx="414.47" cy="437.65" r="12.14"/>
      <circle class="cls-4" cx="474.3" cy="394.3" r="5.71"/>
      <circle class="cls-4" cx="460.25" cy="349.73" r="5.71"/>
      <circle class="cls-4" cx="429.73" cy="408.34" r="5.71"/>
      <circle class="cls-4" cx="444.99" cy="379.04" r="12.14"/>
      <circle class="cls-4" cx="400.42" cy="393.08" r="12.14"/>
      <circle class="cls-4" cx="502.38" cy="483.43" r="5.71"/>
      <circle class="cls-4" cx="488.34" cy="438.87" r="5.71"/>
      <circle class="cls-4" cx="473.08" cy="468.17" r="12.14"/>
      <circle class="cls-4" cx="532.91" cy="424.82" r="5.71"/>
      <circle class="cls-4" cx="518.86" cy="380.26" r="5.71"/>
      <circle class="cls-4" cx="488.34" cy="438.87" r="5.71"/>
      <circle class="cls-4" cx="503.6" cy="409.56" r="12.14"/>
      <circle class="cls-4" cx="459.03" cy="423.6" r="12.14"/>
      <circle class="cls-4" cx="548.56" cy="470.23" r="5.71"/>
      <circle class="cls-4" cx="519.26" cy="454.97" r="12.14"/>
      <circle class="cls-4" cx="387.6" cy="274.64" r="5.71"/>
      <circle class="cls-4" cx="372.34" cy="303.95" r="12.14"/>
      <circle class="cls-4" cx="373.56" cy="230.08" r="5.71"/>
      <circle class="cls-4" cx="432.17" cy="260.6" r="5.71"/>
      <circle class="cls-4" cx="418.13" cy="216.03" r="5.71"/>
      <circle class="cls-4" cx="387.6" cy="274.64" r="5.71"/>
      <circle class="cls-4" cx="402.86" cy="245.34" r="12.14"/>
      <circle class="cls-4" cx="328.99" cy="244.12" r="5.71"/>
      <circle class="cls-4" cx="358.3" cy="259.38" r="12.14"/>
      <circle class="cls-4" cx="446.21" cy="305.17" r="5.71"/>
      <circle class="cls-4" cx="430.95" cy="334.47" r="12.14"/>
      <circle class="cls-4" cx="490.78" cy="291.12" r="5.71"/>
      <circle class="cls-4" cx="476.73" cy="246.56" r="5.71"/>
      <circle class="cls-4" cx="446.21" cy="305.17" r="5.71"/>
      <circle class="cls-4" cx="461.47" cy="275.86" r="12.14"/>
      <circle class="cls-4" cx="416.91" cy="289.9" r="12.14"/>
      <circle class="cls-4" cx="450.64" cy="216.05" r="12.14"/>
      <circle class="cls-4" cx="504.82" cy="335.69" r="5.71"/>
      <circle class="cls-4" cx="489.56" cy="364.99" r="12.14"/>
      <circle class="cls-4" cx="549.39" cy="321.65" r="5.71"/>
      <circle class="cls-4" cx="535.34" cy="277.08" r="5.71"/>
      <circle class="cls-4" cx="504.82" cy="335.69" r="5.71"/>
      <circle class="cls-4" cx="520.08" cy="306.39" r="12.14"/>
      <circle class="cls-4" cx="475.52" cy="320.43" r="12.14"/>
      <circle class="cls-4" cx="577.47" cy="410.78" r="5.71"/>
      <circle class="cls-4" cx="563.43" cy="366.21" r="5.71"/>
      <circle class="cls-4" cx="548.17" cy="395.52" r="12.14"/>
      <circle class="cls-4" cx="608" cy="352.17" r="5.71"/>
      <circle class="cls-4" cx="593.95" cy="307.61" r="5.71"/>
      <circle class="cls-4" cx="563.43" cy="366.21" r="5.71"/>
      <circle class="cls-4" cx="578.69" cy="336.91" r="12.14"/>
      <circle class="cls-4" cx="534.12" cy="350.95" r="12.14"/>
    </g>
    <path class="cls-14" d="M401.6,409.16s-26.05-48.71-29.94-56.4c-3.89-7.69-2.75-52.94-2.75-52.94,0,0,2.57-2.17,7.79,2.82.56-5.8,1.73-11.52,3.47-17.08,1.05-2.78,2.38-5.44,3.96-7.95,1.34-2.24,3.84-3.51,6.44-3.27.77.02,1.51.33,2.05.88l6.1-14.18c.85-2.02,2.71-3.44,4.88-3.73,2.19-.33,4.32.92,5.1,2.99.69-2.82,3.54-4.54,6.36-3.85.12.03.25.07.37.1,5.82.92,5.99,6.61,7.7,16.14-2.16,14.46,1.07,33.58,2.48,32.64l36.03,65.73c-4.5,11.45-7.82,23.33-9.89,35.46l-46.39,19.79-3.77-17.15Z"/>
    <path class="cls-16" d="M407.53,316.23c-1.63-4.63-1.33-9.65-1.03-14.48s1.23-9.7,2.09-14.56c1.61-9.09,4.72-17.87,9.13-25.97.28-.51-1.02-.4-1.18-.37-.55.08-1.39.31-1.68.84-4.51,8.3-7.48,17.15-9.21,26.42-.89,4.8-1.75,9.53-2.05,14.42s-.6,9.84,1.03,14.48c.27.77,3.14-.09,2.9-.78h0Z"/>
    <path class="cls-16" d="M394.76,324.84c-1.41-3.96-2.1-8.04-2.21-12.23-.1-3.61.12-7.23-.04-10.84-.27-5.99-.19-12.04.25-18.02.2-2.76.37-5.7,1.25-8.34.54-1.62-2.35-1.68-2.78-.38-.79,2.37-1.06,4.91-1.28,7.39-.3,3.28-.42,6.58-.48,9.87-.05,2.92-.04,5.85.06,8.77.12,3.51.01,7.02.05,10.54.05,4.81.66,9.49,2.28,14.04.49,1.37,3.38.57,2.9-.78h0Z"/>
    <path class="cls-16" d="M381.9,339.46c-.88-3.01-1.57-6.08-2.02-9.19s-.54-6.38-.67-9.6-.43-6.25-.32-9.41.5-6.59,1.1-9.84c.24-1.3-2.71-.87-2.92.28-.6,3.25-.98,6.53-1.1,9.84s.21,6.57.32,9.88c.21,6.42.91,12.62,2.71,18.81.35,1.19,3.24.41,2.9-.78h0Z"/>
    <path class="cls-14" d="M633.59,659.87s-143.93,21.54-187.57,1.56c-54.19-28.81-50.56-270.85-50.56-270.85l46.1-18.07,55.84,199.91,121.65-2.1,14.54,89.55Z"/>
    <path class="cls-10" d="M735.15,519.05c29.05-.6,48.92-1.28,61.6,18.51,21.46,33.49,19.9,110.49-22.47,135.44-6.27,3.64-13.01,6.4-20.03,8.2-55.49,14.7-146.18,40.85-146.18,40.85,0,0-55.36-132.42-36.46-173.84,2.57-5.62,113.95-27.14,163.54-29.17h0Z"/>
    <path class="cls-9" d="M798.94,589.81c-.85,11.08-3.35,22.09-8.13,32.16-3.83,8.07-9.03,15.45-15.38,21.73-5.15,5.09-10.98,9.44-17.27,13.02-4.46,2.54-9.19,4.69-14.07,6.38.37-.13-.22.08-.35.12-.21.07-.43.14-.64.21-.39.13-.78.25-1.17.37-.6.18-1.2.36-1.8.52s-1.18.3-1.77.44c-14.74,3.69-29.54,6.93-44.53,9.46-12.98,2.19-26.04,3.99-39.12,5.45-8.75.98-17.53,1.82-26.31,2.46-2.91.21-5.82.32-8.72.73-7.1,1-14.21,2-21.31,3-.6.08-1.19.17-1.79.25l1.26.44c-2.23-6.04-4.45-12.08-6.68-18.11-1.58-4.3-3.45-8.57-4.67-12.99-2.34-8.47-4.45-17.02-6.42-25.58-3.29-14.34-6.16-28.8-8.19-43.37-1.54-11.09-2.53-22.29-1.19-33.47.2-1.67.47-3.34.82-4.99l-1.25.93c5.66-1.74,11.31-3.48,16.97-5.23l-1.65-.37c.06,4.42.22,8.84.39,13.26.39,10.11.97,20.22,1.82,30.31.93,11.09,2.12,22.21,4.24,33.15,2.55,13.14,7.04,25.92,12.17,38.25,3.24,7.78,6.75,15.51,10.79,22.91.06.11.12.23.19.34.56,1,3.36.06,2.9-.78-3.37-6.08-6.3-12.44-9.08-18.81-5.48-12.57-10.37-25.64-13.32-39.06-2.35-10.69-3.61-21.62-4.62-32.51-.97-10.46-1.62-20.95-2.07-31.44-.16-3.63-.29-7.25-.39-10.88-.03-1.15-.06-2.3-.09-3.45-.01-.58.07-1.26-.04-1.83-.01-.07,0-.16,0-.24,0-.62-1.38-.45-1.65-.37-5.66,1.74-11.31,3.48-16.97,5.23-.44.13-1.14.41-1.25.93-2.22,10.55-1.73,21.76-.46,32.42,1.78,14.97,4.58,29.81,7.83,44.52,2.16,9.79,4.53,19.55,7.16,29.23,1.06,3.91,2.54,7.65,3.94,11.45,2.57,6.96,5.04,13.97,7.7,20.9.05.14.1.28.16.43.17.46.85.5,1.26.44,6.27-.88,12.54-1.77,18.81-2.65,3.25-.46,6.41-.88,9.68-1.1,7.59-.51,15.17-1.18,22.74-1.96,12.59-1.29,25.16-2.89,37.67-4.84,14.92-2.32,29.78-5.12,44.47-8.64,4.43-1.06,8.93-2.07,13.28-3.44s9-3.27,13.26-5.45c6.31-3.22,12.25-7.14,17.61-11.76,6.53-5.64,12.17-12.33,16.55-19.77,5.37-9.13,8.81-19.3,10.5-29.74.48-2.97.83-5.97,1.06-8.97.09-1.21-2.82-.66-2.9.35h0Z"/>
    <path class="cls-14" d="M470.41,289.02l26.73,86.85,105.24,72.46-10.04,25.81s-108.76-32.79-137.33-60.26c-14.53-13.97-44.8-118.34-44.8-118.34l60.2-6.52Z"/>
    <path class="cls-16" d="M450.42,405.74c-1.64-2.16-2.86-4.65-4.02-7.08-1.75-3.65-3.32-7.4-4.81-11.17-3.94-9.89-7.43-19.96-10.81-30.05-3.67-10.93-7.16-21.92-10.57-32.93-2.81-9.08-5.55-18.17-8.24-27.29-.87-2.95-1.74-5.9-2.59-8.86-.38-1.31-.59-2.94-1.2-4.17-.03-.05-.04-.12-.05-.18l-1.69,1.04c6.78-.73,13.56-1.47,20.34-2.2l32.42-3.51c2.48-.27,4.96-.54,7.45-.81.38-.04,1.66-.36,1.68-.88.02-.58-.82-.47-1.2-.43-6.78.73-13.56,1.47-20.34,2.2l-32.42,3.51c-2.48.27-4.96.54-7.45.81-.32.03-1.86.43-1.69,1.04,1.01,3.55,2.05,7.1,3.09,10.64,2.57,8.76,5.2,17.5,7.88,26.22,3.37,10.98,6.83,21.94,10.45,32.84s6.99,20.73,10.94,30.92c2.62,6.76,5.21,13.9,9.19,20.01.3.47.62.92.95,1.36.49.64,3.28-.31,2.71-1.05h0Z"/>
    <path class="cls-17" d="M429.38,235.98s38-11.33,51.86,13.77c13.86,25.09,21.23,69.83,21.23,69.83l-22.09,8.82c-12.87,5.14-26.52,8.06-40.36,8.65l-19.46.83s-31.43-86,8.83-101.89Z"/>
    <path class="cls-16" d="M496.31,571.86c-1.44,10.1-5.49,22.61-16.45,25.88-.39.12-1.42.48-1.27,1.06s1.27.4,1.63.29c5.37-1.61,9.87-5.17,12.97-9.81,3.53-5.3,5.12-11.59,6.01-17.82.15-1.06-2.76-.54-2.89.39h0Z"/>
    <path class="cls-16" d="M514.38,388.41c11.51,8.81,23.41,16.97,35.36,25.15,2.27,1.55,4.52,3.14,6.72,4.78,1.09.81,3.58-.71,2.22-1.73-9.38-7-19.35-13.18-28.83-20.04-4.47-3.23-8.88-6.54-13.26-9.89-1.08-.83-3.57.69-2.22,1.73h0Z"/>
    <path class="cls-16" d="M666.39,472.64c2.63,1.96,3.99,5.33,2.25,8.31-.13.22-.12.57.05.76,1.75,2.04,4.48,6.11,2.71,8.8-.61.92-1.86,1.09-2.26,2.12-.15.39-.07.38-.28.81-.9,1.85-2.88,2.38-4.81,2.37-.66,0-1.59.18-1.89.87-.26.6.23,1.14.86,1.14,3.5.02,8.44-1.32,9.05-5.46l-.84.93c3.07-1.56,4.27-4.35,3.15-7.62-.64-1.88-1.74-3.7-3.04-5.2l.05.76c2.16-3.68.47-7.8-2.76-10.2-.97-.72-3.54.65-2.25,1.62h0Z"/>
    <path class="cls-9" d="M652.05,530.3c3.15-.81,6.32-1.52,9.5-2.21,7.96-1.72,15.98-3.21,24.03-4.45,10.73-1.65,21.54-2.89,32.38-3.5s22.68-.63,33.92.72c9.9,1.2,20.04,3.39,28.87,8.2.99.54,1.96,1.11,2.91,1.72,1.12.71,3.63-.82,2.22-1.71-8.5-5.4-18.45-8.15-28.32-9.72-11.28-1.79-22.8-2.06-34.2-1.64s-22.36,1.54-33.44,3.13c-8.79,1.26-17.55,2.8-26.25,4.62-4,.84-8.09,1.59-12.02,2.73-.05.02-.11.03-.16.04-1.8.47-1.25,2.53.55,2.06h0Z"/>
  </g>
</svg>