<?xml version="1.0" encoding="UTF-8"?>
<svg id="Layer_1" data-name="Layer 1" xmlns="http://www.w3.org/2000/svg" xmlns:xlink="http://www.w3.org/1999/xlink" viewBox="0 0 991 991">
  <defs>
    <style>
      .cls-1 {
        fill: none;
      }

      .cls-2 {
        fill: #b9dfee;
      }

      .cls-3 {
        fill: #825739;
      }

      .cls-4 {
        fill: #aa3f2f;
      }

      .cls-5 {
        fill: #010101;
      }

      .cls-6 {
        fill: #93b93f;
      }

      .cls-7 {
        fill: #d48628;
      }

      .cls-8 {
        fill: #a09f9e;
      }

      .cls-9 {
        fill: #4e2a16;
      }

      .cls-10 {
        fill: #f1edf6;
      }

      .cls-11 {
        fill: #f1eef7;
      }

      .cls-12 {
        fill: #8f3a23;
      }

      .cls-13 {
        fill: #0a2f44;
      }

      .cls-14 {
        clip-path: url(#clippath-1);
      }

      .cls-15 {
        clip-path: url(#clippath-2);
      }

      .cls-16 {
        fill: #382d15;
      }

      .cls-17 {
        fill: #020202;
      }

      .cls-18 {
        fill: #fff;
      }

      .cls-19 {
        fill: #c32126;
      }

      .cls-20 {
        fill: #0a0808;
      }

      .cls-21 {
        fill: #0e3b59;
      }

      .cls-22 {
        fill: #badfee;
      }

      .cls-23 {
        fill: #353535;
      }

      .cls-24 {
        fill: #5f6060;
      }

      .cls-25 {
        fill: #b06c4f;
      }

      .cls-26 {
        fill: #251911;
      }

      .cls-27 {
        fill: #a5a4a4;
      }

      .cls-28 {
        fill: #4f2f26;
      }

      .cls-29 {
        fill: #3f1713;
      }

      .cls-30 {
        fill: #4f3026;
      }

      .cls-31 {
        fill: #14162a;
      }

      .cls-32 {
        fill: #f5ac1b;
      }

      .cls-33 {
        fill: #35783b;
      }

      .cls-34 {
        fill: #6c3925;
      }

      .cls-35 {
        fill: #662a1b;
      }

      .cls-36 {
        fill: #5f2315;
      }

      .cls-37 {
        fill: #161412;
      }

      .cls-38 {
        clip-path: url(#clippath);
      }

      .cls-39 {
        fill: #903c21;
      }
    </style>
    <clipPath id="clippath">
      <circle class="cls-1" cx="495.5" cy="495.5" r="495.5"/>
    </clipPath>
    <clipPath id="clippath-1">
      <path class="cls-1" d="M893.05,716.65s-172.42,47.19-278.37,7.62c0,0-26.97,636.11,179.09,690.84,0,0,90.42,10.39,126.87-7.1,0,0,23.05-454.93-.13-564.13-23.18-109.2-27.47-127.23-27.47-127.23Z"/>
    </clipPath>
    <clipPath id="clippath-2">
      <circle class="cls-1" cx="1781.99" cy="495.5" r="495.5"/>
    </clipPath>
  </defs>
  <g class="cls-38">
    <rect class="cls-2" x="-32.8" y="-20" width="1060.96" height="1045.41" rx="12" ry="12"/>
    <ellipse class="cls-18" cx="513.26" cy="233.31" rx="119.41" ry="97.34"/>
    <polygon class="cls-18" points="414.16 251.11 364.91 309.24 440.15 295.89 414.16 251.11"/>
    <path class="cls-25" d="M358.72,426.82c5.31,2.36,39.37,25.02,48.28,66.43,11.22,52.2,4.73,163.52,2.89,216.36-3.66,105.39,8.71,126.04-.07,231.31l-80.53-9.57s36.24-275.15,19.51-333.32c-16.72-58.17,9.92-171.21,9.92-171.21Z"/>
    <path class="cls-25" d="M188.41,288.62s9.24,50.78.29,80.4c-1.44,4.75-24.98,17.53-24.98,17.53l6.98,7.32c6.02,6.32,17.42,11.33,25.61,14.37,40.75,15.12,97.68,17.32,115.22-8.02l-11.23-18.25-8.26-4.22c-1.44-5.67,4.02-55.81,4.02-55.81"/>
    <path class="cls-13" d="M65.92,850.49l-2.89,69.26c-.82,46.17,9.14,77.8,21.9,122.18l27.09,203.91s-.14,81.52-8.32,148.89c-7.12,58.4,11.28,187.93,11.28,187.93l20.25,3.84c18.29,3.47,37,4.15,55.5,2.03l39.7-4.57,37.45-370.18,27.44-227.9,37.63-127.17-267.03-8.19Z"/>
    <path class="cls-13" d="M372.39,850.49l-25.93,390.89c-.01,16.35-6.57,31.18-14.07,109.86l-14.26,134.06-5.13,82.95-11.52,1.99c-15.82,3.18-32.01,4.19-48.11,3.02l-35.27-1.44,39.11-713.62,115.18-7.71Z"/>
    <path class="cls-18" d="M295.76,398.06c-1.95,7.22-5.29,15.8-19.37,17.92-21.04,3.16-41.49-.92-67.23-20.55,0,0-18.89-12.67-21.61-24.48l-15.54,6.81c-9.81,4.33-35.01,11.79-53.32,20.32-19.46,7-58.05,24.31-71.3,55.08-12.14,33.69-12.89,160.44-12.89,190.86,15.95,5.96,27.59,6.76,36.42,7.33.94.06-1.99,3.54-.83,3.62-4.5,33.82-8.28,62.78-10.28,79.72-5.2,44.02-14.43,106.63-10.85,134.82,3.57,28.19,164.86,42.8,224.43,36.42,29.77-3.19,74.4,2.32,100.26-20.52,6.4-5.65,6.41-51.92,7.24-72.68,2.27-56.64,1.51-113.45,2.99-170.14,2.43,2.36,16.87,1.78,24.93.36,12.27-2.16,17.14-4.33,21.44-7.48-12.42-44.42-19.3-136.28-27.97-170.34-8.11-31.91-58.69-61.84-88.47-75.48l-17.19-9.73s-2.34-1.33-1.87.31"/>
    <path class="cls-3" d="M186.37,309.39c0,.11.02.2.03.3-.04-.13-.07-.24-.03-.3Z"/>
    <path class="cls-25" d="M259.93,369.02l34.54-2,17.19-4.27c1.76,0,9.01-17.88,10.16-20.15,3.57-7.05,9.28-16.54,11.41-24.16,2.28-8.17,6.57-16.83,7.6-26.63.76-7.18.31-10.42-3.76-22.01-1.04-2.94-1.13-5.9-.46-9.1,1.42-6.74,1.82-14.59,3.53-23.62.13-.71.89-4.14.6-4.9,0,0-1.65-37.51-8.68-50.78-7.04-13.27-14.78-19.21-24.69-21.55-9.91-2.34-38.97,0-38.97,0l-40.32-4.97-33.84,17.58-16.54,41.85,3.44,48.13,5.99,42.94"/>
    <path class="cls-28" d="M277.3,356.72c-.28.18-18.52-1.79-18.88-1.82l-9.48-4.27s-.05-.03-.05-.04c-.85.35-1.85.42-2.99.05-5.92-1.91-11.11-5.1-16.11-8.74-4.49-3.27-9.79-13.39-14.91-15.66-2.42-1.07-1.59-1.83-3.65-3.33.2.53.14,3.73.34,4.26,9.42,11.71,21.65,34.57,41.11,42.66.95.23,3.94,1.02,11.89,1.54,10.43.68,17.29,1.01,27.45-.56.06-7.35-.6-16.04-.65-23.39-3.74,0-3.71,2.44-14.08,9.28Z"/>
    <path class="cls-5" d="M261.31,254.25c-2.21-1.14-4.8-.15-6.25,1.14-.34.3-1.26,1.16-1.68,2.62-.54,1.86.2,3.97,1.37,5.24,1.56,1.71,4.16,2,6.15,1.07,2.7-1.27,3.58-4.52,2.9-6.89-.13-.43-.71-2.26-2.49-3.18"/>
    <path class="cls-5" d="M325.11,254.61c2.21-1.15,4.8-.16,6.25,1.12.34.3,1.26,1.16,1.69,2.61.55,1.86-.19,3.97-1.35,5.25-1.56,1.71-4.15,2.01-6.15,1.08-2.71-1.26-3.59-4.51-2.92-6.88.12-.43.7-2.26,2.48-3.19"/>
    <path class="cls-5" d="M306.72,263.01s8.89-8.92,15.41-9.53c9.51-.89,11.95,1.25,15.33,5.61,0,0-6.24-4.55-12.92-3.74-6.39.77-17.82,7.66-17.82,7.66Z"/>
    <path class="cls-5" d="M275.82,260.74s-13.35-8.39-19.89-8.55c-9.55-.23-20.92,5.42-23.99,9.99,0,0,14.99-8.31,21.71-7.96,6.43.33,22.17,6.53,22.17,6.53Z"/>
    <path class="cls-5" d="M277.92,230.11c1.24.6.79,1.55.78,3.83,0,.73.02,1.85.04,3.03.04,2.2-2.11,3.8-4.19,3.11-3.75-1.23-7.08-2.53-9.67-2.99-7-1.24-14.17-3-21.26-1.89-3.39.53-6.37,1.41-9.2,3.16-.89.55-3.3,2.95-4.64,2.33-.55-.25.35-3.05.44-3.34,1.84-5.64,6.62-7.98,12.46-9.33,11.92-2.74,23.12.54,35.24,2.08"/>
    <path class="cls-5" d="M341.8,229.07s-3.56-.8-3.59-.8c-7.69-1.76-15.33-1.72-22.98-.69-3.88.52-6.69,3.99-6.5,7.9,0,.02,0,.05,0,.07.04.78-.29,3.15.22,3.77.1.12.24.19.39.24,1.55.63,3.31.61,4.94.25,2.02-.45,3.83-1.48,5.83-2.01,5.73-1.51,11.75-3.17,17.66-2.34.47.07,2.99.47,3.44.56,1.72-3.22,1.44-6.5.6-6.96Z"/>
    <g>
      <path class="cls-17" d="M299.41,300.35c-2.79,1.5-7.05,1.16-9.87-.62-.63-.39-2.7,0-1.83.55,3.72,2.35,9.83,2.56,13.43.62.36-.19.29-.47-.16-.63-.47-.16-1.21-.13-1.59.08"/>
      <path class="cls-17" d="M286.5,299.45c-1.88-.91-3.99-1.38-6.09-1.54-.31-.02-.71.1-.93.3-.18.16-.21.38.02.51.97.57,2.2.8,3.34.78.36,0,.83-.1,1.03-.41.19-.29-.16-.48-.44-.47-.94.02-1.89-.17-2.69-.64-.31.27-.61.54-.92.82,1.88.15,3.76.59,5.44,1.4.33.16.81.06,1.11-.13.22-.14.46-.45.13-.62"/>
      <path class="cls-17" d="M278.16,299.73c-2.46-.06-5.35-1.15-6.56-3.04-1.83-2.85-.14-7.28,2.93-9.11.33-.2.16-.46-.18-.53-.44-.1-.96.07-1.31.28-2.67,1.6-4.4,5.22-3.99,7.9.38,2.5,2.73,4.25,5.68,4.97.88.21,1.81.36,2.73.38.37,0,1.04-.11,1.22-.41.18-.3-.16-.43-.51-.44"/>
      <path class="cls-17" d="M303.91,299.06c-.13-.29.11-.48.31-.47.66.02,1.34-.17,1.91-.64.22.27.43.54.65.81-1.33.15-2.66.6-3.85,1.41-.24.16-.58.06-.79-.12-.16-.14-.33-.45-.09-.62"/>
      <path class="cls-17" d="M302.05,299.43c1.33-.91,2.82-1.39,4.3-1.56.22-.02.5.09.66.3.13.16.15.38-.01.51"/>
      <path class="cls-17" d="M309.01,299.4c1.6-.07,3.48-1.16,4.26-3.06,1.18-2.86.07-6.25-1.93-8.07-.22-.2-.1-.46.12-.53.29-.1.63.07.85.28,1.74,1.59,2.87,4.17,2.62,6.85-.24,2.5-1.77,4.26-3.68,4.99-.57.22-1.17.36-1.77.39-.24,0-.68-.1-.8-.4-.12-.3.1-.43.33-.44"/>
    </g>
    <path class="cls-34" d="M292.1,317.82c-10.68-.02-27.98-1.3-27.98-1.3,0,0,3.45,26.35,28.21,26.39,24.76.04,22.76-25.65,22.76-25.65,0,0-12.31.57-22.99.55Z"/>
    <path class="cls-26" d="M292.2,317.82c-5.08,0-25.54-.9-25.54-.9,0,0,7.3,16.97,25.67,17,19.91.03,21.42-16.66,21.42-16.66l-21.55.56Z"/>
    <path class="cls-11" d="M292.3,317.26c-5.08,0-20.53-.89-20.53-.89,0,0,5.67,6.89,20.91,6.91,15.23.02,19.96-6.68,19.96-6.68l-20.33.66Z"/>
    <path class="cls-34" d="M315.8,315.32c-.52-.13-1.35-.04-3.78-.26-4.06-.37-5.2-.86-8.14-1.09-5.02-.41-8.21,1.64-10.4,1.63-2.18,0-5.37-2.06-10.39-1.67-2.94.23-10.22,1.32-14.28,1.68-2.44.21-5.29-.77-5.81-.64-.72.18.67,5.68,28.11,5.73,27.44.04,25.41-5.19,24.69-5.37Z"/>
    <path class="cls-31" d="M374.6,857.43c.24,0,.34-.31.04-.31-.24,0-.34.31-.04.31h0Z"/>
    <path class="cls-27" d="M390.97,495.4c0,22.98-.67,45.95-2.26,68.88-1.16,16.66-2.83,33.28-4.07,49.94-.72,9.65-1.25,19.32-1.55,28.99l.06.07c1.5.58,3.14.88,4.72,1.12,4.37.68,8.83.68,13.23.27,6.71-.62,13.07-2.52,19.57-4.17,2.11-.54,4.23-1.05,6.37-1.42.78-.13,1.84-.3,2.39-.25s.53.28.34.43l2.06-.4c-.63-4.64-1.27-9.28-1.9-13.92-.05-.39-1.54.12-1.7.19-.78.34-1.94.74-3.03,1.08-3.11,1-6.31,1.74-9.51,2.35-7.97,1.52-16.39,2.53-24.52,1.93-1.11-.08-2.26-.16-3.34-.45-.44-.12-1.12.1-1.51.29-.18.09-.74.38-.28.5.96.26,1.99.34,2.98.42,3.23.28,6.49.22,9.73.04,8.78-.5,17.67-1.77,26.1-4.34,1.55-.47,3.13-.96,4.62-1.62l-1.7.19c.63,4.64,1.27,9.28,1.9,13.92.06.47,1.88-.24,2.06-.4.98-.81-.48-1.04-1.12-1.04-1.9,0-3.82.46-5.66.86-4.25.92-8.4,2.19-12.61,3.24-7.4,1.84-15.28,2.69-22.85,1.46-.88-.14-1.75-.31-2.61-.53-.39-.1-1.08-.15-1.41-.4-.05-.04-.19-.03-.23-.08-.18-.25.11-1.95.12-2.32.06-1.71.12-3.41.2-5.12.55-12.82,1.55-25.6,2.65-38.38,1.15-13.4,2.33-26.79,3.16-40.21,1.1-17.8,1.65-35.64,1.77-53.47.02-2.75.03-5.5.03-8.25,0-.27-2.17.01-2.17.58h0Z"/>
    <path class="cls-5" d="M165.3,264.02s-9.5-19.41-11.32-60.63c-1.4-31.53,42.29-60.84,72.25-66.47,16.47-3.1,72.08,1.91,86.62,8.07,14.54,6.15,22.67,24.95,25.3,52.18,0,0-9.68-26.81-27.27-25.59-14.35,1-60.9-4.49-72.86.99-11.96,5.48-29.9,11.45-29.6,54.3.08,11.68-21.03,15.89-26.58,23.12-5.56,7.23-16.53,14.04-16.53,14.04Z"/>
    <path class="cls-5" d="M198.74,258.28c.29,3.63.61,18.09,1.12,21.63l-19.05.12c-6.07-12.32-13.36-26.81-15.63-30.1-3.55-5.13-4.77-30.45-5.24-39.98l-.1-2.06c-.47-9.14,7.98-23.89,22.61-39.46,16.09-17.14,45.19-27.38,74.13-26.11,2.75.12,5.5.35,8.16.66,25.19,3.01,46.36,14.85,62.93,35.19,11.95,14.66,13.18,31.73,12.5,42.18-1.26-20.55-8.96-34.84-9.28-35.44-7.29-13.81-16.2-17.59-22.4-18.33-5.4-.65-9.4.89-10.19,1.22-6.06,1.51-15.02.91-21.48.14-4.81-.57-8.64-1.3-9.68-1.5-3.3-2.14-8.19-3.64-14.17-4.36-13.89-1.66-33.87,1.26-37.85,7.39-4.41,6.79-14.09,30.83-14.01,36.38"/>
    <path class="cls-25" d="M191.49,310.16c-10.44,15.62-18.85-10.31-18.85-10.31-10.97-12.99-11.06-26.91-10.74-36.43.33-9.52,10.8-9.45,10.8-9.45,8.9.9,12.91,5.65,20.56,35.6"/>
    <path class="cls-5" d="M178.58,276.64c-3.08.94-3.8,4.08-3.64,6.98.05.86.25,1.68.35,2.53.31,2.65.61,5.03,1.83,7.46.69,1.37,3.24,5.91,5.43,4.55.77-.48.67-1.55.57-2.32-.21-1.55-.73-3.06-1.14-4.56-.34-1.26-1.07-3.23-.51-4.52s3.22-.51,4.32-.39c.05,0,.27-.03.24-.11-1.56-4.39-3.02-8.8-5.13-12.97-1.31-2.6-2.83-5.24-4.89-7.33-.71-.72-1.69-1.68-2.72-1.93-.67-.16-.91.38-1.29.93-2.51,3.58-2.91,8.24-2.4,12.46,0,.08.31.02.3-.08-.48-3.99-.15-8.3,1.99-11.8.29-.47.65-1.16,1.12-1.49-.28.2-.18-.04.1.14.96.63,1.85,1.09,2.68,1.94,1.92,1.97,3.36,4.41,4.61,6.84,2.21,4.29,3.73,8.84,5.33,13.37l.24-.11c-1.21-.13-3.93-1.01-4.73.4-.49.87-.18,2.16.01,3.07.31,1.44.77,2.85,1.14,4.28.26,1.01.79,2.52.38,3.55-.75,1.91-3.11-.63-3.73-1.4-1.37-1.71-2.33-3.78-2.89-5.89-.41-1.52-.41-3.05-.66-4.59-.53-3.14-.63-7.73,3.12-8.87.17-.05.14-.18-.03-.12h0Z"/>
    <path class="cls-25" d="M307.82,350.01c-.24-.03-.46-.11-.66-.23-3.72-2.37-4.03-3.73-5.83-4.13-.42-.09-.63-.24-1.93-.39-5.2-.63-8.36-1.11-22.1,7.95-.28.18-18.52-1.79-18.88-1.82l-9.48-4.27c-1.59-.94-37.34-29.94-37.34-29.94-.55-.98-7.04-7.91-7.32-8.85-.11-.05-.22-.11-.34-.15-.04-.01-.13-.05-.23-.09-.02.06-.03.14-.05.19-.06.41-.04.83-.01,1.24.11,1.77.54-9.76,1.1-8.07.86,2.59,1.49,6.06,2.25,8.67.27.92,3.42,13.79,3.77,14.69,4.06,2.42,25.92,36.67,43.91,41.97.95.23,1.92.58,9.87,1.1,14.93.98,29.33.7,43.92-3.83,3.81-1.18,6.84-3.97,8.32-7.55,4.2-10.22,13.47-32.94,15.58-48.12-3.9,8.85-12.13,27.8-17.8,40.71-.17.39-5.83.81-6.29.95"/>
    <path class="cls-27" d="M185.36,372.39c3.79,4.76,8.12,9.16,12.52,13.34,9.51,9.05,20.1,17.2,31.83,23.17,13.34,6.79,28.06,10.2,43.01,8.07,9.89-1.41,19.99-5.86,23.36-15.99,2.22-6.65,1.21-13.82-.14-20.54-.12-.57-.23-1.15-.34-1.72l-1.95.84c2.36,1.12,4.72,2.23,7.08,3.35,1.23.58,2.46,1.3,3.74,1.77.37.13.48.4.22-.04.02.04.05.09.06.12.18.66.57,1.31.81,1.96.47,1.27.85,2.58,1.15,3.9,2.02,8.83-.14,17.88-7.03,24.04-5.85,5.23-13.67,7.88-21.21,9.51-10.23,2.22-20.6,2.63-30.9.62-18.48-3.61-35.45-13.3-50.28-24.62-8.62-6.58-16.9-13.85-24.17-21.91-.11-.12-.22-.25-.34-.37l-.57.92c4.86-2.12,9.72-4.25,14.58-6.37,1.38-.6.13-1.41-.88-.97-4.86,2.12-9.72,4.25-14.58,6.37-.29.13-.9.54-.57.92,6.25,7.12,13.49,13.52,20.86,19.43,14.69,11.79,31.37,22,49.75,26.73,10.01,2.58,20.2,3.14,30.43,1.67,8.94-1.29,18.21-3.56,25.83-8.6,4.72-3.12,8.64-7.41,10.6-12.78,1.46-4,1.72-8.35,1.12-12.54-.38-2.68-1.09-5.34-2.15-7.83-.25-.58-.36-.92-.94-1.21-2.81-1.44-5.72-2.7-8.57-4.05-.78-.37-1.56-.74-2.34-1.11-.51-.24-2.1.01-1.95.84,1.19,6.21,2.46,12.48,1.28,18.8-.71,3.8-2.33,7.41-5.02,10.21-3.56,3.72-8.45,5.7-13.4,6.79-14.3,3.13-29.14.16-42.19-6-11.81-5.57-22.47-13.45-32.06-22.26-5.16-4.74-9.79-9.87-14.45-15.09-.07-.08-.14-.17-.2-.25-.49-.62-2.58.15-2.01.87Z"/>
    <path class="cls-25" d="M152.27,684.19l2.09-37.93c-9.92,5.1-46.84,12.69-95.94,3.43-3.12,46.24-8.37,106.79,34.59,122.1,43.43,20.92,154.24-34.41,154.24-34.41l27.17-74.08-122.16,20.88Z"/>
    <path class="cls-27" d="M120.86,434.17c7.88.83,15.21,4.71,21.26,9.7s11.01,11.01,13.71,18.16c3.85,10.17,6.06,21.05,8.02,31.71,2.55,13.85,4.34,27.84,5.69,41.85,1.45,15.16,2.36,30.37,2.69,45.6.31,14.5.12,29.03-.98,43.49-.25,3.27-.55,6.54-.91,9.8-.08.7-.36,1.62-.27,2.31.03.2.11.33.11.35-.05.1-.27.2-.35.27-.63.51-.94.67-1.68,1.15-1.09.71-2.2,1.39-3.33,2.03-8.44,4.85-17.74,8.21-27.2,10.4-7.11,1.65-14.38,2.61-21.67,2.95-8.99.41-17.89-.32-26.82-1.26-13.25-1.4-26.51-3.07-39.59-5.65-3.23-.64-6.45-1.33-9.64-2.17-1.4-.37-2.65-.84-4.07-1.19-.15-.04-.3-.1-.45-.16l.21.36c.21-5.08.42-10.16.63-15.24l-1.95.65c5.14,1.74,10.44,3.08,15.72,4.32,12.17,2.85,24.56,4.81,37.04,5.62,14.79.97,29.46-.19,44.07-2.6,9.72-1.6,19.4-3.73,28.74-6.91,3.54-1.21,7.23-2.49,10.49-4.37.37-.21.56-.5.21-.79s-1.22.04-1.54.22c-.75.44-1.1.58-1.75.88-1.98.92-4.01,1.73-6.06,2.48-8.39,3.06-17.15,5.11-25.92,6.7-14.17,2.57-28.51,4.07-42.92,3.46-12.67-.53-25.28-2.34-37.66-5.06-6.28-1.38-12.58-2.91-18.68-4.97-.42-.14-1.93-.02-1.95.65-.21,5.08-.42,10.16-.63,15.24,0,.17.04.29.21.36,2.95,1.16,6.15,1.82,9.23,2.51,11.06,2.5,22.34,4.1,33.59,5.48,9.02,1.11,18.12,2.27,27.21,2.63,8.1.32,16.25-.07,24.27-1.25,11.5-1.69,22.83-4.97,33.28-10.1,2.82-1.39,5.59-2.9,8.22-4.62.7-.46,1.39-.92,2.07-1.42.81-.59.75-1.28.87-2.32,1.61-13.98,2.14-28.08,2.16-42.15.03-15.58-.62-31.17-1.82-46.71-1.14-14.76-2.76-29.49-5.09-44.11-1.88-11.82-4.14-23.66-7.64-35.11-.75-2.47-1.52-4.96-2.55-7.33-1.48-3.41-3.52-6.58-5.84-9.47-5-6.21-11.53-11.41-18.85-14.62-3.34-1.47-6.89-2.49-10.52-2.88-.49-.05-1.18.04-1.54.41-.27.29-.31.66.19.71h0Z"/>
    <path class="cls-25" d="M260.89,727.65l70.74-31.36s44.8,7.9,62.64,3.74c12.85-3.47,28.99-8.7,40.87-15.37l18.67-2.02c4.15-.39,8.2-1.55,11.93-3.42l6.44-3.23s18.17,5.75,21.27.02c3.1-5.73-2.86-9.73-8.64-13.61-5.78-3.88-103.92-25.57-103.92-25.57,9.78-5.9,14.65-11.12,25.09-15.43,16.07-6.52,23.47-17.15,18.72-24-3.33-4.81-22.21,3.12-34.85,12.41-8.22,6.04-28.02,5.82-43.6,14.5-15.58,8.68-25.3,24.72-25.3,24.72-5.82,4.14-55.41,14.95-55.41,14.95-.26,1.32-4.66,63.68-4.66,63.68Z"/>
    <path class="cls-16" d="M472.58,675.26c-7.28-.56-14.57-1.12-21.85-1.68-11.56-.89-23.12-1.78-34.68-2.67-2.66-.2-5.32-.41-7.98-.61-1-.08-2.25,1.36-.78,1.48,7.28.56,14.57,1.12,21.85,1.68,11.56.89,23.12,1.78,34.68,2.67,2.66.2,5.32.41,7.98.61,1,.08,2.25-1.36.78-1.48h0Z"/>
    <path class="cls-16" d="M450.72,682.85c-11.54,2.05-23.44,3.65-35.17,3.55-3.36-.03-6.95-.12-10.16-1.2-.48-.16-1.11-.09-1.54.21-.23.16-.71.66-.19.83,2.87.97,5.95,1.22,8.95,1.33,3.91.15,7.84-.02,11.74-.29,7.23-.5,14.43-1.4,21.58-2.51,1.5-.23,3-.47,4.49-.73.34-.06,1.21-.26,1.24-.73s-.59-.51-.93-.45h0Z"/>
    <path class="cls-25" d="M144.59,682.5c-.78.17-1.56.33-2.34.5-1.76,2.66-3.27,5.5-4.56,8.44-7.28,16.71-7.83,36.61-4,54.24,2.37,10.91,39.89,9.95,47.05,18.73,76.42-28.1,134.97-60.57,134.97-60.57l-9.08-48.19-162.04,26.85Z"/>
    <path class="cls-25" d="M579.68,645.81l-58.51-62.44,27.59,105.11s7.4,38.64,49.15,37.33c39.41,2.96,53.91-49.81,67.68-87.53l-69.81-28.21-16.1,35.73"/>
    <path class="cls-16" d="M152.48,681.13c-6.02.65-11.78,4.27-16.4,7.97-5.16,4.14-9,9.41-11.5,15.53-1.17,2.86-2.34,6.33-1.54,9.44.13.5,2.31-.06,2.17-.58-.65-2.52.06-5.22.9-7.61.96-2.76,2.29-5.4,3.81-7.88,3.24-5.27,7.98-9.45,13.28-12.6,2.51-1.49,5.4-3.05,8.35-3.37.35-.04,1.29-.15,1.45-.53s-.13-.42-.52-.38h0Z"/>
    <path class="cls-16" d="M422.34,645.87c8.73,1.23,17.24,3.63,25.32,7.15.66.29,2.64-.67,1.73-1.06-8.21-3.58-16.86-6.04-25.72-7.29-.49-.07-1.18.02-1.54.41-.27.3-.3.71.21.78h0Z"/>
    <path class="cls-23" d="M720,866.25l-1.15,7.62c-.25,1.65-1.38,2.85-2.52,2.68-1.13-.2-1.83-1.66-1.59-3.3l1.15-7.62c-1.48-1.35-2.16-3.91-1.73-6.52.6-3.63,3.12-6.2,5.63-5.74,2.51.46,4.05,3.77,3.45,7.4-.35,2.43-1.59,4.54-3.24,5.49Z"/>
    <path class="cls-24" d="M867.97,281.13c-3.41-8.95-10.47-16.16-19.94-16.05,4.83-17.21-9.31-31.72-26.49-36.66-8.93-2.13-19.09-.47-26.73-5.57-4.76-3.17-7.67-8.29-11.26-12.86-15.16-18.7-48.72-10.14-69.01,2.86-20.28,13-21.24,33.06-18.74,57,1.16,11.13-.87,16.5-2.51,27.65-1.54,10.52-.24,31.14-2.74,41.34-2.5,10.2-21.13,16.76-11.07,20.2l115.12,15.55c15.76,7.54,27.66,5.25,39.92-7.21,8.09-8.52,6.36-9.45,10-20.59,5.13-14.48,23.05-21.75,25.98-36.83,2.13-9.4.32-19.64-2.55-28.84Z"/>
    <path class="cls-36" d="M882.01,284.08s-33.72-29.08-84.98-36.37c-51.26-7.29-83.44,17.01-97.78,36.68-14.33,19.67-10.97,45.08-10.97,45.08,0,0-13.33.18-10.09-46.8,4.72-68.48,81.66-90.74,97.73-86.38,16.06,4.36,102.76,8.87,106.09,87.8Z"/>
    <path class="cls-25" d="M810.58,384.05s-8.28,39.88-4.73,70.1c.49,4.21,20.55,27.81,20.55,27.81l-41.39,6.67c-21.42-.48-75.57,8.66-93.32-3.32l-2.45-22.89s22.66-18.92,24.87-23.4c2.21-4.49,7.68-41.32,7.68-41.32"/>
    <path class="cls-7" d="M901.37,722.95c-20.56.43-51.33,21.05-71.65,24.22-21.09,3.29-41.76-10.75-62.84-7.46-21.08,3.29-42.29,5.8-63.57,7.37-31.22,2.31-57.41,8.08-88.34,2.23,1.89-5.55,1.27-13.08,2.66-18.62,3.71-14.77-4.81-34-11.83-48.7-20.24-42.34-8.81-68.75-3.75-76.72l45.92-131.54,59.84-30.48c-2.04,3.63-11.75,45.48,25.95,41.78,11.22-1.1,3.22.06,3.24.06,47.24-1.93,69.76-43.98,69.76-43.98l76.74,32.02,6.32,219.05s5,12.58,11.53,30.77Z"/>
    <path class="cls-29" d="M589.23,855.23c2.88-26.53,12.55-62.48,19.28-89.24,1.83-7.29,7.12-32.67,8.05-40.77,9.7,3.76,11.8,4.18,21.82,7.01,83.02,23.43,170.25,15.64,255.57,14.4,11.63,33.07,26.36,79.69,27.46,106.5,2.25,54.92.82,528.59.14,583.53-.07,5.24-74.15,13.22-81.67,13.97-28.21,2.8-56.63,3.57-84.95,2.33-55.67-2.45-109.35-15.45-163.51-26.44-.9-44.38-1.67-116.11-2.4-160.49-1.42-86.62-2.66-173.24-3.22-259.87-.24-37.41-.39-74.83-.04-112.25.21-23.29,1.03-16.15,3.48-38.67Z"/>
    <path class="cls-7" d="M694.71,454.99s-68.95,21.92-78.91,43.11c-15.13,32.18-40.22,134.66-40.22,134.66l55.6,11.73,63.53-189.49Z"/>
    <path class="cls-30" d="M715.8,432.39s8.68.72,14.83.53c6.15-.18,15.91,2.62,48.14-13.75,0,0-14.83,26.31-50.16,23.91,0,0-9.2-.36-14.59-3.18l1.78-7.52Z"/>
    <g>
      <path class="cls-25" d="M725.23,241.59c12.37.14,34.24,5.89,46.08,9.53,11.43,3.52,13.83,5.55,25.48,8.31,2.3.54,14.85,19.12,15.3,17.35,6.89,3.32,19.66,1.79,19.66,1.79,9.55,10.45-12.1,52.85-13.42,58.94-1.32,6.09,1.9,8.35,1.9,8.35,2.12-1.99,3.22,5.05,4.68,2.63,1.41-2.1,1.16-5.12,2.58-7.22,3.98-4.68,10.78-1.96,14.15,1.89l.48,1.17c4.25,8.16-5.23,29.96-10.3,36.08-3.35,13.56-16.6,18.86-21.82,7.85l-2.76,5.06-24.12,23.54c-16.15,11.86-46.1,21.82-67.78,17.36-7.77-1.6-15.06-3.69-18.98-14.24-3.96-10.67-8.54-15.48-13.12-25.53-4.4-9.64-6.07-15.46-6.99-25.98-.94-10.88-.46-13.63,2.4-23.87,1.28-4.58,2.79-11.58,3.18-16.11.46-5.23,1.03-21.96,2.56-33.98.59-4.62,3.35-14.58,5.97-20.15,11.08-24.74,17.57-32.95,34.86-32.75Z"/>
      <path class="cls-25" d="M728.99,253.2c-.14.07-.29.13-.44.2.18-.17.35-.34.49-.53l-.05.32Z"/>
      <path class="cls-25" d="M713.73,253.79c-.25.17-.52.33-.8.48l.04-.27s.81-.54.76-.21Z"/>
    </g>
    <g>
      <path class="cls-17" d="M717.46,370.78c2.39,1.76,6.4,2.07,9.27.86.64-.27,2.52.38,1.62.76-3.79,1.59-9.51.89-12.59-1.38-.31-.23-.21-.47.23-.54.46-.08,1.14.06,1.46.3"/>
      <path class="cls-17" d="M729.6,371.84c1.88-.55,3.9-.67,5.88-.52.29.02.64.19.82.41.14.17.15.37-.09.46-.98.37-2.16.41-3.22.22-.33-.06-.76-.21-.9-.52-.13-.29.21-.41.47-.37.87.15,1.79.12,2.6-.19.25.29.49.58.74.87-1.77-.14-3.58-.01-5.26.48-.33.1-.77-.07-1.02-.28-.19-.16-.37-.48-.03-.58"/>
      <path class="cls-17" d="M737.32,373.3c2.3.3,5.14-.27,6.53-1.8,2.1-2.32,1.16-6.66-1.43-8.76-.28-.23-.08-.44.24-.45.42-.02.89.2,1.18.44,2.26,1.83,3.35,5.44,2.59,7.81-.71,2.21-3.14,3.45-5.98,3.68-.84.07-1.73.06-2.59-.05-.35-.05-.95-.25-1.08-.54-.13-.3.21-.37.53-.33"/>
      <path class="cls-17" d="M713.46,368.97c.16-.24-.04-.45-.22-.47-.62-.08-1.22-.35-1.68-.86-.24.21-.48.43-.72.64,1.22.33,2.39.93,3.38,1.83.2.18.53.14.75,0,.17-.1.37-.36.17-.54"/>
      <path class="cls-17" d="M715.14,369.57c-1.11-1.02-2.43-1.67-3.79-2.03-.2-.05-.48.01-.66.18-.14.13-.19.32-.06.47"/>
      <path class="cls-17" d="M708.66,368.53c-1.48-.29-3.07-1.55-3.53-3.38-.7-2.76.81-5.67,2.93-7.03.23-.15.16-.4-.04-.5-.25-.13-.59-.03-.83.13-1.84,1.19-3.26,3.36-3.4,5.82-.13,2.3,1.05,4.11,2.72,5.04.5.28,1.04.5,1.59.61.22.04.65,0,.8-.25.15-.26-.03-.41-.24-.45"/>
    </g>
    <path class="cls-37" d="M700.51,321.96c-1.8-1.32-4.45-.89-5.91.04-.34.22-1.05.94-1.62,2.17-.74,1.57-.38,3.53.48,4.83,1.14,1.73,3.4,2.35,5.29,1.8,2.57-.74,3.79-3.49,3.53-5.68-.05-.4-.31-2.09-1.76-3.16"/>
    <path class="cls-37" d="M716.96,331.23s-8.35-8.99-13.14-10.24c-7-1.82-16.37.74-19.44,3.87,0,0,12.51-4.07,17.4-2.64,4.68,1.36,15.18,9.01,15.18,9.01Z"/>
    <path class="cls-37" d="M759.71,332c2.11-.71,5.22.07,6.32,1.4.26.31.95,1.2,1.13,2.55.23,1.72-.72,3.48-1.93,4.45-1.61,1.3-3.95,1.2-5.58.1-2.22-1.49-2.54-4.49-1.62-6.49.17-.37-.1-1.17,1.61-1.74"/>
    <path class="cls-37" d="M746.52,335.3s11.83-5.15,17.15-4.48c7.76.99,16.26,6.95,18.18,11.04,0,0-11.11-8.57-16.59-9.12-5.24-.52-18.74,2.55-18.74,2.55Z"/>
    <path class="cls-8" d="M720.09,305.08c-.36,1.41-.73,2.83-1.09,4.25-.28,1.08-.56,2.16-.84,3.23-3.38-1.83-6.32-3.2-8.56-4.18-4.72-2.08-7.15-3.12-10.14-3.36-3.14-.26-5.98.22-7.08.41-1.55.27-2.59.43-3.91.95-2.87,1.14-4.37,2.87-4.72,2.59-.32-.25.71-1.84.82-2,2.63-3.99,6.68-5.72,6.99-5.87,0,0,3.06-1.36,7.44-1.37,3.02,0,11,1.46,21.1,5.35"/>
    <path class="cls-8" d="M748.47,308.25c-.12,1.45-.23,2.91-.34,4.37-.08,1.11-.17,2.22-.25,3.33,4.11-.6,7.62-.93,10.27-1.11,5.59-.39,8.44-.57,11.61.19,3.32.8,6.09,2.19,7.16,2.74,1.51.77,2.52,1.26,3.7,2.2,2.57,2.03,3.51,4.16,3.97,4.02.42-.13-.1-1.97-.15-2.16-1.33-4.64-4.91-7.62-5.18-7.86,0,0-2.68-2.3-7.19-3.76-3.11-1.01-11.84-2.27-23.6-1.95"/>
    <path class="cls-17" d="M819.52,365.88c2.51-3.5,5.18-6.92,8.26-9.94,1.66-1.63,3.46-3.2,5.52-4.31.82-.44,1.75-.88,2.7-.94.1,0,.35.02.3,0-.2-.12-.04-.02,0,.13.09.32.25.63.35.96,1.19,3.9.25,8.15-1.39,11.76-.12.27.46.23.55.03,1.59-3.5,2.51-7.49,1.6-11.3-.14-.59-.27-1.91-1.04-1.95-.88-.04-1.81.32-2.58.68-1.94.88-3.67,2.24-5.24,3.66-3.65,3.29-6.72,7.21-9.57,11.19-.16.23.42.2.55.03h0Z"/>
    <path class="cls-17" d="M821.53,368.31c5.6.82-2.76,11.5.7,12.01.8.12,1.49-.8,1.89-1.35,1.11-1.53,1.89-3.33,2.6-5.07,1.04-2.57,1.76-4.89,1.92-7.64.17-2.95-.01-6.78-2.71-8.61-.17-.12-.7.13-.46.3,2.42,1.64,2.7,5.07,2.62,7.73-.06,1.92-.32,3.76-.94,5.58-.24.7-3.74,9.66-4.91,8.51-.63-.62-.07-2.17.13-2.85.35-1.21.81-2.39,1.17-3.59.61-2.04,1.17-4.94-1.65-5.35-.2-.03-.69.29-.35.34h0Z"/>
    <path class="cls-28" d="M709.24,281.65s14.51,5.3,26.59,8.34c12.08,3.04,25.4-.27,25.4-.27,0,0-15.29,1.08-24.86-1.27s-27.13-6.8-27.13-6.8Z"/>
    <path class="cls-8" d="M807.47,273.29c1.13-1.97.7-4.78-2.14-5.24-10.83-1.76-21.87-3.41-31.6-8.78-3.9-2.15-7.56-4.68-11.72-6.33-4.58-1.81-9.19-2.07-14.06-2.15-11.27-.17-21.78-.5-32.53-4.3-1.81-.64-3.6-1.33-5.38-2.04,3.75-3.4,6.67-7.23,10.65-10.41,4.09-3.27,8.01-6.17,12.27-9.21.25-.18,4.24.66,4.49.48.05-.03.21-.15.27-.19.14-.09.27-.19.41-.28.32-.22.63-.43.95-.64,20.76-3.71,43.74.55,62.73,11.73,36.89,21.72,49.18,69.23,27.46,106.11-1.86,3.16-.81,7.78-4.61,8.9-3.8,1.12-3.02,2.76-5.66-.2-2.45-3.12-1.61-12.12-2.42-16-4.72-18.51-4.04-42.51,4.2-59.74-1.84,1.77-7.92-.22-13.29-1.72Z"/>
    <path class="cls-39" d="M847.09,354.38s44.45-18.09,37.29-51c-1.38-6.32-2.13-4.54-1.1-9.46,5.43-25.76,12.87-17.48-17.22-56.56-30.09-39.08-35.72-39.92-93.9-49.7-30.01-5.04-49.16,3.31-61.8,20-5.68,7.5-10.04,16.69-13.48,27.11,0,0,64.43-2.38,95.53,25.77,31.1,28.14,53.28,100.34,40.67,118.64-3.54,5.14,14.01-24.8,14.01-24.8Z"/>
    <path class="cls-36" d="M877.21,332.14s-32.81-86.99-100.36-106c0,0,86.35,11.67,108.82,80.91l-1.18,7.2c-.74,4.48-2.24,8.8-4.44,12.78l-2.83,5.12Z"/>
    <path class="cls-12" d="M624.06,527.13c-.71,2.96-1.33,5.95-1.87,8.96-.42,2.31-.79,4.64-.98,6.98-.05.69-.01,1.4-.1,2.08-.03.25.05-.06-.09.28-1.67,4.03-4.09,7.82-6.13,11.67-8.38,15.83-16.14,32.25-20.87,49.58-2.65,9.71-4.43,19.96-3.21,30.03l1.72-1.01c-5.43-1.22-10.87-2.44-16.3-3.66l.47.63c1.76-5.68,3.52-11.36,5.28-17.04l-1.48.86c3.9.79,7.8,1.58,11.69,2.38,1.04.21,2.2-1.25.76-1.54-3.9-.79-7.8-1.58-11.69-2.38-.61-.12-1.3.29-1.48.86-1.76,5.68-3.52,11.36-5.28,17.04-.09.28.23.57.47.63,5.43,1.22,10.87,2.44,16.3,3.66.66.15,1.82-.13,1.72-1.01-1.09-8.96.33-18.12,2.5-26.82,2.36-9.48,5.79-18.67,9.66-27.62,3.32-7.69,7.02-15.21,10.91-22.63,2.25-4.29,4.79-8.49,6.82-12.9.19-.4.38-.82.45-1.26.17-1.11.1-2.3.23-3.42.14-1.23.32-2.46.52-3.68.59-3.64,1.33-7.26,2.2-10.84.25-1.02-1.97-.75-2.2.18h0Z"/>
    <path class="cls-34" d="M723.28,384.06c11.19,1.49,29.49,2.65,29.49,2.65,0,0-7.78,27.5-33.72,24.05-25.94-3.45-20.62-31.88-20.62-31.88,0,0,13.67,3.69,24.85,5.18Z"/>
    <path class="cls-20" d="M723.17,384.05c5.32.71,25.21,2.65,25.21,2.65,0,0-8.97,16.13-28.21,13.57-20.86-2.77-19.17-20.48-19.17-20.48l22.17,4.25Z"/>
    <path class="cls-10" d="M722.84,384.77c5.32.71,21.62,2.01,21.62,2.01,0,0-6.56,4.77-22.52,2.64-15.96-2.12-20.31-8.18-20.31-8.18l21.21,3.53Z"/>
    <path class="cls-34" d="M697.16,378.57c.58-.06,1.16.3,3.83.44,4.45.23,5.74-.85,8.96-.66,5.5.33,8.69,2.83,11.05,3.14s6.1-1.27,11.49-.15c3.16.66,10.91,2.81,15.26,3.76,2.61.57,5.84,0,6.39.21.76.29-1.49,5.57-31.26,1.61-29.76-3.96-26.54-8.27-25.73-8.35Z"/>
    <path class="cls-35" d="M895.86,715.08s-174.09,49.7-280.04,10.13c0,0-26.97,636.11,179.09,690.84,0,0,90.42,10.39,126.87-7.1,0,0,23.05-454.93-.13-564.13-23.18-109.2-25.79-129.75-25.79-129.75Z"/>
    <g class="cls-14">
      <path class="cls-29" d="M886.04,955.55c5.81,5.07,8.46,11.32,9.59,16.98,1.13-5.66,3.78-11.9,9.59-16.98,14.38-12.56,31.63,20.78,14.86,18.84-16.77-1.93-24.44,13.53-24.44,13.53,0,0,0-.03,0-.03,0,0,0,.03,0,.03,0,0-7.67-15.46-24.44-13.53-16.77,1.93.48-31.41,14.86-18.84Z"/>
      <path class="cls-4" d="M886.04,923.19c5.81,5.07,8.46,11.32,9.59,16.98,1.13-5.66,3.78-11.9,9.59-16.98,14.38-12.56,31.63,20.78,14.86,18.84-16.77-1.93-24.44,13.53-24.44,13.53,0,0,0-.03,0-.03,0,0,0,.03,0,.03,0,0-7.67-15.46-24.44-13.53-16.77,1.93.48-31.41,14.86-18.84Z"/>
      <ellipse class="cls-6" cx="895.59" cy="906.85" rx="4.01" ry="4.04"/>
      <path class="cls-29" d="M886.02,774.99c5.81,5.07,8.46,11.32,9.59,16.98,1.13-5.66,3.78-11.9,9.59-16.98,14.38-12.56,31.63,20.78,14.86,18.84-16.77-1.93-24.44,13.53-24.44,13.53,0,0,0-.03,0-.03,0,0,0,.03,0,.03,0,0-7.67-15.46-24.44-13.53-16.77,1.93.48-31.41,14.86-18.84Z"/>
      <path class="cls-4" d="M886.02,742.62c5.81,5.07,8.46,11.32,9.59,16.98,1.13-5.66,3.78-11.9,9.59-16.98,14.38-12.56,31.63,20.78,14.86,18.84-16.77-1.93-24.44,13.53-24.44,13.53,0,0,0-.03,0-.03,0,0,0,.03,0,.03,0,0-7.67-15.46-24.44-13.53-16.77,1.93.48-31.41,14.86-18.84Z"/>
      <ellipse class="cls-6" cx="895.57" cy="816.05" rx="4.01" ry="4.04"/>
      <path class="cls-29" d="M905.16,857.68c-5.81-5.07-8.46-11.32-9.59-16.98-1.13,5.66-3.78,11.9-9.59,16.98-14.38,12.56-31.63-20.78-14.86-18.84,16.77,1.93,24.44-13.53,24.44-13.53,0,0,0,.03,0,.03,0,0,0-.03,0-.03,0,0,7.67,15.46,24.44,13.53,16.77-1.93-.48,31.41-14.86,18.84Z"/>
      <path class="cls-4" d="M905.16,890.62c-5.81-5.07-8.46-11.32-9.59-16.98-1.13,5.66-3.78,11.9-9.59,16.98-14.38,12.56-31.63-20.78-14.86-18.84,16.77,1.93,24.44-13.53,24.44-13.53,0,0,0,.03,0,.03,0,0,0-.03,0-.03,0,0,7.67,15.46,24.44,13.53,16.77-1.93-.48,31.41-14.86,18.84Z"/>
      <ellipse class="cls-6" cx="895.61" cy="816.62" rx="4.01" ry="4.04"/>
      <ellipse class="cls-6" cx="895.57" cy="726.29" rx="4.01" ry="4.04"/>
      <path class="cls-29" d="M954.83,924.55c5.81,5.07,8.46,11.32,9.59,16.98,1.13-5.66,3.78-11.9,9.59-16.98,14.38-12.56,31.63,20.78,14.86,18.84-16.77-1.93-24.44,13.53-24.44,13.53,0,0,0-.03,0-.03,0,0,0,.03,0,.03,0,0-7.67-15.46-24.44-13.53-16.77,1.93.48-31.41,14.86-18.84Z"/>
      <path class="cls-4" d="M954.83,892.18c5.81,5.07,8.46,11.32,9.59,16.98,1.13-5.66,3.78-11.9,9.59-16.98,14.38-12.56,31.63,20.78,14.86,18.84-16.77-1.93-24.44,13.53-24.44,13.53,0,0,0-.03,0-.03,0,0,0,.03,0,.03,0,0-7.67-15.46-24.44-13.53-16.77,1.93.48-31.41,14.86-18.84Z"/>
      <ellipse class="cls-6" cx="964.38" cy="965.61" rx="4.01" ry="4.04"/>
      <path class="cls-29" d="M973.97,1007.23c-5.81-5.07-8.46-11.32-9.59-16.98-1.13,5.66-3.78,11.9-9.59,16.98-14.38,12.56-31.63-20.78-14.86-18.84,16.77,1.93,24.44-13.53,24.44-13.53,0,0,0,.03,0,.03,0,0,0-.03,0-.03,0,0,7.67,15.46,24.44,13.53,16.77-1.93-.48,31.41-14.86,18.84Z"/>
      <ellipse class="cls-6" cx="964.42" cy="966.18" rx="4.01" ry="4.04"/>
      <ellipse class="cls-6" cx="964.38" cy="875.85" rx="4.01" ry="4.04"/>
      <path class="cls-29" d="M954.81,743.98c5.81,5.07,8.46,11.32,9.59,16.98,1.13-5.66,3.78-11.9,9.59-16.98,14.38-12.56,31.63,20.78,14.86,18.84-16.77-1.93-24.44,13.53-24.44,13.53,0,0,0-.03,0-.03,0,0,0,.03,0,.03,0,0-7.67-15.46-24.44-13.53-16.77,1.93.48-31.41,14.86-18.84Z"/>
      <path class="cls-4" d="M954.81,711.62c5.81,5.07,8.46,11.32,9.59,16.98,1.13-5.66,3.78-11.9,9.59-16.98,14.38-12.56,31.63,20.78,14.86,18.84-16.77-1.93-24.44,13.53-24.44,13.53,0,0,0-.03,0-.03,0,0,0,.03,0,.03,0,0-7.67-15.46-24.44-13.53-16.77,1.93.48-31.41,14.86-18.84Z"/>
      <ellipse class="cls-6" cx="964.36" cy="785.04" rx="4.01" ry="4.04"/>
      <path class="cls-29" d="M973.95,826.67c-5.81-5.07-8.46-11.32-9.59-16.98-1.13,5.66-3.78,11.9-9.59,16.98-14.38,12.56-31.63-20.78-14.86-18.84,16.77,1.93,24.44-13.53,24.44-13.53,0,0,0,.03,0,.03,0,0,0-.03,0-.03,0,0,7.67,15.46,24.44,13.53,16.77-1.93-.48,31.41-14.86,18.84Z"/>
      <path class="cls-4" d="M973.95,859.61c-5.81-5.07-8.46-11.32-9.59-16.98-1.13,5.66-3.78,11.9-9.59,16.98-14.38,12.56-31.63-20.78-14.86-18.84,16.77,1.93,24.44-13.53,24.44-13.53,0,0,0,.03,0,.03,0,0,0-.03,0-.03,0,0,7.67,15.46,24.44,13.53,16.77-1.93-.48,31.41-14.86,18.84Z"/>
      <ellipse class="cls-6" cx="964.4" cy="785.61" rx="4.01" ry="4.04"/>
      <ellipse class="cls-6" cx="964.36" cy="695.28" rx="4.01" ry="4.04"/>
      <path class="cls-29" d="M817.26,924.55c5.81,5.07,8.46,11.32,9.59,16.98,1.13-5.66,3.78-11.9,9.59-16.98,14.38-12.56,31.63,20.78,14.86,18.84-16.77-1.93-24.44,13.53-24.44,13.53,0,0,0-.03,0-.03,0,0,0,.03,0,.03,0,0-7.67-15.46-24.44-13.53-16.77,1.93.48-31.41,14.86-18.84Z"/>
      <path class="cls-4" d="M817.26,892.18c5.81,5.07,8.46,11.32,9.59,16.98,1.13-5.66,3.78-11.9,9.59-16.98,14.38-12.56,31.63,20.78,14.86,18.84-16.77-1.93-24.44,13.53-24.44,13.53,0,0,0-.03,0-.03,0,0,0,.03,0,.03,0,0-7.67-15.46-24.44-13.53-16.77,1.93.48-31.41,14.86-18.84Z"/>
      <ellipse class="cls-6" cx="826.81" cy="965.61" rx="4.01" ry="4.04"/>
      <path class="cls-29" d="M836.4,1007.23c-5.81-5.07-8.46-11.32-9.59-16.98-1.13,5.66-3.78,11.9-9.59,16.98-14.38,12.56-31.63-20.78-14.86-18.84,16.77,1.93,24.44-13.53,24.44-13.53,0,0,0,.03,0,.03,0,0,0-.03,0-.03,0,0,7.67,15.46,24.44,13.53,16.77-1.93-.48,31.41-14.86,18.84Z"/>
      <ellipse class="cls-6" cx="826.85" cy="966.18" rx="4.01" ry="4.04"/>
      <ellipse class="cls-6" cx="826.81" cy="875.85" rx="4.01" ry="4.04"/>
      <path class="cls-29" d="M817.24,743.98c5.81,5.07,8.46,11.32,9.59,16.98,1.13-5.66,3.78-11.9,9.59-16.98,14.38-12.56,31.63,20.78,14.86,18.84-16.77-1.93-24.44,13.53-24.44,13.53,0,0,0-.03,0-.03,0,0,0,.03,0,.03,0,0-7.67-15.46-24.44-13.53-16.77,1.93.48-31.41,14.86-18.84Z"/>
      <path class="cls-4" d="M817.24,711.62c5.81,5.07,8.46,11.32,9.59,16.98,1.13-5.66,3.78-11.9,9.59-16.98,14.38-12.56,31.63,20.78,14.86,18.84-16.77-1.93-24.44,13.53-24.44,13.53,0,0,0-.03,0-.03,0,0,0,.03,0,.03,0,0-7.67-15.46-24.44-13.53-16.77,1.93.48-31.41,14.86-18.84Z"/>
      <ellipse class="cls-6" cx="826.79" cy="785.04" rx="4.01" ry="4.04"/>
      <path class="cls-29" d="M836.38,826.67c-5.81-5.07-8.46-11.32-9.59-16.98-1.13,5.66-3.78,11.9-9.59,16.98-14.38,12.56-31.63-20.78-14.86-18.84,16.77,1.93,24.44-13.53,24.44-13.53,0,0,0,.03,0,.03,0,0,0-.03,0-.03,0,0,7.67,15.46,24.44,13.53,16.77-1.93-.48,31.41-14.86,18.84Z"/>
      <path class="cls-4" d="M836.38,859.61c-5.81-5.07-8.46-11.32-9.59-16.98-1.13,5.66-3.78,11.9-9.59,16.98-14.38,12.56-31.63-20.78-14.86-18.84,16.77,1.93,24.44-13.53,24.44-13.53,0,0,0,.03,0,.03,0,0,0-.03,0-.03,0,0,7.67,15.46,24.44,13.53,16.77-1.93-.48,31.41-14.86,18.84Z"/>
      <ellipse class="cls-6" cx="826.83" cy="785.61" rx="4.01" ry="4.04"/>
      <ellipse class="cls-6" cx="826.79" cy="695.28" rx="4.01" ry="4.04"/>
      <path class="cls-29" d="M748.39,957.66c5.81,5.07,8.46,11.32,9.59,16.98,1.13-5.66,3.78-11.9,9.59-16.98,14.38-12.56,31.63,20.78,14.86,18.84-16.77-1.93-24.44,13.53-24.44,13.53,0,0,0-.03,0-.03,0,0,0,.03,0,.03,0,0-7.67-15.46-24.44-13.53-16.77,1.93.48-31.41,14.86-18.84Z"/>
      <path class="cls-4" d="M748.39,925.29c5.81,5.07,8.46,11.32,9.59,16.98,1.13-5.66,3.78-11.9,9.59-16.98,14.38-12.56,31.63,20.78,14.86,18.84-16.77-1.93-24.44,13.53-24.44,13.53,0,0,0-.03,0-.03,0,0,0,.03,0,.03,0,0-7.67-15.46-24.44-13.53-16.77,1.93.48-31.41,14.86-18.84Z"/>
      <ellipse class="cls-6" cx="757.93" cy="908.96" rx="4.01" ry="4.04"/>
      <path class="cls-29" d="M748.36,777.09c5.81,5.07,8.46,11.32,9.59,16.98,1.13-5.66,3.78-11.9,9.59-16.98,14.38-12.56,31.63,20.78,14.86,18.84-16.77-1.93-24.44,13.53-24.44,13.53,0,0,0-.03,0-.03,0,0,0,.03,0,.03,0,0-7.67-15.46-24.44-13.53-16.77,1.93.48-31.41,14.86-18.84Z"/>
      <path class="cls-4" d="M748.36,744.72c5.81,5.07,8.46,11.32,9.59,16.98,1.13-5.66,3.78-11.9,9.59-16.98,14.38-12.56,31.63,20.78,14.86,18.84-16.77-1.93-24.44,13.53-24.44,13.53,0,0,0-.03,0-.03,0,0,0,.03,0,.03,0,0-7.67-15.46-24.44-13.53-16.77,1.93.48-31.41,14.86-18.84Z"/>
      <ellipse class="cls-6" cx="757.91" cy="818.15" rx="4.01" ry="4.04"/>
      <path class="cls-29" d="M767.5,859.78c-5.81-5.07-8.46-11.32-9.59-16.98-1.13,5.66-3.78,11.9-9.59,16.98-14.38,12.56-31.63-20.78-14.86-18.84,16.77,1.93,24.44-13.53,24.44-13.53,0,0,0,.03,0,.03,0,0,0-.03,0-.03,0,0,7.67,15.46,24.44,13.53,16.77-1.93-.48,31.41-14.86,18.84Z"/>
      <path class="cls-4" d="M767.5,892.72c-5.81-5.07-8.46-11.32-9.59-16.98-1.13,5.66-3.78,11.9-9.59,16.98-14.38,12.56-31.63-20.78-14.86-18.84,16.77,1.93,24.44-13.53,24.44-13.53,0,0,0,.03,0,.03,0,0,0-.03,0-.03,0,0,7.67,15.46,24.44,13.53,16.77-1.93-.48,31.41-14.86,18.84Z"/>
      <ellipse class="cls-6" cx="757.96" cy="818.72" rx="4.01" ry="4.04"/>
      <ellipse class="cls-6" cx="757.91" cy="728.39" rx="4.01" ry="4.04"/>
      <path class="cls-29" d="M679.61,926.65c5.81,5.07,8.46,11.32,9.59,16.98,1.13-5.66,3.78-11.9,9.59-16.98,14.38-12.56,31.63,20.78,14.86,18.84-16.77-1.93-24.44,13.53-24.44,13.53,0,0,0-.03,0-.03,0,0,0,.03,0,.03,0,0-7.67-15.46-24.44-13.53-16.77,1.93.48-31.41,14.86-18.84Z"/>
      <path class="cls-4" d="M679.61,894.28c5.81,5.07,8.46,11.32,9.59,16.98,1.13-5.66,3.78-11.9,9.59-16.98,14.38-12.56,31.63,20.78,14.86,18.84-16.77-1.93-24.44,13.53-24.44,13.53,0,0,0-.03,0-.03,0,0,0,.03,0,.03,0,0-7.67-15.46-24.44-13.53-16.77,1.93.48-31.41,14.86-18.84Z"/>
      <ellipse class="cls-6" cx="689.15" cy="967.71" rx="4.01" ry="4.04"/>
      <path class="cls-29" d="M698.75,1009.34c-5.81-5.07-8.46-11.32-9.59-16.98-1.13,5.66-3.78,11.9-9.59,16.98-14.38,12.56-31.63-20.78-14.86-18.84,16.77,1.93,24.44-13.53,24.44-13.53,0,0,0,.03,0,.03,0,0,0-.03,0-.03,0,0,7.67,15.46,24.44,13.53,16.77-1.93-.48,31.41-14.86,18.84Z"/>
      <ellipse class="cls-6" cx="689.2" cy="968.28" rx="4.01" ry="4.04"/>
      <ellipse class="cls-6" cx="689.15" cy="877.95" rx="4.01" ry="4.04"/>
      <path class="cls-29" d="M679.58,746.09c5.81,5.07,8.46,11.32,9.59,16.98,1.13-5.66,3.78-11.9,9.59-16.98,14.38-12.56,31.63,20.78,14.86,18.84-16.77-1.93-24.44,13.53-24.44,13.53,0,0,0-.03,0-.03,0,0,0,.03,0,.03,0,0-7.67-15.46-24.44-13.53-16.77,1.93.48-31.41,14.86-18.84Z"/>
      <path class="cls-4" d="M679.58,713.72c5.81,5.07,8.46,11.32,9.59,16.98,1.13-5.66,3.78-11.9,9.59-16.98,14.38-12.56,31.63,20.78,14.86,18.84-16.77-1.93-24.44,13.53-24.44,13.53,0,0,0-.03,0-.03,0,0,0,.03,0,.03,0,0-7.67-15.46-24.44-13.53-16.77,1.93.48-31.41,14.86-18.84Z"/>
      <ellipse class="cls-6" cx="689.13" cy="787.14" rx="4.01" ry="4.04"/>
      <path class="cls-29" d="M698.72,828.77c-5.81-5.07-8.46-11.32-9.59-16.98-1.13,5.66-3.78,11.9-9.59,16.98-14.38,12.56-31.63-20.78-14.86-18.84,16.77,1.93,24.44-13.53,24.44-13.53,0,0,0,.03,0,.03,0,0,0-.03,0-.03,0,0,7.67,15.46,24.44,13.53,16.77-1.93-.48,31.41-14.86,18.84Z"/>
      <path class="cls-4" d="M698.72,861.71c-5.81-5.07-8.46-11.32-9.59-16.98-1.13,5.66-3.78,11.9-9.59,16.98-14.38,12.56-31.63-20.78-14.86-18.84,16.77,1.93,24.44-13.53,24.44-13.53,0,0,0,.03,0,.03,0,0,0-.03,0-.03,0,0,7.67,15.46,24.44,13.53,16.77-1.93-.48,31.41-14.86,18.84Z"/>
      <ellipse class="cls-6" cx="689.18" cy="787.71" rx="4.01" ry="4.04"/>
      <ellipse class="cls-6" cx="689.13" cy="697.39" rx="4.01" ry="4.04"/>
      <path class="cls-29" d="M608.46,957.75c5.81,5.07,8.46,11.32,9.59,16.98,1.13-5.66,3.78-11.9,9.59-16.98,14.38-12.56,31.63,20.78,14.86,18.84-16.77-1.93-24.44,13.53-24.44,13.53,0,0,0-.03,0-.03,0,0,0,.03,0,.03,0,0-7.67-15.46-24.44-13.53-16.77,1.93.48-31.41,14.86-18.84Z"/>
      <path class="cls-4" d="M608.46,925.38c5.81,5.07,8.46,11.32,9.59,16.98,1.13-5.66,3.78-11.9,9.59-16.98,14.38-12.56,31.63,20.78,14.86,18.84-16.77-1.93-24.44,13.53-24.44,13.53,0,0,0-.03,0-.03,0,0,0,.03,0,.03,0,0-7.67-15.46-24.44-13.53-16.77,1.93.48-31.41,14.86-18.84Z"/>
      <ellipse class="cls-6" cx="618.01" cy="909.05" rx="4.01" ry="4.04"/>
      <path class="cls-29" d="M608.44,777.19c5.81,5.07,8.46,11.32,9.59,16.98,1.13-5.66,3.78-11.9,9.59-16.98,14.38-12.56,31.63,20.78,14.86,18.84-16.77-1.93-24.44,13.53-24.44,13.53,0,0,0-.03,0-.03,0,0,0,.03,0,.03,0,0-7.67-15.46-24.44-13.53-16.77,1.93.48-31.41,14.86-18.84Z"/>
      <path class="cls-4" d="M608.44,744.82c5.81,5.07,8.46,11.32,9.59,16.98,1.13-5.66,3.78-11.9,9.59-16.98,14.38-12.56,31.63,20.78,14.86,18.84-16.77-1.93-24.44,13.53-24.44,13.53,0,0,0-.03,0-.03,0,0,0,.03,0,.03,0,0-7.67-15.46-24.44-13.53-16.77,1.93.48-31.41,14.86-18.84Z"/>
      <ellipse class="cls-6" cx="617.99" cy="818.24" rx="4.01" ry="4.04"/>
      <path class="cls-29" d="M627.58,859.87c-5.81-5.07-8.46-11.32-9.59-16.98-1.13,5.66-3.78,11.9-9.59,16.98-14.38,12.56-31.63-20.78-14.86-18.84,16.77,1.93,24.44-13.53,24.44-13.53,0,0,0,.03,0,.03,0,0,0-.03,0-.03,0,0,7.67,15.46,24.44,13.53,16.77-1.93-.48,31.41-14.86,18.84Z"/>
      <path class="cls-4" d="M627.58,892.81c-5.81-5.07-8.46-11.32-9.59-16.98-1.13,5.66-3.78,11.9-9.59,16.98-14.38,12.56-31.63-20.78-14.86-18.84,16.77,1.93,24.44-13.53,24.44-13.53,0,0,0,.03,0,.03,0,0,0-.03,0-.03,0,0,7.67,15.46,24.44,13.53,16.77-1.93-.48,31.41-14.86,18.84Z"/>
      <ellipse class="cls-6" cx="618.03" cy="818.81" rx="4.01" ry="4.04"/>
      <ellipse class="cls-6" cx="617.99" cy="728.49" rx="4.01" ry="4.04"/>
      <path class="cls-29" d="M538.35,920.51c5.81,5.07,8.46,11.32,9.59,16.98,1.13-5.66,3.78-11.9,9.59-16.98,14.38-12.56,31.63,20.78,14.86,18.84-16.77-1.93-24.44,13.53-24.44,13.53,0,0,0-.03,0-.03,0,0,0,.03,0,.03,0,0-7.67-15.46-24.44-13.53-16.77,1.93.48-31.41,14.86-18.84Z"/>
      <path class="cls-4" d="M538.35,888.14c5.81,5.07,8.46,11.32,9.59,16.98,1.13-5.66,3.78-11.9,9.59-16.98,14.38-12.56,31.63,20.78,14.86,18.84-16.77-1.93-24.44,13.53-24.44,13.53,0,0,0-.03,0-.03,0,0,0,.03,0,.03,0,0-7.67-15.46-24.44-13.53-16.77,1.93.48-31.41,14.86-18.84Z"/>
      <ellipse class="cls-6" cx="547.9" cy="961.57" rx="4.01" ry="4.04"/>
      <path class="cls-29" d="M557.49,1003.2c-5.81-5.07-8.46-11.32-9.59-16.98-1.13,5.66-3.78,11.9-9.59,16.98-14.38,12.56-31.63-20.78-14.86-18.84,16.77,1.93,24.44-13.53,24.44-13.53,0,0,0,.03,0,.03,0,0,0-.03,0-.03,0,0,7.67,15.46,24.44,13.53,16.77-1.93-.48,31.41-14.86,18.84Z"/>
      <ellipse class="cls-6" cx="547.94" cy="962.14" rx="4.01" ry="4.04"/>
      <ellipse class="cls-6" cx="547.9" cy="871.81" rx="4.01" ry="4.04"/>
      <path class="cls-29" d="M538.33,739.95c5.81,5.07,8.46,11.32,9.59,16.98,1.13-5.66,3.78-11.9,9.59-16.98,14.38-12.56,31.63,20.78,14.86,18.84-16.77-1.93-24.44,13.53-24.44,13.53,0,0,0-.03,0-.03,0,0,0,.03,0,.03,0,0-7.67-15.46-24.44-13.53-16.77,1.93.48-31.41,14.86-18.84Z"/>
      <path class="cls-4" d="M538.33,707.58c5.81,5.07,8.46,11.32,9.59,16.98,1.13-5.66,3.78-11.9,9.59-16.98,14.38-12.56,31.63,20.78,14.86,18.84-16.77-1.93-24.44,13.53-24.44,13.53,0,0,0-.03,0-.03,0,0,0,.03,0,.03,0,0-7.67-15.46-24.44-13.53-16.77,1.93.48-31.41,14.86-18.84Z"/>
      <ellipse class="cls-6" cx="547.88" cy="781" rx="4.01" ry="4.04"/>
      <path class="cls-29" d="M557.47,822.63c-5.81-5.07-8.46-11.32-9.59-16.98-1.13,5.66-3.78,11.9-9.59,16.98-14.38,12.56-31.63-20.78-14.86-18.84,16.77,1.93,24.44-13.53,24.44-13.53,0,0,0,.03,0,.03,0,0,0-.03,0-.03,0,0,7.67,15.46,24.44,13.53,16.77-1.93-.48,31.41-14.86,18.84Z"/>
      <path class="cls-4" d="M557.47,855.57c-5.81-5.07-8.46-11.32-9.59-16.98-1.13,5.66-3.78,11.9-9.59,16.98-14.38,12.56-31.63-20.78-14.86-18.84,16.77,1.93,24.44-13.53,24.44-13.53,0,0,0,.03,0,.03,0,0,0-.03,0-.03,0,0,7.67,15.46,24.44,13.53,16.77-1.93-.48,31.41-14.86,18.84Z"/>
      <ellipse class="cls-6" cx="547.92" cy="781.58" rx="4.01" ry="4.04"/>
      <ellipse class="cls-6" cx="547.88" cy="691.25" rx="4.01" ry="4.04"/>
      <path class="cls-29" d="M470.61,952.45c5.81,5.07,8.46,11.32,9.59,16.98,1.13-5.66,3.78-11.9,9.59-16.98,14.38-12.56,31.63,20.78,14.86,18.84-16.77-1.93-24.44,13.53-24.44,13.53,0,0,0-.03,0-.03,0,0,0,.03,0,.03,0,0-7.67-15.46-24.44-13.53-16.77,1.93.48-31.41,14.86-18.84Z"/>
      <path class="cls-4" d="M470.61,920.08c5.81,5.07,8.46,11.32,9.59,16.98,1.13-5.66,3.78-11.9,9.59-16.98,14.38-12.56,31.63,20.78,14.86,18.84-16.77-1.93-24.44,13.53-24.44,13.53,0,0,0-.03,0-.03,0,0,0,.03,0,.03,0,0-7.67-15.46-24.44-13.53-16.77,1.93.48-31.41,14.86-18.84Z"/>
      <ellipse class="cls-6" cx="480.16" cy="993.5" rx="4.01" ry="4.04"/>
      <ellipse class="cls-6" cx="480.21" cy="994.07" rx="4.01" ry="4.04"/>
      <ellipse class="cls-6" cx="480.16" cy="903.75" rx="4.01" ry="4.04"/>
      <path class="cls-29" d="M470.59,771.88c5.81,5.07,8.46,11.32,9.59,16.98,1.13-5.66,3.78-11.9,9.59-16.98,14.38-12.56,31.63,20.78,14.86,18.84-16.77-1.93-24.44,13.53-24.44,13.53,0,0,0-.03,0-.03,0,0,0,.03,0,.03,0,0-7.67-15.46-24.44-13.53-16.77,1.93.48-31.41,14.86-18.84Z"/>
      <path class="cls-4" d="M470.59,739.51c5.81,5.07,8.46,11.32,9.59,16.98,1.13-5.66,3.78-11.9,9.59-16.98,14.38-12.56,31.63,20.78,14.86,18.84-16.77-1.93-24.44,13.53-24.44,13.53,0,0,0-.03,0-.03,0,0,0,.03,0,.03,0,0-7.67-15.46-24.44-13.53-16.77,1.93.48-31.41,14.86-18.84Z"/>
      <ellipse class="cls-6" cx="480.14" cy="812.94" rx="4.01" ry="4.04"/>
      <path class="cls-29" d="M489.73,854.57c-5.81-5.07-8.46-11.32-9.59-16.98-1.13,5.66-3.78,11.9-9.59,16.98-14.38,12.56-31.63-20.78-14.86-18.84,16.77,1.93,24.44-13.53,24.44-13.53,0,0,0,.03,0,.03,0,0,0-.03,0-.03,0,0,7.67,15.46,24.44,13.53,16.77-1.93-.48,31.41-14.86,18.84Z"/>
      <path class="cls-4" d="M489.73,887.51c-5.81-5.07-8.46-11.32-9.59-16.98-1.13,5.66-3.78,11.9-9.59,16.98-14.38,12.56-31.63-20.78-14.86-18.84,16.77,1.93,24.44-13.53,24.44-13.53,0,0,0,.03,0,.03,0,0,0-.03,0-.03,0,0,7.67,15.46,24.44,13.53,16.77-1.93-.48,31.41-14.86,18.84Z"/>
      <ellipse class="cls-6" cx="480.18" cy="813.51" rx="4.01" ry="4.04"/>
      <ellipse class="cls-6" cx="480.14" cy="723.18" rx="4.01" ry="4.04"/>
      <path class="cls-29" d="M400.5,915.21c5.81,5.07,8.46,11.32,9.59,16.98,1.13-5.66,3.78-11.9,9.59-16.98,14.38-12.56,31.63,20.78,14.86,18.84-16.77-1.93-24.44,13.53-24.44,13.53,0,0,0-.03,0-.03,0,0,0,.03,0,.03,0,0-7.67-15.46-24.44-13.53-16.77,1.93.48-31.41,14.86-18.84Z"/>
      <path class="cls-4" d="M400.5,882.84c5.81,5.07,8.46,11.32,9.59,16.98,1.13-5.66,3.78-11.9,9.59-16.98,14.38-12.56,31.63,20.78,14.86,18.84-16.77-1.93-24.44,13.53-24.44,13.53,0,0,0-.03,0-.03,0,0,0,.03,0,.03,0,0-7.67-15.46-24.44-13.53-16.77,1.93.48-31.41,14.86-18.84Z"/>
      <ellipse class="cls-6" cx="410.05" cy="956.27" rx="4.01" ry="4.04"/>
      <path class="cls-29" d="M419.64,997.89c-5.81-5.07-8.46-11.32-9.59-16.98-1.13,5.66-3.78,11.9-9.59,16.98-14.38,12.56-31.63-20.78-14.86-18.84,16.77,1.93,24.44-13.53,24.44-13.53,0,0,0,.03,0,.03,0,0,0-.03,0-.03,0,0,7.67,15.46,24.44,13.53,16.77-1.93-.48,31.41-14.86,18.84Z"/>
      <ellipse class="cls-6" cx="410.09" cy="956.84" rx="4.01" ry="4.04"/>
      <ellipse class="cls-6" cx="410.05" cy="866.51" rx="4.01" ry="4.04"/>
      <path class="cls-29" d="M400.48,734.64c5.81,5.07,8.46,11.32,9.59,16.98,1.13-5.66,3.78-11.9,9.59-16.98,14.38-12.56,31.63,20.78,14.86,18.84-16.77-1.93-24.44,13.53-24.44,13.53,0,0,0-.03,0-.03,0,0,0,.03,0,.03,0,0-7.67-15.46-24.44-13.53-16.77,1.93.48-31.41,14.86-18.84Z"/>
      <path class="cls-4" d="M400.48,702.28c5.81,5.07,8.46,11.32,9.59,16.98,1.13-5.66,3.78-11.9,9.59-16.98,14.38-12.56,31.63,20.78,14.86,18.84-16.77-1.93-24.44,13.53-24.44,13.53,0,0,0-.03,0-.03,0,0,0,.03,0,.03,0,0-7.67-15.46-24.44-13.53-16.77,1.93.48-31.41,14.86-18.84Z"/>
      <ellipse class="cls-6" cx="410.03" cy="775.7" rx="4.01" ry="4.04"/>
      <path class="cls-29" d="M419.62,817.33c-5.81-5.07-8.46-11.32-9.59-16.98-1.13,5.66-3.78,11.9-9.59,16.98-14.38,12.56-31.63-20.78-14.86-18.84,16.77,1.93,24.44-13.53,24.44-13.53,0,0,0,.03,0,.03,0,0,0-.03,0-.03,0,0,7.67,15.46,24.44,13.53,16.77-1.93-.48,31.41-14.86,18.84Z"/>
      <path class="cls-4" d="M419.62,850.27c-5.81-5.07-8.46-11.32-9.59-16.98-1.13,5.66-3.78,11.9-9.59,16.98-14.38,12.56-31.63-20.78-14.86-18.84,16.77,1.93,24.44-13.53,24.44-13.53,0,0,0,.03,0,.03,0,0,0-.03,0-.03,0,0,7.67,15.46,24.44,13.53,16.77-1.93-.48,31.41-14.86,18.84Z"/>
      <ellipse class="cls-6" cx="410.07" cy="776.27" rx="4.01" ry="4.04"/>
      <ellipse class="cls-6" cx="410.03" cy="685.94" rx="4.01" ry="4.04"/>
    </g>
    <path class="cls-25" d="M881.25,997.53c6.12-7.48,12.86-14.56,20.16-21.19l6.19-24.4-4.75-11.69-7.01.36s.7,31.28-4.67,36.97c-5.37,5.69-8.34,5.89-8.34,5.89l-5.42-6.78,3.97-46.51s5.12-20.04,6.99-24.69c2.4-4.52,6.37-10.99,9.55-15.14l.31-12.64,39.13-5.16c-1.03,6.42.42,13.45-1.22,20.79l4.4,49.45-10.49,21.91-14.01,19.82-35.67,23.5s-5.46-1.88.9-10.49Z"/>
    <path class="cls-25" d="M850.53,574.44l-8.56-117.98s53.92,6.47,72.47,39.25c32.86,69.07,49.12,171.71,50.03,205.72,1,37.52-21.45,137.64-30.84,193.92l-40.38-4.18-6.25-98.26c-.76-11.88-.65-23.81.32-35.68l3.6-44.17-40.39-138.61Z"/>
    <path class="cls-7" d="M813.16,443.78c16.36,4.25,59.81,17.68,74.83,25.43,13.02,6.71,25.71,16.55,33.06,29.48,8.82,15.52,43.45,96.26,43.45,96.26-3.88,17.26-87.88,38.32-105.32,41.31-15.51,2.66-35.8-30.83-40.5-53.19-6.55-31.14-6.83-63.58-.82-94.83"/>
    <path class="cls-12" d="M870.25,489.92c-7.65,5.89-16.09,11.9-21.1,20.37-4.83,8.17-5.9,18.44-5.78,27.76.13,10.01,2.04,20.02,4.08,29.79,2.42,11.59,5.35,23.06,8.42,34.49,2.63,9.79,5.41,19.53,7.99,29.33.25.93.49,1.86.73,2.8.07.28.72.2.9.16,15.7-3.1,31.37-6.81,46.67-11.5,11.68-3.59,22.99-8.3,33.88-13.85,4.85-2.47,9.73-5.12,14.05-8.45,1.4-1.08,2.77-2.24,3.91-3.59.53-.63,1.67-1.84,1.53-2.7-.06-.4-.38-.88-.54-1.25l-.98-2.26-2.53-5.86c-1.2-2.79-2.41-5.57-3.61-8.36-.24-.56-1.6.02-1.93.22-8.82,5.49-17.81,10.73-26.93,15.71-6.65,3.64-13.39,7.21-20.37,10.17-8.24,3.5-17.02,5.74-25.75,7.7-6.02,1.35-12.1,2.55-18.21,3.45-.28.04-1.24.25-1.26.63-.03.41.64.31.89.28,5.25-.77,10.46-1.79,15.65-2.89,9.15-1.95,18.39-4.17,27.11-7.6,6.97-2.75,13.67-6.21,20.26-9.75s13.29-7.37,19.82-11.23c3.51-2.07,7.01-4.17,10.47-6.32l-1.93.22c2.35,5.45,4.71,10.9,7.06,16.34.3.7.79,1.26.42,1.93-.74,1.32-1.77,2.42-2.88,3.44-3.57,3.26-7.9,5.72-12.13,8-10.73,5.8-22.08,10.74-33.7,14.45-10.05,3.2-20.29,5.81-30.56,8.22-5.99,1.4-12,2.75-18.04,3.94l.9.16c-5.28-20.59-11.48-40.93-16.09-61.7-2.24-10.09-4.31-20.35-4.97-30.69-.32-4.93-.12-9.87.46-14.77.55-4.58,1.51-9.15,3.38-13.38,4.46-10.05,13.94-16.78,22.39-23.28.89-.69-1.26-.47-1.68-.14h0Z"/>
    <path class="cls-29" d="M614.66,727.5c16.68,13.02,11.21,22.05,14.65,44.95,3.65,24.3,4.91,66.75,7.83,91.72,6.31,53.91,38.38,103.49,44.69,157.4-25.25-28.51-41.11-69.02-49.66-111-8.55-41.98-10.33-85.74-11.26-129.14-.41-18.98-.72-38.37-5.74-56.21"/>
    <path class="cls-29" d="M617.21,726.17c8.46,3.85,26.37,18.43,30.38,27.06,3.06,6.57,12.54,15.68,14.04,22.8,2.94,13.97,6.78,27.74,11.49,41.19,3.47,9.91,7.49,19.79,13.88,27.99,4.46,5.72,9.95,10.47,15.4,15.18,3.46,2.99,6.92,5.97,10.37,8.96-9.6,2.28-19.66-.87-28.49-5.42-5.64-2.9-11.11-6.49-15.04-11.59-3.85-5.02-5.99-11.19-7.88-17.3-3.05-9.88-5.64-19.91-7.76-30.05-5.07-24.35-22.2-61.91-38.95-79.77"/>
    <path class="cls-12" d="M805.71,441.32c-2.85,4.65-6.42,8.95-10.08,12.97-8.26,9.1-17.99,17.05-29,22.58-6.61,3.32-13.66,5.73-20.96,6.96-7.42,1.24-15.4,1.53-22.76-.24-4.78-1.15-9.43-3.44-12.52-7.36-2.48-3.15-3.75-7.03-4.2-10.97-.8-7.05.85-13.96,2.39-20.79.11-.5.22-1,.32-1.5.07-.36-1.76.19-1.91.29-2.21,1.36-4.5,2.65-6.65,4.1-.51.34-.64.7-.9,1.25-1.26,2.67-2.23,5.48-2.93,8.34-2.34,9.57-1.1,19.84,6.34,26.89,5.62,5.33,13.31,8,20.76,9.51,9.56,1.95,19.24,2.04,28.79-.01,17.52-3.77,33.32-13.35,46.95-24.72,5.3-4.42,10.33-9.17,15.06-14.19,2.41-2.56,4.93-5.16,7.04-7.98.09-.13.2-.25.3-.37.04-.07.02-.12-.04-.16-4.63-1.72-9.26-3.44-13.9-5.16-.43-.16-.98,0-1.39.15-.08.03-.98.45-.66.57,2.51.93,5.02,1.87,7.53,2.8l4.73,1.76c.42.15.88.41,1.31.49.31.06.23.18.26-.02-.03.19-.43.54-.54.68-.4.49-.81.98-1.22,1.46-1.42,1.67-2.88,3.31-4.37,4.92-11.19,12.06-24.1,22.92-38.65,30.7-8.78,4.69-18.31,8.23-28.23,9.39s-21.21-.1-30.8-3.88c-6.34-2.5-12.26-6.56-15.49-12.72-2.41-4.59-3.08-9.86-2.59-14.98.38-4,1.43-7.94,2.92-11.67.38-.95.89-1.85,1.25-2.81.13-.35.27-.35,0-.16,1.18-.81,2.45-1.51,3.66-2.26,1.04-.64,2.07-1.28,3.11-1.92l-1.91.29c-1.29,6.73-3.2,13.23-2.88,20.18.19,4.06,1.12,8.15,3.32,11.61,2.59,4.07,6.69,6.77,11.21,8.28,6.8,2.27,14.3,2.33,21.37,1.67,7.72-.72,15.31-2.67,22.48-5.62,12.2-5.01,23.08-12.94,32.28-22.32,3.25-3.31,6.31-6.81,9.13-10.49.92-1.19,1.81-2.4,2.67-3.64.43-.62,1.09-1.33,1.36-2.04.04-.09.11-.18.16-.26.19-.31-.78-.18-.86-.16-.37.07-1.06.21-1.28.57Z"/>
    <path class="cls-9" d="M825.8,351.04l.53-4.23-41.76-18.96h0c-14.68-8.39-37.27-7.33-51.24-1.08l-11.31-1.09.13-.16c-11.64-11.53-33.13-16.2-50.9-11.07l.18,1.81h0c-.01.11.06.38.1.76l.18,1.58c1.04,10.06,2.41,20.75,4.74,23.85,1.57,2.09,7.47,3.86,12.39,4.99,1.85.44,3.56.78,4.79,1.02,1.48.27,14.59,2.7,17.1.99,2.51-1.72,8.56-16.4,10.36-21.05l11.58,1.17c.9,3.96,1.46,20.51,6.57,24.61,5.12,4.1,34.06,7.06,37.31,3.47,2.31-2.57,9.26-12.05,11.46-17.12l3.42-6.44,34.36,16.96ZM709.63,347.72c-2.7,1.6-28.85-2.95-31.56-6.56-2.29-3.05-3.77-17.41-4.33-22.8l.03-.21c15.75-3.76,35.12.42,45.28,10.21-3.27,8.01-7.84,18.24-9.41,19.31v.05ZM773.34,355.96c-2.04,2.27-27.49.77-32.77-3.45-3.67-2.93-4.27-15.06-5.17-22.08,13.62-5.87,39.72-5.43,52.63,2.94-3.75,7.95-9.11,17.16-14.69,22.59h0Z"/>
    <g>
      <path class="cls-21" d="M267.95,515.89c-13.92,0-25.28-11.4-25.28-25.41s11.36-25.37,25.28-25.37,25.28,11.4,25.28,25.41-11.32,25.41-25.28,25.41v-.04ZM267.95,471.28c-10.54,0-19.12,8.63-19.12,19.21s8.59,19.21,19.12,19.21,19.12-8.63,19.12-19.21-8.59-19.21-19.12-19.21Z"/>
      <path class="cls-32" d="M342.79,558.91c-3.82-.61-14.66-.78-22.85.35-22.07,2.99-41.45,15.57-44.53,17.65h-1.26c-3.08-1.99-22.89-14.35-45.01-17.3-9.19-1.21-15.26-1.17-19.25-1.13h-3.43c-.82,0-1.47.65-1.52,1.47,0,.82.61,1.56,1.47,1.6h3.51c3.95,0,9.89-.09,18.86,1.13,22.85,3.04,43.93,16.95,44.14,17.08l.39.26h3.12l.39-.26c.22-.13,20.81-14.31,43.62-17.39,7.94-1.08,18.34-.91,21.98-.35.82.13,1.6-.43,1.73-1.26s-.43-1.6-1.26-1.73h0l-.13-.13Z"/>
      <g>
        <path class="cls-32" d="M269.03,581.24c-6.29-3.51-19.86-10.06-37.03-12.53-23.98-3.43-31.26-1.04-31.26-1.04l10.62,36.08s27.79-5.98,57.67,9.67v-32.17h0Z"/>
        <path class="cls-32" d="M318.72,568.1c-17.52,1.86-31.13,9.24-37.25,13.14v32.35c27.1-14.31,57.89-9.76,57.89-9.76l10.62-36.08s-7.2-2.21-31.26.39v-.04Z"/>
        <path class="cls-32" d="M277.92,583.54h-5.07s-.09-.04-.26-.17v31.09h5.33v-30.96h0v.04Z"/>
      </g>
      <g>
        <path class="cls-21" d="M279.74,495.73c-.22-.22-.56-.3-1.13-.26-.43.04-.87.39-1.26.69-.22.17-.43.35-.61.43-3.69,1.99-8.28,2.56-12.97,1.6-1.82-.39-3.51-1.21-5.07-2.04-.22-.13-.43-.26-.65-.43-.56-.39-1.17-.82-1.65-.39-.52.52-.65,1.39-.26,2.3.04.13.13.22.17.35.04.09.13.17.17.26,1.91,3.9,7.11,5.29,11.36,5.29h0c4.9,0,8.59-1.6,10.97-4.77.43-.56.74-1.21.91-1.86.09-.39.17-.91-.09-1.21l.09.04Z"/>
        <path class="cls-21" d="M257.24,489.88c.61.13,1.17-.09,1.6-.61v-.09c.48-.48.91-1,1.34-1.43.61-.52,1.08-.52,1.73,0,.52.43,1,1,1.3,1.43.39.48.87.74,1.39.74s.61-.09.87-.3c.35-.26.61-.61.65-1.04.09-.43,0-.87-.3-1.21-.56-.74-1.08-1.34-1.65-1.86-.91-.82-1.95-1.3-3.12-1.39h-.43c-.3.04-.61.09-.87.22-1.47.52-2.65,1.56-3.6,3.21-.22.39-.17.95-.13,1.13.13.61.56,1.04,1.21,1.13v.09Z"/>
        <path class="cls-21" d="M270.94,489.83c.13,0,.26.04.39.04.48,0,.91-.22,1.3-.65l.17-.22c.35-.43.74-.87,1.13-1.26.65-.56,1.17-.56,1.82,0,.48.39.91.91,1.26,1.39.17.22.39.43.69.56l-.26.13h.91c.61,0,1.08-.26,1.39-.78.3-.56.3-1.13,0-1.65-.69-1.13-1.56-1.95-2.51-2.56-1.17-.74-2.34-.91-3.43-.52-1.52.48-2.78,1.56-3.82,3.3-.13.22-.17.56-.13.87.09.65.48,1.13,1.17,1.3l-.09.04Z"/>
      </g>
      <path class="cls-21" d="M335.68,552.88h0c-3.6-8.5-10.06-15.35-18.08-19.17-3.64,5.07-9.54,8.37-16.22,8.37s-11.58-2.78-15.22-7.11c-9.58,5.51-16.52,15.52-18.34,27.36-18.47-10.8-39.24-12.92-44.53-13.27,2.04-12.01,9.06-23.63,19.56-32l3.12-2.51c1.43-1.13,1.65-3.21.52-4.64-1.13-1.43-3.21-1.65-4.64-.52l-3.12,2.51c-13.4,10.71-21.77,26.23-22.59,41.8,5.51.04,27.36,1.21,51.17,14.66h0c2.51,1.43,5.07,3.04,7.59,4.77,17.39-14.09,39.07-18.39,51.3-19.64h.35c5.51-.61,8.72-.43,9.15-.43,0,0,0-.09-.04-.13h0l.04-.04Z"/>
      <path class="cls-21" d="M301.34,505.96c-8.8,0-15.96,7.2-15.96,16s7.15,16,15.96,16,15.91-7.2,15.91-16-7.15-16-15.91-16h0ZM292.97,520.27c0-.22,0-.48.09-.65.56-.95,1.3-1.69,2.34-2.08.26-.09.56-.13.82-.17.78.04,1.47.35,1.99.87.39.39.78.78,1.08,1.26s.22,1-.22,1.3-.95.17-1.3-.26c-.26-.35-.56-.69-.91-1-.48-.39-.87-.39-1.34,0-.35.3-.65.65-.95,1.04-.26.3-.56.43-.91.35s-.61-.3-.69-.65h0ZM309.01,527.6c-.09.39-.3.74-.56,1.08-1.08,1.34-2.91,2.25-4.64,2.6-.87.17-1.78.26-2.65.39-2.08-.09-4.08-.52-5.77-1.73-.52-.39-.95-.91-1.39-1.39-.09-.09-.17-.22-.22-.35-.22-.48-.17-.95.13-1.21s.82.26,1.3.52c1.04.52,2.08,1,3.25,1.26,2.82.52,5.94.3,8.5-.95.35-.17.74-.65,1.13-.69.65-.09,1,0,.87.61h0l.04-.13ZM310.27,520.49c-.17.3-.43.43-.78.43s-.56-.17-.78-.43c-.26-.35-.56-.65-.87-.95-.48-.43-.91-.43-1.43,0-.35.3-.61.65-.91,1-.26.3-.61.48-1,.35-.39-.09-.61-.35-.69-.78,0-.17,0-.35.09-.52.61-1,1.34-1.78,2.47-2.17.78-.26,1.52-.09,2.21.35s1.21,1,1.65,1.69c.22.3.22.65,0,.95h0l.04.09Z"/>
    </g>
    <path class="cls-19" d="M525.58,275.36l.84-.79c7.49-7.09,15.23-14.41,22.75-21.81,6.54-6.43,11.28-13.01,14.48-20.11,6.14-13.61,3.65-28.08-6.49-37.77-9.73-9.29-26.75-12.57-39.14-.34-1.15,1.14-2.21,2.35-3.09,3.38l-.31.36-.31-.36c-1-1.16-2.08-2.41-3.3-3.59-4.84-4.72-10.27-7.27-16.13-7.59-.6-.03-1.19-.05-1.78-.05-9.08,0-17.52,3.8-23.38,10.59-6.34,7.34-8.83,17.16-6.84,26.94,1.46,7.18,4.94,14.01,10.94,21.49,6.84,8.52,15.02,16.04,22.23,22.67,3.77,3.47,7.56,6.9,11.46,10.44l7.38,6.7,1.91-1.82c2.94-2.8,5.87-5.58,8.8-8.35Z"/>
    <path class="cls-25" d="M585.39,645.24c-6.02,4.86,4.35,18.3,4.71,18.9-.66,2.68-1.58,5.31-2.7,7.86-6.37,14.46-12.86,48.38-26.14,40.13-30.21-18.78-78.2-165.61-69.06-139.7-24.29-98.85-9.21-13.97-9.21-13.97l37.85-10.58,64.55,97.36Z"/>
    <path class="cls-25" d="M528.84,567.98l-4.74-16.8s1.15-17.44-.3-23.24c-1.45-5.8-13.24-26.46-14.11-27.22-.87-.76-2.35-30.5-7.82-31.69-5.47-1.19-10.42,1.08-11.65,8.51-1.23,7.43,4.88,25.59.84,26.64-3.15.58-6.38.54-9.52-.11,0,0,1.65-8.46-1.69-12.68-3.34-4.23-10.64-2.26-10.64-2.26l-.74,3.71-2.77-5.59s1.64-17.63-5.21-20.19c-.26-4.07-1.36-8.04-3.22-11.67-1.84-2.96-5.73-3.88-8.69-2.04-.52.32-.99.72-1.4,1.18h0l-1.71,40.72,19.33,50.2s17.27,14.34,20.57,17.76l9.29,11.85,34.17-7.11Z"/>
    <path class="cls-28" d="M491.7,504.52c.01.1-.05.25-.06.28.05-.1-.2.21-.07.08-.24.23-.15.11-.03.04-.07.04-.27.11-.09.05.09-.03.19-.08.28-.11-.19.08-.17.05,0,0,.22-.06.43-.12.65-.17.14-.03-.14.02.13-.02.13-.02.27-.04.4-.06.26-.03.52-.06.78-.08.61-.03,1.23-.01,1.83.05,1.05.11,2.11.36,3.07.79.18.08.36.17.54.27.09.05.18.1.26.16-.1-.07.02.01.06.04.09.07.16.15.24.23-.02-.02-.04-.05-.02-.11-.2.63.9.67,1.25.63.58-.07,1.45-.36,1.65-.99.25-.8-1.14-1.41-1.67-1.64-1.48-.66-3.11-.98-4.73-1.08s-3.34.04-4.9.52c-.76.23-2.64.79-2.48,1.88.09.61,1.27.44,1.64.34.48-.13,1.34-.49,1.25-1.12h0Z"/>
    <path class="cls-28" d="M450.84,496.99c1.73-4.44,2.51-9.17,3.52-13.81,1.1-5.07,2.15-10.15,3.17-15.23l-1.59,1.2c.81-.01,1.55.25,2.34.4.84.15,1.59.17,2.34.64,1.39.87,2.19,2.65,2.63,4.17,1.03,3.52.58,7.76.03,11.34-1.13,7.32-3.13,14.51-3.78,21.9-.13,1.53,2.82,1.16,2.94-.2.74-8.35,3.47-16.4,4.14-24.75.3-3.79.42-8-1.42-11.44-.83-1.55-2.02-2.84-3.73-3.4-.82-.27-1.68-.31-2.53-.49-.92-.2-1.77-.35-2.73-.34-.7.01-1.45.5-1.59,1.2-.99,4.96-2.01,9.91-3.08,14.86-.99,4.57-1.74,9.24-3.44,13.61-.61,1.58,2.29,1.62,2.78.37h0Z"/>
    <path class="cls-28" d="M482.7,542.31c1.18-3.19.65-6.91.15-10.18-.63-4.02-1.72-7.95-3.21-11.74-.53-1.34-3.17-.67-2.9.78l.07.38c.25,1.32,2.86.71,2.92-.48.26-5.11,2.43-9.95,3.41-14.94s1.57-12.31-2.77-16.15c-2.21-1.96-5.37-2.61-8.25-2.44-1.09.07-2.55.17-3.56.69s-1.12,1.94-1.37,2.94c-1.53,6.09-3.03,12.19-4.48,18.3-.7,2.98-1.73,6.07-1.87,9.13-.08,1.69.09,3.43.48,5.08.23.96.6,2.19,1.87,2,.64-.1,1.53-.44,1.59-1.21.05-.7-.74-1.11-1.36-1.02h-.05c.33.09.66.17.99.26.19.14-.18-.95-.23-1.17-.18-.84-.31-1.71-.35-2.57-.09-1.66.09-3.33.51-4.94.65-2.5,1.19-5.04,1.79-7.56.7-2.94,1.42-5.88,2.14-8.81.4-1.63.81-3.26,1.21-4.9.37-1.47.63-3.03,1.18-4.44l-1.11.85c3.33-.78,7.12-.54,9.42,2.33s2.1,7,1.8,10.31c-.58,6.29-3.6,12.13-3.92,18.43l2.92-.48-.07-.38-2.9.78c1.38,3.49,2.41,7.11,3.06,10.81.54,3.1,1.25,6.9.12,9.94-.59,1.6,2.31,1.66,2.79.39h0Z"/>
    <path class="cls-28" d="M455.05,551.2l-.04.19"/>
    <path class="cls-28" d="M503.31,556.79c5.28,2.45,12.35,3.44,17.51.26,2.18-1.34,3.72-3.43,4.65-5.78.55-1.41-2.33-1.17-2.73-.17-1.34,3.42-3.86,5.69-7.38,6.03-2.73.27-5.56-.34-8.16-1.23-.26-.09-.53-.19-.79-.28-.05-.02-.33-.13-.18-.07s-.11-.05-.17-.07c-.16-.07-.32-.13-.47-.2-.64-.3-1.48-.17-2.06.23-.39.27-.87.97-.22,1.28h0Z"/>
  </g>
  <g class="cls-15">
    <polyline class="cls-22" points="2336.63 1078.6 2336.63 -78.51 800.31 -78.51 800.31 1078.6"/>
    <rect class="cls-33" x="772.56" y="918.6" width="1564.07" height="169.11"/>
  </g>
</svg>