<?xml version="1.0" encoding="UTF-8"?>
<svg xmlns="http://www.w3.org/2000/svg" xmlns:xlink="http://www.w3.org/1999/xlink" viewBox="0 0 249.7 190.99">
  <defs>
    <style>
      .cls-1 {
        fill: #b7b6b6;
      }

      .cls-2 {
        fill: #5e5f5f;
      }

      .cls-3 {
        fill: url(#linear-gradient-4);
      }

      .cls-4 {
        fill: url(#linear-gradient-3);
      }

      .cls-5 {
        fill: url(#linear-gradient-2);
      }

      .cls-6 {
        fill: #676868;
      }

      .cls-7 {
        fill: #8e8e8e;
      }

      .cls-8 {
        fill: url(#radial-gradient);
      }

      .cls-9 {
        fill: url(#linear-gradient);
      }

      .cls-10 {
        fill: #e0d6bd;
      }

      .cls-11 {
        fill: #afadaf;
      }

      .cls-12 {
        fill: #7a5c41;
      }

      .cls-13 {
        fill: #a5a4a4;
      }

      .cls-14 {
        fill: #9c7245;
      }

      .cls-15 {
        fill: #af804d;
      }

      .cls-16 {
        fill: #7a5d41;
      }

      .cls-17 {
        fill: #434343;
      }

      .cls-18 {
        fill: #4f504e;
      }

      .cls-19 {
        fill: #d3d3d3;
      }
    </style>
    <linearGradient id="linear-gradient" x1="125.16" y1="183.6" x2="123.58" y2="-12.88" gradientUnits="userSpaceOnUse">
      <stop offset="0" stop-color="#3868a3"/>
      <stop offset=".15" stop-color="#567ba5"/>
    </linearGradient>
    <linearGradient id="linear-gradient-2" x1="124.82" y1="178.37" x2="124.39" y2="-30.58" gradientUnits="userSpaceOnUse">
      <stop offset="0" stop-color="#3e89c7"/>
      <stop offset=".33" stop-color="#b1cae8"/>
    </linearGradient>
    <linearGradient id="linear-gradient-3" x1="121.58" y1="-75.17" x2="127.29" y2="165.52" gradientUnits="userSpaceOnUse">
      <stop offset=".42" stop-color="#75706b"/>
      <stop offset=".65" stop-color="#57504e"/>
    </linearGradient>
    <radialGradient id="radial-gradient" cx="111.33" cy="138.86" fx="89.65" fy="138.86" r="39.63" gradientTransform="translate(-2.11 -91.06) scale(1.02 1.66)" gradientUnits="userSpaceOnUse">
      <stop offset=".3" stop-color="#d67954"/>
      <stop offset=".67" stop-color="#dc985e"/>
      <stop offset=".95" stop-color="#e2ad65"/>
    </radialGradient>
    <linearGradient id="linear-gradient-4" x1="162.95" y1="114.59" x2="162.26" y2="181.13" gradientUnits="userSpaceOnUse">
      <stop offset="0" stop-color="#a2805f"/>
      <stop offset=".93" stop-color="#8c6743"/>
    </linearGradient>
  </defs>
  <g id="Layer_1" data-name="Layer 1">
    <path class="cls-9" d="M224.02,79.85l-198.69,1v86.01h.01c0,.07-.01.13-.01.2,0,8.32,33.34,14.95,77.36,16.75,7.26.3,16.76-.29,24.53-.29,8.42,0,13.61.61,21.41.26,43.03-1.92,75.39-8.52,75.39-16.72,0-.07-.01-.13-.01-.2h.01v-87.01Z"/>
    <path class="cls-5" d="M224.02,78.22H25.33v60.51h.01s-.01.1-.01.14c0,6.9,44.48,12.49,99.35,12.49s99.35-5.59,99.35-12.49c0-.05-.01-.1-.01-.14h.01v-60.51Z"/>
    <polygon class="cls-10" points="82.94 130.25 70.32 130.25 58.6 130.25 58.6 100.55 70.21 100.55 82.94 100.55 82.94 130.25"/>
    <path class="cls-4" d="M238.29,74.81c-1.48-1.07,4.6-.38,3.17-1.38-1.78-1.24-8.71-3.48-10.4-4.61-2.1-1.41-2.96-1.34-4.91-2.58,2.9.8,5.55,1.42,1.7-.51-7.58-3.8,9.9,4.07,2.02-1.02-3.45-2.23-5.02-2.96-9.85-5.78-1.2-.77-2.4-1.55-3.57-2.31,3.36.96-.43-1.62-6.62-5.3,2.5.8,5.9,1.72,1.36-.9-7.96-4.45-20.06-10.39-29.5-14.9-.38-.25-.79-.51-1.26-.8,0,0,13.49,4.2,4.02.08-4.18-1.8-11.58-5.3-18.54-8.64,2.09.69,3.21.84-.58-1.23-.64-.35-1.32-.72-2.01-1.09.4-.14.07-.58-1.6-1.5l-9.13-4.32c-11.21-6.05-22.65-12.17-22.65-12.17-1.36-.72-2.91-.52-3.97-.23-1.05-.25-2.48-.38-3.74.29,0,0-10.27,5.49-20.88,11.22l-10.9,5.15c-1.84,1.02-2.05,1.44-1.45,1.53-.74.4-1.46.8-2.15,1.17-3.33,1.82-2.87,1.92-1.29,1.45-6.74,3.23-13.79,6.56-17.83,8.3-9.47,4.12,4.02-.08,4.02-.08-.47.29-.88.55-1.26.8-9.44,4.52-21.55,10.45-29.5,14.9-4.81,2.78-.7,1.58,1.81.76-6.45,3.82-10.5,6.54-7.07,5.56-.58.38-1.17.76-1.76,1.14-4.39,2.54-6.65,3.06-10.16,5.24.29,0,.57,0,.86,0-1.39.88-2.69,1.7-3.84,2.42-6.86,4.27-2.79,3.85,3.82.14,2.1-1.18,2.24-1,1.61-.26-2.42,1.64-2.16.66-5.57,3.04-1.22.85-11.33,5.75-12.58,6.63-1.07.76,6.16-.24,5.1.52-2.39,1.71-4.63,3.27-6.65,4.81-7.69,5.85,3.5,2.08,7.06.37,3.56-1.7-10.51,6.76,5,1.25,0,0-5.68,3.8,3.66.22,9.34-3.58,4.23-.35.93,2.13-3.28,2.47-2.16,2.52,6.85-1.42,9.01-3.94-6.3,5.5,2.33,1.75,8.62-3.75,5.71-2.64,2.76.01-2.94,2.65,2.55,2.21,6.52.22,3.96-1.99-4.55,3.61,1.34.98,5.9-2.63,4.32-1.88,1.42.47-2.91,2.35,1.98.4,7.89-2.44,5.93-2.84-5.35,3.99,3.12.81,8.47-3.19,6.35-1.89,2.16.4-4.2,2.29,3.53.46,9.43-2.22,5.9-2.68-8.5,5.5,3.21.76,0,0,6.9-2.64,1.66.78-5.23,3.42-2.47,3.33,3.65.3,6.13-3.03,2.64-.11,2.64-.11-5.8,4.07-1.7,2.4,5.06-.4,6.75-2.8-7.25,5.14,3.67.88,10.91-4.27-6.24,5.09,5.46.44,11.7-4.64,7.81-3.17,4.8,0-3.02,3.16.23,1,7.31-2.17,0,0-5.34,5.34,2.7.54,8.03-4.8-4,4.98,2,1.53,6-3.45,5.62-3.26,4.17-.75-1.46,2.51-.99,3.22,3.06-.81,4.05-4.03-2.7,4.95,1.43,1.72,4.13-3.22,5.02-4.42,3.66-1.08-1.39,3.34.59,2.39,3.74-1.79,0,0-1.06,9.12,2.39,2.78,3.46-6.34,1.36-.45,1.88,1.11.53,1.57,3.15-1.41,4.48-4.44,0,0,.57,7.96,2.73,1.67,0,0,2.11,10.14,4.35-.74,0,0,1.96,9.02,4.29-.33,0,0,3.67,6.85,2.84.85,0,0,3.53,5.2,3.02.85,0,0,7,5.14,3.17-.27,0,0,7.17,5.18,2.53-.36,0,0,10.87,5.57,4.92.53-5.96-5.05,8.17,4.98,4.14.02-4.03-4.96-1.69-1.77,2.22-.06,3.93,1.71,8.33,3.91,3.88.01-4.45-3.9,13.02,5.97,7.05,1.08-5.97-4.89-1.5-1.15,2.71.42,4.21,1.57,4.57.97.21-1.53-4.36-2.51,3.9,1.27,7.75,1.5,3.85.23-6.59-4.39.21-1.47,6.8,2.92.99-1.04.99-1.04,0,0,10.72,4.48,6.69,1.53-4.02-2.95-1.16-1.59,4.11.33,5.27,1.93-1.11-2.01-1.11-2.01,0,0,13.31,5.78,7.52,1.67-5.81-4.11,8.57,2.07,5.65-.83-2.92-2.91-3.58-2.16,3.85.17,7.43,2.33-1.07-2.31-1.07-2.31,0,0,11.38,4.13,6.09.35-5.3-3.78-5.16-3.62,1.35-.25,6.53,3.37,2.68.22.23-1.64-2.46-1.85,3.16,1.63,6.37,2.39,3.22.76,1.44-.4-3.32-4-4.77-3.6,12.42,7.81,8.33,3.31-4.09-4.5-5.41-4.68.06-2.12,5.46,2.55,10.2,4.56,4.23-.33-5.97-4.89,19.3,10.39-1.64-4.71Z"/>
    <path class="cls-1" d="M112.81,11s13.69,3.28,27.73.07c0,0-12.72-7.17-14.11-7.28s-10.83,5.63-13.62,7.2Z"/>
    <g>
      <polygon class="cls-19" points="82.38 130.25 79.32 130.25 79.32 104.14 82.38 100.55 82.38 130.25"/>
      <path class="cls-11" d="M82.44,129.72h-3.06l.67.48v-25.6c0-.16,0-.32,0-.48,0-.01-.22.35-.04.13.16-.19.32-.37.48-.56l2.49-2.92-1.34-.16v29.7c0,.76,1.47.54,1.47-.11v-29.7c0-.69-1.03-.52-1.34-.16l-2.14,2.52c-.37.43-.93.89-1.04,1.45-.09.47,0,1.05,0,1.53v24.47c0,.38.35.48.67.48h3.06c.83,0,1.11-1.06.13-1.06Z"/>
    </g>
    <g>
      <polygon class="cls-19" points="58.61 130.25 61.8 130.25 61.8 104.14 58.61 100.55 58.61 130.25"/>
      <path class="cls-11" d="M58.54,130.78h3.19c.28,0,.8-.25.8-.59,0-3.94,0-7.87,0-11.81,0-4.64.23-9.33,0-13.96-.03-.6-.25-.8-.67-1.27-.87-.97-1.73-1.95-2.6-2.92-.33-.37-1.4-.23-1.4.37,0,8.67,0,17.33,0,26v3.7c0,.76,1.47.54,1.47-.11,0-8.67,0-17.33,0-26v-3.7c-.47.12-.93.25-1.4.37.72.81,1.44,1.62,2.16,2.43.32.37.69.72.99,1.11,0,0-.04-.38-.03-.02.05,1.6,0,3.21,0,4.81v16.69c0,1.47,0,2.94,0,4.41l.8-.59h-3.19c-.83,0-1.11,1.06-.13,1.06Z"/>
    </g>
    <g>
      <polygon class="cls-19" points="82.64 100.55 79.05 104.04 61.51 104.04 58.87 100.55 82.64 100.55"/>
      <path class="cls-11" d="M82.04,100.33l-3.59,3.49.67-.32h-17.54l.6.21c-.88-1.16-1.76-2.33-2.63-3.49l-.73.85h23.77c.83,0,1.11-1.06.13-1.06h-23.77c-.36,0-1.05.42-.73.85l1.8,2.38c.43.58.72,1.24,1.47,1.32,1.54.15,3.17,0,4.72,0h8.02c1.51,0,3.21.22,4.71,0,.77-.11,1.33-.91,1.86-1.42l2.45-2.39c.65-.63-.75-.88-1.21-.43Z"/>
    </g>
    <g>
      <polygon class="cls-19" points="58.87 130.25 62.46 127.48 78.81 127.48 82.64 130.25 58.87 130.25"/>
      <path class="cls-11" d="M59.35,130.58l2.07-1.6,1.12-.86c.66-.51.01-.03-.09-.11.2.15,1.14,0,1.38,0h2.87c2.36,0,4.72,0,7.09,0h3.07c.54,0,1.17.09,1.7,0,.02,0,.16.01.17,0-.07.17-.52-.34-.37-.04s.96.7,1.24.9l2.48,1.79.62-.95c-6.93,0-13.85,0-20.78,0-1,0-1.99,0-2.99,0-.83,0-1.11,1.06-.13,1.06,6.93,0,13.85,0,20.78,0,1,0,1.99,0,2.99,0,.42,0,1.15-.57.62-.95l-2.2-1.59c-.63-.45-1.33-1.2-2.12-1.29-1.26-.14-2.62,0-3.89,0h-7.5c-1.59,0-3.26-.16-4.84,0-.66.07-1.13.57-1.64.96l-2.6,2.01c-.78.6.39,1.11.96.66Z"/>
    </g>
    <path class="cls-13" d="M83,129.72h-24.34l.67.48v-29.7l-.8.59h24.34l-.67-.48v29.7c0,.76,1.47.54,1.47-.11v-29.7c0-.38-.35-.48-.67-.48h-24.34c-.28,0-.8.25-.8.59v29.7c0,.38.35.48.67.48h24.34c.83,0,1.11-1.06.13-1.06Z"/>
    <g>
      <line class="cls-19" x1="70.21" y1="104.1" x2="70.32" y2="127.48"/>
      <path class="cls-11" d="M69.48,104.29c.03,6.81.07,13.63.1,20.44v2.94c.02.2,1.47,0,1.46-.39-.03-6.81-.07-13.63-.1-20.44v-2.94c-.02-.2-1.47,0-1.46.39h0Z"/>
    </g>
    <path class="cls-6" d="M107.2,20.22c-1.2-.14-2.38.38-3.06,1.38-.19.28.38.24.49.19,1.17-.44,2.34-.89,3.52-1.33l-.51-.14c-.51,1.37-1.02,2.73-1.53,4.1-.09.25.42.18.51.14,1.86-.95,3.72-1.9,5.57-2.85l-.51-.14c-.2,1.53-.41,3.06-.61,4.58-.04.32.55.16.66.04,1.37-1.49,2.74-2.98,4.1-4.47l-.66.02c.43,1.91.85,3.82,1.28,5.73.06.29.61.08.7-.08,1.06-1.67,2.31-3.19,3.74-4.56l-.63.07c.57,1,1.15,1.99,1.72,2.99.13.23.57.01.68-.13,1.74-2.24,3.49-4.47,5.23-6.71l-.68.13c1.26,2.1,2.51,4.19,3.77,6.29.14.23.63,0,.7-.19.54-1.63,1.08-3.26,1.62-4.89l-.7.19c1.41,1.16,2.81,2.32,4.22,3.48.17.14.67.09.7-.19.14-1.27.11-2.55-.08-3.81l-.65.29c1.75,1.08,3.5,2.15,5.25,3.23.16.1.63.01.65-.23.09-1.19-.06-2.36-.46-3.48l-.58.31c1.89.44,3.69,1.14,5.37,2.11.23.13.89-.19.57-.38-1.72-.99-3.57-1.71-5.51-2.16-.15-.03-.67.06-.58.31.39,1.09.55,2.21.46,3.37l.65-.23c-1.75-1.08-3.5-2.15-5.25-3.23-.18-.11-.69.01-.65.29.19,1.23.22,2.46.08,3.69l.7-.19c-1.41-1.16-2.81-2.32-4.22-3.48-.2-.16-.61-.07-.7.19-.54,1.63-1.08,3.26-1.62,4.89l.7-.19c-1.26-2.1-2.51-4.19-3.77-6.29-.13-.22-.57-.01-.68.13-1.74,2.24-3.49,4.47-5.23,6.71l.68-.13c-.57-1-1.15-1.99-1.72-2.99-.11-.2-.52-.04-.63.07-1.46,1.4-2.75,2.96-3.83,4.67l.7-.08c-.43-1.91-.85-3.82-1.28-5.73-.06-.26-.55-.1-.66.02-1.37,1.49-2.74,2.98-4.1,4.47l.66.04c.2-1.53.41-3.06.61-4.58.03-.25-.39-.2-.51-.14-1.86.95-3.72,1.9-5.57,2.85l.51.14c.51-1.37,1.02-2.73,1.53-4.1.1-.25-.43-.17-.51-.14-1.17.44-2.34.89-3.52,1.33l.49.19c.49-.71,1.25-1.07,2.11-.97.31.04.76-.4.27-.46h0Z"/>
    <path class="cls-2" d="M92.69,31.89c-3.05,1.32-5.95,2.98-8.64,4.94-.18.13-.17.32.09.32,3.61-.02,7.2-.58,10.64-1.68l-.28-.3c-1.62,1.17-3,2.6-4.08,4.29-.17.27.37.21.48.16,2.94-1.29,5.88-2.58,8.83-3.88l-.51-.11c-.5,2.13-1,4.26-1.5,6.39-.07.3.56.1.65.02,1.61-1.42,3.21-2.83,4.82-4.25l-.65.03c.48,2.28.95,4.56,1.43,6.84.05.25.55.05.65-.03,2.69-2.17,5.16-4.59,7.39-7.23l-.7.09c.12,2.04.24,4.07.37,6.11.02.25.56.04.65-.03,1.5-1.25,2.8-2.71,3.86-4.35l-.7.09c.82,2.01,1.63,4.02,2.45,6.03.1.23.61.09.7-.09,1.33-2.51,2.65-5.02,3.98-7.53l-.7.09c.29,2.3,1.27,4.44,2.83,6.16.16.18.63.02.7-.19.79-2.38,1.86-4.64,3.21-6.76l-.67.13c1,1.32,2,2.65,3,3.97.15.2.63,0,.7-.19.62-1.67,1.24-3.35,1.87-5.02l-.7.19c1.12,1.86,2.23,3.72,3.35,5.59.11.18.6.02.67-.13,1.11-2.23,1.99-4.56,2.62-6.97l-.65.22c2.28,1.14,4.41,2.53,6.36,4.18.15.13.68.06.7-.19.1-1.73.2-3.46.3-5.19l-.58.24c2.49.57,4.88,1.45,7.14,2.63.14.07.74-.02.65-.27-.46-1.36-.93-2.72-1.39-4.08l-.65.27c3.33,1.45,6.66,2.91,10,4.36.16.07.79-.05.62-.32-.7-1.12-1.21-2.33-1.54-3.61l-.5.31c1.64-.03,3.23.24,4.76.84.22.09.88-.24.58-.36-1.62-.63-3.32-.94-5.05-.91-.13,0-.56.09-.5.31.35,1.31.88,2.54,1.6,3.7l.62-.32c-3.33-1.45-6.66-2.91-10-4.36-.14-.06-.74.01-.65.27.46,1.36.93,2.72,1.39,4.08l.65-.27c-2.3-1.2-4.74-2.1-7.27-2.68-.15-.03-.57.03-.58.24-.1,1.73-.2,3.46-.3,5.19l.7-.19c-1.98-1.67-4.14-3.1-6.46-4.25-.18-.09-.59,0-.65.22-.61,2.37-1.47,4.67-2.57,6.86l.67-.13c-1.12-1.86-2.23-3.72-3.35-5.59-.13-.21-.63.01-.7.19-.62,1.67-1.24,3.35-1.87,5.02l.7-.19c-1-1.32-2-2.65-3-3.97-.14-.18-.58-.02-.67.13-1.36,2.15-2.45,4.45-3.26,6.87l.7-.19c-1.54-1.7-2.49-3.79-2.78-6.07-.03-.26-.63-.05-.7.09-1.33,2.51-2.65,5.02-3.98,7.53l.7-.09c-.82-2.01-1.63-4.02-2.45-6.03-.1-.25-.6-.07-.7.09-1.04,1.6-2.3,3.02-3.77,4.25l.65-.03c-.12-2.04-.24-4.07-.37-6.11-.02-.28-.62,0-.7.09-2.2,2.61-4.64,4.99-7.3,7.13l.65-.03c-.48-2.28-.95-4.56-1.43-6.84-.05-.25-.55-.06-.65.03-1.61,1.42-3.21,2.83-4.82,4.25l.65.02c.5-2.13,1-4.26,1.5-6.39.06-.24-.41-.15-.51-.11-2.94,1.29-5.88,2.58-8.83,3.88l.48.16c1.02-1.6,2.31-2.98,3.85-4.09.31-.22-.02-.38-.28-.3-3.32,1.06-6.77,1.62-10.26,1.63l.09.32c2.64-1.93,5.48-3.56,8.47-4.86.46-.2.04-.45-.29-.31h0Z"/>
    <path class="cls-18" d="M66.03,43.47c-3.67,1.17-7.03,3.13-9.83,5.79-.1.1-.09.25.07.27,3.44.53,6.92.19,10.2-.96l-.48-.17c-.75,1.01-1.5,2.01-2.24,3.02-.2.27.39.21.48.17,2.46-.96,4.93-1.91,7.39-2.87l-.48-.17c-1.21,2.23-2.41,4.46-3.62,6.69-.15.28.36.23.48.17,2.76-1.25,5.51-2.51,8.27-3.76l-.51-.12c-.49,1.5-.99,2.99-1.48,4.49-.08.24.42.16.51.12,2.41-1.2,4.82-2.41,7.24-3.61l-.51-.12c-.29,1.72-.59,3.45-.88,5.17-.05.29.48.13.59.07,2.31-1.28,4.47-2.78,6.49-4.47l-.65.03c.4,1.91.48,3.85.23,5.79-.03.27.48.16.59.07,2.87-2.17,5.73-4.34,8.6-6.52l-.59-.07c0,2.06,0,4.11-.01,6.17,0,.33.59.12.7-.03,1.16-1.66,2.62-3.07,4.32-4.16l-.59-.02c.31,1.59.63,3.19.94,4.78.04.22.49.1.59.02,3.13-2.38,6.27-4.75,9.4-7.13l-.59-.02c.62,1.86.81,3.79.57,5.73-.03.28.48.15.59.07,1.28-.88,2.38-1.97,3.26-3.25l-.63.17c1.5.92,2.85,2.04,4.04,3.34.16.18.55.03.67-.13,1.2-1.58,2.13-3.31,2.8-5.18.09-.25-.64-.17-.73.09-.66,1.82-1.59,3.52-2.76,5.06l.67-.13c-1.22-1.32-2.61-2.46-4.14-3.41-.18-.11-.52,0-.63.17-.82,1.2-1.83,2.23-3.03,3.05l.59.07c.25-1.97.06-3.95-.57-5.84-.07-.21-.47-.11-.59-.02-3.13,2.38-6.27,4.75-9.4,7.13l.59.02c-.31-1.59-.63-3.19-.94-4.78-.04-.22-.48-.09-.59-.02-1.79,1.15-3.33,2.62-4.55,4.37l.7-.03c0-2.06,0-4.11.01-6.17,0-.26-.46-.17-.59-.07-2.87,2.17-5.73,4.34-8.6,6.52l.59.07c.25-1.97.17-3.96-.23-5.9-.05-.25-.54-.06-.65.03-1.98,1.66-4.1,3.12-6.36,4.37l.59.07c.29-1.72.59-3.45.88-5.17.04-.24-.4-.17-.51-.12-2.41,1.2-4.82,2.41-7.24,3.61l.51.12c.49-1.5.99-2.99,1.48-4.49.08-.24-.42-.15-.51-.12-2.76,1.25-5.51,2.51-8.27,3.76l.48.17c1.21-2.23,2.41-4.46,3.62-6.69.15-.28-.36-.22-.48-.17-2.46.96-4.93,1.91-7.39,2.87l.48.17c.75-1.01,1.5-2.01,2.24-3.02.2-.27-.39-.2-.48-.17-3.04,1.07-6.29,1.36-9.47.87l.07.27c2.66-2.52,5.85-4.43,9.34-5.54.43-.14.33-.52-.1-.38h0Z"/>
    <path class="cls-18" d="M127.05,54.2c.2,1.15.72,2.16,1.52,3,.1.1.66-.06.7-.19.48-1.56,1.28-2.98,2.38-4.18l-.69.13c1.49,1.74,3.18,3.28,5.05,4.61.13.09.67-.05.7-.22.4-2.06,1.26-3.98,2.51-5.67l-.7.19c1.7,1.44,3.41,2.88,5.11,4.31.12.1.68-.06.7-.22.29-1.73.86-3.38,1.69-4.92l-.7.19c2.57,1.37,5.08,2.85,7.52,4.45.12.08.66-.04.7-.19.32-1.38.41-2.78.25-4.19l-.7.22c3.1,1.78,6.19,3.57,9.29,5.35.11.06.73-.04.7-.22-.27-2.13-.53-4.27-.8-6.4l-.66.23c2.62.75,5.24,1.51,7.85,2.26.08.02.73-.12.66-.23-.9-1.39-1.79-2.79-2.69-4.18l-.66.23c5.32,1.25,10.7,2.21,16.12,2.89.09.01.77-.16.64-.25-2.04-1.5-4.08-2.99-6.12-4.49l-.64.25c3.27.5,6.54,1,9.82,1.49.14.02.64-.04.66-.23.15-1.09-.4-2.12-1.37-2.63-.18-.09-.75.21-.68.24.96.5,1.47,1.52,1.33,2.59l.66-.23c-3.27-.5-6.54-1-9.82-1.49-.09-.01-.77.16-.64.25,2.04,1.5,4.08,2.99,6.12,4.49l.64-.25c-5.42-.67-10.8-1.64-16.12-2.89-.08-.02-.74.11-.66.23.9,1.39,1.79,2.79,2.69,4.18l.66-.23c-2.62-.75-5.24-1.51-7.85-2.26-.11-.03-.68.06-.66.23.27,2.13.53,4.27.8,6.4l.7-.22c-3.1-1.78-6.19-3.57-9.29-5.35-.11-.06-.72.04-.7.22.16,1.39.08,2.77-.24,4.13l.7-.19c-2.44-1.6-4.95-3.08-7.52-4.45-.15-.08-.62.03-.7.19-.84,1.56-1.41,3.23-1.7,4.98l.7-.22c-1.7-1.44-3.41-2.88-5.11-4.31-.14-.11-.61.06-.7.19-1.27,1.71-2.11,3.64-2.52,5.73l.7-.22c-1.85-1.32-3.53-2.85-5.01-4.57-.12-.14-.59.02-.69.13-1.13,1.23-1.95,2.65-2.44,4.25l.7-.19c-.78-.83-1.28-1.84-1.48-2.96-.02-.13-.75.03-.72.19h0Z"/>
    <path class="cls-17" d="M45.04,60.2c-3.37,1.16-6.46,3.03-9.05,5.49-.19.18.06.27.24.24,2.76-.51,5.47-1.28,8.09-2.29l-.5-.09c-.56,1.27-1.12,2.54-1.68,3.81-.11.25.52.08.58.05,2.54-1.28,5.09-2.56,7.63-3.84l-.58-.05c-.95,1.95-1.9,3.91-2.86,5.86-.1.21.45.11.5.09,2.49-1,4.98-2,7.47-3l-.5-.04c.12,1.26.12,2.52,0,3.79-.03.26.48.11.58.05,1.83-1.12,3.66-2.24,5.49-3.37.43-.26.85-.55,1.29-.79.34-.18.7-.25.92.16.1.18.1.41.12.61.08,1.07.09,2.16.14,3.23,0,.18.44.07.5.04,1.99-.89,3.78-2.13,5.3-3.7l-.65.05c.64,1.59.91,3.27.78,4.98-.02.26.47.1.58.05,2.51-1.3,4.88-2.83,7.1-4.57.32-.25-.4-.24-.58-.1-2.18,1.71-4.51,3.21-6.97,4.48l.58.05c.14-1.74-.12-3.46-.78-5.08-.08-.21-.54-.07-.65.05-1.44,1.48-3.12,2.68-5,3.52l.5.04c-.03-.68-.06-1.37-.09-2.05-.02-.55.06-1.28-.17-1.79-.35-.77-1.33-.54-1.93-.24-1.15.57-2.23,1.35-3.32,2.02l-3.62,2.22.58.05c.13-1.3.14-2.59,0-3.89-.02-.18-.43-.07-.5-.04-2.49,1-4.98,2-7.47,3l.5.09c.95-1.95,1.9-3.91,2.86-5.86.12-.24-.53-.08-.58-.05-2.54,1.28-5.09,2.56-7.63,3.84l.58.05c.56-1.27,1.12-2.54,1.68-3.81.1-.22-.44-.11-.5-.09-2.5.96-5.07,1.7-7.7,2.19l.24.24c2.51-2.38,5.48-4.19,8.75-5.31.48-.16.04-.38-.28-.27h0Z"/>
    <path class="cls-17" d="M81.87,67.03l.05,4.11c0,.16.66-.1.72-.16,1.82-1.98,3.9-3.69,6.18-5.1l-.64.1c.09,2.41.69,4.74,1.77,6.89.08.15.61-.05.69-.13,1.42-1.46,3.07-2.66,4.92-3.53l-.57.06c.09,1.27.62,2.4,1.51,3.3.11.11.57-.06.67-.15,1.82-1.64,3.78-3.1,5.87-4.38l-.64.1,1.16,3.14c.06.16.61-.06.69-.13,1.58-1.57,3.15-3.13,4.73-4.7l-.69.13c.86,1.44,1.95,2.7,3.24,3.77.12.1.57-.05.67-.15,1.56-1.58,3.13-3.17,4.69-4.75l-.69.13,3.08,5.37c.09.16.59-.06.69-.13,2.04-1.64,4.07-3.29,6.11-4.93l-.69.13c.82,1.31,1.71,2.61,2.76,3.74.53.57,1.32,1.37,2.15.81.17-.12.27-.3.38-.47.28-.41.56-.81.85-1.2.37-.5.75-.99,1.15-1.46.2-.23.4-.45.61-.66.09-.09.19-.17.29-.26.05-.04.29-.16.12-.11l-.37.02c1.31,1.05,2.78,2.17,3.75,3.56.11.16.63-.05.72-.16,1.12-1.44,1.73-3.16,1.79-4.98l-.72.19c.43.9.87,1.81,1.3,2.71.08.16.77-.09.72-.19-.43-.9-.87-1.81-1.3-2.71-.07-.14-.72.04-.72.19-.05,1.8-.67,3.5-1.78,4.92l.72-.16c-.77-1.1-1.87-1.99-2.88-2.85-.25-.21-.59-.62-.89-.74s-.72.12-.97.29c-.94.64-1.66,1.74-2.32,2.64-.29.39-.64.8-.87,1.23-.01.02-.14.16-.13.19-.28-.7.37.11.25-.1-.01-.02-.1-.03-.12-.05-.1-.09-.25-.15-.36-.24-1.42-1.1-2.47-2.85-3.42-4.35-.1-.16-.59.05-.69.13-2.04,1.64-4.07,3.29-6.11,4.93l.69-.13-3.08-5.37c-.09-.15-.6.04-.69.13-1.56,1.58-3.13,3.17-4.69,4.75l.67-.15c-1.28-1.06-2.35-2.31-3.2-3.73-.09-.15-.6.04-.69.13-1.58,1.57-3.15,3.13-4.73,4.7l.69-.13-1.16-3.14c-.05-.15-.55.05-.64.1-2.12,1.3-4.12,2.78-5.97,4.45l.67-.15c-.88-.88-1.39-2.01-1.47-3.25,0-.13-.52.04-.57.06-1.93.91-3.67,2.14-5.16,3.67l.69-.13c-1.08-2.15-1.68-4.49-1.77-6.89,0-.14-.58.06-.64.1-2.35,1.45-4.48,3.2-6.35,5.23l.72-.16-.05-4.11c0-.09-.73,0-.72.19h0Z"/>
    <path class="cls-17" d="M185.64,65.03c-.02-1.51-.03-3.02-.05-4.52l-.7.19c1.98,2.5,4.61,4.37,7.6,5.47.2.07.5-.06.58-.25.18-.44.13-.9.07-1.35-.03-.24-.08-.49-.09-.74-.02-.56.13-.74.78-.6.79.18,1.57.52,2.34.78.82.28,1.65.55,2.47.83.16.05.65-.07.58-.31-.37-1.34-.75-2.69-1.12-4.03l-.65.28c2.74,1.37,5.48,2.74,8.22,4.11.56.28,1.8.66,1.83-.39.02-.57-.27-1.23-.4-1.78-.2-.79-.39-1.59-.59-2.38l-.5.32c1.45.12,2.81.65,3.95,1.54.21.17.89-.12.67-.29-1.27-.99-2.74-1.56-4.35-1.69-.15-.01-.55.09-.5.32.29,1.19.6,2.38.88,3.57.02.08.17.62.13.67-.04.04-.63-.29-.67-.31l-1.64-.82c-2.16-1.08-4.31-2.16-6.47-3.23-.16-.08-.72,0-.65.28.37,1.34.75,2.69,1.12,4.03l.58-.31c-1.1-.37-2.19-.73-3.29-1.1-.8-.27-1.86-.86-2.72-.53-1.38.52-.3,2.2-.72,3.21l.58-.25c-2.91-1.06-5.45-2.92-7.37-5.34-.13-.16-.7-.05-.7.19l.05,4.52c0,.32.73.18.73-.08h0Z"/>
    <path class="cls-17" d="M177.03,62.26l3.02,3.66c.31.37.53.65.69,1.09l.3.79.6-.25c-.54-.04-1.1-.03-1.63-.11-.58-.09-1.18-.35-1.74-.53-.73-.23-1.46-.46-2.19-.71-2.83-.94-5.63-1.99-8.39-3.13-.11-.04-.72.07-.66.24.49,1.49.65,3.02.5,4.58l.7-.22c-2.75-1.31-5.54-2.51-8.38-3.62-.13-.05-.62.03-.65.21-.23,1.1-.46,2.21-.69,3.31l.7-.19c-1.84-1.34-3.49-2.91-4.92-4.68-.11-.13-.58.04-.67.15-1.61,1.98-2.88,4.2-3.78,6.59l.7-.19c-1.29-1-2.42-2.17-3.35-3.51-.11-.16-.51,0-.64.08-1.64,1.04-2.66,2.81-2.7,4.76l.7-.22c-1.1-.64-1.89-1.63-2.25-2.85-.05-.18-.77.02-.72.19.37,1.24,1.17,2.26,2.29,2.91.14.08.7-.01.7-.22.04-1.83.98-3.54,2.54-4.53l-.64.08c.95,1.36,2.08,2.56,3.4,3.57.14.11.64-.02.7-.19.89-2.36,2.14-4.55,3.72-6.51l-.67.15c1.43,1.78,3.07,3.35,4.92,4.68.13.09.66-.01.7-.19.23-1.1.46-2.21.69-3.31l-.65.21c2.81,1.09,5.57,2.28,8.29,3.58.16.07.68,0,.7-.22.16-1.56,0-3.09-.5-4.58l-.66.24c2.84,1.17,5.71,2.24,8.62,3.2.69.23,1.38.45,2.07.67.56.17,1.14.42,1.71.51s1.12.07,1.68.11c.09,0,.66-.08.6-.25-.25-.67-.42-1.2-.88-1.76l-3.17-3.85c-.12-.14-.8.11-.68.25h0Z"/>
  </g>
  <g id="Layer_2" data-name="Layer 2">
    <g>
      <rect class="cls-8" x="104.97" y="96.94" width="46.41" height="85.15"/>
      <path class="cls-7" d="M152.48,180.34h-46.41l1.81,1.42v-85.15l-4.01,2.08h46.41l-1.81-1.42v85.15c0,2.55,5.81,1.4,5.81-.66v-85.15c0-.99-.88-1.42-1.81-1.42h-46.41c-.99,0-4.01.54-4.01,2.08v85.15c0,.99.88,1.42,1.81,1.42h46.41c2.32,0,6.1-3.5,2.2-3.5Z"/>
    </g>
    <g>
      <g>
        <path class="cls-15" d="M176.59,188.45c-9.33-1.59-18.66-3.17-27.99-4.76-.05-29.31-.09-58.62-.14-87.94,9.38-.97,18.75-1.94,28.13-2.91v95.61Z"/>
        <path class="cls-14" d="M176.74,188.31c-1.86-.32-3.72-.63-5.58-.95-3.81-.65-7.62-1.29-11.44-1.94-3.15-.53-6.3-1.07-9.44-1.6-.38-.06-.76-.13-1.13-.19-.09-.02-.2-.05-.29-.05-.17,0-.02-.06-.02.05.02-.48,0-.97,0-1.45,0-3.26-.01-6.52-.02-9.78,0-5.42-.02-10.83-.03-16.25-.01-6.39-.02-12.77-.03-19.16,0-6.23-.02-12.46-.03-18.7,0-4.94-.02-9.87-.02-14.81,0-2.5,0-5.01-.01-7.51,0-.11,0-.22,0-.34-.12.1-.25.19-.37.29,1.86-.19,3.72-.38,5.58-.57,3.83-.39,7.65-.79,11.48-1.18,3.16-.33,6.32-.65,9.47-.98.39-.04.78-.08,1.17-.12.1-.01.33-.12.43-.04-.13-.1-.08.14-.08.33v95.16c0,.14.45.1.45-.13v-94.22c0-.39.05-.91,0-1.29,0-.05,0-.11,0-.16s-.07-.05-.08-.05c-.93.1-1.86.19-2.79.29-2.24.23-4.47.47-6.71.7-2.71.28-5.41.56-8.12.84-2.34.24-4.68.49-7.03.73-1.14.12-2.29.19-3.43.36-.02,0-.03,0-.05,0-.08,0-.37.09-.37.29,0,.78,0,1.56,0,2.34,0,2.13,0,4.25.01,6.38,0,3.16,0,6.33.01,9.49,0,3.84.01,7.68.02,11.53,0,4.21.01,8.42.02,12.62,0,4.25.01,8.5.02,12.75,0,3.96.01,7.93.02,11.89,0,3.35.01,6.7.02,10.05,0,2.42,0,4.84.01,7.26,0,.75,0,1.49,0,2.24,0,.36-.05.82,0,1.18,0,.05,0,.1,0,.15,0,.04.07.07.08.07.92.16,1.85.32,2.77.47,2.23.38,4.47.76,6.7,1.14,2.69.46,5.38.92,8.07,1.38,2.33.4,4.66.79,6.98,1.19,1.13.19,2.28.47,3.41.58.02,0,.03,0,.05,0,.1.02.51-.25.29-.28Z"/>
      </g>
      <g>
        <path class="cls-3" d="M176.73,188.56c-9.38-1.62-18.75-3.25-28.13-4.87v-87.87c9.38-.97,18.75-1.94,28.13-2.9v95.65Z"/>
        <path class="cls-16" d="M176.81,188.34c-.93-.16-1.86-.32-2.79-.48-2.24-.39-4.47-.77-6.71-1.16-2.71-.47-5.41-.93-8.12-1.4-2.34-.4-4.68-.81-7.03-1.21-.78-.13-1.55-.27-2.33-.4-.24-.04-.48-.08-.72-.12-.1-.02-.29-.11-.38-.07-.01,0-.04,0-.05,0,.05.07.09.13.14.2v-86.6c0-.37.04-.82,0-1.19,0-.05,0-.1,0-.15-.1.1-.21.2-.31.29.93-.1,1.86-.19,2.79-.29,2.24-.23,4.47-.46,6.71-.69l8.12-.83c2.34-.24,4.68-.48,7.03-.72.78-.08,1.55-.16,2.33-.24.24-.02.48-.05.72-.07.1-.01.29.04.38-.04.01-.01.04,0,.05,0-.05-.06-.09-.12-.14-.18v91.7c0,1.24-.04,2.49,0,3.73,0,.05,0,.11,0,.16,0,.35.45.27.45-.01v-91.82c0-1.24.04-2.5,0-3.73,0-.05,0-.11,0-.16,0-.14-.07-.19-.14-.18-.93.1-1.86.19-2.79.29-2.24.23-4.47.46-6.71.7-2.71.28-5.41.56-8.12.84-2.34.24-4.68.49-7.03.73-1.14.12-2.29.17-3.43.36-.02,0-.03,0-.05,0-.08,0-.31.1-.31.29v84.24c0,1.13-.04,2.28,0,3.42,0,.05,0,.1,0,.15,0,.12.07.19.14.2.93.16,1.86.32,2.79.49,2.24.39,4.47.78,6.71,1.17,2.71.47,5.41.94,8.12,1.41,2.34.41,4.68.81,7.03,1.22,1.14.2,2.29.48,3.43.6.02,0,.03,0,.05,0,.18.03.47-.4.17-.45Z"/>
      </g>
      <path class="cls-12" d="M176.68,134.18c-.93-.01-1.86-.03-2.79-.04-2.24-.04-4.47-.07-6.71-.11-2.71-.04-5.41-.09-8.12-.13-2.34-.04-4.68-.08-7.03-.11-.78-.01-1.55-.02-2.33-.04-.24,0-.48,0-.72-.01-.11,0-.28-.06-.38,0-.01,0-.04,0-.05,0,.04.03.09.06.13.1v-38.19c-.1.11-.21.21-.31.32.93-.1,1.86-.19,2.79-.29,2.24-.23,4.47-.46,6.71-.69,2.71-.28,5.41-.56,8.12-.84,2.34-.24,4.68-.48,7.03-.72.78-.08,1.55-.16,2.33-.24.24-.02.48-.05.72-.07.11-.01.28.03.38-.04.01,0,.04,0,.05,0-.04-.03-.09-.06-.13-.09v41.51c0,.21.45.08.45-.2v-41.57c0-.09-.1-.09-.13-.09-.93.1-1.86.19-2.79.29-2.24.23-4.47.47-6.71.7-2.71.28-5.41.56-8.12.85-2.34.24-4.68.49-7.03.73-1.14.12-2.29.15-3.43.36-.02,0-.03,0-.05,0-.1.01-.31.11-.31.32v38.14c0,.08.1.09.13.1.93.02,1.86.03,2.79.05,2.24.04,4.47.08,6.71.12,2.71.05,5.41.09,8.12.14,2.34.04,4.68.08,7.03.12,1.14.02,2.29.13,3.43.06.02,0,.03,0,.05,0,.16,0,.48-.41.18-.41Z"/>
      <path class="cls-12" d="M156.26,178.83c-1.38-.21-2.75-.42-4.13-.64.05.04.09.08.14.13v-40.25c-.1.1-.21.2-.31.29,1.38.04,2.75.08,4.13.13-.05-.04-.09-.07-.14-.11v40.71c0,.22.45.15.45-.13v-40.76c0-.09-.1-.11-.14-.11-1.37-.04-2.75-.08-4.13-.12-.11,0-.31.07-.31.29v40.19c0,.09.1.12.14.13,1.38.21,2.75.43,4.13.64.17.03.48-.34.18-.39Z"/>
      <path class="cls-12" d="M164.72,179.84c-1.38-.21-2.75-.42-4.13-.63.04.04.09.08.13.12v-41c-.1.1-.21.2-.31.29,1.38.04,2.75.08,4.13.13-.04-.04-.09-.07-.13-.11v41.46c0,.21.45.15.45-.14v-41.51c0-.09-.1-.11-.13-.11-1.37-.04-2.75-.08-4.13-.12-.1,0-.31.07-.31.29v40.94c0,.09.1.12.13.12,1.37.21,2.75.43,4.13.64.16.02.48-.34.18-.38Z"/>
      <path class="cls-12" d="M172.98,181.39c-1.38-.21-2.75-.42-4.13-.64.05.07.09.14.14.21v-42.34c-.1.09-.21.18-.31.27,1.38.04,2.75.08,4.13.13-.05-.07-.09-.13-.14-.2v42.8c0,.35.45.26.45-.02v-42.86c0-.13-.07-.2-.14-.2-1.38-.04-2.75-.08-4.13-.12-.08,0-.31.06-.31.27v42.28c0,.13.07.2.14.21,1.38.21,2.75.43,4.13.64.18.03.47-.4.17-.45Z"/>
      <path class="cls-12" d="M152.26,138.05c-.98-1.43-1.95-2.84-2.93-4.25-.12.09-.24.19-.35.28.89.02,1.77.03,2.66.05,2.14.04,4.28.07,6.42.11,2.58.04,5.15.09,7.73.13,2.23.04,4.46.08,6.69.11.74.01,1.48.03,2.22.04.23,0,.46,0,.69.01.08,0,.29.08.36,0,0,0,.03,0,.05,0-.02-.05-.04-.1-.06-.15-1.01,1.48-2.02,2.96-3.03,4.41.12-.06.23-.12.35-.18-2.35-.07-4.7-.14-7.04-.21-3.74-.11-7.49-.22-11.23-.33-.86-.03-1.72-.05-2.58-.08-.09,0-.25.01-.32.13-.04.08-.08.17.03.18,3.18.1,6.36.19,9.54.29,3.71.11,7.41.22,11.12.34.12,0,.24.03.36-.02.31-.13.6-.75.83-1.09.79-1.15,1.59-2.31,2.38-3.48.06-.08-.02-.15-.06-.15-.89-.01-1.77-.03-2.66-.04-2.14-.03-4.28-.07-6.42-.1-2.58-.04-5.15-.08-7.73-.12-2.23-.04-4.46-.07-6.69-.11-1.09-.02-2.18-.1-3.27-.05-.02,0-.03,0-.05,0-.04,0-.46.13-.35.28.98,1.4,1.95,2.82,2.93,4.24.09.14.5-.13.42-.24Z"/>
      <path class="cls-12" d="M149.33,183.74c1.1-1.73,2.2-3.49,3.3-5.26-.1.05-.2.1-.3.15,3.21.5,6.41,1,9.62,1.5,2.3.36,4.6.72,6.9,1.07.83.13,1.66.26,2.49.39.44.07.91.2,1.35.21.03,0,.07.01.1.02-.04,0-.1-.14-.1-.04,0,.05.09.19.11.23.32.71.65,1.43.97,2.15.65,1.43,1.29,2.86,1.94,4.3.1-.1.2-.21.3-.31-.89-.15-1.77-.31-2.66-.46-2.14-.37-4.28-.74-6.42-1.11-2.58-.44-5.15-.89-7.73-1.33-2.23-.38-4.46-.77-6.69-1.15-1.09-.19-2.18-.46-3.27-.56-.02,0-.03,0-.05,0-.16-.03-.48.31-.18.36.89.15,1.77.31,2.66.46,2.14.37,4.28.74,6.42,1.11,2.58.45,5.15.89,7.73,1.34,2.23.39,4.46.77,6.69,1.16,1.09.19,2.18.47,3.27.57.02,0,.03,0,.05,0,.07.01.4-.08.3-.31-.71-1.58-1.42-3.16-2.12-4.72-.19-.42-.38-.83-.57-1.25-.1-.21-.2-.54-.32-.71-.1-.13-.19-.13-.31-.14-1.81-.28-3.62-.56-5.43-.84-2.89-.45-5.77-.89-8.66-1.34-1.96-.3-3.92-.6-5.88-.91-.11-.02-.22-.05-.33-.05-.33,0-.55.55-.75.89-.88,1.41-1.75,2.8-2.63,4.18-.07.11-.14.22-.21.33-.12.19.32.22.42.08Z"/>
      <path class="cls-12" d="M156.32,129.35c-.73,0-1.45,0-2.18,0-.48,0-.95,0-1.43,0-.13,0-.29-.04-.42,0-.17.05-.01-.06-.02.05.03-.45,0-.93,0-1.38v-28.28c-.12.1-.25.19-.37.29.73-.06,1.45-.13,2.18-.19.48-.04.95-.08,1.43-.13.13-.01.29.01.42-.04.17-.06.01.06.02-.05-.03.46,0,.95,0,1.4v28.6c0,.14.45.03.45-.2v-30.05s-.07-.05-.08-.05c-1.37.12-2.75.25-4.13.37-.09,0-.37.08-.37.29v29.63s.07.06.08.06c1.37,0,2.75,0,4.13.01.09,0,.25-.02.32-.14.04-.08.08-.18-.03-.18Z"/>
      <path class="cls-12" d="M164.71,129.32c-1.38,0-2.75,0-4.13,0,.05.06.09.12.14.17v-30.45c-.1.1-.21.2-.31.29,1.38-.12,2.75-.24,4.13-.37-.05-.05-.09-.11-.14-.16v30.79c0,.32.45.17.45-.09v-30.83c0-.13-.07-.17-.14-.16-1.38.12-2.75.25-4.13.37-.07,0-.31.1-.31.29v30.41c0,.13.07.17.14.17,1.38,0,2.75,0,4.13.01.17,0,.47-.44.17-.44Z"/>
      <path class="cls-12" d="M172.99,129.37c-1.38,0-2.75,0-4.13,0,.04.03.09.06.13.08v-31.22c-.11.11-.21.21-.32.32,1.38-.12,2.75-.24,4.13-.37-.04-.02-.09-.05-.13-.07v31.56c0,.18.45.06.45-.21v-31.6c0-.09-.11-.08-.13-.07-1.38.12-2.75.25-4.13.37-.09,0-.32.11-.32.32v31.17c0,.08.11.08.13.08,1.37,0,2.75,0,4.13.01.14,0,.48-.38.18-.38Z"/>
      <path class="cls-12" d="M152.22,99.62c-.98-1.4-1.95-2.79-2.93-4.17-.06.17-.13.34-.19.51.89-.09,1.77-.18,2.66-.27,2.14-.22,4.28-.44,6.42-.66,2.58-.26,5.15-.53,7.73-.79,2.23-.23,4.46-.46,6.69-.69l2.22-.23c.23-.02.46-.05.69-.07.1-.01.27.03.36-.04.01,0,.03,0,.05,0-.04-.16-.09-.31-.13-.47-.65,1.11-1.31,2.2-1.96,3.3-.32.53-.66,1.04-.96,1.6-.19.36,0-.09.06.05,0-.01-.08,0-.09,0-.41-.06-.85.08-1.26.11l-2.42.22c-4.51.41-9.02.82-13.53,1.22-1.18.11-2.36.21-3.54.32-.26.02-.34.58-.04.56,3.18-.28,6.36-.56,9.54-.85,3.7-.33,7.4-.66,11.1-.98.49-.04.78-.81,1.13-1.39.76-1.27,1.52-2.54,2.28-3.82.15-.25.04-.49-.13-.47-.89.09-1.77.18-2.66.28-2.14.22-4.28.45-6.42.67-2.58.27-5.15.54-7.73.81-2.23.23-4.46.47-6.69.7-.74.08-1.48.15-2.22.23-.35.04-.71.02-1.05.11-.01,0-.03,0-.05,0-.15.02-.33.31-.19.51.98,1.38,1.95,2.76,2.93,4.17.15.22.54-.19.34-.46Z"/>
      <path class="cls-12" d="M149.33,133.91c1.1-1.46,2.2-2.93,3.3-4.42-.12.06-.23.12-.35.18,3.08,0,6.16.02,9.24.03,3.66.01,7.33.02,10.99.04.06,0,.12,0,.19,0,.08,0,.06.03,0-.03.29.3.55.87.8,1.26.74,1.17,1.49,2.36,2.23,3.54.12-.1.24-.2.35-.3-.89-.01-1.77-.03-2.66-.04-2.14-.03-4.28-.07-6.42-.1-2.58-.04-5.15-.08-7.73-.12-2.23-.04-4.46-.07-6.69-.11-1.09-.02-2.18-.1-3.27-.05-.02,0-.03,0-.05,0-.09,0-.25.01-.32.13-.04.08-.08.17.03.18.89.02,1.77.03,2.66.05,2.14.04,4.28.07,6.42.11,2.58.04,5.15.09,7.73.13,2.23.04,4.46.08,6.69.11,1.09.02,2.18.1,3.27.06.02,0,.03,0,.05,0,.04,0,.46-.14.35-.3-.79-1.27-1.58-2.53-2.38-3.78-.19-.3-.46-.95-.72-1.06-.09-.04-.23,0-.32,0-1.86,0-3.71,0-5.57-.01-2.79,0-5.59-.01-8.38-.02-1.92,0-3.85,0-5.77-.01-.14,0-.28-.01-.42,0-.28.02-.42.26-.63.53-.93,1.26-1.86,2.5-2.8,3.74-.08.11-.16.22-.24.32-.1.13.32.08.41-.04Z"/>
    </g>
    <rect class="cls-12" x="176.97" y="92.48" width="4.11" height="96.4"/>
  </g>
</svg>